<?xml version="1.0" encoding="UTF-8" standalone="no"?>
<!DOCTYPE svg PUBLIC "-//W3C//DTD SVG 1.1//EN"
 "http://www.w3.org/Graphics/SVG/1.1/DTD/svg11.dtd">
<!-- Generated by graphviz version 11.0.0 (20240428.1522)
 -->
<!-- Title: ScriptConsoleEnfScriptTab Pages: 1 -->
<svg width="1480pt" height="394pt"
 viewBox="0.00 0.00 1480.11 393.91" xmlns="http://www.w3.org/2000/svg" xmlns:xlink="http://www.w3.org/1999/xlink">
<g id="graph0" class="graph" transform="scale(1 1) rotate(0) translate(4 389.91)">
<title>ScriptConsoleEnfScriptTab</title>
<!-- Node1 -->
<g id="Node000001" class="node">
<title>Node1</title>
<g id="a_Node000001"><a xlink:title=" ">
<polygon fill="#999999" stroke="#666666" points="208.99,-20 76.74,-20 76.74,0 208.99,0 208.99,-20"/>
<text text-anchor="middle" x="142.86" y="-6.5" font-family="Helvetica,sans-Serif" font-size="10.00">ScriptConsoleEnfScriptTab</text>
</a>
</g>
</g>
<!-- Node1&#45;&gt;Node1 -->
<g id="edge9_Node000001_Node000001" class="edge">
<title>Node1&#45;&gt;Node1</title>
<g id="a_edge9_Node000001_Node000001"><a xlink:title=" ">
<path fill="none" stroke="#9a32cd" stroke-dasharray="5,2" d="M220.14,-15.79C224.43,-14.38 226.99,-12.45 226.99,-10 226.99,-5.87 219.74,-3.22 209.16,-2.06"/>
<polygon fill="#9a32cd" stroke="#9a32cd" points="219.79,-12.29 210.65,-17.65 221.13,-19.16 219.79,-12.29"/>
</a>
</g>
<text text-anchor="middle" x="253.61" y="-6.5" font-family="Helvetica,sans-Serif" font-size="10.00" fill="grey"> m_Instance</text>
</g>
<!-- Node2 -->
<g id="Node000002" class="node">
<title>Node2</title>
<g id="a_Node000002"><a xlink:href="../../d8/d09/class_script_console_tab_base.html" target="_top" xlink:title=" ">
<polygon fill="white" stroke="#666666" points="354.36,-112 239.36,-112 239.36,-92 354.36,-92 354.36,-112"/>
<text text-anchor="middle" x="296.86" y="-98.5" font-family="Helvetica,sans-Serif" font-size="10.00">ScriptConsoleTabBase</text>
</a>
</g>
</g>
<!-- Node2&#45;&gt;Node1 -->
<g id="edge1_Node000001_Node000002" class="edge">
<title>Node2&#45;&gt;Node1</title>
<g id="a_edge1_Node000001_Node000002"><a xlink:title=" ">
<path fill="none" stroke="#8b1a1a" d="M271.1,-85.94C239.09,-67.24 185.45,-35.89 158.84,-20.33"/>
<polygon fill="#8b1a1a" stroke="#8b1a1a" points="268.97,-88.75 279.37,-90.77 272.5,-82.71 268.97,-88.75"/>
</a>
</g>
</g>
<!-- Node2&#45;&gt;Node2 -->
<g id="edge5_Node000002_Node000002" class="edge">
<title>Node2&#45;&gt;Node2</title>
<g id="a_edge5_Node000002_Node000002"><a xlink:title=" ">
<path fill="none" stroke="#9a32cd" stroke-dasharray="5,2" d="M365.91,-107.9C369.95,-106.49 372.36,-104.52 372.36,-102 372.36,-97.64 365.14,-94.94 354.79,-93.88"/>
<polygon fill="#9a32cd" stroke="#9a32cd" points="365.4,-104.44 356.28,-109.82 366.77,-111.3 365.4,-104.44"/>
</a>
</g>
<text text-anchor="middle" x="394.86" y="-98.5" font-family="Helvetica,sans-Serif" font-size="10.00" fill="grey"> m_Parent</text>
</g>
<!-- Node3 -->
<g id="Node000003" class="node">
<title>Node3</title>
<g id="a_Node000003"><a xlink:href="../../db/d06/class_param3.html" target="_top" xlink:title=" ">
<polygon fill="white" stroke="#666666" points="321.74,-384 271.99,-384 271.99,-364 321.74,-364 321.74,-384"/>
<text text-anchor="middle" x="296.86" y="-370.5" font-family="Helvetica,sans-Serif" font-size="10.00">Param3</text>
</a>
</g>
</g>
<!-- Node3&#45;&gt;Node1 -->
<g id="edge10_Node000001_Node000003" class="edge">
<title>Node3&#45;&gt;Node1</title>
<g id="a_edge10_Node000001_Node000003"><a xlink:title=" ">
<path fill="none" stroke="#9a32cd" stroke-dasharray="5,2" d="M260.89,-360.77C195.01,-336.1 57.05,-273.4 5.86,-166 -25.19,-100.83 76.97,-42.45 122.31,-20.37"/>
<polygon fill="#9a32cd" stroke="#9a32cd" points="259.56,-364 270.15,-364.15 261.96,-357.43 259.56,-364"/>
</a>
</g>
<text text-anchor="middle" x="68.86" y="-156.5" font-family="Helvetica,sans-Serif" font-size="10.00" fill="grey"> m_EnscriptHistoryRow</text>
<text text-anchor="middle" x="68.86" y="-144.5" font-family="Helvetica,sans-Serif" font-size="10.00" fill="grey">m_EnscriptHistoryRowServer</text>
<text text-anchor="middle" x="68.86" y="-132.5" font-family="Helvetica,sans-Serif" font-size="10.00" fill="grey">m_RunColor</text>
</g>
<!-- Node3&#45;&gt;Node2 -->
<g id="edge2_Node000002_Node000003" class="edge">
<title>Node3&#45;&gt;Node2</title>
<g id="a_edge2_Node000002_Node000003"><a xlink:title=" ">
<path fill="none" stroke="#9a32cd" stroke-dasharray="5,2" d="M285.85,-353.89C267.57,-319.7 234.52,-245.87 250.86,-184 258.38,-155.54 278.46,-126.61 289.44,-112.26"/>
<polygon fill="#9a32cd" stroke="#9a32cd" points="282.55,-355.15 290.45,-362.2 288.68,-351.76 282.55,-355.15"/>
</a>
</g>
<text text-anchor="middle" x="262.86" y="-216.5" font-family="Helvetica,sans-Serif" font-size="10.00" fill="grey"> m_Id</text>
</g>
<!-- Node8 -->
<g id="Node000008" class="node">
<title>Node8</title>
<g id="a_Node000008"><a xlink:href="../../d2/d01/classarray.html" target="_top" xlink:title=" ">
<polygon fill="white" stroke="#666666" points="1215.74,-112 1135.99,-112 1135.99,-92 1215.74,-92 1215.74,-112"/>
<text text-anchor="middle" x="1175.86" y="-98.5" font-family="Helvetica,sans-Serif" font-size="10.00">array&lt; string &gt;</text>
</a>
</g>
</g>
<!-- Node3&#45;&gt;Node8 -->
<g id="edge13_Node000008_Node000003" class="edge">
<title>Node3&#45;&gt;Node8</title>
<g id="a_edge13_Node000008_Node000003"><a xlink:title=" ">
<path fill="none" stroke="#9a32cd" stroke-dasharray="5,2" d="M318.53,-357.24C350.94,-334.57 414.81,-293.35 475.86,-274 511.02,-262.86 612.49,-279.56 640.86,-256 666.58,-234.64 636.24,-204.54 662.61,-184 696.77,-157.39 1013.42,-185.92 1051.86,-166 1069.86,-156.68 1063.04,-141.31 1079.86,-130 1096.39,-118.89 1117.44,-112.31 1135.61,-108.44"/>
<polygon fill="#9a32cd" stroke="#9a32cd" points="316.88,-354.12 310.75,-362.76 320.93,-359.83 316.88,-354.12"/>
</a>
</g>
<text text-anchor="middle" x="719.99" y="-246.5" font-family="Helvetica,sans-Serif" font-size="10.00" fill="grey"> NO_SORTING</text>
<text text-anchor="middle" x="719.99" y="-234.5" font-family="Helvetica,sans-Serif" font-size="10.00" fill="grey">geomLevel</text>
<text text-anchor="middle" x="719.99" y="-222.5" font-family="Helvetica,sans-Serif" font-size="10.00" fill="grey">hierLevel</text>
<text text-anchor="start" x="661.86" y="-210.5" font-family="Helvetica,sans-Serif" font-size="10.00" fill="grey">m_CurrentSettingAlternate</text>
<text text-anchor="middle" x="719.99" y="-198.5" font-family="Helvetica,sans-Serif" font-size="10.00" fill="grey">KeyIndex</text>
<text text-anchor="middle" x="719.99" y="-186.5" font-family="Helvetica,sans-Serif" font-size="10.00" fill="grey">m_CurrentSettingKeyIndex</text>
</g>
<!-- Node10 -->
<g id="Node000010" class="node">
<title>Node10</title>
<g id="a_Node000010"><a xlink:href="../../d2/d01/classarray.html" target="_top" xlink:title="Result for an object found in CGame.IsBoxCollidingGeometryProxy.">
<polygon fill="white" stroke="#666666" points="1076.74,-230 1038.99,-230 1038.99,-210 1076.74,-210 1076.74,-230"/>
<text text-anchor="middle" x="1057.86" y="-216.5" font-family="Helvetica,sans-Serif" font-size="10.00">array</text>
</a>
</g>
</g>
<!-- Node3&#45;&gt;Node10 -->
<g id="edge16_Node000010_Node000003" class="edge">
<title>Node3&#45;&gt;Node10</title>
<g id="a_edge16_Node000010_Node000003"><a xlink:title=" ">
<path fill="none" stroke="#9a32cd" stroke-dasharray="5,2" d="M333.05,-372.94C405.78,-372.32 567,-368.39 616.86,-346 659.23,-326.97 649.96,-292.39 692.61,-274 760.51,-244.72 957.79,-287.12 1024.86,-256 1036.68,-250.52 1046.35,-238.72 1052.1,-230.34"/>
<polygon fill="#9a32cd" stroke="#9a32cd" points="333.25,-369.43 323.27,-373 333.3,-376.43 333.25,-369.43"/>
</a>
</g>
<text text-anchor="middle" x="749.99" y="-336.5" font-family="Helvetica,sans-Serif" font-size="10.00" fill="grey"> NO_SORTING</text>
<text text-anchor="middle" x="749.99" y="-324.5" font-family="Helvetica,sans-Serif" font-size="10.00" fill="grey">geomLevel</text>
<text text-anchor="middle" x="749.99" y="-312.5" font-family="Helvetica,sans-Serif" font-size="10.00" fill="grey">hierLevel</text>
<text text-anchor="start" x="691.86" y="-300.5" font-family="Helvetica,sans-Serif" font-size="10.00" fill="grey">m_CurrentSettingAlternate</text>
<text text-anchor="middle" x="749.99" y="-288.5" font-family="Helvetica,sans-Serif" font-size="10.00" fill="grey">KeyIndex</text>
<text text-anchor="middle" x="749.99" y="-276.5" font-family="Helvetica,sans-Serif" font-size="10.00" fill="grey">m_CurrentSettingKeyIndex</text>
</g>
<!-- Node12 -->
<g id="Node000012" class="node">
<title>Node12</title>
<g id="a_Node000012"><a xlink:href="../../d2/d01/classarray.html" target="_top" xlink:title=" ">
<polygon fill="white" stroke="#666666" points="966.11,-112 879.61,-112 879.61,-92 966.11,-92 966.11,-112"/>
<text text-anchor="middle" x="922.86" y="-98.5" font-family="Helvetica,sans-Serif" font-size="10.00">array&lt; Widget &gt;</text>
</a>
</g>
</g>
<!-- Node3&#45;&gt;Node12 -->
<g id="edge23_Node000012_Node000003" class="edge">
<title>Node3&#45;&gt;Node12</title>
<g id="a_edge23_Node000012_Node000003"><a xlink:title=" ">
<path fill="none" stroke="#9a32cd" stroke-dasharray="5,2" d="M294.83,-352.31C291,-308.48 284.93,-208.34 306.61,-184 318.61,-170.53 608.97,-132.32 626.86,-130 716.16,-118.42 821.25,-110.08 879.12,-105.94"/>
<polygon fill="#9a32cd" stroke="#9a32cd" points="291.32,-352.37 295.73,-362 298.29,-351.72 291.32,-352.37"/>
</a>
</g>
<text text-anchor="middle" x="363.99" y="-246.5" font-family="Helvetica,sans-Serif" font-size="10.00" fill="grey"> NO_SORTING</text>
<text text-anchor="middle" x="363.99" y="-234.5" font-family="Helvetica,sans-Serif" font-size="10.00" fill="grey">geomLevel</text>
<text text-anchor="middle" x="363.99" y="-222.5" font-family="Helvetica,sans-Serif" font-size="10.00" fill="grey">hierLevel</text>
<text text-anchor="start" x="305.86" y="-210.5" font-family="Helvetica,sans-Serif" font-size="10.00" fill="grey">m_CurrentSettingAlternate</text>
<text text-anchor="middle" x="363.99" y="-198.5" font-family="Helvetica,sans-Serif" font-size="10.00" fill="grey">KeyIndex</text>
<text text-anchor="middle" x="363.99" y="-186.5" font-family="Helvetica,sans-Serif" font-size="10.00" fill="grey">m_CurrentSettingKeyIndex</text>
</g>
<!-- Node4 -->
<g id="Node000004" class="node">
<title>Node4</title>
<g id="a_Node000004"><a xlink:href="../../d9/d09/classbool.html" target="_top" xlink:title=" ">
<polygon fill="white" stroke="#666666" points="159.86,-230 125.86,-230 125.86,-210 159.86,-210 159.86,-230"/>
<text text-anchor="middle" x="142.86" y="-216.5" font-family="Helvetica,sans-Serif" font-size="10.00">bool</text>
</a>
</g>
</g>
<!-- Node4&#45;&gt;Node1 -->
<g id="edge32_Node000001_Node000004" class="edge">
<title>Node4&#45;&gt;Node1</title>
<g id="a_edge32_Node000001_Node000004"><a xlink:title=" ">
<path fill="none" stroke="#9a32cd" stroke-dasharray="5,2" d="M140.66,-198.47C138.23,-173.36 134.86,-129.57 136.36,-92 137.4,-66.06 140.31,-35.57 141.86,-20.46"/>
<polygon fill="#9a32cd" stroke="#9a32cd" points="137.16,-198.66 141.66,-208.26 144.13,-197.95 137.16,-198.66"/>
</a>
</g>
<text text-anchor="middle" x="183.11" y="-98.5" font-family="Helvetica,sans-Serif" font-size="10.00" fill="grey"> m_AllowScriptOutput</text>
</g>
<!-- Node4&#45;&gt;Node2 -->
<g id="edge3_Node000002_Node000004" class="edge">
<title>Node4&#45;&gt;Node2</title>
<g id="a_edge3_Node000002_Node000004"><a xlink:title=" ">
<path fill="none" stroke="#9a32cd" stroke-dasharray="5,2" d="M140.95,-198.32C140.31,-178.09 142.79,-147.8 160.61,-130 166.41,-124.21 204.5,-116.95 238.94,-111.42"/>
<polygon fill="#9a32cd" stroke="#9a32cd" points="137.45,-198.4 141.58,-208.16 144.44,-197.96 137.45,-198.4"/>
</a>
</g>
<text text-anchor="middle" x="190.99" y="-144.5" font-family="Helvetica,sans-Serif" font-size="10.00" fill="grey"> m_IsSelected</text>
</g>
<!-- Node5 -->
<g id="Node000005" class="node">
<title>Node5</title>
<g id="a_Node000005"><a xlink:href="../../dd/d0a/class_widget.html" target="_top" xlink:title=" ">
<polygon fill="white" stroke="#666666" points="957.24,-384 910.49,-384 910.49,-364 957.24,-364 957.24,-384"/>
<text text-anchor="middle" x="933.86" y="-370.5" font-family="Helvetica,sans-Serif" font-size="10.00">Widget</text>
</a>
</g>
</g>
<!-- Node5&#45;&gt;Node2 -->
<g id="edge4_Node000002_Node000005" class="edge">
<title>Node5&#45;&gt;Node2</title>
<g id="a_edge4_Node000002_Node000005"><a xlink:title=" ">
<path fill="none" stroke="#9a32cd" stroke-dasharray="5,2" d="M898.96,-371.44C878.19,-368.74 852.7,-362.06 835.86,-346 781.04,-293.72 839.69,-234.1 782.86,-184 720.06,-128.63 469.14,-110.58 354.52,-105.15"/>
<polygon fill="#9a32cd" stroke="#9a32cd" points="898.42,-374.9 908.72,-372.44 899.13,-367.94 898.42,-374.9"/>
</a>
</g>
<text text-anchor="middle" x="840.99" y="-228.5" font-family="Helvetica,sans-Serif" font-size="10.00" fill="grey"> m_Button</text>
<text text-anchor="middle" x="840.99" y="-216.5" font-family="Helvetica,sans-Serif" font-size="10.00" fill="grey">m_ParentRoot</text>
<text text-anchor="middle" x="840.99" y="-204.5" font-family="Helvetica,sans-Serif" font-size="10.00" fill="grey">m_Root</text>
</g>
<!-- Node5&#45;&gt;Node8 -->
<g id="edge31_Node000008_Node000005" class="edge">
<title>Node5&#45;&gt;Node8</title>
<g id="a_edge31_Node000008_Node000005"><a xlink:title=" ">
<path fill="none" stroke="#9a32cd" stroke-dasharray="5,2" d="M968.9,-372.46C1019.3,-370.99 1108.95,-365.62 1133.86,-346 1160.84,-324.76 1138,-298.69 1161.86,-274 1175.98,-259.4 1192.68,-272.95 1203.86,-256 1234.81,-209.07 1213.79,-182.17 1192.86,-130 1190.31,-123.62 1186.24,-117.09 1182.72,-112.05"/>
<polygon fill="#9a32cd" stroke="#9a32cd" points="969.01,-368.95 959.1,-372.7 969.18,-375.95 969.01,-368.95"/>
</a>
</g>
<text text-anchor="middle" x="1237.24" y="-216.5" font-family="Helvetica,sans-Serif" font-size="10.00" fill="grey"> m_Root</text>
</g>
<!-- Node5&#45;&gt;Node10 -->
<g id="edge20_Node000010_Node000005" class="edge">
<title>Node5&#45;&gt;Node10</title>
<g id="a_edge20_Node000010_Node000005"><a xlink:title=" ">
<path fill="none" stroke="#9a32cd" stroke-dasharray="5,2" d="M948.5,-355.06C975.05,-322.51 1030.28,-254.81 1050.36,-230.2"/>
<polygon fill="#9a32cd" stroke="#9a32cd" points="945.81,-352.81 942.21,-362.77 951.24,-357.24 945.81,-352.81"/>
</a>
</g>
<text text-anchor="middle" x="1032.24" y="-306.5" font-family="Helvetica,sans-Serif" font-size="10.00" fill="grey"> m_Root</text>
</g>
<!-- Node5&#45;&gt;Node12 -->
<g id="edge27_Node000012_Node000005" class="edge">
<title>Node5&#45;&gt;Node12</title>
<g id="a_edge27_Node000012_Node000005"><a xlink:title=" ">
<path fill="none" stroke="#9a32cd" stroke-dasharray="5,2" d="M930.79,-352.29C925.45,-315.09 914.65,-234.47 910.86,-166 909.98,-150.02 907.54,-145.65 910.86,-130 912.18,-123.78 915.04,-117.25 917.63,-112.17"/>
<polygon fill="#9a32cd" stroke="#9a32cd" points="927.31,-352.65 932.22,-362.04 934.24,-351.64 927.31,-352.65"/>
</a>
</g>
<text text-anchor="middle" x="936.24" y="-216.5" font-family="Helvetica,sans-Serif" font-size="10.00" fill="grey"> m_Root</text>
</g>
<!-- Node6 -->
<g id="Node000006" class="node">
<title>Node6</title>
<g id="a_Node000006"><a xlink:href="../../d2/d02/class_plugin_config_debug_profile.html" target="_top" xlink:title=" ">
<polygon fill="white" stroke="#666666" points="556.24,-230 431.49,-230 431.49,-210 556.24,-210 556.24,-230"/>
<text text-anchor="middle" x="493.86" y="-216.5" font-family="Helvetica,sans-Serif" font-size="10.00">PluginConfigDebugProfile</text>
</a>
</g>
</g>
<!-- Node6&#45;&gt;Node2 -->
<g id="edge6_Node000002_Node000006" class="edge">
<title>Node6&#45;&gt;Node2</title>
<g id="a_edge6_Node000002_Node000006"><a xlink:title=" ">
<path fill="none" stroke="#9a32cd" stroke-dasharray="5,2" d="M467.87,-203.69C426.51,-179.34 346.95,-132.49 312.93,-112.46"/>
<polygon fill="#9a32cd" stroke="#9a32cd" points="466.04,-206.68 476.44,-208.74 469.6,-200.65 466.04,-206.68"/>
</a>
</g>
<text text-anchor="middle" x="449.99" y="-144.5" font-family="Helvetica,sans-Serif" font-size="10.00" fill="grey"> m_ConfigDebugProfile</text>
</g>
<!-- Node7 -->
<g id="Node000007" class="node">
<title>Node7</title>
<g id="a_Node000007"><a xlink:href="../../d5/d02/classstring.html" target="_top" xlink:title=" ">
<polygon fill="white" stroke="#666666" points="802.86,-384 762.86,-384 762.86,-364 802.86,-364 802.86,-384"/>
<text text-anchor="middle" x="782.86" y="-370.5" font-family="Helvetica,sans-Serif" font-size="10.00">string</text>
</a>
</g>
</g>
<!-- Node7&#45;&gt;Node6 -->
<g id="edge7_Node000006_Node000007" class="edge">
<title>Node7&#45;&gt;Node6</title>
<g id="a_edge7_Node000006_Node000007"><a xlink:title=" ">
<path fill="none" stroke="#9a32cd" stroke-dasharray="5,2" d="M751.08,-372.35C680.02,-370.56 513.18,-364.42 496.11,-346 466.01,-313.53 482.46,-253.43 490.38,-230.36"/>
<polygon fill="#9a32cd" stroke="#9a32cd" points="750.81,-375.84 760.89,-372.58 750.98,-368.84 750.81,-375.84"/>
</a>
</g>
<text text-anchor="middle" x="556.24" y="-324.5" font-family="Helvetica,sans-Serif" font-size="10.00" fill="grey"> POSITIONS_LIST</text>
<text text-anchor="middle" x="556.24" y="-312.5" font-family="Helvetica,sans-Serif" font-size="10.00" fill="grey">POSITIONS_LIST_ENOCH</text>
<text text-anchor="middle" x="556.24" y="-300.5" font-family="Helvetica,sans-Serif" font-size="10.00" fill="grey">SUB_PARAM_POS_NAME</text>
<text text-anchor="middle" x="556.24" y="-288.5" font-family="Helvetica,sans-Serif" font-size="10.00" fill="grey">SUB_PARAM_POS_VEC</text>
</g>
<!-- Node7&#45;&gt;Node7 -->
<g id="edge8_Node000007_Node000007" class="edge">
<title>Node7&#45;&gt;Node7</title>
<g id="a_edge8_Node000007_Node000007"><a xlink:title=" ">
<path fill="none" stroke="#9a32cd" stroke-dasharray="5,2" d="M808.63,-385.91C815.58,-385.28 820.86,-381.31 820.86,-374 820.86,-363.12 809.16,-359.64 797.68,-363.55"/>
<polygon fill="#9a32cd" stroke="#9a32cd" points="809.56,-382.5 799.18,-384.65 808.63,-389.44 809.56,-382.5"/>
</a>
</g>
<text text-anchor="middle" x="836.61" y="-370.5" font-family="Helvetica,sans-Serif" font-size="10.00" fill="grey"> Empty</text>
</g>
<!-- Node7&#45;&gt;Node8 -->
<g id="edge30_Node000008_Node000007" class="edge">
<title>Node7&#45;&gt;Node8</title>
<g id="a_edge30_Node000008_Node000007"><a xlink:title=" ">
<path fill="none" stroke="#9a32cd" stroke-dasharray="5,2" d="M785.97,-352.35C790.32,-326.43 799.03,-284.13 810.86,-274 861.2,-230.9 904.76,-294.26 958.86,-256 988.03,-235.37 966.45,-205.98 994.61,-184 1024.11,-160.98 1044.57,-184.91 1076.86,-166 1095.34,-155.18 1091.36,-142.33 1108.86,-130 1119.42,-122.56 1132.33,-116.74 1143.99,-112.43"/>
<polygon fill="#9a32cd" stroke="#9a32cd" points="782.55,-351.62 784.43,-362.05 789.46,-352.72 782.55,-351.62"/>
</a>
</g>
<text text-anchor="middle" x="1011.49" y="-216.5" font-family="Helvetica,sans-Serif" font-size="10.00" fill="grey"> m_Test</text>
</g>
<!-- Node7&#45;&gt;Node10 -->
<g id="edge19_Node000010_Node000007" class="edge">
<title>Node7&#45;&gt;Node10</title>
<g id="a_edge19_Node000010_Node000007"><a xlink:title=" ">
<path fill="none" stroke="#9a32cd" stroke-dasharray="5,2" d="M800.51,-355.7C824.74,-333.03 870.67,-293.85 917.61,-274 962.13,-255.18 982.23,-278.77 1024.86,-256 1036.21,-249.94 1045.85,-238.51 1051.72,-230.36"/>
<polygon fill="#9a32cd" stroke="#9a32cd" points="798.24,-353.02 793.42,-362.46 803.07,-358.09 798.24,-353.02"/>
</a>
</g>
<text text-anchor="middle" x="934.49" y="-306.5" font-family="Helvetica,sans-Serif" font-size="10.00" fill="grey"> m_Test</text>
</g>
<!-- Node7&#45;&gt;Node12 -->
<g id="edge26_Node000012_Node000007" class="edge">
<title>Node7&#45;&gt;Node12</title>
<g id="a_edge26_Node000012_Node000007"><a xlink:title=" ">
<path fill="none" stroke="#9a32cd" stroke-dasharray="5,2" d="M783.5,-352.18C782.98,-329.34 778.29,-293.35 755.86,-274 704.94,-230.06 650.25,-306.31 605.61,-256 584.37,-232.06 585.98,-209.27 605.61,-184 639.05,-140.96 800.38,-116.95 879.26,-107.61"/>
<polygon fill="#9a32cd" stroke="#9a32cd" points="780,-352.08 783.45,-362.09 787,-352.11 780,-352.08"/>
</a>
</g>
<text text-anchor="middle" x="622.49" y="-216.5" font-family="Helvetica,sans-Serif" font-size="10.00" fill="grey"> m_Test</text>
</g>
<!-- Node8&#45;&gt;Node1 -->
<g id="edge11_Node000001_Node000008" class="edge">
<title>Node8&#45;&gt;Node1</title>
<g id="a_edge11_Node000001_Node000008"><a xlink:title=" ">
<path fill="none" stroke="#9a32cd" stroke-dasharray="5,2" d="M1124.23,-96.5C952.53,-81.54 400.87,-33.48 209.21,-16.78"/>
<polygon fill="#9a32cd" stroke="#9a32cd" points="1123.91,-99.99 1134.18,-97.37 1124.52,-93.01 1123.91,-99.99"/>
</a>
</g>
<text text-anchor="middle" x="912.11" y="-64.5" font-family="Helvetica,sans-Serif" font-size="10.00" fill="grey"> m_EnscriptConsoleHistory</text>
<text text-anchor="middle" x="912.11" y="-52.5" font-family="Helvetica,sans-Serif" font-size="10.00" fill="grey">m_EnscriptConsoleHistoryServer</text>
<text text-anchor="middle" x="912.11" y="-40.5" font-family="Helvetica,sans-Serif" font-size="10.00" fill="grey">m_ScriptOutputHistory</text>
</g>
<!-- Node9 -->
<g id="Node000009" class="node">
<title>Node9</title>
<g id="a_Node000009"><a xlink:href="../../d8/d03/class_object.html" target="_top" xlink:title=" ">
<polygon fill="white" stroke="#666666" points="1195.11,-384 1150.61,-384 1150.61,-364 1195.11,-364 1195.11,-384"/>
<text text-anchor="middle" x="1172.86" y="-370.5" font-family="Helvetica,sans-Serif" font-size="10.00">Object</text>
</a>
</g>
</g>
<!-- Node9&#45;&gt;Node8 -->
<g id="edge12_Node000008_Node000009" class="edge">
<title>Node9&#45;&gt;Node8</title>
<g id="a_edge12_Node000008_Node000009"><a xlink:title=" ">
<path fill="none" stroke="#9a32cd" stroke-dasharray="5,2" d="M1206.3,-367.82C1225.74,-363.82 1250.21,-357.05 1269.86,-346 1342.81,-304.97 1407.79,-256.43 1365.86,-184 1335.42,-131.4 1261.99,-112.94 1215.85,-106.48"/>
<polygon fill="#9a32cd" stroke="#9a32cd" points="1205.88,-364.33 1196.7,-369.63 1207.18,-371.21 1205.88,-364.33"/>
</a>
</g>
<text text-anchor="middle" x="1392.36" y="-222.5" font-family="Helvetica,sans-Serif" font-size="10.00" fill="grey"> obj</text>
<text text-anchor="middle" x="1392.36" y="-210.5" font-family="Helvetica,sans-Serif" font-size="10.00" fill="grey">parent</text>
</g>
<!-- Node9&#45;&gt;Node10 -->
<g id="edge15_Node000010_Node000009" class="edge">
<title>Node9&#45;&gt;Node10</title>
<g id="a_edge15_Node000010_Node000009"><a xlink:title=" ">
<path fill="none" stroke="#9a32cd" stroke-dasharray="5,2" d="M1145.15,-357.26C1140.42,-353.9 1135.77,-350.1 1131.86,-346 1096.71,-309.13 1070.96,-252.62 1061.66,-230.42"/>
<polygon fill="#9a32cd" stroke="#9a32cd" points="1143.23,-360.19 1153.52,-362.71 1147.05,-354.32 1143.23,-360.19"/>
</a>
</g>
<text text-anchor="middle" x="1145.36" y="-312.5" font-family="Helvetica,sans-Serif" font-size="10.00" fill="grey"> obj</text>
<text text-anchor="middle" x="1145.36" y="-300.5" font-family="Helvetica,sans-Serif" font-size="10.00" fill="grey">parent</text>
</g>
<!-- Node9&#45;&gt;Node12 -->
<g id="edge22_Node000012_Node000009" class="edge">
<title>Node9&#45;&gt;Node12</title>
<g id="a_edge22_Node000012_Node000009"><a xlink:title=" ">
<path fill="none" stroke="#9a32cd" stroke-dasharray="5,2" d="M1174.99,-352.78C1177.82,-316.16 1179.11,-237.7 1145.86,-184 1108.35,-123.41 1019.7,-107.72 966.16,-103.92"/>
<polygon fill="#9a32cd" stroke="#9a32cd" points="1171.54,-352.09 1174.12,-362.37 1178.51,-352.73 1171.54,-352.09"/>
</a>
</g>
<text text-anchor="middle" x="1184.36" y="-222.5" font-family="Helvetica,sans-Serif" font-size="10.00" fill="grey"> obj</text>
<text text-anchor="middle" x="1184.36" y="-210.5" font-family="Helvetica,sans-Serif" font-size="10.00" fill="grey">parent</text>
</g>
<!-- Node10&#45;&gt;Node8 -->
<g id="edge14_Node000008_Node000010" class="edge">
<title>Node10&#45;&gt;Node8</title>
<g id="a_edge14_Node000008_Node000010"><a xlink:title=" ">
<path fill="none" stroke="#9a32cd" stroke-dasharray="5,2" d="M1075.56,-201.6C1100.91,-176.68 1146.68,-131.69 1166.4,-112.3"/>
<polygon fill="#9a32cd" stroke="#9a32cd" points="1073.28,-198.94 1068.6,-208.45 1078.18,-203.93 1073.28,-198.94"/>
</a>
</g>
<text text-anchor="middle" x="1167.86" y="-144.5" font-family="Helvetica,sans-Serif" font-size="10.00" fill="grey"> proxyInfo</text>
</g>
<!-- Node10&#45;&gt;Node10 -->
<g id="edge17_Node000010_Node000010" class="edge">
<title>Node10&#45;&gt;Node10</title>
<g id="a_edge17_Node000010_Node000010"><a xlink:title=" ">
<path fill="none" stroke="#9a32cd" stroke-dasharray="5,2" d="M1080.17,-233.49C1088.19,-233.78 1094.74,-229.29 1094.74,-220 1094.74,-206.64 1081.2,-203.2 1069.19,-209.67"/>
<polygon fill="#9a32cd" stroke="#9a32cd" points="1081.22,-230.15 1070.64,-230.75 1079.29,-236.88 1081.22,-230.15"/>
</a>
</g>
<text text-anchor="middle" x="1115.74" y="-216.5" font-family="Helvetica,sans-Serif" font-size="10.00" fill="grey"> proxyInfo</text>
</g>
<!-- Node10&#45;&gt;Node12 -->
<g id="edge24_Node000012_Node000010" class="edge">
<title>Node10&#45;&gt;Node12</title>
<g id="a_edge24_Node000012_Node000010"><a xlink:title=" ">
<path fill="none" stroke="#9a32cd" stroke-dasharray="5,2" d="M1046.69,-199.94C1034.26,-180.16 1012.52,-149.44 986.86,-130 977.06,-122.57 964.91,-116.78 953.83,-112.49"/>
<polygon fill="#9a32cd" stroke="#9a32cd" points="1043.63,-201.65 1051.82,-208.37 1049.61,-198.01 1043.63,-201.65"/>
</a>
</g>
<text text-anchor="middle" x="1042.86" y="-144.5" font-family="Helvetica,sans-Serif" font-size="10.00" fill="grey"> proxyInfo</text>
</g>
<!-- Node11 -->
<g id="Node000011" class="node">
<title>Node11</title>
<g id="a_Node000011"><a xlink:href="../../d4/d04/class_class.html" target="_top" xlink:title="Super root of all classes in Enforce script.">
<polygon fill="white" stroke="#666666" points="1329.24,-384 1288.49,-384 1288.49,-364 1329.24,-364 1329.24,-384"/>
<text text-anchor="middle" x="1308.86" y="-370.5" font-family="Helvetica,sans-Serif" font-size="10.00">Class</text>
</a>
</g>
</g>
<!-- Node11&#45;&gt;Node8 -->
<g id="edge29_Node000008_Node000011" class="edge">
<title>Node11&#45;&gt;Node8</title>
<g id="a_edge29_Node000008_Node000011"><a xlink:title=" ">
<path fill="none" stroke="#9a32cd" stroke-dasharray="5,2" d="M1330.23,-356.55C1354.87,-336.1 1394.01,-298.63 1409.86,-256 1421.02,-226.01 1423.98,-212.72 1409.86,-184 1392.53,-148.74 1375.9,-145.67 1339.86,-130 1300.04,-112.68 1250.36,-106.4 1216.17,-104.15"/>
<polygon fill="#9a32cd" stroke="#9a32cd" points="1328.05,-353.82 1322.46,-362.82 1332.44,-359.27 1328.05,-353.82"/>
</a>
</g>
<text text-anchor="middle" x="1445.49" y="-216.5" font-family="Helvetica,sans-Serif" font-size="10.00" fill="grey"> m_Instance</text>
</g>
<!-- Node11&#45;&gt;Node10 -->
<g id="edge18_Node000010_Node000011" class="edge">
<title>Node11&#45;&gt;Node10</title>
<g id="a_edge18_Node000010_Node000011"><a xlink:title=" ">
<path fill="none" stroke="#9a32cd" stroke-dasharray="5,2" d="M1277.55,-363.09C1265.82,-358.71 1252.67,-352.95 1241.61,-346 1201.46,-320.76 1201.89,-300.94 1162.86,-274 1134.8,-254.63 1098.66,-237.98 1076.93,-228.74"/>
<polygon fill="#9a32cd" stroke="#9a32cd" points="1276.22,-366.33 1286.81,-366.36 1278.55,-359.73 1276.22,-366.33"/>
</a>
</g>
<text text-anchor="middle" x="1267.49" y="-306.5" font-family="Helvetica,sans-Serif" font-size="10.00" fill="grey"> m_Instance</text>
</g>
<!-- Node11&#45;&gt;Node12 -->
<g id="edge25_Node000012_Node000011" class="edge">
<title>Node11&#45;&gt;Node12</title>
<g id="a_edge25_Node000012_Node000011"><a xlink:title=" ">
<path fill="none" stroke="#9a32cd" stroke-dasharray="5,2" d="M1307.34,-352.35C1305.52,-332.13 1301.81,-300.58 1294.86,-274 1275.03,-198.12 1265.43,-159.75 1192.86,-130 1152.98,-113.65 1032.15,-106.88 966.48,-104.35"/>
<polygon fill="#9a32cd" stroke="#9a32cd" points="1303.83,-352.39 1308.13,-362.07 1310.81,-351.82 1303.83,-352.39"/>
</a>
</g>
<text text-anchor="middle" x="1315.49" y="-216.5" font-family="Helvetica,sans-Serif" font-size="10.00" fill="grey"> m_Instance</text>
</g>
<!-- Node12&#45;&gt;Node10 -->
<g id="edge21_Node000010_Node000012" class="edge">
<title>Node12&#45;&gt;Node10</title>
<g id="a_edge21_Node000010_Node000012"><a xlink:title=" ">
<path fill="none" stroke="#9a32cd" stroke-dasharray="5,2" d="M917.06,-123.54C914.55,-137.14 914.09,-154.52 923.86,-166 953.42,-200.72 984.75,-162.32 1024.86,-184 1036.18,-190.12 1045.82,-201.54 1051.71,-209.67"/>
<polygon fill="#9a32cd" stroke="#9a32cd" points="920.45,-124.41 919.35,-113.87 913.64,-122.79 920.45,-124.41"/>
</a>
</g>
<text text-anchor="middle" x="955.36" y="-144.5" font-family="Helvetica,sans-Serif" font-size="10.00" fill="grey"> m_Subgroups</text>
</g>
<!-- Node12&#45;&gt;Node12 -->
<g id="edge28_Node000012_Node000012" class="edge">
<title>Node12&#45;&gt;Node12</title>
<g id="a_edge28_Node000012_Node000012"><a xlink:title=" ">
<path fill="none" stroke="#9a32cd" stroke-dasharray="5,2" d="M977.49,-108.44C981.59,-107 984.11,-104.86 984.11,-102 984.11,-97.06 976.57,-94.24 966.35,-93.55"/>
<polygon fill="#9a32cd" stroke="#9a32cd" points="977.06,-104.96 967.84,-110.19 978.31,-111.85 977.06,-104.96"/>
</a>
</g>
<text text-anchor="middle" x="1015.61" y="-98.5" font-family="Helvetica,sans-Serif" font-size="10.00" fill="grey"> m_Subgroups</text>
</g>
</g>
</svg>
