<?xml version="1.0" encoding="UTF-8" standalone="no"?>
<!DOCTYPE svg PUBLIC "-//W3C//DTD SVG 1.1//EN"
 "http://www.w3.org/Graphics/SVG/1.1/DTD/svg11.dtd">
<!-- Generated by graphviz version 11.0.0 (20240428.1522)
 -->
<!-- Title: ActionTurnOffTransmitterOnGround Pages: 1 -->
<svg width="131pt" height="208pt"
 viewBox="0.00 0.00 131.25 208.00" xmlns="http://www.w3.org/2000/svg" xmlns:xlink="http://www.w3.org/1999/xlink">
<g id="graph0" class="graph" transform="scale(1 1) rotate(0) translate(4 204)">
<title>ActionTurnOffTransmitterOnGround</title>
<!-- Node1 -->
<g id="Node000001" class="node">
<title>Node1</title>
<g id="a_Node000001"><a xlink:title=" ">
<polygon fill="#999999" stroke="#666666" points="123.25,-32 0,-32 0,0 123.25,0 123.25,-32"/>
<text text-anchor="start" x="8" y="-18.5" font-family="Helvetica,sans-Serif" font-size="10.00">ActionTurnOffTransmitter</text>
<text text-anchor="middle" x="61.62" y="-6.5" font-family="Helvetica,sans-Serif" font-size="10.00">OnGround</text>
</a>
</g>
</g>
<!-- Node2 -->
<g id="Node000002" class="node">
<title>Node2</title>
<g id="a_Node000002"><a xlink:href="../../d0/d0b/class_action_interact_base.html" target="_top" xlink:title=" ">
<polygon fill="white" stroke="#666666" points="110.88,-88 12.37,-88 12.37,-68 110.88,-68 110.88,-88"/>
<text text-anchor="middle" x="61.62" y="-74.5" font-family="Helvetica,sans-Serif" font-size="10.00">ActionInteractBase</text>
</a>
</g>
</g>
<!-- Node2&#45;&gt;Node1 -->
<g id="edge1_Node000001_Node000002" class="edge">
<title>Node2&#45;&gt;Node1</title>
<g id="a_edge1_Node000001_Node000002"><a xlink:title=" ">
<path fill="none" stroke="#8b1a1a" d="M61.62,-56.31C61.62,-48.37 61.62,-39.46 61.62,-32.14"/>
<polygon fill="#8b1a1a" stroke="#8b1a1a" points="58.13,-56.11 61.63,-66.11 65.13,-56.11 58.13,-56.11"/>
</a>
</g>
</g>
<!-- Node3 -->
<g id="Node000003" class="node">
<title>Node3</title>
<g id="a_Node000003"><a xlink:href="../../d7/d04/class_animated_action_base.html" target="_top" xlink:title=" ">
<polygon fill="white" stroke="#666666" points="115.38,-144 7.88,-144 7.88,-124 115.38,-124 115.38,-144"/>
<text text-anchor="middle" x="61.62" y="-130.5" font-family="Helvetica,sans-Serif" font-size="10.00">AnimatedActionBase</text>
</a>
</g>
</g>
<!-- Node3&#45;&gt;Node2 -->
<g id="edge2_Node000002_Node000003" class="edge">
<title>Node3&#45;&gt;Node2</title>
<g id="a_edge2_Node000002_Node000003"><a xlink:title=" ">
<path fill="none" stroke="#8b1a1a" d="M61.62,-112.13C61.62,-103.9 61.62,-94.85 61.62,-88.3"/>
<polygon fill="#8b1a1a" stroke="#8b1a1a" points="58.13,-112.08 61.63,-122.08 65.13,-112.08 58.13,-112.08"/>
</a>
</g>
</g>
<!-- Node4 -->
<g id="Node000004" class="node">
<title>Node4</title>
<g id="a_Node000004"><a xlink:title=" ">
<polygon fill="white" stroke="#666666" points="94.75,-200 28.5,-200 28.5,-180 94.75,-180 94.75,-200"/>
<text text-anchor="middle" x="61.62" y="-186.5" font-family="Helvetica,sans-Serif" font-size="10.00">ActionBase</text>
</a>
</g>
</g>
<!-- Node4&#45;&gt;Node3 -->
<g id="edge3_Node000003_Node000004" class="edge">
<title>Node4&#45;&gt;Node3</title>
<g id="a_edge3_Node000003_Node000004"><a xlink:title=" ">
<path fill="none" stroke="#8b1a1a" d="M61.62,-168.13C61.62,-159.9 61.62,-150.85 61.62,-144.3"/>
<polygon fill="#8b1a1a" stroke="#8b1a1a" points="58.13,-168.08 61.63,-178.08 65.13,-168.08 58.13,-168.08"/>
</a>
</g>
</g>
</g>
</svg>
