<?xml version="1.0" encoding="UTF-8" standalone="no"?>
<!DOCTYPE svg PUBLIC "-//W3C//DTD SVG 1.1//EN"
 "http://www.w3.org/Graphics/SVG/1.1/DTD/svg11.dtd">
<!-- Generated by graphviz version 11.0.0 (20240428.1522)
 -->
<!-- Title: AK74_Base Pages: 1 -->
<svg width="107pt" height="140pt"
 viewBox="0.00 0.00 107.25 140.00" xmlns="http://www.w3.org/2000/svg" xmlns:xlink="http://www.w3.org/1999/xlink">
<g id="graph0" class="graph" transform="scale(1 1) rotate(0) translate(4 136)">
<title>AK74_Base</title>
<!-- Node1 -->
<g id="Node000001" class="node">
<title>Node1</title>
<g id="a_Node000001"><a xlink:title=" ">
<polygon fill="#999999" stroke="#666666" points="83.5,-20 15.75,-20 15.75,0 83.5,0 83.5,-20"/>
<text text-anchor="middle" x="49.62" y="-6.5" font-family="Helvetica,sans-Serif" font-size="10.00">AK74_Base</text>
</a>
</g>
</g>
<!-- Node2 -->
<g id="Node000002" class="node">
<title>Node2</title>
<g id="a_Node000002"><a xlink:href="../../d6/d01/class_a_k_m___base.html" target="_top" xlink:title=" ">
<polygon fill="white" stroke="#666666" points="82.38,-76 16.88,-76 16.88,-56 82.38,-56 82.38,-76"/>
<text text-anchor="middle" x="49.62" y="-62.5" font-family="Helvetica,sans-Serif" font-size="10.00">AKM_Base</text>
</a>
</g>
</g>
<!-- Node2&#45;&gt;Node1 -->
<g id="edge1_Node000001_Node000002" class="edge">
<title>Node2&#45;&gt;Node1</title>
<g id="a_edge1_Node000001_Node000002"><a xlink:title=" ">
<path fill="none" stroke="#8b1a1a" d="M49.62,-44.13C49.62,-35.9 49.62,-26.85 49.62,-20.3"/>
<polygon fill="#8b1a1a" stroke="#8b1a1a" points="46.13,-44.08 49.63,-54.08 53.13,-44.08 46.13,-44.08"/>
</a>
</g>
</g>
<!-- Node3 -->
<g id="Node000003" class="node">
<title>Node3</title>
<g id="a_Node000003"><a xlink:title=" ">
<polygon fill="white" stroke="#666666" points="99.25,-132 0,-132 0,-112 99.25,-112 99.25,-132"/>
<text text-anchor="middle" x="49.62" y="-118.5" font-family="Helvetica,sans-Serif" font-size="10.00">RifleBoltFree_Base</text>
</a>
</g>
</g>
<!-- Node3&#45;&gt;Node2 -->
<g id="edge2_Node000002_Node000003" class="edge">
<title>Node3&#45;&gt;Node2</title>
<g id="a_edge2_Node000002_Node000003"><a xlink:title=" ">
<path fill="none" stroke="#8b1a1a" d="M49.62,-100.13C49.62,-91.9 49.62,-82.85 49.62,-76.3"/>
<polygon fill="#8b1a1a" stroke="#8b1a1a" points="46.13,-100.08 49.63,-110.08 53.13,-100.08 46.13,-100.08"/>
</a>
</g>
</g>
</g>
</svg>
