<?xml version="1.0" encoding="UTF-8" standalone="no"?>
<!DOCTYPE svg PUBLIC "-//W3C//DTD SVG 1.1//EN"
 "http://www.w3.org/Graphics/SVG/1.1/DTD/svg11.dtd">
<!-- Generated by graphviz version 11.0.0 (20240428.1522)
 -->
<!-- Title: JsonUndergroundTriggers Pages: 1 -->
<svg width="935pt" height="486pt"
 viewBox="0.00 0.00 934.62 485.91" xmlns="http://www.w3.org/2000/svg" xmlns:xlink="http://www.w3.org/1999/xlink">
<g id="graph0" class="graph" transform="scale(1 1) rotate(0) translate(4 481.91)">
<title>JsonUndergroundTriggers</title>
<!-- Node1 -->
<g id="Node000001" class="node">
<title>Node1</title>
<g id="a_Node000001"><a xlink:title=" ">
<polygon fill="#999999" stroke="#666666" points="705.62,-20 580.12,-20 580.12,0 705.62,0 705.62,-20"/>
<text text-anchor="middle" x="642.87" y="-6.5" font-family="Helvetica,sans-Serif" font-size="10.00">JsonUndergroundTriggers</text>
</a>
</g>
</g>
<!-- Node2 -->
<g id="Node000002" class="node">
<title>Node2</title>
<g id="a_Node000002"><a xlink:href="../../d2/d01/classarray.html" target="_top" xlink:title=" ">
<polygon fill="white" stroke="#666666" points="710.49,-100 575.24,-100 575.24,-68 710.49,-68 710.49,-100"/>
<text text-anchor="start" x="583.24" y="-86.5" font-family="Helvetica,sans-Serif" font-size="10.00">array&lt; ref JsonUnderground</text>
<text text-anchor="middle" x="642.87" y="-74.5" font-family="Helvetica,sans-Serif" font-size="10.00">AreaTriggerData &gt;</text>
</a>
</g>
</g>
<!-- Node2&#45;&gt;Node1 -->
<g id="edge1_Node000001_Node000002" class="edge">
<title>Node2&#45;&gt;Node1</title>
<g id="a_edge1_Node000001_Node000002"><a xlink:title=" ">
<path fill="none" stroke="#9a32cd" stroke-dasharray="5,2" d="M642.87,-56.34C642.87,-43.7 642.87,-29.41 642.87,-20.31"/>
<polygon fill="#9a32cd" stroke="#9a32cd" points="639.37,-56.22 642.87,-66.22 646.37,-56.22 639.37,-56.22"/>
</a>
</g>
<text text-anchor="middle" x="661.62" y="-40.5" font-family="Helvetica,sans-Serif" font-size="10.00" fill="grey"> Triggers</text>
</g>
<!-- Node3 -->
<g id="Node000003" class="node">
<title>Node3</title>
<g id="a_Node000003"><a xlink:href="../../d8/d03/class_object.html" target="_top" xlink:title=" ">
<polygon fill="white" stroke="#666666" points="278.12,-476 233.62,-476 233.62,-456 278.12,-456 278.12,-476"/>
<text text-anchor="middle" x="255.87" y="-462.5" font-family="Helvetica,sans-Serif" font-size="10.00">Object</text>
</a>
</g>
</g>
<!-- Node3&#45;&gt;Node2 -->
<g id="edge2_Node000002_Node000003" class="edge">
<title>Node3&#45;&gt;Node2</title>
<g id="a_edge2_Node000002_Node000003"><a xlink:title=" ">
<path fill="none" stroke="#9a32cd" stroke-dasharray="5,2" d="M252.47,-444.19C252.23,-442.11 252.02,-440.01 251.87,-438 249.52,-406.09 247.55,-397.71 251.87,-366 263.46,-280.95 257.75,-243.06 321.87,-186 393.12,-122.6 504.03,-98.99 575.05,-90.2"/>
<polygon fill="#9a32cd" stroke="#9a32cd" points="249,-444.65 253.9,-454.04 255.93,-443.64 249,-444.65"/>
</a>
</g>
<text text-anchor="middle" x="335.37" y="-224.5" font-family="Helvetica,sans-Serif" font-size="10.00" fill="grey"> obj</text>
<text text-anchor="middle" x="335.37" y="-212.5" font-family="Helvetica,sans-Serif" font-size="10.00" fill="grey">parent</text>
</g>
<!-- Node5 -->
<g id="Node000005" class="node">
<title>Node5</title>
<g id="a_Node000005"><a xlink:href="../../d2/d01/classarray.html" target="_top" xlink:title="Result for an object found in CGame.IsBoxCollidingGeometryProxy.">
<polygon fill="white" stroke="#666666" points="532.74,-322 494.99,-322 494.99,-302 532.74,-302 532.74,-322"/>
<text text-anchor="middle" x="513.87" y="-308.5" font-family="Helvetica,sans-Serif" font-size="10.00">array</text>
</a>
</g>
</g>
<!-- Node3&#45;&gt;Node5 -->
<g id="edge5_Node000005_Node000003" class="edge">
<title>Node3&#45;&gt;Node5</title>
<g id="a_edge5_Node000005_Node000003"><a xlink:title=" ">
<path fill="none" stroke="#9a32cd" stroke-dasharray="5,2" d="M289.93,-465.23C321.84,-464.03 369.89,-458.51 405.87,-438 412.47,-434.24 482.2,-350.98 505.98,-322.47"/>
<polygon fill="#9a32cd" stroke="#9a32cd" points="289.97,-461.73 280.06,-465.46 290.14,-468.73 289.97,-461.73"/>
</a>
</g>
<text text-anchor="middle" x="482.37" y="-404.5" font-family="Helvetica,sans-Serif" font-size="10.00" fill="grey"> obj</text>
<text text-anchor="middle" x="482.37" y="-392.5" font-family="Helvetica,sans-Serif" font-size="10.00" fill="grey">parent</text>
</g>
<!-- Node9 -->
<g id="Node000009" class="node">
<title>Node9</title>
<g id="a_Node000009"><a xlink:href="../../d2/d01/classarray.html" target="_top" xlink:title=" ">
<polygon fill="white" stroke="#666666" points="522.12,-168 435.62,-168 435.62,-148 522.12,-148 522.12,-168"/>
<text text-anchor="middle" x="478.87" y="-154.5" font-family="Helvetica,sans-Serif" font-size="10.00">array&lt; Widget &gt;</text>
</a>
</g>
</g>
<!-- Node3&#45;&gt;Node9 -->
<g id="edge13_Node000009_Node000003" class="edge">
<title>Node3&#45;&gt;Node9</title>
<g id="a_edge13_Node000009_Node000003"><a xlink:title=" ">
<path fill="none" stroke="#9a32cd" stroke-dasharray="5,2" d="M255.25,-444.5C255.4,-423.73 257.85,-391.16 269.87,-366 315.44,-270.61 423.96,-194.14 463.84,-168.36"/>
<polygon fill="#9a32cd" stroke="#9a32cd" points="251.74,-444.27 255.36,-454.23 258.74,-444.18 251.74,-444.27"/>
</a>
</g>
<text text-anchor="middle" x="344.37" y="-314.5" font-family="Helvetica,sans-Serif" font-size="10.00" fill="grey"> obj</text>
<text text-anchor="middle" x="344.37" y="-302.5" font-family="Helvetica,sans-Serif" font-size="10.00" fill="grey">parent</text>
</g>
<!-- Node4 -->
<g id="Node000004" class="node">
<title>Node4</title>
<g id="a_Node000004"><a xlink:href="../../db/d06/class_param3.html" target="_top" xlink:title=" ">
<polygon fill="white" stroke="#666666" points="111.74,-476 61.99,-476 61.99,-456 111.74,-456 111.74,-476"/>
<text text-anchor="middle" x="86.87" y="-462.5" font-family="Helvetica,sans-Serif" font-size="10.00">Param3</text>
</a>
</g>
</g>
<!-- Node4&#45;&gt;Node2 -->
<g id="edge3_Node000002_Node000004" class="edge">
<title>Node4&#45;&gt;Node2</title>
<g id="a_edge3_Node000002_Node000004"><a xlink:title=" ">
<path fill="none" stroke="#9a32cd" stroke-dasharray="5,2" d="M73.43,-446.44C39.9,-397.68 -40.19,-264.37 25.62,-186 95.05,-103.31 429.12,-88.14 574.75,-85.49"/>
<polygon fill="#9a32cd" stroke="#9a32cd" points="70.49,-448.35 79.11,-454.51 76.22,-444.32 70.49,-448.35"/>
</a>
</g>
<text text-anchor="middle" x="83.99" y="-248.5" font-family="Helvetica,sans-Serif" font-size="10.00" fill="grey"> NO_SORTING</text>
<text text-anchor="middle" x="83.99" y="-236.5" font-family="Helvetica,sans-Serif" font-size="10.00" fill="grey">geomLevel</text>
<text text-anchor="middle" x="83.99" y="-224.5" font-family="Helvetica,sans-Serif" font-size="10.00" fill="grey">hierLevel</text>
<text text-anchor="start" x="25.87" y="-212.5" font-family="Helvetica,sans-Serif" font-size="10.00" fill="grey">m_CurrentSettingAlternate</text>
<text text-anchor="middle" x="83.99" y="-200.5" font-family="Helvetica,sans-Serif" font-size="10.00" fill="grey">KeyIndex</text>
<text text-anchor="middle" x="83.99" y="-188.5" font-family="Helvetica,sans-Serif" font-size="10.00" fill="grey">m_CurrentSettingKeyIndex</text>
</g>
<!-- Node4&#45;&gt;Node5 -->
<g id="edge6_Node000005_Node000004" class="edge">
<title>Node4&#45;&gt;Node5</title>
<g id="a_edge6_Node000005_Node000004"><a xlink:title=" ">
<path fill="none" stroke="#9a32cd" stroke-dasharray="5,2" d="M110.7,-449.45C146.85,-426.73 218.46,-385.1 285.62,-366 369.44,-342.17 402.53,-386.17 480.87,-348 492.58,-342.29 502.27,-330.55 508.06,-322.24"/>
<polygon fill="#9a32cd" stroke="#9a32cd" points="108.9,-446.44 102.34,-454.77 112.66,-452.35 108.9,-446.44"/>
</a>
</g>
<text text-anchor="middle" x="343.99" y="-428.5" font-family="Helvetica,sans-Serif" font-size="10.00" fill="grey"> NO_SORTING</text>
<text text-anchor="middle" x="343.99" y="-416.5" font-family="Helvetica,sans-Serif" font-size="10.00" fill="grey">geomLevel</text>
<text text-anchor="middle" x="343.99" y="-404.5" font-family="Helvetica,sans-Serif" font-size="10.00" fill="grey">hierLevel</text>
<text text-anchor="start" x="285.87" y="-392.5" font-family="Helvetica,sans-Serif" font-size="10.00" fill="grey">m_CurrentSettingAlternate</text>
<text text-anchor="middle" x="343.99" y="-380.5" font-family="Helvetica,sans-Serif" font-size="10.00" fill="grey">KeyIndex</text>
<text text-anchor="middle" x="343.99" y="-368.5" font-family="Helvetica,sans-Serif" font-size="10.00" fill="grey">m_CurrentSettingKeyIndex</text>
</g>
<!-- Node4&#45;&gt;Node9 -->
<g id="edge14_Node000009_Node000004" class="edge">
<title>Node4&#45;&gt;Node9</title>
<g id="a_edge14_Node000009_Node000004"><a xlink:title=" ">
<path fill="none" stroke="#9a32cd" stroke-dasharray="5,2" d="M88.65,-444.16C94.5,-390.32 118.32,-246.52 208.87,-186 244.9,-161.92 368.62,-158.51 435.36,-158.49"/>
<polygon fill="#9a32cd" stroke="#9a32cd" points="85.17,-443.75 87.69,-454.05 92.14,-444.43 85.17,-443.75"/>
</a>
</g>
<text text-anchor="middle" x="191.99" y="-338.5" font-family="Helvetica,sans-Serif" font-size="10.00" fill="grey"> NO_SORTING</text>
<text text-anchor="middle" x="191.99" y="-326.5" font-family="Helvetica,sans-Serif" font-size="10.00" fill="grey">geomLevel</text>
<text text-anchor="middle" x="191.99" y="-314.5" font-family="Helvetica,sans-Serif" font-size="10.00" fill="grey">hierLevel</text>
<text text-anchor="start" x="133.87" y="-302.5" font-family="Helvetica,sans-Serif" font-size="10.00" fill="grey">m_CurrentSettingAlternate</text>
<text text-anchor="middle" x="191.99" y="-290.5" font-family="Helvetica,sans-Serif" font-size="10.00" fill="grey">KeyIndex</text>
<text text-anchor="middle" x="191.99" y="-278.5" font-family="Helvetica,sans-Serif" font-size="10.00" fill="grey">m_CurrentSettingKeyIndex</text>
</g>
<!-- Node5&#45;&gt;Node2 -->
<g id="edge4_Node000002_Node000005" class="edge">
<title>Node5&#45;&gt;Node2</title>
<g id="a_edge4_Node000002_Node000005"><a xlink:title=" ">
<path fill="none" stroke="#9a32cd" stroke-dasharray="5,2" d="M543.39,-298.28C560.76,-289.38 581.81,-275.87 594.87,-258 631.1,-208.42 639.99,-132.7 642.17,-100.43"/>
<polygon fill="#9a32cd" stroke="#9a32cd" points="542,-295.07 534.52,-302.57 545.04,-301.37 542,-295.07"/>
</a>
</g>
<text text-anchor="middle" x="656.87" y="-154.5" font-family="Helvetica,sans-Serif" font-size="10.00" fill="grey"> proxyInfo</text>
</g>
<!-- Node5&#45;&gt;Node5 -->
<g id="edge7_Node000005_Node000005" class="edge">
<title>Node5&#45;&gt;Node5</title>
<g id="a_edge7_Node000005_Node000005"><a xlink:title=" ">
<path fill="none" stroke="#9a32cd" stroke-dasharray="5,2" d="M531.7,-328.07C541.62,-331.07 550.74,-325.71 550.74,-312 550.74,-293.72 534.52,-290.29 521.84,-301.72"/>
<polygon fill="#9a32cd" stroke="#9a32cd" points="533.54,-325.09 523.14,-323.05 530,-331.13 533.54,-325.09"/>
</a>
</g>
<text text-anchor="middle" x="571.74" y="-308.5" font-family="Helvetica,sans-Serif" font-size="10.00" fill="grey"> proxyInfo</text>
</g>
<!-- Node5&#45;&gt;Node9 -->
<g id="edge15_Node000009_Node000005" class="edge">
<title>Node5&#45;&gt;Node9</title>
<g id="a_edge15_Node000009_Node000005"><a xlink:title=" ">
<path fill="none" stroke="#9a32cd" stroke-dasharray="5,2" d="M495.1,-293.58C486.22,-284.04 476.55,-271.44 471.87,-258 460.93,-226.59 470.47,-186.27 475.82,-168.33"/>
<polygon fill="#9a32cd" stroke="#9a32cd" points="492.59,-296.02 502.12,-300.64 497.55,-291.08 492.59,-296.02"/>
</a>
</g>
<text text-anchor="middle" x="492.87" y="-218.5" font-family="Helvetica,sans-Serif" font-size="10.00" fill="grey"> proxyInfo</text>
</g>
<!-- Node6 -->
<g id="Node000006" class="node">
<title>Node6</title>
<g id="a_Node000006"><a xlink:href="../../d4/d04/class_class.html" target="_top" xlink:title="Super root of all classes in Enforce script.">
<polygon fill="white" stroke="#666666" points="649.24,-476 608.49,-476 608.49,-456 649.24,-456 649.24,-476"/>
<text text-anchor="middle" x="628.87" y="-462.5" font-family="Helvetica,sans-Serif" font-size="10.00">Class</text>
</a>
</g>
</g>
<!-- Node6&#45;&gt;Node2 -->
<g id="edge20_Node000002_Node000006" class="edge">
<title>Node6&#45;&gt;Node2</title>
<g id="a_edge20_Node000002_Node000006"><a xlink:title=" ">
<path fill="none" stroke="#9a32cd" stroke-dasharray="5,2" d="M660.67,-465.1C682.89,-463.35 711.42,-457.12 727.87,-438 780.39,-376.94 744.19,-338.41 748.87,-258 752.52,-195.12 770.02,-163.88 726.87,-118 719.89,-110.58 711.04,-104.8 701.72,-100.31"/>
<polygon fill="#9a32cd" stroke="#9a32cd" points="660.74,-461.59 650.92,-465.58 661.08,-468.58 660.74,-461.59"/>
</a>
</g>
<text text-anchor="middle" x="781.49" y="-218.5" font-family="Helvetica,sans-Serif" font-size="10.00" fill="grey"> m_Instance</text>
</g>
<!-- Node6&#45;&gt;Node5 -->
<g id="edge8_Node000005_Node000006" class="edge">
<title>Node6&#45;&gt;Node5</title>
<g id="a_edge8_Node000005_Node000006"><a xlink:title=" ">
<path fill="none" stroke="#9a32cd" stroke-dasharray="5,2" d="M597.2,-458.52C584.64,-454.5 570.98,-448.1 561.62,-438 538.8,-413.39 551.11,-397.25 538.87,-366 532.71,-350.28 524.03,-332.66 518.68,-322.22"/>
<polygon fill="#9a32cd" stroke="#9a32cd" points="596.25,-461.89 606.82,-461.17 598.11,-455.14 596.25,-461.89"/>
</a>
</g>
<text text-anchor="middle" x="587.49" y="-398.5" font-family="Helvetica,sans-Serif" font-size="10.00" fill="grey"> m_Instance</text>
</g>
<!-- Node6&#45;&gt;Node9 -->
<g id="edge16_Node000009_Node000006" class="edge">
<title>Node6&#45;&gt;Node9</title>
<g id="a_edge16_Node000009_Node000006"><a xlink:title=" ">
<path fill="none" stroke="#9a32cd" stroke-dasharray="5,2" d="M629.29,-444.23C630.04,-386.17 628.97,-223.97 594.87,-186 585.16,-175.19 551.17,-168.11 522.47,-163.93"/>
<polygon fill="#9a32cd" stroke="#9a32cd" points="625.8,-443.94 629.13,-454 632.8,-444.06 625.8,-443.94"/>
</a>
</g>
<text text-anchor="middle" x="653.49" y="-308.5" font-family="Helvetica,sans-Serif" font-size="10.00" fill="grey"> m_Instance</text>
</g>
<!-- Node7 -->
<g id="Node000007" class="node">
<title>Node7</title>
<g id="a_Node000007"><a xlink:href="../../d5/d02/classstring.html" target="_top" xlink:title=" ">
<polygon fill="white" stroke="#666666" points="522.87,-476 482.87,-476 482.87,-456 522.87,-456 522.87,-476"/>
<text text-anchor="middle" x="502.87" y="-462.5" font-family="Helvetica,sans-Serif" font-size="10.00">string</text>
</a>
</g>
</g>
<!-- Node7&#45;&gt;Node2 -->
<g id="edge21_Node000002_Node000007" class="edge">
<title>Node7&#45;&gt;Node2</title>
<g id="a_edge21_Node000002_Node000007"><a xlink:title=" ">
<path fill="none" stroke="#9a32cd" stroke-dasharray="5,2" d="M534.62,-461.74C588.96,-456.02 694.49,-444.17 699.87,-438 713.46,-422.42 709.84,-232.89 681.87,-148 675.99,-130.16 664.13,-112.18 655.03,-100.02"/>
<polygon fill="#9a32cd" stroke="#9a32cd" points="534.32,-458.25 524.74,-462.77 535.05,-465.22 534.32,-458.25"/>
</a>
</g>
<text text-anchor="middle" x="719.49" y="-218.5" font-family="Helvetica,sans-Serif" font-size="10.00" fill="grey"> m_Test</text>
</g>
<!-- Node7&#45;&gt;Node5 -->
<g id="edge9_Node000005_Node000007" class="edge">
<title>Node7&#45;&gt;Node5</title>
<g id="a_edge9_Node000005_Node000007"><a xlink:title=" ">
<path fill="none" stroke="#9a32cd" stroke-dasharray="5,2" d="M501.92,-444.27C501.27,-424.2 500.94,-392.94 503.62,-366 505.16,-350.52 509.01,-332.83 511.53,-322.31"/>
<polygon fill="#9a32cd" stroke="#9a32cd" points="498.42,-444.32 502.31,-454.18 505.42,-444.05 498.42,-444.32"/>
</a>
</g>
<text text-anchor="middle" x="520.49" y="-398.5" font-family="Helvetica,sans-Serif" font-size="10.00" fill="grey"> m_Test</text>
</g>
<!-- Node7&#45;&gt;Node7 -->
<g id="edge10_Node000007_Node000007" class="edge">
<title>Node7&#45;&gt;Node7</title>
<g id="a_edge10_Node000007_Node000007"><a xlink:title=" ">
<path fill="none" stroke="#9a32cd" stroke-dasharray="5,2" d="M528.64,-477.91C535.59,-477.28 540.87,-473.31 540.87,-466 540.87,-455.12 529.17,-451.64 517.69,-455.55"/>
<polygon fill="#9a32cd" stroke="#9a32cd" points="529.57,-474.5 519.19,-476.65 528.64,-481.44 529.57,-474.5"/>
</a>
</g>
<text text-anchor="middle" x="556.62" y="-462.5" font-family="Helvetica,sans-Serif" font-size="10.00" fill="grey"> Empty</text>
</g>
<!-- Node7&#45;&gt;Node9 -->
<g id="edge17_Node000009_Node000007" class="edge">
<title>Node7&#45;&gt;Node9</title>
<g id="a_edge17_Node000009_Node000007"><a xlink:title=" ">
<path fill="none" stroke="#9a32cd" stroke-dasharray="5,2" d="M492.93,-445.45C478.98,-417.57 454.8,-367.6 450.62,-348 435.57,-277.41 437.59,-253.97 461.87,-186 464.11,-179.74 467.98,-173.42 471.47,-168.46"/>
<polygon fill="#9a32cd" stroke="#9a32cd" points="489.73,-446.87 497.36,-454.22 495.98,-443.72 489.73,-446.87"/>
</a>
</g>
<text text-anchor="middle" x="467.49" y="-308.5" font-family="Helvetica,sans-Serif" font-size="10.00" fill="grey"> m_Test</text>
</g>
<!-- Node8 -->
<g id="Node000008" class="node">
<title>Node8</title>
<g id="a_Node000008"><a xlink:href="../../dd/d0a/class_widget.html" target="_top" xlink:title=" ">
<polygon fill="white" stroke="#666666" points="862.24,-476 815.49,-476 815.49,-456 862.24,-456 862.24,-476"/>
<text text-anchor="middle" x="838.87" y="-462.5" font-family="Helvetica,sans-Serif" font-size="10.00">Widget</text>
</a>
</g>
</g>
<!-- Node8&#45;&gt;Node2 -->
<g id="edge22_Node000002_Node000008" class="edge">
<title>Node8&#45;&gt;Node2</title>
<g id="a_edge22_Node000002_Node000008"><a xlink:title=" ">
<path fill="none" stroke="#9a32cd" stroke-dasharray="5,2" d="M852.85,-446.57C854.67,-443.78 856.4,-440.87 857.87,-438 877.12,-400.33 881.88,-389.73 888.87,-348 901.11,-274.86 896.93,-242.48 848.87,-186 811.18,-141.71 749.48,-115.09 703.41,-100.39"/>
<polygon fill="#9a32cd" stroke="#9a32cd" points="850.03,-444.5 847.11,-454.68 855.74,-448.54 850.03,-444.5"/>
</a>
</g>
<text text-anchor="middle" x="908.24" y="-218.5" font-family="Helvetica,sans-Serif" font-size="10.00" fill="grey"> m_Root</text>
</g>
<!-- Node8&#45;&gt;Node5 -->
<g id="edge11_Node000005_Node000008" class="edge">
<title>Node8&#45;&gt;Node5</title>
<g id="a_edge11_Node000005_Node000008"><a xlink:title=" ">
<path fill="none" stroke="#9a32cd" stroke-dasharray="5,2" d="M808.9,-450.99C743.09,-420.2 587.44,-347.41 533.04,-321.97"/>
<polygon fill="#9a32cd" stroke="#9a32cd" points="807.12,-454.01 817.66,-455.08 810.08,-447.67 807.12,-454.01"/>
</a>
</g>
<text text-anchor="middle" x="794.24" y="-398.5" font-family="Helvetica,sans-Serif" font-size="10.00" fill="grey"> m_Root</text>
</g>
<!-- Node8&#45;&gt;Node9 -->
<g id="edge18_Node000009_Node000008" class="edge">
<title>Node8&#45;&gt;Node9</title>
<g id="a_edge18_Node000009_Node000008"><a xlink:title=" ">
<path fill="none" stroke="#9a32cd" stroke-dasharray="5,2" d="M841.14,-444.45C847.09,-386.31 860.31,-222.44 824.87,-186 819.66,-180.64 614.5,-167.36 522.61,-161.66"/>
<polygon fill="#9a32cd" stroke="#9a32cd" points="837.68,-443.91 840.1,-454.23 844.64,-444.65 837.68,-443.91"/>
</a>
</g>
<text text-anchor="middle" x="866.24" y="-308.5" font-family="Helvetica,sans-Serif" font-size="10.00" fill="grey"> m_Root</text>
</g>
<!-- Node9&#45;&gt;Node2 -->
<g id="edge23_Node000002_Node000009" class="edge">
<title>Node9&#45;&gt;Node2</title>
<g id="a_edge23_Node000002_Node000009"><a xlink:title=" ">
<path fill="none" stroke="#9a32cd" stroke-dasharray="5,2" d="M509.8,-142.99C526.39,-135.5 547.22,-126.18 565.87,-118 579.06,-112.22 593.56,-105.97 606.39,-100.49"/>
<polygon fill="#9a32cd" stroke="#9a32cd" points="508.62,-139.68 500.95,-146.98 511.5,-146.06 508.62,-139.68"/>
</a>
</g>
<text text-anchor="middle" x="597.37" y="-120.5" font-family="Helvetica,sans-Serif" font-size="10.00" fill="grey"> m_Subgroups</text>
</g>
<!-- Node9&#45;&gt;Node5 -->
<g id="edge12_Node000005_Node000009" class="edge">
<title>Node9&#45;&gt;Node5</title>
<g id="a_edge12_Node000005_Node000009"><a xlink:title=" ">
<path fill="none" stroke="#9a32cd" stroke-dasharray="5,2" d="M509.21,-175.25C512.68,-178.35 515.74,-181.93 517.87,-186 538.12,-224.66 524.11,-279.67 517.15,-301.52"/>
<polygon fill="#9a32cd" stroke="#9a32cd" points="511.35,-172.47 501.22,-169.38 507.2,-178.12 511.35,-172.47"/>
</a>
</g>
<text text-anchor="middle" x="559.37" y="-218.5" font-family="Helvetica,sans-Serif" font-size="10.00" fill="grey"> m_Subgroups</text>
</g>
<!-- Node9&#45;&gt;Node9 -->
<g id="edge19_Node000009_Node000009" class="edge">
<title>Node9&#45;&gt;Node9</title>
<g id="a_edge19_Node000009_Node000009"><a xlink:title=" ">
<path fill="none" stroke="#9a32cd" stroke-dasharray="5,2" d="M533.5,-162.76C537.6,-161.7 540.12,-160.11 540.12,-158 540.12,-154.35 532.58,-152.26 522.36,-151.75"/>
<polygon fill="#9a32cd" stroke="#9a32cd" points="533.31,-159.26 523.86,-164.05 534.24,-166.19 533.31,-159.26"/>
</a>
</g>
<text text-anchor="middle" x="571.62" y="-154.5" font-family="Helvetica,sans-Serif" font-size="10.00" fill="grey"> m_Subgroups</text>
</g>
</g>
</svg>
