<?xml version="1.0" encoding="UTF-8" standalone="no"?>
<!DOCTYPE svg PUBLIC "-//W3C//DTD SVG 1.1//EN"
 "http://www.w3.org/Graphics/SVG/1.1/DTD/svg11.dtd">
<!-- Generated by graphviz version 11.0.0 (20240428.1522)
 -->
<!-- Title: EffBreathVapourHeavy Pages: 1 -->
<svg width="897pt" height="300pt"
 viewBox="0.00 0.00 897.38 300.00" xmlns="http://www.w3.org/2000/svg" xmlns:xlink="http://www.w3.org/1999/xlink">
<g id="graph0" class="graph" transform="scale(1 1) rotate(0) translate(4 296)">
<title>EffBreathVapourHeavy</title>
<!-- Node1 -->
<g id="Node000001" class="node">
<title>Node1</title>
<g id="a_Node000001"><a xlink:title=" ">
<polygon fill="#999999" stroke="#666666" points="311.75,-20 199,-20 199,0 311.75,0 311.75,-20"/>
<text text-anchor="middle" x="255.38" y="-6.5" font-family="Helvetica,sans-Serif" font-size="10.00">EffBreathVapourHeavy</text>
</a>
</g>
</g>
<!-- Node2 -->
<g id="Node000002" class="node">
<title>Node2</title>
<g id="a_Node000002"><a xlink:href="../../de/d07/class_effect_particle.html" target="_top" xlink:title="Wrapper class for managing particles through SEffectManager.">
<polygon fill="white" stroke="#666666" points="292.25,-76 218.5,-76 218.5,-56 292.25,-56 292.25,-76"/>
<text text-anchor="middle" x="255.38" y="-62.5" font-family="Helvetica,sans-Serif" font-size="10.00">EffectParticle</text>
</a>
</g>
</g>
<!-- Node2&#45;&gt;Node1 -->
<g id="edge1_Node000001_Node000002" class="edge">
<title>Node2&#45;&gt;Node1</title>
<g id="a_edge1_Node000001_Node000002"><a xlink:title=" ">
<path fill="none" stroke="#8b1a1a" d="M255.38,-44.13C255.38,-35.9 255.38,-26.85 255.38,-20.3"/>
<polygon fill="#8b1a1a" stroke="#8b1a1a" points="251.88,-44.08 255.38,-54.08 258.88,-44.08 251.88,-44.08"/>
</a>
</g>
</g>
<!-- Node3 -->
<g id="Node000003" class="node">
<title>Node3</title>
<g id="a_Node000003"><a xlink:title=" ">
<polygon fill="white" stroke="#666666" points="40.75,-146 0,-146 0,-126 40.75,-126 40.75,-146"/>
<text text-anchor="middle" x="20.38" y="-132.5" font-family="Helvetica,sans-Serif" font-size="10.00">Effect</text>
</a>
</g>
</g>
<!-- Node3&#45;&gt;Node2 -->
<g id="edge2_Node000002_Node000003" class="edge">
<title>Node3&#45;&gt;Node2</title>
<g id="a_edge2_Node000002_Node000003"><a xlink:title=" ">
<path fill="none" stroke="#8b1a1a" d="M34.2,-116.96C41.62,-108.6 51.47,-99.35 62.38,-94 89.03,-80.92 169.84,-73.09 218.03,-69.45"/>
<polygon fill="#8b1a1a" stroke="#8b1a1a" points="31.56,-114.66 27.9,-124.61 36.96,-119.12 31.56,-114.66"/>
</a>
</g>
</g>
<!-- Node4 -->
<g id="Node000004" class="node">
<title>Node4</title>
<g id="a_Node000004"><a xlink:href="../../de/d05/class_particle.html" target="_top" xlink:title="Legacy way of using particles in the game.">
<polygon fill="white" stroke="#666666" points="415.88,-146 366.88,-146 366.88,-126 415.88,-126 415.88,-146"/>
<text text-anchor="middle" x="391.38" y="-132.5" font-family="Helvetica,sans-Serif" font-size="10.00">Particle</text>
</a>
</g>
</g>
<!-- Node4&#45;&gt;Node2 -->
<g id="edge3_Node000002_Node000004" class="edge">
<title>Node4&#45;&gt;Node2</title>
<g id="a_edge3_Node000002_Node000004"><a xlink:title=" ">
<path fill="none" stroke="#9a32cd" stroke-dasharray="5,2" d="M362.2,-120.41C335.53,-107.08 296.89,-87.76 274.12,-76.37"/>
<polygon fill="#9a32cd" stroke="#9a32cd" points="360.6,-123.53 371.11,-124.87 363.73,-117.27 360.6,-123.53"/>
</a>
</g>
<text text-anchor="middle" x="363.62" y="-96.5" font-family="Helvetica,sans-Serif" font-size="10.00" fill="grey"> m_ParticleObj</text>
</g>
<!-- Node5 -->
<g id="Node000005" class="node">
<title>Node5</title>
<g id="a_Node000005"><a xlink:title=" ">
<polygon fill="white" stroke="#666666" points="388.12,-278 316.62,-278 316.62,-258 388.12,-258 388.12,-278"/>
<text text-anchor="middle" x="352.38" y="-264.5" font-family="Helvetica,sans-Serif" font-size="10.00">ParticleBase</text>
</a>
</g>
</g>
<!-- Node5&#45;&gt;Node4 -->
<g id="edge4_Node000004_Node000005" class="edge">
<title>Node5&#45;&gt;Node4</title>
<g id="a_edge4_Node000004_Node000005"><a xlink:title=" ">
<path fill="none" stroke="#8b1a1a" d="M358.39,-246.96C366.95,-218.41 382.32,-167.17 388.6,-146.26"/>
<polygon fill="#8b1a1a" stroke="#8b1a1a" points="355.14,-245.62 355.61,-256.2 361.84,-247.63 355.14,-245.62"/>
</a>
</g>
</g>
<!-- Node6 -->
<g id="Node000006" class="node">
<title>Node6</title>
<g id="a_Node000006"><a xlink:href="../../db/d06/class_param3.html" target="_top" xlink:title=" ">
<polygon fill="white" stroke="#666666" points="118.25,-278 68.5,-278 68.5,-258 118.25,-258 118.25,-278"/>
<text text-anchor="middle" x="93.38" y="-264.5" font-family="Helvetica,sans-Serif" font-size="10.00">Param3</text>
</a>
</g>
</g>
<!-- Node6&#45;&gt;Node2 -->
<g id="edge13_Node000002_Node000006" class="edge">
<title>Node6&#45;&gt;Node2</title>
<g id="a_edge13_Node000002_Node000006"><a xlink:title=" ">
<path fill="none" stroke="#9a32cd" stroke-dasharray="5,2" d="M89.04,-246.31C85.67,-224.81 83.59,-190.91 97.38,-166 124.18,-117.57 185.68,-89.67 223.55,-76.48"/>
<polygon fill="#9a32cd" stroke="#9a32cd" points="85.6,-246.94 90.85,-256.14 92.49,-245.67 85.6,-246.94"/>
</a>
</g>
<text text-anchor="middle" x="163.62" y="-132.5" font-family="Helvetica,sans-Serif" font-size="10.00" fill="grey"> m_ParticleID</text>
</g>
<!-- Node6&#45;&gt;Node4 -->
<g id="edge5_Node000004_Node000006" class="edge">
<title>Node6&#45;&gt;Node4</title>
<g id="a_edge5_Node000004_Node000006"><a xlink:title=" ">
<path fill="none" stroke="#9a32cd" stroke-dasharray="5,2" d="M95.7,-246.4C99.55,-222.81 109.58,-185 135.38,-166 170.06,-140.45 285.68,-153.71 328.38,-148 341.03,-146.31 355.03,-143.92 366.61,-141.79"/>
<polygon fill="#9a32cd" stroke="#9a32cd" points="92.27,-245.66 94.37,-256.04 99.2,-246.61 92.27,-245.66"/>
</a>
</g>
<text text-anchor="middle" x="174.38" y="-204.5" font-family="Helvetica,sans-Serif" font-size="10.00" fill="grey"> MAX_EMITORS</text>
<text text-anchor="middle" x="174.38" y="-192.5" font-family="Helvetica,sans-Serif" font-size="10.00" fill="grey">m_ParticleID</text>
<text text-anchor="middle" x="174.38" y="-180.5" font-family="Helvetica,sans-Serif" font-size="10.00" fill="grey">m_PreviousFrame</text>
</g>
<!-- Node7 -->
<g id="Node000007" class="node">
<title>Node7</title>
<g id="a_Node000007"><a xlink:href="../../d4/d03/classfloat.html" target="_top" xlink:title=" ">
<polygon fill="white" stroke="#666666" points="521.38,-278 487.38,-278 487.38,-258 521.38,-258 521.38,-278"/>
<text text-anchor="middle" x="504.38" y="-264.5" font-family="Helvetica,sans-Serif" font-size="10.00">float</text>
</a>
</g>
</g>
<!-- Node7&#45;&gt;Node4 -->
<g id="edge6_Node000004_Node000007" class="edge">
<title>Node7&#45;&gt;Node4</title>
<g id="a_edge6_Node000004_Node000007"><a xlink:title=" ">
<path fill="none" stroke="#9a32cd" stroke-dasharray="5,2" d="M505.57,-246.27C505.7,-223.72 502.36,-187.96 482.38,-166 465.52,-147.48 436.89,-140.72 416.24,-138.29"/>
<polygon fill="#9a32cd" stroke="#9a32cd" points="502.08,-245.92 505.25,-256.03 509.07,-246.15 502.08,-245.92"/>
</a>
</g>
<text text-anchor="middle" x="541.88" y="-204.5" font-family="Helvetica,sans-Serif" font-size="10.00" fill="grey"> m_Lifetime</text>
<text text-anchor="middle" x="541.88" y="-192.5" font-family="Helvetica,sans-Serif" font-size="10.00" fill="grey">m_MaxOriInterval</text>
<text text-anchor="middle" x="541.88" y="-180.5" font-family="Helvetica,sans-Serif" font-size="10.00" fill="grey">m_MaxOriWiggle</text>
</g>
<!-- Node7&#45;&gt;Node7 -->
<g id="edge7_Node000007_Node000007" class="edge">
<title>Node7&#45;&gt;Node7</title>
<g id="a_edge7_Node000007_Node000007"><a xlink:title=" ">
<path fill="none" stroke="#9a32cd" stroke-dasharray="5,2" d="M526.05,-281.5C533.44,-281.58 539.38,-277.08 539.38,-268 539.38,-254.64 526.52,-251.2 515.13,-257.67"/>
<polygon fill="#9a32cd" stroke="#9a32cd" points="527.16,-278.17 516.58,-278.75 525.21,-284.9 527.16,-278.17"/>
</a>
</g>
<text text-anchor="middle" x="561.5" y="-276.5" font-family="Helvetica,sans-Serif" font-size="10.00" fill="grey"> LOWEST</text>
<text text-anchor="middle" x="561.5" y="-264.5" font-family="Helvetica,sans-Serif" font-size="10.00" fill="grey">MAX</text>
<text text-anchor="middle" x="561.5" y="-252.5" font-family="Helvetica,sans-Serif" font-size="10.00" fill="grey">MIN</text>
</g>
<!-- Node8 -->
<g id="Node000008" class="node">
<title>Node8</title>
<g id="a_Node000008"><a xlink:href="../../d9/d09/classbool.html" target="_top" xlink:title=" ">
<polygon fill="white" stroke="#666666" points="235.38,-278 201.38,-278 201.38,-258 235.38,-258 235.38,-278"/>
<text text-anchor="middle" x="218.38" y="-264.5" font-family="Helvetica,sans-Serif" font-size="10.00">bool</text>
</a>
</g>
</g>
<!-- Node8&#45;&gt;Node2 -->
<g id="edge15_Node000002_Node000008" class="edge">
<title>Node8&#45;&gt;Node2</title>
<g id="a_edge15_Node000002_Node000008"><a xlink:title=" ">
<path fill="none" stroke="#9a32cd" stroke-dasharray="5,2" d="M217.17,-246.28C216.84,-239.79 216.54,-232.6 216.38,-226 215.73,-199.34 211.4,-192.2 216.38,-166 222.92,-131.52 241.23,-93.69 250.24,-76.47"/>
<polygon fill="#9a32cd" stroke="#9a32cd" points="213.66,-246.25 217.7,-256.05 220.65,-245.87 213.66,-246.25"/>
</a>
</g>
<text text-anchor="start" x="229.38" y="-138.5" font-family="Helvetica,sans-Serif" font-size="10.00" fill="grey"> m_ForceRotationRelativeTo</text>
<text text-anchor="middle" x="290.12" y="-126.5" font-family="Helvetica,sans-Serif" font-size="10.00" fill="grey">World</text>
</g>
<!-- Node8&#45;&gt;Node4 -->
<g id="edge8_Node000004_Node000008" class="edge">
<title>Node8&#45;&gt;Node4</title>
<g id="a_edge8_Node000004_Node000008"><a xlink:title=" ">
<path fill="none" stroke="#9a32cd" stroke-dasharray="5,2" d="M216.19,-246.2C215.02,-223.29 217.05,-186.94 238.12,-166 240.41,-163.73 323.72,-148.86 366.52,-141.34"/>
<polygon fill="#9a32cd" stroke="#9a32cd" points="212.7,-246.43 216.97,-256.13 219.67,-245.88 212.7,-246.43"/>
</a>
</g>
<text text-anchor="start" x="238.38" y="-216.5" font-family="Helvetica,sans-Serif" font-size="10.00" fill="grey"> m_ForceOrientationRelative</text>
<text text-anchor="middle" x="299.5" y="-204.5" font-family="Helvetica,sans-Serif" font-size="10.00" fill="grey">ToWorld</text>
<text text-anchor="middle" x="299.5" y="-192.5" font-family="Helvetica,sans-Serif" font-size="10.00" fill="grey">m_IsRepeat</text>
<text text-anchor="middle" x="299.5" y="-180.5" font-family="Helvetica,sans-Serif" font-size="10.00" fill="grey">m_MarkedForDeletion</text>
<text text-anchor="middle" x="299.5" y="-168.5" font-family="Helvetica,sans-Serif" font-size="10.00" fill="grey">m_WiggleProcessing</text>
</g>
<!-- Node9 -->
<g id="Node000009" class="node">
<title>Node9</title>
<g id="a_Node000009"><a xlink:href="../../d7/d0c/classvector.html" target="_top" xlink:title=" ">
<polygon fill="white" stroke="#666666" points="708.12,-278 666.62,-278 666.62,-258 708.12,-258 708.12,-278"/>
<text text-anchor="middle" x="687.38" y="-264.5" font-family="Helvetica,sans-Serif" font-size="10.00">vector</text>
</a>
</g>
</g>
<!-- Node9&#45;&gt;Node2 -->
<g id="edge14_Node000002_Node000009" class="edge">
<title>Node9&#45;&gt;Node2</title>
<g id="a_edge14_Node000002_Node000009"><a xlink:title=" ">
<path fill="none" stroke="#9a32cd" stroke-dasharray="5,2" d="M709.14,-250.01C716,-243.35 722.73,-235.11 726.38,-226 736.27,-201.24 743.07,-186.79 726.38,-166 671.89,-98.17 394.37,-75.18 292.73,-68.97"/>
<polygon fill="#9a32cd" stroke="#9a32cd" points="706.92,-247.31 701.74,-256.55 711.55,-252.55 706.92,-247.31"/>
</a>
</g>
<text text-anchor="middle" x="751.25" y="-138.5" font-family="Helvetica,sans-Serif" font-size="10.00" fill="grey"> m_Orientation</text>
<text text-anchor="middle" x="751.25" y="-126.5" font-family="Helvetica,sans-Serif" font-size="10.00" fill="grey">m_ParticleOrientation</text>
</g>
<!-- Node9&#45;&gt;Node4 -->
<g id="edge9_Node000004_Node000009" class="edge">
<title>Node9&#45;&gt;Node4</title>
<g id="a_edge9_Node000004_Node000009"><a xlink:title=" ">
<path fill="none" stroke="#9a32cd" stroke-dasharray="5,2" d="M655.55,-257.86C638.12,-251.43 617.31,-241.22 603.38,-226 584.09,-204.94 602.61,-183.92 580.38,-166 555.56,-146 461.66,-139.69 416.25,-137.78"/>
<polygon fill="#9a32cd" stroke="#9a32cd" points="654.37,-261.16 664.97,-261.07 656.63,-254.53 654.37,-261.16"/>
</a>
</g>
<text text-anchor="middle" x="664.88" y="-216.5" font-family="Helvetica,sans-Serif" font-size="10.00" fill="grey"> m_DefaultOri</text>
<text text-anchor="middle" x="664.88" y="-204.5" font-family="Helvetica,sans-Serif" font-size="10.00" fill="grey">m_DefaultPos</text>
<text text-anchor="middle" x="664.88" y="-192.5" font-family="Helvetica,sans-Serif" font-size="10.00" fill="grey">m_DefaultWorldOri</text>
<text text-anchor="middle" x="664.88" y="-180.5" font-family="Helvetica,sans-Serif" font-size="10.00" fill="grey">m_DefaultWorldPos</text>
<text text-anchor="middle" x="664.88" y="-168.5" font-family="Helvetica,sans-Serif" font-size="10.00" fill="grey">m_GlobalPosPreviousFrame</text>
</g>
<!-- Node9&#45;&gt;Node9 -->
<g id="edge10_Node000009_Node000009" class="edge">
<title>Node9&#45;&gt;Node9</title>
<g id="a_edge10_Node000009_Node000009"><a xlink:title=" ">
<path fill="none" stroke="#9a32cd" stroke-dasharray="5,2" d="M710.24,-281.46C718.93,-281.98 726.12,-277.5 726.12,-268 726.12,-254.64 711.89,-251.2 699.28,-257.67"/>
<polygon fill="#9a32cd" stroke="#9a32cd" points="711.31,-278.12 700.73,-278.75 709.39,-284.86 711.31,-278.12"/>
</a>
</g>
<text text-anchor="middle" x="743.38" y="-282.5" font-family="Helvetica,sans-Serif" font-size="10.00" fill="grey"> Aside</text>
<text text-anchor="middle" x="743.38" y="-270.5" font-family="Helvetica,sans-Serif" font-size="10.00" fill="grey">Forward</text>
<text text-anchor="middle" x="743.38" y="-258.5" font-family="Helvetica,sans-Serif" font-size="10.00" fill="grey">Up</text>
<text text-anchor="middle" x="743.38" y="-246.5" font-family="Helvetica,sans-Serif" font-size="10.00" fill="grey">Zero</text>
</g>
<!-- Node10 -->
<g id="Node000010" class="node">
<title>Node10</title>
<g id="a_Node000010"><a xlink:href="../../d8/d08/class_timer.html" target="_top" xlink:title=" ">
<polygon fill="white" stroke="#666666" points="446.38,-278 406.38,-278 406.38,-258 446.38,-258 446.38,-278"/>
<text text-anchor="middle" x="426.38" y="-264.5" font-family="Helvetica,sans-Serif" font-size="10.00">Timer</text>
</a>
</g>
</g>
<!-- Node10&#45;&gt;Node4 -->
<g id="edge11_Node000004_Node000010" class="edge">
<title>Node10&#45;&gt;Node4</title>
<g id="a_edge11_Node000004_Node000010"><a xlink:title=" ">
<path fill="none" stroke="#9a32cd" stroke-dasharray="5,2" d="M414.46,-248.11C410.7,-241.36 406.87,-233.55 404.38,-226 395.13,-197.97 392.45,-162.82 391.68,-146.34"/>
<polygon fill="#9a32cd" stroke="#9a32cd" points="411.25,-249.54 419.36,-256.35 417.26,-245.97 411.25,-249.54"/>
</a>
</g>
<text text-anchor="middle" x="443.38" y="-192.5" font-family="Helvetica,sans-Serif" font-size="10.00" fill="grey"> m_RandomizeOri</text>
</g>
<!-- Node11 -->
<g id="Node000011" class="node">
<title>Node11</title>
<g id="a_Node000011"><a xlink:href="../../d8/d03/class_object.html" target="_top" xlink:title=" ">
<polygon fill="white" stroke="#666666" points="845.62,-278 801.12,-278 801.12,-258 845.62,-258 845.62,-278"/>
<text text-anchor="middle" x="823.38" y="-264.5" font-family="Helvetica,sans-Serif" font-size="10.00">Object</text>
</a>
</g>
</g>
<!-- Node11&#45;&gt;Node2 -->
<g id="edge16_Node000002_Node000011" class="edge">
<title>Node11&#45;&gt;Node2</title>
<g id="a_edge16_Node000002_Node000011"><a xlink:title=" ">
<path fill="none" stroke="#9a32cd" stroke-dasharray="5,2" d="M841.75,-249.56C847.6,-242.82 853.33,-234.65 856.38,-226 865.24,-200.85 868.09,-189.96 856.38,-166 843.02,-138.69 830.44,-135.69 802.38,-124 709.72,-85.39 400.3,-71.75 292.66,-68.11"/>
<polygon fill="#9a32cd" stroke="#9a32cd" points="839.35,-247 835,-256.67 844.43,-251.82 839.35,-247"/>
</a>
</g>
<text text-anchor="middle" x="866.88" y="-132.5" font-family="Helvetica,sans-Serif" font-size="10.00" fill="grey"> m_Object</text>
</g>
<!-- Node11&#45;&gt;Node4 -->
<g id="edge12_Node000004_Node000011" class="edge">
<title>Node11&#45;&gt;Node4</title>
<g id="a_edge12_Node000004_Node000011"><a xlink:title=" ">
<path fill="none" stroke="#9a32cd" stroke-dasharray="5,2" d="M806.05,-249.92C798.78,-242.64 790.32,-234.01 782.88,-226 758.75,-200.05 761.99,-182 730.38,-166 675.3,-138.12 484.2,-136.43 415.89,-136.75"/>
<polygon fill="#9a32cd" stroke="#9a32cd" points="803.25,-252.08 812.81,-256.65 808.19,-247.11 803.25,-252.08"/>
</a>
</g>
<text text-anchor="middle" x="819.12" y="-198.5" font-family="Helvetica,sans-Serif" font-size="10.00" fill="grey"> m_ParentObject</text>
<text text-anchor="middle" x="819.12" y="-186.5" font-family="Helvetica,sans-Serif" font-size="10.00" fill="grey">m_ParticleEffect</text>
</g>
</g>
</svg>
