<?xml version="1.0" encoding="UTF-8" standalone="no"?>
<!DOCTYPE svg PUBLIC "-//W3C//DTD SVG 1.1//EN"
 "http://www.w3.org/Graphics/SVG/1.1/DTD/svg11.dtd">
<!-- Generated by graphviz version 11.0.0 (20240428.1522)
 -->
<!-- Title: AreaDamageLoopedDeferred Pages: 1 -->
<svg width="448pt" height="205pt"
 viewBox="0.00 0.00 447.75 205.00" xmlns="http://www.w3.org/2000/svg" xmlns:xlink="http://www.w3.org/1999/xlink">

<svg id="main" version="1.1" xmlns="http://www.w3.org/2000/svg" xmlns:xlink="http://www.w3.org/1999/xlink" xml:space="preserve" onload="init(evt)">
<style type="text/css"><![CDATA[
.node, .edge {opacity: 0.7;}
.node.selected, .edge.selected {opacity: 1;}
.edge:hover path { stroke: red; }
.edge:hover polygon { stroke: red; fill: red; }
]]></style>
<script type="application/ecmascript" xlink:href="../../svg.min.js"/>
<svg id="graph" class="graph">
<g id="graph0" class="graph" transform="scale(1 1) rotate(0) translate(4 201)">
<title>AreaDamageLoopedDeferred</title>
<!-- Node1 -->
<g id="Node000001" class="node">
<title>Node1</title>
<g id="a_Node000001"><a xlink:title="Deferred version of AreaDamageLooped.">
<polygon fill="#999999" stroke="#666666" points="139.75,-20 0,-20 0,0 139.75,0 139.75,-20"/>
<text text-anchor="middle" x="69.88" y="-6.5" font-family="Helvetica,sans-Serif" font-size="10.00">AreaDamageLoopedDeferred</text>
</a>
</g>
</g>
<!-- Node2 -->
<g id="Node000002" class="node">
<title>Node2</title>
<g id="a_Node000002"><a xlink:href="../../dd/d07/class_area_damage_looped.html" target="_top" xlink:title=" ">
<polygon fill="white" stroke="#666666" points="226.75,-77 123,-77 123,-57 226.75,-57 226.75,-77"/>
<text text-anchor="middle" x="174.88" y="-63.5" font-family="Helvetica,sans-Serif" font-size="10.00">AreaDamageLooped</text>
</a>
</g>
</g>
<!-- Node2&#45;&gt;Node1 -->
<g id="edge1_Node000001_Node000002" class="edge">
<title>Node2&#45;&gt;Node1</title>
<g id="a_edge1_Node000001_Node000002"><a xlink:title=" ">
<path fill="none" stroke="#8b1a1a" d="M147.01,-51.4C128.23,-41.57 104.02,-28.88 87.77,-20.38"/>
<polygon fill="#8b1a1a" stroke="#8b1a1a" points="145.24,-54.43 155.72,-55.97 148.49,-48.23 145.24,-54.43"/>
</a>
</g>
</g>
<!-- Node3 -->
<g id="Node000003" class="node">
<title>Node3</title>
<g id="a_Node000003"><a xlink:title=" ">
<polygon fill="white" stroke="#666666" points="439.75,-189 330,-189 330,-169 439.75,-169 439.75,-189"/>
<text text-anchor="middle" x="384.88" y="-175.5" font-family="Helvetica,sans-Serif" font-size="10.00">AreaDamageManager</text>
</a>
</g>
</g>
<!-- Node3&#45;&gt;Node2 -->
<g id="edge2_Node000002_Node000003" class="edge">
<title>Node3&#45;&gt;Node2</title>
<g id="a_edge2_Node000002_Node000003"><a xlink:title=" ">
<path fill="none" stroke="#8b1a1a" d="M385.39,-157.25C384.66,-138.16 380.33,-110.53 362.88,-95 343.29,-77.57 275.51,-71.38 226.96,-69.19"/>
<polygon fill="#8b1a1a" stroke="#8b1a1a" points="381.89,-157.1 385.44,-167.09 388.89,-157.07 381.89,-157.1"/>
</a>
</g>
</g>
<!-- Node4 -->
<g id="Node000004" class="node">
<title>Node4</title>
<g id="a_Node000004"><a xlink:href="../../d4/d03/classfloat.html" target="_top" xlink:title=" ">
<polygon fill="white" stroke="#666666" points="55.88,-189 21.88,-189 21.88,-169 55.88,-169 55.88,-189"/>
<text text-anchor="middle" x="38.88" y="-175.5" font-family="Helvetica,sans-Serif" font-size="10.00">float</text>
</a>
</g>
</g>
<!-- Node4&#45;&gt;Node1 -->
<g id="edge7_Node000001_Node000004" class="edge">
<title>Node4&#45;&gt;Node1</title>
<g id="a_edge7_Node000001_Node000004"><a xlink:title=" ">
<path fill="none" stroke="#9a32cd" stroke-dasharray="5,2" d="M35.31,-157.54C31.84,-133.04 28.47,-91.05 38.88,-57 43.21,-42.82 53.55,-29.05 61.1,-20.33"/>
<polygon fill="#9a32cd" stroke="#9a32cd" points="31.81,-157.79 36.82,-167.13 38.72,-156.7 31.81,-157.79"/>
</a>
</g>
<text text-anchor="middle" x="76.38" y="-63.5" font-family="Helvetica,sans-Serif" font-size="10.00" fill="grey"> m_DeferDuration</text>
</g>
<!-- Node4&#45;&gt;Node2 -->
<g id="edge3_Node000002_Node000004" class="edge">
<title>Node4&#45;&gt;Node2</title>
<g id="a_edge3_Node000002_Node000004"><a xlink:title=" ">
<path fill="none" stroke="#9a32cd" stroke-dasharray="5,2" d="M42.92,-157.51C47.7,-138.6 57.53,-111.1 76.38,-95 89.32,-83.94 106.4,-77.38 122.71,-73.5"/>
<polygon fill="#9a32cd" stroke="#9a32cd" points="39.5,-156.73 40.74,-167.25 46.34,-158.26 39.5,-156.73"/>
</a>
</g>
<text text-anchor="middle" x="124.12" y="-133.5" font-family="Helvetica,sans-Serif" font-size="10.00" fill="grey"> m_AccumulatedTime</text>
<text text-anchor="middle" x="124.12" y="-121.5" font-family="Helvetica,sans-Serif" font-size="10.00" fill="grey">m_CurrentTime</text>
<text text-anchor="middle" x="124.12" y="-109.5" font-family="Helvetica,sans-Serif" font-size="10.00" fill="grey">m_LoopInterval</text>
<text text-anchor="middle" x="124.12" y="-97.5" font-family="Helvetica,sans-Serif" font-size="10.00" fill="grey">m_PreviousTime</text>
</g>
<!-- Node4&#45;&gt;Node4 -->
<g id="edge4_Node000004_Node000004" class="edge">
<title>Node4&#45;&gt;Node4</title>
<g id="a_edge4_Node000004_Node000004"><a xlink:title=" ">
<path fill="none" stroke="#9a32cd" stroke-dasharray="5,2" d="M66.22,-189.44C70.75,-187.97 73.88,-184.49 73.88,-179 73.88,-169.51 64.53,-166.02 54.71,-168.54"/>
<polygon fill="#9a32cd" stroke="#9a32cd" points="66.22,-185.94 56.23,-189.45 66.23,-192.94 66.22,-185.94"/>
</a>
</g>
<text text-anchor="middle" x="96" y="-187.5" font-family="Helvetica,sans-Serif" font-size="10.00" fill="grey"> LOWEST</text>
<text text-anchor="middle" x="96" y="-175.5" font-family="Helvetica,sans-Serif" font-size="10.00" fill="grey">MAX</text>
<text text-anchor="middle" x="96" y="-163.5" font-family="Helvetica,sans-Serif" font-size="10.00" fill="grey">MIN</text>
</g>
<!-- Node5 -->
<g id="Node000005" class="node">
<title>Node5</title>
<g id="a_Node000005"><a xlink:href="../../db/d06/class_param3.html" target="_top" xlink:title=" ">
<polygon fill="white" stroke="#666666" points="199.75,-189 150,-189 150,-169 199.75,-169 199.75,-189"/>
<text text-anchor="middle" x="174.88" y="-175.5" font-family="Helvetica,sans-Serif" font-size="10.00">Param3</text>
</a>
</g>
</g>
<!-- Node5&#45;&gt;Node2 -->
<g id="edge5_Node000002_Node000005" class="edge">
<title>Node5&#45;&gt;Node2</title>
<g id="a_edge5_Node000002_Node000005"><a xlink:title=" ">
<path fill="none" stroke="#9a32cd" stroke-dasharray="5,2" d="M174.88,-157.31C174.88,-133.36 174.88,-94.95 174.88,-77.35"/>
<polygon fill="#9a32cd" stroke="#9a32cd" points="171.38,-157.11 174.88,-167.11 178.38,-157.11 171.38,-157.11"/>
</a>
</g>
<text text-anchor="middle" x="218" y="-115.5" font-family="Helvetica,sans-Serif" font-size="10.00" fill="grey"> m_AmountOfLoops</text>
</g>
<!-- Node6 -->
<g id="Node000006" class="node">
<title>Node6</title>
<g id="a_Node000006"><a xlink:href="../../d9/d09/classbool.html" target="_top" xlink:title=" ">
<polygon fill="white" stroke="#666666" points="300.88,-189 266.88,-189 266.88,-169 300.88,-169 300.88,-189"/>
<text text-anchor="middle" x="283.88" y="-175.5" font-family="Helvetica,sans-Serif" font-size="10.00">bool</text>
</a>
</g>
</g>
<!-- Node6&#45;&gt;Node2 -->
<g id="edge6_Node000002_Node000006" class="edge">
<title>Node6&#45;&gt;Node2</title>
<g id="a_edge6_Node000002_Node000006"><a xlink:title=" ">
<path fill="none" stroke="#9a32cd" stroke-dasharray="5,2" d="M283.78,-157.29C282.57,-138.65 277.89,-111.7 261.88,-95 252.57,-85.3 239.85,-79.06 227.02,-75.06"/>
<polygon fill="#9a32cd" stroke="#9a32cd" points="280.27,-157.25 284.1,-167.13 287.27,-157.02 280.27,-157.25"/>
</a>
</g>
<text text-anchor="middle" x="320.88" y="-115.5" font-family="Helvetica,sans-Serif" font-size="10.00" fill="grey"> m_LoopByObject</text>
</g>
</g>
</svg>
</svg>

<style type='text/css'>
<![CDATA[
[data-mouse-over-selected='false'] { opacity: 0.7; }
[data-mouse-over-selected='true']  { opacity: 1.0; }
]]>
</style>
<script type="application/ecmascript"><![CDATA[
document.addEventListener('DOMContentLoaded', (event) => {
  highlightEdges();
  highlightAdjacentNodes();
});
]]></script>
</svg>
