<?xml version="1.0" encoding="UTF-8" standalone="no"?>
<!DOCTYPE svg PUBLIC "-//W3C//DTD SVG 1.1//EN"
 "http://www.w3.org/Graphics/SVG/1.1/DTD/svg11.dtd">
<!-- Generated by graphviz version 11.0.0 (20240428.1522)
 -->
<!-- Title: PlayerStats Pages: 1 -->
<!--zoomable 990 -->

<svg id="main" version="1.1" xmlns="http://www.w3.org/2000/svg" xmlns:xlink="http://www.w3.org/1999/xlink" xml:space="preserve" onload="init(evt)">
<style type="text/css"><![CDATA[
.node, .edge {opacity: 0.7;}
.node.selected, .edge.selected {opacity: 1;}
.edge:hover path { stroke: red; }
.edge:hover polygon { stroke: red; fill: red; }
]]></style>

<defs>
  <circle id="rim" cx="0" cy="0" r="7"/>
  <circle id="rim2" cx="0" cy="0" r="3.5"/>
  <g id="zoomPlus">
    <use xlink:href="#rim" fill="#404040"><set attributeName="fill" to="#808080" begin="zoomplus.mouseover" end="zoomplus.mouseout"/></use>
    <path d="M-4,0h8M0,-4v8" fill="none" stroke="white" stroke-width="1.5" pointer-events="none"/>
  </g>
  <g id="zoomMin">
    <use xlink:href="#rim" fill="#404040"><set attributeName="fill" to="#808080" begin="zoomminus.mouseover" end="zoomminus.mouseout"/></use>
    <path d="M-4,0h8" fill="none" stroke="white" stroke-width="1.5" pointer-events="none"/>
  </g>
  <g id="arrowUp" transform="translate(30 24)">
    <use xlink:href="#rim"/>
    <path pointer-events="none" fill="none" stroke="white" stroke-width="1.5" d="M0,-3.0v7 M-2.5,-0.5L0,-3.0L2.5,-0.5"/>
  </g>
  <g id="arrowRight" transform="rotate(90) translate(36 -43)">
    <use xlink:href="#rim"/>
    <path pointer-events="none" fill="none" stroke="white" stroke-width="1.5" d="M0,-3.0v7 M-2.5,-0.5L0,-3.0L2.5,-0.5"/>
  </g>
  <g id="arrowDown" transform="rotate(180) translate(-30 -48)">
    <use xlink:href="#rim"/>
    <path pointer-events="none" fill="none" stroke="white" stroke-width="1.5" d="M0,-3.0v7 M-2.5,-0.5L0,-3.0L2.5,-0.5"/>
  </g>
  <g id="arrowLeft" transform="rotate(270) translate(-36 17)">
    <use xlink:href="#rim"/>
    <path pointer-events="none" fill="none" stroke="white" stroke-width="1.5" d="M0,-3.0v7 M-2.5,-0.5L0,-3.0L2.5,-0.5"/>
  </g>
  <g id="resetDef">
    <use xlink:href="#rim2" fill="#404040"><set attributeName="fill" to="#808080" begin="reset.mouseover" end="reset.mouseout"/></use>
  </g>
</defs>
<script type="application/ecmascript">
var viewWidth = 1012;
var viewHeight = 990;
var sectionId = 'dynsection-0';
</script>
<script type="application/ecmascript" xlink:href="../../svg.min.js"/>
<svg id="graph" class="graph">
<g id="viewport">
<title>PlayerStats</title>
<!-- Node1 -->
<g id="Node000001" class="node">
<title>Node1</title>
<g id="a_Node000001"><a xlink:title=" ">
<polygon fill="#999999" stroke="#666666" points="1003.75,-200.27 936.75,-200.27 936.75,-180.27 1003.75,-180.27 1003.75,-200.27"/>
<text text-anchor="middle" x="970.25" y="-186.77" font-family="Helvetica,sans-Serif" font-size="10.00">PlayerStats</text>
</a>
</g>
</g>
<!-- Node2 -->
<g id="Node000002" class="node">
<title>Node2</title>
<g id="a_Node000002"><a xlink:href="../../d2/d01/classarray.html" target="_top" xlink:title=" ">
<polygon fill="white" stroke="#666666" points="802.5,-335.27 665,-335.27 665,-315.27 802.5,-315.27 802.5,-335.27"/>
<text text-anchor="middle" x="733.75" y="-321.77" font-family="Helvetica,sans-Serif" font-size="10.00">array&lt; ref PlayerStatBase &gt;</text>
</a>
</g>
</g>
<!-- Node2&#45;&gt;Node1 -->
<g id="edge1_Node000001_Node000002" class="edge">
<title>Node2&#45;&gt;Node1</title>
<g id="a_edge1_Node000001_Node000002"><a xlink:title=" ">
<path fill="none" stroke="#9a32cd" stroke-dasharray="5,2" d="M762.61,-309.23C811.28,-281.21 910.45,-224.12 951.18,-200.68"/>
<polygon fill="#9a32cd" stroke="#9a32cd" points="760.99,-306.12 754.07,-314.15 764.49,-312.19 760.99,-306.12"/>
</a>
</g>
<text text-anchor="middle" x="871.12" y="-275.77" font-family="Helvetica,sans-Serif" font-size="10.00" fill="grey"> m_PlayerStats</text>
</g>
<!-- Node3 -->
<g id="Node000003" class="node">
<title>Node3</title>
<g id="a_Node000003"><a xlink:href="../../d8/d03/class_object.html" target="_top" xlink:title=" ">
<polygon fill="white" stroke="#666666" points="47.12,-722.27 2.62,-722.27 2.62,-702.27 47.12,-702.27 47.12,-722.27"/>
<text text-anchor="middle" x="24.88" y="-708.77" font-family="Helvetica,sans-Serif" font-size="10.00">Object</text>
</a>
</g>
</g>
<!-- Node3&#45;&gt;Node2 -->
<g id="edge2_Node000002_Node000003" class="edge">
<title>Node3&#45;&gt;Node2</title>
<g id="a_edge2_Node000002_Node000003"><a xlink:title=" ">
<path fill="none" stroke="#9a32cd" stroke-dasharray="5,2" d="M58.72,-718.59C126.29,-730.81 277.93,-753.98 318.25,-724.27 339.98,-708.26 320.29,-688.04 336.25,-666.27 406.85,-570.01 462.61,-586.34 557,-513.27 597.37,-482.02 608.74,-475.18 644,-438.27 677.6,-403.1 711.51,-355.94 725.76,-335.47"/>
<polygon fill="#9a32cd" stroke="#9a32cd" points="59.46,-715.17 48.99,-716.79 58.19,-722.05 59.46,-715.17"/>
</a>
</g>
<text text-anchor="middle" x="394.38" y="-680.77" font-family="Helvetica,sans-Serif" font-size="10.00" fill="grey"> obj</text>
<text text-anchor="middle" x="394.38" y="-668.77" font-family="Helvetica,sans-Serif" font-size="10.00" fill="grey">parent</text>
</g>
<!-- Node5 -->
<g id="Node000005" class="node">
<title>Node5</title>
<g id="a_Node000005"><a xlink:href="../../d2/d01/classarray.html" target="_top" xlink:title="Result for an object found in CGame.IsBoxCollidingGeometryProxy.">
<polygon fill="white" stroke="#666666" points="279,-474.27 241.25,-474.27 241.25,-454.27 279,-454.27 279,-474.27"/>
<text text-anchor="middle" x="260.12" y="-460.77" font-family="Helvetica,sans-Serif" font-size="10.00">array</text>
</a>
</g>
</g>
<!-- Node3&#45;&gt;Node5 -->
<g id="edge5_Node000005_Node000003" class="edge">
<title>Node3&#45;&gt;Node5</title>
<g id="a_edge5_Node000005_Node000003"><a xlink:title=" ">
<path fill="none" stroke="#9a32cd" stroke-dasharray="5,2" d="M27.34,-690.84C30.37,-661.23 39.63,-607.48 67.75,-572.27 114.65,-513.54 202.69,-481.24 240.79,-469.48"/>
<polygon fill="#9a32cd" stroke="#9a32cd" points="23.89,-690.16 26.51,-700.42 30.86,-690.76 23.89,-690.16"/>
</a>
</g>
<text text-anchor="middle" x="125.88" y="-586.77" font-family="Helvetica,sans-Serif" font-size="10.00" fill="grey"> obj</text>
<text text-anchor="middle" x="125.88" y="-574.77" font-family="Helvetica,sans-Serif" font-size="10.00" fill="grey">parent</text>
</g>
<!-- Node9 -->
<g id="Node000009" class="node">
<title>Node9</title>
<g id="a_Node000009"><a xlink:href="../../d2/d01/classarray.html" target="_top" xlink:title=" ">
<polygon fill="white" stroke="#666666" points="557,-474.27 470.5,-474.27 470.5,-454.27 557,-454.27 557,-474.27"/>
<text text-anchor="middle" x="513.75" y="-460.77" font-family="Helvetica,sans-Serif" font-size="10.00">array&lt; Widget &gt;</text>
</a>
</g>
</g>
<!-- Node3&#45;&gt;Node9 -->
<g id="edge13_Node000009_Node000003" class="edge">
<title>Node3&#45;&gt;Node9</title>
<g id="a_edge13_Node000009_Node000003"><a xlink:title=" ">
<path fill="none" stroke="#9a32cd" stroke-dasharray="5,2" d="M58.87,-718.39C94.84,-722.97 151.56,-723.75 184,-691.27 227.39,-647.82 160.73,-599.75 202,-554.27 240.4,-511.96 398.98,-516.29 452.5,-496.27 467.81,-490.55 484.12,-481.69 495.91,-474.75"/>
<polygon fill="#9a32cd" stroke="#9a32cd" points="59.44,-714.94 49.04,-716.95 58.43,-721.86 59.44,-714.94"/>
</a>
</g>
<text text-anchor="middle" x="260.12" y="-568.77" font-family="Helvetica,sans-Serif" font-size="10.00" fill="grey"> obj</text>
<text text-anchor="middle" x="260.12" y="-556.77" font-family="Helvetica,sans-Serif" font-size="10.00" fill="grey">parent</text>
</g>
<!-- Node10 -->
<g id="Node000010" class="node">
<title>Node10</title>
<g id="a_Node000010"><a xlink:href="../../d2/d01/classarray.html" target="_top" xlink:title=" ">
<polygon fill="white" stroke="#666666" points="805.5,-639.27 662,-639.27 662,-619.27 805.5,-619.27 805.5,-639.27"/>
<text text-anchor="middle" x="733.75" y="-625.77" font-family="Helvetica,sans-Serif" font-size="10.00">array&lt; ref StatDebugObject &gt;</text>
</a>
</g>
</g>
<!-- Node3&#45;&gt;Node10 -->
<g id="edge25_Node000010_Node000003" class="edge">
<title>Node3&#45;&gt;Node10</title>
<g id="a_edge25_Node000010_Node000003"><a xlink:title=" ">
<path fill="none" stroke="#9a32cd" stroke-dasharray="5,2" d="M41.37,-730.72C48.57,-737.91 57.75,-745.36 67.75,-749.27 123.33,-771.02 142.32,-751.6 202,-752.27 253.66,-752.85 267.71,-763 318.25,-752.27 326.81,-750.45 327.77,-746.43 336.25,-744.27 469.22,-710.37 519.65,-777.31 644,-719.27 682.38,-701.36 713.33,-659.3 726.24,-639.69"/>
<polygon fill="#9a32cd" stroke="#9a32cd" points="44.27,-728.71 34.92,-723.73 39.13,-733.45 44.27,-728.71"/>
</a>
</g>
<text text-anchor="middle" x="394.38" y="-758.77" font-family="Helvetica,sans-Serif" font-size="10.00" fill="grey"> obj</text>
<text text-anchor="middle" x="394.38" y="-746.77" font-family="Helvetica,sans-Serif" font-size="10.00" fill="grey">parent</text>
</g>
<!-- Node4 -->
<g id="Node000004" class="node">
<title>Node4</title>
<g id="a_Node000004"><a xlink:href="../../db/d06/class_param3.html" target="_top" xlink:title=" ">
<polygon fill="white" stroke="#666666" points="49.75,-824.27 0,-824.27 0,-804.27 49.75,-804.27 49.75,-824.27"/>
<text text-anchor="middle" x="24.88" y="-810.77" font-family="Helvetica,sans-Serif" font-size="10.00">Param3</text>
</a>
</g>
</g>
<!-- Node4&#45;&gt;Node2 -->
<g id="edge3_Node000002_Node000004" class="edge">
<title>Node4&#45;&gt;Node2</title>
<g id="a_edge3_Node000002_Node000004"><a xlink:title=" ">
<path fill="none" stroke="#9a32cd" stroke-dasharray="5,2" d="M61.62,-811.01C163,-801.67 445.5,-775.1 452.5,-768.27 495.84,-726.01 431.71,-679.74 470.5,-633.27 522.42,-571.07 585.95,-633.81 644,-577.27 716.44,-506.72 729.86,-373.59 732.25,-335.62"/>
<polygon fill="#9a32cd" stroke="#9a32cd" points="61.33,-807.52 51.69,-811.92 61.97,-814.49 61.33,-807.52"/>
</a>
</g>
<text text-anchor="middle" x="394.38" y="-845.77" font-family="Helvetica,sans-Serif" font-size="10.00" fill="grey"> NO_SORTING</text>
<text text-anchor="middle" x="394.38" y="-833.77" font-family="Helvetica,sans-Serif" font-size="10.00" fill="grey">geomLevel</text>
<text text-anchor="middle" x="394.38" y="-821.77" font-family="Helvetica,sans-Serif" font-size="10.00" fill="grey">hierLevel</text>
<text text-anchor="start" x="336.25" y="-809.77" font-family="Helvetica,sans-Serif" font-size="10.00" fill="grey">m_CurrentSettingAlternate</text>
<text text-anchor="middle" x="394.38" y="-797.77" font-family="Helvetica,sans-Serif" font-size="10.00" fill="grey">KeyIndex</text>
<text text-anchor="middle" x="394.38" y="-785.77" font-family="Helvetica,sans-Serif" font-size="10.00" fill="grey">m_CurrentSettingKeyIndex</text>
</g>
<!-- Node4&#45;&gt;Node5 -->
<g id="edge6_Node000005_Node000004" class="edge">
<title>Node4&#45;&gt;Node5</title>
<g id="a_edge6_Node000005_Node000004"><a xlink:title=" ">
<path fill="none" stroke="#9a32cd" stroke-dasharray="5,2" d="M30.68,-792.76C36.67,-769.11 48.53,-730.69 67.75,-702.27 106.92,-644.35 148.7,-656.63 184,-596.27 201.96,-565.56 184.32,-549.14 202,-518.27 212.38,-500.15 230.76,-484.4 243.86,-474.66"/>
<polygon fill="#9a32cd" stroke="#9a32cd" points="27.28,-791.92 28.36,-802.46 34.09,-793.55 27.28,-791.92"/>
</a>
</g>
<text text-anchor="middle" x="125.88" y="-764.77" font-family="Helvetica,sans-Serif" font-size="10.00" fill="grey"> NO_SORTING</text>
<text text-anchor="middle" x="125.88" y="-752.77" font-family="Helvetica,sans-Serif" font-size="10.00" fill="grey">geomLevel</text>
<text text-anchor="middle" x="125.88" y="-740.77" font-family="Helvetica,sans-Serif" font-size="10.00" fill="grey">hierLevel</text>
<text text-anchor="start" x="67.75" y="-728.77" font-family="Helvetica,sans-Serif" font-size="10.00" fill="grey">m_CurrentSettingAlternate</text>
<text text-anchor="middle" x="125.88" y="-716.77" font-family="Helvetica,sans-Serif" font-size="10.00" fill="grey">KeyIndex</text>
<text text-anchor="middle" x="125.88" y="-704.77" font-family="Helvetica,sans-Serif" font-size="10.00" fill="grey">m_CurrentSettingKeyIndex</text>
</g>
<!-- Node4&#45;&gt;Node9 -->
<g id="edge14_Node000009_Node000004" class="edge">
<title>Node4&#45;&gt;Node9</title>
<g id="a_edge14_Node000009_Node000004"><a xlink:title=" ">
<path fill="none" stroke="#9a32cd" stroke-dasharray="5,2" d="M54.27,-798.35C86.33,-780.11 139.79,-748.91 184,-719.27 307.59,-636.41 337.74,-613.99 452.5,-519.27 470.41,-504.49 490.1,-486.07 501.94,-474.75"/>
<polygon fill="#9a32cd" stroke="#9a32cd" points="52.56,-795.3 45.58,-803.27 56,-801.39 52.56,-795.3"/>
</a>
</g>
<text text-anchor="middle" x="260.12" y="-767.77" font-family="Helvetica,sans-Serif" font-size="10.00" fill="grey"> NO_SORTING</text>
<text text-anchor="middle" x="260.12" y="-755.77" font-family="Helvetica,sans-Serif" font-size="10.00" fill="grey">geomLevel</text>
<text text-anchor="middle" x="260.12" y="-743.77" font-family="Helvetica,sans-Serif" font-size="10.00" fill="grey">hierLevel</text>
<text text-anchor="start" x="202" y="-731.77" font-family="Helvetica,sans-Serif" font-size="10.00" fill="grey">m_CurrentSettingAlternate</text>
<text text-anchor="middle" x="260.12" y="-719.77" font-family="Helvetica,sans-Serif" font-size="10.00" fill="grey">KeyIndex</text>
<text text-anchor="middle" x="260.12" y="-707.77" font-family="Helvetica,sans-Serif" font-size="10.00" fill="grey">m_CurrentSettingKeyIndex</text>
</g>
<!-- Node4&#45;&gt;Node10 -->
<g id="edge26_Node000010_Node000004" class="edge">
<title>Node4&#45;&gt;Node10</title>
<g id="a_edge26_Node000010_Node000004"><a xlink:title=" ">
<path fill="none" stroke="#9a32cd" stroke-dasharray="5,2" d="M60.51,-827.2C134.14,-852.76 311.08,-903.92 452.5,-863.27 549.03,-835.52 569.46,-810.59 644,-743.27 680.48,-710.32 713.13,-661 726.42,-639.69"/>
<polygon fill="#9a32cd" stroke="#9a32cd" points="62.02,-824.03 51.43,-823.99 59.69,-830.62 62.02,-824.03"/>
</a>
</g>
<text text-anchor="middle" x="394.38" y="-940.77" font-family="Helvetica,sans-Serif" font-size="10.00" fill="grey"> NO_SORTING</text>
<text text-anchor="middle" x="394.38" y="-928.77" font-family="Helvetica,sans-Serif" font-size="10.00" fill="grey">geomLevel</text>
<text text-anchor="middle" x="394.38" y="-916.77" font-family="Helvetica,sans-Serif" font-size="10.00" fill="grey">hierLevel</text>
<text text-anchor="start" x="336.25" y="-904.77" font-family="Helvetica,sans-Serif" font-size="10.00" fill="grey">m_CurrentSettingAlternate</text>
<text text-anchor="middle" x="394.38" y="-892.77" font-family="Helvetica,sans-Serif" font-size="10.00" fill="grey">KeyIndex</text>
<text text-anchor="middle" x="394.38" y="-880.77" font-family="Helvetica,sans-Serif" font-size="10.00" fill="grey">m_CurrentSettingKeyIndex</text>
</g>
<!-- Node11 -->
<g id="Node000011" class="node">
<title>Node11</title>
<g id="a_Node000011"><a xlink:href="../../d3/d0c/class_p_c_o_handler_stats.html" target="_top" xlink:title=" ">
<polygon fill="white" stroke="#666666" points="441,-982.27 347.75,-982.27 347.75,-962.27 441,-962.27 441,-982.27"/>
<text text-anchor="middle" x="394.38" y="-968.77" font-family="Helvetica,sans-Serif" font-size="10.00">PCOHandlerStats</text>
</a>
</g>
</g>
<!-- Node4&#45;&gt;Node11 -->
<g id="edge33_Node000011_Node000004" class="edge">
<title>Node4&#45;&gt;Node11</title>
<g id="a_edge33_Node000011_Node000004"><a xlink:title=" ">
<path fill="none" stroke="#9a32cd" stroke-dasharray="5,2" d="M30.84,-835.87C36.48,-855.39 47.61,-883.42 67.75,-899.27 150.27,-964.21 279.17,-973.79 347.41,-973.85"/>
<polygon fill="#9a32cd" stroke="#9a32cd" points="34.24,-835 28.34,-826.2 27.46,-836.76 34.24,-835"/>
</a>
</g>
<text text-anchor="middle" x="125.88" y="-955.77" font-family="Helvetica,sans-Serif" font-size="10.00" fill="grey"> m_HighestVersion</text>
</g>
<!-- Node5&#45;&gt;Node2 -->
<g id="edge4_Node000002_Node000005" class="edge">
<title>Node5&#45;&gt;Node2</title>
<g id="a_edge4_Node000002_Node000005"><a xlink:title=" ">
<path fill="none" stroke="#9a32cd" stroke-dasharray="5,2" d="M290.51,-456.76C299.43,-454.42 309.26,-451.8 318.25,-449.27 460.53,-409.32 628.95,-357.53 699.28,-335.7"/>
<polygon fill="#9a32cd" stroke="#9a32cd" points="289.7,-453.35 280.9,-459.25 291.46,-460.13 289.7,-453.35"/>
</a>
</g>
<text text-anchor="middle" x="513.75" y="-406.77" font-family="Helvetica,sans-Serif" font-size="10.00" fill="grey"> proxyInfo</text>
</g>
<!-- Node5&#45;&gt;Node5 -->
<g id="edge7_Node000005_Node000005" class="edge">
<title>Node5&#45;&gt;Node5</title>
<g id="a_edge7_Node000005_Node000005"><a xlink:title=" ">
<path fill="none" stroke="#9a32cd" stroke-dasharray="5,2" d="M235.01,-482.62C235.8,-488.05 244.17,-492.27 260.12,-492.27 285.03,-492.27 291.46,-481.99 279.39,-472.87"/>
<polygon fill="#9a32cd" stroke="#9a32cd" points="237.94,-484.55 240.08,-474.17 231.94,-480.95 237.94,-484.55"/>
</a>
</g>
<text text-anchor="middle" x="260.12" y="-494.77" font-family="Helvetica,sans-Serif" font-size="10.00" fill="grey"> proxyInfo</text>
</g>
<!-- Node5&#45;&gt;Node9 -->
<g id="edge15_Node000009_Node000005" class="edge">
<title>Node5&#45;&gt;Node9</title>
<g id="a_edge15_Node000009_Node000005"><a xlink:title=" ">
<path fill="none" stroke="#9a32cd" stroke-dasharray="5,2" d="M290.65,-463.3C304.49,-462.9 321.22,-462.47 336.25,-462.27 387.91,-461.58 400.84,-461.41 452.5,-462.27 458.26,-462.37 464.32,-462.51 470.29,-462.68"/>
<polygon fill="#9a32cd" stroke="#9a32cd" points="290.74,-459.8 280.85,-463.6 290.95,-466.8 290.74,-459.8"/>
</a>
</g>
<text text-anchor="middle" x="394.38" y="-464.77" font-family="Helvetica,sans-Serif" font-size="10.00" fill="grey"> proxyInfo</text>
</g>
<!-- Node5&#45;&gt;Node10 -->
<g id="edge27_Node000010_Node000005" class="edge">
<title>Node5&#45;&gt;Node10</title>
<g id="a_edge27_Node000010_Node000005"><a xlink:title=" ">
<path fill="none" stroke="#9a32cd" stroke-dasharray="5,2" d="M289.89,-477.13C303.8,-483.19 320.78,-490.36 336.25,-496.27 468.51,-546.79 629.34,-597.52 698.47,-618.82"/>
<polygon fill="#9a32cd" stroke="#9a32cd" points="291.44,-473.98 280.88,-473.16 288.62,-480.39 291.44,-473.98"/>
</a>
</g>
<text text-anchor="middle" x="513.75" y="-575.77" font-family="Helvetica,sans-Serif" font-size="10.00" fill="grey"> proxyInfo</text>
</g>
<!-- Node6 -->
<g id="Node000006" class="node">
<title>Node6</title>
<g id="a_Node000006"><a xlink:href="../../d4/d04/class_class.html" target="_top" xlink:title="Super root of all classes in Enforce script.">
<polygon fill="white" stroke="#666666" points="45.25,-374.27 4.5,-374.27 4.5,-354.27 45.25,-354.27 45.25,-374.27"/>
<text text-anchor="middle" x="24.88" y="-360.77" font-family="Helvetica,sans-Serif" font-size="10.00">Class</text>
</a>
</g>
</g>
<!-- Node6&#45;&gt;Node2 -->
<g id="edge20_Node000002_Node000006" class="edge">
<title>Node6&#45;&gt;Node2</title>
<g id="a_edge20_Node000002_Node000006"><a xlink:title=" ">
<path fill="none" stroke="#9a32cd" stroke-dasharray="5,2" d="M30.64,-342.9C36.19,-323 47.33,-293.96 67.75,-277.27 163.07,-199.38 214.09,-224.5 336.25,-209.27 472.29,-192.31 521.42,-168.88 644,-230.27 683.35,-249.98 714.25,-294.78 726.74,-315.02"/>
<polygon fill="#9a32cd" stroke="#9a32cd" points="27.28,-341.9 28.24,-352.46 34.07,-343.61 27.28,-341.9"/>
</a>
</g>
<text text-anchor="middle" x="394.38" y="-211.77" font-family="Helvetica,sans-Serif" font-size="10.00" fill="grey"> m_Instance</text>
</g>
<!-- Node6&#45;&gt;Node5 -->
<g id="edge8_Node000005_Node000006" class="edge">
<title>Node6&#45;&gt;Node5</title>
<g id="a_edge8_Node000005_Node000006"><a xlink:title=" ">
<path fill="none" stroke="#9a32cd" stroke-dasharray="5,2" d="M50.46,-380.59C56.03,-383.99 62.01,-387.41 67.75,-390.27 129.12,-420.86 206.41,-447.29 240.97,-458.52"/>
<polygon fill="#9a32cd" stroke="#9a32cd" points="52.59,-377.8 42.27,-375.42 48.86,-383.72 52.59,-377.8"/>
</a>
</g>
<text text-anchor="middle" x="125.88" y="-439.77" font-family="Helvetica,sans-Serif" font-size="10.00" fill="grey"> m_Instance</text>
</g>
<!-- Node6&#45;&gt;Node9 -->
<g id="edge16_Node000009_Node000006" class="edge">
<title>Node6&#45;&gt;Node9</title>
<g id="a_edge16_Node000009_Node000006"><a xlink:title=" ">
<path fill="none" stroke="#9a32cd" stroke-dasharray="5,2" d="M56.91,-365.28C128.56,-368.4 310.25,-380.97 452.5,-430.27 469.07,-436.01 486.34,-446.26 498.11,-454.01"/>
<polygon fill="#9a32cd" stroke="#9a32cd" points="57.25,-361.79 47.12,-364.88 56.97,-368.78 57.25,-361.79"/>
</a>
</g>
<text text-anchor="middle" x="260.12" y="-395.77" font-family="Helvetica,sans-Serif" font-size="10.00" fill="grey"> m_Instance</text>
</g>
<!-- Node6&#45;&gt;Node10 -->
<g id="edge28_Node000010_Node000006" class="edge">
<title>Node6&#45;&gt;Node10</title>
<g id="a_edge28_Node000010_Node000006"><a xlink:title=" ">
<path fill="none" stroke="#9a32cd" stroke-dasharray="5,2" d="M56.84,-360.99C157.27,-350.94 472.38,-324.24 557,-375.27 570.97,-383.7 566.26,-393.49 575,-407.27 602.6,-450.8 697.59,-581.18 725.18,-618.93"/>
<polygon fill="#9a32cd" stroke="#9a32cd" points="56.79,-357.48 47.19,-361.97 57.5,-364.44 56.79,-357.48"/>
</a>
</g>
<text text-anchor="middle" x="394.38" y="-350.77" font-family="Helvetica,sans-Serif" font-size="10.00" fill="grey"> m_Instance</text>
</g>
<!-- Node7 -->
<g id="Node000007" class="node">
<title>Node7</title>
<g id="a_Node000007"><a xlink:href="../../d5/d02/classstring.html" target="_top" xlink:title=" ">
<polygon fill="white" stroke="#666666" points="44.88,-178.27 4.88,-178.27 4.88,-158.27 44.88,-158.27 44.88,-178.27"/>
<text text-anchor="middle" x="24.88" y="-164.77" font-family="Helvetica,sans-Serif" font-size="10.00">string</text>
</a>
</g>
</g>
<!-- Node7&#45;&gt;Node1 -->
<g id="edge36_Node000001_Node000007" class="edge">
<title>Node7&#45;&gt;Node1</title>
<g id="a_edge36_Node000001_Node000007"><a xlink:title=" ">
<path fill="none" stroke="#9a32cd" stroke-dasharray="5,2" d="M41.94,-149.88C49.14,-142.72 58.17,-135.09 67.75,-130.27 145.2,-91.27 172.41,-92.27 259.12,-92.27 259.12,-92.27 259.12,-92.27 734.75,-92.27 824.76,-92.27 920.23,-154.5 955.3,-179.78"/>
<polygon fill="#9a32cd" stroke="#9a32cd" points="39.75,-147.1 35.43,-156.77 44.84,-151.9 39.75,-147.1"/>
</a>
</g>
<text text-anchor="middle" x="513.75" y="-94.77" font-family="Helvetica,sans-Serif" font-size="10.00" fill="grey"> m_System</text>
</g>
<!-- Node7&#45;&gt;Node2 -->
<g id="edge21_Node000002_Node000007" class="edge">
<title>Node7&#45;&gt;Node2</title>
<g id="a_edge21_Node000002_Node000007"><a xlink:title=" ">
<path fill="none" stroke="#9a32cd" stroke-dasharray="5,2" d="M55.87,-156.96C59.82,-155.85 63.85,-154.91 67.75,-154.27 321.24,-113.02 424.77,-63.49 644,-197.27 691.09,-226.01 719.49,-290.23 729.08,-315.13"/>
<polygon fill="#9a32cd" stroke="#9a32cd" points="55.05,-153.55 46.59,-159.92 57.18,-160.22 55.05,-153.55"/>
</a>
</g>
<text text-anchor="middle" x="394.38" y="-118.77" font-family="Helvetica,sans-Serif" font-size="10.00" fill="grey"> m_Test</text>
</g>
<!-- Node7&#45;&gt;Node5 -->
<g id="edge9_Node000005_Node000007" class="edge">
<title>Node7&#45;&gt;Node5</title>
<g id="a_edge9_Node000005_Node000007"><a xlink:title=" ">
<path fill="none" stroke="#9a32cd" stroke-dasharray="5,2" d="M32.09,-189.52C38.8,-210.3 50.84,-242.23 67.75,-266.27 108.32,-323.95 147.49,-313.94 184,-374.27 199.74,-400.28 181.96,-417.41 202,-440.27 212,-451.68 228.31,-457.8 240.95,-461"/>
<polygon fill="#9a32cd" stroke="#9a32cd" points="35.49,-188.69 29.2,-180.17 28.8,-190.75 35.49,-188.69"/>
</a>
</g>
<text text-anchor="middle" x="125.88" y="-376.77" font-family="Helvetica,sans-Serif" font-size="10.00" fill="grey"> m_Test</text>
</g>
<!-- Node7&#45;&gt;Node7 -->
<g id="edge10_Node000007_Node000007" class="edge">
<title>Node7&#45;&gt;Node7</title>
<g id="a_edge10_Node000007_Node000007"><a xlink:title=" ">
<path fill="none" stroke="#9a32cd" stroke-dasharray="5,2" d="M7.02,-189.71C9.32,-193.57 15.27,-196.27 24.88,-196.27 42.43,-196.27 47.78,-187.25 40.92,-178.61"/>
<polygon fill="#9a32cd" stroke="#9a32cd" points="10.44,-190.54 8.58,-180.1 3.53,-189.41 10.44,-190.54"/>
</a>
</g>
<text text-anchor="middle" x="24.88" y="-198.77" font-family="Helvetica,sans-Serif" font-size="10.00" fill="grey"> Empty</text>
</g>
<!-- Node7&#45;&gt;Node9 -->
<g id="edge17_Node000009_Node000007" class="edge">
<title>Node7&#45;&gt;Node9</title>
<g id="a_edge17_Node000009_Node000007"><a xlink:title=" ">
<path fill="none" stroke="#9a32cd" stroke-dasharray="5,2" d="M55.3,-183C109.66,-209.75 229.99,-266.83 336.25,-302.27 386.66,-319.09 415.66,-291.97 452.5,-330.27 480.78,-359.67 451.62,-384.11 470.5,-420.27 477.46,-433.6 489.7,-445.68 499.22,-453.8"/>
<polygon fill="#9a32cd" stroke="#9a32cd" points="56.9,-179.89 46.39,-178.59 53.8,-186.16 56.9,-179.89"/>
</a>
</g>
<text text-anchor="middle" x="260.12" y="-297.77" font-family="Helvetica,sans-Serif" font-size="10.00" fill="grey"> m_Test</text>
</g>
<!-- Node7&#45;&gt;Node10 -->
<g id="edge29_Node000010_Node000007" class="edge">
<title>Node7&#45;&gt;Node10</title>
<g id="a_edge29_Node000010_Node000007"><a xlink:title=" ">
<path fill="none" stroke="#9a32cd" stroke-dasharray="5,2" d="M56.35,-169.56C88.43,-171.38 140.25,-175.63 184,-185.27 292.26,-209.13 571.69,-294.25 644,-378.27 709.42,-454.29 727.7,-581.78 731.75,-618.86"/>
<polygon fill="#9a32cd" stroke="#9a32cd" points="56.76,-166.08 46.59,-169.05 56.4,-173.07 56.76,-166.08"/>
</a>
</g>
<text text-anchor="middle" x="394.38" y="-269.77" font-family="Helvetica,sans-Serif" font-size="10.00" fill="grey"> m_Test</text>
</g>
<!-- Node8 -->
<g id="Node000008" class="node">
<title>Node8</title>
<g id="a_Node000008"><a xlink:href="../../dd/d0a/class_widget.html" target="_top" xlink:title=" ">
<polygon fill="white" stroke="#666666" points="48.25,-468.27 1.5,-468.27 1.5,-448.27 48.25,-448.27 48.25,-468.27"/>
<text text-anchor="middle" x="24.88" y="-454.77" font-family="Helvetica,sans-Serif" font-size="10.00">Widget</text>
</a>
</g>
</g>
<!-- Node8&#45;&gt;Node2 -->
<g id="edge22_Node000002_Node000008" class="edge">
<title>Node8&#45;&gt;Node2</title>
<g id="a_edge22_Node000002_Node000008"><a xlink:title=" ">
<path fill="none" stroke="#9a32cd" stroke-dasharray="5,2" d="M32.98,-437.54C37.98,-422.56 44.68,-401.78 49.75,-383.27 59.15,-348.96 39.91,-327.42 67.75,-305.27 113.6,-268.8 504.41,-302.69 664.65,-318.33"/>
<polygon fill="#9a32cd" stroke="#9a32cd" points="29.76,-436.13 29.87,-446.73 36.39,-438.37 29.76,-436.13"/>
</a>
</g>
<text text-anchor="middle" x="394.38" y="-301.77" font-family="Helvetica,sans-Serif" font-size="10.00" fill="grey"> m_Root</text>
</g>
<!-- Node8&#45;&gt;Node5 -->
<g id="edge11_Node000005_Node000008" class="edge">
<title>Node8&#45;&gt;Node5</title>
<g id="a_edge11_Node000005_Node000008"><a xlink:title=" ">
<path fill="none" stroke="#9a32cd" stroke-dasharray="5,2" d="M59.65,-468.81C62.37,-469.4 65.1,-469.9 67.75,-470.27 130.79,-479.12 206.6,-471.38 240.81,-466.91"/>
<polygon fill="#9a32cd" stroke="#9a32cd" points="60.68,-465.46 50.13,-466.42 58.97,-472.25 60.68,-465.46"/>
</a>
</g>
<text text-anchor="middle" x="125.88" y="-476.77" font-family="Helvetica,sans-Serif" font-size="10.00" fill="grey"> m_Root</text>
</g>
<!-- Node8&#45;&gt;Node9 -->
<g id="edge18_Node000009_Node000008" class="edge">
<title>Node8&#45;&gt;Node9</title>
<g id="a_edge18_Node000009_Node000008"><a xlink:title=" ">
<path fill="none" stroke="#9a32cd" stroke-dasharray="5,2" d="M53.76,-443.05C58.32,-441.12 63.09,-439.42 67.75,-438.27 125.73,-424 142.3,-434.38 202,-433.27 253.66,-432.31 266.74,-429.19 318.25,-433.27 370.91,-437.44 430.85,-447.87 470.11,-455.48"/>
<polygon fill="#9a32cd" stroke="#9a32cd" points="52.54,-439.75 44.99,-447.18 55.52,-446.09 52.54,-439.75"/>
</a>
</g>
<text text-anchor="middle" x="260.12" y="-435.77" font-family="Helvetica,sans-Serif" font-size="10.00" fill="grey"> m_Root</text>
</g>
<!-- Node8&#45;&gt;Node10 -->
<g id="edge30_Node000010_Node000008" class="edge">
<title>Node8&#45;&gt;Node10</title>
<g id="a_edge30_Node000010_Node000008"><a xlink:title=" ">
<path fill="none" stroke="#9a32cd" stroke-dasharray="5,2" d="M27.86,-479.86C31.39,-505.46 41.12,-547.62 67.75,-571.27 107.49,-606.56 147.03,-561.09 184,-599.27 211.47,-627.64 171.38,-661.34 202,-686.27 277.73,-747.93 588.47,-669.44 695.96,-639.76"/>
<polygon fill="#9a32cd" stroke="#9a32cd" points="31.34,-479.51 26.72,-469.97 24.39,-480.31 31.34,-479.51"/>
</a>
</g>
<text text-anchor="middle" x="394.38" y="-710.77" font-family="Helvetica,sans-Serif" font-size="10.00" fill="grey"> m_Root</text>
</g>
<!-- Node9&#45;&gt;Node2 -->
<g id="edge23_Node000002_Node000009" class="edge">
<title>Node9&#45;&gt;Node2</title>
<g id="a_edge23_Node000002_Node000009"><a xlink:title=" ">
<path fill="none" stroke="#9a32cd" stroke-dasharray="5,2" d="M540.58,-447.8C586.01,-418.84 678.93,-359.59 716.47,-335.65"/>
<polygon fill="#9a32cd" stroke="#9a32cd" points="538.96,-444.68 532.41,-453.01 542.73,-450.58 538.96,-444.68"/>
</a>
</g>
<text text-anchor="middle" x="609.5" y="-424.77" font-family="Helvetica,sans-Serif" font-size="10.00" fill="grey"> m_Subgroups</text>
</g>
<!-- Node9&#45;&gt;Node5 -->
<g id="edge12_Node000005_Node000009" class="edge">
<title>Node9&#45;&gt;Node5</title>
<g id="a_edge12_Node000005_Node000009"><a xlink:title=" ">
<path fill="none" stroke="#9a32cd" stroke-dasharray="5,2" d="M459.05,-476.46C456.85,-476.77 454.65,-477.04 452.5,-477.27 401.12,-482.75 387.73,-481.69 336.25,-477.27 316.6,-475.58 294.37,-471.46 279.23,-468.3"/>
<polygon fill="#9a32cd" stroke="#9a32cd" points="459.35,-479.95 468.65,-474.88 458.22,-473.05 459.35,-479.95"/>
</a>
</g>
<text text-anchor="middle" x="394.38" y="-482.77" font-family="Helvetica,sans-Serif" font-size="10.00" fill="grey"> m_Subgroups</text>
</g>
<!-- Node9&#45;&gt;Node9 -->
<g id="edge19_Node000009_Node000009" class="edge">
<title>Node9&#45;&gt;Node9</title>
<g id="a_edge19_Node000009_Node000009"><a xlink:title=" ">
<path fill="none" stroke="#9a32cd" stroke-dasharray="5,2" d="M496.83,-485.71C499.01,-489.57 504.65,-492.27 513.75,-492.27 530.39,-492.27 535.47,-483.25 528.96,-474.61"/>
<polygon fill="#9a32cd" stroke="#9a32cd" points="500.24,-486.52 498.31,-476.11 493.32,-485.46 500.24,-486.52"/>
</a>
</g>
<text text-anchor="middle" x="513.75" y="-494.77" font-family="Helvetica,sans-Serif" font-size="10.00" fill="grey"> m_Subgroups</text>
</g>
<!-- Node9&#45;&gt;Node10 -->
<g id="edge31_Node000010_Node000009" class="edge">
<title>Node9&#45;&gt;Node10</title>
<g id="a_edge31_Node000010_Node000009"><a xlink:title=" ">
<path fill="none" stroke="#9a32cd" stroke-dasharray="5,2" d="M537.4,-481.41C582.57,-515.6 682.65,-591.35 719.12,-618.95"/>
<polygon fill="#9a32cd" stroke="#9a32cd" points="539.68,-478.75 529.59,-475.51 535.46,-484.33 539.68,-478.75"/>
</a>
</g>
<text text-anchor="middle" x="609.5" y="-563.77" font-family="Helvetica,sans-Serif" font-size="10.00" fill="grey"> m_Subgroups</text>
</g>
<!-- Node10&#45;&gt;Node1 -->
<g id="edge24_Node000001_Node000010" class="edge">
<title>Node10&#45;&gt;Node1</title>
<g id="a_edge24_Node000001_Node000010"><a xlink:title=" ">
<path fill="none" stroke="#9a32cd" stroke-dasharray="5,2" d="M745.95,-609C774.93,-556.43 854.61,-411.32 918.75,-289.27 935.62,-257.16 954.95,-218.82 964.03,-200.72"/>
<polygon fill="#9a32cd" stroke="#9a32cd" points="742.91,-607.26 741.14,-617.7 749.04,-610.64 742.91,-607.26"/>
</a>
</g>
<text text-anchor="middle" x="871.12" y="-467.77" font-family="Helvetica,sans-Serif" font-size="10.00" fill="grey"> m_PlayerStatsDebug</text>
</g>
<!-- Node11&#45;&gt;Node1 -->
<g id="edge32_Node000001_Node000011" class="edge">
<title>Node11&#45;&gt;Node1</title>
<g id="a_edge32_Node000001_Node000011"><a xlink:title=" ">
<path fill="none" stroke="#9a32cd" stroke-dasharray="5,2" d="M452.5,-967.03C506.49,-959.6 587.41,-941.76 644,-899.27 821.77,-765.78 836.98,-688 918.75,-481.27 959.86,-377.33 967.58,-239.39 968.96,-200.73"/>
<polygon fill="#9a32cd" stroke="#9a32cd" points="452.38,-963.52 442.91,-968.27 453.28,-970.46 452.38,-963.52"/>
</a>
</g>
<text text-anchor="middle" x="609.5" y="-937.77" font-family="Helvetica,sans-Serif" font-size="10.00" fill="grey"> m_PCOhandler</text>
</g>
<!-- Node12 -->
<g id="Node000012" class="node">
<title>Node12</title>
<g id="a_Node000012"><a xlink:href="../../d8/d08/class_timer.html" target="_top" xlink:title=" ">
<polygon fill="white" stroke="#666666" points="753.75,-64.27 713.75,-64.27 713.75,-44.27 753.75,-44.27 753.75,-64.27"/>
<text text-anchor="middle" x="733.75" y="-50.77" font-family="Helvetica,sans-Serif" font-size="10.00">Timer</text>
</a>
</g>
</g>
<!-- Node12&#45;&gt;Node1 -->
<g id="edge34_Node000001_Node000012" class="edge">
<title>Node12&#45;&gt;Node1</title>
<g id="a_edge34_Node000001_Node000012"><a xlink:title=" ">
<path fill="none" stroke="#9a32cd" stroke-dasharray="5,2" d="M765.38,-47.15C804.8,-39.86 873.56,-33.7 918.75,-66.27 957.03,-93.86 966.35,-155.67 968.57,-180.07"/>
<polygon fill="#9a32cd" stroke="#9a32cd" points="764.75,-43.71 755.64,-49.11 766.13,-50.57 764.75,-43.71"/>
</a>
</g>
<text text-anchor="middle" x="871.12" y="-68.77" font-family="Helvetica,sans-Serif" font-size="10.00" fill="grey"> m_SyncTimer</text>
</g>
<!-- Node13 -->
<g id="Node000013" class="node">
<title>Node13</title>
<g id="a_Node000013"><a xlink:href="../../d9/d09/classbool.html" target="_top" xlink:title=" ">
<polygon fill="white" stroke="#666666" points="750.75,-26.27 716.75,-26.27 716.75,-6.27 750.75,-6.27 750.75,-26.27"/>
<text text-anchor="middle" x="733.75" y="-12.77" font-family="Helvetica,sans-Serif" font-size="10.00">bool</text>
</a>
</g>
</g>
<!-- Node13&#45;&gt;Node1 -->
<g id="edge35_Node000001_Node000013" class="edge">
<title>Node13&#45;&gt;Node1</title>
<g id="a_edge35_Node000001_Node000013"><a xlink:title=" ">
<path fill="none" stroke="#9a32cd" stroke-dasharray="5,2" d="M762.13,-8.75C801.26,0.23 873.46,9.98 918.75,-25.27 968.4,-63.91 970.57,-150.19 969.75,-179.95"/>
<polygon fill="#9a32cd" stroke="#9a32cd" points="761.45,-5.31 752.58,-11.1 763.13,-12.11 761.45,-5.31"/>
</a>
</g>
<text text-anchor="middle" x="871.12" y="-27.77" font-family="Helvetica,sans-Serif" font-size="10.00" fill="grey"> m_AllowLogs</text>
</g>
</g>
</svg>

<g id="navigator" transform="translate(0 0)" fill="#404254">
  <rect fill="#f2f5e9" fill-opacity="0.5" stroke="#606060" stroke-width=".5" x="0" y="0" width="60" height="60"/>
  <use id="zoomplus" xlink:href="#zoomPlus" x="17" y="9" onmousedown="handleZoom(evt,'in')"/>
  <use id="zoomminus" xlink:href="#zoomMin" x="42" y="9" onmousedown="handleZoom(evt,'out')"/>
  <use id="reset" xlink:href="#resetDef" x="30" y="36" onmousedown="handleReset()"/>
   <use id="arrowup" xlink:href="#arrowUp" x="0" y="0" onmousedown="handlePan(0,-1)"/>
  <use id="arrowright" xlink:href="#arrowRight" x="0" y="0" onmousedown="handlePan(1,0)"/>
  <use id="arrowdown" xlink:href="#arrowDown" x="0" y="0" onmousedown="handlePan(0,1)"/>
  <use id="arrowleft" xlink:href="#arrowLeft" x="0" y="0" onmousedown="handlePan(-1,0)"/>
</g>
<svg viewBox="0 0 15 15" width="100%" height="30px" preserveAspectRatio="xMaxYMin meet">
 <g id="arrow_out" transform="scale(0.3 0.3)">
  <a xlink:href="class_player_stats__coll__graph_org.svg" target="_base">
   <rect id="button" ry="5" rx="5" y="6" x="6" height="38" width="38"
        fill="#f2f5e9" fill-opacity="0.5" stroke="#606060" stroke-width="1.0"/>
   <path id="arrow"
     d="M 11.500037,31.436501 C 11.940474,20.09759 22.043105,11.32322 32.158766,21.979434 L 37.068811,17.246167 C 37.068811,17.246167 37.088388,32 37.088388,32 L 22.160133,31.978069 C 22.160133,31.978069 26.997745,27.140456 26.997745,27.140456 C 18.528582,18.264221 13.291696,25.230495 11.500037,31.436501 z"
     style="fill:#404040;"/>
  </a>
 </g>
</svg>

<style type='text/css'>
<![CDATA[
[data-mouse-over-selected='false'] { opacity: 0.7; }
[data-mouse-over-selected='true']  { opacity: 1.0; }
]]>
</style>
<script type="application/ecmascript"><![CDATA[
document.addEventListener('DOMContentLoaded', (event) => {
  highlightEdges();
  highlightAdjacentNodes();
});
]]></script>
</svg>
