<?xml version="1.0" encoding="UTF-8" standalone="no"?>
<!DOCTYPE svg PUBLIC "-//W3C//DTD SVG 1.1//EN"
 "http://www.w3.org/Graphics/SVG/1.1/DTD/svg11.dtd">
<!-- Generated by graphviz version 11.0.0 (20240428.1522)
 -->
<!-- Title: AlarmClock_ColorBase Pages: 1 -->
<svg width="321pt" height="140pt"
 viewBox="0.00 0.00 320.88 140.00" xmlns="http://www.w3.org/2000/svg" xmlns:xlink="http://www.w3.org/1999/xlink">
<g id="graph0" class="graph" transform="scale(1 1) rotate(0) translate(4 136)">
<title>AlarmClock_ColorBase</title>
<!-- Node1 -->
<g id="Node000001" class="node">
<title>Node1</title>
<g id="a_Node000001"><a xlink:title=" ">
<polygon fill="#999999" stroke="#666666" points="215.75,-76 99.25,-76 99.25,-56 215.75,-56 215.75,-76"/>
<text text-anchor="middle" x="157.5" y="-62.5" font-family="Helvetica,sans-Serif" font-size="10.00">AlarmClock_ColorBase</text>
</a>
</g>
</g>
<!-- Node3 -->
<g id="Node000003" class="node">
<title>Node3</title>
<g id="a_Node000003"><a xlink:href="../../df/d0c/class_alarm_clock___blue.html" target="_top" xlink:title=" ">
<polygon fill="white" stroke="#666666" points="91,-20 0,-20 0,0 91,0 91,-20"/>
<text text-anchor="middle" x="45.5" y="-6.5" font-family="Helvetica,sans-Serif" font-size="10.00">AlarmClock_Blue</text>
</a>
</g>
</g>
<!-- Node1&#45;&gt;Node3 -->
<g id="edge2_Node000001_Node000003" class="edge">
<title>Node1&#45;&gt;Node3</title>
<g id="a_edge2_Node000001_Node000003"><a xlink:title=" ">
<path fill="none" stroke="#8b1a1a" d="M127.66,-50.61C107.87,-41.07 82.45,-28.81 65.16,-20.48"/>
<polygon fill="#8b1a1a" stroke="#8b1a1a" points="126.1,-53.75 136.63,-54.94 129.14,-47.44 126.1,-53.75"/>
</a>
</g>
</g>
<!-- Node4 -->
<g id="Node000004" class="node">
<title>Node4</title>
<g id="a_Node000004"><a xlink:href="../../de/d06/class_alarm_clock___green.html" target="_top" xlink:title=" ">
<polygon fill="white" stroke="#666666" points="206.38,-20 108.62,-20 108.62,0 206.38,0 206.38,-20"/>
<text text-anchor="middle" x="157.5" y="-6.5" font-family="Helvetica,sans-Serif" font-size="10.00">AlarmClock_Green</text>
</a>
</g>
</g>
<!-- Node1&#45;&gt;Node4 -->
<g id="edge3_Node000001_Node000004" class="edge">
<title>Node1&#45;&gt;Node4</title>
<g id="a_edge3_Node000001_Node000004"><a xlink:title=" ">
<path fill="none" stroke="#8b1a1a" d="M157.5,-44.13C157.5,-35.9 157.5,-26.85 157.5,-20.3"/>
<polygon fill="#8b1a1a" stroke="#8b1a1a" points="154,-44.08 157.5,-54.08 161,-44.08 154,-44.08"/>
</a>
</g>
</g>
<!-- Node5 -->
<g id="Node000005" class="node">
<title>Node5</title>
<g id="a_Node000005"><a xlink:href="../../da/d00/class_alarm_clock___red.html" target="_top" xlink:title=" ">
<polygon fill="white" stroke="#666666" points="312.88,-20 224.12,-20 224.12,0 312.88,0 312.88,-20"/>
<text text-anchor="middle" x="268.5" y="-6.5" font-family="Helvetica,sans-Serif" font-size="10.00">AlarmClock_Red</text>
</a>
</g>
</g>
<!-- Node1&#45;&gt;Node5 -->
<g id="edge4_Node000001_Node000005" class="edge">
<title>Node1&#45;&gt;Node5</title>
<g id="a_edge4_Node000001_Node000005"><a xlink:title=" ">
<path fill="none" stroke="#8b1a1a" d="M187.07,-50.61C206.69,-41.07 231.88,-28.81 249.01,-20.48"/>
<polygon fill="#8b1a1a" stroke="#8b1a1a" points="185.66,-47.41 178.2,-54.93 188.72,-53.7 185.66,-47.41"/>
</a>
</g>
</g>
<!-- Node2 -->
<g id="Node000002" class="node">
<title>Node2</title>
<g id="a_Node000002"><a xlink:title=" ">
<polygon fill="white" stroke="#666666" points="189.12,-132 125.88,-132 125.88,-112 189.12,-112 189.12,-132"/>
<text text-anchor="middle" x="157.5" y="-118.5" font-family="Helvetica,sans-Serif" font-size="10.00">ClockBase</text>
</a>
</g>
</g>
<!-- Node2&#45;&gt;Node1 -->
<g id="edge1_Node000001_Node000002" class="edge">
<title>Node2&#45;&gt;Node1</title>
<g id="a_edge1_Node000001_Node000002"><a xlink:title=" ">
<path fill="none" stroke="#8b1a1a" d="M157.5,-100.13C157.5,-91.9 157.5,-82.85 157.5,-76.3"/>
<polygon fill="#8b1a1a" stroke="#8b1a1a" points="154,-100.08 157.5,-110.08 161,-100.08 154,-100.08"/>
</a>
</g>
</g>
</g>
</svg>
