<?xml version="1.0" encoding="UTF-8" standalone="no"?>
<!DOCTYPE svg PUBLIC "-//W3C//DTD SVG 1.1//EN"
 "http://www.w3.org/Graphics/SVG/1.1/DTD/svg11.dtd">
<!-- Generated by graphviz version 11.0.0 (20240428.1522)
 -->
<!-- Title: PPEGodRays Pages: 1 -->
<!--zoomable 467 -->

<svg id="main" version="1.1" xmlns="http://www.w3.org/2000/svg" xmlns:xlink="http://www.w3.org/1999/xlink" xml:space="preserve" onload="init(evt)">
<style type="text/css"><![CDATA[
.node, .edge {opacity: 0.7;}
.node.selected, .edge.selected {opacity: 1;}
.edge:hover path { stroke: red; }
.edge:hover polygon { stroke: red; fill: red; }
]]></style>

<defs>
  <circle id="rim" cx="0" cy="0" r="7"/>
  <circle id="rim2" cx="0" cy="0" r="3.5"/>
  <g id="zoomPlus">
    <use xlink:href="#rim" fill="#404040"><set attributeName="fill" to="#808080" begin="zoomplus.mouseover" end="zoomplus.mouseout"/></use>
    <path d="M-4,0h8M0,-4v8" fill="none" stroke="white" stroke-width="1.5" pointer-events="none"/>
  </g>
  <g id="zoomMin">
    <use xlink:href="#rim" fill="#404040"><set attributeName="fill" to="#808080" begin="zoomminus.mouseover" end="zoomminus.mouseout"/></use>
    <path d="M-4,0h8" fill="none" stroke="white" stroke-width="1.5" pointer-events="none"/>
  </g>
  <g id="arrowUp" transform="translate(30 24)">
    <use xlink:href="#rim"/>
    <path pointer-events="none" fill="none" stroke="white" stroke-width="1.5" d="M0,-3.0v7 M-2.5,-0.5L0,-3.0L2.5,-0.5"/>
  </g>
  <g id="arrowRight" transform="rotate(90) translate(36 -43)">
    <use xlink:href="#rim"/>
    <path pointer-events="none" fill="none" stroke="white" stroke-width="1.5" d="M0,-3.0v7 M-2.5,-0.5L0,-3.0L2.5,-0.5"/>
  </g>
  <g id="arrowDown" transform="rotate(180) translate(-30 -48)">
    <use xlink:href="#rim"/>
    <path pointer-events="none" fill="none" stroke="white" stroke-width="1.5" d="M0,-3.0v7 M-2.5,-0.5L0,-3.0L2.5,-0.5"/>
  </g>
  <g id="arrowLeft" transform="rotate(270) translate(-36 17)">
    <use xlink:href="#rim"/>
    <path pointer-events="none" fill="none" stroke="white" stroke-width="1.5" d="M0,-3.0v7 M-2.5,-0.5L0,-3.0L2.5,-0.5"/>
  </g>
  <g id="resetDef">
    <use xlink:href="#rim2" fill="#404040"><set attributeName="fill" to="#808080" begin="reset.mouseover" end="reset.mouseout"/></use>
  </g>
</defs>
<script type="application/ecmascript">
var viewWidth = 1244;
var viewHeight = 467;
var sectionId = 'dynsection-1';
</script>
<script type="application/ecmascript" xlink:href="../../svg.min.js"/>
<svg id="graph" class="graph">
<g id="viewport">
<title>PPEGodRays</title>
<!-- Node1 -->
<g id="Node000001" class="node">
<title>Node1</title>
<g id="a_Node000001"><a xlink:title="GodRays &#45; PostProcessEffectType.GodRays.">
<polygon fill="#999999" stroke="#666666" points="140.38,-20 63.62,-20 63.62,0 140.38,0 140.38,-20"/>
<text text-anchor="middle" x="102" y="-6.5" font-family="Helvetica,sans-Serif" font-size="10.00">PPEGodRays</text>
</a>
</g>
</g>
<!-- Node2 -->
<g id="Node000002" class="node">
<title>Node2</title>
<g id="a_Node000002"><a xlink:href="../../d3/d0f/class_p_p_e_class_base.html" target="_top" xlink:title="Created once, on manager init. Script&#45;side representation of C++ material class, separate handling.">
<polygon fill="white" stroke="#666666" points="331.75,-77 248.25,-77 248.25,-57 331.75,-57 331.75,-77"/>
<text text-anchor="middle" x="290" y="-63.5" font-family="Helvetica,sans-Serif" font-size="10.00">PPEClassBase</text>
</a>
</g>
</g>
<!-- Node2&#45;&gt;Node1 -->
<g id="edge1_Node000001_Node000002" class="edge">
<title>Node2&#45;&gt;Node1</title>
<g id="a_edge1_Node000001_Node000002"><a xlink:title=" ">
<path fill="none" stroke="#8b1a1a" d="M247.03,-53.43C212.7,-43.39 165.34,-29.53 134.21,-20.42"/>
<polygon fill="#8b1a1a" stroke="#8b1a1a" points="245.65,-56.67 256.23,-56.12 247.61,-49.95 245.65,-56.67"/>
</a>
</g>
</g>
<!-- Node3 -->
<g id="Node000003" class="node">
<title>Node3</title>
<g id="a_Node000003"><a xlink:href="../../d5/d02/classstring.html" target="_top" xlink:title=" ">
<polygon fill="white" stroke="#666666" points="1147,-457 1107,-457 1107,-437 1147,-437 1147,-457"/>
<text text-anchor="middle" x="1127" y="-443.5" font-family="Helvetica,sans-Serif" font-size="10.00">string</text>
</a>
</g>
</g>
<!-- Node3&#45;&gt;Node2 -->
<g id="edge2_Node000002_Node000003" class="edge">
<title>Node3&#45;&gt;Node2</title>
<g id="a_edge2_Node000002_Node000003"><a xlink:title=" ">
<path fill="none" stroke="#9a32cd" stroke-dasharray="5,2" d="M1143.4,-427.84C1145.48,-425.01 1147.42,-422.01 1149,-419 1182.83,-354.4 1205.47,-323.25 1175,-257 1140.76,-182.55 1110.47,-168.95 1035,-137 906.56,-82.62 469.35,-70.92 331.79,-68.56"/>
<polygon fill="#9a32cd" stroke="#9a32cd" points="1140.75,-425.55 1137.14,-435.51 1146.17,-429.98 1140.75,-425.55"/>
</a>
</g>
<text text-anchor="middle" x="1200.62" y="-229.5" font-family="Helvetica,sans-Serif" font-size="10.00" fill="grey"> m_MaterialPath</text>
</g>
<!-- Node3&#45;&gt;Node3 -->
<g id="edge3_Node000003_Node000003" class="edge">
<title>Node3&#45;&gt;Node3</title>
<g id="a_edge3_Node000003_Node000003"><a xlink:title=" ">
<path fill="none" stroke="#9a32cd" stroke-dasharray="5,2" d="M1152.77,-458.91C1159.72,-458.28 1165,-454.31 1165,-447 1165,-436.12 1153.3,-432.64 1141.82,-436.55"/>
<polygon fill="#9a32cd" stroke="#9a32cd" points="1153.7,-455.5 1143.32,-457.65 1152.77,-462.44 1153.7,-455.5"/>
</a>
</g>
<text text-anchor="middle" x="1180.75" y="-443.5" font-family="Helvetica,sans-Serif" font-size="10.00" fill="grey"> Empty</text>
</g>
<!-- Node5 -->
<g id="Node000005" class="node">
<title>Node5</title>
<g id="a_Node000005"><a xlink:href="../../d2/d01/classarray.html" target="_top" xlink:title=" ">
<polygon fill="white" stroke="#666666" points="589.75,-183 500.25,-183 500.25,-163 589.75,-163 589.75,-183"/>
<text text-anchor="middle" x="545" y="-169.5" font-family="Helvetica,sans-Serif" font-size="10.00">array&lt; Param3 &gt;</text>
</a>
</g>
</g>
<!-- Node3&#45;&gt;Node5 -->
<g id="edge24_Node000005_Node000003" class="edge">
<title>Node3&#45;&gt;Node5</title>
<g id="a_edge24_Node000005_Node000003"><a xlink:title=" ">
<path fill="none" stroke="#9a32cd" stroke-dasharray="5,2" d="M1123.15,-425.63C1117.76,-402.92 1105.71,-366.8 1081,-347 1051.8,-323.6 1026.22,-354.41 998.75,-329 974.21,-306.3 1002.63,-278.47 977,-257 950.76,-235.02 857.35,-246.74 824,-239 808.39,-235.37 805.42,-231.37 790,-227 721.12,-207.48 639.6,-191.16 590.13,-181.99"/>
<polygon fill="#9a32cd" stroke="#9a32cd" points="1119.68,-426.14 1125.18,-435.19 1126.52,-424.68 1119.68,-426.14"/>
</a>
</g>
<text text-anchor="middle" x="1015.62" y="-289.5" font-family="Helvetica,sans-Serif" font-size="10.00" fill="grey"> m_Test</text>
</g>
<!-- Node7 -->
<g id="Node000007" class="node">
<title>Node7</title>
<g id="a_Node000007"><a xlink:href="../../d2/d01/classarray.html" target="_top" xlink:title="Result for an object found in CGame.IsBoxCollidingGeometryProxy.">
<polygon fill="white" stroke="#666666" points="839.88,-303 802.12,-303 802.12,-283 839.88,-283 839.88,-303"/>
<text text-anchor="middle" x="821" y="-289.5" font-family="Helvetica,sans-Serif" font-size="10.00">array</text>
</a>
</g>
</g>
<!-- Node3&#45;&gt;Node7 -->
<g id="edge13_Node000007_Node000003" class="edge">
<title>Node3&#45;&gt;Node7</title>
<g id="a_edge13_Node000007_Node000003"><a xlink:title=" ">
<path fill="none" stroke="#9a32cd" stroke-dasharray="5,2" d="M1095.92,-439.48C1080.09,-435.24 1061.01,-428.67 1045.75,-419 1008.37,-395.32 1014.87,-369.88 977,-347 952.07,-331.94 941.65,-338.14 914,-329 888.12,-320.45 858.76,-309.12 840.07,-301.7"/>
<polygon fill="#9a32cd" stroke="#9a32cd" points="1094.76,-442.79 1105.31,-441.8 1096.44,-436 1094.76,-442.79"/>
</a>
</g>
<text text-anchor="middle" x="1062.62" y="-379.5" font-family="Helvetica,sans-Serif" font-size="10.00" fill="grey"> m_Test</text>
</g>
<!-- Node10 -->
<g id="Node000010" class="node">
<title>Node10</title>
<g id="a_Node000010"><a xlink:href="../../d2/d01/classarray.html" target="_top" xlink:title=" ">
<polygon fill="white" stroke="#666666" points="945.25,-183 858.75,-183 858.75,-163 945.25,-163 945.25,-183"/>
<text text-anchor="middle" x="902" y="-169.5" font-family="Helvetica,sans-Serif" font-size="10.00">array&lt; Widget &gt;</text>
</a>
</g>
</g>
<!-- Node3&#45;&gt;Node10 -->
<g id="edge20_Node000010_Node000003" class="edge">
<title>Node3&#45;&gt;Node10</title>
<g id="a_edge20_Node000010_Node000003"><a xlink:title=" ">
<path fill="none" stroke="#9a32cd" stroke-dasharray="5,2" d="M1131.64,-425.62C1138.91,-388.16 1148.56,-307.6 1111,-257 1072.02,-204.49 994.58,-185.16 945.69,-178.07"/>
<polygon fill="#9a32cd" stroke="#9a32cd" points="1128.28,-424.57 1129.65,-435.08 1135.13,-426.01 1128.28,-424.57"/>
</a>
</g>
<text text-anchor="middle" x="1153.62" y="-289.5" font-family="Helvetica,sans-Serif" font-size="10.00" fill="grey"> m_Test</text>
</g>
<!-- Node4 -->
<g id="Node000004" class="node">
<title>Node4</title>
<g id="a_Node000004"><a xlink:href="../../db/d06/class_param3.html" target="_top" xlink:title=" ">
<polygon fill="white" stroke="#666666" points="242.88,-457 193.12,-457 193.12,-437 242.88,-437 242.88,-457"/>
<text text-anchor="middle" x="218" y="-443.5" font-family="Helvetica,sans-Serif" font-size="10.00">Param3</text>
</a>
</g>
</g>
<!-- Node4&#45;&gt;Node1 -->
<g id="edge26_Node000001_Node000004" class="edge">
<title>Node4&#45;&gt;Node1</title>
<g id="a_edge26_Node000001_Node000004"><a xlink:title=" ">
<path fill="none" stroke="#9a32cd" stroke-dasharray="5,2" d="M182.16,-438.42C120.29,-423 0,-381.74 0,-294 0,-294 0,-294 0,-66 0,-36.12 34.32,-22.4 63.15,-16.15"/>
<polygon fill="#9a32cd" stroke="#9a32cd" points="180.98,-441.74 191.52,-440.65 182.61,-434.93 180.98,-441.74"/>
</a>
</g>
<text text-anchor="middle" x="72" y="-199.5" font-family="Helvetica,sans-Serif" font-size="10.00" fill="grey"> L_0_GLASSES</text>
<text text-anchor="middle" x="72" y="-187.5" font-family="Helvetica,sans-Serif" font-size="10.00" fill="grey">PARAM_INTENSITY</text>
<text text-anchor="middle" x="72" y="-175.5" font-family="Helvetica,sans-Serif" font-size="10.00" fill="grey">PARAM_OVERBURNEND</text>
<text text-anchor="middle" x="72" y="-163.5" font-family="Helvetica,sans-Serif" font-size="10.00" fill="grey">PARAM_OVERBURNINTENSITY</text>
<text text-anchor="middle" x="72" y="-151.5" font-family="Helvetica,sans-Serif" font-size="10.00" fill="grey">PARAM_OVERBURNSTART</text>
<text text-anchor="middle" x="72" y="-139.5" font-family="Helvetica,sans-Serif" font-size="10.00" fill="grey">PARAM_SUNVISIBLE</text>
</g>
<!-- Node4&#45;&gt;Node2 -->
<g id="edge4_Node000002_Node000004" class="edge">
<title>Node4&#45;&gt;Node2</title>
<g id="a_edge4_Node000002_Node000004"><a xlink:title=" ">
<path fill="none" stroke="#9a32cd" stroke-dasharray="5,2" d="M211.35,-425.87C210.8,-423.57 210.33,-421.25 210,-419 205.41,-387.33 208.94,-378.98 210,-347 211.33,-306.93 208.27,-296.34 216,-257 230.21,-184.74 270.54,-104.49 284.87,-77.47"/>
<polygon fill="#9a32cd" stroke="#9a32cd" points="207.91,-426.59 214.08,-435.2 214.63,-424.62 207.91,-426.59"/>
</a>
</g>
<text text-anchor="middle" x="248.5" y="-229.5" font-family="Helvetica,sans-Serif" font-size="10.00" fill="grey"> m_Material</text>
</g>
<!-- Node4&#45;&gt;Node5 -->
<g id="edge7_Node000005_Node000004" class="edge">
<title>Node4&#45;&gt;Node5</title>
<g id="a_edge7_Node000005_Node000004"><a xlink:title=" ">
<path fill="none" stroke="#9a32cd" stroke-dasharray="5,2" d="M215.47,-425.25C212.02,-386.85 210.55,-304.31 253.75,-257 286.86,-220.75 426.65,-193.22 499.86,-180.98"/>
<polygon fill="#9a32cd" stroke="#9a32cd" points="211.99,-425.59 216.52,-435.16 218.95,-424.85 211.99,-425.59"/>
</a>
</g>
<text text-anchor="middle" x="312.12" y="-319.5" font-family="Helvetica,sans-Serif" font-size="10.00" fill="grey"> NO_SORTING</text>
<text text-anchor="middle" x="312.12" y="-307.5" font-family="Helvetica,sans-Serif" font-size="10.00" fill="grey">geomLevel</text>
<text text-anchor="middle" x="312.12" y="-295.5" font-family="Helvetica,sans-Serif" font-size="10.00" fill="grey">hierLevel</text>
<text text-anchor="start" x="254" y="-283.5" font-family="Helvetica,sans-Serif" font-size="10.00" fill="grey">m_CurrentSettingAlternate</text>
<text text-anchor="middle" x="312.12" y="-271.5" font-family="Helvetica,sans-Serif" font-size="10.00" fill="grey">KeyIndex</text>
<text text-anchor="middle" x="312.12" y="-259.5" font-family="Helvetica,sans-Serif" font-size="10.00" fill="grey">m_CurrentSettingKeyIndex</text>
</g>
<!-- Node4&#45;&gt;Node7 -->
<g id="edge10_Node000007_Node000004" class="edge">
<title>Node4&#45;&gt;Node7</title>
<g id="a_edge10_Node000007_Node000004"><a xlink:title=" ">
<path fill="none" stroke="#9a32cd" stroke-dasharray="5,2" d="M254.54,-445.34C312.72,-443.72 423.29,-438.15 457,-419 491.96,-399.14 476.33,-366.02 511.75,-347 565.95,-317.89 732.34,-355.2 788,-329 799.79,-323.45 809.46,-311.67 815.22,-303.31"/>
<polygon fill="#9a32cd" stroke="#9a32cd" points="254.72,-441.84 244.81,-445.59 254.9,-448.83 254.72,-441.84"/>
</a>
</g>
<text text-anchor="middle" x="569.12" y="-409.5" font-family="Helvetica,sans-Serif" font-size="10.00" fill="grey"> NO_SORTING</text>
<text text-anchor="middle" x="569.12" y="-397.5" font-family="Helvetica,sans-Serif" font-size="10.00" fill="grey">geomLevel</text>
<text text-anchor="middle" x="569.12" y="-385.5" font-family="Helvetica,sans-Serif" font-size="10.00" fill="grey">hierLevel</text>
<text text-anchor="start" x="511" y="-373.5" font-family="Helvetica,sans-Serif" font-size="10.00" fill="grey">m_CurrentSettingAlternate</text>
<text text-anchor="middle" x="569.12" y="-361.5" font-family="Helvetica,sans-Serif" font-size="10.00" fill="grey">KeyIndex</text>
<text text-anchor="middle" x="569.12" y="-349.5" font-family="Helvetica,sans-Serif" font-size="10.00" fill="grey">m_CurrentSettingKeyIndex</text>
</g>
<!-- Node4&#45;&gt;Node10 -->
<g id="edge17_Node000010_Node000004" class="edge">
<title>Node4&#45;&gt;Node10</title>
<g id="a_edge17_Node000010_Node000004"><a xlink:title=" ">
<path fill="none" stroke="#9a32cd" stroke-dasharray="5,2" d="M254.14,-434.55C299.65,-418.3 377.18,-384.23 421,-329 441.78,-302.81 417.8,-279.25 442.75,-257 473.74,-229.37 749.59,-192.77 858.27,-179.28"/>
<polygon fill="#9a32cd" stroke="#9a32cd" points="253.04,-431.23 244.73,-437.81 255.32,-437.85 253.04,-431.23"/>
</a>
</g>
<text text-anchor="middle" x="500.12" y="-319.5" font-family="Helvetica,sans-Serif" font-size="10.00" fill="grey"> NO_SORTING</text>
<text text-anchor="middle" x="500.12" y="-307.5" font-family="Helvetica,sans-Serif" font-size="10.00" fill="grey">geomLevel</text>
<text text-anchor="middle" x="500.12" y="-295.5" font-family="Helvetica,sans-Serif" font-size="10.00" fill="grey">hierLevel</text>
<text text-anchor="start" x="442" y="-283.5" font-family="Helvetica,sans-Serif" font-size="10.00" fill="grey">m_CurrentSettingAlternate</text>
<text text-anchor="middle" x="500.12" y="-271.5" font-family="Helvetica,sans-Serif" font-size="10.00" fill="grey">KeyIndex</text>
<text text-anchor="middle" x="500.12" y="-259.5" font-family="Helvetica,sans-Serif" font-size="10.00" fill="grey">m_CurrentSettingKeyIndex</text>
</g>
<!-- Node5&#45;&gt;Node2 -->
<g id="edge5_Node000002_Node000005" class="edge">
<title>Node5&#45;&gt;Node2</title>
<g id="a_edge5_Node000002_Node000005"><a xlink:title=" ">
<path fill="none" stroke="#9a32cd" stroke-dasharray="5,2" d="M511.47,-158.33C458.93,-136.9 358.53,-95.95 313.21,-77.47"/>
<polygon fill="#9a32cd" stroke="#9a32cd" points="509.94,-161.48 520.52,-162.02 512.58,-155 509.94,-161.48"/>
</a>
</g>
<text text-anchor="middle" x="472.38" y="-109.5" font-family="Helvetica,sans-Serif" font-size="10.00" fill="grey"> m_ParameterRemovalQueue</text>
<text text-anchor="middle" x="472.38" y="-97.5" font-family="Helvetica,sans-Serif" font-size="10.00" fill="grey">m_UpdatedParameters</text>
</g>
<!-- Node6 -->
<g id="Node000006" class="node">
<title>Node6</title>
<g id="a_Node000006"><a xlink:href="../../d8/d03/class_object.html" target="_top" xlink:title=" ">
<polygon fill="white" stroke="#666666" points="843.25,-457 798.75,-457 798.75,-437 843.25,-437 843.25,-457"/>
<text text-anchor="middle" x="821" y="-443.5" font-family="Helvetica,sans-Serif" font-size="10.00">Object</text>
</a>
</g>
</g>
<!-- Node6&#45;&gt;Node5 -->
<g id="edge6_Node000005_Node000006" class="edge">
<title>Node6&#45;&gt;Node5</title>
<g id="a_edge6_Node000005_Node000006"><a xlink:title=" ">
<path fill="none" stroke="#9a32cd" stroke-dasharray="5,2" d="M787.27,-444.61C765.68,-442.05 738.36,-435.45 720,-419 694.43,-396.09 707.36,-377.71 692,-347 686.73,-336.47 643.53,-266.05 636,-257 611.11,-227.08 575.62,-197.75 557.18,-183.3"/>
<polygon fill="#9a32cd" stroke="#9a32cd" points="786.8,-448.08 797.08,-445.52 787.45,-441.11 786.8,-448.08"/>
</a>
</g>
<text text-anchor="middle" x="694.5" y="-295.5" font-family="Helvetica,sans-Serif" font-size="10.00" fill="grey"> obj</text>
<text text-anchor="middle" x="694.5" y="-283.5" font-family="Helvetica,sans-Serif" font-size="10.00" fill="grey">parent</text>
</g>
<!-- Node6&#45;&gt;Node7 -->
<g id="edge9_Node000007_Node000006" class="edge">
<title>Node6&#45;&gt;Node7</title>
<g id="a_edge9_Node000007_Node000006"><a xlink:title=" ">
<path fill="none" stroke="#9a32cd" stroke-dasharray="5,2" d="M821,-425.47C821,-392.04 821,-327.17 821,-303.2"/>
<polygon fill="#9a32cd" stroke="#9a32cd" points="817.5,-425.43 821,-435.43 824.5,-425.43 817.5,-425.43"/>
</a>
</g>
<text text-anchor="middle" x="834.5" y="-385.5" font-family="Helvetica,sans-Serif" font-size="10.00" fill="grey"> obj</text>
<text text-anchor="middle" x="834.5" y="-373.5" font-family="Helvetica,sans-Serif" font-size="10.00" fill="grey">parent</text>
</g>
<!-- Node6&#45;&gt;Node10 -->
<g id="edge16_Node000010_Node000006" class="edge">
<title>Node6&#45;&gt;Node10</title>
<g id="a_edge16_Node000010_Node000006"><a xlink:title=" ">
<path fill="none" stroke="#9a32cd" stroke-dasharray="5,2" d="M841.87,-429.31C845.43,-426.06 848.95,-422.55 852,-419 911.75,-349.4 932.32,-328.37 953,-239 958.43,-215.52 934.77,-194.87 917.86,-183.44"/>
<polygon fill="#9a32cd" stroke="#9a32cd" points="839.68,-426.58 834.38,-435.75 844.24,-431.89 839.68,-426.58"/>
</a>
</g>
<text text-anchor="middle" x="961.5" y="-295.5" font-family="Helvetica,sans-Serif" font-size="10.00" fill="grey"> obj</text>
<text text-anchor="middle" x="961.5" y="-283.5" font-family="Helvetica,sans-Serif" font-size="10.00" fill="grey">parent</text>
</g>
<!-- Node7&#45;&gt;Node5 -->
<g id="edge8_Node000005_Node000007" class="edge">
<title>Node7&#45;&gt;Node5</title>
<g id="a_edge8_Node000005_Node000007"><a xlink:title=" ">
<path fill="none" stroke="#9a32cd" stroke-dasharray="5,2" d="M806.5,-273.96C801.12,-268.05 794.7,-261.77 788,-257 772.12,-245.69 765.54,-247.51 748,-239 737.63,-233.97 735.69,-231.32 725,-227 678.18,-208.1 622.07,-192.66 585.08,-183.41"/>
<polygon fill="#9a32cd" stroke="#9a32cd" points="803.82,-276.22 812.98,-281.55 809.14,-271.68 803.82,-276.22"/>
</a>
</g>
<text text-anchor="middle" x="769" y="-229.5" font-family="Helvetica,sans-Serif" font-size="10.00" fill="grey"> proxyInfo</text>
</g>
<!-- Node7&#45;&gt;Node7 -->
<g id="edge11_Node000007_Node000007" class="edge">
<title>Node7&#45;&gt;Node7</title>
<g id="a_edge11_Node000007_Node000007"><a xlink:title=" ">
<path fill="none" stroke="#9a32cd" stroke-dasharray="5,2" d="M849.02,-303.66C854.22,-302.34 857.88,-298.78 857.88,-293 857.88,-283.51 848.03,-280.02 837.69,-282.54"/>
<polygon fill="#9a32cd" stroke="#9a32cd" points="849.26,-300.17 839.2,-303.48 849.13,-307.16 849.26,-300.17"/>
</a>
</g>
<text text-anchor="middle" x="878.88" y="-289.5" font-family="Helvetica,sans-Serif" font-size="10.00" fill="grey"> proxyInfo</text>
</g>
<!-- Node7&#45;&gt;Node10 -->
<g id="edge18_Node000010_Node000007" class="edge">
<title>Node7&#45;&gt;Node10</title>
<g id="a_edge18_Node000010_Node000007"><a xlink:title=" ">
<path fill="none" stroke="#9a32cd" stroke-dasharray="5,2" d="M821.46,-271.44C822.6,-257.93 825.75,-240.36 834,-227 846.03,-207.51 867.97,-192.39 883.68,-183.37"/>
<polygon fill="#9a32cd" stroke="#9a32cd" points="817.97,-271.2 820.96,-281.36 824.96,-271.55 817.97,-271.2"/>
</a>
</g>
<text text-anchor="middle" x="855" y="-229.5" font-family="Helvetica,sans-Serif" font-size="10.00" fill="grey"> proxyInfo</text>
</g>
<!-- Node8 -->
<g id="Node000008" class="node">
<title>Node8</title>
<g id="a_Node000008"><a xlink:href="../../d4/d04/class_class.html" target="_top" xlink:title="Super root of all classes in Enforce script.">
<polygon fill="white" stroke="#666666" points="964.38,-457 923.62,-457 923.62,-437 964.38,-437 964.38,-457"/>
<text text-anchor="middle" x="944" y="-443.5" font-family="Helvetica,sans-Serif" font-size="10.00">Class</text>
</a>
</g>
</g>
<!-- Node8&#45;&gt;Node5 -->
<g id="edge23_Node000005_Node000008" class="edge">
<title>Node8&#45;&gt;Node5</title>
<g id="a_edge23_Node000005_Node000008"><a xlink:title=" ">
<path fill="none" stroke="#9a32cd" stroke-dasharray="5,2" d="M912.04,-444.85C885.04,-442.62 846.21,-436.33 817,-419 771.66,-392.1 767.59,-373.76 739.75,-329 721.37,-299.45 732.79,-282.39 709,-257 673,-218.58 615.27,-195.21 578.79,-183.44"/>
<polygon fill="#9a32cd" stroke="#9a32cd" points="911.46,-448.32 921.67,-445.5 911.93,-441.34 911.46,-448.32"/>
</a>
</g>
<text text-anchor="middle" x="765.62" y="-289.5" font-family="Helvetica,sans-Serif" font-size="10.00" fill="grey"> m_Instance</text>
</g>
<!-- Node8&#45;&gt;Node7 -->
<g id="edge12_Node000007_Node000008" class="edge">
<title>Node8&#45;&gt;Node7</title>
<g id="a_edge12_Node000007_Node000008"><a xlink:title=" ">
<path fill="none" stroke="#9a32cd" stroke-dasharray="5,2" d="M929.48,-428.06C903.14,-395.51 848.36,-327.81 828.44,-303.2"/>
<polygon fill="#9a32cd" stroke="#9a32cd" points="926.71,-430.2 935.72,-435.77 932.15,-425.79 926.71,-430.2"/>
</a>
</g>
<text text-anchor="middle" x="946.62" y="-379.5" font-family="Helvetica,sans-Serif" font-size="10.00" fill="grey"> m_Instance</text>
</g>
<!-- Node8&#45;&gt;Node10 -->
<g id="edge19_Node000010_Node000008" class="edge">
<title>Node8&#45;&gt;Node10</title>
<g id="a_edge19_Node000010_Node000008"><a xlink:title=" ">
<path fill="none" stroke="#9a32cd" stroke-dasharray="5,2" d="M975.87,-442.68C1005.39,-438.87 1046.17,-431.48 1056,-419 1075.8,-393.86 1059.15,-378.84 1056,-347 1051.98,-306.41 1060.52,-291.01 1038,-257 1012.73,-218.83 963.29,-195.32 931.5,-183.47"/>
<polygon fill="#9a32cd" stroke="#9a32cd" points="975.82,-439.16 966.31,-443.83 976.66,-446.11 975.82,-439.16"/>
</a>
</g>
<text text-anchor="middle" x="1080.62" y="-289.5" font-family="Helvetica,sans-Serif" font-size="10.00" fill="grey"> m_Instance</text>
</g>
<!-- Node9 -->
<g id="Node000009" class="node">
<title>Node9</title>
<g id="a_Node000009"><a xlink:href="../../dd/d0a/class_widget.html" target="_top" xlink:title=" ">
<polygon fill="white" stroke="#666666" points="505.38,-457 458.62,-457 458.62,-437 505.38,-437 505.38,-457"/>
<text text-anchor="middle" x="482" y="-443.5" font-family="Helvetica,sans-Serif" font-size="10.00">Widget</text>
</a>
</g>
</g>
<!-- Node9&#45;&gt;Node5 -->
<g id="edge25_Node000005_Node000009" class="edge">
<title>Node9&#45;&gt;Node5</title>
<g id="a_edge25_Node000005_Node000009"><a xlink:title=" ">
<path fill="none" stroke="#9a32cd" stroke-dasharray="5,2" d="M461.81,-429.57C423.37,-396.25 346.71,-318.63 384.25,-257 409.33,-215.82 462.13,-194.19 500.39,-183.46"/>
<polygon fill="#9a32cd" stroke="#9a32cd" points="459.19,-431.94 469.09,-435.73 463.71,-426.6 459.19,-431.94"/>
</a>
</g>
<text text-anchor="middle" x="402.38" y="-289.5" font-family="Helvetica,sans-Serif" font-size="10.00" fill="grey"> m_Root</text>
</g>
<!-- Node9&#45;&gt;Node7 -->
<g id="edge14_Node000007_Node000009" class="edge">
<title>Node9&#45;&gt;Node7</title>
<g id="a_edge14_Node000007_Node000009"><a xlink:title=" ">
<path fill="none" stroke="#9a32cd" stroke-dasharray="5,2" d="M516.87,-443.16C547.85,-439.83 593.99,-432.9 632,-419 707.17,-391.5 725.21,-378.65 788,-329 797.7,-321.33 807.21,-310.83 813.51,-303.34"/>
<polygon fill="#9a32cd" stroke="#9a32cd" points="516.89,-439.64 507.29,-444.11 517.59,-446.6 516.89,-439.64"/>
</a>
</g>
<text text-anchor="middle" x="781.38" y="-379.5" font-family="Helvetica,sans-Serif" font-size="10.00" fill="grey"> m_Root</text>
</g>
<!-- Node9&#45;&gt;Node10 -->
<g id="edge21_Node000010_Node000009" class="edge">
<title>Node9&#45;&gt;Node10</title>
<g id="a_edge21_Node000010_Node000009"><a xlink:title=" ">
<path fill="none" stroke="#9a32cd" stroke-dasharray="5,2" d="M478.84,-425.37C476.69,-403.24 477.06,-368.41 496,-347 516.43,-323.91 539.54,-349.01 563,-329 589.68,-306.25 568.59,-279.77 595.25,-257 671.28,-192.05 793.42,-177.46 858.26,-174.48"/>
<polygon fill="#9a32cd" stroke="#9a32cd" points="475.36,-425.75 480.09,-435.23 482.31,-424.87 475.36,-425.75"/>
</a>
</g>
<text text-anchor="middle" x="613.38" y="-289.5" font-family="Helvetica,sans-Serif" font-size="10.00" fill="grey"> m_Root</text>
</g>
<!-- Node10&#45;&gt;Node7 -->
<g id="edge15_Node000007_Node000010" class="edge">
<title>Node10&#45;&gt;Node7</title>
<g id="a_edge15_Node000007_Node000010"><a xlink:title=" ">
<path fill="none" stroke="#9a32cd" stroke-dasharray="5,2" d="M897.93,-194.46C894.59,-207.9 888.93,-225.44 880,-239 868.03,-257.17 848.36,-273.1 835.06,-282.63"/>
<polygon fill="#9a32cd" stroke="#9a32cd" points="901.28,-195.49 900.04,-184.97 894.45,-193.97 901.28,-195.49"/>
</a>
</g>
<text text-anchor="middle" x="917.5" y="-229.5" font-family="Helvetica,sans-Serif" font-size="10.00" fill="grey"> m_Subgroups</text>
</g>
<!-- Node10&#45;&gt;Node10 -->
<g id="edge22_Node000010_Node000010" class="edge">
<title>Node10&#45;&gt;Node10</title>
<g id="a_edge22_Node000010_Node000010"><a xlink:title=" ">
<path fill="none" stroke="#9a32cd" stroke-dasharray="5,2" d="M941.09,-184.24C953.47,-184.09 963.25,-180.34 963.25,-173 963.25,-163.51 946.9,-160.02 929.72,-162.54"/>
<polygon fill="#9a32cd" stroke="#9a32cd" points="941.44,-180.76 931.23,-183.56 940.96,-187.74 941.44,-180.76"/>
</a>
</g>
<text text-anchor="middle" x="994.75" y="-169.5" font-family="Helvetica,sans-Serif" font-size="10.00" fill="grey"> m_Subgroups</text>
</g>
</g>
</svg>

<g id="navigator" transform="translate(0 0)" fill="#404254">
  <rect fill="#f2f5e9" fill-opacity="0.5" stroke="#606060" stroke-width=".5" x="0" y="0" width="60" height="60"/>
  <use id="zoomplus" xlink:href="#zoomPlus" x="17" y="9" onmousedown="handleZoom(evt,'in')"/>
  <use id="zoomminus" xlink:href="#zoomMin" x="42" y="9" onmousedown="handleZoom(evt,'out')"/>
  <use id="reset" xlink:href="#resetDef" x="30" y="36" onmousedown="handleReset()"/>
   <use id="arrowup" xlink:href="#arrowUp" x="0" y="0" onmousedown="handlePan(0,-1)"/>
  <use id="arrowright" xlink:href="#arrowRight" x="0" y="0" onmousedown="handlePan(1,0)"/>
  <use id="arrowdown" xlink:href="#arrowDown" x="0" y="0" onmousedown="handlePan(0,1)"/>
  <use id="arrowleft" xlink:href="#arrowLeft" x="0" y="0" onmousedown="handlePan(-1,0)"/>
</g>
<svg viewBox="0 0 15 15" width="100%" height="30px" preserveAspectRatio="xMaxYMin meet">
 <g id="arrow_out" transform="scale(0.3 0.3)">
  <a xlink:href="class_p_p_e_god_rays__coll__graph_org.svg" target="_base">
   <rect id="button" ry="5" rx="5" y="6" x="6" height="38" width="38"
        fill="#f2f5e9" fill-opacity="0.5" stroke="#606060" stroke-width="1.0"/>
   <path id="arrow"
     d="M 11.500037,31.436501 C 11.940474,20.09759 22.043105,11.32322 32.158766,21.979434 L 37.068811,17.246167 C 37.068811,17.246167 37.088388,32 37.088388,32 L 22.160133,31.978069 C 22.160133,31.978069 26.997745,27.140456 26.997745,27.140456 C 18.528582,18.264221 13.291696,25.230495 11.500037,31.436501 z"
     style="fill:#404040;"/>
  </a>
 </g>
</svg>

<style type='text/css'>
<![CDATA[
[data-mouse-over-selected='false'] { opacity: 0.7; }
[data-mouse-over-selected='true']  { opacity: 1.0; }
]]>
</style>
<script type="application/ecmascript"><![CDATA[
document.addEventListener('DOMContentLoaded', (event) => {
  highlightEdges();
  highlightAdjacentNodes();
});
]]></script>
</svg>
