<?xml version="1.0" encoding="UTF-8" standalone="no"?>
<!DOCTYPE svg PUBLIC "-//W3C//DTD SVG 1.1//EN"
 "http://www.w3.org/Graphics/SVG/1.1/DTD/svg11.dtd">
<!-- Generated by graphviz version 11.0.0 (20240428.1522)
 -->
<!-- Title: Mission Pages: 1 -->
<svg width="924pt" height="394pt"
 viewBox="0.00 0.00 924.16 393.91" xmlns="http://www.w3.org/2000/svg" xmlns:xlink="http://www.w3.org/1999/xlink">
<g id="graph0" class="graph" transform="scale(1 1) rotate(0) translate(4 389.91)">
<title>Mission</title>
<!-- Node1 -->
<g id="Node000001" class="node">
<title>Node1</title>
<g id="a_Node000001"><a xlink:title="Mission class.">
<polygon fill="#999999" stroke="#666666" points="533.78,-20 484.03,-20 484.03,0 533.78,0 533.78,-20"/>
<text text-anchor="middle" x="508.91" y="-6.5" font-family="Helvetica,sans-Serif" font-size="10.00">Mission</text>
</a>
</g>
</g>
<!-- Node2 -->
<g id="Node000002" class="node">
<title>Node2</title>
<g id="a_Node000002"><a xlink:href="../../df/d04/class_script_module.html" target="_top" xlink:title="Module containing compiled scripts.">
<polygon fill="white" stroke="#666666" points="269.41,-136 196.41,-136 196.41,-116 269.41,-116 269.41,-136"/>
<text text-anchor="middle" x="232.91" y="-122.5" font-family="Helvetica,sans-Serif" font-size="10.00">ScriptModule</text>
</a>
</g>
</g>
<!-- Node2&#45;&gt;Node1 -->
<g id="edge1_Node000001_Node000002" class="edge">
<title>Node2&#45;&gt;Node1</title>
<g id="a_edge1_Node000001_Node000002"><a xlink:title=" ">
<path fill="none" stroke="#9a32cd" stroke-dasharray="5,2" d="M266.09,-111.16C307.42,-93.95 380.2,-63.68 442.66,-38 456.9,-32.14 472.89,-25.63 485.59,-20.46"/>
<polygon fill="#9a32cd" stroke="#9a32cd" points="264.83,-107.9 256.94,-114.97 267.52,-114.36 264.83,-107.9"/>
</a>
</g>
<text text-anchor="middle" x="473.03" y="-64.5" font-family="Helvetica,sans-Serif" font-size="10.00" fill="grey"> MissionScript</text>
</g>
<!-- Node3 -->
<g id="Node000003" class="node">
<title>Node3</title>
<g id="a_Node000003"><a xlink:href="../../d2/d01/classarray.html" target="_top" xlink:title=" ">
<polygon fill="white" stroke="#666666" points="716.53,-136 635.28,-136 635.28,-116 716.53,-116 716.53,-136"/>
<text text-anchor="middle" x="675.91" y="-122.5" font-family="Helvetica,sans-Serif" font-size="10.00">array&lt; vector &gt;</text>
</a>
</g>
</g>
<!-- Node3&#45;&gt;Node1 -->
<g id="edge2_Node000001_Node000003" class="edge">
<title>Node3&#45;&gt;Node1</title>
<g id="a_edge2_Node000001_Node000003"><a xlink:title=" ">
<path fill="none" stroke="#9a32cd" stroke-dasharray="5,2" d="M676.6,-104.04C676.05,-84.15 671.89,-54.88 653.91,-38 636.91,-22.06 570.8,-15.14 533.99,-12.47"/>
<polygon fill="#9a32cd" stroke="#9a32cd" points="673.1,-104 676.56,-114.01 680.1,-104.03 673.1,-104"/>
</a>
</g>
<text text-anchor="middle" x="738.91" y="-64.5" font-family="Helvetica,sans-Serif" font-size="10.00" fill="grey"> m_ActiveRefresherLocations</text>
</g>
<!-- Node4 -->
<g id="Node000004" class="node">
<title>Node4</title>
<g id="a_Node000004"><a xlink:href="../../d8/d03/class_object.html" target="_top" xlink:title=" ">
<polygon fill="white" stroke="#666666" points="401.16,-384 356.66,-384 356.66,-364 401.16,-364 401.16,-384"/>
<text text-anchor="middle" x="378.91" y="-370.5" font-family="Helvetica,sans-Serif" font-size="10.00">Object</text>
</a>
</g>
</g>
<!-- Node4&#45;&gt;Node3 -->
<g id="edge3_Node000003_Node000004" class="edge">
<title>Node4&#45;&gt;Node3</title>
<g id="a_edge3_Node000003_Node000004"><a xlink:title=" ">
<path fill="none" stroke="#9a32cd" stroke-dasharray="5,2" d="M381.17,-352.34C383.68,-332.11 388.41,-300.56 395.91,-274 401.76,-253.27 415.57,-198.04 431.91,-184 439.66,-177.34 567.62,-149.72 635.05,-135.52"/>
<polygon fill="#9a32cd" stroke="#9a32cd" points="377.72,-351.73 380.03,-362.07 384.67,-352.54 377.72,-351.73"/>
</a>
</g>
<text text-anchor="middle" x="445.41" y="-222.5" font-family="Helvetica,sans-Serif" font-size="10.00" fill="grey"> obj</text>
<text text-anchor="middle" x="445.41" y="-210.5" font-family="Helvetica,sans-Serif" font-size="10.00" fill="grey">parent</text>
</g>
<!-- Node6 -->
<g id="Node000006" class="node">
<title>Node6</title>
<g id="a_Node000006"><a xlink:href="../../d2/d01/classarray.html" target="_top" xlink:title="Result for an object found in CGame.IsBoxCollidingGeometryProxy.">
<polygon fill="white" stroke="#666666" points="505.78,-230 468.03,-230 468.03,-210 505.78,-210 505.78,-230"/>
<text text-anchor="middle" x="486.91" y="-216.5" font-family="Helvetica,sans-Serif" font-size="10.00">array</text>
</a>
</g>
</g>
<!-- Node4&#45;&gt;Node6 -->
<g id="edge6_Node000006_Node000004" class="edge">
<title>Node4&#45;&gt;Node6</title>
<g id="a_edge6_Node000006_Node000004"><a xlink:title=" ">
<path fill="none" stroke="#9a32cd" stroke-dasharray="5,2" d="M391.95,-354.64C415.2,-321.93 462.96,-254.7 480.37,-230.2"/>
<polygon fill="#9a32cd" stroke="#9a32cd" points="389.15,-352.53 386.22,-362.71 394.86,-356.59 389.15,-352.53"/>
</a>
</g>
<text text-anchor="middle" x="461.41" y="-312.5" font-family="Helvetica,sans-Serif" font-size="10.00" fill="grey"> obj</text>
<text text-anchor="middle" x="461.41" y="-300.5" font-family="Helvetica,sans-Serif" font-size="10.00" fill="grey">parent</text>
</g>
<!-- Node10 -->
<g id="Node000010" class="node">
<title>Node10</title>
<g id="a_Node000010"><a xlink:href="../../d2/d01/classarray.html" target="_top" xlink:title=" ">
<polygon fill="white" stroke="#666666" points="374.16,-136 287.66,-136 287.66,-116 374.16,-116 374.16,-136"/>
<text text-anchor="middle" x="330.91" y="-122.5" font-family="Helvetica,sans-Serif" font-size="10.00">array&lt; Widget &gt;</text>
</a>
</g>
</g>
<!-- Node4&#45;&gt;Node10 -->
<g id="edge14_Node000010_Node000004" class="edge">
<title>Node4&#45;&gt;Node10</title>
<g id="a_edge14_Node000010_Node000004"><a xlink:title=" ">
<path fill="none" stroke="#9a32cd" stroke-dasharray="5,2" d="M370.73,-353.03C369.77,-350.66 368.81,-348.28 367.91,-346 355.21,-314.1 367.3,-294.69 339.91,-274 305.89,-248.3 177.6,-287.53 148.91,-256 127.37,-232.33 129.96,-209.79 148.91,-184 165.42,-161.52 239.05,-143.94 287.44,-134.55"/>
<polygon fill="#9a32cd" stroke="#9a32cd" points="367.42,-354.18 374.43,-362.12 373.9,-351.54 367.42,-354.18"/>
</a>
</g>
<text text-anchor="middle" x="162.41" y="-222.5" font-family="Helvetica,sans-Serif" font-size="10.00" fill="grey"> obj</text>
<text text-anchor="middle" x="162.41" y="-210.5" font-family="Helvetica,sans-Serif" font-size="10.00" fill="grey">parent</text>
</g>
<!-- Node5 -->
<g id="Node000005" class="node">
<title>Node5</title>
<g id="a_Node000005"><a xlink:href="../../db/d06/class_param3.html" target="_top" xlink:title=" ">
<polygon fill="white" stroke="#666666" points="214.78,-384 165.03,-384 165.03,-364 214.78,-364 214.78,-384"/>
<text text-anchor="middle" x="189.91" y="-370.5" font-family="Helvetica,sans-Serif" font-size="10.00">Param3</text>
</a>
</g>
</g>
<!-- Node5&#45;&gt;Node3 -->
<g id="edge4_Node000003_Node000005" class="edge">
<title>Node5&#45;&gt;Node3</title>
<g id="a_edge4_Node000003_Node000005"><a xlink:title=" ">
<path fill="none" stroke="#9a32cd" stroke-dasharray="5,2" d="M185.05,-352.65C177.07,-313.61 166.36,-228.16 212.66,-184 232.59,-164.99 432.92,-171.51 459.91,-166 476.02,-162.71 478.93,-157.9 494.91,-154 542.29,-142.45 597.92,-135.04 634.88,-130.96"/>
<polygon fill="#9a32cd" stroke="#9a32cd" points="181.61,-353.3 187.19,-362.31 188.44,-351.79 181.61,-353.3"/>
</a>
</g>
<text text-anchor="middle" x="271.03" y="-246.5" font-family="Helvetica,sans-Serif" font-size="10.00" fill="grey"> NO_SORTING</text>
<text text-anchor="middle" x="271.03" y="-234.5" font-family="Helvetica,sans-Serif" font-size="10.00" fill="grey">geomLevel</text>
<text text-anchor="middle" x="271.03" y="-222.5" font-family="Helvetica,sans-Serif" font-size="10.00" fill="grey">hierLevel</text>
<text text-anchor="start" x="212.91" y="-210.5" font-family="Helvetica,sans-Serif" font-size="10.00" fill="grey">m_CurrentSettingAlternate</text>
<text text-anchor="middle" x="271.03" y="-198.5" font-family="Helvetica,sans-Serif" font-size="10.00" fill="grey">KeyIndex</text>
<text text-anchor="middle" x="271.03" y="-186.5" font-family="Helvetica,sans-Serif" font-size="10.00" fill="grey">m_CurrentSettingKeyIndex</text>
</g>
<!-- Node5&#45;&gt;Node6 -->
<g id="edge7_Node000006_Node000005" class="edge">
<title>Node5&#45;&gt;Node6</title>
<g id="a_edge7_Node000006_Node000005"><a xlink:title=" ">
<path fill="none" stroke="#9a32cd" stroke-dasharray="5,2" d="M201.11,-353.76C215.85,-330.43 244.1,-292 279.66,-274 349.12,-238.83 384.1,-290.49 453.91,-256 465.59,-250.23 475.29,-238.49 481.08,-230.21"/>
<polygon fill="#9a32cd" stroke="#9a32cd" points="198.14,-351.91 195.93,-362.27 204.12,-355.54 198.14,-351.91"/>
</a>
</g>
<text text-anchor="middle" x="338.03" y="-336.5" font-family="Helvetica,sans-Serif" font-size="10.00" fill="grey"> NO_SORTING</text>
<text text-anchor="middle" x="338.03" y="-324.5" font-family="Helvetica,sans-Serif" font-size="10.00" fill="grey">geomLevel</text>
<text text-anchor="middle" x="338.03" y="-312.5" font-family="Helvetica,sans-Serif" font-size="10.00" fill="grey">hierLevel</text>
<text text-anchor="start" x="279.91" y="-300.5" font-family="Helvetica,sans-Serif" font-size="10.00" fill="grey">m_CurrentSettingAlternate</text>
<text text-anchor="middle" x="338.03" y="-288.5" font-family="Helvetica,sans-Serif" font-size="10.00" fill="grey">KeyIndex</text>
<text text-anchor="middle" x="338.03" y="-276.5" font-family="Helvetica,sans-Serif" font-size="10.00" fill="grey">m_CurrentSettingKeyIndex</text>
</g>
<!-- Node5&#45;&gt;Node10 -->
<g id="edge15_Node000010_Node000005" class="edge">
<title>Node5&#45;&gt;Node10</title>
<g id="a_edge15_Node000010_Node000005"><a xlink:title=" ">
<path fill="none" stroke="#9a32cd" stroke-dasharray="5,2" d="M158.12,-358.82C93.38,-328.05 -43,-252.41 13.66,-184 59.32,-128.87 101.45,-166.66 171.91,-154 172.63,-153.87 240.47,-142.35 287.3,-134.4"/>
<polygon fill="#9a32cd" stroke="#9a32cd" points="156.3,-361.83 166.85,-362.89 159.26,-355.49 156.3,-361.83"/>
</a>
</g>
<text text-anchor="middle" x="72.03" y="-246.5" font-family="Helvetica,sans-Serif" font-size="10.00" fill="grey"> NO_SORTING</text>
<text text-anchor="middle" x="72.03" y="-234.5" font-family="Helvetica,sans-Serif" font-size="10.00" fill="grey">geomLevel</text>
<text text-anchor="middle" x="72.03" y="-222.5" font-family="Helvetica,sans-Serif" font-size="10.00" fill="grey">hierLevel</text>
<text text-anchor="start" x="13.91" y="-210.5" font-family="Helvetica,sans-Serif" font-size="10.00" fill="grey">m_CurrentSettingAlternate</text>
<text text-anchor="middle" x="72.03" y="-198.5" font-family="Helvetica,sans-Serif" font-size="10.00" fill="grey">KeyIndex</text>
<text text-anchor="middle" x="72.03" y="-186.5" font-family="Helvetica,sans-Serif" font-size="10.00" fill="grey">m_CurrentSettingKeyIndex</text>
</g>
<!-- Node6&#45;&gt;Node3 -->
<g id="edge5_Node000003_Node000006" class="edge">
<title>Node6&#45;&gt;Node3</title>
<g id="a_edge5_Node000003_Node000006"><a xlink:title=" ">
<path fill="none" stroke="#9a32cd" stroke-dasharray="5,2" d="M516.26,-204.71C555.27,-185.72 623.15,-152.68 656.41,-136.49"/>
<polygon fill="#9a32cd" stroke="#9a32cd" points="514.89,-201.49 507.43,-209.01 517.95,-207.78 514.89,-201.49"/>
</a>
</g>
<text text-anchor="middle" x="640.91" y="-156.5" font-family="Helvetica,sans-Serif" font-size="10.00" fill="grey"> proxyInfo</text>
</g>
<!-- Node6&#45;&gt;Node6 -->
<g id="edge8_Node000006_Node000006" class="edge">
<title>Node6&#45;&gt;Node6</title>
<g id="a_edge8_Node000006_Node000006"><a xlink:title=" ">
<path fill="none" stroke="#9a32cd" stroke-dasharray="5,2" d="M514.93,-230.66C520.13,-229.34 523.78,-225.78 523.78,-220 523.78,-210.51 513.94,-207.02 503.59,-209.54"/>
<polygon fill="#9a32cd" stroke="#9a32cd" points="515.17,-227.17 505.11,-230.48 515.04,-234.16 515.17,-227.17"/>
</a>
</g>
<text text-anchor="middle" x="544.78" y="-216.5" font-family="Helvetica,sans-Serif" font-size="10.00" fill="grey"> proxyInfo</text>
</g>
<!-- Node6&#45;&gt;Node10 -->
<g id="edge16_Node000010_Node000006" class="edge">
<title>Node6&#45;&gt;Node10</title>
<g id="a_edge16_Node000010_Node000006"><a xlink:title=" ">
<path fill="none" stroke="#9a32cd" stroke-dasharray="5,2" d="M473.8,-200.94C468.34,-194.65 461.49,-188.14 453.91,-184 415.41,-163.01 393.51,-190.14 356.91,-166 346.04,-158.83 338.6,-145.39 334.55,-136.32"/>
<polygon fill="#9a32cd" stroke="#9a32cd" points="470.85,-202.84 479.8,-208.5 476.33,-198.49 470.85,-202.84"/>
</a>
</g>
<text text-anchor="middle" x="377.91" y="-156.5" font-family="Helvetica,sans-Serif" font-size="10.00" fill="grey"> proxyInfo</text>
</g>
<!-- Node7 -->
<g id="Node000007" class="node">
<title>Node7</title>
<g id="a_Node000007"><a xlink:href="../../d4/d04/class_class.html" target="_top" xlink:title="Super root of all classes in Enforce script.">
<polygon fill="white" stroke="#666666" points="811.28,-384 770.53,-384 770.53,-364 811.28,-364 811.28,-384"/>
<text text-anchor="middle" x="790.91" y="-370.5" font-family="Helvetica,sans-Serif" font-size="10.00">Class</text>
</a>
</g>
</g>
<!-- Node7&#45;&gt;Node3 -->
<g id="edge21_Node000003_Node000007" class="edge">
<title>Node7&#45;&gt;Node3</title>
<g id="a_edge21_Node000003_Node000007"><a xlink:title=" ">
<path fill="none" stroke="#9a32cd" stroke-dasharray="5,2" d="M806.16,-355.03C833.94,-319.98 886.84,-240.95 851.91,-184 824.28,-138.96 759.49,-128.27 716.7,-126.38"/>
<polygon fill="#9a32cd" stroke="#9a32cd" points="803.65,-352.56 800.04,-362.52 809.07,-356.99 803.65,-352.56"/>
</a>
</g>
<text text-anchor="middle" x="889.53" y="-216.5" font-family="Helvetica,sans-Serif" font-size="10.00" fill="grey"> m_Instance</text>
</g>
<!-- Node7&#45;&gt;Node6 -->
<g id="edge9_Node000006_Node000007" class="edge">
<title>Node7&#45;&gt;Node6</title>
<g id="a_edge9_Node000006_Node000007"><a xlink:title=" ">
<path fill="none" stroke="#9a32cd" stroke-dasharray="5,2" d="M759.54,-363.58C729.96,-356.19 719.35,-358.77 694.66,-346 650.15,-322.99 650.55,-300.31 607.91,-274 574.14,-253.17 530.75,-236.29 506.17,-227.53"/>
<polygon fill="#9a32cd" stroke="#9a32cd" points="758.31,-366.88 768.88,-366.11 760.14,-360.12 758.31,-366.88"/>
</a>
</g>
<text text-anchor="middle" x="720.53" y="-306.5" font-family="Helvetica,sans-Serif" font-size="10.00" fill="grey"> m_Instance</text>
</g>
<!-- Node7&#45;&gt;Node10 -->
<g id="edge17_Node000010_Node000007" class="edge">
<title>Node7&#45;&gt;Node10</title>
<g id="a_edge17_Node000010_Node000007"><a xlink:title=" ">
<path fill="none" stroke="#9a32cd" stroke-dasharray="5,2" d="M783.02,-353.18C765.88,-310.69 725.04,-212.37 702.91,-184 689.88,-167.31 685.56,-161.87 665.91,-154 659.22,-151.32 463.46,-136.71 374.34,-130.17"/>
<polygon fill="#9a32cd" stroke="#9a32cd" points="779.74,-354.41 786.71,-362.39 786.24,-351.81 779.74,-354.41"/>
</a>
</g>
<text text-anchor="middle" x="767.53" y="-216.5" font-family="Helvetica,sans-Serif" font-size="10.00" fill="grey"> m_Instance</text>
</g>
<!-- Node8 -->
<g id="Node000008" class="node">
<title>Node8</title>
<g id="a_Node000008"><a xlink:href="../../d5/d02/classstring.html" target="_top" xlink:title=" ">
<polygon fill="white" stroke="#666666" points="702.91,-384 662.91,-384 662.91,-364 702.91,-364 702.91,-384"/>
<text text-anchor="middle" x="682.91" y="-370.5" font-family="Helvetica,sans-Serif" font-size="10.00">string</text>
</a>
</g>
</g>
<!-- Node8&#45;&gt;Node3 -->
<g id="edge22_Node000003_Node000008" class="edge">
<title>Node8&#45;&gt;Node3</title>
<g id="a_edge22_Node000003_Node000008"><a xlink:title=" ">
<path fill="none" stroke="#9a32cd" stroke-dasharray="5,2" d="M706.66,-357.08C752.3,-324.49 844.23,-247.84 802.91,-184 784.06,-154.89 746.44,-140.5 717.01,-133.48"/>
<polygon fill="#9a32cd" stroke="#9a32cd" points="704.87,-354.06 698.68,-362.66 708.88,-359.8 704.87,-354.06"/>
</a>
</g>
<text text-anchor="middle" x="830.53" y="-216.5" font-family="Helvetica,sans-Serif" font-size="10.00" fill="grey"> m_Test</text>
</g>
<!-- Node8&#45;&gt;Node6 -->
<g id="edge10_Node000006_Node000008" class="edge">
<title>Node8&#45;&gt;Node6</title>
<g id="a_edge10_Node000006_Node000008"><a xlink:title=" ">
<path fill="none" stroke="#9a32cd" stroke-dasharray="5,2" d="M651.35,-371.38C627.82,-368.81 595.86,-362.31 572.66,-346 541.24,-323.92 546.71,-305.61 524.91,-274 514.24,-258.53 501.43,-240.84 493.74,-230.31"/>
<polygon fill="#9a32cd" stroke="#9a32cd" points="651.02,-374.87 661.29,-372.27 651.64,-367.9 651.02,-374.87"/>
</a>
</g>
<text text-anchor="middle" x="589.53" y="-306.5" font-family="Helvetica,sans-Serif" font-size="10.00" fill="grey"> m_Test</text>
</g>
<!-- Node8&#45;&gt;Node8 -->
<g id="edge11_Node000008_Node000008" class="edge">
<title>Node8&#45;&gt;Node8</title>
<g id="a_edge11_Node000008_Node000008"><a xlink:title=" ">
<path fill="none" stroke="#9a32cd" stroke-dasharray="5,2" d="M708.68,-385.91C715.62,-385.28 720.91,-381.31 720.91,-374 720.91,-363.12 709.2,-359.64 697.73,-363.55"/>
<polygon fill="#9a32cd" stroke="#9a32cd" points="709.6,-382.5 699.23,-384.65 708.68,-389.44 709.6,-382.5"/>
</a>
</g>
<text text-anchor="middle" x="736.66" y="-370.5" font-family="Helvetica,sans-Serif" font-size="10.00" fill="grey"> Empty</text>
</g>
<!-- Node8&#45;&gt;Node10 -->
<g id="edge18_Node000010_Node000008" class="edge">
<title>Node8&#45;&gt;Node10</title>
<g id="a_edge18_Node000010_Node000008"><a xlink:title=" ">
<path fill="none" stroke="#9a32cd" stroke-dasharray="5,2" d="M689.98,-352.58C696.16,-330.67 701.65,-296.04 683.91,-274 660.44,-244.85 629.91,-280.54 601.66,-256 575.89,-233.61 599.24,-207.94 574.91,-184 546.88,-156.43 436.79,-139.38 374.5,-131.73"/>
<polygon fill="#9a32cd" stroke="#9a32cd" points="686.64,-351.53 686.98,-362.12 693.32,-353.63 686.64,-351.53"/>
</a>
</g>
<text text-anchor="middle" x="618.53" y="-216.5" font-family="Helvetica,sans-Serif" font-size="10.00" fill="grey"> m_Test</text>
</g>
<!-- Node9 -->
<g id="Node000009" class="node">
<title>Node9</title>
<g id="a_Node000009"><a xlink:href="../../dd/d0a/class_widget.html" target="_top" xlink:title=" ">
<polygon fill="white" stroke="#666666" points="510.28,-384 463.53,-384 463.53,-364 510.28,-364 510.28,-384"/>
<text text-anchor="middle" x="486.91" y="-370.5" font-family="Helvetica,sans-Serif" font-size="10.00">Widget</text>
</a>
</g>
</g>
<!-- Node9&#45;&gt;Node3 -->
<g id="edge23_Node000003_Node000009" class="edge">
<title>Node9&#45;&gt;Node3</title>
<g id="a_edge23_Node000003_Node000009"><a xlink:title=" ">
<path fill="none" stroke="#9a32cd" stroke-dasharray="5,2" d="M521.87,-370.78C541.91,-367.81 566.3,-361.08 582.91,-346 608.33,-322.92 588.77,-300.25 610.91,-274 620.93,-262.11 631.49,-268.37 640.91,-256 666.05,-222.97 655.2,-206.11 665.91,-166 668.61,-155.87 671.58,-144.22 673.57,-136.31"/>
<polygon fill="#9a32cd" stroke="#9a32cd" points="521.68,-367.28 512.17,-371.95 522.52,-374.23 521.68,-367.28"/>
</a>
</g>
<text text-anchor="middle" x="680.28" y="-216.5" font-family="Helvetica,sans-Serif" font-size="10.00" fill="grey"> m_Root</text>
</g>
<!-- Node9&#45;&gt;Node6 -->
<g id="edge12_Node000006_Node000009" class="edge">
<title>Node9&#45;&gt;Node6</title>
<g id="a_edge12_Node000006_Node000009"><a xlink:title=" ">
<path fill="none" stroke="#9a32cd" stroke-dasharray="5,2" d="M486.91,-352.47C486.91,-319.04 486.91,-254.17 486.91,-230.2"/>
<polygon fill="#9a32cd" stroke="#9a32cd" points="483.41,-352.43 486.91,-362.43 490.41,-352.43 483.41,-352.43"/>
</a>
</g>
<text text-anchor="middle" x="505.28" y="-306.5" font-family="Helvetica,sans-Serif" font-size="10.00" fill="grey"> m_Root</text>
</g>
<!-- Node9&#45;&gt;Node10 -->
<g id="edge19_Node000010_Node000009" class="edge">
<title>Node9&#45;&gt;Node10</title>
<g id="a_edge19_Node000010_Node000009"><a xlink:title=" ">
<path fill="none" stroke="#9a32cd" stroke-dasharray="5,2" d="M482.78,-352.7C477.09,-330.06 464.61,-294 439.91,-274 413.01,-252.23 388.86,-280.24 364.16,-256 330.31,-222.79 329.35,-160.05 330.31,-136.37"/>
<polygon fill="#9a32cd" stroke="#9a32cd" points="479.31,-353.25 484.94,-362.23 486.14,-351.7 479.31,-353.25"/>
</a>
</g>
<text text-anchor="middle" x="383.28" y="-216.5" font-family="Helvetica,sans-Serif" font-size="10.00" fill="grey"> m_Root</text>
</g>
<!-- Node10&#45;&gt;Node6 -->
<g id="edge13_Node000006_Node000010" class="edge">
<title>Node10&#45;&gt;Node6</title>
<g id="a_edge13_Node000006_Node000010"><a xlink:title=" ">
<path fill="none" stroke="#9a32cd" stroke-dasharray="5,2" d="M369.59,-140.52C394.9,-150.39 427.96,-165.3 453.91,-184 464.07,-191.32 473.65,-202.08 479.85,-209.73"/>
<polygon fill="#9a32cd" stroke="#9a32cd" points="370.92,-137.28 360.33,-137.01 368.44,-143.83 370.92,-137.28"/>
</a>
</g>
<text text-anchor="middle" x="454.41" y="-156.5" font-family="Helvetica,sans-Serif" font-size="10.00" fill="grey"> m_Subgroups</text>
</g>
<!-- Node10&#45;&gt;Node10 -->
<g id="edge20_Node000010_Node000010" class="edge">
<title>Node10&#45;&gt;Node10</title>
<g id="a_edge20_Node000010_Node000010"><a xlink:title=" ">
<path fill="none" stroke="#9a32cd" stroke-dasharray="5,2" d="M385.54,-130.76C389.64,-129.7 392.16,-128.11 392.16,-126 392.16,-122.35 384.62,-120.26 374.4,-119.75"/>
<polygon fill="#9a32cd" stroke="#9a32cd" points="385.35,-127.26 375.9,-132.05 386.27,-134.19 385.35,-127.26"/>
</a>
</g>
<text text-anchor="middle" x="423.66" y="-122.5" font-family="Helvetica,sans-Serif" font-size="10.00" fill="grey"> m_Subgroups</text>
</g>
<!-- Node11 -->
<g id="Node000011" class="node">
<title>Node11</title>
<g id="a_Node000011"><a xlink:href="../../d4/d0d/class_script_invoker.html" target="_top" xlink:title="ScriptInvoker Class provide list of callbacks &#160;&#160;usage:">
<polygon fill="white" stroke="#666666" points="544.66,-136 473.16,-136 473.16,-116 544.66,-116 544.66,-136"/>
<text text-anchor="middle" x="508.91" y="-122.5" font-family="Helvetica,sans-Serif" font-size="10.00">ScriptInvoker</text>
</a>
</g>
</g>
<!-- Node11&#45;&gt;Node1 -->
<g id="edge24_Node000001_Node000011" class="edge">
<title>Node11&#45;&gt;Node1</title>
<g id="a_edge24_Node000001_Node000011"><a xlink:title=" ">
<path fill="none" stroke="#9a32cd" stroke-dasharray="5,2" d="M508.91,-104.31C508.91,-79.44 508.91,-38.77 508.91,-20.46"/>
<polygon fill="#9a32cd" stroke="#9a32cd" points="505.41,-104.16 508.91,-114.16 512.41,-104.16 505.41,-104.16"/>
</a>
</g>
<text text-anchor="middle" x="580.91" y="-88.5" font-family="Helvetica,sans-Serif" font-size="10.00" fill="grey"> m_OnInputDeviceChanged</text>
<text text-anchor="middle" x="580.91" y="-76.5" font-family="Helvetica,sans-Serif" font-size="10.00" fill="grey">m_OnInputDeviceConnected</text>
<text text-anchor="middle" x="580.91" y="-64.5" font-family="Helvetica,sans-Serif" font-size="10.00" fill="grey">m_OnInputDeviceDisconnected</text>
<text text-anchor="middle" x="580.91" y="-52.5" font-family="Helvetica,sans-Serif" font-size="10.00" fill="grey">m_OnInputPresetChanged</text>
<text text-anchor="middle" x="580.91" y="-40.5" font-family="Helvetica,sans-Serif" font-size="10.00" fill="grey">m_OnModMenuVisibilityChanged</text>
</g>
</g>
</svg>
