<?xml version="1.0" encoding="UTF-8" standalone="no"?>
<!DOCTYPE svg PUBLIC "-//W3C//DTD SVG 1.1//EN"
 "http://www.w3.org/Graphics/SVG/1.1/DTD/svg11.dtd">
<!-- Generated by graphviz version 11.0.0 (20240428.1522)
 -->
<!-- Title: InjurySoundHandlerBase Pages: 1 -->
<svg width="353pt" height="352pt"
 viewBox="0.00 0.00 352.50 352.00" xmlns="http://www.w3.org/2000/svg" xmlns:xlink="http://www.w3.org/1999/xlink">

<svg id="main" version="1.1" xmlns="http://www.w3.org/2000/svg" xmlns:xlink="http://www.w3.org/1999/xlink" xml:space="preserve" onload="init(evt)">
<style type="text/css"><![CDATA[
.node, .edge {opacity: 0.7;}
.node.selected, .edge.selected {opacity: 1;}
.edge:hover path { stroke: red; }
.edge:hover polygon { stroke: red; fill: red; }
]]></style>
<script type="application/ecmascript" xlink:href="../../svg.min.js"/>
<svg id="graph" class="graph">
<g id="graph0" class="graph" transform="scale(1 1) rotate(0) translate(4 348)">
<title>InjurySoundHandlerBase</title>
<!-- Node1 -->
<g id="Node000001" class="node">
<title>Node1</title>
<g id="a_Node000001"><a xlink:title=" ">
<polygon fill="#999999" stroke="#666666" points="122.5,-20 0,-20 0,0 122.5,0 122.5,-20"/>
<text text-anchor="middle" x="61.25" y="-6.5" font-family="Helvetica,sans-Serif" font-size="10.00">InjurySoundHandlerBase</text>
</a>
</g>
</g>
<!-- Node2 -->
<g id="Node000002" class="node">
<title>Node2</title>
<g id="a_Node000002"><a xlink:href="../../d4/d03/classfloat.html" target="_top" xlink:title=" ">
<polygon fill="white" stroke="#666666" points="106.25,-336 72.25,-336 72.25,-316 106.25,-316 106.25,-336"/>
<text text-anchor="middle" x="89.25" y="-322.5" font-family="Helvetica,sans-Serif" font-size="10.00">float</text>
</a>
</g>
</g>
<!-- Node2&#45;&gt;Node1 -->
<g id="edge1_Node000001_Node000002" class="edge">
<title>Node2&#45;&gt;Node1</title>
<g id="a_edge1_Node000001_Node000002"><a xlink:title=" ">
<path fill="none" stroke="#9a32cd" stroke-dasharray="5,2" d="M80.2,-305.27C71.57,-285.28 59.17,-253.22 54.25,-224 41.17,-146.29 54.7,-50.44 59.62,-20.43"/>
<polygon fill="#9a32cd" stroke="#9a32cd" points="76.89,-306.43 84.15,-314.15 83.28,-303.59 76.89,-306.43"/>
</a>
</g>
<text text-anchor="start" x="54.25" y="-214.5" font-family="Helvetica,sans-Serif" font-size="10.00" fill="grey"> SOUND_INTERVALS_HEAVY</text>
<text text-anchor="middle" x="121.75" y="-202.5" font-family="Helvetica,sans-Serif" font-size="10.00" fill="grey">_MAX</text>
<text text-anchor="start" x="54.25" y="-190.5" font-family="Helvetica,sans-Serif" font-size="10.00" fill="grey">SOUND_INTERVALS</text>
<text text-anchor="middle" x="121.75" y="-178.5" font-family="Helvetica,sans-Serif" font-size="10.00" fill="grey">_HEAVY_MIN</text>
<text text-anchor="start" x="54.25" y="-166.5" font-family="Helvetica,sans-Serif" font-size="10.00" fill="grey">SOUND_INTERVALS</text>
<text text-anchor="middle" x="121.75" y="-154.5" font-family="Helvetica,sans-Serif" font-size="10.00" fill="grey">_LIGHT_MAX</text>
<text text-anchor="start" x="54.25" y="-142.5" font-family="Helvetica,sans-Serif" font-size="10.00" fill="grey">SOUND_INTERVALS</text>
<text text-anchor="middle" x="121.75" y="-130.5" font-family="Helvetica,sans-Serif" font-size="10.00" fill="grey">_LIGHT_MIN</text>
<text text-anchor="start" x="54.25" y="-118.5" font-family="Helvetica,sans-Serif" font-size="10.00" fill="grey">SOUND_INTERVALS</text>
<text text-anchor="middle" x="121.75" y="-106.5" font-family="Helvetica,sans-Serif" font-size="10.00" fill="grey">_MEDIUM_MAX</text>
<text text-anchor="start" x="54.25" y="-94.5" font-family="Helvetica,sans-Serif" font-size="10.00" fill="grey">SOUND_INTERVALS</text>
<text text-anchor="middle" x="121.75" y="-82.5" font-family="Helvetica,sans-Serif" font-size="10.00" fill="grey">_MEDIUM_MIN</text>
<text text-anchor="middle" x="121.75" y="-70.5" font-family="Helvetica,sans-Serif" font-size="10.00" fill="grey">m_SoundTime</text>
</g>
<!-- Node2&#45;&gt;Node2 -->
<g id="edge2_Node000002_Node000002" class="edge">
<title>Node2&#45;&gt;Node2</title>
<g id="a_edge2_Node000002_Node000002"><a xlink:title=" ">
<path fill="none" stroke="#9a32cd" stroke-dasharray="5,2" d="M116.59,-336.44C121.13,-334.97 124.25,-331.49 124.25,-326 124.25,-316.51 114.91,-313.02 105.09,-315.54"/>
<polygon fill="#9a32cd" stroke="#9a32cd" points="116.6,-332.94 106.6,-336.45 116.61,-339.94 116.6,-332.94"/>
</a>
</g>
<text text-anchor="middle" x="146.38" y="-334.5" font-family="Helvetica,sans-Serif" font-size="10.00" fill="grey"> LOWEST</text>
<text text-anchor="middle" x="146.38" y="-322.5" font-family="Helvetica,sans-Serif" font-size="10.00" fill="grey">MAX</text>
<text text-anchor="middle" x="146.38" y="-310.5" font-family="Helvetica,sans-Serif" font-size="10.00" fill="grey">MIN</text>
</g>
<!-- Node3 -->
<g id="Node000003" class="node">
<title>Node3</title>
<g id="a_Node000003"><a xlink:href="../../d2/d0b/class_human_movement_state.html" target="_top" xlink:title=" ">
<polygon fill="white" stroke="#666666" points="312.38,-156 198.12,-156 198.12,-136 312.38,-136 312.38,-156"/>
<text text-anchor="middle" x="255.25" y="-142.5" font-family="Helvetica,sans-Serif" font-size="10.00">HumanMovementState</text>
</a>
</g>
</g>
<!-- Node2&#45;&gt;Node3 -->
<g id="edge5_Node000003_Node000002" class="edge">
<title>Node2&#45;&gt;Node3</title>
<g id="a_edge5_Node000003_Node000002"><a xlink:title=" ">
<path fill="none" stroke="#9a32cd" stroke-dasharray="5,2" d="M105.95,-307.35C124.96,-287.23 156.93,-253.33 184.25,-224 207.05,-199.52 233.75,-170.45 246.97,-156.04"/>
<polygon fill="#9a32cd" stroke="#9a32cd" points="103.56,-304.79 99.23,-314.46 108.64,-309.6 103.56,-304.79"/>
</a>
</g>
<text text-anchor="middle" x="191.5" y="-262.5" font-family="Helvetica,sans-Serif" font-size="10.00" fill="grey"> m_fLeaning</text>
</g>
<!-- Node3&#45;&gt;Node1 -->
<g id="edge3_Node000001_Node000003" class="edge">
<title>Node3&#45;&gt;Node1</title>
<g id="a_edge3_Node000001_Node000003"><a xlink:title=" ">
<path fill="none" stroke="#9a32cd" stroke-dasharray="5,2" d="M241.79,-126.68C228.61,-109.75 207.22,-84.74 184.25,-68 154.68,-46.44 115.65,-30.04 89.56,-20.49"/>
<polygon fill="#9a32cd" stroke="#9a32cd" points="238.8,-128.54 247.63,-134.39 244.38,-124.31 238.8,-128.54"/>
</a>
</g>
<text text-anchor="middle" x="194.25" y="-40.5" font-family="Helvetica,sans-Serif" font-size="10.00" fill="grey"> m_MovementState</text>
</g>
<!-- Node4 -->
<g id="Node000004" class="node">
<title>Node4</title>
<g id="a_Node000004"><a xlink:href="../../db/d06/class_param3.html" target="_top" xlink:title=" ">
<polygon fill="white" stroke="#666666" points="280.12,-336 230.38,-336 230.38,-316 280.12,-316 280.12,-336"/>
<text text-anchor="middle" x="255.25" y="-322.5" font-family="Helvetica,sans-Serif" font-size="10.00">Param3</text>
</a>
</g>
</g>
<!-- Node4&#45;&gt;Node3 -->
<g id="edge4_Node000003_Node000004" class="edge">
<title>Node4&#45;&gt;Node3</title>
<g id="a_edge4_Node000003_Node000004"><a xlink:title=" ">
<path fill="none" stroke="#9a32cd" stroke-dasharray="5,2" d="M255.25,-304.43C255.25,-265.81 255.25,-183.84 255.25,-156.27"/>
<polygon fill="#9a32cd" stroke="#9a32cd" points="251.75,-304.41 255.25,-314.41 258.75,-304.41 251.75,-304.41"/>
</a>
</g>
<text text-anchor="middle" x="299.88" y="-280.5" font-family="Helvetica,sans-Serif" font-size="10.00" fill="grey"> m_CommandTypeId</text>
<text text-anchor="middle" x="299.88" y="-268.5" font-family="Helvetica,sans-Serif" font-size="10.00" fill="grey">m_LocalMovement</text>
<text text-anchor="middle" x="299.88" y="-256.5" font-family="Helvetica,sans-Serif" font-size="10.00" fill="grey">m_iMovement</text>
<text text-anchor="middle" x="299.88" y="-244.5" font-family="Helvetica,sans-Serif" font-size="10.00" fill="grey">m_iStanceIdx</text>
</g>
</g>
</svg>
</svg>

<style type='text/css'>
<![CDATA[
[data-mouse-over-selected='false'] { opacity: 0.7; }
[data-mouse-over-selected='true']  { opacity: 1.0; }
]]>
</style>
<script type="application/ecmascript"><![CDATA[
document.addEventListener('DOMContentLoaded', (event) => {
  highlightEdges();
  highlightAdjacentNodes();
});
]]></script>
</svg>
