<?xml version="1.0" encoding="UTF-8" standalone="no"?>
<!DOCTYPE svg PUBLIC "-//W3C//DTD SVG 1.1//EN"
 "http://www.w3.org/Graphics/SVG/1.1/DTD/svg11.dtd">
<!-- Generated by graphviz version 11.0.0 (20240428.1522)
 -->
<!-- Title: ToggleAnimations Pages: 1 -->
<svg width="190pt" height="108pt"
 viewBox="0.00 0.00 189.50 108.00" xmlns="http://www.w3.org/2000/svg" xmlns:xlink="http://www.w3.org/1999/xlink">
<g id="graph0" class="graph" transform="scale(1 1) rotate(0) translate(4 104)">
<title>ToggleAnimations</title>
<!-- Node1 -->
<g id="Node000001" class="node">
<title>Node1</title>
<g id="a_Node000001"><a xlink:title=" ">
<polygon fill="#999999" stroke="#666666" points="138.62,-20 45.38,-20 45.38,0 138.62,0 138.62,-20"/>
<text text-anchor="middle" x="92" y="-6.5" font-family="Helvetica,sans-Serif" font-size="10.00">ToggleAnimations</text>
</a>
</g>
</g>
<!-- Node2 -->
<g id="Node000002" class="node">
<title>Node2</title>
<g id="a_Node000002"><a xlink:href="../../d5/d02/classstring.html" target="_top" xlink:title=" ">
<polygon fill="white" stroke="#666666" points="40,-100 0,-100 0,-80 40,-80 40,-100"/>
<text text-anchor="middle" x="20" y="-86.5" font-family="Helvetica,sans-Serif" font-size="10.00">string</text>
</a>
</g>
</g>
<!-- Node2&#45;&gt;Node1 -->
<g id="edge1_Node000001_Node000002" class="edge">
<title>Node2&#45;&gt;Node1</title>
<g id="a_edge1_Node000001_Node000002"><a xlink:title=" ">
<path fill="none" stroke="#9a32cd" stroke-dasharray="5,2" d="M26.6,-68.97C30.7,-58.81 36.76,-46.79 45,-38 51.82,-30.72 61.05,-24.84 69.52,-20.45"/>
<polygon fill="#9a32cd" stroke="#9a32cd" points="23.33,-67.73 23.21,-78.32 29.91,-70.12 23.33,-67.73"/>
</a>
</g>
<text text-anchor="middle" x="73.5" y="-52.5" font-family="Helvetica,sans-Serif" font-size="10.00" fill="grey"> m_ToggleOff</text>
<text text-anchor="middle" x="73.5" y="-40.5" font-family="Helvetica,sans-Serif" font-size="10.00" fill="grey">m_ToggleOn</text>
</g>
<!-- Node2&#45;&gt;Node2 -->
<g id="edge2_Node000002_Node000002" class="edge">
<title>Node2&#45;&gt;Node2</title>
<g id="a_edge2_Node000002_Node000002"><a xlink:title=" ">
<path fill="none" stroke="#9a32cd" stroke-dasharray="5,2" d="M51.76,-96.44C55.54,-95.27 58,-93.12 58,-90 58,-84.3 49.76,-81.85 40.33,-82.65"/>
<polygon fill="#9a32cd" stroke="#9a32cd" points="51.53,-92.95 41.84,-97.23 52.09,-99.92 51.53,-92.95"/>
</a>
</g>
<text text-anchor="middle" x="73.75" y="-86.5" font-family="Helvetica,sans-Serif" font-size="10.00" fill="grey"> Empty</text>
</g>
<!-- Node3 -->
<g id="Node000003" class="node">
<title>Node3</title>
<g id="a_Node000003"><a xlink:href="../../db/d06/class_param3.html" target="_top" xlink:title=" ">
<polygon fill="white" stroke="#666666" points="156.88,-100 107.12,-100 107.12,-80 156.88,-80 156.88,-100"/>
<text text-anchor="middle" x="132" y="-86.5" font-family="Helvetica,sans-Serif" font-size="10.00">Param3</text>
</a>
</g>
</g>
<!-- Node3&#45;&gt;Node1 -->
<g id="edge3_Node000001_Node000003" class="edge">
<title>Node3&#45;&gt;Node1</title>
<g id="a_edge3_Node000001_Node000003"><a xlink:title=" ">
<path fill="none" stroke="#9a32cd" stroke-dasharray="5,2" d="M122,-69.51C113.93,-53.77 102.93,-32.32 96.74,-20.24"/>
<polygon fill="#9a32cd" stroke="#9a32cd" points="118.89,-71.1 126.56,-78.4 125.11,-67.9 118.89,-71.1"/>
</a>
</g>
<text text-anchor="middle" x="149.25" y="-46.5" font-family="Helvetica,sans-Serif" font-size="10.00" fill="grey"> m_OpeningBit</text>
</g>
</g>
</svg>
