<?xml version="1.0" encoding="UTF-8" standalone="no"?>
<!DOCTYPE svg PUBLIC "-//W3C//DTD SVG 1.1//EN"
 "http://www.w3.org/Graphics/SVG/1.1/DTD/svg11.dtd">
<!-- Generated by graphviz version 11.0.0 (20240428.1522)
 -->
<!-- Title: SpawnDataConverter Pages: 1 -->
<svg width="992pt" height="474pt"
 viewBox="0.00 0.00 992.25 473.91" xmlns="http://www.w3.org/2000/svg" xmlns:xlink="http://www.w3.org/1999/xlink">
<g id="graph0" class="graph" transform="scale(1 1) rotate(0) translate(4 469.91)">
<title>SpawnDataConverter</title>
<!-- Node1 -->
<g id="Node000001" class="node">
<title>Node1</title>
<g id="a_Node000001"><a xlink:title="Utility class that converts init.c format type of spawn commands to a json file, fill in the SpawnIni...">
<polygon fill="#999999" stroke="#666666" points="168,-20 62,-20 62,0 168,0 168,-20"/>
<text text-anchor="middle" x="115" y="-6.5" font-family="Helvetica,sans-Serif" font-size="10.00">SpawnDataConverter</text>
</a>
</g>
</g>
<!-- Node2 -->
<g id="Node000002" class="node">
<title>Node2</title>
<g id="a_Node000002"><a xlink:href="../../d2/d01/classarray.html" target="_top" xlink:title=" ">
<polygon fill="white" stroke="#666666" points="558.5,-88 395.5,-88 395.5,-68 558.5,-68 558.5,-88"/>
<text text-anchor="middle" x="477" y="-74.5" font-family="Helvetica,sans-Serif" font-size="10.00">array&lt; ref ITEM_SpawnerObject &gt;</text>
</a>
</g>
</g>
<!-- Node2&#45;&gt;Node1 -->
<g id="edge1_Node000001_Node000002" class="edge">
<title>Node2&#45;&gt;Node1</title>
<g id="a_edge1_Node000001_Node000002"><a xlink:title=" ">
<path fill="none" stroke="#9a32cd" stroke-dasharray="5,2" d="M413.85,-65.49C343.85,-52.72 232.25,-32.38 167.06,-20.49"/>
<polygon fill="#9a32cd" stroke="#9a32cd" points="413.18,-68.92 423.65,-67.27 414.44,-62.04 413.18,-68.92"/>
</a>
</g>
<text text-anchor="middle" x="346.38" y="-40.5" font-family="Helvetica,sans-Serif" font-size="10.00" fill="grey"> Objects</text>
</g>
<!-- Node3 -->
<g id="Node000003" class="node">
<title>Node3</title>
<g id="a_Node000003"><a xlink:href="../../d8/d03/class_object.html" target="_top" xlink:title=" ">
<polygon fill="white" stroke="#666666" points="221.25,-464 176.75,-464 176.75,-444 221.25,-444 221.25,-464"/>
<text text-anchor="middle" x="199" y="-450.5" font-family="Helvetica,sans-Serif" font-size="10.00">Object</text>
</a>
</g>
</g>
<!-- Node3&#45;&gt;Node2 -->
<g id="edge2_Node000002_Node000003" class="edge">
<title>Node3&#45;&gt;Node2</title>
<g id="a_edge2_Node000002_Node000003"><a xlink:title=" ">
<path fill="none" stroke="#9a32cd" stroke-dasharray="5,2" d="M193.75,-432.58C182.26,-382.93 160.29,-254.07 218,-174 258.39,-117.95 335.5,-94.9 395.12,-85.46"/>
<polygon fill="#9a32cd" stroke="#9a32cd" points="190.32,-433.31 196.09,-442.19 197.12,-431.65 190.32,-433.31"/>
</a>
</g>
<text text-anchor="middle" x="231.5" y="-212.5" font-family="Helvetica,sans-Serif" font-size="10.00" fill="grey"> obj</text>
<text text-anchor="middle" x="231.5" y="-200.5" font-family="Helvetica,sans-Serif" font-size="10.00" fill="grey">parent</text>
</g>
<!-- Node5 -->
<g id="Node000005" class="node">
<title>Node5</title>
<g id="a_Node000005"><a xlink:href="../../d2/d01/classarray.html" target="_top" xlink:title="Result for an object found in CGame.IsBoxCollidingGeometryProxy.">
<polygon fill="white" stroke="#666666" points="396.88,-310 359.12,-310 359.12,-290 396.88,-290 396.88,-310"/>
<text text-anchor="middle" x="378" y="-296.5" font-family="Helvetica,sans-Serif" font-size="10.00">array</text>
</a>
</g>
</g>
<!-- Node3&#45;&gt;Node5 -->
<g id="edge5_Node000005_Node000003" class="edge">
<title>Node3&#45;&gt;Node5</title>
<g id="a_edge5_Node000005_Node000003"><a xlink:title=" ">
<path fill="none" stroke="#9a32cd" stroke-dasharray="5,2" d="M232.36,-443.56C244.23,-439.29 257.3,-433.49 268,-426 271.15,-423.79 345.21,-338.72 370,-310.21"/>
<polygon fill="#9a32cd" stroke="#9a32cd" points="231.28,-440.23 222.89,-446.71 233.49,-446.87 231.28,-440.23"/>
</a>
</g>
<text text-anchor="middle" x="343.5" y="-392.5" font-family="Helvetica,sans-Serif" font-size="10.00" fill="grey"> obj</text>
<text text-anchor="middle" x="343.5" y="-380.5" font-family="Helvetica,sans-Serif" font-size="10.00" fill="grey">parent</text>
</g>
<!-- Node9 -->
<g id="Node000009" class="node">
<title>Node9</title>
<g id="a_Node000009"><a xlink:href="../../d2/d01/classarray.html" target="_top" xlink:title=" ">
<polygon fill="white" stroke="#666666" points="393.25,-156 306.75,-156 306.75,-136 393.25,-136 393.25,-156"/>
<text text-anchor="middle" x="350" y="-142.5" font-family="Helvetica,sans-Serif" font-size="10.00">array&lt; Widget &gt;</text>
</a>
</g>
</g>
<!-- Node3&#45;&gt;Node9 -->
<g id="edge13_Node000009_Node000003" class="edge">
<title>Node3&#45;&gt;Node9</title>
<g id="a_edge13_Node000009_Node000003"><a xlink:title=" ">
<path fill="none" stroke="#9a32cd" stroke-dasharray="5,2" d="M200.02,-432.2C201.45,-411.87 204.89,-380.24 213,-354 239.36,-268.74 240.59,-238.76 302,-174 308.97,-166.65 318.4,-160.75 327.06,-156.37"/>
<polygon fill="#9a32cd" stroke="#9a32cd" points="196.53,-431.8 199.43,-441.99 203.52,-432.22 196.53,-431.8"/>
</a>
</g>
<text text-anchor="middle" x="253.5" y="-302.5" font-family="Helvetica,sans-Serif" font-size="10.00" fill="grey"> obj</text>
<text text-anchor="middle" x="253.5" y="-290.5" font-family="Helvetica,sans-Serif" font-size="10.00" fill="grey">parent</text>
</g>
<!-- Node4 -->
<g id="Node000004" class="node">
<title>Node4</title>
<g id="a_Node000004"><a xlink:href="../../db/d06/class_param3.html" target="_top" xlink:title=" ">
<polygon fill="white" stroke="#666666" points="774.88,-464 725.12,-464 725.12,-444 774.88,-444 774.88,-464"/>
<text text-anchor="middle" x="750" y="-450.5" font-family="Helvetica,sans-Serif" font-size="10.00">Param3</text>
</a>
</g>
</g>
<!-- Node4&#45;&gt;Node2 -->
<g id="edge3_Node000002_Node000004" class="edge">
<title>Node4&#45;&gt;Node2</title>
<g id="a_edge3_Node000002_Node000004"><a xlink:title=" ">
<path fill="none" stroke="#9a32cd" stroke-dasharray="5,2" d="M777.45,-437.8C808.77,-418.7 858.31,-382.69 879,-336 891.96,-306.74 893.25,-292.65 879,-264 824.9,-155.25 769.49,-149.29 656,-106 625.31,-94.3 589.85,-87.65 558.63,-83.88"/>
<polygon fill="#9a32cd" stroke="#9a32cd" points="775.73,-434.75 768.9,-442.85 779.29,-440.78 775.73,-434.75"/>
</a>
</g>
<text text-anchor="middle" x="926.12" y="-236.5" font-family="Helvetica,sans-Serif" font-size="10.00" fill="grey"> NO_SORTING</text>
<text text-anchor="middle" x="926.12" y="-224.5" font-family="Helvetica,sans-Serif" font-size="10.00" fill="grey">geomLevel</text>
<text text-anchor="middle" x="926.12" y="-212.5" font-family="Helvetica,sans-Serif" font-size="10.00" fill="grey">hierLevel</text>
<text text-anchor="start" x="868" y="-200.5" font-family="Helvetica,sans-Serif" font-size="10.00" fill="grey">m_CurrentSettingAlternate</text>
<text text-anchor="middle" x="926.12" y="-188.5" font-family="Helvetica,sans-Serif" font-size="10.00" fill="grey">KeyIndex</text>
<text text-anchor="middle" x="926.12" y="-176.5" font-family="Helvetica,sans-Serif" font-size="10.00" fill="grey">m_CurrentSettingKeyIndex</text>
</g>
<!-- Node4&#45;&gt;Node5 -->
<g id="edge6_Node000005_Node000004" class="edge">
<title>Node4&#45;&gt;Node5</title>
<g id="a_edge6_Node000005_Node000004"><a xlink:title=" ">
<path fill="none" stroke="#9a32cd" stroke-dasharray="5,2" d="M713.88,-448.27C687.32,-444.13 650.63,-437.03 619.75,-426 554.69,-402.77 543.39,-385.68 482,-354 452.11,-338.57 417.25,-320.87 396.44,-310.33"/>
<polygon fill="#9a32cd" stroke="#9a32cd" points="713.05,-451.68 723.46,-449.69 714.08,-444.76 713.05,-451.68"/>
</a>
</g>
<text text-anchor="middle" x="677.12" y="-416.5" font-family="Helvetica,sans-Serif" font-size="10.00" fill="grey"> NO_SORTING</text>
<text text-anchor="middle" x="677.12" y="-404.5" font-family="Helvetica,sans-Serif" font-size="10.00" fill="grey">geomLevel</text>
<text text-anchor="middle" x="677.12" y="-392.5" font-family="Helvetica,sans-Serif" font-size="10.00" fill="grey">hierLevel</text>
<text text-anchor="start" x="619" y="-380.5" font-family="Helvetica,sans-Serif" font-size="10.00" fill="grey">m_CurrentSettingAlternate</text>
<text text-anchor="middle" x="677.12" y="-368.5" font-family="Helvetica,sans-Serif" font-size="10.00" fill="grey">KeyIndex</text>
<text text-anchor="middle" x="677.12" y="-356.5" font-family="Helvetica,sans-Serif" font-size="10.00" fill="grey">m_CurrentSettingKeyIndex</text>
</g>
<!-- Node4&#45;&gt;Node9 -->
<g id="edge14_Node000009_Node000004" class="edge">
<title>Node4&#45;&gt;Node9</title>
<g id="a_edge14_Node000009_Node000004"><a xlink:title=" ">
<path fill="none" stroke="#9a32cd" stroke-dasharray="5,2" d="M752.29,-432.44C758.28,-374.25 771.59,-210.3 736,-174 735.26,-173.24 494.17,-156.79 393.43,-149.95"/>
<polygon fill="#9a32cd" stroke="#9a32cd" points="748.83,-431.9 751.24,-442.22 755.79,-432.65 748.83,-431.9"/>
</a>
</g>
<text text-anchor="middle" x="817.12" y="-326.5" font-family="Helvetica,sans-Serif" font-size="10.00" fill="grey"> NO_SORTING</text>
<text text-anchor="middle" x="817.12" y="-314.5" font-family="Helvetica,sans-Serif" font-size="10.00" fill="grey">geomLevel</text>
<text text-anchor="middle" x="817.12" y="-302.5" font-family="Helvetica,sans-Serif" font-size="10.00" fill="grey">hierLevel</text>
<text text-anchor="start" x="759" y="-290.5" font-family="Helvetica,sans-Serif" font-size="10.00" fill="grey">m_CurrentSettingAlternate</text>
<text text-anchor="middle" x="817.12" y="-278.5" font-family="Helvetica,sans-Serif" font-size="10.00" fill="grey">KeyIndex</text>
<text text-anchor="middle" x="817.12" y="-266.5" font-family="Helvetica,sans-Serif" font-size="10.00" fill="grey">m_CurrentSettingKeyIndex</text>
</g>
<!-- Node5&#45;&gt;Node2 -->
<g id="edge4_Node000002_Node000005" class="edge">
<title>Node5&#45;&gt;Node2</title>
<g id="a_edge4_Node000002_Node000005"><a xlink:title=" ">
<path fill="none" stroke="#9a32cd" stroke-dasharray="5,2" d="M407.6,-287.34C425.95,-278.62 448.52,-264.94 462,-246 495.82,-198.48 484.96,-176.02 491,-118 491.55,-112.7 492.26,-111.18 491,-106 489.45,-99.64 486.12,-93.11 483.09,-88.06"/>
<polygon fill="#9a32cd" stroke="#9a32cd" points="406.2,-284.13 398.49,-291.4 409.05,-290.53 406.2,-284.13"/>
</a>
</g>
<text text-anchor="middle" x="510" y="-142.5" font-family="Helvetica,sans-Serif" font-size="10.00" fill="grey"> proxyInfo</text>
</g>
<!-- Node5&#45;&gt;Node5 -->
<g id="edge7_Node000005_Node000005" class="edge">
<title>Node5&#45;&gt;Node5</title>
<g id="a_edge7_Node000005_Node000005"><a xlink:title=" ">
<path fill="none" stroke="#9a32cd" stroke-dasharray="5,2" d="M395.83,-316.07C405.75,-319.07 414.88,-313.71 414.88,-300 414.88,-281.72 398.65,-278.29 385.97,-289.72"/>
<polygon fill="#9a32cd" stroke="#9a32cd" points="397.67,-313.09 387.27,-311.05 394.13,-319.13 397.67,-313.09"/>
</a>
</g>
<text text-anchor="middle" x="435.88" y="-296.5" font-family="Helvetica,sans-Serif" font-size="10.00" fill="grey"> proxyInfo</text>
</g>
<!-- Node5&#45;&gt;Node9 -->
<g id="edge15_Node000009_Node000005" class="edge">
<title>Node5&#45;&gt;Node9</title>
<g id="a_edge15_Node000009_Node000005"><a xlink:title=" ">
<path fill="none" stroke="#9a32cd" stroke-dasharray="5,2" d="M360.74,-280.97C352.77,-271.39 344.16,-258.93 340,-246 330.21,-215.54 334.35,-205.5 340,-174 341.09,-167.9 343.47,-161.37 345.64,-156.27"/>
<polygon fill="#9a32cd" stroke="#9a32cd" points="358.06,-283.22 367.31,-288.37 363.29,-278.57 358.06,-283.22"/>
</a>
</g>
<text text-anchor="middle" x="361" y="-206.5" font-family="Helvetica,sans-Serif" font-size="10.00" fill="grey"> proxyInfo</text>
</g>
<!-- Node6 -->
<g id="Node000006" class="node">
<title>Node6</title>
<g id="a_Node000006"><a xlink:href="../../d4/d04/class_class.html" target="_top" xlink:title="Super root of all classes in Enforce script.">
<polygon fill="white" stroke="#666666" points="513.38,-464 472.62,-464 472.62,-444 513.38,-444 513.38,-464"/>
<text text-anchor="middle" x="493" y="-450.5" font-family="Helvetica,sans-Serif" font-size="10.00">Class</text>
</a>
</g>
</g>
<!-- Node6&#45;&gt;Node2 -->
<g id="edge20_Node000002_Node000006" class="edge">
<title>Node6&#45;&gt;Node2</title>
<g id="a_edge20_Node000002_Node000006"><a xlink:title=" ">
<path fill="none" stroke="#9a32cd" stroke-dasharray="5,2" d="M525.06,-452.83C570.45,-451.84 649.95,-447.05 668,-426 761.04,-317.5 745.33,-198.06 636,-106 623.85,-95.77 591.21,-89.3 558.65,-85.27"/>
<polygon fill="#9a32cd" stroke="#9a32cd" points="525.23,-449.33 515.29,-452.99 525.35,-456.33 525.23,-449.33"/>
</a>
</g>
<text text-anchor="middle" x="751.62" y="-206.5" font-family="Helvetica,sans-Serif" font-size="10.00" fill="grey"> m_Instance</text>
</g>
<!-- Node6&#45;&gt;Node5 -->
<g id="edge8_Node000005_Node000006" class="edge">
<title>Node6&#45;&gt;Node5</title>
<g id="a_edge8_Node000005_Node000006"><a xlink:title=" ">
<path fill="none" stroke="#9a32cd" stroke-dasharray="5,2" d="M461.33,-446.52C448.77,-442.5 435.11,-436.1 425.75,-426 402.94,-401.39 415.24,-385.25 403,-354 396.84,-338.28 388.16,-320.66 382.81,-310.22"/>
<polygon fill="#9a32cd" stroke="#9a32cd" points="460.38,-449.89 470.95,-449.17 462.24,-443.14 460.38,-449.89"/>
</a>
</g>
<text text-anchor="middle" x="451.62" y="-386.5" font-family="Helvetica,sans-Serif" font-size="10.00" fill="grey"> m_Instance</text>
</g>
<!-- Node6&#45;&gt;Node9 -->
<g id="edge16_Node000009_Node000006" class="edge">
<title>Node6&#45;&gt;Node9</title>
<g id="a_edge16_Node000009_Node000006"><a xlink:title=" ">
<path fill="none" stroke="#9a32cd" stroke-dasharray="5,2" d="M493.65,-432.25C495.03,-374.27 495.7,-212.24 462,-174 452.87,-163.65 421.04,-156.61 393.63,-152.32"/>
<polygon fill="#9a32cd" stroke="#9a32cd" points="490.16,-431.92 493.38,-442.01 497.16,-432.11 490.16,-431.92"/>
</a>
</g>
<text text-anchor="middle" x="519.62" y="-296.5" font-family="Helvetica,sans-Serif" font-size="10.00" fill="grey"> m_Instance</text>
</g>
<!-- Node7 -->
<g id="Node000007" class="node">
<title>Node7</title>
<g id="a_Node000007"><a xlink:href="../../d5/d02/classstring.html" target="_top" xlink:title=" ">
<polygon fill="white" stroke="#666666" points="97,-464 57,-464 57,-444 97,-444 97,-464"/>
<text text-anchor="middle" x="77" y="-450.5" font-family="Helvetica,sans-Serif" font-size="10.00">string</text>
</a>
</g>
</g>
<!-- Node7&#45;&gt;Node1 -->
<g id="edge24_Node000001_Node000007" class="edge">
<title>Node7&#45;&gt;Node1</title>
<g id="a_edge24_Node000001_Node000007"><a xlink:title=" ">
<path fill="none" stroke="#9a32cd" stroke-dasharray="5,2" d="M55.59,-436.11C52.43,-432.98 49.43,-429.57 47,-426 13.54,-376.97 0,-360.35 0,-301 0,-301 0,-301 0,-77 0,-45.92 31.98,-29.27 62.21,-20.47"/>
<polygon fill="#9a32cd" stroke="#9a32cd" points="53.09,-438.57 62.88,-442.62 57.75,-433.35 53.09,-438.57"/>
</a>
</g>
<text text-anchor="middle" x="18.38" y="-142.5" font-family="Helvetica,sans-Serif" font-size="10.00" fill="grey"> m_Path</text>
</g>
<!-- Node7&#45;&gt;Node2 -->
<g id="edge21_Node000002_Node000007" class="edge">
<title>Node7&#45;&gt;Node2</title>
<g id="a_edge21_Node000002_Node000007"><a xlink:title=" ">
<path fill="none" stroke="#9a32cd" stroke-dasharray="5,2" d="M69.84,-432.85C53.64,-383.34 19.87,-253.93 77.75,-174 114.53,-123.22 289.44,-97.36 395.17,-86.16"/>
<polygon fill="#9a32cd" stroke="#9a32cd" points="66.49,-433.87 73.03,-442.21 73.12,-431.62 66.49,-433.87"/>
</a>
</g>
<text text-anchor="middle" x="95.62" y="-206.5" font-family="Helvetica,sans-Serif" font-size="10.00" fill="grey"> m_Test</text>
</g>
<!-- Node7&#45;&gt;Node5 -->
<g id="edge9_Node000005_Node000007" class="edge">
<title>Node7&#45;&gt;Node5</title>
<g id="a_edge9_Node000005_Node000007"><a xlink:title=" ">
<path fill="none" stroke="#9a32cd" stroke-dasharray="5,2" d="M104.18,-438.3C111.05,-434.42 118.36,-430.16 125,-426 172.57,-396.21 176.63,-374.83 228.75,-354 277.3,-334.6 298.73,-360.34 345,-336 356.38,-330.01 366.01,-318.56 371.88,-310.39"/>
<polygon fill="#9a32cd" stroke="#9a32cd" points="102.93,-434.99 95.88,-442.91 106.33,-441.11 102.93,-434.99"/>
</a>
</g>
<text text-anchor="middle" x="245.62" y="-386.5" font-family="Helvetica,sans-Serif" font-size="10.00" fill="grey"> m_Test</text>
</g>
<!-- Node7&#45;&gt;Node7 -->
<g id="edge10_Node000007_Node000007" class="edge">
<title>Node7&#45;&gt;Node7</title>
<g id="a_edge10_Node000007_Node000007"><a xlink:title=" ">
<path fill="none" stroke="#9a32cd" stroke-dasharray="5,2" d="M102.77,-465.91C109.72,-465.28 115,-461.31 115,-454 115,-443.12 103.3,-439.64 91.82,-443.55"/>
<polygon fill="#9a32cd" stroke="#9a32cd" points="103.7,-462.5 93.32,-464.65 102.77,-469.44 103.7,-462.5"/>
</a>
</g>
<text text-anchor="middle" x="130.75" y="-450.5" font-family="Helvetica,sans-Serif" font-size="10.00" fill="grey"> Empty</text>
</g>
<!-- Node7&#45;&gt;Node9 -->
<g id="edge17_Node000009_Node000007" class="edge">
<title>Node7&#45;&gt;Node9</title>
<g id="a_edge17_Node000009_Node000007"><a xlink:title=" ">
<path fill="none" stroke="#9a32cd" stroke-dasharray="5,2" d="M79.61,-432.29C87.41,-373.69 112.54,-208.74 152,-174 174.26,-154.4 255.13,-148.94 306.37,-147.47"/>
<polygon fill="#9a32cd" stroke="#9a32cd" points="76.14,-431.79 78.33,-442.15 83.08,-432.69 76.14,-431.79"/>
</a>
</g>
<text text-anchor="middle" x="129.62" y="-296.5" font-family="Helvetica,sans-Serif" font-size="10.00" fill="grey"> m_Test</text>
</g>
<!-- Node8 -->
<g id="Node000008" class="node">
<title>Node8</title>
<g id="a_Node000008"><a xlink:href="../../dd/d0a/class_widget.html" target="_top" xlink:title=" ">
<polygon fill="white" stroke="#666666" points="388.38,-464 341.62,-464 341.62,-444 388.38,-444 388.38,-464"/>
<text text-anchor="middle" x="365" y="-450.5" font-family="Helvetica,sans-Serif" font-size="10.00">Widget</text>
</a>
</g>
</g>
<!-- Node8&#45;&gt;Node2 -->
<g id="edge22_Node000002_Node000008" class="edge">
<title>Node8&#45;&gt;Node2</title>
<g id="a_edge22_Node000002_Node000008"><a xlink:title=" ">
<path fill="none" stroke="#9a32cd" stroke-dasharray="5,2" d="M399.68,-449.78C474,-442.87 641.98,-427.12 643,-426 743.76,-314.98 540.13,-131.82 488.5,-88.43"/>
<polygon fill="#9a32cd" stroke="#9a32cd" points="399.74,-446.26 390.11,-450.67 400.39,-453.23 399.74,-446.26"/>
</a>
</g>
<text text-anchor="middle" x="650.38" y="-206.5" font-family="Helvetica,sans-Serif" font-size="10.00" fill="grey"> m_Root</text>
</g>
<!-- Node8&#45;&gt;Node5 -->
<g id="edge11_Node000005_Node000008" class="edge">
<title>Node8&#45;&gt;Node5</title>
<g id="a_edge11_Node000005_Node000008"><a xlink:title=" ">
<path fill="none" stroke="#9a32cd" stroke-dasharray="5,2" d="M364.03,-432.25C363.38,-412.17 363.13,-380.89 366.25,-354 368.05,-338.46 372.46,-320.79 375.33,-310.28"/>
<polygon fill="#9a32cd" stroke="#9a32cd" points="360.53,-432.31 364.42,-442.17 367.52,-432.03 360.53,-432.31"/>
</a>
</g>
<text text-anchor="middle" x="384.38" y="-386.5" font-family="Helvetica,sans-Serif" font-size="10.00" fill="grey"> m_Root</text>
</g>
<!-- Node8&#45;&gt;Node9 -->
<g id="edge18_Node000009_Node000008" class="edge">
<title>Node8&#45;&gt;Node9</title>
<g id="a_edge18_Node000009_Node000008"><a xlink:title=" ">
<path fill="none" stroke="#9a32cd" stroke-dasharray="5,2" d="M355.16,-433.44C341.33,-405.55 317.39,-355.58 313.25,-336 298.29,-265.18 301.1,-240.36 330,-174 332.8,-167.58 337.36,-161.25 341.43,-156.33"/>
<polygon fill="#9a32cd" stroke="#9a32cd" points="351.94,-434.83 359.54,-442.22 358.2,-431.71 351.94,-434.83"/>
</a>
</g>
<text text-anchor="middle" x="331.38" y="-296.5" font-family="Helvetica,sans-Serif" font-size="10.00" fill="grey"> m_Root</text>
</g>
<!-- Node9&#45;&gt;Node2 -->
<g id="edge23_Node000002_Node000009" class="edge">
<title>Node9&#45;&gt;Node2</title>
<g id="a_edge23_Node000002_Node000009"><a xlink:title=" ">
<path fill="none" stroke="#9a32cd" stroke-dasharray="5,2" d="M378.36,-130.26C402.96,-117.48 437.82,-99.36 458.84,-88.44"/>
<polygon fill="#9a32cd" stroke="#9a32cd" points="376.8,-127.13 369.54,-134.85 380.03,-133.34 376.8,-127.13"/>
</a>
</g>
<text text-anchor="middle" x="455.5" y="-108.5" font-family="Helvetica,sans-Serif" font-size="10.00" fill="grey"> m_Subgroups</text>
</g>
<!-- Node9&#45;&gt;Node5 -->
<g id="edge12_Node000005_Node000009" class="edge">
<title>Node9&#45;&gt;Node5</title>
<g id="a_edge12_Node000005_Node000009"><a xlink:title=" ">
<path fill="none" stroke="#9a32cd" stroke-dasharray="5,2" d="M377.66,-163.2C381.02,-166.35 383.97,-169.95 386,-174 405.55,-213.09 389.47,-267.86 381.66,-289.58"/>
<polygon fill="#9a32cd" stroke="#9a32cd" points="380.02,-160.6 369.98,-157.24 375.74,-166.14 380.02,-160.6"/>
</a>
</g>
<text text-anchor="middle" x="426.5" y="-206.5" font-family="Helvetica,sans-Serif" font-size="10.00" fill="grey"> m_Subgroups</text>
</g>
<!-- Node9&#45;&gt;Node9 -->
<g id="edge19_Node000009_Node000009" class="edge">
<title>Node9&#45;&gt;Node9</title>
<g id="a_edge19_Node000009_Node000009"><a xlink:title=" ">
<path fill="none" stroke="#9a32cd" stroke-dasharray="5,2" d="M404.63,-150.76C408.73,-149.7 411.25,-148.11 411.25,-146 411.25,-142.35 403.71,-140.26 393.49,-139.75"/>
<polygon fill="#9a32cd" stroke="#9a32cd" points="404.44,-147.26 394.99,-152.05 405.37,-154.19 404.44,-147.26"/>
</a>
</g>
<text text-anchor="middle" x="442.75" y="-142.5" font-family="Helvetica,sans-Serif" font-size="10.00" fill="grey"> m_Subgroups</text>
</g>
</g>
</svg>
