<?xml version="1.0" encoding="UTF-8" standalone="no"?>
<!DOCTYPE svg PUBLIC "-//W3C//DTD SVG 1.1//EN"
 "http://www.w3.org/Graphics/SVG/1.1/DTD/svg11.dtd">
<!-- Generated by graphviz version 11.0.0 (20240428.1522)
 -->
<!-- Title: ActionNextCombinationLockDialOnTarget Pages: 1 -->
<svg width="147pt" height="208pt"
 viewBox="0.00 0.00 147.00 208.00" xmlns="http://www.w3.org/2000/svg" xmlns:xlink="http://www.w3.org/1999/xlink">
<g id="graph0" class="graph" transform="scale(1 1) rotate(0) translate(4 204)">
<title>ActionNextCombinationLockDialOnTarget</title>
<!-- Node1 -->
<g id="Node000001" class="node">
<title>Node1</title>
<g id="a_Node000001"><a xlink:title=" ">
<polygon fill="#999999" stroke="#666666" points="139,-32 0,-32 0,0 139,0 139,-32"/>
<text text-anchor="start" x="8" y="-18.5" font-family="Helvetica,sans-Serif" font-size="10.00">ActionNextCombinationLock</text>
<text text-anchor="middle" x="69.5" y="-6.5" font-family="Helvetica,sans-Serif" font-size="10.00">DialOnTarget</text>
</a>
</g>
</g>
<!-- Node2 -->
<g id="Node000002" class="node">
<title>Node2</title>
<g id="a_Node000002"><a xlink:href="../../d0/d0b/class_action_interact_base.html" target="_top" xlink:title=" ">
<polygon fill="white" stroke="#666666" points="118.75,-88 20.25,-88 20.25,-68 118.75,-68 118.75,-88"/>
<text text-anchor="middle" x="69.5" y="-74.5" font-family="Helvetica,sans-Serif" font-size="10.00">ActionInteractBase</text>
</a>
</g>
</g>
<!-- Node2&#45;&gt;Node1 -->
<g id="edge1_Node000001_Node000002" class="edge">
<title>Node2&#45;&gt;Node1</title>
<g id="a_edge1_Node000001_Node000002"><a xlink:title=" ">
<path fill="none" stroke="#8b1a1a" d="M69.5,-56.31C69.5,-48.37 69.5,-39.46 69.5,-32.14"/>
<polygon fill="#8b1a1a" stroke="#8b1a1a" points="66,-56.11 69.5,-66.11 73,-56.11 66,-56.11"/>
</a>
</g>
</g>
<!-- Node3 -->
<g id="Node000003" class="node">
<title>Node3</title>
<g id="a_Node000003"><a xlink:href="../../d7/d04/class_animated_action_base.html" target="_top" xlink:title=" ">
<polygon fill="white" stroke="#666666" points="123.25,-144 15.75,-144 15.75,-124 123.25,-124 123.25,-144"/>
<text text-anchor="middle" x="69.5" y="-130.5" font-family="Helvetica,sans-Serif" font-size="10.00">AnimatedActionBase</text>
</a>
</g>
</g>
<!-- Node3&#45;&gt;Node2 -->
<g id="edge2_Node000002_Node000003" class="edge">
<title>Node3&#45;&gt;Node2</title>
<g id="a_edge2_Node000002_Node000003"><a xlink:title=" ">
<path fill="none" stroke="#8b1a1a" d="M69.5,-112.13C69.5,-103.9 69.5,-94.85 69.5,-88.3"/>
<polygon fill="#8b1a1a" stroke="#8b1a1a" points="66,-112.08 69.5,-122.08 73,-112.08 66,-112.08"/>
</a>
</g>
</g>
<!-- Node4 -->
<g id="Node000004" class="node">
<title>Node4</title>
<g id="a_Node000004"><a xlink:title=" ">
<polygon fill="white" stroke="#666666" points="102.62,-200 36.38,-200 36.38,-180 102.62,-180 102.62,-200"/>
<text text-anchor="middle" x="69.5" y="-186.5" font-family="Helvetica,sans-Serif" font-size="10.00">ActionBase</text>
</a>
</g>
</g>
<!-- Node4&#45;&gt;Node3 -->
<g id="edge3_Node000003_Node000004" class="edge">
<title>Node4&#45;&gt;Node3</title>
<g id="a_edge3_Node000003_Node000004"><a xlink:title=" ">
<path fill="none" stroke="#8b1a1a" d="M69.5,-168.13C69.5,-159.9 69.5,-150.85 69.5,-144.3"/>
<polygon fill="#8b1a1a" stroke="#8b1a1a" points="66,-168.08 69.5,-178.08 73,-168.08 66,-168.08"/>
</a>
</g>
</g>
</g>
</svg>
