<?xml version="1.0" encoding="UTF-8" standalone="no"?>
<!DOCTYPE svg PUBLIC "-//W3C//DTD SVG 1.1//EN"
 "http://www.w3.org/Graphics/SVG/1.1/DTD/svg11.dtd">
<!-- Generated by graphviz version 11.0.0 (20240428.1522)
 -->
<!-- Title: SpacerBase Pages: 1 -->
<svg width="196pt" height="196pt"
 viewBox="0.00 0.00 196.00 196.00" xmlns="http://www.w3.org/2000/svg" xmlns:xlink="http://www.w3.org/1999/xlink">
<g id="graph0" class="graph" transform="scale(1 1) rotate(0) translate(4 192)">
<title>SpacerBase</title>
<!-- Node1 -->
<g id="Node000001" class="node">
<title>Node1</title>
<g id="a_Node000001"><a xlink:title=" ">
<polygon fill="#999999" stroke="#666666" points="130.75,-76 61.5,-76 61.5,-56 130.75,-56 130.75,-76"/>
<text text-anchor="middle" x="96.12" y="-62.5" font-family="Helvetica,sans-Serif" font-size="10.00">SpacerBase</text>
</a>
</g>
</g>
<!-- Node4 -->
<g id="Node000004" class="node">
<title>Node4</title>
<g id="a_Node000004"><a xlink:href="../../de/d09/class_horizontal_spacer.html" target="_top" xlink:title=" ">
<polygon fill="white" stroke="#666666" points="90.25,-20 0,-20 0,0 90.25,0 90.25,-20"/>
<text text-anchor="middle" x="45.12" y="-6.5" font-family="Helvetica,sans-Serif" font-size="10.00">HorizontalSpacer</text>
</a>
</g>
</g>
<!-- Node1&#45;&gt;Node4 -->
<g id="edge3_Node000001_Node000004" class="edge">
<title>Node1&#45;&gt;Node4</title>
<g id="a_edge3_Node000001_Node000004"><a xlink:title=" ">
<path fill="none" stroke="#8b1a1a" d="M79.39,-47.29C70.89,-38.28 60.9,-27.7 53.91,-20.3"/>
<polygon fill="#8b1a1a" stroke="#8b1a1a" points="76.79,-49.63 86.2,-54.49 81.88,-44.82 76.79,-49.63"/>
</a>
</g>
</g>
<!-- Node5 -->
<g id="Node000005" class="node">
<title>Node5</title>
<g id="a_Node000005"><a xlink:href="../../d6/d06/class_vertical_spacer.html" target="_top" xlink:title=" ">
<polygon fill="white" stroke="#666666" points="188,-20 108.25,-20 108.25,0 188,0 188,-20"/>
<text text-anchor="middle" x="148.12" y="-6.5" font-family="Helvetica,sans-Serif" font-size="10.00">VerticalSpacer</text>
</a>
</g>
</g>
<!-- Node1&#45;&gt;Node5 -->
<g id="edge4_Node000001_Node000005" class="edge">
<title>Node1&#45;&gt;Node5</title>
<g id="a_edge4_Node000001_Node000005"><a xlink:title=" ">
<path fill="none" stroke="#8b1a1a" d="M112.91,-47.57C121.64,-38.5 131.97,-27.78 139.17,-20.3"/>
<polygon fill="#8b1a1a" stroke="#8b1a1a" points="110.65,-44.87 106.23,-54.5 115.69,-49.73 110.65,-44.87"/>
</a>
</g>
</g>
<!-- Node2 -->
<g id="Node000002" class="node">
<title>Node2</title>
<g id="a_Node000002"><a xlink:href="../../df/d04/class_scripted_widget_event_handler.html" target="_top" xlink:title="map: item x vector(index, width, height)">
<polygon fill="white" stroke="#666666" points="166,-132 26.25,-132 26.25,-112 166,-112 166,-132"/>
<text text-anchor="middle" x="96.12" y="-118.5" font-family="Helvetica,sans-Serif" font-size="10.00">ScriptedWidgetEventHandler</text>
</a>
</g>
</g>
<!-- Node2&#45;&gt;Node1 -->
<g id="edge1_Node000001_Node000002" class="edge">
<title>Node2&#45;&gt;Node1</title>
<g id="a_edge1_Node000001_Node000002"><a xlink:title=" ">
<path fill="none" stroke="#8b1a1a" d="M96.12,-100.13C96.12,-91.9 96.12,-82.85 96.12,-76.3"/>
<polygon fill="#8b1a1a" stroke="#8b1a1a" points="92.63,-100.08 96.13,-110.08 99.63,-100.08 92.63,-100.08"/>
</a>
</g>
</g>
<!-- Node3 -->
<g id="Node000003" class="node">
<title>Node3</title>
<g id="a_Node000003"><a xlink:href="../../dd/d07/class_managed.html" target="_top" xlink:title="TODO doc.">
<polygon fill="white" stroke="#666666" points="124,-188 68.25,-188 68.25,-168 124,-168 124,-188"/>
<text text-anchor="middle" x="96.12" y="-174.5" font-family="Helvetica,sans-Serif" font-size="10.00">Managed</text>
</a>
</g>
</g>
<!-- Node3&#45;&gt;Node2 -->
<g id="edge2_Node000002_Node000003" class="edge">
<title>Node3&#45;&gt;Node2</title>
<g id="a_edge2_Node000002_Node000003"><a xlink:title=" ">
<path fill="none" stroke="#8b1a1a" d="M96.12,-156.13C96.12,-147.9 96.12,-138.85 96.12,-132.3"/>
<polygon fill="#8b1a1a" stroke="#8b1a1a" points="92.63,-156.08 96.13,-166.08 99.63,-156.08 92.63,-156.08"/>
</a>
</g>
</g>
</g>
</svg>
