<?xml version="1.0" encoding="UTF-8" standalone="no"?>
<!DOCTYPE svg PUBLIC "-//W3C//DTD SVG 1.1//EN"
 "http://www.w3.org/Graphics/SVG/1.1/DTD/svg11.dtd">
<!-- Generated by graphviz version 11.0.0 (20240428.1522)
 -->
<!-- Title: WeightDebugData Pages: 1 -->
<svg width="206pt" height="120pt"
 viewBox="0.00 0.00 206.25 120.00" xmlns="http://www.w3.org/2000/svg" xmlns:xlink="http://www.w3.org/1999/xlink">
<g id="graph0" class="graph" transform="scale(1 1) rotate(0) translate(4 116)">
<title>WeightDebugData</title>
<!-- Node1 -->
<g id="Node000001" class="node">
<title>Node1</title>
<g id="a_Node000001"><a xlink:title=" ">
<polygon fill="#999999" stroke="#666666" points="134.38,-20 39.62,-20 39.62,0 134.38,0 134.38,-20"/>
<text text-anchor="middle" x="87" y="-6.5" font-family="Helvetica,sans-Serif" font-size="10.00">WeightDebugData</text>
</a>
</g>
</g>
<!-- Node2 -->
<g id="Node000002" class="node">
<title>Node2</title>
<g id="a_Node000002"><a xlink:href="../../d5/d02/classstring.html" target="_top" xlink:title=" ">
<polygon fill="white" stroke="#666666" points="40,-112 0,-112 0,-92 40,-92 40,-112"/>
<text text-anchor="middle" x="20" y="-98.5" font-family="Helvetica,sans-Serif" font-size="10.00">string</text>
</a>
</g>
</g>
<!-- Node2&#45;&gt;Node1 -->
<g id="edge1_Node000001_Node000002" class="edge">
<title>Node2&#45;&gt;Node1</title>
<g id="a_edge1_Node000001_Node000002"><a xlink:title=" ">
<path fill="none" stroke="#9a32cd" stroke-dasharray="5,2" d="M18.98,-80.51C19.34,-67.18 21.87,-50.08 31,-38 36.92,-30.16 45.71,-24.49 54.58,-20.43"/>
<polygon fill="#9a32cd" stroke="#9a32cd" points="15.48,-80.39 19.12,-90.34 22.48,-80.29 15.48,-80.39"/>
</a>
</g>
<text text-anchor="middle" x="64" y="-64.5" font-family="Helvetica,sans-Serif" font-size="10.00" fill="grey"> m_CalcDetails</text>
<text text-anchor="middle" x="64" y="-52.5" font-family="Helvetica,sans-Serif" font-size="10.00" fill="grey">m_Classname</text>
<text text-anchor="middle" x="64" y="-40.5" font-family="Helvetica,sans-Serif" font-size="10.00" fill="grey">m_Weight</text>
</g>
<!-- Node2&#45;&gt;Node2 -->
<g id="edge2_Node000002_Node000002" class="edge">
<title>Node2&#45;&gt;Node2</title>
<g id="a_edge2_Node000002_Node000002"><a xlink:title=" ">
<path fill="none" stroke="#9a32cd" stroke-dasharray="5,2" d="M51.76,-109.4C55.54,-108.05 58,-105.59 58,-102 58,-95.44 49.76,-92.62 40.33,-93.55"/>
<polygon fill="#9a32cd" stroke="#9a32cd" points="51.47,-105.92 41.84,-110.32 52.11,-112.89 51.47,-105.92"/>
</a>
</g>
<text text-anchor="middle" x="73.75" y="-98.5" font-family="Helvetica,sans-Serif" font-size="10.00" fill="grey"> Empty</text>
</g>
<!-- Node3 -->
<g id="Node000003" class="node">
<title>Node3</title>
<g id="a_Node000003"><a xlink:href="../../db/d06/class_param3.html" target="_top" xlink:title=" ">
<polygon fill="white" stroke="#666666" points="156.88,-112 107.12,-112 107.12,-92 156.88,-92 156.88,-112"/>
<text text-anchor="middle" x="132" y="-98.5" font-family="Helvetica,sans-Serif" font-size="10.00">Param3</text>
</a>
</g>
</g>
<!-- Node3&#45;&gt;Node1 -->
<g id="edge3_Node000001_Node000003" class="edge">
<title>Node3&#45;&gt;Node1</title>
<g id="a_edge3_Node000001_Node000003"><a xlink:title=" ">
<path fill="none" stroke="#9a32cd" stroke-dasharray="5,2" d="M122.5,-81.43C116.42,-68.96 108.32,-52.49 101,-38 98.05,-32.16 94.67,-25.64 91.97,-20.47"/>
<polygon fill="#9a32cd" stroke="#9a32cd" points="119.25,-82.76 126.78,-90.22 125.55,-79.69 119.25,-82.76"/>
</a>
</g>
<text text-anchor="middle" x="158.12" y="-52.5" font-family="Helvetica,sans-Serif" font-size="10.00" fill="grey"> m_InventoryDepth</text>
</g>
</g>
</svg>
