<?xml version="1.0" encoding="UTF-8" standalone="no"?>
<!DOCTYPE svg PUBLIC "-//W3C//DTD SVG 1.1//EN"
 "http://www.w3.org/Graphics/SVG/1.1/DTD/svg11.dtd">
<!-- Generated by graphviz version 11.0.0 (20240428.1522)
 -->
<!-- Title: PPEWetDistort Pages: 1 -->
<svg width="1238pt" height="527pt"
 viewBox="0.00 0.00 1238.25 526.91" xmlns="http://www.w3.org/2000/svg" xmlns:xlink="http://www.w3.org/1999/xlink">
<g id="graph0" class="graph" transform="scale(1 1) rotate(0) translate(4 522.91)">
<title>PPEWetDistort</title>
<!-- Node1 -->
<g id="Node000001" class="node">
<title>Node1</title>
<g id="a_Node000001"><a xlink:title="WetDistort &#45; PostProcessEffectType.WetDistort.">
<polygon fill="#999999" stroke="#666666" points="141.38,-20 58.62,-20 58.62,0 141.38,0 141.38,-20"/>
<text text-anchor="middle" x="100" y="-6.5" font-family="Helvetica,sans-Serif" font-size="10.00">PPEWetDistort</text>
</a>
</g>
</g>
<!-- Node2 -->
<g id="Node000002" class="node">
<title>Node2</title>
<g id="a_Node000002"><a xlink:href="../../d3/d0f/class_p_p_e_class_base.html" target="_top" xlink:title="Created once, on manager init. Script&#45;side representation of C++ material class, separate handling.">
<polygon fill="white" stroke="#666666" points="325.75,-77 242.25,-77 242.25,-57 325.75,-57 325.75,-77"/>
<text text-anchor="middle" x="284" y="-63.5" font-family="Helvetica,sans-Serif" font-size="10.00">PPEClassBase</text>
</a>
</g>
</g>
<!-- Node2&#45;&gt;Node1 -->
<g id="edge1_Node000001_Node000002" class="edge">
<title>Node2&#45;&gt;Node1</title>
<g id="a_edge1_Node000001_Node000002"><a xlink:title=" ">
<path fill="none" stroke="#8b1a1a" d="M241.51,-53.3C207.94,-43.27 161.86,-29.49 131.53,-20.42"/>
<polygon fill="#8b1a1a" stroke="#8b1a1a" points="240.34,-56.6 250.92,-56.11 242.34,-49.89 240.34,-56.6"/>
</a>
</g>
</g>
<!-- Node3 -->
<g id="Node000003" class="node">
<title>Node3</title>
<g id="a_Node000003"><a xlink:href="../../d5/d02/classstring.html" target="_top" xlink:title=" ">
<polygon fill="white" stroke="#666666" points="1140,-517 1100,-517 1100,-497 1140,-497 1140,-517"/>
<text text-anchor="middle" x="1120" y="-503.5" font-family="Helvetica,sans-Serif" font-size="10.00">string</text>
</a>
</g>
</g>
<!-- Node3&#45;&gt;Node2 -->
<g id="edge2_Node000002_Node000003" class="edge">
<title>Node3&#45;&gt;Node2</title>
<g id="a_edge2_Node000002_Node000003"><a xlink:title=" ">
<path fill="none" stroke="#9a32cd" stroke-dasharray="5,2" d="M1135.66,-487.79C1137.64,-484.96 1139.5,-481.98 1141,-479 1173.73,-413.92 1189.4,-385.99 1166,-317 1133.62,-221.54 1116.24,-185.73 1028,-137 906.07,-69.66 465.16,-66.74 326.23,-67.55"/>
<polygon fill="#9a32cd" stroke="#9a32cd" points="1133.09,-485.39 1129.7,-495.43 1138.61,-489.7 1133.09,-485.39"/>
</a>
</g>
<text text-anchor="middle" x="1194.62" y="-289.5" font-family="Helvetica,sans-Serif" font-size="10.00" fill="grey"> m_MaterialPath</text>
</g>
<!-- Node3&#45;&gt;Node3 -->
<g id="edge3_Node000003_Node000003" class="edge">
<title>Node3&#45;&gt;Node3</title>
<g id="a_edge3_Node000003_Node000003"><a xlink:title=" ">
<path fill="none" stroke="#9a32cd" stroke-dasharray="5,2" d="M1145.77,-518.91C1152.72,-518.28 1158,-514.31 1158,-507 1158,-496.12 1146.3,-492.64 1134.82,-496.55"/>
<polygon fill="#9a32cd" stroke="#9a32cd" points="1146.7,-515.5 1136.32,-517.65 1145.77,-522.44 1146.7,-515.5"/>
</a>
</g>
<text text-anchor="middle" x="1173.75" y="-503.5" font-family="Helvetica,sans-Serif" font-size="10.00" fill="grey"> Empty</text>
</g>
<!-- Node5 -->
<g id="Node000005" class="node">
<title>Node5</title>
<g id="a_Node000005"><a xlink:href="../../d2/d01/classarray.html" target="_top" xlink:title=" ">
<polygon fill="white" stroke="#666666" points="582.75,-213 493.25,-213 493.25,-193 582.75,-193 582.75,-213"/>
<text text-anchor="middle" x="538" y="-199.5" font-family="Helvetica,sans-Serif" font-size="10.00">array&lt; Param3 &gt;</text>
</a>
</g>
</g>
<!-- Node3&#45;&gt;Node5 -->
<g id="edge24_Node000005_Node000003" class="edge">
<title>Node3&#45;&gt;Node5</title>
<g id="a_edge24_Node000005_Node000003"><a xlink:title=" ">
<path fill="none" stroke="#9a32cd" stroke-dasharray="5,2" d="M1116.15,-485.63C1110.76,-462.92 1098.71,-426.8 1074,-407 1044.8,-383.6 1019.22,-414.41 991.75,-389 967.21,-366.3 995.62,-338.47 970,-317 943.93,-295.15 851.16,-306.56 818,-299 801.97,-295.35 798.57,-292.3 783,-287 704.36,-260.2 611.43,-228.79 565.94,-213.43"/>
<polygon fill="#9a32cd" stroke="#9a32cd" points="1112.68,-486.14 1118.18,-495.19 1119.52,-484.68 1112.68,-486.14"/>
</a>
</g>
<text text-anchor="middle" x="1008.62" y="-349.5" font-family="Helvetica,sans-Serif" font-size="10.00" fill="grey"> m_Test</text>
</g>
<!-- Node7 -->
<g id="Node000007" class="node">
<title>Node7</title>
<g id="a_Node000007"><a xlink:href="../../d2/d01/classarray.html" target="_top" xlink:title="Result for an object found in CGame.IsBoxCollidingGeometryProxy.">
<polygon fill="white" stroke="#666666" points="832.88,-363 795.12,-363 795.12,-343 832.88,-343 832.88,-363"/>
<text text-anchor="middle" x="814" y="-349.5" font-family="Helvetica,sans-Serif" font-size="10.00">array</text>
</a>
</g>
</g>
<!-- Node3&#45;&gt;Node7 -->
<g id="edge13_Node000007_Node000003" class="edge">
<title>Node3&#45;&gt;Node7</title>
<g id="a_edge13_Node000007_Node000003"><a xlink:title=" ">
<path fill="none" stroke="#9a32cd" stroke-dasharray="5,2" d="M1088.92,-499.48C1073.09,-495.24 1054.01,-488.67 1038.75,-479 1001.37,-455.32 1007.87,-429.88 970,-407 945.07,-391.94 934.65,-398.14 907,-389 881.12,-380.45 851.76,-369.12 833.07,-361.7"/>
<polygon fill="#9a32cd" stroke="#9a32cd" points="1087.76,-502.79 1098.31,-501.8 1089.44,-496 1087.76,-502.79"/>
</a>
</g>
<text text-anchor="middle" x="1055.62" y="-439.5" font-family="Helvetica,sans-Serif" font-size="10.00" fill="grey"> m_Test</text>
</g>
<!-- Node10 -->
<g id="Node000010" class="node">
<title>Node10</title>
<g id="a_Node000010"><a xlink:href="../../d2/d01/classarray.html" target="_top" xlink:title=" ">
<polygon fill="white" stroke="#666666" points="938.25,-213 851.75,-213 851.75,-193 938.25,-193 938.25,-213"/>
<text text-anchor="middle" x="895" y="-199.5" font-family="Helvetica,sans-Serif" font-size="10.00">array&lt; Widget &gt;</text>
</a>
</g>
</g>
<!-- Node3&#45;&gt;Node10 -->
<g id="edge20_Node000010_Node000003" class="edge">
<title>Node3&#45;&gt;Node10</title>
<g id="a_edge20_Node000010_Node000003"><a xlink:title=" ">
<path fill="none" stroke="#9a32cd" stroke-dasharray="5,2" d="M1124.14,-485.54C1130.44,-448.54 1138.37,-369.49 1104,-317 1065.24,-257.82 984.62,-227.22 935.61,-213.46"/>
<polygon fill="#9a32cd" stroke="#9a32cd" points="1120.72,-484.8 1122.33,-495.27 1127.6,-486.08 1120.72,-484.8"/>
</a>
</g>
<text text-anchor="middle" x="1144.62" y="-349.5" font-family="Helvetica,sans-Serif" font-size="10.00" fill="grey"> m_Test</text>
</g>
<!-- Node4 -->
<g id="Node000004" class="node">
<title>Node4</title>
<g id="a_Node000004"><a xlink:href="../../db/d06/class_param3.html" target="_top" xlink:title=" ">
<polygon fill="white" stroke="#666666" points="235.88,-517 186.12,-517 186.12,-497 235.88,-497 235.88,-517"/>
<text text-anchor="middle" x="211" y="-503.5" font-family="Helvetica,sans-Serif" font-size="10.00">Param3</text>
</a>
</g>
</g>
<!-- Node4&#45;&gt;Node1 -->
<g id="edge26_Node000001_Node000004" class="edge">
<title>Node4&#45;&gt;Node1</title>
<g id="a_edge26_Node000001_Node000004"><a xlink:title=" ">
<path fill="none" stroke="#9a32cd" stroke-dasharray="5,2" d="M175.04,-497.71C114.8,-481.44 0,-439.25 0,-354 0,-354 0,-354 0,-66 0,-37.86 30.77,-24.02 58.17,-17.27"/>
<polygon fill="#9a32cd" stroke="#9a32cd" points="173.94,-501.04 184.5,-500.15 175.7,-494.26 173.94,-501.04"/>
</a>
</g>
<text text-anchor="middle" x="68.62" y="-259.5" font-family="Helvetica,sans-Serif" font-size="10.00" fill="grey"> PARAM_BLURDOWNSIZE</text>
<text text-anchor="middle" x="68.62" y="-247.5" font-family="Helvetica,sans-Serif" font-size="10.00" fill="grey">PARAM_BLURGAUSS</text>
<text text-anchor="middle" x="68.62" y="-235.5" font-family="Helvetica,sans-Serif" font-size="10.00" fill="grey">PARAM_BLURPOWER</text>
<text text-anchor="middle" x="68.62" y="-223.5" font-family="Helvetica,sans-Serif" font-size="10.00" fill="grey">PARAM_EFFPOWERBOTTOM</text>
<text text-anchor="middle" x="68.62" y="-211.5" font-family="Helvetica,sans-Serif" font-size="10.00" fill="grey">PARAM_EFFPOWERTOP</text>
<text text-anchor="middle" x="68.62" y="-199.5" font-family="Helvetica,sans-Serif" font-size="10.00" fill="grey">PARAM_LOCALBLURPOWER</text>
<text text-anchor="middle" x="68.62" y="-187.5" font-family="Helvetica,sans-Serif" font-size="10.00" fill="grey">PARAM_PHASEPOSX</text>
<text text-anchor="middle" x="68.62" y="-175.5" font-family="Helvetica,sans-Serif" font-size="10.00" fill="grey">PARAM_PHASEPOSY</text>
<text text-anchor="middle" x="68.62" y="-163.5" font-family="Helvetica,sans-Serif" font-size="10.00" fill="grey">PARAM_PHASERANDX</text>
<text text-anchor="middle" x="68.62" y="-151.5" font-family="Helvetica,sans-Serif" font-size="10.00" fill="grey">PARAM_PHASERANDY</text>
<text text-anchor="middle" x="68.62" y="-139.5" font-family="Helvetica,sans-Serif" font-size="10.00" fill="grey">...</text>
</g>
<!-- Node4&#45;&gt;Node2 -->
<g id="edge4_Node000002_Node000004" class="edge">
<title>Node4&#45;&gt;Node2</title>
<g id="a_edge4_Node000002_Node000004"><a xlink:title=" ">
<path fill="none" stroke="#9a32cd" stroke-dasharray="5,2" d="M205.96,-485.52C205.57,-483.33 205.23,-481.13 205,-479 201.51,-447.19 204.2,-438.99 205,-407 206.33,-353.62 201.13,-339.48 211,-287 226.77,-203.11 266.84,-107.21 279.85,-77.36"/>
<polygon fill="#9a32cd" stroke="#9a32cd" points="202.5,-486.09 208.05,-495.11 209.34,-484.59 202.5,-486.09"/>
</a>
</g>
<text text-anchor="middle" x="236.5" y="-289.5" font-family="Helvetica,sans-Serif" font-size="10.00" fill="grey"> m_Material</text>
</g>
<!-- Node4&#45;&gt;Node5 -->
<g id="edge7_Node000005_Node000004" class="edge">
<title>Node4&#45;&gt;Node5</title>
<g id="a_edge7_Node000005_Node000004"><a xlink:title=" ">
<path fill="none" stroke="#9a32cd" stroke-dasharray="5,2" d="M209.01,-485.37C206.51,-447.46 206.73,-366.11 247.75,-317 310.14,-242.29 428.29,-216.78 492.94,-208.21"/>
<polygon fill="#9a32cd" stroke="#9a32cd" points="205.52,-485.65 209.82,-495.33 212.49,-485.08 205.52,-485.65"/>
</a>
</g>
<text text-anchor="middle" x="306.12" y="-379.5" font-family="Helvetica,sans-Serif" font-size="10.00" fill="grey"> NO_SORTING</text>
<text text-anchor="middle" x="306.12" y="-367.5" font-family="Helvetica,sans-Serif" font-size="10.00" fill="grey">geomLevel</text>
<text text-anchor="middle" x="306.12" y="-355.5" font-family="Helvetica,sans-Serif" font-size="10.00" fill="grey">hierLevel</text>
<text text-anchor="start" x="248" y="-343.5" font-family="Helvetica,sans-Serif" font-size="10.00" fill="grey">m_CurrentSettingAlternate</text>
<text text-anchor="middle" x="306.12" y="-331.5" font-family="Helvetica,sans-Serif" font-size="10.00" fill="grey">KeyIndex</text>
<text text-anchor="middle" x="306.12" y="-319.5" font-family="Helvetica,sans-Serif" font-size="10.00" fill="grey">m_CurrentSettingKeyIndex</text>
</g>
<!-- Node4&#45;&gt;Node7 -->
<g id="edge10_Node000007_Node000004" class="edge">
<title>Node4&#45;&gt;Node7</title>
<g id="a_edge10_Node000007_Node000004"><a xlink:title=" ">
<path fill="none" stroke="#9a32cd" stroke-dasharray="5,2" d="M247.54,-505.34C305.72,-503.72 416.29,-498.15 450,-479 484.96,-459.14 469.33,-426.02 504.75,-407 558.95,-377.89 725.34,-415.2 781,-389 792.79,-383.45 802.46,-371.67 808.22,-363.31"/>
<polygon fill="#9a32cd" stroke="#9a32cd" points="247.72,-501.84 237.81,-505.59 247.9,-508.83 247.72,-501.84"/>
</a>
</g>
<text text-anchor="middle" x="562.12" y="-469.5" font-family="Helvetica,sans-Serif" font-size="10.00" fill="grey"> NO_SORTING</text>
<text text-anchor="middle" x="562.12" y="-457.5" font-family="Helvetica,sans-Serif" font-size="10.00" fill="grey">geomLevel</text>
<text text-anchor="middle" x="562.12" y="-445.5" font-family="Helvetica,sans-Serif" font-size="10.00" fill="grey">hierLevel</text>
<text text-anchor="start" x="504" y="-433.5" font-family="Helvetica,sans-Serif" font-size="10.00" fill="grey">m_CurrentSettingAlternate</text>
<text text-anchor="middle" x="562.12" y="-421.5" font-family="Helvetica,sans-Serif" font-size="10.00" fill="grey">KeyIndex</text>
<text text-anchor="middle" x="562.12" y="-409.5" font-family="Helvetica,sans-Serif" font-size="10.00" fill="grey">m_CurrentSettingKeyIndex</text>
</g>
<!-- Node4&#45;&gt;Node10 -->
<g id="edge17_Node000010_Node000004" class="edge">
<title>Node4&#45;&gt;Node10</title>
<g id="a_edge17_Node000010_Node000004"><a xlink:title=" ">
<path fill="none" stroke="#9a32cd" stroke-dasharray="5,2" d="M247.14,-494.55C292.65,-478.3 370.18,-444.23 414,-389 434.78,-362.81 411.5,-340.01 435.75,-317 451.1,-302.43 739.81,-237.99 851.45,-213.49"/>
<polygon fill="#9a32cd" stroke="#9a32cd" points="246.04,-491.23 237.73,-497.81 248.32,-497.85 246.04,-491.23"/>
</a>
</g>
<text text-anchor="middle" x="493.12" y="-379.5" font-family="Helvetica,sans-Serif" font-size="10.00" fill="grey"> NO_SORTING</text>
<text text-anchor="middle" x="493.12" y="-367.5" font-family="Helvetica,sans-Serif" font-size="10.00" fill="grey">geomLevel</text>
<text text-anchor="middle" x="493.12" y="-355.5" font-family="Helvetica,sans-Serif" font-size="10.00" fill="grey">hierLevel</text>
<text text-anchor="start" x="435" y="-343.5" font-family="Helvetica,sans-Serif" font-size="10.00" fill="grey">m_CurrentSettingAlternate</text>
<text text-anchor="middle" x="493.12" y="-331.5" font-family="Helvetica,sans-Serif" font-size="10.00" fill="grey">KeyIndex</text>
<text text-anchor="middle" x="493.12" y="-319.5" font-family="Helvetica,sans-Serif" font-size="10.00" fill="grey">m_CurrentSettingKeyIndex</text>
</g>
<!-- Node5&#45;&gt;Node2 -->
<g id="edge5_Node000002_Node000005" class="edge">
<title>Node5&#45;&gt;Node2</title>
<g id="a_edge5_Node000002_Node000005"><a xlink:title=" ">
<path fill="none" stroke="#9a32cd" stroke-dasharray="5,2" d="M510.19,-187.33C457.71,-159.64 345.45,-100.42 301.84,-77.41"/>
<polygon fill="#9a32cd" stroke="#9a32cd" points="508.32,-190.3 518.8,-191.87 511.59,-184.11 508.32,-190.3"/>
</a>
</g>
<text text-anchor="middle" x="436.38" y="-109.5" font-family="Helvetica,sans-Serif" font-size="10.00" fill="grey"> m_ParameterRemovalQueue</text>
<text text-anchor="middle" x="436.38" y="-97.5" font-family="Helvetica,sans-Serif" font-size="10.00" fill="grey">m_UpdatedParameters</text>
</g>
<!-- Node6 -->
<g id="Node000006" class="node">
<title>Node6</title>
<g id="a_Node000006"><a xlink:href="../../d8/d03/class_object.html" target="_top" xlink:title=" ">
<polygon fill="white" stroke="#666666" points="836.25,-517 791.75,-517 791.75,-497 836.25,-497 836.25,-517"/>
<text text-anchor="middle" x="814" y="-503.5" font-family="Helvetica,sans-Serif" font-size="10.00">Object</text>
</a>
</g>
</g>
<!-- Node6&#45;&gt;Node5 -->
<g id="edge6_Node000005_Node000006" class="edge">
<title>Node6&#45;&gt;Node5</title>
<g id="a_edge6_Node000005_Node000006"><a xlink:title=" ">
<path fill="none" stroke="#9a32cd" stroke-dasharray="5,2" d="M780.27,-504.61C758.68,-502.05 731.36,-495.45 713,-479 687.43,-456.09 700.36,-437.71 685,-407 679.73,-396.47 635.82,-326.6 629,-317 600.57,-276.95 562.65,-232.35 546.2,-213.37"/>
<polygon fill="#9a32cd" stroke="#9a32cd" points="779.8,-508.08 790.08,-505.52 780.45,-501.11 779.8,-508.08"/>
</a>
</g>
<text text-anchor="middle" x="686.5" y="-355.5" font-family="Helvetica,sans-Serif" font-size="10.00" fill="grey"> obj</text>
<text text-anchor="middle" x="686.5" y="-343.5" font-family="Helvetica,sans-Serif" font-size="10.00" fill="grey">parent</text>
</g>
<!-- Node6&#45;&gt;Node7 -->
<g id="edge9_Node000007_Node000006" class="edge">
<title>Node6&#45;&gt;Node7</title>
<g id="a_edge9_Node000007_Node000006"><a xlink:title=" ">
<path fill="none" stroke="#9a32cd" stroke-dasharray="5,2" d="M814,-485.47C814,-452.04 814,-387.17 814,-363.2"/>
<polygon fill="#9a32cd" stroke="#9a32cd" points="810.5,-485.43 814,-495.43 817.5,-485.43 810.5,-485.43"/>
</a>
</g>
<text text-anchor="middle" x="827.5" y="-445.5" font-family="Helvetica,sans-Serif" font-size="10.00" fill="grey"> obj</text>
<text text-anchor="middle" x="827.5" y="-433.5" font-family="Helvetica,sans-Serif" font-size="10.00" fill="grey">parent</text>
</g>
<!-- Node6&#45;&gt;Node10 -->
<g id="edge16_Node000010_Node000006" class="edge">
<title>Node6&#45;&gt;Node10</title>
<g id="a_edge16_Node000010_Node000006"><a xlink:title=" ">
<path fill="none" stroke="#9a32cd" stroke-dasharray="5,2" d="M834.87,-489.31C838.43,-486.06 841.95,-482.55 845,-479 904.61,-409.56 924.77,-388.25 945,-299 952.74,-264.83 922.15,-229.61 905.35,-213.31"/>
<polygon fill="#9a32cd" stroke="#9a32cd" points="832.68,-486.58 827.38,-495.75 837.24,-491.89 832.68,-486.58"/>
</a>
</g>
<text text-anchor="middle" x="953.5" y="-355.5" font-family="Helvetica,sans-Serif" font-size="10.00" fill="grey"> obj</text>
<text text-anchor="middle" x="953.5" y="-343.5" font-family="Helvetica,sans-Serif" font-size="10.00" fill="grey">parent</text>
</g>
<!-- Node7&#45;&gt;Node5 -->
<g id="edge8_Node000005_Node000007" class="edge">
<title>Node7&#45;&gt;Node5</title>
<g id="a_edge8_Node000005_Node000007"><a xlink:title=" ">
<path fill="none" stroke="#9a32cd" stroke-dasharray="5,2" d="M799.5,-333.96C794.12,-328.05 787.7,-321.77 781,-317 765.12,-305.69 758.54,-307.51 741,-299 730.63,-293.97 728.35,-292.08 718,-287 661.16,-259.09 593.04,-228.42 559.22,-213.38"/>
<polygon fill="#9a32cd" stroke="#9a32cd" points="796.82,-336.22 805.98,-341.55 802.14,-331.68 796.82,-336.22"/>
</a>
</g>
<text text-anchor="middle" x="762" y="-289.5" font-family="Helvetica,sans-Serif" font-size="10.00" fill="grey"> proxyInfo</text>
</g>
<!-- Node7&#45;&gt;Node7 -->
<g id="edge11_Node000007_Node000007" class="edge">
<title>Node7&#45;&gt;Node7</title>
<g id="a_edge11_Node000007_Node000007"><a xlink:title=" ">
<path fill="none" stroke="#9a32cd" stroke-dasharray="5,2" d="M842.02,-363.66C847.22,-362.34 850.88,-358.78 850.88,-353 850.88,-343.51 841.03,-340.02 830.69,-342.54"/>
<polygon fill="#9a32cd" stroke="#9a32cd" points="842.26,-360.17 832.2,-363.48 842.13,-367.16 842.26,-360.17"/>
</a>
</g>
<text text-anchor="middle" x="871.88" y="-349.5" font-family="Helvetica,sans-Serif" font-size="10.00" fill="grey"> proxyInfo</text>
</g>
<!-- Node7&#45;&gt;Node10 -->
<g id="edge18_Node000010_Node000007" class="edge">
<title>Node7&#45;&gt;Node10</title>
<g id="a_edge18_Node000010_Node000007"><a xlink:title=" ">
<path fill="none" stroke="#9a32cd" stroke-dasharray="5,2" d="M815.52,-331.54C817.11,-318.32 820.36,-301.03 827,-287 841.42,-256.52 869.44,-227.65 884.62,-213.35"/>
<polygon fill="#9a32cd" stroke="#9a32cd" points="812.06,-330.94 814.59,-341.22 819.03,-331.6 812.06,-330.94"/>
</a>
</g>
<text text-anchor="middle" x="848" y="-289.5" font-family="Helvetica,sans-Serif" font-size="10.00" fill="grey"> proxyInfo</text>
</g>
<!-- Node8 -->
<g id="Node000008" class="node">
<title>Node8</title>
<g id="a_Node000008"><a xlink:href="../../d4/d04/class_class.html" target="_top" xlink:title="Super root of all classes in Enforce script.">
<polygon fill="white" stroke="#666666" points="957.38,-517 916.62,-517 916.62,-497 957.38,-497 957.38,-517"/>
<text text-anchor="middle" x="937" y="-503.5" font-family="Helvetica,sans-Serif" font-size="10.00">Class</text>
</a>
</g>
</g>
<!-- Node8&#45;&gt;Node5 -->
<g id="edge23_Node000005_Node000008" class="edge">
<title>Node8&#45;&gt;Node5</title>
<g id="a_edge23_Node000005_Node000008"><a xlink:title=" ">
<path fill="none" stroke="#9a32cd" stroke-dasharray="5,2" d="M905.04,-504.85C878.04,-502.62 839.21,-496.33 810,-479 764.66,-452.1 760.59,-433.76 732.75,-389 714.37,-359.45 724.03,-343.93 702,-317 661.17,-267.08 592.79,-229.92 558.67,-213.43"/>
<polygon fill="#9a32cd" stroke="#9a32cd" points="904.46,-508.32 914.67,-505.5 904.93,-501.34 904.46,-508.32"/>
</a>
</g>
<text text-anchor="middle" x="758.62" y="-349.5" font-family="Helvetica,sans-Serif" font-size="10.00" fill="grey"> m_Instance</text>
</g>
<!-- Node8&#45;&gt;Node7 -->
<g id="edge12_Node000007_Node000008" class="edge">
<title>Node8&#45;&gt;Node7</title>
<g id="a_edge12_Node000007_Node000008"><a xlink:title=" ">
<path fill="none" stroke="#9a32cd" stroke-dasharray="5,2" d="M922.48,-488.06C896.14,-455.51 841.36,-387.81 821.44,-363.2"/>
<polygon fill="#9a32cd" stroke="#9a32cd" points="919.71,-490.2 928.72,-495.77 925.15,-485.79 919.71,-490.2"/>
</a>
</g>
<text text-anchor="middle" x="939.62" y="-439.5" font-family="Helvetica,sans-Serif" font-size="10.00" fill="grey"> m_Instance</text>
</g>
<!-- Node8&#45;&gt;Node10 -->
<g id="edge19_Node000010_Node000008" class="edge">
<title>Node8&#45;&gt;Node10</title>
<g id="a_edge19_Node000010_Node000008"><a xlink:title=" ">
<path fill="none" stroke="#9a32cd" stroke-dasharray="5,2" d="M968.87,-502.68C998.39,-498.87 1039.17,-491.48 1049,-479 1068.8,-453.86 1052.15,-438.84 1049,-407 1044.98,-366.41 1051.88,-352.04 1031,-317 1001.61,-267.69 942.59,-230.12 912.91,-213.46"/>
<polygon fill="#9a32cd" stroke="#9a32cd" points="968.82,-499.16 959.31,-503.83 969.66,-506.11 968.82,-499.16"/>
</a>
</g>
<text text-anchor="middle" x="1073.62" y="-349.5" font-family="Helvetica,sans-Serif" font-size="10.00" fill="grey"> m_Instance</text>
</g>
<!-- Node9 -->
<g id="Node000009" class="node">
<title>Node9</title>
<g id="a_Node000009"><a xlink:href="../../dd/d0a/class_widget.html" target="_top" xlink:title=" ">
<polygon fill="white" stroke="#666666" points="498.38,-517 451.62,-517 451.62,-497 498.38,-497 498.38,-517"/>
<text text-anchor="middle" x="475" y="-503.5" font-family="Helvetica,sans-Serif" font-size="10.00">Widget</text>
</a>
</g>
</g>
<!-- Node9&#45;&gt;Node5 -->
<g id="edge25_Node000005_Node000009" class="edge">
<title>Node9&#45;&gt;Node5</title>
<g id="a_edge25_Node000005_Node000009"><a xlink:title=" ">
<path fill="none" stroke="#9a32cd" stroke-dasharray="5,2" d="M454.53,-489.1C417.08,-456.03 344.29,-380.47 377.25,-317 405.63,-262.36 473.91,-228.59 511.71,-213.43"/>
<polygon fill="#9a32cd" stroke="#9a32cd" points="452.19,-491.7 462.05,-495.57 456.75,-486.39 452.19,-491.7"/>
</a>
</g>
<text text-anchor="middle" x="395.38" y="-349.5" font-family="Helvetica,sans-Serif" font-size="10.00" fill="grey"> m_Root</text>
</g>
<!-- Node9&#45;&gt;Node7 -->
<g id="edge14_Node000007_Node000009" class="edge">
<title>Node9&#45;&gt;Node7</title>
<g id="a_edge14_Node000007_Node000009"><a xlink:title=" ">
<path fill="none" stroke="#9a32cd" stroke-dasharray="5,2" d="M509.87,-503.16C540.85,-499.83 586.99,-492.9 625,-479 700.17,-451.5 718.21,-438.65 781,-389 790.7,-381.33 800.21,-370.83 806.51,-363.34"/>
<polygon fill="#9a32cd" stroke="#9a32cd" points="509.89,-499.64 500.29,-504.11 510.59,-506.6 509.89,-499.64"/>
</a>
</g>
<text text-anchor="middle" x="774.38" y="-439.5" font-family="Helvetica,sans-Serif" font-size="10.00" fill="grey"> m_Root</text>
</g>
<!-- Node9&#45;&gt;Node10 -->
<g id="edge21_Node000010_Node000009" class="edge">
<title>Node9&#45;&gt;Node10</title>
<g id="a_edge21_Node000010_Node000009"><a xlink:title=" ">
<path fill="none" stroke="#9a32cd" stroke-dasharray="5,2" d="M471.84,-485.37C469.69,-463.24 470.06,-428.41 489,-407 509.43,-383.91 532.54,-409.01 556,-389 582.68,-366.25 562.63,-340.93 588.25,-317 663.53,-246.69 786.25,-219.28 851.31,-209.28"/>
<polygon fill="#9a32cd" stroke="#9a32cd" points="468.36,-485.75 473.09,-495.23 475.31,-484.87 468.36,-485.75"/>
</a>
</g>
<text text-anchor="middle" x="606.38" y="-349.5" font-family="Helvetica,sans-Serif" font-size="10.00" fill="grey"> m_Root</text>
</g>
<!-- Node10&#45;&gt;Node7 -->
<g id="edge15_Node000007_Node000010" class="edge">
<title>Node10&#45;&gt;Node7</title>
<g id="a_edge15_Node000007_Node000010"><a xlink:title=" ">
<path fill="none" stroke="#9a32cd" stroke-dasharray="5,2" d="M893.81,-224.57C891.86,-244.76 886.69,-275.81 873,-299 862.08,-317.5 842.56,-333.13 828.98,-342.52"/>
<polygon fill="#9a32cd" stroke="#9a32cd" points="897.29,-225.06 894.56,-214.83 890.31,-224.53 897.29,-225.06"/>
</a>
</g>
<text text-anchor="middle" x="909.5" y="-289.5" font-family="Helvetica,sans-Serif" font-size="10.00" fill="grey"> m_Subgroups</text>
</g>
<!-- Node10&#45;&gt;Node10 -->
<g id="edge22_Node000010_Node000010" class="edge">
<title>Node10&#45;&gt;Node10</title>
<g id="a_edge22_Node000010_Node000010"><a xlink:title=" ">
<path fill="none" stroke="#9a32cd" stroke-dasharray="5,2" d="M919.2,-217.79C937.59,-223.14 956.25,-218.21 956.25,-203 956.25,-184.81 929.55,-181.32 908.54,-192.55"/>
<polygon fill="#9a32cd" stroke="#9a32cd" points="920.52,-214.55 909.94,-214.02 917.88,-221.03 920.52,-214.55"/>
</a>
</g>
<text text-anchor="middle" x="987.75" y="-199.5" font-family="Helvetica,sans-Serif" font-size="10.00" fill="grey"> m_Subgroups</text>
</g>
</g>
</svg>
