<?xml version="1.0" encoding="UTF-8" standalone="no"?>
<!DOCTYPE svg PUBLIC "-//W3C//DTD SVG 1.1//EN"
 "http://www.w3.org/Graphics/SVG/1.1/DTD/svg11.dtd">
<!-- Generated by graphviz version 11.0.0 (20240428.1522)
 -->
<!-- Title: ActionTakeHybridAttachmentToHands Pages: 1 -->
<svg width="241pt" height="244pt"
 viewBox="0.00 0.00 240.62 244.00" xmlns="http://www.w3.org/2000/svg" xmlns:xlink="http://www.w3.org/1999/xlink">

<svg id="main" version="1.1" xmlns="http://www.w3.org/2000/svg" xmlns:xlink="http://www.w3.org/1999/xlink" xml:space="preserve" onload="init(evt)">
<style type="text/css"><![CDATA[
.node, .edge {opacity: 0.7;}
.node.selected, .edge.selected {opacity: 1;}
.edge:hover path { stroke: red; }
.edge:hover polygon { stroke: red; fill: red; }
]]></style>
<script type="application/ecmascript" xlink:href="../../svg.min.js"/>
<svg id="graph" class="graph">
<g id="graph0" class="graph" transform="scale(1 1) rotate(0) translate(4 240)">
<title>ActionTakeHybridAttachmentToHands</title>
<!-- Node1 -->
<g id="Node000001" class="node">
<title>Node1</title>
<g id="a_Node000001"><a xlink:title=" ">
<polygon fill="#999999" stroke="#666666" points="187.5,-32 44.75,-32 44.75,0 187.5,0 187.5,-32"/>
<text text-anchor="start" x="52.75" y="-18.5" font-family="Helvetica,sans-Serif" font-size="10.00">ActionTakeHybridAttachment</text>
<text text-anchor="middle" x="116.12" y="-6.5" font-family="Helvetica,sans-Serif" font-size="10.00">ToHands</text>
</a>
</g>
</g>
<!-- Node2 -->
<g id="Node000002" class="node">
<title>Node2</title>
<g id="a_Node000002"><a xlink:href="../../d0/d0b/class_action_interact_base.html" target="_top" xlink:title=" ">
<polygon fill="white" stroke="#666666" points="165.38,-88 66.88,-88 66.88,-68 165.38,-68 165.38,-88"/>
<text text-anchor="middle" x="116.12" y="-74.5" font-family="Helvetica,sans-Serif" font-size="10.00">ActionInteractBase</text>
</a>
</g>
</g>
<!-- Node2&#45;&gt;Node1 -->
<g id="edge1_Node000001_Node000002" class="edge">
<title>Node2&#45;&gt;Node1</title>
<g id="a_edge1_Node000001_Node000002"><a xlink:title=" ">
<path fill="none" stroke="#8b1a1a" d="M116.12,-56.31C116.12,-48.37 116.12,-39.46 116.12,-32.14"/>
<polygon fill="#8b1a1a" stroke="#8b1a1a" points="112.63,-56.11 116.13,-66.11 119.63,-56.11 112.63,-56.11"/>
</a>
</g>
</g>
<!-- Node3 -->
<g id="Node000003" class="node">
<title>Node3</title>
<g id="a_Node000003"><a xlink:href="../../d7/d04/class_animated_action_base.html" target="_top" xlink:title=" ">
<polygon fill="white" stroke="#666666" points="124.88,-156 17.38,-156 17.38,-136 124.88,-136 124.88,-156"/>
<text text-anchor="middle" x="71.12" y="-142.5" font-family="Helvetica,sans-Serif" font-size="10.00">AnimatedActionBase</text>
</a>
</g>
</g>
<!-- Node3&#45;&gt;Node2 -->
<g id="edge2_Node000002_Node000003" class="edge">
<title>Node3&#45;&gt;Node2</title>
<g id="a_edge2_Node000002_Node000003"><a xlink:title=" ">
<path fill="none" stroke="#8b1a1a" d="M83.98,-126.15C92.39,-113.82 103.01,-98.23 109.69,-88.44"/>
<polygon fill="#8b1a1a" stroke="#8b1a1a" points="81.17,-124.06 78.43,-134.29 86.95,-128 81.17,-124.06"/>
</a>
</g>
</g>
<!-- Node4 -->
<g id="Node000004" class="node">
<title>Node4</title>
<g id="a_Node000004"><a xlink:title=" ">
<polygon fill="white" stroke="#666666" points="66.25,-236 0,-236 0,-216 66.25,-216 66.25,-236"/>
<text text-anchor="middle" x="33.12" y="-222.5" font-family="Helvetica,sans-Serif" font-size="10.00">ActionBase</text>
</a>
</g>
</g>
<!-- Node4&#45;&gt;Node3 -->
<g id="edge3_Node000003_Node000004" class="edge">
<title>Node4&#45;&gt;Node3</title>
<g id="a_edge3_Node000003_Node000004"><a xlink:title=" ">
<path fill="none" stroke="#8b1a1a" d="M42.62,-205.51C50.29,-189.77 60.74,-168.32 66.62,-156.24"/>
<polygon fill="#8b1a1a" stroke="#8b1a1a" points="39.53,-203.86 38.3,-214.39 45.82,-206.93 39.53,-203.86"/>
</a>
</g>
</g>
<!-- Node5 -->
<g id="Node000005" class="node">
<title>Node5</title>
<g id="a_Node000005"><a xlink:href="../../db/d06/class_param3.html" target="_top" xlink:title=" ">
<polygon fill="white" stroke="#666666" points="134,-236 84.25,-236 84.25,-216 134,-216 134,-236"/>
<text text-anchor="middle" x="109.12" y="-222.5" font-family="Helvetica,sans-Serif" font-size="10.00">Param3</text>
</a>
</g>
</g>
<!-- Node5&#45;&gt;Node3 -->
<g id="edge4_Node000003_Node000005" class="edge">
<title>Node5&#45;&gt;Node3</title>
<g id="a_edge4_Node000003_Node000005"><a xlink:title=" ">
<path fill="none" stroke="#9a32cd" stroke-dasharray="5,2" d="M99.63,-205.51C91.96,-189.77 81.51,-168.32 75.63,-156.24"/>
<polygon fill="#9a32cd" stroke="#9a32cd" points="96.43,-206.93 103.95,-214.39 102.72,-203.86 96.43,-206.93"/>
</a>
</g>
<text text-anchor="middle" x="145.62" y="-188.5" font-family="Helvetica,sans-Serif" font-size="10.00" fill="grey"> m_CommandUID</text>
<text text-anchor="middle" x="145.62" y="-176.5" font-family="Helvetica,sans-Serif" font-size="10.00" fill="grey">m_CommandUIDProne</text>
</g>
<!-- Node6 -->
<g id="Node000006" class="node">
<title>Node6</title>
<g id="a_Node000006"><a xlink:href="../../d5/d02/classstring.html" target="_top" xlink:title=" ">
<polygon fill="white" stroke="#666666" points="183.12,-156 143.12,-156 143.12,-136 183.12,-136 183.12,-156"/>
<text text-anchor="middle" x="163.12" y="-142.5" font-family="Helvetica,sans-Serif" font-size="10.00">string</text>
</a>
</g>
</g>
<!-- Node6&#45;&gt;Node2 -->
<g id="edge5_Node000002_Node000006" class="edge">
<title>Node6&#45;&gt;Node2</title>
<g id="a_edge5_Node000002_Node000006"><a xlink:title=" ">
<path fill="none" stroke="#9a32cd" stroke-dasharray="5,2" d="M149.96,-126.52C141.14,-114.13 129.89,-98.33 122.85,-88.44"/>
<polygon fill="#9a32cd" stroke="#9a32cd" points="146.86,-128.2 155.51,-134.31 152.56,-124.13 146.86,-128.2"/>
</a>
</g>
<text text-anchor="middle" x="184.75" y="-108.5" font-family="Helvetica,sans-Serif" font-size="10.00" fill="grey"> m_HUDCursorIcon</text>
</g>
<!-- Node6&#45;&gt;Node6 -->
<g id="edge6_Node000006_Node000006" class="edge">
<title>Node6&#45;&gt;Node6</title>
<g id="a_edge6_Node000006_Node000006"><a xlink:title=" ">
<path fill="none" stroke="#9a32cd" stroke-dasharray="5,2" d="M194.88,-151.47C198.66,-150.48 201.12,-148.65 201.12,-146 201.12,-141.15 192.89,-139.07 183.45,-139.75"/>
<polygon fill="#9a32cd" stroke="#9a32cd" points="194.7,-147.98 184.96,-152.15 195.18,-154.96 194.7,-147.98"/>
</a>
</g>
<text text-anchor="middle" x="216.88" y="-142.5" font-family="Helvetica,sans-Serif" font-size="10.00" fill="grey"> Empty</text>
</g>
</g>
</svg>
</svg>

<style type='text/css'>
<![CDATA[
[data-mouse-over-selected='false'] { opacity: 0.7; }
[data-mouse-over-selected='true']  { opacity: 1.0; }
]]>
</style>
<script type="application/ecmascript"><![CDATA[
document.addEventListener('DOMContentLoaded', (event) => {
  highlightEdges();
  highlightAdjacentNodes();
});
]]></script>
</svg>
