<?xml version="1.0" encoding="UTF-8" standalone="no"?>
<!DOCTYPE svg PUBLIC "-//W3C//DTD SVG 1.1//EN"
 "http://www.w3.org/Graphics/SVG/1.1/DTD/svg11.dtd">
<!-- Generated by graphviz version 11.0.0 (20240428.1522)
 -->
<!-- Title: SyncData Pages: 1 -->
<svg width="1609pt" height="566pt"
 viewBox="0.00 0.00 1608.75 565.91" xmlns="http://www.w3.org/2000/svg" xmlns:xlink="http://www.w3.org/1999/xlink">
<g id="graph0" class="graph" transform="scale(1 1) rotate(0) translate(4 561.91)">
<title>SyncData</title>
<!-- Node1 -->
<g id="Node000001" class="node">
<title>Node1</title>
<g id="a_Node000001"><a xlink:title=" ">
<polygon fill="#999999" stroke="#666666" points="678.38,-20 619.62,-20 619.62,0 678.38,0 678.38,-20"/>
<text text-anchor="middle" x="649" y="-6.5" font-family="Helvetica,sans-Serif" font-size="10.00">SyncData</text>
</a>
</g>
</g>
<!-- Node2 -->
<g id="Node000002" class="node">
<title>Node2</title>
<g id="a_Node000002"><a xlink:href="../../db/d06/class_param3.html" target="_top" xlink:title=" ">
<polygon fill="white" stroke="#666666" points="112.88,-556 63.12,-556 63.12,-536 112.88,-536 112.88,-556"/>
<text text-anchor="middle" x="88" y="-542.5" font-family="Helvetica,sans-Serif" font-size="10.00">Param3</text>
</a>
</g>
</g>
<!-- Node2&#45;&gt;Node1 -->
<g id="edge1_Node000001_Node000002" class="edge">
<title>Node2&#45;&gt;Node1</title>
<g id="a_edge1_Node000001_Node000002"><a xlink:title=" ">
<path fill="none" stroke="#9a32cd" stroke-dasharray="5,2" d="M60.15,-529.5C55.68,-526.14 51.41,-522.28 48,-518 10.96,-471.42 0,-452.51 0,-393 0,-393 0,-393 0,-77 0,-13.86 492.46,-10.64 619.43,-10.86"/>
<polygon fill="#9a32cd" stroke="#9a32cd" points="57.89,-532.2 68.15,-534.87 61.79,-526.39 57.89,-532.2"/>
</a>
</g>
<text text-anchor="middle" x="24.75" y="-188.5" font-family="Helvetica,sans-Serif" font-size="10.00" fill="grey"> m_SyncInt</text>
</g>
<!-- Node4 -->
<g id="Node000004" class="node">
<title>Node4</title>
<g id="a_Node000004"><a xlink:href="../../d2/d01/classarray.html" target="_top" xlink:title=" ">
<polygon fill="white" stroke="#666666" points="708.75,-156 589.25,-156 589.25,-136 708.75,-136 708.75,-156"/>
<text text-anchor="middle" x="649" y="-142.5" font-family="Helvetica,sans-Serif" font-size="10.00">array&lt; ref SyncPlayer &gt;</text>
</a>
</g>
</g>
<!-- Node2&#45;&gt;Node4 -->
<g id="edge5_Node000004_Node000002" class="edge">
<title>Node2&#45;&gt;Node4</title>
<g id="a_edge5_Node000004_Node000002"><a xlink:title=" ">
<path fill="none" stroke="#9a32cd" stroke-dasharray="5,2" d="M78.66,-525.38C56.71,-476.1 8.04,-345.42 67.75,-266 130,-183.21 453.21,-157.05 588.91,-149.65"/>
<polygon fill="#9a32cd" stroke="#9a32cd" points="75.36,-526.59 82.72,-534.22 81.72,-523.67 75.36,-526.59"/>
</a>
</g>
<text text-anchor="middle" x="126.12" y="-328.5" font-family="Helvetica,sans-Serif" font-size="10.00" fill="grey"> NO_SORTING</text>
<text text-anchor="middle" x="126.12" y="-316.5" font-family="Helvetica,sans-Serif" font-size="10.00" fill="grey">geomLevel</text>
<text text-anchor="middle" x="126.12" y="-304.5" font-family="Helvetica,sans-Serif" font-size="10.00" fill="grey">hierLevel</text>
<text text-anchor="start" x="68" y="-292.5" font-family="Helvetica,sans-Serif" font-size="10.00" fill="grey">m_CurrentSettingAlternate</text>
<text text-anchor="middle" x="126.12" y="-280.5" font-family="Helvetica,sans-Serif" font-size="10.00" fill="grey">KeyIndex</text>
<text text-anchor="middle" x="126.12" y="-268.5" font-family="Helvetica,sans-Serif" font-size="10.00" fill="grey">m_CurrentSettingKeyIndex</text>
</g>
<!-- Node6 -->
<g id="Node000006" class="node">
<title>Node6</title>
<g id="a_Node000006"><a xlink:href="../../d2/d01/classarray.html" target="_top" xlink:title="Result for an object found in CGame.IsBoxCollidingGeometryProxy.">
<polygon fill="white" stroke="#666666" points="558.88,-402 521.12,-402 521.12,-382 558.88,-382 558.88,-402"/>
<text text-anchor="middle" x="540" y="-388.5" font-family="Helvetica,sans-Serif" font-size="10.00">array</text>
</a>
</g>
</g>
<!-- Node2&#45;&gt;Node6 -->
<g id="edge8_Node000006_Node000002" class="edge">
<title>Node2&#45;&gt;Node6</title>
<g id="a_edge8_Node000006_Node000002"><a xlink:title=" ">
<path fill="none" stroke="#9a32cd" stroke-dasharray="5,2" d="M113.81,-530.08C154.15,-507.56 235.23,-465.46 309.75,-446 394.92,-423.76 427.84,-466.52 507,-428 518.71,-422.3 528.41,-410.55 534.19,-402.24"/>
<polygon fill="#9a32cd" stroke="#9a32cd" points="112.31,-526.9 105.33,-534.87 115.76,-533 112.31,-526.9"/>
</a>
</g>
<text text-anchor="middle" x="367.12" y="-508.5" font-family="Helvetica,sans-Serif" font-size="10.00" fill="grey"> NO_SORTING</text>
<text text-anchor="middle" x="367.12" y="-496.5" font-family="Helvetica,sans-Serif" font-size="10.00" fill="grey">geomLevel</text>
<text text-anchor="middle" x="367.12" y="-484.5" font-family="Helvetica,sans-Serif" font-size="10.00" fill="grey">hierLevel</text>
<text text-anchor="start" x="309" y="-472.5" font-family="Helvetica,sans-Serif" font-size="10.00" fill="grey">m_CurrentSettingAlternate</text>
<text text-anchor="middle" x="367.12" y="-460.5" font-family="Helvetica,sans-Serif" font-size="10.00" fill="grey">KeyIndex</text>
<text text-anchor="middle" x="367.12" y="-448.5" font-family="Helvetica,sans-Serif" font-size="10.00" fill="grey">m_CurrentSettingKeyIndex</text>
</g>
<!-- Node10 -->
<g id="Node000010" class="node">
<title>Node10</title>
<g id="a_Node000010"><a xlink:href="../../d2/d01/classarray.html" target="_top" xlink:title=" ">
<polygon fill="white" stroke="#666666" points="528.25,-248 441.75,-248 441.75,-228 528.25,-228 528.25,-248"/>
<text text-anchor="middle" x="485" y="-234.5" font-family="Helvetica,sans-Serif" font-size="10.00">array&lt; Widget &gt;</text>
</a>
</g>
</g>
<!-- Node2&#45;&gt;Node10 -->
<g id="edge16_Node000010_Node000002" class="edge">
<title>Node2&#45;&gt;Node10</title>
<g id="a_edge16_Node000010_Node000002"><a xlink:title=" ">
<path fill="none" stroke="#9a32cd" stroke-dasharray="5,2" d="M96.75,-525.61C124.27,-464.97 208.72,-282.05 233,-266 266.22,-244.04 378.44,-239.64 441.34,-238.94"/>
<polygon fill="#9a32cd" stroke="#9a32cd" points="93.72,-523.8 92.79,-534.35 100.1,-526.68 93.72,-523.8"/>
</a>
</g>
<text text-anchor="middle" x="234.12" y="-418.5" font-family="Helvetica,sans-Serif" font-size="10.00" fill="grey"> NO_SORTING</text>
<text text-anchor="middle" x="234.12" y="-406.5" font-family="Helvetica,sans-Serif" font-size="10.00" fill="grey">geomLevel</text>
<text text-anchor="middle" x="234.12" y="-394.5" font-family="Helvetica,sans-Serif" font-size="10.00" fill="grey">hierLevel</text>
<text text-anchor="start" x="176" y="-382.5" font-family="Helvetica,sans-Serif" font-size="10.00" fill="grey">m_CurrentSettingAlternate</text>
<text text-anchor="middle" x="234.12" y="-370.5" font-family="Helvetica,sans-Serif" font-size="10.00" fill="grey">KeyIndex</text>
<text text-anchor="middle" x="234.12" y="-358.5" font-family="Helvetica,sans-Serif" font-size="10.00" fill="grey">m_CurrentSettingKeyIndex</text>
</g>
<!-- Node3 -->
<g id="Node000003" class="node">
<title>Node3</title>
<g id="a_Node000003"><a xlink:href="../../d7/d0f/class_sync_player_list.html" target="_top" xlink:title=" ">
<polygon fill="white" stroke="#666666" points="690,-88 608,-88 608,-68 690,-68 690,-88"/>
<text text-anchor="middle" x="649" y="-74.5" font-family="Helvetica,sans-Serif" font-size="10.00">SyncPlayerList</text>
</a>
</g>
</g>
<!-- Node3&#45;&gt;Node1 -->
<g id="edge2_Node000001_Node000003" class="edge">
<title>Node3&#45;&gt;Node1</title>
<g id="a_edge2_Node000001_Node000003"><a xlink:title=" ">
<path fill="none" stroke="#9a32cd" stroke-dasharray="5,2" d="M649,-56.28C649,-44.27 649,-29.74 649,-20.44"/>
<polygon fill="#9a32cd" stroke="#9a32cd" points="645.5,-56.03 649,-66.03 652.5,-56.03 645.5,-56.03"/>
</a>
</g>
<text text-anchor="middle" x="692.5" y="-40.5" font-family="Helvetica,sans-Serif" font-size="10.00" fill="grey"> m_ServerPlayerList</text>
</g>
<!-- Node4&#45;&gt;Node3 -->
<g id="edge3_Node000003_Node000004" class="edge">
<title>Node4&#45;&gt;Node3</title>
<g id="a_edge3_Node000003_Node000004"><a xlink:title=" ">
<path fill="none" stroke="#9a32cd" stroke-dasharray="5,2" d="M649,-124.28C649,-112.27 649,-97.74 649,-88.44"/>
<polygon fill="#9a32cd" stroke="#9a32cd" points="645.5,-124.03 649,-134.03 652.5,-124.03 645.5,-124.03"/>
</a>
</g>
<text text-anchor="middle" x="679" y="-108.5" font-family="Helvetica,sans-Serif" font-size="10.00" fill="grey"> m_PlayerList</text>
</g>
<!-- Node5 -->
<g id="Node000005" class="node">
<title>Node5</title>
<g id="a_Node000005"><a xlink:href="../../d8/d03/class_object.html" target="_top" xlink:title=" ">
<polygon fill="white" stroke="#666666" points="677.25,-556 632.75,-556 632.75,-536 677.25,-536 677.25,-556"/>
<text text-anchor="middle" x="655" y="-542.5" font-family="Helvetica,sans-Serif" font-size="10.00">Object</text>
</a>
</g>
</g>
<!-- Node5&#45;&gt;Node4 -->
<g id="edge4_Node000004_Node000005" class="edge">
<title>Node5&#45;&gt;Node4</title>
<g id="a_edge4_Node000004_Node000005"><a xlink:title=" ">
<path fill="none" stroke="#9a32cd" stroke-dasharray="5,2" d="M688.84,-544.66C710.2,-542.54 736.56,-536.04 752,-518 825.06,-432.6 795.89,-376.03 773,-266 763.92,-222.35 766.05,-203.93 733,-174 724.14,-165.98 712.89,-160.34 701.51,-156.38"/>
<polygon fill="#9a32cd" stroke="#9a32cd" points="688.85,-541.16 679.11,-545.34 689.33,-548.14 688.85,-541.16"/>
</a>
</g>
<text text-anchor="middle" x="801.5" y="-304.5" font-family="Helvetica,sans-Serif" font-size="10.00" fill="grey"> obj</text>
<text text-anchor="middle" x="801.5" y="-292.5" font-family="Helvetica,sans-Serif" font-size="10.00" fill="grey">parent</text>
</g>
<!-- Node5&#45;&gt;Node6 -->
<g id="edge7_Node000006_Node000005" class="edge">
<title>Node5&#45;&gt;Node6</title>
<g id="a_edge7_Node000006_Node000005"><a xlink:title=" ">
<path fill="none" stroke="#9a32cd" stroke-dasharray="5,2" d="M625.99,-529.57C621.52,-526.22 617.3,-522.35 614,-518 593.7,-491.23 608.2,-474.85 591,-446 580.54,-428.45 563.23,-412.14 551.72,-402.37"/>
<polygon fill="#9a32cd" stroke="#9a32cd" points="623.77,-532.3 634.05,-534.88 627.63,-526.46 623.77,-532.3"/>
</a>
</g>
<text text-anchor="middle" x="627.5" y="-484.5" font-family="Helvetica,sans-Serif" font-size="10.00" fill="grey"> obj</text>
<text text-anchor="middle" x="627.5" y="-472.5" font-family="Helvetica,sans-Serif" font-size="10.00" fill="grey">parent</text>
</g>
<!-- Node5&#45;&gt;Node10 -->
<g id="edge15_Node000010_Node000005" class="edge">
<title>Node5&#45;&gt;Node10</title>
<g id="a_edge15_Node000010_Node000005"><a xlink:title=" ">
<path fill="none" stroke="#9a32cd" stroke-dasharray="5,2" d="M658.43,-524.27C665.71,-472.35 676.58,-335.91 604,-266 593.2,-255.6 557.99,-248.45 528.64,-244.13"/>
<polygon fill="#9a32cd" stroke="#9a32cd" points="654.98,-523.65 656.93,-534.06 661.9,-524.7 654.98,-523.65"/>
</a>
</g>
<text text-anchor="middle" x="676.5" y="-394.5" font-family="Helvetica,sans-Serif" font-size="10.00" fill="grey"> obj</text>
<text text-anchor="middle" x="676.5" y="-382.5" font-family="Helvetica,sans-Serif" font-size="10.00" fill="grey">parent</text>
</g>
<!-- Node6&#45;&gt;Node4 -->
<g id="edge6_Node000004_Node000006" class="edge">
<title>Node6&#45;&gt;Node4</title>
<g id="a_edge6_Node000004_Node000006"><a xlink:title=" ">
<path fill="none" stroke="#9a32cd" stroke-dasharray="5,2" d="M565.71,-375.52C579.03,-366.23 594.47,-353.26 604,-338 642.45,-276.46 648.07,-185.1 648.87,-156.15"/>
<polygon fill="#9a32cd" stroke="#9a32cd" points="564.17,-372.35 557.76,-380.78 568.03,-378.18 564.17,-372.35"/>
</a>
</g>
<text text-anchor="middle" x="662" y="-234.5" font-family="Helvetica,sans-Serif" font-size="10.00" fill="grey"> proxyInfo</text>
</g>
<!-- Node6&#45;&gt;Node6 -->
<g id="edge9_Node000006_Node000006" class="edge">
<title>Node6&#45;&gt;Node6</title>
<g id="a_edge9_Node000006_Node000006"><a xlink:title=" ">
<path fill="none" stroke="#9a32cd" stroke-dasharray="5,2" d="M557.83,-408.07C567.75,-411.07 576.88,-405.71 576.88,-392 576.88,-373.72 560.65,-370.29 547.97,-381.72"/>
<polygon fill="#9a32cd" stroke="#9a32cd" points="559.67,-405.09 549.27,-403.05 556.13,-411.13 559.67,-405.09"/>
</a>
</g>
<text text-anchor="middle" x="597.88" y="-388.5" font-family="Helvetica,sans-Serif" font-size="10.00" fill="grey"> proxyInfo</text>
</g>
<!-- Node6&#45;&gt;Node10 -->
<g id="edge17_Node000010_Node000006" class="edge">
<title>Node6&#45;&gt;Node10</title>
<g id="a_edge17_Node000010_Node000006"><a xlink:title=" ">
<path fill="none" stroke="#9a32cd" stroke-dasharray="5,2" d="M547.89,-371.01C556.9,-344.64 567.87,-297.85 547,-266 541.79,-258.05 533.67,-252.42 525,-248.45"/>
<polygon fill="#9a32cd" stroke="#9a32cd" points="544.7,-369.55 544.54,-380.14 551.27,-371.96 544.7,-369.55"/>
</a>
</g>
<text text-anchor="middle" x="579" y="-298.5" font-family="Helvetica,sans-Serif" font-size="10.00" fill="grey"> proxyInfo</text>
</g>
<!-- Node12 -->
<g id="Node000012" class="node">
<title>Node12</title>
<g id="a_Node000012"><a xlink:href="../../df/d09/class_entity_a_i.html" target="_top" xlink:title=" ">
<polygon fill="white" stroke="#666666" points="1232.25,-248 1181.75,-248 1181.75,-228 1232.25,-228 1232.25,-248"/>
<text text-anchor="middle" x="1207" y="-234.5" font-family="Helvetica,sans-Serif" font-size="10.00">EntityAI</text>
</a>
</g>
</g>
<!-- Node6&#45;&gt;Node12 -->
<g id="edge28_Node000012_Node000006" class="edge">
<title>Node6&#45;&gt;Node12</title>
<g id="a_edge28_Node000012_Node000006"><a xlink:title=" ">
<path fill="none" stroke="#9a32cd" stroke-dasharray="5,2" d="M569.52,-377.57C587.5,-369.98 611.14,-361.04 633,-356 674.98,-346.33 789.36,-360.66 826,-338 858.04,-318.18 838.58,-285.61 870.75,-266 897.07,-249.96 1107.45,-242.04 1181.4,-239.74"/>
<polygon fill="#9a32cd" stroke="#9a32cd" points="568.3,-374.29 560.52,-381.47 571.08,-380.71 568.3,-374.29"/>
</a>
</g>
<text text-anchor="middle" x="919.12" y="-310.5" font-family="Helvetica,sans-Serif" font-size="10.00" fill="grey"> m_ContinuousActions</text>
<text text-anchor="middle" x="919.12" y="-298.5" font-family="Helvetica,sans-Serif" font-size="10.00" fill="grey">m_InteractActions</text>
<text text-anchor="middle" x="919.12" y="-286.5" font-family="Helvetica,sans-Serif" font-size="10.00" fill="grey">m_SingleUseActions</text>
</g>
<!-- Node7 -->
<g id="Node000007" class="node">
<title>Node7</title>
<g id="a_Node000007"><a xlink:href="../../d4/d04/class_class.html" target="_top" xlink:title="Super root of all classes in Enforce script.">
<polygon fill="white" stroke="#666666" points="557.38,-556 516.62,-556 516.62,-536 557.38,-536 557.38,-556"/>
<text text-anchor="middle" x="537" y="-542.5" font-family="Helvetica,sans-Serif" font-size="10.00">Class</text>
</a>
</g>
</g>
<!-- Node7&#45;&gt;Node4 -->
<g id="edge22_Node000004_Node000007" class="edge">
<title>Node7&#45;&gt;Node4</title>
<g id="a_edge22_Node000004_Node000007"><a xlink:title=" ">
<path fill="none" stroke="#9a32cd" stroke-dasharray="5,2" d="M569,-541.47C621.09,-535.58 718.97,-523.81 724,-518 740.81,-498.59 711.29,-305.59 687,-228 678.46,-200.72 662.57,-170.81 654.3,-156.14"/>
<polygon fill="#9a32cd" stroke="#9a32cd" points="568.78,-537.98 559.23,-542.57 569.56,-544.93 568.78,-537.98"/>
</a>
</g>
<text text-anchor="middle" x="737.62" y="-298.5" font-family="Helvetica,sans-Serif" font-size="10.00" fill="grey"> m_Instance</text>
</g>
<!-- Node7&#45;&gt;Node6 -->
<g id="edge10_Node000006_Node000007" class="edge">
<title>Node7&#45;&gt;Node6</title>
<g id="a_edge10_Node000006_Node000007"><a xlink:title=" ">
<path fill="none" stroke="#9a32cd" stroke-dasharray="5,2" d="M536.95,-524.33C536.95,-504.3 537.07,-473.06 537.75,-446 538.13,-430.72 538.96,-412.97 539.5,-402.38"/>
<polygon fill="#9a32cd" stroke="#9a32cd" points="533.45,-524.21 536.96,-534.2 540.45,-524.2 533.45,-524.21"/>
</a>
</g>
<text text-anchor="middle" x="563.62" y="-478.5" font-family="Helvetica,sans-Serif" font-size="10.00" fill="grey"> m_Instance</text>
</g>
<!-- Node7&#45;&gt;Node10 -->
<g id="edge18_Node000010_Node000007" class="edge">
<title>Node7&#45;&gt;Node10</title>
<g id="a_edge18_Node000010_Node000007"><a xlink:title=" ">
<path fill="none" stroke="#9a32cd" stroke-dasharray="5,2" d="M531.43,-524.95C524.6,-503.36 511.25,-469.01 490,-446 479.12,-434.23 466.77,-441.88 458.75,-428 422.62,-365.49 449.19,-334.83 471,-266 472.98,-259.76 476.32,-253.23 479.25,-248.15"/>
<polygon fill="#9a32cd" stroke="#9a32cd" points="528,-525.71 534.2,-534.3 534.71,-523.72 528,-525.71"/>
</a>
</g>
<text text-anchor="middle" x="484.62" y="-388.5" font-family="Helvetica,sans-Serif" font-size="10.00" fill="grey"> m_Instance</text>
</g>
<!-- Node8 -->
<g id="Node000008" class="node">
<title>Node8</title>
<g id="a_Node000008"><a xlink:href="../../d5/d02/classstring.html" target="_top" xlink:title=" ">
<polygon fill="white" stroke="#666666" points="935,-556 895,-556 895,-536 935,-536 935,-556"/>
<text text-anchor="middle" x="915" y="-542.5" font-family="Helvetica,sans-Serif" font-size="10.00">string</text>
</a>
</g>
</g>
<!-- Node8&#45;&gt;Node4 -->
<g id="edge23_Node000004_Node000008" class="edge">
<title>Node8&#45;&gt;Node4</title>
<g id="a_edge23_Node000004_Node000008"><a xlink:title=" ">
<path fill="none" stroke="#9a32cd" stroke-dasharray="5,2" d="M927.14,-526.3C956.37,-478.7 1024.27,-350.72 969,-266 912.65,-179.62 785.07,-155.69 709.12,-149.22"/>
<polygon fill="#9a32cd" stroke="#9a32cd" points="924.27,-524.29 921.9,-534.62 930.19,-528.03 924.27,-524.29"/>
</a>
</g>
<text text-anchor="middle" x="1006.62" y="-298.5" font-family="Helvetica,sans-Serif" font-size="10.00" fill="grey"> m_Test</text>
</g>
<!-- Node8&#45;&gt;Node6 -->
<g id="edge11_Node000006_Node000008" class="edge">
<title>Node8&#45;&gt;Node6</title>
<g id="a_edge11_Node000006_Node000008"><a xlink:title=" ">
<path fill="none" stroke="#9a32cd" stroke-dasharray="5,2" d="M883.32,-540.44C857.63,-536.2 820.73,-528.89 789.75,-518 783.68,-515.86 615.6,-431.15 558.66,-402.42"/>
<polygon fill="#9a32cd" stroke="#9a32cd" points="882.69,-543.88 893.12,-541.98 883.79,-536.97 882.69,-543.88"/>
</a>
</g>
<text text-anchor="middle" x="806.62" y="-478.5" font-family="Helvetica,sans-Serif" font-size="10.00" fill="grey"> m_Test</text>
</g>
<!-- Node8&#45;&gt;Node8 -->
<g id="edge12_Node000008_Node000008" class="edge">
<title>Node8&#45;&gt;Node8</title>
<g id="a_edge12_Node000008_Node000008"><a xlink:title=" ">
<path fill="none" stroke="#9a32cd" stroke-dasharray="5,2" d="M940.77,-557.91C947.72,-557.28 953,-553.31 953,-546 953,-535.12 941.3,-531.64 929.82,-535.55"/>
<polygon fill="#9a32cd" stroke="#9a32cd" points="941.7,-554.5 931.32,-556.65 940.77,-561.44 941.7,-554.5"/>
</a>
</g>
<text text-anchor="middle" x="968.75" y="-542.5" font-family="Helvetica,sans-Serif" font-size="10.00" fill="grey"> Empty</text>
</g>
<!-- Node8&#45;&gt;Node10 -->
<g id="edge19_Node000010_Node000008" class="edge">
<title>Node8&#45;&gt;Node10</title>
<g id="a_edge19_Node000010_Node000008"><a xlink:title=" ">
<path fill="none" stroke="#9a32cd" stroke-dasharray="5,2" d="M909.06,-524.99C890.43,-462.46 833.69,-274.4 823,-266 817.28,-261.5 618.71,-247.84 528.65,-241.86"/>
<polygon fill="#9a32cd" stroke="#9a32cd" points="905.62,-525.69 911.83,-534.28 912.33,-523.7 905.62,-525.69"/>
</a>
</g>
<text text-anchor="middle" x="896.62" y="-388.5" font-family="Helvetica,sans-Serif" font-size="10.00" fill="grey"> m_Test</text>
</g>
<!-- Node14 -->
<g id="Node000014" class="node">
<title>Node14</title>
<g id="a_Node000014"><a xlink:href="../../d4/d0d/class_sound_lookup_table.html" target="_top" xlink:title=" ">
<polygon fill="white" stroke="#666666" points="1232.25,-402 1133.75,-402 1133.75,-382 1232.25,-382 1232.25,-402"/>
<text text-anchor="middle" x="1183" y="-388.5" font-family="Helvetica,sans-Serif" font-size="10.00">SoundLookupTable</text>
</a>
</g>
</g>
<!-- Node8&#45;&gt;Node14 -->
<g id="edge32_Node000014_Node000008" class="edge">
<title>Node8&#45;&gt;Node14</title>
<g id="a_edge32_Node000014_Node000008"><a xlink:title=" ">
<path fill="none" stroke="#9a32cd" stroke-dasharray="5,2" d="M946.52,-538.18C964.23,-533.71 986.43,-527.01 1005,-518 1074.3,-484.37 1146.19,-424.96 1172.53,-402.21"/>
<polygon fill="#9a32cd" stroke="#9a32cd" points="945.73,-534.77 936.82,-540.51 947.36,-541.58 945.73,-534.77"/>
</a>
</g>
<text text-anchor="middle" x="1163.5" y="-484.5" font-family="Helvetica,sans-Serif" font-size="10.00" fill="grey"> m_parameterName</text>
<text text-anchor="middle" x="1163.5" y="-472.5" font-family="Helvetica,sans-Serif" font-size="10.00" fill="grey">m_tableCategoryName</text>
</g>
<!-- Node9 -->
<g id="Node000009" class="node">
<title>Node9</title>
<g id="a_Node000009"><a xlink:href="../../dd/d0a/class_widget.html" target="_top" xlink:title=" ">
<polygon fill="white" stroke="#666666" points="303.38,-556 256.62,-556 256.62,-536 303.38,-536 303.38,-556"/>
<text text-anchor="middle" x="280" y="-542.5" font-family="Helvetica,sans-Serif" font-size="10.00">Widget</text>
</a>
</g>
</g>
<!-- Node9&#45;&gt;Node4 -->
<g id="edge24_Node000004_Node000009" class="edge">
<title>Node9&#45;&gt;Node4</title>
<g id="a_edge24_Node000004_Node000009"><a xlink:title=" ">
<path fill="none" stroke="#9a32cd" stroke-dasharray="5,2" d="M275.8,-524.5C275.47,-522.31 275.19,-520.12 275,-518 272.07,-486.13 270.9,-477.74 275,-446 285.59,-363.97 269.6,-329.79 322.25,-266 388.64,-185.57 514.22,-159.5 588.87,-151.05"/>
<polygon fill="#9a32cd" stroke="#9a32cd" points="272.31,-524.86 277.54,-534.07 279.19,-523.61 272.31,-524.86"/>
</a>
</g>
<text text-anchor="middle" x="340.38" y="-298.5" font-family="Helvetica,sans-Serif" font-size="10.00" fill="grey"> m_Root</text>
</g>
<!-- Node9&#45;&gt;Node6 -->
<g id="edge13_Node000006_Node000009" class="edge">
<title>Node9&#45;&gt;Node6</title>
<g id="a_edge13_Node000006_Node000009"><a xlink:title=" ">
<path fill="none" stroke="#9a32cd" stroke-dasharray="5,2" d="M315.11,-545.11C346.99,-543.78 394.34,-538.12 430,-518 436.67,-514.24 507.73,-430.98 531.96,-402.47"/>
<polygon fill="#9a32cd" stroke="#9a32cd" points="315.11,-541.61 305.21,-545.39 315.31,-548.61 315.11,-541.61"/>
</a>
</g>
<text text-anchor="middle" x="512.38" y="-478.5" font-family="Helvetica,sans-Serif" font-size="10.00" fill="grey"> m_Root</text>
</g>
<!-- Node9&#45;&gt;Node10 -->
<g id="edge20_Node000010_Node000009" class="edge">
<title>Node9&#45;&gt;Node10</title>
<g id="a_edge20_Node000010_Node000009"><a xlink:title=" ">
<path fill="none" stroke="#9a32cd" stroke-dasharray="5,2" d="M279.72,-524.04C280.18,-503.37 282.88,-471.28 294,-446 335.69,-351.19 364.25,-334.42 442,-266 449.68,-259.24 459.22,-253.07 467.37,-248.33"/>
<polygon fill="#9a32cd" stroke="#9a32cd" points="276.22,-524.01 279.68,-534.02 283.22,-524.04 276.22,-524.01"/>
</a>
</g>
<text text-anchor="middle" x="363.38" y="-388.5" font-family="Helvetica,sans-Serif" font-size="10.00" fill="grey"> m_Root</text>
</g>
<!-- Node10&#45;&gt;Node4 -->
<g id="edge25_Node000004_Node000010" class="edge">
<title>Node10&#45;&gt;Node4</title>
<g id="a_edge25_Node000004_Node000010"><a xlink:title=" ">
<path fill="none" stroke="#9a32cd" stroke-dasharray="5,2" d="M504.3,-220.5C521.25,-206.63 547.04,-187.06 572,-174 585.68,-166.84 601.67,-160.89 615.52,-156.4"/>
<polygon fill="#9a32cd" stroke="#9a32cd" points="502.46,-217.47 497.01,-226.56 506.94,-222.85 502.46,-217.47"/>
</a>
</g>
<text text-anchor="middle" x="603.5" y="-188.5" font-family="Helvetica,sans-Serif" font-size="10.00" fill="grey"> m_Subgroups</text>
</g>
<!-- Node10&#45;&gt;Node6 -->
<g id="edge14_Node000006_Node000010" class="edge">
<title>Node10&#45;&gt;Node6</title>
<g id="a_edge14_Node000006_Node000010"><a xlink:title=" ">
<path fill="none" stroke="#9a32cd" stroke-dasharray="5,2" d="M479.71,-259.34C475.42,-280.21 471.85,-313.06 484,-338 489.69,-349.67 497.41,-347.25 507,-356 516.01,-364.22 525.48,-374.44 531.95,-381.72"/>
<polygon fill="#9a32cd" stroke="#9a32cd" points="483.08,-260.34 481.94,-249.81 476.26,-258.75 483.08,-260.34"/>
</a>
</g>
<text text-anchor="middle" x="515.5" y="-298.5" font-family="Helvetica,sans-Serif" font-size="10.00" fill="grey"> m_Subgroups</text>
</g>
<!-- Node10&#45;&gt;Node10 -->
<g id="edge21_Node000010_Node000010" class="edge">
<title>Node10&#45;&gt;Node10</title>
<g id="a_edge21_Node000010_Node000010"><a xlink:title=" ">
<path fill="none" stroke="#9a32cd" stroke-dasharray="5,2" d="M539.63,-244.44C543.73,-243 546.25,-240.86 546.25,-238 546.25,-233.06 538.71,-230.24 528.49,-229.55"/>
<polygon fill="#9a32cd" stroke="#9a32cd" points="539.2,-240.96 529.98,-246.19 540.44,-247.85 539.2,-240.96"/>
</a>
</g>
<text text-anchor="middle" x="577.75" y="-234.5" font-family="Helvetica,sans-Serif" font-size="10.00" fill="grey"> m_Subgroups</text>
</g>
<!-- Node11 -->
<g id="Node000011" class="node">
<title>Node11</title>
<g id="a_Node000011"><a xlink:href="../../d9/d00/class_sync_entity_kill_info.html" target="_top" xlink:title=" ">
<polygon fill="white" stroke="#666666" points="1253.25,-156 1160.75,-156 1160.75,-136 1253.25,-136 1253.25,-156"/>
<text text-anchor="middle" x="1207" y="-142.5" font-family="Helvetica,sans-Serif" font-size="10.00">SyncEntityKillInfo</text>
</a>
</g>
</g>
<!-- Node11&#45;&gt;Node1 -->
<g id="edge26_Node000001_Node000011" class="edge">
<title>Node11&#45;&gt;Node1</title>
<g id="a_edge26_Node000001_Node000011"><a xlink:title=" ">
<path fill="none" stroke="#9a32cd" stroke-dasharray="5,2" d="M1156.63,-132.9C1042.95,-105.6 769.34,-39.9 678.72,-18.14"/>
<polygon fill="#9a32cd" stroke="#9a32cd" points="1155.75,-136.29 1166.29,-135.22 1157.38,-129.49 1155.75,-136.29"/>
</a>
</g>
<text text-anchor="middle" x="992.75" y="-74.5" font-family="Helvetica,sans-Serif" font-size="10.00" fill="grey"> m_EntityKill</text>
</g>
<!-- Node12&#45;&gt;Node11 -->
<g id="edge27_Node000011_Node000012" class="edge">
<title>Node12&#45;&gt;Node11</title>
<g id="a_edge27_Node000011_Node000012"><a xlink:title=" ">
<path fill="none" stroke="#9a32cd" stroke-dasharray="5,2" d="M1207,-216.2C1207,-197.36 1207,-170.44 1207,-156.38"/>
<polygon fill="#9a32cd" stroke="#9a32cd" points="1203.5,-216.19 1207,-226.19 1210.5,-216.19 1203.5,-216.19"/>
</a>
</g>
<text text-anchor="middle" x="1241.88" y="-200.5" font-family="Helvetica,sans-Serif" font-size="10.00" fill="grey"> m_EntityKiller</text>
<text text-anchor="middle" x="1241.88" y="-188.5" font-family="Helvetica,sans-Serif" font-size="10.00" fill="grey">m_EntitySource</text>
<text text-anchor="middle" x="1241.88" y="-176.5" font-family="Helvetica,sans-Serif" font-size="10.00" fill="grey">m_EntityVictim</text>
</g>
<!-- Node13 -->
<g id="Node000013" class="node">
<title>Node13</title>
<g id="a_Node000013"><a xlink:href="../../d4/d03/classfloat.html" target="_top" xlink:title=" ">
<polygon fill="white" stroke="#666666" points="1344,-402 1310,-402 1310,-382 1344,-382 1344,-402"/>
<text text-anchor="middle" x="1327" y="-388.5" font-family="Helvetica,sans-Serif" font-size="10.00">float</text>
</a>
</g>
</g>
<!-- Node13&#45;&gt;Node12 -->
<g id="edge29_Node000012_Node000013" class="edge">
<title>Node13&#45;&gt;Node12</title>
<g id="a_edge29_Node000012_Node000013"><a xlink:title=" ">
<path fill="none" stroke="#9a32cd" stroke-dasharray="5,2" d="M1325.62,-370.29C1323.11,-338.8 1316.73,-280.94 1303,-266 1285.08,-246.49 1254.29,-240.66 1232.41,-239.12"/>
<polygon fill="#9a32cd" stroke="#9a32cd" points="1322.12,-370.4 1326.34,-380.12 1329.1,-369.89 1322.12,-370.4"/>
</a>
</g>
<text text-anchor="middle" x="1379.75" y="-304.5" font-family="Helvetica,sans-Serif" font-size="10.00" fill="grey"> SOUND_CONTACT_SKIP</text>
<text text-anchor="middle" x="1379.75" y="-292.5" font-family="Helvetica,sans-Serif" font-size="10.00" fill="grey">m_SoundContactTickTime</text>
</g>
<!-- Node13&#45;&gt;Node13 -->
<g id="edge30_Node000013_Node000013" class="edge">
<title>Node13&#45;&gt;Node13</title>
<g id="a_edge30_Node000013_Node000013"><a xlink:title=" ">
<path fill="none" stroke="#9a32cd" stroke-dasharray="5,2" d="M1344.22,-408.16C1353.52,-410.95 1362,-405.57 1362,-392 1362,-373.72 1346.6,-370.29 1334.56,-381.72"/>
<polygon fill="#9a32cd" stroke="#9a32cd" points="1346.22,-405.28 1335.86,-403.07 1342.58,-411.26 1346.22,-405.28"/>
</a>
</g>
<text text-anchor="middle" x="1384.12" y="-400.5" font-family="Helvetica,sans-Serif" font-size="10.00" fill="grey"> LOWEST</text>
<text text-anchor="middle" x="1384.12" y="-388.5" font-family="Helvetica,sans-Serif" font-size="10.00" fill="grey">MAX</text>
<text text-anchor="middle" x="1384.12" y="-376.5" font-family="Helvetica,sans-Serif" font-size="10.00" fill="grey">MIN</text>
</g>
<!-- Node14&#45;&gt;Node12 -->
<g id="edge31_Node000012_Node000014" class="edge">
<title>Node14&#45;&gt;Node12</title>
<g id="a_edge31_Node000012_Node000014"><a xlink:title=" ">
<path fill="none" stroke="#9a32cd" stroke-dasharray="5,2" d="M1186.17,-370.91C1191.43,-337.61 1201.75,-272.28 1205.55,-248.2"/>
<polygon fill="#9a32cd" stroke="#9a32cd" points="1182.77,-370.03 1184.67,-380.45 1189.68,-371.12 1182.77,-370.03"/>
</a>
</g>
<text text-anchor="middle" x="1250.38" y="-298.5" font-family="Helvetica,sans-Serif" font-size="10.00" fill="grey"> m_SoundImpactTable</text>
</g>
<!-- Node15 -->
<g id="Node000015" class="node">
<title>Node15</title>
<g id="a_Node000015"><a xlink:href="../../d9/d09/classbool.html" target="_top" xlink:title=" ">
<polygon fill="white" stroke="#666666" points="1533,-402 1499,-402 1499,-382 1533,-382 1533,-402"/>
<text text-anchor="middle" x="1516" y="-388.5" font-family="Helvetica,sans-Serif" font-size="10.00">bool</text>
</a>
</g>
</g>
<!-- Node15&#45;&gt;Node11 -->
<g id="edge35_Node000011_Node000015" class="edge">
<title>Node15&#45;&gt;Node11</title>
<g id="a_edge35_Node000011_Node000015"><a xlink:title=" ">
<path fill="none" stroke="#9a32cd" stroke-dasharray="5,2" d="M1532.08,-373.18C1539.72,-363.51 1548.03,-350.92 1552,-338 1561.41,-307.41 1570.58,-292.06 1552,-266 1483.22,-169.52 1330.84,-150.5 1253.69,-147.25"/>
<polygon fill="#9a32cd" stroke="#9a32cd" points="1529.58,-370.71 1525.83,-380.62 1534.94,-375.22 1529.58,-370.71"/>
</a>
</g>
<text text-anchor="middle" x="1567.38" y="-234.5" font-family="Helvetica,sans-Serif" font-size="10.00" fill="grey"> m_IsHeadShot</text>
</g>
<!-- Node15&#45;&gt;Node12 -->
<g id="edge33_Node000012_Node000015" class="edge">
<title>Node15&#45;&gt;Node12</title>
<g id="a_edge33_Node000012_Node000015"><a xlink:title=" ">
<path fill="none" stroke="#9a32cd" stroke-dasharray="5,2" d="M1497.16,-374.16C1487.16,-364.41 1475.31,-351.43 1467.25,-338 1449.8,-308.92 1468.5,-287.16 1442,-266 1410.15,-240.56 1286.4,-238.34 1232.42,-238.62"/>
<polygon fill="#9a32cd" stroke="#9a32cd" points="1494.53,-376.5 1504.22,-380.8 1499.33,-371.4 1494.53,-376.5"/>
</a>
</g>
<text text-anchor="middle" x="1509.38" y="-304.5" font-family="Helvetica,sans-Serif" font-size="10.00" fill="grey"> m_ActionsInitialize</text>
<text text-anchor="middle" x="1509.38" y="-292.5" font-family="Helvetica,sans-Serif" font-size="10.00" fill="grey">m_IsMeleeWeapon</text>
</g>
<!-- Node16 -->
<g id="Node000016" class="node">
<title>Node16</title>
<g id="a_Node000016"><a xlink:href="../../d4/d0d/class_script_invoker.html" target="_top" xlink:title="ScriptInvoker Class provide list of callbacks &#160;&#160;usage:">
<polygon fill="white" stroke="#666666" points="1090.75,-402 1019.25,-402 1019.25,-382 1090.75,-382 1090.75,-402"/>
<text text-anchor="middle" x="1055" y="-388.5" font-family="Helvetica,sans-Serif" font-size="10.00">ScriptInvoker</text>
</a>
</g>
</g>
<!-- Node16&#45;&gt;Node12 -->
<g id="edge34_Node000012_Node000016" class="edge">
<title>Node16&#45;&gt;Node12</title>
<g id="a_edge34_Node000012_Node000016"><a xlink:title=" ">
<path fill="none" stroke="#9a32cd" stroke-dasharray="5,2" d="M1047.24,-370.99C1038.16,-343.85 1027.29,-295.39 1052,-266 1068.22,-246.71 1141.57,-241.2 1181.28,-239.63"/>
<polygon fill="#9a32cd" stroke="#9a32cd" points="1043.95,-372.18 1050.64,-380.39 1050.53,-369.8 1043.95,-372.18"/>
</a>
</g>
<text text-anchor="middle" x="1119.5" y="-304.5" font-family="Helvetica,sans-Serif" font-size="10.00" fill="grey"> m_OnItemAddedToHands</text>
<text text-anchor="middle" x="1119.5" y="-292.5" font-family="Helvetica,sans-Serif" font-size="10.00" fill="grey">m_OnItemRemovedFromHands</text>
</g>
</g>
</svg>
