<?xml version="1.0" encoding="UTF-8" standalone="no"?>
<!DOCTYPE svg PUBLIC "-//W3C//DTD SVG 1.1//EN"
 "http://www.w3.org/Graphics/SVG/1.1/DTD/svg11.dtd">
<!-- Generated by graphviz version 11.0.0 (20240428.1522)
 -->
<!-- Title: GPSReceiver Pages: 1 -->
<svg width="1159pt" height="394pt"
 viewBox="0.00 0.00 1158.62 393.91" xmlns="http://www.w3.org/2000/svg" xmlns:xlink="http://www.w3.org/1999/xlink">
<g id="graph0" class="graph" transform="scale(1 1) rotate(0) translate(4 389.91)">
<title>GPSReceiver</title>
<!-- Node1 -->
<g id="Node000001" class="node">
<title>Node1</title>
<g id="a_Node000001"><a xlink:title=" ">
<polygon fill="#999999" stroke="#666666" points="120.75,-20 47,-20 47,0 120.75,0 120.75,-20"/>
<text text-anchor="middle" x="83.88" y="-6.5" font-family="Helvetica,sans-Serif" font-size="10.00">GPSReceiver</text>
</a>
</g>
</g>
<!-- Node2 -->
<g id="Node000002" class="node">
<title>Node2</title>
<g id="a_Node000002"><a xlink:title=" ">
<polygon fill="white" stroke="#666666" points="55.75,-100 0,-100 0,-80 55.75,-80 55.75,-100"/>
<text text-anchor="middle" x="27.88" y="-86.5" font-family="Helvetica,sans-Serif" font-size="10.00">ItemGPS</text>
</a>
</g>
</g>
<!-- Node2&#45;&gt;Node1 -->
<g id="edge1_Node000001_Node000002" class="edge">
<title>Node2&#45;&gt;Node1</title>
<g id="a_edge1_Node000001_Node000002"><a xlink:title=" ">
<path fill="none" stroke="#8b1a1a" d="M41.21,-70.42C52.57,-54.6 68.4,-32.55 77.24,-20.24"/>
<polygon fill="#8b1a1a" stroke="#8b1a1a" points="38.39,-68.35 35.4,-78.52 44.08,-72.43 38.39,-68.35"/>
</a>
</g>
</g>
<!-- Node3 -->
<g id="Node000003" class="node">
<title>Node3</title>
<g id="a_Node000003"><a xlink:href="../../d5/d02/classstring.html" target="_top" xlink:title=" ">
<polygon fill="white" stroke="#666666" points="278.88,-384 238.88,-384 238.88,-364 278.88,-364 278.88,-384"/>
<text text-anchor="middle" x="258.88" y="-370.5" font-family="Helvetica,sans-Serif" font-size="10.00">string</text>
</a>
</g>
</g>
<!-- Node3&#45;&gt;Node1 -->
<g id="edge2_Node000001_Node000003" class="edge">
<title>Node3&#45;&gt;Node1</title>
<g id="a_edge2_Node000001_Node000003"><a xlink:title=" ">
<path fill="none" stroke="#9a32cd" stroke-dasharray="5,2" d="M243.47,-355.08C241.16,-352.12 238.88,-349.03 236.88,-346 186.81,-270.53 178.43,-248.64 141.38,-166 117.18,-112.05 94.69,-44.56 86.83,-20.25"/>
<polygon fill="#9a32cd" stroke="#9a32cd" points="240.66,-357.17 249.71,-362.68 246.07,-352.73 240.66,-357.17"/>
</a>
</g>
<text text-anchor="start" x="141.88" y="-156.5" font-family="Helvetica,sans-Serif" font-size="10.00" fill="grey"> ANIM_PHASE_DISPLAY</text>
<text text-anchor="middle" x="198.12" y="-144.5" font-family="Helvetica,sans-Serif" font-size="10.00" fill="grey">_HIDE</text>
<text text-anchor="start" x="141.88" y="-132.5" font-family="Helvetica,sans-Serif" font-size="10.00" fill="grey">DISPLAY_TEXTURE</text>
<text text-anchor="middle" x="198.12" y="-120.5" font-family="Helvetica,sans-Serif" font-size="10.00" fill="grey">_PATH_FORMAT</text>
</g>
<!-- Node3&#45;&gt;Node3 -->
<g id="edge3_Node000003_Node000003" class="edge">
<title>Node3&#45;&gt;Node3</title>
<g id="a_edge3_Node000003_Node000003"><a xlink:title=" ">
<path fill="none" stroke="#9a32cd" stroke-dasharray="5,2" d="M284.64,-385.91C291.59,-385.28 296.88,-381.31 296.88,-374 296.88,-363.12 285.17,-359.64 273.7,-363.55"/>
<polygon fill="#9a32cd" stroke="#9a32cd" points="285.57,-382.5 275.2,-384.65 284.65,-389.44 285.57,-382.5"/>
</a>
</g>
<text text-anchor="middle" x="312.62" y="-370.5" font-family="Helvetica,sans-Serif" font-size="10.00" fill="grey"> Empty</text>
</g>
<!-- Node4 -->
<g id="Node000004" class="node">
<title>Node4</title>
<g id="a_Node000004"><a xlink:href="../../d2/d01/classarray.html" target="_top" xlink:title=" ">
<polygon fill="white" stroke="#666666" points="411.62,-100 322.12,-100 322.12,-80 411.62,-80 411.62,-100"/>
<text text-anchor="middle" x="366.88" y="-86.5" font-family="Helvetica,sans-Serif" font-size="10.00">array&lt; Param3 &gt;</text>
</a>
</g>
</g>
<!-- Node3&#45;&gt;Node4 -->
<g id="edge23_Node000004_Node000003" class="edge">
<title>Node3&#45;&gt;Node4</title>
<g id="a_edge23_Node000004_Node000003"><a xlink:title=" ">
<path fill="none" stroke="#9a32cd" stroke-dasharray="5,2" d="M253.08,-352.85C243.95,-317.51 229.25,-242.56 249.62,-184 261.92,-148.66 272.03,-140.57 301.88,-118 311.82,-110.48 324.16,-104.67 335.4,-100.4"/>
<polygon fill="#9a32cd" stroke="#9a32cd" points="249.6,-353.41 255.61,-362.14 256.36,-351.57 249.6,-353.41"/>
</a>
</g>
<text text-anchor="middle" x="267.5" y="-216.5" font-family="Helvetica,sans-Serif" font-size="10.00" fill="grey"> m_Test</text>
</g>
<!-- Node7 -->
<g id="Node000007" class="node">
<title>Node7</title>
<g id="a_Node000007"><a xlink:href="../../d2/d01/classarray.html" target="_top" xlink:title="Result for an object found in CGame.IsBoxCollidingGeometryProxy.">
<polygon fill="white" stroke="#666666" points="740.75,-230 703,-230 703,-210 740.75,-210 740.75,-230"/>
<text text-anchor="middle" x="721.88" y="-216.5" font-family="Helvetica,sans-Serif" font-size="10.00">array</text>
</a>
</g>
</g>
<!-- Node3&#45;&gt;Node7 -->
<g id="edge12_Node000007_Node000003" class="edge">
<title>Node3&#45;&gt;Node7</title>
<g id="a_edge12_Node000007_Node000003"><a xlink:title=" ">
<path fill="none" stroke="#9a32cd" stroke-dasharray="5,2" d="M290.45,-368.18C311.04,-364.19 338.04,-357.28 359.88,-346 404.39,-323 400.16,-292.75 446.62,-274 546.75,-233.61 591.4,-302.42 688.88,-256 700.64,-250.4 710.32,-238.63 716.09,-230.29"/>
<polygon fill="#9a32cd" stroke="#9a32cd" points="289.87,-364.73 280.65,-369.94 291.11,-371.62 289.87,-364.73"/>
</a>
</g>
<text text-anchor="middle" x="463.5" y="-306.5" font-family="Helvetica,sans-Serif" font-size="10.00" fill="grey"> m_Test</text>
</g>
<!-- Node10 -->
<g id="Node000010" class="node">
<title>Node10</title>
<g id="a_Node000010"><a xlink:href="../../d2/d01/classarray.html" target="_top" xlink:title=" ">
<polygon fill="white" stroke="#666666" points="846.12,-100 759.62,-100 759.62,-80 846.12,-80 846.12,-100"/>
<text text-anchor="middle" x="802.88" y="-86.5" font-family="Helvetica,sans-Serif" font-size="10.00">array&lt; Widget &gt;</text>
</a>
</g>
</g>
<!-- Node3&#45;&gt;Node10 -->
<g id="edge19_Node000010_Node000003" class="edge">
<title>Node3&#45;&gt;Node10</title>
<g id="a_edge19_Node000010_Node000003"><a xlink:title=" ">
<path fill="none" stroke="#9a32cd" stroke-dasharray="5,2" d="M270.17,-353.95C283.59,-331.03 306.37,-291.23 323.88,-256 339.44,-224.68 334.49,-211.86 355.62,-184 383.53,-147.21 393,-135.17 435.88,-118 493.48,-94.93 674.97,-91.33 759.17,-90.93"/>
<polygon fill="#9a32cd" stroke="#9a32cd" points="267.22,-352.06 265.16,-362.45 273.25,-355.61 267.22,-352.06"/>
</a>
</g>
<text text-anchor="middle" x="372.5" y="-216.5" font-family="Helvetica,sans-Serif" font-size="10.00" fill="grey"> m_Test</text>
</g>
<!-- Node4&#45;&gt;Node1 -->
<g id="edge4_Node000001_Node000004" class="edge">
<title>Node4&#45;&gt;Node1</title>
<g id="a_edge4_Node000001_Node000004"><a xlink:title=" ">
<path fill="none" stroke="#9a32cd" stroke-dasharray="5,2" d="M321.66,-76.54C264.96,-60.91 169.01,-34.46 118.05,-20.42"/>
<polygon fill="#9a32cd" stroke="#9a32cd" points="320.43,-79.83 331,-79.11 322.29,-73.08 320.43,-79.83"/>
</a>
</g>
<text text-anchor="middle" x="338.38" y="-52.5" font-family="Helvetica,sans-Serif" font-size="10.00" fill="grey"> m_AltitudeNumbersLast</text>
<text text-anchor="middle" x="338.38" y="-40.5" font-family="Helvetica,sans-Serif" font-size="10.00" fill="grey">m_OrderedPositionNumbersLast</text>
</g>
<!-- Node5 -->
<g id="Node000005" class="node">
<title>Node5</title>
<g id="a_Node000005"><a xlink:href="../../d8/d03/class_object.html" target="_top" xlink:title=" ">
<polygon fill="white" stroke="#666666" points="439.12,-384 394.62,-384 394.62,-364 439.12,-364 439.12,-384"/>
<text text-anchor="middle" x="416.88" y="-370.5" font-family="Helvetica,sans-Serif" font-size="10.00">Object</text>
</a>
</g>
</g>
<!-- Node5&#45;&gt;Node4 -->
<g id="edge5_Node000004_Node000005" class="edge">
<title>Node5&#45;&gt;Node4</title>
<g id="a_edge5_Node000004_Node000005"><a xlink:title=" ">
<path fill="none" stroke="#9a32cd" stroke-dasharray="5,2" d="M391.37,-357.37C362.19,-337.81 315.99,-301.33 296.88,-256 284.44,-226.51 286.73,-214.35 296.88,-184 308.73,-148.54 340.01,-115.76 356.44,-100.31"/>
<polygon fill="#9a32cd" stroke="#9a32cd" points="389.35,-360.23 399.64,-362.74 393.16,-354.36 389.35,-360.23"/>
</a>
</g>
<text text-anchor="middle" x="310.38" y="-222.5" font-family="Helvetica,sans-Serif" font-size="10.00" fill="grey"> obj</text>
<text text-anchor="middle" x="310.38" y="-210.5" font-family="Helvetica,sans-Serif" font-size="10.00" fill="grey">parent</text>
</g>
<!-- Node5&#45;&gt;Node7 -->
<g id="edge8_Node000007_Node000005" class="edge">
<title>Node5&#45;&gt;Node7</title>
<g id="a_edge8_Node000007_Node000005"><a xlink:title=" ">
<path fill="none" stroke="#9a32cd" stroke-dasharray="5,2" d="M449.81,-360.46C461.27,-356 474.18,-350.88 485.88,-346 576.96,-308.01 608.33,-313.03 688.88,-256 699.1,-248.76 708.67,-237.99 714.85,-230.31"/>
<polygon fill="#9a32cd" stroke="#9a32cd" points="448.83,-357.08 440.76,-363.95 451.35,-363.61 448.83,-357.08"/>
</a>
</g>
<text text-anchor="middle" x="674.38" y="-312.5" font-family="Helvetica,sans-Serif" font-size="10.00" fill="grey"> obj</text>
<text text-anchor="middle" x="674.38" y="-300.5" font-family="Helvetica,sans-Serif" font-size="10.00" fill="grey">parent</text>
</g>
<!-- Node5&#45;&gt;Node10 -->
<g id="edge15_Node000010_Node000005" class="edge">
<title>Node5&#45;&gt;Node10</title>
<g id="a_edge15_Node000010_Node000005"><a xlink:title=" ">
<path fill="none" stroke="#9a32cd" stroke-dasharray="5,2" d="M409.8,-352.65C398.2,-315.24 379.9,-234.75 416.88,-184 457.16,-128.71 667.05,-103.25 759.3,-94.6"/>
<polygon fill="#9a32cd" stroke="#9a32cd" points="406.48,-353.73 412.92,-362.14 413.13,-351.54 406.48,-353.73"/>
</a>
</g>
<text text-anchor="middle" x="430.38" y="-222.5" font-family="Helvetica,sans-Serif" font-size="10.00" fill="grey"> obj</text>
<text text-anchor="middle" x="430.38" y="-210.5" font-family="Helvetica,sans-Serif" font-size="10.00" fill="grey">parent</text>
</g>
<!-- Node6 -->
<g id="Node000006" class="node">
<title>Node6</title>
<g id="a_Node000006"><a xlink:href="../../db/d06/class_param3.html" target="_top" xlink:title=" ">
<polygon fill="white" stroke="#666666" points="730.75,-384 681,-384 681,-364 730.75,-364 730.75,-384"/>
<text text-anchor="middle" x="705.88" y="-370.5" font-family="Helvetica,sans-Serif" font-size="10.00">Param3</text>
</a>
</g>
</g>
<!-- Node6&#45;&gt;Node4 -->
<g id="edge6_Node000004_Node000006" class="edge">
<title>Node6&#45;&gt;Node4</title>
<g id="a_edge6_Node000004_Node000006"><a xlink:title=" ">
<path fill="none" stroke="#9a32cd" stroke-dasharray="5,2" d="M669.96,-365.64C653.44,-361.36 633.97,-354.99 617.88,-346 575.53,-322.36 576.92,-299.83 535.88,-274 518.6,-263.13 509.19,-269.21 493.62,-256 464.72,-231.47 470.56,-214.38 447.88,-184 423.79,-151.74 391.4,-116.71 375.89,-100.37"/>
<polygon fill="#9a32cd" stroke="#9a32cd" points="668.84,-368.97 679.38,-367.93 670.49,-362.17 668.84,-368.97"/>
</a>
</g>
<text text-anchor="middle" x="551" y="-246.5" font-family="Helvetica,sans-Serif" font-size="10.00" fill="grey"> NO_SORTING</text>
<text text-anchor="middle" x="551" y="-234.5" font-family="Helvetica,sans-Serif" font-size="10.00" fill="grey">geomLevel</text>
<text text-anchor="middle" x="551" y="-222.5" font-family="Helvetica,sans-Serif" font-size="10.00" fill="grey">hierLevel</text>
<text text-anchor="start" x="492.88" y="-210.5" font-family="Helvetica,sans-Serif" font-size="10.00" fill="grey">m_CurrentSettingAlternate</text>
<text text-anchor="middle" x="551" y="-198.5" font-family="Helvetica,sans-Serif" font-size="10.00" fill="grey">KeyIndex</text>
<text text-anchor="middle" x="551" y="-186.5" font-family="Helvetica,sans-Serif" font-size="10.00" fill="grey">m_CurrentSettingKeyIndex</text>
</g>
<!-- Node6&#45;&gt;Node7 -->
<g id="edge9_Node000007_Node000006" class="edge">
<title>Node6&#45;&gt;Node7</title>
<g id="a_edge9_Node000007_Node000006"><a xlink:title=" ">
<path fill="none" stroke="#9a32cd" stroke-dasharray="5,2" d="M704.4,-352.21C703.35,-332.09 702.74,-300.79 706.62,-274 708.9,-258.27 714.64,-240.65 718.39,-230.21"/>
<polygon fill="#9a32cd" stroke="#9a32cd" points="700.9,-352.38 705.01,-362.14 707.89,-351.95 700.9,-352.38"/>
</a>
</g>
<text text-anchor="middle" x="764" y="-336.5" font-family="Helvetica,sans-Serif" font-size="10.00" fill="grey"> NO_SORTING</text>
<text text-anchor="middle" x="764" y="-324.5" font-family="Helvetica,sans-Serif" font-size="10.00" fill="grey">geomLevel</text>
<text text-anchor="middle" x="764" y="-312.5" font-family="Helvetica,sans-Serif" font-size="10.00" fill="grey">hierLevel</text>
<text text-anchor="start" x="705.88" y="-300.5" font-family="Helvetica,sans-Serif" font-size="10.00" fill="grey">m_CurrentSettingAlternate</text>
<text text-anchor="middle" x="764" y="-288.5" font-family="Helvetica,sans-Serif" font-size="10.00" fill="grey">KeyIndex</text>
<text text-anchor="middle" x="764" y="-276.5" font-family="Helvetica,sans-Serif" font-size="10.00" fill="grey">m_CurrentSettingKeyIndex</text>
</g>
<!-- Node6&#45;&gt;Node10 -->
<g id="edge16_Node000010_Node000006" class="edge">
<title>Node6&#45;&gt;Node10</title>
<g id="a_edge16_Node000010_Node000006"><a xlink:title=" ">
<path fill="none" stroke="#9a32cd" stroke-dasharray="5,2" d="M742.56,-368.98C772.64,-364.9 811.98,-357.54 822.88,-346 873.03,-292.89 820.86,-250.71 850.62,-184 854.78,-174.68 861.52,-175.64 864.88,-166 871.89,-145.85 876.57,-135.84 864.88,-118 859.66,-110.05 851.54,-104.42 842.88,-100.45"/>
<polygon fill="#9a32cd" stroke="#9a32cd" points="742.14,-365.5 732.66,-370.24 743.02,-372.45 742.14,-365.5"/>
</a>
</g>
<text text-anchor="middle" x="908" y="-246.5" font-family="Helvetica,sans-Serif" font-size="10.00" fill="grey"> NO_SORTING</text>
<text text-anchor="middle" x="908" y="-234.5" font-family="Helvetica,sans-Serif" font-size="10.00" fill="grey">geomLevel</text>
<text text-anchor="middle" x="908" y="-222.5" font-family="Helvetica,sans-Serif" font-size="10.00" fill="grey">hierLevel</text>
<text text-anchor="start" x="849.88" y="-210.5" font-family="Helvetica,sans-Serif" font-size="10.00" fill="grey">m_CurrentSettingAlternate</text>
<text text-anchor="middle" x="908" y="-198.5" font-family="Helvetica,sans-Serif" font-size="10.00" fill="grey">KeyIndex</text>
<text text-anchor="middle" x="908" y="-186.5" font-family="Helvetica,sans-Serif" font-size="10.00" fill="grey">m_CurrentSettingKeyIndex</text>
</g>
<!-- Node7&#45;&gt;Node4 -->
<g id="edge7_Node000004_Node000007" class="edge">
<title>Node7&#45;&gt;Node4</title>
<g id="a_edge7_Node000004_Node000007"><a xlink:title=" ">
<path fill="none" stroke="#9a32cd" stroke-dasharray="5,2" d="M707.37,-200.96C702,-195.05 695.57,-188.77 688.88,-184 673,-172.69 662.82,-179.62 648.88,-166 631.95,-149.47 645.21,-131.63 625.88,-118 592.43,-94.43 476.81,-90.69 411.93,-90.53"/>
<polygon fill="#9a32cd" stroke="#9a32cd" points="704.7,-203.22 713.85,-208.55 710.02,-198.68 704.7,-203.22"/>
</a>
</g>
<text text-anchor="middle" x="669.88" y="-138.5" font-family="Helvetica,sans-Serif" font-size="10.00" fill="grey"> proxyInfo</text>
</g>
<!-- Node7&#45;&gt;Node7 -->
<g id="edge10_Node000007_Node000007" class="edge">
<title>Node7&#45;&gt;Node7</title>
<g id="a_edge10_Node000007_Node000007"><a xlink:title=" ">
<path fill="none" stroke="#9a32cd" stroke-dasharray="5,2" d="M742.85,-234.51C751.47,-235.45 758.75,-230.61 758.75,-220 758.75,-205.07 744.34,-201.57 732.07,-209.5"/>
<polygon fill="#9a32cd" stroke="#9a32cd" points="744.08,-231.23 733.49,-231.03 741.64,-237.79 744.08,-231.23"/>
</a>
</g>
<text text-anchor="middle" x="779.75" y="-216.5" font-family="Helvetica,sans-Serif" font-size="10.00" fill="grey"> proxyInfo</text>
</g>
<!-- Node7&#45;&gt;Node10 -->
<g id="edge17_Node000010_Node000007" class="edge">
<title>Node7&#45;&gt;Node10</title>
<g id="a_edge17_Node000010_Node000007"><a xlink:title=" ">
<path fill="none" stroke="#9a32cd" stroke-dasharray="5,2" d="M718.84,-198.39C716.75,-176.2 717.01,-140.99 734.88,-118 741.11,-109.97 750.09,-104.33 759.49,-100.36"/>
<polygon fill="#9a32cd" stroke="#9a32cd" points="715.36,-198.76 720.04,-208.26 722.31,-197.91 715.36,-198.76"/>
</a>
</g>
<text text-anchor="middle" x="755.88" y="-138.5" font-family="Helvetica,sans-Serif" font-size="10.00" fill="grey"> proxyInfo</text>
</g>
<!-- Node8 -->
<g id="Node000008" class="node">
<title>Node8</title>
<g id="a_Node000008"><a xlink:href="../../d4/d04/class_class.html" target="_top" xlink:title="Super root of all classes in Enforce script.">
<polygon fill="white" stroke="#666666" points="890.25,-384 849.5,-384 849.5,-364 890.25,-364 890.25,-384"/>
<text text-anchor="middle" x="869.88" y="-370.5" font-family="Helvetica,sans-Serif" font-size="10.00">Class</text>
</a>
</g>
</g>
<!-- Node8&#45;&gt;Node4 -->
<g id="edge22_Node000004_Node000008" class="edge">
<title>Node8&#45;&gt;Node4</title>
<g id="a_edge22_Node000004_Node000008"><a xlink:title=" ">
<path fill="none" stroke="#9a32cd" stroke-dasharray="5,2" d="M838.01,-371.06C795.03,-367.92 721.27,-360.56 698.88,-346 658.93,-320.03 663.01,-298.06 640.62,-256 624.28,-225.28 634.94,-208.13 609.88,-184 554.55,-130.74 465.55,-107.21 411.99,-97.4"/>
<polygon fill="#9a32cd" stroke="#9a32cd" points="837.53,-374.53 847.74,-371.73 838.01,-367.55 837.53,-374.53"/>
</a>
</g>
<text text-anchor="middle" x="666.5" y="-216.5" font-family="Helvetica,sans-Serif" font-size="10.00" fill="grey"> m_Instance</text>
</g>
<!-- Node8&#45;&gt;Node7 -->
<g id="edge11_Node000007_Node000008" class="edge">
<title>Node8&#45;&gt;Node7</title>
<g id="a_edge11_Node000007_Node000008"><a xlink:title=" ">
<path fill="none" stroke="#9a32cd" stroke-dasharray="5,2" d="M865.2,-352.75C859.28,-330.97 847.18,-296.47 825.88,-274 802.17,-249 764.09,-233.83 741.17,-226.46"/>
<polygon fill="#9a32cd" stroke="#9a32cd" points="861.74,-353.33 867.57,-362.17 868.53,-351.62 861.74,-353.33"/>
</a>
</g>
<text text-anchor="middle" x="888.5" y="-306.5" font-family="Helvetica,sans-Serif" font-size="10.00" fill="grey"> m_Instance</text>
</g>
<!-- Node8&#45;&gt;Node10 -->
<g id="edge18_Node000010_Node000008" class="edge">
<title>Node8&#45;&gt;Node10</title>
<g id="a_edge18_Node000010_Node000008"><a xlink:title=" ">
<path fill="none" stroke="#9a32cd" stroke-dasharray="5,2" d="M901.94,-372.49C926.68,-370.55 960.5,-364.35 983.88,-346 1042.75,-299.79 1069.51,-247.49 1029.88,-184 990.75,-121.32 900.39,-100.88 846.21,-94.22"/>
<polygon fill="#9a32cd" stroke="#9a32cd" points="901.91,-368.98 892.13,-373.05 902.31,-375.97 901.91,-368.98"/>
</a>
</g>
<text text-anchor="middle" x="1074.5" y="-216.5" font-family="Helvetica,sans-Serif" font-size="10.00" fill="grey"> m_Instance</text>
</g>
<!-- Node9 -->
<g id="Node000009" class="node">
<title>Node9</title>
<g id="a_Node000009"><a xlink:href="../../dd/d0a/class_widget.html" target="_top" xlink:title=" ">
<polygon fill="white" stroke="#666666" points="1046.25,-384 999.5,-384 999.5,-364 1046.25,-364 1046.25,-384"/>
<text text-anchor="middle" x="1022.88" y="-370.5" font-family="Helvetica,sans-Serif" font-size="10.00">Widget</text>
</a>
</g>
</g>
<!-- Node9&#45;&gt;Node4 -->
<g id="edge24_Node000004_Node000009" class="edge">
<title>Node9&#45;&gt;Node4</title>
<g id="a_edge24_Node000004_Node000009"><a xlink:title=" ">
<path fill="none" stroke="#9a32cd" stroke-dasharray="5,2" d="M1023.92,-352.29C1024.09,-331.36 1021.9,-298.66 1008.88,-274 1003.33,-263.5 995.49,-266.03 989.12,-256 971.17,-227.73 993.09,-204.85 966.88,-184 923.62,-149.61 765.76,-195.24 718.88,-166 697.92,-152.93 711.76,-131.18 690.88,-118 667.84,-103.47 495.39,-95.5 411.9,-92.46"/>
<polygon fill="#9a32cd" stroke="#9a32cd" points="1020.42,-352.02 1023.62,-362.12 1027.42,-352.23 1020.42,-352.02"/>
</a>
</g>
<text text-anchor="middle" x="1007.25" y="-216.5" font-family="Helvetica,sans-Serif" font-size="10.00" fill="grey"> m_Root</text>
</g>
<!-- Node9&#45;&gt;Node7 -->
<g id="edge13_Node000007_Node000009" class="edge">
<title>Node9&#45;&gt;Node7</title>
<g id="a_edge13_Node000007_Node000009"><a xlink:title=" ">
<path fill="none" stroke="#9a32cd" stroke-dasharray="5,2" d="M990.22,-358.41C983.88,-354.83 977.53,-350.66 972.12,-346 941.98,-320.01 952.75,-294.89 918.88,-274 878.95,-249.37 860.14,-268.32 814.88,-256 788.74,-248.89 759.68,-237.34 741.12,-229.46"/>
<polygon fill="#9a32cd" stroke="#9a32cd" points="988.22,-361.31 998.7,-362.84 991.46,-355.11 988.22,-361.31"/>
</a>
</g>
<text text-anchor="middle" x="990.25" y="-306.5" font-family="Helvetica,sans-Serif" font-size="10.00" fill="grey"> m_Root</text>
</g>
<!-- Node9&#45;&gt;Node10 -->
<g id="edge20_Node000010_Node000009" class="edge">
<title>Node9&#45;&gt;Node10</title>
<g id="a_edge20_Node000010_Node000009"><a xlink:title=" ">
<path fill="none" stroke="#9a32cd" stroke-dasharray="5,2" d="M1041.17,-355.56C1074.61,-321.51 1139.13,-244.22 1104.88,-184 1076.5,-134.11 1048.01,-137.06 993.88,-118 945.23,-100.88 885.99,-94.58 846.51,-92.29"/>
<polygon fill="#9a32cd" stroke="#9a32cd" points="1038.76,-353.02 1034.12,-362.55 1043.69,-358 1038.76,-353.02"/>
</a>
</g>
<text text-anchor="middle" x="1132.25" y="-216.5" font-family="Helvetica,sans-Serif" font-size="10.00" fill="grey"> m_Root</text>
</g>
<!-- Node10&#45;&gt;Node7 -->
<g id="edge14_Node000007_Node000010" class="edge">
<title>Node10&#45;&gt;Node7</title>
<g id="a_edge14_Node000007_Node000010"><a xlink:title=" ">
<path fill="none" stroke="#9a32cd" stroke-dasharray="5,2" d="M799.98,-111.62C797.04,-127.45 791.38,-149.33 780.88,-166 769.35,-184.29 749.77,-200.08 736.35,-209.56"/>
<polygon fill="#9a32cd" stroke="#9a32cd" points="803.4,-112.37 801.55,-101.94 796.49,-111.25 803.4,-112.37"/>
</a>
</g>
<text text-anchor="middle" x="829.38" y="-138.5" font-family="Helvetica,sans-Serif" font-size="10.00" fill="grey"> m_Subgroups</text>
</g>
<!-- Node10&#45;&gt;Node10 -->
<g id="edge21_Node000010_Node000010" class="edge">
<title>Node10&#45;&gt;Node10</title>
<g id="a_edge21_Node000010_Node000010"><a xlink:title=" ">
<path fill="none" stroke="#9a32cd" stroke-dasharray="5,2" d="M857.5,-95.6C861.61,-94.35 864.12,-92.48 864.12,-90 864.12,-85.7 856.59,-83.25 846.37,-82.65"/>
<polygon fill="#9a32cd" stroke="#9a32cd" points="857.2,-92.11 847.86,-97.12 858.28,-99.02 857.2,-92.11"/>
</a>
</g>
<text text-anchor="middle" x="895.62" y="-86.5" font-family="Helvetica,sans-Serif" font-size="10.00" fill="grey"> m_Subgroups</text>
</g>
</g>
</svg>
