<?xml version="1.0" encoding="UTF-8" standalone="no"?>
<!DOCTYPE svg PUBLIC "-//W3C//DTD SVG 1.1//EN"
 "http://www.w3.org/Graphics/SVG/1.1/DTD/svg11.dtd">
<!-- Generated by graphviz version 11.0.0 (20240428.1522)
 -->
<!-- Title: HumanMovementState Pages: 1 -->
<svg width="224pt" height="148pt"
 viewBox="0.00 0.00 224.12 148.00" xmlns="http://www.w3.org/2000/svg" xmlns:xlink="http://www.w3.org/1999/xlink">

<svg id="main" version="1.1" xmlns="http://www.w3.org/2000/svg" xmlns:xlink="http://www.w3.org/1999/xlink" xml:space="preserve" onload="init(evt)">
<style type="text/css"><![CDATA[
.node, .edge {opacity: 0.7;}
.node.selected, .edge.selected {opacity: 1;}
.edge:hover path { stroke: red; }
.edge:hover polygon { stroke: red; fill: red; }
]]></style>
<script type="application/ecmascript" xlink:href="../../svg.min.js"/>
<svg id="graph" class="graph">
<g id="graph0" class="graph" transform="scale(1 1) rotate(0) translate(4 144)">
<title>HumanMovementState</title>
<!-- Node1 -->
<g id="Node000001" class="node">
<title>Node1</title>
<g id="a_Node000001"><a xlink:title=" ">
<polygon fill="#999999" stroke="#666666" points="138,-20 23.75,-20 23.75,0 138,0 138,-20"/>
<text text-anchor="middle" x="80.88" y="-6.5" font-family="Helvetica,sans-Serif" font-size="10.00">HumanMovementState</text>
</a>
</g>
</g>
<!-- Node2 -->
<g id="Node000002" class="node">
<title>Node2</title>
<g id="a_Node000002"><a xlink:href="../../db/d06/class_param3.html" target="_top" xlink:title=" ">
<polygon fill="white" stroke="#666666" points="49.75,-132 0,-132 0,-112 49.75,-112 49.75,-132"/>
<text text-anchor="middle" x="24.88" y="-118.5" font-family="Helvetica,sans-Serif" font-size="10.00">Param3</text>
</a>
</g>
</g>
<!-- Node2&#45;&gt;Node1 -->
<g id="edge1_Node000001_Node000002" class="edge">
<title>Node2&#45;&gt;Node1</title>
<g id="a_edge1_Node000001_Node000002"><a xlink:title=" ">
<path fill="none" stroke="#9a32cd" stroke-dasharray="5,2" d="M19.42,-100.5C15.89,-82.59 13.88,-56.63 25.62,-38 30.58,-30.14 38.55,-24.51 46.91,-20.49"/>
<polygon fill="#9a32cd" stroke="#9a32cd" points="16,-101.24 21.67,-110.18 22.81,-99.65 16,-101.24"/>
</a>
</g>
<text text-anchor="middle" x="70.5" y="-76.5" font-family="Helvetica,sans-Serif" font-size="10.00" fill="grey"> m_CommandTypeId</text>
<text text-anchor="middle" x="70.5" y="-64.5" font-family="Helvetica,sans-Serif" font-size="10.00" fill="grey">m_LocalMovement</text>
<text text-anchor="middle" x="70.5" y="-52.5" font-family="Helvetica,sans-Serif" font-size="10.00" fill="grey">m_iMovement</text>
<text text-anchor="middle" x="70.5" y="-40.5" font-family="Helvetica,sans-Serif" font-size="10.00" fill="grey">m_iStanceIdx</text>
</g>
<!-- Node3 -->
<g id="Node000003" class="node">
<title>Node3</title>
<g id="a_Node000003"><a xlink:href="../../d4/d03/classfloat.html" target="_top" xlink:title=" ">
<polygon fill="white" stroke="#666666" points="153.88,-132 119.88,-132 119.88,-112 153.88,-112 153.88,-132"/>
<text text-anchor="middle" x="136.88" y="-118.5" font-family="Helvetica,sans-Serif" font-size="10.00">float</text>
</a>
</g>
</g>
<!-- Node3&#45;&gt;Node1 -->
<g id="edge2_Node000001_Node000003" class="edge">
<title>Node3&#45;&gt;Node1</title>
<g id="a_edge2_Node000001_Node000003"><a xlink:title=" ">
<path fill="none" stroke="#9a32cd" stroke-dasharray="5,2" d="M135.04,-100.17C132.66,-82.42 127.22,-56.87 114.88,-38 110.25,-30.94 103.17,-24.88 96.66,-20.31"/>
<polygon fill="#9a32cd" stroke="#9a32cd" points="131.55,-100.45 136.12,-110 138.51,-99.68 131.55,-100.45"/>
</a>
</g>
<text text-anchor="middle" x="158.12" y="-58.5" font-family="Helvetica,sans-Serif" font-size="10.00" fill="grey"> m_fLeaning</text>
</g>
<!-- Node3&#45;&gt;Node3 -->
<g id="edge3_Node000003_Node000003" class="edge">
<title>Node3&#45;&gt;Node3</title>
<g id="a_edge3_Node000003_Node000003"><a xlink:title=" ">
<path fill="none" stroke="#9a32cd" stroke-dasharray="5,2" d="M164.22,-132.44C168.75,-130.97 171.88,-127.49 171.88,-122 171.88,-112.51 162.53,-109.02 152.71,-111.54"/>
<polygon fill="#9a32cd" stroke="#9a32cd" points="164.22,-128.94 154.23,-132.45 164.23,-135.94 164.22,-128.94"/>
</a>
</g>
<text text-anchor="middle" x="194" y="-130.5" font-family="Helvetica,sans-Serif" font-size="10.00" fill="grey"> LOWEST</text>
<text text-anchor="middle" x="194" y="-118.5" font-family="Helvetica,sans-Serif" font-size="10.00" fill="grey">MAX</text>
<text text-anchor="middle" x="194" y="-106.5" font-family="Helvetica,sans-Serif" font-size="10.00" fill="grey">MIN</text>
</g>
</g>
</svg>
</svg>

<style type='text/css'>
<![CDATA[
[data-mouse-over-selected='false'] { opacity: 0.7; }
[data-mouse-over-selected='true']  { opacity: 1.0; }
]]>
</style>
<script type="application/ecmascript"><![CDATA[
document.addEventListener('DOMContentLoaded', (event) => {
  highlightEdges();
  highlightAdjacentNodes();
});
]]></script>
</svg>
