<?xml version="1.0" encoding="UTF-8" standalone="no"?>
<!DOCTYPE svg PUBLIC "-//W3C//DTD SVG 1.1//EN"
 "http://www.w3.org/Graphics/SVG/1.1/DTD/svg11.dtd">
<!-- Generated by graphviz version 11.0.0 (20240428.1522)
 -->
<!-- Title: CAContinuousQuantityExtinguish Pages: 1 -->
<svg width="169pt" height="196pt"
 viewBox="0.00 0.00 168.75 196.00" xmlns="http://www.w3.org/2000/svg" xmlns:xlink="http://www.w3.org/1999/xlink">
<g id="graph0" class="graph" transform="scale(1 1) rotate(0) translate(4 192)">
<title>CAContinuousQuantityExtinguish</title>
<!-- Node1 -->
<g id="Node000001" class="node">
<title>Node1</title>
<g id="a_Node000001"><a xlink:title=" ">
<polygon fill="#999999" stroke="#666666" points="160.75,-20 0,-20 0,0 160.75,0 160.75,-20"/>
<text text-anchor="middle" x="80.38" y="-6.5" font-family="Helvetica,sans-Serif" font-size="10.00">CAContinuousQuantityExtinguish</text>
</a>
</g>
</g>
<!-- Node2 -->
<g id="Node000002" class="node">
<title>Node2</title>
<g id="a_Node000002"><a xlink:href="../../dd/d0b/class_c_a_continuous_quantity_repeat.html" target="_top" xlink:title=" ">
<polygon fill="white" stroke="#666666" points="153.25,-76 7.5,-76 7.5,-56 153.25,-56 153.25,-76"/>
<text text-anchor="middle" x="80.38" y="-62.5" font-family="Helvetica,sans-Serif" font-size="10.00">CAContinuousQuantityRepeat</text>
</a>
</g>
</g>
<!-- Node2&#45;&gt;Node1 -->
<g id="edge1_Node000001_Node000002" class="edge">
<title>Node2&#45;&gt;Node1</title>
<g id="a_edge1_Node000001_Node000002"><a xlink:title=" ">
<path fill="none" stroke="#8b1a1a" d="M80.38,-44.13C80.38,-35.9 80.38,-26.85 80.38,-20.3"/>
<polygon fill="#8b1a1a" stroke="#8b1a1a" points="76.88,-44.08 80.38,-54.08 83.88,-44.08 76.88,-44.08"/>
</a>
</g>
</g>
<!-- Node3 -->
<g id="Node000003" class="node">
<title>Node3</title>
<g id="a_Node000003"><a xlink:href="../../dc/d0b/class_c_a_continuous_base.html" target="_top" xlink:title=" ">
<polygon fill="white" stroke="#666666" points="130.75,-132 30,-132 30,-112 130.75,-112 130.75,-132"/>
<text text-anchor="middle" x="80.38" y="-118.5" font-family="Helvetica,sans-Serif" font-size="10.00">CAContinuousBase</text>
</a>
</g>
</g>
<!-- Node3&#45;&gt;Node2 -->
<g id="edge2_Node000002_Node000003" class="edge">
<title>Node3&#45;&gt;Node2</title>
<g id="a_edge2_Node000002_Node000003"><a xlink:title=" ">
<path fill="none" stroke="#8b1a1a" d="M80.38,-100.13C80.38,-91.9 80.38,-82.85 80.38,-76.3"/>
<polygon fill="#8b1a1a" stroke="#8b1a1a" points="76.88,-100.08 80.38,-110.08 83.88,-100.08 76.88,-100.08"/>
</a>
</g>
</g>
<!-- Node4 -->
<g id="Node000004" class="node">
<title>Node4</title>
<g id="a_Node000004"><a xlink:href="../../d0/d00/class_c_a_base.html" target="_top" xlink:title=" ">
<polygon fill="white" stroke="#666666" points="106.38,-188 54.38,-188 54.38,-168 106.38,-168 106.38,-188"/>
<text text-anchor="middle" x="80.38" y="-174.5" font-family="Helvetica,sans-Serif" font-size="10.00">CABase</text>
</a>
</g>
</g>
<!-- Node4&#45;&gt;Node3 -->
<g id="edge3_Node000003_Node000004" class="edge">
<title>Node4&#45;&gt;Node3</title>
<g id="a_edge3_Node000003_Node000004"><a xlink:title=" ">
<path fill="none" stroke="#8b1a1a" d="M80.38,-156.13C80.38,-147.9 80.38,-138.85 80.38,-132.3"/>
<polygon fill="#8b1a1a" stroke="#8b1a1a" points="76.88,-156.08 80.38,-166.08 83.88,-156.08 76.88,-156.08"/>
</a>
</g>
</g>
</g>
</svg>
