<?xml version="1.0" encoding="UTF-8" standalone="no"?>
<!DOCTYPE svg PUBLIC "-//W3C//DTD SVG 1.1//EN"
 "http://www.w3.org/Graphics/SVG/1.1/DTD/svg11.dtd">
<!-- Generated by graphviz version 11.0.0 (20240428.1522)
 -->
<!-- Title: FireplaceBase Pages: 1 -->
<!--zoomable 300 -->

<svg id="main" version="1.1" xmlns="http://www.w3.org/2000/svg" xmlns:xlink="http://www.w3.org/1999/xlink" xml:space="preserve" onload="init(evt)">
<style type="text/css"><![CDATA[
.node, .edge {opacity: 0.7;}
.node.selected, .edge.selected {opacity: 1;}
.edge:hover path { stroke: red; }
.edge:hover polygon { stroke: red; fill: red; }
]]></style>

<defs>
  <circle id="rim" cx="0" cy="0" r="7"/>
  <circle id="rim2" cx="0" cy="0" r="3.5"/>
  <g id="zoomPlus">
    <use xlink:href="#rim" fill="#404040"><set attributeName="fill" to="#808080" begin="zoomplus.mouseover" end="zoomplus.mouseout"/></use>
    <path d="M-4,0h8M0,-4v8" fill="none" stroke="white" stroke-width="1.5" pointer-events="none"/>
  </g>
  <g id="zoomMin">
    <use xlink:href="#rim" fill="#404040"><set attributeName="fill" to="#808080" begin="zoomminus.mouseover" end="zoomminus.mouseout"/></use>
    <path d="M-4,0h8" fill="none" stroke="white" stroke-width="1.5" pointer-events="none"/>
  </g>
  <g id="arrowUp" transform="translate(30 24)">
    <use xlink:href="#rim"/>
    <path pointer-events="none" fill="none" stroke="white" stroke-width="1.5" d="M0,-3.0v7 M-2.5,-0.5L0,-3.0L2.5,-0.5"/>
  </g>
  <g id="arrowRight" transform="rotate(90) translate(36 -43)">
    <use xlink:href="#rim"/>
    <path pointer-events="none" fill="none" stroke="white" stroke-width="1.5" d="M0,-3.0v7 M-2.5,-0.5L0,-3.0L2.5,-0.5"/>
  </g>
  <g id="arrowDown" transform="rotate(180) translate(-30 -48)">
    <use xlink:href="#rim"/>
    <path pointer-events="none" fill="none" stroke="white" stroke-width="1.5" d="M0,-3.0v7 M-2.5,-0.5L0,-3.0L2.5,-0.5"/>
  </g>
  <g id="arrowLeft" transform="rotate(270) translate(-36 17)">
    <use xlink:href="#rim"/>
    <path pointer-events="none" fill="none" stroke="white" stroke-width="1.5" d="M0,-3.0v7 M-2.5,-0.5L0,-3.0L2.5,-0.5"/>
  </g>
  <g id="resetDef">
    <use xlink:href="#rim2" fill="#404040"><set attributeName="fill" to="#808080" begin="reset.mouseover" end="reset.mouseout"/></use>
  </g>
</defs>
<script type="application/ecmascript">
var viewWidth = 679;
var viewHeight = 300;
var sectionId = 'dynsection-0';
</script>
<script type="application/ecmascript" xlink:href="../../svg.min.js"/>
<svg id="graph" class="graph">
<g id="viewport">
<title>FireplaceBase</title>
<!-- Node1 -->
<g id="Node000001" class="node">
<title>Node1</title>
<g id="a_Node000001"><a xlink:title=" ">
<polygon fill="#999999" stroke="#666666" points="423.03,-20 344.78,-20 344.78,0 423.03,0 423.03,-20"/>
<text text-anchor="middle" x="383.91" y="-6.5" font-family="Helvetica,sans-Serif" font-size="10.00">FireplaceBase</text>
</a>
</g>
</g>
<!-- Node2 -->
<g id="Node000002" class="node">
<title>Node2</title>
<g id="a_Node000002"><a xlink:href="../../d5/d02/classstring.html" target="_top" xlink:title=" ">
<polygon fill="white" stroke="#666666" points="41.91,-216 1.91,-216 1.91,-196 41.91,-196 41.91,-216"/>
<text text-anchor="middle" x="21.91" y="-202.5" font-family="Helvetica,sans-Serif" font-size="10.00">string</text>
</a>
</g>
</g>
<!-- Node2&#45;&gt;Node1 -->
<g id="edge1_Node000001_Node000002" class="edge">
<title>Node2&#45;&gt;Node1</title>
<g id="a_edge1_Node000001_Node000002"><a xlink:title=" ">
<path fill="none" stroke="#9a32cd" stroke-dasharray="5,2" d="M14.51,-185.26C2.9,-150.48 -14.62,-78.19 22.91,-38 44.48,-14.89 255.24,-11.43 344.39,-11.01"/>
<polygon fill="#9a32cd" stroke="#9a32cd" points="11.13,-186.19 17.76,-194.45 17.73,-183.86 11.13,-186.19"/>
</a>
</g>
<text text-anchor="middle" x="100.91" y="-160.5" font-family="Helvetica,sans-Serif" font-size="10.00" fill="grey"> ANIMATION_CLOSED</text>
<text text-anchor="middle" x="100.91" y="-148.5" font-family="Helvetica,sans-Serif" font-size="10.00" fill="grey">ANIMATION_OPENED</text>
<text text-anchor="middle" x="100.91" y="-136.5" font-family="Helvetica,sans-Serif" font-size="10.00" fill="grey">FIREPOINT_ACTION_SELECTION</text>
<text text-anchor="middle" x="100.91" y="-124.5" font-family="Helvetica,sans-Serif" font-size="10.00" fill="grey">FIREPOINT_FIRE_POSITION</text>
<text text-anchor="middle" x="100.91" y="-112.5" font-family="Helvetica,sans-Serif" font-size="10.00" fill="grey">FIREPOINT_PLACE_ROT</text>
<text text-anchor="middle" x="100.91" y="-100.5" font-family="Helvetica,sans-Serif" font-size="10.00" fill="grey">FIREPOINT_SMOKE_POSITION</text>
<text text-anchor="middle" x="100.91" y="-88.5" font-family="Helvetica,sans-Serif" font-size="10.00" fill="grey">OVENPOINT_ACTION_SELECTION</text>
<text text-anchor="middle" x="100.91" y="-76.5" font-family="Helvetica,sans-Serif" font-size="10.00" fill="grey">OVENPOINT_FIRE_POSITION</text>
<text text-anchor="middle" x="100.91" y="-64.5" font-family="Helvetica,sans-Serif" font-size="10.00" fill="grey">OVENPOINT_PLACE_ROT</text>
<text text-anchor="middle" x="100.91" y="-52.5" font-family="Helvetica,sans-Serif" font-size="10.00" fill="grey">OVENPOINT_SMOKE_POSITION</text>
<text text-anchor="middle" x="100.91" y="-40.5" font-family="Helvetica,sans-Serif" font-size="10.00" fill="grey">...</text>
</g>
<!-- Node2&#45;&gt;Node2 -->
<g id="edge2_Node000002_Node000002" class="edge">
<title>Node2&#45;&gt;Node2</title>
<g id="a_edge2_Node000002_Node000002"><a xlink:title=" ">
<path fill="none" stroke="#9a32cd" stroke-dasharray="5,2" d="M53.67,-212.76C57.44,-211.53 59.91,-209.27 59.91,-206 59.91,-200.01 51.67,-197.44 42.24,-198.28"/>
<polygon fill="#9a32cd" stroke="#9a32cd" points="53.42,-209.27 43.74,-213.59 54,-216.24 53.42,-209.27"/>
</a>
</g>
<text text-anchor="middle" x="75.66" y="-202.5" font-family="Helvetica,sans-Serif" font-size="10.00" fill="grey"> Empty</text>
</g>
<!-- Node3 -->
<g id="Node000003" class="node">
<title>Node3</title>
<g id="a_Node000003"><a xlink:href="../../d9/d09/classbool.html" target="_top" xlink:title=" ">
<polygon fill="white" stroke="#666666" points="225.91,-292 191.91,-292 191.91,-272 225.91,-272 225.91,-292"/>
<text text-anchor="middle" x="208.91" y="-278.5" font-family="Helvetica,sans-Serif" font-size="10.00">bool</text>
</a>
</g>
</g>
<!-- Node3&#45;&gt;Node1 -->
<g id="edge3_Node000001_Node000003" class="edge">
<title>Node3&#45;&gt;Node1</title>
<g id="a_edge3_Node000001_Node000003"><a xlink:title=" ">
<path fill="none" stroke="#9a32cd" stroke-dasharray="5,2" d="M202.18,-260.7C196.91,-241.25 191.99,-211.48 201.91,-188 236.55,-105.98 329.84,-43.2 367.65,-20.36"/>
<polygon fill="#9a32cd" stroke="#9a32cd" points="198.78,-261.55 205.02,-270.12 205.48,-259.53 198.78,-261.55"/>
</a>
</g>
<text text-anchor="middle" x="263.41" y="-208.5" font-family="Helvetica,sans-Serif" font-size="10.00" fill="grey"> m_ContactEventProcessing</text>
<text text-anchor="middle" x="263.41" y="-196.5" font-family="Helvetica,sans-Serif" font-size="10.00" fill="grey">m_IsOpenedClient</text>
</g>
<!-- Node4 -->
<g id="Node000004" class="node">
<title>Node4</title>
<g id="a_Node000004"><a xlink:href="../../d9/d0b/class_openable_behaviour.html" target="_top" xlink:title=" ">
<polygon fill="white" stroke="#666666" points="433.53,-216 334.28,-216 334.28,-196 433.53,-196 433.53,-216"/>
<text text-anchor="middle" x="383.91" y="-202.5" font-family="Helvetica,sans-Serif" font-size="10.00">OpenableBehaviour</text>
</a>
</g>
</g>
<!-- Node3&#45;&gt;Node4 -->
<g id="edge5_Node000004_Node000003" class="edge">
<title>Node3&#45;&gt;Node4</title>
<g id="a_edge5_Node000004_Node000003"><a xlink:title=" ">
<path fill="none" stroke="#9a32cd" stroke-dasharray="5,2" d="M236.66,-269.26C271.29,-254.62 329.81,-229.88 361.65,-216.41"/>
<polygon fill="#9a32cd" stroke="#9a32cd" points="235.57,-265.93 227.72,-273.04 238.29,-272.37 235.57,-265.93"/>
</a>
</g>
<text text-anchor="middle" x="324.78" y="-244.5" font-family="Helvetica,sans-Serif" font-size="10.00" fill="grey"> m_IsOpened</text>
</g>
<!-- Node4&#45;&gt;Node1 -->
<g id="edge4_Node000001_Node000004" class="edge">
<title>Node4&#45;&gt;Node1</title>
<g id="a_edge4_Node000001_Node000004"><a xlink:title=" ">
<path fill="none" stroke="#9a32cd" stroke-dasharray="5,2" d="M383.91,-184.23C383.91,-142.48 383.91,-49.83 383.91,-20.26"/>
<polygon fill="#9a32cd" stroke="#9a32cd" points="380.41,-184.13 383.91,-194.13 387.41,-184.13 380.41,-184.13"/>
</a>
</g>
<text text-anchor="middle" x="412.78" y="-100.5" font-family="Helvetica,sans-Serif" font-size="10.00" fill="grey"> m_Openable</text>
</g>
<!-- Node5 -->
<g id="Node000005" class="node">
<title>Node5</title>
<g id="a_Node000005"><a xlink:href="../../d4/d03/classfloat.html" target="_top" xlink:title=" ">
<polygon fill="white" stroke="#666666" points="485.91,-216 451.91,-216 451.91,-196 485.91,-196 485.91,-216"/>
<text text-anchor="middle" x="468.91" y="-202.5" font-family="Helvetica,sans-Serif" font-size="10.00">float</text>
</a>
</g>
</g>
<!-- Node5&#45;&gt;Node1 -->
<g id="edge6_Node000001_Node000005" class="edge">
<title>Node5&#45;&gt;Node1</title>
<g id="a_edge6_Node000001_Node000005"><a xlink:title=" ">
<path fill="none" stroke="#9a32cd" stroke-dasharray="5,2" d="M471.87,-184.23C475.56,-150.06 477.85,-81.47 444.91,-38 438.89,-30.06 430.03,-24.41 420.92,-20.4"/>
<polygon fill="#9a32cd" stroke="#9a32cd" points="468.42,-183.65 470.65,-194.01 475.36,-184.52 468.42,-183.65"/>
</a>
</g>
<text text-anchor="middle" x="507.78" y="-112.5" font-family="Helvetica,sans-Serif" font-size="10.00" fill="grey"> m_SmokePosX</text>
<text text-anchor="middle" x="507.78" y="-100.5" font-family="Helvetica,sans-Serif" font-size="10.00" fill="grey">m_SmokePosY</text>
<text text-anchor="middle" x="507.78" y="-88.5" font-family="Helvetica,sans-Serif" font-size="10.00" fill="grey">m_SmokePosZ</text>
</g>
<!-- Node5&#45;&gt;Node5 -->
<g id="edge7_Node000005_Node000005" class="edge">
<title>Node5&#45;&gt;Node5</title>
<g id="a_edge7_Node000005_Node000005"><a xlink:title=" ">
<path fill="none" stroke="#9a32cd" stroke-dasharray="5,2" d="M497.58,-212.95C501.38,-211.77 503.91,-209.45 503.91,-206 503.91,-199.68 495.46,-197.17 486.19,-198.45"/>
<polygon fill="#9a32cd" stroke="#9a32cd" points="497.51,-209.45 487.71,-213.47 497.87,-216.44 497.51,-209.45"/>
</a>
</g>
<text text-anchor="middle" x="526.03" y="-214.5" font-family="Helvetica,sans-Serif" font-size="10.00" fill="grey"> LOWEST</text>
<text text-anchor="middle" x="526.03" y="-202.5" font-family="Helvetica,sans-Serif" font-size="10.00" fill="grey">MAX</text>
<text text-anchor="middle" x="526.03" y="-190.5" font-family="Helvetica,sans-Serif" font-size="10.00" fill="grey">MIN</text>
</g>
<!-- Node6 -->
<g id="Node000006" class="node">
<title>Node6</title>
<g id="a_Node000006"><a xlink:href="../../db/d06/class_param3.html" target="_top" xlink:title=" ">
<polygon fill="white" stroke="#666666" points="615.78,-216 566.03,-216 566.03,-196 615.78,-196 615.78,-216"/>
<text text-anchor="middle" x="590.91" y="-202.5" font-family="Helvetica,sans-Serif" font-size="10.00">Param3</text>
</a>
</g>
</g>
<!-- Node6&#45;&gt;Node1 -->
<g id="edge8_Node000001_Node000006" class="edge">
<title>Node6&#45;&gt;Node1</title>
<g id="a_edge8_Node000001_Node000006"><a xlink:title=" ">
<path fill="none" stroke="#9a32cd" stroke-dasharray="5,2" d="M592.05,-184.41C592.81,-148.85 588.76,-76.12 546.91,-38 529.25,-21.92 465.61,-15.34 423.27,-12.7"/>
<polygon fill="#9a32cd" stroke="#9a32cd" points="588.56,-184.05 591.68,-194.18 595.56,-184.32 588.56,-184.05"/>
</a>
</g>
<text text-anchor="middle" x="631.28" y="-100.5" font-family="Helvetica,sans-Serif" font-size="10.00" fill="grey"> m_FirePointIndex</text>
</g>
</g>
</svg>

<g id="navigator" transform="translate(0 0)" fill="#404254">
  <rect fill="#f2f5e9" fill-opacity="0.5" stroke="#606060" stroke-width=".5" x="0" y="0" width="60" height="60"/>
  <use id="zoomplus" xlink:href="#zoomPlus" x="17" y="9" onmousedown="handleZoom(evt,'in')"/>
  <use id="zoomminus" xlink:href="#zoomMin" x="42" y="9" onmousedown="handleZoom(evt,'out')"/>
  <use id="reset" xlink:href="#resetDef" x="30" y="36" onmousedown="handleReset()"/>
   <use id="arrowup" xlink:href="#arrowUp" x="0" y="0" onmousedown="handlePan(0,-1)"/>
  <use id="arrowright" xlink:href="#arrowRight" x="0" y="0" onmousedown="handlePan(1,0)"/>
  <use id="arrowdown" xlink:href="#arrowDown" x="0" y="0" onmousedown="handlePan(0,1)"/>
  <use id="arrowleft" xlink:href="#arrowLeft" x="0" y="0" onmousedown="handlePan(-1,0)"/>
</g>
<svg viewBox="0 0 15 15" width="100%" height="30px" preserveAspectRatio="xMaxYMin meet">
 <g id="arrow_out" transform="scale(0.3 0.3)">
  <a xlink:href="class_fireplace_base__coll__graph_org.svg" target="_base">
   <rect id="button" ry="5" rx="5" y="6" x="6" height="38" width="38"
        fill="#f2f5e9" fill-opacity="0.5" stroke="#606060" stroke-width="1.0"/>
   <path id="arrow"
     d="M 11.500037,31.436501 C 11.940474,20.09759 22.043105,11.32322 32.158766,21.979434 L 37.068811,17.246167 C 37.068811,17.246167 37.088388,32 37.088388,32 L 22.160133,31.978069 C 22.160133,31.978069 26.997745,27.140456 26.997745,27.140456 C 18.528582,18.264221 13.291696,25.230495 11.500037,31.436501 z"
     style="fill:#404040;"/>
  </a>
 </g>
</svg>

<style type='text/css'>
<![CDATA[
[data-mouse-over-selected='false'] { opacity: 0.7; }
[data-mouse-over-selected='true']  { opacity: 1.0; }
]]>
</style>
<script type="application/ecmascript"><![CDATA[
document.addEventListener('DOMContentLoaded', (event) => {
  highlightEdges();
  highlightAdjacentNodes();
});
]]></script>
</svg>
