<?xml version="1.0" encoding="UTF-8" standalone="no"?>
<!DOCTYPE svg PUBLIC "-//W3C//DTD SVG 1.1//EN"
 "http://www.w3.org/Graphics/SVG/1.1/DTD/svg11.dtd">
<!-- Generated by graphviz version 11.0.0 (20240428.1522)
 -->
<!-- Title: ModifierDebugObj Pages: 1 -->
<svg width="238pt" height="108pt"
 viewBox="0.00 0.00 237.50 108.00" xmlns="http://www.w3.org/2000/svg" xmlns:xlink="http://www.w3.org/1999/xlink">
<g id="graph0" class="graph" transform="scale(1 1) rotate(0) translate(4 104)">
<title>ModifierDebugObj</title>
<!-- Node1 -->
<g id="Node000001" class="node">
<title>Node1</title>
<g id="a_Node000001"><a xlink:title=" ">
<polygon fill="#999999" stroke="#666666" points="178.25,-20 85.75,-20 85.75,0 178.25,0 178.25,-20"/>
<text text-anchor="middle" x="132" y="-6.5" font-family="Helvetica,sans-Serif" font-size="10.00">ModifierDebugObj</text>
</a>
</g>
</g>
<!-- Node2 -->
<g id="Node000002" class="node">
<title>Node2</title>
<g id="a_Node000002"><a xlink:href="../../d5/d02/classstring.html" target="_top" xlink:title=" ">
<polygon fill="white" stroke="#666666" points="40,-100 0,-100 0,-80 40,-80 40,-100"/>
<text text-anchor="middle" x="20" y="-86.5" font-family="Helvetica,sans-Serif" font-size="10.00">string</text>
</a>
</g>
</g>
<!-- Node2&#45;&gt;Node1 -->
<g id="edge1_Node000001_Node000002" class="edge">
<title>Node2&#45;&gt;Node1</title>
<g id="a_edge1_Node000001_Node000002"><a xlink:title=" ">
<path fill="none" stroke="#9a32cd" stroke-dasharray="5,2" d="M40.23,-72.29C53.04,-61.98 70.13,-48.73 86,-38 95.21,-31.78 105.89,-25.46 114.64,-20.5"/>
<polygon fill="#9a32cd" stroke="#9a32cd" points="38.07,-69.53 32.53,-78.56 42.49,-74.96 38.07,-69.53"/>
</a>
</g>
<text text-anchor="middle" x="107" y="-46.5" font-family="Helvetica,sans-Serif" font-size="10.00" fill="grey"> m_Name</text>
</g>
<!-- Node2&#45;&gt;Node2 -->
<g id="edge2_Node000002_Node000002" class="edge">
<title>Node2&#45;&gt;Node2</title>
<g id="a_edge2_Node000002_Node000002"><a xlink:title=" ">
<path fill="none" stroke="#9a32cd" stroke-dasharray="5,2" d="M51.76,-96.44C55.54,-95.27 58,-93.12 58,-90 58,-84.3 49.76,-81.85 40.33,-82.65"/>
<polygon fill="#9a32cd" stroke="#9a32cd" points="51.53,-92.95 41.84,-97.23 52.09,-99.92 51.53,-92.95"/>
</a>
</g>
<text text-anchor="middle" x="73.75" y="-86.5" font-family="Helvetica,sans-Serif" font-size="10.00" fill="grey"> Empty</text>
</g>
<!-- Node3 -->
<g id="Node000003" class="node">
<title>Node3</title>
<g id="a_Node000003"><a xlink:href="../../db/d06/class_param3.html" target="_top" xlink:title=" ">
<polygon fill="white" stroke="#666666" points="156.88,-100 107.12,-100 107.12,-80 156.88,-80 156.88,-100"/>
<text text-anchor="middle" x="132" y="-86.5" font-family="Helvetica,sans-Serif" font-size="10.00">Param3</text>
</a>
</g>
</g>
<!-- Node3&#45;&gt;Node1 -->
<g id="edge3_Node000001_Node000003" class="edge">
<title>Node3&#45;&gt;Node1</title>
<g id="a_edge3_Node000001_Node000003"><a xlink:title=" ">
<path fill="none" stroke="#9a32cd" stroke-dasharray="5,2" d="M132,-68.59C132,-52.94 132,-32.08 132,-20.24"/>
<polygon fill="#9a32cd" stroke="#9a32cd" points="128.5,-68.23 132,-78.23 135.5,-68.23 128.5,-68.23"/>
</a>
</g>
<text text-anchor="middle" x="144.75" y="-46.5" font-family="Helvetica,sans-Serif" font-size="10.00" fill="grey"> m_ID</text>
</g>
<!-- Node4 -->
<g id="Node000004" class="node">
<title>Node4</title>
<g id="a_Node000004"><a xlink:href="../../d9/d09/classbool.html" target="_top" xlink:title=" ">
<polygon fill="white" stroke="#666666" points="209,-100 175,-100 175,-80 209,-80 209,-100"/>
<text text-anchor="middle" x="192" y="-86.5" font-family="Helvetica,sans-Serif" font-size="10.00">bool</text>
</a>
</g>
</g>
<!-- Node4&#45;&gt;Node1 -->
<g id="edge4_Node000001_Node000004" class="edge">
<title>Node4&#45;&gt;Node1</title>
<g id="a_edge4_Node000001_Node000004"><a xlink:title=" ">
<path fill="none" stroke="#9a32cd" stroke-dasharray="5,2" d="M182.47,-69.7C177.12,-59.76 169.93,-47.71 162,-38 156.77,-31.6 149.99,-25.36 144.19,-20.5"/>
<polygon fill="#9a32cd" stroke="#9a32cd" points="179.29,-71.17 186.98,-78.46 185.51,-67.96 179.29,-71.17"/>
</a>
</g>
<text text-anchor="middle" x="203.25" y="-52.5" font-family="Helvetica,sans-Serif" font-size="10.00" fill="grey"> m_IsActive</text>
<text text-anchor="middle" x="203.25" y="-40.5" font-family="Helvetica,sans-Serif" font-size="10.00" fill="grey">m_IsLocked</text>
</g>
</g>
</svg>
