<?xml version="1.0" encoding="UTF-8" standalone="no"?>
<!DOCTYPE svg PUBLIC "-//W3C//DTD SVG 1.1//EN"
 "http://www.w3.org/Graphics/SVG/1.1/DTD/svg11.dtd">
<!-- Generated by graphviz version 11.0.0 (20240428.1522)
 -->
<!-- Title: AITargetCallbacksPlayer Pages: 1 -->
<svg width="437pt" height="224pt"
 viewBox="0.00 0.00 436.50 224.00" xmlns="http://www.w3.org/2000/svg" xmlns:xlink="http://www.w3.org/1999/xlink">

<svg id="main" version="1.1" xmlns="http://www.w3.org/2000/svg" xmlns:xlink="http://www.w3.org/1999/xlink" xml:space="preserve" onload="init(evt)">
<style type="text/css"><![CDATA[
.node, .edge {opacity: 0.7;}
.node.selected, .edge.selected {opacity: 1;}
.edge:hover path { stroke: red; }
.edge:hover polygon { stroke: red; fill: red; }
]]></style>
<script type="application/ecmascript" xlink:href="../../svg.min.js"/>
<svg id="graph" class="graph">
<g id="graph0" class="graph" transform="scale(1 1) rotate(0) translate(4 220)">
<title>AITargetCallbacksPlayer</title>
<!-- Node1 -->
<g id="Node000001" class="node">
<title>Node1</title>
<g id="a_Node000001"><a xlink:title=" ">
<polygon fill="#999999" stroke="#666666" points="259,-20 136.5,-20 136.5,0 259,0 259,-20"/>
<text text-anchor="middle" x="197.75" y="-6.5" font-family="Helvetica,sans-Serif" font-size="10.00">AITargetCallbacksPlayer</text>
</a>
</g>
</g>
<!-- Node2 -->
<g id="Node000002" class="node">
<title>Node2</title>
<g id="a_Node000002"><a xlink:href="../../dd/d06/class_a_i_target_callbacks.html" target="_top" xlink:title=" ">
<polygon fill="white" stroke="#666666" points="130.12,-100 35.38,-100 35.38,-80 130.12,-80 130.12,-100"/>
<text text-anchor="middle" x="82.75" y="-86.5" font-family="Helvetica,sans-Serif" font-size="10.00">AITargetCallbacks</text>
</a>
</g>
</g>
<!-- Node2&#45;&gt;Node1 -->
<g id="edge1_Node000001_Node000002" class="edge">
<title>Node2&#45;&gt;Node1</title>
<g id="a_edge1_Node000001_Node000002"><a xlink:title=" ">
<path fill="none" stroke="#8b1a1a" d="M105.87,-73.32C129.18,-57.51 164.4,-33.62 183.77,-20.49"/>
<polygon fill="#8b1a1a" stroke="#8b1a1a" points="103.96,-70.39 97.65,-78.9 107.89,-76.18 103.96,-70.39"/>
</a>
</g>
</g>
<!-- Node3 -->
<g id="Node000003" class="node">
<title>Node3</title>
<g id="a_Node000003"><a xlink:href="../../d3/d09/class_abstract_a_i_target_callbacks.html" target="_top" xlink:title=" ">
<polygon fill="white" stroke="#666666" points="131.5,-216 0,-216 0,-196 131.5,-196 131.5,-216"/>
<text text-anchor="middle" x="65.75" y="-202.5" font-family="Helvetica,sans-Serif" font-size="10.00">AbstractAITargetCallbacks</text>
</a>
</g>
</g>
<!-- Node3&#45;&gt;Node2 -->
<g id="edge2_Node000002_Node000003" class="edge">
<title>Node3&#45;&gt;Node2</title>
<g id="a_edge2_Node000002_Node000003"><a xlink:title=" ">
<path fill="none" stroke="#8b1a1a" d="M68.84,-184.31C72.54,-159.44 78.61,-118.77 81.34,-100.46"/>
<polygon fill="#8b1a1a" stroke="#8b1a1a" points="65.38,-183.77 67.36,-194.17 72.3,-184.8 65.38,-183.77"/>
</a>
</g>
</g>
<!-- Node4 -->
<g id="Node000004" class="node">
<title>Node4</title>
<g id="a_Node000004"><a xlink:href="../../d5/d08/class_player_base.html" target="_top" xlink:title=" ">
<polygon fill="white" stroke="#666666" points="230.88,-100 164.62,-100 164.62,-80 230.88,-80 230.88,-100"/>
<text text-anchor="middle" x="197.75" y="-86.5" font-family="Helvetica,sans-Serif" font-size="10.00">PlayerBase</text>
</a>
</g>
</g>
<!-- Node4&#45;&gt;Node1 -->
<g id="edge3_Node000001_Node000004" class="edge">
<title>Node4&#45;&gt;Node1</title>
<g id="a_edge3_Node000001_Node000004"><a xlink:title=" ">
<path fill="none" stroke="#9a32cd" stroke-dasharray="5,2" d="M197.75,-68.59C197.75,-52.94 197.75,-32.08 197.75,-20.24"/>
<polygon fill="#9a32cd" stroke="#9a32cd" points="194.25,-68.23 197.75,-78.23 201.25,-68.23 194.25,-68.23"/>
</a>
</g>
<text text-anchor="middle" x="219.88" y="-46.5" font-family="Helvetica,sans-Serif" font-size="10.00" fill="grey"> m_Player</text>
</g>
<!-- Node5 -->
<g id="Node000005" class="node">
<title>Node5</title>
<g id="a_Node000005"><a xlink:href="../../dd/d03/class_scripted_light_base.html" target="_top" xlink:title=" ">
<polygon fill="white" stroke="#666666" points="245.5,-216 150,-216 150,-196 245.5,-196 245.5,-216"/>
<text text-anchor="middle" x="197.75" y="-202.5" font-family="Helvetica,sans-Serif" font-size="10.00">ScriptedLightBase</text>
</a>
</g>
</g>
<!-- Node5&#45;&gt;Node4 -->
<g id="edge4_Node000004_Node000005" class="edge">
<title>Node5&#45;&gt;Node4</title>
<g id="a_edge4_Node000004_Node000005"><a xlink:title=" ">
<path fill="none" stroke="#9a32cd" stroke-dasharray="5,2" d="M197.75,-184.31C197.75,-159.44 197.75,-118.77 197.75,-100.46"/>
<polygon fill="#9a32cd" stroke="#9a32cd" points="194.25,-184.16 197.75,-194.16 201.25,-184.16 194.25,-184.16"/>
</a>
</g>
<text text-anchor="middle" x="235.62" y="-144.5" font-family="Helvetica,sans-Serif" font-size="10.00" fill="grey"> m_PersonalLight</text>
</g>
<!-- Node6 -->
<g id="Node000006" class="node">
<title>Node6</title>
<g id="a_Node000006"><a xlink:href="../../d9/d09/classbool.html" target="_top" xlink:title=" ">
<polygon fill="white" stroke="#666666" points="313.75,-216 279.75,-216 279.75,-196 313.75,-196 313.75,-216"/>
<text text-anchor="middle" x="296.75" y="-202.5" font-family="Helvetica,sans-Serif" font-size="10.00">bool</text>
</a>
</g>
</g>
<!-- Node6&#45;&gt;Node4 -->
<g id="edge5_Node000004_Node000006" class="edge">
<title>Node6&#45;&gt;Node4</title>
<g id="a_edge5_Node000004_Node000006"><a xlink:title=" ">
<path fill="none" stroke="#9a32cd" stroke-dasharray="5,2" d="M296.82,-184.04C295.77,-164.59 291.23,-136.02 274.75,-118 268.58,-111.26 249.08,-104.45 231.25,-99.36"/>
<polygon fill="#9a32cd" stroke="#9a32cd" points="293.32,-184.12 297.06,-194.03 300.32,-183.95 293.32,-184.12"/>
</a>
</g>
<text text-anchor="start" x="295.75" y="-168.5" font-family="Helvetica,sans-Serif" font-size="10.00" fill="grey"> m_PersonalLightDisabledBy</text>
<text text-anchor="middle" x="362.12" y="-156.5" font-family="Helvetica,sans-Serif" font-size="10.00" fill="grey">Debug</text>
<text text-anchor="start" x="295.75" y="-144.5" font-family="Helvetica,sans-Serif" font-size="10.00" fill="grey">m_PersonalLightEnabledOn</text>
<text text-anchor="middle" x="362.12" y="-132.5" font-family="Helvetica,sans-Serif" font-size="10.00" fill="grey">CurrentServer</text>
<text text-anchor="middle" x="362.12" y="-120.5" font-family="Helvetica,sans-Serif" font-size="10.00" fill="grey">m_PersonalLightIsSwitchedOn</text>
</g>
<!-- Node7 -->
<g id="Node000007" class="node">
<title>Node7</title>
<g id="a_Node000007"><a xlink:href="../../db/d06/class_param3.html" target="_top" xlink:title=" ">
<polygon fill="white" stroke="#666666" points="298.62,-100 248.88,-100 248.88,-80 298.62,-80 298.62,-100"/>
<text text-anchor="middle" x="273.75" y="-86.5" font-family="Helvetica,sans-Serif" font-size="10.00">Param3</text>
</a>
</g>
</g>
<!-- Node7&#45;&gt;Node1 -->
<g id="edge6_Node000001_Node000007" class="edge">
<title>Node7&#45;&gt;Node1</title>
<g id="a_edge6_Node000001_Node000007"><a xlink:title=" ">
<path fill="none" stroke="#9a32cd" stroke-dasharray="5,2" d="M266.07,-69.29C261.35,-59.05 254.53,-46.87 245.75,-38 238.49,-30.66 228.81,-24.71 220.05,-20.28"/>
<polygon fill="#9a32cd" stroke="#9a32cd" points="262.78,-70.49 269.89,-78.34 269.22,-67.76 262.78,-70.49"/>
</a>
</g>
<text text-anchor="middle" x="306.75" y="-52.5" font-family="Helvetica,sans-Serif" font-size="10.00" fill="grey"> m_iChestBoneIndex</text>
<text text-anchor="middle" x="306.75" y="-40.5" font-family="Helvetica,sans-Serif" font-size="10.00" fill="grey">m_iHeadBoneIndex</text>
</g>
</g>
</svg>
</svg>

<style type='text/css'>
<![CDATA[
[data-mouse-over-selected='false'] { opacity: 0.7; }
[data-mouse-over-selected='true']  { opacity: 1.0; }
]]>
</style>
<script type="application/ecmascript"><![CDATA[
document.addEventListener('DOMContentLoaded', (event) => {
  highlightEdges();
  highlightAdjacentNodes();
});
]]></script>
</svg>
