<?xml version="1.0" encoding="UTF-8" standalone="no"?>
<!DOCTYPE svg PUBLIC "-//W3C//DTD SVG 1.1//EN"
 "http://www.w3.org/Graphics/SVG/1.1/DTD/svg11.dtd">
<!-- Generated by graphviz version 11.0.0 (20240428.1522)
 -->
<!-- Title: PPEDynamicBlur Pages: 1 -->
<svg width="1202pt" height="415pt"
 viewBox="0.00 0.00 1202.25 414.91" xmlns="http://www.w3.org/2000/svg" xmlns:xlink="http://www.w3.org/1999/xlink">
<g id="graph0" class="graph" transform="scale(1 1) rotate(0) translate(4 410.91)">
<title>PPEDynamicBlur</title>
<!-- Node1 -->
<g id="Node000001" class="node">
<title>Node1</title>
<g id="a_Node000001"><a xlink:title="DynamicBlur &#45; PostProcessEffectType.DynamicBlur.">
<polygon fill="#999999" stroke="#666666" points="137.88,-20 46.12,-20 46.12,0 137.88,0 137.88,-20"/>
<text text-anchor="middle" x="92" y="-6.5" font-family="Helvetica,sans-Serif" font-size="10.00">PPEDynamicBlur</text>
</a>
</g>
</g>
<!-- Node2 -->
<g id="Node000002" class="node">
<title>Node2</title>
<g id="a_Node000002"><a xlink:href="../../d3/d0f/class_p_p_e_class_base.html" target="_top" xlink:title="Created once, on manager init. Script&#45;side representation of C++ material class, separate handling.">
<polygon fill="white" stroke="#666666" points="301.75,-77 218.25,-77 218.25,-57 301.75,-57 301.75,-77"/>
<text text-anchor="middle" x="260" y="-63.5" font-family="Helvetica,sans-Serif" font-size="10.00">PPEClassBase</text>
</a>
</g>
</g>
<!-- Node2&#45;&gt;Node1 -->
<g id="edge1_Node000001_Node000002" class="edge">
<title>Node2&#45;&gt;Node1</title>
<g id="a_edge1_Node000001_Node000002"><a xlink:title=" ">
<path fill="none" stroke="#8b1a1a" d="M220.4,-53.04C189.83,-43.03 148.24,-29.41 120.78,-20.42"/>
<polygon fill="#8b1a1a" stroke="#8b1a1a" points="219.09,-56.29 229.68,-56.07 221.27,-49.64 219.09,-56.29"/>
</a>
</g>
</g>
<!-- Node3 -->
<g id="Node000003" class="node">
<title>Node3</title>
<g id="a_Node000003"><a xlink:href="../../d5/d02/classstring.html" target="_top" xlink:title=" ">
<polygon fill="white" stroke="#666666" points="1108,-405 1068,-405 1068,-385 1108,-385 1108,-405"/>
<text text-anchor="middle" x="1088" y="-391.5" font-family="Helvetica,sans-Serif" font-size="10.00">string</text>
</a>
</g>
</g>
<!-- Node3&#45;&gt;Node2 -->
<g id="edge2_Node000002_Node000003" class="edge">
<title>Node3&#45;&gt;Node2</title>
<g id="a_edge2_Node000002_Node000003"><a xlink:title=" ">
<path fill="none" stroke="#9a32cd" stroke-dasharray="5,2" d="M1104.94,-376.19C1107.19,-373.26 1109.3,-370.15 1111,-367 1145.54,-302.78 1175.78,-266.76 1137,-205 1100,-146.08 1063.02,-155.67 996,-137 863.71,-100.16 438.28,-76.69 302.25,-69.99"/>
<polygon fill="#9a32cd" stroke="#9a32cd" points="1102.45,-373.73 1098.6,-383.6 1107.76,-378.28 1102.45,-373.73"/>
</a>
</g>
<text text-anchor="middle" x="1158.62" y="-177.5" font-family="Helvetica,sans-Serif" font-size="10.00" fill="grey"> m_MaterialPath</text>
</g>
<!-- Node3&#45;&gt;Node3 -->
<g id="edge3_Node000003_Node000003" class="edge">
<title>Node3&#45;&gt;Node3</title>
<g id="a_edge3_Node000003_Node000003"><a xlink:title=" ">
<path fill="none" stroke="#9a32cd" stroke-dasharray="5,2" d="M1113.77,-406.91C1120.72,-406.28 1126,-402.31 1126,-395 1126,-384.12 1114.3,-380.64 1102.82,-384.55"/>
<polygon fill="#9a32cd" stroke="#9a32cd" points="1114.7,-403.5 1104.32,-405.65 1113.77,-410.44 1114.7,-403.5"/>
</a>
</g>
<text text-anchor="middle" x="1141.75" y="-391.5" font-family="Helvetica,sans-Serif" font-size="10.00" fill="grey"> Empty</text>
</g>
<!-- Node5 -->
<g id="Node000005" class="node">
<title>Node5</title>
<g id="a_Node000005"><a xlink:href="../../d2/d01/classarray.html" target="_top" xlink:title=" ">
<polygon fill="white" stroke="#666666" points="550.75,-157 461.25,-157 461.25,-137 550.75,-137 550.75,-157"/>
<text text-anchor="middle" x="506" y="-143.5" font-family="Helvetica,sans-Serif" font-size="10.00">array&lt; Param3 &gt;</text>
</a>
</g>
</g>
<!-- Node3&#45;&gt;Node5 -->
<g id="edge24_Node000005_Node000003" class="edge">
<title>Node3&#45;&gt;Node5</title>
<g id="a_edge24_Node000005_Node000003"><a xlink:title=" ">
<path fill="none" stroke="#9a32cd" stroke-dasharray="5,2" d="M1084.15,-373.63C1078.76,-350.92 1066.71,-314.8 1042,-295 1012.8,-271.6 987.22,-302.41 959.75,-277 935.21,-254.3 963.63,-226.46 938,-205 911.58,-182.89 817.53,-194.94 784,-187 768.81,-183.4 766.2,-178.55 751,-175 682.24,-158.95 600.34,-152.38 550.8,-149.73"/>
<polygon fill="#9a32cd" stroke="#9a32cd" points="1080.68,-374.14 1086.18,-383.19 1087.52,-372.68 1080.68,-374.14"/>
</a>
</g>
<text text-anchor="middle" x="976.62" y="-237.5" font-family="Helvetica,sans-Serif" font-size="10.00" fill="grey"> m_Test</text>
</g>
<!-- Node7 -->
<g id="Node000007" class="node">
<title>Node7</title>
<g id="a_Node000007"><a xlink:href="../../d2/d01/classarray.html" target="_top" xlink:title="Result for an object found in CGame.IsBoxCollidingGeometryProxy.">
<polygon fill="white" stroke="#666666" points="800.88,-251 763.12,-251 763.12,-231 800.88,-231 800.88,-251"/>
<text text-anchor="middle" x="782" y="-237.5" font-family="Helvetica,sans-Serif" font-size="10.00">array</text>
</a>
</g>
</g>
<!-- Node3&#45;&gt;Node7 -->
<g id="edge13_Node000007_Node000003" class="edge">
<title>Node3&#45;&gt;Node7</title>
<g id="a_edge13_Node000007_Node000003"><a xlink:title=" ">
<path fill="none" stroke="#9a32cd" stroke-dasharray="5,2" d="M1056.92,-387.48C1041.09,-383.24 1022.01,-376.67 1006.75,-367 969.37,-343.32 975.87,-317.88 938,-295 913.07,-279.94 902.65,-286.14 875,-277 849.12,-268.45 819.76,-257.12 801.07,-249.7"/>
<polygon fill="#9a32cd" stroke="#9a32cd" points="1055.76,-390.79 1066.31,-389.8 1057.44,-384 1055.76,-390.79"/>
</a>
</g>
<text text-anchor="middle" x="1023.62" y="-327.5" font-family="Helvetica,sans-Serif" font-size="10.00" fill="grey"> m_Test</text>
</g>
<!-- Node10 -->
<g id="Node000010" class="node">
<title>Node10</title>
<g id="a_Node000010"><a xlink:href="../../d2/d01/classarray.html" target="_top" xlink:title=" ">
<polygon fill="white" stroke="#666666" points="906.25,-157 819.75,-157 819.75,-137 906.25,-137 906.25,-157"/>
<text text-anchor="middle" x="863" y="-143.5" font-family="Helvetica,sans-Serif" font-size="10.00">array&lt; Widget &gt;</text>
</a>
</g>
</g>
<!-- Node3&#45;&gt;Node10 -->
<g id="edge20_Node000010_Node000003" class="edge">
<title>Node3&#45;&gt;Node10</title>
<g id="a_edge20_Node000010_Node000003"><a xlink:title=" ">
<path fill="none" stroke="#9a32cd" stroke-dasharray="5,2" d="M1092.7,-374.02C1100.26,-336.59 1110.62,-255.17 1072,-205 1051.92,-178.92 961.63,-161.86 906.5,-153.68"/>
<polygon fill="#9a32cd" stroke="#9a32cd" points="1089.36,-372.92 1090.64,-383.44 1096.2,-374.41 1089.36,-372.92"/>
</a>
</g>
<text text-anchor="middle" x="1115.62" y="-237.5" font-family="Helvetica,sans-Serif" font-size="10.00" fill="grey"> m_Test</text>
</g>
<!-- Node4 -->
<g id="Node000004" class="node">
<title>Node4</title>
<g id="a_Node000004"><a xlink:href="../../db/d06/class_param3.html" target="_top" xlink:title=" ">
<polygon fill="white" stroke="#666666" points="203.88,-405 154.12,-405 154.12,-385 203.88,-385 203.88,-405"/>
<text text-anchor="middle" x="179" y="-391.5" font-family="Helvetica,sans-Serif" font-size="10.00">Param3</text>
</a>
</g>
</g>
<!-- Node4&#45;&gt;Node1 -->
<g id="edge26_Node000001_Node000004" class="edge">
<title>Node4&#45;&gt;Node1</title>
<g id="a_edge26_Node000001_Node000004"><a xlink:title=" ">
<path fill="none" stroke="#9a32cd" stroke-dasharray="5,2" d="M143.22,-382.01C90.99,-361.98 0,-316.41 0,-242 0,-242 0,-242 0,-66 0,-41.99 23.36,-28.22 46.54,-20.45"/>
<polygon fill="#9a32cd" stroke="#9a32cd" points="141.72,-385.19 152.31,-385.37 144.15,-378.62 141.72,-385.19"/>
</a>
</g>
<text text-anchor="middle" x="52.5" y="-143.5" font-family="Helvetica,sans-Serif" font-size="10.00" fill="grey"> PARAM_BLURRINESS</text>
</g>
<!-- Node4&#45;&gt;Node2 -->
<g id="edge4_Node000002_Node000004" class="edge">
<title>Node4&#45;&gt;Node2</title>
<g id="a_edge4_Node000002_Node000004"><a xlink:title=" ">
<path fill="none" stroke="#9a32cd" stroke-dasharray="5,2" d="M171.52,-373.91C170.9,-371.6 170.37,-369.27 170,-367 158.46,-295.9 157.45,-274.86 175,-205 188.57,-150.98 232.4,-98.16 251.25,-77.32"/>
<polygon fill="#9a32cd" stroke="#9a32cd" points="168.15,-374.85 174.6,-383.25 174.8,-372.66 168.15,-374.85"/>
</a>
</g>
<text text-anchor="middle" x="210.5" y="-177.5" font-family="Helvetica,sans-Serif" font-size="10.00" fill="grey"> m_Material</text>
</g>
<!-- Node4&#45;&gt;Node5 -->
<g id="edge7_Node000005_Node000004" class="edge">
<title>Node4&#45;&gt;Node5</title>
<g id="a_edge7_Node000005_Node000004"><a xlink:title=" ">
<path fill="none" stroke="#9a32cd" stroke-dasharray="5,2" d="M175.92,-373.23C171.46,-334.47 168.05,-250.92 212.75,-205 246.57,-170.25 387.46,-155.85 460.94,-150.62"/>
<polygon fill="#9a32cd" stroke="#9a32cd" points="172.44,-373.58 177.21,-383.03 179.38,-372.66 172.44,-373.58"/>
</a>
</g>
<text text-anchor="middle" x="271.12" y="-267.5" font-family="Helvetica,sans-Serif" font-size="10.00" fill="grey"> NO_SORTING</text>
<text text-anchor="middle" x="271.12" y="-255.5" font-family="Helvetica,sans-Serif" font-size="10.00" fill="grey">geomLevel</text>
<text text-anchor="middle" x="271.12" y="-243.5" font-family="Helvetica,sans-Serif" font-size="10.00" fill="grey">hierLevel</text>
<text text-anchor="start" x="213" y="-231.5" font-family="Helvetica,sans-Serif" font-size="10.00" fill="grey">m_CurrentSettingAlternate</text>
<text text-anchor="middle" x="271.12" y="-219.5" font-family="Helvetica,sans-Serif" font-size="10.00" fill="grey">KeyIndex</text>
<text text-anchor="middle" x="271.12" y="-207.5" font-family="Helvetica,sans-Serif" font-size="10.00" fill="grey">m_CurrentSettingKeyIndex</text>
</g>
<!-- Node4&#45;&gt;Node7 -->
<g id="edge10_Node000007_Node000004" class="edge">
<title>Node4&#45;&gt;Node7</title>
<g id="a_edge10_Node000007_Node000004"><a xlink:title=" ">
<path fill="none" stroke="#9a32cd" stroke-dasharray="5,2" d="M215.54,-393.34C273.72,-391.72 384.29,-386.15 418,-367 452.96,-347.14 437.33,-314.02 472.75,-295 526.95,-265.89 693.34,-303.2 749,-277 760.79,-271.45 770.46,-259.67 776.22,-251.31"/>
<polygon fill="#9a32cd" stroke="#9a32cd" points="215.72,-389.84 205.81,-393.59 215.9,-396.83 215.72,-389.84"/>
</a>
</g>
<text text-anchor="middle" x="530.12" y="-357.5" font-family="Helvetica,sans-Serif" font-size="10.00" fill="grey"> NO_SORTING</text>
<text text-anchor="middle" x="530.12" y="-345.5" font-family="Helvetica,sans-Serif" font-size="10.00" fill="grey">geomLevel</text>
<text text-anchor="middle" x="530.12" y="-333.5" font-family="Helvetica,sans-Serif" font-size="10.00" fill="grey">hierLevel</text>
<text text-anchor="start" x="472" y="-321.5" font-family="Helvetica,sans-Serif" font-size="10.00" fill="grey">m_CurrentSettingAlternate</text>
<text text-anchor="middle" x="530.12" y="-309.5" font-family="Helvetica,sans-Serif" font-size="10.00" fill="grey">KeyIndex</text>
<text text-anchor="middle" x="530.12" y="-297.5" font-family="Helvetica,sans-Serif" font-size="10.00" fill="grey">m_CurrentSettingKeyIndex</text>
</g>
<!-- Node4&#45;&gt;Node10 -->
<g id="edge17_Node000010_Node000004" class="edge">
<title>Node4&#45;&gt;Node10</title>
<g id="a_edge17_Node000010_Node000004"><a xlink:title=" ">
<path fill="none" stroke="#9a32cd" stroke-dasharray="5,2" d="M215.14,-382.55C260.65,-366.3 338.18,-332.23 382,-277 402.78,-250.81 378.6,-227.02 403.75,-205 465.04,-151.36 717.31,-146.93 819.61,-147.41"/>
<polygon fill="#9a32cd" stroke="#9a32cd" points="214.04,-379.23 205.73,-385.81 216.32,-385.85 214.04,-379.23"/>
</a>
</g>
<text text-anchor="middle" x="461.12" y="-267.5" font-family="Helvetica,sans-Serif" font-size="10.00" fill="grey"> NO_SORTING</text>
<text text-anchor="middle" x="461.12" y="-255.5" font-family="Helvetica,sans-Serif" font-size="10.00" fill="grey">geomLevel</text>
<text text-anchor="middle" x="461.12" y="-243.5" font-family="Helvetica,sans-Serif" font-size="10.00" fill="grey">hierLevel</text>
<text text-anchor="start" x="403" y="-231.5" font-family="Helvetica,sans-Serif" font-size="10.00" fill="grey">m_CurrentSettingAlternate</text>
<text text-anchor="middle" x="461.12" y="-219.5" font-family="Helvetica,sans-Serif" font-size="10.00" fill="grey">KeyIndex</text>
<text text-anchor="middle" x="461.12" y="-207.5" font-family="Helvetica,sans-Serif" font-size="10.00" fill="grey">m_CurrentSettingKeyIndex</text>
</g>
<!-- Node5&#45;&gt;Node2 -->
<g id="edge5_Node000002_Node000005" class="edge">
<title>Node5&#45;&gt;Node2</title>
<g id="a_edge5_Node000002_Node000005"><a xlink:title=" ">
<path fill="none" stroke="#9a32cd" stroke-dasharray="5,2" d="M465.41,-133.13C415.99,-117.46 333.71,-91.37 289.78,-77.44"/>
<polygon fill="#9a32cd" stroke="#9a32cd" points="464.29,-136.45 474.88,-136.13 466.41,-129.78 464.29,-136.45"/>
</a>
</g>
<text text-anchor="middle" x="482.38" y="-109.5" font-family="Helvetica,sans-Serif" font-size="10.00" fill="grey"> m_ParameterRemovalQueue</text>
<text text-anchor="middle" x="482.38" y="-97.5" font-family="Helvetica,sans-Serif" font-size="10.00" fill="grey">m_UpdatedParameters</text>
</g>
<!-- Node6 -->
<g id="Node000006" class="node">
<title>Node6</title>
<g id="a_Node000006"><a xlink:href="../../d8/d03/class_object.html" target="_top" xlink:title=" ">
<polygon fill="white" stroke="#666666" points="804.25,-405 759.75,-405 759.75,-385 804.25,-385 804.25,-405"/>
<text text-anchor="middle" x="782" y="-391.5" font-family="Helvetica,sans-Serif" font-size="10.00">Object</text>
</a>
</g>
</g>
<!-- Node6&#45;&gt;Node5 -->
<g id="edge6_Node000005_Node000006" class="edge">
<title>Node6&#45;&gt;Node5</title>
<g id="a_edge6_Node000005_Node000006"><a xlink:title=" ">
<path fill="none" stroke="#9a32cd" stroke-dasharray="5,2" d="M748.27,-392.61C726.68,-390.05 699.36,-383.45 681,-367 655.43,-344.09 668.36,-325.71 653,-295 647.73,-284.47 605.32,-213.34 597,-205 576.2,-184.14 546.41,-167.32 526.65,-157.49"/>
<polygon fill="#9a32cd" stroke="#9a32cd" points="747.8,-396.08 758.08,-393.52 748.45,-389.11 747.8,-396.08"/>
</a>
</g>
<text text-anchor="middle" x="655.5" y="-243.5" font-family="Helvetica,sans-Serif" font-size="10.00" fill="grey"> obj</text>
<text text-anchor="middle" x="655.5" y="-231.5" font-family="Helvetica,sans-Serif" font-size="10.00" fill="grey">parent</text>
</g>
<!-- Node6&#45;&gt;Node7 -->
<g id="edge9_Node000007_Node000006" class="edge">
<title>Node6&#45;&gt;Node7</title>
<g id="a_edge9_Node000007_Node000006"><a xlink:title=" ">
<path fill="none" stroke="#9a32cd" stroke-dasharray="5,2" d="M782,-373.47C782,-340.04 782,-275.17 782,-251.2"/>
<polygon fill="#9a32cd" stroke="#9a32cd" points="778.5,-373.43 782,-383.43 785.5,-373.43 778.5,-373.43"/>
</a>
</g>
<text text-anchor="middle" x="795.5" y="-333.5" font-family="Helvetica,sans-Serif" font-size="10.00" fill="grey"> obj</text>
<text text-anchor="middle" x="795.5" y="-321.5" font-family="Helvetica,sans-Serif" font-size="10.00" fill="grey">parent</text>
</g>
<!-- Node6&#45;&gt;Node10 -->
<g id="edge16_Node000010_Node000006" class="edge">
<title>Node6&#45;&gt;Node10</title>
<g id="a_edge16_Node000010_Node000006"><a xlink:title=" ">
<path fill="none" stroke="#9a32cd" stroke-dasharray="5,2" d="M802.87,-377.31C806.43,-374.06 809.95,-370.55 813,-367 872.9,-297.23 893.87,-276.49 915,-187 916.23,-181.81 917.77,-179.56 915,-175 910.25,-167.18 902.41,-161.52 894.24,-157.47"/>
<polygon fill="#9a32cd" stroke="#9a32cd" points="800.68,-374.58 795.38,-383.75 805.24,-379.89 800.68,-374.58"/>
</a>
</g>
<text text-anchor="middle" x="923.5" y="-243.5" font-family="Helvetica,sans-Serif" font-size="10.00" fill="grey"> obj</text>
<text text-anchor="middle" x="923.5" y="-231.5" font-family="Helvetica,sans-Serif" font-size="10.00" fill="grey">parent</text>
</g>
<!-- Node7&#45;&gt;Node5 -->
<g id="edge8_Node000005_Node000007" class="edge">
<title>Node7&#45;&gt;Node5</title>
<g id="a_edge8_Node000005_Node000007"><a xlink:title=" ">
<path fill="none" stroke="#9a32cd" stroke-dasharray="5,2" d="M767.5,-221.96C762.12,-216.05 755.7,-209.77 749,-205 733.12,-193.69 726.54,-195.51 709,-187 698.63,-181.97 696.96,-178.57 686,-175 641.38,-160.47 587.96,-153.71 550.96,-150.6"/>
<polygon fill="#9a32cd" stroke="#9a32cd" points="764.82,-224.22 773.98,-229.55 770.14,-219.68 764.82,-224.22"/>
</a>
</g>
<text text-anchor="middle" x="730" y="-177.5" font-family="Helvetica,sans-Serif" font-size="10.00" fill="grey"> proxyInfo</text>
</g>
<!-- Node7&#45;&gt;Node7 -->
<g id="edge11_Node000007_Node000007" class="edge">
<title>Node7&#45;&gt;Node7</title>
<g id="a_edge11_Node000007_Node000007"><a xlink:title=" ">
<path fill="none" stroke="#9a32cd" stroke-dasharray="5,2" d="M810.02,-251.66C815.22,-250.34 818.88,-246.78 818.88,-241 818.88,-231.51 809.03,-228.02 798.69,-230.54"/>
<polygon fill="#9a32cd" stroke="#9a32cd" points="810.26,-248.17 800.2,-251.48 810.13,-255.16 810.26,-248.17"/>
</a>
</g>
<text text-anchor="middle" x="839.88" y="-237.5" font-family="Helvetica,sans-Serif" font-size="10.00" fill="grey"> proxyInfo</text>
</g>
<!-- Node7&#45;&gt;Node10 -->
<g id="edge18_Node000010_Node000007" class="edge">
<title>Node7&#45;&gt;Node10</title>
<g id="a_edge18_Node000010_Node000007"><a xlink:title=" ">
<path fill="none" stroke="#9a32cd" stroke-dasharray="5,2" d="M781.24,-219.48C781.79,-205.48 784.73,-187.32 795,-175 801.67,-167 811.05,-161.36 820.71,-157.38"/>
<polygon fill="#9a32cd" stroke="#9a32cd" points="777.74,-219.37 781.26,-229.36 784.74,-219.36 777.74,-219.37"/>
</a>
</g>
<text text-anchor="middle" x="816" y="-177.5" font-family="Helvetica,sans-Serif" font-size="10.00" fill="grey"> proxyInfo</text>
</g>
<!-- Node8 -->
<g id="Node000008" class="node">
<title>Node8</title>
<g id="a_Node000008"><a xlink:href="../../d4/d04/class_class.html" target="_top" xlink:title="Super root of all classes in Enforce script.">
<polygon fill="white" stroke="#666666" points="925.38,-405 884.62,-405 884.62,-385 925.38,-385 925.38,-405"/>
<text text-anchor="middle" x="905" y="-391.5" font-family="Helvetica,sans-Serif" font-size="10.00">Class</text>
</a>
</g>
</g>
<!-- Node8&#45;&gt;Node5 -->
<g id="edge23_Node000005_Node000008" class="edge">
<title>Node8&#45;&gt;Node5</title>
<g id="a_edge23_Node000005_Node000008"><a xlink:title=" ">
<path fill="none" stroke="#9a32cd" stroke-dasharray="5,2" d="M873.04,-392.85C846.04,-390.62 807.21,-384.33 778,-367 732.66,-340.1 728.59,-321.76 700.75,-277 682.37,-247.45 695.44,-228.74 670,-205 637.27,-174.46 587.33,-160.17 551.16,-153.56"/>
<polygon fill="#9a32cd" stroke="#9a32cd" points="872.46,-396.32 882.67,-393.5 872.93,-389.34 872.46,-396.32"/>
</a>
</g>
<text text-anchor="middle" x="726.62" y="-237.5" font-family="Helvetica,sans-Serif" font-size="10.00" fill="grey"> m_Instance</text>
</g>
<!-- Node8&#45;&gt;Node7 -->
<g id="edge12_Node000007_Node000008" class="edge">
<title>Node8&#45;&gt;Node7</title>
<g id="a_edge12_Node000007_Node000008"><a xlink:title=" ">
<path fill="none" stroke="#9a32cd" stroke-dasharray="5,2" d="M890.48,-376.06C864.14,-343.51 809.36,-275.81 789.44,-251.2"/>
<polygon fill="#9a32cd" stroke="#9a32cd" points="887.71,-378.2 896.72,-383.77 893.15,-373.79 887.71,-378.2"/>
</a>
</g>
<text text-anchor="middle" x="907.62" y="-327.5" font-family="Helvetica,sans-Serif" font-size="10.00" fill="grey"> m_Instance</text>
</g>
<!-- Node8&#45;&gt;Node10 -->
<g id="edge19_Node000010_Node000008" class="edge">
<title>Node8&#45;&gt;Node10</title>
<g id="a_edge19_Node000010_Node000008"><a xlink:title=" ">
<path fill="none" stroke="#9a32cd" stroke-dasharray="5,2" d="M936.87,-390.68C966.39,-386.87 1007.17,-379.48 1017,-367 1036.8,-341.86 1020.15,-326.84 1017,-295 1012.98,-254.41 1021.52,-239.01 999,-205 978.65,-174.26 938.16,-160.07 906.63,-153.53"/>
<polygon fill="#9a32cd" stroke="#9a32cd" points="936.82,-387.16 927.31,-391.83 937.66,-394.11 936.82,-387.16"/>
</a>
</g>
<text text-anchor="middle" x="1041.62" y="-237.5" font-family="Helvetica,sans-Serif" font-size="10.00" fill="grey"> m_Instance</text>
</g>
<!-- Node9 -->
<g id="Node000009" class="node">
<title>Node9</title>
<g id="a_Node000009"><a xlink:href="../../dd/d0a/class_widget.html" target="_top" xlink:title=" ">
<polygon fill="white" stroke="#666666" points="466.38,-405 419.62,-405 419.62,-385 466.38,-385 466.38,-405"/>
<text text-anchor="middle" x="443" y="-391.5" font-family="Helvetica,sans-Serif" font-size="10.00">Widget</text>
</a>
</g>
</g>
<!-- Node9&#45;&gt;Node5 -->
<g id="edge25_Node000005_Node000009" class="edge">
<title>Node9&#45;&gt;Node5</title>
<g id="a_edge25_Node000005_Node000009"><a xlink:title=" ">
<path fill="none" stroke="#9a32cd" stroke-dasharray="5,2" d="M422.4,-377.36C382.81,-343.35 303.52,-264.08 345.25,-205 371.22,-168.24 423.02,-155.04 460.82,-150.38"/>
<polygon fill="#9a32cd" stroke="#9a32cd" points="420.01,-379.92 429.92,-383.67 424.51,-374.56 420.01,-379.92"/>
</a>
</g>
<text text-anchor="middle" x="363.38" y="-237.5" font-family="Helvetica,sans-Serif" font-size="10.00" fill="grey"> m_Root</text>
</g>
<!-- Node9&#45;&gt;Node7 -->
<g id="edge14_Node000007_Node000009" class="edge">
<title>Node9&#45;&gt;Node7</title>
<g id="a_edge14_Node000007_Node000009"><a xlink:title=" ">
<path fill="none" stroke="#9a32cd" stroke-dasharray="5,2" d="M477.87,-391.16C508.85,-387.83 554.99,-380.9 593,-367 668.17,-339.5 686.21,-326.65 749,-277 758.7,-269.33 768.21,-258.83 774.51,-251.34"/>
<polygon fill="#9a32cd" stroke="#9a32cd" points="477.89,-387.64 468.29,-392.11 478.59,-394.6 477.89,-387.64"/>
</a>
</g>
<text text-anchor="middle" x="742.38" y="-327.5" font-family="Helvetica,sans-Serif" font-size="10.00" fill="grey"> m_Root</text>
</g>
<!-- Node9&#45;&gt;Node10 -->
<g id="edge21_Node000010_Node000009" class="edge">
<title>Node9&#45;&gt;Node10</title>
<g id="a_edge21_Node000010_Node000009"><a xlink:title=" ">
<path fill="none" stroke="#9a32cd" stroke-dasharray="5,2" d="M439.84,-373.37C437.69,-351.24 438.06,-316.41 457,-295 477.43,-271.91 500.54,-297.01 524,-277 550.68,-254.25 529.25,-227.37 556.25,-205 595.72,-172.3 744.47,-156.8 819.36,-150.93"/>
<polygon fill="#9a32cd" stroke="#9a32cd" points="436.36,-373.75 441.09,-383.23 443.31,-372.87 436.36,-373.75"/>
</a>
</g>
<text text-anchor="middle" x="574.38" y="-237.5" font-family="Helvetica,sans-Serif" font-size="10.00" fill="grey"> m_Root</text>
</g>
<!-- Node10&#45;&gt;Node7 -->
<g id="edge15_Node000007_Node000010" class="edge">
<title>Node10&#45;&gt;Node7</title>
<g id="a_edge15_Node000007_Node000010"><a xlink:title=" ">
<path fill="none" stroke="#9a32cd" stroke-dasharray="5,2" d="M853.72,-167.31C850.17,-173.86 845.8,-181.02 841,-187 827.04,-204.4 807.12,-221 794.38,-230.85"/>
<polygon fill="#9a32cd" stroke="#9a32cd" points="856.77,-169.04 858.19,-158.54 850.53,-165.87 856.77,-169.04"/>
</a>
</g>
<text text-anchor="middle" x="879.5" y="-177.5" font-family="Helvetica,sans-Serif" font-size="10.00" fill="grey"> m_Subgroups</text>
</g>
<!-- Node10&#45;&gt;Node10 -->
<g id="edge22_Node000010_Node000010" class="edge">
<title>Node10&#45;&gt;Node10</title>
<g id="a_edge22_Node000010_Node000010"><a xlink:title=" ">
<path fill="none" stroke="#9a32cd" stroke-dasharray="5,2" d="M917.63,-151.76C921.73,-150.7 924.25,-149.11 924.25,-147 924.25,-143.35 916.71,-141.26 906.49,-140.75"/>
<polygon fill="#9a32cd" stroke="#9a32cd" points="917.44,-148.26 907.99,-153.05 918.37,-155.19 917.44,-148.26"/>
</a>
</g>
<text text-anchor="middle" x="955.75" y="-143.5" font-family="Helvetica,sans-Serif" font-size="10.00" fill="grey"> m_Subgroups</text>
</g>
</g>
</svg>
