<?xml version="1.0" encoding="UTF-8" standalone="no"?>
<!DOCTYPE svg PUBLIC "-//W3C//DTD SVG 1.1//EN"
 "http://www.w3.org/Graphics/SVG/1.1/DTD/svg11.dtd">
<!-- Generated by graphviz version 11.0.0 (20240428.1522)
 -->
<!-- Title: Hit_MeatBones_MeleePipeWrench Pages: 1 -->
<svg width="176pt" height="252pt"
 viewBox="0.00 0.00 175.50 252.00" xmlns="http://www.w3.org/2000/svg" xmlns:xlink="http://www.w3.org/1999/xlink">

<svg id="main" version="1.1" xmlns="http://www.w3.org/2000/svg" xmlns:xlink="http://www.w3.org/1999/xlink" xml:space="preserve" onload="init(evt)">
<style type="text/css"><![CDATA[
.node, .edge {opacity: 0.7;}
.node.selected, .edge.selected {opacity: 1;}
.edge:hover path { stroke: red; }
.edge:hover polygon { stroke: red; fill: red; }
]]></style>
<script type="application/ecmascript" xlink:href="../../svg.min.js"/>
<svg id="graph" class="graph">
<g id="graph0" class="graph" transform="scale(1 1) rotate(0) translate(4 248)">
<title>Hit_MeatBones_MeleePipeWrench</title>
<!-- Node1 -->
<g id="Node000001" class="node">
<title>Node1</title>
<g id="a_Node000001"><a xlink:title=" ">
<polygon fill="#999999" stroke="#666666" points="167.5,-20 0,-20 0,0 167.5,0 167.5,-20"/>
<text text-anchor="middle" x="83.75" y="-6.5" font-family="Helvetica,sans-Serif" font-size="10.00">Hit_MeatBones_MeleePipeWrench</text>
</a>
</g>
</g>
<!-- Node2 -->
<g id="Node000002" class="node">
<title>Node2</title>
<g id="a_Node000002"><a xlink:href="../../d4/d09/class_hit___meat_bones.html" target="_top" xlink:title=" ">
<polygon fill="white" stroke="#666666" points="125.12,-76 42.38,-76 42.38,-56 125.12,-56 125.12,-76"/>
<text text-anchor="middle" x="83.75" y="-62.5" font-family="Helvetica,sans-Serif" font-size="10.00">Hit_MeatBones</text>
</a>
</g>
</g>
<!-- Node2&#45;&gt;Node1 -->
<g id="edge1_Node000001_Node000002" class="edge">
<title>Node2&#45;&gt;Node1</title>
<g id="a_edge1_Node000001_Node000002"><a xlink:title=" ">
<path fill="none" stroke="#8b1a1a" d="M83.75,-44.13C83.75,-35.9 83.75,-26.85 83.75,-20.3"/>
<polygon fill="#8b1a1a" stroke="#8b1a1a" points="80.25,-44.08 83.75,-54.08 87.25,-44.08 80.25,-44.08"/>
</a>
</g>
</g>
<!-- Node3 -->
<g id="Node000003" class="node">
<title>Node3</title>
<g id="a_Node000003"><a xlink:href="../../d3/d0b/class_eff_bullet_impact_base.html" target="_top" xlink:title=" ">
<polygon fill="white" stroke="#666666" points="135.62,-132 31.88,-132 31.88,-112 135.62,-112 135.62,-132"/>
<text text-anchor="middle" x="83.75" y="-118.5" font-family="Helvetica,sans-Serif" font-size="10.00">EffBulletImpactBase</text>
</a>
</g>
</g>
<!-- Node3&#45;&gt;Node2 -->
<g id="edge2_Node000002_Node000003" class="edge">
<title>Node3&#45;&gt;Node2</title>
<g id="a_edge2_Node000002_Node000003"><a xlink:title=" ">
<path fill="none" stroke="#8b1a1a" d="M83.75,-100.13C83.75,-91.9 83.75,-82.85 83.75,-76.3"/>
<polygon fill="#8b1a1a" stroke="#8b1a1a" points="80.25,-100.08 83.75,-110.08 87.25,-100.08 80.25,-100.08"/>
</a>
</g>
</g>
<!-- Node4 -->
<g id="Node000004" class="node">
<title>Node4</title>
<g id="a_Node000004"><a xlink:href="../../de/d07/class_effect_particle.html" target="_top" xlink:title="Wrapper class for managing particles through SEffectManager.">
<polygon fill="white" stroke="#666666" points="120.62,-188 46.88,-188 46.88,-168 120.62,-168 120.62,-188"/>
<text text-anchor="middle" x="83.75" y="-174.5" font-family="Helvetica,sans-Serif" font-size="10.00">EffectParticle</text>
</a>
</g>
</g>
<!-- Node4&#45;&gt;Node3 -->
<g id="edge3_Node000003_Node000004" class="edge">
<title>Node4&#45;&gt;Node3</title>
<g id="a_edge3_Node000003_Node000004"><a xlink:title=" ">
<path fill="none" stroke="#8b1a1a" d="M83.75,-156.13C83.75,-147.9 83.75,-138.85 83.75,-132.3"/>
<polygon fill="#8b1a1a" stroke="#8b1a1a" points="80.25,-156.08 83.75,-166.08 87.25,-156.08 80.25,-156.08"/>
</a>
</g>
</g>
<!-- Node5 -->
<g id="Node000005" class="node">
<title>Node5</title>
<g id="a_Node000005"><a xlink:title=" ">
<polygon fill="white" stroke="#666666" points="104.12,-244 63.38,-244 63.38,-224 104.12,-224 104.12,-244"/>
<text text-anchor="middle" x="83.75" y="-230.5" font-family="Helvetica,sans-Serif" font-size="10.00">Effect</text>
</a>
</g>
</g>
<!-- Node5&#45;&gt;Node4 -->
<g id="edge4_Node000004_Node000005" class="edge">
<title>Node5&#45;&gt;Node4</title>
<g id="a_edge4_Node000004_Node000005"><a xlink:title=" ">
<path fill="none" stroke="#8b1a1a" d="M83.75,-212.13C83.75,-203.9 83.75,-194.85 83.75,-188.3"/>
<polygon fill="#8b1a1a" stroke="#8b1a1a" points="80.25,-212.08 83.75,-222.08 87.25,-212.08 80.25,-212.08"/>
</a>
</g>
</g>
</g>
</svg>
</svg>

<style type='text/css'>
<![CDATA[
[data-mouse-over-selected='false'] { opacity: 0.7; }
[data-mouse-over-selected='true']  { opacity: 1.0; }
]]>
</style>
<script type="application/ecmascript"><![CDATA[
document.addEventListener('DOMContentLoaded', (event) => {
  highlightEdges();
  highlightAdjacentNodes();
});
]]></script>
</svg>
