<?xml version="1.0" encoding="UTF-8" standalone="no"?>
<!DOCTYPE svg PUBLIC "-//W3C//DTD SVG 1.1//EN"
 "http://www.w3.org/Graphics/SVG/1.1/DTD/svg11.dtd">
<!-- Generated by graphviz version 11.0.0 (20240428.1522)
 -->
<!-- Title: ActionDetachFromTarget_SpecificSlotsCategory Pages: 1 -->
<svg width="265pt" height="313pt"
 viewBox="0.00 0.00 264.88 313.00" xmlns="http://www.w3.org/2000/svg" xmlns:xlink="http://www.w3.org/1999/xlink">
<g id="graph0" class="graph" transform="scale(1 1) rotate(0) translate(4 309)">
<title>ActionDetachFromTarget_SpecificSlotsCategory</title>
<!-- Node1 -->
<g id="Node000001" class="node">
<title>Node1</title>
<g id="a_Node000001"><a xlink:title=" ">
<polygon fill="#999999" stroke="#666666" points="208.12,-32 84.12,-32 84.12,0 208.12,0 208.12,-32"/>
<text text-anchor="start" x="92.12" y="-18.5" font-family="Helvetica,sans-Serif" font-size="10.00">ActionDetachFromTarget</text>
<text text-anchor="middle" x="146.12" y="-6.5" font-family="Helvetica,sans-Serif" font-size="10.00">_SpecificSlotsCategory</text>
</a>
</g>
</g>
<!-- Node2 -->
<g id="Node000002" class="node">
<title>Node2</title>
<g id="a_Node000002"><a xlink:href="../../d3/d07/class_action_detach_from_target.html" target="_top" xlink:title=" ">
<polygon fill="white" stroke="#666666" points="162.12,-89 38.12,-89 38.12,-69 162.12,-69 162.12,-89"/>
<text text-anchor="middle" x="100.12" y="-75.5" font-family="Helvetica,sans-Serif" font-size="10.00">ActionDetachFromTarget</text>
</a>
</g>
</g>
<!-- Node2&#45;&gt;Node1 -->
<g id="edge1_Node000001_Node000002" class="edge">
<title>Node2&#45;&gt;Node1</title>
<g id="a_edge1_Node000001_Node000002"><a xlink:title=" ">
<path fill="none" stroke="#8b1a1a" d="M113.95,-59.67C120.6,-50.85 128.48,-40.4 134.77,-32.06"/>
<polygon fill="#8b1a1a" stroke="#8b1a1a" points="111.25,-57.44 108.02,-67.53 116.84,-61.65 111.25,-57.44"/>
</a>
</g>
</g>
<!-- Node3 -->
<g id="Node000003" class="node">
<title>Node3</title>
<g id="a_Node000003"><a xlink:href="../../d0/d0b/class_action_interact_base.html" target="_top" xlink:title=" ">
<polygon fill="white" stroke="#666666" points="143.38,-157 44.87,-157 44.87,-137 143.38,-137 143.38,-157"/>
<text text-anchor="middle" x="94.12" y="-143.5" font-family="Helvetica,sans-Serif" font-size="10.00">ActionInteractBase</text>
</a>
</g>
</g>
<!-- Node3&#45;&gt;Node2 -->
<g id="edge2_Node000002_Node000003" class="edge">
<title>Node3&#45;&gt;Node2</title>
<g id="a_edge2_Node000002_Node000003"><a xlink:title=" ">
<path fill="none" stroke="#8b1a1a" d="M96.01,-125.28C97.1,-113.27 98.42,-98.74 99.27,-89.44"/>
<polygon fill="#8b1a1a" stroke="#8b1a1a" points="92.54,-124.76 95.12,-135.04 99.51,-125.39 92.54,-124.76"/>
</a>
</g>
</g>
<!-- Node4 -->
<g id="Node000004" class="node">
<title>Node4</title>
<g id="a_Node000004"><a xlink:href="../../d7/d04/class_animated_action_base.html" target="_top" xlink:title=" ">
<polygon fill="white" stroke="#666666" points="124.88,-225 17.38,-225 17.38,-205 124.88,-205 124.88,-225"/>
<text text-anchor="middle" x="71.12" y="-211.5" font-family="Helvetica,sans-Serif" font-size="10.00">AnimatedActionBase</text>
</a>
</g>
</g>
<!-- Node4&#45;&gt;Node3 -->
<g id="edge3_Node000003_Node000004" class="edge">
<title>Node4&#45;&gt;Node3</title>
<g id="a_edge3_Node000003_Node000004"><a xlink:title=" ">
<path fill="none" stroke="#8b1a1a" d="M75.61,-193.34C77.13,-187.35 78.99,-180.85 81.12,-175 83.34,-168.94 86.46,-162.42 89.08,-157.3"/>
<polygon fill="#8b1a1a" stroke="#8b1a1a" points="72.21,-192.54 73.34,-203.07 79.02,-194.13 72.21,-192.54"/>
</a>
</g>
</g>
<!-- Node5 -->
<g id="Node000005" class="node">
<title>Node5</title>
<g id="a_Node000005"><a xlink:title=" ">
<polygon fill="white" stroke="#666666" points="66.25,-305 0,-305 0,-285 66.25,-285 66.25,-305"/>
<text text-anchor="middle" x="33.12" y="-291.5" font-family="Helvetica,sans-Serif" font-size="10.00">ActionBase</text>
</a>
</g>
</g>
<!-- Node5&#45;&gt;Node4 -->
<g id="edge4_Node000004_Node000005" class="edge">
<title>Node5&#45;&gt;Node4</title>
<g id="a_edge4_Node000004_Node000005"><a xlink:title=" ">
<path fill="none" stroke="#8b1a1a" d="M42.62,-274.51C50.29,-258.77 60.74,-237.32 66.62,-225.24"/>
<polygon fill="#8b1a1a" stroke="#8b1a1a" points="39.53,-272.86 38.3,-283.39 45.82,-275.93 39.53,-272.86"/>
</a>
</g>
</g>
<!-- Node6 -->
<g id="Node000006" class="node">
<title>Node6</title>
<g id="a_Node000006"><a xlink:href="../../db/d06/class_param3.html" target="_top" xlink:title=" ">
<polygon fill="white" stroke="#666666" points="134,-305 84.25,-305 84.25,-285 134,-285 134,-305"/>
<text text-anchor="middle" x="109.12" y="-291.5" font-family="Helvetica,sans-Serif" font-size="10.00">Param3</text>
</a>
</g>
</g>
<!-- Node6&#45;&gt;Node4 -->
<g id="edge5_Node000004_Node000006" class="edge">
<title>Node6&#45;&gt;Node4</title>
<g id="a_edge5_Node000004_Node000006"><a xlink:title=" ">
<path fill="none" stroke="#9a32cd" stroke-dasharray="5,2" d="M99.63,-274.51C91.96,-258.77 81.51,-237.32 75.63,-225.24"/>
<polygon fill="#9a32cd" stroke="#9a32cd" points="96.43,-275.93 103.95,-283.39 102.72,-272.86 96.43,-275.93"/>
</a>
</g>
<text text-anchor="middle" x="145.62" y="-257.5" font-family="Helvetica,sans-Serif" font-size="10.00" fill="grey"> m_CommandUID</text>
<text text-anchor="middle" x="145.62" y="-245.5" font-family="Helvetica,sans-Serif" font-size="10.00" fill="grey">m_CommandUIDProne</text>
</g>
<!-- Node7 -->
<g id="Node000007" class="node">
<title>Node7</title>
<g id="a_Node000007"><a xlink:href="../../d5/d02/classstring.html" target="_top" xlink:title=" ">
<polygon fill="white" stroke="#666666" points="197.12,-225 157.12,-225 157.12,-205 197.12,-205 197.12,-225"/>
<text text-anchor="middle" x="177.12" y="-211.5" font-family="Helvetica,sans-Serif" font-size="10.00">string</text>
</a>
</g>
</g>
<!-- Node7&#45;&gt;Node1 -->
<g id="edge8_Node000001_Node000007" class="edge">
<title>Node7&#45;&gt;Node1</title>
<g id="a_edge8_Node000001_Node000007"><a xlink:title=" ">
<path fill="none" stroke="#9a32cd" stroke-dasharray="5,2" d="M179.01,-193.37C180.99,-164.88 182.46,-112.11 171.12,-69 167.71,-56.02 161.02,-42.38 155.42,-32.33"/>
<polygon fill="#9a32cd" stroke="#9a32cd" points="175.53,-192.88 178.22,-203.13 182.51,-193.44 175.53,-192.88"/>
</a>
</g>
<text text-anchor="middle" x="217.5" y="-109.5" font-family="Helvetica,sans-Serif" font-size="10.00" fill="grey"> m_slotsToDetach</text>
</g>
<!-- Node7&#45;&gt;Node3 -->
<g id="edge6_Node000003_Node000007" class="edge">
<title>Node7&#45;&gt;Node3</title>
<g id="a_edge6_Node000003_Node000007"><a xlink:title=" ">
<path fill="none" stroke="#9a32cd" stroke-dasharray="5,2" d="M145.73,-207.63C125.23,-202.77 101.14,-195.48 94.88,-187 88.6,-178.5 89.69,-165.88 91.5,-157.31"/>
<polygon fill="#9a32cd" stroke="#9a32cd" points="144.92,-211.04 155.44,-209.81 146.45,-204.21 144.92,-211.04"/>
</a>
</g>
<text text-anchor="middle" x="136.75" y="-177.5" font-family="Helvetica,sans-Serif" font-size="10.00" fill="grey"> m_HUDCursorIcon</text>
</g>
<!-- Node7&#45;&gt;Node7 -->
<g id="edge7_Node000007_Node000007" class="edge">
<title>Node7&#45;&gt;Node7</title>
<g id="a_edge7_Node000007_Node000007"><a xlink:title=" ">
<path fill="none" stroke="#9a32cd" stroke-dasharray="5,2" d="M208.88,-220.47C212.66,-219.48 215.12,-217.65 215.12,-215 215.12,-210.15 206.89,-208.07 197.45,-208.75"/>
<polygon fill="#9a32cd" stroke="#9a32cd" points="208.7,-216.98 198.96,-221.15 209.18,-223.96 208.7,-216.98"/>
</a>
</g>
<text text-anchor="middle" x="230.88" y="-211.5" font-family="Helvetica,sans-Serif" font-size="10.00" fill="grey"> Empty</text>
</g>
</g>
</svg>
