<?xml version="1.0" encoding="UTF-8" standalone="no"?>
<!DOCTYPE svg PUBLIC "-//W3C//DTD SVG 1.1//EN"
 "http://www.w3.org/Graphics/SVG/1.1/DTD/svg11.dtd">
<!-- Generated by graphviz version 11.0.0 (20240428.1522)
 -->
<!-- Title: LayoutHolder Pages: 1 -->
<svg width="401pt" height="140pt"
 viewBox="0.00 0.00 401.38 140.00" xmlns="http://www.w3.org/2000/svg" xmlns:xlink="http://www.w3.org/1999/xlink">

<svg id="main" version="1.1" xmlns="http://www.w3.org/2000/svg" xmlns:xlink="http://www.w3.org/1999/xlink" xml:space="preserve" onload="init(evt)">
<style type="text/css"><![CDATA[
.node, .edge {opacity: 0.7;}
.node.selected, .edge.selected {opacity: 1;}
.edge:hover path { stroke: red; }
.edge:hover polygon { stroke: red; fill: red; }
]]></style>
<script type="application/ecmascript" xlink:href="../../svg.min.js"/>
<svg id="graph" class="graph">
<g id="graph0" class="graph" transform="scale(1 1) rotate(0) translate(4 136)">
<title>LayoutHolder</title>
<!-- Node1 -->
<g id="Node000001" class="node">
<title>Node1</title>
<g id="a_Node000001"><a xlink:title=" ">
<polygon fill="#999999" stroke="#666666" points="243.62,-132 170.62,-132 170.62,-112 243.62,-112 243.62,-132"/>
<text text-anchor="middle" x="207.12" y="-118.5" font-family="Helvetica,sans-Serif" font-size="10.00">LayoutHolder</text>
</a>
</g>
</g>
<!-- Node2 -->
<g id="Node000002" class="node">
<title>Node2</title>
<g id="a_Node000002"><a xlink:href="../../db/d0f/class_cargo_container_row.html" target="_top" xlink:title=" ">
<polygon fill="white" stroke="#666666" points="107.88,-76 6.38,-76 6.38,-56 107.88,-56 107.88,-76"/>
<text text-anchor="middle" x="57.12" y="-62.5" font-family="Helvetica,sans-Serif" font-size="10.00">CargoContainerRow</text>
</a>
</g>
</g>
<!-- Node1&#45;&gt;Node2 -->
<g id="edge1_Node000001_Node000002" class="edge">
<title>Node1&#45;&gt;Node2</title>
<g id="a_edge1_Node000001_Node000002"><a xlink:title=" ">
<path fill="none" stroke="#8b1a1a" d="M170.43,-107.79C143.51,-98.1 107.57,-85.16 83.46,-76.48"/>
<polygon fill="#8b1a1a" stroke="#8b1a1a" points="168.98,-110.99 179.57,-111.08 171.35,-104.4 168.98,-110.99"/>
</a>
</g>
</g>
<!-- Node3 -->
<g id="Node000003" class="node">
<title>Node3</title>
<g id="a_Node000003"><a xlink:href="../../d8/d09/class_header.html" target="_top" xlink:title=" ">
<polygon fill="white" stroke="#666666" points="172.5,-76 125.75,-76 125.75,-56 172.5,-56 172.5,-76"/>
<text text-anchor="middle" x="149.12" y="-62.5" font-family="Helvetica,sans-Serif" font-size="10.00">Header</text>
</a>
</g>
</g>
<!-- Node1&#45;&gt;Node3 -->
<g id="edge2_Node000001_Node000003" class="edge">
<title>Node1&#45;&gt;Node3</title>
<g id="a_edge2_Node000001_Node000003"><a xlink:title=" ">
<path fill="none" stroke="#8b1a1a" d="M188.7,-103.85C178.9,-94.72 167.23,-83.86 159.11,-76.3"/>
<polygon fill="#8b1a1a" stroke="#8b1a1a" points="186.21,-106.31 195.91,-110.56 190.98,-101.19 186.21,-106.31"/>
</a>
</g>
</g>
<!-- Node7 -->
<g id="Node000007" class="node">
<title>Node7</title>
<g id="a_Node000007"><a xlink:href="../../db/d00/class_icon.html" target="_top" xlink:title=" ">
<polygon fill="white" stroke="#666666" points="224.12,-76 190.12,-76 190.12,-56 224.12,-56 224.12,-76"/>
<text text-anchor="middle" x="207.12" y="-62.5" font-family="Helvetica,sans-Serif" font-size="10.00">Icon</text>
</a>
</g>
</g>
<!-- Node1&#45;&gt;Node7 -->
<g id="edge6_Node000001_Node000007" class="edge">
<title>Node1&#45;&gt;Node7</title>
<g id="a_edge6_Node000001_Node000007"><a xlink:title=" ">
<path fill="none" stroke="#8b1a1a" d="M207.12,-100.13C207.12,-91.9 207.12,-82.85 207.12,-76.3"/>
<polygon fill="#8b1a1a" stroke="#8b1a1a" points="203.63,-100.08 207.13,-110.08 210.63,-100.08 203.63,-100.08"/>
</a>
</g>
</g>
<!-- Node8 -->
<g id="Node000008" class="node">
<title>Node8</title>
<g id="a_Node000008"><a xlink:href="../../d7/d01/class_player_preview.html" target="_top" xlink:title=" ">
<polygon fill="white" stroke="#666666" points="318.5,-76 241.75,-76 241.75,-56 318.5,-56 318.5,-76"/>
<text text-anchor="middle" x="280.12" y="-62.5" font-family="Helvetica,sans-Serif" font-size="10.00">PlayerPreview</text>
</a>
</g>
</g>
<!-- Node1&#45;&gt;Node8 -->
<g id="edge7_Node000001_Node000008" class="edge">
<title>Node1&#45;&gt;Node8</title>
<g id="a_edge7_Node000001_Node000008"><a xlink:title=" ">
<path fill="none" stroke="#8b1a1a" d="M228.82,-104.95C241.44,-95.61 256.92,-84.16 267.56,-76.3"/>
<polygon fill="#8b1a1a" stroke="#8b1a1a" points="227.02,-101.93 221.06,-110.69 231.18,-107.56 227.02,-101.93"/>
</a>
</g>
</g>
<!-- Node9 -->
<g id="Node000009" class="node">
<title>Node9</title>
<g id="a_Node000009"><a xlink:href="../../d3/d0e/class_slots_icon.html" target="_top" xlink:title=" ">
<polygon fill="white" stroke="#666666" points="393.38,-76 336.88,-76 336.88,-56 393.38,-56 393.38,-76"/>
<text text-anchor="middle" x="365.12" y="-62.5" font-family="Helvetica,sans-Serif" font-size="10.00">SlotsIcon</text>
</a>
</g>
</g>
<!-- Node1&#45;&gt;Node9 -->
<g id="edge8_Node000001_Node000009" class="edge">
<title>Node1&#45;&gt;Node9</title>
<g id="a_edge8_Node000001_Node000009"><a xlink:title=" ">
<path fill="none" stroke="#8b1a1a" d="M245.39,-107.92C273.8,-98.21 311.87,-85.2 337.39,-76.48"/>
<polygon fill="#8b1a1a" stroke="#8b1a1a" points="244.41,-104.56 236.08,-111.1 246.67,-111.18 244.41,-104.56"/>
</a>
</g>
</g>
<!-- Node4 -->
<g id="Node000004" class="node">
<title>Node4</title>
<g id="a_Node000004"><a xlink:href="../../db/d05/class_closable_header.html" target="_top" xlink:title=" ">
<polygon fill="white" stroke="#666666" points="84.25,-20 0,-20 0,0 84.25,0 84.25,-20"/>
<text text-anchor="middle" x="42.12" y="-6.5" font-family="Helvetica,sans-Serif" font-size="10.00">ClosableHeader</text>
</a>
</g>
</g>
<!-- Node3&#45;&gt;Node4 -->
<g id="edge3_Node000003_Node000004" class="edge">
<title>Node3&#45;&gt;Node4</title>
<g id="a_edge3_Node000003_Node000004"><a xlink:title=" ">
<path fill="none" stroke="#8b1a1a" d="M120.35,-50.48C101.48,-40.96 77.35,-28.78 60.91,-20.48"/>
<polygon fill="#8b1a1a" stroke="#8b1a1a" points="118.63,-53.53 129.14,-54.91 121.79,-47.28 118.63,-53.53"/>
</a>
</g>
</g>
<!-- Node5 -->
<g id="Node000005" class="node">
<title>Node5</title>
<g id="a_Node000005"><a xlink:href="../../da/d07/class_collapsible_header.html" target="_top" xlink:title=" ">
<polygon fill="white" stroke="#666666" points="196.12,-20 102.12,-20 102.12,0 196.12,0 196.12,-20"/>
<text text-anchor="middle" x="149.12" y="-6.5" font-family="Helvetica,sans-Serif" font-size="10.00">CollapsibleHeader</text>
</a>
</g>
</g>
<!-- Node3&#45;&gt;Node5 -->
<g id="edge4_Node000003_Node000005" class="edge">
<title>Node3&#45;&gt;Node5</title>
<g id="a_edge4_Node000003_Node000005"><a xlink:title=" ">
<path fill="none" stroke="#8b1a1a" d="M149.12,-44.13C149.12,-35.9 149.12,-26.85 149.12,-20.3"/>
<polygon fill="#8b1a1a" stroke="#8b1a1a" points="145.63,-44.08 149.13,-54.08 152.63,-44.08 145.63,-44.08"/>
</a>
</g>
</g>
<!-- Node6 -->
<g id="Node000006" class="node">
<title>Node6</title>
<g id="a_Node000006"><a xlink:href="../../dc/d03/class_hands_header.html" target="_top" xlink:title=" ">
<polygon fill="white" stroke="#666666" points="288.38,-20 213.88,-20 213.88,0 288.38,0 288.38,-20"/>
<text text-anchor="middle" x="251.12" y="-6.5" font-family="Helvetica,sans-Serif" font-size="10.00">HandsHeader</text>
</a>
</g>
</g>
<!-- Node3&#45;&gt;Node6 -->
<g id="edge5_Node000003_Node000006" class="edge">
<title>Node3&#45;&gt;Node6</title>
<g id="a_edge5_Node000003_Node000006"><a xlink:title=" ">
<path fill="none" stroke="#8b1a1a" d="M177.05,-50.21C194.97,-40.73 217.69,-28.7 233.22,-20.48"/>
<polygon fill="#8b1a1a" stroke="#8b1a1a" points="175.43,-47.11 168.23,-54.89 178.71,-53.3 175.43,-47.11"/>
</a>
</g>
</g>
</g>
</svg>
</svg>

<style type='text/css'>
<![CDATA[
[data-mouse-over-selected='false'] { opacity: 0.7; }
[data-mouse-over-selected='true']  { opacity: 1.0; }
]]>
</style>
<script type="application/ecmascript"><![CDATA[
document.addEventListener('DOMContentLoaded', (event) => {
  highlightEdges();
  highlightAdjacentNodes();
});
]]></script>
</svg>
