<?xml version="1.0" encoding="UTF-8" standalone="no"?>
<!DOCTYPE svg PUBLIC "-//W3C//DTD SVG 1.1//EN"
 "http://www.w3.org/Graphics/SVG/1.1/DTD/svg11.dtd">
<!-- Generated by graphviz version 11.0.0 (20240428.1522)
 -->
<!-- Title: System Pages: 1 -->
<svg width="194pt" height="142pt"
 viewBox="0.00 0.00 193.75 142.00" xmlns="http://www.w3.org/2000/svg" xmlns:xlink="http://www.w3.org/1999/xlink">
<g id="graph0" class="graph" transform="scale(1 1) rotate(0) translate(4 138)">
<title>System</title>
<!-- Node5 -->
<g id="Node000005" class="node">
<title>Node5</title>
<g id="a_Node000005"><a xlink:href="../../d5/d06/group___file.html" target="_top" xlink:title=" ">
<polygon fill="white" stroke="#666666" points="165.88,-134 105.62,-134 105.62,-114 165.88,-114 165.88,-134"/>
<text text-anchor="middle" x="135.75" y="-120.5" font-family="Helvetica,sans-Serif" font-size="10.00">FileIO API</text>
</a>
</g>
</g>
<!-- Node4 -->
<g id="Node000004" class="node">
<title>Node4</title>
<g id="a_Node000004"><a xlink:href="../../d4/d06/group___gamepad.html" target="_top" xlink:title=" ">
<polygon fill="white" stroke="#666666" points="151.62,-96 119.88,-96 119.88,-76 151.62,-76 151.62,-96"/>
<text text-anchor="middle" x="135.75" y="-82.5" font-family="Helvetica,sans-Serif" font-size="10.00">API</text>
</a>
</g>
</g>
<!-- Node2 -->
<g id="Node000002" class="node">
<title>Node2</title>
<g id="a_Node000002"><a xlink:href="../../de/d08/group___keyboard.html" target="_top" xlink:title=" ">
<polygon fill="white" stroke="#666666" points="185.75,-58 85.75,-58 85.75,-38 185.75,-38 185.75,-58"/>
<text text-anchor="middle" x="135.75" y="-44.5" font-family="Helvetica,sans-Serif" font-size="10.00">Keyboard input API</text>
</a>
</g>
</g>
<!-- Node3 -->
<g id="Node000003" class="node">
<title>Node3</title>
<g id="a_Node000003"><a xlink:href="../../d7/d00/group___mouse.html" target="_top" xlink:title="returns index of defined key in InputDevice by its name">
<polygon fill="white" stroke="#666666" points="167.75,-20 103.75,-20 103.75,0 167.75,0 167.75,-20"/>
<text text-anchor="middle" x="135.75" y="-6.5" font-family="Helvetica,sans-Serif" font-size="10.00">Mouse API</text>
</a>
</g>
</g>
<!-- Node1 -->
<g id="Node000001" class="node">
<title>Node1</title>
<g id="a_Node000001"><a xlink:title=" ">
<polygon fill="#999999" stroke="#666666" points="49.75,-77 0,-77 0,-57 49.75,-57 49.75,-77"/>
<text text-anchor="middle" x="24.88" y="-63.5" font-family="Helvetica,sans-Serif" font-size="10.00">System</text>
</a>
</g>
</g>
<!-- Node1&#45;&gt;Node5 -->
<g id="edge4" class="edge">
<title>Node1&#45;&gt;Node5</title>
<path fill="none" stroke="black" d="M49.67,-83.61C60.41,-90.71 73.42,-98.77 85.75,-105 91.94,-108.13 98.77,-111.07 105.32,-113.67"/>
<polygon fill="black" stroke="black" points="51.67,-80.74 41.42,-78.04 47.75,-86.54 51.67,-80.74"/>
</g>
<!-- Node1&#45;&gt;Node4 -->
<g id="edge3" class="edge">
<title>Node1&#45;&gt;Node4</title>
<path fill="none" stroke="black" d="M61.37,-73.19C81,-76.62 104.38,-80.7 119.39,-83.32"/>
<polygon fill="black" stroke="black" points="61.98,-69.75 51.53,-71.48 60.78,-76.64 61.98,-69.75"/>
</g>
<!-- Node1&#45;&gt;Node2 -->
<g id="edge1" class="edge">
<title>Node1&#45;&gt;Node2</title>
<path fill="none" stroke="black" d="M61.3,-60.82C69.08,-59.46 77.46,-58 85.67,-56.57"/>
<polygon fill="black" stroke="black" points="60.78,-57.36 51.53,-62.52 61.98,-64.25 60.78,-57.36"/>
</g>
<!-- Node1&#45;&gt;Node3 -->
<g id="edge2" class="edge">
<title>Node1&#45;&gt;Node3</title>
<path fill="none" stroke="black" d="M49.67,-50.39C60.41,-43.29 73.42,-35.23 85.75,-29 91.86,-25.91 98.59,-23.01 105.06,-20.44"/>
<polygon fill="black" stroke="black" points="47.75,-47.46 41.42,-55.96 51.67,-53.26 47.75,-47.46"/>
</g>
</g>
</svg>
