<?xml version="1.0" encoding="UTF-8" standalone="no"?>
<!DOCTYPE svg PUBLIC "-//W3C//DTD SVG 1.1//EN"
 "http://www.w3.org/Graphics/SVG/1.1/DTD/svg11.dtd">
<!-- Generated by graphviz version 11.0.0 (20240428.1522)
 -->
<!-- Title: MapMarker Pages: 1 -->
<svg width="281pt" height="136pt"
 viewBox="0.00 0.00 281.25 136.00" xmlns="http://www.w3.org/2000/svg" xmlns:xlink="http://www.w3.org/1999/xlink">

<svg id="main" version="1.1" xmlns="http://www.w3.org/2000/svg" xmlns:xlink="http://www.w3.org/1999/xlink" xml:space="preserve" onload="init(evt)">
<style type="text/css"><![CDATA[
.node, .edge {opacity: 0.7;}
.node.selected, .edge.selected {opacity: 1;}
.edge:hover path { stroke: red; }
.edge:hover polygon { stroke: red; fill: red; }
]]></style>
<script type="application/ecmascript" xlink:href="../../svg.min.js"/>
<svg id="graph" class="graph">
<g id="graph0" class="graph" transform="scale(1 1) rotate(0) translate(4 132)">
<title>MapMarker</title>
<!-- Node1 -->
<g id="Node000001" class="node">
<title>Node1</title>
<g id="a_Node000001"><a xlink:title=" ">
<polygon fill="#999999" stroke="#666666" points="169.12,-20 104.38,-20 104.38,0 169.12,0 169.12,-20"/>
<text text-anchor="middle" x="136.75" y="-6.5" font-family="Helvetica,sans-Serif" font-size="10.00">MapMarker</text>
</a>
</g>
</g>
<!-- Node2 -->
<g id="Node000002" class="node">
<title>Node2</title>
<g id="a_Node000002"><a xlink:href="../../d7/d0c/classvector.html" target="_top" xlink:title=" ">
<polygon fill="white" stroke="#666666" points="41.5,-114 0,-114 0,-94 41.5,-94 41.5,-114"/>
<text text-anchor="middle" x="20.75" y="-100.5" font-family="Helvetica,sans-Serif" font-size="10.00">vector</text>
</a>
</g>
</g>
<!-- Node2&#45;&gt;Node1 -->
<g id="edge1_Node000001_Node000002" class="edge">
<title>Node2&#45;&gt;Node1</title>
<g id="a_edge1_Node000001_Node000002"><a xlink:title=" ">
<path fill="none" stroke="#9a32cd" stroke-dasharray="5,2" d="M34.5,-84.79C45.83,-70.69 62.91,-51.39 81,-38 90.51,-30.96 102.14,-24.99 112.31,-20.46"/>
<polygon fill="#9a32cd" stroke="#9a32cd" points="31.97,-82.34 28.57,-92.38 37.49,-86.65 31.97,-82.34"/>
</a>
</g>
<text text-anchor="middle" x="106.62" y="-46.5" font-family="Helvetica,sans-Serif" font-size="10.00" fill="grey"> m_Position</text>
</g>
<!-- Node2&#45;&gt;Node2 -->
<g id="edge2_Node000002_Node000002" class="edge">
<title>Node2&#45;&gt;Node2</title>
<g id="a_edge2_Node000002_Node000002"><a xlink:title=" ">
<path fill="none" stroke="#9a32cd" stroke-dasharray="5,2" d="M53.29,-112.63C57.06,-111.03 59.5,-108.15 59.5,-104 59.5,-96.41 51.33,-93.08 41.88,-94.03"/>
<polygon fill="#9a32cd" stroke="#9a32cd" points="52.9,-109.15 43.38,-113.79 53.72,-116.1 52.9,-109.15"/>
</a>
</g>
<text text-anchor="middle" x="76.75" y="-118.5" font-family="Helvetica,sans-Serif" font-size="10.00" fill="grey"> Aside</text>
<text text-anchor="middle" x="76.75" y="-106.5" font-family="Helvetica,sans-Serif" font-size="10.00" fill="grey">Forward</text>
<text text-anchor="middle" x="76.75" y="-94.5" font-family="Helvetica,sans-Serif" font-size="10.00" fill="grey">Up</text>
<text text-anchor="middle" x="76.75" y="-82.5" font-family="Helvetica,sans-Serif" font-size="10.00" fill="grey">Zero</text>
</g>
<!-- Node3 -->
<g id="Node000003" class="node">
<title>Node3</title>
<g id="a_Node000003"><a xlink:href="../../db/d06/class_param3.html" target="_top" xlink:title=" ">
<polygon fill="white" stroke="#666666" points="161.62,-114 111.88,-114 111.88,-94 161.62,-94 161.62,-114"/>
<text text-anchor="middle" x="136.75" y="-100.5" font-family="Helvetica,sans-Serif" font-size="10.00">Param3</text>
</a>
</g>
</g>
<!-- Node3&#45;&gt;Node1 -->
<g id="edge3_Node000001_Node000003" class="edge">
<title>Node3&#45;&gt;Node1</title>
<g id="a_edge3_Node000001_Node000003"><a xlink:title=" ">
<path fill="none" stroke="#9a32cd" stroke-dasharray="5,2" d="M136.75,-82.23C136.75,-62.82 136.75,-34.73 136.75,-20.31"/>
<polygon fill="#9a32cd" stroke="#9a32cd" points="133.25,-81.99 136.75,-91.99 140.25,-81.99 133.25,-81.99"/>
</a>
</g>
<text text-anchor="middle" x="158.88" y="-52.5" font-family="Helvetica,sans-Serif" font-size="10.00" fill="grey"> m_Color</text>
<text text-anchor="middle" x="158.88" y="-40.5" font-family="Helvetica,sans-Serif" font-size="10.00" fill="grey">m_IconIdx</text>
</g>
<!-- Node4 -->
<g id="Node000004" class="node">
<title>Node4</title>
<g id="a_Node000004"><a xlink:href="../../d5/d02/classstring.html" target="_top" xlink:title=" ">
<polygon fill="white" stroke="#666666" points="223.75,-114 183.75,-114 183.75,-94 223.75,-94 223.75,-114"/>
<text text-anchor="middle" x="203.75" y="-100.5" font-family="Helvetica,sans-Serif" font-size="10.00">string</text>
</a>
</g>
</g>
<!-- Node4&#45;&gt;Node1 -->
<g id="edge4_Node000001_Node000004" class="edge">
<title>Node4&#45;&gt;Node1</title>
<g id="a_edge4_Node000001_Node000004"><a xlink:title=" ">
<path fill="none" stroke="#9a32cd" stroke-dasharray="5,2" d="M200.6,-82.4C197.64,-68.64 192.05,-50.78 181.75,-38 175.8,-30.62 167.26,-24.78 159.22,-20.45"/>
<polygon fill="#9a32cd" stroke="#9a32cd" points="197.14,-82.93 202.37,-92.14 204.03,-81.68 197.14,-82.93"/>
</a>
</g>
<text text-anchor="middle" x="211.38" y="-46.5" font-family="Helvetica,sans-Serif" font-size="10.00" fill="grey"> m_Text</text>
</g>
<!-- Node4&#45;&gt;Node4 -->
<g id="edge5_Node000004_Node000004" class="edge">
<title>Node4&#45;&gt;Node4</title>
<g id="a_edge5_Node000004_Node000004"><a xlink:title=" ">
<path fill="none" stroke="#9a32cd" stroke-dasharray="5,2" d="M235.51,-112.69C239.29,-111.11 241.75,-108.21 241.75,-104 241.75,-96.3 233.51,-92.99 224.08,-94.08"/>
<polygon fill="#9a32cd" stroke="#9a32cd" points="235.15,-109.21 225.58,-113.76 235.9,-116.17 235.15,-109.21"/>
</a>
</g>
<text text-anchor="middle" x="257.5" y="-100.5" font-family="Helvetica,sans-Serif" font-size="10.00" fill="grey"> Empty</text>
</g>
</g>
</svg>
</svg>

<style type='text/css'>
<![CDATA[
[data-mouse-over-selected='false'] { opacity: 0.7; }
[data-mouse-over-selected='true']  { opacity: 1.0; }
]]>
</style>
<script type="application/ecmascript"><![CDATA[
document.addEventListener('DOMContentLoaded', (event) => {
  highlightEdges();
  highlightAdjacentNodes();
});
]]></script>
</svg>
