<?xml version="1.0" encoding="UTF-8" standalone="no"?>
<!DOCTYPE svg PUBLIC "-//W3C//DTD SVG 1.1//EN"
 "http://www.w3.org/Graphics/SVG/1.1/DTD/svg11.dtd">
<!-- Generated by graphviz version 11.0.0 (20240428.1522)
 -->
<!-- Title: SpearBone Pages: 1 -->
<svg width="90pt" height="140pt"
 viewBox="0.00 0.00 90.00 140.00" xmlns="http://www.w3.org/2000/svg" xmlns:xlink="http://www.w3.org/1999/xlink">
<g id="graph0" class="graph" transform="scale(1 1) rotate(0) translate(4 136)">
<title>SpearBone</title>
<!-- Node1 -->
<g id="Node000001" class="node">
<title>Node1</title>
<g id="a_Node000001"><a xlink:title=" ">
<polygon fill="#999999" stroke="#666666" points="73,-20 9,-20 9,0 73,0 73,-20"/>
<text text-anchor="middle" x="41" y="-6.5" font-family="Helvetica,sans-Serif" font-size="10.00">SpearBone</text>
</a>
</g>
</g>
<!-- Node2 -->
<g id="Node000002" class="node">
<title>Node2</title>
<g id="a_Node000002"><a xlink:href="../../df/d0a/class_spear.html" target="_top" xlink:title=" ">
<polygon fill="white" stroke="#666666" points="61.75,-76 20.25,-76 20.25,-56 61.75,-56 61.75,-76"/>
<text text-anchor="middle" x="41" y="-62.5" font-family="Helvetica,sans-Serif" font-size="10.00">Spear</text>
</a>
</g>
</g>
<!-- Node2&#45;&gt;Node1 -->
<g id="edge1_Node000001_Node000002" class="edge">
<title>Node2&#45;&gt;Node1</title>
<g id="a_edge1_Node000001_Node000002"><a xlink:title=" ">
<path fill="none" stroke="#8b1a1a" d="M41,-44.13C41,-35.9 41,-26.85 41,-20.3"/>
<polygon fill="#8b1a1a" stroke="#8b1a1a" points="37.5,-44.08 41,-54.08 44.5,-44.08 37.5,-44.08"/>
</a>
</g>
</g>
<!-- Node3 -->
<g id="Node000003" class="node">
<title>Node3</title>
<g id="a_Node000003"><a xlink:href="../../d7/d0d/class_inventory___base.html" target="_top" xlink:title=" ">
<polygon fill="white" stroke="#666666" points="82,-132 0,-132 0,-112 82,-112 82,-132"/>
<text text-anchor="middle" x="41" y="-118.5" font-family="Helvetica,sans-Serif" font-size="10.00">Inventory_Base</text>
</a>
</g>
</g>
<!-- Node3&#45;&gt;Node2 -->
<g id="edge2_Node000002_Node000003" class="edge">
<title>Node3&#45;&gt;Node2</title>
<g id="a_edge2_Node000002_Node000003"><a xlink:title=" ">
<path fill="none" stroke="#8b1a1a" d="M41,-100.13C41,-91.9 41,-82.85 41,-76.3"/>
<polygon fill="#8b1a1a" stroke="#8b1a1a" points="37.5,-100.08 41,-110.08 44.5,-100.08 37.5,-100.08"/>
</a>
</g>
</g>
</g>
</svg>
