<?xml version="1.0" encoding="UTF-8" standalone="no"?>
<!DOCTYPE svg PUBLIC "-//W3C//DTD SVG 1.1//EN"
 "http://www.w3.org/Graphics/SVG/1.1/DTD/svg11.dtd">
<!-- Generated by graphviz version 11.0.0 (20240428.1522)
 -->
<!-- Title: Header Pages: 1 -->
<svg width="296pt" height="140pt"
 viewBox="0.00 0.00 296.38 140.00" xmlns="http://www.w3.org/2000/svg" xmlns:xlink="http://www.w3.org/1999/xlink">
<g id="graph0" class="graph" transform="scale(1 1) rotate(0) translate(4 136)">
<title>Header</title>
<!-- Node1 -->
<g id="Node000001" class="node">
<title>Node1</title>
<g id="a_Node000001"><a xlink:title=" ">
<polygon fill="#999999" stroke="#666666" points="172.5,-76 125.75,-76 125.75,-56 172.5,-56 172.5,-76"/>
<text text-anchor="middle" x="149.12" y="-62.5" font-family="Helvetica,sans-Serif" font-size="10.00">Header</text>
</a>
</g>
</g>
<!-- Node3 -->
<g id="Node000003" class="node">
<title>Node3</title>
<g id="a_Node000003"><a xlink:href="../../db/d05/class_closable_header.html" target="_top" xlink:title=" ">
<polygon fill="white" stroke="#666666" points="84.25,-20 0,-20 0,0 84.25,0 84.25,-20"/>
<text text-anchor="middle" x="42.12" y="-6.5" font-family="Helvetica,sans-Serif" font-size="10.00">ClosableHeader</text>
</a>
</g>
</g>
<!-- Node1&#45;&gt;Node3 -->
<g id="edge2_Node000001_Node000003" class="edge">
<title>Node1&#45;&gt;Node3</title>
<g id="a_edge2_Node000001_Node000003"><a xlink:title=" ">
<path fill="none" stroke="#8b1a1a" d="M120.35,-50.48C101.48,-40.96 77.35,-28.78 60.91,-20.48"/>
<polygon fill="#8b1a1a" stroke="#8b1a1a" points="118.63,-53.53 129.14,-54.91 121.79,-47.28 118.63,-53.53"/>
</a>
</g>
</g>
<!-- Node4 -->
<g id="Node000004" class="node">
<title>Node4</title>
<g id="a_Node000004"><a xlink:href="../../da/d07/class_collapsible_header.html" target="_top" xlink:title=" ">
<polygon fill="white" stroke="#666666" points="196.12,-20 102.12,-20 102.12,0 196.12,0 196.12,-20"/>
<text text-anchor="middle" x="149.12" y="-6.5" font-family="Helvetica,sans-Serif" font-size="10.00">CollapsibleHeader</text>
</a>
</g>
</g>
<!-- Node1&#45;&gt;Node4 -->
<g id="edge3_Node000001_Node000004" class="edge">
<title>Node1&#45;&gt;Node4</title>
<g id="a_edge3_Node000001_Node000004"><a xlink:title=" ">
<path fill="none" stroke="#8b1a1a" d="M149.12,-44.13C149.12,-35.9 149.12,-26.85 149.12,-20.3"/>
<polygon fill="#8b1a1a" stroke="#8b1a1a" points="145.63,-44.08 149.13,-54.08 152.63,-44.08 145.63,-44.08"/>
</a>
</g>
</g>
<!-- Node5 -->
<g id="Node000005" class="node">
<title>Node5</title>
<g id="a_Node000005"><a xlink:href="../../dc/d03/class_hands_header.html" target="_top" xlink:title=" ">
<polygon fill="white" stroke="#666666" points="288.38,-20 213.88,-20 213.88,0 288.38,0 288.38,-20"/>
<text text-anchor="middle" x="251.12" y="-6.5" font-family="Helvetica,sans-Serif" font-size="10.00">HandsHeader</text>
</a>
</g>
</g>
<!-- Node1&#45;&gt;Node5 -->
<g id="edge4_Node000001_Node000005" class="edge">
<title>Node1&#45;&gt;Node5</title>
<g id="a_edge4_Node000001_Node000005"><a xlink:title=" ">
<path fill="none" stroke="#8b1a1a" d="M177.05,-50.21C194.97,-40.73 217.69,-28.7 233.22,-20.48"/>
<polygon fill="#8b1a1a" stroke="#8b1a1a" points="175.43,-47.11 168.23,-54.89 178.71,-53.3 175.43,-47.11"/>
</a>
</g>
</g>
<!-- Node2 -->
<g id="Node000002" class="node">
<title>Node2</title>
<g id="a_Node000002"><a xlink:href="../../d5/d08/class_layout_holder.html" target="_top" xlink:title=" ">
<polygon fill="white" stroke="#666666" points="185.62,-132 112.62,-132 112.62,-112 185.62,-112 185.62,-132"/>
<text text-anchor="middle" x="149.12" y="-118.5" font-family="Helvetica,sans-Serif" font-size="10.00">LayoutHolder</text>
</a>
</g>
</g>
<!-- Node2&#45;&gt;Node1 -->
<g id="edge1_Node000001_Node000002" class="edge">
<title>Node2&#45;&gt;Node1</title>
<g id="a_edge1_Node000001_Node000002"><a xlink:title=" ">
<path fill="none" stroke="#8b1a1a" d="M149.12,-100.13C149.12,-91.9 149.12,-82.85 149.12,-76.3"/>
<polygon fill="#8b1a1a" stroke="#8b1a1a" points="145.63,-100.08 149.13,-110.08 152.63,-100.08 145.63,-100.08"/>
</a>
</g>
</g>
</g>
</svg>
