<?xml version="1.0" encoding="UTF-8" standalone="no"?>
<!DOCTYPE svg PUBLIC "-//W3C//DTD SVG 1.1//EN"
 "http://www.w3.org/Graphics/SVG/1.1/DTD/svg11.dtd">
<!-- Generated by graphviz version 11.0.0 (20240428.1522)
 -->
<!-- Title: PlayerStatRecord Pages: 1 -->
<svg width="212pt" height="124pt"
 viewBox="0.00 0.00 211.50 124.00" xmlns="http://www.w3.org/2000/svg" xmlns:xlink="http://www.w3.org/1999/xlink">
<g id="graph0" class="graph" transform="scale(1 1) rotate(0) translate(4 120)">
<title>PlayerStatRecord</title>
<!-- Node1 -->
<g id="Node000001" class="node">
<title>Node1</title>
<g id="a_Node000001"><a xlink:title=" ">
<polygon fill="#999999" stroke="#666666" points="121.25,-20 28.75,-20 28.75,0 121.25,0 121.25,-20"/>
<text text-anchor="middle" x="75" y="-6.5" font-family="Helvetica,sans-Serif" font-size="10.00">PlayerStatRecord</text>
</a>
</g>
</g>
<!-- Node2 -->
<g id="Node000002" class="node">
<title>Node2</title>
<g id="a_Node000002"><a xlink:href="../../d4/d03/classfloat.html" target="_top" xlink:title=" ">
<polygon fill="white" stroke="#666666" points="34,-108 0,-108 0,-88 34,-88 34,-108"/>
<text text-anchor="middle" x="17" y="-94.5" font-family="Helvetica,sans-Serif" font-size="10.00">float</text>
</a>
</g>
</g>
<!-- Node2&#45;&gt;Node1 -->
<g id="edge1_Node000001_Node000002" class="edge">
<title>Node2&#45;&gt;Node1</title>
<g id="a_edge1_Node000001_Node000002"><a xlink:title=" ">
<path fill="none" stroke="#9a32cd" stroke-dasharray="5,2" d="M29.54,-78.41C41.59,-60.54 59.3,-34.28 68.66,-20.4"/>
<polygon fill="#9a32cd" stroke="#9a32cd" points="26.74,-76.29 24.05,-86.54 32.55,-80.21 26.74,-76.29"/>
</a>
</g>
<text text-anchor="middle" x="76.12" y="-52.5" font-family="Helvetica,sans-Serif" font-size="10.00" fill="grey"> m_Time</text>
<text text-anchor="middle" x="76.12" y="-40.5" font-family="Helvetica,sans-Serif" font-size="10.00" fill="grey">m_Value</text>
</g>
<!-- Node2&#45;&gt;Node2 -->
<g id="edge2_Node000002_Node000002" class="edge">
<title>Node2&#45;&gt;Node2</title>
<g id="a_edge2_Node000002_Node000002"><a xlink:title=" ">
<path fill="none" stroke="#9a32cd" stroke-dasharray="5,2" d="M45.67,-105.95C49.47,-104.6 52,-101.95 52,-98 52,-90.78 43.56,-87.91 34.29,-89.37"/>
<polygon fill="#9a32cd" stroke="#9a32cd" points="45.57,-102.45 35.8,-106.54 45.99,-109.43 45.57,-102.45"/>
</a>
</g>
<text text-anchor="middle" x="74.12" y="-106.5" font-family="Helvetica,sans-Serif" font-size="10.00" fill="grey"> LOWEST</text>
<text text-anchor="middle" x="74.12" y="-94.5" font-family="Helvetica,sans-Serif" font-size="10.00" fill="grey">MAX</text>
<text text-anchor="middle" x="74.12" y="-82.5" font-family="Helvetica,sans-Serif" font-size="10.00" fill="grey">MIN</text>
</g>
<!-- Node3 -->
<g id="Node000003" class="node">
<title>Node3</title>
<g id="a_Node000003"><a xlink:href="../../d5/d02/classstring.html" target="_top" xlink:title=" ">
<polygon fill="white" stroke="#666666" points="154,-108 114,-108 114,-88 154,-88 154,-108"/>
<text text-anchor="middle" x="134" y="-94.5" font-family="Helvetica,sans-Serif" font-size="10.00">string</text>
</a>
</g>
</g>
<!-- Node3&#45;&gt;Node1 -->
<g id="edge3_Node000001_Node000003" class="edge">
<title>Node3&#45;&gt;Node1</title>
<g id="a_edge3_Node000001_Node000003"><a xlink:title=" ">
<path fill="none" stroke="#9a32cd" stroke-dasharray="5,2" d="M123.33,-77.83C116.53,-66.04 107.27,-50.8 98,-38 93.52,-31.82 87.99,-25.29 83.47,-20.2"/>
<polygon fill="#9a32cd" stroke="#9a32cd" points="120.1,-79.22 128.08,-86.19 126.19,-75.77 120.1,-79.22"/>
</a>
</g>
<text text-anchor="middle" x="138.12" y="-46.5" font-family="Helvetica,sans-Serif" font-size="10.00" fill="grey"> m_System</text>
</g>
<!-- Node3&#45;&gt;Node3 -->
<g id="edge4_Node000003_Node000003" class="edge">
<title>Node3&#45;&gt;Node3</title>
<g id="a_edge4_Node000003_Node000003"><a xlink:title=" ">
<path fill="none" stroke="#9a32cd" stroke-dasharray="5,2" d="M165.76,-105.73C169.54,-104.32 172,-101.74 172,-98 172,-91.16 163.76,-88.22 154.33,-89.18"/>
<polygon fill="#9a32cd" stroke="#9a32cd" points="165.46,-102.24 155.84,-106.68 166.12,-109.21 165.46,-102.24"/>
</a>
</g>
<text text-anchor="middle" x="187.75" y="-94.5" font-family="Helvetica,sans-Serif" font-size="10.00" fill="grey"> Empty</text>
</g>
</g>
</svg>
