<?xml version="1.0" encoding="UTF-8" standalone="no"?>
<!DOCTYPE svg PUBLIC "-//W3C//DTD SVG 1.1//EN"
 "http://www.w3.org/Graphics/SVG/1.1/DTD/svg11.dtd">
<!-- Generated by graphviz version 11.0.0 (20240428.1522)
 -->
<!-- Title: RecoilBase Pages: 1 -->
<svg width="1339pt" height="608pt"
 viewBox="0.00 0.00 1338.75 607.78" xmlns="http://www.w3.org/2000/svg" xmlns:xlink="http://www.w3.org/1999/xlink">
<g id="graph0" class="graph" transform="scale(1 1) rotate(0) translate(4 603.78)">
<title>RecoilBase</title>
<!-- Node1 -->
<g id="Node000001" class="node">
<title>Node1</title>
<g id="a_Node000001"><a xlink:title=" ">
<polygon fill="#999999" stroke="#666666" points="342.75,-20 277.25,-20 277.25,0 342.75,0 342.75,-20"/>
<text text-anchor="middle" x="310" y="-6.5" font-family="Helvetica,sans-Serif" font-size="10.00">RecoilBase</text>
</a>
</g>
</g>
<!-- Node2 -->
<g id="Node000002" class="node">
<title>Node2</title>
<g id="a_Node000002"><a xlink:href="../../d9/d09/classbool.html" target="_top" xlink:title=" ">
<polygon fill="white" stroke="#666666" points="34,-378 0,-378 0,-358 34,-358 34,-378"/>
<text text-anchor="middle" x="17" y="-364.5" font-family="Helvetica,sans-Serif" font-size="10.00">bool</text>
</a>
</g>
</g>
<!-- Node2&#45;&gt;Node1 -->
<g id="edge1_Node000001_Node000002" class="edge">
<title>Node2&#45;&gt;Node1</title>
<g id="a_edge1_Node000001_Node000002"><a xlink:title=" ">
<path fill="none" stroke="#9a32cd" stroke-dasharray="5,2" d="M13.88,-346.28C11.15,-323.24 8.91,-285.16 18,-254 37.66,-186.57 168.68,-47.27 184,-38 212.33,-20.86 250.02,-14.52 276.77,-12.21"/>
<polygon fill="#9a32cd" stroke="#9a32cd" points="10.4,-346.73 15.21,-356.17 17.34,-345.79 10.4,-346.73"/>
</a>
</g>
<text text-anchor="middle" x="97.88" y="-220.5" font-family="Helvetica,sans-Serif" font-size="10.00" fill="grey"> m_DebugMode</text>
<text text-anchor="middle" x="97.88" y="-208.5" font-family="Helvetica,sans-Serif" font-size="10.00" fill="grey">m_DeleteRequested</text>
<text text-anchor="middle" x="97.88" y="-196.5" font-family="Helvetica,sans-Serif" font-size="10.00" fill="grey">m_IsClient</text>
</g>
<!-- Node7 -->
<g id="Node000007" class="node">
<title>Node7</title>
<g id="a_Node000007"><a xlink:href="../../d5/d08/class_player_base.html" target="_top" xlink:title=" ">
<polygon fill="white" stroke="#666666" points="222.12,-222 155.88,-222 155.88,-202 222.12,-202 222.12,-222"/>
<text text-anchor="middle" x="189" y="-208.5" font-family="Helvetica,sans-Serif" font-size="10.00">PlayerBase</text>
</a>
</g>
</g>
<!-- Node2&#45;&gt;Node7 -->
<g id="edge9_Node000007_Node000002" class="edge">
<title>Node2&#45;&gt;Node7</title>
<g id="a_edge9_Node000007_Node000002"><a xlink:title=" ">
<path fill="none" stroke="#9a32cd" stroke-dasharray="5,2" d="M17.38,-346.15C18.99,-320.93 25.51,-278.76 50.25,-254 57.82,-246.42 116.85,-230.75 155.44,-221.13"/>
<polygon fill="#9a32cd" stroke="#9a32cd" points="13.89,-345.98 16.98,-356.11 20.88,-346.26 13.89,-345.98"/>
</a>
</g>
<text text-anchor="start" x="51" y="-304.5" font-family="Helvetica,sans-Serif" font-size="10.00" fill="grey"> m_PersonalLightDisabledBy</text>
<text text-anchor="middle" x="117.38" y="-292.5" font-family="Helvetica,sans-Serif" font-size="10.00" fill="grey">Debug</text>
<text text-anchor="start" x="51" y="-280.5" font-family="Helvetica,sans-Serif" font-size="10.00" fill="grey">m_PersonalLightEnabledOn</text>
<text text-anchor="middle" x="117.38" y="-268.5" font-family="Helvetica,sans-Serif" font-size="10.00" fill="grey">CurrentServer</text>
<text text-anchor="middle" x="117.38" y="-256.5" font-family="Helvetica,sans-Serif" font-size="10.00" fill="grey">m_PersonalLightIsSwitchedOn</text>
</g>
<!-- Node3 -->
<g id="Node000003" class="node">
<title>Node3</title>
<g id="a_Node000003"><a xlink:href="../../d3/d0c/class_weapon___base.html" target="_top" xlink:title="shorthand">
<polygon fill="white" stroke="#666666" points="330.88,-378 251.12,-378 251.12,-358 330.88,-358 330.88,-378"/>
<text text-anchor="middle" x="291" y="-364.5" font-family="Helvetica,sans-Serif" font-size="10.00">Weapon_Base</text>
</a>
</g>
</g>
<!-- Node3&#45;&gt;Node1 -->
<g id="edge2_Node000001_Node000003" class="edge">
<title>Node3&#45;&gt;Node1</title>
<g id="a_edge2_Node000001_Node000003"><a xlink:title=" ">
<path fill="none" stroke="#9a32cd" stroke-dasharray="5,2" d="M291.37,-346.32C292.03,-312.98 293.62,-245.29 296.5,-188 299.86,-121.25 300.98,-104.56 307,-38 307.53,-32.18 308.25,-25.66 308.85,-20.49"/>
<polygon fill="#9a32cd" stroke="#9a32cd" points="287.88,-346.1 291.19,-356.16 294.87,-346.23 287.88,-346.1"/>
</a>
</g>
<text text-anchor="middle" x="322.25" y="-208.5" font-family="Helvetica,sans-Serif" font-size="10.00" fill="grey"> m_Weapon</text>
</g>
<!-- Node4 -->
<g id="Node000004" class="node">
<title>Node4</title>
<g id="a_Node000004"><a xlink:href="../../dc/d0c/class_weapon_stable_state.html" target="_top" xlink:title="represents weapon&#39;s stable state (i.e. the basic states that the weapon will spend the most time in)">
<polygon fill="white" stroke="#666666" points="278.5,-592 175.5,-592 175.5,-572 278.5,-572 278.5,-592"/>
<text text-anchor="middle" x="227" y="-578.5" font-family="Helvetica,sans-Serif" font-size="10.00">WeaponStableState</text>
</a>
</g>
</g>
<!-- Node4&#45;&gt;Node3 -->
<g id="edge3_Node000003_Node000004" class="edge">
<title>Node4&#45;&gt;Node3</title>
<g id="a_edge3_Node000003_Node000004"><a xlink:title=" ">
<path fill="none" stroke="#9a32cd" stroke-dasharray="5,2" d="M221.99,-560.65C215.36,-529.21 206.82,-467.69 228.25,-422 233.52,-410.77 260.61,-390.32 277.43,-378.37"/>
<polygon fill="#9a32cd" stroke="#9a32cd" points="218.57,-561.36 224.21,-570.33 225.39,-559.81 218.57,-561.36"/>
</a>
</g>
<text text-anchor="middle" x="240.38" y="-544.5" font-family="Helvetica,sans-Serif" font-size="10.00" fill="grey"> C</text>
<text text-anchor="middle" x="240.38" y="-532.5" font-family="Helvetica,sans-Serif" font-size="10.00" fill="grey">CC00</text>
<text text-anchor="middle" x="240.38" y="-520.5" font-family="Helvetica,sans-Serif" font-size="10.00" fill="grey">CC01</text>
<text text-anchor="middle" x="240.38" y="-508.5" font-family="Helvetica,sans-Serif" font-size="10.00" fill="grey">CC10</text>
<text text-anchor="middle" x="240.38" y="-496.5" font-family="Helvetica,sans-Serif" font-size="10.00" fill="grey">CC11</text>
<text text-anchor="middle" x="240.38" y="-484.5" font-family="Helvetica,sans-Serif" font-size="10.00" fill="grey">CD00</text>
<text text-anchor="middle" x="240.38" y="-472.5" font-family="Helvetica,sans-Serif" font-size="10.00" fill="grey">CD01</text>
<text text-anchor="middle" x="240.38" y="-460.5" font-family="Helvetica,sans-Serif" font-size="10.00" fill="grey">CJF0</text>
<text text-anchor="middle" x="240.38" y="-448.5" font-family="Helvetica,sans-Serif" font-size="10.00" fill="grey">CJF1</text>
<text text-anchor="middle" x="240.38" y="-436.5" font-family="Helvetica,sans-Serif" font-size="10.00" fill="grey">OD00</text>
<text text-anchor="middle" x="240.38" y="-424.5" font-family="Helvetica,sans-Serif" font-size="10.00" fill="grey">...</text>
</g>
<!-- Node5 -->
<g id="Node000005" class="node">
<title>Node5</title>
<g id="a_Node000005"><a xlink:href="../../db/d06/class_param3.html" target="_top" xlink:title=" ">
<polygon fill="white" stroke="#666666" points="502.88,-592 453.12,-592 453.12,-572 502.88,-572 502.88,-592"/>
<text text-anchor="middle" x="478" y="-578.5" font-family="Helvetica,sans-Serif" font-size="10.00">Param3</text>
</a>
</g>
</g>
<!-- Node5&#45;&gt;Node3 -->
<g id="edge4_Node000003_Node000005" class="edge">
<title>Node5&#45;&gt;Node3</title>
<g id="a_edge4_Node000003_Node000005"><a xlink:title=" ">
<path fill="none" stroke="#9a32cd" stroke-dasharray="5,2" d="M441.45,-581.62C389.13,-581.63 296.86,-578.11 275.75,-554 230.32,-502.11 271.5,-407.7 286.24,-378.11"/>
<polygon fill="#9a32cd" stroke="#9a32cd" points="441.4,-585.12 451.38,-581.57 441.37,-578.12 441.4,-585.12"/>
</a>
</g>
<text text-anchor="middle" x="321.12" y="-490.5" font-family="Helvetica,sans-Serif" font-size="10.00" fill="grey"> m_ActiveMuzzle</text>
<text text-anchor="middle" x="321.12" y="-478.5" font-family="Helvetica,sans-Serif" font-size="10.00" fill="grey">m_LastMuzzleloaded</text>
</g>
<!-- Node11 -->
<g id="Node000011" class="node">
<title>Node11</title>
<g id="a_Node000011"><a xlink:href="../../d2/d01/classarray.html" target="_top" xlink:title=" ">
<polygon fill="white" stroke="#666666" points="747.62,-222 666.38,-222 666.38,-202 747.62,-202 747.62,-222"/>
<text text-anchor="middle" x="707" y="-208.5" font-family="Helvetica,sans-Serif" font-size="10.00">array&lt; vector &gt;</text>
</a>
</g>
</g>
<!-- Node5&#45;&gt;Node11 -->
<g id="edge16_Node000011_Node000005" class="edge">
<title>Node5&#45;&gt;Node11</title>
<g id="a_edge16_Node000011_Node000005"><a xlink:title=" ">
<path fill="none" stroke="#9a32cd" stroke-dasharray="5,2" d="M441.51,-578.46C424.79,-575.26 406.42,-568.4 396,-554 367.01,-513.93 382.85,-372.13 411.75,-332 454.35,-272.86 488.33,-281.06 556,-254 592.19,-239.53 635.26,-228.4 666.12,-221.41"/>
<polygon fill="#9a32cd" stroke="#9a32cd" points="440.79,-581.89 451.2,-579.92 441.83,-574.97 440.79,-581.89"/>
</a>
</g>
<text text-anchor="middle" x="469.12" y="-394.5" font-family="Helvetica,sans-Serif" font-size="10.00" fill="grey"> NO_SORTING</text>
<text text-anchor="middle" x="469.12" y="-382.5" font-family="Helvetica,sans-Serif" font-size="10.00" fill="grey">geomLevel</text>
<text text-anchor="middle" x="469.12" y="-370.5" font-family="Helvetica,sans-Serif" font-size="10.00" fill="grey">hierLevel</text>
<text text-anchor="start" x="411" y="-358.5" font-family="Helvetica,sans-Serif" font-size="10.00" fill="grey">m_CurrentSettingAlternate</text>
<text text-anchor="middle" x="469.12" y="-346.5" font-family="Helvetica,sans-Serif" font-size="10.00" fill="grey">KeyIndex</text>
<text text-anchor="middle" x="469.12" y="-334.5" font-family="Helvetica,sans-Serif" font-size="10.00" fill="grey">m_CurrentSettingKeyIndex</text>
</g>
<!-- Node13 -->
<g id="Node000013" class="node">
<title>Node13</title>
<g id="a_Node000013"><a xlink:href="../../d2/d01/classarray.html" target="_top" xlink:title="Result for an object found in CGame.IsBoxCollidingGeometryProxy.">
<polygon fill="white" stroke="#666666" points="999.88,-378 962.12,-378 962.12,-358 999.88,-358 999.88,-378"/>
<text text-anchor="middle" x="981" y="-364.5" font-family="Helvetica,sans-Serif" font-size="10.00">array</text>
</a>
</g>
</g>
<!-- Node5&#45;&gt;Node13 -->
<g id="edge19_Node000013_Node000005" class="edge">
<title>Node5&#45;&gt;Node13</title>
<g id="a_edge19_Node000013_Node000005"><a xlink:title=" ">
<path fill="none" stroke="#9a32cd" stroke-dasharray="5,2" d="M514.33,-575.94C553.42,-570.2 611.08,-560.76 619,-554 666.46,-513.5 616.85,-459.45 666.75,-422 716.84,-384.41 891.32,-430.64 948,-404 959.79,-398.46 969.47,-386.67 975.23,-378.31"/>
<polygon fill="#9a32cd" stroke="#9a32cd" points="514.01,-572.45 504.61,-577.34 515.01,-579.38 514.01,-572.45"/>
</a>
</g>
<text text-anchor="middle" x="724.12" y="-514.5" font-family="Helvetica,sans-Serif" font-size="10.00" fill="grey"> NO_SORTING</text>
<text text-anchor="middle" x="724.12" y="-502.5" font-family="Helvetica,sans-Serif" font-size="10.00" fill="grey">geomLevel</text>
<text text-anchor="middle" x="724.12" y="-490.5" font-family="Helvetica,sans-Serif" font-size="10.00" fill="grey">hierLevel</text>
<text text-anchor="start" x="666" y="-478.5" font-family="Helvetica,sans-Serif" font-size="10.00" fill="grey">m_CurrentSettingAlternate</text>
<text text-anchor="middle" x="724.12" y="-466.5" font-family="Helvetica,sans-Serif" font-size="10.00" fill="grey">KeyIndex</text>
<text text-anchor="middle" x="724.12" y="-454.5" font-family="Helvetica,sans-Serif" font-size="10.00" fill="grey">m_CurrentSettingKeyIndex</text>
</g>
<!-- Node16 -->
<g id="Node000016" class="node">
<title>Node16</title>
<g id="a_Node000016"><a xlink:href="../../d2/d01/classarray.html" target="_top" xlink:title=" ">
<polygon fill="white" stroke="#666666" points="1106.25,-222 1019.75,-222 1019.75,-202 1106.25,-202 1106.25,-222"/>
<text text-anchor="middle" x="1063" y="-208.5" font-family="Helvetica,sans-Serif" font-size="10.00">array&lt; Widget &gt;</text>
</a>
</g>
</g>
<!-- Node5&#45;&gt;Node16 -->
<g id="edge26_Node000016_Node000005" class="edge">
<title>Node5&#45;&gt;Node16</title>
<g id="a_edge26_Node000016_Node000005"><a xlink:title=" ">
<path fill="none" stroke="#9a32cd" stroke-dasharray="5,2" d="M510.17,-565.91C515.26,-562.52 520.11,-558.55 524,-554 570.55,-499.55 559.51,-471.68 583,-404 593.96,-372.42 582.92,-357.32 604.75,-332 657.79,-270.49 692.18,-277.23 770,-254 856.13,-228.3 961.42,-218.57 1019.43,-215"/>
<polygon fill="#9a32cd" stroke="#9a32cd" points="508.44,-562.87 501.6,-570.97 512,-568.9 508.44,-562.87"/>
</a>
</g>
<text text-anchor="middle" x="662.12" y="-394.5" font-family="Helvetica,sans-Serif" font-size="10.00" fill="grey"> NO_SORTING</text>
<text text-anchor="middle" x="662.12" y="-382.5" font-family="Helvetica,sans-Serif" font-size="10.00" fill="grey">geomLevel</text>
<text text-anchor="middle" x="662.12" y="-370.5" font-family="Helvetica,sans-Serif" font-size="10.00" fill="grey">hierLevel</text>
<text text-anchor="start" x="604" y="-358.5" font-family="Helvetica,sans-Serif" font-size="10.00" fill="grey">m_CurrentSettingAlternate</text>
<text text-anchor="middle" x="662.12" y="-346.5" font-family="Helvetica,sans-Serif" font-size="10.00" fill="grey">KeyIndex</text>
<text text-anchor="middle" x="662.12" y="-334.5" font-family="Helvetica,sans-Serif" font-size="10.00" fill="grey">m_CurrentSettingKeyIndex</text>
</g>
<!-- Node6 -->
<g id="Node000006" class="node">
<title>Node6</title>
<g id="a_Node000006"><a xlink:href="../../d5/d02/classstring.html" target="_top" xlink:title=" ">
<polygon fill="white" stroke="#666666" points="609,-592 569,-592 569,-572 609,-572 609,-592"/>
<text text-anchor="middle" x="589" y="-578.5" font-family="Helvetica,sans-Serif" font-size="10.00">string</text>
</a>
</g>
</g>
<!-- Node6&#45;&gt;Node3 -->
<g id="edge5_Node000003_Node000006" class="edge">
<title>Node6&#45;&gt;Node3</title>
<g id="a_edge5_Node000003_Node000006"><a xlink:title=" ">
<path fill="none" stroke="#9a32cd" stroke-dasharray="5,2" d="M557.3,-576.9C508.97,-570.51 421.86,-558.48 416.5,-554 368.92,-514.16 408.99,-471.07 371,-422 355.6,-402.11 330.53,-387.24 312.56,-378.4"/>
<polygon fill="#9a32cd" stroke="#9a32cd" points="556.81,-580.36 567.18,-578.19 557.72,-573.42 556.81,-580.36"/>
</a>
</g>
<text text-anchor="middle" x="467.75" y="-490.5" font-family="Helvetica,sans-Serif" font-size="10.00" fill="grey"> ATT_SLOT_CYLINDER</text>
<text text-anchor="middle" x="467.75" y="-478.5" font-family="Helvetica,sans-Serif" font-size="10.00" fill="grey">ATT_SLOT_EJECTOR</text>
</g>
<!-- Node6&#45;&gt;Node6 -->
<g id="edge6_Node000006_Node000006" class="edge">
<title>Node6&#45;&gt;Node6</title>
<g id="a_edge6_Node000006_Node000006"><a xlink:title=" ">
<path fill="none" stroke="#9a32cd" stroke-dasharray="5,2" d="M606.44,-598.47C617.01,-602.25 627,-596.76 627,-582 627,-562.72 609.95,-559.26 596.83,-571.61"/>
<polygon fill="#9a32cd" stroke="#9a32cd" points="608.43,-595.59 598.11,-593.2 604.69,-601.51 608.43,-595.59"/>
</a>
</g>
<text text-anchor="middle" x="642.75" y="-578.5" font-family="Helvetica,sans-Serif" font-size="10.00" fill="grey"> Empty</text>
</g>
<!-- Node6&#45;&gt;Node11 -->
<g id="edge33_Node000011_Node000006" class="edge">
<title>Node6&#45;&gt;Node11</title>
<g id="a_edge33_Node000011_Node000006"><a xlink:title=" ">
<path fill="none" stroke="#9a32cd" stroke-dasharray="5,2" d="M578.35,-561.79C555.81,-518.38 508.47,-410.4 547.75,-332 576.2,-275.22 646.02,-238.59 683.05,-222.47"/>
<polygon fill="#9a32cd" stroke="#9a32cd" points="575.19,-563.32 583,-570.48 581.36,-560.01 575.19,-563.32"/>
</a>
</g>
<text text-anchor="middle" x="564.62" y="-364.5" font-family="Helvetica,sans-Serif" font-size="10.00" fill="grey"> m_Test</text>
</g>
<!-- Node6&#45;&gt;Node13 -->
<g id="edge22_Node000013_Node000006" class="edge">
<title>Node6&#45;&gt;Node13</title>
<g id="a_edge22_Node000013_Node000006"><a xlink:title=" ">
<path fill="none" stroke="#9a32cd" stroke-dasharray="5,2" d="M620.76,-579.01C669.02,-575.59 758.25,-567.63 787,-554 877.41,-511.13 952.8,-409.78 974.62,-378.42"/>
<polygon fill="#9a32cd" stroke="#9a32cd" points="620.69,-575.51 610.95,-579.68 621.16,-582.49 620.69,-575.51"/>
</a>
</g>
<text text-anchor="middle" x="957.62" y="-484.5" font-family="Helvetica,sans-Serif" font-size="10.00" fill="grey"> m_Test</text>
</g>
<!-- Node6&#45;&gt;Node16 -->
<g id="edge29_Node000016_Node000006" class="edge">
<title>Node6&#45;&gt;Node16</title>
<g id="a_edge29_Node000016_Node000006"><a xlink:title=" ">
<path fill="none" stroke="#9a32cd" stroke-dasharray="5,2" d="M610.96,-564.19C614,-561.08 616.83,-557.64 619,-554 649.93,-502.16 608.33,-464.7 651,-422 674.92,-398.06 699.05,-425.73 725,-404 751.82,-381.55 733.83,-358.42 756.75,-332 799.72,-282.46 821.34,-278.92 882,-254 927,-235.51 981.89,-224.57 1019.34,-218.7"/>
<polygon fill="#9a32cd" stroke="#9a32cd" points="608.9,-561.33 603.8,-570.61 613.58,-566.54 608.9,-561.33"/>
</a>
</g>
<text text-anchor="middle" x="773.62" y="-364.5" font-family="Helvetica,sans-Serif" font-size="10.00" fill="grey"> m_Test</text>
</g>
<!-- Node7&#45;&gt;Node1 -->
<g id="edge7_Node000001_Node000007" class="edge">
<title>Node7&#45;&gt;Node1</title>
<g id="a_edge7_Node000001_Node000007"><a xlink:title=" ">
<path fill="none" stroke="#9a32cd" stroke-dasharray="5,2" d="M187.69,-190.4C186.58,-154.71 189.61,-81.05 228.75,-38 241.05,-24.47 260.29,-17.71 276.96,-14.34"/>
<polygon fill="#9a32cd" stroke="#9a32cd" points="184.18,-190.37 188.15,-200.2 191.17,-190.04 184.18,-190.37"/>
</a>
</g>
<text text-anchor="middle" x="250.12" y="-100.5" font-family="Helvetica,sans-Serif" font-size="10.00" fill="grey"> m_Player</text>
</g>
<!-- Node8 -->
<g id="Node000008" class="node">
<title>Node8</title>
<g id="a_Node000008"><a xlink:href="../../dd/d03/class_scripted_light_base.html" target="_top" xlink:title=" ">
<polygon fill="white" stroke="#666666" points="232.75,-378 137.25,-378 137.25,-358 232.75,-358 232.75,-378"/>
<text text-anchor="middle" x="185" y="-364.5" font-family="Helvetica,sans-Serif" font-size="10.00">ScriptedLightBase</text>
</a>
</g>
</g>
<!-- Node8&#45;&gt;Node7 -->
<g id="edge8_Node000007_Node000008" class="edge">
<title>Node8&#45;&gt;Node7</title>
<g id="a_edge8_Node000007_Node000008"><a xlink:title=" ">
<path fill="none" stroke="#9a32cd" stroke-dasharray="5,2" d="M185.53,-346.64C186.4,-312.91 188.12,-246.72 188.76,-222.32"/>
<polygon fill="#9a32cd" stroke="#9a32cd" points="182.04,-346.23 185.28,-356.31 189.04,-346.41 182.04,-346.23"/>
</a>
</g>
<text text-anchor="middle" x="225.88" y="-280.5" font-family="Helvetica,sans-Serif" font-size="10.00" fill="grey"> m_PersonalLight</text>
</g>
<!-- Node9 -->
<g id="Node000009" class="node">
<title>Node9</title>
<g id="a_Node000009"><a xlink:href="../../d4/d03/classfloat.html" target="_top" xlink:title=" ">
<polygon fill="white" stroke="#666666" points="392,-222 358,-222 358,-202 392,-202 392,-222"/>
<text text-anchor="middle" x="375" y="-208.5" font-family="Helvetica,sans-Serif" font-size="10.00">float</text>
</a>
</g>
</g>
<!-- Node9&#45;&gt;Node1 -->
<g id="edge10_Node000001_Node000009" class="edge">
<title>Node9&#45;&gt;Node1</title>
<g id="a_edge10_Node000001_Node000009"><a xlink:title=" ">
<path fill="none" stroke="#9a32cd" stroke-dasharray="5,2" d="M356.99,-193.27C351.06,-186.5 344.97,-178.39 341,-170 316.07,-117.39 311.19,-45.9 310.23,-20.46"/>
<polygon fill="#9a32cd" stroke="#9a32cd" points="354.33,-195.55 363.73,-200.45 359.44,-190.76 354.33,-195.55"/>
</a>
</g>
<text text-anchor="middle" x="402.5" y="-160.5" font-family="Helvetica,sans-Serif" font-size="10.00" fill="grey"> m_Angle</text>
<text text-anchor="middle" x="402.5" y="-148.5" font-family="Helvetica,sans-Serif" font-size="10.00" fill="grey">m_CamOffsetDistance</text>
<text text-anchor="middle" x="402.5" y="-136.5" font-family="Helvetica,sans-Serif" font-size="10.00" fill="grey">m_CamOffsetRelativeTime</text>
<text text-anchor="middle" x="402.5" y="-124.5" font-family="Helvetica,sans-Serif" font-size="10.00" fill="grey">m_HandsOffsetRelativeTime</text>
<text text-anchor="middle" x="402.5" y="-112.5" font-family="Helvetica,sans-Serif" font-size="10.00" fill="grey">m_MouseOffsetDistance</text>
<text text-anchor="middle" x="402.5" y="-100.5" font-family="Helvetica,sans-Serif" font-size="10.00" fill="grey">m_MouseOffsetRangeMax</text>
<text text-anchor="middle" x="402.5" y="-88.5" font-family="Helvetica,sans-Serif" font-size="10.00" fill="grey">m_MouseOffsetRangeMin</text>
<text text-anchor="middle" x="402.5" y="-76.5" font-family="Helvetica,sans-Serif" font-size="10.00" fill="grey">m_MouseOffsetRelativeTime</text>
<text text-anchor="middle" x="402.5" y="-64.5" font-family="Helvetica,sans-Serif" font-size="10.00" fill="grey">m_ReloadTime</text>
<text text-anchor="middle" x="402.5" y="-52.5" font-family="Helvetica,sans-Serif" font-size="10.00" fill="grey">m_Time</text>
<text text-anchor="middle" x="402.5" y="-40.5" font-family="Helvetica,sans-Serif" font-size="10.00" fill="grey">...</text>
</g>
<!-- Node9&#45;&gt;Node9 -->
<g id="edge11_Node000009_Node000009" class="edge">
<title>Node9&#45;&gt;Node9</title>
<g id="a_edge11_Node000009_Node000009"><a xlink:title=" ">
<path fill="none" stroke="#9a32cd" stroke-dasharray="5,2" d="M396.68,-225.5C404.06,-225.58 410,-221.08 410,-212 410,-198.64 397.15,-195.2 385.75,-201.67"/>
<polygon fill="#9a32cd" stroke="#9a32cd" points="397.78,-222.17 387.2,-222.75 395.83,-228.9 397.78,-222.17"/>
</a>
</g>
<text text-anchor="middle" x="432.12" y="-220.5" font-family="Helvetica,sans-Serif" font-size="10.00" fill="grey"> LOWEST</text>
<text text-anchor="middle" x="432.12" y="-208.5" font-family="Helvetica,sans-Serif" font-size="10.00" fill="grey">MAX</text>
<text text-anchor="middle" x="432.12" y="-196.5" font-family="Helvetica,sans-Serif" font-size="10.00" fill="grey">MIN</text>
</g>
<!-- Node10 -->
<g id="Node000010" class="node">
<title>Node10</title>
<g id="a_Node000010"><a xlink:href="../../d7/d0c/classvector.html" target="_top" xlink:title=" ">
<polygon fill="white" stroke="#666666" points="513.75,-222 472.25,-222 472.25,-202 513.75,-202 513.75,-222"/>
<text text-anchor="middle" x="493" y="-208.5" font-family="Helvetica,sans-Serif" font-size="10.00">vector</text>
</a>
</g>
</g>
<!-- Node10&#45;&gt;Node1 -->
<g id="edge12_Node000001_Node000010" class="edge">
<title>Node10&#45;&gt;Node1</title>
<g id="a_edge12_Node000001_Node000010"><a xlink:title=" ">
<path fill="none" stroke="#9a32cd" stroke-dasharray="5,2" d="M496.3,-190.93C500.97,-154.9 504.88,-79.18 464,-38 447.51,-21.38 383.32,-14.9 343.2,-12.44"/>
<polygon fill="#9a32cd" stroke="#9a32cd" points="492.9,-189.99 494.91,-200.4 499.82,-191.01 492.9,-189.99"/>
</a>
</g>
<text text-anchor="middle" x="562" y="-112.5" font-family="Helvetica,sans-Serif" font-size="10.00" fill="grey"> m_MouseOffsetTarget</text>
<text text-anchor="middle" x="562" y="-100.5" font-family="Helvetica,sans-Serif" font-size="10.00" fill="grey">m_MouseOffsetTargetAccum</text>
<text text-anchor="middle" x="562" y="-88.5" font-family="Helvetica,sans-Serif" font-size="10.00" fill="grey">m_RecoilModifier</text>
</g>
<!-- Node10&#45;&gt;Node10 -->
<g id="edge13_Node000010_Node000010" class="edge">
<title>Node10&#45;&gt;Node10</title>
<g id="a_edge13_Node000010_Node000010"><a xlink:title=" ">
<path fill="none" stroke="#9a32cd" stroke-dasharray="5,2" d="M515.87,-225.46C524.56,-225.98 531.75,-221.5 531.75,-212 531.75,-198.64 517.52,-195.2 504.9,-201.67"/>
<polygon fill="#9a32cd" stroke="#9a32cd" points="516.93,-222.12 506.36,-222.75 515.01,-228.86 516.93,-222.12"/>
</a>
</g>
<text text-anchor="middle" x="549" y="-226.5" font-family="Helvetica,sans-Serif" font-size="10.00" fill="grey"> Aside</text>
<text text-anchor="middle" x="549" y="-214.5" font-family="Helvetica,sans-Serif" font-size="10.00" fill="grey">Forward</text>
<text text-anchor="middle" x="549" y="-202.5" font-family="Helvetica,sans-Serif" font-size="10.00" fill="grey">Up</text>
<text text-anchor="middle" x="549" y="-190.5" font-family="Helvetica,sans-Serif" font-size="10.00" fill="grey">Zero</text>
</g>
<!-- Node11&#45;&gt;Node1 -->
<g id="edge14_Node000001_Node000011" class="edge">
<title>Node11&#45;&gt;Node1</title>
<g id="a_edge14_Node000001_Node000011"><a xlink:title=" ">
<path fill="none" stroke="#9a32cd" stroke-dasharray="5,2" d="M704.44,-190.49C698.59,-153.11 680.48,-74.43 629,-38 606.06,-21.77 420.26,-14.33 343.25,-11.92"/>
<polygon fill="#9a32cd" stroke="#9a32cd" points="700.97,-190.93 705.83,-200.35 707.9,-189.96 700.97,-190.93"/>
</a>
</g>
<text text-anchor="middle" x="748" y="-100.5" font-family="Helvetica,sans-Serif" font-size="10.00" fill="grey"> m_HandsCurvePoints</text>
</g>
<!-- Node12 -->
<g id="Node000012" class="node">
<title>Node12</title>
<g id="a_Node000012"><a xlink:href="../../d8/d03/class_object.html" target="_top" xlink:title=" ">
<polygon fill="white" stroke="#666666" points="1003.25,-592 958.75,-592 958.75,-572 1003.25,-572 1003.25,-592"/>
<text text-anchor="middle" x="981" y="-578.5" font-family="Helvetica,sans-Serif" font-size="10.00">Object</text>
</a>
</g>
</g>
<!-- Node12&#45;&gt;Node11 -->
<g id="edge15_Node000011_Node000012" class="edge">
<title>Node12&#45;&gt;Node11</title>
<g id="a_edge15_Node000011_Node000012"><a xlink:title=" ">
<path fill="none" stroke="#9a32cd" stroke-dasharray="5,2" d="M947.4,-580.85C924.56,-578.91 895.27,-572.57 877,-554 834.66,-510.97 866.73,-478.32 845,-422 828.61,-379.51 820.59,-370.33 796,-332 768.56,-289.22 730.65,-241.81 714.63,-222.23"/>
<polygon fill="#9a32cd" stroke="#9a32cd" points="946.98,-584.33 957.16,-581.41 947.38,-577.34 946.98,-584.33"/>
</a>
</g>
<text text-anchor="middle" x="850.5" y="-370.5" font-family="Helvetica,sans-Serif" font-size="10.00" fill="grey"> obj</text>
<text text-anchor="middle" x="850.5" y="-358.5" font-family="Helvetica,sans-Serif" font-size="10.00" fill="grey">parent</text>
</g>
<!-- Node12&#45;&gt;Node13 -->
<g id="edge18_Node000013_Node000012" class="edge">
<title>Node12&#45;&gt;Node13</title>
<g id="a_edge18_Node000013_Node000012"><a xlink:title=" ">
<path fill="none" stroke="#9a32cd" stroke-dasharray="5,2" d="M981,-560.15C981,-515.07 981,-410.05 981,-378.27"/>
<polygon fill="#9a32cd" stroke="#9a32cd" points="977.5,-560.1 981,-570.1 984.5,-560.1 977.5,-560.1"/>
</a>
</g>
<text text-anchor="middle" x="994.5" y="-490.5" font-family="Helvetica,sans-Serif" font-size="10.00" fill="grey"> obj</text>
<text text-anchor="middle" x="994.5" y="-478.5" font-family="Helvetica,sans-Serif" font-size="10.00" fill="grey">parent</text>
</g>
<!-- Node12&#45;&gt;Node16 -->
<g id="edge25_Node000016_Node000012" class="edge">
<title>Node12&#45;&gt;Node16</title>
<g id="a_edge25_Node000016_Node000012"><a xlink:title=" ">
<path fill="none" stroke="#9a32cd" stroke-dasharray="5,2" d="M1002.96,-564.06C1006.24,-560.94 1009.39,-557.54 1012,-554 1075.97,-467.17 1051.69,-422.73 1110,-332 1115.79,-323 1122.2,-324 1126,-314 1135.48,-289.07 1138.71,-277.44 1126,-254 1118.04,-239.32 1102.29,-229.07 1088.53,-222.49"/>
<polygon fill="#9a32cd" stroke="#9a32cd" points="1000.69,-561.41 995.41,-570.6 1005.26,-566.7 1000.69,-561.41"/>
</a>
</g>
<text text-anchor="middle" x="1123.5" y="-370.5" font-family="Helvetica,sans-Serif" font-size="10.00" fill="grey"> obj</text>
<text text-anchor="middle" x="1123.5" y="-358.5" font-family="Helvetica,sans-Serif" font-size="10.00" fill="grey">parent</text>
</g>
<!-- Node13&#45;&gt;Node11 -->
<g id="edge17_Node000011_Node000013" class="edge">
<title>Node13&#45;&gt;Node11</title>
<g id="a_edge17_Node000011_Node000013"><a xlink:title=" ">
<path fill="none" stroke="#9a32cd" stroke-dasharray="5,2" d="M966.47,-349C961.09,-343.08 954.67,-336.8 948,-332 932.5,-320.85 922.04,-327.94 909,-314 889.49,-293.15 907.57,-272.72 886,-254 865.66,-236.34 794.16,-224.13 747.92,-217.87"/>
<polygon fill="#9a32cd" stroke="#9a32cd" points="963.8,-351.26 972.96,-356.58 969.11,-346.71 963.8,-351.26"/>
</a>
</g>
<text text-anchor="middle" x="930" y="-280.5" font-family="Helvetica,sans-Serif" font-size="10.00" fill="grey"> proxyInfo</text>
</g>
<!-- Node13&#45;&gt;Node13 -->
<g id="edge20_Node000013_Node000013" class="edge">
<title>Node13&#45;&gt;Node13</title>
<g id="a_edge20_Node000013_Node000013"><a xlink:title=" ">
<path fill="none" stroke="#9a32cd" stroke-dasharray="5,2" d="M1000.29,-383.35C1009.62,-385.29 1017.88,-380.17 1017.88,-368 1017.88,-351.43 1002.57,-347.93 990.07,-357.51"/>
<polygon fill="#9a32cd" stroke="#9a32cd" points="1001.97,-380.28 991.44,-379.14 998.96,-386.6 1001.97,-380.28"/>
</a>
</g>
<text text-anchor="middle" x="1038.88" y="-364.5" font-family="Helvetica,sans-Serif" font-size="10.00" fill="grey"> proxyInfo</text>
</g>
<!-- Node13&#45;&gt;Node16 -->
<g id="edge27_Node000016_Node000013" class="edge">
<title>Node13&#45;&gt;Node16</title>
<g id="a_edge27_Node000016_Node000013"><a xlink:title=" ">
<path fill="none" stroke="#9a32cd" stroke-dasharray="5,2" d="M978.44,-346.29C976.54,-322.14 976.84,-281.97 995,-254 1004.61,-239.2 1021.61,-228.95 1036.21,-222.4"/>
<polygon fill="#9a32cd" stroke="#9a32cd" points="974.94,-346.5 979.43,-356.09 981.91,-345.79 974.94,-346.5"/>
</a>
</g>
<text text-anchor="middle" x="1016" y="-280.5" font-family="Helvetica,sans-Serif" font-size="10.00" fill="grey"> proxyInfo</text>
</g>
<!-- Node14 -->
<g id="Node000014" class="node">
<title>Node14</title>
<g id="a_Node000014"><a xlink:href="../../d4/d04/class_class.html" target="_top" xlink:title="Super root of all classes in Enforce script.">
<polygon fill="white" stroke="#666666" points="1124.38,-592 1083.62,-592 1083.62,-572 1124.38,-572 1124.38,-592"/>
<text text-anchor="middle" x="1104" y="-578.5" font-family="Helvetica,sans-Serif" font-size="10.00">Class</text>
</a>
</g>
</g>
<!-- Node14&#45;&gt;Node11 -->
<g id="edge32_Node000011_Node000014" class="edge">
<title>Node14&#45;&gt;Node11</title>
<g id="a_edge32_Node000011_Node000014"><a xlink:title=" ">
<path fill="none" stroke="#9a32cd" stroke-dasharray="5,2" d="M1071.87,-581.56C1044.13,-580.45 1004.31,-574.86 977,-554 917.41,-508.48 932.06,-471.67 899.75,-404 884.68,-372.44 888.93,-360.02 868,-332 828.69,-279.37 759.67,-239.59 726.23,-222.37"/>
<polygon fill="#9a32cd" stroke="#9a32cd" points="1071.74,-585.06 1081.8,-581.76 1071.88,-578.06 1071.74,-585.06"/>
</a>
</g>
<text text-anchor="middle" x="925.62" y="-364.5" font-family="Helvetica,sans-Serif" font-size="10.00" fill="grey"> m_Instance</text>
</g>
<!-- Node14&#45;&gt;Node13 -->
<g id="edge21_Node000013_Node000014" class="edge">
<title>Node14&#45;&gt;Node13</title>
<g id="a_edge21_Node000013_Node000014"><a xlink:title=" ">
<path fill="none" stroke="#9a32cd" stroke-dasharray="5,2" d="M1092.89,-561.73C1075.62,-531.8 1041.29,-472.35 1012,-422 1003.1,-406.7 992.71,-388.96 986.5,-378.37"/>
<polygon fill="#9a32cd" stroke="#9a32cd" points="1089.84,-563.45 1097.87,-570.36 1095.9,-559.95 1089.84,-563.45"/>
</a>
</g>
<text text-anchor="middle" x="1113.62" y="-484.5" font-family="Helvetica,sans-Serif" font-size="10.00" fill="grey"> m_Instance</text>
</g>
<!-- Node14&#45;&gt;Node16 -->
<g id="edge28_Node000016_Node000014" class="edge">
<title>Node14&#45;&gt;Node16</title>
<g id="a_edge28_Node000016_Node000014"><a xlink:title=" ">
<path fill="none" stroke="#9a32cd" stroke-dasharray="5,2" d="M1135.93,-577.83C1166.01,-574.1 1207.92,-566.75 1218,-554 1254.39,-507.98 1223.78,-480.38 1218,-422 1210.14,-342.64 1214.24,-307.38 1155,-254 1138.5,-239.13 1115.73,-228.93 1096.97,-222.42"/>
<polygon fill="#9a32cd" stroke="#9a32cd" points="1135.72,-574.33 1126.18,-578.95 1136.52,-581.28 1135.72,-574.33"/>
</a>
</g>
<text text-anchor="middle" x="1242.62" y="-364.5" font-family="Helvetica,sans-Serif" font-size="10.00" fill="grey"> m_Instance</text>
</g>
<!-- Node15 -->
<g id="Node000015" class="node">
<title>Node15</title>
<g id="a_Node000015"><a xlink:href="../../dd/d0a/class_widget.html" target="_top" xlink:title=" ">
<polygon fill="white" stroke="#666666" points="1280.38,-592 1233.62,-592 1233.62,-572 1280.38,-572 1280.38,-592"/>
<text text-anchor="middle" x="1257" y="-578.5" font-family="Helvetica,sans-Serif" font-size="10.00">Widget</text>
</a>
</g>
</g>
<!-- Node15&#45;&gt;Node11 -->
<g id="edge34_Node000011_Node000015" class="edge">
<title>Node15&#45;&gt;Node11</title>
<g id="a_edge34_Node000011_Node000015"><a xlink:title=" ">
<path fill="none" stroke="#9a32cd" stroke-dasharray="5,2" d="M1261.98,-560.69C1268.83,-527.39 1276.8,-460.99 1243,-422 1220.05,-395.52 1192.87,-426.78 1166.25,-404 1140,-381.55 1164.51,-352.88 1137,-332 1080.7,-289.27 1036.37,-355.28 979,-314 955.11,-296.81 974.42,-271.82 951,-254 919.8,-230.27 809.08,-219.54 748.08,-215.33"/>
<polygon fill="#9a32cd" stroke="#9a32cd" points="1258.62,-559.7 1259.83,-570.23 1265.44,-561.24 1258.62,-559.7"/>
</a>
</g>
<text text-anchor="middle" x="1184.38" y="-364.5" font-family="Helvetica,sans-Serif" font-size="10.00" fill="grey"> m_Root</text>
</g>
<!-- Node15&#45;&gt;Node13 -->
<g id="edge23_Node000013_Node000015" class="edge">
<title>Node15&#45;&gt;Node13</title>
<g id="a_edge23_Node000013_Node000015"><a xlink:title=" ">
<path fill="none" stroke="#9a32cd" stroke-dasharray="5,2" d="M1223.42,-567.1C1217.2,-563.48 1211.13,-559.12 1206.25,-554 1161.51,-507.04 1193.99,-463.33 1144,-422 1119.24,-401.53 1104.63,-413.67 1074,-404 1048.01,-395.79 1018.67,-384.38 1000.02,-376.85"/>
<polygon fill="#9a32cd" stroke="#9a32cd" points="1221.35,-569.97 1231.84,-571.49 1224.59,-563.76 1221.35,-569.97"/>
</a>
</g>
<text text-anchor="middle" x="1224.38" y="-484.5" font-family="Helvetica,sans-Serif" font-size="10.00" fill="grey"> m_Root</text>
</g>
<!-- Node15&#45;&gt;Node16 -->
<g id="edge30_Node000016_Node000015" class="edge">
<title>Node15&#45;&gt;Node16</title>
<g id="a_edge30_Node000016_Node000015"><a xlink:title=" ">
<path fill="none" stroke="#9a32cd" stroke-dasharray="5,2" d="M1268.33,-561.72C1269.42,-559.19 1270.35,-556.58 1271,-554 1295.01,-458.3 1311.9,-422.68 1273,-332 1244.5,-265.57 1159.06,-234.63 1106.36,-221.52"/>
<polygon fill="#9a32cd" stroke="#9a32cd" points="1265.23,-560.1 1263.75,-570.59 1271.45,-563.31 1265.23,-560.1"/>
</a>
</g>
<text text-anchor="middle" x="1312.38" y="-364.5" font-family="Helvetica,sans-Serif" font-size="10.00" fill="grey"> m_Root</text>
</g>
<!-- Node16&#45;&gt;Node13 -->
<g id="edge24_Node000013_Node000016" class="edge">
<title>Node16&#45;&gt;Node13</title>
<g id="a_edge24_Node000013_Node000016"><a xlink:title=" ">
<path fill="none" stroke="#9a32cd" stroke-dasharray="5,2" d="M1062.24,-233.61C1060.63,-255.04 1055.74,-288.89 1041,-314 1030.02,-332.7 1010.14,-348.29 996.29,-357.62"/>
<polygon fill="#9a32cd" stroke="#9a32cd" points="1065.72,-234.02 1062.78,-223.84 1058.73,-233.63 1065.72,-234.02"/>
</a>
</g>
<text text-anchor="middle" x="1090.5" y="-280.5" font-family="Helvetica,sans-Serif" font-size="10.00" fill="grey"> m_Subgroups</text>
</g>
<!-- Node16&#45;&gt;Node16 -->
<g id="edge31_Node000016_Node000016" class="edge">
<title>Node16&#45;&gt;Node16</title>
<g id="a_edge31_Node000016_Node000016"><a xlink:title=" ">
<path fill="none" stroke="#9a32cd" stroke-dasharray="5,2" d="M1092.93,-224.9C1109.27,-227.2 1124.25,-222.9 1124.25,-212 1124.25,-198.71 1101.99,-195.23 1082.13,-201.57"/>
<polygon fill="#9a32cd" stroke="#9a32cd" points="1094.13,-221.58 1083.6,-222.77 1092.57,-228.41 1094.13,-221.58"/>
</a>
</g>
<text text-anchor="middle" x="1155.75" y="-208.5" font-family="Helvetica,sans-Serif" font-size="10.00" fill="grey"> m_Subgroups</text>
</g>
</g>
</svg>
