<?xml version="1.0" encoding="UTF-8" standalone="no"?>
<!DOCTYPE svg PUBLIC "-//W3C//DTD SVG 1.1//EN"
 "http://www.w3.org/Graphics/SVG/1.1/DTD/svg11.dtd">
<!-- Generated by graphviz version 11.0.0 (20240428.1522)
 -->
<!-- Title: CAContinuousQuantityBloodTransfer Pages: 1 -->
<svg width="154pt" height="208pt"
 viewBox="0.00 0.00 153.75 208.00" xmlns="http://www.w3.org/2000/svg" xmlns:xlink="http://www.w3.org/1999/xlink">
<g id="graph0" class="graph" transform="scale(1 1) rotate(0) translate(4 204)">
<title>CAContinuousQuantityBloodTransfer</title>
<!-- Node1 -->
<g id="Node000001" class="node">
<title>Node1</title>
<g id="a_Node000001"><a xlink:title=" ">
<polygon fill="#999999" stroke="#666666" points="142.75,-32 3,-32 3,0 142.75,0 142.75,-32"/>
<text text-anchor="start" x="11" y="-18.5" font-family="Helvetica,sans-Serif" font-size="10.00">CAContinuousQuantityBlood</text>
<text text-anchor="middle" x="72.88" y="-6.5" font-family="Helvetica,sans-Serif" font-size="10.00">Transfer</text>
</a>
</g>
</g>
<!-- Node2 -->
<g id="Node000002" class="node">
<title>Node2</title>
<g id="a_Node000002"><a xlink:href="../../dd/d0b/class_c_a_continuous_quantity_repeat.html" target="_top" xlink:title=" ">
<polygon fill="white" stroke="#666666" points="145.75,-88 0,-88 0,-68 145.75,-68 145.75,-88"/>
<text text-anchor="middle" x="72.88" y="-74.5" font-family="Helvetica,sans-Serif" font-size="10.00">CAContinuousQuantityRepeat</text>
</a>
</g>
</g>
<!-- Node2&#45;&gt;Node1 -->
<g id="edge1_Node000001_Node000002" class="edge">
<title>Node2&#45;&gt;Node1</title>
<g id="a_edge1_Node000001_Node000002"><a xlink:title=" ">
<path fill="none" stroke="#8b1a1a" d="M72.88,-56.31C72.88,-48.37 72.88,-39.46 72.88,-32.14"/>
<polygon fill="#8b1a1a" stroke="#8b1a1a" points="69.38,-56.11 72.88,-66.11 76.38,-56.11 69.38,-56.11"/>
</a>
</g>
</g>
<!-- Node3 -->
<g id="Node000003" class="node">
<title>Node3</title>
<g id="a_Node000003"><a xlink:href="../../dc/d0b/class_c_a_continuous_base.html" target="_top" xlink:title=" ">
<polygon fill="white" stroke="#666666" points="123.25,-144 22.5,-144 22.5,-124 123.25,-124 123.25,-144"/>
<text text-anchor="middle" x="72.88" y="-130.5" font-family="Helvetica,sans-Serif" font-size="10.00">CAContinuousBase</text>
</a>
</g>
</g>
<!-- Node3&#45;&gt;Node2 -->
<g id="edge2_Node000002_Node000003" class="edge">
<title>Node3&#45;&gt;Node2</title>
<g id="a_edge2_Node000002_Node000003"><a xlink:title=" ">
<path fill="none" stroke="#8b1a1a" d="M72.88,-112.13C72.88,-103.9 72.88,-94.85 72.88,-88.3"/>
<polygon fill="#8b1a1a" stroke="#8b1a1a" points="69.38,-112.08 72.88,-122.08 76.38,-112.08 69.38,-112.08"/>
</a>
</g>
</g>
<!-- Node4 -->
<g id="Node000004" class="node">
<title>Node4</title>
<g id="a_Node000004"><a xlink:href="../../d0/d00/class_c_a_base.html" target="_top" xlink:title=" ">
<polygon fill="white" stroke="#666666" points="98.88,-200 46.88,-200 46.88,-180 98.88,-180 98.88,-200"/>
<text text-anchor="middle" x="72.88" y="-186.5" font-family="Helvetica,sans-Serif" font-size="10.00">CABase</text>
</a>
</g>
</g>
<!-- Node4&#45;&gt;Node3 -->
<g id="edge3_Node000003_Node000004" class="edge">
<title>Node4&#45;&gt;Node3</title>
<g id="a_edge3_Node000003_Node000004"><a xlink:title=" ">
<path fill="none" stroke="#8b1a1a" d="M72.88,-168.13C72.88,-159.9 72.88,-150.85 72.88,-144.3"/>
<polygon fill="#8b1a1a" stroke="#8b1a1a" points="69.38,-168.08 72.88,-178.08 76.38,-168.08 69.38,-168.08"/>
</a>
</g>
</g>
</g>
</svg>
