<?xml version="1.0" encoding="UTF-8" standalone="no"?>
<!DOCTYPE svg PUBLIC "-//W3C//DTD SVG 1.1//EN"
 "http://www.w3.org/Graphics/SVG/1.1/DTD/svg11.dtd">
<!-- Generated by graphviz version 11.0.0 (20240428.1522)
 -->
<!-- Title: Bolt_Base Pages: 1 -->
<svg width="250pt" height="196pt"
 viewBox="0.00 0.00 249.62 196.00" xmlns="http://www.w3.org/2000/svg" xmlns:xlink="http://www.w3.org/1999/xlink">
<g id="graph0" class="graph" transform="scale(1 1) rotate(0) translate(4 192)">
<title>Bolt_Base</title>
<!-- Node1 -->
<g id="Node000001" class="node">
<title>Node1</title>
<g id="a_Node000001"><a xlink:title=" ">
<polygon fill="#999999" stroke="#666666" points="145.5,-76 84.5,-76 84.5,-56 145.5,-56 145.5,-76"/>
<text text-anchor="middle" x="115" y="-62.5" font-family="Helvetica,sans-Serif" font-size="10.00">Bolt_Base</text>
</a>
</g>
</g>
<!-- Node4 -->
<g id="Node000004" class="node">
<title>Node4</title>
<g id="a_Node000004"><a xlink:href="../../d4/d09/class_ammo___hunting_bolt.html" target="_top" xlink:title=" ">
<polygon fill="white" stroke="#666666" points="100,-20 0,-20 0,0 100,0 100,-20"/>
<text text-anchor="middle" x="50" y="-6.5" font-family="Helvetica,sans-Serif" font-size="10.00">Ammo_HuntingBolt</text>
</a>
</g>
</g>
<!-- Node1&#45;&gt;Node4 -->
<g id="edge3_Node000001_Node000004" class="edge">
<title>Node1&#45;&gt;Node4</title>
<g id="a_edge3_Node000001_Node000004"><a xlink:title=" ">
<path fill="none" stroke="#8b1a1a" d="M95.02,-48.4C83.9,-39.17 70.47,-28.01 61.19,-20.3"/>
<polygon fill="#8b1a1a" stroke="#8b1a1a" points="92.59,-50.93 102.51,-54.63 97.06,-45.54 92.59,-50.93"/>
</a>
</g>
</g>
<!-- Node5 -->
<g id="Node000005" class="node">
<title>Node5</title>
<g id="a_Node000005"><a xlink:href="../../d0/d0e/class_ammo___improvised_bolt__2.html" target="_top" xlink:title=" ">
<polygon fill="white" stroke="#666666" points="241.62,-20 118.38,-20 118.38,0 241.62,0 241.62,-20"/>
<text text-anchor="middle" x="180" y="-6.5" font-family="Helvetica,sans-Serif" font-size="10.00">Ammo_ImprovisedBolt_2</text>
</a>
</g>
</g>
<!-- Node1&#45;&gt;Node5 -->
<g id="edge4_Node000001_Node000005" class="edge">
<title>Node1&#45;&gt;Node5</title>
<g id="a_edge4_Node000001_Node000005"><a xlink:title=" ">
<path fill="none" stroke="#8b1a1a" d="M134.98,-48.4C146.1,-39.17 159.53,-28.01 168.81,-20.3"/>
<polygon fill="#8b1a1a" stroke="#8b1a1a" points="132.94,-45.54 127.49,-54.63 137.41,-50.93 132.94,-45.54"/>
</a>
</g>
</g>
<!-- Node2 -->
<g id="Node000002" class="node">
<title>Node2</title>
<g id="a_Node000002"><a xlink:href="../../dc/d03/class_ammunition___base.html" target="_top" xlink:title="ammo pile base">
<polygon fill="white" stroke="#666666" points="162.75,-132 67.25,-132 67.25,-112 162.75,-112 162.75,-132"/>
<text text-anchor="middle" x="115" y="-118.5" font-family="Helvetica,sans-Serif" font-size="10.00">Ammunition_Base</text>
</a>
</g>
</g>
<!-- Node2&#45;&gt;Node1 -->
<g id="edge1_Node000001_Node000002" class="edge">
<title>Node2&#45;&gt;Node1</title>
<g id="a_edge1_Node000001_Node000002"><a xlink:title=" ">
<path fill="none" stroke="#8b1a1a" d="M115,-100.13C115,-91.9 115,-82.85 115,-76.3"/>
<polygon fill="#8b1a1a" stroke="#8b1a1a" points="111.5,-100.08 115,-110.08 118.5,-100.08 111.5,-100.08"/>
</a>
</g>
</g>
<!-- Node3 -->
<g id="Node000003" class="node">
<title>Node3</title>
<g id="a_Node000003"><a xlink:title=" ">
<polygon fill="white" stroke="#666666" points="157.88,-188 72.12,-188 72.12,-168 157.88,-168 157.88,-188"/>
<text text-anchor="middle" x="115" y="-174.5" font-family="Helvetica,sans-Serif" font-size="10.00">Magazine_Base</text>
</a>
</g>
</g>
<!-- Node3&#45;&gt;Node2 -->
<g id="edge2_Node000002_Node000003" class="edge">
<title>Node3&#45;&gt;Node2</title>
<g id="a_edge2_Node000002_Node000003"><a xlink:title=" ">
<path fill="none" stroke="#8b1a1a" d="M115,-156.13C115,-147.9 115,-138.85 115,-132.3"/>
<polygon fill="#8b1a1a" stroke="#8b1a1a" points="111.5,-156.08 115,-166.08 118.5,-156.08 111.5,-156.08"/>
</a>
</g>
</g>
</g>
</svg>
