<?xml version="1.0" encoding="UTF-8" standalone="no"?>
<!DOCTYPE svg PUBLIC "-//W3C//DTD SVG 1.1//EN"
 "http://www.w3.org/Graphics/SVG/1.1/DTD/svg11.dtd">
<!-- Generated by graphviz version 11.0.0 (20240428.1522)
 -->
<!-- Title: HandStateBase Pages: 1 -->
<svg width="1237pt" height="432pt"
 viewBox="0.00 0.00 1237.25 432.42" xmlns="http://www.w3.org/2000/svg" xmlns:xlink="http://www.w3.org/1999/xlink">
<g id="graph0" class="graph" transform="scale(1 1) rotate(0) translate(4 428.42)">
<title>HandStateBase</title>
<!-- Node1 -->
<g id="Node000001" class="node">
<title>Node1</title>
<g id="a_Node000001"><a xlink:title="represent hand state base">
<polygon fill="#999999" stroke="#666666" points="539.62,-22.51 455.38,-22.51 455.38,-2.51 539.62,-2.51 539.62,-22.51"/>
<text text-anchor="middle" x="497.5" y="-9.01" font-family="Helvetica,sans-Serif" font-size="10.00">HandStateBase</text>
</a>
</g>
</g>
<!-- Node1&#45;&gt;Node1 -->
<g id="edge27_Node000001_Node000001" class="edge">
<title>Node1&#45;&gt;Node1</title>
<g id="a_edge27_Node000001_Node000001"><a xlink:title=" ">
<path fill="none" stroke="#9a32cd" stroke-dasharray="5,2" d="M532.31,-24.45C546.1,-25.07 557.62,-21.09 557.62,-12.51 557.62,-1.64 539.11,1.85 520.95,-2.06"/>
<polygon fill="#9a32cd" stroke="#9a32cd" points="532.82,-20.98 522.45,-23.16 531.91,-27.93 532.82,-20.98"/>
</a>
</g>
<text text-anchor="middle" x="591" y="-9.01" font-family="Helvetica,sans-Serif" font-size="10.00" fill="grey"> m_parentState</text>
</g>
<!-- Node2 -->
<g id="Node000002" class="node">
<title>Node2</title>
<g id="a_Node000002"><a xlink:href="../../d6/d05/class_inventory_location.html" target="_top" xlink:title="InventoryLocation.">
<polygon fill="white" stroke="#666666" points="91,-150.51 0,-150.51 0,-130.51 91,-130.51 91,-150.51"/>
<text text-anchor="middle" x="45.5" y="-137.01" font-family="Helvetica,sans-Serif" font-size="10.00">InventoryLocation</text>
</a>
</g>
</g>
<!-- Node2&#45;&gt;Node1 -->
<g id="edge1_Node000001_Node000002" class="edge">
<title>Node2&#45;&gt;Node1</title>
<g id="a_edge1_Node000001_Node000002"><a xlink:title=" ">
<path fill="none" stroke="#9a32cd" stroke-dasharray="5,2" d="M66.23,-123.33C96.83,-100.43 156.76,-59.29 215,-40.51 258.49,-26.49 387.28,-18.61 454.92,-15.33"/>
<polygon fill="#9a32cd" stroke="#9a32cd" points="64.41,-120.31 58.57,-129.15 68.65,-125.88 64.41,-120.31"/>
</a>
</g>
<text text-anchor="middle" x="237.25" y="-103.01" font-family="Helvetica,sans-Serif" font-size="10.00" fill="grey"> m_Dst</text>
<text text-anchor="middle" x="237.25" y="-91.01" font-family="Helvetica,sans-Serif" font-size="10.00" fill="grey">m_Dst1</text>
<text text-anchor="middle" x="237.25" y="-79.01" font-family="Helvetica,sans-Serif" font-size="10.00" fill="grey">m_Dst2</text>
<text text-anchor="middle" x="237.25" y="-67.01" font-family="Helvetica,sans-Serif" font-size="10.00" fill="grey">m_Src1</text>
<text text-anchor="middle" x="237.25" y="-55.01" font-family="Helvetica,sans-Serif" font-size="10.00" fill="grey">m_Src2</text>
<text text-anchor="middle" x="237.25" y="-43.01" font-family="Helvetica,sans-Serif" font-size="10.00" fill="grey">m_ilEntity</text>
</g>
<!-- Node3 -->
<g id="Node000003" class="node">
<title>Node3</title>
<g id="a_Node000003"><a xlink:href="../../de/d05/class_hand_force_swapping_animated___show.html" target="_top" xlink:title=" ">
<polygon fill="white" stroke="#666666" points="284.38,-150.51 108.62,-150.51 108.62,-130.51 284.38,-130.51 284.38,-150.51"/>
<text text-anchor="middle" x="196.5" y="-137.01" font-family="Helvetica,sans-Serif" font-size="10.00">HandForceSwappingAnimated_Show</text>
</a>
</g>
</g>
<!-- Node3&#45;&gt;Node1 -->
<g id="edge2_Node000001_Node000003" class="edge">
<title>Node3&#45;&gt;Node1</title>
<g id="a_edge2_Node000001_Node000003"><a xlink:title=" ">
<path fill="none" stroke="#9a32cd" stroke-dasharray="5,2" d="M229.44,-125.72C291.1,-99.91 422.42,-44.94 475.02,-22.92"/>
<polygon fill="#9a32cd" stroke="#9a32cd" points="228.39,-122.37 220.52,-129.46 231.1,-128.82 228.39,-122.37"/>
</a>
</g>
<text text-anchor="middle" x="452.75" y="-73.01" font-family="Helvetica,sans-Serif" font-size="10.00" fill="grey"> m_Swap</text>
</g>
<!-- Node4 -->
<g id="Node000004" class="node">
<title>Node4</title>
<g id="a_Node000004"><a xlink:href="../../df/d09/class_entity_a_i.html" target="_top" xlink:title=" ">
<polygon fill="white" stroke="#666666" points="756.75,-150.51 706.25,-150.51 706.25,-130.51 756.75,-130.51 756.75,-150.51"/>
<text text-anchor="middle" x="731.5" y="-137.01" font-family="Helvetica,sans-Serif" font-size="10.00">EntityAI</text>
</a>
</g>
</g>
<!-- Node4&#45;&gt;Node1 -->
<g id="edge3_Node000001_Node000004" class="edge">
<title>Node4&#45;&gt;Node1</title>
<g id="a_edge3_Node000001_Node000004"><a xlink:title=" ">
<path fill="none" stroke="#9a32cd" stroke-dasharray="5,2" d="M704.08,-124.75C655.43,-98.55 555.36,-44.67 514.97,-22.92"/>
<polygon fill="#9a32cd" stroke="#9a32cd" points="702.12,-127.66 712.58,-129.32 705.43,-121.5 702.12,-127.66"/>
</a>
</g>
<text text-anchor="middle" x="701.5" y="-73.01" font-family="Helvetica,sans-Serif" font-size="10.00" fill="grey"> m_Entity</text>
</g>
<!-- Node5 -->
<g id="Node000005" class="node">
<title>Node5</title>
<g id="a_Node000005"><a xlink:href="../../d2/d01/classarray.html" target="_top" xlink:title="Result for an object found in CGame.IsBoxCollidingGeometryProxy.">
<polygon fill="white" stroke="#666666" points="355.38,-268.51 317.62,-268.51 317.62,-248.51 355.38,-248.51 355.38,-268.51"/>
<text text-anchor="middle" x="336.5" y="-255.01" font-family="Helvetica,sans-Serif" font-size="10.00">array</text>
</a>
</g>
</g>
<!-- Node5&#45;&gt;Node4 -->
<g id="edge4_Node000004_Node000005" class="edge">
<title>Node5&#45;&gt;Node4</title>
<g id="a_edge4_Node000004_Node000005"><a xlink:title=" ">
<path fill="none" stroke="#9a32cd" stroke-dasharray="5,2" d="M366.1,-244.4C384.1,-236.93 407.75,-227.99 429.5,-222.51 487.77,-207.83 506.73,-224.22 563.5,-204.51 593.15,-194.21 595.23,-180.47 624.25,-168.51 651.23,-157.39 683.99,-149.96 706.14,-145.75"/>
<polygon fill="#9a32cd" stroke="#9a32cd" points="364.92,-241.1 357.08,-248.23 367.65,-247.55 364.92,-241.1"/>
</a>
</g>
<text text-anchor="middle" x="672.62" y="-195.01" font-family="Helvetica,sans-Serif" font-size="10.00" fill="grey"> m_ContinuousActions</text>
<text text-anchor="middle" x="672.62" y="-183.01" font-family="Helvetica,sans-Serif" font-size="10.00" fill="grey">m_InteractActions</text>
<text text-anchor="middle" x="672.62" y="-171.01" font-family="Helvetica,sans-Serif" font-size="10.00" fill="grey">m_SingleUseActions</text>
</g>
<!-- Node5&#45;&gt;Node5 -->
<g id="edge7_Node000005_Node000005" class="edge">
<title>Node5&#45;&gt;Node5</title>
<g id="a_edge7_Node000005_Node000005"><a xlink:title=" ">
<path fill="none" stroke="#9a32cd" stroke-dasharray="5,2" d="M358.8,-272C366.83,-272.29 373.38,-267.8 373.38,-258.51 373.38,-245.15 359.83,-241.71 347.83,-248.18"/>
<polygon fill="#9a32cd" stroke="#9a32cd" points="359.86,-268.66 349.28,-269.26 357.93,-275.39 359.86,-268.66"/>
</a>
</g>
<text text-anchor="middle" x="394.38" y="-255.01" font-family="Helvetica,sans-Serif" font-size="10.00" fill="grey"> proxyInfo</text>
</g>
<!-- Node11 -->
<g id="Node000011" class="node">
<title>Node11</title>
<g id="a_Node000011"><a xlink:href="../../d2/d01/classarray.html" target="_top" xlink:title=" ">
<polygon fill="white" stroke="#666666" points="388.75,-150.51 302.25,-150.51 302.25,-130.51 388.75,-130.51 388.75,-150.51"/>
<text text-anchor="middle" x="345.5" y="-137.01" font-family="Helvetica,sans-Serif" font-size="10.00">array&lt; Widget &gt;</text>
</a>
</g>
</g>
<!-- Node5&#45;&gt;Node11 -->
<g id="edge15_Node000011_Node000005" class="edge">
<title>Node5&#45;&gt;Node11</title>
<g id="a_edge15_Node000011_Node000005"><a xlink:title=" ">
<path fill="none" stroke="#9a32cd" stroke-dasharray="5,2" d="M318.4,-240.04C301.66,-221.69 281.35,-192.24 295.5,-168.51 300.15,-160.72 307.91,-155.04 315.96,-150.96"/>
<polygon fill="#9a32cd" stroke="#9a32cd" points="315.65,-242.23 325.11,-247 320.68,-237.37 315.65,-242.23"/>
</a>
</g>
<text text-anchor="middle" x="316.5" y="-183.01" font-family="Helvetica,sans-Serif" font-size="10.00" fill="grey"> proxyInfo</text>
</g>
<!-- Node6 -->
<g id="Node000006" class="node">
<title>Node6</title>
<g id="a_Node000006"><a xlink:href="../../d8/d03/class_object.html" target="_top" xlink:title=" ">
<polygon fill="white" stroke="#666666" points="102.75,-422.51 58.25,-422.51 58.25,-402.51 102.75,-402.51 102.75,-422.51"/>
<text text-anchor="middle" x="80.5" y="-409.01" font-family="Helvetica,sans-Serif" font-size="10.00">Object</text>
</a>
</g>
</g>
<!-- Node6&#45;&gt;Node5 -->
<g id="edge5_Node000005_Node000006" class="edge">
<title>Node6&#45;&gt;Node5</title>
<g id="a_edge5_Node000005_Node000006"><a xlink:title=" ">
<path fill="none" stroke="#9a32cd" stroke-dasharray="5,2" d="M89.2,-391.78C100.59,-368.55 122.88,-330.81 154.5,-312.51 212.23,-279.1 243.95,-324.57 303.5,-294.51 314.98,-288.71 324.59,-277.23 330.43,-268.99"/>
<polygon fill="#9a32cd" stroke="#9a32cd" points="86.06,-390.24 85.01,-400.78 92.41,-393.19 86.06,-390.24"/>
</a>
</g>
<text text-anchor="middle" x="168" y="-351.01" font-family="Helvetica,sans-Serif" font-size="10.00" fill="grey"> obj</text>
<text text-anchor="middle" x="168" y="-339.01" font-family="Helvetica,sans-Serif" font-size="10.00" fill="grey">parent</text>
</g>
<!-- Node6&#45;&gt;Node11 -->
<g id="edge13_Node000011_Node000006" class="edge">
<title>Node6&#45;&gt;Node11</title>
<g id="a_edge13_Node000011_Node000006"><a xlink:title=" ">
<path fill="none" stroke="#9a32cd" stroke-dasharray="5,2" d="M77.35,-391.01C72.79,-353.94 68.36,-274.77 103.5,-222.51 131.03,-181.56 154.08,-185.25 200.5,-168.51 205.33,-166.77 261.1,-156.6 302.04,-149.25"/>
<polygon fill="#9a32cd" stroke="#9a32cd" points="73.86,-391.32 78.7,-400.75 80.79,-390.37 73.86,-391.32"/>
</a>
</g>
<text text-anchor="middle" x="117" y="-261.01" font-family="Helvetica,sans-Serif" font-size="10.00" fill="grey"> obj</text>
<text text-anchor="middle" x="117" y="-249.01" font-family="Helvetica,sans-Serif" font-size="10.00" fill="grey">parent</text>
</g>
<!-- Node7 -->
<g id="Node000007" class="node">
<title>Node7</title>
<g id="a_Node000007"><a xlink:href="../../db/d06/class_param3.html" target="_top" xlink:title=" ">
<polygon fill="white" stroke="#666666" points="511.38,-422.51 461.62,-422.51 461.62,-402.51 511.38,-402.51 511.38,-422.51"/>
<text text-anchor="middle" x="486.5" y="-409.01" font-family="Helvetica,sans-Serif" font-size="10.00">Param3</text>
</a>
</g>
</g>
<!-- Node7&#45;&gt;Node1 -->
<g id="edge26_Node000001_Node000007" class="edge">
<title>Node7&#45;&gt;Node1</title>
<g id="a_edge26_Node000001_Node000007"><a xlink:title=" ">
<path fill="none" stroke="#9a32cd" stroke-dasharray="5,2" d="M523.04,-411.26C543.71,-409 568.05,-402.32 581.5,-384.51 624.9,-327.06 626.98,-278.33 581.5,-222.51 556.49,-191.81 519.26,-235.21 494.25,-204.51 471.31,-176.36 490,-56.59 495.88,-22.56"/>
<polygon fill="#9a32cd" stroke="#9a32cd" points="522.93,-407.76 513.22,-412.01 523.46,-414.74 522.93,-407.76"/>
</a>
</g>
<text text-anchor="middle" x="527.12" y="-189.01" font-family="Helvetica,sans-Serif" font-size="10.00" fill="grey"> m_ActionType</text>
<text text-anchor="middle" x="527.12" y="-177.01" font-family="Helvetica,sans-Serif" font-size="10.00" fill="grey">m_AnimState</text>
</g>
<!-- Node7&#45;&gt;Node5 -->
<g id="edge6_Node000005_Node000007" class="edge">
<title>Node7&#45;&gt;Node5</title>
<g id="a_edge6_Node000005_Node000007"><a xlink:title=" ">
<path fill="none" stroke="#9a32cd" stroke-dasharray="5,2" d="M449.89,-408.53C415.96,-404.98 368.9,-397.78 356.25,-384.51 340.41,-367.89 337.27,-295.09 336.65,-268.92"/>
<polygon fill="#9a32cd" stroke="#9a32cd" points="449.46,-412 459.75,-409.49 450.14,-405.04 449.46,-412"/>
</a>
</g>
<text text-anchor="middle" x="414.62" y="-375.01" font-family="Helvetica,sans-Serif" font-size="10.00" fill="grey"> NO_SORTING</text>
<text text-anchor="middle" x="414.62" y="-363.01" font-family="Helvetica,sans-Serif" font-size="10.00" fill="grey">geomLevel</text>
<text text-anchor="middle" x="414.62" y="-351.01" font-family="Helvetica,sans-Serif" font-size="10.00" fill="grey">hierLevel</text>
<text text-anchor="start" x="356.5" y="-339.01" font-family="Helvetica,sans-Serif" font-size="10.00" fill="grey">m_CurrentSettingAlternate</text>
<text text-anchor="middle" x="414.62" y="-327.01" font-family="Helvetica,sans-Serif" font-size="10.00" fill="grey">KeyIndex</text>
<text text-anchor="middle" x="414.62" y="-315.01" font-family="Helvetica,sans-Serif" font-size="10.00" fill="grey">m_CurrentSettingKeyIndex</text>
</g>
<!-- Node7&#45;&gt;Node11 -->
<g id="edge14_Node000011_Node000007" class="edge">
<title>Node7&#45;&gt;Node11</title>
<g id="a_edge14_Node000011_Node000007"><a xlink:title=" ">
<path fill="none" stroke="#9a32cd" stroke-dasharray="5,2" d="M485.18,-390.8C483.52,-370.54 479.92,-338.96 472.5,-312.51 471.32,-308.32 413.6,-171.57 410.5,-168.51 402.59,-160.7 392.09,-155.03 381.84,-150.97"/>
<polygon fill="#9a32cd" stroke="#9a32cd" points="481.67,-390.83 485.89,-400.55 488.66,-390.32 481.67,-390.83"/>
</a>
</g>
<text text-anchor="middle" x="523.62" y="-285.01" font-family="Helvetica,sans-Serif" font-size="10.00" fill="grey"> NO_SORTING</text>
<text text-anchor="middle" x="523.62" y="-273.01" font-family="Helvetica,sans-Serif" font-size="10.00" fill="grey">geomLevel</text>
<text text-anchor="middle" x="523.62" y="-261.01" font-family="Helvetica,sans-Serif" font-size="10.00" fill="grey">hierLevel</text>
<text text-anchor="start" x="465.5" y="-249.01" font-family="Helvetica,sans-Serif" font-size="10.00" fill="grey">m_CurrentSettingAlternate</text>
<text text-anchor="middle" x="523.62" y="-237.01" font-family="Helvetica,sans-Serif" font-size="10.00" fill="grey">KeyIndex</text>
<text text-anchor="middle" x="523.62" y="-225.01" font-family="Helvetica,sans-Serif" font-size="10.00" fill="grey">m_CurrentSettingKeyIndex</text>
</g>
<!-- Node8 -->
<g id="Node000008" class="node">
<title>Node8</title>
<g id="a_Node000008"><a xlink:href="../../d4/d04/class_class.html" target="_top" xlink:title="Super root of all classes in Enforce script.">
<polygon fill="white" stroke="#666666" points="280.88,-422.51 240.12,-422.51 240.12,-402.51 280.88,-402.51 280.88,-422.51"/>
<text text-anchor="middle" x="260.5" y="-409.01" font-family="Helvetica,sans-Serif" font-size="10.00">Class</text>
</a>
</g>
</g>
<!-- Node8&#45;&gt;Node5 -->
<g id="edge8_Node000005_Node000008" class="edge">
<title>Node8&#45;&gt;Node5</title>
<g id="a_edge8_Node000005_Node000008"><a xlink:title=" ">
<path fill="none" stroke="#9a32cd" stroke-dasharray="5,2" d="M260.5,-390.83C261.39,-369.67 265.35,-336.57 280.25,-312.51 287.13,-301.4 293.82,-303.29 303.5,-294.51 312.53,-286.32 321.99,-276.09 328.46,-268.81"/>
<polygon fill="#9a32cd" stroke="#9a32cd" points="257,-390.69 260.3,-400.76 264,-390.83 257,-390.69"/>
</a>
</g>
<text text-anchor="middle" x="307.12" y="-345.01" font-family="Helvetica,sans-Serif" font-size="10.00" fill="grey"> m_Instance</text>
</g>
<!-- Node8&#45;&gt;Node11 -->
<g id="edge16_Node000011_Node000008" class="edge">
<title>Node8&#45;&gt;Node11</title>
<g id="a_edge16_Node000011_Node000008"><a xlink:title=" ">
<path fill="none" stroke="#9a32cd" stroke-dasharray="5,2" d="M256.1,-391.14C249.35,-355.98 238.84,-281.97 255.25,-222.51 262.68,-195.56 266.74,-187.24 287.5,-168.51 295.83,-161 306.61,-155.21 316.62,-150.95"/>
<polygon fill="#9a32cd" stroke="#9a32cd" points="252.64,-391.65 258.06,-400.75 259.49,-390.25 252.64,-391.65"/>
</a>
</g>
<text text-anchor="middle" x="282.12" y="-255.01" font-family="Helvetica,sans-Serif" font-size="10.00" fill="grey"> m_Instance</text>
</g>
<!-- Node9 -->
<g id="Node000009" class="node">
<title>Node9</title>
<g id="a_Node000009"><a xlink:href="../../d5/d02/classstring.html" target="_top" xlink:title=" ">
<polygon fill="white" stroke="#666666" points="718.5,-422.51 678.5,-422.51 678.5,-402.51 718.5,-402.51 718.5,-422.51"/>
<text text-anchor="middle" x="698.5" y="-409.01" font-family="Helvetica,sans-Serif" font-size="10.00">string</text>
</a>
</g>
</g>
<!-- Node9&#45;&gt;Node5 -->
<g id="edge9_Node000005_Node000009" class="edge">
<title>Node9&#45;&gt;Node5</title>
<g id="a_edge9_Node000005_Node000009"><a xlink:title=" ">
<path fill="none" stroke="#9a32cd" stroke-dasharray="5,2" d="M668.25,-397.35C625.74,-377.62 545.78,-341.04 476.5,-312.51 470.66,-310.1 392.88,-280.76 355.85,-266.8"/>
<polygon fill="#9a32cd" stroke="#9a32cd" points="666.55,-400.42 677.09,-401.47 669.5,-394.08 666.55,-400.42"/>
</a>
</g>
<text text-anchor="middle" x="657.12" y="-345.01" font-family="Helvetica,sans-Serif" font-size="10.00" fill="grey"> m_Test</text>
</g>
<!-- Node9&#45;&gt;Node9 -->
<g id="edge10_Node000009_Node000009" class="edge">
<title>Node9&#45;&gt;Node9</title>
<g id="a_edge10_Node000009_Node000009"><a xlink:title=" ">
<path fill="none" stroke="#9a32cd" stroke-dasharray="5,2" d="M724.27,-424.42C731.22,-423.79 736.5,-419.82 736.5,-412.51 736.5,-401.64 724.8,-398.15 713.32,-402.06"/>
<polygon fill="#9a32cd" stroke="#9a32cd" points="725.2,-421.01 714.82,-423.16 724.27,-427.95 725.2,-421.01"/>
</a>
</g>
<text text-anchor="middle" x="752.25" y="-409.01" font-family="Helvetica,sans-Serif" font-size="10.00" fill="grey"> Empty</text>
</g>
<!-- Node9&#45;&gt;Node11 -->
<g id="edge17_Node000011_Node000009" class="edge">
<title>Node9&#45;&gt;Node11</title>
<g id="a_edge17_Node000011_Node000009"><a xlink:title=" ">
<path fill="none" stroke="#9a32cd" stroke-dasharray="5,2" d="M700.59,-390.89C705.45,-338.03 714.94,-199.63 684.5,-168.51 664.24,-147.8 475.82,-142.98 388.97,-141.85"/>
<polygon fill="#9a32cd" stroke="#9a32cd" points="697.13,-390.32 699.65,-400.61 704.1,-390.99 697.13,-390.32"/>
</a>
</g>
<text text-anchor="middle" x="723.12" y="-255.01" font-family="Helvetica,sans-Serif" font-size="10.00" fill="grey"> m_Test</text>
</g>
<!-- Node13 -->
<g id="Node000013" class="node">
<title>Node13</title>
<g id="a_Node000013"><a xlink:href="../../d4/d0d/class_sound_lookup_table.html" target="_top" xlink:title=" ">
<polygon fill="white" stroke="#666666" points="1077.75,-268.51 979.25,-268.51 979.25,-248.51 1077.75,-248.51 1077.75,-268.51"/>
<text text-anchor="middle" x="1028.5" y="-255.01" font-family="Helvetica,sans-Serif" font-size="10.00">SoundLookupTable</text>
</a>
</g>
</g>
<!-- Node9&#45;&gt;Node13 -->
<g id="edge23_Node000013_Node000009" class="edge">
<title>Node9&#45;&gt;Node13</title>
<g id="a_edge23_Node000013_Node000009"><a xlink:title=" ">
<path fill="none" stroke="#9a32cd" stroke-dasharray="5,2" d="M729.59,-399.59C780.59,-379.71 884.82,-337.68 969.5,-294.51 984.99,-286.61 1002,-276.34 1013.76,-268.97"/>
<polygon fill="#9a32cd" stroke="#9a32cd" points="728.43,-396.29 720.38,-403.17 730.96,-402.81 728.43,-396.29"/>
</a>
</g>
<text text-anchor="middle" x="975" y="-351.01" font-family="Helvetica,sans-Serif" font-size="10.00" fill="grey"> m_parameterName</text>
<text text-anchor="middle" x="975" y="-339.01" font-family="Helvetica,sans-Serif" font-size="10.00" fill="grey">m_tableCategoryName</text>
</g>
<!-- Node10 -->
<g id="Node000010" class="node">
<title>Node10</title>
<g id="a_Node000010"><a xlink:href="../../dd/d0a/class_widget.html" target="_top" xlink:title=" ">
<polygon fill="white" stroke="#666666" points="203.88,-422.51 157.12,-422.51 157.12,-402.51 203.88,-402.51 203.88,-422.51"/>
<text text-anchor="middle" x="180.5" y="-409.01" font-family="Helvetica,sans-Serif" font-size="10.00">Widget</text>
</a>
</g>
</g>
<!-- Node10&#45;&gt;Node5 -->
<g id="edge11_Node000005_Node000010" class="edge">
<title>Node10&#45;&gt;Node5</title>
<g id="a_edge11_Node000005_Node000010"><a xlink:title=" ">
<path fill="none" stroke="#9a32cd" stroke-dasharray="5,2" d="M183.17,-390.88C187.22,-368.2 197.14,-332.37 220.75,-312.51 249.55,-288.28 270.73,-313.03 303.5,-294.51 314.7,-288.18 324.36,-276.8 330.29,-268.74"/>
<polygon fill="#9a32cd" stroke="#9a32cd" points="179.71,-390.3 181.66,-400.71 186.63,-391.36 179.71,-390.3"/>
</a>
</g>
<text text-anchor="middle" x="239.88" y="-345.01" font-family="Helvetica,sans-Serif" font-size="10.00" fill="grey"> m_Root</text>
</g>
<!-- Node10&#45;&gt;Node11 -->
<g id="edge18_Node000011_Node000010" class="edge">
<title>Node10&#45;&gt;Node11</title>
<g id="a_edge18_Node000011_Node000010"><a xlink:title=" ">
<path fill="none" stroke="#9a32cd" stroke-dasharray="5,2" d="M146.29,-401.85C138.09,-397.84 130.33,-392.25 125.5,-384.51 108.58,-357.35 114.01,-342.38 125.5,-312.51 156.67,-231.48 183.81,-214.41 257.5,-168.51 270.93,-160.15 287.13,-154.21 301.96,-150.08"/>
<polygon fill="#9a32cd" stroke="#9a32cd" points="144.73,-404.99 155.31,-405.54 147.38,-398.51 144.73,-404.99"/>
</a>
</g>
<text text-anchor="middle" x="198.88" y="-255.01" font-family="Helvetica,sans-Serif" font-size="10.00" fill="grey"> m_Root</text>
</g>
<!-- Node11&#45;&gt;Node5 -->
<g id="edge12_Node000005_Node000011" class="edge">
<title>Node11&#45;&gt;Node5</title>
<g id="a_edge12_Node000005_Node000011"><a xlink:title=" ">
<path fill="none" stroke="#9a32cd" stroke-dasharray="5,2" d="M343.91,-162.02C341.94,-187.33 338.69,-229.32 337.24,-248.02"/>
<polygon fill="#9a32cd" stroke="#9a32cd" points="347.38,-162.56 344.66,-152.32 340.4,-162.02 347.38,-162.56"/>
</a>
</g>
<text text-anchor="middle" x="375" y="-183.01" font-family="Helvetica,sans-Serif" font-size="10.00" fill="grey"> m_Subgroups</text>
</g>
<!-- Node11&#45;&gt;Node11 -->
<g id="edge19_Node000011_Node000011" class="edge">
<title>Node11&#45;&gt;Node11</title>
<g id="a_edge19_Node000011_Node000011"><a xlink:title=" ">
<path fill="none" stroke="#9a32cd" stroke-dasharray="5,2" d="M400.13,-146.95C404.23,-145.51 406.75,-143.37 406.75,-140.51 406.75,-135.57 399.21,-132.75 388.99,-132.06"/>
<polygon fill="#9a32cd" stroke="#9a32cd" points="399.7,-143.47 390.48,-148.7 400.94,-150.36 399.7,-143.47"/>
</a>
</g>
<text text-anchor="middle" x="438.25" y="-137.01" font-family="Helvetica,sans-Serif" font-size="10.00" fill="grey"> m_Subgroups</text>
</g>
<!-- Node12 -->
<g id="Node000012" class="node">
<title>Node12</title>
<g id="a_Node000012"><a xlink:href="../../d4/d03/classfloat.html" target="_top" xlink:title=" ">
<polygon fill="white" stroke="#666666" points="898.5,-268.51 864.5,-268.51 864.5,-248.51 898.5,-248.51 898.5,-268.51"/>
<text text-anchor="middle" x="881.5" y="-255.01" font-family="Helvetica,sans-Serif" font-size="10.00">float</text>
</a>
</g>
</g>
<!-- Node12&#45;&gt;Node4 -->
<g id="edge20_Node000004_Node000012" class="edge">
<title>Node12&#45;&gt;Node4</title>
<g id="a_edge20_Node000004_Node000012"><a xlink:title=" ">
<path fill="none" stroke="#9a32cd" stroke-dasharray="5,2" d="M884.47,-236.85C886.12,-216.63 885.02,-186.36 867.5,-168.51 835.25,-135.66 810.46,-160.41 765.5,-150.51 762.76,-149.91 759.9,-149.23 757.06,-148.52"/>
<polygon fill="#9a32cd" stroke="#9a32cd" points="881,-236.35 883.35,-246.69 887.96,-237.15 881,-236.35"/>
</a>
</g>
<text text-anchor="middle" x="940.25" y="-189.01" font-family="Helvetica,sans-Serif" font-size="10.00" fill="grey"> SOUND_CONTACT_SKIP</text>
<text text-anchor="middle" x="940.25" y="-177.01" font-family="Helvetica,sans-Serif" font-size="10.00" fill="grey">m_SoundContactTickTime</text>
</g>
<!-- Node12&#45;&gt;Node12 -->
<g id="edge21_Node000012_Node000012" class="edge">
<title>Node12&#45;&gt;Node12</title>
<g id="a_edge21_Node000012_Node000012"><a xlink:title=" ">
<path fill="none" stroke="#9a32cd" stroke-dasharray="5,2" d="M903.18,-272.01C910.56,-272.09 916.5,-267.59 916.5,-258.51 916.5,-245.15 903.65,-241.71 892.25,-248.18"/>
<polygon fill="#9a32cd" stroke="#9a32cd" points="904.28,-268.69 893.7,-269.26 902.33,-275.41 904.28,-268.69"/>
</a>
</g>
<text text-anchor="middle" x="938.62" y="-267.01" font-family="Helvetica,sans-Serif" font-size="10.00" fill="grey"> LOWEST</text>
<text text-anchor="middle" x="938.62" y="-255.01" font-family="Helvetica,sans-Serif" font-size="10.00" fill="grey">MAX</text>
<text text-anchor="middle" x="938.62" y="-243.01" font-family="Helvetica,sans-Serif" font-size="10.00" fill="grey">MIN</text>
</g>
<!-- Node13&#45;&gt;Node4 -->
<g id="edge22_Node000004_Node000013" class="edge">
<title>Node13&#45;&gt;Node4</title>
<g id="a_edge22_Node000004_Node000013"><a xlink:title=" ">
<path fill="none" stroke="#9a32cd" stroke-dasharray="5,2" d="M1028.74,-236.77C1027.76,-216.01 1022.69,-184.88 1002.5,-168.51 981.98,-151.88 791.54,-154.91 765.5,-150.51 762.73,-150.04 759.86,-149.45 757.01,-148.8"/>
<polygon fill="#9a32cd" stroke="#9a32cd" points="1025.24,-236.67 1028.9,-246.61 1032.24,-236.56 1025.24,-236.67"/>
</a>
</g>
<text text-anchor="middle" x="1071.88" y="-183.01" font-family="Helvetica,sans-Serif" font-size="10.00" fill="grey"> m_SoundImpactTable</text>
</g>
<!-- Node14 -->
<g id="Node000014" class="node">
<title>Node14</title>
<g id="a_Node000014"><a xlink:href="../../d9/d09/classbool.html" target="_top" xlink:title=" ">
<polygon fill="white" stroke="#666666" points="1165.5,-268.51 1131.5,-268.51 1131.5,-248.51 1165.5,-248.51 1165.5,-268.51"/>
<text text-anchor="middle" x="1148.5" y="-255.01" font-family="Helvetica,sans-Serif" font-size="10.00">bool</text>
</a>
</g>
</g>
<!-- Node14&#45;&gt;Node4 -->
<g id="edge24_Node000004_Node000014" class="edge">
<title>Node14&#45;&gt;Node4</title>
<g id="a_edge24_Node000004_Node000014"><a xlink:title=" ">
<path fill="none" stroke="#9a32cd" stroke-dasharray="5,2" d="M1149.33,-236.71C1148.9,-215.9 1144.62,-184.74 1124.5,-168.51 1093.41,-143.44 804.96,-156.65 765.5,-150.51 762.72,-150.08 759.85,-149.51 757,-148.87"/>
<polygon fill="#9a32cd" stroke="#9a32cd" points="1145.83,-236.54 1149.22,-246.58 1152.83,-236.62 1145.83,-236.54"/>
</a>
</g>
<text text-anchor="middle" x="1186.88" y="-189.01" font-family="Helvetica,sans-Serif" font-size="10.00" fill="grey"> m_ActionsInitialize</text>
<text text-anchor="middle" x="1186.88" y="-177.01" font-family="Helvetica,sans-Serif" font-size="10.00" fill="grey">m_IsMeleeWeapon</text>
</g>
<!-- Node15 -->
<g id="Node000015" class="node">
<title>Node15</title>
<g id="a_Node000015"><a xlink:href="../../d4/d0d/class_script_invoker.html" target="_top" xlink:title="ScriptInvoker Class provide list of callbacks &#160;&#160;usage:">
<polygon fill="white" stroke="#666666" points="823.25,-268.51 751.75,-268.51 751.75,-248.51 823.25,-248.51 823.25,-268.51"/>
<text text-anchor="middle" x="787.5" y="-255.01" font-family="Helvetica,sans-Serif" font-size="10.00">ScriptInvoker</text>
</a>
</g>
</g>
<!-- Node15&#45;&gt;Node4 -->
<g id="edge25_Node000004_Node000015" class="edge">
<title>Node15&#45;&gt;Node4</title>
<g id="a_edge25_Node000004_Node000015"><a xlink:title=" ">
<path fill="none" stroke="#9a32cd" stroke-dasharray="5,2" d="M763.45,-241.41C751.8,-232.14 738.96,-219.39 732.5,-204.51 724.83,-186.85 727.23,-163.7 729.48,-150.95"/>
<polygon fill="#9a32cd" stroke="#9a32cd" points="761.07,-244 771.18,-247.17 765.25,-238.39 761.07,-244"/>
</a>
</g>
<text text-anchor="middle" x="800" y="-189.01" font-family="Helvetica,sans-Serif" font-size="10.00" fill="grey"> m_OnItemAddedToHands</text>
<text text-anchor="middle" x="800" y="-177.01" font-family="Helvetica,sans-Serif" font-size="10.00" fill="grey">m_OnItemRemovedFromHands</text>
</g>
<!-- Node16 -->
<g id="Node000016" class="node">
<title>Node16</title>
<g id="a_Node000016"><a xlink:href="../../d8/d05/class_hand_f_s_m.html" target="_top" xlink:title="Hand finite state machine.">
<polygon fill="white" stroke="#666666" points="834.25,-150.51 774.75,-150.51 774.75,-130.51 834.25,-130.51 834.25,-150.51"/>
<text text-anchor="middle" x="804.5" y="-137.01" font-family="Helvetica,sans-Serif" font-size="10.00">HandFSM</text>
</a>
</g>
</g>
<!-- Node16&#45;&gt;Node1 -->
<g id="edge28_Node000001_Node000016" class="edge">
<title>Node16&#45;&gt;Node1</title>
<g id="a_edge28_Node000001_Node000016"><a xlink:title=" ">
<path fill="none" stroke="#9a32cd" stroke-dasharray="5,2" d="M795.21,-120.07C782.99,-96.83 759.15,-58.79 726.5,-40.51 695.41,-23.1 596.84,-16.85 539.66,-14.65"/>
<polygon fill="#9a32cd" stroke="#9a32cd" points="791.98,-121.42 799.59,-128.78 798.23,-118.28 791.98,-121.42"/>
</a>
</g>
<text text-anchor="middle" x="808.25" y="-73.01" font-family="Helvetica,sans-Serif" font-size="10.00" fill="grey"> m_FSM</text>
</g>
</g>
</svg>
