<?xml version="1.0" encoding="UTF-8" standalone="no"?>
<!DOCTYPE svg PUBLIC "-//W3C//DTD SVG 1.1//EN"
 "http://www.w3.org/Graphics/SVG/1.1/DTD/svg11.dtd">
<!-- Generated by graphviz version 11.0.0 (20240428.1522)
 -->
<!-- Title: Switchable_Base Pages: 1 -->
<svg width="1132pt" height="382pt"
 viewBox="0.00 0.00 1131.62 381.91" xmlns="http://www.w3.org/2000/svg" xmlns:xlink="http://www.w3.org/1999/xlink">
<g id="graph0" class="graph" transform="scale(1 1) rotate(0) translate(4 377.91)">
<title>Switchable_Base</title>
<!-- Node1 -->
<g id="Node000001" class="node">
<title>Node1</title>
<g id="a_Node000001"><a xlink:title=" ">
<polygon fill="#999999" stroke="#666666" points="692.12,-20 601.12,-20 601.12,0 692.12,0 692.12,-20"/>
<text text-anchor="middle" x="646.62" y="-6.5" font-family="Helvetica,sans-Serif" font-size="10.00">Switchable_Base</text>
</a>
</g>
</g>
<!-- Node2 -->
<g id="Node000002" class="node">
<title>Node2</title>
<g id="a_Node000002"><a xlink:href="../../db/d06/class_param3.html" target="_top" xlink:title=" ">
<polygon fill="white" stroke="#666666" points="912.5,-372 862.75,-372 862.75,-352 912.5,-352 912.5,-372"/>
<text text-anchor="middle" x="887.62" y="-358.5" font-family="Helvetica,sans-Serif" font-size="10.00">Param3</text>
</a>
</g>
</g>
<!-- Node2&#45;&gt;Node1 -->
<g id="edge1_Node000001_Node000002" class="edge">
<title>Node2&#45;&gt;Node1</title>
<g id="a_edge1_Node000001_Node000002"><a xlink:title=" ">
<path fill="none" stroke="#9a32cd" stroke-dasharray="5,2" d="M923.64,-349.47C966.62,-333.51 1036.34,-300.13 1065.62,-244 1080.42,-215.63 1083,-198.87 1065.62,-172 983.09,-44.4 783.18,-17.78 692.6,-12.33"/>
<polygon fill="#9a32cd" stroke="#9a32cd" points="922.47,-346.17 914.23,-352.82 924.82,-352.76 922.47,-346.17"/>
</a>
</g>
<text text-anchor="middle" x="1087.62" y="-132.5" font-family="Helvetica,sans-Serif" font-size="10.00" fill="grey"> GLASS_ID</text>
<text text-anchor="middle" x="1087.62" y="-120.5" font-family="Helvetica,sans-Serif" font-size="10.00" fill="grey">REFLECTOR_ID</text>
</g>
<!-- Node4 -->
<g id="Node000004" class="node">
<title>Node4</title>
<g id="a_Node000004"><a xlink:href="../../d2/d01/classarray.html" target="_top" xlink:title=" ">
<polygon fill="white" stroke="#666666" points="691.37,-88 601.87,-88 601.87,-68 691.37,-68 691.37,-88"/>
<text text-anchor="middle" x="646.62" y="-74.5" font-family="Helvetica,sans-Serif" font-size="10.00">array&lt; Param3 &gt;</text>
</a>
</g>
</g>
<!-- Node2&#45;&gt;Node4 -->
<g id="edge6_Node000004_Node000002" class="edge">
<title>Node2&#45;&gt;Node4</title>
<g id="a_edge6_Node000004_Node000002"><a xlink:title=" ">
<path fill="none" stroke="#9a32cd" stroke-dasharray="5,2" d="M900.92,-342.34C925.01,-306.05 969.98,-224.86 931.62,-172 876.37,-95.86 757.07,-80.87 691.7,-78.65"/>
<polygon fill="#9a32cd" stroke="#9a32cd" points="898.12,-340.24 895.35,-350.46 903.89,-344.19 898.12,-340.24"/>
</a>
</g>
<text text-anchor="middle" x="1003.75" y="-234.5" font-family="Helvetica,sans-Serif" font-size="10.00" fill="grey"> NO_SORTING</text>
<text text-anchor="middle" x="1003.75" y="-222.5" font-family="Helvetica,sans-Serif" font-size="10.00" fill="grey">geomLevel</text>
<text text-anchor="middle" x="1003.75" y="-210.5" font-family="Helvetica,sans-Serif" font-size="10.00" fill="grey">hierLevel</text>
<text text-anchor="start" x="945.62" y="-198.5" font-family="Helvetica,sans-Serif" font-size="10.00" fill="grey">m_CurrentSettingAlternate</text>
<text text-anchor="middle" x="1003.75" y="-186.5" font-family="Helvetica,sans-Serif" font-size="10.00" fill="grey">KeyIndex</text>
<text text-anchor="middle" x="1003.75" y="-174.5" font-family="Helvetica,sans-Serif" font-size="10.00" fill="grey">m_CurrentSettingKeyIndex</text>
</g>
<!-- Node6 -->
<g id="Node000006" class="node">
<title>Node6</title>
<g id="a_Node000006"><a xlink:href="../../d2/d01/classarray.html" target="_top" xlink:title="Result for an object found in CGame.IsBoxCollidingGeometryProxy.">
<polygon fill="white" stroke="#666666" points="506.5,-218 468.75,-218 468.75,-198 506.5,-198 506.5,-218"/>
<text text-anchor="middle" x="487.62" y="-204.5" font-family="Helvetica,sans-Serif" font-size="10.00">array</text>
</a>
</g>
</g>
<!-- Node2&#45;&gt;Node6 -->
<g id="edge9_Node000006_Node000002" class="edge">
<title>Node2&#45;&gt;Node6</title>
<g id="a_edge9_Node000006_Node000002"><a xlink:title=" ">
<path fill="none" stroke="#9a32cd" stroke-dasharray="5,2" d="M851.05,-358.61C800.21,-354.89 711.09,-346.77 681.37,-334 634.71,-313.95 635.26,-289.6 592.62,-262 564.17,-243.58 528.46,-226.76 506.88,-217.22"/>
<polygon fill="#9a32cd" stroke="#9a32cd" points="850.75,-362.1 860.97,-359.32 851.25,-355.12 850.75,-362.1"/>
</a>
</g>
<text text-anchor="middle" x="738.75" y="-324.5" font-family="Helvetica,sans-Serif" font-size="10.00" fill="grey"> NO_SORTING</text>
<text text-anchor="middle" x="738.75" y="-312.5" font-family="Helvetica,sans-Serif" font-size="10.00" fill="grey">geomLevel</text>
<text text-anchor="middle" x="738.75" y="-300.5" font-family="Helvetica,sans-Serif" font-size="10.00" fill="grey">hierLevel</text>
<text text-anchor="start" x="680.62" y="-288.5" font-family="Helvetica,sans-Serif" font-size="10.00" fill="grey">m_CurrentSettingAlternate</text>
<text text-anchor="middle" x="738.75" y="-276.5" font-family="Helvetica,sans-Serif" font-size="10.00" fill="grey">KeyIndex</text>
<text text-anchor="middle" x="738.75" y="-264.5" font-family="Helvetica,sans-Serif" font-size="10.00" fill="grey">m_CurrentSettingKeyIndex</text>
</g>
<!-- Node9 -->
<g id="Node000009" class="node">
<title>Node9</title>
<g id="a_Node000009"><a xlink:href="../../d2/d01/classarray.html" target="_top" xlink:title=" ">
<polygon fill="white" stroke="#666666" points="343.87,-88 257.37,-88 257.37,-68 343.87,-68 343.87,-88"/>
<text text-anchor="middle" x="300.62" y="-74.5" font-family="Helvetica,sans-Serif" font-size="10.00">array&lt; Widget &gt;</text>
</a>
</g>
</g>
<!-- Node2&#45;&gt;Node9 -->
<g id="edge16_Node000009_Node000002" class="edge">
<title>Node2&#45;&gt;Node9</title>
<g id="a_edge16_Node000009_Node000002"><a xlink:title=" ">
<path fill="none" stroke="#9a32cd" stroke-dasharray="5,2" d="M873.21,-342.56C856.38,-320.29 828.67,-281.17 811.37,-244 797.27,-213.69 811.16,-197.56 789.62,-172 747.35,-121.84 720.84,-123.47 657.62,-106 599.81,-90.03 426.26,-82.79 344.34,-80.2"/>
<polygon fill="#9a32cd" stroke="#9a32cd" points="870.31,-344.53 879.17,-350.34 875.86,-340.27 870.31,-344.53"/>
</a>
</g>
<text text-anchor="middle" x="868.75" y="-234.5" font-family="Helvetica,sans-Serif" font-size="10.00" fill="grey"> NO_SORTING</text>
<text text-anchor="middle" x="868.75" y="-222.5" font-family="Helvetica,sans-Serif" font-size="10.00" fill="grey">geomLevel</text>
<text text-anchor="middle" x="868.75" y="-210.5" font-family="Helvetica,sans-Serif" font-size="10.00" fill="grey">hierLevel</text>
<text text-anchor="start" x="810.62" y="-198.5" font-family="Helvetica,sans-Serif" font-size="10.00" fill="grey">m_CurrentSettingAlternate</text>
<text text-anchor="middle" x="868.75" y="-186.5" font-family="Helvetica,sans-Serif" font-size="10.00" fill="grey">KeyIndex</text>
<text text-anchor="middle" x="868.75" y="-174.5" font-family="Helvetica,sans-Serif" font-size="10.00" fill="grey">m_CurrentSettingKeyIndex</text>
</g>
<!-- Node3 -->
<g id="Node000003" class="node">
<title>Node3</title>
<g id="a_Node000003"><a xlink:href="../../d5/d02/classstring.html" target="_top" xlink:title=" ">
<polygon fill="white" stroke="#666666" points="188.62,-372 148.62,-372 148.62,-352 188.62,-352 188.62,-372"/>
<text text-anchor="middle" x="168.62" y="-358.5" font-family="Helvetica,sans-Serif" font-size="10.00">string</text>
</a>
</g>
</g>
<!-- Node3&#45;&gt;Node1 -->
<g id="edge2_Node000001_Node000003" class="edge">
<title>Node3&#45;&gt;Node1</title>
<g id="a_edge2_Node000001_Node000003"><a xlink:title=" ">
<path fill="none" stroke="#9a32cd" stroke-dasharray="5,2" d="M141.81,-345.4C137.11,-341.99 132.49,-338.15 128.62,-334 52.74,-252.54 -46.96,-191.06 24.87,-106 98.85,-18.4 469.84,-10.59 600.78,-10.61"/>
<polygon fill="#9a32cd" stroke="#9a32cd" points="139.83,-348.29 150.1,-350.91 143.71,-342.46 139.83,-348.29"/>
</a>
</g>
<text text-anchor="middle" x="83" y="-144.5" font-family="Helvetica,sans-Serif" font-size="10.00" fill="grey"> LIGHT_OFF_GLASS</text>
<text text-anchor="middle" x="83" y="-132.5" font-family="Helvetica,sans-Serif" font-size="10.00" fill="grey">LIGHT_OFF_REFLECTOR</text>
<text text-anchor="middle" x="83" y="-120.5" font-family="Helvetica,sans-Serif" font-size="10.00" fill="grey">LIGHT_ON_GLASS</text>
<text text-anchor="middle" x="83" y="-108.5" font-family="Helvetica,sans-Serif" font-size="10.00" fill="grey">LIGHT_ON_REFLECTOR</text>
</g>
<!-- Node3&#45;&gt;Node3 -->
<g id="edge3_Node000003_Node000003" class="edge">
<title>Node3&#45;&gt;Node3</title>
<g id="a_edge3_Node000003_Node000003"><a xlink:title=" ">
<path fill="none" stroke="#9a32cd" stroke-dasharray="5,2" d="M194.39,-373.91C201.34,-373.28 206.62,-369.31 206.62,-362 206.62,-351.12 194.92,-347.64 183.44,-351.55"/>
<polygon fill="#9a32cd" stroke="#9a32cd" points="195.32,-370.5 184.94,-372.65 194.39,-377.44 195.32,-370.5"/>
</a>
</g>
<text text-anchor="middle" x="222.37" y="-358.5" font-family="Helvetica,sans-Serif" font-size="10.00" fill="grey"> Empty</text>
</g>
<!-- Node3&#45;&gt;Node4 -->
<g id="edge23_Node000004_Node000003" class="edge">
<title>Node3&#45;&gt;Node4</title>
<g id="a_edge23_Node000004_Node000003"><a xlink:title=" ">
<path fill="none" stroke="#9a32cd" stroke-dasharray="5,2" d="M174.67,-340.96C181.85,-319.63 195.45,-285.75 215.62,-262 224.72,-251.29 233.35,-255.36 241.62,-244 261.3,-216.98 237.65,-193.35 263.37,-172 320.57,-124.54 367.26,-194.44 429.62,-154 450.34,-140.56 437.13,-119.79 457.62,-106 480.45,-90.64 553.14,-83.85 601.43,-80.97"/>
<polygon fill="#9a32cd" stroke="#9a32cd" points="171.43,-339.6 171.72,-350.19 178.1,-341.73 171.43,-339.6"/>
</a>
</g>
<text text-anchor="middle" x="280.25" y="-204.5" font-family="Helvetica,sans-Serif" font-size="10.00" fill="grey"> m_Test</text>
</g>
<!-- Node3&#45;&gt;Node6 -->
<g id="edge12_Node000006_Node000003" class="edge">
<title>Node3&#45;&gt;Node6</title>
<g id="a_edge12_Node000006_Node000003"><a xlink:title=" ">
<path fill="none" stroke="#9a32cd" stroke-dasharray="5,2" d="M194.02,-345.72C200.15,-341.95 206.65,-337.88 212.62,-334 259.99,-303.22 264.63,-282.23 317.37,-262 374.81,-239.97 399.84,-272.01 454.62,-244 466.07,-238.15 475.69,-226.67 481.53,-218.45"/>
<polygon fill="#9a32cd" stroke="#9a32cd" points="192.23,-342.72 185.51,-350.91 195.87,-348.69 192.23,-342.72"/>
</a>
</g>
<text text-anchor="middle" x="334.25" y="-294.5" font-family="Helvetica,sans-Serif" font-size="10.00" fill="grey"> m_Test</text>
</g>
<!-- Node3&#45;&gt;Node9 -->
<g id="edge19_Node000009_Node000003" class="edge">
<title>Node3&#45;&gt;Node9</title>
<g id="a_edge19_Node000009_Node000003"><a xlink:title=" ">
<path fill="none" stroke="#9a32cd" stroke-dasharray="5,2" d="M158.73,-341.35C142.47,-306.27 114.05,-231.02 136.37,-172 150.21,-135.41 161.24,-126.4 194.62,-106 213.42,-94.51 236.94,-87.89 257.06,-84.09"/>
<polygon fill="#9a32cd" stroke="#9a32cd" points="155.53,-342.77 163.02,-350.26 161.83,-339.73 155.53,-342.77"/>
</a>
</g>
<text text-anchor="middle" x="153.25" y="-204.5" font-family="Helvetica,sans-Serif" font-size="10.00" fill="grey"> m_Test</text>
</g>
<!-- Node4&#45;&gt;Node1 -->
<g id="edge4_Node000001_Node000004" class="edge">
<title>Node4&#45;&gt;Node1</title>
<g id="a_edge4_Node000001_Node000004"><a xlink:title=" ">
<path fill="none" stroke="#9a32cd" stroke-dasharray="5,2" d="M646.62,-56.28C646.62,-44.27 646.62,-29.74 646.62,-20.44"/>
<polygon fill="#9a32cd" stroke="#9a32cd" points="643.12,-56.03 646.62,-66.03 650.12,-56.03 643.12,-56.03"/>
</a>
</g>
<text text-anchor="middle" x="705.12" y="-40.5" font-family="Helvetica,sans-Serif" font-size="10.00" fill="grey"> m_AttachmentSlotsCheck</text>
</g>
<!-- Node5 -->
<g id="Node000005" class="node">
<title>Node5</title>
<g id="a_Node000005"><a xlink:href="../../d8/d03/class_object.html" target="_top" xlink:title=" ">
<polygon fill="white" stroke="#666666" points="497.87,-372 453.37,-372 453.37,-352 497.87,-352 497.87,-372"/>
<text text-anchor="middle" x="475.62" y="-358.5" font-family="Helvetica,sans-Serif" font-size="10.00">Object</text>
</a>
</g>
</g>
<!-- Node5&#45;&gt;Node4 -->
<g id="edge5_Node000004_Node000005" class="edge">
<title>Node5&#45;&gt;Node4</title>
<g id="a_edge5_Node000004_Node000005"><a xlink:title=" ">
<path fill="none" stroke="#9a32cd" stroke-dasharray="5,2" d="M509.45,-357.75C527.49,-354.41 548.93,-347.65 563.62,-334 588.77,-310.63 566.89,-285.82 591.62,-262 609.24,-245.04 627.94,-262.77 643.62,-244 683.14,-196.69 669.47,-166.5 657.62,-106 656.42,-99.84 653.8,-93.31 651.42,-88.22"/>
<polygon fill="#9a32cd" stroke="#9a32cd" points="509.04,-354.27 499.69,-359.26 510.11,-361.19 509.04,-354.27"/>
</a>
</g>
<text text-anchor="middle" x="683.12" y="-210.5" font-family="Helvetica,sans-Serif" font-size="10.00" fill="grey"> obj</text>
<text text-anchor="middle" x="683.12" y="-198.5" font-family="Helvetica,sans-Serif" font-size="10.00" fill="grey">parent</text>
</g>
<!-- Node5&#45;&gt;Node6 -->
<g id="edge8_Node000006_Node000005" class="edge">
<title>Node5&#45;&gt;Node6</title>
<g id="a_edge8_Node000006_Node000005"><a xlink:title=" ">
<path fill="none" stroke="#9a32cd" stroke-dasharray="5,2" d="M474.66,-340.26C474.01,-320.19 473.72,-288.92 476.62,-262 478.29,-246.49 482.42,-228.81 485.12,-218.29"/>
<polygon fill="#9a32cd" stroke="#9a32cd" points="471.16,-340.32 475.06,-350.17 478.16,-340.04 471.16,-340.32"/>
</a>
</g>
<text text-anchor="middle" x="490.12" y="-300.5" font-family="Helvetica,sans-Serif" font-size="10.00" fill="grey"> obj</text>
<text text-anchor="middle" x="490.12" y="-288.5" font-family="Helvetica,sans-Serif" font-size="10.00" fill="grey">parent</text>
</g>
<!-- Node5&#45;&gt;Node9 -->
<g id="edge15_Node000009_Node000005" class="edge">
<title>Node5&#45;&gt;Node9</title>
<g id="a_edge15_Node000009_Node000005"><a xlink:title=" ">
<path fill="none" stroke="#9a32cd" stroke-dasharray="5,2" d="M468.43,-340.77C458.86,-314.96 441.64,-272.41 428.62,-262 400.16,-239.24 378.46,-264.93 348.62,-244 317.54,-222.19 323.38,-203.8 302.62,-172 297.37,-163.95 293.41,-163.2 290.62,-154 284.44,-133.58 286.86,-127 290.62,-106 291.72,-99.9 294.1,-93.37 296.26,-88.27"/>
<polygon fill="#9a32cd" stroke="#9a32cd" points="465.13,-341.95 471.84,-350.15 471.71,-339.56 465.13,-341.95"/>
</a>
</g>
<text text-anchor="middle" x="362.12" y="-210.5" font-family="Helvetica,sans-Serif" font-size="10.00" fill="grey"> obj</text>
<text text-anchor="middle" x="362.12" y="-198.5" font-family="Helvetica,sans-Serif" font-size="10.00" fill="grey">parent</text>
</g>
<!-- Node6&#45;&gt;Node4 -->
<g id="edge7_Node000004_Node000006" class="edge">
<title>Node6&#45;&gt;Node4</title>
<g id="a_edge7_Node000004_Node000006"><a xlink:title=" ">
<path fill="none" stroke="#9a32cd" stroke-dasharray="5,2" d="M507.88,-190.69C541.56,-163.58 608.02,-110.08 634.91,-88.43"/>
<polygon fill="#9a32cd" stroke="#9a32cd" points="506.09,-187.64 500.49,-196.64 510.48,-193.09 506.09,-187.64"/>
</a>
</g>
<text text-anchor="middle" x="632.62" y="-126.5" font-family="Helvetica,sans-Serif" font-size="10.00" fill="grey"> proxyInfo</text>
</g>
<!-- Node6&#45;&gt;Node6 -->
<g id="edge10_Node000006_Node000006" class="edge">
<title>Node6&#45;&gt;Node6</title>
<g id="a_edge10_Node000006_Node000006"><a xlink:title=" ">
<path fill="none" stroke="#9a32cd" stroke-dasharray="5,2" d="M508.59,-222.51C517.21,-223.45 524.5,-218.61 524.5,-208 524.5,-193.07 510.09,-189.57 497.82,-197.5"/>
<polygon fill="#9a32cd" stroke="#9a32cd" points="509.83,-219.23 499.23,-219.03 507.38,-225.79 509.83,-219.23"/>
</a>
</g>
<text text-anchor="middle" x="545.5" y="-204.5" font-family="Helvetica,sans-Serif" font-size="10.00" fill="grey"> proxyInfo</text>
</g>
<!-- Node6&#45;&gt;Node9 -->
<g id="edge17_Node000009_Node000006" class="edge">
<title>Node6&#45;&gt;Node9</title>
<g id="a_edge17_Node000009_Node000006"><a xlink:title=" ">
<path fill="none" stroke="#9a32cd" stroke-dasharray="5,2" d="M474.65,-188.68C469.2,-182.37 462.33,-175.9 454.62,-172 425.25,-157.14 330.56,-177.6 307.62,-154 290.49,-136.37 294.74,-104.18 298.21,-88.33"/>
<polygon fill="#9a32cd" stroke="#9a32cd" points="471.7,-190.6 480.61,-196.33 477.22,-186.29 471.7,-190.6"/>
</a>
</g>
<text text-anchor="middle" x="328.62" y="-126.5" font-family="Helvetica,sans-Serif" font-size="10.00" fill="grey"> proxyInfo</text>
</g>
<!-- Node7 -->
<g id="Node000007" class="node">
<title>Node7</title>
<g id="a_Node000007"><a xlink:href="../../d4/d04/class_class.html" target="_top" xlink:title="Super root of all classes in Enforce script.">
<polygon fill="white" stroke="#666666" points="362,-372 321.25,-372 321.25,-352 362,-352 362,-372"/>
<text text-anchor="middle" x="341.62" y="-358.5" font-family="Helvetica,sans-Serif" font-size="10.00">Class</text>
</a>
</g>
</g>
<!-- Node7&#45;&gt;Node4 -->
<g id="edge22_Node000004_Node000007" class="edge">
<title>Node7&#45;&gt;Node4</title>
<g id="a_edge22_Node000004_Node000007"><a xlink:title=" ">
<path fill="none" stroke="#9a32cd" stroke-dasharray="5,2" d="M340.55,-340.28C340.35,-319.33 342.52,-286.62 355.62,-262 361.24,-251.44 368.67,-253.73 375.62,-244 395.86,-215.7 381.2,-196.03 406.37,-172 422.93,-156.2 433.6,-163.04 454.62,-154 499.17,-134.83 507.36,-123.43 552.62,-106 570.53,-99.11 590.94,-93.04 608.16,-88.41"/>
<polygon fill="#9a32cd" stroke="#9a32cd" points="337.04,-340.22 340.86,-350.11 344.04,-340.01 337.04,-340.22"/>
</a>
</g>
<text text-anchor="middle" x="432.25" y="-204.5" font-family="Helvetica,sans-Serif" font-size="10.00" fill="grey"> m_Instance</text>
</g>
<!-- Node7&#45;&gt;Node6 -->
<g id="edge11_Node000006_Node000007" class="edge">
<title>Node7&#45;&gt;Node6</title>
<g id="a_edge11_Node000006_Node000007"><a xlink:title=" ">
<path fill="none" stroke="#9a32cd" stroke-dasharray="5,2" d="M352.17,-341.9C364.96,-320.18 388.34,-284.76 416.37,-262 430.96,-250.16 439.41,-255.03 454.62,-244 464.76,-236.65 474.35,-225.89 480.55,-218.25"/>
<polygon fill="#9a32cd" stroke="#9a32cd" points="349.29,-339.89 347.37,-350.3 355.37,-343.36 349.29,-339.89"/>
</a>
</g>
<text text-anchor="middle" x="442.25" y="-294.5" font-family="Helvetica,sans-Serif" font-size="10.00" fill="grey"> m_Instance</text>
</g>
<!-- Node7&#45;&gt;Node9 -->
<g id="edge18_Node000009_Node000007" class="edge">
<title>Node7&#45;&gt;Node9</title>
<g id="a_edge18_Node000009_Node000007"><a xlink:title=" ">
<path fill="none" stroke="#9a32cd" stroke-dasharray="5,2" d="M330.14,-341.75C314.41,-315.98 286.31,-272.33 270.62,-262 239.36,-241.43 211.83,-273.15 188.37,-244 168.31,-219.07 176.21,-201.6 188.37,-172 205.3,-130.8 252.01,-102.29 279.55,-88.5"/>
<polygon fill="#9a32cd" stroke="#9a32cd" points="327.11,-343.5 335.28,-350.25 333.1,-339.88 327.11,-343.5"/>
</a>
</g>
<text text-anchor="middle" x="214.25" y="-204.5" font-family="Helvetica,sans-Serif" font-size="10.00" fill="grey"> m_Instance</text>
</g>
<!-- Node8 -->
<g id="Node000008" class="node">
<title>Node8</title>
<g id="a_Node000008"><a xlink:href="../../dd/d0a/class_widget.html" target="_top" xlink:title=" ">
<polygon fill="white" stroke="#666666" points="626,-372 579.25,-372 579.25,-352 626,-352 626,-372"/>
<text text-anchor="middle" x="602.62" y="-358.5" font-family="Helvetica,sans-Serif" font-size="10.00">Widget</text>
</a>
</g>
</g>
<!-- Node8&#45;&gt;Node4 -->
<g id="edge24_Node000004_Node000008" class="edge">
<title>Node8&#45;&gt;Node4</title>
<g id="a_edge24_Node000004_Node000008"><a xlink:title=" ">
<path fill="none" stroke="#9a32cd" stroke-dasharray="5,2" d="M637.58,-359.72C677.23,-357.45 738.25,-351.19 752.62,-334 773.15,-309.45 758.73,-293.41 752.62,-262 738.36,-188.6 737.62,-163.34 689.62,-106 683.51,-98.7 674.9,-92.75 666.99,-88.32"/>
<polygon fill="#9a32cd" stroke="#9a32cd" points="637.61,-356.22 627.8,-360.22 637.96,-363.21 637.61,-356.22"/>
</a>
</g>
<text text-anchor="middle" x="767" y="-204.5" font-family="Helvetica,sans-Serif" font-size="10.00" fill="grey"> m_Root</text>
</g>
<!-- Node8&#45;&gt;Node6 -->
<g id="edge13_Node000006_Node000008" class="edge">
<title>Node8&#45;&gt;Node6</title>
<g id="a_edge13_Node000006_Node000008"><a xlink:title=" ">
<path fill="none" stroke="#9a32cd" stroke-dasharray="5,2" d="M569.18,-346.96C562.94,-343.35 556.84,-339.04 551.87,-334 517.1,-298.73 497.07,-240.8 490.27,-218.32"/>
<polygon fill="#9a32cd" stroke="#9a32cd" points="567.11,-349.83 577.59,-351.36 570.35,-343.63 567.11,-349.83"/>
</a>
</g>
<text text-anchor="middle" x="570" y="-294.5" font-family="Helvetica,sans-Serif" font-size="10.00" fill="grey"> m_Root</text>
</g>
<!-- Node8&#45;&gt;Node9 -->
<g id="edge20_Node000009_Node000008" class="edge">
<title>Node8&#45;&gt;Node9</title>
<g id="a_edge20_Node000009_Node000008"><a xlink:title=" ">
<path fill="none" stroke="#9a32cd" stroke-dasharray="5,2" d="M604.4,-340.49C606.58,-304.02 606.76,-226.6 575.62,-172 552.45,-131.36 536.56,-124.58 493.62,-106 445.34,-85.11 384.5,-79.63 344.18,-78.56"/>
<polygon fill="#9a32cd" stroke="#9a32cd" points="600.93,-339.84 603.7,-350.07 607.92,-340.35 600.93,-339.84"/>
</a>
</g>
<text text-anchor="middle" x="617" y="-204.5" font-family="Helvetica,sans-Serif" font-size="10.00" fill="grey"> m_Root</text>
</g>
<!-- Node9&#45;&gt;Node6 -->
<g id="edge14_Node000006_Node000009" class="edge">
<title>Node9&#45;&gt;Node6</title>
<g id="a_edge14_Node000006_Node000009"><a xlink:title=" ">
<path fill="none" stroke="#9a32cd" stroke-dasharray="5,2" d="M330.04,-93.67C362.22,-110.4 414.55,-139.66 454.62,-172 464.24,-179.76 473.77,-190.25 480.09,-197.71"/>
<polygon fill="#9a32cd" stroke="#9a32cd" points="331.79,-90.63 321.3,-89.18 328.59,-96.86 331.79,-90.63"/>
</a>
</g>
<text text-anchor="middle" x="458.12" y="-126.5" font-family="Helvetica,sans-Serif" font-size="10.00" fill="grey"> m_Subgroups</text>
</g>
<!-- Node9&#45;&gt;Node9 -->
<g id="edge21_Node000009_Node000009" class="edge">
<title>Node9&#45;&gt;Node9</title>
<g id="a_edge21_Node000009_Node000009"><a xlink:title=" ">
<path fill="none" stroke="#9a32cd" stroke-dasharray="5,2" d="M355.25,-82.76C359.35,-81.7 361.87,-80.11 361.87,-78 361.87,-74.35 354.33,-72.26 344.11,-71.75"/>
<polygon fill="#9a32cd" stroke="#9a32cd" points="355.06,-79.26 345.61,-84.05 355.99,-86.19 355.06,-79.26"/>
</a>
</g>
<text text-anchor="middle" x="393.37" y="-74.5" font-family="Helvetica,sans-Serif" font-size="10.00" fill="grey"> m_Subgroups</text>
</g>
</g>
</svg>
