<?xml version="1.0" encoding="UTF-8" standalone="no"?>
<!DOCTYPE svg PUBLIC "-//W3C//DTD SVG 1.1//EN"
 "http://www.w3.org/Graphics/SVG/1.1/DTD/svg11.dtd">
<!-- Generated by graphviz version 11.0.0 (20240428.1522)
 -->
<!-- Title: DuffelBagSmall_ColorBase Pages: 1 -->
<svg width="382pt" height="196pt"
 viewBox="0.00 0.00 381.75 196.00" xmlns="http://www.w3.org/2000/svg" xmlns:xlink="http://www.w3.org/1999/xlink">

<svg id="main" version="1.1" xmlns="http://www.w3.org/2000/svg" xmlns:xlink="http://www.w3.org/1999/xlink" xml:space="preserve" onload="init(evt)">
<style type="text/css"><![CDATA[
.node, .edge {opacity: 0.7;}
.node.selected, .edge.selected {opacity: 1;}
.edge:hover path { stroke: red; }
.edge:hover polygon { stroke: red; fill: red; }
]]></style>
<script type="application/ecmascript" xlink:href="../../svg.min.js"/>
<svg id="graph" class="graph">
<g id="graph0" class="graph" transform="scale(1 1) rotate(0) translate(4 192)">
<title>DuffelBagSmall_ColorBase</title>
<!-- Node1 -->
<g id="Node000001" class="node">
<title>Node1</title>
<g id="a_Node000001"><a xlink:title=" ">
<polygon fill="#999999" stroke="#666666" points="252.12,-76 119.88,-76 119.88,-56 252.12,-56 252.12,-76"/>
<text text-anchor="middle" x="186" y="-62.5" font-family="Helvetica,sans-Serif" font-size="10.00">DuffelBagSmall_ColorBase</text>
</a>
</g>
</g>
<!-- Node4 -->
<g id="Node000004" class="node">
<title>Node4</title>
<g id="a_Node000004"><a xlink:href="../../d5/d08/class_duffel_bag_small___black.html" target="_top" xlink:title=" ">
<polygon fill="white" stroke="#666666" points="112,-20 0,-20 0,0 112,0 112,-20"/>
<text text-anchor="middle" x="56" y="-6.5" font-family="Helvetica,sans-Serif" font-size="10.00">DuffelBagSmall_Black</text>
</a>
</g>
</g>
<!-- Node1&#45;&gt;Node4 -->
<g id="edge3_Node000001_Node000004" class="edge">
<title>Node1&#45;&gt;Node4</title>
<g id="a_edge3_Node000001_Node000004"><a xlink:title=" ">
<path fill="none" stroke="#8b1a1a" d="M152.95,-51.27C129.76,-41.64 99.35,-29.01 78.82,-20.48"/>
<polygon fill="#8b1a1a" stroke="#8b1a1a" points="151.38,-54.41 161.96,-55.01 154.07,-47.94 151.38,-54.41"/>
</a>
</g>
</g>
<!-- Node5 -->
<g id="Node000005" class="node">
<title>Node5</title>
<g id="a_Node000005"><a xlink:href="../../d8/d0b/class_duffel_bag_small___camo.html" target="_top" xlink:title=" ">
<polygon fill="white" stroke="#666666" points="242.38,-20 129.62,-20 129.62,0 242.38,0 242.38,-20"/>
<text text-anchor="middle" x="186" y="-6.5" font-family="Helvetica,sans-Serif" font-size="10.00">DuffelBagSmall_Camo</text>
</a>
</g>
</g>
<!-- Node1&#45;&gt;Node5 -->
<g id="edge4_Node000001_Node000005" class="edge">
<title>Node1&#45;&gt;Node5</title>
<g id="a_edge4_Node000001_Node000005"><a xlink:title=" ">
<path fill="none" stroke="#8b1a1a" d="M186,-44.13C186,-35.9 186,-26.85 186,-20.3"/>
<polygon fill="#8b1a1a" stroke="#8b1a1a" points="182.5,-44.08 186,-54.08 189.5,-44.08 182.5,-44.08"/>
</a>
</g>
</g>
<!-- Node6 -->
<g id="Node000006" class="node">
<title>Node6</title>
<g id="a_Node000006"><a xlink:href="../../dc/d05/class_duffel_bag_small___green.html" target="_top" xlink:title=" ">
<polygon fill="white" stroke="#666666" points="373.75,-20 260.25,-20 260.25,0 373.75,0 373.75,-20"/>
<text text-anchor="middle" x="317" y="-6.5" font-family="Helvetica,sans-Serif" font-size="10.00">DuffelBagSmall_Green</text>
</a>
</g>
</g>
<!-- Node1&#45;&gt;Node6 -->
<g id="edge5_Node000001_Node000006" class="edge">
<title>Node1&#45;&gt;Node6</title>
<g id="a_edge5_Node000001_Node000006"><a xlink:title=" ">
<path fill="none" stroke="#8b1a1a" d="M219.3,-51.27C242.67,-41.64 273.32,-29.01 294,-20.48"/>
<polygon fill="#8b1a1a" stroke="#8b1a1a" points="218.13,-47.97 210.22,-55.02 220.8,-54.44 218.13,-47.97"/>
</a>
</g>
</g>
<!-- Node2 -->
<g id="Node000002" class="node">
<title>Node2</title>
<g id="a_Node000002"><a xlink:href="../../db/d01/class_backpack___base.html" target="_top" xlink:title=" ">
<polygon fill="white" stroke="#666666" points="229.62,-132 142.38,-132 142.38,-112 229.62,-112 229.62,-132"/>
<text text-anchor="middle" x="186" y="-118.5" font-family="Helvetica,sans-Serif" font-size="10.00">Backpack_Base</text>
</a>
</g>
</g>
<!-- Node2&#45;&gt;Node1 -->
<g id="edge1_Node000001_Node000002" class="edge">
<title>Node2&#45;&gt;Node1</title>
<g id="a_edge1_Node000001_Node000002"><a xlink:title=" ">
<path fill="none" stroke="#8b1a1a" d="M186,-100.13C186,-91.9 186,-82.85 186,-76.3"/>
<polygon fill="#8b1a1a" stroke="#8b1a1a" points="182.5,-100.08 186,-110.08 189.5,-100.08 182.5,-100.08"/>
</a>
</g>
</g>
<!-- Node3 -->
<g id="Node000003" class="node">
<title>Node3</title>
<g id="a_Node000003"><a xlink:href="../../d8/d04/class_clothing.html" target="_top" xlink:title=" ">
<polygon fill="white" stroke="#666666" points="211.62,-188 160.38,-188 160.38,-168 211.62,-168 211.62,-188"/>
<text text-anchor="middle" x="186" y="-174.5" font-family="Helvetica,sans-Serif" font-size="10.00">Clothing</text>
</a>
</g>
</g>
<!-- Node3&#45;&gt;Node2 -->
<g id="edge2_Node000002_Node000003" class="edge">
<title>Node3&#45;&gt;Node2</title>
<g id="a_edge2_Node000002_Node000003"><a xlink:title=" ">
<path fill="none" stroke="#8b1a1a" d="M186,-156.13C186,-147.9 186,-138.85 186,-132.3"/>
<polygon fill="#8b1a1a" stroke="#8b1a1a" points="182.5,-156.08 186,-166.08 189.5,-156.08 182.5,-156.08"/>
</a>
</g>
</g>
</g>
</svg>
</svg>

<style type='text/css'>
<![CDATA[
[data-mouse-over-selected='false'] { opacity: 0.7; }
[data-mouse-over-selected='true']  { opacity: 1.0; }
]]>
</style>
<script type="application/ecmascript"><![CDATA[
document.addEventListener('DOMContentLoaded', (event) => {
  highlightEdges();
  highlightAdjacentNodes();
});
]]></script>
</svg>
