<?xml version="1.0" encoding="UTF-8" standalone="no"?>
<!DOCTYPE svg PUBLIC "-//W3C//DTD SVG 1.1//EN"
 "http://www.w3.org/Graphics/SVG/1.1/DTD/svg11.dtd">
<!-- Generated by graphviz version 11.0.0 (20240428.1522)
 -->
<!-- Title: TurnItemIntoItemLambda Pages: 1 -->
<!--zoomable 458 -->

<svg id="main" version="1.1" xmlns="http://www.w3.org/2000/svg" xmlns:xlink="http://www.w3.org/1999/xlink" xml:space="preserve" onload="init(evt)">
<style type="text/css"><![CDATA[
.node, .edge {opacity: 0.7;}
.node.selected, .edge.selected {opacity: 1;}
.edge:hover path { stroke: red; }
.edge:hover polygon { stroke: red; fill: red; }
]]></style>

<defs>
  <circle id="rim" cx="0" cy="0" r="7"/>
  <circle id="rim2" cx="0" cy="0" r="3.5"/>
  <g id="zoomPlus">
    <use xlink:href="#rim" fill="#404040"><set attributeName="fill" to="#808080" begin="zoomplus.mouseover" end="zoomplus.mouseout"/></use>
    <path d="M-4,0h8M0,-4v8" fill="none" stroke="white" stroke-width="1.5" pointer-events="none"/>
  </g>
  <g id="zoomMin">
    <use xlink:href="#rim" fill="#404040"><set attributeName="fill" to="#808080" begin="zoomminus.mouseover" end="zoomminus.mouseout"/></use>
    <path d="M-4,0h8" fill="none" stroke="white" stroke-width="1.5" pointer-events="none"/>
  </g>
  <g id="arrowUp" transform="translate(30 24)">
    <use xlink:href="#rim"/>
    <path pointer-events="none" fill="none" stroke="white" stroke-width="1.5" d="M0,-3.0v7 M-2.5,-0.5L0,-3.0L2.5,-0.5"/>
  </g>
  <g id="arrowRight" transform="rotate(90) translate(36 -43)">
    <use xlink:href="#rim"/>
    <path pointer-events="none" fill="none" stroke="white" stroke-width="1.5" d="M0,-3.0v7 M-2.5,-0.5L0,-3.0L2.5,-0.5"/>
  </g>
  <g id="arrowDown" transform="rotate(180) translate(-30 -48)">
    <use xlink:href="#rim"/>
    <path pointer-events="none" fill="none" stroke="white" stroke-width="1.5" d="M0,-3.0v7 M-2.5,-0.5L0,-3.0L2.5,-0.5"/>
  </g>
  <g id="arrowLeft" transform="rotate(270) translate(-36 17)">
    <use xlink:href="#rim"/>
    <path pointer-events="none" fill="none" stroke="white" stroke-width="1.5" d="M0,-3.0v7 M-2.5,-0.5L0,-3.0L2.5,-0.5"/>
  </g>
  <g id="resetDef">
    <use xlink:href="#rim2" fill="#404040"><set attributeName="fill" to="#808080" begin="reset.mouseover" end="reset.mouseout"/></use>
  </g>
</defs>
<script type="application/ecmascript">
var viewWidth = 328;
var viewHeight = 458;
var sectionId = 'dynsection-0';
</script>
<script type="application/ecmascript" xlink:href="../../svg.min.js"/>
<svg id="graph" class="graph">
<g id="viewport">
<title>TurnItemIntoItemLambda</title>
<!-- Node1 -->
<g id="Node000001" class="node">
<title>Node1</title>
<g id="a_Node000001"><a xlink:title=" ">
<polygon fill="#999999" stroke="#666666" points="122.5,-238 0,-238 0,-218 122.5,-218 122.5,-238"/>
<text text-anchor="middle" x="61.25" y="-224.5" font-family="Helvetica,sans-Serif" font-size="10.00">TurnItemIntoItemLambda</text>
</a>
</g>
</g>
<!-- Node2 -->
<g id="Node000002" class="node">
<title>Node2</title>
<g id="a_Node000002"><a xlink:href="../../df/d0c/class_colour_clothes_lambda.html" target="_top" xlink:title=" ">
<polygon fill="white" stroke="#666666" points="294.88,-450 183.62,-450 183.62,-430 294.88,-430 294.88,-450"/>
<text text-anchor="middle" x="239.25" y="-436.5" font-family="Helvetica,sans-Serif" font-size="10.00">ColourClothesLambda</text>
</a>
</g>
</g>
<!-- Node1&#45;&gt;Node2 -->
<g id="edge1_Node000001_Node000002" class="edge">
<title>Node1&#45;&gt;Node2</title>
<g id="a_edge1_Node000001_Node000002"><a xlink:title=" ">
<path fill="none" stroke="#8b1a1a" d="M66.64,-249.39C76.04,-289.53 102.02,-376.16 158.5,-421 165.75,-426.75 174.45,-430.81 183.41,-433.66"/>
<polygon fill="#8b1a1a" stroke="#8b1a1a" points="70.1,-248.8 64.52,-239.79 63.26,-250.31 70.1,-248.8"/>
</a>
</g>
</g>
<!-- Node3 -->
<g id="Node000003" class="node">
<title>Node3</title>
<g id="a_Node000003"><a xlink:href="../../da/d01/class_cover_head_of_target_player_lambda.html" target="_top" xlink:title=" ">
<polygon fill="white" stroke="#666666" points="320,-412 158.5,-412 158.5,-392 320,-392 320,-412"/>
<text text-anchor="middle" x="239.25" y="-398.5" font-family="Helvetica,sans-Serif" font-size="10.00">CoverHeadOfTargetPlayerLambda</text>
</a>
</g>
</g>
<!-- Node1&#45;&gt;Node3 -->
<g id="edge2_Node000001_Node000003" class="edge">
<title>Node1&#45;&gt;Node3</title>
<g id="a_edge2_Node000001_Node000003"><a xlink:title=" ">
<path fill="none" stroke="#8b1a1a" d="M69.17,-248.67C81.53,-282.29 110.69,-348.54 158.5,-383 163.23,-386.41 168.5,-389.22 174,-391.53"/>
<polygon fill="#8b1a1a" stroke="#8b1a1a" points="72.62,-247.94 66,-239.67 66.02,-250.26 72.62,-247.94"/>
</a>
</g>
</g>
<!-- Node4 -->
<g id="Node000004" class="node">
<title>Node4</title>
<g id="a_Node000004"><a xlink:href="../../d5/d0a/class_fold_bandana_to_slot_lambda.html" target="_top" xlink:title=" ">
<polygon fill="white" stroke="#666666" points="306.88,-374 171.62,-374 171.62,-354 306.88,-354 306.88,-374"/>
<text text-anchor="middle" x="239.25" y="-360.5" font-family="Helvetica,sans-Serif" font-size="10.00">FoldBandanaToSlotLambda</text>
</a>
</g>
</g>
<!-- Node1&#45;&gt;Node4 -->
<g id="edge3_Node000001_Node000004" class="edge">
<title>Node1&#45;&gt;Node4</title>
<g id="a_edge3_Node000001_Node000004"><a xlink:title=" ">
<path fill="none" stroke="#8b1a1a" d="M73.13,-248.05C88.54,-274.49 119.28,-320.51 158.5,-345 164.05,-348.47 170.19,-351.3 176.51,-353.62"/>
<polygon fill="#8b1a1a" stroke="#8b1a1a" points="76.36,-246.65 68.39,-239.66 70.26,-250.09 76.36,-246.65"/>
</a>
</g>
</g>
<!-- Node5 -->
<g id="Node000005" class="node">
<title>Node5</title>
<g id="a_Node000005"><a xlink:href="../../d1/d09/class_open_and_switch_lambda.html" target="_top" xlink:title=" ">
<polygon fill="white" stroke="#666666" points="299.38,-336 179.12,-336 179.12,-316 299.38,-316 299.38,-336"/>
<text text-anchor="middle" x="239.25" y="-322.5" font-family="Helvetica,sans-Serif" font-size="10.00">OpenAndSwitchLambda</text>
</a>
</g>
</g>
<!-- Node1&#45;&gt;Node5 -->
<g id="edge4_Node000001_Node000005" class="edge">
<title>Node1&#45;&gt;Node5</title>
<g id="a_edge4_Node000001_Node000005"><a xlink:title=" ">
<path fill="none" stroke="#8b1a1a" d="M79.69,-246.56C97.72,-264.66 127.55,-291.64 158.5,-307 165.38,-310.42 172.91,-313.24 180.51,-315.56"/>
<polygon fill="#8b1a1a" stroke="#8b1a1a" points="82.36,-244.29 72.88,-239.57 77.34,-249.17 82.36,-244.29"/>
</a>
</g>
</g>
<!-- Node6 -->
<g id="Node000006" class="node">
<title>Node6</title>
<g id="a_Node000006"><a xlink:href="../../d4/d0f/class_paint_item_lambda.html" target="_top" xlink:title=" ">
<polygon fill="white" stroke="#666666" points="285.12,-298 193.38,-298 193.38,-278 285.12,-278 285.12,-298"/>
<text text-anchor="middle" x="239.25" y="-284.5" font-family="Helvetica,sans-Serif" font-size="10.00">PaintItemLambda</text>
</a>
</g>
</g>
<!-- Node1&#45;&gt;Node6 -->
<g id="edge5_Node000001_Node000006" class="edge">
<title>Node1&#45;&gt;Node6</title>
<g id="a_edge5_Node000001_Node000006"><a xlink:title=" ">
<path fill="none" stroke="#8b1a1a" d="M93.86,-243.06C112.39,-251.49 136.44,-261.73 158.5,-269 169.58,-272.65 181.75,-275.91 193.17,-278.66"/>
<polygon fill="#8b1a1a" stroke="#8b1a1a" points="95.56,-239.99 85.01,-238.98 92.63,-246.35 95.56,-239.99"/>
</a>
</g>
</g>
<!-- Node7 -->
<g id="Node000007" class="node">
<title>Node7</title>
<g id="a_Node000007"><a xlink:href="../../d4/d09/class_repack_lambda.html" target="_top" xlink:title=" ">
<polygon fill="white" stroke="#666666" points="281,-260 197.5,-260 197.5,-240 281,-240 281,-260"/>
<text text-anchor="middle" x="239.25" y="-246.5" font-family="Helvetica,sans-Serif" font-size="10.00">RepackLambda</text>
</a>
</g>
</g>
<!-- Node1&#45;&gt;Node7 -->
<g id="edge6_Node000001_Node000007" class="edge">
<title>Node1&#45;&gt;Node7</title>
<g id="a_edge6_Node000001_Node000007"><a xlink:title=" ">
<path fill="none" stroke="#8b1a1a" d="M134.23,-237C155.7,-239.68 178.48,-242.53 197.23,-244.87"/>
<polygon fill="#8b1a1a" stroke="#8b1a1a" points="134.68,-233.53 124.32,-235.76 133.81,-240.47 134.68,-233.53"/>
</a>
</g>
</g>
<!-- Node8 -->
<g id="Node000008" class="node">
<title>Node8</title>
<g id="a_Node000008"><a xlink:href="../../d6/d04/class_replace_with_new_recive_cargo_lambda.html" target="_top" xlink:title=" ">
<polygon fill="white" stroke="#666666" points="311.38,-222 167.12,-222 167.12,-190 311.38,-190 311.38,-222"/>
<text text-anchor="start" x="175.12" y="-208.5" font-family="Helvetica,sans-Serif" font-size="10.00">ReplaceWithNewReciveCargo</text>
<text text-anchor="middle" x="239.25" y="-196.5" font-family="Helvetica,sans-Serif" font-size="10.00">Lambda</text>
</a>
</g>
</g>
<!-- Node1&#45;&gt;Node8 -->
<g id="edge7_Node000001_Node000008" class="edge">
<title>Node1&#45;&gt;Node8</title>
<g id="a_edge7_Node000001_Node000008"><a xlink:title=" ">
<path fill="none" stroke="#8b1a1a" d="M133.92,-219.04C144.72,-217.69 155.86,-216.3 166.65,-214.95"/>
<polygon fill="#8b1a1a" stroke="#8b1a1a" points="133.81,-215.53 124.32,-220.24 134.68,-222.47 133.81,-215.53"/>
</a>
</g>
</g>
<!-- Node9 -->
<g id="Node000009" class="node">
<title>Node9</title>
<g id="a_Node000009"><a xlink:href="../../d2/d0f/class_syringe_lambda.html" target="_top" xlink:title=" ">
<polygon fill="white" stroke="#666666" points="281,-172 197.5,-172 197.5,-152 281,-152 281,-172"/>
<text text-anchor="middle" x="239.25" y="-158.5" font-family="Helvetica,sans-Serif" font-size="10.00">SyringeLambda</text>
</a>
</g>
</g>
<!-- Node1&#45;&gt;Node9 -->
<g id="edge8_Node000001_Node000009" class="edge">
<title>Node1&#45;&gt;Node9</title>
<g id="a_edge8_Node000001_Node000009"><a xlink:title=" ">
<path fill="none" stroke="#8b1a1a" d="M90.5,-212.15C109.31,-202.12 134.83,-189.48 158.5,-181 170.83,-176.58 184.59,-172.89 197.17,-169.96"/>
<polygon fill="#8b1a1a" stroke="#8b1a1a" points="88.98,-208.99 81.86,-216.84 92.32,-215.14 88.98,-208.99"/>
</a>
</g>
</g>
<!-- Node10 -->
<g id="Node000010" class="node">
<title>Node10</title>
<g id="a_Node000010"><a xlink:href="../../dc/d05/class_tan_leather_lambda.html" target="_top" xlink:title=" ">
<polygon fill="white" stroke="#666666" points="288.5,-134 190,-134 190,-114 288.5,-114 288.5,-134"/>
<text text-anchor="middle" x="239.25" y="-120.5" font-family="Helvetica,sans-Serif" font-size="10.00">TanLeatherLambda</text>
</a>
</g>
</g>
<!-- Node1&#45;&gt;Node10 -->
<g id="edge9_Node000001_Node000010" class="edge">
<title>Node1&#45;&gt;Node10</title>
<g id="a_edge9_Node000001_Node000010"><a xlink:title=" ">
<path fill="none" stroke="#8b1a1a" d="M78.31,-209.18C95.98,-189.68 126.21,-159.75 158.5,-143 168.1,-138.02 179.03,-134.32 189.65,-131.58"/>
<polygon fill="#8b1a1a" stroke="#8b1a1a" points="75.89,-206.62 71.89,-216.43 81.14,-211.26 75.89,-206.62"/>
</a>
</g>
</g>
<!-- Node11 -->
<g id="Node000011" class="node">
<title>Node11</title>
<g id="a_Node000011"><a xlink:href="../../d5/d06/class_unfold_bandana_lambda.html" target="_top" xlink:title=" ">
<polygon fill="white" stroke="#666666" points="297.12,-96 181.38,-96 181.38,-76 297.12,-76 297.12,-96"/>
<text text-anchor="middle" x="239.25" y="-82.5" font-family="Helvetica,sans-Serif" font-size="10.00">UnfoldBandanaLambda</text>
</a>
</g>
</g>
<!-- Node1&#45;&gt;Node11 -->
<g id="edge10_Node000001_Node000011" class="edge">
<title>Node1&#45;&gt;Node11</title>
<g id="a_edge10_Node000001_Node000011"><a xlink:title=" ">
<path fill="none" stroke="#8b1a1a" d="M72.41,-207.74C87.37,-180.09 117.98,-130.99 158.5,-105 165.33,-100.62 173.07,-97.25 180.98,-94.65"/>
<polygon fill="#8b1a1a" stroke="#8b1a1a" points="69.37,-206.01 67.84,-216.5 75.57,-209.26 69.37,-206.01"/>
</a>
</g>
</g>
<!-- Node12 -->
<g id="Node000012" class="node">
<title>Node12</title>
<g id="a_Node000012"><a xlink:href="../../d8/d06/class_unfold_entity_lambda.html" target="_top" xlink:title=" ">
<polygon fill="white" stroke="#666666" points="290.75,-58 187.75,-58 187.75,-38 290.75,-38 290.75,-58"/>
<text text-anchor="middle" x="239.25" y="-44.5" font-family="Helvetica,sans-Serif" font-size="10.00">UnfoldEntityLambda</text>
</a>
</g>
</g>
<!-- Node1&#45;&gt;Node12 -->
<g id="edge11_Node000001_Node000012" class="edge">
<title>Node1&#45;&gt;Node12</title>
<g id="a_edge11_Node000001_Node000012"><a xlink:title=" ">
<path fill="none" stroke="#8b1a1a" d="M68.76,-207.04C80.69,-172.29 109.41,-103.01 158.5,-67 166.99,-60.77 177.24,-56.55 187.52,-53.71"/>
<polygon fill="#8b1a1a" stroke="#8b1a1a" points="65.5,-205.75 65.71,-216.35 72.16,-207.93 65.5,-205.75"/>
</a>
</g>
</g>
<!-- Node13 -->
<g id="Node000013" class="node">
<title>Node13</title>
<g id="a_Node000013"><a xlink:href="../../dc/d09/class_ungag_self_lambda.html" target="_top" xlink:title=" ">
<polygon fill="white" stroke="#666666" points="286.62,-20 191.88,-20 191.88,0 286.62,0 286.62,-20"/>
<text text-anchor="middle" x="239.25" y="-6.5" font-family="Helvetica,sans-Serif" font-size="10.00">UngagSelfLambda</text>
</a>
</g>
</g>
<!-- Node1&#45;&gt;Node13 -->
<g id="edge12_Node000001_Node000013" class="edge">
<title>Node1&#45;&gt;Node13</title>
<g id="a_edge12_Node000001_Node000013"><a xlink:title=" ">
<path fill="none" stroke="#8b1a1a" d="M66.25,-206.81C75.13,-165.82 100.49,-75.63 158.5,-29 167.93,-21.42 179.89,-16.78 191.66,-13.96"/>
<polygon fill="#8b1a1a" stroke="#8b1a1a" points="62.87,-205.86 64.31,-216.36 69.73,-207.26 62.87,-205.86"/>
</a>
</g>
</g>
</g>
</svg>

<g id="navigator" transform="translate(0 0)" fill="#404254">
  <rect fill="#f2f5e9" fill-opacity="0.5" stroke="#606060" stroke-width=".5" x="0" y="0" width="60" height="60"/>
  <use id="zoomplus" xlink:href="#zoomPlus" x="17" y="9" onmousedown="handleZoom(evt,'in')"/>
  <use id="zoomminus" xlink:href="#zoomMin" x="42" y="9" onmousedown="handleZoom(evt,'out')"/>
  <use id="reset" xlink:href="#resetDef" x="30" y="36" onmousedown="handleReset()"/>
   <use id="arrowup" xlink:href="#arrowUp" x="0" y="0" onmousedown="handlePan(0,-1)"/>
  <use id="arrowright" xlink:href="#arrowRight" x="0" y="0" onmousedown="handlePan(1,0)"/>
  <use id="arrowdown" xlink:href="#arrowDown" x="0" y="0" onmousedown="handlePan(0,1)"/>
  <use id="arrowleft" xlink:href="#arrowLeft" x="0" y="0" onmousedown="handlePan(-1,0)"/>
</g>
<svg viewBox="0 0 15 15" width="100%" height="30px" preserveAspectRatio="xMaxYMin meet">
 <g id="arrow_out" transform="scale(0.3 0.3)">
  <a xlink:href="class_turn_item_into_item_lambda__inherit__graph_org.svg" target="_base">
   <rect id="button" ry="5" rx="5" y="6" x="6" height="38" width="38"
        fill="#f2f5e9" fill-opacity="0.5" stroke="#606060" stroke-width="1.0"/>
   <path id="arrow"
     d="M 11.500037,31.436501 C 11.940474,20.09759 22.043105,11.32322 32.158766,21.979434 L 37.068811,17.246167 C 37.068811,17.246167 37.088388,32 37.088388,32 L 22.160133,31.978069 C 22.160133,31.978069 26.997745,27.140456 26.997745,27.140456 C 18.528582,18.264221 13.291696,25.230495 11.500037,31.436501 z"
     style="fill:#404040;"/>
  </a>
 </g>
</svg>

<style type='text/css'>
<![CDATA[
[data-mouse-over-selected='false'] { opacity: 0.7; }
[data-mouse-over-selected='true']  { opacity: 1.0; }
]]>
</style>
<script type="application/ecmascript"><![CDATA[
document.addEventListener('DOMContentLoaded', (event) => {
  highlightEdges();
  highlightAdjacentNodes();
});
]]></script>
</svg>
