<?xml version="1.0" encoding="UTF-8" standalone="no"?>
<!DOCTYPE svg PUBLIC "-//W3C//DTD SVG 1.1//EN"
 "http://www.w3.org/Graphics/SVG/1.1/DTD/svg11.dtd">
<!-- Generated by graphviz version 11.0.0 (20240428.1522)
 -->
<!-- Title: SceneObject Pages: 1 -->
<!--zoomable 490 -->

<svg id="main" version="1.1" xmlns="http://www.w3.org/2000/svg" xmlns:xlink="http://www.w3.org/1999/xlink" xml:space="preserve" onload="init(evt)">
<style type="text/css"><![CDATA[
.node, .edge {opacity: 0.7;}
.node.selected, .edge.selected {opacity: 1;}
.edge:hover path { stroke: red; }
.edge:hover polygon { stroke: red; fill: red; }
]]></style>

<defs>
  <circle id="rim" cx="0" cy="0" r="7"/>
  <circle id="rim2" cx="0" cy="0" r="3.5"/>
  <g id="zoomPlus">
    <use xlink:href="#rim" fill="#404040"><set attributeName="fill" to="#808080" begin="zoomplus.mouseover" end="zoomplus.mouseout"/></use>
    <path d="M-4,0h8M0,-4v8" fill="none" stroke="white" stroke-width="1.5" pointer-events="none"/>
  </g>
  <g id="zoomMin">
    <use xlink:href="#rim" fill="#404040"><set attributeName="fill" to="#808080" begin="zoomminus.mouseover" end="zoomminus.mouseout"/></use>
    <path d="M-4,0h8" fill="none" stroke="white" stroke-width="1.5" pointer-events="none"/>
  </g>
  <g id="arrowUp" transform="translate(30 24)">
    <use xlink:href="#rim"/>
    <path pointer-events="none" fill="none" stroke="white" stroke-width="1.5" d="M0,-3.0v7 M-2.5,-0.5L0,-3.0L2.5,-0.5"/>
  </g>
  <g id="arrowRight" transform="rotate(90) translate(36 -43)">
    <use xlink:href="#rim"/>
    <path pointer-events="none" fill="none" stroke="white" stroke-width="1.5" d="M0,-3.0v7 M-2.5,-0.5L0,-3.0L2.5,-0.5"/>
  </g>
  <g id="arrowDown" transform="rotate(180) translate(-30 -48)">
    <use xlink:href="#rim"/>
    <path pointer-events="none" fill="none" stroke="white" stroke-width="1.5" d="M0,-3.0v7 M-2.5,-0.5L0,-3.0L2.5,-0.5"/>
  </g>
  <g id="arrowLeft" transform="rotate(270) translate(-36 17)">
    <use xlink:href="#rim"/>
    <path pointer-events="none" fill="none" stroke="white" stroke-width="1.5" d="M0,-3.0v7 M-2.5,-0.5L0,-3.0L2.5,-0.5"/>
  </g>
  <g id="resetDef">
    <use xlink:href="#rim2" fill="#404040"><set attributeName="fill" to="#808080" begin="reset.mouseover" end="reset.mouseout"/></use>
  </g>
</defs>
<script type="application/ecmascript">
var viewWidth = 2104;
var viewHeight = 490;
var sectionId = 'dynsection-0';
</script>
<script type="application/ecmascript" xlink:href="../../svg.min.js"/>
<svg id="graph" class="graph">
<g id="viewport">
<title>SceneObject</title>
<!-- Node1 -->
<g id="Node000001" class="node">
<title>Node1</title>
<g id="a_Node000001"><a xlink:title=" ">
<polygon fill="#999999" stroke="#666666" points="977.12,-20 904.88,-20 904.88,0 977.12,0 977.12,-20"/>
<text text-anchor="middle" x="941" y="-6.5" font-family="Helvetica,sans-Serif" font-size="10.00">SceneObject</text>
</a>
</g>
</g>
<!-- Node2 -->
<g id="Node000002" class="node">
<title>Node2</title>
<g id="a_Node000002"><a xlink:href="../../db/d06/class_param3.html" target="_top" xlink:title=" ">
<polygon fill="white" stroke="#666666" points="1644.88,-480 1595.12,-480 1595.12,-460 1644.88,-460 1644.88,-480"/>
<text text-anchor="middle" x="1620" y="-466.5" font-family="Helvetica,sans-Serif" font-size="10.00">Param3</text>
</a>
</g>
</g>
<!-- Node2&#45;&gt;Node1 -->
<g id="edge1_Node000001_Node000002" class="edge">
<title>Node2&#45;&gt;Node1</title>
<g id="a_edge1_Node000001_Node000002"><a xlink:title=" ">
<path fill="none" stroke="#9a32cd" stroke-dasharray="5,2" d="M1656.79,-468.92C1744.19,-466.61 1957,-447.57 1957,-317 1957,-317 1957,-317 1957,-77 1957,-26.87 1159.03,-13.76 977.46,-11.42"/>
<polygon fill="#9a32cd" stroke="#9a32cd" points="1656.77,-465.42 1646.84,-469.12 1656.91,-472.42 1656.77,-465.42"/>
</a>
</g>
<text text-anchor="middle" x="2026.38" y="-156.5" font-family="Helvetica,sans-Serif" font-size="10.00" fill="grey"> COLOR_OBJ_BBOX_NORMAL</text>
<text text-anchor="middle" x="2026.38" y="-144.5" font-family="Helvetica,sans-Serif" font-size="10.00" fill="grey">COLOR_OBJ_BBOX_SELECT</text>
</g>
<!-- Node4 -->
<g id="Node000004" class="node">
<title>Node4</title>
<g id="a_Node000004"><a xlink:href="../../d2/d01/classarray.html" target="_top" xlink:title="Result for an object found in CGame.IsBoxCollidingGeometryProxy.">
<polygon fill="white" stroke="#666666" points="984.88,-326 947.12,-326 947.12,-306 984.88,-306 984.88,-326"/>
<text text-anchor="middle" x="966" y="-312.5" font-family="Helvetica,sans-Serif" font-size="10.00">array</text>
</a>
</g>
</g>
<!-- Node2&#45;&gt;Node4 -->
<g id="edge5_Node000004_Node000002" class="edge">
<title>Node2&#45;&gt;Node4</title>
<g id="a_edge5_Node000004_Node000002"><a xlink:title=" ">
<path fill="none" stroke="#9a32cd" stroke-dasharray="5,2" d="M1583.56,-466.53C1528.58,-462.48 1427.18,-453.71 1392.75,-442 1333.6,-421.87 1331.49,-389.12 1272,-370 1181.55,-340.93 1151.67,-372.93 1059,-352 1032.58,-346.03 1003.59,-334.22 985.11,-325.98"/>
<polygon fill="#9a32cd" stroke="#9a32cd" points="1583.13,-470 1593.36,-467.23 1583.63,-463.02 1583.13,-470"/>
</a>
</g>
<text text-anchor="middle" x="1450.12" y="-432.5" font-family="Helvetica,sans-Serif" font-size="10.00" fill="grey"> NO_SORTING</text>
<text text-anchor="middle" x="1450.12" y="-420.5" font-family="Helvetica,sans-Serif" font-size="10.00" fill="grey">geomLevel</text>
<text text-anchor="middle" x="1450.12" y="-408.5" font-family="Helvetica,sans-Serif" font-size="10.00" fill="grey">hierLevel</text>
<text text-anchor="start" x="1392" y="-396.5" font-family="Helvetica,sans-Serif" font-size="10.00" fill="grey">m_CurrentSettingAlternate</text>
<text text-anchor="middle" x="1450.12" y="-384.5" font-family="Helvetica,sans-Serif" font-size="10.00" fill="grey">KeyIndex</text>
<text text-anchor="middle" x="1450.12" y="-372.5" font-family="Helvetica,sans-Serif" font-size="10.00" fill="grey">m_CurrentSettingKeyIndex</text>
</g>
<!-- Node9 -->
<g id="Node000009" class="node">
<title>Node9</title>
<g id="a_Node000009"><a xlink:href="../../d2/d01/classarray.html" target="_top" xlink:title=" ">
<polygon fill="white" stroke="#666666" points="1108.25,-164 1021.75,-164 1021.75,-144 1108.25,-144 1108.25,-164"/>
<text text-anchor="middle" x="1065" y="-150.5" font-family="Helvetica,sans-Serif" font-size="10.00">array&lt; Widget &gt;</text>
</a>
</g>
</g>
<!-- Node2&#45;&gt;Node9 -->
<g id="edge13_Node000009_Node000002" class="edge">
<title>Node2&#45;&gt;Node9</title>
<g id="a_edge13_Node000009_Node000002"><a xlink:title=" ">
<path fill="none" stroke="#9a32cd" stroke-dasharray="5,2" d="M1594.41,-453.98C1559.58,-433.79 1495.04,-397.29 1438,-370 1419.22,-361.01 1408.71,-367.45 1394.75,-352 1372.34,-327.2 1392.37,-307.24 1373,-280 1333.53,-224.5 1311.51,-217.01 1249,-190 1203.48,-170.33 1146.9,-161.67 1108.59,-157.89"/>
<polygon fill="#9a32cd" stroke="#9a32cd" points="1592.51,-456.92 1602.91,-458.93 1596.03,-450.88 1592.51,-456.92"/>
</a>
</g>
<text text-anchor="middle" x="1452.12" y="-342.5" font-family="Helvetica,sans-Serif" font-size="10.00" fill="grey"> NO_SORTING</text>
<text text-anchor="middle" x="1452.12" y="-330.5" font-family="Helvetica,sans-Serif" font-size="10.00" fill="grey">geomLevel</text>
<text text-anchor="middle" x="1452.12" y="-318.5" font-family="Helvetica,sans-Serif" font-size="10.00" fill="grey">hierLevel</text>
<text text-anchor="start" x="1394" y="-306.5" font-family="Helvetica,sans-Serif" font-size="10.00" fill="grey">m_CurrentSettingAlternate</text>
<text text-anchor="middle" x="1452.12" y="-294.5" font-family="Helvetica,sans-Serif" font-size="10.00" fill="grey">KeyIndex</text>
<text text-anchor="middle" x="1452.12" y="-282.5" font-family="Helvetica,sans-Serif" font-size="10.00" fill="grey">m_CurrentSettingKeyIndex</text>
</g>
<!-- Node14 -->
<g id="Node000014" class="node">
<title>Node14</title>
<g id="a_Node000014"><a xlink:href="../../d2/d01/classarray.html" target="_top" xlink:title=" ">
<polygon fill="white" stroke="#666666" points="997,-88 885,-88 885,-68 997,-68 997,-88"/>
<text text-anchor="middle" x="941" y="-74.5" font-family="Helvetica,sans-Serif" font-size="10.00">array&lt; SceneObject &gt;</text>
</a>
</g>
</g>
<!-- Node2&#45;&gt;Node14 -->
<g id="edge28_Node000014_Node000002" class="edge">
<title>Node2&#45;&gt;Node14</title>
<g id="a_edge28_Node000014_Node000002"><a xlink:title=" ">
<path fill="none" stroke="#9a32cd" stroke-dasharray="5,2" d="M1644.18,-453.45C1672.34,-433.75 1717.36,-396.9 1736,-352 1763.62,-285.46 1788.32,-245.18 1742,-190 1693.96,-132.78 1171.95,-93.97 997.44,-82.52"/>
<polygon fill="#9a32cd" stroke="#9a32cd" points="1642.56,-450.32 1636.25,-458.84 1646.49,-456.12 1642.56,-450.32"/>
</a>
</g>
<text text-anchor="middle" x="1825.12" y="-252.5" font-family="Helvetica,sans-Serif" font-size="10.00" fill="grey"> NO_SORTING</text>
<text text-anchor="middle" x="1825.12" y="-240.5" font-family="Helvetica,sans-Serif" font-size="10.00" fill="grey">geomLevel</text>
<text text-anchor="middle" x="1825.12" y="-228.5" font-family="Helvetica,sans-Serif" font-size="10.00" fill="grey">hierLevel</text>
<text text-anchor="start" x="1767" y="-216.5" font-family="Helvetica,sans-Serif" font-size="10.00" fill="grey">m_CurrentSettingAlternate</text>
<text text-anchor="middle" x="1825.12" y="-204.5" font-family="Helvetica,sans-Serif" font-size="10.00" fill="grey">KeyIndex</text>
<text text-anchor="middle" x="1825.12" y="-192.5" font-family="Helvetica,sans-Serif" font-size="10.00" fill="grey">m_CurrentSettingKeyIndex</text>
</g>
<!-- Node15 -->
<g id="Node000015" class="node">
<title>Node15</title>
<g id="a_Node000015"><a xlink:href="../../d2/d01/classarray.html" target="_top" xlink:title=" ">
<polygon fill="white" stroke="#666666" points="1353.75,-164 1264.25,-164 1264.25,-144 1353.75,-144 1353.75,-164"/>
<text text-anchor="middle" x="1309" y="-150.5" font-family="Helvetica,sans-Serif" font-size="10.00">array&lt; Param3 &gt;</text>
</a>
</g>
</g>
<!-- Node2&#45;&gt;Node15 -->
<g id="edge36_Node000015_Node000002" class="edge">
<title>Node2&#45;&gt;Node15</title>
<g id="a_edge36_Node000015_Node000002"><a xlink:title=" ">
<path fill="none" stroke="#9a32cd" stroke-dasharray="5,2" d="M1617.66,-448.62C1612.75,-412.35 1598.9,-335.24 1565,-280 1534.41,-230.15 1520.76,-217.23 1469,-190 1433.01,-171.07 1387.31,-162.37 1353.97,-158.37"/>
<polygon fill="#9a32cd" stroke="#9a32cd" points="1614.14,-448.65 1618.85,-458.14 1621.08,-447.78 1614.14,-448.65"/>
</a>
</g>
<text text-anchor="middle" x="1654.12" y="-342.5" font-family="Helvetica,sans-Serif" font-size="10.00" fill="grey"> NO_SORTING</text>
<text text-anchor="middle" x="1654.12" y="-330.5" font-family="Helvetica,sans-Serif" font-size="10.00" fill="grey">geomLevel</text>
<text text-anchor="middle" x="1654.12" y="-318.5" font-family="Helvetica,sans-Serif" font-size="10.00" fill="grey">hierLevel</text>
<text text-anchor="start" x="1596" y="-306.5" font-family="Helvetica,sans-Serif" font-size="10.00" fill="grey">m_CurrentSettingAlternate</text>
<text text-anchor="middle" x="1654.12" y="-294.5" font-family="Helvetica,sans-Serif" font-size="10.00" fill="grey">KeyIndex</text>
<text text-anchor="middle" x="1654.12" y="-282.5" font-family="Helvetica,sans-Serif" font-size="10.00" fill="grey">m_CurrentSettingKeyIndex</text>
</g>
<!-- Node3 -->
<g id="Node000003" class="node">
<title>Node3</title>
<g id="a_Node000003"><a xlink:href="../../df/d09/class_entity_a_i.html" target="_top" xlink:title=" ">
<polygon fill="white" stroke="#666666" points="349.25,-164 298.75,-164 298.75,-144 349.25,-144 349.25,-164"/>
<text text-anchor="middle" x="324" y="-150.5" font-family="Helvetica,sans-Serif" font-size="10.00">EntityAI</text>
</a>
</g>
</g>
<!-- Node3&#45;&gt;Node1 -->
<g id="edge2_Node000001_Node000003" class="edge">
<title>Node3&#45;&gt;Node1</title>
<g id="a_edge2_Node000001_Node000003"><a xlink:title=" ">
<path fill="none" stroke="#9a32cd" stroke-dasharray="5,2" d="M342.21,-135.94C372.78,-108.66 437.61,-56.4 504,-38 578.99,-17.21 813.57,-12.41 904.49,-11.31"/>
<polygon fill="#9a32cd" stroke="#9a32cd" points="340.02,-133.21 334.98,-142.53 344.73,-138.38 340.02,-133.21"/>
</a>
</g>
<text text-anchor="middle" x="461.88" y="-74.5" font-family="Helvetica,sans-Serif" font-size="10.00" fill="grey"> m_ObjectPtr</text>
</g>
<!-- Node4&#45;&gt;Node3 -->
<g id="edge3_Node000003_Node000004" class="edge">
<title>Node4&#45;&gt;Node3</title>
<g id="a_edge3_Node000003_Node000004"><a xlink:title=" ">
<path fill="none" stroke="#9a32cd" stroke-dasharray="5,2" d="M953.31,-296.79C947.84,-290.37 940.88,-283.82 933,-280 891.79,-260.04 763.46,-290.65 727.75,-262 701.57,-241 731.19,-210.98 705,-190 686.81,-175.43 519.21,-174.15 496,-172 444.01,-167.19 383.23,-161.07 349.63,-157.64"/>
<polygon fill="#9a32cd" stroke="#9a32cd" points="950.4,-298.75 959.27,-304.55 955.95,-294.49 950.4,-298.75"/>
</a>
</g>
<text text-anchor="middle" x="776.12" y="-234.5" font-family="Helvetica,sans-Serif" font-size="10.00" fill="grey"> m_ContinuousActions</text>
<text text-anchor="middle" x="776.12" y="-222.5" font-family="Helvetica,sans-Serif" font-size="10.00" fill="grey">m_InteractActions</text>
<text text-anchor="middle" x="776.12" y="-210.5" font-family="Helvetica,sans-Serif" font-size="10.00" fill="grey">m_SingleUseActions</text>
</g>
<!-- Node4&#45;&gt;Node4 -->
<g id="edge6_Node000004_Node000004" class="edge">
<title>Node4&#45;&gt;Node4</title>
<g id="a_edge6_Node000004_Node000004"><a xlink:title=" ">
<path fill="none" stroke="#9a32cd" stroke-dasharray="5,2" d="M983.83,-332.07C993.75,-335.07 1002.88,-329.71 1002.88,-316 1002.88,-297.72 986.65,-294.29 973.97,-305.72"/>
<polygon fill="#9a32cd" stroke="#9a32cd" points="985.67,-329.09 975.27,-327.05 982.13,-335.13 985.67,-329.09"/>
</a>
</g>
<text text-anchor="middle" x="1023.88" y="-312.5" font-family="Helvetica,sans-Serif" font-size="10.00" fill="grey"> proxyInfo</text>
</g>
<!-- Node4&#45;&gt;Node9 -->
<g id="edge14_Node000009_Node000004" class="edge">
<title>Node4&#45;&gt;Node9</title>
<g id="a_edge14_Node000009_Node000004"><a xlink:title=" ">
<path fill="none" stroke="#9a32cd" stroke-dasharray="5,2" d="M996.16,-307.37C1018.86,-299.89 1048.45,-286.01 1063,-262 1081.97,-230.7 1072.93,-184.21 1067.75,-164.44"/>
<polygon fill="#9a32cd" stroke="#9a32cd" points="995.37,-303.95 986.81,-310.2 997.39,-310.66 995.37,-303.95"/>
</a>
</g>
<text text-anchor="middle" x="1095" y="-222.5" font-family="Helvetica,sans-Serif" font-size="10.00" fill="grey"> proxyInfo</text>
</g>
<!-- Node4&#45;&gt;Node14 -->
<g id="edge29_Node000014_Node000004" class="edge">
<title>Node4&#45;&gt;Node14</title>
<g id="a_edge29_Node000014_Node000004"><a xlink:title=" ">
<path fill="none" stroke="#9a32cd" stroke-dasharray="5,2" d="M963.83,-294.49C958.64,-245.54 945.7,-123.34 942,-88.44"/>
<polygon fill="#9a32cd" stroke="#9a32cd" points="960.33,-294.67 964.86,-304.24 967.29,-293.93 960.33,-294.67"/>
</a>
</g>
<text text-anchor="middle" x="971" y="-150.5" font-family="Helvetica,sans-Serif" font-size="10.00" fill="grey"> proxyInfo</text>
</g>
<!-- Node4&#45;&gt;Node15 -->
<g id="edge37_Node000015_Node000004" class="edge">
<title>Node4&#45;&gt;Node15</title>
<g id="a_edge37_Node000015_Node000004"><a xlink:title=" ">
<path fill="none" stroke="#9a32cd" stroke-dasharray="5,2" d="M995.6,-303.23C1013.78,-296.16 1037.6,-287.17 1059,-280 1085.8,-271.02 1095.2,-275.57 1120,-262 1162.84,-238.56 1160.54,-214.13 1203,-190 1223.14,-178.56 1247.57,-170.17 1267.9,-164.48"/>
<polygon fill="#9a32cd" stroke="#9a32cd" points="994.53,-299.89 986.5,-306.8 997.09,-306.41 994.53,-299.89"/>
</a>
</g>
<text text-anchor="middle" x="1224" y="-222.5" font-family="Helvetica,sans-Serif" font-size="10.00" fill="grey"> proxyInfo</text>
</g>
<!-- Node5 -->
<g id="Node000005" class="node">
<title>Node5</title>
<g id="a_Node000005"><a xlink:href="../../d8/d03/class_object.html" target="_top" xlink:title=" ">
<polygon fill="white" stroke="#666666" points="893.25,-480 848.75,-480 848.75,-460 893.25,-460 893.25,-480"/>
<text text-anchor="middle" x="871" y="-466.5" font-family="Helvetica,sans-Serif" font-size="10.00">Object</text>
</a>
</g>
</g>
<!-- Node5&#45;&gt;Node4 -->
<g id="edge4_Node000004_Node000005" class="edge">
<title>Node5&#45;&gt;Node4</title>
<g id="a_edge4_Node000004_Node000005"><a xlink:title=" ">
<path fill="none" stroke="#9a32cd" stroke-dasharray="5,2" d="M882.74,-450.21C903.28,-417.34 945,-350.6 960.25,-326.2"/>
<polygon fill="#9a32cd" stroke="#9a32cd" points="879.79,-448.33 877.46,-458.66 885.73,-452.04 879.79,-448.33"/>
</a>
</g>
<text text-anchor="middle" x="945.5" y="-408.5" font-family="Helvetica,sans-Serif" font-size="10.00" fill="grey"> obj</text>
<text text-anchor="middle" x="945.5" y="-396.5" font-family="Helvetica,sans-Serif" font-size="10.00" fill="grey">parent</text>
</g>
<!-- Node5&#45;&gt;Node9 -->
<g id="edge12_Node000009_Node000005" class="edge">
<title>Node5&#45;&gt;Node9</title>
<g id="a_edge12_Node000009_Node000005"><a xlink:title=" ">
<path fill="none" stroke="#9a32cd" stroke-dasharray="5,2" d="M860.19,-449.68C841.19,-412.83 807.21,-331.57 845,-280 860.7,-258.57 879.65,-276.36 902,-262 938.27,-238.69 931.17,-213.98 967,-190 984.42,-178.34 1006.17,-170.07 1024.76,-164.5"/>
<polygon fill="#9a32cd" stroke="#9a32cd" points="856.99,-451.12 864.8,-458.28 863.16,-447.81 856.99,-451.12"/>
</a>
</g>
<text text-anchor="middle" x="858.5" y="-318.5" font-family="Helvetica,sans-Serif" font-size="10.00" fill="grey"> obj</text>
<text text-anchor="middle" x="858.5" y="-306.5" font-family="Helvetica,sans-Serif" font-size="10.00" fill="grey">parent</text>
</g>
<!-- Node5&#45;&gt;Node14 -->
<g id="edge27_Node000014_Node000005" class="edge">
<title>Node5&#45;&gt;Node14</title>
<g id="a_edge27_Node000014_Node000005"><a xlink:title=" ">
<path fill="none" stroke="#9a32cd" stroke-dasharray="5,2" d="M837.07,-465.52C804.07,-461.51 756.93,-453.88 743,-442 677.82,-386.39 689.59,-346.25 674,-262 668.18,-230.53 657.45,-217.39 674,-190 717.89,-117.39 820.19,-92.28 884.65,-83.59"/>
<polygon fill="#9a32cd" stroke="#9a32cd" points="836.67,-469 847,-466.67 837.47,-462.04 836.67,-469"/>
</a>
</g>
<text text-anchor="middle" x="687.5" y="-228.5" font-family="Helvetica,sans-Serif" font-size="10.00" fill="grey"> obj</text>
<text text-anchor="middle" x="687.5" y="-216.5" font-family="Helvetica,sans-Serif" font-size="10.00" fill="grey">parent</text>
</g>
<!-- Node5&#45;&gt;Node15 -->
<g id="edge35_Node000015_Node000005" class="edge">
<title>Node5&#45;&gt;Node15</title>
<g id="a_edge35_Node000015_Node000005"><a xlink:title=" ">
<path fill="none" stroke="#9a32cd" stroke-dasharray="5,2" d="M904.67,-463.3C922.83,-459.22 945.12,-452.54 963,-442 1012,-413.11 1016.61,-394.87 1054,-352 1080.29,-321.85 1073.47,-300.19 1108,-280 1161.02,-249.01 1196.68,-299.91 1245,-262 1272.01,-240.81 1254.04,-218.62 1273,-190 1279.55,-180.12 1289.3,-170.86 1297,-164.35"/>
<polygon fill="#9a32cd" stroke="#9a32cd" points="903.99,-459.86 894.9,-465.31 905.41,-466.72 903.99,-459.86"/>
</a>
</g>
<text text-anchor="middle" x="1121.5" y="-318.5" font-family="Helvetica,sans-Serif" font-size="10.00" fill="grey"> obj</text>
<text text-anchor="middle" x="1121.5" y="-306.5" font-family="Helvetica,sans-Serif" font-size="10.00" fill="grey">parent</text>
</g>
<!-- Node6 -->
<g id="Node000006" class="node">
<title>Node6</title>
<g id="a_Node000006"><a xlink:href="../../d4/d04/class_class.html" target="_top" xlink:title="Super root of all classes in Enforce script.">
<polygon fill="white" stroke="#666666" points="1130.38,-480 1089.62,-480 1089.62,-460 1130.38,-460 1130.38,-480"/>
<text text-anchor="middle" x="1110" y="-466.5" font-family="Helvetica,sans-Serif" font-size="10.00">Class</text>
</a>
</g>
</g>
<!-- Node6&#45;&gt;Node4 -->
<g id="edge7_Node000004_Node000006" class="edge">
<title>Node6&#45;&gt;Node4</title>
<g id="a_edge7_Node000004_Node000006"><a xlink:title=" ">
<path fill="none" stroke="#9a32cd" stroke-dasharray="5,2" d="M1088.89,-452.73C1084.76,-449.31 1080.54,-445.63 1076.75,-442 1034.67,-401.69 990.39,-347.62 973.31,-326.25"/>
<polygon fill="#9a32cd" stroke="#9a32cd" points="1086.42,-455.23 1096.41,-458.76 1090.8,-449.77 1086.42,-455.23"/>
</a>
</g>
<text text-anchor="middle" x="1102.62" y="-402.5" font-family="Helvetica,sans-Serif" font-size="10.00" fill="grey"> m_Instance</text>
</g>
<!-- Node6&#45;&gt;Node9 -->
<g id="edge15_Node000009_Node000006" class="edge">
<title>Node6&#45;&gt;Node9</title>
<g id="a_edge15_Node000009_Node000006"><a xlink:title=" ">
<path fill="none" stroke="#9a32cd" stroke-dasharray="5,2" d="M1125.83,-450.74C1127.53,-447.96 1129.01,-445.01 1130,-442 1146.42,-392.23 1146.02,-234.43 1120,-190 1113.25,-178.48 1101.04,-170.14 1089.83,-164.5"/>
<polygon fill="#9a32cd" stroke="#9a32cd" points="1123.11,-448.53 1119.98,-458.65 1128.74,-452.69 1123.11,-448.53"/>
</a>
</g>
<text text-anchor="middle" x="1167.62" y="-312.5" font-family="Helvetica,sans-Serif" font-size="10.00" fill="grey"> m_Instance</text>
</g>
<!-- Node6&#45;&gt;Node14 -->
<g id="edge30_Node000014_Node000006" class="edge">
<title>Node6&#45;&gt;Node14</title>
<g id="a_edge30_Node000014_Node000006"><a xlink:title=" ">
<path fill="none" stroke="#9a32cd" stroke-dasharray="5,2" d="M1077.93,-469.63C1022.54,-470.02 912.24,-467.47 885,-442 779.5,-343.36 904.52,-135.11 934.74,-88.42"/>
<polygon fill="#9a32cd" stroke="#9a32cd" points="1077.71,-473.14 1087.67,-469.53 1077.63,-466.14 1077.71,-473.14"/>
</a>
</g>
<text text-anchor="middle" x="905.62" y="-222.5" font-family="Helvetica,sans-Serif" font-size="10.00" fill="grey"> m_Instance</text>
</g>
<!-- Node6&#45;&gt;Node15 -->
<g id="edge38_Node000015_Node000006" class="edge">
<title>Node6&#45;&gt;Node15</title>
<g id="a_edge38_Node000015_Node000006"><a xlink:title=" ">
<path fill="none" stroke="#9a32cd" stroke-dasharray="5,2" d="M1136.07,-453.26C1140.66,-449.86 1145.18,-446.06 1149,-442 1206.57,-380.71 1189.04,-341.17 1246.75,-280 1256.46,-269.71 1264.47,-273.29 1273,-262 1296.4,-231.04 1305.14,-183.96 1307.9,-164.22"/>
<polygon fill="#9a32cd" stroke="#9a32cd" points="1134.3,-450.23 1128,-458.76 1138.24,-456.02 1134.3,-450.23"/>
</a>
</g>
<text text-anchor="middle" x="1272.62" y="-312.5" font-family="Helvetica,sans-Serif" font-size="10.00" fill="grey"> m_Instance</text>
</g>
<!-- Node7 -->
<g id="Node000007" class="node">
<title>Node7</title>
<g id="a_Node000007"><a xlink:href="../../d5/d02/classstring.html" target="_top" xlink:title=" ">
<polygon fill="white" stroke="#666666" points="637,-480 597,-480 597,-460 637,-460 637,-480"/>
<text text-anchor="middle" x="617" y="-466.5" font-family="Helvetica,sans-Serif" font-size="10.00">string</text>
</a>
</g>
</g>
<!-- Node7&#45;&gt;Node1 -->
<g id="edge25_Node000001_Node000007" class="edge">
<title>Node7&#45;&gt;Node1</title>
<g id="a_edge25_Node000001_Node000007"><a xlink:title=" ">
<path fill="none" stroke="#9a32cd" stroke-dasharray="5,2" d="M590.83,-452.97C587.09,-449.73 583.63,-446.06 581,-442 514.12,-338.74 533.64,-294.27 520,-172 518.23,-156.1 510.43,-148.82 520,-136 566.97,-73.06 810.95,-30.47 904.47,-16.24"/>
<polygon fill="#9a32cd" stroke="#9a32cd" points="588.48,-455.58 598.58,-458.8 592.69,-449.99 588.48,-455.58"/>
</a>
</g>
<text text-anchor="middle" x="566.5" y="-162.5" font-family="Helvetica,sans-Serif" font-size="10.00" fill="grey"> m_InitScript</text>
<text text-anchor="middle" x="566.5" y="-150.5" font-family="Helvetica,sans-Serif" font-size="10.00" fill="grey">m_ObjectName</text>
<text text-anchor="middle" x="566.5" y="-138.5" font-family="Helvetica,sans-Serif" font-size="10.00" fill="grey">m_ObjectNameOrigin</text>
</g>
<!-- Node7&#45;&gt;Node4 -->
<g id="edge8_Node000004_Node000007" class="edge">
<title>Node7&#45;&gt;Node4</title>
<g id="a_edge8_Node000004_Node000007"><a xlink:title=" ">
<path fill="none" stroke="#9a32cd" stroke-dasharray="5,2" d="M648.24,-466.11C675.26,-462.77 714.93,-455.86 747,-442 798.19,-419.88 798.66,-392.33 849.75,-370 884.44,-354.84 900.03,-370.61 933,-352 944.2,-345.68 953.87,-334.3 959.79,-326.23"/>
<polygon fill="#9a32cd" stroke="#9a32cd" points="648.18,-462.59 638.64,-467.19 648.97,-469.55 648.18,-462.59"/>
</a>
</g>
<text text-anchor="middle" x="866.62" y="-402.5" font-family="Helvetica,sans-Serif" font-size="10.00" fill="grey"> m_Test</text>
</g>
<!-- Node7&#45;&gt;Node7 -->
<g id="edge9_Node000007_Node000007" class="edge">
<title>Node7&#45;&gt;Node7</title>
<g id="a_edge9_Node000007_Node000007"><a xlink:title=" ">
<path fill="none" stroke="#9a32cd" stroke-dasharray="5,2" d="M642.77,-481.91C649.72,-481.28 655,-477.31 655,-470 655,-459.12 643.3,-455.64 631.82,-459.55"/>
<polygon fill="#9a32cd" stroke="#9a32cd" points="643.7,-478.5 633.32,-480.65 642.77,-485.44 643.7,-478.5"/>
</a>
</g>
<text text-anchor="middle" x="670.75" y="-466.5" font-family="Helvetica,sans-Serif" font-size="10.00" fill="grey"> Empty</text>
</g>
<!-- Node7&#45;&gt;Node9 -->
<g id="edge16_Node000009_Node000007" class="edge">
<title>Node7&#45;&gt;Node9</title>
<g id="a_edge16_Node000009_Node000007"><a xlink:title=" ">
<path fill="none" stroke="#9a32cd" stroke-dasharray="5,2" d="M618.52,-448.59C623.3,-387.22 638.83,-207.47 658,-190 685.8,-164.67 958.8,-177.52 996,-172 1007.84,-170.24 1020.61,-167.38 1031.91,-164.49"/>
<polygon fill="#9a32cd" stroke="#9a32cd" points="615.05,-448.04 617.78,-458.28 622.03,-448.58 615.05,-448.04"/>
</a>
</g>
<text text-anchor="middle" x="652.62" y="-312.5" font-family="Helvetica,sans-Serif" font-size="10.00" fill="grey"> m_Test</text>
</g>
<!-- Node11 -->
<g id="Node000011" class="node">
<title>Node11</title>
<g id="a_Node000011"><a xlink:href="../../d4/d0d/class_sound_lookup_table.html" target="_top" xlink:title=" ">
<polygon fill="white" stroke="#666666" points="322.25,-326 223.75,-326 223.75,-306 322.25,-306 322.25,-326"/>
<text text-anchor="middle" x="273" y="-312.5" font-family="Helvetica,sans-Serif" font-size="10.00">SoundLookupTable</text>
</a>
</g>
</g>
<!-- Node7&#45;&gt;Node11 -->
<g id="edge22_Node000011_Node000007" class="edge">
<title>Node7&#45;&gt;Node11</title>
<g id="a_edge22_Node000011_Node000007"><a xlink:title=" ">
<path fill="none" stroke="#9a32cd" stroke-dasharray="5,2" d="M585.1,-469.95C545.05,-469.98 475.03,-466.07 421,-442 357.71,-413.8 300.45,-350.05 280.49,-326.22"/>
<polygon fill="#9a32cd" stroke="#9a32cd" points="585.04,-473.45 595.01,-469.85 584.97,-466.45 585.04,-473.45"/>
</a>
</g>
<text text-anchor="middle" x="470.5" y="-408.5" font-family="Helvetica,sans-Serif" font-size="10.00" fill="grey"> m_parameterName</text>
<text text-anchor="middle" x="470.5" y="-396.5" font-family="Helvetica,sans-Serif" font-size="10.00" fill="grey">m_tableCategoryName</text>
</g>
<!-- Node7&#45;&gt;Node14 -->
<g id="edge31_Node000014_Node000007" class="edge">
<title>Node7&#45;&gt;Node14</title>
<g id="a_edge31_Node000014_Node000007"><a xlink:title=" ">
<path fill="none" stroke="#9a32cd" stroke-dasharray="5,2" d="M608.85,-449.06C590.58,-401 551.52,-276.38 598.75,-190 609.42,-170.49 663.27,-146.27 683,-136 714.11,-119.8 722.17,-115.27 756,-106 798.42,-94.38 847.76,-87.5 884.81,-83.59"/>
<polygon fill="#9a32cd" stroke="#9a32cd" points="605.51,-450.13 612.42,-458.15 612.02,-447.56 605.51,-450.13"/>
</a>
</g>
<text text-anchor="middle" x="615.62" y="-222.5" font-family="Helvetica,sans-Serif" font-size="10.00" fill="grey"> m_Test</text>
</g>
<!-- Node7&#45;&gt;Node15 -->
<g id="edge39_Node000015_Node000007" class="edge">
<title>Node7&#45;&gt;Node15</title>
<g id="a_edge39_Node000015_Node000007"><a xlink:title=" ">
<path fill="none" stroke="#9a32cd" stroke-dasharray="5,2" d="M633.95,-451.9C657.65,-429.13 703.08,-389.46 750,-370 800.63,-349 828.59,-385.47 872,-352 899.56,-330.75 884.37,-309.55 902.75,-280 930.59,-235.24 933.05,-213.96 980,-190 1023.3,-167.9 1149.72,-177.68 1198,-172 1219.78,-169.44 1243.86,-165.84 1264,-162.62"/>
<polygon fill="#9a32cd" stroke="#9a32cd" points="631.75,-449.17 627.06,-458.67 636.65,-454.16 631.75,-449.17"/>
</a>
</g>
<text text-anchor="middle" x="919.62" y="-312.5" font-family="Helvetica,sans-Serif" font-size="10.00" fill="grey"> m_Test</text>
</g>
<!-- Node8 -->
<g id="Node000008" class="node">
<title>Node8</title>
<g id="a_Node000008"><a xlink:href="../../dd/d0a/class_widget.html" target="_top" xlink:title=" ">
<polygon fill="white" stroke="#666666" points="1460.38,-480 1413.62,-480 1413.62,-460 1460.38,-460 1460.38,-480"/>
<text text-anchor="middle" x="1437" y="-466.5" font-family="Helvetica,sans-Serif" font-size="10.00">Widget</text>
</a>
</g>
</g>
<!-- Node8&#45;&gt;Node4 -->
<g id="edge10_Node000004_Node000008" class="edge">
<title>Node8&#45;&gt;Node4</title>
<g id="a_edge10_Node000004_Node000008"><a xlink:title=" ">
<path fill="none" stroke="#9a32cd" stroke-dasharray="5,2" d="M1402.08,-469.31C1360.83,-468.56 1290.8,-463.76 1235.25,-442 1183.5,-421.73 1183.61,-392.97 1133,-370 1102.18,-356.01 1091.34,-361.98 1059,-352 1033.12,-344.01 1004,-332.66 985.36,-325.07"/>
<polygon fill="#9a32cd" stroke="#9a32cd" points="1401.86,-472.81 1411.9,-469.41 1401.94,-465.81 1401.86,-472.81"/>
</a>
</g>
<text text-anchor="middle" x="1253.38" y="-402.5" font-family="Helvetica,sans-Serif" font-size="10.00" fill="grey"> m_Root</text>
</g>
<!-- Node8&#45;&gt;Node9 -->
<g id="edge17_Node000009_Node000008" class="edge">
<title>Node8&#45;&gt;Node9</title>
<g id="a_edge17_Node000009_Node000008"><a xlink:title=" ">
<path fill="none" stroke="#9a32cd" stroke-dasharray="5,2" d="M1437.43,-448.33C1436.72,-425.91 1432,-390.58 1411,-370 1386.59,-346.09 1363.03,-373.23 1336.25,-352 1308.18,-329.74 1328.98,-301.06 1300,-280 1257.44,-249.07 1226.34,-291.83 1183,-262 1152.67,-241.12 1169.2,-214.83 1142,-190 1129.2,-178.32 1111.84,-169.97 1096.85,-164.36"/>
<polygon fill="#9a32cd" stroke="#9a32cd" points="1433.92,-448.06 1437.47,-458.04 1440.92,-448.02 1433.92,-448.06"/>
</a>
</g>
<text text-anchor="middle" x="1354.38" y="-312.5" font-family="Helvetica,sans-Serif" font-size="10.00" fill="grey"> m_Root</text>
</g>
<!-- Node8&#45;&gt;Node14 -->
<g id="edge32_Node000014_Node000008" class="edge">
<title>Node8&#45;&gt;Node14</title>
<g id="a_edge32_Node000014_Node000008"><a xlink:title=" ">
<path fill="none" stroke="#9a32cd" stroke-dasharray="5,2" d="M1471.82,-466.28C1533.5,-459.36 1660.67,-435.2 1716,-352 1733.72,-325.35 1733.14,-307.02 1716,-280 1665.74,-200.75 1612.11,-224.9 1525,-190 1454.55,-161.78 1436.93,-153.15 1363,-136 1233.91,-106.05 1078.7,-90.09 997.24,-83.22"/>
<polygon fill="#9a32cd" stroke="#9a32cd" points="1471.84,-462.76 1462.25,-467.26 1472.56,-469.72 1471.84,-462.76"/>
</a>
</g>
<text text-anchor="middle" x="1719.38" y="-222.5" font-family="Helvetica,sans-Serif" font-size="10.00" fill="grey"> m_Root</text>
</g>
<!-- Node8&#45;&gt;Node15 -->
<g id="edge40_Node000015_Node000008" class="edge">
<title>Node8&#45;&gt;Node15</title>
<g id="a_edge40_Node000015_Node000008"><a xlink:title=" ">
<path fill="none" stroke="#9a32cd" stroke-dasharray="5,2" d="M1454.61,-451.51C1486.77,-417.36 1548.73,-339.91 1515,-280 1478.27,-214.75 1392.19,-179.63 1343.73,-164.41"/>
<polygon fill="#9a32cd" stroke="#9a32cd" points="1452.28,-448.88 1447.84,-458.5 1457.31,-453.75 1452.28,-448.88"/>
</a>
</g>
<text text-anchor="middle" x="1542.38" y="-312.5" font-family="Helvetica,sans-Serif" font-size="10.00" fill="grey"> m_Root</text>
</g>
<!-- Node9&#45;&gt;Node4 -->
<g id="edge11_Node000004_Node000009" class="edge">
<title>Node9&#45;&gt;Node4</title>
<g id="a_edge11_Node000004_Node000009"><a xlink:title=" ">
<path fill="none" stroke="#9a32cd" stroke-dasharray="5,2" d="M1026.43,-169.23C1016.63,-174.46 1006.92,-181.28 1000,-190 971.61,-225.75 966.86,-283.4 966.12,-305.74"/>
<polygon fill="#9a32cd" stroke="#9a32cd" points="1027.71,-172.5 1035.21,-165.02 1024.68,-166.19 1027.71,-172.5"/>
</a>
</g>
<text text-anchor="middle" x="1031.5" y="-222.5" font-family="Helvetica,sans-Serif" font-size="10.00" fill="grey"> m_Subgroups</text>
</g>
<!-- Node9&#45;&gt;Node9 -->
<g id="edge18_Node000009_Node000009" class="edge">
<title>Node9&#45;&gt;Node9</title>
<g id="a_edge18_Node000009_Node000009"><a xlink:title=" ">
<path fill="none" stroke="#9a32cd" stroke-dasharray="5,2" d="M1119.63,-159.88C1123.73,-158.57 1126.25,-156.61 1126.25,-154 1126.25,-149.49 1118.71,-146.92 1108.49,-146.28"/>
<polygon fill="#9a32cd" stroke="#9a32cd" points="1119.28,-156.39 1109.99,-161.47 1120.42,-163.3 1119.28,-156.39"/>
</a>
</g>
<text text-anchor="middle" x="1157.75" y="-150.5" font-family="Helvetica,sans-Serif" font-size="10.00" fill="grey"> m_Subgroups</text>
</g>
<!-- Node9&#45;&gt;Node14 -->
<g id="edge33_Node000014_Node000009" class="edge">
<title>Node9&#45;&gt;Node14</title>
<g id="a_edge33_Node000014_Node000009"><a xlink:title=" ">
<path fill="none" stroke="#9a32cd" stroke-dasharray="5,2" d="M1039.44,-137.75C1014.5,-122.87 977.38,-100.71 956.58,-88.3"/>
<polygon fill="#9a32cd" stroke="#9a32cd" points="1037.61,-140.73 1048,-142.85 1041.2,-134.72 1037.61,-140.73"/>
</a>
</g>
<text text-anchor="middle" x="1034.5" y="-108.5" font-family="Helvetica,sans-Serif" font-size="10.00" fill="grey"> m_Subgroups</text>
</g>
<!-- Node10 -->
<g id="Node000010" class="node">
<title>Node10</title>
<g id="a_Node000010"><a xlink:href="../../d4/d03/classfloat.html" target="_top" xlink:title=" ">
<polygon fill="white" stroke="#666666" points="34,-326 0,-326 0,-306 34,-306 34,-326"/>
<text text-anchor="middle" x="17" y="-312.5" font-family="Helvetica,sans-Serif" font-size="10.00">float</text>
</a>
</g>
</g>
<!-- Node10&#45;&gt;Node3 -->
<g id="edge19_Node000003_Node000010" class="edge">
<title>Node10&#45;&gt;Node3</title>
<g id="a_edge19_Node000003_Node000010"><a xlink:title=" ">
<path fill="none" stroke="#9a32cd" stroke-dasharray="5,2" d="M11.53,-294.53C5.49,-266.86 -0.16,-217.78 26.5,-190 45.2,-170.51 229.47,-159.6 298.27,-156.18"/>
<polygon fill="#9a32cd" stroke="#9a32cd" points="8.09,-295.23 13.85,-304.12 14.9,-293.57 8.09,-295.23"/>
</a>
</g>
<text text-anchor="middle" x="84.75" y="-228.5" font-family="Helvetica,sans-Serif" font-size="10.00" fill="grey"> SOUND_CONTACT_SKIP</text>
<text text-anchor="middle" x="84.75" y="-216.5" font-family="Helvetica,sans-Serif" font-size="10.00" fill="grey">m_SoundContactTickTime</text>
</g>
<!-- Node10&#45;&gt;Node10 -->
<g id="edge20_Node000010_Node000010" class="edge">
<title>Node10&#45;&gt;Node10</title>
<g id="a_edge20_Node000010_Node000010"><a xlink:title=" ">
<path fill="none" stroke="#9a32cd" stroke-dasharray="5,2" d="M34.22,-332.16C43.52,-334.95 52,-329.57 52,-316 52,-297.72 36.6,-294.29 24.56,-305.72"/>
<polygon fill="#9a32cd" stroke="#9a32cd" points="36.22,-329.28 25.86,-327.07 32.58,-335.26 36.22,-329.28"/>
</a>
</g>
<text text-anchor="middle" x="74.12" y="-324.5" font-family="Helvetica,sans-Serif" font-size="10.00" fill="grey"> LOWEST</text>
<text text-anchor="middle" x="74.12" y="-312.5" font-family="Helvetica,sans-Serif" font-size="10.00" fill="grey">MAX</text>
<text text-anchor="middle" x="74.12" y="-300.5" font-family="Helvetica,sans-Serif" font-size="10.00" fill="grey">MIN</text>
</g>
<!-- Node11&#45;&gt;Node3 -->
<g id="edge21_Node000003_Node000011" class="edge">
<title>Node11&#45;&gt;Node3</title>
<g id="a_edge21_Node000003_Node000011"><a xlink:title=" ">
<path fill="none" stroke="#9a32cd" stroke-dasharray="5,2" d="M265.43,-295.04C256.9,-269.02 246.52,-222.97 265.25,-190 272.41,-177.41 286.08,-168.87 298.44,-163.38"/>
<polygon fill="#9a32cd" stroke="#9a32cd" points="262.08,-296.07 268.71,-304.33 268.68,-293.74 262.08,-296.07"/>
</a>
</g>
<text text-anchor="middle" x="313.38" y="-222.5" font-family="Helvetica,sans-Serif" font-size="10.00" fill="grey"> m_SoundImpactTable</text>
</g>
<!-- Node12 -->
<g id="Node000012" class="node">
<title>Node12</title>
<g id="a_Node000012"><a xlink:href="../../d9/d09/classbool.html" target="_top" xlink:title=" ">
<polygon fill="white" stroke="#666666" points="173,-326 139,-326 139,-306 173,-306 173,-326"/>
<text text-anchor="middle" x="156" y="-312.5" font-family="Helvetica,sans-Serif" font-size="10.00">bool</text>
</a>
</g>
</g>
<!-- Node12&#45;&gt;Node3 -->
<g id="edge23_Node000003_Node000012" class="edge">
<title>Node12&#45;&gt;Node3</title>
<g id="a_edge23_Node000003_Node000012"><a xlink:title=" ">
<path fill="none" stroke="#9a32cd" stroke-dasharray="5,2" d="M150.89,-294.91C145.26,-267.67 140.05,-219.1 165.25,-190 182.39,-170.21 258.04,-160.73 298.41,-157"/>
<polygon fill="#9a32cd" stroke="#9a32cd" points="147.39,-295.34 153.05,-304.3 154.21,-293.77 147.39,-295.34"/>
</a>
</g>
<text text-anchor="middle" x="207.38" y="-228.5" font-family="Helvetica,sans-Serif" font-size="10.00" fill="grey"> m_ActionsInitialize</text>
<text text-anchor="middle" x="207.38" y="-216.5" font-family="Helvetica,sans-Serif" font-size="10.00" fill="grey">m_IsMeleeWeapon</text>
</g>
<!-- Node13 -->
<g id="Node000013" class="node">
<title>Node13</title>
<g id="a_Node000013"><a xlink:href="../../d4/d0d/class_script_invoker.html" target="_top" xlink:title="ScriptInvoker Class provide list of callbacks &#160;&#160;usage:">
<polygon fill="white" stroke="#666666" points="419.75,-326 348.25,-326 348.25,-306 419.75,-306 419.75,-326"/>
<text text-anchor="middle" x="384" y="-312.5" font-family="Helvetica,sans-Serif" font-size="10.00">ScriptInvoker</text>
</a>
</g>
</g>
<!-- Node13&#45;&gt;Node3 -->
<g id="edge24_Node000003_Node000013" class="edge">
<title>Node13&#45;&gt;Node3</title>
<g id="a_edge24_Node000003_Node000013"><a xlink:title=" ">
<path fill="none" stroke="#9a32cd" stroke-dasharray="5,2" d="M384.32,-294.18C383.86,-268.22 380.18,-223.24 362,-190 356.32,-179.61 346.39,-170.63 338.11,-164.37"/>
<polygon fill="#9a32cd" stroke="#9a32cd" points="380.82,-294.04 384.33,-304.04 387.82,-294.03 380.82,-294.04"/>
</a>
</g>
<text text-anchor="middle" x="449.5" y="-228.5" font-family="Helvetica,sans-Serif" font-size="10.00" fill="grey"> m_OnItemAddedToHands</text>
<text text-anchor="middle" x="449.5" y="-216.5" font-family="Helvetica,sans-Serif" font-size="10.00" fill="grey">m_OnItemRemovedFromHands</text>
</g>
<!-- Node14&#45;&gt;Node1 -->
<g id="edge26_Node000001_Node000014" class="edge">
<title>Node14&#45;&gt;Node1</title>
<g id="a_edge26_Node000001_Node000014"><a xlink:title=" ">
<path fill="none" stroke="#9a32cd" stroke-dasharray="5,2" d="M941,-56.28C941,-44.27 941,-29.74 941,-20.44"/>
<polygon fill="#9a32cd" stroke="#9a32cd" points="937.5,-56.03 941,-66.03 944.5,-56.03 937.5,-56.03"/>
</a>
</g>
<text text-anchor="middle" x="994.25" y="-40.5" font-family="Helvetica,sans-Serif" font-size="10.00" fill="grey"> m_LinkedSceneObjects</text>
</g>
<!-- Node15&#45;&gt;Node1 -->
<g id="edge34_Node000001_Node000015" class="edge">
<title>Node15&#45;&gt;Node1</title>
<g id="a_edge34_Node000001_Node000015"><a xlink:title=" ">
<path fill="none" stroke="#9a32cd" stroke-dasharray="5,2" d="M1280.87,-138.36C1234.32,-114.61 1137.85,-67.37 1052,-38 1027.61,-29.65 999.36,-22.82 977.47,-18.12"/>
<polygon fill="#9a32cd" stroke="#9a32cd" points="1279.23,-141.46 1289.73,-142.91 1282.43,-135.23 1279.23,-141.46"/>
</a>
</g>
<text text-anchor="middle" x="1243.62" y="-74.5" font-family="Helvetica,sans-Serif" font-size="10.00" fill="grey"> m_LinkedSceneObjectsIndices</text>
</g>
</g>
</svg>

<g id="navigator" transform="translate(0 0)" fill="#404254">
  <rect fill="#f2f5e9" fill-opacity="0.5" stroke="#606060" stroke-width=".5" x="0" y="0" width="60" height="60"/>
  <use id="zoomplus" xlink:href="#zoomPlus" x="17" y="9" onmousedown="handleZoom(evt,'in')"/>
  <use id="zoomminus" xlink:href="#zoomMin" x="42" y="9" onmousedown="handleZoom(evt,'out')"/>
  <use id="reset" xlink:href="#resetDef" x="30" y="36" onmousedown="handleReset()"/>
   <use id="arrowup" xlink:href="#arrowUp" x="0" y="0" onmousedown="handlePan(0,-1)"/>
  <use id="arrowright" xlink:href="#arrowRight" x="0" y="0" onmousedown="handlePan(1,0)"/>
  <use id="arrowdown" xlink:href="#arrowDown" x="0" y="0" onmousedown="handlePan(0,1)"/>
  <use id="arrowleft" xlink:href="#arrowLeft" x="0" y="0" onmousedown="handlePan(-1,0)"/>
</g>
<svg viewBox="0 0 15 15" width="100%" height="30px" preserveAspectRatio="xMaxYMin meet">
 <g id="arrow_out" transform="scale(0.3 0.3)">
  <a xlink:href="class_scene_object__coll__graph_org.svg" target="_base">
   <rect id="button" ry="5" rx="5" y="6" x="6" height="38" width="38"
        fill="#f2f5e9" fill-opacity="0.5" stroke="#606060" stroke-width="1.0"/>
   <path id="arrow"
     d="M 11.500037,31.436501 C 11.940474,20.09759 22.043105,11.32322 32.158766,21.979434 L 37.068811,17.246167 C 37.068811,17.246167 37.088388,32 37.088388,32 L 22.160133,31.978069 C 22.160133,31.978069 26.997745,27.140456 26.997745,27.140456 C 18.528582,18.264221 13.291696,25.230495 11.500037,31.436501 z"
     style="fill:#404040;"/>
  </a>
 </g>
</svg>

<style type='text/css'>
<![CDATA[
[data-mouse-over-selected='false'] { opacity: 0.7; }
[data-mouse-over-selected='true']  { opacity: 1.0; }
]]>
</style>
<script type="application/ecmascript"><![CDATA[
document.addEventListener('DOMContentLoaded', (event) => {
  highlightEdges();
  highlightAdjacentNodes();
});
]]></script>
</svg>
