<?xml version="1.0" encoding="UTF-8" standalone="no"?>
<!DOCTYPE svg PUBLIC "-//W3C//DTD SVG 1.1//EN"
 "http://www.w3.org/Graphics/SVG/1.1/DTD/svg11.dtd">
<!-- Generated by graphviz version 11.0.0 (20240428.1522)
 -->
<!-- Title: ITEM_PlayerData Pages: 1 -->
<svg width="880pt" height="1129pt"
 viewBox="0.00 0.00 880.25 1129.19" xmlns="http://www.w3.org/2000/svg" xmlns:xlink="http://www.w3.org/1999/xlink">
<g id="graph0" class="graph" transform="scale(1 1) rotate(0) translate(4 1125.19)">
<title>ITEM_PlayerData</title>
<!-- Node1 -->
<g id="Node000001" class="node">
<title>Node1</title>
<g id="a_Node000001"><a xlink:title=" ">
<polygon fill="#999999" stroke="#666666" points="872.25,-860.94 780.5,-860.94 780.5,-840.94 872.25,-840.94 872.25,-860.94"/>
<text text-anchor="middle" x="826.38" y="-847.44" font-family="Helvetica,sans-Serif" font-size="10.00">ITEM_PlayerData</text>
</a>
</g>
</g>
<!-- Node2 -->
<g id="Node000002" class="node">
<title>Node2</title>
<g id="a_Node000002"><a xlink:href="../../d8/d04/class_i_t_e_m___data_base.html" target="_top" xlink:title=" ">
<polygon fill="white" stroke="#666666" points="303.38,-1046.94 216.88,-1046.94 216.88,-1026.94 303.38,-1026.94 303.38,-1046.94"/>
<text text-anchor="middle" x="260.12" y="-1033.44" font-family="Helvetica,sans-Serif" font-size="10.00">ITEM_DataBase</text>
</a>
</g>
</g>
<!-- Node2&#45;&gt;Node1 -->
<g id="edge1_Node000001_Node000002" class="edge">
<title>Node2&#45;&gt;Node1</title>
<g id="a_edge1_Node000001_Node000002"><a xlink:title=" ">
<path fill="none" stroke="#8b1a1a" d="M275.7,-1056.13C289.32,-1072.35 311.27,-1094.42 336.25,-1103.94 402.59,-1129.22 427.82,-1123.73 496,-1103.94 630.69,-1064.83 659.56,-1030.2 762.5,-934.94 787.37,-911.92 809.29,-878.01 819.42,-861.18"/>
<polygon fill="#8b1a1a" stroke="#8b1a1a" points="278.62,-1054.18 269.63,-1048.58 273.16,-1058.56 278.62,-1054.18"/>
</a>
</g>
</g>
<!-- Node3 -->
<g id="Node000003" class="node">
<title>Node3</title>
<g id="a_Node000003"><a xlink:href="../../df/d04/class_i_t_e_m___stamina_data.html" target="_top" xlink:title=" ">
<polygon fill="white" stroke="#666666" points="628.62,-957.94 528.62,-957.94 528.62,-937.94 628.62,-937.94 628.62,-957.94"/>
<text text-anchor="middle" x="578.62" y="-944.44" font-family="Helvetica,sans-Serif" font-size="10.00">ITEM_StaminaData</text>
</a>
</g>
</g>
<!-- Node2&#45;&gt;Node3 -->
<g id="edge3_Node000003_Node000002" class="edge">
<title>Node2&#45;&gt;Node3</title>
<g id="a_edge3_Node000003_Node000002"><a xlink:title=" ">
<path fill="none" stroke="#8b1a1a" d="M283.29,-1053.75C297.58,-1063.49 317.02,-1074.82 336.25,-1079.94 404.86,-1098.19 433.98,-1114.5 496,-1079.94 544.25,-1053.05 567.57,-984.58 574.94,-958.36"/>
<polygon fill="#8b1a1a" stroke="#8b1a1a" points="285.7,-1051.17 275.53,-1048.22 281.65,-1056.87 285.7,-1051.17"/>
</a>
</g>
</g>
<!-- Node5 -->
<g id="Node000005" class="node">
<title>Node5</title>
<g id="a_Node000005"><a xlink:href="../../d2/d04/class_i_t_e_m___shock_handling_data.html" target="_top" xlink:title=" ">
<polygon fill="white" stroke="#666666" points="643.25,-883.94 514,-883.94 514,-863.94 643.25,-863.94 643.25,-883.94"/>
<text text-anchor="middle" x="578.62" y="-870.44" font-family="Helvetica,sans-Serif" font-size="10.00">ITEM_ShockHandlingData</text>
</a>
</g>
</g>
<!-- Node2&#45;&gt;Node5 -->
<g id="edge7_Node000005_Node000002" class="edge">
<title>Node2&#45;&gt;Node5</title>
<g id="a_edge7_Node000005_Node000002"><a xlink:title=" ">
<path fill="none" stroke="#8b1a1a" d="M273.36,-1016.98C290.05,-990.37 319.79,-945.42 336.25,-934.94 397.34,-896.06 426.2,-922.22 496,-902.94 514.84,-897.73 535.6,-890.33 551.46,-884.31"/>
<polygon fill="#8b1a1a" stroke="#8b1a1a" points="270.56,-1014.85 268.25,-1025.19 276.5,-1018.54 270.56,-1014.85"/>
</a>
</g>
</g>
<!-- Node7 -->
<g id="Node000007" class="node">
<title>Node7</title>
<g id="a_Node000007"><a xlink:href="../../de/d0c/class_i_t_e_m___movement_data.html" target="_top" xlink:title=" ">
<polygon fill="white" stroke="#666666" points="632.75,-755.94 524.5,-755.94 524.5,-735.94 632.75,-735.94 632.75,-755.94"/>
<text text-anchor="middle" x="578.62" y="-742.44" font-family="Helvetica,sans-Serif" font-size="10.00">ITEM_MovementData</text>
</a>
</g>
</g>
<!-- Node2&#45;&gt;Node7 -->
<g id="edge11_Node000007_Node000002" class="edge">
<title>Node2&#45;&gt;Node7</title>
<g id="a_edge11_Node000007_Node000002"><a xlink:title=" ">
<path fill="none" stroke="#8b1a1a" d="M277.31,-1017.98C290.54,-1001.4 308.57,-976.11 318.25,-950.94 337.76,-900.19 298.78,-869.33 336.25,-829.94 386.16,-777.47 428.82,-824.96 496,-797.94 522.19,-787.4 549.16,-768.3 564.6,-756.41"/>
<polygon fill="#8b1a1a" stroke="#8b1a1a" points="274.78,-1015.54 271.14,-1025.49 280.19,-1019.99 274.78,-1015.54"/>
</a>
</g>
</g>
<!-- Node3&#45;&gt;Node1 -->
<g id="edge2_Node000001_Node000003" class="edge">
<title>Node3&#45;&gt;Node1</title>
<g id="a_edge2_Node000001_Node000003"><a xlink:title=" ">
<path fill="none" stroke="#9a32cd" stroke-dasharray="5,2" d="M621.53,-933.85C658.87,-920.99 714.84,-900.99 762.5,-880.94 776.77,-874.93 792.49,-867.43 804.64,-861.44"/>
<polygon fill="#9a32cd" stroke="#9a32cd" points="620.79,-930.4 612.47,-936.95 623.06,-937.02 620.79,-930.4"/>
</a>
</g>
<text text-anchor="middle" x="711.88" y="-921.44" font-family="Helvetica,sans-Serif" font-size="10.00" fill="grey"> StaminaData</text>
</g>
<!-- Node4 -->
<g id="Node000004" class="node">
<title>Node4</title>
<g id="a_Node000004"><a xlink:href="../../d4/d03/classfloat.html" target="_top" xlink:title=" ">
<polygon fill="white" stroke="#666666" points="277.12,-887.94 243.12,-887.94 243.12,-867.94 277.12,-867.94 277.12,-887.94"/>
<text text-anchor="middle" x="260.12" y="-874.44" font-family="Helvetica,sans-Serif" font-size="10.00">float</text>
</a>
</g>
</g>
<!-- Node4&#45;&gt;Node3 -->
<g id="edge4_Node000003_Node000004" class="edge">
<title>Node4&#45;&gt;Node3</title>
<g id="a_edge4_Node000003_Node000004"><a xlink:title=" ">
<path fill="none" stroke="#9a32cd" stroke-dasharray="5,2" d="M282.14,-895.27C296.47,-906.06 316.38,-919.14 336.25,-925.94 370.59,-937.69 468.25,-943.59 528.3,-946.19"/>
<polygon fill="#9a32cd" stroke="#9a32cd" points="284.41,-892.6 274.38,-889.21 280.1,-898.12 284.41,-892.6"/>
</a>
</g>
<text text-anchor="middle" x="416.12" y="-1066.44" font-family="Helvetica,sans-Serif" font-size="10.00" fill="grey"> holdBreathStaminaModifier</text>
<text text-anchor="middle" x="416.12" y="-1054.44" font-family="Helvetica,sans-Serif" font-size="10.00" fill="grey">meleeStaminaModifier</text>
<text text-anchor="middle" x="416.12" y="-1042.44" font-family="Helvetica,sans-Serif" font-size="10.00" fill="grey">obstacleTraversalStaminaModifier</text>
<text text-anchor="middle" x="416.12" y="-1030.44" font-family="Helvetica,sans-Serif" font-size="10.00" fill="grey">sprintLadderStaminaModifier</text>
<text text-anchor="middle" x="416.12" y="-1018.44" font-family="Helvetica,sans-Serif" font-size="10.00" fill="grey">sprintStaminaModifierCro</text>
<text text-anchor="middle" x="416.12" y="-1006.44" font-family="Helvetica,sans-Serif" font-size="10.00" fill="grey">sprintStaminaModifierErc</text>
<text text-anchor="middle" x="416.12" y="-994.44" font-family="Helvetica,sans-Serif" font-size="10.00" fill="grey">sprintSwimmingStaminaModifier</text>
<text text-anchor="middle" x="416.12" y="-982.44" font-family="Helvetica,sans-Serif" font-size="10.00" fill="grey">staminaKgToStaminaPercentPenalty</text>
<text text-anchor="middle" x="416.12" y="-970.44" font-family="Helvetica,sans-Serif" font-size="10.00" fill="grey">staminaMax</text>
<text text-anchor="middle" x="416.12" y="-958.44" font-family="Helvetica,sans-Serif" font-size="10.00" fill="grey">staminaMinCap</text>
<text text-anchor="middle" x="416.12" y="-946.44" font-family="Helvetica,sans-Serif" font-size="10.00" fill="grey">...</text>
</g>
<!-- Node4&#45;&gt;Node4 -->
<g id="edge5_Node000004_Node000004" class="edge">
<title>Node4&#45;&gt;Node4</title>
<g id="a_edge5_Node000004_Node000004"><a xlink:title=" ">
<path fill="none" stroke="#9a32cd" stroke-dasharray="5,2" d="M235.33,-893.24C233.02,-900.05 241.28,-905.94 260.12,-905.94 286.35,-905.94 292.08,-894.54 277.33,-885.11"/>
<polygon fill="#9a32cd" stroke="#9a32cd" points="237.62,-895.92 241.89,-886.22 232.5,-891.14 237.62,-895.92"/>
</a>
</g>
<text text-anchor="middle" x="260.12" y="-932.44" font-family="Helvetica,sans-Serif" font-size="10.00" fill="grey"> LOWEST</text>
<text text-anchor="middle" x="260.12" y="-920.44" font-family="Helvetica,sans-Serif" font-size="10.00" fill="grey">MAX</text>
<text text-anchor="middle" x="260.12" y="-908.44" font-family="Helvetica,sans-Serif" font-size="10.00" fill="grey">MIN</text>
</g>
<!-- Node4&#45;&gt;Node5 -->
<g id="edge8_Node000005_Node000004" class="edge">
<title>Node4&#45;&gt;Node5</title>
<g id="a_edge8_Node000005_Node000004"><a xlink:title=" ">
<path fill="none" stroke="#9a32cd" stroke-dasharray="5,2" d="M288.64,-877.59C338.42,-876.96 444.67,-875.62 513.54,-874.75"/>
<polygon fill="#9a32cd" stroke="#9a32cd" points="288.72,-874.09 278.77,-877.71 288.81,-881.09 288.72,-874.09"/>
</a>
</g>
<text text-anchor="middle" x="416.12" y="-891.44" font-family="Helvetica,sans-Serif" font-size="10.00" fill="grey"> shockRefillSpeedConscious</text>
<text text-anchor="middle" x="416.12" y="-879.44" font-family="Helvetica,sans-Serif" font-size="10.00" fill="grey">shockRefillSpeedUnconscious</text>
</g>
<!-- Node4&#45;&gt;Node7 -->
<g id="edge12_Node000007_Node000004" class="edge">
<title>Node4&#45;&gt;Node7</title>
<g id="a_edge12_Node000007_Node000004"><a xlink:title=" ">
<path fill="none" stroke="#9a32cd" stroke-dasharray="5,2" d="M265.33,-856.89C273.04,-824.62 292.8,-763.93 336.25,-737.94 403.17,-697.9 500.27,-720.26 548.36,-735.49"/>
<polygon fill="#9a32cd" stroke="#9a32cd" points="262,-855.74 263.27,-866.26 268.84,-857.24 262,-855.74"/>
</a>
</g>
<text text-anchor="middle" x="416.12" y="-788.44" font-family="Helvetica,sans-Serif" font-size="10.00" fill="grey"> rotationSpeedJog</text>
<text text-anchor="middle" x="416.12" y="-776.44" font-family="Helvetica,sans-Serif" font-size="10.00" fill="grey">rotationSpeedSprint</text>
<text text-anchor="middle" x="416.12" y="-764.44" font-family="Helvetica,sans-Serif" font-size="10.00" fill="grey">timeToSprint</text>
<text text-anchor="middle" x="416.12" y="-752.44" font-family="Helvetica,sans-Serif" font-size="10.00" fill="grey">timeToStrafeJog</text>
<text text-anchor="middle" x="416.12" y="-740.44" font-family="Helvetica,sans-Serif" font-size="10.00" fill="grey">timeToStrafeSprint</text>
</g>
<!-- Node5&#45;&gt;Node1 -->
<g id="edge6_Node000001_Node000005" class="edge">
<title>Node5&#45;&gt;Node1</title>
<g id="a_edge6_Node000001_Node000005"><a xlink:title=" ">
<path fill="none" stroke="#9a32cd" stroke-dasharray="5,2" d="M654.88,-866.89C695.92,-863.05 745.34,-858.43 780.38,-855.15"/>
<polygon fill="#9a32cd" stroke="#9a32cd" points="654.69,-863.4 645.06,-867.81 655.34,-870.37 654.69,-863.4"/>
</a>
</g>
<text text-anchor="middle" x="711.88" y="-867.44" font-family="Helvetica,sans-Serif" font-size="10.00" fill="grey"> ShockHandlingData</text>
</g>
<!-- Node6 -->
<g id="Node000006" class="node">
<title>Node6</title>
<g id="a_Node000006"><a xlink:href="../../d9/d09/classbool.html" target="_top" xlink:title=" ">
<polygon fill="white" stroke="#666666" points="277.12,-711.94 243.12,-711.94 243.12,-691.94 277.12,-691.94 277.12,-711.94"/>
<text text-anchor="middle" x="260.12" y="-698.44" font-family="Helvetica,sans-Serif" font-size="10.00">bool</text>
</a>
</g>
</g>
<!-- Node6&#45;&gt;Node1 -->
<g id="edge14_Node000001_Node000006" class="edge">
<title>Node6&#45;&gt;Node1</title>
<g id="a_edge14_Node000001_Node000006"><a xlink:title=" ">
<path fill="none" stroke="#9a32cd" stroke-dasharray="5,2" d="M288.37,-695.15C302.55,-691.96 320.22,-688.52 336.25,-686.94 472.22,-673.5 514.21,-658.04 643.25,-702.94 702.38,-723.51 715.04,-737.1 762.5,-777.94 785.32,-797.58 807.13,-825.69 818.07,-840.65"/>
<polygon fill="#9a32cd" stroke="#9a32cd" points="287.81,-691.69 278.87,-697.38 289.41,-698.5 287.81,-691.69"/>
</a>
</g>
<text text-anchor="middle" x="578.62" y="-717.44" font-family="Helvetica,sans-Serif" font-size="10.00" fill="grey"> disable2dMap</text>
<text text-anchor="middle" x="578.62" y="-705.44" font-family="Helvetica,sans-Serif" font-size="10.00" fill="grey">disablePersonalLight</text>
</g>
<!-- Node6&#45;&gt;Node5 -->
<g id="edge9_Node000005_Node000006" class="edge">
<title>Node6&#45;&gt;Node5</title>
<g id="a_edge9_Node000005_Node000006"><a xlink:title=" ">
<path fill="none" stroke="#9a32cd" stroke-dasharray="5,2" d="M268.4,-722.72C278.97,-749.74 301.23,-796.36 336.25,-820.94 344.02,-826.39 456.43,-849.64 525.07,-863.47"/>
<polygon fill="#9a32cd" stroke="#9a32cd" points="271.76,-721.72 265,-713.57 265.2,-724.16 271.76,-721.72"/>
</a>
</g>
<text text-anchor="middle" x="416.12" y="-859.44" font-family="Helvetica,sans-Serif" font-size="10.00" fill="grey"> allowRefillSpeedModifier</text>
</g>
<!-- Node6&#45;&gt;Node7 -->
<g id="edge13_Node000007_Node000006" class="edge">
<title>Node6&#45;&gt;Node7</title>
<g id="a_edge13_Node000007_Node000006"><a xlink:title=" ">
<path fill="none" stroke="#9a32cd" stroke-dasharray="5,2" d="M288.67,-697.88C333.09,-692.25 422.95,-684.71 496,-702.94 521.33,-709.26 547.5,-724.96 563.16,-735.54"/>
<polygon fill="#9a32cd" stroke="#9a32cd" points="288.35,-694.39 278.9,-699.19 289.28,-701.33 288.35,-694.39"/>
</a>
</g>
<text text-anchor="middle" x="416.12" y="-705.44" font-family="Helvetica,sans-Serif" font-size="10.00" fill="grey"> allowStaminaAffectInertia</text>
</g>
<!-- Node7&#45;&gt;Node1 -->
<g id="edge10_Node000001_Node000007" class="edge">
<title>Node7&#45;&gt;Node1</title>
<g id="a_edge10_Node000001_Node000007"><a xlink:title=" ">
<path fill="none" stroke="#9a32cd" stroke-dasharray="5,2" d="M614.49,-760.84C664.99,-782.41 757.2,-821.81 801.01,-840.53"/>
<polygon fill="#9a32cd" stroke="#9a32cd" points="616.05,-757.69 605.48,-756.98 613.3,-764.13 616.05,-757.69"/>
</a>
</g>
<text text-anchor="middle" x="711.88" y="-824.44" font-family="Helvetica,sans-Serif" font-size="10.00" fill="grey"> MovementData</text>
</g>
<!-- Node8 -->
<g id="Node000008" class="node">
<title>Node8</title>
<g id="a_Node000008"><a xlink:href="../../d2/d01/classarray.html" target="_top" xlink:title=" ">
<polygon fill="white" stroke="#666666" points="618.5,-373.94 538.75,-373.94 538.75,-353.94 618.5,-353.94 618.5,-373.94"/>
<text text-anchor="middle" x="578.62" y="-360.44" font-family="Helvetica,sans-Serif" font-size="10.00">array&lt; string &gt;</text>
</a>
</g>
</g>
<!-- Node8&#45;&gt;Node1 -->
<g id="edge15_Node000001_Node000008" class="edge">
<title>Node8&#45;&gt;Node1</title>
<g id="a_edge15_Node000001_Node000008"><a xlink:title=" ">
<path fill="none" stroke="#9a32cd" stroke-dasharray="5,2" d="M595.29,-383.44C629.89,-427.33 713.62,-538.27 762.5,-642.94 796.18,-715.06 817.05,-809.6 823.35,-840.6"/>
<polygon fill="#9a32cd" stroke="#9a32cd" points="598.04,-381.27 589.08,-375.62 592.56,-385.63 598.04,-381.27"/>
</a>
</g>
<text text-anchor="middle" x="711.88" y="-645.44" font-family="Helvetica,sans-Serif" font-size="10.00" fill="grey"> spawnGearPresetFiles</text>
</g>
<!-- Node9 -->
<g id="Node000009" class="node">
<title>Node9</title>
<g id="a_Node000009"><a xlink:href="../../d8/d03/class_object.html" target="_top" xlink:title=" ">
<polygon fill="white" stroke="#666666" points="47.12,-403.94 2.62,-403.94 2.62,-383.94 47.12,-383.94 47.12,-403.94"/>
<text text-anchor="middle" x="24.88" y="-390.44" font-family="Helvetica,sans-Serif" font-size="10.00">Object</text>
</a>
</g>
</g>
<!-- Node9&#45;&gt;Node8 -->
<g id="edge16_Node000008_Node000009" class="edge">
<title>Node9&#45;&gt;Node8</title>
<g id="a_edge16_Node000008_Node000009"><a xlink:title=" ">
<path fill="none" stroke="#9a32cd" stroke-dasharray="5,2" d="M36.35,-373.65C43.55,-361.84 54.24,-347.78 67.75,-339.94 119.87,-309.69 141.89,-325.17 202,-320.94 253.54,-317.31 266.76,-316.7 318.25,-320.94 396.95,-327.42 487.73,-344.78 538.33,-355.35"/>
<polygon fill="#9a32cd" stroke="#9a32cd" points="33.34,-371.87 31.48,-382.3 39.44,-375.3 33.34,-371.87"/>
</a>
</g>
<text text-anchor="middle" x="260.12" y="-335.44" font-family="Helvetica,sans-Serif" font-size="10.00" fill="grey"> obj</text>
<text text-anchor="middle" x="260.12" y="-323.44" font-family="Helvetica,sans-Serif" font-size="10.00" fill="grey">parent</text>
</g>
<!-- Node11 -->
<g id="Node000011" class="node">
<title>Node11</title>
<g id="a_Node000011"><a xlink:href="../../d2/d01/classarray.html" target="_top" xlink:title="Result for an object found in CGame.IsBoxCollidingGeometryProxy.">
<polygon fill="white" stroke="#666666" points="279,-373.94 241.25,-373.94 241.25,-353.94 279,-353.94 279,-373.94"/>
<text text-anchor="middle" x="260.12" y="-360.44" font-family="Helvetica,sans-Serif" font-size="10.00">array</text>
</a>
</g>
</g>
<!-- Node9&#45;&gt;Node11 -->
<g id="edge19_Node000011_Node000009" class="edge">
<title>Node9&#45;&gt;Node11</title>
<g id="a_edge19_Node000011_Node000009"><a xlink:title=" ">
<path fill="none" stroke="#9a32cd" stroke-dasharray="5,2" d="M58.8,-389.7C108.67,-383.29 201.68,-371.33 240.92,-366.28"/>
<polygon fill="#9a32cd" stroke="#9a32cd" points="58.37,-386.23 48.9,-390.98 59.27,-393.17 58.37,-386.23"/>
</a>
</g>
<text text-anchor="middle" x="125.88" y="-403.44" font-family="Helvetica,sans-Serif" font-size="10.00" fill="grey"> obj</text>
<text text-anchor="middle" x="125.88" y="-391.44" font-family="Helvetica,sans-Serif" font-size="10.00" fill="grey">parent</text>
</g>
<!-- Node15 -->
<g id="Node000015" class="node">
<title>Node15</title>
<g id="a_Node000015"><a xlink:href="../../d2/d01/classarray.html" target="_top" xlink:title=" ">
<polygon fill="white" stroke="#666666" points="621.88,-523.94 535.38,-523.94 535.38,-503.94 621.88,-503.94 621.88,-523.94"/>
<text text-anchor="middle" x="578.62" y="-510.44" font-family="Helvetica,sans-Serif" font-size="10.00">array&lt; Widget &gt;</text>
</a>
</g>
</g>
<!-- Node9&#45;&gt;Node15 -->
<g id="edge27_Node000015_Node000009" class="edge">
<title>Node9&#45;&gt;Node15</title>
<g id="a_edge27_Node000015_Node000009"><a xlink:title=" ">
<path fill="none" stroke="#9a32cd" stroke-dasharray="5,2" d="M51.61,-409.92C56.8,-412.61 62.34,-415.12 67.75,-416.94 174.42,-452.82 234.73,-378.5 318.25,-453.94 342.41,-475.76 310.56,-504.95 336.25,-524.94 400.48,-574.91 505.98,-542.83 553.31,-524.35"/>
<polygon fill="#9a32cd" stroke="#9a32cd" points="53.32,-406.87 42.89,-405.04 49.9,-412.98 53.32,-406.87"/>
</a>
</g>
<text text-anchor="middle" x="260.12" y="-468.44" font-family="Helvetica,sans-Serif" font-size="10.00" fill="grey"> obj</text>
<text text-anchor="middle" x="260.12" y="-456.44" font-family="Helvetica,sans-Serif" font-size="10.00" fill="grey">parent</text>
</g>
<!-- Node10 -->
<g id="Node000010" class="node">
<title>Node10</title>
<g id="a_Node000010"><a xlink:href="../../db/d06/class_param3.html" target="_top" xlink:title=" ">
<polygon fill="white" stroke="#666666" points="49.75,-117.94 0,-117.94 0,-97.94 49.75,-97.94 49.75,-117.94"/>
<text text-anchor="middle" x="24.88" y="-104.44" font-family="Helvetica,sans-Serif" font-size="10.00">Param3</text>
</a>
</g>
</g>
<!-- Node10&#45;&gt;Node8 -->
<g id="edge17_Node000008_Node000010" class="edge">
<title>Node10&#45;&gt;Node8</title>
<g id="a_edge17_Node000008_Node000010"><a xlink:title=" ">
<path fill="none" stroke="#9a32cd" stroke-dasharray="5,2" d="M47.1,-90.44C96.34,-52.12 221.5,32.28 318.25,-13.94 472.48,-87.61 556.54,-303.98 574.13,-353.68"/>
<polygon fill="#9a32cd" stroke="#9a32cd" points="45.13,-87.54 39.48,-96.5 49.49,-93.02 45.13,-87.54"/>
</a>
</g>
<text text-anchor="middle" x="260.12" y="-76.44" font-family="Helvetica,sans-Serif" font-size="10.00" fill="grey"> NO_SORTING</text>
<text text-anchor="middle" x="260.12" y="-64.44" font-family="Helvetica,sans-Serif" font-size="10.00" fill="grey">geomLevel</text>
<text text-anchor="middle" x="260.12" y="-52.44" font-family="Helvetica,sans-Serif" font-size="10.00" fill="grey">hierLevel</text>
<text text-anchor="start" x="202" y="-40.44" font-family="Helvetica,sans-Serif" font-size="10.00" fill="grey">m_CurrentSettingAlternate</text>
<text text-anchor="middle" x="260.12" y="-28.44" font-family="Helvetica,sans-Serif" font-size="10.00" fill="grey">KeyIndex</text>
<text text-anchor="middle" x="260.12" y="-16.44" font-family="Helvetica,sans-Serif" font-size="10.00" fill="grey">m_CurrentSettingKeyIndex</text>
</g>
<!-- Node10&#45;&gt;Node11 -->
<g id="edge20_Node000011_Node000010" class="edge">
<title>Node10&#45;&gt;Node11</title>
<g id="a_edge20_Node000011_Node000010"><a xlink:title=" ">
<path fill="none" stroke="#9a32cd" stroke-dasharray="5,2" d="M55.61,-123.77C92.15,-144.89 153.07,-185.87 184,-238.94 206.96,-278.33 173.52,-304.33 202,-339.94 211.54,-351.87 228.07,-357.95 240.91,-360.99"/>
<polygon fill="#9a32cd" stroke="#9a32cd" points="57.75,-120.96 47.32,-119.09 54.31,-127.05 57.75,-120.96"/>
</a>
</g>
<text text-anchor="middle" x="125.88" y="-301.44" font-family="Helvetica,sans-Serif" font-size="10.00" fill="grey"> NO_SORTING</text>
<text text-anchor="middle" x="125.88" y="-289.44" font-family="Helvetica,sans-Serif" font-size="10.00" fill="grey">geomLevel</text>
<text text-anchor="middle" x="125.88" y="-277.44" font-family="Helvetica,sans-Serif" font-size="10.00" fill="grey">hierLevel</text>
<text text-anchor="start" x="67.75" y="-265.44" font-family="Helvetica,sans-Serif" font-size="10.00" fill="grey">m_CurrentSettingAlternate</text>
<text text-anchor="middle" x="125.88" y="-253.44" font-family="Helvetica,sans-Serif" font-size="10.00" fill="grey">KeyIndex</text>
<text text-anchor="middle" x="125.88" y="-241.44" font-family="Helvetica,sans-Serif" font-size="10.00" fill="grey">m_CurrentSettingKeyIndex</text>
</g>
<!-- Node10&#45;&gt;Node15 -->
<g id="edge28_Node000015_Node000010" class="edge">
<title>Node10&#45;&gt;Node15</title>
<g id="a_edge28_Node000015_Node000010"><a xlink:title=" ">
<path fill="none" stroke="#9a32cd" stroke-dasharray="5,2" d="M61.49,-101.96C118.37,-94.07 232.09,-85.1 318.25,-121.94 418.48,-164.79 443.56,-195.37 496,-290.94 516.04,-327.46 500.79,-343.42 514,-382.94 529.71,-429.94 558.66,-481.76 571.37,-503.47"/>
<polygon fill="#9a32cd" stroke="#9a32cd" points="61.13,-98.48 51.74,-103.4 62.14,-105.41 61.13,-98.48"/>
</a>
</g>
<text text-anchor="middle" x="260.12" y="-184.44" font-family="Helvetica,sans-Serif" font-size="10.00" fill="grey"> NO_SORTING</text>
<text text-anchor="middle" x="260.12" y="-172.44" font-family="Helvetica,sans-Serif" font-size="10.00" fill="grey">geomLevel</text>
<text text-anchor="middle" x="260.12" y="-160.44" font-family="Helvetica,sans-Serif" font-size="10.00" fill="grey">hierLevel</text>
<text text-anchor="start" x="202" y="-148.44" font-family="Helvetica,sans-Serif" font-size="10.00" fill="grey">m_CurrentSettingAlternate</text>
<text text-anchor="middle" x="260.12" y="-136.44" font-family="Helvetica,sans-Serif" font-size="10.00" fill="grey">KeyIndex</text>
<text text-anchor="middle" x="260.12" y="-124.44" font-family="Helvetica,sans-Serif" font-size="10.00" fill="grey">m_CurrentSettingKeyIndex</text>
</g>
<!-- Node11&#45;&gt;Node8 -->
<g id="edge18_Node000008_Node000011" class="edge">
<title>Node11&#45;&gt;Node8</title>
<g id="a_edge18_Node000008_Node000011"><a xlink:title=" ">
<path fill="none" stroke="#9a32cd" stroke-dasharray="5,2" d="M290.48,-363.94C347.71,-363.94 474.23,-363.94 538.5,-363.94"/>
<polygon fill="#9a32cd" stroke="#9a32cd" points="290.56,-360.44 280.56,-363.94 290.56,-367.44 290.56,-360.44"/>
</a>
</g>
<text text-anchor="middle" x="416.12" y="-366.44" font-family="Helvetica,sans-Serif" font-size="10.00" fill="grey"> proxyInfo</text>
</g>
<!-- Node11&#45;&gt;Node11 -->
<g id="edge21_Node000011_Node000011" class="edge">
<title>Node11&#45;&gt;Node11</title>
<g id="a_edge21_Node000011_Node000011"><a xlink:title=" ">
<path fill="none" stroke="#9a32cd" stroke-dasharray="5,2" d="M235.01,-382.29C235.8,-387.72 244.17,-391.94 260.12,-391.94 285.03,-391.94 291.46,-381.66 279.39,-372.54"/>
<polygon fill="#9a32cd" stroke="#9a32cd" points="237.94,-384.21 240.08,-373.84 231.94,-380.61 237.94,-384.21"/>
</a>
</g>
<text text-anchor="middle" x="260.12" y="-394.44" font-family="Helvetica,sans-Serif" font-size="10.00" fill="grey"> proxyInfo</text>
</g>
<!-- Node11&#45;&gt;Node15 -->
<g id="edge29_Node000015_Node000011" class="edge">
<title>Node11&#45;&gt;Node15</title>
<g id="a_edge29_Node000015_Node000011"><a xlink:title=" ">
<path fill="none" stroke="#9a32cd" stroke-dasharray="5,2" d="M285.13,-381.34C296.73,-390.91 309.91,-403.73 318.25,-417.94 334.73,-446.01 311.62,-467.65 336.25,-488.94 350.95,-501.65 469.83,-509.02 535.1,-512.15"/>
<polygon fill="#9a32cd" stroke="#9a32cd" points="287.51,-378.75 277.48,-375.32 283.18,-384.25 287.51,-378.75"/>
</a>
</g>
<text text-anchor="middle" x="416.12" y="-511.44" font-family="Helvetica,sans-Serif" font-size="10.00" fill="grey"> proxyInfo</text>
</g>
<!-- Node12 -->
<g id="Node000012" class="node">
<title>Node12</title>
<g id="a_Node000012"><a xlink:href="../../d4/d04/class_class.html" target="_top" xlink:title="Super root of all classes in Enforce script.">
<polygon fill="white" stroke="#666666" points="45.25,-530.94 4.5,-530.94 4.5,-510.94 45.25,-510.94 45.25,-530.94"/>
<text text-anchor="middle" x="24.88" y="-517.44" font-family="Helvetica,sans-Serif" font-size="10.00">Class</text>
</a>
</g>
</g>
<!-- Node12&#45;&gt;Node8 -->
<g id="edge34_Node000008_Node000012" class="edge">
<title>Node12&#45;&gt;Node8</title>
<g id="a_edge34_Node000008_Node000012"><a xlink:title=" ">
<path fill="none" stroke="#9a32cd" stroke-dasharray="5,2" d="M56.75,-521.55C88.76,-521.72 140.17,-520.7 184,-513.94 245.05,-504.52 271.73,-518.59 318.25,-477.94 333.85,-464.31 320.81,-448.76 336.25,-434.94 366.27,-408.06 478.39,-383.05 538.68,-371.17"/>
<polygon fill="#9a32cd" stroke="#9a32cd" points="57.03,-518.05 47,-521.45 56.96,-525.05 57.03,-518.05"/>
</a>
</g>
<text text-anchor="middle" x="260.12" y="-513.44" font-family="Helvetica,sans-Serif" font-size="10.00" fill="grey"> m_Instance</text>
</g>
<!-- Node12&#45;&gt;Node11 -->
<g id="edge22_Node000011_Node000012" class="edge">
<title>Node12&#45;&gt;Node11</title>
<g id="a_edge22_Node000011_Node000012"><a xlink:title=" ">
<path fill="none" stroke="#9a32cd" stroke-dasharray="5,2" d="M37.7,-501.07C45.17,-489.86 55.68,-476.28 67.75,-466.94 112.23,-432.51 134.92,-444.41 184,-416.94 206.98,-404.07 231.55,-385.78 246.11,-374.39"/>
<polygon fill="#9a32cd" stroke="#9a32cd" points="34.93,-498.9 32.54,-509.23 40.84,-502.65 34.93,-498.9"/>
</a>
</g>
<text text-anchor="middle" x="125.88" y="-469.44" font-family="Helvetica,sans-Serif" font-size="10.00" fill="grey"> m_Instance</text>
</g>
<!-- Node12&#45;&gt;Node15 -->
<g id="edge30_Node000015_Node000012" class="edge">
<title>Node12&#45;&gt;Node15</title>
<g id="a_edge30_Node000015_Node000012"><a xlink:title=" ">
<path fill="none" stroke="#9a32cd" stroke-dasharray="5,2" d="M53.85,-536.41C58.4,-538.5 63.14,-540.44 67.75,-541.94 125.26,-560.59 141.74,-559.03 202,-563.94 332.3,-574.54 369.6,-588.3 496,-554.94 520.38,-548.5 545.96,-534.25 561.85,-524.36"/>
<polygon fill="#9a32cd" stroke="#9a32cd" points="55.58,-533.36 45.07,-532.05 52.47,-539.63 55.58,-533.36"/>
</a>
</g>
<text text-anchor="middle" x="260.12" y="-576.44" font-family="Helvetica,sans-Serif" font-size="10.00" fill="grey"> m_Instance</text>
</g>
<!-- Node13 -->
<g id="Node000013" class="node">
<title>Node13</title>
<g id="a_Node000013"><a xlink:href="../../d5/d02/classstring.html" target="_top" xlink:title=" ">
<polygon fill="white" stroke="#666666" points="44.88,-215.94 4.88,-215.94 4.88,-195.94 44.88,-195.94 44.88,-215.94"/>
<text text-anchor="middle" x="24.88" y="-202.44" font-family="Helvetica,sans-Serif" font-size="10.00">string</text>
</a>
</g>
</g>
<!-- Node13&#45;&gt;Node8 -->
<g id="edge35_Node000008_Node000013" class="edge">
<title>Node13&#45;&gt;Node8</title>
<g id="a_edge35_Node000008_Node000013"><a xlink:title=" ">
<path fill="none" stroke="#9a32cd" stroke-dasharray="5,2" d="M56.34,-196.97C60.15,-196.13 64.02,-195.42 67.75,-194.94 118.99,-188.32 132.75,-188.37 184,-194.94 342.23,-215.22 511.65,-320.16 562.42,-353.65"/>
<polygon fill="#9a32cd" stroke="#9a32cd" points="55.59,-193.55 46.74,-199.37 57.29,-200.34 55.59,-193.55"/>
</a>
</g>
<text text-anchor="middle" x="260.12" y="-231.44" font-family="Helvetica,sans-Serif" font-size="10.00" fill="grey"> m_Test</text>
</g>
<!-- Node13&#45;&gt;Node11 -->
<g id="edge23_Node000011_Node000013" class="edge">
<title>Node13&#45;&gt;Node11</title>
<g id="a_edge23_Node000011_Node000013"><a xlink:title=" ">
<path fill="none" stroke="#9a32cd" stroke-dasharray="5,2" d="M28.32,-227.8C32.26,-252.54 42.35,-292.33 67.75,-314.94 93.69,-338.03 198.34,-355.25 240.94,-361.44"/>
<polygon fill="#9a32cd" stroke="#9a32cd" points="31.79,-227.34 26.97,-217.91 24.85,-228.29 31.79,-227.34"/>
</a>
</g>
<text text-anchor="middle" x="125.88" y="-354.44" font-family="Helvetica,sans-Serif" font-size="10.00" fill="grey"> m_Test</text>
</g>
<!-- Node13&#45;&gt;Node13 -->
<g id="edge24_Node000013_Node000013" class="edge">
<title>Node13&#45;&gt;Node13</title>
<g id="a_edge24_Node000013_Node000013"><a xlink:title=" ">
<path fill="none" stroke="#9a32cd" stroke-dasharray="5,2" d="M7.02,-227.38C9.32,-231.24 15.27,-233.94 24.88,-233.94 42.43,-233.94 47.78,-224.91 40.92,-216.28"/>
<polygon fill="#9a32cd" stroke="#9a32cd" points="10.44,-228.2 8.58,-217.77 3.53,-227.08 10.44,-228.2"/>
</a>
</g>
<text text-anchor="middle" x="24.88" y="-236.44" font-family="Helvetica,sans-Serif" font-size="10.00" fill="grey"> Empty</text>
</g>
<!-- Node13&#45;&gt;Node15 -->
<g id="edge31_Node000015_Node000013" class="edge">
<title>Node13&#45;&gt;Node15</title>
<g id="a_edge31_Node000015_Node000013"><a xlink:title=" ">
<path fill="none" stroke="#9a32cd" stroke-dasharray="5,2" d="M56.52,-201.91C89.89,-199 143.86,-198.7 184,-219.94 195.17,-225.85 191.82,-234.46 202,-241.94 315.49,-325.27 391.32,-265.78 496,-359.94 519.85,-381.39 560.18,-472.92 573.33,-503.75"/>
<polygon fill="#9a32cd" stroke="#9a32cd" points="56.32,-198.41 46.72,-202.91 57.03,-205.38 56.32,-198.41"/>
</a>
</g>
<text text-anchor="middle" x="260.12" y="-294.44" font-family="Helvetica,sans-Serif" font-size="10.00" fill="grey"> m_Test</text>
</g>
<!-- Node14 -->
<g id="Node000014" class="node">
<title>Node14</title>
<g id="a_Node000014"><a xlink:href="../../dd/d0a/class_widget.html" target="_top" xlink:title=" ">
<polygon fill="white" stroke="#666666" points="48.25,-568.94 1.5,-568.94 1.5,-548.94 48.25,-548.94 48.25,-568.94"/>
<text text-anchor="middle" x="24.88" y="-555.44" font-family="Helvetica,sans-Serif" font-size="10.00">Widget</text>
</a>
</g>
</g>
<!-- Node14&#45;&gt;Node8 -->
<g id="edge36_Node000008_Node000014" class="edge">
<title>Node14&#45;&gt;Node8</title>
<g id="a_edge36_Node000008_Node000014"><a xlink:title=" ">
<path fill="none" stroke="#9a32cd" stroke-dasharray="5,2" d="M59.82,-556.82C132.23,-552.06 296.98,-539.83 318.25,-525.94 331.59,-517.23 323.18,-504.05 336.25,-494.94 395.37,-453.7 434.07,-503.82 496,-466.94 534.62,-443.94 562.14,-395.34 572.77,-374.16"/>
<polygon fill="#9a32cd" stroke="#9a32cd" points="59.89,-553.31 50.14,-557.45 60.34,-560.29 59.89,-553.31"/>
</a>
</g>
<text text-anchor="middle" x="260.12" y="-547.44" font-family="Helvetica,sans-Serif" font-size="10.00" fill="grey"> m_Root</text>
</g>
<!-- Node14&#45;&gt;Node11 -->
<g id="edge25_Node000011_Node000014" class="edge">
<title>Node14&#45;&gt;Node11</title>
<g id="a_edge25_Node000011_Node000014"><a xlink:title=" ">
<path fill="none" stroke="#9a32cd" stroke-dasharray="5,2" d="M48.08,-541.58C56.89,-534.76 65.48,-528.24 67.75,-526.94 116.2,-499.06 146.6,-520.48 184,-478.94 202.92,-457.93 187.22,-442.03 202,-417.94 212.99,-400.02 231.43,-384.12 244.38,-374.29"/>
<polygon fill="#9a32cd" stroke="#9a32cd" points="46.01,-538.75 40.26,-547.65 50.3,-544.28 46.01,-538.75"/>
</a>
</g>
<text text-anchor="middle" x="125.88" y="-529.44" font-family="Helvetica,sans-Serif" font-size="10.00" fill="grey"> m_Root</text>
</g>
<!-- Node14&#45;&gt;Node15 -->
<g id="edge32_Node000015_Node000014" class="edge">
<title>Node14&#45;&gt;Node15</title>
<g id="a_edge32_Node000015_Node000014"><a xlink:title=" ">
<path fill="none" stroke="#9a32cd" stroke-dasharray="5,2" d="M59.17,-569.12C138.19,-591.45 341.93,-638.19 496,-578.94 526.6,-567.17 554.74,-539.55 568.59,-524.38"/>
<polygon fill="#9a32cd" stroke="#9a32cd" points="60.47,-565.85 49.89,-566.44 58.53,-572.58 60.47,-565.85"/>
</a>
</g>
<text text-anchor="middle" x="260.12" y="-609.44" font-family="Helvetica,sans-Serif" font-size="10.00" fill="grey"> m_Root</text>
</g>
<!-- Node15&#45;&gt;Node11 -->
<g id="edge26_Node000011_Node000015" class="edge">
<title>Node15&#45;&gt;Node11</title>
<g id="a_edge26_Node000011_Node000015"><a xlink:title=" ">
<path fill="none" stroke="#9a32cd" stroke-dasharray="5,2" d="M545.6,-498.76C479.66,-467.51 330.58,-396.85 279.05,-372.43"/>
<polygon fill="#9a32cd" stroke="#9a32cd" points="543.91,-501.83 554.44,-502.95 546.9,-495.5 543.91,-501.83"/>
</a>
</g>
<text text-anchor="middle" x="416.12" y="-475.44" font-family="Helvetica,sans-Serif" font-size="10.00" fill="grey"> m_Subgroups</text>
</g>
<!-- Node15&#45;&gt;Node15 -->
<g id="edge33_Node000015_Node000015" class="edge">
<title>Node15&#45;&gt;Node15</title>
<g id="a_edge33_Node000015_Node000015"><a xlink:title=" ">
<path fill="none" stroke="#9a32cd" stroke-dasharray="5,2" d="M555.07,-535.38C558.11,-539.24 565.96,-541.94 578.62,-541.94 601.79,-541.94 608.84,-532.91 599.8,-524.28"/>
<polygon fill="#9a32cd" stroke="#9a32cd" points="558.46,-536.27 557.14,-525.76 551.62,-534.8 558.46,-536.27"/>
</a>
</g>
<text text-anchor="middle" x="578.62" y="-544.44" font-family="Helvetica,sans-Serif" font-size="10.00" fill="grey"> m_Subgroups</text>
</g>
</g>
</svg>
