<?xml version="1.0" encoding="UTF-8" standalone="no"?>
<!DOCTYPE svg PUBLIC "-//W3C//DTD SVG 1.1//EN"
 "http://www.w3.org/Graphics/SVG/1.1/DTD/svg11.dtd">
<!-- Generated by graphviz version 11.0.0 (20240428.1522)
 -->
<!-- Title: StaminaSoundHandlerBase Pages: 1 -->
<svg width="392pt" height="136pt"
 viewBox="0.00 0.00 391.50 136.00" xmlns="http://www.w3.org/2000/svg" xmlns:xlink="http://www.w3.org/1999/xlink">

<svg id="main" version="1.1" xmlns="http://www.w3.org/2000/svg" xmlns:xlink="http://www.w3.org/1999/xlink" xml:space="preserve" onload="init(evt)">
<style type="text/css"><![CDATA[
.node, .edge {opacity: 0.7;}
.node.selected, .edge.selected {opacity: 1;}
.edge:hover path { stroke: red; }
.edge:hover polygon { stroke: red; fill: red; }
]]></style>
<script type="application/ecmascript" xlink:href="../../svg.min.js"/>
<svg id="graph" class="graph">
<g id="graph0" class="graph" transform="scale(1 1) rotate(0) translate(4 132)">
<title>StaminaSoundHandlerBase</title>
<!-- Node1 -->
<g id="Node000001" class="node">
<title>Node1</title>
<g id="a_Node000001"><a xlink:title=" ">
<polygon fill="#999999" stroke="#666666" points="198.62,-20 63.38,-20 63.38,0 198.62,0 198.62,-20"/>
<text text-anchor="middle" x="131" y="-6.5" font-family="Helvetica,sans-Serif" font-size="10.00">StaminaSoundHandlerBase</text>
</a>
</g>
</g>
<!-- Node2 -->
<g id="Node000002" class="node">
<title>Node2</title>
<g id="a_Node000002"><a xlink:href="../../d4/d03/classfloat.html" target="_top" xlink:title=" ">
<polygon fill="white" stroke="#666666" points="34,-120 0,-120 0,-100 34,-100 34,-120"/>
<text text-anchor="middle" x="17" y="-106.5" font-family="Helvetica,sans-Serif" font-size="10.00">float</text>
</a>
</g>
</g>
<!-- Node2&#45;&gt;Node1 -->
<g id="edge1_Node000001_Node000002" class="edge">
<title>Node2&#45;&gt;Node1</title>
<g id="a_edge1_Node000001_Node000002"><a xlink:title=" ">
<path fill="none" stroke="#9a32cd" stroke-dasharray="5,2" d="M22.02,-88.99C26.97,-73.11 36.05,-51.43 51.25,-38 60.23,-30.06 71.64,-24.44 83,-20.46"/>
<polygon fill="#9a32cd" stroke="#9a32cd" points="18.74,-87.73 19.41,-98.3 25.48,-89.61 18.74,-87.73"/>
</a>
</g>
<text text-anchor="middle" x="89.88" y="-58.5" font-family="Helvetica,sans-Serif" font-size="10.00" fill="grey"> m_LastTick</text>
<text text-anchor="middle" x="89.88" y="-46.5" font-family="Helvetica,sans-Serif" font-size="10.00" fill="grey">m_PostponeTime</text>
</g>
<!-- Node2&#45;&gt;Node2 -->
<g id="edge2_Node000002_Node000002" class="edge">
<title>Node2&#45;&gt;Node2</title>
<g id="a_edge2_Node000002_Node000002"><a xlink:title=" ">
<path fill="none" stroke="#9a32cd" stroke-dasharray="5,2" d="M45.67,-118.94C49.47,-117.42 52,-114.44 52,-110 52,-101.88 43.56,-98.64 34.29,-100.29"/>
<polygon fill="#9a32cd" stroke="#9a32cd" points="45.54,-115.44 35.8,-119.61 46.01,-122.43 45.54,-115.44"/>
</a>
</g>
<text text-anchor="middle" x="74.12" y="-118.5" font-family="Helvetica,sans-Serif" font-size="10.00" fill="grey"> LOWEST</text>
<text text-anchor="middle" x="74.12" y="-106.5" font-family="Helvetica,sans-Serif" font-size="10.00" fill="grey">MAX</text>
<text text-anchor="middle" x="74.12" y="-94.5" font-family="Helvetica,sans-Serif" font-size="10.00" fill="grey">MIN</text>
</g>
<!-- Node3 -->
<g id="Node000003" class="node">
<title>Node3</title>
<g id="a_Node000003"><a xlink:href="../../d9/d09/classbool.html" target="_top" xlink:title=" ">
<polygon fill="white" stroke="#666666" points="148,-120 114,-120 114,-100 148,-100 148,-120"/>
<text text-anchor="middle" x="131" y="-106.5" font-family="Helvetica,sans-Serif" font-size="10.00">bool</text>
</a>
</g>
</g>
<!-- Node3&#45;&gt;Node1 -->
<g id="edge3_Node000001_Node000003" class="edge">
<title>Node3&#45;&gt;Node1</title>
<g id="a_edge3_Node000001_Node000003"><a xlink:title=" ">
<path fill="none" stroke="#9a32cd" stroke-dasharray="5,2" d="M131,-88.1C131,-67.09 131,-35.66 131,-20.23"/>
<polygon fill="#9a32cd" stroke="#9a32cd" points="127.5,-88.09 131,-98.09 134.5,-88.09 127.5,-88.09"/>
</a>
</g>
<text text-anchor="middle" x="186.88" y="-58.5" font-family="Helvetica,sans-Serif" font-size="10.00" fill="grey"> m_StaminaUpEndPlayed</text>
<text text-anchor="middle" x="186.88" y="-46.5" font-family="Helvetica,sans-Serif" font-size="10.00" fill="grey">m_UpdateTimerRunning</text>
</g>
<!-- Node4 -->
<g id="Node000004" class="node">
<title>Node4</title>
<g id="a_Node000004"><a xlink:href="../../d8/d08/class_timer.html" target="_top" xlink:title=" ">
<polygon fill="white" stroke="#666666" points="286,-120 246,-120 246,-100 286,-100 286,-120"/>
<text text-anchor="middle" x="266" y="-106.5" font-family="Helvetica,sans-Serif" font-size="10.00">Timer</text>
</a>
</g>
</g>
<!-- Node4&#45;&gt;Node1 -->
<g id="edge4_Node000001_Node000004" class="edge">
<title>Node4&#45;&gt;Node1</title>
<g id="a_edge4_Node000001_Node000004"><a xlink:title=" ">
<path fill="none" stroke="#9a32cd" stroke-dasharray="5,2" d="M264.95,-88.32C263.03,-72.38 257.83,-50.94 244,-38 231.7,-26.49 215.41,-19.62 199.03,-15.58"/>
<polygon fill="#9a32cd" stroke="#9a32cd" points="261.45,-88.47 265.77,-98.15 268.43,-87.89 261.45,-88.47"/>
</a>
</g>
<text text-anchor="start" x="262" y="-64.5" font-family="Helvetica,sans-Serif" font-size="10.00" fill="grey"> m_ClientCharacterDistance</text>
<text text-anchor="middle" x="322.75" y="-52.5" font-family="Helvetica,sans-Serif" font-size="10.00" fill="grey">Check</text>
<text text-anchor="middle" x="322.75" y="-40.5" font-family="Helvetica,sans-Serif" font-size="10.00" fill="grey">m_ClientCharacterTick</text>
</g>
</g>
</svg>
</svg>

<style type='text/css'>
<![CDATA[
[data-mouse-over-selected='false'] { opacity: 0.7; }
[data-mouse-over-selected='true']  { opacity: 1.0; }
]]>
</style>
<script type="application/ecmascript"><![CDATA[
document.addEventListener('DOMContentLoaded', (event) => {
  highlightEdges();
  highlightAdjacentNodes();
});
]]></script>
</svg>
