<?xml version="1.0" encoding="UTF-8" standalone="no"?>
<!DOCTYPE svg PUBLIC "-//W3C//DTD SVG 1.1//EN"
 "http://www.w3.org/Graphics/SVG/1.1/DTD/svg11.dtd">
<!-- Generated by graphviz version 11.0.0 (20240428.1522)
 -->
<!-- Title: CheckLocalisationPlugin Pages: 1 -->
<!--zoomable 346 -->

<svg id="main" version="1.1" xmlns="http://www.w3.org/2000/svg" xmlns:xlink="http://www.w3.org/1999/xlink" xml:space="preserve" onload="init(evt)">
<style type="text/css"><![CDATA[
.node, .edge {opacity: 0.7;}
.node.selected, .edge.selected {opacity: 1;}
.edge:hover path { stroke: red; }
.edge:hover polygon { stroke: red; fill: red; }
]]></style>

<defs>
  <circle id="rim" cx="0" cy="0" r="7"/>
  <circle id="rim2" cx="0" cy="0" r="3.5"/>
  <g id="zoomPlus">
    <use xlink:href="#rim" fill="#404040"><set attributeName="fill" to="#808080" begin="zoomplus.mouseover" end="zoomplus.mouseout"/></use>
    <path d="M-4,0h8M0,-4v8" fill="none" stroke="white" stroke-width="1.5" pointer-events="none"/>
  </g>
  <g id="zoomMin">
    <use xlink:href="#rim" fill="#404040"><set attributeName="fill" to="#808080" begin="zoomminus.mouseover" end="zoomminus.mouseout"/></use>
    <path d="M-4,0h8" fill="none" stroke="white" stroke-width="1.5" pointer-events="none"/>
  </g>
  <g id="arrowUp" transform="translate(30 24)">
    <use xlink:href="#rim"/>
    <path pointer-events="none" fill="none" stroke="white" stroke-width="1.5" d="M0,-3.0v7 M-2.5,-0.5L0,-3.0L2.5,-0.5"/>
  </g>
  <g id="arrowRight" transform="rotate(90) translate(36 -43)">
    <use xlink:href="#rim"/>
    <path pointer-events="none" fill="none" stroke="white" stroke-width="1.5" d="M0,-3.0v7 M-2.5,-0.5L0,-3.0L2.5,-0.5"/>
  </g>
  <g id="arrowDown" transform="rotate(180) translate(-30 -48)">
    <use xlink:href="#rim"/>
    <path pointer-events="none" fill="none" stroke="white" stroke-width="1.5" d="M0,-3.0v7 M-2.5,-0.5L0,-3.0L2.5,-0.5"/>
  </g>
  <g id="arrowLeft" transform="rotate(270) translate(-36 17)">
    <use xlink:href="#rim"/>
    <path pointer-events="none" fill="none" stroke="white" stroke-width="1.5" d="M0,-3.0v7 M-2.5,-0.5L0,-3.0L2.5,-0.5"/>
  </g>
  <g id="resetDef">
    <use xlink:href="#rim2" fill="#404040"><set attributeName="fill" to="#808080" begin="reset.mouseover" end="reset.mouseout"/></use>
  </g>
</defs>
<script type="application/ecmascript">
var viewWidth = 1177;
var viewHeight = 346;
var sectionId = 'dynsection-1';
</script>
<script type="application/ecmascript" xlink:href="../../svg.min.js"/>
<svg id="graph" class="graph">
<g id="viewport">
<title>CheckLocalisationPlugin</title>
<!-- Node1 -->
<g id="Node000001" class="node">
<title>Node1</title>
<g id="a_Node000001"><a xlink:title=" ">
<polygon fill="#999999" stroke="#666666" points="181.5,-20 59,-20 59,0 181.5,0 181.5,-20"/>
<text text-anchor="middle" x="120.25" y="-6.5" font-family="Helvetica,sans-Serif" font-size="10.00">CheckLocalisationPlugin</text>
</a>
</g>
</g>
<!-- Node2 -->
<g id="Node000002" class="node">
<title>Node2</title>
<g id="a_Node000002"><a xlink:href="../../d3/d01/class_workbench_plugin.html" target="_top" xlink:title=" ">
<polygon fill="white" stroke="#666666" points="92.5,-88 0,-88 0,-68 92.5,-68 92.5,-88"/>
<text text-anchor="middle" x="46.25" y="-74.5" font-family="Helvetica,sans-Serif" font-size="10.00">WorkbenchPlugin</text>
</a>
</g>
</g>
<!-- Node2&#45;&gt;Node1 -->
<g id="edge1_Node000001_Node000002" class="edge">
<title>Node2&#45;&gt;Node1</title>
<g id="a_edge1_Node000001_Node000002"><a xlink:title=" ">
<path fill="none" stroke="#8b1a1a" d="M65.34,-59.97C79.45,-47.39 98.14,-30.72 109.67,-20.44"/>
<polygon fill="#8b1a1a" stroke="#8b1a1a" points="63.12,-57.27 57.98,-66.54 67.77,-62.49 63.12,-57.27"/>
</a>
</g>
</g>
<!-- Node3 -->
<g id="Node000003" class="node">
<title>Node3</title>
<g id="a_Node000003"><a xlink:href="../../d2/d01/classarray.html" target="_top" xlink:title=" ">
<polygon fill="white" stroke="#666666" points="566.12,-88 486.38,-88 486.38,-68 566.12,-68 566.12,-88"/>
<text text-anchor="middle" x="526.25" y="-74.5" font-family="Helvetica,sans-Serif" font-size="10.00">array&lt; string &gt;</text>
</a>
</g>
</g>
<!-- Node3&#45;&gt;Node1 -->
<g id="edge2_Node000001_Node000003" class="edge">
<title>Node3&#45;&gt;Node1</title>
<g id="a_edge2_Node000001_Node000003"><a xlink:title=" ">
<path fill="none" stroke="#9a32cd" stroke-dasharray="5,2" d="M475.09,-68.68C399.41,-56.38 258.02,-33.4 178.47,-20.46"/>
<polygon fill="#9a32cd" stroke="#9a32cd" points="474.28,-72.1 484.72,-70.25 475.41,-65.19 474.28,-72.1"/>
</a>
</g>
<text text-anchor="middle" x="383.12" y="-40.5" font-family="Helvetica,sans-Serif" font-size="10.00" fill="grey"> m_results</text>
</g>
<!-- Node4 -->
<g id="Node000004" class="node">
<title>Node4</title>
<g id="a_Node000004"><a xlink:href="../../d8/d03/class_object.html" target="_top" xlink:title=" ">
<polygon fill="white" stroke="#666666" points="863.5,-336 819,-336 819,-316 863.5,-316 863.5,-336"/>
<text text-anchor="middle" x="841.25" y="-322.5" font-family="Helvetica,sans-Serif" font-size="10.00">Object</text>
</a>
</g>
</g>
<!-- Node4&#45;&gt;Node3 -->
<g id="edge3_Node000003_Node000004" class="edge">
<title>Node4&#45;&gt;Node3</title>
<g id="a_edge3_Node000003_Node000004"><a xlink:title=" ">
<path fill="none" stroke="#9a32cd" stroke-dasharray="5,2" d="M807.22,-323.38C747.23,-320.18 627.77,-312.1 615.25,-298 594.01,-274.07 603,-255.56 615.25,-226 619.58,-215.55 628.92,-218.45 633.25,-208 645.5,-178.44 649.72,-163.44 633.25,-136 618.41,-111.28 588.81,-96.69 564.5,-88.47"/>
<polygon fill="#9a32cd" stroke="#9a32cd" points="807.04,-326.88 817.21,-323.9 807.4,-319.89 807.04,-326.88"/>
</a>
</g>
<text text-anchor="middle" x="657.75" y="-174.5" font-family="Helvetica,sans-Serif" font-size="10.00" fill="grey"> obj</text>
<text text-anchor="middle" x="657.75" y="-162.5" font-family="Helvetica,sans-Serif" font-size="10.00" fill="grey">parent</text>
</g>
<!-- Node6 -->
<g id="Node000006" class="node">
<title>Node6</title>
<g id="a_Node000006"><a xlink:href="../../d2/d01/classarray.html" target="_top" xlink:title="Result for an object found in CGame.IsBoxCollidingGeometryProxy.">
<polygon fill="white" stroke="#666666" points="924.12,-182 886.38,-182 886.38,-162 924.12,-162 924.12,-182"/>
<text text-anchor="middle" x="905.25" y="-168.5" font-family="Helvetica,sans-Serif" font-size="10.00">array</text>
</a>
</g>
</g>
<!-- Node4&#45;&gt;Node6 -->
<g id="edge6_Node000006_Node000004" class="edge">
<title>Node4&#45;&gt;Node6</title>
<g id="a_edge6_Node000006_Node000004"><a xlink:title=" ">
<path fill="none" stroke="#9a32cd" stroke-dasharray="5,2" d="M851.69,-305.41C852.93,-302.93 854.14,-300.42 855.25,-298 874.71,-255.5 894.28,-203.11 901.91,-182.23"/>
<polygon fill="#9a32cd" stroke="#9a32cd" points="848.59,-303.78 847.1,-314.27 854.81,-307 848.59,-303.78"/>
</a>
</g>
<text text-anchor="middle" x="897.75" y="-264.5" font-family="Helvetica,sans-Serif" font-size="10.00" fill="grey"> obj</text>
<text text-anchor="middle" x="897.75" y="-252.5" font-family="Helvetica,sans-Serif" font-size="10.00" fill="grey">parent</text>
</g>
<!-- Node10 -->
<g id="Node000010" class="node">
<title>Node10</title>
<g id="a_Node000010"><a xlink:href="../../d2/d01/classarray.html" target="_top" xlink:title=" ">
<polygon fill="white" stroke="#666666" points="970.5,-88 884,-88 884,-68 970.5,-68 970.5,-88"/>
<text text-anchor="middle" x="927.25" y="-74.5" font-family="Helvetica,sans-Serif" font-size="10.00">array&lt; Widget &gt;</text>
</a>
</g>
</g>
<!-- Node4&#45;&gt;Node10 -->
<g id="edge14_Node000010_Node000004" class="edge">
<title>Node4&#45;&gt;Node10</title>
<g id="a_edge14_Node000010_Node000004"><a xlink:title=" ">
<path fill="none" stroke="#9a32cd" stroke-dasharray="5,2" d="M836.83,-304.56C830.1,-268.2 820.9,-190.95 850.25,-136 862.24,-113.55 887.4,-97.58 905.71,-88.36"/>
<polygon fill="#9a32cd" stroke="#9a32cd" points="833.35,-305.01 838.75,-314.13 840.22,-303.64 833.35,-305.01"/>
</a>
</g>
<text text-anchor="middle" x="863.75" y="-174.5" font-family="Helvetica,sans-Serif" font-size="10.00" fill="grey"> obj</text>
<text text-anchor="middle" x="863.75" y="-162.5" font-family="Helvetica,sans-Serif" font-size="10.00" fill="grey">parent</text>
</g>
<!-- Node5 -->
<g id="Node000005" class="node">
<title>Node5</title>
<g id="a_Node000005"><a xlink:href="../../db/d06/class_param3.html" target="_top" xlink:title=" ">
<polygon fill="white" stroke="#666666" points="329.12,-336 279.38,-336 279.38,-316 329.12,-316 329.12,-336"/>
<text text-anchor="middle" x="304.25" y="-322.5" font-family="Helvetica,sans-Serif" font-size="10.00">Param3</text>
</a>
</g>
</g>
<!-- Node5&#45;&gt;Node1 -->
<g id="edge24_Node000001_Node000005" class="edge">
<title>Node5&#45;&gt;Node1</title>
<g id="a_edge24_Node000001_Node000005"><a xlink:title=" ">
<path fill="none" stroke="#9a32cd" stroke-dasharray="5,2" d="M267.95,-321.81C250.02,-318.46 229.28,-311.69 215.25,-298 131.64,-216.47 121.61,-59.86 120.41,-20.27"/>
<polygon fill="#9a32cd" stroke="#9a32cd" points="267.32,-325.25 277.73,-323.32 268.38,-318.33 267.32,-325.25"/>
</a>
</g>
<text text-anchor="middle" x="155.25" y="-108.5" font-family="Helvetica,sans-Serif" font-size="10.00" fill="grey"> m_module</text>
</g>
<!-- Node5&#45;&gt;Node3 -->
<g id="edge4_Node000003_Node000005" class="edge">
<title>Node5&#45;&gt;Node3</title>
<g id="a_edge4_Node000003_Node000005"><a xlink:title=" ">
<path fill="none" stroke="#9a32cd" stroke-dasharray="5,2" d="M285.26,-308.41C247.59,-273.54 170.79,-191.28 216,-136 249.59,-94.93 410.05,-83.38 486.1,-80.19"/>
<polygon fill="#9a32cd" stroke="#9a32cd" points="282.6,-310.72 292.36,-314.83 287.29,-305.53 282.6,-310.72"/>
</a>
</g>
<text text-anchor="middle" x="274.38" y="-198.5" font-family="Helvetica,sans-Serif" font-size="10.00" fill="grey"> NO_SORTING</text>
<text text-anchor="middle" x="274.38" y="-186.5" font-family="Helvetica,sans-Serif" font-size="10.00" fill="grey">geomLevel</text>
<text text-anchor="middle" x="274.38" y="-174.5" font-family="Helvetica,sans-Serif" font-size="10.00" fill="grey">hierLevel</text>
<text text-anchor="start" x="216.25" y="-162.5" font-family="Helvetica,sans-Serif" font-size="10.00" fill="grey">m_CurrentSettingAlternate</text>
<text text-anchor="middle" x="274.38" y="-150.5" font-family="Helvetica,sans-Serif" font-size="10.00" fill="grey">KeyIndex</text>
<text text-anchor="middle" x="274.38" y="-138.5" font-family="Helvetica,sans-Serif" font-size="10.00" fill="grey">m_CurrentSettingKeyIndex</text>
</g>
<!-- Node5&#45;&gt;Node6 -->
<g id="edge7_Node000006_Node000005" class="edge">
<title>Node5&#45;&gt;Node6</title>
<g id="a_edge7_Node000006_Node000005"><a xlink:title=" ">
<path fill="none" stroke="#9a32cd" stroke-dasharray="5,2" d="M340.78,-319.25C367.94,-314.59 405.75,-307.28 438.25,-298 526.18,-272.89 541.68,-245.6 631,-226 683.51,-214.48 823.72,-231.12 872.25,-208 884.01,-202.4 893.69,-190.63 899.46,-182.28"/>
<polygon fill="#9a32cd" stroke="#9a32cd" points="340.26,-315.79 330.97,-320.9 341.41,-322.7 340.26,-315.79"/>
</a>
</g>
<text text-anchor="middle" x="689.38" y="-288.5" font-family="Helvetica,sans-Serif" font-size="10.00" fill="grey"> NO_SORTING</text>
<text text-anchor="middle" x="689.38" y="-276.5" font-family="Helvetica,sans-Serif" font-size="10.00" fill="grey">geomLevel</text>
<text text-anchor="middle" x="689.38" y="-264.5" font-family="Helvetica,sans-Serif" font-size="10.00" fill="grey">hierLevel</text>
<text text-anchor="start" x="631.25" y="-252.5" font-family="Helvetica,sans-Serif" font-size="10.00" fill="grey">m_CurrentSettingAlternate</text>
<text text-anchor="middle" x="689.38" y="-240.5" font-family="Helvetica,sans-Serif" font-size="10.00" fill="grey">KeyIndex</text>
<text text-anchor="middle" x="689.38" y="-228.5" font-family="Helvetica,sans-Serif" font-size="10.00" fill="grey">m_CurrentSettingKeyIndex</text>
</g>
<!-- Node5&#45;&gt;Node10 -->
<g id="edge15_Node000010_Node000005" class="edge">
<title>Node5&#45;&gt;Node10</title>
<g id="a_edge15_Node000010_Node000005"><a xlink:title=" ">
<path fill="none" stroke="#9a32cd" stroke-dasharray="5,2" d="M321.58,-307.83C342.78,-286.12 378.73,-246.84 402.25,-208 420.19,-178.38 405.02,-157.7 432,-136 500.97,-80.55 775.78,-77.32 883.56,-78.26"/>
<polygon fill="#9a32cd" stroke="#9a32cd" points="319.34,-305.12 314.8,-314.69 324.32,-310.04 319.34,-305.12"/>
</a>
</g>
<text text-anchor="middle" x="490.38" y="-198.5" font-family="Helvetica,sans-Serif" font-size="10.00" fill="grey"> NO_SORTING</text>
<text text-anchor="middle" x="490.38" y="-186.5" font-family="Helvetica,sans-Serif" font-size="10.00" fill="grey">geomLevel</text>
<text text-anchor="middle" x="490.38" y="-174.5" font-family="Helvetica,sans-Serif" font-size="10.00" fill="grey">hierLevel</text>
<text text-anchor="start" x="432.25" y="-162.5" font-family="Helvetica,sans-Serif" font-size="10.00" fill="grey">m_CurrentSettingAlternate</text>
<text text-anchor="middle" x="490.38" y="-150.5" font-family="Helvetica,sans-Serif" font-size="10.00" fill="grey">KeyIndex</text>
<text text-anchor="middle" x="490.38" y="-138.5" font-family="Helvetica,sans-Serif" font-size="10.00" fill="grey">m_CurrentSettingKeyIndex</text>
</g>
<!-- Node6&#45;&gt;Node3 -->
<g id="edge5_Node000003_Node000006" class="edge">
<title>Node6&#45;&gt;Node3</title>
<g id="a_edge5_Node000003_Node000006"><a xlink:title=" ">
<path fill="none" stroke="#9a32cd" stroke-dasharray="5,2" d="M891.71,-153.07C886.26,-146.9 879.54,-140.43 872.25,-136 821.41,-105.07 646.43,-88.14 566.57,-81.86"/>
<polygon fill="#9a32cd" stroke="#9a32cd" points="888.71,-154.93 897.75,-160.46 894.13,-150.5 888.71,-154.93"/>
</a>
</g>
<text text-anchor="middle" x="839.25" y="-108.5" font-family="Helvetica,sans-Serif" font-size="10.00" fill="grey"> proxyInfo</text>
</g>
<!-- Node6&#45;&gt;Node6 -->
<g id="edge8_Node000006_Node000006" class="edge">
<title>Node6&#45;&gt;Node6</title>
<g id="a_edge8_Node000006_Node000006"><a xlink:title=" ">
<path fill="none" stroke="#9a32cd" stroke-dasharray="5,2" d="M933.27,-182.66C938.47,-181.34 942.12,-177.78 942.12,-172 942.12,-162.51 932.28,-159.02 921.94,-161.54"/>
<polygon fill="#9a32cd" stroke="#9a32cd" points="933.51,-179.17 923.45,-182.48 933.38,-186.16 933.51,-179.17"/>
</a>
</g>
<text text-anchor="middle" x="963.12" y="-168.5" font-family="Helvetica,sans-Serif" font-size="10.00" fill="grey"> proxyInfo</text>
</g>
<!-- Node6&#45;&gt;Node10 -->
<g id="edge16_Node000010_Node000006" class="edge">
<title>Node6&#45;&gt;Node10</title>
<g id="a_edge16_Node000010_Node000006"><a xlink:title=" ">
<path fill="none" stroke="#9a32cd" stroke-dasharray="5,2" d="M935.04,-160.38C953.69,-151.99 976.21,-138.29 987.25,-118 994.67,-104.36 980.54,-94.74 964.14,-88.47"/>
<polygon fill="#9a32cd" stroke="#9a32cd" points="933.91,-157.05 926.02,-164.13 936.6,-163.52 933.91,-157.05"/>
</a>
</g>
<text text-anchor="middle" x="1010.25" y="-108.5" font-family="Helvetica,sans-Serif" font-size="10.00" fill="grey"> proxyInfo</text>
</g>
<!-- Node7 -->
<g id="Node000007" class="node">
<title>Node7</title>
<g id="a_Node000007"><a xlink:href="../../d4/d04/class_class.html" target="_top" xlink:title="Super root of all classes in Enforce script.">
<polygon fill="white" stroke="#666666" points="596.62,-336 555.88,-336 555.88,-316 596.62,-316 596.62,-336"/>
<text text-anchor="middle" x="576.25" y="-322.5" font-family="Helvetica,sans-Serif" font-size="10.00">Class</text>
</a>
</g>
</g>
<!-- Node7&#45;&gt;Node3 -->
<g id="edge21_Node000003_Node000007" class="edge">
<title>Node7&#45;&gt;Node3</title>
<g id="a_edge21_Node000003_Node000007"><a xlink:title=" ">
<path fill="none" stroke="#9a32cd" stroke-dasharray="5,2" d="M544.6,-319.43C492.98,-308.45 392.09,-278.65 349,-208 332.34,-180.68 330.15,-161.86 349,-136 380.22,-93.16 444.19,-81.82 486.13,-79.19"/>
<polygon fill="#9a32cd" stroke="#9a32cd" points="543.74,-322.83 554.24,-321.37 545.12,-315.96 543.74,-322.83"/>
</a>
</g>
<text text-anchor="middle" x="375.88" y="-168.5" font-family="Helvetica,sans-Serif" font-size="10.00" fill="grey"> m_Instance</text>
</g>
<!-- Node7&#45;&gt;Node6 -->
<g id="edge9_Node000006_Node000007" class="edge">
<title>Node7&#45;&gt;Node6</title>
<g id="a_edge9_Node000006_Node000007"><a xlink:title=" ">
<path fill="none" stroke="#9a32cd" stroke-dasharray="5,2" d="M608.51,-323.16C652.44,-320.13 728.24,-312.88 751.25,-298 783.29,-277.28 766.87,-248.06 798,-226 825.71,-206.37 842.89,-225.06 872.25,-208 883.23,-201.62 892.8,-190.48 898.77,-182.48"/>
<polygon fill="#9a32cd" stroke="#9a32cd" points="608.3,-319.66 598.55,-323.81 608.75,-326.65 608.3,-319.66"/>
</a>
</g>
<text text-anchor="middle" x="823.88" y="-258.5" font-family="Helvetica,sans-Serif" font-size="10.00" fill="grey"> m_Instance</text>
</g>
<!-- Node7&#45;&gt;Node10 -->
<g id="edge17_Node000010_Node000007" class="edge">
<title>Node7&#45;&gt;Node10</title>
<g id="a_edge17_Node000010_Node000007"><a xlink:title=" ">
<path fill="none" stroke="#9a32cd" stroke-dasharray="5,2" d="M568.78,-305.12C555.97,-267.25 534.94,-184.26 576,-136 615.03,-90.12 798.4,-81.06 883.57,-79.35"/>
<polygon fill="#9a32cd" stroke="#9a32cd" points="565.4,-306.06 572.05,-314.3 571.99,-303.71 565.4,-306.06"/>
</a>
</g>
<text text-anchor="middle" x="602.88" y="-168.5" font-family="Helvetica,sans-Serif" font-size="10.00" fill="grey"> m_Instance</text>
</g>
<!-- Node8 -->
<g id="Node000008" class="node">
<title>Node8</title>
<g id="a_Node000008"><a xlink:href="../../d5/d02/classstring.html" target="_top" xlink:title=" ">
<polygon fill="white" stroke="#666666" points="969.25,-336 929.25,-336 929.25,-316 969.25,-316 969.25,-336"/>
<text text-anchor="middle" x="949.25" y="-322.5" font-family="Helvetica,sans-Serif" font-size="10.00">string</text>
</a>
</g>
</g>
<!-- Node8&#45;&gt;Node3 -->
<g id="edge22_Node000003_Node000008" class="edge">
<title>Node8&#45;&gt;Node3</title>
<g id="a_edge22_Node000003_Node000008"><a xlink:title=" ">
<path fill="none" stroke="#9a32cd" stroke-dasharray="5,2" d="M918.03,-318.68C904.94,-314.66 890.44,-308.21 880.25,-298 856,-273.7 877.54,-249.22 852.25,-226 831.35,-206.81 816.89,-219.6 791,-208 711.71,-172.48 704.26,-139.85 624.25,-106 605.72,-98.16 584.26,-91.95 566.15,-87.47"/>
<polygon fill="#9a32cd" stroke="#9a32cd" points="916.99,-322.02 927.55,-321.23 918.8,-315.26 916.99,-322.02"/>
</a>
</g>
<text text-anchor="middle" x="807.88" y="-168.5" font-family="Helvetica,sans-Serif" font-size="10.00" fill="grey"> m_Test</text>
</g>
<!-- Node8&#45;&gt;Node6 -->
<g id="edge10_Node000006_Node000008" class="edge">
<title>Node8&#45;&gt;Node6</title>
<g id="a_edge10_Node000006_Node000008"><a xlink:title=" ">
<path fill="none" stroke="#9a32cd" stroke-dasharray="5,2" d="M945.75,-304.34C942.07,-284.12 935.65,-252.57 927.25,-226 922.27,-210.23 914.5,-192.63 909.65,-182.2"/>
<polygon fill="#9a32cd" stroke="#9a32cd" points="942.28,-304.84 947.46,-314.08 949.18,-303.63 942.28,-304.84"/>
</a>
</g>
<text text-anchor="middle" x="960.88" y="-258.5" font-family="Helvetica,sans-Serif" font-size="10.00" fill="grey"> m_Test</text>
</g>
<!-- Node8&#45;&gt;Node8 -->
<g id="edge11_Node000008_Node000008" class="edge">
<title>Node8&#45;&gt;Node8</title>
<g id="a_edge11_Node000008_Node000008"><a xlink:title=" ">
<path fill="none" stroke="#9a32cd" stroke-dasharray="5,2" d="M975.02,-337.91C981.97,-337.28 987.25,-333.31 987.25,-326 987.25,-315.12 975.55,-311.64 964.07,-315.55"/>
<polygon fill="#9a32cd" stroke="#9a32cd" points="975.95,-334.5 965.57,-336.65 975.02,-341.44 975.95,-334.5"/>
</a>
</g>
<text text-anchor="middle" x="1003" y="-322.5" font-family="Helvetica,sans-Serif" font-size="10.00" fill="grey"> Empty</text>
</g>
<!-- Node8&#45;&gt;Node10 -->
<g id="edge18_Node000010_Node000008" class="edge">
<title>Node8&#45;&gt;Node10</title>
<g id="a_edge18_Node000010_Node000008"><a xlink:title=" ">
<path fill="none" stroke="#9a32cd" stroke-dasharray="5,2" d="M981.15,-324.39C1002.34,-322.22 1029.14,-315.78 1045.25,-298 1093.84,-244.39 1086.54,-203.79 1061.25,-136 1048.04,-100.59 1004.56,-87.1 970.67,-82"/>
<polygon fill="#9a32cd" stroke="#9a32cd" points="980.98,-320.89 971.25,-325.11 981.48,-327.87 980.98,-320.89"/>
</a>
</g>
<text text-anchor="middle" x="1097.88" y="-168.5" font-family="Helvetica,sans-Serif" font-size="10.00" fill="grey"> m_Test</text>
</g>
<!-- Node9 -->
<g id="Node000009" class="node">
<title>Node9</title>
<g id="a_Node000009"><a xlink:href="../../dd/d0a/class_widget.html" target="_top" xlink:title=" ">
<polygon fill="white" stroke="#666666" points="1107.62,-336 1060.88,-336 1060.88,-316 1107.62,-316 1107.62,-336"/>
<text text-anchor="middle" x="1084.25" y="-322.5" font-family="Helvetica,sans-Serif" font-size="10.00">Widget</text>
</a>
</g>
</g>
<!-- Node9&#45;&gt;Node3 -->
<g id="edge23_Node000003_Node000009" class="edge">
<title>Node9&#45;&gt;Node3</title>
<g id="a_edge23_Node000003_Node000009"><a xlink:title=" ">
<path fill="none" stroke="#9a32cd" stroke-dasharray="5,2" d="M1087.08,-304.33C1088.89,-282.45 1088.18,-248.08 1070.25,-226 1055.43,-207.75 1037.25,-224.5 1020.5,-208 996.13,-183.98 1019.08,-158.44 993.25,-136 965.73,-112.1 948.73,-126.33 913.25,-118 891.42,-112.87 886.39,-109.57 864.25,-106 757.61,-88.8 630.18,-82.38 566.56,-80.13"/>
<polygon fill="#9a32cd" stroke="#9a32cd" points="1083.63,-303.76 1086,-314.08 1090.58,-304.53 1083.63,-303.76"/>
</a>
</g>
<text text-anchor="middle" x="1038.62" y="-168.5" font-family="Helvetica,sans-Serif" font-size="10.00" fill="grey"> m_Root</text>
</g>
<!-- Node9&#45;&gt;Node6 -->
<g id="edge12_Node000006_Node000009" class="edge">
<title>Node9&#45;&gt;Node6</title>
<g id="a_edge12_Node000006_Node000009"><a xlink:title=" ">
<path fill="none" stroke="#9a32cd" stroke-dasharray="5,2" d="M1051.53,-310.48C1045.19,-306.9 1038.86,-302.71 1033.5,-298 1003.98,-272.08 1010.24,-253.55 982.25,-226 963.98,-208.01 938.93,-192.04 922.43,-182.45"/>
<polygon fill="#9a32cd" stroke="#9a32cd" points="1049.53,-313.39 1060.01,-314.92 1052.77,-307.18 1049.53,-313.39"/>
</a>
</g>
<text text-anchor="middle" x="1051.62" y="-258.5" font-family="Helvetica,sans-Serif" font-size="10.00" fill="grey"> m_Root</text>
</g>
<!-- Node9&#45;&gt;Node10 -->
<g id="edge19_Node000010_Node000009" class="edge">
<title>Node9&#45;&gt;Node10</title>
<g id="a_edge19_Node000010_Node000009"><a xlink:title=" ">
<path fill="none" stroke="#9a32cd" stroke-dasharray="5,2" d="M1095.77,-306.23C1116.18,-270.3 1153.47,-190.57 1119.25,-136 1103.36,-110.67 1022.15,-93.64 970.57,-85.2"/>
<polygon fill="#9a32cd" stroke="#9a32cd" points="1092.91,-304.19 1090.85,-314.59 1098.94,-307.75 1092.91,-304.19"/>
</a>
</g>
<text text-anchor="middle" x="1150.62" y="-168.5" font-family="Helvetica,sans-Serif" font-size="10.00" fill="grey"> m_Root</text>
</g>
<!-- Node10&#45;&gt;Node6 -->
<g id="edge13_Node000006_Node000010" class="edge">
<title>Node10&#45;&gt;Node6</title>
<g id="a_edge13_Node000006_Node000010"><a xlink:title=" ">
<path fill="none" stroke="#9a32cd" stroke-dasharray="5,2" d="M922.41,-99.24C917.78,-118.59 911.01,-146.89 907.52,-161.5"/>
<polygon fill="#9a32cd" stroke="#9a32cd" points="925.75,-100.32 924.67,-89.78 918.94,-98.69 925.75,-100.32"/>
</a>
</g>
<text text-anchor="middle" x="951.75" y="-108.5" font-family="Helvetica,sans-Serif" font-size="10.00" fill="grey"> m_Subgroups</text>
</g>
<!-- Node10&#45;&gt;Node10 -->
<g id="edge20_Node000010_Node000010" class="edge">
<title>Node10&#45;&gt;Node10</title>
<g id="a_edge20_Node000010_Node000010"><a xlink:title=" ">
<path fill="none" stroke="#9a32cd" stroke-dasharray="5,2" d="M981.88,-82.76C985.98,-81.7 988.5,-80.11 988.5,-78 988.5,-74.35 980.96,-72.26 970.74,-71.75"/>
<polygon fill="#9a32cd" stroke="#9a32cd" points="981.69,-79.26 972.24,-84.05 982.62,-86.19 981.69,-79.26"/>
</a>
</g>
<text text-anchor="middle" x="1020" y="-74.5" font-family="Helvetica,sans-Serif" font-size="10.00" fill="grey"> m_Subgroups</text>
</g>
</g>
</svg>

<g id="navigator" transform="translate(0 0)" fill="#404254">
  <rect fill="#f2f5e9" fill-opacity="0.5" stroke="#606060" stroke-width=".5" x="0" y="0" width="60" height="60"/>
  <use id="zoomplus" xlink:href="#zoomPlus" x="17" y="9" onmousedown="handleZoom(evt,'in')"/>
  <use id="zoomminus" xlink:href="#zoomMin" x="42" y="9" onmousedown="handleZoom(evt,'out')"/>
  <use id="reset" xlink:href="#resetDef" x="30" y="36" onmousedown="handleReset()"/>
   <use id="arrowup" xlink:href="#arrowUp" x="0" y="0" onmousedown="handlePan(0,-1)"/>
  <use id="arrowright" xlink:href="#arrowRight" x="0" y="0" onmousedown="handlePan(1,0)"/>
  <use id="arrowdown" xlink:href="#arrowDown" x="0" y="0" onmousedown="handlePan(0,1)"/>
  <use id="arrowleft" xlink:href="#arrowLeft" x="0" y="0" onmousedown="handlePan(-1,0)"/>
</g>
<svg viewBox="0 0 15 15" width="100%" height="30px" preserveAspectRatio="xMaxYMin meet">
 <g id="arrow_out" transform="scale(0.3 0.3)">
  <a xlink:href="class_check_localisation_plugin__coll__graph_org.svg" target="_base">
   <rect id="button" ry="5" rx="5" y="6" x="6" height="38" width="38"
        fill="#f2f5e9" fill-opacity="0.5" stroke="#606060" stroke-width="1.0"/>
   <path id="arrow"
     d="M 11.500037,31.436501 C 11.940474,20.09759 22.043105,11.32322 32.158766,21.979434 L 37.068811,17.246167 C 37.068811,17.246167 37.088388,32 37.088388,32 L 22.160133,31.978069 C 22.160133,31.978069 26.997745,27.140456 26.997745,27.140456 C 18.528582,18.264221 13.291696,25.230495 11.500037,31.436501 z"
     style="fill:#404040;"/>
  </a>
 </g>
</svg>

<style type='text/css'>
<![CDATA[
[data-mouse-over-selected='false'] { opacity: 0.7; }
[data-mouse-over-selected='true']  { opacity: 1.0; }
]]>
</style>
<script type="application/ecmascript"><![CDATA[
document.addEventListener('DOMContentLoaded', (event) => {
  highlightEdges();
  highlightAdjacentNodes();
});
]]></script>
</svg>
