<?xml version="1.0" encoding="UTF-8" standalone="no"?>
<!DOCTYPE svg PUBLIC "-//W3C//DTD SVG 1.1//EN"
 "http://www.w3.org/Graphics/SVG/1.1/DTD/svg11.dtd">
<!-- Generated by graphviz version 11.0.0 (20240428.1522)
 -->
<!-- Title: VegetationSound Pages: 1 -->
<svg width="736pt" height="278pt"
 viewBox="0.00 0.00 735.88 277.91" xmlns="http://www.w3.org/2000/svg" xmlns:xlink="http://www.w3.org/1999/xlink">
<g id="graph0" class="graph" transform="scale(1 1) rotate(0) translate(4 273.91)">
<title>VegetationSound</title>
<!-- Node1 -->
<g id="Node000001" class="node">
<title>Node1</title>
<g id="a_Node000001"><a xlink:title=" ">
<polygon fill="#999999" stroke="#666666" points="217.25,-20 127,-20 127,0 217.25,0 217.25,-20"/>
<text text-anchor="middle" x="172.12" y="-6.5" font-family="Helvetica,sans-Serif" font-size="10.00">VegetationSound</text>
</a>
</g>
</g>
<!-- Node2 -->
<g id="Node000002" class="node">
<title>Node2</title>
<g id="a_Node000002"><a xlink:href="../../d5/d09/class_sound_object_builder.html" target="_top" xlink:title=" ">
<polygon fill="white" stroke="#666666" points="102.25,-114 0,-114 0,-94 102.25,-94 102.25,-114"/>
<text text-anchor="middle" x="51.12" y="-100.5" font-family="Helvetica,sans-Serif" font-size="10.00">SoundObjectBuilder</text>
</a>
</g>
</g>
<!-- Node2&#45;&gt;Node1 -->
<g id="edge1_Node000001_Node000002" class="edge">
<title>Node2&#45;&gt;Node1</title>
<g id="a_edge1_Node000001_Node000002"><a xlink:title=" ">
<path fill="none" stroke="#9a32cd" stroke-dasharray="5,2" d="M45.55,-82.83C42.96,-68.74 42.33,-50.31 52.38,-38 61.84,-26.4 96.98,-19.4 126.77,-15.44"/>
<polygon fill="#9a32cd" stroke="#9a32cd" points="42.1,-83.42 47.78,-92.36 48.91,-81.83 42.1,-83.42"/>
</a>
</g>
<text text-anchor="middle" x="104.5" y="-40.5" font-family="Helvetica,sans-Serif" font-size="10.00" fill="grey"> m_SoundObjectBuilder</text>
</g>
<!-- Node3 -->
<g id="Node000003" class="node">
<title>Node3</title>
<g id="a_Node000003"><a xlink:href="../../d2/d01/classarray.html" target="_top" xlink:title="Result for an object found in CGame.IsBoxCollidingGeometryProxy.">
<polygon fill="white" stroke="#666666" points="439,-114 401.25,-114 401.25,-94 439,-94 439,-114"/>
<text text-anchor="middle" x="420.12" y="-100.5" font-family="Helvetica,sans-Serif" font-size="10.00">array</text>
</a>
</g>
</g>
<!-- Node3&#45;&gt;Node1 -->
<g id="edge2_Node000001_Node000003" class="edge">
<title>Node3&#45;&gt;Node1</title>
<g id="a_edge2_Node000001_Node000003"><a xlink:title=" ">
<path fill="none" stroke="#9a32cd" stroke-dasharray="5,2" d="M400.87,-86.55C392.48,-80.04 382.25,-72.94 372.12,-68 364.54,-64.3 261.32,-35.59 206.23,-20.38"/>
<polygon fill="#9a32cd" stroke="#9a32cd" points="398.62,-89.23 408.6,-92.81 403.03,-83.8 398.62,-89.23"/>
</a>
</g>
<text text-anchor="middle" x="347" y="-40.5" font-family="Helvetica,sans-Serif" font-size="10.00" fill="grey"> m_AnimEventIds</text>
</g>
<!-- Node3&#45;&gt;Node3 -->
<g id="edge5_Node000003_Node000003" class="edge">
<title>Node3&#45;&gt;Node3</title>
<g id="a_edge5_Node000003_Node000003"><a xlink:title=" ">
<path fill="none" stroke="#9a32cd" stroke-dasharray="5,2" d="M448.15,-114.66C453.34,-113.34 457,-109.78 457,-104 457,-94.51 447.16,-91.02 436.81,-93.54"/>
<polygon fill="#9a32cd" stroke="#9a32cd" points="448.39,-111.17 438.32,-114.48 448.26,-118.16 448.39,-111.17"/>
</a>
</g>
<text text-anchor="middle" x="478" y="-100.5" font-family="Helvetica,sans-Serif" font-size="10.00" fill="grey"> proxyInfo</text>
</g>
<!-- Node9 -->
<g id="Node000009" class="node">
<title>Node9</title>
<g id="a_Node000009"><a xlink:href="../../d2/d01/classarray.html" target="_top" xlink:title=" ">
<polygon fill="white" stroke="#666666" points="503.38,-20 416.88,-20 416.88,0 503.38,0 503.38,-20"/>
<text text-anchor="middle" x="460.12" y="-6.5" font-family="Helvetica,sans-Serif" font-size="10.00">array&lt; Widget &gt;</text>
</a>
</g>
</g>
<!-- Node3&#45;&gt;Node9 -->
<g id="edge13_Node000009_Node000003" class="edge">
<title>Node3&#45;&gt;Node9</title>
<g id="a_edge13_Node000009_Node000003"><a xlink:title=" ">
<path fill="none" stroke="#9a32cd" stroke-dasharray="5,2" d="M405.17,-84.61C396.01,-70.96 387.69,-52.31 397.12,-38 402.37,-30.05 410.48,-24.44 419.17,-20.47"/>
<polygon fill="#9a32cd" stroke="#9a32cd" points="402.1,-86.34 410.86,-92.31 407.74,-82.18 402.1,-86.34"/>
</a>
</g>
<text text-anchor="middle" x="418.12" y="-40.5" font-family="Helvetica,sans-Serif" font-size="10.00" fill="grey"> proxyInfo</text>
</g>
<!-- Node4 -->
<g id="Node000004" class="node">
<title>Node4</title>
<g id="a_Node000004"><a xlink:href="../../d8/d03/class_object.html" target="_top" xlink:title=" ">
<polygon fill="white" stroke="#666666" points="583.38,-268 538.88,-268 538.88,-248 583.38,-248 583.38,-268"/>
<text text-anchor="middle" x="561.12" y="-254.5" font-family="Helvetica,sans-Serif" font-size="10.00">Object</text>
</a>
</g>
</g>
<!-- Node4&#45;&gt;Node3 -->
<g id="edge3_Node000003_Node000004" class="edge">
<title>Node4&#45;&gt;Node3</title>
<g id="a_edge3_Node000003_Node000004"><a xlink:title=" ">
<path fill="none" stroke="#9a32cd" stroke-dasharray="5,2" d="M547.07,-238.81C531.09,-218.47 503.86,-184.86 478.12,-158 462.65,-141.85 443.2,-124.64 431.22,-114.36"/>
<polygon fill="#9a32cd" stroke="#9a32cd" points="544.12,-240.72 553.03,-246.45 549.64,-236.41 544.12,-240.72"/>
</a>
</g>
<text text-anchor="middle" x="552.62" y="-196.5" font-family="Helvetica,sans-Serif" font-size="10.00" fill="grey"> obj</text>
<text text-anchor="middle" x="552.62" y="-184.5" font-family="Helvetica,sans-Serif" font-size="10.00" fill="grey">parent</text>
</g>
<!-- Node4&#45;&gt;Node9 -->
<g id="edge11_Node000009_Node000004" class="edge">
<title>Node4&#45;&gt;Node9</title>
<g id="a_edge11_Node000009_Node000004"><a xlink:title=" ">
<path fill="none" stroke="#9a32cd" stroke-dasharray="5,2" d="M571.64,-237.76C589.79,-201.68 622.06,-122.56 589.12,-68 571.22,-38.34 533.7,-24.05 503.71,-17.21"/>
<polygon fill="#9a32cd" stroke="#9a32cd" points="568.78,-235.68 567.24,-246.16 574.98,-238.92 568.78,-235.68"/>
</a>
</g>
<text text-anchor="middle" x="616.62" y="-106.5" font-family="Helvetica,sans-Serif" font-size="10.00" fill="grey"> obj</text>
<text text-anchor="middle" x="616.62" y="-94.5" font-family="Helvetica,sans-Serif" font-size="10.00" fill="grey">parent</text>
</g>
<!-- Node5 -->
<g id="Node000005" class="node">
<title>Node5</title>
<g id="a_Node000005"><a xlink:href="../../db/d06/class_param3.html" target="_top" xlink:title=" ">
<polygon fill="white" stroke="#666666" points="308,-268 258.25,-268 258.25,-248 308,-248 308,-268"/>
<text text-anchor="middle" x="283.12" y="-254.5" font-family="Helvetica,sans-Serif" font-size="10.00">Param3</text>
</a>
</g>
</g>
<!-- Node5&#45;&gt;Node3 -->
<g id="edge4_Node000003_Node000005" class="edge">
<title>Node5&#45;&gt;Node3</title>
<g id="a_edge4_Node000003_Node000005"><a xlink:title=" ">
<path fill="none" stroke="#9a32cd" stroke-dasharray="5,2" d="M278.33,-236.68C274.4,-214.58 272.16,-179.53 290.88,-158 315.14,-130.08 338.41,-155.22 372.12,-140 386.41,-133.55 400.66,-122.42 409.87,-114.44"/>
<polygon fill="#9a32cd" stroke="#9a32cd" points="274.85,-237.17 280.31,-246.25 281.71,-235.75 274.85,-237.17"/>
</a>
</g>
<text text-anchor="middle" x="349.25" y="-220.5" font-family="Helvetica,sans-Serif" font-size="10.00" fill="grey"> NO_SORTING</text>
<text text-anchor="middle" x="349.25" y="-208.5" font-family="Helvetica,sans-Serif" font-size="10.00" fill="grey">geomLevel</text>
<text text-anchor="middle" x="349.25" y="-196.5" font-family="Helvetica,sans-Serif" font-size="10.00" fill="grey">hierLevel</text>
<text text-anchor="start" x="291.12" y="-184.5" font-family="Helvetica,sans-Serif" font-size="10.00" fill="grey">m_CurrentSettingAlternate</text>
<text text-anchor="middle" x="349.25" y="-172.5" font-family="Helvetica,sans-Serif" font-size="10.00" fill="grey">KeyIndex</text>
<text text-anchor="middle" x="349.25" y="-160.5" font-family="Helvetica,sans-Serif" font-size="10.00" fill="grey">m_CurrentSettingKeyIndex</text>
</g>
<!-- Node5&#45;&gt;Node9 -->
<g id="edge12_Node000009_Node000005" class="edge">
<title>Node5&#45;&gt;Node9</title>
<g id="a_edge12_Node000009_Node000005"><a xlink:title=" ">
<path fill="none" stroke="#9a32cd" stroke-dasharray="5,2" d="M273.91,-237.36C255.63,-195.17 220.61,-95.05 270.12,-38 288.69,-16.61 366.38,-11.72 416.49,-10.85"/>
<polygon fill="#9a32cd" stroke="#9a32cd" points="270.62,-238.58 277.92,-246.27 277,-235.71 270.62,-238.58"/>
</a>
</g>
<text text-anchor="middle" x="310.25" y="-130.5" font-family="Helvetica,sans-Serif" font-size="10.00" fill="grey"> NO_SORTING</text>
<text text-anchor="middle" x="310.25" y="-118.5" font-family="Helvetica,sans-Serif" font-size="10.00" fill="grey">geomLevel</text>
<text text-anchor="middle" x="310.25" y="-106.5" font-family="Helvetica,sans-Serif" font-size="10.00" fill="grey">hierLevel</text>
<text text-anchor="start" x="252.12" y="-94.5" font-family="Helvetica,sans-Serif" font-size="10.00" fill="grey">m_CurrentSettingAlternate</text>
<text text-anchor="middle" x="310.25" y="-82.5" font-family="Helvetica,sans-Serif" font-size="10.00" fill="grey">KeyIndex</text>
<text text-anchor="middle" x="310.25" y="-70.5" font-family="Helvetica,sans-Serif" font-size="10.00" fill="grey">m_CurrentSettingKeyIndex</text>
</g>
<!-- Node6 -->
<g id="Node000006" class="node">
<title>Node6</title>
<g id="a_Node000006"><a xlink:href="../../d4/d04/class_class.html" target="_top" xlink:title="Super root of all classes in Enforce script.">
<polygon fill="white" stroke="#666666" points="482.5,-268 441.75,-268 441.75,-248 482.5,-248 482.5,-268"/>
<text text-anchor="middle" x="462.12" y="-254.5" font-family="Helvetica,sans-Serif" font-size="10.00">Class</text>
</a>
</g>
</g>
<!-- Node6&#45;&gt;Node3 -->
<g id="edge6_Node000003_Node000006" class="edge">
<title>Node6&#45;&gt;Node3</title>
<g id="a_edge6_Node000003_Node000006"><a xlink:title=" ">
<path fill="none" stroke="#9a32cd" stroke-dasharray="5,2" d="M433.66,-240.86C430.16,-237.7 427.06,-234.08 424.88,-230 404.3,-191.5 413.11,-136.4 417.84,-114.5"/>
<polygon fill="#9a32cd" stroke="#9a32cd" points="431.54,-243.65 441.64,-246.84 435.74,-238.04 431.54,-243.65"/>
</a>
</g>
<text text-anchor="middle" x="450.75" y="-190.5" font-family="Helvetica,sans-Serif" font-size="10.00" fill="grey"> m_Instance</text>
</g>
<!-- Node6&#45;&gt;Node9 -->
<g id="edge14_Node000009_Node000006" class="edge">
<title>Node6&#45;&gt;Node9</title>
<g id="a_edge14_Node000009_Node000006"><a xlink:title=" ">
<path fill="none" stroke="#9a32cd" stroke-dasharray="5,2" d="M493.89,-251.92C506.76,-248.14 520.39,-241.53 528.12,-230 545.96,-203.43 529.85,-189.95 528.12,-158 525.23,-104.43 545.91,-81.93 515.12,-38 509.63,-30.16 501.2,-24.49 492.58,-20.45"/>
<polygon fill="#9a32cd" stroke="#9a32cd" points="493.31,-248.46 484.42,-254.22 494.96,-255.27 493.31,-248.46"/>
</a>
</g>
<text text-anchor="middle" x="558.75" y="-100.5" font-family="Helvetica,sans-Serif" font-size="10.00" fill="grey"> m_Instance</text>
</g>
<!-- Node7 -->
<g id="Node000007" class="node">
<title>Node7</title>
<g id="a_Node000007"><a xlink:href="../../d5/d02/classstring.html" target="_top" xlink:title=" ">
<polygon fill="white" stroke="#666666" points="190.12,-268 150.12,-268 150.12,-248 190.12,-248 190.12,-268"/>
<text text-anchor="middle" x="170.12" y="-254.5" font-family="Helvetica,sans-Serif" font-size="10.00">string</text>
</a>
</g>
</g>
<!-- Node7&#45;&gt;Node3 -->
<g id="edge7_Node000003_Node000007" class="edge">
<title>Node7&#45;&gt;Node3</title>
<g id="a_edge7_Node000003_Node000007"><a xlink:title=" ">
<path fill="none" stroke="#9a32cd" stroke-dasharray="5,2" d="M177.62,-237.05C187.44,-213.89 207.02,-176.51 236.88,-158 288.42,-126.05 315.84,-162.56 372.12,-140 386.87,-134.09 401.24,-122.63 410.36,-114.43"/>
<polygon fill="#9a32cd" stroke="#9a32cd" points="174.39,-235.7 173.93,-246.29 180.89,-238.3 174.39,-235.7"/>
</a>
</g>
<text text-anchor="middle" x="254.75" y="-190.5" font-family="Helvetica,sans-Serif" font-size="10.00" fill="grey"> m_Test</text>
</g>
<!-- Node7&#45;&gt;Node7 -->
<g id="edge8_Node000007_Node000007" class="edge">
<title>Node7&#45;&gt;Node7</title>
<g id="a_edge8_Node000007_Node000007"><a xlink:title=" ">
<path fill="none" stroke="#9a32cd" stroke-dasharray="5,2" d="M195.89,-269.91C202.84,-269.28 208.12,-265.31 208.12,-258 208.12,-247.12 196.42,-243.64 184.95,-247.55"/>
<polygon fill="#9a32cd" stroke="#9a32cd" points="196.82,-266.5 186.45,-268.65 195.9,-273.44 196.82,-266.5"/>
</a>
</g>
<text text-anchor="middle" x="223.88" y="-254.5" font-family="Helvetica,sans-Serif" font-size="10.00" fill="grey"> Empty</text>
</g>
<!-- Node7&#45;&gt;Node9 -->
<g id="edge15_Node000009_Node000007" class="edge">
<title>Node7&#45;&gt;Node9</title>
<g id="a_edge15_Node000009_Node000007"><a xlink:title=" ">
<path fill="none" stroke="#9a32cd" stroke-dasharray="5,2" d="M168.36,-236.16C166.31,-198.55 167.23,-118.55 205.88,-68 222.37,-46.42 233.37,-46.63 259.12,-38 311.54,-20.44 375.26,-14.26 416.71,-12.11"/>
<polygon fill="#9a32cd" stroke="#9a32cd" points="164.87,-236.33 169.05,-246.07 171.85,-235.85 164.87,-236.33"/>
</a>
</g>
<text text-anchor="middle" x="223.75" y="-100.5" font-family="Helvetica,sans-Serif" font-size="10.00" fill="grey"> m_Test</text>
</g>
<!-- Node8 -->
<g id="Node000008" class="node">
<title>Node8</title>
<g id="a_Node000008"><a xlink:href="../../dd/d0a/class_widget.html" target="_top" xlink:title=" ">
<polygon fill="white" stroke="#666666" points="709.5,-268 662.75,-268 662.75,-248 709.5,-248 709.5,-268"/>
<text text-anchor="middle" x="686.12" y="-254.5" font-family="Helvetica,sans-Serif" font-size="10.00">Widget</text>
</a>
</g>
</g>
<!-- Node8&#45;&gt;Node3 -->
<g id="edge9_Node000003_Node000008" class="edge">
<title>Node8&#45;&gt;Node3</title>
<g id="a_edge9_Node000003_Node000008"><a xlink:title=" ">
<path fill="none" stroke="#9a32cd" stroke-dasharray="5,2" d="M669.8,-239.39C648.68,-217.55 609.86,-180.44 570.12,-158 548.1,-145.56 540.01,-148.33 516.12,-140 489.33,-130.65 458.53,-119.32 439.19,-112.13"/>
<polygon fill="#9a32cd" stroke="#9a32cd" points="667.25,-241.8 676.68,-246.64 672.33,-236.98 667.25,-241.8"/>
</a>
</g>
<text text-anchor="middle" x="677.5" y="-190.5" font-family="Helvetica,sans-Serif" font-size="10.00" fill="grey"> m_Root</text>
</g>
<!-- Node8&#45;&gt;Node9 -->
<g id="edge16_Node000009_Node000008" class="edge">
<title>Node8&#45;&gt;Node9</title>
<g id="a_edge16_Node000009_Node000008"><a xlink:title=" ">
<path fill="none" stroke="#9a32cd" stroke-dasharray="5,2" d="M695.98,-237.33C696.86,-234.91 697.61,-232.43 698.12,-230 704.77,-198.7 707.86,-188.48 698.12,-158 683.2,-111.24 670.83,-100.59 634.12,-68 597.52,-35.5 541.99,-21.48 503.55,-15.46"/>
<polygon fill="#9a32cd" stroke="#9a32cd" points="692.79,-235.88 691.96,-246.45 699.2,-238.71 692.79,-235.88"/>
</a>
</g>
<text text-anchor="middle" x="709.5" y="-100.5" font-family="Helvetica,sans-Serif" font-size="10.00" fill="grey"> m_Root</text>
</g>
<!-- Node9&#45;&gt;Node3 -->
<g id="edge10_Node000003_Node000009" class="edge">
<title>Node9&#45;&gt;Node3</title>
<g id="a_edge10_Node000003_Node000009"><a xlink:title=" ">
<path fill="none" stroke="#9a32cd" stroke-dasharray="5,2" d="M451.56,-30.7C443.15,-50.05 430.67,-78.76 424.26,-93.5"/>
<polygon fill="#9a32cd" stroke="#9a32cd" points="454.7,-32.26 455.47,-21.7 448.28,-29.47 454.7,-32.26"/>
</a>
</g>
<text text-anchor="middle" x="479.62" y="-40.5" font-family="Helvetica,sans-Serif" font-size="10.00" fill="grey"> m_Subgroups</text>
</g>
<!-- Node9&#45;&gt;Node9 -->
<g id="edge17_Node000009_Node000009" class="edge">
<title>Node9&#45;&gt;Node9</title>
<g id="a_edge17_Node000009_Node000009"><a xlink:title=" ">
<path fill="none" stroke="#9a32cd" stroke-dasharray="5,2" d="M514.75,-14.76C518.86,-13.7 521.38,-12.11 521.38,-10 521.38,-6.35 513.84,-4.26 503.62,-3.75"/>
<polygon fill="#9a32cd" stroke="#9a32cd" points="514.57,-11.26 505.12,-16.05 515.49,-18.19 514.57,-11.26"/>
</a>
</g>
<text text-anchor="middle" x="552.88" y="-6.5" font-family="Helvetica,sans-Serif" font-size="10.00" fill="grey"> m_Subgroups</text>
</g>
</g>
</svg>
