<?xml version="1.0" encoding="UTF-8" standalone="no"?>
<!DOCTYPE svg PUBLIC "-//W3C//DTD SVG 1.1//EN"
 "http://www.w3.org/Graphics/SVG/1.1/DTD/svg11.dtd">
<!-- Generated by graphviz version 11.0.0 (20240428.1522)
 -->
<!-- Title: OptionSelectorBase Pages: 1 -->
<svg width="1399pt" height="386pt"
 viewBox="0.00 0.00 1399.35 385.91" xmlns="http://www.w3.org/2000/svg" xmlns:xlink="http://www.w3.org/1999/xlink">
<g id="graph0" class="graph" transform="scale(1 1) rotate(0) translate(4 381.91)">
<title>OptionSelectorBase</title>
<!-- Node1 -->
<g id="Node000001" class="node">
<title>Node1</title>
<g id="a_Node000001"><a xlink:title=" ">
<polygon fill="#999999" stroke="#666666" points="1158.6,-20 1055.6,-20 1055.6,0 1158.6,0 1158.6,-20"/>
<text text-anchor="middle" x="1107.1" y="-6.5" font-family="Helvetica,sans-Serif" font-size="10.00">OptionSelectorBase</text>
</a>
</g>
</g>
<!-- Node2 -->
<g id="Node000002" class="node">
<title>Node2</title>
<g id="a_Node000002"><a xlink:href="../../dd/d0a/class_widget.html" target="_top" xlink:title=" ">
<polygon fill="white" stroke="#666666" points="1005.47,-376 958.72,-376 958.72,-356 1005.47,-356 1005.47,-376"/>
<text text-anchor="middle" x="982.1" y="-362.5" font-family="Helvetica,sans-Serif" font-size="10.00">Widget</text>
</a>
</g>
</g>
<!-- Node2&#45;&gt;Node1 -->
<g id="edge1_Node000001_Node000002" class="edge">
<title>Node2&#45;&gt;Node1</title>
<g id="a_edge1_Node000001_Node000002"><a xlink:title=" ">
<path fill="none" stroke="#9a32cd" stroke-dasharray="5,2" d="M1004.23,-348.19C1007.49,-345.05 1010.58,-341.61 1013.1,-338 1088.48,-229.62 1103.88,-61.24 1106.58,-20.23"/>
<polygon fill="#9a32cd" stroke="#9a32cd" points="1001.95,-345.53 996.67,-354.72 1006.53,-350.82 1001.95,-345.53"/>
</a>
</g>
<text text-anchor="middle" x="1130.47" y="-148.5" font-family="Helvetica,sans-Serif" font-size="10.00" fill="grey"> m_NextOption</text>
<text text-anchor="middle" x="1130.47" y="-136.5" font-family="Helvetica,sans-Serif" font-size="10.00" fill="grey">m_PreviousOption</text>
</g>
<!-- Node5 -->
<g id="Node000005" class="node">
<title>Node5</title>
<g id="a_Node000005"><a xlink:href="../../d2/d01/classarray.html" target="_top" xlink:title=" ">
<polygon fill="white" stroke="#666666" points="851.97,-108 772.22,-108 772.22,-88 851.97,-88 851.97,-108"/>
<text text-anchor="middle" x="812.1" y="-94.5" font-family="Helvetica,sans-Serif" font-size="10.00">array&lt; string &gt;</text>
</a>
</g>
</g>
<!-- Node2&#45;&gt;Node5 -->
<g id="edge25_Node000005_Node000002" class="edge">
<title>Node2&#45;&gt;Node5</title>
<g id="a_edge25_Node000005_Node000002"><a xlink:title=" ">
<path fill="none" stroke="#9a32cd" stroke-dasharray="5,2" d="M989.45,-345C1001.63,-308.18 1021.42,-228.61 987.1,-176 957.35,-130.41 893.89,-111.63 852.13,-104.02"/>
<polygon fill="#9a32cd" stroke="#9a32cd" points="986.19,-343.73 986.2,-354.32 992.8,-346.03 986.19,-343.73"/>
</a>
</g>
<text text-anchor="middle" x="1024.47" y="-208.5" font-family="Helvetica,sans-Serif" font-size="10.00" fill="grey"> m_Root</text>
</g>
<!-- Node7 -->
<g id="Node000007" class="node">
<title>Node7</title>
<g id="a_Node000007"><a xlink:href="../../d2/d01/classarray.html" target="_top" xlink:title="Result for an object found in CGame.IsBoxCollidingGeometryProxy.">
<polygon fill="white" stroke="#666666" points="644.97,-222 607.22,-222 607.22,-202 644.97,-202 644.97,-222"/>
<text text-anchor="middle" x="626.1" y="-208.5" font-family="Helvetica,sans-Serif" font-size="10.00">array</text>
</a>
</g>
</g>
<!-- Node2&#45;&gt;Node7 -->
<g id="edge14_Node000007_Node000002" class="edge">
<title>Node2&#45;&gt;Node7</title>
<g id="a_edge14_Node000007_Node000002"><a xlink:title=" ">
<path fill="none" stroke="#9a32cd" stroke-dasharray="5,2" d="M947.22,-355.32C931.24,-350.58 912.15,-344.5 895.35,-338 824.79,-310.7 809.73,-297.83 741.1,-266 707.39,-250.37 668.07,-232.28 645.24,-221.79"/>
<polygon fill="#9a32cd" stroke="#9a32cd" points="946.2,-358.67 956.78,-358.09 948.15,-351.94 946.2,-358.67"/>
</a>
</g>
<text text-anchor="middle" x="914.47" y="-298.5" font-family="Helvetica,sans-Serif" font-size="10.00" fill="grey"> m_Root</text>
</g>
<!-- Node10 -->
<g id="Node000010" class="node">
<title>Node10</title>
<g id="a_Node000010"><a xlink:href="../../d2/d01/classarray.html" target="_top" xlink:title=" ">
<polygon fill="white" stroke="#666666" points="480.35,-108 393.85,-108 393.85,-88 480.35,-88 480.35,-108"/>
<text text-anchor="middle" x="437.1" y="-94.5" font-family="Helvetica,sans-Serif" font-size="10.00">array&lt; Widget &gt;</text>
</a>
</g>
</g>
<!-- Node2&#45;&gt;Node10 -->
<g id="edge21_Node000010_Node000002" class="edge">
<title>Node2&#45;&gt;Node10</title>
<g id="a_edge21_Node000010_Node000002"><a xlink:title=" ">
<path fill="none" stroke="#9a32cd" stroke-dasharray="5,2" d="M975.88,-344.76C961.22,-297.28 925.26,-182.24 919.1,-176 858.28,-114.43 587.68,-102.09 480.77,-99.62"/>
<polygon fill="#9a32cd" stroke="#9a32cd" points="972.53,-345.78 978.82,-354.3 979.22,-343.72 972.53,-345.78"/>
</a>
</g>
<text text-anchor="middle" x="963.47" y="-208.5" font-family="Helvetica,sans-Serif" font-size="10.00" fill="grey"> m_Root</text>
</g>
<!-- Node3 -->
<g id="Node000003" class="node">
<title>Node3</title>
<g id="a_Node000003"><a xlink:href="../../da/d0c/class_text_widget.html" target="_top" xlink:title=" ">
<polygon fill="white" stroke="#666666" points="1177.85,-108 1112.35,-108 1112.35,-88 1177.85,-88 1177.85,-108"/>
<text text-anchor="middle" x="1145.1" y="-94.5" font-family="Helvetica,sans-Serif" font-size="10.00">TextWidget</text>
</a>
</g>
</g>
<!-- Node3&#45;&gt;Node1 -->
<g id="edge2_Node000001_Node000003" class="edge">
<title>Node3&#45;&gt;Node1</title>
<g id="a_edge2_Node000001_Node000003"><a xlink:title=" ">
<path fill="none" stroke="#9a32cd" stroke-dasharray="5,2" d="M1136.43,-77.4C1128.55,-59.57 1117.27,-34.02 1111.25,-20.4"/>
<polygon fill="#9a32cd" stroke="#9a32cd" points="1133.17,-78.68 1140.42,-86.41 1139.58,-75.85 1133.17,-78.68"/>
</a>
</g>
<text text-anchor="middle" x="1170.72" y="-46.5" font-family="Helvetica,sans-Serif" font-size="10.00" fill="grey"> m_SelectedOption</text>
</g>
<!-- Node4 -->
<g id="Node000004" class="node">
<title>Node4</title>
<g id="a_Node000004"><a xlink:href="../../db/d06/class_param3.html" target="_top" xlink:title=" ">
<polygon fill="white" stroke="#666666" points="160.97,-376 111.22,-376 111.22,-356 160.97,-356 160.97,-376"/>
<text text-anchor="middle" x="136.1" y="-362.5" font-family="Helvetica,sans-Serif" font-size="10.00">Param3</text>
</a>
</g>
</g>
<!-- Node4&#45;&gt;Node1 -->
<g id="edge3_Node000001_Node000004" class="edge">
<title>Node4&#45;&gt;Node1</title>
<g id="a_edge3_Node000001_Node000004"><a xlink:title=" ">
<path fill="none" stroke="#9a32cd" stroke-dasharray="5,2" d="M106.6,-349.49C102,-346.15 97.61,-342.31 94.1,-338 33.57,-263.76 -37.92,-206.57 24.6,-134 92.76,-54.87 849.13,-20.72 1055.4,-12.84"/>
<polygon fill="#9a32cd" stroke="#9a32cd" points="104.57,-352.35 114.87,-354.82 108.36,-346.46 104.57,-352.35"/>
</a>
</g>
<text text-anchor="middle" x="78.35" y="-142.5" font-family="Helvetica,sans-Serif" font-size="10.00" fill="grey"> m_SelectedOptionIndex</text>
</g>
<!-- Node4&#45;&gt;Node5 -->
<g id="edge6_Node000005_Node000004" class="edge">
<title>Node4&#45;&gt;Node5</title>
<g id="a_edge6_Node000005_Node000004"><a xlink:title=" ">
<path fill="none" stroke="#9a32cd" stroke-dasharray="5,2" d="M154.52,-348.19C178.06,-327.25 220.62,-291.16 261.1,-266 276.97,-256.13 286.38,-261.7 299.1,-248 322.43,-222.86 299.32,-196.45 326.85,-176 369.64,-144.2 516.33,-177.13 566.1,-158 582.36,-151.75 581.12,-140.95 597.1,-134 654.49,-109.05 727.54,-101.73 772,-99.67"/>
<polygon fill="#9a32cd" stroke="#9a32cd" points="152.42,-345.37 147.32,-354.66 157.1,-350.58 152.42,-345.37"/>
</a>
</g>
<text text-anchor="middle" x="385.22" y="-238.5" font-family="Helvetica,sans-Serif" font-size="10.00" fill="grey"> NO_SORTING</text>
<text text-anchor="middle" x="385.22" y="-226.5" font-family="Helvetica,sans-Serif" font-size="10.00" fill="grey">geomLevel</text>
<text text-anchor="middle" x="385.22" y="-214.5" font-family="Helvetica,sans-Serif" font-size="10.00" fill="grey">hierLevel</text>
<text text-anchor="start" x="327.1" y="-202.5" font-family="Helvetica,sans-Serif" font-size="10.00" fill="grey">m_CurrentSettingAlternate</text>
<text text-anchor="middle" x="385.22" y="-190.5" font-family="Helvetica,sans-Serif" font-size="10.00" fill="grey">KeyIndex</text>
<text text-anchor="middle" x="385.22" y="-178.5" font-family="Helvetica,sans-Serif" font-size="10.00" fill="grey">m_CurrentSettingKeyIndex</text>
</g>
<!-- Node4&#45;&gt;Node7 -->
<g id="edge9_Node000007_Node000004" class="edge">
<title>Node4&#45;&gt;Node7</title>
<g id="a_edge9_Node000007_Node000004"><a xlink:title=" ">
<path fill="none" stroke="#9a32cd" stroke-dasharray="5,2" d="M172.48,-359.69C197.15,-355.42 230.2,-348.42 258.1,-338 320.97,-314.52 326.58,-285.38 390.85,-266 477.25,-239.95 511.91,-287.4 593.1,-248 604.82,-242.31 614.51,-230.56 620.29,-222.25"/>
<polygon fill="#9a32cd" stroke="#9a32cd" points="172.24,-356.18 162.94,-361.26 173.38,-363.08 172.24,-356.18"/>
</a>
</g>
<text text-anchor="middle" x="449.22" y="-328.5" font-family="Helvetica,sans-Serif" font-size="10.00" fill="grey"> NO_SORTING</text>
<text text-anchor="middle" x="449.22" y="-316.5" font-family="Helvetica,sans-Serif" font-size="10.00" fill="grey">geomLevel</text>
<text text-anchor="middle" x="449.22" y="-304.5" font-family="Helvetica,sans-Serif" font-size="10.00" fill="grey">hierLevel</text>
<text text-anchor="start" x="391.1" y="-292.5" font-family="Helvetica,sans-Serif" font-size="10.00" fill="grey">m_CurrentSettingAlternate</text>
<text text-anchor="middle" x="449.22" y="-280.5" font-family="Helvetica,sans-Serif" font-size="10.00" fill="grey">KeyIndex</text>
<text text-anchor="middle" x="449.22" y="-268.5" font-family="Helvetica,sans-Serif" font-size="10.00" fill="grey">m_CurrentSettingKeyIndex</text>
</g>
<!-- Node4&#45;&gt;Node10 -->
<g id="edge17_Node000010_Node000004" class="edge">
<title>Node4&#45;&gt;Node10</title>
<g id="a_edge17_Node000010_Node000004"><a xlink:title=" ">
<path fill="none" stroke="#9a32cd" stroke-dasharray="5,2" d="M125.44,-345.58C106.73,-308.55 73.43,-227.01 111.85,-176 145.49,-131.33 312.86,-110.28 393.5,-102.6"/>
<polygon fill="#9a32cd" stroke="#9a32cd" points="122.23,-346.99 129.98,-354.22 128.43,-343.74 122.23,-346.99"/>
</a>
</g>
<text text-anchor="middle" x="170.22" y="-238.5" font-family="Helvetica,sans-Serif" font-size="10.00" fill="grey"> NO_SORTING</text>
<text text-anchor="middle" x="170.22" y="-226.5" font-family="Helvetica,sans-Serif" font-size="10.00" fill="grey">geomLevel</text>
<text text-anchor="middle" x="170.22" y="-214.5" font-family="Helvetica,sans-Serif" font-size="10.00" fill="grey">hierLevel</text>
<text text-anchor="start" x="112.1" y="-202.5" font-family="Helvetica,sans-Serif" font-size="10.00" fill="grey">m_CurrentSettingAlternate</text>
<text text-anchor="middle" x="170.22" y="-190.5" font-family="Helvetica,sans-Serif" font-size="10.00" fill="grey">KeyIndex</text>
<text text-anchor="middle" x="170.22" y="-178.5" font-family="Helvetica,sans-Serif" font-size="10.00" fill="grey">m_CurrentSettingKeyIndex</text>
</g>
<!-- Node5&#45;&gt;Node1 -->
<g id="edge4_Node000001_Node000005" class="edge">
<title>Node5&#45;&gt;Node1</title>
<g id="a_edge4_Node000001_Node000005"><a xlink:title=" ">
<path fill="none" stroke="#9a32cd" stroke-dasharray="5,2" d="M855.45,-84.36C915.14,-66.96 1021.3,-36.01 1074.63,-20.47"/>
<polygon fill="#9a32cd" stroke="#9a32cd" points="854.58,-80.97 845.96,-87.13 856.54,-87.69 854.58,-80.97"/>
</a>
</g>
<text text-anchor="middle" x="1036.22" y="-46.5" font-family="Helvetica,sans-Serif" font-size="10.00" fill="grey"> m_Options</text>
</g>
<!-- Node6 -->
<g id="Node000006" class="node">
<title>Node6</title>
<g id="a_Node000006"><a xlink:href="../../d8/d03/class_object.html" target="_top" xlink:title=" ">
<polygon fill="white" stroke="#666666" points="648.35,-376 603.85,-376 603.85,-356 648.35,-356 648.35,-376"/>
<text text-anchor="middle" x="626.1" y="-362.5" font-family="Helvetica,sans-Serif" font-size="10.00">Object</text>
</a>
</g>
</g>
<!-- Node6&#45;&gt;Node5 -->
<g id="edge5_Node000005_Node000006" class="edge">
<title>Node6&#45;&gt;Node5</title>
<g id="a_edge5_Node000005_Node000006"><a xlink:title=" ">
<path fill="none" stroke="#9a32cd" stroke-dasharray="5,2" d="M659.77,-361.45C677.27,-358.02 697.91,-351.27 712.1,-338 737.17,-314.54 716.46,-290.9 740.1,-266 753.52,-251.86 767.84,-263.16 780.1,-248 814.69,-205.2 814.19,-133.59 812.79,-108.24"/>
<polygon fill="#9a32cd" stroke="#9a32cd" points="659.33,-357.97 650.04,-363.05 660.47,-364.88 659.33,-357.97"/>
</a>
</g>
<text text-anchor="middle" x="822.6" y="-214.5" font-family="Helvetica,sans-Serif" font-size="10.00" fill="grey"> obj</text>
<text text-anchor="middle" x="822.6" y="-202.5" font-family="Helvetica,sans-Serif" font-size="10.00" fill="grey">parent</text>
</g>
<!-- Node6&#45;&gt;Node7 -->
<g id="edge8_Node000007_Node000006" class="edge">
<title>Node6&#45;&gt;Node7</title>
<g id="a_edge8_Node000007_Node000006"><a xlink:title=" ">
<path fill="none" stroke="#9a32cd" stroke-dasharray="5,2" d="M626.1,-344.47C626.1,-311.04 626.1,-246.17 626.1,-222.2"/>
<polygon fill="#9a32cd" stroke="#9a32cd" points="622.6,-344.43 626.1,-354.43 629.6,-344.43 622.6,-344.43"/>
</a>
</g>
<text text-anchor="middle" x="639.6" y="-304.5" font-family="Helvetica,sans-Serif" font-size="10.00" fill="grey"> obj</text>
<text text-anchor="middle" x="639.6" y="-292.5" font-family="Helvetica,sans-Serif" font-size="10.00" fill="grey">parent</text>
</g>
<!-- Node6&#45;&gt;Node10 -->
<g id="edge16_Node000010_Node000006" class="edge">
<title>Node6&#45;&gt;Node10</title>
<g id="a_edge16_Node000010_Node000006"><a xlink:title=" ">
<path fill="none" stroke="#9a32cd" stroke-dasharray="5,2" d="M622.11,-344.52C616.55,-321.71 604.2,-285.5 579.1,-266 546.19,-240.44 519.18,-274.58 487.1,-248 442.97,-211.45 437.59,-134.6 437.08,-108.16"/>
<polygon fill="#9a32cd" stroke="#9a32cd" points="618.66,-345.11 624.21,-354.14 625.5,-343.62 618.66,-345.11"/>
</a>
</g>
<text text-anchor="middle" x="500.6" y="-214.5" font-family="Helvetica,sans-Serif" font-size="10.00" fill="grey"> obj</text>
<text text-anchor="middle" x="500.6" y="-202.5" font-family="Helvetica,sans-Serif" font-size="10.00" fill="grey">parent</text>
</g>
<!-- Node7&#45;&gt;Node5 -->
<g id="edge7_Node000005_Node000007" class="edge">
<title>Node7&#45;&gt;Node5</title>
<g id="a_edge7_Node000005_Node000007"><a xlink:title=" ">
<path fill="none" stroke="#9a32cd" stroke-dasharray="5,2" d="M651.2,-195.88C690.21,-172.39 764.26,-127.81 796.47,-108.41"/>
<polygon fill="#9a32cd" stroke="#9a32cd" points="649.69,-192.71 642.93,-200.86 653.3,-198.7 649.69,-192.71"/>
</a>
</g>
<text text-anchor="middle" x="773.1" y="-142.5" font-family="Helvetica,sans-Serif" font-size="10.00" fill="grey"> proxyInfo</text>
</g>
<!-- Node7&#45;&gt;Node7 -->
<g id="edge10_Node000007_Node000007" class="edge">
<title>Node7&#45;&gt;Node7</title>
<g id="a_edge10_Node000007_Node000007"><a xlink:title=" ">
<path fill="none" stroke="#9a32cd" stroke-dasharray="5,2" d="M650.63,-224.32C657.61,-223.82 662.97,-219.71 662.97,-212 662.97,-200.53 651.09,-197.03 639.71,-201.51"/>
<polygon fill="#9a32cd" stroke="#9a32cd" points="651.65,-220.94 641.2,-222.74 650.49,-227.85 651.65,-220.94"/>
</a>
</g>
<text text-anchor="middle" x="683.97" y="-208.5" font-family="Helvetica,sans-Serif" font-size="10.00" fill="grey"> proxyInfo</text>
</g>
<!-- Node7&#45;&gt;Node10 -->
<g id="edge18_Node000010_Node000007" class="edge">
<title>Node7&#45;&gt;Node10</title>
<g id="a_edge18_Node000010_Node000007"><a xlink:title=" ">
<path fill="none" stroke="#9a32cd" stroke-dasharray="5,2" d="M613.05,-192.82C607.6,-186.52 600.74,-180.03 593.1,-176 547.33,-151.88 521.94,-185.45 478.1,-158 459.07,-146.09 446.53,-121.76 440.76,-108.36"/>
<polygon fill="#9a32cd" stroke="#9a32cd" points="610.1,-194.73 619.04,-200.43 615.6,-190.4 610.1,-194.73"/>
</a>
</g>
<text text-anchor="middle" x="499.1" y="-142.5" font-family="Helvetica,sans-Serif" font-size="10.00" fill="grey"> proxyInfo</text>
</g>
<!-- Node8 -->
<g id="Node000008" class="node">
<title>Node8</title>
<g id="a_Node000008"><a xlink:href="../../d4/d04/class_class.html" target="_top" xlink:title="Super root of all classes in Enforce script.">
<polygon fill="white" stroke="#666666" points="512.47,-376 471.72,-376 471.72,-356 512.47,-356 512.47,-376"/>
<text text-anchor="middle" x="492.1" y="-362.5" font-family="Helvetica,sans-Serif" font-size="10.00">Class</text>
</a>
</g>
</g>
<!-- Node8&#45;&gt;Node5 -->
<g id="edge23_Node000005_Node000008" class="edge">
<title>Node8&#45;&gt;Node5</title>
<g id="a_edge23_Node000005_Node000008"><a xlink:title=" ">
<path fill="none" stroke="#9a32cd" stroke-dasharray="5,2" d="M493.73,-344.31C495.68,-324.06 499.66,-292.49 507.1,-266 507.83,-263.39 542.82,-177.8 544.85,-176 553.67,-168.15 705.26,-127.28 776.12,-108.48"/>
<polygon fill="#9a32cd" stroke="#9a32cd" points="490.27,-343.78 492.88,-354.05 497.24,-344.39 490.27,-343.78"/>
</a>
</g>
<text text-anchor="middle" x="571.72" y="-208.5" font-family="Helvetica,sans-Serif" font-size="10.00" fill="grey"> m_Instance</text>
</g>
<!-- Node8&#45;&gt;Node7 -->
<g id="edge11_Node000007_Node000008" class="edge">
<title>Node8&#45;&gt;Node7</title>
<g id="a_edge11_Node000007_Node000008"><a xlink:title=" ">
<path fill="none" stroke="#9a32cd" stroke-dasharray="5,2" d="M504.33,-346.25C518.45,-325.37 543.06,-291.25 568.85,-266 578.44,-256.61 583.06,-256.92 593.1,-248 602.21,-239.9 611.66,-229.65 618.1,-222.35"/>
<polygon fill="#9a32cd" stroke="#9a32cd" points="501.58,-344.06 498.95,-354.33 507.41,-347.94 501.58,-344.06"/>
</a>
</g>
<text text-anchor="middle" x="595.72" y="-298.5" font-family="Helvetica,sans-Serif" font-size="10.00" fill="grey"> m_Instance</text>
</g>
<!-- Node8&#45;&gt;Node10 -->
<g id="edge19_Node000010_Node000008" class="edge">
<title>Node8&#45;&gt;Node10</title>
<g id="a_edge19_Node000010_Node000008"><a xlink:title=" ">
<path fill="none" stroke="#9a32cd" stroke-dasharray="5,2" d="M480.13,-346.15C464.25,-322.94 433.89,-284.33 397.1,-266 366.8,-250.91 268.32,-273.31 245.85,-248 224.6,-224.07 227.94,-202.52 245.85,-176 278.7,-127.35 347.95,-109.44 393.48,-102.84"/>
<polygon fill="#9a32cd" stroke="#9a32cd" points="477.11,-347.93 485.54,-354.34 482.95,-344.07 477.11,-347.93"/>
</a>
</g>
<text text-anchor="middle" x="272.72" y="-208.5" font-family="Helvetica,sans-Serif" font-size="10.00" fill="grey"> m_Instance</text>
</g>
<!-- Node9 -->
<g id="Node000009" class="node">
<title>Node9</title>
<g id="a_Node000009"><a xlink:href="../../d5/d02/classstring.html" target="_top" xlink:title=" ">
<polygon fill="white" stroke="#666666" points="771.1,-376 731.1,-376 731.1,-356 771.1,-356 771.1,-376"/>
<text text-anchor="middle" x="751.1" y="-362.5" font-family="Helvetica,sans-Serif" font-size="10.00">string</text>
</a>
</g>
</g>
<!-- Node9&#45;&gt;Node5 -->
<g id="edge24_Node000005_Node000009" class="edge">
<title>Node9&#45;&gt;Node5</title>
<g id="a_edge24_Node000005_Node000009"><a xlink:title=" ">
<path fill="none" stroke="#9a32cd" stroke-dasharray="5,2" d="M782.79,-361.55C811.75,-357.66 851.5,-350.24 861.1,-338 918.08,-265.34 842.48,-143.12 818.78,-108.43"/>
<polygon fill="#9a32cd" stroke="#9a32cd" points="782.53,-358.05 773.04,-362.77 783.39,-365 782.53,-358.05"/>
</a>
</g>
<text text-anchor="middle" x="897.72" y="-208.5" font-family="Helvetica,sans-Serif" font-size="10.00" fill="grey"> m_Test</text>
</g>
<!-- Node9&#45;&gt;Node7 -->
<g id="edge12_Node000007_Node000009" class="edge">
<title>Node9&#45;&gt;Node7</title>
<g id="a_edge12_Node000007_Node000009"><a xlink:title=" ">
<path fill="none" stroke="#9a32cd" stroke-dasharray="5,2" d="M721.07,-351.81C714.28,-347.97 707.43,-343.35 701.85,-338 682.69,-319.66 644.32,-247.95 630.88,-222.24"/>
<polygon fill="#9a32cd" stroke="#9a32cd" points="719,-354.68 729.49,-356.16 722.22,-348.46 719,-354.68"/>
</a>
</g>
<text text-anchor="middle" x="719.72" y="-298.5" font-family="Helvetica,sans-Serif" font-size="10.00" fill="grey"> m_Test</text>
</g>
<!-- Node9&#45;&gt;Node9 -->
<g id="edge13_Node000009_Node000009" class="edge">
<title>Node9&#45;&gt;Node9</title>
<g id="a_edge13_Node000009_Node000009"><a xlink:title=" ">
<path fill="none" stroke="#9a32cd" stroke-dasharray="5,2" d="M776.87,-377.91C783.81,-377.28 789.1,-373.31 789.1,-366 789.1,-355.12 777.39,-351.64 765.92,-355.55"/>
<polygon fill="#9a32cd" stroke="#9a32cd" points="777.79,-374.5 767.42,-376.65 776.87,-381.44 777.79,-374.5"/>
</a>
</g>
<text text-anchor="middle" x="804.85" y="-362.5" font-family="Helvetica,sans-Serif" font-size="10.00" fill="grey"> Empty</text>
</g>
<!-- Node9&#45;&gt;Node10 -->
<g id="edge20_Node000010_Node000009" class="edge">
<title>Node9&#45;&gt;Node10</title>
<g id="a_edge20_Node000010_Node000009"><a xlink:title=" ">
<path fill="none" stroke="#9a32cd" stroke-dasharray="5,2" d="M749.43,-344.27C745.56,-300.79 734.68,-201.92 714.1,-176 688.87,-144.25 671.49,-147.05 633.1,-134 582.2,-116.71 520.82,-107.51 480.47,-102.95"/>
<polygon fill="#9a32cd" stroke="#9a32cd" points="745.93,-344.45 750.26,-354.12 752.91,-343.86 745.93,-344.45"/>
</a>
</g>
<text text-anchor="middle" x="754.72" y="-208.5" font-family="Helvetica,sans-Serif" font-size="10.00" fill="grey"> m_Test</text>
</g>
<!-- Node10&#45;&gt;Node7 -->
<g id="edge15_Node000007_Node000010" class="edge">
<title>Node10&#45;&gt;Node7</title>
<g id="a_edge15_Node000007_Node000010"><a xlink:title=" ">
<path fill="none" stroke="#9a32cd" stroke-dasharray="5,2" d="M473.5,-112.62C506.5,-125.95 555.57,-148.25 593.1,-176 603.17,-183.45 612.77,-194.18 618.99,-201.8"/>
<polygon fill="#9a32cd" stroke="#9a32cd" points="474.96,-109.44 464.38,-109.01 472.39,-115.95 474.96,-109.44"/>
</a>
</g>
<text text-anchor="middle" x="597.6" y="-142.5" font-family="Helvetica,sans-Serif" font-size="10.00" fill="grey"> m_Subgroups</text>
</g>
<!-- Node10&#45;&gt;Node10 -->
<g id="edge22_Node000010_Node000010" class="edge">
<title>Node10&#45;&gt;Node10</title>
<g id="a_edge22_Node000010_Node000010"><a xlink:title=" ">
<path fill="none" stroke="#9a32cd" stroke-dasharray="5,2" d="M491.72,-104.72C495.83,-103.22 498.35,-100.98 498.35,-98 498.35,-92.84 490.81,-89.9 480.59,-89.18"/>
<polygon fill="#9a32cd" stroke="#9a32cd" points="491.25,-101.25 482.07,-106.54 492.55,-108.13 491.25,-101.25"/>
</a>
</g>
<text text-anchor="middle" x="529.85" y="-94.5" font-family="Helvetica,sans-Serif" font-size="10.00" fill="grey"> m_Subgroups</text>
</g>
<!-- Node11 -->
<g id="Node000011" class="node">
<title>Node11</title>
<g id="a_Node000011"><a xlink:href="../../d0/d0b/class_edit_box_widget.html" target="_top" xlink:title=" ">
<polygon fill="white" stroke="#666666" points="1276.72,-108 1195.47,-108 1195.47,-88 1276.72,-88 1276.72,-108"/>
<text text-anchor="middle" x="1236.1" y="-94.5" font-family="Helvetica,sans-Serif" font-size="10.00">EditBoxWidget</text>
</a>
</g>
</g>
<!-- Node11&#45;&gt;Node1 -->
<g id="edge26_Node000001_Node000011" class="edge">
<title>Node11&#45;&gt;Node1</title>
<g id="a_edge26_Node000001_Node000011"><a xlink:title=" ">
<path fill="none" stroke="#9a32cd" stroke-dasharray="5,2" d="M1233.36,-76.49C1230.6,-63.69 1225.08,-47.84 1214.1,-38 1199.04,-24.51 1178.22,-17.56 1158.95,-14.04"/>
<polygon fill="#9a32cd" stroke="#9a32cd" points="1229.85,-76.77 1234.99,-86.03 1236.75,-75.58 1229.85,-76.77"/>
</a>
</g>
<text text-anchor="middle" x="1253.6" y="-46.5" font-family="Helvetica,sans-Serif" font-size="10.00" fill="grey"> m_EditBox</text>
</g>
<!-- Node12 -->
<g id="Node000012" class="node">
<title>Node12</title>
<g id="a_Node000012"><a xlink:href="../../d4/d03/classfloat.html" target="_top" xlink:title=" ">
<polygon fill="white" stroke="#666666" points="1329.1,-108 1295.1,-108 1295.1,-88 1329.1,-88 1329.1,-108"/>
<text text-anchor="middle" x="1312.1" y="-94.5" font-family="Helvetica,sans-Serif" font-size="10.00">float</text>
</a>
</g>
</g>
<!-- Node12&#45;&gt;Node1 -->
<g id="edge27_Node000001_Node000012" class="edge">
<title>Node12&#45;&gt;Node1</title>
<g id="a_edge27_Node000001_Node000012"><a xlink:title=" ">
<path fill="none" stroke="#9a32cd" stroke-dasharray="5,2" d="M1307.37,-76.84C1303.21,-63.69 1295.78,-47.31 1283.1,-38 1263.84,-23.87 1203.72,-16.96 1159.08,-13.7"/>
<polygon fill="#9a32cd" stroke="#9a32cd" points="1303.92,-77.51 1309.93,-86.24 1310.68,-75.67 1303.92,-77.51"/>
</a>
</g>
<text text-anchor="middle" x="1331.1" y="-52.5" font-family="Helvetica,sans-Serif" font-size="10.00" fill="grey"> m_MaxValue</text>
<text text-anchor="middle" x="1331.1" y="-40.5" font-family="Helvetica,sans-Serif" font-size="10.00" fill="grey">m_MinValue</text>
</g>
<!-- Node12&#45;&gt;Node12 -->
<g id="edge28_Node000012_Node000012" class="edge">
<title>Node12&#45;&gt;Node12</title>
<g id="a_edge28_Node000012_Node000012"><a xlink:title=" ">
<path fill="none" stroke="#9a32cd" stroke-dasharray="5,2" d="M1340.77,-105.95C1344.57,-104.6 1347.1,-101.95 1347.1,-98 1347.1,-90.78 1338.65,-87.91 1329.38,-89.37"/>
<polygon fill="#9a32cd" stroke="#9a32cd" points="1340.67,-102.45 1330.89,-106.54 1341.09,-109.43 1340.67,-102.45"/>
</a>
</g>
<text text-anchor="middle" x="1369.22" y="-106.5" font-family="Helvetica,sans-Serif" font-size="10.00" fill="grey"> LOWEST</text>
<text text-anchor="middle" x="1369.22" y="-94.5" font-family="Helvetica,sans-Serif" font-size="10.00" fill="grey">MAX</text>
<text text-anchor="middle" x="1369.22" y="-82.5" font-family="Helvetica,sans-Serif" font-size="10.00" fill="grey">MIN</text>
</g>
</g>
</svg>
