<?xml version="1.0" encoding="UTF-8" standalone="no"?>
<!DOCTYPE svg PUBLIC "-//W3C//DTD SVG 1.1//EN"
 "http://www.w3.org/Graphics/SVG/1.1/DTD/svg11.dtd">
<!-- Generated by graphviz version 11.0.0 (20240428.1522)
 -->
<!-- Title: LOD Pages: 1 -->
<svg width="117pt" height="144pt"
 viewBox="0.00 0.00 117.25 144.00" xmlns="http://www.w3.org/2000/svg" xmlns:xlink="http://www.w3.org/1999/xlink">
<g id="graph0" class="graph" transform="scale(1 1) rotate(0) translate(4 140)">
<title>LOD</title>
<!-- Node1 -->
<g id="Node000001" class="node">
<title>Node1</title>
<g id="a_Node000001"><a xlink:title="LOD class.">
<polygon fill="#999999" stroke="#666666" points="37.75,-20 2.25,-20 2.25,0 37.75,0 37.75,-20"/>
<text text-anchor="middle" x="20" y="-6.5" font-family="Helvetica,sans-Serif" font-size="10.00">LOD</text>
</a>
</g>
</g>
<!-- Node2 -->
<g id="Node000002" class="node">
<title>Node2</title>
<g id="a_Node000002"><a xlink:href="../../d5/d02/classstring.html" target="_top" xlink:title=" ">
<polygon fill="white" stroke="#666666" points="40,-136 0,-136 0,-116 40,-116 40,-136"/>
<text text-anchor="middle" x="20" y="-122.5" font-family="Helvetica,sans-Serif" font-size="10.00">string</text>
</a>
</g>
</g>
<!-- Node2&#45;&gt;Node1 -->
<g id="edge1_Node000001_Node000002" class="edge">
<title>Node2&#45;&gt;Node1</title>
<g id="a_edge1_Node000001_Node000002"><a xlink:title=" ">
<path fill="none" stroke="#9a32cd" stroke-dasharray="5,2" d="M20,-104.31C20,-79.44 20,-38.77 20,-20.46"/>
<polygon fill="#9a32cd" stroke="#9a32cd" points="16.5,-104.16 20,-114.16 23.5,-104.16 16.5,-104.16"/>
</a>
</g>
<text text-anchor="middle" x="64.62" y="-88.5" font-family="Helvetica,sans-Serif" font-size="10.00" fill="grey"> NAME_FIRE</text>
<text text-anchor="middle" x="64.62" y="-76.5" font-family="Helvetica,sans-Serif" font-size="10.00" fill="grey">NAME_GEOMETRY</text>
<text text-anchor="middle" x="64.62" y="-64.5" font-family="Helvetica,sans-Serif" font-size="10.00" fill="grey">NAME_MEMORY</text>
<text text-anchor="middle" x="64.62" y="-52.5" font-family="Helvetica,sans-Serif" font-size="10.00" fill="grey">NAME_ROADWAY</text>
<text text-anchor="middle" x="64.62" y="-40.5" font-family="Helvetica,sans-Serif" font-size="10.00" fill="grey">NAME_VIEW</text>
</g>
<!-- Node2&#45;&gt;Node2 -->
<g id="edge2_Node000002_Node000002" class="edge">
<title>Node2&#45;&gt;Node2</title>
<g id="a_edge2_Node000002_Node000002"><a xlink:title=" ">
<path fill="none" stroke="#9a32cd" stroke-dasharray="5,2" d="M50.58,-135.81C55.02,-134.25 58,-130.98 58,-126 58,-117.39 49.07,-113.89 39.16,-115.51"/>
<polygon fill="#9a32cd" stroke="#9a32cd" points="50.44,-132.31 40.67,-136.4 50.86,-139.3 50.44,-132.31"/>
</a>
</g>
<text text-anchor="middle" x="73.75" y="-122.5" font-family="Helvetica,sans-Serif" font-size="10.00" fill="grey"> Empty</text>
</g>
</g>
</svg>
