<?xml version="1.0" encoding="UTF-8" standalone="no"?>
<!DOCTYPE svg PUBLIC "-//W3C//DTD SVG 1.1//EN"
 "http://www.w3.org/Graphics/SVG/1.1/DTD/svg11.dtd">
<!-- Generated by graphviz version 11.0.0 (20240428.1522)
 -->
<!-- Title: Izh43Shotgun_Base Pages: 1 -->
<svg width="146pt" height="405pt"
 viewBox="0.00 0.00 145.75 405.00" xmlns="http://www.w3.org/2000/svg" xmlns:xlink="http://www.w3.org/1999/xlink">
<g id="graph0" class="graph" transform="scale(1 1) rotate(0) translate(4 401)">
<title>Izh43Shotgun_Base</title>
<!-- Node1 -->
<g id="Node000001" class="node">
<title>Node1</title>
<g id="a_Node000001"><a xlink:title=" ">
<polygon fill="#999999" stroke="#666666" points="113,-20 10,-20 10,0 113,0 113,-20"/>
<text text-anchor="middle" x="61.5" y="-6.5" font-family="Helvetica,sans-Serif" font-size="10.00">Izh43Shotgun_Base</text>
</a>
</g>
</g>
<!-- Node2 -->
<g id="Node000002" class="node">
<title>Node2</title>
<g id="a_Node000002"><a xlink:href="../../d5/d01/class_double_barrel___base.html" target="_top" xlink:title=" ">
<polygon fill="white" stroke="#666666" points="111.12,-76 11.88,-76 11.88,-56 111.12,-56 111.12,-76"/>
<text text-anchor="middle" x="61.5" y="-62.5" font-family="Helvetica,sans-Serif" font-size="10.00">DoubleBarrel_Base</text>
</a>
</g>
</g>
<!-- Node2&#45;&gt;Node1 -->
<g id="edge1_Node000001_Node000002" class="edge">
<title>Node2&#45;&gt;Node1</title>
<g id="a_edge1_Node000001_Node000002"><a xlink:title=" ">
<path fill="none" stroke="#8b1a1a" d="M61.5,-44.13C61.5,-35.9 61.5,-26.85 61.5,-20.3"/>
<polygon fill="#8b1a1a" stroke="#8b1a1a" points="58,-44.08 61.5,-54.08 65,-44.08 58,-44.08"/>
</a>
</g>
</g>
<!-- Node3 -->
<g id="Node000003" class="node">
<title>Node3</title>
<g id="a_Node000003"><a xlink:href="../../dd/d09/class_rifle___base.html" target="_top" xlink:title="base for rifles @NOTE name copies config base class">
<polygon fill="white" stroke="#666666" points="137.75,-171 75.25,-171 75.25,-151 137.75,-151 137.75,-171"/>
<text text-anchor="middle" x="106.5" y="-157.5" font-family="Helvetica,sans-Serif" font-size="10.00">Rifle_Base</text>
</a>
</g>
</g>
<!-- Node3&#45;&gt;Node2 -->
<g id="edge2_Node000002_Node000003" class="edge">
<title>Node3&#45;&gt;Node2</title>
<g id="a_edge2_Node000002_Node000003"><a xlink:title=" ">
<path fill="none" stroke="#8b1a1a" d="M97.07,-140.51C87.58,-120.9 73.34,-91.48 66.1,-76.5"/>
<polygon fill="#8b1a1a" stroke="#8b1a1a" points="93.86,-141.9 101.36,-149.38 100.16,-138.85 93.86,-141.9"/>
</a>
</g>
</g>
<!-- Node4 -->
<g id="Node000004" class="node">
<title>Node4</title>
<g id="a_Node000004"><a xlink:href="../../dc/d0c/class_weapon_stable_state.html" target="_top" xlink:title="represents weapon&#39;s stable state (i.e. the basic states that the weapon will spend the most time in)">
<polygon fill="white" stroke="#666666" points="103,-397 0,-397 0,-377 103,-377 103,-397"/>
<text text-anchor="middle" x="51.5" y="-383.5" font-family="Helvetica,sans-Serif" font-size="10.00">WeaponStableState</text>
</a>
</g>
</g>
<!-- Node4&#45;&gt;Node2 -->
<g id="edge4_Node000002_Node000004" class="edge">
<title>Node4&#45;&gt;Node2</title>
<g id="a_edge4_Node000002_Node000004"><a xlink:title=" ">
<path fill="none" stroke="#9a32cd" stroke-dasharray="5,2" d="M48.28,-365.76C41.63,-320.2 28.3,-206.26 44.75,-113 47.08,-99.78 52.92,-85.35 57.04,-76.25"/>
<polygon fill="#9a32cd" stroke="#9a32cd" points="44.79,-366.09 49.76,-375.45 51.71,-365.04 44.79,-366.09"/>
</a>
</g>
<text text-anchor="middle" x="55.38" y="-199.5" font-family="Helvetica,sans-Serif" font-size="10.00" fill="grey"> E_E</text>
<text text-anchor="middle" x="55.38" y="-187.5" font-family="Helvetica,sans-Serif" font-size="10.00" fill="grey">E_F</text>
<text text-anchor="middle" x="55.38" y="-175.5" font-family="Helvetica,sans-Serif" font-size="10.00" fill="grey">E_L</text>
<text text-anchor="middle" x="55.38" y="-163.5" font-family="Helvetica,sans-Serif" font-size="10.00" fill="grey">F_E</text>
<text text-anchor="middle" x="55.38" y="-151.5" font-family="Helvetica,sans-Serif" font-size="10.00" fill="grey">F_F</text>
<text text-anchor="middle" x="55.38" y="-139.5" font-family="Helvetica,sans-Serif" font-size="10.00" fill="grey">F_L</text>
<text text-anchor="middle" x="55.38" y="-127.5" font-family="Helvetica,sans-Serif" font-size="10.00" fill="grey">L_E</text>
<text text-anchor="middle" x="55.38" y="-115.5" font-family="Helvetica,sans-Serif" font-size="10.00" fill="grey">L_L</text>
</g>
<!-- Node4&#45;&gt;Node3 -->
<g id="edge3_Node000003_Node000004" class="edge">
<title>Node4&#45;&gt;Node3</title>
<g id="a_edge3_Node000003_Node000004"><a xlink:title=" ">
<path fill="none" stroke="#9a32cd" stroke-dasharray="5,2" d="M56.52,-365.57C68.03,-318.67 95.99,-204.82 104.2,-171.38"/>
<polygon fill="#9a32cd" stroke="#9a32cd" points="53.14,-364.64 54.15,-375.19 59.94,-366.31 53.14,-364.64"/>
</a>
</g>
<text text-anchor="middle" x="98.12" y="-349.5" font-family="Helvetica,sans-Serif" font-size="10.00" fill="grey"> C0</text>
<text text-anchor="middle" x="98.12" y="-337.5" font-family="Helvetica,sans-Serif" font-size="10.00" fill="grey">C00</text>
<text text-anchor="middle" x="98.12" y="-325.5" font-family="Helvetica,sans-Serif" font-size="10.00" fill="grey">C01</text>
<text text-anchor="middle" x="98.12" y="-313.5" font-family="Helvetica,sans-Serif" font-size="10.00" fill="grey">C1</text>
<text text-anchor="middle" x="98.12" y="-301.5" font-family="Helvetica,sans-Serif" font-size="10.00" fill="grey">C10</text>
<text text-anchor="middle" x="98.12" y="-289.5" font-family="Helvetica,sans-Serif" font-size="10.00" fill="grey">C11</text>
<text text-anchor="middle" x="98.12" y="-277.5" font-family="Helvetica,sans-Serif" font-size="10.00" fill="grey">D0</text>
<text text-anchor="middle" x="98.12" y="-265.5" font-family="Helvetica,sans-Serif" font-size="10.00" fill="grey">DF</text>
<text text-anchor="middle" x="98.12" y="-253.5" font-family="Helvetica,sans-Serif" font-size="10.00" fill="grey">JF</text>
<text text-anchor="middle" x="98.12" y="-241.5" font-family="Helvetica,sans-Serif" font-size="10.00" fill="grey">JF0</text>
<text text-anchor="middle" x="98.12" y="-229.5" font-family="Helvetica,sans-Serif" font-size="10.00" fill="grey">...</text>
</g>
</g>
</svg>
