<?xml version="1.0" encoding="UTF-8" standalone="no"?>
<!DOCTYPE svg PUBLIC "-//W3C//DTD SVG 1.1//EN"
 "http://www.w3.org/Graphics/SVG/1.1/DTD/svg11.dtd">
<!-- Generated by graphviz version 11.0.0 (20240428.1522)
 -->
<!-- Title: Glasses_Base Pages: 1 -->
<svg width="424pt" height="276pt"
 viewBox="0.00 0.00 424.38 276.00" xmlns="http://www.w3.org/2000/svg" xmlns:xlink="http://www.w3.org/1999/xlink">
<g id="graph0" class="graph" transform="scale(1 1) rotate(0) translate(4 272)">
<title>Glasses_Base</title>
<!-- Node1 -->
<g id="Node000001" class="node">
<title>Node1</title>
<g id="a_Node000001"><a xlink:title=" ">
<polygon fill="#999999" stroke="#666666" points="228.75,-20 149,-20 149,0 228.75,0 228.75,-20"/>
<text text-anchor="middle" x="188.88" y="-6.5" font-family="Helvetica,sans-Serif" font-size="10.00">Glasses_Base</text>
</a>
</g>
</g>
<!-- Node2 -->
<g id="Node000002" class="node">
<title>Node2</title>
<g id="a_Node000002"><a xlink:href="../../d8/d04/class_clothing.html" target="_top" xlink:title=" ">
<polygon fill="white" stroke="#666666" points="214.5,-76 163.25,-76 163.25,-56 214.5,-56 214.5,-76"/>
<text text-anchor="middle" x="188.88" y="-62.5" font-family="Helvetica,sans-Serif" font-size="10.00">Clothing</text>
</a>
</g>
</g>
<!-- Node2&#45;&gt;Node1 -->
<g id="edge1_Node000001_Node000002" class="edge">
<title>Node2&#45;&gt;Node1</title>
<g id="a_edge1_Node000001_Node000002"><a xlink:title=" ">
<path fill="none" stroke="#8b1a1a" d="M188.88,-44.13C188.88,-35.9 188.88,-26.85 188.88,-20.3"/>
<polygon fill="#8b1a1a" stroke="#8b1a1a" points="185.38,-44.08 188.88,-54.08 192.38,-44.08 185.38,-44.08"/>
</a>
</g>
</g>
<!-- Node3 -->
<g id="Node000003" class="node">
<title>Node3</title>
<g id="a_Node000003"><a xlink:href="../../db/d06/class_param3.html" target="_top" xlink:title=" ">
<polygon fill="white" stroke="#666666" points="49.75,-254 0,-254 0,-234 49.75,-234 49.75,-254"/>
<text text-anchor="middle" x="24.88" y="-240.5" font-family="Helvetica,sans-Serif" font-size="10.00">Param3</text>
</a>
</g>
</g>
<!-- Node3&#45;&gt;Node2 -->
<g id="edge2_Node000002_Node000003" class="edge">
<title>Node3&#45;&gt;Node2</title>
<g id="a_edge2_Node000002_Node000003"><a xlink:title=" ">
<path fill="none" stroke="#9a32cd" stroke-dasharray="5,2" d="M18.01,-222.63C8.77,-190.99 -3.18,-129.96 27.88,-94 45.06,-74.11 121.87,-68.87 162.88,-67.49"/>
<polygon fill="#9a32cd" stroke="#9a32cd" points="14.65,-223.61 20.99,-232.1 21.33,-221.51 14.65,-223.61"/>
</a>
</g>
<text text-anchor="middle" x="63.88" y="-150.5" font-family="Helvetica,sans-Serif" font-size="10.00" fill="grey"> GLASS_ID</text>
<text text-anchor="middle" x="63.88" y="-138.5" font-family="Helvetica,sans-Serif" font-size="10.00" fill="grey">REFLECTOR_ID</text>
</g>
<!-- Node4 -->
<g id="Node000004" class="node">
<title>Node4</title>
<g id="a_Node000004"><a xlink:href="../../d5/d02/classstring.html" target="_top" xlink:title=" ">
<polygon fill="white" stroke="#666666" points="139.88,-254 99.88,-254 99.88,-234 139.88,-234 139.88,-254"/>
<text text-anchor="middle" x="119.88" y="-240.5" font-family="Helvetica,sans-Serif" font-size="10.00">string</text>
</a>
</g>
</g>
<!-- Node4&#45;&gt;Node2 -->
<g id="edge3_Node000002_Node000004" class="edge">
<title>Node4&#45;&gt;Node2</title>
<g id="a_edge3_Node000002_Node000004"><a xlink:title=" ">
<path fill="none" stroke="#9a32cd" stroke-dasharray="5,2" d="M113.46,-222.55C105.12,-191.73 94.55,-132.84 121.12,-94 130.49,-80.31 148.01,-73.56 162.89,-70.23"/>
<polygon fill="#9a32cd" stroke="#9a32cd" points="110.08,-223.5 116.25,-232.12 116.8,-221.54 110.08,-223.5"/>
</a>
</g>
<text text-anchor="middle" x="178.25" y="-192.5" font-family="Helvetica,sans-Serif" font-size="10.00" fill="grey"> LIGHT_OFF_GLASS</text>
<text text-anchor="middle" x="178.25" y="-180.5" font-family="Helvetica,sans-Serif" font-size="10.00" fill="grey">LIGHT_OFF_REFLECTOR</text>
<text text-anchor="middle" x="178.25" y="-168.5" font-family="Helvetica,sans-Serif" font-size="10.00" fill="grey">LIGHT_ON_GLASS</text>
<text text-anchor="middle" x="178.25" y="-156.5" font-family="Helvetica,sans-Serif" font-size="10.00" fill="grey">LIGHT_ON_GLASS_RED</text>
<text text-anchor="middle" x="178.25" y="-144.5" font-family="Helvetica,sans-Serif" font-size="10.00" fill="grey">LIGHT_ON_REFLECTOR</text>
<text text-anchor="start" x="120.88" y="-132.5" font-family="Helvetica,sans-Serif" font-size="10.00" fill="grey">LIGHT_ON_REFLECTOR</text>
<text text-anchor="middle" x="178.25" y="-120.5" font-family="Helvetica,sans-Serif" font-size="10.00" fill="grey">_RED</text>
<text text-anchor="middle" x="178.25" y="-108.5" font-family="Helvetica,sans-Serif" font-size="10.00" fill="grey">m_OffHeadLightPoint</text>
<text text-anchor="middle" x="178.25" y="-96.5" font-family="Helvetica,sans-Serif" font-size="10.00" fill="grey">m_OffHeadLightTarget</text>
</g>
<!-- Node4&#45;&gt;Node4 -->
<g id="edge4_Node000004_Node000004" class="edge">
<title>Node4&#45;&gt;Node4</title>
<g id="a_edge4_Node000004_Node000004"><a xlink:title=" ">
<path fill="none" stroke="#9a32cd" stroke-dasharray="5,2" d="M136.68,-260.58C147.48,-264.9 157.88,-259.37 157.88,-244 157.88,-224.12 140.5,-220.71 127.34,-233.75"/>
<polygon fill="#9a32cd" stroke="#9a32cd" points="138.83,-257.81 128.59,-255.1 134.91,-263.6 138.83,-257.81"/>
</a>
</g>
<text text-anchor="middle" x="173.62" y="-240.5" font-family="Helvetica,sans-Serif" font-size="10.00" fill="grey"> Empty</text>
</g>
<!-- Node5 -->
<g id="Node000005" class="node">
<title>Node5</title>
<g id="a_Node000005"><a xlink:href="../../d7/d0c/classvector.html" target="_top" xlink:title=" ">
<polygon fill="white" stroke="#666666" points="278.62,-254 237.12,-254 237.12,-234 278.62,-234 278.62,-254"/>
<text text-anchor="middle" x="257.88" y="-240.5" font-family="Helvetica,sans-Serif" font-size="10.00">vector</text>
</a>
</g>
</g>
<!-- Node5&#45;&gt;Node2 -->
<g id="edge5_Node000002_Node000005" class="edge">
<title>Node5&#45;&gt;Node2</title>
<g id="a_edge5_Node000002_Node000005"><a xlink:title=" ">
<path fill="none" stroke="#9a32cd" stroke-dasharray="5,2" d="M257.02,-222.32C255.19,-186.44 249.84,-114.5 235.88,-94 230.68,-86.38 222.58,-80.64 214.55,-76.45"/>
<polygon fill="#9a32cd" stroke="#9a32cd" points="253.52,-222.41 257.48,-232.24 260.51,-222.09 253.52,-222.41"/>
</a>
</g>
<text text-anchor="middle" x="299.5" y="-150.5" font-family="Helvetica,sans-Serif" font-size="10.00" fill="grey"> m_OnHeadLocalOri</text>
<text text-anchor="middle" x="299.5" y="-138.5" font-family="Helvetica,sans-Serif" font-size="10.00" fill="grey">m_OnHeadLocalPos</text>
</g>
<!-- Node5&#45;&gt;Node5 -->
<g id="edge6_Node000005_Node000005" class="edge">
<title>Node5&#45;&gt;Node5</title>
<g id="a_edge6_Node000005_Node000005"><a xlink:title=" ">
<path fill="none" stroke="#9a32cd" stroke-dasharray="5,2" d="M275.01,-260.58C286.03,-264.9 296.62,-259.37 296.62,-244 296.62,-224.12 278.91,-220.71 265.48,-233.75"/>
<polygon fill="#9a32cd" stroke="#9a32cd" points="277.01,-257.7 266.74,-255.09 273.14,-263.53 277.01,-257.7"/>
</a>
</g>
<text text-anchor="middle" x="313.88" y="-258.5" font-family="Helvetica,sans-Serif" font-size="10.00" fill="grey"> Aside</text>
<text text-anchor="middle" x="313.88" y="-246.5" font-family="Helvetica,sans-Serif" font-size="10.00" fill="grey">Forward</text>
<text text-anchor="middle" x="313.88" y="-234.5" font-family="Helvetica,sans-Serif" font-size="10.00" fill="grey">Up</text>
<text text-anchor="middle" x="313.88" y="-222.5" font-family="Helvetica,sans-Serif" font-size="10.00" fill="grey">Zero</text>
</g>
<!-- Node6 -->
<g id="Node000006" class="node">
<title>Node6</title>
<g id="a_Node000006"><a xlink:href="../../d8/d08/class_timer.html" target="_top" xlink:title=" ">
<polygon fill="white" stroke="#666666" points="389.88,-254 349.88,-254 349.88,-234 389.88,-234 389.88,-254"/>
<text text-anchor="middle" x="369.88" y="-240.5" font-family="Helvetica,sans-Serif" font-size="10.00">Timer</text>
</a>
</g>
</g>
<!-- Node6&#45;&gt;Node2 -->
<g id="edge7_Node000002_Node000006" class="edge">
<title>Node6&#45;&gt;Node2</title>
<g id="a_edge7_Node000002_Node000006"><a xlink:title=" ">
<path fill="none" stroke="#9a32cd" stroke-dasharray="5,2" d="M373.58,-222.7C378.15,-190.66 381.62,-128.48 347.88,-94 329.81,-75.54 255.2,-69.66 214.93,-67.82"/>
<polygon fill="#9a32cd" stroke="#9a32cd" points="370.18,-221.8 372.03,-232.23 377.09,-222.92 370.18,-221.8"/>
</a>
</g>
<text text-anchor="middle" x="396.12" y="-144.5" font-family="Helvetica,sans-Serif" font-size="10.00" fill="grey"> m_Timer</text>
</g>
</g>
</svg>
