<?xml version="1.0" encoding="UTF-8" standalone="no"?>
<!DOCTYPE svg PUBLIC "-//W3C//DTD SVG 1.1//EN"
 "http://www.w3.org/Graphics/SVG/1.1/DTD/svg11.dtd">
<!-- Generated by graphviz version 11.0.0 (20240428.1522)
 -->
<!-- Title: scripts/4_World/Entities Pages: 1 -->
<!--zoomable 96 -->

<svg id="main" version="1.1" xmlns="http://www.w3.org/2000/svg" xmlns:xlink="http://www.w3.org/1999/xlink" xml:space="preserve" onload="init(evt)">
<style type="text/css"><![CDATA[
.node, .edge {opacity: 0.7;}
.node.selected, .edge.selected {opacity: 1;}
.edge:hover path { stroke: red; }
.edge:hover polygon { stroke: red; fill: red; }
]]></style>

<defs>
  <circle id="rim" cx="0" cy="0" r="7"/>
  <circle id="rim2" cx="0" cy="0" r="3.5"/>
  <g id="zoomPlus">
    <use xlink:href="#rim" fill="#404040"><set attributeName="fill" to="#808080" begin="zoomplus.mouseover" end="zoomplus.mouseout"/></use>
    <path d="M-4,0h8M0,-4v8" fill="none" stroke="white" stroke-width="1.5" pointer-events="none"/>
  </g>
  <g id="zoomMin">
    <use xlink:href="#rim" fill="#404040"><set attributeName="fill" to="#808080" begin="zoomminus.mouseover" end="zoomminus.mouseout"/></use>
    <path d="M-4,0h8" fill="none" stroke="white" stroke-width="1.5" pointer-events="none"/>
  </g>
  <g id="arrowUp" transform="translate(30 24)">
    <use xlink:href="#rim"/>
    <path pointer-events="none" fill="none" stroke="white" stroke-width="1.5" d="M0,-3.0v7 M-2.5,-0.5L0,-3.0L2.5,-0.5"/>
  </g>
  <g id="arrowRight" transform="rotate(90) translate(36 -43)">
    <use xlink:href="#rim"/>
    <path pointer-events="none" fill="none" stroke="white" stroke-width="1.5" d="M0,-3.0v7 M-2.5,-0.5L0,-3.0L2.5,-0.5"/>
  </g>
  <g id="arrowDown" transform="rotate(180) translate(-30 -48)">
    <use xlink:href="#rim"/>
    <path pointer-events="none" fill="none" stroke="white" stroke-width="1.5" d="M0,-3.0v7 M-2.5,-0.5L0,-3.0L2.5,-0.5"/>
  </g>
  <g id="arrowLeft" transform="rotate(270) translate(-36 17)">
    <use xlink:href="#rim"/>
    <path pointer-events="none" fill="none" stroke="white" stroke-width="1.5" d="M0,-3.0v7 M-2.5,-0.5L0,-3.0L2.5,-0.5"/>
  </g>
  <g id="resetDef">
    <use xlink:href="#rim2" fill="#404040"><set attributeName="fill" to="#808080" begin="reset.mouseover" end="reset.mouseout"/></use>
  </g>
</defs>
<script type="application/ecmascript">
var viewWidth = 1390;
var viewHeight = 96;
var sectionId = 'dynsection-0';
</script>
<script type="application/ecmascript" xlink:href="svg.min.js"/>
<svg id="graph" class="graph">
<g id="viewport">
<title>scripts/4_World/Entities</title>
<g id="clust1" class="cluster">
<title>clusterdir_9cb74ef7e88bafd9d2c9c8031d91825f</title>
<g id="a_clust1"><a xlink:href="dir_9cb74ef7e88bafd9d2c9c8031d91825f.html" target="_top" xlink:title="4_World">
<polygon fill="#e9e3db" stroke="#7f7f7f" stroke-dasharray="5,2" points="8,-8 8,-80 1374,-80 1374,-8 8,-8"/>
<text text-anchor="middle" x="691" y="-66.5" font-family="Helvetica,sans-Serif" font-size="10.00">4_World</text>
</a>
</g>
</g>
<g id="clust2" class="cluster">
<title>clusterdir_ca572308276e9dd28b39897081c916ef</title>
<g id="a_clust2"><a xlink:href="dir_ca572308276e9dd28b39897081c916ef.html" target="_top">
<polygon fill="#e9e3db" stroke="#404040" stroke-width="2" points="16,-16 16,-52 1366,-52 1366,-16 16,-16"/>
</a>
</g>
</g>
<!-- dir_ca572308276e9dd28b39897081c916ef -->
<g id="node1" class="node">
<title>dir_ca572308276e9dd28b39897081c916ef</title>
<text text-anchor="middle" x="49" y="-30.5" font-family="Helvetica,sans-Serif" font-size="10.00">Entities</text>
</g>
<!-- dir_2f5d03841cbdaeb79b1121a3d325bc9f -->
<g id="node2" class="node">
<title>dir_2f5d03841cbdaeb79b1121a3d325bc9f</title>
<g id="a_node2"><a xlink:href="dir_2f5d03841cbdaeb79b1121a3d325bc9f.html" target="_top" xlink:title="AdvancedCommunication">
<polygon fill="#a0865f" stroke="#404040" points="216.75,-44 91.25,-44 91.25,-24 216.75,-24 216.75,-44"/>
<text text-anchor="middle" x="154" y="-30.5" font-family="Helvetica,sans-Serif" font-size="10.00">AdvancedCommunication</text>
</a>
</g>
</g>
<!-- dir_3de5fcea24c69cb39b5bd11beadb957f -->
<g id="node3" class="node">
<title>dir_3de5fcea24c69cb39b5bd11beadb957f</title>
<g id="a_node3"><a xlink:href="dir_3de5fcea24c69cb39b5bd11beadb957f.html" target="_top" xlink:title="Building">
<polygon fill="#a0865f" stroke="#404040" points="285.25,-44 234.75,-44 234.75,-24 285.25,-24 285.25,-44"/>
<text text-anchor="middle" x="260" y="-30.5" font-family="Helvetica,sans-Serif" font-size="10.00">Building</text>
</a>
</g>
</g>
<!-- dir_88486c788d5dbb1ba854f9e8e2d79a25 -->
<g id="node4" class="node">
<title>dir_88486c788d5dbb1ba854f9e8e2d79a25</title>
<g id="a_node4"><a xlink:href="dir_88486c788d5dbb1ba854f9e8e2d79a25.html" target="_top" xlink:title="Core">
<polygon fill="#a0865f" stroke="#404040" points="339.12,-44 302.88,-44 302.88,-24 339.12,-24 339.12,-44"/>
<text text-anchor="middle" x="321" y="-30.5" font-family="Helvetica,sans-Serif" font-size="10.00">Core</text>
</a>
</g>
</g>
<!-- dir_d29bf3875bdfcff846342dd266fed9ec -->
<g id="node5" class="node">
<title>dir_d29bf3875bdfcff846342dd266fed9ec</title>
<g id="a_node5"><a xlink:href="dir_d29bf3875bdfcff846342dd266fed9ec.html" target="_top" xlink:title="Creatures">
<polygon fill="#a0865f" stroke="#404040" points="415,-44 357,-44 357,-24 415,-24 415,-44"/>
<text text-anchor="middle" x="386" y="-30.5" font-family="Helvetica,sans-Serif" font-size="10.00">Creatures</text>
</a>
</g>
</g>
<!-- dir_d26efed990f60f039bd8d6a4f321a879 -->
<g id="node6" class="node">
<title>dir_d26efed990f60f039bd8d6a4f321a879</title>
<g id="a_node6"><a xlink:href="dir_d26efed990f60f039bd8d6a4f321a879.html" target="_top" xlink:title="ExplosivesBase">
<polygon fill="#a0865f" stroke="#404040" points="518.5,-44 433.5,-44 433.5,-24 518.5,-24 518.5,-44"/>
<text text-anchor="middle" x="476" y="-30.5" font-family="Helvetica,sans-Serif" font-size="10.00">ExplosivesBase</text>
</a>
</g>
</g>
<!-- dir_7571236738e5aa173dda4c6f3be3852e -->
<g id="node7" class="node">
<title>dir_7571236738e5aa173dda4c6f3be3852e</title>
<g id="a_node7"><a xlink:href="dir_7571236738e5aa173dda4c6f3be3852e.html" target="_top" xlink:title="Firearms">
<polygon fill="#a0865f" stroke="#404040" points="591.12,-44 536.88,-44 536.88,-24 591.12,-24 591.12,-44"/>
<text text-anchor="middle" x="564" y="-30.5" font-family="Helvetica,sans-Serif" font-size="10.00">Firearms</text>
</a>
</g>
</g>
<!-- dir_7490177acaff32ae88815926e63a15fe -->
<g id="node8" class="node">
<title>dir_7490177acaff32ae88815926e63a15fe</title>
<g id="a_node8"><a xlink:href="dir_7490177acaff32ae88815926e63a15fe.html" target="_top" xlink:title="Game">
<polygon fill="#a0865f" stroke="#404040" points="651.12,-44 608.88,-44 608.88,-24 651.12,-24 651.12,-44"/>
<text text-anchor="middle" x="630" y="-30.5" font-family="Helvetica,sans-Serif" font-size="10.00">Game</text>
</a>
</g>
</g>
<!-- dir_53f94a1c7acccad8d74b0a64e387720e -->
<g id="node9" class="node">
<title>dir_53f94a1c7acccad8d74b0a64e387720e</title>
<g id="a_node9"><a xlink:href="dir_53f94a1c7acccad8d74b0a64e387720e.html" target="_top" xlink:title="GardenBase">
<polygon fill="#a0865f" stroke="#404040" points="739,-44 669,-44 669,-24 739,-24 739,-44"/>
<text text-anchor="middle" x="704" y="-30.5" font-family="Helvetica,sans-Serif" font-size="10.00">GardenBase</text>
</a>
</g>
</g>
<!-- dir_edfe2a0c8030efa265aff20172c43dbe -->
<g id="node10" class="node">
<title>dir_edfe2a0c8030efa265aff20172c43dbe</title>
<g id="a_node10"><a xlink:href="dir_edfe2a0c8030efa265aff20172c43dbe.html" target="_top" xlink:title="Grenade_Base">
<polygon fill="#a0865f" stroke="#404040" points="837.25,-44 756.75,-44 756.75,-24 837.25,-24 837.25,-44"/>
<text text-anchor="middle" x="797" y="-30.5" font-family="Helvetica,sans-Serif" font-size="10.00">Grenade_Base</text>
</a>
</g>
</g>
<!-- dir_16172909d47e0c14f9caca049b6c1810 -->
<g id="node11" class="node">
<title>dir_16172909d47e0c14f9caca049b6c1810</title>
<g id="a_node11"><a xlink:href="dir_16172909d47e0c14f9caca049b6c1810.html" target="_top" xlink:title="ItemBase">
<polygon fill="#a0865f" stroke="#404040" points="912.62,-44 855.38,-44 855.38,-24 912.62,-24 912.62,-44"/>
<text text-anchor="middle" x="884" y="-30.5" font-family="Helvetica,sans-Serif" font-size="10.00">ItemBase</text>
</a>
</g>
</g>
<!-- dir_164a9ca1eede6e51254b91d47403e601 -->
<g id="node12" class="node">
<title>dir_164a9ca1eede6e51254b91d47403e601</title>
<g id="a_node12"><a xlink:href="dir_164a9ca1eede6e51254b91d47403e601.html" target="_top" xlink:title="ManBase">
<polygon fill="#a0865f" stroke="#404040" points="987.62,-44 930.38,-44 930.38,-24 987.62,-24 987.62,-44"/>
<text text-anchor="middle" x="959" y="-30.5" font-family="Helvetica,sans-Serif" font-size="10.00">ManBase</text>
</a>
</g>
</g>
<!-- dir_8f23987405c9b76332a667b3c4116320 -->
<g id="node13" class="node">
<title>dir_8f23987405c9b76332a667b3c4116320</title>
<g id="a_node13"><a xlink:href="dir_8f23987405c9b76332a667b3c4116320.html" target="_top" xlink:title="ScriptedEntities">
<polygon fill="#a0865f" stroke="#404040" points="1090.5,-44 1005.5,-44 1005.5,-24 1090.5,-24 1090.5,-44"/>
<text text-anchor="middle" x="1048" y="-30.5" font-family="Helvetica,sans-Serif" font-size="10.00">ScriptedEntities</text>
</a>
</g>
</g>
<!-- dir_5fb1ed9267b5d67b0cc60f10fe30b4d2 -->
<g id="node14" class="node">
<title>dir_5fb1ed9267b5d67b0cc60f10fe30b4d2</title>
<g id="a_node14"><a xlink:href="dir_5fb1ed9267b5d67b0cc60f10fe30b4d2.html" target="_top" xlink:title="ScriptedLightBase">
<polygon fill="#a0865f" stroke="#404040" points="1203.75,-44 1108.25,-44 1108.25,-24 1203.75,-24 1203.75,-44"/>
<text text-anchor="middle" x="1156" y="-30.5" font-family="Helvetica,sans-Serif" font-size="10.00">ScriptedLightBase</text>
</a>
</g>
</g>
<!-- dir_33cb5814d718054e904d0c2a56d2cedd -->
<g id="node15" class="node">
<title>dir_33cb5814d718054e904d0c2a56d2cedd</title>
<g id="a_node15"><a xlink:href="dir_33cb5814d718054e904d0c2a56d2cedd.html" target="_top" xlink:title="Vehicles">
<polygon fill="#a0865f" stroke="#404040" points="1275.75,-44 1222.25,-44 1222.25,-24 1275.75,-24 1275.75,-44"/>
<text text-anchor="middle" x="1249" y="-30.5" font-family="Helvetica,sans-Serif" font-size="10.00">Vehicles</text>
</a>
</g>
</g>
<!-- dir_b7e7ee9d9a79ad747633427edfd75eb3 -->
<g id="node16" class="node">
<title>dir_b7e7ee9d9a79ad747633427edfd75eb3</title>
<g id="a_node16"><a xlink:href="dir_b7e7ee9d9a79ad747633427edfd75eb3.html" target="_top" xlink:title="WoodBase">
<polygon fill="#a0865f" stroke="#404040" points="1358,-44 1294,-44 1294,-24 1358,-24 1358,-44"/>
<text text-anchor="middle" x="1326" y="-30.5" font-family="Helvetica,sans-Serif" font-size="10.00">WoodBase</text>
</a>
</g>
</g>
</g>
</svg>

<g id="navigator" transform="translate(0 0)" fill="#404254">
  <rect fill="#f2f5e9" fill-opacity="0.5" stroke="#606060" stroke-width=".5" x="0" y="0" width="60" height="60"/>
  <use id="zoomplus" xlink:href="#zoomPlus" x="17" y="9" onmousedown="handleZoom(evt,'in')"/>
  <use id="zoomminus" xlink:href="#zoomMin" x="42" y="9" onmousedown="handleZoom(evt,'out')"/>
  <use id="reset" xlink:href="#resetDef" x="30" y="36" onmousedown="handleReset()"/>
   <use id="arrowup" xlink:href="#arrowUp" x="0" y="0" onmousedown="handlePan(0,-1)"/>
  <use id="arrowright" xlink:href="#arrowRight" x="0" y="0" onmousedown="handlePan(1,0)"/>
  <use id="arrowdown" xlink:href="#arrowDown" x="0" y="0" onmousedown="handlePan(0,1)"/>
  <use id="arrowleft" xlink:href="#arrowLeft" x="0" y="0" onmousedown="handlePan(-1,0)"/>
</g>
<svg viewBox="0 0 15 15" width="100%" height="30px" preserveAspectRatio="xMaxYMin meet">
 <g id="arrow_out" transform="scale(0.3 0.3)">
  <a xlink:href="dir_ca572308276e9dd28b39897081c916ef_dep_org.svg" target="_base">
   <rect id="button" ry="5" rx="5" y="6" x="6" height="38" width="38"
        fill="#f2f5e9" fill-opacity="0.5" stroke="#606060" stroke-width="1.0"/>
   <path id="arrow"
     d="M 11.500037,31.436501 C 11.940474,20.09759 22.043105,11.32322 32.158766,21.979434 L 37.068811,17.246167 C 37.068811,17.246167 37.088388,32 37.088388,32 L 22.160133,31.978069 C 22.160133,31.978069 26.997745,27.140456 26.997745,27.140456 C 18.528582,18.264221 13.291696,25.230495 11.500037,31.436501 z"
     style="fill:#404040;"/>
  </a>
 </g>
</svg>

<style type='text/css'>
<![CDATA[
[data-mouse-over-selected='false'] { opacity: 0.7; }
[data-mouse-over-selected='true']  { opacity: 1.0; }
]]>
</style>
<script type="application/ecmascript"><![CDATA[
document.addEventListener('DOMContentLoaded', (event) => {
  highlightEdges();
  highlightAdjacentNodes();
});
]]></script>
</svg>
