<?xml version="1.0" encoding="UTF-8" standalone="no"?>
<!DOCTYPE svg PUBLIC "-//W3C//DTD SVG 1.1//EN"
 "http://www.w3.org/Graphics/SVG/1.1/DTD/svg11.dtd">
<!-- Generated by graphviz version 11.0.0 (20240428.1522)
 -->
<!-- Title: scripts/3_Game Pages: 1 -->
<!--zoomable 96 -->

<svg id="main" version="1.1" xmlns="http://www.w3.org/2000/svg" xmlns:xlink="http://www.w3.org/1999/xlink" xml:space="preserve" onload="init(evt)">
<style type="text/css"><![CDATA[
.node, .edge {opacity: 0.7;}
.node.selected, .edge.selected {opacity: 1;}
.edge:hover path { stroke: red; }
.edge:hover polygon { stroke: red; fill: red; }
]]></style>

<defs>
  <circle id="rim" cx="0" cy="0" r="7"/>
  <circle id="rim2" cx="0" cy="0" r="3.5"/>
  <g id="zoomPlus">
    <use xlink:href="#rim" fill="#404040"><set attributeName="fill" to="#808080" begin="zoomplus.mouseover" end="zoomplus.mouseout"/></use>
    <path d="M-4,0h8M0,-4v8" fill="none" stroke="white" stroke-width="1.5" pointer-events="none"/>
  </g>
  <g id="zoomMin">
    <use xlink:href="#rim" fill="#404040"><set attributeName="fill" to="#808080" begin="zoomminus.mouseover" end="zoomminus.mouseout"/></use>
    <path d="M-4,0h8" fill="none" stroke="white" stroke-width="1.5" pointer-events="none"/>
  </g>
  <g id="arrowUp" transform="translate(30 24)">
    <use xlink:href="#rim"/>
    <path pointer-events="none" fill="none" stroke="white" stroke-width="1.5" d="M0,-3.0v7 M-2.5,-0.5L0,-3.0L2.5,-0.5"/>
  </g>
  <g id="arrowRight" transform="rotate(90) translate(36 -43)">
    <use xlink:href="#rim"/>
    <path pointer-events="none" fill="none" stroke="white" stroke-width="1.5" d="M0,-3.0v7 M-2.5,-0.5L0,-3.0L2.5,-0.5"/>
  </g>
  <g id="arrowDown" transform="rotate(180) translate(-30 -48)">
    <use xlink:href="#rim"/>
    <path pointer-events="none" fill="none" stroke="white" stroke-width="1.5" d="M0,-3.0v7 M-2.5,-0.5L0,-3.0L2.5,-0.5"/>
  </g>
  <g id="arrowLeft" transform="rotate(270) translate(-36 17)">
    <use xlink:href="#rim"/>
    <path pointer-events="none" fill="none" stroke="white" stroke-width="1.5" d="M0,-3.0v7 M-2.5,-0.5L0,-3.0L2.5,-0.5"/>
  </g>
  <g id="resetDef">
    <use xlink:href="#rim2" fill="#404040"><set attributeName="fill" to="#808080" begin="reset.mouseover" end="reset.mouseout"/></use>
  </g>
</defs>
<script type="application/ecmascript">
var viewWidth = 1369;
var viewHeight = 96;
var sectionId = 'dynsection-0';
</script>
<script type="application/ecmascript" xlink:href="svg.min.js"/>
<svg id="graph" class="graph">
<g id="viewport">
<title>scripts/3_Game</title>
<g id="clust1" class="cluster">
<title>clusterdir_53e6fa9553ac22a5646d2a2b2d7b97a1</title>
<g id="a_clust1"><a xlink:href="dir_53e6fa9553ac22a5646d2a2b2d7b97a1.html" target="_top" xlink:title="scripts">
<polygon fill="#e9e3db" stroke="#404040" stroke-dasharray="5,2" points="8,-8 8,-80 1353,-80 1353,-8 8,-8"/>
<text text-anchor="middle" x="680.5" y="-66.5" font-family="Helvetica,sans-Serif" font-size="10.00">scripts</text>
</a>
</g>
</g>
<g id="clust2" class="cluster">
<title>clusterdir_598262a6a7bafb5d22d26b5db317d363</title>
<g id="a_clust2"><a xlink:href="dir_598262a6a7bafb5d22d26b5db317d363.html" target="_top">
<polygon fill="#e9e3db" stroke="#404040" stroke-width="2" points="16,-16 16,-52 1345,-52 1345,-16 16,-16"/>
</a>
</g>
</g>
<!-- dir_598262a6a7bafb5d22d26b5db317d363 -->
<g id="node1" class="node">
<title>dir_598262a6a7bafb5d22d26b5db317d363</title>
<text text-anchor="middle" x="50" y="-30.5" font-family="Helvetica,sans-Serif" font-size="10.00">3_Game</text>
</g>
<!-- dir_a9842c71522ea105c862d5edf1ef34d7 -->
<g id="node2" class="node">
<title>dir_a9842c71522ea105c862d5edf1ef34d7</title>
<g id="a_node2"><a xlink:href="dir_a9842c71522ea105c862d5edf1ef34d7.html" target="_top" xlink:title="AI">
<polygon fill="#a0865f" stroke="#404040" points="123.4,-44 94.6,-44 94.6,-24 123.4,-24 123.4,-44"/>
<text text-anchor="middle" x="109" y="-30.5" font-family="Helvetica,sans-Serif" font-size="10.00">AI</text>
</a>
</g>
</g>
<!-- dir_ef58c3b14f26b8f0da40e97c122bff0d -->
<g id="node3" class="node">
<title>dir_ef58c3b14f26b8f0da40e97c122bff0d</title>
<g id="a_node3"><a xlink:href="dir_ef58c3b14f26b8f0da40e97c122bff0d.html" target="_top" xlink:title="Analytics">
<polygon fill="#a0865f" stroke="#404040" points="198.25,-44 141.75,-44 141.75,-24 198.25,-24 198.25,-44"/>
<text text-anchor="middle" x="170" y="-30.5" font-family="Helvetica,sans-Serif" font-size="10.00">Analytics</text>
</a>
</g>
</g>
<!-- dir_ec54c2c8428d9ff883aff0087e5f30e4 -->
<g id="node4" class="node">
<title>dir_ec54c2c8428d9ff883aff0087e5f30e4</title>
<g id="a_node4"><a xlink:href="dir_ec54c2c8428d9ff883aff0087e5f30e4.html" target="_top" xlink:title="Anim">
<polygon fill="#a0865f" stroke="#404040" points="255.25,-44 216.75,-44 216.75,-24 255.25,-24 255.25,-44"/>
<text text-anchor="middle" x="236" y="-30.5" font-family="Helvetica,sans-Serif" font-size="10.00">Anim</text>
</a>
</g>
</g>
<!-- dir_001461ed59fbaf95d8d5f803dc151466 -->
<g id="node5" class="node">
<title>dir_001461ed59fbaf95d8d5f803dc151466</title>
<g id="a_node5"><a xlink:href="dir_001461ed59fbaf95d8d5f803dc151466.html" target="_top" xlink:title="CE">
<polygon fill="#a0865f" stroke="#404040" points="302.75,-44 273.25,-44 273.25,-24 302.75,-24 302.75,-44"/>
<text text-anchor="middle" x="288" y="-30.5" font-family="Helvetica,sans-Serif" font-size="10.00">CE</text>
</a>
</g>
</g>
<!-- dir_79fc0412eeb75571e9defa6620edb8f9 -->
<g id="node6" class="node">
<title>dir_79fc0412eeb75571e9defa6620edb8f9</title>
<g id="a_node6"><a xlink:href="dir_79fc0412eeb75571e9defa6620edb8f9.html" target="_top" xlink:title="Client">
<polygon fill="#a0865f" stroke="#404040" points="361.38,-44 320.62,-44 320.62,-24 361.38,-24 361.38,-44"/>
<text text-anchor="middle" x="341" y="-30.5" font-family="Helvetica,sans-Serif" font-size="10.00">Client</text>
</a>
</g>
</g>
<!-- dir_23a06611b17a29c316c9cc123491dd51 -->
<g id="node7" class="node">
<title>dir_23a06611b17a29c316c9cc123491dd51</title>
<g id="a_node7"><a xlink:href="dir_23a06611b17a29c316c9cc123491dd51.html" target="_top" xlink:title="Effects">
<polygon fill="#a0865f" stroke="#404040" points="425,-44 379,-44 379,-24 425,-24 425,-44"/>
<text text-anchor="middle" x="402" y="-30.5" font-family="Helvetica,sans-Serif" font-size="10.00">Effects</text>
</a>
</g>
</g>
<!-- dir_0ed91739e2aafd88742b7d4cf78296ee -->
<g id="node8" class="node">
<title>dir_0ed91739e2aafd88742b7d4cf78296ee</title>
<g id="a_node8"><a xlink:href="dir_0ed91739e2aafd88742b7d4cf78296ee.html" target="_top" xlink:title="Entities">
<polygon fill="#a0865f" stroke="#404040" points="492.5,-44 443.5,-44 443.5,-24 492.5,-24 492.5,-44"/>
<text text-anchor="middle" x="468" y="-30.5" font-family="Helvetica,sans-Serif" font-size="10.00">Entities</text>
</a>
</g>
</g>
<!-- dir_83cc0c8eba4a72bfe3adb008d3261509 -->
<g id="node9" class="node">
<title>dir_83cc0c8eba4a72bfe3adb008d3261509</title>
<g id="a_node9"><a xlink:href="dir_83cc0c8eba4a72bfe3adb008d3261509.html" target="_top" xlink:title="Enums">
<polygon fill="#a0865f" stroke="#404040" points="557.38,-44 510.62,-44 510.62,-24 557.38,-24 557.38,-44"/>
<text text-anchor="middle" x="534" y="-30.5" font-family="Helvetica,sans-Serif" font-size="10.00">Enums</text>
</a>
</g>
</g>
<!-- dir_8ca74c4e5f2bcbbe67e00f6bebd81719 -->
<g id="node10" class="node">
<title>dir_8ca74c4e5f2bcbbe67e00f6bebd81719</title>
<g id="a_node10"><a xlink:href="dir_8ca74c4e5f2bcbbe67e00f6bebd81719.html" target="_top" xlink:title="Global">
<polygon fill="#a0865f" stroke="#404040" points="618.88,-44 575.12,-44 575.12,-24 618.88,-24 618.88,-44"/>
<text text-anchor="middle" x="597" y="-30.5" font-family="Helvetica,sans-Serif" font-size="10.00">Global</text>
</a>
</g>
</g>
<!-- dir_a26f0b871271ca6c3f0deebe22a863a8 -->
<g id="node11" class="node">
<title>dir_a26f0b871271ca6c3f0deebe22a863a8</title>
<g id="a_node11"><a xlink:href="dir_a26f0b871271ca6c3f0deebe22a863a8.html" target="_top" xlink:title="GUI">
<polygon fill="#a0865f" stroke="#404040" points="669.25,-44 636.75,-44 636.75,-24 669.25,-24 669.25,-44"/>
<text text-anchor="middle" x="653" y="-30.5" font-family="Helvetica,sans-Serif" font-size="10.00">GUI</text>
</a>
</g>
</g>
<!-- dir_4f835e05ac410c3c85f95292a003a179 -->
<g id="node12" class="node">
<title>dir_4f835e05ac410c3c85f95292a003a179</title>
<g id="a_node12"><a xlink:href="dir_4f835e05ac410c3c85f95292a003a179.html" target="_top" xlink:title="Hive">
<polygon fill="#a0865f" stroke="#404040" points="721,-44 687,-44 687,-24 721,-24 721,-44"/>
<text text-anchor="middle" x="704" y="-30.5" font-family="Helvetica,sans-Serif" font-size="10.00">Hive</text>
</a>
</g>
</g>
<!-- dir_f77797d5bca46fcd1b49810eb90fcdc8 -->
<g id="node13" class="node">
<title>dir_f77797d5bca46fcd1b49810eb90fcdc8</title>
<g id="a_node13"><a xlink:href="dir_f77797d5bca46fcd1b49810eb90fcdc8.html" target="_top" xlink:title="Http">
<polygon fill="#a0865f" stroke="#404040" points="773,-44 739,-44 739,-24 773,-24 773,-44"/>
<text text-anchor="middle" x="756" y="-30.5" font-family="Helvetica,sans-Serif" font-size="10.00">Http</text>
</a>
</g>
</g>
<!-- dir_a01f3bc2d7264dc723608f15f25e63ed -->
<g id="node14" class="node">
<title>dir_a01f3bc2d7264dc723608f15f25e63ed</title>
<g id="a_node14"><a xlink:href="dir_a01f3bc2d7264dc723608f15f25e63ed.html" target="_top" xlink:title="InputAPI">
<polygon fill="#a0865f" stroke="#404040" points="843.38,-44 790.62,-44 790.62,-24 843.38,-24 843.38,-44"/>
<text text-anchor="middle" x="817" y="-30.5" font-family="Helvetica,sans-Serif" font-size="10.00">InputAPI</text>
</a>
</g>
</g>
<!-- dir_00dfa6b39774d39ad3f47e2e849be1a1 -->
<g id="node15" class="node">
<title>dir_00dfa6b39774d39ad3f47e2e849be1a1</title>
<g id="a_node15"><a xlink:href="dir_00dfa6b39774d39ad3f47e2e849be1a1.html" target="_top" xlink:title="Particles">
<polygon fill="#a0865f" stroke="#404040" points="916.12,-44 861.88,-44 861.88,-24 916.12,-24 916.12,-44"/>
<text text-anchor="middle" x="889" y="-30.5" font-family="Helvetica,sans-Serif" font-size="10.00">Particles</text>
</a>
</g>
</g>
<!-- dir_054070101914fb4757535984faa028bd -->
<g id="node16" class="node">
<title>dir_054070101914fb4757535984faa028bd</title>
<g id="a_node16"><a xlink:href="dir_054070101914fb4757535984faa028bd.html" target="_top" xlink:title="PPEManager">
<polygon fill="#a0865f" stroke="#404040" points="1007.88,-44 934.12,-44 934.12,-24 1007.88,-24 1007.88,-44"/>
<text text-anchor="middle" x="971" y="-30.5" font-family="Helvetica,sans-Serif" font-size="10.00">PPEManager</text>
</a>
</g>
</g>
<!-- dir_7543066d88c47e72eef3f6e3c6b5d52d -->
<g id="node17" class="node">
<title>dir_7543066d88c47e72eef3f6e3c6b5d52d</title>
<g id="a_node17"><a xlink:href="dir_7543066d88c47e72eef3f6e3c6b5d52d.html" target="_top" xlink:title="Services">
<polygon fill="#a0865f" stroke="#404040" points="1078.38,-44 1025.62,-44 1025.62,-24 1078.38,-24 1078.38,-44"/>
<text text-anchor="middle" x="1052" y="-30.5" font-family="Helvetica,sans-Serif" font-size="10.00">Services</text>
</a>
</g>
</g>
<!-- dir_0271f97d79ec109ba6654d9b9a19175b -->
<g id="node18" class="node">
<title>dir_0271f97d79ec109ba6654d9b9a19175b</title>
<g id="a_node18"><a xlink:href="dir_0271f97d79ec109ba6654d9b9a19175b.html" target="_top" xlink:title="Static">
<polygon fill="#a0865f" stroke="#404040" points="1137.75,-44 1096.25,-44 1096.25,-24 1137.75,-24 1137.75,-44"/>
<text text-anchor="middle" x="1117" y="-30.5" font-family="Helvetica,sans-Serif" font-size="10.00">Static</text>
</a>
</g>
</g>
<!-- dir_2060d4433b2c833a8ca6d4a429c93bae -->
<g id="node19" class="node">
<title>dir_2060d4433b2c833a8ca6d4a429c93bae</title>
<g id="a_node19"><a xlink:href="dir_2060d4433b2c833a8ca6d4a429c93bae.html" target="_top" xlink:title="Systems">
<polygon fill="#a0865f" stroke="#404040" points="1210.5,-44 1155.5,-44 1155.5,-24 1210.5,-24 1210.5,-44"/>
<text text-anchor="middle" x="1183" y="-30.5" font-family="Helvetica,sans-Serif" font-size="10.00">Systems</text>
</a>
</g>
</g>
<!-- dir_18fad066fd79374d8ace76518c0324e0 -->
<g id="node20" class="node">
<title>dir_18fad066fd79374d8ace76518c0324e0</title>
<g id="a_node20"><a xlink:href="dir_18fad066fd79374d8ace76518c0324e0.html" target="_top" xlink:title="tools">
<polygon fill="#a0865f" stroke="#404040" points="1265.5,-44 1228.5,-44 1228.5,-24 1265.5,-24 1265.5,-44"/>
<text text-anchor="middle" x="1247" y="-30.5" font-family="Helvetica,sans-Serif" font-size="10.00">tools</text>
</a>
</g>
</g>
<!-- dir_4d46f81a1cfbeb135f18b0ba9d1ed36f -->
<g id="node21" class="node">
<title>dir_4d46f81a1cfbeb135f18b0ba9d1ed36f</title>
<g id="a_node21"><a xlink:href="dir_4d46f81a1cfbeb135f18b0ba9d1ed36f.html" target="_top" xlink:title="Vehicles">
<polygon fill="#a0865f" stroke="#404040" points="1336.75,-44 1283.25,-44 1283.25,-24 1336.75,-24 1336.75,-44"/>
<text text-anchor="middle" x="1310" y="-30.5" font-family="Helvetica,sans-Serif" font-size="10.00">Vehicles</text>
</a>
</g>
</g>
</g>
</svg>

<g id="navigator" transform="translate(0 0)" fill="#404254">
  <rect fill="#f2f5e9" fill-opacity="0.5" stroke="#606060" stroke-width=".5" x="0" y="0" width="60" height="60"/>
  <use id="zoomplus" xlink:href="#zoomPlus" x="17" y="9" onmousedown="handleZoom(evt,'in')"/>
  <use id="zoomminus" xlink:href="#zoomMin" x="42" y="9" onmousedown="handleZoom(evt,'out')"/>
  <use id="reset" xlink:href="#resetDef" x="30" y="36" onmousedown="handleReset()"/>
   <use id="arrowup" xlink:href="#arrowUp" x="0" y="0" onmousedown="handlePan(0,-1)"/>
  <use id="arrowright" xlink:href="#arrowRight" x="0" y="0" onmousedown="handlePan(1,0)"/>
  <use id="arrowdown" xlink:href="#arrowDown" x="0" y="0" onmousedown="handlePan(0,1)"/>
  <use id="arrowleft" xlink:href="#arrowLeft" x="0" y="0" onmousedown="handlePan(-1,0)"/>
</g>
<svg viewBox="0 0 15 15" width="100%" height="30px" preserveAspectRatio="xMaxYMin meet">
 <g id="arrow_out" transform="scale(0.3 0.3)">
  <a xlink:href="dir_598262a6a7bafb5d22d26b5db317d363_dep_org.svg" target="_base">
   <rect id="button" ry="5" rx="5" y="6" x="6" height="38" width="38"
        fill="#f2f5e9" fill-opacity="0.5" stroke="#606060" stroke-width="1.0"/>
   <path id="arrow"
     d="M 11.500037,31.436501 C 11.940474,20.09759 22.043105,11.32322 32.158766,21.979434 L 37.068811,17.246167 C 37.068811,17.246167 37.088388,32 37.088388,32 L 22.160133,31.978069 C 22.160133,31.978069 26.997745,27.140456 26.997745,27.140456 C 18.528582,18.264221 13.291696,25.230495 11.500037,31.436501 z"
     style="fill:#404040;"/>
  </a>
 </g>
</svg>

<style type='text/css'>
<![CDATA[
[data-mouse-over-selected='false'] { opacity: 0.7; }
[data-mouse-over-selected='true']  { opacity: 1.0; }
]]>
</style>
<script type="application/ecmascript"><![CDATA[
document.addEventListener('DOMContentLoaded', (event) => {
  highlightEdges();
  highlightAdjacentNodes();
});
]]></script>
</svg>
