<?xml version="1.0" encoding="UTF-8" standalone="no"?>
<!DOCTYPE svg PUBLIC "-//W3C//DTD SVG 1.1//EN"
 "http://www.w3.org/Graphics/SVG/1.1/DTD/svg11.dtd">
<!-- Generated by graphviz version 11.0.0 (20240428.1522)
 -->
<!-- Title: scripts/4_World/Entities/ItemBase/Gear Pages: 1 -->
<!--zoomable 96 -->

<svg id="main" version="1.1" xmlns="http://www.w3.org/2000/svg" xmlns:xlink="http://www.w3.org/1999/xlink" xml:space="preserve" onload="init(evt)">
<style type="text/css"><![CDATA[
.node, .edge {opacity: 0.7;}
.node.selected, .edge.selected {opacity: 1;}
.edge:hover path { stroke: red; }
.edge:hover polygon { stroke: red; fill: red; }
]]></style>

<defs>
  <circle id="rim" cx="0" cy="0" r="7"/>
  <circle id="rim2" cx="0" cy="0" r="3.5"/>
  <g id="zoomPlus">
    <use xlink:href="#rim" fill="#404040"><set attributeName="fill" to="#808080" begin="zoomplus.mouseover" end="zoomplus.mouseout"/></use>
    <path d="M-4,0h8M0,-4v8" fill="none" stroke="white" stroke-width="1.5" pointer-events="none"/>
  </g>
  <g id="zoomMin">
    <use xlink:href="#rim" fill="#404040"><set attributeName="fill" to="#808080" begin="zoomminus.mouseover" end="zoomminus.mouseout"/></use>
    <path d="M-4,0h8" fill="none" stroke="white" stroke-width="1.5" pointer-events="none"/>
  </g>
  <g id="arrowUp" transform="translate(30 24)">
    <use xlink:href="#rim"/>
    <path pointer-events="none" fill="none" stroke="white" stroke-width="1.5" d="M0,-3.0v7 M-2.5,-0.5L0,-3.0L2.5,-0.5"/>
  </g>
  <g id="arrowRight" transform="rotate(90) translate(36 -43)">
    <use xlink:href="#rim"/>
    <path pointer-events="none" fill="none" stroke="white" stroke-width="1.5" d="M0,-3.0v7 M-2.5,-0.5L0,-3.0L2.5,-0.5"/>
  </g>
  <g id="arrowDown" transform="rotate(180) translate(-30 -48)">
    <use xlink:href="#rim"/>
    <path pointer-events="none" fill="none" stroke="white" stroke-width="1.5" d="M0,-3.0v7 M-2.5,-0.5L0,-3.0L2.5,-0.5"/>
  </g>
  <g id="arrowLeft" transform="rotate(270) translate(-36 17)">
    <use xlink:href="#rim"/>
    <path pointer-events="none" fill="none" stroke="white" stroke-width="1.5" d="M0,-3.0v7 M-2.5,-0.5L0,-3.0L2.5,-0.5"/>
  </g>
  <g id="resetDef">
    <use xlink:href="#rim2" fill="#404040"><set attributeName="fill" to="#808080" begin="reset.mouseover" end="reset.mouseout"/></use>
  </g>
</defs>
<script type="application/ecmascript">
var viewWidth = 870;
var viewHeight = 96;
var sectionId = 'dynsection-0';
</script>
<script type="application/ecmascript" xlink:href="svg.min.js"/>
<svg id="graph" class="graph">
<g id="viewport">
<title>scripts/4_World/Entities/ItemBase/Gear</title>
<g id="clust1" class="cluster">
<title>clusterdir_16172909d47e0c14f9caca049b6c1810</title>
<g id="a_clust1"><a xlink:href="dir_16172909d47e0c14f9caca049b6c1810.html" target="_top" xlink:title="ItemBase">
<polygon fill="#e9e3db" stroke="#7f7f7f" stroke-dasharray="5,2" points="8,-8 8,-80 854,-80 854,-8 8,-8"/>
<text text-anchor="middle" x="431" y="-66.5" font-family="Helvetica,sans-Serif" font-size="10.00">ItemBase</text>
</a>
</g>
</g>
<g id="clust2" class="cluster">
<title>clusterdir_2956d781331ceedd1007e539fb8cbf5b</title>
<g id="a_clust2"><a xlink:href="dir_2956d781331ceedd1007e539fb8cbf5b.html" target="_top">
<polygon fill="#e9e3db" stroke="#404040" stroke-width="2" points="16,-16 16,-52 846,-52 846,-16 16,-16"/>
</a>
</g>
</g>
<!-- dir_2956d781331ceedd1007e539fb8cbf5b -->
<g id="node1" class="node">
<title>dir_2956d781331ceedd1007e539fb8cbf5b</title>
<text text-anchor="middle" x="43" y="-30.5" font-family="Helvetica,sans-Serif" font-size="10.00">Gear</text>
</g>
<!-- dir_b2ba5823a630d67fadc03f5ebfea1afc -->
<g id="node2" class="node">
<title>dir_b2ba5823a630d67fadc03f5ebfea1afc</title>
<g id="a_node2"><a xlink:href="dir_b2ba5823a630d67fadc03f5ebfea1afc.html" target="_top" xlink:title="Camping">
<polygon fill="#a0865f" stroke="#404040" points="134.12,-44 79.88,-44 79.88,-24 134.12,-24 134.12,-44"/>
<text text-anchor="middle" x="107" y="-30.5" font-family="Helvetica,sans-Serif" font-size="10.00">Camping</text>
</a>
</g>
</g>
<!-- dir_98d56589607d532ccb21422c37bb4bc3 -->
<g id="node3" class="node">
<title>dir_98d56589607d532ccb21422c37bb4bc3</title>
<g id="a_node3"><a xlink:href="dir_98d56589607d532ccb21422c37bb4bc3.html" target="_top" xlink:title="Consumables">
<polygon fill="#a0865f" stroke="#404040" points="227.62,-44 152.38,-44 152.38,-24 227.62,-24 227.62,-44"/>
<text text-anchor="middle" x="190" y="-30.5" font-family="Helvetica,sans-Serif" font-size="10.00">Consumables</text>
</a>
</g>
</g>
<!-- dir_e90a452a51609f22a26628f8320feb0d -->
<g id="node4" class="node">
<title>dir_e90a452a51609f22a26628f8320feb0d</title>
<g id="a_node4"><a xlink:href="dir_e90a452a51609f22a26628f8320feb0d.html" target="_top" xlink:title="Containers">
<polygon fill="#a0865f" stroke="#404040" points="308.25,-44 245.75,-44 245.75,-24 308.25,-24 308.25,-44"/>
<text text-anchor="middle" x="277" y="-30.5" font-family="Helvetica,sans-Serif" font-size="10.00">Containers</text>
</a>
</g>
</g>
<!-- dir_8c58d1b53b8ee81abfe68a6bffd8fd32 -->
<g id="node5" class="node">
<title>dir_8c58d1b53b8ee81abfe68a6bffd8fd32</title>
<g id="a_node5"><a xlink:href="dir_8c58d1b53b8ee81abfe68a6bffd8fd32.html" target="_top" xlink:title="Crafting">
<polygon fill="#a0865f" stroke="#404040" points="375.5,-44 326.5,-44 326.5,-24 375.5,-24 375.5,-44"/>
<text text-anchor="middle" x="351" y="-30.5" font-family="Helvetica,sans-Serif" font-size="10.00">Crafting</text>
</a>
</g>
</g>
<!-- dir_49dff390f980002c1951852ca3ea1338 -->
<g id="node6" class="node">
<title>dir_49dff390f980002c1951852ca3ea1338</title>
<g id="a_node6"><a xlink:href="dir_49dff390f980002c1951852ca3ea1338.html" target="_top" xlink:title="Cultivation">
<polygon fill="#a0865f" stroke="#404040" points="454.12,-44 393.88,-44 393.88,-24 454.12,-24 454.12,-44"/>
<text text-anchor="middle" x="424" y="-30.5" font-family="Helvetica,sans-Serif" font-size="10.00">Cultivation</text>
</a>
</g>
</g>
<!-- dir_fee0a379c7af825707b4e3f022d52070 -->
<g id="node7" class="node">
<title>dir_fee0a379c7af825707b4e3f022d52070</title>
<g id="a_node7"><a xlink:href="dir_fee0a379c7af825707b4e3f022d52070.html" target="_top" xlink:title="Drinks">
<polygon fill="#a0865f" stroke="#404040" points="515.88,-44 472.12,-44 472.12,-24 515.88,-24 515.88,-44"/>
<text text-anchor="middle" x="494" y="-30.5" font-family="Helvetica,sans-Serif" font-size="10.00">Drinks</text>
</a>
</g>
</g>
<!-- dir_95a49f6cd687bb4b70c545b92f302d53 -->
<g id="node8" class="node">
<title>dir_95a49f6cd687bb4b70c545b92f302d53</title>
<g id="a_node8"><a xlink:href="dir_95a49f6cd687bb4b70c545b92f302d53.html" target="_top" xlink:title="Food">
<polygon fill="#a0865f" stroke="#404040" points="571.88,-44 534.12,-44 534.12,-24 571.88,-24 571.88,-44"/>
<text text-anchor="middle" x="553" y="-30.5" font-family="Helvetica,sans-Serif" font-size="10.00">Food</text>
</a>
</g>
</g>
<!-- dir_b476a1b098a6704fb3a7ec9a5766c034 -->
<g id="node9" class="node">
<title>dir_b476a1b098a6704fb3a7ec9a5766c034</title>
<g id="a_node9"><a xlink:href="dir_b476a1b098a6704fb3a7ec9a5766c034.html" target="_top" xlink:title="Medical">
<polygon fill="#a0865f" stroke="#404040" points="639.88,-44 590.12,-44 590.12,-24 639.88,-24 639.88,-44"/>
<text text-anchor="middle" x="615" y="-30.5" font-family="Helvetica,sans-Serif" font-size="10.00">Medical</text>
</a>
</g>
</g>
<!-- dir_0b6ce8986602c096d1a8644b14e8120b -->
<g id="node10" class="node">
<title>dir_0b6ce8986602c096d1a8644b14e8120b</title>
<g id="a_node10"><a xlink:href="dir_0b6ce8986602c096d1a8644b14e8120b.html" target="_top" xlink:title="Navigation">
<polygon fill="#a0865f" stroke="#404040" points="718.12,-44 657.88,-44 657.88,-24 718.12,-24 718.12,-44"/>
<text text-anchor="middle" x="688" y="-30.5" font-family="Helvetica,sans-Serif" font-size="10.00">Navigation</text>
</a>
</g>
</g>
<!-- dir_77ee6e66a733348dbc386819c8eeffa4 -->
<g id="node11" class="node">
<title>dir_77ee6e66a733348dbc386819c8eeffa4</title>
<g id="a_node11"><a xlink:href="dir_77ee6e66a733348dbc386819c8eeffa4.html" target="_top" xlink:title="Optics">
<polygon fill="#a0865f" stroke="#404040" points="780.25,-44 735.75,-44 735.75,-24 780.25,-24 780.25,-44"/>
<text text-anchor="middle" x="758" y="-30.5" font-family="Helvetica,sans-Serif" font-size="10.00">Optics</text>
</a>
</g>
</g>
<!-- dir_d860971d87d8d6e6e6ab0f82a69ae165 -->
<g id="node12" class="node">
<title>dir_d860971d87d8d6e6e6ab0f82a69ae165</title>
<g id="a_node12"><a xlink:href="dir_d860971d87d8d6e6e6ab0f82a69ae165.html" target="_top" xlink:title="Tools">
<polygon fill="#a0865f" stroke="#404040" points="837.62,-44 798.38,-44 798.38,-24 837.62,-24 837.62,-44"/>
<text text-anchor="middle" x="818" y="-30.5" font-family="Helvetica,sans-Serif" font-size="10.00">Tools</text>
</a>
</g>
</g>
</g>
</svg>

<g id="navigator" transform="translate(0 0)" fill="#404254">
  <rect fill="#f2f5e9" fill-opacity="0.5" stroke="#606060" stroke-width=".5" x="0" y="0" width="60" height="60"/>
  <use id="zoomplus" xlink:href="#zoomPlus" x="17" y="9" onmousedown="handleZoom(evt,'in')"/>
  <use id="zoomminus" xlink:href="#zoomMin" x="42" y="9" onmousedown="handleZoom(evt,'out')"/>
  <use id="reset" xlink:href="#resetDef" x="30" y="36" onmousedown="handleReset()"/>
   <use id="arrowup" xlink:href="#arrowUp" x="0" y="0" onmousedown="handlePan(0,-1)"/>
  <use id="arrowright" xlink:href="#arrowRight" x="0" y="0" onmousedown="handlePan(1,0)"/>
  <use id="arrowdown" xlink:href="#arrowDown" x="0" y="0" onmousedown="handlePan(0,1)"/>
  <use id="arrowleft" xlink:href="#arrowLeft" x="0" y="0" onmousedown="handlePan(-1,0)"/>
</g>
<svg viewBox="0 0 15 15" width="100%" height="30px" preserveAspectRatio="xMaxYMin meet">
 <g id="arrow_out" transform="scale(0.3 0.3)">
  <a xlink:href="dir_2956d781331ceedd1007e539fb8cbf5b_dep_org.svg" target="_base">
   <rect id="button" ry="5" rx="5" y="6" x="6" height="38" width="38"
        fill="#f2f5e9" fill-opacity="0.5" stroke="#606060" stroke-width="1.0"/>
   <path id="arrow"
     d="M 11.500037,31.436501 C 11.940474,20.09759 22.043105,11.32322 32.158766,21.979434 L 37.068811,17.246167 C 37.068811,17.246167 37.088388,32 37.088388,32 L 22.160133,31.978069 C 22.160133,31.978069 26.997745,27.140456 26.997745,27.140456 C 18.528582,18.264221 13.291696,25.230495 11.500037,31.436501 z"
     style="fill:#404040;"/>
  </a>
 </g>
</svg>

<style type='text/css'>
<![CDATA[
[data-mouse-over-selected='false'] { opacity: 0.7; }
[data-mouse-over-selected='true']  { opacity: 1.0; }
]]>
</style>
<script type="application/ecmascript"><![CDATA[
document.addEventListener('DOMContentLoaded', (event) => {
  highlightEdges();
  highlightAdjacentNodes();
});
]]></script>
</svg>
