<?xml version="1.0" encoding="UTF-8" standalone="no"?>
<!DOCTYPE svg PUBLIC "-//W3C//DTD SVG 1.1//EN"
 "http://www.w3.org/Graphics/SVG/1.1/DTD/svg11.dtd">
<!-- Generated by graphviz version 11.0.0 (20240428.1522)
 -->
<!-- Title: Graphical Class Hierarchy Pages: 1 -->
<svg width="382pt" height="142pt"
 viewBox="0.00 0.00 381.50 142.00" xmlns="http://www.w3.org/2000/svg" xmlns:xlink="http://www.w3.org/1999/xlink">
<g id="graph0" class="graph" transform="scale(1 1) rotate(0) translate(4 138)">
<title>Graphical Class Hierarchy</title>
<!-- Node0 -->
<g id="Node000000" class="node">
<title>Node0</title>
<g id="a_Node000000"><a xlink:href="dc/d01/class_game_inventory.html" target="_top" xlink:title="script counterpart to engine&#39;s class Inventory">
<polygon fill="white" stroke="#666666" points="80.5,-77 0,-77 0,-57 80.5,-57 80.5,-77"/>
<text text-anchor="middle" x="40.25" y="-63.5" font-family="Helvetica,sans-Serif" font-size="10.00">GameInventory</text>
</a>
</g>
</g>
<!-- Node1 -->
<g id="Node000001" class="node">
<title>Node1</title>
<g id="a_Node000001"><a xlink:href="d7/d03/class_building_inventory.html" target="_top" xlink:title="inventory for buildings (also called &quot;proxy cargo&quot;)">
<polygon fill="white" stroke="#666666" points="208.25,-134 119.5,-134 119.5,-114 208.25,-114 208.25,-134"/>
<text text-anchor="middle" x="163.88" y="-120.5" font-family="Helvetica,sans-Serif" font-size="10.00">BuildingInventory</text>
</a>
</g>
</g>
<!-- Node0&#45;&gt;Node1 -->
<g id="edge709_Node000000_Node000001" class="edge">
<title>Node0&#45;&gt;Node1</title>
<g id="a_edge709_Node000000_Node000001"><a xlink:title=" ">
<path fill="none" stroke="#8b1a1a" d="M70.74,-82.57C84.52,-89.67 101.22,-98.03 116.5,-105 122.83,-107.89 129.74,-110.83 136.23,-113.51"/>
<polygon fill="#8b1a1a" stroke="#8b1a1a" points="72.68,-79.63 62.19,-78.13 69.45,-85.84 72.68,-79.63"/>
</a>
</g>
</g>
<!-- Node2 -->
<g id="Node000002" class="node">
<title>Node2</title>
<g id="a_Node000002"><a xlink:href="d8/d06/class_human_inventory.html" target="_top" xlink:title="inventory for plain man/human">
<polygon fill="white" stroke="#666666" points="206.38,-96 121.38,-96 121.38,-76 206.38,-76 206.38,-96"/>
<text text-anchor="middle" x="163.88" y="-82.5" font-family="Helvetica,sans-Serif" font-size="10.00">HumanInventory</text>
</a>
</g>
</g>
<!-- Node0&#45;&gt;Node2 -->
<g id="edge710_Node000000_Node000002" class="edge">
<title>Node0&#45;&gt;Node2</title>
<g id="a_edge710_Node000000_Node000002"><a xlink:title=" ">
<path fill="none" stroke="#8b1a1a" d="M91.91,-74.91C101.62,-76.43 111.68,-78 121.07,-79.47"/>
<polygon fill="#8b1a1a" stroke="#8b1a1a" points="92.65,-71.49 82.23,-73.4 91.57,-78.4 92.65,-71.49"/>
</a>
</g>
</g>
<!-- Node4 -->
<g id="Node000004" class="node">
<title>Node4</title>
<g id="a_Node000004"><a xlink:href="d1/d06/class_item_inventory.html" target="_top" xlink:title=" ">
<polygon fill="white" stroke="#666666" points="200.38,-58 127.38,-58 127.38,-38 200.38,-38 200.38,-58"/>
<text text-anchor="middle" x="163.88" y="-44.5" font-family="Helvetica,sans-Serif" font-size="10.00">ItemInventory</text>
</a>
</g>
</g>
<!-- Node0&#45;&gt;Node4 -->
<g id="edge712_Node000000_Node000004" class="edge">
<title>Node0&#45;&gt;Node4</title>
<g id="a_edge712_Node000000_Node000004"><a xlink:title=" ">
<path fill="none" stroke="#8b1a1a" d="M91.8,-59.1C103.58,-57.26 115.88,-55.34 126.88,-53.62"/>
<polygon fill="#8b1a1a" stroke="#8b1a1a" points="91.57,-55.6 82.23,-60.6 92.65,-62.51 91.57,-55.6"/>
</a>
</g>
</g>
<!-- Node6 -->
<g id="Node000006" class="node">
<title>Node6</title>
<g id="a_Node000006"><a xlink:href="d0/d00/class_transport_inventory.html" target="_top" xlink:title="inventory for transport (&quot;man cargo&quot;)">
<polygon fill="white" stroke="#666666" points="211.25,-20 116.5,-20 116.5,0 211.25,0 211.25,-20"/>
<text text-anchor="middle" x="163.88" y="-6.5" font-family="Helvetica,sans-Serif" font-size="10.00">TransportInventory</text>
</a>
</g>
</g>
<!-- Node0&#45;&gt;Node6 -->
<g id="edge714_Node000000_Node000006" class="edge">
<title>Node0&#45;&gt;Node6</title>
<g id="a_edge714_Node000000_Node000006"><a xlink:title=" ">
<path fill="none" stroke="#8b1a1a" d="M70.74,-51.43C84.52,-44.33 101.22,-35.97 116.5,-29 122.83,-26.11 129.74,-23.17 136.23,-20.49"/>
<polygon fill="#8b1a1a" stroke="#8b1a1a" points="69.45,-48.16 62.19,-55.87 72.68,-54.37 69.45,-48.16"/>
</a>
</g>
</g>
<!-- Node3 -->
<g id="Node000003" class="node">
<title>Node3</title>
<g id="a_Node000003"><a xlink:href="d4/d09/class_human_inventory_with_f_s_m.html" target="_top" xlink:title="HumanInventory... with FSM (synchronous, no anims)">
<polygon fill="white" stroke="#666666" points="373.5,-96 247.25,-96 247.25,-76 373.5,-76 373.5,-96"/>
<text text-anchor="middle" x="310.38" y="-82.5" font-family="Helvetica,sans-Serif" font-size="10.00">HumanInventoryWithFSM</text>
</a>
</g>
</g>
<!-- Node2&#45;&gt;Node3 -->
<g id="edge711_Node000002_Node000003" class="edge">
<title>Node2&#45;&gt;Node3</title>
<g id="a_edge711_Node000002_Node000003"><a xlink:title=" ">
<path fill="none" stroke="#8b1a1a" d="M217.92,-86C227.37,-86 237.29,-86 246.97,-86"/>
<polygon fill="#8b1a1a" stroke="#8b1a1a" points="218.18,-82.5 208.18,-86 218.18,-89.5 218.18,-82.5"/>
</a>
</g>
</g>
<!-- Node5 -->
<g id="Node000005" class="node">
<title>Node5</title>
<g id="a_Node000005"><a xlink:href="db/d02/class_weapon_inventory.html" target="_top" xlink:title="inventory for weapons">
<polygon fill="white" stroke="#666666" points="355.5,-58 265.25,-58 265.25,-38 355.5,-38 355.5,-58"/>
<text text-anchor="middle" x="310.38" y="-44.5" font-family="Helvetica,sans-Serif" font-size="10.00">WeaponInventory</text>
</a>
</g>
</g>
<!-- Node4&#45;&gt;Node5 -->
<g id="edge713_Node000004_Node000005" class="edge">
<title>Node4&#45;&gt;Node5</title>
<g id="a_edge713_Node000004_Node000005"><a xlink:title=" ">
<path fill="none" stroke="#8b1a1a" d="M211.95,-48C228.92,-48 248,-48 264.75,-48"/>
<polygon fill="#8b1a1a" stroke="#8b1a1a" points="212.11,-44.5 202.11,-48 212.11,-51.5 212.11,-44.5"/>
</a>
</g>
</g>
</g>
</svg>
