<?xml version="1.0" encoding="UTF-8" standalone="no"?>
<!DOCTYPE svg PUBLIC "-//W3C//DTD SVG 1.1//EN"
 "http://www.w3.org/Graphics/SVG/1.1/DTD/svg11.dtd">
<!-- Generated by graphviz version 11.0.0 (20240428.1522)
 -->
<!-- Title: Graphical Class Hierarchy Pages: 1 -->
<svg width="215pt" height="104pt"
 viewBox="0.00 0.00 214.75 104.00" xmlns="http://www.w3.org/2000/svg" xmlns:xlink="http://www.w3.org/1999/xlink">
<g id="graph0" class="graph" transform="scale(1 1) rotate(0) translate(4 100)">
<title>Graphical Class Hierarchy</title>
<!-- Node0 -->
<g id="Node000000" class="node">
<title>Node0</title>
<g id="a_Node000000"><a xlink:href="dc/d0f/class_w_b_module_def.html" target="_top" xlink:title=" ">
<polygon fill="white" stroke="#666666" points="78.25,-58 0,-58 0,-38 78.25,-38 78.25,-58"/>
<text text-anchor="middle" x="39.12" y="-44.5" font-family="Helvetica,sans-Serif" font-size="10.00">WBModuleDef</text>
</a>
</g>
</g>
<!-- Node1 -->
<g id="Node000001" class="node">
<title>Node1</title>
<g id="a_Node000001"><a xlink:href="d3/d03/class_resource_browser.html" target="_top" xlink:title=" ">
<polygon fill="white" stroke="#666666" points="206.75,-96 114.25,-96 114.25,-76 206.75,-76 206.75,-96"/>
<text text-anchor="middle" x="160.5" y="-82.5" font-family="Helvetica,sans-Serif" font-size="10.00">ResourceBrowser</text>
</a>
</g>
</g>
<!-- Node0&#45;&gt;Node1 -->
<g id="edge1766_Node000000_Node000001" class="edge">
<title>Node0&#45;&gt;Node1</title>
<g id="a_edge1766_Node000000_Node000001"><a xlink:title=" ">
<path fill="none" stroke="#8b1a1a" d="M83.61,-61.84C97.83,-66.37 113.38,-71.32 126.67,-75.55"/>
<polygon fill="#8b1a1a" stroke="#8b1a1a" points="85.09,-58.64 74.5,-58.94 82.97,-65.31 85.09,-58.64"/>
</a>
</g>
</g>
<!-- Node2 -->
<g id="Node000002" class="node">
<title>Node2</title>
<g id="a_Node000002"><a xlink:href="db/d01/class_script_editor.html" target="_top" xlink:title=" ">
<polygon fill="white" stroke="#666666" points="194,-58 127,-58 127,-38 194,-38 194,-58"/>
<text text-anchor="middle" x="160.5" y="-44.5" font-family="Helvetica,sans-Serif" font-size="10.00">ScriptEditor</text>
</a>
</g>
</g>
<!-- Node0&#45;&gt;Node2 -->
<g id="edge1767_Node000000_Node000002" class="edge">
<title>Node0&#45;&gt;Node2</title>
<g id="a_edge1767_Node000000_Node000002"><a xlink:title=" ">
<path fill="none" stroke="#8b1a1a" d="M89.78,-48C102.26,-48 115.34,-48 126.76,-48"/>
<polygon fill="#8b1a1a" stroke="#8b1a1a" points="90.07,-44.5 80.07,-48 90.07,-51.5 90.07,-44.5"/>
</a>
</g>
</g>
<!-- Node3 -->
<g id="Node000003" class="node">
<title>Node3</title>
<g id="a_Node000003"><a xlink:href="d2/d03/class_world_editor.html" target="_top" xlink:title=" ">
<polygon fill="white" stroke="#666666" points="194,-20 127,-20 127,0 194,0 194,-20"/>
<text text-anchor="middle" x="160.5" y="-6.5" font-family="Helvetica,sans-Serif" font-size="10.00">WorldEditor</text>
</a>
</g>
</g>
<!-- Node0&#45;&gt;Node3 -->
<g id="edge1768_Node000000_Node000003" class="edge">
<title>Node0&#45;&gt;Node3</title>
<g id="a_edge1768_Node000000_Node000003"><a xlink:title=" ">
<path fill="none" stroke="#8b1a1a" d="M83.61,-34.16C97.83,-29.63 113.38,-24.68 126.67,-20.45"/>
<polygon fill="#8b1a1a" stroke="#8b1a1a" points="82.97,-30.69 74.5,-37.06 85.09,-37.36 82.97,-30.69"/>
</a>
</g>
</g>
</g>
</svg>
