<?xml version="1.0" encoding="UTF-8" standalone="no"?>
<!DOCTYPE svg PUBLIC "-//W3C//DTD SVG 1.1//EN"
 "http://www.w3.org/Graphics/SVG/1.1/DTD/svg11.dtd">
<!-- Generated by graphviz version 11.0.0 (20240428.1522)
 -->
<!-- Title: Graphical Class Hierarchy Pages: 1 -->
<svg width="403pt" height="142pt"
 viewBox="0.00 0.00 403.25 142.00" xmlns="http://www.w3.org/2000/svg" xmlns:xlink="http://www.w3.org/1999/xlink">
<g id="graph0" class="graph" transform="scale(1 1) rotate(0) translate(4 138)">
<title>Graphical Class Hierarchy</title>
<!-- Node0 -->
<g id="Node000000" class="node">
<title>Node0</title>
<g id="a_Node000000"><a xlink:title=" ">
<polygon fill="#e0e0e0" stroke="#999999" points="72.25,-77 0,-77 0,-57 72.25,-57 72.25,-77"/>
<text text-anchor="middle" x="36.12" y="-63.5" font-family="Helvetica,sans-Serif" font-size="10.00">ActionAttach</text>
</a>
</g>
</g>
<!-- Node1 -->
<g id="Node000001" class="node">
<title>Node1</title>
<g id="a_Node000001"><a xlink:href="d9/d0e/class_action_attach_on_proxy.html" target="_top" xlink:title=" ">
<polygon fill="white" stroke="#666666" points="224.38,-134 113.88,-134 113.88,-114 224.38,-114 224.38,-134"/>
<text text-anchor="middle" x="169.12" y="-120.5" font-family="Helvetica,sans-Serif" font-size="10.00">ActionAttachOnProxy</text>
</a>
</g>
</g>
<!-- Node0&#45;&gt;Node1 -->
<g id="edge3_Node000000_Node000001" class="edge">
<title>Node0&#45;&gt;Node1</title>
<g id="a_edge3_Node000000_Node000001"><a xlink:title=" ">
<path fill="none" stroke="#8b1a1a" d="M64.25,-83.01C77.28,-90.3 93.29,-98.69 108.25,-105 115.69,-108.14 123.83,-111.05 131.64,-113.6"/>
<polygon fill="#8b1a1a" stroke="#8b1a1a" points="66.25,-80.12 55.83,-78.2 62.78,-86.2 66.25,-80.12"/>
</a>
</g>
</g>
<!-- Node3 -->
<g id="Node000003" class="node">
<title>Node3</title>
<g id="a_Node000003"><a xlink:href="d8/d06/class_action_attach_on_trap.html" target="_top" xlink:title=" ">
<polygon fill="white" stroke="#666666" points="221,-96 117.25,-96 117.25,-76 221,-76 221,-96"/>
<text text-anchor="middle" x="169.12" y="-82.5" font-family="Helvetica,sans-Serif" font-size="10.00">ActionAttachOnTrap</text>
</a>
</g>
</g>
<!-- Node0&#45;&gt;Node3 -->
<g id="edge5_Node000000_Node000003" class="edge">
<title>Node0&#45;&gt;Node3</title>
<g id="a_edge5_Node000000_Node000003"><a xlink:title=" ">
<path fill="none" stroke="#8b1a1a" d="M83.85,-73.78C94.57,-75.33 106.01,-76.99 116.91,-78.57"/>
<polygon fill="#8b1a1a" stroke="#8b1a1a" points="84.47,-70.33 74.07,-72.36 83.47,-77.26 84.47,-70.33"/>
</a>
</g>
</g>
<!-- Node4 -->
<g id="Node000004" class="node">
<title>Node4</title>
<g id="a_Node000004"><a xlink:href="d2/d00/class_action_attach_wheels.html" target="_top" xlink:title=" ">
<polygon fill="white" stroke="#666666" points="221.75,-58 116.5,-58 116.5,-38 221.75,-38 221.75,-58"/>
<text text-anchor="middle" x="169.12" y="-44.5" font-family="Helvetica,sans-Serif" font-size="10.00">ActionAttachWheels</text>
</a>
</g>
</g>
<!-- Node0&#45;&gt;Node4 -->
<g id="edge6_Node000000_Node000004" class="edge">
<title>Node0&#45;&gt;Node4</title>
<g id="a_edge6_Node000000_Node000004"><a xlink:title=" ">
<path fill="none" stroke="#8b1a1a" d="M83.72,-60.24C94.31,-58.71 105.62,-57.07 116.41,-55.5"/>
<polygon fill="#8b1a1a" stroke="#8b1a1a" points="83.47,-56.74 74.07,-61.64 84.47,-63.67 83.47,-56.74"/>
</a>
</g>
</g>
<!-- Node5 -->
<g id="Node000005" class="node">
<title>Node5</title>
<g id="a_Node000005"><a xlink:href="d8/d06/class_action_attach_with_switch.html" target="_top" xlink:title=" ">
<polygon fill="white" stroke="#666666" points="230,-20 108.25,-20 108.25,0 230,0 230,-20"/>
<text text-anchor="middle" x="169.12" y="-6.5" font-family="Helvetica,sans-Serif" font-size="10.00">ActionAttachWithSwitch</text>
</a>
</g>
</g>
<!-- Node0&#45;&gt;Node5 -->
<g id="edge7_Node000000_Node000005" class="edge">
<title>Node0&#45;&gt;Node5</title>
<g id="a_edge7_Node000000_Node000005"><a xlink:title=" ">
<path fill="none" stroke="#8b1a1a" d="M64.25,-50.99C77.28,-43.7 93.29,-35.31 108.25,-29 115.69,-25.86 123.83,-22.95 131.64,-20.4"/>
<polygon fill="#8b1a1a" stroke="#8b1a1a" points="62.78,-47.8 55.83,-55.8 66.25,-53.88 62.78,-47.8"/>
</a>
</g>
</g>
<!-- Node2 -->
<g id="Node000002" class="node">
<title>Node2</title>
<g id="a_Node000002"><a xlink:href="da/d02/class_action_attach_on_tent_proxy.html" target="_top" xlink:title=" ">
<polygon fill="white" stroke="#666666" points="395.25,-134 266,-134 266,-114 395.25,-114 395.25,-134"/>
<text text-anchor="middle" x="330.62" y="-120.5" font-family="Helvetica,sans-Serif" font-size="10.00">ActionAttachOnTentProxy</text>
</a>
</g>
</g>
<!-- Node1&#45;&gt;Node2 -->
<g id="edge4_Node000001_Node000002" class="edge">
<title>Node1&#45;&gt;Node2</title>
<g id="a_edge4_Node000001_Node000002"><a xlink:title=" ">
<path fill="none" stroke="#8b1a1a" d="M235.89,-124C245.69,-124 255.77,-124 265.52,-124"/>
<polygon fill="#8b1a1a" stroke="#8b1a1a" points="236.08,-120.5 226.08,-124 236.08,-127.5 236.08,-120.5"/>
</a>
</g>
</g>
</g>
</svg>
