<?xml version="1.0" encoding="UTF-8" standalone="no"?>
<!DOCTYPE svg PUBLIC "-//W3C//DTD SVG 1.1//EN"
 "http://www.w3.org/Graphics/SVG/1.1/DTD/svg11.dtd">
<!-- Generated by graphviz version 11.0.0 (20240428.1522)
 -->
<!-- Title: Graphical Class Hierarchy Pages: 1 -->
<svg width="254pt" height="142pt"
 viewBox="0.00 0.00 253.75 142.00" xmlns="http://www.w3.org/2000/svg" xmlns:xlink="http://www.w3.org/1999/xlink">
<g id="graph0" class="graph" transform="scale(1 1) rotate(0) translate(4 138)">
<title>Graphical Class Hierarchy</title>
<!-- Node0 -->
<g id="Node000000" class="node">
<title>Node0</title>
<g id="a_Node000000"><a xlink:href="d5/d0c/class_building_super.html" target="_top" xlink:title=" ">
<polygon fill="white" stroke="#666666" points="76,-77 0,-77 0,-57 76,-57 76,-77"/>
<text text-anchor="middle" x="38" y="-63.5" font-family="Helvetica,sans-Serif" font-size="10.00">BuildingSuper</text>
</a>
</g>
</g>
<!-- Node1 -->
<g id="Node000001" class="node">
<title>Node1</title>
<g id="a_Node000001"><a xlink:href="d0/d0b/class_clutter_cutter2x2.html" target="_top" xlink:title=" ">
<polygon fill="white" stroke="#666666" points="222.12,-134 135.62,-134 135.62,-114 222.12,-114 222.12,-134"/>
<text text-anchor="middle" x="178.88" y="-120.5" font-family="Helvetica,sans-Serif" font-size="10.00">ClutterCutter2x2</text>
</a>
</g>
</g>
<!-- Node0&#45;&gt;Node1 -->
<g id="edge439_Node000000_Node000001" class="edge">
<title>Node0&#45;&gt;Node1</title>
<g id="a_edge439_Node000000_Node000001"><a xlink:title=" ">
<path fill="none" stroke="#8b1a1a" d="M66.54,-83C79.96,-90.35 96.51,-98.81 112,-105 119.96,-108.18 128.65,-111.08 137.03,-113.59"/>
<polygon fill="#8b1a1a" stroke="#8b1a1a" points="68.29,-79.96 57.85,-78.13 64.87,-86.07 68.29,-79.96"/>
</a>
</g>
</g>
<!-- Node2 -->
<g id="Node000002" class="node">
<title>Node2</title>
<g id="a_Node000002"><a xlink:href="d1/d00/class_clutter_cutter6x6.html" target="_top" xlink:title=" ">
<polygon fill="white" stroke="#666666" points="222.12,-96 135.62,-96 135.62,-76 222.12,-76 222.12,-96"/>
<text text-anchor="middle" x="178.88" y="-82.5" font-family="Helvetica,sans-Serif" font-size="10.00">ClutterCutter6x6</text>
</a>
</g>
</g>
<!-- Node0&#45;&gt;Node2 -->
<g id="edge440_Node000000_Node000002" class="edge">
<title>Node0&#45;&gt;Node2</title>
<g id="a_edge440_Node000000_Node000002"><a xlink:title=" ">
<path fill="none" stroke="#8b1a1a" d="M87.24,-73.6C102.82,-75.73 119.99,-78.08 135.15,-80.15"/>
<polygon fill="#8b1a1a" stroke="#8b1a1a" points="88.1,-70.18 77.72,-72.3 87.15,-77.12 88.1,-70.18"/>
</a>
</g>
</g>
<!-- Node3 -->
<g id="Node000003" class="node">
<title>Node3</title>
<g id="a_Node000003"><a xlink:href="d1/d00/class_clutter_cutter_fireplace.html" target="_top" xlink:title=" ">
<polygon fill="white" stroke="#666666" points="234.12,-58 123.62,-58 123.62,-38 234.12,-38 234.12,-58"/>
<text text-anchor="middle" x="178.88" y="-44.5" font-family="Helvetica,sans-Serif" font-size="10.00">ClutterCutterFireplace</text>
</a>
</g>
</g>
<!-- Node0&#45;&gt;Node3 -->
<g id="edge441_Node000000_Node000003" class="edge">
<title>Node0&#45;&gt;Node3</title>
<g id="a_edge441_Node000000_Node000003"><a xlink:title=" ">
<path fill="none" stroke="#8b1a1a" d="M87.46,-60.37C99.04,-58.79 111.48,-57.08 123.32,-55.46"/>
<polygon fill="#8b1a1a" stroke="#8b1a1a" points="87.15,-56.88 77.72,-61.7 88.1,-63.82 87.15,-56.88"/>
</a>
</g>
</g>
<!-- Node4 -->
<g id="Node000004" class="node">
<title>Node4</title>
<g id="a_Node000004"><a xlink:href="dd/d0a/class_land___misc___through___static.html" target="_top" xlink:title=" ">
<polygon fill="white" stroke="#666666" points="245.75,-20 112,-20 112,0 245.75,0 245.75,-20"/>
<text text-anchor="middle" x="178.88" y="-6.5" font-family="Helvetica,sans-Serif" font-size="10.00">Land_Misc_Through_Static</text>
</a>
</g>
</g>
<!-- Node0&#45;&gt;Node4 -->
<g id="edge442_Node000000_Node000004" class="edge">
<title>Node0&#45;&gt;Node4</title>
<g id="a_edge442_Node000000_Node000004"><a xlink:title=" ">
<path fill="none" stroke="#8b1a1a" d="M66.54,-51C79.96,-43.65 96.51,-35.19 112,-29 119.96,-25.82 128.65,-22.92 137.03,-20.41"/>
<polygon fill="#8b1a1a" stroke="#8b1a1a" points="64.87,-47.93 57.85,-55.87 68.29,-54.04 64.87,-47.93"/>
</a>
</g>
</g>
</g>
</svg>
