<?xml version="1.0" encoding="UTF-8" standalone="no"?>
<!DOCTYPE svg PUBLIC "-//W3C//DTD SVG 1.1//EN"
 "http://www.w3.org/Graphics/SVG/1.1/DTD/svg11.dtd">
<!-- Generated by graphviz version 11.0.0 (20240428.1522)
 -->
<!-- Title: Graphical Class Hierarchy Pages: 1 -->
<svg width="220pt" height="1776pt"
 viewBox="0.00 0.00 220.00 1776.00" xmlns="http://www.w3.org/2000/svg" xmlns:xlink="http://www.w3.org/1999/xlink">
<g id="graph0" class="graph" transform="scale(1 1) rotate(0) translate(4 1772)">
<title>Graphical Class Hierarchy</title>
<!-- Node0 -->
<g id="Node000000" class="node">
<title>Node0</title>
<g id="a_Node000000"><a xlink:href="dc/d00/class_recoil_base.html" target="_top" xlink:title=" ">
<polygon fill="white" stroke="#666666" points="65.5,-894 0,-894 0,-874 65.5,-874 65.5,-894"/>
<text text-anchor="middle" x="32.75" y="-880.5" font-family="Helvetica,sans-Serif" font-size="10.00">RecoilBase</text>
</a>
</g>
</g>
<!-- Node1 -->
<g id="Node000001" class="node">
<title>Node1</title>
<g id="a_Node000001"><a xlink:href="dd/d04/class_a_u_g_recoil.html" target="_top" xlink:title=" ">
<polygon fill="white" stroke="#666666" points="188.75,-1768 124.75,-1768 124.75,-1748 188.75,-1748 188.75,-1768"/>
<text text-anchor="middle" x="156.75" y="-1754.5" font-family="Helvetica,sans-Serif" font-size="10.00">AUGRecoil</text>
</a>
</g>
</g>
<!-- Node0&#45;&gt;Node1 -->
<g id="edge1611_Node000000_Node000001" class="edge">
<title>Node0&#45;&gt;Node1</title>
<g id="a_edge1611_Node000000_Node000001"><a xlink:title=" ">
<path fill="none" stroke="#8b1a1a" d="M34.07,-905.6C36.13,-1031.86 49.11,-1671.01 101.5,-1739 107.1,-1746.27 115.69,-1750.77 124.38,-1753.55"/>
<polygon fill="#8b1a1a" stroke="#8b1a1a" points="37.58,-905.91 33.92,-895.97 30.58,-906.02 37.58,-905.91"/>
</a>
</g>
</g>
<!-- Node2 -->
<g id="Node000002" class="node">
<title>Node2</title>
<g id="a_Node000002"><a xlink:href="dc/d05/class_ak101_recoil.html" target="_top" xlink:title=" ">
<polygon fill="white" stroke="#666666" points="192.12,-1730 121.38,-1730 121.38,-1710 192.12,-1710 192.12,-1730"/>
<text text-anchor="middle" x="156.75" y="-1716.5" font-family="Helvetica,sans-Serif" font-size="10.00">Ak101Recoil</text>
</a>
</g>
</g>
<!-- Node0&#45;&gt;Node2 -->
<g id="edge1612_Node000000_Node000002" class="edge">
<title>Node0&#45;&gt;Node2</title>
<g id="a_edge1612_Node000000_Node000002"><a xlink:title=" ">
<path fill="none" stroke="#8b1a1a" d="M34.16,-905.77C36.66,-1029.04 51.46,-1636.3 101.5,-1701 106.38,-1707.32 113.51,-1711.54 121.01,-1714.36"/>
<polygon fill="#8b1a1a" stroke="#8b1a1a" points="37.66,-905.71 33.96,-895.78 30.66,-905.85 37.66,-905.71"/>
</a>
</g>
</g>
<!-- Node3 -->
<g id="Node000003" class="node">
<title>Node3</title>
<g id="a_Node000003"><a xlink:href="d8/d0a/class_ak74_recoil.html" target="_top" xlink:title=" ">
<polygon fill="white" stroke="#666666" points="189.5,-1692 124,-1692 124,-1672 189.5,-1672 189.5,-1692"/>
<text text-anchor="middle" x="156.75" y="-1678.5" font-family="Helvetica,sans-Serif" font-size="10.00">Ak74Recoil</text>
</a>
</g>
</g>
<!-- Node0&#45;&gt;Node3 -->
<g id="edge1613_Node000000_Node000003" class="edge">
<title>Node0&#45;&gt;Node3</title>
<g id="a_edge1613_Node000000_Node000003"><a xlink:title=" ">
<path fill="none" stroke="#8b1a1a" d="M34.25,-905.51C37.18,-1024.74 53.75,-1601.51 101.5,-1663 106.95,-1670.01 115.16,-1674.45 123.57,-1677.25"/>
<polygon fill="#8b1a1a" stroke="#8b1a1a" points="37.75,-905.77 34.02,-895.85 30.76,-905.93 37.75,-905.77"/>
</a>
</g>
</g>
<!-- Node4 -->
<g id="Node000004" class="node">
<title>Node4</title>
<g id="a_Node000004"><a xlink:href="d3/d0e/class_akm_recoil.html" target="_top" xlink:title=" ">
<polygon fill="white" stroke="#666666" points="188.38,-1654 125.12,-1654 125.12,-1634 188.38,-1634 188.38,-1654"/>
<text text-anchor="middle" x="156.75" y="-1640.5" font-family="Helvetica,sans-Serif" font-size="10.00">AkmRecoil</text>
</a>
</g>
</g>
<!-- Node0&#45;&gt;Node4 -->
<g id="edge1614_Node000000_Node000004" class="edge">
<title>Node0&#45;&gt;Node4</title>
<g id="a_edge1614_Node000000_Node000004"><a xlink:title=" ">
<path fill="none" stroke="#8b1a1a" d="M34.35,-905.53C37.74,-1021.3 56.07,-1566.77 101.5,-1625 107.21,-1632.32 115.93,-1636.83 124.72,-1639.6"/>
<polygon fill="#8b1a1a" stroke="#8b1a1a" points="37.86,-905.78 34.07,-895.88 30.86,-905.98 37.86,-905.78"/>
</a>
</g>
</g>
<!-- Node5 -->
<g id="Node000005" class="node">
<title>Node5</title>
<g id="a_Node000005"><a xlink:href="d7/d06/class_aks74u_recoil.html" target="_top" xlink:title=" ">
<polygon fill="white" stroke="#666666" points="194.75,-1616 118.75,-1616 118.75,-1596 194.75,-1596 194.75,-1616"/>
<text text-anchor="middle" x="156.75" y="-1602.5" font-family="Helvetica,sans-Serif" font-size="10.00">Aks74uRecoil</text>
</a>
</g>
</g>
<!-- Node0&#45;&gt;Node5 -->
<g id="edge1615_Node000000_Node000005" class="edge">
<title>Node0&#45;&gt;Node5</title>
<g id="a_edge1615_Node000000_Node000005"><a xlink:title=" ">
<path fill="none" stroke="#8b1a1a" d="M34.47,-905.81C38.37,-1018.54 58.42,-1532.07 101.5,-1587 105.81,-1592.5 111.82,-1596.41 118.28,-1599.19"/>
<polygon fill="#8b1a1a" stroke="#8b1a1a" points="37.97,-905.75 34.13,-895.87 30.97,-905.98 37.97,-905.75"/>
</a>
</g>
</g>
<!-- Node6 -->
<g id="Node000006" class="node">
<title>Node6</title>
<g id="a_Node000006"><a xlink:href="de/d07/class_b95_recoil.html" target="_top" xlink:title=" ">
<polygon fill="white" stroke="#666666" points="186.88,-1578 126.62,-1578 126.62,-1558 186.88,-1558 186.88,-1578"/>
<text text-anchor="middle" x="156.75" y="-1564.5" font-family="Helvetica,sans-Serif" font-size="10.00">B95Recoil</text>
</a>
</g>
</g>
<!-- Node0&#45;&gt;Node6 -->
<g id="edge1616_Node000000_Node000006" class="edge">
<title>Node0&#45;&gt;Node6</title>
<g id="a_edge1616_Node000000_Node000006"><a xlink:title=" ">
<path fill="none" stroke="#8b1a1a" d="M34.58,-905.3C38.94,-1013.3 60.67,-1497.23 101.5,-1549 107.56,-1556.68 116.92,-1561.26 126.18,-1564"/>
<polygon fill="#8b1a1a" stroke="#8b1a1a" points="38.08,-905.42 34.19,-895.56 31.09,-905.69 38.08,-905.42"/>
</a>
</g>
</g>
<!-- Node7 -->
<g id="Node000007" class="node">
<title>Node7</title>
<g id="a_Node000007"><a xlink:href="df/d0c/class_c_z527_recoil.html" target="_top" xlink:title=" ">
<polygon fill="white" stroke="#666666" points="192.12,-1540 121.38,-1540 121.38,-1520 192.12,-1520 192.12,-1540"/>
<text text-anchor="middle" x="156.75" y="-1526.5" font-family="Helvetica,sans-Serif" font-size="10.00">CZ527Recoil</text>
</a>
</g>
</g>
<!-- Node0&#45;&gt;Node7 -->
<g id="edge1617_Node000000_Node000007" class="edge">
<title>Node0&#45;&gt;Node7</title>
<g id="a_edge1617_Node000000_Node000007"><a xlink:title=" ">
<path fill="none" stroke="#8b1a1a" d="M34.73,-905.72C39.67,-1010.7 63.04,-1462.53 101.5,-1511 106.46,-1517.25 113.62,-1521.45 121.12,-1524.27"/>
<polygon fill="#8b1a1a" stroke="#8b1a1a" points="38.24,-905.79 34.28,-895.96 31.25,-906.11 38.24,-905.79"/>
</a>
</g>
</g>
<!-- Node8 -->
<g id="Node000008" class="node">
<title>Node8</title>
<g id="a_Node000008"><a xlink:href="d3/d02/class_c_z550_recoil.html" target="_top" xlink:title=" ">
<polygon fill="white" stroke="#666666" points="192.12,-1502 121.38,-1502 121.38,-1482 192.12,-1482 192.12,-1502"/>
<text text-anchor="middle" x="156.75" y="-1488.5" font-family="Helvetica,sans-Serif" font-size="10.00">CZ550Recoil</text>
</a>
</g>
</g>
<!-- Node0&#45;&gt;Node8 -->
<g id="edge1618_Node000000_Node000008" class="edge">
<title>Node0&#45;&gt;Node8</title>
<g id="a_edge1618_Node000000_Node000008"><a xlink:title=" ">
<path fill="none" stroke="#8b1a1a" d="M33.28,-905.45C31.63,-1000.5 29.62,-1383.06 101.5,-1473 106.48,-1479.24 113.65,-1483.43 121.15,-1486.25"/>
<polygon fill="#8b1a1a" stroke="#8b1a1a" points="36.78,-905.8 33.47,-895.73 29.78,-905.66 36.78,-905.8"/>
</a>
</g>
</g>
<!-- Node9 -->
<g id="Node000009" class="node">
<title>Node9</title>
<g id="a_Node000009"><a xlink:href="d2/d03/class_colt1911_recoil.html" target="_top" xlink:title=" ">
<polygon fill="white" stroke="#666666" points="197.38,-1464 116.12,-1464 116.12,-1444 197.38,-1444 197.38,-1464"/>
<text text-anchor="middle" x="156.75" y="-1450.5" font-family="Helvetica,sans-Serif" font-size="10.00">Colt1911Recoil</text>
</a>
</g>
</g>
<!-- Node0&#45;&gt;Node9 -->
<g id="edge1619_Node000000_Node000009" class="edge">
<title>Node0&#45;&gt;Node9</title>
<g id="a_edge1619_Node000000_Node000009"><a xlink:title=" ">
<path fill="none" stroke="#8b1a1a" d="M33.47,-905.79C32.72,-997.54 34.29,-1351.57 101.5,-1435 105.26,-1439.66 110.23,-1443.18 115.65,-1445.84"/>
<polygon fill="#8b1a1a" stroke="#8b1a1a" points="36.97,-905.98 33.57,-895.94 29.97,-905.9 36.97,-905.98"/>
</a>
</g>
</g>
<!-- Node10 -->
<g id="Node000010" class="node">
<title>Node10</title>
<g id="a_Node000010"><a xlink:href="da/d0f/class_crossbow_recoil.html" target="_top" xlink:title=" ">
<polygon fill="white" stroke="#666666" points="199.62,-1426 113.88,-1426 113.88,-1406 199.62,-1406 199.62,-1426"/>
<text text-anchor="middle" x="156.75" y="-1412.5" font-family="Helvetica,sans-Serif" font-size="10.00">CrossbowRecoil</text>
</a>
</g>
</g>
<!-- Node0&#45;&gt;Node10 -->
<g id="edge1620_Node000000_Node000010" class="edge">
<title>Node0&#45;&gt;Node10</title>
<g id="a_edge1620_Node000000_Node000010"><a xlink:title=" ">
<path fill="none" stroke="#8b1a1a" d="M33.69,-905.38C33.87,-992.52 38.77,-1319.84 101.5,-1397 104.77,-1401.03 108.96,-1404.2 113.54,-1406.7"/>
<polygon fill="#8b1a1a" stroke="#8b1a1a" points="37.19,-905.64 33.69,-895.64 30.19,-905.64 37.19,-905.64"/>
</a>
</g>
</g>
<!-- Node11 -->
<g id="Node000011" class="node">
<title>Node11</title>
<g id="a_Node000011"><a xlink:href="d9/d05/class_cz61_recoil.html" target="_top" xlink:title=" ">
<polygon fill="white" stroke="#666666" points="189.5,-1388 124,-1388 124,-1368 189.5,-1368 189.5,-1388"/>
<text text-anchor="middle" x="156.75" y="-1374.5" font-family="Helvetica,sans-Serif" font-size="10.00">Cz61Recoil</text>
</a>
</g>
</g>
<!-- Node0&#45;&gt;Node11 -->
<g id="edge1621_Node000000_Node000011" class="edge">
<title>Node0&#45;&gt;Node11</title>
<g id="a_edge1621_Node000000_Node000011"><a xlink:title=" ">
<path fill="none" stroke="#8b1a1a" d="M33.95,-905.63C35.12,-988.99 43.4,-1288.28 101.5,-1359 107.08,-1365.79 115.23,-1370.15 123.53,-1372.96"/>
<polygon fill="#8b1a1a" stroke="#8b1a1a" points="37.45,-905.64 33.83,-895.69 30.45,-905.73 37.45,-905.64"/>
</a>
</g>
</g>
<!-- Node12 -->
<g id="Node000012" class="node">
<title>Node12</title>
<g id="a_Node000012"><a xlink:href="d9/d02/class_cz75_recoil.html" target="_top" xlink:title=" ">
<polygon fill="white" stroke="#666666" points="189.5,-1350 124,-1350 124,-1330 189.5,-1330 189.5,-1350"/>
<text text-anchor="middle" x="156.75" y="-1336.5" font-family="Helvetica,sans-Serif" font-size="10.00">Cz75Recoil</text>
</a>
</g>
</g>
<!-- Node0&#45;&gt;Node12 -->
<g id="edge1622_Node000000_Node000012" class="edge">
<title>Node0&#45;&gt;Node12</title>
<g id="a_edge1622_Node000000_Node000012"><a xlink:title=" ">
<path fill="none" stroke="#8b1a1a" d="M34.24,-905.4C36.45,-984.15 47.9,-1256.56 101.5,-1321 107.12,-1327.75 115.28,-1332.11 123.58,-1334.91"/>
<polygon fill="#8b1a1a" stroke="#8b1a1a" points="37.74,-905.54 33.99,-895.63 30.74,-905.72 37.74,-905.54"/>
</a>
</g>
</g>
<!-- Node13 -->
<g id="Node000013" class="node">
<title>Node13</title>
<g id="a_Node000013"><a xlink:href="d5/d02/class_d_eagle_recoil.html" target="_top" xlink:title=" ">
<polygon fill="white" stroke="#666666" points="194,-1312 119.5,-1312 119.5,-1292 194,-1292 194,-1312"/>
<text text-anchor="middle" x="156.75" y="-1298.5" font-family="Helvetica,sans-Serif" font-size="10.00">DEagleRecoil</text>
</a>
</g>
</g>
<!-- Node0&#45;&gt;Node13 -->
<g id="edge1623_Node000000_Node000013" class="edge">
<title>Node0&#45;&gt;Node13</title>
<g id="a_edge1623_Node000000_Node000013"><a xlink:title=" ">
<path fill="none" stroke="#8b1a1a" d="M34.59,-905.44C37.91,-979.75 52.45,-1224.88 101.5,-1283 106.13,-1288.49 112.45,-1292.4 119.14,-1295.17"/>
<polygon fill="#8b1a1a" stroke="#8b1a1a" points="38.1,-905.68 34.18,-895.84 31.11,-905.98 38.1,-905.68"/>
</a>
</g>
</g>
<!-- Node14 -->
<g id="Node000014" class="node">
<title>Node14</title>
<g id="a_Node000014"><a xlink:href="d6/d01/class_default_recoil.html" target="_top" xlink:title=" ">
<polygon fill="white" stroke="#666666" points="193.25,-1274 120.25,-1274 120.25,-1254 193.25,-1254 193.25,-1274"/>
<text text-anchor="middle" x="156.75" y="-1260.5" font-family="Helvetica,sans-Serif" font-size="10.00">DefaultRecoil</text>
</a>
</g>
</g>
<!-- Node0&#45;&gt;Node14 -->
<g id="edge1624_Node000000_Node000014" class="edge">
<title>Node0&#45;&gt;Node14</title>
<g id="a_edge1624_Node000000_Node000014"><a xlink:title=" ">
<path fill="none" stroke="#8b1a1a" d="M35.02,-905.62C39.54,-975.41 57,-1193.2 101.5,-1245 106.31,-1250.6 112.88,-1254.55 119.77,-1257.34"/>
<polygon fill="#8b1a1a" stroke="#8b1a1a" points="38.53,-905.66 34.42,-895.89 31.54,-906.09 38.53,-905.66"/>
</a>
</g>
</g>
<!-- Node15 -->
<g id="Node000015" class="node">
<title>Node15</title>
<g id="a_Node000015"><a xlink:href="d2/d02/class_derringer_recoil.html" target="_top" xlink:title=" ">
<polygon fill="white" stroke="#666666" points="197.75,-1236 115.75,-1236 115.75,-1216 197.75,-1216 197.75,-1236"/>
<text text-anchor="middle" x="156.75" y="-1222.5" font-family="Helvetica,sans-Serif" font-size="10.00">DerringerRecoil</text>
</a>
</g>
</g>
<!-- Node0&#45;&gt;Node15 -->
<g id="edge1625_Node000000_Node000015" class="edge">
<title>Node0&#45;&gt;Node15</title>
<g id="a_edge1625_Node000000_Node000015"><a xlink:title=" ">
<path fill="none" stroke="#8b1a1a" d="M35.53,-905.41C41.29,-970.02 61.46,-1161.38 101.5,-1207 105.32,-1211.35 110.19,-1214.7 115.44,-1217.29"/>
<polygon fill="#8b1a1a" stroke="#8b1a1a" points="39.04,-905.43 34.69,-895.77 32.07,-906.03 39.04,-905.43"/>
</a>
</g>
</g>
<!-- Node16 -->
<g id="Node000016" class="node">
<title>Node16</title>
<g id="a_Node000016"><a xlink:href="dc/d0b/class_f_a_l_recoil.html" target="_top" xlink:title=" ">
<polygon fill="white" stroke="#666666" points="187.25,-1198 126.25,-1198 126.25,-1178 187.25,-1178 187.25,-1198"/>
<text text-anchor="middle" x="156.75" y="-1184.5" font-family="Helvetica,sans-Serif" font-size="10.00">FALRecoil</text>
</a>
</g>
</g>
<!-- Node0&#45;&gt;Node16 -->
<g id="edge1626_Node000000_Node000016" class="edge">
<title>Node0&#45;&gt;Node16</title>
<g id="a_edge1626_Node000000_Node000016"><a xlink:title=" ">
<path fill="none" stroke="#8b1a1a" d="M36.2,-905.57C43.34,-965.04 65.97,-1129.59 101.5,-1169 107.85,-1176.04 116.96,-1180.47 125.9,-1183.26"/>
<polygon fill="#8b1a1a" stroke="#8b1a1a" points="39.69,-905.29 35.05,-895.77 32.74,-906.11 39.69,-905.29"/>
</a>
</g>
</g>
<!-- Node17 -->
<g id="Node000017" class="node">
<title>Node17</title>
<g id="a_Node000017"><a xlink:href="d0/d01/class_famas_recoil.html" target="_top" xlink:title=" ">
<polygon fill="white" stroke="#666666" points="193.25,-1160 120.25,-1160 120.25,-1140 193.25,-1140 193.25,-1160"/>
<text text-anchor="middle" x="156.75" y="-1146.5" font-family="Helvetica,sans-Serif" font-size="10.00">FamasRecoil</text>
</a>
</g>
</g>
<!-- Node0&#45;&gt;Node17 -->
<g id="edge1627_Node000000_Node000017" class="edge">
<title>Node0&#45;&gt;Node17</title>
<g id="a_edge1627_Node000000_Node000017"><a xlink:title=" ">
<path fill="none" stroke="#8b1a1a" d="M33.35,-905.49C33.66,-952.67 41.06,-1066.23 101.5,-1131 106.47,-1136.33 113.02,-1140.16 119.84,-1142.92"/>
<polygon fill="#8b1a1a" stroke="#8b1a1a" points="36.85,-905.81 33.4,-895.79 29.85,-905.78 36.85,-905.81"/>
</a>
</g>
</g>
<!-- Node18 -->
<g id="Node000018" class="node">
<title>Node18</title>
<g id="a_Node000018"><a xlink:href="db/d0d/class_fnx45_recoil.html" target="_top" xlink:title=" ">
<polygon fill="white" stroke="#666666" points="191.75,-1122 121.75,-1122 121.75,-1102 191.75,-1102 191.75,-1122"/>
<text text-anchor="middle" x="156.75" y="-1108.5" font-family="Helvetica,sans-Serif" font-size="10.00">Fnx45Recoil</text>
</a>
</g>
</g>
<!-- Node0&#45;&gt;Node18 -->
<g id="edge1628_Node000000_Node000018" class="edge">
<title>Node0&#45;&gt;Node18</title>
<g id="a_edge1628_Node000000_Node000018"><a xlink:title=" ">
<path fill="none" stroke="#8b1a1a" d="M34.65,-905.56C37.55,-947.4 49.81,-1040.08 101.5,-1093 106.94,-1098.57 114.1,-1102.51 121.43,-1105.29"/>
<polygon fill="#8b1a1a" stroke="#8b1a1a" points="38.16,-905.61 34.1,-895.83 31.17,-906.01 38.16,-905.61"/>
</a>
</g>
</g>
<!-- Node19 -->
<g id="Node000019" class="node">
<title>Node19</title>
<g id="a_Node000019"><a xlink:href="de/d0a/class_glock_recoil.html" target="_top" xlink:title=" ">
<polygon fill="white" stroke="#666666" points="191,-1084 122.5,-1084 122.5,-1064 191,-1064 191,-1084"/>
<text text-anchor="middle" x="156.75" y="-1070.5" font-family="Helvetica,sans-Serif" font-size="10.00">GlockRecoil</text>
</a>
</g>
</g>
<!-- Node0&#45;&gt;Node19 -->
<g id="edge1629_Node000000_Node000019" class="edge">
<title>Node0&#45;&gt;Node19</title>
<g id="a_edge1629_Node000000_Node000019"><a xlink:title=" ">
<path fill="none" stroke="#8b1a1a" d="M36.4,-905.07C41.99,-940.8 58.24,-1013.45 101.5,-1055 107.26,-1060.53 114.71,-1064.46 122.25,-1067.25"/>
<polygon fill="#8b1a1a" stroke="#8b1a1a" points="39.92,-904.99 35.05,-895.58 32.99,-905.97 39.92,-904.99"/>
</a>
</g>
</g>
<!-- Node20 -->
<g id="Node000020" class="node">
<title>Node20</title>
<g id="a_Node000020"><a xlink:href="d1/d08/class_izh18_recoil.html" target="_top" xlink:title=" ">
<polygon fill="white" stroke="#666666" points="189.88,-1046 123.62,-1046 123.62,-1026 189.88,-1026 189.88,-1046"/>
<text text-anchor="middle" x="156.75" y="-1032.5" font-family="Helvetica,sans-Serif" font-size="10.00">Izh18Recoil</text>
</a>
</g>
</g>
<!-- Node0&#45;&gt;Node20 -->
<g id="edge1630_Node000000_Node000020" class="edge">
<title>Node0&#45;&gt;Node20</title>
<g id="a_edge1630_Node000000_Node000020"><a xlink:title=" ">
<path fill="none" stroke="#8b1a1a" d="M39.17,-905.25C47.66,-934.42 66.84,-986.71 101.5,-1017 107.66,-1022.39 115.44,-1026.27 123.17,-1029.06"/>
<polygon fill="#8b1a1a" stroke="#8b1a1a" points="42.58,-904.47 36.57,-895.75 35.83,-906.32 42.58,-904.47"/>
</a>
</g>
</g>
<!-- Node21 -->
<g id="Node000021" class="node">
<title>Node21</title>
<g id="a_Node000021"><a xlink:href="dd/d07/class_izh18_sawed_off_recoil.html" target="_top" xlink:title=" ">
<polygon fill="white" stroke="#666666" points="210.5,-1008 103,-1008 103,-988 210.5,-988 210.5,-1008"/>
<text text-anchor="middle" x="156.75" y="-994.5" font-family="Helvetica,sans-Serif" font-size="10.00">Izh18SawedOffRecoil</text>
</a>
</g>
</g>
<!-- Node0&#45;&gt;Node21 -->
<g id="edge1631_Node000000_Node000021" class="edge">
<title>Node0&#45;&gt;Node21</title>
<g id="a_edge1631_Node000000_Node000021"><a xlink:title=" ">
<path fill="none" stroke="#8b1a1a" d="M43.67,-904.75C54.91,-926.18 75.14,-959.2 101.5,-979 106.05,-982.42 111.26,-985.25 116.62,-987.6"/>
<polygon fill="#8b1a1a" stroke="#8b1a1a" points="46.8,-903.18 39.18,-895.82 40.55,-906.32 46.8,-903.18"/>
</a>
</g>
</g>
<!-- Node22 -->
<g id="Node000022" class="node">
<title>Node22</title>
<g id="a_Node000022"><a xlink:href="de/d09/class_izh18_shotgun_recoil.html" target="_top" xlink:title=" ">
<polygon fill="white" stroke="#666666" points="207.88,-970 105.62,-970 105.62,-950 207.88,-950 207.88,-970"/>
<text text-anchor="middle" x="156.75" y="-956.5" font-family="Helvetica,sans-Serif" font-size="10.00">Izh18ShotgunRecoil</text>
</a>
</g>
</g>
<!-- Node0&#45;&gt;Node22 -->
<g id="edge1632_Node000000_Node000022" class="edge">
<title>Node0&#45;&gt;Node22</title>
<g id="a_edge1632_Node000000_Node000022"><a xlink:title=" ">
<path fill="none" stroke="#8b1a1a" d="M51.43,-902C64.36,-914.35 82.84,-930.36 101.5,-941 107.22,-944.26 113.6,-947.11 119.91,-949.53"/>
<polygon fill="#8b1a1a" stroke="#8b1a1a" points="54.1,-899.72 44.51,-895.21 49.19,-904.72 54.1,-899.72"/>
</a>
</g>
</g>
<!-- Node23 -->
<g id="Node000023" class="node">
<title>Node23</title>
<g id="a_Node000023"><a xlink:href="de/d01/class_izh43_recoil.html" target="_top" xlink:title=" ">
<polygon fill="white" stroke="#666666" points="189.88,-932 123.62,-932 123.62,-912 189.88,-912 189.88,-932"/>
<text text-anchor="middle" x="156.75" y="-918.5" font-family="Helvetica,sans-Serif" font-size="10.00">Izh43Recoil</text>
</a>
</g>
</g>
<!-- Node0&#45;&gt;Node23 -->
<g id="edge1633_Node000000_Node000023" class="edge">
<title>Node0&#45;&gt;Node23</title>
<g id="a_edge1633_Node000000_Node000023"><a xlink:title=" ">
<path fill="none" stroke="#8b1a1a" d="M76.65,-897.36C92.05,-902.16 109.14,-907.48 123.49,-911.95"/>
<polygon fill="#8b1a1a" stroke="#8b1a1a" points="77.84,-894.07 67.25,-894.43 75.76,-900.75 77.84,-894.07"/>
</a>
</g>
</g>
<!-- Node24 -->
<g id="Node000024" class="node">
<title>Node24</title>
<g id="a_Node000024"><a xlink:href="de/d05/class_long_horn_recoil.html" target="_top" xlink:title=" ">
<polygon fill="white" stroke="#666666" points="198.88,-894 114.62,-894 114.62,-874 198.88,-874 198.88,-894"/>
<text text-anchor="middle" x="156.75" y="-880.5" font-family="Helvetica,sans-Serif" font-size="10.00">LongHornRecoil</text>
</a>
</g>
</g>
<!-- Node0&#45;&gt;Node24 -->
<g id="edge1634_Node000000_Node000024" class="edge">
<title>Node0&#45;&gt;Node24</title>
<g id="a_edge1634_Node000000_Node000024"><a xlink:title=" ">
<path fill="none" stroke="#8b1a1a" d="M77.03,-884C89.13,-884 102.26,-884 114.26,-884"/>
<polygon fill="#8b1a1a" stroke="#8b1a1a" points="77.32,-880.5 67.32,-884 77.32,-887.5 77.32,-880.5"/>
</a>
</g>
</g>
<!-- Node25 -->
<g id="Node000025" class="node">
<title>Node25</title>
<g id="a_Node000025"><a xlink:href="d4/d09/class_m14_recoil.html" target="_top" xlink:title=" ">
<polygon fill="white" stroke="#666666" points="187.62,-856 125.88,-856 125.88,-836 187.62,-836 187.62,-856"/>
<text text-anchor="middle" x="156.75" y="-842.5" font-family="Helvetica,sans-Serif" font-size="10.00">M14Recoil</text>
</a>
</g>
</g>
<!-- Node0&#45;&gt;Node25 -->
<g id="edge1635_Node000000_Node000025" class="edge">
<title>Node0&#45;&gt;Node25</title>
<g id="a_edge1635_Node000000_Node000025"><a xlink:title=" ">
<path fill="none" stroke="#8b1a1a" d="M76.63,-870.64C92.8,-865.61 110.83,-859.99 125.59,-855.39"/>
<polygon fill="#8b1a1a" stroke="#8b1a1a" points="75.76,-867.25 67.25,-873.57 77.84,-873.93 75.76,-867.25"/>
</a>
</g>
</g>
<!-- Node26 -->
<g id="Node000026" class="node">
<title>Node26</title>
<g id="a_Node000026"><a xlink:href="d6/d02/class_m16_a2_recoil.html" target="_top" xlink:title=" ">
<polygon fill="white" stroke="#666666" points="193.62,-818 119.88,-818 119.88,-798 193.62,-798 193.62,-818"/>
<text text-anchor="middle" x="156.75" y="-804.5" font-family="Helvetica,sans-Serif" font-size="10.00">M16A2Recoil</text>
</a>
</g>
</g>
<!-- Node0&#45;&gt;Node26 -->
<g id="edge1636_Node000000_Node000026" class="edge">
<title>Node0&#45;&gt;Node26</title>
<g id="a_edge1636_Node000000_Node000026"><a xlink:title=" ">
<path fill="none" stroke="#8b1a1a" d="M51.43,-866C64.36,-853.65 82.84,-837.64 101.5,-827 107.22,-823.74 113.6,-820.89 119.91,-818.47"/>
<polygon fill="#8b1a1a" stroke="#8b1a1a" points="49.19,-863.28 44.51,-872.79 54.1,-868.28 49.19,-863.28"/>
</a>
</g>
</g>
<!-- Node27 -->
<g id="Node000027" class="node">
<title>Node27</title>
<g id="a_Node000027"><a xlink:href="d7/d01/class_m4a1_recoil.html" target="_top" xlink:title=" ">
<polygon fill="white" stroke="#666666" points="190.25,-780 123.25,-780 123.25,-760 190.25,-760 190.25,-780"/>
<text text-anchor="middle" x="156.75" y="-766.5" font-family="Helvetica,sans-Serif" font-size="10.00">M4a1Recoil</text>
</a>
</g>
</g>
<!-- Node0&#45;&gt;Node27 -->
<g id="edge1637_Node000000_Node000027" class="edge">
<title>Node0&#45;&gt;Node27</title>
<g id="a_edge1637_Node000000_Node000027"><a xlink:title=" ">
<path fill="none" stroke="#8b1a1a" d="M43.67,-863.25C54.91,-841.82 75.14,-808.8 101.5,-789 107.8,-784.27 115.38,-780.64 122.85,-777.9"/>
<polygon fill="#8b1a1a" stroke="#8b1a1a" points="40.55,-861.68 39.18,-872.18 46.8,-864.82 40.55,-861.68"/>
</a>
</g>
</g>
<!-- Node28 -->
<g id="Node000028" class="node">
<title>Node28</title>
<g id="a_Node000028"><a xlink:href="d3/d0d/class_m79_recoil.html" target="_top" xlink:title=" ">
<polygon fill="white" stroke="#666666" points="187.62,-742 125.88,-742 125.88,-722 187.62,-722 187.62,-742"/>
<text text-anchor="middle" x="156.75" y="-728.5" font-family="Helvetica,sans-Serif" font-size="10.00">M79Recoil</text>
</a>
</g>
</g>
<!-- Node0&#45;&gt;Node28 -->
<g id="edge1638_Node000000_Node000028" class="edge">
<title>Node0&#45;&gt;Node28</title>
<g id="a_edge1638_Node000000_Node000028"><a xlink:title=" ">
<path fill="none" stroke="#8b1a1a" d="M39.17,-862.75C47.66,-833.58 66.84,-781.29 101.5,-751 108.26,-745.09 116.98,-740.99 125.43,-738.15"/>
<polygon fill="#8b1a1a" stroke="#8b1a1a" points="35.83,-861.68 36.57,-872.25 42.58,-863.53 35.83,-861.68"/>
</a>
</g>
</g>
<!-- Node29 -->
<g id="Node000029" class="node">
<title>Node29</title>
<g id="a_Node000029"><a xlink:href="df/d02/class_magnum_recoil.html" target="_top" xlink:title=" ">
<polygon fill="white" stroke="#666666" points="197,-704 116.5,-704 116.5,-684 197,-684 197,-704"/>
<text text-anchor="middle" x="156.75" y="-690.5" font-family="Helvetica,sans-Serif" font-size="10.00">MagnumRecoil</text>
</a>
</g>
</g>
<!-- Node0&#45;&gt;Node29 -->
<g id="edge1639_Node000000_Node000029" class="edge">
<title>Node0&#45;&gt;Node29</title>
<g id="a_edge1639_Node000000_Node000029"><a xlink:title=" ">
<path fill="none" stroke="#8b1a1a" d="M36.4,-862.93C41.99,-827.2 58.24,-754.55 101.5,-713 105.67,-708.99 110.74,-705.82 116.08,-703.32"/>
<polygon fill="#8b1a1a" stroke="#8b1a1a" points="32.99,-862.03 35.05,-872.42 39.92,-863.01 32.99,-862.03"/>
</a>
</g>
</g>
<!-- Node30 -->
<g id="Node000030" class="node">
<title>Node30</title>
<g id="a_Node000030"><a xlink:href="d4/d04/class_makarov_recoil.html" target="_top" xlink:title=" ">
<polygon fill="white" stroke="#666666" points="196.25,-666 117.25,-666 117.25,-646 196.25,-646 196.25,-666"/>
<text text-anchor="middle" x="156.75" y="-652.5" font-family="Helvetica,sans-Serif" font-size="10.00">MakarovRecoil</text>
</a>
</g>
</g>
<!-- Node0&#45;&gt;Node30 -->
<g id="edge1640_Node000000_Node000030" class="edge">
<title>Node0&#45;&gt;Node30</title>
<g id="a_edge1640_Node000000_Node000030"><a xlink:title=" ">
<path fill="none" stroke="#8b1a1a" d="M34.65,-862.44C37.55,-820.6 49.81,-727.92 101.5,-675 105.82,-670.57 111.23,-667.18 116.95,-664.57"/>
<polygon fill="#8b1a1a" stroke="#8b1a1a" points="31.17,-861.99 34.1,-872.17 38.16,-862.39 31.17,-861.99"/>
</a>
</g>
</g>
<!-- Node31 -->
<g id="Node000031" class="node">
<title>Node31</title>
<g id="a_Node000031"><a xlink:href="da/d0a/class_mkii_recoil.html" target="_top" xlink:title=" ">
<polygon fill="white" stroke="#666666" points="187.25,-628 126.25,-628 126.25,-608 187.25,-608 187.25,-628"/>
<text text-anchor="middle" x="156.75" y="-614.5" font-family="Helvetica,sans-Serif" font-size="10.00">MkiiRecoil</text>
</a>
</g>
</g>
<!-- Node0&#45;&gt;Node31 -->
<g id="edge1641_Node000000_Node000031" class="edge">
<title>Node0&#45;&gt;Node31</title>
<g id="a_edge1641_Node000000_Node000031"><a xlink:title=" ">
<path fill="none" stroke="#8b1a1a" d="M33.35,-862.51C33.66,-815.33 41.06,-701.77 101.5,-637 107.9,-630.14 116.91,-625.76 125.76,-622.96"/>
<polygon fill="#8b1a1a" stroke="#8b1a1a" points="29.85,-862.22 33.4,-872.21 36.85,-862.19 29.85,-862.22"/>
</a>
</g>
</g>
<!-- Node32 -->
<g id="Node000032" class="node">
<title>Node32</title>
<g id="a_Node000032"><a xlink:href="d3/d06/class_mosin_recoil.html" target="_top" xlink:title=" ">
<polygon fill="white" stroke="#666666" points="191.38,-590 122.12,-590 122.12,-570 191.38,-570 191.38,-590"/>
<text text-anchor="middle" x="156.75" y="-576.5" font-family="Helvetica,sans-Serif" font-size="10.00">MosinRecoil</text>
</a>
</g>
</g>
<!-- Node0&#45;&gt;Node32 -->
<g id="edge1642_Node000000_Node000032" class="edge">
<title>Node0&#45;&gt;Node32</title>
<g id="a_edge1642_Node000000_Node000032"><a xlink:title=" ">
<path fill="none" stroke="#8b1a1a" d="M36.2,-862.43C43.34,-802.96 65.97,-638.41 101.5,-599 106.85,-593.07 114.15,-588.99 121.66,-586.19"/>
<polygon fill="#8b1a1a" stroke="#8b1a1a" points="32.74,-861.89 35.05,-872.23 39.69,-862.71 32.74,-861.89"/>
</a>
</g>
</g>
<!-- Node33 -->
<g id="Node000033" class="node">
<title>Node33</title>
<g id="a_Node000033"><a xlink:href="d6/d08/class_mosin_sawed_off_recoil.html" target="_top" xlink:title=" ">
<polygon fill="white" stroke="#666666" points="212,-552 101.5,-552 101.5,-532 212,-532 212,-552"/>
<text text-anchor="middle" x="156.75" y="-538.5" font-family="Helvetica,sans-Serif" font-size="10.00">MosinSawedOffRecoil</text>
</a>
</g>
</g>
<!-- Node0&#45;&gt;Node33 -->
<g id="edge1643_Node000000_Node000033" class="edge">
<title>Node0&#45;&gt;Node33</title>
<g id="a_edge1643_Node000000_Node000033"><a xlink:title=" ">
<path fill="none" stroke="#8b1a1a" d="M35.53,-862.59C41.29,-797.98 61.46,-606.62 101.5,-561 104.53,-557.55 108.22,-554.73 112.24,-552.42"/>
<polygon fill="#8b1a1a" stroke="#8b1a1a" points="32.07,-861.97 34.69,-872.23 39.04,-862.57 32.07,-861.97"/>
</a>
</g>
</g>
<!-- Node34 -->
<g id="Node000034" class="node">
<title>Node34</title>
<g id="a_Node000034"><a xlink:href="d7/d0d/class_mp133_recoil.html" target="_top" xlink:title=" ">
<polygon fill="white" stroke="#666666" points="192.88,-514 120.62,-514 120.62,-494 192.88,-494 192.88,-514"/>
<text text-anchor="middle" x="156.75" y="-500.5" font-family="Helvetica,sans-Serif" font-size="10.00">Mp133Recoil</text>
</a>
</g>
</g>
<!-- Node0&#45;&gt;Node34 -->
<g id="edge1644_Node000000_Node000034" class="edge">
<title>Node0&#45;&gt;Node34</title>
<g id="a_edge1644_Node000000_Node000034"><a xlink:title=" ">
<path fill="none" stroke="#8b1a1a" d="M35.02,-862.38C39.54,-792.59 57,-574.8 101.5,-523 106.44,-517.25 113.23,-513.24 120.33,-510.44"/>
<polygon fill="#8b1a1a" stroke="#8b1a1a" points="31.54,-861.91 34.42,-872.11 38.53,-862.34 31.54,-861.91"/>
</a>
</g>
</g>
<!-- Node35 -->
<g id="Node000035" class="node">
<title>Node35</title>
<g id="a_Node000035"><a xlink:href="d4/d01/class_mp5k_recoil.html" target="_top" xlink:title=" ">
<polygon fill="white" stroke="#666666" points="190.25,-476 123.25,-476 123.25,-456 190.25,-456 190.25,-476"/>
<text text-anchor="middle" x="156.75" y="-462.5" font-family="Helvetica,sans-Serif" font-size="10.00">Mp5kRecoil</text>
</a>
</g>
</g>
<!-- Node0&#45;&gt;Node35 -->
<g id="edge1645_Node000000_Node000035" class="edge">
<title>Node0&#45;&gt;Node35</title>
<g id="a_edge1645_Node000000_Node000035"><a xlink:title=" ">
<path fill="none" stroke="#8b1a1a" d="M34.59,-862.56C37.91,-788.25 52.45,-543.12 101.5,-485 106.97,-478.52 114.79,-474.25 122.79,-471.43"/>
<polygon fill="#8b1a1a" stroke="#8b1a1a" points="31.11,-862.02 34.18,-872.16 38.1,-862.32 31.11,-862.02"/>
</a>
</g>
</g>
<!-- Node36 -->
<g id="Node000036" class="node">
<title>Node36</title>
<g id="a_Node000036"><a xlink:href="d5/d00/class_p1_recoil.html" target="_top" xlink:title=" ">
<polygon fill="white" stroke="#666666" points="184.25,-438 129.25,-438 129.25,-418 184.25,-418 184.25,-438"/>
<text text-anchor="middle" x="156.75" y="-424.5" font-family="Helvetica,sans-Serif" font-size="10.00">P1Recoil</text>
</a>
</g>
</g>
<!-- Node0&#45;&gt;Node36 -->
<g id="edge1646_Node000000_Node000036" class="edge">
<title>Node0&#45;&gt;Node36</title>
<g id="a_edge1646_Node000000_Node000036"><a xlink:title=" ">
<path fill="none" stroke="#8b1a1a" d="M34.24,-862.6C36.45,-783.85 47.9,-511.44 101.5,-447 108.33,-438.79 118.93,-434.12 128.95,-431.47"/>
<polygon fill="#8b1a1a" stroke="#8b1a1a" points="30.74,-862.28 33.99,-872.37 37.74,-862.46 30.74,-862.28"/>
</a>
</g>
</g>
<!-- Node37 -->
<g id="Node000037" class="node">
<title>Node37</title>
<g id="a_Node000037"><a xlink:href="d6/d0d/class_p_p19_recoil.html" target="_top" xlink:title=" ">
<polygon fill="white" stroke="#666666" points="190.25,-400 123.25,-400 123.25,-380 190.25,-380 190.25,-400"/>
<text text-anchor="middle" x="156.75" y="-386.5" font-family="Helvetica,sans-Serif" font-size="10.00">PP19Recoil</text>
</a>
</g>
</g>
<!-- Node0&#45;&gt;Node37 -->
<g id="edge1647_Node000000_Node000037" class="edge">
<title>Node0&#45;&gt;Node37</title>
<g id="a_edge1647_Node000000_Node000037"><a xlink:title=" ">
<path fill="none" stroke="#8b1a1a" d="M33.95,-862.37C35.12,-779.01 43.4,-479.72 101.5,-409 106.95,-402.37 114.86,-398.05 122.96,-395.24"/>
<polygon fill="#8b1a1a" stroke="#8b1a1a" points="30.45,-862.27 33.83,-872.31 37.45,-862.36 30.45,-862.27"/>
</a>
</g>
</g>
<!-- Node38 -->
<g id="Node000038" class="node">
<title>Node38</title>
<g id="a_Node000038"><a xlink:href="d2/d0c/class_repeater_recoil.html" target="_top" xlink:title=" ">
<polygon fill="white" stroke="#666666" points="197.75,-362 115.75,-362 115.75,-342 197.75,-342 197.75,-362"/>
<text text-anchor="middle" x="156.75" y="-348.5" font-family="Helvetica,sans-Serif" font-size="10.00">RepeaterRecoil</text>
</a>
</g>
</g>
<!-- Node0&#45;&gt;Node38 -->
<g id="edge1648_Node000000_Node000038" class="edge">
<title>Node0&#45;&gt;Node38</title>
<g id="a_edge1648_Node000000_Node000038"><a xlink:title=" ">
<path fill="none" stroke="#8b1a1a" d="M33.69,-862.62C33.87,-775.48 38.77,-448.16 101.5,-371 105.21,-366.43 110.1,-362.96 115.41,-360.32"/>
<polygon fill="#8b1a1a" stroke="#8b1a1a" points="30.19,-862.36 33.69,-872.36 37.19,-862.36 30.19,-862.36"/>
</a>
</g>
</g>
<!-- Node39 -->
<g id="Node000039" class="node">
<title>Node39</title>
<g id="a_Node000039"><a xlink:href="dc/d01/class_ruger1022_recoil.html" target="_top" xlink:title=" ">
<polygon fill="white" stroke="#666666" points="201.5,-324 112,-324 112,-304 201.5,-304 201.5,-324"/>
<text text-anchor="middle" x="156.75" y="-310.5" font-family="Helvetica,sans-Serif" font-size="10.00">Ruger1022Recoil</text>
</a>
</g>
</g>
<!-- Node0&#45;&gt;Node39 -->
<g id="edge1649_Node000000_Node000039" class="edge">
<title>Node0&#45;&gt;Node39</title>
<g id="a_edge1649_Node000000_Node000039"><a xlink:title=" ">
<path fill="none" stroke="#8b1a1a" d="M33.47,-862.21C32.72,-770.46 34.29,-416.43 101.5,-333 104.32,-329.5 107.82,-326.65 111.68,-324.32"/>
<polygon fill="#8b1a1a" stroke="#8b1a1a" points="29.97,-862.1 33.57,-872.06 36.97,-862.02 29.97,-862.1"/>
</a>
</g>
</g>
<!-- Node40 -->
<g id="Node000040" class="node">
<title>Node40</title>
<g id="a_Node000040"><a xlink:href="da/d01/class_s_k_s_recoil.html" target="_top" xlink:title=" ">
<polygon fill="white" stroke="#666666" points="188.38,-286 125.12,-286 125.12,-266 188.38,-266 188.38,-286"/>
<text text-anchor="middle" x="156.75" y="-272.5" font-family="Helvetica,sans-Serif" font-size="10.00">SKSRecoil</text>
</a>
</g>
</g>
<!-- Node0&#45;&gt;Node40 -->
<g id="edge1650_Node000000_Node000040" class="edge">
<title>Node0&#45;&gt;Node40</title>
<g id="a_edge1650_Node000000_Node000040"><a xlink:title=" ">
<path fill="none" stroke="#8b1a1a" d="M33.28,-862.55C31.63,-767.5 29.62,-384.94 101.5,-295 107.29,-287.75 116.04,-283.26 124.82,-280.48"/>
<polygon fill="#8b1a1a" stroke="#8b1a1a" points="29.78,-862.34 33.47,-872.27 36.78,-862.2 29.78,-862.34"/>
</a>
</g>
</g>
<!-- Node41 -->
<g id="Node000041" class="node">
<title>Node41</title>
<g id="a_Node000041"><a xlink:href="dc/d00/class_s_s_g82_recoil.html" target="_top" xlink:title=" ">
<polygon fill="white" stroke="#666666" points="194,-248 119.5,-248 119.5,-228 194,-228 194,-248"/>
<text text-anchor="middle" x="156.75" y="-234.5" font-family="Helvetica,sans-Serif" font-size="10.00">SSG82Recoil</text>
</a>
</g>
</g>
<!-- Node0&#45;&gt;Node41 -->
<g id="edge1651_Node000000_Node000041" class="edge">
<title>Node0&#45;&gt;Node41</title>
<g id="a_edge1651_Node000000_Node000041"><a xlink:title=" ">
<path fill="none" stroke="#8b1a1a" d="M34.73,-862.28C39.67,-757.3 63.04,-305.47 101.5,-257 106.03,-251.29 112.39,-247.3 119.16,-244.5"/>
<polygon fill="#8b1a1a" stroke="#8b1a1a" points="31.25,-861.89 34.28,-872.04 38.24,-862.21 31.25,-861.89"/>
</a>
</g>
</g>
<!-- Node42 -->
<g id="Node000042" class="node">
<title>Node42</title>
<g id="a_Node000042"><a xlink:href="d5/d0c/class_scout_recoil.html" target="_top" xlink:title=" ">
<polygon fill="white" stroke="#666666" points="191,-210 122.5,-210 122.5,-190 191,-190 191,-210"/>
<text text-anchor="middle" x="156.75" y="-196.5" font-family="Helvetica,sans-Serif" font-size="10.00">ScoutRecoil</text>
</a>
</g>
</g>
<!-- Node0&#45;&gt;Node42 -->
<g id="edge1652_Node000000_Node000042" class="edge">
<title>Node0&#45;&gt;Node42</title>
<g id="a_edge1652_Node000000_Node000042"><a xlink:title=" ">
<path fill="none" stroke="#8b1a1a" d="M34.58,-862.7C38.94,-754.7 60.67,-270.77 101.5,-219 106.69,-212.42 114.32,-208.11 122.22,-205.29"/>
<polygon fill="#8b1a1a" stroke="#8b1a1a" points="31.09,-862.31 34.19,-872.44 38.08,-862.58 31.09,-862.31"/>
</a>
</g>
</g>
<!-- Node43 -->
<g id="Node000043" class="node">
<title>Node43</title>
<g id="a_Node000043"><a xlink:href="d8/d04/class_siaga_recoil.html" target="_top" xlink:title=" ">
<polygon fill="white" stroke="#666666" points="190.62,-172 122.88,-172 122.88,-152 190.62,-152 190.62,-172"/>
<text text-anchor="middle" x="156.75" y="-158.5" font-family="Helvetica,sans-Serif" font-size="10.00">SiagaRecoil</text>
</a>
</g>
</g>
<!-- Node0&#45;&gt;Node43 -->
<g id="edge1653_Node000000_Node000043" class="edge">
<title>Node0&#45;&gt;Node43</title>
<g id="a_edge1653_Node000000_Node000043"><a xlink:title=" ">
<path fill="none" stroke="#8b1a1a" d="M34.47,-862.19C38.37,-749.46 58.42,-235.93 101.5,-181 106.73,-174.33 114.47,-169.99 122.48,-167.17"/>
<polygon fill="#8b1a1a" stroke="#8b1a1a" points="30.97,-862.02 34.13,-872.13 37.97,-862.25 30.97,-862.02"/>
</a>
</g>
</g>
<!-- Node44 -->
<g id="Node000044" class="node">
<title>Node44</title>
<g id="a_Node000044"><a xlink:href="d4/d0e/class_svd_recoil.html" target="_top" xlink:title=" ">
<polygon fill="white" stroke="#666666" points="186.12,-134 127.38,-134 127.38,-114 186.12,-114 186.12,-134"/>
<text text-anchor="middle" x="156.75" y="-120.5" font-family="Helvetica,sans-Serif" font-size="10.00">SvdRecoil</text>
</a>
</g>
</g>
<!-- Node0&#45;&gt;Node44 -->
<g id="edge1654_Node000000_Node000044" class="edge">
<title>Node0&#45;&gt;Node44</title>
<g id="a_edge1654_Node000000_Node000044"><a xlink:title=" ">
<path fill="none" stroke="#8b1a1a" d="M34.35,-862.47C37.74,-746.7 56.07,-201.23 101.5,-143 107.7,-135.05 117.45,-130.42 126.99,-127.72"/>
<polygon fill="#8b1a1a" stroke="#8b1a1a" points="30.86,-862.02 34.07,-872.12 37.86,-862.22 30.86,-862.02"/>
</a>
</g>
</g>
<!-- Node45 -->
<g id="Node000045" class="node">
<title>Node45</title>
<g id="a_Node000045"><a xlink:href="d2/d0d/class_ump45_recoil.html" target="_top" xlink:title=" ">
<polygon fill="white" stroke="#666666" points="193.62,-96 119.88,-96 119.88,-76 193.62,-76 193.62,-96"/>
<text text-anchor="middle" x="156.75" y="-82.5" font-family="Helvetica,sans-Serif" font-size="10.00">Ump45Recoil</text>
</a>
</g>
</g>
<!-- Node0&#45;&gt;Node45 -->
<g id="edge1655_Node000000_Node000045" class="edge">
<title>Node0&#45;&gt;Node45</title>
<g id="a_edge1655_Node000000_Node000045"><a xlink:title=" ">
<path fill="none" stroke="#8b1a1a" d="M34.25,-862.49C37.18,-743.26 53.75,-166.49 101.5,-105 106.09,-99.09 112.65,-95.01 119.63,-92.2"/>
<polygon fill="#8b1a1a" stroke="#8b1a1a" points="30.76,-862.07 34.02,-872.15 37.75,-862.23 30.76,-862.07"/>
</a>
</g>
</g>
<!-- Node46 -->
<g id="Node000046" class="node">
<title>Node46</title>
<g id="a_Node000046"><a xlink:href="d7/d08/class_v_s_s_recoil.html" target="_top" xlink:title=" ">
<polygon fill="white" stroke="#666666" points="188.38,-58 125.12,-58 125.12,-38 188.38,-38 188.38,-58"/>
<text text-anchor="middle" x="156.75" y="-44.5" font-family="Helvetica,sans-Serif" font-size="10.00">VSSRecoil</text>
</a>
</g>
</g>
<!-- Node0&#45;&gt;Node46 -->
<g id="edge1656_Node000000_Node000046" class="edge">
<title>Node0&#45;&gt;Node46</title>
<g id="a_edge1656_Node000000_Node000046"><a xlink:title=" ">
<path fill="none" stroke="#8b1a1a" d="M34.16,-862.23C36.66,-738.96 51.46,-131.7 101.5,-67 107.18,-59.66 115.89,-55.14 124.68,-52.37"/>
<polygon fill="#8b1a1a" stroke="#8b1a1a" points="30.66,-862.15 33.96,-872.22 37.66,-862.29 30.66,-862.15"/>
</a>
</g>
</g>
<!-- Node47 -->
<g id="Node000047" class="node">
<title>Node47</title>
<g id="a_Node000047"><a xlink:href="de/d02/class_winchester70_recoil.html" target="_top" xlink:title=" ">
<polygon fill="white" stroke="#666666" points="208.25,-20 105.25,-20 105.25,0 208.25,0 208.25,-20"/>
<text text-anchor="middle" x="156.75" y="-6.5" font-family="Helvetica,sans-Serif" font-size="10.00">Winchester70Recoil</text>
</a>
</g>
</g>
<!-- Node0&#45;&gt;Node47 -->
<g id="edge1657_Node000000_Node000047" class="edge">
<title>Node0&#45;&gt;Node47</title>
<g id="a_edge1657_Node000000_Node000047"><a xlink:title=" ">
<path fill="none" stroke="#8b1a1a" d="M34.07,-862.4C36.13,-736.14 49.11,-96.99 101.5,-29 104.18,-25.52 107.54,-22.68 111.27,-20.35"/>
<polygon fill="#8b1a1a" stroke="#8b1a1a" points="30.58,-861.98 33.92,-872.03 37.58,-862.09 30.58,-861.98"/>
</a>
</g>
</g>
</g>
</svg>
