<?xml version="1.0" encoding="UTF-8" standalone="no"?>
<!DOCTYPE svg PUBLIC "-//W3C//DTD SVG 1.1//EN"
 "http://www.w3.org/Graphics/SVG/1.1/DTD/svg11.dtd">
<!-- Generated by graphviz version 11.0.0 (20240428.1522)
 -->
<!-- Title: Graphical Class Hierarchy Pages: 1 -->
<svg width="380pt" height="161pt"
 viewBox="0.00 0.00 380.00 161.00" xmlns="http://www.w3.org/2000/svg" xmlns:xlink="http://www.w3.org/1999/xlink">
<g id="graph0" class="graph" transform="scale(1 1) rotate(0) translate(4 157)">
<title>Graphical Class Hierarchy</title>
<!-- Node0 -->
<g id="Node000000" class="node">
<title>Node0</title>
<g id="a_Node000000"><a xlink:title=" ">
<polygon fill="#e0e0e0" stroke="#999999" points="133,-58 0,-58 0,-38 133,-38 133,-58"/>
<text text-anchor="middle" x="66.5" y="-44.5" font-family="Helvetica,sans-Serif" font-size="10.00">DeployableContainer_Base</text>
</a>
</g>
</g>
<!-- Node1 -->
<g id="Node000001" class="node">
<title>Node1</title>
<g id="a_Node000001"><a xlink:href="de/d03/class_barrel___color_base.html" target="_top" xlink:title=" ">
<polygon fill="white" stroke="#666666" points="260.75,-96 169,-96 169,-76 260.75,-76 260.75,-96"/>
<text text-anchor="middle" x="214.88" y="-82.5" font-family="Helvetica,sans-Serif" font-size="10.00">Barrel_ColorBase</text>
</a>
</g>
</g>
<!-- Node0&#45;&gt;Node1 -->
<g id="edge644_Node000000_Node000001" class="edge">
<title>Node0&#45;&gt;Node1</title>
<g id="a_edge644_Node000000_Node000001"><a xlink:title=" ">
<path fill="none" stroke="#8b1a1a" d="M118.78,-61.31C136.76,-65.98 156.68,-71.15 173.62,-75.55"/>
<polygon fill="#8b1a1a" stroke="#8b1a1a" points="119.91,-57.99 109.35,-58.86 118.15,-64.77 119.91,-57.99"/>
</a>
</g>
</g>
<!-- Node6 -->
<g id="Node000006" class="node">
<title>Node6</title>
<g id="a_Node000006"><a xlink:href="d9/d04/class_sea_chest.html" target="_top" xlink:title=" ">
<polygon fill="white" stroke="#666666" points="244.25,-58 185.5,-58 185.5,-38 244.25,-38 244.25,-58"/>
<text text-anchor="middle" x="214.88" y="-44.5" font-family="Helvetica,sans-Serif" font-size="10.00">SeaChest</text>
</a>
</g>
</g>
<!-- Node0&#45;&gt;Node6 -->
<g id="edge649_Node000000_Node000006" class="edge">
<title>Node0&#45;&gt;Node6</title>
<g id="a_edge649_Node000000_Node000006"><a xlink:title=" ">
<path fill="none" stroke="#8b1a1a" d="M144.54,-48C159.1,-48 173.46,-48 185.29,-48"/>
<polygon fill="#8b1a1a" stroke="#8b1a1a" points="144.92,-44.5 134.92,-48 144.92,-51.5 144.92,-44.5"/>
</a>
</g>
</g>
<!-- Node7 -->
<g id="Node000007" class="node">
<title>Node7</title>
<g id="a_Node000007"><a xlink:href="d0/d0f/class_wooden_crate.html" target="_top" xlink:title=" ">
<polygon fill="white" stroke="#666666" points="252.5,-20 177.25,-20 177.25,0 252.5,0 252.5,-20"/>
<text text-anchor="middle" x="214.88" y="-6.5" font-family="Helvetica,sans-Serif" font-size="10.00">WoodenCrate</text>
</a>
</g>
</g>
<!-- Node0&#45;&gt;Node7 -->
<g id="edge650_Node000000_Node000007" class="edge">
<title>Node0&#45;&gt;Node7</title>
<g id="a_edge650_Node000000_Node000007"><a xlink:title=" ">
<path fill="none" stroke="#8b1a1a" d="M118.89,-34.66C138.1,-29.67 159.5,-24.12 177.13,-19.54"/>
<polygon fill="#8b1a1a" stroke="#8b1a1a" points="118.15,-31.23 109.35,-37.14 119.91,-38.01 118.15,-31.23"/>
</a>
</g>
</g>
<!-- Node2 -->
<g id="Node000002" class="node">
<title>Node2</title>
<g id="a_Node000002"><a xlink:href="de/d00/class_barrel___blue.html" target="_top" xlink:title=" ">
<polygon fill="white" stroke="#666666" points="367.5,-153 301.25,-153 301.25,-133 367.5,-133 367.5,-153"/>
<text text-anchor="middle" x="334.38" y="-139.5" font-family="Helvetica,sans-Serif" font-size="10.00">Barrel_Blue</text>
</a>
</g>
</g>
<!-- Node1&#45;&gt;Node2 -->
<g id="edge645_Node000001_Node000002" class="edge">
<title>Node1&#45;&gt;Node2</title>
<g id="a_edge645_Node000001_Node000002"><a xlink:title=" ">
<path fill="none" stroke="#8b1a1a" d="M247.52,-101.35C267.94,-111.26 293.95,-123.87 311.96,-132.61"/>
<polygon fill="#8b1a1a" stroke="#8b1a1a" points="249.31,-98.33 238.79,-97.12 246.26,-104.63 249.31,-98.33"/>
</a>
</g>
</g>
<!-- Node3 -->
<g id="Node000003" class="node">
<title>Node3</title>
<g id="a_Node000003"><a xlink:href="df/d03/class_barrel___green.html" target="_top" xlink:title=" ">
<polygon fill="white" stroke="#666666" points="370.88,-115 297.88,-115 297.88,-95 370.88,-95 370.88,-115"/>
<text text-anchor="middle" x="334.38" y="-101.5" font-family="Helvetica,sans-Serif" font-size="10.00">Barrel_Green</text>
</a>
</g>
</g>
<!-- Node1&#45;&gt;Node3 -->
<g id="edge646_Node000001_Node000003" class="edge">
<title>Node1&#45;&gt;Node3</title>
<g id="a_edge646_Node000001_Node000003"><a xlink:title=" ">
<path fill="none" stroke="#8b1a1a" d="M272.26,-95.12C280.92,-96.52 289.66,-97.93 297.7,-99.23"/>
<polygon fill="#8b1a1a" stroke="#8b1a1a" points="272.89,-91.67 262.46,-93.53 271.77,-98.58 272.89,-91.67"/>
</a>
</g>
</g>
<!-- Node4 -->
<g id="Node000004" class="node">
<title>Node4</title>
<g id="a_Node000004"><a xlink:href="d3/d0f/class_barrel___red.html" target="_top" xlink:title=" ">
<polygon fill="white" stroke="#666666" points="366.38,-77 302.38,-77 302.38,-57 366.38,-57 366.38,-77"/>
<text text-anchor="middle" x="334.38" y="-63.5" font-family="Helvetica,sans-Serif" font-size="10.00">Barrel_Red</text>
</a>
</g>
</g>
<!-- Node1&#45;&gt;Node4 -->
<g id="edge647_Node000001_Node000004" class="edge">
<title>Node1&#45;&gt;Node4</title>
<g id="a_edge647_Node000001_Node000004"><a xlink:title=" ">
<path fill="none" stroke="#8b1a1a" d="M272.06,-76.91C282.38,-75.25 292.81,-73.56 302.06,-72.06"/>
<polygon fill="#8b1a1a" stroke="#8b1a1a" points="271.77,-73.42 262.46,-78.47 272.89,-80.33 271.77,-73.42"/>
</a>
</g>
</g>
<!-- Node5 -->
<g id="Node000005" class="node">
<title>Node5</title>
<g id="a_Node000005"><a xlink:href="df/d01/class_barrel___yellow.html" target="_top" xlink:title=" ">
<polygon fill="white" stroke="#666666" points="372,-39 296.75,-39 296.75,-19 372,-19 372,-39"/>
<text text-anchor="middle" x="334.38" y="-25.5" font-family="Helvetica,sans-Serif" font-size="10.00">Barrel_Yellow</text>
</a>
</g>
</g>
<!-- Node1&#45;&gt;Node5 -->
<g id="edge648_Node000001_Node000005" class="edge">
<title>Node1&#45;&gt;Node5</title>
<g id="a_edge648_Node000001_Node000005"><a xlink:title=" ">
<path fill="none" stroke="#8b1a1a" d="M252.18,-70.94C255.09,-69.64 257.98,-68.31 260.75,-67 277.09,-59.24 280.72,-56.39 296.75,-48 302.08,-45.21 307.86,-42.21 313.21,-39.43"/>
<polygon fill="#8b1a1a" stroke="#8b1a1a" points="250.83,-67.71 243.06,-74.92 253.62,-74.13 250.83,-67.71"/>
</a>
</g>
</g>
</g>
</svg>
