<?xml version="1.0" encoding="UTF-8" standalone="no"?>
<!DOCTYPE svg PUBLIC "-//W3C//DTD SVG 1.1//EN"
 "http://www.w3.org/Graphics/SVG/1.1/DTD/svg11.dtd">
<!-- Generated by graphviz version 11.0.0 (20240428.1522)
 -->
<!-- Title: Graphical Class Hierarchy Pages: 1 -->
<svg width="198pt" height="142pt"
 viewBox="0.00 0.00 198.25 142.00" xmlns="http://www.w3.org/2000/svg" xmlns:xlink="http://www.w3.org/1999/xlink">
<g id="graph0" class="graph" transform="scale(1 1) rotate(0) translate(4 138)">
<title>Graphical Class Hierarchy</title>
<!-- Node0 -->
<g id="Node000000" class="node">
<title>Node0</title>
<g id="a_Node000000"><a xlink:href="dd/d0a/class_widget.html" target="_top" xlink:title=" ">
<polygon fill="white" stroke="#666666" points="46.75,-77 0,-77 0,-57 46.75,-57 46.75,-77"/>
<text text-anchor="middle" x="23.38" y="-63.5" font-family="Helvetica,sans-Serif" font-size="10.00">Widget</text>
</a>
</g>
</g>
<!-- Node1 -->
<g id="Node000001" class="node">
<title>Node1</title>
<g id="a_Node000001"><a xlink:href="d4/d08/class_item_preview_widget.html" target="_top" xlink:title=" ">
<polygon fill="white" stroke="#666666" points="185.75,-134 87.25,-134 87.25,-114 185.75,-114 185.75,-134"/>
<text text-anchor="middle" x="136.5" y="-120.5" font-family="Helvetica,sans-Serif" font-size="10.00">ItemPreviewWidget</text>
</a>
</g>
</g>
<!-- Node0&#45;&gt;Node1 -->
<g id="edge1776_Node000000_Node000001" class="edge">
<title>Node0&#45;&gt;Node1</title>
<g id="a_edge1776_Node000000_Node000001"><a xlink:title=" ">
<path fill="none" stroke="#8b1a1a" d="M47.45,-83.79C57.9,-90.92 70.61,-98.96 82.75,-105 89.11,-108.16 96.14,-111.07 102.93,-113.6"/>
<polygon fill="#8b1a1a" stroke="#8b1a1a" points="49.66,-81.06 39.46,-78.2 45.65,-86.8 49.66,-81.06"/>
</a>
</g>
</g>
<!-- Node2 -->
<g id="Node000002" class="node">
<title>Node2</title>
<g id="a_Node000002"><a xlink:href="d7/d0a/class_map_widget.html" target="_top" xlink:title=" ">
<polygon fill="white" stroke="#666666" points="169.25,-96 103.75,-96 103.75,-76 169.25,-76 169.25,-96"/>
<text text-anchor="middle" x="136.5" y="-82.5" font-family="Helvetica,sans-Serif" font-size="10.00">MapWidget</text>
</a>
</g>
</g>
<!-- Node0&#45;&gt;Node2 -->
<g id="edge1777_Node000000_Node000002" class="edge">
<title>Node0&#45;&gt;Node2</title>
<g id="a_edge1777_Node000000_Node000002"><a xlink:title=" ">
<path fill="none" stroke="#8b1a1a" d="M58.1,-72.77C72.53,-75.23 89.28,-78.1 103.51,-80.53"/>
<polygon fill="#8b1a1a" stroke="#8b1a1a" points="59.07,-69.38 48.62,-71.15 57.89,-76.28 59.07,-69.38"/>
</a>
</g>
</g>
<!-- Node3 -->
<g id="Node000003" class="node">
<title>Node3</title>
<g id="a_Node000003"><a xlink:href="d4/d06/class_player_preview_widget.html" target="_top" xlink:title=" ">
<polygon fill="white" stroke="#666666" points="190.25,-58 82.75,-58 82.75,-38 190.25,-38 190.25,-58"/>
<text text-anchor="middle" x="136.5" y="-44.5" font-family="Helvetica,sans-Serif" font-size="10.00">PlayerPreviewWidget</text>
</a>
</g>
</g>
<!-- Node0&#45;&gt;Node3 -->
<g id="edge1778_Node000000_Node000003" class="edge">
<title>Node0&#45;&gt;Node3</title>
<g id="a_edge1778_Node000000_Node000003"><a xlink:title=" ">
<path fill="none" stroke="#8b1a1a" d="M58.47,-61.17C66.08,-59.87 74.32,-58.46 82.49,-57.06"/>
<polygon fill="#8b1a1a" stroke="#8b1a1a" points="57.89,-57.72 48.62,-62.85 59.07,-64.62 57.89,-57.72"/>
</a>
</g>
</g>
<!-- Node4 -->
<g id="Node000004" class="node">
<title>Node4</title>
<g id="a_Node000004"><a xlink:href="d8/d04/class_workspace_widget.html" target="_top" xlink:title=" ">
<polygon fill="white" stroke="#666666" points="184.62,-20 88.38,-20 88.38,0 184.62,0 184.62,-20"/>
<text text-anchor="middle" x="136.5" y="-6.5" font-family="Helvetica,sans-Serif" font-size="10.00">WorkspaceWidget</text>
</a>
</g>
</g>
<!-- Node0&#45;&gt;Node4 -->
<g id="edge1779_Node000000_Node000004" class="edge">
<title>Node0&#45;&gt;Node4</title>
<g id="a_edge1779_Node000000_Node000004"><a xlink:title=" ">
<path fill="none" stroke="#8b1a1a" d="M47.45,-50.21C57.9,-43.08 70.61,-35.04 82.75,-29 89.11,-25.84 96.14,-22.93 102.93,-20.4"/>
<polygon fill="#8b1a1a" stroke="#8b1a1a" points="45.65,-47.2 39.46,-55.8 49.66,-52.94 45.65,-47.2"/>
</a>
</g>
</g>
</g>
</svg>
