<?xml version="1.0" encoding="UTF-8" standalone="no"?>
<!DOCTYPE svg PUBLIC "-//W3C//DTD SVG 1.1//EN"
 "http://www.w3.org/Graphics/SVG/1.1/DTD/svg11.dtd">
<!-- Generated by graphviz version 11.0.0 (20240428.1522)
 -->
<!-- Title: Graphical Class Hierarchy Pages: 1 -->
<svg width="482pt" height="273pt"
 viewBox="0.00 0.00 482.00 273.00" xmlns="http://www.w3.org/2000/svg" xmlns:xlink="http://www.w3.org/1999/xlink">
<g id="graph0" class="graph" transform="scale(1 1) rotate(0) translate(4 269)">
<title>Graphical Class Hierarchy</title>
<!-- Node0 -->
<g id="Node000000" class="node">
<title>Node0</title>
<g id="a_Node000000"><a xlink:title=" ">
<polygon fill="#e0e0e0" stroke="#999999" points="136.75,-139 0,-139 0,-119 136.75,-119 136.75,-139"/>
<text text-anchor="middle" x="68.38" y="-125.5" font-family="Helvetica,sans-Serif" font-size="10.00">ActionForceConsumeSingle</text>
</a>
</g>
</g>
<!-- Node1 -->
<g id="Node000001" class="node">
<title>Node1</title>
<g id="a_Node000001"><a xlink:href="df/d09/class_action_force_a_bite.html" target="_top" xlink:title=" ">
<polygon fill="white" stroke="#666666" points="296.75,-246 204.25,-246 204.25,-226 296.75,-226 296.75,-246"/>
<text text-anchor="middle" x="250.5" y="-232.5" font-family="Helvetica,sans-Serif" font-size="10.00">ActionForceABite</text>
</a>
</g>
</g>
<!-- Node0&#45;&gt;Node1 -->
<g id="edge330_Node000000_Node000001" class="edge">
<title>Node0&#45;&gt;Node1</title>
<g id="a_edge330_Node000000_Node000001"><a xlink:title=" ">
<path fill="none" stroke="#8b1a1a" d="M86.24,-147.81C105.3,-167.91 138.2,-199.28 172.75,-217 182.4,-221.95 193.4,-225.65 204,-228.41"/>
<polygon fill="#8b1a1a" stroke="#8b1a1a" points="88.89,-145.52 79.53,-140.57 83.76,-150.28 88.89,-145.52"/>
</a>
</g>
</g>
<!-- Node4 -->
<g id="Node000004" class="node">
<title>Node4</title>
<g id="a_Node000004"><a xlink:href="d6/d03/class_action_force_bite_charcoal_tablets.html" target="_top" xlink:title=" ">
<polygon fill="white" stroke="#666666" points="328.25,-208 172.75,-208 172.75,-188 328.25,-188 328.25,-208"/>
<text text-anchor="middle" x="250.5" y="-194.5" font-family="Helvetica,sans-Serif" font-size="10.00">ActionForceBiteCharcoalTablets</text>
</a>
</g>
</g>
<!-- Node0&#45;&gt;Node4 -->
<g id="edge333_Node000000_Node000004" class="edge">
<title>Node0&#45;&gt;Node4</title>
<g id="a_edge333_Node000000_Node000004"><a xlink:title=" ">
<path fill="none" stroke="#8b1a1a" d="M97.8,-144.73C118.18,-155.52 146.56,-169.54 172.75,-179 181.66,-182.22 191.34,-185.08 200.73,-187.55"/>
<polygon fill="#8b1a1a" stroke="#8b1a1a" points="99.72,-141.79 89.25,-140.14 96.4,-147.96 99.72,-141.79"/>
</a>
</g>
</g>
<!-- Node5 -->
<g id="Node000005" class="node">
<title>Node5</title>
<g id="a_Node000005"><a xlink:href="d8/d0d/class_action_force_bite_painkiller_tablets.html" target="_top" xlink:title=" ">
<polygon fill="white" stroke="#666666" points="313.25,-170 187.75,-170 187.75,-138 313.25,-138 313.25,-170"/>
<text text-anchor="start" x="195.75" y="-156.5" font-family="Helvetica,sans-Serif" font-size="10.00">ActionForceBitePainkiller</text>
<text text-anchor="middle" x="250.5" y="-144.5" font-family="Helvetica,sans-Serif" font-size="10.00">Tablets</text>
</a>
</g>
</g>
<!-- Node0&#45;&gt;Node5 -->
<g id="edge334_Node000000_Node000005" class="edge">
<title>Node0&#45;&gt;Node5</title>
<g id="a_edge334_Node000000_Node000005"><a xlink:title=" ">
<path fill="none" stroke="#8b1a1a" d="M148.53,-139.99C161.54,-141.79 174.85,-143.64 187.36,-145.38"/>
<polygon fill="#8b1a1a" stroke="#8b1a1a" points="149.1,-136.53 138.72,-138.62 148.14,-143.47 149.1,-136.53"/>
</a>
</g>
</g>
<!-- Node6 -->
<g id="Node000006" class="node">
<title>Node6</title>
<g id="a_Node000006"><a xlink:href="d6/d0b/class_action_force_bite_purification_tablets.html" target="_top" xlink:title=" ">
<polygon fill="white" stroke="#666666" points="317.38,-120 183.62,-120 183.62,-88 317.38,-88 317.38,-120"/>
<text text-anchor="start" x="191.62" y="-106.5" font-family="Helvetica,sans-Serif" font-size="10.00">ActionForceBitePurification</text>
<text text-anchor="middle" x="250.5" y="-94.5" font-family="Helvetica,sans-Serif" font-size="10.00">Tablets</text>
</a>
</g>
</g>
<!-- Node0&#45;&gt;Node6 -->
<g id="edge335_Node000000_Node000006" class="edge">
<title>Node0&#45;&gt;Node6</title>
<g id="a_edge335_Node000000_Node000006"><a xlink:title=" ">
<path fill="none" stroke="#8b1a1a" d="M148.29,-118.05C159.94,-116.43 171.85,-114.78 183.21,-113.2"/>
<polygon fill="#8b1a1a" stroke="#8b1a1a" points="148.14,-114.53 138.72,-119.38 149.1,-121.47 148.14,-114.53"/>
</a>
</g>
</g>
<!-- Node7 -->
<g id="Node000007" class="node">
<title>Node7</title>
<g id="a_Node000007"><a xlink:href="dc/d08/class_action_force_bite_tetracycline_antibiotics.html" target="_top" xlink:title=" ">
<polygon fill="white" stroke="#666666" points="319.62,-70 181.38,-70 181.38,-38 319.62,-38 319.62,-70"/>
<text text-anchor="start" x="189.38" y="-56.5" font-family="Helvetica,sans-Serif" font-size="10.00">ActionForceBiteTetracycline</text>
<text text-anchor="middle" x="250.5" y="-44.5" font-family="Helvetica,sans-Serif" font-size="10.00">Antibiotics</text>
</a>
</g>
</g>
<!-- Node0&#45;&gt;Node7 -->
<g id="edge336_Node000000_Node000007" class="edge">
<title>Node0&#45;&gt;Node7</title>
<g id="a_edge336_Node000000_Node000007"><a xlink:title=" ">
<path fill="none" stroke="#8b1a1a" d="M99.05,-113.32C119.46,-102.87 147.35,-89.22 172.75,-79 180.16,-76.02 188.08,-73.12 195.9,-70.43"/>
<polygon fill="#8b1a1a" stroke="#8b1a1a" points="97.45,-110.2 90.18,-117.91 100.67,-116.42 97.45,-110.2"/>
</a>
</g>
</g>
<!-- Node8 -->
<g id="Node000008" class="node">
<title>Node8</title>
<g id="a_Node000008"><a xlink:href="de/d01/class_action_force_bite_vitamin_bottle.html" target="_top" xlink:title=" ">
<polygon fill="white" stroke="#666666" points="322.62,-20 178.38,-20 178.38,0 322.62,0 322.62,-20"/>
<text text-anchor="middle" x="250.5" y="-6.5" font-family="Helvetica,sans-Serif" font-size="10.00">ActionForceBiteVitaminBottle</text>
</a>
</g>
</g>
<!-- Node0&#45;&gt;Node8 -->
<g id="edge337_Node000000_Node000008" class="edge">
<title>Node0&#45;&gt;Node8</title>
<g id="a_edge337_Node000000_Node000008"><a xlink:title=" ">
<path fill="none" stroke="#8b1a1a" d="M84.01,-109.63C102.27,-86.85 135.64,-49.55 172.75,-29 178.99,-25.54 185.87,-22.7 192.86,-20.38"/>
<polygon fill="#8b1a1a" stroke="#8b1a1a" points="81.26,-107.46 77.86,-117.5 86.78,-111.77 81.26,-107.46"/>
</a>
</g>
</g>
<!-- Node2 -->
<g id="Node000002" class="node">
<title>Node2</title>
<g id="a_Node000002"><a xlink:href="da/d05/class_action_force_a_bite_can.html" target="_top" xlink:title=" ">
<polygon fill="white" stroke="#666666" points="474,-265 364.25,-265 364.25,-245 474,-245 474,-265"/>
<text text-anchor="middle" x="419.12" y="-251.5" font-family="Helvetica,sans-Serif" font-size="10.00">ActionForceABiteCan</text>
</a>
</g>
</g>
<!-- Node1&#45;&gt;Node2 -->
<g id="edge331_Node000001_Node000002" class="edge">
<title>Node1&#45;&gt;Node2</title>
<g id="a_edge331_Node000001_Node000002"><a xlink:title=" ">
<path fill="none" stroke="#8b1a1a" d="M308.23,-242.47C326.19,-244.52 345.98,-246.77 363.77,-248.8"/>
<polygon fill="#8b1a1a" stroke="#8b1a1a" points="308.87,-239.02 298.53,-241.36 308.07,-245.97 308.87,-239.02"/>
</a>
</g>
</g>
<!-- Node3 -->
<g id="Node000003" class="node">
<title>Node3</title>
<g id="a_Node000003"><a xlink:href="de/d0e/class_action_force_a_sip.html" target="_top" xlink:title=" ">
<polygon fill="white" stroke="#666666" points="463.88,-227 374.38,-227 374.38,-207 463.88,-207 463.88,-227"/>
<text text-anchor="middle" x="419.12" y="-213.5" font-family="Helvetica,sans-Serif" font-size="10.00">ActionForceASip</text>
</a>
</g>
</g>
<!-- Node1&#45;&gt;Node3 -->
<g id="edge332_Node000001_Node000003" class="edge">
<title>Node1&#45;&gt;Node3</title>
<g id="a_edge332_Node000001_Node000003"><a xlink:title=" ">
<path fill="none" stroke="#8b1a1a" d="M308.33,-229.52C329.82,-227.07 353.94,-224.32 374.09,-222.02"/>
<polygon fill="#8b1a1a" stroke="#8b1a1a" points="308.07,-226.03 298.53,-230.64 308.87,-232.98 308.07,-226.03"/>
</a>
</g>
</g>
</g>
</svg>
