<?xml version="1.0" encoding="UTF-8" standalone="no"?>
<!DOCTYPE svg PUBLIC "-//W3C//DTD SVG 1.1//EN"
 "http://www.w3.org/Graphics/SVG/1.1/DTD/svg11.dtd">
<!-- Generated by graphviz version 11.0.0 (20240428.1522)
 -->
<!-- Title: Graphical Class Hierarchy Pages: 1 -->
<svg width="213pt" height="66pt"
 viewBox="0.00 0.00 213.25 66.00" xmlns="http://www.w3.org/2000/svg" xmlns:xlink="http://www.w3.org/1999/xlink">
<g id="graph0" class="graph" transform="scale(1 1) rotate(0) translate(4 62)">
<title>Graphical Class Hierarchy</title>
<!-- Node0 -->
<g id="Node000000" class="node">
<title>Node0</title>
<g id="a_Node000000"><a xlink:href="db/d0a/class_recipe_base.html" target="_top" xlink:title=" ">
<polygon fill="white" stroke="#666666" points="68.5,-39 0,-39 0,-19 68.5,-19 68.5,-39"/>
<text text-anchor="middle" x="34.25" y="-25.5" font-family="Helvetica,sans-Serif" font-size="10.00">RecipeBase</text>
</a>
</g>
</g>
<!-- Node1 -->
<g id="Node000001" class="node">
<title>Node1</title>
<g id="a_Node000001"><a xlink:href="db/d03/class_craft_drysack_bag.html" target="_top" xlink:title=" ">
<polygon fill="white" stroke="#666666" points="199.62,-58 110.12,-58 110.12,-38 199.62,-38 199.62,-58"/>
<text text-anchor="middle" x="154.88" y="-44.5" font-family="Helvetica,sans-Serif" font-size="10.00">CraftDrysackBag</text>
</a>
</g>
</g>
<!-- Node0&#45;&gt;Node1 -->
<g id="edge1609_Node000000_Node000001" class="edge">
<title>Node0&#45;&gt;Node1</title>
<g id="a_edge1609_Node000000_Node000001"><a xlink:title=" ">
<path fill="none" stroke="#8b1a1a" d="M80.07,-36.18C89.84,-37.74 100.17,-39.4 109.91,-40.96"/>
<polygon fill="#8b1a1a" stroke="#8b1a1a" points="80.85,-32.76 70.42,-34.63 79.74,-39.67 80.85,-32.76"/>
</a>
</g>
</g>
<!-- Node2 -->
<g id="Node000002" class="node">
<title>Node2</title>
<g id="a_Node000002"><a xlink:href="d6/d02/class_craft_witch_hood_coif.html" target="_top" xlink:title=" ">
<polygon fill="white" stroke="#666666" points="205.25,-20 104.5,-20 104.5,0 205.25,0 205.25,-20"/>
<text text-anchor="middle" x="154.88" y="-6.5" font-family="Helvetica,sans-Serif" font-size="10.00">CraftWitchHoodCoif</text>
</a>
</g>
</g>
<!-- Node0&#45;&gt;Node2 -->
<g id="edge1610_Node000000_Node000002" class="edge">
<title>Node0&#45;&gt;Node2</title>
<g id="a_edge1610_Node000000_Node000002"><a xlink:title=" ">
<path fill="none" stroke="#8b1a1a" d="M80.11,-21.81C87.97,-20.56 96.19,-19.24 104.17,-17.96"/>
<polygon fill="#8b1a1a" stroke="#8b1a1a" points="79.74,-18.33 70.42,-23.37 80.85,-25.24 79.74,-18.33"/>
</a>
</g>
</g>
</g>
</svg>
