<?xml version="1.0" encoding="UTF-8" standalone="no"?>
<!DOCTYPE svg PUBLIC "-//W3C//DTD SVG 1.1//EN"
 "http://www.w3.org/Graphics/SVG/1.1/DTD/svg11.dtd">
<!-- Generated by graphviz version 11.0.0 (20240428.1522)
 -->
<!-- Title: Graphical Class Hierarchy Pages: 1 -->
<svg width="328pt" height="458pt"
 viewBox="0.00 0.00 328.00 458.00" xmlns="http://www.w3.org/2000/svg" xmlns:xlink="http://www.w3.org/1999/xlink">
<g id="graph0" class="graph" transform="scale(1 1) rotate(0) translate(4 454)">
<title>Graphical Class Hierarchy</title>
<!-- Node0 -->
<g id="Node000000" class="node">
<title>Node0</title>
<g id="a_Node000000"><a xlink:href="d1/d00/class_turn_item_into_item_lambda.html" target="_top" xlink:title=" ">
<polygon fill="white" stroke="#666666" points="122.5,-238 0,-238 0,-218 122.5,-218 122.5,-238"/>
<text text-anchor="middle" x="61.25" y="-224.5" font-family="Helvetica,sans-Serif" font-size="10.00">TurnItemIntoItemLambda</text>
</a>
</g>
</g>
<!-- Node1 -->
<g id="Node000001" class="node">
<title>Node1</title>
<g id="a_Node000001"><a xlink:href="df/d0c/class_colour_clothes_lambda.html" target="_top" xlink:title=" ">
<polygon fill="white" stroke="#666666" points="294.88,-450 183.62,-450 183.62,-430 294.88,-430 294.88,-450"/>
<text text-anchor="middle" x="239.25" y="-436.5" font-family="Helvetica,sans-Serif" font-size="10.00">ColourClothesLambda</text>
</a>
</g>
</g>
<!-- Node0&#45;&gt;Node1 -->
<g id="edge1744_Node000000_Node000001" class="edge">
<title>Node0&#45;&gt;Node1</title>
<g id="a_edge1744_Node000000_Node000001"><a xlink:title=" ">
<path fill="none" stroke="#8b1a1a" d="M66.64,-249.39C76.04,-289.53 102.02,-376.16 158.5,-421 165.75,-426.75 174.45,-430.81 183.41,-433.66"/>
<polygon fill="#8b1a1a" stroke="#8b1a1a" points="70.1,-248.8 64.52,-239.79 63.26,-250.31 70.1,-248.8"/>
</a>
</g>
</g>
<!-- Node2 -->
<g id="Node000002" class="node">
<title>Node2</title>
<g id="a_Node000002"><a xlink:href="da/d01/class_cover_head_of_target_player_lambda.html" target="_top" xlink:title=" ">
<polygon fill="white" stroke="#666666" points="320,-412 158.5,-412 158.5,-392 320,-392 320,-412"/>
<text text-anchor="middle" x="239.25" y="-398.5" font-family="Helvetica,sans-Serif" font-size="10.00">CoverHeadOfTargetPlayerLambda</text>
</a>
</g>
</g>
<!-- Node0&#45;&gt;Node2 -->
<g id="edge1745_Node000000_Node000002" class="edge">
<title>Node0&#45;&gt;Node2</title>
<g id="a_edge1745_Node000000_Node000002"><a xlink:title=" ">
<path fill="none" stroke="#8b1a1a" d="M69.17,-248.67C81.53,-282.29 110.69,-348.54 158.5,-383 163.23,-386.41 168.5,-389.22 174,-391.53"/>
<polygon fill="#8b1a1a" stroke="#8b1a1a" points="72.62,-247.94 66,-239.67 66.02,-250.26 72.62,-247.94"/>
</a>
</g>
</g>
<!-- Node3 -->
<g id="Node000003" class="node">
<title>Node3</title>
<g id="a_Node000003"><a xlink:href="d5/d0a/class_fold_bandana_to_slot_lambda.html" target="_top" xlink:title=" ">
<polygon fill="white" stroke="#666666" points="306.88,-374 171.62,-374 171.62,-354 306.88,-354 306.88,-374"/>
<text text-anchor="middle" x="239.25" y="-360.5" font-family="Helvetica,sans-Serif" font-size="10.00">FoldBandanaToSlotLambda</text>
</a>
</g>
</g>
<!-- Node0&#45;&gt;Node3 -->
<g id="edge1746_Node000000_Node000003" class="edge">
<title>Node0&#45;&gt;Node3</title>
<g id="a_edge1746_Node000000_Node000003"><a xlink:title=" ">
<path fill="none" stroke="#8b1a1a" d="M73.13,-248.05C88.54,-274.49 119.28,-320.51 158.5,-345 164.05,-348.47 170.19,-351.3 176.51,-353.62"/>
<polygon fill="#8b1a1a" stroke="#8b1a1a" points="76.36,-246.65 68.39,-239.66 70.26,-250.09 76.36,-246.65"/>
</a>
</g>
</g>
<!-- Node4 -->
<g id="Node000004" class="node">
<title>Node4</title>
<g id="a_Node000004"><a xlink:href="d1/d09/class_open_and_switch_lambda.html" target="_top" xlink:title=" ">
<polygon fill="white" stroke="#666666" points="299.38,-336 179.12,-336 179.12,-316 299.38,-316 299.38,-336"/>
<text text-anchor="middle" x="239.25" y="-322.5" font-family="Helvetica,sans-Serif" font-size="10.00">OpenAndSwitchLambda</text>
</a>
</g>
</g>
<!-- Node0&#45;&gt;Node4 -->
<g id="edge1747_Node000000_Node000004" class="edge">
<title>Node0&#45;&gt;Node4</title>
<g id="a_edge1747_Node000000_Node000004"><a xlink:title=" ">
<path fill="none" stroke="#8b1a1a" d="M79.69,-246.56C97.72,-264.66 127.55,-291.64 158.5,-307 165.38,-310.42 172.91,-313.24 180.51,-315.56"/>
<polygon fill="#8b1a1a" stroke="#8b1a1a" points="82.36,-244.29 72.88,-239.57 77.34,-249.17 82.36,-244.29"/>
</a>
</g>
</g>
<!-- Node5 -->
<g id="Node000005" class="node">
<title>Node5</title>
<g id="a_Node000005"><a xlink:href="d4/d0f/class_paint_item_lambda.html" target="_top" xlink:title=" ">
<polygon fill="white" stroke="#666666" points="285.12,-298 193.38,-298 193.38,-278 285.12,-278 285.12,-298"/>
<text text-anchor="middle" x="239.25" y="-284.5" font-family="Helvetica,sans-Serif" font-size="10.00">PaintItemLambda</text>
</a>
</g>
</g>
<!-- Node0&#45;&gt;Node5 -->
<g id="edge1748_Node000000_Node000005" class="edge">
<title>Node0&#45;&gt;Node5</title>
<g id="a_edge1748_Node000000_Node000005"><a xlink:title=" ">
<path fill="none" stroke="#8b1a1a" d="M93.86,-243.06C112.39,-251.49 136.44,-261.73 158.5,-269 169.58,-272.65 181.75,-275.91 193.17,-278.66"/>
<polygon fill="#8b1a1a" stroke="#8b1a1a" points="95.56,-239.99 85.01,-238.98 92.63,-246.35 95.56,-239.99"/>
</a>
</g>
</g>
<!-- Node6 -->
<g id="Node000006" class="node">
<title>Node6</title>
<g id="a_Node000006"><a xlink:href="d4/d09/class_repack_lambda.html" target="_top" xlink:title=" ">
<polygon fill="white" stroke="#666666" points="281,-260 197.5,-260 197.5,-240 281,-240 281,-260"/>
<text text-anchor="middle" x="239.25" y="-246.5" font-family="Helvetica,sans-Serif" font-size="10.00">RepackLambda</text>
</a>
</g>
</g>
<!-- Node0&#45;&gt;Node6 -->
<g id="edge1749_Node000000_Node000006" class="edge">
<title>Node0&#45;&gt;Node6</title>
<g id="a_edge1749_Node000000_Node000006"><a xlink:title=" ">
<path fill="none" stroke="#8b1a1a" d="M134.23,-237C155.7,-239.68 178.48,-242.53 197.23,-244.87"/>
<polygon fill="#8b1a1a" stroke="#8b1a1a" points="134.68,-233.53 124.32,-235.76 133.81,-240.47 134.68,-233.53"/>
</a>
</g>
</g>
<!-- Node7 -->
<g id="Node000007" class="node">
<title>Node7</title>
<g id="a_Node000007"><a xlink:href="d6/d04/class_replace_with_new_recive_cargo_lambda.html" target="_top" xlink:title=" ">
<polygon fill="white" stroke="#666666" points="311.38,-222 167.12,-222 167.12,-190 311.38,-190 311.38,-222"/>
<text text-anchor="start" x="175.12" y="-208.5" font-family="Helvetica,sans-Serif" font-size="10.00">ReplaceWithNewReciveCargo</text>
<text text-anchor="middle" x="239.25" y="-196.5" font-family="Helvetica,sans-Serif" font-size="10.00">Lambda</text>
</a>
</g>
</g>
<!-- Node0&#45;&gt;Node7 -->
<g id="edge1750_Node000000_Node000007" class="edge">
<title>Node0&#45;&gt;Node7</title>
<g id="a_edge1750_Node000000_Node000007"><a xlink:title=" ">
<path fill="none" stroke="#8b1a1a" d="M133.92,-219.04C144.72,-217.69 155.86,-216.3 166.65,-214.95"/>
<polygon fill="#8b1a1a" stroke="#8b1a1a" points="133.81,-215.53 124.32,-220.24 134.68,-222.47 133.81,-215.53"/>
</a>
</g>
</g>
<!-- Node8 -->
<g id="Node000008" class="node">
<title>Node8</title>
<g id="a_Node000008"><a xlink:href="d2/d0f/class_syringe_lambda.html" target="_top" xlink:title=" ">
<polygon fill="white" stroke="#666666" points="281,-172 197.5,-172 197.5,-152 281,-152 281,-172"/>
<text text-anchor="middle" x="239.25" y="-158.5" font-family="Helvetica,sans-Serif" font-size="10.00">SyringeLambda</text>
</a>
</g>
</g>
<!-- Node0&#45;&gt;Node8 -->
<g id="edge1751_Node000000_Node000008" class="edge">
<title>Node0&#45;&gt;Node8</title>
<g id="a_edge1751_Node000000_Node000008"><a xlink:title=" ">
<path fill="none" stroke="#8b1a1a" d="M90.5,-212.15C109.31,-202.12 134.83,-189.48 158.5,-181 170.83,-176.58 184.59,-172.89 197.17,-169.96"/>
<polygon fill="#8b1a1a" stroke="#8b1a1a" points="88.98,-208.99 81.86,-216.84 92.32,-215.14 88.98,-208.99"/>
</a>
</g>
</g>
<!-- Node9 -->
<g id="Node000009" class="node">
<title>Node9</title>
<g id="a_Node000009"><a xlink:href="dc/d05/class_tan_leather_lambda.html" target="_top" xlink:title=" ">
<polygon fill="white" stroke="#666666" points="288.5,-134 190,-134 190,-114 288.5,-114 288.5,-134"/>
<text text-anchor="middle" x="239.25" y="-120.5" font-family="Helvetica,sans-Serif" font-size="10.00">TanLeatherLambda</text>
</a>
</g>
</g>
<!-- Node0&#45;&gt;Node9 -->
<g id="edge1752_Node000000_Node000009" class="edge">
<title>Node0&#45;&gt;Node9</title>
<g id="a_edge1752_Node000000_Node000009"><a xlink:title=" ">
<path fill="none" stroke="#8b1a1a" d="M78.31,-209.18C95.98,-189.68 126.21,-159.75 158.5,-143 168.1,-138.02 179.03,-134.32 189.65,-131.58"/>
<polygon fill="#8b1a1a" stroke="#8b1a1a" points="75.89,-206.62 71.89,-216.43 81.14,-211.26 75.89,-206.62"/>
</a>
</g>
</g>
<!-- Node10 -->
<g id="Node000010" class="node">
<title>Node10</title>
<g id="a_Node000010"><a xlink:href="d5/d06/class_unfold_bandana_lambda.html" target="_top" xlink:title=" ">
<polygon fill="white" stroke="#666666" points="297.12,-96 181.38,-96 181.38,-76 297.12,-76 297.12,-96"/>
<text text-anchor="middle" x="239.25" y="-82.5" font-family="Helvetica,sans-Serif" font-size="10.00">UnfoldBandanaLambda</text>
</a>
</g>
</g>
<!-- Node0&#45;&gt;Node10 -->
<g id="edge1753_Node000000_Node000010" class="edge">
<title>Node0&#45;&gt;Node10</title>
<g id="a_edge1753_Node000000_Node000010"><a xlink:title=" ">
<path fill="none" stroke="#8b1a1a" d="M72.41,-207.74C87.37,-180.09 117.98,-130.99 158.5,-105 165.33,-100.62 173.07,-97.25 180.98,-94.65"/>
<polygon fill="#8b1a1a" stroke="#8b1a1a" points="69.37,-206.01 67.84,-216.5 75.57,-209.26 69.37,-206.01"/>
</a>
</g>
</g>
<!-- Node11 -->
<g id="Node000011" class="node">
<title>Node11</title>
<g id="a_Node000011"><a xlink:href="d8/d06/class_unfold_entity_lambda.html" target="_top" xlink:title=" ">
<polygon fill="white" stroke="#666666" points="290.75,-58 187.75,-58 187.75,-38 290.75,-38 290.75,-58"/>
<text text-anchor="middle" x="239.25" y="-44.5" font-family="Helvetica,sans-Serif" font-size="10.00">UnfoldEntityLambda</text>
</a>
</g>
</g>
<!-- Node0&#45;&gt;Node11 -->
<g id="edge1754_Node000000_Node000011" class="edge">
<title>Node0&#45;&gt;Node11</title>
<g id="a_edge1754_Node000000_Node000011"><a xlink:title=" ">
<path fill="none" stroke="#8b1a1a" d="M68.76,-207.04C80.69,-172.29 109.41,-103.01 158.5,-67 166.99,-60.77 177.24,-56.55 187.52,-53.71"/>
<polygon fill="#8b1a1a" stroke="#8b1a1a" points="65.5,-205.75 65.71,-216.35 72.16,-207.93 65.5,-205.75"/>
</a>
</g>
</g>
<!-- Node12 -->
<g id="Node000012" class="node">
<title>Node12</title>
<g id="a_Node000012"><a xlink:href="dc/d09/class_ungag_self_lambda.html" target="_top" xlink:title=" ">
<polygon fill="white" stroke="#666666" points="286.62,-20 191.88,-20 191.88,0 286.62,0 286.62,-20"/>
<text text-anchor="middle" x="239.25" y="-6.5" font-family="Helvetica,sans-Serif" font-size="10.00">UngagSelfLambda</text>
</a>
</g>
</g>
<!-- Node0&#45;&gt;Node12 -->
<g id="edge1755_Node000000_Node000012" class="edge">
<title>Node0&#45;&gt;Node12</title>
<g id="a_edge1755_Node000000_Node000012"><a xlink:title=" ">
<path fill="none" stroke="#8b1a1a" d="M66.25,-206.81C75.13,-165.82 100.49,-75.63 158.5,-29 167.93,-21.42 179.89,-16.78 191.66,-13.96"/>
<polygon fill="#8b1a1a" stroke="#8b1a1a" points="62.87,-205.86 64.31,-216.36 69.73,-207.26 62.87,-205.86"/>
</a>
</g>
</g>
</g>
</svg>
