<?xml version="1.0" encoding="UTF-8" standalone="no"?>
<!DOCTYPE svg PUBLIC "-//W3C//DTD SVG 1.1//EN"
 "http://www.w3.org/Graphics/SVG/1.1/DTD/svg11.dtd">
<!-- Generated by graphviz version 11.0.0 (20240428.1522)
 -->
<!-- Title: Graphical Class Hierarchy Pages: 1 -->
<svg width="580pt" height="781pt"
 viewBox="0.00 0.00 579.75 781.00" xmlns="http://www.w3.org/2000/svg" xmlns:xlink="http://www.w3.org/1999/xlink">
<g id="graph0" class="graph" transform="scale(1 1) rotate(0) translate(4 777)">
<title>Graphical Class Hierarchy</title>
<!-- Node0 -->
<g id="Node000000" class="node">
<title>Node0</title>
<g id="a_Node000000"><a xlink:href="d0/d00/class_c_a_base.html" target="_top" xlink:title=" ">
<polygon fill="white" stroke="#666666" points="52,-254 0,-254 0,-234 52,-234 52,-254"/>
<text text-anchor="middle" x="26" y="-240.5" font-family="Helvetica,sans-Serif" font-size="10.00">CABase</text>
</a>
</g>
</g>
<!-- Node1 -->
<g id="Node000001" class="node">
<title>Node1</title>
<g id="a_Node000001"><a xlink:href="dc/d0b/class_c_a_continuous_base.html" target="_top" xlink:title=" ">
<polygon fill="white" stroke="#666666" points="188.75,-469 88,-469 88,-449 188.75,-449 188.75,-469"/>
<text text-anchor="middle" x="138.38" y="-455.5" font-family="Helvetica,sans-Serif" font-size="10.00">CAContinuousBase</text>
</a>
</g>
</g>
<!-- Node0&#45;&gt;Node1 -->
<g id="edge459_Node000000_Node000001" class="edge">
<title>Node0&#45;&gt;Node1</title>
<g id="a_edge459_Node000000_Node000001"><a xlink:title=" ">
<path fill="none" stroke="#8b1a1a" d="M37.46,-264.38C60.51,-309.27 114.95,-415.32 132.1,-448.73"/>
<polygon fill="#8b1a1a" stroke="#8b1a1a" points="40.7,-263.01 33.01,-255.72 34.47,-266.21 40.7,-263.01"/>
</a>
</g>
</g>
<!-- Node33 -->
<g id="Node000033" class="node">
<title>Node33</title>
<g id="a_Node000033"><a xlink:href="d3/d08/class_c_a_dummy.html" target="_top" xlink:title=" ">
<polygon fill="white" stroke="#666666" points="170,-292 106.75,-292 106.75,-272 170,-272 170,-292"/>
<text text-anchor="middle" x="138.38" y="-278.5" font-family="Helvetica,sans-Serif" font-size="10.00">CADummy</text>
</a>
</g>
</g>
<!-- Node0&#45;&gt;Node33 -->
<g id="edge491_Node000000_Node000033" class="edge">
<title>Node0&#45;&gt;Node33</title>
<g id="a_edge491_Node000000_Node000033"><a xlink:title=" ">
<path fill="none" stroke="#8b1a1a" d="M62.79,-256.32C77.09,-261.24 93.37,-266.85 107.07,-271.57"/>
<polygon fill="#8b1a1a" stroke="#8b1a1a" points="64.35,-253.16 53.75,-253.21 62.07,-259.78 64.35,-253.16"/>
</a>
</g>
</g>
<!-- Node34 -->
<g id="Node000034" class="node">
<title>Node34</title>
<g id="a_Node000034"><a xlink:href="d0/d00/class_c_a_interact.html" target="_top" xlink:title=" ">
<polygon fill="white" stroke="#666666" points="169.25,-254 107.5,-254 107.5,-234 169.25,-234 169.25,-254"/>
<text text-anchor="middle" x="138.38" y="-240.5" font-family="Helvetica,sans-Serif" font-size="10.00">CAInteract</text>
</a>
</g>
</g>
<!-- Node0&#45;&gt;Node34 -->
<g id="edge492_Node000000_Node000034" class="edge">
<title>Node0&#45;&gt;Node34</title>
<g id="a_edge492_Node000000_Node000034"><a xlink:title=" ">
<path fill="none" stroke="#8b1a1a" d="M63.63,-244C77.72,-244 93.64,-244 107.07,-244"/>
<polygon fill="#8b1a1a" stroke="#8b1a1a" points="63.84,-240.5 53.84,-244 63.84,-247.5 63.84,-240.5"/>
</a>
</g>
</g>
<!-- Node35 -->
<g id="Node000035" class="node">
<title>Node35</title>
<g id="a_Node000035"><a xlink:href="df/d0f/class_c_a_interact_loop.html" target="_top" xlink:title=" ">
<polygon fill="white" stroke="#666666" points="179.75,-216 97,-216 97,-196 179.75,-196 179.75,-216"/>
<text text-anchor="middle" x="138.38" y="-202.5" font-family="Helvetica,sans-Serif" font-size="10.00">CAInteractLoop</text>
</a>
</g>
</g>
<!-- Node0&#45;&gt;Node35 -->
<g id="edge493_Node000000_Node000035" class="edge">
<title>Node0&#45;&gt;Node35</title>
<g id="a_edge493_Node000000_Node000035"><a xlink:title=" ">
<path fill="none" stroke="#8b1a1a" d="M62.79,-231.68C77.09,-226.76 93.37,-221.15 107.07,-216.43"/>
<polygon fill="#8b1a1a" stroke="#8b1a1a" points="62.07,-228.22 53.75,-234.79 64.35,-234.84 62.07,-228.22"/>
</a>
</g>
</g>
<!-- Node36 -->
<g id="Node000036" class="node">
<title>Node36</title>
<g id="a_Node000036"><a xlink:href="d4/d03/class_c_a_single_use_base.html" target="_top" xlink:title=" ">
<polygon fill="white" stroke="#666666" points="186.5,-58 90.25,-58 90.25,-38 186.5,-38 186.5,-58"/>
<text text-anchor="middle" x="138.38" y="-44.5" font-family="Helvetica,sans-Serif" font-size="10.00">CASingleUseBase</text>
</a>
</g>
</g>
<!-- Node0&#45;&gt;Node36 -->
<g id="edge494_Node000000_Node000036" class="edge">
<title>Node0&#45;&gt;Node36</title>
<g id="a_edge494_Node000000_Node000036"><a xlink:title=" ">
<path fill="none" stroke="#8b1a1a" d="M38.42,-223.72C61.77,-182.25 114.26,-89.05 131.65,-58.16"/>
<polygon fill="#8b1a1a" stroke="#8b1a1a" points="35.38,-221.99 33.52,-232.42 41.48,-225.42 35.38,-221.99"/>
</a>
</g>
</g>
<!-- Node2 -->
<g id="Node000002" class="node">
<title>Node2</title>
<g id="a_Node000002"><a xlink:href="d8/d0b/class_c_a_continuous_empty.html" target="_top" xlink:title=" ">
<polygon fill="white" stroke="#666666" points="352.88,-773 246.12,-773 246.12,-753 352.88,-753 352.88,-773"/>
<text text-anchor="middle" x="299.5" y="-759.5" font-family="Helvetica,sans-Serif" font-size="10.00">CAContinuousEmpty</text>
</a>
</g>
</g>
<!-- Node1&#45;&gt;Node2 -->
<g id="edge460_Node000001_Node000002" class="edge">
<title>Node1&#45;&gt;Node2</title>
<g id="a_edge460_Node000001_Node000002"><a xlink:title=" ">
<path fill="none" stroke="#8b1a1a" d="M139.11,-480.69C139.71,-533.75 148.92,-671.06 224.75,-744 230.66,-749.68 238.03,-753.73 245.81,-756.59"/>
<polygon fill="#8b1a1a" stroke="#8b1a1a" points="142.61,-480.88 139.11,-470.88 135.61,-480.88 142.61,-480.88"/>
</a>
</g>
</g>
<!-- Node3 -->
<g id="Node000003" class="node">
<title>Node3</title>
<g id="a_Node000003"><a xlink:href="da/d0d/class_c_a_continuous_empty_magazine.html" target="_top" xlink:title=" ">
<polygon fill="white" stroke="#666666" points="373.88,-735 225.12,-735 225.12,-715 373.88,-715 373.88,-735"/>
<text text-anchor="middle" x="299.5" y="-721.5" font-family="Helvetica,sans-Serif" font-size="10.00">CAContinuousEmptyMagazine</text>
</a>
</g>
</g>
<!-- Node1&#45;&gt;Node3 -->
<g id="edge461_Node000001_Node000003" class="edge">
<title>Node1&#45;&gt;Node3</title>
<g id="a_edge461_Node000001_Node000003"><a xlink:title=" ">
<path fill="none" stroke="#8b1a1a" d="M140.28,-480.68C143.51,-528.68 158.15,-644.57 224.75,-706 228.44,-709.41 232.66,-712.22 237.18,-714.54"/>
<polygon fill="#8b1a1a" stroke="#8b1a1a" points="143.78,-480.58 139.74,-470.79 136.79,-480.97 143.78,-480.58"/>
</a>
</g>
</g>
<!-- Node4 -->
<g id="Node000004" class="node">
<title>Node4</title>
<g id="a_Node000004"><a xlink:href="d1/d04/class_c_a_continuous_fill.html" target="_top" xlink:title=" ">
<polygon fill="white" stroke="#666666" points="345,-697 254,-697 254,-677 345,-677 345,-697"/>
<text text-anchor="middle" x="299.5" y="-683.5" font-family="Helvetica,sans-Serif" font-size="10.00">CAContinuousFill</text>
</a>
</g>
</g>
<!-- Node1&#45;&gt;Node4 -->
<g id="edge462_Node000001_Node000004" class="edge">
<title>Node1&#45;&gt;Node4</title>
<g id="a_edge462_Node000001_Node000004"><a xlink:title=" ">
<path fill="none" stroke="#8b1a1a" d="M141.81,-480.49C147.8,-522.94 167.21,-617.78 224.75,-668 232.82,-675.04 243.16,-679.53 253.54,-682.38"/>
<polygon fill="#8b1a1a" stroke="#8b1a1a" points="145.29,-480.08 140.55,-470.6 138.35,-480.97 145.29,-480.08"/>
</a>
</g>
</g>
<!-- Node6 -->
<g id="Node000006" class="node">
<title>Node6</title>
<g id="a_Node000006"><a xlink:href="d6/d08/class_c_a_continuous_fill_brakes.html" target="_top" xlink:title=" ">
<polygon fill="white" stroke="#666666" points="360.38,-659 238.62,-659 238.62,-639 360.38,-639 360.38,-659"/>
<text text-anchor="middle" x="299.5" y="-645.5" font-family="Helvetica,sans-Serif" font-size="10.00">CAContinuousFillBrakes</text>
</a>
</g>
</g>
<!-- Node1&#45;&gt;Node6 -->
<g id="edge464_Node000001_Node000006" class="edge">
<title>Node1&#45;&gt;Node6</title>
<g id="a_edge464_Node000001_Node000006"><a xlink:title=" ">
<path fill="none" stroke="#8b1a1a" d="M143.88,-480.09C152.77,-516.41 176.07,-590.64 224.75,-630 228.97,-633.41 233.72,-636.21 238.74,-638.52"/>
<polygon fill="#8b1a1a" stroke="#8b1a1a" points="147.4,-479.77 141.75,-470.81 140.58,-481.34 147.4,-479.77"/>
</a>
</g>
</g>
<!-- Node7 -->
<g id="Node000007" class="node">
<title>Node7</title>
<g id="a_Node000007"><a xlink:href="de/d0d/class_c_a_continuous_fill_coolant.html" target="_top" xlink:title=" ">
<polygon fill="white" stroke="#666666" points="361.5,-621 237.5,-621 237.5,-601 361.5,-601 361.5,-621"/>
<text text-anchor="middle" x="299.5" y="-607.5" font-family="Helvetica,sans-Serif" font-size="10.00">CAContinuousFillCoolant</text>
</a>
</g>
</g>
<!-- Node1&#45;&gt;Node7 -->
<g id="edge465_Node000001_Node000007" class="edge">
<title>Node1&#45;&gt;Node7</title>
<g id="a_edge465_Node000001_Node000007"><a xlink:title=" ">
<path fill="none" stroke="#8b1a1a" d="M147.04,-479.9C158.98,-509.48 184.89,-563.17 224.75,-592 229.46,-595.41 234.74,-598.21 240.24,-600.5"/>
<polygon fill="#8b1a1a" stroke="#8b1a1a" points="150.31,-478.65 143.44,-470.59 143.78,-481.17 150.31,-478.65"/>
</a>
</g>
</g>
<!-- Node8 -->
<g id="Node000008" class="node">
<title>Node8</title>
<g id="a_Node000008"><a xlink:href="d9/d02/class_c_a_continuous_fill_fuel.html" target="_top" xlink:title=" ">
<polygon fill="white" stroke="#666666" points="354.38,-583 244.62,-583 244.62,-563 354.38,-563 354.38,-583"/>
<text text-anchor="middle" x="299.5" y="-569.5" font-family="Helvetica,sans-Serif" font-size="10.00">CAContinuousFillFuel</text>
</a>
</g>
</g>
<!-- Node1&#45;&gt;Node8 -->
<g id="edge466_Node000001_Node000008" class="edge">
<title>Node1&#45;&gt;Node8</title>
<g id="a_edge466_Node000001_Node000008"><a xlink:title=" ">
<path fill="none" stroke="#8b1a1a" d="M151.98,-478.94C166.77,-500.69 193.31,-534.92 224.75,-554 230.74,-557.64 237.41,-560.58 244.23,-562.96"/>
<polygon fill="#8b1a1a" stroke="#8b1a1a" points="154.95,-477.09 146.53,-470.66 149.1,-480.94 154.95,-477.09"/>
</a>
</g>
</g>
<!-- Node9 -->
<g id="Node000009" class="node">
<title>Node9</title>
<g id="a_Node000009"><a xlink:href="d4/d03/class_c_a_continuous_fill_oil.html" target="_top" xlink:title=" ">
<polygon fill="white" stroke="#666666" points="351,-545 248,-545 248,-525 351,-525 351,-545"/>
<text text-anchor="middle" x="299.5" y="-531.5" font-family="Helvetica,sans-Serif" font-size="10.00">CAContinuousFillOil</text>
</a>
</g>
</g>
<!-- Node1&#45;&gt;Node9 -->
<g id="edge467_Node000001_Node000009" class="edge">
<title>Node1&#45;&gt;Node9</title>
<g id="a_edge467_Node000001_Node000009"><a xlink:title=" ">
<path fill="none" stroke="#8b1a1a" d="M160.72,-476.23C177.31,-488.85 201.36,-505.54 224.75,-516 232.23,-519.35 240.42,-522.19 248.53,-524.57"/>
<polygon fill="#8b1a1a" stroke="#8b1a1a" points="163.11,-473.65 153.07,-470.27 158.81,-479.18 163.11,-473.65"/>
</a>
</g>
</g>
<!-- Node10 -->
<g id="Node000010" class="node">
<title>Node10</title>
<g id="a_Node000010"><a xlink:href="d6/d05/class_c_a_continuous_fish.html" target="_top" xlink:title=" ">
<polygon fill="white" stroke="#666666" points="348,-507 251,-507 251,-487 348,-487 348,-507"/>
<text text-anchor="middle" x="299.5" y="-493.5" font-family="Helvetica,sans-Serif" font-size="10.00">CAContinuousFish</text>
</a>
</g>
</g>
<!-- Node1&#45;&gt;Node10 -->
<g id="edge468_Node000001_Node000010" class="edge">
<title>Node1&#45;&gt;Node10</title>
<g id="a_edge468_Node000001_Node000010"><a xlink:title=" ">
<path fill="none" stroke="#8b1a1a" d="M194.3,-472.12C214.05,-476.83 236.06,-482.09 254.74,-486.55"/>
<polygon fill="#8b1a1a" stroke="#8b1a1a" points="195.29,-468.75 184.75,-469.84 193.66,-475.56 195.29,-468.75"/>
</a>
</g>
</g>
<!-- Node11 -->
<g id="Node000011" class="node">
<title>Node11</title>
<g id="a_Node000011"><a xlink:href="dc/d02/class_c_a_continuous_mine_wood.html" target="_top" xlink:title=" ">
<polygon fill="white" stroke="#666666" points="361.88,-469 237.12,-469 237.12,-449 361.88,-449 361.88,-469"/>
<text text-anchor="middle" x="299.5" y="-455.5" font-family="Helvetica,sans-Serif" font-size="10.00">CAContinuousMineWood</text>
</a>
</g>
</g>
<!-- Node1&#45;&gt;Node11 -->
<g id="edge469_Node000001_Node000011" class="edge">
<title>Node1&#45;&gt;Node11</title>
<g id="a_edge469_Node000001_Node000011"><a xlink:title=" ">
<path fill="none" stroke="#8b1a1a" d="M200.12,-459C212.1,-459 224.69,-459 236.7,-459"/>
<polygon fill="#8b1a1a" stroke="#8b1a1a" points="200.36,-455.5 190.36,-459 200.36,-462.5 200.36,-455.5"/>
</a>
</g>
</g>
<!-- Node13 -->
<g id="Node000013" class="node">
<title>Node13</title>
<g id="a_Node000013"><a xlink:href="da/d04/class_c_a_continuous_quantity.html" target="_top" xlink:title=" ">
<polygon fill="white" stroke="#666666" points="357,-431 242,-431 242,-411 357,-411 357,-431"/>
<text text-anchor="middle" x="299.5" y="-417.5" font-family="Helvetica,sans-Serif" font-size="10.00">CAContinuousQuantity</text>
</a>
</g>
</g>
<!-- Node1&#45;&gt;Node13 -->
<g id="edge471_Node000001_Node000013" class="edge">
<title>Node1&#45;&gt;Node13</title>
<g id="a_edge471_Node000001_Node000013"><a xlink:title=" ">
<path fill="none" stroke="#8b1a1a" d="M194.3,-445.88C214.05,-441.17 236.06,-435.91 254.74,-431.45"/>
<polygon fill="#8b1a1a" stroke="#8b1a1a" points="193.66,-442.44 184.75,-448.16 195.29,-449.25 193.66,-442.44"/>
</a>
</g>
</g>
<!-- Node18 -->
<g id="Node000018" class="node">
<title>Node18</title>
<g id="a_Node000018"><a xlink:href="d4/d06/class_c_a_continuous_quantity_liquid_transfer.html" target="_top" xlink:title=" ">
<polygon fill="white" stroke="#666666" points="369.75,-393 229.25,-393 229.25,-361 369.75,-361 369.75,-393"/>
<text text-anchor="start" x="237.25" y="-379.5" font-family="Helvetica,sans-Serif" font-size="10.00">CAContinuousQuantityLiquid</text>
<text text-anchor="middle" x="299.5" y="-367.5" font-family="Helvetica,sans-Serif" font-size="10.00">Transfer</text>
</a>
</g>
</g>
<!-- Node1&#45;&gt;Node18 -->
<g id="edge476_Node000001_Node000018" class="edge">
<title>Node1&#45;&gt;Node18</title>
<g id="a_edge476_Node000001_Node000018"><a xlink:title=" ">
<path fill="none" stroke="#8b1a1a" d="M161.54,-441.84C178.23,-429.52 202.03,-413.19 224.75,-402 231.06,-398.89 237.84,-396.02 244.66,-393.41"/>
<polygon fill="#8b1a1a" stroke="#8b1a1a" points="159.71,-438.84 153.81,-447.65 163.91,-444.44 159.71,-438.84"/>
</a>
</g>
</g>
<!-- Node19 -->
<g id="Node000019" class="node">
<title>Node19</title>
<g id="a_Node000019"><a xlink:href="dd/d0b/class_c_a_continuous_quantity_repeat.html" target="_top" xlink:title=" ">
<polygon fill="white" stroke="#666666" points="372.38,-343 226.62,-343 226.62,-323 372.38,-323 372.38,-343"/>
<text text-anchor="middle" x="299.5" y="-329.5" font-family="Helvetica,sans-Serif" font-size="10.00">CAContinuousQuantityRepeat</text>
</a>
</g>
</g>
<!-- Node1&#45;&gt;Node19 -->
<g id="edge477_Node000001_Node000019" class="edge">
<title>Node1&#45;&gt;Node19</title>
<g id="a_edge477_Node000001_Node000019"><a xlink:title=" ">
<path fill="none" stroke="#8b1a1a" d="M150.12,-438.68C164.06,-414.33 190.67,-374.07 224.75,-352 230.08,-348.55 236,-345.73 242.11,-343.41"/>
<polygon fill="#8b1a1a" stroke="#8b1a1a" points="147.13,-436.85 145.36,-447.3 153.26,-440.24 147.13,-436.85"/>
</a>
</g>
</g>
<!-- Node24 -->
<g id="Node000024" class="node">
<title>Node24</title>
<g id="a_Node000024"><a xlink:href="dc/d0c/class_c_a_continuous_repeat.html" target="_top" xlink:title=" ">
<polygon fill="white" stroke="#666666" points="354,-248 245,-248 245,-228 354,-228 354,-248"/>
<text text-anchor="middle" x="299.5" y="-234.5" font-family="Helvetica,sans-Serif" font-size="10.00">CAContinuousRepeat</text>
</a>
</g>
</g>
<!-- Node1&#45;&gt;Node24 -->
<g id="edge482_Node000001_Node000024" class="edge">
<title>Node1&#45;&gt;Node24</title>
<g id="a_edge482_Node000001_Node000024"><a xlink:title=" ">
<path fill="none" stroke="#8b1a1a" d="M149.46,-438.5C164.16,-409.5 193.17,-355.43 224.75,-314 244.25,-288.41 271.56,-262.29 286.88,-248.33"/>
<polygon fill="#8b1a1a" stroke="#8b1a1a" points="146.41,-436.77 145.07,-447.28 152.67,-439.9 146.41,-436.77"/>
</a>
</g>
</g>
<!-- Node29 -->
<g id="Node000029" class="node">
<title>Node29</title>
<g id="a_Node000029"><a xlink:href="d1/d02/class_c_a_continuous_time.html" target="_top" xlink:title=" ">
<polygon fill="white" stroke="#666666" points="349.12,-210 249.88,-210 249.88,-190 349.12,-190 349.12,-210"/>
<text text-anchor="middle" x="299.5" y="-196.5" font-family="Helvetica,sans-Serif" font-size="10.00">CAContinuousTime</text>
</a>
</g>
</g>
<!-- Node1&#45;&gt;Node29 -->
<g id="edge487_Node000001_Node000029" class="edge">
<title>Node1&#45;&gt;Node29</title>
<g id="a_edge487_Node000001_Node000029"><a xlink:title=" ">
<path fill="none" stroke="#8b1a1a" d="M145.74,-437.57C162.53,-381.62 207.87,-234.43 224.75,-219 231.68,-212.67 240.44,-208.38 249.48,-205.5"/>
<polygon fill="#8b1a1a" stroke="#8b1a1a" points="142.39,-436.57 142.88,-447.15 149.09,-438.57 142.39,-436.57"/>
</a>
</g>
</g>
<!-- Node31 -->
<g id="Node000031" class="node">
<title>Node31</title>
<g id="a_Node000031"><a xlink:href="d2/d06/class_c_a_continuous_time_cooking.html" target="_top" xlink:title=" ">
<polygon fill="white" stroke="#666666" points="366.75,-172 232.25,-172 232.25,-152 366.75,-152 366.75,-172"/>
<text text-anchor="middle" x="299.5" y="-158.5" font-family="Helvetica,sans-Serif" font-size="10.00">CAContinuousTimeCooking</text>
</a>
</g>
</g>
<!-- Node1&#45;&gt;Node31 -->
<g id="edge489_Node000001_Node000031" class="edge">
<title>Node1&#45;&gt;Node31</title>
<g id="a_edge489_Node000001_Node000031"><a xlink:title=" ">
<path fill="none" stroke="#8b1a1a" d="M146.09,-437.77C155.67,-407.46 173.74,-350.03 188.75,-301 205.05,-247.76 184.61,-219.59 224.75,-181 228.28,-177.61 232.32,-174.8 236.67,-172.48"/>
<polygon fill="#8b1a1a" stroke="#8b1a1a" points="142.78,-436.63 143.11,-447.22 149.46,-438.74 142.78,-436.63"/>
</a>
</g>
</g>
<!-- Node32 -->
<g id="Node000032" class="node">
<title>Node32</title>
<g id="a_Node000032"><a xlink:href="d4/d06/class_c_a_continuous_transfer_quantity.html" target="_top" xlink:title=" ">
<polygon fill="white" stroke="#666666" points="374.25,-134 224.75,-134 224.75,-114 374.25,-114 374.25,-134"/>
<text text-anchor="middle" x="299.5" y="-120.5" font-family="Helvetica,sans-Serif" font-size="10.00">CAContinuousTransferQuantity</text>
</a>
</g>
</g>
<!-- Node1&#45;&gt;Node32 -->
<g id="edge490_Node000001_Node000032" class="edge">
<title>Node1&#45;&gt;Node32</title>
<g id="a_edge490_Node000001_Node000032"><a xlink:title=" ">
<path fill="none" stroke="#8b1a1a" d="M146.55,-437.9C156.67,-407.75 175.4,-350.51 188.75,-301 207.51,-231.46 174.54,-194.64 224.75,-143 228.07,-139.59 231.91,-136.76 236.07,-134.42"/>
<polygon fill="#8b1a1a" stroke="#8b1a1a" points="143.26,-436.7 143.38,-447.3 149.89,-438.94 143.26,-436.7"/>
</a>
</g>
</g>
<!-- Node5 -->
<g id="Node000005" class="node">
<title>Node5</title>
<g id="a_Node000005"><a xlink:href="d2/d04/class_c_a_continuous_fill_power_generator.html" target="_top" xlink:title=" ">
<polygon fill="white" stroke="#666666" points="571.38,-697 410.62,-697 410.62,-677 571.38,-677 571.38,-697"/>
<text text-anchor="middle" x="491" y="-683.5" font-family="Helvetica,sans-Serif" font-size="10.00">CAContinuousFillPowerGenerator</text>
</a>
</g>
</g>
<!-- Node4&#45;&gt;Node5 -->
<g id="edge463_Node000004_Node000005" class="edge">
<title>Node4&#45;&gt;Node5</title>
<g id="a_edge463_Node000004_Node000005"><a xlink:title=" ">
<path fill="none" stroke="#8b1a1a" d="M356.68,-687C373.46,-687 392.19,-687 410.18,-687"/>
<polygon fill="#8b1a1a" stroke="#8b1a1a" points="356.92,-683.5 346.92,-687 356.92,-690.5 356.92,-683.5"/>
</a>
</g>
</g>
<!-- Node12 -->
<g id="Node000012" class="node">
<title>Node12</title>
<g id="a_Node000012"><a xlink:href="d0/d03/class_c_a_continuous_mine_rock.html" target="_top" xlink:title=" ">
<polygon fill="white" stroke="#666666" points="551.88,-602 430.12,-602 430.12,-582 551.88,-582 551.88,-602"/>
<text text-anchor="middle" x="491" y="-588.5" font-family="Helvetica,sans-Serif" font-size="10.00">CAContinuousMineRock</text>
</a>
</g>
</g>
<!-- Node11&#45;&gt;Node12 -->
<g id="edge470_Node000011_Node000012" class="edge">
<title>Node11&#45;&gt;Node12</title>
<g id="a_edge470_Node000011_Node000012"><a xlink:title=" ">
<path fill="none" stroke="#8b1a1a" d="M370.89,-475.24C372.05,-476.11 373.17,-477.03 374.25,-478 407.89,-508.12 376.34,-543.19 410.25,-573 415.92,-577.98 422.65,-581.71 429.78,-584.5"/>
<polygon fill="#8b1a1a" stroke="#8b1a1a" points="373,-472.43 362.65,-470.19 369.34,-478.4 373,-472.43"/>
</a>
</g>
</g>
<!-- Node14 -->
<g id="Node000014" class="node">
<title>Node14</title>
<g id="a_Node000014"><a xlink:href="da/d05/class_c_a_continuous_disinfect_plant.html" target="_top" xlink:title=" ">
<polygon fill="white" stroke="#666666" points="560.12,-564 421.88,-564 421.88,-544 560.12,-544 560.12,-564"/>
<text text-anchor="middle" x="491" y="-550.5" font-family="Helvetica,sans-Serif" font-size="10.00">CAContinuousDisinfectPlant</text>
</a>
</g>
</g>
<!-- Node13&#45;&gt;Node14 -->
<g id="edge472_Node000013_Node000014" class="edge">
<title>Node13&#45;&gt;Node14</title>
<g id="a_edge472_Node000013_Node000014"><a xlink:title=" ">
<path fill="none" stroke="#8b1a1a" d="M367.32,-434.77C369.77,-436.33 372.1,-438.07 374.25,-440 407.89,-470.12 376.34,-505.19 410.25,-535 414.1,-538.38 418.44,-541.19 423.06,-543.52"/>
<polygon fill="#8b1a1a" stroke="#8b1a1a" points="369.17,-431.78 358.68,-430.24 365.92,-437.98 369.17,-431.78"/>
</a>
</g>
</g>
<!-- Node15 -->
<g id="Node000015" class="node">
<title>Node15</title>
<g id="a_Node000015"><a xlink:href="d2/d0c/class_c_a_continuous_fertilize_garden_slot.html" target="_top" xlink:title=" ">
<polygon fill="white" stroke="#666666" points="571.75,-526 410.25,-526 410.25,-506 571.75,-506 571.75,-526"/>
<text text-anchor="middle" x="491" y="-512.5" font-family="Helvetica,sans-Serif" font-size="10.00">CAContinuousFertilizeGardenSlot</text>
</a>
</g>
</g>
<!-- Node13&#45;&gt;Node15 -->
<g id="edge473_Node000013_Node000015" class="edge">
<title>Node13&#45;&gt;Node15</title>
<g id="a_edge473_Node000013_Node000015"><a xlink:title=" ">
<path fill="none" stroke="#8b1a1a" d="M367.43,-435.65C369.8,-436.98 372.09,-438.42 374.25,-440 398.46,-457.65 385.88,-479.57 410.25,-497 415.11,-500.48 420.53,-503.32 426.18,-505.65"/>
<polygon fill="#8b1a1a" stroke="#8b1a1a" points="369.19,-432.61 358.65,-431.49 366.19,-438.94 369.19,-432.61"/>
</a>
</g>
</g>
<!-- Node16 -->
<g id="Node000016" class="node">
<title>Node16</title>
<g id="a_Node000016"><a xlink:href="d3/d06/class_c_a_continuous_water_plant.html" target="_top" xlink:title=" ">
<polygon fill="white" stroke="#666666" points="554.5,-488 427.5,-488 427.5,-468 554.5,-468 554.5,-488"/>
<text text-anchor="middle" x="491" y="-474.5" font-family="Helvetica,sans-Serif" font-size="10.00">CAContinuousWaterPlant</text>
</a>
</g>
</g>
<!-- Node13&#45;&gt;Node16 -->
<g id="edge474_Node000013_Node000016" class="edge">
<title>Node13&#45;&gt;Node16</title>
<g id="a_edge474_Node000013_Node000016"><a xlink:title=" ">
<path fill="none" stroke="#8b1a1a" d="M358.73,-434.63C364.03,-436.28 369.27,-438.08 374.25,-440 391.12,-446.52 393.32,-452.63 410.25,-459 419.04,-462.31 428.6,-465.17 437.95,-467.6"/>
<polygon fill="#8b1a1a" stroke="#8b1a1a" points="359.87,-431.32 349.29,-431.87 357.9,-438.04 359.87,-431.32"/>
</a>
</g>
</g>
<!-- Node17 -->
<g id="Node000017" class="node">
<title>Node17</title>
<g id="a_Node000017"><a xlink:href="df/d08/class_c_a_continuous_water_slot.html" target="_top" xlink:title=" ">
<polygon fill="white" stroke="#666666" points="551.88,-450 430.12,-450 430.12,-430 551.88,-430 551.88,-450"/>
<text text-anchor="middle" x="491" y="-436.5" font-family="Helvetica,sans-Serif" font-size="10.00">CAContinuousWaterSlot</text>
</a>
</g>
</g>
<!-- Node13&#45;&gt;Node17 -->
<g id="edge475_Node000013_Node000017" class="edge">
<title>Node13&#45;&gt;Node17</title>
<g id="a_edge475_Node000013_Node000017"><a xlink:title=" ">
<path fill="none" stroke="#8b1a1a" d="M368.6,-427.83C388.63,-429.84 410.4,-432.02 429.89,-433.97"/>
<polygon fill="#8b1a1a" stroke="#8b1a1a" points="369.16,-424.37 358.86,-426.85 368.46,-431.33 369.16,-424.37"/>
</a>
</g>
</g>
<!-- Node20 -->
<g id="Node000020" class="node">
<title>Node20</title>
<g id="a_Node000020"><a xlink:href="df/d02/class_c_a_continuous_quantity_blood_transfer.html" target="_top" xlink:title=" ">
<polygon fill="white" stroke="#666666" points="560.88,-412 421.12,-412 421.12,-380 560.88,-380 560.88,-412"/>
<text text-anchor="start" x="429.12" y="-398.5" font-family="Helvetica,sans-Serif" font-size="10.00">CAContinuousQuantityBlood</text>
<text text-anchor="middle" x="491" y="-386.5" font-family="Helvetica,sans-Serif" font-size="10.00">Transfer</text>
</a>
</g>
</g>
<!-- Node19&#45;&gt;Node20 -->
<g id="edge478_Node000019_Node000020" class="edge">
<title>Node19&#45;&gt;Node20</title>
<g id="a_edge478_Node000019_Node000020"><a xlink:title=" ">
<path fill="none" stroke="#8b1a1a" d="M358.73,-346.63C364.03,-348.28 369.27,-350.08 374.25,-352 391.12,-358.52 393.55,-364.04 410.25,-371 417.62,-374.07 425.5,-376.97 433.34,-379.64"/>
<polygon fill="#8b1a1a" stroke="#8b1a1a" points="359.87,-343.32 349.29,-343.87 357.9,-350.04 359.87,-343.32"/>
</a>
</g>
</g>
<!-- Node21 -->
<g id="Node000021" class="node">
<title>Node21</title>
<g id="a_Node000021"><a xlink:href="d2/d08/class_c_a_continuous_quantity_edible.html" target="_top" xlink:title=" ">
<polygon fill="white" stroke="#666666" points="562,-362 420,-362 420,-342 562,-342 562,-362"/>
<text text-anchor="middle" x="491" y="-348.5" font-family="Helvetica,sans-Serif" font-size="10.00">CAContinuousQuantityEdible</text>
</a>
</g>
</g>
<!-- Node19&#45;&gt;Node21 -->
<g id="edge479_Node000019_Node000021" class="edge">
<title>Node19&#45;&gt;Node21</title>
<g id="a_edge479_Node000019_Node000021"><a xlink:title=" ">
<path fill="none" stroke="#8b1a1a" d="M383.98,-341.37C395.86,-342.56 407.98,-343.78 419.58,-344.94"/>
<polygon fill="#8b1a1a" stroke="#8b1a1a" points="384.49,-337.9 374.19,-340.39 383.79,-344.87 384.49,-337.9"/>
</a>
</g>
</g>
<!-- Node22 -->
<g id="Node000022" class="node">
<title>Node22</title>
<g id="a_Node000022"><a xlink:href="d0/d01/class_c_a_continuous_quantity_extinguish.html" target="_top" xlink:title=" ">
<polygon fill="white" stroke="#666666" points="571.38,-324 410.62,-324 410.62,-304 571.38,-304 571.38,-324"/>
<text text-anchor="middle" x="491" y="-310.5" font-family="Helvetica,sans-Serif" font-size="10.00">CAContinuousQuantityExtinguish</text>
</a>
</g>
</g>
<!-- Node19&#45;&gt;Node22 -->
<g id="edge480_Node000019_Node000022" class="edge">
<title>Node19&#45;&gt;Node22</title>
<g id="a_edge480_Node000019_Node000022"><a xlink:title=" ">
<path fill="none" stroke="#8b1a1a" d="M384.09,-324.62C392.84,-323.74 401.72,-322.85 410.43,-321.98"/>
<polygon fill="#8b1a1a" stroke="#8b1a1a" points="383.79,-321.13 374.19,-325.61 384.49,-328.1 383.79,-321.13"/>
</a>
</g>
</g>
<!-- Node23 -->
<g id="Node000023" class="node">
<title>Node23</title>
<g id="a_Node000023"><a xlink:href="d6/d04/class_c_a_continuous_wring_clothes.html" target="_top" xlink:title=" ">
<polygon fill="white" stroke="#666666" points="559.38,-286 422.62,-286 422.62,-266 559.38,-266 559.38,-286"/>
<text text-anchor="middle" x="491" y="-272.5" font-family="Helvetica,sans-Serif" font-size="10.00">CAContinuousWringClothes</text>
</a>
</g>
</g>
<!-- Node19&#45;&gt;Node23 -->
<g id="edge481_Node000019_Node000023" class="edge">
<title>Node19&#45;&gt;Node23</title>
<g id="a_edge481_Node000019_Node000023"><a xlink:title=" ">
<path fill="none" stroke="#8b1a1a" d="M338.92,-318.65C359.85,-311.09 386.29,-301.98 410.25,-295 420.63,-291.97 431.88,-289.07 442.57,-286.48"/>
<polygon fill="#8b1a1a" stroke="#8b1a1a" points="337.84,-315.31 329.64,-322.03 340.24,-321.89 337.84,-315.31"/>
</a>
</g>
</g>
<!-- Node25 -->
<g id="Node000025" class="node">
<title>Node25</title>
<g id="a_Node000025"><a xlink:href="db/d03/class_c_a_continuous_load_magazine.html" target="_top" xlink:title=" ">
<polygon fill="white" stroke="#666666" points="561.62,-248 420.38,-248 420.38,-228 561.62,-228 561.62,-248"/>
<text text-anchor="middle" x="491" y="-234.5" font-family="Helvetica,sans-Serif" font-size="10.00">CAContinuousLoadMagazine</text>
</a>
</g>
</g>
<!-- Node24&#45;&gt;Node25 -->
<g id="edge483_Node000024_Node000025" class="edge">
<title>Node24&#45;&gt;Node25</title>
<g id="a_edge483_Node000024_Node000025"><a xlink:title=" ">
<path fill="none" stroke="#8b1a1a" d="M365.6,-238C383.19,-238 402.28,-238 420.11,-238"/>
<polygon fill="#8b1a1a" stroke="#8b1a1a" points="365.81,-234.5 355.81,-238 365.81,-241.5 365.81,-234.5"/>
</a>
</g>
</g>
<!-- Node26 -->
<g id="Node000026" class="node">
<title>Node26</title>
<g id="a_Node000026"><a xlink:href="db/d01/class_c_a_continuous_repeat_fishing.html" target="_top" xlink:title=" ">
<polygon fill="white" stroke="#666666" points="561.25,-210 420.75,-210 420.75,-190 561.25,-190 561.25,-210"/>
<text text-anchor="middle" x="491" y="-196.5" font-family="Helvetica,sans-Serif" font-size="10.00">CAContinuousRepeatFishing</text>
</a>
</g>
</g>
<!-- Node24&#45;&gt;Node26 -->
<g id="edge484_Node000024_Node000026" class="edge">
<title>Node24&#45;&gt;Node26</title>
<g id="a_edge484_Node000024_Node000026"><a xlink:title=" ">
<path fill="none" stroke="#8b1a1a" d="M363.94,-225.28C387.97,-220.46 415.02,-215.04 437.89,-210.45"/>
<polygon fill="#8b1a1a" stroke="#8b1a1a" points="363.38,-221.82 354.27,-227.22 364.76,-228.68 363.38,-221.82"/>
</a>
</g>
</g>
<!-- Node27 -->
<g id="Node000027" class="node">
<title>Node27</title>
<g id="a_Node000027"><a xlink:href="d7/d0d/class_c_a_continuous_repeat_push_car.html" target="_top" xlink:title=" ">
<polygon fill="white" stroke="#666666" points="564.25,-172 417.75,-172 417.75,-152 564.25,-152 564.25,-172"/>
<text text-anchor="middle" x="491" y="-158.5" font-family="Helvetica,sans-Serif" font-size="10.00">CAContinuousRepeatPushCar</text>
</a>
</g>
</g>
<!-- Node24&#45;&gt;Node27 -->
<g id="edge485_Node000024_Node000027" class="edge">
<title>Node24&#45;&gt;Node27</title>
<g id="a_edge485_Node000024_Node000027"><a xlink:title=" ">
<path fill="none" stroke="#8b1a1a" d="M364.89,-223.8C368.13,-222.35 371.27,-220.76 374.25,-219 394.3,-207.19 390.1,-192.62 410.25,-181 416.17,-177.59 422.67,-174.79 429.33,-172.49"/>
<polygon fill="#8b1a1a" stroke="#8b1a1a" points="363.74,-220.49 355.71,-227.4 366.3,-227.01 363.74,-220.49"/>
</a>
</g>
</g>
<!-- Node28 -->
<g id="Node000028" class="node">
<title>Node28</title>
<g id="a_Node000028"><a xlink:href="de/d0e/class_c_a_continuous_repeat_start_engine.html" target="_top" xlink:title=" ">
<polygon fill="white" stroke="#666666" points="571,-134 411,-134 411,-114 571,-114 571,-134"/>
<text text-anchor="middle" x="491" y="-120.5" font-family="Helvetica,sans-Serif" font-size="10.00">CAContinuousRepeatStartEngine</text>
</a>
</g>
</g>
<!-- Node24&#45;&gt;Node28 -->
<g id="edge486_Node000024_Node000028" class="edge">
<title>Node24&#45;&gt;Node28</title>
<g id="a_edge486_Node000024_Node000028"><a xlink:title=" ">
<path fill="none" stroke="#8b1a1a" d="M364.83,-225.34C368.17,-223.5 371.34,-221.4 374.25,-219 403.07,-195.2 381.21,-166.54 410.25,-143 414.45,-139.59 419.16,-136.78 424.14,-134.46"/>
<polygon fill="#8b1a1a" stroke="#8b1a1a" points="363.4,-222.14 355.75,-229.48 366.3,-228.51 363.4,-222.14"/>
</a>
</g>
</g>
<!-- Node30 -->
<g id="Node000030" class="node">
<title>Node30</title>
<g id="a_Node000030"><a xlink:href="d0/d09/class_c_a_continuous_craft.html" target="_top" xlink:title=" ">
<polygon fill="white" stroke="#666666" points="540.25,-96 441.75,-96 441.75,-76 540.25,-76 540.25,-96"/>
<text text-anchor="middle" x="491" y="-82.5" font-family="Helvetica,sans-Serif" font-size="10.00">CAContinuousCraft</text>
</a>
</g>
</g>
<!-- Node29&#45;&gt;Node30 -->
<g id="edge488_Node000029_Node000030" class="edge">
<title>Node29&#45;&gt;Node30</title>
<g id="a_edge488_Node000029_Node000030"><a xlink:title=" ">
<path fill="none" stroke="#8b1a1a" d="M360.13,-189.71C365.21,-187.36 370.01,-184.5 374.25,-181 403.07,-157.2 381.21,-128.54 410.25,-105 419.1,-97.83 430.2,-93.29 441.29,-90.43"/>
<polygon fill="#8b1a1a" stroke="#8b1a1a" points="358.91,-186.42 350.83,-193.28 361.42,-192.96 358.91,-186.42"/>
</a>
</g>
</g>
<!-- Node37 -->
<g id="Node000037" class="node">
<title>Node37</title>
<g id="a_Node000037"><a xlink:href="df/d01/class_c_a_single_use.html" target="_top" xlink:title=" ">
<polygon fill="white" stroke="#666666" points="336.38,-58 262.62,-58 262.62,-38 336.38,-38 336.38,-58"/>
<text text-anchor="middle" x="299.5" y="-44.5" font-family="Helvetica,sans-Serif" font-size="10.00">CASingleUse</text>
</a>
</g>
</g>
<!-- Node36&#45;&gt;Node37 -->
<g id="edge495_Node000036_Node000037" class="edge">
<title>Node36&#45;&gt;Node37</title>
<g id="a_edge495_Node000036_Node000037"><a xlink:title=" ">
<path fill="none" stroke="#8b1a1a" d="M198.03,-48C219.55,-48 243.26,-48 262.24,-48"/>
<polygon fill="#8b1a1a" stroke="#8b1a1a" points="198.2,-44.5 188.2,-48 198.2,-51.5 198.2,-44.5"/>
</a>
</g>
</g>
<!-- Node39 -->
<g id="Node000039" class="node">
<title>Node39</title>
<g id="a_Node000039"><a xlink:href="de/d0a/class_c_a_single_use_quantity.html" target="_top" xlink:title=" ">
<polygon fill="white" stroke="#666666" points="354.75,-20 244.25,-20 244.25,0 354.75,0 354.75,-20"/>
<text text-anchor="middle" x="299.5" y="-6.5" font-family="Helvetica,sans-Serif" font-size="10.00">CASingleUseQuantity</text>
</a>
</g>
</g>
<!-- Node36&#45;&gt;Node39 -->
<g id="edge497_Node000036_Node000039" class="edge">
<title>Node36&#45;&gt;Node39</title>
<g id="a_edge497_Node000036_Node000039"><a xlink:title=" ">
<path fill="none" stroke="#8b1a1a" d="M194.3,-34.88C214.05,-30.17 236.06,-24.91 254.74,-20.45"/>
<polygon fill="#8b1a1a" stroke="#8b1a1a" points="193.66,-31.44 184.75,-37.16 195.29,-38.25 193.66,-31.44"/>
</a>
</g>
</g>
<!-- Node38 -->
<g id="Node000038" class="node">
<title>Node38</title>
<g id="a_Node000038"><a xlink:href="d9/d01/class_c_a_single_use_turn_on_plugged.html" target="_top" xlink:title=" ">
<polygon fill="white" stroke="#666666" points="561.25,-58 420.75,-58 420.75,-38 561.25,-38 561.25,-58"/>
<text text-anchor="middle" x="491" y="-44.5" font-family="Helvetica,sans-Serif" font-size="10.00">CASingleUseTurnOnPlugged</text>
</a>
</g>
</g>
<!-- Node37&#45;&gt;Node38 -->
<g id="edge496_Node000037_Node000038" class="edge">
<title>Node37&#45;&gt;Node38</title>
<g id="a_edge496_Node000037_Node000038"><a xlink:title=" ">
<path fill="none" stroke="#8b1a1a" d="M347.91,-48C369.78,-48 396.19,-48 420.27,-48"/>
<polygon fill="#8b1a1a" stroke="#8b1a1a" points="348.1,-44.5 338.1,-48 348.1,-51.5 348.1,-44.5"/>
</a>
</g>
</g>
<!-- Node40 -->
<g id="Node000040" class="node">
<title>Node40</title>
<g id="a_Node000040"><a xlink:href="da/d00/class_c_a_single_use_quantity_edible.html" target="_top" xlink:title=" ">
<polygon fill="white" stroke="#666666" points="559.75,-20 422.25,-20 422.25,0 559.75,0 559.75,-20"/>
<text text-anchor="middle" x="491" y="-6.5" font-family="Helvetica,sans-Serif" font-size="10.00">CASingleUseQuantityEdible</text>
</a>
</g>
</g>
<!-- Node39&#45;&gt;Node40 -->
<g id="edge498_Node000039_Node000040" class="edge">
<title>Node39&#45;&gt;Node40</title>
<g id="a_edge498_Node000039_Node000040"><a xlink:title=" ">
<path fill="none" stroke="#8b1a1a" d="M366.34,-10C384.34,-10 403.89,-10 422.01,-10"/>
<polygon fill="#8b1a1a" stroke="#8b1a1a" points="366.57,-6.5 356.57,-10 366.57,-13.5 366.57,-6.5"/>
</a>
</g>
</g>
</g>
</svg>
