<?xml version="1.0" encoding="UTF-8" standalone="no"?>
<!DOCTYPE svg PUBLIC "-//W3C//DTD SVG 1.1//EN"
 "http://www.w3.org/Graphics/SVG/1.1/DTD/svg11.dtd">
<!-- Generated by graphviz version 11.0.0 (20240428.1522)
 -->
<!-- Title: Graphical Class Hierarchy Pages: 1 -->
<svg width="325pt" height="66pt"
 viewBox="0.00 0.00 325.00 66.00" xmlns="http://www.w3.org/2000/svg" xmlns:xlink="http://www.w3.org/1999/xlink">
<g id="graph0" class="graph" transform="scale(1 1) rotate(0) translate(4 62)">
<title>Graphical Class Hierarchy</title>
<!-- Node0 -->
<g id="Node000000" class="node">
<title>Node0</title>
<g id="a_Node000000"><a xlink:href="d0/d0f/class_day_z_creature_a_i_input_controller.html" target="_top" xlink:title=" ">
<polygon fill="white" stroke="#666666" points="146.5,-39 0,-39 0,-19 146.5,-19 146.5,-39"/>
<text text-anchor="middle" x="73.25" y="-25.5" font-family="Helvetica,sans-Serif" font-size="10.00">DayZCreatureAIInputController</text>
</a>
</g>
</g>
<!-- Node1 -->
<g id="Node000001" class="node">
<title>Node1</title>
<g id="a_Node000001"><a xlink:href="d1/d01/class_day_z_animal_input_controller.html" target="_top" xlink:title=" ">
<polygon fill="white" stroke="#666666" points="315.12,-58 184.38,-58 184.38,-38 315.12,-38 315.12,-58"/>
<text text-anchor="middle" x="249.75" y="-44.5" font-family="Helvetica,sans-Serif" font-size="10.00">DayZAnimalInputController</text>
</a>
</g>
</g>
<!-- Node0&#45;&gt;Node1 -->
<g id="edge639_Node000000_Node000001" class="edge">
<title>Node0&#45;&gt;Node1</title>
<g id="a_edge639_Node000000_Node000001"><a xlink:title=" ">
<path fill="none" stroke="#8b1a1a" d="M158.27,-38.15C166.89,-39.09 175.55,-40.03 183.92,-40.94"/>
<polygon fill="#8b1a1a" stroke="#8b1a1a" points="158.81,-34.69 148.49,-37.08 158.06,-41.65 158.81,-34.69"/>
</a>
</g>
</g>
<!-- Node2 -->
<g id="Node000002" class="node">
<title>Node2</title>
<g id="a_Node000002"><a xlink:href="d8/d07/class_day_z_infected_input_controller.html" target="_top" xlink:title=" ">
<polygon fill="white" stroke="#666666" points="317,-20 182.5,-20 182.5,0 317,0 317,-20"/>
<text text-anchor="middle" x="249.75" y="-6.5" font-family="Helvetica,sans-Serif" font-size="10.00">DayZInfectedInputController</text>
</a>
</g>
</g>
<!-- Node0&#45;&gt;Node2 -->
<g id="edge640_Node000000_Node000002" class="edge">
<title>Node0&#45;&gt;Node2</title>
<g id="a_edge640_Node000000_Node000002"><a xlink:title=" ">
<path fill="none" stroke="#8b1a1a" d="M158.3,-19.85C166.34,-18.97 174.42,-18.09 182.26,-17.24"/>
<polygon fill="#8b1a1a" stroke="#8b1a1a" points="158.06,-16.35 148.49,-20.92 158.81,-23.31 158.06,-16.35"/>
</a>
</g>
</g>
</g>
</svg>
