<?xml version="1.0" encoding="UTF-8" standalone="no"?>
<!DOCTYPE svg PUBLIC "-//W3C//DTD SVG 1.1//EN"
 "http://www.w3.org/Graphics/SVG/1.1/DTD/svg11.dtd">
<!-- Generated by graphviz version 11.0.0 (20240428.1522)
 -->
<!-- Title: Graphical Class Hierarchy Pages: 1 -->
<svg width="349pt" height="180pt"
 viewBox="0.00 0.00 348.50 180.00" xmlns="http://www.w3.org/2000/svg" xmlns:xlink="http://www.w3.org/1999/xlink">
<g id="graph0" class="graph" transform="scale(1 1) rotate(0) translate(4 176)">
<title>Graphical Class Hierarchy</title>
<!-- Node0 -->
<g id="Node000000" class="node">
<title>Node0</title>
<g id="a_Node000000"><a xlink:href="d5/d08/class_layout_holder.html" target="_top" xlink:title=" ">
<polygon fill="white" stroke="#666666" points="73,-96 0,-96 0,-76 73,-76 73,-96"/>
<text text-anchor="middle" x="36.5" y="-82.5" font-family="Helvetica,sans-Serif" font-size="10.00">LayoutHolder</text>
</a>
</g>
</g>
<!-- Node1 -->
<g id="Node000001" class="node">
<title>Node1</title>
<g id="a_Node000001"><a xlink:href="db/d0f/class_cargo_container_row.html" target="_top" xlink:title=" ">
<polygon fill="white" stroke="#666666" points="210.5,-172 109,-172 109,-152 210.5,-152 210.5,-172"/>
<text text-anchor="middle" x="159.75" y="-158.5" font-family="Helvetica,sans-Serif" font-size="10.00">CargoContainerRow</text>
</a>
</g>
</g>
<!-- Node0&#45;&gt;Node1 -->
<g id="edge1105_Node000000_Node000001" class="edge">
<title>Node0&#45;&gt;Node1</title>
<g id="a_edge1105_Node000000_Node000001"><a xlink:title=" ">
<path fill="none" stroke="#8b1a1a" d="M56.51,-103.86C70.28,-116.09 89.78,-132.02 109,-143 114.62,-146.21 120.89,-149.08 127.03,-151.57"/>
<polygon fill="#8b1a1a" stroke="#8b1a1a" points="59.23,-101.6 49.47,-97.46 54.52,-106.78 59.23,-101.6"/>
</a>
</g>
</g>
<!-- Node2 -->
<g id="Node000002" class="node">
<title>Node2</title>
<g id="a_Node000002"><a xlink:href="d8/d09/class_header.html" target="_top" xlink:title=" ">
<polygon fill="white" stroke="#666666" points="183.12,-134 136.38,-134 136.38,-114 183.12,-114 183.12,-134"/>
<text text-anchor="middle" x="159.75" y="-120.5" font-family="Helvetica,sans-Serif" font-size="10.00">Header</text>
</a>
</g>
</g>
<!-- Node0&#45;&gt;Node2 -->
<g id="edge1106_Node000000_Node000002" class="edge">
<title>Node0&#45;&gt;Node2</title>
<g id="a_edge1106_Node000000_Node000002"><a xlink:title=" ">
<path fill="none" stroke="#8b1a1a" d="M81.8,-99.88C100.25,-105.67 120.88,-112.13 136.13,-116.91"/>
<polygon fill="#8b1a1a" stroke="#8b1a1a" points="82.99,-96.59 72.4,-96.94 80.89,-103.27 82.99,-96.59"/>
</a>
</g>
</g>
<!-- Node6 -->
<g id="Node000006" class="node">
<title>Node6</title>
<g id="a_Node000006"><a xlink:href="db/d00/class_icon.html" target="_top" xlink:title=" ">
<polygon fill="white" stroke="#666666" points="176.75,-96 142.75,-96 142.75,-76 176.75,-76 176.75,-96"/>
<text text-anchor="middle" x="159.75" y="-82.5" font-family="Helvetica,sans-Serif" font-size="10.00">Icon</text>
</a>
</g>
</g>
<!-- Node0&#45;&gt;Node6 -->
<g id="edge1110_Node000000_Node000006" class="edge">
<title>Node0&#45;&gt;Node6</title>
<g id="a_edge1110_Node000000_Node000006"><a xlink:title=" ">
<path fill="none" stroke="#8b1a1a" d="M84.61,-86C105.03,-86 127.62,-86 142.43,-86"/>
<polygon fill="#8b1a1a" stroke="#8b1a1a" points="84.74,-82.5 74.74,-86 84.74,-89.5 84.74,-82.5"/>
</a>
</g>
</g>
<!-- Node7 -->
<g id="Node000007" class="node">
<title>Node7</title>
<g id="a_Node000007"><a xlink:href="d7/d01/class_player_preview.html" target="_top" xlink:title=" ">
<polygon fill="white" stroke="#666666" points="198.12,-58 121.38,-58 121.38,-38 198.12,-38 198.12,-58"/>
<text text-anchor="middle" x="159.75" y="-44.5" font-family="Helvetica,sans-Serif" font-size="10.00">PlayerPreview</text>
</a>
</g>
</g>
<!-- Node0&#45;&gt;Node7 -->
<g id="edge1111_Node000000_Node000007" class="edge">
<title>Node0&#45;&gt;Node7</title>
<g id="a_edge1111_Node000000_Node000007"><a xlink:title=" ">
<path fill="none" stroke="#8b1a1a" d="M81.67,-72.16C96.11,-67.63 111.9,-62.68 125.41,-58.45"/>
<polygon fill="#8b1a1a" stroke="#8b1a1a" points="80.89,-68.73 72.4,-75.06 82.99,-75.41 80.89,-68.73"/>
</a>
</g>
</g>
<!-- Node8 -->
<g id="Node000008" class="node">
<title>Node8</title>
<g id="a_Node000008"><a xlink:href="d3/d0e/class_slots_icon.html" target="_top" xlink:title=" ">
<polygon fill="white" stroke="#666666" points="188,-20 131.5,-20 131.5,0 188,0 188,-20"/>
<text text-anchor="middle" x="159.75" y="-6.5" font-family="Helvetica,sans-Serif" font-size="10.00">SlotsIcon</text>
</a>
</g>
</g>
<!-- Node0&#45;&gt;Node8 -->
<g id="edge1112_Node000000_Node000008" class="edge">
<title>Node0&#45;&gt;Node8</title>
<g id="a_edge1112_Node000000_Node000008"><a xlink:title=" ">
<path fill="none" stroke="#8b1a1a" d="M56.51,-68.14C70.28,-55.91 89.78,-39.98 109,-29 115.9,-25.06 123.78,-21.62 131.21,-18.79"/>
<polygon fill="#8b1a1a" stroke="#8b1a1a" points="54.52,-65.22 49.47,-74.54 59.23,-70.4 54.52,-65.22"/>
</a>
</g>
</g>
<!-- Node3 -->
<g id="Node000003" class="node">
<title>Node3</title>
<g id="a_Node000003"><a xlink:href="db/d05/class_closable_header.html" target="_top" xlink:title=" ">
<polygon fill="white" stroke="#666666" points="335.62,-172 251.38,-172 251.38,-152 335.62,-152 335.62,-172"/>
<text text-anchor="middle" x="293.5" y="-158.5" font-family="Helvetica,sans-Serif" font-size="10.00">ClosableHeader</text>
</a>
</g>
</g>
<!-- Node2&#45;&gt;Node3 -->
<g id="edge1107_Node000002_Node000003" class="edge">
<title>Node2&#45;&gt;Node3</title>
<g id="a_edge1107_Node000002_Node000003"><a xlink:title=" ">
<path fill="none" stroke="#8b1a1a" d="M194.21,-133.65C213.16,-139.12 236.86,-145.95 256.25,-151.54"/>
<polygon fill="#8b1a1a" stroke="#8b1a1a" points="195.43,-130.36 184.85,-130.95 193.49,-137.09 195.43,-130.36"/>
</a>
</g>
</g>
<!-- Node4 -->
<g id="Node000004" class="node">
<title>Node4</title>
<g id="a_Node000004"><a xlink:href="da/d07/class_collapsible_header.html" target="_top" xlink:title=" ">
<polygon fill="white" stroke="#666666" points="340.5,-134 246.5,-134 246.5,-114 340.5,-114 340.5,-134"/>
<text text-anchor="middle" x="293.5" y="-120.5" font-family="Helvetica,sans-Serif" font-size="10.00">CollapsibleHeader</text>
</a>
</g>
</g>
<!-- Node2&#45;&gt;Node4 -->
<g id="edge1108_Node000002_Node000004" class="edge">
<title>Node2&#45;&gt;Node4</title>
<g id="a_edge1108_Node000002_Node000004"><a xlink:title=" ">
<path fill="none" stroke="#8b1a1a" d="M194.68,-124C210.35,-124 229.21,-124 246.16,-124"/>
<polygon fill="#8b1a1a" stroke="#8b1a1a" points="194.91,-120.5 184.91,-124 194.91,-127.5 194.91,-120.5"/>
</a>
</g>
</g>
<!-- Node5 -->
<g id="Node000005" class="node">
<title>Node5</title>
<g id="a_Node000005"><a xlink:href="dc/d03/class_hands_header.html" target="_top" xlink:title=" ">
<polygon fill="white" stroke="#666666" points="330.75,-96 256.25,-96 256.25,-76 330.75,-76 330.75,-96"/>
<text text-anchor="middle" x="293.5" y="-82.5" font-family="Helvetica,sans-Serif" font-size="10.00">HandsHeader</text>
</a>
</g>
</g>
<!-- Node2&#45;&gt;Node5 -->
<g id="edge1109_Node000002_Node000005" class="edge">
<title>Node2&#45;&gt;Node5</title>
<g id="a_edge1109_Node000002_Node000005"><a xlink:title=" ">
<path fill="none" stroke="#8b1a1a" d="M194.21,-114.35C213.16,-108.88 236.86,-102.05 256.25,-96.46"/>
<polygon fill="#8b1a1a" stroke="#8b1a1a" points="193.49,-110.91 184.85,-117.05 195.43,-117.64 193.49,-110.91"/>
</a>
</g>
</g>
</g>
</svg>
