<?xml version="1.0" encoding="UTF-8" standalone="no"?>
<!DOCTYPE svg PUBLIC "-//W3C//DTD SVG 1.1//EN"
 "http://www.w3.org/Graphics/SVG/1.1/DTD/svg11.dtd">
<!-- Generated by graphviz version 11.0.0 (20240428.1522)
 -->
<!-- Title: Graphical Class Hierarchy Pages: 1 -->
<svg width="451pt" height="360pt"
 viewBox="0.00 0.00 450.75 360.00" xmlns="http://www.w3.org/2000/svg" xmlns:xlink="http://www.w3.org/1999/xlink">
<g id="graph0" class="graph" transform="scale(1 1) rotate(0) translate(4 356)">
<title>Graphical Class Hierarchy</title>
<!-- Node0 -->
<g id="Node000000" class="node">
<title>Node0</title>
<g id="a_Node000000"><a xlink:title=" ">
<polygon fill="#e0e0e0" stroke="#999999" points="99.25,-191 0,-191 0,-171 99.25,-171 99.25,-191"/>
<text text-anchor="middle" x="49.62" y="-177.5" font-family="Helvetica,sans-Serif" font-size="10.00">RifleBoltFree_Base</text>
</a>
</g>
</g>
<!-- Node1 -->
<g id="Node000001" class="node">
<title>Node1</title>
<g id="a_Node000001"><a xlink:href="d6/d01/class_a_k_m___base.html" target="_top" xlink:title=" ">
<polygon fill="white" stroke="#666666" points="213.12,-324 147.62,-324 147.62,-304 213.12,-304 213.12,-324"/>
<text text-anchor="middle" x="180.38" y="-310.5" font-family="Helvetica,sans-Serif" font-size="10.00">AKM_Base</text>
</a>
</g>
</g>
<!-- Node0&#45;&gt;Node1 -->
<g id="edge1684_Node000000_Node000001" class="edge">
<title>Node0&#45;&gt;Node1</title>
<g id="a_edge1684_Node000000_Node000001"><a xlink:title=" ">
<path fill="none" stroke="#8b1a1a" d="M61.13,-201.06C75.08,-226.04 101.91,-268.62 135.25,-295 139.44,-298.31 144.29,-301.16 149.21,-303.56"/>
<polygon fill="#8b1a1a" stroke="#8b1a1a" points="64.36,-199.69 56.52,-192.57 58.21,-203.03 64.36,-199.69"/>
</a>
</g>
</g>
<!-- Node7 -->
<g id="Node000007" class="node">
<title>Node7</title>
<g id="a_Node000007"><a xlink:href="d1/d00/class_aug___base.html" target="_top" xlink:title=" ">
<polygon fill="white" stroke="#666666" points="210.88,-286 149.88,-286 149.88,-266 210.88,-266 210.88,-286"/>
<text text-anchor="middle" x="180.38" y="-272.5" font-family="Helvetica,sans-Serif" font-size="10.00">Aug_Base</text>
</a>
</g>
</g>
<!-- Node0&#45;&gt;Node7 -->
<g id="edge1690_Node000000_Node000007" class="edge">
<title>Node0&#45;&gt;Node7</title>
<g id="a_edge1690_Node000000_Node000007"><a xlink:title=" ">
<path fill="none" stroke="#8b1a1a" d="M67.45,-199.18C83.61,-215.86 109.33,-240.42 135.25,-257 140.31,-260.24 146.01,-263.16 151.6,-265.68"/>
<polygon fill="#8b1a1a" stroke="#8b1a1a" points="70.39,-197.2 60.96,-192.36 65.32,-202.02 70.39,-197.2"/>
</a>
</g>
</g>
<!-- Node8 -->
<g id="Node000008" class="node">
<title>Node8</title>
<g id="a_Node000008"><a xlink:href="da/d0b/class_famas___base.html" target="_top" xlink:title=" ">
<polygon fill="white" stroke="#666666" points="217.25,-248 143.5,-248 143.5,-228 217.25,-228 217.25,-248"/>
<text text-anchor="middle" x="180.38" y="-234.5" font-family="Helvetica,sans-Serif" font-size="10.00">Famas_Base</text>
</a>
</g>
</g>
<!-- Node0&#45;&gt;Node8 -->
<g id="edge1691_Node000000_Node000008" class="edge">
<title>Node0&#45;&gt;Node8</title>
<g id="a_edge1691_Node000000_Node000008"><a xlink:title=" ">
<path fill="none" stroke="#8b1a1a" d="M83.78,-196.03C99.37,-203.06 118.24,-211.52 135.25,-219 141.66,-221.82 148.62,-224.84 155.07,-227.61"/>
<polygon fill="#8b1a1a" stroke="#8b1a1a" points="85.5,-192.97 74.95,-192.04 82.62,-199.35 85.5,-192.97"/>
</a>
</g>
</g>
<!-- Node11 -->
<g id="Node000011" class="node">
<title>Node11</title>
<g id="a_Node000011"><a xlink:href="d6/d09/class_m_p5_k___base.html" target="_top" xlink:title="basic mp5 submachine gun">
<polygon fill="white" stroke="#666666" points="215.75,-210 145,-210 145,-190 215.75,-190 215.75,-210"/>
<text text-anchor="middle" x="180.38" y="-196.5" font-family="Helvetica,sans-Serif" font-size="10.00">MP5K_Base</text>
</a>
</g>
</g>
<!-- Node0&#45;&gt;Node11 -->
<g id="edge1694_Node000000_Node000011" class="edge">
<title>Node0&#45;&gt;Node11</title>
<g id="a_edge1694_Node000000_Node000011"><a xlink:title=" ">
<path fill="none" stroke="#8b1a1a" d="M110.77,-189.88C122.47,-191.6 134.35,-193.36 144.86,-194.91"/>
<polygon fill="#8b1a1a" stroke="#8b1a1a" points="111.57,-186.46 101.16,-188.46 110.55,-193.38 111.57,-186.46"/>
</a>
</g>
</g>
<!-- Node12 -->
<g id="Node000012" class="node">
<title>Node12</title>
<g id="a_Node000012"><a xlink:href="d8/d07/class_p_p19___base.html" target="_top" xlink:title="basic PP19 submachine gun">
<polygon fill="white" stroke="#666666" points="214.25,-172 146.5,-172 146.5,-152 214.25,-152 214.25,-172"/>
<text text-anchor="middle" x="180.38" y="-158.5" font-family="Helvetica,sans-Serif" font-size="10.00">PP19_Base</text>
</a>
</g>
</g>
<!-- Node0&#45;&gt;Node12 -->
<g id="edge1695_Node000000_Node000012" class="edge">
<title>Node0&#45;&gt;Node12</title>
<g id="a_edge1695_Node000000_Node000012"><a xlink:title=" ">
<path fill="none" stroke="#8b1a1a" d="M110.72,-172.13C122.87,-170.34 135.22,-168.52 146.04,-166.92"/>
<polygon fill="#8b1a1a" stroke="#8b1a1a" points="110.55,-168.62 101.16,-173.54 111.57,-175.54 110.55,-168.62"/>
</a>
</g>
</g>
<!-- Node13 -->
<g id="Node000013" class="node">
<title>Node13</title>
<g id="a_Node000013"><a xlink:href="db/d08/class_ruger1022___base.html" target="_top" xlink:title=" ">
<polygon fill="white" stroke="#666666" points="225.5,-134 135.25,-134 135.25,-114 225.5,-114 225.5,-134"/>
<text text-anchor="middle" x="180.38" y="-120.5" font-family="Helvetica,sans-Serif" font-size="10.00">Ruger1022_Base</text>
</a>
</g>
</g>
<!-- Node0&#45;&gt;Node13 -->
<g id="edge1696_Node000000_Node000013" class="edge">
<title>Node0&#45;&gt;Node13</title>
<g id="a_edge1696_Node000000_Node000013"><a xlink:title=" ">
<path fill="none" stroke="#8b1a1a" d="M83.78,-165.97C99.37,-158.94 118.24,-150.48 135.25,-143 141.66,-140.18 148.62,-137.16 155.07,-134.39"/>
<polygon fill="#8b1a1a" stroke="#8b1a1a" points="82.62,-162.65 74.95,-169.96 85.5,-169.03 82.62,-162.65"/>
</a>
</g>
</g>
<!-- Node14 -->
<g id="Node000014" class="node">
<title>Node14</title>
<g id="a_Node000014"><a xlink:href="d4/d07/class_saiga___base.html" target="_top" xlink:title=" ">
<polygon fill="white" stroke="#666666" points="214.62,-96 146.12,-96 146.12,-76 214.62,-76 214.62,-96"/>
<text text-anchor="middle" x="180.38" y="-82.5" font-family="Helvetica,sans-Serif" font-size="10.00">Saiga_Base</text>
</a>
</g>
</g>
<!-- Node0&#45;&gt;Node14 -->
<g id="edge1697_Node000000_Node000014" class="edge">
<title>Node0&#45;&gt;Node14</title>
<g id="a_edge1697_Node000000_Node000014"><a xlink:title=" ">
<path fill="none" stroke="#8b1a1a" d="M67.45,-162.82C83.61,-146.14 109.33,-121.58 135.25,-105 140.31,-101.76 146.01,-98.84 151.6,-96.32"/>
<polygon fill="#8b1a1a" stroke="#8b1a1a" points="65.32,-159.98 60.96,-169.64 70.39,-164.8 65.32,-159.98"/>
</a>
</g>
</g>
<!-- Node15 -->
<g id="Node000015" class="node">
<title>Node15</title>
<g id="a_Node000015"><a xlink:href="db/d07/class_v_s_s___base.html" target="_top" xlink:title=" ">
<polygon fill="white" stroke="#666666" points="212.38,-58 148.38,-58 148.38,-38 212.38,-38 212.38,-58"/>
<text text-anchor="middle" x="180.38" y="-44.5" font-family="Helvetica,sans-Serif" font-size="10.00">VSS_Base</text>
</a>
</g>
</g>
<!-- Node0&#45;&gt;Node15 -->
<g id="edge1698_Node000000_Node000015" class="edge">
<title>Node0&#45;&gt;Node15</title>
<g id="a_edge1698_Node000000_Node000015"><a xlink:title=" ">
<path fill="none" stroke="#8b1a1a" d="M61.13,-160.94C75.08,-135.96 101.91,-93.38 135.25,-67 139.44,-63.69 144.29,-60.84 149.21,-58.44"/>
<polygon fill="#8b1a1a" stroke="#8b1a1a" points="58.21,-158.97 56.52,-169.43 64.36,-162.31 58.21,-158.97"/>
</a>
</g>
</g>
<!-- Node2 -->
<g id="Node000002" class="node">
<title>Node2</title>
<g id="a_Node000002"><a xlink:href="d7/d0a/class_a_k101___base.html" target="_top" xlink:title=" ">
<polygon fill="white" stroke="#666666" points="343.88,-352 270.88,-352 270.88,-332 343.88,-332 343.88,-352"/>
<text text-anchor="middle" x="307.38" y="-338.5" font-family="Helvetica,sans-Serif" font-size="10.00">AK101_Base</text>
</a>
</g>
</g>
<!-- Node1&#45;&gt;Node2 -->
<g id="edge1685_Node000001_Node000002" class="edge">
<title>Node1&#45;&gt;Node2</title>
<g id="a_edge1685_Node000001_Node000002"><a xlink:title=" ">
<path fill="none" stroke="#8b1a1a" d="M224.69,-323.7C239.73,-327.07 256.42,-330.81 270.77,-334.02"/>
<polygon fill="#8b1a1a" stroke="#8b1a1a" points="225.57,-320.31 215.04,-321.54 224.04,-327.14 225.57,-320.31"/>
</a>
</g>
</g>
<!-- Node4 -->
<g id="Node000004" class="node">
<title>Node4</title>
<g id="a_Node000004"><a xlink:href="df/d01/class_a_k74___base.html" target="_top" xlink:title=" ">
<polygon fill="white" stroke="#666666" points="341.25,-314 273.5,-314 273.5,-294 341.25,-294 341.25,-314"/>
<text text-anchor="middle" x="307.38" y="-300.5" font-family="Helvetica,sans-Serif" font-size="10.00">AK74_Base</text>
</a>
</g>
</g>
<!-- Node1&#45;&gt;Node4 -->
<g id="edge1687_Node000001_Node000004" class="edge">
<title>Node1&#45;&gt;Node4</title>
<g id="a_edge1687_Node000001_Node000004"><a xlink:title=" ">
<path fill="none" stroke="#8b1a1a" d="M224.79,-310.53C240.75,-309.25 258.54,-307.83 273.42,-306.64"/>
<polygon fill="#8b1a1a" stroke="#8b1a1a" points="224.76,-307.02 215.07,-311.3 225.32,-314 224.76,-307.02"/>
</a>
</g>
</g>
<!-- Node3 -->
<g id="Node000003" class="node">
<title>Node3</title>
<g id="a_Node000003"><a xlink:href="d7/d07/class_a_k101.html" target="_top" xlink:title=" ">
<polygon fill="white" stroke="#666666" points="438.62,-352 393.38,-352 393.38,-332 438.62,-332 438.62,-352"/>
<text text-anchor="middle" x="416" y="-338.5" font-family="Helvetica,sans-Serif" font-size="10.00">AK101</text>
</a>
</g>
</g>
<!-- Node2&#45;&gt;Node3 -->
<g id="edge1686_Node000002_Node000003" class="edge">
<title>Node2&#45;&gt;Node3</title>
<g id="a_edge1686_Node000002_Node000003"><a xlink:title=" ">
<path fill="none" stroke="#8b1a1a" d="M355.49,-342C368.6,-342 382.23,-342 393.12,-342"/>
<polygon fill="#8b1a1a" stroke="#8b1a1a" points="355.69,-338.5 345.69,-342 355.69,-345.5 355.69,-338.5"/>
</a>
</g>
</g>
<!-- Node5 -->
<g id="Node000005" class="node">
<title>Node5</title>
<g id="a_Node000005"><a xlink:href="dc/d03/class_a_k74.html" target="_top" xlink:title=" ">
<polygon fill="white" stroke="#666666" points="436,-314 396,-314 396,-294 436,-294 436,-314"/>
<text text-anchor="middle" x="416" y="-300.5" font-family="Helvetica,sans-Serif" font-size="10.00">AK74</text>
</a>
</g>
</g>
<!-- Node4&#45;&gt;Node5 -->
<g id="edge1688_Node000004_Node000005" class="edge">
<title>Node4&#45;&gt;Node5</title>
<g id="a_edge1688_Node000004_Node000005"><a xlink:title=" ">
<path fill="none" stroke="#8b1a1a" d="M352.68,-304C367.62,-304 383.53,-304 395.54,-304"/>
<polygon fill="#8b1a1a" stroke="#8b1a1a" points="353.04,-300.5 343.04,-304 353.04,-307.5 353.04,-300.5"/>
</a>
</g>
</g>
<!-- Node6 -->
<g id="Node000006" class="node">
<title>Node6</title>
<g id="a_Node000006"><a xlink:href="d1/d02/class_a_k_s74_u.html" target="_top" xlink:title=" ">
<polygon fill="white" stroke="#666666" points="442.75,-276 389.25,-276 389.25,-256 442.75,-256 442.75,-276"/>
<text text-anchor="middle" x="416" y="-262.5" font-family="Helvetica,sans-Serif" font-size="10.00">AKS74U</text>
</a>
</g>
</g>
<!-- Node4&#45;&gt;Node6 -->
<g id="edge1689_Node000004_Node000006" class="edge">
<title>Node4&#45;&gt;Node6</title>
<g id="a_edge1689_Node000004_Node000006"><a xlink:title=" ">
<path fill="none" stroke="#8b1a1a" d="M348.35,-289.75C361.93,-284.91 376.74,-279.63 388.95,-275.28"/>
<polygon fill="#8b1a1a" stroke="#8b1a1a" points="347.46,-286.35 339.22,-293.01 349.81,-292.95 347.46,-286.35"/>
</a>
</g>
</g>
<!-- Node9 -->
<g id="Node000009" class="node">
<title>Node9</title>
<g id="a_Node000009"><a xlink:href="da/d06/class_f_a_m_a_s.html" target="_top" xlink:title=" ">
<polygon fill="white" stroke="#666666" points="332.62,-267 282.12,-267 282.12,-247 332.62,-247 332.62,-267"/>
<text text-anchor="middle" x="307.38" y="-253.5" font-family="Helvetica,sans-Serif" font-size="10.00">FAMAS</text>
</a>
</g>
</g>
<!-- Node8&#45;&gt;Node9 -->
<g id="edge1692_Node000008_Node000009" class="edge">
<title>Node8&#45;&gt;Node9</title>
<g id="a_edge1692_Node000008_Node000009"><a xlink:title=" ">
<path fill="none" stroke="#8b1a1a" d="M228.78,-245.2C246.83,-247.95 266.68,-250.97 281.78,-253.26"/>
<polygon fill="#8b1a1a" stroke="#8b1a1a" points="229.44,-241.77 219.03,-243.72 228.39,-248.69 229.44,-241.77"/>
</a>
</g>
</g>
<!-- Node10 -->
<g id="Node000010" class="node">
<title>Node10</title>
<g id="a_Node000010"><a xlink:href="d6/d04/class_sawed_off_f_a_m_a_s.html" target="_top" xlink:title=" ">
<polygon fill="white" stroke="#666666" points="353.25,-229 261.5,-229 261.5,-209 353.25,-209 353.25,-229"/>
<text text-anchor="middle" x="307.38" y="-215.5" font-family="Helvetica,sans-Serif" font-size="10.00">SawedOffFAMAS</text>
</a>
</g>
</g>
<!-- Node8&#45;&gt;Node10 -->
<g id="edge1693_Node000008_Node000010" class="edge">
<title>Node8&#45;&gt;Node10</title>
<g id="a_edge1693_Node000008_Node000010"><a xlink:title=" ">
<path fill="none" stroke="#8b1a1a" d="M228.82,-230.79C239.51,-229.16 250.83,-227.44 261.41,-225.83"/>
<polygon fill="#8b1a1a" stroke="#8b1a1a" points="228.39,-227.31 219.03,-232.28 229.44,-234.23 228.39,-227.31"/>
</a>
</g>
</g>
<!-- Node16 -->
<g id="Node000016" class="node">
<title>Node16</title>
<g id="a_Node000016"><a xlink:href="d3/d04/class_a_s_v_a_l.html" target="_top" xlink:title=" ">
<polygon fill="white" stroke="#666666" points="331.5,-96 283.25,-96 283.25,-76 331.5,-76 331.5,-96"/>
<text text-anchor="middle" x="307.38" y="-82.5" font-family="Helvetica,sans-Serif" font-size="10.00">ASVAL</text>
</a>
</g>
</g>
<!-- Node15&#45;&gt;Node16 -->
<g id="edge1699_Node000015_Node000016" class="edge">
<title>Node15&#45;&gt;Node16</title>
<g id="a_edge1699_Node000015_Node000016"><a xlink:title=" ">
<path fill="none" stroke="#8b1a1a" d="M223.55,-60.82C243.4,-66.86 266.32,-73.82 283.01,-78.9"/>
<polygon fill="#8b1a1a" stroke="#8b1a1a" points="224.63,-57.49 214.04,-57.93 222.59,-64.19 224.63,-57.49"/>
</a>
</g>
</g>
<!-- Node17 -->
<g id="Node000017" class="node">
<title>Node17</title>
<g id="a_Node000017"><a xlink:href="da/d09/class_v_s_s.html" target="_top" xlink:title=" ">
<polygon fill="white" stroke="#666666" points="325.5,-58 289.25,-58 289.25,-38 325.5,-38 325.5,-58"/>
<text text-anchor="middle" x="307.38" y="-44.5" font-family="Helvetica,sans-Serif" font-size="10.00">VSS</text>
</a>
</g>
</g>
<!-- Node15&#45;&gt;Node17 -->
<g id="edge1700_Node000015_Node000017" class="edge">
<title>Node15&#45;&gt;Node17</title>
<g id="a_edge1700_Node000015_Node000017"><a xlink:title=" ">
<path fill="none" stroke="#8b1a1a" d="M223.84,-48C246.13,-48 272.22,-48 289.01,-48"/>
<polygon fill="#8b1a1a" stroke="#8b1a1a" points="224.11,-44.5 214.11,-48 224.11,-51.5 224.11,-44.5"/>
</a>
</g>
</g>
<!-- Node18 -->
<g id="Node000018" class="node">
<title>Node18</title>
<g id="a_Node000018"><a xlink:href="d3/d08/class_vikhr.html" target="_top" xlink:title=" ">
<polygon fill="white" stroke="#666666" points="326.62,-20 288.12,-20 288.12,0 326.62,0 326.62,-20"/>
<text text-anchor="middle" x="307.38" y="-6.5" font-family="Helvetica,sans-Serif" font-size="10.00">Vikhr</text>
</a>
</g>
</g>
<!-- Node15&#45;&gt;Node18 -->
<g id="edge1701_Node000015_Node000018" class="edge">
<title>Node15&#45;&gt;Node18</title>
<g id="a_edge1701_Node000015_Node000018"><a xlink:title=" ">
<path fill="none" stroke="#8b1a1a" d="M223.33,-35.25C245.26,-28.58 270.99,-20.76 287.94,-15.61"/>
<polygon fill="#8b1a1a" stroke="#8b1a1a" points="222.59,-31.81 214.04,-38.07 224.63,-38.51 222.59,-31.81"/>
</a>
</g>
</g>
</g>
</svg>
