<?xml version="1.0" encoding="UTF-8" standalone="no"?>
<!DOCTYPE svg PUBLIC "-//W3C//DTD SVG 1.1//EN"
 "http://www.w3.org/Graphics/SVG/1.1/DTD/svg11.dtd">
<!-- Generated by graphviz version 11.0.0 (20240428.1522)
 -->
<!-- Title: Graphical Class Hierarchy Pages: 1 -->
<svg width="253pt" height="66pt"
 viewBox="0.00 0.00 253.00 66.00" xmlns="http://www.w3.org/2000/svg" xmlns:xlink="http://www.w3.org/1999/xlink">
<g id="graph0" class="graph" transform="scale(1 1) rotate(0) translate(4 62)">
<title>Graphical Class Hierarchy</title>
<!-- Node0 -->
<g id="Node000000" class="node">
<title>Node0</title>
<g id="a_Node000000"><a xlink:title=" ">
<polygon fill="#e0e0e0" stroke="#999999" points="102.25,-39 0,-39 0,-19 102.25,-19 102.25,-39"/>
<text text-anchor="middle" x="51.12" y="-25.5" font-family="Helvetica,sans-Serif" font-size="10.00">ActionDeployObject</text>
</a>
</g>
</g>
<!-- Node1 -->
<g id="Node000001" class="node">
<title>Node1</title>
<g id="a_Node000001"><a xlink:href="dd/d00/class_action_dig_garden_plot.html" target="_top" xlink:title=" ">
<polygon fill="white" stroke="#666666" points="245,-58 138.25,-58 138.25,-38 245,-38 245,-58"/>
<text text-anchor="middle" x="191.62" y="-44.5" font-family="Helvetica,sans-Serif" font-size="10.00">ActionDigGardenPlot</text>
</a>
</g>
</g>
<!-- Node0&#45;&gt;Node1 -->
<g id="edge313_Node000000_Node000001" class="edge">
<title>Node0&#45;&gt;Node1</title>
<g id="a_edge313_Node000000_Node000001"><a xlink:title=" ">
<path fill="none" stroke="#8b1a1a" d="M113.85,-37.47C121.97,-38.58 130.23,-39.71 138.17,-40.8"/>
<polygon fill="#8b1a1a" stroke="#8b1a1a" points="114.4,-34.01 104.02,-36.12 113.45,-40.95 114.4,-34.01"/>
</a>
</g>
</g>
<!-- Node2 -->
<g id="Node000002" class="node">
<title>Node2</title>
<g id="a_Node000002"><a xlink:href="d3/d0a/class_action_place_object.html" target="_top" xlink:title=" ">
<polygon fill="white" stroke="#666666" points="240.12,-20 143.12,-20 143.12,0 240.12,0 240.12,-20"/>
<text text-anchor="middle" x="191.62" y="-6.5" font-family="Helvetica,sans-Serif" font-size="10.00">ActionPlaceObject</text>
</a>
</g>
</g>
<!-- Node0&#45;&gt;Node2 -->
<g id="edge314_Node000000_Node000002" class="edge">
<title>Node0&#45;&gt;Node2</title>
<g id="a_edge314_Node000000_Node000002"><a xlink:title=" ">
<path fill="none" stroke="#8b1a1a" d="M113.8,-20.54C123.53,-19.2 133.46,-17.84 142.81,-16.56"/>
<polygon fill="#8b1a1a" stroke="#8b1a1a" points="113.45,-17.05 104.02,-21.88 114.4,-23.99 113.45,-17.05"/>
</a>
</g>
</g>
</g>
</svg>
