<?xml version="1.0" encoding="UTF-8" standalone="no"?>
<!DOCTYPE svg PUBLIC "-//W3C//DTD SVG 1.1//EN"
 "http://www.w3.org/Graphics/SVG/1.1/DTD/svg11.dtd">
<!-- Generated by graphviz version 11.0.0 (20240428.1522)
 -->
<!-- Title: Graphical Class Hierarchy Pages: 1 -->
<svg width="1008pt" height="173pt"
 viewBox="0.00 0.00 1007.75 173.00" xmlns="http://www.w3.org/2000/svg" xmlns:xlink="http://www.w3.org/1999/xlink">
<g id="graph0" class="graph" transform="scale(1 1) rotate(0) translate(4 169)">
<title>Graphical Class Hierarchy</title>
<!-- Node0 -->
<g id="Node000000" class="node">
<title>Node0</title>
<g id="a_Node000000"><a xlink:title=" ">
<polygon fill="#e0e0e0" stroke="#999999" points="73,-67 0,-67 0,-47 73,-47 73,-67"/>
<text text-anchor="middle" x="36.5" y="-53.5" font-family="Helvetica,sans-Serif" font-size="10.00">BuildingBase</text>
</a>
</g>
</g>
<!-- Node1 -->
<g id="Node000001" class="node">
<title>Node1</title>
<g id="a_Node000001"><a xlink:href="df/d01/class_house.html" target="_top" xlink:title=" ">
<polygon fill="white" stroke="#666666" points="215,-89 171.25,-89 171.25,-69 215,-69 215,-89"/>
<text text-anchor="middle" x="193.12" y="-75.5" font-family="Helvetica,sans-Serif" font-size="10.00">House</text>
</a>
</g>
</g>
<!-- Node0&#45;&gt;Node1 -->
<g id="edge428_Node000000_Node000001" class="edge">
<title>Node0&#45;&gt;Node1</title>
<g id="a_edge428_Node000000_Node000001"><a xlink:title=" ">
<path fill="none" stroke="#8b1a1a" d="M84.48,-63.68C113.4,-67.8 149.05,-72.87 171.19,-76.02"/>
<polygon fill="#8b1a1a" stroke="#8b1a1a" points="85.25,-60.26 74.86,-62.32 84.27,-67.19 85.25,-60.26"/>
</a>
</g>
</g>
<!-- Node11 -->
<g id="Node000011" class="node">
<title>Node11</title>
<g id="a_Node000011"><a xlink:href="d2/d04/class_land___underground___water_reservoir___water.html" target="_top" xlink:title=" ">
<polygon fill="white" stroke="#666666" points="277.25,-51 109,-51 109,-19 277.25,-19 277.25,-51"/>
<text text-anchor="start" x="117" y="-37.5" font-family="Helvetica,sans-Serif" font-size="10.00">Land_Underground_WaterReservoir</text>
<text text-anchor="middle" x="193.12" y="-25.5" font-family="Helvetica,sans-Serif" font-size="10.00">_Water</text>
</a>
</g>
</g>
<!-- Node0&#45;&gt;Node11 -->
<g id="edge438_Node000000_Node000011" class="edge">
<title>Node0&#45;&gt;Node11</title>
<g id="a_edge438_Node000000_Node000011"><a xlink:title=" ">
<path fill="none" stroke="#8b1a1a" d="M84.61,-50.3C92.3,-49.2 100.45,-48.04 108.7,-46.87"/>
<polygon fill="#8b1a1a" stroke="#8b1a1a" points="84.27,-46.81 74.86,-51.68 85.25,-53.74 84.27,-46.81"/>
</a>
</g>
</g>
<!-- Node2 -->
<g id="Node000002" class="node">
<title>Node2</title>
<g id="a_Node000002"><a xlink:href="d5/d04/class_effect_area.html" target="_top" xlink:title=" ">
<polygon fill="white" stroke="#666666" points="425.62,-146 364.62,-146 364.62,-126 425.62,-126 425.62,-146"/>
<text text-anchor="middle" x="395.12" y="-132.5" font-family="Helvetica,sans-Serif" font-size="10.00">EffectArea</text>
</a>
</g>
</g>
<!-- Node1&#45;&gt;Node2 -->
<g id="edge429_Node000001_Node000002" class="edge">
<title>Node1&#45;&gt;Node2</title>
<g id="a_edge429_Node000001_Node000002"><a xlink:title=" ">
<path fill="none" stroke="#8b1a1a" d="M226.38,-90.04C250.23,-98.02 283.58,-108.8 313.25,-117 330.07,-121.65 349.06,-126.15 364.41,-129.6"/>
<polygon fill="#8b1a1a" stroke="#8b1a1a" points="227.52,-86.73 216.93,-86.86 225.29,-93.37 227.52,-86.73"/>
</a>
</g>
</g>
<!-- Node7 -->
<g id="Node000007" class="node">
<title>Node7</title>
<g id="a_Node000007"><a xlink:href="d1/d00/class_land___bilboard___base.html" target="_top" xlink:title=" ">
<polygon fill="white" stroke="#666666" points="447.75,-108 342.5,-108 342.5,-88 447.75,-88 447.75,-108"/>
<text text-anchor="middle" x="395.12" y="-94.5" font-family="Helvetica,sans-Serif" font-size="10.00">Land_Bilboard_Base</text>
</a>
</g>
</g>
<!-- Node1&#45;&gt;Node7 -->
<g id="edge434_Node000001_Node000007" class="edge">
<title>Node1&#45;&gt;Node7</title>
<g id="a_edge434_Node000001_Node000007"><a xlink:title=" ">
<path fill="none" stroke="#8b1a1a" d="M226.24,-82.05C257.48,-85.02 305.45,-89.58 342.13,-93.06"/>
<polygon fill="#8b1a1a" stroke="#8b1a1a" points="226.94,-78.6 216.66,-81.14 226.28,-85.57 226.94,-78.6"/>
</a>
</g>
</g>
<!-- Node8 -->
<g id="Node000008" class="node">
<title>Node8</title>
<g id="a_Node000008"><a xlink:href="d4/d0e/class_land___underground___entrance_base.html" target="_top" xlink:title=" ">
<polygon fill="white" stroke="#666666" points="477,-70 313.25,-70 313.25,-50 477,-50 477,-70"/>
<text text-anchor="middle" x="395.12" y="-56.5" font-family="Helvetica,sans-Serif" font-size="10.00">Land_Underground_EntranceBase</text>
</a>
</g>
</g>
<!-- Node1&#45;&gt;Node8 -->
<g id="edge435_Node000001_Node000008" class="edge">
<title>Node1&#45;&gt;Node8</title>
<g id="a_edge435_Node000001_Node000008"><a xlink:title=" ">
<path fill="none" stroke="#8b1a1a" d="M226.49,-75.93C249.9,-73.7 282.63,-70.59 312.97,-67.71"/>
<polygon fill="#8b1a1a" stroke="#8b1a1a" points="226.28,-72.43 216.66,-76.86 226.94,-79.4 226.28,-72.43"/>
</a>
</g>
</g>
<!-- Node10 -->
<g id="Node000010" class="node">
<title>Node10</title>
<g id="a_Node000010"><a xlink:href="da/d02/class_static_obj___roadblock___wood___small.html" target="_top" xlink:title=" ">
<polygon fill="white" stroke="#666666" points="448.88,-32 341.38,-32 341.38,0 448.88,0 448.88,-32"/>
<text text-anchor="start" x="349.38" y="-18.5" font-family="Helvetica,sans-Serif" font-size="10.00">StaticObj_Roadblock</text>
<text text-anchor="middle" x="395.12" y="-6.5" font-family="Helvetica,sans-Serif" font-size="10.00">_Wood_Small</text>
</a>
</g>
</g>
<!-- Node1&#45;&gt;Node10 -->
<g id="edge437_Node000001_Node000010" class="edge">
<title>Node1&#45;&gt;Node10</title>
<g id="a_edge437_Node000001_Node000010"><a xlink:title=" ">
<path fill="none" stroke="#8b1a1a" d="M226.61,-73.62C242.21,-70.52 260.99,-66.03 277.25,-60 294.21,-53.71 296.54,-47.92 313.25,-41 322.08,-37.34 331.63,-33.93 340.98,-30.88"/>
<polygon fill="#8b1a1a" stroke="#8b1a1a" points="226.08,-70.16 216.89,-75.44 227.37,-77.04 226.08,-70.16"/>
</a>
</g>
</g>
<!-- Node3 -->
<g id="Node000003" class="node">
<title>Node3</title>
<g id="a_Node000003"><a xlink:href="dd/d0e/class_contaminated_area___base.html" target="_top" xlink:title=" ">
<polygon fill="white" stroke="#666666" points="650.12,-165 526.12,-165 526.12,-145 650.12,-145 650.12,-165"/>
<text text-anchor="middle" x="588.12" y="-151.5" font-family="Helvetica,sans-Serif" font-size="10.00">ContaminatedArea_Base</text>
</a>
</g>
</g>
<!-- Node2&#45;&gt;Node3 -->
<g id="edge430_Node000002_Node000003" class="edge">
<title>Node2&#45;&gt;Node3</title>
<g id="a_edge430_Node000002_Node000003"><a xlink:title=" ">
<path fill="none" stroke="#8b1a1a" d="M437.24,-140.09C463.09,-142.66 496.93,-146.03 525.9,-148.91"/>
<polygon fill="#8b1a1a" stroke="#8b1a1a" points="437.77,-136.63 427.47,-139.12 437.08,-143.59 437.77,-136.63"/>
</a>
</g>
</g>
<!-- Node6 -->
<g id="Node000006" class="node">
<title>Node6</title>
<g id="a_Node000006"><a xlink:href="dc/d0e/class_spooky_area.html" target="_top" xlink:title=" ">
<polygon fill="white" stroke="#666666" points="622.75,-127 553.5,-127 553.5,-107 622.75,-107 622.75,-127"/>
<text text-anchor="middle" x="588.12" y="-113.5" font-family="Helvetica,sans-Serif" font-size="10.00">SpookyArea</text>
</a>
</g>
</g>
<!-- Node2&#45;&gt;Node6 -->
<g id="edge433_Node000002_Node000006" class="edge">
<title>Node2&#45;&gt;Node6</title>
<g id="a_edge433_Node000002_Node000006"><a xlink:title=" ">
<path fill="none" stroke="#8b1a1a" d="M437.13,-131.92C471.79,-128.47 520.86,-123.59 553.31,-120.36"/>
<polygon fill="#8b1a1a" stroke="#8b1a1a" points="437.08,-128.41 427.47,-132.88 437.77,-135.37 437.08,-128.41"/>
</a>
</g>
</g>
<!-- Node4 -->
<g id="Node000004" class="node">
<title>Node4</title>
<g id="a_Node000004"><a xlink:href="d5/d00/class_contaminated_area___dynamic.html" target="_top" xlink:title=" ">
<polygon fill="white" stroke="#666666" points="839,-165 699.25,-165 699.25,-145 839,-145 839,-165"/>
<text text-anchor="middle" x="769.12" y="-151.5" font-family="Helvetica,sans-Serif" font-size="10.00">ContaminatedArea_Dynamic</text>
</a>
</g>
</g>
<!-- Node3&#45;&gt;Node4 -->
<g id="edge431_Node000003_Node000004" class="edge">
<title>Node3&#45;&gt;Node4</title>
<g id="a_edge431_Node000003_Node000004"><a xlink:title=" ">
<path fill="none" stroke="#8b1a1a" d="M661.62,-155C673.91,-155 686.65,-155 698.86,-155"/>
<polygon fill="#8b1a1a" stroke="#8b1a1a" points="661.99,-151.5 651.99,-155 661.99,-158.5 661.99,-151.5"/>
</a>
</g>
</g>
<!-- Node5 -->
<g id="Node000005" class="node">
<title>Node5</title>
<g id="a_Node000005"><a xlink:href="dc/d07/class_contaminated_area___local.html" target="_top" xlink:title=" ">
<polygon fill="white" stroke="#666666" points="999.75,-165 875,-165 875,-145 999.75,-145 999.75,-165"/>
<text text-anchor="middle" x="937.38" y="-151.5" font-family="Helvetica,sans-Serif" font-size="10.00">ContaminatedArea_Local</text>
</a>
</g>
</g>
<!-- Node4&#45;&gt;Node5 -->
<g id="edge432_Node000004_Node000005" class="edge">
<title>Node4&#45;&gt;Node5</title>
<g id="a_edge432_Node000004_Node000005"><a xlink:title=" ">
<path fill="none" stroke="#8b1a1a" d="M850.59,-155C858.69,-155 866.83,-155 874.69,-155"/>
<polygon fill="#8b1a1a" stroke="#8b1a1a" points="850.7,-151.5 840.7,-155 850.7,-158.5 850.7,-151.5"/>
</a>
</g>
</g>
<!-- Node9 -->
<g id="Node000009" class="node">
<title>Node9</title>
<g id="a_Node000009"><a xlink:href="d5/d0b/class_land___underground___stairs___exit.html" target="_top" xlink:title=" ">
<polygon fill="white" stroke="#666666" points="663.25,-70 513,-70 513,-50 663.25,-50 663.25,-70"/>
<text text-anchor="middle" x="588.12" y="-56.5" font-family="Helvetica,sans-Serif" font-size="10.00">Land_Underground_Stairs_Exit</text>
</a>
</g>
</g>
<!-- Node8&#45;&gt;Node9 -->
<g id="edge436_Node000008_Node000009" class="edge">
<title>Node8&#45;&gt;Node9</title>
<g id="a_edge436_Node000008_Node000009"><a xlink:title=" ">
<path fill="none" stroke="#8b1a1a" d="M488.69,-60C496.7,-60 504.74,-60 512.58,-60"/>
<polygon fill="#8b1a1a" stroke="#8b1a1a" points="488.92,-56.5 478.92,-60 488.92,-63.5 488.92,-56.5"/>
</a>
</g>
</g>
</g>
</svg>
