<?xml version="1.0" encoding="UTF-8" standalone="no"?>
<!DOCTYPE svg PUBLIC "-//W3C//DTD SVG 1.1//EN"
 "http://www.w3.org/Graphics/SVG/1.1/DTD/svg11.dtd">
<!-- Generated by graphviz version 11.0.0 (20240428.1522)
 -->
<!-- Title: Graphical Class Hierarchy Pages: 1 -->
<svg width="334pt" height="78pt"
 viewBox="0.00 0.00 334.00 78.00" xmlns="http://www.w3.org/2000/svg" xmlns:xlink="http://www.w3.org/1999/xlink">
<g id="graph0" class="graph" transform="scale(1 1) rotate(0) translate(4 74)">
<title>Graphical Class Hierarchy</title>
<!-- Node0 -->
<g id="Node000000" class="node">
<title>Node0</title>
<g id="a_Node000000"><a xlink:title=" ">
<polygon fill="#e0e0e0" stroke="#999999" points="121.75,-42 0,-42 0,-22 121.75,-22 121.75,-42"/>
<text text-anchor="middle" x="60.88" y="-28.5" font-family="Helvetica,sans-Serif" font-size="10.00">AreaDamageComponent</text>
</a>
</g>
</g>
<!-- Node1 -->
<g id="Node000001" class="node">
<title>Node1</title>
<g id="a_Node000001"><a xlink:href="d5/d0e/class_area_damage_component_random_hitzone.html" target="_top" xlink:title="Newer implementation equivalent of &quot;AreaDamageRegular&quot;, hitzone selection only.">
<polygon fill="white" stroke="#666666" points="320.75,-70 163,-70 163,-38 320.75,-38 320.75,-70"/>
<text text-anchor="start" x="171" y="-56.5" font-family="Helvetica,sans-Serif" font-size="10.00">AreaDamageComponentRandom</text>
<text text-anchor="middle" x="241.88" y="-44.5" font-family="Helvetica,sans-Serif" font-size="10.00">Hitzone</text>
</a>
</g>
</g>
<!-- Node0&#45;&gt;Node1 -->
<g id="edge370_Node000000_Node000001" class="edge">
<title>Node0&#45;&gt;Node1</title>
<g id="a_edge370_Node000000_Node000001"><a xlink:title=" ">
<path fill="none" stroke="#8b1a1a" d="M133.23,-40.77C142.95,-41.96 152.98,-43.2 162.81,-44.41"/>
<polygon fill="#8b1a1a" stroke="#8b1a1a" points="133.83,-37.32 123.48,-39.57 132.98,-44.27 133.83,-37.32"/>
</a>
</g>
</g>
<!-- Node2 -->
<g id="Node000002" class="node">
<title>Node2</title>
<g id="a_Node000002"><a xlink:href="d3/d09/class_area_damage_component_raycasted.html" target="_top" xlink:title="Newer implementation equivalent of &quot;AreaDamageRegularRaycasted&quot;, hitzone selection only.">
<polygon fill="white" stroke="#666666" points="326,-20 157.75,-20 157.75,0 326,0 326,-20"/>
<text text-anchor="middle" x="241.88" y="-6.5" font-family="Helvetica,sans-Serif" font-size="10.00">AreaDamageComponentRaycasted</text>
</a>
</g>
</g>
<!-- Node0&#45;&gt;Node2 -->
<g id="edge371_Node000000_Node000002" class="edge">
<title>Node0&#45;&gt;Node2</title>
<g id="a_edge371_Node000000_Node000002"><a xlink:title=" ">
<path fill="none" stroke="#8b1a1a" d="M133.37,-23.21C141.27,-22.24 149.36,-21.25 157.39,-20.26"/>
<polygon fill="#8b1a1a" stroke="#8b1a1a" points="132.98,-19.73 123.48,-24.43 133.83,-26.68 132.98,-19.73"/>
</a>
</g>
</g>
</g>
</svg>
