<?xml version="1.0" encoding="UTF-8" standalone="no"?>
<!DOCTYPE svg PUBLIC "-//W3C//DTD SVG 1.1//EN"
 "http://www.w3.org/Graphics/SVG/1.1/DTD/svg11.dtd">
<!-- Generated by graphviz version 11.0.0 (20240428.1522)
 -->
<!-- Title: Graphical Class Hierarchy Pages: 1 -->
<svg width="466pt" height="85pt"
 viewBox="0.00 0.00 466.25 85.00" xmlns="http://www.w3.org/2000/svg" xmlns:xlink="http://www.w3.org/1999/xlink">
<g id="graph0" class="graph" transform="scale(1 1) rotate(0) translate(4 81)">
<title>Graphical Class Hierarchy</title>
<!-- Node0 -->
<g id="Node000000" class="node">
<title>Node0</title>
<g id="a_Node000000"><a xlink:title=" ">
<polygon fill="#e0e0e0" stroke="#999999" points="143.5,-58 0,-58 0,-38 143.5,-38 143.5,-58"/>
<text text-anchor="middle" x="71.75" y="-44.5" font-family="Helvetica,sans-Serif" font-size="10.00">ContinuousDefaultActionInput</text>
</a>
</g>
</g>
<!-- Node1 -->
<g id="Node000001" class="node">
<title>Node1</title>
<g id="a_Node000001"><a xlink:href="de/d0a/class_car_horn_short_action_input.html" target="_top" xlink:title=" ">
<polygon fill="white" stroke="#666666" points="302.75,-77 179.5,-77 179.5,-57 302.75,-57 302.75,-77"/>
<text text-anchor="middle" x="241.12" y="-63.5" font-family="Helvetica,sans-Serif" font-size="10.00">CarHornShortActionInput</text>
</a>
</g>
</g>
<!-- Node0&#45;&gt;Node1 -->
<g id="edge635_Node000000_Node000001" class="edge">
<title>Node0&#45;&gt;Node1</title>
<g id="a_edge635_Node000000_Node000001"><a xlink:title=" ">
<path fill="none" stroke="#8b1a1a" d="M155.11,-57.35C163.18,-58.27 171.28,-59.18 179.08,-60.07"/>
<polygon fill="#8b1a1a" stroke="#8b1a1a" points="155.57,-53.88 145.24,-56.23 154.78,-60.83 155.57,-53.88"/>
</a>
</g>
</g>
<!-- Node2 -->
<g id="Node000002" class="node">
<title>Node2</title>
<g id="a_Node000002"><a xlink:href="d6/d0c/class_default_action_input.html" target="_top" xlink:title=" ">
<polygon fill="white" stroke="#666666" points="288.5,-39 193.75,-39 193.75,-19 288.5,-19 288.5,-39"/>
<text text-anchor="middle" x="241.12" y="-25.5" font-family="Helvetica,sans-Serif" font-size="10.00">DefaultActionInput</text>
</a>
</g>
</g>
<!-- Node0&#45;&gt;Node2 -->
<g id="edge636_Node000000_Node000002" class="edge">
<title>Node0&#45;&gt;Node2</title>
<g id="a_edge636_Node000000_Node000002"><a xlink:title=" ">
<path fill="none" stroke="#8b1a1a" d="M154.8,-38.69C168.02,-37.19 181.29,-35.68 193.3,-34.32"/>
<polygon fill="#8b1a1a" stroke="#8b1a1a" points="154.78,-35.17 145.24,-39.77 155.57,-42.12 154.78,-35.17"/>
</a>
</g>
</g>
<!-- Node3 -->
<g id="Node000003" class="node">
<title>Node3</title>
<g id="a_Node000003"><a xlink:href="d0/d08/class_toggle_lights_action_input.html" target="_top" xlink:title=" ">
<polygon fill="white" stroke="#666666" points="458.25,-58 338.75,-58 338.75,-38 458.25,-38 458.25,-58"/>
<text text-anchor="middle" x="398.5" y="-44.5" font-family="Helvetica,sans-Serif" font-size="10.00">ToggleLightsActionInput</text>
</a>
</g>
</g>
<!-- Node2&#45;&gt;Node3 -->
<g id="edge637_Node000002_Node000003" class="edge">
<title>Node2&#45;&gt;Node3</title>
<g id="a_edge637_Node000002_Node000003"><a xlink:title=" ">
<path fill="none" stroke="#8b1a1a" d="M300.03,-36.08C312.6,-37.62 325.9,-39.24 338.5,-40.79"/>
<polygon fill="#8b1a1a" stroke="#8b1a1a" points="300.6,-32.62 290.24,-34.88 299.75,-39.57 300.6,-32.62"/>
</a>
</g>
</g>
<!-- Node4 -->
<g id="Node000004" class="node">
<title>Node4</title>
<g id="a_Node000004"><a xlink:href="d8/d05/class_toggle_n_v_g_action_input.html" target="_top" xlink:title=" ">
<polygon fill="white" stroke="#666666" points="455.62,-20 341.38,-20 341.38,0 455.62,0 455.62,-20"/>
<text text-anchor="middle" x="398.5" y="-6.5" font-family="Helvetica,sans-Serif" font-size="10.00">ToggleNVGActionInput</text>
</a>
</g>
</g>
<!-- Node2&#45;&gt;Node4 -->
<g id="edge638_Node000002_Node000004" class="edge">
<title>Node2&#45;&gt;Node4</title>
<g id="a_edge638_Node000002_Node000004"><a xlink:title=" ">
<path fill="none" stroke="#8b1a1a" d="M299.82,-21.95C313.29,-20.3 327.62,-18.55 341.04,-16.9"/>
<polygon fill="#8b1a1a" stroke="#8b1a1a" points="299.75,-18.43 290.24,-23.12 300.6,-25.38 299.75,-18.43"/>
</a>
</g>
</g>
</g>
</svg>
