<?xml version="1.0" encoding="UTF-8" standalone="no"?>
<!DOCTYPE svg PUBLIC "-//W3C//DTD SVG 1.1//EN"
 "http://www.w3.org/Graphics/SVG/1.1/DTD/svg11.dtd">
<!-- Generated by graphviz version 11.0.0 (20240428.1522)
 -->
<!-- Title: Graphical Class Hierarchy Pages: 1 -->
<svg width="596pt" height="180pt"
 viewBox="0.00 0.00 595.75 180.00" xmlns="http://www.w3.org/2000/svg" xmlns:xlink="http://www.w3.org/1999/xlink">
<g id="graph0" class="graph" transform="scale(1 1) rotate(0) translate(4 176)">
<title>Graphical Class Hierarchy</title>
<!-- Node0 -->
<g id="Node000000" class="node">
<title>Node0</title>
<g id="a_Node000000"><a xlink:href="df/d09/class_scripted_entity.html" target="_top" xlink:title=" ">
<polygon fill="white" stroke="#666666" points="77.5,-134 0,-134 0,-114 77.5,-114 77.5,-134"/>
<text text-anchor="middle" x="38.75" y="-120.5" font-family="Helvetica,sans-Serif" font-size="10.00">ScriptedEntity</text>
</a>
</g>
</g>
<!-- Node1 -->
<g id="Node000001" class="node">
<title>Node1</title>
<g id="a_Node000001"><a xlink:href="d1/d05/class_dynamic_area___flare.html" target="_top" xlink:title=" ">
<polygon fill="white" stroke="#666666" points="218,-172 116.5,-172 116.5,-152 218,-152 218,-172"/>
<text text-anchor="middle" x="167.25" y="-158.5" font-family="Helvetica,sans-Serif" font-size="10.00">DynamicArea_Flare</text>
</a>
</g>
</g>
<!-- Node0&#45;&gt;Node1 -->
<g id="edge1717_Node000000_Node000001" class="edge">
<title>Node0&#45;&gt;Node1</title>
<g id="a_edge1717_Node000000_Node000001"><a xlink:title=" ">
<path fill="none" stroke="#8b1a1a" d="M85.39,-137.71C100.58,-142.27 117.23,-147.28 131.46,-151.55"/>
<polygon fill="#8b1a1a" stroke="#8b1a1a" points="86.69,-134.44 76.1,-134.92 84.67,-141.15 86.69,-134.44"/>
</a>
</g>
</g>
<!-- Node2 -->
<g id="Node000002" class="node">
<title>Node2</title>
<g id="a_Node000002"><a xlink:href="d6/d07/class_spooky_player_stalker.html" target="_top" xlink:title="this entity gets attached to each player while present in the spooky area">
<polygon fill="white" stroke="#666666" points="221,-134 113.5,-134 113.5,-114 221,-114 221,-134"/>
<text text-anchor="middle" x="167.25" y="-120.5" font-family="Helvetica,sans-Serif" font-size="10.00">SpookyPlayerStalker</text>
</a>
</g>
</g>
<!-- Node0&#45;&gt;Node2 -->
<g id="edge1718_Node000000_Node000002" class="edge">
<title>Node0&#45;&gt;Node2</title>
<g id="a_edge1718_Node000000_Node000002"><a xlink:title=" ">
<path fill="none" stroke="#8b1a1a" d="M89.08,-124C97.04,-124 105.31,-124 113.36,-124"/>
<polygon fill="#8b1a1a" stroke="#8b1a1a" points="89.22,-120.5 79.22,-124 89.22,-127.5 89.22,-120.5"/>
</a>
</g>
</g>
<!-- Node3 -->
<g id="Node000003" class="node">
<title>Node3</title>
<g id="a_Node000003"><a xlink:href="d9/d0d/class_trigger_events.html" target="_top" xlink:title=" ">
<polygon fill="white" stroke="#666666" points="204.5,-96 130,-96 130,-76 204.5,-76 204.5,-96"/>
<text text-anchor="middle" x="167.25" y="-82.5" font-family="Helvetica,sans-Serif" font-size="10.00">TriggerEvents</text>
</a>
</g>
</g>
<!-- Node0&#45;&gt;Node3 -->
<g id="edge1719_Node000000_Node000003" class="edge">
<title>Node0&#45;&gt;Node3</title>
<g id="a_edge1719_Node000000_Node000003"><a xlink:title=" ">
<path fill="none" stroke="#8b1a1a" d="M85.39,-110.29C100.58,-105.73 117.23,-100.72 131.46,-96.45"/>
<polygon fill="#8b1a1a" stroke="#8b1a1a" points="84.67,-106.85 76.1,-113.08 86.69,-113.56 84.67,-106.85"/>
</a>
</g>
</g>
<!-- Node4 -->
<g id="Node000004" class="node">
<title>Node4</title>
<g id="a_Node000004"><a xlink:href="d1/d0b/class_trigger.html" target="_top" xlink:title="Scripted Trigger.">
<polygon fill="white" stroke="#666666" points="302.25,-96 257,-96 257,-76 302.25,-76 302.25,-96"/>
<text text-anchor="middle" x="279.62" y="-82.5" font-family="Helvetica,sans-Serif" font-size="10.00">Trigger</text>
</a>
</g>
</g>
<!-- Node3&#45;&gt;Node4 -->
<g id="edge1720_Node000003_Node000004" class="edge">
<title>Node3&#45;&gt;Node4</title>
<g id="a_edge1720_Node000003_Node000004"><a xlink:title=" ">
<path fill="none" stroke="#8b1a1a" d="M215.88,-86C230.1,-86 245,-86 256.71,-86"/>
<polygon fill="#8b1a1a" stroke="#8b1a1a" points="216.21,-82.5 206.21,-86 216.21,-89.5 216.21,-82.5"/>
</a>
</g>
</g>
<!-- Node5 -->
<g id="Node000005" class="node">
<title>Node5</title>
<g id="a_Node000005"><a xlink:href="da/d05/class_barbed_wire_trigger.html" target="_top" xlink:title="DEPRECATED UNUSED prototype for damage by BarbedWire, do not use as example.">
<polygon fill="white" stroke="#666666" points="434.5,-172 338.25,-172 338.25,-152 434.5,-152 434.5,-172"/>
<text text-anchor="middle" x="386.38" y="-158.5" font-family="Helvetica,sans-Serif" font-size="10.00">BarbedWireTrigger</text>
</a>
</g>
</g>
<!-- Node4&#45;&gt;Node5 -->
<g id="edge1721_Node000004_Node000005" class="edge">
<title>Node4&#45;&gt;Node5</title>
<g id="a_edge1721_Node000004_Node000005"><a xlink:title=" ">
<path fill="none" stroke="#8b1a1a" d="M295.95,-104.62C306.76,-116.82 322.13,-132.4 338.25,-143 343.26,-146.3 348.94,-149.18 354.57,-151.64"/>
<polygon fill="#8b1a1a" stroke="#8b1a1a" points="298.79,-102.55 289.62,-97.24 293.47,-107.11 298.79,-102.55"/>
</a>
</g>
</g>
<!-- Node6 -->
<g id="Node000006" class="node">
<title>Node6</title>
<g id="a_Node000006"><a xlink:href="d5/d06/class_cylinder_trigger.html" target="_top" xlink:title="Trigger with cylinder shape.">
<polygon fill="white" stroke="#666666" points="426.62,-134 346.12,-134 346.12,-114 426.62,-114 426.62,-134"/>
<text text-anchor="middle" x="386.38" y="-120.5" font-family="Helvetica,sans-Serif" font-size="10.00">CylinderTrigger</text>
</a>
</g>
</g>
<!-- Node4&#45;&gt;Node6 -->
<g id="edge1722_Node000004_Node000006" class="edge">
<title>Node4&#45;&gt;Node6</title>
<g id="a_edge1722_Node000004_Node000006"><a xlink:title=" ">
<path fill="none" stroke="#8b1a1a" d="M313.18,-97.81C327.1,-102.86 343.21,-108.7 356.68,-113.59"/>
<polygon fill="#8b1a1a" stroke="#8b1a1a" points="314.6,-94.6 304.01,-94.48 312.21,-101.18 314.6,-94.6"/>
</a>
</g>
</g>
<!-- Node8 -->
<g id="Node000008" class="node">
<title>Node8</title>
<g id="a_Node000008"><a xlink:href="d7/d05/class_man_trigger.html" target="_top" xlink:title="Trigger only accepting Object which IsMan()">
<polygon fill="white" stroke="#666666" points="418.38,-96 354.38,-96 354.38,-76 418.38,-76 418.38,-96"/>
<text text-anchor="middle" x="386.38" y="-82.5" font-family="Helvetica,sans-Serif" font-size="10.00">ManTrigger</text>
</a>
</g>
</g>
<!-- Node4&#45;&gt;Node8 -->
<g id="edge1724_Node000004_Node000008" class="edge">
<title>Node4&#45;&gt;Node8</title>
<g id="a_edge1724_Node000004_Node000008"><a xlink:title=" ">
<path fill="none" stroke="#8b1a1a" d="M313.76,-86C326.6,-86 341.23,-86 353.91,-86"/>
<polygon fill="#8b1a1a" stroke="#8b1a1a" points="314.1,-82.5 304.1,-86 314.1,-89.5 314.1,-82.5"/>
</a>
</g>
</g>
<!-- Node10 -->
<g id="Node000010" class="node">
<title>Node10</title>
<g id="a_Node000010"><a xlink:href="dc/d09/class_sphere_trigger.html" target="_top" xlink:title="Trigger with spherical shape.">
<polygon fill="white" stroke="#666666" points="424.38,-58 348.38,-58 348.38,-38 424.38,-38 424.38,-58"/>
<text text-anchor="middle" x="386.38" y="-44.5" font-family="Helvetica,sans-Serif" font-size="10.00">SphereTrigger</text>
</a>
</g>
</g>
<!-- Node4&#45;&gt;Node10 -->
<g id="edge1726_Node000004_Node000010" class="edge">
<title>Node4&#45;&gt;Node10</title>
<g id="a_edge1726_Node000004_Node000010"><a xlink:title=" ">
<path fill="none" stroke="#8b1a1a" d="M313.18,-74.19C327.1,-69.14 343.21,-63.3 356.68,-58.41"/>
<polygon fill="#8b1a1a" stroke="#8b1a1a" points="312.21,-70.82 304.01,-77.52 314.6,-77.4 312.21,-70.82"/>
</a>
</g>
</g>
<!-- Node11 -->
<g id="Node000011" class="node">
<title>Node11</title>
<g id="a_Node000011"><a xlink:href="dd/d01/class_trap_trigger.html" target="_top" xlink:title="Trigger used by traps.">
<polygon fill="white" stroke="#666666" points="418.38,-20 354.38,-20 354.38,0 418.38,0 418.38,-20"/>
<text text-anchor="middle" x="386.38" y="-6.5" font-family="Helvetica,sans-Serif" font-size="10.00">TrapTrigger</text>
</a>
</g>
</g>
<!-- Node4&#45;&gt;Node11 -->
<g id="edge1727_Node000004_Node000011" class="edge">
<title>Node4&#45;&gt;Node11</title>
<g id="a_edge1727_Node000004_Node000011"><a xlink:title=" ">
<path fill="none" stroke="#8b1a1a" d="M295.95,-67.38C306.76,-55.18 322.13,-39.6 338.25,-29 343.26,-25.7 348.94,-22.82 354.57,-20.36"/>
<polygon fill="#8b1a1a" stroke="#8b1a1a" points="293.47,-64.89 289.62,-74.76 298.79,-69.45 293.47,-64.89"/>
</a>
</g>
</g>
<!-- Node7 -->
<g id="Node000007" class="node">
<title>Node7</title>
<g id="a_Node000007"><a xlink:href="d6/d0f/class_effect_trigger.html" target="_top" xlink:title=" ">
<polygon fill="white" stroke="#666666" points="564.12,-134 494.12,-134 494.12,-114 564.12,-114 564.12,-134"/>
<text text-anchor="middle" x="529.12" y="-120.5" font-family="Helvetica,sans-Serif" font-size="10.00">EffectTrigger</text>
</a>
</g>
</g>
<!-- Node6&#45;&gt;Node7 -->
<g id="edge1723_Node000006_Node000007" class="edge">
<title>Node6&#45;&gt;Node7</title>
<g id="a_edge1723_Node000006_Node000007"><a xlink:title=" ">
<path fill="none" stroke="#8b1a1a" d="M438.21,-124C456.79,-124 477.33,-124 494.09,-124"/>
<polygon fill="#8b1a1a" stroke="#8b1a1a" points="438.47,-120.5 428.47,-124 438.47,-127.5 438.47,-120.5"/>
</a>
</g>
</g>
<!-- Node9 -->
<g id="Node000009" class="node">
<title>Node9</title>
<g id="a_Node000009"><a xlink:href="df/d02/class_construction_box_trigger.html" target="_top" xlink:title=" ">
<polygon fill="white" stroke="#666666" points="587.75,-96 470.5,-96 470.5,-76 587.75,-76 587.75,-96"/>
<text text-anchor="middle" x="529.12" y="-82.5" font-family="Helvetica,sans-Serif" font-size="10.00">ConstructionBoxTrigger</text>
</a>
</g>
</g>
<!-- Node8&#45;&gt;Node9 -->
<g id="edge1725_Node000008_Node000009" class="edge">
<title>Node8&#45;&gt;Node9</title>
<g id="a_edge1725_Node000008_Node000009"><a xlink:title=" ">
<path fill="none" stroke="#8b1a1a" d="M429.79,-86C442.46,-86 456.58,-86 470.07,-86"/>
<polygon fill="#8b1a1a" stroke="#8b1a1a" points="430.13,-82.5 420.13,-86 430.13,-89.5 430.13,-82.5"/>
</a>
</g>
</g>
</g>
</svg>
