<?xml version="1.0" encoding="UTF-8" standalone="no"?>
<!DOCTYPE svg PUBLIC "-//W3C//DTD SVG 1.1//EN"
 "http://www.w3.org/Graphics/SVG/1.1/DTD/svg11.dtd">
<!-- Generated by graphviz version 11.0.0 (20240428.1522)
 -->
<!-- Title: Graphical Class Hierarchy Pages: 1 -->
<svg width="568pt" height="306pt"
 viewBox="0.00 0.00 568.25 306.00" xmlns="http://www.w3.org/2000/svg" xmlns:xlink="http://www.w3.org/1999/xlink">
<g id="graph0" class="graph" transform="scale(1 1) rotate(0) translate(4 302)">
<title>Graphical Class Hierarchy</title>
<!-- Node0 -->
<g id="Node000000" class="node">
<title>Node0</title>
<g id="a_Node000000"><a xlink:href="d5/d04/class_replace_item_with_new_lambda_base.html" target="_top" xlink:title="base class for transformation operations (creating one item from another)">
<polygon fill="white" stroke="#666666" points="166,-153 0,-153 0,-133 166,-133 166,-153"/>
<text text-anchor="middle" x="83" y="-139.5" font-family="Helvetica,sans-Serif" font-size="10.00">ReplaceItemWithNewLambdaBase</text>
</a>
</g>
</g>
<!-- Node1 -->
<g id="Node000001" class="node">
<title>Node1</title>
<g id="a_Node000001"><a xlink:href="db/d0a/class_break_long_wooden_stick.html" target="_top" xlink:title=" ">
<polygon fill="white" stroke="#666666" points="345.88,-298 224.88,-298 224.88,-278 345.88,-278 345.88,-298"/>
<text text-anchor="middle" x="285.38" y="-284.5" font-family="Helvetica,sans-Serif" font-size="10.00">BreakLongWoodenStick</text>
</a>
</g>
</g>
<!-- Node0&#45;&gt;Node1 -->
<g id="edge1660_Node000000_Node000001" class="edge">
<title>Node0&#45;&gt;Node1</title>
<g id="a_edge1660_Node000000_Node000001"><a xlink:title=" ">
<path fill="none" stroke="#8b1a1a" d="M96.69,-162.65C115.95,-190.78 155.27,-242.1 202,-269 209,-273.03 216.79,-276.2 224.71,-278.7"/>
<polygon fill="#8b1a1a" stroke="#8b1a1a" points="99.84,-161.05 91.37,-154.68 94.02,-164.94 99.84,-161.05"/>
</a>
</g>
</g>
<!-- Node2 -->
<g id="Node000002" class="node">
<title>Node2</title>
<g id="a_Node000002"><a xlink:href="df/d02/class_drop_equip_and_destroy_root_lambda.html" target="_top" xlink:title="this one is a bit special: it drops all items and destroys the ex&#45;root of the hierarchy">
<polygon fill="white" stroke="#666666" points="368.75,-260 202,-260 202,-240 368.75,-240 368.75,-260"/>
<text text-anchor="middle" x="285.38" y="-246.5" font-family="Helvetica,sans-Serif" font-size="10.00">DropEquipAndDestroyRootLambda</text>
</a>
</g>
</g>
<!-- Node0&#45;&gt;Node2 -->
<g id="edge1661_Node000000_Node000002" class="edge">
<title>Node0&#45;&gt;Node2</title>
<g id="a_edge1661_Node000000_Node000002"><a xlink:title=" ">
<path fill="none" stroke="#8b1a1a" d="M103.13,-161.28C125.2,-181.37 163.45,-213.14 202,-231 209.32,-234.39 217.3,-237.2 225.32,-239.53"/>
<polygon fill="#8b1a1a" stroke="#8b1a1a" points="105.52,-158.73 95.81,-154.49 100.76,-163.86 105.52,-158.73"/>
</a>
</g>
</g>
<!-- Node4 -->
<g id="Node000004" class="node">
<title>Node4</title>
<g id="a_Node000004"><a xlink:href="d4/d06/class_move_equip_to_existing_item_and_destroy_old_root_lambda.html" target="_top" xlink:title="this one is a also bit special: it moves all items to already existing item and destroys the ex&#45;root ...">
<polygon fill="white" stroke="#666666" points="357.88,-222 212.88,-222 212.88,-190 357.88,-190 357.88,-222"/>
<text text-anchor="start" x="220.88" y="-208.5" font-family="Helvetica,sans-Serif" font-size="10.00">MoveEquipToExistingItemAnd</text>
<text text-anchor="middle" x="285.38" y="-196.5" font-family="Helvetica,sans-Serif" font-size="10.00">DestroyOldRootLambda</text>
</a>
</g>
</g>
<!-- Node0&#45;&gt;Node4 -->
<g id="edge1663_Node000000_Node000004" class="edge">
<title>Node0&#45;&gt;Node4</title>
<g id="a_edge1663_Node000000_Node000004"><a xlink:title=" ">
<path fill="none" stroke="#8b1a1a" d="M126.84,-156.99C149.21,-164.24 177.05,-173.2 202,-181 210.99,-183.81 220.54,-186.75 229.83,-189.59"/>
<polygon fill="#8b1a1a" stroke="#8b1a1a" points="128.04,-153.7 117.45,-153.94 125.88,-160.35 128.04,-153.7"/>
</a>
</g>
</g>
<!-- Node5 -->
<g id="Node000005" class="node">
<title>Node5</title>
<g id="a_Node000005"><a xlink:href="dc/d0d/class_replace_detonator_item_lambda.html" target="_top" xlink:title=" ">
<polygon fill="white" stroke="#666666" points="358.62,-172 212.12,-172 212.12,-152 358.62,-152 358.62,-172"/>
<text text-anchor="middle" x="285.38" y="-158.5" font-family="Helvetica,sans-Serif" font-size="10.00">ReplaceDetonatorItemLambda</text>
</a>
</g>
</g>
<!-- Node0&#45;&gt;Node5 -->
<g id="edge1664_Node000000_Node000005" class="edge">
<title>Node0&#45;&gt;Node5</title>
<g id="a_edge1664_Node000000_Node000005"><a xlink:title=" ">
<path fill="none" stroke="#8b1a1a" d="M177.7,-151.89C189.1,-152.97 200.6,-154.06 211.63,-155.1"/>
<polygon fill="#8b1a1a" stroke="#8b1a1a" points="178.16,-148.41 167.87,-150.95 177.5,-155.38 178.16,-148.41"/>
</a>
</g>
</g>
<!-- Node7 -->
<g id="Node000007" class="node">
<title>Node7</title>
<g id="a_Node000007"><a xlink:href="dc/d0e/class_replace_item_with_new_lambda.html" target="_top" xlink:title="adds automatic QuickBar handling">
<polygon fill="white" stroke="#666666" points="357.12,-134 213.62,-134 213.62,-114 357.12,-114 357.12,-134"/>
<text text-anchor="middle" x="285.38" y="-120.5" font-family="Helvetica,sans-Serif" font-size="10.00">ReplaceItemWithNewLambda</text>
</a>
</g>
</g>
<!-- Node0&#45;&gt;Node7 -->
<g id="edge1666_Node000000_Node000007" class="edge">
<title>Node0&#45;&gt;Node7</title>
<g id="a_edge1666_Node000000_Node000007"><a xlink:title=" ">
<path fill="none" stroke="#8b1a1a" d="M177.74,-134.11C189.67,-132.98 201.72,-131.84 213.21,-130.75"/>
<polygon fill="#8b1a1a" stroke="#8b1a1a" points="177.5,-130.62 167.87,-135.05 178.16,-137.59 177.5,-130.62"/>
</a>
</g>
</g>
<!-- Node9 -->
<g id="Node000009" class="node">
<title>Node9</title>
<g id="a_Node000009"><a xlink:href="d9/d07/class_torch_lambda.html" target="_top" xlink:title=" ">
<polygon fill="white" stroke="#666666" points="322.62,-96 248.12,-96 248.12,-76 322.62,-76 322.62,-96"/>
<text text-anchor="middle" x="285.38" y="-82.5" font-family="Helvetica,sans-Serif" font-size="10.00">TorchLambda</text>
</a>
</g>
</g>
<!-- Node0&#45;&gt;Node9 -->
<g id="edge1668_Node000000_Node000009" class="edge">
<title>Node0&#45;&gt;Node9</title>
<g id="a_edge1668_Node000000_Node000009"><a xlink:title=" ">
<path fill="none" stroke="#8b1a1a" d="M124.76,-128.93C147.37,-121.37 176.09,-112.15 202,-105 216.86,-100.9 233.38,-96.97 247.71,-93.76"/>
<polygon fill="#8b1a1a" stroke="#8b1a1a" points="123.65,-125.61 115.29,-132.13 125.89,-132.24 123.65,-125.61"/>
</a>
</g>
</g>
<!-- Node10 -->
<g id="Node000010" class="node">
<title>Node10</title>
<g id="a_Node000010"><a xlink:href="d5/d06/class_unbox_lambda.html" target="_top" xlink:title=" ">
<polygon fill="white" stroke="#666666" points="324.5,-58 246.25,-58 246.25,-38 324.5,-38 324.5,-58"/>
<text text-anchor="middle" x="285.38" y="-44.5" font-family="Helvetica,sans-Serif" font-size="10.00">UnboxLambda</text>
</a>
</g>
</g>
<!-- Node0&#45;&gt;Node10 -->
<g id="edge1669_Node000000_Node000010" class="edge">
<title>Node0&#45;&gt;Node10</title>
<g id="a_edge1669_Node000000_Node000010"><a xlink:title=" ">
<path fill="none" stroke="#8b1a1a" d="M105.69,-125.72C128.43,-108.43 165.82,-82.27 202,-67 215.79,-61.18 231.67,-56.98 245.78,-54.03"/>
<polygon fill="#8b1a1a" stroke="#8b1a1a" points="103.57,-122.94 97.81,-131.82 107.86,-128.47 103.57,-122.94"/>
</a>
</g>
</g>
<!-- Node11 -->
<g id="Node000011" class="node">
<title>Node11</title>
<g id="a_Node000011"><a xlink:href="d6/d0e/class_unrestrain_self_player.html" target="_top" xlink:title=" ">
<polygon fill="white" stroke="#666666" points="337.62,-20 233.12,-20 233.12,0 337.62,0 337.62,-20"/>
<text text-anchor="middle" x="285.38" y="-6.5" font-family="Helvetica,sans-Serif" font-size="10.00">UnrestrainSelfPlayer</text>
</a>
</g>
</g>
<!-- Node0&#45;&gt;Node11 -->
<g id="edge1670_Node000000_Node000011" class="edge">
<title>Node0&#45;&gt;Node11</title>
<g id="a_edge1670_Node000000_Node000011"><a xlink:title=" ">
<path fill="none" stroke="#8b1a1a" d="M98.3,-123.77C118.49,-98.07 157.83,-52.98 202,-29 211.42,-23.89 222.16,-20.15 232.71,-17.41"/>
<polygon fill="#8b1a1a" stroke="#8b1a1a" points="95.77,-121.32 92.46,-131.38 101.32,-125.58 95.77,-121.32"/>
</a>
</g>
</g>
<!-- Node3 -->
<g id="Node000003" class="node">
<title>Node3</title>
<g id="a_Node000003"><a xlink:href="d4/d07/class_dig_out_stash_lambda.html" target="_top" xlink:title=" ">
<polygon fill="white" stroke="#666666" points="535.5,-260 429.5,-260 429.5,-240 535.5,-240 535.5,-260"/>
<text text-anchor="middle" x="482.5" y="-246.5" font-family="Helvetica,sans-Serif" font-size="10.00">DigOutStashLambda</text>
</a>
</g>
</g>
<!-- Node2&#45;&gt;Node3 -->
<g id="edge1662_Node000002_Node000003" class="edge">
<title>Node2&#45;&gt;Node3</title>
<g id="a_edge1662_Node000002_Node000003"><a xlink:title=" ">
<path fill="none" stroke="#8b1a1a" d="M380.16,-250C397.03,-250 414.04,-250 429.19,-250"/>
<polygon fill="#8b1a1a" stroke="#8b1a1a" points="380.64,-246.5 370.64,-250 380.64,-253.5 380.64,-246.5"/>
</a>
</g>
</g>
<!-- Node6 -->
<g id="Node000006" class="node">
<title>Node6</title>
<g id="a_Node000006"><a xlink:href="d5/d06/class_replace_detonator_item_on_disarm_lambda.html" target="_top" xlink:title=" ">
<polygon fill="white" stroke="#666666" points="560.25,-184 404.75,-184 404.75,-152 560.25,-152 560.25,-184"/>
<text text-anchor="start" x="412.75" y="-170.5" font-family="Helvetica,sans-Serif" font-size="10.00">ReplaceDetonatorItemOnDisarm</text>
<text text-anchor="middle" x="482.5" y="-158.5" font-family="Helvetica,sans-Serif" font-size="10.00">Lambda</text>
</a>
</g>
</g>
<!-- Node5&#45;&gt;Node6 -->
<g id="edge1665_Node000005_Node000006" class="edge">
<title>Node5&#45;&gt;Node6</title>
<g id="a_edge1665_Node000005_Node000006"><a xlink:title=" ">
<path fill="none" stroke="#8b1a1a" d="M370.3,-164.58C381.67,-164.93 393.29,-165.29 404.53,-165.63"/>
<polygon fill="#8b1a1a" stroke="#8b1a1a" points="370.65,-161.09 360.55,-164.28 370.43,-168.09 370.65,-161.09"/>
</a>
</g>
</g>
<!-- Node8 -->
<g id="Node000008" class="node">
<title>Node8</title>
<g id="a_Node000008"><a xlink:href="de/d07/class_action_collect_blood_target_lambda.html" target="_top" xlink:title=" ">
<polygon fill="white" stroke="#666666" points="545.25,-134 419.75,-134 419.75,-102 545.25,-102 545.25,-134"/>
<text text-anchor="start" x="427.75" y="-120.5" font-family="Helvetica,sans-Serif" font-size="10.00">ActionCollectBloodTarget</text>
<text text-anchor="middle" x="482.5" y="-108.5" font-family="Helvetica,sans-Serif" font-size="10.00">Lambda</text>
</a>
</g>
</g>
<!-- Node7&#45;&gt;Node8 -->
<g id="edge1667_Node000007_Node000008" class="edge">
<title>Node7&#45;&gt;Node8</title>
<g id="a_edge1667_Node000007_Node000008"><a xlink:title=" ">
<path fill="none" stroke="#8b1a1a" d="M368.44,-121.48C385.45,-120.95 403.1,-120.41 419.26,-119.91"/>
<polygon fill="#8b1a1a" stroke="#8b1a1a" points="368.77,-117.96 358.88,-121.77 368.99,-124.96 368.77,-117.96"/>
</a>
</g>
</g>
</g>
</svg>
