<?xml version="1.0" encoding="UTF-8" standalone="no"?>
<!DOCTYPE svg PUBLIC "-//W3C//DTD SVG 1.1//EN"
 "http://www.w3.org/Graphics/SVG/1.1/DTD/svg11.dtd">
<!-- Generated by graphviz version 11.0.0 (20240428.1522)
 -->
<!-- Title: Graphical Class Hierarchy Pages: 1 -->
<svg width="383pt" height="256pt"
 viewBox="0.00 0.00 383.00 256.00" xmlns="http://www.w3.org/2000/svg" xmlns:xlink="http://www.w3.org/1999/xlink">
<g id="graph0" class="graph" transform="scale(1 1) rotate(0) translate(4 252)">
<title>Graphical Class Hierarchy</title>
<!-- Node0 -->
<g id="Node000000" class="node">
<title>Node0</title>
<g id="a_Node000000"><a xlink:href="d3/d01/class_workbench_plugin.html" target="_top" xlink:title=" ">
<polygon fill="white" stroke="#666666" points="92.5,-134 0,-134 0,-114 92.5,-114 92.5,-134"/>
<text text-anchor="middle" x="46.25" y="-120.5" font-family="Helvetica,sans-Serif" font-size="10.00">WorkbenchPlugin</text>
</a>
</g>
</g>
<!-- Node1 -->
<g id="Node000001" class="node">
<title>Node1</title>
<g id="a_Node000001"><a xlink:href="da/d0c/class_check_localisation_plugin.html" target="_top" xlink:title=" ">
<polygon fill="white" stroke="#666666" points="251,-248 128.5,-248 128.5,-228 251,-228 251,-248"/>
<text text-anchor="middle" x="189.75" y="-234.5" font-family="Helvetica,sans-Serif" font-size="10.00">CheckLocalisationPlugin</text>
</a>
</g>
</g>
<!-- Node0&#45;&gt;Node1 -->
<g id="edge1780_Node000000_Node000001" class="edge">
<title>Node0&#45;&gt;Node1</title>
<g id="a_edge1780_Node000000_Node000001"><a xlink:title=" ">
<path fill="none" stroke="#8b1a1a" d="M59.4,-143.95C73.48,-165.45 98.61,-199.23 128.5,-219 133.62,-222.39 139.39,-225.2 145.27,-227.53"/>
<polygon fill="#8b1a1a" stroke="#8b1a1a" points="62.36,-142.08 54.05,-135.51 56.45,-145.83 62.36,-142.08"/>
</a>
</g>
</g>
<!-- Node2 -->
<g id="Node000002" class="node">
<title>Node2</title>
<g id="a_Node000002"><a xlink:href="de/d09/class_day_z_tool.html" target="_top" xlink:title=" ">
<polygon fill="white" stroke="#666666" points="218,-210 161.5,-210 161.5,-190 218,-190 218,-210"/>
<text text-anchor="middle" x="189.75" y="-196.5" font-family="Helvetica,sans-Serif" font-size="10.00">DayZTool</text>
</a>
</g>
</g>
<!-- Node0&#45;&gt;Node2 -->
<g id="edge1781_Node000000_Node000002" class="edge">
<title>Node0&#45;&gt;Node2</title>
<g id="a_edge1781_Node000000_Node000002"><a xlink:title=" ">
<path fill="none" stroke="#8b1a1a" d="M68.31,-141.5C84.09,-153.9 106.62,-170.2 128.5,-181 138.73,-186.05 150.59,-190.13 161.07,-193.2"/>
<polygon fill="#8b1a1a" stroke="#8b1a1a" points="70.6,-138.85 60.62,-135.31 66.22,-144.31 70.6,-138.85"/>
</a>
</g>
</g>
<!-- Node5 -->
<g id="Node000005" class="node">
<title>Node5</title>
<g id="a_Node000005"><a xlink:href="d4/d0a/class_open_dir_plugin.html" target="_top" xlink:title=" ">
<polygon fill="white" stroke="#666666" points="228.88,-172 150.62,-172 150.62,-152 228.88,-152 228.88,-172"/>
<text text-anchor="middle" x="189.75" y="-158.5" font-family="Helvetica,sans-Serif" font-size="10.00">OpenDirPlugin</text>
</a>
</g>
</g>
<!-- Node0&#45;&gt;Node5 -->
<g id="edge1784_Node000000_Node000005" class="edge">
<title>Node0&#45;&gt;Node5</title>
<g id="a_edge1784_Node000000_Node000005"><a xlink:title=" ">
<path fill="none" stroke="#8b1a1a" d="M96.91,-137.34C114.44,-142.04 133.87,-147.26 150.33,-151.68"/>
<polygon fill="#8b1a1a" stroke="#8b1a1a" points="98.32,-134.09 87.75,-134.88 96.5,-140.85 98.32,-134.09"/>
</a>
</g>
</g>
<!-- Node6 -->
<g id="Node000006" class="node">
<title>Node6</title>
<g id="a_Node000006"><a xlink:href="de/d0d/class_resave_plugin.html" target="_top" xlink:title=" ">
<polygon fill="white" stroke="#666666" points="227,-134 152.5,-134 152.5,-114 227,-114 227,-134"/>
<text text-anchor="middle" x="189.75" y="-120.5" font-family="Helvetica,sans-Serif" font-size="10.00">ResavePlugin</text>
</a>
</g>
</g>
<!-- Node0&#45;&gt;Node6 -->
<g id="edge1785_Node000000_Node000006" class="edge">
<title>Node0&#45;&gt;Node6</title>
<g id="a_edge1785_Node000000_Node000006"><a xlink:title=" ">
<path fill="none" stroke="#8b1a1a" d="M103.87,-124C120.17,-124 137.51,-124 152.24,-124"/>
<polygon fill="#8b1a1a" stroke="#8b1a1a" points="104.31,-120.5 94.31,-124 104.31,-127.5 104.31,-120.5"/>
</a>
</g>
</g>
<!-- Node7 -->
<g id="Node000007" class="node">
<title>Node7</title>
<g id="a_Node000007"><a xlink:href="d5/d0f/class_s_v_n_blame_plugin.html" target="_top" xlink:title=" ">
<polygon fill="white" stroke="#666666" points="235.25,-96 144.25,-96 144.25,-76 235.25,-76 235.25,-96"/>
<text text-anchor="middle" x="189.75" y="-82.5" font-family="Helvetica,sans-Serif" font-size="10.00">SVNBlamePlugin</text>
</a>
</g>
</g>
<!-- Node0&#45;&gt;Node7 -->
<g id="edge1786_Node000000_Node000007" class="edge">
<title>Node0&#45;&gt;Node7</title>
<g id="a_edge1786_Node000000_Node000007"><a xlink:title=" ">
<path fill="none" stroke="#8b1a1a" d="M97.32,-110.55C114.57,-105.92 133.61,-100.81 149.84,-96.45"/>
<polygon fill="#8b1a1a" stroke="#8b1a1a" points="96.5,-107.15 87.75,-113.12 98.32,-113.91 96.5,-107.15"/>
</a>
</g>
</g>
<!-- Node8 -->
<g id="Node000008" class="node">
<title>Node8</title>
<g id="a_Node000008"><a xlink:href="df/d02/class_s_v_n_diff_plugin.html" target="_top" xlink:title=" ">
<polygon fill="white" stroke="#666666" points="228.12,-58 151.38,-58 151.38,-38 228.12,-38 228.12,-58"/>
<text text-anchor="middle" x="189.75" y="-44.5" font-family="Helvetica,sans-Serif" font-size="10.00">SVNDiffPlugin</text>
</a>
</g>
</g>
<!-- Node0&#45;&gt;Node8 -->
<g id="edge1787_Node000000_Node000008" class="edge">
<title>Node0&#45;&gt;Node8</title>
<g id="a_edge1787_Node000000_Node000008"><a xlink:title=" ">
<path fill="none" stroke="#8b1a1a" d="M68.31,-106.5C84.09,-94.1 106.62,-77.8 128.5,-67 135.58,-63.5 143.44,-60.47 151.09,-57.92"/>
<polygon fill="#8b1a1a" stroke="#8b1a1a" points="66.22,-103.69 60.62,-112.69 70.6,-109.15 66.22,-103.69"/>
</a>
</g>
</g>
<!-- Node9 -->
<g id="Node000009" class="node">
<title>Node9</title>
<g id="a_Node000009"><a xlink:href="d1/d05/class_s_v_n_show_log_plugin.html" target="_top" xlink:title=" ">
<polygon fill="white" stroke="#666666" points="241.25,-20 138.25,-20 138.25,0 241.25,0 241.25,-20"/>
<text text-anchor="middle" x="189.75" y="-6.5" font-family="Helvetica,sans-Serif" font-size="10.00">SVNShowLogPlugin</text>
</a>
</g>
</g>
<!-- Node0&#45;&gt;Node9 -->
<g id="edge1788_Node000000_Node000009" class="edge">
<title>Node0&#45;&gt;Node9</title>
<g id="a_edge1788_Node000000_Node000009"><a xlink:title=" ">
<path fill="none" stroke="#8b1a1a" d="M59.4,-104.05C73.48,-82.55 98.61,-48.77 128.5,-29 133.62,-25.61 139.39,-22.8 145.27,-20.47"/>
<polygon fill="#8b1a1a" stroke="#8b1a1a" points="56.45,-102.17 54.05,-112.49 62.36,-105.92 56.45,-102.17"/>
</a>
</g>
</g>
<!-- Node3 -->
<g id="Node000003" class="node">
<title>Node3</title>
<g id="a_Node000003"><a xlink:href="d2/d03/class_kill_dayz_tool.html" target="_top" xlink:title=" ">
<polygon fill="white" stroke="#666666" points="366,-229 296,-229 296,-209 366,-209 366,-229"/>
<text text-anchor="middle" x="331" y="-215.5" font-family="Helvetica,sans-Serif" font-size="10.00">KillDayzTool</text>
</a>
</g>
</g>
<!-- Node2&#45;&gt;Node3 -->
<g id="edge1782_Node000002_Node000003" class="edge">
<title>Node2&#45;&gt;Node3</title>
<g id="a_edge1782_Node000002_Node000003"><a xlink:title=" ">
<path fill="none" stroke="#8b1a1a" d="M229.56,-205.3C250.3,-208.13 275.61,-211.58 295.63,-214.31"/>
<polygon fill="#8b1a1a" stroke="#8b1a1a" points="230.14,-201.84 219.76,-203.96 229.2,-208.78 230.14,-201.84"/>
</a>
</g>
</g>
<!-- Node4 -->
<g id="Node000004" class="node">
<title>Node4</title>
<g id="a_Node000004"><a xlink:href="d1/d07/class_restart_dayz_tool.html" target="_top" xlink:title=" ">
<polygon fill="white" stroke="#666666" points="375,-191 287,-191 287,-171 375,-171 375,-191"/>
<text text-anchor="middle" x="331" y="-177.5" font-family="Helvetica,sans-Serif" font-size="10.00">RestartDayzTool</text>
</a>
</g>
</g>
<!-- Node2&#45;&gt;Node4 -->
<g id="edge1783_Node000002_Node000004" class="edge">
<title>Node2&#45;&gt;Node4</title>
<g id="a_edge1783_Node000002_Node000004"><a xlink:title=" ">
<path fill="none" stroke="#8b1a1a" d="M229.64,-194.69C247.37,-192.27 268.42,-189.4 286.65,-186.92"/>
<polygon fill="#8b1a1a" stroke="#8b1a1a" points="229.2,-191.22 219.76,-196.04 230.14,-198.16 229.2,-191.22"/>
</a>
</g>
</g>
</g>
</svg>
