<?xml version="1.0" encoding="UTF-8" standalone="no"?>
<!DOCTYPE svg PUBLIC "-//W3C//DTD SVG 1.1//EN"
 "http://www.w3.org/Graphics/SVG/1.1/DTD/svg11.dtd">
<!-- Generated by graphviz version 11.0.0 (20240428.1522)
 -->
<!-- Title: Graphical Class Hierarchy Pages: 1 -->
<svg width="234pt" height="66pt"
 viewBox="0.00 0.00 233.50 66.00" xmlns="http://www.w3.org/2000/svg" xmlns:xlink="http://www.w3.org/1999/xlink">
<g id="graph0" class="graph" transform="scale(1 1) rotate(0) translate(4 62)">
<title>Graphical Class Hierarchy</title>
<!-- Node0 -->
<g id="Node000000" class="node">
<title>Node0</title>
<g id="a_Node000000"><a xlink:href="da/d00/class_bottle___base.html" target="_top" xlink:title=" ">
<polygon fill="white" stroke="#666666" points="69.25,-39 0,-39 0,-19 69.25,-19 69.25,-39"/>
<text text-anchor="middle" x="34.62" y="-25.5" font-family="Helvetica,sans-Serif" font-size="10.00">Bottle_Base</text>
</a>
</g>
</g>
<!-- Node1 -->
<g id="Node000001" class="node">
<title>Node1</title>
<g id="a_Node000001"><a xlink:href="df/d09/class_vodka.html" target="_top" xlink:title=" ">
<polygon fill="white" stroke="#666666" points="187.25,-58 143.5,-58 143.5,-38 187.25,-38 187.25,-58"/>
<text text-anchor="middle" x="165.38" y="-44.5" font-family="Helvetica,sans-Serif" font-size="10.00">Vodka</text>
</a>
</g>
</g>
<!-- Node0&#45;&gt;Node1 -->
<g id="edge407_Node000000_Node000001" class="edge">
<title>Node0&#45;&gt;Node1</title>
<g id="a_edge407_Node000000_Node000001"><a xlink:title=" ">
<path fill="none" stroke="#8b1a1a" d="M80.57,-35.63C101.87,-38.78 126.3,-42.38 143.26,-44.88"/>
<polygon fill="#8b1a1a" stroke="#8b1a1a" points="81.35,-32.21 70.95,-34.21 80.33,-39.14 81.35,-32.21"/>
</a>
</g>
</g>
<!-- Node2 -->
<g id="Node000002" class="node">
<title>Node2</title>
<g id="a_Node000002"><a xlink:href="d0/d0c/class_water_pouch___color_base.html" target="_top" xlink:title=" ">
<polygon fill="white" stroke="#666666" points="225.5,-20 105.25,-20 105.25,0 225.5,0 225.5,-20"/>
<text text-anchor="middle" x="165.38" y="-6.5" font-family="Helvetica,sans-Serif" font-size="10.00">WaterPouch_ColorBase</text>
</a>
</g>
</g>
<!-- Node0&#45;&gt;Node2 -->
<g id="edge408_Node000000_Node000002" class="edge">
<title>Node0&#45;&gt;Node2</title>
<g id="a_edge408_Node000000_Node000002"><a xlink:title=" ">
<path fill="none" stroke="#8b1a1a" d="M80.59,-22.36C88.44,-21.21 96.71,-19.99 104.88,-18.78"/>
<polygon fill="#8b1a1a" stroke="#8b1a1a" points="80.33,-18.86 70.95,-23.79 81.35,-25.79 80.33,-18.86"/>
</a>
</g>
</g>
</g>
</svg>
