<?xml version="1.0" encoding="UTF-8" standalone="no"?>
<!DOCTYPE svg PUBLIC "-//W3C//DTD SVG 1.1//EN"
 "http://www.w3.org/Graphics/SVG/1.1/DTD/svg11.dtd">
<!-- Generated by graphviz version 11.0.0 (20240428.1522)
 -->
<!-- Title: Graphical Class Hierarchy Pages: 1 -->
<svg width="244pt" height="2004pt"
 viewBox="0.00 0.00 244.00 2004.00" xmlns="http://www.w3.org/2000/svg" xmlns:xlink="http://www.w3.org/1999/xlink">
<g id="graph0" class="graph" transform="scale(1 1) rotate(0) translate(4 2000)">
<title>Graphical Class Hierarchy</title>
<!-- Node0 -->
<g id="Node000000" class="node">
<title>Node0</title>
<g id="a_Node000000"><a xlink:href="d8/d0a/class_modifier_base.html" target="_top" xlink:title=" ">
<polygon fill="white" stroke="#666666" points="72.25,-1008 0,-1008 0,-988 72.25,-988 72.25,-1008"/>
<text text-anchor="middle" x="36.12" y="-994.5" font-family="Helvetica,sans-Serif" font-size="10.00">ModifierBase</text>
</a>
</g>
</g>
<!-- Node1 -->
<g id="Node000001" class="node">
<title>Node1</title>
<g id="a_Node000001"><a xlink:href="d2/d0f/class_antibiotics_mdfr.html" target="_top" xlink:title=" ">
<polygon fill="white" stroke="#666666" points="212.38,-1996 131.88,-1996 131.88,-1976 212.38,-1976 212.38,-1996"/>
<text text-anchor="middle" x="172.12" y="-1982.5" font-family="Helvetica,sans-Serif" font-size="10.00">AntibioticsMdfr</text>
</a>
</g>
</g>
<!-- Node0&#45;&gt;Node1 -->
<g id="edge1294_Node000000_Node000001" class="edge">
<title>Node0&#45;&gt;Node1</title>
<g id="a_edge1294_Node000000_Node000001"><a xlink:title=" ">
<path fill="none" stroke="#8b1a1a" d="M37.27,-1019.49C38.35,-1155.22 47.02,-1890.55 108.25,-1967 114.1,-1974.3 122.65,-1978.87 131.57,-1981.71"/>
<polygon fill="#8b1a1a" stroke="#8b1a1a" points="40.77,-1019.75 37.2,-1009.78 33.77,-1019.8 40.77,-1019.75"/>
</a>
</g>
</g>
<!-- Node2 -->
<g id="Node000002" class="node">
<title>Node2</title>
<g id="a_Node000002"><a xlink:href="d2/d00/class_area_exposure_mdfr.html" target="_top" xlink:title=" ">
<polygon fill="white" stroke="#666666" points="220.25,-1958 124,-1958 124,-1938 220.25,-1938 220.25,-1958"/>
<text text-anchor="middle" x="172.12" y="-1944.5" font-family="Helvetica,sans-Serif" font-size="10.00">AreaExposureMdfr</text>
</a>
</g>
</g>
<!-- Node0&#45;&gt;Node2 -->
<g id="edge1295_Node000000_Node000002" class="edge">
<title>Node0&#45;&gt;Node2</title>
<g id="a_edge1295_Node000000_Node000002"><a xlink:title=" ">
<path fill="none" stroke="#8b1a1a" d="M37.34,-1019.87C38.84,-1153.43 49.48,-1855.85 108.25,-1929 112.32,-1934.07 117.7,-1937.82 123.59,-1940.59"/>
<polygon fill="#8b1a1a" stroke="#8b1a1a" points="40.84,-1019.94 37.23,-1009.98 33.84,-1020.01 40.84,-1019.94"/>
</a>
</g>
</g>
<!-- Node3 -->
<g id="Node000003" class="node">
<title>Node3</title>
<g id="a_Node000003"><a xlink:href="d0/d0a/class_bleeding_check_mdfr.html" target="_top" xlink:title=" ">
<polygon fill="white" stroke="#666666" points="222.12,-1920 122.12,-1920 122.12,-1900 222.12,-1900 222.12,-1920"/>
<text text-anchor="middle" x="172.12" y="-1906.5" font-family="Helvetica,sans-Serif" font-size="10.00">BleedingCheckMdfr</text>
</a>
</g>
</g>
<!-- Node0&#45;&gt;Node3 -->
<g id="edge1296_Node000000_Node000003" class="edge">
<title>Node0&#45;&gt;Node3</title>
<g id="a_edge1296_Node000000_Node000003"><a xlink:title=" ">
<path fill="none" stroke="#8b1a1a" d="M37.41,-1019.78C39.32,-1149.87 51.87,-1821.05 108.25,-1891 111.9,-1895.53 116.59,-1899.01 121.76,-1901.67"/>
<polygon fill="#8b1a1a" stroke="#8b1a1a" points="40.91,-1019.8 37.27,-1009.85 33.91,-1019.9 40.91,-1019.8"/>
</a>
</g>
</g>
<!-- Node4 -->
<g id="Node000004" class="node">
<title>Node4</title>
<g id="a_Node000004"><a xlink:href="d1/d09/class_blinded_mdfr.html" target="_top" xlink:title=" ">
<polygon fill="white" stroke="#666666" points="205.62,-1882 138.62,-1882 138.62,-1862 205.62,-1862 205.62,-1882"/>
<text text-anchor="middle" x="172.12" y="-1868.5" font-family="Helvetica,sans-Serif" font-size="10.00">BlindedMdfr</text>
</a>
</g>
</g>
<!-- Node0&#45;&gt;Node4 -->
<g id="edge1297_Node000000_Node000004" class="edge">
<title>Node0&#45;&gt;Node4</title>
<g id="a_edge1297_Node000000_Node000004"><a xlink:title=" ">
<path fill="none" stroke="#8b1a1a" d="M37.49,-1019.64C39.82,-1146.1 54.25,-1786.24 108.25,-1853 115.57,-1862.04 127.03,-1866.9 138.18,-1869.46"/>
<polygon fill="#8b1a1a" stroke="#8b1a1a" points="41,-1019.92 37.32,-1009.99 34,-1020.05 41,-1019.92"/>
</a>
</g>
</g>
<!-- Node5 -->
<g id="Node000005" class="node">
<title>Node5</title>
<g id="a_Node000005"><a xlink:href="db/d07/class_blood_regen_mdfr.html" target="_top" xlink:title=" ">
<polygon fill="white" stroke="#666666" points="215.75,-1844 128.5,-1844 128.5,-1824 215.75,-1824 215.75,-1844"/>
<text text-anchor="middle" x="172.12" y="-1830.5" font-family="Helvetica,sans-Serif" font-size="10.00">BloodRegenMdfr</text>
</a>
</g>
</g>
<!-- Node0&#45;&gt;Node5 -->
<g id="edge1298_Node000000_Node000005" class="edge">
<title>Node0&#45;&gt;Node5</title>
<g id="a_edge1298_Node000000_Node000005"><a xlink:title=" ">
<path fill="none" stroke="#8b1a1a" d="M37.58,-1019.43C40.34,-1142.05 56.62,-1751.42 108.25,-1815 113.35,-1821.28 120.46,-1825.55 128.07,-1828.42"/>
<polygon fill="#8b1a1a" stroke="#8b1a1a" points="41.08,-1019.72 37.37,-1009.8 34.08,-1019.88 41.08,-1019.72"/>
</a>
</g>
</g>
<!-- Node6 -->
<g id="Node000006" class="node">
<title>Node6</title>
<g id="a_Node000006"><a xlink:href="d4/d0b/class_bone_regen_mdfr.html" target="_top" xlink:title=" ">
<polygon fill="white" stroke="#666666" points="214.62,-1806 129.62,-1806 129.62,-1786 214.62,-1786 214.62,-1806"/>
<text text-anchor="middle" x="172.12" y="-1792.5" font-family="Helvetica,sans-Serif" font-size="10.00">BoneRegenMdfr</text>
</a>
</g>
</g>
<!-- Node0&#45;&gt;Node6 -->
<g id="edge1299_Node000000_Node000006" class="edge">
<title>Node0&#45;&gt;Node6</title>
<g id="a_edge1299_Node000000_Node000006"><a xlink:title=" ">
<path fill="none" stroke="#8b1a1a" d="M37.68,-1019.54C40.91,-1138.98 59.03,-1716.65 108.25,-1777 113.66,-1783.63 121.29,-1788 129.38,-1790.88"/>
<polygon fill="#8b1a1a" stroke="#8b1a1a" points="41.18,-1019.78 37.42,-1009.87 34.18,-1019.96 41.18,-1019.78"/>
</a>
</g>
</g>
<!-- Node7 -->
<g id="Node000007" class="node">
<title>Node7</title>
<g id="a_Node000007"><a xlink:href="d8/d0a/class_brain_disease_mdfr.html" target="_top" xlink:title=" ">
<polygon fill="white" stroke="#666666" points="218.38,-1768 125.88,-1768 125.88,-1748 218.38,-1748 218.38,-1768"/>
<text text-anchor="middle" x="172.12" y="-1754.5" font-family="Helvetica,sans-Serif" font-size="10.00">BrainDiseaseMdfr</text>
</a>
</g>
</g>
<!-- Node0&#45;&gt;Node7 -->
<g id="edge1300_Node000000_Node000007" class="edge">
<title>Node0&#45;&gt;Node7</title>
<g id="a_edge1300_Node000000_Node000007"><a xlink:title=" ">
<path fill="none" stroke="#8b1a1a" d="M37.78,-1019.57C41.5,-1135.53 61.42,-1681.85 108.25,-1739 112.8,-1744.56 118.92,-1748.53 125.56,-1751.36"/>
<polygon fill="#8b1a1a" stroke="#8b1a1a" points="41.29,-1019.79 37.48,-1009.9 34.29,-1020.01 41.29,-1019.79"/>
</a>
</g>
</g>
<!-- Node8 -->
<g id="Node000008" class="node">
<title>Node8</title>
<g id="a_Node000008"><a xlink:href="d8/d06/class_broken_arms_mdfr.html" target="_top" xlink:title=" ">
<polygon fill="white" stroke="#666666" points="216.5,-1730 127.75,-1730 127.75,-1710 216.5,-1710 216.5,-1730"/>
<text text-anchor="middle" x="172.12" y="-1716.5" font-family="Helvetica,sans-Serif" font-size="10.00">BrokenArmsMdfr</text>
</a>
</g>
</g>
<!-- Node0&#45;&gt;Node8 -->
<g id="edge1301_Node000000_Node000008" class="edge">
<title>Node0&#45;&gt;Node8</title>
<g id="a_edge1301_Node000000_Node000008"><a xlink:title=" ">
<path fill="none" stroke="#8b1a1a" d="M37.91,-1019.85C42.16,-1132.77 63.84,-1647.09 108.25,-1701 113.25,-1707.07 120.13,-1711.25 127.5,-1714.12"/>
<polygon fill="#8b1a1a" stroke="#8b1a1a" points="41.41,-1019.75 37.54,-1009.89 34.41,-1020.01 41.41,-1019.75"/>
</a>
</g>
</g>
<!-- Node9 -->
<g id="Node000009" class="node">
<title>Node9</title>
<g id="a_Node000009"><a xlink:href="d9/d0c/class_broken_legs_mdfr.html" target="_top" xlink:title=" ">
<polygon fill="white" stroke="#666666" points="215.38,-1692 128.88,-1692 128.88,-1672 215.38,-1672 215.38,-1692"/>
<text text-anchor="middle" x="172.12" y="-1678.5" font-family="Helvetica,sans-Serif" font-size="10.00">BrokenLegsMdfr</text>
</a>
</g>
</g>
<!-- Node0&#45;&gt;Node9 -->
<g id="edge1302_Node000000_Node000009" class="edge">
<title>Node0&#45;&gt;Node9</title>
<g id="a_edge1302_Node000000_Node000009"><a xlink:title=" ">
<path fill="none" stroke="#8b1a1a" d="M38.02,-1019.34C42.75,-1127.52 66.16,-1612.2 108.25,-1663 113.49,-1669.32 120.75,-1673.59 128.49,-1676.46"/>
<polygon fill="#8b1a1a" stroke="#8b1a1a" points="41.53,-1019.42 37.6,-1009.58 34.53,-1019.72 41.53,-1019.42"/>
</a>
</g>
</g>
<!-- Node10 -->
<g id="Node000010" class="node">
<title>Node10</title>
<g id="a_Node000010"><a xlink:href="d0/d07/class_burning_mdfr.html" target="_top" xlink:title=" ">
<polygon fill="white" stroke="#666666" points="206,-1654 138.25,-1654 138.25,-1634 206,-1634 206,-1654"/>
<text text-anchor="middle" x="172.12" y="-1640.5" font-family="Helvetica,sans-Serif" font-size="10.00">BurningMdfr</text>
</a>
</g>
</g>
<!-- Node0&#45;&gt;Node10 -->
<g id="edge1303_Node000000_Node000010" class="edge">
<title>Node0&#45;&gt;Node10</title>
<g id="a_edge1303_Node000000_Node000010"><a xlink:title=" ">
<path fill="none" stroke="#8b1a1a" d="M38.19,-1019.76C43.51,-1124.92 68.59,-1577.45 108.25,-1625 115.63,-1633.84 126.97,-1638.67 138,-1641.27"/>
<polygon fill="#8b1a1a" stroke="#8b1a1a" points="41.69,-1019.79 37.7,-1009.98 34.7,-1020.14 41.69,-1019.79"/>
</a>
</g>
</g>
<!-- Node11 -->
<g id="Node000011" class="node">
<title>Node11</title>
<g id="a_Node000011"><a xlink:href="da/d01/class_charcoal_mdfr.html" target="_top" xlink:title=" ">
<polygon fill="white" stroke="#666666" points="208.62,-1616 135.62,-1616 135.62,-1596 208.62,-1596 208.62,-1616"/>
<text text-anchor="middle" x="172.12" y="-1602.5" font-family="Helvetica,sans-Serif" font-size="10.00">CharcoalMdfr</text>
</a>
</g>
</g>
<!-- Node0&#45;&gt;Node11 -->
<g id="edge1304_Node000000_Node000011" class="edge">
<title>Node0&#45;&gt;Node11</title>
<g id="a_edge1304_Node000000_Node000011"><a xlink:title=" ">
<path fill="none" stroke="#8b1a1a" d="M36.7,-1019.53C35.24,-1114.94 34.14,-1498.79 108.25,-1587 115.07,-1595.12 125.24,-1599.85 135.41,-1602.58"/>
<polygon fill="#8b1a1a" stroke="#8b1a1a" points="40.19,-1019.83 36.87,-1009.77 33.19,-1019.71 40.19,-1019.83"/>
</a>
</g>
</g>
<!-- Node12 -->
<g id="Node000012" class="node">
<title>Node12</title>
<g id="a_Node000012"><a xlink:href="d2/d07/class_cholera_mdfr.html" target="_top" xlink:title=" ">
<polygon fill="white" stroke="#666666" points="206,-1578 138.25,-1578 138.25,-1558 206,-1558 206,-1578"/>
<text text-anchor="middle" x="172.12" y="-1564.5" font-family="Helvetica,sans-Serif" font-size="10.00">CholeraMdfr</text>
</a>
</g>
</g>
<!-- Node0&#45;&gt;Node12 -->
<g id="edge1305_Node000000_Node000012" class="edge">
<title>Node0&#45;&gt;Node12</title>
<g id="a_edge1305_Node000000_Node000012"><a xlink:title=" ">
<path fill="none" stroke="#8b1a1a" d="M36.9,-1019.87C36.37,-1111.97 38.95,-1467.2 108.25,-1549 115.69,-1557.79 127.05,-1562.6 138.08,-1565.2"/>
<polygon fill="#8b1a1a" stroke="#8b1a1a" points="40.39,-1020.01 36.97,-1009.98 33.39,-1019.95 40.39,-1020.01"/>
</a>
</g>
</g>
<!-- Node13 -->
<g id="Node000013" class="node">
<title>Node13</title>
<g id="a_Node000013"><a xlink:href="d2/d06/class_common_cold_mdfr.html" target="_top" xlink:title=" ">
<polygon fill="white" stroke="#666666" points="218.75,-1540 125.5,-1540 125.5,-1520 218.75,-1520 218.75,-1540"/>
<text text-anchor="middle" x="172.12" y="-1526.5" font-family="Helvetica,sans-Serif" font-size="10.00">CommonColdMdfr</text>
</a>
</g>
</g>
<!-- Node0&#45;&gt;Node13 -->
<g id="edge1306_Node000000_Node000013" class="edge">
<title>Node0&#45;&gt;Node13</title>
<g id="a_edge1306_Node000000_Node000013"><a xlink:title=" ">
<path fill="none" stroke="#8b1a1a" d="M37.13,-1019.46C37.57,-1106.93 43.56,-1435.37 108.25,-1511 112.77,-1516.29 118.71,-1520.13 125.13,-1522.92"/>
<polygon fill="#8b1a1a" stroke="#8b1a1a" points="40.63,-1019.67 37.1,-1009.68 33.63,-1019.69 40.63,-1019.67"/>
</a>
</g>
</g>
<!-- Node14 -->
<g id="Node000014" class="node">
<title>Node14</title>
<g id="a_Node000014"><a xlink:href="dd/d00/class_contamination_stage1_mdfr.html" target="_top" xlink:title=" ">
<polygon fill="white" stroke="#666666" points="236,-1502 108.25,-1502 108.25,-1482 236,-1482 236,-1502"/>
<text text-anchor="middle" x="172.12" y="-1488.5" font-family="Helvetica,sans-Serif" font-size="10.00">ContaminationStage1Mdfr</text>
</a>
</g>
</g>
<!-- Node0&#45;&gt;Node14 -->
<g id="edge1307_Node000000_Node000014" class="edge">
<title>Node0&#45;&gt;Node14</title>
<g id="a_edge1307_Node000000_Node000014"><a xlink:title=" ">
<path fill="none" stroke="#8b1a1a" d="M37.39,-1019.71C38.87,-1103.39 48.32,-1403.7 108.25,-1473 111.23,-1476.45 114.82,-1479.29 118.75,-1481.62"/>
<polygon fill="#8b1a1a" stroke="#8b1a1a" points="40.89,-1019.67 37.24,-1009.73 33.9,-1019.78 40.89,-1019.67"/>
</a>
</g>
</g>
<!-- Node15 -->
<g id="Node000015" class="node">
<title>Node15</title>
<g id="a_Node000015"><a xlink:href="d9/d05/class_contamination_stage2_mdfr.html" target="_top" xlink:title=" ">
<polygon fill="white" stroke="#666666" points="236,-1464 108.25,-1464 108.25,-1444 236,-1444 236,-1464"/>
<text text-anchor="middle" x="172.12" y="-1450.5" font-family="Helvetica,sans-Serif" font-size="10.00">ContaminationStage2Mdfr</text>
</a>
</g>
</g>
<!-- Node0&#45;&gt;Node15 -->
<g id="edge1308_Node000000_Node000015" class="edge">
<title>Node0&#45;&gt;Node15</title>
<g id="a_edge1308_Node000000_Node000015"><a xlink:title=" ">
<path fill="none" stroke="#8b1a1a" d="M37.7,-1019.49C40.24,-1098.53 52.96,-1371.87 108.25,-1435 111.26,-1438.43 114.86,-1441.25 118.79,-1443.57"/>
<polygon fill="#8b1a1a" stroke="#8b1a1a" points="41.2,-1019.57 37.41,-1009.67 34.21,-1019.77 41.2,-1019.57"/>
</a>
</g>
</g>
<!-- Node16 -->
<g id="Node000016" class="node">
<title>Node16</title>
<g id="a_Node000016"><a xlink:href="db/d0e/class_contamination_stage3_mdfr.html" target="_top" xlink:title=" ">
<polygon fill="white" stroke="#666666" points="236,-1426 108.25,-1426 108.25,-1406 236,-1406 236,-1426"/>
<text text-anchor="middle" x="172.12" y="-1412.5" font-family="Helvetica,sans-Serif" font-size="10.00">ContaminationStage3Mdfr</text>
</a>
</g>
</g>
<!-- Node0&#45;&gt;Node16 -->
<g id="edge1309_Node000000_Node000016" class="edge">
<title>Node0&#45;&gt;Node16</title>
<g id="a_edge1309_Node000000_Node000016"><a xlink:title=" ">
<path fill="none" stroke="#8b1a1a" d="M38.07,-1019.53C41.76,-1094.12 57.64,-1340.09 108.25,-1397 111.28,-1400.41 114.9,-1403.22 118.85,-1405.53"/>
<polygon fill="#8b1a1a" stroke="#8b1a1a" points="41.58,-1019.71 37.62,-1009.88 34.59,-1020.03 41.58,-1019.71"/>
</a>
</g>
</g>
<!-- Node17 -->
<g id="Node000017" class="node">
<title>Node17</title>
<g id="a_Node000017"><a xlink:href="df/d00/class_disinfection_mdfr.html" target="_top" xlink:title=" ">
<polygon fill="white" stroke="#666666" points="214.62,-1388 129.62,-1388 129.62,-1368 214.62,-1368 214.62,-1388"/>
<text text-anchor="middle" x="172.12" y="-1374.5" font-family="Helvetica,sans-Serif" font-size="10.00">DisinfectionMdfr</text>
</a>
</g>
</g>
<!-- Node0&#45;&gt;Node17 -->
<g id="edge1310_Node000000_Node000017" class="edge">
<title>Node0&#45;&gt;Node17</title>
<g id="a_edge1310_Node000000_Node000017"><a xlink:title=" ">
<path fill="none" stroke="#8b1a1a" d="M38.52,-1019.7C43.46,-1089.77 62.33,-1308.3 108.25,-1359 113.84,-1365.17 121.35,-1369.37 129.24,-1372.21"/>
<polygon fill="#8b1a1a" stroke="#8b1a1a" points="42.03,-1019.67 37.86,-1009.93 35.05,-1020.15 42.03,-1019.67"/>
</a>
</g>
</g>
<!-- Node18 -->
<g id="Node000018" class="node">
<title>Node18</title>
<g id="a_Node000018"><a xlink:href="df/d0b/class_drowning_mdfr.html" target="_top" xlink:title=" ">
<polygon fill="white" stroke="#666666" points="209.38,-1350 134.88,-1350 134.88,-1330 209.38,-1330 209.38,-1350"/>
<text text-anchor="middle" x="172.12" y="-1336.5" font-family="Helvetica,sans-Serif" font-size="10.00">DrowningMdfr</text>
</a>
</g>
</g>
<!-- Node0&#45;&gt;Node18 -->
<g id="edge1311_Node000000_Node000018" class="edge">
<title>Node0&#45;&gt;Node18</title>
<g id="a_edge1311_Node000000_Node000018"><a xlink:title=" ">
<path fill="none" stroke="#8b1a1a" d="M39.05,-1019.5C45.28,-1084.37 66.92,-1276.37 108.25,-1321 115.15,-1328.45 124.85,-1333.01 134.57,-1335.8"/>
<polygon fill="#8b1a1a" stroke="#8b1a1a" points="42.56,-1019.45 38.15,-1009.81 35.59,-1020.09 42.56,-1019.45"/>
</a>
</g>
</g>
<!-- Node19 -->
<g id="Node000019" class="node">
<title>Node19</title>
<g id="a_Node000019"><a xlink:href="de/d02/class_epinephrine_mdfr.html" target="_top" xlink:title=" ">
<polygon fill="white" stroke="#666666" points="215,-1312 129.25,-1312 129.25,-1292 215,-1292 215,-1312"/>
<text text-anchor="middle" x="172.12" y="-1298.5" font-family="Helvetica,sans-Serif" font-size="10.00">EpinephrineMdfr</text>
</a>
</g>
</g>
<!-- Node0&#45;&gt;Node19 -->
<g id="edge1312_Node000000_Node000019" class="edge">
<title>Node0&#45;&gt;Node19</title>
<g id="a_edge1312_Node000000_Node000019"><a xlink:title=" ">
<path fill="none" stroke="#8b1a1a" d="M39.76,-1019.66C47.42,-1079.37 71.55,-1244.46 108.25,-1283 113.83,-1288.86 121.16,-1292.94 128.82,-1295.76"/>
<polygon fill="#8b1a1a" stroke="#8b1a1a" points="43.24,-1019.3 38.52,-1009.81 36.29,-1020.17 43.24,-1019.3"/>
</a>
</g>
</g>
<!-- Node20 -->
<g id="Node000020" class="node">
<title>Node20</title>
<g id="a_Node000020"><a xlink:href="d3/d05/class_fatigue_mdfr.html" target="_top" xlink:title=" ">
<polygon fill="white" stroke="#666666" points="205.62,-1274 138.62,-1274 138.62,-1254 205.62,-1254 205.62,-1274"/>
<text text-anchor="middle" x="172.12" y="-1260.5" font-family="Helvetica,sans-Serif" font-size="10.00">FatigueMdfr</text>
</a>
</g>
</g>
<!-- Node0&#45;&gt;Node20 -->
<g id="edge1313_Node000000_Node000020" class="edge">
<title>Node0&#45;&gt;Node20</title>
<g id="a_edge1313_Node000000_Node000020"><a xlink:title=" ">
<path fill="none" stroke="#8b1a1a" d="M36.85,-1019.72C37.47,-1067.33 45.8,-1181.72 108.25,-1245 116.18,-1253.03 127.38,-1257.7 138.13,-1260.39"/>
<polygon fill="#8b1a1a" stroke="#8b1a1a" points="40.35,-1019.9 36.84,-1009.91 33.35,-1019.91 40.35,-1019.9"/>
</a>
</g>
</g>
<!-- Node21 -->
<g id="Node000021" class="node">
<title>Node21</title>
<g id="a_Node000021"><a xlink:href="da/d04/class_fever_mdfr.html" target="_top" xlink:title=" ">
<polygon fill="white" stroke="#666666" points="201.12,-1236 143.12,-1236 143.12,-1216 201.12,-1216 201.12,-1236"/>
<text text-anchor="middle" x="172.12" y="-1222.5" font-family="Helvetica,sans-Serif" font-size="10.00">FeverMdfr</text>
</a>
</g>
</g>
<!-- Node0&#45;&gt;Node21 -->
<g id="edge1314_Node000000_Node000021" class="edge">
<title>Node0&#45;&gt;Node21</title>
<g id="a_edge1314_Node000000_Node000021"><a xlink:title=" ">
<path fill="none" stroke="#8b1a1a" d="M38.21,-1019.79C41.51,-1062.01 54.79,-1155.35 108.25,-1207 117.52,-1215.95 130.85,-1220.7 142.86,-1223.22"/>
<polygon fill="#8b1a1a" stroke="#8b1a1a" points="41.71,-1019.69 37.57,-1009.94 34.73,-1020.14 41.71,-1019.69"/>
</a>
</g>
</g>
<!-- Node22 -->
<g id="Node000022" class="node">
<title>Node22</title>
<g id="a_Node000022"><a xlink:href="d9/d0a/class_flies_mdfr.html" target="_top" xlink:title=" ">
<polygon fill="white" stroke="#666666" points="200,-1198 144.25,-1198 144.25,-1178 200,-1178 200,-1198"/>
<text text-anchor="middle" x="172.12" y="-1184.5" font-family="Helvetica,sans-Serif" font-size="10.00">FliesMdfr</text>
</a>
</g>
</g>
<!-- Node0&#45;&gt;Node22 -->
<g id="edge1315_Node000000_Node000022" class="edge">
<title>Node0&#45;&gt;Node22</title>
<g id="a_edge1315_Node000000_Node000022"><a xlink:title=" ">
<path fill="none" stroke="#8b1a1a" d="M40.04,-1019.29C46.1,-1055.36 63.45,-1128.49 108.25,-1169 117.98,-1177.79 131.65,-1182.52 143.77,-1185.06"/>
<polygon fill="#8b1a1a" stroke="#8b1a1a" points="43.54,-1019.04 38.57,-1009.69 36.62,-1020.1 43.54,-1019.04"/>
</a>
</g>
</g>
<!-- Node23 -->
<g id="Node000023" class="node">
<title>Node23</title>
<g id="a_Node000023"><a xlink:href="d5/d00/class_health_mdfr.html" target="_top" xlink:title=" ">
<polygon fill="white" stroke="#666666" points="203.38,-1160 140.88,-1160 140.88,-1140 203.38,-1140 203.38,-1160"/>
<text text-anchor="middle" x="172.12" y="-1146.5" font-family="Helvetica,sans-Serif" font-size="10.00">HealthMdfr</text>
</a>
</g>
</g>
<!-- Node0&#45;&gt;Node23 -->
<g id="edge1316_Node000000_Node000023" class="edge">
<title>Node0&#45;&gt;Node23</title>
<g id="a_edge1316_Node000000_Node000023"><a xlink:title=" ">
<path fill="none" stroke="#8b1a1a" d="M42.81,-1019.08C51.8,-1048.45 72.12,-1101.39 108.25,-1131 117.42,-1138.52 129.52,-1143.06 140.65,-1145.81"/>
<polygon fill="#8b1a1a" stroke="#8b1a1a" points="46.28,-1018.5 40.14,-1009.86 39.56,-1020.44 46.28,-1018.5"/>
</a>
</g>
</g>
<!-- Node24 -->
<g id="Node000024" class="node">
<title>Node24</title>
<g id="a_Node000024"><a xlink:href="d0/d07/class_health_regen_mdfr.html" target="_top" xlink:title=" ">
<polygon fill="white" stroke="#666666" points="217.25,-1122 127,-1122 127,-1102 217.25,-1102 217.25,-1122"/>
<text text-anchor="middle" x="172.12" y="-1108.5" font-family="Helvetica,sans-Serif" font-size="10.00">HealthRegenMdfr</text>
</a>
</g>
</g>
<!-- Node0&#45;&gt;Node24 -->
<g id="edge1317_Node000000_Node000024" class="edge">
<title>Node0&#45;&gt;Node24</title>
<g id="a_edge1317_Node000000_Node000024"><a xlink:title=" ">
<path fill="none" stroke="#8b1a1a" d="M47.28,-1018.34C59.07,-1039.94 80.51,-1073.58 108.25,-1093 113.76,-1096.86 120.07,-1099.95 126.52,-1102.42"/>
<polygon fill="#8b1a1a" stroke="#8b1a1a" points="50.45,-1016.86 42.71,-1009.63 44.25,-1020.11 50.45,-1016.86"/>
</a>
</g>
</g>
<!-- Node25 -->
<g id="Node000025" class="node">
<title>Node25</title>
<g id="a_Node000025"><a xlink:href="dd/d0b/class_heart_attack_mdfr.html" target="_top" xlink:title=" ">
<polygon fill="white" stroke="#666666" points="215.38,-1084 128.88,-1084 128.88,-1064 215.38,-1064 215.38,-1084"/>
<text text-anchor="middle" x="172.12" y="-1070.5" font-family="Helvetica,sans-Serif" font-size="10.00">HeartAttackMdfr</text>
</a>
</g>
</g>
<!-- Node0&#45;&gt;Node25 -->
<g id="edge1318_Node000000_Node000025" class="edge">
<title>Node0&#45;&gt;Node25</title>
<g id="a_edge1318_Node000000_Node000025"><a xlink:title=" ">
<path fill="none" stroke="#8b1a1a" d="M55.31,-1015.86C68.91,-1028.35 88.49,-1044.6 108.25,-1055 114.61,-1058.35 121.64,-1061.2 128.64,-1063.59"/>
<polygon fill="#8b1a1a" stroke="#8b1a1a" points="58.07,-1013.65 48.39,-1009.33 53.26,-1018.74 58.07,-1013.65"/>
</a>
</g>
</g>
<!-- Node26 -->
<g id="Node000026" class="node">
<title>Node26</title>
<g id="a_Node000026"><a xlink:href="da/d07/class_heat_buffer_mdfr.html" target="_top" xlink:title=" ">
<polygon fill="white" stroke="#666666" points="212,-1046 132.25,-1046 132.25,-1026 212,-1026 212,-1046"/>
<text text-anchor="middle" x="172.12" y="-1032.5" font-family="Helvetica,sans-Serif" font-size="10.00">HeatBufferMdfr</text>
</a>
</g>
</g>
<!-- Node0&#45;&gt;Node26 -->
<g id="edge1319_Node000000_Node000026" class="edge">
<title>Node0&#45;&gt;Node26</title>
<g id="a_edge1319_Node000000_Node000026"><a xlink:title=" ">
<path fill="none" stroke="#8b1a1a" d="M83.34,-1011.11C100.05,-1015.85 118.68,-1021.13 134.47,-1025.6"/>
<polygon fill="#8b1a1a" stroke="#8b1a1a" points="84.71,-1007.86 74.14,-1008.5 82.8,-1014.59 84.71,-1007.86"/>
</a>
</g>
</g>
<!-- Node27 -->
<g id="Node000027" class="node">
<title>Node27</title>
<g id="a_Node000027"><a xlink:href="da/d0e/class_heat_comfort_mdfr.html" target="_top" xlink:title=" ">
<polygon fill="white" stroke="#666666" points="216.5,-1008 127.75,-1008 127.75,-988 216.5,-988 216.5,-1008"/>
<text text-anchor="middle" x="172.12" y="-994.5" font-family="Helvetica,sans-Serif" font-size="10.00">HeatComfortMdfr</text>
</a>
</g>
</g>
<!-- Node0&#45;&gt;Node27 -->
<g id="edge1320_Node000000_Node000027" class="edge">
<title>Node0&#45;&gt;Node27</title>
<g id="a_edge1320_Node000000_Node000027"><a xlink:title=" ">
<path fill="none" stroke="#8b1a1a" d="M84.1,-998C98.12,-998 113.44,-998 127.25,-998"/>
<polygon fill="#8b1a1a" stroke="#8b1a1a" points="84.2,-994.5 74.2,-998 84.2,-1001.5 84.2,-994.5"/>
</a>
</g>
</g>
<!-- Node28 -->
<g id="Node000028" class="node">
<title>Node28</title>
<g id="a_Node000028"><a xlink:href="d4/d04/class_hemolytic_reaction_mdfr.html" target="_top" xlink:title=" ">
<polygon fill="white" stroke="#666666" points="230.38,-970 113.88,-970 113.88,-950 230.38,-950 230.38,-970"/>
<text text-anchor="middle" x="172.12" y="-956.5" font-family="Helvetica,sans-Serif" font-size="10.00">HemolyticReactionMdfr</text>
</a>
</g>
</g>
<!-- Node0&#45;&gt;Node28 -->
<g id="edge1321_Node000000_Node000028" class="edge">
<title>Node0&#45;&gt;Node28</title>
<g id="a_edge1321_Node000000_Node000028"><a xlink:title=" ">
<path fill="none" stroke="#8b1a1a" d="M83.34,-984.89C100.05,-980.15 118.68,-974.87 134.47,-970.4"/>
<polygon fill="#8b1a1a" stroke="#8b1a1a" points="82.8,-981.41 74.14,-987.5 84.71,-988.14 82.8,-981.41"/>
</a>
</g>
</g>
<!-- Node29 -->
<g id="Node000029" class="node">
<title>Node29</title>
<g id="a_Node000029"><a xlink:href="db/d04/class_hunger_mdfr.html" target="_top" xlink:title=" ">
<polygon fill="white" stroke="#666666" points="204.88,-932 139.38,-932 139.38,-912 204.88,-912 204.88,-932"/>
<text text-anchor="middle" x="172.12" y="-918.5" font-family="Helvetica,sans-Serif" font-size="10.00">HungerMdfr</text>
</a>
</g>
</g>
<!-- Node0&#45;&gt;Node29 -->
<g id="edge1322_Node000000_Node000029" class="edge">
<title>Node0&#45;&gt;Node29</title>
<g id="a_edge1322_Node000000_Node000029"><a xlink:title=" ">
<path fill="none" stroke="#8b1a1a" d="M55.31,-980.14C68.91,-967.65 88.49,-951.4 108.25,-941 117.84,-935.95 128.97,-932.04 139.17,-929.11"/>
<polygon fill="#8b1a1a" stroke="#8b1a1a" points="53.26,-977.26 48.39,-986.67 58.07,-982.35 53.26,-977.26"/>
</a>
</g>
</g>
<!-- Node30 -->
<g id="Node000030" class="node">
<title>Node30</title>
<g id="a_Node000030"><a xlink:href="d6/d0f/class_immune_system_mdfr.html" target="_top" xlink:title=" ">
<polygon fill="white" stroke="#666666" points="223.62,-894 120.62,-894 120.62,-874 223.62,-874 223.62,-894"/>
<text text-anchor="middle" x="172.12" y="-880.5" font-family="Helvetica,sans-Serif" font-size="10.00">ImmuneSystemMdfr</text>
</a>
</g>
</g>
<!-- Node0&#45;&gt;Node30 -->
<g id="edge1323_Node000000_Node000030" class="edge">
<title>Node0&#45;&gt;Node30</title>
<g id="a_edge1323_Node000000_Node000030"><a xlink:title=" ">
<path fill="none" stroke="#8b1a1a" d="M47.28,-977.66C59.07,-956.06 80.51,-922.42 108.25,-903 113.11,-899.6 118.59,-896.8 124.23,-894.49"/>
<polygon fill="#8b1a1a" stroke="#8b1a1a" points="44.25,-975.89 42.71,-986.37 50.45,-979.14 44.25,-975.89"/>
</a>
</g>
</g>
<!-- Node31 -->
<g id="Node000031" class="node">
<title>Node31</title>
<g id="a_Node000031"><a xlink:href="d4/d0f/class_immunity_boost.html" target="_top" xlink:title=" ">
<polygon fill="white" stroke="#666666" points="212.75,-856 131.5,-856 131.5,-836 212.75,-836 212.75,-856"/>
<text text-anchor="middle" x="172.12" y="-842.5" font-family="Helvetica,sans-Serif" font-size="10.00">ImmunityBoost</text>
</a>
</g>
</g>
<!-- Node0&#45;&gt;Node31 -->
<g id="edge1324_Node000000_Node000031" class="edge">
<title>Node0&#45;&gt;Node31</title>
<g id="a_edge1324_Node000000_Node000031"><a xlink:title=" ">
<path fill="none" stroke="#8b1a1a" d="M42.81,-976.92C51.8,-947.55 72.12,-894.61 108.25,-865 114.86,-859.58 123,-855.7 131.2,-852.93"/>
<polygon fill="#8b1a1a" stroke="#8b1a1a" points="39.56,-975.56 40.14,-986.14 46.28,-977.5 39.56,-975.56"/>
</a>
</g>
</g>
<!-- Node32 -->
<g id="Node000032" class="node">
<title>Node32</title>
<g id="a_Node000032"><a xlink:href="db/d0d/class_influenza_mdfr.html" target="_top" xlink:title=" ">
<polygon fill="white" stroke="#666666" points="208.62,-818 135.62,-818 135.62,-798 208.62,-798 208.62,-818"/>
<text text-anchor="middle" x="172.12" y="-804.5" font-family="Helvetica,sans-Serif" font-size="10.00">InfluenzaMdfr</text>
</a>
</g>
</g>
<!-- Node0&#45;&gt;Node32 -->
<g id="edge1325_Node000000_Node000032" class="edge">
<title>Node0&#45;&gt;Node32</title>
<g id="a_edge1325_Node000000_Node000032"><a xlink:title=" ">
<path fill="none" stroke="#8b1a1a" d="M40.04,-976.71C46.1,-940.64 63.45,-867.51 108.25,-827 115.78,-820.19 125.67,-815.82 135.38,-813.02"/>
<polygon fill="#8b1a1a" stroke="#8b1a1a" points="36.62,-975.9 38.57,-986.31 43.54,-976.96 36.62,-975.9"/>
</a>
</g>
</g>
<!-- Node33 -->
<g id="Node000033" class="node">
<title>Node33</title>
<g id="a_Node000033"><a xlink:href="d6/d0f/class_mask_mdfr.html" target="_top" xlink:title=" ">
<polygon fill="white" stroke="#666666" points="201.5,-780 142.75,-780 142.75,-760 201.5,-760 201.5,-780"/>
<text text-anchor="middle" x="172.12" y="-766.5" font-family="Helvetica,sans-Serif" font-size="10.00">MaskMdfr</text>
</a>
</g>
</g>
<!-- Node0&#45;&gt;Node33 -->
<g id="edge1326_Node000000_Node000033" class="edge">
<title>Node0&#45;&gt;Node33</title>
<g id="a_edge1326_Node000000_Node000033"><a xlink:title=" ">
<path fill="none" stroke="#8b1a1a" d="M38.21,-976.21C41.51,-933.99 54.79,-840.65 108.25,-789 117.44,-780.13 130.62,-775.38 142.54,-772.85"/>
<polygon fill="#8b1a1a" stroke="#8b1a1a" points="34.73,-975.86 37.57,-986.06 41.71,-976.31 34.73,-975.86"/>
</a>
</g>
</g>
<!-- Node34 -->
<g id="Node000034" class="node">
<title>Node34</title>
<g id="a_Node000034"><a xlink:href="d0/d0e/class_morphine_mdfr.html" target="_top" xlink:title=" ">
<polygon fill="white" stroke="#666666" points="209.38,-742 134.88,-742 134.88,-722 209.38,-722 209.38,-742"/>
<text text-anchor="middle" x="172.12" y="-728.5" font-family="Helvetica,sans-Serif" font-size="10.00">MorphineMdfr</text>
</a>
</g>
</g>
<!-- Node0&#45;&gt;Node34 -->
<g id="edge1327_Node000000_Node000034" class="edge">
<title>Node0&#45;&gt;Node34</title>
<g id="a_edge1327_Node000000_Node000034"><a xlink:title=" ">
<path fill="none" stroke="#8b1a1a" d="M36.85,-976.28C37.47,-928.67 45.8,-814.28 108.25,-751 115.3,-743.86 124.93,-739.38 134.54,-736.58"/>
<polygon fill="#8b1a1a" stroke="#8b1a1a" points="33.35,-976.09 36.84,-986.09 40.35,-976.1 33.35,-976.09"/>
</a>
</g>
</g>
<!-- Node35 -->
<g id="Node000035" class="node">
<title>Node35</title>
<g id="a_Node000035"><a xlink:href="dc/d0a/class_pain_killers_mdfr.html" target="_top" xlink:title=" ">
<polygon fill="white" stroke="#666666" points="212.75,-704 131.5,-704 131.5,-684 212.75,-684 212.75,-704"/>
<text text-anchor="middle" x="172.12" y="-690.5" font-family="Helvetica,sans-Serif" font-size="10.00">PainKillersMdfr</text>
</a>
</g>
</g>
<!-- Node0&#45;&gt;Node35 -->
<g id="edge1328_Node000000_Node000035" class="edge">
<title>Node0&#45;&gt;Node35</title>
<g id="a_edge1328_Node000000_Node000035"><a xlink:title=" ">
<path fill="none" stroke="#8b1a1a" d="M39.76,-976.34C47.42,-916.63 71.55,-751.54 108.25,-713 114.38,-706.56 122.62,-702.28 131.1,-699.44"/>
<polygon fill="#8b1a1a" stroke="#8b1a1a" points="36.29,-975.83 38.52,-986.19 43.24,-976.7 36.29,-975.83"/>
</a>
</g>
</g>
<!-- Node36 -->
<g id="Node000036" class="node">
<title>Node36</title>
<g id="a_Node000036"><a xlink:href="d3/d05/class_poisoning_mdfr.html" target="_top" xlink:title=" ">
<polygon fill="white" stroke="#666666" points="210.88,-666 133.38,-666 133.38,-646 210.88,-646 210.88,-666"/>
<text text-anchor="middle" x="172.12" y="-652.5" font-family="Helvetica,sans-Serif" font-size="10.00">PoisoningMdfr</text>
</a>
</g>
</g>
<!-- Node0&#45;&gt;Node36 -->
<g id="edge1329_Node000000_Node000036" class="edge">
<title>Node0&#45;&gt;Node36</title>
<g id="a_edge1329_Node000000_Node000036"><a xlink:title=" ">
<path fill="none" stroke="#8b1a1a" d="M39.05,-976.5C45.28,-911.63 66.92,-719.63 108.25,-675 114.76,-667.97 123.77,-663.51 132.93,-660.69"/>
<polygon fill="#8b1a1a" stroke="#8b1a1a" points="35.59,-975.91 38.15,-986.19 42.56,-976.55 35.59,-975.91"/>
</a>
</g>
</g>
<!-- Node37 -->
<g id="Node000037" class="node">
<title>Node37</title>
<g id="a_Node000037"><a xlink:href="d5/d09/class_saline_mdfr.html" target="_top" xlink:title=" ">
<polygon fill="white" stroke="#666666" points="203,-628 141.25,-628 141.25,-608 203,-608 203,-628"/>
<text text-anchor="middle" x="172.12" y="-614.5" font-family="Helvetica,sans-Serif" font-size="10.00">SalineMdfr</text>
</a>
</g>
</g>
<!-- Node0&#45;&gt;Node37 -->
<g id="edge1330_Node000000_Node000037" class="edge">
<title>Node0&#45;&gt;Node37</title>
<g id="a_edge1330_Node000000_Node000037"><a xlink:title=" ">
<path fill="none" stroke="#8b1a1a" d="M38.52,-976.3C43.46,-906.23 62.33,-687.7 108.25,-637 116.59,-627.79 129.23,-622.98 140.99,-620.49"/>
<polygon fill="#8b1a1a" stroke="#8b1a1a" points="35.05,-975.85 37.86,-986.07 42.03,-976.33 35.05,-975.85"/>
</a>
</g>
</g>
<!-- Node38 -->
<g id="Node000038" class="node">
<title>Node38</title>
<g id="a_Node000038"><a xlink:href="dc/d0d/class_salmonella_mdfr.html" target="_top" xlink:title=" ">
<polygon fill="white" stroke="#666666" points="213.5,-590 130.75,-590 130.75,-570 213.5,-570 213.5,-590"/>
<text text-anchor="middle" x="172.12" y="-576.5" font-family="Helvetica,sans-Serif" font-size="10.00">SalmonellaMdfr</text>
</a>
</g>
</g>
<!-- Node0&#45;&gt;Node38 -->
<g id="edge1331_Node000000_Node000038" class="edge">
<title>Node0&#45;&gt;Node38</title>
<g id="a_edge1331_Node000000_Node000038"><a xlink:title=" ">
<path fill="none" stroke="#8b1a1a" d="M38.07,-976.47C41.76,-901.88 57.64,-655.91 108.25,-599 114.08,-592.44 122.1,-588.11 130.45,-585.25"/>
<polygon fill="#8b1a1a" stroke="#8b1a1a" points="34.59,-975.97 37.62,-986.12 41.58,-976.29 34.59,-975.97"/>
</a>
</g>
</g>
<!-- Node39 -->
<g id="Node000039" class="node">
<title>Node39</title>
<g id="a_Node000039"><a xlink:href="d6/d0f/class_shock_damage_mdfr.html" target="_top" xlink:title=" ">
<polygon fill="white" stroke="#666666" points="221.38,-552 122.88,-552 122.88,-532 221.38,-532 221.38,-552"/>
<text text-anchor="middle" x="172.12" y="-538.5" font-family="Helvetica,sans-Serif" font-size="10.00">ShockDamageMdfr</text>
</a>
</g>
</g>
<!-- Node0&#45;&gt;Node39 -->
<g id="edge1332_Node000000_Node000039" class="edge">
<title>Node0&#45;&gt;Node39</title>
<g id="a_edge1332_Node000000_Node000039"><a xlink:title=" ">
<path fill="none" stroke="#8b1a1a" d="M37.7,-976.51C40.24,-897.47 52.96,-624.13 108.25,-561 112.16,-556.54 117.07,-553.11 122.42,-550.47"/>
<polygon fill="#8b1a1a" stroke="#8b1a1a" points="34.21,-976.23 37.41,-986.33 41.2,-976.43 34.21,-976.23"/>
</a>
</g>
</g>
<!-- Node40 -->
<g id="Node000040" class="node">
<title>Node40</title>
<g id="a_Node000040"><a xlink:href="d0/d0e/class_shock_mdfr.html" target="_top" xlink:title=" ">
<polygon fill="white" stroke="#666666" points="203.38,-514 140.88,-514 140.88,-494 203.38,-494 203.38,-514"/>
<text text-anchor="middle" x="172.12" y="-500.5" font-family="Helvetica,sans-Serif" font-size="10.00">ShockMdfr</text>
</a>
</g>
</g>
<!-- Node0&#45;&gt;Node40 -->
<g id="edge1333_Node000000_Node000040" class="edge">
<title>Node0&#45;&gt;Node40</title>
<g id="a_edge1333_Node000000_Node000040"><a xlink:title=" ">
<path fill="none" stroke="#8b1a1a" d="M37.39,-976.29C38.87,-892.61 48.32,-592.3 108.25,-523 116.31,-513.68 128.75,-508.85 140.46,-506.37"/>
<polygon fill="#8b1a1a" stroke="#8b1a1a" points="33.9,-976.22 37.24,-986.27 40.89,-976.33 33.9,-976.22"/>
</a>
</g>
</g>
<!-- Node41 -->
<g id="Node000041" class="node">
<title>Node41</title>
<g id="a_Node000041"><a xlink:href="d1/d00/class_stomach_mdfr.html" target="_top" xlink:title=" ">
<polygon fill="white" stroke="#666666" points="209,-476 135.25,-476 135.25,-456 209,-456 209,-476"/>
<text text-anchor="middle" x="172.12" y="-462.5" font-family="Helvetica,sans-Serif" font-size="10.00">StomachMdfr</text>
</a>
</g>
</g>
<!-- Node0&#45;&gt;Node41 -->
<g id="edge1334_Node000000_Node000041" class="edge">
<title>Node0&#45;&gt;Node41</title>
<g id="a_edge1334_Node000000_Node000041"><a xlink:title=" ">
<path fill="none" stroke="#8b1a1a" d="M37.13,-976.54C37.57,-889.07 43.56,-560.63 108.25,-485 114.99,-477.11 124.89,-472.43 134.84,-469.68"/>
<polygon fill="#8b1a1a" stroke="#8b1a1a" points="33.63,-976.31 37.1,-986.32 40.63,-976.33 33.63,-976.31"/>
</a>
</g>
</g>
<!-- Node42 -->
<g id="Node000042" class="node">
<title>Node42</title>
<g id="a_Node000042"><a xlink:href="d5/d0e/class_stuffed_stomach_mdfr.html" target="_top" xlink:title=" ">
<polygon fill="white" stroke="#666666" points="224,-438 120.25,-438 120.25,-418 224,-418 224,-438"/>
<text text-anchor="middle" x="172.12" y="-424.5" font-family="Helvetica,sans-Serif" font-size="10.00">StuffedStomachMdfr</text>
</a>
</g>
</g>
<!-- Node0&#45;&gt;Node42 -->
<g id="edge1335_Node000000_Node000042" class="edge">
<title>Node0&#45;&gt;Node42</title>
<g id="a_edge1335_Node000000_Node000042"><a xlink:title=" ">
<path fill="none" stroke="#8b1a1a" d="M36.9,-976.13C36.37,-884.03 38.95,-528.8 108.25,-447 111.49,-443.17 115.48,-440.1 119.86,-437.63"/>
<polygon fill="#8b1a1a" stroke="#8b1a1a" points="33.39,-976.05 36.97,-986.02 40.39,-975.99 33.39,-976.05"/>
</a>
</g>
</g>
<!-- Node43 -->
<g id="Node000043" class="node">
<title>Node43</title>
<g id="a_Node000043"><a xlink:href="dd/d0f/class_test_disease_mdfr.html" target="_top" xlink:title=" ">
<polygon fill="white" stroke="#666666" points="216.5,-400 127.75,-400 127.75,-380 216.5,-380 216.5,-400"/>
<text text-anchor="middle" x="172.12" y="-386.5" font-family="Helvetica,sans-Serif" font-size="10.00">TestDiseaseMdfr</text>
</a>
</g>
</g>
<!-- Node0&#45;&gt;Node43 -->
<g id="edge1336_Node000000_Node000043" class="edge">
<title>Node0&#45;&gt;Node43</title>
<g id="a_edge1336_Node000000_Node000043"><a xlink:title=" ">
<path fill="none" stroke="#8b1a1a" d="M36.7,-976.47C35.24,-881.06 34.14,-497.21 108.25,-409 113.24,-403.06 120.01,-398.94 127.27,-396.08"/>
<polygon fill="#8b1a1a" stroke="#8b1a1a" points="33.19,-976.29 36.87,-986.23 40.19,-976.17 33.19,-976.29"/>
</a>
</g>
</g>
<!-- Node44 -->
<g id="Node000044" class="node">
<title>Node44</title>
<g id="a_Node000044"><a xlink:href="d1/d0d/class_testing_mdfr.html" target="_top" xlink:title=" ">
<polygon fill="white" stroke="#666666" points="205.25,-362 139,-362 139,-342 205.25,-342 205.25,-362"/>
<text text-anchor="middle" x="172.12" y="-348.5" font-family="Helvetica,sans-Serif" font-size="10.00">TestingMdfr</text>
</a>
</g>
</g>
<!-- Node0&#45;&gt;Node44 -->
<g id="edge1337_Node000000_Node000044" class="edge">
<title>Node0&#45;&gt;Node44</title>
<g id="a_edge1337_Node000000_Node000044"><a xlink:title=" ">
<path fill="none" stroke="#8b1a1a" d="M38.19,-976.24C43.51,-871.08 68.59,-418.55 108.25,-371 115.77,-361.98 127.42,-357.14 138.66,-354.58"/>
<polygon fill="#8b1a1a" stroke="#8b1a1a" points="34.7,-975.86 37.7,-986.02 41.69,-976.21 34.7,-975.86"/>
</a>
</g>
</g>
<!-- Node45 -->
<g id="Node000045" class="node">
<title>Node45</title>
<g id="a_Node000045"><a xlink:href="d6/d0a/class_thirst_mdfr.html" target="_top" xlink:title=" ">
<polygon fill="white" stroke="#666666" points="201.5,-324 142.75,-324 142.75,-304 201.5,-304 201.5,-324"/>
<text text-anchor="middle" x="172.12" y="-310.5" font-family="Helvetica,sans-Serif" font-size="10.00">ThirstMdfr</text>
</a>
</g>
</g>
<!-- Node0&#45;&gt;Node45 -->
<g id="edge1338_Node000000_Node000045" class="edge">
<title>Node0&#45;&gt;Node45</title>
<g id="a_edge1338_Node000000_Node000045"><a xlink:title=" ">
<path fill="none" stroke="#8b1a1a" d="M38.02,-976.66C42.75,-868.48 66.16,-383.8 108.25,-333 116.62,-322.9 130.15,-318.04 142.53,-315.75"/>
<polygon fill="#8b1a1a" stroke="#8b1a1a" points="34.53,-976.28 37.6,-986.42 41.53,-976.58 34.53,-976.28"/>
</a>
</g>
</g>
<!-- Node46 -->
<g id="Node000046" class="node">
<title>Node46</title>
<g id="a_Node000046"><a xlink:href="d4/d0f/class_toxicity_mdfr.html" target="_top" xlink:title=" ">
<polygon fill="white" stroke="#666666" points="206.38,-286 137.88,-286 137.88,-266 206.38,-266 206.38,-286"/>
<text text-anchor="middle" x="172.12" y="-272.5" font-family="Helvetica,sans-Serif" font-size="10.00">ToxicityMdfr</text>
</a>
</g>
</g>
<!-- Node0&#45;&gt;Node46 -->
<g id="edge1339_Node000000_Node000046" class="edge">
<title>Node0&#45;&gt;Node46</title>
<g id="a_edge1339_Node000000_Node000046"><a xlink:title=" ">
<path fill="none" stroke="#8b1a1a" d="M37.91,-976.15C42.16,-863.23 63.84,-348.91 108.25,-295 115.5,-286.2 126.68,-281.37 137.61,-278.76"/>
<polygon fill="#8b1a1a" stroke="#8b1a1a" points="34.41,-975.99 37.54,-986.11 41.41,-976.25 34.41,-975.99"/>
</a>
</g>
</g>
<!-- Node47 -->
<g id="Node000047" class="node">
<title>Node47</title>
<g id="a_Node000047"><a xlink:href="d6/d08/class_tremor_mdfr.html" target="_top" xlink:title=" ">
<polygon fill="white" stroke="#666666" points="204.5,-248 139.75,-248 139.75,-228 204.5,-228 204.5,-248"/>
<text text-anchor="middle" x="172.12" y="-234.5" font-family="Helvetica,sans-Serif" font-size="10.00">TremorMdfr</text>
</a>
</g>
</g>
<!-- Node0&#45;&gt;Node47 -->
<g id="edge1340_Node000000_Node000047" class="edge">
<title>Node0&#45;&gt;Node47</title>
<g id="a_edge1340_Node000000_Node000047"><a xlink:title=" ">
<path fill="none" stroke="#8b1a1a" d="M37.78,-976.43C41.5,-860.47 61.42,-314.15 108.25,-257 115.91,-247.65 128.01,-242.79 139.55,-240.3"/>
<polygon fill="#8b1a1a" stroke="#8b1a1a" points="34.29,-975.99 37.48,-986.1 41.29,-976.21 34.29,-975.99"/>
</a>
</g>
</g>
<!-- Node48 -->
<g id="Node000048" class="node">
<title>Node48</title>
<g id="a_Node000048"><a xlink:href="dc/d0c/class_unconsciousness_mdfr.html" target="_top" xlink:title=" ">
<polygon fill="white" stroke="#666666" points="228.12,-210 116.12,-210 116.12,-190 228.12,-190 228.12,-210"/>
<text text-anchor="middle" x="172.12" y="-196.5" font-family="Helvetica,sans-Serif" font-size="10.00">UnconsciousnessMdfr</text>
</a>
</g>
</g>
<!-- Node0&#45;&gt;Node48 -->
<g id="edge1341_Node000000_Node000048" class="edge">
<title>Node0&#45;&gt;Node48</title>
<g id="a_edge1341_Node000000_Node000048"><a xlink:title=" ">
<path fill="none" stroke="#8b1a1a" d="M37.68,-976.46C40.91,-857.02 59.03,-279.35 108.25,-219 111.06,-215.55 114.47,-212.72 118.24,-210.38"/>
<polygon fill="#8b1a1a" stroke="#8b1a1a" points="34.18,-976.04 37.42,-986.13 41.18,-976.22 34.18,-976.04"/>
</a>
</g>
</g>
<!-- Node49 -->
<g id="Node000049" class="node">
<title>Node49</title>
<g id="a_Node000049"><a xlink:href="d0/d00/class_vomit_stuffed_mdfr.html" target="_top" xlink:title=" ">
<polygon fill="white" stroke="#666666" points="217.25,-172 127,-172 127,-152 217.25,-152 217.25,-172"/>
<text text-anchor="middle" x="172.12" y="-158.5" font-family="Helvetica,sans-Serif" font-size="10.00">VomitStuffedMdfr</text>
</a>
</g>
</g>
<!-- Node0&#45;&gt;Node49 -->
<g id="edge1342_Node000000_Node000049" class="edge">
<title>Node0&#45;&gt;Node49</title>
<g id="a_edge1342_Node000000_Node000049"><a xlink:title=" ">
<path fill="none" stroke="#8b1a1a" d="M37.58,-976.57C40.34,-853.95 56.62,-244.58 108.25,-181 113.07,-175.07 119.67,-170.94 126.79,-168.08"/>
<polygon fill="#8b1a1a" stroke="#8b1a1a" points="34.08,-976.12 37.37,-986.2 41.08,-976.28 34.08,-976.12"/>
</a>
</g>
</g>
<!-- Node50 -->
<g id="Node000050" class="node">
<title>Node50</title>
<g id="a_Node000050"><a xlink:href="d4/d00/class_wet_mdfr.html" target="_top" xlink:title=" ">
<polygon fill="white" stroke="#666666" points="198.5,-134 145.75,-134 145.75,-114 198.5,-114 198.5,-134"/>
<text text-anchor="middle" x="172.12" y="-120.5" font-family="Helvetica,sans-Serif" font-size="10.00">WetMdfr</text>
</a>
</g>
</g>
<!-- Node0&#45;&gt;Node50 -->
<g id="edge1343_Node000000_Node000050" class="edge">
<title>Node0&#45;&gt;Node50</title>
<g id="a_edge1343_Node000000_Node000050"><a xlink:title=" ">
<path fill="none" stroke="#8b1a1a" d="M37.49,-976.36C39.82,-849.9 54.25,-209.76 108.25,-143 117.14,-132.01 132.17,-127.21 145.31,-125.18"/>
<polygon fill="#8b1a1a" stroke="#8b1a1a" points="34,-975.95 37.32,-986.01 41,-976.08 34,-975.95"/>
</a>
</g>
</g>
<!-- Node51 -->
<g id="Node000051" class="node">
<title>Node51</title>
<g id="a_Node000051"><a xlink:href="d2/d08/class_wound_infect_stage1_mdfr.html" target="_top" xlink:title=" ">
<polygon fill="white" stroke="#666666" points="231.88,-96 112.38,-96 112.38,-76 231.88,-76 231.88,-96"/>
<text text-anchor="middle" x="172.12" y="-82.5" font-family="Helvetica,sans-Serif" font-size="10.00">WoundInfectStage1Mdfr</text>
</a>
</g>
</g>
<!-- Node0&#45;&gt;Node51 -->
<g id="edge1344_Node000000_Node000051" class="edge">
<title>Node0&#45;&gt;Node51</title>
<g id="a_edge1344_Node000000_Node000051"><a xlink:title=" ">
<path fill="none" stroke="#8b1a1a" d="M37.41,-976.22C39.32,-846.13 51.87,-174.95 108.25,-105 111.04,-101.54 114.44,-98.69 118.2,-96.35"/>
<polygon fill="#8b1a1a" stroke="#8b1a1a" points="33.91,-976.1 37.27,-986.15 40.91,-976.2 33.91,-976.1"/>
</a>
</g>
</g>
<!-- Node52 -->
<g id="Node000052" class="node">
<title>Node52</title>
<g id="a_Node000052"><a xlink:href="df/d01/class_wound_infect_stage2_mdfr.html" target="_top" xlink:title=" ">
<polygon fill="white" stroke="#666666" points="231.88,-58 112.38,-58 112.38,-38 231.88,-38 231.88,-58"/>
<text text-anchor="middle" x="172.12" y="-44.5" font-family="Helvetica,sans-Serif" font-size="10.00">WoundInfectStage2Mdfr</text>
</a>
</g>
</g>
<!-- Node0&#45;&gt;Node52 -->
<g id="edge1345_Node000000_Node000052" class="edge">
<title>Node0&#45;&gt;Node52</title>
<g id="a_edge1345_Node000000_Node000052"><a xlink:title=" ">
<path fill="none" stroke="#8b1a1a" d="M37.34,-976.13C38.84,-842.57 49.48,-140.15 108.25,-67 111.04,-63.53 114.43,-60.68 118.19,-58.34"/>
<polygon fill="#8b1a1a" stroke="#8b1a1a" points="33.84,-975.99 37.23,-986.02 40.84,-976.06 33.84,-975.99"/>
</a>
</g>
</g>
<!-- Node53 -->
<g id="Node000053" class="node">
<title>Node53</title>
<g id="a_Node000053"><a xlink:href="df/d08/class_wound_infection_mdfr.html" target="_top" xlink:title=" ">
<polygon fill="white" stroke="#666666" points="222.88,-20 121.38,-20 121.38,0 222.88,0 222.88,-20"/>
<text text-anchor="middle" x="172.12" y="-6.5" font-family="Helvetica,sans-Serif" font-size="10.00">WoundInfectionMdfr</text>
</a>
</g>
</g>
<!-- Node0&#45;&gt;Node53 -->
<g id="edge1346_Node000000_Node000053" class="edge">
<title>Node0&#45;&gt;Node53</title>
<g id="a_edge1346_Node000000_Node000053"><a xlink:title=" ">
<path fill="none" stroke="#8b1a1a" d="M37.27,-976.51C38.35,-840.78 47.02,-105.45 108.25,-29 111.74,-24.64 116.2,-21.25 121.13,-18.62"/>
<polygon fill="#8b1a1a" stroke="#8b1a1a" points="33.77,-976.2 37.2,-986.22 40.77,-976.25 33.77,-976.2"/>
</a>
</g>
</g>
</g>
</svg>
