<?xml version="1.0" encoding="UTF-8" standalone="no"?>
<!DOCTYPE svg PUBLIC "-//W3C//DTD SVG 1.1//EN"
 "http://www.w3.org/Graphics/SVG/1.1/DTD/svg11.dtd">
<!-- Generated by graphviz version 11.0.0 (20240428.1522)
 -->
<!-- Title: Graphical Class Hierarchy Pages: 1 -->
<svg width="384pt" height="142pt"
 viewBox="0.00 0.00 383.75 142.00" xmlns="http://www.w3.org/2000/svg" xmlns:xlink="http://www.w3.org/1999/xlink">
<g id="graph0" class="graph" transform="scale(1 1) rotate(0) translate(4 138)">
<title>Graphical Class Hierarchy</title>
<!-- Node0 -->
<g id="Node000000" class="node">
<title>Node0</title>
<g id="a_Node000000"><a xlink:href="d3/d0e/class_bolt_action_rifle___base.html" target="_top" xlink:title=" ">
<polygon fill="white" stroke="#666666" points="107.5,-77 0,-77 0,-57 107.5,-57 107.5,-77"/>
<text text-anchor="middle" x="53.75" y="-63.5" font-family="Helvetica,sans-Serif" font-size="10.00">BoltActionRifle_Base</text>
</a>
</g>
</g>
<!-- Node1 -->
<g id="Node000001" class="node">
<title>Node1</title>
<g id="a_Node000001"><a xlink:href="df/d01/class_bolt_action_rifle___external_magazine___base.html" target="_top" xlink:title=" ">
<polygon fill="white" stroke="#666666" points="264.5,-83 143.5,-83 143.5,-51 264.5,-51 264.5,-83"/>
<text text-anchor="start" x="151.5" y="-69.5" font-family="Helvetica,sans-Serif" font-size="10.00">BoltActionRifle_External</text>
<text text-anchor="middle" x="204" y="-57.5" font-family="Helvetica,sans-Serif" font-size="10.00">Magazine_Base</text>
</a>
</g>
</g>
<!-- Node0&#45;&gt;Node1 -->
<g id="edge380_Node000000_Node000001" class="edge">
<title>Node0&#45;&gt;Node1</title>
<g id="a_edge380_Node000000_Node000001"><a xlink:title=" ">
<path fill="none" stroke="#8b1a1a" d="M119.33,-67C127.27,-67 135.35,-67 143.22,-67"/>
<polygon fill="#8b1a1a" stroke="#8b1a1a" points="119.37,-63.5 109.37,-67 119.37,-70.5 119.37,-63.5"/>
</a>
</g>
</g>
<!-- Node2 -->
<g id="Node000002" class="node">
<title>Node2</title>
<g id="a_Node000002"><a xlink:href="d2/d04/class_c_z527___base.html" target="_top" xlink:title=" ">
<polygon fill="white" stroke="#666666" points="373.88,-134 302.38,-134 302.38,-114 373.88,-114 373.88,-134"/>
<text text-anchor="middle" x="338.12" y="-120.5" font-family="Helvetica,sans-Serif" font-size="10.00">CZ527_Base</text>
</a>
</g>
</g>
<!-- Node1&#45;&gt;Node2 -->
<g id="edge381_Node000001_Node000002" class="edge">
<title>Node1&#45;&gt;Node2</title>
<g id="a_edge381_Node000001_Node000002"><a xlink:title=" ">
<path fill="none" stroke="#8b1a1a" d="M253.57,-87.95C273.86,-96.71 296.53,-106.49 313.13,-113.65"/>
<polygon fill="#8b1a1a" stroke="#8b1a1a" points="255.17,-84.83 244.61,-84.09 252.4,-91.26 255.17,-84.83"/>
</a>
</g>
</g>
<!-- Node3 -->
<g id="Node000003" class="node">
<title>Node3</title>
<g id="a_Node000003"><a xlink:href="dd/d08/class_c_z550___base.html" target="_top" xlink:title=" ">
<polygon fill="white" stroke="#666666" points="373.88,-96 302.38,-96 302.38,-76 373.88,-76 373.88,-96"/>
<text text-anchor="middle" x="338.12" y="-82.5" font-family="Helvetica,sans-Serif" font-size="10.00">CZ550_Base</text>
</a>
</g>
</g>
<!-- Node1&#45;&gt;Node3 -->
<g id="edge382_Node000001_Node000003" class="edge">
<title>Node1&#45;&gt;Node3</title>
<g id="a_edge382_Node000001_Node000003"><a xlink:title=" ">
<path fill="none" stroke="#8b1a1a" d="M276.22,-77.24C285.16,-78.53 293.97,-79.79 302,-80.95"/>
<polygon fill="#8b1a1a" stroke="#8b1a1a" points="276.77,-73.79 266.38,-75.83 275.78,-80.71 276.77,-73.79"/>
</a>
</g>
</g>
<!-- Node4 -->
<g id="Node000004" class="node">
<title>Node4</title>
<g id="a_Node000004"><a xlink:href="d7/d09/class_s_s_g82___base.html" target="_top" xlink:title=" ">
<polygon fill="white" stroke="#666666" points="375.75,-58 300.5,-58 300.5,-38 375.75,-38 375.75,-58"/>
<text text-anchor="middle" x="338.12" y="-44.5" font-family="Helvetica,sans-Serif" font-size="10.00">SSG82_Base</text>
</a>
</g>
</g>
<!-- Node1&#45;&gt;Node4 -->
<g id="edge383_Node000001_Node000004" class="edge">
<title>Node1&#45;&gt;Node4</title>
<g id="a_edge383_Node000001_Node000004"><a xlink:title=" ">
<path fill="none" stroke="#8b1a1a" d="M276.17,-56.76C284.45,-55.58 292.61,-54.4 300.15,-53.32"/>
<polygon fill="#8b1a1a" stroke="#8b1a1a" points="275.78,-53.29 266.38,-58.17 276.77,-60.21 275.78,-53.29"/>
</a>
</g>
</g>
<!-- Node5 -->
<g id="Node000005" class="node">
<title>Node5</title>
<g id="a_Node000005"><a xlink:href="dc/d05/class_scout___base.html" target="_top" xlink:title=" ">
<polygon fill="white" stroke="#666666" points="372.75,-20 303.5,-20 303.5,0 372.75,0 372.75,-20"/>
<text text-anchor="middle" x="338.12" y="-6.5" font-family="Helvetica,sans-Serif" font-size="10.00">Scout_Base</text>
</a>
</g>
</g>
<!-- Node1&#45;&gt;Node5 -->
<g id="edge384_Node000001_Node000005" class="edge">
<title>Node1&#45;&gt;Node5</title>
<g id="a_edge384_Node000001_Node000005"><a xlink:title=" ">
<path fill="none" stroke="#8b1a1a" d="M253.57,-46.05C273.86,-37.29 296.53,-27.51 313.13,-20.35"/>
<polygon fill="#8b1a1a" stroke="#8b1a1a" points="252.4,-42.74 244.61,-49.91 255.17,-49.17 252.4,-42.74"/>
</a>
</g>
</g>
</g>
</svg>
