<?xml version="1.0" encoding="UTF-8" standalone="no"?>
<!DOCTYPE svg PUBLIC "-//W3C//DTD SVG 1.1//EN"
 "http://www.w3.org/Graphics/SVG/1.1/DTD/svg11.dtd">
<!-- Generated by graphviz version 11.0.0 (20240428.1522)
 -->
<!-- Title: BoltActionRifle_Base Pages: 1 -->
<svg width="349pt" height="152pt"
 viewBox="0.00 0.00 349.38 152.00" xmlns="http://www.w3.org/2000/svg" xmlns:xlink="http://www.w3.org/1999/xlink">
<g id="graph0" class="graph" transform="scale(1 1) rotate(0) translate(4 148)">
<title>BoltActionRifle_Base</title>
<!-- Node1 -->
<g id="Node000001" class="node">
<title>Node1</title>
<g id="a_Node000001"><a xlink:title=" ">
<polygon fill="#999999" stroke="#666666" points="224.5,-144 117,-144 117,-124 224.5,-124 224.5,-144"/>
<text text-anchor="middle" x="170.75" y="-130.5" font-family="Helvetica,sans-Serif" font-size="10.00">BoltActionRifle_Base</text>
</a>
</g>
</g>
<!-- Node2 -->
<g id="Node000002" class="node">
<title>Node2</title>
<g id="a_Node000002"><a xlink:href="../../df/d01/class_bolt_action_rifle___external_magazine___base.html" target="_top" xlink:title=" ">
<polygon fill="white" stroke="#666666" points="231.25,-88 110.25,-88 110.25,-56 231.25,-56 231.25,-88"/>
<text text-anchor="start" x="118.25" y="-74.5" font-family="Helvetica,sans-Serif" font-size="10.00">BoltActionRifle_External</text>
<text text-anchor="middle" x="170.75" y="-62.5" font-family="Helvetica,sans-Serif" font-size="10.00">Magazine_Base</text>
</a>
</g>
</g>
<!-- Node1&#45;&gt;Node2 -->
<g id="edge1_Node000001_Node000002" class="edge">
<title>Node1&#45;&gt;Node2</title>
<g id="a_edge1_Node000001_Node000002"><a xlink:title=" ">
<path fill="none" stroke="#8b1a1a" d="M170.75,-112.31C170.75,-104.37 170.75,-95.46 170.75,-88.14"/>
<polygon fill="#8b1a1a" stroke="#8b1a1a" points="167.25,-112.11 170.75,-122.11 174.25,-112.11 167.25,-112.11"/>
</a>
</g>
</g>
<!-- Node3 -->
<g id="Node000003" class="node">
<title>Node3</title>
<g id="a_Node000003"><a xlink:href="../../d2/d04/class_c_z527___base.html" target="_top" xlink:title=" ">
<polygon fill="white" stroke="#666666" points="71.5,-20 0,-20 0,0 71.5,0 71.5,-20"/>
<text text-anchor="middle" x="35.75" y="-6.5" font-family="Helvetica,sans-Serif" font-size="10.00">CZ527_Base</text>
</a>
</g>
</g>
<!-- Node2&#45;&gt;Node3 -->
<g id="edge2_Node000002_Node000003" class="edge">
<title>Node2&#45;&gt;Node3</title>
<g id="a_edge2_Node000002_Node000003"><a xlink:title=" ">
<path fill="none" stroke="#8b1a1a" d="M125.65,-50.96C102.45,-40.65 75.27,-28.56 56.92,-20.41"/>
<polygon fill="#8b1a1a" stroke="#8b1a1a" points="124.04,-54.07 134.6,-54.93 126.88,-47.67 124.04,-54.07"/>
</a>
</g>
</g>
<!-- Node4 -->
<g id="Node000004" class="node">
<title>Node4</title>
<g id="a_Node000004"><a xlink:href="../../dd/d08/class_c_z550___base.html" target="_top" xlink:title=" ">
<polygon fill="white" stroke="#666666" points="161.5,-20 90,-20 90,0 161.5,0 161.5,-20"/>
<text text-anchor="middle" x="125.75" y="-6.5" font-family="Helvetica,sans-Serif" font-size="10.00">CZ550_Base</text>
</a>
</g>
</g>
<!-- Node2&#45;&gt;Node4 -->
<g id="edge3_Node000002_Node000004" class="edge">
<title>Node2&#45;&gt;Node4</title>
<g id="a_edge3_Node000002_Node000004"><a xlink:title=" ">
<path fill="none" stroke="#8b1a1a" d="M152.3,-46.4C145.43,-37.24 138.04,-27.39 132.81,-20.41"/>
<polygon fill="#8b1a1a" stroke="#8b1a1a" points="149.45,-48.44 158.25,-54.34 155.05,-44.24 149.45,-48.44"/>
</a>
</g>
</g>
<!-- Node5 -->
<g id="Node000005" class="node">
<title>Node5</title>
<g id="a_Node000005"><a xlink:href="../../d7/d09/class_s_s_g82___base.html" target="_top" xlink:title=" ">
<polygon fill="white" stroke="#666666" points="254.38,-20 179.12,-20 179.12,0 254.38,0 254.38,-20"/>
<text text-anchor="middle" x="216.75" y="-6.5" font-family="Helvetica,sans-Serif" font-size="10.00">SSG82_Base</text>
</a>
</g>
</g>
<!-- Node2&#45;&gt;Node5 -->
<g id="edge4_Node000002_Node000005" class="edge">
<title>Node2&#45;&gt;Node5</title>
<g id="a_edge4_Node000002_Node000005"><a xlink:title=" ">
<path fill="none" stroke="#8b1a1a" d="M189.39,-46.69C196.47,-37.45 204.13,-27.46 209.54,-20.41"/>
<polygon fill="#8b1a1a" stroke="#8b1a1a" points="186.82,-44.28 183.52,-54.35 192.38,-48.54 186.82,-44.28"/>
</a>
</g>
</g>
<!-- Node6 -->
<g id="Node000006" class="node">
<title>Node6</title>
<g id="a_Node000006"><a xlink:href="../../dc/d05/class_scout___base.html" target="_top" xlink:title=" ">
<polygon fill="white" stroke="#666666" points="341.38,-20 272.12,-20 272.12,0 341.38,0 341.38,-20"/>
<text text-anchor="middle" x="306.75" y="-6.5" font-family="Helvetica,sans-Serif" font-size="10.00">Scout_Base</text>
</a>
</g>
</g>
<!-- Node2&#45;&gt;Node6 -->
<g id="edge5_Node000002_Node000006" class="edge">
<title>Node2&#45;&gt;Node6</title>
<g id="a_edge5_Node000002_Node000006"><a xlink:title=" ">
<path fill="none" stroke="#8b1a1a" d="M216.18,-50.96C239.55,-40.65 266.94,-28.56 285.43,-20.41"/>
<polygon fill="#8b1a1a" stroke="#8b1a1a" points="214.89,-47.7 207.16,-54.94 217.72,-54.1 214.89,-47.7"/>
</a>
</g>
</g>
</g>
</svg>
