<?xml version="1.0" encoding="UTF-8" standalone="no"?>
<!DOCTYPE svg PUBLIC "-//W3C//DTD SVG 1.1//EN"
 "http://www.w3.org/Graphics/SVG/1.1/DTD/svg11.dtd">
<!-- Generated by graphviz version 11.0.0 (20240428.1522)
 -->
<!-- Title: EffVehicleSmoke Pages: 1 -->
<svg width="314pt" height="196pt"
 viewBox="0.00 0.00 314.38 196.00" xmlns="http://www.w3.org/2000/svg" xmlns:xlink="http://www.w3.org/1999/xlink">
<g id="graph0" class="graph" transform="scale(1 1) rotate(0) translate(4 192)">
<title>EffVehicleSmoke</title>
<!-- Node1 -->
<g id="Node000001" class="node">
<title>Node1</title>
<g id="a_Node000001"><a xlink:title=" ">
<polygon fill="#999999" stroke="#666666" points="195.5,-76 105.25,-76 105.25,-56 195.5,-56 195.5,-76"/>
<text text-anchor="middle" x="150.38" y="-62.5" font-family="Helvetica,sans-Serif" font-size="10.00">EffVehicleSmoke</text>
</a>
</g>
</g>
<!-- Node4 -->
<g id="Node000004" class="node">
<title>Node4</title>
<g id="a_Node000004"><a xlink:href="../../dd/d0e/class_eff_coolant_steam.html" target="_top" xlink:title=" ">
<polygon fill="white" stroke="#666666" points="88.75,-20 0,-20 0,0 88.75,0 88.75,-20"/>
<text text-anchor="middle" x="44.38" y="-6.5" font-family="Helvetica,sans-Serif" font-size="10.00">EffCoolantSteam</text>
</a>
</g>
</g>
<!-- Node1&#45;&gt;Node4 -->
<g id="edge3_Node000001_Node000004" class="edge">
<title>Node1&#45;&gt;Node4</title>
<g id="a_edge3_Node000001_Node000004"><a xlink:title=" ">
<path fill="none" stroke="#8b1a1a" d="M121.87,-50.48C103.18,-40.96 79.27,-28.78 62.98,-20.48"/>
<polygon fill="#8b1a1a" stroke="#8b1a1a" points="120.06,-53.49 130.56,-54.91 123.24,-47.25 120.06,-53.49"/>
</a>
</g>
</g>
<!-- Node5 -->
<g id="Node000005" class="node">
<title>Node5</title>
<g id="a_Node000005"><a xlink:href="../../d0/d0d/class_eff_engine_smoke.html" target="_top" xlink:title=" ">
<polygon fill="white" stroke="#666666" points="194.38,-20 106.38,-20 106.38,0 194.38,0 194.38,-20"/>
<text text-anchor="middle" x="150.38" y="-6.5" font-family="Helvetica,sans-Serif" font-size="10.00">EffEngineSmoke</text>
</a>
</g>
</g>
<!-- Node1&#45;&gt;Node5 -->
<g id="edge4_Node000001_Node000005" class="edge">
<title>Node1&#45;&gt;Node5</title>
<g id="a_edge4_Node000001_Node000005"><a xlink:title=" ">
<path fill="none" stroke="#8b1a1a" d="M150.38,-44.13C150.38,-35.9 150.38,-26.85 150.38,-20.3"/>
<polygon fill="#8b1a1a" stroke="#8b1a1a" points="146.88,-44.08 150.38,-54.08 153.88,-44.08 146.88,-44.08"/>
</a>
</g>
</g>
<!-- Node6 -->
<g id="Node000006" class="node">
<title>Node6</title>
<g id="a_Node000006"><a xlink:href="../../df/d07/class_eff_exhaust_smoke.html" target="_top" xlink:title=" ">
<polygon fill="white" stroke="#666666" points="306.38,-20 212.38,-20 212.38,0 306.38,0 306.38,-20"/>
<text text-anchor="middle" x="259.38" y="-6.5" font-family="Helvetica,sans-Serif" font-size="10.00">EffExhaustSmoke</text>
</a>
</g>
</g>
<!-- Node1&#45;&gt;Node6 -->
<g id="edge5_Node000001_Node000006" class="edge">
<title>Node1&#45;&gt;Node6</title>
<g id="a_edge5_Node000001_Node000006"><a xlink:title=" ">
<path fill="none" stroke="#8b1a1a" d="M179.42,-50.61C198.68,-41.07 223.42,-28.81 240.24,-20.48"/>
<polygon fill="#8b1a1a" stroke="#8b1a1a" points="178.12,-47.35 170.72,-54.92 181.23,-53.62 178.12,-47.35"/>
</a>
</g>
</g>
<!-- Node2 -->
<g id="Node000002" class="node">
<title>Node2</title>
<g id="a_Node000002"><a xlink:href="../../de/d07/class_effect_particle.html" target="_top" xlink:title="Wrapper class for managing particles through SEffectManager.">
<polygon fill="white" stroke="#666666" points="187.25,-132 113.5,-132 113.5,-112 187.25,-112 187.25,-132"/>
<text text-anchor="middle" x="150.38" y="-118.5" font-family="Helvetica,sans-Serif" font-size="10.00">EffectParticle</text>
</a>
</g>
</g>
<!-- Node2&#45;&gt;Node1 -->
<g id="edge1_Node000001_Node000002" class="edge">
<title>Node2&#45;&gt;Node1</title>
<g id="a_edge1_Node000001_Node000002"><a xlink:title=" ">
<path fill="none" stroke="#8b1a1a" d="M150.38,-100.13C150.38,-91.9 150.38,-82.85 150.38,-76.3"/>
<polygon fill="#8b1a1a" stroke="#8b1a1a" points="146.88,-100.08 150.38,-110.08 153.88,-100.08 146.88,-100.08"/>
</a>
</g>
</g>
<!-- Node3 -->
<g id="Node000003" class="node">
<title>Node3</title>
<g id="a_Node000003"><a xlink:title=" ">
<polygon fill="white" stroke="#666666" points="170.75,-188 130,-188 130,-168 170.75,-168 170.75,-188"/>
<text text-anchor="middle" x="150.38" y="-174.5" font-family="Helvetica,sans-Serif" font-size="10.00">Effect</text>
</a>
</g>
</g>
<!-- Node3&#45;&gt;Node2 -->
<g id="edge2_Node000002_Node000003" class="edge">
<title>Node3&#45;&gt;Node2</title>
<g id="a_edge2_Node000002_Node000003"><a xlink:title=" ">
<path fill="none" stroke="#8b1a1a" d="M150.38,-156.13C150.38,-147.9 150.38,-138.85 150.38,-132.3"/>
<polygon fill="#8b1a1a" stroke="#8b1a1a" points="146.88,-156.08 150.38,-166.08 153.88,-156.08 146.88,-156.08"/>
</a>
</g>
</g>
</g>
</svg>
