<?xml version="1.0" encoding="UTF-8" standalone="no"?>
<!DOCTYPE svg PUBLIC "-//W3C//DTD SVG 1.1//EN"
 "http://www.w3.org/Graphics/SVG/1.1/DTD/svg11.dtd">
<!-- Generated by graphviz version 11.0.0 (20240428.1522)
 -->
<!-- Title: DayZCreatureAnimScriptDebug Pages: 1 -->
<!--zoomable 1638 -->

<svg id="main" version="1.1" xmlns="http://www.w3.org/2000/svg" xmlns:xlink="http://www.w3.org/1999/xlink" xml:space="preserve" onload="init(evt)">
<style type="text/css"><![CDATA[
.node, .edge {opacity: 0.7;}
.node.selected, .edge.selected {opacity: 1;}
.edge:hover path { stroke: red; }
.edge:hover polygon { stroke: red; fill: red; }
]]></style>

<defs>
  <circle id="rim" cx="0" cy="0" r="7"/>
  <circle id="rim2" cx="0" cy="0" r="3.5"/>
  <g id="zoomPlus">
    <use xlink:href="#rim" fill="#404040"><set attributeName="fill" to="#808080" begin="zoomplus.mouseover" end="zoomplus.mouseout"/></use>
    <path d="M-4,0h8M0,-4v8" fill="none" stroke="white" stroke-width="1.5" pointer-events="none"/>
  </g>
  <g id="zoomMin">
    <use xlink:href="#rim" fill="#404040"><set attributeName="fill" to="#808080" begin="zoomminus.mouseover" end="zoomminus.mouseout"/></use>
    <path d="M-4,0h8" fill="none" stroke="white" stroke-width="1.5" pointer-events="none"/>
  </g>
  <g id="arrowUp" transform="translate(30 24)">
    <use xlink:href="#rim"/>
    <path pointer-events="none" fill="none" stroke="white" stroke-width="1.5" d="M0,-3.0v7 M-2.5,-0.5L0,-3.0L2.5,-0.5"/>
  </g>
  <g id="arrowRight" transform="rotate(90) translate(36 -43)">
    <use xlink:href="#rim"/>
    <path pointer-events="none" fill="none" stroke="white" stroke-width="1.5" d="M0,-3.0v7 M-2.5,-0.5L0,-3.0L2.5,-0.5"/>
  </g>
  <g id="arrowDown" transform="rotate(180) translate(-30 -48)">
    <use xlink:href="#rim"/>
    <path pointer-events="none" fill="none" stroke="white" stroke-width="1.5" d="M0,-3.0v7 M-2.5,-0.5L0,-3.0L2.5,-0.5"/>
  </g>
  <g id="arrowLeft" transform="rotate(270) translate(-36 17)">
    <use xlink:href="#rim"/>
    <path pointer-events="none" fill="none" stroke="white" stroke-width="1.5" d="M0,-3.0v7 M-2.5,-0.5L0,-3.0L2.5,-0.5"/>
  </g>
  <g id="resetDef">
    <use xlink:href="#rim2" fill="#404040"><set attributeName="fill" to="#808080" begin="reset.mouseover" end="reset.mouseout"/></use>
  </g>
</defs>
<script type="application/ecmascript">
var viewWidth = 916;
var viewHeight = 1638;
var sectionId = 'dynsection-0';
</script>
<script type="application/ecmascript" xlink:href="../../svg.min.js"/>
<svg id="graph" class="graph">
<g id="viewport">
<title>DayZCreatureAnimScriptDebug</title>
<!-- Node1 -->
<g id="Node000001" class="node">
<title>Node1</title>
<g id="a_Node000001"><a xlink:title=" ">
<polygon fill="#999999" stroke="#666666" points="908.25,-877.15 757.25,-877.15 757.25,-857.15 908.25,-857.15 908.25,-877.15"/>
<text text-anchor="middle" x="832.75" y="-863.65" font-family="Helvetica,sans-Serif" font-size="10.00">DayZCreatureAnimScriptDebug</text>
</a>
</g>
</g>
<!-- Node2 -->
<g id="Node000002" class="node">
<title>Node2</title>
<g id="a_Node000002"><a xlink:href="../../db/d06/class_param3.html" target="_top" xlink:title=" ">
<polygon fill="white" stroke="#666666" points="49.75,-1313.15 0,-1313.15 0,-1293.15 49.75,-1293.15 49.75,-1313.15"/>
<text text-anchor="middle" x="24.88" y="-1299.65" font-family="Helvetica,sans-Serif" font-size="10.00">Param3</text>
</a>
</g>
</g>
<!-- Node2&#45;&gt;Node1 -->
<g id="edge1_Node000001_Node000002" class="edge">
<title>Node2&#45;&gt;Node1</title>
<g id="a_edge1_Node000001_Node000002"><a xlink:title=" ">
<path fill="none" stroke="#9a32cd" stroke-dasharray="5,2" d="M26.69,-1324.89C28.9,-1360.81 37.13,-1433.77 67.75,-1486.15 108.44,-1555.75 126.8,-1579.08 202,-1608.15 308.58,-1649.34 365.64,-1620.1 451,-1544.15 685.72,-1335.28 808.58,-945.8 828.77,-877.5"/>
<polygon fill="#9a32cd" stroke="#9a32cd" points="30.19,-1324.76 26.19,-1314.95 23.19,-1325.11 30.19,-1324.76"/>
</a>
</g>
<text text-anchor="middle" x="393.62" y="-1620.65" font-family="Helvetica,sans-Serif" font-size="10.00" fill="grey"> m_iMaxAnimEventsCount</text>
</g>
<!-- Node3 -->
<g id="Node000003" class="node">
<title>Node3</title>
<g id="a_Node000003"><a xlink:href="../../d2/d01/classarray.html" target="_top" xlink:title=" ">
<polygon fill="white" stroke="#666666" points="591.12,-1213.15 511.38,-1213.15 511.38,-1193.15 591.12,-1193.15 591.12,-1213.15"/>
<text text-anchor="middle" x="551.25" y="-1199.65" font-family="Helvetica,sans-Serif" font-size="10.00">array&lt; string &gt;</text>
</a>
</g>
</g>
<!-- Node2&#45;&gt;Node3 -->
<g id="edge4_Node000003_Node000002" class="edge">
<title>Node2&#45;&gt;Node3</title>
<g id="a_edge4_Node000003_Node000002"><a xlink:title=" ">
<path fill="none" stroke="#9a32cd" stroke-dasharray="5,2" d="M29.82,-1324.56C35.21,-1349.53 46.68,-1391.18 67.75,-1421.15 112.11,-1484.25 129.36,-1505.19 202,-1531.15 214.07,-1535.46 449.03,-1530.63 451,-1529.15 504.53,-1488.86 541.03,-1264.66 548.73,-1213.53"/>
<polygon fill="#9a32cd" stroke="#9a32cd" points="33.29,-1324.08 27.9,-1314.96 26.43,-1325.45 33.29,-1324.08"/>
</a>
</g>
<text text-anchor="middle" x="260.12" y="-1594.65" font-family="Helvetica,sans-Serif" font-size="10.00" fill="grey"> NO_SORTING</text>
<text text-anchor="middle" x="260.12" y="-1582.65" font-family="Helvetica,sans-Serif" font-size="10.00" fill="grey">geomLevel</text>
<text text-anchor="middle" x="260.12" y="-1570.65" font-family="Helvetica,sans-Serif" font-size="10.00" fill="grey">hierLevel</text>
<text text-anchor="start" x="202" y="-1558.65" font-family="Helvetica,sans-Serif" font-size="10.00" fill="grey">m_CurrentSettingAlternate</text>
<text text-anchor="middle" x="260.12" y="-1546.65" font-family="Helvetica,sans-Serif" font-size="10.00" fill="grey">KeyIndex</text>
<text text-anchor="middle" x="260.12" y="-1534.65" font-family="Helvetica,sans-Serif" font-size="10.00" fill="grey">m_CurrentSettingKeyIndex</text>
</g>
<!-- Node5 -->
<g id="Node000005" class="node">
<title>Node5</title>
<g id="a_Node000005"><a xlink:href="../../d2/d01/classarray.html" target="_top" xlink:title="Result for an object found in CGame.IsBoxCollidingGeometryProxy.">
<polygon fill="white" stroke="#666666" points="279,-669.15 241.25,-669.15 241.25,-649.15 279,-649.15 279,-669.15"/>
<text text-anchor="middle" x="260.12" y="-655.65" font-family="Helvetica,sans-Serif" font-size="10.00">array</text>
</a>
</g>
</g>
<!-- Node2&#45;&gt;Node5 -->
<g id="edge7_Node000005_Node000002" class="edge">
<title>Node2&#45;&gt;Node5</title>
<g id="a_edge7_Node000005_Node000002"><a xlink:title=" ">
<path fill="none" stroke="#9a32cd" stroke-dasharray="5,2" d="M28.18,-1282C37.71,-1202.01 79.39,-912.32 202,-713.15 213.02,-695.25 231.45,-679.34 244.39,-669.51"/>
<polygon fill="#9a32cd" stroke="#9a32cd" points="24.76,-1281.16 27.1,-1291.49 31.71,-1281.96 24.76,-1281.16"/>
</a>
</g>
<text text-anchor="middle" x="125.88" y="-1113.65" font-family="Helvetica,sans-Serif" font-size="10.00" fill="grey"> NO_SORTING</text>
<text text-anchor="middle" x="125.88" y="-1101.65" font-family="Helvetica,sans-Serif" font-size="10.00" fill="grey">geomLevel</text>
<text text-anchor="middle" x="125.88" y="-1089.65" font-family="Helvetica,sans-Serif" font-size="10.00" fill="grey">hierLevel</text>
<text text-anchor="start" x="67.75" y="-1077.65" font-family="Helvetica,sans-Serif" font-size="10.00" fill="grey">m_CurrentSettingAlternate</text>
<text text-anchor="middle" x="125.88" y="-1065.65" font-family="Helvetica,sans-Serif" font-size="10.00" fill="grey">KeyIndex</text>
<text text-anchor="middle" x="125.88" y="-1053.65" font-family="Helvetica,sans-Serif" font-size="10.00" fill="grey">m_CurrentSettingKeyIndex</text>
</g>
<!-- Node9 -->
<g id="Node000009" class="node">
<title>Node9</title>
<g id="a_Node000009"><a xlink:href="../../d2/d01/classarray.html" target="_top" xlink:title=" ">
<polygon fill="white" stroke="#666666" points="594.5,-718.15 508,-718.15 508,-698.15 594.5,-698.15 594.5,-718.15"/>
<text text-anchor="middle" x="551.25" y="-704.65" font-family="Helvetica,sans-Serif" font-size="10.00">array&lt; Widget &gt;</text>
</a>
</g>
</g>
<!-- Node2&#45;&gt;Node9 -->
<g id="edge15_Node000009_Node000002" class="edge">
<title>Node2&#45;&gt;Node9</title>
<g id="a_edge15_Node000009_Node000002"><a xlink:title=" ">
<path fill="none" stroke="#9a32cd" stroke-dasharray="5,2" d="M61.31,-1305.45C120.71,-1307.44 241.43,-1303.19 318.25,-1244.15 403.13,-1178.91 415.65,-1144.2 451,-1043.15 480.61,-958.49 441.03,-927.36 469,-842.15 485.63,-791.48 524.42,-739.85 541.69,-718.43"/>
<polygon fill="#9a32cd" stroke="#9a32cd" points="61.59,-1301.96 51.45,-1305.04 61.29,-1308.96 61.59,-1301.96"/>
</a>
</g>
<text text-anchor="middle" x="260.12" y="-1355.65" font-family="Helvetica,sans-Serif" font-size="10.00" fill="grey"> NO_SORTING</text>
<text text-anchor="middle" x="260.12" y="-1343.65" font-family="Helvetica,sans-Serif" font-size="10.00" fill="grey">geomLevel</text>
<text text-anchor="middle" x="260.12" y="-1331.65" font-family="Helvetica,sans-Serif" font-size="10.00" fill="grey">hierLevel</text>
<text text-anchor="start" x="202" y="-1319.65" font-family="Helvetica,sans-Serif" font-size="10.00" fill="grey">m_CurrentSettingAlternate</text>
<text text-anchor="middle" x="260.12" y="-1307.65" font-family="Helvetica,sans-Serif" font-size="10.00" fill="grey">KeyIndex</text>
<text text-anchor="middle" x="260.12" y="-1295.65" font-family="Helvetica,sans-Serif" font-size="10.00" fill="grey">m_CurrentSettingKeyIndex</text>
</g>
<!-- Node10 -->
<g id="Node000010" class="node">
<title>Node10</title>
<g id="a_Node000010"><a xlink:href="../../d2/d01/classarray.html" target="_top" xlink:title=" ">
<polygon fill="white" stroke="#666666" points="623.75,-432.15 478.75,-432.15 478.75,-400.15 623.75,-400.15 623.75,-432.15"/>
<text text-anchor="start" x="486.75" y="-418.65" font-family="Helvetica,sans-Serif" font-size="10.00">array&lt; ref DayZCreatureAnim</text>
<text text-anchor="middle" x="551.25" y="-406.65" font-family="Helvetica,sans-Serif" font-size="10.00">ScriptDebugAnimEventData &gt;</text>
</a>
</g>
</g>
<!-- Node2&#45;&gt;Node10 -->
<g id="edge26_Node000010_Node000002" class="edge">
<title>Node2&#45;&gt;Node10</title>
<g id="a_edge26_Node000010_Node000002"><a xlink:title=" ">
<path fill="none" stroke="#9a32cd" stroke-dasharray="5,2" d="M48.59,-1285.75C84.21,-1257.05 152.41,-1196.04 184,-1127.15 210.15,-1070.12 160.68,-1034.35 202,-987.15 237.22,-946.91 284.43,-997.56 318.25,-956.15 360.78,-904.08 293.17,-705.76 336.25,-654.15 369.89,-613.84 410.32,-659.33 451,-626.15 514.59,-574.27 539.8,-472.17 547.46,-432.47"/>
<polygon fill="#9a32cd" stroke="#9a32cd" points="46.72,-1282.77 41.06,-1291.72 51.07,-1288.26 46.72,-1282.77"/>
</a>
</g>
<text text-anchor="middle" x="260.12" y="-1049.65" font-family="Helvetica,sans-Serif" font-size="10.00" fill="grey"> NO_SORTING</text>
<text text-anchor="middle" x="260.12" y="-1037.65" font-family="Helvetica,sans-Serif" font-size="10.00" fill="grey">geomLevel</text>
<text text-anchor="middle" x="260.12" y="-1025.65" font-family="Helvetica,sans-Serif" font-size="10.00" fill="grey">hierLevel</text>
<text text-anchor="start" x="202" y="-1013.65" font-family="Helvetica,sans-Serif" font-size="10.00" fill="grey">m_CurrentSettingAlternate</text>
<text text-anchor="middle" x="260.12" y="-1001.65" font-family="Helvetica,sans-Serif" font-size="10.00" fill="grey">KeyIndex</text>
<text text-anchor="middle" x="260.12" y="-989.65" font-family="Helvetica,sans-Serif" font-size="10.00" fill="grey">m_CurrentSettingKeyIndex</text>
</g>
<!-- Node11 -->
<g id="Node000011" class="node">
<title>Node11</title>
<g id="a_Node000011"><a xlink:href="../../d2/d01/classarray.html" target="_top" xlink:title=" ">
<polygon fill="white" stroke="#666666" points="633.5,-883.15 469,-883.15 469,-851.15 633.5,-851.15 633.5,-883.15"/>
<text text-anchor="start" x="477" y="-869.65" font-family="Helvetica,sans-Serif" font-size="10.00">array&lt; ref DayZCreatureAnim</text>
<text text-anchor="middle" x="551.25" y="-857.65" font-family="Helvetica,sans-Serif" font-size="10.00">ScriptDebugAnimPredictionData &gt;</text>
</a>
</g>
</g>
<!-- Node2&#45;&gt;Node11 -->
<g id="edge33_Node000011_Node000002" class="edge">
<title>Node2&#45;&gt;Node11</title>
<g id="a_edge33_Node000011_Node000002"><a xlink:title=" ">
<path fill="none" stroke="#9a32cd" stroke-dasharray="5,2" d="M54.52,-1318.94C88.51,-1336.69 147.45,-1364.43 202,-1375.15 313.91,-1397.14 383.24,-1404.88 451,-1313.15 485.4,-1266.58 457.8,-1240.94 469,-1184.15 491.98,-1067.65 531.59,-930.08 545.36,-883.5"/>
<polygon fill="#9a32cd" stroke="#9a32cd" points="56.21,-1315.87 45.74,-1314.27 52.93,-1322.05 56.21,-1315.87"/>
</a>
</g>
<text text-anchor="middle" x="260.12" y="-1451.65" font-family="Helvetica,sans-Serif" font-size="10.00" fill="grey"> NO_SORTING</text>
<text text-anchor="middle" x="260.12" y="-1439.65" font-family="Helvetica,sans-Serif" font-size="10.00" fill="grey">geomLevel</text>
<text text-anchor="middle" x="260.12" y="-1427.65" font-family="Helvetica,sans-Serif" font-size="10.00" fill="grey">hierLevel</text>
<text text-anchor="start" x="202" y="-1415.65" font-family="Helvetica,sans-Serif" font-size="10.00" fill="grey">m_CurrentSettingAlternate</text>
<text text-anchor="middle" x="260.12" y="-1403.65" font-family="Helvetica,sans-Serif" font-size="10.00" fill="grey">KeyIndex</text>
<text text-anchor="middle" x="260.12" y="-1391.65" font-family="Helvetica,sans-Serif" font-size="10.00" fill="grey">m_CurrentSettingKeyIndex</text>
</g>
<!-- Node12 -->
<g id="Node000012" class="node">
<title>Node12</title>
<g id="a_Node000012"><a xlink:href="../../d2/d01/classarray.html" target="_top" xlink:title=" ">
<polygon fill="white" stroke="#666666" points="622.25,-322.15 480.25,-322.15 480.25,-290.15 622.25,-290.15 622.25,-322.15"/>
<text text-anchor="start" x="488.25" y="-308.65" font-family="Helvetica,sans-Serif" font-size="10.00">array&lt; ref DayZCreatureAnim</text>
<text text-anchor="middle" x="551.25" y="-296.65" font-family="Helvetica,sans-Serif" font-size="10.00">ScriptDebugAnimTagData &gt;</text>
</a>
</g>
</g>
<!-- Node2&#45;&gt;Node12 -->
<g id="edge40_Node000012_Node000002" class="edge">
<title>Node2&#45;&gt;Node12</title>
<g id="a_edge40_Node000012_Node000002"><a xlink:title=" ">
<path fill="none" stroke="#9a32cd" stroke-dasharray="5,2" d="M26.91,-1281.54C32.32,-1170.04 57.37,-664.48 67.75,-652.15 101.96,-611.48 145.05,-660.3 184,-624.15 203.16,-606.36 183.05,-586.16 202,-568.15 240.75,-531.3 283.53,-577.81 318.25,-537.15 368.73,-478.02 285.76,-422.27 336.25,-363.15 354.94,-341.25 424.99,-325.47 479.92,-316.14"/>
<polygon fill="#9a32cd" stroke="#9a32cd" points="23.43,-1281.21 26.44,-1291.36 30.42,-1281.54 23.43,-1281.21"/>
</a>
</g>
<text text-anchor="middle" x="260.12" y="-630.65" font-family="Helvetica,sans-Serif" font-size="10.00" fill="grey"> NO_SORTING</text>
<text text-anchor="middle" x="260.12" y="-618.65" font-family="Helvetica,sans-Serif" font-size="10.00" fill="grey">geomLevel</text>
<text text-anchor="middle" x="260.12" y="-606.65" font-family="Helvetica,sans-Serif" font-size="10.00" fill="grey">hierLevel</text>
<text text-anchor="start" x="202" y="-594.65" font-family="Helvetica,sans-Serif" font-size="10.00" fill="grey">m_CurrentSettingAlternate</text>
<text text-anchor="middle" x="260.12" y="-582.65" font-family="Helvetica,sans-Serif" font-size="10.00" fill="grey">KeyIndex</text>
<text text-anchor="middle" x="260.12" y="-570.65" font-family="Helvetica,sans-Serif" font-size="10.00" fill="grey">m_CurrentSettingKeyIndex</text>
</g>
<!-- Node3&#45;&gt;Node1 -->
<g id="edge2_Node000001_Node000003" class="edge">
<title>Node3&#45;&gt;Node1</title>
<g id="a_edge2_Node000001_Node000003"><a xlink:title=" ">
<path fill="none" stroke="#9a32cd" stroke-dasharray="5,2" d="M567.97,-1184.24C619.74,-1122.01 783.78,-924.82 823.18,-877.45"/>
<polygon fill="#9a32cd" stroke="#9a32cd" points="565.59,-1181.63 561.89,-1191.56 570.98,-1186.11 565.59,-1181.63"/>
</a>
</g>
<text text-anchor="middle" x="695.38" y="-1076.65" font-family="Helvetica,sans-Serif" font-size="10.00" fill="grey"> m_EventsFilter</text>
</g>
<!-- Node4 -->
<g id="Node000004" class="node">
<title>Node4</title>
<g id="a_Node000004"><a xlink:href="../../d8/d03/class_object.html" target="_top" xlink:title=" ">
<polygon fill="white" stroke="#666666" points="47.12,-485.15 2.62,-485.15 2.62,-465.15 47.12,-465.15 47.12,-485.15"/>
<text text-anchor="middle" x="24.88" y="-471.65" font-family="Helvetica,sans-Serif" font-size="10.00">Object</text>
</a>
</g>
</g>
<!-- Node4&#45;&gt;Node3 -->
<g id="edge3_Node000003_Node000004" class="edge">
<title>Node4&#45;&gt;Node3</title>
<g id="a_edge3_Node000003_Node000004"><a xlink:title=" ">
<path fill="none" stroke="#9a32cd" stroke-dasharray="5,2" d="M37.1,-495.41C41.87,-505.04 46.97,-516.88 49.75,-528.15 81.52,-656.97 33.14,-698.05 67.75,-826.15 102.29,-953.99 101.23,-1006.23 202,-1092.15 249.63,-1132.75 430.61,-1176.68 511.17,-1194.71"/>
<polygon fill="#9a32cd" stroke="#9a32cd" points="40.24,-493.88 32.5,-486.64 34.04,-497.12 40.24,-493.88"/>
</a>
</g>
<text text-anchor="middle" x="260.12" y="-1156.65" font-family="Helvetica,sans-Serif" font-size="10.00" fill="grey"> obj</text>
<text text-anchor="middle" x="260.12" y="-1144.65" font-family="Helvetica,sans-Serif" font-size="10.00" fill="grey">parent</text>
</g>
<!-- Node4&#45;&gt;Node5 -->
<g id="edge6_Node000005_Node000004" class="edge">
<title>Node4&#45;&gt;Node5</title>
<g id="a_edge6_Node000005_Node000004"><a xlink:title=" ">
<path fill="none" stroke="#9a32cd" stroke-dasharray="5,2" d="M59.05,-476.63C95.42,-480.14 152.74,-491.56 184,-528.15 215.32,-564.81 172.06,-597.34 202,-635.15 211.48,-647.12 228.02,-653.2 240.87,-656.23"/>
<polygon fill="#9a32cd" stroke="#9a32cd" points="59.34,-473.14 49.1,-475.84 58.79,-480.12 59.34,-473.14"/>
</a>
</g>
<text text-anchor="middle" x="125.88" y="-542.65" font-family="Helvetica,sans-Serif" font-size="10.00" fill="grey"> obj</text>
<text text-anchor="middle" x="125.88" y="-530.65" font-family="Helvetica,sans-Serif" font-size="10.00" fill="grey">parent</text>
</g>
<!-- Node4&#45;&gt;Node9 -->
<g id="edge14_Node000009_Node000004" class="edge">
<title>Node4&#45;&gt;Node9</title>
<g id="a_edge14_Node000009_Node000004"><a xlink:title=" ">
<path fill="none" stroke="#9a32cd" stroke-dasharray="5,2" d="M58.28,-465.25C136.41,-443.58 337.16,-401.29 451,-499.15 516.49,-555.44 541.98,-664.59 548.47,-698.11"/>
<polygon fill="#9a32cd" stroke="#9a32cd" points="57.35,-461.88 48.69,-467.99 59.27,-468.61 57.35,-461.88"/>
</a>
</g>
<text text-anchor="middle" x="260.12" y="-455.65" font-family="Helvetica,sans-Serif" font-size="10.00" fill="grey"> obj</text>
<text text-anchor="middle" x="260.12" y="-443.65" font-family="Helvetica,sans-Serif" font-size="10.00" fill="grey">parent</text>
</g>
<!-- Node4&#45;&gt;Node10 -->
<g id="edge25_Node000010_Node000004" class="edge">
<title>Node4&#45;&gt;Node10</title>
<g id="a_edge25_Node000010_Node000004"><a xlink:title=" ">
<path fill="none" stroke="#9a32cd" stroke-dasharray="5,2" d="M26.11,-453.62C27.21,-395.03 33.37,-234.56 67.75,-197.15 109.25,-151.98 141.08,-172.31 202,-165.15 312.99,-152.1 376.91,-116.48 451,-200.15 489.96,-244.14 443.45,-278.22 469,-331.15 482.67,-359.46 509.29,-384.47 528.34,-399.9"/>
<polygon fill="#9a32cd" stroke="#9a32cd" points="22.62,-453.22 25.97,-463.27 29.62,-453.32 22.62,-453.22"/>
</a>
</g>
<text text-anchor="middle" x="260.12" y="-179.65" font-family="Helvetica,sans-Serif" font-size="10.00" fill="grey"> obj</text>
<text text-anchor="middle" x="260.12" y="-167.65" font-family="Helvetica,sans-Serif" font-size="10.00" fill="grey">parent</text>
</g>
<!-- Node4&#45;&gt;Node11 -->
<g id="edge32_Node000011_Node000004" class="edge">
<title>Node4&#45;&gt;Node11</title>
<g id="a_edge32_Node000011_Node000004"><a xlink:title=" ">
<path fill="none" stroke="#9a32cd" stroke-dasharray="5,2" d="M37.07,-495.42C41.84,-505.05 46.94,-516.88 49.75,-528.15 57.18,-557.97 46.31,-782.13 67.75,-804.15 87.25,-824.17 290.54,-823.49 318.25,-827.15 368.39,-833.76 424.27,-843.33 468.62,-851.45"/>
<polygon fill="#9a32cd" stroke="#9a32cd" points="40.22,-493.89 32.48,-486.65 34.02,-497.13 40.22,-493.89"/>
</a>
</g>
<text text-anchor="middle" x="260.12" y="-841.65" font-family="Helvetica,sans-Serif" font-size="10.00" fill="grey"> obj</text>
<text text-anchor="middle" x="260.12" y="-829.65" font-family="Helvetica,sans-Serif" font-size="10.00" fill="grey">parent</text>
</g>
<!-- Node4&#45;&gt;Node12 -->
<g id="edge39_Node000012_Node000004" class="edge">
<title>Node4&#45;&gt;Node12</title>
<g id="a_edge39_Node000012_Node000004"><a xlink:title=" ">
<path fill="none" stroke="#9a32cd" stroke-dasharray="5,2" d="M26.77,-453.84C30.19,-376.93 43.47,-116.69 67.75,-89.15 180.38,38.64 319.54,19.17 451,-89.15 516.38,-143.02 540.64,-249.29 547.75,-289.87"/>
<polygon fill="#9a32cd" stroke="#9a32cd" points="23.29,-453.26 26.36,-463.4 30.29,-453.56 23.29,-453.26"/>
</a>
</g>
<text text-anchor="middle" x="260.12" y="-27.65" font-family="Helvetica,sans-Serif" font-size="10.00" fill="grey"> obj</text>
<text text-anchor="middle" x="260.12" y="-15.65" font-family="Helvetica,sans-Serif" font-size="10.00" fill="grey">parent</text>
</g>
<!-- Node5&#45;&gt;Node3 -->
<g id="edge5_Node000003_Node000005" class="edge">
<title>Node5&#45;&gt;Node3</title>
<g id="a_edge5_Node000003_Node000005"><a xlink:title=" ">
<path fill="none" stroke="#9a32cd" stroke-dasharray="5,2" d="M285.15,-676.53C296.75,-686.11 309.93,-698.92 318.25,-713.15 334.9,-741.62 324.66,-754.26 336.25,-785.15 400.28,-955.74 515.62,-1147.06 543.87,-1192.89"/>
<polygon fill="#9a32cd" stroke="#9a32cd" points="287.52,-673.94 277.5,-670.52 283.2,-679.45 287.52,-673.94"/>
</a>
</g>
<text text-anchor="middle" x="393.62" y="-1029.65" font-family="Helvetica,sans-Serif" font-size="10.00" fill="grey"> proxyInfo</text>
</g>
<!-- Node5&#45;&gt;Node5 -->
<g id="edge8_Node000005_Node000005" class="edge">
<title>Node5&#45;&gt;Node5</title>
<g id="a_edge8_Node000005_Node000005"><a xlink:title=" ">
<path fill="none" stroke="#9a32cd" stroke-dasharray="5,2" d="M235.15,-677.5C235.93,-682.93 244.26,-687.15 260.12,-687.15 284.9,-687.15 291.28,-676.86 279.28,-667.75"/>
<polygon fill="#9a32cd" stroke="#9a32cd" points="238.08,-679.43 240.19,-669.05 232.06,-675.84 238.08,-679.43"/>
</a>
</g>
<text text-anchor="middle" x="260.12" y="-689.65" font-family="Helvetica,sans-Serif" font-size="10.00" fill="grey"> proxyInfo</text>
</g>
<!-- Node5&#45;&gt;Node9 -->
<g id="edge16_Node000009_Node000005" class="edge">
<title>Node5&#45;&gt;Node9</title>
<g id="a_edge16_Node000009_Node000005"><a xlink:title=" ">
<path fill="none" stroke="#9a32cd" stroke-dasharray="5,2" d="M290.57,-658.35C328.2,-657.95 395.18,-659.25 451,-671.15 478.34,-676.97 508.2,-688.92 527.95,-697.67"/>
<polygon fill="#9a32cd" stroke="#9a32cd" points="290.88,-654.85 280.94,-658.51 291,-661.85 290.88,-654.85"/>
</a>
</g>
<text text-anchor="middle" x="393.62" y="-673.65" font-family="Helvetica,sans-Serif" font-size="10.00" fill="grey"> proxyInfo</text>
</g>
<!-- Node5&#45;&gt;Node10 -->
<g id="edge27_Node000010_Node000005" class="edge">
<title>Node5&#45;&gt;Node10</title>
<g id="a_edge27_Node000010_Node000005"><a xlink:title=" ">
<path fill="none" stroke="#9a32cd" stroke-dasharray="5,2" d="M290.09,-649.99C299.57,-646.23 309.82,-641.3 318.25,-635.15 328.18,-627.9 327.72,-623 336.25,-614.15 404.71,-543.04 493.04,-465.38 531.25,-432.4"/>
<polygon fill="#9a32cd" stroke="#9a32cd" points="289.1,-646.63 280.9,-653.34 291.5,-653.2 289.1,-646.63"/>
</a>
</g>
<text text-anchor="middle" x="393.62" y="-616.65" font-family="Helvetica,sans-Serif" font-size="10.00" fill="grey"> proxyInfo</text>
</g>
<!-- Node5&#45;&gt;Node11 -->
<g id="edge34_Node000011_Node000005" class="edge">
<title>Node5&#45;&gt;Node11</title>
<g id="a_edge34_Node000011_Node000005"><a xlink:title=" ">
<path fill="none" stroke="#9a32cd" stroke-dasharray="5,2" d="M280.83,-676.84C295.43,-689.39 316.2,-706.08 336.25,-718.15 384.06,-746.94 404.9,-737.7 451,-769.15 485.81,-792.89 519.15,-829.63 536.94,-850.73"/>
<polygon fill="#9a32cd" stroke="#9a32cd" points="283.16,-674.23 273.33,-670.28 278.55,-679.5 283.16,-674.23"/>
</a>
</g>
<text text-anchor="middle" x="393.62" y="-771.65" font-family="Helvetica,sans-Serif" font-size="10.00" fill="grey"> proxyInfo</text>
</g>
<!-- Node5&#45;&gt;Node12 -->
<g id="edge41_Node000012_Node000005" class="edge">
<title>Node5&#45;&gt;Node12</title>
<g id="a_edge41_Node000012_Node000005"><a xlink:title=" ">
<path fill="none" stroke="#9a32cd" stroke-dasharray="5,2" d="M290.19,-653.35C300.6,-649.82 311.44,-644.16 318.25,-635.15 358.19,-582.28 304.78,-545.46 336.25,-487.15 378.66,-408.57 470.22,-349.64 518.68,-322.57"/>
<polygon fill="#9a32cd" stroke="#9a32cd" points="289.41,-649.94 280.73,-656.01 291.3,-656.68 289.41,-649.94"/>
</a>
</g>
<text text-anchor="middle" x="393.62" y="-489.65" font-family="Helvetica,sans-Serif" font-size="10.00" fill="grey"> proxyInfo</text>
</g>
<!-- Node6 -->
<g id="Node000006" class="node">
<title>Node6</title>
<g id="a_Node000006"><a xlink:href="../../d4/d04/class_class.html" target="_top" xlink:title="Super root of all classes in Enforce script.">
<polygon fill="white" stroke="#666666" points="45.25,-845.15 4.5,-845.15 4.5,-825.15 45.25,-825.15 45.25,-845.15"/>
<text text-anchor="middle" x="24.88" y="-831.65" font-family="Helvetica,sans-Serif" font-size="10.00">Class</text>
</a>
</g>
</g>
<!-- Node6&#45;&gt;Node3 -->
<g id="edge21_Node000003_Node000006" class="edge">
<title>Node6&#45;&gt;Node3</title>
<g id="a_edge21_Node000003_Node000006"><a xlink:title=" ">
<path fill="none" stroke="#9a32cd" stroke-dasharray="5,2" d="M26.78,-856.85C30.03,-930.08 42.34,-1167.52 67.75,-1239.15 99.34,-1328.2 145.26,-1330.96 184,-1417.15 196.46,-1444.88 177.84,-1464.69 202,-1483.15 344.73,-1592.16 514.1,-1275.04 545.21,-1213.34"/>
<polygon fill="#9a32cd" stroke="#9a32cd" points="30.28,-856.85 26.35,-847.01 23.29,-857.16 30.28,-856.85"/>
</a>
</g>
<text text-anchor="middle" x="260.12" y="-1507.65" font-family="Helvetica,sans-Serif" font-size="10.00" fill="grey"> m_Instance</text>
</g>
<!-- Node6&#45;&gt;Node5 -->
<g id="edge9_Node000005_Node000006" class="edge">
<title>Node6&#45;&gt;Node5</title>
<g id="a_edge9_Node000005_Node000006"><a xlink:title=" ">
<path fill="none" stroke="#9a32cd" stroke-dasharray="5,2" d="M25.94,-813.56C27.27,-782.95 34.47,-727.3 67.75,-697.15 117.08,-652.46 203.43,-653.98 240.91,-657.11"/>
<polygon fill="#9a32cd" stroke="#9a32cd" points="22.44,-813.41 25.71,-823.49 29.44,-813.57 22.44,-813.41"/>
</a>
</g>
<text text-anchor="middle" x="125.88" y="-699.65" font-family="Helvetica,sans-Serif" font-size="10.00" fill="grey"> m_Instance</text>
</g>
<!-- Node6&#45;&gt;Node9 -->
<g id="edge17_Node000009_Node000006" class="edge">
<title>Node6&#45;&gt;Node9</title>
<g id="a_edge17_Node000009_Node000006"><a xlink:title=" ">
<path fill="none" stroke="#9a32cd" stroke-dasharray="5,2" d="M32.24,-856.4C38.43,-872.89 49.59,-894.67 67.75,-905.15 164.19,-960.79 213.84,-945.79 318.25,-907.15 425.74,-867.36 517.01,-753.04 542.9,-718.29"/>
<polygon fill="#9a32cd" stroke="#9a32cd" points="35.58,-855.35 29.08,-846.99 28.95,-857.58 35.58,-855.35"/>
</a>
</g>
<text text-anchor="middle" x="260.12" y="-942.65" font-family="Helvetica,sans-Serif" font-size="10.00" fill="grey"> m_Instance</text>
</g>
<!-- Node6&#45;&gt;Node10 -->
<g id="edge28_Node000010_Node000006" class="edge">
<title>Node6&#45;&gt;Node10</title>
<g id="a_edge28_Node000010_Node000006"><a xlink:title=" ">
<path fill="none" stroke="#9a32cd" stroke-dasharray="5,2" d="M24.97,-813.23C24.6,-775.95 29.06,-699.6 67.75,-652.15 103.63,-608.14 150.92,-645.3 184,-599.15 207.16,-566.83 172.7,-448.02 202,-421.15 221.83,-402.96 382.45,-407.65 478.48,-412.19"/>
<polygon fill="#9a32cd" stroke="#9a32cd" points="21.47,-813.26 25.22,-823.17 28.47,-813.09 21.47,-813.26"/>
</a>
</g>
<text text-anchor="middle" x="260.12" y="-423.65" font-family="Helvetica,sans-Serif" font-size="10.00" fill="grey"> m_Instance</text>
</g>
<!-- Node6&#45;&gt;Node11 -->
<g id="edge35_Node000011_Node000006" class="edge">
<title>Node6&#45;&gt;Node11</title>
<g id="a_edge35_Node000011_Node000006"><a xlink:title=" ">
<path fill="none" stroke="#9a32cd" stroke-dasharray="5,2" d="M29.82,-856.56C35.21,-881.53 46.68,-923.18 67.75,-953.15 112.11,-1016.25 129.36,-1037.19 202,-1063.15 250.65,-1080.53 269.64,-1080.67 318.25,-1063.15 390.33,-1037.16 392.54,-1002.68 451,-953.15 479.35,-929.12 511.84,-900.82 531.7,-883.44"/>
<polygon fill="#9a32cd" stroke="#9a32cd" points="33.29,-856.08 27.9,-846.96 26.43,-857.45 33.29,-856.08"/>
</a>
</g>
<text text-anchor="middle" x="260.12" y="-1078.65" font-family="Helvetica,sans-Serif" font-size="10.00" fill="grey"> m_Instance</text>
</g>
<!-- Node6&#45;&gt;Node12 -->
<g id="edge42_Node000012_Node000006" class="edge">
<title>Node6&#45;&gt;Node12</title>
<g id="a_edge42_Node000012_Node000006"><a xlink:title=" ">
<path fill="none" stroke="#9a32cd" stroke-dasharray="5,2" d="M29.41,-814C34.46,-783.27 43.77,-724.46 49.75,-674.15 55.04,-629.61 47.79,-513.31 67.75,-473.15 128.88,-350.15 200.37,-340.15 336.25,-320.15 383.95,-313.13 438.15,-309.63 480.07,-307.88"/>
<polygon fill="#9a32cd" stroke="#9a32cd" points="26.02,-813.07 27.84,-823.51 32.92,-814.21 26.02,-813.07"/>
</a>
</g>
<text text-anchor="middle" x="260.12" y="-348.65" font-family="Helvetica,sans-Serif" font-size="10.00" fill="grey"> m_Instance</text>
</g>
<!-- Node7 -->
<g id="Node000007" class="node">
<title>Node7</title>
<g id="a_Node000007"><a xlink:href="../../d5/d02/classstring.html" target="_top" xlink:title=" ">
<polygon fill="white" stroke="#666666" points="44.88,-635.15 4.88,-635.15 4.88,-615.15 44.88,-615.15 44.88,-635.15"/>
<text text-anchor="middle" x="24.88" y="-621.65" font-family="Helvetica,sans-Serif" font-size="10.00">string</text>
</a>
</g>
</g>
<!-- Node7&#45;&gt;Node3 -->
<g id="edge22_Node000003_Node000007" class="edge">
<title>Node7&#45;&gt;Node3</title>
<g id="a_edge22_Node000003_Node000007"><a xlink:title=" ">
<path fill="none" stroke="#9a32cd" stroke-dasharray="5,2" d="M29.14,-646.71C34.35,-682.04 44.51,-754.46 49.75,-816.15 51.62,-838.2 52.04,-1198.56 67.75,-1214.15 97.98,-1244.14 408.54,-1220.45 451,-1217.15 470.95,-1215.59 493.01,-1212.61 511.25,-1209.8"/>
<polygon fill="#9a32cd" stroke="#9a32cd" points="32.62,-646.34 27.68,-636.96 25.7,-647.37 32.62,-646.34"/>
</a>
</g>
<text text-anchor="middle" x="260.12" y="-1230.65" font-family="Helvetica,sans-Serif" font-size="10.00" fill="grey"> m_Test</text>
</g>
<!-- Node7&#45;&gt;Node5 -->
<g id="edge10_Node000005_Node000007" class="edge">
<title>Node7&#45;&gt;Node5</title>
<g id="a_edge10_Node000005_Node000007"><a xlink:title=" ">
<path fill="none" stroke="#9a32cd" stroke-dasharray="5,2" d="M56.27,-625.57C88.28,-626.46 140.05,-629.13 184,-637.15 203.79,-640.75 225.8,-647.54 240.86,-652.63"/>
<polygon fill="#9a32cd" stroke="#9a32cd" points="56.62,-622.08 46.54,-625.35 56.45,-629.08 56.62,-622.08"/>
</a>
</g>
<text text-anchor="middle" x="125.88" y="-639.65" font-family="Helvetica,sans-Serif" font-size="10.00" fill="grey"> m_Test</text>
</g>
<!-- Node7&#45;&gt;Node7 -->
<g id="edge11_Node000007_Node000007" class="edge">
<title>Node7&#45;&gt;Node7</title>
<g id="a_edge11_Node000007_Node000007"><a xlink:title=" ">
<path fill="none" stroke="#9a32cd" stroke-dasharray="5,2" d="M7.02,-646.59C9.32,-650.45 15.27,-653.15 24.88,-653.15 42.43,-653.15 47.78,-644.12 40.92,-635.48"/>
<polygon fill="#9a32cd" stroke="#9a32cd" points="10.44,-647.41 8.58,-636.98 3.53,-646.29 10.44,-647.41"/>
</a>
</g>
<text text-anchor="middle" x="24.88" y="-655.65" font-family="Helvetica,sans-Serif" font-size="10.00" fill="grey"> Empty</text>
</g>
<!-- Node7&#45;&gt;Node9 -->
<g id="edge18_Node000009_Node000007" class="edge">
<title>Node7&#45;&gt;Node9</title>
<g id="a_edge18_Node000009_Node000007"><a xlink:title=" ">
<path fill="none" stroke="#9a32cd" stroke-dasharray="5,2" d="M51.28,-641.23C56.59,-644.15 62.25,-646.96 67.75,-649.15 117.13,-668.78 141.39,-645.39 184,-677.15 196.77,-686.67 188.5,-699.69 202,-708.15 302.3,-770.97 452.83,-737.72 518.13,-718.58"/>
<polygon fill="#9a32cd" stroke="#9a32cd" points="53.35,-638.38 42.95,-636.37 49.83,-644.43 53.35,-638.38"/>
</a>
</g>
<text text-anchor="middle" x="260.12" y="-744.65" font-family="Helvetica,sans-Serif" font-size="10.00" fill="grey"> m_Test</text>
</g>
<!-- Node7&#45;&gt;Node10 -->
<g id="edge29_Node000010_Node000007" class="edge">
<title>Node7&#45;&gt;Node10</title>
<g id="a_edge29_Node000010_Node000007"><a xlink:title=" ">
<path fill="none" stroke="#9a32cd" stroke-dasharray="5,2" d="M35.36,-604.53C40.21,-593.35 45.89,-579.2 49.75,-566.15 61.7,-525.78 45.69,-509.01 67.75,-473.15 107.29,-408.86 130.59,-393.57 202,-369.15 210.12,-366.37 444.55,-368.7 451,-370.15 476.76,-375.93 503.8,-388.99 523.15,-399.73"/>
<polygon fill="#9a32cd" stroke="#9a32cd" points="32.22,-602.98 31.34,-613.54 38.61,-605.83 32.22,-602.98"/>
</a>
</g>
<text text-anchor="middle" x="260.12" y="-371.65" font-family="Helvetica,sans-Serif" font-size="10.00" fill="grey"> m_Test</text>
</g>
<!-- Node7&#45;&gt;Node11 -->
<g id="edge36_Node000011_Node000007" class="edge">
<title>Node7&#45;&gt;Node11</title>
<g id="a_edge36_Node000011_Node000007"><a xlink:title=" ">
<path fill="none" stroke="#9a32cd" stroke-dasharray="5,2" d="M28.21,-646.71C34.38,-701.64 51.72,-843.47 67.75,-857.15 125.98,-906.84 346.96,-890.68 468.65,-877.37"/>
<polygon fill="#9a32cd" stroke="#9a32cd" points="31.72,-646.62 27.15,-637.06 24.77,-647.38 31.72,-646.62"/>
</a>
</g>
<text text-anchor="middle" x="260.12" y="-892.65" font-family="Helvetica,sans-Serif" font-size="10.00" fill="grey"> m_Test</text>
</g>
<!-- Node7&#45;&gt;Node12 -->
<g id="edge43_Node000012_Node000007" class="edge">
<title>Node7&#45;&gt;Node12</title>
<g id="a_edge43_Node000012_Node000007"><a xlink:title=" ">
<path fill="none" stroke="#9a32cd" stroke-dasharray="5,2" d="M35.89,-604.67C40.88,-593.54 46.53,-579.37 49.75,-566.15 59.98,-524.08 46.46,-409.85 67.75,-372.15 104.2,-307.59 131.57,-296.31 202,-273.15 305.12,-239.23 434.02,-268.77 502.43,-289.68"/>
<polygon fill="#9a32cd" stroke="#9a32cd" points="32.76,-603.09 31.69,-613.63 39.1,-606.06 32.76,-603.09"/>
</a>
</g>
<text text-anchor="middle" x="260.12" y="-275.65" font-family="Helvetica,sans-Serif" font-size="10.00" fill="grey"> m_Test</text>
</g>
<!-- Node8 -->
<g id="Node000008" class="node">
<title>Node8</title>
<g id="a_Node000008"><a xlink:href="../../dd/d0a/class_widget.html" target="_top" xlink:title=" ">
<polygon fill="white" stroke="#666666" points="48.25,-557.15 1.5,-557.15 1.5,-537.15 48.25,-537.15 48.25,-557.15"/>
<text text-anchor="middle" x="24.88" y="-543.65" font-family="Helvetica,sans-Serif" font-size="10.00">Widget</text>
</a>
</g>
</g>
<!-- Node8&#45;&gt;Node3 -->
<g id="edge23_Node000003_Node000008" class="edge">
<title>Node8&#45;&gt;Node3</title>
<g id="a_edge23_Node000003_Node000008"><a xlink:title=" ">
<path fill="none" stroke="#9a32cd" stroke-dasharray="5,2" d="M36.21,-567.55C41.3,-578.66 46.93,-592.83 49.75,-606.15 56.09,-636.11 46.88,-1134.73 67.75,-1157.15 97.78,-1189.4 401.8,-1199.67 511.25,-1202.34"/>
<polygon fill="#9a32cd" stroke="#9a32cd" points="39.39,-566.1 31.9,-558.61 33.08,-569.13 39.39,-566.1"/>
</a>
</g>
<text text-anchor="middle" x="260.12" y="-1196.65" font-family="Helvetica,sans-Serif" font-size="10.00" fill="grey"> m_Root</text>
</g>
<!-- Node8&#45;&gt;Node5 -->
<g id="edge12_Node000005_Node000008" class="edge">
<title>Node8&#45;&gt;Node5</title>
<g id="a_edge12_Node000005_Node000008"><a xlink:title=" ">
<path fill="none" stroke="#9a32cd" stroke-dasharray="5,2" d="M59.49,-554.21C93.65,-562.7 146.71,-579.64 184,-609.15 195.02,-617.87 191.08,-626.29 202,-635.15 213.45,-644.43 229,-650.65 240.99,-654.43"/>
<polygon fill="#9a32cd" stroke="#9a32cd" points="60.69,-550.9 50.15,-552 59.07,-557.71 60.69,-550.9"/>
</a>
</g>
<text text-anchor="middle" x="125.88" y="-611.65" font-family="Helvetica,sans-Serif" font-size="10.00" fill="grey"> m_Root</text>
</g>
<!-- Node8&#45;&gt;Node9 -->
<g id="edge19_Node000009_Node000008" class="edge">
<title>Node8&#45;&gt;Node9</title>
<g id="a_edge19_Node000009_Node000008"><a xlink:title=" ">
<path fill="none" stroke="#9a32cd" stroke-dasharray="5,2" d="M33.7,-526.37C40.35,-511.94 51.46,-493.8 67.75,-485.15 117.53,-458.7 268.22,-499.18 318.25,-525.15 414.32,-575.01 509.63,-666.99 540.17,-697.79"/>
<polygon fill="#9a32cd" stroke="#9a32cd" points="30.51,-524.93 29.88,-535.5 36.97,-527.62 30.51,-524.93"/>
</a>
</g>
<text text-anchor="middle" x="260.12" y="-527.65" font-family="Helvetica,sans-Serif" font-size="10.00" fill="grey"> m_Root</text>
</g>
<!-- Node8&#45;&gt;Node10 -->
<g id="edge30_Node000010_Node000008" class="edge">
<title>Node8&#45;&gt;Node10</title>
<g id="a_edge30_Node000010_Node000008"><a xlink:title=" ">
<path fill="none" stroke="#9a32cd" stroke-dasharray="5,2" d="M36.81,-526.8C41.52,-517.16 46.65,-505.33 49.75,-494.15 68.02,-428.16 35.67,-401.63 67.75,-341.15 104.7,-271.48 128.1,-252.65 202,-225.15 250.42,-207.12 269.62,-207.7 318.25,-225.15 369.08,-243.38 489.39,-357.01 533.59,-399.84"/>
<polygon fill="#9a32cd" stroke="#9a32cd" points="33.75,-525.1 32.3,-535.59 39.98,-528.29 33.75,-525.1"/>
</a>
</g>
<text text-anchor="middle" x="260.12" y="-227.65" font-family="Helvetica,sans-Serif" font-size="10.00" fill="grey"> m_Root</text>
</g>
<!-- Node8&#45;&gt;Node11 -->
<g id="edge37_Node000011_Node000008" class="edge">
<title>Node8&#45;&gt;Node11</title>
<g id="a_edge37_Node000011_Node000008"><a xlink:title=" ">
<path fill="none" stroke="#9a32cd" stroke-dasharray="5,2" d="M35.95,-567.61C40.97,-578.74 46.61,-592.9 49.75,-606.15 55.48,-630.34 50.16,-811.59 67.75,-829.15 95.46,-856.8 338.56,-864.33 468.74,-866.38"/>
<polygon fill="#9a32cd" stroke="#9a32cd" points="39.16,-566.2 31.73,-558.65 32.82,-569.18 39.16,-566.2"/>
</a>
</g>
<text text-anchor="middle" x="260.12" y="-863.65" font-family="Helvetica,sans-Serif" font-size="10.00" fill="grey"> m_Root</text>
</g>
<!-- Node8&#45;&gt;Node12 -->
<g id="edge44_Node000012_Node000008" class="edge">
<title>Node8&#45;&gt;Node12</title>
<g id="a_edge44_Node000012_Node000008"><a xlink:title=" ">
<path fill="none" stroke="#9a32cd" stroke-dasharray="5,2" d="M37.06,-526.87C41.83,-517.24 46.93,-505.4 49.75,-494.15 64.14,-436.67 38.89,-279.89 67.75,-228.15 103.48,-164.09 132.15,-154.55 202,-132.15 307.57,-98.28 357.22,-88.01 451,-147.15 505.09,-181.25 534.62,-256.68 545.42,-289.9"/>
<polygon fill="#9a32cd" stroke="#9a32cd" points="34,-525.16 32.48,-535.64 40.21,-528.4 34,-525.16"/>
</a>
</g>
<text text-anchor="middle" x="260.12" y="-134.65" font-family="Helvetica,sans-Serif" font-size="10.00" fill="grey"> m_Root</text>
</g>
<!-- Node9&#45;&gt;Node5 -->
<g id="edge13_Node000005_Node000009" class="edge">
<title>Node9&#45;&gt;Node5</title>
<g id="a_edge13_Node000005_Node000009"><a xlink:title=" ">
<path fill="none" stroke="#9a32cd" stroke-dasharray="5,2" d="M496.03,-706.2C452.42,-703.77 389.79,-698.33 336.25,-686.15 316.25,-681.6 294.27,-673.28 279.28,-667.08"/>
<polygon fill="#9a32cd" stroke="#9a32cd" points="495.85,-709.7 506.02,-706.72 496.21,-702.71 495.85,-709.7"/>
</a>
</g>
<text text-anchor="middle" x="393.62" y="-704.65" font-family="Helvetica,sans-Serif" font-size="10.00" fill="grey"> m_Subgroups</text>
</g>
<!-- Node9&#45;&gt;Node9 -->
<g id="edge20_Node000009_Node000009" class="edge">
<title>Node9&#45;&gt;Node9</title>
<g id="a_edge20_Node000009_Node000009"><a xlink:title=" ">
<path fill="none" stroke="#9a32cd" stroke-dasharray="5,2" d="M525.78,-729.59C529.06,-733.45 537.55,-736.15 551.25,-736.15 576.3,-736.15 583.94,-727.12 574.15,-718.48"/>
<polygon fill="#9a32cd" stroke="#9a32cd" points="529.16,-730.49 528.01,-719.96 522.34,-728.91 529.16,-730.49"/>
</a>
</g>
<text text-anchor="middle" x="551.25" y="-738.65" font-family="Helvetica,sans-Serif" font-size="10.00" fill="grey"> m_Subgroups</text>
</g>
<!-- Node10&#45;&gt;Node1 -->
<g id="edge24_Node000001_Node000010" class="edge">
<title>Node10&#45;&gt;Node1</title>
<g id="a_edge24_Node000001_Node000010"><a xlink:title=" ">
<path fill="none" stroke="#9a32cd" stroke-dasharray="5,2" d="M568.41,-442.22C621.69,-528.19 790.41,-800.44 825.37,-856.85"/>
<polygon fill="#9a32cd" stroke="#9a32cd" points="571.4,-440.41 563.16,-433.75 565.45,-444.09 571.4,-440.41"/>
</a>
</g>
<text text-anchor="middle" x="695.38" y="-710.65" font-family="Helvetica,sans-Serif" font-size="10.00" fill="grey"> m_AnimEvents</text>
</g>
<!-- Node11&#45;&gt;Node1 -->
<g id="edge31_Node000001_Node000011" class="edge">
<title>Node11&#45;&gt;Node1</title>
<g id="a_edge31_Node000001_Node000011"><a xlink:title=" ">
<path fill="none" stroke="#9a32cd" stroke-dasharray="5,2" d="M644.99,-867.15C681.45,-867.15 722.75,-867.15 757.22,-867.15"/>
<polygon fill="#9a32cd" stroke="#9a32cd" points="645.36,-863.65 635.36,-867.15 645.36,-870.65 645.36,-863.65"/>
</a>
</g>
<text text-anchor="middle" x="695.38" y="-869.65" font-family="Helvetica,sans-Serif" font-size="10.00" fill="grey"> m_AnimPredictions</text>
</g>
<!-- Node12&#45;&gt;Node1 -->
<g id="edge38_Node000001_Node000012" class="edge">
<title>Node12&#45;&gt;Node1</title>
<g id="a_edge38_Node000001_Node000012"><a xlink:title=" ">
<path fill="none" stroke="#9a32cd" stroke-dasharray="5,2" d="M578.26,-330.28C595.07,-346.59 616.84,-369.09 633.5,-391.15 689.43,-465.18 701.67,-486.31 739.25,-571.15 786.9,-678.7 820.6,-818.29 829.44,-856.88"/>
<polygon fill="#9a32cd" stroke="#9a32cd" points="580.72,-327.78 571.07,-323.4 575.88,-332.84 580.72,-327.78"/>
</a>
</g>
<text text-anchor="middle" x="695.38" y="-573.65" font-family="Helvetica,sans-Serif" font-size="10.00" fill="grey"> m_AnimTags</text>
</g>
</g>
</svg>

<g id="navigator" transform="translate(0 0)" fill="#404254">
  <rect fill="#f2f5e9" fill-opacity="0.5" stroke="#606060" stroke-width=".5" x="0" y="0" width="60" height="60"/>
  <use id="zoomplus" xlink:href="#zoomPlus" x="17" y="9" onmousedown="handleZoom(evt,'in')"/>
  <use id="zoomminus" xlink:href="#zoomMin" x="42" y="9" onmousedown="handleZoom(evt,'out')"/>
  <use id="reset" xlink:href="#resetDef" x="30" y="36" onmousedown="handleReset()"/>
   <use id="arrowup" xlink:href="#arrowUp" x="0" y="0" onmousedown="handlePan(0,-1)"/>
  <use id="arrowright" xlink:href="#arrowRight" x="0" y="0" onmousedown="handlePan(1,0)"/>
  <use id="arrowdown" xlink:href="#arrowDown" x="0" y="0" onmousedown="handlePan(0,1)"/>
  <use id="arrowleft" xlink:href="#arrowLeft" x="0" y="0" onmousedown="handlePan(-1,0)"/>
</g>
<svg viewBox="0 0 15 15" width="100%" height="30px" preserveAspectRatio="xMaxYMin meet">
 <g id="arrow_out" transform="scale(0.3 0.3)">
  <a xlink:href="class_day_z_creature_anim_script_debug__coll__graph_org.svg" target="_base">
   <rect id="button" ry="5" rx="5" y="6" x="6" height="38" width="38"
        fill="#f2f5e9" fill-opacity="0.5" stroke="#606060" stroke-width="1.0"/>
   <path id="arrow"
     d="M 11.500037,31.436501 C 11.940474,20.09759 22.043105,11.32322 32.158766,21.979434 L 37.068811,17.246167 C 37.068811,17.246167 37.088388,32 37.088388,32 L 22.160133,31.978069 C 22.160133,31.978069 26.997745,27.140456 26.997745,27.140456 C 18.528582,18.264221 13.291696,25.230495 11.500037,31.436501 z"
     style="fill:#404040;"/>
  </a>
 </g>
</svg>

<style type='text/css'>
<![CDATA[
[data-mouse-over-selected='false'] { opacity: 0.7; }
[data-mouse-over-selected='true']  { opacity: 1.0; }
]]>
</style>
<script type="application/ecmascript"><![CDATA[
document.addEventListener('DOMContentLoaded', (event) => {
  highlightEdges();
  highlightAdjacentNodes();
});
]]></script>
</svg>
