<?xml version="1.0" encoding="UTF-8" standalone="no"?>
<!DOCTYPE svg PUBLIC "-//W3C//DTD SVG 1.1//EN"
 "http://www.w3.org/Graphics/SVG/1.1/DTD/svg11.dtd">
<!-- Generated by graphviz version 11.0.0 (20240428.1522)
 -->
<!-- Title: PPEChromAber Pages: 1 -->
<!--zoomable 443 -->

<svg id="main" version="1.1" xmlns="http://www.w3.org/2000/svg" xmlns:xlink="http://www.w3.org/1999/xlink" xml:space="preserve" onload="init(evt)">
<style type="text/css"><![CDATA[
.node, .edge {opacity: 0.7;}
.node.selected, .edge.selected {opacity: 1;}
.edge:hover path { stroke: red; }
.edge:hover polygon { stroke: red; fill: red; }
]]></style>

<defs>
  <circle id="rim" cx="0" cy="0" r="7"/>
  <circle id="rim2" cx="0" cy="0" r="3.5"/>
  <g id="zoomPlus">
    <use xlink:href="#rim" fill="#404040"><set attributeName="fill" to="#808080" begin="zoomplus.mouseover" end="zoomplus.mouseout"/></use>
    <path d="M-4,0h8M0,-4v8" fill="none" stroke="white" stroke-width="1.5" pointer-events="none"/>
  </g>
  <g id="zoomMin">
    <use xlink:href="#rim" fill="#404040"><set attributeName="fill" to="#808080" begin="zoomminus.mouseover" end="zoomminus.mouseout"/></use>
    <path d="M-4,0h8" fill="none" stroke="white" stroke-width="1.5" pointer-events="none"/>
  </g>
  <g id="arrowUp" transform="translate(30 24)">
    <use xlink:href="#rim"/>
    <path pointer-events="none" fill="none" stroke="white" stroke-width="1.5" d="M0,-3.0v7 M-2.5,-0.5L0,-3.0L2.5,-0.5"/>
  </g>
  <g id="arrowRight" transform="rotate(90) translate(36 -43)">
    <use xlink:href="#rim"/>
    <path pointer-events="none" fill="none" stroke="white" stroke-width="1.5" d="M0,-3.0v7 M-2.5,-0.5L0,-3.0L2.5,-0.5"/>
  </g>
  <g id="arrowDown" transform="rotate(180) translate(-30 -48)">
    <use xlink:href="#rim"/>
    <path pointer-events="none" fill="none" stroke="white" stroke-width="1.5" d="M0,-3.0v7 M-2.5,-0.5L0,-3.0L2.5,-0.5"/>
  </g>
  <g id="arrowLeft" transform="rotate(270) translate(-36 17)">
    <use xlink:href="#rim"/>
    <path pointer-events="none" fill="none" stroke="white" stroke-width="1.5" d="M0,-3.0v7 M-2.5,-0.5L0,-3.0L2.5,-0.5"/>
  </g>
  <g id="resetDef">
    <use xlink:href="#rim2" fill="#404040"><set attributeName="fill" to="#808080" begin="reset.mouseover" end="reset.mouseout"/></use>
  </g>
</defs>
<script type="application/ecmascript">
var viewWidth = 1185;
var viewHeight = 443;
var sectionId = 'dynsection-1';
</script>
<script type="application/ecmascript" xlink:href="../../svg.min.js"/>
<svg id="graph" class="graph">
<g id="viewport">
<title>PPEChromAber</title>
<!-- Node1 -->
<g id="Node000001" class="node">
<title>Node1</title>
<g id="a_Node000001"><a xlink:title="ChromAber &#45; PostProcessEffectType.ChromAber.">
<polygon fill="#999999" stroke="#666666" points="129.5,-20 44.5,-20 44.5,0 129.5,0 129.5,-20"/>
<text text-anchor="middle" x="87" y="-6.5" font-family="Helvetica,sans-Serif" font-size="10.00">PPEChromAber</text>
</a>
</g>
</g>
<!-- Node2 -->
<g id="Node000002" class="node">
<title>Node2</title>
<g id="a_Node000002"><a xlink:href="../../d3/d0f/class_p_p_e_class_base.html" target="_top" xlink:title="Created once, on manager init. Script&#45;side representation of C++ material class, separate handling.">
<polygon fill="white" stroke="#666666" points="286.75,-77 203.25,-77 203.25,-57 286.75,-57 286.75,-77"/>
<text text-anchor="middle" x="245" y="-63.5" font-family="Helvetica,sans-Serif" font-size="10.00">PPEClassBase</text>
</a>
</g>
</g>
<!-- Node2&#45;&gt;Node1 -->
<g id="edge1_Node000001_Node000002" class="edge">
<title>Node2&#45;&gt;Node1</title>
<g id="a_edge1_Node000001_Node000002"><a xlink:title=" ">
<path fill="none" stroke="#8b1a1a" d="M207,-52.77C178.32,-42.79 139.67,-29.33 114.07,-20.42"/>
<polygon fill="#8b1a1a" stroke="#8b1a1a" points="205.81,-56.07 216.41,-56.05 208.12,-49.45 205.81,-56.07"/>
</a>
</g>
</g>
<!-- Node3 -->
<g id="Node000003" class="node">
<title>Node3</title>
<g id="a_Node000003"><a xlink:href="../../d5/d02/classstring.html" target="_top" xlink:title=" ">
<polygon fill="white" stroke="#666666" points="1088,-433 1048,-433 1048,-413 1088,-413 1088,-433"/>
<text text-anchor="middle" x="1068" y="-419.5" font-family="Helvetica,sans-Serif" font-size="10.00">string</text>
</a>
</g>
</g>
<!-- Node3&#45;&gt;Node2 -->
<g id="edge2_Node000002_Node000003" class="edge">
<title>Node3&#45;&gt;Node2</title>
<g id="a_edge2_Node000002_Node000003"><a xlink:title=" ">
<path fill="none" stroke="#9a32cd" stroke-dasharray="5,2" d="M1084.94,-404.19C1087.19,-401.26 1089.3,-398.15 1091,-395 1125.54,-330.78 1151.09,-297.46 1117,-233 1081.55,-165.98 1047.32,-162.71 976,-137 847.68,-90.75 423.08,-73.61 287.21,-69.23"/>
<polygon fill="#9a32cd" stroke="#9a32cd" points="1082.45,-401.73 1078.6,-411.6 1087.76,-406.28 1082.45,-401.73"/>
</a>
</g>
<text text-anchor="middle" x="1141.62" y="-205.5" font-family="Helvetica,sans-Serif" font-size="10.00" fill="grey"> m_MaterialPath</text>
</g>
<!-- Node3&#45;&gt;Node3 -->
<g id="edge3_Node000003_Node000003" class="edge">
<title>Node3&#45;&gt;Node3</title>
<g id="a_edge3_Node000003_Node000003"><a xlink:title=" ">
<path fill="none" stroke="#9a32cd" stroke-dasharray="5,2" d="M1093.77,-434.91C1100.72,-434.28 1106,-430.31 1106,-423 1106,-412.12 1094.3,-408.64 1082.82,-412.55"/>
<polygon fill="#9a32cd" stroke="#9a32cd" points="1094.7,-431.5 1084.32,-433.65 1093.77,-438.44 1094.7,-431.5"/>
</a>
</g>
<text text-anchor="middle" x="1121.75" y="-419.5" font-family="Helvetica,sans-Serif" font-size="10.00" fill="grey"> Empty</text>
</g>
<!-- Node5 -->
<g id="Node000005" class="node">
<title>Node5</title>
<g id="a_Node000005"><a xlink:href="../../d2/d01/classarray.html" target="_top" xlink:title=" ">
<polygon fill="white" stroke="#666666" points="530.75,-171 441.25,-171 441.25,-151 530.75,-151 530.75,-171"/>
<text text-anchor="middle" x="486" y="-157.5" font-family="Helvetica,sans-Serif" font-size="10.00">array&lt; Param3 &gt;</text>
</a>
</g>
</g>
<!-- Node3&#45;&gt;Node5 -->
<g id="edge24_Node000005_Node000003" class="edge">
<title>Node3&#45;&gt;Node5</title>
<g id="a_edge24_Node000005_Node000003"><a xlink:title=" ">
<path fill="none" stroke="#9a32cd" stroke-dasharray="5,2" d="M1064.15,-401.63C1058.76,-378.92 1046.71,-342.8 1022,-323 992.8,-299.6 967.22,-330.41 939.75,-305 915.21,-282.3 943.63,-254.47 918,-233 891.76,-211.02 798.35,-222.74 765,-215 749.39,-211.37 746.52,-207 731,-203 662.31,-185.27 580.73,-173.4 531.2,-167.18"/>
<polygon fill="#9a32cd" stroke="#9a32cd" points="1060.68,-402.14 1066.18,-411.19 1067.52,-400.68 1060.68,-402.14"/>
</a>
</g>
<text text-anchor="middle" x="956.62" y="-265.5" font-family="Helvetica,sans-Serif" font-size="10.00" fill="grey"> m_Test</text>
</g>
<!-- Node7 -->
<g id="Node000007" class="node">
<title>Node7</title>
<g id="a_Node000007"><a xlink:href="../../d2/d01/classarray.html" target="_top" xlink:title="Result for an object found in CGame.IsBoxCollidingGeometryProxy.">
<polygon fill="white" stroke="#666666" points="780.88,-279 743.12,-279 743.12,-259 780.88,-259 780.88,-279"/>
<text text-anchor="middle" x="762" y="-265.5" font-family="Helvetica,sans-Serif" font-size="10.00">array</text>
</a>
</g>
</g>
<!-- Node3&#45;&gt;Node7 -->
<g id="edge13_Node000007_Node000003" class="edge">
<title>Node3&#45;&gt;Node7</title>
<g id="a_edge13_Node000007_Node000003"><a xlink:title=" ">
<path fill="none" stroke="#9a32cd" stroke-dasharray="5,2" d="M1036.92,-415.48C1021.09,-411.24 1002.01,-404.67 986.75,-395 949.37,-371.32 955.87,-345.88 918,-323 893.07,-307.94 882.65,-314.14 855,-305 829.12,-296.45 799.76,-285.12 781.07,-277.7"/>
<polygon fill="#9a32cd" stroke="#9a32cd" points="1035.76,-418.79 1046.31,-417.8 1037.44,-412 1035.76,-418.79"/>
</a>
</g>
<text text-anchor="middle" x="1003.62" y="-355.5" font-family="Helvetica,sans-Serif" font-size="10.00" fill="grey"> m_Test</text>
</g>
<!-- Node10 -->
<g id="Node000010" class="node">
<title>Node10</title>
<g id="a_Node000010"><a xlink:href="../../d2/d01/classarray.html" target="_top" xlink:title=" ">
<polygon fill="white" stroke="#666666" points="886.25,-171 799.75,-171 799.75,-151 886.25,-151 886.25,-171"/>
<text text-anchor="middle" x="843" y="-157.5" font-family="Helvetica,sans-Serif" font-size="10.00">array&lt; Widget &gt;</text>
</a>
</g>
</g>
<!-- Node3&#45;&gt;Node10 -->
<g id="edge20_Node000010_Node000003" class="edge">
<title>Node3&#45;&gt;Node10</title>
<g id="a_edge20_Node000010_Node000003"><a xlink:title=" ">
<path fill="none" stroke="#9a32cd" stroke-dasharray="5,2" d="M1072.77,-401.52C1080.26,-363.9 1090.25,-283.08 1052,-233 1013.04,-181.99 935.59,-167.34 886.69,-163.3"/>
<polygon fill="#9a32cd" stroke="#9a32cd" points="1069.4,-400.52 1070.72,-411.03 1076.25,-401.99 1069.4,-400.52"/>
</a>
</g>
<text text-anchor="middle" x="1095.62" y="-265.5" font-family="Helvetica,sans-Serif" font-size="10.00" fill="grey"> m_Test</text>
</g>
<!-- Node4 -->
<g id="Node000004" class="node">
<title>Node4</title>
<g id="a_Node000004"><a xlink:href="../../db/d06/class_param3.html" target="_top" xlink:title=" ">
<polygon fill="white" stroke="#666666" points="183.88,-433 134.12,-433 134.12,-413 183.88,-413 183.88,-433"/>
<text text-anchor="middle" x="159" y="-419.5" font-family="Helvetica,sans-Serif" font-size="10.00">Param3</text>
</a>
</g>
</g>
<!-- Node4&#45;&gt;Node1 -->
<g id="edge26_Node000001_Node000004" class="edge">
<title>Node4&#45;&gt;Node1</title>
<g id="a_edge26_Node000001_Node000004"><a xlink:title=" ">
<path fill="none" stroke="#9a32cd" stroke-dasharray="5,2" d="M125.26,-407.93C78.59,-385.95 0,-338.73 0,-270 0,-270 0,-270 0,-66 0,-42.23 23.48,-28.32 46.05,-20.43"/>
<polygon fill="#9a32cd" stroke="#9a32cd" points="123.61,-411.02 134.16,-411.98 126.51,-404.65 123.61,-411.02"/>
</a>
</g>
<text text-anchor="middle" x="42.38" y="-175.5" font-family="Helvetica,sans-Serif" font-size="10.00" fill="grey"> L_0_INTRO</text>
<text text-anchor="middle" x="42.38" y="-163.5" font-family="Helvetica,sans-Serif" font-size="10.00" fill="grey">L_1_INTRO</text>
<text text-anchor="middle" x="42.38" y="-151.5" font-family="Helvetica,sans-Serif" font-size="10.00" fill="grey">PARAM_POWERX</text>
<text text-anchor="middle" x="42.38" y="-139.5" font-family="Helvetica,sans-Serif" font-size="10.00" fill="grey">PARAM_POWERY</text>
</g>
<!-- Node4&#45;&gt;Node2 -->
<g id="edge4_Node000002_Node000004" class="edge">
<title>Node4&#45;&gt;Node2</title>
<g id="a_edge4_Node000002_Node000004"><a xlink:title=" ">
<path fill="none" stroke="#9a32cd" stroke-dasharray="5,2" d="M152.35,-401.87C151.8,-399.57 151.33,-397.25 151,-395 140.66,-323.71 142.49,-303.76 156,-233 168.51,-167.46 218.06,-101.08 237.3,-77.23"/>
<polygon fill="#9a32cd" stroke="#9a32cd" points="148.91,-402.59 155.08,-411.2 155.63,-400.62 148.91,-402.59"/>
</a>
</g>
<text text-anchor="middle" x="189.5" y="-205.5" font-family="Helvetica,sans-Serif" font-size="10.00" fill="grey"> m_Material</text>
</g>
<!-- Node4&#45;&gt;Node5 -->
<g id="edge7_Node000005_Node000004" class="edge">
<title>Node4&#45;&gt;Node5</title>
<g id="a_edge7_Node000005_Node000004"><a xlink:title=" ">
<path fill="none" stroke="#9a32cd" stroke-dasharray="5,2" d="M156.2,-401.36C152.21,-362.82 149.69,-279.62 193.75,-233 227.24,-197.57 367.39,-176.05 440.77,-167"/>
<polygon fill="#9a32cd" stroke="#9a32cd" points="152.7,-401.58 157.36,-411.09 159.65,-400.75 152.7,-401.58"/>
</a>
</g>
<text text-anchor="middle" x="252.12" y="-295.5" font-family="Helvetica,sans-Serif" font-size="10.00" fill="grey"> NO_SORTING</text>
<text text-anchor="middle" x="252.12" y="-283.5" font-family="Helvetica,sans-Serif" font-size="10.00" fill="grey">geomLevel</text>
<text text-anchor="middle" x="252.12" y="-271.5" font-family="Helvetica,sans-Serif" font-size="10.00" fill="grey">hierLevel</text>
<text text-anchor="start" x="194" y="-259.5" font-family="Helvetica,sans-Serif" font-size="10.00" fill="grey">m_CurrentSettingAlternate</text>
<text text-anchor="middle" x="252.12" y="-247.5" font-family="Helvetica,sans-Serif" font-size="10.00" fill="grey">KeyIndex</text>
<text text-anchor="middle" x="252.12" y="-235.5" font-family="Helvetica,sans-Serif" font-size="10.00" fill="grey">m_CurrentSettingKeyIndex</text>
</g>
<!-- Node4&#45;&gt;Node7 -->
<g id="edge10_Node000007_Node000004" class="edge">
<title>Node4&#45;&gt;Node7</title>
<g id="a_edge10_Node000007_Node000004"><a xlink:title=" ">
<path fill="none" stroke="#9a32cd" stroke-dasharray="5,2" d="M195.54,-421.34C253.72,-419.72 364.29,-414.15 398,-395 432.96,-375.14 417.33,-342.02 452.75,-323 506.95,-293.89 673.34,-331.2 729,-305 740.79,-299.45 750.46,-287.67 756.22,-279.31"/>
<polygon fill="#9a32cd" stroke="#9a32cd" points="195.72,-417.84 185.81,-421.59 195.9,-424.83 195.72,-417.84"/>
</a>
</g>
<text text-anchor="middle" x="510.12" y="-385.5" font-family="Helvetica,sans-Serif" font-size="10.00" fill="grey"> NO_SORTING</text>
<text text-anchor="middle" x="510.12" y="-373.5" font-family="Helvetica,sans-Serif" font-size="10.00" fill="grey">geomLevel</text>
<text text-anchor="middle" x="510.12" y="-361.5" font-family="Helvetica,sans-Serif" font-size="10.00" fill="grey">hierLevel</text>
<text text-anchor="start" x="452" y="-349.5" font-family="Helvetica,sans-Serif" font-size="10.00" fill="grey">m_CurrentSettingAlternate</text>
<text text-anchor="middle" x="510.12" y="-337.5" font-family="Helvetica,sans-Serif" font-size="10.00" fill="grey">KeyIndex</text>
<text text-anchor="middle" x="510.12" y="-325.5" font-family="Helvetica,sans-Serif" font-size="10.00" fill="grey">m_CurrentSettingKeyIndex</text>
</g>
<!-- Node4&#45;&gt;Node10 -->
<g id="edge17_Node000010_Node000004" class="edge">
<title>Node4&#45;&gt;Node10</title>
<g id="a_edge17_Node000010_Node000004"><a xlink:title=" ">
<path fill="none" stroke="#9a32cd" stroke-dasharray="5,2" d="M195.14,-410.55C240.65,-394.3 318.18,-360.23 362,-305 382.78,-278.81 358.62,-255.05 383.75,-233 414.83,-205.73 690.63,-176.6 799.28,-166.08"/>
<polygon fill="#9a32cd" stroke="#9a32cd" points="194.04,-407.23 185.73,-413.81 196.32,-413.85 194.04,-407.23"/>
</a>
</g>
<text text-anchor="middle" x="441.12" y="-295.5" font-family="Helvetica,sans-Serif" font-size="10.00" fill="grey"> NO_SORTING</text>
<text text-anchor="middle" x="441.12" y="-283.5" font-family="Helvetica,sans-Serif" font-size="10.00" fill="grey">geomLevel</text>
<text text-anchor="middle" x="441.12" y="-271.5" font-family="Helvetica,sans-Serif" font-size="10.00" fill="grey">hierLevel</text>
<text text-anchor="start" x="383" y="-259.5" font-family="Helvetica,sans-Serif" font-size="10.00" fill="grey">m_CurrentSettingAlternate</text>
<text text-anchor="middle" x="441.12" y="-247.5" font-family="Helvetica,sans-Serif" font-size="10.00" fill="grey">KeyIndex</text>
<text text-anchor="middle" x="441.12" y="-235.5" font-family="Helvetica,sans-Serif" font-size="10.00" fill="grey">m_CurrentSettingKeyIndex</text>
</g>
<!-- Node5&#45;&gt;Node2 -->
<g id="edge5_Node000002_Node000005" class="edge">
<title>Node5&#45;&gt;Node2</title>
<g id="a_edge5_Node000002_Node000005"><a xlink:title=" ">
<path fill="none" stroke="#9a32cd" stroke-dasharray="5,2" d="M450.61,-146.49C401.17,-127.62 312.7,-93.84 269.75,-77.45"/>
<polygon fill="#9a32cd" stroke="#9a32cd" points="449.11,-149.66 459.7,-149.96 451.61,-143.12 449.11,-149.66"/>
</a>
</g>
<text text-anchor="middle" x="435.38" y="-109.5" font-family="Helvetica,sans-Serif" font-size="10.00" fill="grey"> m_ParameterRemovalQueue</text>
<text text-anchor="middle" x="435.38" y="-97.5" font-family="Helvetica,sans-Serif" font-size="10.00" fill="grey">m_UpdatedParameters</text>
</g>
<!-- Node6 -->
<g id="Node000006" class="node">
<title>Node6</title>
<g id="a_Node000006"><a xlink:href="../../d8/d03/class_object.html" target="_top" xlink:title=" ">
<polygon fill="white" stroke="#666666" points="784.25,-433 739.75,-433 739.75,-413 784.25,-413 784.25,-433"/>
<text text-anchor="middle" x="762" y="-419.5" font-family="Helvetica,sans-Serif" font-size="10.00">Object</text>
</a>
</g>
</g>
<!-- Node6&#45;&gt;Node5 -->
<g id="edge6_Node000005_Node000006" class="edge">
<title>Node6&#45;&gt;Node5</title>
<g id="a_edge6_Node000005_Node000006"><a xlink:title=" ">
<path fill="none" stroke="#9a32cd" stroke-dasharray="5,2" d="M728.27,-420.61C706.68,-418.05 679.36,-411.45 661,-395 635.43,-372.09 648.36,-353.71 633,-323 627.73,-312.47 584.88,-241.76 577,-233 553.82,-207.22 520.41,-183.86 501.18,-171.42"/>
<polygon fill="#9a32cd" stroke="#9a32cd" points="727.8,-424.08 738.08,-421.52 728.45,-417.11 727.8,-424.08"/>
</a>
</g>
<text text-anchor="middle" x="635.5" y="-271.5" font-family="Helvetica,sans-Serif" font-size="10.00" fill="grey"> obj</text>
<text text-anchor="middle" x="635.5" y="-259.5" font-family="Helvetica,sans-Serif" font-size="10.00" fill="grey">parent</text>
</g>
<!-- Node6&#45;&gt;Node7 -->
<g id="edge9_Node000007_Node000006" class="edge">
<title>Node6&#45;&gt;Node7</title>
<g id="a_edge9_Node000007_Node000006"><a xlink:title=" ">
<path fill="none" stroke="#9a32cd" stroke-dasharray="5,2" d="M762,-401.47C762,-368.04 762,-303.17 762,-279.2"/>
<polygon fill="#9a32cd" stroke="#9a32cd" points="758.5,-401.43 762,-411.43 765.5,-401.43 758.5,-401.43"/>
</a>
</g>
<text text-anchor="middle" x="775.5" y="-361.5" font-family="Helvetica,sans-Serif" font-size="10.00" fill="grey"> obj</text>
<text text-anchor="middle" x="775.5" y="-349.5" font-family="Helvetica,sans-Serif" font-size="10.00" fill="grey">parent</text>
</g>
<!-- Node6&#45;&gt;Node10 -->
<g id="edge16_Node000010_Node000006" class="edge">
<title>Node6&#45;&gt;Node10</title>
<g id="a_edge16_Node000010_Node000006"><a xlink:title=" ">
<path fill="none" stroke="#9a32cd" stroke-dasharray="5,2" d="M782.87,-405.31C786.43,-402.06 789.95,-398.55 793,-395 852.75,-325.4 873.32,-304.37 894,-215 895.2,-209.8 896.3,-207.81 894,-203 887.32,-189.07 873.35,-178.37 861.71,-171.4"/>
<polygon fill="#9a32cd" stroke="#9a32cd" points="780.68,-402.58 775.38,-411.75 785.24,-407.89 780.68,-402.58"/>
</a>
</g>
<text text-anchor="middle" x="902.5" y="-271.5" font-family="Helvetica,sans-Serif" font-size="10.00" fill="grey"> obj</text>
<text text-anchor="middle" x="902.5" y="-259.5" font-family="Helvetica,sans-Serif" font-size="10.00" fill="grey">parent</text>
</g>
<!-- Node7&#45;&gt;Node5 -->
<g id="edge8_Node000005_Node000007" class="edge">
<title>Node7&#45;&gt;Node5</title>
<g id="a_edge8_Node000005_Node000007"><a xlink:title=" ">
<path fill="none" stroke="#9a32cd" stroke-dasharray="5,2" d="M747.5,-249.96C742.12,-244.05 735.7,-237.77 729,-233 713.12,-221.69 706.54,-223.51 689,-215 678.63,-209.97 676.82,-206.98 666,-203 621.33,-186.57 567.92,-175.41 530.93,-168.93"/>
<polygon fill="#9a32cd" stroke="#9a32cd" points="744.82,-252.22 753.98,-257.55 750.14,-247.68 744.82,-252.22"/>
</a>
</g>
<text text-anchor="middle" x="710" y="-205.5" font-family="Helvetica,sans-Serif" font-size="10.00" fill="grey"> proxyInfo</text>
</g>
<!-- Node7&#45;&gt;Node7 -->
<g id="edge11_Node000007_Node000007" class="edge">
<title>Node7&#45;&gt;Node7</title>
<g id="a_edge11_Node000007_Node000007"><a xlink:title=" ">
<path fill="none" stroke="#9a32cd" stroke-dasharray="5,2" d="M790.02,-279.66C795.22,-278.34 798.88,-274.78 798.88,-269 798.88,-259.51 789.03,-256.02 778.69,-258.54"/>
<polygon fill="#9a32cd" stroke="#9a32cd" points="790.26,-276.17 780.2,-279.48 790.13,-283.16 790.26,-276.17"/>
</a>
</g>
<text text-anchor="middle" x="819.88" y="-265.5" font-family="Helvetica,sans-Serif" font-size="10.00" fill="grey"> proxyInfo</text>
</g>
<!-- Node7&#45;&gt;Node10 -->
<g id="edge18_Node000010_Node000007" class="edge">
<title>Node7&#45;&gt;Node10</title>
<g id="a_edge18_Node000010_Node000007"><a xlink:title=" ">
<path fill="none" stroke="#9a32cd" stroke-dasharray="5,2" d="M761.92,-247.53C762.81,-233.82 765.88,-215.97 775,-203 785.31,-188.34 802.68,-178 817.29,-171.37"/>
<polygon fill="#9a32cd" stroke="#9a32cd" points="758.43,-247.09 761.65,-257.18 765.43,-247.29 758.43,-247.09"/>
</a>
</g>
<text text-anchor="middle" x="796" y="-205.5" font-family="Helvetica,sans-Serif" font-size="10.00" fill="grey"> proxyInfo</text>
</g>
<!-- Node8 -->
<g id="Node000008" class="node">
<title>Node8</title>
<g id="a_Node000008"><a xlink:href="../../d4/d04/class_class.html" target="_top" xlink:title="Super root of all classes in Enforce script.">
<polygon fill="white" stroke="#666666" points="905.38,-433 864.62,-433 864.62,-413 905.38,-413 905.38,-433"/>
<text text-anchor="middle" x="885" y="-419.5" font-family="Helvetica,sans-Serif" font-size="10.00">Class</text>
</a>
</g>
</g>
<!-- Node8&#45;&gt;Node5 -->
<g id="edge23_Node000005_Node000008" class="edge">
<title>Node8&#45;&gt;Node5</title>
<g id="a_edge23_Node000005_Node000008"><a xlink:title=" ">
<path fill="none" stroke="#9a32cd" stroke-dasharray="5,2" d="M853.04,-420.85C826.04,-418.62 787.21,-412.33 758,-395 712.66,-368.1 708.59,-349.76 680.75,-305 662.37,-275.45 674.54,-257.67 650,-233 617.17,-200.01 566.51,-181.31 530.18,-171.47"/>
<polygon fill="#9a32cd" stroke="#9a32cd" points="852.46,-424.32 862.67,-421.5 852.93,-417.34 852.46,-424.32"/>
</a>
</g>
<text text-anchor="middle" x="706.62" y="-265.5" font-family="Helvetica,sans-Serif" font-size="10.00" fill="grey"> m_Instance</text>
</g>
<!-- Node8&#45;&gt;Node7 -->
<g id="edge12_Node000007_Node000008" class="edge">
<title>Node8&#45;&gt;Node7</title>
<g id="a_edge12_Node000007_Node000008"><a xlink:title=" ">
<path fill="none" stroke="#9a32cd" stroke-dasharray="5,2" d="M870.48,-404.06C844.14,-371.51 789.36,-303.81 769.44,-279.2"/>
<polygon fill="#9a32cd" stroke="#9a32cd" points="867.71,-406.2 876.72,-411.77 873.15,-401.79 867.71,-406.2"/>
</a>
</g>
<text text-anchor="middle" x="887.62" y="-355.5" font-family="Helvetica,sans-Serif" font-size="10.00" fill="grey"> m_Instance</text>
</g>
<!-- Node8&#45;&gt;Node10 -->
<g id="edge19_Node000010_Node000008" class="edge">
<title>Node8&#45;&gt;Node10</title>
<g id="a_edge19_Node000010_Node000008"><a xlink:title=" ">
<path fill="none" stroke="#9a32cd" stroke-dasharray="5,2" d="M916.87,-418.68C946.39,-414.87 987.17,-407.48 997,-395 1016.8,-369.86 1000.15,-354.84 997,-323 992.98,-282.41 1001.52,-267.01 979,-233 957.02,-199.8 914.33,-181.16 882.61,-171.4"/>
<polygon fill="#9a32cd" stroke="#9a32cd" points="916.82,-415.16 907.31,-419.83 917.66,-422.11 916.82,-415.16"/>
</a>
</g>
<text text-anchor="middle" x="1021.62" y="-265.5" font-family="Helvetica,sans-Serif" font-size="10.00" fill="grey"> m_Instance</text>
</g>
<!-- Node9 -->
<g id="Node000009" class="node">
<title>Node9</title>
<g id="a_Node000009"><a xlink:href="../../dd/d0a/class_widget.html" target="_top" xlink:title=" ">
<polygon fill="white" stroke="#666666" points="446.38,-433 399.62,-433 399.62,-413 446.38,-413 446.38,-433"/>
<text text-anchor="middle" x="423" y="-419.5" font-family="Helvetica,sans-Serif" font-size="10.00">Widget</text>
</a>
</g>
</g>
<!-- Node9&#45;&gt;Node5 -->
<g id="edge25_Node000005_Node000009" class="edge">
<title>Node9&#45;&gt;Node5</title>
<g id="a_edge25_Node000005_Node000009"><a xlink:title=" ">
<path fill="none" stroke="#9a32cd" stroke-dasharray="5,2" d="M402.5,-405.38C363.5,-371.7 285.86,-293.46 325.25,-233 350.65,-194.02 402.83,-176.28 440.87,-168.32"/>
<polygon fill="#9a32cd" stroke="#9a32cd" points="400,-407.84 409.9,-411.61 404.51,-402.49 400,-407.84"/>
</a>
</g>
<text text-anchor="middle" x="343.38" y="-265.5" font-family="Helvetica,sans-Serif" font-size="10.00" fill="grey"> m_Root</text>
</g>
<!-- Node9&#45;&gt;Node7 -->
<g id="edge14_Node000007_Node000009" class="edge">
<title>Node9&#45;&gt;Node7</title>
<g id="a_edge14_Node000007_Node000009"><a xlink:title=" ">
<path fill="none" stroke="#9a32cd" stroke-dasharray="5,2" d="M457.87,-419.16C488.85,-415.83 534.99,-408.9 573,-395 648.17,-367.5 666.21,-354.65 729,-305 738.7,-297.33 748.21,-286.83 754.51,-279.34"/>
<polygon fill="#9a32cd" stroke="#9a32cd" points="457.89,-415.64 448.29,-420.11 458.59,-422.6 457.89,-415.64"/>
</a>
</g>
<text text-anchor="middle" x="722.38" y="-355.5" font-family="Helvetica,sans-Serif" font-size="10.00" fill="grey"> m_Root</text>
</g>
<!-- Node9&#45;&gt;Node10 -->
<g id="edge21_Node000010_Node000009" class="edge">
<title>Node9&#45;&gt;Node10</title>
<g id="a_edge21_Node000010_Node000009"><a xlink:title=" ">
<path fill="none" stroke="#9a32cd" stroke-dasharray="5,2" d="M419.84,-401.37C417.69,-379.24 418.06,-344.41 437,-323 457.43,-299.91 480.54,-325.01 504,-305 530.68,-282.25 509.25,-255.37 536.25,-233 576.08,-200 724.66,-176.99 799.43,-167.23"/>
<polygon fill="#9a32cd" stroke="#9a32cd" points="416.36,-401.75 421.09,-411.23 423.31,-400.87 416.36,-401.75"/>
</a>
</g>
<text text-anchor="middle" x="554.38" y="-265.5" font-family="Helvetica,sans-Serif" font-size="10.00" fill="grey"> m_Root</text>
</g>
<!-- Node10&#45;&gt;Node7 -->
<g id="edge15_Node000007_Node000010" class="edge">
<title>Node10&#45;&gt;Node7</title>
<g id="a_edge15_Node000007_Node000010"><a xlink:title=" ">
<path fill="none" stroke="#9a32cd" stroke-dasharray="5,2" d="M837.02,-182.16C833.37,-192.54 828.04,-205.07 821,-215 808.35,-232.87 788.65,-248.98 775.54,-258.63"/>
<polygon fill="#9a32cd" stroke="#9a32cd" points="840.33,-183.28 840.07,-172.69 833.67,-181.13 840.33,-183.28"/>
</a>
</g>
<text text-anchor="middle" x="858.5" y="-205.5" font-family="Helvetica,sans-Serif" font-size="10.00" fill="grey"> m_Subgroups</text>
</g>
<!-- Node10&#45;&gt;Node10 -->
<g id="edge22_Node000010_Node000010" class="edge">
<title>Node10&#45;&gt;Node10</title>
<g id="a_edge22_Node000010_Node000010"><a xlink:title=" ">
<path fill="none" stroke="#9a32cd" stroke-dasharray="5,2" d="M897.63,-167.72C901.73,-166.22 904.25,-163.98 904.25,-161 904.25,-155.84 896.71,-152.9 886.49,-152.18"/>
<polygon fill="#9a32cd" stroke="#9a32cd" points="897.16,-164.25 887.98,-169.54 898.45,-171.13 897.16,-164.25"/>
</a>
</g>
<text text-anchor="middle" x="935.75" y="-157.5" font-family="Helvetica,sans-Serif" font-size="10.00" fill="grey"> m_Subgroups</text>
</g>
</g>
</svg>

<g id="navigator" transform="translate(0 0)" fill="#404254">
  <rect fill="#f2f5e9" fill-opacity="0.5" stroke="#606060" stroke-width=".5" x="0" y="0" width="60" height="60"/>
  <use id="zoomplus" xlink:href="#zoomPlus" x="17" y="9" onmousedown="handleZoom(evt,'in')"/>
  <use id="zoomminus" xlink:href="#zoomMin" x="42" y="9" onmousedown="handleZoom(evt,'out')"/>
  <use id="reset" xlink:href="#resetDef" x="30" y="36" onmousedown="handleReset()"/>
   <use id="arrowup" xlink:href="#arrowUp" x="0" y="0" onmousedown="handlePan(0,-1)"/>
  <use id="arrowright" xlink:href="#arrowRight" x="0" y="0" onmousedown="handlePan(1,0)"/>
  <use id="arrowdown" xlink:href="#arrowDown" x="0" y="0" onmousedown="handlePan(0,1)"/>
  <use id="arrowleft" xlink:href="#arrowLeft" x="0" y="0" onmousedown="handlePan(-1,0)"/>
</g>
<svg viewBox="0 0 15 15" width="100%" height="30px" preserveAspectRatio="xMaxYMin meet">
 <g id="arrow_out" transform="scale(0.3 0.3)">
  <a xlink:href="class_p_p_e_chrom_aber__coll__graph_org.svg" target="_base">
   <rect id="button" ry="5" rx="5" y="6" x="6" height="38" width="38"
        fill="#f2f5e9" fill-opacity="0.5" stroke="#606060" stroke-width="1.0"/>
   <path id="arrow"
     d="M 11.500037,31.436501 C 11.940474,20.09759 22.043105,11.32322 32.158766,21.979434 L 37.068811,17.246167 C 37.068811,17.246167 37.088388,32 37.088388,32 L 22.160133,31.978069 C 22.160133,31.978069 26.997745,27.140456 26.997745,27.140456 C 18.528582,18.264221 13.291696,25.230495 11.500037,31.436501 z"
     style="fill:#404040;"/>
  </a>
 </g>
</svg>

<style type='text/css'>
<![CDATA[
[data-mouse-over-selected='false'] { opacity: 0.7; }
[data-mouse-over-selected='true']  { opacity: 1.0; }
]]>
</style>
<script type="application/ecmascript"><![CDATA[
document.addEventListener('DOMContentLoaded', (event) => {
  highlightEdges();
  highlightAdjacentNodes();
});
]]></script>
</svg>
