<?xml version="1.0" encoding="UTF-8" standalone="no"?>
<!DOCTYPE svg PUBLIC "-//W3C//DTD SVG 1.1//EN"
 "http://www.w3.org/Graphics/SVG/1.1/DTD/svg11.dtd">
<!-- Generated by graphviz version 11.0.0 (20240428.1522)
 -->
<!-- Title: PoweredOptic_Base Pages: 1 -->
<svg width="728pt" height="304pt"
 viewBox="0.00 0.00 727.88 304.00" xmlns="http://www.w3.org/2000/svg" xmlns:xlink="http://www.w3.org/1999/xlink">
<g id="graph0" class="graph" transform="scale(1 1) rotate(0) translate(4 300)">
<title>PoweredOptic_Base</title>
<!-- Node1 -->
<g id="Node000001" class="node">
<title>Node1</title>
<g id="a_Node000001"><a xlink:title=" ">
<polygon fill="#999999" stroke="#666666" points="478.12,-20 373.62,-20 373.62,0 478.12,0 478.12,-20"/>
<text text-anchor="middle" x="425.88" y="-6.5" font-family="Helvetica,sans-Serif" font-size="10.00">PoweredOptic_Base</text>
</a>
</g>
</g>
<!-- Node2 -->
<g id="Node000002" class="node">
<title>Node2</title>
<g id="a_Node000002"><a xlink:href="../../d9/d09/classbool.html" target="_top" xlink:title=" ">
<polygon fill="white" stroke="#666666" points="236.88,-96 202.88,-96 202.88,-76 236.88,-76 236.88,-96"/>
<text text-anchor="middle" x="219.88" y="-82.5" font-family="Helvetica,sans-Serif" font-size="10.00">bool</text>
</a>
</g>
</g>
<!-- Node2&#45;&gt;Node1 -->
<g id="edge1_Node000001_Node000002" class="edge">
<title>Node2&#45;&gt;Node1</title>
<g id="a_edge1_Node000001_Node000002"><a xlink:title=" ">
<path fill="none" stroke="#9a32cd" stroke-dasharray="5,2" d="M238.02,-68.53C250.36,-58.2 267.56,-45.48 284.88,-38 312.79,-25.95 346.12,-19.25 373.37,-15.54"/>
<polygon fill="#9a32cd" stroke="#9a32cd" points="236,-65.64 230.74,-74.84 240.59,-70.93 236,-65.64"/>
</a>
</g>
<text text-anchor="middle" x="314.88" y="-40.5" font-family="Helvetica,sans-Serif" font-size="10.00" fill="grey"> m_IsLowered</text>
</g>
<!-- Node3 -->
<g id="Node000003" class="node">
<title>Node3</title>
<g id="a_Node000003"><a xlink:href="../../d8/d04/class_clothing.html" target="_top" xlink:title=" ">
<polygon fill="white" stroke="#666666" points="306.5,-96 255.25,-96 255.25,-76 306.5,-76 306.5,-96"/>
<text text-anchor="middle" x="280.88" y="-82.5" font-family="Helvetica,sans-Serif" font-size="10.00">Clothing</text>
</a>
</g>
</g>
<!-- Node3&#45;&gt;Node1 -->
<g id="edge2_Node000001_Node000003" class="edge">
<title>Node3&#45;&gt;Node1</title>
<g id="a_edge2_Node000001_Node000003"><a xlink:title=" ">
<path fill="none" stroke="#9a32cd" stroke-dasharray="5,2" d="M309.15,-70.34C327.15,-61.03 350.98,-48.76 372.12,-38 383.67,-32.13 396.64,-25.61 406.95,-20.45"/>
<polygon fill="#9a32cd" stroke="#9a32cd" points="307.64,-67.18 300.37,-74.89 310.86,-73.4 307.64,-67.18"/>
</a>
</g>
<text text-anchor="middle" x="391.75" y="-40.5" font-family="Helvetica,sans-Serif" font-size="10.00" fill="grey"> m_Strap</text>
</g>
<!-- Node4 -->
<g id="Node000004" class="node">
<title>Node4</title>
<g id="a_Node000004"><a xlink:href="../../db/d06/class_param3.html" target="_top" xlink:title=" ">
<polygon fill="white" stroke="#666666" points="49.75,-282 0,-282 0,-262 49.75,-262 49.75,-282"/>
<text text-anchor="middle" x="24.88" y="-268.5" font-family="Helvetica,sans-Serif" font-size="10.00">Param3</text>
</a>
</g>
</g>
<!-- Node4&#45;&gt;Node3 -->
<g id="edge3_Node000003_Node000004" class="edge">
<title>Node4&#45;&gt;Node3</title>
<g id="a_edge3_Node000003_Node000004"><a xlink:title=" ">
<path fill="none" stroke="#9a32cd" stroke-dasharray="5,2" d="M18.61,-250.66C10.13,-218.56 -0.4,-156.31 32.88,-122 65.95,-87.9 200.07,-116.59 245.88,-104 252.26,-102.25 258.88,-99.34 264.63,-96.43"/>
<polygon fill="#9a32cd" stroke="#9a32cd" points="15.24,-251.6 21.36,-260.25 21.97,-249.68 15.24,-251.6"/>
</a>
</g>
<text text-anchor="middle" x="68.88" y="-178.5" font-family="Helvetica,sans-Serif" font-size="10.00" fill="grey"> GLASS_ID</text>
<text text-anchor="middle" x="68.88" y="-166.5" font-family="Helvetica,sans-Serif" font-size="10.00" fill="grey">REFLECTOR_ID</text>
</g>
<!-- Node5 -->
<g id="Node000005" class="node">
<title>Node5</title>
<g id="a_Node000005"><a xlink:href="../../d5/d02/classstring.html" target="_top" xlink:title=" ">
<polygon fill="white" stroke="#666666" points="139.88,-282 99.88,-282 99.88,-262 139.88,-262 139.88,-282"/>
<text text-anchor="middle" x="119.88" y="-268.5" font-family="Helvetica,sans-Serif" font-size="10.00">string</text>
</a>
</g>
</g>
<!-- Node5&#45;&gt;Node3 -->
<g id="edge4_Node000003_Node000005" class="edge">
<title>Node5&#45;&gt;Node3</title>
<g id="a_edge4_Node000003_Node000005"><a xlink:title=" ">
<path fill="none" stroke="#9a32cd" stroke-dasharray="5,2" d="M114.59,-250.84C107.57,-219.01 99.55,-157.11 132.12,-122 149.53,-103.24 221.46,-111.67 245.88,-104 252.06,-102.06 258.53,-99.18 264.2,-96.34"/>
<polygon fill="#9a32cd" stroke="#9a32cd" points="111.13,-251.43 116.88,-260.33 117.93,-249.79 111.13,-251.43"/>
</a>
</g>
<text text-anchor="middle" x="190.25" y="-220.5" font-family="Helvetica,sans-Serif" font-size="10.00" fill="grey"> LIGHT_OFF_GLASS</text>
<text text-anchor="middle" x="190.25" y="-208.5" font-family="Helvetica,sans-Serif" font-size="10.00" fill="grey">LIGHT_OFF_REFLECTOR</text>
<text text-anchor="middle" x="190.25" y="-196.5" font-family="Helvetica,sans-Serif" font-size="10.00" fill="grey">LIGHT_ON_GLASS</text>
<text text-anchor="middle" x="190.25" y="-184.5" font-family="Helvetica,sans-Serif" font-size="10.00" fill="grey">LIGHT_ON_GLASS_RED</text>
<text text-anchor="middle" x="190.25" y="-172.5" font-family="Helvetica,sans-Serif" font-size="10.00" fill="grey">LIGHT_ON_REFLECTOR</text>
<text text-anchor="start" x="132.88" y="-160.5" font-family="Helvetica,sans-Serif" font-size="10.00" fill="grey">LIGHT_ON_REFLECTOR</text>
<text text-anchor="middle" x="190.25" y="-148.5" font-family="Helvetica,sans-Serif" font-size="10.00" fill="grey">_RED</text>
<text text-anchor="middle" x="190.25" y="-136.5" font-family="Helvetica,sans-Serif" font-size="10.00" fill="grey">m_OffHeadLightPoint</text>
<text text-anchor="middle" x="190.25" y="-124.5" font-family="Helvetica,sans-Serif" font-size="10.00" fill="grey">m_OffHeadLightTarget</text>
</g>
<!-- Node5&#45;&gt;Node5 -->
<g id="edge5_Node000005_Node000005" class="edge">
<title>Node5&#45;&gt;Node5</title>
<g id="a_edge5_Node000005_Node000005"><a xlink:title=" ">
<path fill="none" stroke="#9a32cd" stroke-dasharray="5,2" d="M136.68,-288.58C147.48,-292.9 157.88,-287.37 157.88,-272 157.88,-252.12 140.5,-248.71 127.34,-261.75"/>
<polygon fill="#9a32cd" stroke="#9a32cd" points="138.83,-285.81 128.59,-283.1 134.91,-291.6 138.83,-285.81"/>
</a>
</g>
<text text-anchor="middle" x="173.62" y="-268.5" font-family="Helvetica,sans-Serif" font-size="10.00" fill="grey"> Empty</text>
</g>
<!-- Node6 -->
<g id="Node000006" class="node">
<title>Node6</title>
<g id="a_Node000006"><a xlink:href="../../d7/d0c/classvector.html" target="_top" xlink:title=" ">
<polygon fill="white" stroke="#666666" points="278.62,-282 237.12,-282 237.12,-262 278.62,-262 278.62,-282"/>
<text text-anchor="middle" x="257.88" y="-268.5" font-family="Helvetica,sans-Serif" font-size="10.00">vector</text>
</a>
</g>
</g>
<!-- Node6&#45;&gt;Node3 -->
<g id="edge6_Node000003_Node000006" class="edge">
<title>Node6&#45;&gt;Node3</title>
<g id="a_edge6_Node000003_Node000006"><a xlink:title=" ">
<path fill="none" stroke="#9a32cd" stroke-dasharray="5,2" d="M254.47,-250.52C250.39,-221.31 245.61,-166.32 258.62,-122 261.42,-112.47 267.67,-103.04 272.84,-96.38"/>
<polygon fill="#9a32cd" stroke="#9a32cd" points="250.97,-250.82 255.94,-260.18 257.89,-249.76 250.97,-250.82"/>
</a>
</g>
<text text-anchor="middle" x="303.5" y="-178.5" font-family="Helvetica,sans-Serif" font-size="10.00" fill="grey"> m_OnHeadLocalOri</text>
<text text-anchor="middle" x="303.5" y="-166.5" font-family="Helvetica,sans-Serif" font-size="10.00" fill="grey">m_OnHeadLocalPos</text>
</g>
<!-- Node6&#45;&gt;Node6 -->
<g id="edge7_Node000006_Node000006" class="edge">
<title>Node6&#45;&gt;Node6</title>
<g id="a_edge7_Node000006_Node000006"><a xlink:title=" ">
<path fill="none" stroke="#9a32cd" stroke-dasharray="5,2" d="M275.01,-288.58C286.03,-292.9 296.62,-287.37 296.62,-272 296.62,-252.12 278.91,-248.71 265.48,-261.75"/>
<polygon fill="#9a32cd" stroke="#9a32cd" points="277.01,-285.7 266.74,-283.09 273.14,-291.53 277.01,-285.7"/>
</a>
</g>
<text text-anchor="middle" x="313.88" y="-286.5" font-family="Helvetica,sans-Serif" font-size="10.00" fill="grey"> Aside</text>
<text text-anchor="middle" x="313.88" y="-274.5" font-family="Helvetica,sans-Serif" font-size="10.00" fill="grey">Forward</text>
<text text-anchor="middle" x="313.88" y="-262.5" font-family="Helvetica,sans-Serif" font-size="10.00" fill="grey">Up</text>
<text text-anchor="middle" x="313.88" y="-250.5" font-family="Helvetica,sans-Serif" font-size="10.00" fill="grey">Zero</text>
</g>
<!-- Node7 -->
<g id="Node000007" class="node">
<title>Node7</title>
<g id="a_Node000007"><a xlink:href="../../d8/d08/class_timer.html" target="_top" xlink:title=" ">
<polygon fill="white" stroke="#666666" points="417.88,-282 377.88,-282 377.88,-262 417.88,-262 417.88,-282"/>
<text text-anchor="middle" x="397.88" y="-268.5" font-family="Helvetica,sans-Serif" font-size="10.00">Timer</text>
</a>
</g>
</g>
<!-- Node7&#45;&gt;Node1 -->
<g id="edge9_Node000001_Node000007" class="edge">
<title>Node7&#45;&gt;Node1</title>
<g id="a_edge9_Node000001_Node000007"><a xlink:title=" ">
<path fill="none" stroke="#9a32cd" stroke-dasharray="5,2" d="M405.87,-251.06C408.19,-244.46 410.48,-237.01 411.88,-230 427.79,-150.04 426.88,-50.73 426.15,-20.29"/>
<polygon fill="#9a32cd" stroke="#9a32cd" points="402.62,-249.74 402.36,-260.33 409.17,-252.22 402.62,-249.74"/>
</a>
</g>
<text text-anchor="middle" x="470.12" y="-88.5" font-family="Helvetica,sans-Serif" font-size="10.00" fill="grey"> m_Timer</text>
<text text-anchor="middle" x="470.12" y="-76.5" font-family="Helvetica,sans-Serif" font-size="10.00" fill="grey">m_WorkCheckTimer</text>
</g>
<!-- Node7&#45;&gt;Node3 -->
<g id="edge8_Node000003_Node000007" class="edge">
<title>Node7&#45;&gt;Node3</title>
<g id="a_edge8_Node000003_Node000007"><a xlink:title=" ">
<path fill="none" stroke="#9a32cd" stroke-dasharray="5,2" d="M384.08,-252.76C379.46,-245.92 374.65,-237.89 371.38,-230 352.52,-184.64 377.68,-161.05 347.88,-122 337.68,-108.65 320.93,-99.9 306.73,-94.48"/>
<polygon fill="#9a32cd" stroke="#9a32cd" points="380.98,-254.44 389.64,-260.54 386.67,-250.37 380.98,-254.44"/>
</a>
</g>
<text text-anchor="middle" x="391.12" y="-172.5" font-family="Helvetica,sans-Serif" font-size="10.00" fill="grey"> m_Timer</text>
</g>
<!-- Node8 -->
<g id="Node000008" class="node">
<title>Node8</title>
<g id="a_Node000008"><a xlink:href="../../d4/d03/classfloat.html" target="_top" xlink:title=" ">
<polygon fill="white" stroke="#666666" points="566.88,-96 532.88,-96 532.88,-76 566.88,-76 566.88,-96"/>
<text text-anchor="middle" x="549.88" y="-82.5" font-family="Helvetica,sans-Serif" font-size="10.00">float</text>
</a>
</g>
</g>
<!-- Node8&#45;&gt;Node1 -->
<g id="edge10_Node000001_Node000008" class="edge">
<title>Node8&#45;&gt;Node1</title>
<g id="a_edge10_Node000001_Node000008"><a xlink:title=" ">
<path fill="none" stroke="#9a32cd" stroke-dasharray="5,2" d="M524.31,-69.75C499.38,-54.87 462.26,-32.71 441.45,-20.3"/>
<polygon fill="#9a32cd" stroke="#9a32cd" points="522.49,-72.73 532.87,-74.85 526.08,-66.72 522.49,-72.73"/>
</a>
</g>
<text text-anchor="middle" x="563.62" y="-40.5" font-family="Helvetica,sans-Serif" font-size="10.00" fill="grey"> RANGEFINDER_MAX_DISTANCE</text>
</g>
<!-- Node8&#45;&gt;Node8 -->
<g id="edge11_Node000008_Node000008" class="edge">
<title>Node8&#45;&gt;Node8</title>
<g id="a_edge11_Node000008_Node000008"><a xlink:title=" ">
<path fill="none" stroke="#9a32cd" stroke-dasharray="5,2" d="M578.55,-92.95C582.35,-91.77 584.88,-89.45 584.88,-86 584.88,-79.68 576.43,-77.17 567.16,-78.45"/>
<polygon fill="#9a32cd" stroke="#9a32cd" points="578.48,-89.45 568.67,-93.47 578.84,-96.44 578.48,-89.45"/>
</a>
</g>
<text text-anchor="middle" x="607" y="-94.5" font-family="Helvetica,sans-Serif" font-size="10.00" fill="grey"> LOWEST</text>
<text text-anchor="middle" x="607" y="-82.5" font-family="Helvetica,sans-Serif" font-size="10.00" fill="grey">MAX</text>
<text text-anchor="middle" x="607" y="-70.5" font-family="Helvetica,sans-Serif" font-size="10.00" fill="grey">MIN</text>
</g>
<!-- Node9 -->
<g id="Node000009" class="node">
<title>Node9</title>
<g id="a_Node000009"><a xlink:href="../../da/d0c/class_text_widget.html" target="_top" xlink:title=" ">
<polygon fill="white" stroke="#666666" points="712.62,-96 647.12,-96 647.12,-76 712.62,-76 712.62,-96"/>
<text text-anchor="middle" x="679.88" y="-82.5" font-family="Helvetica,sans-Serif" font-size="10.00">TextWidget</text>
</a>
</g>
</g>
<!-- Node9&#45;&gt;Node1 -->
<g id="edge12_Node000001_Node000009" class="edge">
<title>Node9&#45;&gt;Node1</title>
<g id="a_edge12_Node000001_Node000009"><a xlink:title=" ">
<path fill="none" stroke="#9a32cd" stroke-dasharray="5,2" d="M669.98,-65.65C663.85,-55.71 655.01,-44.38 643.88,-38 616.57,-22.36 533.9,-15.67 478.58,-12.88"/>
<polygon fill="#9a32cd" stroke="#9a32cd" points="666.87,-67.26 674.81,-74.27 672.97,-63.84 666.87,-67.26"/>
</a>
</g>
<text text-anchor="middle" x="688.38" y="-40.5" font-family="Helvetica,sans-Serif" font-size="10.00" fill="grey"> m_RangeText</text>
</g>
</g>
</svg>
