<?xml version="1.0" encoding="UTF-8" standalone="no"?>
<!DOCTYPE svg PUBLIC "-//W3C//DTD SVG 1.1//EN"
 "http://www.w3.org/Graphics/SVG/1.1/DTD/svg11.dtd">
<!-- Generated by graphviz version 11.0.0 (20240428.1522)
 -->
<!-- Title: PPERadialBlur Pages: 1 -->
<!--zoomable 467 -->

<svg id="main" version="1.1" xmlns="http://www.w3.org/2000/svg" xmlns:xlink="http://www.w3.org/1999/xlink" xml:space="preserve" onload="init(evt)">
<style type="text/css"><![CDATA[
.node, .edge {opacity: 0.7;}
.node.selected, .edge.selected {opacity: 1;}
.edge:hover path { stroke: red; }
.edge:hover polygon { stroke: red; fill: red; }
]]></style>

<defs>
  <circle id="rim" cx="0" cy="0" r="7"/>
  <circle id="rim2" cx="0" cy="0" r="3.5"/>
  <g id="zoomPlus">
    <use xlink:href="#rim" fill="#404040"><set attributeName="fill" to="#808080" begin="zoomplus.mouseover" end="zoomplus.mouseout"/></use>
    <path d="M-4,0h8M0,-4v8" fill="none" stroke="white" stroke-width="1.5" pointer-events="none"/>
  </g>
  <g id="zoomMin">
    <use xlink:href="#rim" fill="#404040"><set attributeName="fill" to="#808080" begin="zoomminus.mouseover" end="zoomminus.mouseout"/></use>
    <path d="M-4,0h8" fill="none" stroke="white" stroke-width="1.5" pointer-events="none"/>
  </g>
  <g id="arrowUp" transform="translate(30 24)">
    <use xlink:href="#rim"/>
    <path pointer-events="none" fill="none" stroke="white" stroke-width="1.5" d="M0,-3.0v7 M-2.5,-0.5L0,-3.0L2.5,-0.5"/>
  </g>
  <g id="arrowRight" transform="rotate(90) translate(36 -43)">
    <use xlink:href="#rim"/>
    <path pointer-events="none" fill="none" stroke="white" stroke-width="1.5" d="M0,-3.0v7 M-2.5,-0.5L0,-3.0L2.5,-0.5"/>
  </g>
  <g id="arrowDown" transform="rotate(180) translate(-30 -48)">
    <use xlink:href="#rim"/>
    <path pointer-events="none" fill="none" stroke="white" stroke-width="1.5" d="M0,-3.0v7 M-2.5,-0.5L0,-3.0L2.5,-0.5"/>
  </g>
  <g id="arrowLeft" transform="rotate(270) translate(-36 17)">
    <use xlink:href="#rim"/>
    <path pointer-events="none" fill="none" stroke="white" stroke-width="1.5" d="M0,-3.0v7 M-2.5,-0.5L0,-3.0L2.5,-0.5"/>
  </g>
  <g id="resetDef">
    <use xlink:href="#rim2" fill="#404040"><set attributeName="fill" to="#808080" begin="reset.mouseover" end="reset.mouseout"/></use>
  </g>
</defs>
<script type="application/ecmascript">
var viewWidth = 1199;
var viewHeight = 467;
var sectionId = 'dynsection-1';
</script>
<script type="application/ecmascript" xlink:href="../../svg.min.js"/>
<svg id="graph" class="graph">
<g id="viewport">
<title>PPERadialBlur</title>
<!-- Node1 -->
<g id="Node000001" class="node">
<title>Node1</title>
<g id="a_Node000001"><a xlink:title="RadialBlur &#45; PostProcessEffectType.RadialBlur.">
<polygon fill="#999999" stroke="#666666" points="130.25,-20 49.75,-20 49.75,0 130.25,0 130.25,-20"/>
<text text-anchor="middle" x="90" y="-6.5" font-family="Helvetica,sans-Serif" font-size="10.00">PPERadialBlur</text>
</a>
</g>
</g>
<!-- Node2 -->
<g id="Node000002" class="node">
<title>Node2</title>
<g id="a_Node000002"><a xlink:href="../../d3/d0f/class_p_p_e_class_base.html" target="_top" xlink:title="Created once, on manager init. Script&#45;side representation of C++ material class, separate handling.">
<polygon fill="white" stroke="#666666" points="297.75,-77 214.25,-77 214.25,-57 297.75,-57 297.75,-77"/>
<text text-anchor="middle" x="256" y="-63.5" font-family="Helvetica,sans-Serif" font-size="10.00">PPEClassBase</text>
</a>
</g>
</g>
<!-- Node2&#45;&gt;Node1 -->
<g id="edge1_Node000001_Node000002" class="edge">
<title>Node2&#45;&gt;Node1</title>
<g id="a_edge1_Node000001_Node000002"><a xlink:title=" ">
<path fill="none" stroke="#8b1a1a" d="M216.87,-53.04C186.66,-43.03 145.57,-29.41 118.44,-20.42"/>
<polygon fill="#8b1a1a" stroke="#8b1a1a" points="215.43,-56.25 226.03,-56.07 217.64,-49.6 215.43,-56.25"/>
</a>
</g>
</g>
<!-- Node3 -->
<g id="Node000003" class="node">
<title>Node3</title>
<g id="a_Node000003"><a xlink:href="../../d5/d02/classstring.html" target="_top" xlink:title=" ">
<polygon fill="white" stroke="#666666" points="1102,-457 1062,-457 1062,-437 1102,-437 1102,-457"/>
<text text-anchor="middle" x="1082" y="-443.5" font-family="Helvetica,sans-Serif" font-size="10.00">string</text>
</a>
</g>
</g>
<!-- Node3&#45;&gt;Node2 -->
<g id="edge2_Node000002_Node000003" class="edge">
<title>Node3&#45;&gt;Node2</title>
<g id="a_edge2_Node000002_Node000003"><a xlink:title=" ">
<path fill="none" stroke="#9a32cd" stroke-dasharray="5,2" d="M1098.4,-427.84C1100.48,-425.01 1102.42,-422.01 1104,-419 1137.83,-354.4 1160.47,-323.25 1130,-257 1095.76,-182.55 1065.44,-169 990,-137 863.77,-83.46 434.72,-71.21 298.13,-68.63"/>
<polygon fill="#9a32cd" stroke="#9a32cd" points="1095.75,-425.55 1092.14,-435.51 1101.17,-429.98 1095.75,-425.55"/>
</a>
</g>
<text text-anchor="middle" x="1155.62" y="-229.5" font-family="Helvetica,sans-Serif" font-size="10.00" fill="grey"> m_MaterialPath</text>
</g>
<!-- Node3&#45;&gt;Node3 -->
<g id="edge3_Node000003_Node000003" class="edge">
<title>Node3&#45;&gt;Node3</title>
<g id="a_edge3_Node000003_Node000003"><a xlink:title=" ">
<path fill="none" stroke="#9a32cd" stroke-dasharray="5,2" d="M1107.77,-458.91C1114.72,-458.28 1120,-454.31 1120,-447 1120,-436.12 1108.3,-432.64 1096.82,-436.55"/>
<polygon fill="#9a32cd" stroke="#9a32cd" points="1108.7,-455.5 1098.32,-457.65 1107.77,-462.44 1108.7,-455.5"/>
</a>
</g>
<text text-anchor="middle" x="1135.75" y="-443.5" font-family="Helvetica,sans-Serif" font-size="10.00" fill="grey"> Empty</text>
</g>
<!-- Node5 -->
<g id="Node000005" class="node">
<title>Node5</title>
<g id="a_Node000005"><a xlink:href="../../d2/d01/classarray.html" target="_top" xlink:title=" ">
<polygon fill="white" stroke="#666666" points="544.75,-183 455.25,-183 455.25,-163 544.75,-163 544.75,-183"/>
<text text-anchor="middle" x="500" y="-169.5" font-family="Helvetica,sans-Serif" font-size="10.00">array&lt; Param3 &gt;</text>
</a>
</g>
</g>
<!-- Node3&#45;&gt;Node5 -->
<g id="edge24_Node000005_Node000003" class="edge">
<title>Node3&#45;&gt;Node5</title>
<g id="a_edge24_Node000005_Node000003"><a xlink:title=" ">
<path fill="none" stroke="#9a32cd" stroke-dasharray="5,2" d="M1078.15,-425.63C1072.76,-402.92 1060.71,-366.8 1036,-347 1006.8,-323.6 981.22,-354.41 953.75,-329 929.21,-306.3 957.63,-278.47 932,-257 905.76,-235.02 812.35,-246.74 779,-239 763.39,-235.37 760.42,-231.37 745,-227 676.12,-207.48 594.6,-191.16 545.13,-181.99"/>
<polygon fill="#9a32cd" stroke="#9a32cd" points="1074.68,-426.14 1080.18,-435.19 1081.52,-424.68 1074.68,-426.14"/>
</a>
</g>
<text text-anchor="middle" x="970.62" y="-289.5" font-family="Helvetica,sans-Serif" font-size="10.00" fill="grey"> m_Test</text>
</g>
<!-- Node7 -->
<g id="Node000007" class="node">
<title>Node7</title>
<g id="a_Node000007"><a xlink:href="../../d2/d01/classarray.html" target="_top" xlink:title="Result for an object found in CGame.IsBoxCollidingGeometryProxy.">
<polygon fill="white" stroke="#666666" points="794.88,-303 757.12,-303 757.12,-283 794.88,-283 794.88,-303"/>
<text text-anchor="middle" x="776" y="-289.5" font-family="Helvetica,sans-Serif" font-size="10.00">array</text>
</a>
</g>
</g>
<!-- Node3&#45;&gt;Node7 -->
<g id="edge13_Node000007_Node000003" class="edge">
<title>Node3&#45;&gt;Node7</title>
<g id="a_edge13_Node000007_Node000003"><a xlink:title=" ">
<path fill="none" stroke="#9a32cd" stroke-dasharray="5,2" d="M1050.92,-439.48C1035.09,-435.24 1016.01,-428.67 1000.75,-419 963.37,-395.32 969.87,-369.88 932,-347 907.07,-331.94 896.65,-338.14 869,-329 843.12,-320.45 813.76,-309.12 795.07,-301.7"/>
<polygon fill="#9a32cd" stroke="#9a32cd" points="1049.76,-442.79 1060.31,-441.8 1051.44,-436 1049.76,-442.79"/>
</a>
</g>
<text text-anchor="middle" x="1017.62" y="-379.5" font-family="Helvetica,sans-Serif" font-size="10.00" fill="grey"> m_Test</text>
</g>
<!-- Node10 -->
<g id="Node000010" class="node">
<title>Node10</title>
<g id="a_Node000010"><a xlink:href="../../d2/d01/classarray.html" target="_top" xlink:title=" ">
<polygon fill="white" stroke="#666666" points="900.25,-183 813.75,-183 813.75,-163 900.25,-163 900.25,-183"/>
<text text-anchor="middle" x="857" y="-169.5" font-family="Helvetica,sans-Serif" font-size="10.00">array&lt; Widget &gt;</text>
</a>
</g>
</g>
<!-- Node3&#45;&gt;Node10 -->
<g id="edge20_Node000010_Node000003" class="edge">
<title>Node3&#45;&gt;Node10</title>
<g id="a_edge20_Node000010_Node000003"><a xlink:title=" ">
<path fill="none" stroke="#9a32cd" stroke-dasharray="5,2" d="M1086.64,-425.62C1093.91,-388.16 1103.56,-307.6 1066,-257 1027.02,-204.49 949.58,-185.16 900.69,-178.07"/>
<polygon fill="#9a32cd" stroke="#9a32cd" points="1083.28,-424.57 1084.65,-435.08 1090.13,-426.01 1083.28,-424.57"/>
</a>
</g>
<text text-anchor="middle" x="1108.62" y="-289.5" font-family="Helvetica,sans-Serif" font-size="10.00" fill="grey"> m_Test</text>
</g>
<!-- Node4 -->
<g id="Node000004" class="node">
<title>Node4</title>
<g id="a_Node000004"><a xlink:href="../../db/d06/class_param3.html" target="_top" xlink:title=" ">
<polygon fill="white" stroke="#666666" points="197.88,-457 148.12,-457 148.12,-437 197.88,-437 197.88,-457"/>
<text text-anchor="middle" x="173" y="-443.5" font-family="Helvetica,sans-Serif" font-size="10.00">Param3</text>
</a>
</g>
</g>
<!-- Node4&#45;&gt;Node1 -->
<g id="edge26_Node000001_Node000004" class="edge">
<title>Node4&#45;&gt;Node1</title>
<g id="a_edge26_Node000001_Node000004"><a xlink:title=" ">
<path fill="none" stroke="#9a32cd" stroke-dasharray="5,2" d="M137.33,-433.21C86.68,-412.49 0,-366.45 0,-294 0,-294 0,-294 0,-66 0,-41 25.59,-27.03 49.48,-19.43"/>
<polygon fill="#9a32cd" stroke="#9a32cd" points="135.85,-436.39 146.44,-436.81 138.42,-429.88 135.85,-436.39"/>
</a>
</g>
<text text-anchor="middle" x="49.5" y="-199.5" font-family="Helvetica,sans-Serif" font-size="10.00" fill="grey"> L_0_PAIN_BLUR</text>
<text text-anchor="middle" x="49.5" y="-187.5" font-family="Helvetica,sans-Serif" font-size="10.00" fill="grey">PARAM_OFFSETX</text>
<text text-anchor="middle" x="49.5" y="-175.5" font-family="Helvetica,sans-Serif" font-size="10.00" fill="grey">PARAM_OFFSETY</text>
<text text-anchor="middle" x="49.5" y="-163.5" font-family="Helvetica,sans-Serif" font-size="10.00" fill="grey">PARAM_PIXELSCALE</text>
<text text-anchor="middle" x="49.5" y="-151.5" font-family="Helvetica,sans-Serif" font-size="10.00" fill="grey">PARAM_POWERX</text>
<text text-anchor="middle" x="49.5" y="-139.5" font-family="Helvetica,sans-Serif" font-size="10.00" fill="grey">PARAM_POWERY</text>
</g>
<!-- Node4&#45;&gt;Node2 -->
<g id="edge4_Node000002_Node000004" class="edge">
<title>Node4&#45;&gt;Node2</title>
<g id="a_edge4_Node000002_Node000004"><a xlink:title=" ">
<path fill="none" stroke="#9a32cd" stroke-dasharray="5,2" d="M166.35,-425.87C165.8,-423.57 165.33,-421.25 165,-419 160.41,-387.33 163.94,-378.98 165,-347 166.33,-306.93 163.27,-296.34 171,-257 185.51,-183.22 232.98,-103.94 249.92,-77.31"/>
<polygon fill="#9a32cd" stroke="#9a32cd" points="162.91,-426.59 169.08,-435.2 169.63,-424.62 162.91,-426.59"/>
</a>
</g>
<text text-anchor="middle" x="204.5" y="-229.5" font-family="Helvetica,sans-Serif" font-size="10.00" fill="grey"> m_Material</text>
</g>
<!-- Node4&#45;&gt;Node5 -->
<g id="edge7_Node000005_Node000004" class="edge">
<title>Node4&#45;&gt;Node5</title>
<g id="a_edge7_Node000005_Node000004"><a xlink:title=" ">
<path fill="none" stroke="#9a32cd" stroke-dasharray="5,2" d="M170.47,-425.25C167.02,-386.85 165.55,-304.31 208.75,-257 241.86,-220.75 381.65,-193.22 454.86,-180.98"/>
<polygon fill="#9a32cd" stroke="#9a32cd" points="166.99,-425.59 171.52,-435.16 173.95,-424.85 166.99,-425.59"/>
</a>
</g>
<text text-anchor="middle" x="267.12" y="-319.5" font-family="Helvetica,sans-Serif" font-size="10.00" fill="grey"> NO_SORTING</text>
<text text-anchor="middle" x="267.12" y="-307.5" font-family="Helvetica,sans-Serif" font-size="10.00" fill="grey">geomLevel</text>
<text text-anchor="middle" x="267.12" y="-295.5" font-family="Helvetica,sans-Serif" font-size="10.00" fill="grey">hierLevel</text>
<text text-anchor="start" x="209" y="-283.5" font-family="Helvetica,sans-Serif" font-size="10.00" fill="grey">m_CurrentSettingAlternate</text>
<text text-anchor="middle" x="267.12" y="-271.5" font-family="Helvetica,sans-Serif" font-size="10.00" fill="grey">KeyIndex</text>
<text text-anchor="middle" x="267.12" y="-259.5" font-family="Helvetica,sans-Serif" font-size="10.00" fill="grey">m_CurrentSettingKeyIndex</text>
</g>
<!-- Node4&#45;&gt;Node7 -->
<g id="edge10_Node000007_Node000004" class="edge">
<title>Node4&#45;&gt;Node7</title>
<g id="a_edge10_Node000007_Node000004"><a xlink:title=" ">
<path fill="none" stroke="#9a32cd" stroke-dasharray="5,2" d="M209.54,-445.34C267.72,-443.72 378.29,-438.15 412,-419 446.96,-399.14 431.33,-366.02 466.75,-347 520.95,-317.89 687.34,-355.2 743,-329 754.79,-323.45 764.46,-311.67 770.22,-303.31"/>
<polygon fill="#9a32cd" stroke="#9a32cd" points="209.72,-441.84 199.81,-445.59 209.9,-448.83 209.72,-441.84"/>
</a>
</g>
<text text-anchor="middle" x="524.12" y="-409.5" font-family="Helvetica,sans-Serif" font-size="10.00" fill="grey"> NO_SORTING</text>
<text text-anchor="middle" x="524.12" y="-397.5" font-family="Helvetica,sans-Serif" font-size="10.00" fill="grey">geomLevel</text>
<text text-anchor="middle" x="524.12" y="-385.5" font-family="Helvetica,sans-Serif" font-size="10.00" fill="grey">hierLevel</text>
<text text-anchor="start" x="466" y="-373.5" font-family="Helvetica,sans-Serif" font-size="10.00" fill="grey">m_CurrentSettingAlternate</text>
<text text-anchor="middle" x="524.12" y="-361.5" font-family="Helvetica,sans-Serif" font-size="10.00" fill="grey">KeyIndex</text>
<text text-anchor="middle" x="524.12" y="-349.5" font-family="Helvetica,sans-Serif" font-size="10.00" fill="grey">m_CurrentSettingKeyIndex</text>
</g>
<!-- Node4&#45;&gt;Node10 -->
<g id="edge17_Node000010_Node000004" class="edge">
<title>Node4&#45;&gt;Node10</title>
<g id="a_edge17_Node000010_Node000004"><a xlink:title=" ">
<path fill="none" stroke="#9a32cd" stroke-dasharray="5,2" d="M209.14,-434.55C254.65,-418.3 332.18,-384.23 376,-329 396.78,-302.81 372.8,-279.25 397.75,-257 428.74,-229.37 704.59,-192.77 813.27,-179.28"/>
<polygon fill="#9a32cd" stroke="#9a32cd" points="208.04,-431.23 199.73,-437.81 210.32,-437.85 208.04,-431.23"/>
</a>
</g>
<text text-anchor="middle" x="455.12" y="-319.5" font-family="Helvetica,sans-Serif" font-size="10.00" fill="grey"> NO_SORTING</text>
<text text-anchor="middle" x="455.12" y="-307.5" font-family="Helvetica,sans-Serif" font-size="10.00" fill="grey">geomLevel</text>
<text text-anchor="middle" x="455.12" y="-295.5" font-family="Helvetica,sans-Serif" font-size="10.00" fill="grey">hierLevel</text>
<text text-anchor="start" x="397" y="-283.5" font-family="Helvetica,sans-Serif" font-size="10.00" fill="grey">m_CurrentSettingAlternate</text>
<text text-anchor="middle" x="455.12" y="-271.5" font-family="Helvetica,sans-Serif" font-size="10.00" fill="grey">KeyIndex</text>
<text text-anchor="middle" x="455.12" y="-259.5" font-family="Helvetica,sans-Serif" font-size="10.00" fill="grey">m_CurrentSettingKeyIndex</text>
</g>
<!-- Node5&#45;&gt;Node2 -->
<g id="edge5_Node000002_Node000005" class="edge">
<title>Node5&#45;&gt;Node2</title>
<g id="a_edge5_Node000002_Node000005"><a xlink:title=" ">
<path fill="none" stroke="#9a32cd" stroke-dasharray="5,2" d="M467.6,-158.19C417.24,-136.73 321.48,-95.91 278.21,-77.47"/>
<polygon fill="#9a32cd" stroke="#9a32cd" points="465.95,-161.29 476.52,-161.99 468.7,-154.85 465.95,-161.29"/>
</a>
</g>
<text text-anchor="middle" x="433.38" y="-109.5" font-family="Helvetica,sans-Serif" font-size="10.00" fill="grey"> m_ParameterRemovalQueue</text>
<text text-anchor="middle" x="433.38" y="-97.5" font-family="Helvetica,sans-Serif" font-size="10.00" fill="grey">m_UpdatedParameters</text>
</g>
<!-- Node6 -->
<g id="Node000006" class="node">
<title>Node6</title>
<g id="a_Node000006"><a xlink:href="../../d8/d03/class_object.html" target="_top" xlink:title=" ">
<polygon fill="white" stroke="#666666" points="798.25,-457 753.75,-457 753.75,-437 798.25,-437 798.25,-457"/>
<text text-anchor="middle" x="776" y="-443.5" font-family="Helvetica,sans-Serif" font-size="10.00">Object</text>
</a>
</g>
</g>
<!-- Node6&#45;&gt;Node5 -->
<g id="edge6_Node000005_Node000006" class="edge">
<title>Node6&#45;&gt;Node5</title>
<g id="a_edge6_Node000005_Node000006"><a xlink:title=" ">
<path fill="none" stroke="#9a32cd" stroke-dasharray="5,2" d="M742.27,-444.61C720.68,-442.05 693.36,-435.45 675,-419 649.43,-396.09 662.36,-377.71 647,-347 641.73,-336.47 598.53,-266.05 591,-257 566.11,-227.08 530.62,-197.75 512.18,-183.3"/>
<polygon fill="#9a32cd" stroke="#9a32cd" points="741.8,-448.08 752.08,-445.52 742.45,-441.11 741.8,-448.08"/>
</a>
</g>
<text text-anchor="middle" x="649.5" y="-295.5" font-family="Helvetica,sans-Serif" font-size="10.00" fill="grey"> obj</text>
<text text-anchor="middle" x="649.5" y="-283.5" font-family="Helvetica,sans-Serif" font-size="10.00" fill="grey">parent</text>
</g>
<!-- Node6&#45;&gt;Node7 -->
<g id="edge9_Node000007_Node000006" class="edge">
<title>Node6&#45;&gt;Node7</title>
<g id="a_edge9_Node000007_Node000006"><a xlink:title=" ">
<path fill="none" stroke="#9a32cd" stroke-dasharray="5,2" d="M776,-425.47C776,-392.04 776,-327.17 776,-303.2"/>
<polygon fill="#9a32cd" stroke="#9a32cd" points="772.5,-425.43 776,-435.43 779.5,-425.43 772.5,-425.43"/>
</a>
</g>
<text text-anchor="middle" x="789.5" y="-385.5" font-family="Helvetica,sans-Serif" font-size="10.00" fill="grey"> obj</text>
<text text-anchor="middle" x="789.5" y="-373.5" font-family="Helvetica,sans-Serif" font-size="10.00" fill="grey">parent</text>
</g>
<!-- Node6&#45;&gt;Node10 -->
<g id="edge16_Node000010_Node000006" class="edge">
<title>Node6&#45;&gt;Node10</title>
<g id="a_edge16_Node000010_Node000006"><a xlink:title=" ">
<path fill="none" stroke="#9a32cd" stroke-dasharray="5,2" d="M796.87,-429.31C800.43,-426.06 803.95,-422.55 807,-419 866.75,-349.4 887.32,-328.37 908,-239 913.43,-215.52 889.77,-194.87 872.86,-183.44"/>
<polygon fill="#9a32cd" stroke="#9a32cd" points="794.68,-426.58 789.38,-435.75 799.24,-431.89 794.68,-426.58"/>
</a>
</g>
<text text-anchor="middle" x="916.5" y="-295.5" font-family="Helvetica,sans-Serif" font-size="10.00" fill="grey"> obj</text>
<text text-anchor="middle" x="916.5" y="-283.5" font-family="Helvetica,sans-Serif" font-size="10.00" fill="grey">parent</text>
</g>
<!-- Node7&#45;&gt;Node5 -->
<g id="edge8_Node000005_Node000007" class="edge">
<title>Node7&#45;&gt;Node5</title>
<g id="a_edge8_Node000005_Node000007"><a xlink:title=" ">
<path fill="none" stroke="#9a32cd" stroke-dasharray="5,2" d="M761.5,-273.96C756.12,-268.05 749.7,-261.77 743,-257 727.12,-245.69 720.54,-247.51 703,-239 692.63,-233.97 690.69,-231.32 680,-227 633.18,-208.1 577.07,-192.66 540.08,-183.41"/>
<polygon fill="#9a32cd" stroke="#9a32cd" points="758.82,-276.22 767.98,-281.55 764.14,-271.68 758.82,-276.22"/>
</a>
</g>
<text text-anchor="middle" x="724" y="-229.5" font-family="Helvetica,sans-Serif" font-size="10.00" fill="grey"> proxyInfo</text>
</g>
<!-- Node7&#45;&gt;Node7 -->
<g id="edge11_Node000007_Node000007" class="edge">
<title>Node7&#45;&gt;Node7</title>
<g id="a_edge11_Node000007_Node000007"><a xlink:title=" ">
<path fill="none" stroke="#9a32cd" stroke-dasharray="5,2" d="M804.02,-303.66C809.22,-302.34 812.88,-298.78 812.88,-293 812.88,-283.51 803.03,-280.02 792.69,-282.54"/>
<polygon fill="#9a32cd" stroke="#9a32cd" points="804.26,-300.17 794.2,-303.48 804.13,-307.16 804.26,-300.17"/>
</a>
</g>
<text text-anchor="middle" x="833.88" y="-289.5" font-family="Helvetica,sans-Serif" font-size="10.00" fill="grey"> proxyInfo</text>
</g>
<!-- Node7&#45;&gt;Node10 -->
<g id="edge18_Node000010_Node000007" class="edge">
<title>Node7&#45;&gt;Node10</title>
<g id="a_edge18_Node000010_Node000007"><a xlink:title=" ">
<path fill="none" stroke="#9a32cd" stroke-dasharray="5,2" d="M776.46,-271.44C777.6,-257.93 780.75,-240.36 789,-227 801.03,-207.51 822.97,-192.39 838.68,-183.37"/>
<polygon fill="#9a32cd" stroke="#9a32cd" points="772.97,-271.2 775.96,-281.36 779.96,-271.55 772.97,-271.2"/>
</a>
</g>
<text text-anchor="middle" x="810" y="-229.5" font-family="Helvetica,sans-Serif" font-size="10.00" fill="grey"> proxyInfo</text>
</g>
<!-- Node8 -->
<g id="Node000008" class="node">
<title>Node8</title>
<g id="a_Node000008"><a xlink:href="../../d4/d04/class_class.html" target="_top" xlink:title="Super root of all classes in Enforce script.">
<polygon fill="white" stroke="#666666" points="919.38,-457 878.62,-457 878.62,-437 919.38,-437 919.38,-457"/>
<text text-anchor="middle" x="899" y="-443.5" font-family="Helvetica,sans-Serif" font-size="10.00">Class</text>
</a>
</g>
</g>
<!-- Node8&#45;&gt;Node5 -->
<g id="edge23_Node000005_Node000008" class="edge">
<title>Node8&#45;&gt;Node5</title>
<g id="a_edge23_Node000005_Node000008"><a xlink:title=" ">
<path fill="none" stroke="#9a32cd" stroke-dasharray="5,2" d="M867.04,-444.85C840.04,-442.62 801.21,-436.33 772,-419 726.66,-392.1 722.59,-373.76 694.75,-329 676.37,-299.45 687.79,-282.39 664,-257 628,-218.58 570.27,-195.21 533.79,-183.44"/>
<polygon fill="#9a32cd" stroke="#9a32cd" points="866.46,-448.32 876.67,-445.5 866.93,-441.34 866.46,-448.32"/>
</a>
</g>
<text text-anchor="middle" x="720.62" y="-289.5" font-family="Helvetica,sans-Serif" font-size="10.00" fill="grey"> m_Instance</text>
</g>
<!-- Node8&#45;&gt;Node7 -->
<g id="edge12_Node000007_Node000008" class="edge">
<title>Node8&#45;&gt;Node7</title>
<g id="a_edge12_Node000007_Node000008"><a xlink:title=" ">
<path fill="none" stroke="#9a32cd" stroke-dasharray="5,2" d="M884.48,-428.06C858.14,-395.51 803.36,-327.81 783.44,-303.2"/>
<polygon fill="#9a32cd" stroke="#9a32cd" points="881.71,-430.2 890.72,-435.77 887.15,-425.79 881.71,-430.2"/>
</a>
</g>
<text text-anchor="middle" x="901.62" y="-379.5" font-family="Helvetica,sans-Serif" font-size="10.00" fill="grey"> m_Instance</text>
</g>
<!-- Node8&#45;&gt;Node10 -->
<g id="edge19_Node000010_Node000008" class="edge">
<title>Node8&#45;&gt;Node10</title>
<g id="a_edge19_Node000010_Node000008"><a xlink:title=" ">
<path fill="none" stroke="#9a32cd" stroke-dasharray="5,2" d="M930.87,-442.68C960.39,-438.87 1001.17,-431.48 1011,-419 1030.8,-393.86 1014.15,-378.84 1011,-347 1006.98,-306.41 1015.52,-291.01 993,-257 967.73,-218.83 918.29,-195.32 886.5,-183.47"/>
<polygon fill="#9a32cd" stroke="#9a32cd" points="930.82,-439.16 921.31,-443.83 931.66,-446.11 930.82,-439.16"/>
</a>
</g>
<text text-anchor="middle" x="1035.62" y="-289.5" font-family="Helvetica,sans-Serif" font-size="10.00" fill="grey"> m_Instance</text>
</g>
<!-- Node9 -->
<g id="Node000009" class="node">
<title>Node9</title>
<g id="a_Node000009"><a xlink:href="../../dd/d0a/class_widget.html" target="_top" xlink:title=" ">
<polygon fill="white" stroke="#666666" points="460.38,-457 413.62,-457 413.62,-437 460.38,-437 460.38,-457"/>
<text text-anchor="middle" x="437" y="-443.5" font-family="Helvetica,sans-Serif" font-size="10.00">Widget</text>
</a>
</g>
</g>
<!-- Node9&#45;&gt;Node5 -->
<g id="edge25_Node000005_Node000009" class="edge">
<title>Node9&#45;&gt;Node5</title>
<g id="a_edge25_Node000005_Node000009"><a xlink:title=" ">
<path fill="none" stroke="#9a32cd" stroke-dasharray="5,2" d="M416.81,-429.57C378.37,-396.25 301.71,-318.63 339.25,-257 364.33,-215.82 417.13,-194.19 455.39,-183.46"/>
<polygon fill="#9a32cd" stroke="#9a32cd" points="414.19,-431.94 424.09,-435.73 418.71,-426.6 414.19,-431.94"/>
</a>
</g>
<text text-anchor="middle" x="357.38" y="-289.5" font-family="Helvetica,sans-Serif" font-size="10.00" fill="grey"> m_Root</text>
</g>
<!-- Node9&#45;&gt;Node7 -->
<g id="edge14_Node000007_Node000009" class="edge">
<title>Node9&#45;&gt;Node7</title>
<g id="a_edge14_Node000007_Node000009"><a xlink:title=" ">
<path fill="none" stroke="#9a32cd" stroke-dasharray="5,2" d="M471.87,-443.16C502.85,-439.83 548.99,-432.9 587,-419 662.17,-391.5 680.21,-378.65 743,-329 752.7,-321.33 762.21,-310.83 768.51,-303.34"/>
<polygon fill="#9a32cd" stroke="#9a32cd" points="471.89,-439.64 462.29,-444.11 472.59,-446.6 471.89,-439.64"/>
</a>
</g>
<text text-anchor="middle" x="736.38" y="-379.5" font-family="Helvetica,sans-Serif" font-size="10.00" fill="grey"> m_Root</text>
</g>
<!-- Node9&#45;&gt;Node10 -->
<g id="edge21_Node000010_Node000009" class="edge">
<title>Node9&#45;&gt;Node10</title>
<g id="a_edge21_Node000010_Node000009"><a xlink:title=" ">
<path fill="none" stroke="#9a32cd" stroke-dasharray="5,2" d="M433.84,-425.37C431.69,-403.24 432.06,-368.41 451,-347 471.43,-323.91 494.54,-349.01 518,-329 544.68,-306.25 523.59,-279.77 550.25,-257 626.28,-192.05 748.42,-177.46 813.26,-174.48"/>
<polygon fill="#9a32cd" stroke="#9a32cd" points="430.36,-425.75 435.09,-435.23 437.31,-424.87 430.36,-425.75"/>
</a>
</g>
<text text-anchor="middle" x="568.38" y="-289.5" font-family="Helvetica,sans-Serif" font-size="10.00" fill="grey"> m_Root</text>
</g>
<!-- Node10&#45;&gt;Node7 -->
<g id="edge15_Node000007_Node000010" class="edge">
<title>Node10&#45;&gt;Node7</title>
<g id="a_edge15_Node000007_Node000010"><a xlink:title=" ">
<path fill="none" stroke="#9a32cd" stroke-dasharray="5,2" d="M852.93,-194.46C849.59,-207.9 843.93,-225.44 835,-239 823.03,-257.17 803.36,-273.1 790.06,-282.63"/>
<polygon fill="#9a32cd" stroke="#9a32cd" points="856.28,-195.49 855.04,-184.97 849.45,-193.97 856.28,-195.49"/>
</a>
</g>
<text text-anchor="middle" x="872.5" y="-229.5" font-family="Helvetica,sans-Serif" font-size="10.00" fill="grey"> m_Subgroups</text>
</g>
<!-- Node10&#45;&gt;Node10 -->
<g id="edge22_Node000010_Node000010" class="edge">
<title>Node10&#45;&gt;Node10</title>
<g id="a_edge22_Node000010_Node000010"><a xlink:title=" ">
<path fill="none" stroke="#9a32cd" stroke-dasharray="5,2" d="M896.09,-184.24C908.47,-184.09 918.25,-180.34 918.25,-173 918.25,-163.51 901.9,-160.02 884.72,-162.54"/>
<polygon fill="#9a32cd" stroke="#9a32cd" points="896.44,-180.76 886.23,-183.56 895.96,-187.74 896.44,-180.76"/>
</a>
</g>
<text text-anchor="middle" x="949.75" y="-169.5" font-family="Helvetica,sans-Serif" font-size="10.00" fill="grey"> m_Subgroups</text>
</g>
</g>
</svg>

<g id="navigator" transform="translate(0 0)" fill="#404254">
  <rect fill="#f2f5e9" fill-opacity="0.5" stroke="#606060" stroke-width=".5" x="0" y="0" width="60" height="60"/>
  <use id="zoomplus" xlink:href="#zoomPlus" x="17" y="9" onmousedown="handleZoom(evt,'in')"/>
  <use id="zoomminus" xlink:href="#zoomMin" x="42" y="9" onmousedown="handleZoom(evt,'out')"/>
  <use id="reset" xlink:href="#resetDef" x="30" y="36" onmousedown="handleReset()"/>
   <use id="arrowup" xlink:href="#arrowUp" x="0" y="0" onmousedown="handlePan(0,-1)"/>
  <use id="arrowright" xlink:href="#arrowRight" x="0" y="0" onmousedown="handlePan(1,0)"/>
  <use id="arrowdown" xlink:href="#arrowDown" x="0" y="0" onmousedown="handlePan(0,1)"/>
  <use id="arrowleft" xlink:href="#arrowLeft" x="0" y="0" onmousedown="handlePan(-1,0)"/>
</g>
<svg viewBox="0 0 15 15" width="100%" height="30px" preserveAspectRatio="xMaxYMin meet">
 <g id="arrow_out" transform="scale(0.3 0.3)">
  <a xlink:href="class_p_p_e_radial_blur__coll__graph_org.svg" target="_base">
   <rect id="button" ry="5" rx="5" y="6" x="6" height="38" width="38"
        fill="#f2f5e9" fill-opacity="0.5" stroke="#606060" stroke-width="1.0"/>
   <path id="arrow"
     d="M 11.500037,31.436501 C 11.940474,20.09759 22.043105,11.32322 32.158766,21.979434 L 37.068811,17.246167 C 37.068811,17.246167 37.088388,32 37.088388,32 L 22.160133,31.978069 C 22.160133,31.978069 26.997745,27.140456 26.997745,27.140456 C 18.528582,18.264221 13.291696,25.230495 11.500037,31.436501 z"
     style="fill:#404040;"/>
  </a>
 </g>
</svg>

<style type='text/css'>
<![CDATA[
[data-mouse-over-selected='false'] { opacity: 0.7; }
[data-mouse-over-selected='true']  { opacity: 1.0; }
]]>
</style>
<script type="application/ecmascript"><![CDATA[
document.addEventListener('DOMContentLoaded', (event) => {
  highlightEdges();
  highlightAdjacentNodes();
});
]]></script>
</svg>
