<?xml version="1.0" encoding="UTF-8" standalone="no"?>
<!DOCTYPE svg PUBLIC "-//W3C//DTD SVG 1.1//EN"
 "http://www.w3.org/Graphics/SVG/1.1/DTD/svg11.dtd">
<!-- Generated by graphviz version 11.0.0 (20240428.1522)
 -->
<!-- Title: ActionWorldCraft Pages: 1 -->
<svg width="245pt" height="232pt"
 viewBox="0.00 0.00 244.62 232.00" xmlns="http://www.w3.org/2000/svg" xmlns:xlink="http://www.w3.org/1999/xlink">
<g id="graph0" class="graph" transform="scale(1 1) rotate(0) translate(4 228)">
<title>ActionWorldCraft</title>
<!-- Node1 -->
<g id="Node000001" class="node">
<title>Node1</title>
<g id="a_Node000001"><a xlink:title=" ">
<polygon fill="#999999" stroke="#666666" points="162.88,-20 73.38,-20 73.38,0 162.88,0 162.88,-20"/>
<text text-anchor="middle" x="118.12" y="-6.5" font-family="Helvetica,sans-Serif" font-size="10.00">ActionWorldCraft</text>
</a>
</g>
</g>
<!-- Node2 -->
<g id="Node000002" class="node">
<title>Node2</title>
<g id="a_Node000002"><a xlink:href="../../d6/d0f/class_action_continuous_base.html" target="_top" xlink:title=" ">
<polygon fill="white" stroke="#666666" points="128.62,-88 13.62,-88 13.62,-68 128.62,-68 128.62,-88"/>
<text text-anchor="middle" x="71.12" y="-74.5" font-family="Helvetica,sans-Serif" font-size="10.00">ActionContinuousBase</text>
</a>
</g>
</g>
<!-- Node2&#45;&gt;Node1 -->
<g id="edge1_Node000001_Node000002" class="edge">
<title>Node2&#45;&gt;Node1</title>
<g id="a_edge1_Node000001_Node000002"><a xlink:title=" ">
<path fill="none" stroke="#8b1a1a" d="M84.29,-58.52C93.11,-46.13 104.36,-30.33 111.4,-20.44"/>
<polygon fill="#8b1a1a" stroke="#8b1a1a" points="81.69,-56.13 78.74,-66.31 87.39,-60.2 81.69,-56.13"/>
</a>
</g>
</g>
<!-- Node3 -->
<g id="Node000003" class="node">
<title>Node3</title>
<g id="a_Node000003"><a xlink:href="../../d7/d04/class_animated_action_base.html" target="_top" xlink:title=" ">
<polygon fill="white" stroke="#666666" points="124.88,-144 17.38,-144 17.38,-124 124.88,-124 124.88,-144"/>
<text text-anchor="middle" x="71.12" y="-130.5" font-family="Helvetica,sans-Serif" font-size="10.00">AnimatedActionBase</text>
</a>
</g>
</g>
<!-- Node3&#45;&gt;Node2 -->
<g id="edge2_Node000002_Node000003" class="edge">
<title>Node3&#45;&gt;Node2</title>
<g id="a_edge2_Node000002_Node000003"><a xlink:title=" ">
<path fill="none" stroke="#8b1a1a" d="M71.12,-112.13C71.12,-103.9 71.12,-94.85 71.12,-88.3"/>
<polygon fill="#8b1a1a" stroke="#8b1a1a" points="67.63,-112.08 71.13,-122.08 74.63,-112.08 67.63,-112.08"/>
</a>
</g>
</g>
<!-- Node4 -->
<g id="Node000004" class="node">
<title>Node4</title>
<g id="a_Node000004"><a xlink:title=" ">
<polygon fill="white" stroke="#666666" points="66.25,-224 0,-224 0,-204 66.25,-204 66.25,-224"/>
<text text-anchor="middle" x="33.12" y="-210.5" font-family="Helvetica,sans-Serif" font-size="10.00">ActionBase</text>
</a>
</g>
</g>
<!-- Node4&#45;&gt;Node3 -->
<g id="edge3_Node000003_Node000004" class="edge">
<title>Node4&#45;&gt;Node3</title>
<g id="a_edge3_Node000003_Node000004"><a xlink:title=" ">
<path fill="none" stroke="#8b1a1a" d="M42.62,-193.51C50.29,-177.77 60.74,-156.32 66.62,-144.24"/>
<polygon fill="#8b1a1a" stroke="#8b1a1a" points="39.53,-191.86 38.3,-202.39 45.82,-194.93 39.53,-191.86"/>
</a>
</g>
</g>
<!-- Node5 -->
<g id="Node000005" class="node">
<title>Node5</title>
<g id="a_Node000005"><a xlink:href="../../db/d06/class_param3.html" target="_top" xlink:title=" ">
<polygon fill="white" stroke="#666666" points="134,-224 84.25,-224 84.25,-204 134,-204 134,-224"/>
<text text-anchor="middle" x="109.12" y="-210.5" font-family="Helvetica,sans-Serif" font-size="10.00">Param3</text>
</a>
</g>
</g>
<!-- Node5&#45;&gt;Node3 -->
<g id="edge4_Node000003_Node000005" class="edge">
<title>Node5&#45;&gt;Node3</title>
<g id="a_edge4_Node000003_Node000005"><a xlink:title=" ">
<path fill="none" stroke="#9a32cd" stroke-dasharray="5,2" d="M99.63,-193.51C91.96,-177.77 81.51,-156.32 75.63,-144.24"/>
<polygon fill="#9a32cd" stroke="#9a32cd" points="96.43,-194.93 103.95,-202.39 102.72,-191.86 96.43,-194.93"/>
</a>
</g>
<text text-anchor="middle" x="145.62" y="-176.5" font-family="Helvetica,sans-Serif" font-size="10.00" fill="grey"> m_CommandUID</text>
<text text-anchor="middle" x="145.62" y="-164.5" font-family="Helvetica,sans-Serif" font-size="10.00" fill="grey">m_CommandUIDProne</text>
</g>
<!-- Node6 -->
<g id="Node000006" class="node">
<title>Node6</title>
<g id="a_Node000006"><a xlink:href="../../d5/d02/classstring.html" target="_top" xlink:title=" ">
<polygon fill="white" stroke="#666666" points="187.12,-88 147.12,-88 147.12,-68 187.12,-68 187.12,-88"/>
<text text-anchor="middle" x="167.12" y="-74.5" font-family="Helvetica,sans-Serif" font-size="10.00">string</text>
</a>
</g>
</g>
<!-- Node6&#45;&gt;Node1 -->
<g id="edge5_Node000001_Node000006" class="edge">
<title>Node6&#45;&gt;Node1</title>
<g id="a_edge5_Node000001_Node000006"><a xlink:title=" ">
<path fill="none" stroke="#9a32cd" stroke-dasharray="5,2" d="M153.4,-58.52C144.21,-46.13 132.48,-30.33 125.13,-20.44"/>
<polygon fill="#9a32cd" stroke="#9a32cd" points="150.43,-60.39 159.2,-66.33 156.05,-56.21 150.43,-60.39"/>
</a>
</g>
<text text-anchor="middle" x="184" y="-40.5" font-family="Helvetica,sans-Serif" font-size="10.00" fill="grey"> m_ActionPrompt</text>
</g>
<!-- Node6&#45;&gt;Node6 -->
<g id="edge6_Node000006_Node000006" class="edge">
<title>Node6&#45;&gt;Node6</title>
<g id="a_edge6_Node000006_Node000006"><a xlink:title=" ">
<path fill="none" stroke="#9a32cd" stroke-dasharray="5,2" d="M198.88,-82.51C202.66,-81.69 205.12,-80.18 205.12,-78 205.12,-74.01 196.89,-72.29 187.45,-72.85"/>
<polygon fill="#9a32cd" stroke="#9a32cd" points="198.75,-79.01 188.97,-83.06 199.15,-86 198.75,-79.01"/>
</a>
</g>
<text text-anchor="middle" x="220.88" y="-74.5" font-family="Helvetica,sans-Serif" font-size="10.00" fill="grey"> Empty</text>
</g>
</g>
</svg>
