<?xml version="1.0" encoding="UTF-8" standalone="no"?>
<!DOCTYPE svg PUBLIC "-//W3C//DTD SVG 1.1//EN"
 "http://www.w3.org/Graphics/SVG/1.1/DTD/svg11.dtd">
<!-- Generated by graphviz version 11.0.0 (20240428.1522)
 -->
<!-- Title: ActionUpgradeTorchFromGasPump Pages: 1 -->
<svg width="216pt" height="220pt"
 viewBox="0.00 0.00 215.88 220.00" xmlns="http://www.w3.org/2000/svg" xmlns:xlink="http://www.w3.org/1999/xlink">
<g id="graph0" class="graph" transform="scale(1 1) rotate(0) translate(4 216)">
<title>ActionUpgradeTorchFromGasPump</title>
<!-- Node1 -->
<g id="Node000001" class="node">
<title>Node1</title>
<g id="a_Node000001"><a xlink:title=" ">
<polygon fill="#999999" stroke="#666666" points="169.75,-20 0,-20 0,0 169.75,0 169.75,-20"/>
<text text-anchor="middle" x="84.88" y="-6.5" font-family="Helvetica,sans-Serif" font-size="10.00">ActionUpgradeTorchFromGasPump</text>
</a>
</g>
</g>
<!-- Node2 -->
<g id="Node000002" class="node">
<title>Node2</title>
<g id="a_Node000002"><a xlink:href="../../d6/d0f/class_action_continuous_base.html" target="_top" xlink:title=" ">
<polygon fill="white" stroke="#666666" points="142.38,-76 27.38,-76 27.38,-56 142.38,-56 142.38,-76"/>
<text text-anchor="middle" x="84.88" y="-62.5" font-family="Helvetica,sans-Serif" font-size="10.00">ActionContinuousBase</text>
</a>
</g>
</g>
<!-- Node2&#45;&gt;Node1 -->
<g id="edge1_Node000001_Node000002" class="edge">
<title>Node2&#45;&gt;Node1</title>
<g id="a_edge1_Node000001_Node000002"><a xlink:title=" ">
<path fill="none" stroke="#8b1a1a" d="M84.88,-44.13C84.88,-35.9 84.88,-26.85 84.88,-20.3"/>
<polygon fill="#8b1a1a" stroke="#8b1a1a" points="81.38,-44.08 84.88,-54.08 88.38,-44.08 81.38,-44.08"/>
</a>
</g>
</g>
<!-- Node3 -->
<g id="Node000003" class="node">
<title>Node3</title>
<g id="a_Node000003"><a xlink:href="../../d7/d04/class_animated_action_base.html" target="_top" xlink:title=" ">
<polygon fill="white" stroke="#666666" points="138.62,-132 31.12,-132 31.12,-112 138.62,-112 138.62,-132"/>
<text text-anchor="middle" x="84.88" y="-118.5" font-family="Helvetica,sans-Serif" font-size="10.00">AnimatedActionBase</text>
</a>
</g>
</g>
<!-- Node3&#45;&gt;Node2 -->
<g id="edge2_Node000002_Node000003" class="edge">
<title>Node3&#45;&gt;Node2</title>
<g id="a_edge2_Node000002_Node000003"><a xlink:title=" ">
<path fill="none" stroke="#8b1a1a" d="M84.88,-100.13C84.88,-91.9 84.88,-82.85 84.88,-76.3"/>
<polygon fill="#8b1a1a" stroke="#8b1a1a" points="81.38,-100.08 84.88,-110.08 88.38,-100.08 81.38,-100.08"/>
</a>
</g>
</g>
<!-- Node4 -->
<g id="Node000004" class="node">
<title>Node4</title>
<g id="a_Node000004"><a xlink:title=" ">
<polygon fill="white" stroke="#666666" points="80,-212 13.75,-212 13.75,-192 80,-192 80,-212"/>
<text text-anchor="middle" x="46.88" y="-198.5" font-family="Helvetica,sans-Serif" font-size="10.00">ActionBase</text>
</a>
</g>
</g>
<!-- Node4&#45;&gt;Node3 -->
<g id="edge3_Node000003_Node000004" class="edge">
<title>Node4&#45;&gt;Node3</title>
<g id="a_edge3_Node000003_Node000004"><a xlink:title=" ">
<path fill="none" stroke="#8b1a1a" d="M56.37,-181.51C64.04,-165.77 74.49,-144.32 80.37,-132.24"/>
<polygon fill="#8b1a1a" stroke="#8b1a1a" points="53.28,-179.86 52.05,-190.39 59.57,-182.93 53.28,-179.86"/>
</a>
</g>
</g>
<!-- Node5 -->
<g id="Node000005" class="node">
<title>Node5</title>
<g id="a_Node000005"><a xlink:href="../../db/d06/class_param3.html" target="_top" xlink:title=" ">
<polygon fill="white" stroke="#666666" points="147.75,-212 98,-212 98,-192 147.75,-192 147.75,-212"/>
<text text-anchor="middle" x="122.88" y="-198.5" font-family="Helvetica,sans-Serif" font-size="10.00">Param3</text>
</a>
</g>
</g>
<!-- Node5&#45;&gt;Node3 -->
<g id="edge4_Node000003_Node000005" class="edge">
<title>Node5&#45;&gt;Node3</title>
<g id="a_edge4_Node000003_Node000005"><a xlink:title=" ">
<path fill="none" stroke="#9a32cd" stroke-dasharray="5,2" d="M113.38,-181.51C105.71,-165.77 95.26,-144.32 89.38,-132.24"/>
<polygon fill="#9a32cd" stroke="#9a32cd" points="110.18,-182.93 117.7,-190.39 116.47,-179.86 110.18,-182.93"/>
</a>
</g>
<text text-anchor="middle" x="158.38" y="-164.5" font-family="Helvetica,sans-Serif" font-size="10.00" fill="grey"> m_CommandUID</text>
<text text-anchor="middle" x="158.38" y="-152.5" font-family="Helvetica,sans-Serif" font-size="10.00" fill="grey">m_CommandUIDProne</text>
</g>
</g>
</svg>
