<?xml version="1.0" encoding="UTF-8" standalone="no"?>
<!DOCTYPE svg PUBLIC "-//W3C//DTD SVG 1.1//EN"
 "http://www.w3.org/Graphics/SVG/1.1/DTD/svg11.dtd">
<!-- Generated by graphviz version 11.0.0 (20240428.1522)
 -->
<!-- Title: FlammableBase Pages: 1 -->
<svg width="95pt" height="196pt"
 viewBox="0.00 0.00 94.50 196.00" xmlns="http://www.w3.org/2000/svg" xmlns:xlink="http://www.w3.org/1999/xlink">

<svg id="main" version="1.1" xmlns="http://www.w3.org/2000/svg" xmlns:xlink="http://www.w3.org/1999/xlink" xml:space="preserve" onload="init(evt)">
<style type="text/css"><![CDATA[
.node, .edge {opacity: 0.7;}
.node.selected, .edge.selected {opacity: 1;}
.edge:hover path { stroke: red; }
.edge:hover polygon { stroke: red; fill: red; }
]]></style>
<script type="application/ecmascript" xlink:href="../../svg.min.js"/>
<svg id="graph" class="graph">
<g id="graph0" class="graph" transform="scale(1 1) rotate(0) translate(4 192)">
<title>FlammableBase</title>
<!-- Node1 -->
<g id="Node000001" class="node">
<title>Node1</title>
<g id="a_Node000001"><a xlink:title=" ">
<polygon fill="#999999" stroke="#666666" points="86.5,-132 0,-132 0,-112 86.5,-112 86.5,-132"/>
<text text-anchor="middle" x="43.25" y="-118.5" font-family="Helvetica,sans-Serif" font-size="10.00">FlammableBase</text>
</a>
</g>
</g>
<!-- Node3 -->
<g id="Node000003" class="node">
<title>Node3</title>
<g id="a_Node000003"><a xlink:href="../../d2/d02/class_broom_base.html" target="_top" xlink:title=" ">
<polygon fill="white" stroke="#666666" points="76.75,-76 9.75,-76 9.75,-56 76.75,-56 76.75,-76"/>
<text text-anchor="middle" x="43.25" y="-62.5" font-family="Helvetica,sans-Serif" font-size="10.00">BroomBase</text>
</a>
</g>
</g>
<!-- Node1&#45;&gt;Node3 -->
<g id="edge2_Node000001_Node000003" class="edge">
<title>Node1&#45;&gt;Node3</title>
<g id="a_edge2_Node000001_Node000003"><a xlink:title=" ">
<path fill="none" stroke="#8b1a1a" d="M43.25,-100.13C43.25,-91.9 43.25,-82.85 43.25,-76.3"/>
<polygon fill="#8b1a1a" stroke="#8b1a1a" points="39.75,-100.08 43.25,-110.08 46.75,-100.08 39.75,-100.08"/>
</a>
</g>
</g>
<!-- Node2 -->
<g id="Node000002" class="node">
<title>Node2</title>
<g id="a_Node000002"><a xlink:href="../../de/d0a/class_item_base.html" target="_top" xlink:title=" ">
<polygon fill="white" stroke="#666666" points="71.88,-188 14.63,-188 14.63,-168 71.88,-168 71.88,-188"/>
<text text-anchor="middle" x="43.25" y="-174.5" font-family="Helvetica,sans-Serif" font-size="10.00">ItemBase</text>
</a>
</g>
</g>
<!-- Node2&#45;&gt;Node1 -->
<g id="edge1_Node000001_Node000002" class="edge">
<title>Node2&#45;&gt;Node1</title>
<g id="a_edge1_Node000001_Node000002"><a xlink:title=" ">
<path fill="none" stroke="#8b1a1a" d="M43.25,-156.13C43.25,-147.9 43.25,-138.85 43.25,-132.3"/>
<polygon fill="#8b1a1a" stroke="#8b1a1a" points="39.75,-156.08 43.25,-166.08 46.75,-156.08 39.75,-156.08"/>
</a>
</g>
</g>
<!-- Node4 -->
<g id="Node000004" class="node">
<title>Node4</title>
<g id="a_Node000004"><a xlink:href="../../d3/d05/class_broom___birch.html" target="_top" xlink:title=" ">
<polygon fill="white" stroke="#666666" points="79.38,-20 7.12,-20 7.12,0 79.38,0 79.38,-20"/>
<text text-anchor="middle" x="43.25" y="-6.5" font-family="Helvetica,sans-Serif" font-size="10.00">Broom_Birch</text>
</a>
</g>
</g>
<!-- Node3&#45;&gt;Node4 -->
<g id="edge3_Node000003_Node000004" class="edge">
<title>Node3&#45;&gt;Node4</title>
<g id="a_edge3_Node000003_Node000004"><a xlink:title=" ">
<path fill="none" stroke="#8b1a1a" d="M43.25,-44.13C43.25,-35.9 43.25,-26.85 43.25,-20.3"/>
<polygon fill="#8b1a1a" stroke="#8b1a1a" points="39.75,-44.08 43.25,-54.08 46.75,-44.08 39.75,-44.08"/>
</a>
</g>
</g>
</g>
</svg>
</svg>

<style type='text/css'>
<![CDATA[
[data-mouse-over-selected='false'] { opacity: 0.7; }
[data-mouse-over-selected='true']  { opacity: 1.0; }
]]>
</style>
<script type="application/ecmascript"><![CDATA[
document.addEventListener('DOMContentLoaded', (event) => {
  highlightEdges();
  highlightAdjacentNodes();
});
]]></script>
</svg>
