<?xml version="1.0" encoding="UTF-8" standalone="no"?>
<!DOCTYPE svg PUBLIC "-//W3C//DTD SVG 1.1//EN"
 "http://www.w3.org/Graphics/SVG/1.1/DTD/svg11.dtd">
<!-- Generated by graphviz version 11.0.0 (20240428.1522)
 -->
<!-- Title: Mask_Base Pages: 1 -->
<svg width="487pt" height="304pt"
 viewBox="0.00 0.00 486.88 304.00" xmlns="http://www.w3.org/2000/svg" xmlns:xlink="http://www.w3.org/1999/xlink">
<g id="graph0" class="graph" transform="scale(1 1) rotate(0) translate(4 300)">
<title>Mask_Base</title>
<!-- Node1 -->
<g id="Node000001" class="node">
<title>Node1</title>
<g id="a_Node000001"><a xlink:title="gas mask base">
<polygon fill="#999999" stroke="#666666" points="278.75,-20 211,-20 211,0 278.75,0 278.75,-20"/>
<text text-anchor="middle" x="244.88" y="-6.5" font-family="Helvetica,sans-Serif" font-size="10.00">Mask_Base</text>
</a>
</g>
</g>
<!-- Node2 -->
<g id="Node000002" class="node">
<title>Node2</title>
<g id="a_Node000002"><a xlink:href="../../d8/d04/class_clothing.html" target="_top" xlink:title=" ">
<polygon fill="white" stroke="#666666" points="214.5,-96 163.25,-96 163.25,-76 214.5,-76 214.5,-96"/>
<text text-anchor="middle" x="188.88" y="-82.5" font-family="Helvetica,sans-Serif" font-size="10.00">Clothing</text>
</a>
</g>
</g>
<!-- Node2&#45;&gt;Node1 -->
<g id="edge1_Node000001_Node000002" class="edge">
<title>Node2&#45;&gt;Node1</title>
<g id="a_edge1_Node000001_Node000002"><a xlink:title=" ">
<path fill="none" stroke="#8b1a1a" d="M202.63,-66.82C213.86,-51.99 229.25,-31.65 238.02,-20.06"/>
<polygon fill="#8b1a1a" stroke="#8b1a1a" points="200.12,-64.33 196.88,-74.42 205.71,-68.56 200.12,-64.33"/>
</a>
</g>
</g>
<!-- Node3 -->
<g id="Node000003" class="node">
<title>Node3</title>
<g id="a_Node000003"><a xlink:href="../../db/d06/class_param3.html" target="_top" xlink:title=" ">
<polygon fill="white" stroke="#666666" points="49.75,-282 0,-282 0,-262 49.75,-262 49.75,-282"/>
<text text-anchor="middle" x="24.88" y="-268.5" font-family="Helvetica,sans-Serif" font-size="10.00">Param3</text>
</a>
</g>
</g>
<!-- Node3&#45;&gt;Node2 -->
<g id="edge2_Node000002_Node000003" class="edge">
<title>Node3&#45;&gt;Node2</title>
<g id="a_edge2_Node000002_Node000003"><a xlink:title=" ">
<path fill="none" stroke="#9a32cd" stroke-dasharray="5,2" d="M18.56,-250.77C10.12,-219.32 -0.52,-158.54 29.88,-122 46.59,-101.9 122.18,-92.57 162.83,-88.94"/>
<polygon fill="#9a32cd" stroke="#9a32cd" points="15.14,-251.53 21.28,-260.16 21.86,-249.58 15.14,-251.53"/>
</a>
</g>
<text text-anchor="middle" x="65.88" y="-178.5" font-family="Helvetica,sans-Serif" font-size="10.00" fill="grey"> GLASS_ID</text>
<text text-anchor="middle" x="65.88" y="-166.5" font-family="Helvetica,sans-Serif" font-size="10.00" fill="grey">REFLECTOR_ID</text>
</g>
<!-- Node4 -->
<g id="Node000004" class="node">
<title>Node4</title>
<g id="a_Node000004"><a xlink:href="../../d5/d02/classstring.html" target="_top" xlink:title=" ">
<polygon fill="white" stroke="#666666" points="139.88,-282 99.88,-282 99.88,-262 139.88,-262 139.88,-282"/>
<text text-anchor="middle" x="119.88" y="-268.5" font-family="Helvetica,sans-Serif" font-size="10.00">string</text>
</a>
</g>
</g>
<!-- Node4&#45;&gt;Node2 -->
<g id="edge3_Node000002_Node000004" class="edge">
<title>Node4&#45;&gt;Node2</title>
<g id="a_edge3_Node000002_Node000004"><a xlink:title=" ">
<path fill="none" stroke="#9a32cd" stroke-dasharray="5,2" d="M113.94,-250.87C106.23,-220.45 96.48,-162.09 121.12,-122 130.28,-107.11 148,-98.27 163.03,-93.2"/>
<polygon fill="#9a32cd" stroke="#9a32cd" points="110.5,-251.55 116.51,-260.27 117.25,-249.7 110.5,-251.55"/>
</a>
</g>
<text text-anchor="middle" x="179.25" y="-220.5" font-family="Helvetica,sans-Serif" font-size="10.00" fill="grey"> LIGHT_OFF_GLASS</text>
<text text-anchor="middle" x="179.25" y="-208.5" font-family="Helvetica,sans-Serif" font-size="10.00" fill="grey">LIGHT_OFF_REFLECTOR</text>
<text text-anchor="middle" x="179.25" y="-196.5" font-family="Helvetica,sans-Serif" font-size="10.00" fill="grey">LIGHT_ON_GLASS</text>
<text text-anchor="middle" x="179.25" y="-184.5" font-family="Helvetica,sans-Serif" font-size="10.00" fill="grey">LIGHT_ON_GLASS_RED</text>
<text text-anchor="middle" x="179.25" y="-172.5" font-family="Helvetica,sans-Serif" font-size="10.00" fill="grey">LIGHT_ON_REFLECTOR</text>
<text text-anchor="start" x="121.88" y="-160.5" font-family="Helvetica,sans-Serif" font-size="10.00" fill="grey">LIGHT_ON_REFLECTOR</text>
<text text-anchor="middle" x="179.25" y="-148.5" font-family="Helvetica,sans-Serif" font-size="10.00" fill="grey">_RED</text>
<text text-anchor="middle" x="179.25" y="-136.5" font-family="Helvetica,sans-Serif" font-size="10.00" fill="grey">m_OffHeadLightPoint</text>
<text text-anchor="middle" x="179.25" y="-124.5" font-family="Helvetica,sans-Serif" font-size="10.00" fill="grey">m_OffHeadLightTarget</text>
</g>
<!-- Node4&#45;&gt;Node4 -->
<g id="edge4_Node000004_Node000004" class="edge">
<title>Node4&#45;&gt;Node4</title>
<g id="a_edge4_Node000004_Node000004"><a xlink:title=" ">
<path fill="none" stroke="#9a32cd" stroke-dasharray="5,2" d="M136.68,-288.58C147.48,-292.9 157.88,-287.37 157.88,-272 157.88,-252.12 140.5,-248.71 127.34,-261.75"/>
<polygon fill="#9a32cd" stroke="#9a32cd" points="138.83,-285.81 128.59,-283.1 134.91,-291.6 138.83,-285.81"/>
</a>
</g>
<text text-anchor="middle" x="173.62" y="-268.5" font-family="Helvetica,sans-Serif" font-size="10.00" fill="grey"> Empty</text>
</g>
<!-- Node5 -->
<g id="Node000005" class="node">
<title>Node5</title>
<g id="a_Node000005"><a xlink:href="../../d7/d0c/classvector.html" target="_top" xlink:title=" ">
<polygon fill="white" stroke="#666666" points="278.62,-282 237.12,-282 237.12,-262 278.62,-262 278.62,-282"/>
<text text-anchor="middle" x="257.88" y="-268.5" font-family="Helvetica,sans-Serif" font-size="10.00">vector</text>
</a>
</g>
</g>
<!-- Node5&#45;&gt;Node2 -->
<g id="edge5_Node000002_Node000005" class="edge">
<title>Node5&#45;&gt;Node2</title>
<g id="a_edge5_Node000002_Node000005"><a xlink:title=" ">
<path fill="none" stroke="#9a32cd" stroke-dasharray="5,2" d="M256.77,-250.48C254.55,-214.85 248.6,-143.29 235.88,-122 229.3,-111 217.81,-102.35 207.84,-96.4"/>
<polygon fill="#9a32cd" stroke="#9a32cd" points="253.27,-250.53 257.34,-260.31 260.26,-250.13 253.27,-250.53"/>
</a>
</g>
<text text-anchor="middle" x="299.5" y="-178.5" font-family="Helvetica,sans-Serif" font-size="10.00" fill="grey"> m_OnHeadLocalOri</text>
<text text-anchor="middle" x="299.5" y="-166.5" font-family="Helvetica,sans-Serif" font-size="10.00" fill="grey">m_OnHeadLocalPos</text>
</g>
<!-- Node5&#45;&gt;Node5 -->
<g id="edge6_Node000005_Node000005" class="edge">
<title>Node5&#45;&gt;Node5</title>
<g id="a_edge6_Node000005_Node000005"><a xlink:title=" ">
<path fill="none" stroke="#9a32cd" stroke-dasharray="5,2" d="M275.01,-288.58C286.03,-292.9 296.62,-287.37 296.62,-272 296.62,-252.12 278.91,-248.71 265.48,-261.75"/>
<polygon fill="#9a32cd" stroke="#9a32cd" points="277.01,-285.7 266.74,-283.09 273.14,-291.53 277.01,-285.7"/>
</a>
</g>
<text text-anchor="middle" x="313.88" y="-286.5" font-family="Helvetica,sans-Serif" font-size="10.00" fill="grey"> Aside</text>
<text text-anchor="middle" x="313.88" y="-274.5" font-family="Helvetica,sans-Serif" font-size="10.00" fill="grey">Forward</text>
<text text-anchor="middle" x="313.88" y="-262.5" font-family="Helvetica,sans-Serif" font-size="10.00" fill="grey">Up</text>
<text text-anchor="middle" x="313.88" y="-250.5" font-family="Helvetica,sans-Serif" font-size="10.00" fill="grey">Zero</text>
</g>
<!-- Node6 -->
<g id="Node000006" class="node">
<title>Node6</title>
<g id="a_Node000006"><a xlink:href="../../d8/d08/class_timer.html" target="_top" xlink:title=" ">
<polygon fill="white" stroke="#666666" points="389.88,-282 349.88,-282 349.88,-262 389.88,-262 389.88,-282"/>
<text text-anchor="middle" x="369.88" y="-268.5" font-family="Helvetica,sans-Serif" font-size="10.00">Timer</text>
</a>
</g>
</g>
<!-- Node6&#45;&gt;Node2 -->
<g id="edge7_Node000002_Node000006" class="edge">
<title>Node6&#45;&gt;Node2</title>
<g id="a_edge7_Node000002_Node000006"><a xlink:title=" ">
<path fill="none" stroke="#9a32cd" stroke-dasharray="5,2" d="M373.68,-250.6C378.38,-218.43 382.03,-156.07 347.88,-122 328.16,-102.34 250.49,-112.18 223.88,-104 217.68,-102.09 211.2,-99.23 205.54,-96.39"/>
<polygon fill="#9a32cd" stroke="#9a32cd" points="370.27,-249.75 372.08,-260.19 377.18,-250.9 370.27,-249.75"/>
</a>
</g>
<text text-anchor="middle" x="396.12" y="-172.5" font-family="Helvetica,sans-Serif" font-size="10.00" fill="grey"> m_Timer</text>
</g>
<!-- Node7 -->
<g id="Node000007" class="node">
<title>Node7</title>
<g id="a_Node000007"><a xlink:href="../../d4/d03/classfloat.html" target="_top" xlink:title=" ">
<polygon fill="white" stroke="#666666" points="266.88,-96 232.88,-96 232.88,-76 266.88,-76 266.88,-96"/>
<text text-anchor="middle" x="249.88" y="-82.5" font-family="Helvetica,sans-Serif" font-size="10.00">float</text>
</a>
</g>
</g>
<!-- Node7&#45;&gt;Node1 -->
<g id="edge8_Node000001_Node000007" class="edge">
<title>Node7&#45;&gt;Node1</title>
<g id="a_edge8_Node000001_Node000007"><a xlink:title=" ">
<path fill="none" stroke="#9a32cd" stroke-dasharray="5,2" d="M247.58,-64.19C247.13,-59.52 246.69,-54.6 246.38,-50 245.67,-39.86 245.28,-28.21 245.07,-20.31"/>
<polygon fill="#9a32cd" stroke="#9a32cd" points="244.09,-64.42 248.61,-74 251.05,-63.69 244.09,-64.42"/>
</a>
</g>
<text text-anchor="middle" x="296.12" y="-40.5" font-family="Helvetica,sans-Serif" font-size="10.00" fill="grey"> m_LowFilterEventTime</text>
</g>
<!-- Node7&#45;&gt;Node7 -->
<g id="edge9_Node000007_Node000007" class="edge">
<title>Node7&#45;&gt;Node7</title>
<g id="a_edge9_Node000007_Node000007"><a xlink:title=" ">
<path fill="none" stroke="#9a32cd" stroke-dasharray="5,2" d="M278.55,-92.95C282.35,-91.77 284.88,-89.45 284.88,-86 284.88,-79.68 276.43,-77.17 267.16,-78.45"/>
<polygon fill="#9a32cd" stroke="#9a32cd" points="278.48,-89.45 268.67,-93.47 278.84,-96.44 278.48,-89.45"/>
</a>
</g>
<text text-anchor="middle" x="307" y="-94.5" font-family="Helvetica,sans-Serif" font-size="10.00" fill="grey"> LOWEST</text>
<text text-anchor="middle" x="307" y="-82.5" font-family="Helvetica,sans-Serif" font-size="10.00" fill="grey">MAX</text>
<text text-anchor="middle" x="307" y="-70.5" font-family="Helvetica,sans-Serif" font-size="10.00" fill="grey">MIN</text>
</g>
<!-- Node8 -->
<g id="Node000008" class="node">
<title>Node8</title>
<g id="a_Node000008"><a xlink:href="../../d9/d09/classbool.html" target="_top" xlink:title=" ">
<polygon fill="white" stroke="#666666" points="385.88,-96 351.88,-96 351.88,-76 385.88,-76 385.88,-96"/>
<text text-anchor="middle" x="368.88" y="-82.5" font-family="Helvetica,sans-Serif" font-size="10.00">bool</text>
</a>
</g>
</g>
<!-- Node8&#45;&gt;Node1 -->
<g id="edge10_Node000001_Node000008" class="edge">
<title>Node8&#45;&gt;Node1</title>
<g id="a_edge10_Node000001_Node000008"><a xlink:title=" ">
<path fill="none" stroke="#9a32cd" stroke-dasharray="5,2" d="M363.71,-64.72C360.36,-55.36 355.04,-44.82 346.88,-38 327.9,-22.15 300.57,-15.51 278.98,-12.77"/>
<polygon fill="#9a32cd" stroke="#9a32cd" points="360.31,-65.58 366.55,-74.15 367.02,-63.56 360.31,-65.58"/>
</a>
</g>
<text text-anchor="middle" x="417.38" y="-40.5" font-family="Helvetica,sans-Serif" font-size="10.00" fill="grey"> m_IncomingLambdaChange</text>
</g>
</g>
</svg>
