<?xml version="1.0" encoding="UTF-8" standalone="no"?>
<!DOCTYPE svg PUBLIC "-//W3C//DTD SVG 1.1//EN"
 "http://www.w3.org/Graphics/SVG/1.1/DTD/svg11.dtd">
<!-- Generated by graphviz version 11.0.0 (20240428.1522)
 -->
<!-- Title: World Pages: 1 -->
<svg width="213pt" height="28pt"
 viewBox="0.00 0.00 212.75 28.00" xmlns="http://www.w3.org/2000/svg" xmlns:xlink="http://www.w3.org/1999/xlink">
<g id="graph0" class="graph" transform="scale(1 1) rotate(0) translate(4 24)">
<title>World</title>
<!-- Node3 -->
<g id="Node000003" class="node">
<title>Node3</title>
<g id="a_Node000003"><a xlink:href="../../dd/d02/group___camera.html" target="_top" xlink:title=" ">
<polygon fill="white" stroke="#666666" points="204.75,-20 155,-20 155,0 204.75,0 204.75,-20"/>
<text text-anchor="middle" x="179.88" y="-6.5" font-family="Helvetica,sans-Serif" font-size="10.00">Camera</text>
</a>
</g>
</g>
<!-- Node2 -->
<g id="Node000002" class="node">
<title>Node2</title>
<g id="a_Node000002"><a xlink:href="../../d3/d0e/group___world.html" target="_top" xlink:title=" ">
<polygon fill="white" stroke="#666666" points="41.5,-20 0,-20 0,0 41.5,0 41.5,-20"/>
<text text-anchor="middle" x="20.75" y="-6.5" font-family="Helvetica,sans-Serif" font-size="10.00">World</text>
</a>
</g>
</g>
<!-- Node1 -->
<g id="Node000001" class="node">
<title>Node1</title>
<g id="a_Node000001"><a xlink:title=" ">
<polygon fill="#999999" stroke="#666666" points="119,-20 77.5,-20 77.5,0 119,0 119,-20"/>
<text text-anchor="middle" x="98.25" y="-6.5" font-family="Helvetica,sans-Serif" font-size="10.00">World</text>
</a>
</g>
</g>
<!-- Node2&#45;&gt;Node1 -->
<g id="edge1" class="edge">
<title>Node2&#45;&gt;Node1</title>
<path fill="none" stroke="black" d="M53.36,-10C61.44,-10 69.91,-10 77.22,-10"/>
<polygon fill="black" stroke="black" points="53.5,-6.5 43.5,-10 53.5,-13.5 53.5,-6.5"/>
</g>
<!-- Node1&#45;&gt;Node3 -->
<g id="edge2" class="edge">
<title>Node1&#45;&gt;Node3</title>
<path fill="none" stroke="black" d="M130.8,-10C138.7,-10 147.04,-10 154.53,-10"/>
<polygon fill="black" stroke="black" points="130.86,-6.5 120.86,-10 130.86,-13.5 130.86,-6.5"/>
</g>
</g>
</svg>
