<?xml version="1.0" encoding="UTF-8" standalone="no"?>
<!DOCTYPE svg PUBLIC "-//W3C//DTD SVG 1.1//EN"
 "http://www.w3.org/Graphics/SVG/1.1/DTD/svg11.dtd">
<!-- Generated by graphviz version 11.0.0 (20240428.1522)
 -->
<!-- Title: Component Pages: 1 -->
<!--zoomable 370 -->

<svg id="main" version="1.1" xmlns="http://www.w3.org/2000/svg" xmlns:xlink="http://www.w3.org/1999/xlink" xml:space="preserve" onload="init(evt)">
<style type="text/css"><![CDATA[
.node, .edge {opacity: 0.7;}
.node.selected, .edge.selected {opacity: 1;}
.edge:hover path { stroke: red; }
.edge:hover polygon { stroke: red; fill: red; }
]]></style>

<defs>
  <circle id="rim" cx="0" cy="0" r="7"/>
  <circle id="rim2" cx="0" cy="0" r="3.5"/>
  <g id="zoomPlus">
    <use xlink:href="#rim" fill="#404040"><set attributeName="fill" to="#808080" begin="zoomplus.mouseover" end="zoomplus.mouseout"/></use>
    <path d="M-4,0h8M0,-4v8" fill="none" stroke="white" stroke-width="1.5" pointer-events="none"/>
  </g>
  <g id="zoomMin">
    <use xlink:href="#rim" fill="#404040"><set attributeName="fill" to="#808080" begin="zoomminus.mouseover" end="zoomminus.mouseout"/></use>
    <path d="M-4,0h8" fill="none" stroke="white" stroke-width="1.5" pointer-events="none"/>
  </g>
  <g id="arrowUp" transform="translate(30 24)">
    <use xlink:href="#rim"/>
    <path pointer-events="none" fill="none" stroke="white" stroke-width="1.5" d="M0,-3.0v7 M-2.5,-0.5L0,-3.0L2.5,-0.5"/>
  </g>
  <g id="arrowRight" transform="rotate(90) translate(36 -43)">
    <use xlink:href="#rim"/>
    <path pointer-events="none" fill="none" stroke="white" stroke-width="1.5" d="M0,-3.0v7 M-2.5,-0.5L0,-3.0L2.5,-0.5"/>
  </g>
  <g id="arrowDown" transform="rotate(180) translate(-30 -48)">
    <use xlink:href="#rim"/>
    <path pointer-events="none" fill="none" stroke="white" stroke-width="1.5" d="M0,-3.0v7 M-2.5,-0.5L0,-3.0L2.5,-0.5"/>
  </g>
  <g id="arrowLeft" transform="rotate(270) translate(-36 17)">
    <use xlink:href="#rim"/>
    <path pointer-events="none" fill="none" stroke="white" stroke-width="1.5" d="M0,-3.0v7 M-2.5,-0.5L0,-3.0L2.5,-0.5"/>
  </g>
  <g id="resetDef">
    <use xlink:href="#rim2" fill="#404040"><set attributeName="fill" to="#808080" begin="reset.mouseover" end="reset.mouseout"/></use>
  </g>
</defs>
<script type="application/ecmascript">
var viewWidth = 1249;
var viewHeight = 370;
var sectionId = 'dynsection-1';
</script>
<script type="application/ecmascript" xlink:href="../../svg.min.js"/>
<svg id="graph" class="graph">
<g id="viewport">
<title>Component</title>
<!-- Node1 -->
<g id="Node000001" class="node">
<title>Node1</title>
<g id="a_Node000001"><a xlink:title=" ">
<polygon fill="#999999" stroke="#666666" points="264.79,-20 199.29,-20 199.29,0 264.79,0 264.79,-20"/>
<text text-anchor="middle" x="232.04" y="-6.5" font-family="Helvetica,sans-Serif" font-size="10.00">Component</text>
</a>
</g>
</g>
<!-- Node2 -->
<g id="Node000002" class="node">
<title>Node2</title>
<g id="a_Node000002"><a xlink:href="../../d5/d02/classstring.html" target="_top" xlink:title=" ">
<polygon fill="white" stroke="#666666" points="565.04,-360 525.04,-360 525.04,-340 565.04,-340 565.04,-360"/>
<text text-anchor="middle" x="545.04" y="-346.5" font-family="Helvetica,sans-Serif" font-size="10.00">string</text>
</a>
</g>
</g>
<!-- Node2&#45;&gt;Node1 -->
<g id="edge1_Node000001_Node000002" class="edge">
<title>Node2&#45;&gt;Node1</title>
<g id="a_edge1_Node000001_Node000002"><a xlink:title=" ">
<path fill="none" stroke="#9a32cd" stroke-dasharray="5,2" d="M513.38,-346.11C413.01,-336.32 104.66,-301.05 37.04,-232 -2.57,-191.55 -12.56,-153.47 18.29,-106 58.57,-44.03 149.61,-22.16 198.88,-14.69"/>
<polygon fill="#9a32cd" stroke="#9a32cd" points="512.76,-349.57 523.05,-347.04 513.43,-342.6 512.76,-349.57"/>
</a>
</g>
<text text-anchor="middle" x="55.42" y="-120.5" font-family="Helvetica,sans-Serif" font-size="10.00" fill="grey"> m_CompNames</text>
</g>
<!-- Node2&#45;&gt;Node2 -->
<g id="edge2_Node000002_Node000002" class="edge">
<title>Node2&#45;&gt;Node2</title>
<g id="a_edge2_Node000002_Node000002"><a xlink:title=" ">
<path fill="none" stroke="#9a32cd" stroke-dasharray="5,2" d="M570.81,-361.91C577.76,-361.28 583.04,-357.31 583.04,-350 583.04,-339.12 571.34,-335.64 559.87,-339.55"/>
<polygon fill="#9a32cd" stroke="#9a32cd" points="571.74,-358.5 561.37,-360.65 570.82,-365.44 571.74,-358.5"/>
</a>
</g>
<text text-anchor="middle" x="598.79" y="-346.5" font-family="Helvetica,sans-Serif" font-size="10.00" fill="grey"> Empty</text>
</g>
<!-- Node4 -->
<g id="Node000004" class="node">
<title>Node4</title>
<g id="a_Node000004"><a xlink:href="../../d2/d01/classarray.html" target="_top" xlink:title="Result for an object found in CGame.IsBoxCollidingGeometryProxy.">
<polygon fill="white" stroke="#666666" points="850.92,-206 813.17,-206 813.17,-186 850.92,-186 850.92,-206"/>
<text text-anchor="middle" x="832.04" y="-192.5" font-family="Helvetica,sans-Serif" font-size="10.00">array</text>
</a>
</g>
</g>
<!-- Node2&#45;&gt;Node4 -->
<g id="edge9_Node000004_Node000002" class="edge">
<title>Node2&#45;&gt;Node4</title>
<g id="a_edge9_Node000004_Node000002"><a xlink:title=" ">
<path fill="none" stroke="#9a32cd" stroke-dasharray="5,2" d="M576.64,-343.12C595.22,-338.87 618.77,-332.09 638.04,-322 683.05,-298.45 683.07,-275.85 726.79,-250 745.07,-239.19 751.96,-241.3 771.04,-232 787.29,-224.08 805.14,-213.62 817.31,-206.2"/>
<polygon fill="#9a32cd" stroke="#9a32cd" points="576.05,-339.67 567,-345.18 577.51,-346.51 576.05,-339.67"/>
</a>
</g>
<text text-anchor="middle" x="743.67" y="-282.5" font-family="Helvetica,sans-Serif" font-size="10.00" fill="grey"> m_Test</text>
</g>
<!-- Node9 -->
<g id="Node000009" class="node">
<title>Node9</title>
<g id="a_Node000009"><a xlink:href="../../d2/d01/classarray.html" target="_top" xlink:title=" ">
<polygon fill="white" stroke="#666666" points="955.29,-88 868.79,-88 868.79,-68 955.29,-68 955.29,-88"/>
<text text-anchor="middle" x="912.04" y="-74.5" font-family="Helvetica,sans-Serif" font-size="10.00">array&lt; Widget &gt;</text>
</a>
</g>
</g>
<!-- Node2&#45;&gt;Node9 -->
<g id="edge16_Node000009_Node000002" class="edge">
<title>Node2&#45;&gt;Node9</title>
<g id="a_edge16_Node000009_Node000002"><a xlink:title=" ">
<path fill="none" stroke="#9a32cd" stroke-dasharray="5,2" d="M576.3,-343.12C588.67,-339.19 601.86,-332.7 610.04,-322 668.86,-245.11 568.55,-173.39 638.04,-106 654.21,-90.32 795.13,-83.09 868.31,-80.37"/>
<polygon fill="#9a32cd" stroke="#9a32cd" points="575.56,-339.69 566.81,-345.65 577.37,-346.45 575.56,-339.69"/>
</a>
</g>
<text text-anchor="middle" x="641.67" y="-192.5" font-family="Helvetica,sans-Serif" font-size="10.00" fill="grey"> m_Test</text>
</g>
<!-- Node11 -->
<g id="Node000011" class="node">
<title>Node11</title>
<g id="a_Node000011"><a xlink:href="../../d4/d0d/class_sound_lookup_table.html" target="_top" xlink:title=" ">
<polygon fill="white" stroke="#666666" points="471.29,-206 372.79,-206 372.79,-186 471.29,-186 471.29,-206"/>
<text text-anchor="middle" x="422.04" y="-192.5" font-family="Helvetica,sans-Serif" font-size="10.00">SoundLookupTable</text>
</a>
</g>
</g>
<!-- Node2&#45;&gt;Node11 -->
<g id="edge22_Node000011_Node000002" class="edge">
<title>Node2&#45;&gt;Node11</title>
<g id="a_edge22_Node000011_Node000002"><a xlink:title=" ">
<path fill="none" stroke="#9a32cd" stroke-dasharray="5,2" d="M522.38,-332.48C518.43,-329.19 514.49,-325.63 511.04,-322 474.19,-283.16 440.34,-228.25 427.5,-206.45"/>
<polygon fill="#9a32cd" stroke="#9a32cd" points="520.17,-335.19 530.2,-338.61 524.5,-329.69 520.17,-335.19"/>
</a>
</g>
<text text-anchor="middle" x="560.54" y="-288.5" font-family="Helvetica,sans-Serif" font-size="10.00" fill="grey"> m_parameterName</text>
<text text-anchor="middle" x="560.54" y="-276.5" font-family="Helvetica,sans-Serif" font-size="10.00" fill="grey">m_tableCategoryName</text>
</g>
<!-- Node3 -->
<g id="Node000003" class="node">
<title>Node3</title>
<g id="a_Node000003"><a xlink:href="../../df/d09/class_entity_a_i.html" target="_top" xlink:title=" ">
<polygon fill="white" stroke="#666666" points="429.29,-88 378.79,-88 378.79,-68 429.29,-68 429.29,-88"/>
<text text-anchor="middle" x="404.04" y="-74.5" font-family="Helvetica,sans-Serif" font-size="10.00">EntityAI</text>
</a>
</g>
</g>
<!-- Node3&#45;&gt;Node1 -->
<g id="edge3_Node000001_Node000003" class="edge">
<title>Node3&#45;&gt;Node1</title>
<g id="a_edge3_Node000001_Node000003"><a xlink:title=" ">
<path fill="none" stroke="#9a32cd" stroke-dasharray="5,2" d="M368.73,-63.45C335.3,-50.62 286,-31.7 256.64,-20.44"/>
<polygon fill="#9a32cd" stroke="#9a32cd" points="367.4,-66.69 377.99,-67 369.91,-60.15 367.4,-66.69"/>
</a>
</g>
<text text-anchor="middle" x="368.54" y="-40.5" font-family="Helvetica,sans-Serif" font-size="10.00" fill="grey"> m_ThisEntityAI</text>
</g>
<!-- Node4&#45;&gt;Node3 -->
<g id="edge4_Node000003_Node000004" class="edge">
<title>Node4&#45;&gt;Node3</title>
<g id="a_edge4_Node000003_Node000004"><a xlink:title=" ">
<path fill="none" stroke="#9a32cd" stroke-dasharray="5,2" d="M808.22,-179.77C797.19,-173.13 783.74,-165.6 771.04,-160 747.03,-149.41 739.72,-150.23 714.79,-142 667.65,-126.43 657.39,-117.3 609.04,-106 545.42,-91.13 468.65,-83.76 429.58,-80.74"/>
<polygon fill="#9a32cd" stroke="#9a32cd" points="806.31,-182.7 816.66,-184.97 809.99,-176.74 806.31,-182.7"/>
</a>
</g>
<text text-anchor="middle" x="763.17" y="-132.5" font-family="Helvetica,sans-Serif" font-size="10.00" fill="grey"> m_ContinuousActions</text>
<text text-anchor="middle" x="763.17" y="-120.5" font-family="Helvetica,sans-Serif" font-size="10.00" fill="grey">m_InteractActions</text>
<text text-anchor="middle" x="763.17" y="-108.5" font-family="Helvetica,sans-Serif" font-size="10.00" fill="grey">m_SingleUseActions</text>
</g>
<!-- Node4&#45;&gt;Node4 -->
<g id="edge7_Node000004_Node000004" class="edge">
<title>Node4&#45;&gt;Node4</title>
<g id="a_edge7_Node000004_Node000004"><a xlink:title=" ">
<path fill="none" stroke="#9a32cd" stroke-dasharray="5,2" d="M854.35,-209.49C862.37,-209.78 868.92,-205.29 868.92,-196 868.92,-182.64 855.38,-179.2 843.37,-185.67"/>
<polygon fill="#9a32cd" stroke="#9a32cd" points="855.4,-206.15 844.83,-206.75 853.47,-212.88 855.4,-206.15"/>
</a>
</g>
<text text-anchor="middle" x="889.92" y="-192.5" font-family="Helvetica,sans-Serif" font-size="10.00" fill="grey"> proxyInfo</text>
</g>
<!-- Node4&#45;&gt;Node9 -->
<g id="edge14_Node000009_Node000004" class="edge">
<title>Node4&#45;&gt;Node9</title>
<g id="a_edge14_Node000009_Node000004"><a xlink:title=" ">
<path fill="none" stroke="#9a32cd" stroke-dasharray="5,2" d="M854.78,-178.67C866.68,-169.13 880.68,-156.19 890.04,-142 901.4,-124.79 907.6,-101.05 910.32,-88.19"/>
<polygon fill="#9a32cd" stroke="#9a32cd" points="852.82,-175.77 847.02,-184.63 857.08,-181.32 852.82,-175.77"/>
</a>
</g>
<text text-anchor="middle" x="926.04" y="-120.5" font-family="Helvetica,sans-Serif" font-size="10.00" fill="grey"> proxyInfo</text>
</g>
<!-- Node5 -->
<g id="Node000005" class="node">
<title>Node5</title>
<g id="a_Node000005"><a xlink:href="../../d8/d03/class_object.html" target="_top" xlink:title=" ">
<polygon fill="white" stroke="#666666" points="757.29,-360 712.79,-360 712.79,-340 757.29,-340 757.29,-360"/>
<text text-anchor="middle" x="735.04" y="-346.5" font-family="Helvetica,sans-Serif" font-size="10.00">Object</text>
</a>
</g>
</g>
<!-- Node5&#45;&gt;Node4 -->
<g id="edge5_Node000004_Node000005" class="edge">
<title>Node5&#45;&gt;Node4</title>
<g id="a_edge5_Node000004_Node000005"><a xlink:title=" ">
<path fill="none" stroke="#9a32cd" stroke-dasharray="5,2" d="M757.43,-332.08C760.61,-328.98 763.62,-325.58 766.04,-322 785.01,-293.93 774.91,-279.79 791.04,-250 800.02,-233.43 814.05,-216.61 823.15,-206.49"/>
<polygon fill="#9a32cd" stroke="#9a32cd" points="755.27,-329.32 750.01,-338.52 759.86,-334.61 755.27,-329.32"/>
</a>
</g>
<text text-anchor="middle" x="804.54" y="-288.5" font-family="Helvetica,sans-Serif" font-size="10.00" fill="grey"> obj</text>
<text text-anchor="middle" x="804.54" y="-276.5" font-family="Helvetica,sans-Serif" font-size="10.00" fill="grey">parent</text>
</g>
<!-- Node5&#45;&gt;Node9 -->
<g id="edge12_Node000009_Node000005" class="edge">
<title>Node5&#45;&gt;Node9</title>
<g id="a_edge12_Node000009_Node000005"><a xlink:title=" ">
<path fill="none" stroke="#9a32cd" stroke-dasharray="5,2" d="M716.09,-331.07C714.04,-328.24 712.26,-325.19 711.04,-322 699.67,-292.09 701.34,-280.49 711.04,-250 734.83,-175.27 748.78,-150.95 813.04,-106 829.25,-94.67 850.01,-88.08 868.34,-84.26"/>
<polygon fill="#9a32cd" stroke="#9a32cd" points="713.45,-333.37 722.68,-338.57 718.71,-328.75 713.45,-333.37"/>
</a>
</g>
<text text-anchor="middle" x="763.54" y="-198.5" font-family="Helvetica,sans-Serif" font-size="10.00" fill="grey"> obj</text>
<text text-anchor="middle" x="763.54" y="-186.5" font-family="Helvetica,sans-Serif" font-size="10.00" fill="grey">parent</text>
</g>
<!-- Node6 -->
<g id="Node000006" class="node">
<title>Node6</title>
<g id="a_Node000006"><a xlink:href="../../db/d06/class_param3.html" target="_top" xlink:title=" ">
<polygon fill="white" stroke="#666666" points="927.92,-360 878.17,-360 878.17,-340 927.92,-340 927.92,-360"/>
<text text-anchor="middle" x="903.04" y="-346.5" font-family="Helvetica,sans-Serif" font-size="10.00">Param3</text>
</a>
</g>
</g>
<!-- Node6&#45;&gt;Node4 -->
<g id="edge6_Node000004_Node000006" class="edge">
<title>Node6&#45;&gt;Node4</title>
<g id="a_edge6_Node000004_Node000006"><a xlink:title=" ">
<path fill="none" stroke="#9a32cd" stroke-dasharray="5,2" d="M867.21,-341.77C856.36,-337.76 845.53,-331.57 838.79,-322 813.4,-285.93 824.03,-228.46 829.53,-206.22"/>
<polygon fill="#9a32cd" stroke="#9a32cd" points="865.9,-345.02 876.48,-344.63 867.96,-338.34 865.9,-345.02"/>
</a>
</g>
<text text-anchor="middle" x="896.17" y="-312.5" font-family="Helvetica,sans-Serif" font-size="10.00" fill="grey"> NO_SORTING</text>
<text text-anchor="middle" x="896.17" y="-300.5" font-family="Helvetica,sans-Serif" font-size="10.00" fill="grey">geomLevel</text>
<text text-anchor="middle" x="896.17" y="-288.5" font-family="Helvetica,sans-Serif" font-size="10.00" fill="grey">hierLevel</text>
<text text-anchor="start" x="838.04" y="-276.5" font-family="Helvetica,sans-Serif" font-size="10.00" fill="grey">m_CurrentSettingAlternate</text>
<text text-anchor="middle" x="896.17" y="-264.5" font-family="Helvetica,sans-Serif" font-size="10.00" fill="grey">KeyIndex</text>
<text text-anchor="middle" x="896.17" y="-252.5" font-family="Helvetica,sans-Serif" font-size="10.00" fill="grey">m_CurrentSettingKeyIndex</text>
</g>
<!-- Node6&#45;&gt;Node9 -->
<g id="edge13_Node000009_Node000006" class="edge">
<title>Node6&#45;&gt;Node9</title>
<g id="a_edge13_Node000009_Node000006"><a xlink:title=" ">
<path fill="none" stroke="#9a32cd" stroke-dasharray="5,2" d="M938.26,-337.41C944.94,-333.57 951.07,-328.54 955.04,-322 970.46,-296.63 975.66,-151.43 951.04,-106 946.96,-98.47 939.76,-92.6 932.65,-88.29"/>
<polygon fill="#9a32cd" stroke="#9a32cd" points="937.13,-334.07 929.64,-341.57 940.17,-340.38 937.13,-334.07"/>
</a>
</g>
<text text-anchor="middle" x="1026.17" y="-222.5" font-family="Helvetica,sans-Serif" font-size="10.00" fill="grey"> NO_SORTING</text>
<text text-anchor="middle" x="1026.17" y="-210.5" font-family="Helvetica,sans-Serif" font-size="10.00" fill="grey">geomLevel</text>
<text text-anchor="middle" x="1026.17" y="-198.5" font-family="Helvetica,sans-Serif" font-size="10.00" fill="grey">hierLevel</text>
<text text-anchor="start" x="968.04" y="-186.5" font-family="Helvetica,sans-Serif" font-size="10.00" fill="grey">m_CurrentSettingAlternate</text>
<text text-anchor="middle" x="1026.17" y="-174.5" font-family="Helvetica,sans-Serif" font-size="10.00" fill="grey">KeyIndex</text>
<text text-anchor="middle" x="1026.17" y="-162.5" font-family="Helvetica,sans-Serif" font-size="10.00" fill="grey">m_CurrentSettingKeyIndex</text>
</g>
<!-- Node7 -->
<g id="Node000007" class="node">
<title>Node7</title>
<g id="a_Node000007"><a xlink:href="../../d4/d04/class_class.html" target="_top" xlink:title="Super root of all classes in Enforce script.">
<polygon fill="white" stroke="#666666" points="1064.42,-360 1023.67,-360 1023.67,-340 1064.42,-340 1064.42,-360"/>
<text text-anchor="middle" x="1044.04" y="-346.5" font-family="Helvetica,sans-Serif" font-size="10.00">Class</text>
</a>
</g>
</g>
<!-- Node7&#45;&gt;Node4 -->
<g id="edge8_Node000004_Node000007" class="edge">
<title>Node7&#45;&gt;Node4</title>
<g id="a_edge8_Node000004_Node000007"><a xlink:title=" ">
<path fill="none" stroke="#9a32cd" stroke-dasharray="5,2" d="M1016.88,-333.66C1011.89,-330.19 1006.95,-326.25 1002.79,-322 976.47,-295.05 986.7,-274.46 958.04,-250 925.91,-222.58 877.55,-207.67 851.06,-201.13"/>
<polygon fill="#9a32cd" stroke="#9a32cd" points="1014.76,-336.46 1025.07,-338.92 1018.54,-330.57 1014.76,-336.46"/>
</a>
</g>
<text text-anchor="middle" x="1028.67" y="-282.5" font-family="Helvetica,sans-Serif" font-size="10.00" fill="grey"> m_Instance</text>
</g>
<!-- Node7&#45;&gt;Node9 -->
<g id="edge15_Node000009_Node000007" class="edge">
<title>Node7&#45;&gt;Node9</title>
<g id="a_edge15_Node000009_Node000007"><a xlink:title=" ">
<path fill="none" stroke="#9a32cd" stroke-dasharray="5,2" d="M1075.57,-345.41C1090.44,-341.96 1106.89,-335.2 1116.04,-322 1157.66,-261.94 1136.25,-214.91 1088.04,-160 1053.42,-120.57 995.64,-99.12 955.78,-88.37"/>
<polygon fill="#9a32cd" stroke="#9a32cd" points="1075.32,-341.9 1066.14,-347.18 1076.61,-348.78 1075.32,-341.9"/>
</a>
</g>
<text text-anchor="middle" x="1159.67" y="-192.5" font-family="Helvetica,sans-Serif" font-size="10.00" fill="grey"> m_Instance</text>
</g>
<!-- Node8 -->
<g id="Node000008" class="node">
<title>Node8</title>
<g id="a_Node000008"><a xlink:href="../../dd/d0a/class_widget.html" target="_top" xlink:title=" ">
<polygon fill="white" stroke="#666666" points="1171.42,-360 1124.67,-360 1124.67,-340 1171.42,-340 1171.42,-360"/>
<text text-anchor="middle" x="1148.04" y="-346.5" font-family="Helvetica,sans-Serif" font-size="10.00">Widget</text>
</a>
</g>
</g>
<!-- Node8&#45;&gt;Node4 -->
<g id="edge10_Node000004_Node000008" class="edge">
<title>Node8&#45;&gt;Node4</title>
<g id="a_edge10_Node000004_Node000008"><a xlink:title=" ">
<path fill="none" stroke="#9a32cd" stroke-dasharray="5,2" d="M1136.26,-330.1C1120.84,-307.13 1091.56,-269.07 1056.04,-250 1012.79,-226.77 994.86,-243.17 947.04,-232 912.9,-224.02 874.05,-211.44 851.37,-203.74"/>
<polygon fill="#9a32cd" stroke="#9a32cd" points="1133.31,-331.99 1141.69,-338.48 1139.18,-328.18 1133.31,-331.99"/>
</a>
</g>
<text text-anchor="middle" x="1147.42" y="-282.5" font-family="Helvetica,sans-Serif" font-size="10.00" fill="grey"> m_Root</text>
</g>
<!-- Node8&#45;&gt;Node9 -->
<g id="edge17_Node000009_Node000008" class="edge">
<title>Node8&#45;&gt;Node9</title>
<g id="a_edge17_Node000009_Node000008"><a xlink:title=" ">
<path fill="none" stroke="#9a32cd" stroke-dasharray="5,2" d="M1160.76,-330.51C1183.79,-294.51 1226.78,-213.82 1190.04,-160 1163.51,-121.13 1027.06,-95.78 955.68,-84.98"/>
<polygon fill="#9a32cd" stroke="#9a32cd" points="1158.05,-328.27 1155.45,-338.54 1163.89,-332.13 1158.05,-328.27"/>
</a>
</g>
<text text-anchor="middle" x="1222.42" y="-192.5" font-family="Helvetica,sans-Serif" font-size="10.00" fill="grey"> m_Root</text>
</g>
<!-- Node9&#45;&gt;Node4 -->
<g id="edge11_Node000004_Node000009" class="edge">
<title>Node9&#45;&gt;Node4</title>
<g id="a_edge11_Node000004_Node000009"><a xlink:title=" ">
<path fill="none" stroke="#9a32cd" stroke-dasharray="5,2" d="M857.64,-85.39C845.72,-89.43 834.46,-95.86 827.04,-106 809.5,-129.98 821.08,-168.05 827.97,-185.59"/>
<polygon fill="#9a32cd" stroke="#9a32cd" points="858.53,-88.77 867.22,-82.71 856.65,-82.03 858.53,-88.77"/>
</a>
</g>
<text text-anchor="middle" x="858.54" y="-120.5" font-family="Helvetica,sans-Serif" font-size="10.00" fill="grey"> m_Subgroups</text>
</g>
<!-- Node9&#45;&gt;Node9 -->
<g id="edge18_Node000009_Node000009" class="edge">
<title>Node9&#45;&gt;Node9</title>
<g id="a_edge18_Node000009_Node000009"><a xlink:title=" ">
<path fill="none" stroke="#9a32cd" stroke-dasharray="5,2" d="M966.67,-82.76C970.77,-81.7 973.29,-80.11 973.29,-78 973.29,-74.35 965.76,-72.26 955.54,-71.75"/>
<polygon fill="#9a32cd" stroke="#9a32cd" points="966.48,-79.26 957.04,-84.05 967.41,-86.19 966.48,-79.26"/>
</a>
</g>
<text text-anchor="middle" x="1004.79" y="-74.5" font-family="Helvetica,sans-Serif" font-size="10.00" fill="grey"> m_Subgroups</text>
</g>
<!-- Node10 -->
<g id="Node000010" class="node">
<title>Node10</title>
<g id="a_Node000010"><a xlink:href="../../d4/d03/classfloat.html" target="_top" xlink:title=" ">
<polygon fill="white" stroke="#666666" points="261.04,-206 227.04,-206 227.04,-186 261.04,-186 261.04,-206"/>
<text text-anchor="middle" x="244.04" y="-192.5" font-family="Helvetica,sans-Serif" font-size="10.00">float</text>
</a>
</g>
</g>
<!-- Node10&#45;&gt;Node1 -->
<g id="edge25_Node000001_Node000010" class="edge">
<title>Node10&#45;&gt;Node1</title>
<g id="a_edge25_Node000001_Node000010"><a xlink:title=" ">
<path fill="none" stroke="#9a32cd" stroke-dasharray="5,2" d="M242.69,-174.2C240.08,-134.26 234.48,-48.3 232.64,-20.14"/>
<polygon fill="#9a32cd" stroke="#9a32cd" points="239.19,-174.36 243.33,-184.11 246.18,-173.91 239.19,-174.36"/>
</a>
</g>
<text text-anchor="middle" x="301.79" y="-74.5" font-family="Helvetica,sans-Serif" font-size="10.00" fill="grey"> m_DebugShapeDirectionDist</text>
</g>
<!-- Node10&#45;&gt;Node3 -->
<g id="edge19_Node000003_Node000010" class="edge">
<title>Node10&#45;&gt;Node3</title>
<g id="a_edge19_Node000003_Node000010"><a xlink:title=" ">
<path fill="none" stroke="#9a32cd" stroke-dasharray="5,2" d="M247.66,-174.33C252.34,-153.88 262.54,-123.22 283.54,-106 284.01,-105.62 343.07,-92.5 378.32,-84.69"/>
<polygon fill="#9a32cd" stroke="#9a32cd" points="244.25,-173.55 245.71,-184.04 251.11,-174.93 244.25,-173.55"/>
</a>
</g>
<text text-anchor="middle" x="341.79" y="-126.5" font-family="Helvetica,sans-Serif" font-size="10.00" fill="grey"> SOUND_CONTACT_SKIP</text>
<text text-anchor="middle" x="341.79" y="-114.5" font-family="Helvetica,sans-Serif" font-size="10.00" fill="grey">m_SoundContactTickTime</text>
</g>
<!-- Node10&#45;&gt;Node10 -->
<g id="edge20_Node000010_Node000010" class="edge">
<title>Node10&#45;&gt;Node10</title>
<g id="a_edge20_Node000010_Node000010"><a xlink:title=" ">
<path fill="none" stroke="#9a32cd" stroke-dasharray="5,2" d="M265.72,-209.5C273.11,-209.58 279.04,-205.08 279.04,-196 279.04,-182.64 266.19,-179.2 254.79,-185.67"/>
<polygon fill="#9a32cd" stroke="#9a32cd" points="266.83,-206.17 256.25,-206.75 264.88,-212.9 266.83,-206.17"/>
</a>
</g>
<text text-anchor="middle" x="301.17" y="-204.5" font-family="Helvetica,sans-Serif" font-size="10.00" fill="grey"> LOWEST</text>
<text text-anchor="middle" x="301.17" y="-192.5" font-family="Helvetica,sans-Serif" font-size="10.00" fill="grey">MAX</text>
<text text-anchor="middle" x="301.17" y="-180.5" font-family="Helvetica,sans-Serif" font-size="10.00" fill="grey">MIN</text>
</g>
<!-- Node11&#45;&gt;Node3 -->
<g id="edge21_Node000003_Node000011" class="edge">
<title>Node11&#45;&gt;Node3</title>
<g id="a_edge21_Node000003_Node000011"><a xlink:title=" ">
<path fill="none" stroke="#9a32cd" stroke-dasharray="5,2" d="M414.3,-175.2C410.85,-165.38 407.14,-153.24 405.29,-142 402.21,-123.22 402.74,-100.86 403.4,-88.47"/>
<polygon fill="#9a32cd" stroke="#9a32cd" points="410.96,-176.25 417.73,-184.4 417.52,-173.8 410.96,-176.25"/>
</a>
</g>
<text text-anchor="middle" x="454.42" y="-120.5" font-family="Helvetica,sans-Serif" font-size="10.00" fill="grey"> m_SoundImpactTable</text>
</g>
<!-- Node12 -->
<g id="Node000012" class="node">
<title>Node12</title>
<g id="a_Node000012"><a xlink:href="../../d9/d09/classbool.html" target="_top" xlink:title=" ">
<polygon fill="white" stroke="#666666" points="541.04,-206 507.04,-206 507.04,-186 541.04,-186 541.04,-206"/>
<text text-anchor="middle" x="524.04" y="-192.5" font-family="Helvetica,sans-Serif" font-size="10.00">bool</text>
</a>
</g>
</g>
<!-- Node12&#45;&gt;Node3 -->
<g id="edge23_Node000003_Node000012" class="edge">
<title>Node12&#45;&gt;Node3</title>
<g id="a_edge23_Node000003_Node000012"><a xlink:title=" ">
<path fill="none" stroke="#9a32cd" stroke-dasharray="5,2" d="M524.58,-174.5C523.96,-154.41 519.8,-124.23 502.04,-106 483.21,-86.66 451.88,-80.79 429.72,-79.2"/>
<polygon fill="#9a32cd" stroke="#9a32cd" points="521.08,-174.25 524.59,-184.25 528.08,-174.24 521.08,-174.25"/>
</a>
</g>
<text text-anchor="middle" x="562.42" y="-126.5" font-family="Helvetica,sans-Serif" font-size="10.00" fill="grey"> m_ActionsInitialize</text>
<text text-anchor="middle" x="562.42" y="-114.5" font-family="Helvetica,sans-Serif" font-size="10.00" fill="grey">m_IsMeleeWeapon</text>
</g>
<!-- Node13 -->
<g id="Node000013" class="node">
<title>Node13</title>
<g id="a_Node000013"><a xlink:href="../../d4/d0d/class_script_invoker.html" target="_top" xlink:title="ScriptInvoker Class provide list of callbacks &#160;&#160;usage:">
<polygon fill="white" stroke="#666666" points="117.79,-206 46.29,-206 46.29,-186 117.79,-186 117.79,-206"/>
<text text-anchor="middle" x="82.04" y="-192.5" font-family="Helvetica,sans-Serif" font-size="10.00">ScriptInvoker</text>
</a>
</g>
</g>
<!-- Node13&#45;&gt;Node3 -->
<g id="edge24_Node000003_Node000013" class="edge">
<title>Node13&#45;&gt;Node3</title>
<g id="a_edge24_Node000003_Node000013"><a xlink:title=" ">
<path fill="none" stroke="#9a32cd" stroke-dasharray="5,2" d="M84.85,-174.62C88.92,-153.66 98.59,-121.9 121.04,-106 165.06,-74.84 309.69,-95.8 363.04,-88 368.09,-87.26 373.44,-86.25 378.56,-85.18"/>
<polygon fill="#9a32cd" stroke="#9a32cd" points="81.43,-173.84 83.27,-184.28 88.34,-174.98 81.43,-173.84"/>
</a>
</g>
<text text-anchor="middle" x="188.54" y="-126.5" font-family="Helvetica,sans-Serif" font-size="10.00" fill="grey"> m_OnItemAddedToHands</text>
<text text-anchor="middle" x="188.54" y="-114.5" font-family="Helvetica,sans-Serif" font-size="10.00" fill="grey">m_OnItemRemovedFromHands</text>
</g>
</g>
</svg>

<g id="navigator" transform="translate(0 0)" fill="#404254">
  <rect fill="#f2f5e9" fill-opacity="0.5" stroke="#606060" stroke-width=".5" x="0" y="0" width="60" height="60"/>
  <use id="zoomplus" xlink:href="#zoomPlus" x="17" y="9" onmousedown="handleZoom(evt,'in')"/>
  <use id="zoomminus" xlink:href="#zoomMin" x="42" y="9" onmousedown="handleZoom(evt,'out')"/>
  <use id="reset" xlink:href="#resetDef" x="30" y="36" onmousedown="handleReset()"/>
   <use id="arrowup" xlink:href="#arrowUp" x="0" y="0" onmousedown="handlePan(0,-1)"/>
  <use id="arrowright" xlink:href="#arrowRight" x="0" y="0" onmousedown="handlePan(1,0)"/>
  <use id="arrowdown" xlink:href="#arrowDown" x="0" y="0" onmousedown="handlePan(0,1)"/>
  <use id="arrowleft" xlink:href="#arrowLeft" x="0" y="0" onmousedown="handlePan(-1,0)"/>
</g>
<svg viewBox="0 0 15 15" width="100%" height="30px" preserveAspectRatio="xMaxYMin meet">
 <g id="arrow_out" transform="scale(0.3 0.3)">
  <a xlink:href="class_component__coll__graph_org.svg" target="_base">
   <rect id="button" ry="5" rx="5" y="6" x="6" height="38" width="38"
        fill="#f2f5e9" fill-opacity="0.5" stroke="#606060" stroke-width="1.0"/>
   <path id="arrow"
     d="M 11.500037,31.436501 C 11.940474,20.09759 22.043105,11.32322 32.158766,21.979434 L 37.068811,17.246167 C 37.068811,17.246167 37.088388,32 37.088388,32 L 22.160133,31.978069 C 22.160133,31.978069 26.997745,27.140456 26.997745,27.140456 C 18.528582,18.264221 13.291696,25.230495 11.500037,31.436501 z"
     style="fill:#404040;"/>
  </a>
 </g>
</svg>

<style type='text/css'>
<![CDATA[
[data-mouse-over-selected='false'] { opacity: 0.7; }
[data-mouse-over-selected='true']  { opacity: 1.0; }
]]>
</style>
<script type="application/ecmascript"><![CDATA[
document.addEventListener('DOMContentLoaded', (event) => {
  highlightEdges();
  highlightAdjacentNodes();
});
]]></script>
</svg>
