<?xml version="1.0" encoding="UTF-8" standalone="no"?>
<!DOCTYPE svg PUBLIC "-//W3C//DTD SVG 1.1//EN"
 "http://www.w3.org/Graphics/SVG/1.1/DTD/svg11.dtd">
<!-- Generated by graphviz version 11.0.0 (20240428.1522)
 -->
<!-- Title: Debug Shape API definition Pages: 1 -->
<svg width="415pt" height="28pt"
 viewBox="0.00 0.00 414.50 28.00" xmlns="http://www.w3.org/2000/svg" xmlns:xlink="http://www.w3.org/1999/xlink">
<g id="graph0" class="graph" transform="scale(1 1) rotate(0) translate(4 24)">
<title>Debug Shape API definition</title>
<!-- Node2 -->
<g id="Node000002" class="node">
<title>Node2</title>
<g id="a_Node000002"><a xlink:href="../../d0/d02/group___debug.html" target="_top" xlink:title=" ">
<polygon fill="white" stroke="#666666" points="77.5,-20 0,-20 0,0 77.5,0 77.5,-20"/>
<text text-anchor="middle" x="38.75" y="-6.5" font-family="Helvetica,sans-Serif" font-size="10.00">Debug utilities</text>
</a>
</g>
</g>
<!-- Node1 -->
<g id="Node000001" class="node">
<title>Node1</title>
<g id="a_Node000001"><a xlink:title=" ">
<polygon fill="#999999" stroke="#666666" points="248,-20 113.5,-20 113.5,0 248,0 248,-20"/>
<text text-anchor="middle" x="180.75" y="-6.5" font-family="Helvetica,sans-Serif" font-size="10.00">Debug Shape API definition</text>
</a>
</g>
</g>
<!-- Node2&#45;&gt;Node1 -->
<g id="edge1" class="edge">
<title>Node2&#45;&gt;Node1</title>
<path fill="none" stroke="black" d="M89.14,-10C96.94,-10 105.12,-10 113.24,-10"/>
<polygon fill="black" stroke="black" points="89.15,-6.5 79.15,-10 89.15,-13.5 89.15,-6.5"/>
</g>
<!-- Node3 -->
<g id="Node000003" class="node">
<title>Node3</title>
<g id="a_Node000003"><a xlink:href="../../dc/d09/group___diag_menu.html" target="_top" xlink:title=" ">
<polygon fill="white" stroke="#666666" points="406.5,-20 284,-20 284,0 406.5,0 406.5,-20"/>
<text text-anchor="middle" x="345.25" y="-6.5" font-family="Helvetica,sans-Serif" font-size="10.00">Diag menu API definition</text>
</a>
</g>
</g>
<!-- Node1&#45;&gt;Node3 -->
<g id="edge2" class="edge">
<title>Node1&#45;&gt;Node3</title>
<path fill="none" stroke="black" d="M259.61,-10C267.65,-10 275.73,-10 283.53,-10"/>
<polygon fill="black" stroke="black" points="259.83,-6.5 249.83,-10 259.83,-13.5 259.83,-6.5"/>
</g>
</g>
</svg>
