<?xml version="1.0" encoding="UTF-8" standalone="no"?>
<!DOCTYPE svg PUBLIC "-//W3C//DTD SVG 1.1//EN"
 "http://www.w3.org/Graphics/SVG/1.1/DTD/svg11.dtd">
<!-- Generated by graphviz version 11.0.0 (20240428.1522)
 -->
<!-- Title: ClaymoreMine Pages: 1 -->
<!--zoomable 466 -->

<svg id="main" version="1.1" xmlns="http://www.w3.org/2000/svg" xmlns:xlink="http://www.w3.org/1999/xlink" xml:space="preserve" onload="init(evt)">
<style type="text/css"><![CDATA[
.node, .edge {opacity: 0.7;}
.node.selected, .edge.selected {opacity: 1;}
.edge:hover path { stroke: red; }
.edge:hover polygon { stroke: red; fill: red; }
]]></style>

<defs>
  <circle id="rim" cx="0" cy="0" r="7"/>
  <circle id="rim2" cx="0" cy="0" r="3.5"/>
  <g id="zoomPlus">
    <use xlink:href="#rim" fill="#404040"><set attributeName="fill" to="#808080" begin="zoomplus.mouseover" end="zoomplus.mouseout"/></use>
    <path d="M-4,0h8M0,-4v8" fill="none" stroke="white" stroke-width="1.5" pointer-events="none"/>
  </g>
  <g id="zoomMin">
    <use xlink:href="#rim" fill="#404040"><set attributeName="fill" to="#808080" begin="zoomminus.mouseover" end="zoomminus.mouseout"/></use>
    <path d="M-4,0h8" fill="none" stroke="white" stroke-width="1.5" pointer-events="none"/>
  </g>
  <g id="arrowUp" transform="translate(30 24)">
    <use xlink:href="#rim"/>
    <path pointer-events="none" fill="none" stroke="white" stroke-width="1.5" d="M0,-3.0v7 M-2.5,-0.5L0,-3.0L2.5,-0.5"/>
  </g>
  <g id="arrowRight" transform="rotate(90) translate(36 -43)">
    <use xlink:href="#rim"/>
    <path pointer-events="none" fill="none" stroke="white" stroke-width="1.5" d="M0,-3.0v7 M-2.5,-0.5L0,-3.0L2.5,-0.5"/>
  </g>
  <g id="arrowDown" transform="rotate(180) translate(-30 -48)">
    <use xlink:href="#rim"/>
    <path pointer-events="none" fill="none" stroke="white" stroke-width="1.5" d="M0,-3.0v7 M-2.5,-0.5L0,-3.0L2.5,-0.5"/>
  </g>
  <g id="arrowLeft" transform="rotate(270) translate(-36 17)">
    <use xlink:href="#rim"/>
    <path pointer-events="none" fill="none" stroke="white" stroke-width="1.5" d="M0,-3.0v7 M-2.5,-0.5L0,-3.0L2.5,-0.5"/>
  </g>
  <g id="resetDef">
    <use xlink:href="#rim2" fill="#404040"><set attributeName="fill" to="#808080" begin="reset.mouseover" end="reset.mouseout"/></use>
  </g>
</defs>
<script type="application/ecmascript">
var viewWidth = 1338;
var viewHeight = 466;
var sectionId = 'dynsection-1';
</script>
<script type="application/ecmascript" xlink:href="../../svg.min.js"/>
<svg id="graph" class="graph">
<g id="viewport">
<title>ClaymoreMine</title>
<!-- Node1 -->
<g id="Node000001" class="node">
<title>Node1</title>
<g id="a_Node000001"><a xlink:title=" ">
<polygon fill="#999999" stroke="#666666" points="738.53,-20 660.28,-20 660.28,0 738.53,0 738.53,-20"/>
<text text-anchor="middle" x="699.41" y="-6.5" font-family="Helvetica,sans-Serif" font-size="10.00">ClaymoreMine</text>
</a>
</g>
</g>
<!-- Node2 -->
<g id="Node000002" class="node">
<title>Node2</title>
<g id="a_Node000002"><a xlink:title=" ">
<polygon fill="white" stroke="#666666" points="602.91,-88 517.91,-88 517.91,-68 602.91,-68 602.91,-88"/>
<text text-anchor="middle" x="560.41" y="-74.5" font-family="Helvetica,sans-Serif" font-size="10.00">ExplosivesBase</text>
</a>
</g>
</g>
<!-- Node2&#45;&gt;Node1 -->
<g id="edge1_Node000001_Node000002" class="edge">
<title>Node2&#45;&gt;Node1</title>
<g id="a_edge1_Node000001_Node000002"><a xlink:title=" ">
<path fill="none" stroke="#8b1a1a" d="M590.37,-62.77C617.34,-49.97 656.22,-31.51 679.53,-20.44"/>
<polygon fill="#8b1a1a" stroke="#8b1a1a" points="589.22,-59.44 581.69,-66.89 592.22,-65.77 589.22,-59.44"/>
</a>
</g>
</g>
<!-- Node3 -->
<g id="Node000003" class="node">
<title>Node3</title>
<g id="a_Node000003"><a xlink:href="../../d5/d02/classstring.html" target="_top" xlink:title=" ">
<polygon fill="white" stroke="#666666" points="657.41,-456 617.41,-456 617.41,-436 657.41,-436 657.41,-456"/>
<text text-anchor="middle" x="637.41" y="-442.5" font-family="Helvetica,sans-Serif" font-size="10.00">string</text>
</a>
</g>
</g>
<!-- Node3&#45;&gt;Node1 -->
<g id="edge2_Node000001_Node000003" class="edge">
<title>Node3&#45;&gt;Node1</title>
<g id="a_edge2_Node000001_Node000003"><a xlink:title=" ">
<path fill="none" stroke="#9a32cd" stroke-dasharray="5,2" d="M668.81,-443.44C787.97,-436.68 1205.41,-405.01 1205.41,-293 1205.41,-293 1205.41,-293 1205.41,-77 1205.41,-29.99 857.58,-15.56 738.69,-12.01"/>
<polygon fill="#9a32cd" stroke="#9a32cd" points="668.93,-439.93 659.13,-443.97 669.31,-446.92 668.93,-439.93"/>
</a>
</g>
<text text-anchor="middle" x="1267.66" y="-174.5" font-family="Helvetica,sans-Serif" font-size="10.00" fill="grey"> ANIM_PHASE_DEPLOYED</text>
<text text-anchor="middle" x="1267.66" y="-162.5" font-family="Helvetica,sans-Serif" font-size="10.00" fill="grey">ANIM_PHASE_PACKED</text>
<text text-anchor="middle" x="1267.66" y="-150.5" font-family="Helvetica,sans-Serif" font-size="10.00" fill="grey">SELECTION_NAME_LED</text>
</g>
<!-- Node3&#45;&gt;Node3 -->
<g id="edge3_Node000003_Node000003" class="edge">
<title>Node3&#45;&gt;Node3</title>
<g id="a_edge3_Node000003_Node000003"><a xlink:title=" ">
<path fill="none" stroke="#9a32cd" stroke-dasharray="5,2" d="M663.18,-457.91C670.12,-457.28 675.41,-453.31 675.41,-446 675.41,-435.12 663.7,-431.64 652.23,-435.55"/>
<polygon fill="#9a32cd" stroke="#9a32cd" points="664.1,-454.5 653.73,-456.65 663.18,-461.44 664.1,-454.5"/>
</a>
</g>
<text text-anchor="middle" x="691.16" y="-442.5" font-family="Helvetica,sans-Serif" font-size="10.00" fill="grey"> Empty</text>
</g>
<!-- Node6 -->
<g id="Node000006" class="node">
<title>Node6</title>
<g id="a_Node000006"><a xlink:href="../../d2/d01/classarray.html" target="_top" xlink:title="Result for an object found in CGame.IsBoxCollidingGeometryProxy.">
<polygon fill="white" stroke="#666666" points="325.28,-302 287.53,-302 287.53,-282 325.28,-282 325.28,-302"/>
<text text-anchor="middle" x="306.41" y="-288.5" font-family="Helvetica,sans-Serif" font-size="10.00">array</text>
</a>
</g>
</g>
<!-- Node3&#45;&gt;Node6 -->
<g id="edge11_Node000006_Node000003" class="edge">
<title>Node3&#45;&gt;Node6</title>
<g id="a_edge11_Node000006_Node000003"><a xlink:title=" ">
<path fill="none" stroke="#9a32cd" stroke-dasharray="5,2" d="M605.82,-442.87C581.88,-440.04 548.98,-433.43 524.16,-418 488.84,-396.05 499.32,-368.58 464.41,-346 439.24,-329.72 427.91,-337.29 399.41,-328 373.49,-319.55 344.14,-308.2 325.46,-300.75"/>
<polygon fill="#9a32cd" stroke="#9a32cd" points="605.3,-446.34 615.6,-443.86 606,-439.37 605.3,-446.34"/>
</a>
</g>
<text text-anchor="middle" x="541.03" y="-378.5" font-family="Helvetica,sans-Serif" font-size="10.00" fill="grey"> m_Test</text>
</g>
<!-- Node11 -->
<g id="Node000011" class="node">
<title>Node11</title>
<g id="a_Node000011"><a xlink:href="../../d2/d01/classarray.html" target="_top" xlink:title=" ">
<polygon fill="white" stroke="#666666" points="407.66,-176 321.16,-176 321.16,-156 407.66,-156 407.66,-176"/>
<text text-anchor="middle" x="364.41" y="-162.5" font-family="Helvetica,sans-Serif" font-size="10.00">array&lt; Widget &gt;</text>
</a>
</g>
</g>
<!-- Node3&#45;&gt;Node11 -->
<g id="edge18_Node000011_Node000003" class="edge">
<title>Node3&#45;&gt;Node11</title>
<g id="a_edge18_Node000011_Node000003"><a xlink:title=" ">
<path fill="none" stroke="#9a32cd" stroke-dasharray="5,2" d="M628.46,-425.28C611.34,-388.97 571.19,-310.28 521.41,-256 494.13,-226.26 483.51,-221.91 448.41,-202 430.27,-191.71 408.5,-182.73 391.67,-176.44"/>
<polygon fill="#9a32cd" stroke="#9a32cd" points="625.18,-426.52 632.56,-434.13 631.53,-423.58 625.18,-426.52"/>
</a>
</g>
<text text-anchor="middle" x="591.03" y="-288.5" font-family="Helvetica,sans-Serif" font-size="10.00" fill="grey"> m_Test</text>
</g>
<!-- Node13 -->
<g id="Node000013" class="node">
<title>Node13</title>
<g id="a_Node000013"><a xlink:href="../../d4/d0d/class_sound_lookup_table.html" target="_top" xlink:title=" ">
<polygon fill="white" stroke="#666666" points="833.66,-302 735.16,-302 735.16,-282 833.66,-282 833.66,-302"/>
<text text-anchor="middle" x="784.41" y="-288.5" font-family="Helvetica,sans-Serif" font-size="10.00">SoundLookupTable</text>
</a>
</g>
</g>
<!-- Node3&#45;&gt;Node13 -->
<g id="edge24_Node000013_Node000003" class="edge">
<title>Node3&#45;&gt;Node13</title>
<g id="a_edge24_Node000013_Node000003"><a xlink:title=" ">
<path fill="none" stroke="#9a32cd" stroke-dasharray="5,2" d="M653.95,-427.89C685.1,-395.68 751.5,-327.02 775.51,-302.2"/>
<polygon fill="#9a32cd" stroke="#9a32cd" points="651.65,-425.24 647.21,-434.86 656.68,-430.1 651.65,-425.24"/>
</a>
</g>
<text text-anchor="middle" x="781.91" y="-384.5" font-family="Helvetica,sans-Serif" font-size="10.00" fill="grey"> m_parameterName</text>
<text text-anchor="middle" x="781.91" y="-372.5" font-family="Helvetica,sans-Serif" font-size="10.00" fill="grey">m_tableCategoryName</text>
</g>
<!-- Node4 -->
<g id="Node000004" class="node">
<title>Node4</title>
<g id="a_Node000004"><a xlink:href="../../d3/d0e/class_remotely_activated_item_behaviour.html" target="_top" xlink:title=" ">
<polygon fill="white" stroke="#666666" points="778.28,-88 620.53,-88 620.53,-68 778.28,-68 778.28,-88"/>
<text text-anchor="middle" x="699.41" y="-74.5" font-family="Helvetica,sans-Serif" font-size="10.00">RemotelyActivatedItemBehaviour</text>
</a>
</g>
</g>
<!-- Node4&#45;&gt;Node1 -->
<g id="edge4_Node000001_Node000004" class="edge">
<title>Node4&#45;&gt;Node1</title>
<g id="a_edge4_Node000001_Node000004"><a xlink:title=" ">
<path fill="none" stroke="#9a32cd" stroke-dasharray="5,2" d="M699.41,-56.28C699.41,-44.27 699.41,-29.74 699.41,-20.44"/>
<polygon fill="#9a32cd" stroke="#9a32cd" points="695.91,-56.03 699.41,-66.03 702.91,-56.03 695.91,-56.03"/>
</a>
</g>
<text text-anchor="middle" x="718.91" y="-40.5" font-family="Helvetica,sans-Serif" font-size="10.00" fill="grey"> m_RAIB</text>
</g>
<!-- Node5 -->
<g id="Node000005" class="node">
<title>Node5</title>
<g id="a_Node000005"><a xlink:href="../../df/d09/class_entity_a_i.html" target="_top" xlink:title=" ">
<polygon fill="white" stroke="#666666" points="799.66,-176 749.16,-176 749.16,-156 799.66,-156 799.66,-176"/>
<text text-anchor="middle" x="774.41" y="-162.5" font-family="Helvetica,sans-Serif" font-size="10.00">EntityAI</text>
</a>
</g>
</g>
<!-- Node5&#45;&gt;Node4 -->
<g id="edge5_Node000004_Node000005" class="edge">
<title>Node5&#45;&gt;Node4</title>
<g id="a_edge5_Node000004_Node000005"><a xlink:title=" ">
<path fill="none" stroke="#9a32cd" stroke-dasharray="5,2" d="M759.06,-147.4C743.47,-129.53 719.93,-102.54 707.6,-88.4"/>
<polygon fill="#9a32cd" stroke="#9a32cd" points="756.17,-149.42 765.38,-154.66 761.45,-144.82 756.17,-149.42"/>
</a>
</g>
<text text-anchor="middle" x="774.53" y="-120.5" font-family="Helvetica,sans-Serif" font-size="10.00" fill="grey"> m_PairDevice</text>
<text text-anchor="middle" x="774.53" y="-108.5" font-family="Helvetica,sans-Serif" font-size="10.00" fill="grey">m_Parent</text>
</g>
<!-- Node6&#45;&gt;Node5 -->
<g id="edge6_Node000005_Node000006" class="edge">
<title>Node6&#45;&gt;Node5</title>
<g id="a_edge6_Node000005_Node000006"><a xlink:title=" ">
<path fill="none" stroke="#9a32cd" stroke-dasharray="5,2" d="M336.06,-279.38C354.25,-272.36 378.07,-263.38 399.41,-256 474.62,-229.97 492.41,-219.07 570.16,-202 632.4,-188.34 649.91,-196.46 712.41,-184 724.45,-181.6 737.59,-178.12 748.66,-174.94"/>
<polygon fill="#9a32cd" stroke="#9a32cd" points="335,-276.03 326.94,-282.91 337.53,-282.56 335,-276.03"/>
</a>
</g>
<text text-anchor="middle" x="618.53" y="-228.5" font-family="Helvetica,sans-Serif" font-size="10.00" fill="grey"> m_ContinuousActions</text>
<text text-anchor="middle" x="618.53" y="-216.5" font-family="Helvetica,sans-Serif" font-size="10.00" fill="grey">m_InteractActions</text>
<text text-anchor="middle" x="618.53" y="-204.5" font-family="Helvetica,sans-Serif" font-size="10.00" fill="grey">m_SingleUseActions</text>
</g>
<!-- Node6&#45;&gt;Node6 -->
<g id="edge9_Node000006_Node000006" class="edge">
<title>Node6&#45;&gt;Node6</title>
<g id="a_edge9_Node000006_Node000006"><a xlink:title=" ">
<path fill="none" stroke="#9a32cd" stroke-dasharray="5,2" d="M328.71,-305.49C336.73,-305.78 343.28,-301.29 343.28,-292 343.28,-278.64 329.74,-275.2 317.73,-281.67"/>
<polygon fill="#9a32cd" stroke="#9a32cd" points="329.76,-302.15 319.19,-302.75 327.83,-308.88 329.76,-302.15"/>
</a>
</g>
<text text-anchor="middle" x="364.28" y="-288.5" font-family="Helvetica,sans-Serif" font-size="10.00" fill="grey"> proxyInfo</text>
</g>
<!-- Node6&#45;&gt;Node11 -->
<g id="edge16_Node000011_Node000006" class="edge">
<title>Node6&#45;&gt;Node11</title>
<g id="a_edge16_Node000011_Node000006"><a xlink:title=" ">
<path fill="none" stroke="#9a32cd" stroke-dasharray="5,2" d="M320.88,-272.62C328.11,-262.78 336.53,-250.2 342.41,-238 352.59,-216.84 359.41,-189.88 362.51,-176.06"/>
<polygon fill="#9a32cd" stroke="#9a32cd" points="318.12,-270.47 314.86,-280.55 323.7,-274.7 318.12,-270.47"/>
</a>
</g>
<text text-anchor="middle" x="375.41" y="-216.5" font-family="Helvetica,sans-Serif" font-size="10.00" fill="grey"> proxyInfo</text>
</g>
<!-- Node7 -->
<g id="Node000007" class="node">
<title>Node7</title>
<g id="a_Node000007"><a xlink:href="../../d8/d03/class_object.html" target="_top" xlink:title=" ">
<polygon fill="white" stroke="#666666" points="365.66,-456 321.16,-456 321.16,-436 365.66,-436 365.66,-456"/>
<text text-anchor="middle" x="343.41" y="-442.5" font-family="Helvetica,sans-Serif" font-size="10.00">Object</text>
</a>
</g>
</g>
<!-- Node7&#45;&gt;Node6 -->
<g id="edge7_Node000006_Node000007" class="edge">
<title>Node7&#45;&gt;Node6</title>
<g id="a_edge7_Node000006_Node000007"><a xlink:title=" ">
<path fill="none" stroke="#9a32cd" stroke-dasharray="5,2" d="M323.26,-427.26C320.95,-424.39 318.89,-421.27 317.41,-418 299.27,-378.15 302.83,-323.82 305.2,-302.31"/>
<polygon fill="#9a32cd" stroke="#9a32cd" points="320.65,-429.59 330.08,-434.43 325.72,-424.77 320.65,-429.59"/>
</a>
</g>
<text text-anchor="middle" x="330.91" y="-384.5" font-family="Helvetica,sans-Serif" font-size="10.00" fill="grey"> obj</text>
<text text-anchor="middle" x="330.91" y="-372.5" font-family="Helvetica,sans-Serif" font-size="10.00" fill="grey">parent</text>
</g>
<!-- Node7&#45;&gt;Node11 -->
<g id="edge14_Node000011_Node000007" class="edge">
<title>Node7&#45;&gt;Node11</title>
<g id="a_edge14_Node000011_Node000007"><a xlink:title=" ">
<path fill="none" stroke="#9a32cd" stroke-dasharray="5,2" d="M377.23,-441.97C393.07,-438.65 410.58,-431.86 420.41,-418 444.1,-384.58 417.18,-235.13 400.41,-202 395.21,-191.73 385.8,-182.75 377.9,-176.45"/>
<polygon fill="#9a32cd" stroke="#9a32cd" points="376.9,-438.47 367.61,-443.57 378.05,-445.38 376.9,-438.47"/>
</a>
</g>
<text text-anchor="middle" x="439.91" y="-294.5" font-family="Helvetica,sans-Serif" font-size="10.00" fill="grey"> obj</text>
<text text-anchor="middle" x="439.91" y="-282.5" font-family="Helvetica,sans-Serif" font-size="10.00" fill="grey">parent</text>
</g>
<!-- Node8 -->
<g id="Node000008" class="node">
<title>Node8</title>
<g id="a_Node000008"><a xlink:href="../../db/d06/class_param3.html" target="_top" xlink:title=" ">
<polygon fill="white" stroke="#666666" points="84.28,-456 34.53,-456 34.53,-436 84.28,-436 84.28,-456"/>
<text text-anchor="middle" x="59.41" y="-442.5" font-family="Helvetica,sans-Serif" font-size="10.00">Param3</text>
</a>
</g>
</g>
<!-- Node8&#45;&gt;Node4 -->
<g id="edge28_Node000004_Node000008" class="edge">
<title>Node8&#45;&gt;Node4</title>
<g id="a_edge28_Node000004_Node000008"><a xlink:title=" ">
<path fill="none" stroke="#9a32cd" stroke-dasharray="5,2" d="M47.98,-425.9C22.84,-381.13 -30.81,-268.22 24.16,-202 62.07,-156.33 450.02,-107.24 620.16,-87.72"/>
<polygon fill="#9a32cd" stroke="#9a32cd" points="44.88,-427.53 52.92,-434.43 50.94,-424.02 44.88,-427.53"/>
</a>
</g>
<text text-anchor="middle" x="76.53" y="-228.5" font-family="Helvetica,sans-Serif" font-size="10.00" fill="grey"> m_PairDeviceNetIdHigh</text>
<text text-anchor="middle" x="76.53" y="-216.5" font-family="Helvetica,sans-Serif" font-size="10.00" fill="grey">m_PairDeviceNetIdLow</text>
<text text-anchor="middle" x="76.53" y="-204.5" font-family="Helvetica,sans-Serif" font-size="10.00" fill="grey">m_PersistentPairID</text>
</g>
<!-- Node8&#45;&gt;Node6 -->
<g id="edge8_Node000006_Node000008" class="edge">
<title>Node8&#45;&gt;Node6</title>
<g id="a_edge8_Node000006_Node000008"><a xlink:title=" ">
<path fill="none" stroke="#9a32cd" stroke-dasharray="5,2" d="M68.75,-425.61C81.67,-399.64 105.09,-355.7 120.16,-346 174.47,-311.01 205.14,-353.72 264.41,-328 277.81,-322.18 290.29,-310.7 298.1,-302.47"/>
<polygon fill="#9a32cd" stroke="#9a32cd" points="65.69,-423.9 64.43,-434.42 71.97,-426.98 65.69,-423.9"/>
</a>
</g>
<text text-anchor="middle" x="178.53" y="-408.5" font-family="Helvetica,sans-Serif" font-size="10.00" fill="grey"> NO_SORTING</text>
<text text-anchor="middle" x="178.53" y="-396.5" font-family="Helvetica,sans-Serif" font-size="10.00" fill="grey">geomLevel</text>
<text text-anchor="middle" x="178.53" y="-384.5" font-family="Helvetica,sans-Serif" font-size="10.00" fill="grey">hierLevel</text>
<text text-anchor="start" x="120.41" y="-372.5" font-family="Helvetica,sans-Serif" font-size="10.00" fill="grey">m_CurrentSettingAlternate</text>
<text text-anchor="middle" x="178.53" y="-360.5" font-family="Helvetica,sans-Serif" font-size="10.00" fill="grey">KeyIndex</text>
<text text-anchor="middle" x="178.53" y="-348.5" font-family="Helvetica,sans-Serif" font-size="10.00" fill="grey">m_CurrentSettingKeyIndex</text>
</g>
<!-- Node8&#45;&gt;Node11 -->
<g id="edge15_Node000011_Node000008" class="edge">
<title>Node8&#45;&gt;Node11</title>
<g id="a_edge15_Node000011_Node000008"><a xlink:title=" ">
<path fill="none" stroke="#9a32cd" stroke-dasharray="5,2" d="M58.81,-424.27C58.89,-385.59 64.81,-302.16 111.16,-256 168.61,-198.78 264.96,-178.23 320.79,-170.93"/>
<polygon fill="#9a32cd" stroke="#9a32cd" points="55.31,-424.09 58.94,-434.04 62.31,-424 55.31,-424.09"/>
</a>
</g>
<text text-anchor="middle" x="169.53" y="-318.5" font-family="Helvetica,sans-Serif" font-size="10.00" fill="grey"> NO_SORTING</text>
<text text-anchor="middle" x="169.53" y="-306.5" font-family="Helvetica,sans-Serif" font-size="10.00" fill="grey">geomLevel</text>
<text text-anchor="middle" x="169.53" y="-294.5" font-family="Helvetica,sans-Serif" font-size="10.00" fill="grey">hierLevel</text>
<text text-anchor="start" x="111.41" y="-282.5" font-family="Helvetica,sans-Serif" font-size="10.00" fill="grey">m_CurrentSettingAlternate</text>
<text text-anchor="middle" x="169.53" y="-270.5" font-family="Helvetica,sans-Serif" font-size="10.00" fill="grey">KeyIndex</text>
<text text-anchor="middle" x="169.53" y="-258.5" font-family="Helvetica,sans-Serif" font-size="10.00" fill="grey">m_CurrentSettingKeyIndex</text>
</g>
<!-- Node9 -->
<g id="Node000009" class="node">
<title>Node9</title>
<g id="a_Node000009"><a xlink:href="../../d4/d04/class_class.html" target="_top" xlink:title="Super root of all classes in Enforce script.">
<polygon fill="white" stroke="#666666" points="451.78,-456 411.03,-456 411.03,-436 451.78,-436 451.78,-456"/>
<text text-anchor="middle" x="431.41" y="-442.5" font-family="Helvetica,sans-Serif" font-size="10.00">Class</text>
</a>
</g>
</g>
<!-- Node9&#45;&gt;Node6 -->
<g id="edge10_Node000006_Node000009" class="edge">
<title>Node9&#45;&gt;Node6</title>
<g id="a_edge10_Node000006_Node000009"><a xlink:title=" ">
<path fill="none" stroke="#9a32cd" stroke-dasharray="5,2" d="M416.65,-427.06C389.88,-394.51 334.21,-326.81 313.97,-302.2"/>
<polygon fill="#9a32cd" stroke="#9a32cd" points="413.94,-429.28 423,-434.78 419.35,-424.83 413.94,-429.28"/>
</a>
</g>
<text text-anchor="middle" x="434.03" y="-378.5" font-family="Helvetica,sans-Serif" font-size="10.00" fill="grey"> m_Instance</text>
</g>
<!-- Node9&#45;&gt;Node11 -->
<g id="edge17_Node000011_Node000009" class="edge">
<title>Node9&#45;&gt;Node11</title>
<g id="a_edge17_Node000011_Node000009"><a xlink:title=" ">
<path fill="none" stroke="#9a32cd" stroke-dasharray="5,2" d="M439.75,-425.06C453.19,-390.05 476.27,-315.6 457.41,-256 448.55,-228.02 440.63,-222.26 419.41,-202 408.6,-191.68 394.31,-182.7 383.01,-176.42"/>
<polygon fill="#9a32cd" stroke="#9a32cd" points="436.52,-423.72 436.05,-434.3 443.02,-426.32 436.52,-423.72"/>
</a>
</g>
<text text-anchor="middle" x="491.03" y="-288.5" font-family="Helvetica,sans-Serif" font-size="10.00" fill="grey"> m_Instance</text>
</g>
<!-- Node10 -->
<g id="Node000010" class="node">
<title>Node10</title>
<g id="a_Node000010"><a xlink:href="../../dd/d0a/class_widget.html" target="_top" xlink:title=" ">
<polygon fill="white" stroke="#666666" points="260.78,-456 214.03,-456 214.03,-436 260.78,-436 260.78,-456"/>
<text text-anchor="middle" x="237.41" y="-442.5" font-family="Helvetica,sans-Serif" font-size="10.00">Widget</text>
</a>
</g>
</g>
<!-- Node10&#45;&gt;Node6 -->
<g id="edge12_Node000006_Node000010" class="edge">
<title>Node10&#45;&gt;Node6</title>
<g id="a_edge12_Node000006_Node000010"><a xlink:title=" ">
<path fill="none" stroke="#9a32cd" stroke-dasharray="5,2" d="M239.98,-424.28C243.17,-403.58 249.82,-371.28 262.66,-346 271.41,-328.77 286.6,-312.12 296.58,-302.22"/>
<polygon fill="#9a32cd" stroke="#9a32cd" points="236.54,-423.62 238.63,-434.01 243.48,-424.59 236.54,-423.62"/>
</a>
</g>
<text text-anchor="middle" x="280.78" y="-378.5" font-family="Helvetica,sans-Serif" font-size="10.00" fill="grey"> m_Root</text>
</g>
<!-- Node10&#45;&gt;Node11 -->
<g id="edge19_Node000011_Node000010" class="edge">
<title>Node10&#45;&gt;Node11</title>
<g id="a_edge19_Node000011_Node000010"><a xlink:title=" ">
<path fill="none" stroke="#9a32cd" stroke-dasharray="5,2" d="M234.87,-424.68C231.14,-389.6 226.18,-315.71 241.66,-256 248.37,-230.07 248.45,-219.87 268.41,-202 283.08,-188.87 303.07,-180.54 321.02,-175.32"/>
<polygon fill="#9a32cd" stroke="#9a32cd" points="231.35,-424.71 235.97,-434.24 238.3,-423.91 231.35,-424.71"/>
</a>
</g>
<text text-anchor="middle" x="259.78" y="-288.5" font-family="Helvetica,sans-Serif" font-size="10.00" fill="grey"> m_Root</text>
</g>
<!-- Node11&#45;&gt;Node6 -->
<g id="edge13_Node000006_Node000011" class="edge">
<title>Node11&#45;&gt;Node6</title>
<g id="a_edge13_Node000006_Node000011"><a xlink:title=" ">
<path fill="none" stroke="#9a32cd" stroke-dasharray="5,2" d="M310.07,-178.46C298.02,-183.63 286.69,-191.13 279.41,-202 262.25,-227.62 285.72,-264.55 298.75,-281.66"/>
<polygon fill="#9a32cd" stroke="#9a32cd" points="311.18,-181.78 319.33,-175.02 308.74,-175.22 311.18,-181.78"/>
</a>
</g>
<text text-anchor="middle" x="310.91" y="-216.5" font-family="Helvetica,sans-Serif" font-size="10.00" fill="grey"> m_Subgroups</text>
</g>
<!-- Node11&#45;&gt;Node11 -->
<g id="edge20_Node000011_Node000011" class="edge">
<title>Node11&#45;&gt;Node11</title>
<g id="a_edge20_Node000011_Node000011"><a xlink:title=" ">
<path fill="none" stroke="#9a32cd" stroke-dasharray="5,2" d="M419.04,-172.72C423.14,-171.22 425.66,-168.98 425.66,-166 425.66,-160.84 418.12,-157.9 407.9,-157.18"/>
<polygon fill="#9a32cd" stroke="#9a32cd" points="418.56,-169.25 409.39,-174.54 419.86,-176.13 418.56,-169.25"/>
</a>
</g>
<text text-anchor="middle" x="457.16" y="-162.5" font-family="Helvetica,sans-Serif" font-size="10.00" fill="grey"> m_Subgroups</text>
</g>
<!-- Node12 -->
<g id="Node000012" class="node">
<title>Node12</title>
<g id="a_Node000012"><a xlink:href="../../d4/d03/classfloat.html" target="_top" xlink:title=" ">
<polygon fill="white" stroke="#666666" points="933.41,-302 899.41,-302 899.41,-282 933.41,-282 933.41,-302"/>
<text text-anchor="middle" x="916.41" y="-288.5" font-family="Helvetica,sans-Serif" font-size="10.00">float</text>
</a>
</g>
</g>
<!-- Node12&#45;&gt;Node5 -->
<g id="edge21_Node000005_Node000012" class="edge">
<title>Node12&#45;&gt;Node5</title>
<g id="a_edge21_Node000005_Node000012"><a xlink:title=" ">
<path fill="none" stroke="#9a32cd" stroke-dasharray="5,2" d="M913.22,-270.49C909.05,-250.4 899.86,-220.22 880.41,-202 858.2,-181.2 823.36,-172.75 799.74,-169.32"/>
<polygon fill="#9a32cd" stroke="#9a32cd" points="909.76,-271.05 914.98,-280.27 916.65,-269.81 909.76,-271.05"/>
</a>
</g>
<text text-anchor="middle" x="960.16" y="-222.5" font-family="Helvetica,sans-Serif" font-size="10.00" fill="grey"> SOUND_CONTACT_SKIP</text>
<text text-anchor="middle" x="960.16" y="-210.5" font-family="Helvetica,sans-Serif" font-size="10.00" fill="grey">m_SoundContactTickTime</text>
</g>
<!-- Node12&#45;&gt;Node12 -->
<g id="edge22_Node000012_Node000012" class="edge">
<title>Node12&#45;&gt;Node12</title>
<g id="a_edge22_Node000012_Node000012"><a xlink:title=" ">
<path fill="none" stroke="#9a32cd" stroke-dasharray="5,2" d="M938.09,-305.5C945.47,-305.58 951.41,-301.08 951.41,-292 951.41,-278.64 938.55,-275.2 927.16,-281.67"/>
<polygon fill="#9a32cd" stroke="#9a32cd" points="939.19,-302.17 928.61,-302.75 937.24,-308.9 939.19,-302.17"/>
</a>
</g>
<text text-anchor="middle" x="973.53" y="-300.5" font-family="Helvetica,sans-Serif" font-size="10.00" fill="grey"> LOWEST</text>
<text text-anchor="middle" x="973.53" y="-288.5" font-family="Helvetica,sans-Serif" font-size="10.00" fill="grey">MAX</text>
<text text-anchor="middle" x="973.53" y="-276.5" font-family="Helvetica,sans-Serif" font-size="10.00" fill="grey">MIN</text>
</g>
<!-- Node13&#45;&gt;Node5 -->
<g id="edge23_Node000005_Node000013" class="edge">
<title>Node13&#45;&gt;Node5</title>
<g id="a_edge23_Node000005_Node000013"><a xlink:title=" ">
<path fill="none" stroke="#9a32cd" stroke-dasharray="5,2" d="M782.75,-270.41C780.55,-243.19 776.77,-196.36 775.17,-176.43"/>
<polygon fill="#9a32cd" stroke="#9a32cd" points="779.24,-270.48 783.53,-280.17 786.22,-269.92 779.24,-270.48"/>
</a>
</g>
<text text-anchor="middle" x="827.78" y="-216.5" font-family="Helvetica,sans-Serif" font-size="10.00" fill="grey"> m_SoundImpactTable</text>
</g>
<!-- Node14 -->
<g id="Node000014" class="node">
<title>Node14</title>
<g id="a_Node000014"><a xlink:href="../../d9/d09/classbool.html" target="_top" xlink:title=" ">
<polygon fill="white" stroke="#666666" points="689.41,-302 655.41,-302 655.41,-282 689.41,-282 689.41,-302"/>
<text text-anchor="middle" x="672.41" y="-288.5" font-family="Helvetica,sans-Serif" font-size="10.00">bool</text>
</a>
</g>
</g>
<!-- Node14&#45;&gt;Node4 -->
<g id="edge27_Node000004_Node000014" class="edge">
<title>Node14&#45;&gt;Node4</title>
<g id="a_edge27_Node000004_Node000014"><a xlink:title=" ">
<path fill="none" stroke="#9a32cd" stroke-dasharray="5,2" d="M670.96,-270.23C670.35,-260.45 669.71,-248.63 669.41,-238 668.95,-222.01 667.5,-217.89 669.41,-202 674.6,-158.79 689.71,-108.84 696.28,-88.43"/>
<polygon fill="#9a32cd" stroke="#9a32cd" points="667.46,-270.37 671.61,-280.11 674.44,-269.9 667.46,-270.37"/>
</a>
</g>
<text text-anchor="middle" x="705.03" y="-162.5" font-family="Helvetica,sans-Serif" font-size="10.00" fill="grey"> m_IsTrigger</text>
</g>
<!-- Node14&#45;&gt;Node5 -->
<g id="edge25_Node000005_Node000014" class="edge">
<title>Node14&#45;&gt;Node5</title>
<g id="a_edge25_Node000005_Node000014"><a xlink:title=" ">
<path fill="none" stroke="#9a32cd" stroke-dasharray="5,2" d="M670.57,-270.46C669.94,-250.78 672.08,-221.32 687.66,-202 695.61,-192.14 726.08,-181.3 748.68,-174.34"/>
<polygon fill="#9a32cd" stroke="#9a32cd" points="667.06,-270.49 671.18,-280.25 674.05,-270.05 667.06,-270.49"/>
</a>
</g>
<text text-anchor="middle" x="729.78" y="-222.5" font-family="Helvetica,sans-Serif" font-size="10.00" fill="grey"> m_ActionsInitialize</text>
<text text-anchor="middle" x="729.78" y="-210.5" font-family="Helvetica,sans-Serif" font-size="10.00" fill="grey">m_IsMeleeWeapon</text>
</g>
<!-- Node15 -->
<g id="Node000015" class="node">
<title>Node15</title>
<g id="a_Node000015"><a xlink:href="../../d4/d0d/class_script_invoker.html" target="_top" xlink:title="ScriptInvoker Class provide list of callbacks &#160;&#160;usage:">
<polygon fill="white" stroke="#666666" points="1091.16,-302 1019.66,-302 1019.66,-282 1091.16,-282 1091.16,-302"/>
<text text-anchor="middle" x="1055.41" y="-288.5" font-family="Helvetica,sans-Serif" font-size="10.00">ScriptInvoker</text>
</a>
</g>
</g>
<!-- Node15&#45;&gt;Node5 -->
<g id="edge26_Node000005_Node000015" class="edge">
<title>Node15&#45;&gt;Node5</title>
<g id="a_edge26_Node000005_Node000015"><a xlink:title=" ">
<path fill="none" stroke="#9a32cd" stroke-dasharray="5,2" d="M1053.71,-270.39C1050.84,-249.74 1043.13,-218.69 1022.41,-202 988.54,-174.73 856.22,-168.71 799.95,-167.38"/>
<polygon fill="#9a32cd" stroke="#9a32cd" points="1050.21,-270.62 1054.78,-280.18 1057.17,-269.86 1050.21,-270.62"/>
</a>
</g>
<text text-anchor="middle" x="1112.91" y="-222.5" font-family="Helvetica,sans-Serif" font-size="10.00" fill="grey"> m_OnItemAddedToHands</text>
<text text-anchor="middle" x="1112.91" y="-210.5" font-family="Helvetica,sans-Serif" font-size="10.00" fill="grey">m_OnItemRemovedFromHands</text>
</g>
</g>
</svg>

<g id="navigator" transform="translate(0 0)" fill="#404254">
  <rect fill="#f2f5e9" fill-opacity="0.5" stroke="#606060" stroke-width=".5" x="0" y="0" width="60" height="60"/>
  <use id="zoomplus" xlink:href="#zoomPlus" x="17" y="9" onmousedown="handleZoom(evt,'in')"/>
  <use id="zoomminus" xlink:href="#zoomMin" x="42" y="9" onmousedown="handleZoom(evt,'out')"/>
  <use id="reset" xlink:href="#resetDef" x="30" y="36" onmousedown="handleReset()"/>
   <use id="arrowup" xlink:href="#arrowUp" x="0" y="0" onmousedown="handlePan(0,-1)"/>
  <use id="arrowright" xlink:href="#arrowRight" x="0" y="0" onmousedown="handlePan(1,0)"/>
  <use id="arrowdown" xlink:href="#arrowDown" x="0" y="0" onmousedown="handlePan(0,1)"/>
  <use id="arrowleft" xlink:href="#arrowLeft" x="0" y="0" onmousedown="handlePan(-1,0)"/>
</g>
<svg viewBox="0 0 15 15" width="100%" height="30px" preserveAspectRatio="xMaxYMin meet">
 <g id="arrow_out" transform="scale(0.3 0.3)">
  <a xlink:href="class_claymore_mine__coll__graph_org.svg" target="_base">
   <rect id="button" ry="5" rx="5" y="6" x="6" height="38" width="38"
        fill="#f2f5e9" fill-opacity="0.5" stroke="#606060" stroke-width="1.0"/>
   <path id="arrow"
     d="M 11.500037,31.436501 C 11.940474,20.09759 22.043105,11.32322 32.158766,21.979434 L 37.068811,17.246167 C 37.068811,17.246167 37.088388,32 37.088388,32 L 22.160133,31.978069 C 22.160133,31.978069 26.997745,27.140456 26.997745,27.140456 C 18.528582,18.264221 13.291696,25.230495 11.500037,31.436501 z"
     style="fill:#404040;"/>
  </a>
 </g>
</svg>

<style type='text/css'>
<![CDATA[
[data-mouse-over-selected='false'] { opacity: 0.7; }
[data-mouse-over-selected='true']  { opacity: 1.0; }
]]>
</style>
<script type="application/ecmascript"><![CDATA[
document.addEventListener('DOMContentLoaded', (event) => {
  highlightEdges();
  highlightAdjacentNodes();
});
]]></script>
</svg>
