<?xml version="1.0" encoding="UTF-8" standalone="no"?>
<!DOCTYPE svg PUBLIC "-//W3C//DTD SVG 1.1//EN"
 "http://www.w3.org/Graphics/SVG/1.1/DTD/svg11.dtd">
<!-- Generated by graphviz version 11.0.0 (20240428.1522)
 -->
<!-- Title: Pistol_Base Pages: 1 -->
<svg width="322pt" height="370pt"
 viewBox="0.00 0.00 322.25 370.00" xmlns="http://www.w3.org/2000/svg" xmlns:xlink="http://www.w3.org/1999/xlink">

<svg id="main" version="1.1" xmlns="http://www.w3.org/2000/svg" xmlns:xlink="http://www.w3.org/1999/xlink" xml:space="preserve" onload="init(evt)">
<style type="text/css"><![CDATA[
.node, .edge {opacity: 0.7;}
.node.selected, .edge.selected {opacity: 1;}
.edge:hover path { stroke: red; }
.edge:hover polygon { stroke: red; fill: red; }
]]></style>
<script type="application/ecmascript" xlink:href="../../svg.min.js"/>
<svg id="graph" class="graph">
<g id="graph0" class="graph" transform="scale(1 1) rotate(0) translate(4 366)">
<title>Pistol_Base</title>
<!-- Node1 -->
<g id="Node000001" class="node">
<title>Node1</title>
<g id="a_Node000001"><a xlink:title="base for semi auto weapons @NOTE name copies config base class">
<polygon fill="#999999" stroke="#666666" points="68.5,-191 0,-191 0,-171 68.5,-171 68.5,-191"/>
<text text-anchor="middle" x="34.25" y="-177.5" font-family="Helvetica,sans-Serif" font-size="10.00">Pistol_Base</text>
</a>
</g>
</g>
<!-- Node2 -->
<g id="Node000002" class="node">
<title>Node2</title>
<g id="a_Node000002"><a xlink:href="../../d4/d09/class_c_z75___base.html" target="_top" xlink:title=" ">
<polygon fill="white" stroke="#666666" points="186.12,-362 119.88,-362 119.88,-342 186.12,-342 186.12,-362"/>
<text text-anchor="middle" x="153" y="-348.5" font-family="Helvetica,sans-Serif" font-size="10.00">CZ75_Base</text>
</a>
</g>
</g>
<!-- Node1&#45;&gt;Node2 -->
<g id="edge1_Node000001_Node000002" class="edge">
<title>Node1&#45;&gt;Node2</title>
<g id="a_edge1_Node000001_Node000002"><a xlink:title=" ">
<path fill="none" stroke="#8b1a1a" d="M39.61,-202.27C47.29,-234.66 66.18,-296.43 104.5,-333 108.87,-337.17 114.27,-340.46 119.84,-343.05"/>
<polygon fill="#8b1a1a" stroke="#8b1a1a" points="43.11,-201.89 37.52,-192.89 36.27,-203.41 43.11,-201.89"/>
</a>
</g>
</g>
<!-- Node3 -->
<g id="Node000003" class="node">
<title>Node3</title>
<g id="a_Node000003"><a xlink:href="../../d1/d07/class_colt1911___base.html" target="_top" xlink:title=" ">
<polygon fill="white" stroke="#666666" points="194,-324 112,-324 112,-304 194,-304 194,-324"/>
<text text-anchor="middle" x="153" y="-310.5" font-family="Helvetica,sans-Serif" font-size="10.00">Colt1911_Base</text>
</a>
</g>
</g>
<!-- Node1&#45;&gt;Node3 -->
<g id="edge2_Node000001_Node000003" class="edge">
<title>Node1&#45;&gt;Node3</title>
<g id="a_edge2_Node000001_Node000003"><a xlink:title=" ">
<path fill="none" stroke="#8b1a1a" d="M43.1,-201.92C53.55,-227.18 74.29,-269.42 104.5,-295 108.57,-298.44 113.34,-301.32 118.26,-303.7"/>
<polygon fill="#8b1a1a" stroke="#8b1a1a" points="46.41,-200.76 39.47,-192.75 39.9,-203.33 46.41,-200.76"/>
</a>
</g>
</g>
<!-- Node6 -->
<g id="Node000006" class="node">
<title>Node6</title>
<g id="a_Node000006"><a xlink:href="../../dc/d09/class_deagle___base.html" target="_top" xlink:title=" ">
<polygon fill="white" stroke="#666666" points="189.88,-286 116.12,-286 116.12,-266 189.88,-266 189.88,-286"/>
<text text-anchor="middle" x="153" y="-272.5" font-family="Helvetica,sans-Serif" font-size="10.00">Deagle_Base</text>
</a>
</g>
</g>
<!-- Node1&#45;&gt;Node6 -->
<g id="edge5_Node000001_Node000006" class="edge">
<title>Node1&#45;&gt;Node6</title>
<g id="a_edge5_Node000001_Node000006"><a xlink:title=" ">
<path fill="none" stroke="#8b1a1a" d="M48.97,-200.46C61.71,-217.34 82.06,-241.44 104.5,-257 109.32,-260.34 114.81,-263.22 120.3,-265.66"/>
<polygon fill="#8b1a1a" stroke="#8b1a1a" points="52.01,-198.69 43.28,-192.7 46.36,-202.83 52.01,-198.69"/>
</a>
</g>
</g>
<!-- Node9 -->
<g id="Node000009" class="node">
<title>Node9</title>
<g id="a_Node000009"><a xlink:href="../../de/d01/class_f_n_x45___base.html" target="_top" xlink:title=" ">
<polygon fill="white" stroke="#666666" points="189.12,-248 116.88,-248 116.88,-228 189.12,-228 189.12,-248"/>
<text text-anchor="middle" x="153" y="-234.5" font-family="Helvetica,sans-Serif" font-size="10.00">FNX45_Base</text>
</a>
</g>
</g>
<!-- Node1&#45;&gt;Node9 -->
<g id="edge8_Node000001_Node000009" class="edge">
<title>Node1&#45;&gt;Node9</title>
<g id="a_edge8_Node000001_Node000009"><a xlink:title=" ">
<path fill="none" stroke="#8b1a1a" d="M62.72,-197.08C75.28,-204.16 90.45,-212.37 104.5,-219 110.76,-221.96 117.62,-224.88 124.13,-227.51"/>
<polygon fill="#8b1a1a" stroke="#8b1a1a" points="64.61,-194.12 54.19,-192.2 61.13,-200.2 64.61,-194.12"/>
</a>
</g>
</g>
<!-- Node10 -->
<g id="Node000010" class="node">
<title>Node10</title>
<g id="a_Node000010"><a xlink:href="../../d9/d0a/class_glock19___base.html" target="_top" xlink:title=" ">
<polygon fill="white" stroke="#666666" points="192.88,-210 113.12,-210 113.12,-190 192.88,-190 192.88,-210"/>
<text text-anchor="middle" x="153" y="-196.5" font-family="Helvetica,sans-Serif" font-size="10.00">Glock19_Base</text>
</a>
</g>
</g>
<!-- Node1&#45;&gt;Node10 -->
<g id="edge9_Node000001_Node000010" class="edge">
<title>Node1&#45;&gt;Node10</title>
<g id="a_edge9_Node000001_Node000010"><a xlink:title=" ">
<path fill="none" stroke="#8b1a1a" d="M80.07,-188.29C90.84,-190.05 102.26,-191.91 112.76,-193.61"/>
<polygon fill="#8b1a1a" stroke="#8b1a1a" points="80.63,-184.84 70.2,-186.69 79.51,-191.75 80.63,-184.84"/>
</a>
</g>
</g>
<!-- Node11 -->
<g id="Node000011" class="node">
<title>Node11</title>
<g id="a_Node000011"><a xlink:href="../../d7/d01/class_m_k_i_i___base.html" target="_top" xlink:title=" ">
<polygon fill="white" stroke="#666666" points="184.62,-172 121.38,-172 121.38,-152 184.62,-152 184.62,-172"/>
<text text-anchor="middle" x="153" y="-158.5" font-family="Helvetica,sans-Serif" font-size="10.00">MKII_Base</text>
</a>
</g>
</g>
<!-- Node1&#45;&gt;Node11 -->
<g id="edge10_Node000001_Node000011" class="edge">
<title>Node1&#45;&gt;Node11</title>
<g id="a_edge10_Node000001_Node000011"><a xlink:title=" ">
<path fill="none" stroke="#8b1a1a" d="M79.89,-173.74C93.59,-171.51 108.36,-169.1 120.94,-167.05"/>
<polygon fill="#8b1a1a" stroke="#8b1a1a" points="79.51,-170.25 70.2,-175.31 80.63,-177.16 79.51,-170.25"/>
</a>
</g>
</g>
<!-- Node12 -->
<g id="Node000012" class="node">
<title>Node12</title>
<g id="a_Node000012"><a xlink:href="../../da/d0c/class_makarov_i_j70___base.html" target="_top" xlink:title=" ">
<polygon fill="white" stroke="#666666" points="201.5,-134 104.5,-134 104.5,-114 201.5,-114 201.5,-134"/>
<text text-anchor="middle" x="153" y="-120.5" font-family="Helvetica,sans-Serif" font-size="10.00">MakarovIJ70_Base</text>
</a>
</g>
</g>
<!-- Node1&#45;&gt;Node12 -->
<g id="edge11_Node000001_Node000012" class="edge">
<title>Node1&#45;&gt;Node12</title>
<g id="a_edge11_Node000001_Node000012"><a xlink:title=" ">
<path fill="none" stroke="#8b1a1a" d="M62.72,-164.92C75.28,-157.84 90.45,-149.63 104.5,-143 110.76,-140.04 117.62,-137.12 124.13,-134.49"/>
<polygon fill="#8b1a1a" stroke="#8b1a1a" points="61.13,-161.8 54.19,-169.8 64.61,-167.88 61.13,-161.8"/>
</a>
</g>
</g>
<!-- Node13 -->
<g id="Node000013" class="node">
<title>Node13</title>
<g id="a_Node000013"><a xlink:href="../../d0/d0a/class_p1___base.html" target="_top" xlink:title=" ">
<polygon fill="white" stroke="#666666" points="180.88,-96 125.12,-96 125.12,-76 180.88,-76 180.88,-96"/>
<text text-anchor="middle" x="153" y="-82.5" font-family="Helvetica,sans-Serif" font-size="10.00">P1_Base</text>
</a>
</g>
</g>
<!-- Node1&#45;&gt;Node13 -->
<g id="edge12_Node000001_Node000013" class="edge">
<title>Node1&#45;&gt;Node13</title>
<g id="a_edge12_Node000001_Node000013"><a xlink:title=" ">
<path fill="none" stroke="#8b1a1a" d="M48.97,-161.54C61.71,-144.66 82.06,-120.56 104.5,-105 110.63,-100.75 117.85,-97.24 124.79,-94.45"/>
<polygon fill="#8b1a1a" stroke="#8b1a1a" points="46.36,-159.17 43.28,-169.3 52.01,-163.31 46.36,-159.17"/>
</a>
</g>
</g>
<!-- Node15 -->
<g id="Node000015" class="node">
<title>Node15</title>
<g id="a_Node000015"><a xlink:href="../../d6/d05/class_p_m_m.html" target="_top" xlink:title=" ">
<polygon fill="white" stroke="#666666" points="172.62,-58 133.38,-58 133.38,-38 172.62,-38 172.62,-58"/>
<text text-anchor="middle" x="153" y="-44.5" font-family="Helvetica,sans-Serif" font-size="10.00">PMM</text>
</a>
</g>
</g>
<!-- Node1&#45;&gt;Node15 -->
<g id="edge14_Node000001_Node000015" class="edge">
<title>Node1&#45;&gt;Node15</title>
<g id="a_edge14_Node000001_Node000015"><a xlink:title=" ">
<path fill="none" stroke="#8b1a1a" d="M43.1,-160.08C53.55,-134.82 74.29,-92.58 104.5,-67 112.63,-60.11 123.58,-55.51 132.91,-52.56"/>
<polygon fill="#8b1a1a" stroke="#8b1a1a" points="39.9,-158.67 39.47,-169.25 46.41,-161.24 39.9,-158.67"/>
</a>
</g>
</g>
<!-- Node16 -->
<g id="Node000016" class="node">
<title>Node16</title>
<g id="a_Node000016"><a xlink:href="../../d9/d08/class_red9.html" target="_top" xlink:title=" ">
<polygon fill="white" stroke="#666666" points="172.25,-20 133.75,-20 133.75,0 172.25,0 172.25,-20"/>
<text text-anchor="middle" x="153" y="-6.5" font-family="Helvetica,sans-Serif" font-size="10.00">Red9</text>
</a>
</g>
</g>
<!-- Node1&#45;&gt;Node16 -->
<g id="edge15_Node000001_Node000016" class="edge">
<title>Node1&#45;&gt;Node16</title>
<g id="a_edge15_Node000001_Node000016"><a xlink:title=" ">
<path fill="none" stroke="#8b1a1a" d="M39.61,-159.73C47.29,-127.34 66.18,-65.57 104.5,-29 112.47,-21.4 123.86,-16.7 133.49,-13.88"/>
<polygon fill="#8b1a1a" stroke="#8b1a1a" points="36.27,-158.59 37.52,-169.11 43.11,-160.11 36.27,-158.59"/>
</a>
</g>
</g>
<!-- Node4 -->
<g id="Node000004" class="node">
<title>Node4</title>
<g id="a_Node000004"><a xlink:href="../../dd/d03/class_colt1911.html" target="_top" xlink:title=" ">
<polygon fill="white" stroke="#666666" points="303,-362 248.75,-362 248.75,-342 303,-342 303,-362"/>
<text text-anchor="middle" x="275.88" y="-348.5" font-family="Helvetica,sans-Serif" font-size="10.00">Colt1911</text>
</a>
</g>
</g>
<!-- Node3&#45;&gt;Node4 -->
<g id="edge3_Node000003_Node000004" class="edge">
<title>Node3&#45;&gt;Node4</title>
<g id="a_edge3_Node000003_Node000004"><a xlink:title=" ">
<path fill="none" stroke="#8b1a1a" d="M198.13,-327.87C215.04,-333.19 233.79,-339.08 248.52,-343.72"/>
<polygon fill="#8b1a1a" stroke="#8b1a1a" points="199.38,-324.6 188.79,-324.94 197.28,-331.28 199.38,-324.6"/>
</a>
</g>
</g>
<!-- Node5 -->
<g id="Node000005" class="node">
<title>Node5</title>
<g id="a_Node000005"><a xlink:href="../../d0/d03/class_engraved1911.html" target="_top" xlink:title=" ">
<polygon fill="white" stroke="#666666" points="314.25,-324 237.5,-324 237.5,-304 314.25,-304 314.25,-324"/>
<text text-anchor="middle" x="275.88" y="-310.5" font-family="Helvetica,sans-Serif" font-size="10.00">Engraved1911</text>
</a>
</g>
</g>
<!-- Node3&#45;&gt;Node5 -->
<g id="edge4_Node000003_Node000005" class="edge">
<title>Node3&#45;&gt;Node5</title>
<g id="a_edge4_Node000003_Node000005"><a xlink:title=" ">
<path fill="none" stroke="#8b1a1a" d="M205.58,-314C216.22,-314 227.23,-314 237.25,-314"/>
<polygon fill="#8b1a1a" stroke="#8b1a1a" points="205.76,-310.5 195.76,-314 205.76,-317.5 205.76,-310.5"/>
</a>
</g>
</g>
<!-- Node7 -->
<g id="Node000007" class="node">
<title>Node7</title>
<g id="a_Node000007"><a xlink:href="../../da/d09/class_deagle.html" target="_top" xlink:title=" ">
<polygon fill="white" stroke="#666666" points="298.88,-286 252.88,-286 252.88,-266 298.88,-266 298.88,-286"/>
<text text-anchor="middle" x="275.88" y="-272.5" font-family="Helvetica,sans-Serif" font-size="10.00">Deagle</text>
</a>
</g>
</g>
<!-- Node6&#45;&gt;Node7 -->
<g id="edge6_Node000006_Node000007" class="edge">
<title>Node6&#45;&gt;Node7</title>
<g id="a_edge6_Node000006_Node000007"><a xlink:title=" ">
<path fill="none" stroke="#8b1a1a" d="M201.57,-276C219.2,-276 238.37,-276 252.68,-276"/>
<polygon fill="#8b1a1a" stroke="#8b1a1a" points="201.78,-272.5 191.78,-276 201.78,-279.5 201.78,-272.5"/>
</a>
</g>
</g>
<!-- Node8 -->
<g id="Node000008" class="node">
<title>Node8</title>
<g id="a_Node000008"><a xlink:href="../../d2/d07/class_deagle___gold.html" target="_top" xlink:title=" ">
<polygon fill="white" stroke="#666666" points="311.62,-248 240.12,-248 240.12,-228 311.62,-228 311.62,-248"/>
<text text-anchor="middle" x="275.88" y="-234.5" font-family="Helvetica,sans-Serif" font-size="10.00">Deagle_Gold</text>
</a>
</g>
</g>
<!-- Node6&#45;&gt;Node8 -->
<g id="edge7_Node000006_Node000008" class="edge">
<title>Node6&#45;&gt;Node8</title>
<g id="a_edge7_Node000006_Node000008"><a xlink:title=" ">
<path fill="none" stroke="#8b1a1a" d="M198.04,-262.16C212.43,-257.63 228.17,-252.68 241.63,-248.45"/>
<polygon fill="#8b1a1a" stroke="#8b1a1a" points="197.28,-258.72 188.79,-265.06 199.38,-265.4 197.28,-258.72"/>
</a>
</g>
</g>
<!-- Node14 -->
<g id="Node000014" class="node">
<title>Node14</title>
<g id="a_Node000014"><a xlink:href="../../db/d01/class_p1.html" target="_top" xlink:title=" ">
<polygon fill="white" stroke="#666666" points="290.27,-96 261.48,-96 261.48,-76 290.27,-76 290.27,-96"/>
<text text-anchor="middle" x="275.88" y="-82.5" font-family="Helvetica,sans-Serif" font-size="10.00">P1</text>
</a>
</g>
</g>
<!-- Node13&#45;&gt;Node14 -->
<g id="edge13_Node000013_Node000014" class="edge">
<title>Node13&#45;&gt;Node14</title>
<g id="a_edge13_Node000013_Node000014"><a xlink:title=" ">
<path fill="none" stroke="#8b1a1a" d="M192.54,-86C216.08,-86 244.75,-86 261.3,-86"/>
<polygon fill="#8b1a1a" stroke="#8b1a1a" points="192.64,-82.5 182.64,-86 192.64,-89.5 192.64,-82.5"/>
</a>
</g>
</g>
</g>
</svg>
</svg>

<style type='text/css'>
<![CDATA[
[data-mouse-over-selected='false'] { opacity: 0.7; }
[data-mouse-over-selected='true']  { opacity: 1.0; }
]]>
</style>
<script type="application/ecmascript"><![CDATA[
document.addEventListener('DOMContentLoaded', (event) => {
  highlightEdges();
  highlightAdjacentNodes();
});
]]></script>
</svg>
