<?xml version="1.0" encoding="UTF-8" standalone="no"?>
<!DOCTYPE svg PUBLIC "-//W3C//DTD SVG 1.1//EN"
 "http://www.w3.org/Graphics/SVG/1.1/DTD/svg11.dtd">
<!-- Generated by graphviz version 11.0.0 (20240428.1522)
 -->
<!-- Title: AnimatedActionBase Pages: 1 -->
<svg width="578pt" height="1746pt"
 viewBox="0.00 0.00 578.25 1746.00" xmlns="http://www.w3.org/2000/svg" xmlns:xlink="http://www.w3.org/1999/xlink">
<g id="graph0" class="graph" transform="scale(1 1) rotate(0) translate(4 1742)">
<title>AnimatedActionBase</title>
<!-- Node1 -->
<g id="Node000001" class="node">
<title>Node1</title>
<g id="a_Node000001"><a xlink:title=" ">
<polygon fill="#999999" stroke="#666666" points="209.75,-883 102.25,-883 102.25,-863 209.75,-863 209.75,-883"/>
<text text-anchor="middle" x="156" y="-869.5" font-family="Helvetica,sans-Serif" font-size="10.00">AnimatedActionBase</text>
</a>
</g>
</g>
<!-- Node3 -->
<g id="Node000003" class="node">
<title>Node3</title>
<g id="a_Node000003"><a xlink:href="../../d6/d0f/class_action_continuous_base.html" target="_top" xlink:title=" ">
<polygon fill="#fff0f0" stroke="red" points="360.75,-921 245.75,-921 245.75,-901 360.75,-901 360.75,-921"/>
<text text-anchor="middle" x="303.25" y="-907.5" font-family="Helvetica,sans-Serif" font-size="10.00">ActionContinuousBase</text>
</a>
</g>
</g>
<!-- Node1&#45;&gt;Node3 -->
<g id="edge2_Node000001_Node000003" class="edge">
<title>Node1&#45;&gt;Node3</title>
<g id="a_edge2_Node000001_Node000003"><a xlink:title=" ">
<path fill="none" stroke="#8b1a1a" d="M208.14,-886.38C225.91,-891.03 245.57,-896.17 262.31,-900.55"/>
<polygon fill="#8b1a1a" stroke="#8b1a1a" points="209.1,-883.01 198.54,-883.87 207.33,-889.78 209.1,-883.01"/>
</a>
</g>
</g>
<!-- Node151 -->
<g id="Node000151" class="node">
<title>Node151</title>
<g id="a_Node000151"><a xlink:href="../../d0/d0b/class_action_interact_base.html" target="_top" xlink:title=" ">
<polygon fill="#fff0f0" stroke="red" points="352.5,-883 254,-883 254,-863 352.5,-863 352.5,-883"/>
<text text-anchor="middle" x="303.25" y="-869.5" font-family="Helvetica,sans-Serif" font-size="10.00">ActionInteractBase</text>
</a>
</g>
</g>
<!-- Node1&#45;&gt;Node151 -->
<g id="edge47_Node000001_Node000151" class="edge">
<title>Node1&#45;&gt;Node151</title>
<g id="a_edge47_Node000001_Node000151"><a xlink:title=" ">
<path fill="none" stroke="#8b1a1a" d="M221.07,-873C231.97,-873 243.12,-873 253.54,-873"/>
<polygon fill="#8b1a1a" stroke="#8b1a1a" points="221.36,-869.5 211.36,-873 221.36,-876.5 221.36,-869.5"/>
</a>
</g>
</g>
<!-- Node211 -->
<g id="Node000211" class="node">
<title>Node211</title>
<g id="a_Node000211"><a xlink:href="../../d1/d01/class_action_single_use_base.html" target="_top" xlink:title=" ">
<polygon fill="#fff0f0" stroke="red" points="358.5,-845 248,-845 248,-825 358.5,-825 358.5,-845"/>
<text text-anchor="middle" x="303.25" y="-831.5" font-family="Helvetica,sans-Serif" font-size="10.00">ActionSingleUseBase</text>
</a>
</g>
</g>
<!-- Node1&#45;&gt;Node211 -->
<g id="edge48_Node000001_Node000211" class="edge">
<title>Node1&#45;&gt;Node211</title>
<g id="a_edge48_Node000001_Node000211"><a xlink:title=" ">
<path fill="none" stroke="#8b1a1a" d="M208.14,-859.62C225.91,-854.97 245.57,-849.83 262.31,-845.45"/>
<polygon fill="#8b1a1a" stroke="#8b1a1a" points="207.33,-856.22 198.54,-862.13 209.1,-862.99 207.33,-856.22"/>
</a>
</g>
</g>
<!-- Node2 -->
<g id="Node000002" class="node">
<title>Node2</title>
<g id="a_Node000002"><a xlink:title=" ">
<polygon fill="white" stroke="#666666" points="66.25,-883 0,-883 0,-863 66.25,-863 66.25,-883"/>
<text text-anchor="middle" x="33.12" y="-869.5" font-family="Helvetica,sans-Serif" font-size="10.00">ActionBase</text>
</a>
</g>
</g>
<!-- Node2&#45;&gt;Node1 -->
<g id="edge1_Node000001_Node000002" class="edge">
<title>Node2&#45;&gt;Node1</title>
<g id="a_edge1_Node000001_Node000002"><a xlink:title=" ">
<path fill="none" stroke="#8b1a1a" d="M77.97,-873C85.76,-873 93.96,-873 101.98,-873"/>
<polygon fill="#8b1a1a" stroke="#8b1a1a" points="78.03,-869.5 68.03,-873 78.03,-876.5 78.03,-869.5"/>
</a>
</g>
</g>
<!-- Node4 -->
<g id="Node000004" class="node">
<title>Node4</title>
<g id="a_Node000004"><a xlink:href="../../dc/d0d/class_action_bandage_base.html" target="_top" xlink:title=" ">
<polygon fill="white" stroke="#666666" points="535.75,-1738 431.25,-1738 431.25,-1718 535.75,-1718 535.75,-1738"/>
<text text-anchor="middle" x="483.5" y="-1724.5" font-family="Helvetica,sans-Serif" font-size="10.00">ActionBandageBase</text>
</a>
</g>
</g>
<!-- Node3&#45;&gt;Node4 -->
<g id="edge3_Node000003_Node000004" class="edge">
<title>Node3&#45;&gt;Node4</title>
<g id="a_edge3_Node000003_Node000004"><a xlink:title=" ">
<path fill="none" stroke="#8b1a1a" d="M305.28,-932.76C311.27,-1054.67 343.11,-1649.55 396.75,-1709 405.53,-1718.74 418.09,-1724.08 430.9,-1726.87"/>
<polygon fill="#8b1a1a" stroke="#8b1a1a" points="308.79,-932.7 304.81,-922.88 301.79,-933.04 308.79,-932.7"/>
</a>
</g>
</g>
<!-- Node5 -->
<g id="Node000005" class="node">
<title>Node5</title>
<g id="a_Node000005"><a xlink:href="../../dc/d09/class_action_break_long_wooden_stick.html" target="_top" xlink:title=" ">
<polygon fill="white" stroke="#666666" points="557.88,-1700 409.12,-1700 409.12,-1680 557.88,-1680 557.88,-1700"/>
<text text-anchor="middle" x="483.5" y="-1686.5" font-family="Helvetica,sans-Serif" font-size="10.00">ActionBreakLongWoodenStick</text>
</a>
</g>
</g>
<!-- Node3&#45;&gt;Node5 -->
<g id="edge4_Node000003_Node000005" class="edge">
<title>Node3&#45;&gt;Node5</title>
<g id="a_edge4_Node000003_Node000005"><a xlink:title=" ">
<path fill="none" stroke="#8b1a1a" d="M305.42,-932.82C311.97,-1051.37 345.63,-1614.67 396.75,-1671 400.23,-1674.84 404.31,-1677.99 408.75,-1680.58"/>
<polygon fill="#8b1a1a" stroke="#8b1a1a" points="308.92,-932.72 304.88,-922.93 301.93,-933.1 308.92,-932.72"/>
</a>
</g>
</g>
<!-- Node6 -->
<g id="Node000006" class="node">
<title>Node6</title>
<g id="a_Node000006"><a xlink:href="../../d3/d05/class_action_build_part.html" target="_top" xlink:title=" ">
<polygon fill="white" stroke="#666666" points="525.25,-1662 441.75,-1662 441.75,-1642 525.25,-1642 525.25,-1662"/>
<text text-anchor="middle" x="483.5" y="-1648.5" font-family="Helvetica,sans-Serif" font-size="10.00">ActionBuildPart</text>
</a>
</g>
</g>
<!-- Node3&#45;&gt;Node6 -->
<g id="edge5_Node000003_Node000006" class="edge">
<title>Node3&#45;&gt;Node6</title>
<g id="a_edge5_Node000003_Node000006"><a xlink:title=" ">
<path fill="none" stroke="#8b1a1a" d="M303.82,-932.24C302.11,-1040.2 299.92,-1526.97 396.75,-1633 408.06,-1645.39 425.48,-1650.64 441.68,-1652.59"/>
<polygon fill="#8b1a1a" stroke="#8b1a1a" points="307.32,-932.58 304,-922.52 300.32,-932.46 307.32,-932.58"/>
</a>
</g>
</g>
<!-- Node7 -->
<g id="Node000007" class="node">
<title>Node7</title>
<g id="a_Node000007"><a xlink:href="../../db/d01/class_action_build_shelter.html" target="_top" xlink:title=" ">
<polygon fill="white" stroke="#666666" points="531.62,-1624 435.38,-1624 435.38,-1604 531.62,-1604 531.62,-1624"/>
<text text-anchor="middle" x="483.5" y="-1610.5" font-family="Helvetica,sans-Serif" font-size="10.00">ActionBuildShelter</text>
</a>
</g>
</g>
<!-- Node3&#45;&gt;Node7 -->
<g id="edge6_Node000003_Node000007" class="edge">
<title>Node3&#45;&gt;Node7</title>
<g id="a_edge6_Node000003_Node000007"><a xlink:title=" ">
<path fill="none" stroke="#8b1a1a" d="M303.99,-932.77C303.17,-1038.27 305.06,-1495.3 396.75,-1595 406.56,-1605.66 420.89,-1611.03 435.05,-1613.56"/>
<polygon fill="#8b1a1a" stroke="#8b1a1a" points="307.49,-933 304.08,-922.97 300.49,-932.94 307.49,-933"/>
</a>
</g>
</g>
<!-- Node8 -->
<g id="Node000008" class="node">
<title>Node8</title>
<g id="a_Node000008"><a xlink:href="../../df/d06/class_action_burn_sew_self.html" target="_top" xlink:title=" ">
<polygon fill="white" stroke="#666666" points="533.12,-1586 433.88,-1586 433.88,-1566 533.12,-1566 533.12,-1586"/>
<text text-anchor="middle" x="483.5" y="-1572.5" font-family="Helvetica,sans-Serif" font-size="10.00">ActionBurnSewSelf</text>
</a>
</g>
</g>
<!-- Node3&#45;&gt;Node8 -->
<g id="edge7_Node000003_Node000008" class="edge">
<title>Node3&#45;&gt;Node8</title>
<g id="a_edge7_Node000003_Node000008"><a xlink:title=" ">
<path fill="none" stroke="#8b1a1a" d="M304.18,-932.83C304.3,-1034.84 310.05,-1463.47 396.75,-1557 406.29,-1567.29 420.04,-1572.64 433.76,-1575.26"/>
<polygon fill="#8b1a1a" stroke="#8b1a1a" points="307.68,-932.87 304.19,-922.87 300.68,-932.87 307.68,-932.87"/>
</a>
</g>
</g>
<!-- Node9 -->
<g id="Node000009" class="node">
<title>Node9</title>
<g id="a_Node000009"><a xlink:href="../../d8/d0a/class_action_burn_sew_target.html" target="_top" xlink:title=" ">
<polygon fill="white" stroke="#666666" points="538.38,-1548 428.62,-1548 428.62,-1528 538.38,-1528 538.38,-1548"/>
<text text-anchor="middle" x="483.5" y="-1534.5" font-family="Helvetica,sans-Serif" font-size="10.00">ActionBurnSewTarget</text>
</a>
</g>
</g>
<!-- Node3&#45;&gt;Node9 -->
<g id="edge8_Node000003_Node000009" class="edge">
<title>Node3&#45;&gt;Node9</title>
<g id="a_edge8_Node000003_Node000009"><a xlink:title=" ">
<path fill="none" stroke="#8b1a1a" d="M304.39,-932.47C305.48,-1030.15 314.92,-1431.49 396.75,-1519 405.08,-1527.91 416.58,-1533.11 428.45,-1536.04"/>
<polygon fill="#8b1a1a" stroke="#8b1a1a" points="307.89,-932.69 304.3,-922.72 300.89,-932.75 307.89,-932.69"/>
</a>
</g>
</g>
<!-- Node10 -->
<g id="Node000010" class="node">
<title>Node10</title>
<g id="a_Node000010"><a xlink:href="../../db/d05/class_action_bury_body.html" target="_top" xlink:title=" ">
<polygon fill="white" stroke="#666666" points="526.75,-1510 440.25,-1510 440.25,-1490 526.75,-1490 526.75,-1510"/>
<text text-anchor="middle" x="483.5" y="-1496.5" font-family="Helvetica,sans-Serif" font-size="10.00">ActionBuryBody</text>
</a>
</g>
</g>
<!-- Node3&#45;&gt;Node10 -->
<g id="edge9_Node000003_Node000010" class="edge">
<title>Node3&#45;&gt;Node10</title>
<g id="a_edge9_Node000003_Node000010"><a xlink:title=" ">
<path fill="none" stroke="#8b1a1a" d="M304.64,-932.91C306.77,-1027.49 320,-1399.73 396.75,-1481 407.85,-1492.75 424.46,-1498.03 440.11,-1500.18"/>
<polygon fill="#8b1a1a" stroke="#8b1a1a" points="308.14,-932.9 304.44,-922.98 301.14,-933.05 308.14,-932.9"/>
</a>
</g>
</g>
<!-- Node11 -->
<g id="Node000011" class="node">
<title>Node11</title>
<g id="a_Node000011"><a xlink:href="../../d8/d04/class_action_c_p_r.html" target="_top" xlink:title=" ">
<polygon fill="white" stroke="#666666" points="515.5,-1472 451.5,-1472 451.5,-1452 515.5,-1452 515.5,-1472"/>
<text text-anchor="middle" x="483.5" y="-1458.5" font-family="Helvetica,sans-Serif" font-size="10.00">ActionCPR</text>
</a>
</g>
</g>
<!-- Node3&#45;&gt;Node11 -->
<g id="edge10_Node000003_Node000011" class="edge">
<title>Node3&#45;&gt;Node11</title>
<g id="a_edge10_Node000003_Node000011"><a xlink:title=" ">
<path fill="none" stroke="#8b1a1a" d="M304.9,-932.58C308.09,-1022.7 324.85,-1367.72 396.75,-1443 410.55,-1457.44 432.68,-1462.08 451,-1463.17"/>
<polygon fill="#8b1a1a" stroke="#8b1a1a" points="308.41,-932.59 304.58,-922.71 301.41,-932.82 308.41,-932.59"/>
</a>
</g>
</g>
<!-- Node12 -->
<g id="Node000012" class="node">
<title>Node12</title>
<g id="a_Node000012"><a xlink:href="../../d0/d0f/class_action_car_horn_long.html" target="_top" xlink:title=" ">
<polygon fill="white" stroke="#666666" points="533.5,-1434 433.5,-1434 433.5,-1414 533.5,-1414 533.5,-1434"/>
<text text-anchor="middle" x="483.5" y="-1420.5" font-family="Helvetica,sans-Serif" font-size="10.00">ActionCarHornLong</text>
</a>
</g>
</g>
<!-- Node3&#45;&gt;Node12 -->
<g id="edge11_Node000003_Node000012" class="edge">
<title>Node3&#45;&gt;Node12</title>
<g id="a_edge11_Node000003_Node000012"><a xlink:title=" ">
<path fill="none" stroke="#8b1a1a" d="M305.22,-932.67C309.54,-1018.84 329.81,-1335.81 396.75,-1405 406.29,-1414.86 419.72,-1420.14 433.13,-1422.83"/>
<polygon fill="#8b1a1a" stroke="#8b1a1a" points="308.73,-932.63 304.75,-922.81 301.73,-932.96 308.73,-932.63"/>
</a>
</g>
</g>
<!-- Node13 -->
<g id="Node000013" class="node">
<title>Node13</title>
<g id="a_Node000013"><a xlink:href="../../dd/d0e/class_action_check_pulse_target.html" target="_top" xlink:title=" ">
<polygon fill="white" stroke="#666666" points="545.12,-1396 421.88,-1396 421.88,-1376 545.12,-1376 545.12,-1396"/>
<text text-anchor="middle" x="483.5" y="-1382.5" font-family="Helvetica,sans-Serif" font-size="10.00">ActionCheckPulseTarget</text>
</a>
</g>
</g>
<!-- Node3&#45;&gt;Node13 -->
<g id="edge12_Node000003_Node000013" class="edge">
<title>Node3&#45;&gt;Node13</title>
<g id="a_edge12_Node000003_Node000013"><a xlink:title=" ">
<path fill="none" stroke="#8b1a1a" d="M305.58,-932.57C311.08,-1014.33 334.69,-1303.82 396.75,-1367 403.59,-1373.96 412.37,-1378.63 421.69,-1381.72"/>
<polygon fill="#8b1a1a" stroke="#8b1a1a" points="309.09,-932.56 304.95,-922.8 302.1,-933.01 309.09,-932.56"/>
</a>
</g>
</g>
<!-- Node14 -->
<g id="Node000014" class="node">
<title>Node14</title>
<g id="a_Node000014"><a xlink:href="../../dc/d0b/class_action_collect_blood_self.html" target="_top" xlink:title=" ">
<polygon fill="white" stroke="#666666" points="541,-1358 426,-1358 426,-1338 541,-1338 541,-1358"/>
<text text-anchor="middle" x="483.5" y="-1344.5" font-family="Helvetica,sans-Serif" font-size="10.00">ActionCollectBloodSelf</text>
</a>
</g>
</g>
<!-- Node3&#45;&gt;Node14 -->
<g id="edge13_Node000003_Node000014" class="edge">
<title>Node3&#45;&gt;Node14</title>
<g id="a_edge13_Node000003_Node000014"><a xlink:title=" ">
<path fill="none" stroke="#8b1a1a" d="M305.99,-932.25C312.7,-1009.19 339.51,-1271.74 396.75,-1329 404.62,-1336.87 414.97,-1341.8 425.76,-1344.82"/>
<polygon fill="#8b1a1a" stroke="#8b1a1a" points="309.51,-932.37 305.18,-922.7 302.53,-932.96 309.51,-932.37"/>
</a>
</g>
</g>
<!-- Node15 -->
<g id="Node000015" class="node">
<title>Node15</title>
<g id="a_Node000015"><a xlink:href="../../d6/d0e/class_action_collect_blood_target.html" target="_top" xlink:title=" ">
<polygon fill="white" stroke="#666666" points="546.25,-1320 420.75,-1320 420.75,-1300 546.25,-1300 546.25,-1320"/>
<text text-anchor="middle" x="483.5" y="-1306.5" font-family="Helvetica,sans-Serif" font-size="10.00">ActionCollectBloodTarget</text>
</a>
</g>
</g>
<!-- Node3&#45;&gt;Node15 -->
<g id="edge14_Node000003_Node000015" class="edge">
<title>Node3&#45;&gt;Node15</title>
<g id="a_edge14_Node000003_Node000015"><a xlink:title=" ">
<path fill="none" stroke="#8b1a1a" d="M306.53,-932.62C314.65,-1005.4 344.47,-1239.79 396.75,-1291 403.39,-1297.51 411.74,-1301.99 420.6,-1305.05"/>
<polygon fill="#8b1a1a" stroke="#8b1a1a" points="310.03,-932.4 305.47,-922.84 303.07,-933.16 310.03,-932.4"/>
</a>
</g>
</g>
<!-- Node16 -->
<g id="Node000016" class="node">
<title>Node16</title>
<g id="a_Node000016"><a xlink:href="../../d6/d0a/class_action_collect_sample_self.html" target="_top" xlink:title=" ">
<polygon fill="white" stroke="#666666" points="545.12,-1282 421.88,-1282 421.88,-1262 545.12,-1262 545.12,-1282"/>
<text text-anchor="middle" x="483.5" y="-1268.5" font-family="Helvetica,sans-Serif" font-size="10.00">ActionCollectSampleSelf</text>
</a>
</g>
</g>
<!-- Node3&#45;&gt;Node16 -->
<g id="edge15_Node000003_Node000016" class="edge">
<title>Node3&#45;&gt;Node16</title>
<g id="a_edge15_Node000003_Node000016"><a xlink:title=" ">
<path fill="none" stroke="#8b1a1a" d="M307.16,-932.63C316.72,-1000.55 349.32,-1207.71 396.75,-1253 403.7,-1259.63 412.42,-1264.15 421.62,-1267.2"/>
<polygon fill="#8b1a1a" stroke="#8b1a1a" points="310.64,-932.24 305.81,-922.82 303.7,-933.2 310.64,-932.24"/>
</a>
</g>
</g>
<!-- Node17 -->
<g id="Node000017" class="node">
<title>Node17</title>
<g id="a_Node000017"><a xlink:href="../../dc/d05/class_action_collect_sample_target.html" target="_top" xlink:title=" ">
<polygon fill="white" stroke="#666666" points="550.38,-1244 416.62,-1244 416.62,-1224 550.38,-1224 550.38,-1244"/>
<text text-anchor="middle" x="483.5" y="-1230.5" font-family="Helvetica,sans-Serif" font-size="10.00">ActionCollectSampleTarget</text>
</a>
</g>
</g>
<!-- Node3&#45;&gt;Node17 -->
<g id="edge16_Node000003_Node000017" class="edge">
<title>Node3&#45;&gt;Node17</title>
<g id="a_edge16_Node000003_Node000017"><a xlink:title=" ">
<path fill="none" stroke="#8b1a1a" d="M303.91,-932.46C304.28,-988.06 313.36,-1137.82 396.75,-1215 402.35,-1220.18 409.03,-1224.06 416.15,-1226.95"/>
<polygon fill="#8b1a1a" stroke="#8b1a1a" points="307.41,-932.79 303.95,-922.77 300.41,-932.76 307.41,-932.79"/>
</a>
</g>
</g>
<!-- Node18 -->
<g id="Node000018" class="node">
<title>Node18</title>
<g id="a_Node000018"><a xlink:href="../../db/d09/class_action_consume.html" target="_top" xlink:title=" ">
<polygon fill="#fff0f0" stroke="red" points="526,-1206 441,-1206 441,-1186 526,-1186 526,-1206"/>
<text text-anchor="middle" x="483.5" y="-1192.5" font-family="Helvetica,sans-Serif" font-size="10.00">ActionConsume</text>
</a>
</g>
</g>
<!-- Node3&#45;&gt;Node18 -->
<g id="edge17_Node000003_Node000018" class="edge">
<title>Node3&#45;&gt;Node18</title>
<g id="a_edge17_Node000003_Node000018"><a xlink:title=" ">
<path fill="none" stroke="#8b1a1a" d="M305.01,-932.81C308.04,-983.79 322.99,-1111.38 396.75,-1177 408.71,-1187.64 425.29,-1192.75 440.68,-1195.07"/>
<polygon fill="#8b1a1a" stroke="#8b1a1a" points="308.51,-932.66 304.54,-922.84 301.52,-933 308.51,-932.66"/>
</a>
</g>
</g>
<!-- Node37 -->
<g id="Node000037" class="node">
<title>Node37</title>
<g id="a_Node000037"><a xlink:href="../../da/d08/class_action_cook_on_stick.html" target="_top" xlink:title=" ">
<polygon fill="white" stroke="#666666" points="534.25,-1168 432.75,-1168 432.75,-1148 534.25,-1148 534.25,-1168"/>
<text text-anchor="middle" x="483.5" y="-1154.5" font-family="Helvetica,sans-Serif" font-size="10.00">ActionCookOnStick</text>
</a>
</g>
</g>
<!-- Node3&#45;&gt;Node37 -->
<g id="edge18_Node000003_Node000037" class="edge">
<title>Node3&#45;&gt;Node37</title>
<g id="a_edge18_Node000003_Node000037"><a xlink:title=" ">
<path fill="none" stroke="#8b1a1a" d="M306.4,-932.45C312.16,-977.95 332.18,-1084.42 396.75,-1139 406.77,-1147.47 419.73,-1152.39 432.53,-1155.19"/>
<polygon fill="#8b1a1a" stroke="#8b1a1a" points="309.89,-932.14 305.28,-922.6 302.93,-932.93 309.89,-932.14"/>
</a>
</g>
</g>
<!-- Node38 -->
<g id="Node000038" class="node">
<title>Node38</title>
<g id="a_Node000038"><a xlink:href="../../dd/d0e/class_action_cover_head_self.html" target="_top" xlink:title=" ">
<polygon fill="white" stroke="#666666" points="536.88,-1130 430.12,-1130 430.12,-1110 536.88,-1110 536.88,-1130"/>
<text text-anchor="middle" x="483.5" y="-1116.5" font-family="Helvetica,sans-Serif" font-size="10.00">ActionCoverHeadSelf</text>
</a>
</g>
</g>
<!-- Node3&#45;&gt;Node38 -->
<g id="edge19_Node000003_Node000038" class="edge">
<title>Node3&#45;&gt;Node38</title>
<g id="a_edge19_Node000003_Node000038"><a xlink:title=" ">
<path fill="none" stroke="#8b1a1a" d="M308.31,-932.38C317.02,-972.14 341.39,-1057.33 396.75,-1101 406.21,-1108.46 417.99,-1113.13 429.77,-1116.01"/>
<polygon fill="#8b1a1a" stroke="#8b1a1a" points="311.75,-931.76 306.31,-922.67 304.89,-933.17 311.75,-931.76"/>
</a>
</g>
</g>
<!-- Node39 -->
<g id="Node000039" class="node">
<title>Node39</title>
<g id="a_Node000039"><a xlink:href="../../da/d00/class_action_cover_head_target.html" target="_top" xlink:title=" ">
<polygon fill="white" stroke="#666666" points="542.12,-1092 424.88,-1092 424.88,-1072 542.12,-1072 542.12,-1092"/>
<text text-anchor="middle" x="483.5" y="-1078.5" font-family="Helvetica,sans-Serif" font-size="10.00">ActionCoverHeadTarget</text>
</a>
</g>
</g>
<!-- Node3&#45;&gt;Node39 -->
<g id="edge20_Node000003_Node000039" class="edge">
<title>Node3&#45;&gt;Node39</title>
<g id="a_edge20_Node000003_Node000039"><a xlink:title=" ">
<path fill="none" stroke="#8b1a1a" d="M311.05,-932.26C322.86,-965.62 350.43,-1029.86 396.75,-1063 404.93,-1068.86 414.6,-1072.96 424.43,-1075.82"/>
<polygon fill="#8b1a1a" stroke="#8b1a1a" points="314.41,-931.27 307.89,-922.92 307.77,-933.51 314.41,-931.27"/>
</a>
</g>
</g>
<!-- Node40 -->
<g id="Node000040" class="node">
<title>Node40</title>
<g id="a_Node000040"><a xlink:href="../../d7/d09/class_action_craft.html" target="_top" xlink:title=" ">
<polygon fill="white" stroke="#666666" points="515.5,-1054 451.5,-1054 451.5,-1034 515.5,-1034 515.5,-1054"/>
<text text-anchor="middle" x="483.5" y="-1040.5" font-family="Helvetica,sans-Serif" font-size="10.00">ActionCraft</text>
</a>
</g>
</g>
<!-- Node3&#45;&gt;Node40 -->
<g id="edge21_Node000003_Node000040" class="edge">
<title>Node3&#45;&gt;Node40</title>
<g id="a_edge21_Node000003_Node000040"><a xlink:title=" ">
<path fill="none" stroke="#8b1a1a" d="M315,-931.36C329.81,-957.33 359,-1001.67 396.75,-1025 413.09,-1035.1 434.12,-1039.86 451.26,-1042.09"/>
<polygon fill="#8b1a1a" stroke="#8b1a1a" points="318.17,-929.87 310.28,-922.8 312.04,-933.25 318.17,-929.87"/>
</a>
</g>
</g>
<!-- Node41 -->
<g id="Node000041" class="node">
<title>Node41</title>
<g id="a_Node000041"><a xlink:href="../../de/d0f/class_action_craft_bolts.html" target="_top" xlink:title=" ">
<polygon fill="white" stroke="#666666" points="526.75,-1016 440.25,-1016 440.25,-996 526.75,-996 526.75,-1016"/>
<text text-anchor="middle" x="483.5" y="-1002.5" font-family="Helvetica,sans-Serif" font-size="10.00">ActionCraftBolts</text>
</a>
</g>
</g>
<!-- Node3&#45;&gt;Node41 -->
<g id="edge22_Node000003_Node000041" class="edge">
<title>Node3&#45;&gt;Node41</title>
<g id="a_edge22_Node000003_Node000041"><a xlink:title=" ">
<path fill="none" stroke="#8b1a1a" d="M321.23,-929.24C338.55,-946.73 367.04,-972.54 396.75,-987 410.19,-993.54 425.9,-997.86 440.18,-1000.69"/>
<polygon fill="#8b1a1a" stroke="#8b1a1a" points="324.19,-927.26 314.72,-922.5 319.15,-932.13 324.19,-927.26"/>
</a>
</g>
</g>
<!-- Node42 -->
<g id="Node000042" class="node">
<title>Node42</title>
<g id="a_Node000042"><a xlink:href="../../d1/d02/class_action_craft_bolts_feather.html" target="_top" xlink:title=" ">
<polygon fill="white" stroke="#666666" points="543.25,-978 423.75,-978 423.75,-958 543.25,-958 543.25,-978"/>
<text text-anchor="middle" x="483.5" y="-964.5" font-family="Helvetica,sans-Serif" font-size="10.00">ActionCraftBoltsFeather</text>
</a>
</g>
</g>
<!-- Node3&#45;&gt;Node42 -->
<g id="edge23_Node000003_Node000042" class="edge">
<title>Node3&#45;&gt;Node42</title>
<g id="a_edge23_Node000003_Node000042"><a xlink:title=" ">
<path fill="none" stroke="#8b1a1a" d="M336.9,-926.02C354.38,-933.65 376.45,-942.63 396.75,-949 406.93,-952.19 417.96,-955.06 428.61,-957.54"/>
<polygon fill="#8b1a1a" stroke="#8b1a1a" points="338.6,-922.95 328.04,-922.09 335.76,-929.35 338.6,-922.95"/>
</a>
</g>
</g>
<!-- Node43 -->
<g id="Node000043" class="node">
<title>Node43</title>
<g id="a_Node000043"><a xlink:href="../../d0/d04/class_action_craft_bone_knife.html" target="_top" xlink:title=" ">
<polygon fill="white" stroke="#666666" points="537.62,-940 429.38,-940 429.38,-920 537.62,-920 537.62,-940"/>
<text text-anchor="middle" x="483.5" y="-926.5" font-family="Helvetica,sans-Serif" font-size="10.00">ActionCraftBoneKnife</text>
</a>
</g>
</g>
<!-- Node3&#45;&gt;Node43 -->
<g id="edge24_Node000003_Node000043" class="edge">
<title>Node3&#45;&gt;Node43</title>
<g id="a_edge24_Node000003_Node000043"><a xlink:title=" ">
<path fill="none" stroke="#8b1a1a" d="M372.56,-918.28C391.22,-920.27 411.17,-922.4 428.88,-924.28"/>
<polygon fill="#8b1a1a" stroke="#8b1a1a" points="372.96,-914.8 362.64,-917.22 372.22,-921.76 372.96,-914.8"/>
</a>
</g>
</g>
<!-- Node44 -->
<g id="Node000044" class="node">
<title>Node44</title>
<g id="a_Node000044"><a xlink:href="../../d0/d0a/class_action_craft_bone_knife_env.html" target="_top" xlink:title=" ">
<polygon fill="white" stroke="#666666" points="545.5,-902 421.5,-902 421.5,-882 545.5,-882 545.5,-902"/>
<text text-anchor="middle" x="483.5" y="-888.5" font-family="Helvetica,sans-Serif" font-size="10.00">ActionCraftBoneKnifeEnv</text>
</a>
</g>
</g>
<!-- Node3&#45;&gt;Node44 -->
<g id="edge25_Node000003_Node000044" class="edge">
<title>Node3&#45;&gt;Node44</title>
<g id="a_edge25_Node000003_Node000044"><a xlink:title=" ">
<path fill="none" stroke="#8b1a1a" d="M372.13,-903.76C388.27,-902.04 405.4,-900.22 421.22,-898.53"/>
<polygon fill="#8b1a1a" stroke="#8b1a1a" points="372.22,-900.24 362.64,-904.78 372.96,-907.2 372.22,-900.24"/>
</a>
</g>
</g>
<!-- Node45 -->
<g id="Node000045" class="node">
<title>Node45</title>
<g id="a_Node000045"><a xlink:href="../../d9/d0a/class_action_craft_improvised_eye_patch.html" target="_top" xlink:title=" ">
<polygon fill="white" stroke="#666666" points="547,-864 420,-864 420,-832 547,-832 547,-864"/>
<text text-anchor="start" x="428" y="-850.5" font-family="Helvetica,sans-Serif" font-size="10.00">ActionCraftImprovisedEye</text>
<text text-anchor="middle" x="483.5" y="-838.5" font-family="Helvetica,sans-Serif" font-size="10.00">Patch</text>
</a>
</g>
</g>
<!-- Node3&#45;&gt;Node45 -->
<g id="edge26_Node000003_Node000045" class="edge">
<title>Node3&#45;&gt;Node45</title>
<g id="a_edge26_Node000003_Node000045"><a xlink:title=" ">
<path fill="none" stroke="#8b1a1a" d="M348.96,-896.71C352.98,-895.2 356.96,-893.62 360.75,-892 377.38,-884.87 379.98,-879.79 396.75,-873 404.37,-869.92 412.51,-867.04 420.63,-864.41"/>
<polygon fill="#8b1a1a" stroke="#8b1a1a" points="348,-893.34 339.77,-900.01 350.36,-899.93 348,-893.34"/>
</a>
</g>
</g>
<!-- Node46 -->
<g id="Node000046" class="node">
<title>Node46</title>
<g id="a_Node000046"><a xlink:href="../../d5/d0c/class_action_craft_improvised_face_cover.html" target="_top" xlink:title=" ">
<polygon fill="white" stroke="#666666" points="549.25,-814 417.75,-814 417.75,-782 549.25,-782 549.25,-814"/>
<text text-anchor="start" x="425.75" y="-800.5" font-family="Helvetica,sans-Serif" font-size="10.00">ActionCraftImprovisedFace</text>
<text text-anchor="middle" x="483.5" y="-788.5" font-family="Helvetica,sans-Serif" font-size="10.00">Cover</text>
</a>
</g>
</g>
<!-- Node3&#45;&gt;Node46 -->
<g id="edge27_Node000003_Node000046" class="edge">
<title>Node3&#45;&gt;Node46</title>
<g id="a_edge27_Node000003_Node000046"><a xlink:title=" ">
<path fill="none" stroke="#8b1a1a" d="M356.81,-895.04C358.18,-894.08 359.5,-893.07 360.75,-892 387.05,-869.53 370,-844.93 396.75,-823 402.87,-817.99 409.95,-813.98 417.37,-810.77"/>
<polygon fill="#8b1a1a" stroke="#8b1a1a" points="355.44,-891.79 348.51,-899.8 358.93,-897.86 355.44,-891.79"/>
</a>
</g>
</g>
<!-- Node47 -->
<g id="Node000047" class="node">
<title>Node47</title>
<g id="a_Node000047"><a xlink:href="../../d6/d0e/class_action_craft_improvised_feet_cover.html" target="_top" xlink:title=" ">
<polygon fill="white" stroke="#666666" points="548.12,-764 418.88,-764 418.88,-732 548.12,-732 548.12,-764"/>
<text text-anchor="start" x="426.88" y="-750.5" font-family="Helvetica,sans-Serif" font-size="10.00">ActionCraftImprovisedFeet</text>
<text text-anchor="middle" x="483.5" y="-738.5" font-family="Helvetica,sans-Serif" font-size="10.00">Cover</text>
</a>
</g>
</g>
<!-- Node3&#45;&gt;Node47 -->
<g id="edge28_Node000003_Node000047" class="edge">
<title>Node3&#45;&gt;Node47</title>
<g id="a_edge28_Node000003_Node000047"><a xlink:title=" ">
<path fill="none" stroke="#8b1a1a" d="M358.49,-894.16C359.27,-893.47 360.03,-892.75 360.75,-892 399.22,-852.33 357.48,-811.87 396.75,-773 402.92,-766.89 410.5,-762.26 418.56,-758.75"/>
<polygon fill="#8b1a1a" stroke="#8b1a1a" points="356.74,-891.11 350.49,-899.66 360.71,-896.87 356.74,-891.11"/>
</a>
</g>
</g>
<!-- Node48 -->
<g id="Node000048" class="node">
<title>Node48</title>
<g id="a_Node000048"><a xlink:href="../../d4/d0d/class_action_craft_improvised_hands_cover.html" target="_top" xlink:title=" ">
<polygon fill="white" stroke="#666666" points="552.25,-714 414.75,-714 414.75,-682 552.25,-682 552.25,-714"/>
<text text-anchor="start" x="422.75" y="-700.5" font-family="Helvetica,sans-Serif" font-size="10.00">ActionCraftImprovisedHands</text>
<text text-anchor="middle" x="483.5" y="-688.5" font-family="Helvetica,sans-Serif" font-size="10.00">Cover</text>
</a>
</g>
</g>
<!-- Node3&#45;&gt;Node48 -->
<g id="edge29_Node000003_Node000048" class="edge">
<title>Node3&#45;&gt;Node48</title>
<g id="a_edge29_Node000003_Node000048"><a xlink:title=" ">
<path fill="none" stroke="#8b1a1a" d="M358.94,-893.89C359.56,-893.28 360.17,-892.65 360.75,-892 411.86,-834.68 344.49,-779.27 396.75,-723 401.71,-717.66 407.74,-713.44 414.28,-710.1"/>
<polygon fill="#8b1a1a" stroke="#8b1a1a" points="356.99,-890.98 351.03,-899.74 361.15,-896.61 356.99,-890.98"/>
</a>
</g>
</g>
<!-- Node49 -->
<g id="Node000049" class="node">
<title>Node49</title>
<g id="a_Node000049"><a xlink:href="../../d5/d06/class_action_craft_improvised_head_cover.html" target="_top" xlink:title=" ">
<polygon fill="white" stroke="#666666" points="549.62,-664 417.38,-664 417.38,-632 549.62,-632 549.62,-664"/>
<text text-anchor="start" x="425.38" y="-650.5" font-family="Helvetica,sans-Serif" font-size="10.00">ActionCraftImprovisedHead</text>
<text text-anchor="middle" x="483.5" y="-638.5" font-family="Helvetica,sans-Serif" font-size="10.00">Cover</text>
</a>
</g>
</g>
<!-- Node3&#45;&gt;Node49 -->
<g id="edge30_Node000003_Node000049" class="edge">
<title>Node3&#45;&gt;Node49</title>
<g id="a_edge30_Node000003_Node000049"><a xlink:title=" ">
<path fill="none" stroke="#8b1a1a" d="M359.32,-893.58C359.81,-893.07 360.29,-892.54 360.75,-892 424.65,-816.85 331.34,-746.83 396.75,-673 402.3,-666.73 409.33,-662 416.96,-658.43"/>
<polygon fill="#8b1a1a" stroke="#8b1a1a" points="357.19,-890.8 351.44,-899.7 361.49,-896.33 357.19,-890.8"/>
</a>
</g>
</g>
<!-- Node50 -->
<g id="Node000050" class="node">
<title>Node50</title>
<g id="a_Node000050"><a xlink:href="../../df/d0f/class_action_craft_improvised_legs_cover.html" target="_top" xlink:title=" ">
<polygon fill="white" stroke="#666666" points="548.88,-614 418.12,-614 418.12,-582 548.88,-582 548.88,-614"/>
<text text-anchor="start" x="426.12" y="-600.5" font-family="Helvetica,sans-Serif" font-size="10.00">ActionCraftImprovisedLegs</text>
<text text-anchor="middle" x="483.5" y="-588.5" font-family="Helvetica,sans-Serif" font-size="10.00">Cover</text>
</a>
</g>
</g>
<!-- Node3&#45;&gt;Node50 -->
<g id="edge31_Node000003_Node000050" class="edge">
<title>Node3&#45;&gt;Node50</title>
<g id="a_edge31_Node000003_Node000050"><a xlink:title=" ">
<path fill="none" stroke="#8b1a1a" d="M359.38,-893.56C359.85,-893.06 360.31,-892.54 360.75,-892 437.5,-798.95 318.12,-714.47 396.75,-623 402.41,-616.41 409.7,-611.51 417.63,-607.88"/>
<polygon fill="#8b1a1a" stroke="#8b1a1a" points="357.43,-890.64 351.81,-899.61 361.8,-896.11 357.43,-890.64"/>
</a>
</g>
</g>
<!-- Node51 -->
<g id="Node000051" class="node">
<title>Node51</title>
<g id="a_Node000051"><a xlink:href="../../d8/d0e/class_action_craft_improvised_torso_cover.html" target="_top" xlink:title=" ">
<polygon fill="white" stroke="#666666" points="550.38,-564 416.62,-564 416.62,-532 550.38,-532 550.38,-564"/>
<text text-anchor="start" x="424.62" y="-550.5" font-family="Helvetica,sans-Serif" font-size="10.00">ActionCraftImprovisedTorso</text>
<text text-anchor="middle" x="483.5" y="-538.5" font-family="Helvetica,sans-Serif" font-size="10.00">Cover</text>
</a>
</g>
</g>
<!-- Node3&#45;&gt;Node51 -->
<g id="edge32_Node000003_Node000051" class="edge">
<title>Node3&#45;&gt;Node51</title>
<g id="a_edge32_Node000003_Node000051"><a xlink:title=" ">
<path fill="none" stroke="#8b1a1a" d="M359.39,-893.58C359.86,-893.07 360.31,-892.54 360.75,-892 450.4,-781 304.86,-682.15 396.75,-573 402.04,-566.71 408.82,-561.96 416.24,-558.37"/>
<polygon fill="#8b1a1a" stroke="#8b1a1a" points="357.44,-890.65 351.87,-899.67 361.85,-896.09 357.44,-890.65"/>
</a>
</g>
</g>
<!-- Node52 -->
<g id="Node000052" class="node">
<title>Node52</title>
<g id="a_Node000052"><a xlink:href="../../dd/d03/class_action_craft_rope_belt.html" target="_top" xlink:title=" ">
<polygon fill="white" stroke="#666666" points="535.38,-514 431.62,-514 431.62,-494 535.38,-494 535.38,-514"/>
<text text-anchor="middle" x="483.5" y="-500.5" font-family="Helvetica,sans-Serif" font-size="10.00">ActionCraftRopeBelt</text>
</a>
</g>
</g>
<!-- Node3&#45;&gt;Node52 -->
<g id="edge33_Node000003_Node000052" class="edge">
<title>Node3&#45;&gt;Node52</title>
<g id="a_edge33_Node000003_Node000052"><a xlink:title=" ">
<path fill="none" stroke="#8b1a1a" d="M359.4,-893.59C359.87,-893.07 360.32,-892.54 360.75,-892 412.03,-827.51 342.11,-584.67 396.75,-523 405.55,-513.07 418.27,-507.7 431.23,-504.93"/>
<polygon fill="#8b1a1a" stroke="#8b1a1a" points="357.45,-890.66 351.92,-899.7 361.88,-896.08 357.45,-890.66"/>
</a>
</g>
</g>
<!-- Node53 -->
<g id="Node000053" class="node">
<title>Node53</title>
<g id="a_Node000053"><a xlink:href="../../d6/d06/class_action_craft_stone_knife_env.html" target="_top" xlink:title=" ">
<polygon fill="white" stroke="#666666" points="547,-476 420,-476 420,-456 547,-456 547,-476"/>
<text text-anchor="middle" x="483.5" y="-462.5" font-family="Helvetica,sans-Serif" font-size="10.00">ActionCraftStoneKnifeEnv</text>
</a>
</g>
</g>
<!-- Node3&#45;&gt;Node53 -->
<g id="edge34_Node000003_Node000053" class="edge">
<title>Node3&#45;&gt;Node53</title>
<g id="a_edge34_Node000003_Node000053"><a xlink:title=" ">
<path fill="none" stroke="#8b1a1a" d="M359.71,-893.25C360.07,-892.84 360.41,-892.43 360.75,-892 416.94,-820.68 336.85,-553.23 396.75,-485 402.89,-478.01 410.97,-473.27 419.72,-470.11"/>
<polygon fill="#8b1a1a" stroke="#8b1a1a" points="357.62,-890.44 352.21,-899.55 362.12,-895.8 357.62,-890.44"/>
</a>
</g>
</g>
<!-- Node54 -->
<g id="Node000054" class="node">
<title>Node54</title>
<g id="a_Node000054"><a xlink:href="../../d9/d02/class_action_create_greenhouse_garden_plot.html" target="_top" xlink:title=" ">
<polygon fill="white" stroke="#666666" points="570.25,-438 396.75,-438 396.75,-418 570.25,-418 570.25,-438"/>
<text text-anchor="middle" x="483.5" y="-424.5" font-family="Helvetica,sans-Serif" font-size="10.00">ActionCreateGreenhouseGardenPlot</text>
</a>
</g>
</g>
<!-- Node3&#45;&gt;Node54 -->
<g id="edge35_Node000003_Node000054" class="edge">
<title>Node3&#45;&gt;Node54</title>
<g id="a_edge35_Node000003_Node000054"><a xlink:title=" ">
<path fill="none" stroke="#8b1a1a" d="M359.72,-893.26C360.07,-892.85 360.42,-892.43 360.75,-892 421.86,-813.84 331.58,-521.8 396.75,-447 399.65,-443.67 403,-440.84 406.65,-438.46"/>
<polygon fill="#8b1a1a" stroke="#8b1a1a" points="357.62,-890.45 352.23,-899.57 362.13,-895.8 357.62,-890.45"/>
</a>
</g>
</g>
<!-- Node55 -->
<g id="Node000055" class="node">
<title>Node55</title>
<g id="a_Node000055"><a xlink:href="../../d6/d0e/class_action_deconstruct_shelter.html" target="_top" xlink:title=" ">
<polygon fill="white" stroke="#666666" points="547,-400 420,-400 420,-380 547,-380 547,-400"/>
<text text-anchor="middle" x="483.5" y="-386.5" font-family="Helvetica,sans-Serif" font-size="10.00">ActionDeconstructShelter</text>
</a>
</g>
</g>
<!-- Node3&#45;&gt;Node55 -->
<g id="edge36_Node000003_Node000055" class="edge">
<title>Node3&#45;&gt;Node55</title>
<g id="a_edge36_Node000003_Node000055"><a xlink:title=" ">
<path fill="none" stroke="#8b1a1a" d="M359.72,-893.26C360.07,-892.85 360.42,-892.43 360.75,-892 426.77,-807 326.3,-490.37 396.75,-409 402.84,-401.97 410.89,-397.21 419.63,-394.04"/>
<polygon fill="#8b1a1a" stroke="#8b1a1a" points="357.62,-890.45 352.25,-899.58 362.14,-895.79 357.62,-890.45"/>
</a>
</g>
</g>
<!-- Node56 -->
<g id="Node000056" class="node">
<title>Node56</title>
<g id="a_Node000056"><a xlink:href="../../de/d0d/class_action_defibrilate_base.html" target="_top" xlink:title=" ">
<polygon fill="#fff0f0" stroke="red" points="538,-362 429,-362 429,-342 538,-342 538,-362"/>
<text text-anchor="middle" x="483.5" y="-348.5" font-family="Helvetica,sans-Serif" font-size="10.00">ActionDefibrilateBase</text>
</a>
</g>
</g>
<!-- Node3&#45;&gt;Node56 -->
<g id="edge37_Node000003_Node000056" class="edge">
<title>Node3&#45;&gt;Node56</title>
<g id="a_edge37_Node000003_Node000056"><a xlink:title=" ">
<path fill="none" stroke="#8b1a1a" d="M359.72,-893.26C360.08,-892.85 360.42,-892.43 360.75,-892 431.69,-800.15 321.03,-458.95 396.75,-371 404.91,-361.52 416.64,-356.17 428.81,-353.27"/>
<polygon fill="#8b1a1a" stroke="#8b1a1a" points="357.62,-890.45 352.27,-899.6 362.16,-895.79 357.62,-890.45"/>
</a>
</g>
</g>
<!-- Node59 -->
<g id="Node000059" class="node">
<title>Node59</title>
<g id="a_Node000059"><a xlink:href="../../d6/d0d/class_action_deploy_base.html" target="_top" xlink:title=" ">
<polygon fill="#fff0f0" stroke="red" points="531.62,-324 435.38,-324 435.38,-304 531.62,-304 531.62,-324"/>
<text text-anchor="middle" x="483.5" y="-310.5" font-family="Helvetica,sans-Serif" font-size="10.00">ActionDeployBase</text>
</a>
</g>
</g>
<!-- Node3&#45;&gt;Node59 -->
<g id="edge38_Node000003_Node000059" class="edge">
<title>Node3&#45;&gt;Node59</title>
<g id="a_edge38_Node000003_Node000059"><a xlink:title=" ">
<path fill="none" stroke="#8b1a1a" d="M359.73,-893.26C360.08,-892.85 360.42,-892.43 360.75,-892 436.61,-793.31 315.75,-427.52 396.75,-333 406.28,-321.88 420.72,-316.43 435.04,-313.96"/>
<polygon fill="#8b1a1a" stroke="#8b1a1a" points="357.62,-890.46 352.29,-899.61 362.17,-895.78 357.62,-890.46"/>
</a>
</g>
</g>
<!-- Node61 -->
<g id="Node000061" class="node">
<title>Node61</title>
<g id="a_Node000061"><a xlink:href="../../d1/d02/class_action_destroy_combination_lock.html" target="_top" xlink:title=" ">
<polygon fill="white" stroke="#666666" points="559.75,-286 407.25,-286 407.25,-266 559.75,-266 559.75,-286"/>
<text text-anchor="middle" x="483.5" y="-272.5" font-family="Helvetica,sans-Serif" font-size="10.00">ActionDestroyCombinationLock</text>
</a>
</g>
</g>
<!-- Node3&#45;&gt;Node61 -->
<g id="edge39_Node000003_Node000061" class="edge">
<title>Node3&#45;&gt;Node61</title>
<g id="a_edge39_Node000003_Node000061"><a xlink:title=" ">
<path fill="none" stroke="#8b1a1a" d="M359.73,-893.27C360.08,-892.85 360.42,-892.43 360.75,-892 441.53,-786.46 310.47,-396.1 396.75,-295 399.72,-291.52 403.17,-288.6 406.95,-286.14"/>
<polygon fill="#8b1a1a" stroke="#8b1a1a" points="357.62,-890.46 352.3,-899.62 362.17,-895.78 357.62,-890.46"/>
</a>
</g>
</g>
<!-- Node62 -->
<g id="Node000062" class="node">
<title>Node62</title>
<g id="a_Node000062"><a xlink:href="../../d3/d09/class_action_destroy_part.html" target="_top" xlink:title=" ">
<polygon fill="white" stroke="#666666" points="531.25,-248 435.75,-248 435.75,-228 531.25,-228 531.25,-248"/>
<text text-anchor="middle" x="483.5" y="-234.5" font-family="Helvetica,sans-Serif" font-size="10.00">ActionDestroyPart</text>
</a>
</g>
</g>
<!-- Node3&#45;&gt;Node62 -->
<g id="edge40_Node000003_Node000062" class="edge">
<title>Node3&#45;&gt;Node62</title>
<g id="a_edge40_Node000003_Node000062"><a xlink:title=" ">
<path fill="none" stroke="#8b1a1a" d="M359.73,-893.27C360.08,-892.85 360.42,-892.43 360.75,-892 446.46,-779.61 305.19,-364.67 396.75,-257 406.33,-245.73 420.96,-240.28 435.44,-237.84"/>
<polygon fill="#8b1a1a" stroke="#8b1a1a" points="357.63,-890.46 352.31,-899.63 362.18,-895.78 357.63,-890.46"/>
</a>
</g>
</g>
<!-- Node63 -->
<g id="Node000063" class="node">
<title>Node63</title>
<g id="a_Node000063"><a xlink:href="../../dc/d0a/class_action_dig_in_stash.html" target="_top" xlink:title=" ">
<polygon fill="white" stroke="#666666" points="529,-210 438,-210 438,-190 529,-190 529,-210"/>
<text text-anchor="middle" x="483.5" y="-196.5" font-family="Helvetica,sans-Serif" font-size="10.00">ActionDigInStash</text>
</a>
</g>
</g>
<!-- Node3&#45;&gt;Node63 -->
<g id="edge41_Node000003_Node000063" class="edge">
<title>Node3&#45;&gt;Node63</title>
<g id="a_edge41_Node000003_Node000063"><a xlink:title=" ">
<path fill="none" stroke="#8b1a1a" d="M359.73,-893.27C360.08,-892.86 360.42,-892.43 360.75,-892 451.38,-772.76 299.91,-333.25 396.75,-219 406.81,-207.14 422.46,-201.71 437.66,-199.47"/>
<polygon fill="#8b1a1a" stroke="#8b1a1a" points="357.63,-890.46 352.32,-899.63 362.19,-895.77 357.63,-890.46"/>
</a>
</g>
</g>
<!-- Node64 -->
<g id="Node000064" class="node">
<title>Node64</title>
<g id="a_Node000064"><a xlink:href="../../da/d07/class_action_dig_worms.html" target="_top" xlink:title=" ">
<polygon fill="white" stroke="#666666" points="528.25,-172 438.75,-172 438.75,-152 528.25,-152 528.25,-172"/>
<text text-anchor="middle" x="483.5" y="-158.5" font-family="Helvetica,sans-Serif" font-size="10.00">ActionDigWorms</text>
</a>
</g>
</g>
<!-- Node3&#45;&gt;Node64 -->
<g id="edge42_Node000003_Node000064" class="edge">
<title>Node3&#45;&gt;Node64</title>
<g id="a_edge42_Node000003_Node000064"><a xlink:title=" ">
<path fill="none" stroke="#8b1a1a" d="M359.74,-893.27C360.08,-892.86 360.42,-892.43 360.75,-892 456.3,-765.91 294.63,-301.83 396.75,-181 406.99,-168.89 423.06,-163.48 438.53,-161.33"/>
<polygon fill="#8b1a1a" stroke="#8b1a1a" points="357.63,-890.47 352.33,-899.64 362.19,-895.77 357.63,-890.47"/>
</a>
</g>
</g>
<!-- Node65 -->
<g id="Node000065" class="node">
<title>Node65</title>
<g id="a_Node000065"><a xlink:href="../../df/d08/class_action_disinfect_base.html" target="_top" xlink:title=" ">
<polygon fill="#fff0f0" stroke="red" points="535.38,-134 431.62,-134 431.62,-114 535.38,-114 535.38,-134"/>
<text text-anchor="middle" x="483.5" y="-120.5" font-family="Helvetica,sans-Serif" font-size="10.00">ActionDisinfectBase</text>
</a>
</g>
</g>
<!-- Node3&#45;&gt;Node65 -->
<g id="edge43_Node000003_Node000065" class="edge">
<title>Node3&#45;&gt;Node65</title>
<g id="a_edge43_Node000003_Node000065"><a xlink:title=" ">
<path fill="none" stroke="#8b1a1a" d="M359.74,-893.27C360.08,-892.86 360.42,-892.43 360.75,-892 410.99,-825.53 343.05,-206.7 396.75,-143 405.4,-132.74 418.23,-127.29 431.36,-124.55"/>
<polygon fill="#8b1a1a" stroke="#8b1a1a" points="357.63,-890.47 352.34,-899.65 362.2,-895.77 357.63,-890.47"/>
</a>
</g>
</g>
<!-- Node67 -->
<g id="Node000067" class="node">
<title>Node67</title>
<g id="a_Node000067"><a xlink:href="../../d5/d01/class_action_disinfect_plant.html" target="_top" xlink:title=" ">
<polygon fill="white" stroke="#666666" points="535.38,-96 431.62,-96 431.62,-76 535.38,-76 535.38,-96"/>
<text text-anchor="middle" x="483.5" y="-82.5" font-family="Helvetica,sans-Serif" font-size="10.00">ActionDisinfectPlant</text>
</a>
</g>
</g>
<!-- Node3&#45;&gt;Node67 -->
<g id="edge44_Node000003_Node000067" class="edge">
<title>Node3&#45;&gt;Node67</title>
<g id="a_edge44_Node000003_Node000067"><a xlink:title=" ">
<path fill="none" stroke="#8b1a1a" d="M359.74,-893.27C360.09,-892.86 360.42,-892.43 360.75,-892 413.45,-822.11 340.41,-171.99 396.75,-105 405.39,-94.73 418.22,-89.28 431.34,-86.54"/>
<polygon fill="#8b1a1a" stroke="#8b1a1a" points="357.63,-890.47 352.35,-899.65 362.2,-895.77 357.63,-890.47"/>
</a>
</g>
</g>
<!-- Node68 -->
<g id="Node000068" class="node">
<title>Node68</title>
<g id="a_Node000068"><a xlink:href="../../df/d07/class_action_dismantle_garden_plot.html" target="_top" xlink:title=" ">
<polygon fill="white" stroke="#666666" points="551.5,-58 415.5,-58 415.5,-38 551.5,-38 551.5,-58"/>
<text text-anchor="middle" x="483.5" y="-44.5" font-family="Helvetica,sans-Serif" font-size="10.00">ActionDismantleGardenPlot</text>
</a>
</g>
</g>
<!-- Node3&#45;&gt;Node68 -->
<g id="edge45_Node000003_Node000068" class="edge">
<title>Node3&#45;&gt;Node68</title>
<g id="a_edge45_Node000003_Node000068"><a xlink:title=" ">
<path fill="none" stroke="#8b1a1a" d="M359.74,-893.27C360.09,-892.86 360.42,-892.43 360.75,-892 415.91,-818.68 337.77,-137.28 396.75,-67 401.75,-61.04 408.16,-56.71 415.22,-53.58"/>
<polygon fill="#8b1a1a" stroke="#8b1a1a" points="357.63,-890.47 352.35,-899.66 362.21,-895.77 357.63,-890.47"/>
</a>
</g>
</g>
<!-- Node69 -->
<g id="Node000069" class="node">
<title>Node69</title>
<g id="a_Node000069"><a xlink:href="../../d6/d0d/class_action_dismantle_part.html" target="_top" xlink:title=" ">
<polygon fill="#fff0f0" stroke="red" points="536.12,-20 430.88,-20 430.88,0 536.12,0 536.12,-20"/>
<text text-anchor="middle" x="483.5" y="-6.5" font-family="Helvetica,sans-Serif" font-size="10.00">ActionDismantlePart</text>
</a>
</g>
</g>
<!-- Node3&#45;&gt;Node69 -->
<g id="edge46_Node000003_Node000069" class="edge">
<title>Node3&#45;&gt;Node69</title>
<g id="a_edge46_Node000003_Node000069"><a xlink:title=" ">
<path fill="none" stroke="#8b1a1a" d="M359.74,-893.27C360.09,-892.86 360.42,-892.43 360.75,-892 418.37,-815.25 335.13,-102.58 396.75,-29 405.17,-18.95 417.61,-13.5 430.42,-10.71"/>
<polygon fill="#8b1a1a" stroke="#8b1a1a" points="357.63,-890.47 352.36,-899.66 362.21,-895.76 357.63,-890.47"/>
</a>
</g>
</g>
</g>
</svg>
