<?xml version="1.0" encoding="UTF-8" standalone="no"?>
<!DOCTYPE svg PUBLIC "-//W3C//DTD SVG 1.1//EN"
 "http://www.w3.org/Graphics/SVG/1.1/DTD/svg11.dtd">
<!-- Generated by graphviz version 11.0.0 (20240428.1522)
 -->
<!-- Title: ActionDeployBase Pages: 1 -->
<svg width="251pt" height="248pt"
 viewBox="0.00 0.00 251.38 248.00" xmlns="http://www.w3.org/2000/svg" xmlns:xlink="http://www.w3.org/1999/xlink">

<svg id="main" version="1.1" xmlns="http://www.w3.org/2000/svg" xmlns:xlink="http://www.w3.org/1999/xlink" xml:space="preserve" onload="init(evt)">
<style type="text/css"><![CDATA[
.node, .edge {opacity: 0.7;}
.node.selected, .edge.selected {opacity: 1;}
.edge:hover path { stroke: red; }
.edge:hover polygon { stroke: red; fill: red; }
]]></style>
<script type="application/ecmascript" xlink:href="../../svg.min.js"/>
<svg id="graph" class="graph">
<g id="graph0" class="graph" transform="scale(1 1) rotate(0) translate(4 244)">
<title>ActionDeployBase</title>
<!-- Node1 -->
<g id="Node000001" class="node">
<title>Node1</title>
<g id="a_Node000001"><a xlink:title=" ">
<polygon fill="#999999" stroke="#666666" points="165.25,-20 69,-20 69,0 165.25,0 165.25,-20"/>
<text text-anchor="middle" x="117.12" y="-6.5" font-family="Helvetica,sans-Serif" font-size="10.00">ActionDeployBase</text>
</a>
</g>
</g>
<!-- Node2 -->
<g id="Node000002" class="node">
<title>Node2</title>
<g id="a_Node000002"><a xlink:href="../../d6/d0f/class_action_continuous_base.html" target="_top" xlink:title=" ">
<polygon fill="white" stroke="#666666" points="128.62,-96 13.62,-96 13.62,-76 128.62,-76 128.62,-96"/>
<text text-anchor="middle" x="71.12" y="-82.5" font-family="Helvetica,sans-Serif" font-size="10.00">ActionContinuousBase</text>
</a>
</g>
</g>
<!-- Node2&#45;&gt;Node1 -->
<g id="edge1_Node000001_Node000002" class="edge">
<title>Node2&#45;&gt;Node1</title>
<g id="a_edge1_Node000001_Node000002"><a xlink:title=" ">
<path fill="none" stroke="#8b1a1a" d="M82.96,-65.97C92.13,-51.22 104.42,-31.43 111.49,-20.06"/>
<polygon fill="#8b1a1a" stroke="#8b1a1a" points="80.06,-64 77.75,-74.34 86,-67.7 80.06,-64"/>
</a>
</g>
</g>
<!-- Node3 -->
<g id="Node000003" class="node">
<title>Node3</title>
<g id="a_Node000003"><a xlink:href="../../d7/d04/class_animated_action_base.html" target="_top" xlink:title=" ">
<polygon fill="white" stroke="#666666" points="124.88,-160 17.38,-160 17.38,-140 124.88,-140 124.88,-160"/>
<text text-anchor="middle" x="71.12" y="-146.5" font-family="Helvetica,sans-Serif" font-size="10.00">AnimatedActionBase</text>
</a>
</g>
</g>
<!-- Node3&#45;&gt;Node2 -->
<g id="edge2_Node000002_Node000003" class="edge">
<title>Node3&#45;&gt;Node2</title>
<g id="a_edge2_Node000002_Node000003"><a xlink:title=" ">
<path fill="none" stroke="#8b1a1a" d="M71.12,-128.4C71.12,-117.46 71.12,-104.56 71.12,-96.1"/>
<polygon fill="#8b1a1a" stroke="#8b1a1a" points="67.63,-128.07 71.13,-138.07 74.63,-128.07 67.63,-128.07"/>
</a>
</g>
</g>
<!-- Node4 -->
<g id="Node000004" class="node">
<title>Node4</title>
<g id="a_Node000004"><a xlink:title=" ">
<polygon fill="white" stroke="#666666" points="66.25,-240 0,-240 0,-220 66.25,-220 66.25,-240"/>
<text text-anchor="middle" x="33.12" y="-226.5" font-family="Helvetica,sans-Serif" font-size="10.00">ActionBase</text>
</a>
</g>
</g>
<!-- Node4&#45;&gt;Node3 -->
<g id="edge3_Node000003_Node000004" class="edge">
<title>Node4&#45;&gt;Node3</title>
<g id="a_edge3_Node000003_Node000004"><a xlink:title=" ">
<path fill="none" stroke="#8b1a1a" d="M42.62,-209.51C50.29,-193.77 60.74,-172.32 66.62,-160.24"/>
<polygon fill="#8b1a1a" stroke="#8b1a1a" points="39.53,-207.86 38.3,-218.39 45.82,-210.93 39.53,-207.86"/>
</a>
</g>
</g>
<!-- Node5 -->
<g id="Node000005" class="node">
<title>Node5</title>
<g id="a_Node000005"><a xlink:href="../../db/d06/class_param3.html" target="_top" xlink:title=" ">
<polygon fill="white" stroke="#666666" points="134,-240 84.25,-240 84.25,-220 134,-220 134,-240"/>
<text text-anchor="middle" x="109.12" y="-226.5" font-family="Helvetica,sans-Serif" font-size="10.00">Param3</text>
</a>
</g>
</g>
<!-- Node5&#45;&gt;Node3 -->
<g id="edge4_Node000003_Node000005" class="edge">
<title>Node5&#45;&gt;Node3</title>
<g id="a_edge4_Node000003_Node000005"><a xlink:title=" ">
<path fill="none" stroke="#9a32cd" stroke-dasharray="5,2" d="M99.63,-209.51C91.96,-193.77 81.51,-172.32 75.63,-160.24"/>
<polygon fill="#9a32cd" stroke="#9a32cd" points="96.43,-210.93 103.95,-218.39 102.72,-207.86 96.43,-210.93"/>
</a>
</g>
<text text-anchor="middle" x="145.62" y="-192.5" font-family="Helvetica,sans-Serif" font-size="10.00" fill="grey"> m_CommandUID</text>
<text text-anchor="middle" x="145.62" y="-180.5" font-family="Helvetica,sans-Serif" font-size="10.00" fill="grey">m_CommandUIDProne</text>
</g>
<!-- Node6 -->
<g id="Node000006" class="node">
<title>Node6</title>
<g id="a_Node000006"><a xlink:href="../../d4/d03/classfloat.html" target="_top" xlink:title=" ">
<polygon fill="white" stroke="#666666" points="181.12,-96 147.12,-96 147.12,-76 181.12,-76 181.12,-96"/>
<text text-anchor="middle" x="164.12" y="-82.5" font-family="Helvetica,sans-Serif" font-size="10.00">float</text>
</a>
</g>
</g>
<!-- Node6&#45;&gt;Node1 -->
<g id="edge5_Node000001_Node000006" class="edge">
<title>Node6&#45;&gt;Node1</title>
<g id="a_edge5_Node000001_Node000006"><a xlink:title=" ">
<path fill="none" stroke="#9a32cd" stroke-dasharray="5,2" d="M152.04,-65.97C142.67,-51.22 130.1,-31.43 122.88,-20.06"/>
<polygon fill="#9a32cd" stroke="#9a32cd" points="149.05,-67.79 157.36,-74.35 154.95,-64.03 149.05,-67.79"/>
</a>
</g>
<text text-anchor="middle" x="185.88" y="-40.5" font-family="Helvetica,sans-Serif" font-size="10.00" fill="grey"> POSITION_OFFSET</text>
</g>
<!-- Node6&#45;&gt;Node6 -->
<g id="edge6_Node000006_Node000006" class="edge">
<title>Node6&#45;&gt;Node6</title>
<g id="a_edge6_Node000006_Node000006"><a xlink:title=" ">
<path fill="none" stroke="#9a32cd" stroke-dasharray="5,2" d="M192.8,-91.96C196.6,-90.95 199.12,-88.96 199.12,-86 199.12,-80.59 190.68,-78.43 181.41,-79.53"/>
<polygon fill="#9a32cd" stroke="#9a32cd" points="192.76,-88.46 182.92,-92.4 193.07,-95.45 192.76,-88.46"/>
</a>
</g>
<text text-anchor="middle" x="221.25" y="-94.5" font-family="Helvetica,sans-Serif" font-size="10.00" fill="grey"> LOWEST</text>
<text text-anchor="middle" x="221.25" y="-82.5" font-family="Helvetica,sans-Serif" font-size="10.00" fill="grey">MAX</text>
<text text-anchor="middle" x="221.25" y="-70.5" font-family="Helvetica,sans-Serif" font-size="10.00" fill="grey">MIN</text>
</g>
</g>
</svg>
</svg>

<style type='text/css'>
<![CDATA[
[data-mouse-over-selected='false'] { opacity: 0.7; }
[data-mouse-over-selected='true']  { opacity: 1.0; }
]]>
</style>
<script type="application/ecmascript"><![CDATA[
document.addEventListener('DOMContentLoaded', (event) => {
  highlightEdges();
  highlightAdjacentNodes();
});
]]></script>
</svg>
