<?xml version="1.0" encoding="UTF-8" standalone="no"?>
<!DOCTYPE svg PUBLIC "-//W3C//DTD SVG 1.1//EN"
 "http://www.w3.org/Graphics/SVG/1.1/DTD/svg11.dtd">
<!-- Generated by graphviz version 11.0.0 (20240428.1522)
 -->
<!-- Title: PPEEyeAccomodationNative Pages: 1 -->
<svg width="1197pt" height="443pt"
 viewBox="0.00 0.00 1197.25 442.91" xmlns="http://www.w3.org/2000/svg" xmlns:xlink="http://www.w3.org/1999/xlink">
<g id="graph0" class="graph" transform="scale(1 1) rotate(0) translate(4 438.91)">
<title>PPEEyeAccomodationNative</title>
<!-- Node1 -->
<g id="Node000001" class="node">
<title>Node1</title>
<g id="a_Node000001"><a xlink:title="Eye Accomodation postprocess, does not directly use materials.">
<polygon fill="#999999" stroke="#666666" points="161,-20 19,-20 19,0 161,0 161,-20"/>
<text text-anchor="middle" x="90" y="-6.5" font-family="Helvetica,sans-Serif" font-size="10.00">PPEEyeAccomodationNative</text>
</a>
</g>
</g>
<!-- Node2 -->
<g id="Node000002" class="node">
<title>Node2</title>
<g id="a_Node000002"><a xlink:href="../../d3/d0f/class_p_p_e_class_base.html" target="_top" xlink:title="Created once, on manager init. Script&#45;side representation of C++ material class, separate handling.">
<polygon fill="white" stroke="#666666" points="295.75,-77 212.25,-77 212.25,-57 295.75,-57 295.75,-77"/>
<text text-anchor="middle" x="254" y="-63.5" font-family="Helvetica,sans-Serif" font-size="10.00">PPEClassBase</text>
</a>
</g>
</g>
<!-- Node2&#45;&gt;Node1 -->
<g id="edge1_Node000001_Node000002" class="edge">
<title>Node2&#45;&gt;Node1</title>
<g id="a_edge1_Node000001_Node000002"><a xlink:title=" ">
<path fill="none" stroke="#8b1a1a" d="M214.95,-52.9C185.14,-42.91 144.78,-29.37 118.1,-20.42"/>
<polygon fill="#8b1a1a" stroke="#8b1a1a" points="213.78,-56.2 224.37,-56.06 216,-49.57 213.78,-56.2"/>
</a>
</g>
</g>
<!-- Node3 -->
<g id="Node000003" class="node">
<title>Node3</title>
<g id="a_Node000003"><a xlink:href="../../d5/d02/classstring.html" target="_top" xlink:title=" ">
<polygon fill="white" stroke="#666666" points="1100,-433 1060,-433 1060,-413 1100,-413 1100,-433"/>
<text text-anchor="middle" x="1080" y="-419.5" font-family="Helvetica,sans-Serif" font-size="10.00">string</text>
</a>
</g>
</g>
<!-- Node3&#45;&gt;Node2 -->
<g id="edge2_Node000002_Node000003" class="edge">
<title>Node3&#45;&gt;Node2</title>
<g id="a_edge2_Node000002_Node000003"><a xlink:title=" ">
<path fill="none" stroke="#9a32cd" stroke-dasharray="5,2" d="M1096.94,-404.19C1099.19,-401.26 1101.3,-398.15 1103,-395 1137.54,-330.78 1163.09,-297.46 1129,-233 1093.55,-165.98 1059.33,-162.69 988,-137 859,-90.53 431.81,-73.51 295.91,-69.2"/>
<polygon fill="#9a32cd" stroke="#9a32cd" points="1094.45,-401.73 1090.6,-411.6 1099.76,-406.28 1094.45,-401.73"/>
</a>
</g>
<text text-anchor="middle" x="1153.62" y="-205.5" font-family="Helvetica,sans-Serif" font-size="10.00" fill="grey"> m_MaterialPath</text>
</g>
<!-- Node3&#45;&gt;Node3 -->
<g id="edge3_Node000003_Node000003" class="edge">
<title>Node3&#45;&gt;Node3</title>
<g id="a_edge3_Node000003_Node000003"><a xlink:title=" ">
<path fill="none" stroke="#9a32cd" stroke-dasharray="5,2" d="M1105.77,-434.91C1112.72,-434.28 1118,-430.31 1118,-423 1118,-412.12 1106.3,-408.64 1094.82,-412.55"/>
<polygon fill="#9a32cd" stroke="#9a32cd" points="1106.7,-431.5 1096.32,-433.65 1105.77,-438.44 1106.7,-431.5"/>
</a>
</g>
<text text-anchor="middle" x="1133.75" y="-419.5" font-family="Helvetica,sans-Serif" font-size="10.00" fill="grey"> Empty</text>
</g>
<!-- Node5 -->
<g id="Node000005" class="node">
<title>Node5</title>
<g id="a_Node000005"><a xlink:href="../../d2/d01/classarray.html" target="_top" xlink:title=" ">
<polygon fill="white" stroke="#666666" points="542.75,-171 453.25,-171 453.25,-151 542.75,-151 542.75,-171"/>
<text text-anchor="middle" x="498" y="-157.5" font-family="Helvetica,sans-Serif" font-size="10.00">array&lt; Param3 &gt;</text>
</a>
</g>
</g>
<!-- Node3&#45;&gt;Node5 -->
<g id="edge24_Node000005_Node000003" class="edge">
<title>Node3&#45;&gt;Node5</title>
<g id="a_edge24_Node000005_Node000003"><a xlink:title=" ">
<path fill="none" stroke="#9a32cd" stroke-dasharray="5,2" d="M1076.15,-401.63C1070.76,-378.92 1058.71,-342.8 1034,-323 1004.8,-299.6 979.22,-330.41 951.75,-305 927.21,-282.3 955.63,-254.47 930,-233 903.76,-211.02 810.35,-222.74 777,-215 761.39,-211.37 758.52,-207 743,-203 674.31,-185.27 592.73,-173.4 543.2,-167.18"/>
<polygon fill="#9a32cd" stroke="#9a32cd" points="1072.68,-402.14 1078.18,-411.19 1079.52,-400.68 1072.68,-402.14"/>
</a>
</g>
<text text-anchor="middle" x="968.62" y="-265.5" font-family="Helvetica,sans-Serif" font-size="10.00" fill="grey"> m_Test</text>
</g>
<!-- Node7 -->
<g id="Node000007" class="node">
<title>Node7</title>
<g id="a_Node000007"><a xlink:href="../../d2/d01/classarray.html" target="_top" xlink:title="Result for an object found in CGame.IsBoxCollidingGeometryProxy.">
<polygon fill="white" stroke="#666666" points="792.88,-279 755.12,-279 755.12,-259 792.88,-259 792.88,-279"/>
<text text-anchor="middle" x="774" y="-265.5" font-family="Helvetica,sans-Serif" font-size="10.00">array</text>
</a>
</g>
</g>
<!-- Node3&#45;&gt;Node7 -->
<g id="edge13_Node000007_Node000003" class="edge">
<title>Node3&#45;&gt;Node7</title>
<g id="a_edge13_Node000007_Node000003"><a xlink:title=" ">
<path fill="none" stroke="#9a32cd" stroke-dasharray="5,2" d="M1048.92,-415.48C1033.09,-411.24 1014.01,-404.67 998.75,-395 961.37,-371.32 967.87,-345.88 930,-323 905.07,-307.94 894.65,-314.14 867,-305 841.12,-296.45 811.76,-285.12 793.07,-277.7"/>
<polygon fill="#9a32cd" stroke="#9a32cd" points="1047.76,-418.79 1058.31,-417.8 1049.44,-412 1047.76,-418.79"/>
</a>
</g>
<text text-anchor="middle" x="1015.62" y="-355.5" font-family="Helvetica,sans-Serif" font-size="10.00" fill="grey"> m_Test</text>
</g>
<!-- Node10 -->
<g id="Node000010" class="node">
<title>Node10</title>
<g id="a_Node000010"><a xlink:href="../../d2/d01/classarray.html" target="_top" xlink:title=" ">
<polygon fill="white" stroke="#666666" points="898.25,-171 811.75,-171 811.75,-151 898.25,-151 898.25,-171"/>
<text text-anchor="middle" x="855" y="-157.5" font-family="Helvetica,sans-Serif" font-size="10.00">array&lt; Widget &gt;</text>
</a>
</g>
</g>
<!-- Node3&#45;&gt;Node10 -->
<g id="edge20_Node000010_Node000003" class="edge">
<title>Node3&#45;&gt;Node10</title>
<g id="a_edge20_Node000010_Node000003"><a xlink:title=" ">
<path fill="none" stroke="#9a32cd" stroke-dasharray="5,2" d="M1084.77,-401.52C1092.26,-363.9 1102.25,-283.08 1064,-233 1025.04,-181.99 947.59,-167.34 898.69,-163.3"/>
<polygon fill="#9a32cd" stroke="#9a32cd" points="1081.4,-400.52 1082.72,-411.03 1088.25,-401.99 1081.4,-400.52"/>
</a>
</g>
<text text-anchor="middle" x="1107.62" y="-265.5" font-family="Helvetica,sans-Serif" font-size="10.00" fill="grey"> m_Test</text>
</g>
<!-- Node4 -->
<g id="Node000004" class="node">
<title>Node4</title>
<g id="a_Node000004"><a xlink:href="../../db/d06/class_param3.html" target="_top" xlink:title=" ">
<polygon fill="white" stroke="#666666" points="195.88,-433 146.12,-433 146.12,-413 195.88,-413 195.88,-433"/>
<text text-anchor="middle" x="171" y="-419.5" font-family="Helvetica,sans-Serif" font-size="10.00">Param3</text>
</a>
</g>
</g>
<!-- Node4&#45;&gt;Node1 -->
<g id="edge26_Node000001_Node000004" class="edge">
<title>Node4&#45;&gt;Node1</title>
<g id="a_edge26_Node000001_Node000004"><a xlink:title=" ">
<path fill="none" stroke="#9a32cd" stroke-dasharray="5,2" d="M135.35,-408.93C85.23,-387.98 0,-341.79 0,-270 0,-270 0,-270 0,-66 0,-42.1 23.39,-28.28 46.32,-20.47"/>
<polygon fill="#9a32cd" stroke="#9a32cd" points="133.78,-412.07 144.36,-412.56 136.4,-405.58 133.78,-412.07"/>
</a>
</g>
<text text-anchor="middle" x="48.38" y="-175.5" font-family="Helvetica,sans-Serif" font-size="10.00" fill="grey"> L_0_BURLAP</text>
<text text-anchor="middle" x="48.38" y="-163.5" font-family="Helvetica,sans-Serif" font-size="10.00" fill="grey">L_0_NVG_GENERIC</text>
<text text-anchor="middle" x="48.38" y="-151.5" font-family="Helvetica,sans-Serif" font-size="10.00" fill="grey">L_0_UNDERGROUND</text>
<text text-anchor="middle" x="48.38" y="-139.5" font-family="Helvetica,sans-Serif" font-size="10.00" fill="grey">PARAM_INTENSITY</text>
</g>
<!-- Node4&#45;&gt;Node2 -->
<g id="edge4_Node000002_Node000004" class="edge">
<title>Node4&#45;&gt;Node2</title>
<g id="a_edge4_Node000002_Node000004"><a xlink:title=" ">
<path fill="none" stroke="#9a32cd" stroke-dasharray="5,2" d="M164.35,-401.87C163.8,-399.57 163.33,-397.25 163,-395 152.66,-323.71 154.49,-303.76 168,-233 180.42,-167.95 228.09,-101.28 246.6,-77.29"/>
<polygon fill="#9a32cd" stroke="#9a32cd" points="160.91,-402.59 167.08,-411.2 167.63,-400.62 160.91,-402.59"/>
</a>
</g>
<text text-anchor="middle" x="201.5" y="-205.5" font-family="Helvetica,sans-Serif" font-size="10.00" fill="grey"> m_Material</text>
</g>
<!-- Node4&#45;&gt;Node5 -->
<g id="edge7_Node000005_Node000004" class="edge">
<title>Node4&#45;&gt;Node5</title>
<g id="a_edge7_Node000005_Node000004"><a xlink:title=" ">
<path fill="none" stroke="#9a32cd" stroke-dasharray="5,2" d="M168.2,-401.36C164.21,-362.82 161.69,-279.62 205.75,-233 239.24,-197.57 379.39,-176.05 452.77,-167"/>
<polygon fill="#9a32cd" stroke="#9a32cd" points="164.7,-401.58 169.36,-411.09 171.65,-400.75 164.7,-401.58"/>
</a>
</g>
<text text-anchor="middle" x="264.12" y="-295.5" font-family="Helvetica,sans-Serif" font-size="10.00" fill="grey"> NO_SORTING</text>
<text text-anchor="middle" x="264.12" y="-283.5" font-family="Helvetica,sans-Serif" font-size="10.00" fill="grey">geomLevel</text>
<text text-anchor="middle" x="264.12" y="-271.5" font-family="Helvetica,sans-Serif" font-size="10.00" fill="grey">hierLevel</text>
<text text-anchor="start" x="206" y="-259.5" font-family="Helvetica,sans-Serif" font-size="10.00" fill="grey">m_CurrentSettingAlternate</text>
<text text-anchor="middle" x="264.12" y="-247.5" font-family="Helvetica,sans-Serif" font-size="10.00" fill="grey">KeyIndex</text>
<text text-anchor="middle" x="264.12" y="-235.5" font-family="Helvetica,sans-Serif" font-size="10.00" fill="grey">m_CurrentSettingKeyIndex</text>
</g>
<!-- Node4&#45;&gt;Node7 -->
<g id="edge10_Node000007_Node000004" class="edge">
<title>Node4&#45;&gt;Node7</title>
<g id="a_edge10_Node000007_Node000004"><a xlink:title=" ">
<path fill="none" stroke="#9a32cd" stroke-dasharray="5,2" d="M207.54,-421.34C265.72,-419.72 376.29,-414.15 410,-395 444.96,-375.14 429.33,-342.02 464.75,-323 518.95,-293.89 685.34,-331.2 741,-305 752.79,-299.45 762.46,-287.67 768.22,-279.31"/>
<polygon fill="#9a32cd" stroke="#9a32cd" points="207.72,-417.84 197.81,-421.59 207.9,-424.83 207.72,-417.84"/>
</a>
</g>
<text text-anchor="middle" x="522.12" y="-385.5" font-family="Helvetica,sans-Serif" font-size="10.00" fill="grey"> NO_SORTING</text>
<text text-anchor="middle" x="522.12" y="-373.5" font-family="Helvetica,sans-Serif" font-size="10.00" fill="grey">geomLevel</text>
<text text-anchor="middle" x="522.12" y="-361.5" font-family="Helvetica,sans-Serif" font-size="10.00" fill="grey">hierLevel</text>
<text text-anchor="start" x="464" y="-349.5" font-family="Helvetica,sans-Serif" font-size="10.00" fill="grey">m_CurrentSettingAlternate</text>
<text text-anchor="middle" x="522.12" y="-337.5" font-family="Helvetica,sans-Serif" font-size="10.00" fill="grey">KeyIndex</text>
<text text-anchor="middle" x="522.12" y="-325.5" font-family="Helvetica,sans-Serif" font-size="10.00" fill="grey">m_CurrentSettingKeyIndex</text>
</g>
<!-- Node4&#45;&gt;Node10 -->
<g id="edge17_Node000010_Node000004" class="edge">
<title>Node4&#45;&gt;Node10</title>
<g id="a_edge17_Node000010_Node000004"><a xlink:title=" ">
<path fill="none" stroke="#9a32cd" stroke-dasharray="5,2" d="M207.14,-410.55C252.65,-394.3 330.18,-360.23 374,-305 394.78,-278.81 370.62,-255.05 395.75,-233 426.83,-205.73 702.63,-176.6 811.28,-166.08"/>
<polygon fill="#9a32cd" stroke="#9a32cd" points="206.04,-407.23 197.73,-413.81 208.32,-413.85 206.04,-407.23"/>
</a>
</g>
<text text-anchor="middle" x="453.12" y="-295.5" font-family="Helvetica,sans-Serif" font-size="10.00" fill="grey"> NO_SORTING</text>
<text text-anchor="middle" x="453.12" y="-283.5" font-family="Helvetica,sans-Serif" font-size="10.00" fill="grey">geomLevel</text>
<text text-anchor="middle" x="453.12" y="-271.5" font-family="Helvetica,sans-Serif" font-size="10.00" fill="grey">hierLevel</text>
<text text-anchor="start" x="395" y="-259.5" font-family="Helvetica,sans-Serif" font-size="10.00" fill="grey">m_CurrentSettingAlternate</text>
<text text-anchor="middle" x="453.12" y="-247.5" font-family="Helvetica,sans-Serif" font-size="10.00" fill="grey">KeyIndex</text>
<text text-anchor="middle" x="453.12" y="-235.5" font-family="Helvetica,sans-Serif" font-size="10.00" fill="grey">m_CurrentSettingKeyIndex</text>
</g>
<!-- Node5&#45;&gt;Node2 -->
<g id="edge5_Node000002_Node000005" class="edge">
<title>Node5&#45;&gt;Node2</title>
<g id="a_edge5_Node000002_Node000005"><a xlink:title=" ">
<path fill="none" stroke="#9a32cd" stroke-dasharray="5,2" d="M462.17,-146.49C412.12,-127.62 322.54,-93.84 279.06,-77.45"/>
<polygon fill="#9a32cd" stroke="#9a32cd" points="460.8,-149.71 471.39,-149.97 463.27,-143.16 460.8,-149.71"/>
</a>
</g>
<text text-anchor="middle" x="446.38" y="-109.5" font-family="Helvetica,sans-Serif" font-size="10.00" fill="grey"> m_ParameterRemovalQueue</text>
<text text-anchor="middle" x="446.38" y="-97.5" font-family="Helvetica,sans-Serif" font-size="10.00" fill="grey">m_UpdatedParameters</text>
</g>
<!-- Node6 -->
<g id="Node000006" class="node">
<title>Node6</title>
<g id="a_Node000006"><a xlink:href="../../d8/d03/class_object.html" target="_top" xlink:title=" ">
<polygon fill="white" stroke="#666666" points="796.25,-433 751.75,-433 751.75,-413 796.25,-413 796.25,-433"/>
<text text-anchor="middle" x="774" y="-419.5" font-family="Helvetica,sans-Serif" font-size="10.00">Object</text>
</a>
</g>
</g>
<!-- Node6&#45;&gt;Node5 -->
<g id="edge6_Node000005_Node000006" class="edge">
<title>Node6&#45;&gt;Node5</title>
<g id="a_edge6_Node000005_Node000006"><a xlink:title=" ">
<path fill="none" stroke="#9a32cd" stroke-dasharray="5,2" d="M740.27,-420.61C718.68,-418.05 691.36,-411.45 673,-395 647.43,-372.09 660.36,-353.71 645,-323 639.73,-312.47 596.88,-241.76 589,-233 565.82,-207.22 532.41,-183.86 513.18,-171.42"/>
<polygon fill="#9a32cd" stroke="#9a32cd" points="739.8,-424.08 750.08,-421.52 740.45,-417.11 739.8,-424.08"/>
</a>
</g>
<text text-anchor="middle" x="647.5" y="-271.5" font-family="Helvetica,sans-Serif" font-size="10.00" fill="grey"> obj</text>
<text text-anchor="middle" x="647.5" y="-259.5" font-family="Helvetica,sans-Serif" font-size="10.00" fill="grey">parent</text>
</g>
<!-- Node6&#45;&gt;Node7 -->
<g id="edge9_Node000007_Node000006" class="edge">
<title>Node6&#45;&gt;Node7</title>
<g id="a_edge9_Node000007_Node000006"><a xlink:title=" ">
<path fill="none" stroke="#9a32cd" stroke-dasharray="5,2" d="M774,-401.47C774,-368.04 774,-303.17 774,-279.2"/>
<polygon fill="#9a32cd" stroke="#9a32cd" points="770.5,-401.43 774,-411.43 777.5,-401.43 770.5,-401.43"/>
</a>
</g>
<text text-anchor="middle" x="787.5" y="-361.5" font-family="Helvetica,sans-Serif" font-size="10.00" fill="grey"> obj</text>
<text text-anchor="middle" x="787.5" y="-349.5" font-family="Helvetica,sans-Serif" font-size="10.00" fill="grey">parent</text>
</g>
<!-- Node6&#45;&gt;Node10 -->
<g id="edge16_Node000010_Node000006" class="edge">
<title>Node6&#45;&gt;Node10</title>
<g id="a_edge16_Node000010_Node000006"><a xlink:title=" ">
<path fill="none" stroke="#9a32cd" stroke-dasharray="5,2" d="M794.87,-405.31C798.43,-402.06 801.95,-398.55 805,-395 864.75,-325.4 885.32,-304.37 906,-215 907.2,-209.8 908.3,-207.81 906,-203 899.32,-189.07 885.35,-178.37 873.71,-171.4"/>
<polygon fill="#9a32cd" stroke="#9a32cd" points="792.68,-402.58 787.38,-411.75 797.24,-407.89 792.68,-402.58"/>
</a>
</g>
<text text-anchor="middle" x="914.5" y="-271.5" font-family="Helvetica,sans-Serif" font-size="10.00" fill="grey"> obj</text>
<text text-anchor="middle" x="914.5" y="-259.5" font-family="Helvetica,sans-Serif" font-size="10.00" fill="grey">parent</text>
</g>
<!-- Node7&#45;&gt;Node5 -->
<g id="edge8_Node000005_Node000007" class="edge">
<title>Node7&#45;&gt;Node5</title>
<g id="a_edge8_Node000005_Node000007"><a xlink:title=" ">
<path fill="none" stroke="#9a32cd" stroke-dasharray="5,2" d="M759.5,-249.96C754.12,-244.05 747.7,-237.77 741,-233 725.12,-221.69 718.54,-223.51 701,-215 690.63,-209.97 688.82,-206.98 678,-203 633.33,-186.57 579.92,-175.41 542.93,-168.93"/>
<polygon fill="#9a32cd" stroke="#9a32cd" points="756.82,-252.22 765.98,-257.55 762.14,-247.68 756.82,-252.22"/>
</a>
</g>
<text text-anchor="middle" x="722" y="-205.5" font-family="Helvetica,sans-Serif" font-size="10.00" fill="grey"> proxyInfo</text>
</g>
<!-- Node7&#45;&gt;Node7 -->
<g id="edge11_Node000007_Node000007" class="edge">
<title>Node7&#45;&gt;Node7</title>
<g id="a_edge11_Node000007_Node000007"><a xlink:title=" ">
<path fill="none" stroke="#9a32cd" stroke-dasharray="5,2" d="M802.02,-279.66C807.22,-278.34 810.88,-274.78 810.88,-269 810.88,-259.51 801.03,-256.02 790.69,-258.54"/>
<polygon fill="#9a32cd" stroke="#9a32cd" points="802.26,-276.17 792.2,-279.48 802.13,-283.16 802.26,-276.17"/>
</a>
</g>
<text text-anchor="middle" x="831.88" y="-265.5" font-family="Helvetica,sans-Serif" font-size="10.00" fill="grey"> proxyInfo</text>
</g>
<!-- Node7&#45;&gt;Node10 -->
<g id="edge18_Node000010_Node000007" class="edge">
<title>Node7&#45;&gt;Node10</title>
<g id="a_edge18_Node000010_Node000007"><a xlink:title=" ">
<path fill="none" stroke="#9a32cd" stroke-dasharray="5,2" d="M773.92,-247.53C774.81,-233.82 777.88,-215.97 787,-203 797.31,-188.34 814.68,-178 829.29,-171.37"/>
<polygon fill="#9a32cd" stroke="#9a32cd" points="770.43,-247.09 773.65,-257.18 777.43,-247.29 770.43,-247.09"/>
</a>
</g>
<text text-anchor="middle" x="808" y="-205.5" font-family="Helvetica,sans-Serif" font-size="10.00" fill="grey"> proxyInfo</text>
</g>
<!-- Node8 -->
<g id="Node000008" class="node">
<title>Node8</title>
<g id="a_Node000008"><a xlink:href="../../d4/d04/class_class.html" target="_top" xlink:title="Super root of all classes in Enforce script.">
<polygon fill="white" stroke="#666666" points="917.38,-433 876.62,-433 876.62,-413 917.38,-413 917.38,-433"/>
<text text-anchor="middle" x="897" y="-419.5" font-family="Helvetica,sans-Serif" font-size="10.00">Class</text>
</a>
</g>
</g>
<!-- Node8&#45;&gt;Node5 -->
<g id="edge23_Node000005_Node000008" class="edge">
<title>Node8&#45;&gt;Node5</title>
<g id="a_edge23_Node000005_Node000008"><a xlink:title=" ">
<path fill="none" stroke="#9a32cd" stroke-dasharray="5,2" d="M865.04,-420.85C838.04,-418.62 799.21,-412.33 770,-395 724.66,-368.1 720.59,-349.76 692.75,-305 674.37,-275.45 686.54,-257.67 662,-233 629.17,-200.01 578.51,-181.31 542.18,-171.47"/>
<polygon fill="#9a32cd" stroke="#9a32cd" points="864.46,-424.32 874.67,-421.5 864.93,-417.34 864.46,-424.32"/>
</a>
</g>
<text text-anchor="middle" x="718.62" y="-265.5" font-family="Helvetica,sans-Serif" font-size="10.00" fill="grey"> m_Instance</text>
</g>
<!-- Node8&#45;&gt;Node7 -->
<g id="edge12_Node000007_Node000008" class="edge">
<title>Node8&#45;&gt;Node7</title>
<g id="a_edge12_Node000007_Node000008"><a xlink:title=" ">
<path fill="none" stroke="#9a32cd" stroke-dasharray="5,2" d="M882.48,-404.06C856.14,-371.51 801.36,-303.81 781.44,-279.2"/>
<polygon fill="#9a32cd" stroke="#9a32cd" points="879.71,-406.2 888.72,-411.77 885.15,-401.79 879.71,-406.2"/>
</a>
</g>
<text text-anchor="middle" x="899.62" y="-355.5" font-family="Helvetica,sans-Serif" font-size="10.00" fill="grey"> m_Instance</text>
</g>
<!-- Node8&#45;&gt;Node10 -->
<g id="edge19_Node000010_Node000008" class="edge">
<title>Node8&#45;&gt;Node10</title>
<g id="a_edge19_Node000010_Node000008"><a xlink:title=" ">
<path fill="none" stroke="#9a32cd" stroke-dasharray="5,2" d="M928.87,-418.68C958.39,-414.87 999.17,-407.48 1009,-395 1028.8,-369.86 1012.15,-354.84 1009,-323 1004.98,-282.41 1013.52,-267.01 991,-233 969.02,-199.8 926.33,-181.16 894.61,-171.4"/>
<polygon fill="#9a32cd" stroke="#9a32cd" points="928.82,-415.16 919.31,-419.83 929.66,-422.11 928.82,-415.16"/>
</a>
</g>
<text text-anchor="middle" x="1033.62" y="-265.5" font-family="Helvetica,sans-Serif" font-size="10.00" fill="grey"> m_Instance</text>
</g>
<!-- Node9 -->
<g id="Node000009" class="node">
<title>Node9</title>
<g id="a_Node000009"><a xlink:href="../../dd/d0a/class_widget.html" target="_top" xlink:title=" ">
<polygon fill="white" stroke="#666666" points="458.38,-433 411.62,-433 411.62,-413 458.38,-413 458.38,-433"/>
<text text-anchor="middle" x="435" y="-419.5" font-family="Helvetica,sans-Serif" font-size="10.00">Widget</text>
</a>
</g>
</g>
<!-- Node9&#45;&gt;Node5 -->
<g id="edge25_Node000005_Node000009" class="edge">
<title>Node9&#45;&gt;Node5</title>
<g id="a_edge25_Node000005_Node000009"><a xlink:title=" ">
<path fill="none" stroke="#9a32cd" stroke-dasharray="5,2" d="M414.5,-405.38C375.5,-371.7 297.86,-293.46 337.25,-233 362.65,-194.02 414.83,-176.28 452.87,-168.32"/>
<polygon fill="#9a32cd" stroke="#9a32cd" points="412,-407.84 421.9,-411.61 416.51,-402.49 412,-407.84"/>
</a>
</g>
<text text-anchor="middle" x="355.38" y="-265.5" font-family="Helvetica,sans-Serif" font-size="10.00" fill="grey"> m_Root</text>
</g>
<!-- Node9&#45;&gt;Node7 -->
<g id="edge14_Node000007_Node000009" class="edge">
<title>Node9&#45;&gt;Node7</title>
<g id="a_edge14_Node000007_Node000009"><a xlink:title=" ">
<path fill="none" stroke="#9a32cd" stroke-dasharray="5,2" d="M469.87,-419.16C500.85,-415.83 546.99,-408.9 585,-395 660.17,-367.5 678.21,-354.65 741,-305 750.7,-297.33 760.21,-286.83 766.51,-279.34"/>
<polygon fill="#9a32cd" stroke="#9a32cd" points="469.89,-415.64 460.29,-420.11 470.59,-422.6 469.89,-415.64"/>
</a>
</g>
<text text-anchor="middle" x="734.38" y="-355.5" font-family="Helvetica,sans-Serif" font-size="10.00" fill="grey"> m_Root</text>
</g>
<!-- Node9&#45;&gt;Node10 -->
<g id="edge21_Node000010_Node000009" class="edge">
<title>Node9&#45;&gt;Node10</title>
<g id="a_edge21_Node000010_Node000009"><a xlink:title=" ">
<path fill="none" stroke="#9a32cd" stroke-dasharray="5,2" d="M431.84,-401.37C429.69,-379.24 430.06,-344.41 449,-323 469.43,-299.91 492.54,-325.01 516,-305 542.68,-282.25 521.25,-255.37 548.25,-233 588.08,-200 736.66,-176.99 811.43,-167.23"/>
<polygon fill="#9a32cd" stroke="#9a32cd" points="428.36,-401.75 433.09,-411.23 435.31,-400.87 428.36,-401.75"/>
</a>
</g>
<text text-anchor="middle" x="566.38" y="-265.5" font-family="Helvetica,sans-Serif" font-size="10.00" fill="grey"> m_Root</text>
</g>
<!-- Node10&#45;&gt;Node7 -->
<g id="edge15_Node000007_Node000010" class="edge">
<title>Node10&#45;&gt;Node7</title>
<g id="a_edge15_Node000007_Node000010"><a xlink:title=" ">
<path fill="none" stroke="#9a32cd" stroke-dasharray="5,2" d="M849.02,-182.16C845.37,-192.54 840.04,-205.07 833,-215 820.35,-232.87 800.65,-248.98 787.54,-258.63"/>
<polygon fill="#9a32cd" stroke="#9a32cd" points="852.33,-183.28 852.07,-172.69 845.67,-181.13 852.33,-183.28"/>
</a>
</g>
<text text-anchor="middle" x="870.5" y="-205.5" font-family="Helvetica,sans-Serif" font-size="10.00" fill="grey"> m_Subgroups</text>
</g>
<!-- Node10&#45;&gt;Node10 -->
<g id="edge22_Node000010_Node000010" class="edge">
<title>Node10&#45;&gt;Node10</title>
<g id="a_edge22_Node000010_Node000010"><a xlink:title=" ">
<path fill="none" stroke="#9a32cd" stroke-dasharray="5,2" d="M909.63,-167.72C913.73,-166.22 916.25,-163.98 916.25,-161 916.25,-155.84 908.71,-152.9 898.49,-152.18"/>
<polygon fill="#9a32cd" stroke="#9a32cd" points="909.16,-164.25 899.98,-169.54 910.45,-171.13 909.16,-164.25"/>
</a>
</g>
<text text-anchor="middle" x="947.75" y="-157.5" font-family="Helvetica,sans-Serif" font-size="10.00" fill="grey"> m_Subgroups</text>
</g>
</g>
</svg>
