<?xml version="1.0" encoding="UTF-8" standalone="no"?>
<!DOCTYPE svg PUBLIC "-//W3C//DTD SVG 1.1//EN"
 "http://www.w3.org/Graphics/SVG/1.1/DTD/svg11.dtd">
<!-- Generated by graphviz version 11.0.0 (20240428.1522)
 -->
<!-- Title: MimeMask_Female Pages: 1 -->
<svg width="110pt" height="196pt"
 viewBox="0.00 0.00 109.50 196.00" xmlns="http://www.w3.org/2000/svg" xmlns:xlink="http://www.w3.org/1999/xlink">

<svg id="main" version="1.1" xmlns="http://www.w3.org/2000/svg" xmlns:xlink="http://www.w3.org/1999/xlink" xml:space="preserve" onload="init(evt)">
<style type="text/css"><![CDATA[
.node, .edge {opacity: 0.7;}
.node.selected, .edge.selected {opacity: 1;}
.edge:hover path { stroke: red; }
.edge:hover polygon { stroke: red; fill: red; }
]]></style>
<script type="application/ecmascript" xlink:href="../../svg.min.js"/>
<svg id="graph" class="graph">
<g id="graph0" class="graph" transform="scale(1 1) rotate(0) translate(4 192)">
<title>MimeMask_Female</title>
<!-- Node1 -->
<g id="Node000001" class="node">
<title>Node1</title>
<g id="a_Node000001"><a xlink:title=" ">
<polygon fill="#999999" stroke="#666666" points="101.5,-20 0,-20 0,0 101.5,0 101.5,-20"/>
<text text-anchor="middle" x="50.75" y="-6.5" font-family="Helvetica,sans-Serif" font-size="10.00">MimeMask_Female</text>
</a>
</g>
</g>
<!-- Node2 -->
<g id="Node000002" class="node">
<title>Node2</title>
<g id="a_Node000002"><a xlink:href="../../db/d0f/class_mime_mask___male.html" target="_top" xlink:title=" ">
<polygon fill="white" stroke="#666666" points="95.88,-76 5.62,-76 5.62,-56 95.88,-56 95.88,-76"/>
<text text-anchor="middle" x="50.75" y="-62.5" font-family="Helvetica,sans-Serif" font-size="10.00">MimeMask_Male</text>
</a>
</g>
</g>
<!-- Node2&#45;&gt;Node1 -->
<g id="edge1_Node000001_Node000002" class="edge">
<title>Node2&#45;&gt;Node1</title>
<g id="a_edge1_Node000001_Node000002"><a xlink:title=" ">
<path fill="none" stroke="#8b1a1a" d="M50.75,-44.13C50.75,-35.9 50.75,-26.85 50.75,-20.3"/>
<polygon fill="#8b1a1a" stroke="#8b1a1a" points="47.25,-44.08 50.75,-54.08 54.25,-44.08 47.25,-44.08"/>
</a>
</g>
</g>
<!-- Node3 -->
<g id="Node000003" class="node">
<title>Node3</title>
<g id="a_Node000003"><a xlink:href="../../d6/d01/class_mask___base.html" target="_top" xlink:title="gas mask base">
<polygon fill="white" stroke="#666666" points="84.62,-132 16.88,-132 16.88,-112 84.62,-112 84.62,-132"/>
<text text-anchor="middle" x="50.75" y="-118.5" font-family="Helvetica,sans-Serif" font-size="10.00">Mask_Base</text>
</a>
</g>
</g>
<!-- Node3&#45;&gt;Node2 -->
<g id="edge2_Node000002_Node000003" class="edge">
<title>Node3&#45;&gt;Node2</title>
<g id="a_edge2_Node000002_Node000003"><a xlink:title=" ">
<path fill="none" stroke="#8b1a1a" d="M50.75,-100.13C50.75,-91.9 50.75,-82.85 50.75,-76.3"/>
<polygon fill="#8b1a1a" stroke="#8b1a1a" points="47.25,-100.08 50.75,-110.08 54.25,-100.08 47.25,-100.08"/>
</a>
</g>
</g>
<!-- Node4 -->
<g id="Node000004" class="node">
<title>Node4</title>
<g id="a_Node000004"><a xlink:href="../../d8/d04/class_clothing.html" target="_top" xlink:title=" ">
<polygon fill="white" stroke="#666666" points="76.38,-188 25.12,-188 25.12,-168 76.38,-168 76.38,-188"/>
<text text-anchor="middle" x="50.75" y="-174.5" font-family="Helvetica,sans-Serif" font-size="10.00">Clothing</text>
</a>
</g>
</g>
<!-- Node4&#45;&gt;Node3 -->
<g id="edge3_Node000003_Node000004" class="edge">
<title>Node4&#45;&gt;Node3</title>
<g id="a_edge3_Node000003_Node000004"><a xlink:title=" ">
<path fill="none" stroke="#8b1a1a" d="M50.75,-156.13C50.75,-147.9 50.75,-138.85 50.75,-132.3"/>
<polygon fill="#8b1a1a" stroke="#8b1a1a" points="47.25,-156.08 50.75,-166.08 54.25,-156.08 47.25,-156.08"/>
</a>
</g>
</g>
</g>
</svg>
</svg>

<style type='text/css'>
<![CDATA[
[data-mouse-over-selected='false'] { opacity: 0.7; }
[data-mouse-over-selected='true']  { opacity: 1.0; }
]]>
</style>
<script type="application/ecmascript"><![CDATA[
document.addEventListener('DOMContentLoaded', (event) => {
  highlightEdges();
  highlightAdjacentNodes();
});
]]></script>
</svg>
