<?xml version="1.0" encoding="UTF-8" standalone="no"?>
<!DOCTYPE svg PUBLIC "-//W3C//DTD SVG 1.1//EN"
 "http://www.w3.org/Graphics/SVG/1.1/DTD/svg11.dtd">
<!-- Generated by graphviz version 11.0.0 (20240428.1522)
 -->
<!-- Title: NotifierBase Pages: 1 -->
<svg width="206pt" height="522pt"
 viewBox="0.00 0.00 205.75 522.00" xmlns="http://www.w3.org/2000/svg" xmlns:xlink="http://www.w3.org/1999/xlink">
<g id="graph0" class="graph" transform="scale(1 1) rotate(0) translate(4 518)">
<title>NotifierBase</title>
<!-- Node1 -->
<g id="Node000001" class="node">
<title>Node1</title>
<g id="a_Node000001"><a xlink:title=" ">
<polygon fill="#999999" stroke="#666666" points="68.5,-267 0,-267 0,-247 68.5,-247 68.5,-267"/>
<text text-anchor="middle" x="34.25" y="-253.5" font-family="Helvetica,sans-Serif" font-size="10.00">NotifierBase</text>
</a>
</g>
</g>
<!-- Node2 -->
<g id="Node000002" class="node">
<title>Node2</title>
<g id="a_Node000002"><a xlink:href="../../d2/d03/class_bleeding_notfr.html" target="_top" xlink:title=" ">
<polygon fill="white" stroke="#666666" points="188,-514 114.25,-514 114.25,-494 188,-494 188,-514"/>
<text text-anchor="middle" x="151.12" y="-500.5" font-family="Helvetica,sans-Serif" font-size="10.00">BleedingNotfr</text>
</a>
</g>
</g>
<!-- Node1&#45;&gt;Node2 -->
<g id="edge1_Node000001_Node000002" class="edge">
<title>Node1&#45;&gt;Node2</title>
<g id="a_edge1_Node000001_Node000002"><a xlink:title=" ">
<path fill="none" stroke="#8b1a1a" d="M35.91,-278.7C38.39,-323.03 50.06,-424.84 104.5,-485 107.61,-488.44 111.44,-491.27 115.54,-493.6"/>
<polygon fill="#8b1a1a" stroke="#8b1a1a" points="39.41,-278.7 35.48,-268.86 32.42,-279.01 39.41,-278.7"/>
</a>
</g>
</g>
<!-- Node3 -->
<g id="Node000003" class="node">
<title>Node3</title>
<g id="a_Node000003"><a xlink:href="../../df/d0f/class_blood_notfr.html" target="_top" xlink:title=" ">
<polygon fill="white" stroke="#666666" points="181.62,-476 120.62,-476 120.62,-456 181.62,-456 181.62,-476"/>
<text text-anchor="middle" x="151.12" y="-462.5" font-family="Helvetica,sans-Serif" font-size="10.00">BloodNotfr</text>
</a>
</g>
</g>
<!-- Node1&#45;&gt;Node3 -->
<g id="edge2_Node000001_Node000003" class="edge">
<title>Node1&#45;&gt;Node3</title>
<g id="a_edge2_Node000001_Node000003"><a xlink:title=" ">
<path fill="none" stroke="#8b1a1a" d="M37.46,-278.47C42.51,-317.08 58.29,-398.66 104.5,-447 108.89,-451.59 114.55,-455.11 120.39,-457.8"/>
<polygon fill="#8b1a1a" stroke="#8b1a1a" points="40.94,-278.17 36.3,-268.64 33.99,-278.98 40.94,-278.17"/>
</a>
</g>
</g>
<!-- Node4 -->
<g id="Node000004" class="node">
<title>Node4</title>
<g id="a_Node000004"><a xlink:href="../../db/d07/class_fever_notfr.html" target="_top" xlink:title=" ">
<polygon fill="white" stroke="#666666" points="180.88,-438 121.38,-438 121.38,-418 180.88,-418 180.88,-438"/>
<text text-anchor="middle" x="151.12" y="-424.5" font-family="Helvetica,sans-Serif" font-size="10.00">FeverNotfr</text>
</a>
</g>
</g>
<!-- Node1&#45;&gt;Node4 -->
<g id="edge3_Node000001_Node000004" class="edge">
<title>Node1&#45;&gt;Node4</title>
<g id="a_edge3_Node000001_Node000004"><a xlink:title=" ">
<path fill="none" stroke="#8b1a1a" d="M39.67,-278.21C47.43,-310.51 66.43,-372.17 104.5,-409 109.19,-413.53 115.11,-417.05 121.13,-419.75"/>
<polygon fill="#8b1a1a" stroke="#8b1a1a" points="43.18,-277.84 37.56,-268.85 36.35,-279.38 43.18,-277.84"/>
</a>
</g>
</g>
<!-- Node5 -->
<g id="Node000005" class="node">
<title>Node5</title>
<g id="a_Node000005"><a xlink:href="../../d3/d0e/class_fractured_leg_notfr.html" target="_top" xlink:title=" ">
<polygon fill="white" stroke="#666666" points="197.75,-400 104.5,-400 104.5,-380 197.75,-380 197.75,-400"/>
<text text-anchor="middle" x="151.12" y="-386.5" font-family="Helvetica,sans-Serif" font-size="10.00">FracturedLegNotfr</text>
</a>
</g>
</g>
<!-- Node1&#45;&gt;Node5 -->
<g id="edge4_Node000001_Node000005" class="edge">
<title>Node1&#45;&gt;Node5</title>
<g id="a_edge4_Node000001_Node000005"><a xlink:title=" ">
<path fill="none" stroke="#8b1a1a" d="M43.16,-277.85C53.67,-303.03 74.48,-345.21 104.5,-371 108.41,-374.35 112.99,-377.18 117.71,-379.54"/>
<polygon fill="#8b1a1a" stroke="#8b1a1a" points="46.47,-276.7 39.51,-268.71 39.97,-279.29 46.47,-276.7"/>
</a>
</g>
</g>
<!-- Node6 -->
<g id="Node000006" class="node">
<title>Node6</title>
<g id="a_Node000006"><a xlink:href="../../d0/d03/class_health_notfr.html" target="_top" xlink:title=" ">
<polygon fill="white" stroke="#666666" points="183.12,-362 119.12,-362 119.12,-342 183.12,-342 183.12,-362"/>
<text text-anchor="middle" x="151.12" y="-348.5" font-family="Helvetica,sans-Serif" font-size="10.00">HealthNotfr</text>
</a>
</g>
</g>
<!-- Node1&#45;&gt;Node6 -->
<g id="edge5_Node000001_Node000006" class="edge">
<title>Node1&#45;&gt;Node6</title>
<g id="a_edge5_Node000001_Node000006"><a xlink:title=" ">
<path fill="none" stroke="#8b1a1a" d="M49.02,-276.38C61.8,-293.21 82.17,-317.28 104.5,-333 109.13,-336.26 114.41,-339.1 119.69,-341.52"/>
<polygon fill="#8b1a1a" stroke="#8b1a1a" points="52.07,-274.62 43.31,-268.65 46.43,-278.77 52.07,-274.62"/>
</a>
</g>
</g>
<!-- Node7 -->
<g id="Node000007" class="node">
<title>Node7</title>
<g id="a_Node000007"><a xlink:href="../../d8/d0c/class_heartbeat_notfr.html" target="_top" xlink:title=" ">
<polygon fill="white" stroke="#666666" points="190.25,-324 112,-324 112,-304 190.25,-304 190.25,-324"/>
<text text-anchor="middle" x="151.12" y="-310.5" font-family="Helvetica,sans-Serif" font-size="10.00">HeartbeatNotfr</text>
</a>
</g>
</g>
<!-- Node1&#45;&gt;Node7 -->
<g id="edge6_Node000001_Node000007" class="edge">
<title>Node1&#45;&gt;Node7</title>
<g id="a_edge6_Node000001_Node000007"><a xlink:title=" ">
<path fill="none" stroke="#8b1a1a" d="M62.77,-272.99C75.33,-280.05 90.5,-288.27 104.5,-295 110.69,-297.97 117.46,-300.95 123.85,-303.62"/>
<polygon fill="#8b1a1a" stroke="#8b1a1a" points="64.65,-270.03 54.23,-268.13 61.19,-276.11 64.65,-270.03"/>
</a>
</g>
</g>
<!-- Node8 -->
<g id="Node000008" class="node">
<title>Node8</title>
<g id="a_Node000008"><a xlink:href="../../d4/d0a/class_hunger_notfr.html" target="_top" xlink:title=" ">
<polygon fill="white" stroke="#666666" points="184.62,-286 117.62,-286 117.62,-266 184.62,-266 184.62,-286"/>
<text text-anchor="middle" x="151.12" y="-272.5" font-family="Helvetica,sans-Serif" font-size="10.00">HungerNotfr</text>
</a>
</g>
</g>
<!-- Node1&#45;&gt;Node8 -->
<g id="edge7_Node000001_Node000008" class="edge">
<title>Node1&#45;&gt;Node8</title>
<g id="a_edge7_Node000001_Node000008"><a xlink:title=" ">
<path fill="none" stroke="#8b1a1a" d="M79.87,-264.38C92.28,-266.43 105.53,-268.62 117.14,-270.54"/>
<polygon fill="#8b1a1a" stroke="#8b1a1a" points="80.72,-260.97 70.28,-262.79 79.57,-267.88 80.72,-260.97"/>
</a>
</g>
</g>
<!-- Node9 -->
<g id="Node000009" class="node">
<title>Node9</title>
<g id="a_Node000009"><a xlink:href="../../db/d06/class_injured_leg_notfr.html" target="_top" xlink:title=" ">
<polygon fill="white" stroke="#666666" points="191.38,-248 110.88,-248 110.88,-228 191.38,-228 191.38,-248"/>
<text text-anchor="middle" x="151.12" y="-234.5" font-family="Helvetica,sans-Serif" font-size="10.00">InjuredLegNotfr</text>
</a>
</g>
</g>
<!-- Node1&#45;&gt;Node9 -->
<g id="edge8_Node000001_Node000009" class="edge">
<title>Node1&#45;&gt;Node9</title>
<g id="a_edge8_Node000001_Node000009"><a xlink:title=" ">
<path fill="none" stroke="#8b1a1a" d="M79.92,-249.61C90.06,-247.93 100.76,-246.16 110.67,-244.53"/>
<polygon fill="#8b1a1a" stroke="#8b1a1a" points="79.57,-246.12 70.28,-251.21 80.72,-253.03 79.57,-246.12"/>
</a>
</g>
</g>
<!-- Node10 -->
<g id="Node000010" class="node">
<title>Node10</title>
<g id="a_Node000010"><a xlink:href="../../df/d03/class_pills_notfr.html" target="_top" xlink:title=" ">
<polygon fill="white" stroke="#666666" points="178.62,-210 123.62,-210 123.62,-190 178.62,-190 178.62,-210"/>
<text text-anchor="middle" x="151.12" y="-196.5" font-family="Helvetica,sans-Serif" font-size="10.00">PillsNotfr</text>
</a>
</g>
</g>
<!-- Node1&#45;&gt;Node10 -->
<g id="edge9_Node000001_Node000010" class="edge">
<title>Node1&#45;&gt;Node10</title>
<g id="a_edge9_Node000001_Node000010"><a xlink:title=" ">
<path fill="none" stroke="#8b1a1a" d="M62.77,-241.01C75.33,-233.95 90.5,-225.73 104.5,-219 110.69,-216.03 117.46,-213.05 123.85,-210.38"/>
<polygon fill="#8b1a1a" stroke="#8b1a1a" points="61.19,-237.89 54.23,-245.87 64.65,-243.97 61.19,-237.89"/>
</a>
</g>
</g>
<!-- Node11 -->
<g id="Node000011" class="node">
<title>Node11</title>
<g id="a_Node000011"><a xlink:href="../../d9/d0d/class_sick_notfr.html" target="_top" xlink:title=" ">
<polygon fill="white" stroke="#666666" points="179,-172 123.25,-172 123.25,-152 179,-152 179,-172"/>
<text text-anchor="middle" x="151.12" y="-158.5" font-family="Helvetica,sans-Serif" font-size="10.00">SickNotfr</text>
</a>
</g>
</g>
<!-- Node1&#45;&gt;Node11 -->
<g id="edge10_Node000001_Node000011" class="edge">
<title>Node1&#45;&gt;Node11</title>
<g id="a_edge10_Node000001_Node000011"><a xlink:title=" ">
<path fill="none" stroke="#8b1a1a" d="M49.02,-237.62C61.8,-220.79 82.17,-196.72 104.5,-181 110.11,-177.05 116.67,-173.71 123.04,-170.99"/>
<polygon fill="#8b1a1a" stroke="#8b1a1a" points="46.43,-235.23 43.31,-245.35 52.07,-239.38 46.43,-235.23"/>
</a>
</g>
</g>
<!-- Node12 -->
<g id="Node000012" class="node">
<title>Node12</title>
<g id="a_Node000012"><a xlink:href="../../d7/d09/class_stuffed_notfr.html" target="_top" xlink:title=" ">
<polygon fill="white" stroke="#666666" points="184.25,-134 118,-134 118,-114 184.25,-114 184.25,-134"/>
<text text-anchor="middle" x="151.12" y="-120.5" font-family="Helvetica,sans-Serif" font-size="10.00">StuffedNotfr</text>
</a>
</g>
</g>
<!-- Node1&#45;&gt;Node12 -->
<g id="edge11_Node000001_Node000012" class="edge">
<title>Node1&#45;&gt;Node12</title>
<g id="a_edge11_Node000001_Node000012"><a xlink:title=" ">
<path fill="none" stroke="#8b1a1a" d="M43.16,-236.15C53.67,-210.97 74.48,-168.79 104.5,-143 108.41,-139.65 112.99,-136.82 117.71,-134.46"/>
<polygon fill="#8b1a1a" stroke="#8b1a1a" points="39.97,-234.71 39.51,-245.29 46.47,-237.3 39.97,-234.71"/>
</a>
</g>
</g>
<!-- Node13 -->
<g id="Node000013" class="node">
<title>Node13</title>
<g id="a_Node000013"><a xlink:href="../../da/d06/class_thirst_notfr.html" target="_top" xlink:title=" ">
<polygon fill="white" stroke="#666666" points="181.25,-96 121,-96 121,-76 181.25,-76 181.25,-96"/>
<text text-anchor="middle" x="151.12" y="-82.5" font-family="Helvetica,sans-Serif" font-size="10.00">ThirstNotfr</text>
</a>
</g>
</g>
<!-- Node1&#45;&gt;Node13 -->
<g id="edge12_Node000001_Node000013" class="edge">
<title>Node1&#45;&gt;Node13</title>
<g id="a_edge12_Node000001_Node000013"><a xlink:title=" ">
<path fill="none" stroke="#8b1a1a" d="M39.67,-235.79C47.43,-203.49 66.43,-141.83 104.5,-105 109.06,-100.58 114.8,-97.13 120.65,-94.46"/>
<polygon fill="#8b1a1a" stroke="#8b1a1a" points="36.35,-234.62 37.56,-245.15 43.18,-236.16 36.35,-234.62"/>
</a>
</g>
</g>
<!-- Node14 -->
<g id="Node000014" class="node">
<title>Node14</title>
<g id="a_Node000014"><a xlink:href="../../d8/d04/class_warmth_notfr.html" target="_top" xlink:title=" ">
<polygon fill="white" stroke="#666666" points="186.5,-58 115.75,-58 115.75,-38 186.5,-38 186.5,-58"/>
<text text-anchor="middle" x="151.12" y="-44.5" font-family="Helvetica,sans-Serif" font-size="10.00">WarmthNotfr</text>
</a>
</g>
</g>
<!-- Node1&#45;&gt;Node14 -->
<g id="edge13_Node000001_Node000014" class="edge">
<title>Node1&#45;&gt;Node14</title>
<g id="a_edge13_Node000001_Node000014"><a xlink:title=" ">
<path fill="none" stroke="#8b1a1a" d="M37.46,-235.53C42.51,-196.92 58.29,-115.34 104.5,-67 107.82,-63.53 111.87,-60.66 116.17,-58.31"/>
<polygon fill="#8b1a1a" stroke="#8b1a1a" points="33.99,-235.02 36.3,-245.36 40.94,-235.83 33.99,-235.02"/>
</a>
</g>
</g>
<!-- Node15 -->
<g id="Node000015" class="node">
<title>Node15</title>
<g id="a_Node000015"><a xlink:href="../../d1/d0a/class_wetness_notfr.html" target="_top" xlink:title=" ">
<polygon fill="white" stroke="#666666" points="188.75,-20 113.5,-20 113.5,0 188.75,0 188.75,-20"/>
<text text-anchor="middle" x="151.12" y="-6.5" font-family="Helvetica,sans-Serif" font-size="10.00">WetnessNotfr</text>
</a>
</g>
</g>
<!-- Node1&#45;&gt;Node15 -->
<g id="edge14_Node000001_Node000015" class="edge">
<title>Node1&#45;&gt;Node15</title>
<g id="a_edge14_Node000001_Node000015"><a xlink:title=" ">
<path fill="none" stroke="#8b1a1a" d="M35.91,-235.3C38.39,-190.97 50.06,-89.16 104.5,-29 107.61,-25.56 111.44,-22.73 115.54,-20.4"/>
<polygon fill="#8b1a1a" stroke="#8b1a1a" points="32.42,-234.99 35.48,-245.14 39.41,-235.3 32.42,-234.99"/>
</a>
</g>
</g>
</g>
</svg>
