<?xml version="1.0" encoding="UTF-8" standalone="no"?>
<!DOCTYPE svg PUBLIC "-//W3C//DTD SVG 1.1//EN"
 "http://www.w3.org/Graphics/SVG/1.1/DTD/svg11.dtd">
<!-- Generated by graphviz version 11.0.0 (20240428.1522)
 -->
<!-- Title: ActionRepairShelter Pages: 1 -->
<svg width="311pt" height="300pt"
 viewBox="0.00 0.00 311.12 300.00" xmlns="http://www.w3.org/2000/svg" xmlns:xlink="http://www.w3.org/1999/xlink">
<g id="graph0" class="graph" transform="scale(1 1) rotate(0) translate(4 296)">
<title>ActionRepairShelter</title>
<!-- Node1 -->
<g id="Node000001" class="node">
<title>Node1</title>
<g id="a_Node000001"><a xlink:title=" ">
<polygon fill="#999999" stroke="#666666" points="221.25,-20 119,-20 119,0 221.25,0 221.25,-20"/>
<text text-anchor="middle" x="170.12" y="-6.5" font-family="Helvetica,sans-Serif" font-size="10.00">ActionRepairShelter</text>
</a>
</g>
</g>
<!-- Node2 -->
<g id="Node000002" class="node">
<title>Node2</title>
<g id="a_Node000002"><a xlink:href="../../da/d0f/class_action_repair_tent.html" target="_top" xlink:title=" ">
<polygon fill="white" stroke="#666666" points="215.25,-76 125,-76 125,-56 215.25,-56 215.25,-76"/>
<text text-anchor="middle" x="170.12" y="-62.5" font-family="Helvetica,sans-Serif" font-size="10.00">ActionRepairTent</text>
</a>
</g>
</g>
<!-- Node2&#45;&gt;Node1 -->
<g id="edge1_Node000001_Node000002" class="edge">
<title>Node2&#45;&gt;Node1</title>
<g id="a_edge1_Node000001_Node000002"><a xlink:title=" ">
<path fill="none" stroke="#8b1a1a" d="M170.12,-44.13C170.12,-35.9 170.12,-26.85 170.12,-20.3"/>
<polygon fill="#8b1a1a" stroke="#8b1a1a" points="166.63,-44.08 170.13,-54.08 173.63,-44.08 166.63,-44.08"/>
</a>
</g>
</g>
<!-- Node3 -->
<g id="Node000003" class="node">
<title>Node3</title>
<g id="a_Node000003"><a xlink:href="../../d6/d0f/class_action_continuous_base.html" target="_top" xlink:title=" ">
<polygon fill="white" stroke="#666666" points="134.62,-144 19.62,-144 19.62,-124 134.62,-124 134.62,-144"/>
<text text-anchor="middle" x="77.12" y="-130.5" font-family="Helvetica,sans-Serif" font-size="10.00">ActionContinuousBase</text>
</a>
</g>
</g>
<!-- Node3&#45;&gt;Node2 -->
<g id="edge2_Node000002_Node000003" class="edge">
<title>Node3&#45;&gt;Node2</title>
<g id="a_edge2_Node000002_Node000003"><a xlink:title=" ">
<path fill="none" stroke="#8b1a1a" d="M99.61,-117.04C117.5,-104.35 141.92,-87.02 156.83,-76.44"/>
<polygon fill="#8b1a1a" stroke="#8b1a1a" points="97.81,-114.03 91.68,-122.67 101.86,-119.73 97.81,-114.03"/>
</a>
</g>
</g>
<!-- Node4 -->
<g id="Node000004" class="node">
<title>Node4</title>
<g id="a_Node000004"><a xlink:href="../../d7/d04/class_animated_action_base.html" target="_top" xlink:title=" ">
<polygon fill="white" stroke="#666666" points="109.88,-212 2.38,-212 2.38,-192 109.88,-192 109.88,-212"/>
<text text-anchor="middle" x="56.12" y="-198.5" font-family="Helvetica,sans-Serif" font-size="10.00">AnimatedActionBase</text>
</a>
</g>
</g>
<!-- Node4&#45;&gt;Node3 -->
<g id="edge3_Node000003_Node000004" class="edge">
<title>Node4&#45;&gt;Node3</title>
<g id="a_edge3_Node000003_Node000004"><a xlink:title=" ">
<path fill="none" stroke="#8b1a1a" d="M62.6,-180.65C66.44,-168.58 71.13,-153.84 74.12,-144.44"/>
<polygon fill="#8b1a1a" stroke="#8b1a1a" points="59.29,-179.51 59.59,-190.1 65.96,-181.63 59.29,-179.51"/>
</a>
</g>
</g>
<!-- Node5 -->
<g id="Node000005" class="node">
<title>Node5</title>
<g id="a_Node000005"><a xlink:title=" ">
<polygon fill="white" stroke="#666666" points="66.25,-292 0,-292 0,-272 66.25,-272 66.25,-292"/>
<text text-anchor="middle" x="33.12" y="-278.5" font-family="Helvetica,sans-Serif" font-size="10.00">ActionBase</text>
</a>
</g>
</g>
<!-- Node5&#45;&gt;Node4 -->
<g id="edge4_Node000004_Node000005" class="edge">
<title>Node5&#45;&gt;Node4</title>
<g id="a_edge4_Node000004_Node000005"><a xlink:title=" ">
<path fill="none" stroke="#8b1a1a" d="M35.89,-260.69C37.48,-251.22 39.84,-239.88 43.12,-230 45.16,-223.88 48.28,-217.35 50.94,-212.25"/>
<polygon fill="#8b1a1a" stroke="#8b1a1a" points="32.47,-259.88 34.44,-270.29 39.39,-260.93 32.47,-259.88"/>
</a>
</g>
</g>
<!-- Node6 -->
<g id="Node000006" class="node">
<title>Node6</title>
<g id="a_Node000006"><a xlink:href="../../db/d06/class_param3.html" target="_top" xlink:title=" ">
<polygon fill="white" stroke="#666666" points="164,-292 114.25,-292 114.25,-272 164,-272 164,-292"/>
<text text-anchor="middle" x="139.12" y="-278.5" font-family="Helvetica,sans-Serif" font-size="10.00">Param3</text>
</a>
</g>
</g>
<!-- Node6&#45;&gt;Node2 -->
<g id="edge8_Node000002_Node000006" class="edge">
<title>Node6&#45;&gt;Node2</title>
<g id="a_edge8_Node000002_Node000006"><a xlink:title=" ">
<path fill="none" stroke="#9a32cd" stroke-dasharray="5,2" d="M152.7,-261.89C154.05,-259.33 155.25,-256.66 156.12,-254 177.62,-188.76 173.19,-104.03 170.97,-76.26"/>
<polygon fill="#9a32cd" stroke="#9a32cd" points="149.78,-259.96 147.46,-270.3 155.72,-263.66 149.78,-259.96"/>
</a>
</g>
<text text-anchor="middle" x="236" y="-164.5" font-family="Helvetica,sans-Serif" font-size="10.00" fill="grey"> m_LastValidComponentIndex</text>
</g>
<!-- Node6&#45;&gt;Node4 -->
<g id="edge5_Node000004_Node000006" class="edge">
<title>Node6&#45;&gt;Node4</title>
<g id="a_edge5_Node000004_Node000006"><a xlink:title=" ">
<path fill="none" stroke="#9a32cd" stroke-dasharray="5,2" d="M102.75,-278.37C86.07,-275.15 67.69,-268.3 57.12,-254 48.18,-241.89 50.67,-223.37 53.36,-212.3"/>
<polygon fill="#9a32cd" stroke="#9a32cd" points="102.01,-281.8 112.42,-279.85 103.06,-274.88 102.01,-281.8"/>
</a>
</g>
<text text-anchor="middle" x="106.62" y="-244.5" font-family="Helvetica,sans-Serif" font-size="10.00" fill="grey"> m_CommandUID</text>
<text text-anchor="middle" x="106.62" y="-232.5" font-family="Helvetica,sans-Serif" font-size="10.00" fill="grey">m_CommandUIDProne</text>
</g>
<!-- Node7 -->
<g id="Node000007" class="node">
<title>Node7</title>
<g id="a_Node000007"><a xlink:href="../../d5/d02/classstring.html" target="_top" xlink:title=" ">
<polygon fill="white" stroke="#666666" points="238.12,-144 198.12,-144 198.12,-124 238.12,-124 238.12,-144"/>
<text text-anchor="middle" x="218.12" y="-130.5" font-family="Helvetica,sans-Serif" font-size="10.00">string</text>
</a>
</g>
</g>
<!-- Node7&#45;&gt;Node2 -->
<g id="edge6_Node000002_Node000007" class="edge">
<title>Node7&#45;&gt;Node2</title>
<g id="a_edge6_Node000002_Node000007"><a xlink:title=" ">
<path fill="none" stroke="#9a32cd" stroke-dasharray="5,2" d="M204.68,-114.52C195.67,-102.13 184.18,-86.33 176.99,-76.44"/>
<polygon fill="#9a32cd" stroke="#9a32cd" points="201.65,-116.29 210.36,-122.32 207.31,-112.17 201.65,-116.29"/>
</a>
</g>
<text text-anchor="middle" x="250.62" y="-96.5" font-family="Helvetica,sans-Serif" font-size="10.00" fill="grey"> m_CurrentDamageZone</text>
</g>
<!-- Node7&#45;&gt;Node7 -->
<g id="edge7_Node000007_Node000007" class="edge">
<title>Node7&#45;&gt;Node7</title>
<g id="a_edge7_Node000007_Node000007"><a xlink:title=" ">
<path fill="none" stroke="#9a32cd" stroke-dasharray="5,2" d="M249.88,-139.47C253.66,-138.48 256.12,-136.65 256.12,-134 256.12,-129.15 247.89,-127.07 238.45,-127.75"/>
<polygon fill="#9a32cd" stroke="#9a32cd" points="249.7,-135.98 239.96,-140.15 250.18,-142.96 249.7,-135.98"/>
</a>
</g>
<text text-anchor="middle" x="271.88" y="-130.5" font-family="Helvetica,sans-Serif" font-size="10.00" fill="grey"> Empty</text>
</g>
</g>
</svg>
