<?xml version="1.0" encoding="UTF-8" standalone="no"?>
<!DOCTYPE svg PUBLIC "-//W3C//DTD SVG 1.1//EN"
 "http://www.w3.org/Graphics/SVG/1.1/DTD/svg11.dtd">
<!-- Generated by graphviz version 11.0.0 (20240428.1522)
 -->
<!-- Title: PluginDayzPlayerDebug_Weapons Pages: 1 -->
<!--zoomable 975 -->

<svg id="main" version="1.1" xmlns="http://www.w3.org/2000/svg" xmlns:xlink="http://www.w3.org/1999/xlink" xml:space="preserve" onload="init(evt)">
<style type="text/css"><![CDATA[
.node, .edge {opacity: 0.7;}
.node.selected, .edge.selected {opacity: 1;}
.edge:hover path { stroke: red; }
.edge:hover polygon { stroke: red; fill: red; }
]]></style>

<defs>
  <circle id="rim" cx="0" cy="0" r="7"/>
  <circle id="rim2" cx="0" cy="0" r="3.5"/>
  <g id="zoomPlus">
    <use xlink:href="#rim" fill="#404040"><set attributeName="fill" to="#808080" begin="zoomplus.mouseover" end="zoomplus.mouseout"/></use>
    <path d="M-4,0h8M0,-4v8" fill="none" stroke="white" stroke-width="1.5" pointer-events="none"/>
  </g>
  <g id="zoomMin">
    <use xlink:href="#rim" fill="#404040"><set attributeName="fill" to="#808080" begin="zoomminus.mouseover" end="zoomminus.mouseout"/></use>
    <path d="M-4,0h8" fill="none" stroke="white" stroke-width="1.5" pointer-events="none"/>
  </g>
  <g id="arrowUp" transform="translate(30 24)">
    <use xlink:href="#rim"/>
    <path pointer-events="none" fill="none" stroke="white" stroke-width="1.5" d="M0,-3.0v7 M-2.5,-0.5L0,-3.0L2.5,-0.5"/>
  </g>
  <g id="arrowRight" transform="rotate(90) translate(36 -43)">
    <use xlink:href="#rim"/>
    <path pointer-events="none" fill="none" stroke="white" stroke-width="1.5" d="M0,-3.0v7 M-2.5,-0.5L0,-3.0L2.5,-0.5"/>
  </g>
  <g id="arrowDown" transform="rotate(180) translate(-30 -48)">
    <use xlink:href="#rim"/>
    <path pointer-events="none" fill="none" stroke="white" stroke-width="1.5" d="M0,-3.0v7 M-2.5,-0.5L0,-3.0L2.5,-0.5"/>
  </g>
  <g id="arrowLeft" transform="rotate(270) translate(-36 17)">
    <use xlink:href="#rim"/>
    <path pointer-events="none" fill="none" stroke="white" stroke-width="1.5" d="M0,-3.0v7 M-2.5,-0.5L0,-3.0L2.5,-0.5"/>
  </g>
  <g id="resetDef">
    <use xlink:href="#rim2" fill="#404040"><set attributeName="fill" to="#808080" begin="reset.mouseover" end="reset.mouseout"/></use>
  </g>
</defs>
<script type="application/ecmascript">
var viewWidth = 1217;
var viewHeight = 975;
var sectionId = 'dynsection-0';
</script>
<script type="application/ecmascript" xlink:href="../../svg.min.js"/>
<svg id="graph" class="graph">
<g id="viewport">
<title>PluginDayzPlayerDebug_Weapons</title>
<!-- Node1 -->
<g id="Node000001" class="node">
<title>Node1</title>
<g id="a_Node000001"><a xlink:title=" ">
<polygon fill="#999999" stroke="#666666" points="1209,-592.36 1088,-592.36 1088,-560.36 1209,-560.36 1209,-592.36"/>
<text text-anchor="start" x="1096" y="-578.86" font-family="Helvetica,sans-Serif" font-size="10.00">PluginDayzPlayerDebug</text>
<text text-anchor="middle" x="1148.5" y="-566.86" font-family="Helvetica,sans-Serif" font-size="10.00">_Weapons</text>
</a>
</g>
</g>
<!-- Node2 -->
<g id="Node000002" class="node">
<title>Node2</title>
<g id="a_Node000002"><a xlink:href="../../dd/d0a/class_widget.html" target="_top" xlink:title=" ">
<polygon fill="white" stroke="#666666" points="74.88,-505.36 28.12,-505.36 28.12,-485.36 74.88,-485.36 74.88,-505.36"/>
<text text-anchor="middle" x="51.5" y="-491.86" font-family="Helvetica,sans-Serif" font-size="10.00">Widget</text>
</a>
</g>
</g>
<!-- Node2&#45;&gt;Node1 -->
<g id="edge1_Node000001_Node000002" class="edge">
<title>Node2&#45;&gt;Node1</title>
<g id="a_edge1_Node000001_Node000002"><a xlink:title=" ">
<path fill="none" stroke="#9a32cd" stroke-dasharray="5,2" d="M69.82,-513.59C83.07,-526.95 102.2,-544.99 121,-558.36 176.19,-597.58 189.58,-613.86 255.25,-630.36 560.6,-707.07 942.34,-628.28 1087.62,-592.28"/>
<polygon fill="#9a32cd" stroke="#9a32cd" points="72.57,-511.4 63.08,-506.68 67.56,-516.28 72.57,-511.4"/>
</a>
</g>
<text text-anchor="middle" x="586.38" y="-664.86" font-family="Helvetica,sans-Serif" font-size="10.00" fill="grey"> m_MainWnd</text>
</g>
<!-- Node10 -->
<g id="Node000010" class="node">
<title>Node10</title>
<g id="a_Node000010"><a xlink:href="../../d2/d01/classarray.html" target="_top" xlink:title=" ">
<polygon fill="white" stroke="#666666" points="906.5,-486.36 769,-486.36 769,-454.36 906.5,-454.36 906.5,-486.36"/>
<text text-anchor="start" x="777" y="-472.86" font-family="Helvetica,sans-Serif" font-size="10.00">array&lt; ref PluginDayzPlayer</text>
<text text-anchor="middle" x="837.75" y="-460.86" font-family="Helvetica,sans-Serif" font-size="10.00">Debug_AbilityConfig &gt;</text>
</a>
</g>
</g>
<!-- Node2&#45;&gt;Node10 -->
<g id="edge33_Node000010_Node000002" class="edge">
<title>Node2&#45;&gt;Node10</title>
<g id="a_edge33_Node000010_Node000002"><a xlink:title=" ">
<path fill="none" stroke="#9a32cd" stroke-dasharray="5,2" d="M71.95,-513.03C84.84,-523.5 102.7,-535.78 121,-541.36 170.42,-556.41 185.67,-544.4 237.25,-541.36 430.81,-529.93 657.69,-497.94 768.65,-481.07"/>
<polygon fill="#9a32cd" stroke="#9a32cd" points="74.55,-510.64 64.66,-506.83 70.01,-515.97 74.55,-510.64"/>
</a>
</g>
<text text-anchor="middle" x="447.62" y="-530.86" font-family="Helvetica,sans-Serif" font-size="10.00" fill="grey"> m_Root</text>
</g>
<!-- Node12 -->
<g id="Node000012" class="node">
<title>Node12</title>
<g id="a_Node000012"><a xlink:href="../../d2/d01/classarray.html" target="_top" xlink:title="Result for an object found in CGame.IsBoxCollidingGeometryProxy.">
<polygon fill="white" stroke="#666666" points="332.25,-344.36 294.5,-344.36 294.5,-324.36 332.25,-324.36 332.25,-344.36"/>
<text text-anchor="middle" x="313.38" y="-330.86" font-family="Helvetica,sans-Serif" font-size="10.00">array</text>
</a>
</g>
</g>
<!-- Node2&#45;&gt;Node12 -->
<g id="edge22_Node000012_Node000002" class="edge">
<title>Node2&#45;&gt;Node12</title>
<g id="a_edge22_Node000012_Node000002"><a xlink:title=" ">
<path fill="none" stroke="#9a32cd" stroke-dasharray="5,2" d="M64.12,-475.3C76.17,-456.05 96.64,-427.34 121,-409.36 135.68,-398.52 249.03,-357.14 294.04,-340.92"/>
<polygon fill="#9a32cd" stroke="#9a32cd" points="61.28,-473.22 59.1,-483.59 67.27,-476.85 61.28,-473.22"/>
</a>
</g>
<text text-anchor="middle" x="179.12" y="-411.86" font-family="Helvetica,sans-Serif" font-size="10.00" fill="grey"> m_Root</text>
</g>
<!-- Node14 -->
<g id="Node000014" class="node">
<title>Node14</title>
<g id="a_Node000014"><a xlink:href="../../d2/d01/classarray.html" target="_top" xlink:title=" ">
<polygon fill="white" stroke="#666666" points="629.62,-407.36 543.12,-407.36 543.12,-387.36 629.62,-387.36 629.62,-407.36"/>
<text text-anchor="middle" x="586.38" y="-393.86" font-family="Helvetica,sans-Serif" font-size="10.00">array&lt; Widget &gt;</text>
</a>
</g>
</g>
<!-- Node2&#45;&gt;Node14 -->
<g id="edge29_Node000014_Node000002" class="edge">
<title>Node2&#45;&gt;Node14</title>
<g id="a_edge29_Node000014_Node000002"><a xlink:title=" ">
<path fill="none" stroke="#9a32cd" stroke-dasharray="5,2" d="M72.05,-477.99C84.98,-467.64 102.84,-455.38 121,-449.36 202.25,-422.4 422.23,-449.13 505.75,-430.36 527.07,-425.56 549.97,-415.5 565.71,-407.74"/>
<polygon fill="#9a32cd" stroke="#9a32cd" points="70.17,-475.01 64.74,-484.1 74.66,-480.38 70.17,-475.01"/>
</a>
</g>
<text text-anchor="middle" x="313.38" y="-439.86" font-family="Helvetica,sans-Serif" font-size="10.00" fill="grey"> m_Root</text>
</g>
<!-- Node3 -->
<g id="Node000003" class="node">
<title>Node3</title>
<g id="a_Node000003"><a xlink:href="../../da/d0c/class_text_widget.html" target="_top" xlink:title=" ">
<polygon fill="white" stroke="#666666" points="870.5,-788.36 805,-788.36 805,-768.36 870.5,-768.36 870.5,-788.36"/>
<text text-anchor="middle" x="837.75" y="-774.86" font-family="Helvetica,sans-Serif" font-size="10.00">TextWidget</text>
</a>
</g>
</g>
<!-- Node3&#45;&gt;Node1 -->
<g id="edge2_Node000001_Node000003" class="edge">
<title>Node3&#45;&gt;Node1</title>
<g id="a_edge2_Node000001_Node000003"><a xlink:title=" ">
<path fill="none" stroke="#9a32cd" stroke-dasharray="5,2" d="M881.78,-785.9C931.96,-792.2 1015,-794.61 1070,-754.36 1124.26,-714.64 1141.02,-628.73 1145.77,-592.74"/>
<polygon fill="#9a32cd" stroke="#9a32cd" points="882.57,-782.47 872.19,-784.58 881.62,-789.41 882.57,-782.47"/>
</a>
</g>
<text text-anchor="middle" x="997.25" y="-803.86" font-family="Helvetica,sans-Serif" font-size="10.00" fill="grey"> m_WidgetActionEvents</text>
<text text-anchor="middle" x="997.25" y="-791.86" font-family="Helvetica,sans-Serif" font-size="10.00" fill="grey">m_WidgetActionRunning</text>
</g>
<!-- Node4 -->
<g id="Node000004" class="node">
<title>Node4</title>
<g id="a_Node000004"><a xlink:href="../../d3/d0c/class_weapon___base.html" target="_top" xlink:title="shorthand">
<polygon fill="white" stroke="#666666" points="353.25,-829.36 273.5,-829.36 273.5,-809.36 353.25,-809.36 353.25,-829.36"/>
<text text-anchor="middle" x="313.38" y="-815.86" font-family="Helvetica,sans-Serif" font-size="10.00">Weapon_Base</text>
</a>
</g>
</g>
<!-- Node4&#45;&gt;Node1 -->
<g id="edge3_Node000001_Node000004" class="edge">
<title>Node4&#45;&gt;Node1</title>
<g id="a_edge3_Node000001_Node000004"><a xlink:title=" ">
<path fill="none" stroke="#9a32cd" stroke-dasharray="5,2" d="M353.09,-833.51C473.22,-874.74 845.04,-981.77 1070,-817.36 1143.98,-763.28 1148.86,-637.43 1148.13,-592.58"/>
<polygon fill="#9a32cd" stroke="#9a32cd" points="354.29,-830.22 343.69,-830.23 351.98,-836.83 354.29,-830.22"/>
</a>
</g>
<text text-anchor="middle" x="709" y="-907.86" font-family="Helvetica,sans-Serif" font-size="10.00" fill="grey"> m_CurrentWeapon</text>
</g>
<!-- Node5 -->
<g id="Node000005" class="node">
<title>Node5</title>
<g id="a_Node000005"><a xlink:href="../../dc/d0c/class_weapon_stable_state.html" target="_top" xlink:title="represents weapon&#39;s stable state (i.e. the basic states that the weapon will spend the most time in)">
<polygon fill="white" stroke="#666666" points="103,-851.36 0,-851.36 0,-831.36 103,-831.36 103,-851.36"/>
<text text-anchor="middle" x="51.5" y="-837.86" font-family="Helvetica,sans-Serif" font-size="10.00">WeaponStableState</text>
</a>
</g>
</g>
<!-- Node5&#45;&gt;Node4 -->
<g id="edge4_Node000004_Node000005" class="edge">
<title>Node5&#45;&gt;Node4</title>
<g id="a_edge4_Node000004_Node000005"><a xlink:title=" ">
<path fill="none" stroke="#9a32cd" stroke-dasharray="5,2" d="M114.39,-836.12C163.67,-831.94 231.14,-826.23 273.22,-822.67"/>
<polygon fill="#9a32cd" stroke="#9a32cd" points="114.4,-832.6 104.73,-836.93 114.99,-839.58 114.4,-832.6"/>
</a>
</g>
<text text-anchor="middle" x="179.12" y="-957.86" font-family="Helvetica,sans-Serif" font-size="10.00" fill="grey"> C</text>
<text text-anchor="middle" x="179.12" y="-945.86" font-family="Helvetica,sans-Serif" font-size="10.00" fill="grey">CC00</text>
<text text-anchor="middle" x="179.12" y="-933.86" font-family="Helvetica,sans-Serif" font-size="10.00" fill="grey">CC01</text>
<text text-anchor="middle" x="179.12" y="-921.86" font-family="Helvetica,sans-Serif" font-size="10.00" fill="grey">CC10</text>
<text text-anchor="middle" x="179.12" y="-909.86" font-family="Helvetica,sans-Serif" font-size="10.00" fill="grey">CC11</text>
<text text-anchor="middle" x="179.12" y="-897.86" font-family="Helvetica,sans-Serif" font-size="10.00" fill="grey">CD00</text>
<text text-anchor="middle" x="179.12" y="-885.86" font-family="Helvetica,sans-Serif" font-size="10.00" fill="grey">CD01</text>
<text text-anchor="middle" x="179.12" y="-873.86" font-family="Helvetica,sans-Serif" font-size="10.00" fill="grey">CJF0</text>
<text text-anchor="middle" x="179.12" y="-861.86" font-family="Helvetica,sans-Serif" font-size="10.00" fill="grey">CJF1</text>
<text text-anchor="middle" x="179.12" y="-849.86" font-family="Helvetica,sans-Serif" font-size="10.00" fill="grey">OD00</text>
<text text-anchor="middle" x="179.12" y="-837.86" font-family="Helvetica,sans-Serif" font-size="10.00" fill="grey">...</text>
</g>
<!-- Node6 -->
<g id="Node000006" class="node">
<title>Node6</title>
<g id="a_Node000006"><a xlink:href="../../db/d06/class_param3.html" target="_top" xlink:title=" ">
<polygon fill="white" stroke="#666666" points="76.38,-692.36 26.62,-692.36 26.62,-672.36 76.38,-672.36 76.38,-692.36"/>
<text text-anchor="middle" x="51.5" y="-678.86" font-family="Helvetica,sans-Serif" font-size="10.00">Param3</text>
</a>
</g>
</g>
<!-- Node6&#45;&gt;Node1 -->
<g id="edge9_Node000001_Node000006" class="edge">
<title>Node6&#45;&gt;Node1</title>
<g id="a_edge9_Node000001_Node000006"><a xlink:title=" ">
<path fill="none" stroke="#9a32cd" stroke-dasharray="5,2" d="M66.08,-701.65C78.38,-717.29 98.05,-738.2 121,-747.36 200.41,-779.04 420.73,-756.44 505.75,-747.36 760.87,-720.09 832.53,-722.51 1070,-625.36 1090.33,-617.04 1111.26,-603.45 1126.24,-592.69"/>
<polygon fill="#9a32cd" stroke="#9a32cd" points="69.12,-699.86 60.32,-693.95 63.51,-704.05 69.12,-699.86"/>
</a>
</g>
<text text-anchor="middle" x="586.38" y="-806.86" font-family="Helvetica,sans-Serif" font-size="10.00" fill="grey"> m_CH_LastWeapAction</text>
<text text-anchor="middle" x="586.38" y="-794.86" font-family="Helvetica,sans-Serif" font-size="10.00" fill="grey">m_CH_LastWeapActionType</text>
<text text-anchor="middle" x="586.38" y="-782.86" font-family="Helvetica,sans-Serif" font-size="10.00" fill="grey">m_CH_WeapAction</text>
<text text-anchor="middle" x="586.38" y="-770.86" font-family="Helvetica,sans-Serif" font-size="10.00" fill="grey">m_CH_WeapActionType</text>
<text text-anchor="middle" x="586.38" y="-758.86" font-family="Helvetica,sans-Serif" font-size="10.00" fill="grey">m_CH_WeaponChangeSlotH</text>
<text text-anchor="middle" x="586.38" y="-746.86" font-family="Helvetica,sans-Serif" font-size="10.00" fill="grey">m_CH_WeaponChangeSlotS</text>
</g>
<!-- Node6&#45;&gt;Node4 -->
<g id="edge5_Node000004_Node000006" class="edge">
<title>Node6&#45;&gt;Node4</title>
<g id="a_edge5_Node000004_Node000006"><a xlink:title=" ">
<path fill="none" stroke="#9a32cd" stroke-dasharray="5,2" d="M62.41,-702.66C73.66,-723.5 94.03,-755.22 121,-772.36 165.61,-800.7 186.02,-784.37 237.25,-797.36 250.82,-800.8 265.63,-805.03 278.49,-808.86"/>
<polygon fill="#9a32cd" stroke="#9a32cd" points="65.62,-701.26 57.93,-693.97 59.4,-704.46 65.62,-701.26"/>
</a>
</g>
<text text-anchor="middle" x="179.12" y="-811.86" font-family="Helvetica,sans-Serif" font-size="10.00" fill="grey"> m_ActiveMuzzle</text>
<text text-anchor="middle" x="179.12" y="-799.86" font-family="Helvetica,sans-Serif" font-size="10.00" fill="grey">m_LastMuzzleloaded</text>
</g>
<!-- Node6&#45;&gt;Node10 -->
<g id="edge15_Node000010_Node000006" class="edge">
<title>Node6&#45;&gt;Node10</title>
<g id="a_edge15_Node000010_Node000006"><a xlink:title=" ">
<path fill="none" stroke="#9a32cd" stroke-dasharray="5,2" d="M88.15,-681.88C208.87,-680.09 597.65,-672.61 649,-650.36 732.28,-614.26 800.53,-523.88 826.01,-486.71"/>
<polygon fill="#9a32cd" stroke="#9a32cd" points="88.14,-678.38 78.2,-682.03 88.24,-685.38 88.14,-678.38"/>
</a>
</g>
<text text-anchor="middle" x="447.62" y="-735.86" font-family="Helvetica,sans-Serif" font-size="10.00" fill="grey"> NO_SORTING</text>
<text text-anchor="middle" x="447.62" y="-723.86" font-family="Helvetica,sans-Serif" font-size="10.00" fill="grey">geomLevel</text>
<text text-anchor="middle" x="447.62" y="-711.86" font-family="Helvetica,sans-Serif" font-size="10.00" fill="grey">hierLevel</text>
<text text-anchor="start" x="389.5" y="-699.86" font-family="Helvetica,sans-Serif" font-size="10.00" fill="grey">m_CurrentSettingAlternate</text>
<text text-anchor="middle" x="447.62" y="-687.86" font-family="Helvetica,sans-Serif" font-size="10.00" fill="grey">KeyIndex</text>
<text text-anchor="middle" x="447.62" y="-675.86" font-family="Helvetica,sans-Serif" font-size="10.00" fill="grey">m_CurrentSettingKeyIndex</text>
</g>
<!-- Node6&#45;&gt;Node12 -->
<g id="edge18_Node000012_Node000006" class="edge">
<title>Node6&#45;&gt;Node12</title>
<g id="a_edge18_Node000012_Node000006"><a xlink:title=" ">
<path fill="none" stroke="#9a32cd" stroke-dasharray="5,2" d="M55.45,-661.19C61.62,-623.76 78.97,-545.05 121,-494.36 159.35,-448.1 196.56,-469.56 237.25,-425.36 249.63,-411.9 244.43,-403.1 255.25,-388.36 267.85,-371.19 286.3,-354.89 298.8,-344.78"/>
<polygon fill="#9a32cd" stroke="#9a32cd" points="52.05,-660.29 54,-670.71 58.97,-661.35 52.05,-660.29"/>
</a>
</g>
<text text-anchor="middle" x="179.12" y="-556.86" font-family="Helvetica,sans-Serif" font-size="10.00" fill="grey"> NO_SORTING</text>
<text text-anchor="middle" x="179.12" y="-544.86" font-family="Helvetica,sans-Serif" font-size="10.00" fill="grey">geomLevel</text>
<text text-anchor="middle" x="179.12" y="-532.86" font-family="Helvetica,sans-Serif" font-size="10.00" fill="grey">hierLevel</text>
<text text-anchor="start" x="121" y="-520.86" font-family="Helvetica,sans-Serif" font-size="10.00" fill="grey">m_CurrentSettingAlternate</text>
<text text-anchor="middle" x="179.12" y="-508.86" font-family="Helvetica,sans-Serif" font-size="10.00" fill="grey">KeyIndex</text>
<text text-anchor="middle" x="179.12" y="-496.86" font-family="Helvetica,sans-Serif" font-size="10.00" fill="grey">m_CurrentSettingKeyIndex</text>
</g>
<!-- Node6&#45;&gt;Node14 -->
<g id="edge25_Node000014_Node000006" class="edge">
<title>Node6&#45;&gt;Node14</title>
<g id="a_edge25_Node000014_Node000006"><a xlink:title=" ">
<path fill="none" stroke="#9a32cd" stroke-dasharray="5,2" d="M85.8,-667.2C125.68,-649.29 194.71,-619.06 255.25,-596.36 364.94,-555.22 412.12,-584.76 505.75,-514.36 544.83,-484.97 571.27,-430.57 581.1,-407.8"/>
<polygon fill="#9a32cd" stroke="#9a32cd" points="84.41,-663.99 76.73,-671.29 87.29,-670.37 84.41,-663.99"/>
</a>
</g>
<text text-anchor="middle" x="313.38" y="-658.86" font-family="Helvetica,sans-Serif" font-size="10.00" fill="grey"> NO_SORTING</text>
<text text-anchor="middle" x="313.38" y="-646.86" font-family="Helvetica,sans-Serif" font-size="10.00" fill="grey">geomLevel</text>
<text text-anchor="middle" x="313.38" y="-634.86" font-family="Helvetica,sans-Serif" font-size="10.00" fill="grey">hierLevel</text>
<text text-anchor="start" x="255.25" y="-622.86" font-family="Helvetica,sans-Serif" font-size="10.00" fill="grey">m_CurrentSettingAlternate</text>
<text text-anchor="middle" x="313.38" y="-610.86" font-family="Helvetica,sans-Serif" font-size="10.00" fill="grey">KeyIndex</text>
<text text-anchor="middle" x="313.38" y="-598.86" font-family="Helvetica,sans-Serif" font-size="10.00" fill="grey">m_CurrentSettingKeyIndex</text>
</g>
<!-- Node7 -->
<g id="Node000007" class="node">
<title>Node7</title>
<g id="a_Node000007"><a xlink:href="../../d5/d02/classstring.html" target="_top" xlink:title=" ">
<polygon fill="white" stroke="#666666" points="71.5,-358.36 31.5,-358.36 31.5,-338.36 71.5,-338.36 71.5,-358.36"/>
<text text-anchor="middle" x="51.5" y="-344.86" font-family="Helvetica,sans-Serif" font-size="10.00">string</text>
</a>
</g>
</g>
<!-- Node7&#45;&gt;Node1 -->
<g id="edge12_Node000001_Node000007" class="edge">
<title>Node7&#45;&gt;Node1</title>
<g id="a_edge12_Node000001_Node000007"><a xlink:title=" ">
<path fill="none" stroke="#9a32cd" stroke-dasharray="5,2" d="M61.56,-327.91C80.08,-286.07 120.63,-194.61 121,-194.36 235.48,-116.92 948.48,-219.13 1070,-328.36 1139.78,-391.08 1147.33,-515.6 1147.71,-560.08"/>
<polygon fill="#9a32cd" stroke="#9a32cd" points="58.43,-326.33 57.58,-336.89 64.83,-329.16 58.43,-326.33"/>
</a>
</g>
<text text-anchor="middle" x="586.38" y="-201.86" font-family="Helvetica,sans-Serif" font-size="10.00" fill="grey"> m_CH_WeaponChangeI</text>
</g>
<!-- Node7&#45;&gt;Node4 -->
<g id="edge6_Node000004_Node000007" class="edge">
<title>Node7&#45;&gt;Node4</title>
<g id="a_edge6_Node000004_Node000007"><a xlink:title=" ">
<path fill="none" stroke="#9a32cd" stroke-dasharray="5,2" d="M62.09,-369.13C73.3,-394.12 91.73,-437.54 103,-476.36 114.86,-517.21 103.57,-531.55 121,-570.36 168.37,-675.79 268.53,-777.36 301.56,-809.16"/>
<polygon fill="#9a32cd" stroke="#9a32cd" points="65.32,-367.78 58,-360.12 58.95,-370.67 65.32,-367.78"/>
</a>
</g>
<text text-anchor="middle" x="179.12" y="-750.86" font-family="Helvetica,sans-Serif" font-size="10.00" fill="grey"> ATT_SLOT_CYLINDER</text>
<text text-anchor="middle" x="179.12" y="-738.86" font-family="Helvetica,sans-Serif" font-size="10.00" fill="grey">ATT_SLOT_EJECTOR</text>
</g>
<!-- Node7&#45;&gt;Node7 -->
<g id="edge7_Node000007_Node000007" class="edge">
<title>Node7&#45;&gt;Node7</title>
<g id="a_edge7_Node000007_Node000007"><a xlink:title=" ">
<path fill="none" stroke="#9a32cd" stroke-dasharray="5,2" d="M28.94,-369.8C31.85,-373.66 39.37,-376.36 51.5,-376.36 73.68,-376.36 80.44,-367.33 71.78,-358.69"/>
<polygon fill="#9a32cd" stroke="#9a32cd" points="32.34,-370.68 30.92,-360.18 25.48,-369.27 32.34,-370.68"/>
</a>
</g>
<text text-anchor="middle" x="51.5" y="-378.86" font-family="Helvetica,sans-Serif" font-size="10.00" fill="grey"> Empty</text>
</g>
<!-- Node7&#45;&gt;Node10 -->
<g id="edge32_Node000010_Node000007" class="edge">
<title>Node7&#45;&gt;Node10</title>
<g id="a_edge32_Node000010_Node000007"><a xlink:title=" ">
<path fill="none" stroke="#9a32cd" stroke-dasharray="5,2" d="M83.03,-341.7C94.86,-339.23 108.53,-336.51 121,-334.36 180.38,-324.1 195.25,-320.93 255.25,-315.36 429.58,-299.16 477.13,-293.97 649,-327.36 695.03,-336.3 718.91,-320.16 751,-354.36 779.21,-384.42 742.24,-413.99 769,-445.36 771.77,-448.6 774.99,-451.42 778.51,-453.88"/>
<polygon fill="#9a32cd" stroke="#9a32cd" points="82.46,-338.24 73.41,-343.74 83.92,-345.09 82.46,-338.24"/>
</a>
</g>
<text text-anchor="middle" x="447.62" y="-308.86" font-family="Helvetica,sans-Serif" font-size="10.00" fill="grey"> m_Test</text>
</g>
<!-- Node7&#45;&gt;Node12 -->
<g id="edge21_Node000012_Node000007" class="edge">
<title>Node7&#45;&gt;Node12</title>
<g id="a_edge21_Node000012_Node000007"><a xlink:title=" ">
<path fill="none" stroke="#9a32cd" stroke-dasharray="5,2" d="M82.93,-346.72C137.48,-343.78 250.31,-337.7 294.28,-335.33"/>
<polygon fill="#9a32cd" stroke="#9a32cd" points="82.92,-343.21 73.12,-347.24 83.29,-350.2 82.92,-343.21"/>
</a>
</g>
<text text-anchor="middle" x="179.12" y="-346.86" font-family="Helvetica,sans-Serif" font-size="10.00" fill="grey"> m_Test</text>
</g>
<!-- Node7&#45;&gt;Node14 -->
<g id="edge28_Node000014_Node000007" class="edge">
<title>Node7&#45;&gt;Node14</title>
<g id="a_edge28_Node000014_Node000007"><a xlink:title=" ">
<path fill="none" stroke="#9a32cd" stroke-dasharray="5,2" d="M70.91,-365.98C83.8,-377.06 102.06,-390.36 121,-396.36 269.91,-443.51 459.42,-419.86 542.77,-405.57"/>
<polygon fill="#9a32cd" stroke="#9a32cd" points="73.43,-363.55 63.65,-359.46 68.75,-368.75 73.43,-363.55"/>
</a>
</g>
<text text-anchor="middle" x="313.38" y="-425.86" font-family="Helvetica,sans-Serif" font-size="10.00" fill="grey"> m_Test</text>
</g>
<!-- Node8 -->
<g id="Node000008" class="node">
<title>Node8</title>
<g id="a_Node000008"><a xlink:href="../../d0/d0b/class_edit_box_widget.html" target="_top" xlink:title=" ">
<polygon fill="white" stroke="#666666" points="878.38,-436.36 797.12,-436.36 797.12,-416.36 878.38,-416.36 878.38,-436.36"/>
<text text-anchor="middle" x="837.75" y="-422.86" font-family="Helvetica,sans-Serif" font-size="10.00">EditBoxWidget</text>
</a>
</g>
</g>
<!-- Node8&#45;&gt;Node1 -->
<g id="edge8_Node000001_Node000008" class="edge">
<title>Node8&#45;&gt;Node1</title>
<g id="a_edge8_Node000001_Node000008"><a xlink:title=" ">
<path fill="none" stroke="#9a32cd" stroke-dasharray="5,2" d="M889.7,-415.41C939.53,-407.6 1015.64,-403.67 1070,-437.36 1115.09,-465.3 1136.14,-529.52 1143.85,-559.88"/>
<polygon fill="#9a32cd" stroke="#9a32cd" points="889.32,-411.92 880.04,-417.04 890.49,-418.83 889.32,-411.92"/>
</a>
</g>
<text text-anchor="middle" x="997.25" y="-487.86" font-family="Helvetica,sans-Serif" font-size="10.00" fill="grey"> m_SetInitStateI</text>
<text text-anchor="middle" x="997.25" y="-475.86" font-family="Helvetica,sans-Serif" font-size="10.00" fill="grey">m_WeaponActionProgressEnd</text>
<text text-anchor="middle" x="997.25" y="-463.86" font-family="Helvetica,sans-Serif" font-size="10.00" fill="grey">m_WeaponActionProgressStart</text>
<text text-anchor="middle" x="997.25" y="-451.86" font-family="Helvetica,sans-Serif" font-size="10.00" fill="grey">m_WeaponSlotH</text>
<text text-anchor="middle" x="997.25" y="-439.86" font-family="Helvetica,sans-Serif" font-size="10.00" fill="grey">m_WeaponSlotS</text>
</g>
<!-- Node9 -->
<g id="Node000009" class="node">
<title>Node9</title>
<g id="a_Node000009"><a xlink:href="../../d4/d03/classfloat.html" target="_top" xlink:title=" ">
<polygon fill="white" stroke="#666666" points="854.75,-344.36 820.75,-344.36 820.75,-324.36 854.75,-324.36 854.75,-344.36"/>
<text text-anchor="middle" x="837.75" y="-330.86" font-family="Helvetica,sans-Serif" font-size="10.00">float</text>
</a>
</g>
</g>
<!-- Node9&#45;&gt;Node1 -->
<g id="edge10_Node000001_Node000009" class="edge">
<title>Node9&#45;&gt;Node1</title>
<g id="a_edge10_Node000001_Node000009"><a xlink:title=" ">
<path fill="none" stroke="#9a32cd" stroke-dasharray="5,2" d="M866.39,-332.09C913.71,-329.75 1010.86,-331.9 1070,-381.36 1126.31,-428.45 1141.99,-522.22 1146.11,-560.01"/>
<polygon fill="#9a32cd" stroke="#9a32cd" points="866.23,-328.59 856.47,-332.7 866.66,-335.58 866.23,-328.59"/>
</a>
</g>
<text text-anchor="middle" x="997.25" y="-395.86" font-family="Helvetica,sans-Serif" font-size="10.00" fill="grey"> m_CH_WeapActionProgressEnd</text>
<text text-anchor="middle" x="997.25" y="-383.86" font-family="Helvetica,sans-Serif" font-size="10.00" fill="grey">m_CH_WeapActionProgressStart</text>
</g>
<!-- Node9&#45;&gt;Node9 -->
<g id="edge11_Node000009_Node000009" class="edge">
<title>Node9&#45;&gt;Node9</title>
<g id="a_edge11_Node000009_Node000009"><a xlink:title=" ">
<path fill="none" stroke="#9a32cd" stroke-dasharray="5,2" d="M813.63,-351.35C813.15,-357.42 821.19,-362.36 837.75,-362.36 862.39,-362.36 868.17,-351.41 855.08,-342.1"/>
<polygon fill="#9a32cd" stroke="#9a32cd" points="816.43,-353.45 819.53,-343.32 810.79,-349.31 816.43,-353.45"/>
</a>
</g>
<text text-anchor="middle" x="837.75" y="-388.86" font-family="Helvetica,sans-Serif" font-size="10.00" fill="grey"> LOWEST</text>
<text text-anchor="middle" x="837.75" y="-376.86" font-family="Helvetica,sans-Serif" font-size="10.00" fill="grey">MAX</text>
<text text-anchor="middle" x="837.75" y="-364.86" font-family="Helvetica,sans-Serif" font-size="10.00" fill="grey">MIN</text>
</g>
<!-- Node10&#45;&gt;Node1 -->
<g id="edge13_Node000001_Node000010" class="edge">
<title>Node10&#45;&gt;Node1</title>
<g id="a_edge13_Node000001_Node000010"><a xlink:title=" ">
<path fill="none" stroke="#9a32cd" stroke-dasharray="5,2" d="M897.22,-490.43C955.81,-510.54 1044.9,-541.13 1099.48,-559.87"/>
<polygon fill="#9a32cd" stroke="#9a32cd" points="898.68,-487.23 888.08,-487.29 896.41,-493.85 898.68,-487.23"/>
</a>
</g>
<text text-anchor="middle" x="997.25" y="-549.86" font-family="Helvetica,sans-Serif" font-size="10.00" fill="grey"> m_AbilityConfig</text>
</g>
<!-- Node11 -->
<g id="Node000011" class="node">
<title>Node11</title>
<g id="a_Node000011"><a xlink:href="../../d8/d03/class_object.html" target="_top" xlink:title=" ">
<polygon fill="white" stroke="#666666" points="73.75,-225.36 29.25,-225.36 29.25,-205.36 73.75,-205.36 73.75,-225.36"/>
<text text-anchor="middle" x="51.5" y="-211.86" font-family="Helvetica,sans-Serif" font-size="10.00">Object</text>
</a>
</g>
</g>
<!-- Node11&#45;&gt;Node10 -->
<g id="edge14_Node000010_Node000011" class="edge">
<title>Node11&#45;&gt;Node10</title>
<g id="a_edge14_Node000010_Node000011"><a xlink:title=" ">
<path fill="none" stroke="#9a32cd" stroke-dasharray="5,2" d="M84.71,-208.26C91.47,-205.49 98.05,-201.66 103,-196.36 122,-176.01 99.33,-153.83 121,-136.36 166.67,-99.53 600.7,-100.05 649,-133.36 728.55,-188.21 720.73,-233.59 751,-325.36 767.89,-376.57 734.96,-403.53 769,-445.36 771.69,-448.66 774.86,-451.53 778.34,-454.02"/>
<polygon fill="#9a32cd" stroke="#9a32cd" points="83.94,-204.82 75.56,-211.31 86.16,-211.46 83.94,-204.82"/>
</a>
</g>
<text text-anchor="middle" x="447.62" y="-125.86" font-family="Helvetica,sans-Serif" font-size="10.00" fill="grey"> obj</text>
<text text-anchor="middle" x="447.62" y="-113.86" font-family="Helvetica,sans-Serif" font-size="10.00" fill="grey">parent</text>
</g>
<!-- Node11&#45;&gt;Node12 -->
<g id="edge17_Node000012_Node000011" class="edge">
<title>Node11&#45;&gt;Node12</title>
<g id="a_edge17_Node000012_Node000011"><a xlink:title=" ">
<path fill="none" stroke="#9a32cd" stroke-dasharray="5,2" d="M79.15,-231.53C91.66,-238.86 106.9,-247.42 121,-254.36 183.05,-284.85 259.67,-314.6 294.11,-327.57"/>
<polygon fill="#9a32cd" stroke="#9a32cd" points="81.05,-228.59 70.66,-226.49 77.47,-234.61 81.05,-228.59"/>
</a>
</g>
<text text-anchor="middle" x="179.12" y="-318.86" font-family="Helvetica,sans-Serif" font-size="10.00" fill="grey"> obj</text>
<text text-anchor="middle" x="179.12" y="-306.86" font-family="Helvetica,sans-Serif" font-size="10.00" fill="grey">parent</text>
</g>
<!-- Node11&#45;&gt;Node14 -->
<g id="edge24_Node000014_Node000011" class="edge">
<title>Node11&#45;&gt;Node14</title>
<g id="a_edge24_Node000014_Node000011"><a xlink:title=" ">
<path fill="none" stroke="#9a32cd" stroke-dasharray="5,2" d="M85.29,-213.3C122.54,-211.72 184.95,-211.38 237.25,-222.36 362.81,-248.72 412.51,-240.23 505.75,-328.36 519.62,-341.47 510.39,-353.72 523.75,-367.36 532.08,-375.86 543.3,-382.29 553.89,-386.98"/>
<polygon fill="#9a32cd" stroke="#9a32cd" points="85.45,-209.79 75.63,-213.77 85.79,-216.78 85.45,-209.79"/>
</a>
</g>
<text text-anchor="middle" x="313.38" y="-263.86" font-family="Helvetica,sans-Serif" font-size="10.00" fill="grey"> obj</text>
<text text-anchor="middle" x="313.38" y="-251.86" font-family="Helvetica,sans-Serif" font-size="10.00" fill="grey">parent</text>
</g>
<!-- Node12&#45;&gt;Node10 -->
<g id="edge16_Node000010_Node000012" class="edge">
<title>Node12&#45;&gt;Node10</title>
<g id="a_edge16_Node000010_Node000012"><a xlink:title=" ">
<path fill="none" stroke="#9a32cd" stroke-dasharray="5,2" d="M343.82,-330.82C381.52,-326.93 448.78,-322.12 505.75,-329.36 620.48,-343.93 665.25,-338.75 751,-416.36 762.25,-426.53 757.25,-435.77 769,-445.36 772.98,-448.61 777.43,-451.46 782.08,-453.95"/>
<polygon fill="#9a32cd" stroke="#9a32cd" points="343.74,-327.31 334.18,-331.87 344.5,-334.27 343.74,-327.31"/>
</a>
</g>
<text text-anchor="middle" x="586.38" y="-353.86" font-family="Helvetica,sans-Serif" font-size="10.00" fill="grey"> proxyInfo</text>
</g>
<!-- Node12&#45;&gt;Node12 -->
<g id="edge19_Node000012_Node000012" class="edge">
<title>Node12&#45;&gt;Node12</title>
<g id="a_edge19_Node000012_Node000012"><a xlink:title=" ">
<path fill="none" stroke="#9a32cd" stroke-dasharray="5,2" d="M288.26,-352.71C289.05,-358.14 297.42,-362.36 313.38,-362.36 338.28,-362.36 344.71,-352.07 332.64,-342.96"/>
<polygon fill="#9a32cd" stroke="#9a32cd" points="291.19,-354.63 293.33,-344.25 285.19,-351.03 291.19,-354.63"/>
</a>
</g>
<text text-anchor="middle" x="313.38" y="-364.86" font-family="Helvetica,sans-Serif" font-size="10.00" fill="grey"> proxyInfo</text>
</g>
<!-- Node12&#45;&gt;Node14 -->
<g id="edge26_Node000014_Node000012" class="edge">
<title>Node12&#45;&gt;Node14</title>
<g id="a_edge26_Node000014_Node000012"><a xlink:title=" ">
<path fill="none" stroke="#9a32cd" stroke-dasharray="5,2" d="M343,-345.89C356.87,-351.15 373.87,-357.14 389.5,-361.36 417.71,-368.96 494.04,-382.22 542.66,-390.34"/>
<polygon fill="#9a32cd" stroke="#9a32cd" points="344.63,-342.77 334.04,-342.41 342.1,-349.29 344.63,-342.77"/>
</a>
</g>
<text text-anchor="middle" x="447.62" y="-385.86" font-family="Helvetica,sans-Serif" font-size="10.00" fill="grey"> proxyInfo</text>
</g>
<!-- Node13 -->
<g id="Node000013" class="node">
<title>Node13</title>
<g id="a_Node000013"><a xlink:href="../../d4/d04/class_class.html" target="_top" xlink:title="Super root of all classes in Enforce script.">
<polygon fill="white" stroke="#666666" points="71.88,-187.36 31.12,-187.36 31.12,-167.36 71.88,-167.36 71.88,-187.36"/>
<text text-anchor="middle" x="51.5" y="-173.86" font-family="Helvetica,sans-Serif" font-size="10.00">Class</text>
</a>
</g>
</g>
<!-- Node13&#45;&gt;Node10 -->
<g id="edge31_Node000010_Node000013" class="edge">
<title>Node13&#45;&gt;Node10</title>
<g id="a_edge31_Node000010_Node000013"><a xlink:title=" ">
<path fill="none" stroke="#9a32cd" stroke-dasharray="5,2" d="M66.1,-157.85C78.42,-141.97 98.09,-120.55 121,-110.36 377.15,3.66 580.36,79.12 751,-143.36 791.92,-196.7 728.94,-391.37 769,-445.36 771.47,-448.68 774.42,-451.56 777.7,-454.06"/>
<polygon fill="#9a32cd" stroke="#9a32cd" points="63.46,-155.54 60.33,-165.67 69.09,-159.71 63.46,-155.54"/>
</a>
</g>
<text text-anchor="middle" x="447.62" y="-13.86" font-family="Helvetica,sans-Serif" font-size="10.00" fill="grey"> m_Instance</text>
</g>
<!-- Node13&#45;&gt;Node12 -->
<g id="edge20_Node000012_Node000013" class="edge">
<title>Node13&#45;&gt;Node12</title>
<g id="a_edge20_Node000012_Node000013"><a xlink:title=" ">
<path fill="none" stroke="#9a32cd" stroke-dasharray="5,2" d="M83.25,-186.33C132.59,-200.93 225.16,-229.22 237.25,-239.36 250.05,-250.09 245.52,-258.78 255.25,-272.36 269.4,-292.1 289.22,-312.31 301.41,-324.08"/>
<polygon fill="#9a32cd" stroke="#9a32cd" points="84.31,-183 73.73,-183.53 82.33,-189.71 84.31,-183"/>
</a>
</g>
<text text-anchor="middle" x="179.12" y="-241.86" font-family="Helvetica,sans-Serif" font-size="10.00" fill="grey"> m_Instance</text>
</g>
<!-- Node13&#45;&gt;Node14 -->
<g id="edge27_Node000014_Node000013" class="edge">
<title>Node13&#45;&gt;Node14</title>
<g id="a_edge27_Node000014_Node000013"><a xlink:title=" ">
<path fill="none" stroke="#9a32cd" stroke-dasharray="5,2" d="M83.59,-178.77C140.98,-181.81 267.2,-190.44 371.5,-211.36 432.54,-223.6 464.81,-204.45 505.75,-251.36 540.06,-290.66 492.77,-325.38 523.75,-367.36 530.18,-376.07 539.83,-382.38 549.59,-386.89"/>
<polygon fill="#9a32cd" stroke="#9a32cd" points="83.78,-175.28 73.62,-178.27 83.43,-182.27 83.78,-175.28"/>
</a>
</g>
<text text-anchor="middle" x="313.38" y="-213.86" font-family="Helvetica,sans-Serif" font-size="10.00" fill="grey"> m_Instance</text>
</g>
<!-- Node14&#45;&gt;Node10 -->
<g id="edge34_Node000010_Node000014" class="edge">
<title>Node14&#45;&gt;Node10</title>
<g id="a_edge34_Node000010_Node000014"><a xlink:title=" ">
<path fill="none" stroke="#9a32cd" stroke-dasharray="5,2" d="M634.03,-411.01C675.64,-423.19 736.63,-441.05 780.84,-453.99"/>
<polygon fill="#9a32cd" stroke="#9a32cd" points="635.14,-407.69 624.56,-408.24 633.17,-414.41 635.14,-407.69"/>
</a>
</g>
<text text-anchor="middle" x="709" y="-446.86" font-family="Helvetica,sans-Serif" font-size="10.00" fill="grey"> m_Subgroups</text>
</g>
<!-- Node14&#45;&gt;Node12 -->
<g id="edge23_Node000012_Node000014" class="edge">
<title>Node14&#45;&gt;Node12</title>
<g id="a_edge23_Node000012_Node000014"><a xlink:title=" ">
<path fill="none" stroke="#9a32cd" stroke-dasharray="5,2" d="M563.4,-380.26C548.13,-369.38 526.81,-356.11 505.75,-349.36 444.66,-329.76 367.23,-331.15 332.58,-333.05"/>
<polygon fill="#9a32cd" stroke="#9a32cd" points="561.16,-382.95 571.28,-386.07 565.31,-377.32 561.16,-382.95"/>
</a>
</g>
<text text-anchor="middle" x="447.62" y="-351.86" font-family="Helvetica,sans-Serif" font-size="10.00" fill="grey"> m_Subgroups</text>
</g>
<!-- Node14&#45;&gt;Node14 -->
<g id="edge30_Node000014_Node000014" class="edge">
<title>Node14&#45;&gt;Node14</title>
<g id="a_edge30_Node000014_Node000014"><a xlink:title=" ">
<path fill="none" stroke="#9a32cd" stroke-dasharray="5,2" d="M564.7,-418.8C567.49,-422.66 574.72,-425.36 586.38,-425.36 607.69,-425.36 614.19,-416.33 605.86,-407.69"/>
<polygon fill="#9a32cd" stroke="#9a32cd" points="568.1,-419.67 566.6,-409.18 561.23,-418.31 568.1,-419.67"/>
</a>
</g>
<text text-anchor="middle" x="586.38" y="-427.86" font-family="Helvetica,sans-Serif" font-size="10.00" fill="grey"> m_Subgroups</text>
</g>
</g>
</svg>

<g id="navigator" transform="translate(0 0)" fill="#404254">
  <rect fill="#f2f5e9" fill-opacity="0.5" stroke="#606060" stroke-width=".5" x="0" y="0" width="60" height="60"/>
  <use id="zoomplus" xlink:href="#zoomPlus" x="17" y="9" onmousedown="handleZoom(evt,'in')"/>
  <use id="zoomminus" xlink:href="#zoomMin" x="42" y="9" onmousedown="handleZoom(evt,'out')"/>
  <use id="reset" xlink:href="#resetDef" x="30" y="36" onmousedown="handleReset()"/>
   <use id="arrowup" xlink:href="#arrowUp" x="0" y="0" onmousedown="handlePan(0,-1)"/>
  <use id="arrowright" xlink:href="#arrowRight" x="0" y="0" onmousedown="handlePan(1,0)"/>
  <use id="arrowdown" xlink:href="#arrowDown" x="0" y="0" onmousedown="handlePan(0,1)"/>
  <use id="arrowleft" xlink:href="#arrowLeft" x="0" y="0" onmousedown="handlePan(-1,0)"/>
</g>
<svg viewBox="0 0 15 15" width="100%" height="30px" preserveAspectRatio="xMaxYMin meet">
 <g id="arrow_out" transform="scale(0.3 0.3)">
  <a xlink:href="class_plugin_dayz_player_debug___weapons__coll__graph_org.svg" target="_base">
   <rect id="button" ry="5" rx="5" y="6" x="6" height="38" width="38"
        fill="#f2f5e9" fill-opacity="0.5" stroke="#606060" stroke-width="1.0"/>
   <path id="arrow"
     d="M 11.500037,31.436501 C 11.940474,20.09759 22.043105,11.32322 32.158766,21.979434 L 37.068811,17.246167 C 37.068811,17.246167 37.088388,32 37.088388,32 L 22.160133,31.978069 C 22.160133,31.978069 26.997745,27.140456 26.997745,27.140456 C 18.528582,18.264221 13.291696,25.230495 11.500037,31.436501 z"
     style="fill:#404040;"/>
  </a>
 </g>
</svg>

<style type='text/css'>
<![CDATA[
[data-mouse-over-selected='false'] { opacity: 0.7; }
[data-mouse-over-selected='true']  { opacity: 1.0; }
]]>
</style>
<script type="application/ecmascript"><![CDATA[
document.addEventListener('DOMContentLoaded', (event) => {
  highlightEdges();
  highlightAdjacentNodes();
});
]]></script>
</svg>
