<?xml version="1.0" encoding="UTF-8" standalone="no"?>
<!DOCTYPE svg PUBLIC "-//W3C//DTD SVG 1.1//EN"
 "http://www.w3.org/Graphics/SVG/1.1/DTD/svg11.dtd">
<!-- Generated by graphviz version 11.0.0 (20240428.1522)
 -->
<!-- Title: AKM_Base Pages: 1 -->
<svg width="210pt" height="196pt"
 viewBox="0.00 0.00 210.25 196.00" xmlns="http://www.w3.org/2000/svg" xmlns:xlink="http://www.w3.org/1999/xlink">

<svg id="main" version="1.1" xmlns="http://www.w3.org/2000/svg" xmlns:xlink="http://www.w3.org/1999/xlink" xml:space="preserve" onload="init(evt)">
<style type="text/css"><![CDATA[
.node, .edge {opacity: 0.7;}
.node.selected, .edge.selected {opacity: 1;}
.edge:hover path { stroke: red; }
.edge:hover polygon { stroke: red; fill: red; }
]]></style>
<script type="application/ecmascript" xlink:href="../../svg.min.js"/>
<svg id="graph" class="graph">
<g id="graph0" class="graph" transform="scale(1 1) rotate(0) translate(4 192)">
<title>AKM_Base</title>
<!-- Node1 -->
<g id="Node000001" class="node">
<title>Node1</title>
<g id="a_Node000001"><a xlink:title=" ">
<polygon fill="#999999" stroke="#666666" points="113.25,-132 47.75,-132 47.75,-112 113.25,-112 113.25,-132"/>
<text text-anchor="middle" x="80.5" y="-118.5" font-family="Helvetica,sans-Serif" font-size="10.00">AKM_Base</text>
</a>
</g>
</g>
<!-- Node3 -->
<g id="Node000003" class="node">
<title>Node3</title>
<g id="a_Node000003"><a xlink:href="../../d7/d0a/class_a_k101___base.html" target="_top" xlink:title=" ">
<polygon fill="white" stroke="#666666" points="73,-76 0,-76 0,-56 73,-56 73,-76"/>
<text text-anchor="middle" x="36.5" y="-62.5" font-family="Helvetica,sans-Serif" font-size="10.00">AK101_Base</text>
</a>
</g>
</g>
<!-- Node1&#45;&gt;Node3 -->
<g id="edge2_Node000001_Node000003" class="edge">
<title>Node1&#45;&gt;Node3</title>
<g id="a_edge2_Node000001_Node000003"><a xlink:title=" ">
<path fill="none" stroke="#8b1a1a" d="M65.61,-102.72C58.37,-93.84 49.98,-83.55 44.08,-76.3"/>
<polygon fill="#8b1a1a" stroke="#8b1a1a" points="62.85,-104.88 71.88,-110.42 68.28,-100.46 62.85,-104.88"/>
</a>
</g>
</g>
<!-- Node5 -->
<g id="Node000005" class="node">
<title>Node5</title>
<g id="a_Node000005"><a xlink:href="../../df/d01/class_a_k74___base.html" target="_top" xlink:title=" ">
<polygon fill="white" stroke="#666666" points="158.38,-76 90.62,-76 90.62,-56 158.38,-56 158.38,-76"/>
<text text-anchor="middle" x="124.5" y="-62.5" font-family="Helvetica,sans-Serif" font-size="10.00">AK74_Base</text>
</a>
</g>
</g>
<!-- Node1&#45;&gt;Node5 -->
<g id="edge4_Node000001_Node000005" class="edge">
<title>Node1&#45;&gt;Node5</title>
<g id="a_edge4_Node000001_Node000005"><a xlink:title=" ">
<path fill="none" stroke="#8b1a1a" d="M95.39,-102.72C102.63,-93.84 111.02,-83.55 116.92,-76.3"/>
<polygon fill="#8b1a1a" stroke="#8b1a1a" points="92.72,-100.46 89.12,-110.42 98.15,-104.88 92.72,-100.46"/>
</a>
</g>
</g>
<!-- Node2 -->
<g id="Node000002" class="node">
<title>Node2</title>
<g id="a_Node000002"><a xlink:title=" ">
<polygon fill="white" stroke="#666666" points="130.12,-188 30.88,-188 30.88,-168 130.12,-168 130.12,-188"/>
<text text-anchor="middle" x="80.5" y="-174.5" font-family="Helvetica,sans-Serif" font-size="10.00">RifleBoltFree_Base</text>
</a>
</g>
</g>
<!-- Node2&#45;&gt;Node1 -->
<g id="edge1_Node000001_Node000002" class="edge">
<title>Node2&#45;&gt;Node1</title>
<g id="a_edge1_Node000001_Node000002"><a xlink:title=" ">
<path fill="none" stroke="#8b1a1a" d="M80.5,-156.13C80.5,-147.9 80.5,-138.85 80.5,-132.3"/>
<polygon fill="#8b1a1a" stroke="#8b1a1a" points="77,-156.08 80.5,-166.08 84,-156.08 77,-156.08"/>
</a>
</g>
</g>
<!-- Node4 -->
<g id="Node000004" class="node">
<title>Node4</title>
<g id="a_Node000004"><a xlink:href="../../d7/d07/class_a_k101.html" target="_top" xlink:title=" ">
<polygon fill="white" stroke="#666666" points="59.12,-20 13.88,-20 13.88,0 59.12,0 59.12,-20"/>
<text text-anchor="middle" x="36.5" y="-6.5" font-family="Helvetica,sans-Serif" font-size="10.00">AK101</text>
</a>
</g>
</g>
<!-- Node3&#45;&gt;Node4 -->
<g id="edge3_Node000003_Node000004" class="edge">
<title>Node3&#45;&gt;Node4</title>
<g id="a_edge3_Node000003_Node000004"><a xlink:title=" ">
<path fill="none" stroke="#8b1a1a" d="M36.5,-44.13C36.5,-35.9 36.5,-26.85 36.5,-20.3"/>
<polygon fill="#8b1a1a" stroke="#8b1a1a" points="33,-44.08 36.5,-54.08 40,-44.08 33,-44.08"/>
</a>
</g>
</g>
<!-- Node6 -->
<g id="Node000006" class="node">
<title>Node6</title>
<g id="a_Node000006"><a xlink:href="../../dc/d03/class_a_k74.html" target="_top" xlink:title=" ">
<polygon fill="white" stroke="#666666" points="130.5,-20 90.5,-20 90.5,0 130.5,0 130.5,-20"/>
<text text-anchor="middle" x="110.5" y="-6.5" font-family="Helvetica,sans-Serif" font-size="10.00">AK74</text>
</a>
</g>
</g>
<!-- Node5&#45;&gt;Node6 -->
<g id="edge5_Node000005_Node000006" class="edge">
<title>Node5&#45;&gt;Node6</title>
<g id="a_edge5_Node000005_Node000006"><a xlink:title=" ">
<path fill="none" stroke="#8b1a1a" d="M119.24,-44.71C117.07,-36.32 114.65,-27.01 112.91,-20.3"/>
<polygon fill="#8b1a1a" stroke="#8b1a1a" points="115.78,-45.33 121.68,-54.13 122.56,-43.57 115.78,-45.33"/>
</a>
</g>
</g>
<!-- Node7 -->
<g id="Node000007" class="node">
<title>Node7</title>
<g id="a_Node000007"><a xlink:href="../../d1/d02/class_a_k_s74_u.html" target="_top" xlink:title=" ">
<polygon fill="white" stroke="#666666" points="202.25,-20 148.75,-20 148.75,0 202.25,0 202.25,-20"/>
<text text-anchor="middle" x="175.5" y="-6.5" font-family="Helvetica,sans-Serif" font-size="10.00">AKS74U</text>
</a>
</g>
</g>
<!-- Node5&#45;&gt;Node7 -->
<g id="edge6_Node000005_Node000007" class="edge">
<title>Node5&#45;&gt;Node7</title>
<g id="a_edge6_Node000005_Node000007"><a xlink:title=" ">
<path fill="none" stroke="#8b1a1a" d="M141.23,-47.29C149.74,-38.28 159.73,-27.7 166.72,-20.3"/>
<polygon fill="#8b1a1a" stroke="#8b1a1a" points="138.74,-44.82 134.42,-54.49 143.83,-49.63 138.74,-44.82"/>
</a>
</g>
</g>
</g>
</svg>
</svg>

<style type='text/css'>
<![CDATA[
[data-mouse-over-selected='false'] { opacity: 0.7; }
[data-mouse-over-selected='true']  { opacity: 1.0; }
]]>
</style>
<script type="application/ecmascript"><![CDATA[
document.addEventListener('DOMContentLoaded', (event) => {
  highlightEdges();
  highlightAdjacentNodes();
});
]]></script>
</svg>
