<?xml version="1.0" encoding="UTF-8" standalone="no"?>
<!DOCTYPE svg PUBLIC "-//W3C//DTD SVG 1.1//EN"
 "http://www.w3.org/Graphics/SVG/1.1/DTD/svg11.dtd">
<!-- Generated by graphviz version 11.0.0 (20240428.1522)
 -->
<!-- Title: PointLightBase Pages: 1 -->
<svg width="226pt" height="233pt"
 viewBox="0.00 0.00 226.49 233.26" xmlns="http://www.w3.org/2000/svg" xmlns:xlink="http://www.w3.org/1999/xlink">

<svg id="main" version="1.1" xmlns="http://www.w3.org/2000/svg" xmlns:xlink="http://www.w3.org/1999/xlink" xml:space="preserve" onload="init(evt)">
<style type="text/css"><![CDATA[
.node, .edge {opacity: 0.7;}
.node.selected, .edge.selected {opacity: 1;}
.edge:hover path { stroke: red; }
.edge:hover polygon { stroke: red; fill: red; }
]]></style>
<script type="application/ecmascript" xlink:href="../../svg.min.js"/>
<svg id="graph" class="graph">
<g id="graph0" class="graph" transform="scale(1 1) rotate(0) translate(4 229.26)">
<title>PointLightBase</title>
<!-- Node1 -->
<g id="Node000001" class="node">
<title>Node1</title>
<g id="a_Node000001"><a xlink:title=" ">
<polygon fill="#999999" stroke="#666666" points="120.24,-20 38.24,-20 38.24,0 120.24,0 120.24,-20"/>
<text text-anchor="middle" x="79.24" y="-6.5" font-family="Helvetica,sans-Serif" font-size="10.00">PointLightBase</text>
</a>
</g>
</g>
<!-- Node2 -->
<g id="Node000002" class="node">
<title>Node2</title>
<g id="a_Node000002"><a xlink:href="../../d4/d03/classfloat.html" target="_top" xlink:title=" ">
<polygon fill="white" stroke="#666666" points="34.24,-216 0.24,-216 0.24,-196 34.24,-196 34.24,-216"/>
<text text-anchor="middle" x="17.24" y="-202.5" font-family="Helvetica,sans-Serif" font-size="10.00">float</text>
</a>
</g>
</g>
<!-- Node2&#45;&gt;Node1 -->
<g id="edge1_Node000001_Node000002" class="edge">
<title>Node2&#45;&gt;Node1</title>
<g id="a_edge1_Node000001_Node000002"><a xlink:title=" ">
<path fill="none" stroke="#9a32cd" stroke-dasharray="5,2" d="M11.03,-185.04C1.92,-151.58 -10.98,-83.36 18.74,-38 23.97,-30.01 32.17,-24.37 40.86,-20.39"/>
<polygon fill="#9a32cd" stroke="#9a32cd" points="7.56,-185.62 13.71,-194.24 14.28,-183.66 7.56,-185.62"/>
</a>
</g>
<text text-anchor="middle" x="69.49" y="-160.5" font-family="Helvetica,sans-Serif" font-size="10.00" fill="grey"> m_DefaultBrightness</text>
<text text-anchor="middle" x="69.49" y="-148.5" font-family="Helvetica,sans-Serif" font-size="10.00" fill="grey">m_DefaultRadius</text>
<text text-anchor="middle" x="69.49" y="-136.5" font-family="Helvetica,sans-Serif" font-size="10.00" fill="grey">m_FireBrightness</text>
<text text-anchor="middle" x="69.49" y="-124.5" font-family="Helvetica,sans-Serif" font-size="10.00" fill="grey">m_FireRadius</text>
<text text-anchor="middle" x="69.49" y="-112.5" font-family="Helvetica,sans-Serif" font-size="10.00" fill="grey">m_FireplaceBrightness</text>
<text text-anchor="middle" x="69.49" y="-100.5" font-family="Helvetica,sans-Serif" font-size="10.00" fill="grey">m_FireplaceRadius</text>
<text text-anchor="middle" x="69.49" y="-88.5" font-family="Helvetica,sans-Serif" font-size="10.00" fill="grey">m_FlareBrightness</text>
<text text-anchor="middle" x="69.49" y="-76.5" font-family="Helvetica,sans-Serif" font-size="10.00" fill="grey">m_FlareRadius</text>
<text text-anchor="middle" x="69.49" y="-64.5" font-family="Helvetica,sans-Serif" font-size="10.00" fill="grey">m_Lifetime</text>
<text text-anchor="middle" x="69.49" y="-52.5" font-family="Helvetica,sans-Serif" font-size="10.00" fill="grey">m_RoadflareBrightness</text>
<text text-anchor="middle" x="69.49" y="-40.5" font-family="Helvetica,sans-Serif" font-size="10.00" fill="grey">...</text>
</g>
<!-- Node2&#45;&gt;Node2 -->
<g id="edge2_Node000002_Node000002" class="edge">
<title>Node2&#45;&gt;Node2</title>
<g id="a_edge2_Node000002_Node000002"><a xlink:title=" ">
<path fill="none" stroke="#9a32cd" stroke-dasharray="5,2" d="M32.74,-223.63C42.68,-228.2 52.24,-222.32 52.24,-206 52.24,-184.68 35.93,-181.19 23.77,-195.51"/>
<polygon fill="#9a32cd" stroke="#9a32cd" points="34.96,-220.92 24.95,-217.43 30.6,-226.4 34.96,-220.92"/>
</a>
</g>
<text text-anchor="middle" x="74.36" y="-214.5" font-family="Helvetica,sans-Serif" font-size="10.00" fill="grey"> LOWEST</text>
<text text-anchor="middle" x="74.36" y="-202.5" font-family="Helvetica,sans-Serif" font-size="10.00" fill="grey">MAX</text>
<text text-anchor="middle" x="74.36" y="-190.5" font-family="Helvetica,sans-Serif" font-size="10.00" fill="grey">MIN</text>
</g>
<!-- Node3 -->
<g id="Node000003" class="node">
<title>Node3</title>
<g id="a_Node000003"><a xlink:href="../../d5/d02/classstring.html" target="_top" xlink:title=" ">
<polygon fill="white" stroke="#666666" points="161.24,-216 121.24,-216 121.24,-196 161.24,-196 161.24,-216"/>
<text text-anchor="middle" x="141.24" y="-202.5" font-family="Helvetica,sans-Serif" font-size="10.00">string</text>
</a>
</g>
</g>
<!-- Node3&#45;&gt;Node1 -->
<g id="edge3_Node000001_Node000003" class="edge">
<title>Node3&#45;&gt;Node1</title>
<g id="a_edge3_Node000001_Node000003"><a xlink:title=" ">
<path fill="none" stroke="#9a32cd" stroke-dasharray="5,2" d="M143.65,-184.42C146.51,-151.01 147.76,-84.11 119.24,-38 114.65,-30.59 107.19,-24.74 99.95,-20.42"/>
<polygon fill="#9a32cd" stroke="#9a32cd" points="140.17,-184.01 142.64,-194.31 147.14,-184.72 140.17,-184.01"/>
</a>
</g>
<text text-anchor="middle" x="181.36" y="-100.5" font-family="Helvetica,sans-Serif" font-size="10.00" fill="grey"> m_MemoryPoint</text>
</g>
<!-- Node3&#45;&gt;Node3 -->
<g id="edge4_Node000003_Node000003" class="edge">
<title>Node3&#45;&gt;Node3</title>
<g id="a_edge4_Node000003_Node000003"><a xlink:title=" ">
<path fill="none" stroke="#9a32cd" stroke-dasharray="5,2" d="M157.41,-223.33C168.43,-228.43 179.24,-222.65 179.24,-206 179.24,-184.68 161.54,-181.19 148.33,-195.51"/>
<polygon fill="#9a32cd" stroke="#9a32cd" points="159.63,-220.62 149.54,-217.4 155.42,-226.21 159.63,-220.62"/>
</a>
</g>
<text text-anchor="middle" x="194.99" y="-202.5" font-family="Helvetica,sans-Serif" font-size="10.00" fill="grey"> Empty</text>
</g>
</g>
</svg>
</svg>

<style type='text/css'>
<![CDATA[
[data-mouse-over-selected='false'] { opacity: 0.7; }
[data-mouse-over-selected='true']  { opacity: 1.0; }
]]>
</style>
<script type="application/ecmascript"><![CDATA[
document.addEventListener('DOMContentLoaded', (event) => {
  highlightEdges();
  highlightAdjacentNodes();
});
]]></script>
</svg>
