<?xml version="1.0" encoding="UTF-8" standalone="no"?>
<!DOCTYPE svg PUBLIC "-//W3C//DTD SVG 1.1//EN"
 "http://www.w3.org/Graphics/SVG/1.1/DTD/svg11.dtd">
<!-- Generated by graphviz version 11.0.0 (20240428.1522)
 -->
<!-- Title: Contact Pages: 1 -->
<svg width="341pt" height="184pt"
 viewBox="0.00 0.00 340.62 184.00" xmlns="http://www.w3.org/2000/svg" xmlns:xlink="http://www.w3.org/1999/xlink">

<svg id="main" version="1.1" xmlns="http://www.w3.org/2000/svg" xmlns:xlink="http://www.w3.org/1999/xlink" xml:space="preserve" onload="init(evt)">
<style type="text/css"><![CDATA[
.node, .edge {opacity: 0.7;}
.node.selected, .edge.selected {opacity: 1;}
.edge:hover path { stroke: red; }
.edge:hover polygon { stroke: red; fill: red; }
]]></style>
<script type="application/ecmascript" xlink:href="../../svg.min.js"/>
<svg id="graph" class="graph">
<g id="graph0" class="graph" transform="scale(1 1) rotate(0) translate(4 180)">
<title>Contact</title>
<!-- Node1 -->
<g id="Node000001" class="node">
<title>Node1</title>
<g id="a_Node000001"><a xlink:title=" ">
<polygon fill="#999999" stroke="#666666" points="135.75,-20 86,-20 86,0 135.75,0 135.75,-20"/>
<text text-anchor="middle" x="110.88" y="-6.5" font-family="Helvetica,sans-Serif" font-size="10.00">Contact</text>
</a>
</g>
</g>
<!-- Node2 -->
<g id="Node000002" class="node">
<title>Node2</title>
<g id="a_Node000002"><a xlink:href="../../db/d06/class_param3.html" target="_top" xlink:title=" ">
<polygon fill="white" stroke="#666666" points="49.75,-162 0,-162 0,-142 49.75,-142 49.75,-162"/>
<text text-anchor="middle" x="24.88" y="-148.5" font-family="Helvetica,sans-Serif" font-size="10.00">Param3</text>
</a>
</g>
</g>
<!-- Node2&#45;&gt;Node1 -->
<g id="edge1_Node000001_Node000002" class="edge">
<title>Node2&#45;&gt;Node1</title>
<g id="a_edge1_Node000001_Node000002"><a xlink:title=" ">
<path fill="none" stroke="#9a32cd" stroke-dasharray="5,2" d="M22.7,-130.37C21.25,-105.69 22.65,-64.41 43.88,-38 54.09,-25.29 71.21,-18.53 85.58,-14.95"/>
<polygon fill="#9a32cd" stroke="#9a32cd" points="19.19,-130.41 23.5,-140.09 26.17,-129.83 19.19,-130.41"/>
</a>
</g>
<text text-anchor="middle" x="75.38" y="-100.5" font-family="Helvetica,sans-Serif" font-size="10.00" fill="grey"> Index1</text>
<text text-anchor="middle" x="75.38" y="-88.5" font-family="Helvetica,sans-Serif" font-size="10.00" fill="grey">Index2</text>
<text text-anchor="middle" x="75.38" y="-76.5" font-family="Helvetica,sans-Serif" font-size="10.00" fill="grey">Material1</text>
<text text-anchor="middle" x="75.38" y="-64.5" font-family="Helvetica,sans-Serif" font-size="10.00" fill="grey">Material2</text>
<text text-anchor="middle" x="75.38" y="-52.5" font-family="Helvetica,sans-Serif" font-size="10.00" fill="grey">MaterialIndex1</text>
<text text-anchor="middle" x="75.38" y="-40.5" font-family="Helvetica,sans-Serif" font-size="10.00" fill="grey">MaterialIndex2</text>
</g>
<!-- Node3 -->
<g id="Node000003" class="node">
<title>Node3</title>
<g id="a_Node000003"><a xlink:href="../../d4/d03/classfloat.html" target="_top" xlink:title=" ">
<polygon fill="white" stroke="#666666" points="127.88,-162 93.88,-162 93.88,-142 127.88,-142 127.88,-162"/>
<text text-anchor="middle" x="110.88" y="-148.5" font-family="Helvetica,sans-Serif" font-size="10.00">float</text>
</a>
</g>
</g>
<!-- Node3&#45;&gt;Node1 -->
<g id="edge2_Node000001_Node000003" class="edge">
<title>Node3&#45;&gt;Node1</title>
<g id="a_edge2_Node000001_Node000003"><a xlink:title=" ">
<path fill="none" stroke="#9a32cd" stroke-dasharray="5,2" d="M110.88,-130.38C110.88,-99.58 110.88,-42.77 110.88,-20.4"/>
<polygon fill="#9a32cd" stroke="#9a32cd" points="107.38,-130.3 110.88,-140.3 114.38,-130.3 107.38,-130.3"/>
</a>
</g>
<text text-anchor="middle" x="160.75" y="-100.5" font-family="Helvetica,sans-Serif" font-size="10.00" fill="grey"> Impulse</text>
<text text-anchor="middle" x="160.75" y="-88.5" font-family="Helvetica,sans-Serif" font-size="10.00" fill="grey">PenetrationDepth</text>
<text text-anchor="start" x="110.88" y="-76.5" font-family="Helvetica,sans-Serif" font-size="10.00" fill="grey">RelativeNormalVelocity</text>
<text text-anchor="middle" x="160.75" y="-64.5" font-family="Helvetica,sans-Serif" font-size="10.00" fill="grey">After</text>
<text text-anchor="start" x="110.88" y="-52.5" font-family="Helvetica,sans-Serif" font-size="10.00" fill="grey">RelativeNormalVelocity</text>
<text text-anchor="middle" x="160.75" y="-40.5" font-family="Helvetica,sans-Serif" font-size="10.00" fill="grey">Before</text>
</g>
<!-- Node3&#45;&gt;Node3 -->
<g id="edge3_Node000003_Node000003" class="edge">
<title>Node3&#45;&gt;Node3</title>
<g id="a_edge3_Node000003_Node000003"><a xlink:title=" ">
<path fill="none" stroke="#9a32cd" stroke-dasharray="5,2" d="M131.32,-166.56C139.26,-167.24 145.88,-162.38 145.88,-152 145.88,-137.07 132.2,-133.57 120.55,-141.5"/>
<polygon fill="#9a32cd" stroke="#9a32cd" points="132.56,-163.29 121.97,-163.03 130.08,-169.84 132.56,-163.29"/>
</a>
</g>
<text text-anchor="middle" x="168" y="-160.5" font-family="Helvetica,sans-Serif" font-size="10.00" fill="grey"> LOWEST</text>
<text text-anchor="middle" x="168" y="-148.5" font-family="Helvetica,sans-Serif" font-size="10.00" fill="grey">MAX</text>
<text text-anchor="middle" x="168" y="-136.5" font-family="Helvetica,sans-Serif" font-size="10.00" fill="grey">MIN</text>
</g>
<!-- Node4 -->
<g id="Node000004" class="node">
<title>Node4</title>
<g id="a_Node000004"><a xlink:href="../../d7/d0c/classvector.html" target="_top" xlink:title=" ">
<polygon fill="white" stroke="#666666" points="254.62,-162 213.12,-162 213.12,-142 254.62,-142 254.62,-162"/>
<text text-anchor="middle" x="233.88" y="-148.5" font-family="Helvetica,sans-Serif" font-size="10.00">vector</text>
</a>
</g>
</g>
<!-- Node4&#45;&gt;Node1 -->
<g id="edge4_Node000001_Node000004" class="edge">
<title>Node4&#45;&gt;Node1</title>
<g id="a_edge4_Node000001_Node000004"><a xlink:title=" ">
<path fill="none" stroke="#9a32cd" stroke-dasharray="5,2" d="M235.92,-130.24C237.18,-105.09 235.22,-63.01 211.88,-38 192.56,-17.3 159.28,-11.8 136.23,-10.67"/>
<polygon fill="#9a32cd" stroke="#9a32cd" points="232.43,-129.92 235.17,-140.15 239.41,-130.44 232.43,-129.92"/>
</a>
</g>
<text text-anchor="middle" x="284.25" y="-88.5" font-family="Helvetica,sans-Serif" font-size="10.00" fill="grey"> Normal</text>
<text text-anchor="middle" x="284.25" y="-76.5" font-family="Helvetica,sans-Serif" font-size="10.00" fill="grey">Position</text>
<text text-anchor="middle" x="284.25" y="-64.5" font-family="Helvetica,sans-Serif" font-size="10.00" fill="grey">RelativeVelocityAfter</text>
<text text-anchor="middle" x="284.25" y="-52.5" font-family="Helvetica,sans-Serif" font-size="10.00" fill="grey">RelativeVelocityBefore</text>
</g>
<!-- Node4&#45;&gt;Node4 -->
<g id="edge5_Node000004_Node000004" class="edge">
<title>Node4&#45;&gt;Node4</title>
<g id="a_edge5_Node000004_Node000004"><a xlink:title=" ">
<path fill="none" stroke="#9a32cd" stroke-dasharray="5,2" d="M255.31,-166.44C264.63,-167.66 272.62,-162.85 272.62,-152 272.62,-137.07 257.48,-133.57 244.59,-141.5"/>
<polygon fill="#9a32cd" stroke="#9a32cd" points="256.6,-163.18 246.01,-163.02 254.19,-169.75 256.6,-163.18"/>
</a>
</g>
<text text-anchor="middle" x="289.88" y="-166.5" font-family="Helvetica,sans-Serif" font-size="10.00" fill="grey"> Aside</text>
<text text-anchor="middle" x="289.88" y="-154.5" font-family="Helvetica,sans-Serif" font-size="10.00" fill="grey">Forward</text>
<text text-anchor="middle" x="289.88" y="-142.5" font-family="Helvetica,sans-Serif" font-size="10.00" fill="grey">Up</text>
<text text-anchor="middle" x="289.88" y="-130.5" font-family="Helvetica,sans-Serif" font-size="10.00" fill="grey">Zero</text>
</g>
</g>
</svg>
</svg>

<style type='text/css'>
<![CDATA[
[data-mouse-over-selected='false'] { opacity: 0.7; }
[data-mouse-over-selected='true']  { opacity: 1.0; }
]]>
</style>
<script type="application/ecmascript"><![CDATA[
document.addEventListener('DOMContentLoaded', (event) => {
  highlightEdges();
  highlightAdjacentNodes();
});
]]></script>
</svg>
