<?xml version="1.0" encoding="UTF-8" standalone="no"?>
<!DOCTYPE svg PUBLIC "-//W3C//DTD SVG 1.1//EN"
 "http://www.w3.org/Graphics/SVG/1.1/DTD/svg11.dtd">
<!-- Generated by graphviz version 11.0.0 (20240428.1522)
 -->
<!-- Title: ActionInteractBase Pages: 1 -->
<svg width="241pt" height="176pt"
 viewBox="0.00 0.00 240.62 176.00" xmlns="http://www.w3.org/2000/svg" xmlns:xlink="http://www.w3.org/1999/xlink">
<g id="graph0" class="graph" transform="scale(1 1) rotate(0) translate(4 172)">
<title>ActionInteractBase</title>
<!-- Node1 -->
<g id="Node000001" class="node">
<title>Node1</title>
<g id="a_Node000001"><a xlink:title=" ">
<polygon fill="#999999" stroke="#666666" points="165.38,-20 66.88,-20 66.88,0 165.38,0 165.38,-20"/>
<text text-anchor="middle" x="116.12" y="-6.5" font-family="Helvetica,sans-Serif" font-size="10.00">ActionInteractBase</text>
</a>
</g>
</g>
<!-- Node2 -->
<g id="Node000002" class="node">
<title>Node2</title>
<g id="a_Node000002"><a xlink:href="../../d7/d04/class_animated_action_base.html" target="_top" xlink:title=" ">
<polygon fill="white" stroke="#666666" points="124.88,-88 17.38,-88 17.38,-68 124.88,-68 124.88,-88"/>
<text text-anchor="middle" x="71.12" y="-74.5" font-family="Helvetica,sans-Serif" font-size="10.00">AnimatedActionBase</text>
</a>
</g>
</g>
<!-- Node2&#45;&gt;Node1 -->
<g id="edge1_Node000001_Node000002" class="edge">
<title>Node2&#45;&gt;Node1</title>
<g id="a_edge1_Node000001_Node000002"><a xlink:title=" ">
<path fill="none" stroke="#8b1a1a" d="M83.98,-58.15C92.39,-45.82 103.01,-30.23 109.69,-20.44"/>
<polygon fill="#8b1a1a" stroke="#8b1a1a" points="81.17,-56.06 78.43,-66.29 86.95,-60 81.17,-56.06"/>
</a>
</g>
</g>
<!-- Node3 -->
<g id="Node000003" class="node">
<title>Node3</title>
<g id="a_Node000003"><a xlink:title=" ">
<polygon fill="white" stroke="#666666" points="66.25,-168 0,-168 0,-148 66.25,-148 66.25,-168"/>
<text text-anchor="middle" x="33.12" y="-154.5" font-family="Helvetica,sans-Serif" font-size="10.00">ActionBase</text>
</a>
</g>
</g>
<!-- Node3&#45;&gt;Node2 -->
<g id="edge2_Node000002_Node000003" class="edge">
<title>Node3&#45;&gt;Node2</title>
<g id="a_edge2_Node000002_Node000003"><a xlink:title=" ">
<path fill="none" stroke="#8b1a1a" d="M42.62,-137.51C50.29,-121.77 60.74,-100.32 66.62,-88.24"/>
<polygon fill="#8b1a1a" stroke="#8b1a1a" points="39.53,-135.86 38.3,-146.39 45.82,-138.93 39.53,-135.86"/>
</a>
</g>
</g>
<!-- Node4 -->
<g id="Node000004" class="node">
<title>Node4</title>
<g id="a_Node000004"><a xlink:href="../../db/d06/class_param3.html" target="_top" xlink:title=" ">
<polygon fill="white" stroke="#666666" points="134,-168 84.25,-168 84.25,-148 134,-148 134,-168"/>
<text text-anchor="middle" x="109.12" y="-154.5" font-family="Helvetica,sans-Serif" font-size="10.00">Param3</text>
</a>
</g>
</g>
<!-- Node4&#45;&gt;Node2 -->
<g id="edge3_Node000002_Node000004" class="edge">
<title>Node4&#45;&gt;Node2</title>
<g id="a_edge3_Node000002_Node000004"><a xlink:title=" ">
<path fill="none" stroke="#9a32cd" stroke-dasharray="5,2" d="M99.63,-137.51C91.96,-121.77 81.51,-100.32 75.63,-88.24"/>
<polygon fill="#9a32cd" stroke="#9a32cd" points="96.43,-138.93 103.95,-146.39 102.72,-135.86 96.43,-138.93"/>
</a>
</g>
<text text-anchor="middle" x="145.62" y="-120.5" font-family="Helvetica,sans-Serif" font-size="10.00" fill="grey"> m_CommandUID</text>
<text text-anchor="middle" x="145.62" y="-108.5" font-family="Helvetica,sans-Serif" font-size="10.00" fill="grey">m_CommandUIDProne</text>
</g>
<!-- Node5 -->
<g id="Node000005" class="node">
<title>Node5</title>
<g id="a_Node000005"><a xlink:href="../../d5/d02/classstring.html" target="_top" xlink:title=" ">
<polygon fill="white" stroke="#666666" points="183.12,-88 143.12,-88 143.12,-68 183.12,-68 183.12,-88"/>
<text text-anchor="middle" x="163.12" y="-74.5" font-family="Helvetica,sans-Serif" font-size="10.00">string</text>
</a>
</g>
</g>
<!-- Node5&#45;&gt;Node1 -->
<g id="edge4_Node000001_Node000005" class="edge">
<title>Node5&#45;&gt;Node1</title>
<g id="a_edge4_Node000001_Node000005"><a xlink:title=" ">
<path fill="none" stroke="#9a32cd" stroke-dasharray="5,2" d="M149.96,-58.52C141.14,-46.13 129.89,-30.33 122.85,-20.44"/>
<polygon fill="#9a32cd" stroke="#9a32cd" points="146.86,-60.2 155.51,-66.31 152.56,-56.13 146.86,-60.2"/>
</a>
</g>
<text text-anchor="middle" x="184.75" y="-40.5" font-family="Helvetica,sans-Serif" font-size="10.00" fill="grey"> m_HUDCursorIcon</text>
</g>
<!-- Node5&#45;&gt;Node5 -->
<g id="edge5_Node000005_Node000005" class="edge">
<title>Node5&#45;&gt;Node5</title>
<g id="a_edge5_Node000005_Node000005"><a xlink:title=" ">
<path fill="none" stroke="#9a32cd" stroke-dasharray="5,2" d="M194.88,-83.47C198.66,-82.48 201.12,-80.65 201.12,-78 201.12,-73.15 192.89,-71.07 183.45,-71.75"/>
<polygon fill="#9a32cd" stroke="#9a32cd" points="194.7,-79.98 184.96,-84.15 195.18,-86.96 194.7,-79.98"/>
</a>
</g>
<text text-anchor="middle" x="216.88" y="-74.5" font-family="Helvetica,sans-Serif" font-size="10.00" fill="grey"> Empty</text>
</g>
</g>
</svg>
