<?xml version="1.0" encoding="UTF-8" standalone="no"?>
<!DOCTYPE svg PUBLIC "-//W3C//DTD SVG 1.1//EN"
 "http://www.w3.org/Graphics/SVG/1.1/DTD/svg11.dtd">
<!-- Generated by graphviz version 11.0.0 (20240428.1522)
 -->
<!-- Title: ActionSingleUseBaseCB Pages: 1 -->
<!--zoomable 408 -->

<svg id="main" version="1.1" xmlns="http://www.w3.org/2000/svg" xmlns:xlink="http://www.w3.org/1999/xlink" xml:space="preserve" onload="init(evt)">
<style type="text/css"><![CDATA[
.node, .edge {opacity: 0.7;}
.node.selected, .edge.selected {opacity: 1;}
.edge:hover path { stroke: red; }
.edge:hover polygon { stroke: red; fill: red; }
]]></style>

<defs>
  <circle id="rim" cx="0" cy="0" r="7"/>
  <circle id="rim2" cx="0" cy="0" r="3.5"/>
  <g id="zoomPlus">
    <use xlink:href="#rim" fill="#404040"><set attributeName="fill" to="#808080" begin="zoomplus.mouseover" end="zoomplus.mouseout"/></use>
    <path d="M-4,0h8M0,-4v8" fill="none" stroke="white" stroke-width="1.5" pointer-events="none"/>
  </g>
  <g id="zoomMin">
    <use xlink:href="#rim" fill="#404040"><set attributeName="fill" to="#808080" begin="zoomminus.mouseover" end="zoomminus.mouseout"/></use>
    <path d="M-4,0h8" fill="none" stroke="white" stroke-width="1.5" pointer-events="none"/>
  </g>
  <g id="arrowUp" transform="translate(30 24)">
    <use xlink:href="#rim"/>
    <path pointer-events="none" fill="none" stroke="white" stroke-width="1.5" d="M0,-3.0v7 M-2.5,-0.5L0,-3.0L2.5,-0.5"/>
  </g>
  <g id="arrowRight" transform="rotate(90) translate(36 -43)">
    <use xlink:href="#rim"/>
    <path pointer-events="none" fill="none" stroke="white" stroke-width="1.5" d="M0,-3.0v7 M-2.5,-0.5L0,-3.0L2.5,-0.5"/>
  </g>
  <g id="arrowDown" transform="rotate(180) translate(-30 -48)">
    <use xlink:href="#rim"/>
    <path pointer-events="none" fill="none" stroke="white" stroke-width="1.5" d="M0,-3.0v7 M-2.5,-0.5L0,-3.0L2.5,-0.5"/>
  </g>
  <g id="arrowLeft" transform="rotate(270) translate(-36 17)">
    <use xlink:href="#rim"/>
    <path pointer-events="none" fill="none" stroke="white" stroke-width="1.5" d="M0,-3.0v7 M-2.5,-0.5L0,-3.0L2.5,-0.5"/>
  </g>
  <g id="resetDef">
    <use xlink:href="#rim2" fill="#404040"><set attributeName="fill" to="#808080" begin="reset.mouseover" end="reset.mouseout"/></use>
  </g>
</defs>
<script type="application/ecmascript">
var viewWidth = 641;
var viewHeight = 408;
var sectionId = 'dynsection-0';
</script>
<script type="application/ecmascript" xlink:href="../../svg.min.js"/>
<svg id="graph" class="graph">
<g id="viewport">
<title>ActionSingleUseBaseCB</title>
<!-- Node1 -->
<g id="Node000001" class="node">
<title>Node1</title>
<g id="a_Node000001"><a xlink:title=" ">
<polygon fill="#999999" stroke="#666666" points="432,-210 308,-210 308,-190 432,-190 432,-210"/>
<text text-anchor="middle" x="370" y="-196.5" font-family="Helvetica,sans-Serif" font-size="10.00">ActionSingleUseBaseCB</text>
</a>
</g>
</g>
<!-- Node4 -->
<g id="Node000004" class="node">
<title>Node4</title>
<g id="a_Node000004"><a xlink:href="../../dc/d07/class_action_consume_single_c_b.html" target="_top" xlink:title=" ">
<polygon fill="white" stroke="#666666" points="613,-400 487.5,-400 487.5,-380 613,-380 613,-400"/>
<text text-anchor="middle" x="550.25" y="-386.5" font-family="Helvetica,sans-Serif" font-size="10.00">ActionConsumeSingleCB</text>
</a>
</g>
</g>
<!-- Node1&#45;&gt;Node4 -->
<g id="edge3_Node000001_Node000004" class="edge">
<title>Node1&#45;&gt;Node4</title>
<g id="a_edge3_Node000001_Node000004"><a xlink:title=" ">
<path fill="none" stroke="#8b1a1a" d="M376.9,-221.26C388.19,-257.83 416.44,-332.43 468,-371 473.8,-375.34 480.43,-378.71 487.35,-381.32"/>
<polygon fill="#8b1a1a" stroke="#8b1a1a" points="380.32,-220.48 374.14,-211.87 373.6,-222.45 380.32,-220.48"/>
</a>
</g>
</g>
<!-- Node5 -->
<g id="Node000005" class="node">
<title>Node5</title>
<g id="a_Node000005"><a xlink:href="../../d8/d07/class_action_disinfect_plant_bit_c_b.html" target="_top" xlink:title=" ">
<polygon fill="white" stroke="#666666" points="614.88,-362 485.62,-362 485.62,-342 614.88,-342 614.88,-362"/>
<text text-anchor="middle" x="550.25" y="-348.5" font-family="Helvetica,sans-Serif" font-size="10.00">ActionDisinfectPlantBitCB</text>
</a>
</g>
</g>
<!-- Node1&#45;&gt;Node5 -->
<g id="edge4_Node000001_Node000005" class="edge">
<title>Node1&#45;&gt;Node5</title>
<g id="a_edge4_Node000001_Node000005"><a xlink:title=" ">
<path fill="none" stroke="#8b1a1a" d="M380.21,-220.65C394.55,-250.32 425.1,-304.57 468,-333 473.31,-336.52 479.2,-339.39 485.31,-341.73"/>
<polygon fill="#8b1a1a" stroke="#8b1a1a" points="383.4,-219.21 376,-211.62 377.06,-222.16 383.4,-219.21"/>
</a>
</g>
</g>
<!-- Node6 -->
<g id="Node000006" class="node">
<title>Node6</title>
<g id="a_Node000006"><a xlink:href="../../d4/d0b/class_action_drop_item_c_b.html" target="_top" xlink:title=" ">
<polygon fill="white" stroke="#666666" points="598.38,-324 502.12,-324 502.12,-304 598.38,-304 598.38,-324"/>
<text text-anchor="middle" x="550.25" y="-310.5" font-family="Helvetica,sans-Serif" font-size="10.00">ActionDropItemCB</text>
</a>
</g>
</g>
<!-- Node1&#45;&gt;Node6 -->
<g id="edge5_Node000001_Node000006" class="edge">
<title>Node1&#45;&gt;Node6</title>
<g id="a_edge5_Node000001_Node000006"><a xlink:title=" ">
<path fill="none" stroke="#8b1a1a" d="M385.4,-219.45C402.6,-241.24 433.42,-276 468,-295 478.28,-300.65 490.19,-304.63 501.67,-307.42"/>
<polygon fill="#8b1a1a" stroke="#8b1a1a" points="388.28,-217.45 379.41,-211.65 382.72,-221.71 388.28,-217.45"/>
</a>
</g>
</g>
<!-- Node7 -->
<g id="Node000007" class="node">
<title>Node7</title>
<g id="a_Node000007"><a xlink:href="../../df/d08/class_action_force_a_bite_c_b.html" target="_top" xlink:title=" ">
<polygon fill="white" stroke="#666666" points="603.25,-286 497.25,-286 497.25,-266 603.25,-266 603.25,-286"/>
<text text-anchor="middle" x="550.25" y="-272.5" font-family="Helvetica,sans-Serif" font-size="10.00">ActionForceABiteCB</text>
</a>
</g>
</g>
<!-- Node1&#45;&gt;Node7 -->
<g id="edge6_Node000001_Node000007" class="edge">
<title>Node1&#45;&gt;Node7</title>
<g id="a_edge6_Node000001_Node000007"><a xlink:title=" ">
<path fill="none" stroke="#8b1a1a" d="M394.75,-216.71C413.77,-229.41 441.56,-246.42 468,-257 477.15,-260.66 487.17,-263.71 496.95,-266.23"/>
<polygon fill="#8b1a1a" stroke="#8b1a1a" points="396.89,-213.94 386.65,-211.2 392.95,-219.72 396.89,-213.94"/>
</a>
</g>
</g>
<!-- Node8 -->
<g id="Node000008" class="node">
<title>Node8</title>
<g id="a_Node000008"><a xlink:href="../../d9/d0c/class_action_force_consume_single_c_b.html" target="_top" xlink:title=" ">
<polygon fill="white" stroke="#666666" points="625.38,-248 475.12,-248 475.12,-228 625.38,-228 625.38,-248"/>
<text text-anchor="middle" x="550.25" y="-234.5" font-family="Helvetica,sans-Serif" font-size="10.00">ActionForceConsumeSingleCB</text>
</a>
</g>
</g>
<!-- Node1&#45;&gt;Node8 -->
<g id="edge7_Node000001_Node000008" class="edge">
<title>Node1&#45;&gt;Node8</title>
<g id="a_edge7_Node000001_Node000008"><a xlink:title=" ">
<path fill="none" stroke="#8b1a1a" d="M431.29,-212.85C453.74,-217.64 478.92,-223.01 500.23,-227.55"/>
<polygon fill="#8b1a1a" stroke="#8b1a1a" points="432.17,-209.46 421.66,-210.8 430.71,-216.31 432.17,-209.46"/>
</a>
</g>
</g>
<!-- Node9 -->
<g id="Node000009" class="node">
<title>Node9</title>
<g id="a_Node000009"><a xlink:href="../../dc/d08/class_action_reset_kitchen_timer_clock_c_b.html" target="_top" xlink:title=" ">
<polygon fill="white" stroke="#666666" points="632.5,-210 468,-210 468,-190 632.5,-190 632.5,-210"/>
<text text-anchor="middle" x="550.25" y="-196.5" font-family="Helvetica,sans-Serif" font-size="10.00">ActionResetKitchenTimerClockCB</text>
</a>
</g>
</g>
<!-- Node1&#45;&gt;Node9 -->
<g id="edge8_Node000001_Node000009" class="edge">
<title>Node1&#45;&gt;Node9</title>
<g id="a_edge8_Node000001_Node000009"><a xlink:title=" ">
<path fill="none" stroke="#8b1a1a" d="M443.73,-200C451.61,-200 459.67,-200 467.65,-200"/>
<polygon fill="#8b1a1a" stroke="#8b1a1a" points="443.86,-196.5 433.86,-200 443.86,-203.5 443.86,-196.5"/>
</a>
</g>
</g>
<!-- Node10 -->
<g id="Node000010" class="node">
<title>Node10</title>
<g id="a_Node000010"><a xlink:href="../../d0/d0a/class_action_take_a_bite_c_b.html" target="_top" xlink:title=" ">
<polygon fill="white" stroke="#666666" points="601.38,-172 499.12,-172 499.12,-152 601.38,-152 601.38,-172"/>
<text text-anchor="middle" x="550.25" y="-158.5" font-family="Helvetica,sans-Serif" font-size="10.00">ActionTakeABiteCB</text>
</a>
</g>
</g>
<!-- Node1&#45;&gt;Node10 -->
<g id="edge9_Node000001_Node000010" class="edge">
<title>Node1&#45;&gt;Node10</title>
<g id="a_edge9_Node000001_Node000010"><a xlink:title=" ">
<path fill="none" stroke="#8b1a1a" d="M431.29,-187.15C453.74,-182.36 478.92,-176.99 500.23,-172.45"/>
<polygon fill="#8b1a1a" stroke="#8b1a1a" points="430.71,-183.69 421.66,-189.2 432.17,-190.54 430.71,-183.69"/>
</a>
</g>
</g>
<!-- Node11 -->
<g id="Node000011" class="node">
<title>Node11</title>
<g id="a_Node000011"><a xlink:href="../../de/d07/class_action_turn_off_alarm_clock_c_b.html" target="_top" xlink:title=" ">
<polygon fill="white" stroke="#666666" points="619.38,-134 481.12,-134 481.12,-114 619.38,-114 619.38,-134"/>
<text text-anchor="middle" x="550.25" y="-120.5" font-family="Helvetica,sans-Serif" font-size="10.00">ActionTurnOffAlarmClockCB</text>
</a>
</g>
</g>
<!-- Node1&#45;&gt;Node11 -->
<g id="edge10_Node000001_Node000011" class="edge">
<title>Node1&#45;&gt;Node11</title>
<g id="a_edge10_Node000001_Node000011"><a xlink:title=" ">
<path fill="none" stroke="#8b1a1a" d="M394.75,-183.29C413.77,-170.59 441.56,-153.58 468,-143 476.34,-139.66 485.4,-136.83 494.36,-134.45"/>
<polygon fill="#8b1a1a" stroke="#8b1a1a" points="392.95,-180.28 386.65,-188.8 396.89,-186.06 392.95,-180.28"/>
</a>
</g>
</g>
<!-- Node12 -->
<g id="Node000012" class="node">
<title>Node12</title>
<g id="a_Node000012"><a xlink:href="../../d2/d0c/class_action_turn_off_transmitter_c_b.html" target="_top" xlink:title=" ">
<polygon fill="white" stroke="#666666" points="618.62,-96 481.88,-96 481.88,-76 618.62,-76 618.62,-96"/>
<text text-anchor="middle" x="550.25" y="-82.5" font-family="Helvetica,sans-Serif" font-size="10.00">ActionTurnOffTransmitterCB</text>
</a>
</g>
</g>
<!-- Node1&#45;&gt;Node12 -->
<g id="edge11_Node000001_Node000012" class="edge">
<title>Node1&#45;&gt;Node12</title>
<g id="a_edge11_Node000001_Node000012"><a xlink:title=" ">
<path fill="none" stroke="#8b1a1a" d="M385.4,-180.55C402.6,-158.76 433.42,-124 468,-105 474.22,-101.58 481.04,-98.78 487.99,-96.47"/>
<polygon fill="#8b1a1a" stroke="#8b1a1a" points="382.72,-178.29 379.41,-188.35 388.28,-182.55 382.72,-178.29"/>
</a>
</g>
</g>
<!-- Node13 -->
<g id="Node000013" class="node">
<title>Node13</title>
<g id="a_Node000013"><a xlink:href="../../d5/d0c/class_action_turn_on_alarm_clock_c_b.html" target="_top" xlink:title=" ">
<polygon fill="white" stroke="#666666" points="619.75,-58 480.75,-58 480.75,-38 619.75,-38 619.75,-58"/>
<text text-anchor="middle" x="550.25" y="-44.5" font-family="Helvetica,sans-Serif" font-size="10.00">ActionTurnOnAlarmClockCB</text>
</a>
</g>
</g>
<!-- Node1&#45;&gt;Node13 -->
<g id="edge12_Node000001_Node000013" class="edge">
<title>Node1&#45;&gt;Node13</title>
<g id="a_edge12_Node000001_Node000013"><a xlink:title=" ">
<path fill="none" stroke="#8b1a1a" d="M380.21,-179.35C394.55,-149.68 425.1,-95.43 468,-67 473.19,-63.56 478.93,-60.74 484.89,-58.43"/>
<polygon fill="#8b1a1a" stroke="#8b1a1a" points="377.06,-177.84 376,-188.38 383.4,-180.79 377.06,-177.84"/>
</a>
</g>
</g>
<!-- Node14 -->
<g id="Node000014" class="node">
<title>Node14</title>
<g id="a_Node000014"><a xlink:href="../../d6/d01/class_action_turn_on_transmitter_c_b.html" target="_top" xlink:title=" ">
<polygon fill="white" stroke="#666666" points="619,-20 481.5,-20 481.5,0 619,0 619,-20"/>
<text text-anchor="middle" x="550.25" y="-6.5" font-family="Helvetica,sans-Serif" font-size="10.00">ActionTurnOnTransmitterCB</text>
</a>
</g>
</g>
<!-- Node1&#45;&gt;Node14 -->
<g id="edge13_Node000001_Node000014" class="edge">
<title>Node1&#45;&gt;Node14</title>
<g id="a_edge13_Node000001_Node000014"><a xlink:title=" ">
<path fill="none" stroke="#8b1a1a" d="M376.9,-178.74C388.19,-142.17 416.44,-67.57 468,-29 472.64,-25.53 477.81,-22.68 483.24,-20.34"/>
<polygon fill="#8b1a1a" stroke="#8b1a1a" points="373.6,-177.55 374.14,-188.13 380.32,-179.52 373.6,-177.55"/>
</a>
</g>
</g>
<!-- Node2 -->
<g id="Node000002" class="node">
<title>Node2</title>
<g id="a_Node000002"><a xlink:href="../../dd/d0f/class_action_base_c_b.html" target="_top" xlink:title=" ">
<polygon fill="white" stroke="#666666" points="272,-210 192.25,-210 192.25,-190 272,-190 272,-210"/>
<text text-anchor="middle" x="232.12" y="-196.5" font-family="Helvetica,sans-Serif" font-size="10.00">ActionBaseCB</text>
</a>
</g>
</g>
<!-- Node2&#45;&gt;Node1 -->
<g id="edge1_Node000001_Node000002" class="edge">
<title>Node2&#45;&gt;Node1</title>
<g id="a_edge1_Node000001_Node000002"><a xlink:title=" ">
<path fill="none" stroke="#8b1a1a" d="M283.84,-200C291.56,-200 299.6,-200 307.52,-200"/>
<polygon fill="#8b1a1a" stroke="#8b1a1a" points="283.94,-196.5 273.94,-200 283.94,-203.5 283.94,-196.5"/>
</a>
</g>
</g>
<!-- Node3 -->
<g id="Node000003" class="node">
<title>Node3</title>
<g id="a_Node000003"><a xlink:href="../../dc/d02/class_human_command_action_callback.html" target="_top" xlink:title=" ">
<polygon fill="white" stroke="#666666" points="156.25,-210 0,-210 0,-190 156.25,-190 156.25,-210"/>
<text text-anchor="middle" x="78.12" y="-196.5" font-family="Helvetica,sans-Serif" font-size="10.00">HumanCommandActionCallback</text>
</a>
</g>
</g>
<!-- Node3&#45;&gt;Node2 -->
<g id="edge2_Node000002_Node000003" class="edge">
<title>Node3&#45;&gt;Node2</title>
<g id="a_edge2_Node000002_Node000003"><a xlink:title=" ">
<path fill="none" stroke="#8b1a1a" d="M167.96,-200C176.32,-200 184.47,-200 191.99,-200"/>
<polygon fill="#8b1a1a" stroke="#8b1a1a" points="167.97,-196.5 157.97,-200 167.97,-203.5 167.97,-196.5"/>
</a>
</g>
</g>
</g>
</svg>

<g id="navigator" transform="translate(0 0)" fill="#404254">
  <rect fill="#f2f5e9" fill-opacity="0.5" stroke="#606060" stroke-width=".5" x="0" y="0" width="60" height="60"/>
  <use id="zoomplus" xlink:href="#zoomPlus" x="17" y="9" onmousedown="handleZoom(evt,'in')"/>
  <use id="zoomminus" xlink:href="#zoomMin" x="42" y="9" onmousedown="handleZoom(evt,'out')"/>
  <use id="reset" xlink:href="#resetDef" x="30" y="36" onmousedown="handleReset()"/>
   <use id="arrowup" xlink:href="#arrowUp" x="0" y="0" onmousedown="handlePan(0,-1)"/>
  <use id="arrowright" xlink:href="#arrowRight" x="0" y="0" onmousedown="handlePan(1,0)"/>
  <use id="arrowdown" xlink:href="#arrowDown" x="0" y="0" onmousedown="handlePan(0,1)"/>
  <use id="arrowleft" xlink:href="#arrowLeft" x="0" y="0" onmousedown="handlePan(-1,0)"/>
</g>
<svg viewBox="0 0 15 15" width="100%" height="30px" preserveAspectRatio="xMaxYMin meet">
 <g id="arrow_out" transform="scale(0.3 0.3)">
  <a xlink:href="class_action_single_use_base_c_b__inherit__graph_org.svg" target="_base">
   <rect id="button" ry="5" rx="5" y="6" x="6" height="38" width="38"
        fill="#f2f5e9" fill-opacity="0.5" stroke="#606060" stroke-width="1.0"/>
   <path id="arrow"
     d="M 11.500037,31.436501 C 11.940474,20.09759 22.043105,11.32322 32.158766,21.979434 L 37.068811,17.246167 C 37.068811,17.246167 37.088388,32 37.088388,32 L 22.160133,31.978069 C 22.160133,31.978069 26.997745,27.140456 26.997745,27.140456 C 18.528582,18.264221 13.291696,25.230495 11.500037,31.436501 z"
     style="fill:#404040;"/>
  </a>
 </g>
</svg>

<style type='text/css'>
<![CDATA[
[data-mouse-over-selected='false'] { opacity: 0.7; }
[data-mouse-over-selected='true']  { opacity: 1.0; }
]]>
</style>
<script type="application/ecmascript"><![CDATA[
document.addEventListener('DOMContentLoaded', (event) => {
  highlightEdges();
  highlightAdjacentNodes();
});
]]></script>
</svg>
