<?xml version="1.0" encoding="UTF-8" standalone="no"?>
<!DOCTYPE svg PUBLIC "-//W3C//DTD SVG 1.1//EN"
 "http://www.w3.org/Graphics/SVG/1.1/DTD/svg11.dtd">
<!-- Generated by graphviz version 11.0.0 (20240428.1522)
 -->
<!-- Title: ActionMenu Pages: 1 -->
<svg width="1166pt" height="386pt"
 viewBox="0.00 0.00 1166.00 385.91" xmlns="http://www.w3.org/2000/svg" xmlns:xlink="http://www.w3.org/1999/xlink">
<g id="graph0" class="graph" transform="scale(1 1) rotate(0) translate(4 381.91)">
<title>ActionMenu</title>
<!-- Node1 -->
<g id="Node000001" class="node">
<title>Node1</title>
<g id="a_Node000001"><a xlink:title=" ">
<polygon fill="#999999" stroke="#666666" points="401.88,-20 334.12,-20 334.12,0 401.88,0 401.88,-20"/>
<text text-anchor="middle" x="368" y="-6.5" font-family="Helvetica,sans-Serif" font-size="10.00">ActionMenu</text>
</a>
</g>
</g>
<!-- Node2 -->
<g id="Node000002" class="node">
<title>Node2</title>
<g id="a_Node000002"><a xlink:href="../../d4/d03/classfloat.html" target="_top" xlink:title=" ">
<polygon fill="white" stroke="#666666" points="34,-120 0,-120 0,-100 34,-100 34,-120"/>
<text text-anchor="middle" x="17" y="-106.5" font-family="Helvetica,sans-Serif" font-size="10.00">float</text>
</a>
</g>
</g>
<!-- Node2&#45;&gt;Node1 -->
<g id="edge1_Node000001_Node000002" class="edge">
<title>Node2&#45;&gt;Node1</title>
<g id="a_edge1_Node000001_Node000002"><a xlink:title=" ">
<path fill="none" stroke="#9a32cd" stroke-dasharray="5,2" d="M13.36,-88.6C11.76,-72.5 12.67,-50.71 26,-38 47.95,-17.06 251.6,-12.35 333.82,-11.3"/>
<polygon fill="#9a32cd" stroke="#9a32cd" points="9.83,-88.64 14.69,-98.06 16.76,-87.67 9.83,-88.64"/>
</a>
</g>
<text text-anchor="middle" x="68" y="-64.5" font-family="Helvetica,sans-Serif" font-size="10.00" fill="grey"> FADE_IN_TIME</text>
<text text-anchor="middle" x="68" y="-52.5" font-family="Helvetica,sans-Serif" font-size="10.00" fill="grey">FADE_OUT_TIME</text>
<text text-anchor="middle" x="68" y="-40.5" font-family="Helvetica,sans-Serif" font-size="10.00" fill="grey">HIDE_MENU_TIME</text>
</g>
<!-- Node2&#45;&gt;Node2 -->
<g id="edge2_Node000002_Node000002" class="edge">
<title>Node2&#45;&gt;Node2</title>
<g id="a_edge2_Node000002_Node000002"><a xlink:title=" ">
<path fill="none" stroke="#9a32cd" stroke-dasharray="5,2" d="M45.67,-116.95C49.47,-115.77 52,-113.45 52,-110 52,-103.68 43.56,-101.17 34.29,-102.45"/>
<polygon fill="#9a32cd" stroke="#9a32cd" points="45.6,-113.45 35.8,-117.47 45.97,-120.44 45.6,-113.45"/>
</a>
</g>
<text text-anchor="middle" x="74.12" y="-118.5" font-family="Helvetica,sans-Serif" font-size="10.00" fill="grey"> LOWEST</text>
<text text-anchor="middle" x="74.12" y="-106.5" font-family="Helvetica,sans-Serif" font-size="10.00" fill="grey">MAX</text>
<text text-anchor="middle" x="74.12" y="-94.5" font-family="Helvetica,sans-Serif" font-size="10.00" fill="grey">MIN</text>
</g>
<!-- Node3 -->
<g id="Node000003" class="node">
<title>Node3</title>
<g id="a_Node000003"><a xlink:href="../../d2/d01/classarray.html" target="_top" xlink:title=" ">
<polygon fill="white" stroke="#666666" points="375.62,-120 270.38,-120 270.38,-100 375.62,-100 375.62,-120"/>
<text text-anchor="middle" x="323" y="-106.5" font-family="Helvetica,sans-Serif" font-size="10.00">array&lt; TextWidget &gt;</text>
</a>
</g>
</g>
<!-- Node3&#45;&gt;Node1 -->
<g id="edge3_Node000001_Node000003" class="edge">
<title>Node3&#45;&gt;Node1</title>
<g id="a_edge3_Node000001_Node000003"><a xlink:title=" ">
<path fill="none" stroke="#9a32cd" stroke-dasharray="5,2" d="M318.38,-88.41C316.15,-73.45 315.57,-53.23 324.25,-38 328.58,-30.4 336,-24.66 343.52,-20.47"/>
<polygon fill="#9a32cd" stroke="#9a32cd" points="314.9,-88.85 320.19,-98.03 321.78,-87.56 314.9,-88.85"/>
</a>
</g>
<text text-anchor="middle" x="357.38" y="-52.5" font-family="Helvetica,sans-Serif" font-size="10.00" fill="grey"> m_actionItems</text>
</g>
<!-- Node4 -->
<g id="Node000004" class="node">
<title>Node4</title>
<g id="a_Node000004"><a xlink:href="../../d8/d03/class_object.html" target="_top" xlink:title=" ">
<polygon fill="white" stroke="#666666" points="1056.25,-376 1011.75,-376 1011.75,-356 1056.25,-356 1056.25,-376"/>
<text text-anchor="middle" x="1034" y="-362.5" font-family="Helvetica,sans-Serif" font-size="10.00">Object</text>
</a>
</g>
</g>
<!-- Node4&#45;&gt;Node3 -->
<g id="edge4_Node000003_Node000004" class="edge">
<title>Node4&#45;&gt;Node3</title>
<g id="a_edge4_Node000003_Node000004"><a xlink:title=" ">
<path fill="none" stroke="#9a32cd" stroke-dasharray="5,2" d="M1032.85,-344.24C1031.32,-323.94 1027.82,-292.33 1020,-266 1000.32,-199.72 987.83,-163.71 921,-146 805.58,-115.42 502.01,-146.16 384,-128 373.24,-126.35 361.68,-123.43 351.55,-120.47"/>
<polygon fill="#9a32cd" stroke="#9a32cd" points="1029.35,-344.26 1033.49,-354.01 1036.33,-343.8 1029.35,-344.26"/>
</a>
</g>
<text text-anchor="middle" x="1027.5" y="-214.5" font-family="Helvetica,sans-Serif" font-size="10.00" fill="grey"> obj</text>
<text text-anchor="middle" x="1027.5" y="-202.5" font-family="Helvetica,sans-Serif" font-size="10.00" fill="grey">parent</text>
</g>
<!-- Node6 -->
<g id="Node000006" class="node">
<title>Node6</title>
<g id="a_Node000006"><a xlink:href="../../d2/d01/classarray.html" target="_top" xlink:title="Result for an object found in CGame.IsBoxCollidingGeometryProxy.">
<polygon fill="white" stroke="#666666" points="777.88,-222 740.12,-222 740.12,-202 777.88,-202 777.88,-222"/>
<text text-anchor="middle" x="759" y="-208.5" font-family="Helvetica,sans-Serif" font-size="10.00">array</text>
</a>
</g>
</g>
<!-- Node4&#45;&gt;Node6 -->
<g id="edge7_Node000006_Node000004" class="edge">
<title>Node4&#45;&gt;Node6</title>
<g id="a_edge7_Node000006_Node000004"><a xlink:title=" ">
<path fill="none" stroke="#9a32cd" stroke-dasharray="5,2" d="M1009.58,-349.33C1004.08,-345.68 998.3,-341.77 993,-338 950.11,-307.51 944.99,-291.59 899,-266 897.61,-265.23 816.28,-234.57 778.24,-220.24"/>
<polygon fill="#9a32cd" stroke="#9a32cd" points="1007.47,-352.13 1017.76,-354.68 1011.3,-346.27 1007.47,-352.13"/>
</a>
</g>
<text text-anchor="middle" x="1006.5" y="-304.5" font-family="Helvetica,sans-Serif" font-size="10.00" fill="grey"> obj</text>
<text text-anchor="middle" x="1006.5" y="-292.5" font-family="Helvetica,sans-Serif" font-size="10.00" fill="grey">parent</text>
</g>
<!-- Node10 -->
<g id="Node000010" class="node">
<title>Node10</title>
<g id="a_Node000010"><a xlink:href="../../d2/d01/classarray.html" target="_top" xlink:title=" ">
<polygon fill="white" stroke="#666666" points="932.25,-120 845.75,-120 845.75,-100 932.25,-100 932.25,-120"/>
<text text-anchor="middle" x="889" y="-106.5" font-family="Helvetica,sans-Serif" font-size="10.00">array&lt; Widget &gt;</text>
</a>
</g>
</g>
<!-- Node4&#45;&gt;Node10 -->
<g id="edge15_Node000010_Node000004" class="edge">
<title>Node4&#45;&gt;Node10</title>
<g id="a_edge15_Node000010_Node000004"><a xlink:title=" ">
<path fill="none" stroke="#9a32cd" stroke-dasharray="5,2" d="M1052.69,-348.26C1088.3,-314.29 1159.05,-235.47 1121,-176 1100.68,-144.25 993.96,-124.98 932.58,-116.36"/>
<polygon fill="#9a32cd" stroke="#9a32cd" points="1050.53,-345.48 1045.59,-354.86 1055.3,-350.61 1050.53,-345.48"/>
</a>
</g>
<text text-anchor="middle" x="1144.5" y="-214.5" font-family="Helvetica,sans-Serif" font-size="10.00" fill="grey"> obj</text>
<text text-anchor="middle" x="1144.5" y="-202.5" font-family="Helvetica,sans-Serif" font-size="10.00" fill="grey">parent</text>
</g>
<!-- Node5 -->
<g id="Node000005" class="node">
<title>Node5</title>
<g id="a_Node000005"><a xlink:href="../../db/d06/class_param3.html" target="_top" xlink:title=" ">
<polygon fill="white" stroke="#666666" points="586.88,-376 537.12,-376 537.12,-356 586.88,-356 586.88,-376"/>
<text text-anchor="middle" x="562" y="-362.5" font-family="Helvetica,sans-Serif" font-size="10.00">Param3</text>
</a>
</g>
</g>
<!-- Node5&#45;&gt;Node3 -->
<g id="edge5_Node000003_Node000005" class="edge">
<title>Node5&#45;&gt;Node3</title>
<g id="a_edge5_Node000003_Node000005"><a xlink:title=" ">
<path fill="none" stroke="#9a32cd" stroke-dasharray="5,2" d="M525.63,-361.95C465.27,-354.6 346.96,-329.92 305.75,-248 283.77,-204.31 307.77,-143.26 318.43,-120.25"/>
<polygon fill="#9a32cd" stroke="#9a32cd" points="525.06,-365.41 535.39,-363.03 525.83,-358.45 525.06,-365.41"/>
</a>
</g>
<text text-anchor="middle" x="363.12" y="-238.5" font-family="Helvetica,sans-Serif" font-size="10.00" fill="grey"> NO_SORTING</text>
<text text-anchor="middle" x="363.12" y="-226.5" font-family="Helvetica,sans-Serif" font-size="10.00" fill="grey">geomLevel</text>
<text text-anchor="middle" x="363.12" y="-214.5" font-family="Helvetica,sans-Serif" font-size="10.00" fill="grey">hierLevel</text>
<text text-anchor="start" x="305" y="-202.5" font-family="Helvetica,sans-Serif" font-size="10.00" fill="grey">m_CurrentSettingAlternate</text>
<text text-anchor="middle" x="363.12" y="-190.5" font-family="Helvetica,sans-Serif" font-size="10.00" fill="grey">KeyIndex</text>
<text text-anchor="middle" x="363.12" y="-178.5" font-family="Helvetica,sans-Serif" font-size="10.00" fill="grey">m_CurrentSettingKeyIndex</text>
</g>
<!-- Node5&#45;&gt;Node6 -->
<g id="edge8_Node000006_Node000005" class="edge">
<title>Node5&#45;&gt;Node6</title>
<g id="a_edge8_Node000006_Node000005"><a xlink:title=" ">
<path fill="none" stroke="#9a32cd" stroke-dasharray="5,2" d="M571.68,-345.36C584,-322.53 607.49,-285.49 638.75,-266 672.35,-245.06 691.43,-267.3 726,-248 737.23,-241.73 746.89,-230.34 752.81,-222.26"/>
<polygon fill="#9a32cd" stroke="#9a32cd" points="568.58,-343.73 567.1,-354.22 574.8,-346.94 568.58,-343.73"/>
</a>
</g>
<text text-anchor="middle" x="696.12" y="-328.5" font-family="Helvetica,sans-Serif" font-size="10.00" fill="grey"> NO_SORTING</text>
<text text-anchor="middle" x="696.12" y="-316.5" font-family="Helvetica,sans-Serif" font-size="10.00" fill="grey">geomLevel</text>
<text text-anchor="middle" x="696.12" y="-304.5" font-family="Helvetica,sans-Serif" font-size="10.00" fill="grey">hierLevel</text>
<text text-anchor="start" x="638" y="-292.5" font-family="Helvetica,sans-Serif" font-size="10.00" fill="grey">m_CurrentSettingAlternate</text>
<text text-anchor="middle" x="696.12" y="-280.5" font-family="Helvetica,sans-Serif" font-size="10.00" fill="grey">KeyIndex</text>
<text text-anchor="middle" x="696.12" y="-268.5" font-family="Helvetica,sans-Serif" font-size="10.00" fill="grey">m_CurrentSettingKeyIndex</text>
</g>
<!-- Node5&#45;&gt;Node10 -->
<g id="edge16_Node000010_Node000005" class="edge">
<title>Node5&#45;&gt;Node10</title>
<g id="a_edge16_Node000010_Node000005"><a xlink:title=" ">
<path fill="none" stroke="#9a32cd" stroke-dasharray="5,2" d="M563.32,-344.29C564.98,-324.03 568.58,-292.45 576,-266 587.76,-224.07 581.4,-204 614.75,-176 649.41,-146.89 777.2,-125.91 845.41,-116.51"/>
<polygon fill="#9a32cd" stroke="#9a32cd" points="559.84,-343.81 562.61,-354.04 566.83,-344.32 559.84,-343.81"/>
</a>
</g>
<text text-anchor="middle" x="672.12" y="-238.5" font-family="Helvetica,sans-Serif" font-size="10.00" fill="grey"> NO_SORTING</text>
<text text-anchor="middle" x="672.12" y="-226.5" font-family="Helvetica,sans-Serif" font-size="10.00" fill="grey">geomLevel</text>
<text text-anchor="middle" x="672.12" y="-214.5" font-family="Helvetica,sans-Serif" font-size="10.00" fill="grey">hierLevel</text>
<text text-anchor="start" x="614" y="-202.5" font-family="Helvetica,sans-Serif" font-size="10.00" fill="grey">m_CurrentSettingAlternate</text>
<text text-anchor="middle" x="672.12" y="-190.5" font-family="Helvetica,sans-Serif" font-size="10.00" fill="grey">KeyIndex</text>
<text text-anchor="middle" x="672.12" y="-178.5" font-family="Helvetica,sans-Serif" font-size="10.00" fill="grey">m_CurrentSettingKeyIndex</text>
</g>
<!-- Node6&#45;&gt;Node3 -->
<g id="edge6_Node000003_Node000006" class="edge">
<title>Node6&#45;&gt;Node3</title>
<g id="a_edge6_Node000003_Node000006"><a xlink:title=" ">
<path fill="none" stroke="#9a32cd" stroke-dasharray="5,2" d="M745.99,-192.76C740.54,-186.45 733.68,-179.97 726,-176 589.65,-105.51 534.26,-159.34 384,-128 374.1,-125.93 363.44,-123.16 353.84,-120.45"/>
<polygon fill="#9a32cd" stroke="#9a32cd" points="743.04,-194.67 751.97,-200.38 748.55,-190.35 743.04,-194.67"/>
</a>
</g>
<text text-anchor="middle" x="701" y="-148.5" font-family="Helvetica,sans-Serif" font-size="10.00" fill="grey"> proxyInfo</text>
</g>
<!-- Node6&#45;&gt;Node6 -->
<g id="edge9_Node000006_Node000006" class="edge">
<title>Node6&#45;&gt;Node6</title>
<g id="a_edge9_Node000006_Node000006"><a xlink:title=" ">
<path fill="none" stroke="#9a32cd" stroke-dasharray="5,2" d="M787.02,-222.66C792.22,-221.34 795.88,-217.78 795.88,-212 795.88,-202.51 786.03,-199.02 775.69,-201.54"/>
<polygon fill="#9a32cd" stroke="#9a32cd" points="787.26,-219.17 777.2,-222.48 787.13,-226.16 787.26,-219.17"/>
</a>
</g>
<text text-anchor="middle" x="816.88" y="-208.5" font-family="Helvetica,sans-Serif" font-size="10.00" fill="grey"> proxyInfo</text>
</g>
<!-- Node6&#45;&gt;Node10 -->
<g id="edge17_Node000010_Node000006" class="edge">
<title>Node6&#45;&gt;Node10</title>
<g id="a_edge17_Node000010_Node000006"><a xlink:title=" ">
<path fill="none" stroke="#9a32cd" stroke-dasharray="5,2" d="M788.97,-202.41C812.71,-194.29 845.37,-180.03 867,-158 877.48,-147.33 883.62,-130.73 886.64,-120.39"/>
<polygon fill="#9a32cd" stroke="#9a32cd" points="788.01,-199.04 779.56,-205.44 790.16,-205.7 788.01,-199.04"/>
</a>
</g>
<text text-anchor="middle" x="896" y="-148.5" font-family="Helvetica,sans-Serif" font-size="10.00" fill="grey"> proxyInfo</text>
</g>
<!-- Node7 -->
<g id="Node000007" class="node">
<title>Node7</title>
<g id="a_Node000007"><a xlink:href="../../d4/d04/class_class.html" target="_top" xlink:title="Super root of all classes in Enforce script.">
<polygon fill="white" stroke="#666666" points="779.38,-376 738.62,-376 738.62,-356 779.38,-356 779.38,-376"/>
<text text-anchor="middle" x="759" y="-362.5" font-family="Helvetica,sans-Serif" font-size="10.00">Class</text>
</a>
</g>
</g>
<!-- Node7&#45;&gt;Node3 -->
<g id="edge22_Node000003_Node000007" class="edge">
<title>Node7&#45;&gt;Node3</title>
<g id="a_edge22_Node000003_Node000007"><a xlink:title=" ">
<path fill="none" stroke="#9a32cd" stroke-dasharray="5,2" d="M755.43,-344.41C750.22,-321.2 738.16,-284.33 712,-266 642.81,-217.52 592.89,-295.1 522.75,-248 492.75,-227.86 511.81,-200.22 485,-176 464.99,-157.92 394.48,-133.56 353.38,-120.39"/>
<polygon fill="#9a32cd" stroke="#9a32cd" points="751.99,-345.08 757.37,-354.21 758.86,-343.72 751.99,-345.08"/>
</a>
</g>
<text text-anchor="middle" x="548.62" y="-208.5" font-family="Helvetica,sans-Serif" font-size="10.00" fill="grey"> m_Instance</text>
</g>
<!-- Node7&#45;&gt;Node6 -->
<g id="edge10_Node000006_Node000007" class="edge">
<title>Node7&#45;&gt;Node6</title>
<g id="a_edge10_Node000006_Node000007"><a xlink:title=" ">
<path fill="none" stroke="#9a32cd" stroke-dasharray="5,2" d="M759,-344.47C759,-311.04 759,-246.17 759,-222.2"/>
<polygon fill="#9a32cd" stroke="#9a32cd" points="755.5,-344.43 759,-354.43 762.5,-344.43 755.5,-344.43"/>
</a>
</g>
<text text-anchor="middle" x="785.62" y="-298.5" font-family="Helvetica,sans-Serif" font-size="10.00" fill="grey"> m_Instance</text>
</g>
<!-- Node7&#45;&gt;Node10 -->
<g id="edge18_Node000010_Node000007" class="edge">
<title>Node7&#45;&gt;Node10</title>
<g id="a_edge18_Node000010_Node000007"><a xlink:title=" ">
<path fill="none" stroke="#9a32cd" stroke-dasharray="5,2" d="M791.04,-364.98C815.63,-363.3 849,-357.23 871,-338 896.85,-315.41 882.06,-295.86 899,-266 904,-257.18 909.29,-257.43 913,-248 927.7,-210.63 919.22,-198.12 921,-158 921.24,-152.67 922.93,-150.97 921,-146 917.01,-135.72 908.43,-126.61 901.16,-120.26"/>
<polygon fill="#9a32cd" stroke="#9a32cd" points="791.1,-361.47 781.27,-365.41 791.42,-368.46 791.1,-361.47"/>
</a>
</g>
<text text-anchor="middle" x="947.62" y="-208.5" font-family="Helvetica,sans-Serif" font-size="10.00" fill="grey"> m_Instance</text>
</g>
<!-- Node8 -->
<g id="Node000008" class="node">
<title>Node8</title>
<g id="a_Node000008"><a xlink:href="../../d5/d02/classstring.html" target="_top" xlink:title=" ">
<polygon fill="white" stroke="#666666" points="930,-376 890,-376 890,-356 930,-356 930,-376"/>
<text text-anchor="middle" x="910" y="-362.5" font-family="Helvetica,sans-Serif" font-size="10.00">string</text>
</a>
</g>
</g>
<!-- Node8&#45;&gt;Node3 -->
<g id="edge23_Node000003_Node000008" class="edge">
<title>Node8&#45;&gt;Node3</title>
<g id="a_edge23_Node000003_Node000008"><a xlink:title=" ">
<path fill="none" stroke="#9a32cd" stroke-dasharray="5,2" d="M911.34,-344.13C911.75,-323.06 909.75,-290.26 896,-266 889.73,-254.93 880.89,-258.53 873.75,-248 847.09,-208.71 879.68,-174.89 842,-146 801.59,-115.01 434.31,-135.89 384,-128 373.25,-126.31 361.69,-123.39 351.56,-120.44"/>
<polygon fill="#9a32cd" stroke="#9a32cd" points="907.85,-343.9 910.92,-354.04 914.84,-344.19 907.85,-343.9"/>
</a>
</g>
<text text-anchor="middle" x="890.62" y="-208.5" font-family="Helvetica,sans-Serif" font-size="10.00" fill="grey"> m_Test</text>
</g>
<!-- Node8&#45;&gt;Node6 -->
<g id="edge11_Node000006_Node000008" class="edge">
<title>Node8&#45;&gt;Node6</title>
<g id="a_edge11_Node000006_Node000008"><a xlink:title=" ">
<path fill="none" stroke="#9a32cd" stroke-dasharray="5,2" d="M880.13,-351.64C873.33,-347.81 866.44,-343.23 860.75,-338 832.48,-312.01 837.45,-295.61 813,-266 799.28,-249.39 780.98,-232.31 769.6,-222.18"/>
<polygon fill="#9a32cd" stroke="#9a32cd" points="878.05,-354.51 888.54,-356.01 881.28,-348.29 878.05,-354.51"/>
</a>
</g>
<text text-anchor="middle" x="877.62" y="-298.5" font-family="Helvetica,sans-Serif" font-size="10.00" fill="grey"> m_Test</text>
</g>
<!-- Node8&#45;&gt;Node8 -->
<g id="edge12_Node000008_Node000008" class="edge">
<title>Node8&#45;&gt;Node8</title>
<g id="a_edge12_Node000008_Node000008"><a xlink:title=" ">
<path fill="none" stroke="#9a32cd" stroke-dasharray="5,2" d="M935.77,-377.91C942.72,-377.28 948,-373.31 948,-366 948,-355.12 936.3,-351.64 924.82,-355.55"/>
<polygon fill="#9a32cd" stroke="#9a32cd" points="936.7,-374.5 926.32,-376.65 935.77,-381.44 936.7,-374.5"/>
</a>
</g>
<text text-anchor="middle" x="963.75" y="-362.5" font-family="Helvetica,sans-Serif" font-size="10.00" fill="grey"> Empty</text>
</g>
<!-- Node8&#45;&gt;Node10 -->
<g id="edge19_Node000010_Node000008" class="edge">
<title>Node8&#45;&gt;Node10</title>
<g id="a_edge19_Node000010_Node000008"><a xlink:title=" ">
<path fill="none" stroke="#9a32cd" stroke-dasharray="5,2" d="M941.47,-359.73C958.44,-355.78 979.11,-349.08 995,-338 1059.35,-293.15 1109.68,-240.47 1065,-176 1035.41,-133.3 974.37,-118.57 932.56,-113.54"/>
<polygon fill="#9a32cd" stroke="#9a32cd" points="940.96,-356.26 931.89,-361.74 942.4,-363.11 940.96,-356.26"/>
</a>
</g>
<text text-anchor="middle" x="1099.62" y="-208.5" font-family="Helvetica,sans-Serif" font-size="10.00" fill="grey"> m_Test</text>
</g>
<!-- Node9 -->
<g id="Node000009" class="node">
<title>Node9</title>
<g id="a_Node000009"><a xlink:href="../../dd/d0a/class_widget.html" target="_top" xlink:title=" ">
<polygon fill="white" stroke="#666666" points="299.38,-376 252.62,-376 252.62,-356 299.38,-356 299.38,-376"/>
<text text-anchor="middle" x="276" y="-362.5" font-family="Helvetica,sans-Serif" font-size="10.00">Widget</text>
</a>
</g>
</g>
<!-- Node9&#45;&gt;Node1 -->
<g id="edge26_Node000001_Node000009" class="edge">
<title>Node9&#45;&gt;Node1</title>
<g id="a_edge26_Node000001_Node000009"><a xlink:title=" ">
<path fill="none" stroke="#9a32cd" stroke-dasharray="5,2" d="M242.46,-351.19C236.14,-347.55 229.97,-343.17 225,-338 160.12,-270.54 93.05,-227.82 138.5,-146 179.91,-71.44 280.84,-34.23 333.98,-19.26"/>
<polygon fill="#9a32cd" stroke="#9a32cd" points="240.52,-354.13 251.01,-355.61 243.73,-347.91 240.52,-354.13"/>
</a>
</g>
<text text-anchor="middle" x="190.75" y="-148.5" font-family="Helvetica,sans-Serif" font-size="10.00" fill="grey"> m_actionsPanelWidget</text>
</g>
<!-- Node9&#45;&gt;Node3 -->
<g id="edge24_Node000003_Node000009" class="edge">
<title>Node9&#45;&gt;Node3</title>
<g id="a_edge24_Node000003_Node000009"><a xlink:title=" ">
<path fill="none" stroke="#9a32cd" stroke-dasharray="5,2" d="M263.86,-346.32C242.66,-311.18 203.86,-233.57 233.25,-176 247.07,-148.93 278.02,-130.51 299.69,-120.38"/>
<polygon fill="#9a32cd" stroke="#9a32cd" points="260.7,-347.89 268.97,-354.52 266.64,-344.18 260.7,-347.89"/>
</a>
</g>
<text text-anchor="middle" x="251.38" y="-208.5" font-family="Helvetica,sans-Serif" font-size="10.00" fill="grey"> m_Root</text>
</g>
<!-- Node9&#45;&gt;Node6 -->
<g id="edge13_Node000006_Node000009" class="edge">
<title>Node9&#45;&gt;Node6</title>
<g id="a_edge13_Node000006_Node000009"><a xlink:title=" ">
<path fill="none" stroke="#9a32cd" stroke-dasharray="5,2" d="M310.85,-360.26C336.58,-356.12 372.15,-349.01 402,-338 465.16,-314.71 470.84,-285.55 535.25,-266 616.73,-241.26 649.49,-285.38 726,-248 737.71,-242.28 747.4,-230.54 753.19,-222.23"/>
<polygon fill="#9a32cd" stroke="#9a32cd" points="310.63,-356.76 301.28,-361.73 311.7,-363.67 310.63,-356.76"/>
</a>
</g>
<text text-anchor="middle" x="553.38" y="-298.5" font-family="Helvetica,sans-Serif" font-size="10.00" fill="grey"> m_Root</text>
</g>
<!-- Node9&#45;&gt;Node10 -->
<g id="edge20_Node000010_Node000009" class="edge">
<title>Node9&#45;&gt;Node10</title>
<g id="a_edge20_Node000010_Node000009"><a xlink:title=" ">
<path fill="none" stroke="#9a32cd" stroke-dasharray="5,2" d="M297.01,-348.69C336.35,-318.08 417.58,-254.5 422,-248 440.84,-220.31 418.83,-197.81 444.25,-176 474.49,-150.06 739.59,-124.13 845.53,-114.71"/>
<polygon fill="#9a32cd" stroke="#9a32cd" points="294.93,-345.88 289.18,-354.78 299.22,-351.4 294.93,-345.88"/>
</a>
</g>
<text text-anchor="middle" x="462.38" y="-208.5" font-family="Helvetica,sans-Serif" font-size="10.00" fill="grey"> m_Root</text>
</g>
<!-- Node10&#45;&gt;Node6 -->
<g id="edge14_Node000006_Node000010" class="edge">
<title>Node10&#45;&gt;Node6</title>
<g id="a_edge14_Node000006_Node000010"><a xlink:title=" ">
<path fill="none" stroke="#9a32cd" stroke-dasharray="5,2" d="M843.26,-124.3C829.73,-129.63 815.48,-136.76 804,-146 784.54,-161.67 770.01,-187.91 763.23,-201.77"/>
<polygon fill="#9a32cd" stroke="#9a32cd" points="844.29,-127.65 852.48,-120.91 841.88,-121.07 844.29,-127.65"/>
</a>
</g>
<text text-anchor="middle" x="835.5" y="-148.5" font-family="Helvetica,sans-Serif" font-size="10.00" fill="grey"> m_Subgroups</text>
</g>
<!-- Node10&#45;&gt;Node10 -->
<g id="edge21_Node000010_Node000010" class="edge">
<title>Node10&#45;&gt;Node10</title>
<g id="a_edge21_Node000010_Node000010"><a xlink:title=" ">
<path fill="none" stroke="#9a32cd" stroke-dasharray="5,2" d="M943.63,-115.88C947.73,-114.57 950.25,-112.61 950.25,-110 950.25,-105.49 942.71,-102.92 932.49,-102.28"/>
<polygon fill="#9a32cd" stroke="#9a32cd" points="943.28,-112.39 933.99,-117.47 944.42,-119.3 943.28,-112.39"/>
</a>
</g>
<text text-anchor="middle" x="981.75" y="-106.5" font-family="Helvetica,sans-Serif" font-size="10.00" fill="grey"> m_Subgroups</text>
</g>
<!-- Node11 -->
<g id="Node000011" class="node">
<title>Node11</title>
<g id="a_Node000011"><a xlink:href="../../da/d0c/class_text_widget.html" target="_top" xlink:title=" ">
<polygon fill="white" stroke="#666666" points="458.75,-120 393.25,-120 393.25,-100 458.75,-100 458.75,-120"/>
<text text-anchor="middle" x="426" y="-106.5" font-family="Helvetica,sans-Serif" font-size="10.00">TextWidget</text>
</a>
</g>
</g>
<!-- Node11&#45;&gt;Node1 -->
<g id="edge25_Node000001_Node000011" class="edge">
<title>Node11&#45;&gt;Node1</title>
<g id="a_edge25_Node000001_Node000011"><a xlink:title=" ">
<path fill="none" stroke="#9a32cd" stroke-dasharray="5,2" d="M417.96,-89.5C411.54,-74.82 401.85,-54.49 391,-38 386.8,-31.62 381.28,-25.09 376.69,-20.04"/>
<polygon fill="#9a32cd" stroke="#9a32cd" points="414.64,-90.64 421.77,-98.48 421.08,-87.9 414.64,-90.64"/>
</a>
</g>
<text text-anchor="middle" x="461.75" y="-52.5" font-family="Helvetica,sans-Serif" font-size="10.00" fill="grey"> m_defaultActionWidget</text>
</g>
<!-- Node12 -->
<g id="Node000012" class="node">
<title>Node12</title>
<g id="a_Node000012"><a xlink:href="../../d8/d08/class_timer.html" target="_top" xlink:title=" ">
<polygon fill="white" stroke="#666666" points="560,-120 520,-120 520,-100 560,-100 560,-120"/>
<text text-anchor="middle" x="540" y="-106.5" font-family="Helvetica,sans-Serif" font-size="10.00">Timer</text>
</a>
</g>
</g>
<!-- Node12&#45;&gt;Node1 -->
<g id="edge27_Node000001_Node000012" class="edge">
<title>Node12&#45;&gt;Node1</title>
<g id="a_edge27_Node000001_Node000012"><a xlink:title=" ">
<path fill="none" stroke="#9a32cd" stroke-dasharray="5,2" d="M539.15,-88.1C537.34,-72.04 532.19,-50.55 518,-38 501.2,-23.14 440.89,-16.12 402.05,-13.08"/>
<polygon fill="#9a32cd" stroke="#9a32cd" points="535.66,-88.32 539.89,-98.04 542.64,-87.8 535.66,-88.32"/>
</a>
</g>
<text text-anchor="middle" x="566.75" y="-52.5" font-family="Helvetica,sans-Serif" font-size="10.00" fill="grey"> m_hide_timer</text>
</g>
<!-- Node13 -->
<g id="Node000013" class="node">
<title>Node13</title>
<g id="a_Node000013"><a xlink:href="../../d9/d09/classbool.html" target="_top" xlink:title=" ">
<polygon fill="white" stroke="#666666" points="642,-120 608,-120 608,-100 642,-100 642,-120"/>
<text text-anchor="middle" x="625" y="-106.5" font-family="Helvetica,sans-Serif" font-size="10.00">bool</text>
</a>
</g>
</g>
<!-- Node13&#45;&gt;Node1 -->
<g id="edge28_Node000001_Node000013" class="edge">
<title>Node13&#45;&gt;Node1</title>
<g id="a_edge28_Node000001_Node000013"><a xlink:title=" ">
<path fill="none" stroke="#9a32cd" stroke-dasharray="5,2" d="M624.16,-88.83C622.34,-72.52 617.02,-50.3 602,-38 572.18,-13.58 459.41,-10.48 402.01,-10.55"/>
<polygon fill="#9a32cd" stroke="#9a32cd" points="620.64,-88.68 624.87,-98.39 627.62,-88.16 620.64,-88.68"/>
</a>
</g>
<text text-anchor="middle" x="642.38" y="-52.5" font-family="Helvetica,sans-Serif" font-size="10.00" fill="grey"> m_visible</text>
</g>
</g>
</svg>
