<?xml version="1.0" encoding="UTF-8" standalone="no"?>
<!DOCTYPE svg PUBLIC "-//W3C//DTD SVG 1.1//EN"
 "http://www.w3.org/Graphics/SVG/1.1/DTD/svg11.dtd">
<!-- Generated by graphviz version 11.0.0 (20240428.1522)
 -->
<!-- Title: HeatComfortAnimHandler Pages: 1 -->
<!--zoomable 436 -->

<svg id="main" version="1.1" xmlns="http://www.w3.org/2000/svg" xmlns:xlink="http://www.w3.org/1999/xlink" xml:space="preserve" onload="init(evt)">
<style type="text/css"><![CDATA[
.node, .edge {opacity: 0.7;}
.node.selected, .edge.selected {opacity: 1;}
.edge:hover path { stroke: red; }
.edge:hover polygon { stroke: red; fill: red; }
]]></style>

<defs>
  <circle id="rim" cx="0" cy="0" r="7"/>
  <circle id="rim2" cx="0" cy="0" r="3.5"/>
  <g id="zoomPlus">
    <use xlink:href="#rim" fill="#404040"><set attributeName="fill" to="#808080" begin="zoomplus.mouseover" end="zoomplus.mouseout"/></use>
    <path d="M-4,0h8M0,-4v8" fill="none" stroke="white" stroke-width="1.5" pointer-events="none"/>
  </g>
  <g id="zoomMin">
    <use xlink:href="#rim" fill="#404040"><set attributeName="fill" to="#808080" begin="zoomminus.mouseover" end="zoomminus.mouseout"/></use>
    <path d="M-4,0h8" fill="none" stroke="white" stroke-width="1.5" pointer-events="none"/>
  </g>
  <g id="arrowUp" transform="translate(30 24)">
    <use xlink:href="#rim"/>
    <path pointer-events="none" fill="none" stroke="white" stroke-width="1.5" d="M0,-3.0v7 M-2.5,-0.5L0,-3.0L2.5,-0.5"/>
  </g>
  <g id="arrowRight" transform="rotate(90) translate(36 -43)">
    <use xlink:href="#rim"/>
    <path pointer-events="none" fill="none" stroke="white" stroke-width="1.5" d="M0,-3.0v7 M-2.5,-0.5L0,-3.0L2.5,-0.5"/>
  </g>
  <g id="arrowDown" transform="rotate(180) translate(-30 -48)">
    <use xlink:href="#rim"/>
    <path pointer-events="none" fill="none" stroke="white" stroke-width="1.5" d="M0,-3.0v7 M-2.5,-0.5L0,-3.0L2.5,-0.5"/>
  </g>
  <g id="arrowLeft" transform="rotate(270) translate(-36 17)">
    <use xlink:href="#rim"/>
    <path pointer-events="none" fill="none" stroke="white" stroke-width="1.5" d="M0,-3.0v7 M-2.5,-0.5L0,-3.0L2.5,-0.5"/>
  </g>
  <g id="resetDef">
    <use xlink:href="#rim2" fill="#404040"><set attributeName="fill" to="#808080" begin="reset.mouseover" end="reset.mouseout"/></use>
  </g>
</defs>
<script type="application/ecmascript">
var viewWidth = 573;
var viewHeight = 436;
var sectionId = 'dynsection-0';
</script>
<script type="application/ecmascript" xlink:href="../../svg.min.js"/>
<svg id="graph" class="graph">
<g id="viewport">
<title>HeatComfortAnimHandler</title>
<!-- Node1 -->
<g id="Node000001" class="node">
<title>Node1</title>
<g id="a_Node000001"><a xlink:title=" ">
<polygon fill="#999999" stroke="#666666" points="291.82,-20 166.32,-20 166.32,0 291.82,0 291.82,-20"/>
<text text-anchor="middle" x="229.07" y="-6.5" font-family="Helvetica,sans-Serif" font-size="10.00">HeatComfortAnimHandler</text>
</a>
</g>
</g>
<!-- Node2 -->
<g id="Node000002" class="node">
<title>Node2</title>
<g id="a_Node000002"><a xlink:href="../../d4/d03/classfloat.html" target="_top" xlink:title=" ">
<polygon fill="white" stroke="#666666" points="83.07,-420 49.07,-420 49.07,-400 83.07,-400 83.07,-420"/>
<text text-anchor="middle" x="66.07" y="-406.5" font-family="Helvetica,sans-Serif" font-size="10.00">float</text>
</a>
</g>
</g>
<!-- Node2&#45;&gt;Node1 -->
<g id="edge1_Node000001_Node000002" class="edge">
<title>Node2&#45;&gt;Node1</title>
<g id="a_edge1_Node000001_Node000002"><a xlink:title=" ">
<path fill="none" stroke="#9a32cd" stroke-dasharray="5,2" d="M56.1,-389.63C28.71,-333.42 -40.84,-167.93 34.07,-68 50.41,-46.2 118.05,-29.95 169.12,-20.49"/>
<polygon fill="#9a32cd" stroke="#9a32cd" points="52.82,-390.9 60.42,-398.28 59.08,-387.77 52.82,-390.9"/>
</a>
</g>
<text text-anchor="middle" x="98.57" y="-286.5" font-family="Helvetica,sans-Serif" font-size="10.00" fill="grey"> TICK_INTERVAL</text>
<text text-anchor="start" x="34.07" y="-274.5" font-family="Helvetica,sans-Serif" font-size="10.00" fill="grey">TIME_INTERVAL_HC</text>
<text text-anchor="middle" x="98.57" y="-262.5" font-family="Helvetica,sans-Serif" font-size="10.00" fill="grey">_MINUS_HIGH_MAX</text>
<text text-anchor="start" x="34.07" y="-250.5" font-family="Helvetica,sans-Serif" font-size="10.00" fill="grey">TIME_INTERVAL_HC_MINUS</text>
<text text-anchor="middle" x="98.57" y="-238.5" font-family="Helvetica,sans-Serif" font-size="10.00" fill="grey">_HIGH_MIN</text>
<text text-anchor="start" x="34.07" y="-226.5" font-family="Helvetica,sans-Serif" font-size="10.00" fill="grey">TIME_INTERVAL_HC_MINUS</text>
<text text-anchor="middle" x="98.57" y="-214.5" font-family="Helvetica,sans-Serif" font-size="10.00" fill="grey">_LOW_MAX</text>
<text text-anchor="start" x="34.07" y="-202.5" font-family="Helvetica,sans-Serif" font-size="10.00" fill="grey">TIME_INTERVAL_HC_MINUS</text>
<text text-anchor="middle" x="98.57" y="-190.5" font-family="Helvetica,sans-Serif" font-size="10.00" fill="grey">_LOW_MIN</text>
<text text-anchor="start" x="34.07" y="-178.5" font-family="Helvetica,sans-Serif" font-size="10.00" fill="grey">TIME_INTERVAL_HC_PLUS</text>
<text text-anchor="middle" x="98.57" y="-166.5" font-family="Helvetica,sans-Serif" font-size="10.00" fill="grey">_HIGH_MAX</text>
<text text-anchor="start" x="34.07" y="-154.5" font-family="Helvetica,sans-Serif" font-size="10.00" fill="grey">TIME_INTERVAL_HC_PLUS</text>
<text text-anchor="middle" x="98.57" y="-142.5" font-family="Helvetica,sans-Serif" font-size="10.00" fill="grey">_HIGH_MIN</text>
<text text-anchor="start" x="34.07" y="-130.5" font-family="Helvetica,sans-Serif" font-size="10.00" fill="grey">TIME_INTERVAL_HC_PLUS</text>
<text text-anchor="middle" x="98.57" y="-118.5" font-family="Helvetica,sans-Serif" font-size="10.00" fill="grey">_LOW_MAX</text>
<text text-anchor="start" x="34.07" y="-106.5" font-family="Helvetica,sans-Serif" font-size="10.00" fill="grey">TIME_INTERVAL_HC_PLUS</text>
<text text-anchor="middle" x="98.57" y="-94.5" font-family="Helvetica,sans-Serif" font-size="10.00" fill="grey">_LOW_MIN</text>
<text text-anchor="middle" x="98.57" y="-82.5" font-family="Helvetica,sans-Serif" font-size="10.00" fill="grey">m_EventTimeFreeze</text>
<text text-anchor="middle" x="98.57" y="-70.5" font-family="Helvetica,sans-Serif" font-size="10.00" fill="grey">...</text>
</g>
<!-- Node2&#45;&gt;Node2 -->
<g id="edge2_Node000002_Node000002" class="edge">
<title>Node2&#45;&gt;Node2</title>
<g id="a_edge2_Node000002_Node000002"><a xlink:title=" ">
<path fill="none" stroke="#9a32cd" stroke-dasharray="5,2" d="M90.27,-422.23C96.44,-421.43 101.07,-417.35 101.07,-410 101.07,-398.53 89.79,-395.03 78.99,-399.51"/>
<polygon fill="#9a32cd" stroke="#9a32cd" points="90.9,-418.78 80.49,-420.72 89.84,-425.7 90.9,-418.78"/>
</a>
</g>
<text text-anchor="middle" x="123.19" y="-418.5" font-family="Helvetica,sans-Serif" font-size="10.00" fill="grey"> LOWEST</text>
<text text-anchor="middle" x="123.19" y="-406.5" font-family="Helvetica,sans-Serif" font-size="10.00" fill="grey">MAX</text>
<text text-anchor="middle" x="123.19" y="-394.5" font-family="Helvetica,sans-Serif" font-size="10.00" fill="grey">MIN</text>
</g>
<!-- Node6 -->
<g id="Node000006" class="node">
<title>Node6</title>
<g id="a_Node000006"><a xlink:href="../../d2/d0b/class_human_movement_state.html" target="_top" xlink:title=" ">
<polygon fill="white" stroke="#666666" points="286.19,-192 171.94,-192 171.94,-172 286.19,-172 286.19,-192"/>
<text text-anchor="middle" x="229.07" y="-178.5" font-family="Helvetica,sans-Serif" font-size="10.00">HumanMovementState</text>
</a>
</g>
</g>
<!-- Node2&#45;&gt;Node6 -->
<g id="edge8_Node000006_Node000002" class="edge">
<title>Node2&#45;&gt;Node6</title>
<g id="a_edge8_Node000006_Node000002"><a xlink:title=" ">
<path fill="none" stroke="#9a32cd" stroke-dasharray="5,2" d="M81.8,-391.09C100.71,-369.25 133.02,-330.92 158.07,-296 184.67,-258.91 212.37,-211.99 223.73,-192.33"/>
<polygon fill="#9a32cd" stroke="#9a32cd" points="79.28,-388.66 75.35,-398.5 84.55,-393.26 79.28,-388.66"/>
</a>
</g>
<text text-anchor="middle" x="169.32" y="-340.5" font-family="Helvetica,sans-Serif" font-size="10.00" fill="grey"> m_fLeaning</text>
</g>
<!-- Node3 -->
<g id="Node000003" class="node">
<title>Node3</title>
<g id="a_Node000003"><a xlink:href="../../d5/d08/class_player_base.html" target="_top" xlink:title=" ">
<polygon fill="white" stroke="#666666" points="372.19,-192 305.94,-192 305.94,-172 372.19,-172 372.19,-192"/>
<text text-anchor="middle" x="339.07" y="-178.5" font-family="Helvetica,sans-Serif" font-size="10.00">PlayerBase</text>
</a>
</g>
</g>
<!-- Node3&#45;&gt;Node1 -->
<g id="edge3_Node000001_Node000003" class="edge">
<title>Node3&#45;&gt;Node1</title>
<g id="a_edge3_Node000001_Node000003"><a xlink:title=" ">
<path fill="none" stroke="#9a32cd" stroke-dasharray="5,2" d="M341.79,-160.28C344.6,-129.7 345.01,-72.39 315.07,-38 308.18,-30.09 299.01,-24.48 289.22,-20.49"/>
<polygon fill="#9a32cd" stroke="#9a32cd" points="338.33,-159.78 340.69,-170.1 345.28,-160.55 338.33,-159.78"/>
</a>
</g>
<text text-anchor="middle" x="343.19" y="-40.5" font-family="Helvetica,sans-Serif" font-size="10.00" fill="grey"> m_Player</text>
</g>
<!-- Node4 -->
<g id="Node000004" class="node">
<title>Node4</title>
<g id="a_Node000004"><a xlink:href="../../dd/d03/class_scripted_light_base.html" target="_top" xlink:title=" ">
<polygon fill="white" stroke="#666666" points="386.82,-420 291.32,-420 291.32,-400 386.82,-400 386.82,-420"/>
<text text-anchor="middle" x="339.07" y="-406.5" font-family="Helvetica,sans-Serif" font-size="10.00">ScriptedLightBase</text>
</a>
</g>
</g>
<!-- Node4&#45;&gt;Node3 -->
<g id="edge4_Node000003_Node000004" class="edge">
<title>Node4&#45;&gt;Node3</title>
<g id="a_edge4_Node000003_Node000004"><a xlink:title=" ">
<path fill="none" stroke="#9a32cd" stroke-dasharray="5,2" d="M339.07,-388.08C339.07,-340.58 339.07,-226.13 339.07,-192.46"/>
<polygon fill="#9a32cd" stroke="#9a32cd" points="335.57,-388.06 339.07,-398.06 342.57,-388.06 335.57,-388.06"/>
</a>
</g>
<text text-anchor="middle" x="376.94" y="-340.5" font-family="Helvetica,sans-Serif" font-size="10.00" fill="grey"> m_PersonalLight</text>
</g>
<!-- Node5 -->
<g id="Node000005" class="node">
<title>Node5</title>
<g id="a_Node000005"><a xlink:href="../../d9/d09/classbool.html" target="_top" xlink:title=" ">
<polygon fill="white" stroke="#666666" points="455.07,-420 421.07,-420 421.07,-400 455.07,-400 455.07,-420"/>
<text text-anchor="middle" x="438.07" y="-406.5" font-family="Helvetica,sans-Serif" font-size="10.00">bool</text>
</a>
</g>
</g>
<!-- Node5&#45;&gt;Node3 -->
<g id="edge5_Node000003_Node000005" class="edge">
<title>Node5&#45;&gt;Node3</title>
<g id="a_edge5_Node000003_Node000005"><a xlink:title=" ">
<path fill="none" stroke="#9a32cd" stroke-dasharray="5,2" d="M435.14,-388.32C431.93,-368.7 425.89,-338.64 416.07,-314 396.62,-265.24 360.88,-213.13 345.93,-192.34"/>
<polygon fill="#9a32cd" stroke="#9a32cd" points="431.65,-388.69 436.62,-398.05 438.57,-387.64 431.65,-388.69"/>
</a>
</g>
<text text-anchor="start" x="432.07" y="-364.5" font-family="Helvetica,sans-Serif" font-size="10.00" fill="grey"> m_PersonalLightDisabledBy</text>
<text text-anchor="middle" x="498.44" y="-352.5" font-family="Helvetica,sans-Serif" font-size="10.00" fill="grey">Debug</text>
<text text-anchor="start" x="432.07" y="-340.5" font-family="Helvetica,sans-Serif" font-size="10.00" fill="grey">m_PersonalLightEnabledOn</text>
<text text-anchor="middle" x="498.44" y="-328.5" font-family="Helvetica,sans-Serif" font-size="10.00" fill="grey">CurrentServer</text>
<text text-anchor="middle" x="498.44" y="-316.5" font-family="Helvetica,sans-Serif" font-size="10.00" fill="grey">m_PersonalLightIsSwitchedOn</text>
</g>
<!-- Node6&#45;&gt;Node1 -->
<g id="edge6_Node000001_Node000006" class="edge">
<title>Node6&#45;&gt;Node1</title>
<g id="a_edge6_Node000001_Node000006"><a xlink:title=" ">
<path fill="none" stroke="#9a32cd" stroke-dasharray="5,2" d="M229.07,-160.56C229.07,-123.52 229.07,-46.65 229.07,-20.19"/>
<polygon fill="#9a32cd" stroke="#9a32cd" points="225.57,-160.35 229.07,-170.35 232.57,-160.35 225.57,-160.35"/>
</a>
</g>
<text text-anchor="middle" x="271.07" y="-40.5" font-family="Helvetica,sans-Serif" font-size="10.00" fill="grey"> m_MovementState</text>
</g>
<!-- Node7 -->
<g id="Node000007" class="node">
<title>Node7</title>
<g id="a_Node000007"><a xlink:href="../../db/d06/class_param3.html" target="_top" xlink:title=" ">
<polygon fill="white" stroke="#666666" points="251.94,-420 202.19,-420 202.19,-400 251.94,-400 251.94,-420"/>
<text text-anchor="middle" x="227.07" y="-406.5" font-family="Helvetica,sans-Serif" font-size="10.00">Param3</text>
</a>
</g>
</g>
<!-- Node7&#45;&gt;Node6 -->
<g id="edge7_Node000006_Node000007" class="edge">
<title>Node7&#45;&gt;Node6</title>
<g id="a_edge7_Node000006_Node000007"><a xlink:title=" ">
<path fill="none" stroke="#9a32cd" stroke-dasharray="5,2" d="M227.25,-388.08C227.67,-340.58 228.69,-226.13 228.98,-192.46"/>
<polygon fill="#9a32cd" stroke="#9a32cd" points="223.75,-388.03 227.16,-398.06 230.75,-388.09 223.75,-388.03"/>
</a>
</g>
<text text-anchor="middle" x="271.69" y="-358.5" font-family="Helvetica,sans-Serif" font-size="10.00" fill="grey"> m_CommandTypeId</text>
<text text-anchor="middle" x="271.69" y="-346.5" font-family="Helvetica,sans-Serif" font-size="10.00" fill="grey">m_LocalMovement</text>
<text text-anchor="middle" x="271.69" y="-334.5" font-family="Helvetica,sans-Serif" font-size="10.00" fill="grey">m_iMovement</text>
<text text-anchor="middle" x="271.69" y="-322.5" font-family="Helvetica,sans-Serif" font-size="10.00" fill="grey">m_iStanceIdx</text>
</g>
</g>
</svg>

<g id="navigator" transform="translate(0 0)" fill="#404254">
  <rect fill="#f2f5e9" fill-opacity="0.5" stroke="#606060" stroke-width=".5" x="0" y="0" width="60" height="60"/>
  <use id="zoomplus" xlink:href="#zoomPlus" x="17" y="9" onmousedown="handleZoom(evt,'in')"/>
  <use id="zoomminus" xlink:href="#zoomMin" x="42" y="9" onmousedown="handleZoom(evt,'out')"/>
  <use id="reset" xlink:href="#resetDef" x="30" y="36" onmousedown="handleReset()"/>
   <use id="arrowup" xlink:href="#arrowUp" x="0" y="0" onmousedown="handlePan(0,-1)"/>
  <use id="arrowright" xlink:href="#arrowRight" x="0" y="0" onmousedown="handlePan(1,0)"/>
  <use id="arrowdown" xlink:href="#arrowDown" x="0" y="0" onmousedown="handlePan(0,1)"/>
  <use id="arrowleft" xlink:href="#arrowLeft" x="0" y="0" onmousedown="handlePan(-1,0)"/>
</g>
<svg viewBox="0 0 15 15" width="100%" height="30px" preserveAspectRatio="xMaxYMin meet">
 <g id="arrow_out" transform="scale(0.3 0.3)">
  <a xlink:href="class_heat_comfort_anim_handler__coll__graph_org.svg" target="_base">
   <rect id="button" ry="5" rx="5" y="6" x="6" height="38" width="38"
        fill="#f2f5e9" fill-opacity="0.5" stroke="#606060" stroke-width="1.0"/>
   <path id="arrow"
     d="M 11.500037,31.436501 C 11.940474,20.09759 22.043105,11.32322 32.158766,21.979434 L 37.068811,17.246167 C 37.068811,17.246167 37.088388,32 37.088388,32 L 22.160133,31.978069 C 22.160133,31.978069 26.997745,27.140456 26.997745,27.140456 C 18.528582,18.264221 13.291696,25.230495 11.500037,31.436501 z"
     style="fill:#404040;"/>
  </a>
 </g>
</svg>

<style type='text/css'>
<![CDATA[
[data-mouse-over-selected='false'] { opacity: 0.7; }
[data-mouse-over-selected='true']  { opacity: 1.0; }
]]>
</style>
<script type="application/ecmascript"><![CDATA[
document.addEventListener('DOMContentLoaded', (event) => {
  highlightEdges();
  highlightAdjacentNodes();
});
]]></script>
</svg>
