<?xml version="1.0" encoding="UTF-8" standalone="no"?>
<!DOCTYPE svg PUBLIC "-//W3C//DTD SVG 1.1//EN"
 "http://www.w3.org/Graphics/SVG/1.1/DTD/svg11.dtd">
<!-- Generated by graphviz version 11.0.0 (20240428.1522)
 -->
<!-- Title: ReplaceAndDestroyLambdaEx Pages: 1 -->
<svg width="382pt" height="280pt"
 viewBox="0.00 0.00 381.75 280.00" xmlns="http://www.w3.org/2000/svg" xmlns:xlink="http://www.w3.org/1999/xlink">
<g id="graph0" class="graph" transform="scale(1 1) rotate(0) translate(4 276)">
<title>ReplaceAndDestroyLambdaEx</title>
<!-- Node1 -->
<g id="Node000001" class="node">
<title>Node1</title>
<g id="a_Node000001"><a xlink:title=" ">
<polygon fill="#999999" stroke="#666666" points="270.88,-20 122.12,-20 122.12,0 270.88,0 270.88,-20"/>
<text text-anchor="middle" x="196.5" y="-6.5" font-family="Helvetica,sans-Serif" font-size="10.00">ReplaceAndDestroyLambdaEx</text>
</a>
</g>
</g>
<!-- Node2 -->
<g id="Node000002" class="node">
<title>Node2</title>
<g id="a_Node000002"><a xlink:href="../../d3/d07/class_replace_and_destroy_lambda.html" target="_top" xlink:title=" ">
<polygon fill="white" stroke="#666666" points="264.88,-76 128.12,-76 128.12,-56 264.88,-56 264.88,-76"/>
<text text-anchor="middle" x="196.5" y="-62.5" font-family="Helvetica,sans-Serif" font-size="10.00">ReplaceAndDestroyLambda</text>
</a>
</g>
</g>
<!-- Node2&#45;&gt;Node1 -->
<g id="edge1_Node000001_Node000002" class="edge">
<title>Node2&#45;&gt;Node1</title>
<g id="a_edge1_Node000001_Node000002"><a xlink:title=" ">
<path fill="none" stroke="#8b1a1a" d="M196.5,-44.13C196.5,-35.9 196.5,-26.85 196.5,-20.3"/>
<polygon fill="#8b1a1a" stroke="#8b1a1a" points="193,-44.08 196.5,-54.08 200,-44.08 193,-44.08"/>
</a>
</g>
</g>
<!-- Node3 -->
<g id="Node000003" class="node">
<title>Node3</title>
<g id="a_Node000003"><a xlink:title=" ">
<polygon fill="white" stroke="#666666" points="145,-156 0,-156 0,-124 145,-124 145,-156"/>
<text text-anchor="start" x="8" y="-142.5" font-family="Helvetica,sans-Serif" font-size="10.00">TurnItemIntoItemLambdaAnim</text>
<text text-anchor="middle" x="72.5" y="-130.5" font-family="Helvetica,sans-Serif" font-size="10.00">SysNotifyLambda</text>
</a>
</g>
</g>
<!-- Node3&#45;&gt;Node2 -->
<g id="edge2_Node000002_Node000003" class="edge">
<title>Node3&#45;&gt;Node2</title>
<g id="a_edge2_Node000002_Node000003"><a xlink:title=" ">
<path fill="none" stroke="#8b1a1a" d="M108.81,-117.92C132.44,-104.19 162.13,-86.96 180.19,-76.47"/>
<polygon fill="#8b1a1a" stroke="#8b1a1a" points="107.3,-114.75 100.41,-122.79 110.82,-120.8 107.3,-114.75"/>
</a>
</g>
</g>
<!-- Node4 -->
<g id="Node000004" class="node">
<title>Node4</title>
<g id="a_Node000004"><a xlink:href="../../d5/d08/class_player_base.html" target="_top" xlink:title=" ">
<polygon fill="white" stroke="#666666" points="229.62,-150 163.38,-150 163.38,-130 229.62,-130 229.62,-150"/>
<text text-anchor="middle" x="196.5" y="-136.5" font-family="Helvetica,sans-Serif" font-size="10.00">PlayerBase</text>
</a>
</g>
</g>
<!-- Node4&#45;&gt;Node2 -->
<g id="edge3_Node000002_Node000004" class="edge">
<title>Node4&#45;&gt;Node2</title>
<g id="a_edge3_Node000002_Node000004"><a xlink:title=" ">
<path fill="none" stroke="#9a32cd" stroke-dasharray="5,2" d="M196.5,-118.18C196.5,-104.29 196.5,-86.71 196.5,-76.19"/>
<polygon fill="#9a32cd" stroke="#9a32cd" points="193,-118.07 196.5,-128.07 200,-118.07 193,-118.07"/>
</a>
</g>
<text text-anchor="middle" x="232.12" y="-96.5" font-family="Helvetica,sans-Serif" font-size="10.00" fill="grey"> m_TargetPlayer</text>
</g>
<!-- Node5 -->
<g id="Node000005" class="node">
<title>Node5</title>
<g id="a_Node000005"><a xlink:href="../../dd/d03/class_scripted_light_base.html" target="_top" xlink:title=" ">
<polygon fill="white" stroke="#666666" points="145.25,-272 49.75,-272 49.75,-252 145.25,-252 145.25,-272"/>
<text text-anchor="middle" x="97.5" y="-258.5" font-family="Helvetica,sans-Serif" font-size="10.00">ScriptedLightBase</text>
</a>
</g>
</g>
<!-- Node5&#45;&gt;Node4 -->
<g id="edge4_Node000004_Node000005" class="edge">
<title>Node5&#45;&gt;Node4</title>
<g id="a_edge4_Node000004_Node000005"><a xlink:title=" ">
<path fill="none" stroke="#9a32cd" stroke-dasharray="5,2" d="M94.29,-240.36C92.49,-221.15 93.02,-192.74 107.75,-174 108.78,-172.68 144.48,-159.66 170.28,-150.38"/>
<polygon fill="#9a32cd" stroke="#9a32cd" points="90.8,-240.73 95.53,-250.21 97.75,-239.85 90.8,-240.73"/>
</a>
</g>
<text text-anchor="middle" x="146.38" y="-200.5" font-family="Helvetica,sans-Serif" font-size="10.00" fill="grey"> m_PersonalLight</text>
</g>
<!-- Node6 -->
<g id="Node000006" class="node">
<title>Node6</title>
<g id="a_Node000006"><a xlink:href="../../d9/d09/classbool.html" target="_top" xlink:title=" ">
<polygon fill="white" stroke="#666666" points="287.5,-272 253.5,-272 253.5,-252 287.5,-252 287.5,-272"/>
<text text-anchor="middle" x="270.5" y="-258.5" font-family="Helvetica,sans-Serif" font-size="10.00">bool</text>
</a>
</g>
</g>
<!-- Node6&#45;&gt;Node2 -->
<g id="edge6_Node000002_Node000006" class="edge">
<title>Node6&#45;&gt;Node2</title>
<g id="a_edge6_Node000002_Node000006"><a xlink:title=" ">
<path fill="none" stroke="#9a32cd" stroke-dasharray="5,2" d="M298.74,-255.43C310.66,-251.53 323.4,-244.98 330.5,-234 344.98,-211.61 338.83,-199.33 330.5,-174 316.7,-132.03 306.92,-120.4 271.5,-94 261.07,-86.23 248.19,-80.52 236.06,-76.41"/>
<polygon fill="#9a32cd" stroke="#9a32cd" points="297.97,-252.01 289.24,-258.01 299.8,-258.77 297.97,-252.01"/>
</a>
</g>
<text text-anchor="middle" x="348.62" y="-142.5" font-family="Helvetica,sans-Serif" font-size="10.00" fill="grey"> m_Destroy</text>
<text text-anchor="middle" x="348.62" y="-130.5" font-family="Helvetica,sans-Serif" font-size="10.00" fill="grey">m_Drop</text>
</g>
<!-- Node6&#45;&gt;Node4 -->
<g id="edge5_Node000004_Node000006" class="edge">
<title>Node6&#45;&gt;Node4</title>
<g id="a_edge5_Node000004_Node000006"><a xlink:title=" ">
<path fill="none" stroke="#9a32cd" stroke-dasharray="5,2" d="M241.69,-258.09C225.96,-254.87 207.71,-248.12 197.75,-234 179.78,-208.54 188.2,-168.61 193.43,-150.5"/>
<polygon fill="#9a32cd" stroke="#9a32cd" points="241.12,-261.54 251.55,-259.69 242.24,-254.63 241.12,-261.54"/>
</a>
</g>
<text text-anchor="start" x="197.5" y="-224.5" font-family="Helvetica,sans-Serif" font-size="10.00" fill="grey"> m_PersonalLightDisabledBy</text>
<text text-anchor="middle" x="263.88" y="-212.5" font-family="Helvetica,sans-Serif" font-size="10.00" fill="grey">Debug</text>
<text text-anchor="start" x="197.5" y="-200.5" font-family="Helvetica,sans-Serif" font-size="10.00" fill="grey">m_PersonalLightEnabledOn</text>
<text text-anchor="middle" x="263.88" y="-188.5" font-family="Helvetica,sans-Serif" font-size="10.00" fill="grey">CurrentServer</text>
<text text-anchor="middle" x="263.88" y="-176.5" font-family="Helvetica,sans-Serif" font-size="10.00" fill="grey">m_PersonalLightIsSwitchedOn</text>
</g>
</g>
</svg>
