<?xml version="1.0" encoding="UTF-8" standalone="no"?>
<!DOCTYPE svg PUBLIC "-//W3C//DTD SVG 1.1//EN"
 "http://www.w3.org/Graphics/SVG/1.1/DTD/svg11.dtd">
<!-- Generated by graphviz version 11.0.0 (20240428.1522)
 -->
<!-- Title: PPERain Pages: 1 -->
<svg width="1252pt" height="527pt"
 viewBox="0.00 0.00 1252.25 526.91" xmlns="http://www.w3.org/2000/svg" xmlns:xlink="http://www.w3.org/1999/xlink">
<g id="graph0" class="graph" transform="scale(1 1) rotate(0) translate(4 522.91)">
<title>PPERain</title>
<!-- Node1 -->
<g id="Node000001" class="node">
<title>Node1</title>
<g id="a_Node000001"><a xlink:title="Rain &#45; PostProcessEffectType.Rain.">
<polygon fill="#999999" stroke="#666666" points="130.88,-20 75.12,-20 75.12,0 130.88,0 130.88,-20"/>
<text text-anchor="middle" x="103" y="-6.5" font-family="Helvetica,sans-Serif" font-size="10.00">PPERain</text>
</a>
</g>
</g>
<!-- Node2 -->
<g id="Node000002" class="node">
<title>Node2</title>
<g id="a_Node000002"><a xlink:href="../../d3/d0f/class_p_p_e_class_base.html" target="_top" xlink:title="Created once, on manager init. Script&#45;side representation of C++ material class, separate handling.">
<polygon fill="white" stroke="#666666" points="336.75,-77 253.25,-77 253.25,-57 336.75,-57 336.75,-77"/>
<text text-anchor="middle" x="295" y="-63.5" font-family="Helvetica,sans-Serif" font-size="10.00">PPEClassBase</text>
</a>
</g>
</g>
<!-- Node2&#45;&gt;Node1 -->
<g id="edge1_Node000001_Node000002" class="edge">
<title>Node2&#45;&gt;Node1</title>
<g id="a_edge1_Node000001_Node000002"><a xlink:title=" ">
<path fill="none" stroke="#8b1a1a" d="M251.07,-53.42C214.24,-42.87 162.75,-28.12 131.21,-19.08"/>
<polygon fill="#8b1a1a" stroke="#8b1a1a" points="249.96,-56.74 260.54,-56.13 251.89,-50.01 249.96,-56.74"/>
</a>
</g>
</g>
<!-- Node3 -->
<g id="Node000003" class="node">
<title>Node3</title>
<g id="a_Node000003"><a xlink:href="../../d5/d02/classstring.html" target="_top" xlink:title=" ">
<polygon fill="white" stroke="#666666" points="1154,-517 1114,-517 1114,-497 1154,-497 1154,-517"/>
<text text-anchor="middle" x="1134" y="-503.5" font-family="Helvetica,sans-Serif" font-size="10.00">string</text>
</a>
</g>
</g>
<!-- Node3&#45;&gt;Node2 -->
<g id="edge2_Node000002_Node000003" class="edge">
<title>Node3&#45;&gt;Node2</title>
<g id="a_edge2_Node000002_Node000003"><a xlink:title=" ">
<path fill="none" stroke="#9a32cd" stroke-dasharray="5,2" d="M1149.66,-487.79C1151.64,-484.96 1153.5,-481.98 1155,-479 1187.73,-413.92 1203.4,-385.99 1180,-317 1147.62,-221.54 1130.25,-185.72 1042,-137 919.43,-69.34 475.85,-66.66 336.91,-67.54"/>
<polygon fill="#9a32cd" stroke="#9a32cd" points="1147.09,-485.39 1143.7,-495.43 1152.61,-489.7 1147.09,-485.39"/>
</a>
</g>
<text text-anchor="middle" x="1208.62" y="-289.5" font-family="Helvetica,sans-Serif" font-size="10.00" fill="grey"> m_MaterialPath</text>
</g>
<!-- Node3&#45;&gt;Node3 -->
<g id="edge3_Node000003_Node000003" class="edge">
<title>Node3&#45;&gt;Node3</title>
<g id="a_edge3_Node000003_Node000003"><a xlink:title=" ">
<path fill="none" stroke="#9a32cd" stroke-dasharray="5,2" d="M1159.77,-518.91C1166.72,-518.28 1172,-514.31 1172,-507 1172,-496.12 1160.3,-492.64 1148.82,-496.55"/>
<polygon fill="#9a32cd" stroke="#9a32cd" points="1160.7,-515.5 1150.32,-517.65 1159.77,-522.44 1160.7,-515.5"/>
</a>
</g>
<text text-anchor="middle" x="1187.75" y="-503.5" font-family="Helvetica,sans-Serif" font-size="10.00" fill="grey"> Empty</text>
</g>
<!-- Node5 -->
<g id="Node000005" class="node">
<title>Node5</title>
<g id="a_Node000005"><a xlink:href="../../d2/d01/classarray.html" target="_top" xlink:title=" ">
<polygon fill="white" stroke="#666666" points="596.75,-213 507.25,-213 507.25,-193 596.75,-193 596.75,-213"/>
<text text-anchor="middle" x="552" y="-199.5" font-family="Helvetica,sans-Serif" font-size="10.00">array&lt; Param3 &gt;</text>
</a>
</g>
</g>
<!-- Node3&#45;&gt;Node5 -->
<g id="edge24_Node000005_Node000003" class="edge">
<title>Node3&#45;&gt;Node5</title>
<g id="a_edge24_Node000005_Node000003"><a xlink:title=" ">
<path fill="none" stroke="#9a32cd" stroke-dasharray="5,2" d="M1130.15,-485.63C1124.76,-462.92 1112.71,-426.8 1088,-407 1058.8,-383.6 1033.22,-414.41 1005.75,-389 981.21,-366.3 1009.62,-338.47 984,-317 957.93,-295.15 865.16,-306.56 832,-299 815.97,-295.35 812.57,-292.3 797,-287 718.36,-260.2 625.43,-228.79 579.94,-213.43"/>
<polygon fill="#9a32cd" stroke="#9a32cd" points="1126.68,-486.14 1132.18,-495.19 1133.52,-484.68 1126.68,-486.14"/>
</a>
</g>
<text text-anchor="middle" x="1022.62" y="-349.5" font-family="Helvetica,sans-Serif" font-size="10.00" fill="grey"> m_Test</text>
</g>
<!-- Node7 -->
<g id="Node000007" class="node">
<title>Node7</title>
<g id="a_Node000007"><a xlink:href="../../d2/d01/classarray.html" target="_top" xlink:title="Result for an object found in CGame.IsBoxCollidingGeometryProxy.">
<polygon fill="white" stroke="#666666" points="846.88,-363 809.12,-363 809.12,-343 846.88,-343 846.88,-363"/>
<text text-anchor="middle" x="828" y="-349.5" font-family="Helvetica,sans-Serif" font-size="10.00">array</text>
</a>
</g>
</g>
<!-- Node3&#45;&gt;Node7 -->
<g id="edge13_Node000007_Node000003" class="edge">
<title>Node3&#45;&gt;Node7</title>
<g id="a_edge13_Node000007_Node000003"><a xlink:title=" ">
<path fill="none" stroke="#9a32cd" stroke-dasharray="5,2" d="M1102.92,-499.48C1087.09,-495.24 1068.01,-488.67 1052.75,-479 1015.37,-455.32 1021.87,-429.88 984,-407 959.07,-391.94 948.65,-398.14 921,-389 895.12,-380.45 865.76,-369.12 847.07,-361.7"/>
<polygon fill="#9a32cd" stroke="#9a32cd" points="1101.76,-502.79 1112.31,-501.8 1103.44,-496 1101.76,-502.79"/>
</a>
</g>
<text text-anchor="middle" x="1069.62" y="-439.5" font-family="Helvetica,sans-Serif" font-size="10.00" fill="grey"> m_Test</text>
</g>
<!-- Node10 -->
<g id="Node000010" class="node">
<title>Node10</title>
<g id="a_Node000010"><a xlink:href="../../d2/d01/classarray.html" target="_top" xlink:title=" ">
<polygon fill="white" stroke="#666666" points="952.25,-213 865.75,-213 865.75,-193 952.25,-193 952.25,-213"/>
<text text-anchor="middle" x="909" y="-199.5" font-family="Helvetica,sans-Serif" font-size="10.00">array&lt; Widget &gt;</text>
</a>
</g>
</g>
<!-- Node3&#45;&gt;Node10 -->
<g id="edge20_Node000010_Node000003" class="edge">
<title>Node3&#45;&gt;Node10</title>
<g id="a_edge20_Node000010_Node000003"><a xlink:title=" ">
<path fill="none" stroke="#9a32cd" stroke-dasharray="5,2" d="M1138.14,-485.54C1144.44,-448.54 1152.37,-369.49 1118,-317 1079.24,-257.82 998.62,-227.22 949.61,-213.46"/>
<polygon fill="#9a32cd" stroke="#9a32cd" points="1134.72,-484.8 1136.33,-495.27 1141.6,-486.08 1134.72,-484.8"/>
</a>
</g>
<text text-anchor="middle" x="1158.62" y="-349.5" font-family="Helvetica,sans-Serif" font-size="10.00" fill="grey"> m_Test</text>
</g>
<!-- Node4 -->
<g id="Node000004" class="node">
<title>Node4</title>
<g id="a_Node000004"><a xlink:href="../../db/d06/class_param3.html" target="_top" xlink:title=" ">
<polygon fill="white" stroke="#666666" points="249.88,-517 200.12,-517 200.12,-497 249.88,-497 249.88,-517"/>
<text text-anchor="middle" x="225" y="-503.5" font-family="Helvetica,sans-Serif" font-size="10.00">Param3</text>
</a>
</g>
</g>
<!-- Node4&#45;&gt;Node1 -->
<g id="edge26_Node000001_Node000004" class="edge">
<title>Node4&#45;&gt;Node1</title>
<g id="a_edge26_Node000001_Node000004"><a xlink:title=" ">
<path fill="none" stroke="#9a32cd" stroke-dasharray="5,2" d="M188.48,-498.91C124.77,-484.18 0,-443.87 0,-354 0,-354 0,-354 0,-66 0,-31.94 44.36,-18.9 74.85,-13.96"/>
<polygon fill="#9a32cd" stroke="#9a32cd" points="187.63,-502.3 198.15,-501.04 189.14,-495.47 187.63,-502.3"/>
</a>
</g>
<text text-anchor="middle" x="75.38" y="-259.5" font-family="Helvetica,sans-Serif" font-size="10.00" fill="grey"> PARAM_BCKGRNDCOLORMULT</text>
<text text-anchor="middle" x="75.38" y="-247.5" font-family="Helvetica,sans-Serif" font-size="10.00" fill="grey">PARAM_DISTANTSPEED</text>
<text text-anchor="middle" x="75.38" y="-235.5" font-family="Helvetica,sans-Serif" font-size="10.00" fill="grey">PARAM_DROPDISTANCE</text>
<text text-anchor="middle" x="75.38" y="-223.5" font-family="Helvetica,sans-Serif" font-size="10.00" fill="grey">PARAM_DROPSIZEX</text>
<text text-anchor="middle" x="75.38" y="-211.5" font-family="Helvetica,sans-Serif" font-size="10.00" fill="grey">PARAM_DROPSIZEY</text>
<text text-anchor="middle" x="75.38" y="-199.5" font-family="Helvetica,sans-Serif" font-size="10.00" fill="grey">PARAM_FOGCOLORMULT</text>
<text text-anchor="middle" x="75.38" y="-187.5" font-family="Helvetica,sans-Serif" font-size="10.00" fill="grey">PARAM_GODRAYINTFAR</text>
<text text-anchor="middle" x="75.38" y="-175.5" font-family="Helvetica,sans-Serif" font-size="10.00" fill="grey">PARAM_GODRAYINTNEAR</text>
<text text-anchor="middle" x="75.38" y="-163.5" font-family="Helvetica,sans-Serif" font-size="10.00" fill="grey">PARAM_MAXDIVERGENCE</text>
<text text-anchor="middle" x="75.38" y="-151.5" font-family="Helvetica,sans-Serif" font-size="10.00" fill="grey">PARAM_MINDIVERGENCE</text>
<text text-anchor="middle" x="75.38" y="-139.5" font-family="Helvetica,sans-Serif" font-size="10.00" fill="grey">...</text>
</g>
<!-- Node4&#45;&gt;Node2 -->
<g id="edge4_Node000002_Node000004" class="edge">
<title>Node4&#45;&gt;Node2</title>
<g id="a_edge4_Node000002_Node000004"><a xlink:title=" ">
<path fill="none" stroke="#9a32cd" stroke-dasharray="5,2" d="M219.96,-485.52C219.57,-483.33 219.23,-481.13 219,-479 215.51,-447.19 218.2,-438.99 219,-407 220.33,-353.62 215.46,-339.54 225,-287 240.19,-203.35 278.56,-107.29 291.02,-77.38"/>
<polygon fill="#9a32cd" stroke="#9a32cd" points="216.5,-486.09 222.05,-495.11 223.34,-484.59 216.5,-486.09"/>
</a>
</g>
<text text-anchor="middle" x="250.5" y="-289.5" font-family="Helvetica,sans-Serif" font-size="10.00" fill="grey"> m_Material</text>
</g>
<!-- Node4&#45;&gt;Node5 -->
<g id="edge7_Node000005_Node000004" class="edge">
<title>Node4&#45;&gt;Node5</title>
<g id="a_edge7_Node000005_Node000004"><a xlink:title=" ">
<path fill="none" stroke="#9a32cd" stroke-dasharray="5,2" d="M223.01,-485.37C220.51,-447.46 220.73,-366.11 261.75,-317 324.14,-242.29 442.29,-216.78 506.94,-208.21"/>
<polygon fill="#9a32cd" stroke="#9a32cd" points="219.52,-485.65 223.82,-495.33 226.49,-485.08 219.52,-485.65"/>
</a>
</g>
<text text-anchor="middle" x="320.12" y="-379.5" font-family="Helvetica,sans-Serif" font-size="10.00" fill="grey"> NO_SORTING</text>
<text text-anchor="middle" x="320.12" y="-367.5" font-family="Helvetica,sans-Serif" font-size="10.00" fill="grey">geomLevel</text>
<text text-anchor="middle" x="320.12" y="-355.5" font-family="Helvetica,sans-Serif" font-size="10.00" fill="grey">hierLevel</text>
<text text-anchor="start" x="262" y="-343.5" font-family="Helvetica,sans-Serif" font-size="10.00" fill="grey">m_CurrentSettingAlternate</text>
<text text-anchor="middle" x="320.12" y="-331.5" font-family="Helvetica,sans-Serif" font-size="10.00" fill="grey">KeyIndex</text>
<text text-anchor="middle" x="320.12" y="-319.5" font-family="Helvetica,sans-Serif" font-size="10.00" fill="grey">m_CurrentSettingKeyIndex</text>
</g>
<!-- Node4&#45;&gt;Node7 -->
<g id="edge10_Node000007_Node000004" class="edge">
<title>Node4&#45;&gt;Node7</title>
<g id="a_edge10_Node000007_Node000004"><a xlink:title=" ">
<path fill="none" stroke="#9a32cd" stroke-dasharray="5,2" d="M261.54,-505.34C319.72,-503.72 430.29,-498.15 464,-479 498.96,-459.14 483.33,-426.02 518.75,-407 572.95,-377.89 739.34,-415.2 795,-389 806.79,-383.45 816.46,-371.67 822.22,-363.31"/>
<polygon fill="#9a32cd" stroke="#9a32cd" points="261.72,-501.84 251.81,-505.59 261.9,-508.83 261.72,-501.84"/>
</a>
</g>
<text text-anchor="middle" x="576.12" y="-469.5" font-family="Helvetica,sans-Serif" font-size="10.00" fill="grey"> NO_SORTING</text>
<text text-anchor="middle" x="576.12" y="-457.5" font-family="Helvetica,sans-Serif" font-size="10.00" fill="grey">geomLevel</text>
<text text-anchor="middle" x="576.12" y="-445.5" font-family="Helvetica,sans-Serif" font-size="10.00" fill="grey">hierLevel</text>
<text text-anchor="start" x="518" y="-433.5" font-family="Helvetica,sans-Serif" font-size="10.00" fill="grey">m_CurrentSettingAlternate</text>
<text text-anchor="middle" x="576.12" y="-421.5" font-family="Helvetica,sans-Serif" font-size="10.00" fill="grey">KeyIndex</text>
<text text-anchor="middle" x="576.12" y="-409.5" font-family="Helvetica,sans-Serif" font-size="10.00" fill="grey">m_CurrentSettingKeyIndex</text>
</g>
<!-- Node4&#45;&gt;Node10 -->
<g id="edge17_Node000010_Node000004" class="edge">
<title>Node4&#45;&gt;Node10</title>
<g id="a_edge17_Node000010_Node000004"><a xlink:title=" ">
<path fill="none" stroke="#9a32cd" stroke-dasharray="5,2" d="M261.14,-494.55C306.65,-478.3 384.18,-444.23 428,-389 448.78,-362.81 425.5,-340.01 449.75,-317 465.1,-302.43 753.81,-237.99 865.45,-213.49"/>
<polygon fill="#9a32cd" stroke="#9a32cd" points="260.04,-491.23 251.73,-497.81 262.32,-497.85 260.04,-491.23"/>
</a>
</g>
<text text-anchor="middle" x="507.12" y="-379.5" font-family="Helvetica,sans-Serif" font-size="10.00" fill="grey"> NO_SORTING</text>
<text text-anchor="middle" x="507.12" y="-367.5" font-family="Helvetica,sans-Serif" font-size="10.00" fill="grey">geomLevel</text>
<text text-anchor="middle" x="507.12" y="-355.5" font-family="Helvetica,sans-Serif" font-size="10.00" fill="grey">hierLevel</text>
<text text-anchor="start" x="449" y="-343.5" font-family="Helvetica,sans-Serif" font-size="10.00" fill="grey">m_CurrentSettingAlternate</text>
<text text-anchor="middle" x="507.12" y="-331.5" font-family="Helvetica,sans-Serif" font-size="10.00" fill="grey">KeyIndex</text>
<text text-anchor="middle" x="507.12" y="-319.5" font-family="Helvetica,sans-Serif" font-size="10.00" fill="grey">m_CurrentSettingKeyIndex</text>
</g>
<!-- Node5&#45;&gt;Node2 -->
<g id="edge5_Node000002_Node000005" class="edge">
<title>Node5&#45;&gt;Node2</title>
<g id="a_edge5_Node000002_Node000005"><a xlink:title=" ">
<path fill="none" stroke="#9a32cd" stroke-dasharray="5,2" d="M523.86,-187.33C470.76,-159.64 357.18,-100.42 313.05,-77.41"/>
<polygon fill="#9a32cd" stroke="#9a32cd" points="522.1,-190.36 532.59,-191.88 525.34,-184.15 522.1,-190.36"/>
</a>
</g>
<text text-anchor="middle" x="448.38" y="-109.5" font-family="Helvetica,sans-Serif" font-size="10.00" fill="grey"> m_ParameterRemovalQueue</text>
<text text-anchor="middle" x="448.38" y="-97.5" font-family="Helvetica,sans-Serif" font-size="10.00" fill="grey">m_UpdatedParameters</text>
</g>
<!-- Node6 -->
<g id="Node000006" class="node">
<title>Node6</title>
<g id="a_Node000006"><a xlink:href="../../d8/d03/class_object.html" target="_top" xlink:title=" ">
<polygon fill="white" stroke="#666666" points="850.25,-517 805.75,-517 805.75,-497 850.25,-497 850.25,-517"/>
<text text-anchor="middle" x="828" y="-503.5" font-family="Helvetica,sans-Serif" font-size="10.00">Object</text>
</a>
</g>
</g>
<!-- Node6&#45;&gt;Node5 -->
<g id="edge6_Node000005_Node000006" class="edge">
<title>Node6&#45;&gt;Node5</title>
<g id="a_edge6_Node000005_Node000006"><a xlink:title=" ">
<path fill="none" stroke="#9a32cd" stroke-dasharray="5,2" d="M794.27,-504.61C772.68,-502.05 745.36,-495.45 727,-479 701.43,-456.09 714.36,-437.71 699,-407 693.73,-396.47 649.82,-326.6 643,-317 614.57,-276.95 576.65,-232.35 560.2,-213.37"/>
<polygon fill="#9a32cd" stroke="#9a32cd" points="793.8,-508.08 804.08,-505.52 794.45,-501.11 793.8,-508.08"/>
</a>
</g>
<text text-anchor="middle" x="700.5" y="-355.5" font-family="Helvetica,sans-Serif" font-size="10.00" fill="grey"> obj</text>
<text text-anchor="middle" x="700.5" y="-343.5" font-family="Helvetica,sans-Serif" font-size="10.00" fill="grey">parent</text>
</g>
<!-- Node6&#45;&gt;Node7 -->
<g id="edge9_Node000007_Node000006" class="edge">
<title>Node6&#45;&gt;Node7</title>
<g id="a_edge9_Node000007_Node000006"><a xlink:title=" ">
<path fill="none" stroke="#9a32cd" stroke-dasharray="5,2" d="M828,-485.47C828,-452.04 828,-387.17 828,-363.2"/>
<polygon fill="#9a32cd" stroke="#9a32cd" points="824.5,-485.43 828,-495.43 831.5,-485.43 824.5,-485.43"/>
</a>
</g>
<text text-anchor="middle" x="841.5" y="-445.5" font-family="Helvetica,sans-Serif" font-size="10.00" fill="grey"> obj</text>
<text text-anchor="middle" x="841.5" y="-433.5" font-family="Helvetica,sans-Serif" font-size="10.00" fill="grey">parent</text>
</g>
<!-- Node6&#45;&gt;Node10 -->
<g id="edge16_Node000010_Node000006" class="edge">
<title>Node6&#45;&gt;Node10</title>
<g id="a_edge16_Node000010_Node000006"><a xlink:title=" ">
<path fill="none" stroke="#9a32cd" stroke-dasharray="5,2" d="M848.87,-489.31C852.43,-486.06 855.95,-482.55 859,-479 918.61,-409.56 938.77,-388.25 959,-299 966.74,-264.83 936.15,-229.61 919.35,-213.31"/>
<polygon fill="#9a32cd" stroke="#9a32cd" points="846.68,-486.58 841.38,-495.75 851.24,-491.89 846.68,-486.58"/>
</a>
</g>
<text text-anchor="middle" x="967.5" y="-355.5" font-family="Helvetica,sans-Serif" font-size="10.00" fill="grey"> obj</text>
<text text-anchor="middle" x="967.5" y="-343.5" font-family="Helvetica,sans-Serif" font-size="10.00" fill="grey">parent</text>
</g>
<!-- Node7&#45;&gt;Node5 -->
<g id="edge8_Node000005_Node000007" class="edge">
<title>Node7&#45;&gt;Node5</title>
<g id="a_edge8_Node000005_Node000007"><a xlink:title=" ">
<path fill="none" stroke="#9a32cd" stroke-dasharray="5,2" d="M813.5,-333.96C808.12,-328.05 801.7,-321.77 795,-317 779.12,-305.69 772.54,-307.51 755,-299 744.63,-293.97 742.35,-292.08 732,-287 675.16,-259.09 607.04,-228.42 573.22,-213.38"/>
<polygon fill="#9a32cd" stroke="#9a32cd" points="810.82,-336.22 819.98,-341.55 816.14,-331.68 810.82,-336.22"/>
</a>
</g>
<text text-anchor="middle" x="776" y="-289.5" font-family="Helvetica,sans-Serif" font-size="10.00" fill="grey"> proxyInfo</text>
</g>
<!-- Node7&#45;&gt;Node7 -->
<g id="edge11_Node000007_Node000007" class="edge">
<title>Node7&#45;&gt;Node7</title>
<g id="a_edge11_Node000007_Node000007"><a xlink:title=" ">
<path fill="none" stroke="#9a32cd" stroke-dasharray="5,2" d="M856.02,-363.66C861.22,-362.34 864.88,-358.78 864.88,-353 864.88,-343.51 855.03,-340.02 844.69,-342.54"/>
<polygon fill="#9a32cd" stroke="#9a32cd" points="856.26,-360.17 846.2,-363.48 856.13,-367.16 856.26,-360.17"/>
</a>
</g>
<text text-anchor="middle" x="885.88" y="-349.5" font-family="Helvetica,sans-Serif" font-size="10.00" fill="grey"> proxyInfo</text>
</g>
<!-- Node7&#45;&gt;Node10 -->
<g id="edge18_Node000010_Node000007" class="edge">
<title>Node7&#45;&gt;Node10</title>
<g id="a_edge18_Node000010_Node000007"><a xlink:title=" ">
<path fill="none" stroke="#9a32cd" stroke-dasharray="5,2" d="M829.52,-331.54C831.11,-318.32 834.36,-301.03 841,-287 855.42,-256.52 883.44,-227.65 898.62,-213.35"/>
<polygon fill="#9a32cd" stroke="#9a32cd" points="826.06,-330.94 828.59,-341.22 833.03,-331.6 826.06,-330.94"/>
</a>
</g>
<text text-anchor="middle" x="862" y="-289.5" font-family="Helvetica,sans-Serif" font-size="10.00" fill="grey"> proxyInfo</text>
</g>
<!-- Node8 -->
<g id="Node000008" class="node">
<title>Node8</title>
<g id="a_Node000008"><a xlink:href="../../d4/d04/class_class.html" target="_top" xlink:title="Super root of all classes in Enforce script.">
<polygon fill="white" stroke="#666666" points="971.38,-517 930.62,-517 930.62,-497 971.38,-497 971.38,-517"/>
<text text-anchor="middle" x="951" y="-503.5" font-family="Helvetica,sans-Serif" font-size="10.00">Class</text>
</a>
</g>
</g>
<!-- Node8&#45;&gt;Node5 -->
<g id="edge23_Node000005_Node000008" class="edge">
<title>Node8&#45;&gt;Node5</title>
<g id="a_edge23_Node000005_Node000008"><a xlink:title=" ">
<path fill="none" stroke="#9a32cd" stroke-dasharray="5,2" d="M919.04,-504.85C892.04,-502.62 853.21,-496.33 824,-479 778.66,-452.1 774.59,-433.76 746.75,-389 728.37,-359.45 738.03,-343.93 716,-317 675.17,-267.08 606.79,-229.92 572.67,-213.43"/>
<polygon fill="#9a32cd" stroke="#9a32cd" points="918.46,-508.32 928.67,-505.5 918.93,-501.34 918.46,-508.32"/>
</a>
</g>
<text text-anchor="middle" x="772.62" y="-349.5" font-family="Helvetica,sans-Serif" font-size="10.00" fill="grey"> m_Instance</text>
</g>
<!-- Node8&#45;&gt;Node7 -->
<g id="edge12_Node000007_Node000008" class="edge">
<title>Node8&#45;&gt;Node7</title>
<g id="a_edge12_Node000007_Node000008"><a xlink:title=" ">
<path fill="none" stroke="#9a32cd" stroke-dasharray="5,2" d="M936.48,-488.06C910.14,-455.51 855.36,-387.81 835.44,-363.2"/>
<polygon fill="#9a32cd" stroke="#9a32cd" points="933.71,-490.2 942.72,-495.77 939.15,-485.79 933.71,-490.2"/>
</a>
</g>
<text text-anchor="middle" x="953.62" y="-439.5" font-family="Helvetica,sans-Serif" font-size="10.00" fill="grey"> m_Instance</text>
</g>
<!-- Node8&#45;&gt;Node10 -->
<g id="edge19_Node000010_Node000008" class="edge">
<title>Node8&#45;&gt;Node10</title>
<g id="a_edge19_Node000010_Node000008"><a xlink:title=" ">
<path fill="none" stroke="#9a32cd" stroke-dasharray="5,2" d="M982.87,-502.68C1012.39,-498.87 1053.17,-491.48 1063,-479 1082.8,-453.86 1066.15,-438.84 1063,-407 1058.98,-366.41 1065.88,-352.04 1045,-317 1015.61,-267.69 956.59,-230.12 926.91,-213.46"/>
<polygon fill="#9a32cd" stroke="#9a32cd" points="982.82,-499.16 973.31,-503.83 983.66,-506.11 982.82,-499.16"/>
</a>
</g>
<text text-anchor="middle" x="1087.62" y="-349.5" font-family="Helvetica,sans-Serif" font-size="10.00" fill="grey"> m_Instance</text>
</g>
<!-- Node9 -->
<g id="Node000009" class="node">
<title>Node9</title>
<g id="a_Node000009"><a xlink:href="../../dd/d0a/class_widget.html" target="_top" xlink:title=" ">
<polygon fill="white" stroke="#666666" points="512.38,-517 465.62,-517 465.62,-497 512.38,-497 512.38,-517"/>
<text text-anchor="middle" x="489" y="-503.5" font-family="Helvetica,sans-Serif" font-size="10.00">Widget</text>
</a>
</g>
</g>
<!-- Node9&#45;&gt;Node5 -->
<g id="edge25_Node000005_Node000009" class="edge">
<title>Node9&#45;&gt;Node5</title>
<g id="a_edge25_Node000005_Node000009"><a xlink:title=" ">
<path fill="none" stroke="#9a32cd" stroke-dasharray="5,2" d="M468.53,-489.1C431.08,-456.03 358.29,-380.47 391.25,-317 419.63,-262.36 487.91,-228.59 525.71,-213.43"/>
<polygon fill="#9a32cd" stroke="#9a32cd" points="466.19,-491.7 476.05,-495.57 470.75,-486.39 466.19,-491.7"/>
</a>
</g>
<text text-anchor="middle" x="409.38" y="-349.5" font-family="Helvetica,sans-Serif" font-size="10.00" fill="grey"> m_Root</text>
</g>
<!-- Node9&#45;&gt;Node7 -->
<g id="edge14_Node000007_Node000009" class="edge">
<title>Node9&#45;&gt;Node7</title>
<g id="a_edge14_Node000007_Node000009"><a xlink:title=" ">
<path fill="none" stroke="#9a32cd" stroke-dasharray="5,2" d="M523.87,-503.16C554.85,-499.83 600.99,-492.9 639,-479 714.17,-451.5 732.21,-438.65 795,-389 804.7,-381.33 814.21,-370.83 820.51,-363.34"/>
<polygon fill="#9a32cd" stroke="#9a32cd" points="523.89,-499.64 514.29,-504.11 524.59,-506.6 523.89,-499.64"/>
</a>
</g>
<text text-anchor="middle" x="788.38" y="-439.5" font-family="Helvetica,sans-Serif" font-size="10.00" fill="grey"> m_Root</text>
</g>
<!-- Node9&#45;&gt;Node10 -->
<g id="edge21_Node000010_Node000009" class="edge">
<title>Node9&#45;&gt;Node10</title>
<g id="a_edge21_Node000010_Node000009"><a xlink:title=" ">
<path fill="none" stroke="#9a32cd" stroke-dasharray="5,2" d="M485.84,-485.37C483.69,-463.24 484.06,-428.41 503,-407 523.43,-383.91 546.54,-409.01 570,-389 596.68,-366.25 576.63,-340.93 602.25,-317 677.53,-246.69 800.25,-219.28 865.31,-209.28"/>
<polygon fill="#9a32cd" stroke="#9a32cd" points="482.36,-485.75 487.09,-495.23 489.31,-484.87 482.36,-485.75"/>
</a>
</g>
<text text-anchor="middle" x="620.38" y="-349.5" font-family="Helvetica,sans-Serif" font-size="10.00" fill="grey"> m_Root</text>
</g>
<!-- Node10&#45;&gt;Node7 -->
<g id="edge15_Node000007_Node000010" class="edge">
<title>Node10&#45;&gt;Node7</title>
<g id="a_edge15_Node000007_Node000010"><a xlink:title=" ">
<path fill="none" stroke="#9a32cd" stroke-dasharray="5,2" d="M907.81,-224.57C905.86,-244.76 900.69,-275.81 887,-299 876.08,-317.5 856.56,-333.13 842.98,-342.52"/>
<polygon fill="#9a32cd" stroke="#9a32cd" points="911.29,-225.06 908.56,-214.83 904.31,-224.53 911.29,-225.06"/>
</a>
</g>
<text text-anchor="middle" x="923.5" y="-289.5" font-family="Helvetica,sans-Serif" font-size="10.00" fill="grey"> m_Subgroups</text>
</g>
<!-- Node10&#45;&gt;Node10 -->
<g id="edge22_Node000010_Node000010" class="edge">
<title>Node10&#45;&gt;Node10</title>
<g id="a_edge22_Node000010_Node000010"><a xlink:title=" ">
<path fill="none" stroke="#9a32cd" stroke-dasharray="5,2" d="M933.2,-217.79C951.59,-223.14 970.25,-218.21 970.25,-203 970.25,-184.81 943.55,-181.32 922.54,-192.55"/>
<polygon fill="#9a32cd" stroke="#9a32cd" points="934.52,-214.55 923.94,-214.02 931.88,-221.03 934.52,-214.55"/>
</a>
</g>
<text text-anchor="middle" x="1001.75" y="-199.5" font-family="Helvetica,sans-Serif" font-size="10.00" fill="grey"> m_Subgroups</text>
</g>
</g>
</svg>
