<?xml version="1.0" encoding="UTF-8" standalone="no"?>
<!DOCTYPE svg PUBLIC "-//W3C//DTD SVG 1.1//EN"
 "http://www.w3.org/Graphics/SVG/1.1/DTD/svg11.dtd">
<!-- Generated by graphviz version 11.0.0 (20240428.1522)
 -->
<!-- Title: BotStateBase Pages: 1 -->
<svg width="249pt" height="218pt"
 viewBox="0.00 0.00 249.25 218.00" xmlns="http://www.w3.org/2000/svg" xmlns:xlink="http://www.w3.org/1999/xlink">
<g id="graph0" class="graph" transform="scale(1 1) rotate(0) translate(4 214)">
<title>BotStateBase</title>
<!-- Node1 -->
<g id="Node000001" class="node">
<title>Node1</title>
<g id="a_Node000001"><a xlink:title="represent weapon state base">
<polygon fill="#999999" stroke="#666666" points="76.75,-115 0,-115 0,-95 76.75,-95 76.75,-115"/>
<text text-anchor="middle" x="38.38" y="-101.5" font-family="Helvetica,sans-Serif" font-size="10.00">BotStateBase</text>
</a>
</g>
</g>
<!-- Node2 -->
<g id="Node000002" class="node">
<title>Node2</title>
<g id="a_Node000002"><a xlink:href="../../df/d0b/class_bot_state_idle.html" target="_top" xlink:title=" ">
<polygon fill="white" stroke="#666666" points="211.62,-210 142.38,-210 142.38,-190 211.62,-190 211.62,-210"/>
<text text-anchor="middle" x="177" y="-196.5" font-family="Helvetica,sans-Serif" font-size="10.00">BotStateIdle</text>
</a>
</g>
</g>
<!-- Node1&#45;&gt;Node2 -->
<g id="edge1_Node000001_Node000002" class="edge">
<title>Node1&#45;&gt;Node2</title>
<g id="a_edge1_Node000001_Node000002"><a xlink:title=" ">
<path fill="none" stroke="#8b1a1a" d="M53.6,-124.64C67.03,-141.84 88.66,-166.32 112.75,-181 121.66,-186.43 132.23,-190.4 142.15,-193.26"/>
<polygon fill="#8b1a1a" stroke="#8b1a1a" points="56.42,-122.56 47.6,-116.69 50.83,-126.78 56.42,-122.56"/>
</a>
</g>
</g>
<!-- Node3 -->
<g id="Node000003" class="node">
<title>Node3</title>
<g id="a_Node000003"><a xlink:href="../../d8/d0a/class_bot_test_spam_user_actions.html" target="_top" xlink:title=" ">
<polygon fill="white" stroke="#666666" points="241.25,-172 112.75,-172 112.75,-152 241.25,-152 241.25,-172"/>
<text text-anchor="middle" x="177" y="-158.5" font-family="Helvetica,sans-Serif" font-size="10.00">BotTestSpamUserActions</text>
</a>
</g>
</g>
<!-- Node1&#45;&gt;Node3 -->
<g id="edge2_Node000001_Node000003" class="edge">
<title>Node1&#45;&gt;Node3</title>
<g id="a_edge2_Node000001_Node000003"><a xlink:title=" ">
<path fill="none" stroke="#8b1a1a" d="M67.37,-121.06C80.82,-128.37 97.33,-136.75 112.75,-143 120.51,-146.14 128.98,-149.04 137.14,-151.57"/>
<polygon fill="#8b1a1a" stroke="#8b1a1a" points="69.09,-118.01 58.65,-116.23 65.7,-124.14 69.09,-118.01"/>
</a>
</g>
</g>
<!-- Node4 -->
<g id="Node000004" class="node">
<title>Node4</title>
<g id="a_Node000004"><a xlink:href="../../d3/d04/class_bot_test_swap_g2_h.html" target="_top" xlink:title=" ">
<polygon fill="white" stroke="#666666" points="223.62,-134 130.38,-134 130.38,-114 223.62,-114 223.62,-134"/>
<text text-anchor="middle" x="177" y="-120.5" font-family="Helvetica,sans-Serif" font-size="10.00">BotTestSwapG2H</text>
</a>
</g>
</g>
<!-- Node1&#45;&gt;Node4 -->
<g id="edge3_Node000001_Node000004" class="edge">
<title>Node1&#45;&gt;Node4</title>
<g id="a_edge3_Node000001_Node000004"><a xlink:title=" ">
<path fill="none" stroke="#8b1a1a" d="M88.23,-111.79C101.89,-113.69 116.68,-115.75 130.16,-117.63"/>
<polygon fill="#8b1a1a" stroke="#8b1a1a" points="88.96,-108.36 78.57,-110.45 87.99,-115.29 88.96,-108.36"/>
</a>
</g>
</g>
<!-- Node5 -->
<g id="Node000005" class="node">
<title>Node5</title>
<g id="a_Node000005"><a xlink:href="../../d8/d0a/class_bot_test_swap_internal.html" target="_top" xlink:title=" ">
<polygon fill="white" stroke="#666666" points="229.62,-96 124.38,-96 124.38,-76 229.62,-76 229.62,-96"/>
<text text-anchor="middle" x="177" y="-82.5" font-family="Helvetica,sans-Serif" font-size="10.00">BotTestSwapInternal</text>
</a>
</g>
</g>
<!-- Node1&#45;&gt;Node5 -->
<g id="edge4_Node000001_Node000005" class="edge">
<title>Node1&#45;&gt;Node5</title>
<g id="a_edge4_Node000001_Node000005"><a xlink:title=" ">
<path fill="none" stroke="#8b1a1a" d="M88.35,-98.19C99.96,-96.57 112.38,-94.85 124.11,-93.22"/>
<polygon fill="#8b1a1a" stroke="#8b1a1a" points="87.99,-94.71 78.57,-99.55 88.96,-101.64 87.99,-94.71"/>
</a>
</g>
</g>
<!-- Node6 -->
<g id="Node000006" class="node">
<title>Node6</title>
<g id="a_Node000006"><a xlink:href="../../dc/d06/class_bot_test_swap_internal_c2_h.html" target="_top" xlink:title=" ">
<polygon fill="white" stroke="#666666" points="239,-58 115,-58 115,-38 239,-38 239,-58"/>
<text text-anchor="middle" x="177" y="-44.5" font-family="Helvetica,sans-Serif" font-size="10.00">BotTestSwapInternalC2H</text>
</a>
</g>
</g>
<!-- Node1&#45;&gt;Node6 -->
<g id="edge5_Node000001_Node000006" class="edge">
<title>Node1&#45;&gt;Node6</title>
<g id="a_edge5_Node000001_Node000006"><a xlink:title=" ">
<path fill="none" stroke="#8b1a1a" d="M67.37,-88.94C80.82,-81.63 97.33,-73.25 112.75,-67 120.51,-63.86 128.98,-60.96 137.14,-58.43"/>
<polygon fill="#8b1a1a" stroke="#8b1a1a" points="65.7,-85.86 58.65,-93.77 69.09,-91.99 65.7,-85.86"/>
</a>
</g>
</g>
<!-- Node7 -->
<g id="Node000007" class="node">
<title>Node7</title>
<g id="a_Node000007"><a xlink:href="../../dd/d06/class_bot_test_swap_with_corpse.html" target="_top" xlink:title=" ">
<polygon fill="white" stroke="#666666" points="239.38,-20 114.62,-20 114.62,0 239.38,0 239.38,-20"/>
<text text-anchor="middle" x="177" y="-6.5" font-family="Helvetica,sans-Serif" font-size="10.00">BotTestSwapWithCorpse</text>
</a>
</g>
</g>
<!-- Node1&#45;&gt;Node7 -->
<g id="edge6_Node000001_Node000007" class="edge">
<title>Node1&#45;&gt;Node7</title>
<g id="a_edge6_Node000001_Node000007"><a xlink:title=" ">
<path fill="none" stroke="#8b1a1a" d="M53.6,-85.36C67.03,-68.16 88.66,-43.68 112.75,-29 118.33,-25.6 124.56,-22.77 130.88,-20.43"/>
<polygon fill="#8b1a1a" stroke="#8b1a1a" points="50.83,-83.22 47.6,-93.31 56.42,-87.44 50.83,-83.22"/>
</a>
</g>
</g>
</g>
</svg>
