<?xml version="1.0" encoding="UTF-8" standalone="no"?>
<!DOCTYPE svg PUBLIC "-//W3C//DTD SVG 1.1//EN"
 "http://www.w3.org/Graphics/SVG/1.1/DTD/svg11.dtd">
<!-- Generated by graphviz version 11.0.0 (20240428.1522)
 -->
<!-- Title: ChatLine Pages: 1 -->
<!--zoomable 136 -->

<svg id="main" version="1.1" xmlns="http://www.w3.org/2000/svg" xmlns:xlink="http://www.w3.org/1999/xlink" xml:space="preserve" onload="init(evt)">
<style type="text/css"><![CDATA[
.node, .edge {opacity: 0.7;}
.node.selected, .edge.selected {opacity: 1;}
.edge:hover path { stroke: red; }
.edge:hover polygon { stroke: red; fill: red; }
]]></style>

<defs>
  <circle id="rim" cx="0" cy="0" r="7"/>
  <circle id="rim2" cx="0" cy="0" r="3.5"/>
  <g id="zoomPlus">
    <use xlink:href="#rim" fill="#404040"><set attributeName="fill" to="#808080" begin="zoomplus.mouseover" end="zoomplus.mouseout"/></use>
    <path d="M-4,0h8M0,-4v8" fill="none" stroke="white" stroke-width="1.5" pointer-events="none"/>
  </g>
  <g id="zoomMin">
    <use xlink:href="#rim" fill="#404040"><set attributeName="fill" to="#808080" begin="zoomminus.mouseover" end="zoomminus.mouseout"/></use>
    <path d="M-4,0h8" fill="none" stroke="white" stroke-width="1.5" pointer-events="none"/>
  </g>
  <g id="arrowUp" transform="translate(30 24)">
    <use xlink:href="#rim"/>
    <path pointer-events="none" fill="none" stroke="white" stroke-width="1.5" d="M0,-3.0v7 M-2.5,-0.5L0,-3.0L2.5,-0.5"/>
  </g>
  <g id="arrowRight" transform="rotate(90) translate(36 -43)">
    <use xlink:href="#rim"/>
    <path pointer-events="none" fill="none" stroke="white" stroke-width="1.5" d="M0,-3.0v7 M-2.5,-0.5L0,-3.0L2.5,-0.5"/>
  </g>
  <g id="arrowDown" transform="rotate(180) translate(-30 -48)">
    <use xlink:href="#rim"/>
    <path pointer-events="none" fill="none" stroke="white" stroke-width="1.5" d="M0,-3.0v7 M-2.5,-0.5L0,-3.0L2.5,-0.5"/>
  </g>
  <g id="arrowLeft" transform="rotate(270) translate(-36 17)">
    <use xlink:href="#rim"/>
    <path pointer-events="none" fill="none" stroke="white" stroke-width="1.5" d="M0,-3.0v7 M-2.5,-0.5L0,-3.0L2.5,-0.5"/>
  </g>
  <g id="resetDef">
    <use xlink:href="#rim2" fill="#404040"><set attributeName="fill" to="#808080" begin="reset.mouseover" end="reset.mouseout"/></use>
  </g>
</defs>
<script type="application/ecmascript">
var viewWidth = 640;
var viewHeight = 136;
var sectionId = 'dynsection-0';
</script>
<script type="application/ecmascript" xlink:href="../../svg.min.js"/>
<svg id="graph" class="graph">
<g id="viewport">
<title>ChatLine</title>
<!-- Node1 -->
<g id="Node000001" class="node">
<title>Node1</title>
<g id="a_Node000001"><a xlink:title=" ">
<polygon fill="#999999" stroke="#666666" points="337.12,-20 282.88,-20 282.88,0 337.12,0 337.12,-20"/>
<text text-anchor="middle" x="310" y="-6.5" font-family="Helvetica,sans-Serif" font-size="10.00">ChatLine</text>
</a>
</g>
</g>
<!-- Node2 -->
<g id="Node000002" class="node">
<title>Node2</title>
<g id="a_Node000002"><a xlink:href="../../d4/d03/classfloat.html" target="_top" xlink:title=" ">
<polygon fill="white" stroke="#666666" points="34,-120 0,-120 0,-100 34,-100 34,-120"/>
<text text-anchor="middle" x="17" y="-106.5" font-family="Helvetica,sans-Serif" font-size="10.00">float</text>
</a>
</g>
</g>
<!-- Node2&#45;&gt;Node1 -->
<g id="edge1_Node000001_Node000002" class="edge">
<title>Node2&#45;&gt;Node1</title>
<g id="a_edge1_Node000001_Node000002"><a xlink:title=" ">
<path fill="none" stroke="#9a32cd" stroke-dasharray="5,2" d="M15.02,-88.53C14.68,-72.37 17.19,-50.52 31,-38 49.39,-21.33 215.64,-14.08 282.42,-11.83"/>
<polygon fill="#9a32cd" stroke="#9a32cd" points="11.52,-88.72 15.64,-98.48 18.51,-88.28 11.52,-88.72"/>
</a>
</g>
<text text-anchor="middle" x="83.5" y="-64.5" font-family="Helvetica,sans-Serif" font-size="10.00" fill="grey"> FADE_IN_DURATION</text>
<text text-anchor="middle" x="83.5" y="-52.5" font-family="Helvetica,sans-Serif" font-size="10.00" fill="grey">FADE_OUT_DURATION</text>
<text text-anchor="middle" x="83.5" y="-40.5" font-family="Helvetica,sans-Serif" font-size="10.00" fill="grey">FADE_TIMEOUT</text>
</g>
<!-- Node2&#45;&gt;Node2 -->
<g id="edge2_Node000002_Node000002" class="edge">
<title>Node2&#45;&gt;Node2</title>
<g id="a_edge2_Node000002_Node000002"><a xlink:title=" ">
<path fill="none" stroke="#9a32cd" stroke-dasharray="5,2" d="M45.67,-118.94C49.47,-117.42 52,-114.44 52,-110 52,-101.88 43.56,-98.64 34.29,-100.29"/>
<polygon fill="#9a32cd" stroke="#9a32cd" points="45.54,-115.44 35.8,-119.61 46.01,-122.43 45.54,-115.44"/>
</a>
</g>
<text text-anchor="middle" x="74.12" y="-118.5" font-family="Helvetica,sans-Serif" font-size="10.00" fill="grey"> LOWEST</text>
<text text-anchor="middle" x="74.12" y="-106.5" font-family="Helvetica,sans-Serif" font-size="10.00" fill="grey">MAX</text>
<text text-anchor="middle" x="74.12" y="-94.5" font-family="Helvetica,sans-Serif" font-size="10.00" fill="grey">MIN</text>
</g>
<!-- Node3 -->
<g id="Node000003" class="node">
<title>Node3</title>
<g id="a_Node000003"><a xlink:href="../../d5/d02/classstring.html" target="_top" xlink:title=" ">
<polygon fill="white" stroke="#666666" points="154,-120 114,-120 114,-100 154,-100 154,-120"/>
<text text-anchor="middle" x="134" y="-106.5" font-family="Helvetica,sans-Serif" font-size="10.00">string</text>
</a>
</g>
</g>
<!-- Node3&#45;&gt;Node1 -->
<g id="edge3_Node000001_Node000003" class="edge">
<title>Node3&#45;&gt;Node1</title>
<g id="a_edge3_Node000001_Node000003"><a xlink:title=" ">
<path fill="none" stroke="#9a32cd" stroke-dasharray="5,2" d="M136.31,-89C139.28,-72.78 146.02,-50.62 161.25,-38 179.34,-23.01 244.86,-15.78 282.63,-12.79"/>
<polygon fill="#9a32cd" stroke="#9a32cd" points="132.91,-88.09 134.92,-98.49 139.84,-89.1 132.91,-88.09"/>
</a>
</g>
<text text-anchor="middle" x="197.38" y="-64.5" font-family="Helvetica,sans-Serif" font-size="10.00" fill="grey"> ADMIN_PREFIX</text>
<text text-anchor="middle" x="197.38" y="-52.5" font-family="Helvetica,sans-Serif" font-size="10.00" fill="grey">GAME_PREFIX</text>
<text text-anchor="middle" x="197.38" y="-40.5" font-family="Helvetica,sans-Serif" font-size="10.00" fill="grey">RADIO_PREFIX</text>
</g>
<!-- Node3&#45;&gt;Node3 -->
<g id="edge4_Node000003_Node000003" class="edge">
<title>Node3&#45;&gt;Node3</title>
<g id="a_edge4_Node000003_Node000003"><a xlink:title=" ">
<path fill="none" stroke="#9a32cd" stroke-dasharray="5,2" d="M165.76,-118.69C169.54,-117.11 172,-114.21 172,-110 172,-102.3 163.76,-98.99 154.33,-100.08"/>
<polygon fill="#9a32cd" stroke="#9a32cd" points="165.4,-115.21 155.83,-119.76 166.15,-122.17 165.4,-115.21"/>
</a>
</g>
<text text-anchor="middle" x="187.75" y="-106.5" font-family="Helvetica,sans-Serif" font-size="10.00" fill="grey"> Empty</text>
</g>
<!-- Node4 -->
<g id="Node000004" class="node">
<title>Node4</title>
<g id="a_Node000004"><a xlink:href="../../db/d06/class_param3.html" target="_top" xlink:title=" ">
<polygon fill="white" stroke="#666666" points="270.88,-120 221.12,-120 221.12,-100 270.88,-100 270.88,-120"/>
<text text-anchor="middle" x="246" y="-106.5" font-family="Helvetica,sans-Serif" font-size="10.00">Param3</text>
</a>
</g>
</g>
<!-- Node4&#45;&gt;Node1 -->
<g id="edge5_Node000001_Node000004" class="edge">
<title>Node4&#45;&gt;Node1</title>
<g id="a_edge5_Node000001_Node000004"><a xlink:title=" ">
<path fill="none" stroke="#9a32cd" stroke-dasharray="5,2" d="M240.33,-88.99C237.26,-73.74 235.85,-52.91 245.75,-38 253.99,-25.6 269.14,-18.89 282.66,-15.25"/>
<polygon fill="#9a32cd" stroke="#9a32cd" points="236.84,-89.44 242.61,-98.32 243.64,-87.78 236.84,-89.44"/>
</a>
</g>
<text text-anchor="middle" x="298.62" y="-64.5" font-family="Helvetica,sans-Serif" font-size="10.00" fill="grey"> ADMIN_TEXT_COLOUR</text>
<text text-anchor="middle" x="298.62" y="-52.5" font-family="Helvetica,sans-Serif" font-size="10.00" fill="grey">DEFAULT_COLOUR</text>
<text text-anchor="middle" x="298.62" y="-40.5" font-family="Helvetica,sans-Serif" font-size="10.00" fill="grey">GAME_TEXT_COLOUR</text>
</g>
<!-- Node5 -->
<g id="Node000005" class="node">
<title>Node5</title>
<g id="a_Node000005"><a xlink:href="../../dd/d0a/class_widget.html" target="_top" xlink:title=" ">
<polygon fill="white" stroke="#666666" points="398.38,-120 351.62,-120 351.62,-100 398.38,-100 398.38,-120"/>
<text text-anchor="middle" x="375" y="-106.5" font-family="Helvetica,sans-Serif" font-size="10.00">Widget</text>
</a>
</g>
</g>
<!-- Node5&#45;&gt;Node1 -->
<g id="edge6_Node000001_Node000005" class="edge">
<title>Node5&#45;&gt;Node1</title>
<g id="a_edge6_Node000001_Node000005"><a xlink:title=" ">
<path fill="none" stroke="#9a32cd" stroke-dasharray="5,2" d="M372.54,-88.5C369.85,-73.29 364.3,-52.71 353,-38 347.31,-30.59 338.96,-24.69 331.12,-20.32"/>
<polygon fill="#9a32cd" stroke="#9a32cd" points="369.06,-88.89 373.97,-98.28 375.99,-87.88 369.06,-88.89"/>
</a>
</g>
<text text-anchor="middle" x="401.75" y="-52.5" font-family="Helvetica,sans-Serif" font-size="10.00" fill="grey"> m_RootWidget</text>
</g>
<!-- Node6 -->
<g id="Node000006" class="node">
<title>Node6</title>
<g id="a_Node000006"><a xlink:href="../../da/d0c/class_text_widget.html" target="_top" xlink:title=" ">
<polygon fill="white" stroke="#666666" points="498.75,-120 433.25,-120 433.25,-100 498.75,-100 498.75,-120"/>
<text text-anchor="middle" x="466" y="-106.5" font-family="Helvetica,sans-Serif" font-size="10.00">TextWidget</text>
</a>
</g>
</g>
<!-- Node6&#45;&gt;Node1 -->
<g id="edge7_Node000001_Node000006" class="edge">
<title>Node6&#45;&gt;Node1</title>
<g id="a_edge7_Node000001_Node000006"><a xlink:title=" ">
<path fill="none" stroke="#9a32cd" stroke-dasharray="5,2" d="M463.89,-88.6C461.12,-72.51 454.73,-50.72 440,-38 424.91,-24.97 370.85,-17.22 337.38,-13.56"/>
<polygon fill="#9a32cd" stroke="#9a32cd" points="460.36,-88.62 465.17,-98.06 467.29,-87.68 460.36,-88.62"/>
</a>
</g>
<text text-anchor="middle" x="496.38" y="-58.5" font-family="Helvetica,sans-Serif" font-size="10.00" fill="grey"> m_NameWidget</text>
<text text-anchor="middle" x="496.38" y="-46.5" font-family="Helvetica,sans-Serif" font-size="10.00" fill="grey">m_TextWidget</text>
</g>
<!-- Node7 -->
<g id="Node000007" class="node">
<title>Node7</title>
<g id="a_Node000007"><a xlink:href="../../d8/d08/class_timer.html" target="_top" xlink:title=" ">
<polygon fill="white" stroke="#666666" points="582,-120 542,-120 542,-100 582,-100 582,-120"/>
<text text-anchor="middle" x="562" y="-106.5" font-family="Helvetica,sans-Serif" font-size="10.00">Timer</text>
</a>
</g>
</g>
<!-- Node7&#45;&gt;Node1 -->
<g id="edge8_Node000001_Node000007" class="edge">
<title>Node7&#45;&gt;Node1</title>
<g id="a_edge8_Node000001_Node000007"><a xlink:title=" ">
<path fill="none" stroke="#9a32cd" stroke-dasharray="5,2" d="M560.55,-88.8C558.24,-72.47 552.28,-50.24 537,-38 506.8,-13.81 390.9,-10.81 337.38,-10.75"/>
<polygon fill="#9a32cd" stroke="#9a32cd" points="557.03,-88.79 561.55,-98.38 563.99,-88.07 557.03,-88.79"/>
</a>
</g>
<text text-anchor="middle" x="594.5" y="-52.5" font-family="Helvetica,sans-Serif" font-size="10.00" fill="grey"> m_TimeoutTimer</text>
</g>
</g>
</svg>

<g id="navigator" transform="translate(0 0)" fill="#404254">
  <rect fill="#f2f5e9" fill-opacity="0.5" stroke="#606060" stroke-width=".5" x="0" y="0" width="60" height="60"/>
  <use id="zoomplus" xlink:href="#zoomPlus" x="17" y="9" onmousedown="handleZoom(evt,'in')"/>
  <use id="zoomminus" xlink:href="#zoomMin" x="42" y="9" onmousedown="handleZoom(evt,'out')"/>
  <use id="reset" xlink:href="#resetDef" x="30" y="36" onmousedown="handleReset()"/>
   <use id="arrowup" xlink:href="#arrowUp" x="0" y="0" onmousedown="handlePan(0,-1)"/>
  <use id="arrowright" xlink:href="#arrowRight" x="0" y="0" onmousedown="handlePan(1,0)"/>
  <use id="arrowdown" xlink:href="#arrowDown" x="0" y="0" onmousedown="handlePan(0,1)"/>
  <use id="arrowleft" xlink:href="#arrowLeft" x="0" y="0" onmousedown="handlePan(-1,0)"/>
</g>
<svg viewBox="0 0 15 15" width="100%" height="30px" preserveAspectRatio="xMaxYMin meet">
 <g id="arrow_out" transform="scale(0.3 0.3)">
  <a xlink:href="class_chat_line__coll__graph_org.svg" target="_base">
   <rect id="button" ry="5" rx="5" y="6" x="6" height="38" width="38"
        fill="#f2f5e9" fill-opacity="0.5" stroke="#606060" stroke-width="1.0"/>
   <path id="arrow"
     d="M 11.500037,31.436501 C 11.940474,20.09759 22.043105,11.32322 32.158766,21.979434 L 37.068811,17.246167 C 37.068811,17.246167 37.088388,32 37.088388,32 L 22.160133,31.978069 C 22.160133,31.978069 26.997745,27.140456 26.997745,27.140456 C 18.528582,18.264221 13.291696,25.230495 11.500037,31.436501 z"
     style="fill:#404040;"/>
  </a>
 </g>
</svg>

<style type='text/css'>
<![CDATA[
[data-mouse-over-selected='false'] { opacity: 0.7; }
[data-mouse-over-selected='true']  { opacity: 1.0; }
]]>
</style>
<script type="application/ecmascript"><![CDATA[
document.addEventListener('DOMContentLoaded', (event) => {
  highlightEdges();
  highlightAdjacentNodes();
});
]]></script>
</svg>
