<?xml version="1.0" encoding="UTF-8" standalone="no"?>
<!DOCTYPE svg PUBLIC "-//W3C//DTD SVG 1.1//EN"
 "http://www.w3.org/Graphics/SVG/1.1/DTD/svg11.dtd">
<!-- Generated by graphviz version 11.0.0 (20240428.1522)
 -->
<!-- Title: Inventory_Base Pages: 1 -->
<!--zoomable 1548 -->

<svg id="main" version="1.1" xmlns="http://www.w3.org/2000/svg" xmlns:xlink="http://www.w3.org/1999/xlink" xml:space="preserve" onload="init(evt)">
<style type="text/css"><![CDATA[
.node, .edge {opacity: 0.7;}
.node.selected, .edge.selected {opacity: 1;}
.edge:hover path { stroke: red; }
.edge:hover polygon { stroke: red; fill: red; }
]]></style>

<defs>
  <circle id="rim" cx="0" cy="0" r="7"/>
  <circle id="rim2" cx="0" cy="0" r="3.5"/>
  <g id="zoomPlus">
    <use xlink:href="#rim" fill="#404040"><set attributeName="fill" to="#808080" begin="zoomplus.mouseover" end="zoomplus.mouseout"/></use>
    <path d="M-4,0h8M0,-4v8" fill="none" stroke="white" stroke-width="1.5" pointer-events="none"/>
  </g>
  <g id="zoomMin">
    <use xlink:href="#rim" fill="#404040"><set attributeName="fill" to="#808080" begin="zoomminus.mouseover" end="zoomminus.mouseout"/></use>
    <path d="M-4,0h8" fill="none" stroke="white" stroke-width="1.5" pointer-events="none"/>
  </g>
  <g id="arrowUp" transform="translate(30 24)">
    <use xlink:href="#rim"/>
    <path pointer-events="none" fill="none" stroke="white" stroke-width="1.5" d="M0,-3.0v7 M-2.5,-0.5L0,-3.0L2.5,-0.5"/>
  </g>
  <g id="arrowRight" transform="rotate(90) translate(36 -43)">
    <use xlink:href="#rim"/>
    <path pointer-events="none" fill="none" stroke="white" stroke-width="1.5" d="M0,-3.0v7 M-2.5,-0.5L0,-3.0L2.5,-0.5"/>
  </g>
  <g id="arrowDown" transform="rotate(180) translate(-30 -48)">
    <use xlink:href="#rim"/>
    <path pointer-events="none" fill="none" stroke="white" stroke-width="1.5" d="M0,-3.0v7 M-2.5,-0.5L0,-3.0L2.5,-0.5"/>
  </g>
  <g id="arrowLeft" transform="rotate(270) translate(-36 17)">
    <use xlink:href="#rim"/>
    <path pointer-events="none" fill="none" stroke="white" stroke-width="1.5" d="M0,-3.0v7 M-2.5,-0.5L0,-3.0L2.5,-0.5"/>
  </g>
  <g id="resetDef">
    <use xlink:href="#rim2" fill="#404040"><set attributeName="fill" to="#808080" begin="reset.mouseover" end="reset.mouseout"/></use>
  </g>
</defs>
<script type="application/ecmascript">
var viewWidth = 430;
var viewHeight = 1548;
var sectionId = 'dynsection-0';
</script>
<script type="application/ecmascript" xlink:href="../../svg.min.js"/>
<svg id="graph" class="graph">
<g id="viewport">
<title>Inventory_Base</title>
<!-- Node1 -->
<g id="Node000001" class="node">
<title>Node1</title>
<g id="a_Node000001"><a xlink:title=" ">
<polygon fill="#999999" stroke="#666666" points="82,-780 0,-780 0,-760 82,-760 82,-780"/>
<text text-anchor="middle" x="41" y="-766.5" font-family="Helvetica,sans-Serif" font-size="10.00">Inventory_Base</text>
</a>
</g>
</g>
<!-- Node2 -->
<g id="Node000002" class="node">
<title>Node2</title>
<g id="a_Node000002"><a xlink:href="../../d2/d05/class_anti_chem_injector.html" target="_top" xlink:title=" ">
<polygon fill="white" stroke="#666666" points="227,-1540 136.75,-1540 136.75,-1520 227,-1520 227,-1540"/>
<text text-anchor="middle" x="181.88" y="-1526.5" font-family="Helvetica,sans-Serif" font-size="10.00">AntiChemInjector</text>
</a>
</g>
</g>
<!-- Node1&#45;&gt;Node2 -->
<g id="edge1_Node000001_Node000002" class="edge">
<title>Node1&#45;&gt;Node2</title>
<g id="a_edge1_Node000001_Node000002"><a xlink:title=" ">
<path fill="none" stroke="#8b1a1a" d="M42.8,-791.57C47.31,-907.56 70.95,-1453.97 118,-1511 122.79,-1516.81 129.29,-1520.88 136.3,-1523.73"/>
<polygon fill="#8b1a1a" stroke="#8b1a1a" points="46.31,-791.76 42.44,-781.9 39.32,-792.03 46.31,-791.76"/>
</a>
</g>
</g>
<!-- Node3 -->
<g id="Node000003" class="node">
<title>Node3</title>
<g id="a_Node000003"><a xlink:href="../../d3/d0a/class_anti_pests_spray.html" target="_top" xlink:title=" ">
<polygon fill="white" stroke="#666666" points="224,-1502 139.75,-1502 139.75,-1482 224,-1482 224,-1502"/>
<text text-anchor="middle" x="181.88" y="-1488.5" font-family="Helvetica,sans-Serif" font-size="10.00">AntiPestsSpray</text>
</a>
</g>
</g>
<!-- Node1&#45;&gt;Node3 -->
<g id="edge2_Node000001_Node000003" class="edge">
<title>Node1&#45;&gt;Node3</title>
<g id="a_edge2_Node000001_Node000003"><a xlink:title=" ">
<path fill="none" stroke="#8b1a1a" d="M42.94,-791.85C48,-904.8 73.38,-1419.21 118,-1473 123.53,-1479.67 131.32,-1484.05 139.54,-1486.92"/>
<polygon fill="#8b1a1a" stroke="#8b1a1a" points="46.44,-791.73 42.5,-781.89 39.45,-792.04 46.44,-791.73"/>
</a>
</g>
</g>
<!-- Node4 -->
<g id="Node000004" class="node">
<title>Node4</title>
<g id="a_Node000004"><a xlink:href="../../d1/d0e/class_blood_test_kit.html" target="_top" xlink:title=" ">
<polygon fill="white" stroke="#666666" points="217.62,-1464 146.12,-1464 146.12,-1444 217.62,-1444 217.62,-1464"/>
<text text-anchor="middle" x="181.88" y="-1450.5" font-family="Helvetica,sans-Serif" font-size="10.00">BloodTestKit</text>
</a>
</g>
</g>
<!-- Node1&#45;&gt;Node4 -->
<g id="edge3_Node000001_Node000004" class="edge">
<title>Node1&#45;&gt;Node4</title>
<g id="a_edge3_Node000001_Node000004"><a xlink:title=" ">
<path fill="none" stroke="#8b1a1a" d="M43.06,-791.34C48.61,-899.54 75.69,-1384.32 118,-1435 124.94,-1443.32 135.39,-1448.08 145.79,-1450.78"/>
<polygon fill="#8b1a1a" stroke="#8b1a1a" points="46.57,-791.39 42.57,-781.58 39.57,-791.74 46.57,-791.39"/>
</a>
</g>
</g>
<!-- Node5 -->
<g id="Node000005" class="node">
<title>Node5</title>
<g id="a_Node000005"><a xlink:href="../../d8/d03/class_burlap_sack.html" target="_top" xlink:title=" ">
<polygon fill="white" stroke="#666666" points="215,-1426 148.75,-1426 148.75,-1406 215,-1406 215,-1426"/>
<text text-anchor="middle" x="181.88" y="-1412.5" font-family="Helvetica,sans-Serif" font-size="10.00">BurlapSack</text>
</a>
</g>
</g>
<!-- Node1&#45;&gt;Node5 -->
<g id="edge4_Node000001_Node000005" class="edge">
<title>Node1&#45;&gt;Node5</title>
<g id="a_edge4_Node000001_Node000005"><a xlink:title=" ">
<path fill="none" stroke="#8b1a1a" d="M41.57,-791.66C40.06,-891.06 38.75,-1302.72 118,-1397 125.56,-1405.99 137.21,-1410.82 148.44,-1413.39"/>
<polygon fill="#8b1a1a" stroke="#8b1a1a" points="45.07,-792.01 41.74,-781.96 38.07,-791.89 45.07,-792.01"/>
</a>
</g>
</g>
<!-- Node6 -->
<g id="Node000006" class="node">
<title>Node6</title>
<g id="a_Node000006"><a xlink:href="../../d9/d0e/class_can_opener.html" target="_top" xlink:title=" ">
<polygon fill="white" stroke="#666666" points="214.25,-1388 149.5,-1388 149.5,-1368 214.25,-1368 214.25,-1388"/>
<text text-anchor="middle" x="181.88" y="-1374.5" font-family="Helvetica,sans-Serif" font-size="10.00">CanOpener</text>
</a>
</g>
</g>
<!-- Node1&#45;&gt;Node6 -->
<g id="edge5_Node000001_Node000006" class="edge">
<title>Node1&#45;&gt;Node6</title>
<g id="a_edge5_Node000001_Node000006"><a xlink:title=" ">
<path fill="none" stroke="#8b1a1a" d="M41.76,-791.54C41.16,-886.99 43.45,-1271 118,-1359 125.74,-1368.14 137.71,-1372.97 149.13,-1375.5"/>
<polygon fill="#8b1a1a" stroke="#8b1a1a" points="45.26,-791.81 41.85,-781.78 38.26,-791.75 45.26,-791.81"/>
</a>
</g>
</g>
<!-- Node7 -->
<g id="Node000007" class="node">
<title>Node7</title>
<g id="a_Node000007"><a xlink:href="../../d4/d0a/class_cassette.html" target="_top" xlink:title=" ">
<polygon fill="white" stroke="#666666" points="209.38,-1350 154.38,-1350 154.38,-1330 209.38,-1330 209.38,-1350"/>
<text text-anchor="middle" x="181.88" y="-1336.5" font-family="Helvetica,sans-Serif" font-size="10.00">Cassette</text>
</a>
</g>
</g>
<!-- Node1&#45;&gt;Node7 -->
<g id="edge6_Node000001_Node000007" class="edge">
<title>Node1&#45;&gt;Node7</title>
<g id="a_edge6_Node000001_Node000007"><a xlink:title=" ">
<path fill="none" stroke="#8b1a1a" d="M41.98,-791.88C42.33,-884.02 48.26,-1239.41 118,-1321 126.89,-1331.4 141.26,-1336.23 154.02,-1338.42"/>
<polygon fill="#8b1a1a" stroke="#8b1a1a" points="45.48,-791.98 41.96,-781.99 38.48,-791.99 45.48,-791.98"/>
</a>
</g>
</g>
<!-- Node8 -->
<g id="Node000008" class="node">
<title>Node8</title>
<g id="a_Node000008"><a xlink:href="../../d8/d0c/class_chicken_feather.html" target="_top" xlink:title=" ">
<polygon fill="white" stroke="#666666" points="224,-1312 139.75,-1312 139.75,-1292 224,-1292 224,-1312"/>
<text text-anchor="middle" x="181.88" y="-1298.5" font-family="Helvetica,sans-Serif" font-size="10.00">ChickenFeather</text>
</a>
</g>
</g>
<!-- Node1&#45;&gt;Node8 -->
<g id="edge7_Node000001_Node000008" class="edge">
<title>Node1&#45;&gt;Node8</title>
<g id="a_edge7_Node000001_Node000008"><a xlink:title=" ">
<path fill="none" stroke="#8b1a1a" d="M42.22,-791.48C43.55,-878.98 52.87,-1207.57 118,-1283 123.59,-1289.47 131.3,-1293.78 139.41,-1296.65"/>
<polygon fill="#8b1a1a" stroke="#8b1a1a" points="45.72,-791.64 42.09,-781.69 38.72,-791.73 45.72,-791.64"/>
</a>
</g>
</g>
<!-- Node9 -->
<g id="Node000009" class="node">
<title>Node9</title>
<g id="a_Node000009"><a xlink:href="../../d5/d07/class_cigarette_pack___color_base.html" target="_top" xlink:title=" ">
<polygon fill="white" stroke="#666666" points="245.75,-1274 118,-1274 118,-1254 245.75,-1254 245.75,-1274"/>
<text text-anchor="middle" x="181.88" y="-1260.5" font-family="Helvetica,sans-Serif" font-size="10.00">CigarettePack_ColorBase</text>
</a>
</g>
</g>
<!-- Node1&#45;&gt;Node9 -->
<g id="edge8_Node000001_Node000009" class="edge">
<title>Node1&#45;&gt;Node9</title>
<g id="a_edge8_Node000001_Node000009"><a xlink:title=" ">
<path fill="none" stroke="#8b1a1a" d="M42.51,-791.73C44.9,-875.44 57.63,-1175.89 118,-1245 121,-1248.44 124.6,-1251.26 128.53,-1253.58"/>
<polygon fill="#8b1a1a" stroke="#8b1a1a" points="46.01,-791.64 42.25,-781.73 39.01,-791.82 46.01,-791.64"/>
</a>
</g>
</g>
<!-- Node13 -->
<g id="Node000013" class="node">
<title>Node13</title>
<g id="a_Node000013"><a xlink:href="../../d1/d06/class_clear_syringe.html" target="_top" xlink:title=" ">
<polygon fill="white" stroke="#666666" points="217.62,-1236 146.12,-1236 146.12,-1216 217.62,-1216 217.62,-1236"/>
<text text-anchor="middle" x="181.88" y="-1222.5" font-family="Helvetica,sans-Serif" font-size="10.00">ClearSyringe</text>
</a>
</g>
</g>
<!-- Node1&#45;&gt;Node13 -->
<g id="edge12_Node000001_Node000013" class="edge">
<title>Node1&#45;&gt;Node13</title>
<g id="a_edge12_Node000001_Node000013"><a xlink:title=" ">
<path fill="none" stroke="#8b1a1a" d="M42.83,-791.5C46.32,-870.59 62.27,-1144.06 118,-1207 125.11,-1215.02 135.47,-1219.72 145.74,-1222.44"/>
<polygon fill="#8b1a1a" stroke="#8b1a1a" points="46.34,-791.52 42.42,-781.68 39.34,-791.82 46.34,-791.52"/>
</a>
</g>
</g>
<!-- Node14 -->
<g id="Node000014" class="node">
<title>Node14</title>
<g id="a_Node000014"><a xlink:href="../../d0/d0b/class_crowbar.html" target="_top" xlink:title=" ">
<polygon fill="white" stroke="#666666" points="207.5,-1198 156.25,-1198 156.25,-1178 207.5,-1178 207.5,-1198"/>
<text text-anchor="middle" x="181.88" y="-1184.5" font-family="Helvetica,sans-Serif" font-size="10.00">Crowbar</text>
</a>
</g>
</g>
<!-- Node1&#45;&gt;Node14 -->
<g id="edge13_Node000001_Node000014" class="edge">
<title>Node1&#45;&gt;Node14</title>
<g id="a_edge13_Node000001_Node000014"><a xlink:title=" ">
<path fill="none" stroke="#8b1a1a" d="M43.22,-791.54C47.89,-866.17 66.94,-1112.27 118,-1169 127.54,-1179.6 142.75,-1184.37 155.82,-1186.49"/>
<polygon fill="#8b1a1a" stroke="#8b1a1a" points="46.74,-791.66 42.65,-781.89 39.75,-792.08 46.74,-791.66"/>
</a>
</g>
</g>
<!-- Node15 -->
<g id="Node000015" class="node">
<title>Node15</title>
<g id="a_Node000015"><a xlink:href="../../df/d0f/class_door_test_camera.html" target="_top" xlink:title=" ">
<polygon fill="white" stroke="#666666" points="226.25,-1160 137.5,-1160 137.5,-1140 226.25,-1140 226.25,-1160"/>
<text text-anchor="middle" x="181.88" y="-1146.5" font-family="Helvetica,sans-Serif" font-size="10.00">DoorTestCamera</text>
</a>
</g>
</g>
<!-- Node1&#45;&gt;Node15 -->
<g id="edge14_Node000001_Node000015" class="edge">
<title>Node1&#45;&gt;Node15</title>
<g id="a_edge14_Node000001_Node000015"><a xlink:title=" ">
<path fill="none" stroke="#8b1a1a" d="M43.71,-791.72C49.65,-861.82 71.63,-1080.46 118,-1131 123.17,-1136.63 129.93,-1140.61 137.11,-1143.43"/>
<polygon fill="#8b1a1a" stroke="#8b1a1a" points="47.21,-791.62 42.91,-781.94 40.24,-792.19 47.21,-791.62"/>
</a>
</g>
</g>
<!-- Node16 -->
<g id="Node000016" class="node">
<title>Node16</title>
<g id="a_Node000016"><a xlink:href="../../d4/d0e/class_electronic_repair_kit.html" target="_top" xlink:title=" ">
<polygon fill="white" stroke="#666666" points="231.5,-1122 132.25,-1122 132.25,-1102 231.5,-1102 231.5,-1122"/>
<text text-anchor="middle" x="181.88" y="-1108.5" font-family="Helvetica,sans-Serif" font-size="10.00">ElectronicRepairKit</text>
</a>
</g>
</g>
<!-- Node1&#45;&gt;Node16 -->
<g id="edge15_Node000001_Node000016" class="edge">
<title>Node1&#45;&gt;Node16</title>
<g id="a_edge15_Node000001_Node000016"><a xlink:title=" ">
<path fill="none" stroke="#8b1a1a" d="M44.27,-791.52C51.54,-856.42 76.21,-1048.52 118,-1093 121.9,-1097.16 126.68,-1100.41 131.84,-1102.96"/>
<polygon fill="#8b1a1a" stroke="#8b1a1a" points="47.78,-791.38 43.21,-781.82 40.82,-792.14 47.78,-791.38"/>
</a>
</g>
</g>
<!-- Node17 -->
<g id="Node000017" class="node">
<title>Node17</title>
<g id="a_Node000017"><a xlink:href="../../da/d03/class_epinephrine.html" target="_top" xlink:title=" ">
<polygon fill="white" stroke="#666666" points="215.38,-1084 148.38,-1084 148.38,-1064 215.38,-1064 215.38,-1084"/>
<text text-anchor="middle" x="181.88" y="-1070.5" font-family="Helvetica,sans-Serif" font-size="10.00">Epinephrine</text>
</a>
</g>
</g>
<!-- Node1&#45;&gt;Node17 -->
<g id="edge16_Node000001_Node000017" class="edge">
<title>Node1&#45;&gt;Node17</title>
<g id="a_edge16_Node000001_Node000017"><a xlink:title=" ">
<path fill="none" stroke="#8b1a1a" d="M41.14,-791.44C40.24,-843.92 45.46,-980.04 118,-1055 125.93,-1063.19 137.26,-1067.89 148.12,-1070.56"/>
<polygon fill="#8b1a1a" stroke="#8b1a1a" points="44.63,-791.85 41.41,-781.75 37.63,-791.65 44.63,-791.85"/>
</a>
</g>
</g>
<!-- Node18 -->
<g id="Node000018" class="node">
<title>Node18</title>
<g id="a_Node000018"><a xlink:href="../../d1/d07/class_epoxy_putty.html" target="_top" xlink:title=" ">
<polygon fill="white" stroke="#666666" points="215.38,-1046 148.38,-1046 148.38,-1026 215.38,-1026 215.38,-1046"/>
<text text-anchor="middle" x="181.88" y="-1032.5" font-family="Helvetica,sans-Serif" font-size="10.00">EpoxyPutty</text>
</a>
</g>
</g>
<!-- Node1&#45;&gt;Node18 -->
<g id="edge17_Node000001_Node000018" class="edge">
<title>Node1&#45;&gt;Node18</title>
<g id="a_edge17_Node000001_Node000018"><a xlink:title=" ">
<path fill="none" stroke="#8b1a1a" d="M42.21,-791.75C43.87,-839.44 54.63,-953.95 118,-1017 126,-1024.96 137.22,-1029.61 147.97,-1032.31"/>
<polygon fill="#8b1a1a" stroke="#8b1a1a" points="45.71,-791.84 41.98,-781.92 38.71,-792 45.71,-791.84"/>
</a>
</g>
</g>
<!-- Node19 -->
<g id="Node000019" class="node">
<title>Node19</title>
<g id="a_Node000019"><a xlink:href="../../d3/d01/class_fabric.html" target="_top" xlink:title=" ">
<polygon fill="white" stroke="#666666" points="203.38,-1008 160.38,-1008 160.38,-988 203.38,-988 203.38,-1008"/>
<text text-anchor="middle" x="181.88" y="-994.5" font-family="Helvetica,sans-Serif" font-size="10.00">Fabric</text>
</a>
</g>
</g>
<!-- Node1&#45;&gt;Node19 -->
<g id="edge18_Node000001_Node000019" class="edge">
<title>Node1&#45;&gt;Node19</title>
<g id="a_edge18_Node000001_Node000019"><a xlink:title=" ">
<path fill="none" stroke="#8b1a1a" d="M43.64,-791.82C48.01,-834.1 63.61,-927.54 118,-979 129.35,-989.74 146.56,-994.42 160.1,-996.46"/>
<polygon fill="#8b1a1a" stroke="#8b1a1a" points="47.14,-791.6 42.76,-781.95 40.17,-792.23 47.14,-791.6"/>
</a>
</g>
</g>
<!-- Node20 -->
<g id="Node000020" class="node">
<title>Node20</title>
<g id="a_Node000020"><a xlink:href="../../df/d0f/class_fire_extinguisher.html" target="_top" xlink:title=" ">
<polygon fill="white" stroke="#666666" points="225.12,-970 138.62,-970 138.62,-950 225.12,-950 225.12,-970"/>
<text text-anchor="middle" x="181.88" y="-956.5" font-family="Helvetica,sans-Serif" font-size="10.00">FireExtinguisher</text>
</a>
</g>
</g>
<!-- Node1&#45;&gt;Node20 -->
<g id="edge19_Node000001_Node000020" class="edge">
<title>Node1&#45;&gt;Node20</title>
<g id="a_edge19_Node000001_Node000020"><a xlink:title=" ">
<path fill="none" stroke="#8b1a1a" d="M45.56,-791.32C52.71,-827.43 72.24,-900.62 118,-941 123.81,-946.13 130.98,-949.88 138.36,-952.61"/>
<polygon fill="#8b1a1a" stroke="#8b1a1a" points="49.04,-790.9 43.8,-781.7 42.16,-792.16 49.04,-790.9"/>
</a>
</g>
</g>
<!-- Node21 -->
<g id="Node000021" class="node">
<title>Node21</title>
<g id="a_Node000021"><a xlink:href="../../d7/d07/class_gorka_helmet_visor.html" target="_top" xlink:title=" ">
<polygon fill="white" stroke="#666666" points="229.62,-932 134.12,-932 134.12,-912 229.62,-912 229.62,-932"/>
<text text-anchor="middle" x="181.88" y="-918.5" font-family="Helvetica,sans-Serif" font-size="10.00">GorkaHelmetVisor</text>
</a>
</g>
</g>
<!-- Node1&#45;&gt;Node21 -->
<g id="edge20_Node000001_Node000021" class="edge">
<title>Node1&#45;&gt;Node21</title>
<g id="a_edge20_Node000001_Node000021"><a xlink:title=" ">
<path fill="none" stroke="#8b1a1a" d="M48.48,-791.1C58.59,-820.48 80.88,-873.44 118,-903 122.73,-906.77 128.19,-909.79 133.89,-912.21"/>
<polygon fill="#8b1a1a" stroke="#8b1a1a" points="51.9,-790.27 45.46,-781.86 45.24,-792.45 51.9,-790.27"/>
</a>
</g>
</g>
<!-- Node22 -->
<g id="Node000022" class="node">
<title>Node22</title>
<g id="a_Node000022"><a xlink:href="../../dc/d00/class_hand_saw.html" target="_top" xlink:title=" ">
<polygon fill="white" stroke="#666666" points="210.5,-894 153.25,-894 153.25,-874 210.5,-874 210.5,-894"/>
<text text-anchor="middle" x="181.88" y="-880.5" font-family="Helvetica,sans-Serif" font-size="10.00">HandSaw</text>
</a>
</g>
</g>
<!-- Node1&#45;&gt;Node22 -->
<g id="edge21_Node000001_Node000022" class="edge">
<title>Node1&#45;&gt;Node22</title>
<g id="a_edge21_Node000001_Node000022"><a xlink:title=" ">
<path fill="none" stroke="#8b1a1a" d="M53.02,-790.03C65.88,-811.61 89.12,-845.46 118,-865 128.39,-872.03 141.46,-876.52 152.99,-879.37"/>
<polygon fill="#8b1a1a" stroke="#8b1a1a" points="56.18,-788.52 48.16,-781.59 50.11,-792 56.18,-788.52"/>
</a>
</g>
</g>
<!-- Node23 -->
<g id="Node000023" class="node">
<title>Node23</title>
<g id="a_Node000023"><a xlink:href="../../d1/d03/class_handcuff_keys.html" target="_top" xlink:title=" ">
<polygon fill="white" stroke="#666666" points="219.88,-856 143.88,-856 143.88,-836 219.88,-836 219.88,-856"/>
<text text-anchor="middle" x="181.88" y="-842.5" font-family="Helvetica,sans-Serif" font-size="10.00">HandcuffKeys</text>
</a>
</g>
</g>
<!-- Node1&#45;&gt;Node23 -->
<g id="edge22_Node000001_Node000023" class="edge">
<title>Node1&#45;&gt;Node23</title>
<g id="a_edge22_Node000001_Node000023"><a xlink:title=" ">
<path fill="none" stroke="#8b1a1a" d="M61.64,-787.79C76.27,-800.25 97.24,-816.49 118,-827 125.94,-831.02 134.87,-834.35 143.46,-837.04"/>
<polygon fill="#8b1a1a" stroke="#8b1a1a" points="63.98,-785.18 54.14,-781.24 59.37,-790.46 63.98,-785.18"/>
</a>
</g>
</g>
<!-- Node24 -->
<g id="Node000024" class="node">
<title>Node24</title>
<g id="a_Node000024"><a xlink:href="../../dc/d05/class_handcuffs.html" target="_top" xlink:title=" ">
<polygon fill="white" stroke="#666666" points="211.25,-818 152.5,-818 152.5,-798 211.25,-798 211.25,-818"/>
<text text-anchor="middle" x="181.88" y="-804.5" font-family="Helvetica,sans-Serif" font-size="10.00">Handcuffs</text>
</a>
</g>
</g>
<!-- Node1&#45;&gt;Node24 -->
<g id="edge23_Node000001_Node000024" class="edge">
<title>Node1&#45;&gt;Node24</title>
<g id="a_edge23_Node000001_Node000024"><a xlink:title=" ">
<path fill="none" stroke="#8b1a1a" d="M91.37,-783.51C111.82,-789.1 134.81,-795.4 152.38,-800.2"/>
<polygon fill="#8b1a1a" stroke="#8b1a1a" points="92.34,-780.15 81.78,-780.88 90.5,-786.9 92.34,-780.15"/>
</a>
</g>
</g>
<!-- Node25 -->
<g id="Node000025" class="node">
<title>Node25</title>
<g id="a_Node000025"><a xlink:href="../../d3/d08/class_hay_hook.html" target="_top" xlink:title=" ">
<polygon fill="white" stroke="#666666" points="209.75,-780 154,-780 154,-760 209.75,-760 209.75,-780"/>
<text text-anchor="middle" x="181.88" y="-766.5" font-family="Helvetica,sans-Serif" font-size="10.00">HayHook</text>
</a>
</g>
</g>
<!-- Node1&#45;&gt;Node25 -->
<g id="edge24_Node000001_Node000025" class="edge">
<title>Node1&#45;&gt;Node25</title>
<g id="a_edge24_Node000001_Node000025"><a xlink:title=" ">
<path fill="none" stroke="#8b1a1a" d="M93.52,-770C113.89,-770 136.45,-770 153.55,-770"/>
<polygon fill="#8b1a1a" stroke="#8b1a1a" points="93.68,-766.5 83.68,-770 93.68,-773.5 93.68,-766.5"/>
</a>
</g>
</g>
<!-- Node26 -->
<g id="Node000026" class="node">
<title>Node26</title>
<g id="a_Node000026"><a xlink:href="../../d0/d01/class_iceaxe.html" target="_top" xlink:title=" ">
<polygon fill="white" stroke="#666666" points="204.12,-742 159.62,-742 159.62,-722 204.12,-722 204.12,-742"/>
<text text-anchor="middle" x="181.88" y="-728.5" font-family="Helvetica,sans-Serif" font-size="10.00">Iceaxe</text>
</a>
</g>
</g>
<!-- Node1&#45;&gt;Node26 -->
<g id="edge25_Node000001_Node000026" class="edge">
<title>Node1&#45;&gt;Node26</title>
<g id="a_edge25_Node000001_Node000026"><a xlink:title=" ">
<path fill="none" stroke="#8b1a1a" d="M91.14,-756.55C114.55,-750.15 141.33,-742.82 159.5,-737.85"/>
<polygon fill="#8b1a1a" stroke="#8b1a1a" points="90.5,-753.1 81.78,-759.12 92.34,-759.85 90.5,-753.1"/>
</a>
</g>
</g>
<!-- Node27 -->
<g id="Node000027" class="node">
<title>Node27</title>
<g id="a_Node000027"><a xlink:href="../../d6/d07/class_injection_vial.html" target="_top" xlink:title=" ">
<polygon fill="white" stroke="#666666" points="216.12,-704 147.62,-704 147.62,-684 216.12,-684 216.12,-704"/>
<text text-anchor="middle" x="181.88" y="-690.5" font-family="Helvetica,sans-Serif" font-size="10.00">InjectionVial</text>
</a>
</g>
</g>
<!-- Node1&#45;&gt;Node27 -->
<g id="edge26_Node000001_Node000027" class="edge">
<title>Node1&#45;&gt;Node27</title>
<g id="a_edge26_Node000001_Node000027"><a xlink:title=" ">
<path fill="none" stroke="#8b1a1a" d="M61.64,-752.21C76.27,-739.75 97.24,-723.51 118,-713 127.16,-708.37 137.65,-704.64 147.4,-701.76"/>
<polygon fill="#8b1a1a" stroke="#8b1a1a" points="59.37,-749.54 54.14,-758.76 63.98,-754.82 59.37,-749.54"/>
</a>
</g>
</g>
<!-- Node28 -->
<g id="Node000028" class="node">
<title>Node28</title>
<g id="a_Node000028"><a xlink:href="../../d6/d09/class_leather_sewing_kit.html" target="_top" xlink:title=" ">
<polygon fill="white" stroke="#666666" points="227.75,-666 136,-666 136,-646 227.75,-646 227.75,-666"/>
<text text-anchor="middle" x="181.88" y="-652.5" font-family="Helvetica,sans-Serif" font-size="10.00">LeatherSewingKit</text>
</a>
</g>
</g>
<!-- Node1&#45;&gt;Node28 -->
<g id="edge27_Node000001_Node000028" class="edge">
<title>Node1&#45;&gt;Node28</title>
<g id="a_edge27_Node000001_Node000028"><a xlink:title=" ">
<path fill="none" stroke="#8b1a1a" d="M53.02,-749.97C65.88,-728.39 89.12,-694.54 118,-675 123.38,-671.36 129.49,-668.4 135.72,-665.99"/>
<polygon fill="#8b1a1a" stroke="#8b1a1a" points="50.11,-748 48.16,-758.41 56.18,-751.48 50.11,-748"/>
</a>
</g>
</g>
<!-- Node29 -->
<g id="Node000029" class="node">
<title>Node29</title>
<g id="a_Node000029"><a xlink:href="../../d7/d00/class_long_wooden_stick.html" target="_top" xlink:title=" ">
<polygon fill="white" stroke="#666666" points="229.62,-628 134.12,-628 134.12,-608 229.62,-608 229.62,-628"/>
<text text-anchor="middle" x="181.88" y="-614.5" font-family="Helvetica,sans-Serif" font-size="10.00">LongWoodenStick</text>
</a>
</g>
</g>
<!-- Node1&#45;&gt;Node29 -->
<g id="edge28_Node000001_Node000029" class="edge">
<title>Node1&#45;&gt;Node29</title>
<g id="a_edge28_Node000001_Node000029"><a xlink:title=" ">
<path fill="none" stroke="#8b1a1a" d="M48.48,-748.9C58.59,-719.52 80.88,-666.56 118,-637 122.73,-633.23 128.19,-630.21 133.89,-627.79"/>
<polygon fill="#8b1a1a" stroke="#8b1a1a" points="45.24,-747.55 45.46,-758.14 51.9,-749.73 45.24,-747.55"/>
</a>
</g>
</g>
<!-- Node31 -->
<g id="Node000031" class="node">
<title>Node31</title>
<g id="a_Node000031"><a xlink:href="../../d8/d05/class_lug_wrench.html" target="_top" xlink:title=" ">
<polygon fill="white" stroke="#666666" points="214.62,-590 149.12,-590 149.12,-570 214.62,-570 214.62,-590"/>
<text text-anchor="middle" x="181.88" y="-576.5" font-family="Helvetica,sans-Serif" font-size="10.00">LugWrench</text>
</a>
</g>
</g>
<!-- Node1&#45;&gt;Node31 -->
<g id="edge30_Node000001_Node000031" class="edge">
<title>Node1&#45;&gt;Node31</title>
<g id="a_edge30_Node000001_Node000031"><a xlink:title=" ">
<path fill="none" stroke="#8b1a1a" d="M45.56,-748.68C52.71,-712.57 72.24,-639.38 118,-599 126.55,-591.46 138.01,-586.91 148.81,-584.16"/>
<polygon fill="#8b1a1a" stroke="#8b1a1a" points="42.16,-747.84 43.8,-758.3 49.04,-749.1 42.16,-747.84"/>
</a>
</g>
</g>
<!-- Node32 -->
<g id="Node000032" class="node">
<title>Node32</title>
<g id="a_Node000032"><a xlink:href="../../df/d0f/class_meat_tenderizer.html" target="_top" xlink:title=" ">
<polygon fill="white" stroke="#666666" points="223.25,-552 140.5,-552 140.5,-532 223.25,-532 223.25,-552"/>
<text text-anchor="middle" x="181.88" y="-538.5" font-family="Helvetica,sans-Serif" font-size="10.00">MeatTenderizer</text>
</a>
</g>
</g>
<!-- Node1&#45;&gt;Node32 -->
<g id="edge31_Node000001_Node000032" class="edge">
<title>Node1&#45;&gt;Node32</title>
<g id="a_edge31_Node000001_Node000032"><a xlink:title=" ">
<path fill="none" stroke="#8b1a1a" d="M43.64,-748.18C48.01,-705.9 63.61,-612.46 118,-561 124.13,-555.2 131.97,-551.17 140.02,-548.36"/>
<polygon fill="#8b1a1a" stroke="#8b1a1a" points="40.17,-747.77 42.76,-758.05 47.14,-748.4 40.17,-747.77"/>
</a>
</g>
</g>
<!-- Node33 -->
<g id="Node000033" class="node">
<title>Node33</title>
<g id="a_Node000033"><a xlink:href="../../d4/d02/class_mess_tin.html" target="_top" xlink:title=" ">
<polygon fill="white" stroke="#666666" points="208.25,-514 155.5,-514 155.5,-494 208.25,-494 208.25,-514"/>
<text text-anchor="middle" x="181.88" y="-500.5" font-family="Helvetica,sans-Serif" font-size="10.00">MessTin</text>
</a>
</g>
</g>
<!-- Node1&#45;&gt;Node33 -->
<g id="edge32_Node000001_Node000033" class="edge">
<title>Node1&#45;&gt;Node33</title>
<g id="a_edge32_Node000001_Node000033"><a xlink:title=" ">
<path fill="none" stroke="#8b1a1a" d="M42.21,-748.25C43.87,-700.56 54.63,-586.05 118,-523 127.78,-513.27 142.36,-508.49 155.02,-506.16"/>
<polygon fill="#8b1a1a" stroke="#8b1a1a" points="38.71,-748 41.98,-758.08 45.71,-748.16 38.71,-748"/>
</a>
</g>
</g>
<!-- Node34 -->
<g id="Node000034" class="node">
<title>Node34</title>
<g id="a_Node000034"><a xlink:href="../../d1/d06/class_morphine.html" target="_top" xlink:title=" ">
<polygon fill="white" stroke="#666666" points="209.75,-476 154,-476 154,-456 209.75,-456 209.75,-476"/>
<text text-anchor="middle" x="181.88" y="-462.5" font-family="Helvetica,sans-Serif" font-size="10.00">Morphine</text>
</a>
</g>
</g>
<!-- Node1&#45;&gt;Node34 -->
<g id="edge33_Node000001_Node000034" class="edge">
<title>Node1&#45;&gt;Node34</title>
<g id="a_edge33_Node000001_Node000034"><a xlink:title=" ">
<path fill="none" stroke="#8b1a1a" d="M41.14,-748.56C40.24,-696.08 45.46,-559.96 118,-485 127.28,-475.41 141.21,-470.62 153.6,-468.24"/>
<polygon fill="#8b1a1a" stroke="#8b1a1a" points="37.63,-748.35 41.41,-758.25 44.63,-748.15 37.63,-748.35"/>
</a>
</g>
</g>
<!-- Node35 -->
<g id="Node000035" class="node">
<title>Node35</title>
<g id="a_Node000035"><a xlink:href="../../d3/d0b/class_paddle.html" target="_top" xlink:title=" ">
<polygon fill="white" stroke="#666666" points="204.88,-438 158.88,-438 158.88,-418 204.88,-418 204.88,-438"/>
<text text-anchor="middle" x="181.88" y="-424.5" font-family="Helvetica,sans-Serif" font-size="10.00">Paddle</text>
</a>
</g>
</g>
<!-- Node1&#45;&gt;Node35 -->
<g id="edge34_Node000001_Node000035" class="edge">
<title>Node1&#45;&gt;Node35</title>
<g id="a_edge34_Node000001_Node000035"><a xlink:title=" ">
<path fill="none" stroke="#8b1a1a" d="M44.27,-748.48C51.54,-683.58 76.21,-491.48 118,-447 128.38,-435.95 144.95,-431.25 158.47,-429.29"/>
<polygon fill="#8b1a1a" stroke="#8b1a1a" points="40.82,-747.86 43.21,-758.18 47.78,-748.62 40.82,-747.86"/>
</a>
</g>
</g>
<!-- Node36 -->
<g id="Node000036" class="node">
<title>Node36</title>
<g id="a_Node000036"><a xlink:href="../../d0/d0a/class_pen___color_base.html" target="_top" xlink:title=" ">
<polygon fill="#fff0f0" stroke="red" points="223.62,-400 140.12,-400 140.12,-380 223.62,-380 223.62,-400"/>
<text text-anchor="middle" x="181.88" y="-386.5" font-family="Helvetica,sans-Serif" font-size="10.00">Pen_ColorBase</text>
</a>
</g>
</g>
<!-- Node1&#45;&gt;Node36 -->
<g id="edge35_Node000001_Node000036" class="edge">
<title>Node1&#45;&gt;Node36</title>
<g id="a_edge35_Node000001_Node000036"><a xlink:title=" ">
<path fill="none" stroke="#8b1a1a" d="M43.71,-748.28C49.65,-678.18 71.63,-459.54 118,-409 123.78,-402.7 131.57,-398.46 139.7,-395.61"/>
<polygon fill="#8b1a1a" stroke="#8b1a1a" points="40.24,-747.81 42.91,-758.06 47.21,-748.38 40.24,-747.81"/>
</a>
</g>
</g>
<!-- Node41 -->
<g id="Node000041" class="node">
<title>Node41</title>
<g id="a_Node000041"><a xlink:href="../../dc/d0d/class_saline_bag.html" target="_top" xlink:title=" ">
<polygon fill="white" stroke="#666666" points="212,-362 151.75,-362 151.75,-342 212,-342 212,-362"/>
<text text-anchor="middle" x="181.88" y="-348.5" font-family="Helvetica,sans-Serif" font-size="10.00">SalineBag</text>
</a>
</g>
</g>
<!-- Node1&#45;&gt;Node41 -->
<g id="edge39_Node000001_Node000041" class="edge">
<title>Node1&#45;&gt;Node41</title>
<g id="a_edge39_Node000001_Node000041"><a xlink:title=" ">
<path fill="none" stroke="#8b1a1a" d="M43.22,-748.46C47.89,-673.83 66.94,-427.73 118,-371 126.47,-361.59 139.41,-356.77 151.36,-354.33"/>
<polygon fill="#8b1a1a" stroke="#8b1a1a" points="39.75,-747.92 42.65,-758.11 46.74,-748.34 39.75,-747.92"/>
</a>
</g>
</g>
<!-- Node42 -->
<g id="Node000042" class="node">
<title>Node42</title>
<g id="a_Node000042"><a xlink:href="../../d6/d0e/class_saline_bag_i_v.html" target="_top" xlink:title=" ">
<polygon fill="white" stroke="#666666" points="216.5,-324 147.25,-324 147.25,-304 216.5,-304 216.5,-324"/>
<text text-anchor="middle" x="181.88" y="-310.5" font-family="Helvetica,sans-Serif" font-size="10.00">SalineBagIV</text>
</a>
</g>
</g>
<!-- Node1&#45;&gt;Node42 -->
<g id="edge40_Node000001_Node000042" class="edge">
<title>Node1&#45;&gt;Node42</title>
<g id="a_edge40_Node000001_Node000042"><a xlink:title=" ">
<path fill="none" stroke="#8b1a1a" d="M42.83,-748.5C46.32,-669.41 62.27,-395.94 118,-333 125.41,-324.63 136.36,-319.89 147.05,-317.22"/>
<polygon fill="#8b1a1a" stroke="#8b1a1a" points="39.34,-748.18 42.42,-758.32 46.34,-748.48 39.34,-748.18"/>
</a>
</g>
</g>
<!-- Node43 -->
<g id="Node000043" class="node">
<title>Node43</title>
<g id="a_Node000043"><a xlink:href="../../d5/d0d/class_seed_base.html" target="_top" xlink:title=" ">
<polygon fill="#fff0f0" stroke="red" points="212.38,-286 151.38,-286 151.38,-266 212.38,-266 212.38,-286"/>
<text text-anchor="middle" x="181.88" y="-272.5" font-family="Helvetica,sans-Serif" font-size="10.00">SeedBase</text>
</a>
</g>
</g>
<!-- Node1&#45;&gt;Node43 -->
<g id="edge41_Node000001_Node000043" class="edge">
<title>Node1&#45;&gt;Node43</title>
<g id="a_edge41_Node000001_Node000043"><a xlink:title=" ">
<path fill="none" stroke="#8b1a1a" d="M42.51,-748.27C44.9,-664.56 57.63,-364.11 118,-295 126.25,-285.55 139.02,-280.72 150.9,-278.27"/>
<polygon fill="#8b1a1a" stroke="#8b1a1a" points="39.01,-748.18 42.25,-758.27 46.01,-748.36 39.01,-748.18"/>
</a>
</g>
</g>
<!-- Node50 -->
<g id="Node000050" class="node">
<title>Node50</title>
<g id="a_Node000050"><a xlink:href="../../df/d0c/class_sewing_kit.html" target="_top" xlink:title=" ">
<polygon fill="white" stroke="#666666" points="211.62,-248 152.12,-248 152.12,-228 211.62,-228 211.62,-248"/>
<text text-anchor="middle" x="181.88" y="-234.5" font-family="Helvetica,sans-Serif" font-size="10.00">SewingKit</text>
</a>
</g>
</g>
<!-- Node1&#45;&gt;Node50 -->
<g id="edge42_Node000001_Node000050" class="edge">
<title>Node1&#45;&gt;Node50</title>
<g id="a_edge42_Node000001_Node000050"><a xlink:title=" ">
<path fill="none" stroke="#8b1a1a" d="M42.22,-748.52C43.55,-661.02 52.87,-332.43 118,-257 126.42,-247.25 139.66,-242.4 151.82,-240.03"/>
<polygon fill="#8b1a1a" stroke="#8b1a1a" points="38.72,-748.27 42.09,-758.31 45.72,-748.36 38.72,-748.27"/>
</a>
</g>
</g>
<!-- Node51 -->
<g id="Node000051" class="node">
<title>Node51</title>
<g id="a_Node000051"><a xlink:href="../../df/d0a/class_spear.html" target="_top" xlink:title=" ">
<polygon fill="#fff0f0" stroke="red" points="202.62,-210 161.12,-210 161.12,-190 202.62,-190 202.62,-210"/>
<text text-anchor="middle" x="181.88" y="-196.5" font-family="Helvetica,sans-Serif" font-size="10.00">Spear</text>
</a>
</g>
</g>
<!-- Node1&#45;&gt;Node51 -->
<g id="edge43_Node000001_Node000051" class="edge">
<title>Node1&#45;&gt;Node51</title>
<g id="a_edge43_Node000001_Node000051"><a xlink:title=" ">
<path fill="none" stroke="#8b1a1a" d="M41.98,-748.12C42.33,-655.98 48.26,-300.59 118,-219 128.52,-206.69 146.72,-202.19 160.83,-200.62"/>
<polygon fill="#8b1a1a" stroke="#8b1a1a" points="38.48,-748.01 41.96,-758.01 45.48,-748.02 38.48,-748.01"/>
</a>
</g>
</g>
<!-- Node54 -->
<g id="Node000054" class="node">
<title>Node54</title>
<g id="a_Node000054"><a xlink:href="../../db/d04/class_splint.html" target="_top" xlink:title=" ">
<polygon fill="white" stroke="#666666" points="202.25,-172 161.5,-172 161.5,-152 202.25,-152 202.25,-172"/>
<text text-anchor="middle" x="181.88" y="-158.5" font-family="Helvetica,sans-Serif" font-size="10.00">Splint</text>
</a>
</g>
</g>
<!-- Node1&#45;&gt;Node54 -->
<g id="edge44_Node000001_Node000054" class="edge">
<title>Node1&#45;&gt;Node54</title>
<g id="a_edge44_Node000001_Node000054"><a xlink:title=" ">
<path fill="none" stroke="#8b1a1a" d="M41.76,-748.46C41.16,-653.01 43.45,-269 118,-181 128.54,-168.56 146.92,-164.09 161.1,-162.56"/>
<polygon fill="#8b1a1a" stroke="#8b1a1a" points="38.26,-748.25 41.85,-758.22 45.26,-748.19 38.26,-748.25"/>
</a>
</g>
</g>
<!-- Node55 -->
<g id="Node000055" class="node">
<title>Node55</title>
<g id="a_Node000055"><a xlink:href="../../d4/d01/class_start_kit_i_v.html" target="_top" xlink:title=" ">
<polygon fill="white" stroke="#666666" points="210.88,-134 152.88,-134 152.88,-114 210.88,-114 210.88,-134"/>
<text text-anchor="middle" x="181.88" y="-120.5" font-family="Helvetica,sans-Serif" font-size="10.00">StartKitIV</text>
</a>
</g>
</g>
<!-- Node1&#45;&gt;Node55 -->
<g id="edge45_Node000001_Node000055" class="edge">
<title>Node1&#45;&gt;Node55</title>
<g id="a_edge45_Node000001_Node000055"><a xlink:title=" ">
<path fill="none" stroke="#8b1a1a" d="M41.57,-748.34C40.06,-648.94 38.75,-237.28 118,-143 126.51,-132.87 140.22,-128.02 152.67,-125.75"/>
<polygon fill="#8b1a1a" stroke="#8b1a1a" points="38.07,-748.11 41.74,-758.04 45.07,-747.99 38.07,-748.11"/>
</a>
</g>
</g>
<!-- Node56 -->
<g id="Node000056" class="node">
<title>Node56</title>
<g id="a_Node000056"><a xlink:href="../../d2/d06/class_weapon_cleaning_kit.html" target="_top" xlink:title=" ">
<polygon fill="white" stroke="#666666" points="232.62,-96 131.12,-96 131.12,-76 232.62,-76 232.62,-96"/>
<text text-anchor="middle" x="181.88" y="-82.5" font-family="Helvetica,sans-Serif" font-size="10.00">WeaponCleaningKit</text>
</a>
</g>
</g>
<!-- Node1&#45;&gt;Node56 -->
<g id="edge46_Node000001_Node000056" class="edge">
<title>Node1&#45;&gt;Node56</title>
<g id="a_edge46_Node000001_Node000056"><a xlink:title=" ">
<path fill="none" stroke="#8b1a1a" d="M43.06,-748.66C48.61,-640.46 75.69,-155.68 118,-105 121.51,-100.8 125.91,-97.5 130.75,-94.92"/>
<polygon fill="#8b1a1a" stroke="#8b1a1a" points="39.57,-748.26 42.57,-758.42 46.57,-748.61 39.57,-748.26"/>
</a>
</g>
</g>
<!-- Node57 -->
<g id="Node000057" class="node">
<title>Node57</title>
<g id="a_Node000057"><a xlink:href="../../d5/d04/class_whetstone.html" target="_top" xlink:title=" ">
<polygon fill="white" stroke="#666666" points="213.5,-58 150.25,-58 150.25,-38 213.5,-38 213.5,-58"/>
<text text-anchor="middle" x="181.88" y="-44.5" font-family="Helvetica,sans-Serif" font-size="10.00">Whetstone</text>
</a>
</g>
</g>
<!-- Node1&#45;&gt;Node57 -->
<g id="edge47_Node000001_Node000057" class="edge">
<title>Node1&#45;&gt;Node57</title>
<g id="a_edge47_Node000001_Node000057"><a xlink:title=" ">
<path fill="none" stroke="#8b1a1a" d="M42.94,-748.15C48,-635.2 73.38,-120.79 118,-67 125.86,-57.52 138.28,-52.66 150.01,-50.2"/>
<polygon fill="#8b1a1a" stroke="#8b1a1a" points="39.45,-747.96 42.5,-758.11 46.44,-748.27 39.45,-747.96"/>
</a>
</g>
</g>
<!-- Node58 -->
<g id="Node000058" class="node">
<title>Node58</title>
<g id="a_Node000058"><a xlink:href="../../d8/d0a/class_wrench.html" target="_top" xlink:title=" ">
<polygon fill="white" stroke="#666666" points="206.75,-20 157,-20 157,0 206.75,0 206.75,-20"/>
<text text-anchor="middle" x="181.88" y="-6.5" font-family="Helvetica,sans-Serif" font-size="10.00">Wrench</text>
</a>
</g>
</g>
<!-- Node1&#45;&gt;Node58 -->
<g id="edge48_Node000001_Node000058" class="edge">
<title>Node1&#45;&gt;Node58</title>
<g id="a_edge48_Node000001_Node000058"><a xlink:title=" ">
<path fill="none" stroke="#8b1a1a" d="M42.8,-748.43C47.31,-632.44 70.95,-86.03 118,-29 127.36,-17.65 143.25,-12.92 156.72,-11.01"/>
<polygon fill="#8b1a1a" stroke="#8b1a1a" points="39.32,-747.97 42.44,-758.1 46.31,-748.24 39.32,-747.97"/>
</a>
</g>
</g>
<!-- Node10 -->
<g id="Node000010" class="node">
<title>Node10</title>
<g id="a_Node000010"><a xlink:href="../../d3/d09/class_cigarette_pack___chernamorka.html" target="_top" xlink:title=" ">
<polygon fill="white" stroke="#666666" points="422.25,-1312 281.75,-1312 281.75,-1292 422.25,-1292 422.25,-1312"/>
<text text-anchor="middle" x="352" y="-1298.5" font-family="Helvetica,sans-Serif" font-size="10.00">CigarettePack_Chernamorka</text>
</a>
</g>
</g>
<!-- Node9&#45;&gt;Node10 -->
<g id="edge9_Node000009_Node000010" class="edge">
<title>Node9&#45;&gt;Node10</title>
<g id="a_edge9_Node000009_Node000010"><a xlink:title=" ">
<path fill="none" stroke="#8b1a1a" d="M240.32,-1276.98C261.35,-1281.74 284.85,-1287.05 304.77,-1291.55"/>
<polygon fill="#8b1a1a" stroke="#8b1a1a" points="241.26,-1273.61 230.74,-1274.82 239.72,-1280.44 241.26,-1273.61"/>
</a>
</g>
</g>
<!-- Node11 -->
<g id="Node000011" class="node">
<title>Node11</title>
<g id="a_Node000011"><a xlink:href="../../d6/d06/class_cigarette_pack___merkur.html" target="_top" xlink:title=" ">
<polygon fill="white" stroke="#666666" points="408.38,-1274 295.62,-1274 295.62,-1254 408.38,-1254 408.38,-1274"/>
<text text-anchor="middle" x="352" y="-1260.5" font-family="Helvetica,sans-Serif" font-size="10.00">CigarettePack_Merkur</text>
</a>
</g>
</g>
<!-- Node9&#45;&gt;Node11 -->
<g id="edge10_Node000009_Node000011" class="edge">
<title>Node9&#45;&gt;Node11</title>
<g id="a_edge10_Node000009_Node000011"><a xlink:title=" ">
<path fill="none" stroke="#8b1a1a" d="M257.12,-1264C269.94,-1264 283.08,-1264 295.3,-1264"/>
<polygon fill="#8b1a1a" stroke="#8b1a1a" points="257.47,-1260.5 247.47,-1264 257.47,-1267.5 257.47,-1260.5"/>
</a>
</g>
</g>
<!-- Node12 -->
<g id="Node000012" class="node">
<title>Node12</title>
<g id="a_Node000012"><a xlink:href="../../d5/d0e/class_cigarette_pack___partyzanka.html" target="_top" xlink:title=" ">
<polygon fill="white" stroke="#666666" points="418.12,-1236 285.88,-1236 285.88,-1216 418.12,-1216 418.12,-1236"/>
<text text-anchor="middle" x="352" y="-1222.5" font-family="Helvetica,sans-Serif" font-size="10.00">CigarettePack_Partyzanka</text>
</a>
</g>
</g>
<!-- Node9&#45;&gt;Node12 -->
<g id="edge11_Node000009_Node000012" class="edge">
<title>Node9&#45;&gt;Node12</title>
<g id="a_edge11_Node000009_Node000012"><a xlink:title=" ">
<path fill="none" stroke="#8b1a1a" d="M240.32,-1251.02C261.35,-1246.26 284.85,-1240.95 304.77,-1236.45"/>
<polygon fill="#8b1a1a" stroke="#8b1a1a" points="239.72,-1247.56 230.74,-1253.18 241.26,-1254.39 239.72,-1247.56"/>
</a>
</g>
</g>
<!-- Node30 -->
<g id="Node000030" class="node">
<title>Node30</title>
<g id="a_Node000030"><a xlink:href="../../dd/d0a/class_sharp_wooden_stick.html" target="_top" xlink:title=" ">
<polygon fill="white" stroke="#666666" points="402,-628 302,-628 302,-608 402,-608 402,-628"/>
<text text-anchor="middle" x="352" y="-614.5" font-family="Helvetica,sans-Serif" font-size="10.00">SharpWoodenStick</text>
</a>
</g>
</g>
<!-- Node29&#45;&gt;Node30 -->
<g id="edge29_Node000029_Node000030" class="edge">
<title>Node29&#45;&gt;Node30</title>
<g id="a_edge29_Node000029_Node000030"><a xlink:title=" ">
<path fill="none" stroke="#8b1a1a" d="M241.07,-618C260.86,-618 282.77,-618 301.78,-618"/>
<polygon fill="#8b1a1a" stroke="#8b1a1a" points="241.22,-614.5 231.22,-618 241.22,-621.5 241.22,-614.5"/>
</a>
</g>
</g>
<!-- Node37 -->
<g id="Node000037" class="node">
<title>Node37</title>
<g id="a_Node000037"><a xlink:href="../../d9/d06/class_pen___black.html" target="_top" xlink:title=" ">
<polygon fill="white" stroke="#666666" points="383.62,-438 320.38,-438 320.38,-418 383.62,-418 383.62,-438"/>
<text text-anchor="middle" x="352" y="-424.5" font-family="Helvetica,sans-Serif" font-size="10.00">Pen_Black</text>
</a>
</g>
</g>
<!-- Node36&#45;&gt;Node37 -->
<g id="edge36_Node000036_Node000037" class="edge">
<title>Node36&#45;&gt;Node37</title>
<g id="a_edge36_Node000036_Node000037"><a xlink:title=" ">
<path fill="none" stroke="#8b1a1a" d="M235.16,-401.82C263.01,-408.11 296.31,-415.64 320.05,-421"/>
<polygon fill="#8b1a1a" stroke="#8b1a1a" points="236,-398.42 225.48,-399.63 234.46,-405.25 236,-398.42"/>
</a>
</g>
</g>
<!-- Node38 -->
<g id="Node000038" class="node">
<title>Node38</title>
<g id="a_Node000038"><a xlink:href="../../d1/d08/class_pen___blue.html" target="_top" xlink:title=" ">
<polygon fill="white" stroke="#666666" points="381,-400 323,-400 323,-380 381,-380 381,-400"/>
<text text-anchor="middle" x="352" y="-386.5" font-family="Helvetica,sans-Serif" font-size="10.00">Pen_Blue</text>
</a>
</g>
</g>
<!-- Node36&#45;&gt;Node38 -->
<g id="edge37_Node000036_Node000038" class="edge">
<title>Node36&#45;&gt;Node38</title>
<g id="a_edge37_Node000036_Node000038"><a xlink:title=" ">
<path fill="none" stroke="#8b1a1a" d="M235.16,-390C264.05,-390 298.81,-390 322.66,-390"/>
<polygon fill="#8b1a1a" stroke="#8b1a1a" points="235.52,-386.5 225.52,-390 235.52,-393.5 235.52,-386.5"/>
</a>
</g>
</g>
<!-- Node39 -->
<g id="Node000039" class="node">
<title>Node39</title>
<g id="a_Node000039"><a xlink:href="../../dd/d05/class_pen___green.html" target="_top" xlink:title=" ">
<polygon fill="white" stroke="#666666" points="384.38,-362 319.62,-362 319.62,-342 384.38,-342 384.38,-362"/>
<text text-anchor="middle" x="352" y="-348.5" font-family="Helvetica,sans-Serif" font-size="10.00">Pen_Green</text>
</a>
</g>
</g>
<!-- Node36&#45;&gt;Node39 -->
<g id="edge38_Node000036_Node000039" class="edge">
<title>Node36&#45;&gt;Node39</title>
<g id="a_edge38_Node000036_Node000039"><a xlink:title=" ">
<path fill="none" stroke="#8b1a1a" d="M235.05,-378.21C262.61,-371.98 295.54,-364.54 319.25,-359.18"/>
<polygon fill="#8b1a1a" stroke="#8b1a1a" points="234.46,-374.75 225.48,-380.37 236,-381.58 234.46,-374.75"/>
</a>
</g>
</g>
</g>
</svg>

<g id="navigator" transform="translate(0 0)" fill="#404254">
  <rect fill="#f2f5e9" fill-opacity="0.5" stroke="#606060" stroke-width=".5" x="0" y="0" width="60" height="60"/>
  <use id="zoomplus" xlink:href="#zoomPlus" x="17" y="9" onmousedown="handleZoom(evt,'in')"/>
  <use id="zoomminus" xlink:href="#zoomMin" x="42" y="9" onmousedown="handleZoom(evt,'out')"/>
  <use id="reset" xlink:href="#resetDef" x="30" y="36" onmousedown="handleReset()"/>
   <use id="arrowup" xlink:href="#arrowUp" x="0" y="0" onmousedown="handlePan(0,-1)"/>
  <use id="arrowright" xlink:href="#arrowRight" x="0" y="0" onmousedown="handlePan(1,0)"/>
  <use id="arrowdown" xlink:href="#arrowDown" x="0" y="0" onmousedown="handlePan(0,1)"/>
  <use id="arrowleft" xlink:href="#arrowLeft" x="0" y="0" onmousedown="handlePan(-1,0)"/>
</g>
<svg viewBox="0 0 15 15" width="100%" height="30px" preserveAspectRatio="xMaxYMin meet">
 <g id="arrow_out" transform="scale(0.3 0.3)">
  <a xlink:href="class_inventory___base__inherit__graph_org.svg" target="_base">
   <rect id="button" ry="5" rx="5" y="6" x="6" height="38" width="38"
        fill="#f2f5e9" fill-opacity="0.5" stroke="#606060" stroke-width="1.0"/>
   <path id="arrow"
     d="M 11.500037,31.436501 C 11.940474,20.09759 22.043105,11.32322 32.158766,21.979434 L 37.068811,17.246167 C 37.068811,17.246167 37.088388,32 37.088388,32 L 22.160133,31.978069 C 22.160133,31.978069 26.997745,27.140456 26.997745,27.140456 C 18.528582,18.264221 13.291696,25.230495 11.500037,31.436501 z"
     style="fill:#404040;"/>
  </a>
 </g>
</svg>

<style type='text/css'>
<![CDATA[
[data-mouse-over-selected='false'] { opacity: 0.7; }
[data-mouse-over-selected='true']  { opacity: 1.0; }
]]>
</style>
<script type="application/ecmascript"><![CDATA[
document.addEventListener('DOMContentLoaded', (event) => {
  highlightEdges();
  highlightAdjacentNodes();
});
]]></script>
</svg>
