<?xml version="1.0" encoding="UTF-8" standalone="no"?>
<!DOCTYPE svg PUBLIC "-//W3C//DTD SVG 1.1//EN"
 "http://www.w3.org/Graphics/SVG/1.1/DTD/svg11.dtd">
<!-- Generated by graphviz version 11.0.0 (20240428.1522)
 -->
<!-- Title: ActionBuildShelter Pages: 1 -->
<!--zoomable 584 -->

<svg id="main" version="1.1" xmlns="http://www.w3.org/2000/svg" xmlns:xlink="http://www.w3.org/1999/xlink" xml:space="preserve" onload="init(evt)">
<style type="text/css"><![CDATA[
.node, .edge {opacity: 0.7;}
.node.selected, .edge.selected {opacity: 1;}
.edge:hover path { stroke: red; }
.edge:hover polygon { stroke: red; fill: red; }
]]></style>

<defs>
  <circle id="rim" cx="0" cy="0" r="7"/>
  <circle id="rim2" cx="0" cy="0" r="3.5"/>
  <g id="zoomPlus">
    <use xlink:href="#rim" fill="#404040"><set attributeName="fill" to="#808080" begin="zoomplus.mouseover" end="zoomplus.mouseout"/></use>
    <path d="M-4,0h8M0,-4v8" fill="none" stroke="white" stroke-width="1.5" pointer-events="none"/>
  </g>
  <g id="zoomMin">
    <use xlink:href="#rim" fill="#404040"><set attributeName="fill" to="#808080" begin="zoomminus.mouseover" end="zoomminus.mouseout"/></use>
    <path d="M-4,0h8" fill="none" stroke="white" stroke-width="1.5" pointer-events="none"/>
  </g>
  <g id="arrowUp" transform="translate(30 24)">
    <use xlink:href="#rim"/>
    <path pointer-events="none" fill="none" stroke="white" stroke-width="1.5" d="M0,-3.0v7 M-2.5,-0.5L0,-3.0L2.5,-0.5"/>
  </g>
  <g id="arrowRight" transform="rotate(90) translate(36 -43)">
    <use xlink:href="#rim"/>
    <path pointer-events="none" fill="none" stroke="white" stroke-width="1.5" d="M0,-3.0v7 M-2.5,-0.5L0,-3.0L2.5,-0.5"/>
  </g>
  <g id="arrowDown" transform="rotate(180) translate(-30 -48)">
    <use xlink:href="#rim"/>
    <path pointer-events="none" fill="none" stroke="white" stroke-width="1.5" d="M0,-3.0v7 M-2.5,-0.5L0,-3.0L2.5,-0.5"/>
  </g>
  <g id="arrowLeft" transform="rotate(270) translate(-36 17)">
    <use xlink:href="#rim"/>
    <path pointer-events="none" fill="none" stroke="white" stroke-width="1.5" d="M0,-3.0v7 M-2.5,-0.5L0,-3.0L2.5,-0.5"/>
  </g>
  <g id="resetDef">
    <use xlink:href="#rim2" fill="#404040"><set attributeName="fill" to="#808080" begin="reset.mouseover" end="reset.mouseout"/></use>
  </g>
</defs>
<script type="application/ecmascript">
var viewWidth = 826;
var viewHeight = 584;
var sectionId = 'dynsection-1';
</script>
<script type="application/ecmascript" xlink:href="../../svg.min.js"/>
<svg id="graph" class="graph">
<g id="viewport">
<title>ActionBuildShelter</title>
<!-- Node1 -->
<g id="Node000001" class="node">
<title>Node1</title>
<g id="a_Node000001"><a xlink:title=" ">
<polygon fill="#999999" stroke="#666666" points="817.75,-512.17 721.5,-512.17 721.5,-492.17 817.75,-492.17 817.75,-512.17"/>
<text text-anchor="middle" x="769.62" y="-498.67" font-family="Helvetica,sans-Serif" font-size="10.00">ActionBuildShelter</text>
</a>
</g>
</g>
<!-- Node2 -->
<g id="Node000002" class="node">
<title>Node2</title>
<g id="a_Node000002"><a xlink:href="../../d6/d0f/class_action_continuous_base.html" target="_top" xlink:title=" ">
<polygon fill="white" stroke="#666666" points="598.5,-576.17 483.5,-576.17 483.5,-556.17 598.5,-556.17 598.5,-576.17"/>
<text text-anchor="middle" x="541" y="-562.67" font-family="Helvetica,sans-Serif" font-size="10.00">ActionContinuousBase</text>
</a>
</g>
</g>
<!-- Node2&#45;&gt;Node1 -->
<g id="edge1_Node000001_Node000002" class="edge">
<title>Node2&#45;&gt;Node1</title>
<g id="a_edge1_Node000001_Node000002"><a xlink:title=" ">
<path fill="none" stroke="#8b1a1a" d="M590.05,-552.6C632.41,-540.64 693.22,-523.47 731.81,-512.57"/>
<polygon fill="#8b1a1a" stroke="#8b1a1a" points="589.3,-549.18 580.63,-555.27 591.2,-555.92 589.3,-549.18"/>
</a>
</g>
</g>
<!-- Node3 -->
<g id="Node000003" class="node">
<title>Node3</title>
<g id="a_Node000003"><a xlink:href="../../d7/d04/class_animated_action_base.html" target="_top" xlink:title=" ">
<polygon fill="white" stroke="#666666" points="308.75,-562.17 201.25,-562.17 201.25,-542.17 308.75,-542.17 308.75,-562.17"/>
<text text-anchor="middle" x="255" y="-548.67" font-family="Helvetica,sans-Serif" font-size="10.00">AnimatedActionBase</text>
</a>
</g>
</g>
<!-- Node3&#45;&gt;Node2 -->
<g id="edge2_Node000002_Node000003" class="edge">
<title>Node3&#45;&gt;Node2</title>
<g id="a_edge2_Node000002_Node000003"><a xlink:title=" ">
<path fill="none" stroke="#8b1a1a" d="M320.51,-555.35C369.53,-557.77 436.3,-561.06 483.28,-563.38"/>
<polygon fill="#8b1a1a" stroke="#8b1a1a" points="320.76,-551.86 310.6,-554.86 320.41,-558.85 320.76,-551.86"/>
</a>
</g>
</g>
<!-- Node4 -->
<g id="Node000004" class="node">
<title>Node4</title>
<g id="a_Node000004"><a xlink:title=" ">
<polygon fill="white" stroke="#666666" points="66.25,-562.17 0,-562.17 0,-542.17 66.25,-542.17 66.25,-562.17"/>
<text text-anchor="middle" x="33.12" y="-548.67" font-family="Helvetica,sans-Serif" font-size="10.00">ActionBase</text>
</a>
</g>
</g>
<!-- Node4&#45;&gt;Node3 -->
<g id="edge3_Node000003_Node000004" class="edge">
<title>Node4&#45;&gt;Node3</title>
<g id="a_edge3_Node000003_Node000004"><a xlink:title=" ">
<path fill="none" stroke="#8b1a1a" d="M77.98,-552.17C113.37,-552.17 163.3,-552.17 200.95,-552.17"/>
<polygon fill="#8b1a1a" stroke="#8b1a1a" points="78.08,-548.67 68.08,-552.17 78.08,-555.67 78.08,-548.67"/>
</a>
</g>
</g>
<!-- Node5 -->
<g id="Node000005" class="node">
<title>Node5</title>
<g id="a_Node000005"><a xlink:href="../../db/d06/class_param3.html" target="_top" xlink:title=" ">
<polygon fill="white" stroke="#666666" points="58,-388.17 8.25,-388.17 8.25,-368.17 58,-368.17 58,-388.17"/>
<text text-anchor="middle" x="33.12" y="-374.67" font-family="Helvetica,sans-Serif" font-size="10.00">Param3</text>
</a>
</g>
</g>
<!-- Node5&#45;&gt;Node3 -->
<g id="edge4_Node000003_Node000005" class="edge">
<title>Node5&#45;&gt;Node3</title>
<g id="a_edge4_Node000003_Node000005"><a xlink:title=" ">
<path fill="none" stroke="#9a32cd" stroke-dasharray="5,2" d="M50.3,-396.52C78.4,-427.52 139.21,-490.7 201.25,-530.17 208.28,-534.65 216.38,-538.55 224.08,-541.78"/>
<polygon fill="#9a32cd" stroke="#9a32cd" points="53.25,-394.58 43.97,-389.47 48.04,-399.25 53.25,-394.58"/>
</a>
</g>
<text text-anchor="middle" x="133.75" y="-530.67" font-family="Helvetica,sans-Serif" font-size="10.00" fill="grey"> m_CommandUID</text>
<text text-anchor="middle" x="133.75" y="-518.67" font-family="Helvetica,sans-Serif" font-size="10.00" fill="grey">m_CommandUIDProne</text>
</g>
<!-- Node7 -->
<g id="Node000007" class="node">
<title>Node7</title>
<g id="a_Node000007"><a xlink:href="../../d9/d09/class_effect_sound.html" target="_top" xlink:title="Wrapper class for managing sound through SEffectManager.">
<polygon fill="white" stroke="#666666" points="575.25,-223.17 506.75,-223.17 506.75,-203.17 575.25,-203.17 575.25,-223.17"/>
<text text-anchor="middle" x="541" y="-209.67" font-family="Helvetica,sans-Serif" font-size="10.00">EffectSound</text>
</a>
</g>
</g>
<!-- Node5&#45;&gt;Node7 -->
<g id="edge17_Node000007_Node000005" class="edge">
<title>Node5&#45;&gt;Node7</title>
<g id="a_edge17_Node000007_Node000005"><a xlink:title=" ">
<path fill="none" stroke="#9a32cd" stroke-dasharray="5,2" d="M69.43,-369.77C103.11,-362.05 155.38,-350.81 201.25,-344.17 259.59,-335.73 414.55,-350.81 465.5,-321.17 504.68,-298.38 527.97,-245.76 536.39,-223.46"/>
<polygon fill="#9a32cd" stroke="#9a32cd" points="68.76,-366.34 59.8,-372 70.34,-373.15 68.76,-366.34"/>
</a>
</g>
<text text-anchor="middle" x="255" y="-346.67" font-family="Helvetica,sans-Serif" font-size="10.00" fill="grey"> m_SoundDoppler</text>
</g>
<!-- Node6 -->
<g id="Node000006" class="node">
<title>Node6</title>
<g id="a_Node000006"><a xlink:href="../../d5/d02/classstring.html" target="_top" xlink:title=" ">
<polygon fill="white" stroke="#666666" points="275,-491.17 235,-491.17 235,-471.17 275,-471.17 275,-491.17"/>
<text text-anchor="middle" x="255" y="-477.67" font-family="Helvetica,sans-Serif" font-size="10.00">string</text>
</a>
</g>
</g>
<!-- Node6&#45;&gt;Node1 -->
<g id="edge5_Node000001_Node000006" class="edge">
<title>Node6&#45;&gt;Node1</title>
<g id="a_edge5_Node000001_Node000006"><a xlink:title=" ">
<path fill="none" stroke="#9a32cd" stroke-dasharray="5,2" d="M286.66,-484.66C299.09,-485.95 313.59,-487.31 326.75,-488.17 470.16,-497.53 640.19,-500.69 721.17,-501.71"/>
<polygon fill="#9a32cd" stroke="#9a32cd" points="287.31,-481.21 277,-483.62 286.56,-488.17 287.31,-481.21"/>
</a>
</g>
<text text-anchor="middle" x="541" y="-525.67" font-family="Helvetica,sans-Serif" font-size="10.00" fill="grey"> m_SoundsetBuildFinish</text>
<text text-anchor="middle" x="541" y="-513.67" font-family="Helvetica,sans-Serif" font-size="10.00" fill="grey">m_SoundsetBuildLoop</text>
<text text-anchor="middle" x="541" y="-501.67" font-family="Helvetica,sans-Serif" font-size="10.00" fill="grey">m_SoundsetBuildStart</text>
</g>
<!-- Node6&#45;&gt;Node6 -->
<g id="edge6_Node000006_Node000006" class="edge">
<title>Node6&#45;&gt;Node6</title>
<g id="a_edge6_Node000006_Node000006"><a xlink:title=" ">
<path fill="none" stroke="#9a32cd" stroke-dasharray="5,2" d="M233.57,-502.62C236.33,-506.47 243.47,-509.17 255,-509.17 276.08,-509.17 282.5,-500.15 274.27,-491.51"/>
<polygon fill="#9a32cd" stroke="#9a32cd" points="236.97,-503.48 235.44,-493 230.1,-502.14 236.97,-503.48"/>
</a>
</g>
<text text-anchor="middle" x="255" y="-511.67" font-family="Helvetica,sans-Serif" font-size="10.00" fill="grey"> Empty</text>
</g>
<!-- Node6&#45;&gt;Node7 -->
<g id="edge13_Node000007_Node000006" class="edge">
<title>Node6&#45;&gt;Node7</title>
<g id="a_edge13_Node000007_Node000006"><a xlink:title=" ">
<path fill="none" stroke="#9a32cd" stroke-dasharray="5,2" d="M286.63,-478.9C341.49,-474.55 452.08,-464.51 465.5,-453.17 537.99,-391.95 541.08,-261.52 540.37,-223.67"/>
<polygon fill="#9a32cd" stroke="#9a32cd" points="286.41,-475.4 276.71,-479.66 286.95,-482.38 286.41,-475.4"/>
</a>
</g>
<text text-anchor="middle" x="396.12" y="-476.67" font-family="Helvetica,sans-Serif" font-size="10.00" fill="grey"> m_SoundSetName</text>
</g>
<!-- Node7&#45;&gt;Node1 -->
<g id="edge7_Node000001_Node000007" class="edge">
<title>Node7&#45;&gt;Node1</title>
<g id="a_edge7_Node000001_Node000007"><a xlink:title=" ">
<path fill="none" stroke="#9a32cd" stroke-dasharray="5,2" d="M557.01,-232.31C600.73,-288.07 726.98,-449.07 760.42,-491.71"/>
<polygon fill="#9a32cd" stroke="#9a32cd" points="559.92,-230.36 551,-224.65 554.42,-234.68 559.92,-230.36"/>
</a>
</g>
<text text-anchor="middle" x="660" y="-418.67" font-family="Helvetica,sans-Serif" font-size="10.00" fill="grey"> m_BuildLoopSound</text>
</g>
<!-- Node8 -->
<g id="Node000008" class="node">
<title>Node8</title>
<g id="a_Node000008"><a xlink:title=" ">
<polygon fill="white" stroke="#666666" points="275.38,-207.17 234.62,-207.17 234.62,-187.17 275.38,-187.17 275.38,-207.17"/>
<text text-anchor="middle" x="255" y="-193.67" font-family="Helvetica,sans-Serif" font-size="10.00">Effect</text>
</a>
</g>
</g>
<!-- Node8&#45;&gt;Node7 -->
<g id="edge8_Node000007_Node000008" class="edge">
<title>Node8&#45;&gt;Node7</title>
<g id="a_edge8_Node000007_Node000008"><a xlink:title=" ">
<path fill="none" stroke="#8b1a1a" d="M287,-198.92C340.73,-201.95 450.74,-208.14 506.3,-211.27"/>
<polygon fill="#8b1a1a" stroke="#8b1a1a" points="287.21,-195.43 277.03,-198.36 286.82,-202.42 287.21,-195.43"/>
</a>
</g>
</g>
<!-- Node9 -->
<g id="Node000009" class="node">
<title>Node9</title>
<g id="a_Node000009"><a xlink:href="../../d4/d0d/class_script_invoker.html" target="_top" xlink:title="ScriptInvoker Class provide list of callbacks &#160;&#160;usage:">
<polygon fill="white" stroke="#666666" points="290.75,-143.17 219.25,-143.17 219.25,-123.17 290.75,-123.17 290.75,-143.17"/>
<text text-anchor="middle" x="255" y="-129.67" font-family="Helvetica,sans-Serif" font-size="10.00">ScriptInvoker</text>
</a>
</g>
</g>
<!-- Node9&#45;&gt;Node7 -->
<g id="edge9_Node000007_Node000009" class="edge">
<title>Node9&#45;&gt;Node7</title>
<g id="a_edge9_Node000007_Node000009"><a xlink:title=" ">
<path fill="none" stroke="#9a32cd" stroke-dasharray="5,2" d="M302.33,-128.64C346.09,-126.2 412.72,-127.29 465.5,-149.17 493.85,-160.93 519.17,-187.79 531.7,-202.71"/>
<polygon fill="#9a32cd" stroke="#9a32cd" points="302.15,-125.15 292.4,-129.29 302.61,-132.13 302.15,-125.15"/>
</a>
</g>
<text text-anchor="middle" x="396.12" y="-187.67" font-family="Helvetica,sans-Serif" font-size="10.00" fill="grey"> Event_OnSoundFadeInStopped</text>
<text text-anchor="middle" x="396.12" y="-175.67" font-family="Helvetica,sans-Serif" font-size="10.00" fill="grey">Event_OnSoundFadeOutStarted</text>
<text text-anchor="middle" x="396.12" y="-163.67" font-family="Helvetica,sans-Serif" font-size="10.00" fill="grey">Event_OnSoundWaveEnded</text>
<text text-anchor="middle" x="396.12" y="-151.67" font-family="Helvetica,sans-Serif" font-size="10.00" fill="grey">Event_OnSoundWaveStarted</text>
</g>
<!-- Node10 -->
<g id="Node000010" class="node">
<title>Node10</title>
<g id="a_Node000010"><a xlink:href="../../d8/d0b/class_sound_params.html" target="_top" xlink:title=" ">
<polygon fill="white" stroke="#666666" points="293.75,-105.17 216.25,-105.17 216.25,-85.17 293.75,-85.17 293.75,-105.17"/>
<text text-anchor="middle" x="255" y="-91.67" font-family="Helvetica,sans-Serif" font-size="10.00">SoundParams</text>
</a>
</g>
</g>
<!-- Node10&#45;&gt;Node7 -->
<g id="edge10_Node000007_Node000010" class="edge">
<title>Node10&#45;&gt;Node7</title>
<g id="a_edge10_Node000007_Node000010"><a xlink:title=" ">
<path fill="none" stroke="#9a32cd" stroke-dasharray="5,2" d="M305.31,-87.81C350,-83.6 416.21,-83.72 465.5,-111.17 503.24,-132.19 527.01,-181.26 535.97,-202.77"/>
<polygon fill="#9a32cd" stroke="#9a32cd" points="304.95,-84.33 295.38,-88.86 305.69,-91.29 304.95,-84.33"/>
</a>
</g>
<text text-anchor="middle" x="396.12" y="-113.67" font-family="Helvetica,sans-Serif" font-size="10.00" fill="grey"> m_SoundParams</text>
</g>
<!-- Node11 -->
<g id="Node000011" class="node">
<title>Node11</title>
<g id="a_Node000011"><a xlink:href="../../d5/d09/class_sound_object_builder.html" target="_top" xlink:title=" ">
<polygon fill="white" stroke="#666666" points="306.12,-67.17 203.88,-67.17 203.88,-47.17 306.12,-47.17 306.12,-67.17"/>
<text text-anchor="middle" x="255" y="-53.67" font-family="Helvetica,sans-Serif" font-size="10.00">SoundObjectBuilder</text>
</a>
</g>
</g>
<!-- Node11&#45;&gt;Node7 -->
<g id="edge11_Node000007_Node000011" class="edge">
<title>Node11&#45;&gt;Node7</title>
<g id="a_edge11_Node000007_Node000011"><a xlink:title=" ">
<path fill="none" stroke="#9a32cd" stroke-dasharray="5,2" d="M317.69,-45.46C362.28,-40.41 422.06,-41 465.5,-69.17 514.39,-100.87 532.92,-175.46 538.23,-202.85"/>
<polygon fill="#9a32cd" stroke="#9a32cd" points="317.39,-41.97 307.91,-46.7 318.28,-48.92 317.39,-41.97"/>
</a>
</g>
<text text-anchor="middle" x="396.12" y="-71.67" font-family="Helvetica,sans-Serif" font-size="10.00" fill="grey"> m_SoundObjectBuilder</text>
</g>
<!-- Node12 -->
<g id="Node000012" class="node">
<title>Node12</title>
<g id="a_Node000012"><a xlink:href="../../d9/d02/class_abstract_wave.html" target="_top" xlink:title=" ">
<polygon fill="white" stroke="#666666" points="293.38,-29.17 216.62,-29.17 216.62,-9.17 293.38,-9.17 293.38,-29.17"/>
<text text-anchor="middle" x="255" y="-15.67" font-family="Helvetica,sans-Serif" font-size="10.00">AbstractWave</text>
</a>
</g>
</g>
<!-- Node12&#45;&gt;Node7 -->
<g id="edge12_Node000007_Node000012" class="edge">
<title>Node12&#45;&gt;Node7</title>
<g id="a_edge12_Node000007_Node000012"><a xlink:title=" ">
<path fill="none" stroke="#9a32cd" stroke-dasharray="5,2" d="M304.63,-6.8C350.39,1.86 418.7,6.71 465.5,-26.17 526.4,-68.97 537.53,-170.01 539.56,-202.74"/>
<polygon fill="#9a32cd" stroke="#9a32cd" points="304.09,-3.33 294.99,-8.75 305.49,-10.19 304.09,-3.33"/>
</a>
</g>
<text text-anchor="middle" x="396.12" y="-28.67" font-family="Helvetica,sans-Serif" font-size="10.00" fill="grey"> m_SoundWaveObject</text>
</g>
<!-- Node13 -->
<g id="Node000013" class="node">
<title>Node13</title>
<g id="a_Node000013"><a xlink:href="../../d9/d09/classbool.html" target="_top" xlink:title=" ">
<polygon fill="white" stroke="#666666" points="272,-385.17 238,-385.17 238,-365.17 272,-365.17 272,-385.17"/>
<text text-anchor="middle" x="255" y="-371.67" font-family="Helvetica,sans-Serif" font-size="10.00">bool</text>
</a>
</g>
</g>
<!-- Node13&#45;&gt;Node7 -->
<g id="edge14_Node000007_Node000013" class="edge">
<title>Node13&#45;&gt;Node7</title>
<g id="a_edge14_Node000007_Node000013"><a xlink:title=" ">
<path fill="none" stroke="#9a32cd" stroke-dasharray="5,2" d="M283.64,-372.72C337.1,-367.79 450.73,-356.25 465.5,-346.17 510.09,-315.74 530.92,-249.35 537.55,-223.64"/>
<polygon fill="#9a32cd" stroke="#9a32cd" points="283.47,-369.22 273.83,-373.62 284.1,-376.2 283.47,-369.22"/>
</a>
</g>
<text text-anchor="middle" x="396.12" y="-442.67" font-family="Helvetica,sans-Serif" font-size="10.00" fill="grey"> m_SetEnvVariables</text>
<text text-anchor="middle" x="396.12" y="-430.67" font-family="Helvetica,sans-Serif" font-size="10.00" fill="grey">m_SoundAutodestroy</text>
<text text-anchor="middle" x="396.12" y="-418.67" font-family="Helvetica,sans-Serif" font-size="10.00" fill="grey">m_SoundFadedOut</text>
<text text-anchor="middle" x="396.12" y="-406.67" font-family="Helvetica,sans-Serif" font-size="10.00" fill="grey">m_SoundLoop</text>
<text text-anchor="middle" x="396.12" y="-394.67" font-family="Helvetica,sans-Serif" font-size="10.00" fill="grey">m_SoundWaveIsPlaying</text>
<text text-anchor="middle" x="396.12" y="-382.67" font-family="Helvetica,sans-Serif" font-size="10.00" fill="grey">m_SoundWaveStarting</text>
<text text-anchor="middle" x="396.12" y="-370.67" font-family="Helvetica,sans-Serif" font-size="10.00" fill="grey">m_SoundWaveStopping</text>
</g>
<!-- Node14 -->
<g id="Node000014" class="node">
<title>Node14</title>
<g id="a_Node000014"><a xlink:href="../../d4/d03/classfloat.html" target="_top" xlink:title=" ">
<polygon fill="white" stroke="#666666" points="272,-245.17 238,-245.17 238,-225.17 272,-225.17 272,-245.17"/>
<text text-anchor="middle" x="255" y="-231.67" font-family="Helvetica,sans-Serif" font-size="10.00">float</text>
</a>
</g>
</g>
<!-- Node14&#45;&gt;Node7 -->
<g id="edge15_Node000007_Node000014" class="edge">
<title>Node14&#45;&gt;Node7</title>
<g id="a_edge15_Node000007_Node000014"><a xlink:title=" ">
<path fill="none" stroke="#9a32cd" stroke-dasharray="5,2" d="M283.36,-230.76C296.46,-228.79 312.38,-226.59 326.75,-225.17 390.04,-218.93 464.23,-215.67 506.32,-214.19"/>
<polygon fill="#9a32cd" stroke="#9a32cd" points="283.09,-227.26 273.75,-232.25 284.17,-234.18 283.09,-227.26"/>
</a>
</g>
<text text-anchor="middle" x="396.12" y="-311.67" font-family="Helvetica,sans-Serif" font-size="10.00" fill="grey"> m_SoundFadeInDuration</text>
<text text-anchor="middle" x="396.12" y="-299.67" font-family="Helvetica,sans-Serif" font-size="10.00" fill="grey">m_SoundFadeOutDuration</text>
<text text-anchor="middle" x="396.12" y="-287.67" font-family="Helvetica,sans-Serif" font-size="10.00" fill="grey">m_SoundFadeOutInitVolume</text>
<text text-anchor="middle" x="396.12" y="-275.67" font-family="Helvetica,sans-Serif" font-size="10.00" fill="grey">m_SoundFadeOutStartTime</text>
<text text-anchor="middle" x="396.12" y="-263.67" font-family="Helvetica,sans-Serif" font-size="10.00" fill="grey">m_SoundWaveLenght</text>
<text text-anchor="middle" x="396.12" y="-251.67" font-family="Helvetica,sans-Serif" font-size="10.00" fill="grey">m_SoundWaveTime</text>
<text text-anchor="middle" x="396.12" y="-239.67" font-family="Helvetica,sans-Serif" font-size="10.00" fill="grey">m_SoundWaveVolume</text>
<text text-anchor="middle" x="396.12" y="-227.67" font-family="Helvetica,sans-Serif" font-size="10.00" fill="grey">m_SoundWaveVolumeMax</text>
</g>
<!-- Node14&#45;&gt;Node14 -->
<g id="edge16_Node000014_Node000014" class="edge">
<title>Node14&#45;&gt;Node14</title>
<g id="a_edge16_Node000014_Node000014"><a xlink:title=" ">
<path fill="none" stroke="#9a32cd" stroke-dasharray="5,2" d="M232.38,-253.92C233.4,-259.16 240.94,-263.17 255,-263.17 277.5,-263.17 283.3,-252.89 272.4,-243.77"/>
<polygon fill="#9a32cd" stroke="#9a32cd" points="235.45,-255.61 236.91,-245.12 229.22,-252.41 235.45,-255.61"/>
</a>
</g>
<text text-anchor="middle" x="255" y="-289.67" font-family="Helvetica,sans-Serif" font-size="10.00" fill="grey"> LOWEST</text>
<text text-anchor="middle" x="255" y="-277.67" font-family="Helvetica,sans-Serif" font-size="10.00" fill="grey">MAX</text>
<text text-anchor="middle" x="255" y="-265.67" font-family="Helvetica,sans-Serif" font-size="10.00" fill="grey">MIN</text>
</g>
</g>
</svg>

<g id="navigator" transform="translate(0 0)" fill="#404254">
  <rect fill="#f2f5e9" fill-opacity="0.5" stroke="#606060" stroke-width=".5" x="0" y="0" width="60" height="60"/>
  <use id="zoomplus" xlink:href="#zoomPlus" x="17" y="9" onmousedown="handleZoom(evt,'in')"/>
  <use id="zoomminus" xlink:href="#zoomMin" x="42" y="9" onmousedown="handleZoom(evt,'out')"/>
  <use id="reset" xlink:href="#resetDef" x="30" y="36" onmousedown="handleReset()"/>
   <use id="arrowup" xlink:href="#arrowUp" x="0" y="0" onmousedown="handlePan(0,-1)"/>
  <use id="arrowright" xlink:href="#arrowRight" x="0" y="0" onmousedown="handlePan(1,0)"/>
  <use id="arrowdown" xlink:href="#arrowDown" x="0" y="0" onmousedown="handlePan(0,1)"/>
  <use id="arrowleft" xlink:href="#arrowLeft" x="0" y="0" onmousedown="handlePan(-1,0)"/>
</g>
<svg viewBox="0 0 15 15" width="100%" height="30px" preserveAspectRatio="xMaxYMin meet">
 <g id="arrow_out" transform="scale(0.3 0.3)">
  <a xlink:href="class_action_build_shelter__coll__graph_org.svg" target="_base">
   <rect id="button" ry="5" rx="5" y="6" x="6" height="38" width="38"
        fill="#f2f5e9" fill-opacity="0.5" stroke="#606060" stroke-width="1.0"/>
   <path id="arrow"
     d="M 11.500037,31.436501 C 11.940474,20.09759 22.043105,11.32322 32.158766,21.979434 L 37.068811,17.246167 C 37.068811,17.246167 37.088388,32 37.088388,32 L 22.160133,31.978069 C 22.160133,31.978069 26.997745,27.140456 26.997745,27.140456 C 18.528582,18.264221 13.291696,25.230495 11.500037,31.436501 z"
     style="fill:#404040;"/>
  </a>
 </g>
</svg>

<style type='text/css'>
<![CDATA[
[data-mouse-over-selected='false'] { opacity: 0.7; }
[data-mouse-over-selected='true']  { opacity: 1.0; }
]]>
</style>
<script type="application/ecmascript"><![CDATA[
document.addEventListener('DOMContentLoaded', (event) => {
  highlightEdges();
  highlightAdjacentNodes();
});
]]></script>
</svg>
