<?xml version="1.0" encoding="UTF-8" standalone="no"?>
<!DOCTYPE svg PUBLIC "-//W3C//DTD SVG 1.1//EN"
 "http://www.w3.org/Graphics/SVG/1.1/DTD/svg11.dtd">
<!-- Generated by graphviz version 11.0.0 (20240428.1522)
 -->
<!-- Title: WitchHood_ColorBase Pages: 1 -->
<svg width="320pt" height="196pt"
 viewBox="0.00 0.00 320.25 196.00" xmlns="http://www.w3.org/2000/svg" xmlns:xlink="http://www.w3.org/1999/xlink">
<g id="graph0" class="graph" transform="scale(1 1) rotate(0) translate(4 192)">
<title>WitchHood_ColorBase</title>
<!-- Node1 -->
<g id="Node000001" class="node">
<title>Node1</title>
<g id="a_Node000001"><a xlink:title=" ">
<polygon fill="#999999" stroke="#666666" points="217.12,-76 102.88,-76 102.88,-56 217.12,-56 217.12,-76"/>
<text text-anchor="middle" x="160" y="-62.5" font-family="Helvetica,sans-Serif" font-size="10.00">WitchHood_ColorBase</text>
</a>
</g>
</g>
<!-- Node4 -->
<g id="Node000004" class="node">
<title>Node4</title>
<g id="a_Node000004"><a xlink:href="../../d8/d08/class_witch_hood___black.html" target="_top" xlink:title=" ">
<polygon fill="white" stroke="#666666" points="94,-20 0,-20 0,0 94,0 94,-20"/>
<text text-anchor="middle" x="47" y="-6.5" font-family="Helvetica,sans-Serif" font-size="10.00">WitchHood_Black</text>
</a>
</g>
</g>
<!-- Node1&#45;&gt;Node4 -->
<g id="edge3_Node000001_Node000004" class="edge">
<title>Node1&#45;&gt;Node4</title>
<g id="a_edge3_Node000001_Node000004"><a xlink:title=" ">
<path fill="none" stroke="#8b1a1a" d="M130.17,-50.75C110.16,-41.18 84.36,-28.85 66.84,-20.48"/>
<polygon fill="#8b1a1a" stroke="#8b1a1a" points="128.42,-53.79 138.95,-54.94 131.44,-47.47 128.42,-53.79"/>
</a>
</g>
</g>
<!-- Node5 -->
<g id="Node000005" class="node">
<title>Node5</title>
<g id="a_Node000005"><a xlink:href="../../d3/d09/class_witch_hood___brown.html" target="_top" xlink:title=" ">
<polygon fill="white" stroke="#666666" points="208.12,-20 111.88,-20 111.88,0 208.12,0 208.12,-20"/>
<text text-anchor="middle" x="160" y="-6.5" font-family="Helvetica,sans-Serif" font-size="10.00">WitchHood_Brown</text>
</a>
</g>
</g>
<!-- Node1&#45;&gt;Node5 -->
<g id="edge4_Node000001_Node000005" class="edge">
<title>Node1&#45;&gt;Node5</title>
<g id="a_edge4_Node000001_Node000005"><a xlink:title=" ">
<path fill="none" stroke="#8b1a1a" d="M160,-44.13C160,-35.9 160,-26.85 160,-20.3"/>
<polygon fill="#8b1a1a" stroke="#8b1a1a" points="156.5,-44.08 160,-54.08 163.5,-44.08 156.5,-44.08"/>
</a>
</g>
</g>
<!-- Node6 -->
<g id="Node000006" class="node">
<title>Node6</title>
<g id="a_Node000006"><a xlink:href="../../d6/d0e/class_witch_hood___red.html" target="_top" xlink:title=" ">
<polygon fill="white" stroke="#666666" points="312.25,-20 225.75,-20 225.75,0 312.25,0 312.25,-20"/>
<text text-anchor="middle" x="269" y="-6.5" font-family="Helvetica,sans-Serif" font-size="10.00">WitchHood_Red</text>
</a>
</g>
</g>
<!-- Node1&#45;&gt;Node6 -->
<g id="edge5_Node000001_Node000006" class="edge">
<title>Node1&#45;&gt;Node6</title>
<g id="a_edge5_Node000001_Node000006"><a xlink:title=" ">
<path fill="none" stroke="#8b1a1a" d="M189.04,-50.61C208.3,-41.07 233.04,-28.81 249.87,-20.48"/>
<polygon fill="#8b1a1a" stroke="#8b1a1a" points="187.75,-47.35 180.34,-54.92 190.86,-53.62 187.75,-47.35"/>
</a>
</g>
</g>
<!-- Node2 -->
<g id="Node000002" class="node">
<title>Node2</title>
<g id="a_Node000002"><a xlink:href="../../dc/d0d/class_head_gear___base.html" target="_top" xlink:title="hard helmet base">
<polygon fill="white" stroke="#666666" points="203.62,-132 116.38,-132 116.38,-112 203.62,-112 203.62,-132"/>
<text text-anchor="middle" x="160" y="-118.5" font-family="Helvetica,sans-Serif" font-size="10.00">HeadGear_Base</text>
</a>
</g>
</g>
<!-- Node2&#45;&gt;Node1 -->
<g id="edge1_Node000001_Node000002" class="edge">
<title>Node2&#45;&gt;Node1</title>
<g id="a_edge1_Node000001_Node000002"><a xlink:title=" ">
<path fill="none" stroke="#8b1a1a" d="M160,-100.13C160,-91.9 160,-82.85 160,-76.3"/>
<polygon fill="#8b1a1a" stroke="#8b1a1a" points="156.5,-100.08 160,-110.08 163.5,-100.08 156.5,-100.08"/>
</a>
</g>
</g>
<!-- Node3 -->
<g id="Node000003" class="node">
<title>Node3</title>
<g id="a_Node000003"><a xlink:href="../../d8/d04/class_clothing.html" target="_top" xlink:title=" ">
<polygon fill="white" stroke="#666666" points="185.62,-188 134.38,-188 134.38,-168 185.62,-168 185.62,-188"/>
<text text-anchor="middle" x="160" y="-174.5" font-family="Helvetica,sans-Serif" font-size="10.00">Clothing</text>
</a>
</g>
</g>
<!-- Node3&#45;&gt;Node2 -->
<g id="edge2_Node000002_Node000003" class="edge">
<title>Node3&#45;&gt;Node2</title>
<g id="a_edge2_Node000002_Node000003"><a xlink:title=" ">
<path fill="none" stroke="#8b1a1a" d="M160,-156.13C160,-147.9 160,-138.85 160,-132.3"/>
<polygon fill="#8b1a1a" stroke="#8b1a1a" points="156.5,-156.08 160,-166.08 163.5,-156.08 156.5,-156.08"/>
</a>
</g>
</g>
</g>
</svg>
