<?xml version="1.0" encoding="UTF-8" standalone="no"?>
<!DOCTYPE svg PUBLIC "-//W3C//DTD SVG 1.1//EN"
 "http://www.w3.org/Graphics/SVG/1.1/DTD/svg11.dtd">
<!-- Generated by graphviz version 11.0.0 (20240428.1522)
 -->
<!-- Title: PPEClassBase Pages: 1 -->
<svg width="1071pt" height="358pt"
 viewBox="0.00 0.00 1071.29 357.91" xmlns="http://www.w3.org/2000/svg" xmlns:xlink="http://www.w3.org/1999/xlink">
<g id="graph0" class="graph" transform="scale(1 1) rotate(0) translate(4 353.91)">
<title>PPEClassBase</title>
<!-- Node1 -->
<g id="Node000001" class="node">
<title>Node1</title>
<g id="a_Node000001"><a xlink:title="Created once, on manager init. Script&#45;side representation of C++ material class, separate handling.">
<polygon fill="#999999" stroke="#666666" points="779.79,-20 696.29,-20 696.29,0 779.79,0 779.79,-20"/>
<text text-anchor="middle" x="738.04" y="-6.5" font-family="Helvetica,sans-Serif" font-size="10.00">PPEClassBase</text>
</a>
</g>
</g>
<!-- Node2 -->
<g id="Node000002" class="node">
<title>Node2</title>
<g id="a_Node000002"><a xlink:href="../../d5/d02/classstring.html" target="_top" xlink:title=" ">
<polygon fill="white" stroke="#666666" points="958.04,-348 918.04,-348 918.04,-328 958.04,-328 958.04,-348"/>
<text text-anchor="middle" x="938.04" y="-334.5" font-family="Helvetica,sans-Serif" font-size="10.00">string</text>
</a>
</g>
</g>
<!-- Node2&#45;&gt;Node1 -->
<g id="edge1_Node000001_Node000002" class="edge">
<title>Node2&#45;&gt;Node1</title>
<g id="a_edge1_Node000001_Node000002"><a xlink:title=" ">
<path fill="none" stroke="#9a32cd" stroke-dasharray="5,2" d="M960.21,-320.21C963.46,-317.07 966.55,-313.62 969.04,-310 1010.71,-249.47 1033.33,-214.48 1002.04,-148 969.38,-78.59 938.21,-71.17 869.04,-38 841.09,-24.6 806.67,-17.83 780.12,-14.42"/>
<polygon fill="#9a32cd" stroke="#9a32cd" points="957.93,-317.55 952.65,-326.74 962.51,-322.85 957.93,-317.55"/>
</a>
</g>
<text text-anchor="middle" x="1027.67" y="-120.5" font-family="Helvetica,sans-Serif" font-size="10.00" fill="grey"> m_MaterialPath</text>
</g>
<!-- Node2&#45;&gt;Node2 -->
<g id="edge2_Node000002_Node000002" class="edge">
<title>Node2&#45;&gt;Node2</title>
<g id="a_edge2_Node000002_Node000002"><a xlink:title=" ">
<path fill="none" stroke="#9a32cd" stroke-dasharray="5,2" d="M963.81,-349.91C970.76,-349.28 976.04,-345.31 976.04,-338 976.04,-327.12 964.34,-323.64 952.87,-327.55"/>
<polygon fill="#9a32cd" stroke="#9a32cd" points="964.74,-346.5 954.37,-348.65 963.82,-353.44 964.74,-346.5"/>
</a>
</g>
<text text-anchor="middle" x="991.79" y="-334.5" font-family="Helvetica,sans-Serif" font-size="10.00" fill="grey"> Empty</text>
</g>
<!-- Node4 -->
<g id="Node000004" class="node">
<title>Node4</title>
<g id="a_Node000004"><a xlink:href="../../d2/d01/classarray.html" target="_top" xlink:title=" ">
<polygon fill="white" stroke="#666666" points="782.79,-100 693.29,-100 693.29,-80 782.79,-80 782.79,-100"/>
<text text-anchor="middle" x="738.04" y="-86.5" font-family="Helvetica,sans-Serif" font-size="10.00">array&lt; Param3 &gt;</text>
</a>
</g>
</g>
<!-- Node2&#45;&gt;Node4 -->
<g id="edge23_Node000004_Node000002" class="edge">
<title>Node2&#45;&gt;Node4</title>
<g id="a_edge23_Node000004_Node000002"><a xlink:title=" ">
<path fill="none" stroke="#9a32cd" stroke-dasharray="5,2" d="M945.77,-317C958.8,-279.58 980.18,-198.25 942.04,-148 922.87,-122.73 836.91,-105.64 782.88,-97.17"/>
<polygon fill="#9a32cd" stroke="#9a32cd" points="942.6,-315.49 942.44,-326.09 949.17,-317.9 942.6,-315.49"/>
</a>
</g>
<text text-anchor="middle" x="980.67" y="-180.5" font-family="Helvetica,sans-Serif" font-size="10.00" fill="grey"> m_Test</text>
</g>
<!-- Node6 -->
<g id="Node000006" class="node">
<title>Node6</title>
<g id="a_Node000006"><a xlink:href="../../d2/d01/classarray.html" target="_top" xlink:title="Result for an object found in CGame.IsBoxCollidingGeometryProxy.">
<polygon fill="white" stroke="#666666" points="597.92,-194 560.17,-194 560.17,-174 597.92,-174 597.92,-194"/>
<text text-anchor="middle" x="579.04" y="-180.5" font-family="Helvetica,sans-Serif" font-size="10.00">array</text>
</a>
</g>
</g>
<!-- Node2&#45;&gt;Node6 -->
<g id="edge12_Node000006_Node000002" class="edge">
<title>Node2&#45;&gt;Node6</title>
<g id="a_edge12_Node000006_Node000002"><a xlink:title=" ">
<path fill="none" stroke="#9a32cd" stroke-dasharray="5,2" d="M906.81,-327.95C890.8,-323.07 871.09,-316.69 853.79,-310 781.92,-282.19 766.2,-269.9 696.04,-238 661.54,-222.31 621.26,-204.09 598.1,-193.61"/>
<polygon fill="#9a32cd" stroke="#9a32cd" points="905.69,-331.27 916.28,-330.79 907.7,-324.57 905.69,-331.27"/>
</a>
</g>
<text text-anchor="middle" x="870.67" y="-270.5" font-family="Helvetica,sans-Serif" font-size="10.00" fill="grey"> m_Test</text>
</g>
<!-- Node9 -->
<g id="Node000009" class="node">
<title>Node9</title>
<g id="a_Node000009"><a xlink:href="../../d2/d01/classarray.html" target="_top" xlink:title=" ">
<polygon fill="white" stroke="#666666" points="433.29,-100 346.79,-100 346.79,-80 433.29,-80 433.29,-100"/>
<text text-anchor="middle" x="390.04" y="-86.5" font-family="Helvetica,sans-Serif" font-size="10.00">array&lt; Widget &gt;</text>
</a>
</g>
</g>
<!-- Node2&#45;&gt;Node9 -->
<g id="edge19_Node000009_Node000002" class="edge">
<title>Node2&#45;&gt;Node9</title>
<g id="a_edge19_Node000009_Node000002"><a xlink:title=" ">
<path fill="none" stroke="#9a32cd" stroke-dasharray="5,2" d="M931.89,-316.84C917.57,-270.54 882.28,-159.66 869.04,-148 823.9,-108.23 796.53,-127.02 737.04,-118 628.61,-101.55 499.51,-94.85 433.55,-92.35"/>
<polygon fill="#9a32cd" stroke="#9a32cd" points="928.46,-317.61 934.75,-326.15 935.15,-315.56 928.46,-317.61"/>
</a>
</g>
<text text-anchor="middle" x="916.67" y="-180.5" font-family="Helvetica,sans-Serif" font-size="10.00" fill="grey"> m_Test</text>
</g>
<!-- Node3 -->
<g id="Node000003" class="node">
<title>Node3</title>
<g id="a_Node000003"><a xlink:href="../../db/d06/class_param3.html" target="_top" xlink:title=" ">
<polygon fill="white" stroke="#666666" points="113.92,-348 64.17,-348 64.17,-328 113.92,-328 113.92,-348"/>
<text text-anchor="middle" x="89.04" y="-334.5" font-family="Helvetica,sans-Serif" font-size="10.00">Param3</text>
</a>
</g>
</g>
<!-- Node3&#45;&gt;Node1 -->
<g id="edge3_Node000001_Node000003" class="edge">
<title>Node3&#45;&gt;Node1</title>
<g id="a_edge3_Node000001_Node000003"><a xlink:title=" ">
<path fill="none" stroke="#9a32cd" stroke-dasharray="5,2" d="M54.36,-322C49.9,-318.67 45.9,-314.7 43.04,-310 -1.24,-236.95 -21.64,-182.79 34.04,-118 120.57,-17.33 557.33,-10.26 695.84,-10.6"/>
<polygon fill="#9a32cd" stroke="#9a32cd" points="52.34,-324.87 62.68,-327.16 56.03,-318.92 52.34,-324.87"/>
</a>
</g>
<text text-anchor="middle" x="59.54" y="-120.5" font-family="Helvetica,sans-Serif" font-size="10.00" fill="grey"> m_Material</text>
</g>
<!-- Node3&#45;&gt;Node4 -->
<g id="edge6_Node000004_Node000003" class="edge">
<title>Node3&#45;&gt;Node4</title>
<g id="a_edge6_Node000004_Node000003"><a xlink:title=" ">
<path fill="none" stroke="#9a32cd" stroke-dasharray="5,2" d="M107.46,-320.19C131.01,-299.25 173.57,-263.16 214.04,-238 229.92,-228.13 239.42,-233.77 252.04,-220 275.12,-194.84 251.51,-168.52 278.79,-148 321.58,-115.82 466.96,-142.39 519.04,-130 532.61,-126.77 534.59,-121.68 548.04,-118 596.57,-104.74 653.96,-97.73 692.87,-94.21"/>
<polygon fill="#9a32cd" stroke="#9a32cd" points="105.37,-317.37 100.27,-326.66 110.05,-322.58 105.37,-317.37"/>
</a>
</g>
<text text-anchor="middle" x="336.17" y="-210.5" font-family="Helvetica,sans-Serif" font-size="10.00" fill="grey"> NO_SORTING</text>
<text text-anchor="middle" x="336.17" y="-198.5" font-family="Helvetica,sans-Serif" font-size="10.00" fill="grey">geomLevel</text>
<text text-anchor="middle" x="336.17" y="-186.5" font-family="Helvetica,sans-Serif" font-size="10.00" fill="grey">hierLevel</text>
<text text-anchor="start" x="278.04" y="-174.5" font-family="Helvetica,sans-Serif" font-size="10.00" fill="grey">m_CurrentSettingAlternate</text>
<text text-anchor="middle" x="336.17" y="-162.5" font-family="Helvetica,sans-Serif" font-size="10.00" fill="grey">KeyIndex</text>
<text text-anchor="middle" x="336.17" y="-150.5" font-family="Helvetica,sans-Serif" font-size="10.00" fill="grey">m_CurrentSettingKeyIndex</text>
</g>
<!-- Node3&#45;&gt;Node6 -->
<g id="edge9_Node000006_Node000003" class="edge">
<title>Node3&#45;&gt;Node6</title>
<g id="a_edge9_Node000006_Node000003"><a xlink:title=" ">
<path fill="none" stroke="#9a32cd" stroke-dasharray="5,2" d="M125.44,-331.71C150.11,-327.47 183.17,-320.46 211.04,-310 273.52,-286.56 278.93,-257.35 342.79,-238 429.58,-211.7 464.45,-259.57 546.04,-220 557.77,-214.31 567.46,-202.56 573.24,-194.25"/>
<polygon fill="#9a32cd" stroke="#9a32cd" points="125.2,-328.21 115.9,-333.28 126.34,-335.11 125.2,-328.21"/>
</a>
</g>
<text text-anchor="middle" x="400.17" y="-300.5" font-family="Helvetica,sans-Serif" font-size="10.00" fill="grey"> NO_SORTING</text>
<text text-anchor="middle" x="400.17" y="-288.5" font-family="Helvetica,sans-Serif" font-size="10.00" fill="grey">geomLevel</text>
<text text-anchor="middle" x="400.17" y="-276.5" font-family="Helvetica,sans-Serif" font-size="10.00" fill="grey">hierLevel</text>
<text text-anchor="start" x="342.04" y="-264.5" font-family="Helvetica,sans-Serif" font-size="10.00" fill="grey">m_CurrentSettingAlternate</text>
<text text-anchor="middle" x="400.17" y="-252.5" font-family="Helvetica,sans-Serif" font-size="10.00" fill="grey">KeyIndex</text>
<text text-anchor="middle" x="400.17" y="-240.5" font-family="Helvetica,sans-Serif" font-size="10.00" fill="grey">m_CurrentSettingKeyIndex</text>
</g>
<!-- Node3&#45;&gt;Node9 -->
<g id="edge16_Node000009_Node000003" class="edge">
<title>Node3&#45;&gt;Node9</title>
<g id="a_edge16_Node000009_Node000003"><a xlink:title=" ">
<path fill="none" stroke="#9a32cd" stroke-dasharray="5,2" d="M77.93,-317.78C57.98,-280.45 21.79,-197.46 62.79,-148 98.27,-105.22 265.84,-94.55 346.48,-91.88"/>
<polygon fill="#9a32cd" stroke="#9a32cd" points="74.85,-319.45 82.77,-326.49 80.97,-316.05 74.85,-319.45"/>
</a>
</g>
<text text-anchor="middle" x="120.17" y="-210.5" font-family="Helvetica,sans-Serif" font-size="10.00" fill="grey"> NO_SORTING</text>
<text text-anchor="middle" x="120.17" y="-198.5" font-family="Helvetica,sans-Serif" font-size="10.00" fill="grey">geomLevel</text>
<text text-anchor="middle" x="120.17" y="-186.5" font-family="Helvetica,sans-Serif" font-size="10.00" fill="grey">hierLevel</text>
<text text-anchor="start" x="62.04" y="-174.5" font-family="Helvetica,sans-Serif" font-size="10.00" fill="grey">m_CurrentSettingAlternate</text>
<text text-anchor="middle" x="120.17" y="-162.5" font-family="Helvetica,sans-Serif" font-size="10.00" fill="grey">KeyIndex</text>
<text text-anchor="middle" x="120.17" y="-150.5" font-family="Helvetica,sans-Serif" font-size="10.00" fill="grey">m_CurrentSettingKeyIndex</text>
</g>
<!-- Node4&#45;&gt;Node1 -->
<g id="edge4_Node000001_Node000004" class="edge">
<title>Node4&#45;&gt;Node1</title>
<g id="a_edge4_Node000001_Node000004"><a xlink:title=" ">
<path fill="none" stroke="#9a32cd" stroke-dasharray="5,2" d="M738.04,-68.59C738.04,-52.94 738.04,-32.08 738.04,-20.24"/>
<polygon fill="#9a32cd" stroke="#9a32cd" points="734.54,-68.23 738.04,-78.23 741.54,-68.23 734.54,-68.23"/>
</a>
</g>
<text text-anchor="middle" x="801.42" y="-52.5" font-family="Helvetica,sans-Serif" font-size="10.00" fill="grey"> m_ParameterRemovalQueue</text>
<text text-anchor="middle" x="801.42" y="-40.5" font-family="Helvetica,sans-Serif" font-size="10.00" fill="grey">m_UpdatedParameters</text>
</g>
<!-- Node5 -->
<g id="Node000005" class="node">
<title>Node5</title>
<g id="a_Node000005"><a xlink:href="../../d8/d03/class_object.html" target="_top" xlink:title=" ">
<polygon fill="white" stroke="#666666" points="601.29,-348 556.79,-348 556.79,-328 601.29,-328 601.29,-348"/>
<text text-anchor="middle" x="579.04" y="-334.5" font-family="Helvetica,sans-Serif" font-size="10.00">Object</text>
</a>
</g>
</g>
<!-- Node5&#45;&gt;Node4 -->
<g id="edge5_Node000004_Node000005" class="edge">
<title>Node5&#45;&gt;Node4</title>
<g id="a_edge5_Node000004_Node000005"><a xlink:title=" ">
<path fill="none" stroke="#9a32cd" stroke-dasharray="5,2" d="M612.88,-333.75C630.92,-330.41 652.35,-323.65 667.04,-310 692.19,-286.63 671.41,-262.9 695.04,-238 708.47,-223.86 724.27,-236.25 735.04,-220 760.18,-182.1 747.34,-123.19 740.94,-100.42"/>
<polygon fill="#9a32cd" stroke="#9a32cd" points="612.46,-330.27 603.12,-335.26 613.53,-337.19 612.46,-330.27"/>
</a>
</g>
<text text-anchor="middle" x="762.54" y="-186.5" font-family="Helvetica,sans-Serif" font-size="10.00" fill="grey"> obj</text>
<text text-anchor="middle" x="762.54" y="-174.5" font-family="Helvetica,sans-Serif" font-size="10.00" fill="grey">parent</text>
</g>
<!-- Node5&#45;&gt;Node6 -->
<g id="edge8_Node000006_Node000005" class="edge">
<title>Node5&#45;&gt;Node6</title>
<g id="a_edge8_Node000006_Node000005"><a xlink:title=" ">
<path fill="none" stroke="#9a32cd" stroke-dasharray="5,2" d="M579.04,-316.47C579.04,-283.04 579.04,-218.17 579.04,-194.2"/>
<polygon fill="#9a32cd" stroke="#9a32cd" points="575.54,-316.43 579.04,-326.43 582.54,-316.43 575.54,-316.43"/>
</a>
</g>
<text text-anchor="middle" x="592.54" y="-276.5" font-family="Helvetica,sans-Serif" font-size="10.00" fill="grey"> obj</text>
<text text-anchor="middle" x="592.54" y="-264.5" font-family="Helvetica,sans-Serif" font-size="10.00" fill="grey">parent</text>
</g>
<!-- Node5&#45;&gt;Node9 -->
<g id="edge15_Node000009_Node000005" class="edge">
<title>Node5&#45;&gt;Node9</title>
<g id="a_edge15_Node000009_Node000005"><a xlink:title=" ">
<path fill="none" stroke="#9a32cd" stroke-dasharray="5,2" d="M575.06,-316.52C569.5,-293.71 557.15,-257.5 532.04,-238 499.14,-212.44 471.99,-246.75 440.04,-220 402.11,-188.23 392.85,-124.06 390.68,-100.21"/>
<polygon fill="#9a32cd" stroke="#9a32cd" points="571.61,-317.11 577.16,-326.14 578.44,-315.62 571.61,-317.11"/>
</a>
</g>
<text text-anchor="middle" x="453.54" y="-186.5" font-family="Helvetica,sans-Serif" font-size="10.00" fill="grey"> obj</text>
<text text-anchor="middle" x="453.54" y="-174.5" font-family="Helvetica,sans-Serif" font-size="10.00" fill="grey">parent</text>
</g>
<!-- Node6&#45;&gt;Node4 -->
<g id="edge7_Node000004_Node000006" class="edge">
<title>Node6&#45;&gt;Node4</title>
<g id="a_edge7_Node000004_Node000006"><a xlink:title=" ">
<path fill="none" stroke="#9a32cd" stroke-dasharray="5,2" d="M605.37,-167.77C638.54,-148.57 694.54,-116.17 721.95,-100.31"/>
<polygon fill="#9a32cd" stroke="#9a32cd" points="603.67,-164.71 596.77,-172.74 607.18,-170.76 603.67,-164.71"/>
</a>
</g>
<text text-anchor="middle" x="712.04" y="-120.5" font-family="Helvetica,sans-Serif" font-size="10.00" fill="grey"> proxyInfo</text>
</g>
<!-- Node6&#45;&gt;Node6 -->
<g id="edge10_Node000006_Node000006" class="edge">
<title>Node6&#45;&gt;Node6</title>
<g id="a_edge10_Node000006_Node000006"><a xlink:title=" ">
<path fill="none" stroke="#9a32cd" stroke-dasharray="5,2" d="M607.07,-194.66C612.26,-193.34 615.92,-189.78 615.92,-184 615.92,-174.51 606.08,-171.02 595.73,-173.54"/>
<polygon fill="#9a32cd" stroke="#9a32cd" points="607.31,-191.17 597.24,-194.48 607.18,-198.16 607.31,-191.17"/>
</a>
</g>
<text text-anchor="middle" x="636.92" y="-180.5" font-family="Helvetica,sans-Serif" font-size="10.00" fill="grey"> proxyInfo</text>
</g>
<!-- Node6&#45;&gt;Node9 -->
<g id="edge17_Node000009_Node000006" class="edge">
<title>Node6&#45;&gt;Node9</title>
<g id="a_edge17_Node000009_Node000006"><a xlink:title=" ">
<path fill="none" stroke="#9a32cd" stroke-dasharray="5,2" d="M565.96,-164.89C560.5,-158.6 553.65,-152.1 546.04,-148 505.13,-125.97 485.78,-148.25 443.04,-130 426.24,-122.82 409.73,-109.38 399.72,-100.31"/>
<polygon fill="#9a32cd" stroke="#9a32cd" points="563.01,-166.8 571.96,-172.48 568.5,-162.46 563.01,-166.8"/>
</a>
</g>
<text text-anchor="middle" x="464.04" y="-120.5" font-family="Helvetica,sans-Serif" font-size="10.00" fill="grey"> proxyInfo</text>
</g>
<!-- Node7 -->
<g id="Node000007" class="node">
<title>Node7</title>
<g id="a_Node000007"><a xlink:href="../../d4/d04/class_class.html" target="_top" xlink:title="Super root of all classes in Enforce script.">
<polygon fill="white" stroke="#666666" points="465.42,-348 424.67,-348 424.67,-328 465.42,-328 465.42,-348"/>
<text text-anchor="middle" x="445.04" y="-334.5" font-family="Helvetica,sans-Serif" font-size="10.00">Class</text>
</a>
</g>
</g>
<!-- Node7&#45;&gt;Node4 -->
<g id="edge22_Node000004_Node000007" class="edge">
<title>Node7&#45;&gt;Node4</title>
<g id="a_edge22_Node000004_Node000007"><a xlink:title=" ">
<path fill="none" stroke="#9a32cd" stroke-dasharray="5,2" d="M446.3,-316.27C447.91,-296 451.47,-264.4 459.04,-238 461.46,-229.58 463.55,-228.03 467.04,-220 480.94,-188.1 471.18,-170.42 497.79,-148 512.69,-135.45 627.53,-111.99 692.9,-99.44"/>
<polygon fill="#9a32cd" stroke="#9a32cd" points="442.82,-315.81 445.61,-326.03 449.8,-316.3 442.82,-315.81"/>
</a>
</g>
<text text-anchor="middle" x="523.67" y="-180.5" font-family="Helvetica,sans-Serif" font-size="10.00" fill="grey"> m_Instance</text>
</g>
<!-- Node7&#45;&gt;Node6 -->
<g id="edge11_Node000006_Node000007" class="edge">
<title>Node7&#45;&gt;Node6</title>
<g id="a_edge11_Node000006_Node000007"><a xlink:title=" ">
<path fill="none" stroke="#9a32cd" stroke-dasharray="5,2" d="M457.28,-318.25C471.4,-297.37 496.01,-263.25 521.79,-238 531.38,-228.61 536.01,-228.92 546.04,-220 555.16,-211.9 564.61,-201.65 571.05,-194.35"/>
<polygon fill="#9a32cd" stroke="#9a32cd" points="454.53,-316.06 451.9,-326.33 460.36,-319.94 454.53,-316.06"/>
</a>
</g>
<text text-anchor="middle" x="547.67" y="-270.5" font-family="Helvetica,sans-Serif" font-size="10.00" fill="grey"> m_Instance</text>
</g>
<!-- Node7&#45;&gt;Node9 -->
<g id="edge18_Node000009_Node000007" class="edge">
<title>Node7&#45;&gt;Node9</title>
<g id="a_edge18_Node000009_Node000007"><a xlink:title=" ">
<path fill="none" stroke="#9a32cd" stroke-dasharray="5,2" d="M433.08,-318.15C417.2,-294.94 386.84,-256.33 350.04,-238 319.75,-222.91 221.27,-245.31 198.79,-220 177.55,-196.07 179.67,-173.66 198.79,-148 216.5,-124.25 295.88,-106.8 346.65,-97.82"/>
<polygon fill="#9a32cd" stroke="#9a32cd" points="430.06,-319.93 438.49,-326.34 435.9,-316.07 430.06,-319.93"/>
</a>
</g>
<text text-anchor="middle" x="224.67" y="-180.5" font-family="Helvetica,sans-Serif" font-size="10.00" fill="grey"> m_Instance</text>
</g>
<!-- Node8 -->
<g id="Node000008" class="node">
<title>Node8</title>
<g id="a_Node000008"><a xlink:href="../../dd/d0a/class_widget.html" target="_top" xlink:title=" ">
<polygon fill="white" stroke="#666666" points="729.42,-348 682.67,-348 682.67,-328 729.42,-328 729.42,-348"/>
<text text-anchor="middle" x="706.04" y="-334.5" font-family="Helvetica,sans-Serif" font-size="10.00">Widget</text>
</a>
</g>
</g>
<!-- Node8&#45;&gt;Node4 -->
<g id="edge24_Node000004_Node000008" class="edge">
<title>Node8&#45;&gt;Node4</title>
<g id="a_edge24_Node000004_Node000008"><a xlink:title=" ">
<path fill="none" stroke="#9a32cd" stroke-dasharray="5,2" d="M740.91,-333.11C769.53,-329.12 806.79,-321.8 816.04,-310 860.75,-253 823.33,-215.89 798.04,-148 792.7,-133.64 791.63,-129.08 781.04,-118 774.34,-110.99 765.46,-105.02 757.51,-100.49"/>
<polygon fill="#9a32cd" stroke="#9a32cd" points="740.64,-329.62 731.17,-334.38 741.54,-336.56 740.64,-329.62"/>
</a>
</g>
<text text-anchor="middle" x="846.42" y="-180.5" font-family="Helvetica,sans-Serif" font-size="10.00" fill="grey"> m_Root</text>
</g>
<!-- Node8&#45;&gt;Node6 -->
<g id="edge13_Node000006_Node000008" class="edge">
<title>Node8&#45;&gt;Node6</title>
<g id="a_edge13_Node000006_Node000008"><a xlink:title=" ">
<path fill="none" stroke="#9a32cd" stroke-dasharray="5,2" d="M672.27,-322.32C666.22,-318.81 660.27,-314.69 655.29,-310 635.97,-291.78 597.38,-219.99 583.86,-194.25"/>
<polygon fill="#9a32cd" stroke="#9a32cd" points="670.56,-325.38 681.04,-326.95 673.83,-319.18 670.56,-325.38"/>
</a>
</g>
<text text-anchor="middle" x="673.42" y="-270.5" font-family="Helvetica,sans-Serif" font-size="10.00" fill="grey"> m_Root</text>
</g>
<!-- Node8&#45;&gt;Node9 -->
<g id="edge20_Node000009_Node000008" class="edge">
<title>Node8&#45;&gt;Node9</title>
<g id="a_edge20_Node000009_Node000008"><a xlink:title=" ">
<path fill="none" stroke="#9a32cd" stroke-dasharray="5,2" d="M704.52,-316.59C700.83,-272.86 690,-172.15 667.04,-148 635.55,-114.86 503.26,-99.77 433.51,-94.01"/>
<polygon fill="#9a32cd" stroke="#9a32cd" points="701.02,-316.76 705.3,-326.45 708,-316.21 701.02,-316.76"/>
</a>
</g>
<text text-anchor="middle" x="709.42" y="-180.5" font-family="Helvetica,sans-Serif" font-size="10.00" fill="grey"> m_Root</text>
</g>
<!-- Node9&#45;&gt;Node6 -->
<g id="edge14_Node000006_Node000009" class="edge">
<title>Node9&#45;&gt;Node6</title>
<g id="a_edge14_Node000006_Node000009"><a xlink:title=" ">
<path fill="none" stroke="#9a32cd" stroke-dasharray="5,2" d="M442.06,-103.44C473.81,-112.57 514.27,-127.07 546.04,-148 556.51,-154.89 566.04,-165.72 572.14,-173.51"/>
<polygon fill="#9a32cd" stroke="#9a32cd" points="443.25,-100.14 432.68,-100.83 441.38,-106.88 443.25,-100.14"/>
</a>
</g>
<text text-anchor="middle" x="541.54" y="-120.5" font-family="Helvetica,sans-Serif" font-size="10.00" fill="grey"> m_Subgroups</text>
</g>
<!-- Node9&#45;&gt;Node9 -->
<g id="edge21_Node000009_Node000009" class="edge">
<title>Node9&#45;&gt;Node9</title>
<g id="a_edge21_Node000009_Node000009"><a xlink:title=" ">
<path fill="none" stroke="#9a32cd" stroke-dasharray="5,2" d="M444.67,-94.76C448.77,-93.7 451.29,-92.11 451.29,-90 451.29,-86.35 443.76,-84.26 433.54,-83.75"/>
<polygon fill="#9a32cd" stroke="#9a32cd" points="444.49,-91.26 435.04,-96.05 445.41,-98.19 444.49,-91.26"/>
</a>
</g>
<text text-anchor="middle" x="482.79" y="-86.5" font-family="Helvetica,sans-Serif" font-size="10.00" fill="grey"> m_Subgroups</text>
</g>
</g>
</svg>
