<?xml version="1.0" encoding="UTF-8" standalone="no"?>
<!DOCTYPE svg PUBLIC "-//W3C//DTD SVG 1.1//EN"
 "http://www.w3.org/Graphics/SVG/1.1/DTD/svg11.dtd">
<!-- Generated by graphviz version 11.0.0 (20240428.1522)
 -->
<!-- Title: Container_Base Pages: 1 -->
<!--zoomable 196 -->

<svg id="main" version="1.1" xmlns="http://www.w3.org/2000/svg" xmlns:xlink="http://www.w3.org/1999/xlink" xml:space="preserve" onload="init(evt)">
<style type="text/css"><![CDATA[
.node, .edge {opacity: 0.7;}
.node.selected, .edge.selected {opacity: 1;}
.edge:hover path { stroke: red; }
.edge:hover polygon { stroke: red; fill: red; }
]]></style>

<defs>
  <circle id="rim" cx="0" cy="0" r="7"/>
  <circle id="rim2" cx="0" cy="0" r="3.5"/>
  <g id="zoomPlus">
    <use xlink:href="#rim" fill="#404040"><set attributeName="fill" to="#808080" begin="zoomplus.mouseover" end="zoomplus.mouseout"/></use>
    <path d="M-4,0h8M0,-4v8" fill="none" stroke="white" stroke-width="1.5" pointer-events="none"/>
  </g>
  <g id="zoomMin">
    <use xlink:href="#rim" fill="#404040"><set attributeName="fill" to="#808080" begin="zoomminus.mouseover" end="zoomminus.mouseout"/></use>
    <path d="M-4,0h8" fill="none" stroke="white" stroke-width="1.5" pointer-events="none"/>
  </g>
  <g id="arrowUp" transform="translate(30 24)">
    <use xlink:href="#rim"/>
    <path pointer-events="none" fill="none" stroke="white" stroke-width="1.5" d="M0,-3.0v7 M-2.5,-0.5L0,-3.0L2.5,-0.5"/>
  </g>
  <g id="arrowRight" transform="rotate(90) translate(36 -43)">
    <use xlink:href="#rim"/>
    <path pointer-events="none" fill="none" stroke="white" stroke-width="1.5" d="M0,-3.0v7 M-2.5,-0.5L0,-3.0L2.5,-0.5"/>
  </g>
  <g id="arrowDown" transform="rotate(180) translate(-30 -48)">
    <use xlink:href="#rim"/>
    <path pointer-events="none" fill="none" stroke="white" stroke-width="1.5" d="M0,-3.0v7 M-2.5,-0.5L0,-3.0L2.5,-0.5"/>
  </g>
  <g id="arrowLeft" transform="rotate(270) translate(-36 17)">
    <use xlink:href="#rim"/>
    <path pointer-events="none" fill="none" stroke="white" stroke-width="1.5" d="M0,-3.0v7 M-2.5,-0.5L0,-3.0L2.5,-0.5"/>
  </g>
  <g id="resetDef">
    <use xlink:href="#rim2" fill="#404040"><set attributeName="fill" to="#808080" begin="reset.mouseover" end="reset.mouseout"/></use>
  </g>
</defs>
<script type="application/ecmascript">
var viewWidth = 523;
var viewHeight = 196;
var sectionId = 'dynsection-0';
</script>
<script type="application/ecmascript" xlink:href="../../svg.min.js"/>
<svg id="graph" class="graph">
<g id="viewport">
<title>Container_Base</title>
<!-- Node1 -->
<g id="Node000001" class="node">
<title>Node1</title>
<g id="a_Node000001"><a xlink:title=" ">
<polygon fill="#999999" stroke="#666666" points="236.38,-132 151.38,-132 151.38,-112 236.38,-112 236.38,-132"/>
<text text-anchor="middle" x="193.88" y="-118.5" font-family="Helvetica,sans-Serif" font-size="10.00">Container_Base</text>
</a>
</g>
</g>
<!-- Node3 -->
<g id="Node000003" class="node">
<title>Node3</title>
<g id="a_Node000003"><a xlink:href="../../d2/d08/class_ammo_box.html" target="_top" xlink:title=" ">
<polygon fill="white" stroke="#666666" points="61.75,-76 0,-76 0,-56 61.75,-56 61.75,-76"/>
<text text-anchor="middle" x="30.88" y="-62.5" font-family="Helvetica,sans-Serif" font-size="10.00">AmmoBox</text>
</a>
</g>
</g>
<!-- Node1&#45;&gt;Node3 -->
<g id="edge2_Node000001_Node000003" class="edge">
<title>Node1&#45;&gt;Node3</title>
<g id="a_edge2_Node000001_Node000003"><a xlink:title=" ">
<path fill="none" stroke="#8b1a1a" d="M154.78,-108.05C125.44,-98.33 85.93,-85.24 59.49,-76.48"/>
<polygon fill="#8b1a1a" stroke="#8b1a1a" points="153.45,-111.3 164.05,-111.12 155.65,-104.65 153.45,-111.3"/>
</a>
</g>
</g>
<!-- Node4 -->
<g id="Node000004" class="node">
<title>Node4</title>
<g id="a_Node000004"><a xlink:href="../../df/d03/class_plate_carrier_pouches.html" target="_top" xlink:title=" ">
<polygon fill="white" stroke="#666666" points="185.5,-76 80.25,-76 80.25,-56 185.5,-56 185.5,-76"/>
<text text-anchor="middle" x="132.88" y="-62.5" font-family="Helvetica,sans-Serif" font-size="10.00">PlateCarrierPouches</text>
</a>
</g>
</g>
<!-- Node1&#45;&gt;Node4 -->
<g id="edge3_Node000001_Node000004" class="edge">
<title>Node1&#45;&gt;Node4</title>
<g id="a_edge3_Node000001_Node000004"><a xlink:title=" ">
<path fill="none" stroke="#8b1a1a" d="M174.81,-104.13C164.44,-94.94 152,-83.93 143.38,-76.3"/>
<polygon fill="#8b1a1a" stroke="#8b1a1a" points="172.31,-106.58 182.12,-110.59 176.95,-101.34 172.31,-106.58"/>
</a>
</g>
</g>
<!-- Node5 -->
<g id="Node000005" class="node">
<title>Node5</title>
<g id="a_Node000005"><a xlink:href="../../df/d0d/class_small_protector_case.html" target="_top" xlink:title=" ">
<polygon fill="white" stroke="#666666" points="306.38,-76 203.38,-76 203.38,-56 306.38,-56 306.38,-76"/>
<text text-anchor="middle" x="254.88" y="-62.5" font-family="Helvetica,sans-Serif" font-size="10.00">SmallProtectorCase</text>
</a>
</g>
</g>
<!-- Node1&#45;&gt;Node5 -->
<g id="edge4_Node000001_Node000005" class="edge">
<title>Node1&#45;&gt;Node5</title>
<g id="a_edge4_Node000001_Node000005"><a xlink:title=" ">
<path fill="none" stroke="#8b1a1a" d="M212.94,-104.13C223.31,-94.94 235.75,-83.93 244.37,-76.3"/>
<polygon fill="#8b1a1a" stroke="#8b1a1a" points="210.8,-101.34 205.63,-110.59 215.44,-106.58 210.8,-101.34"/>
</a>
</g>
</g>
<!-- Node6 -->
<g id="Node000006" class="node">
<title>Node6</title>
<g id="a_Node000006"><a xlink:href="../../de/d02/class_waterproof_bag___color_base.html" target="_top" xlink:title=" ">
<polygon fill="white" stroke="#666666" points="455.25,-76 324.5,-76 324.5,-56 455.25,-56 455.25,-76"/>
<text text-anchor="middle" x="389.88" y="-62.5" font-family="Helvetica,sans-Serif" font-size="10.00">WaterproofBag_ColorBase</text>
</a>
</g>
</g>
<!-- Node1&#45;&gt;Node6 -->
<g id="edge5_Node000001_Node000006" class="edge">
<title>Node1&#45;&gt;Node6</title>
<g id="a_edge5_Node000001_Node000006"><a xlink:title=" ">
<path fill="none" stroke="#8b1a1a" d="M239.03,-108.56C274.49,-98.79 323.11,-85.39 355.47,-76.48"/>
<polygon fill="#8b1a1a" stroke="#8b1a1a" points="238.19,-105.16 229.47,-111.19 240.05,-111.91 238.19,-105.16"/>
</a>
</g>
</g>
<!-- Node2 -->
<g id="Node000002" class="node">
<title>Node2</title>
<g id="a_Node000002"><a xlink:href="../../de/d0a/class_item_base.html" target="_top" xlink:title=" ">
<polygon fill="white" stroke="#666666" points="222.5,-188 165.25,-188 165.25,-168 222.5,-168 222.5,-188"/>
<text text-anchor="middle" x="193.88" y="-174.5" font-family="Helvetica,sans-Serif" font-size="10.00">ItemBase</text>
</a>
</g>
</g>
<!-- Node2&#45;&gt;Node1 -->
<g id="edge1_Node000001_Node000002" class="edge">
<title>Node2&#45;&gt;Node1</title>
<g id="a_edge1_Node000001_Node000002"><a xlink:title=" ">
<path fill="none" stroke="#8b1a1a" d="M193.88,-156.13C193.88,-147.9 193.88,-138.85 193.88,-132.3"/>
<polygon fill="#8b1a1a" stroke="#8b1a1a" points="190.38,-156.08 193.88,-166.08 197.38,-156.08 190.38,-156.08"/>
</a>
</g>
</g>
<!-- Node7 -->
<g id="Node000007" class="node">
<title>Node7</title>
<g id="a_Node000007"><a xlink:href="../../db/d02/class_waterproof_bag___green.html" target="_top" xlink:title=" ">
<polygon fill="white" stroke="#666666" points="378.88,-20 266.88,-20 266.88,0 378.88,0 378.88,-20"/>
<text text-anchor="middle" x="322.88" y="-6.5" font-family="Helvetica,sans-Serif" font-size="10.00">WaterproofBag_Green</text>
</a>
</g>
</g>
<!-- Node6&#45;&gt;Node7 -->
<g id="edge6_Node000006_Node000007" class="edge">
<title>Node6&#45;&gt;Node7</title>
<g id="a_edge6_Node000006_Node000007"><a xlink:title=" ">
<path fill="none" stroke="#8b1a1a" d="M369.28,-48.4C357.82,-39.17 343.98,-28.01 334.41,-20.3"/>
<polygon fill="#8b1a1a" stroke="#8b1a1a" points="367.04,-51.09 377.03,-54.64 371.44,-45.64 367.04,-51.09"/>
</a>
</g>
</g>
<!-- Node8 -->
<g id="Node000008" class="node">
<title>Node8</title>
<g id="a_Node000008"><a xlink:href="../../d3/d03/class_waterproof_bag___orange.html" target="_top" xlink:title=" ">
<polygon fill="white" stroke="#666666" points="514.5,-20 397.25,-20 397.25,0 514.5,0 514.5,-20"/>
<text text-anchor="middle" x="455.88" y="-6.5" font-family="Helvetica,sans-Serif" font-size="10.00">WaterproofBag_Orange</text>
</a>
</g>
</g>
<!-- Node6&#45;&gt;Node8 -->
<g id="edge7_Node000006_Node000008" class="edge">
<title>Node6&#45;&gt;Node8</title>
<g id="a_edge7_Node000006_Node000008"><a xlink:title=" ">
<path fill="none" stroke="#8b1a1a" d="M410.16,-48.4C421.45,-39.17 435.09,-28.01 444.51,-20.3"/>
<polygon fill="#8b1a1a" stroke="#8b1a1a" points="408.07,-45.59 402.54,-54.64 412.5,-51.01 408.07,-45.59"/>
</a>
</g>
</g>
</g>
</svg>

<g id="navigator" transform="translate(0 0)" fill="#404254">
  <rect fill="#f2f5e9" fill-opacity="0.5" stroke="#606060" stroke-width=".5" x="0" y="0" width="60" height="60"/>
  <use id="zoomplus" xlink:href="#zoomPlus" x="17" y="9" onmousedown="handleZoom(evt,'in')"/>
  <use id="zoomminus" xlink:href="#zoomMin" x="42" y="9" onmousedown="handleZoom(evt,'out')"/>
  <use id="reset" xlink:href="#resetDef" x="30" y="36" onmousedown="handleReset()"/>
   <use id="arrowup" xlink:href="#arrowUp" x="0" y="0" onmousedown="handlePan(0,-1)"/>
  <use id="arrowright" xlink:href="#arrowRight" x="0" y="0" onmousedown="handlePan(1,0)"/>
  <use id="arrowdown" xlink:href="#arrowDown" x="0" y="0" onmousedown="handlePan(0,1)"/>
  <use id="arrowleft" xlink:href="#arrowLeft" x="0" y="0" onmousedown="handlePan(-1,0)"/>
</g>
<svg viewBox="0 0 15 15" width="100%" height="30px" preserveAspectRatio="xMaxYMin meet">
 <g id="arrow_out" transform="scale(0.3 0.3)">
  <a xlink:href="class_container___base__inherit__graph_org.svg" target="_base">
   <rect id="button" ry="5" rx="5" y="6" x="6" height="38" width="38"
        fill="#f2f5e9" fill-opacity="0.5" stroke="#606060" stroke-width="1.0"/>
   <path id="arrow"
     d="M 11.500037,31.436501 C 11.940474,20.09759 22.043105,11.32322 32.158766,21.979434 L 37.068811,17.246167 C 37.068811,17.246167 37.088388,32 37.088388,32 L 22.160133,31.978069 C 22.160133,31.978069 26.997745,27.140456 26.997745,27.140456 C 18.528582,18.264221 13.291696,25.230495 11.500037,31.436501 z"
     style="fill:#404040;"/>
  </a>
 </g>
</svg>

<style type='text/css'>
<![CDATA[
[data-mouse-over-selected='false'] { opacity: 0.7; }
[data-mouse-over-selected='true']  { opacity: 1.0; }
]]>
</style>
<script type="application/ecmascript"><![CDATA[
document.addEventListener('DOMContentLoaded', (event) => {
  highlightEdges();
  highlightAdjacentNodes();
});
]]></script>
</svg>
