<?xml version="1.0" encoding="UTF-8" standalone="no"?>
<!DOCTYPE svg PUBLIC "-//W3C//DTD SVG 1.1//EN"
 "http://www.w3.org/Graphics/SVG/1.1/DTD/svg11.dtd">
<!-- Generated by graphviz version 11.0.0 (20240428.1522)
 -->
<!-- Title: ITEM_HitIndicationData Pages: 1 -->
<!--zoomable 136 -->

<svg id="main" version="1.1" xmlns="http://www.w3.org/2000/svg" xmlns:xlink="http://www.w3.org/1999/xlink" xml:space="preserve" onload="init(evt)">
<style type="text/css"><![CDATA[
.node, .edge {opacity: 0.7;}
.node.selected, .edge.selected {opacity: 1;}
.edge:hover path { stroke: red; }
.edge:hover polygon { stroke: red; fill: red; }
]]></style>

<defs>
  <circle id="rim" cx="0" cy="0" r="7"/>
  <circle id="rim2" cx="0" cy="0" r="3.5"/>
  <g id="zoomPlus">
    <use xlink:href="#rim" fill="#404040"><set attributeName="fill" to="#808080" begin="zoomplus.mouseover" end="zoomplus.mouseout"/></use>
    <path d="M-4,0h8M0,-4v8" fill="none" stroke="white" stroke-width="1.5" pointer-events="none"/>
  </g>
  <g id="zoomMin">
    <use xlink:href="#rim" fill="#404040"><set attributeName="fill" to="#808080" begin="zoomminus.mouseover" end="zoomminus.mouseout"/></use>
    <path d="M-4,0h8" fill="none" stroke="white" stroke-width="1.5" pointer-events="none"/>
  </g>
  <g id="arrowUp" transform="translate(30 24)">
    <use xlink:href="#rim"/>
    <path pointer-events="none" fill="none" stroke="white" stroke-width="1.5" d="M0,-3.0v7 M-2.5,-0.5L0,-3.0L2.5,-0.5"/>
  </g>
  <g id="arrowRight" transform="rotate(90) translate(36 -43)">
    <use xlink:href="#rim"/>
    <path pointer-events="none" fill="none" stroke="white" stroke-width="1.5" d="M0,-3.0v7 M-2.5,-0.5L0,-3.0L2.5,-0.5"/>
  </g>
  <g id="arrowDown" transform="rotate(180) translate(-30 -48)">
    <use xlink:href="#rim"/>
    <path pointer-events="none" fill="none" stroke="white" stroke-width="1.5" d="M0,-3.0v7 M-2.5,-0.5L0,-3.0L2.5,-0.5"/>
  </g>
  <g id="arrowLeft" transform="rotate(270) translate(-36 17)">
    <use xlink:href="#rim"/>
    <path pointer-events="none" fill="none" stroke="white" stroke-width="1.5" d="M0,-3.0v7 M-2.5,-0.5L0,-3.0L2.5,-0.5"/>
  </g>
  <g id="resetDef">
    <use xlink:href="#rim2" fill="#404040"><set attributeName="fill" to="#808080" begin="reset.mouseover" end="reset.mouseout"/></use>
  </g>
</defs>
<script type="application/ecmascript">
var viewWidth = 689;
var viewHeight = 136;
var sectionId = 'dynsection-1';
</script>
<script type="application/ecmascript" xlink:href="../../svg.min.js"/>
<svg id="graph" class="graph">
<g id="viewport">
<title>ITEM_HitIndicationData</title>
<!-- Node1 -->
<g id="Node000001" class="node">
<title>Node1</title>
<g id="a_Node000001"><a xlink:title=" ">
<polygon fill="#999999" stroke="#666666" points="345.88,-20 228.62,-20 228.62,0 345.88,0 345.88,-20"/>
<text text-anchor="middle" x="287.25" y="-6.5" font-family="Helvetica,sans-Serif" font-size="10.00">ITEM_HitIndicationData</text>
</a>
</g>
</g>
<!-- Node2 -->
<g id="Node000002" class="node">
<title>Node2</title>
<g id="a_Node000002"><a xlink:href="../../d8/d04/class_i_t_e_m___data_base.html" target="_top" xlink:title=" ">
<polygon fill="white" stroke="#666666" points="86.5,-120 0,-120 0,-100 86.5,-100 86.5,-120"/>
<text text-anchor="middle" x="43.25" y="-106.5" font-family="Helvetica,sans-Serif" font-size="10.00">ITEM_DataBase</text>
</a>
</g>
</g>
<!-- Node2&#45;&gt;Node1 -->
<g id="edge1_Node000001_Node000002" class="edge">
<title>Node2&#45;&gt;Node1</title>
<g id="a_edge1_Node000001_Node000002"><a xlink:title=" ">
<path fill="none" stroke="#8b1a1a" d="M57.31,-90.74C71.17,-74.14 93.9,-50.41 119.25,-38 153.08,-21.44 194.88,-14.67 228.33,-12.06"/>
<polygon fill="#8b1a1a" stroke="#8b1a1a" points="54.72,-88.38 51.18,-98.36 60.17,-92.77 54.72,-88.38"/>
</a>
</g>
</g>
<!-- Node3 -->
<g id="Node000003" class="node">
<title>Node3</title>
<g id="a_Node000003"><a xlink:href="../../d9/d09/classbool.html" target="_top" xlink:title=" ">
<polygon fill="white" stroke="#666666" points="138.25,-120 104.25,-120 104.25,-100 138.25,-100 138.25,-120"/>
<text text-anchor="middle" x="121.25" y="-106.5" font-family="Helvetica,sans-Serif" font-size="10.00">bool</text>
</a>
</g>
</g>
<!-- Node3&#45;&gt;Node1 -->
<g id="edge2_Node000001_Node000003" class="edge">
<title>Node3&#45;&gt;Node1</title>
<g id="a_edge2_Node000001_Node000003"><a xlink:title=" ">
<path fill="none" stroke="#9a32cd" stroke-dasharray="5,2" d="M121.08,-88.19C122.12,-72.19 126.27,-50.71 140,-38 152.87,-26.08 193.12,-19.22 228.29,-15.41"/>
<polygon fill="#9a32cd" stroke="#9a32cd" points="117.58,-87.99 120.83,-98.08 124.58,-88.17 117.58,-87.99"/>
</a>
</g>
<text text-anchor="middle" x="211.88" y="-58.5" font-family="Helvetica,sans-Serif" font-size="10.00" fill="grey"> hitDirectionOverrideEnabled</text>
<text text-anchor="middle" x="211.88" y="-46.5" font-family="Helvetica,sans-Serif" font-size="10.00" fill="grey">hitIndicationPostProcessEnabled</text>
</g>
<!-- Node4 -->
<g id="Node000004" class="node">
<title>Node4</title>
<g id="a_Node000004"><a xlink:href="../../db/d06/class_param3.html" target="_top" xlink:title=" ">
<polygon fill="white" stroke="#666666" points="312.12,-120 262.38,-120 262.38,-100 312.12,-100 312.12,-120"/>
<text text-anchor="middle" x="287.25" y="-106.5" font-family="Helvetica,sans-Serif" font-size="10.00">Param3</text>
</a>
</g>
</g>
<!-- Node4&#45;&gt;Node1 -->
<g id="edge3_Node000001_Node000004" class="edge">
<title>Node4&#45;&gt;Node1</title>
<g id="a_edge3_Node000001_Node000004"><a xlink:title=" ">
<path fill="none" stroke="#9a32cd" stroke-dasharray="5,2" d="M287.25,-88.1C287.25,-67.09 287.25,-35.66 287.25,-20.23"/>
<polygon fill="#9a32cd" stroke="#9a32cd" points="283.75,-88.09 287.25,-98.09 290.75,-88.09 283.75,-88.09"/>
</a>
</g>
<text text-anchor="middle" x="334.12" y="-58.5" font-family="Helvetica,sans-Serif" font-size="10.00" fill="grey"> hitDirectionBehaviour</text>
<text text-anchor="middle" x="334.12" y="-46.5" font-family="Helvetica,sans-Serif" font-size="10.00" fill="grey">hitDirectionStyle</text>
</g>
<!-- Node5 -->
<g id="Node000005" class="node">
<title>Node5</title>
<g id="a_Node000005"><a xlink:href="../../d5/d02/classstring.html" target="_top" xlink:title=" ">
<polygon fill="white" stroke="#666666" points="424.25,-120 384.25,-120 384.25,-100 424.25,-100 424.25,-120"/>
<text text-anchor="middle" x="404.25" y="-106.5" font-family="Helvetica,sans-Serif" font-size="10.00">string</text>
</a>
</g>
</g>
<!-- Node5&#45;&gt;Node1 -->
<g id="edge4_Node000001_Node000005" class="edge">
<title>Node5&#45;&gt;Node1</title>
<g id="a_edge4_Node000001_Node000005"><a xlink:title=" ">
<path fill="none" stroke="#9a32cd" stroke-dasharray="5,2" d="M403.05,-88.48C401.04,-72.63 395.8,-51.23 382.25,-38 372.44,-28.42 359.48,-22.18 346.3,-18.15"/>
<polygon fill="#9a32cd" stroke="#9a32cd" points="399.55,-88.59 403.93,-98.23 406.52,-87.96 399.55,-88.59"/>
</a>
</g>
<text text-anchor="middle" x="461.12" y="-52.5" font-family="Helvetica,sans-Serif" font-size="10.00" fill="grey"> hitDirectionIndicatorColorStr</text>
</g>
<!-- Node5&#45;&gt;Node5 -->
<g id="edge5_Node000005_Node000005" class="edge">
<title>Node5&#45;&gt;Node5</title>
<g id="a_edge5_Node000005_Node000005"><a xlink:title=" ">
<path fill="none" stroke="#9a32cd" stroke-dasharray="5,2" d="M436.01,-118.69C439.79,-117.11 442.25,-114.21 442.25,-110 442.25,-102.3 434.01,-98.99 424.58,-100.08"/>
<polygon fill="#9a32cd" stroke="#9a32cd" points="435.65,-115.21 426.08,-119.76 436.4,-122.17 435.65,-115.21"/>
</a>
</g>
<text text-anchor="middle" x="458" y="-106.5" font-family="Helvetica,sans-Serif" font-size="10.00" fill="grey"> Empty</text>
</g>
<!-- Node6 -->
<g id="Node000006" class="node">
<title>Node6</title>
<g id="a_Node000006"><a xlink:href="../../d4/d03/classfloat.html" target="_top" xlink:title=" ">
<polygon fill="white" stroke="#666666" points="568.25,-120 534.25,-120 534.25,-100 568.25,-100 568.25,-120"/>
<text text-anchor="middle" x="551.25" y="-106.5" font-family="Helvetica,sans-Serif" font-size="10.00">float</text>
</a>
</g>
</g>
<!-- Node6&#45;&gt;Node1 -->
<g id="edge6_Node000001_Node000006" class="edge">
<title>Node6&#45;&gt;Node1</title>
<g id="a_edge6_Node000001_Node000006"><a xlink:title=" ">
<path fill="none" stroke="#9a32cd" stroke-dasharray="5,2" d="M550.12,-88.8C548.06,-72.46 542.43,-50.23 527.25,-38 500.28,-16.26 408.12,-11.34 346.18,-10.58"/>
<polygon fill="#9a32cd" stroke="#9a32cd" points="546.6,-88.72 550.97,-98.37 553.57,-88.11 546.6,-88.72"/>
</a>
</g>
<text text-anchor="middle" x="614" y="-64.5" font-family="Helvetica,sans-Serif" font-size="10.00" fill="grey"> hitDirectionBreakPointRelative</text>
<text text-anchor="middle" x="614" y="-52.5" font-family="Helvetica,sans-Serif" font-size="10.00" fill="grey">hitDirectionMaxDuration</text>
<text text-anchor="middle" x="614" y="-40.5" font-family="Helvetica,sans-Serif" font-size="10.00" fill="grey">hitDirectionScatter</text>
</g>
<!-- Node6&#45;&gt;Node6 -->
<g id="edge7_Node000006_Node000006" class="edge">
<title>Node6&#45;&gt;Node6</title>
<g id="a_edge7_Node000006_Node000006"><a xlink:title=" ">
<path fill="none" stroke="#9a32cd" stroke-dasharray="5,2" d="M579.92,-118.94C583.72,-117.42 586.25,-114.44 586.25,-110 586.25,-101.88 577.81,-98.64 568.54,-100.29"/>
<polygon fill="#9a32cd" stroke="#9a32cd" points="579.79,-115.44 570.05,-119.61 580.26,-122.43 579.79,-115.44"/>
</a>
</g>
<text text-anchor="middle" x="608.38" y="-118.5" font-family="Helvetica,sans-Serif" font-size="10.00" fill="grey"> LOWEST</text>
<text text-anchor="middle" x="608.38" y="-106.5" font-family="Helvetica,sans-Serif" font-size="10.00" fill="grey">MAX</text>
<text text-anchor="middle" x="608.38" y="-94.5" font-family="Helvetica,sans-Serif" font-size="10.00" fill="grey">MIN</text>
</g>
</g>
</svg>

<g id="navigator" transform="translate(0 0)" fill="#404254">
  <rect fill="#f2f5e9" fill-opacity="0.5" stroke="#606060" stroke-width=".5" x="0" y="0" width="60" height="60"/>
  <use id="zoomplus" xlink:href="#zoomPlus" x="17" y="9" onmousedown="handleZoom(evt,'in')"/>
  <use id="zoomminus" xlink:href="#zoomMin" x="42" y="9" onmousedown="handleZoom(evt,'out')"/>
  <use id="reset" xlink:href="#resetDef" x="30" y="36" onmousedown="handleReset()"/>
   <use id="arrowup" xlink:href="#arrowUp" x="0" y="0" onmousedown="handlePan(0,-1)"/>
  <use id="arrowright" xlink:href="#arrowRight" x="0" y="0" onmousedown="handlePan(1,0)"/>
  <use id="arrowdown" xlink:href="#arrowDown" x="0" y="0" onmousedown="handlePan(0,1)"/>
  <use id="arrowleft" xlink:href="#arrowLeft" x="0" y="0" onmousedown="handlePan(-1,0)"/>
</g>
<svg viewBox="0 0 15 15" width="100%" height="30px" preserveAspectRatio="xMaxYMin meet">
 <g id="arrow_out" transform="scale(0.3 0.3)">
  <a xlink:href="class_i_t_e_m___hit_indication_data__coll__graph_org.svg" target="_base">
   <rect id="button" ry="5" rx="5" y="6" x="6" height="38" width="38"
        fill="#f2f5e9" fill-opacity="0.5" stroke="#606060" stroke-width="1.0"/>
   <path id="arrow"
     d="M 11.500037,31.436501 C 11.940474,20.09759 22.043105,11.32322 32.158766,21.979434 L 37.068811,17.246167 C 37.068811,17.246167 37.088388,32 37.088388,32 L 22.160133,31.978069 C 22.160133,31.978069 26.997745,27.140456 26.997745,27.140456 C 18.528582,18.264221 13.291696,25.230495 11.500037,31.436501 z"
     style="fill:#404040;"/>
  </a>
 </g>
</svg>

<style type='text/css'>
<![CDATA[
[data-mouse-over-selected='false'] { opacity: 0.7; }
[data-mouse-over-selected='true']  { opacity: 1.0; }
]]>
</style>
<script type="application/ecmascript"><![CDATA[
document.addEventListener('DOMContentLoaded', (event) => {
  highlightEdges();
  highlightAdjacentNodes();
});
]]></script>
</svg>
