<?xml version="1.0" encoding="UTF-8" standalone="no"?>
<!DOCTYPE svg PUBLIC "-//W3C//DTD SVG 1.1//EN"
 "http://www.w3.org/Graphics/SVG/1.1/DTD/svg11.dtd">
<!-- Generated by graphviz version 11.0.0 (20240428.1522)
 -->
<!-- Title: ITEM_HitIndicationData Pages: 1 -->
<svg width="689pt" height="136pt"
 viewBox="0.00 0.00 688.75 136.00" xmlns="http://www.w3.org/2000/svg" xmlns:xlink="http://www.w3.org/1999/xlink">
<g id="graph0" class="graph" transform="scale(1 1) rotate(0) translate(4 132)">
<title>ITEM_HitIndicationData</title>
<!-- Node1 -->
<g id="Node000001" class="node">
<title>Node1</title>
<g id="a_Node000001"><a xlink:title=" ">
<polygon fill="#999999" stroke="#666666" points="345.88,-20 228.62,-20 228.62,0 345.88,0 345.88,-20"/>
<text text-anchor="middle" x="287.25" y="-6.5" font-family="Helvetica,sans-Serif" font-size="10.00">ITEM_HitIndicationData</text>
</a>
</g>
</g>
<!-- Node2 -->
<g id="Node000002" class="node">
<title>Node2</title>
<g id="a_Node000002"><a xlink:href="../../d8/d04/class_i_t_e_m___data_base.html" target="_top" xlink:title=" ">
<polygon fill="white" stroke="#666666" points="86.5,-120 0,-120 0,-100 86.5,-100 86.5,-120"/>
<text text-anchor="middle" x="43.25" y="-106.5" font-family="Helvetica,sans-Serif" font-size="10.00">ITEM_DataBase</text>
</a>
</g>
</g>
<!-- Node2&#45;&gt;Node1 -->
<g id="edge1_Node000001_Node000002" class="edge">
<title>Node2&#45;&gt;Node1</title>
<g id="a_edge1_Node000001_Node000002"><a xlink:title=" ">
<path fill="none" stroke="#8b1a1a" d="M57.31,-90.74C71.17,-74.14 93.9,-50.41 119.25,-38 153.08,-21.44 194.88,-14.67 228.33,-12.06"/>
<polygon fill="#8b1a1a" stroke="#8b1a1a" points="54.72,-88.38 51.18,-98.36 60.17,-92.77 54.72,-88.38"/>
</a>
</g>
</g>
<!-- Node3 -->
<g id="Node000003" class="node">
<title>Node3</title>
<g id="a_Node000003"><a xlink:href="../../d9/d09/classbool.html" target="_top" xlink:title=" ">
<polygon fill="white" stroke="#666666" points="138.25,-120 104.25,-120 104.25,-100 138.25,-100 138.25,-120"/>
<text text-anchor="middle" x="121.25" y="-106.5" font-family="Helvetica,sans-Serif" font-size="10.00">bool</text>
</a>
</g>
</g>
<!-- Node3&#45;&gt;Node1 -->
<g id="edge2_Node000001_Node000003" class="edge">
<title>Node3&#45;&gt;Node1</title>
<g id="a_edge2_Node000001_Node000003"><a xlink:title=" ">
<path fill="none" stroke="#9a32cd" stroke-dasharray="5,2" d="M121.08,-88.19C122.12,-72.19 126.27,-50.71 140,-38 152.87,-26.08 193.12,-19.22 228.29,-15.41"/>
<polygon fill="#9a32cd" stroke="#9a32cd" points="117.58,-87.99 120.83,-98.08 124.58,-88.17 117.58,-87.99"/>
</a>
</g>
<text text-anchor="middle" x="211.88" y="-58.5" font-family="Helvetica,sans-Serif" font-size="10.00" fill="grey"> hitDirectionOverrideEnabled</text>
<text text-anchor="middle" x="211.88" y="-46.5" font-family="Helvetica,sans-Serif" font-size="10.00" fill="grey">hitIndicationPostProcessEnabled</text>
</g>
<!-- Node4 -->
<g id="Node000004" class="node">
<title>Node4</title>
<g id="a_Node000004"><a xlink:href="../../db/d06/class_param3.html" target="_top" xlink:title=" ">
<polygon fill="white" stroke="#666666" points="312.12,-120 262.38,-120 262.38,-100 312.12,-100 312.12,-120"/>
<text text-anchor="middle" x="287.25" y="-106.5" font-family="Helvetica,sans-Serif" font-size="10.00">Param3</text>
</a>
</g>
</g>
<!-- Node4&#45;&gt;Node1 -->
<g id="edge3_Node000001_Node000004" class="edge">
<title>Node4&#45;&gt;Node1</title>
<g id="a_edge3_Node000001_Node000004"><a xlink:title=" ">
<path fill="none" stroke="#9a32cd" stroke-dasharray="5,2" d="M287.25,-88.1C287.25,-67.09 287.25,-35.66 287.25,-20.23"/>
<polygon fill="#9a32cd" stroke="#9a32cd" points="283.75,-88.09 287.25,-98.09 290.75,-88.09 283.75,-88.09"/>
</a>
</g>
<text text-anchor="middle" x="334.12" y="-58.5" font-family="Helvetica,sans-Serif" font-size="10.00" fill="grey"> hitDirectionBehaviour</text>
<text text-anchor="middle" x="334.12" y="-46.5" font-family="Helvetica,sans-Serif" font-size="10.00" fill="grey">hitDirectionStyle</text>
</g>
<!-- Node5 -->
<g id="Node000005" class="node">
<title>Node5</title>
<g id="a_Node000005"><a xlink:href="../../d5/d02/classstring.html" target="_top" xlink:title=" ">
<polygon fill="white" stroke="#666666" points="424.25,-120 384.25,-120 384.25,-100 424.25,-100 424.25,-120"/>
<text text-anchor="middle" x="404.25" y="-106.5" font-family="Helvetica,sans-Serif" font-size="10.00">string</text>
</a>
</g>
</g>
<!-- Node5&#45;&gt;Node1 -->
<g id="edge4_Node000001_Node000005" class="edge">
<title>Node5&#45;&gt;Node1</title>
<g id="a_edge4_Node000001_Node000005"><a xlink:title=" ">
<path fill="none" stroke="#9a32cd" stroke-dasharray="5,2" d="M403.05,-88.48C401.04,-72.63 395.8,-51.23 382.25,-38 372.44,-28.42 359.48,-22.18 346.3,-18.15"/>
<polygon fill="#9a32cd" stroke="#9a32cd" points="399.55,-88.59 403.93,-98.23 406.52,-87.96 399.55,-88.59"/>
</a>
</g>
<text text-anchor="middle" x="461.12" y="-52.5" font-family="Helvetica,sans-Serif" font-size="10.00" fill="grey"> hitDirectionIndicatorColorStr</text>
</g>
<!-- Node5&#45;&gt;Node5 -->
<g id="edge5_Node000005_Node000005" class="edge">
<title>Node5&#45;&gt;Node5</title>
<g id="a_edge5_Node000005_Node000005"><a xlink:title=" ">
<path fill="none" stroke="#9a32cd" stroke-dasharray="5,2" d="M436.01,-118.69C439.79,-117.11 442.25,-114.21 442.25,-110 442.25,-102.3 434.01,-98.99 424.58,-100.08"/>
<polygon fill="#9a32cd" stroke="#9a32cd" points="435.65,-115.21 426.08,-119.76 436.4,-122.17 435.65,-115.21"/>
</a>
</g>
<text text-anchor="middle" x="458" y="-106.5" font-family="Helvetica,sans-Serif" font-size="10.00" fill="grey"> Empty</text>
</g>
<!-- Node6 -->
<g id="Node000006" class="node">
<title>Node6</title>
<g id="a_Node000006"><a xlink:href="../../d4/d03/classfloat.html" target="_top" xlink:title=" ">
<polygon fill="white" stroke="#666666" points="568.25,-120 534.25,-120 534.25,-100 568.25,-100 568.25,-120"/>
<text text-anchor="middle" x="551.25" y="-106.5" font-family="Helvetica,sans-Serif" font-size="10.00">float</text>
</a>
</g>
</g>
<!-- Node6&#45;&gt;Node1 -->
<g id="edge6_Node000001_Node000006" class="edge">
<title>Node6&#45;&gt;Node1</title>
<g id="a_edge6_Node000001_Node000006"><a xlink:title=" ">
<path fill="none" stroke="#9a32cd" stroke-dasharray="5,2" d="M550.12,-88.8C548.06,-72.46 542.43,-50.23 527.25,-38 500.28,-16.26 408.12,-11.34 346.18,-10.58"/>
<polygon fill="#9a32cd" stroke="#9a32cd" points="546.6,-88.72 550.97,-98.37 553.57,-88.11 546.6,-88.72"/>
</a>
</g>
<text text-anchor="middle" x="614" y="-64.5" font-family="Helvetica,sans-Serif" font-size="10.00" fill="grey"> hitDirectionBreakPointRelative</text>
<text text-anchor="middle" x="614" y="-52.5" font-family="Helvetica,sans-Serif" font-size="10.00" fill="grey">hitDirectionMaxDuration</text>
<text text-anchor="middle" x="614" y="-40.5" font-family="Helvetica,sans-Serif" font-size="10.00" fill="grey">hitDirectionScatter</text>
</g>
<!-- Node6&#45;&gt;Node6 -->
<g id="edge7_Node000006_Node000006" class="edge">
<title>Node6&#45;&gt;Node6</title>
<g id="a_edge7_Node000006_Node000006"><a xlink:title=" ">
<path fill="none" stroke="#9a32cd" stroke-dasharray="5,2" d="M579.92,-118.94C583.72,-117.42 586.25,-114.44 586.25,-110 586.25,-101.88 577.81,-98.64 568.54,-100.29"/>
<polygon fill="#9a32cd" stroke="#9a32cd" points="579.79,-115.44 570.05,-119.61 580.26,-122.43 579.79,-115.44"/>
</a>
</g>
<text text-anchor="middle" x="608.38" y="-118.5" font-family="Helvetica,sans-Serif" font-size="10.00" fill="grey"> LOWEST</text>
<text text-anchor="middle" x="608.38" y="-106.5" font-family="Helvetica,sans-Serif" font-size="10.00" fill="grey">MAX</text>
<text text-anchor="middle" x="608.38" y="-94.5" font-family="Helvetica,sans-Serif" font-size="10.00" fill="grey">MIN</text>
</g>
</g>
</svg>
