<?xml version="1.0" encoding="UTF-8" standalone="no"?>
<!DOCTYPE svg PUBLIC "-//W3C//DTD SVG 1.1//EN"
 "http://www.w3.org/Graphics/SVG/1.1/DTD/svg11.dtd">
<!-- Generated by graphviz version 11.0.0 (20240428.1522)
 -->
<!-- Title: ItemBase Pages: 1 -->
<svg width="385pt" height="1320pt"
 viewBox="0.00 0.00 384.50 1320.00" xmlns="http://www.w3.org/2000/svg" xmlns:xlink="http://www.w3.org/1999/xlink">
<g id="graph0" class="graph" transform="scale(1 1) rotate(0) translate(4 1316)">
<title>ItemBase</title>
<!-- Node1 -->
<g id="Node000001" class="node">
<title>Node1</title>
<g id="a_Node000001"><a xlink:title=" ">
<polygon fill="#999999" stroke="#666666" points="57.25,-666 0,-666 0,-646 57.25,-646 57.25,-666"/>
<text text-anchor="middle" x="28.62" y="-652.5" font-family="Helvetica,sans-Serif" font-size="10.00">ItemBase</text>
</a>
</g>
</g>
<!-- Node2 -->
<g id="Node000002" class="node">
<title>Node2</title>
<g id="a_Node000002"><a xlink:href="../../dc/d05/class_bait.html" target="_top" xlink:title=" ">
<polygon fill="white" stroke="#666666" points="168.12,-1312 134.88,-1312 134.88,-1292 168.12,-1292 168.12,-1312"/>
<text text-anchor="middle" x="151.5" y="-1298.5" font-family="Helvetica,sans-Serif" font-size="10.00">Bait</text>
</a>
</g>
</g>
<!-- Node1&#45;&gt;Node2 -->
<g id="edge1_Node000001_Node000002" class="edge">
<title>Node1&#45;&gt;Node2</title>
<g id="a_edge1_Node000001_Node000002"><a xlink:title=" ">
<path fill="none" stroke="#8b1a1a" d="M30.44,-677.73C34.59,-782.75 54.57,-1234.75 93.25,-1283 103.14,-1295.34 121.28,-1299.73 134.5,-1301.26"/>
<polygon fill="#8b1a1a" stroke="#8b1a1a" points="33.95,-677.82 30.07,-667.96 26.96,-678.09 33.95,-677.82"/>
</a>
</g>
</g>
<!-- Node3 -->
<g id="Node000003" class="node">
<title>Node3</title>
<g id="a_Node000003"><a xlink:href="../../dd/d09/class_battery9_v.html" target="_top" xlink:title=" ">
<polygon fill="white" stroke="#666666" points="181.25,-1274 121.75,-1274 121.75,-1254 181.25,-1254 181.25,-1274"/>
<text text-anchor="middle" x="151.5" y="-1260.5" font-family="Helvetica,sans-Serif" font-size="10.00">Battery9V</text>
</a>
</g>
</g>
<!-- Node1&#45;&gt;Node3 -->
<g id="edge2_Node000001_Node000003" class="edge">
<title>Node1&#45;&gt;Node3</title>
<g id="a_edge2_Node000001_Node000003"><a xlink:title=" ">
<path fill="none" stroke="#8b1a1a" d="M30.59,-677.66C35.28,-778.61 56.9,-1199.95 93.25,-1245 100.16,-1253.56 111.03,-1258.29 121.45,-1260.9"/>
<polygon fill="#8b1a1a" stroke="#8b1a1a" points="34.09,-677.63 30.14,-667.8 27.1,-677.95 34.09,-677.63"/>
</a>
</g>
</g>
<!-- Node4 -->
<g id="Node000004" class="node">
<title>Node4</title>
<g id="a_Node000004"><a xlink:href="../../d4/d0f/class_battery_d.html" target="_top" xlink:title=" ">
<polygon fill="white" stroke="#666666" points="178.62,-1236 124.38,-1236 124.38,-1216 178.62,-1216 178.62,-1236"/>
<text text-anchor="middle" x="151.5" y="-1222.5" font-family="Helvetica,sans-Serif" font-size="10.00">BatteryD</text>
</a>
</g>
</g>
<!-- Node1&#45;&gt;Node4 -->
<g id="edge3_Node000001_Node000004" class="edge">
<title>Node1&#45;&gt;Node4</title>
<g id="a_edge3_Node000001_Node000004"><a xlink:title=" ">
<path fill="none" stroke="#8b1a1a" d="M30.75,-677.46C35.99,-774 59.2,-1165.12 93.25,-1207 100.78,-1216.26 112.96,-1221.04 124.15,-1223.5"/>
<polygon fill="#8b1a1a" stroke="#8b1a1a" points="34.25,-677.39 30.22,-667.59 27.26,-677.76 34.25,-677.39"/>
</a>
</g>
</g>
<!-- Node5 -->
<g id="Node000005" class="node">
<title>Node5</title>
<g id="a_Node000005"><a xlink:href="../../d7/d0b/class_bone.html" target="_top" xlink:title=" ">
<polygon fill="white" stroke="#666666" points="170.75,-1198 132.25,-1198 132.25,-1178 170.75,-1178 170.75,-1198"/>
<text text-anchor="middle" x="151.5" y="-1184.5" font-family="Helvetica,sans-Serif" font-size="10.00">Bone</text>
</a>
</g>
</g>
<!-- Node1&#45;&gt;Node5 -->
<g id="edge4_Node000001_Node000005" class="edge">
<title>Node1&#45;&gt;Node5</title>
<g id="a_edge4_Node000001_Node000005"><a xlink:title=" ">
<path fill="none" stroke="#8b1a1a" d="M29.34,-677.4C28.63,-764.61 30.26,-1092.19 93.25,-1169 102.61,-1180.42 119.03,-1185.02 131.89,-1186.85"/>
<polygon fill="#8b1a1a" stroke="#8b1a1a" points="32.84,-677.69 29.45,-667.65 25.84,-677.61 32.84,-677.69"/>
</a>
</g>
</g>
<!-- Node6 -->
<g id="Node000006" class="node">
<title>Node6</title>
<g id="a_Node000006"><a xlink:href="../../da/d0b/class_bone_bait.html" target="_top" xlink:title=" ">
<polygon fill="white" stroke="#666666" points="179.38,-1160 123.62,-1160 123.62,-1140 179.38,-1140 179.38,-1160"/>
<text text-anchor="middle" x="151.5" y="-1146.5" font-family="Helvetica,sans-Serif" font-size="10.00">BoneBait</text>
</a>
</g>
</g>
<!-- Node1&#45;&gt;Node6 -->
<g id="edge5_Node000001_Node000006" class="edge">
<title>Node1&#45;&gt;Node6</title>
<g id="a_edge5_Node000001_Node000006"><a xlink:title=" ">
<path fill="none" stroke="#8b1a1a" d="M29.58,-677.65C29.85,-761.07 34.94,-1060.6 93.25,-1131 100.67,-1139.95 112.41,-1144.71 123.34,-1147.23"/>
<polygon fill="#8b1a1a" stroke="#8b1a1a" points="33.08,-677.69 29.57,-667.69 26.08,-677.7 33.08,-677.69"/>
</a>
</g>
</g>
<!-- Node7 -->
<g id="Node000007" class="node">
<title>Node7</title>
<g id="a_Node000007"><a xlink:href="../../da/d0e/class_bone_hook.html" target="_top" xlink:title=" ">
<polygon fill="white" stroke="#666666" points="182,-1122 121,-1122 121,-1102 182,-1102 182,-1122"/>
<text text-anchor="middle" x="151.5" y="-1108.5" font-family="Helvetica,sans-Serif" font-size="10.00">BoneHook</text>
</a>
</g>
</g>
<!-- Node1&#45;&gt;Node7 -->
<g id="edge6_Node000001_Node000007" class="edge">
<title>Node1&#45;&gt;Node7</title>
<g id="a_edge6_Node000001_Node000007"><a xlink:title=" ">
<path fill="none" stroke="#8b1a1a" d="M29.86,-677.42C31.15,-756.23 39.49,-1028.85 93.25,-1093 100.11,-1101.19 110.59,-1105.87 120.72,-1108.53"/>
<polygon fill="#8b1a1a" stroke="#8b1a1a" points="33.36,-677.59 29.72,-667.64 26.36,-677.69 33.36,-677.59"/>
</a>
</g>
</g>
<!-- Node8 -->
<g id="Node000008" class="node">
<title>Node8</title>
<g id="a_Node000008"><a xlink:href="../../d6/d0d/class_burlap_strip.html" target="_top" xlink:title=" ">
<polygon fill="white" stroke="#666666" points="183.5,-1084 119.5,-1084 119.5,-1064 183.5,-1064 183.5,-1084"/>
<text text-anchor="middle" x="151.5" y="-1070.5" font-family="Helvetica,sans-Serif" font-size="10.00">BurlapStrip</text>
</a>
</g>
</g>
<!-- Node1&#45;&gt;Node8 -->
<g id="edge7_Node000001_Node000008" class="edge">
<title>Node1&#45;&gt;Node8</title>
<g id="a_edge7_Node000001_Node000008"><a xlink:title=" ">
<path fill="none" stroke="#8b1a1a" d="M30.19,-677.46C32.58,-751.82 44.09,-997.14 93.25,-1055 99.83,-1062.74 109.64,-1067.34 119.29,-1070.08"/>
<polygon fill="#8b1a1a" stroke="#8b1a1a" points="33.7,-677.74 29.91,-667.85 26.7,-677.95 33.7,-677.74"/>
</a>
</g>
</g>
<!-- Node9 -->
<g id="Node000009" class="node">
<title>Node9</title>
<g id="a_Node000009"><a xlink:href="../../d4/d08/class_butane_canister.html" target="_top" xlink:title=" ">
<polygon fill="white" stroke="#666666" points="192.88,-1046 110.12,-1046 110.12,-1026 192.88,-1026 192.88,-1046"/>
<text text-anchor="middle" x="151.5" y="-1032.5" font-family="Helvetica,sans-Serif" font-size="10.00">ButaneCanister</text>
</a>
</g>
</g>
<!-- Node1&#45;&gt;Node9 -->
<g id="edge8_Node000001_Node000009" class="edge">
<title>Node1&#45;&gt;Node9</title>
<g id="a_edge8_Node000001_Node000009"><a xlink:title=" ">
<path fill="none" stroke="#8b1a1a" d="M30.6,-677.63C34.16,-747.48 48.7,-965.43 93.25,-1017 97.7,-1022.15 103.58,-1025.91 109.88,-1028.66"/>
<polygon fill="#8b1a1a" stroke="#8b1a1a" points="34.11,-677.72 30.13,-667.9 27.11,-678.06 34.11,-677.72"/>
</a>
</g>
</g>
<!-- Node10 -->
<g id="Node000010" class="node">
<title>Node10</title>
<g id="a_Node000010"><a xlink:href="../../de/d06/class_camo_net_shelter.html" target="_top" xlink:title=" ">
<polygon fill="white" stroke="#666666" points="195.12,-1008 107.88,-1008 107.88,-988 195.12,-988 195.12,-1008"/>
<text text-anchor="middle" x="151.5" y="-994.5" font-family="Helvetica,sans-Serif" font-size="10.00">CamoNetShelter</text>
</a>
</g>
</g>
<!-- Node1&#45;&gt;Node10 -->
<g id="edge9_Node000001_Node000010" class="edge">
<title>Node1&#45;&gt;Node10</title>
<g id="a_edge9_Node000001_Node000010"><a xlink:title=" ">
<path fill="none" stroke="#8b1a1a" d="M31.08,-677.43C35.87,-742.09 53.22,-933.58 93.25,-979 97.2,-983.48 102.22,-986.9 107.66,-989.52"/>
<polygon fill="#8b1a1a" stroke="#8b1a1a" points="34.59,-677.51 30.39,-667.78 27.61,-678 34.59,-677.51"/>
</a>
</g>
</g>
<!-- Node11 -->
<g id="Node000011" class="node">
<title>Node11</title>
<g id="a_Node000011"><a xlink:href="../../d0/d03/class_cattle_prod.html" target="_top" xlink:title=" ">
<polygon fill="white" stroke="#666666" points="182.38,-970 120.62,-970 120.62,-950 182.38,-950 182.38,-970"/>
<text text-anchor="middle" x="151.5" y="-956.5" font-family="Helvetica,sans-Serif" font-size="10.00">CattleProd</text>
</a>
</g>
</g>
<!-- Node1&#45;&gt;Node11 -->
<g id="edge10_Node000001_Node000011" class="edge">
<title>Node1&#45;&gt;Node11</title>
<g id="a_edge10_Node000001_Node000011"><a xlink:title=" ">
<path fill="none" stroke="#8b1a1a" d="M31.71,-677.58C37.86,-737.1 57.78,-901.76 93.25,-941 100.2,-948.69 110.34,-953.27 120.16,-956"/>
<polygon fill="#8b1a1a" stroke="#8b1a1a" points="35.2,-677.38 30.72,-667.78 28.24,-678.08 35.2,-677.38"/>
</a>
</g>
</g>
<!-- Node12 -->
<g id="Node000012" class="node">
<title>Node12</title>
<g id="a_Node000012"><a xlink:href="../../d8/d01/class_chemlight___color_base.html" target="_top" xlink:title=" ">
<polygon fill="white" stroke="#666666" points="206.38,-932 96.62,-932 96.62,-912 206.38,-912 206.38,-932"/>
<text text-anchor="middle" x="151.5" y="-918.5" font-family="Helvetica,sans-Serif" font-size="10.00">Chemlight_ColorBase</text>
</a>
</g>
</g>
<!-- Node1&#45;&gt;Node12 -->
<g id="edge11_Node000001_Node000012" class="edge">
<title>Node1&#45;&gt;Node12</title>
<g id="a_edge11_Node000001_Node000012"><a xlink:title=" ">
<path fill="none" stroke="#8b1a1a" d="M28.74,-677.54C28.01,-724.8 33.03,-838.52 93.25,-903 96.47,-906.44 100.32,-909.26 104.49,-911.57"/>
<polygon fill="#8b1a1a" stroke="#8b1a1a" points="32.23,-677.91 29.01,-667.82 25.23,-677.72 32.23,-677.91"/>
</a>
</g>
</g>
<!-- Node18 -->
<g id="Node000018" class="node">
<title>Node18</title>
<g id="a_Node000018"><a xlink:href="../../d1/d04/class_container___base.html" target="_top" xlink:title=" ">
<polygon fill="white" stroke="#666666" points="194,-894 109,-894 109,-874 194,-874 194,-894"/>
<text text-anchor="middle" x="151.5" y="-880.5" font-family="Helvetica,sans-Serif" font-size="10.00">Container_Base</text>
</a>
</g>
</g>
<!-- Node1&#45;&gt;Node18 -->
<g id="edge17_Node000001_Node000018" class="edge">
<title>Node1&#45;&gt;Node18</title>
<g id="a_edge17_Node000001_Node000018"><a xlink:title=" ">
<path fill="none" stroke="#8b1a1a" d="M29.97,-677.61C31.83,-719.52 41.89,-812.34 93.25,-865 97.56,-869.42 102.93,-872.82 108.64,-875.42"/>
<polygon fill="#8b1a1a" stroke="#8b1a1a" points="33.48,-677.74 29.67,-667.85 26.48,-677.96 33.48,-677.74"/>
</a>
</g>
</g>
<!-- Node25 -->
<g id="Node000025" class="node">
<title>Node25</title>
<g id="a_Node000025"><a xlink:href="../../d8/d04/class_duct_tape.html" target="_top" xlink:title=" ">
<polygon fill="white" stroke="#666666" points="180.12,-856 122.88,-856 122.88,-836 180.12,-836 180.12,-856"/>
<text text-anchor="middle" x="151.5" y="-842.5" font-family="Helvetica,sans-Serif" font-size="10.00">DuctTape</text>
</a>
</g>
</g>
<!-- Node1&#45;&gt;Node25 -->
<g id="edge22_Node000001_Node000025" class="edge">
<title>Node1&#45;&gt;Node25</title>
<g id="a_edge22_Node000001_Node000025"><a xlink:title=" ">
<path fill="none" stroke="#8b1a1a" d="M31.65,-677.12C36.19,-712.93 50.43,-785.68 93.25,-827 101.16,-834.64 112.22,-839.2 122.5,-841.94"/>
<polygon fill="#8b1a1a" stroke="#8b1a1a" points="35.17,-677.16 30.58,-667.61 28.22,-677.94 35.17,-677.16"/>
</a>
</g>
</g>
<!-- Node26 -->
<g id="Node000026" class="node">
<title>Node26</title>
<g id="a_Node000026"><a xlink:href="../../df/d0c/class_edible___base.html" target="_top" xlink:title=" ">
<polygon fill="#fff0f0" stroke="red" points="186.88,-818 116.12,-818 116.12,-798 186.88,-798 186.88,-818"/>
<text text-anchor="middle" x="151.5" y="-804.5" font-family="Helvetica,sans-Serif" font-size="10.00">Edible_Base</text>
</a>
</g>
</g>
<!-- Node1&#45;&gt;Node26 -->
<g id="edge23_Node000001_Node000026" class="edge">
<title>Node1&#45;&gt;Node26</title>
<g id="a_edge23_Node000001_Node000026"><a xlink:title=" ">
<path fill="none" stroke="#8b1a1a" d="M34.27,-677.31C41.74,-706.56 59.14,-758.93 93.25,-789 99.61,-794.61 107.68,-798.57 115.74,-801.37"/>
<polygon fill="#8b1a1a" stroke="#8b1a1a" points="37.73,-676.72 32.01,-667.8 30.92,-678.33 37.73,-676.72"/>
</a>
</g>
</g>
<!-- Node80 -->
<g id="Node000080" class="node">
<title>Node80</title>
<g id="a_Node000080"><a xlink:href="../../db/d0b/class_farming_hoe.html" target="_top" xlink:title=" ">
<polygon fill="white" stroke="#666666" points="185.75,-780 117.25,-780 117.25,-760 185.75,-760 185.75,-780"/>
<text text-anchor="middle" x="151.5" y="-766.5" font-family="Helvetica,sans-Serif" font-size="10.00">FarmingHoe</text>
</a>
</g>
</g>
<!-- Node1&#45;&gt;Node80 -->
<g id="edge28_Node000001_Node000080" class="edge">
<title>Node1&#45;&gt;Node80</title>
<g id="a_edge28_Node000001_Node000080"><a xlink:title=" ">
<path fill="none" stroke="#8b1a1a" d="M38.41,-676.51C48.61,-698.01 67.41,-731.33 93.25,-751 100.17,-756.26 108.62,-760.11 116.88,-762.91"/>
<polygon fill="#8b1a1a" stroke="#8b1a1a" points="41.68,-675.26 34.37,-667.59 35.31,-678.15 41.68,-675.26"/>
</a>
</g>
</g>
<!-- Node81 -->
<g id="Node000081" class="node">
<title>Node81</title>
<g id="a_Node000081"><a xlink:href="../../d9/d06/class_fishing_rod___base___new.html" target="_top" xlink:title=" ">
<polygon fill="#fff0f0" stroke="red" points="209.75,-742 93.25,-742 93.25,-722 209.75,-722 209.75,-742"/>
<text text-anchor="middle" x="151.5" y="-728.5" font-family="Helvetica,sans-Serif" font-size="10.00">FishingRod_Base_New</text>
</a>
</g>
</g>
<!-- Node1&#45;&gt;Node81 -->
<g id="edge29_Node000001_Node000081" class="edge">
<title>Node1&#45;&gt;Node81</title>
<g id="a_edge29_Node000001_Node000081"><a xlink:title=" ">
<path fill="none" stroke="#8b1a1a" d="M46.33,-674.51C58.34,-686.88 75.49,-702.7 93.25,-713 98.96,-716.31 105.32,-719.14 111.68,-721.53"/>
<polygon fill="#8b1a1a" stroke="#8b1a1a" points="48.99,-672.24 39.59,-667.35 43.89,-677.03 48.99,-672.24"/>
</a>
</g>
</g>
<!-- Node85 -->
<g id="Node000085" class="node">
<title>Node85</title>
<g id="a_Node000085"><a xlink:href="../../d1/d00/class_flammable_base.html" target="_top" xlink:title=" ">
<polygon fill="#fff0f0" stroke="red" points="194.75,-704 108.25,-704 108.25,-684 194.75,-684 194.75,-704"/>
<text text-anchor="middle" x="151.5" y="-690.5" font-family="Helvetica,sans-Serif" font-size="10.00">FlammableBase</text>
</a>
</g>
</g>
<!-- Node1&#45;&gt;Node85 -->
<g id="edge30_Node000001_Node000085" class="edge">
<title>Node1&#45;&gt;Node85</title>
<g id="a_edge30_Node000001_Node000085"><a xlink:title=" ">
<path fill="none" stroke="#8b1a1a" d="M68.2,-668.13C84.06,-673.11 102.24,-678.83 117.47,-683.62"/>
<polygon fill="#8b1a1a" stroke="#8b1a1a" points="69.69,-664.93 59.1,-665.27 67.59,-671.61 69.69,-664.93"/>
</a>
</g>
</g>
<!-- Node88 -->
<g id="Node000088" class="node">
<title>Node88</title>
<g id="a_Node000088"><a xlink:href="../../df/d0c/class_flashbang.html" target="_top" xlink:title=" ">
<polygon fill="white" stroke="#666666" points="182,-666 121,-666 121,-646 182,-646 182,-666"/>
<text text-anchor="middle" x="151.5" y="-652.5" font-family="Helvetica,sans-Serif" font-size="10.00">Flashbang</text>
</a>
</g>
</g>
<!-- Node1&#45;&gt;Node88 -->
<g id="edge31_Node000001_Node000088" class="edge">
<title>Node1&#45;&gt;Node88</title>
<g id="a_edge31_Node000001_Node000088"><a xlink:title=" ">
<path fill="none" stroke="#8b1a1a" d="M68.8,-656C85.59,-656 104.88,-656 120.5,-656"/>
<polygon fill="#8b1a1a" stroke="#8b1a1a" points="69.17,-652.5 59.17,-656 69.17,-659.5 69.17,-652.5"/>
</a>
</g>
</g>
<!-- Node89 -->
<g id="Node000089" class="node">
<title>Node89</title>
<g id="a_Node000089"><a xlink:href="../../d4/d07/class_gas_mask___filter.html" target="_top" xlink:title=" ">
<polygon fill="white" stroke="#666666" points="194,-628 109,-628 109,-608 194,-608 194,-628"/>
<text text-anchor="middle" x="151.5" y="-614.5" font-family="Helvetica,sans-Serif" font-size="10.00">GasMask_Filter</text>
</a>
</g>
</g>
<!-- Node1&#45;&gt;Node89 -->
<g id="edge32_Node000001_Node000089" class="edge">
<title>Node1&#45;&gt;Node89</title>
<g id="a_edge32_Node000001_Node000089"><a xlink:title=" ">
<path fill="none" stroke="#8b1a1a" d="M68.2,-643.87C84.06,-638.89 102.24,-633.17 117.47,-628.38"/>
<polygon fill="#8b1a1a" stroke="#8b1a1a" points="67.59,-640.39 59.1,-646.73 69.69,-647.07 67.59,-640.39"/>
</a>
</g>
</g>
<!-- Node90 -->
<g id="Node000090" class="node">
<title>Node90</title>
<g id="a_Node000090"><a xlink:href="../../d9/d01/class_head.html" target="_top" xlink:title=" ">
<polygon fill="white" stroke="#666666" points="170.75,-590 132.25,-590 132.25,-570 170.75,-570 170.75,-590"/>
<text text-anchor="middle" x="151.5" y="-576.5" font-family="Helvetica,sans-Serif" font-size="10.00">Head</text>
</a>
</g>
</g>
<!-- Node1&#45;&gt;Node90 -->
<g id="edge33_Node000001_Node000090" class="edge">
<title>Node1&#45;&gt;Node90</title>
<g id="a_edge33_Node000001_Node000090"><a xlink:title=" ">
<path fill="none" stroke="#8b1a1a" d="M46.33,-637.49C58.34,-625.12 75.49,-609.3 93.25,-599 105.3,-592.01 120.28,-587.16 131.9,-584.1"/>
<polygon fill="#8b1a1a" stroke="#8b1a1a" points="43.89,-634.97 39.59,-644.65 48.99,-639.76 43.89,-634.97"/>
</a>
</g>
</g>
<!-- Node91 -->
<g id="Node000091" class="node">
<title>Node91</title>
<g id="a_Node000091"><a xlink:href="../../dd/d05/class_heatpack.html" target="_top" xlink:title=" ">
<polygon fill="white" stroke="#666666" points="180.12,-552 122.88,-552 122.88,-532 180.12,-532 180.12,-552"/>
<text text-anchor="middle" x="151.5" y="-538.5" font-family="Helvetica,sans-Serif" font-size="10.00">Heatpack</text>
</a>
</g>
</g>
<!-- Node1&#45;&gt;Node91 -->
<g id="edge34_Node000001_Node000091" class="edge">
<title>Node1&#45;&gt;Node91</title>
<g id="a_edge34_Node000001_Node000091"><a xlink:title=" ">
<path fill="none" stroke="#8b1a1a" d="M38.41,-635.49C48.61,-613.99 67.41,-580.67 93.25,-561 101.75,-554.53 112.57,-550.2 122.5,-547.33"/>
<polygon fill="#8b1a1a" stroke="#8b1a1a" points="35.31,-633.85 34.37,-644.41 41.68,-636.74 35.31,-633.85"/>
</a>
</g>
</g>
<!-- Node92 -->
<g id="Node000092" class="node">
<title>Node92</title>
<g id="a_Node000092"><a xlink:href="../../d2/d00/class_hook.html" target="_top" xlink:title=" ">
<polygon fill="white" stroke="#666666" points="170.75,-514 132.25,-514 132.25,-494 170.75,-494 170.75,-514"/>
<text text-anchor="middle" x="151.5" y="-500.5" font-family="Helvetica,sans-Serif" font-size="10.00">Hook</text>
</a>
</g>
</g>
<!-- Node1&#45;&gt;Node92 -->
<g id="edge35_Node000001_Node000092" class="edge">
<title>Node1&#45;&gt;Node92</title>
<g id="a_edge35_Node000001_Node000092"><a xlink:title=" ">
<path fill="none" stroke="#8b1a1a" d="M34.27,-634.69C41.74,-605.44 59.14,-553.07 93.25,-523 104.01,-513.51 119.65,-508.74 131.87,-506.35"/>
<polygon fill="#8b1a1a" stroke="#8b1a1a" points="30.92,-633.67 32.01,-644.2 37.73,-635.28 30.92,-633.67"/>
</a>
</g>
</g>
<!-- Node93 -->
<g id="Node000093" class="node">
<title>Node93</title>
<g id="a_Node000093"><a xlink:href="../../dd/d03/class_large_gas_canister.html" target="_top" xlink:title=" ">
<polygon fill="white" stroke="#666666" points="198.5,-476 104.5,-476 104.5,-456 198.5,-456 198.5,-476"/>
<text text-anchor="middle" x="151.5" y="-462.5" font-family="Helvetica,sans-Serif" font-size="10.00">LargeGasCanister</text>
</a>
</g>
</g>
<!-- Node1&#45;&gt;Node93 -->
<g id="edge36_Node000001_Node000093" class="edge">
<title>Node1&#45;&gt;Node93</title>
<g id="a_edge36_Node000001_Node000093"><a xlink:title=" ">
<path fill="none" stroke="#8b1a1a" d="M31.65,-634.88C36.19,-599.07 50.43,-526.32 93.25,-485 96.79,-481.58 100.96,-478.78 105.41,-476.48"/>
<polygon fill="#8b1a1a" stroke="#8b1a1a" points="28.22,-634.06 30.58,-644.39 35.17,-634.84 28.22,-634.06"/>
</a>
</g>
</g>
<!-- Node94 -->
<g id="Node000094" class="node">
<title>Node94</title>
<g id="a_Node000094"><a xlink:href="../../d8/d08/class_medium_gas_canister.html" target="_top" xlink:title=" ">
<polygon fill="white" stroke="#666666" points="203.75,-438 99.25,-438 99.25,-418 203.75,-418 203.75,-438"/>
<text text-anchor="middle" x="151.5" y="-424.5" font-family="Helvetica,sans-Serif" font-size="10.00">MediumGasCanister</text>
</a>
</g>
</g>
<!-- Node1&#45;&gt;Node94 -->
<g id="edge37_Node000001_Node000094" class="edge">
<title>Node1&#45;&gt;Node94</title>
<g id="a_edge37_Node000001_Node000094"><a xlink:title=" ">
<path fill="none" stroke="#8b1a1a" d="M29.97,-634.39C31.83,-592.48 41.89,-499.66 93.25,-447 96.61,-443.55 100.62,-440.73 104.92,-438.42"/>
<polygon fill="#8b1a1a" stroke="#8b1a1a" points="26.48,-634.04 29.67,-644.15 33.48,-634.26 26.48,-634.04"/>
</a>
</g>
</g>
<!-- Node95 -->
<g id="Node000095" class="node">
<title>Node95</title>
<g id="a_Node000095"><a xlink:href="../../d7/d09/class_netting.html" target="_top" xlink:title=" ">
<polygon fill="white" stroke="#666666" points="174.88,-400 128.12,-400 128.12,-380 174.88,-380 174.88,-400"/>
<text text-anchor="middle" x="151.5" y="-386.5" font-family="Helvetica,sans-Serif" font-size="10.00">Netting</text>
</a>
</g>
</g>
<!-- Node1&#45;&gt;Node95 -->
<g id="edge38_Node000001_Node000095" class="edge">
<title>Node1&#45;&gt;Node95</title>
<g id="a_edge38_Node000001_Node000095"><a xlink:title=" ">
<path fill="none" stroke="#8b1a1a" d="M28.74,-634.46C28.01,-587.2 33.03,-473.48 93.25,-409 102.18,-399.43 116.04,-394.68 127.89,-392.32"/>
<polygon fill="#8b1a1a" stroke="#8b1a1a" points="25.23,-634.28 29.01,-644.18 32.23,-634.09 25.23,-634.28"/>
</a>
</g>
</g>
<!-- Node96 -->
<g id="Node000096" class="node">
<title>Node96</title>
<g id="a_Node000096"><a xlink:href="../../d3/d0f/class_roadflare.html" target="_top" xlink:title=" ">
<polygon fill="white" stroke="#666666" points="179.75,-362 123.25,-362 123.25,-342 179.75,-342 179.75,-362"/>
<text text-anchor="middle" x="151.5" y="-348.5" font-family="Helvetica,sans-Serif" font-size="10.00">Roadflare</text>
</a>
</g>
</g>
<!-- Node1&#45;&gt;Node96 -->
<g id="edge39_Node000001_Node000096" class="edge">
<title>Node1&#45;&gt;Node96</title>
<g id="a_edge39_Node000001_Node000096"><a xlink:title=" ">
<path fill="none" stroke="#8b1a1a" d="M31.71,-634.42C37.86,-574.9 57.78,-410.24 93.25,-371 100.83,-362.61 112.21,-357.92 122.83,-355.3"/>
<polygon fill="#8b1a1a" stroke="#8b1a1a" points="28.24,-633.92 30.72,-644.22 35.2,-634.62 28.24,-633.92"/>
</a>
</g>
</g>
<!-- Node97 -->
<g id="Node000097" class="node">
<title>Node97</title>
<g id="a_Node000097"><a xlink:href="../../da/d01/class_small_gas_canister.html" target="_top" xlink:title=" ">
<polygon fill="white" stroke="#666666" points="198.88,-324 104.12,-324 104.12,-304 198.88,-304 198.88,-324"/>
<text text-anchor="middle" x="151.5" y="-310.5" font-family="Helvetica,sans-Serif" font-size="10.00">SmallGasCanister</text>
</a>
</g>
</g>
<!-- Node1&#45;&gt;Node97 -->
<g id="edge40_Node000001_Node000097" class="edge">
<title>Node1&#45;&gt;Node97</title>
<g id="a_edge40_Node000001_Node000097"><a xlink:title=" ">
<path fill="none" stroke="#8b1a1a" d="M31.08,-634.57C35.87,-569.91 53.22,-378.42 93.25,-333 96.3,-329.54 99.99,-326.71 104.01,-324.4"/>
<polygon fill="#8b1a1a" stroke="#8b1a1a" points="27.61,-634 30.39,-644.22 34.59,-634.49 27.61,-634"/>
</a>
</g>
</g>
<!-- Node98 -->
<g id="Node000098" class="node">
<title>Node98</title>
<g id="a_Node000098"><a xlink:href="../../d9/d0a/class_small_stone.html" target="_top" xlink:title=" ">
<polygon fill="white" stroke="#666666" points="184.62,-286 118.38,-286 118.38,-266 184.62,-266 184.62,-286"/>
<text text-anchor="middle" x="151.5" y="-272.5" font-family="Helvetica,sans-Serif" font-size="10.00">SmallStone</text>
</a>
</g>
</g>
<!-- Node1&#45;&gt;Node98 -->
<g id="edge41_Node000001_Node000098" class="edge">
<title>Node1&#45;&gt;Node98</title>
<g id="a_edge41_Node000001_Node000098"><a xlink:title=" ">
<path fill="none" stroke="#8b1a1a" d="M30.6,-634.37C34.16,-564.52 48.7,-346.57 93.25,-295 99.62,-287.63 108.91,-283.11 118.17,-280.34"/>
<polygon fill="#8b1a1a" stroke="#8b1a1a" points="27.11,-633.94 30.13,-644.1 34.11,-634.28 27.11,-633.94"/>
</a>
</g>
</g>
<!-- Node99 -->
<g id="Node000099" class="node">
<title>Node99</title>
<g id="a_Node000099"><a xlink:href="../../d8/d0d/class_spraycan___color_base.html" target="_top" xlink:title=" ">
<polygon fill="#fff0f0" stroke="red" points="205.25,-248 97.75,-248 97.75,-228 205.25,-228 205.25,-248"/>
<text text-anchor="middle" x="151.5" y="-234.5" font-family="Helvetica,sans-Serif" font-size="10.00">Spraycan_ColorBase</text>
</a>
</g>
</g>
<!-- Node1&#45;&gt;Node99 -->
<g id="edge42_Node000001_Node000099" class="edge">
<title>Node1&#45;&gt;Node99</title>
<g id="a_edge42_Node000001_Node000099"><a xlink:title=" ">
<path fill="none" stroke="#8b1a1a" d="M30.19,-634.54C32.58,-560.18 44.09,-314.86 93.25,-257 96.17,-253.57 99.72,-250.75 103.61,-248.44"/>
<polygon fill="#8b1a1a" stroke="#8b1a1a" points="26.7,-634.05 29.91,-644.15 33.7,-634.26 26.7,-634.05"/>
</a>
</g>
</g>
<!-- Node102 -->
<g id="Node000102" class="node">
<title>Node102</title>
<g id="a_Node000102"><a xlink:href="../../d1/d00/class_stun_baton.html" target="_top" xlink:title=" ">
<polygon fill="white" stroke="#666666" points="182.38,-210 120.62,-210 120.62,-190 182.38,-190 182.38,-210"/>
<text text-anchor="middle" x="151.5" y="-196.5" font-family="Helvetica,sans-Serif" font-size="10.00">StunBaton</text>
</a>
</g>
</g>
<!-- Node1&#45;&gt;Node102 -->
<g id="edge43_Node000001_Node000102" class="edge">
<title>Node1&#45;&gt;Node102</title>
<g id="a_edge43_Node000001_Node000102"><a xlink:title=" ">
<path fill="none" stroke="#8b1a1a" d="M29.86,-634.58C31.15,-555.77 39.49,-283.15 93.25,-219 99.98,-210.97 110.18,-206.32 120.13,-203.63"/>
<polygon fill="#8b1a1a" stroke="#8b1a1a" points="26.36,-634.31 29.72,-644.36 33.36,-634.41 26.36,-634.31"/>
</a>
</g>
</g>
<!-- Node103 -->
<g id="Node000103" class="node">
<title>Node103</title>
<g id="a_Node000103"><a xlink:href="../../d1/d09/class_tanned_leather.html" target="_top" xlink:title=" ">
<polygon fill="white" stroke="#666666" points="191.38,-172 111.62,-172 111.62,-152 191.38,-152 191.38,-172"/>
<text text-anchor="middle" x="151.5" y="-158.5" font-family="Helvetica,sans-Serif" font-size="10.00">TannedLeather</text>
</a>
</g>
</g>
<!-- Node1&#45;&gt;Node103 -->
<g id="edge44_Node000001_Node000103" class="edge">
<title>Node1&#45;&gt;Node103</title>
<g id="a_edge44_Node000001_Node000103"><a xlink:title=" ">
<path fill="none" stroke="#8b1a1a" d="M29.58,-634.35C29.85,-550.93 34.94,-251.4 93.25,-181 97.93,-175.35 104.33,-171.38 111.16,-168.57"/>
<polygon fill="#8b1a1a" stroke="#8b1a1a" points="26.08,-634.3 29.57,-644.31 33.08,-634.31 26.08,-634.3"/>
</a>
</g>
</g>
<!-- Node104 -->
<g id="Node000104" class="node">
<title>Node104</title>
<g id="a_Node000104"><a xlink:href="../../df/d03/class_telescopic_baton.html" target="_top" xlink:title=" ">
<polygon fill="white" stroke="#666666" points="195.5,-134 107.5,-134 107.5,-114 195.5,-114 195.5,-134"/>
<text text-anchor="middle" x="151.5" y="-120.5" font-family="Helvetica,sans-Serif" font-size="10.00">TelescopicBaton</text>
</a>
</g>
</g>
<!-- Node1&#45;&gt;Node104 -->
<g id="edge45_Node000001_Node000104" class="edge">
<title>Node1&#45;&gt;Node104</title>
<g id="a_edge45_Node000001_Node000104"><a xlink:title=" ">
<path fill="none" stroke="#8b1a1a" d="M29.34,-634.6C28.63,-547.39 30.26,-219.81 93.25,-143 96.97,-138.47 101.8,-135.01 107.08,-132.37"/>
<polygon fill="#8b1a1a" stroke="#8b1a1a" points="25.84,-634.39 29.45,-644.35 32.84,-634.31 25.84,-634.39"/>
</a>
</g>
</g>
<!-- Node105 -->
<g id="Node000105" class="node">
<title>Node105</title>
<g id="a_Node000105"><a xlink:href="../../d8/d0a/class_tripod_base.html" target="_top" xlink:title=" ">
<polygon fill="white" stroke="#666666" points="183.88,-96 119.12,-96 119.12,-76 183.88,-76 183.88,-96"/>
<text text-anchor="middle" x="151.5" y="-82.5" font-family="Helvetica,sans-Serif" font-size="10.00">TripodBase</text>
</a>
</g>
</g>
<!-- Node1&#45;&gt;Node105 -->
<g id="edge46_Node000001_Node000105" class="edge">
<title>Node1&#45;&gt;Node105</title>
<g id="a_edge46_Node000001_Node000105"><a xlink:title=" ">
<path fill="none" stroke="#8b1a1a" d="M30.75,-634.54C35.99,-538 59.2,-146.88 93.25,-105 99.59,-97.2 109.23,-92.58 118.8,-89.85"/>
<polygon fill="#8b1a1a" stroke="#8b1a1a" points="27.26,-634.24 30.22,-644.41 34.25,-634.61 27.26,-634.24"/>
</a>
</g>
</g>
<!-- Node106 -->
<g id="Node000106" class="node">
<title>Node106</title>
<g id="a_Node000106"><a xlink:href="../../d3/d0c/class_vehicle_battery.html" target="_top" xlink:title=" ">
<polygon fill="#fff0f0" stroke="red" points="191.38,-58 111.62,-58 111.62,-38 191.38,-38 191.38,-58"/>
<text text-anchor="middle" x="151.5" y="-44.5" font-family="Helvetica,sans-Serif" font-size="10.00">VehicleBattery</text>
</a>
</g>
</g>
<!-- Node1&#45;&gt;Node106 -->
<g id="edge47_Node000001_Node000106" class="edge">
<title>Node1&#45;&gt;Node106</title>
<g id="a_edge47_Node000001_Node000106"><a xlink:title=" ">
<path fill="none" stroke="#8b1a1a" d="M30.59,-634.34C35.28,-533.39 56.9,-112.05 93.25,-67 97.92,-61.21 104.4,-57.18 111.33,-54.36"/>
<polygon fill="#8b1a1a" stroke="#8b1a1a" points="27.1,-634.05 30.14,-644.2 34.09,-634.37 27.1,-634.05"/>
</a>
</g>
</g>
<!-- Node110 -->
<g id="Node000110" class="node">
<title>Node110</title>
<g id="a_Node000110"><a xlink:href="../../d4/d08/class_wooden_stick.html" target="_top" xlink:title=" ">
<polygon fill="white" stroke="#666666" points="188.75,-20 114.25,-20 114.25,0 188.75,0 188.75,-20"/>
<text text-anchor="middle" x="151.5" y="-6.5" font-family="Helvetica,sans-Serif" font-size="10.00">WoodenStick</text>
</a>
</g>
</g>
<!-- Node1&#45;&gt;Node110 -->
<g id="edge48_Node000001_Node000110" class="edge">
<title>Node1&#45;&gt;Node110</title>
<g id="a_edge48_Node000001_Node000110"><a xlink:title=" ">
<path fill="none" stroke="#8b1a1a" d="M30.44,-634.27C34.59,-529.25 54.57,-77.25 93.25,-29 98.49,-22.46 106.05,-18.16 113.96,-15.32"/>
<polygon fill="#8b1a1a" stroke="#8b1a1a" points="26.96,-633.91 30.07,-644.04 33.95,-634.18 26.96,-633.91"/>
</a>
</g>
</g>
<!-- Node13 -->
<g id="Node000013" class="node">
<title>Node13</title>
<g id="a_Node000013"><a xlink:href="../../de/d0e/class_chemlight___blue.html" target="_top" xlink:title=" ">
<polygon fill="white" stroke="#666666" points="353.25,-1122 269,-1122 269,-1102 353.25,-1102 353.25,-1122"/>
<text text-anchor="middle" x="311.12" y="-1108.5" font-family="Helvetica,sans-Serif" font-size="10.00">Chemlight_Blue</text>
</a>
</g>
</g>
<!-- Node12&#45;&gt;Node13 -->
<g id="edge12_Node000012_Node000013" class="edge">
<title>Node12&#45;&gt;Node13</title>
<g id="a_edge12_Node000012_Node000013"><a xlink:title=" ">
<path fill="none" stroke="#8b1a1a" d="M207.89,-939.11C208.53,-939.72 209.15,-940.35 209.75,-941 256.64,-992.2 198.01,-1042.59 245.75,-1093 251.92,-1099.51 260.2,-1103.83 268.77,-1106.68"/>
<polygon fill="#8b1a1a" stroke="#8b1a1a" points="209.96,-936.28 199.8,-933.25 205.85,-941.95 209.96,-936.28"/>
</a>
</g>
</g>
<!-- Node14 -->
<g id="Node000014" class="node">
<title>Node14</title>
<g id="a_Node000014"><a xlink:href="../../d4/d0e/class_chemlight___green.html" target="_top" xlink:title=" ">
<polygon fill="white" stroke="#666666" points="356.62,-1084 265.62,-1084 265.62,-1064 356.62,-1064 356.62,-1084"/>
<text text-anchor="middle" x="311.12" y="-1070.5" font-family="Helvetica,sans-Serif" font-size="10.00">Chemlight_Green</text>
</a>
</g>
</g>
<!-- Node12&#45;&gt;Node14 -->
<g id="edge13_Node000012_Node000014" class="edge">
<title>Node12&#45;&gt;Node14</title>
<g id="a_edge13_Node000012_Node000014"><a xlink:title=" ">
<path fill="none" stroke="#8b1a1a" d="M207.44,-938.84C208.24,-939.53 209.01,-940.25 209.75,-941 247.05,-978.84 207.83,-1017.79 245.75,-1055 251.24,-1060.39 258.18,-1064.26 265.45,-1067.04"/>
<polygon fill="#8b1a1a" stroke="#8b1a1a" points="209.53,-936.03 199.29,-933.3 205.6,-941.82 209.53,-936.03"/>
</a>
</g>
</g>
<!-- Node15 -->
<g id="Node000015" class="node">
<title>Node15</title>
<g id="a_Node000015"><a xlink:href="../../d5/d00/class_chemlight___red.html" target="_top" xlink:title=" ">
<polygon fill="white" stroke="#666666" points="352.12,-1046 270.12,-1046 270.12,-1026 352.12,-1026 352.12,-1046"/>
<text text-anchor="middle" x="311.12" y="-1032.5" font-family="Helvetica,sans-Serif" font-size="10.00">Chemlight_Red</text>
</a>
</g>
</g>
<!-- Node12&#45;&gt;Node15 -->
<g id="edge14_Node000012_Node000015" class="edge">
<title>Node12&#45;&gt;Node15</title>
<g id="a_edge14_Node000012_Node000015"><a xlink:title=" ">
<path fill="none" stroke="#8b1a1a" d="M206.3,-938.22C207.49,-939.1 208.65,-940.02 209.75,-941 237.74,-965.77 217.35,-992.7 245.75,-1017 252.57,-1022.83 261.11,-1026.88 269.72,-1029.68"/>
<polygon fill="#8b1a1a" stroke="#8b1a1a" points="208.12,-935.23 197.74,-933.14 204.55,-941.25 208.12,-935.23"/>
</a>
</g>
</g>
<!-- Node16 -->
<g id="Node000016" class="node">
<title>Node16</title>
<g id="a_Node000016"><a xlink:href="../../d6/d06/class_chemlight___white.html" target="_top" xlink:title=" ">
<polygon fill="white" stroke="#666666" points="356.25,-1008 266,-1008 266,-988 356.25,-988 356.25,-1008"/>
<text text-anchor="middle" x="311.12" y="-994.5" font-family="Helvetica,sans-Serif" font-size="10.00">Chemlight_White</text>
</a>
</g>
</g>
<!-- Node12&#45;&gt;Node16 -->
<g id="edge15_Node000012_Node000016" class="edge">
<title>Node12&#45;&gt;Node16</title>
<g id="a_edge15_Node000012_Node000016"><a xlink:title=" ">
<path fill="none" stroke="#8b1a1a" d="M202.73,-937.01C205.16,-938.25 207.51,-939.58 209.75,-941 229.38,-953.48 225.91,-966.85 245.75,-979 251.81,-982.71 258.64,-985.74 265.52,-988.19"/>
<polygon fill="#8b1a1a" stroke="#8b1a1a" points="204.41,-933.93 193.85,-933.05 201.55,-940.32 204.41,-933.93"/>
</a>
</g>
</g>
<!-- Node17 -->
<g id="Node000017" class="node">
<title>Node17</title>
<g id="a_Node000017"><a xlink:href="../../dd/d0c/class_chemlight___yellow.html" target="_top" xlink:title=" ">
<polygon fill="white" stroke="#666666" points="357.75,-970 264.5,-970 264.5,-950 357.75,-950 357.75,-970"/>
<text text-anchor="middle" x="311.12" y="-956.5" font-family="Helvetica,sans-Serif" font-size="10.00">Chemlight_Yellow</text>
</a>
</g>
</g>
<!-- Node12&#45;&gt;Node17 -->
<g id="edge16_Node000012_Node000017" class="edge">
<title>Node12&#45;&gt;Node17</title>
<g id="a_edge16_Node000012_Node000017"><a xlink:title=" ">
<path fill="none" stroke="#8b1a1a" d="M207.18,-935.18C226.68,-939.88 248.36,-945.11 266.78,-949.55"/>
<polygon fill="#8b1a1a" stroke="#8b1a1a" points="208,-931.78 197.46,-932.84 206.36,-938.59 208,-931.78"/>
</a>
</g>
</g>
<!-- Node19 -->
<g id="Node000019" class="node">
<title>Node19</title>
<g id="a_Node000019"><a xlink:href="../../d2/d08/class_ammo_box.html" target="_top" xlink:title=" ">
<polygon fill="white" stroke="#666666" points="342,-932 280.25,-932 280.25,-912 342,-912 342,-932"/>
<text text-anchor="middle" x="311.12" y="-918.5" font-family="Helvetica,sans-Serif" font-size="10.00">AmmoBox</text>
</a>
</g>
</g>
<!-- Node18&#45;&gt;Node19 -->
<g id="edge18_Node000018_Node000019" class="edge">
<title>Node18&#45;&gt;Node19</title>
<g id="a_edge18_Node000018_Node000019"><a xlink:title=" ">
<path fill="none" stroke="#8b1a1a" d="M205.44,-896.76C230.3,-902.76 259.03,-909.68 280.1,-914.76"/>
<polygon fill="#8b1a1a" stroke="#8b1a1a" points="206.34,-893.38 195.8,-894.44 204.7,-900.18 206.34,-893.38"/>
</a>
</g>
</g>
<!-- Node20 -->
<g id="Node000020" class="node">
<title>Node20</title>
<g id="a_Node000020"><a xlink:href="../../df/d03/class_plate_carrier_pouches.html" target="_top" xlink:title=" ">
<polygon fill="white" stroke="#666666" points="363.75,-894 258.5,-894 258.5,-874 363.75,-874 363.75,-894"/>
<text text-anchor="middle" x="311.12" y="-880.5" font-family="Helvetica,sans-Serif" font-size="10.00">PlateCarrierPouches</text>
</a>
</g>
</g>
<!-- Node18&#45;&gt;Node20 -->
<g id="edge19_Node000018_Node000020" class="edge">
<title>Node18&#45;&gt;Node20</title>
<g id="a_edge19_Node000018_Node000020"><a xlink:title=" ">
<path fill="none" stroke="#8b1a1a" d="M205.73,-884C222.67,-884 241.38,-884 258.23,-884"/>
<polygon fill="#8b1a1a" stroke="#8b1a1a" points="205.84,-880.5 195.84,-884 205.84,-887.5 205.84,-880.5"/>
</a>
</g>
</g>
<!-- Node21 -->
<g id="Node000021" class="node">
<title>Node21</title>
<g id="a_Node000021"><a xlink:href="../../df/d0d/class_small_protector_case.html" target="_top" xlink:title=" ">
<polygon fill="white" stroke="#666666" points="362.62,-856 259.62,-856 259.62,-836 362.62,-836 362.62,-856"/>
<text text-anchor="middle" x="311.12" y="-842.5" font-family="Helvetica,sans-Serif" font-size="10.00">SmallProtectorCase</text>
</a>
</g>
</g>
<!-- Node18&#45;&gt;Node21 -->
<g id="edge20_Node000018_Node000021" class="edge">
<title>Node18&#45;&gt;Node21</title>
<g id="a_edge20_Node000018_Node000021"><a xlink:title=" ">
<path fill="none" stroke="#8b1a1a" d="M205.42,-871.24C225.35,-866.44 247.76,-861.03 266.73,-856.46"/>
<polygon fill="#8b1a1a" stroke="#8b1a1a" points="204.7,-867.82 195.8,-873.56 206.34,-874.62 204.7,-867.82"/>
</a>
</g>
</g>
<!-- Node22 -->
<g id="Node000022" class="node">
<title>Node22</title>
<g id="a_Node000022"><a xlink:href="../../de/d02/class_waterproof_bag___color_base.html" target="_top" xlink:title=" ">
<polygon fill="#fff0f0" stroke="red" points="376.5,-818 245.75,-818 245.75,-798 376.5,-798 376.5,-818"/>
<text text-anchor="middle" x="311.12" y="-804.5" font-family="Helvetica,sans-Serif" font-size="10.00">WaterproofBag_ColorBase</text>
</a>
</g>
</g>
<!-- Node18&#45;&gt;Node22 -->
<g id="edge21_Node000018_Node000022" class="edge">
<title>Node18&#45;&gt;Node22</title>
<g id="a_edge21_Node000018_Node000022"><a xlink:title=" ">
<path fill="none" stroke="#8b1a1a" d="M202.73,-868.99C205.16,-867.75 207.51,-866.42 209.75,-865 229.38,-852.52 225.91,-839.15 245.75,-827 251.31,-823.59 257.52,-820.76 263.83,-818.43"/>
<polygon fill="#8b1a1a" stroke="#8b1a1a" points="201.55,-865.68 193.85,-872.95 204.41,-872.07 201.55,-865.68"/>
</a>
</g>
</g>
<!-- Node27 -->
<g id="Node000027" class="node">
<title>Node27</title>
<g id="a_Node000027"><a xlink:href="../../dd/d0e/class_apple.html" target="_top" xlink:title=" ">
<polygon fill="white" stroke="#666666" points="331.5,-780 290.75,-780 290.75,-760 331.5,-760 331.5,-780"/>
<text text-anchor="middle" x="311.12" y="-766.5" font-family="Helvetica,sans-Serif" font-size="10.00">Apple</text>
</a>
</g>
</g>
<!-- Node26&#45;&gt;Node27 -->
<g id="edge24_Node000026_Node000027" class="edge">
<title>Node26&#45;&gt;Node27</title>
<g id="a_edge24_Node000026_Node000027"><a xlink:title=" ">
<path fill="none" stroke="#8b1a1a" d="M197.96,-797.04C228.6,-789.65 267.48,-780.28 290.49,-774.73"/>
<polygon fill="#8b1a1a" stroke="#8b1a1a" points="197.46,-793.56 188.56,-799.31 199.1,-800.36 197.46,-793.56"/>
</a>
</g>
</g>
<!-- Node28 -->
<g id="Node000028" class="node">
<title>Node28</title>
<g id="a_Node000028"><a xlink:href="../../df/d0e/class_baked_beans_can.html" target="_top" xlink:title=" ">
<polygon fill="white" stroke="#666666" points="355.5,-742 266.75,-742 266.75,-722 355.5,-722 355.5,-742"/>
<text text-anchor="middle" x="311.12" y="-728.5" font-family="Helvetica,sans-Serif" font-size="10.00">BakedBeansCan</text>
</a>
</g>
</g>
<!-- Node26&#45;&gt;Node28 -->
<g id="edge25_Node000026_Node000028" class="edge">
<title>Node26&#45;&gt;Node28</title>
<g id="a_edge25_Node000026_Node000028"><a xlink:title=" ">
<path fill="none" stroke="#8b1a1a" d="M197.82,-795.33C201.98,-793.47 206.03,-791.37 209.75,-789 229.38,-776.52 225.91,-763.15 245.75,-751 252.11,-747.1 259.31,-743.97 266.54,-741.46"/>
<polygon fill="#8b1a1a" stroke="#8b1a1a" points="196.77,-791.98 188.76,-798.91 199.34,-798.49 196.77,-791.98"/>
</a>
</g>
</g>
<!-- Node29 -->
<g id="Node000029" class="node">
<title>Node29</title>
<g id="a_Node000029"><a xlink:href="../../d0/d03/class_baked_beans_can___opened.html" target="_top" xlink:title=" ">
<polygon fill="white" stroke="#666666" points="375,-704 247.25,-704 247.25,-684 375,-684 375,-704"/>
<text text-anchor="middle" x="311.12" y="-690.5" font-family="Helvetica,sans-Serif" font-size="10.00">BakedBeansCan_Opened</text>
</a>
</g>
</g>
<!-- Node26&#45;&gt;Node29 -->
<g id="edge26_Node000026_Node000029" class="edge">
<title>Node26&#45;&gt;Node29</title>
<g id="a_edge26_Node000026_Node000029"><a xlink:title=" ">
<path fill="none" stroke="#8b1a1a" d="M197.71,-797C202.06,-794.8 206.18,-792.16 209.75,-789 237.74,-764.23 217.35,-737.3 245.75,-713 249.73,-709.59 254.31,-706.79 259.14,-704.5"/>
<polygon fill="#8b1a1a" stroke="#8b1a1a" points="196.54,-793.7 188.67,-800.8 199.25,-800.15 196.54,-793.7"/>
</a>
</g>
</g>
<!-- Node30 -->
<g id="Node000030" class="node">
<title>Node30</title>
<g id="a_Node000030"><a xlink:href="../../d7/d04/class_banana.html" target="_top" xlink:title=" ">
<polygon fill="white" stroke="#666666" points="335.62,-666 286.62,-666 286.62,-646 335.62,-646 335.62,-666"/>
<text text-anchor="middle" x="311.12" y="-652.5" font-family="Helvetica,sans-Serif" font-size="10.00">Banana</text>
</a>
</g>
</g>
<!-- Node26&#45;&gt;Node30 -->
<g id="edge27_Node000026_Node000030" class="edge">
<title>Node26&#45;&gt;Node30</title>
<g id="a_edge27_Node000026_Node000030"><a xlink:title=" ">
<path fill="none" stroke="#8b1a1a" d="M197.48,-797.84C202.01,-795.48 206.22,-792.58 209.75,-789 247.05,-751.16 207.83,-712.21 245.75,-675 256.48,-664.47 272.74,-659.73 286.24,-657.62"/>
<polygon fill="#8b1a1a" stroke="#8b1a1a" points="196.48,-794.47 188.63,-801.59 199.21,-800.91 196.48,-794.47"/>
</a>
</g>
</g>
</g>
</svg>
