<?xml version="1.0" encoding="UTF-8" standalone="no"?>
<!DOCTYPE svg PUBLIC "-//W3C//DTD SVG 1.1//EN"
 "http://www.w3.org/Graphics/SVG/1.1/DTD/svg11.dtd">
<!-- Generated by graphviz version 11.0.0 (20240428.1522)
 -->
<!-- Title: NotifierBase Pages: 1 -->
<svg width="549pt" height="288pt"
 viewBox="0.00 0.00 548.50 288.00" xmlns="http://www.w3.org/2000/svg" xmlns:xlink="http://www.w3.org/1999/xlink">
<g id="graph0" class="graph" transform="scale(1 1) rotate(0) translate(4 284)">
<title>NotifierBase</title>
<!-- Node1 -->
<g id="Node000001" class="node">
<title>Node1</title>
<g id="a_Node000001"><a xlink:title=" ">
<polygon fill="#999999" stroke="#666666" points="239.25,-20 170.75,-20 170.75,0 239.25,0 239.25,-20"/>
<text text-anchor="middle" x="205" y="-6.5" font-family="Helvetica,sans-Serif" font-size="10.00">NotifierBase</text>
</a>
</g>
</g>
<!-- Node2 -->
<g id="Node000002" class="node">
<title>Node2</title>
<g id="a_Node000002"><a xlink:href="../../d4/d03/classfloat.html" target="_top" xlink:title=" ">
<polygon fill="white" stroke="#666666" points="34,-156 0,-156 0,-136 34,-136 34,-156"/>
<text text-anchor="middle" x="17" y="-142.5" font-family="Helvetica,sans-Serif" font-size="10.00">float</text>
</a>
</g>
</g>
<!-- Node2&#45;&gt;Node1 -->
<g id="edge1_Node000001_Node000002" class="edge">
<title>Node2&#45;&gt;Node1</title>
<g id="a_edge1_Node000001_Node000002"><a xlink:title=" ">
<path fill="none" stroke="#9a32cd" stroke-dasharray="5,2" d="M17.23,-124.08C18.7,-99.65 25.05,-59.79 49.75,-38 67.24,-22.57 130.3,-15.72 170.47,-12.86"/>
<polygon fill="#9a32cd" stroke="#9a32cd" points="13.74,-123.94 16.89,-134.06 20.73,-124.19 13.74,-123.94"/>
</a>
</g>
<text text-anchor="middle" x="90.12" y="-88.5" font-family="Helvetica,sans-Serif" font-size="10.00" fill="grey"> m_DeltaT</text>
<text text-anchor="middle" x="90.12" y="-76.5" font-family="Helvetica,sans-Serif" font-size="10.00" fill="grey">m_LastMA</text>
<text text-anchor="middle" x="90.12" y="-64.5" font-family="Helvetica,sans-Serif" font-size="10.00" fill="grey">m_LastTendency</text>
<text text-anchor="middle" x="90.12" y="-52.5" font-family="Helvetica,sans-Serif" font-size="10.00" fill="grey">m_TendencyBuffer</text>
</g>
<!-- Node2&#45;&gt;Node2 -->
<g id="edge2_Node000002_Node000002" class="edge">
<title>Node2&#45;&gt;Node2</title>
<g id="a_edge2_Node000002_Node000002"><a xlink:title=" ">
<path fill="none" stroke="#9a32cd" stroke-dasharray="5,2" d="M41.2,-158.23C47.37,-157.43 52,-153.35 52,-146 52,-134.53 40.72,-131.03 29.92,-135.51"/>
<polygon fill="#9a32cd" stroke="#9a32cd" points="41.84,-154.78 31.42,-156.72 40.77,-161.7 41.84,-154.78"/>
</a>
</g>
<text text-anchor="middle" x="74.12" y="-154.5" font-family="Helvetica,sans-Serif" font-size="10.00" fill="grey"> LOWEST</text>
<text text-anchor="middle" x="74.12" y="-142.5" font-family="Helvetica,sans-Serif" font-size="10.00" fill="grey">MAX</text>
<text text-anchor="middle" x="74.12" y="-130.5" font-family="Helvetica,sans-Serif" font-size="10.00" fill="grey">MIN</text>
</g>
<!-- Node3 -->
<g id="Node000003" class="node">
<title>Node3</title>
<g id="a_Node000003"><a xlink:href="../../d8/d08/class_timer.html" target="_top" xlink:title=" ">
<polygon fill="white" stroke="#666666" points="154,-156 114,-156 114,-136 154,-136 154,-156"/>
<text text-anchor="middle" x="134" y="-142.5" font-family="Helvetica,sans-Serif" font-size="10.00">Timer</text>
</a>
</g>
</g>
<!-- Node3&#45;&gt;Node1 -->
<g id="edge3_Node000001_Node000003" class="edge">
<title>Node3&#45;&gt;Node1</title>
<g id="a_edge3_Node000001_Node000003"><a xlink:title=" ">
<path fill="none" stroke="#9a32cd" stroke-dasharray="5,2" d="M133.12,-124.45C133.16,-101.27 136.49,-63.48 155.25,-38 160.9,-30.32 169.41,-24.59 177.81,-20.43"/>
<polygon fill="#9a32cd" stroke="#9a32cd" points="129.61,-124.22 133.32,-134.15 136.61,-124.08 129.61,-124.22"/>
</a>
</g>
<text text-anchor="middle" x="178.88" y="-70.5" font-family="Helvetica,sans-Serif" font-size="10.00" fill="grey"> m_Timer1</text>
</g>
<!-- Node4 -->
<g id="Node000004" class="node">
<title>Node4</title>
<g id="a_Node000004"><a xlink:href="../../d5/d08/class_player_base.html" target="_top" xlink:title=" ">
<polygon fill="white" stroke="#666666" points="238.12,-156 171.88,-156 171.88,-136 238.12,-136 238.12,-156"/>
<text text-anchor="middle" x="205" y="-142.5" font-family="Helvetica,sans-Serif" font-size="10.00">PlayerBase</text>
</a>
</g>
</g>
<!-- Node4&#45;&gt;Node1 -->
<g id="edge4_Node000001_Node000004" class="edge">
<title>Node4&#45;&gt;Node1</title>
<g id="a_edge4_Node000001_Node000004"><a xlink:title=" ">
<path fill="none" stroke="#9a32cd" stroke-dasharray="5,2" d="M205,-124.41C205,-94.87 205,-41.66 205,-20.27"/>
<polygon fill="#9a32cd" stroke="#9a32cd" points="201.5,-124.28 205,-134.28 208.5,-124.28 201.5,-124.28"/>
</a>
</g>
<text text-anchor="middle" x="227.12" y="-70.5" font-family="Helvetica,sans-Serif" font-size="10.00" fill="grey"> m_Player</text>
</g>
<!-- Node5 -->
<g id="Node000005" class="node">
<title>Node5</title>
<g id="a_Node000005"><a xlink:href="../../dd/d03/class_scripted_light_base.html" target="_top" xlink:title=" ">
<polygon fill="white" stroke="#666666" points="113.75,-280 18.25,-280 18.25,-260 113.75,-260 113.75,-280"/>
<text text-anchor="middle" x="66" y="-266.5" font-family="Helvetica,sans-Serif" font-size="10.00">ScriptedLightBase</text>
</a>
</g>
</g>
<!-- Node5&#45;&gt;Node4 -->
<g id="edge5_Node000004_Node000005" class="edge">
<title>Node5&#45;&gt;Node4</title>
<g id="a_edge5_Node000004_Node000005"><a xlink:title=" ">
<path fill="none" stroke="#9a32cd" stroke-dasharray="5,2" d="M62.51,-248.4C60.46,-228.79 60.88,-199.7 77.25,-182 103.69,-153.41 125.75,-175.35 163,-164 169.92,-161.89 177.29,-159.1 183.9,-156.39"/>
<polygon fill="#9a32cd" stroke="#9a32cd" points="59.03,-248.78 63.88,-258.21 65.97,-247.82 59.03,-248.78"/>
</a>
</g>
<text text-anchor="middle" x="115.88" y="-208.5" font-family="Helvetica,sans-Serif" font-size="10.00" fill="grey"> m_PersonalLight</text>
</g>
<!-- Node6 -->
<g id="Node000006" class="node">
<title>Node6</title>
<g id="a_Node000006"><a xlink:href="../../d9/d09/classbool.html" target="_top" xlink:title=" ">
<polygon fill="white" stroke="#666666" points="256,-280 222,-280 222,-260 256,-260 256,-280"/>
<text text-anchor="middle" x="239" y="-266.5" font-family="Helvetica,sans-Serif" font-size="10.00">bool</text>
</a>
</g>
</g>
<!-- Node6&#45;&gt;Node1 -->
<g id="edge8_Node000001_Node000006" class="edge">
<title>Node6&#45;&gt;Node1</title>
<g id="a_edge8_Node000001_Node000006"><a xlink:title=" ">
<path fill="none" stroke="#9a32cd" stroke-dasharray="5,2" d="M267.24,-263.43C279.16,-259.53 291.9,-252.98 299,-242 313.48,-219.61 303.11,-208.35 299,-182 288.65,-115.62 295.44,-90.08 253,-38 246.84,-30.44 237.97,-24.62 229.52,-20.35"/>
<polygon fill="#9a32cd" stroke="#9a32cd" points="266.47,-260.01 257.74,-266.01 268.3,-266.77 266.47,-260.01"/>
</a>
</g>
<text text-anchor="middle" x="335.75" y="-154.5" font-family="Helvetica,sans-Serif" font-size="10.00" fill="grey"> m_Active</text>
<text text-anchor="middle" x="335.75" y="-142.5" font-family="Helvetica,sans-Serif" font-size="10.00" fill="grey">m_FirstPass</text>
<text text-anchor="middle" x="335.75" y="-130.5" font-family="Helvetica,sans-Serif" font-size="10.00" fill="grey">m_ShowTendency</text>
</g>
<!-- Node6&#45;&gt;Node4 -->
<g id="edge6_Node000004_Node000006" class="edge">
<title>Node6&#45;&gt;Node4</title>
<g id="a_edge6_Node000004_Node000006"><a xlink:title=" ">
<path fill="none" stroke="#9a32cd" stroke-dasharray="5,2" d="M210.88,-266.29C194.96,-263.15 176.28,-256.42 166.25,-242 151.02,-220.11 155.42,-206.37 166.25,-182 171.04,-171.23 180.95,-162.37 189.56,-156.26"/>
<polygon fill="#9a32cd" stroke="#9a32cd" points="209.9,-269.68 220.32,-267.77 210.98,-262.77 209.9,-269.68"/>
</a>
</g>
<text text-anchor="start" x="167" y="-232.5" font-family="Helvetica,sans-Serif" font-size="10.00" fill="grey"> m_PersonalLightDisabledBy</text>
<text text-anchor="middle" x="233.38" y="-220.5" font-family="Helvetica,sans-Serif" font-size="10.00" fill="grey">Debug</text>
<text text-anchor="start" x="167" y="-208.5" font-family="Helvetica,sans-Serif" font-size="10.00" fill="grey">m_PersonalLightEnabledOn</text>
<text text-anchor="middle" x="233.38" y="-196.5" font-family="Helvetica,sans-Serif" font-size="10.00" fill="grey">CurrentServer</text>
<text text-anchor="middle" x="233.38" y="-184.5" font-family="Helvetica,sans-Serif" font-size="10.00" fill="grey">m_PersonalLightIsSwitchedOn</text>
</g>
<!-- Node7 -->
<g id="Node000007" class="node">
<title>Node7</title>
<g id="a_Node000007"><a xlink:href="../../db/d06/class_param3.html" target="_top" xlink:title=" ">
<polygon fill="white" stroke="#666666" points="459.88,-156 410.12,-156 410.12,-136 459.88,-136 459.88,-156"/>
<text text-anchor="middle" x="435" y="-142.5" font-family="Helvetica,sans-Serif" font-size="10.00">Param3</text>
</a>
</g>
</g>
<!-- Node7&#45;&gt;Node1 -->
<g id="edge7_Node000001_Node000007" class="edge">
<title>Node7&#45;&gt;Node1</title>
<g id="a_edge7_Node000001_Node000007"><a xlink:title=" ">
<path fill="none" stroke="#9a32cd" stroke-dasharray="5,2" d="M421.58,-126.28C403.13,-102 367.55,-60.12 327,-38 299.86,-23.2 265.13,-16.51 239.68,-13.49"/>
<polygon fill="#9a32cd" stroke="#9a32cd" points="418.75,-128.33 427.51,-134.29 424.37,-124.17 418.75,-128.33"/>
</a>
</g>
<text text-anchor="middle" x="473.75" y="-100.5" font-family="Helvetica,sans-Serif" font-size="10.00" fill="grey"> TENDENCY_BUFFER_SIZE</text>
<text text-anchor="middle" x="473.75" y="-88.5" font-family="Helvetica,sans-Serif" font-size="10.00" fill="grey">m_TendencyBufferSize</text>
<text text-anchor="middle" x="473.75" y="-76.5" font-family="Helvetica,sans-Serif" font-size="10.00" fill="grey">m_TendencyBufferWriteIterator</text>
<text text-anchor="middle" x="473.75" y="-64.5" font-family="Helvetica,sans-Serif" font-size="10.00" fill="grey">m_TickInterval</text>
<text text-anchor="middle" x="473.75" y="-52.5" font-family="Helvetica,sans-Serif" font-size="10.00" fill="grey">m_TickIntervalLastTick</text>
<text text-anchor="middle" x="473.75" y="-40.5" font-family="Helvetica,sans-Serif" font-size="10.00" fill="grey">m_Type</text>
</g>
</g>
</svg>
