<?xml version="1.0" encoding="UTF-8" standalone="no"?>
<!DOCTYPE svg PUBLIC "-//W3C//DTD SVG 1.1//EN"
 "http://www.w3.org/Graphics/SVG/1.1/DTD/svg11.dtd">
<!-- Generated by graphviz version 11.0.0 (20240428.1522)
 -->
<!-- Title: Static_rock_stone10 Pages: 1 -->
<svg width="113pt" height="140pt"
 viewBox="0.00 0.00 113.25 140.00" xmlns="http://www.w3.org/2000/svg" xmlns:xlink="http://www.w3.org/1999/xlink">
<g id="graph0" class="graph" transform="scale(1 1) rotate(0) translate(4 136)">
<title>Static_rock_stone10</title>
<!-- Node1 -->
<g id="Node000001" class="node">
<title>Node1</title>
<g id="a_Node000001"><a xlink:title=" ">
<polygon fill="#999999" stroke="#666666" points="105.25,-20 0,-20 0,0 105.25,0 105.25,-20"/>
<text text-anchor="middle" x="52.62" y="-6.5" font-family="Helvetica,sans-Serif" font-size="10.00">Static_rock_stone10</text>
</a>
</g>
</g>
<!-- Node2 -->
<g id="Node000002" class="node">
<title>Node2</title>
<g id="a_Node000002"><a xlink:href="../../db/d0f/class_rock_base.html" target="_top" xlink:title=" ">
<polygon fill="white" stroke="#666666" points="83.12,-76 22.13,-76 22.13,-56 83.12,-56 83.12,-76"/>
<text text-anchor="middle" x="52.62" y="-62.5" font-family="Helvetica,sans-Serif" font-size="10.00">RockBase</text>
</a>
</g>
</g>
<!-- Node2&#45;&gt;Node1 -->
<g id="edge1_Node000001_Node000002" class="edge">
<title>Node2&#45;&gt;Node1</title>
<g id="a_edge1_Node000001_Node000002"><a xlink:title=" ">
<path fill="none" stroke="#8b1a1a" d="M52.62,-44.13C52.62,-35.9 52.62,-26.85 52.62,-20.3"/>
<polygon fill="#8b1a1a" stroke="#8b1a1a" points="49.13,-44.08 52.63,-54.08 56.13,-44.08 49.13,-44.08"/>
</a>
</g>
</g>
<!-- Node3 -->
<g id="Node000003" class="node">
<title>Node3</title>
<g id="a_Node000003"><a xlink:href="../../d8/d03/class_object.html" target="_top" xlink:title=" ">
<polygon fill="white" stroke="#666666" points="74.88,-132 30.38,-132 30.38,-112 74.88,-112 74.88,-132"/>
<text text-anchor="middle" x="52.62" y="-118.5" font-family="Helvetica,sans-Serif" font-size="10.00">Object</text>
</a>
</g>
</g>
<!-- Node3&#45;&gt;Node2 -->
<g id="edge2_Node000002_Node000003" class="edge">
<title>Node3&#45;&gt;Node2</title>
<g id="a_edge2_Node000002_Node000003"><a xlink:title=" ">
<path fill="none" stroke="#8b1a1a" d="M52.62,-100.13C52.62,-91.9 52.62,-82.85 52.62,-76.3"/>
<polygon fill="#8b1a1a" stroke="#8b1a1a" points="49.13,-100.08 52.63,-110.08 56.13,-100.08 49.13,-100.08"/>
</a>
</g>
</g>
</g>
</svg>
