<?xml version="1.0" encoding="UTF-8" standalone="no"?>
<!DOCTYPE svg PUBLIC "-//W3C//DTD SVG 1.1//EN"
 "http://www.w3.org/Graphics/SVG/1.1/DTD/svg11.dtd">
<!-- Generated by graphviz version 11.0.0 (20240428.1522)
 -->
<!-- Title: SpookyEventSteps Pages: 1 -->
<!--zoomable 430 -->

<svg id="main" version="1.1" xmlns="http://www.w3.org/2000/svg" xmlns:xlink="http://www.w3.org/1999/xlink" xml:space="preserve" onload="init(evt)">
<style type="text/css"><![CDATA[
.node, .edge {opacity: 0.7;}
.node.selected, .edge.selected {opacity: 1;}
.edge:hover path { stroke: red; }
.edge:hover polygon { stroke: red; fill: red; }
]]></style>

<defs>
  <circle id="rim" cx="0" cy="0" r="7"/>
  <circle id="rim2" cx="0" cy="0" r="3.5"/>
  <g id="zoomPlus">
    <use xlink:href="#rim" fill="#404040"><set attributeName="fill" to="#808080" begin="zoomplus.mouseover" end="zoomplus.mouseout"/></use>
    <path d="M-4,0h8M0,-4v8" fill="none" stroke="white" stroke-width="1.5" pointer-events="none"/>
  </g>
  <g id="zoomMin">
    <use xlink:href="#rim" fill="#404040"><set attributeName="fill" to="#808080" begin="zoomminus.mouseover" end="zoomminus.mouseout"/></use>
    <path d="M-4,0h8" fill="none" stroke="white" stroke-width="1.5" pointer-events="none"/>
  </g>
  <g id="arrowUp" transform="translate(30 24)">
    <use xlink:href="#rim"/>
    <path pointer-events="none" fill="none" stroke="white" stroke-width="1.5" d="M0,-3.0v7 M-2.5,-0.5L0,-3.0L2.5,-0.5"/>
  </g>
  <g id="arrowRight" transform="rotate(90) translate(36 -43)">
    <use xlink:href="#rim"/>
    <path pointer-events="none" fill="none" stroke="white" stroke-width="1.5" d="M0,-3.0v7 M-2.5,-0.5L0,-3.0L2.5,-0.5"/>
  </g>
  <g id="arrowDown" transform="rotate(180) translate(-30 -48)">
    <use xlink:href="#rim"/>
    <path pointer-events="none" fill="none" stroke="white" stroke-width="1.5" d="M0,-3.0v7 M-2.5,-0.5L0,-3.0L2.5,-0.5"/>
  </g>
  <g id="arrowLeft" transform="rotate(270) translate(-36 17)">
    <use xlink:href="#rim"/>
    <path pointer-events="none" fill="none" stroke="white" stroke-width="1.5" d="M0,-3.0v7 M-2.5,-0.5L0,-3.0L2.5,-0.5"/>
  </g>
  <g id="resetDef">
    <use xlink:href="#rim2" fill="#404040"><set attributeName="fill" to="#808080" begin="reset.mouseover" end="reset.mouseout"/></use>
  </g>
</defs>
<script type="application/ecmascript">
var viewWidth = 1347;
var viewHeight = 430;
var sectionId = 'dynsection-1';
</script>
<script type="application/ecmascript" xlink:href="../../svg.min.js"/>
<svg id="graph" class="graph">
<g id="viewport">
<title>SpookyEventSteps</title>
<!-- Node1 -->
<g id="Node000001" class="node">
<title>Node1</title>
<g id="a_Node000001"><a xlink:title=" ">
<polygon fill="#999999" stroke="#666666" points="793.25,-20 694.75,-20 694.75,0 793.25,0 793.25,-20"/>
<text text-anchor="middle" x="744" y="-6.5" font-family="Helvetica,sans-Serif" font-size="10.00">SpookyEventSteps</text>
</a>
</g>
</g>
<!-- Node2 -->
<g id="Node000002" class="node">
<title>Node2</title>
<g id="a_Node000002"><a xlink:href="../../d4/d04/class_spooky_event_base.html" target="_top" xlink:title=" ">
<polygon fill="white" stroke="#666666" points="791.75,-76 696.25,-76 696.25,-56 791.75,-56 791.75,-76"/>
<text text-anchor="middle" x="744" y="-62.5" font-family="Helvetica,sans-Serif" font-size="10.00">SpookyEventBase</text>
</a>
</g>
</g>
<!-- Node2&#45;&gt;Node1 -->
<g id="edge1_Node000001_Node000002" class="edge">
<title>Node2&#45;&gt;Node1</title>
<g id="a_edge1_Node000001_Node000002"><a xlink:title=" ">
<path fill="none" stroke="#8b1a1a" d="M744,-44.13C744,-35.9 744,-26.85 744,-20.3"/>
<polygon fill="#8b1a1a" stroke="#8b1a1a" points="740.5,-44.08 744,-54.08 747.5,-44.08 740.5,-44.08"/>
</a>
</g>
</g>
<!-- Node3 -->
<g id="Node000003" class="node">
<title>Node3</title>
<g id="a_Node000003"><a xlink:href="../../d4/d03/classfloat.html" target="_top" xlink:title=" ">
<polygon fill="white" stroke="#666666" points="34,-158 0,-158 0,-138 34,-138 34,-158"/>
<text text-anchor="middle" x="17" y="-144.5" font-family="Helvetica,sans-Serif" font-size="10.00">float</text>
</a>
</g>
</g>
<!-- Node3&#45;&gt;Node2 -->
<g id="edge2_Node000002_Node000003" class="edge">
<title>Node3&#45;&gt;Node2</title>
<g id="a_edge2_Node000002_Node000003"><a xlink:title=" ">
<path fill="none" stroke="#9a32cd" stroke-dasharray="5,2" d="M11.41,-126.73C9.66,-115.59 9.99,-102.37 18.25,-94 42.05,-69.88 537.77,-67.23 695.95,-67"/>
<polygon fill="#9a32cd" stroke="#9a32cd" points="7.93,-127.2 13.51,-136.2 14.76,-125.68 7.93,-127.2"/>
</a>
</g>
<text text-anchor="middle" x="73.38" y="-96.5" font-family="Helvetica,sans-Serif" font-size="10.00" fill="grey"> m_PerformedTimestamp</text>
</g>
<!-- Node3&#45;&gt;Node3 -->
<g id="edge3_Node000003_Node000003" class="edge">
<title>Node3&#45;&gt;Node3</title>
<g id="a_edge3_Node000003_Node000003"><a xlink:title=" ">
<path fill="none" stroke="#9a32cd" stroke-dasharray="5,2" d="M45.67,-155.95C49.47,-154.6 52,-151.95 52,-148 52,-140.78 43.56,-137.91 34.29,-139.37"/>
<polygon fill="#9a32cd" stroke="#9a32cd" points="45.57,-152.45 35.8,-156.54 45.99,-159.43 45.57,-152.45"/>
</a>
</g>
<text text-anchor="middle" x="74.12" y="-156.5" font-family="Helvetica,sans-Serif" font-size="10.00" fill="grey"> LOWEST</text>
<text text-anchor="middle" x="74.12" y="-144.5" font-family="Helvetica,sans-Serif" font-size="10.00" fill="grey">MAX</text>
<text text-anchor="middle" x="74.12" y="-132.5" font-family="Helvetica,sans-Serif" font-size="10.00" fill="grey">MIN</text>
</g>
<!-- Node4 -->
<g id="Node000004" class="node">
<title>Node4</title>
<g id="a_Node000004"><a xlink:href="../../db/d06/class_param3.html" target="_top" xlink:title=" ">
<polygon fill="white" stroke="#666666" points="1009.88,-420 960.12,-420 960.12,-400 1009.88,-400 1009.88,-420"/>
<text text-anchor="middle" x="985" y="-406.5" font-family="Helvetica,sans-Serif" font-size="10.00">Param3</text>
</a>
</g>
</g>
<!-- Node4&#45;&gt;Node2 -->
<g id="edge4_Node000002_Node000004" class="edge">
<title>Node4&#45;&gt;Node2</title>
<g id="a_edge4_Node000002_Node000004"><a xlink:title=" ">
<path fill="none" stroke="#9a32cd" stroke-dasharray="5,2" d="M1020.96,-397.64C1064.17,-381.8 1134.54,-348.47 1164,-292 1178.8,-263.63 1182.35,-246.22 1164,-220 1078.11,-97.3 883.01,-72.65 792.18,-67.94"/>
<polygon fill="#9a32cd" stroke="#9a32cd" points="1020.03,-394.26 1011.76,-400.88 1022.36,-400.86 1020.03,-394.26"/>
</a>
</g>
<text text-anchor="middle" x="1179.25" y="-192.5" font-family="Helvetica,sans-Serif" font-size="10.00" fill="grey"> m_Cooldown</text>
</g>
<!-- Node6 -->
<g id="Node000006" class="node">
<title>Node6</title>
<g id="a_Node000006"><a xlink:href="../../d2/d01/classarray.html" target="_top" xlink:title=" ">
<polygon fill="white" stroke="#666666" points="783.88,-158 704.12,-158 704.12,-138 783.88,-138 783.88,-158"/>
<text text-anchor="middle" x="744" y="-144.5" font-family="Helvetica,sans-Serif" font-size="10.00">array&lt; string &gt;</text>
</a>
</g>
</g>
<!-- Node4&#45;&gt;Node6 -->
<g id="edge9_Node000006_Node000004" class="edge">
<title>Node4&#45;&gt;Node6</title>
<g id="a_edge9_Node000006_Node000004"><a xlink:title=" ">
<path fill="none" stroke="#9a32cd" stroke-dasharray="5,2" d="M998.31,-390.57C1022.89,-354.07 1069.39,-271.68 1029,-220 999.05,-181.68 855.5,-161.05 784.27,-153.02"/>
<polygon fill="#9a32cd" stroke="#9a32cd" points="995.74,-388.13 992.91,-398.34 1001.49,-392.12 995.74,-388.13"/>
</a>
</g>
<text text-anchor="middle" x="1102.12" y="-282.5" font-family="Helvetica,sans-Serif" font-size="10.00" fill="grey"> NO_SORTING</text>
<text text-anchor="middle" x="1102.12" y="-270.5" font-family="Helvetica,sans-Serif" font-size="10.00" fill="grey">geomLevel</text>
<text text-anchor="middle" x="1102.12" y="-258.5" font-family="Helvetica,sans-Serif" font-size="10.00" fill="grey">hierLevel</text>
<text text-anchor="start" x="1044" y="-246.5" font-family="Helvetica,sans-Serif" font-size="10.00" fill="grey">m_CurrentSettingAlternate</text>
<text text-anchor="middle" x="1102.12" y="-234.5" font-family="Helvetica,sans-Serif" font-size="10.00" fill="grey">KeyIndex</text>
<text text-anchor="middle" x="1102.12" y="-222.5" font-family="Helvetica,sans-Serif" font-size="10.00" fill="grey">m_CurrentSettingKeyIndex</text>
</g>
<!-- Node8 -->
<g id="Node000008" class="node">
<title>Node8</title>
<g id="a_Node000008"><a xlink:href="../../d2/d01/classarray.html" target="_top" xlink:title="Result for an object found in CGame.IsBoxCollidingGeometryProxy.">
<polygon fill="white" stroke="#666666" points="603.88,-266 566.12,-266 566.12,-246 603.88,-246 603.88,-266"/>
<text text-anchor="middle" x="585" y="-252.5" font-family="Helvetica,sans-Serif" font-size="10.00">array</text>
</a>
</g>
</g>
<!-- Node4&#45;&gt;Node8 -->
<g id="edge12_Node000008_Node000004" class="edge">
<title>Node4&#45;&gt;Node8</title>
<g id="a_edge12_Node000008_Node000004"><a xlink:title=" ">
<path fill="none" stroke="#9a32cd" stroke-dasharray="5,2" d="M948.41,-406.64C897.57,-402.94 808.43,-394.85 778.75,-382 732.46,-361.95 733.32,-337.45 691,-310 662.17,-291.3 625.85,-274.45 604.07,-264.98"/>
<polygon fill="#9a32cd" stroke="#9a32cd" points="948.12,-410.12 958.35,-407.33 948.62,-403.14 948.12,-410.12"/>
</a>
</g>
<text text-anchor="middle" x="837.12" y="-372.5" font-family="Helvetica,sans-Serif" font-size="10.00" fill="grey"> NO_SORTING</text>
<text text-anchor="middle" x="837.12" y="-360.5" font-family="Helvetica,sans-Serif" font-size="10.00" fill="grey">geomLevel</text>
<text text-anchor="middle" x="837.12" y="-348.5" font-family="Helvetica,sans-Serif" font-size="10.00" fill="grey">hierLevel</text>
<text text-anchor="start" x="779" y="-336.5" font-family="Helvetica,sans-Serif" font-size="10.00" fill="grey">m_CurrentSettingAlternate</text>
<text text-anchor="middle" x="837.12" y="-324.5" font-family="Helvetica,sans-Serif" font-size="10.00" fill="grey">KeyIndex</text>
<text text-anchor="middle" x="837.12" y="-312.5" font-family="Helvetica,sans-Serif" font-size="10.00" fill="grey">m_CurrentSettingKeyIndex</text>
</g>
<!-- Node11 -->
<g id="Node000011" class="node">
<title>Node11</title>
<g id="a_Node000011"><a xlink:href="../../d2/d01/classarray.html" target="_top" xlink:title=" ">
<polygon fill="white" stroke="#666666" points="440.25,-158 353.75,-158 353.75,-138 440.25,-138 440.25,-158"/>
<text text-anchor="middle" x="397" y="-144.5" font-family="Helvetica,sans-Serif" font-size="10.00">array&lt; Widget &gt;</text>
</a>
</g>
</g>
<!-- Node4&#45;&gt;Node11 -->
<g id="edge19_Node000011_Node000004" class="edge">
<title>Node4&#45;&gt;Node11</title>
<g id="a_edge19_Node000011_Node000004"><a xlink:title=" ">
<path fill="none" stroke="#9a32cd" stroke-dasharray="5,2" d="M970.67,-390.52C953.92,-368.21 926.28,-329.06 908.75,-292 894.4,-261.66 911.13,-242.24 886,-220 852.8,-190.61 554.28,-162.38 440.64,-152.61"/>
<polygon fill="#9a32cd" stroke="#9a32cd" points="967.76,-392.48 976.6,-398.31 973.33,-388.24 967.76,-392.48"/>
</a>
</g>
<text text-anchor="middle" x="967.12" y="-282.5" font-family="Helvetica,sans-Serif" font-size="10.00" fill="grey"> NO_SORTING</text>
<text text-anchor="middle" x="967.12" y="-270.5" font-family="Helvetica,sans-Serif" font-size="10.00" fill="grey">geomLevel</text>
<text text-anchor="middle" x="967.12" y="-258.5" font-family="Helvetica,sans-Serif" font-size="10.00" fill="grey">hierLevel</text>
<text text-anchor="start" x="909" y="-246.5" font-family="Helvetica,sans-Serif" font-size="10.00" fill="grey">m_CurrentSettingAlternate</text>
<text text-anchor="middle" x="967.12" y="-234.5" font-family="Helvetica,sans-Serif" font-size="10.00" fill="grey">KeyIndex</text>
<text text-anchor="middle" x="967.12" y="-222.5" font-family="Helvetica,sans-Serif" font-size="10.00" fill="grey">m_CurrentSettingKeyIndex</text>
</g>
<!-- Node5 -->
<g id="Node000005" class="node">
<title>Node5</title>
<g id="a_Node000005"><a xlink:href="../../d5/d02/classstring.html" target="_top" xlink:title=" ">
<polygon fill="white" stroke="#666666" points="286,-420 246,-420 246,-400 286,-400 286,-420"/>
<text text-anchor="middle" x="266" y="-406.5" font-family="Helvetica,sans-Serif" font-size="10.00">string</text>
</a>
</g>
</g>
<!-- Node5&#45;&gt;Node2 -->
<g id="edge5_Node000002_Node000005" class="edge">
<title>Node5&#45;&gt;Node2</title>
<g id="a_edge5_Node000002_Node000005"><a xlink:title=" ">
<path fill="none" stroke="#9a32cd" stroke-dasharray="5,2" d="M236.05,-395.88C230.31,-392.14 224.89,-387.54 221,-382 171.16,-310.98 137.56,-262.14 185.75,-190 242.67,-104.8 571,-77.02 695.84,-69.46"/>
<polygon fill="#9a32cd" stroke="#9a32cd" points="234.04,-398.77 244.47,-400.63 237.48,-392.67 234.04,-398.77"/>
</a>
</g>
<text text-anchor="middle" x="215.62" y="-192.5" font-family="Helvetica,sans-Serif" font-size="10.00" fill="grey"> m_SoundSet</text>
</g>
<!-- Node5&#45;&gt;Node5 -->
<g id="edge6_Node000005_Node000005" class="edge">
<title>Node5&#45;&gt;Node5</title>
<g id="a_edge6_Node000005_Node000005"><a xlink:title=" ">
<path fill="none" stroke="#9a32cd" stroke-dasharray="5,2" d="M291.77,-421.91C298.72,-421.28 304,-417.31 304,-410 304,-399.12 292.3,-395.64 280.82,-399.55"/>
<polygon fill="#9a32cd" stroke="#9a32cd" points="292.7,-418.5 282.32,-420.65 291.77,-425.44 292.7,-418.5"/>
</a>
</g>
<text text-anchor="middle" x="319.75" y="-406.5" font-family="Helvetica,sans-Serif" font-size="10.00" fill="grey"> Empty</text>
</g>
<!-- Node5&#45;&gt;Node6 -->
<g id="edge26_Node000006_Node000005" class="edge">
<title>Node5&#45;&gt;Node6</title>
<g id="a_edge26_Node000006_Node000005"><a xlink:title=" ">
<path fill="none" stroke="#9a32cd" stroke-dasharray="5,2" d="M272.05,-388.96C279.23,-367.63 292.83,-333.75 313,-310 322.1,-299.29 330.24,-302.99 339,-292 360.47,-265.05 340.36,-240.91 367.75,-220 395.88,-198.52 491.79,-211.07 526,-202 539.09,-198.53 541.1,-194.11 554,-190 604.64,-173.85 664.88,-162.05 703.75,-155.37"/>
<polygon fill="#9a32cd" stroke="#9a32cd" points="268.81,-387.6 269.1,-398.19 275.48,-389.73 268.81,-387.6"/>
</a>
</g>
<text text-anchor="middle" x="385.62" y="-252.5" font-family="Helvetica,sans-Serif" font-size="10.00" fill="grey"> m_Test</text>
</g>
<!-- Node5&#45;&gt;Node8 -->
<g id="edge15_Node000008_Node000005" class="edge">
<title>Node5&#45;&gt;Node8</title>
<g id="a_edge15_Node000008_Node000005"><a xlink:title=" ">
<path fill="none" stroke="#9a32cd" stroke-dasharray="5,2" d="M291.36,-393.67C297.49,-389.9 304.01,-385.84 310,-382 358.5,-350.93 363.87,-330.35 417.75,-310 474.07,-288.73 498.44,-319.48 552,-292 563.44,-286.13 573.06,-274.66 578.91,-266.45"/>
<polygon fill="#9a32cd" stroke="#9a32cd" points="289.57,-390.66 282.86,-398.86 293.22,-396.64 289.57,-390.66"/>
</a>
</g>
<text text-anchor="middle" x="435.62" y="-342.5" font-family="Helvetica,sans-Serif" font-size="10.00" fill="grey"> m_Test</text>
</g>
<!-- Node5&#45;&gt;Node11 -->
<g id="edge22_Node000011_Node000005" class="edge">
<title>Node5&#45;&gt;Node11</title>
<g id="a_edge22_Node000011_Node000005"><a xlink:title=" ">
<path fill="none" stroke="#9a32cd" stroke-dasharray="5,2" d="M254.9,-390.2C235.27,-354.22 199.57,-274.41 233.75,-220 259.4,-179.17 314.41,-161.74 353.47,-154.35"/>
<polygon fill="#9a32cd" stroke="#9a32cd" points="251.67,-391.58 259.64,-398.56 257.76,-388.13 251.67,-391.58"/>
</a>
</g>
<text text-anchor="middle" x="251.62" y="-252.5" font-family="Helvetica,sans-Serif" font-size="10.00" fill="grey"> m_Test</text>
</g>
<!-- Node6&#45;&gt;Node2 -->
<g id="edge7_Node000002_Node000006" class="edge">
<title>Node6&#45;&gt;Node2</title>
<g id="a_edge7_Node000002_Node000006"><a xlink:title=" ">
<path fill="none" stroke="#9a32cd" stroke-dasharray="5,2" d="M744,-126.06C744,-110.01 744,-88.62 744,-76.48"/>
<polygon fill="#9a32cd" stroke="#9a32cd" points="740.5,-126 744,-136 747.5,-126 740.5,-126"/>
</a>
</g>
<text text-anchor="middle" x="771.38" y="-96.5" font-family="Helvetica,sans-Serif" font-size="10.00" fill="grey"> m_Surfaces</text>
</g>
<!-- Node7 -->
<g id="Node000007" class="node">
<title>Node7</title>
<g id="a_Node000007"><a xlink:href="../../d8/d03/class_object.html" target="_top" xlink:title=" ">
<polygon fill="white" stroke="#666666" points="595.25,-420 550.75,-420 550.75,-400 595.25,-400 595.25,-420"/>
<text text-anchor="middle" x="573" y="-406.5" font-family="Helvetica,sans-Serif" font-size="10.00">Object</text>
</a>
</g>
</g>
<!-- Node7&#45;&gt;Node6 -->
<g id="edge8_Node000006_Node000007" class="edge">
<title>Node7&#45;&gt;Node6</title>
<g id="a_edge8_Node000006_Node000007"><a xlink:title=" ">
<path fill="none" stroke="#9a32cd" stroke-dasharray="5,2" d="M606.83,-405.75C624.87,-402.41 646.31,-395.65 661,-382 686.15,-358.63 664.27,-333.82 689,-310 706.62,-293.04 726.61,-311.77 741,-292 771.25,-250.44 754.54,-182.59 747.04,-158.14"/>
<polygon fill="#9a32cd" stroke="#9a32cd" points="606.42,-402.27 597.07,-407.26 607.49,-409.19 606.42,-402.27"/>
</a>
</g>
<text text-anchor="middle" x="772.5" y="-258.5" font-family="Helvetica,sans-Serif" font-size="10.00" fill="grey"> obj</text>
<text text-anchor="middle" x="772.5" y="-246.5" font-family="Helvetica,sans-Serif" font-size="10.00" fill="grey">parent</text>
</g>
<!-- Node7&#45;&gt;Node8 -->
<g id="edge11_Node000008_Node000007" class="edge">
<title>Node7&#45;&gt;Node8</title>
<g id="a_edge11_Node000008_Node000007"><a xlink:title=" ">
<path fill="none" stroke="#9a32cd" stroke-dasharray="5,2" d="M572.04,-388.26C571.39,-368.19 571.1,-336.92 574,-310 575.67,-294.49 579.8,-276.81 582.5,-266.29"/>
<polygon fill="#9a32cd" stroke="#9a32cd" points="568.54,-388.32 572.43,-398.17 575.54,-388.04 568.54,-388.32"/>
</a>
</g>
<text text-anchor="middle" x="587.5" y="-348.5" font-family="Helvetica,sans-Serif" font-size="10.00" fill="grey"> obj</text>
<text text-anchor="middle" x="587.5" y="-336.5" font-family="Helvetica,sans-Serif" font-size="10.00" fill="grey">parent</text>
</g>
<!-- Node7&#45;&gt;Node11 -->
<g id="edge18_Node000011_Node000007" class="edge">
<title>Node7&#45;&gt;Node11</title>
<g id="a_edge18_Node000011_Node000007"><a xlink:title=" ">
<path fill="none" stroke="#9a32cd" stroke-dasharray="5,2" d="M568.91,-388.64C563.27,-365.95 550.83,-329.85 526,-310 497.53,-287.24 473.13,-316.33 446,-292 405.36,-255.56 398.41,-183.93 397.24,-158.35"/>
<polygon fill="#9a32cd" stroke="#9a32cd" points="565.45,-389.21 571.06,-398.2 572.28,-387.68 565.45,-389.21"/>
</a>
</g>
<text text-anchor="middle" x="459.5" y="-258.5" font-family="Helvetica,sans-Serif" font-size="10.00" fill="grey"> obj</text>
<text text-anchor="middle" x="459.5" y="-246.5" font-family="Helvetica,sans-Serif" font-size="10.00" fill="grey">parent</text>
</g>
<!-- Node8&#45;&gt;Node6 -->
<g id="edge10_Node000006_Node000008" class="edge">
<title>Node8&#45;&gt;Node6</title>
<g id="a_edge10_Node000006_Node000008"><a xlink:title=" ">
<path fill="none" stroke="#9a32cd" stroke-dasharray="5,2" d="M608.62,-239.25C642.27,-216.82 702.95,-176.37 730.15,-158.23"/>
<polygon fill="#9a32cd" stroke="#9a32cd" points="606.75,-236.29 600.37,-244.75 610.63,-242.12 606.75,-236.29"/>
</a>
</g>
<text text-anchor="middle" x="700" y="-192.5" font-family="Helvetica,sans-Serif" font-size="10.00" fill="grey"> proxyInfo</text>
</g>
<!-- Node8&#45;&gt;Node8 -->
<g id="edge13_Node000008_Node000008" class="edge">
<title>Node8&#45;&gt;Node8</title>
<g id="a_edge13_Node000008_Node000008"><a xlink:title=" ">
<path fill="none" stroke="#9a32cd" stroke-dasharray="5,2" d="M613.02,-266.66C618.22,-265.34 621.88,-261.78 621.88,-256 621.88,-246.51 612.03,-243.02 601.69,-245.54"/>
<polygon fill="#9a32cd" stroke="#9a32cd" points="613.26,-263.17 603.2,-266.48 613.13,-270.16 613.26,-263.17"/>
</a>
</g>
<text text-anchor="middle" x="642.88" y="-252.5" font-family="Helvetica,sans-Serif" font-size="10.00" fill="grey"> proxyInfo</text>
</g>
<!-- Node8&#45;&gt;Node11 -->
<g id="edge20_Node000011_Node000008" class="edge">
<title>Node8&#45;&gt;Node11</title>
<g id="a_edge20_Node000011_Node000008"><a xlink:title=" ">
<path fill="none" stroke="#9a32cd" stroke-dasharray="5,2" d="M571.88,-236.96C566.42,-230.67 559.57,-224.16 552,-220 514.71,-199.53 496.26,-220.59 458,-202 435.79,-191.21 415.29,-170.21 404.64,-158.13"/>
<polygon fill="#9a32cd" stroke="#9a32cd" points="568.93,-238.87 577.89,-244.52 574.41,-234.51 568.93,-238.87"/>
</a>
</g>
<text text-anchor="middle" x="479" y="-192.5" font-family="Helvetica,sans-Serif" font-size="10.00" fill="grey"> proxyInfo</text>
</g>
<!-- Node9 -->
<g id="Node000009" class="node">
<title>Node9</title>
<g id="a_Node000009"><a xlink:href="../../d4/d04/class_class.html" target="_top" xlink:title="Super root of all classes in Enforce script.">
<polygon fill="white" stroke="#666666" points="459.38,-420 418.62,-420 418.62,-400 459.38,-400 459.38,-420"/>
<text text-anchor="middle" x="439" y="-406.5" font-family="Helvetica,sans-Serif" font-size="10.00">Class</text>
</a>
</g>
</g>
<!-- Node9&#45;&gt;Node6 -->
<g id="edge25_Node000006_Node000009" class="edge">
<title>Node9&#45;&gt;Node6</title>
<g id="a_edge25_Node000006_Node000009"><a xlink:title=" ">
<path fill="none" stroke="#9a32cd" stroke-dasharray="5,2" d="M437.93,-388.28C437.72,-367.33 439.89,-334.62 453,-310 458.62,-299.44 466.04,-301.73 473,-292 493.24,-263.7 477.76,-243.13 503.75,-220 511.6,-213.02 644.5,-176.12 709.19,-158.45"/>
<polygon fill="#9a32cd" stroke="#9a32cd" points="434.42,-388.22 438.23,-398.11 441.42,-388.01 434.42,-388.22"/>
</a>
</g>
<text text-anchor="middle" x="530.62" y="-252.5" font-family="Helvetica,sans-Serif" font-size="10.00" fill="grey"> m_Instance</text>
</g>
<!-- Node9&#45;&gt;Node8 -->
<g id="edge14_Node000008_Node000009" class="edge">
<title>Node9&#45;&gt;Node8</title>
<g id="a_edge14_Node000008_Node000009"><a xlink:title=" ">
<path fill="none" stroke="#9a32cd" stroke-dasharray="5,2" d="M449.79,-389.96C462.85,-368.29 486.62,-332.93 514.75,-310 529,-298.38 537.17,-302.87 552,-292 562.1,-284.59 571.7,-273.85 577.91,-266.22"/>
<polygon fill="#9a32cd" stroke="#9a32cd" points="446.91,-387.95 444.88,-398.34 452.95,-391.48 446.91,-387.95"/>
</a>
</g>
<text text-anchor="middle" x="541.62" y="-342.5" font-family="Helvetica,sans-Serif" font-size="10.00" fill="grey"> m_Instance</text>
</g>
<!-- Node9&#45;&gt;Node11 -->
<g id="edge21_Node000011_Node000009" class="edge">
<title>Node9&#45;&gt;Node11</title>
<g id="a_edge21_Node000011_Node000009"><a xlink:title=" ">
<path fill="none" stroke="#9a32cd" stroke-dasharray="5,2" d="M427.52,-389.75C411.79,-363.98 383.69,-320.33 368,-310 336.74,-289.43 309.21,-321.15 285.75,-292 265.69,-267.07 270.37,-248.06 285.75,-220 303.04,-188.45 340.97,-168.9 367.71,-158.49"/>
<polygon fill="#9a32cd" stroke="#9a32cd" points="424.49,-391.5 432.65,-398.25 430.48,-387.88 424.49,-391.5"/>
</a>
</g>
<text text-anchor="middle" x="312.62" y="-252.5" font-family="Helvetica,sans-Serif" font-size="10.00" fill="grey"> m_Instance</text>
</g>
<!-- Node10 -->
<g id="Node000010" class="node">
<title>Node10</title>
<g id="a_Node000010"><a xlink:href="../../dd/d0a/class_widget.html" target="_top" xlink:title=" ">
<polygon fill="white" stroke="#666666" points="723.38,-420 676.62,-420 676.62,-400 723.38,-400 723.38,-420"/>
<text text-anchor="middle" x="700" y="-406.5" font-family="Helvetica,sans-Serif" font-size="10.00">Widget</text>
</a>
</g>
</g>
<!-- Node10&#45;&gt;Node6 -->
<g id="edge27_Node000006_Node000010" class="edge">
<title>Node10&#45;&gt;Node6</title>
<g id="a_edge27_Node000006_Node000010"><a xlink:title=" ">
<path fill="none" stroke="#9a32cd" stroke-dasharray="5,2" d="M734.96,-407.72C774.61,-405.45 835.63,-399.19 850,-382 870.53,-357.45 857.49,-341.11 850,-310 835.9,-251.44 824.05,-237.5 787,-190 777.61,-177.96 764.71,-166.14 755.49,-158.31"/>
<polygon fill="#9a32cd" stroke="#9a32cd" points="734.99,-404.22 725.18,-408.22 735.34,-411.21 734.99,-404.22"/>
</a>
</g>
<text text-anchor="middle" x="863.38" y="-252.5" font-family="Helvetica,sans-Serif" font-size="10.00" fill="grey"> m_Root</text>
</g>
<!-- Node10&#45;&gt;Node8 -->
<g id="edge16_Node000008_Node000010" class="edge">
<title>Node10&#45;&gt;Node8</title>
<g id="a_edge16_Node000008_Node000010"><a xlink:title=" ">
<path fill="none" stroke="#9a32cd" stroke-dasharray="5,2" d="M666.56,-394.96C660.32,-391.35 654.22,-387.04 649.25,-382 614.47,-346.73 594.45,-288.8 587.65,-266.32"/>
<polygon fill="#9a32cd" stroke="#9a32cd" points="664.49,-397.83 674.97,-399.36 667.73,-391.63 664.49,-397.83"/>
</a>
</g>
<text text-anchor="middle" x="668.38" y="-342.5" font-family="Helvetica,sans-Serif" font-size="10.00" fill="grey"> m_Root</text>
</g>
<!-- Node10&#45;&gt;Node11 -->
<g id="edge23_Node000011_Node000010" class="edge">
<title>Node10&#45;&gt;Node11</title>
<g id="a_edge23_Node000011_Node000010"><a xlink:title=" ">
<path fill="none" stroke="#9a32cd" stroke-dasharray="5,2" d="M699.68,-388.19C698.59,-344.54 693.82,-245.36 673,-220 643.72,-184.34 510.62,-162.96 440.51,-153.97"/>
<polygon fill="#9a32cd" stroke="#9a32cd" points="696.18,-388.15 699.88,-398.08 703.17,-388.01 696.18,-388.15"/>
</a>
</g>
<text text-anchor="middle" x="711.38" y="-252.5" font-family="Helvetica,sans-Serif" font-size="10.00" fill="grey"> m_Root</text>
</g>
<!-- Node11&#45;&gt;Node8 -->
<g id="edge17_Node000008_Node000011" class="edge">
<title>Node11&#45;&gt;Node8</title>
<g id="a_edge17_Node000008_Node000011"><a xlink:title=" ">
<path fill="none" stroke="#9a32cd" stroke-dasharray="5,2" d="M436.43,-162.23C469.16,-174.31 516.02,-194.2 552,-220 562.18,-227.3 571.76,-238.06 577.95,-245.72"/>
<polygon fill="#9a32cd" stroke="#9a32cd" points="437.92,-159.05 427.33,-158.95 435.55,-165.63 437.92,-159.05"/>
</a>
</g>
<text text-anchor="middle" x="552.5" y="-192.5" font-family="Helvetica,sans-Serif" font-size="10.00" fill="grey"> m_Subgroups</text>
</g>
<!-- Node11&#45;&gt;Node11 -->
<g id="edge24_Node000011_Node000011" class="edge">
<title>Node11&#45;&gt;Node11</title>
<g id="a_edge24_Node000011_Node000011"><a xlink:title=" ">
<path fill="none" stroke="#9a32cd" stroke-dasharray="5,2" d="M451.63,-154.72C455.73,-153.22 458.25,-150.98 458.25,-148 458.25,-142.84 450.71,-139.9 440.49,-139.18"/>
<polygon fill="#9a32cd" stroke="#9a32cd" points="451.16,-151.25 441.98,-156.54 452.45,-158.13 451.16,-151.25"/>
</a>
</g>
<text text-anchor="middle" x="489.75" y="-144.5" font-family="Helvetica,sans-Serif" font-size="10.00" fill="grey"> m_Subgroups</text>
</g>
<!-- Node12 -->
<g id="Node000012" class="node">
<title>Node12</title>
<g id="a_Node000012"><a xlink:href="../../d7/d0c/classvector.html" target="_top" xlink:title=" ">
<polygon fill="white" stroke="#666666" points="1274.75,-158 1233.25,-158 1233.25,-138 1274.75,-138 1274.75,-158"/>
<text text-anchor="middle" x="1254" y="-144.5" font-family="Helvetica,sans-Serif" font-size="10.00">vector</text>
</a>
</g>
</g>
<!-- Node12&#45;&gt;Node2 -->
<g id="edge28_Node000002_Node000012" class="edge">
<title>Node12&#45;&gt;Node2</title>
<g id="a_edge28_Node000002_Node000012"><a xlink:title=" ">
<path fill="none" stroke="#9a32cd" stroke-dasharray="5,2" d="M1246.38,-127.22C1240.71,-115.41 1231.75,-101.33 1219,-94 1182.66,-73.1 905.27,-68.37 791.98,-67.31"/>
<polygon fill="#9a32cd" stroke="#9a32cd" points="1243.05,-128.34 1250.21,-136.15 1249.48,-125.58 1243.05,-128.34"/>
</a>
</g>
<text text-anchor="middle" x="1285.25" y="-96.5" font-family="Helvetica,sans-Serif" font-size="10.00" fill="grey"> m_MatchingSurfacePos</text>
</g>
<!-- Node12&#45;&gt;Node12 -->
<g id="edge29_Node000012_Node000012" class="edge">
<title>Node12&#45;&gt;Node12</title>
<g id="a_edge29_Node000012_Node000012"><a xlink:title=" ">
<path fill="none" stroke="#9a32cd" stroke-dasharray="5,2" d="M1286.54,-155.67C1290.31,-154.25 1292.75,-151.69 1292.75,-148 1292.75,-141.25 1284.58,-138.3 1275.13,-139.14"/>
<polygon fill="#9a32cd" stroke="#9a32cd" points="1286.21,-152.18 1276.63,-156.7 1286.94,-159.15 1286.21,-152.18"/>
</a>
</g>
<text text-anchor="middle" x="1310" y="-162.5" font-family="Helvetica,sans-Serif" font-size="10.00" fill="grey"> Aside</text>
<text text-anchor="middle" x="1310" y="-150.5" font-family="Helvetica,sans-Serif" font-size="10.00" fill="grey">Forward</text>
<text text-anchor="middle" x="1310" y="-138.5" font-family="Helvetica,sans-Serif" font-size="10.00" fill="grey">Up</text>
<text text-anchor="middle" x="1310" y="-126.5" font-family="Helvetica,sans-Serif" font-size="10.00" fill="grey">Zero</text>
</g>
</g>
</svg>

<g id="navigator" transform="translate(0 0)" fill="#404254">
  <rect fill="#f2f5e9" fill-opacity="0.5" stroke="#606060" stroke-width=".5" x="0" y="0" width="60" height="60"/>
  <use id="zoomplus" xlink:href="#zoomPlus" x="17" y="9" onmousedown="handleZoom(evt,'in')"/>
  <use id="zoomminus" xlink:href="#zoomMin" x="42" y="9" onmousedown="handleZoom(evt,'out')"/>
  <use id="reset" xlink:href="#resetDef" x="30" y="36" onmousedown="handleReset()"/>
   <use id="arrowup" xlink:href="#arrowUp" x="0" y="0" onmousedown="handlePan(0,-1)"/>
  <use id="arrowright" xlink:href="#arrowRight" x="0" y="0" onmousedown="handlePan(1,0)"/>
  <use id="arrowdown" xlink:href="#arrowDown" x="0" y="0" onmousedown="handlePan(0,1)"/>
  <use id="arrowleft" xlink:href="#arrowLeft" x="0" y="0" onmousedown="handlePan(-1,0)"/>
</g>
<svg viewBox="0 0 15 15" width="100%" height="30px" preserveAspectRatio="xMaxYMin meet">
 <g id="arrow_out" transform="scale(0.3 0.3)">
  <a xlink:href="class_spooky_event_steps__coll__graph_org.svg" target="_base">
   <rect id="button" ry="5" rx="5" y="6" x="6" height="38" width="38"
        fill="#f2f5e9" fill-opacity="0.5" stroke="#606060" stroke-width="1.0"/>
   <path id="arrow"
     d="M 11.500037,31.436501 C 11.940474,20.09759 22.043105,11.32322 32.158766,21.979434 L 37.068811,17.246167 C 37.068811,17.246167 37.088388,32 37.088388,32 L 22.160133,31.978069 C 22.160133,31.978069 26.997745,27.140456 26.997745,27.140456 C 18.528582,18.264221 13.291696,25.230495 11.500037,31.436501 z"
     style="fill:#404040;"/>
  </a>
 </g>
</svg>

<style type='text/css'>
<![CDATA[
[data-mouse-over-selected='false'] { opacity: 0.7; }
[data-mouse-over-selected='true']  { opacity: 1.0; }
]]>
</style>
<script type="application/ecmascript"><![CDATA[
document.addEventListener('DOMContentLoaded', (event) => {
  highlightEdges();
  highlightAdjacentNodes();
});
]]></script>
</svg>
