<?xml version="1.0" encoding="UTF-8" standalone="no"?>
<!DOCTYPE svg PUBLIC "-//W3C//DTD SVG 1.1//EN"
 "http://www.w3.org/Graphics/SVG/1.1/DTD/svg11.dtd">
<!-- Generated by graphviz version 11.0.0 (20240428.1522)
 -->
<!-- Title: Light API Pages: 1 -->
<svg width="288pt" height="28pt"
 viewBox="0.00 0.00 287.75 28.00" xmlns="http://www.w3.org/2000/svg" xmlns:xlink="http://www.w3.org/1999/xlink">
<g id="graph0" class="graph" transform="scale(1 1) rotate(0) translate(4 24)">
<title>Light API</title>
<!-- Node2 -->
<g id="Node000002" class="node">
<title>Node2</title>
<g id="a_Node000002"><a xlink:href="../../dd/d02/group___camera.html" target="_top" xlink:title=" ">
<polygon fill="white" stroke="#666666" points="49.75,-20 0,-20 0,0 49.75,0 49.75,-20"/>
<text text-anchor="middle" x="24.88" y="-6.5" font-family="Helvetica,sans-Serif" font-size="10.00">Camera</text>
</a>
</g>
</g>
<!-- Node1 -->
<g id="Node000001" class="node">
<title>Node1</title>
<g id="a_Node000001"><a xlink:title=" ">
<polygon fill="#999999" stroke="#666666" points="141.5,-20 85.75,-20 85.75,0 141.5,0 141.5,-20"/>
<text text-anchor="middle" x="113.62" y="-6.5" font-family="Helvetica,sans-Serif" font-size="10.00">Light API</text>
</a>
</g>
</g>
<!-- Node2&#45;&gt;Node1 -->
<g id="edge1" class="edge">
<title>Node2&#45;&gt;Node1</title>
<path fill="none" stroke="black" d="M61.43,-10C69.48,-10 77.9,-10 85.54,-10"/>
<polygon fill="black" stroke="black" points="61.55,-6.5 51.55,-10 61.55,-13.5 61.55,-6.5"/>
</g>
<!-- Node3 -->
<g id="Node000003" class="node">
<title>Node3</title>
<g id="a_Node000003"><a xlink:href="../../de/d05/group___world_trace.html" target="_top" xlink:title=" ">
<polygon fill="white" stroke="#666666" points="279.75,-20 177.5,-20 177.5,0 279.75,0 279.75,-20"/>
<text text-anchor="middle" x="228.62" y="-6.5" font-family="Helvetica,sans-Serif" font-size="10.00">Trace&amp;Visibility API</text>
</a>
</g>
</g>
<!-- Node1&#45;&gt;Node3 -->
<g id="edge2" class="edge">
<title>Node1&#45;&gt;Node3</title>
<path fill="none" stroke="black" d="M153.47,-10C161.08,-10 169.18,-10 177.11,-10"/>
<polygon fill="black" stroke="black" points="153.49,-6.5 143.49,-10 153.49,-13.5 153.49,-6.5"/>
</g>
</g>
</svg>
