<?xml version="1.0" encoding="UTF-8" standalone="no"?>
<!DOCTYPE svg PUBLIC "-//W3C//DTD SVG 1.1//EN"
 "http://www.w3.org/Graphics/SVG/1.1/DTD/svg11.dtd">
<!-- Generated by graphviz version 11.0.0 (20240428.1522)
 -->
<!-- Title: HeartAttackMdfr Pages: 1 -->
<svg width="232pt" height="160pt"
 viewBox="0.00 0.00 232.12 160.00" xmlns="http://www.w3.org/2000/svg" xmlns:xlink="http://www.w3.org/1999/xlink">
<g id="graph0" class="graph" transform="scale(1 1) rotate(0) translate(4 156)">
<title>HeartAttackMdfr</title>
<!-- Node1 -->
<g id="Node000001" class="node">
<title>Node1</title>
<g id="a_Node000001"><a xlink:title=" ">
<polygon fill="#999999" stroke="#666666" points="102.38,-20 15.88,-20 15.88,0 102.38,0 102.38,-20"/>
<text text-anchor="middle" x="59.12" y="-6.5" font-family="Helvetica,sans-Serif" font-size="10.00">HeartAttackMdfr</text>
</a>
</g>
</g>
<!-- Node2 -->
<g id="Node000002" class="node">
<title>Node2</title>
<g id="a_Node000002"><a xlink:href="../../d8/d0a/class_modifier_base.html" target="_top" xlink:title=" ">
<polygon fill="white" stroke="#666666" points="72.25,-144 0,-144 0,-124 72.25,-124 72.25,-144"/>
<text text-anchor="middle" x="36.12" y="-130.5" font-family="Helvetica,sans-Serif" font-size="10.00">ModifierBase</text>
</a>
</g>
</g>
<!-- Node2&#45;&gt;Node1 -->
<g id="edge1_Node000001_Node000002" class="edge">
<title>Node2&#45;&gt;Node1</title>
<g id="a_edge1_Node000001_Node000002"><a xlink:title=" ">
<path fill="none" stroke="#8b1a1a" d="M39.94,-112.74C44.99,-85.96 53.68,-39.89 57.38,-20.28"/>
<polygon fill="#8b1a1a" stroke="#8b1a1a" points="36.55,-111.87 38.13,-122.34 43.43,-113.16 36.55,-111.87"/>
</a>
</g>
</g>
<!-- Node3 -->
<g id="Node000003" class="node">
<title>Node3</title>
<g id="a_Node000003"><a xlink:href="../../d4/d03/classfloat.html" target="_top" xlink:title=" ">
<polygon fill="white" stroke="#666666" points="124.12,-144 90.12,-144 90.12,-124 124.12,-124 124.12,-144"/>
<text text-anchor="middle" x="107.12" y="-130.5" font-family="Helvetica,sans-Serif" font-size="10.00">float</text>
</a>
</g>
</g>
<!-- Node3&#45;&gt;Node1 -->
<g id="edge2_Node000001_Node000003" class="edge">
<title>Node3&#45;&gt;Node1</title>
<g id="a_edge2_Node000001_Node000003"><a xlink:title=" ">
<path fill="none" stroke="#9a32cd" stroke-dasharray="5,2" d="M99.44,-113.46C88.95,-86.8 70.56,-40.07 62.77,-20.28"/>
<polygon fill="#9a32cd" stroke="#9a32cd" points="96.04,-114.4 102.96,-122.42 102.56,-111.83 96.04,-114.4"/>
</a>
</g>
<text text-anchor="start" x="92.12" y="-88.5" font-family="Helvetica,sans-Serif" font-size="10.00" fill="grey"> HEALTH_DECREMENT_PER</text>
<text text-anchor="middle" x="158.12" y="-76.5" font-family="Helvetica,sans-Serif" font-size="10.00" fill="grey">_SEC</text>
<text text-anchor="start" x="92.12" y="-64.5" font-family="Helvetica,sans-Serif" font-size="10.00" fill="grey">SHOCK_DECREMENT</text>
<text text-anchor="middle" x="158.12" y="-52.5" font-family="Helvetica,sans-Serif" font-size="10.00" fill="grey">_PER_SEC</text>
<text text-anchor="middle" x="158.12" y="-40.5" font-family="Helvetica,sans-Serif" font-size="10.00" fill="grey">SHOCK_LIMIT</text>
</g>
<!-- Node3&#45;&gt;Node3 -->
<g id="edge3_Node000003_Node000003" class="edge">
<title>Node3&#45;&gt;Node3</title>
<g id="a_edge3_Node000003_Node000003"><a xlink:title=" ">
<path fill="none" stroke="#9a32cd" stroke-dasharray="5,2" d="M131.33,-146.23C137.5,-145.43 142.12,-141.35 142.12,-134 142.12,-122.53 130.84,-119.03 120.05,-123.51"/>
<polygon fill="#9a32cd" stroke="#9a32cd" points="131.96,-142.78 121.54,-144.72 130.89,-149.7 131.96,-142.78"/>
</a>
</g>
<text text-anchor="middle" x="164.25" y="-142.5" font-family="Helvetica,sans-Serif" font-size="10.00" fill="grey"> LOWEST</text>
<text text-anchor="middle" x="164.25" y="-130.5" font-family="Helvetica,sans-Serif" font-size="10.00" fill="grey">MAX</text>
<text text-anchor="middle" x="164.25" y="-118.5" font-family="Helvetica,sans-Serif" font-size="10.00" fill="grey">MIN</text>
</g>
</g>
</svg>
