<?xml version="1.0" encoding="UTF-8" standalone="no"?>
<!DOCTYPE svg PUBLIC "-//W3C//DTD SVG 1.1//EN"
 "http://www.w3.org/Graphics/SVG/1.1/DTD/svg11.dtd">
<!-- Generated by graphviz version 11.0.0 (20240428.1522)
 -->
<!-- Title: EmoteBase Pages: 1 -->
<!--zoomable 276 -->

<svg id="main" version="1.1" xmlns="http://www.w3.org/2000/svg" xmlns:xlink="http://www.w3.org/1999/xlink" xml:space="preserve" onload="init(evt)">
<style type="text/css"><![CDATA[
.node, .edge {opacity: 0.7;}
.node.selected, .edge.selected {opacity: 1;}
.edge:hover path { stroke: red; }
.edge:hover polygon { stroke: red; fill: red; }
]]></style>

<defs>
  <circle id="rim" cx="0" cy="0" r="7"/>
  <circle id="rim2" cx="0" cy="0" r="3.5"/>
  <g id="zoomPlus">
    <use xlink:href="#rim" fill="#404040"><set attributeName="fill" to="#808080" begin="zoomplus.mouseover" end="zoomplus.mouseout"/></use>
    <path d="M-4,0h8M0,-4v8" fill="none" stroke="white" stroke-width="1.5" pointer-events="none"/>
  </g>
  <g id="zoomMin">
    <use xlink:href="#rim" fill="#404040"><set attributeName="fill" to="#808080" begin="zoomminus.mouseover" end="zoomminus.mouseout"/></use>
    <path d="M-4,0h8" fill="none" stroke="white" stroke-width="1.5" pointer-events="none"/>
  </g>
  <g id="arrowUp" transform="translate(30 24)">
    <use xlink:href="#rim"/>
    <path pointer-events="none" fill="none" stroke="white" stroke-width="1.5" d="M0,-3.0v7 M-2.5,-0.5L0,-3.0L2.5,-0.5"/>
  </g>
  <g id="arrowRight" transform="rotate(90) translate(36 -43)">
    <use xlink:href="#rim"/>
    <path pointer-events="none" fill="none" stroke="white" stroke-width="1.5" d="M0,-3.0v7 M-2.5,-0.5L0,-3.0L2.5,-0.5"/>
  </g>
  <g id="arrowDown" transform="rotate(180) translate(-30 -48)">
    <use xlink:href="#rim"/>
    <path pointer-events="none" fill="none" stroke="white" stroke-width="1.5" d="M0,-3.0v7 M-2.5,-0.5L0,-3.0L2.5,-0.5"/>
  </g>
  <g id="arrowLeft" transform="rotate(270) translate(-36 17)">
    <use xlink:href="#rim"/>
    <path pointer-events="none" fill="none" stroke="white" stroke-width="1.5" d="M0,-3.0v7 M-2.5,-0.5L0,-3.0L2.5,-0.5"/>
  </g>
  <g id="resetDef">
    <use xlink:href="#rim2" fill="#404040"><set attributeName="fill" to="#808080" begin="reset.mouseover" end="reset.mouseout"/></use>
  </g>
</defs>
<script type="application/ecmascript">
var viewWidth = 724;
var viewHeight = 276;
var sectionId = 'dynsection-0';
</script>
<script type="application/ecmascript" xlink:href="../../svg.min.js"/>
<svg id="graph" class="graph">
<g id="viewport">
<title>EmoteBase</title>
<!-- Node1 -->
<g id="Node000001" class="node">
<title>Node1</title>
<g id="a_Node000001"><a xlink:title=" ">
<polygon fill="#999999" stroke="#666666" points="428.25,-20 361.25,-20 361.25,0 428.25,0 428.25,-20"/>
<text text-anchor="middle" x="394.75" y="-6.5" font-family="Helvetica,sans-Serif" font-size="10.00">EmoteBase</text>
</a>
</g>
</g>
<!-- Node2 -->
<g id="Node000002" class="node">
<title>Node2</title>
<g id="a_Node000002"><a xlink:href="../../d5/d08/class_player_base.html" target="_top" xlink:title=" ">
<polygon fill="white" stroke="#666666" points="179.88,-144 113.62,-144 113.62,-124 179.88,-124 179.88,-144"/>
<text text-anchor="middle" x="146.75" y="-130.5" font-family="Helvetica,sans-Serif" font-size="10.00">PlayerBase</text>
</a>
</g>
</g>
<!-- Node2&#45;&gt;Node1 -->
<g id="edge1_Node000001_Node000002" class="edge">
<title>Node2&#45;&gt;Node1</title>
<g id="a_edge1_Node000001_Node000002"><a xlink:title=" ">
<path fill="none" stroke="#9a32cd" stroke-dasharray="5,2" d="M158.8,-114.23C174.05,-92.15 202.48,-56.21 236.5,-38 275.69,-17.02 327.48,-11.7 360.95,-10.68"/>
<polygon fill="#9a32cd" stroke="#9a32cd" points="156.06,-112.03 153.41,-122.29 161.88,-115.92 156.06,-112.03"/>
</a>
</g>
<text text-anchor="middle" x="258.88" y="-64.5" font-family="Helvetica,sans-Serif" font-size="10.00" fill="grey"> m_Player</text>
</g>
<!-- Node3 -->
<g id="Node000003" class="node">
<title>Node3</title>
<g id="a_Node000003"><a xlink:href="../../dd/d03/class_scripted_light_base.html" target="_top" xlink:title=" ">
<polygon fill="white" stroke="#666666" points="95.5,-268 0,-268 0,-248 95.5,-248 95.5,-268"/>
<text text-anchor="middle" x="47.75" y="-254.5" font-family="Helvetica,sans-Serif" font-size="10.00">ScriptedLightBase</text>
</a>
</g>
</g>
<!-- Node3&#45;&gt;Node2 -->
<g id="edge2_Node000002_Node000003" class="edge">
<title>Node3&#45;&gt;Node2</title>
<g id="a_edge2_Node000002_Node000003"><a xlink:title=" ">
<path fill="none" stroke="#9a32cd" stroke-dasharray="5,2" d="M44.62,-236.43C42.88,-217.26 43.45,-188.89 58,-170 71.24,-152.81 94.17,-144.05 113.4,-139.59"/>
<polygon fill="#9a32cd" stroke="#9a32cd" points="41.13,-236.74 45.83,-246.24 48.08,-235.89 41.13,-236.74"/>
</a>
</g>
<text text-anchor="middle" x="96.62" y="-196.5" font-family="Helvetica,sans-Serif" font-size="10.00" fill="grey"> m_PersonalLight</text>
</g>
<!-- Node4 -->
<g id="Node000004" class="node">
<title>Node4</title>
<g id="a_Node000004"><a xlink:href="../../d9/d09/classbool.html" target="_top" xlink:title=" ">
<polygon fill="white" stroke="#666666" points="237.75,-268 203.75,-268 203.75,-248 237.75,-248 237.75,-268"/>
<text text-anchor="middle" x="220.75" y="-254.5" font-family="Helvetica,sans-Serif" font-size="10.00">bool</text>
</a>
</g>
</g>
<!-- Node4&#45;&gt;Node1 -->
<g id="edge7_Node000001_Node000004" class="edge">
<title>Node4&#45;&gt;Node1</title>
<g id="a_edge7_Node000001_Node000004"><a xlink:title=" ">
<path fill="none" stroke="#9a32cd" stroke-dasharray="5,2" d="M249.08,-250.36C260.51,-246.3 272.84,-239.91 280.75,-230 312.99,-189.6 280.96,-162.39 303.75,-116 323.85,-75.08 363.87,-37.35 383.44,-20.4"/>
<polygon fill="#9a32cd" stroke="#9a32cd" points="248.14,-246.99 239.59,-253.25 250.18,-253.69 248.14,-246.99"/>
</a>
</g>
<text text-anchor="middle" x="348.75" y="-130.5" font-family="Helvetica,sans-Serif" font-size="10.00" fill="grey"> m_HideItemInHands</text>
</g>
<!-- Node4&#45;&gt;Node2 -->
<g id="edge3_Node000002_Node000004" class="edge">
<title>Node4&#45;&gt;Node2</title>
<g id="a_edge3_Node000002_Node000004"><a xlink:title=" ">
<path fill="none" stroke="#9a32cd" stroke-dasharray="5,2" d="M191.94,-254.09C176.21,-250.87 157.96,-244.12 148,-230 129.56,-203.85 138.35,-162.78 143.69,-144.42"/>
<polygon fill="#9a32cd" stroke="#9a32cd" points="191.37,-257.54 201.8,-255.69 192.49,-250.63 191.37,-257.54"/>
</a>
</g>
<text text-anchor="start" x="148.75" y="-220.5" font-family="Helvetica,sans-Serif" font-size="10.00" fill="grey"> m_PersonalLightDisabledBy</text>
<text text-anchor="middle" x="215.12" y="-208.5" font-family="Helvetica,sans-Serif" font-size="10.00" fill="grey">Debug</text>
<text text-anchor="start" x="148.75" y="-196.5" font-family="Helvetica,sans-Serif" font-size="10.00" fill="grey">m_PersonalLightEnabledOn</text>
<text text-anchor="middle" x="215.12" y="-184.5" font-family="Helvetica,sans-Serif" font-size="10.00" fill="grey">CurrentServer</text>
<text text-anchor="middle" x="215.12" y="-172.5" font-family="Helvetica,sans-Serif" font-size="10.00" fill="grey">m_PersonalLightIsSwitchedOn</text>
</g>
<!-- Node5 -->
<g id="Node000005" class="node">
<title>Node5</title>
<g id="a_Node000005"><a xlink:href="../../db/d06/class_param3.html" target="_top" xlink:title=" ">
<polygon fill="white" stroke="#666666" points="452.62,-144 402.88,-144 402.88,-124 452.62,-124 452.62,-144"/>
<text text-anchor="middle" x="427.75" y="-130.5" font-family="Helvetica,sans-Serif" font-size="10.00">Param3</text>
</a>
</g>
</g>
<!-- Node5&#45;&gt;Node1 -->
<g id="edge4_Node000001_Node000005" class="edge">
<title>Node5&#45;&gt;Node1</title>
<g id="a_edge4_Node000001_Node000005"><a xlink:title=" ">
<path fill="none" stroke="#9a32cd" stroke-dasharray="5,2" d="M407.57,-115.88C402.8,-110.67 398.35,-104.57 395.75,-98 385.26,-71.45 389.72,-36.68 392.77,-20.3"/>
<polygon fill="#9a32cd" stroke="#9a32cd" points="404.94,-118.2 414.55,-122.67 409.82,-113.19 404.94,-118.2"/>
</a>
</g>
<text text-anchor="middle" x="448.25" y="-88.5" font-family="Helvetica,sans-Serif" font-size="10.00" fill="grey"> m_AdditiveCallbackUID</text>
<text text-anchor="middle" x="448.25" y="-76.5" font-family="Helvetica,sans-Serif" font-size="10.00" fill="grey">m_FullbodyCallbackUID</text>
<text text-anchor="middle" x="448.25" y="-64.5" font-family="Helvetica,sans-Serif" font-size="10.00" fill="grey">m_ID</text>
<text text-anchor="middle" x="448.25" y="-52.5" font-family="Helvetica,sans-Serif" font-size="10.00" fill="grey">m_StanceMaskAdditive</text>
<text text-anchor="middle" x="448.25" y="-40.5" font-family="Helvetica,sans-Serif" font-size="10.00" fill="grey">m_StanceMaskFullbody</text>
</g>
<!-- Node6 -->
<g id="Node000006" class="node">
<title>Node6</title>
<g id="a_Node000006"><a xlink:href="../../d5/d02/classstring.html" target="_top" xlink:title=" ">
<polygon fill="white" stroke="#666666" points="542.75,-144 502.75,-144 502.75,-124 542.75,-124 542.75,-144"/>
<text text-anchor="middle" x="522.75" y="-130.5" font-family="Helvetica,sans-Serif" font-size="10.00">string</text>
</a>
</g>
</g>
<!-- Node6&#45;&gt;Node1 -->
<g id="edge5_Node000001_Node000006" class="edge">
<title>Node6&#45;&gt;Node1</title>
<g id="a_edge5_Node000001_Node000006"><a xlink:title=" ">
<path fill="none" stroke="#9a32cd" stroke-dasharray="5,2" d="M523.79,-112.34C523.69,-90.88 520.06,-57.73 500.75,-38 482.02,-18.86 451.77,-12.61 428.37,-10.86"/>
<polygon fill="#9a32cd" stroke="#9a32cd" points="520.29,-112.1 523.55,-122.19 527.29,-112.27 520.29,-112.1"/>
</a>
</g>
<text text-anchor="middle" x="568.12" y="-64.5" font-family="Helvetica,sans-Serif" font-size="10.00" fill="grey"> m_InputActionName</text>
</g>
<!-- Node6&#45;&gt;Node6 -->
<g id="edge6_Node000006_Node000006" class="edge">
<title>Node6&#45;&gt;Node6</title>
<g id="a_edge6_Node000006_Node000006"><a xlink:title=" ">
<path fill="none" stroke="#9a32cd" stroke-dasharray="5,2" d="M548.04,-146.32C555.22,-145.82 560.75,-141.71 560.75,-134 560.75,-122.53 548.5,-119.03 536.78,-123.51"/>
<polygon fill="#9a32cd" stroke="#9a32cd" points="548.71,-142.88 538.27,-144.73 547.58,-149.79 548.71,-142.88"/>
</a>
</g>
<text text-anchor="middle" x="576.5" y="-130.5" font-family="Helvetica,sans-Serif" font-size="10.00" fill="grey"> Empty</text>
</g>
<!-- Node7 -->
<g id="Node000007" class="node">
<title>Node7</title>
<g id="a_Node000007"><a xlink:href="../../d4/d03/classfloat.html" target="_top" xlink:title=" ">
<polygon fill="white" stroke="#666666" points="653.75,-144 619.75,-144 619.75,-124 653.75,-124 653.75,-144"/>
<text text-anchor="middle" x="636.75" y="-130.5" font-family="Helvetica,sans-Serif" font-size="10.00">float</text>
</a>
</g>
</g>
<!-- Node7&#45;&gt;Node1 -->
<g id="edge8_Node000001_Node000007" class="edge">
<title>Node7&#45;&gt;Node1</title>
<g id="a_edge8_Node000001_Node000007"><a xlink:title=" ">
<path fill="none" stroke="#9a32cd" stroke-dasharray="5,2" d="M638.26,-112.48C638.64,-90.62 635.48,-56.65 614.75,-38 588.07,-14 483.5,-10.64 428.69,-10.58"/>
<polygon fill="#9a32cd" stroke="#9a32cd" points="634.78,-112.08 637.8,-122.23 641.77,-112.41 634.78,-112.08"/>
</a>
</g>
<text text-anchor="middle" x="675.62" y="-64.5" font-family="Helvetica,sans-Serif" font-size="10.00" fill="grey"> WATER_DEPTH</text>
</g>
<!-- Node7&#45;&gt;Node7 -->
<g id="edge9_Node000007_Node000007" class="edge">
<title>Node7&#45;&gt;Node7</title>
<g id="a_edge9_Node000007_Node000007"><a xlink:title=" ">
<path fill="none" stroke="#9a32cd" stroke-dasharray="5,2" d="M660.95,-146.23C667.12,-145.43 671.75,-141.35 671.75,-134 671.75,-122.53 660.47,-119.03 649.67,-123.51"/>
<polygon fill="#9a32cd" stroke="#9a32cd" points="661.59,-142.78 651.17,-144.72 660.52,-149.7 661.59,-142.78"/>
</a>
</g>
<text text-anchor="middle" x="693.88" y="-142.5" font-family="Helvetica,sans-Serif" font-size="10.00" fill="grey"> LOWEST</text>
<text text-anchor="middle" x="693.88" y="-130.5" font-family="Helvetica,sans-Serif" font-size="10.00" fill="grey">MAX</text>
<text text-anchor="middle" x="693.88" y="-118.5" font-family="Helvetica,sans-Serif" font-size="10.00" fill="grey">MIN</text>
</g>
</g>
</svg>

<g id="navigator" transform="translate(0 0)" fill="#404254">
  <rect fill="#f2f5e9" fill-opacity="0.5" stroke="#606060" stroke-width=".5" x="0" y="0" width="60" height="60"/>
  <use id="zoomplus" xlink:href="#zoomPlus" x="17" y="9" onmousedown="handleZoom(evt,'in')"/>
  <use id="zoomminus" xlink:href="#zoomMin" x="42" y="9" onmousedown="handleZoom(evt,'out')"/>
  <use id="reset" xlink:href="#resetDef" x="30" y="36" onmousedown="handleReset()"/>
   <use id="arrowup" xlink:href="#arrowUp" x="0" y="0" onmousedown="handlePan(0,-1)"/>
  <use id="arrowright" xlink:href="#arrowRight" x="0" y="0" onmousedown="handlePan(1,0)"/>
  <use id="arrowdown" xlink:href="#arrowDown" x="0" y="0" onmousedown="handlePan(0,1)"/>
  <use id="arrowleft" xlink:href="#arrowLeft" x="0" y="0" onmousedown="handlePan(-1,0)"/>
</g>
<svg viewBox="0 0 15 15" width="100%" height="30px" preserveAspectRatio="xMaxYMin meet">
 <g id="arrow_out" transform="scale(0.3 0.3)">
  <a xlink:href="class_emote_base__coll__graph_org.svg" target="_base">
   <rect id="button" ry="5" rx="5" y="6" x="6" height="38" width="38"
        fill="#f2f5e9" fill-opacity="0.5" stroke="#606060" stroke-width="1.0"/>
   <path id="arrow"
     d="M 11.500037,31.436501 C 11.940474,20.09759 22.043105,11.32322 32.158766,21.979434 L 37.068811,17.246167 C 37.068811,17.246167 37.088388,32 37.088388,32 L 22.160133,31.978069 C 22.160133,31.978069 26.997745,27.140456 26.997745,27.140456 C 18.528582,18.264221 13.291696,25.230495 11.500037,31.436501 z"
     style="fill:#404040;"/>
  </a>
 </g>
</svg>

<style type='text/css'>
<![CDATA[
[data-mouse-over-selected='false'] { opacity: 0.7; }
[data-mouse-over-selected='true']  { opacity: 1.0; }
]]>
</style>
<script type="application/ecmascript"><![CDATA[
document.addEventListener('DOMContentLoaded', (event) => {
  highlightEdges();
  highlightAdjacentNodes();
});
]]></script>
</svg>
