<?xml version="1.0" encoding="UTF-8" standalone="no"?>
<!DOCTYPE svg PUBLIC "-//W3C//DTD SVG 1.1//EN"
 "http://www.w3.org/Graphics/SVG/1.1/DTD/svg11.dtd">
<!-- Generated by graphviz version 11.0.0 (20240428.1522)
 -->
<!-- Title: RockBase Pages: 1 -->
<!--zoomable 1704 -->

<svg id="main" version="1.1" xmlns="http://www.w3.org/2000/svg" xmlns:xlink="http://www.w3.org/1999/xlink" xml:space="preserve" onload="init(evt)">
<style type="text/css"><![CDATA[
.node, .edge {opacity: 0.7;}
.node.selected, .edge.selected {opacity: 1;}
.edge:hover path { stroke: red; }
.edge:hover polygon { stroke: red; fill: red; }
]]></style>

<defs>
  <circle id="rim" cx="0" cy="0" r="7"/>
  <circle id="rim2" cx="0" cy="0" r="3.5"/>
  <g id="zoomPlus">
    <use xlink:href="#rim" fill="#404040"><set attributeName="fill" to="#808080" begin="zoomplus.mouseover" end="zoomplus.mouseout"/></use>
    <path d="M-4,0h8M0,-4v8" fill="none" stroke="white" stroke-width="1.5" pointer-events="none"/>
  </g>
  <g id="zoomMin">
    <use xlink:href="#rim" fill="#404040"><set attributeName="fill" to="#808080" begin="zoomminus.mouseover" end="zoomminus.mouseout"/></use>
    <path d="M-4,0h8" fill="none" stroke="white" stroke-width="1.5" pointer-events="none"/>
  </g>
  <g id="arrowUp" transform="translate(30 24)">
    <use xlink:href="#rim"/>
    <path pointer-events="none" fill="none" stroke="white" stroke-width="1.5" d="M0,-3.0v7 M-2.5,-0.5L0,-3.0L2.5,-0.5"/>
  </g>
  <g id="arrowRight" transform="rotate(90) translate(36 -43)">
    <use xlink:href="#rim"/>
    <path pointer-events="none" fill="none" stroke="white" stroke-width="1.5" d="M0,-3.0v7 M-2.5,-0.5L0,-3.0L2.5,-0.5"/>
  </g>
  <g id="arrowDown" transform="rotate(180) translate(-30 -48)">
    <use xlink:href="#rim"/>
    <path pointer-events="none" fill="none" stroke="white" stroke-width="1.5" d="M0,-3.0v7 M-2.5,-0.5L0,-3.0L2.5,-0.5"/>
  </g>
  <g id="arrowLeft" transform="rotate(270) translate(-36 17)">
    <use xlink:href="#rim"/>
    <path pointer-events="none" fill="none" stroke="white" stroke-width="1.5" d="M0,-3.0v7 M-2.5,-0.5L0,-3.0L2.5,-0.5"/>
  </g>
  <g id="resetDef">
    <use xlink:href="#rim2" fill="#404040"><set attributeName="fill" to="#808080" begin="reset.mouseover" end="reset.mouseout"/></use>
  </g>
</defs>
<script type="application/ecmascript">
var viewWidth = 320;
var viewHeight = 1704;
var sectionId = 'dynsection-0';
</script>
<script type="application/ecmascript" xlink:href="../../svg.min.js"/>
<svg id="graph" class="graph">
<g id="viewport">
<title>RockBase</title>
<!-- Node1 -->
<g id="Node000001" class="node">
<title>Node1</title>
<g id="a_Node000001"><a xlink:title=" ">
<polygon fill="#999999" stroke="#666666" points="141.5,-780 80.5,-780 80.5,-760 141.5,-760 141.5,-780"/>
<text text-anchor="middle" x="111" y="-766.5" font-family="Helvetica,sans-Serif" font-size="10.00">RockBase</text>
</a>
</g>
</g>
<!-- Node3 -->
<g id="Node000003" class="node">
<title>Node3</title>
<g id="a_Node000003"><a xlink:href="../../de/d07/class_static__rock__apart1.html" target="_top" xlink:title=" ">
<polygon fill="white" stroke="#666666" points="293.62,-1696 195.88,-1696 195.88,-1676 293.62,-1676 293.62,-1696"/>
<text text-anchor="middle" x="244.75" y="-1682.5" font-family="Helvetica,sans-Serif" font-size="10.00">Static_rock_apart1</text>
</a>
</g>
</g>
<!-- Node1&#45;&gt;Node3 -->
<g id="edge2_Node000001_Node000003" class="edge">
<title>Node1&#45;&gt;Node3</title>
<g id="a_edge2_Node000001_Node000003"><a xlink:title=" ">
<path fill="none" stroke="#8b1a1a" d="M112.12,-791.88C113.06,-922.59 120.63,-1596.99 177.5,-1667 182.25,-1672.85 188.68,-1676.97 195.67,-1679.86"/>
<polygon fill="#8b1a1a" stroke="#8b1a1a" points="115.62,-791.87 112.06,-781.9 108.62,-791.92 115.62,-791.87"/>
</a>
</g>
</g>
<!-- Node4 -->
<g id="Node000004" class="node">
<title>Node4</title>
<g id="a_Node000004"><a xlink:href="../../db/d0e/class_static__rock__apart2.html" target="_top" xlink:title=" ">
<polygon fill="white" stroke="#666666" points="293.62,-1658 195.88,-1658 195.88,-1638 293.62,-1638 293.62,-1658"/>
<text text-anchor="middle" x="244.75" y="-1644.5" font-family="Helvetica,sans-Serif" font-size="10.00">Static_rock_apart2</text>
</a>
</g>
</g>
<!-- Node1&#45;&gt;Node4 -->
<g id="edge3_Node000001_Node000004" class="edge">
<title>Node1&#45;&gt;Node4</title>
<g id="a_edge3_Node000001_Node000004"><a xlink:title=" ">
<path fill="none" stroke="#8b1a1a" d="M112.2,-791.73C113.54,-918.8 123.03,-1562.16 177.5,-1629 182.26,-1634.84 188.69,-1638.96 195.68,-1641.85"/>
<polygon fill="#8b1a1a" stroke="#8b1a1a" points="115.7,-791.71 112.1,-781.75 108.7,-791.78 115.7,-791.71"/>
</a>
</g>
</g>
<!-- Node5 -->
<g id="Node000005" class="node">
<title>Node5</title>
<g id="a_Node000005"><a xlink:href="../../d1/d07/class_static__rock__bright__apart1.html" target="_top" xlink:title=" ">
<polygon fill="white" stroke="#666666" points="292.12,-1620 197.38,-1620 197.38,-1588 292.12,-1588 292.12,-1620"/>
<text text-anchor="start" x="205.38" y="-1606.5" font-family="Helvetica,sans-Serif" font-size="10.00">Static_rock_bright</text>
<text text-anchor="middle" x="244.75" y="-1594.5" font-family="Helvetica,sans-Serif" font-size="10.00">_apart1</text>
</a>
</g>
</g>
<!-- Node1&#45;&gt;Node5 -->
<g id="edge4_Node000001_Node000005" class="edge">
<title>Node1&#45;&gt;Node5</title>
<g id="a_edge4_Node000001_Node000005"><a xlink:title=" ">
<path fill="none" stroke="#8b1a1a" d="M112.39,-791.92C114.77,-914.75 128.84,-1514.38 177.5,-1579 182.53,-1585.68 189.56,-1590.57 197.18,-1594.16"/>
<polygon fill="#8b1a1a" stroke="#8b1a1a" points="115.89,-791.89 112.21,-781.96 108.89,-792.02 115.89,-791.89"/>
</a>
</g>
</g>
<!-- Node6 -->
<g id="Node000006" class="node">
<title>Node6</title>
<g id="a_Node000006"><a xlink:href="../../d5/d0f/class_static__rock__bright__apart2.html" target="_top" xlink:title=" ">
<polygon fill="white" stroke="#666666" points="292.12,-1570 197.38,-1570 197.38,-1538 292.12,-1538 292.12,-1570"/>
<text text-anchor="start" x="205.38" y="-1556.5" font-family="Helvetica,sans-Serif" font-size="10.00">Static_rock_bright</text>
<text text-anchor="middle" x="244.75" y="-1544.5" font-family="Helvetica,sans-Serif" font-size="10.00">_apart2</text>
</a>
</g>
</g>
<!-- Node1&#45;&gt;Node6 -->
<g id="edge5_Node000001_Node000006" class="edge">
<title>Node1&#45;&gt;Node6</title>
<g id="a_edge5_Node000001_Node000006"><a xlink:title=" ">
<path fill="none" stroke="#8b1a1a" d="M112.51,-791.66C115.46,-909.32 131.81,-1468.65 177.5,-1529 182.55,-1535.66 189.59,-1540.55 197.2,-1544.14"/>
<polygon fill="#8b1a1a" stroke="#8b1a1a" points="116.01,-791.76 112.27,-781.85 109.02,-791.93 116.01,-791.76"/>
</a>
</g>
</g>
<!-- Node7 -->
<g id="Node000007" class="node">
<title>Node7</title>
<g id="a_Node000007"><a xlink:href="../../dc/d05/class_static__rock__bright__monolith1.html" target="_top" xlink:title=" ">
<polygon fill="white" stroke="#666666" points="292.12,-1520 197.38,-1520 197.38,-1488 292.12,-1488 292.12,-1520"/>
<text text-anchor="start" x="205.38" y="-1506.5" font-family="Helvetica,sans-Serif" font-size="10.00">Static_rock_bright</text>
<text text-anchor="middle" x="244.75" y="-1494.5" font-family="Helvetica,sans-Serif" font-size="10.00">_monolith1</text>
</a>
</g>
</g>
<!-- Node1&#45;&gt;Node7 -->
<g id="edge6_Node000001_Node000007" class="edge">
<title>Node1&#45;&gt;Node7</title>
<g id="a_edge6_Node000001_Node000007"><a xlink:title=" ">
<path fill="none" stroke="#8b1a1a" d="M112.65,-791.63C116.21,-904.51 134.81,-1422.96 177.5,-1479 182.49,-1485.55 189.41,-1490.39 196.9,-1493.95"/>
<polygon fill="#8b1a1a" stroke="#8b1a1a" points="116.16,-791.84 112.35,-781.95 109.16,-792.05 116.16,-791.84"/>
</a>
</g>
</g>
<!-- Node8 -->
<g id="Node000008" class="node">
<title>Node8</title>
<g id="a_Node000008"><a xlink:href="../../df/d0c/class_static__rock__bright__monolith2.html" target="_top" xlink:title=" ">
<polygon fill="white" stroke="#666666" points="292.12,-1470 197.38,-1470 197.38,-1438 292.12,-1438 292.12,-1470"/>
<text text-anchor="start" x="205.38" y="-1456.5" font-family="Helvetica,sans-Serif" font-size="10.00">Static_rock_bright</text>
<text text-anchor="middle" x="244.75" y="-1444.5" font-family="Helvetica,sans-Serif" font-size="10.00">_monolith2</text>
</a>
</g>
</g>
<!-- Node1&#45;&gt;Node8 -->
<g id="edge7_Node000001_Node000008" class="edge">
<title>Node1&#45;&gt;Node8</title>
<g id="a_edge7_Node000001_Node000008"><a xlink:title=" ">
<path fill="none" stroke="#8b1a1a" d="M112.81,-791.77C117.04,-900.04 137.82,-1377.29 177.5,-1429 182.51,-1435.53 189.44,-1440.36 196.94,-1443.93"/>
<polygon fill="#8b1a1a" stroke="#8b1a1a" points="116.32,-791.82 112.44,-781.97 109.32,-792.09 116.32,-791.82"/>
</a>
</g>
</g>
<!-- Node9 -->
<g id="Node000009" class="node">
<title>Node9</title>
<g id="a_Node000009"><a xlink:href="../../d5/d0a/class_static__rock__bright__monolith3.html" target="_top" xlink:title=" ">
<polygon fill="white" stroke="#666666" points="292.12,-1420 197.38,-1420 197.38,-1388 292.12,-1388 292.12,-1420"/>
<text text-anchor="start" x="205.38" y="-1406.5" font-family="Helvetica,sans-Serif" font-size="10.00">Static_rock_bright</text>
<text text-anchor="middle" x="244.75" y="-1394.5" font-family="Helvetica,sans-Serif" font-size="10.00">_monolith3</text>
</a>
</g>
</g>
<!-- Node1&#45;&gt;Node9 -->
<g id="edge8_Node000001_Node000009" class="edge">
<title>Node1&#45;&gt;Node9</title>
<g id="a_edge8_Node000001_Node000009"><a xlink:title=" ">
<path fill="none" stroke="#8b1a1a" d="M112.98,-791.39C117.87,-893.85 140.76,-1331.52 177.5,-1379 182.54,-1385.51 189.48,-1390.33 196.98,-1393.89"/>
<polygon fill="#8b1a1a" stroke="#8b1a1a" points="116.49,-791.47 112.53,-781.65 109.5,-791.8 116.49,-791.47"/>
</a>
</g>
</g>
<!-- Node10 -->
<g id="Node000010" class="node">
<title>Node10</title>
<g id="a_Node000010"><a xlink:href="../../d9/d01/class_static__rock__bright__monolith4.html" target="_top" xlink:title=" ">
<polygon fill="white" stroke="#666666" points="292.12,-1370 197.38,-1370 197.38,-1338 292.12,-1338 292.12,-1370"/>
<text text-anchor="start" x="205.38" y="-1356.5" font-family="Helvetica,sans-Serif" font-size="10.00">Static_rock_bright</text>
<text text-anchor="middle" x="244.75" y="-1344.5" font-family="Helvetica,sans-Serif" font-size="10.00">_monolith4</text>
</a>
</g>
</g>
<!-- Node1&#45;&gt;Node10 -->
<g id="edge9_Node000001_Node000010" class="edge">
<title>Node1&#45;&gt;Node10</title>
<g id="a_edge9_Node000001_Node000010"><a xlink:title=" ">
<path fill="none" stroke="#8b1a1a" d="M111.64,-791.46C110.5,-883.4 110.48,-1243.24 177.5,-1329 182.57,-1335.49 189.53,-1340.3 197.03,-1343.85"/>
<polygon fill="#8b1a1a" stroke="#8b1a1a" points="115.13,-791.68 111.78,-781.63 108.14,-791.57 115.13,-791.68"/>
</a>
</g>
</g>
<!-- Node11 -->
<g id="Node000011" class="node">
<title>Node11</title>
<g id="a_Node000011"><a xlink:href="../../dc/d0b/class_static__rock__bright__spike1.html" target="_top" xlink:title=" ">
<polygon fill="white" stroke="#666666" points="292.12,-1320 197.38,-1320 197.38,-1288 292.12,-1288 292.12,-1320"/>
<text text-anchor="start" x="205.38" y="-1306.5" font-family="Helvetica,sans-Serif" font-size="10.00">Static_rock_bright</text>
<text text-anchor="middle" x="244.75" y="-1294.5" font-family="Helvetica,sans-Serif" font-size="10.00">_spike1</text>
</a>
</g>
</g>
<!-- Node1&#45;&gt;Node11 -->
<g id="edge10_Node000001_Node000011" class="edge">
<title>Node1&#45;&gt;Node11</title>
<g id="a_edge10_Node000001_Node000011"><a xlink:title=" ">
<path fill="none" stroke="#8b1a1a" d="M111.91,-791.73C111.99,-878.84 116.47,-1201.8 177.5,-1279 182.61,-1285.46 189.58,-1290.25 197.09,-1293.81"/>
<polygon fill="#8b1a1a" stroke="#8b1a1a" points="115.41,-791.96 111.93,-781.96 108.41,-791.95 115.41,-791.96"/>
</a>
</g>
</g>
<!-- Node12 -->
<g id="Node000012" class="node">
<title>Node12</title>
<g id="a_Node000012"><a xlink:href="../../dd/d07/class_static__rock__bright__spike2.html" target="_top" xlink:title=" ">
<polygon fill="white" stroke="#666666" points="292.12,-1270 197.38,-1270 197.38,-1238 292.12,-1238 292.12,-1270"/>
<text text-anchor="start" x="205.38" y="-1256.5" font-family="Helvetica,sans-Serif" font-size="10.00">Static_rock_bright</text>
<text text-anchor="middle" x="244.75" y="-1244.5" font-family="Helvetica,sans-Serif" font-size="10.00">_spike2</text>
</a>
</g>
</g>
<!-- Node1&#45;&gt;Node12 -->
<g id="edge11_Node000001_Node000012" class="edge">
<title>Node1&#45;&gt;Node12</title>
<g id="a_edge11_Node000001_Node000012"><a xlink:title=" ">
<path fill="none" stroke="#8b1a1a" d="M112.25,-791.63C113.62,-873.1 122.35,-1160.22 177.5,-1229 182.65,-1235.43 189.65,-1240.2 197.16,-1243.75"/>
<polygon fill="#8b1a1a" stroke="#8b1a1a" points="115.75,-791.66 112.11,-781.72 108.75,-791.76 115.75,-791.66"/>
</a>
</g>
</g>
<!-- Node13 -->
<g id="Node000013" class="node">
<title>Node13</title>
<g id="a_Node000013"><a xlink:href="../../d1/d04/class_static__rock__bright__spike3.html" target="_top" xlink:title=" ">
<polygon fill="white" stroke="#666666" points="292.12,-1220 197.38,-1220 197.38,-1188 292.12,-1188 292.12,-1220"/>
<text text-anchor="start" x="205.38" y="-1206.5" font-family="Helvetica,sans-Serif" font-size="10.00">Static_rock_bright</text>
<text text-anchor="middle" x="244.75" y="-1194.5" font-family="Helvetica,sans-Serif" font-size="10.00">_spike3</text>
</a>
</g>
</g>
<!-- Node1&#45;&gt;Node13 -->
<g id="edge12_Node000001_Node000013" class="edge">
<title>Node1&#45;&gt;Node13</title>
<g id="a_edge12_Node000001_Node000013"><a xlink:title=" ">
<path fill="none" stroke="#8b1a1a" d="M112.66,-791.43C115.41,-866.82 128.19,-1118.56 177.5,-1179 182.63,-1185.29 189.52,-1189.99 196.92,-1193.52"/>
<polygon fill="#8b1a1a" stroke="#8b1a1a" points="116.17,-791.57 112.33,-781.7 109.18,-791.81 116.17,-791.57"/>
</a>
</g>
</g>
<!-- Node14 -->
<g id="Node000014" class="node">
<title>Node14</title>
<g id="a_Node000014"><a xlink:href="../../d7/d09/class_static__rock__bright__wallh1.html" target="_top" xlink:title=" ">
<polygon fill="white" stroke="#666666" points="292.12,-1170 197.38,-1170 197.38,-1138 292.12,-1138 292.12,-1170"/>
<text text-anchor="start" x="205.38" y="-1156.5" font-family="Helvetica,sans-Serif" font-size="10.00">Static_rock_bright</text>
<text text-anchor="middle" x="244.75" y="-1144.5" font-family="Helvetica,sans-Serif" font-size="10.00">_wallh1</text>
</a>
</g>
</g>
<!-- Node1&#45;&gt;Node14 -->
<g id="edge13_Node000001_Node000014" class="edge">
<title>Node1&#45;&gt;Node14</title>
<g id="a_edge13_Node000001_Node000014"><a xlink:title=" ">
<path fill="none" stroke="#8b1a1a" d="M113.19,-791.45C117.45,-860.71 134.04,-1076.9 177.5,-1129 182.7,-1135.23 189.62,-1139.91 197.03,-1143.42"/>
<polygon fill="#8b1a1a" stroke="#8b1a1a" points="116.71,-791.59 112.63,-781.81 109.72,-792 116.71,-791.59"/>
</a>
</g>
</g>
<!-- Node15 -->
<g id="Node000015" class="node">
<title>Node15</title>
<g id="a_Node000015"><a xlink:href="../../de/d0d/class_static__rock__bright__wallh2.html" target="_top" xlink:title=" ">
<polygon fill="white" stroke="#666666" points="292.12,-1120 197.38,-1120 197.38,-1088 292.12,-1088 292.12,-1120"/>
<text text-anchor="start" x="205.38" y="-1106.5" font-family="Helvetica,sans-Serif" font-size="10.00">Static_rock_bright</text>
<text text-anchor="middle" x="244.75" y="-1094.5" font-family="Helvetica,sans-Serif" font-size="10.00">_wallh2</text>
</a>
</g>
</g>
<!-- Node1&#45;&gt;Node15 -->
<g id="edge14_Node000001_Node000015" class="edge">
<title>Node1&#45;&gt;Node15</title>
<g id="a_edge14_Node000001_Node000015"><a xlink:title=" ">
<path fill="none" stroke="#8b1a1a" d="M113.91,-791.67C119.85,-854.52 139.9,-1035.21 177.5,-1079 182.79,-1085.16 189.75,-1089.8 197.17,-1093.3"/>
<polygon fill="#8b1a1a" stroke="#8b1a1a" points="117.42,-791.58 113.02,-781.94 110.45,-792.22 117.42,-791.58"/>
</a>
</g>
</g>
<!-- Node16 -->
<g id="Node000016" class="node">
<title>Node16</title>
<g id="a_Node000016"><a xlink:href="../../d4/d0c/class_static__rock__bright__wallh3.html" target="_top" xlink:title=" ">
<polygon fill="white" stroke="#666666" points="292.12,-1070 197.38,-1070 197.38,-1038 292.12,-1038 292.12,-1070"/>
<text text-anchor="start" x="205.38" y="-1056.5" font-family="Helvetica,sans-Serif" font-size="10.00">Static_rock_bright</text>
<text text-anchor="middle" x="244.75" y="-1044.5" font-family="Helvetica,sans-Serif" font-size="10.00">_wallh3</text>
</a>
</g>
</g>
<!-- Node1&#45;&gt;Node16 -->
<g id="edge15_Node000001_Node000016" class="edge">
<title>Node1&#45;&gt;Node16</title>
<g id="a_edge15_Node000001_Node000016"><a xlink:title=" ">
<path fill="none" stroke="#8b1a1a" d="M111.16,-791.74C110.49,-840.51 115.68,-959.76 177.5,-1029 182.82,-1034.96 189.71,-1039.51 197.03,-1042.97"/>
<polygon fill="#8b1a1a" stroke="#8b1a1a" points="114.66,-792.04 111.41,-781.95 107.66,-791.86 114.66,-792.04"/>
</a>
</g>
</g>
<!-- Node17 -->
<g id="Node000017" class="node">
<title>Node17</title>
<g id="a_Node000017"><a xlink:href="../../d9/d02/class_static__rock__bright__wallv.html" target="_top" xlink:title=" ">
<polygon fill="white" stroke="#666666" points="292.12,-1020 197.38,-1020 197.38,-988 292.12,-988 292.12,-1020"/>
<text text-anchor="start" x="205.38" y="-1006.5" font-family="Helvetica,sans-Serif" font-size="10.00">Static_rock_bright</text>
<text text-anchor="middle" x="244.75" y="-994.5" font-family="Helvetica,sans-Serif" font-size="10.00">_wallv</text>
</a>
</g>
</g>
<!-- Node1&#45;&gt;Node17 -->
<g id="edge16_Node000001_Node000017" class="edge">
<title>Node1&#45;&gt;Node17</title>
<g id="a_edge16_Node000001_Node000017"><a xlink:title=" ">
<path fill="none" stroke="#8b1a1a" d="M112.77,-791.71C115.41,-833.46 126.97,-925.5 177.5,-979 182.9,-984.72 189.74,-989.14 196.97,-992.56"/>
<polygon fill="#8b1a1a" stroke="#8b1a1a" points="116.27,-791.58 112.27,-781.77 109.28,-791.93 116.27,-791.58"/>
</a>
</g>
</g>
<!-- Node18 -->
<g id="Node000018" class="node">
<title>Node18</title>
<g id="a_Node000018"><a xlink:href="../../dc/d0a/class_static__rock__monolith1.html" target="_top" xlink:title=" ">
<polygon fill="white" stroke="#666666" points="301.12,-970 188.38,-970 188.38,-950 301.12,-950 301.12,-970"/>
<text text-anchor="middle" x="244.75" y="-956.5" font-family="Helvetica,sans-Serif" font-size="10.00">Static_rock_monolith1</text>
</a>
</g>
</g>
<!-- Node1&#45;&gt;Node18 -->
<g id="edge17_Node000001_Node000018" class="edge">
<title>Node1&#45;&gt;Node18</title>
<g id="a_edge17_Node000001_Node000018"><a xlink:title=" ">
<path fill="none" stroke="#8b1a1a" d="M114.1,-791.32C118.8,-827.43 133.49,-900.64 177.5,-941 181.29,-944.48 185.68,-947.32 190.35,-949.65"/>
<polygon fill="#8b1a1a" stroke="#8b1a1a" points="117.61,-791.25 112.99,-781.71 110.66,-792.05 117.61,-791.25"/>
</a>
</g>
</g>
<!-- Node19 -->
<g id="Node000019" class="node">
<title>Node19</title>
<g id="a_Node000019"><a xlink:href="../../dd/d07/class_static__rock__monolith2.html" target="_top" xlink:title=" ">
<polygon fill="white" stroke="#666666" points="301.12,-932 188.38,-932 188.38,-912 301.12,-912 301.12,-932"/>
<text text-anchor="middle" x="244.75" y="-918.5" font-family="Helvetica,sans-Serif" font-size="10.00">Static_rock_monolith2</text>
</a>
</g>
</g>
<!-- Node1&#45;&gt;Node19 -->
<g id="edge18_Node000001_Node000019" class="edge">
<title>Node1&#45;&gt;Node19</title>
<g id="a_edge18_Node000001_Node000019"><a xlink:title=" ">
<path fill="none" stroke="#8b1a1a" d="M116.8,-791.52C124.49,-821.02 142.42,-873.68 177.5,-903 181.63,-906.45 186.36,-909.28 191.34,-911.59"/>
<polygon fill="#8b1a1a" stroke="#8b1a1a" points="120.22,-790.8 114.46,-781.9 113.42,-792.45 120.22,-790.8"/>
</a>
</g>
</g>
<!-- Node20 -->
<g id="Node000020" class="node">
<title>Node20</title>
<g id="a_Node000020"><a xlink:href="../../dd/d06/class_static__rock__monolith3.html" target="_top" xlink:title=" ">
<polygon fill="white" stroke="#666666" points="301.12,-894 188.38,-894 188.38,-874 301.12,-874 301.12,-894"/>
<text text-anchor="middle" x="244.75" y="-880.5" font-family="Helvetica,sans-Serif" font-size="10.00">Static_rock_monolith3</text>
</a>
</g>
</g>
<!-- Node1&#45;&gt;Node20 -->
<g id="edge19_Node000001_Node000020" class="edge">
<title>Node1&#45;&gt;Node20</title>
<g id="a_edge19_Node000001_Node000020"><a xlink:title=" ">
<path fill="none" stroke="#8b1a1a" d="M121.04,-790.72C131.54,-812.39 150.89,-845.87 177.5,-865 182.26,-868.42 187.63,-871.23 193.19,-873.53"/>
<polygon fill="#8b1a1a" stroke="#8b1a1a" points="124.25,-789.32 116.88,-781.7 117.89,-792.25 124.25,-789.32"/>
</a>
</g>
</g>
<!-- Node21 -->
<g id="Node000021" class="node">
<title>Node21</title>
<g id="a_Node000021"><a xlink:href="../../dc/d03/class_static__rock__monolith4.html" target="_top" xlink:title=" ">
<polygon fill="white" stroke="#666666" points="301.12,-856 188.38,-856 188.38,-836 301.12,-836 301.12,-856"/>
<text text-anchor="middle" x="244.75" y="-842.5" font-family="Helvetica,sans-Serif" font-size="10.00">Static_rock_monolith4</text>
</a>
</g>
</g>
<!-- Node1&#45;&gt;Node21 -->
<g id="edge20_Node000001_Node000021" class="edge">
<title>Node1&#45;&gt;Node21</title>
<g id="a_edge20_Node000001_Node000021"><a xlink:title=" ">
<path fill="none" stroke="#8b1a1a" d="M128.8,-788.36C141.17,-800.88 158.99,-816.94 177.5,-827 183.7,-830.37 190.57,-833.2 197.45,-835.55"/>
<polygon fill="#8b1a1a" stroke="#8b1a1a" points="131.66,-786.29 122.22,-781.48 126.6,-791.12 131.66,-786.29"/>
</a>
</g>
</g>
<!-- Node22 -->
<g id="Node000022" class="node">
<title>Node22</title>
<g id="a_Node000022"><a xlink:href="../../d1/d08/class_static__rock__spike1.html" target="_top" xlink:title=" ">
<polygon fill="white" stroke="#666666" points="294.38,-818 195.12,-818 195.12,-798 294.38,-798 294.38,-818"/>
<text text-anchor="middle" x="244.75" y="-804.5" font-family="Helvetica,sans-Serif" font-size="10.00">Static_rock_spike1</text>
</a>
</g>
</g>
<!-- Node1&#45;&gt;Node22 -->
<g id="edge21_Node000001_Node000022" class="edge">
<title>Node1&#45;&gt;Node22</title>
<g id="a_edge21_Node000001_Node000022"><a xlink:title=" ">
<path fill="none" stroke="#8b1a1a" d="M152.83,-781.86C161,-784.23 169.52,-786.7 177.5,-789 187.16,-791.79 197.61,-794.79 207.3,-797.57"/>
<polygon fill="#8b1a1a" stroke="#8b1a1a" points="154.03,-778.57 143.45,-779.14 152.08,-785.29 154.03,-778.57"/>
</a>
</g>
</g>
<!-- Node23 -->
<g id="Node000023" class="node">
<title>Node23</title>
<g id="a_Node000023"><a xlink:href="../../df/d02/class_static__rock__spike2.html" target="_top" xlink:title=" ">
<polygon fill="white" stroke="#666666" points="294.38,-780 195.12,-780 195.12,-760 294.38,-760 294.38,-780"/>
<text text-anchor="middle" x="244.75" y="-766.5" font-family="Helvetica,sans-Serif" font-size="10.00">Static_rock_spike2</text>
</a>
</g>
</g>
<!-- Node1&#45;&gt;Node23 -->
<g id="edge22_Node000001_Node000023" class="edge">
<title>Node1&#45;&gt;Node23</title>
<g id="a_edge22_Node000001_Node000023"><a xlink:title=" ">
<path fill="none" stroke="#8b1a1a" d="M153.06,-770C166.3,-770 181.11,-770 194.85,-770"/>
<polygon fill="#8b1a1a" stroke="#8b1a1a" points="153.41,-766.5 143.41,-770 153.41,-773.5 153.41,-766.5"/>
</a>
</g>
</g>
<!-- Node24 -->
<g id="Node000024" class="node">
<title>Node24</title>
<g id="a_Node000024"><a xlink:href="../../d6/d08/class_static__rock__spike3.html" target="_top" xlink:title=" ">
<polygon fill="white" stroke="#666666" points="294.38,-742 195.12,-742 195.12,-722 294.38,-722 294.38,-742"/>
<text text-anchor="middle" x="244.75" y="-728.5" font-family="Helvetica,sans-Serif" font-size="10.00">Static_rock_spike3</text>
</a>
</g>
</g>
<!-- Node1&#45;&gt;Node24 -->
<g id="edge23_Node000001_Node000024" class="edge">
<title>Node1&#45;&gt;Node24</title>
<g id="a_edge23_Node000001_Node000024"><a xlink:title=" ">
<path fill="none" stroke="#8b1a1a" d="M152.83,-758.14C161,-755.77 169.52,-753.3 177.5,-751 187.16,-748.21 197.61,-745.21 207.3,-742.43"/>
<polygon fill="#8b1a1a" stroke="#8b1a1a" points="152.08,-754.71 143.45,-760.86 154.03,-761.43 152.08,-754.71"/>
</a>
</g>
</g>
<!-- Node25 -->
<g id="Node000025" class="node">
<title>Node25</title>
<g id="a_Node000025"><a xlink:href="../../d8/d06/class_static__rock__stone10.html" target="_top" xlink:title=" ">
<polygon fill="white" stroke="#666666" points="297.38,-704 192.12,-704 192.12,-684 297.38,-684 297.38,-704"/>
<text text-anchor="middle" x="244.75" y="-690.5" font-family="Helvetica,sans-Serif" font-size="10.00">Static_rock_stone10</text>
</a>
</g>
</g>
<!-- Node1&#45;&gt;Node25 -->
<g id="edge24_Node000001_Node000025" class="edge">
<title>Node1&#45;&gt;Node25</title>
<g id="a_edge24_Node000001_Node000025"><a xlink:title=" ">
<path fill="none" stroke="#8b1a1a" d="M128.8,-751.64C141.17,-739.12 158.99,-723.06 177.5,-713 183.7,-709.63 190.57,-706.8 197.45,-704.45"/>
<polygon fill="#8b1a1a" stroke="#8b1a1a" points="126.6,-748.88 122.22,-758.52 131.66,-753.71 126.6,-748.88"/>
</a>
</g>
</g>
<!-- Node26 -->
<g id="Node000026" class="node">
<title>Node26</title>
<g id="a_Node000026"><a xlink:href="../../dc/d0d/class_static__rock__stone10__moss.html" target="_top" xlink:title=" ">
<polygon fill="white" stroke="#666666" points="312,-666 177.5,-666 177.5,-646 312,-646 312,-666"/>
<text text-anchor="middle" x="244.75" y="-652.5" font-family="Helvetica,sans-Serif" font-size="10.00">Static_rock_stone10_moss</text>
</a>
</g>
</g>
<!-- Node1&#45;&gt;Node26 -->
<g id="edge25_Node000001_Node000026" class="edge">
<title>Node1&#45;&gt;Node26</title>
<g id="a_edge25_Node000001_Node000026"><a xlink:title=" ">
<path fill="none" stroke="#8b1a1a" d="M121.04,-749.28C131.54,-727.61 150.89,-694.13 177.5,-675 182.26,-671.58 187.63,-668.77 193.19,-666.47"/>
<polygon fill="#8b1a1a" stroke="#8b1a1a" points="117.89,-747.75 116.88,-758.3 124.25,-750.68 117.89,-747.75"/>
</a>
</g>
</g>
<!-- Node27 -->
<g id="Node000027" class="node">
<title>Node27</title>
<g id="a_Node000027"><a xlink:href="../../d3/d02/class_static__rock__stone6.html" target="_top" xlink:title=" ">
<polygon fill="white" stroke="#666666" points="294.75,-628 194.75,-628 194.75,-608 294.75,-608 294.75,-628"/>
<text text-anchor="middle" x="244.75" y="-614.5" font-family="Helvetica,sans-Serif" font-size="10.00">Static_rock_stone6</text>
</a>
</g>
</g>
<!-- Node1&#45;&gt;Node27 -->
<g id="edge26_Node000001_Node000027" class="edge">
<title>Node1&#45;&gt;Node27</title>
<g id="a_edge26_Node000001_Node000027"><a xlink:title=" ">
<path fill="none" stroke="#8b1a1a" d="M116.8,-748.48C124.49,-718.98 142.42,-666.32 177.5,-637 182.46,-632.86 188.27,-629.62 194.36,-627.08"/>
<polygon fill="#8b1a1a" stroke="#8b1a1a" points="113.42,-747.55 114.46,-758.1 120.22,-749.2 113.42,-747.55"/>
</a>
</g>
</g>
<!-- Node28 -->
<g id="Node000028" class="node">
<title>Node28</title>
<g id="a_Node000028"><a xlink:href="../../da/d04/class_static__rock__stone6__moss.html" target="_top" xlink:title=" ">
<polygon fill="white" stroke="#666666" points="309.38,-590 180.12,-590 180.12,-570 309.38,-570 309.38,-590"/>
<text text-anchor="middle" x="244.75" y="-576.5" font-family="Helvetica,sans-Serif" font-size="10.00">Static_rock_stone6_moss</text>
</a>
</g>
</g>
<!-- Node1&#45;&gt;Node28 -->
<g id="edge27_Node000001_Node000028" class="edge">
<title>Node1&#45;&gt;Node28</title>
<g id="a_edge27_Node000001_Node000028"><a xlink:title=" ">
<path fill="none" stroke="#8b1a1a" d="M114.1,-748.68C118.8,-712.57 133.49,-639.36 177.5,-599 181.29,-595.52 185.68,-592.68 190.35,-590.35"/>
<polygon fill="#8b1a1a" stroke="#8b1a1a" points="110.66,-747.95 112.99,-758.29 117.61,-748.75 110.66,-747.95"/>
</a>
</g>
</g>
<!-- Node29 -->
<g id="Node000029" class="node">
<title>Node29</title>
<g id="a_Node000029"><a xlink:href="../../da/d06/class_static__rock__stone7.html" target="_top" xlink:title=" ">
<polygon fill="white" stroke="#666666" points="294.75,-552 194.75,-552 194.75,-532 294.75,-532 294.75,-552"/>
<text text-anchor="middle" x="244.75" y="-538.5" font-family="Helvetica,sans-Serif" font-size="10.00">Static_rock_stone7</text>
</a>
</g>
</g>
<!-- Node1&#45;&gt;Node29 -->
<g id="edge28_Node000001_Node000029" class="edge">
<title>Node1&#45;&gt;Node29</title>
<g id="a_edge28_Node000001_Node000029"><a xlink:title=" ">
<path fill="none" stroke="#8b1a1a" d="M112.38,-748.19C114.32,-705.92 124.72,-612.51 177.5,-561 182.3,-556.32 188.16,-552.78 194.4,-550.1"/>
<polygon fill="#8b1a1a" stroke="#8b1a1a" points="108.88,-747.94 112.06,-758.05 115.88,-748.16 108.88,-747.94"/>
</a>
</g>
</g>
<!-- Node30 -->
<g id="Node000030" class="node">
<title>Node30</title>
<g id="a_Node000030"><a xlink:href="../../d0/d06/class_static__rock__stone7__moss.html" target="_top" xlink:title=" ">
<polygon fill="white" stroke="#666666" points="309.38,-514 180.12,-514 180.12,-494 309.38,-494 309.38,-514"/>
<text text-anchor="middle" x="244.75" y="-500.5" font-family="Helvetica,sans-Serif" font-size="10.00">Static_rock_stone7_moss</text>
</a>
</g>
</g>
<!-- Node1&#45;&gt;Node30 -->
<g id="edge29_Node000001_Node000030" class="edge">
<title>Node1&#45;&gt;Node30</title>
<g id="a_edge29_Node000001_Node000030"><a xlink:title=" ">
<path fill="none" stroke="#8b1a1a" d="M111.11,-748.26C110.39,-700.6 115.63,-586.12 177.5,-523 180.85,-519.58 184.77,-516.77 189,-514.45"/>
<polygon fill="#8b1a1a" stroke="#8b1a1a" points="107.6,-748.18 111.37,-758.08 114.6,-747.99 107.6,-748.18"/>
</a>
</g>
</g>
<!-- Node31 -->
<g id="Node000031" class="node">
<title>Node31</title>
<g id="a_Node000031"><a xlink:href="../../d2/d0e/class_static__rock__stone8.html" target="_top" xlink:title=" ">
<polygon fill="white" stroke="#666666" points="294.75,-476 194.75,-476 194.75,-456 294.75,-456 294.75,-476"/>
<text text-anchor="middle" x="244.75" y="-462.5" font-family="Helvetica,sans-Serif" font-size="10.00">Static_rock_stone8</text>
</a>
</g>
</g>
<!-- Node1&#45;&gt;Node31 -->
<g id="edge30_Node000001_Node000031" class="edge">
<title>Node1&#45;&gt;Node31</title>
<g id="a_edge30_Node000001_Node000031"><a xlink:title=" ">
<path fill="none" stroke="#8b1a1a" d="M114.15,-748.33C120.5,-688.6 141.05,-523.45 177.5,-485 182.19,-480.05 188.08,-476.36 194.4,-473.62"/>
<polygon fill="#8b1a1a" stroke="#8b1a1a" points="110.68,-747.88 113.14,-758.18 117.64,-748.59 110.68,-747.88"/>
</a>
</g>
</g>
<!-- Node32 -->
<g id="Node000032" class="node">
<title>Node32</title>
<g id="a_Node000032"><a xlink:href="../../df/d05/class_static__rock__stone8__moss.html" target="_top" xlink:title=" ">
<polygon fill="white" stroke="#666666" points="309.38,-438 180.12,-438 180.12,-418 309.38,-418 309.38,-438"/>
<text text-anchor="middle" x="244.75" y="-424.5" font-family="Helvetica,sans-Serif" font-size="10.00">Static_rock_stone8_moss</text>
</a>
</g>
</g>
<!-- Node1&#45;&gt;Node32 -->
<g id="edge31_Node000001_Node000032" class="edge">
<title>Node1&#45;&gt;Node32</title>
<g id="a_edge31_Node000001_Node000032"><a xlink:title=" ">
<path fill="none" stroke="#8b1a1a" d="M113.5,-748.49C118.45,-683.6 136.37,-491.53 177.5,-447 180.67,-443.57 184.41,-440.75 188.47,-438.42"/>
<polygon fill="#8b1a1a" stroke="#8b1a1a" points="110.03,-747.95 112.79,-758.18 117.01,-748.46 110.03,-747.95"/>
</a>
</g>
</g>
<!-- Node33 -->
<g id="Node000033" class="node">
<title>Node33</title>
<g id="a_Node000033"><a xlink:href="../../d3/d07/class_static__rock__stone9.html" target="_top" xlink:title=" ">
<polygon fill="white" stroke="#666666" points="294.75,-400 194.75,-400 194.75,-380 294.75,-380 294.75,-400"/>
<text text-anchor="middle" x="244.75" y="-386.5" font-family="Helvetica,sans-Serif" font-size="10.00">Static_rock_stone9</text>
</a>
</g>
</g>
<!-- Node1&#45;&gt;Node33 -->
<g id="edge32_Node000001_Node000033" class="edge">
<title>Node1&#45;&gt;Node33</title>
<g id="a_edge32_Node000001_Node000033"><a xlink:title=" ">
<path fill="none" stroke="#8b1a1a" d="M113.01,-748.29C116.7,-678.19 131.73,-459.58 177.5,-409 182.16,-403.85 188.1,-400.06 194.52,-397.28"/>
<polygon fill="#8b1a1a" stroke="#8b1a1a" points="109.52,-747.9 112.52,-758.06 116.52,-748.25 109.52,-747.9"/>
</a>
</g>
</g>
<!-- Node34 -->
<g id="Node000034" class="node">
<title>Node34</title>
<g id="a_Node000034"><a xlink:href="../../d7/d06/class_static__rock__stone9__moss.html" target="_top" xlink:title=" ">
<polygon fill="white" stroke="#666666" points="309.38,-362 180.12,-362 180.12,-342 309.38,-342 309.38,-362"/>
<text text-anchor="middle" x="244.75" y="-348.5" font-family="Helvetica,sans-Serif" font-size="10.00">Static_rock_stone9_moss</text>
</a>
</g>
</g>
<!-- Node1&#45;&gt;Node34 -->
<g id="edge33_Node000001_Node000034" class="edge">
<title>Node1&#45;&gt;Node34</title>
<g id="a_edge33_Node000001_Node000034"><a xlink:title=" ">
<path fill="none" stroke="#8b1a1a" d="M112.59,-748.46C115.07,-673.84 126.99,-427.77 177.5,-371 180.52,-367.6 184.11,-364.8 188.02,-362.48"/>
<polygon fill="#8b1a1a" stroke="#8b1a1a" points="109.1,-748.01 112.3,-758.11 116.1,-748.22 109.1,-748.01"/>
</a>
</g>
</g>
<!-- Node35 -->
<g id="Node000035" class="node">
<title>Node35</title>
<g id="a_Node000035"><a xlink:href="../../d4/d08/class_static__rock__wallh1.html" target="_top" xlink:title=" ">
<polygon fill="white" stroke="#666666" points="293.62,-324 195.88,-324 195.88,-304 293.62,-304 293.62,-324"/>
<text text-anchor="middle" x="244.75" y="-310.5" font-family="Helvetica,sans-Serif" font-size="10.00">Static_rock_wallh1</text>
</a>
</g>
</g>
<!-- Node1&#45;&gt;Node35 -->
<g id="edge34_Node000001_Node000035" class="edge">
<title>Node1&#45;&gt;Node35</title>
<g id="a_edge34_Node000001_Node000035"><a xlink:title=" ">
<path fill="none" stroke="#8b1a1a" d="M112.25,-748.5C113.6,-669.42 122.27,-395.96 177.5,-333 182.39,-327.42 188.8,-323.43 195.7,-320.59"/>
<polygon fill="#8b1a1a" stroke="#8b1a1a" points="108.75,-748.27 112.11,-758.32 115.75,-748.37 108.75,-748.27"/>
</a>
</g>
</g>
<!-- Node36 -->
<g id="Node000036" class="node">
<title>Node36</title>
<g id="a_Node000036"><a xlink:href="../../dc/d08/class_static__rock__wallh2.html" target="_top" xlink:title=" ">
<polygon fill="white" stroke="#666666" points="293.62,-286 195.88,-286 195.88,-266 293.62,-266 293.62,-286"/>
<text text-anchor="middle" x="244.75" y="-272.5" font-family="Helvetica,sans-Serif" font-size="10.00">Static_rock_wallh2</text>
</a>
</g>
</g>
<!-- Node1&#45;&gt;Node36 -->
<g id="edge35_Node000001_Node000036" class="edge">
<title>Node1&#45;&gt;Node36</title>
<g id="a_edge35_Node000001_Node000036"><a xlink:title=" ">
<path fill="none" stroke="#8b1a1a" d="M111.96,-748.28C112.27,-664.56 117.59,-364.11 177.5,-295 182.36,-289.39 188.75,-285.39 195.65,-282.54"/>
<polygon fill="#8b1a1a" stroke="#8b1a1a" points="108.46,-748.26 111.95,-758.27 115.46,-748.27 108.46,-748.26"/>
</a>
</g>
</g>
<!-- Node37 -->
<g id="Node000037" class="node">
<title>Node37</title>
<g id="a_Node000037"><a xlink:href="../../d1/d0d/class_static__rock__wallh3.html" target="_top" xlink:title=" ">
<polygon fill="white" stroke="#666666" points="293.62,-248 195.88,-248 195.88,-228 293.62,-228 293.62,-248"/>
<text text-anchor="middle" x="244.75" y="-234.5" font-family="Helvetica,sans-Serif" font-size="10.00">Static_rock_wallh3</text>
</a>
</g>
</g>
<!-- Node1&#45;&gt;Node37 -->
<g id="edge36_Node000001_Node000037" class="edge">
<title>Node1&#45;&gt;Node37</title>
<g id="a_edge36_Node000001_Node000037"><a xlink:title=" ">
<path fill="none" stroke="#8b1a1a" d="M111.72,-748.52C111.01,-661.01 112.78,-332.42 177.5,-257 182.33,-251.37 188.71,-247.35 195.6,-244.5"/>
<polygon fill="#8b1a1a" stroke="#8b1a1a" points="108.22,-748.35 111.82,-758.31 115.22,-748.28 108.22,-748.35"/>
</a>
</g>
</g>
<!-- Node38 -->
<g id="Node000038" class="node">
<title>Node38</title>
<g id="a_Node000038"><a xlink:href="../../d8/d0d/class_static__rock__wallv.html" target="_top" xlink:title=" ">
<polygon fill="white" stroke="#666666" points="290.25,-210 199.25,-210 199.25,-190 290.25,-190 290.25,-210"/>
<text text-anchor="middle" x="244.75" y="-196.5" font-family="Helvetica,sans-Serif" font-size="10.00">Static_rock_wallv</text>
</a>
</g>
</g>
<!-- Node1&#45;&gt;Node38 -->
<g id="edge37_Node000001_Node000038" class="edge">
<title>Node1&#45;&gt;Node38</title>
<g id="a_edge37_Node000001_Node000038"><a xlink:title=" ">
<path fill="none" stroke="#8b1a1a" d="M113.16,-748.5C118.57,-651.81 142.51,-260.13 177.5,-219 183.08,-212.44 190.77,-208.06 198.93,-205.17"/>
<polygon fill="#8b1a1a" stroke="#8b1a1a" points="109.67,-748.22 112.62,-758.39 116.66,-748.6 109.67,-748.22"/>
</a>
</g>
</g>
<!-- Node39 -->
<g id="Node000039" class="node">
<title>Node39</title>
<g id="a_Node000039"><a xlink:href="../../d9/d0b/class_static__stone1.html" target="_top" xlink:title=" ">
<polygon fill="white" stroke="#666666" points="282.75,-172 206.75,-172 206.75,-152 282.75,-152 282.75,-172"/>
<text text-anchor="middle" x="244.75" y="-158.5" font-family="Helvetica,sans-Serif" font-size="10.00">Static_stone1</text>
</a>
</g>
</g>
<!-- Node1&#45;&gt;Node39 -->
<g id="edge38_Node000001_Node000039" class="edge">
<title>Node1&#45;&gt;Node39</title>
<g id="a_edge38_Node000001_Node000039"><a xlink:title=" ">
<path fill="none" stroke="#8b1a1a" d="M113,-748.3C117.84,-647.19 140.14,-225.25 177.5,-181 184.76,-172.41 195.62,-167.56 206.45,-164.87"/>
<polygon fill="#8b1a1a" stroke="#8b1a1a" points="109.51,-748.03 112.53,-758.18 116.5,-748.36 109.51,-748.03"/>
</a>
</g>
</g>
<!-- Node40 -->
<g id="Node000040" class="node">
<title>Node40</title>
<g id="a_Node000040"><a xlink:href="../../d6/d03/class_static__stone2.html" target="_top" xlink:title=" ">
<polygon fill="white" stroke="#666666" points="282.75,-134 206.75,-134 206.75,-114 282.75,-114 282.75,-134"/>
<text text-anchor="middle" x="244.75" y="-120.5" font-family="Helvetica,sans-Serif" font-size="10.00">Static_stone2</text>
</a>
</g>
</g>
<!-- Node1&#45;&gt;Node40 -->
<g id="edge39_Node000001_Node000040" class="edge">
<title>Node1&#45;&gt;Node40</title>
<g id="a_edge39_Node000001_Node000040"><a xlink:title=" ">
<path fill="none" stroke="#8b1a1a" d="M112.85,-748.24C117.13,-643.05 137.76,-190.4 177.5,-143 184.73,-134.38 195.58,-129.53 206.42,-126.84"/>
<polygon fill="#8b1a1a" stroke="#8b1a1a" points="109.36,-747.89 112.46,-758.02 116.35,-748.17 109.36,-747.89"/>
</a>
</g>
</g>
<!-- Node41 -->
<g id="Node000041" class="node">
<title>Node41</title>
<g id="a_Node000041"><a xlink:href="../../dc/d0b/class_static__stone3.html" target="_top" xlink:title=" ">
<polygon fill="white" stroke="#666666" points="282.75,-96 206.75,-96 206.75,-76 282.75,-76 282.75,-96"/>
<text text-anchor="middle" x="244.75" y="-82.5" font-family="Helvetica,sans-Serif" font-size="10.00">Static_stone3</text>
</a>
</g>
</g>
<!-- Node1&#45;&gt;Node41 -->
<g id="edge40_Node000001_Node000041" class="edge">
<title>Node1&#45;&gt;Node41</title>
<g id="a_edge40_Node000001_Node000041"><a xlink:title=" ">
<path fill="none" stroke="#8b1a1a" d="M112.7,-748.65C116.41,-640.44 135.3,-155.63 177.5,-105 184.7,-96.36 195.55,-91.5 206.39,-88.82"/>
<polygon fill="#8b1a1a" stroke="#8b1a1a" points="109.21,-748.31 112.37,-758.42 116.2,-748.54 109.21,-748.31"/>
</a>
</g>
</g>
<!-- Node42 -->
<g id="Node000042" class="node">
<title>Node42</title>
<g id="a_Node000042"><a xlink:href="../../dd/d08/class_static__stone4.html" target="_top" xlink:title=" ">
<polygon fill="white" stroke="#666666" points="282.75,-58 206.75,-58 206.75,-38 282.75,-38 282.75,-58"/>
<text text-anchor="middle" x="244.75" y="-44.5" font-family="Helvetica,sans-Serif" font-size="10.00">Static_stone4</text>
</a>
</g>
</g>
<!-- Node1&#45;&gt;Node42 -->
<g id="edge41_Node000001_Node000042" class="edge">
<title>Node1&#45;&gt;Node42</title>
<g id="a_edge41_Node000001_Node000042"><a xlink:title=" ">
<path fill="none" stroke="#8b1a1a" d="M112.59,-748.14C115.83,-635.19 132.96,-120.73 177.5,-67 184.68,-58.34 195.52,-53.48 206.36,-50.79"/>
<polygon fill="#8b1a1a" stroke="#8b1a1a" points="109.09,-748.01 112.31,-758.11 116.09,-748.21 109.09,-748.01"/>
</a>
</g>
</g>
<!-- Node43 -->
<g id="Node000043" class="node">
<title>Node43</title>
<g id="a_Node000043"><a xlink:href="../../d7/d0c/class_static__stone5.html" target="_top" xlink:title=" ">
<polygon fill="white" stroke="#666666" points="282.75,-20 206.75,-20 206.75,0 282.75,0 282.75,-20"/>
<text text-anchor="middle" x="244.75" y="-6.5" font-family="Helvetica,sans-Serif" font-size="10.00">Static_stone5</text>
</a>
</g>
</g>
<!-- Node1&#45;&gt;Node43 -->
<g id="edge42_Node000001_Node000043" class="edge">
<title>Node1&#45;&gt;Node43</title>
<g id="a_edge42_Node000001_Node000043"><a xlink:title=" ">
<path fill="none" stroke="#8b1a1a" d="M112.47,-748.43C115.21,-632.43 130.51,-85.95 177.5,-29 184.66,-20.32 195.49,-15.46 206.34,-12.77"/>
<polygon fill="#8b1a1a" stroke="#8b1a1a" points="108.98,-748.02 112.25,-758.09 115.98,-748.18 108.98,-748.02"/>
</a>
</g>
</g>
<!-- Node2 -->
<g id="Node000002" class="node">
<title>Node2</title>
<g id="a_Node000002"><a xlink:href="../../d8/d03/class_object.html" target="_top" xlink:title=" ">
<polygon fill="white" stroke="#666666" points="44.5,-780 0,-780 0,-760 44.5,-760 44.5,-780"/>
<text text-anchor="middle" x="22.25" y="-766.5" font-family="Helvetica,sans-Serif" font-size="10.00">Object</text>
</a>
</g>
</g>
<!-- Node2&#45;&gt;Node1 -->
<g id="edge1_Node000001_Node000002" class="edge">
<title>Node2&#45;&gt;Node1</title>
<g id="a_edge1_Node000001_Node000002"><a xlink:title=" ">
<path fill="none" stroke="#8b1a1a" d="M56.19,-770C64.11,-770 72.53,-770 80.3,-770"/>
<polygon fill="#8b1a1a" stroke="#8b1a1a" points="56.21,-766.5 46.21,-770 56.21,-773.5 56.21,-766.5"/>
</a>
</g>
</g>
</g>
</svg>

<g id="navigator" transform="translate(0 0)" fill="#404254">
  <rect fill="#f2f5e9" fill-opacity="0.5" stroke="#606060" stroke-width=".5" x="0" y="0" width="60" height="60"/>
  <use id="zoomplus" xlink:href="#zoomPlus" x="17" y="9" onmousedown="handleZoom(evt,'in')"/>
  <use id="zoomminus" xlink:href="#zoomMin" x="42" y="9" onmousedown="handleZoom(evt,'out')"/>
  <use id="reset" xlink:href="#resetDef" x="30" y="36" onmousedown="handleReset()"/>
   <use id="arrowup" xlink:href="#arrowUp" x="0" y="0" onmousedown="handlePan(0,-1)"/>
  <use id="arrowright" xlink:href="#arrowRight" x="0" y="0" onmousedown="handlePan(1,0)"/>
  <use id="arrowdown" xlink:href="#arrowDown" x="0" y="0" onmousedown="handlePan(0,1)"/>
  <use id="arrowleft" xlink:href="#arrowLeft" x="0" y="0" onmousedown="handlePan(-1,0)"/>
</g>
<svg viewBox="0 0 15 15" width="100%" height="30px" preserveAspectRatio="xMaxYMin meet">
 <g id="arrow_out" transform="scale(0.3 0.3)">
  <a xlink:href="class_rock_base__inherit__graph_org.svg" target="_base">
   <rect id="button" ry="5" rx="5" y="6" x="6" height="38" width="38"
        fill="#f2f5e9" fill-opacity="0.5" stroke="#606060" stroke-width="1.0"/>
   <path id="arrow"
     d="M 11.500037,31.436501 C 11.940474,20.09759 22.043105,11.32322 32.158766,21.979434 L 37.068811,17.246167 C 37.068811,17.246167 37.088388,32 37.088388,32 L 22.160133,31.978069 C 22.160133,31.978069 26.997745,27.140456 26.997745,27.140456 C 18.528582,18.264221 13.291696,25.230495 11.500037,31.436501 z"
     style="fill:#404040;"/>
  </a>
 </g>
</svg>

<style type='text/css'>
<![CDATA[
[data-mouse-over-selected='false'] { opacity: 0.7; }
[data-mouse-over-selected='true']  { opacity: 1.0; }
]]>
</style>
<script type="application/ecmascript"><![CDATA[
document.addEventListener('DOMContentLoaded', (event) => {
  highlightEdges();
  highlightAdjacentNodes();
});
]]></script>
</svg>
