<?xml version="1.0" encoding="UTF-8" standalone="no"?>
<!DOCTYPE svg PUBLIC "-//W3C//DTD SVG 1.1//EN"
 "http://www.w3.org/Graphics/SVG/1.1/DTD/svg11.dtd">
<!-- Generated by graphviz version 11.0.0 (20240428.1522)
 -->
<!-- Title: PPEffects Pages: 1 -->
<svg width="1478pt" height="518pt"
 viewBox="0.00 0.00 1477.68 517.91" xmlns="http://www.w3.org/2000/svg" xmlns:xlink="http://www.w3.org/1999/xlink">
<g id="graph0" class="graph" transform="scale(1 1) rotate(0) translate(4 513.91)">
<title>PPEffects</title>
<!-- Node1 -->
<g id="Node000001" class="node">
<title>Node1</title>
<g id="a_Node000001"><a xlink:title="Deprecated; &#39;PPEManager&#39; used instead.">
<polygon fill="#999999" stroke="#666666" points="1014.43,-20 954.93,-20 954.93,0 1014.43,0 1014.43,-20"/>
<text text-anchor="middle" x="984.68" y="-6.5" font-family="Helvetica,sans-Serif" font-size="10.00">PPEffects</text>
</a>
</g>
</g>
<!-- Node2 -->
<g id="Node000002" class="node">
<title>Node2</title>
<g id="a_Node000002"><a xlink:href="../../db/d06/class_param3.html" target="_top" xlink:title=" ">
<polygon fill="white" stroke="#666666" points="355.55,-508 305.8,-508 305.8,-488 355.55,-488 355.55,-508"/>
<text text-anchor="middle" x="330.68" y="-494.5" font-family="Helvetica,sans-Serif" font-size="10.00">Param3</text>
</a>
</g>
</g>
<!-- Node2&#45;&gt;Node1 -->
<g id="edge1_Node000001_Node000002" class="edge">
<title>Node2&#45;&gt;Node1</title>
<g id="a_edge1_Node000001_Node000002"><a xlink:title=" ">
<path fill="none" stroke="#9a32cd" stroke-dasharray="5,2" d="M293.96,-495.96C244.42,-493.9 159.5,-487.8 134.68,-470 17.39,-385.91 -48.3,-268.38 44.68,-158 165.19,-14.93 808.3,-9.95 954.91,-10.71"/>
<polygon fill="#9a32cd" stroke="#9a32cd" points="293.81,-499.46 303.93,-496.34 294.07,-492.46 293.81,-499.46"/>
</a>
</g>
<text text-anchor="middle" x="86.68" y="-280.5" font-family="Helvetica,sans-Serif" font-size="10.00" fill="grey"> COLORIZE_NV</text>
<text text-anchor="middle" x="86.68" y="-268.5" font-family="Helvetica,sans-Serif" font-size="10.00" fill="grey">m_BlurDrunk</text>
<text text-anchor="middle" x="86.68" y="-256.5" font-family="Helvetica,sans-Serif" font-size="10.00" fill="grey">m_BlurFever</text>
<text text-anchor="middle" x="86.68" y="-244.5" font-family="Helvetica,sans-Serif" font-size="10.00" fill="grey">m_BlurFlashbang</text>
<text text-anchor="middle" x="86.68" y="-232.5" font-family="Helvetica,sans-Serif" font-size="10.00" fill="grey">m_BlurInventory</text>
<text text-anchor="middle" x="86.68" y="-220.5" font-family="Helvetica,sans-Serif" font-size="10.00" fill="grey">m_BlurMenu</text>
<text text-anchor="middle" x="86.68" y="-208.5" font-family="Helvetica,sans-Serif" font-size="10.00" fill="grey">m_BlurOptics</text>
<text text-anchor="middle" x="86.68" y="-196.5" font-family="Helvetica,sans-Serif" font-size="10.00" fill="grey">m_BlurShock</text>
<text text-anchor="middle" x="86.68" y="-184.5" font-family="Helvetica,sans-Serif" font-size="10.00" fill="grey">m_BurlapBlindness</text>
<text text-anchor="middle" x="86.68" y="-172.5" font-family="Helvetica,sans-Serif" font-size="10.00" fill="grey">m_ChromAbbOptic</text>
<text text-anchor="middle" x="86.68" y="-160.5" font-family="Helvetica,sans-Serif" font-size="10.00" fill="grey">...</text>
</g>
<!-- Node4 -->
<g id="Node000004" class="node">
<title>Node4</title>
<g id="a_Node000004"><a xlink:href="../../d2/d01/classarray.html" target="_top" xlink:title=" ">
<polygon fill="white" stroke="#666666" points="1061.55,-132 987.8,-132 987.8,-112 1061.55,-112 1061.55,-132"/>
<text text-anchor="middle" x="1024.68" y="-118.5" font-family="Helvetica,sans-Serif" font-size="10.00">array&lt; float &gt;</text>
</a>
</g>
</g>
<!-- Node2&#45;&gt;Node4 -->
<g id="edge6_Node000004_Node000002" class="edge">
<title>Node2&#45;&gt;Node4</title>
<g id="a_edge6_Node000004_Node000002"><a xlink:title=" ">
<path fill="none" stroke="#9a32cd" stroke-dasharray="5,2" d="M366.95,-495.26C405.18,-493.43 467.17,-490.47 520.68,-488 542.84,-486.98 904.35,-486.04 919.68,-470 941.79,-446.87 931.61,-427.69 919.68,-398 915.55,-387.72 906.56,-390.28 902.43,-380 890.5,-350.31 882.73,-333.21 902.43,-308 922.81,-281.92 950.74,-312.85 974.68,-290 1021.1,-245.7 1024.92,-160.25 1024.87,-132.18"/>
<polygon fill="#9a32cd" stroke="#9a32cd" points="367.21,-491.74 357.39,-495.72 367.55,-498.73 367.21,-491.74"/>
</a>
</g>
<text text-anchor="middle" x="959.8" y="-370.5" font-family="Helvetica,sans-Serif" font-size="10.00" fill="grey"> NO_SORTING</text>
<text text-anchor="middle" x="959.8" y="-358.5" font-family="Helvetica,sans-Serif" font-size="10.00" fill="grey">geomLevel</text>
<text text-anchor="middle" x="959.8" y="-346.5" font-family="Helvetica,sans-Serif" font-size="10.00" fill="grey">hierLevel</text>
<text text-anchor="start" x="901.68" y="-334.5" font-family="Helvetica,sans-Serif" font-size="10.00" fill="grey">m_CurrentSettingAlternate</text>
<text text-anchor="middle" x="959.8" y="-322.5" font-family="Helvetica,sans-Serif" font-size="10.00" fill="grey">KeyIndex</text>
<text text-anchor="middle" x="959.8" y="-310.5" font-family="Helvetica,sans-Serif" font-size="10.00" fill="grey">m_CurrentSettingKeyIndex</text>
</g>
<!-- Node6 -->
<g id="Node000006" class="node">
<title>Node6</title>
<g id="a_Node000006"><a xlink:href="../../d2/d01/classarray.html" target="_top" xlink:title="Result for an object found in CGame.IsBoxCollidingGeometryProxy.">
<polygon fill="white" stroke="#666666" points="806.55,-354 768.8,-354 768.8,-334 806.55,-334 806.55,-354"/>
<text text-anchor="middle" x="787.68" y="-340.5" font-family="Helvetica,sans-Serif" font-size="10.00">array</text>
</a>
</g>
</g>
<!-- Node2&#45;&gt;Node6 -->
<g id="edge9_Node000006_Node000002" class="edge">
<title>Node2&#45;&gt;Node6</title>
<g id="a_edge9_Node000006_Node000002"><a xlink:title=" ">
<path fill="none" stroke="#9a32cd" stroke-dasharray="5,2" d="M351.61,-480.99C383.04,-457.95 445.2,-416.22 505.43,-398 558.58,-381.92 704.52,-403.83 754.68,-380 766.45,-374.41 776.13,-362.64 781.89,-354.29"/>
<polygon fill="#9a32cd" stroke="#9a32cd" points="349.67,-478.07 343.74,-486.86 353.85,-483.69 349.67,-478.07"/>
</a>
</g>
<text text-anchor="middle" x="563.8" y="-460.5" font-family="Helvetica,sans-Serif" font-size="10.00" fill="grey"> NO_SORTING</text>
<text text-anchor="middle" x="563.8" y="-448.5" font-family="Helvetica,sans-Serif" font-size="10.00" fill="grey">geomLevel</text>
<text text-anchor="middle" x="563.8" y="-436.5" font-family="Helvetica,sans-Serif" font-size="10.00" fill="grey">hierLevel</text>
<text text-anchor="start" x="505.68" y="-424.5" font-family="Helvetica,sans-Serif" font-size="10.00" fill="grey">m_CurrentSettingAlternate</text>
<text text-anchor="middle" x="563.8" y="-412.5" font-family="Helvetica,sans-Serif" font-size="10.00" fill="grey">KeyIndex</text>
<text text-anchor="middle" x="563.8" y="-400.5" font-family="Helvetica,sans-Serif" font-size="10.00" fill="grey">m_CurrentSettingKeyIndex</text>
</g>
<!-- Node10 -->
<g id="Node000010" class="node">
<title>Node10</title>
<g id="a_Node000010"><a xlink:href="../../d2/d01/classarray.html" target="_top" xlink:title=" ">
<polygon fill="white" stroke="#666666" points="823.93,-132 737.43,-132 737.43,-112 823.93,-112 823.93,-132"/>
<text text-anchor="middle" x="780.68" y="-118.5" font-family="Helvetica,sans-Serif" font-size="10.00">array&lt; Widget &gt;</text>
</a>
</g>
</g>
<!-- Node2&#45;&gt;Node10 -->
<g id="edge17_Node000010_Node000002" class="edge">
<title>Node2&#45;&gt;Node10</title>
<g id="a_edge17_Node000010_Node000002"><a xlink:title=" ">
<path fill="none" stroke="#9a32cd" stroke-dasharray="5,2" d="M327.3,-476.5C322.35,-440.58 316.23,-364.71 341.43,-308 346.19,-297.29 479.08,-163 489.68,-158 529.43,-139.23 643.12,-145.92 686.68,-140 703.28,-137.75 721.41,-134.62 737.28,-131.67"/>
<polygon fill="#9a32cd" stroke="#9a32cd" points="323.83,-476.95 328.79,-486.32 330.76,-475.9 323.83,-476.95"/>
</a>
</g>
<text text-anchor="middle" x="399.8" y="-370.5" font-family="Helvetica,sans-Serif" font-size="10.00" fill="grey"> NO_SORTING</text>
<text text-anchor="middle" x="399.8" y="-358.5" font-family="Helvetica,sans-Serif" font-size="10.00" fill="grey">geomLevel</text>
<text text-anchor="middle" x="399.8" y="-346.5" font-family="Helvetica,sans-Serif" font-size="10.00" fill="grey">hierLevel</text>
<text text-anchor="start" x="341.68" y="-334.5" font-family="Helvetica,sans-Serif" font-size="10.00" fill="grey">m_CurrentSettingAlternate</text>
<text text-anchor="middle" x="399.8" y="-322.5" font-family="Helvetica,sans-Serif" font-size="10.00" fill="grey">KeyIndex</text>
<text text-anchor="middle" x="399.8" y="-310.5" font-family="Helvetica,sans-Serif" font-size="10.00" fill="grey">m_CurrentSettingKeyIndex</text>
</g>
<!-- Node11 -->
<g id="Node000011" class="node">
<title>Node11</title>
<g id="a_Node000011"><a xlink:href="../../d2/d01/classarray.html" target="_top" xlink:title=" ">
<polygon fill="white" stroke="#666666" points="677.43,-132 587.93,-132 587.93,-112 677.43,-112 677.43,-132"/>
<text text-anchor="middle" x="632.68" y="-118.5" font-family="Helvetica,sans-Serif" font-size="10.00">array&lt; Param3 &gt;</text>
</a>
</g>
</g>
<!-- Node2&#45;&gt;Node11 -->
<g id="edge28_Node000011_Node000002" class="edge">
<title>Node2&#45;&gt;Node11</title>
<g id="a_edge28_Node000011_Node000002"><a xlink:title=" ">
<path fill="none" stroke="#9a32cd" stroke-dasharray="5,2" d="M294.49,-488.89C245.31,-475.66 159.52,-444.21 124.43,-380 109.08,-351.92 112.9,-337.85 124.43,-308 156.89,-223.99 180.12,-198.27 260.68,-158 316.96,-129.86 501.57,-124.27 587.69,-123.21"/>
<polygon fill="#9a32cd" stroke="#9a32cd" points="293.54,-492.26 304.09,-491.35 295.27,-485.48 293.54,-492.26"/>
</a>
</g>
<text text-anchor="middle" x="182.8" y="-370.5" font-family="Helvetica,sans-Serif" font-size="10.00" fill="grey"> NO_SORTING</text>
<text text-anchor="middle" x="182.8" y="-358.5" font-family="Helvetica,sans-Serif" font-size="10.00" fill="grey">geomLevel</text>
<text text-anchor="middle" x="182.8" y="-346.5" font-family="Helvetica,sans-Serif" font-size="10.00" fill="grey">hierLevel</text>
<text text-anchor="start" x="124.68" y="-334.5" font-family="Helvetica,sans-Serif" font-size="10.00" fill="grey">m_CurrentSettingAlternate</text>
<text text-anchor="middle" x="182.8" y="-322.5" font-family="Helvetica,sans-Serif" font-size="10.00" fill="grey">KeyIndex</text>
<text text-anchor="middle" x="182.8" y="-310.5" font-family="Helvetica,sans-Serif" font-size="10.00" fill="grey">m_CurrentSettingKeyIndex</text>
</g>
<!-- Node3 -->
<g id="Node000003" class="node">
<title>Node3</title>
<g id="a_Node000003"><a xlink:href="../../d4/d03/classfloat.html" target="_top" xlink:title=" ">
<polygon fill="white" stroke="#666666" points="1113.68,-132 1079.68,-132 1079.68,-112 1113.68,-112 1113.68,-132"/>
<text text-anchor="middle" x="1096.68" y="-118.5" font-family="Helvetica,sans-Serif" font-size="10.00">float</text>
</a>
</g>
</g>
<!-- Node3&#45;&gt;Node1 -->
<g id="edge2_Node000001_Node000003" class="edge">
<title>Node3&#45;&gt;Node1</title>
<g id="a_edge2_Node000001_Node000003"><a xlink:title=" ">
<path fill="none" stroke="#9a32cd" stroke-dasharray="5,2" d="M1096.62,-100.26C1095.44,-81.59 1090.77,-54.62 1074.68,-38 1059.13,-21.94 1034.45,-15.34 1014.86,-12.67"/>
<polygon fill="#9a32cd" stroke="#9a32cd" points="1093.11,-100.22 1096.93,-110.11 1100.11,-100 1093.11,-100.22"/>
</a>
</g>
<text text-anchor="middle" x="1139.3" y="-76.5" font-family="Helvetica,sans-Serif" font-size="10.00" fill="grey"> COLOR_SHOCK</text>
<text text-anchor="middle" x="1139.3" y="-64.5" font-family="Helvetica,sans-Serif" font-size="10.00" fill="grey">m_BloodSaturation</text>
<text text-anchor="middle" x="1139.3" y="-52.5" font-family="Helvetica,sans-Serif" font-size="10.00" fill="grey">m_ColorOverlayTotal</text>
<text text-anchor="middle" x="1139.3" y="-40.5" font-family="Helvetica,sans-Serif" font-size="10.00" fill="grey">m_ColorValueTotal</text>
</g>
<!-- Node3&#45;&gt;Node3 -->
<g id="edge3_Node000003_Node000003" class="edge">
<title>Node3&#45;&gt;Node3</title>
<g id="a_edge3_Node000003_Node000003"><a xlink:title=" ">
<path fill="none" stroke="#9a32cd" stroke-dasharray="5,2" d="M1124.02,-132.44C1128.56,-130.97 1131.68,-127.49 1131.68,-122 1131.68,-112.51 1122.34,-109.02 1112.52,-111.54"/>
<polygon fill="#9a32cd" stroke="#9a32cd" points="1124.03,-128.94 1114.03,-132.45 1124.04,-135.94 1124.03,-128.94"/>
</a>
</g>
<text text-anchor="middle" x="1153.8" y="-130.5" font-family="Helvetica,sans-Serif" font-size="10.00" fill="grey"> LOWEST</text>
<text text-anchor="middle" x="1153.8" y="-118.5" font-family="Helvetica,sans-Serif" font-size="10.00" fill="grey">MAX</text>
<text text-anchor="middle" x="1153.8" y="-106.5" font-family="Helvetica,sans-Serif" font-size="10.00" fill="grey">MIN</text>
</g>
<!-- Node4&#45;&gt;Node1 -->
<g id="edge4_Node000001_Node000004" class="edge">
<title>Node4&#45;&gt;Node1</title>
<g id="a_edge4_Node000001_Node000004"><a xlink:title=" ">
<path fill="none" stroke="#9a32cd" stroke-dasharray="5,2" d="M1000.31,-104.9C994.34,-99.64 988.73,-93.26 985.43,-86 975.52,-64.18 979.47,-34.98 982.47,-20.28"/>
<polygon fill="#9a32cd" stroke="#9a32cd" points="997.86,-107.42 1007.89,-110.83 1002.17,-101.91 997.86,-107.42"/>
</a>
</g>
<text text-anchor="middle" x="1029.3" y="-70.5" font-family="Helvetica,sans-Serif" font-size="10.00" fill="grey"> m_BlurValues</text>
<text text-anchor="middle" x="1029.3" y="-58.5" font-family="Helvetica,sans-Serif" font-size="10.00" fill="grey">m_ChromAbbValues</text>
<text text-anchor="middle" x="1029.3" y="-46.5" font-family="Helvetica,sans-Serif" font-size="10.00" fill="grey">m_ColorEffect</text>
</g>
<!-- Node5 -->
<g id="Node000005" class="node">
<title>Node5</title>
<g id="a_Node000005"><a xlink:href="../../d8/d03/class_object.html" target="_top" xlink:title=" ">
<polygon fill="white" stroke="#666666" points="1356.93,-508 1312.43,-508 1312.43,-488 1356.93,-488 1356.93,-508"/>
<text text-anchor="middle" x="1334.68" y="-494.5" font-family="Helvetica,sans-Serif" font-size="10.00">Object</text>
</a>
</g>
</g>
<!-- Node5&#45;&gt;Node4 -->
<g id="edge5_Node000004_Node000005" class="edge">
<title>Node5&#45;&gt;Node4</title>
<g id="a_edge5_Node000004_Node000005"><a xlink:title=" ">
<path fill="none" stroke="#9a32cd" stroke-dasharray="5,2" d="M1355.79,-480.54C1380.07,-460.07 1418.4,-422.58 1432.68,-380 1468.2,-274.06 1413.33,-210.48 1314.68,-158 1266.68,-132.46 1123.81,-151.54 1070.68,-140 1062.53,-138.23 1053.87,-135.32 1046.3,-132.41"/>
<polygon fill="#9a32cd" stroke="#9a32cd" points="1353.66,-477.76 1348.13,-486.8 1358.09,-483.18 1353.66,-477.76"/>
</a>
</g>
<text text-anchor="middle" x="1456.18" y="-346.5" font-family="Helvetica,sans-Serif" font-size="10.00" fill="grey"> obj</text>
<text text-anchor="middle" x="1456.18" y="-334.5" font-family="Helvetica,sans-Serif" font-size="10.00" fill="grey">parent</text>
</g>
<!-- Node5&#45;&gt;Node6 -->
<g id="edge8_Node000006_Node000005" class="edge">
<title>Node5&#45;&gt;Node6</title>
<g id="a_edge8_Node000006_Node000005"><a xlink:title=" ">
<path fill="none" stroke="#9a32cd" stroke-dasharray="5,2" d="M1301.08,-489.65C1225.33,-472.79 1035.76,-429.01 880.68,-380 854.69,-371.79 825.35,-360.38 806.7,-352.85"/>
<polygon fill="#9a32cd" stroke="#9a32cd" points="1300.24,-493.05 1310.76,-491.79 1301.75,-486.21 1300.24,-493.05"/>
</a>
</g>
<text text-anchor="middle" x="1226.18" y="-436.5" font-family="Helvetica,sans-Serif" font-size="10.00" fill="grey"> obj</text>
<text text-anchor="middle" x="1226.18" y="-424.5" font-family="Helvetica,sans-Serif" font-size="10.00" fill="grey">parent</text>
</g>
<!-- Node5&#45;&gt;Node10 -->
<g id="edge16_Node000010_Node000005" class="edge">
<title>Node5&#45;&gt;Node10</title>
<g id="a_edge16_Node000010_Node000005"><a xlink:title=" ">
<path fill="none" stroke="#9a32cd" stroke-dasharray="5,2" d="M1338.39,-476.81C1344,-440.24 1350.87,-361.86 1318.68,-308 1256.07,-203.24 1203.51,-199.33 1088.68,-158 1064.37,-149.25 903.28,-133.94 824.25,-126.83"/>
<polygon fill="#9a32cd" stroke="#9a32cd" points="1334.98,-475.96 1336.77,-486.4 1341.89,-477.12 1334.98,-475.96"/>
</a>
</g>
<text text-anchor="middle" x="1354.18" y="-346.5" font-family="Helvetica,sans-Serif" font-size="10.00" fill="grey"> obj</text>
<text text-anchor="middle" x="1354.18" y="-334.5" font-family="Helvetica,sans-Serif" font-size="10.00" fill="grey">parent</text>
</g>
<!-- Node5&#45;&gt;Node11 -->
<g id="edge27_Node000011_Node000005" class="edge">
<title>Node5&#45;&gt;Node11</title>
<g id="a_edge27_Node000011_Node000005"><a xlink:title=" ">
<path fill="none" stroke="#9a32cd" stroke-dasharray="5,2" d="M1326.67,-477.56C1307.44,-431.38 1259.16,-318.15 1243.68,-308 1200.16,-279.47 817.09,-321.52 775.68,-290 726.69,-252.71 776.65,-202.09 733.68,-158 718.91,-142.85 697.27,-134.25 677.8,-129.38"/>
<polygon fill="#9a32cd" stroke="#9a32cd" points="1323.35,-478.69 1330.41,-486.59 1329.81,-476.01 1323.35,-478.69"/>
</a>
</g>
<text text-anchor="middle" x="1296.18" y="-346.5" font-family="Helvetica,sans-Serif" font-size="10.00" fill="grey"> obj</text>
<text text-anchor="middle" x="1296.18" y="-334.5" font-family="Helvetica,sans-Serif" font-size="10.00" fill="grey">parent</text>
</g>
<!-- Node6&#45;&gt;Node4 -->
<g id="edge7_Node000004_Node000006" class="edge">
<title>Node6&#45;&gt;Node4</title>
<g id="a_edge7_Node000004_Node000006"><a xlink:title=" ">
<path fill="none" stroke="#9a32cd" stroke-dasharray="5,2" d="M817.35,-331.81C851.47,-318.69 903.59,-297.74 909.68,-290 946.51,-243.2 894.78,-203.93 932.68,-158 946.27,-141.52 968.53,-132.79 987.74,-128.17"/>
<polygon fill="#9a32cd" stroke="#9a32cd" points="816.49,-328.39 808.4,-335.23 818.99,-334.93 816.49,-328.39"/>
</a>
</g>
<text text-anchor="middle" x="953.68" y="-220.5" font-family="Helvetica,sans-Serif" font-size="10.00" fill="grey"> proxyInfo</text>
</g>
<!-- Node6&#45;&gt;Node6 -->
<g id="edge10_Node000006_Node000006" class="edge">
<title>Node6&#45;&gt;Node6</title>
<g id="a_edge10_Node000006_Node000006"><a xlink:title=" ">
<path fill="none" stroke="#9a32cd" stroke-dasharray="5,2" d="M805.51,-360.07C815.43,-363.07 824.55,-357.71 824.55,-344 824.55,-325.72 808.33,-322.29 795.65,-333.72"/>
<polygon fill="#9a32cd" stroke="#9a32cd" points="807.35,-357.09 796.95,-355.05 803.81,-363.13 807.35,-357.09"/>
</a>
</g>
<text text-anchor="middle" x="845.55" y="-340.5" font-family="Helvetica,sans-Serif" font-size="10.00" fill="grey"> proxyInfo</text>
</g>
<!-- Node6&#45;&gt;Node10 -->
<g id="edge18_Node000010_Node000006" class="edge">
<title>Node6&#45;&gt;Node10</title>
<g id="a_edge18_Node000010_Node000006"><a xlink:title=" ">
<path fill="none" stroke="#9a32cd" stroke-dasharray="5,2" d="M812.91,-326.95C824.95,-317.76 838.12,-305.05 844.68,-290 868.11,-236.22 874.6,-208.46 844.68,-158 837.57,-146.02 824.76,-137.87 812.45,-132.47"/>
<polygon fill="#9a32cd" stroke="#9a32cd" points="811,-324.02 804.89,-332.67 815.06,-329.72 811,-324.02"/>
</a>
</g>
<text text-anchor="middle" x="885.68" y="-220.5" font-family="Helvetica,sans-Serif" font-size="10.00" fill="grey"> proxyInfo</text>
</g>
<!-- Node6&#45;&gt;Node11 -->
<g id="edge29_Node000011_Node000006" class="edge">
<title>Node6&#45;&gt;Node11</title>
<g id="a_edge29_Node000011_Node000006"><a xlink:title=" ">
<path fill="none" stroke="#9a32cd" stroke-dasharray="5,2" d="M774.14,-325.07C768.69,-318.9 761.97,-312.43 754.68,-308 729.8,-292.86 712.89,-309.95 691.68,-290 685.55,-284.23 646.73,-166.12 635.64,-132.1"/>
<polygon fill="#9a32cd" stroke="#9a32cd" points="771.14,-326.93 780.18,-332.46 776.56,-322.5 771.14,-326.93"/>
</a>
</g>
<text text-anchor="middle" x="712.68" y="-220.5" font-family="Helvetica,sans-Serif" font-size="10.00" fill="grey"> proxyInfo</text>
</g>
<!-- Node7 -->
<g id="Node000007" class="node">
<title>Node7</title>
<g id="a_Node000007"><a xlink:href="../../d4/d04/class_class.html" target="_top" xlink:title="Super root of all classes in Enforce script.">
<polygon fill="white" stroke="#666666" points="570.05,-508 529.3,-508 529.3,-488 570.05,-488 570.05,-508"/>
<text text-anchor="middle" x="549.68" y="-494.5" font-family="Helvetica,sans-Serif" font-size="10.00">Class</text>
</a>
</g>
</g>
<!-- Node7&#45;&gt;Node4 -->
<g id="edge23_Node000004_Node000007" class="edge">
<title>Node7&#45;&gt;Node4</title>
<g id="a_edge23_Node000004_Node000007"><a xlink:title=" ">
<path fill="none" stroke="#9a32cd" stroke-dasharray="5,2" d="M581.78,-495.16C674.98,-489.77 939.55,-474.15 947.68,-470 994.06,-446.33 1004.76,-428.89 1022.68,-380 1056.15,-288.67 1034.07,-166.52 1026.77,-132.27"/>
<polygon fill="#9a32cd" stroke="#9a32cd" points="581.59,-491.66 571.81,-495.73 582,-498.65 581.59,-491.66"/>
</a>
</g>
<text text-anchor="middle" x="1064.3" y="-340.5" font-family="Helvetica,sans-Serif" font-size="10.00" fill="grey"> m_Instance</text>
</g>
<!-- Node7&#45;&gt;Node6 -->
<g id="edge11_Node000006_Node000007" class="edge">
<title>Node7&#45;&gt;Node6</title>
<g id="a_edge11_Node000006_Node000007"><a xlink:title=" ">
<path fill="none" stroke="#9a32cd" stroke-dasharray="5,2" d="M581.31,-489.26C595.56,-484.92 612.17,-478.61 625.68,-470 663.5,-445.87 658.11,-421.33 696.43,-398 719.57,-383.91 731.68,-394.33 754.68,-380 765.45,-373.29 775.07,-362.21 781.1,-354.31"/>
<polygon fill="#9a32cd" stroke="#9a32cd" points="580.62,-485.82 571.95,-491.92 582.53,-492.56 580.62,-485.82"/>
</a>
</g>
<text text-anchor="middle" x="723.3" y="-430.5" font-family="Helvetica,sans-Serif" font-size="10.00" fill="grey"> m_Instance</text>
</g>
<!-- Node7&#45;&gt;Node10 -->
<g id="edge19_Node000010_Node000007" class="edge">
<title>Node7&#45;&gt;Node10</title>
<g id="a_edge19_Node000010_Node000007"><a xlink:title=" ">
<path fill="none" stroke="#9a32cd" stroke-dasharray="5,2" d="M517.61,-495.74C498.93,-493.15 476.74,-486.48 464.68,-470 443.3,-440.77 464.91,-339.69 482.43,-308 529.47,-222.91 556.4,-204.71 641.68,-158 657.99,-149.06 702.66,-138.63 737,-131.49"/>
<polygon fill="#9a32cd" stroke="#9a32cd" points="517.15,-499.21 527.45,-496.74 517.86,-492.24 517.15,-499.21"/>
</a>
</g>
<text text-anchor="middle" x="509.3" y="-340.5" font-family="Helvetica,sans-Serif" font-size="10.00" fill="grey"> m_Instance</text>
</g>
<!-- Node7&#45;&gt;Node11 -->
<g id="edge30_Node000011_Node000007" class="edge">
<title>Node7&#45;&gt;Node11</title>
<g id="a_edge30_Node000011_Node000007"><a xlink:title=" ">
<path fill="none" stroke="#9a32cd" stroke-dasharray="5,2" d="M517.7,-491.37C494.76,-486.85 463.32,-479.66 436.68,-470 352.12,-439.35 302.82,-456.44 255.43,-380 238.57,-352.8 242.56,-337.3 255.43,-308 295.05,-217.78 330.07,-201.09 418.68,-158 472.85,-131.66 542.9,-124.57 587.82,-122.96"/>
<polygon fill="#9a32cd" stroke="#9a32cd" points="516.89,-494.78 527.37,-493.21 518.2,-487.9 516.89,-494.78"/>
</a>
</g>
<text text-anchor="middle" x="282.3" y="-340.5" font-family="Helvetica,sans-Serif" font-size="10.00" fill="grey"> m_Instance</text>
</g>
<!-- Node8 -->
<g id="Node000008" class="node">
<title>Node8</title>
<g id="a_Node000008"><a xlink:href="../../d5/d02/classstring.html" target="_top" xlink:title=" ">
<polygon fill="white" stroke="#666666" points="764.68,-508 724.68,-508 724.68,-488 764.68,-488 764.68,-508"/>
<text text-anchor="middle" x="744.68" y="-494.5" font-family="Helvetica,sans-Serif" font-size="10.00">string</text>
</a>
</g>
</g>
<!-- Node8&#45;&gt;Node4 -->
<g id="edge24_Node000004_Node000008" class="edge">
<title>Node8&#45;&gt;Node4</title>
<g id="a_edge24_Node000004_Node000008"><a xlink:title=" ">
<path fill="none" stroke="#9a32cd" stroke-dasharray="5,2" d="M776.33,-496.14C853.16,-493.79 1044.98,-486.36 1068.68,-470 1129.99,-427.69 1122.04,-381.77 1111.68,-308 1102.03,-239.32 1107.21,-215.67 1068.68,-158 1061.63,-147.45 1050.39,-138.59 1041.04,-132.42"/>
<polygon fill="#9a32cd" stroke="#9a32cd" points="776.43,-492.63 766.54,-496.43 776.64,-499.63 776.43,-492.63"/>
</a>
</g>
<text text-anchor="middle" x="1136.3" y="-340.5" font-family="Helvetica,sans-Serif" font-size="10.00" fill="grey"> m_Test</text>
</g>
<!-- Node8&#45;&gt;Node6 -->
<g id="edge12_Node000006_Node000008" class="edge">
<title>Node8&#45;&gt;Node6</title>
<g id="a_edge12_Node000006_Node000008"><a xlink:title=" ">
<path fill="none" stroke="#9a32cd" stroke-dasharray="5,2" d="M750.36,-476.91C759.78,-443.61 778.26,-378.28 785.08,-354.2"/>
<polygon fill="#9a32cd" stroke="#9a32cd" points="747.01,-475.92 747.65,-486.49 753.74,-477.82 747.01,-475.92"/>
</a>
</g>
<text text-anchor="middle" x="790.3" y="-430.5" font-family="Helvetica,sans-Serif" font-size="10.00" fill="grey"> m_Test</text>
</g>
<!-- Node8&#45;&gt;Node8 -->
<g id="edge13_Node000008_Node000008" class="edge">
<title>Node8&#45;&gt;Node8</title>
<g id="a_edge13_Node000008_Node000008"><a xlink:title=" ">
<path fill="none" stroke="#9a32cd" stroke-dasharray="5,2" d="M770.45,-509.91C777.4,-509.28 782.68,-505.31 782.68,-498 782.68,-487.12 770.98,-483.64 759.5,-487.55"/>
<polygon fill="#9a32cd" stroke="#9a32cd" points="771.38,-506.5 761,-508.65 770.45,-513.44 771.38,-506.5"/>
</a>
</g>
<text text-anchor="middle" x="798.43" y="-494.5" font-family="Helvetica,sans-Serif" font-size="10.00" fill="grey"> Empty</text>
</g>
<!-- Node8&#45;&gt;Node10 -->
<g id="edge20_Node000010_Node000008" class="edge">
<title>Node8&#45;&gt;Node10</title>
<g id="a_edge20_Node000010_Node000008"><a xlink:title=" ">
<path fill="none" stroke="#9a32cd" stroke-dasharray="5,2" d="M740.04,-476.52C735.02,-453.27 727.36,-414.14 724.43,-380 721.69,-348.12 719.72,-339.65 724.43,-308 734.75,-238.6 765.71,-159.21 776.73,-132.4"/>
<polygon fill="#9a32cd" stroke="#9a32cd" points="736.6,-477.18 742.18,-486.19 743.43,-475.67 736.6,-477.18"/>
</a>
</g>
<text text-anchor="middle" x="742.3" y="-340.5" font-family="Helvetica,sans-Serif" font-size="10.00" fill="grey"> m_Test</text>
</g>
<!-- Node8&#45;&gt;Node11 -->
<g id="edge31_Node000011_Node000008" class="edge">
<title>Node8&#45;&gt;Node11</title>
<g id="a_edge31_Node000011_Node000008"><a xlink:title=" ">
<path fill="none" stroke="#9a32cd" stroke-dasharray="5,2" d="M713.31,-495.98C648.46,-493.55 504.4,-486.36 489.68,-470 468.28,-446.21 471.28,-424.18 489.68,-398 503.26,-378.68 523.01,-396.73 539.68,-380 576.64,-342.91 600.17,-206.99 618.68,-158 621.96,-149.31 625.91,-139.49 628.78,-132.47"/>
<polygon fill="#9a32cd" stroke="#9a32cd" points="712.82,-499.47 722.94,-496.33 713.07,-492.47 712.82,-499.47"/>
</a>
</g>
<text text-anchor="middle" x="593.3" y="-340.5" font-family="Helvetica,sans-Serif" font-size="10.00" fill="grey"> m_Test</text>
</g>
<!-- Node9 -->
<g id="Node000009" class="node">
<title>Node9</title>
<g id="a_Node000009"><a xlink:href="../../dd/d0a/class_widget.html" target="_top" xlink:title=" ">
<polygon fill="white" stroke="#666666" points="1073.05,-508 1026.3,-508 1026.3,-488 1073.05,-488 1073.05,-508"/>
<text text-anchor="middle" x="1049.68" y="-494.5" font-family="Helvetica,sans-Serif" font-size="10.00">Widget</text>
</a>
</g>
</g>
<!-- Node9&#45;&gt;Node4 -->
<g id="edge25_Node000004_Node000009" class="edge">
<title>Node9&#45;&gt;Node4</title>
<g id="a_edge25_Node000004_Node000009"><a xlink:title=" ">
<path fill="none" stroke="#9a32cd" stroke-dasharray="5,2" d="M1084.66,-495.65C1121.45,-493.34 1180.57,-487.06 1228.68,-470 1303.04,-443.64 1342.51,-448.48 1381.68,-380 1397.57,-352.22 1394.07,-337.5 1381.68,-308 1344.8,-220.2 1314.66,-198.95 1228.68,-158 1164.87,-127.61 1139.43,-156.37 1070.68,-140 1062.73,-138.11 1054.27,-135.24 1046.81,-132.4"/>
<polygon fill="#9a32cd" stroke="#9a32cd" points="1084.84,-492.14 1075.05,-496.19 1085.23,-499.13 1084.84,-492.14"/>
</a>
</g>
<text text-anchor="middle" x="1410.05" y="-340.5" font-family="Helvetica,sans-Serif" font-size="10.00" fill="grey"> m_Root</text>
</g>
<!-- Node9&#45;&gt;Node6 -->
<g id="edge14_Node000006_Node000009" class="edge">
<title>Node9&#45;&gt;Node6</title>
<g id="a_edge14_Node000006_Node000009"><a xlink:title=" ">
<path fill="none" stroke="#9a32cd" stroke-dasharray="5,2" d="M1014.75,-497.08C960.61,-496.48 859.89,-492.3 832.93,-470 807.02,-448.56 821.3,-429.55 809.68,-398 803.96,-382.48 796.41,-364.8 791.81,-354.29"/>
<polygon fill="#9a32cd" stroke="#9a32cd" points="1014.64,-500.58 1024.66,-497.15 1014.69,-493.58 1014.64,-500.58"/>
</a>
</g>
<text text-anchor="middle" x="852.05" y="-430.5" font-family="Helvetica,sans-Serif" font-size="10.00" fill="grey"> m_Root</text>
</g>
<!-- Node9&#45;&gt;Node10 -->
<g id="edge21_Node000010_Node000009" class="edge">
<title>Node9&#45;&gt;Node10</title>
<g id="a_edge21_Node000010_Node000009"><a xlink:title=" ">
<path fill="none" stroke="#9a32cd" stroke-dasharray="5,2" d="M1084.45,-497C1108.06,-495.14 1138.38,-488.81 1157.68,-470 1209.86,-419.16 1215.57,-373.01 1182.68,-308 1131.87,-207.58 1082.14,-202.29 978.68,-158 928.46,-136.5 865.64,-128.21 824.4,-125.01"/>
<polygon fill="#9a32cd" stroke="#9a32cd" points="1084.46,-493.5 1074.66,-497.52 1084.83,-500.49 1084.46,-493.5"/>
</a>
</g>
<text text-anchor="middle" x="1221.05" y="-340.5" font-family="Helvetica,sans-Serif" font-size="10.00" fill="grey"> m_Root</text>
</g>
<!-- Node9&#45;&gt;Node11 -->
<g id="edge32_Node000011_Node000009" class="edge">
<title>Node9&#45;&gt;Node11</title>
<g id="a_edge32_Node000011_Node000009"><a xlink:title=" ">
<path fill="none" stroke="#9a32cd" stroke-dasharray="5,2" d="M1014.75,-495.85C941.12,-493.13 775.06,-485.35 754.68,-470 727.25,-449.34 750.91,-422.33 726.68,-398 711.26,-382.52 696.29,-395.54 680.93,-380 650.84,-349.57 656.17,-331.73 646.68,-290 633.26,-230.99 632.4,-157.63 632.56,-132.19"/>
<polygon fill="#9a32cd" stroke="#9a32cd" points="1014.51,-499.34 1024.63,-496.2 1014.76,-492.35 1014.51,-499.34"/>
</a>
</g>
<text text-anchor="middle" x="700.05" y="-340.5" font-family="Helvetica,sans-Serif" font-size="10.00" fill="grey"> m_Root</text>
</g>
<!-- Node10&#45;&gt;Node6 -->
<g id="edge15_Node000006_Node000010" class="edge">
<title>Node10&#45;&gt;Node6</title>
<g id="a_edge15_Node000006_Node000010"><a xlink:title=" ">
<path fill="none" stroke="#9a32cd" stroke-dasharray="5,2" d="M780.1,-143.63C779.36,-175.19 778.55,-237.34 781.68,-290 782.59,-305.34 784.84,-323.07 786.31,-333.64"/>
<polygon fill="#9a32cd" stroke="#9a32cd" points="783.59,-144.03 780.34,-133.94 776.59,-143.85 783.59,-144.03"/>
</a>
</g>
<text text-anchor="middle" x="813.18" y="-220.5" font-family="Helvetica,sans-Serif" font-size="10.00" fill="grey"> m_Subgroups</text>
</g>
<!-- Node10&#45;&gt;Node10 -->
<g id="edge22_Node000010_Node000010" class="edge">
<title>Node10&#45;&gt;Node10</title>
<g id="a_edge22_Node000010_Node000010"><a xlink:title=" ">
<path fill="none" stroke="#9a32cd" stroke-dasharray="5,2" d="M819.77,-133.24C832.15,-133.09 841.93,-129.34 841.93,-122 841.93,-112.51 825.58,-109.02 808.4,-111.54"/>
<polygon fill="#9a32cd" stroke="#9a32cd" points="820.12,-129.76 809.91,-132.56 819.64,-136.74 820.12,-129.76"/>
</a>
</g>
<text text-anchor="middle" x="873.43" y="-118.5" font-family="Helvetica,sans-Serif" font-size="10.00" fill="grey"> m_Subgroups</text>
</g>
<!-- Node11&#45;&gt;Node1 -->
<g id="edge26_Node000001_Node000011" class="edge">
<title>Node11&#45;&gt;Node1</title>
<g id="a_edge26_Node000001_Node000011"><a xlink:title=" ">
<path fill="none" stroke="#9a32cd" stroke-dasharray="5,2" d="M672.22,-108.01C723.01,-91.4 813.96,-61.92 892.18,-38 912.98,-31.64 936.5,-24.78 954.63,-19.56"/>
<polygon fill="#9a32cd" stroke="#9a32cd" points="671.26,-104.64 662.84,-111.08 673.44,-111.29 671.26,-104.64"/>
</a>
</g>
<text text-anchor="middle" x="932.93" y="-58.5" font-family="Helvetica,sans-Serif" font-size="10.00" fill="grey"> m_VignetteEffects</text>
</g>
<!-- Node12 -->
<g id="Node000012" class="node">
<title>Node12</title>
<g id="a_Node000012"><a xlink:href="../../dc/d0e/class_material.html" target="_top" xlink:title=" ">
<polygon fill="white" stroke="#666666" points="1244.93,-132 1194.43,-132 1194.43,-112 1244.93,-112 1244.93,-132"/>
<text text-anchor="middle" x="1219.68" y="-118.5" font-family="Helvetica,sans-Serif" font-size="10.00">Material</text>
</a>
</g>
</g>
<!-- Node12&#45;&gt;Node1 -->
<g id="edge33_Node000001_Node000012" class="edge">
<title>Node12&#45;&gt;Node1</title>
<g id="a_edge33_Node000001_Node000012"><a xlink:title=" ">
<path fill="none" stroke="#9a32cd" stroke-dasharray="5,2" d="M1217.64,-100.58C1214.57,-81.3 1206.88,-53.14 1187.68,-38 1161.5,-17.37 1064.77,-12.47 1014.88,-11.33"/>
<polygon fill="#9a32cd" stroke="#9a32cd" points="1214.14,-100.77 1218.88,-110.25 1221.08,-99.88 1214.14,-100.77"/>
</a>
</g>
<text text-anchor="middle" x="1244.05" y="-64.5" font-family="Helvetica,sans-Serif" font-size="10.00" fill="grey"> m_MatColors</text>
<text text-anchor="middle" x="1244.05" y="-52.5" font-family="Helvetica,sans-Serif" font-size="10.00" fill="grey">m_RadialBlur</text>
</g>
</g>
</svg>
