<?xml version="1.0" encoding="UTF-8" standalone="no"?>
<!DOCTYPE svg PUBLIC "-//W3C//DTD SVG 1.1//EN"
 "http://www.w3.org/Graphics/SVG/1.1/DTD/svg11.dtd">
<!-- Generated by graphviz version 11.0.0 (20240428.1522)
 -->
<!-- Title: DestroyItemInCorpsesHandsAndCreateNewOnGndLambda Pages: 1 -->
<svg width="167pt" height="220pt"
 viewBox="0.00 0.00 167.25 220.00" xmlns="http://www.w3.org/2000/svg" xmlns:xlink="http://www.w3.org/1999/xlink">
<g id="graph0" class="graph" transform="scale(1 1) rotate(0) translate(4 216)">
<title>DestroyItemInCorpsesHandsAndCreateNewOnGndLambda</title>
<!-- Node1 -->
<g id="Node000001" class="node">
<title>Node1</title>
<g id="a_Node000001"><a xlink:title=" ">
<polygon fill="#999999" stroke="#666666" points="152.5,-88 6.75,-88 6.75,-56 152.5,-56 152.5,-88"/>
<text text-anchor="start" x="14.75" y="-74.5" font-family="Helvetica,sans-Serif" font-size="10.00">DestroyItemInCorpsesHands</text>
<text text-anchor="middle" x="79.62" y="-62.5" font-family="Helvetica,sans-Serif" font-size="10.00">AndCreateNewOnGndLambda</text>
</a>
</g>
</g>
<!-- Node4 -->
<g id="Node000004" class="node">
<title>Node4</title>
<g id="a_Node000004"><a xlink:href="../../dd/d07/class_chained_drop_and_restrain_lambda.html" target="_top" xlink:title=" ">
<polygon fill="white" stroke="#666666" points="159.25,-20 0,-20 0,0 159.25,0 159.25,-20"/>
<text text-anchor="middle" x="79.62" y="-6.5" font-family="Helvetica,sans-Serif" font-size="10.00">ChainedDropAndRestrainLambda</text>
</a>
</g>
</g>
<!-- Node1&#45;&gt;Node4 -->
<g id="edge3_Node000001_Node000004" class="edge">
<title>Node1&#45;&gt;Node4</title>
<g id="a_edge3_Node000001_Node000004"><a xlink:title=" ">
<path fill="none" stroke="#8b1a1a" d="M79.62,-44.08C79.62,-35.6 79.62,-26.8 79.62,-20.41"/>
<polygon fill="#8b1a1a" stroke="#8b1a1a" points="76.13,-44.03 79.63,-54.03 83.13,-44.03 76.13,-44.03"/>
</a>
</g>
</g>
<!-- Node2 -->
<g id="Node000002" class="node">
<title>Node2</title>
<g id="a_Node000002"><a xlink:href="../../d3/d07/class_replace_and_destroy_lambda.html" target="_top" xlink:title=" ">
<polygon fill="white" stroke="#666666" points="148,-144 11.25,-144 11.25,-124 148,-124 148,-144"/>
<text text-anchor="middle" x="79.62" y="-130.5" font-family="Helvetica,sans-Serif" font-size="10.00">ReplaceAndDestroyLambda</text>
</a>
</g>
</g>
<!-- Node2&#45;&gt;Node1 -->
<g id="edge1_Node000001_Node000002" class="edge">
<title>Node2&#45;&gt;Node1</title>
<g id="a_edge1_Node000001_Node000002"><a xlink:title=" ">
<path fill="none" stroke="#8b1a1a" d="M79.62,-112.31C79.62,-104.37 79.62,-95.46 79.62,-88.14"/>
<polygon fill="#8b1a1a" stroke="#8b1a1a" points="76.13,-112.11 79.63,-122.11 83.13,-112.11 76.13,-112.11"/>
</a>
</g>
</g>
<!-- Node3 -->
<g id="Node000003" class="node">
<title>Node3</title>
<g id="a_Node000003"><a xlink:title=" ">
<polygon fill="white" stroke="#666666" points="152.12,-212 7.12,-212 7.12,-180 152.12,-180 152.12,-212"/>
<text text-anchor="start" x="15.12" y="-198.5" font-family="Helvetica,sans-Serif" font-size="10.00">TurnItemIntoItemLambdaAnim</text>
<text text-anchor="middle" x="79.62" y="-186.5" font-family="Helvetica,sans-Serif" font-size="10.00">SysNotifyLambda</text>
</a>
</g>
</g>
<!-- Node3&#45;&gt;Node2 -->
<g id="edge2_Node000002_Node000003" class="edge">
<title>Node3&#45;&gt;Node2</title>
<g id="a_edge2_Node000002_Node000003"><a xlink:title=" ">
<path fill="none" stroke="#8b1a1a" d="M79.62,-168.08C79.62,-159.6 79.62,-150.8 79.62,-144.41"/>
<polygon fill="#8b1a1a" stroke="#8b1a1a" points="76.13,-168.03 79.63,-178.03 83.13,-168.03 76.13,-168.03"/>
</a>
</g>
</g>
</g>
</svg>
