<?xml version="1.0" encoding="UTF-8" standalone="no"?>
<!DOCTYPE svg PUBLIC "-//W3C//DTD SVG 1.1//EN"
 "http://www.w3.org/Graphics/SVG/1.1/DTD/svg11.dtd">
<!-- Generated by graphviz version 11.0.0 (20240428.1522)
 -->
<!-- Title: HumanItemBehaviorCfg Pages: 1 -->
<svg width="430pt" height="233pt"
 viewBox="0.00 0.00 429.62 233.26" xmlns="http://www.w3.org/2000/svg" xmlns:xlink="http://www.w3.org/1999/xlink">
<g id="graph0" class="graph" transform="scale(1 1) rotate(0) translate(4 229.26)">
<title>HumanItemBehaviorCfg</title>
<!-- Node1 -->
<g id="Node000001" class="node">
<title>Node1</title>
<g id="a_Node000001"><a xlink:title=" ">
<polygon fill="#999999" stroke="#666666" points="230.12,-20 113.62,-20 113.62,0 230.12,0 230.12,-20"/>
<text text-anchor="middle" x="171.88" y="-6.5" font-family="Helvetica,sans-Serif" font-size="10.00">HumanItemBehaviorCfg</text>
</a>
</g>
</g>
<!-- Node2 -->
<g id="Node000002" class="node">
<title>Node2</title>
<g id="a_Node000002"><a xlink:href="../../db/d06/class_param3.html" target="_top" xlink:title=" ">
<polygon fill="white" stroke="#666666" points="49.75,-216 0,-216 0,-196 49.75,-196 49.75,-216"/>
<text text-anchor="middle" x="24.88" y="-202.5" font-family="Helvetica,sans-Serif" font-size="10.00">Param3</text>
</a>
</g>
</g>
<!-- Node2&#45;&gt;Node1 -->
<g id="edge1_Node000001_Node000002" class="edge">
<title>Node2&#45;&gt;Node1</title>
<g id="a_edge1_Node000001_Node000002"><a xlink:title=" ">
<path fill="none" stroke="#9a32cd" stroke-dasharray="5,2" d="M20.4,-184.45C14.11,-149.56 7.2,-78.55 44.12,-38 53.66,-27.52 84.35,-20.84 113.25,-16.75"/>
<polygon fill="#9a32cd" stroke="#9a32cd" points="16.93,-184.94 22.31,-194.07 23.8,-183.58 16.93,-184.94"/>
</a>
</g>
<text text-anchor="middle" x="106.75" y="-160.5" font-family="Helvetica,sans-Serif" font-size="10.00" fill="grey"> IKSETTING_AIMING</text>
<text text-anchor="middle" x="106.75" y="-148.5" font-family="Helvetica,sans-Serif" font-size="10.00" fill="grey">IKSETTING_LHAND</text>
<text text-anchor="middle" x="106.75" y="-136.5" font-family="Helvetica,sans-Serif" font-size="10.00" fill="grey">IKSETTING_RHAND</text>
<text text-anchor="middle" x="106.75" y="-124.5" font-family="Helvetica,sans-Serif" font-size="10.00" fill="grey">m_IKSettings</text>
<text text-anchor="middle" x="106.75" y="-112.5" font-family="Helvetica,sans-Serif" font-size="10.00" fill="grey">m_IKSettingsMelee</text>
<text text-anchor="middle" x="106.75" y="-100.5" font-family="Helvetica,sans-Serif" font-size="10.00" fill="grey">m_StanceMovements</text>
<text text-anchor="middle" x="106.75" y="-88.5" font-family="Helvetica,sans-Serif" font-size="10.00" fill="grey">m_StanceRotation</text>
<text text-anchor="middle" x="106.75" y="-76.5" font-family="Helvetica,sans-Serif" font-size="10.00" fill="grey">m_iPerItemCameraUserData</text>
<text text-anchor="middle" x="106.75" y="-64.5" font-family="Helvetica,sans-Serif" font-size="10.00" fill="grey">m_iStanceMask</text>
<text text-anchor="middle" x="106.75" y="-52.5" font-family="Helvetica,sans-Serif" font-size="10.00" fill="grey">m_iType</text>
<text text-anchor="middle" x="106.75" y="-40.5" font-family="Helvetica,sans-Serif" font-size="10.00" fill="grey">...</text>
</g>
<!-- Node3 -->
<g id="Node000003" class="node">
<title>Node3</title>
<g id="a_Node000003"><a xlink:href="../../d4/d03/classfloat.html" target="_top" xlink:title=" ">
<polygon fill="white" stroke="#666666" points="188.88,-216 154.88,-216 154.88,-196 188.88,-196 188.88,-216"/>
<text text-anchor="middle" x="171.88" y="-202.5" font-family="Helvetica,sans-Serif" font-size="10.00">float</text>
</a>
</g>
</g>
<!-- Node3&#45;&gt;Node1 -->
<g id="edge2_Node000001_Node000003" class="edge">
<title>Node3&#45;&gt;Node1</title>
<g id="a_edge2_Node000001_Node000003"><a xlink:title=" ">
<path fill="none" stroke="#9a32cd" stroke-dasharray="5,2" d="M171.88,-184.23C171.88,-142.48 171.88,-49.83 171.88,-20.26"/>
<polygon fill="#9a32cd" stroke="#9a32cd" points="168.38,-184.13 171.88,-194.13 175.38,-184.13 168.38,-184.13"/>
</a>
</g>
<text text-anchor="start" x="171.88" y="-142.5" font-family="Helvetica,sans-Serif" font-size="10.00" fill="grey"> m_fMeleeEvadeHeadingFilter</text>
<text text-anchor="middle" x="243.5" y="-130.5" font-family="Helvetica,sans-Serif" font-size="10.00" fill="grey">Span</text>
<text text-anchor="start" x="171.88" y="-118.5" font-family="Helvetica,sans-Serif" font-size="10.00" fill="grey">m_fMeleeEvadeHeadingFilter</text>
<text text-anchor="middle" x="243.5" y="-106.5" font-family="Helvetica,sans-Serif" font-size="10.00" fill="grey">Speed</text>
<text text-anchor="middle" x="243.5" y="-94.5" font-family="Helvetica,sans-Serif" font-size="10.00" fill="grey">m_fMoveHeadingFilterSpan</text>
<text text-anchor="middle" x="243.5" y="-82.5" font-family="Helvetica,sans-Serif" font-size="10.00" fill="grey">m_fMoveHeadingFilterSpeed</text>
<text text-anchor="middle" x="243.5" y="-70.5" font-family="Helvetica,sans-Serif" font-size="10.00" fill="grey">m_fMoveHeadingProneFilterSpan</text>
<text text-anchor="middle" x="243.5" y="-58.5" font-family="Helvetica,sans-Serif" font-size="10.00" fill="grey">m_fMoveHeadingSprintFilterSpan</text>
</g>
<!-- Node3&#45;&gt;Node3 -->
<g id="edge3_Node000003_Node000003" class="edge">
<title>Node3&#45;&gt;Node3</title>
<g id="a_edge3_Node000003_Node000003"><a xlink:title=" ">
<path fill="none" stroke="#9a32cd" stroke-dasharray="5,2" d="M187.38,-223.63C197.32,-228.2 206.88,-222.32 206.88,-206 206.88,-184.68 190.57,-181.19 178.4,-195.51"/>
<polygon fill="#9a32cd" stroke="#9a32cd" points="189.6,-220.92 179.59,-217.43 185.24,-226.4 189.6,-220.92"/>
</a>
</g>
<text text-anchor="middle" x="229" y="-214.5" font-family="Helvetica,sans-Serif" font-size="10.00" fill="grey"> LOWEST</text>
<text text-anchor="middle" x="229" y="-202.5" font-family="Helvetica,sans-Serif" font-size="10.00" fill="grey">MAX</text>
<text text-anchor="middle" x="229" y="-190.5" font-family="Helvetica,sans-Serif" font-size="10.00" fill="grey">MIN</text>
</g>
<!-- Node4 -->
<g id="Node000004" class="node">
<title>Node4</title>
<g id="a_Node000004"><a xlink:href="../../d9/d09/classbool.html" target="_top" xlink:title=" ">
<polygon fill="white" stroke="#666666" points="354.88,-216 320.88,-216 320.88,-196 354.88,-196 354.88,-216"/>
<text text-anchor="middle" x="337.88" y="-202.5" font-family="Helvetica,sans-Serif" font-size="10.00">bool</text>
</a>
</g>
</g>
<!-- Node4&#45;&gt;Node1 -->
<g id="edge4_Node000001_Node000004" class="edge">
<title>Node4&#45;&gt;Node1</title>
<g id="a_edge4_Node000001_Node000004"><a xlink:title=" ">
<path fill="none" stroke="#9a32cd" stroke-dasharray="5,2" d="M341.97,-184.81C347.77,-149.89 353.84,-78.09 315.88,-38 304.11,-25.58 264.96,-18.76 230.45,-15.08"/>
<polygon fill="#9a32cd" stroke="#9a32cd" points="338.57,-183.93 340.2,-194.4 345.46,-185.2 338.57,-183.93"/>
</a>
</g>
<text text-anchor="middle" x="383.75" y="-112.5" font-family="Helvetica,sans-Serif" font-size="10.00" fill="grey"> m_bAttackLean</text>
<text text-anchor="middle" x="383.75" y="-100.5" font-family="Helvetica,sans-Serif" font-size="10.00" fill="grey">m_bJumpAllowed</text>
<text text-anchor="middle" x="383.75" y="-88.5" font-family="Helvetica,sans-Serif" font-size="10.00" fill="grey">m_bPlaceholder</text>
</g>
</g>
</svg>
