<?xml version="1.0" encoding="UTF-8" standalone="no"?>
<!DOCTYPE svg PUBLIC "-//W3C//DTD SVG 1.1//EN"
 "http://www.w3.org/Graphics/SVG/1.1/DTD/svg11.dtd">
<!-- Generated by graphviz version 11.0.0 (20240428.1522)
 -->
<!-- Title: BushSoft Pages: 1 -->
<svg width="370pt" height="332pt"
 viewBox="0.00 0.00 370.25 332.00" xmlns="http://www.w3.org/2000/svg" xmlns:xlink="http://www.w3.org/1999/xlink">

<svg id="main" version="1.1" xmlns="http://www.w3.org/2000/svg" xmlns:xlink="http://www.w3.org/1999/xlink" xml:space="preserve" onload="init(evt)">
<style type="text/css"><![CDATA[
.node, .edge {opacity: 0.7;}
.node.selected, .edge.selected {opacity: 1;}
.edge:hover path { stroke: red; }
.edge:hover polygon { stroke: red; fill: red; }
]]></style>
<script type="application/ecmascript" xlink:href="../../svg.min.js"/>
<svg id="graph" class="graph">
<g id="graph0" class="graph" transform="scale(1 1) rotate(0) translate(4 328)">
<title>BushSoft</title>
<!-- Node1 -->
<g id="Node000001" class="node">
<title>Node1</title>
<g id="a_Node000001"><a xlink:title="For specific tree declaration see description of TreeHard.">
<polygon fill="#999999" stroke="#666666" points="155.75,-172 100,-172 100,-152 155.75,-152 155.75,-172"/>
<text text-anchor="middle" x="127.88" y="-158.5" font-family="Helvetica,sans-Serif" font-size="10.00">BushSoft</text>
</a>
</g>
</g>
<!-- Node3 -->
<g id="Node000003" class="node">
<title>Node3</title>
<g id="a_Node000003"><a xlink:href="../../d7/d05/class_bush_soft__b___picea_abies__1f.html" target="_top" xlink:title=" ">
<polygon fill="white" stroke="#666666" points="343.88,-324 210.12,-324 210.12,-304 343.88,-304 343.88,-324"/>
<text text-anchor="middle" x="277" y="-310.5" font-family="Helvetica,sans-Serif" font-size="10.00">BushSoft_b_PiceaAbies_1f</text>
</a>
</g>
</g>
<!-- Node1&#45;&gt;Node3 -->
<g id="edge2_Node000001_Node000003" class="edge">
<title>Node1&#45;&gt;Node3</title>
<g id="a_edge2_Node000001_Node000003"><a xlink:title=" ">
<path fill="none" stroke="#8b1a1a" d="M132.89,-183.35C139.64,-213.08 156.17,-266.49 191.75,-295 197.13,-299.31 203.3,-302.69 209.8,-305.33"/>
<polygon fill="#8b1a1a" stroke="#8b1a1a" points="136.34,-182.76 130.88,-173.68 129.49,-184.19 136.34,-182.76"/>
</a>
</g>
</g>
<!-- Node4 -->
<g id="Node000004" class="node">
<title>Node4</title>
<g id="a_Node000004"><a xlink:href="../../d5/d09/class_bush_soft__b__betula_humilis__1s.html" target="_top" xlink:title=" ">
<polygon fill="white" stroke="#666666" points="349.88,-286 204.12,-286 204.12,-266 349.88,-266 349.88,-286"/>
<text text-anchor="middle" x="277" y="-272.5" font-family="Helvetica,sans-Serif" font-size="10.00">BushSoft_b_betulaHumilis_1s</text>
</a>
</g>
</g>
<!-- Node1&#45;&gt;Node4 -->
<g id="edge3_Node000001_Node000004" class="edge">
<title>Node1&#45;&gt;Node4</title>
<g id="a_edge3_Node000001_Node000004"><a xlink:title=" ">
<path fill="none" stroke="#8b1a1a" d="M137.13,-183.01C146.85,-204.94 165.12,-238.62 191.75,-257 196.69,-260.41 202.14,-263.21 207.82,-265.52"/>
<polygon fill="#8b1a1a" stroke="#8b1a1a" points="140.39,-181.76 133.3,-173.89 133.94,-184.46 140.39,-181.76"/>
</a>
</g>
</g>
<!-- Node5 -->
<g id="Node000005" class="node">
<title>Node5</title>
<g id="a_Node000005"><a xlink:href="../../d9/d05/class_bush_soft__b__corylus_avellana__1f.html" target="_top" xlink:title=" ">
<polygon fill="white" stroke="#666666" points="352.88,-248 201.12,-248 201.12,-228 352.88,-228 352.88,-248"/>
<text text-anchor="middle" x="277" y="-234.5" font-family="Helvetica,sans-Serif" font-size="10.00">BushSoft_b_corylusAvellana_1f</text>
</a>
</g>
</g>
<!-- Node1&#45;&gt;Node5 -->
<g id="edge4_Node000001_Node000005" class="edge">
<title>Node1&#45;&gt;Node5</title>
<g id="a_edge4_Node000001_Node000005"><a xlink:title=" ">
<path fill="none" stroke="#8b1a1a" d="M144.63,-180.64C156.35,-193.33 173.44,-209.49 191.75,-219 198.4,-222.46 205.67,-225.29 213.06,-227.6"/>
<polygon fill="#8b1a1a" stroke="#8b1a1a" points="147.36,-178.45 138.1,-173.29 142.12,-183.09 147.36,-178.45"/>
</a>
</g>
</g>
<!-- Node6 -->
<g id="Node000006" class="node">
<title>Node6</title>
<g id="a_Node000006"><a xlink:href="../../d0/d0c/class_bush_soft__b__crataegus_laevigata__1s.html" target="_top" xlink:title=" ">
<polygon fill="white" stroke="#666666" points="362.25,-210 191.75,-210 191.75,-190 362.25,-190 362.25,-210"/>
<text text-anchor="middle" x="277" y="-196.5" font-family="Helvetica,sans-Serif" font-size="10.00">BushSoft_b_crataegusLaevigata_1s</text>
</a>
</g>
</g>
<!-- Node1&#45;&gt;Node6 -->
<g id="edge5_Node000001_Node000006" class="edge">
<title>Node1&#45;&gt;Node6</title>
<g id="a_edge5_Node000001_Node000006"><a xlink:title=" ">
<path fill="none" stroke="#8b1a1a" d="M166.8,-173.94C175,-176.38 183.64,-178.86 191.75,-181 203.06,-183.98 215.3,-186.91 226.85,-189.54"/>
<polygon fill="#8b1a1a" stroke="#8b1a1a" points="168.02,-170.65 157.44,-171.1 165.99,-177.35 168.02,-170.65"/>
</a>
</g>
</g>
<!-- Node7 -->
<g id="Node000007" class="node">
<title>Node7</title>
<g id="a_Node000007"><a xlink:href="../../da/d09/class_bush_soft__b__quercus_robur__1f.html" target="_top" xlink:title=" ">
<polygon fill="white" stroke="#666666" points="349.12,-172 204.88,-172 204.88,-152 349.12,-152 349.12,-172"/>
<text text-anchor="middle" x="277" y="-158.5" font-family="Helvetica,sans-Serif" font-size="10.00">BushSoft_b_quercusRobur_1f</text>
</a>
</g>
</g>
<!-- Node1&#45;&gt;Node7 -->
<g id="edge6_Node000001_Node000007" class="edge">
<title>Node1&#45;&gt;Node7</title>
<g id="a_edge6_Node000001_Node000007"><a xlink:title=" ">
<path fill="none" stroke="#8b1a1a" d="M167.46,-162C178.83,-162 191.66,-162 204.4,-162"/>
<polygon fill="#8b1a1a" stroke="#8b1a1a" points="167.72,-158.5 157.72,-162 167.72,-165.5 167.72,-158.5"/>
</a>
</g>
</g>
<!-- Node8 -->
<g id="Node000008" class="node">
<title>Node8</title>
<g id="a_Node000008"><a xlink:href="../../d1/d0b/class_bush_soft__b__rosa_canina__1s.html" target="_top" xlink:title=" ">
<polygon fill="white" stroke="#666666" points="345,-134 209,-134 209,-114 345,-114 345,-134"/>
<text text-anchor="middle" x="277" y="-120.5" font-family="Helvetica,sans-Serif" font-size="10.00">BushSoft_b_rosaCanina_1s</text>
</a>
</g>
</g>
<!-- Node1&#45;&gt;Node8 -->
<g id="edge7_Node000001_Node000008" class="edge">
<title>Node1&#45;&gt;Node8</title>
<g id="a_edge7_Node000001_Node000008"><a xlink:title=" ">
<path fill="none" stroke="#8b1a1a" d="M166.8,-150.06C175,-147.62 183.64,-145.14 191.75,-143 203.06,-140.02 215.3,-137.09 226.85,-134.46"/>
<polygon fill="#8b1a1a" stroke="#8b1a1a" points="165.99,-146.65 157.44,-152.9 168.02,-153.35 165.99,-146.65"/>
</a>
</g>
</g>
<!-- Node9 -->
<g id="Node000009" class="node">
<title>Node9</title>
<g id="a_Node000009"><a xlink:href="../../d5/d07/class_bush_soft__b__rosa_canina__2s.html" target="_top" xlink:title=" ">
<polygon fill="white" stroke="#666666" points="345,-96 209,-96 209,-76 345,-76 345,-96"/>
<text text-anchor="middle" x="277" y="-82.5" font-family="Helvetica,sans-Serif" font-size="10.00">BushSoft_b_rosaCanina_2s</text>
</a>
</g>
</g>
<!-- Node1&#45;&gt;Node9 -->
<g id="edge8_Node000001_Node000009" class="edge">
<title>Node1&#45;&gt;Node9</title>
<g id="a_edge8_Node000001_Node000009"><a xlink:title=" ">
<path fill="none" stroke="#8b1a1a" d="M144.63,-143.36C156.35,-130.67 173.44,-114.51 191.75,-105 198.4,-101.54 205.67,-98.71 213.06,-96.4"/>
<polygon fill="#8b1a1a" stroke="#8b1a1a" points="142.12,-140.91 138.1,-150.71 147.36,-145.55 142.12,-140.91"/>
</a>
</g>
</g>
<!-- Node10 -->
<g id="Node000010" class="node">
<title>Node10</title>
<g id="a_Node000010"><a xlink:href="../../df/d04/class_bush_soft__b__sambucus_nigra__1s.html" target="_top" xlink:title=" ">
<polygon fill="white" stroke="#666666" points="354.38,-58 199.62,-58 199.62,-38 354.38,-38 354.38,-58"/>
<text text-anchor="middle" x="277" y="-44.5" font-family="Helvetica,sans-Serif" font-size="10.00">BushSoft_b_sambucusNigra_1s</text>
</a>
</g>
</g>
<!-- Node1&#45;&gt;Node10 -->
<g id="edge9_Node000001_Node000010" class="edge">
<title>Node1&#45;&gt;Node10</title>
<g id="a_edge9_Node000001_Node000010"><a xlink:title=" ">
<path fill="none" stroke="#8b1a1a" d="M137.13,-140.99C146.85,-119.06 165.12,-85.38 191.75,-67 196.69,-63.59 202.14,-60.79 207.82,-58.48"/>
<polygon fill="#8b1a1a" stroke="#8b1a1a" points="133.94,-139.54 133.3,-150.11 140.39,-142.24 133.94,-139.54"/>
</a>
</g>
</g>
<!-- Node11 -->
<g id="Node000011" class="node">
<title>Node11</title>
<g id="a_Node000011"><a xlink:href="../../d9/d03/class_bush_soft__t___pinus_sylvestris__1s.html" target="_top" xlink:title=" ">
<polygon fill="white" stroke="#666666" points="352.88,-20 201.12,-20 201.12,0 352.88,0 352.88,-20"/>
<text text-anchor="middle" x="277" y="-6.5" font-family="Helvetica,sans-Serif" font-size="10.00">BushSoft_t_PinusSylvestris_1s</text>
</a>
</g>
</g>
<!-- Node1&#45;&gt;Node11 -->
<g id="edge10_Node000001_Node000011" class="edge">
<title>Node1&#45;&gt;Node11</title>
<g id="a_edge10_Node000001_Node000011"><a xlink:title=" ">
<path fill="none" stroke="#8b1a1a" d="M132.89,-140.65C139.64,-110.92 156.17,-57.51 191.75,-29 196.08,-25.53 200.92,-22.67 206.03,-20.31"/>
<polygon fill="#8b1a1a" stroke="#8b1a1a" points="129.49,-139.81 130.88,-150.32 136.34,-141.24 129.49,-139.81"/>
</a>
</g>
</g>
<!-- Node2 -->
<g id="Node000002" class="node">
<title>Node2</title>
<g id="a_Node000002"><a xlink:title=" ">
<polygon fill="white" stroke="#666666" points="64,-172 0,-172 0,-152 64,-152 64,-172"/>
<text text-anchor="middle" x="32" y="-158.5" font-family="Helvetica,sans-Serif" font-size="10.00">PlantSuper</text>
</a>
</g>
</g>
<!-- Node2&#45;&gt;Node1 -->
<g id="edge1_Node000001_Node000002" class="edge">
<title>Node2&#45;&gt;Node1</title>
<g id="a_edge1_Node000001_Node000002"><a xlink:title=" ">
<path fill="none" stroke="#8b1a1a" d="M75.55,-162C83.7,-162 92.02,-162 99.53,-162"/>
<polygon fill="#8b1a1a" stroke="#8b1a1a" points="75.77,-158.5 65.77,-162 75.77,-165.5 75.77,-158.5"/>
</a>
</g>
</g>
</g>
</svg>
</svg>

<style type='text/css'>
<![CDATA[
[data-mouse-over-selected='false'] { opacity: 0.7; }
[data-mouse-over-selected='true']  { opacity: 1.0; }
]]>
</style>
<script type="application/ecmascript"><![CDATA[
document.addEventListener('DOMContentLoaded', (event) => {
  highlightEdges();
  highlightAdjacentNodes();
});
]]></script>
</svg>
