<?xml version="1.0" encoding="UTF-8" standalone="no"?>
<!DOCTYPE svg PUBLIC "-//W3C//DTD SVG 1.1//EN"
 "http://www.w3.org/Graphics/SVG/1.1/DTD/svg11.dtd">
<!-- Generated by graphviz version 11.0.0 (20240428.1522)
 -->
<!-- Title: ActionNextCombinationLockDial Pages: 1 -->
<svg width="209pt" height="220pt"
 viewBox="0.00 0.00 208.75 220.00" xmlns="http://www.w3.org/2000/svg" xmlns:xlink="http://www.w3.org/1999/xlink">
<g id="graph0" class="graph" transform="scale(1 1) rotate(0) translate(4 216)">
<title>ActionNextCombinationLockDial</title>
<!-- Node1 -->
<g id="Node000001" class="node">
<title>Node1</title>
<g id="a_Node000001"><a xlink:title=" ">
<polygon fill="#999999" stroke="#666666" points="155.5,-20 0,-20 0,0 155.5,0 155.5,-20"/>
<text text-anchor="middle" x="77.75" y="-6.5" font-family="Helvetica,sans-Serif" font-size="10.00">ActionNextCombinationLockDial</text>
</a>
</g>
</g>
<!-- Node2 -->
<g id="Node000002" class="node">
<title>Node2</title>
<g id="a_Node000002"><a xlink:href="../../d1/d01/class_action_single_use_base.html" target="_top" xlink:title=" ">
<polygon fill="white" stroke="#666666" points="133,-76 22.5,-76 22.5,-56 133,-56 133,-76"/>
<text text-anchor="middle" x="77.75" y="-62.5" font-family="Helvetica,sans-Serif" font-size="10.00">ActionSingleUseBase</text>
</a>
</g>
</g>
<!-- Node2&#45;&gt;Node1 -->
<g id="edge1_Node000001_Node000002" class="edge">
<title>Node2&#45;&gt;Node1</title>
<g id="a_edge1_Node000001_Node000002"><a xlink:title=" ">
<path fill="none" stroke="#8b1a1a" d="M77.75,-44.13C77.75,-35.9 77.75,-26.85 77.75,-20.3"/>
<polygon fill="#8b1a1a" stroke="#8b1a1a" points="74.25,-44.08 77.75,-54.08 81.25,-44.08 74.25,-44.08"/>
</a>
</g>
</g>
<!-- Node3 -->
<g id="Node000003" class="node">
<title>Node3</title>
<g id="a_Node000003"><a xlink:href="../../d7/d04/class_animated_action_base.html" target="_top" xlink:title=" ">
<polygon fill="white" stroke="#666666" points="131.5,-132 24,-132 24,-112 131.5,-112 131.5,-132"/>
<text text-anchor="middle" x="77.75" y="-118.5" font-family="Helvetica,sans-Serif" font-size="10.00">AnimatedActionBase</text>
</a>
</g>
</g>
<!-- Node3&#45;&gt;Node2 -->
<g id="edge2_Node000002_Node000003" class="edge">
<title>Node3&#45;&gt;Node2</title>
<g id="a_edge2_Node000002_Node000003"><a xlink:title=" ">
<path fill="none" stroke="#8b1a1a" d="M77.75,-100.13C77.75,-91.9 77.75,-82.85 77.75,-76.3"/>
<polygon fill="#8b1a1a" stroke="#8b1a1a" points="74.25,-100.08 77.75,-110.08 81.25,-100.08 74.25,-100.08"/>
</a>
</g>
</g>
<!-- Node4 -->
<g id="Node000004" class="node">
<title>Node4</title>
<g id="a_Node000004"><a xlink:title=" ">
<polygon fill="white" stroke="#666666" points="72.88,-212 6.62,-212 6.62,-192 72.88,-192 72.88,-212"/>
<text text-anchor="middle" x="39.75" y="-198.5" font-family="Helvetica,sans-Serif" font-size="10.00">ActionBase</text>
</a>
</g>
</g>
<!-- Node4&#45;&gt;Node3 -->
<g id="edge3_Node000003_Node000004" class="edge">
<title>Node4&#45;&gt;Node3</title>
<g id="a_edge3_Node000003_Node000004"><a xlink:title=" ">
<path fill="none" stroke="#8b1a1a" d="M49.25,-181.51C56.91,-165.77 67.37,-144.32 73.25,-132.24"/>
<polygon fill="#8b1a1a" stroke="#8b1a1a" points="46.15,-179.86 44.92,-190.39 52.45,-182.93 46.15,-179.86"/>
</a>
</g>
</g>
<!-- Node5 -->
<g id="Node000005" class="node">
<title>Node5</title>
<g id="a_Node000005"><a xlink:href="../../db/d06/class_param3.html" target="_top" xlink:title=" ">
<polygon fill="white" stroke="#666666" points="140.62,-212 90.88,-212 90.88,-192 140.62,-192 140.62,-212"/>
<text text-anchor="middle" x="115.75" y="-198.5" font-family="Helvetica,sans-Serif" font-size="10.00">Param3</text>
</a>
</g>
</g>
<!-- Node5&#45;&gt;Node3 -->
<g id="edge4_Node000003_Node000005" class="edge">
<title>Node5&#45;&gt;Node3</title>
<g id="a_edge4_Node000003_Node000005"><a xlink:title=" ">
<path fill="none" stroke="#9a32cd" stroke-dasharray="5,2" d="M106.25,-181.51C98.59,-165.77 88.13,-144.32 82.25,-132.24"/>
<polygon fill="#9a32cd" stroke="#9a32cd" points="103.05,-182.93 110.58,-190.39 109.35,-179.86 103.05,-182.93"/>
</a>
</g>
<text text-anchor="middle" x="151.25" y="-164.5" font-family="Helvetica,sans-Serif" font-size="10.00" fill="grey"> m_CommandUID</text>
<text text-anchor="middle" x="151.25" y="-152.5" font-family="Helvetica,sans-Serif" font-size="10.00" fill="grey">m_CommandUIDProne</text>
</g>
</g>
</svg>
