<?xml version="1.0" encoding="UTF-8" standalone="no"?>
<!DOCTYPE svg PUBLIC "-//W3C//DTD SVG 1.1//EN"
 "http://www.w3.org/Graphics/SVG/1.1/DTD/svg11.dtd">
<!-- Generated by graphviz version 11.0.0 (20240428.1522)
 -->
<!-- Title: CAContinuousRepeat Pages: 1 -->
<svg width="538pt" height="142pt"
 viewBox="0.00 0.00 537.75 142.00" xmlns="http://www.w3.org/2000/svg" xmlns:xlink="http://www.w3.org/1999/xlink">
<g id="graph0" class="graph" transform="scale(1 1) rotate(0) translate(4 138)">
<title>CAContinuousRepeat</title>
<!-- Node1 -->
<g id="Node000001" class="node">
<title>Node1</title>
<g id="a_Node000001"><a xlink:title=" ">
<polygon fill="#999999" stroke="#666666" points="333.75,-77 224.75,-77 224.75,-57 333.75,-57 333.75,-77"/>
<text text-anchor="middle" x="279.25" y="-63.5" font-family="Helvetica,sans-Serif" font-size="10.00">CAContinuousRepeat</text>
</a>
</g>
</g>
<!-- Node4 -->
<g id="Node000004" class="node">
<title>Node4</title>
<g id="a_Node000004"><a xlink:href="../../db/d03/class_c_a_continuous_load_magazine.html" target="_top" xlink:title=" ">
<polygon fill="white" stroke="#666666" points="520.38,-134 379.12,-134 379.12,-114 520.38,-114 520.38,-134"/>
<text text-anchor="middle" x="449.75" y="-120.5" font-family="Helvetica,sans-Serif" font-size="10.00">CAContinuousLoadMagazine</text>
</a>
</g>
</g>
<!-- Node1&#45;&gt;Node4 -->
<g id="edge3_Node000001_Node000004" class="edge">
<title>Node1&#45;&gt;Node4</title>
<g id="a_edge3_Node000001_Node000004"><a xlink:title=" ">
<path fill="none" stroke="#8b1a1a" d="M312.32,-82.14C329.16,-89.7 350.29,-98.58 369.75,-105 379.39,-108.18 389.86,-111.08 399.93,-113.6"/>
<polygon fill="#8b1a1a" stroke="#8b1a1a" points="313.86,-79 303.31,-78.03 310.95,-85.37 313.86,-79"/>
</a>
</g>
</g>
<!-- Node5 -->
<g id="Node000005" class="node">
<title>Node5</title>
<g id="a_Node000005"><a xlink:href="../../db/d01/class_c_a_continuous_repeat_fishing.html" target="_top" xlink:title=" ">
<polygon fill="white" stroke="#666666" points="520,-96 379.5,-96 379.5,-76 520,-76 520,-96"/>
<text text-anchor="middle" x="449.75" y="-82.5" font-family="Helvetica,sans-Serif" font-size="10.00">CAContinuousRepeatFishing</text>
</a>
</g>
</g>
<!-- Node1&#45;&gt;Node5 -->
<g id="edge4_Node000001_Node000005" class="edge">
<title>Node1&#45;&gt;Node5</title>
<g id="a_edge4_Node000001_Node000005"><a xlink:title=" ">
<path fill="none" stroke="#8b1a1a" d="M345.36,-74.34C356.44,-75.59 367.98,-76.89 379.16,-78.15"/>
<polygon fill="#8b1a1a" stroke="#8b1a1a" points="345.86,-70.88 335.53,-73.23 345.08,-77.83 345.86,-70.88"/>
</a>
</g>
</g>
<!-- Node6 -->
<g id="Node000006" class="node">
<title>Node6</title>
<g id="a_Node000006"><a xlink:href="../../d7/d0d/class_c_a_continuous_repeat_push_car.html" target="_top" xlink:title=" ">
<polygon fill="white" stroke="#666666" points="523,-58 376.5,-58 376.5,-38 523,-38 523,-58"/>
<text text-anchor="middle" x="449.75" y="-44.5" font-family="Helvetica,sans-Serif" font-size="10.00">CAContinuousRepeatPushCar</text>
</a>
</g>
</g>
<!-- Node1&#45;&gt;Node6 -->
<g id="edge5_Node000001_Node000006" class="edge">
<title>Node1&#45;&gt;Node6</title>
<g id="a_edge5_Node000001_Node000006"><a xlink:title=" ">
<path fill="none" stroke="#8b1a1a" d="M345.24,-59.67C355.35,-58.53 365.85,-57.35 376.12,-56.19"/>
<polygon fill="#8b1a1a" stroke="#8b1a1a" points="345.08,-56.17 335.53,-60.77 345.86,-63.12 345.08,-56.17"/>
</a>
</g>
</g>
<!-- Node7 -->
<g id="Node000007" class="node">
<title>Node7</title>
<g id="a_Node000007"><a xlink:href="../../de/d0e/class_c_a_continuous_repeat_start_engine.html" target="_top" xlink:title=" ">
<polygon fill="white" stroke="#666666" points="529.75,-20 369.75,-20 369.75,0 529.75,0 529.75,-20"/>
<text text-anchor="middle" x="449.75" y="-6.5" font-family="Helvetica,sans-Serif" font-size="10.00">CAContinuousRepeatStartEngine</text>
</a>
</g>
</g>
<!-- Node1&#45;&gt;Node7 -->
<g id="edge6_Node000001_Node000007" class="edge">
<title>Node1&#45;&gt;Node7</title>
<g id="a_edge6_Node000001_Node000007"><a xlink:title=" ">
<path fill="none" stroke="#8b1a1a" d="M312.32,-51.86C329.16,-44.3 350.29,-35.42 369.75,-29 379.39,-25.82 389.86,-22.92 399.93,-20.4"/>
<polygon fill="#8b1a1a" stroke="#8b1a1a" points="310.95,-48.63 303.31,-55.97 313.86,-55 310.95,-48.63"/>
</a>
</g>
</g>
<!-- Node2 -->
<g id="Node000002" class="node">
<title>Node2</title>
<g id="a_Node000002"><a xlink:href="../../dc/d0b/class_c_a_continuous_base.html" target="_top" xlink:title=" ">
<polygon fill="white" stroke="#666666" points="188.75,-77 88,-77 88,-57 188.75,-57 188.75,-77"/>
<text text-anchor="middle" x="138.38" y="-63.5" font-family="Helvetica,sans-Serif" font-size="10.00">CAContinuousBase</text>
</a>
</g>
</g>
<!-- Node2&#45;&gt;Node1 -->
<g id="edge1_Node000001_Node000002" class="edge">
<title>Node2&#45;&gt;Node1</title>
<g id="a_edge1_Node000001_Node000002"><a xlink:title=" ">
<path fill="none" stroke="#8b1a1a" d="M200.38,-67C208.46,-67 216.69,-67 224.62,-67"/>
<polygon fill="#8b1a1a" stroke="#8b1a1a" points="200.63,-63.5 190.63,-67 200.63,-70.5 200.63,-63.5"/>
</a>
</g>
</g>
<!-- Node3 -->
<g id="Node000003" class="node">
<title>Node3</title>
<g id="a_Node000003"><a xlink:href="../../d0/d00/class_c_a_base.html" target="_top" xlink:title=" ">
<polygon fill="white" stroke="#666666" points="52,-77 0,-77 0,-57 52,-57 52,-77"/>
<text text-anchor="middle" x="26" y="-63.5" font-family="Helvetica,sans-Serif" font-size="10.00">CABase</text>
</a>
</g>
</g>
<!-- Node3&#45;&gt;Node2 -->
<g id="edge2_Node000002_Node000003" class="edge">
<title>Node3&#45;&gt;Node2</title>
<g id="a_edge2_Node000002_Node000003"><a xlink:title=" ">
<path fill="none" stroke="#8b1a1a" d="M63.58,-67C71.35,-67 79.67,-67 87.82,-67"/>
<polygon fill="#8b1a1a" stroke="#8b1a1a" points="63.84,-63.5 53.84,-67 63.84,-70.5 63.84,-63.5"/>
</a>
</g>
</g>
</g>
</svg>
