<?xml version="1.0" encoding="UTF-8" standalone="no"?>
<!DOCTYPE svg PUBLIC "-//W3C//DTD SVG 1.1//EN"
 "http://www.w3.org/Graphics/SVG/1.1/DTD/svg11.dtd">
<!-- Generated by graphviz version 11.0.0 (20240428.1522)
 -->
<!-- Title: ComponentAnimalBleeding Pages: 1 -->
<!--zoomable 450 -->

<svg id="main" version="1.1" xmlns="http://www.w3.org/2000/svg" xmlns:xlink="http://www.w3.org/1999/xlink" xml:space="preserve" onload="init(evt)">
<style type="text/css"><![CDATA[
.node, .edge {opacity: 0.7;}
.node.selected, .edge.selected {opacity: 1;}
.edge:hover path { stroke: red; }
.edge:hover polygon { stroke: red; fill: red; }
]]></style>

<defs>
  <circle id="rim" cx="0" cy="0" r="7"/>
  <circle id="rim2" cx="0" cy="0" r="3.5"/>
  <g id="zoomPlus">
    <use xlink:href="#rim" fill="#404040"><set attributeName="fill" to="#808080" begin="zoomplus.mouseover" end="zoomplus.mouseout"/></use>
    <path d="M-4,0h8M0,-4v8" fill="none" stroke="white" stroke-width="1.5" pointer-events="none"/>
  </g>
  <g id="zoomMin">
    <use xlink:href="#rim" fill="#404040"><set attributeName="fill" to="#808080" begin="zoomminus.mouseover" end="zoomminus.mouseout"/></use>
    <path d="M-4,0h8" fill="none" stroke="white" stroke-width="1.5" pointer-events="none"/>
  </g>
  <g id="arrowUp" transform="translate(30 24)">
    <use xlink:href="#rim"/>
    <path pointer-events="none" fill="none" stroke="white" stroke-width="1.5" d="M0,-3.0v7 M-2.5,-0.5L0,-3.0L2.5,-0.5"/>
  </g>
  <g id="arrowRight" transform="rotate(90) translate(36 -43)">
    <use xlink:href="#rim"/>
    <path pointer-events="none" fill="none" stroke="white" stroke-width="1.5" d="M0,-3.0v7 M-2.5,-0.5L0,-3.0L2.5,-0.5"/>
  </g>
  <g id="arrowDown" transform="rotate(180) translate(-30 -48)">
    <use xlink:href="#rim"/>
    <path pointer-events="none" fill="none" stroke="white" stroke-width="1.5" d="M0,-3.0v7 M-2.5,-0.5L0,-3.0L2.5,-0.5"/>
  </g>
  <g id="arrowLeft" transform="rotate(270) translate(-36 17)">
    <use xlink:href="#rim"/>
    <path pointer-events="none" fill="none" stroke="white" stroke-width="1.5" d="M0,-3.0v7 M-2.5,-0.5L0,-3.0L2.5,-0.5"/>
  </g>
  <g id="resetDef">
    <use xlink:href="#rim2" fill="#404040"><set attributeName="fill" to="#808080" begin="reset.mouseover" end="reset.mouseout"/></use>
  </g>
</defs>
<script type="application/ecmascript">
var viewWidth = 1345;
var viewHeight = 450;
var sectionId = 'dynsection-1';
</script>
<script type="application/ecmascript" xlink:href="../../svg.min.js"/>
<svg id="graph" class="graph">
<g id="viewport">
<title>ComponentAnimalBleeding</title>
<!-- Node1 -->
<g id="Node000001" class="node">
<title>Node1</title>
<g id="a_Node000001"><a xlink:title=" ">
<polygon fill="#999999" stroke="#666666" points="208.16,-20 75.16,-20 75.16,0 208.16,0 208.16,-20"/>
<text text-anchor="middle" x="141.66" y="-6.5" font-family="Helvetica,sans-Serif" font-size="10.00">ComponentAnimalBleeding</text>
</a>
</g>
</g>
<!-- Node2 -->
<g id="Node000002" class="node">
<title>Node2</title>
<g id="a_Node000002"><a xlink:href="../../d2/d00/class_component.html" target="_top" xlink:title=" ">
<polygon fill="white" stroke="#666666" points="174.41,-88 108.91,-88 108.91,-68 174.41,-68 174.41,-88"/>
<text text-anchor="middle" x="141.66" y="-74.5" font-family="Helvetica,sans-Serif" font-size="10.00">Component</text>
</a>
</g>
</g>
<!-- Node2&#45;&gt;Node1 -->
<g id="edge1_Node000001_Node000002" class="edge">
<title>Node2&#45;&gt;Node1</title>
<g id="a_edge1_Node000001_Node000002"><a xlink:title=" ">
<path fill="none" stroke="#8b1a1a" d="M141.66,-56.28C141.66,-44.27 141.66,-29.74 141.66,-20.44"/>
<polygon fill="#8b1a1a" stroke="#8b1a1a" points="138.16,-56.03 141.66,-66.03 145.16,-56.03 138.16,-56.03"/>
</a>
</g>
</g>
<!-- Node3 -->
<g id="Node000003" class="node">
<title>Node3</title>
<g id="a_Node000003"><a xlink:href="../../d5/d02/classstring.html" target="_top" xlink:title=" ">
<polygon fill="white" stroke="#666666" points="669.66,-440 629.66,-440 629.66,-420 669.66,-420 669.66,-440"/>
<text text-anchor="middle" x="649.66" y="-426.5" font-family="Helvetica,sans-Serif" font-size="10.00">string</text>
</a>
</g>
</g>
<!-- Node3&#45;&gt;Node2 -->
<g id="edge2_Node000002_Node000003" class="edge">
<title>Node3&#45;&gt;Node2</title>
<g id="a_edge2_Node000002_Node000003"><a xlink:title=" ">
<path fill="none" stroke="#9a32cd" stroke-dasharray="5,2" d="M647.2,-408.54C640.36,-353.03 620.61,-202.58 605.66,-186 520.46,-91.44 455.35,-131.6 330.66,-106 266.19,-92.76 248.58,-98.91 183.66,-88 180.72,-87.51 177.67,-86.95 174.63,-86.35"/>
<polygon fill="#9a32cd" stroke="#9a32cd" points="643.69,-408.67 648.38,-418.18 650.64,-407.83 643.69,-408.67"/>
</a>
</g>
<text text-anchor="middle" x="654.04" y="-200.5" font-family="Helvetica,sans-Serif" font-size="10.00" fill="grey"> m_CompNames</text>
</g>
<!-- Node3&#45;&gt;Node3 -->
<g id="edge3_Node000003_Node000003" class="edge">
<title>Node3&#45;&gt;Node3</title>
<g id="a_edge3_Node000003_Node000003"><a xlink:title=" ">
<path fill="none" stroke="#9a32cd" stroke-dasharray="5,2" d="M675.43,-441.91C682.38,-441.28 687.66,-437.31 687.66,-430 687.66,-419.12 675.96,-415.64 664.49,-419.55"/>
<polygon fill="#9a32cd" stroke="#9a32cd" points="676.36,-438.5 665.99,-440.65 675.44,-445.44 676.36,-438.5"/>
</a>
</g>
<text text-anchor="middle" x="703.41" y="-426.5" font-family="Helvetica,sans-Serif" font-size="10.00" fill="grey"> Empty</text>
</g>
<!-- Node5 -->
<g id="Node000005" class="node">
<title>Node5</title>
<g id="a_Node000005"><a xlink:href="../../d2/d01/classarray.html" target="_top" xlink:title="Result for an object found in CGame.IsBoxCollidingGeometryProxy.">
<polygon fill="white" stroke="#666666" points="904.54,-286 866.79,-286 866.79,-266 904.54,-266 904.54,-286"/>
<text text-anchor="middle" x="885.66" y="-272.5" font-family="Helvetica,sans-Serif" font-size="10.00">array</text>
</a>
</g>
</g>
<!-- Node3&#45;&gt;Node5 -->
<g id="edge10_Node000005_Node000003" class="edge">
<title>Node3&#45;&gt;Node5</title>
<g id="a_edge10_Node000005_Node000003"><a xlink:title=" ">
<path fill="none" stroke="#9a32cd" stroke-dasharray="5,2" d="M676.3,-413.78C681.63,-410.22 687.01,-406.23 691.66,-402 721.83,-374.61 715.63,-354.2 748.41,-330 753.4,-326.32 829.65,-297.78 866.29,-284.17"/>
<polygon fill="#9a32cd" stroke="#9a32cd" points="674.81,-410.58 668.21,-418.87 678.54,-416.51 674.81,-410.58"/>
</a>
</g>
<text text-anchor="middle" x="765.29" y="-362.5" font-family="Helvetica,sans-Serif" font-size="10.00" fill="grey"> m_Test</text>
</g>
<!-- Node10 -->
<g id="Node000010" class="node">
<title>Node10</title>
<g id="a_Node000010"><a xlink:href="../../d2/d01/classarray.html" target="_top" xlink:title=" ">
<polygon fill="white" stroke="#666666" points="1017.91,-168 931.41,-168 931.41,-148 1017.91,-148 1017.91,-168"/>
<text text-anchor="middle" x="974.66" y="-154.5" font-family="Helvetica,sans-Serif" font-size="10.00">array&lt; Widget &gt;</text>
</a>
</g>
</g>
<!-- Node3&#45;&gt;Node10 -->
<g id="edge17_Node000010_Node000003" class="edge">
<title>Node3&#45;&gt;Node10</title>
<g id="a_edge17_Node000010_Node000003"><a xlink:title=" ">
<path fill="none" stroke="#9a32cd" stroke-dasharray="5,2" d="M650.89,-408.23C655.09,-358.78 673.43,-234.61 752.66,-186 781.7,-168.18 875.26,-162.11 931.23,-160.05"/>
<polygon fill="#9a32cd" stroke="#9a32cd" points="647.41,-407.85 650.18,-418.08 654.39,-408.35 647.41,-407.85"/>
</a>
</g>
<text text-anchor="middle" x="716.29" y="-272.5" font-family="Helvetica,sans-Serif" font-size="10.00" fill="grey"> m_Test</text>
</g>
<!-- Node12 -->
<g id="Node000012" class="node">
<title>Node12</title>
<g id="a_Node000012"><a xlink:href="../../d4/d0d/class_sound_lookup_table.html" target="_top" xlink:title=" ">
<polygon fill="white" stroke="#666666" points="467.91,-286 369.41,-286 369.41,-266 467.91,-266 467.91,-286"/>
<text text-anchor="middle" x="418.66" y="-272.5" font-family="Helvetica,sans-Serif" font-size="10.00">SoundLookupTable</text>
</a>
</g>
</g>
<!-- Node3&#45;&gt;Node12 -->
<g id="edge23_Node000012_Node000003" class="edge">
<title>Node3&#45;&gt;Node12</title>
<g id="a_edge23_Node000012_Node000003"><a xlink:title=" ">
<path fill="none" stroke="#9a32cd" stroke-dasharray="5,2" d="M618.08,-428.75C589.39,-427.18 546.9,-421.36 515.66,-402 467.8,-372.33 434.39,-310.02 422.98,-286.37"/>
<polygon fill="#9a32cd" stroke="#9a32cd" points="617.82,-432.25 627.95,-429.14 618.09,-425.25 617.82,-432.25"/>
</a>
</g>
<text text-anchor="middle" x="565.16" y="-368.5" font-family="Helvetica,sans-Serif" font-size="10.00" fill="grey"> m_parameterName</text>
<text text-anchor="middle" x="565.16" y="-356.5" font-family="Helvetica,sans-Serif" font-size="10.00" fill="grey">m_tableCategoryName</text>
</g>
<!-- Node4 -->
<g id="Node000004" class="node">
<title>Node4</title>
<g id="a_Node000004"><a xlink:href="../../df/d09/class_entity_a_i.html" target="_top" xlink:title=" ">
<polygon fill="white" stroke="#666666" points="346.91,-168 296.41,-168 296.41,-148 346.91,-148 346.91,-168"/>
<text text-anchor="middle" x="321.66" y="-154.5" font-family="Helvetica,sans-Serif" font-size="10.00">EntityAI</text>
</a>
</g>
</g>
<!-- Node4&#45;&gt;Node2 -->
<g id="edge4_Node000002_Node000004" class="edge">
<title>Node4&#45;&gt;Node2</title>
<g id="a_edge4_Node000002_Node000004"><a xlink:title=" ">
<path fill="none" stroke="#9a32cd" stroke-dasharray="5,2" d="M289.41,-143.03C253.03,-127.26 194.85,-102.05 163.45,-88.44"/>
<polygon fill="#9a32cd" stroke="#9a32cd" points="288,-146.22 298.56,-146.99 290.78,-139.8 288,-146.22"/>
</a>
</g>
<text text-anchor="middle" x="292.16" y="-114.5" font-family="Helvetica,sans-Serif" font-size="10.00" fill="grey"> m_ThisEntityAI</text>
</g>
<!-- Node5&#45;&gt;Node4 -->
<g id="edge5_Node000004_Node000005" class="edge">
<title>Node5&#45;&gt;Node4</title>
<g id="a_edge5_Node000004_Node000005"><a xlink:title=" ">
<path fill="none" stroke="#9a32cd" stroke-dasharray="5,2" d="M858.88,-260.15C816.79,-237.08 736.76,-194.43 705.66,-186 637.77,-167.6 421.9,-161.2 347.31,-159.51"/>
<polygon fill="#9a32cd" stroke="#9a32cd" points="856.93,-263.07 867.38,-264.82 860.31,-256.94 856.93,-263.07"/>
</a>
</g>
<text text-anchor="middle" x="831.79" y="-212.5" font-family="Helvetica,sans-Serif" font-size="10.00" fill="grey"> m_ContinuousActions</text>
<text text-anchor="middle" x="831.79" y="-200.5" font-family="Helvetica,sans-Serif" font-size="10.00" fill="grey">m_InteractActions</text>
<text text-anchor="middle" x="831.79" y="-188.5" font-family="Helvetica,sans-Serif" font-size="10.00" fill="grey">m_SingleUseActions</text>
</g>
<!-- Node5&#45;&gt;Node5 -->
<g id="edge8_Node000005_Node000005" class="edge">
<title>Node5&#45;&gt;Node5</title>
<g id="a_edge8_Node000005_Node000005"><a xlink:title=" ">
<path fill="none" stroke="#9a32cd" stroke-dasharray="5,2" d="M907.97,-289.49C915.99,-289.78 922.54,-285.29 922.54,-276 922.54,-262.64 909,-259.2 896.99,-265.67"/>
<polygon fill="#9a32cd" stroke="#9a32cd" points="909.02,-286.15 898.44,-286.75 907.09,-292.88 909.02,-286.15"/>
</a>
</g>
<text text-anchor="middle" x="943.54" y="-272.5" font-family="Helvetica,sans-Serif" font-size="10.00" fill="grey"> proxyInfo</text>
</g>
<!-- Node5&#45;&gt;Node10 -->
<g id="edge15_Node000010_Node000005" class="edge">
<title>Node5&#45;&gt;Node10</title>
<g id="a_edge15_Node000010_Node000005"><a xlink:title=" ">
<path fill="none" stroke="#9a32cd" stroke-dasharray="5,2" d="M885.33,-254.32C886.1,-234.56 890.24,-205.02 906.66,-186 913.55,-178.02 923.12,-172.38 932.91,-168.39"/>
<polygon fill="#9a32cd" stroke="#9a32cd" points="881.83,-254.15 885.23,-264.18 888.83,-254.22 881.83,-254.15"/>
</a>
</g>
<text text-anchor="middle" x="927.66" y="-200.5" font-family="Helvetica,sans-Serif" font-size="10.00" fill="grey"> proxyInfo</text>
</g>
<!-- Node6 -->
<g id="Node000006" class="node">
<title>Node6</title>
<g id="a_Node000006"><a xlink:href="../../d8/d03/class_object.html" target="_top" xlink:title=" ">
<polygon fill="white" stroke="#666666" points="801.91,-440 757.41,-440 757.41,-420 801.91,-420 801.91,-440"/>
<text text-anchor="middle" x="779.66" y="-426.5" font-family="Helvetica,sans-Serif" font-size="10.00">Object</text>
</a>
</g>
</g>
<!-- Node6&#45;&gt;Node5 -->
<g id="edge6_Node000005_Node000006" class="edge">
<title>Node6&#45;&gt;Node5</title>
<g id="a_edge6_Node000005_Node000006"><a xlink:title=" ">
<path fill="none" stroke="#9a32cd" stroke-dasharray="5,2" d="M785.71,-408.7C792.64,-387.65 805.43,-354.45 823.66,-330 837.04,-312.07 857.52,-296.08 871.24,-286.47"/>
<polygon fill="#9a32cd" stroke="#9a32cd" points="782.42,-407.51 782.77,-418.09 789.1,-409.6 782.42,-407.51"/>
</a>
</g>
<text text-anchor="middle" x="837.16" y="-368.5" font-family="Helvetica,sans-Serif" font-size="10.00" fill="grey"> obj</text>
<text text-anchor="middle" x="837.16" y="-356.5" font-family="Helvetica,sans-Serif" font-size="10.00" fill="grey">parent</text>
</g>
<!-- Node6&#45;&gt;Node10 -->
<g id="edge13_Node000010_Node000006" class="edge">
<title>Node6&#45;&gt;Node10</title>
<g id="a_edge13_Node000010_Node000006"><a xlink:title=" ">
<path fill="none" stroke="#9a32cd" stroke-dasharray="5,2" d="M775.39,-408.56C764.94,-356.14 740.99,-218.7 769.66,-186 790.26,-162.52 877.56,-158.48 931.38,-158.31"/>
<polygon fill="#9a32cd" stroke="#9a32cd" points="771.93,-409.11 777.36,-418.21 778.79,-407.71 771.93,-409.11"/>
</a>
</g>
<text text-anchor="middle" x="773.16" y="-278.5" font-family="Helvetica,sans-Serif" font-size="10.00" fill="grey"> obj</text>
<text text-anchor="middle" x="773.16" y="-266.5" font-family="Helvetica,sans-Serif" font-size="10.00" fill="grey">parent</text>
</g>
<!-- Node7 -->
<g id="Node000007" class="node">
<title>Node7</title>
<g id="a_Node000007"><a xlink:href="../../db/d06/class_param3.html" target="_top" xlink:title=" ">
<polygon fill="white" stroke="#666666" points="922.54,-440 872.79,-440 872.79,-420 922.54,-420 922.54,-440"/>
<text text-anchor="middle" x="897.66" y="-426.5" font-family="Helvetica,sans-Serif" font-size="10.00">Param3</text>
</a>
</g>
</g>
<!-- Node7&#45;&gt;Node5 -->
<g id="edge7_Node000005_Node000007" class="edge">
<title>Node7&#45;&gt;Node5</title>
<g id="a_edge7_Node000005_Node000007"><a xlink:title=" ">
<path fill="none" stroke="#9a32cd" stroke-dasharray="5,2" d="M870.29,-412.45C867.12,-409.38 864.34,-405.89 862.41,-402 842.77,-362.22 868.31,-307.85 880.19,-286.32"/>
<polygon fill="#9a32cd" stroke="#9a32cd" points="868.08,-415.16 878.08,-418.66 872.44,-409.69 868.08,-415.16"/>
</a>
</g>
<text text-anchor="middle" x="919.79" y="-392.5" font-family="Helvetica,sans-Serif" font-size="10.00" fill="grey"> NO_SORTING</text>
<text text-anchor="middle" x="919.79" y="-380.5" font-family="Helvetica,sans-Serif" font-size="10.00" fill="grey">geomLevel</text>
<text text-anchor="middle" x="919.79" y="-368.5" font-family="Helvetica,sans-Serif" font-size="10.00" fill="grey">hierLevel</text>
<text text-anchor="start" x="861.66" y="-356.5" font-family="Helvetica,sans-Serif" font-size="10.00" fill="grey">m_CurrentSettingAlternate</text>
<text text-anchor="middle" x="919.79" y="-344.5" font-family="Helvetica,sans-Serif" font-size="10.00" fill="grey">KeyIndex</text>
<text text-anchor="middle" x="919.79" y="-332.5" font-family="Helvetica,sans-Serif" font-size="10.00" fill="grey">m_CurrentSettingKeyIndex</text>
</g>
<!-- Node7&#45;&gt;Node10 -->
<g id="edge14_Node000010_Node000007" class="edge">
<title>Node7&#45;&gt;Node10</title>
<g id="a_edge14_Node000010_Node000007"><a xlink:title=" ">
<path fill="none" stroke="#9a32cd" stroke-dasharray="5,2" d="M934.31,-427.14C971.59,-424.38 1025.66,-417.73 1038.66,-402 1057.67,-379 1069.03,-236.1 1035.66,-186 1030.34,-178 1022.05,-172.35 1013.29,-168.36"/>
<polygon fill="#9a32cd" stroke="#9a32cd" points="934.13,-423.64 924.39,-427.8 934.6,-430.63 934.13,-423.64"/>
</a>
</g>
<text text-anchor="middle" x="1114.79" y="-302.5" font-family="Helvetica,sans-Serif" font-size="10.00" fill="grey"> NO_SORTING</text>
<text text-anchor="middle" x="1114.79" y="-290.5" font-family="Helvetica,sans-Serif" font-size="10.00" fill="grey">geomLevel</text>
<text text-anchor="middle" x="1114.79" y="-278.5" font-family="Helvetica,sans-Serif" font-size="10.00" fill="grey">hierLevel</text>
<text text-anchor="start" x="1056.66" y="-266.5" font-family="Helvetica,sans-Serif" font-size="10.00" fill="grey">m_CurrentSettingAlternate</text>
<text text-anchor="middle" x="1114.79" y="-254.5" font-family="Helvetica,sans-Serif" font-size="10.00" fill="grey">KeyIndex</text>
<text text-anchor="middle" x="1114.79" y="-242.5" font-family="Helvetica,sans-Serif" font-size="10.00" fill="grey">m_CurrentSettingKeyIndex</text>
</g>
<!-- Node8 -->
<g id="Node000008" class="node">
<title>Node8</title>
<g id="a_Node000008"><a xlink:href="../../d4/d04/class_class.html" target="_top" xlink:title="Super root of all classes in Enforce script.">
<polygon fill="white" stroke="#666666" points="1292.04,-440 1251.29,-440 1251.29,-420 1292.04,-420 1292.04,-440"/>
<text text-anchor="middle" x="1271.66" y="-426.5" font-family="Helvetica,sans-Serif" font-size="10.00">Class</text>
</a>
</g>
</g>
<!-- Node8&#45;&gt;Node5 -->
<g id="edge9_Node000005_Node000008" class="edge">
<title>Node8&#45;&gt;Node5</title>
<g id="a_edge9_Node000005_Node000008"><a xlink:title=" ">
<path fill="none" stroke="#9a32cd" stroke-dasharray="5,2" d="M1250.65,-412.76C1221.2,-390.77 1165.22,-351.79 1111.66,-330 1077.5,-316.1 1066.59,-320.33 1030.66,-312 985.51,-301.53 932.61,-288.59 904.87,-281.75"/>
<polygon fill="#9a32cd" stroke="#9a32cd" points="1248.29,-415.36 1258.38,-418.6 1252.51,-409.78 1248.29,-415.36"/>
</a>
</g>
<text text-anchor="middle" x="1260.29" y="-362.5" font-family="Helvetica,sans-Serif" font-size="10.00" fill="grey"> m_Instance</text>
</g>
<!-- Node8&#45;&gt;Node10 -->
<g id="edge16_Node000010_Node000008" class="edge">
<title>Node8&#45;&gt;Node10</title>
<g id="a_edge16_Node000010_Node000008"><a xlink:title=" ">
<path fill="none" stroke="#9a32cd" stroke-dasharray="5,2" d="M1286.87,-410.38C1288.42,-407.7 1289.76,-404.87 1290.66,-402 1300.32,-371.49 1300.17,-360.56 1290.66,-330 1276.23,-283.62 1263.17,-274.18 1228.66,-240 1198.19,-209.81 1188.6,-201.67 1148.66,-186 1106.26,-169.37 1054.27,-162.95 1018.22,-160.49"/>
<polygon fill="#9a32cd" stroke="#9a32cd" points="1284.02,-408.35 1281.16,-418.55 1289.76,-412.36 1284.02,-408.35"/>
</a>
</g>
<text text-anchor="middle" x="1310.29" y="-272.5" font-family="Helvetica,sans-Serif" font-size="10.00" fill="grey"> m_Instance</text>
</g>
<!-- Node9 -->
<g id="Node000009" class="node">
<title>Node9</title>
<g id="a_Node000009"><a xlink:href="../../dd/d0a/class_widget.html" target="_top" xlink:title=" ">
<polygon fill="white" stroke="#666666" points="1126.04,-440 1079.29,-440 1079.29,-420 1126.04,-420 1126.04,-440"/>
<text text-anchor="middle" x="1102.66" y="-426.5" font-family="Helvetica,sans-Serif" font-size="10.00">Widget</text>
</a>
</g>
</g>
<!-- Node9&#45;&gt;Node5 -->
<g id="edge11_Node000005_Node000009" class="edge">
<title>Node9&#45;&gt;Node5</title>
<g id="a_edge11_Node000005_Node000009"><a xlink:title=" ">
<path fill="none" stroke="#9a32cd" stroke-dasharray="5,2" d="M1083.74,-412.34C1060.01,-391.84 1017.71,-356.48 978.66,-330 953.75,-313.1 923.12,-296.37 903.99,-286.36"/>
<polygon fill="#9a32cd" stroke="#9a32cd" points="1081.17,-414.75 1091.01,-418.68 1085.76,-409.47 1081.17,-414.75"/>
</a>
</g>
<text text-anchor="middle" x="1089.04" y="-362.5" font-family="Helvetica,sans-Serif" font-size="10.00" fill="grey"> m_Root</text>
</g>
<!-- Node9&#45;&gt;Node10 -->
<g id="edge18_Node000010_Node000009" class="edge">
<title>Node9&#45;&gt;Node10</title>
<g id="a_edge18_Node000010_Node000009"><a xlink:title=" ">
<path fill="none" stroke="#9a32cd" stroke-dasharray="5,2" d="M1119.83,-411.53C1151.8,-376.81 1213.99,-297.53 1176.66,-240 1142.22,-186.91 1066.37,-168.61 1018.05,-162.31"/>
<polygon fill="#9a32cd" stroke="#9a32cd" points="1117.45,-408.96 1113.11,-418.62 1122.53,-413.77 1117.45,-408.96"/>
</a>
</g>
<text text-anchor="middle" x="1206.04" y="-272.5" font-family="Helvetica,sans-Serif" font-size="10.00" fill="grey"> m_Root</text>
</g>
<!-- Node10&#45;&gt;Node5 -->
<g id="edge12_Node000005_Node000010" class="edge">
<title>Node10&#45;&gt;Node5</title>
<g id="a_edge12_Node000005_Node000010"><a xlink:title=" ">
<path fill="none" stroke="#9a32cd" stroke-dasharray="5,2" d="M970.64,-179.41C967.35,-192.46 961.73,-209.27 952.66,-222 939.33,-240.73 917.58,-256.21 902.5,-265.51"/>
<polygon fill="#9a32cd" stroke="#9a32cd" points="974.02,-180.3 972.78,-169.78 967.19,-178.78 974.02,-180.3"/>
</a>
</g>
<text text-anchor="middle" x="1000.16" y="-200.5" font-family="Helvetica,sans-Serif" font-size="10.00" fill="grey"> m_Subgroups</text>
</g>
<!-- Node10&#45;&gt;Node10 -->
<g id="edge19_Node000010_Node000010" class="edge">
<title>Node10&#45;&gt;Node10</title>
<g id="a_edge19_Node000010_Node000010"><a xlink:title=" ">
<path fill="none" stroke="#9a32cd" stroke-dasharray="5,2" d="M1029.29,-163.6C1033.39,-162.35 1035.91,-160.48 1035.91,-158 1035.91,-153.7 1028.37,-151.25 1018.16,-150.65"/>
<polygon fill="#9a32cd" stroke="#9a32cd" points="1028.99,-160.11 1019.65,-165.12 1030.07,-167.02 1028.99,-160.11"/>
</a>
</g>
<text text-anchor="middle" x="1067.41" y="-154.5" font-family="Helvetica,sans-Serif" font-size="10.00" fill="grey"> m_Subgroups</text>
</g>
<!-- Node11 -->
<g id="Node000011" class="node">
<title>Node11</title>
<g id="a_Node000011"><a xlink:href="../../d4/d03/classfloat.html" target="_top" xlink:title=" ">
<polygon fill="white" stroke="#666666" points="87.66,-286 53.66,-286 53.66,-266 87.66,-266 87.66,-286"/>
<text text-anchor="middle" x="70.66" y="-272.5" font-family="Helvetica,sans-Serif" font-size="10.00">float</text>
</a>
</g>
</g>
<!-- Node11&#45;&gt;Node1 -->
<g id="edge28_Node000001_Node000011" class="edge">
<title>Node11&#45;&gt;Node1</title>
<g id="a_edge28_Node000001_Node000011"><a xlink:title=" ">
<path fill="none" stroke="#9a32cd" stroke-dasharray="5,2" d="M54.33,-256.88C27.93,-225.26 -18.58,-158.39 8.41,-106 31.05,-62.05 84.48,-33.96 116.38,-20.47"/>
<polygon fill="#9a32cd" stroke="#9a32cd" points="51.61,-259.07 60.79,-264.36 56.9,-254.5 51.61,-259.07"/>
</a>
</g>
<text text-anchor="middle" x="57.79" y="-120.5" font-family="Helvetica,sans-Serif" font-size="10.00" fill="grey"> BASE_BLEED_RATE</text>
<text text-anchor="middle" x="57.79" y="-108.5" font-family="Helvetica,sans-Serif" font-size="10.00" fill="grey">PASS_OUT_AMOUT</text>
</g>
<!-- Node11&#45;&gt;Node2 -->
<g id="edge26_Node000002_Node000011" class="edge">
<title>Node11&#45;&gt;Node2</title>
<g id="a_edge26_Node000002_Node000011"><a xlink:title=" ">
<path fill="none" stroke="#9a32cd" stroke-dasharray="5,2" d="M71.96,-254.33C73.56,-235.99 77.08,-208.67 84.66,-186 97.55,-147.48 123.4,-106.22 135.35,-88.25"/>
<polygon fill="#9a32cd" stroke="#9a32cd" points="68.48,-253.92 71.22,-264.15 75.46,-254.44 68.48,-253.92"/>
</a>
</g>
<text text-anchor="middle" x="164.41" y="-154.5" font-family="Helvetica,sans-Serif" font-size="10.00" fill="grey"> m_DebugShapeDirectionDist</text>
</g>
<!-- Node11&#45;&gt;Node4 -->
<g id="edge20_Node000004_Node000011" class="edge">
<title>Node11&#45;&gt;Node4</title>
<g id="a_edge20_Node000004_Node000011"><a xlink:title=" ">
<path fill="none" stroke="#9a32cd" stroke-dasharray="5,2" d="M74.54,-254.49C79.62,-233.69 90.67,-202.3 113.16,-186 127.76,-175.43 243.93,-165.1 296.26,-160.93"/>
<polygon fill="#9a32cd" stroke="#9a32cd" points="71.15,-253.59 72.47,-264.11 77.99,-255.07 71.15,-253.59"/>
</a>
</g>
<text text-anchor="middle" x="171.41" y="-206.5" font-family="Helvetica,sans-Serif" font-size="10.00" fill="grey"> SOUND_CONTACT_SKIP</text>
<text text-anchor="middle" x="171.41" y="-194.5" font-family="Helvetica,sans-Serif" font-size="10.00" fill="grey">m_SoundContactTickTime</text>
</g>
<!-- Node11&#45;&gt;Node11 -->
<g id="edge21_Node000011_Node000011" class="edge">
<title>Node11&#45;&gt;Node11</title>
<g id="a_edge21_Node000011_Node000011"><a xlink:title=" ">
<path fill="none" stroke="#9a32cd" stroke-dasharray="5,2" d="M92.34,-289.5C99.73,-289.58 105.66,-285.08 105.66,-276 105.66,-262.64 92.81,-259.2 81.41,-265.67"/>
<polygon fill="#9a32cd" stroke="#9a32cd" points="93.45,-286.17 82.87,-286.75 91.5,-292.9 93.45,-286.17"/>
</a>
</g>
<text text-anchor="middle" x="127.79" y="-284.5" font-family="Helvetica,sans-Serif" font-size="10.00" fill="grey"> LOWEST</text>
<text text-anchor="middle" x="127.79" y="-272.5" font-family="Helvetica,sans-Serif" font-size="10.00" fill="grey">MAX</text>
<text text-anchor="middle" x="127.79" y="-260.5" font-family="Helvetica,sans-Serif" font-size="10.00" fill="grey">MIN</text>
</g>
<!-- Node12&#45;&gt;Node4 -->
<g id="edge22_Node000004_Node000012" class="edge">
<title>Node12&#45;&gt;Node4</title>
<g id="a_edge22_Node000004_Node000012"><a xlink:title=" ">
<path fill="none" stroke="#9a32cd" stroke-dasharray="5,2" d="M411.49,-254.88C402.98,-231.93 388.71,-196.25 378.66,-186 370.08,-177.24 358.1,-170.98 347.33,-166.7"/>
<polygon fill="#9a32cd" stroke="#9a32cd" points="408.13,-255.89 414.84,-264.1 414.71,-253.5 408.13,-255.89"/>
</a>
</g>
<text text-anchor="middle" x="446.04" y="-200.5" font-family="Helvetica,sans-Serif" font-size="10.00" fill="grey"> m_SoundImpactTable</text>
</g>
<!-- Node13 -->
<g id="Node000013" class="node">
<title>Node13</title>
<g id="a_Node000013"><a xlink:href="../../d9/d09/classbool.html" target="_top" xlink:title=" ">
<polygon fill="white" stroke="#666666" points="537.66,-286 503.66,-286 503.66,-266 537.66,-266 537.66,-286"/>
<text text-anchor="middle" x="520.66" y="-272.5" font-family="Helvetica,sans-Serif" font-size="10.00">bool</text>
</a>
</g>
</g>
<!-- Node13&#45;&gt;Node4 -->
<g id="edge24_Node000004_Node000013" class="edge">
<title>Node13&#45;&gt;Node4</title>
<g id="a_edge24_Node000004_Node000013"><a xlink:title=" ">
<path fill="none" stroke="#9a32cd" stroke-dasharray="5,2" d="M521.64,-254.04C521.36,-233.6 517.46,-203.16 498.66,-186 476.97,-166.19 390.83,-160.92 347.23,-159.51"/>
<polygon fill="#9a32cd" stroke="#9a32cd" points="518.14,-253.96 521.46,-264.02 525.14,-254.08 518.14,-253.96"/>
</a>
</g>
<text text-anchor="middle" x="559.04" y="-206.5" font-family="Helvetica,sans-Serif" font-size="10.00" fill="grey"> m_ActionsInitialize</text>
<text text-anchor="middle" x="559.04" y="-194.5" font-family="Helvetica,sans-Serif" font-size="10.00" fill="grey">m_IsMeleeWeapon</text>
</g>
<!-- Node14 -->
<g id="Node000014" class="node">
<title>Node14</title>
<g id="a_Node000014"><a xlink:href="../../d4/d0d/class_script_invoker.html" target="_top" xlink:title="ScriptInvoker Class provide list of callbacks &#160;&#160;usage:">
<polygon fill="white" stroke="#666666" points="278.41,-286 206.91,-286 206.91,-266 278.41,-266 278.41,-286"/>
<text text-anchor="middle" x="242.66" y="-272.5" font-family="Helvetica,sans-Serif" font-size="10.00">ScriptInvoker</text>
</a>
</g>
</g>
<!-- Node14&#45;&gt;Node4 -->
<g id="edge25_Node000004_Node000014" class="edge">
<title>Node14&#45;&gt;Node4</title>
<g id="a_edge25_Node000004_Node000014"><a xlink:title=" ">
<path fill="none" stroke="#9a32cd" stroke-dasharray="5,2" d="M236.74,-254.66C232.36,-235.16 229.37,-205.84 243.66,-186 255.56,-169.49 278.26,-162.99 296.11,-160.47"/>
<polygon fill="#9a32cd" stroke="#9a32cd" points="233.3,-255.34 239.19,-264.14 240.07,-253.58 233.3,-255.34"/>
</a>
</g>
<text text-anchor="middle" x="311.16" y="-206.5" font-family="Helvetica,sans-Serif" font-size="10.00" fill="grey"> m_OnItemAddedToHands</text>
<text text-anchor="middle" x="311.16" y="-194.5" font-family="Helvetica,sans-Serif" font-size="10.00" fill="grey">m_OnItemRemovedFromHands</text>
</g>
<!-- Node15 -->
<g id="Node000015" class="node">
<title>Node15</title>
<g id="a_Node000015"><a xlink:href="../../d8/d08/class_timer.html" target="_top" xlink:title=" ">
<polygon fill="white" stroke="#666666" points="232.66,-88 192.66,-88 192.66,-68 232.66,-68 232.66,-88"/>
<text text-anchor="middle" x="212.66" y="-74.5" font-family="Helvetica,sans-Serif" font-size="10.00">Timer</text>
</a>
</g>
</g>
<!-- Node15&#45;&gt;Node1 -->
<g id="edge27_Node000001_Node000015" class="edge">
<title>Node15&#45;&gt;Node1</title>
<g id="a_edge27_Node000001_Node000015"><a xlink:title=" ">
<path fill="none" stroke="#9a32cd" stroke-dasharray="5,2" d="M194.35,-59.97C180.81,-47.39 162.88,-30.72 151.82,-20.44"/>
<polygon fill="#9a32cd" stroke="#9a32cd" points="191.68,-62.27 201.38,-66.51 196.44,-57.14 191.68,-62.27"/>
</a>
</g>
<text text-anchor="middle" x="215.29" y="-40.5" font-family="Helvetica,sans-Serif" font-size="10.00" fill="grey"> m_BleedTimer</text>
</g>
</g>
</svg>

<g id="navigator" transform="translate(0 0)" fill="#404254">
  <rect fill="#f2f5e9" fill-opacity="0.5" stroke="#606060" stroke-width=".5" x="0" y="0" width="60" height="60"/>
  <use id="zoomplus" xlink:href="#zoomPlus" x="17" y="9" onmousedown="handleZoom(evt,'in')"/>
  <use id="zoomminus" xlink:href="#zoomMin" x="42" y="9" onmousedown="handleZoom(evt,'out')"/>
  <use id="reset" xlink:href="#resetDef" x="30" y="36" onmousedown="handleReset()"/>
   <use id="arrowup" xlink:href="#arrowUp" x="0" y="0" onmousedown="handlePan(0,-1)"/>
  <use id="arrowright" xlink:href="#arrowRight" x="0" y="0" onmousedown="handlePan(1,0)"/>
  <use id="arrowdown" xlink:href="#arrowDown" x="0" y="0" onmousedown="handlePan(0,1)"/>
  <use id="arrowleft" xlink:href="#arrowLeft" x="0" y="0" onmousedown="handlePan(-1,0)"/>
</g>
<svg viewBox="0 0 15 15" width="100%" height="30px" preserveAspectRatio="xMaxYMin meet">
 <g id="arrow_out" transform="scale(0.3 0.3)">
  <a xlink:href="class_component_animal_bleeding__coll__graph_org.svg" target="_base">
   <rect id="button" ry="5" rx="5" y="6" x="6" height="38" width="38"
        fill="#f2f5e9" fill-opacity="0.5" stroke="#606060" stroke-width="1.0"/>
   <path id="arrow"
     d="M 11.500037,31.436501 C 11.940474,20.09759 22.043105,11.32322 32.158766,21.979434 L 37.068811,17.246167 C 37.068811,17.246167 37.088388,32 37.088388,32 L 22.160133,31.978069 C 22.160133,31.978069 26.997745,27.140456 26.997745,27.140456 C 18.528582,18.264221 13.291696,25.230495 11.500037,31.436501 z"
     style="fill:#404040;"/>
  </a>
 </g>
</svg>

<style type='text/css'>
<![CDATA[
[data-mouse-over-selected='false'] { opacity: 0.7; }
[data-mouse-over-selected='true']  { opacity: 1.0; }
]]>
</style>
<script type="application/ecmascript"><![CDATA[
document.addEventListener('DOMContentLoaded', (event) => {
  highlightEdges();
  highlightAdjacentNodes();
});
]]></script>
</svg>
