<?xml version="1.0" encoding="UTF-8" standalone="no"?>
<!DOCTYPE svg PUBLIC "-//W3C//DTD SVG 1.1//EN"
 "http://www.w3.org/Graphics/SVG/1.1/DTD/svg11.dtd">
<!-- Generated by graphviz version 11.0.0 (20240428.1522)
 -->
<!-- Title: array Pages: 1 -->
<svg width="580pt" height="278pt"
 viewBox="0.00 0.00 580.00 277.91" xmlns="http://www.w3.org/2000/svg" xmlns:xlink="http://www.w3.org/1999/xlink">
<g id="graph0" class="graph" transform="scale(1 1) rotate(0) translate(4 273.91)">
<title>array</title>
<!-- Node1 -->
<g id="Node000001" class="node">
<title>Node1</title>
<g id="a_Node000001"><a xlink:title="Result for an object found in CGame.IsBoxCollidingGeometryProxy.">
<polygon fill="#999999" stroke="#666666" points="348.38,-114 310.63,-114 310.63,-94 348.38,-94 348.38,-114"/>
<text text-anchor="middle" x="329.5" y="-100.5" font-family="Helvetica,sans-Serif" font-size="10.00">array</text>
</a>
</g>
</g>
<!-- Node1&#45;&gt;Node1 -->
<g id="edge3_Node000001_Node000001" class="edge">
<title>Node1&#45;&gt;Node1</title>
<g id="a_edge3_Node000001_Node000001"><a xlink:title=" ">
<path fill="none" stroke="#9a32cd" stroke-dasharray="5,2" d="M357.53,-114.66C362.72,-113.34 366.38,-109.78 366.38,-104 366.38,-94.51 356.54,-91.02 346.19,-93.54"/>
<polygon fill="#9a32cd" stroke="#9a32cd" points="357.77,-111.17 347.7,-114.48 357.64,-118.16 357.77,-111.17"/>
</a>
</g>
<text text-anchor="middle" x="387.38" y="-100.5" font-family="Helvetica,sans-Serif" font-size="10.00" fill="grey"> proxyInfo</text>
</g>
<!-- Node7 -->
<g id="Node000007" class="node">
<title>Node7</title>
<g id="a_Node000007"><a xlink:href="../../d2/d01/classarray.html" target="_top" xlink:title=" ">
<polygon fill="white" stroke="#666666" points="341.75,-20 255.25,-20 255.25,0 341.75,0 341.75,-20"/>
<text text-anchor="middle" x="298.5" y="-6.5" font-family="Helvetica,sans-Serif" font-size="10.00">array&lt; Widget &gt;</text>
</a>
</g>
</g>
<!-- Node1&#45;&gt;Node7 -->
<g id="edge11_Node000007_Node000001" class="edge">
<title>Node1&#45;&gt;Node7</title>
<g id="a_edge11_Node000007_Node000001"><a xlink:title=" ">
<path fill="none" stroke="#9a32cd" stroke-dasharray="5,2" d="M348.2,-85.84C360.55,-72.38 372.72,-53.4 362.5,-38 357.24,-30.06 349.13,-24.45 340.43,-20.49"/>
<polygon fill="#9a32cd" stroke="#9a32cd" points="345.93,-83.17 341.36,-92.73 350.89,-88.1 345.93,-83.17"/>
</a>
</g>
<text text-anchor="middle" x="386.5" y="-40.5" font-family="Helvetica,sans-Serif" font-size="10.00" fill="grey"> proxyInfo</text>
</g>
<!-- Node2 -->
<g id="Node000002" class="node">
<title>Node2</title>
<g id="a_Node000002"><a xlink:href="../../d8/d03/class_object.html" target="_top" xlink:title=" ">
<polygon fill="white" stroke="#666666" points="331.75,-268 287.25,-268 287.25,-248 331.75,-248 331.75,-268"/>
<text text-anchor="middle" x="309.5" y="-254.5" font-family="Helvetica,sans-Serif" font-size="10.00">Object</text>
</a>
</g>
</g>
<!-- Node2&#45;&gt;Node1 -->
<g id="edge1_Node000001_Node000002" class="edge">
<title>Node2&#45;&gt;Node1</title>
<g id="a_edge1_Node000001_Node000002"><a xlink:title=" ">
<path fill="none" stroke="#9a32cd" stroke-dasharray="5,2" d="M312.15,-236.91C316.53,-203.61 325.13,-138.28 328.29,-114.2"/>
<polygon fill="#9a32cd" stroke="#9a32cd" points="308.73,-236.08 310.89,-246.45 315.67,-236.99 308.73,-236.08"/>
</a>
</g>
<text text-anchor="middle" x="335" y="-196.5" font-family="Helvetica,sans-Serif" font-size="10.00" fill="grey"> obj</text>
<text text-anchor="middle" x="335" y="-184.5" font-family="Helvetica,sans-Serif" font-size="10.00" fill="grey">parent</text>
</g>
<!-- Node2&#45;&gt;Node7 -->
<g id="edge9_Node000007_Node000002" class="edge">
<title>Node2&#45;&gt;Node7</title>
<g id="a_edge9_Node000007_Node000002"><a xlink:title=" ">
<path fill="none" stroke="#9a32cd" stroke-dasharray="5,2" d="M304.91,-236.62C300.12,-216.41 292.01,-184.68 282.5,-158 279.57,-149.75 276.32,-148.56 274.5,-140 267.86,-108.7 268.17,-99.37 274.5,-68 278.08,-50.32 287.3,-31.3 293.21,-20.31"/>
<polygon fill="#9a32cd" stroke="#9a32cd" points="301.44,-237.14 307.1,-246.1 308.26,-235.57 301.44,-237.14"/>
</a>
</g>
<text text-anchor="middle" x="288" y="-106.5" font-family="Helvetica,sans-Serif" font-size="10.00" fill="grey"> obj</text>
<text text-anchor="middle" x="288" y="-94.5" font-family="Helvetica,sans-Serif" font-size="10.00" fill="grey">parent</text>
</g>
<!-- Node3 -->
<g id="Node000003" class="node">
<title>Node3</title>
<g id="a_Node000003"><a xlink:href="../../db/d06/class_param3.html" target="_top" xlink:title=" ">
<polygon fill="white" stroke="#666666" points="153.38,-268 103.63,-268 103.63,-248 153.38,-248 153.38,-268"/>
<text text-anchor="middle" x="128.5" y="-254.5" font-family="Helvetica,sans-Serif" font-size="10.00">Param3</text>
</a>
</g>
</g>
<!-- Node3&#45;&gt;Node1 -->
<g id="edge2_Node000001_Node000003" class="edge">
<title>Node3&#45;&gt;Node1</title>
<g id="a_edge2_Node000001_Node000003"><a xlink:title=" ">
<path fill="none" stroke="#9a32cd" stroke-dasharray="5,2" d="M139.5,-238.19C155.59,-210.93 184.51,-163.13 192.25,-158 231.46,-132.04 255.08,-162.25 296.5,-140 307.84,-133.91 317.48,-122.48 323.36,-114.34"/>
<polygon fill="#9a32cd" stroke="#9a32cd" points="136.66,-236.11 134.61,-246.51 142.7,-239.66 136.66,-236.11"/>
</a>
</g>
<text text-anchor="middle" x="250.63" y="-220.5" font-family="Helvetica,sans-Serif" font-size="10.00" fill="grey"> NO_SORTING</text>
<text text-anchor="middle" x="250.63" y="-208.5" font-family="Helvetica,sans-Serif" font-size="10.00" fill="grey">geomLevel</text>
<text text-anchor="middle" x="250.63" y="-196.5" font-family="Helvetica,sans-Serif" font-size="10.00" fill="grey">hierLevel</text>
<text text-anchor="start" x="192.5" y="-184.5" font-family="Helvetica,sans-Serif" font-size="10.00" fill="grey">m_CurrentSettingAlternate</text>
<text text-anchor="middle" x="250.63" y="-172.5" font-family="Helvetica,sans-Serif" font-size="10.00" fill="grey">KeyIndex</text>
<text text-anchor="middle" x="250.63" y="-160.5" font-family="Helvetica,sans-Serif" font-size="10.00" fill="grey">m_CurrentSettingKeyIndex</text>
</g>
<!-- Node3&#45;&gt;Node7 -->
<g id="edge10_Node000007_Node000003" class="edge">
<title>Node3&#45;&gt;Node7</title>
<g id="a_edge10_Node000007_Node000003"><a xlink:title=" ">
<path fill="none" stroke="#9a32cd" stroke-dasharray="5,2" d="M92.54,-247.75C83.87,-243.75 75.64,-238.06 70.5,-230 53.3,-203.02 59.16,-187.92 70.5,-158 89.46,-108.03 106.34,-98.46 150.25,-68 183.79,-44.74 228.1,-29.33 259.52,-20.46"/>
<polygon fill="#9a32cd" stroke="#9a32cd" points="91.15,-250.97 101.74,-251.3 93.67,-244.44 91.15,-250.97"/>
</a>
</g>
<text text-anchor="middle" x="208.63" y="-130.5" font-family="Helvetica,sans-Serif" font-size="10.00" fill="grey"> NO_SORTING</text>
<text text-anchor="middle" x="208.63" y="-118.5" font-family="Helvetica,sans-Serif" font-size="10.00" fill="grey">geomLevel</text>
<text text-anchor="middle" x="208.63" y="-106.5" font-family="Helvetica,sans-Serif" font-size="10.00" fill="grey">hierLevel</text>
<text text-anchor="start" x="150.5" y="-94.5" font-family="Helvetica,sans-Serif" font-size="10.00" fill="grey">m_CurrentSettingAlternate</text>
<text text-anchor="middle" x="208.63" y="-82.5" font-family="Helvetica,sans-Serif" font-size="10.00" fill="grey">KeyIndex</text>
<text text-anchor="middle" x="208.63" y="-70.5" font-family="Helvetica,sans-Serif" font-size="10.00" fill="grey">m_CurrentSettingKeyIndex</text>
</g>
<!-- Node4 -->
<g id="Node000004" class="node">
<title>Node4</title>
<g id="a_Node000004"><a xlink:href="../../d4/d04/class_class.html" target="_top" xlink:title="Super root of all classes in Enforce script.">
<polygon fill="white" stroke="#666666" points="48.88,-268 8.13,-268 8.13,-248 48.88,-248 48.88,-268"/>
<text text-anchor="middle" x="28.5" y="-254.5" font-family="Helvetica,sans-Serif" font-size="10.00">Class</text>
</a>
</g>
</g>
<!-- Node4&#45;&gt;Node1 -->
<g id="edge4_Node000001_Node000004" class="edge">
<title>Node4&#45;&gt;Node1</title>
<g id="a_edge4_Node000001_Node000004"><a xlink:title=" ">
<path fill="none" stroke="#9a32cd" stroke-dasharray="5,2" d="M34.47,-236.87C42.55,-213.54 59.38,-175.98 88.25,-158 167.11,-108.89 212.87,-180.45 296.5,-140 308.23,-134.33 317.92,-122.57 323.7,-114.25"/>
<polygon fill="#9a32cd" stroke="#9a32cd" points="31.22,-235.57 31.49,-246.16 37.88,-237.71 31.22,-235.57"/>
</a>
</g>
<text text-anchor="middle" x="115.13" y="-190.5" font-family="Helvetica,sans-Serif" font-size="10.00" fill="grey"> m_Instance</text>
</g>
<!-- Node4&#45;&gt;Node7 -->
<g id="edge12_Node000007_Node000004" class="edge">
<title>Node4&#45;&gt;Node7</title>
<g id="a_edge12_Node000007_Node000004"><a xlink:title=" ">
<path fill="none" stroke="#9a32cd" stroke-dasharray="5,2" d="M20.31,-237.28C6.13,-199.69 -17.79,-117.15 22.25,-68 51.1,-32.6 184.53,-18.53 254.86,-13.49"/>
<polygon fill="#9a32cd" stroke="#9a32cd" points="16.98,-238.39 23.92,-246.4 23.49,-235.81 16.98,-238.39"/>
</a>
</g>
<text text-anchor="middle" x="49.13" y="-100.5" font-family="Helvetica,sans-Serif" font-size="10.00" fill="grey"> m_Instance</text>
</g>
<!-- Node5 -->
<g id="Node000005" class="node">
<title>Node5</title>
<g id="a_Node000005"><a xlink:href="../../d5/d02/classstring.html" target="_top" xlink:title=" ">
<polygon fill="white" stroke="#666666" points="522.5,-268 482.5,-268 482.5,-248 522.5,-248 522.5,-268"/>
<text text-anchor="middle" x="502.5" y="-254.5" font-family="Helvetica,sans-Serif" font-size="10.00">string</text>
</a>
</g>
</g>
<!-- Node5&#45;&gt;Node1 -->
<g id="edge5_Node000001_Node000005" class="edge">
<title>Node5&#45;&gt;Node1</title>
<g id="a_edge5_Node000001_Node000005"><a xlink:title=" ">
<path fill="none" stroke="#9a32cd" stroke-dasharray="5,2" d="M486,-239.27C483.35,-236.23 480.68,-233.07 478.25,-230 454.16,-199.47 457.52,-183.9 428.5,-158 404.36,-136.45 369.9,-120.56 348.66,-112.05"/>
<polygon fill="#9a32cd" stroke="#9a32cd" points="483.36,-241.56 492.66,-246.64 488.55,-236.87 483.36,-241.56"/>
</a>
</g>
<text text-anchor="middle" x="495.13" y="-190.5" font-family="Helvetica,sans-Serif" font-size="10.00" fill="grey"> m_Test</text>
</g>
<!-- Node5&#45;&gt;Node5 -->
<g id="edge6_Node000005_Node000005" class="edge">
<title>Node5&#45;&gt;Node5</title>
<g id="a_edge6_Node000005_Node000005"><a xlink:title=" ">
<path fill="none" stroke="#9a32cd" stroke-dasharray="5,2" d="M528.27,-269.91C535.22,-269.28 540.5,-265.31 540.5,-258 540.5,-247.12 528.8,-243.64 517.33,-247.55"/>
<polygon fill="#9a32cd" stroke="#9a32cd" points="529.2,-266.5 518.83,-268.65 528.28,-273.44 529.2,-266.5"/>
</a>
</g>
<text text-anchor="middle" x="556.25" y="-254.5" font-family="Helvetica,sans-Serif" font-size="10.00" fill="grey"> Empty</text>
</g>
<!-- Node5&#45;&gt;Node7 -->
<g id="edge13_Node000007_Node000005" class="edge">
<title>Node5&#45;&gt;Node7</title>
<g id="a_edge13_Node000007_Node000005"><a xlink:title=" ">
<path fill="none" stroke="#9a32cd" stroke-dasharray="5,2" d="M511.54,-237.28C512.35,-234.87 513.03,-232.41 513.5,-230 527.43,-158.91 540.54,-124.75 495.5,-68 476.47,-44.01 394.09,-26.53 342.07,-17.64"/>
<polygon fill="#9a32cd" stroke="#9a32cd" points="508.37,-235.79 507.87,-246.38 514.86,-238.42 508.37,-235.79"/>
</a>
</g>
<text text-anchor="middle" x="543.13" y="-100.5" font-family="Helvetica,sans-Serif" font-size="10.00" fill="grey"> m_Test</text>
</g>
<!-- Node6 -->
<g id="Node000006" class="node">
<title>Node6</title>
<g id="a_Node000006"><a xlink:href="../../dd/d0a/class_widget.html" target="_top" xlink:title=" ">
<polygon fill="white" stroke="#666666" points="424.88,-268 378.13,-268 378.13,-248 424.88,-248 424.88,-268"/>
<text text-anchor="middle" x="401.5" y="-254.5" font-family="Helvetica,sans-Serif" font-size="10.00">Widget</text>
</a>
</g>
</g>
<!-- Node6&#45;&gt;Node1 -->
<g id="edge7_Node000001_Node000006" class="edge">
<title>Node6&#45;&gt;Node1</title>
<g id="a_edge7_Node000001_Node000006"><a xlink:title=" ">
<path fill="none" stroke="#9a32cd" stroke-dasharray="5,2" d="M392.4,-237.78C376.76,-204.76 345.37,-138.49 333.86,-114.2"/>
<polygon fill="#9a32cd" stroke="#9a32cd" points="389.12,-239.04 396.57,-246.58 395.45,-236.04 389.12,-239.04"/>
</a>
</g>
<text text-anchor="middle" x="405.88" y="-190.5" font-family="Helvetica,sans-Serif" font-size="10.00" fill="grey"> m_Root</text>
</g>
<!-- Node6&#45;&gt;Node7 -->
<g id="edge14_Node000007_Node000006" class="edge">
<title>Node6&#45;&gt;Node7</title>
<g id="a_edge14_Node000007_Node000006"><a xlink:title=" ">
<path fill="none" stroke="#9a32cd" stroke-dasharray="5,2" d="M422.46,-239.75C424.92,-236.77 427.06,-233.49 428.5,-230 461.29,-150.85 470.95,-99.69 411.5,-38 401.85,-27.98 369.77,-20.91 342.24,-16.53"/>
<polygon fill="#9a32cd" stroke="#9a32cd" points="420.16,-237.1 415.61,-246.66 425.13,-242.03 420.16,-237.1"/>
</a>
</g>
<text text-anchor="middle" x="472.88" y="-100.5" font-family="Helvetica,sans-Serif" font-size="10.00" fill="grey"> m_Root</text>
</g>
<!-- Node7&#45;&gt;Node1 -->
<g id="edge8_Node000001_Node000007" class="edge">
<title>Node7&#45;&gt;Node1</title>
<g id="a_edge8_Node000001_Node000007"><a xlink:title=" ">
<path fill="none" stroke="#9a32cd" stroke-dasharray="5,2" d="M297.17,-31.71C297.28,-37.7 297.89,-44.19 299.5,-50 304.14,-66.71 315.15,-83.76 322.46,-93.86"/>
<polygon fill="#9a32cd" stroke="#9a32cd" points="300.66,-32.09 297.44,-22 293.66,-31.9 300.66,-32.09"/>
</a>
</g>
<text text-anchor="middle" x="331" y="-40.5" font-family="Helvetica,sans-Serif" font-size="10.00" fill="grey"> m_Subgroups</text>
</g>
<!-- Node7&#45;&gt;Node7 -->
<g id="edge15_Node000007_Node000007" class="edge">
<title>Node7&#45;&gt;Node7</title>
<g id="a_edge15_Node000007_Node000007"><a xlink:title=" ">
<path fill="none" stroke="#9a32cd" stroke-dasharray="5,2" d="M353.13,-14.76C357.24,-13.7 359.75,-12.11 359.75,-10 359.75,-6.35 352.22,-4.26 342,-3.75"/>
<polygon fill="#9a32cd" stroke="#9a32cd" points="352.95,-11.26 343.5,-16.05 353.87,-18.19 352.95,-11.26"/>
</a>
</g>
<text text-anchor="middle" x="391.25" y="-6.5" font-family="Helvetica,sans-Serif" font-size="10.00" fill="grey"> m_Subgroups</text>
</g>
</g>
</svg>
