<?xml version="1.0" encoding="UTF-8" standalone="no"?>
<!DOCTYPE svg PUBLIC "-//W3C//DTD SVG 1.1//EN"
 "http://www.w3.org/Graphics/SVG/1.1/DTD/svg11.dtd">
<!-- Generated by graphviz version 11.0.0 (20240428.1522)
 -->
<!-- Title: UniversalTemperatureSourceSettings Pages: 1 -->
<svg width="1163pt" height="434pt"
 viewBox="0.00 0.00 1162.75 433.91" xmlns="http://www.w3.org/2000/svg" xmlns:xlink="http://www.w3.org/1999/xlink">
<g id="graph0" class="graph" transform="scale(1 1) rotate(0) translate(4 429.91)">
<title>UniversalTemperatureSourceSettings</title>
<!-- Node1 -->
<g id="Node000001" class="node">
<title>Node1</title>
<g id="a_Node000001"><a xlink:title=" ">
<polygon fill="#999999" stroke="#666666" points="270.88,-32 131.12,-32 131.12,0 270.88,0 270.88,-32"/>
<text text-anchor="start" x="139.12" y="-18.5" font-family="Helvetica,sans-Serif" font-size="10.00">UniversalTemperatureSource</text>
<text text-anchor="middle" x="201" y="-6.5" font-family="Helvetica,sans-Serif" font-size="10.00">Settings</text>
</a>
</g>
</g>
<!-- Node2 -->
<g id="Node000002" class="node">
<title>Node2</title>
<g id="a_Node000002"><a xlink:href="../../d4/d03/classfloat.html" target="_top" xlink:title=" ">
<polygon fill="white" stroke="#666666" points="34,-270 0,-270 0,-250 34,-250 34,-270"/>
<text text-anchor="middle" x="17" y="-256.5" font-family="Helvetica,sans-Serif" font-size="10.00">float</text>
</a>
</g>
</g>
<!-- Node2&#45;&gt;Node1 -->
<g id="edge1_Node000001_Node000002" class="edge">
<title>Node2&#45;&gt;Node1</title>
<g id="a_edge1_Node000001_Node000002"><a xlink:title=" ">
<path fill="none" stroke="#9a32cd" stroke-dasharray="5,2" d="M17.49,-238.75C19.44,-202.31 28.65,-125.27 70.75,-80 91.54,-57.65 121.93,-42.33 148.13,-32.39"/>
<polygon fill="#9a32cd" stroke="#9a32cd" points="14.01,-238.19 17.11,-248.32 21,-238.46 14.01,-238.19"/>
</a>
</g>
<text text-anchor="middle" x="114.12" y="-142.5" font-family="Helvetica,sans-Serif" font-size="10.00" fill="grey"> m_RangeFull</text>
<text text-anchor="middle" x="114.12" y="-130.5" font-family="Helvetica,sans-Serif" font-size="10.00" fill="grey">m_RangeMax</text>
<text text-anchor="middle" x="114.12" y="-118.5" font-family="Helvetica,sans-Serif" font-size="10.00" fill="grey">m_TemperatureCap</text>
<text text-anchor="middle" x="114.12" y="-106.5" font-family="Helvetica,sans-Serif" font-size="10.00" fill="grey">m_TemperatureMax</text>
<text text-anchor="middle" x="114.12" y="-94.5" font-family="Helvetica,sans-Serif" font-size="10.00" fill="grey">m_TemperatureMin</text>
<text text-anchor="middle" x="114.12" y="-82.5" font-family="Helvetica,sans-Serif" font-size="10.00" fill="grey">m_UpdateInterval</text>
</g>
<!-- Node2&#45;&gt;Node2 -->
<g id="edge2_Node000002_Node000002" class="edge">
<title>Node2&#45;&gt;Node2</title>
<g id="a_edge2_Node000002_Node000002"><a xlink:title=" ">
<path fill="none" stroke="#9a32cd" stroke-dasharray="5,2" d="M38.68,-273.5C46.06,-273.58 52,-269.08 52,-260 52,-246.64 39.15,-243.2 27.75,-249.67"/>
<polygon fill="#9a32cd" stroke="#9a32cd" points="39.78,-270.17 29.2,-270.75 37.83,-276.9 39.78,-270.17"/>
</a>
</g>
<text text-anchor="middle" x="74.12" y="-268.5" font-family="Helvetica,sans-Serif" font-size="10.00" fill="grey"> LOWEST</text>
<text text-anchor="middle" x="74.12" y="-256.5" font-family="Helvetica,sans-Serif" font-size="10.00" fill="grey">MAX</text>
<text text-anchor="middle" x="74.12" y="-244.5" font-family="Helvetica,sans-Serif" font-size="10.00" fill="grey">MIN</text>
</g>
<!-- Node5 -->
<g id="Node000005" class="node">
<title>Node5</title>
<g id="a_Node000005"><a xlink:href="../../df/d09/class_entity_a_i.html" target="_top" xlink:title=" ">
<polygon fill="white" stroke="#666666" points="421.25,-126 370.75,-126 370.75,-106 421.25,-106 421.25,-126"/>
<text text-anchor="middle" x="396" y="-112.5" font-family="Helvetica,sans-Serif" font-size="10.00">EntityAI</text>
</a>
</g>
</g>
<!-- Node2&#45;&gt;Node5 -->
<g id="edge23_Node000005_Node000002" class="edge">
<title>Node2&#45;&gt;Node5</title>
<g id="a_edge23_Node000005_Node000002"><a xlink:title=" ">
<path fill="none" stroke="#9a32cd" stroke-dasharray="5,2" d="M22.89,-238.96C30.27,-217.8 45.13,-185.4 70.5,-170 125.79,-136.43 302.04,-178.59 361,-152 373.22,-146.49 383.54,-134.7 389.74,-126.33"/>
<polygon fill="#9a32cd" stroke="#9a32cd" points="19.64,-237.61 19.92,-248.21 26.31,-239.75 19.64,-237.61"/>
</a>
</g>
<text text-anchor="middle" x="128.75" y="-190.5" font-family="Helvetica,sans-Serif" font-size="10.00" fill="grey"> SOUND_CONTACT_SKIP</text>
<text text-anchor="middle" x="128.75" y="-178.5" font-family="Helvetica,sans-Serif" font-size="10.00" fill="grey">m_SoundContactTickTime</text>
</g>
<!-- Node3 -->
<g id="Node000003" class="node">
<title>Node3</title>
<g id="a_Node000003"><a xlink:href="../../d9/d09/classbool.html" target="_top" xlink:title=" ">
<polygon fill="white" stroke="#666666" points="316,-270 282,-270 282,-250 316,-250 316,-270"/>
<text text-anchor="middle" x="299" y="-256.5" font-family="Helvetica,sans-Serif" font-size="10.00">bool</text>
</a>
</g>
</g>
<!-- Node3&#45;&gt;Node1 -->
<g id="edge3_Node000001_Node000003" class="edge">
<title>Node3&#45;&gt;Node1</title>
<g id="a_edge3_Node000001_Node000003"><a xlink:title=" ">
<path fill="none" stroke="#9a32cd" stroke-dasharray="5,2" d="M284.81,-241.12C278.98,-234.85 271.78,-228.31 264,-224 232.88,-206.75 211.22,-231.09 186,-206 146.1,-166.3 161.66,-135.08 173.25,-80 176.84,-62.92 185.36,-44.83 192.02,-32.44"/>
<polygon fill="#9a32cd" stroke="#9a32cd" points="282.12,-243.35 291.29,-248.67 287.43,-238.8 282.12,-243.35"/>
</a>
</g>
<text text-anchor="middle" x="211.88" y="-124.5" font-family="Helvetica,sans-Serif" font-size="10.00" fill="grey"> m_AffectStat</text>
<text text-anchor="middle" x="211.88" y="-112.5" font-family="Helvetica,sans-Serif" font-size="10.00" fill="grey">m_ManualUpdate</text>
<text text-anchor="middle" x="211.88" y="-100.5" font-family="Helvetica,sans-Serif" font-size="10.00" fill="grey">m_Updateable</text>
</g>
<!-- Node3&#45;&gt;Node5 -->
<g id="edge26_Node000005_Node000003" class="edge">
<title>Node3&#45;&gt;Node5</title>
<g id="a_edge26_Node000005_Node000003"><a xlink:title=" ">
<path fill="none" stroke="#9a32cd" stroke-dasharray="5,2" d="M298.29,-238.43C298.69,-218.74 302.27,-189.26 318.25,-170 331.41,-154.14 343.89,-163.5 361,-152 371.7,-144.81 381.87,-134.03 388.47,-126.33"/>
<polygon fill="#9a32cd" stroke="#9a32cd" points="294.79,-238.27 298.37,-248.24 301.79,-238.21 294.79,-238.27"/>
</a>
</g>
<text text-anchor="middle" x="360.38" y="-190.5" font-family="Helvetica,sans-Serif" font-size="10.00" fill="grey"> m_ActionsInitialize</text>
<text text-anchor="middle" x="360.38" y="-178.5" font-family="Helvetica,sans-Serif" font-size="10.00" fill="grey">m_IsMeleeWeapon</text>
</g>
<!-- Node4 -->
<g id="Node000004" class="node">
<title>Node4</title>
<g id="a_Node000004"><a xlink:href="../../d7/d0c/classvector.html" target="_top" xlink:title=" ">
<polygon fill="white" stroke="#666666" points="299.75,-126 258.25,-126 258.25,-106 299.75,-106 299.75,-126"/>
<text text-anchor="middle" x="279" y="-112.5" font-family="Helvetica,sans-Serif" font-size="10.00">vector</text>
</a>
</g>
</g>
<!-- Node4&#45;&gt;Node1 -->
<g id="edge4_Node000001_Node000004" class="edge">
<title>Node4&#45;&gt;Node1</title>
<g id="a_edge4_Node000001_Node000004"><a xlink:title=" ">
<path fill="none" stroke="#9a32cd" stroke-dasharray="5,2" d="M264.4,-96.66C249.61,-78.07 226.99,-49.65 213.15,-32.26"/>
<polygon fill="#9a32cd" stroke="#9a32cd" points="261.61,-98.77 270.58,-104.42 267.09,-94.42 261.61,-98.77"/>
</a>
</g>
<text text-anchor="middle" x="260.88" y="-52.5" font-family="Helvetica,sans-Serif" font-size="10.00" fill="grey"> m_Position</text>
</g>
<!-- Node4&#45;&gt;Node4 -->
<g id="edge5_Node000004_Node000004" class="edge">
<title>Node4&#45;&gt;Node4</title>
<g id="a_edge5_Node000004_Node000004"><a xlink:title=" ">
<path fill="none" stroke="#9a32cd" stroke-dasharray="5,2" d="M308.02,-126.76C313.71,-125.52 317.75,-121.93 317.75,-116 317.75,-106.51 307.4,-103.02 296.53,-105.54"/>
<polygon fill="#9a32cd" stroke="#9a32cd" points="308.14,-123.26 298.05,-126.5 307.95,-130.26 308.14,-123.26"/>
</a>
</g>
<text text-anchor="middle" x="335" y="-130.5" font-family="Helvetica,sans-Serif" font-size="10.00" fill="grey"> Aside</text>
<text text-anchor="middle" x="335" y="-118.5" font-family="Helvetica,sans-Serif" font-size="10.00" fill="grey">Forward</text>
<text text-anchor="middle" x="335" y="-106.5" font-family="Helvetica,sans-Serif" font-size="10.00" fill="grey">Up</text>
<text text-anchor="middle" x="335" y="-94.5" font-family="Helvetica,sans-Serif" font-size="10.00" fill="grey">Zero</text>
</g>
<!-- Node5&#45;&gt;Node1 -->
<g id="edge6_Node000001_Node000005" class="edge">
<title>Node5&#45;&gt;Node1</title>
<g id="a_edge6_Node000001_Node000005"><a xlink:title=" ">
<path fill="none" stroke="#9a32cd" stroke-dasharray="5,2" d="M380.91,-97.36C375.12,-91.31 368.17,-84.86 361,-80 329.36,-58.58 289.36,-42.83 257.27,-32.43"/>
<polygon fill="#9a32cd" stroke="#9a32cd" points="378.13,-99.5 387.44,-104.56 383.32,-94.8 378.13,-99.5"/>
</a>
</g>
<text text-anchor="middle" x="350.5" y="-52.5" font-family="Helvetica,sans-Serif" font-size="10.00" fill="grey"> m_Parent</text>
</g>
<!-- Node6 -->
<g id="Node000006" class="node">
<title>Node6</title>
<g id="a_Node000006"><a xlink:href="../../d2/d01/classarray.html" target="_top" xlink:title="Result for an object found in CGame.IsBoxCollidingGeometryProxy.">
<polygon fill="white" stroke="#666666" points="873.88,-270 836.12,-270 836.12,-250 873.88,-250 873.88,-270"/>
<text text-anchor="middle" x="855" y="-256.5" font-family="Helvetica,sans-Serif" font-size="10.00">array</text>
</a>
</g>
</g>
<!-- Node6&#45;&gt;Node5 -->
<g id="edge7_Node000005_Node000006" class="edge">
<title>Node6&#45;&gt;Node5</title>
<g id="a_edge7_Node000005_Node000006"><a xlink:title=" ">
<path fill="none" stroke="#9a32cd" stroke-dasharray="5,2" d="M835.88,-242.28C827.5,-235.72 817.26,-228.66 807,-224 774.12,-209.05 762.81,-214.68 727.75,-206 613.14,-177.62 477.36,-139.9 421.72,-124.27"/>
<polygon fill="#9a32cd" stroke="#9a32cd" points="833.62,-244.96 843.57,-248.61 838.07,-239.56 833.62,-244.96"/>
</a>
</g>
<text text-anchor="middle" x="776.12" y="-196.5" font-family="Helvetica,sans-Serif" font-size="10.00" fill="grey"> m_ContinuousActions</text>
<text text-anchor="middle" x="776.12" y="-184.5" font-family="Helvetica,sans-Serif" font-size="10.00" fill="grey">m_InteractActions</text>
<text text-anchor="middle" x="776.12" y="-172.5" font-family="Helvetica,sans-Serif" font-size="10.00" fill="grey">m_SingleUseActions</text>
</g>
<!-- Node6&#45;&gt;Node6 -->
<g id="edge10_Node000006_Node000006" class="edge">
<title>Node6&#45;&gt;Node6</title>
<g id="a_edge10_Node000006_Node000006"><a xlink:title=" ">
<path fill="none" stroke="#9a32cd" stroke-dasharray="5,2" d="M877.3,-273.49C885.33,-273.78 891.88,-269.29 891.88,-260 891.88,-246.64 878.33,-243.2 866.33,-249.67"/>
<polygon fill="#9a32cd" stroke="#9a32cd" points="878.36,-270.15 867.78,-270.75 876.43,-276.88 878.36,-270.15"/>
</a>
</g>
<text text-anchor="middle" x="912.88" y="-256.5" font-family="Helvetica,sans-Serif" font-size="10.00" fill="grey"> proxyInfo</text>
</g>
<!-- Node12 -->
<g id="Node000012" class="node">
<title>Node12</title>
<g id="a_Node000012"><a xlink:href="../../d2/d01/classarray.html" target="_top" xlink:title=" ">
<polygon fill="white" stroke="#666666" points="946.25,-126 859.75,-126 859.75,-106 946.25,-106 946.25,-126"/>
<text text-anchor="middle" x="903" y="-112.5" font-family="Helvetica,sans-Serif" font-size="10.00">array&lt; Widget &gt;</text>
</a>
</g>
</g>
<!-- Node6&#45;&gt;Node12 -->
<g id="edge18_Node000012_Node000006" class="edge">
<title>Node6&#45;&gt;Node12</title>
<g id="a_edge18_Node000012_Node000006"><a xlink:title=" ">
<path fill="none" stroke="#9a32cd" stroke-dasharray="5,2" d="M843.64,-239.77C834.22,-221.15 824.01,-192.5 835,-170 844.85,-149.83 866.51,-135.1 882.75,-126.36"/>
<polygon fill="#9a32cd" stroke="#9a32cd" points="840.47,-241.27 848.34,-248.37 846.61,-237.91 840.47,-241.27"/>
</a>
</g>
<text text-anchor="middle" x="856" y="-184.5" font-family="Helvetica,sans-Serif" font-size="10.00" fill="grey"> proxyInfo</text>
</g>
<!-- Node7 -->
<g id="Node000007" class="node">
<title>Node7</title>
<g id="a_Node000007"><a xlink:href="../../d8/d03/class_object.html" target="_top" xlink:title=" ">
<polygon fill="white" stroke="#666666" points="892.25,-424 847.75,-424 847.75,-404 892.25,-404 892.25,-424"/>
<text text-anchor="middle" x="870" y="-410.5" font-family="Helvetica,sans-Serif" font-size="10.00">Object</text>
</a>
</g>
</g>
<!-- Node7&#45;&gt;Node6 -->
<g id="edge8_Node000006_Node000007" class="edge">
<title>Node7&#45;&gt;Node6</title>
<g id="a_edge8_Node000006_Node000007"><a xlink:title=" ">
<path fill="none" stroke="#9a32cd" stroke-dasharray="5,2" d="M865.12,-392.5C864.69,-390.32 864.31,-388.12 864,-386 857.73,-343.16 855.77,-291.39 855.21,-270.46"/>
<polygon fill="#9a32cd" stroke="#9a32cd" points="861.66,-393.07 867.22,-402.09 868.49,-391.57 861.66,-393.07"/>
</a>
</g>
<text text-anchor="middle" x="877.5" y="-352.5" font-family="Helvetica,sans-Serif" font-size="10.00" fill="grey"> obj</text>
<text text-anchor="middle" x="877.5" y="-340.5" font-family="Helvetica,sans-Serif" font-size="10.00" fill="grey">parent</text>
</g>
<!-- Node7&#45;&gt;Node12 -->
<g id="edge16_Node000012_Node000007" class="edge">
<title>Node7&#45;&gt;Node12</title>
<g id="a_edge16_Node000012_Node000007"><a xlink:title=" ">
<path fill="none" stroke="#9a32cd" stroke-dasharray="5,2" d="M904.15,-413.27C925.87,-411.43 952.55,-405.03 967,-386 985.25,-361.98 980.57,-218.8 958,-170 949.32,-151.22 930.79,-135.65 917.65,-126.35"/>
<polygon fill="#9a32cd" stroke="#9a32cd" points="904.02,-409.77 894.21,-413.79 904.38,-416.76 904.02,-409.77"/>
</a>
</g>
<text text-anchor="middle" x="991.5" y="-262.5" font-family="Helvetica,sans-Serif" font-size="10.00" fill="grey"> obj</text>
<text text-anchor="middle" x="991.5" y="-250.5" font-family="Helvetica,sans-Serif" font-size="10.00" fill="grey">parent</text>
</g>
<!-- Node8 -->
<g id="Node000008" class="node">
<title>Node8</title>
<g id="a_Node000008"><a xlink:href="../../db/d06/class_param3.html" target="_top" xlink:title=" ">
<polygon fill="white" stroke="#666666" points="746.88,-424 697.12,-424 697.12,-404 746.88,-404 746.88,-424"/>
<text text-anchor="middle" x="722" y="-410.5" font-family="Helvetica,sans-Serif" font-size="10.00">Param3</text>
</a>
</g>
</g>
<!-- Node8&#45;&gt;Node6 -->
<g id="edge9_Node000006_Node000008" class="edge">
<title>Node8&#45;&gt;Node6</title>
<g id="a_edge9_Node000006_Node000008"><a xlink:title=" ">
<path fill="none" stroke="#9a32cd" stroke-dasharray="5,2" d="M718.97,-392.31C716.97,-370.13 717.58,-335.25 736.75,-314 758.34,-290.07 777.85,-309.74 807,-296 821.18,-289.32 835.44,-278.23 844.69,-270.33"/>
<polygon fill="#9a32cd" stroke="#9a32cd" points="715.49,-392.68 720.16,-402.2 722.45,-391.85 715.49,-392.68"/>
</a>
</g>
<text text-anchor="middle" x="794.12" y="-376.5" font-family="Helvetica,sans-Serif" font-size="10.00" fill="grey"> NO_SORTING</text>
<text text-anchor="middle" x="794.12" y="-364.5" font-family="Helvetica,sans-Serif" font-size="10.00" fill="grey">geomLevel</text>
<text text-anchor="middle" x="794.12" y="-352.5" font-family="Helvetica,sans-Serif" font-size="10.00" fill="grey">hierLevel</text>
<text text-anchor="start" x="736" y="-340.5" font-family="Helvetica,sans-Serif" font-size="10.00" fill="grey">m_CurrentSettingAlternate</text>
<text text-anchor="middle" x="794.12" y="-328.5" font-family="Helvetica,sans-Serif" font-size="10.00" fill="grey">KeyIndex</text>
<text text-anchor="middle" x="794.12" y="-316.5" font-family="Helvetica,sans-Serif" font-size="10.00" fill="grey">m_CurrentSettingKeyIndex</text>
</g>
<!-- Node8&#45;&gt;Node12 -->
<g id="edge17_Node000012_Node000008" class="edge">
<title>Node8&#45;&gt;Node12</title>
<g id="a_edge17_Node000012_Node000008"><a xlink:title=" ">
<path fill="none" stroke="#9a32cd" stroke-dasharray="5,2" d="M686.11,-409.05C671.48,-405.48 655.94,-398.72 647,-386 628.6,-359.82 637.29,-344.49 647,-314 680.68,-208.19 815.4,-148.21 874.72,-126.46"/>
<polygon fill="#9a32cd" stroke="#9a32cd" points="685.01,-412.4 695.5,-410.92 686.37,-405.54 685.01,-412.4"/>
</a>
</g>
<text text-anchor="middle" x="761.12" y="-286.5" font-family="Helvetica,sans-Serif" font-size="10.00" fill="grey"> NO_SORTING</text>
<text text-anchor="middle" x="761.12" y="-274.5" font-family="Helvetica,sans-Serif" font-size="10.00" fill="grey">geomLevel</text>
<text text-anchor="middle" x="761.12" y="-262.5" font-family="Helvetica,sans-Serif" font-size="10.00" fill="grey">hierLevel</text>
<text text-anchor="start" x="703" y="-250.5" font-family="Helvetica,sans-Serif" font-size="10.00" fill="grey">m_CurrentSettingAlternate</text>
<text text-anchor="middle" x="761.12" y="-238.5" font-family="Helvetica,sans-Serif" font-size="10.00" fill="grey">KeyIndex</text>
<text text-anchor="middle" x="761.12" y="-226.5" font-family="Helvetica,sans-Serif" font-size="10.00" fill="grey">m_CurrentSettingKeyIndex</text>
</g>
<!-- Node9 -->
<g id="Node000009" class="node">
<title>Node9</title>
<g id="a_Node000009"><a xlink:href="../../d4/d04/class_class.html" target="_top" xlink:title="Super root of all classes in Enforce script.">
<polygon fill="white" stroke="#666666" points="1022.38,-424 981.62,-424 981.62,-404 1022.38,-404 1022.38,-424"/>
<text text-anchor="middle" x="1002" y="-410.5" font-family="Helvetica,sans-Serif" font-size="10.00">Class</text>
</a>
</g>
</g>
<!-- Node9&#45;&gt;Node6 -->
<g id="edge11_Node000006_Node000009" class="edge">
<title>Node9&#45;&gt;Node6</title>
<g id="a_edge11_Node000006_Node000009"><a xlink:title=" ">
<path fill="none" stroke="#9a32cd" stroke-dasharray="5,2" d="M970.45,-403.68C959.63,-399.45 947.94,-393.65 938.75,-386 909.24,-361.43 912.4,-345.88 891,-314 880.71,-298.67 868.63,-280.94 861.4,-270.36"/>
<polygon fill="#9a32cd" stroke="#9a32cd" points="969.25,-406.96 979.84,-407.01 971.59,-400.37 969.25,-406.96"/>
</a>
</g>
<text text-anchor="middle" x="964.62" y="-346.5" font-family="Helvetica,sans-Serif" font-size="10.00" fill="grey"> m_Instance</text>
</g>
<!-- Node9&#45;&gt;Node12 -->
<g id="edge19_Node000012_Node000009" class="edge">
<title>Node9&#45;&gt;Node12</title>
<g id="a_edge19_Node000012_Node000009"><a xlink:title=" ">
<path fill="none" stroke="#9a32cd" stroke-dasharray="5,2" d="M1032.95,-402.82C1040.48,-398.8 1047.62,-393.34 1052,-386 1068.39,-358.52 1059.07,-345.21 1052,-314 1036.05,-243.62 1025.77,-223.19 977,-170 960.23,-151.71 936.2,-135.92 920.12,-126.44"/>
<polygon fill="#9a32cd" stroke="#9a32cd" points="1031.73,-399.53 1024.04,-406.82 1034.6,-405.92 1031.73,-399.53"/>
</a>
</g>
<text text-anchor="middle" x="1073.62" y="-256.5" font-family="Helvetica,sans-Serif" font-size="10.00" fill="grey"> m_Instance</text>
</g>
<!-- Node10 -->
<g id="Node000010" class="node">
<title>Node10</title>
<g id="a_Node000010"><a xlink:href="../../d5/d02/classstring.html" target="_top" xlink:title=" ">
<polygon fill="white" stroke="#666666" points="595,-424 555,-424 555,-404 595,-404 595,-424"/>
<text text-anchor="middle" x="575" y="-410.5" font-family="Helvetica,sans-Serif" font-size="10.00">string</text>
</a>
</g>
</g>
<!-- Node10&#45;&gt;Node6 -->
<g id="edge12_Node000006_Node000010" class="edge">
<title>Node10&#45;&gt;Node6</title>
<g id="a_edge12_Node000006_Node000010"><a xlink:title=" ">
<path fill="none" stroke="#9a32cd" stroke-dasharray="5,2" d="M588.31,-394.58C606.09,-371.53 639.9,-332.8 678.75,-314 730.56,-288.93 753.65,-317.6 807,-296 821.72,-290.04 836.1,-278.58 845.22,-270.4"/>
<polygon fill="#9a32cd" stroke="#9a32cd" points="585.61,-392.36 582.41,-402.46 591.21,-396.55 585.61,-392.36"/>
</a>
</g>
<text text-anchor="middle" x="695.62" y="-346.5" font-family="Helvetica,sans-Serif" font-size="10.00" fill="grey"> m_Test</text>
</g>
<!-- Node10&#45;&gt;Node10 -->
<g id="edge13_Node000010_Node000010" class="edge">
<title>Node10&#45;&gt;Node10</title>
<g id="a_edge13_Node000010_Node000010"><a xlink:title=" ">
<path fill="none" stroke="#9a32cd" stroke-dasharray="5,2" d="M600.77,-425.91C607.72,-425.28 613,-421.31 613,-414 613,-403.12 601.3,-399.64 589.82,-403.55"/>
<polygon fill="#9a32cd" stroke="#9a32cd" points="601.7,-422.5 591.32,-424.65 600.77,-429.44 601.7,-422.5"/>
</a>
</g>
<text text-anchor="middle" x="628.75" y="-410.5" font-family="Helvetica,sans-Serif" font-size="10.00" fill="grey"> Empty</text>
</g>
<!-- Node10&#45;&gt;Node12 -->
<g id="edge20_Node000012_Node000010" class="edge">
<title>Node10&#45;&gt;Node12</title>
<g id="a_edge20_Node000012_Node000010"><a xlink:title=" ">
<path fill="none" stroke="#9a32cd" stroke-dasharray="5,2" d="M573.07,-392.53C568.59,-340.03 559.95,-202.42 589,-170 624.23,-130.68 781.68,-120.53 859.36,-117.91"/>
<polygon fill="#9a32cd" stroke="#9a32cd" points="569.56,-392.52 573.94,-402.17 576.53,-391.9 569.56,-392.52"/>
</a>
</g>
<text text-anchor="middle" x="588.62" y="-256.5" font-family="Helvetica,sans-Serif" font-size="10.00" fill="grey"> m_Test</text>
</g>
<!-- Node13 -->
<g id="Node000013" class="node">
<title>Node13</title>
<g id="a_Node000013"><a xlink:href="../../d4/d0d/class_sound_lookup_table.html" target="_top" xlink:title=" ">
<polygon fill="white" stroke="#666666" points="255.25,-270 156.75,-270 156.75,-250 255.25,-250 255.25,-270"/>
<text text-anchor="middle" x="206" y="-256.5" font-family="Helvetica,sans-Serif" font-size="10.00">SoundLookupTable</text>
</a>
</g>
</g>
<!-- Node10&#45;&gt;Node13 -->
<g id="edge25_Node000013_Node000010" class="edge">
<title>Node10&#45;&gt;Node13</title>
<g id="a_edge25_Node000013_Node000010"><a xlink:title=" ">
<path fill="none" stroke="#9a32cd" stroke-dasharray="5,2" d="M543.49,-407.32C520.53,-402.74 488.89,-395.49 462,-386 374.27,-355.02 356.25,-337.55 273,-296 256.09,-287.56 237.01,-277.54 223.54,-270.39"/>
<polygon fill="#9a32cd" stroke="#9a32cd" points="542.66,-410.72 553.14,-409.18 543.99,-403.85 542.66,-410.72"/>
</a>
</g>
<text text-anchor="middle" x="511.5" y="-352.5" font-family="Helvetica,sans-Serif" font-size="10.00" fill="grey"> m_parameterName</text>
<text text-anchor="middle" x="511.5" y="-340.5" font-family="Helvetica,sans-Serif" font-size="10.00" fill="grey">m_tableCategoryName</text>
</g>
<!-- Node11 -->
<g id="Node000011" class="node">
<title>Node11</title>
<g id="a_Node000011"><a xlink:href="../../dd/d0a/class_widget.html" target="_top" xlink:title=" ">
<polygon fill="white" stroke="#666666" points="1101.38,-424 1054.62,-424 1054.62,-404 1101.38,-404 1101.38,-424"/>
<text text-anchor="middle" x="1078" y="-410.5" font-family="Helvetica,sans-Serif" font-size="10.00">Widget</text>
</a>
</g>
</g>
<!-- Node11&#45;&gt;Node6 -->
<g id="edge14_Node000006_Node000011" class="edge">
<title>Node11&#45;&gt;Node6</title>
<g id="a_edge14_Node000006_Node000011"><a xlink:title=" ">
<path fill="none" stroke="#9a32cd" stroke-dasharray="5,2" d="M1065.94,-394.25C1050.98,-372.3 1023.54,-336.15 992,-314 972.28,-300.15 907,-277.86 874.19,-267.14"/>
<polygon fill="#9a32cd" stroke="#9a32cd" points="1062.97,-396.1 1071.41,-402.5 1068.8,-392.23 1062.97,-396.1"/>
</a>
</g>
<text text-anchor="middle" x="1077.38" y="-346.5" font-family="Helvetica,sans-Serif" font-size="10.00" fill="grey"> m_Root</text>
</g>
<!-- Node11&#45;&gt;Node12 -->
<g id="edge21_Node000012_Node000011" class="edge">
<title>Node11&#45;&gt;Node12</title>
<g id="a_edge21_Node000012_Node000011"><a xlink:title=" ">
<path fill="none" stroke="#9a32cd" stroke-dasharray="5,2" d="M1088.32,-393.34C1105.77,-357.11 1136.23,-278.55 1104,-224 1070.32,-166.99 994.66,-138.77 946.38,-126.08"/>
<polygon fill="#9a32cd" stroke="#9a32cd" points="1085.24,-391.67 1083.88,-402.17 1091.5,-394.81 1085.24,-391.67"/>
</a>
</g>
<text text-anchor="middle" x="1136.38" y="-256.5" font-family="Helvetica,sans-Serif" font-size="10.00" fill="grey"> m_Root</text>
</g>
<!-- Node12&#45;&gt;Node6 -->
<g id="edge15_Node000006_Node000012" class="edge">
<title>Node12&#45;&gt;Node6</title>
<g id="a_edge15_Node000006_Node000012"><a xlink:title=" ">
<path fill="none" stroke="#9a32cd" stroke-dasharray="5,2" d="M899.22,-137.58C895.55,-155.86 889.32,-183.14 881,-206 875.25,-221.79 866.2,-239.1 860.43,-249.5"/>
<polygon fill="#9a32cd" stroke="#9a32cd" points="902.65,-138.26 901.1,-127.78 895.77,-136.94 902.65,-138.26"/>
</a>
</g>
<text text-anchor="middle" x="922.5" y="-184.5" font-family="Helvetica,sans-Serif" font-size="10.00" fill="grey"> m_Subgroups</text>
</g>
<!-- Node12&#45;&gt;Node12 -->
<g id="edge22_Node000012_Node000012" class="edge">
<title>Node12&#45;&gt;Node12</title>
<g id="a_edge22_Node000012_Node000012"><a xlink:title=" ">
<path fill="none" stroke="#9a32cd" stroke-dasharray="5,2" d="M942.09,-127.24C954.47,-127.09 964.25,-123.34 964.25,-116 964.25,-106.51 947.9,-103.02 930.72,-105.54"/>
<polygon fill="#9a32cd" stroke="#9a32cd" points="942.44,-123.76 932.23,-126.56 941.96,-130.74 942.44,-123.76"/>
</a>
</g>
<text text-anchor="middle" x="995.75" y="-112.5" font-family="Helvetica,sans-Serif" font-size="10.00" fill="grey"> m_Subgroups</text>
</g>
<!-- Node13&#45;&gt;Node5 -->
<g id="edge24_Node000005_Node000013" class="edge">
<title>Node13&#45;&gt;Node5</title>
<g id="a_edge24_Node000005_Node000013"><a xlink:title=" ">
<path fill="none" stroke="#9a32cd" stroke-dasharray="5,2" d="M197.61,-238.85C190.78,-218.83 184.69,-188.53 201.25,-170 225.05,-143.36 328.81,-167.5 361,-152 373.08,-146.18 383.43,-134.46 389.68,-126.19"/>
<polygon fill="#9a32cd" stroke="#9a32cd" points="194.31,-240 201.13,-248.11 200.85,-237.52 194.31,-240"/>
</a>
</g>
<text text-anchor="middle" x="249.38" y="-184.5" font-family="Helvetica,sans-Serif" font-size="10.00" fill="grey"> m_SoundImpactTable</text>
</g>
<!-- Node14 -->
<g id="Node000014" class="node">
<title>Node14</title>
<g id="a_Node000014"><a xlink:href="../../d4/d0d/class_script_invoker.html" target="_top" xlink:title="ScriptInvoker Class provide list of callbacks &#160;&#160;usage:">
<polygon fill="white" stroke="#666666" points="460.75,-270 389.25,-270 389.25,-250 460.75,-250 460.75,-270"/>
<text text-anchor="middle" x="425" y="-256.5" font-family="Helvetica,sans-Serif" font-size="10.00">ScriptInvoker</text>
</a>
</g>
</g>
<!-- Node14&#45;&gt;Node5 -->
<g id="edge27_Node000005_Node000014" class="edge">
<title>Node14&#45;&gt;Node5</title>
<g id="a_edge27_Node000005_Node000014"><a xlink:title=" ">
<path fill="none" stroke="#9a32cd" stroke-dasharray="5,2" d="M420.8,-238.44C414.4,-207.11 402.47,-148.68 397.87,-126.17"/>
<polygon fill="#9a32cd" stroke="#9a32cd" points="417.36,-239.1 422.79,-248.2 424.22,-237.7 417.36,-239.1"/>
</a>
</g>
<text text-anchor="middle" x="480.5" y="-190.5" font-family="Helvetica,sans-Serif" font-size="10.00" fill="grey"> m_OnItemAddedToHands</text>
<text text-anchor="middle" x="480.5" y="-178.5" font-family="Helvetica,sans-Serif" font-size="10.00" fill="grey">m_OnItemRemovedFromHands</text>
</g>
</g>
</svg>
