<?xml version="1.0" encoding="UTF-8" standalone="no"?>
<!DOCTYPE svg PUBLIC "-//W3C//DTD SVG 1.1//EN"
 "http://www.w3.org/Graphics/SVG/1.1/DTD/svg11.dtd">
<!-- Generated by graphviz version 11.0.0 (20240428.1522)
 -->
<!-- Title: Emote ids Pages: 1 -->
<svg width="261pt" height="996pt"
 viewBox="0.00 0.00 260.50 996.00" xmlns="http://www.w3.org/2000/svg" xmlns:xlink="http://www.w3.org/1999/xlink">
<g id="graph0" class="graph" transform="scale(1 1) rotate(0) translate(4 992)">
<title>Emote ids</title>
<!-- Node6 -->
<g id="Node000006" class="node">
<title>Node6</title>
<g id="a_Node000006"><a xlink:href="../../dc/d0f/group___a_g_t_i_ds.html" target="_top" xlink:title=" ">
<polygon fill="white" stroke="#666666" points="224.38,-988 124.38,-988 124.38,-956 224.38,-956 224.38,-988"/>
<text text-anchor="start" x="132.38" y="-974.5" font-family="Helvetica,sans-Serif" font-size="10.00">Agent transmission</text>
<text text-anchor="middle" x="174.38" y="-962.5" font-family="Helvetica,sans-Serif" font-size="10.00"> system</text>
</a>
</g>
</g>
<!-- Node20 -->
<g id="Node000020" class="node">
<title>Node20</title>
<g id="a_Node000020"><a xlink:href="../../d2/d0f/group___barrel.html" target="_top" xlink:title=" ">
<polygon fill="white" stroke="#666666" points="232.25,-938 116.5,-938 116.5,-906 232.25,-906 232.25,-938"/>
<text text-anchor="start" x="124.5" y="-924.5" font-family="Helvetica,sans-Serif" font-size="10.00">Barrel related functions</text>
<text text-anchor="middle" x="174.38" y="-912.5" font-family="Helvetica,sans-Serif" font-size="10.00"> constants</text>
</a>
</g>
</g>
<!-- Node16 -->
<g id="Node000016" class="node">
<title>Node16</title>
<g id="a_Node000016"><a xlink:href="../../d5/d09/group___car_contact_constants.html" target="_top" xlink:title=" ">
<polygon fill="white" stroke="#666666" points="210.88,-888 137.88,-888 137.88,-868 210.88,-868 210.88,-888"/>
<text text-anchor="middle" x="174.38" y="-874.5" font-family="Helvetica,sans-Serif" font-size="10.00">Cars Contact</text>
</a>
</g>
</g>
<!-- Node15 -->
<g id="Node000015" class="node">
<title>Node15</title>
<g id="a_Node000015"><a xlink:href="../../d3/d09/group___car_fluids_constants.html" target="_top" xlink:title="damage per second dealt to attachment by fire">
<polygon fill="white" stroke="#666666" points="207.12,-850 141.62,-850 141.62,-830 207.12,-830 207.12,-850"/>
<text text-anchor="middle" x="174.38" y="-836.5" font-family="Helvetica,sans-Serif" font-size="10.00">Cars Fluids</text>
</a>
</g>
</g>
<!-- Node9 -->
<g id="Node000009" class="node">
<title>Node9</title>
<g id="a_Node000009"><a xlink:href="../../dc/d0c/group___chat_messages_visibility.html" target="_top" xlink:title=" ">
<polygon fill="white" stroke="#666666" points="233.38,-812 115.38,-812 115.38,-792 233.38,-792 233.38,-812"/>
<text text-anchor="middle" x="174.38" y="-798.5" font-family="Helvetica,sans-Serif" font-size="10.00">ChatMessagesVisibility</text>
</a>
</g>
</g>
<!-- Node2 -->
<g id="Node000002" class="node">
<title>Node2</title>
<g id="a_Node000002"><a xlink:href="../../d6/d0b/group___custom_emote_i_ds.html" target="_top" xlink:title=" ">
<polygon fill="white" stroke="#666666" points="237.12,-774 111.62,-774 111.62,-742 237.12,-742 237.12,-774"/>
<text text-anchor="start" x="119.62" y="-760.5" font-family="Helvetica,sans-Serif" font-size="10.00">Custom animation events</text>
<text text-anchor="middle" x="174.38" y="-748.5" font-family="Helvetica,sans-Serif" font-size="10.00"> ID for emotes</text>
</a>
</g>
</g>
<!-- Node1 -->
<g id="Node000001" class="node">
<title>Node1</title>
<g id="a_Node000001"><a xlink:title=" ">
<polygon fill="#999999" stroke="#666666" points="60.25,-516 0,-516 0,-496 60.25,-496 60.25,-516"/>
<text text-anchor="middle" x="30.12" y="-502.5" font-family="Helvetica,sans-Serif" font-size="10.00">Emote ids</text>
</a>
</g>
</g>
<!-- Node1&#45;&gt;Node6 -->
<g id="edge5" class="edge">
<title>Node1&#45;&gt;Node6</title>
<path fill="none" stroke="black" d="M31.4,-527.63C32.82,-607.21 41.69,-882.48 96.25,-947 103.43,-955.49 113.52,-961.12 124.05,-964.85"/>
<polygon fill="black" stroke="black" points="34.9,-527.69 31.24,-517.74 27.9,-527.79 34.9,-527.69"/>
</g>
<!-- Node1&#45;&gt;Node20 -->
<g id="edge19" class="edge">
<title>Node1&#45;&gt;Node20</title>
<path fill="none" stroke="black" d="M31.84,-527.5C34.72,-600.98 47.73,-840.69 96.25,-897 101.67,-903.29 108.69,-908.01 116.28,-911.55"/>
<polygon fill="black" stroke="black" points="35.35,-527.52 31.48,-517.65 28.35,-527.77 35.35,-527.52"/>
</g>
<!-- Node1&#45;&gt;Node16 -->
<g id="edge15" class="edge">
<title>Node1&#45;&gt;Node16</title>
<path fill="none" stroke="black" d="M32.11,-527.3C35.71,-596.06 50.48,-810.44 96.25,-859 106.84,-870.24 122.93,-875.28 137.68,-877.4"/>
<polygon fill="black" stroke="black" points="35.62,-527.56 31.63,-517.74 28.63,-527.91 35.62,-527.56"/>
</g>
<!-- Node1&#45;&gt;Node15 -->
<g id="edge14" class="edge">
<title>Node1&#45;&gt;Node15</title>
<path fill="none" stroke="black" d="M32.67,-527.88C37.65,-592.15 55.39,-778.57 96.25,-821 107.82,-833.02 125.69,-837.92 141.31,-839.75"/>
<polygon fill="black" stroke="black" points="36.16,-527.64 31.93,-517.93 29.18,-528.16 36.16,-527.64"/>
</g>
<!-- Node1&#45;&gt;Node9 -->
<g id="edge8" class="edge">
<title>Node1&#45;&gt;Node9</title>
<path fill="none" stroke="black" d="M33.3,-527.52C39.66,-586.1 60.08,-746.44 96.25,-783 101.49,-788.29 107.95,-792.2 114.88,-795.07"/>
<polygon fill="black" stroke="black" points="36.81,-527.45 32.29,-517.87 29.85,-528.18 36.81,-527.45"/>
</g>
<!-- Node1&#45;&gt;Node2 -->
<g id="edge1" class="edge">
<title>Node1&#45;&gt;Node2</title>
<path fill="none" stroke="black" d="M30.98,-527.95C31.88,-572.71 40.36,-675.18 96.25,-733 100.55,-737.45 105.66,-741.11 111.16,-744.12"/>
<polygon fill="black" stroke="black" points="34.48,-527.96 30.9,-517.99 27.48,-528.02 34.48,-527.96"/>
</g>
<!-- Node14 -->
<g id="Node000014" class="node">
<title>Node14</title>
<g id="a_Node000014"><a xlink:href="../../d6/d05/group___environment_cfg.html" target="_top" xlink:title=" ">
<polygon fill="white" stroke="#666666" points="223.62,-724 125.12,-724 125.12,-692 223.62,-692 223.62,-724"/>
<text text-anchor="start" x="133.12" y="-710.5" font-family="Helvetica,sans-Serif" font-size="10.00">Configurations for</text>
<text text-anchor="middle" x="174.38" y="-698.5" font-family="Helvetica,sans-Serif" font-size="10.00"> Environment class</text>
</a>
</g>
</g>
<!-- Node1&#45;&gt;Node14 -->
<g id="edge13" class="edge">
<title>Node1&#45;&gt;Node14</title>
<path fill="none" stroke="black" d="M33.09,-527.89C37.58,-564.99 51.91,-640.37 96.25,-683 104.16,-690.61 114.41,-695.9 124.84,-699.59"/>
<polygon fill="black" stroke="black" points="36.57,-527.55 32.04,-517.98 29.61,-528.29 36.57,-527.55"/>
</g>
<!-- Node21 -->
<g id="Node000021" class="node">
<title>Node21</title>
<g id="a_Node000021"><a xlink:href="../../df/d0a/group___f_o_v_settings.html" target="_top" xlink:title=" ">
<polygon fill="white" stroke="#666666" points="211.25,-674 137.5,-674 137.5,-654 211.25,-654 211.25,-674"/>
<text text-anchor="middle" x="174.38" y="-660.5" font-family="Helvetica,sans-Serif" font-size="10.00">FOV settings</text>
</a>
</g>
</g>
<!-- Node1&#45;&gt;Node21 -->
<g id="edge20" class="edge">
<title>Node1&#45;&gt;Node21</title>
<path fill="none" stroke="black" d="M35.11,-527.34C42,-558.1 59.13,-614.54 96.25,-645 107.66,-654.36 123,-659.21 137,-661.69"/>
<polygon fill="black" stroke="black" points="38.57,-526.8 33.13,-517.71 31.72,-528.21 38.57,-526.8"/>
</g>
<!-- Node23 -->
<g id="Node000023" class="node">
<title>Node23</title>
<g id="a_Node000023"><a xlink:href="../../d7/d0c/group___food_decay_constants.html" target="_top" xlink:title=" ">
<polygon fill="white" stroke="#666666" points="230.75,-636 118,-636 118,-616 230.75,-616 230.75,-636"/>
<text text-anchor="middle" x="174.38" y="-622.5" font-family="Helvetica,sans-Serif" font-size="10.00">Food decay constants</text>
</a>
</g>
</g>
<!-- Node1&#45;&gt;Node23 -->
<g id="edge22" class="edge">
<title>Node1&#45;&gt;Node23</title>
<path fill="none" stroke="black" d="M39.01,-526.87C48.86,-550.03 67.92,-586.78 96.25,-607 102.65,-611.57 110.02,-615.04 117.62,-617.68"/>
<polygon fill="black" stroke="black" points="42.36,-525.82 35.38,-517.85 35.87,-528.43 42.36,-525.82"/>
</g>
<!-- Node10 -->
<g id="Node000010" class="node">
<title>Node10</title>
<g id="a_Node000010"><a xlink:href="../../d7/d03/group___h_u_d_visibility.html" target="_top" xlink:title=" ">
<polygon fill="white" stroke="#666666" points="210.88,-598 137.88,-598 137.88,-578 210.88,-578 210.88,-598"/>
<text text-anchor="middle" x="174.38" y="-584.5" font-family="Helvetica,sans-Serif" font-size="10.00">HUDVisibility</text>
</a>
</g>
</g>
<!-- Node1&#45;&gt;Node10 -->
<g id="edge9" class="edge">
<title>Node1&#45;&gt;Node10</title>
<path fill="none" stroke="black" d="M45.73,-524.74C57.79,-538.95 76.15,-557.88 96.25,-569 108.92,-576.01 124.17,-580.46 137.76,-583.28"/>
<polygon fill="black" stroke="black" points="48.75,-522.91 39.71,-517.38 43.33,-527.34 48.75,-522.91"/>
</g>
<!-- Node24 -->
<g id="Node000024" class="node">
<title>Node24</title>
<g id="a_Node000024"><a xlink:href="../../d5/d0e/group___inventory_constants.html" target="_top" xlink:title=" ">
<polygon fill="white" stroke="#666666" points="224.38,-560 124.38,-560 124.38,-540 224.38,-540 224.38,-560"/>
<text text-anchor="middle" x="174.38" y="-546.5" font-family="Helvetica,sans-Serif" font-size="10.00">Inventory constants</text>
</a>
</g>
</g>
<!-- Node1&#45;&gt;Node24 -->
<g id="edge23" class="edge">
<title>Node1&#45;&gt;Node24</title>
<path fill="none" stroke="black" d="M66.88,-520.65C76.35,-524.27 86.62,-527.98 96.25,-531 106.12,-534.1 116.82,-537.01 127.03,-539.58"/>
<polygon fill="black" stroke="black" points="68.22,-517.41 57.64,-517.03 65.67,-523.93 68.22,-517.41"/>
</g>
<!-- Node18 -->
<g id="Node000018" class="node">
<title>Node18</title>
<g id="a_Node000018"><a xlink:href="../../d7/d07/group___item_damage.html" target="_top" xlink:title=" ">
<polygon fill="white" stroke="#666666" points="252.5,-522 96.25,-522 96.25,-490 252.5,-490 252.5,-522"/>
<text text-anchor="start" x="104.25" y="-508.5" font-family="Helvetica,sans-Serif" font-size="10.00">Item Damage Relative</text>
<text text-anchor="middle" x="174.38" y="-496.5" font-family="Helvetica,sans-Serif" font-size="10.00"> Values (ItemBase.GetHealth01)</text>
</a>
</g>
</g>
<!-- Node1&#45;&gt;Node18 -->
<g id="edge17" class="edge">
<title>Node1&#45;&gt;Node18</title>
<path fill="none" stroke="black" d="M71.93,-506C79.47,-506 87.58,-506 95.8,-506"/>
<polygon fill="black" stroke="black" points="72.11,-502.5 62.11,-506 72.11,-509.5 72.11,-502.5"/>
</g>
<!-- Node3 -->
<g id="Node000003" class="node">
<title>Node3</title>
<g id="a_Node000003"><a xlink:href="../../d3/d05/group___item_generator_cfg.html" target="_top" xlink:title=" ">
<polygon fill="white" stroke="#666666" points="230.38,-472 118.38,-472 118.38,-440 230.38,-440 230.38,-472"/>
<text text-anchor="start" x="126.38" y="-458.5" font-family="Helvetica,sans-Serif" font-size="10.00">Configurations for</text>
<text text-anchor="middle" x="174.38" y="-446.5" font-family="Helvetica,sans-Serif" font-size="10.00"> ItemsGenerator class</text>
</a>
</g>
</g>
<!-- Node1&#45;&gt;Node3 -->
<g id="edge2" class="edge">
<title>Node1&#45;&gt;Node3</title>
<path fill="none" stroke="black" d="M67.78,-491.54C77.03,-488 86.98,-484.28 96.25,-481 104.34,-478.14 112.96,-475.22 121.39,-472.43"/>
<polygon fill="black" stroke="black" points="66.79,-488.17 58.72,-495.04 69.31,-494.7 66.79,-488.17"/>
</g>
<!-- Node17 -->
<g id="Node000017" class="node">
<title>Node17</title>
<g id="a_Node000017"><a xlink:href="../../de/d05/group___item_health.html" target="_top" xlink:title=" ">
<polygon fill="white" stroke="#666666" points="241.62,-422 107.12,-422 107.12,-390 241.62,-390 241.62,-422"/>
<text text-anchor="start" x="115.12" y="-408.5" font-family="Helvetica,sans-Serif" font-size="10.00">Item Health States</text>
<text text-anchor="middle" x="174.38" y="-396.5" font-family="Helvetica,sans-Serif" font-size="10.00"> (ItemBase.GetHealthLevel)</text>
</a>
</g>
</g>
<!-- Node1&#45;&gt;Node17 -->
<g id="edge16" class="edge">
<title>Node1&#45;&gt;Node17</title>
<path fill="none" stroke="black" d="M43.73,-486.21C55.44,-469.31 74.34,-445.5 96.25,-431 101.18,-427.74 106.57,-424.87 112.13,-422.36"/>
<polygon fill="black" stroke="black" points="40.88,-484.17 38.24,-494.44 46.7,-488.06 40.88,-484.17"/>
</g>
<!-- Node12 -->
<g id="Node000012" class="node">
<title>Node12</title>
<g id="a_Node000012"><a xlink:href="../../d6/d08/group___item_variables.html" target="_top" xlink:title=" ">
<polygon fill="white" stroke="#666666" points="213.5,-372 135.25,-372 135.25,-352 213.5,-352 213.5,-372"/>
<text text-anchor="middle" x="174.38" y="-358.5" font-family="Helvetica,sans-Serif" font-size="10.00">Item Variables</text>
</a>
</g>
</g>
<!-- Node1&#45;&gt;Node12 -->
<g id="edge11" class="edge">
<title>Node1&#45;&gt;Node12</title>
<path fill="none" stroke="black" d="M36.31,-484.79C44.31,-456.69 62.39,-407.6 96.25,-381 107.2,-372.39 121.52,-367.62 134.84,-365"/>
<polygon fill="black" stroke="black" points="32.98,-483.71 33.8,-494.27 39.74,-485.51 32.98,-483.71"/>
</g>
<!-- Node19 -->
<g id="Node000019" class="node">
<title>Node19</title>
<g id="a_Node000019"><a xlink:href="../../d8/d03/group___item_wetness.html" target="_top" xlink:title=" ">
<polygon fill="white" stroke="#666666" points="228.5,-334 120.25,-334 120.25,-302 228.5,-302 228.5,-334"/>
<text text-anchor="start" x="128.25" y="-320.5" font-family="Helvetica,sans-Serif" font-size="10.00">Item Wetness States</text>
<text text-anchor="middle" x="174.38" y="-308.5" font-family="Helvetica,sans-Serif" font-size="10.00"> (ItemBase.GetWet)</text>
</a>
</g>
</g>
<!-- Node1&#45;&gt;Node19 -->
<g id="edge18" class="edge">
<title>Node1&#45;&gt;Node19</title>
<path fill="none" stroke="black" d="M33.85,-484.37C39.36,-449.67 55.02,-381.57 96.25,-343 102.93,-336.75 111.19,-332.06 119.8,-328.55"/>
<polygon fill="black" stroke="black" points="30.42,-483.63 32.47,-494.03 37.35,-484.62 30.42,-483.63"/>
</g>
<!-- Node22 -->
<g id="Node000022" class="node">
<title>Node22</title>
<g id="a_Node000022"><a xlink:href="../../d1/d01/group___lifetime_refresher_constants.html" target="_top" xlink:title=" ">
<polygon fill="white" stroke="#666666" points="232.62,-284 116.12,-284 116.12,-252 232.62,-252 232.62,-284"/>
<text text-anchor="start" x="124.12" y="-270.5" font-family="Helvetica,sans-Serif" font-size="10.00">Lifetime Refresher</text>
<text text-anchor="middle" x="174.38" y="-258.5" font-family="Helvetica,sans-Serif" font-size="10.00"> functionality constants</text>
</a>
</g>
</g>
<!-- Node1&#45;&gt;Node22 -->
<g id="edge21" class="edge">
<title>Node1&#45;&gt;Node22</title>
<path fill="none" stroke="black" d="M31.45,-484.54C33.28,-442.05 43.42,-346.72 96.25,-293 101.78,-287.38 108.58,-283.02 115.83,-279.64"/>
<polygon fill="black" stroke="black" points="27.96,-484.31 31.16,-494.41 34.96,-484.52 27.96,-484.31"/>
</g>
<!-- Node8 -->
<g id="Node000008" class="node">
<title>Node8</title>
<g id="a_Node000008"><a xlink:href="../../da/d05/group___liquid_throughputs.html" target="_top" xlink:title=" ">
<polygon fill="white" stroke="#666666" points="221.75,-234 127,-234 127,-214 221.75,-214 221.75,-234"/>
<text text-anchor="middle" x="174.38" y="-220.5" font-family="Helvetica,sans-Serif" font-size="10.00">LiquidThroughputs</text>
</a>
</g>
</g>
<!-- Node1&#45;&gt;Node8 -->
<g id="edge7" class="edge">
<title>Node1&#45;&gt;Node8</title>
<path fill="none" stroke="black" d="M33.6,-484.45C40.51,-427.92 61.83,-277.38 96.25,-243 104.45,-234.81 115.57,-229.95 126.81,-227.12"/>
<polygon fill="black" stroke="black" points="30.16,-483.72 32.46,-494.06 37.11,-484.55 30.16,-483.72"/>
</g>
<!-- Node7 -->
<g id="Node000007" class="node">
<title>Node7</title>
<g id="a_Node000007"><a xlink:href="../../d9/d09/group___liquid_types.html" target="_top" xlink:title=" ">
<polygon fill="white" stroke="#666666" points="208.25,-196 140.5,-196 140.5,-176 208.25,-176 208.25,-196"/>
<text text-anchor="middle" x="174.38" y="-182.5" font-family="Helvetica,sans-Serif" font-size="10.00">LiquidTypes</text>
</a>
</g>
</g>
<!-- Node1&#45;&gt;Node7 -->
<g id="edge6" class="edge">
<title>Node1&#45;&gt;Node7</title>
<path fill="none" stroke="black" d="M32.88,-484.29C38.35,-422.11 57.11,-245.27 96.25,-205 107.59,-193.33 124.86,-188.38 140.19,-186.44"/>
<polygon fill="black" stroke="black" points="29.4,-483.96 32.04,-494.22 36.37,-484.55 29.4,-483.96"/>
</g>
<!-- Node11 -->
<g id="Node000011" class="node">
<title>Node11</title>
<g id="a_Node000011"><a xlink:href="../../dc/d0c/group___lock_constants.html" target="_top" xlink:title=" ">
<polygon fill="white" stroke="#666666" points="213.5,-158 135.25,-158 135.25,-138 213.5,-138 213.5,-158"/>
<text text-anchor="middle" x="174.38" y="-144.5" font-family="Helvetica,sans-Serif" font-size="10.00">Controls locks</text>
</a>
</g>
</g>
<!-- Node1&#45;&gt;Node11 -->
<g id="edge10" class="edge">
<title>Node1&#45;&gt;Node11</title>
<path fill="none" stroke="black" d="M32.29,-484.68C36.36,-417.72 52.25,-213.34 96.25,-167 106.22,-156.5 120.99,-151.42 134.94,-149.07"/>
<polygon fill="black" stroke="black" points="28.81,-484.14 31.73,-494.32 35.8,-484.54 28.81,-484.14"/>
</g>
<!-- Node4 -->
<g id="Node000004" class="node">
<title>Node4</title>
<g id="a_Node000004"><a xlink:href="../../d0/d07/group___s_a_t_i_ds.html" target="_top" xlink:title=" ">
<polygon fill="white" stroke="#666666" points="241.25,-120 107.5,-120 107.5,-100 241.25,-100 241.25,-120"/>
<text text-anchor="middle" x="174.38" y="-106.5" font-family="Helvetica,sans-Serif" font-size="10.00">Selectable action types ids</text>
</a>
</g>
</g>
<!-- Node1&#45;&gt;Node4 -->
<g id="edge3" class="edge">
<title>Node1&#45;&gt;Node4</title>
<path fill="none" stroke="black" d="M31.83,-484.67C34.66,-412.84 47.45,-181.37 96.25,-129 99.45,-125.57 103.15,-122.72 107.18,-120.35"/>
<polygon fill="black" stroke="black" points="28.35,-484.17 31.48,-494.29 35.34,-484.43 28.35,-484.17"/>
</g>
<!-- Node13 -->
<g id="Node000013" class="node">
<title>Node13</title>
<g id="a_Node000013"><a xlink:href="../../d6/d0a/group___stamina_handler_cfg.html" target="_top" xlink:title=" ">
<polygon fill="white" stroke="#666666" points="231.5,-82 117.25,-82 117.25,-50 231.5,-50 231.5,-82"/>
<text text-anchor="start" x="125.25" y="-68.5" font-family="Helvetica,sans-Serif" font-size="10.00">Configurations for</text>
<text text-anchor="middle" x="174.38" y="-56.5" font-family="Helvetica,sans-Serif" font-size="10.00"> StaminaHandler class</text>
</a>
</g>
</g>
<!-- Node1&#45;&gt;Node13 -->
<g id="edge12" class="edge">
<title>Node1&#45;&gt;Node13</title>
<path fill="none" stroke="black" d="M31.62,-484.18C33.81,-407.41 44.89,-151.18 96.25,-91 101.82,-84.47 109.12,-79.63 117,-76.05"/>
<polygon fill="black" stroke="black" points="28.13,-484.03 31.37,-494.11 35.12,-484.21 28.13,-484.03"/>
</g>
<!-- Node5 -->
<g id="Node000005" class="node">
<title>Node5</title>
<g id="a_Node000005"><a xlink:href="../../dd/d00/group___u_a_i_ds.html" target="_top" xlink:title=" ">
<polygon fill="white" stroke="#666666" points="229.62,-32 119.12,-32 119.12,0 229.62,0 229.62,-32"/>
<text text-anchor="start" x="127.12" y="-18.5" font-family="Helvetica,sans-Serif" font-size="10.00">User action internal</text>
<text text-anchor="middle" x="174.38" y="-6.5" font-family="Helvetica,sans-Serif" font-size="10.00"> state machine states</text>
</a>
</g>
</g>
<!-- Node1&#45;&gt;Node5 -->
<g id="edge4" class="edge">
<title>Node1&#45;&gt;Node5</title>
<path fill="none" stroke="black" d="M31.21,-484.26C31.99,-401.78 38.8,-109.46 96.25,-41 102.22,-33.88 110.24,-28.78 118.85,-25.11"/>
<polygon fill="black" stroke="black" points="27.72,-484.09 31.15,-494.11 34.72,-484.14 27.72,-484.09"/>
</g>
</g>
</svg>
