<?xml version="1.0" encoding="UTF-8" standalone="no"?>
<!DOCTYPE svg PUBLIC "-//W3C//DTD SVG 1.1//EN"
 "http://www.w3.org/Graphics/SVG/1.1/DTD/svg11.dtd">
<!-- Generated by graphviz version 11.0.0 (20240428.1522)
 -->
<!-- Title: ModStructure Pages: 1 -->
<svg width="195pt" height="185pt"
 viewBox="0.00 0.00 194.62 184.60" xmlns="http://www.w3.org/2000/svg" xmlns:xlink="http://www.w3.org/1999/xlink">

<svg id="main" version="1.1" xmlns="http://www.w3.org/2000/svg" xmlns:xlink="http://www.w3.org/1999/xlink" xml:space="preserve" onload="init(evt)">
<style type="text/css"><![CDATA[
.node, .edge {opacity: 0.7;}
.node.selected, .edge.selected {opacity: 1;}
.edge:hover path { stroke: red; }
.edge:hover polygon { stroke: red; fill: red; }
]]></style>
<script type="application/ecmascript" xlink:href="../../svg.min.js"/>
<svg id="graph" class="graph">
<g id="graph0" class="graph" transform="scale(1 1) rotate(0) translate(4 180.6)">
<title>ModStructure</title>
<!-- Node1 -->
<g id="Node000001" class="node">
<title>Node1</title>
<g id="a_Node000001"><a xlink:title=" ">
<polygon fill="#999999" stroke="#666666" points="103.12,-20 28.62,-20 28.62,0 103.12,0 103.12,-20"/>
<text text-anchor="middle" x="65.88" y="-6.5" font-family="Helvetica,sans-Serif" font-size="10.00">ModStructure</text>
</a>
</g>
</g>
<!-- Node2 -->
<g id="Node000002" class="node">
<title>Node2</title>
<g id="a_Node000002"><a xlink:href="../../db/d06/class_param3.html" target="_top" xlink:title=" ">
<polygon fill="white" stroke="#666666" points="49.75,-172 0,-172 0,-152 49.75,-152 49.75,-172"/>
<text text-anchor="middle" x="24.88" y="-158.5" font-family="Helvetica,sans-Serif" font-size="10.00">Param3</text>
</a>
</g>
</g>
<!-- Node2&#45;&gt;Node1 -->
<g id="edge1_Node000001_Node000002" class="edge">
<title>Node2&#45;&gt;Node1</title>
<g id="a_edge1_Node000001_Node000002"><a xlink:title=" ">
<path fill="none" stroke="#9a32cd" stroke-dasharray="5,2" d="M19.72,-140.75C14.36,-115.15 8.96,-70.52 26.38,-38 30.38,-30.53 37.46,-24.73 44.53,-20.45"/>
<polygon fill="#9a32cd" stroke="#9a32cd" points="16.24,-141.22 21.9,-150.17 23.06,-139.64 16.24,-141.22"/>
</a>
</g>
<text text-anchor="middle" x="56.12" y="-82.5" font-family="Helvetica,sans-Serif" font-size="10.00" fill="grey"> m_ModIndex</text>
</g>
<!-- Node3 -->
<g id="Node000003" class="node">
<title>Node3</title>
<g id="a_Node000003"><a xlink:href="../../d5/d02/classstring.html" target="_top" xlink:title=" ">
<polygon fill="white" stroke="#666666" points="126.88,-172 86.88,-172 86.88,-152 126.88,-152 126.88,-172"/>
<text text-anchor="middle" x="106.88" y="-158.5" font-family="Helvetica,sans-Serif" font-size="10.00">string</text>
</a>
</g>
</g>
<!-- Node3&#45;&gt;Node1 -->
<g id="edge2_Node000001_Node000003" class="edge">
<title>Node3&#45;&gt;Node1</title>
<g id="a_edge2_Node000001_Node000003"><a xlink:title=" ">
<path fill="none" stroke="#9a32cd" stroke-dasharray="5,2" d="M105.91,-140.35C104.13,-115.27 99.1,-72.1 84.88,-38 82.23,-31.65 77.89,-25.32 74.02,-20.39"/>
<polygon fill="#9a32cd" stroke="#9a32cd" points="102.41,-140.38 106.49,-150.16 109.39,-139.97 102.41,-140.38"/>
</a>
</g>
<text text-anchor="middle" x="145.75" y="-124.5" font-family="Helvetica,sans-Serif" font-size="10.00" fill="grey"> m_ModActionURL</text>
<text text-anchor="middle" x="145.75" y="-112.5" font-family="Helvetica,sans-Serif" font-size="10.00" fill="grey">m_ModLogo</text>
<text text-anchor="middle" x="145.75" y="-100.5" font-family="Helvetica,sans-Serif" font-size="10.00" fill="grey">m_ModLogoOver</text>
<text text-anchor="middle" x="145.75" y="-88.5" font-family="Helvetica,sans-Serif" font-size="10.00" fill="grey">m_ModLogoSmall</text>
<text text-anchor="middle" x="145.75" y="-76.5" font-family="Helvetica,sans-Serif" font-size="10.00" fill="grey">m_ModName</text>
<text text-anchor="middle" x="145.75" y="-64.5" font-family="Helvetica,sans-Serif" font-size="10.00" fill="grey">m_ModOverview</text>
<text text-anchor="middle" x="145.75" y="-52.5" font-family="Helvetica,sans-Serif" font-size="10.00" fill="grey">m_ModPath</text>
<text text-anchor="middle" x="145.75" y="-40.5" font-family="Helvetica,sans-Serif" font-size="10.00" fill="grey">m_ModTooltip</text>
</g>
<!-- Node3&#45;&gt;Node3 -->
<g id="edge3_Node000003_Node000003" class="edge">
<title>Node3&#45;&gt;Node3</title>
<g id="a_edge3_Node000003_Node000003"><a xlink:title=" ">
<path fill="none" stroke="#9a32cd" stroke-dasharray="5,2" d="M128.47,-176.14C137.36,-177.06 144.88,-172.35 144.88,-162 144.88,-147.6 130.33,-144.11 117.77,-151.54"/>
<polygon fill="#9a32cd" stroke="#9a32cd" points="129.79,-172.89 119.2,-172.95 127.52,-179.51 129.79,-172.89"/>
</a>
</g>
<text text-anchor="middle" x="160.62" y="-158.5" font-family="Helvetica,sans-Serif" font-size="10.00" fill="grey"> Empty</text>
</g>
</g>
</svg>
</svg>

<style type='text/css'>
<![CDATA[
[data-mouse-over-selected='false'] { opacity: 0.7; }
[data-mouse-over-selected='true']  { opacity: 1.0; }
]]>
</style>
<script type="application/ecmascript"><![CDATA[
document.addEventListener('DOMContentLoaded', (event) => {
  highlightEdges();
  highlightAdjacentNodes();
});
]]></script>
</svg>
