<?xml version="1.0" encoding="UTF-8" standalone="no"?>
<!DOCTYPE svg PUBLIC "-//W3C//DTD SVG 1.1//EN"
 "http://www.w3.org/Graphics/SVG/1.1/DTD/svg11.dtd">
<!-- Generated by graphviz version 11.0.0 (20240428.1522)
 -->
<!-- Title: ActionCraftImprovisedFaceCover Pages: 1 -->
<svg width="140pt" height="208pt"
 viewBox="0.00 0.00 139.50 208.00" xmlns="http://www.w3.org/2000/svg" xmlns:xlink="http://www.w3.org/1999/xlink">
<g id="graph0" class="graph" transform="scale(1 1) rotate(0) translate(4 204)">
<title>ActionCraftImprovisedFaceCover</title>
<!-- Node1 -->
<g id="Node000001" class="node">
<title>Node1</title>
<g id="a_Node000001"><a xlink:title=" ">
<polygon fill="#999999" stroke="#666666" points="131.5,-32 0,-32 0,0 131.5,0 131.5,-32"/>
<text text-anchor="start" x="8" y="-18.5" font-family="Helvetica,sans-Serif" font-size="10.00">ActionCraftImprovisedFace</text>
<text text-anchor="middle" x="65.75" y="-6.5" font-family="Helvetica,sans-Serif" font-size="10.00">Cover</text>
</a>
</g>
</g>
<!-- Node2 -->
<g id="Node000002" class="node">
<title>Node2</title>
<g id="a_Node000002"><a xlink:href="../../d6/d0f/class_action_continuous_base.html" target="_top" xlink:title=" ">
<polygon fill="white" stroke="#666666" points="123.25,-88 8.25,-88 8.25,-68 123.25,-68 123.25,-88"/>
<text text-anchor="middle" x="65.75" y="-74.5" font-family="Helvetica,sans-Serif" font-size="10.00">ActionContinuousBase</text>
</a>
</g>
</g>
<!-- Node2&#45;&gt;Node1 -->
<g id="edge1_Node000001_Node000002" class="edge">
<title>Node2&#45;&gt;Node1</title>
<g id="a_edge1_Node000001_Node000002"><a xlink:title=" ">
<path fill="none" stroke="#8b1a1a" d="M65.75,-56.31C65.75,-48.37 65.75,-39.46 65.75,-32.14"/>
<polygon fill="#8b1a1a" stroke="#8b1a1a" points="62.25,-56.11 65.75,-66.11 69.25,-56.11 62.25,-56.11"/>
</a>
</g>
</g>
<!-- Node3 -->
<g id="Node000003" class="node">
<title>Node3</title>
<g id="a_Node000003"><a xlink:href="../../d7/d04/class_animated_action_base.html" target="_top" xlink:title=" ">
<polygon fill="white" stroke="#666666" points="119.5,-144 12,-144 12,-124 119.5,-124 119.5,-144"/>
<text text-anchor="middle" x="65.75" y="-130.5" font-family="Helvetica,sans-Serif" font-size="10.00">AnimatedActionBase</text>
</a>
</g>
</g>
<!-- Node3&#45;&gt;Node2 -->
<g id="edge2_Node000002_Node000003" class="edge">
<title>Node3&#45;&gt;Node2</title>
<g id="a_edge2_Node000002_Node000003"><a xlink:title=" ">
<path fill="none" stroke="#8b1a1a" d="M65.75,-112.13C65.75,-103.9 65.75,-94.85 65.75,-88.3"/>
<polygon fill="#8b1a1a" stroke="#8b1a1a" points="62.25,-112.08 65.75,-122.08 69.25,-112.08 62.25,-112.08"/>
</a>
</g>
</g>
<!-- Node4 -->
<g id="Node000004" class="node">
<title>Node4</title>
<g id="a_Node000004"><a xlink:title=" ">
<polygon fill="white" stroke="#666666" points="98.88,-200 32.62,-200 32.62,-180 98.88,-180 98.88,-200"/>
<text text-anchor="middle" x="65.75" y="-186.5" font-family="Helvetica,sans-Serif" font-size="10.00">ActionBase</text>
</a>
</g>
</g>
<!-- Node4&#45;&gt;Node3 -->
<g id="edge3_Node000003_Node000004" class="edge">
<title>Node4&#45;&gt;Node3</title>
<g id="a_edge3_Node000003_Node000004"><a xlink:title=" ">
<path fill="none" stroke="#8b1a1a" d="M65.75,-168.13C65.75,-159.9 65.75,-150.85 65.75,-144.3"/>
<polygon fill="#8b1a1a" stroke="#8b1a1a" points="62.25,-168.08 65.75,-178.08 69.25,-168.08 62.25,-168.08"/>
</a>
</g>
</g>
</g>
</svg>
