<?xml version="1.0" encoding="UTF-8" standalone="no"?>
<!DOCTYPE svg PUBLIC "-//W3C//DTD SVG 1.1//EN"
 "http://www.w3.org/Graphics/SVG/1.1/DTD/svg11.dtd">
<!-- Generated by graphviz version 11.0.0 (20240428.1522)
 -->
<!-- Title: BaseBuildingBase Pages: 1 -->
<!--zoomable 460 -->

<svg id="main" version="1.1" xmlns="http://www.w3.org/2000/svg" xmlns:xlink="http://www.w3.org/1999/xlink" xml:space="preserve" onload="init(evt)">
<style type="text/css"><![CDATA[
.node, .edge {opacity: 0.7;}
.node.selected, .edge.selected {opacity: 1;}
.edge:hover path { stroke: red; }
.edge:hover polygon { stroke: red; fill: red; }
]]></style>

<defs>
  <circle id="rim" cx="0" cy="0" r="7"/>
  <circle id="rim2" cx="0" cy="0" r="3.5"/>
  <g id="zoomPlus">
    <use xlink:href="#rim" fill="#404040"><set attributeName="fill" to="#808080" begin="zoomplus.mouseover" end="zoomplus.mouseout"/></use>
    <path d="M-4,0h8M0,-4v8" fill="none" stroke="white" stroke-width="1.5" pointer-events="none"/>
  </g>
  <g id="zoomMin">
    <use xlink:href="#rim" fill="#404040"><set attributeName="fill" to="#808080" begin="zoomminus.mouseover" end="zoomminus.mouseout"/></use>
    <path d="M-4,0h8" fill="none" stroke="white" stroke-width="1.5" pointer-events="none"/>
  </g>
  <g id="arrowUp" transform="translate(30 24)">
    <use xlink:href="#rim"/>
    <path pointer-events="none" fill="none" stroke="white" stroke-width="1.5" d="M0,-3.0v7 M-2.5,-0.5L0,-3.0L2.5,-0.5"/>
  </g>
  <g id="arrowRight" transform="rotate(90) translate(36 -43)">
    <use xlink:href="#rim"/>
    <path pointer-events="none" fill="none" stroke="white" stroke-width="1.5" d="M0,-3.0v7 M-2.5,-0.5L0,-3.0L2.5,-0.5"/>
  </g>
  <g id="arrowDown" transform="rotate(180) translate(-30 -48)">
    <use xlink:href="#rim"/>
    <path pointer-events="none" fill="none" stroke="white" stroke-width="1.5" d="M0,-3.0v7 M-2.5,-0.5L0,-3.0L2.5,-0.5"/>
  </g>
  <g id="arrowLeft" transform="rotate(270) translate(-36 17)">
    <use xlink:href="#rim"/>
    <path pointer-events="none" fill="none" stroke="white" stroke-width="1.5" d="M0,-3.0v7 M-2.5,-0.5L0,-3.0L2.5,-0.5"/>
  </g>
  <g id="resetDef">
    <use xlink:href="#rim2" fill="#404040"><set attributeName="fill" to="#808080" begin="reset.mouseover" end="reset.mouseout"/></use>
  </g>
</defs>
<script type="application/ecmascript">
var viewWidth = 1242;
var viewHeight = 460;
var sectionId = 'dynsection-0';
</script>
<script type="application/ecmascript" xlink:href="../../svg.min.js"/>
<svg id="graph" class="graph">
<g id="viewport">
<title>BaseBuildingBase</title>
<!-- Node1 -->
<g id="Node000001" class="node">
<title>Node1</title>
<g id="a_Node000001"><a xlink:title=" ">
<polygon fill="#999999" stroke="#666666" points="557.16,-20 461.66,-20 461.66,0 557.16,0 557.16,-20"/>
<text text-anchor="middle" x="509.41" y="-6.5" font-family="Helvetica,sans-Serif" font-size="10.00">BaseBuildingBase</text>
</a>
</g>
</g>
<!-- Node2 -->
<g id="Node000002" class="node">
<title>Node2</title>
<g id="a_Node000002"><a xlink:href="../../db/d06/class_param3.html" target="_top" xlink:title=" ">
<polygon fill="white" stroke="#666666" points="52.28,-444 2.53,-444 2.53,-424 52.28,-424 52.28,-444"/>
<text text-anchor="middle" x="27.41" y="-430.5" font-family="Helvetica,sans-Serif" font-size="10.00">Param3</text>
</a>
</g>
</g>
<!-- Node2&#45;&gt;Node1 -->
<g id="edge1_Node000001_Node000002" class="edge">
<title>Node2&#45;&gt;Node1</title>
<g id="a_edge1_Node000001_Node000002"><a xlink:title=" ">
<path fill="none" stroke="#9a32cd" stroke-dasharray="5,2" d="M21.62,-412.92C5.74,-353.22 -31.64,-175.07 56.66,-80 110.7,-21.81 356.05,-12.42 461.27,-11.1"/>
<polygon fill="#9a32cd" stroke="#9a32cd" points="18.18,-413.63 24.22,-422.33 24.93,-411.76 18.18,-413.63"/>
</a>
</g>
<text text-anchor="middle" x="128.28" y="-238.5" font-family="Helvetica,sans-Serif" font-size="10.00" fill="grey"> GATE_STATE_FULL</text>
<text text-anchor="middle" x="128.28" y="-226.5" font-family="Helvetica,sans-Serif" font-size="10.00" fill="grey">GATE_STATE_NONE</text>
<text text-anchor="middle" x="128.28" y="-214.5" font-family="Helvetica,sans-Serif" font-size="10.00" fill="grey">GATE_STATE_PARTIAL</text>
<text text-anchor="middle" x="128.28" y="-202.5" font-family="Helvetica,sans-Serif" font-size="10.00" fill="grey">MAX_WATCHTOWER_FLOORS</text>
<text text-anchor="middle" x="128.28" y="-190.5" font-family="Helvetica,sans-Serif" font-size="10.00" fill="grey">MAX_WATCHTOWER_WALLS</text>
<text text-anchor="middle" x="128.28" y="-178.5" font-family="Helvetica,sans-Serif" font-size="10.00" fill="grey">m_FlagRefresherFrequency</text>
<text text-anchor="middle" x="128.28" y="-166.5" font-family="Helvetica,sans-Serif" font-size="10.00" fill="grey">m_FlagRefresherMaxDuration</text>
<text text-anchor="middle" x="128.28" y="-154.5" font-family="Helvetica,sans-Serif" font-size="10.00" fill="grey">m_GateState</text>
<text text-anchor="middle" x="128.28" y="-142.5" font-family="Helvetica,sans-Serif" font-size="10.00" fill="grey">m_RefreshTimeCounter</text>
<text text-anchor="middle" x="128.28" y="-130.5" font-family="Helvetica,sans-Serif" font-size="10.00" fill="grey">m_RefresherTimeRemaining</text>
<text text-anchor="middle" x="128.28" y="-118.5" font-family="Helvetica,sans-Serif" font-size="10.00" fill="grey">...</text>
</g>
<!-- Node6 -->
<g id="Node000006" class="node">
<title>Node6</title>
<g id="a_Node000006"><a xlink:href="../../d9/d09/class_effect_sound.html" target="_top" xlink:title="Wrapper class for managing sound through SEffectManager.">
<polygon fill="white" stroke="#666666" points="543.66,-192 475.16,-192 475.16,-172 543.66,-172 543.66,-192"/>
<text text-anchor="middle" x="509.41" y="-178.5" font-family="Helvetica,sans-Serif" font-size="10.00">EffectSound</text>
</a>
</g>
</g>
<!-- Node2&#45;&gt;Node6 -->
<g id="edge16_Node000006_Node000002" class="edge">
<title>Node2&#45;&gt;Node6</title>
<g id="a_edge16_Node000006_Node000002"><a xlink:title=" ">
<path fill="none" stroke="#9a32cd" stroke-dasharray="5,2" d="M34.23,-413.14C45.71,-383.16 71.93,-327.18 115.16,-302 161.81,-274.83 306.35,-301.51 357.41,-284 417.35,-263.45 476.41,-213.36 499.38,-192.43"/>
<polygon fill="#9a32cd" stroke="#9a32cd" points="31.09,-411.56 30.96,-422.15 37.67,-413.95 31.09,-411.56"/>
</a>
</g>
<text text-anchor="middle" x="154.03" y="-346.5" font-family="Helvetica,sans-Serif" font-size="10.00" fill="grey"> m_SoundDoppler</text>
</g>
<!-- Node3 -->
<g id="Node000003" class="node">
<title>Node3</title>
<g id="a_Node000003"><a xlink:href="../../d5/d02/classstring.html" target="_top" xlink:title=" ">
<polygon fill="white" stroke="#666666" points="211.41,-444 171.41,-444 171.41,-424 211.41,-424 211.41,-444"/>
<text text-anchor="middle" x="191.41" y="-430.5" font-family="Helvetica,sans-Serif" font-size="10.00">string</text>
</a>
</g>
</g>
<!-- Node3&#45;&gt;Node1 -->
<g id="edge2_Node000001_Node000003" class="edge">
<title>Node3&#45;&gt;Node1</title>
<g id="a_edge2_Node000001_Node000003"><a xlink:title=" ">
<path fill="none" stroke="#9a32cd" stroke-dasharray="5,2" d="M190,-412.22C188.75,-386.11 188.35,-340.08 197.41,-302 222.43,-196.81 216.46,-152.24 296.91,-80 342.94,-38.66 414.1,-22.05 461.21,-15.4"/>
<polygon fill="#9a32cd" stroke="#9a32cd" points="186.5,-412.33 190.57,-422.11 193.48,-411.93 186.5,-412.33"/>
</a>
</g>
<text text-anchor="start" x="296.41" y="-274.5" font-family="Helvetica,sans-Serif" font-size="10.00" fill="grey"> ATTACHMENT_SLOT_COMBINATION</text>
<text text-anchor="middle" x="381.16" y="-262.5" font-family="Helvetica,sans-Serif" font-size="10.00" fill="grey">_LOCK</text>
<text text-anchor="start" x="296.41" y="-250.5" font-family="Helvetica,sans-Serif" font-size="10.00" fill="grey">ATTSLOT_BARBEDWIRE</text>
<text text-anchor="middle" x="381.16" y="-238.5" font-family="Helvetica,sans-Serif" font-size="10.00" fill="grey">_DOWN</text>
<text text-anchor="start" x="296.41" y="-226.5" font-family="Helvetica,sans-Serif" font-size="10.00" fill="grey">ATTSLOT_BARBEDWIRE</text>
<text text-anchor="middle" x="381.16" y="-214.5" font-family="Helvetica,sans-Serif" font-size="10.00" fill="grey">_UP</text>
<text text-anchor="middle" x="381.16" y="-202.5" font-family="Helvetica,sans-Serif" font-size="10.00" fill="grey">ATTSLOT_CAMONET</text>
<text text-anchor="middle" x="381.16" y="-190.5" font-family="Helvetica,sans-Serif" font-size="10.00" fill="grey">BASE_ROOF_NAME</text>
<text text-anchor="middle" x="381.16" y="-178.5" font-family="Helvetica,sans-Serif" font-size="10.00" fill="grey">BASE_VIEW_NAME</text>
<text text-anchor="middle" x="381.16" y="-166.5" font-family="Helvetica,sans-Serif" font-size="10.00" fill="grey">BASE_WALL_NAME</text>
<text text-anchor="start" x="296.41" y="-154.5" font-family="Helvetica,sans-Serif" font-size="10.00" fill="grey">SOUND_GATE_CLOSE</text>
<text text-anchor="middle" x="381.16" y="-142.5" font-family="Helvetica,sans-Serif" font-size="10.00" fill="grey">_END</text>
<text text-anchor="start" x="296.41" y="-130.5" font-family="Helvetica,sans-Serif" font-size="10.00" fill="grey">SOUND_GATE_CLOSE</text>
<text text-anchor="middle" x="381.16" y="-118.5" font-family="Helvetica,sans-Serif" font-size="10.00" fill="grey">_START</text>
<text text-anchor="start" x="296.41" y="-106.5" font-family="Helvetica,sans-Serif" font-size="10.00" fill="grey">SOUND_GATE_OPEN</text>
<text text-anchor="middle" x="381.16" y="-94.5" font-family="Helvetica,sans-Serif" font-size="10.00" fill="grey">_START</text>
<text text-anchor="middle" x="381.16" y="-82.5" font-family="Helvetica,sans-Serif" font-size="10.00" fill="grey">...</text>
</g>
<!-- Node3&#45;&gt;Node3 -->
<g id="edge3_Node000003_Node000003" class="edge">
<title>Node3&#45;&gt;Node3</title>
<g id="a_edge3_Node000003_Node000003"><a xlink:title=" ">
<path fill="none" stroke="#9a32cd" stroke-dasharray="5,2" d="M210.98,-449.29C220.72,-451.39 229.41,-446.3 229.41,-434 229.41,-417.43 213.64,-413.93 200.76,-423.51"/>
<polygon fill="#9a32cd" stroke="#9a32cd" points="212.67,-446.22 202.13,-445.13 209.69,-452.55 212.67,-446.22"/>
</a>
</g>
<text text-anchor="middle" x="245.16" y="-430.5" font-family="Helvetica,sans-Serif" font-size="10.00" fill="grey"> Empty</text>
</g>
<!-- Node3&#45;&gt;Node6 -->
<g id="edge13_Node000006_Node000003" class="edge">
<title>Node3&#45;&gt;Node6</title>
<g id="a_edge13_Node000006_Node000003"><a xlink:title=" ">
<path fill="none" stroke="#9a32cd" stroke-dasharray="5,2" d="M193.67,-412.38C197.74,-379.3 207.43,-316.57 223.66,-302 268.29,-261.93 301.28,-305.14 357.41,-284 416.41,-261.78 475.53,-213.08 498.93,-192.49"/>
<polygon fill="#9a32cd" stroke="#9a32cd" points="190.2,-411.97 192.52,-422.31 197.15,-412.78 190.2,-411.97"/>
</a>
</g>
<text text-anchor="middle" x="266.78" y="-346.5" font-family="Helvetica,sans-Serif" font-size="10.00" fill="grey"> m_SoundSetName</text>
</g>
<!-- Node4 -->
<g id="Node000004" class="node">
<title>Node4</title>
<g id="a_Node000004"><a xlink:href="../../d4/d03/classfloat.html" target="_top" xlink:title=" ">
<polygon fill="white" stroke="#666666" points="771.41,-444 737.41,-444 737.41,-424 771.41,-424 771.41,-444"/>
<text text-anchor="middle" x="754.41" y="-430.5" font-family="Helvetica,sans-Serif" font-size="10.00">float</text>
</a>
</g>
</g>
<!-- Node4&#45;&gt;Node1 -->
<g id="edge4_Node000001_Node000004" class="edge">
<title>Node4&#45;&gt;Node1</title>
<g id="a_edge4_Node000001_Node000004"><a xlink:title=" ">
<path fill="none" stroke="#9a32cd" stroke-dasharray="5,2" d="M782.99,-432.51C808.46,-430.37 844.4,-422.77 862.41,-398 887.5,-363.49 878.59,-341.48 862.41,-302 799.97,-149.61 743.85,-122.36 602.41,-38 588.69,-29.82 572.35,-23.99 557.22,-19.9"/>
<polygon fill="#9a32cd" stroke="#9a32cd" points="783.09,-429 773.31,-433.08 783.5,-435.99 783.09,-429"/>
</a>
</g>
<text text-anchor="start" x="853.41" y="-244.5" font-family="Helvetica,sans-Serif" font-size="10.00" fill="grey"> GATE_ROTATION_ANGLE</text>
<text text-anchor="middle" x="913.78" y="-232.5" font-family="Helvetica,sans-Serif" font-size="10.00" fill="grey">_DEG</text>
<text text-anchor="start" x="853.41" y="-220.5" font-family="Helvetica,sans-Serif" font-size="10.00" fill="grey">GATE_ROTATION_TIME</text>
<text text-anchor="middle" x="913.78" y="-208.5" font-family="Helvetica,sans-Serif" font-size="10.00" fill="grey">_APPROX</text>
<text text-anchor="start" x="853.41" y="-196.5" font-family="Helvetica,sans-Serif" font-size="10.00" fill="grey">MAX_ACTION_DETECTION</text>
<text text-anchor="middle" x="913.78" y="-184.5" font-family="Helvetica,sans-Serif" font-size="10.00" fill="grey">_ANGLE_RAD</text>
<text text-anchor="start" x="853.41" y="-172.5" font-family="Helvetica,sans-Serif" font-size="10.00" fill="grey">MAX_ACTION_DETECTION</text>
<text text-anchor="middle" x="913.78" y="-160.5" font-family="Helvetica,sans-Serif" font-size="10.00" fill="grey">_DISTANCE</text>
<text text-anchor="start" x="853.41" y="-148.5" font-family="Helvetica,sans-Serif" font-size="10.00" fill="grey">MAX_FLOOR_VERTICAL</text>
<text text-anchor="middle" x="913.78" y="-136.5" font-family="Helvetica,sans-Serif" font-size="10.00" fill="grey">_DISTANCE</text>
<text text-anchor="start" x="853.41" y="-124.5" font-family="Helvetica,sans-Serif" font-size="10.00" fill="grey">MIN_ACTION_DETECTION</text>
<text text-anchor="middle" x="913.78" y="-112.5" font-family="Helvetica,sans-Serif" font-size="10.00" fill="grey">_ANGLE_RAD</text>
</g>
<!-- Node4&#45;&gt;Node4 -->
<g id="edge5_Node000004_Node000004" class="edge">
<title>Node4&#45;&gt;Node4</title>
<g id="a_edge5_Node000004_Node000004"><a xlink:title=" ">
<path fill="none" stroke="#9a32cd" stroke-dasharray="5,2" d="M773.28,-449.47C781.9,-451.07 789.41,-445.91 789.41,-434 789.41,-417.43 774.88,-413.93 763.02,-423.51"/>
<polygon fill="#9a32cd" stroke="#9a32cd" points="774.91,-446.37 764.38,-445.15 771.85,-452.66 774.91,-446.37"/>
</a>
</g>
<text text-anchor="middle" x="811.53" y="-442.5" font-family="Helvetica,sans-Serif" font-size="10.00" fill="grey"> LOWEST</text>
<text text-anchor="middle" x="811.53" y="-430.5" font-family="Helvetica,sans-Serif" font-size="10.00" fill="grey">MAX</text>
<text text-anchor="middle" x="811.53" y="-418.5" font-family="Helvetica,sans-Serif" font-size="10.00" fill="grey">MIN</text>
</g>
<!-- Node4&#45;&gt;Node6 -->
<g id="edge15_Node000006_Node000004" class="edge">
<title>Node4&#45;&gt;Node6</title>
<g id="a_edge15_Node000006_Node000004"><a xlink:title=" ">
<path fill="none" stroke="#9a32cd" stroke-dasharray="5,2" d="M744.46,-413.69C742.11,-408.66 739.75,-403.2 737.91,-398 723.25,-356.59 740.73,-337.17 714.41,-302 669.9,-242.53 586.25,-207.76 540.77,-192.43"/>
<polygon fill="#9a32cd" stroke="#9a32cd" points="741.17,-414.93 748.73,-422.35 747.45,-411.83 741.17,-414.93"/>
</a>
</g>
<text text-anchor="middle" x="799.66" y="-388.5" font-family="Helvetica,sans-Serif" font-size="10.00" fill="grey"> m_SoundFadeInDuration</text>
<text text-anchor="middle" x="799.66" y="-376.5" font-family="Helvetica,sans-Serif" font-size="10.00" fill="grey">m_SoundFadeOutDuration</text>
<text text-anchor="middle" x="799.66" y="-364.5" font-family="Helvetica,sans-Serif" font-size="10.00" fill="grey">m_SoundFadeOutInitVolume</text>
<text text-anchor="middle" x="799.66" y="-352.5" font-family="Helvetica,sans-Serif" font-size="10.00" fill="grey">m_SoundFadeOutStartTime</text>
<text text-anchor="middle" x="799.66" y="-340.5" font-family="Helvetica,sans-Serif" font-size="10.00" fill="grey">m_SoundWaveLenght</text>
<text text-anchor="middle" x="799.66" y="-328.5" font-family="Helvetica,sans-Serif" font-size="10.00" fill="grey">m_SoundWaveTime</text>
<text text-anchor="middle" x="799.66" y="-316.5" font-family="Helvetica,sans-Serif" font-size="10.00" fill="grey">m_SoundWaveVolume</text>
<text text-anchor="middle" x="799.66" y="-304.5" font-family="Helvetica,sans-Serif" font-size="10.00" fill="grey">m_SoundWaveVolumeMax</text>
</g>
<!-- Node5 -->
<g id="Node000005" class="node">
<title>Node5</title>
<g id="a_Node000005"><a xlink:href="../../d9/d09/classbool.html" target="_top" xlink:title=" ">
<polygon fill="white" stroke="#666666" points="1106.41,-444 1072.41,-444 1072.41,-424 1106.41,-424 1106.41,-444"/>
<text text-anchor="middle" x="1089.41" y="-430.5" font-family="Helvetica,sans-Serif" font-size="10.00">bool</text>
</a>
</g>
</g>
<!-- Node5&#45;&gt;Node1 -->
<g id="edge6_Node000001_Node000005" class="edge">
<title>Node5&#45;&gt;Node1</title>
<g id="a_edge6_Node000001_Node000005"><a xlink:title=" ">
<path fill="none" stroke="#9a32cd" stroke-dasharray="5,2" d="M1116.27,-418.88C1123.87,-413.45 1131.21,-406.47 1135.41,-398 1154.36,-359.77 1148.33,-342.66 1135.41,-302 1098.8,-186.83 1081.39,-143.23 978.41,-80 908.45,-37.04 662.7,-19.14 557.64,-13.32"/>
<polygon fill="#9a32cd" stroke="#9a32cd" points="1114.57,-415.82 1108,-424.13 1118.32,-421.73 1114.57,-415.82"/>
</a>
</g>
<text text-anchor="middle" x="1181.53" y="-208.5" font-family="Helvetica,sans-Serif" font-size="10.00" fill="grey"> m_IsOpened</text>
<text text-anchor="middle" x="1181.53" y="-196.5" font-family="Helvetica,sans-Serif" font-size="10.00" fill="grey">m_IsOpenedClient</text>
<text text-anchor="middle" x="1181.53" y="-184.5" font-family="Helvetica,sans-Serif" font-size="10.00" fill="grey">m_RefresherActive</text>
<text text-anchor="middle" x="1181.53" y="-172.5" font-family="Helvetica,sans-Serif" font-size="10.00" fill="grey">m_RefresherActiveLocal</text>
<text text-anchor="middle" x="1181.53" y="-160.5" font-family="Helvetica,sans-Serif" font-size="10.00" fill="grey">m_RefresherInitialized</text>
<text text-anchor="middle" x="1181.53" y="-148.5" font-family="Helvetica,sans-Serif" font-size="10.00" fill="grey">m_ToDiscard</text>
</g>
<!-- Node5&#45;&gt;Node6 -->
<g id="edge14_Node000006_Node000005" class="edge">
<title>Node5&#45;&gt;Node6</title>
<g id="a_edge14_Node000006_Node000005"><a xlink:title=" ">
<path fill="none" stroke="#9a32cd" stroke-dasharray="5,2" d="M1061.79,-422.3C1050.53,-416.65 1038.33,-408.64 1030.41,-398 1004.14,-362.73 1039.42,-331.06 1006.41,-302 980.88,-279.52 887.74,-290.8 854.41,-284 733.33,-259.29 593.17,-212.38 535.87,-192.4"/>
<polygon fill="#9a32cd" stroke="#9a32cd" points="1060.19,-425.42 1070.74,-426.38 1063.09,-419.05 1060.19,-425.42"/>
</a>
</g>
<text text-anchor="middle" x="1082.91" y="-382.5" font-family="Helvetica,sans-Serif" font-size="10.00" fill="grey"> m_SetEnvVariables</text>
<text text-anchor="middle" x="1082.91" y="-370.5" font-family="Helvetica,sans-Serif" font-size="10.00" fill="grey">m_SoundAutodestroy</text>
<text text-anchor="middle" x="1082.91" y="-358.5" font-family="Helvetica,sans-Serif" font-size="10.00" fill="grey">m_SoundFadedOut</text>
<text text-anchor="middle" x="1082.91" y="-346.5" font-family="Helvetica,sans-Serif" font-size="10.00" fill="grey">m_SoundLoop</text>
<text text-anchor="middle" x="1082.91" y="-334.5" font-family="Helvetica,sans-Serif" font-size="10.00" fill="grey">m_SoundWaveIsPlaying</text>
<text text-anchor="middle" x="1082.91" y="-322.5" font-family="Helvetica,sans-Serif" font-size="10.00" fill="grey">m_SoundWaveStarting</text>
<text text-anchor="middle" x="1082.91" y="-310.5" font-family="Helvetica,sans-Serif" font-size="10.00" fill="grey">m_SoundWaveStopping</text>
</g>
<!-- Node6&#45;&gt;Node1 -->
<g id="edge7_Node000001_Node000006" class="edge">
<title>Node6&#45;&gt;Node1</title>
<g id="a_edge7_Node000001_Node000006"><a xlink:title=" ">
<path fill="none" stroke="#9a32cd" stroke-dasharray="5,2" d="M509.41,-160.56C509.41,-123.52 509.41,-46.65 509.41,-20.19"/>
<polygon fill="#9a32cd" stroke="#9a32cd" points="505.91,-160.35 509.41,-170.35 512.91,-160.35 505.91,-160.35"/>
</a>
</g>
<text text-anchor="middle" x="553.66" y="-52.5" font-family="Helvetica,sans-Serif" font-size="10.00" fill="grey"> m_SoundGate_End</text>
<text text-anchor="middle" x="553.66" y="-40.5" font-family="Helvetica,sans-Serif" font-size="10.00" fill="grey">m_SoundGate_Start</text>
</g>
<!-- Node7 -->
<g id="Node000007" class="node">
<title>Node7</title>
<g id="a_Node000007"><a xlink:title=" ">
<polygon fill="white" stroke="#666666" points="328.78,-444 288.03,-444 288.03,-424 328.78,-424 328.78,-444"/>
<text text-anchor="middle" x="308.41" y="-430.5" font-family="Helvetica,sans-Serif" font-size="10.00">Effect</text>
</a>
</g>
</g>
<!-- Node7&#45;&gt;Node6 -->
<g id="edge8_Node000006_Node000007" class="edge">
<title>Node7&#45;&gt;Node6</title>
<g id="a_edge8_Node000006_Node000007"><a xlink:title=" ">
<path fill="none" stroke="#8b1a1a" d="M310.46,-412.27C314.03,-384.84 323.47,-336.01 347.41,-302 385.17,-248.35 454.84,-209.32 489.18,-192.37"/>
<polygon fill="#8b1a1a" stroke="#8b1a1a" points="307,-411.71 309.34,-422.04 313.95,-412.5 307,-411.71"/>
</a>
</g>
</g>
<!-- Node8 -->
<g id="Node000008" class="node">
<title>Node8</title>
<g id="a_Node000008"><a xlink:href="../../d4/d0d/class_script_invoker.html" target="_top" xlink:title="ScriptInvoker Class provide list of callbacks &#160;&#160;usage:">
<polygon fill="white" stroke="#666666" points="418.16,-444 346.66,-444 346.66,-424 418.16,-424 418.16,-444"/>
<text text-anchor="middle" x="382.41" y="-430.5" font-family="Helvetica,sans-Serif" font-size="10.00">ScriptInvoker</text>
</a>
</g>
</g>
<!-- Node8&#45;&gt;Node6 -->
<g id="edge9_Node000006_Node000008" class="edge">
<title>Node8&#45;&gt;Node6</title>
<g id="a_edge9_Node000006_Node000008"><a xlink:title=" ">
<path fill="none" stroke="#9a32cd" stroke-dasharray="5,2" d="M369.57,-414.35C366.73,-409.27 364.13,-403.61 362.66,-398 351.82,-356.73 344.3,-340.52 362.66,-302 388.91,-246.92 454.48,-209.06 488.38,-192.47"/>
<polygon fill="#9a32cd" stroke="#9a32cd" points="366.39,-415.86 374.65,-422.49 372.32,-412.15 366.39,-415.86"/>
</a>
</g>
<text text-anchor="middle" x="431.78" y="-364.5" font-family="Helvetica,sans-Serif" font-size="10.00" fill="grey"> Event_OnSoundFadeInStopped</text>
<text text-anchor="middle" x="431.78" y="-352.5" font-family="Helvetica,sans-Serif" font-size="10.00" fill="grey">Event_OnSoundFadeOutStarted</text>
<text text-anchor="middle" x="431.78" y="-340.5" font-family="Helvetica,sans-Serif" font-size="10.00" fill="grey">Event_OnSoundWaveEnded</text>
<text text-anchor="middle" x="431.78" y="-328.5" font-family="Helvetica,sans-Serif" font-size="10.00" fill="grey">Event_OnSoundWaveStarted</text>
</g>
<!-- Node9 -->
<g id="Node000009" class="node">
<title>Node9</title>
<g id="a_Node000009"><a xlink:href="../../d8/d0b/class_sound_params.html" target="_top" xlink:title=" ">
<polygon fill="white" stroke="#666666" points="544.16,-444 466.66,-444 466.66,-424 544.16,-424 544.16,-444"/>
<text text-anchor="middle" x="505.41" y="-430.5" font-family="Helvetica,sans-Serif" font-size="10.00">SoundParams</text>
</a>
</g>
</g>
<!-- Node9&#45;&gt;Node6 -->
<g id="edge10_Node000006_Node000009" class="edge">
<title>Node9&#45;&gt;Node6</title>
<g id="a_edge10_Node000006_Node000009"><a xlink:title=" ">
<path fill="none" stroke="#9a32cd" stroke-dasharray="5,2" d="M505.74,-412.25C506.57,-360.7 508.68,-228.38 509.26,-192.24"/>
<polygon fill="#9a32cd" stroke="#9a32cd" points="502.25,-411.94 505.59,-421.99 509.25,-412.05 502.25,-411.94"/>
</a>
</g>
<text text-anchor="middle" x="546.41" y="-346.5" font-family="Helvetica,sans-Serif" font-size="10.00" fill="grey"> m_SoundParams</text>
</g>
<!-- Node10 -->
<g id="Node000010" class="node">
<title>Node10</title>
<g id="a_Node000010"><a xlink:href="../../d5/d09/class_sound_object_builder.html" target="_top" xlink:title=" ">
<polygon fill="white" stroke="#666666" points="664.53,-444 562.28,-444 562.28,-424 664.53,-424 664.53,-444"/>
<text text-anchor="middle" x="613.41" y="-430.5" font-family="Helvetica,sans-Serif" font-size="10.00">SoundObjectBuilder</text>
</a>
</g>
</g>
<!-- Node10&#45;&gt;Node6 -->
<g id="edge11_Node000006_Node000010" class="edge">
<title>Node10&#45;&gt;Node6</title>
<g id="a_edge11_Node000006_Node000010"><a xlink:title=" ">
<path fill="none" stroke="#9a32cd" stroke-dasharray="5,2" d="M612.02,-412.59C609.68,-386.2 603.59,-339.22 588.41,-302 570.15,-257.23 533.87,-211.62 517.62,-192.42"/>
<polygon fill="#9a32cd" stroke="#9a32cd" points="608.51,-412.55 612.78,-422.24 615.49,-412 608.51,-412.55"/>
</a>
</g>
<text text-anchor="middle" x="661.78" y="-346.5" font-family="Helvetica,sans-Serif" font-size="10.00" fill="grey"> m_SoundObjectBuilder</text>
</g>
<!-- Node11 -->
<g id="Node000011" class="node">
<title>Node11</title>
<g id="a_Node000011"><a xlink:href="../../d9/d02/class_abstract_wave.html" target="_top" xlink:title=" ">
<polygon fill="white" stroke="#666666" points="947.78,-444 871.03,-444 871.03,-424 947.78,-424 947.78,-444"/>
<text text-anchor="middle" x="909.41" y="-430.5" font-family="Helvetica,sans-Serif" font-size="10.00">AbstractWave</text>
</a>
</g>
</g>
<!-- Node11&#45;&gt;Node6 -->
<g id="edge12_Node000006_Node000011" class="edge">
<title>Node11&#45;&gt;Node6</title>
<g id="a_edge12_Node000006_Node000011"><a xlink:title=" ">
<path fill="none" stroke="#9a32cd" stroke-dasharray="5,2" d="M908.23,-412.23C905.49,-383.6 896.43,-332.16 866.41,-302 775.96,-211.13 614.39,-189.65 543.89,-184.57"/>
<polygon fill="#9a32cd" stroke="#9a32cd" points="904.73,-412.4 908.98,-422.11 911.71,-411.87 904.73,-412.4"/>
</a>
</g>
<text text-anchor="middle" x="953.78" y="-346.5" font-family="Helvetica,sans-Serif" font-size="10.00" fill="grey"> m_SoundWaveObject</text>
</g>
</g>
</svg>

<g id="navigator" transform="translate(0 0)" fill="#404254">
  <rect fill="#f2f5e9" fill-opacity="0.5" stroke="#606060" stroke-width=".5" x="0" y="0" width="60" height="60"/>
  <use id="zoomplus" xlink:href="#zoomPlus" x="17" y="9" onmousedown="handleZoom(evt,'in')"/>
  <use id="zoomminus" xlink:href="#zoomMin" x="42" y="9" onmousedown="handleZoom(evt,'out')"/>
  <use id="reset" xlink:href="#resetDef" x="30" y="36" onmousedown="handleReset()"/>
   <use id="arrowup" xlink:href="#arrowUp" x="0" y="0" onmousedown="handlePan(0,-1)"/>
  <use id="arrowright" xlink:href="#arrowRight" x="0" y="0" onmousedown="handlePan(1,0)"/>
  <use id="arrowdown" xlink:href="#arrowDown" x="0" y="0" onmousedown="handlePan(0,1)"/>
  <use id="arrowleft" xlink:href="#arrowLeft" x="0" y="0" onmousedown="handlePan(-1,0)"/>
</g>
<svg viewBox="0 0 15 15" width="100%" height="30px" preserveAspectRatio="xMaxYMin meet">
 <g id="arrow_out" transform="scale(0.3 0.3)">
  <a xlink:href="class_base_building_base__coll__graph_org.svg" target="_base">
   <rect id="button" ry="5" rx="5" y="6" x="6" height="38" width="38"
        fill="#f2f5e9" fill-opacity="0.5" stroke="#606060" stroke-width="1.0"/>
   <path id="arrow"
     d="M 11.500037,31.436501 C 11.940474,20.09759 22.043105,11.32322 32.158766,21.979434 L 37.068811,17.246167 C 37.068811,17.246167 37.088388,32 37.088388,32 L 22.160133,31.978069 C 22.160133,31.978069 26.997745,27.140456 26.997745,27.140456 C 18.528582,18.264221 13.291696,25.230495 11.500037,31.436501 z"
     style="fill:#404040;"/>
  </a>
 </g>
</svg>

<style type='text/css'>
<![CDATA[
[data-mouse-over-selected='false'] { opacity: 0.7; }
[data-mouse-over-selected='true']  { opacity: 1.0; }
]]>
</style>
<script type="application/ecmascript"><![CDATA[
document.addEventListener('DOMContentLoaded', (event) => {
  highlightEdges();
  highlightAdjacentNodes();
});
]]></script>
</svg>
