<?xml version="1.0" encoding="UTF-8" standalone="no"?>
<!DOCTYPE svg PUBLIC "-//W3C//DTD SVG 1.1//EN"
 "http://www.w3.org/Graphics/SVG/1.1/DTD/svg11.dtd">
<!-- Generated by graphviz version 11.0.0 (20240428.1522)
 -->
<!-- Title: RepairCarPartActionReciveData Pages: 1 -->
<svg width="226pt" height="96pt"
 viewBox="0.00 0.00 225.88 96.00" xmlns="http://www.w3.org/2000/svg" xmlns:xlink="http://www.w3.org/1999/xlink">

<svg id="main" version="1.1" xmlns="http://www.w3.org/2000/svg" xmlns:xlink="http://www.w3.org/1999/xlink" xml:space="preserve" onload="init(evt)">
<style type="text/css"><![CDATA[
.node, .edge {opacity: 0.7;}
.node.selected, .edge.selected {opacity: 1;}
.edge:hover path { stroke: red; }
.edge:hover polygon { stroke: red; fill: red; }
]]></style>
<script type="application/ecmascript" xlink:href="../../svg.min.js"/>
<svg id="graph" class="graph">
<g id="graph0" class="graph" transform="scale(1 1) rotate(0) translate(4 92)">
<title>RepairCarPartActionReciveData</title>
<!-- Node1 -->
<g id="Node000001" class="node">
<title>Node1</title>
<g id="a_Node000001"><a xlink:title=" ">
<polygon fill="#999999" stroke="#666666" points="153.25,-20 0,-20 0,0 153.25,0 153.25,-20"/>
<text text-anchor="middle" x="76.62" y="-6.5" font-family="Helvetica,sans-Serif" font-size="10.00">RepairCarPartActionReciveData</text>
</a>
</g>
</g>
<!-- Node2 -->
<g id="Node000002" class="node">
<title>Node2</title>
<g id="a_Node000002"><a xlink:title=" ">
<polygon fill="white" stroke="#666666" points="96.88,-88 4.38,-88 4.38,-68 96.88,-68 96.88,-88"/>
<text text-anchor="middle" x="50.62" y="-74.5" font-family="Helvetica,sans-Serif" font-size="10.00">ActionReciveData</text>
</a>
</g>
</g>
<!-- Node2&#45;&gt;Node1 -->
<g id="edge1_Node000001_Node000002" class="edge">
<title>Node2&#45;&gt;Node1</title>
<g id="a_edge1_Node000001_Node000002"><a xlink:title=" ">
<path fill="none" stroke="#8b1a1a" d="M58.49,-57.03C63.28,-44.89 69.16,-29.94 72.91,-20.44"/>
<polygon fill="#8b1a1a" stroke="#8b1a1a" points="55.31,-55.55 54.9,-66.14 61.83,-58.11 55.31,-55.55"/>
</a>
</g>
</g>
<!-- Node3 -->
<g id="Node000003" class="node">
<title>Node3</title>
<g id="a_Node000003"><a xlink:href="../../d5/d02/classstring.html" target="_top" xlink:title=" ">
<polygon fill="white" stroke="#666666" points="154.62,-88 114.62,-88 114.62,-68 154.62,-68 154.62,-88"/>
<text text-anchor="middle" x="134.62" y="-74.5" font-family="Helvetica,sans-Serif" font-size="10.00">string</text>
</a>
</g>
</g>
<!-- Node3&#45;&gt;Node1 -->
<g id="edge2_Node000001_Node000003" class="edge">
<title>Node3&#45;&gt;Node1</title>
<g id="a_edge2_Node000001_Node000003"><a xlink:title=" ">
<path fill="none" stroke="#9a32cd" stroke-dasharray="5,2" d="M119.03,-59.25C108.05,-46.76 93.79,-30.53 84.92,-20.44"/>
<polygon fill="#9a32cd" stroke="#9a32cd" points="116.09,-61.21 125.32,-66.41 121.34,-56.58 116.09,-61.21"/>
</a>
</g>
<text text-anchor="middle" x="164.25" y="-40.5" font-family="Helvetica,sans-Serif" font-size="10.00" fill="grey"> m_DamageZoneRecived</text>
</g>
<!-- Node3&#45;&gt;Node3 -->
<g id="edge3_Node000003_Node000003" class="edge">
<title>Node3&#45;&gt;Node3</title>
<g id="a_edge3_Node000003_Node000003"><a xlink:title=" ">
<path fill="none" stroke="#9a32cd" stroke-dasharray="5,2" d="M166.38,-83.47C170.16,-82.48 172.62,-80.65 172.62,-78 172.62,-73.15 164.39,-71.07 154.95,-71.75"/>
<polygon fill="#9a32cd" stroke="#9a32cd" points="166.2,-79.98 156.46,-84.15 166.68,-86.96 166.2,-79.98"/>
</a>
</g>
<text text-anchor="middle" x="188.38" y="-74.5" font-family="Helvetica,sans-Serif" font-size="10.00" fill="grey"> Empty</text>
</g>
</g>
</svg>
</svg>

<style type='text/css'>
<![CDATA[
[data-mouse-over-selected='false'] { opacity: 0.7; }
[data-mouse-over-selected='true']  { opacity: 1.0; }
]]>
</style>
<script type="application/ecmascript"><![CDATA[
document.addEventListener('DOMContentLoaded', (event) => {
  highlightEdges();
  highlightAdjacentNodes();
});
]]></script>
</svg>
