<?xml version="1.0" encoding="UTF-8" standalone="no"?>
<!DOCTYPE svg PUBLIC "-//W3C//DTD SVG 1.1//EN"
 "http://www.w3.org/Graphics/SVG/1.1/DTD/svg11.dtd">
<!-- Generated by graphviz version 11.0.0 (20240428.1522)
 -->
<!-- Title: Ammo_40mm_Smoke_White Pages: 1 -->
<svg width="171pt" height="252pt"
 viewBox="0.00 0.00 171.00 252.00" xmlns="http://www.w3.org/2000/svg" xmlns:xlink="http://www.w3.org/1999/xlink">

<svg id="main" version="1.1" xmlns="http://www.w3.org/2000/svg" xmlns:xlink="http://www.w3.org/1999/xlink" xml:space="preserve" onload="init(evt)">
<style type="text/css"><![CDATA[
.node, .edge {opacity: 0.7;}
.node.selected, .edge.selected {opacity: 1;}
.edge:hover path { stroke: red; }
.edge:hover polygon { stroke: red; fill: red; }
]]></style>
<script type="application/ecmascript" xlink:href="../../svg.min.js"/>
<svg id="graph" class="graph">
<g id="graph0" class="graph" transform="scale(1 1) rotate(0) translate(4 248)">
<title>Ammo_40mm_Smoke_White</title>
<!-- Node1 -->
<g id="Node000001" class="node">
<title>Node1</title>
<g id="a_Node000001"><a xlink:title=" ">
<polygon fill="#999999" stroke="#666666" points="153.25,-20 9.75,-20 9.75,0 153.25,0 153.25,-20"/>
<text text-anchor="middle" x="81.5" y="-6.5" font-family="Helvetica,sans-Serif" font-size="10.00">Ammo_40mm_Smoke_White</text>
</a>
</g>
</g>
<!-- Node2 -->
<g id="Node000002" class="node">
<title>Node2</title>
<g id="a_Node000002"><a xlink:href="../../d5/d0d/class_ammo__40mm___smoke___color_base.html" target="_top" xlink:title=" ">
<polygon fill="white" stroke="#666666" points="163,-76 0,-76 0,-56 163,-56 163,-76"/>
<text text-anchor="middle" x="81.5" y="-62.5" font-family="Helvetica,sans-Serif" font-size="10.00">Ammo_40mm_Smoke_ColorBase</text>
</a>
</g>
</g>
<!-- Node2&#45;&gt;Node1 -->
<g id="edge1_Node000001_Node000002" class="edge">
<title>Node2&#45;&gt;Node1</title>
<g id="a_edge1_Node000001_Node000002"><a xlink:title=" ">
<path fill="none" stroke="#8b1a1a" d="M81.5,-44.13C81.5,-35.9 81.5,-26.85 81.5,-20.3"/>
<polygon fill="#8b1a1a" stroke="#8b1a1a" points="78,-44.08 81.5,-54.08 85,-44.08 78,-44.08"/>
</a>
</g>
</g>
<!-- Node3 -->
<g id="Node000003" class="node">
<title>Node3</title>
<g id="a_Node000003"><a xlink:href="../../d9/d02/class_ammo__40mm___base.html" target="_top" xlink:title=" ">
<polygon fill="white" stroke="#666666" points="133.75,-132 29.25,-132 29.25,-112 133.75,-112 133.75,-132"/>
<text text-anchor="middle" x="81.5" y="-118.5" font-family="Helvetica,sans-Serif" font-size="10.00">Ammo_40mm_Base</text>
</a>
</g>
</g>
<!-- Node3&#45;&gt;Node2 -->
<g id="edge2_Node000002_Node000003" class="edge">
<title>Node3&#45;&gt;Node2</title>
<g id="a_edge2_Node000002_Node000003"><a xlink:title=" ">
<path fill="none" stroke="#8b1a1a" d="M81.5,-100.13C81.5,-91.9 81.5,-82.85 81.5,-76.3"/>
<polygon fill="#8b1a1a" stroke="#8b1a1a" points="78,-100.08 81.5,-110.08 85,-100.08 78,-100.08"/>
</a>
</g>
</g>
<!-- Node4 -->
<g id="Node000004" class="node">
<title>Node4</title>
<g id="a_Node000004"><a xlink:href="../../dc/d03/class_ammunition___base.html" target="_top" xlink:title="ammo pile base">
<polygon fill="white" stroke="#666666" points="129.25,-188 33.75,-188 33.75,-168 129.25,-168 129.25,-188"/>
<text text-anchor="middle" x="81.5" y="-174.5" font-family="Helvetica,sans-Serif" font-size="10.00">Ammunition_Base</text>
</a>
</g>
</g>
<!-- Node4&#45;&gt;Node3 -->
<g id="edge3_Node000003_Node000004" class="edge">
<title>Node4&#45;&gt;Node3</title>
<g id="a_edge3_Node000003_Node000004"><a xlink:title=" ">
<path fill="none" stroke="#8b1a1a" d="M81.5,-156.13C81.5,-147.9 81.5,-138.85 81.5,-132.3"/>
<polygon fill="#8b1a1a" stroke="#8b1a1a" points="78,-156.08 81.5,-166.08 85,-156.08 78,-156.08"/>
</a>
</g>
</g>
<!-- Node5 -->
<g id="Node000005" class="node">
<title>Node5</title>
<g id="a_Node000005"><a xlink:title=" ">
<polygon fill="white" stroke="#666666" points="124.38,-244 38.62,-244 38.62,-224 124.38,-224 124.38,-244"/>
<text text-anchor="middle" x="81.5" y="-230.5" font-family="Helvetica,sans-Serif" font-size="10.00">Magazine_Base</text>
</a>
</g>
</g>
<!-- Node5&#45;&gt;Node4 -->
<g id="edge4_Node000004_Node000005" class="edge">
<title>Node5&#45;&gt;Node4</title>
<g id="a_edge4_Node000004_Node000005"><a xlink:title=" ">
<path fill="none" stroke="#8b1a1a" d="M81.5,-212.13C81.5,-203.9 81.5,-194.85 81.5,-188.3"/>
<polygon fill="#8b1a1a" stroke="#8b1a1a" points="78,-212.08 81.5,-222.08 85,-212.08 78,-212.08"/>
</a>
</g>
</g>
</g>
</svg>
</svg>

<style type='text/css'>
<![CDATA[
[data-mouse-over-selected='false'] { opacity: 0.7; }
[data-mouse-over-selected='true']  { opacity: 1.0; }
]]>
</style>
<script type="application/ecmascript"><![CDATA[
document.addEventListener('DOMContentLoaded', (event) => {
  highlightEdges();
  highlightAdjacentNodes();
});
]]></script>
</svg>
