<?xml version="1.0" encoding="UTF-8" standalone="no"?>
<!DOCTYPE svg PUBLIC "-//W3C//DTD SVG 1.1//EN"
 "http://www.w3.org/Graphics/SVG/1.1/DTD/svg11.dtd">
<!-- Generated by graphviz version 11.0.0 (20240428.1522)
 -->
<!-- Title: ActionEnterLadder Pages: 1 -->
<svg width="273pt" height="237pt"
 viewBox="0.00 0.00 272.62 237.00" xmlns="http://www.w3.org/2000/svg" xmlns:xlink="http://www.w3.org/1999/xlink">
<g id="graph0" class="graph" transform="scale(1 1) rotate(0) translate(4 233)">
<title>ActionEnterLadder</title>
<!-- Node1 -->
<g id="Node000001" class="node">
<title>Node1</title>
<g id="a_Node000001"><a xlink:title=" ">
<polygon fill="#999999" stroke="#666666" points="191.25,-20 95,-20 95,0 191.25,0 191.25,-20"/>
<text text-anchor="middle" x="143.12" y="-6.5" font-family="Helvetica,sans-Serif" font-size="10.00">ActionEnterLadder</text>
</a>
</g>
</g>
<!-- Node2 -->
<g id="Node000002" class="node">
<title>Node2</title>
<g id="a_Node000002"><a xlink:href="../../d0/d0b/class_action_interact_base.html" target="_top" xlink:title=" ">
<polygon fill="white" stroke="#666666" points="143.38,-79 44.87,-79 44.87,-59 143.38,-59 143.38,-79"/>
<text text-anchor="middle" x="94.12" y="-65.5" font-family="Helvetica,sans-Serif" font-size="10.00">ActionInteractBase</text>
</a>
</g>
</g>
<!-- Node2&#45;&gt;Node1 -->
<g id="edge1_Node000001_Node000002" class="edge">
<title>Node2&#45;&gt;Node1</title>
<g id="a_edge1_Node000001_Node000002"><a xlink:title=" ">
<path fill="none" stroke="#8b1a1a" d="M109.68,-49.9C118.17,-40.03 128.31,-28.23 135.18,-20.24"/>
<polygon fill="#8b1a1a" stroke="#8b1a1a" points="107.07,-47.58 103.2,-57.44 112.38,-52.14 107.07,-47.58"/>
</a>
</g>
</g>
<!-- Node3 -->
<g id="Node000003" class="node">
<title>Node3</title>
<g id="a_Node000003"><a xlink:href="../../d7/d04/class_animated_action_base.html" target="_top" xlink:title=" ">
<polygon fill="white" stroke="#666666" points="124.88,-149 17.38,-149 17.38,-129 124.88,-129 124.88,-149"/>
<text text-anchor="middle" x="71.12" y="-135.5" font-family="Helvetica,sans-Serif" font-size="10.00">AnimatedActionBase</text>
</a>
</g>
</g>
<!-- Node3&#45;&gt;Node2 -->
<g id="edge2_Node000002_Node000003" class="edge">
<title>Node3&#45;&gt;Node2</title>
<g id="a_edge2_Node000002_Node000003"><a xlink:title=" ">
<path fill="none" stroke="#8b1a1a" d="M75.72,-117.37C77.24,-111.38 79.07,-104.88 81.12,-99 83.45,-92.33 86.7,-85.08 89.37,-79.5"/>
<polygon fill="#8b1a1a" stroke="#8b1a1a" points="72.31,-116.56 73.42,-127.1 79.12,-118.17 72.31,-116.56"/>
</a>
</g>
</g>
<!-- Node4 -->
<g id="Node000004" class="node">
<title>Node4</title>
<g id="a_Node000004"><a xlink:title=" ">
<polygon fill="white" stroke="#666666" points="66.25,-229 0,-229 0,-209 66.25,-209 66.25,-229"/>
<text text-anchor="middle" x="33.12" y="-215.5" font-family="Helvetica,sans-Serif" font-size="10.00">ActionBase</text>
</a>
</g>
</g>
<!-- Node4&#45;&gt;Node3 -->
<g id="edge3_Node000003_Node000004" class="edge">
<title>Node4&#45;&gt;Node3</title>
<g id="a_edge3_Node000003_Node000004"><a xlink:title=" ">
<path fill="none" stroke="#8b1a1a" d="M42.62,-198.51C50.29,-182.77 60.74,-161.32 66.62,-149.24"/>
<polygon fill="#8b1a1a" stroke="#8b1a1a" points="39.53,-196.86 38.3,-207.39 45.82,-199.93 39.53,-196.86"/>
</a>
</g>
</g>
<!-- Node5 -->
<g id="Node000005" class="node">
<title>Node5</title>
<g id="a_Node000005"><a xlink:href="../../db/d06/class_param3.html" target="_top" xlink:title=" ">
<polygon fill="white" stroke="#666666" points="134,-229 84.25,-229 84.25,-209 134,-209 134,-229"/>
<text text-anchor="middle" x="109.12" y="-215.5" font-family="Helvetica,sans-Serif" font-size="10.00">Param3</text>
</a>
</g>
</g>
<!-- Node5&#45;&gt;Node3 -->
<g id="edge4_Node000003_Node000005" class="edge">
<title>Node5&#45;&gt;Node3</title>
<g id="a_edge4_Node000003_Node000005"><a xlink:title=" ">
<path fill="none" stroke="#9a32cd" stroke-dasharray="5,2" d="M99.63,-198.51C91.96,-182.77 81.51,-161.32 75.63,-149.24"/>
<polygon fill="#9a32cd" stroke="#9a32cd" points="96.43,-199.93 103.95,-207.39 102.72,-196.86 96.43,-199.93"/>
</a>
</g>
<text text-anchor="middle" x="145.62" y="-181.5" font-family="Helvetica,sans-Serif" font-size="10.00" fill="grey"> m_CommandUID</text>
<text text-anchor="middle" x="145.62" y="-169.5" font-family="Helvetica,sans-Serif" font-size="10.00" fill="grey">m_CommandUIDProne</text>
</g>
<!-- Node6 -->
<g id="Node000006" class="node">
<title>Node6</title>
<g id="a_Node000006"><a xlink:href="../../d5/d02/classstring.html" target="_top" xlink:title=" ">
<polygon fill="white" stroke="#666666" points="197.12,-149 157.12,-149 157.12,-129 197.12,-129 197.12,-149"/>
<text text-anchor="middle" x="177.12" y="-135.5" font-family="Helvetica,sans-Serif" font-size="10.00">string</text>
</a>
</g>
</g>
<!-- Node6&#45;&gt;Node1 -->
<g id="edge7_Node000001_Node000006" class="edge">
<title>Node6&#45;&gt;Node1</title>
<g id="a_edge7_Node000001_Node000006"><a xlink:title=" ">
<path fill="none" stroke="#9a32cd" stroke-dasharray="5,2" d="M179.29,-117.43C179.48,-111.45 179.26,-104.92 178.12,-99 172.37,-68.96 156.5,-36.12 148.25,-20.4"/>
<polygon fill="#9a32cd" stroke="#9a32cd" points="175.83,-116.87 178.59,-127.1 182.81,-117.38 175.83,-116.87"/>
</a>
</g>
<text text-anchor="middle" x="218.88" y="-71.5" font-family="Helvetica,sans-Serif" font-size="10.00" fill="grey"> GEOM_LOD_NAME</text>
<text text-anchor="middle" x="218.88" y="-59.5" font-family="Helvetica,sans-Serif" font-size="10.00" fill="grey">MEM_LOD_NAME</text>
</g>
<!-- Node6&#45;&gt;Node2 -->
<g id="edge5_Node000002_Node000006" class="edge">
<title>Node6&#45;&gt;Node2</title>
<g id="a_edge5_Node000002_Node000006"><a xlink:title=" ">
<path fill="none" stroke="#9a32cd" stroke-dasharray="5,2" d="M145.73,-131.63C125.22,-126.77 101.13,-119.48 94.88,-111 88.19,-101.95 89.47,-88.45 91.43,-79.45"/>
<polygon fill="#9a32cd" stroke="#9a32cd" points="144.92,-135.04 155.44,-133.81 146.45,-128.21 144.92,-135.04"/>
</a>
</g>
<text text-anchor="middle" x="136.75" y="-101.5" font-family="Helvetica,sans-Serif" font-size="10.00" fill="grey"> m_HUDCursorIcon</text>
</g>
<!-- Node6&#45;&gt;Node6 -->
<g id="edge6_Node000006_Node000006" class="edge">
<title>Node6&#45;&gt;Node6</title>
<g id="a_edge6_Node000006_Node000006"><a xlink:title=" ">
<path fill="none" stroke="#9a32cd" stroke-dasharray="5,2" d="M208.88,-144.47C212.66,-143.48 215.12,-141.65 215.12,-139 215.12,-134.15 206.89,-132.07 197.45,-132.75"/>
<polygon fill="#9a32cd" stroke="#9a32cd" points="208.7,-140.98 198.96,-145.15 209.18,-147.96 208.7,-140.98"/>
</a>
</g>
<text text-anchor="middle" x="230.88" y="-135.5" font-family="Helvetica,sans-Serif" font-size="10.00" fill="grey"> Empty</text>
</g>
</g>
</svg>
