<?xml version="1.0" encoding="UTF-8" standalone="no"?>
<!DOCTYPE svg PUBLIC "-//W3C//DTD SVG 1.1//EN"
 "http://www.w3.org/Graphics/SVG/1.1/DTD/svg11.dtd">
<!-- Generated by graphviz version 11.0.0 (20240428.1522)
 -->
<!-- Title: ParticleSource Pages: 1 -->
<!--zoomable 228 -->

<svg id="main" version="1.1" xmlns="http://www.w3.org/2000/svg" xmlns:xlink="http://www.w3.org/1999/xlink" xml:space="preserve" onload="init(evt)">
<style type="text/css"><![CDATA[
.node, .edge {opacity: 0.7;}
.node.selected, .edge.selected {opacity: 1;}
.edge:hover path { stroke: red; }
.edge:hover polygon { stroke: red; fill: red; }
]]></style>

<defs>
  <circle id="rim" cx="0" cy="0" r="7"/>
  <circle id="rim2" cx="0" cy="0" r="3.5"/>
  <g id="zoomPlus">
    <use xlink:href="#rim" fill="#404040"><set attributeName="fill" to="#808080" begin="zoomplus.mouseover" end="zoomplus.mouseout"/></use>
    <path d="M-4,0h8M0,-4v8" fill="none" stroke="white" stroke-width="1.5" pointer-events="none"/>
  </g>
  <g id="zoomMin">
    <use xlink:href="#rim" fill="#404040"><set attributeName="fill" to="#808080" begin="zoomminus.mouseover" end="zoomminus.mouseout"/></use>
    <path d="M-4,0h8" fill="none" stroke="white" stroke-width="1.5" pointer-events="none"/>
  </g>
  <g id="arrowUp" transform="translate(30 24)">
    <use xlink:href="#rim"/>
    <path pointer-events="none" fill="none" stroke="white" stroke-width="1.5" d="M0,-3.0v7 M-2.5,-0.5L0,-3.0L2.5,-0.5"/>
  </g>
  <g id="arrowRight" transform="rotate(90) translate(36 -43)">
    <use xlink:href="#rim"/>
    <path pointer-events="none" fill="none" stroke="white" stroke-width="1.5" d="M0,-3.0v7 M-2.5,-0.5L0,-3.0L2.5,-0.5"/>
  </g>
  <g id="arrowDown" transform="rotate(180) translate(-30 -48)">
    <use xlink:href="#rim"/>
    <path pointer-events="none" fill="none" stroke="white" stroke-width="1.5" d="M0,-3.0v7 M-2.5,-0.5L0,-3.0L2.5,-0.5"/>
  </g>
  <g id="arrowLeft" transform="rotate(270) translate(-36 17)">
    <use xlink:href="#rim"/>
    <path pointer-events="none" fill="none" stroke="white" stroke-width="1.5" d="M0,-3.0v7 M-2.5,-0.5L0,-3.0L2.5,-0.5"/>
  </g>
  <g id="resetDef">
    <use xlink:href="#rim2" fill="#404040"><set attributeName="fill" to="#808080" begin="reset.mouseover" end="reset.mouseout"/></use>
  </g>
</defs>
<script type="application/ecmascript">
var viewWidth = 787;
var viewHeight = 228;
var sectionId = 'dynsection-1';
</script>
<script type="application/ecmascript" xlink:href="../../svg.min.js"/>
<svg id="graph" class="graph">
<g id="viewport">
<title>ParticleSource</title>
<!-- Node1 -->
<g id="Node000001" class="node">
<title>Node1</title>
<g id="a_Node000001"><a xlink:title="Entity which has the particle instance as an ObjectComponent.">
<polygon fill="#999999" stroke="#666666" points="353.62,-20 273.88,-20 273.88,0 353.62,0 353.62,-20"/>
<text text-anchor="middle" x="313.75" y="-6.5" font-family="Helvetica,sans-Serif" font-size="10.00">ParticleSource</text>
</a>
</g>
</g>
<!-- Node2 -->
<g id="Node000002" class="node">
<title>Node2</title>
<g id="a_Node000002"><a xlink:href="../../de/d05/class_particle.html" target="_top" xlink:title="Legacy way of using particles in the game.">
<polygon fill="white" stroke="#666666" points="338.25,-76 289.25,-76 289.25,-56 338.25,-56 338.25,-76"/>
<text text-anchor="middle" x="313.75" y="-62.5" font-family="Helvetica,sans-Serif" font-size="10.00">Particle</text>
</a>
</g>
</g>
<!-- Node2&#45;&gt;Node1 -->
<g id="edge1_Node000001_Node000002" class="edge">
<title>Node2&#45;&gt;Node1</title>
<g id="a_edge1_Node000001_Node000002"><a xlink:title=" ">
<path fill="none" stroke="#8b1a1a" d="M313.75,-44.13C313.75,-35.9 313.75,-26.85 313.75,-20.3"/>
<polygon fill="#8b1a1a" stroke="#8b1a1a" points="310.25,-44.08 313.75,-54.08 317.25,-44.08 310.25,-44.08"/>
</a>
</g>
</g>
<!-- Node3 -->
<g id="Node000003" class="node">
<title>Node3</title>
<g id="a_Node000003"><a xlink:title=" ">
<polygon fill="white" stroke="#666666" points="71.5,-206 0,-206 0,-186 71.5,-186 71.5,-206"/>
<text text-anchor="middle" x="35.75" y="-192.5" font-family="Helvetica,sans-Serif" font-size="10.00">ParticleBase</text>
</a>
</g>
</g>
<!-- Node3&#45;&gt;Node2 -->
<g id="edge2_Node000002_Node000003" class="edge">
<title>Node3&#45;&gt;Node2</title>
<g id="a_edge2_Node000002_Node000003"><a xlink:title=" ">
<path fill="none" stroke="#8b1a1a" d="M43.07,-175.31C52.96,-151.72 72.97,-113 103.75,-94 134.25,-75.17 240.13,-69.36 288.86,-67.66"/>
<polygon fill="#8b1a1a" stroke="#8b1a1a" points="39.9,-173.81 39.48,-184.4 46.41,-176.38 39.9,-173.81"/>
</a>
</g>
</g>
<!-- Node4 -->
<g id="Node000004" class="node">
<title>Node4</title>
<g id="a_Node000004"><a xlink:href="../../db/d06/class_param3.html" target="_top" xlink:title=" ">
<polygon fill="white" stroke="#666666" points="139.62,-206 89.88,-206 89.88,-186 139.62,-186 139.62,-206"/>
<text text-anchor="middle" x="114.75" y="-192.5" font-family="Helvetica,sans-Serif" font-size="10.00">Param3</text>
</a>
</g>
</g>
<!-- Node4&#45;&gt;Node2 -->
<g id="edge3_Node000002_Node000004" class="edge">
<title>Node4&#45;&gt;Node2</title>
<g id="a_edge3_Node000002_Node000004"><a xlink:title=" ">
<path fill="none" stroke="#9a32cd" stroke-dasharray="5,2" d="M110.16,-174.6C106.34,-151.78 104.39,-115.26 124.75,-94 146.87,-70.9 243.06,-67.28 289.06,-66.9"/>
<polygon fill="#9a32cd" stroke="#9a32cd" points="106.68,-175.06 112.05,-184.19 113.55,-173.7 106.68,-175.06"/>
</a>
</g>
<text text-anchor="middle" x="163.75" y="-132.5" font-family="Helvetica,sans-Serif" font-size="10.00" fill="grey"> MAX_EMITORS</text>
<text text-anchor="middle" x="163.75" y="-120.5" font-family="Helvetica,sans-Serif" font-size="10.00" fill="grey">m_ParticleID</text>
<text text-anchor="middle" x="163.75" y="-108.5" font-family="Helvetica,sans-Serif" font-size="10.00" fill="grey">m_PreviousFrame</text>
</g>
<!-- Node5 -->
<g id="Node000005" class="node">
<title>Node5</title>
<g id="a_Node000005"><a xlink:href="../../d4/d03/classfloat.html" target="_top" xlink:title=" ">
<polygon fill="white" stroke="#666666" points="216.75,-206 182.75,-206 182.75,-186 216.75,-186 216.75,-206"/>
<text text-anchor="middle" x="199.75" y="-192.5" font-family="Helvetica,sans-Serif" font-size="10.00">float</text>
</a>
</g>
</g>
<!-- Node5&#45;&gt;Node2 -->
<g id="edge4_Node000002_Node000005" class="edge">
<title>Node5&#45;&gt;Node2</title>
<g id="a_edge4_Node000002_Node000005"><a xlink:title=" ">
<path fill="none" stroke="#9a32cd" stroke-dasharray="5,2" d="M201.58,-174.51C204.66,-151.88 212.88,-115.77 234.75,-94 249.23,-79.58 271.73,-72.85 289.01,-69.72"/>
<polygon fill="#9a32cd" stroke="#9a32cd" points="198.12,-173.96 200.48,-184.28 205.07,-174.73 198.12,-173.96"/>
</a>
</g>
<text text-anchor="middle" x="272.25" y="-132.5" font-family="Helvetica,sans-Serif" font-size="10.00" fill="grey"> m_Lifetime</text>
<text text-anchor="middle" x="272.25" y="-120.5" font-family="Helvetica,sans-Serif" font-size="10.00" fill="grey">m_MaxOriInterval</text>
<text text-anchor="middle" x="272.25" y="-108.5" font-family="Helvetica,sans-Serif" font-size="10.00" fill="grey">m_MaxOriWiggle</text>
</g>
<!-- Node5&#45;&gt;Node5 -->
<g id="edge5_Node000005_Node000005" class="edge">
<title>Node5&#45;&gt;Node5</title>
<g id="a_edge5_Node000005_Node000005"><a xlink:title=" ">
<path fill="none" stroke="#9a32cd" stroke-dasharray="5,2" d="M221.43,-209.5C228.81,-209.58 234.75,-205.08 234.75,-196 234.75,-182.64 221.9,-179.2 210.5,-185.67"/>
<polygon fill="#9a32cd" stroke="#9a32cd" points="222.53,-206.17 211.95,-206.75 220.58,-212.9 222.53,-206.17"/>
</a>
</g>
<text text-anchor="middle" x="256.88" y="-204.5" font-family="Helvetica,sans-Serif" font-size="10.00" fill="grey"> LOWEST</text>
<text text-anchor="middle" x="256.88" y="-192.5" font-family="Helvetica,sans-Serif" font-size="10.00" fill="grey">MAX</text>
<text text-anchor="middle" x="256.88" y="-180.5" font-family="Helvetica,sans-Serif" font-size="10.00" fill="grey">MIN</text>
</g>
<!-- Node6 -->
<g id="Node000006" class="node">
<title>Node6</title>
<g id="a_Node000006"><a xlink:href="../../d9/d09/classbool.html" target="_top" xlink:title=" ">
<polygon fill="white" stroke="#666666" points="330.75,-206 296.75,-206 296.75,-186 330.75,-186 330.75,-206"/>
<text text-anchor="middle" x="313.75" y="-192.5" font-family="Helvetica,sans-Serif" font-size="10.00">bool</text>
</a>
</g>
</g>
<!-- Node6&#45;&gt;Node2 -->
<g id="edge6_Node000002_Node000006" class="edge">
<title>Node6&#45;&gt;Node2</title>
<g id="a_edge6_Node000002_Node000006"><a xlink:title=" ">
<path fill="none" stroke="#9a32cd" stroke-dasharray="5,2" d="M313.75,-174.57C313.75,-146.49 313.75,-97.09 313.75,-76.47"/>
<polygon fill="#9a32cd" stroke="#9a32cd" points="310.25,-174.28 313.75,-184.28 317.25,-174.28 310.25,-174.28"/>
</a>
</g>
<text text-anchor="start" x="313.75" y="-144.5" font-family="Helvetica,sans-Serif" font-size="10.00" fill="grey"> m_ForceOrientationRelative</text>
<text text-anchor="middle" x="374.88" y="-132.5" font-family="Helvetica,sans-Serif" font-size="10.00" fill="grey">ToWorld</text>
<text text-anchor="middle" x="374.88" y="-120.5" font-family="Helvetica,sans-Serif" font-size="10.00" fill="grey">m_IsRepeat</text>
<text text-anchor="middle" x="374.88" y="-108.5" font-family="Helvetica,sans-Serif" font-size="10.00" fill="grey">m_MarkedForDeletion</text>
<text text-anchor="middle" x="374.88" y="-96.5" font-family="Helvetica,sans-Serif" font-size="10.00" fill="grey">m_WiggleProcessing</text>
</g>
<!-- Node7 -->
<g id="Node000007" class="node">
<title>Node7</title>
<g id="a_Node000007"><a xlink:href="../../d7/d0c/classvector.html" target="_top" xlink:title=" ">
<polygon fill="white" stroke="#666666" points="479.5,-206 438,-206 438,-186 479.5,-186 479.5,-206"/>
<text text-anchor="middle" x="458.75" y="-192.5" font-family="Helvetica,sans-Serif" font-size="10.00">vector</text>
</a>
</g>
</g>
<!-- Node7&#45;&gt;Node2 -->
<g id="edge7_Node000002_Node000007" class="edge">
<title>Node7&#45;&gt;Node2</title>
<g id="a_edge7_Node000002_Node000007"><a xlink:title=" ">
<path fill="none" stroke="#9a32cd" stroke-dasharray="5,2" d="M460.31,-174.26C460.81,-151.42 457.83,-115.12 436.75,-94 423.2,-80.42 370.42,-72.77 338.57,-69.3"/>
<polygon fill="#9a32cd" stroke="#9a32cd" points="456.82,-174 459.81,-184.16 463.81,-174.34 456.82,-174"/>
</a>
</g>
<text text-anchor="middle" x="520.25" y="-144.5" font-family="Helvetica,sans-Serif" font-size="10.00" fill="grey"> m_DefaultOri</text>
<text text-anchor="middle" x="520.25" y="-132.5" font-family="Helvetica,sans-Serif" font-size="10.00" fill="grey">m_DefaultPos</text>
<text text-anchor="middle" x="520.25" y="-120.5" font-family="Helvetica,sans-Serif" font-size="10.00" fill="grey">m_DefaultWorldOri</text>
<text text-anchor="middle" x="520.25" y="-108.5" font-family="Helvetica,sans-Serif" font-size="10.00" fill="grey">m_DefaultWorldPos</text>
<text text-anchor="middle" x="520.25" y="-96.5" font-family="Helvetica,sans-Serif" font-size="10.00" fill="grey">m_GlobalPosPreviousFrame</text>
</g>
<!-- Node7&#45;&gt;Node7 -->
<g id="edge8_Node000007_Node000007" class="edge">
<title>Node7&#45;&gt;Node7</title>
<g id="a_edge8_Node000007_Node000007"><a xlink:title=" ">
<path fill="none" stroke="#9a32cd" stroke-dasharray="5,2" d="M481.62,-209.46C490.31,-209.98 497.5,-205.5 497.5,-196 497.5,-182.64 483.27,-179.2 470.65,-185.67"/>
<polygon fill="#9a32cd" stroke="#9a32cd" points="482.68,-206.12 472.11,-206.75 480.76,-212.86 482.68,-206.12"/>
</a>
</g>
<text text-anchor="middle" x="514.75" y="-210.5" font-family="Helvetica,sans-Serif" font-size="10.00" fill="grey"> Aside</text>
<text text-anchor="middle" x="514.75" y="-198.5" font-family="Helvetica,sans-Serif" font-size="10.00" fill="grey">Forward</text>
<text text-anchor="middle" x="514.75" y="-186.5" font-family="Helvetica,sans-Serif" font-size="10.00" fill="grey">Up</text>
<text text-anchor="middle" x="514.75" y="-174.5" font-family="Helvetica,sans-Serif" font-size="10.00" fill="grey">Zero</text>
</g>
<!-- Node8 -->
<g id="Node000008" class="node">
<title>Node8</title>
<g id="a_Node000008"><a xlink:href="../../d8/d08/class_timer.html" target="_top" xlink:title=" ">
<polygon fill="white" stroke="#666666" points="624.75,-206 584.75,-206 584.75,-186 624.75,-186 624.75,-206"/>
<text text-anchor="middle" x="604.75" y="-192.5" font-family="Helvetica,sans-Serif" font-size="10.00">Timer</text>
</a>
</g>
</g>
<!-- Node8&#45;&gt;Node2 -->
<g id="edge9_Node000002_Node000008" class="edge">
<title>Node8&#45;&gt;Node2</title>
<g id="a_edge9_Node000002_Node000008"><a xlink:title=" ">
<path fill="none" stroke="#9a32cd" stroke-dasharray="5,2" d="M603.07,-174.34C600.47,-147.97 594.49,-104.47 582.75,-94 564.71,-77.91 401.52,-70.23 338.46,-67.85"/>
<polygon fill="#9a32cd" stroke="#9a32cd" points="599.57,-174.54 603.95,-184.19 606.55,-173.92 599.57,-174.54"/>
</a>
</g>
<text text-anchor="middle" x="638.75" y="-120.5" font-family="Helvetica,sans-Serif" font-size="10.00" fill="grey"> m_RandomizeOri</text>
</g>
<!-- Node9 -->
<g id="Node000009" class="node">
<title>Node9</title>
<g id="a_Node000009"><a xlink:href="../../d8/d03/class_object.html" target="_top" xlink:title=" ">
<polygon fill="white" stroke="#666666" points="728,-206 683.5,-206 683.5,-186 728,-186 728,-206"/>
<text text-anchor="middle" x="705.75" y="-192.5" font-family="Helvetica,sans-Serif" font-size="10.00">Object</text>
</a>
</g>
</g>
<!-- Node9&#45;&gt;Node2 -->
<g id="edge10_Node000002_Node000009" class="edge">
<title>Node9&#45;&gt;Node2</title>
<g id="a_edge10_Node000002_Node000009"><a xlink:title=" ">
<path fill="none" stroke="#9a32cd" stroke-dasharray="5,2" d="M707.37,-174.32C707.93,-150.95 704.79,-113.62 681.75,-94 655.72,-71.83 417.15,-67.86 338.66,-67.15"/>
<polygon fill="#9a32cd" stroke="#9a32cd" points="703.88,-173.99 706.85,-184.16 710.87,-174.35 703.88,-173.99"/>
</a>
</g>
<text text-anchor="middle" x="742.5" y="-126.5" font-family="Helvetica,sans-Serif" font-size="10.00" fill="grey"> m_ParentObject</text>
<text text-anchor="middle" x="742.5" y="-114.5" font-family="Helvetica,sans-Serif" font-size="10.00" fill="grey">m_ParticleEffect</text>
</g>
</g>
</svg>

<g id="navigator" transform="translate(0 0)" fill="#404254">
  <rect fill="#f2f5e9" fill-opacity="0.5" stroke="#606060" stroke-width=".5" x="0" y="0" width="60" height="60"/>
  <use id="zoomplus" xlink:href="#zoomPlus" x="17" y="9" onmousedown="handleZoom(evt,'in')"/>
  <use id="zoomminus" xlink:href="#zoomMin" x="42" y="9" onmousedown="handleZoom(evt,'out')"/>
  <use id="reset" xlink:href="#resetDef" x="30" y="36" onmousedown="handleReset()"/>
   <use id="arrowup" xlink:href="#arrowUp" x="0" y="0" onmousedown="handlePan(0,-1)"/>
  <use id="arrowright" xlink:href="#arrowRight" x="0" y="0" onmousedown="handlePan(1,0)"/>
  <use id="arrowdown" xlink:href="#arrowDown" x="0" y="0" onmousedown="handlePan(0,1)"/>
  <use id="arrowleft" xlink:href="#arrowLeft" x="0" y="0" onmousedown="handlePan(-1,0)"/>
</g>
<svg viewBox="0 0 15 15" width="100%" height="30px" preserveAspectRatio="xMaxYMin meet">
 <g id="arrow_out" transform="scale(0.3 0.3)">
  <a xlink:href="class_particle_source__coll__graph_org.svg" target="_base">
   <rect id="button" ry="5" rx="5" y="6" x="6" height="38" width="38"
        fill="#f2f5e9" fill-opacity="0.5" stroke="#606060" stroke-width="1.0"/>
   <path id="arrow"
     d="M 11.500037,31.436501 C 11.940474,20.09759 22.043105,11.32322 32.158766,21.979434 L 37.068811,17.246167 C 37.068811,17.246167 37.088388,32 37.088388,32 L 22.160133,31.978069 C 22.160133,31.978069 26.997745,27.140456 26.997745,27.140456 C 18.528582,18.264221 13.291696,25.230495 11.500037,31.436501 z"
     style="fill:#404040;"/>
  </a>
 </g>
</svg>

<style type='text/css'>
<![CDATA[
[data-mouse-over-selected='false'] { opacity: 0.7; }
[data-mouse-over-selected='true']  { opacity: 1.0; }
]]>
</style>
<script type="application/ecmascript"><![CDATA[
document.addEventListener('DOMContentLoaded', (event) => {
  highlightEdges();
  highlightAdjacentNodes();
});
]]></script>
</svg>
