<?xml version="1.0" encoding="UTF-8" standalone="no"?>
<!DOCTYPE svg PUBLIC "-//W3C//DTD SVG 1.1//EN"
 "http://www.w3.org/Graphics/SVG/1.1/DTD/svg11.dtd">
<!-- Generated by graphviz version 11.0.0 (20240428.1522)
 -->
<!-- Title: PluginDayzPlayerDebug_OtherCmds Pages: 1 -->
<svg width="314pt" height="144pt"
 viewBox="0.00 0.00 314.12 144.00" xmlns="http://www.w3.org/2000/svg" xmlns:xlink="http://www.w3.org/1999/xlink">
<g id="graph0" class="graph" transform="scale(1 1) rotate(0) translate(4 140)">
<title>PluginDayzPlayerDebug_OtherCmds</title>
<!-- Node1 -->
<g id="Node000001" class="node">
<title>Node1</title>
<g id="a_Node000001"><a xlink:title=" ">
<polygon fill="#999999" stroke="#666666" points="165.88,-32 44.88,-32 44.88,0 165.88,0 165.88,-32"/>
<text text-anchor="start" x="52.88" y="-18.5" font-family="Helvetica,sans-Serif" font-size="10.00">PluginDayzPlayerDebug</text>
<text text-anchor="middle" x="105.38" y="-6.5" font-family="Helvetica,sans-Serif" font-size="10.00">_OtherCmds</text>
</a>
</g>
</g>
<!-- Node2 -->
<g id="Node000002" class="node">
<title>Node2</title>
<g id="a_Node000002"><a xlink:href="../../dd/d0a/class_widget.html" target="_top" xlink:title=" ">
<polygon fill="white" stroke="#666666" points="46.75,-136 0,-136 0,-116 46.75,-116 46.75,-136"/>
<text text-anchor="middle" x="23.38" y="-122.5" font-family="Helvetica,sans-Serif" font-size="10.00">Widget</text>
</a>
</g>
</g>
<!-- Node2&#45;&gt;Node1 -->
<g id="edge1_Node000001_Node000002" class="edge">
<title>Node2&#45;&gt;Node1</title>
<g id="a_edge1_Node000001_Node000002"><a xlink:title=" ">
<path fill="none" stroke="#9a32cd" stroke-dasharray="5,2" d="M24.5,-104.63C26.36,-88.32 31.18,-65.65 43.62,-50 49.3,-42.86 56.95,-37.08 64.93,-32.46"/>
<polygon fill="#9a32cd" stroke="#9a32cd" points="21.05,-103.88 23.71,-114.14 28.03,-104.46 21.05,-103.88"/>
</a>
</g>
<text text-anchor="middle" x="73.25" y="-70.5" font-family="Helvetica,sans-Serif" font-size="10.00" fill="grey"> m_MainWnd</text>
</g>
<!-- Node3 -->
<g id="Node000003" class="node">
<title>Node3</title>
<g id="a_Node000003"><a xlink:href="../../d0/d0b/class_edit_box_widget.html" target="_top" xlink:title=" ">
<polygon fill="white" stroke="#666666" points="146,-136 64.75,-136 64.75,-116 146,-116 146,-136"/>
<text text-anchor="middle" x="105.38" y="-122.5" font-family="Helvetica,sans-Serif" font-size="10.00">EditBoxWidget</text>
</a>
</g>
</g>
<!-- Node3&#45;&gt;Node1 -->
<g id="edge2_Node000001_Node000003" class="edge">
<title>Node3&#45;&gt;Node1</title>
<g id="a_edge2_Node000001_Node000003"><a xlink:title=" ">
<path fill="none" stroke="#9a32cd" stroke-dasharray="5,2" d="M105.38,-104.35C105.38,-83.32 105.38,-51.21 105.38,-32.34"/>
<polygon fill="#9a32cd" stroke="#9a32cd" points="101.88,-104.28 105.38,-114.28 108.88,-104.28 101.88,-104.28"/>
</a>
</g>
<text text-anchor="middle" x="154.12" y="-70.5" font-family="Helvetica,sans-Serif" font-size="10.00" fill="grey"> m_DeathDirectionEdit</text>
</g>
<!-- Node4 -->
<g id="Node000004" class="node">
<title>Node4</title>
<g id="a_Node000004"><a xlink:href="../../d9/d09/classbool.html" target="_top" xlink:title=" ">
<polygon fill="white" stroke="#666666" points="243.38,-136 209.38,-136 209.38,-116 243.38,-116 243.38,-136"/>
<text text-anchor="middle" x="226.38" y="-122.5" font-family="Helvetica,sans-Serif" font-size="10.00">bool</text>
</a>
</g>
</g>
<!-- Node4&#45;&gt;Node1 -->
<g id="edge3_Node000001_Node000004" class="edge">
<title>Node4&#45;&gt;Node1</title>
<g id="a_edge3_Node000001_Node000004"><a xlink:title=" ">
<path fill="none" stroke="#9a32cd" stroke-dasharray="5,2" d="M225.41,-104.28C223.56,-87.58 218.41,-64.56 204.38,-50 194.06,-39.31 180.2,-32.08 166.12,-27.19"/>
<polygon fill="#9a32cd" stroke="#9a32cd" points="221.91,-104.36 226.16,-114.06 228.89,-103.82 221.91,-104.36"/>
</a>
</g>
<text text-anchor="middle" x="265.25" y="-88.5" font-family="Helvetica,sans-Serif" font-size="10.00" fill="grey"> m_CH_DeathStart</text>
<text text-anchor="middle" x="265.25" y="-76.5" font-family="Helvetica,sans-Serif" font-size="10.00" fill="grey">m_CH_HitStart</text>
<text text-anchor="middle" x="265.25" y="-64.5" font-family="Helvetica,sans-Serif" font-size="10.00" fill="grey">m_CH_UnconEnd</text>
<text text-anchor="middle" x="265.25" y="-52.5" font-family="Helvetica,sans-Serif" font-size="10.00" fill="grey">m_CH_UnconStart</text>
</g>
</g>
</svg>
