<?xml version="1.0" encoding="UTF-8" standalone="no"?>
<!DOCTYPE svg PUBLIC "-//W3C//DTD SVG 1.1//EN"
 "http://www.w3.org/Graphics/SVG/1.1/DTD/svg11.dtd">
<!-- Generated by graphviz version 11.0.0 (20240428.1522)
 -->
<!-- Title: AnalyticsManagerClient Pages: 1 -->
<svg width="194pt" height="96pt"
 viewBox="0.00 0.00 194.38 96.00" xmlns="http://www.w3.org/2000/svg" xmlns:xlink="http://www.w3.org/1999/xlink">
<g id="graph0" class="graph" transform="scale(1 1) rotate(0) translate(4 92)">
<title>AnalyticsManagerClient</title>
<!-- Node1 -->
<g id="Node000001" class="node">
<title>Node1</title>
<g id="a_Node000001"><a xlink:title=" ">
<polygon fill="#999999" stroke="#666666" points="130.25,-20 11.5,-20 11.5,0 130.25,0 130.25,-20"/>
<text text-anchor="middle" x="70.88" y="-6.5" font-family="Helvetica,sans-Serif" font-size="10.00">AnalyticsManagerClient</text>
</a>
</g>
</g>
<!-- Node2 -->
<g id="Node000002" class="node">
<title>Node2</title>
<g id="a_Node000002"><a xlink:href="../../db/d06/class_param3.html" target="_top" xlink:title=" ">
<polygon fill="white" stroke="#666666" points="49.75,-88 0,-88 0,-68 49.75,-68 49.75,-88"/>
<text text-anchor="middle" x="24.88" y="-74.5" font-family="Helvetica,sans-Serif" font-size="10.00">Param3</text>
</a>
</g>
</g>
<!-- Node2&#45;&gt;Node1 -->
<g id="edge1_Node000001_Node000002" class="edge">
<title>Node2&#45;&gt;Node1</title>
<g id="a_edge1_Node000001_Node000002"><a xlink:title=" ">
<path fill="none" stroke="#9a32cd" stroke-dasharray="5,2" d="M21.72,-56.49C21.68,-50.2 22.67,-43.49 25.88,-38 30.37,-30.29 38.02,-24.52 45.75,-20.35"/>
<polygon fill="#9a32cd" stroke="#9a32cd" points="18.2,-56.5 22.59,-66.14 25.17,-55.87 18.2,-56.5"/>
</a>
</g>
<text text-anchor="middle" x="60.38" y="-40.5" font-family="Helvetica,sans-Serif" font-size="10.00" fill="grey"> GEAR_COUNT</text>
</g>
<!-- Node3 -->
<g id="Node000003" class="node">
<title>Node3</title>
<g id="a_Node000003"><a xlink:href="../../d5/d02/classstring.html" target="_top" xlink:title=" ">
<polygon fill="white" stroke="#666666" points="136.88,-88 96.88,-88 96.88,-68 136.88,-68 136.88,-88"/>
<text text-anchor="middle" x="116.88" y="-74.5" font-family="Helvetica,sans-Serif" font-size="10.00">string</text>
</a>
</g>
</g>
<!-- Node3&#45;&gt;Node1 -->
<g id="edge2_Node000001_Node000003" class="edge">
<title>Node3&#45;&gt;Node1</title>
<g id="a_edge2_Node000001_Node000003"><a xlink:title=" ">
<path fill="none" stroke="#9a32cd" stroke-dasharray="5,2" d="M107.07,-57.73C103.51,-51.28 99.27,-44.16 94.88,-38 90.36,-31.67 84.58,-25.14 79.83,-20.08"/>
<polygon fill="#9a32cd" stroke="#9a32cd" points="103.86,-59.14 111.62,-66.34 110.04,-55.87 103.86,-59.14"/>
</a>
</g>
<text text-anchor="middle" x="128.5" y="-40.5" font-family="Helvetica,sans-Serif" font-size="10.00" fill="grey"> m_FullGear</text>
</g>
<!-- Node3&#45;&gt;Node3 -->
<g id="edge3_Node000003_Node000003" class="edge">
<title>Node3&#45;&gt;Node3</title>
<g id="a_edge3_Node000003_Node000003"><a xlink:title=" ">
<path fill="none" stroke="#9a32cd" stroke-dasharray="5,2" d="M148.63,-83.47C152.41,-82.48 154.88,-80.65 154.88,-78 154.88,-73.15 146.64,-71.07 137.2,-71.75"/>
<polygon fill="#9a32cd" stroke="#9a32cd" points="148.45,-79.98 138.71,-84.15 148.93,-86.96 148.45,-79.98"/>
</a>
</g>
<text text-anchor="middle" x="170.62" y="-74.5" font-family="Helvetica,sans-Serif" font-size="10.00" fill="grey"> Empty</text>
</g>
</g>
</svg>
