<?xml version="1.0" encoding="UTF-8" standalone="no"?>
<!DOCTYPE svg PUBLIC "-//W3C//DTD SVG 1.1//EN"
 "http://www.w3.org/Graphics/SVG/1.1/DTD/svg11.dtd">
<!-- Generated by graphviz version 11.0.0 (20240428.1522)
 -->
<!-- Title: RestartDayzTool Pages: 1 -->
<svg width="190pt" height="164pt"
 viewBox="0.00 0.00 189.75 164.00" xmlns="http://www.w3.org/2000/svg" xmlns:xlink="http://www.w3.org/1999/xlink">
<g id="graph0" class="graph" transform="scale(1 1) rotate(0) translate(4 160)">
<title>RestartDayzTool</title>
<!-- Node1 -->
<g id="Node000001" class="node">
<title>Node1</title>
<g id="a_Node000001"><a xlink:title=" ">
<polygon fill="#999999" stroke="#666666" points="123.25,-20 35.25,-20 35.25,0 123.25,0 123.25,-20"/>
<text text-anchor="middle" x="79.25" y="-6.5" font-family="Helvetica,sans-Serif" font-size="10.00">RestartDayzTool</text>
</a>
</g>
</g>
<!-- Node2 -->
<g id="Node000002" class="node">
<title>Node2</title>
<g id="a_Node000002"><a xlink:href="../../de/d09/class_day_z_tool.html" target="_top" xlink:title=" ">
<polygon fill="white" stroke="#666666" points="74.5,-100 18,-100 18,-80 74.5,-80 74.5,-100"/>
<text text-anchor="middle" x="46.25" y="-86.5" font-family="Helvetica,sans-Serif" font-size="10.00">DayZTool</text>
</a>
</g>
</g>
<!-- Node2&#45;&gt;Node1 -->
<g id="edge1_Node000001_Node000002" class="edge">
<title>Node2&#45;&gt;Node1</title>
<g id="a_edge1_Node000001_Node000002"><a xlink:title=" ">
<path fill="none" stroke="#8b1a1a" d="M54.5,-69.51C61.16,-53.77 70.23,-32.32 75.34,-20.24"/>
<polygon fill="#8b1a1a" stroke="#8b1a1a" points="51.43,-67.78 50.75,-78.35 57.87,-70.51 51.43,-67.78"/>
</a>
</g>
</g>
<!-- Node3 -->
<g id="Node000003" class="node">
<title>Node3</title>
<g id="a_Node000003"><a xlink:href="../../d3/d01/class_workbench_plugin.html" target="_top" xlink:title=" ">
<polygon fill="white" stroke="#666666" points="92.5,-156 0,-156 0,-136 92.5,-136 92.5,-156"/>
<text text-anchor="middle" x="46.25" y="-142.5" font-family="Helvetica,sans-Serif" font-size="10.00">WorkbenchPlugin</text>
</a>
</g>
</g>
<!-- Node3&#45;&gt;Node2 -->
<g id="edge2_Node000002_Node000003" class="edge">
<title>Node3&#45;&gt;Node2</title>
<g id="a_edge2_Node000002_Node000003"><a xlink:title=" ">
<path fill="none" stroke="#8b1a1a" d="M46.25,-124.13C46.25,-115.9 46.25,-106.85 46.25,-100.3"/>
<polygon fill="#8b1a1a" stroke="#8b1a1a" points="42.75,-124.08 46.25,-134.08 49.75,-124.08 42.75,-124.08"/>
</a>
</g>
</g>
<!-- Node4 -->
<g id="Node000004" class="node">
<title>Node4</title>
<g id="a_Node000004"><a xlink:href="../../d5/d02/classstring.html" target="_top" xlink:title=" ">
<polygon fill="white" stroke="#666666" points="132.25,-100 92.25,-100 92.25,-80 132.25,-80 132.25,-100"/>
<text text-anchor="middle" x="112.25" y="-86.5" font-family="Helvetica,sans-Serif" font-size="10.00">string</text>
</a>
</g>
</g>
<!-- Node4&#45;&gt;Node1 -->
<g id="edge3_Node000001_Node000004" class="edge">
<title>Node4&#45;&gt;Node1</title>
<g id="a_edge3_Node000001_Node000004"><a xlink:title=" ">
<path fill="none" stroke="#9a32cd" stroke-dasharray="5,2" d="M104,-69.51C97.34,-53.77 88.27,-32.32 83.16,-20.24"/>
<polygon fill="#9a32cd" stroke="#9a32cd" points="100.63,-70.51 107.75,-78.35 107.07,-67.78 100.63,-70.51"/>
</a>
</g>
<text text-anchor="middle" x="134.75" y="-52.5" font-family="Helvetica,sans-Serif" font-size="10.00" fill="grey"> KillBatPath</text>
<text text-anchor="middle" x="134.75" y="-40.5" font-family="Helvetica,sans-Serif" font-size="10.00" fill="grey">MissionBatPath</text>
</g>
<!-- Node4&#45;&gt;Node4 -->
<g id="edge4_Node000004_Node000004" class="edge">
<title>Node4&#45;&gt;Node4</title>
<g id="a_edge4_Node000004_Node000004"><a xlink:title=" ">
<path fill="none" stroke="#9a32cd" stroke-dasharray="5,2" d="M144.01,-94.51C147.79,-93.69 150.25,-92.18 150.25,-90 150.25,-86.01 142.01,-84.29 132.58,-84.85"/>
<polygon fill="#9a32cd" stroke="#9a32cd" points="143.88,-91.01 134.09,-95.06 144.27,-98 143.88,-91.01"/>
</a>
</g>
<text text-anchor="middle" x="166" y="-86.5" font-family="Helvetica,sans-Serif" font-size="10.00" fill="grey"> Empty</text>
</g>
</g>
</svg>
