<?xml version="1.0" encoding="UTF-8" standalone="no"?>
<!DOCTYPE svg PUBLIC "-//W3C//DTD SVG 1.1//EN"
 "http://www.w3.org/Graphics/SVG/1.1/DTD/svg11.dtd">
<!-- Generated by graphviz version 11.0.0 (20240428.1522)
 -->
<!-- Title: KuruShake Pages: 1 -->
<svg width="1202pt" height="530pt"
 viewBox="0.00 0.00 1202.25 529.91" xmlns="http://www.w3.org/2000/svg" xmlns:xlink="http://www.w3.org/1999/xlink">
<g id="graph0" class="graph" transform="scale(1 1) rotate(0) translate(4 525.91)">
<title>KuruShake</title>
<!-- Node1 -->
<g id="Node000001" class="node">
<title>Node1</title>
<g id="a_Node000001"><a xlink:title=" ">
<polygon fill="#999999" stroke="#666666" points="223,-20 159,-20 159,0 223,0 223,-20"/>
<text text-anchor="middle" x="191" y="-6.5" font-family="Helvetica,sans-Serif" font-size="10.00">KuruShake</text>
</a>
</g>
</g>
<!-- Node2 -->
<g id="Node000002" class="node">
<title>Node2</title>
<g id="a_Node000002"><a xlink:href="../../d4/d03/classfloat.html" target="_top" xlink:title=" ">
<polygon fill="white" stroke="#666666" points="43,-216 9,-216 9,-196 43,-196 43,-216"/>
<text text-anchor="middle" x="26" y="-202.5" font-family="Helvetica,sans-Serif" font-size="10.00">float</text>
</a>
</g>
</g>
<!-- Node2&#45;&gt;Node1 -->
<g id="edge1_Node000001_Node000002" class="edge">
<title>Node2&#45;&gt;Node1</title>
<g id="a_edge1_Node000001_Node000002"><a xlink:title=" ">
<path fill="none" stroke="#9a32cd" stroke-dasharray="5,2" d="M19.44,-185.02C9.48,-150.46 -4.74,-79.26 31.25,-38 47.52,-19.35 116.93,-13.58 158.72,-11.8"/>
<polygon fill="#9a32cd" stroke="#9a32cd" points="15.97,-185.63 22.25,-194.16 22.66,-183.58 15.97,-185.63"/>
</a>
</g>
<text text-anchor="middle" x="102.88" y="-160.5" font-family="Helvetica,sans-Serif" font-size="10.00" fill="grey"> RANDOM_RANGE_DEVIATION</text>
<text text-anchor="middle" x="102.88" y="-148.5" font-family="Helvetica,sans-Serif" font-size="10.00" fill="grey">RANDOM_RANGE_POINT</text>
<text text-anchor="middle" x="102.88" y="-136.5" font-family="Helvetica,sans-Serif" font-size="10.00" fill="grey">SHAKE_DURATION_PHASE1</text>
<text text-anchor="middle" x="102.88" y="-124.5" font-family="Helvetica,sans-Serif" font-size="10.00" fill="grey">SHAKE_STRENGTH_MAX</text>
<text text-anchor="middle" x="102.88" y="-112.5" font-family="Helvetica,sans-Serif" font-size="10.00" fill="grey">SHAKE_STRENGTH_MIN</text>
<text text-anchor="middle" x="102.88" y="-100.5" font-family="Helvetica,sans-Serif" font-size="10.00" fill="grey">m_RelativeTime</text>
<text text-anchor="middle" x="102.88" y="-88.5" font-family="Helvetica,sans-Serif" font-size="10.00" fill="grey">m_RelativeTime2</text>
<text text-anchor="middle" x="102.88" y="-76.5" font-family="Helvetica,sans-Serif" font-size="10.00" fill="grey">m_ShakeStrength</text>
<text text-anchor="middle" x="102.88" y="-64.5" font-family="Helvetica,sans-Serif" font-size="10.00" fill="grey">m_Time</text>
<text text-anchor="middle" x="102.88" y="-52.5" font-family="Helvetica,sans-Serif" font-size="10.00" fill="grey">m_Time2</text>
<text text-anchor="middle" x="102.88" y="-40.5" font-family="Helvetica,sans-Serif" font-size="10.00" fill="grey">...</text>
</g>
<!-- Node2&#45;&gt;Node2 -->
<g id="edge2_Node000002_Node000002" class="edge">
<title>Node2&#45;&gt;Node2</title>
<g id="a_edge2_Node000002_Node000002"><a xlink:title=" ">
<path fill="none" stroke="#9a32cd" stroke-dasharray="5,2" d="M50.2,-218.23C56.37,-217.43 61,-213.35 61,-206 61,-194.53 49.72,-191.03 38.92,-195.51"/>
<polygon fill="#9a32cd" stroke="#9a32cd" points="50.84,-214.78 40.42,-216.72 49.77,-221.7 50.84,-214.78"/>
</a>
</g>
<text text-anchor="middle" x="83.12" y="-214.5" font-family="Helvetica,sans-Serif" font-size="10.00" fill="grey"> LOWEST</text>
<text text-anchor="middle" x="83.12" y="-202.5" font-family="Helvetica,sans-Serif" font-size="10.00" fill="grey">MAX</text>
<text text-anchor="middle" x="83.12" y="-190.5" font-family="Helvetica,sans-Serif" font-size="10.00" fill="grey">MIN</text>
</g>
<!-- Node3 -->
<g id="Node000003" class="node">
<title>Node3</title>
<g id="a_Node000003"><a xlink:href="../../d5/d08/class_player_base.html" target="_top" xlink:title=" ">
<polygon fill="white" stroke="#666666" points="206.12,-216 139.88,-216 139.88,-196 206.12,-196 206.12,-216"/>
<text text-anchor="middle" x="173" y="-202.5" font-family="Helvetica,sans-Serif" font-size="10.00">PlayerBase</text>
</a>
</g>
</g>
<!-- Node3&#45;&gt;Node1 -->
<g id="edge3_Node000001_Node000003" class="edge">
<title>Node3&#45;&gt;Node1</title>
<g id="a_edge3_Node000001_Node000003"><a xlink:title=" ">
<path fill="none" stroke="#9a32cd" stroke-dasharray="5,2" d="M174.93,-184.23C178.8,-142.48 187.4,-49.83 190.14,-20.26"/>
<polygon fill="#9a32cd" stroke="#9a32cd" points="171.45,-183.86 174.01,-194.14 178.42,-184.5 171.45,-183.86"/>
</a>
</g>
<text text-anchor="middle" x="211.12" y="-100.5" font-family="Helvetica,sans-Serif" font-size="10.00" fill="grey"> m_Player</text>
</g>
<!-- Node4 -->
<g id="Node000004" class="node">
<title>Node4</title>
<g id="a_Node000004"><a xlink:href="../../dd/d03/class_scripted_light_base.html" target="_top" xlink:title=" ">
<polygon fill="white" stroke="#666666" points="220.75,-366 125.25,-366 125.25,-346 220.75,-346 220.75,-366"/>
<text text-anchor="middle" x="173" y="-352.5" font-family="Helvetica,sans-Serif" font-size="10.00">ScriptedLightBase</text>
</a>
</g>
</g>
<!-- Node4&#45;&gt;Node3 -->
<g id="edge4_Node000003_Node000004" class="edge">
<title>Node4&#45;&gt;Node3</title>
<g id="a_edge4_Node000003_Node000004"><a xlink:title=" ">
<path fill="none" stroke="#9a32cd" stroke-dasharray="5,2" d="M173,-334.51C173,-301.96 173,-239.71 173,-216.25"/>
<polygon fill="#9a32cd" stroke="#9a32cd" points="169.5,-334.23 173,-344.23 176.5,-334.23 169.5,-334.23"/>
</a>
</g>
<text text-anchor="middle" x="210.88" y="-268.5" font-family="Helvetica,sans-Serif" font-size="10.00" fill="grey"> m_PersonalLight</text>
</g>
<!-- Node5 -->
<g id="Node000005" class="node">
<title>Node5</title>
<g id="a_Node000005"><a xlink:href="../../d9/d09/classbool.html" target="_top" xlink:title=" ">
<polygon fill="white" stroke="#666666" points="34,-366 0,-366 0,-346 34,-346 34,-366"/>
<text text-anchor="middle" x="17" y="-352.5" font-family="Helvetica,sans-Serif" font-size="10.00">bool</text>
</a>
</g>
</g>
<!-- Node5&#45;&gt;Node3 -->
<g id="edge5_Node000003_Node000005" class="edge">
<title>Node5&#45;&gt;Node3</title>
<g id="a_edge5_Node000003_Node000005"><a xlink:title=" ">
<path fill="none" stroke="#9a32cd" stroke-dasharray="5,2" d="M14.27,-334.51C12.15,-309.33 12.77,-266.9 36.25,-242 60.58,-216.19 79.67,-232.91 114,-224 122.87,-221.7 132.44,-219.02 141.24,-216.49"/>
<polygon fill="#9a32cd" stroke="#9a32cd" points="10.76,-334.56 15.32,-344.12 17.71,-333.8 10.76,-334.56"/>
</a>
</g>
<text text-anchor="start" x="37" y="-292.5" font-family="Helvetica,sans-Serif" font-size="10.00" fill="grey"> m_PersonalLightDisabledBy</text>
<text text-anchor="middle" x="103.38" y="-280.5" font-family="Helvetica,sans-Serif" font-size="10.00" fill="grey">Debug</text>
<text text-anchor="start" x="37" y="-268.5" font-family="Helvetica,sans-Serif" font-size="10.00" fill="grey">m_PersonalLightEnabledOn</text>
<text text-anchor="middle" x="103.38" y="-256.5" font-family="Helvetica,sans-Serif" font-size="10.00" fill="grey">CurrentServer</text>
<text text-anchor="middle" x="103.38" y="-244.5" font-family="Helvetica,sans-Serif" font-size="10.00" fill="grey">m_PersonalLightIsSwitchedOn</text>
</g>
<!-- Node6 -->
<g id="Node000006" class="node">
<title>Node6</title>
<g id="a_Node000006"><a xlink:href="../../d2/d01/classarray.html" target="_top" xlink:title=" ">
<polygon fill="white" stroke="#666666" points="953.62,-216 872.38,-216 872.38,-196 953.62,-196 953.62,-216"/>
<text text-anchor="middle" x="913" y="-202.5" font-family="Helvetica,sans-Serif" font-size="10.00">array&lt; vector &gt;</text>
</a>
</g>
</g>
<!-- Node6&#45;&gt;Node1 -->
<g id="edge6_Node000001_Node000006" class="edge">
<title>Node6&#45;&gt;Node1</title>
<g id="a_edge6_Node000001_Node000006"><a xlink:title=" ">
<path fill="none" stroke="#9a32cd" stroke-dasharray="5,2" d="M866.92,-192.62C731.8,-156.31 338.89,-50.74 223.33,-19.69"/>
<polygon fill="#9a32cd" stroke="#9a32cd" points="865.66,-195.9 876.23,-195.12 867.48,-189.14 865.66,-195.9"/>
</a>
</g>
<text text-anchor="middle" x="794.25" y="-100.5" font-family="Helvetica,sans-Serif" font-size="10.00" fill="grey"> m_Curve</text>
</g>
<!-- Node7 -->
<g id="Node000007" class="node">
<title>Node7</title>
<g id="a_Node000007"><a xlink:href="../../d8/d03/class_object.html" target="_top" xlink:title=" ">
<polygon fill="white" stroke="#666666" points="804.25,-520 759.75,-520 759.75,-500 804.25,-500 804.25,-520"/>
<text text-anchor="middle" x="782" y="-506.5" font-family="Helvetica,sans-Serif" font-size="10.00">Object</text>
</a>
</g>
</g>
<!-- Node7&#45;&gt;Node6 -->
<g id="edge7_Node000006_Node000007" class="edge">
<title>Node7&#45;&gt;Node6</title>
<g id="a_edge7_Node000006_Node000007"><a xlink:title=" ">
<path fill="none" stroke="#9a32cd" stroke-dasharray="5,2" d="M815.99,-507.95C838.33,-505.55 866.86,-499.02 886,-482 911.65,-459.18 890.87,-435.38 914,-410 926.05,-396.78 940.6,-407.22 950,-392 986.51,-332.93 937.17,-244.82 919.14,-216.28"/>
<polygon fill="#9a32cd" stroke="#9a32cd" points="815.83,-504.45 806.14,-508.75 816.4,-511.43 815.83,-504.45"/>
</a>
</g>
<text text-anchor="middle" x="976.5" y="-358.5" font-family="Helvetica,sans-Serif" font-size="10.00" fill="grey"> obj</text>
<text text-anchor="middle" x="976.5" y="-346.5" font-family="Helvetica,sans-Serif" font-size="10.00" fill="grey">parent</text>
</g>
<!-- Node9 -->
<g id="Node000009" class="node">
<title>Node9</title>
<g id="a_Node000009"><a xlink:href="../../d2/d01/classarray.html" target="_top" xlink:title="Result for an object found in CGame.IsBoxCollidingGeometryProxy.">
<polygon fill="white" stroke="#666666" points="796.88,-366 759.12,-366 759.12,-346 796.88,-346 796.88,-366"/>
<text text-anchor="middle" x="778" y="-352.5" font-family="Helvetica,sans-Serif" font-size="10.00">array</text>
</a>
</g>
</g>
<!-- Node7&#45;&gt;Node9 -->
<g id="edge10_Node000009_Node000007" class="edge">
<title>Node7&#45;&gt;Node9</title>
<g id="a_edge10_Node000009_Node000007"><a xlink:title=" ">
<path fill="none" stroke="#9a32cd" stroke-dasharray="5,2" d="M781.46,-488.47C780.58,-455.04 778.87,-390.17 778.24,-366.2"/>
<polygon fill="#9a32cd" stroke="#9a32cd" points="777.96,-488.53 781.72,-498.43 784.96,-488.35 777.96,-488.53"/>
</a>
</g>
<text text-anchor="middle" x="794.5" y="-448.5" font-family="Helvetica,sans-Serif" font-size="10.00" fill="grey"> obj</text>
<text text-anchor="middle" x="794.5" y="-436.5" font-family="Helvetica,sans-Serif" font-size="10.00" fill="grey">parent</text>
</g>
<!-- Node13 -->
<g id="Node000013" class="node">
<title>Node13</title>
<g id="a_Node000013"><a xlink:href="../../d2/d01/classarray.html" target="_top" xlink:title=" ">
<polygon fill="white" stroke="#666666" points="648.25,-216 561.75,-216 561.75,-196 648.25,-196 648.25,-216"/>
<text text-anchor="middle" x="605" y="-202.5" font-family="Helvetica,sans-Serif" font-size="10.00">array&lt; Widget &gt;</text>
</a>
</g>
</g>
<!-- Node7&#45;&gt;Node13 -->
<g id="edge18_Node000013_Node000007" class="edge">
<title>Node7&#45;&gt;Node13</title>
<g id="a_edge18_Node000013_Node000007"><a xlink:title=" ">
<path fill="none" stroke="#9a32cd" stroke-dasharray="5,2" d="M774.81,-488.77C765.24,-462.96 748.02,-420.41 735,-410 706.53,-387.24 684.83,-412.93 655,-392 623.91,-370.19 633.56,-348.96 609,-320 601.27,-310.88 593.87,-312.92 589,-302 578.15,-277.64 583.33,-268.06 589,-242 590.99,-232.86 595.59,-223.25 599.35,-216.42"/>
<polygon fill="#9a32cd" stroke="#9a32cd" points="771.51,-489.95 778.21,-498.15 778.09,-487.56 771.51,-489.95"/>
</a>
</g>
<text text-anchor="middle" x="668.5" y="-358.5" font-family="Helvetica,sans-Serif" font-size="10.00" fill="grey"> obj</text>
<text text-anchor="middle" x="668.5" y="-346.5" font-family="Helvetica,sans-Serif" font-size="10.00" fill="grey">parent</text>
</g>
<!-- Node8 -->
<g id="Node000008" class="node">
<title>Node8</title>
<g id="a_Node000008"><a xlink:href="../../db/d06/class_param3.html" target="_top" xlink:title=" ">
<polygon fill="white" stroke="#666666" points="499.88,-520 450.12,-520 450.12,-500 499.88,-500 499.88,-520"/>
<text text-anchor="middle" x="475" y="-506.5" font-family="Helvetica,sans-Serif" font-size="10.00">Param3</text>
</a>
</g>
</g>
<!-- Node8&#45;&gt;Node6 -->
<g id="edge8_Node000006_Node000008" class="edge">
<title>Node8&#45;&gt;Node6</title>
<g id="a_edge8_Node000006_Node000008"><a xlink:title=" ">
<path fill="none" stroke="#9a32cd" stroke-dasharray="5,2" d="M473.3,-488.44C470.13,-444.41 465.62,-343.14 488.75,-320 527.38,-281.35 689.01,-333.02 734,-302 758.23,-285.29 739.14,-260.53 762,-242 793.05,-216.84 838.89,-209.09 871.91,-207.02"/>
<polygon fill="#9a32cd" stroke="#9a32cd" points="469.8,-488.69 474.07,-498.38 476.78,-488.14 469.8,-488.69"/>
</a>
</g>
<text text-anchor="middle" x="546.12" y="-382.5" font-family="Helvetica,sans-Serif" font-size="10.00" fill="grey"> NO_SORTING</text>
<text text-anchor="middle" x="546.12" y="-370.5" font-family="Helvetica,sans-Serif" font-size="10.00" fill="grey">geomLevel</text>
<text text-anchor="middle" x="546.12" y="-358.5" font-family="Helvetica,sans-Serif" font-size="10.00" fill="grey">hierLevel</text>
<text text-anchor="start" x="488" y="-346.5" font-family="Helvetica,sans-Serif" font-size="10.00" fill="grey">m_CurrentSettingAlternate</text>
<text text-anchor="middle" x="546.12" y="-334.5" font-family="Helvetica,sans-Serif" font-size="10.00" fill="grey">KeyIndex</text>
<text text-anchor="middle" x="546.12" y="-322.5" font-family="Helvetica,sans-Serif" font-size="10.00" fill="grey">m_CurrentSettingKeyIndex</text>
</g>
<!-- Node8&#45;&gt;Node9 -->
<g id="edge11_Node000009_Node000008" class="edge">
<title>Node8&#45;&gt;Node9</title>
<g id="a_edge11_Node000009_Node000008"><a xlink:title=" ">
<path fill="none" stroke="#9a32cd" stroke-dasharray="5,2" d="M486.19,-489.74C500.92,-466.39 529.16,-427.94 564.75,-410 636.64,-373.76 672.76,-427.54 745,-392 756.69,-386.25 766.39,-374.51 772.18,-366.22"/>
<polygon fill="#9a32cd" stroke="#9a32cd" points="483.22,-487.89 481.02,-498.26 489.2,-491.52 483.22,-487.89"/>
</a>
</g>
<text text-anchor="middle" x="622.12" y="-472.5" font-family="Helvetica,sans-Serif" font-size="10.00" fill="grey"> NO_SORTING</text>
<text text-anchor="middle" x="622.12" y="-460.5" font-family="Helvetica,sans-Serif" font-size="10.00" fill="grey">geomLevel</text>
<text text-anchor="middle" x="622.12" y="-448.5" font-family="Helvetica,sans-Serif" font-size="10.00" fill="grey">hierLevel</text>
<text text-anchor="start" x="564" y="-436.5" font-family="Helvetica,sans-Serif" font-size="10.00" fill="grey">m_CurrentSettingAlternate</text>
<text text-anchor="middle" x="622.12" y="-424.5" font-family="Helvetica,sans-Serif" font-size="10.00" fill="grey">KeyIndex</text>
<text text-anchor="middle" x="622.12" y="-412.5" font-family="Helvetica,sans-Serif" font-size="10.00" fill="grey">m_CurrentSettingKeyIndex</text>
</g>
<!-- Node8&#45;&gt;Node13 -->
<g id="edge19_Node000013_Node000008" class="edge">
<title>Node8&#45;&gt;Node13</title>
<g id="a_edge19_Node000013_Node000008"><a xlink:title=" ">
<path fill="none" stroke="#9a32cd" stroke-dasharray="5,2" d="M439,-497.41C395.99,-481.39 326.04,-447.95 295.75,-392 280.51,-363.86 279.45,-347.53 295.75,-320 350.14,-228.15 489.75,-210.17 561.29,-207.17"/>
<polygon fill="#9a32cd" stroke="#9a32cd" points="437.82,-500.7 448.41,-500.78 440.18,-494.11 437.82,-500.7"/>
</a>
</g>
<text text-anchor="middle" x="354.12" y="-382.5" font-family="Helvetica,sans-Serif" font-size="10.00" fill="grey"> NO_SORTING</text>
<text text-anchor="middle" x="354.12" y="-370.5" font-family="Helvetica,sans-Serif" font-size="10.00" fill="grey">geomLevel</text>
<text text-anchor="middle" x="354.12" y="-358.5" font-family="Helvetica,sans-Serif" font-size="10.00" fill="grey">hierLevel</text>
<text text-anchor="start" x="296" y="-346.5" font-family="Helvetica,sans-Serif" font-size="10.00" fill="grey">m_CurrentSettingAlternate</text>
<text text-anchor="middle" x="354.12" y="-334.5" font-family="Helvetica,sans-Serif" font-size="10.00" fill="grey">KeyIndex</text>
<text text-anchor="middle" x="354.12" y="-322.5" font-family="Helvetica,sans-Serif" font-size="10.00" fill="grey">m_CurrentSettingKeyIndex</text>
</g>
<!-- Node9&#45;&gt;Node6 -->
<g id="edge9_Node000006_Node000009" class="edge">
<title>Node9&#45;&gt;Node6</title>
<g id="a_edge9_Node000006_Node000009"><a xlink:title=" ">
<path fill="none" stroke="#9a32cd" stroke-dasharray="5,2" d="M794.01,-337.45C822.83,-305.85 882.5,-240.44 904.56,-216.25"/>
<polygon fill="#9a32cd" stroke="#9a32cd" points="791.62,-334.88 787.46,-344.62 796.79,-339.59 791.62,-334.88"/>
</a>
</g>
<text text-anchor="middle" x="901" y="-268.5" font-family="Helvetica,sans-Serif" font-size="10.00" fill="grey"> proxyInfo</text>
</g>
<!-- Node9&#45;&gt;Node9 -->
<g id="edge12_Node000009_Node000009" class="edge">
<title>Node9&#45;&gt;Node9</title>
<g id="a_edge12_Node000009_Node000009"><a xlink:title=" ">
<path fill="none" stroke="#9a32cd" stroke-dasharray="5,2" d="M797.29,-371.35C806.62,-373.29 814.88,-368.17 814.88,-356 814.88,-339.43 799.57,-335.93 787.07,-345.51"/>
<polygon fill="#9a32cd" stroke="#9a32cd" points="798.97,-368.28 788.44,-367.14 795.96,-374.6 798.97,-368.28"/>
</a>
</g>
<text text-anchor="middle" x="835.88" y="-352.5" font-family="Helvetica,sans-Serif" font-size="10.00" fill="grey"> proxyInfo</text>
</g>
<!-- Node9&#45;&gt;Node13 -->
<g id="edge20_Node000013_Node000009" class="edge">
<title>Node9&#45;&gt;Node13</title>
<g id="a_edge20_Node000013_Node000009"><a xlink:title=" ">
<path fill="none" stroke="#9a32cd" stroke-dasharray="5,2" d="M765.01,-336.71C759.56,-330.4 752.7,-323.93 745,-320 717.26,-305.84 626.68,-325.29 606,-302 584.53,-277.83 595.35,-234.98 601.6,-216.23"/>
<polygon fill="#9a32cd" stroke="#9a32cd" points="762.07,-338.63 770.98,-344.35 767.58,-334.32 762.07,-338.63"/>
</a>
</g>
<text text-anchor="middle" x="627" y="-268.5" font-family="Helvetica,sans-Serif" font-size="10.00" fill="grey"> proxyInfo</text>
</g>
<!-- Node10 -->
<g id="Node000010" class="node">
<title>Node10</title>
<g id="a_Node000010"><a xlink:href="../../d4/d04/class_class.html" target="_top" xlink:title="Super root of all classes in Enforce script.">
<polygon fill="white" stroke="#666666" points="945.38,-520 904.62,-520 904.62,-500 945.38,-500 945.38,-520"/>
<text text-anchor="middle" x="925" y="-506.5" font-family="Helvetica,sans-Serif" font-size="10.00">Class</text>
</a>
</g>
</g>
<!-- Node10&#45;&gt;Node6 -->
<g id="edge25_Node000006_Node000010" class="edge">
<title>Node10&#45;&gt;Node6</title>
<g id="a_edge25_Node000006_Node000010"><a xlink:title=" ">
<path fill="none" stroke="#9a32cd" stroke-dasharray="5,2" d="M956.5,-502.68C972.27,-498.51 991.13,-491.94 1006,-482 1072.44,-437.59 1113.86,-394.12 1084,-320 1066.03,-275.39 1049.3,-268.25 1009,-242 991.31,-230.48 969.32,-222.11 950.86,-216.44"/>
<polygon fill="#9a32cd" stroke="#9a32cd" points="956.02,-499.19 947.12,-504.95 957.67,-506 956.02,-499.19"/>
</a>
</g>
<text text-anchor="middle" x="1119.62" y="-352.5" font-family="Helvetica,sans-Serif" font-size="10.00" fill="grey"> m_Instance</text>
</g>
<!-- Node10&#45;&gt;Node9 -->
<g id="edge13_Node000009_Node000010" class="edge">
<title>Node10&#45;&gt;Node9</title>
<g id="a_edge13_Node000009_Node000010"><a xlink:title=" ">
<path fill="none" stroke="#9a32cd" stroke-dasharray="5,2" d="M893.51,-500.87C881.42,-496.65 868.06,-490.55 857.75,-482 852.5,-477.65 801.25,-394.78 783.79,-366.42"/>
<polygon fill="#9a32cd" stroke="#9a32cd" points="892.1,-504.1 902.69,-503.78 894.21,-497.42 892.1,-504.1"/>
</a>
</g>
<text text-anchor="middle" x="883.62" y="-442.5" font-family="Helvetica,sans-Serif" font-size="10.00" fill="grey"> m_Instance</text>
</g>
<!-- Node10&#45;&gt;Node13 -->
<g id="edge21_Node000013_Node000010" class="edge">
<title>Node10&#45;&gt;Node13</title>
<g id="a_edge21_Node000013_Node000010"><a xlink:title=" ">
<path fill="none" stroke="#9a32cd" stroke-dasharray="5,2" d="M925.84,-488.4C925.85,-467.54 923.54,-434.91 911,-410 905.88,-399.82 898.94,-401.57 892.75,-392 874.21,-363.33 884.25,-348.85 866,-320 840.12,-279.1 832.65,-264.89 790,-242 745.65,-218.19 687.71,-210.36 648.58,-207.9"/>
<polygon fill="#9a32cd" stroke="#9a32cd" points="922.34,-488.1 925.63,-498.17 929.34,-488.25 922.34,-488.1"/>
</a>
</g>
<text text-anchor="middle" x="918.62" y="-352.5" font-family="Helvetica,sans-Serif" font-size="10.00" fill="grey"> m_Instance</text>
</g>
<!-- Node11 -->
<g id="Node000011" class="node">
<title>Node11</title>
<g id="a_Node000011"><a xlink:href="../../d5/d02/classstring.html" target="_top" xlink:title=" ">
<polygon fill="white" stroke="#666666" points="1065,-520 1025,-520 1025,-500 1065,-500 1065,-520"/>
<text text-anchor="middle" x="1045" y="-506.5" font-family="Helvetica,sans-Serif" font-size="10.00">string</text>
</a>
</g>
</g>
<!-- Node11&#45;&gt;Node6 -->
<g id="edge26_Node000006_Node000011" class="edge">
<title>Node11&#45;&gt;Node6</title>
<g id="a_edge26_Node000006_Node000011"><a xlink:title=" ">
<path fill="none" stroke="#9a32cd" stroke-dasharray="5,2" d="M1067.26,-492.7C1092.86,-472.43 1133.47,-435.17 1150,-392 1161.44,-362.12 1163.6,-348.96 1150,-320 1115.12,-245.73 1012.12,-220.04 954.04,-211.33"/>
<polygon fill="#9a32cd" stroke="#9a32cd" points="1065.26,-489.82 1059.46,-498.69 1069.53,-495.37 1065.26,-489.82"/>
</a>
</g>
<text text-anchor="middle" x="1176.62" y="-352.5" font-family="Helvetica,sans-Serif" font-size="10.00" fill="grey"> m_Test</text>
</g>
<!-- Node11&#45;&gt;Node9 -->
<g id="edge14_Node000009_Node000011" class="edge">
<title>Node11&#45;&gt;Node9</title>
<g id="a_edge14_Node000009_Node000011"><a xlink:title=" ">
<path fill="none" stroke="#9a32cd" stroke-dasharray="5,2" d="M1015.57,-494.25C1008.88,-490.52 1001.93,-486.34 995.75,-482 956.12,-454.19 955.36,-435.18 914,-410 908.75,-406.8 833.36,-378.02 797.14,-364.26"/>
<polygon fill="#9a32cd" stroke="#9a32cd" points="1013.91,-497.33 1024.37,-498.97 1017.21,-491.16 1013.91,-497.33"/>
</a>
</g>
<text text-anchor="middle" x="1012.62" y="-442.5" font-family="Helvetica,sans-Serif" font-size="10.00" fill="grey"> m_Test</text>
</g>
<!-- Node11&#45;&gt;Node11 -->
<g id="edge15_Node000011_Node000011" class="edge">
<title>Node11&#45;&gt;Node11</title>
<g id="a_edge15_Node000011_Node000011"><a xlink:title=" ">
<path fill="none" stroke="#9a32cd" stroke-dasharray="5,2" d="M1070.77,-521.91C1077.72,-521.28 1083,-517.31 1083,-510 1083,-499.12 1071.3,-495.64 1059.82,-499.55"/>
<polygon fill="#9a32cd" stroke="#9a32cd" points="1071.7,-518.5 1061.32,-520.65 1070.77,-525.44 1071.7,-518.5"/>
</a>
</g>
<text text-anchor="middle" x="1098.75" y="-506.5" font-family="Helvetica,sans-Serif" font-size="10.00" fill="grey"> Empty</text>
</g>
<!-- Node11&#45;&gt;Node13 -->
<g id="edge22_Node000013_Node000011" class="edge">
<title>Node11&#45;&gt;Node13</title>
<g id="a_edge22_Node000013_Node000011"><a xlink:title=" ">
<path fill="none" stroke="#9a32cd" stroke-dasharray="5,2" d="M1043.79,-488.33C1039.35,-434.45 1018.89,-290.5 926,-242 878.79,-217.35 724.84,-210.01 648.59,-207.86"/>
<polygon fill="#9a32cd" stroke="#9a32cd" points="1040.29,-488.48 1044.49,-498.21 1047.28,-487.99 1040.29,-488.48"/>
</a>
</g>
<text text-anchor="middle" x="1043.62" y="-352.5" font-family="Helvetica,sans-Serif" font-size="10.00" fill="grey"> m_Test</text>
</g>
<!-- Node12 -->
<g id="Node000012" class="node">
<title>Node12</title>
<g id="a_Node000012"><a xlink:href="../../dd/d0a/class_widget.html" target="_top" xlink:title=" ">
<polygon fill="white" stroke="#666666" points="687.38,-520 640.62,-520 640.62,-500 687.38,-500 687.38,-520"/>
<text text-anchor="middle" x="664" y="-506.5" font-family="Helvetica,sans-Serif" font-size="10.00">Widget</text>
</a>
</g>
</g>
<!-- Node12&#45;&gt;Node6 -->
<g id="edge27_Node000006_Node000012" class="edge">
<title>Node12&#45;&gt;Node6</title>
<g id="a_edge27_Node000006_Node000012"><a xlink:title=" ">
<path fill="none" stroke="#9a32cd" stroke-dasharray="5,2" d="M666.75,-488.6C673.05,-444.89 689.78,-344.21 713.25,-320 728.46,-304.31 740.44,-313.54 759,-302 792.66,-281.07 791.37,-263 825,-242 842.57,-231.03 864.16,-222.38 881.56,-216.42"/>
<polygon fill="#9a32cd" stroke="#9a32cd" points="663.29,-488.08 665.38,-498.47 670.23,-489.05 663.29,-488.08"/>
</a>
</g>
<text text-anchor="middle" x="731.38" y="-352.5" font-family="Helvetica,sans-Serif" font-size="10.00" fill="grey"> m_Root</text>
</g>
<!-- Node12&#45;&gt;Node9 -->
<g id="edge16_Node000009_Node000012" class="edge">
<title>Node12&#45;&gt;Node9</title>
<g id="a_edge16_Node000009_Node000012"><a xlink:title=" ">
<path fill="none" stroke="#9a32cd" stroke-dasharray="5,2" d="M677.46,-491.06C701.87,-458.51 752.64,-390.81 771.1,-366.2"/>
<polygon fill="#9a32cd" stroke="#9a32cd" points="674.9,-488.64 671.7,-498.74 680.5,-492.84 674.9,-488.64"/>
</a>
</g>
<text text-anchor="middle" x="755.38" y="-442.5" font-family="Helvetica,sans-Serif" font-size="10.00" fill="grey"> m_Root</text>
</g>
<!-- Node12&#45;&gt;Node13 -->
<g id="edge23_Node000013_Node000012" class="edge">
<title>Node12&#45;&gt;Node13</title>
<g id="a_edge23_Node000013_Node000012"><a xlink:title=" ">
<path fill="none" stroke="#9a32cd" stroke-dasharray="5,2" d="M655.82,-489.03C654.86,-486.66 653.91,-484.28 653,-482 640.3,-450.1 652.42,-430.67 625,-410 590.3,-383.83 459.53,-424.12 430.25,-392 408.69,-368.35 414.95,-348.11 430.25,-320 460.9,-263.67 533.06,-231.13 574.43,-216.47"/>
<polygon fill="#9a32cd" stroke="#9a32cd" points="652.51,-490.18 659.52,-498.12 658.99,-487.54 652.51,-490.18"/>
</a>
</g>
<text text-anchor="middle" x="448.38" y="-352.5" font-family="Helvetica,sans-Serif" font-size="10.00" fill="grey"> m_Root</text>
</g>
<!-- Node13&#45;&gt;Node9 -->
<g id="edge17_Node000009_Node000013" class="edge">
<title>Node13&#45;&gt;Node9</title>
<g id="a_edge17_Node000009_Node000013"><a xlink:title=" ">
<path fill="none" stroke="#9a32cd" stroke-dasharray="5,2" d="M626.84,-223.16C655.04,-244.35 705.23,-283.17 745,-320 753.95,-328.28 763.42,-338.5 769.91,-345.76"/>
<polygon fill="#9a32cd" stroke="#9a32cd" points="629.15,-220.52 619.05,-217.34 624.96,-226.12 629.15,-220.52"/>
</a>
</g>
<text text-anchor="middle" x="754.5" y="-268.5" font-family="Helvetica,sans-Serif" font-size="10.00" fill="grey"> m_Subgroups</text>
</g>
<!-- Node13&#45;&gt;Node13 -->
<g id="edge24_Node000013_Node000013" class="edge">
<title>Node13&#45;&gt;Node13</title>
<g id="a_edge24_Node000013_Node000013"><a xlink:title=" ">
<path fill="none" stroke="#9a32cd" stroke-dasharray="5,2" d="M638.63,-218.2C653.47,-219.3 666.25,-215.23 666.25,-206 666.25,-194.53 646.51,-191.03 627.62,-195.51"/>
<polygon fill="#9a32cd" stroke="#9a32cd" points="639.53,-214.8 629.11,-216.72 638.45,-221.71 639.53,-214.8"/>
</a>
</g>
<text text-anchor="middle" x="697.75" y="-202.5" font-family="Helvetica,sans-Serif" font-size="10.00" fill="grey"> m_Subgroups</text>
</g>
</g>
</svg>
