<?xml version="1.0" encoding="UTF-8" standalone="no"?>
<!DOCTYPE svg PUBLIC "-//W3C//DTD SVG 1.1//EN"
 "http://www.w3.org/Graphics/SVG/1.1/DTD/svg11.dtd">
<!-- Generated by graphviz version 11.0.0 (20240428.1522)
 -->
<!-- Title: AreaDamageBase Pages: 1 -->
<svg width="1415pt" height="398pt"
 viewBox="0.00 0.00 1414.88 397.91" xmlns="http://www.w3.org/2000/svg" xmlns:xlink="http://www.w3.org/1999/xlink">
<g id="graph0" class="graph" transform="scale(1 1) rotate(0) translate(4 393.91)">
<title>AreaDamageBase</title>
<!-- Node1 -->
<g id="Node000001" class="node">
<title>Node1</title>
<g id="a_Node000001"><a xlink:title=" ">
<polygon fill="#999999" stroke="#666666" points="488.25,-20 393.5,-20 393.5,0 488.25,0 488.25,-20"/>
<text text-anchor="middle" x="440.88" y="-6.5" font-family="Helvetica,sans-Serif" font-size="10.00">AreaDamageBase</text>
</a>
</g>
</g>
<!-- Node1&#45;&gt;Node1 -->
<g id="edge2_Node000001_Node000001" class="edge">
<title>Node1&#45;&gt;Node1</title>
<g id="a_edge2_Node000001_Node000001"><a xlink:title=" ">
<path fill="none" stroke="#9a32cd" stroke-dasharray="5,2" d="M499.65,-17.1C503.75,-15.48 506.25,-13.11 506.25,-10 506.25,-4.62 498.78,-1.46 488.47,-0.54"/>
<polygon fill="#9a32cd" stroke="#9a32cd" points="499.02,-13.66 489.96,-19.15 500.46,-20.51 499.02,-13.66"/>
</a>
</g>
<text text-anchor="middle" x="542.62" y="-6.5" font-family="Helvetica,sans-Serif" font-size="10.00" fill="grey"> m_AreaDamage</text>
</g>
<!-- Node2 -->
<g id="Node000002" class="node">
<title>Node2</title>
<g id="a_Node000002"><a xlink:title=" ">
<polygon fill="white" stroke="#666666" points="109.75,-132 0,-132 0,-112 109.75,-112 109.75,-132"/>
<text text-anchor="middle" x="54.88" y="-118.5" font-family="Helvetica,sans-Serif" font-size="10.00">AreaDamageManager</text>
</a>
</g>
</g>
<!-- Node2&#45;&gt;Node1 -->
<g id="edge1_Node000001_Node000002" class="edge">
<title>Node2&#45;&gt;Node1</title>
<g id="a_edge1_Node000001_Node000002"><a xlink:title=" ">
<path fill="none" stroke="#8b1a1a" d="M67.28,-102.46C81.67,-82.67 107.37,-52.25 137.88,-38 181.95,-17.4 319.54,-12.47 393.2,-11.32"/>
<polygon fill="#8b1a1a" stroke="#8b1a1a" points="64.55,-100.26 61.69,-110.46 70.29,-104.27 64.55,-100.26"/>
</a>
</g>
</g>
<!-- Node3 -->
<g id="Node000003" class="node">
<title>Node3</title>
<g id="a_Node000003"><a xlink:href="../../d4/d03/classfloat.html" target="_top" xlink:title=" ">
<polygon fill="white" stroke="#666666" points="161.88,-132 127.88,-132 127.88,-112 161.88,-112 161.88,-132"/>
<text text-anchor="middle" x="144.88" y="-118.5" font-family="Helvetica,sans-Serif" font-size="10.00">float</text>
</a>
</g>
</g>
<!-- Node3&#45;&gt;Node1 -->
<g id="edge3_Node000001_Node000003" class="edge">
<title>Node3&#45;&gt;Node1</title>
<g id="a_edge3_Node000001_Node000003"><a xlink:title=" ">
<path fill="none" stroke="#9a32cd" stroke-dasharray="5,2" d="M142.07,-100.28C140.76,-81.21 142.33,-53.59 159.12,-38 175.9,-22.43 317.4,-15.23 393.26,-12.45"/>
<polygon fill="#9a32cd" stroke="#9a32cd" points="138.57,-100.52 143.09,-110.11 145.53,-99.8 138.57,-100.52"/>
</a>
</g>
<text text-anchor="middle" x="199.25" y="-76.5" font-family="Helvetica,sans-Serif" font-size="10.00" fill="grey"> m_DeferDuration</text>
<text text-anchor="middle" x="199.25" y="-64.5" font-family="Helvetica,sans-Serif" font-size="10.00" fill="grey">m_LoopInterval</text>
<text text-anchor="middle" x="199.25" y="-52.5" font-family="Helvetica,sans-Serif" font-size="10.00" fill="grey">m_OthersDamage</text>
<text text-anchor="middle" x="199.25" y="-40.5" font-family="Helvetica,sans-Serif" font-size="10.00" fill="grey">m_PlayerDamage</text>
</g>
<!-- Node3&#45;&gt;Node3 -->
<g id="edge4_Node000003_Node000003" class="edge">
<title>Node3&#45;&gt;Node3</title>
<g id="a_edge4_Node000003_Node000003"><a xlink:title=" ">
<path fill="none" stroke="#9a32cd" stroke-dasharray="5,2" d="M173.55,-128.95C177.35,-127.77 179.88,-125.45 179.88,-122 179.88,-115.68 171.43,-113.17 162.16,-114.45"/>
<polygon fill="#9a32cd" stroke="#9a32cd" points="173.48,-125.45 163.67,-129.47 173.84,-132.44 173.48,-125.45"/>
</a>
</g>
<text text-anchor="middle" x="202" y="-130.5" font-family="Helvetica,sans-Serif" font-size="10.00" fill="grey"> LOWEST</text>
<text text-anchor="middle" x="202" y="-118.5" font-family="Helvetica,sans-Serif" font-size="10.00" fill="grey">MAX</text>
<text text-anchor="middle" x="202" y="-106.5" font-family="Helvetica,sans-Serif" font-size="10.00" fill="grey">MIN</text>
</g>
<!-- Node4 -->
<g id="Node000004" class="node">
<title>Node4</title>
<g id="a_Node000004"><a xlink:href="../../d5/d02/classstring.html" target="_top" xlink:title=" ">
<polygon fill="white" stroke="#666666" points="1222.88,-388 1182.88,-388 1182.88,-368 1222.88,-368 1222.88,-388"/>
<text text-anchor="middle" x="1202.88" y="-374.5" font-family="Helvetica,sans-Serif" font-size="10.00">string</text>
</a>
</g>
</g>
<!-- Node4&#45;&gt;Node1 -->
<g id="edge5_Node000001_Node000004" class="edge">
<title>Node4&#45;&gt;Node1</title>
<g id="a_edge5_Node000001_Node000004"><a xlink:title=" ">
<path fill="none" stroke="#9a32cd" stroke-dasharray="5,2" d="M1225.04,-360.21C1228.29,-357.07 1231.38,-353.62 1233.88,-350 1275.54,-289.47 1308.07,-248.85 1266.88,-188 1166.24,-39.36 1067.05,-77.2 891.88,-38 816.19,-21.06 588.32,-14.18 488.54,-11.93"/>
<polygon fill="#9a32cd" stroke="#9a32cd" points="1222.76,-357.55 1217.48,-366.74 1227.34,-362.85 1222.76,-357.55"/>
</a>
</g>
<text text-anchor="middle" x="1288.12" y="-160.5" font-family="Helvetica,sans-Serif" font-size="10.00" fill="grey"> m_AmmoName</text>
</g>
<!-- Node4&#45;&gt;Node4 -->
<g id="edge6_Node000004_Node000004" class="edge">
<title>Node4&#45;&gt;Node4</title>
<g id="a_edge6_Node000004_Node000004"><a xlink:title=" ">
<path fill="none" stroke="#9a32cd" stroke-dasharray="5,2" d="M1228.64,-389.91C1235.59,-389.28 1240.88,-385.31 1240.88,-378 1240.88,-367.12 1229.17,-363.64 1217.7,-367.55"/>
<polygon fill="#9a32cd" stroke="#9a32cd" points="1229.57,-386.5 1219.2,-388.65 1228.65,-393.44 1229.57,-386.5"/>
</a>
</g>
<text text-anchor="middle" x="1256.62" y="-374.5" font-family="Helvetica,sans-Serif" font-size="10.00" fill="grey"> Empty</text>
</g>
<!-- Node6 -->
<g id="Node000006" class="node">
<title>Node6</title>
<g id="a_Node000006"><a xlink:href="../../d2/d01/classarray.html" target="_top" xlink:title=" ">
<polygon fill="white" stroke="#666666" points="1014.75,-132 935,-132 935,-112 1014.75,-112 1014.75,-132"/>
<text text-anchor="middle" x="974.88" y="-118.5" font-family="Helvetica,sans-Serif" font-size="10.00">array&lt; string &gt;</text>
</a>
</g>
</g>
<!-- Node4&#45;&gt;Node6 -->
<g id="edge27_Node000006_Node000004" class="edge">
<title>Node4&#45;&gt;Node6</title>
<g id="a_edge27_Node000006_Node000004"><a xlink:title=" ">
<path fill="none" stroke="#9a32cd" stroke-dasharray="5,2" d="M1210.6,-357C1223.62,-319.59 1244.99,-238.26 1206.88,-188 1183.75,-157.5 1075.13,-137.39 1015.07,-128.4"/>
<polygon fill="#9a32cd" stroke="#9a32cd" points="1207.42,-355.49 1207.27,-366.09 1214,-357.9 1207.42,-355.49"/>
</a>
</g>
<text text-anchor="middle" x="1245.5" y="-220.5" font-family="Helvetica,sans-Serif" font-size="10.00" fill="grey"> m_Test</text>
</g>
<!-- Node8 -->
<g id="Node000008" class="node">
<title>Node8</title>
<g id="a_Node000008"><a xlink:href="../../d2/d01/classarray.html" target="_top" xlink:title="Result for an object found in CGame.IsBoxCollidingGeometryProxy.">
<polygon fill="white" stroke="#666666" points="862.75,-234 825,-234 825,-214 862.75,-214 862.75,-234"/>
<text text-anchor="middle" x="843.88" y="-220.5" font-family="Helvetica,sans-Serif" font-size="10.00">array</text>
</a>
</g>
</g>
<!-- Node4&#45;&gt;Node8 -->
<g id="edge16_Node000008_Node000004" class="edge">
<title>Node4&#45;&gt;Node8</title>
<g id="a_edge16_Node000008_Node000004"><a xlink:title=" ">
<path fill="none" stroke="#9a32cd" stroke-dasharray="5,2" d="M1171.63,-367.97C1155.62,-363.1 1135.91,-356.71 1118.62,-350 1047.16,-322.25 1031.68,-309.71 961.88,-278 927.11,-262.21 886.49,-244.02 863.11,-233.58"/>
<polygon fill="#9a32cd" stroke="#9a32cd" points="1170.52,-371.29 1181.1,-370.8 1172.52,-364.58 1170.52,-371.29"/>
</a>
</g>
<text text-anchor="middle" x="1135.5" y="-310.5" font-family="Helvetica,sans-Serif" font-size="10.00" fill="grey"> m_Test</text>
</g>
<!-- Node11 -->
<g id="Node000011" class="node">
<title>Node11</title>
<g id="a_Node000011"><a xlink:href="../../d2/d01/classarray.html" target="_top" xlink:title=" ">
<polygon fill="white" stroke="#666666" points="698.12,-132 611.62,-132 611.62,-112 698.12,-112 698.12,-132"/>
<text text-anchor="middle" x="654.88" y="-118.5" font-family="Helvetica,sans-Serif" font-size="10.00">array&lt; Widget &gt;</text>
</a>
</g>
</g>
<!-- Node4&#45;&gt;Node11 -->
<g id="edge23_Node000011_Node000004" class="edge">
<title>Node4&#45;&gt;Node11</title>
<g id="a_edge23_Node000011_Node000004"><a xlink:title=" ">
<path fill="none" stroke="#9a32cd" stroke-dasharray="5,2" d="M1196.74,-356.61C1182.03,-307.77 1145.98,-188.09 1145.88,-188 1112.59,-158.47 812.11,-134.2 698.3,-125.99"/>
<polygon fill="#9a32cd" stroke="#9a32cd" points="1193.38,-357.62 1199.62,-366.18 1200.09,-355.6 1193.38,-357.62"/>
</a>
</g>
<text text-anchor="middle" x="1184.5" y="-220.5" font-family="Helvetica,sans-Serif" font-size="10.00" fill="grey"> m_Test</text>
</g>
<!-- Node5 -->
<g id="Node000005" class="node">
<title>Node5</title>
<g id="a_Node000005"><a xlink:href="../../db/d06/class_param3.html" target="_top" xlink:title=" ">
<polygon fill="white" stroke="#666666" points="378.75,-388 329,-388 329,-368 378.75,-368 378.75,-388"/>
<text text-anchor="middle" x="353.88" y="-374.5" font-family="Helvetica,sans-Serif" font-size="10.00">Param3</text>
</a>
</g>
</g>
<!-- Node5&#45;&gt;Node1 -->
<g id="edge7_Node000001_Node000005" class="edge">
<title>Node5&#45;&gt;Node1</title>
<g id="a_edge7_Node000001_Node000005"><a xlink:title=" ">
<path fill="none" stroke="#9a32cd" stroke-dasharray="5,2" d="M321.43,-361.67C317,-358.37 312.93,-354.49 309.88,-350 261.27,-278.48 243.29,-237.04 278.38,-158 308.55,-90.02 387.4,-40.14 422.99,-20.36"/>
<polygon fill="#9a32cd" stroke="#9a32cd" points="319.25,-364.43 329.56,-366.84 323,-358.52 319.25,-364.43"/>
</a>
</g>
<text text-anchor="middle" x="315.62" y="-160.5" font-family="Helvetica,sans-Serif" font-size="10.00" fill="grey"> m_DamageType</text>
</g>
<!-- Node5&#45;&gt;Node6 -->
<g id="edge10_Node000006_Node000005" class="edge">
<title>Node5&#45;&gt;Node6</title>
<g id="a_edge10_Node000006_Node000005"><a xlink:title=" ">
<path fill="none" stroke="#9a32cd" stroke-dasharray="5,2" d="M372.29,-360.19C395.84,-339.25 438.4,-303.16 478.88,-278 494.75,-268.13 504.16,-273.7 516.88,-260 540.2,-234.86 517.1,-208.45 544.62,-188 587.42,-156.2 732.09,-182.67 783.88,-170 797.03,-166.78 798.97,-162.11 811.88,-158 852.97,-144.92 901.44,-135.21 934.79,-129.38"/>
<polygon fill="#9a32cd" stroke="#9a32cd" points="370.2,-357.37 365.1,-366.66 374.88,-362.58 370.2,-357.37"/>
</a>
</g>
<text text-anchor="middle" x="603" y="-250.5" font-family="Helvetica,sans-Serif" font-size="10.00" fill="grey"> NO_SORTING</text>
<text text-anchor="middle" x="603" y="-238.5" font-family="Helvetica,sans-Serif" font-size="10.00" fill="grey">geomLevel</text>
<text text-anchor="middle" x="603" y="-226.5" font-family="Helvetica,sans-Serif" font-size="10.00" fill="grey">hierLevel</text>
<text text-anchor="start" x="544.88" y="-214.5" font-family="Helvetica,sans-Serif" font-size="10.00" fill="grey">m_CurrentSettingAlternate</text>
<text text-anchor="middle" x="603" y="-202.5" font-family="Helvetica,sans-Serif" font-size="10.00" fill="grey">KeyIndex</text>
<text text-anchor="middle" x="603" y="-190.5" font-family="Helvetica,sans-Serif" font-size="10.00" fill="grey">m_CurrentSettingKeyIndex</text>
</g>
<!-- Node5&#45;&gt;Node8 -->
<g id="edge13_Node000008_Node000005" class="edge">
<title>Node5&#45;&gt;Node8</title>
<g id="a_edge13_Node000008_Node000005"><a xlink:title=" ">
<path fill="none" stroke="#9a32cd" stroke-dasharray="5,2" d="M390.26,-371.69C414.93,-367.42 447.98,-360.42 475.88,-350 538.75,-326.52 544.36,-297.38 608.62,-278 695.03,-251.95 729.69,-299.4 810.88,-260 822.6,-254.31 832.29,-242.56 838.07,-234.25"/>
<polygon fill="#9a32cd" stroke="#9a32cd" points="390.02,-368.18 380.72,-373.26 391.16,-375.08 390.02,-368.18"/>
</a>
</g>
<text text-anchor="middle" x="667" y="-340.5" font-family="Helvetica,sans-Serif" font-size="10.00" fill="grey"> NO_SORTING</text>
<text text-anchor="middle" x="667" y="-328.5" font-family="Helvetica,sans-Serif" font-size="10.00" fill="grey">geomLevel</text>
<text text-anchor="middle" x="667" y="-316.5" font-family="Helvetica,sans-Serif" font-size="10.00" fill="grey">hierLevel</text>
<text text-anchor="start" x="608.88" y="-304.5" font-family="Helvetica,sans-Serif" font-size="10.00" fill="grey">m_CurrentSettingAlternate</text>
<text text-anchor="middle" x="667" y="-292.5" font-family="Helvetica,sans-Serif" font-size="10.00" fill="grey">KeyIndex</text>
<text text-anchor="middle" x="667" y="-280.5" font-family="Helvetica,sans-Serif" font-size="10.00" fill="grey">m_CurrentSettingKeyIndex</text>
</g>
<!-- Node5&#45;&gt;Node11 -->
<g id="edge20_Node000011_Node000005" class="edge">
<title>Node5&#45;&gt;Node11</title>
<g id="a_edge20_Node000011_Node000005"><a xlink:title=" ">
<path fill="none" stroke="#9a32cd" stroke-dasharray="5,2" d="M342.97,-357.82C323.39,-320.55 287.95,-237.67 328.62,-188 363.89,-144.94 531,-129.87 611.43,-125.06"/>
<polygon fill="#9a32cd" stroke="#9a32cd" points="339.85,-359.4 347.71,-366.5 345.99,-356.05 339.85,-359.4"/>
</a>
</g>
<text text-anchor="middle" x="387" y="-250.5" font-family="Helvetica,sans-Serif" font-size="10.00" fill="grey"> NO_SORTING</text>
<text text-anchor="middle" x="387" y="-238.5" font-family="Helvetica,sans-Serif" font-size="10.00" fill="grey">geomLevel</text>
<text text-anchor="middle" x="387" y="-226.5" font-family="Helvetica,sans-Serif" font-size="10.00" fill="grey">hierLevel</text>
<text text-anchor="start" x="328.88" y="-214.5" font-family="Helvetica,sans-Serif" font-size="10.00" fill="grey">m_CurrentSettingAlternate</text>
<text text-anchor="middle" x="387" y="-202.5" font-family="Helvetica,sans-Serif" font-size="10.00" fill="grey">KeyIndex</text>
<text text-anchor="middle" x="387" y="-190.5" font-family="Helvetica,sans-Serif" font-size="10.00" fill="grey">m_CurrentSettingKeyIndex</text>
</g>
<!-- Node6&#45;&gt;Node1 -->
<g id="edge8_Node000001_Node000006" class="edge">
<title>Node6&#45;&gt;Node1</title>
<g id="a_edge8_Node000001_Node000006"><a xlink:title=" ">
<path fill="none" stroke="#9a32cd" stroke-dasharray="5,2" d="M923.62,-110.44C819.75,-89.05 585.91,-40.88 486.73,-20.45"/>
<polygon fill="#9a32cd" stroke="#9a32cd" points="922.76,-113.84 933.26,-112.43 924.17,-106.98 922.76,-113.84"/>
</a>
</g>
<text text-anchor="middle" x="845.62" y="-64.5" font-family="Helvetica,sans-Serif" font-size="10.00" fill="grey"> m_HitZones</text>
<text text-anchor="middle" x="845.62" y="-52.5" font-family="Helvetica,sans-Serif" font-size="10.00" fill="grey">m_RaycastSources</text>
</g>
<!-- Node7 -->
<g id="Node000007" class="node">
<title>Node7</title>
<g id="a_Node000007"><a xlink:href="../../d8/d03/class_object.html" target="_top" xlink:title=" ">
<polygon fill="white" stroke="#666666" points="866.12,-388 821.62,-388 821.62,-368 866.12,-368 866.12,-388"/>
<text text-anchor="middle" x="843.88" y="-374.5" font-family="Helvetica,sans-Serif" font-size="10.00">Object</text>
</a>
</g>
</g>
<!-- Node7&#45;&gt;Node6 -->
<g id="edge9_Node000006_Node000007" class="edge">
<title>Node7&#45;&gt;Node6</title>
<g id="a_edge9_Node000006_Node000007"><a xlink:title=" ">
<path fill="none" stroke="#9a32cd" stroke-dasharray="5,2" d="M877.71,-373.75C895.75,-370.41 917.18,-363.65 931.88,-350 957.03,-326.63 936.24,-302.9 959.88,-278 973.3,-263.86 989.29,-276.37 999.88,-260 1026.79,-218.38 994.57,-155.57 980.66,-132.19"/>
<polygon fill="#9a32cd" stroke="#9a32cd" points="877.29,-370.27 867.95,-375.26 878.36,-377.19 877.29,-370.27"/>
</a>
</g>
<text text-anchor="middle" x="1024.38" y="-226.5" font-family="Helvetica,sans-Serif" font-size="10.00" fill="grey"> obj</text>
<text text-anchor="middle" x="1024.38" y="-214.5" font-family="Helvetica,sans-Serif" font-size="10.00" fill="grey">parent</text>
</g>
<!-- Node7&#45;&gt;Node8 -->
<g id="edge12_Node000008_Node000007" class="edge">
<title>Node7&#45;&gt;Node8</title>
<g id="a_edge12_Node000008_Node000007"><a xlink:title=" ">
<path fill="none" stroke="#9a32cd" stroke-dasharray="5,2" d="M843.88,-356.47C843.88,-323.04 843.88,-258.17 843.88,-234.2"/>
<polygon fill="#9a32cd" stroke="#9a32cd" points="840.38,-356.43 843.88,-366.43 847.38,-356.43 840.38,-356.43"/>
</a>
</g>
<text text-anchor="middle" x="857.38" y="-316.5" font-family="Helvetica,sans-Serif" font-size="10.00" fill="grey"> obj</text>
<text text-anchor="middle" x="857.38" y="-304.5" font-family="Helvetica,sans-Serif" font-size="10.00" fill="grey">parent</text>
</g>
<!-- Node7&#45;&gt;Node11 -->
<g id="edge19_Node000011_Node000007" class="edge">
<title>Node7&#45;&gt;Node11</title>
<g id="a_edge19_Node000011_Node000007"><a xlink:title=" ">
<path fill="none" stroke="#9a32cd" stroke-dasharray="5,2" d="M839.89,-356.52C834.33,-333.71 821.98,-297.5 796.88,-278 763.97,-252.44 736.55,-287.06 704.88,-260 665.03,-225.95 656.93,-157.39 655.29,-132.39"/>
<polygon fill="#9a32cd" stroke="#9a32cd" points="836.44,-357.11 841.99,-366.14 843.27,-355.62 836.44,-357.11"/>
</a>
</g>
<text text-anchor="middle" x="718.38" y="-226.5" font-family="Helvetica,sans-Serif" font-size="10.00" fill="grey"> obj</text>
<text text-anchor="middle" x="718.38" y="-214.5" font-family="Helvetica,sans-Serif" font-size="10.00" fill="grey">parent</text>
</g>
<!-- Node8&#45;&gt;Node6 -->
<g id="edge11_Node000006_Node000008" class="edge">
<title>Node8&#45;&gt;Node6</title>
<g id="a_edge11_Node000006_Node000008"><a xlink:title=" ">
<path fill="none" stroke="#9a32cd" stroke-dasharray="5,2" d="M864.8,-207.02C892.37,-185.98 939.96,-149.66 962.43,-132.5"/>
<polygon fill="#9a32cd" stroke="#9a32cd" points="862.99,-204 857.17,-212.85 867.24,-209.57 862.99,-204"/>
</a>
</g>
<text text-anchor="middle" x="949.88" y="-160.5" font-family="Helvetica,sans-Serif" font-size="10.00" fill="grey"> proxyInfo</text>
</g>
<!-- Node8&#45;&gt;Node8 -->
<g id="edge14_Node000008_Node000008" class="edge">
<title>Node8&#45;&gt;Node8</title>
<g id="a_edge14_Node000008_Node000008"><a xlink:title=" ">
<path fill="none" stroke="#9a32cd" stroke-dasharray="5,2" d="M871.9,-234.66C877.09,-233.34 880.75,-229.78 880.75,-224 880.75,-214.51 870.91,-211.02 860.56,-213.54"/>
<polygon fill="#9a32cd" stroke="#9a32cd" points="872.14,-231.17 862.07,-234.48 872.01,-238.16 872.14,-231.17"/>
</a>
</g>
<text text-anchor="middle" x="901.75" y="-220.5" font-family="Helvetica,sans-Serif" font-size="10.00" fill="grey"> proxyInfo</text>
</g>
<!-- Node8&#45;&gt;Node11 -->
<g id="edge21_Node000011_Node000008" class="edge">
<title>Node8&#45;&gt;Node11</title>
<g id="a_edge21_Node000011_Node000008"><a xlink:title=" ">
<path fill="none" stroke="#9a32cd" stroke-dasharray="5,2" d="M830.77,-204.93C825.31,-198.64 818.47,-192.13 810.88,-188 771.97,-166.84 753.1,-188.51 712.88,-170 692.86,-160.79 673.85,-143.08 663.34,-132.23"/>
<polygon fill="#9a32cd" stroke="#9a32cd" points="827.82,-206.84 836.77,-212.5 833.31,-202.49 827.82,-206.84"/>
</a>
</g>
<text text-anchor="middle" x="733.88" y="-160.5" font-family="Helvetica,sans-Serif" font-size="10.00" fill="grey"> proxyInfo</text>
</g>
<!-- Node9 -->
<g id="Node000009" class="node">
<title>Node9</title>
<g id="a_Node000009"><a xlink:href="../../d4/d04/class_class.html" target="_top" xlink:title="Super root of all classes in Enforce script.">
<polygon fill="white" stroke="#666666" points="730.25,-388 689.5,-388 689.5,-368 730.25,-368 730.25,-388"/>
<text text-anchor="middle" x="709.88" y="-374.5" font-family="Helvetica,sans-Serif" font-size="10.00">Class</text>
</a>
</g>
</g>
<!-- Node9&#45;&gt;Node6 -->
<g id="edge26_Node000006_Node000009" class="edge">
<title>Node9&#45;&gt;Node6</title>
<g id="a_edge26_Node000006_Node000009"><a xlink:title=" ">
<path fill="none" stroke="#9a32cd" stroke-dasharray="5,2" d="M711.51,-356.31C713.46,-336.06 717.44,-304.49 724.88,-278 725.61,-275.39 760.61,-189.82 762.62,-188 769.43,-181.84 883.64,-148.86 941.64,-132.38"/>
<polygon fill="#9a32cd" stroke="#9a32cd" points="708.05,-355.78 710.66,-366.05 715.02,-356.39 708.05,-355.78"/>
</a>
</g>
<text text-anchor="middle" x="789.5" y="-220.5" font-family="Helvetica,sans-Serif" font-size="10.00" fill="grey"> m_Instance</text>
</g>
<!-- Node9&#45;&gt;Node8 -->
<g id="edge15_Node000008_Node000009" class="edge">
<title>Node9&#45;&gt;Node8</title>
<g id="a_edge15_Node000008_Node000009"><a xlink:title=" ">
<path fill="none" stroke="#9a32cd" stroke-dasharray="5,2" d="M722.11,-358.25C736.23,-337.37 760.84,-303.25 786.62,-278 796.21,-268.61 800.84,-268.92 810.88,-260 819.99,-251.9 829.44,-241.65 835.88,-234.35"/>
<polygon fill="#9a32cd" stroke="#9a32cd" points="719.36,-356.06 716.73,-366.33 725.19,-359.94 719.36,-356.06"/>
</a>
</g>
<text text-anchor="middle" x="813.5" y="-310.5" font-family="Helvetica,sans-Serif" font-size="10.00" fill="grey"> m_Instance</text>
</g>
<!-- Node9&#45;&gt;Node11 -->
<g id="edge22_Node000011_Node000009" class="edge">
<title>Node9&#45;&gt;Node11</title>
<g id="a_edge22_Node000011_Node000009"><a xlink:title=" ">
<path fill="none" stroke="#9a32cd" stroke-dasharray="5,2" d="M697.91,-358.15C682.03,-334.94 651.67,-296.33 614.88,-278 584.58,-262.91 486.1,-285.31 463.62,-260 442.38,-236.07 444.99,-214.01 463.62,-188 497.12,-141.25 566.19,-127.72 611.5,-124.04"/>
<polygon fill="#9a32cd" stroke="#9a32cd" points="694.89,-359.93 703.32,-366.34 700.73,-356.07 694.89,-359.93"/>
</a>
</g>
<text text-anchor="middle" x="490.5" y="-220.5" font-family="Helvetica,sans-Serif" font-size="10.00" fill="grey"> m_Instance</text>
</g>
<!-- Node10 -->
<g id="Node000010" class="node">
<title>Node10</title>
<g id="a_Node000010"><a xlink:href="../../dd/d0a/class_widget.html" target="_top" xlink:title=" ">
<polygon fill="white" stroke="#666666" points="994.25,-388 947.5,-388 947.5,-368 994.25,-368 994.25,-388"/>
<text text-anchor="middle" x="970.88" y="-374.5" font-family="Helvetica,sans-Serif" font-size="10.00">Widget</text>
</a>
</g>
</g>
<!-- Node10&#45;&gt;Node6 -->
<g id="edge28_Node000006_Node000010" class="edge">
<title>Node10&#45;&gt;Node6</title>
<g id="a_edge28_Node000006_Node000010"><a xlink:title=" ">
<path fill="none" stroke="#9a32cd" stroke-dasharray="5,2" d="M1005.75,-373.11C1034.36,-369.12 1071.62,-361.8 1080.88,-350 1134.4,-281.75 1108.95,-217.54 1045.88,-158 1033.78,-146.58 1017.26,-138.14 1003.2,-132.41"/>
<polygon fill="#9a32cd" stroke="#9a32cd" points="1005.47,-369.62 996.01,-374.38 1006.37,-376.56 1005.47,-369.62"/>
</a>
</g>
<text text-anchor="middle" x="1126.25" y="-220.5" font-family="Helvetica,sans-Serif" font-size="10.00" fill="grey"> m_Root</text>
</g>
<!-- Node10&#45;&gt;Node8 -->
<g id="edge17_Node000008_Node000010" class="edge">
<title>Node10&#45;&gt;Node8</title>
<g id="a_edge17_Node000008_Node000010"><a xlink:title=" ">
<path fill="none" stroke="#9a32cd" stroke-dasharray="5,2" d="M937.1,-362.32C931.05,-358.81 925.1,-354.69 920.12,-350 900.8,-331.78 862.21,-259.99 848.69,-234.25"/>
<polygon fill="#9a32cd" stroke="#9a32cd" points="935.39,-365.38 945.87,-366.95 938.66,-359.18 935.39,-365.38"/>
</a>
</g>
<text text-anchor="middle" x="939.25" y="-310.5" font-family="Helvetica,sans-Serif" font-size="10.00" fill="grey"> m_Root</text>
</g>
<!-- Node10&#45;&gt;Node11 -->
<g id="edge24_Node000011_Node000010" class="edge">
<title>Node10&#45;&gt;Node11</title>
<g id="a_edge24_Node000011_Node000010"><a xlink:title=" ">
<path fill="none" stroke="#9a32cd" stroke-dasharray="5,2" d="M969.29,-356.3C965.51,-312.46 954.56,-212.29 931.88,-188 900.48,-154.38 768.15,-135.27 698.37,-127.36"/>
<polygon fill="#9a32cd" stroke="#9a32cd" points="965.78,-356.32 970.08,-366 972.75,-355.75 965.78,-356.32"/>
</a>
</g>
<text text-anchor="middle" x="975.25" y="-220.5" font-family="Helvetica,sans-Serif" font-size="10.00" fill="grey"> m_Root</text>
</g>
<!-- Node11&#45;&gt;Node8 -->
<g id="edge18_Node000008_Node000011" class="edge">
<title>Node11&#45;&gt;Node8</title>
<g id="a_edge18_Node000008_Node000011"><a xlink:title=" ">
<path fill="none" stroke="#9a32cd" stroke-dasharray="5,2" d="M699.15,-135.9C731.82,-146.69 776.4,-164.17 810.88,-188 821.18,-195.12 830.74,-205.91 836.89,-213.63"/>
<polygon fill="#9a32cd" stroke="#9a32cd" points="700.6,-132.69 690.01,-132.96 698.45,-139.35 700.6,-132.69"/>
</a>
</g>
<text text-anchor="middle" x="811.38" y="-160.5" font-family="Helvetica,sans-Serif" font-size="10.00" fill="grey"> m_Subgroups</text>
</g>
<!-- Node11&#45;&gt;Node11 -->
<g id="edge25_Node000011_Node000011" class="edge">
<title>Node11&#45;&gt;Node11</title>
<g id="a_edge25_Node000011_Node000011"><a xlink:title=" ">
<path fill="none" stroke="#9a32cd" stroke-dasharray="5,2" d="M709.5,-127.88C713.61,-126.57 716.12,-124.61 716.12,-122 716.12,-117.49 708.59,-114.92 698.37,-114.28"/>
<polygon fill="#9a32cd" stroke="#9a32cd" points="709.16,-124.39 699.86,-129.47 710.3,-131.3 709.16,-124.39"/>
</a>
</g>
<text text-anchor="middle" x="747.62" y="-118.5" font-family="Helvetica,sans-Serif" font-size="10.00" fill="grey"> m_Subgroups</text>
</g>
<!-- Node12 -->
<g id="Node000012" class="node">
<title>Node12</title>
<g id="a_Node000012"><a xlink:href="../../d8/d08/class_timer.html" target="_top" xlink:title=" ">
<polygon fill="white" stroke="#666666" points="1369.88,-132 1329.88,-132 1329.88,-112 1369.88,-112 1369.88,-132"/>
<text text-anchor="middle" x="1349.88" y="-118.5" font-family="Helvetica,sans-Serif" font-size="10.00">Timer</text>
</a>
</g>
</g>
<!-- Node12&#45;&gt;Node1 -->
<g id="edge29_Node000001_Node000012" class="edge">
<title>Node12&#45;&gt;Node1</title>
<g id="a_edge29_Node000001_Node000012"><a xlink:title=" ">
<path fill="none" stroke="#9a32cd" stroke-dasharray="5,2" d="M1347.65,-100.11C1344.34,-80.47 1336.13,-52.05 1315.88,-38 1281.71,-14.3 666.35,-11.39 488.59,-11.04"/>
<polygon fill="#9a32cd" stroke="#9a32cd" points="1344.18,-100.57 1348.99,-110.01 1351.12,-99.63 1344.18,-100.57"/>
</a>
</g>
<text text-anchor="middle" x="1375.38" y="-64.5" font-family="Helvetica,sans-Serif" font-size="10.00" fill="grey"> m_DeferTimer</text>
<text text-anchor="middle" x="1375.38" y="-52.5" font-family="Helvetica,sans-Serif" font-size="10.00" fill="grey">m_LoopTimer</text>
</g>
</g>
</svg>
