<?xml version="1.0" encoding="UTF-8" standalone="no"?>
<!DOCTYPE svg PUBLIC "-//W3C//DTD SVG 1.1//EN"
 "http://www.w3.org/Graphics/SVG/1.1/DTD/svg11.dtd">
<!-- Generated by graphviz version 11.0.0 (20240428.1522)
 -->
<!-- Title: BiosPrivacyUidResult Pages: 1 -->
<svg width="688pt" height="278pt"
 viewBox="0.00 0.00 687.62 277.91" xmlns="http://www.w3.org/2000/svg" xmlns:xlink="http://www.w3.org/1999/xlink">
<g id="graph0" class="graph" transform="scale(1 1) rotate(0) translate(4 273.91)">
<title>BiosPrivacyUidResult</title>
<!-- Node1 -->
<g id="Node000001" class="node">
<title>Node1</title>
<g id="a_Node000001"><a xlink:title="BiosPrivacyUidResult represents the per user result of the GetPermissionsAsync request.">
<polygon fill="#999999" stroke="#666666" points="141.87,-20 32.87,-20 32.87,0 141.87,0 141.87,-20"/>
<text text-anchor="middle" x="87.37" y="-6.5" font-family="Helvetica,sans-Serif" font-size="10.00">BiosPrivacyUidResult</text>
</a>
</g>
</g>
<!-- Node2 -->
<g id="Node000002" class="node">
<title>Node2</title>
<g id="a_Node000002"><a xlink:href="../../d5/d02/classstring.html" target="_top" xlink:title=" ">
<polygon fill="white" stroke="#666666" points="82.37,-268 42.37,-268 42.37,-248 82.37,-248 82.37,-268"/>
<text text-anchor="middle" x="62.37" y="-254.5" font-family="Helvetica,sans-Serif" font-size="10.00">string</text>
</a>
</g>
</g>
<!-- Node2&#45;&gt;Node1 -->
<g id="edge1_Node000001_Node000002" class="edge">
<title>Node2&#45;&gt;Node1</title>
<g id="a_edge1_Node000001_Node000002"><a xlink:title=" ">
<path fill="none" stroke="#9a32cd" stroke-dasharray="5,2" d="M48.74,-238.5C24.91,-203.71 -19.19,-126.74 9.62,-68 20.75,-45.31 45.8,-29.56 64.48,-20.45"/>
<polygon fill="#9a32cd" stroke="#9a32cd" points="45.61,-240.14 54.25,-246.28 51.33,-236.09 45.61,-240.14"/>
</a>
</g>
<text text-anchor="middle" x="25.75" y="-100.5" font-family="Helvetica,sans-Serif" font-size="10.00" fill="grey"> m_Uid</text>
</g>
<!-- Node2&#45;&gt;Node2 -->
<g id="edge2_Node000002_Node000002" class="edge">
<title>Node2&#45;&gt;Node2</title>
<g id="a_edge2_Node000002_Node000002"><a xlink:title=" ">
<path fill="none" stroke="#9a32cd" stroke-dasharray="5,2" d="M88.14,-269.91C95.09,-269.28 100.37,-265.31 100.37,-258 100.37,-247.12 88.67,-243.64 77.19,-247.55"/>
<polygon fill="#9a32cd" stroke="#9a32cd" points="89.07,-266.5 78.69,-268.65 88.14,-273.44 89.07,-266.5"/>
</a>
</g>
<text text-anchor="middle" x="116.12" y="-254.5" font-family="Helvetica,sans-Serif" font-size="10.00" fill="grey"> Empty</text>
</g>
<!-- Node3 -->
<g id="Node000003" class="node">
<title>Node3</title>
<g id="a_Node000003"><a xlink:href="../../d2/d01/classarray.html" target="_top" xlink:title="Result for an object found in CGame.IsBoxCollidingGeometryProxy.">
<polygon fill="white" stroke="#666666" points="264.25,-114 226.5,-114 226.5,-94 264.25,-94 264.25,-114"/>
<text text-anchor="middle" x="245.37" y="-100.5" font-family="Helvetica,sans-Serif" font-size="10.00">array</text>
</a>
</g>
</g>
<!-- Node2&#45;&gt;Node3 -->
<g id="edge8_Node000003_Node000002" class="edge">
<title>Node2&#45;&gt;Node3</title>
<g id="a_edge8_Node000003_Node000002"><a xlink:title=" ">
<path fill="none" stroke="#9a32cd" stroke-dasharray="5,2" d="M71.2,-237.29C82.18,-214.95 102.95,-178.95 131.12,-158 151.84,-142.59 162.84,-150.65 186.37,-140 202.64,-132.63 220.1,-121.88 231.77,-114.24"/>
<polygon fill="#9a32cd" stroke="#9a32cd" points="68.1,-235.66 67.01,-246.2 74.44,-238.64 68.1,-235.66"/>
</a>
</g>
<text text-anchor="middle" x="149" y="-190.5" font-family="Helvetica,sans-Serif" font-size="10.00" fill="grey"> m_Test</text>
</g>
<!-- Node8 -->
<g id="Node000008" class="node">
<title>Node8</title>
<g id="a_Node000008"><a xlink:href="../../d2/d01/classarray.html" target="_top" xlink:title=" ">
<polygon fill="white" stroke="#666666" points="359.62,-20 273.12,-20 273.12,0 359.62,0 359.62,-20"/>
<text text-anchor="middle" x="316.37" y="-6.5" font-family="Helvetica,sans-Serif" font-size="10.00">array&lt; Widget &gt;</text>
</a>
</g>
</g>
<!-- Node2&#45;&gt;Node8 -->
<g id="edge15_Node000008_Node000002" class="edge">
<title>Node2&#45;&gt;Node8</title>
<g id="a_edge15_Node000008_Node000002"><a xlink:title=" ">
<path fill="none" stroke="#9a32cd" stroke-dasharray="5,2" d="M60.49,-236.29C58.21,-198.89 58.56,-119.21 96.12,-68 111.96,-46.41 123.13,-46.94 148.37,-38 189.17,-23.56 238.29,-16.8 272.85,-13.67"/>
<polygon fill="#9a32cd" stroke="#9a32cd" points="56.99,-236.42 61.24,-246.13 63.97,-235.9 56.99,-236.42"/>
</a>
</g>
<text text-anchor="middle" x="114" y="-100.5" font-family="Helvetica,sans-Serif" font-size="10.00" fill="grey"> m_Test</text>
</g>
<!-- Node3&#45;&gt;Node1 -->
<g id="edge3_Node000001_Node000003" class="edge">
<title>Node3&#45;&gt;Node1</title>
<g id="a_edge3_Node000001_Node000003"><a xlink:title=" ">
<path fill="none" stroke="#9a32cd" stroke-dasharray="5,2" d="M219.93,-87.81C209.54,-81.63 197.4,-74.45 186.37,-68 157.43,-51.09 123.56,-31.66 103.87,-20.42"/>
<polygon fill="#9a32cd" stroke="#9a32cd" points="217.94,-90.7 228.33,-92.81 221.53,-84.69 217.94,-90.7"/>
</a>
</g>
<text text-anchor="middle" x="179.12" y="-40.5" font-family="Helvetica,sans-Serif" font-size="10.00" fill="grey"> m_Results</text>
</g>
<!-- Node3&#45;&gt;Node3 -->
<g id="edge6_Node000003_Node000003" class="edge">
<title>Node3&#45;&gt;Node3</title>
<g id="a_edge6_Node000003_Node000003"><a xlink:title=" ">
<path fill="none" stroke="#9a32cd" stroke-dasharray="5,2" d="M273.39,-114.66C278.59,-113.34 282.25,-109.78 282.25,-104 282.25,-94.51 272.4,-91.02 262.06,-93.54"/>
<polygon fill="#9a32cd" stroke="#9a32cd" points="273.63,-111.17 263.57,-114.48 273.5,-118.16 273.63,-111.17"/>
</a>
</g>
<text text-anchor="middle" x="303.25" y="-100.5" font-family="Helvetica,sans-Serif" font-size="10.00" fill="grey"> proxyInfo</text>
</g>
<!-- Node3&#45;&gt;Node8 -->
<g id="edge13_Node000008_Node000003" class="edge">
<title>Node3&#45;&gt;Node8</title>
<g id="a_edge13_Node000008_Node000003"><a xlink:title=" ">
<path fill="none" stroke="#9a32cd" stroke-dasharray="5,2" d="M240.92,-82.33C239.15,-68.54 239.33,-50.68 248.37,-38 254.34,-29.62 263.34,-23.84 272.86,-19.86"/>
<polygon fill="#9a32cd" stroke="#9a32cd" points="237.46,-82.85 242.62,-92.1 244.35,-81.65 237.46,-82.85"/>
</a>
</g>
<text text-anchor="middle" x="269.37" y="-40.5" font-family="Helvetica,sans-Serif" font-size="10.00" fill="grey"> proxyInfo</text>
</g>
<!-- Node4 -->
<g id="Node000004" class="node">
<title>Node4</title>
<g id="a_Node000004"><a xlink:href="../../d8/d03/class_object.html" target="_top" xlink:title=" ">
<polygon fill="white" stroke="#666666" points="469.62,-268 425.12,-268 425.12,-248 469.62,-248 469.62,-268"/>
<text text-anchor="middle" x="447.37" y="-254.5" font-family="Helvetica,sans-Serif" font-size="10.00">Object</text>
</a>
</g>
</g>
<!-- Node4&#45;&gt;Node3 -->
<g id="edge4_Node000003_Node000004" class="edge">
<title>Node4&#45;&gt;Node3</title>
<g id="a_edge4_Node000003_Node000004"><a xlink:title=" ">
<path fill="none" stroke="#9a32cd" stroke-dasharray="5,2" d="M433.83,-238.7C417.23,-217.23 387.32,-181.57 355.37,-158 326.37,-136.61 287.38,-120.26 264.45,-111.68"/>
<polygon fill="#9a32cd" stroke="#9a32cd" points="430.93,-240.67 439.76,-246.53 436.51,-236.44 430.93,-240.67"/>
</a>
</g>
<text text-anchor="middle" x="437.87" y="-196.5" font-family="Helvetica,sans-Serif" font-size="10.00" fill="grey"> obj</text>
<text text-anchor="middle" x="437.87" y="-184.5" font-family="Helvetica,sans-Serif" font-size="10.00" fill="grey">parent</text>
</g>
<!-- Node4&#45;&gt;Node8 -->
<g id="edge11_Node000008_Node000004" class="edge">
<title>Node4&#45;&gt;Node8</title>
<g id="a_edge11_Node000008_Node000004"><a xlink:title=" ">
<path fill="none" stroke="#9a32cd" stroke-dasharray="5,2" d="M464.52,-239.99C497.8,-204.9 564.34,-123.17 522.37,-68 502.77,-42.23 414.17,-25.11 359.75,-16.82"/>
<polygon fill="#9a32cd" stroke="#9a32cd" points="462.38,-237.17 457.92,-246.77 467.4,-242.05 462.38,-237.17"/>
</a>
</g>
<text text-anchor="middle" x="548.87" y="-106.5" font-family="Helvetica,sans-Serif" font-size="10.00" fill="grey"> obj</text>
<text text-anchor="middle" x="548.87" y="-94.5" font-family="Helvetica,sans-Serif" font-size="10.00" fill="grey">parent</text>
</g>
<!-- Node5 -->
<g id="Node000005" class="node">
<title>Node5</title>
<g id="a_Node000005"><a xlink:href="../../db/d06/class_param3.html" target="_top" xlink:title=" ">
<polygon fill="white" stroke="#666666" points="372.25,-268 322.5,-268 322.5,-248 372.25,-248 372.25,-268"/>
<text text-anchor="middle" x="347.37" y="-254.5" font-family="Helvetica,sans-Serif" font-size="10.00">Param3</text>
</a>
</g>
</g>
<!-- Node5&#45;&gt;Node3 -->
<g id="edge5_Node000003_Node000005" class="edge">
<title>Node5&#45;&gt;Node3</title>
<g id="a_edge5_Node000003_Node000005"><a xlink:title=" ">
<path fill="none" stroke="#9a32cd" stroke-dasharray="5,2" d="M310.71,-252.7C282.89,-248.59 247.96,-241.32 239.12,-230 211.97,-195.24 231.81,-137.01 241.19,-114.39"/>
<polygon fill="#9a32cd" stroke="#9a32cd" points="310.22,-256.16 320.61,-254.06 311.18,-249.23 310.22,-256.16"/>
</a>
</g>
<text text-anchor="middle" x="296.5" y="-220.5" font-family="Helvetica,sans-Serif" font-size="10.00" fill="grey"> NO_SORTING</text>
<text text-anchor="middle" x="296.5" y="-208.5" font-family="Helvetica,sans-Serif" font-size="10.00" fill="grey">geomLevel</text>
<text text-anchor="middle" x="296.5" y="-196.5" font-family="Helvetica,sans-Serif" font-size="10.00" fill="grey">hierLevel</text>
<text text-anchor="start" x="238.37" y="-184.5" font-family="Helvetica,sans-Serif" font-size="10.00" fill="grey">m_CurrentSettingAlternate</text>
<text text-anchor="middle" x="296.5" y="-172.5" font-family="Helvetica,sans-Serif" font-size="10.00" fill="grey">KeyIndex</text>
<text text-anchor="middle" x="296.5" y="-160.5" font-family="Helvetica,sans-Serif" font-size="10.00" fill="grey">m_CurrentSettingKeyIndex</text>
</g>
<!-- Node5&#45;&gt;Node8 -->
<g id="edge12_Node000008_Node000005" class="edge">
<title>Node5&#45;&gt;Node8</title>
<g id="a_edge12_Node000008_Node000005"><a xlink:title=" ">
<path fill="none" stroke="#9a32cd" stroke-dasharray="5,2" d="M383.33,-247.75C392,-243.75 400.23,-238.06 405.37,-230 422.57,-203.02 410.14,-189.64 405.37,-158 397.06,-102.81 404.13,-80.85 368.37,-38 361.98,-30.35 352.87,-24.6 344.04,-20.41"/>
<polygon fill="#9a32cd" stroke="#9a32cd" points="382.2,-244.44 374.13,-251.3 384.72,-250.97 382.2,-244.44"/>
</a>
</g>
<text text-anchor="middle" x="460.5" y="-130.5" font-family="Helvetica,sans-Serif" font-size="10.00" fill="grey"> NO_SORTING</text>
<text text-anchor="middle" x="460.5" y="-118.5" font-family="Helvetica,sans-Serif" font-size="10.00" fill="grey">geomLevel</text>
<text text-anchor="middle" x="460.5" y="-106.5" font-family="Helvetica,sans-Serif" font-size="10.00" fill="grey">hierLevel</text>
<text text-anchor="start" x="402.37" y="-94.5" font-family="Helvetica,sans-Serif" font-size="10.00" fill="grey">m_CurrentSettingAlternate</text>
<text text-anchor="middle" x="460.5" y="-82.5" font-family="Helvetica,sans-Serif" font-size="10.00" fill="grey">KeyIndex</text>
<text text-anchor="middle" x="460.5" y="-70.5" font-family="Helvetica,sans-Serif" font-size="10.00" fill="grey">m_CurrentSettingKeyIndex</text>
</g>
<!-- Node6 -->
<g id="Node000006" class="node">
<title>Node6</title>
<g id="a_Node000006"><a xlink:href="../../d4/d04/class_class.html" target="_top" xlink:title="Super root of all classes in Enforce script.">
<polygon fill="white" stroke="#666666" points="633.75,-268 593,-268 593,-248 633.75,-248 633.75,-268"/>
<text text-anchor="middle" x="613.37" y="-254.5" font-family="Helvetica,sans-Serif" font-size="10.00">Class</text>
</a>
</g>
</g>
<!-- Node6&#45;&gt;Node3 -->
<g id="edge7_Node000003_Node000006" class="edge">
<title>Node6&#45;&gt;Node3</title>
<g id="a_edge7_Node000003_Node000006"><a xlink:title=" ">
<path fill="none" stroke="#9a32cd" stroke-dasharray="5,2" d="M593.11,-241.04C564.21,-219.05 508.7,-179.71 455.37,-158 420.41,-143.77 409.02,-149.02 372.37,-140 333.95,-130.55 289.46,-117.89 264.65,-110.67"/>
<polygon fill="#9a32cd" stroke="#9a32cd" points="590.6,-243.52 600.66,-246.86 594.87,-237.98 590.6,-243.52"/>
</a>
</g>
<text text-anchor="middle" x="603" y="-190.5" font-family="Helvetica,sans-Serif" font-size="10.00" fill="grey"> m_Instance</text>
</g>
<!-- Node6&#45;&gt;Node8 -->
<g id="edge14_Node000008_Node000006" class="edge">
<title>Node6&#45;&gt;Node8</title>
<g id="a_edge14_Node000008_Node000006"><a xlink:title=" ">
<path fill="none" stroke="#9a32cd" stroke-dasharray="5,2" d="M629.2,-238.74C630.9,-235.96 632.38,-233.01 633.37,-230 643.4,-199.61 643.44,-188.38 633.37,-158 617.69,-110.66 605.83,-98.5 566.37,-68 505.79,-21.18 413.76,-11.54 359.89,-10.26"/>
<polygon fill="#9a32cd" stroke="#9a32cd" points="626.48,-236.53 623.35,-246.65 632.11,-240.69 626.48,-236.53"/>
</a>
</g>
<text text-anchor="middle" x="653" y="-100.5" font-family="Helvetica,sans-Serif" font-size="10.00" fill="grey"> m_Instance</text>
</g>
<!-- Node7 -->
<g id="Node000007" class="node">
<title>Node7</title>
<g id="a_Node000007"><a xlink:href="../../dd/d0a/class_widget.html" target="_top" xlink:title=" ">
<polygon fill="white" stroke="#666666" points="199.75,-268 153,-268 153,-248 199.75,-248 199.75,-268"/>
<text text-anchor="middle" x="176.37" y="-254.5" font-family="Helvetica,sans-Serif" font-size="10.00">Widget</text>
</a>
</g>
</g>
<!-- Node7&#45;&gt;Node3 -->
<g id="edge9_Node000003_Node000007" class="edge">
<title>Node7&#45;&gt;Node3</title>
<g id="a_edge9_Node000003_Node000007"><a xlink:title=" ">
<path fill="none" stroke="#9a32cd" stroke-dasharray="5,2" d="M172.26,-236.32C169.16,-215.41 167.29,-182.72 179.62,-158 189.5,-138.19 210.6,-123.31 226.25,-114.44"/>
<polygon fill="#9a32cd" stroke="#9a32cd" points="168.81,-236.9 173.97,-246.15 175.7,-235.7 168.81,-236.9"/>
</a>
</g>
<text text-anchor="middle" x="198.75" y="-190.5" font-family="Helvetica,sans-Serif" font-size="10.00" fill="grey"> m_Root</text>
</g>
<!-- Node7&#45;&gt;Node8 -->
<g id="edge16_Node000008_Node000007" class="edge">
<title>Node7&#45;&gt;Node8</title>
<g id="a_edge16_Node000008_Node000007"><a xlink:title=" ">
<path fill="none" stroke="#9a32cd" stroke-dasharray="5,2" d="M166.76,-237.48C147.62,-195.52 110.63,-95.84 159.37,-38 173.63,-21.08 231.39,-14.76 272.71,-12.41"/>
<polygon fill="#9a32cd" stroke="#9a32cd" points="163.51,-238.8 170.95,-246.34 169.83,-235.8 163.51,-238.8"/>
</a>
</g>
<text text-anchor="middle" x="160.75" y="-100.5" font-family="Helvetica,sans-Serif" font-size="10.00" fill="grey"> m_Root</text>
</g>
<!-- Node8&#45;&gt;Node3 -->
<g id="edge10_Node000003_Node000008" class="edge">
<title>Node8&#45;&gt;Node3</title>
<g id="a_edge10_Node000003_Node000008"><a xlink:title=" ">
<path fill="none" stroke="#9a32cd" stroke-dasharray="5,2" d="M306.63,-30.32C303.08,-36.78 298.83,-43.88 294.37,-50 282.26,-66.61 265.56,-83.69 255.12,-93.82"/>
<polygon fill="#9a32cd" stroke="#9a32cd" points="309.61,-32.17 311.17,-21.69 303.42,-28.91 309.61,-32.17"/>
</a>
</g>
<text text-anchor="middle" x="332.87" y="-40.5" font-family="Helvetica,sans-Serif" font-size="10.00" fill="grey"> m_Subgroups</text>
</g>
<!-- Node8&#45;&gt;Node8 -->
<g id="edge17_Node000008_Node000008" class="edge">
<title>Node8&#45;&gt;Node8</title>
<g id="a_edge17_Node000008_Node000008"><a xlink:title=" ">
<path fill="none" stroke="#9a32cd" stroke-dasharray="5,2" d="M371,-14.76C375.1,-13.7 377.62,-12.11 377.62,-10 377.62,-6.35 370.08,-4.26 359.86,-3.75"/>
<polygon fill="#9a32cd" stroke="#9a32cd" points="370.81,-11.26 361.36,-16.05 371.74,-18.19 370.81,-11.26"/>
</a>
</g>
<text text-anchor="middle" x="409.12" y="-6.5" font-family="Helvetica,sans-Serif" font-size="10.00" fill="grey"> m_Subgroups</text>
</g>
</g>
</svg>
