<?xml version="1.0" encoding="UTF-8" standalone="no"?>
<!DOCTYPE svg PUBLIC "-//W3C//DTD SVG 1.1//EN"
 "http://www.w3.org/Graphics/SVG/1.1/DTD/svg11.dtd">
<!-- Generated by graphviz version 11.0.0 (20240428.1522)
 -->
<!-- Title: FirearmActionBase Pages: 1 -->
<svg width="415pt" height="368pt"
 viewBox="0.00 0.00 415.25 368.00" xmlns="http://www.w3.org/2000/svg" xmlns:xlink="http://www.w3.org/1999/xlink">
<g id="graph0" class="graph" transform="scale(1 1) rotate(0) translate(4 364)">
<title>FirearmActionBase</title>
<!-- Node1 -->
<g id="Node000001" class="node">
<title>Node1</title>
<g id="a_Node000001"><a xlink:title=" ">
<polygon fill="#999999" stroke="#666666" points="201.5,-196 102.25,-196 102.25,-176 201.5,-176 201.5,-196"/>
<text text-anchor="middle" x="151.88" y="-182.5" font-family="Helvetica,sans-Serif" font-size="10.00">FirearmActionBase</text>
</a>
</g>
</g>
<!-- Node3 -->
<g id="Node000003" class="node">
<title>Node3</title>
<g id="a_Node000003"><a xlink:href="../../d7/d0a/class_firearm_action_attach_magazine.html" target="_top" xlink:title=" ">
<polygon fill="white" stroke="#666666" points="396,-360 248.75,-360 248.75,-340 396,-340 396,-360"/>
<text text-anchor="middle" x="322.38" y="-346.5" font-family="Helvetica,sans-Serif" font-size="10.00">FirearmActionAttachMagazine</text>
</a>
</g>
</g>
<!-- Node1&#45;&gt;Node3 -->
<g id="edge2_Node000001_Node000003" class="edge">
<title>Node1&#45;&gt;Node3</title>
<g id="a_edge2_Node000001_Node000003"><a xlink:title=" ">
<path fill="none" stroke="#8b1a1a" d="M159.16,-207.13C169.81,-239.14 194.56,-299.52 237.5,-331 242.2,-334.44 247.41,-337.28 252.87,-339.61"/>
<polygon fill="#8b1a1a" stroke="#8b1a1a" points="162.57,-206.29 156.21,-197.81 155.89,-208.4 162.57,-206.29"/>
</a>
</g>
</g>
<!-- Node4 -->
<g id="Node000004" class="node">
<title>Node4</title>
<g id="a_Node000004"><a xlink:href="../../d0/d0d/class_firearm_action_attach_magazine_quick.html" target="_top" xlink:title=" ">
<polygon fill="white" stroke="#666666" points="396,-322 248.75,-322 248.75,-290 396,-290 396,-322"/>
<text text-anchor="start" x="256.75" y="-308.5" font-family="Helvetica,sans-Serif" font-size="10.00">FirearmActionAttachMagazine</text>
<text text-anchor="middle" x="322.38" y="-296.5" font-family="Helvetica,sans-Serif" font-size="10.00">Quick</text>
</a>
</g>
</g>
<!-- Node1&#45;&gt;Node4 -->
<g id="edge3_Node000001_Node000004" class="edge">
<title>Node1&#45;&gt;Node4</title>
<g id="a_edge3_Node000001_Node000004"><a xlink:title=" ">
<path fill="none" stroke="#8b1a1a" d="M165.46,-205.73C180.21,-227.28 206.59,-261.34 237.5,-281 242.63,-284.26 248.2,-287.11 253.96,-289.61"/>
<polygon fill="#8b1a1a" stroke="#8b1a1a" points="168.47,-203.93 160.03,-197.53 162.64,-207.8 168.47,-203.93"/>
</a>
</g>
</g>
<!-- Node5 -->
<g id="Node000005" class="node">
<title>Node5</title>
<g id="a_Node000005"><a xlink:href="../../d3/d08/class_firearm_action_detach_magazine___old.html" target="_top" xlink:title=" ">
<polygon fill="white" stroke="#666666" points="407.25,-272 237.5,-272 237.5,-252 407.25,-252 407.25,-272"/>
<text text-anchor="middle" x="322.38" y="-258.5" font-family="Helvetica,sans-Serif" font-size="10.00">FirearmActionDetachMagazine_Old</text>
</a>
</g>
</g>
<!-- Node1&#45;&gt;Node5 -->
<g id="edge4_Node000001_Node000005" class="edge">
<title>Node1&#45;&gt;Node5</title>
<g id="a_edge4_Node000001_Node000005"><a xlink:title=" ">
<path fill="none" stroke="#8b1a1a" d="M173.92,-203.43C190.31,-216.16 214.12,-232.9 237.5,-243 245.31,-246.37 253.8,-249.19 262.29,-251.52"/>
<polygon fill="#8b1a1a" stroke="#8b1a1a" points="176.38,-200.92 166.38,-197.42 172.02,-206.39 176.38,-200.92"/>
</a>
</g>
</g>
<!-- Node6 -->
<g id="Node000006" class="node">
<title>Node6</title>
<g id="a_Node000006"><a xlink:href="../../de/d0a/class_firearm_action_load_bullet.html" target="_top" xlink:title=" ">
<polygon fill="white" stroke="#666666" points="383.62,-234 261.12,-234 261.12,-214 383.62,-214 383.62,-234"/>
<text text-anchor="middle" x="322.38" y="-220.5" font-family="Helvetica,sans-Serif" font-size="10.00">FirearmActionLoadBullet</text>
</a>
</g>
</g>
<!-- Node1&#45;&gt;Node6 -->
<g id="edge5_Node000001_Node000006" class="edge">
<title>Node1&#45;&gt;Node6</title>
<g id="a_edge5_Node000001_Node000006"><a xlink:title=" ">
<path fill="none" stroke="#8b1a1a" d="M210.45,-198.98C231.52,-203.74 255.07,-209.05 275.04,-213.55"/>
<polygon fill="#8b1a1a" stroke="#8b1a1a" points="211.37,-195.6 200.84,-196.82 209.83,-202.43 211.37,-195.6"/>
</a>
</g>
</g>
<!-- Node7 -->
<g id="Node000007" class="node">
<title>Node7</title>
<g id="a_Node000007"><a xlink:href="../../de/d0e/class_firearm_action_load_multi_bullet.html" target="_top" xlink:title=" ">
<polygon fill="white" stroke="#666666" points="394.12,-196 250.62,-196 250.62,-176 394.12,-176 394.12,-196"/>
<text text-anchor="middle" x="322.38" y="-182.5" font-family="Helvetica,sans-Serif" font-size="10.00">FirearmActionLoadMultiBullet</text>
</a>
</g>
</g>
<!-- Node1&#45;&gt;Node7 -->
<g id="edge6_Node000001_Node000007" class="edge">
<title>Node1&#45;&gt;Node7</title>
<g id="a_edge6_Node000001_Node000007"><a xlink:title=" ">
<path fill="none" stroke="#8b1a1a" d="M212.92,-186C224.99,-186 237.78,-186 250.18,-186"/>
<polygon fill="#8b1a1a" stroke="#8b1a1a" points="213.13,-182.5 203.13,-186 213.13,-189.5 213.13,-182.5"/>
</a>
</g>
</g>
<!-- Node8 -->
<g id="Node000008" class="node">
<title>Node8</title>
<g id="a_Node000008"><a xlink:href="../../da/d0d/class_firearm_action_load_multi_bullet_quick.html" target="_top" xlink:title=" ">
<polygon fill="white" stroke="#666666" points="394.12,-158 250.62,-158 250.62,-126 394.12,-126 394.12,-158"/>
<text text-anchor="start" x="258.62" y="-144.5" font-family="Helvetica,sans-Serif" font-size="10.00">FirearmActionLoadMultiBullet</text>
<text text-anchor="middle" x="322.38" y="-132.5" font-family="Helvetica,sans-Serif" font-size="10.00">Quick</text>
</a>
</g>
</g>
<!-- Node1&#45;&gt;Node8 -->
<g id="edge7_Node000001_Node000008" class="edge">
<title>Node1&#45;&gt;Node8</title>
<g id="a_edge7_Node000001_Node000008"><a xlink:title=" ">
<path fill="none" stroke="#8b1a1a" d="M203.75,-172.72C220.93,-168.23 240.33,-163.16 258.35,-158.46"/>
<polygon fill="#8b1a1a" stroke="#8b1a1a" points="203.06,-169.28 194.27,-175.19 204.83,-176.05 203.06,-169.28"/>
</a>
</g>
</g>
<!-- Node9 -->
<g id="Node000009" class="node">
<title>Node9</title>
<g id="a_Node000009"><a xlink:href="../../d1/d00/class_firearm_action_load_multi_bullet_radial.html" target="_top" xlink:title=" ">
<polygon fill="white" stroke="#666666" points="394.12,-108 250.62,-108 250.62,-76 394.12,-76 394.12,-108"/>
<text text-anchor="start" x="258.62" y="-94.5" font-family="Helvetica,sans-Serif" font-size="10.00">FirearmActionLoadMultiBullet</text>
<text text-anchor="middle" x="322.38" y="-82.5" font-family="Helvetica,sans-Serif" font-size="10.00">Radial</text>
</a>
</g>
</g>
<!-- Node1&#45;&gt;Node9 -->
<g id="edge8_Node000001_Node000009" class="edge">
<title>Node1&#45;&gt;Node9</title>
<g id="a_edge8_Node000001_Node000009"><a xlink:title=" ">
<path fill="none" stroke="#8b1a1a" d="M170.86,-167.73C187.02,-152.24 212.05,-130.47 237.5,-117 243.54,-113.8 250.05,-110.95 256.68,-108.43"/>
<polygon fill="#8b1a1a" stroke="#8b1a1a" points="168.61,-165.02 163.93,-174.53 173.52,-170.02 168.61,-165.02"/>
</a>
</g>
</g>
<!-- Node10 -->
<g id="Node000010" class="node">
<title>Node10</title>
<g id="a_Node000010"><a xlink:href="../../d1/d0c/class_firearm_action_mechanic_manipulate.html" target="_top" xlink:title=" ">
<polygon fill="white" stroke="#666666" points="405.38,-58 239.38,-58 239.38,-38 405.38,-38 405.38,-58"/>
<text text-anchor="middle" x="322.38" y="-44.5" font-family="Helvetica,sans-Serif" font-size="10.00">FirearmActionMechanicManipulate</text>
</a>
</g>
</g>
<!-- Node1&#45;&gt;Node10 -->
<g id="edge9_Node000001_Node000010" class="edge">
<title>Node1&#45;&gt;Node10</title>
<g id="a_edge9_Node000001_Node000010"><a xlink:title=" ">
<path fill="none" stroke="#8b1a1a" d="M161.65,-165.59C174.33,-138.64 200.39,-91.72 237.5,-67 242.72,-63.52 248.48,-60.68 254.47,-58.34"/>
<polygon fill="#8b1a1a" stroke="#8b1a1a" points="158.59,-163.86 157.67,-174.41 164.97,-166.74 158.59,-163.86"/>
</a>
</g>
</g>
<!-- Node11 -->
<g id="Node000011" class="node">
<title>Node11</title>
<g id="a_Node000011"><a xlink:href="../../d2/d0e/class_firearm_action_unjam.html" target="_top" xlink:title=" ">
<polygon fill="white" stroke="#666666" points="374.62,-20 270.12,-20 270.12,0 374.62,0 374.62,-20"/>
<text text-anchor="middle" x="322.38" y="-6.5" font-family="Helvetica,sans-Serif" font-size="10.00">FirearmActionUnjam</text>
</a>
</g>
</g>
<!-- Node1&#45;&gt;Node11 -->
<g id="edge10_Node000001_Node000011" class="edge">
<title>Node1&#45;&gt;Node11</title>
<g id="a_edge10_Node000001_Node000011"><a xlink:title=" ">
<path fill="none" stroke="#8b1a1a" d="M158.23,-164.6C167.94,-130.39 191.82,-63.7 237.5,-29 246.89,-21.87 258.48,-17.32 270,-14.46"/>
<polygon fill="#8b1a1a" stroke="#8b1a1a" points="154.87,-163.59 155.67,-174.16 161.64,-165.4 154.87,-163.59"/>
</a>
</g>
</g>
<!-- Node2 -->
<g id="Node000002" class="node">
<title>Node2</title>
<g id="a_Node000002"><a xlink:title=" ">
<polygon fill="white" stroke="#666666" points="66.25,-196 0,-196 0,-176 66.25,-176 66.25,-196"/>
<text text-anchor="middle" x="33.12" y="-182.5" font-family="Helvetica,sans-Serif" font-size="10.00">ActionBase</text>
</a>
</g>
</g>
<!-- Node2&#45;&gt;Node1 -->
<g id="edge1_Node000001_Node000002" class="edge">
<title>Node2&#45;&gt;Node1</title>
<g id="a_edge1_Node000001_Node000002"><a xlink:title=" ">
<path fill="none" stroke="#8b1a1a" d="M78.1,-186C85.88,-186 94.02,-186 101.93,-186"/>
<polygon fill="#8b1a1a" stroke="#8b1a1a" points="78.16,-182.5 68.16,-186 78.16,-189.5 78.16,-182.5"/>
</a>
</g>
</g>
</g>
</svg>
