<?xml version="1.0" encoding="UTF-8" standalone="no"?>
<!DOCTYPE svg PUBLIC "-//W3C//DTD SVG 1.1//EN"
 "http://www.w3.org/Graphics/SVG/1.1/DTD/svg11.dtd">
<!-- Generated by graphviz version 11.0.0 (20240428.1522)
 -->
<!-- Title: WorldData Pages: 1 -->
<!--zoomable 602 -->

<svg id="main" version="1.1" xmlns="http://www.w3.org/2000/svg" xmlns:xlink="http://www.w3.org/1999/xlink" xml:space="preserve" onload="init(evt)">
<style type="text/css"><![CDATA[
.node, .edge {opacity: 0.7;}
.node.selected, .edge.selected {opacity: 1;}
.edge:hover path { stroke: red; }
.edge:hover polygon { stroke: red; fill: red; }
]]></style>

<defs>
  <circle id="rim" cx="0" cy="0" r="7"/>
  <circle id="rim2" cx="0" cy="0" r="3.5"/>
  <g id="zoomPlus">
    <use xlink:href="#rim" fill="#404040"><set attributeName="fill" to="#808080" begin="zoomplus.mouseover" end="zoomplus.mouseout"/></use>
    <path d="M-4,0h8M0,-4v8" fill="none" stroke="white" stroke-width="1.5" pointer-events="none"/>
  </g>
  <g id="zoomMin">
    <use xlink:href="#rim" fill="#404040"><set attributeName="fill" to="#808080" begin="zoomminus.mouseover" end="zoomminus.mouseout"/></use>
    <path d="M-4,0h8" fill="none" stroke="white" stroke-width="1.5" pointer-events="none"/>
  </g>
  <g id="arrowUp" transform="translate(30 24)">
    <use xlink:href="#rim"/>
    <path pointer-events="none" fill="none" stroke="white" stroke-width="1.5" d="M0,-3.0v7 M-2.5,-0.5L0,-3.0L2.5,-0.5"/>
  </g>
  <g id="arrowRight" transform="rotate(90) translate(36 -43)">
    <use xlink:href="#rim"/>
    <path pointer-events="none" fill="none" stroke="white" stroke-width="1.5" d="M0,-3.0v7 M-2.5,-0.5L0,-3.0L2.5,-0.5"/>
  </g>
  <g id="arrowDown" transform="rotate(180) translate(-30 -48)">
    <use xlink:href="#rim"/>
    <path pointer-events="none" fill="none" stroke="white" stroke-width="1.5" d="M0,-3.0v7 M-2.5,-0.5L0,-3.0L2.5,-0.5"/>
  </g>
  <g id="arrowLeft" transform="rotate(270) translate(-36 17)">
    <use xlink:href="#rim"/>
    <path pointer-events="none" fill="none" stroke="white" stroke-width="1.5" d="M0,-3.0v7 M-2.5,-0.5L0,-3.0L2.5,-0.5"/>
  </g>
  <g id="resetDef">
    <use xlink:href="#rim2" fill="#404040"><set attributeName="fill" to="#808080" begin="reset.mouseover" end="reset.mouseout"/></use>
  </g>
</defs>
<script type="application/ecmascript">
var viewWidth = 1329;
var viewHeight = 602;
var sectionId = 'dynsection-0';
</script>
<script type="application/ecmascript" xlink:href="../../svg.min.js"/>
<svg id="graph" class="graph">
<g id="viewport">
<title>WorldData</title>
<!-- Node1 -->
<g id="Node000001" class="node">
<title>Node1</title>
<g id="a_Node000001"><a xlink:title="Keeps information about currently loaded world, like temperature.">
<polygon fill="#999999" stroke="#666666" points="229,-20 167.25,-20 167.25,0 229,0 229,-20"/>
<text text-anchor="middle" x="198.12" y="-6.5" font-family="Helvetica,sans-Serif" font-size="10.00">WorldData</text>
</a>
</g>
</g>
<!-- Node2 -->
<g id="Node000002" class="node">
<title>Node2</title>
<g id="a_Node000002"><a xlink:href="../../d4/d03/classfloat.html" target="_top" xlink:title=" ">
<polygon fill="white" stroke="#666666" points="37.12,-216 3.12,-216 3.12,-196 37.12,-196 37.12,-216"/>
<text text-anchor="middle" x="20.12" y="-202.5" font-family="Helvetica,sans-Serif" font-size="10.00">float</text>
</a>
</g>
</g>
<!-- Node2&#45;&gt;Node1 -->
<g id="edge1_Node000001_Node000002" class="edge">
<title>Node2&#45;&gt;Node1</title>
<g id="a_edge1_Node000001_Node000002"><a xlink:title=" ">
<path fill="none" stroke="#9a32cd" stroke-dasharray="5,2" d="M13.07,-185.03C2.28,-150.48 -13.55,-79.29 22.37,-38 40.76,-16.86 121.42,-12.13 166.8,-11.16"/>
<polygon fill="#9a32cd" stroke="#9a32cd" points="9.63,-185.79 16.11,-194.18 16.28,-183.58 9.63,-185.79"/>
</a>
</g>
<text text-anchor="middle" x="83.5" y="-160.5" font-family="Helvetica,sans-Serif" font-size="10.00" fill="grey"> RAIN_THRESHOLD</text>
<text text-anchor="middle" x="83.5" y="-148.5" font-family="Helvetica,sans-Serif" font-size="10.00" fill="grey">STORM_THRESHOLD</text>
<text text-anchor="middle" x="83.5" y="-136.5" font-family="Helvetica,sans-Serif" font-size="10.00" fill="grey">m_DayTemperature</text>
<text text-anchor="middle" x="83.5" y="-124.5" font-family="Helvetica,sans-Serif" font-size="10.00" fill="grey">m_EnvironmentTemperature</text>
<text text-anchor="middle" x="83.5" y="-112.5" font-family="Helvetica,sans-Serif" font-size="10.00" fill="grey">m_MaxTemps</text>
<text text-anchor="middle" x="83.5" y="-100.5" font-family="Helvetica,sans-Serif" font-size="10.00" fill="grey">m_MinTemps</text>
<text text-anchor="middle" x="83.5" y="-88.5" font-family="Helvetica,sans-Serif" font-size="10.00" fill="grey">m_NightTemperature</text>
<text text-anchor="middle" x="83.5" y="-76.5" font-family="Helvetica,sans-Serif" font-size="10.00" fill="grey">m_Sunrise_Jan</text>
<text text-anchor="middle" x="83.5" y="-64.5" font-family="Helvetica,sans-Serif" font-size="10.00" fill="grey">m_Sunrise_Jul</text>
<text text-anchor="middle" x="83.5" y="-52.5" font-family="Helvetica,sans-Serif" font-size="10.00" fill="grey">m_Sunset_Jan</text>
<text text-anchor="middle" x="83.5" y="-40.5" font-family="Helvetica,sans-Serif" font-size="10.00" fill="grey">...</text>
</g>
<!-- Node2&#45;&gt;Node2 -->
<g id="edge2_Node000002_Node000002" class="edge">
<title>Node2&#45;&gt;Node2</title>
<g id="a_edge2_Node000002_Node000002"><a xlink:title=" ">
<path fill="none" stroke="#9a32cd" stroke-dasharray="5,2" d="M35.62,-223.63C45.56,-228.2 55.12,-222.32 55.12,-206 55.12,-184.68 38.82,-181.19 26.65,-195.51"/>
<polygon fill="#9a32cd" stroke="#9a32cd" points="37.84,-220.92 27.84,-217.43 33.49,-226.4 37.84,-220.92"/>
</a>
</g>
<text text-anchor="middle" x="77.25" y="-214.5" font-family="Helvetica,sans-Serif" font-size="10.00" fill="grey"> LOWEST</text>
<text text-anchor="middle" x="77.25" y="-202.5" font-family="Helvetica,sans-Serif" font-size="10.00" fill="grey">MAX</text>
<text text-anchor="middle" x="77.25" y="-190.5" font-family="Helvetica,sans-Serif" font-size="10.00" fill="grey">MIN</text>
</g>
<!-- Node3 -->
<g id="Node000003" class="node">
<title>Node3</title>
<g id="a_Node000003"><a xlink:href="../../d2/d02/class_weather.html" target="_top" xlink:title=" ">
<polygon fill="white" stroke="#666666" points="180.5,-216 127.75,-216 127.75,-196 180.5,-196 180.5,-216"/>
<text text-anchor="middle" x="154.12" y="-202.5" font-family="Helvetica,sans-Serif" font-size="10.00">Weather</text>
</a>
</g>
</g>
<!-- Node3&#45;&gt;Node1 -->
<g id="edge3_Node000001_Node000003" class="edge">
<title>Node3&#45;&gt;Node1</title>
<g id="a_edge3_Node000001_Node000003"><a xlink:title=" ">
<path fill="none" stroke="#9a32cd" stroke-dasharray="5,2" d="M150.42,-184.35C145.55,-151.35 140.28,-85.63 164.87,-38 168.56,-30.86 175.05,-24.94 181.33,-20.48"/>
<polygon fill="#9a32cd" stroke="#9a32cd" points="146.95,-184.84 152.02,-194.14 153.86,-183.71 146.95,-184.84"/>
</a>
</g>
<text text-anchor="middle" x="191.75" y="-100.5" font-family="Helvetica,sans-Serif" font-size="10.00" fill="grey"> m_Weather</text>
</g>
<!-- Node4 -->
<g id="Node000004" class="node">
<title>Node4</title>
<g id="a_Node000004"><a xlink:href="../../d9/d09/classbool.html" target="_top" xlink:title=" ">
<polygon fill="white" stroke="#666666" points="139.12,-438 105.12,-438 105.12,-418 139.12,-418 139.12,-438"/>
<text text-anchor="middle" x="122.12" y="-424.5" font-family="Helvetica,sans-Serif" font-size="10.00">bool</text>
</a>
</g>
</g>
<!-- Node4&#45;&gt;Node3 -->
<g id="edge4_Node000003_Node000004" class="edge">
<title>Node4&#45;&gt;Node3</title>
<g id="a_edge4_Node000003_Node000004"><a xlink:title=" ">
<path fill="none" stroke="#9a32cd" stroke-dasharray="5,2" d="M117.72,-406.67C111.12,-371.67 101.57,-298.38 123.12,-242 127.01,-231.84 135.32,-222.73 142.36,-216.35"/>
<polygon fill="#9a32cd" stroke="#9a32cd" points="114.25,-407.14 119.66,-416.25 121.11,-405.75 114.25,-407.14"/>
</a>
</g>
<text text-anchor="middle" x="166.62" y="-304.5" font-family="Helvetica,sans-Serif" font-size="10.00" fill="grey"> m_missionWeather</text>
</g>
<!-- Node5 -->
<g id="Node000005" class="node">
<title>Node5</title>
<g id="a_Node000005"><a xlink:href="../../d2/d01/classarray.html" target="_top" xlink:title=" ">
<polygon fill="white" stroke="#666666" points="746.75,-216 665.5,-216 665.5,-196 746.75,-196 746.75,-216"/>
<text text-anchor="middle" x="706.12" y="-202.5" font-family="Helvetica,sans-Serif" font-size="10.00">array&lt; vector &gt;</text>
</a>
</g>
</g>
<!-- Node5&#45;&gt;Node1 -->
<g id="edge5_Node000001_Node000005" class="edge">
<title>Node5&#45;&gt;Node1</title>
<g id="a_edge5_Node000001_Node000005"><a xlink:title=" ">
<path fill="none" stroke="#9a32cd" stroke-dasharray="5,2" d="M670.57,-191.42C573.53,-154.37 305.82,-52.13 222.92,-20.47"/>
<polygon fill="#9a32cd" stroke="#9a32cd" points="669.27,-194.67 679.86,-194.97 671.77,-188.13 669.27,-194.67"/>
</a>
</g>
<text text-anchor="start" x="609.12" y="-124.5" font-family="Helvetica,sans-Serif" font-size="10.00" fill="grey"> CHERNARUS_ARTY_STRIKE</text>
<text text-anchor="middle" x="676.25" y="-112.5" font-family="Helvetica,sans-Serif" font-size="10.00" fill="grey">_POS</text>
<text text-anchor="start" x="609.12" y="-100.5" font-family="Helvetica,sans-Serif" font-size="10.00" fill="grey">LIVONIA_ARTY_STRIKE</text>
<text text-anchor="middle" x="676.25" y="-88.5" font-family="Helvetica,sans-Serif" font-size="10.00" fill="grey">_POS</text>
<text text-anchor="middle" x="676.25" y="-76.5" font-family="Helvetica,sans-Serif" font-size="10.00" fill="grey">m_FiringPos</text>
</g>
<!-- Node6 -->
<g id="Node000006" class="node">
<title>Node6</title>
<g id="a_Node000006"><a xlink:href="../../d8/d03/class_object.html" target="_top" xlink:title=" ">
<polygon fill="white" stroke="#666666" points="986.37,-592 941.87,-592 941.87,-572 986.37,-572 986.37,-592"/>
<text text-anchor="middle" x="964.12" y="-578.5" font-family="Helvetica,sans-Serif" font-size="10.00">Object</text>
</a>
</g>
</g>
<!-- Node6&#45;&gt;Node5 -->
<g id="edge6_Node000005_Node000006" class="edge">
<title>Node6&#45;&gt;Node5</title>
<g id="a_edge6_Node000005_Node000006"><a xlink:title=" ">
<path fill="none" stroke="#9a32cd" stroke-dasharray="5,2" d="M930.7,-576.98C914,-573.41 894.54,-566.69 881.12,-554 856.17,-530.42 867.72,-513.08 853.12,-482 849.23,-473.72 847.5,-472.04 843.12,-464 790.67,-367.63 728.7,-249.98 711.04,-216.37"/>
<polygon fill="#9a32cd" stroke="#9a32cd" points="929.76,-580.36 940.22,-578.71 931.01,-573.48 929.76,-580.36"/>
</a>
</g>
<text text-anchor="middle" x="856.62" y="-430.5" font-family="Helvetica,sans-Serif" font-size="10.00" fill="grey"> obj</text>
<text text-anchor="middle" x="856.62" y="-418.5" font-family="Helvetica,sans-Serif" font-size="10.00" fill="grey">parent</text>
</g>
<!-- Node8 -->
<g id="Node000008" class="node">
<title>Node8</title>
<g id="a_Node000008"><a xlink:href="../../d2/d01/classarray.html" target="_top" xlink:title="Result for an object found in CGame.IsBoxCollidingGeometryProxy.">
<polygon fill="white" stroke="#666666" points="983,-438 945.25,-438 945.25,-418 983,-418 983,-438"/>
<text text-anchor="middle" x="964.12" y="-424.5" font-family="Helvetica,sans-Serif" font-size="10.00">array</text>
</a>
</g>
</g>
<!-- Node6&#45;&gt;Node8 -->
<g id="edge9_Node000008_Node000006" class="edge">
<title>Node6&#45;&gt;Node8</title>
<g id="a_edge9_Node000008_Node000006"><a xlink:title=" ">
<path fill="none" stroke="#9a32cd" stroke-dasharray="5,2" d="M964.12,-560.47C964.12,-527.04 964.12,-462.17 964.12,-438.2"/>
<polygon fill="#9a32cd" stroke="#9a32cd" points="960.62,-560.43 964.12,-570.43 967.62,-560.43 960.62,-560.43"/>
</a>
</g>
<text text-anchor="middle" x="977.62" y="-520.5" font-family="Helvetica,sans-Serif" font-size="10.00" fill="grey"> obj</text>
<text text-anchor="middle" x="977.62" y="-508.5" font-family="Helvetica,sans-Serif" font-size="10.00" fill="grey">parent</text>
</g>
<!-- Node12 -->
<g id="Node000012" class="node">
<title>Node12</title>
<g id="a_Node000012"><a xlink:href="../../d2/d01/classarray.html" target="_top" xlink:title=" ">
<polygon fill="white" stroke="#666666" points="1097.37,-216 1010.87,-216 1010.87,-196 1097.37,-196 1097.37,-216"/>
<text text-anchor="middle" x="1054.12" y="-202.5" font-family="Helvetica,sans-Serif" font-size="10.00">array&lt; Widget &gt;</text>
</a>
</g>
</g>
<!-- Node6&#45;&gt;Node12 -->
<g id="edge17_Node000012_Node000006" class="edge">
<title>Node6&#45;&gt;Node12</title>
<g id="a_edge17_Node000012_Node000006"><a xlink:title=" ">
<path fill="none" stroke="#9a32cd" stroke-dasharray="5,2" d="M984.99,-564.31C988.55,-561.06 992.07,-557.55 995.12,-554 1025.96,-518.08 1027.73,-504.58 1052.12,-464 1071.09,-432.44 1068.5,-419.39 1093.12,-392 1102.27,-381.82 1111.88,-386.19 1118.12,-374 1144.87,-321.78 1148.04,-292.46 1118.12,-242 1111.02,-230.02 1098.2,-221.87 1085.9,-216.47"/>
<polygon fill="#9a32cd" stroke="#9a32cd" points="982.8,-561.58 977.5,-570.75 987.36,-566.89 982.8,-561.58"/>
</a>
</g>
<text text-anchor="middle" x="1106.62" y="-430.5" font-family="Helvetica,sans-Serif" font-size="10.00" fill="grey"> obj</text>
<text text-anchor="middle" x="1106.62" y="-418.5" font-family="Helvetica,sans-Serif" font-size="10.00" fill="grey">parent</text>
</g>
<!-- Node7 -->
<g id="Node000007" class="node">
<title>Node7</title>
<g id="a_Node000007"><a xlink:href="../../db/d06/class_param3.html" target="_top" xlink:title=" ">
<polygon fill="white" stroke="#666666" points="503,-592 453.25,-592 453.25,-572 503,-572 503,-592"/>
<text text-anchor="middle" x="478.12" y="-578.5" font-family="Helvetica,sans-Serif" font-size="10.00">Param3</text>
</a>
</g>
</g>
<!-- Node7&#45;&gt;Node1 -->
<g id="edge27_Node000001_Node000007" class="edge">
<title>Node7&#45;&gt;Node1</title>
<g id="a_edge27_Node000001_Node000007"><a xlink:title=" ">
<path fill="none" stroke="#9a32cd" stroke-dasharray="5,2" d="M442.46,-569.03C433.64,-565.08 424.58,-560.09 417.12,-554 341.08,-491.92 328.54,-463.9 289.12,-374 227.83,-234.21 280.76,-177.18 218.12,-38 215.25,-31.62 210.67,-25.28 206.63,-20.36"/>
<polygon fill="#9a32cd" stroke="#9a32cd" points="441,-572.21 451.58,-572.77 443.66,-565.74 441,-572.21"/>
</a>
</g>
<text text-anchor="middle" x="355.12" y="-364.5" font-family="Helvetica,sans-Serif" font-size="10.00" fill="grey"> BAD_WEATHER</text>
<text text-anchor="middle" x="355.12" y="-352.5" font-family="Helvetica,sans-Serif" font-size="10.00" fill="grey">BAD_WEATHER_CHANCE</text>
<text text-anchor="middle" x="355.12" y="-340.5" font-family="Helvetica,sans-Serif" font-size="10.00" fill="grey">CLEAR_WEATHER</text>
<text text-anchor="middle" x="355.12" y="-328.5" font-family="Helvetica,sans-Serif" font-size="10.00" fill="grey">CLEAR_WEATHER_CHANCE</text>
<text text-anchor="middle" x="355.12" y="-316.5" font-family="Helvetica,sans-Serif" font-size="10.00" fill="grey">CLOUDY_WEATHER</text>
<text text-anchor="middle" x="355.12" y="-304.5" font-family="Helvetica,sans-Serif" font-size="10.00" fill="grey">OVERCAST_MAX_TIME</text>
<text text-anchor="middle" x="355.12" y="-292.5" font-family="Helvetica,sans-Serif" font-size="10.00" fill="grey">OVERCAST_MIN_TIME</text>
<text text-anchor="middle" x="355.12" y="-280.5" font-family="Helvetica,sans-Serif" font-size="10.00" fill="grey">RAIN_TIME_MAX</text>
<text text-anchor="middle" x="355.12" y="-268.5" font-family="Helvetica,sans-Serif" font-size="10.00" fill="grey">RAIN_TIME_MIN</text>
<text text-anchor="middle" x="355.12" y="-256.5" font-family="Helvetica,sans-Serif" font-size="10.00" fill="grey">m_badWeatherChance</text>
<text text-anchor="middle" x="355.12" y="-244.5" font-family="Helvetica,sans-Serif" font-size="10.00" fill="grey">...</text>
</g>
<!-- Node7&#45;&gt;Node5 -->
<g id="edge7_Node000005_Node000007" class="edge">
<title>Node7&#45;&gt;Node5</title>
<g id="a_edge7_Node000005_Node000007"><a xlink:title=" ">
<path fill="none" stroke="#9a32cd" stroke-dasharray="5,2" d="M463.84,-562.66C439.19,-528.65 393.44,-453.65 416.87,-392 448.55,-308.64 473.3,-287.28 550.12,-242 585.51,-221.14 632.12,-212.7 665.15,-209.29"/>
<polygon fill="#9a32cd" stroke="#9a32cd" points="461.01,-564.72 469.81,-570.63 466.61,-560.53 461.01,-564.72"/>
</a>
</g>
<text text-anchor="middle" x="475.25" y="-454.5" font-family="Helvetica,sans-Serif" font-size="10.00" fill="grey"> NO_SORTING</text>
<text text-anchor="middle" x="475.25" y="-442.5" font-family="Helvetica,sans-Serif" font-size="10.00" fill="grey">geomLevel</text>
<text text-anchor="middle" x="475.25" y="-430.5" font-family="Helvetica,sans-Serif" font-size="10.00" fill="grey">hierLevel</text>
<text text-anchor="start" x="417.12" y="-418.5" font-family="Helvetica,sans-Serif" font-size="10.00" fill="grey">m_CurrentSettingAlternate</text>
<text text-anchor="middle" x="475.25" y="-406.5" font-family="Helvetica,sans-Serif" font-size="10.00" fill="grey">KeyIndex</text>
<text text-anchor="middle" x="475.25" y="-394.5" font-family="Helvetica,sans-Serif" font-size="10.00" fill="grey">m_CurrentSettingKeyIndex</text>
</g>
<!-- Node7&#45;&gt;Node8 -->
<g id="edge10_Node000008_Node000007" class="edge">
<title>Node7&#45;&gt;Node8</title>
<g id="a_edge10_Node000008_Node000007"><a xlink:title=" ">
<path fill="none" stroke="#9a32cd" stroke-dasharray="5,2" d="M514.51,-580.99C544.39,-579.42 586.75,-573.48 618.12,-554 652.28,-532.8 637.5,-501.1 672.87,-482 723.49,-454.67 879.13,-488.62 931.12,-464 942.9,-458.42 952.58,-446.65 958.34,-438.3"/>
<polygon fill="#9a32cd" stroke="#9a32cd" points="514.7,-577.48 504.84,-581.35 514.96,-584.48 514.7,-577.48"/>
</a>
</g>
<text text-anchor="middle" x="731.25" y="-544.5" font-family="Helvetica,sans-Serif" font-size="10.00" fill="grey"> NO_SORTING</text>
<text text-anchor="middle" x="731.25" y="-532.5" font-family="Helvetica,sans-Serif" font-size="10.00" fill="grey">geomLevel</text>
<text text-anchor="middle" x="731.25" y="-520.5" font-family="Helvetica,sans-Serif" font-size="10.00" fill="grey">hierLevel</text>
<text text-anchor="start" x="673.12" y="-508.5" font-family="Helvetica,sans-Serif" font-size="10.00" fill="grey">m_CurrentSettingAlternate</text>
<text text-anchor="middle" x="731.25" y="-496.5" font-family="Helvetica,sans-Serif" font-size="10.00" fill="grey">KeyIndex</text>
<text text-anchor="middle" x="731.25" y="-484.5" font-family="Helvetica,sans-Serif" font-size="10.00" fill="grey">m_CurrentSettingKeyIndex</text>
</g>
<!-- Node7&#45;&gt;Node12 -->
<g id="edge18_Node000012_Node000007" class="edge">
<title>Node7&#45;&gt;Node12</title>
<g id="a_edge18_Node000012_Node000007"><a xlink:title=" ">
<path fill="none" stroke="#9a32cd" stroke-dasharray="5,2" d="M497.65,-564.05C520.93,-542.86 559.52,-504.41 582.12,-464 598.44,-434.83 585.93,-420.21 603.87,-392 607.22,-386.73 765.44,-244.58 771.12,-242 812.8,-223.03 942.03,-213.2 1010.51,-209.21"/>
<polygon fill="#9a32cd" stroke="#9a32cd" points="495.52,-561.27 490.39,-570.54 500.18,-566.49 495.52,-561.27"/>
</a>
</g>
<text text-anchor="middle" x="662.25" y="-454.5" font-family="Helvetica,sans-Serif" font-size="10.00" fill="grey"> NO_SORTING</text>
<text text-anchor="middle" x="662.25" y="-442.5" font-family="Helvetica,sans-Serif" font-size="10.00" fill="grey">geomLevel</text>
<text text-anchor="middle" x="662.25" y="-430.5" font-family="Helvetica,sans-Serif" font-size="10.00" fill="grey">hierLevel</text>
<text text-anchor="start" x="604.12" y="-418.5" font-family="Helvetica,sans-Serif" font-size="10.00" fill="grey">m_CurrentSettingAlternate</text>
<text text-anchor="middle" x="662.25" y="-406.5" font-family="Helvetica,sans-Serif" font-size="10.00" fill="grey">KeyIndex</text>
<text text-anchor="middle" x="662.25" y="-394.5" font-family="Helvetica,sans-Serif" font-size="10.00" fill="grey">m_CurrentSettingKeyIndex</text>
</g>
<!-- Node8&#45;&gt;Node5 -->
<g id="edge8_Node000005_Node000008" class="edge">
<title>Node8&#45;&gt;Node5</title>
<g id="a_edge8_Node000005_Node000008"><a xlink:title=" ">
<path fill="none" stroke="#9a32cd" stroke-dasharray="5,2" d="M949.11,-409.11C943.76,-403.29 937.48,-397.04 931.12,-392 918.64,-382.1 909.23,-387.07 900.12,-374 866.07,-325.14 918.61,-284.72 877.12,-242 859.44,-223.79 791.69,-214.43 746.96,-210.13"/>
<polygon fill="#9a32cd" stroke="#9a32cd" points="946.4,-411.33 955.63,-416.53 951.66,-406.71 946.4,-411.33"/>
</a>
</g>
<text text-anchor="middle" x="921.12" y="-304.5" font-family="Helvetica,sans-Serif" font-size="10.00" fill="grey"> proxyInfo</text>
</g>
<!-- Node8&#45;&gt;Node8 -->
<g id="edge11_Node000008_Node000008" class="edge">
<title>Node8&#45;&gt;Node8</title>
<g id="a_edge11_Node000008_Node000008"><a xlink:title=" ">
<path fill="none" stroke="#9a32cd" stroke-dasharray="5,2" d="M981.95,-444.07C991.87,-447.07 1001,-441.71 1001,-428 1001,-409.72 984.77,-406.29 972.09,-417.72"/>
<polygon fill="#9a32cd" stroke="#9a32cd" points="983.79,-441.09 973.39,-439.05 980.25,-447.13 983.79,-441.09"/>
</a>
</g>
<text text-anchor="middle" x="1022" y="-424.5" font-family="Helvetica,sans-Serif" font-size="10.00" fill="grey"> proxyInfo</text>
</g>
<!-- Node8&#45;&gt;Node12 -->
<g id="edge19_Node000012_Node000008" class="edge">
<title>Node8&#45;&gt;Node12</title>
<g id="a_edge19_Node000012_Node000008"><a xlink:title=" ">
<path fill="none" stroke="#9a32cd" stroke-dasharray="5,2" d="M960.81,-406.82C955.96,-370.37 950.97,-292.62 986.12,-242 994.45,-230 1008.18,-221.85 1021.13,-216.46"/>
<polygon fill="#9a32cd" stroke="#9a32cd" points="957.3,-407.01 962.23,-416.39 964.22,-405.98 957.3,-407.01"/>
</a>
</g>
<text text-anchor="middle" x="1007.12" y="-304.5" font-family="Helvetica,sans-Serif" font-size="10.00" fill="grey"> proxyInfo</text>
</g>
<!-- Node9 -->
<g id="Node000009" class="node">
<title>Node9</title>
<g id="a_Node000009"><a xlink:href="../../d4/d04/class_class.html" target="_top" xlink:title="Super root of all classes in Enforce script.">
<polygon fill="white" stroke="#666666" points="1276.5,-592 1235.75,-592 1235.75,-572 1276.5,-572 1276.5,-592"/>
<text text-anchor="middle" x="1256.12" y="-578.5" font-family="Helvetica,sans-Serif" font-size="10.00">Class</text>
</a>
</g>
</g>
<!-- Node9&#45;&gt;Node5 -->
<g id="edge24_Node000005_Node000009" class="edge">
<title>Node9&#45;&gt;Node5</title>
<g id="a_edge24_Node000005_Node000009"><a xlink:title=" ">
<path fill="none" stroke="#9a32cd" stroke-dasharray="5,2" d="M1259.49,-560.45C1261.89,-538.15 1261.8,-502.91 1242.12,-482 1214.69,-452.85 1185.33,-488.76 1153.87,-464 1126.1,-442.14 1148.76,-412.71 1120.12,-392 1065.71,-352.66 1019.68,-419.3 970.12,-374 925.86,-333.53 985.82,-283.08 942.12,-242 914.66,-216.18 806.96,-209.38 747,-207.61"/>
<polygon fill="#9a32cd" stroke="#9a32cd" points="1256.06,-559.74 1258.17,-570.12 1262.99,-560.68 1256.06,-559.74"/>
</a>
</g>
<text text-anchor="middle" x="1179.75" y="-424.5" font-family="Helvetica,sans-Serif" font-size="10.00" fill="grey"> m_Instance</text>
</g>
<!-- Node9&#45;&gt;Node8 -->
<g id="edge12_Node000008_Node000009" class="edge">
<title>Node9&#45;&gt;Node8</title>
<g id="a_edge12_Node000008_Node000009"><a xlink:title=" ">
<path fill="none" stroke="#9a32cd" stroke-dasharray="5,2" d="M1224.63,-571.36C1212.88,-567.01 1199.77,-561.21 1188.87,-554 1151.19,-529.07 1155.89,-505.2 1117.12,-482 1093.23,-467.7 1083.5,-472.91 1057.12,-464 1031.3,-455.28 1001.92,-443.99 983.22,-436.63"/>
<polygon fill="#9a32cd" stroke="#9a32cd" points="1223.33,-574.61 1233.93,-574.59 1225.63,-568 1223.33,-574.61"/>
</a>
</g>
<text text-anchor="middle" x="1214.75" y="-514.5" font-family="Helvetica,sans-Serif" font-size="10.00" fill="grey"> m_Instance</text>
</g>
<!-- Node9&#45;&gt;Node12 -->
<g id="edge20_Node000012_Node000009" class="edge">
<title>Node9&#45;&gt;Node12</title>
<g id="a_edge20_Node000012_Node000009"><a xlink:title=" ">
<path fill="none" stroke="#9a32cd" stroke-dasharray="5,2" d="M1267.49,-561.73C1268.57,-559.2 1269.49,-556.58 1270.12,-554 1277.7,-522.91 1272.93,-513.88 1270.12,-482 1260.26,-370.14 1276.16,-315.34 1191.12,-242 1165.28,-219.72 1127.11,-211.31 1097.62,-208.29"/>
<polygon fill="#9a32cd" stroke="#9a32cd" points="1264.39,-560.11 1262.91,-570.6 1270.61,-563.32 1264.39,-560.11"/>
</a>
</g>
<text text-anchor="middle" x="1294.75" y="-424.5" font-family="Helvetica,sans-Serif" font-size="10.00" fill="grey"> m_Instance</text>
</g>
<!-- Node10 -->
<g id="Node000010" class="node">
<title>Node10</title>
<g id="a_Node000010"><a xlink:href="../../d5/d02/classstring.html" target="_top" xlink:title=" ">
<polygon fill="white" stroke="#666666" points="1125.12,-592 1085.12,-592 1085.12,-572 1125.12,-572 1125.12,-592"/>
<text text-anchor="middle" x="1105.12" y="-578.5" font-family="Helvetica,sans-Serif" font-size="10.00">string</text>
</a>
</g>
</g>
<!-- Node10&#45;&gt;Node5 -->
<g id="edge25_Node000005_Node000010" class="edge">
<title>Node10&#45;&gt;Node5</title>
<g id="a_edge25_Node000005_Node000010"><a xlink:title=" ">
<path fill="none" stroke="#9a32cd" stroke-dasharray="5,2" d="M1073.52,-578.02C1036.62,-574.05 978.31,-566.08 960.12,-554 920.23,-527.5 923.53,-506.19 900.87,-464 884.41,-433.35 886.46,-422.72 870.12,-392 832.84,-321.91 831.8,-295.48 773.12,-242 761,-230.95 744.74,-222.35 731.28,-216.43"/>
<polygon fill="#9a32cd" stroke="#9a32cd" points="1072.85,-581.47 1083.16,-579.02 1073.57,-574.51 1072.85,-581.47"/>
</a>
</g>
<text text-anchor="middle" x="917.75" y="-424.5" font-family="Helvetica,sans-Serif" font-size="10.00" fill="grey"> m_Test</text>
</g>
<!-- Node10&#45;&gt;Node8 -->
<g id="edge13_Node000008_Node000010" class="edge">
<title>Node10&#45;&gt;Node8</title>
<g id="a_edge13_Node000008_Node000010"><a xlink:title=" ">
<path fill="none" stroke="#9a32cd" stroke-dasharray="5,2" d="M1089.25,-563.89C1059.37,-531.68 995.68,-463.02 972.65,-438.2"/>
<polygon fill="#9a32cd" stroke="#9a32cd" points="1086.33,-565.89 1095.69,-570.84 1091.46,-561.13 1086.33,-565.89"/>
</a>
</g>
<text text-anchor="middle" x="1095.75" y="-514.5" font-family="Helvetica,sans-Serif" font-size="10.00" fill="grey"> m_Test</text>
</g>
<!-- Node10&#45;&gt;Node10 -->
<g id="edge14_Node000010_Node000010" class="edge">
<title>Node10&#45;&gt;Node10</title>
<g id="a_edge14_Node000010_Node000010"><a xlink:title=" ">
<path fill="none" stroke="#9a32cd" stroke-dasharray="5,2" d="M1130.89,-593.91C1137.84,-593.28 1143.12,-589.31 1143.12,-582 1143.12,-571.12 1131.42,-567.64 1119.94,-571.55"/>
<polygon fill="#9a32cd" stroke="#9a32cd" points="1131.82,-590.5 1121.44,-592.65 1130.89,-597.44 1131.82,-590.5"/>
</a>
</g>
<text text-anchor="middle" x="1158.87" y="-578.5" font-family="Helvetica,sans-Serif" font-size="10.00" fill="grey"> Empty</text>
</g>
<!-- Node10&#45;&gt;Node12 -->
<g id="edge21_Node000012_Node000010" class="edge">
<title>Node10&#45;&gt;Node12</title>
<g id="a_edge21_Node000012_Node000010"><a xlink:title=" ">
<path fill="none" stroke="#9a32cd" stroke-dasharray="5,2" d="M1136.5,-577.75C1166.06,-573.96 1207.23,-566.55 1217.12,-554 1236.92,-528.86 1220.28,-513.84 1217.12,-482 1206.16,-371.3 1223.83,-321.59 1146.12,-242 1133.11,-228.67 1114.5,-220.35 1097.42,-215.18"/>
<polygon fill="#9a32cd" stroke="#9a32cd" points="1136.46,-574.22 1126.95,-578.89 1137.29,-581.18 1136.46,-574.22"/>
</a>
</g>
<text text-anchor="middle" x="1232.75" y="-424.5" font-family="Helvetica,sans-Serif" font-size="10.00" fill="grey"> m_Test</text>
</g>
<!-- Node11 -->
<g id="Node000011" class="node">
<title>Node11</title>
<g id="a_Node000011"><a xlink:href="../../dd/d0a/class_widget.html" target="_top" xlink:title=" ">
<polygon fill="white" stroke="#666666" points="666.5,-592 619.75,-592 619.75,-572 666.5,-572 666.5,-592"/>
<text text-anchor="middle" x="643.12" y="-578.5" font-family="Helvetica,sans-Serif" font-size="10.00">Widget</text>
</a>
</g>
</g>
<!-- Node11&#45;&gt;Node5 -->
<g id="edge26_Node000005_Node000011" class="edge">
<title>Node11&#45;&gt;Node5</title>
<g id="a_edge26_Node000005_Node000011"><a xlink:title=" ">
<path fill="none" stroke="#9a32cd" stroke-dasharray="5,2" d="M622.42,-564.4C598.56,-543.79 560.67,-506.18 545.37,-464 534.46,-433.92 534.17,-421.97 545.37,-392 575.91,-310.29 660.62,-240.81 693.16,-216.37"/>
<polygon fill="#9a32cd" stroke="#9a32cd" points="620.03,-566.96 629.94,-570.7 624.53,-561.59 620.03,-566.96"/>
</a>
</g>
<text text-anchor="middle" x="564.5" y="-424.5" font-family="Helvetica,sans-Serif" font-size="10.00" fill="grey"> m_Root</text>
</g>
<!-- Node11&#45;&gt;Node8 -->
<g id="edge15_Node000008_Node000011" class="edge">
<title>Node11&#45;&gt;Node8</title>
<g id="a_edge15_Node000008_Node000011"><a xlink:title=" ">
<path fill="none" stroke="#9a32cd" stroke-dasharray="5,2" d="M677.91,-578.68C709.02,-575.7 755.4,-568.98 793.12,-554 861.18,-526.98 874.95,-510.97 931.12,-464 940.6,-456.07 950.15,-445.61 956.52,-438.2"/>
<polygon fill="#9a32cd" stroke="#9a32cd" points="677.95,-575.17 668.29,-579.52 678.56,-582.14 677.95,-575.17"/>
</a>
</g>
<text text-anchor="middle" x="927.5" y="-514.5" font-family="Helvetica,sans-Serif" font-size="10.00" fill="grey"> m_Root</text>
</g>
<!-- Node11&#45;&gt;Node12 -->
<g id="edge22_Node000012_Node000011" class="edge">
<title>Node11&#45;&gt;Node12</title>
<g id="a_edge22_Node000012_Node000011"><a xlink:title=" ">
<path fill="none" stroke="#9a32cd" stroke-dasharray="5,2" d="M639.96,-560.37C637.81,-538.24 638.18,-503.41 657.12,-482 677.56,-458.91 699.9,-483.08 724.12,-464 752.76,-441.45 743.85,-422.77 763.37,-392 807.63,-322.25 803.36,-286.23 873.12,-242 914.75,-215.61 971.79,-208.3 1010.64,-206.67"/>
<polygon fill="#9a32cd" stroke="#9a32cd" points="636.48,-560.75 641.21,-570.23 643.43,-559.87 636.48,-560.75"/>
</a>
</g>
<text text-anchor="middle" x="781.5" y="-424.5" font-family="Helvetica,sans-Serif" font-size="10.00" fill="grey"> m_Root</text>
</g>
<!-- Node12&#45;&gt;Node8 -->
<g id="edge16_Node000008_Node000012" class="edge">
<title>Node12&#45;&gt;Node8</title>
<g id="a_edge16_Node000008_Node000012"><a xlink:title=" ">
<path fill="none" stroke="#9a32cd" stroke-dasharray="5,2" d="M1053.33,-227.81C1051.54,-266.89 1046.15,-349.49 1032.12,-374 1020.82,-393.75 998.97,-408.73 983.08,-417.64"/>
<polygon fill="#9a32cd" stroke="#9a32cd" points="1056.83,-228.03 1053.75,-217.89 1049.83,-227.74 1056.83,-228.03"/>
</a>
</g>
<text text-anchor="middle" x="1083.62" y="-304.5" font-family="Helvetica,sans-Serif" font-size="10.00" fill="grey"> m_Subgroups</text>
</g>
<!-- Node12&#45;&gt;Node12 -->
<g id="edge23_Node000012_Node000012" class="edge">
<title>Node12&#45;&gt;Node12</title>
<g id="a_edge23_Node000012_Node000012"><a xlink:title=" ">
<path fill="none" stroke="#9a32cd" stroke-dasharray="5,2" d="M1075.66,-221.8C1094.87,-229.33 1115.37,-224.07 1115.37,-206 1115.37,-184.68 1086.84,-181.19 1065.55,-195.51"/>
<polygon fill="#9a32cd" stroke="#9a32cd" points="1077.37,-218.74 1066.89,-217.2 1074.12,-224.94 1077.37,-218.74"/>
</a>
</g>
<text text-anchor="middle" x="1146.87" y="-202.5" font-family="Helvetica,sans-Serif" font-size="10.00" fill="grey"> m_Subgroups</text>
</g>
</g>
</svg>

<g id="navigator" transform="translate(0 0)" fill="#404254">
  <rect fill="#f2f5e9" fill-opacity="0.5" stroke="#606060" stroke-width=".5" x="0" y="0" width="60" height="60"/>
  <use id="zoomplus" xlink:href="#zoomPlus" x="17" y="9" onmousedown="handleZoom(evt,'in')"/>
  <use id="zoomminus" xlink:href="#zoomMin" x="42" y="9" onmousedown="handleZoom(evt,'out')"/>
  <use id="reset" xlink:href="#resetDef" x="30" y="36" onmousedown="handleReset()"/>
   <use id="arrowup" xlink:href="#arrowUp" x="0" y="0" onmousedown="handlePan(0,-1)"/>
  <use id="arrowright" xlink:href="#arrowRight" x="0" y="0" onmousedown="handlePan(1,0)"/>
  <use id="arrowdown" xlink:href="#arrowDown" x="0" y="0" onmousedown="handlePan(0,1)"/>
  <use id="arrowleft" xlink:href="#arrowLeft" x="0" y="0" onmousedown="handlePan(-1,0)"/>
</g>
<svg viewBox="0 0 15 15" width="100%" height="30px" preserveAspectRatio="xMaxYMin meet">
 <g id="arrow_out" transform="scale(0.3 0.3)">
  <a xlink:href="class_world_data__coll__graph_org.svg" target="_base">
   <rect id="button" ry="5" rx="5" y="6" x="6" height="38" width="38"
        fill="#f2f5e9" fill-opacity="0.5" stroke="#606060" stroke-width="1.0"/>
   <path id="arrow"
     d="M 11.500037,31.436501 C 11.940474,20.09759 22.043105,11.32322 32.158766,21.979434 L 37.068811,17.246167 C 37.068811,17.246167 37.088388,32 37.088388,32 L 22.160133,31.978069 C 22.160133,31.978069 26.997745,27.140456 26.997745,27.140456 C 18.528582,18.264221 13.291696,25.230495 11.500037,31.436501 z"
     style="fill:#404040;"/>
  </a>
 </g>
</svg>

<style type='text/css'>
<![CDATA[
[data-mouse-over-selected='false'] { opacity: 0.7; }
[data-mouse-over-selected='true']  { opacity: 1.0; }
]]>
</style>
<script type="application/ecmascript"><![CDATA[
document.addEventListener('DOMContentLoaded', (event) => {
  highlightEdges();
  highlightAdjacentNodes();
});
]]></script>
</svg>
