<?xml version="1.0" encoding="UTF-8" standalone="no"?>
<!DOCTYPE svg PUBLIC "-//W3C//DTD SVG 1.1//EN"
 "http://www.w3.org/Graphics/SVG/1.1/DTD/svg11.dtd">
<!-- Generated by graphviz version 11.0.0 (20240428.1522)
 -->
<!-- Title: InjuryHandlerThresholds Pages: 1 -->
<svg width="158pt" height="148pt"
 viewBox="0.00 0.00 157.75 148.00" xmlns="http://www.w3.org/2000/svg" xmlns:xlink="http://www.w3.org/1999/xlink">
<g id="graph0" class="graph" transform="scale(1 1) rotate(0) translate(4 144)">
<title>InjuryHandlerThresholds</title>
<!-- Node1 -->
<g id="Node000001" class="node">
<title>Node1</title>
<g id="a_Node000001"><a xlink:title=" ">
<polygon fill="#999999" stroke="#666666" points="119.5,-20 0,-20 0,0 119.5,0 119.5,-20"/>
<text text-anchor="middle" x="59.75" y="-6.5" font-family="Helvetica,sans-Serif" font-size="10.00">InjuryHandlerThresholds</text>
</a>
</g>
</g>
<!-- Node2 -->
<g id="Node000002" class="node">
<title>Node2</title>
<g id="a_Node000002"><a xlink:href="../../d4/d03/classfloat.html" target="_top" xlink:title=" ">
<polygon fill="white" stroke="#666666" points="76.75,-132 42.75,-132 42.75,-112 76.75,-112 76.75,-132"/>
<text text-anchor="middle" x="59.75" y="-118.5" font-family="Helvetica,sans-Serif" font-size="10.00">float</text>
</a>
</g>
</g>
<!-- Node2&#45;&gt;Node1 -->
<g id="edge1_Node000001_Node000002" class="edge">
<title>Node2&#45;&gt;Node1</title>
<g id="a_edge1_Node000001_Node000002"><a xlink:title=" ">
<path fill="none" stroke="#9a32cd" stroke-dasharray="5,2" d="M59.75,-100.31C59.75,-76.36 59.75,-37.95 59.75,-20.35"/>
<polygon fill="#9a32cd" stroke="#9a32cd" points="56.25,-100.11 59.75,-110.11 63.25,-100.11 56.25,-100.11"/>
</a>
</g>
<text text-anchor="middle" x="104.75" y="-76.5" font-family="Helvetica,sans-Serif" font-size="10.00" fill="grey"> BADLY_DAMAGED</text>
<text text-anchor="middle" x="104.75" y="-64.5" font-family="Helvetica,sans-Serif" font-size="10.00" fill="grey">DAMAGED</text>
<text text-anchor="middle" x="104.75" y="-52.5" font-family="Helvetica,sans-Serif" font-size="10.00" fill="grey">RUINED</text>
<text text-anchor="middle" x="104.75" y="-40.5" font-family="Helvetica,sans-Serif" font-size="10.00" fill="grey">WORN</text>
</g>
<!-- Node2&#45;&gt;Node2 -->
<g id="edge2_Node000002_Node000002" class="edge">
<title>Node2&#45;&gt;Node2</title>
<g id="a_edge2_Node000002_Node000002"><a xlink:title=" ">
<path fill="none" stroke="#9a32cd" stroke-dasharray="5,2" d="M87.09,-132.44C91.63,-130.97 94.75,-127.49 94.75,-122 94.75,-112.51 85.41,-109.02 75.59,-111.54"/>
<polygon fill="#9a32cd" stroke="#9a32cd" points="87.1,-128.94 77.1,-132.45 87.11,-135.94 87.1,-128.94"/>
</a>
</g>
<text text-anchor="middle" x="116.88" y="-130.5" font-family="Helvetica,sans-Serif" font-size="10.00" fill="grey"> LOWEST</text>
<text text-anchor="middle" x="116.88" y="-118.5" font-family="Helvetica,sans-Serif" font-size="10.00" fill="grey">MAX</text>
<text text-anchor="middle" x="116.88" y="-106.5" font-family="Helvetica,sans-Serif" font-size="10.00" fill="grey">MIN</text>
</g>
</g>
</svg>
