<?xml version="1.0" encoding="UTF-8" standalone="no"?>
<!DOCTYPE svg PUBLIC "-//W3C//DTD SVG 1.1//EN"
 "http://www.w3.org/Graphics/SVG/1.1/DTD/svg11.dtd">
<!-- Generated by graphviz version 11.0.0 (20240428.1522)
 -->
<!-- Title: MimeMask_Female Pages: 1 -->
<svg width="487pt" height="416pt"
 viewBox="0.00 0.00 486.88 416.00" xmlns="http://www.w3.org/2000/svg" xmlns:xlink="http://www.w3.org/1999/xlink">

<svg id="main" version="1.1" xmlns="http://www.w3.org/2000/svg" xmlns:xlink="http://www.w3.org/1999/xlink" xml:space="preserve" onload="init(evt)">
<style type="text/css"><![CDATA[
.node, .edge {opacity: 0.7;}
.node.selected, .edge.selected {opacity: 1;}
.edge:hover path { stroke: red; }
.edge:hover polygon { stroke: red; fill: red; }
]]></style>
<script type="application/ecmascript" xlink:href="../../svg.min.js"/>
<svg id="graph" class="graph">
<g id="graph0" class="graph" transform="scale(1 1) rotate(0) translate(4 412)">
<title>MimeMask_Female</title>
<!-- Node1 -->
<g id="Node000001" class="node">
<title>Node1</title>
<g id="a_Node000001"><a xlink:title=" ">
<polygon fill="#999999" stroke="#666666" points="295.62,-20 194.12,-20 194.12,0 295.62,0 295.62,-20"/>
<text text-anchor="middle" x="244.88" y="-6.5" font-family="Helvetica,sans-Serif" font-size="10.00">MimeMask_Female</text>
</a>
</g>
</g>
<!-- Node2 -->
<g id="Node000002" class="node">
<title>Node2</title>
<g id="a_Node000002"><a xlink:href="../../db/d0f/class_mime_mask___male.html" target="_top" xlink:title=" ">
<polygon fill="white" stroke="#666666" points="290,-76 199.75,-76 199.75,-56 290,-56 290,-76"/>
<text text-anchor="middle" x="244.88" y="-62.5" font-family="Helvetica,sans-Serif" font-size="10.00">MimeMask_Male</text>
</a>
</g>
</g>
<!-- Node2&#45;&gt;Node1 -->
<g id="edge1_Node000001_Node000002" class="edge">
<title>Node2&#45;&gt;Node1</title>
<g id="a_edge1_Node000001_Node000002"><a xlink:title=" ">
<path fill="none" stroke="#8b1a1a" d="M244.88,-44.13C244.88,-35.9 244.88,-26.85 244.88,-20.3"/>
<polygon fill="#8b1a1a" stroke="#8b1a1a" points="241.38,-44.08 244.88,-54.08 248.38,-44.08 241.38,-44.08"/>
</a>
</g>
</g>
<!-- Node3 -->
<g id="Node000003" class="node">
<title>Node3</title>
<g id="a_Node000003"><a xlink:href="../../d6/d01/class_mask___base.html" target="_top" xlink:title="gas mask base">
<polygon fill="white" stroke="#666666" points="278.75,-132 211,-132 211,-112 278.75,-112 278.75,-132"/>
<text text-anchor="middle" x="244.88" y="-118.5" font-family="Helvetica,sans-Serif" font-size="10.00">Mask_Base</text>
</a>
</g>
</g>
<!-- Node3&#45;&gt;Node2 -->
<g id="edge2_Node000002_Node000003" class="edge">
<title>Node3&#45;&gt;Node2</title>
<g id="a_edge2_Node000002_Node000003"><a xlink:title=" ">
<path fill="none" stroke="#8b1a1a" d="M244.88,-100.13C244.88,-91.9 244.88,-82.85 244.88,-76.3"/>
<polygon fill="#8b1a1a" stroke="#8b1a1a" points="241.38,-100.08 244.88,-110.08 248.38,-100.08 241.38,-100.08"/>
</a>
</g>
</g>
<!-- Node4 -->
<g id="Node000004" class="node">
<title>Node4</title>
<g id="a_Node000004"><a xlink:href="../../d8/d04/class_clothing.html" target="_top" xlink:title=" ">
<polygon fill="white" stroke="#666666" points="214.5,-208 163.25,-208 163.25,-188 214.5,-188 214.5,-208"/>
<text text-anchor="middle" x="188.88" y="-194.5" font-family="Helvetica,sans-Serif" font-size="10.00">Clothing</text>
</a>
</g>
</g>
<!-- Node4&#45;&gt;Node3 -->
<g id="edge3_Node000003_Node000004" class="edge">
<title>Node4&#45;&gt;Node3</title>
<g id="a_edge3_Node000003_Node000004"><a xlink:title=" ">
<path fill="none" stroke="#8b1a1a" d="M202.63,-178.82C213.86,-163.99 229.25,-143.65 238.02,-132.06"/>
<polygon fill="#8b1a1a" stroke="#8b1a1a" points="200.12,-176.33 196.88,-186.42 205.71,-180.56 200.12,-176.33"/>
</a>
</g>
</g>
<!-- Node5 -->
<g id="Node000005" class="node">
<title>Node5</title>
<g id="a_Node000005"><a xlink:href="../../db/d06/class_param3.html" target="_top" xlink:title=" ">
<polygon fill="white" stroke="#666666" points="49.75,-394 0,-394 0,-374 49.75,-374 49.75,-394"/>
<text text-anchor="middle" x="24.88" y="-380.5" font-family="Helvetica,sans-Serif" font-size="10.00">Param3</text>
</a>
</g>
</g>
<!-- Node5&#45;&gt;Node4 -->
<g id="edge4_Node000004_Node000005" class="edge">
<title>Node5&#45;&gt;Node4</title>
<g id="a_edge4_Node000004_Node000005"><a xlink:title=" ">
<path fill="none" stroke="#9a32cd" stroke-dasharray="5,2" d="M18.56,-362.77C10.12,-331.32 -0.52,-270.54 29.88,-234 46.59,-213.9 122.18,-204.57 162.83,-200.94"/>
<polygon fill="#9a32cd" stroke="#9a32cd" points="15.14,-363.53 21.28,-372.16 21.86,-361.58 15.14,-363.53"/>
</a>
</g>
<text text-anchor="middle" x="65.88" y="-290.5" font-family="Helvetica,sans-Serif" font-size="10.00" fill="grey"> GLASS_ID</text>
<text text-anchor="middle" x="65.88" y="-278.5" font-family="Helvetica,sans-Serif" font-size="10.00" fill="grey">REFLECTOR_ID</text>
</g>
<!-- Node6 -->
<g id="Node000006" class="node">
<title>Node6</title>
<g id="a_Node000006"><a xlink:href="../../d5/d02/classstring.html" target="_top" xlink:title=" ">
<polygon fill="white" stroke="#666666" points="139.88,-394 99.88,-394 99.88,-374 139.88,-374 139.88,-394"/>
<text text-anchor="middle" x="119.88" y="-380.5" font-family="Helvetica,sans-Serif" font-size="10.00">string</text>
</a>
</g>
</g>
<!-- Node6&#45;&gt;Node4 -->
<g id="edge5_Node000004_Node000006" class="edge">
<title>Node6&#45;&gt;Node4</title>
<g id="a_edge5_Node000004_Node000006"><a xlink:title=" ">
<path fill="none" stroke="#9a32cd" stroke-dasharray="5,2" d="M113.94,-362.87C106.23,-332.45 96.48,-274.09 121.12,-234 130.28,-219.11 148,-210.27 163.03,-205.2"/>
<polygon fill="#9a32cd" stroke="#9a32cd" points="110.5,-363.55 116.51,-372.27 117.25,-361.7 110.5,-363.55"/>
</a>
</g>
<text text-anchor="middle" x="179.25" y="-332.5" font-family="Helvetica,sans-Serif" font-size="10.00" fill="grey"> LIGHT_OFF_GLASS</text>
<text text-anchor="middle" x="179.25" y="-320.5" font-family="Helvetica,sans-Serif" font-size="10.00" fill="grey">LIGHT_OFF_REFLECTOR</text>
<text text-anchor="middle" x="179.25" y="-308.5" font-family="Helvetica,sans-Serif" font-size="10.00" fill="grey">LIGHT_ON_GLASS</text>
<text text-anchor="middle" x="179.25" y="-296.5" font-family="Helvetica,sans-Serif" font-size="10.00" fill="grey">LIGHT_ON_GLASS_RED</text>
<text text-anchor="middle" x="179.25" y="-284.5" font-family="Helvetica,sans-Serif" font-size="10.00" fill="grey">LIGHT_ON_REFLECTOR</text>
<text text-anchor="start" x="121.88" y="-272.5" font-family="Helvetica,sans-Serif" font-size="10.00" fill="grey">LIGHT_ON_REFLECTOR</text>
<text text-anchor="middle" x="179.25" y="-260.5" font-family="Helvetica,sans-Serif" font-size="10.00" fill="grey">_RED</text>
<text text-anchor="middle" x="179.25" y="-248.5" font-family="Helvetica,sans-Serif" font-size="10.00" fill="grey">m_OffHeadLightPoint</text>
<text text-anchor="middle" x="179.25" y="-236.5" font-family="Helvetica,sans-Serif" font-size="10.00" fill="grey">m_OffHeadLightTarget</text>
</g>
<!-- Node6&#45;&gt;Node6 -->
<g id="edge6_Node000006_Node000006" class="edge">
<title>Node6&#45;&gt;Node6</title>
<g id="a_edge6_Node000006_Node000006"><a xlink:title=" ">
<path fill="none" stroke="#9a32cd" stroke-dasharray="5,2" d="M136.68,-400.58C147.48,-404.9 157.88,-399.37 157.88,-384 157.88,-364.12 140.5,-360.71 127.34,-373.75"/>
<polygon fill="#9a32cd" stroke="#9a32cd" points="138.83,-397.81 128.59,-395.1 134.91,-403.6 138.83,-397.81"/>
</a>
</g>
<text text-anchor="middle" x="173.62" y="-380.5" font-family="Helvetica,sans-Serif" font-size="10.00" fill="grey"> Empty</text>
</g>
<!-- Node7 -->
<g id="Node000007" class="node">
<title>Node7</title>
<g id="a_Node000007"><a xlink:href="../../d7/d0c/classvector.html" target="_top" xlink:title=" ">
<polygon fill="white" stroke="#666666" points="278.62,-394 237.12,-394 237.12,-374 278.62,-374 278.62,-394"/>
<text text-anchor="middle" x="257.88" y="-380.5" font-family="Helvetica,sans-Serif" font-size="10.00">vector</text>
</a>
</g>
</g>
<!-- Node7&#45;&gt;Node4 -->
<g id="edge7_Node000004_Node000007" class="edge">
<title>Node7&#45;&gt;Node4</title>
<g id="a_edge7_Node000004_Node000007"><a xlink:title=" ">
<path fill="none" stroke="#9a32cd" stroke-dasharray="5,2" d="M256.77,-362.48C254.55,-326.85 248.6,-255.29 235.88,-234 229.3,-223 217.81,-214.35 207.84,-208.4"/>
<polygon fill="#9a32cd" stroke="#9a32cd" points="253.27,-362.53 257.34,-372.31 260.26,-362.13 253.27,-362.53"/>
</a>
</g>
<text text-anchor="middle" x="299.5" y="-290.5" font-family="Helvetica,sans-Serif" font-size="10.00" fill="grey"> m_OnHeadLocalOri</text>
<text text-anchor="middle" x="299.5" y="-278.5" font-family="Helvetica,sans-Serif" font-size="10.00" fill="grey">m_OnHeadLocalPos</text>
</g>
<!-- Node7&#45;&gt;Node7 -->
<g id="edge8_Node000007_Node000007" class="edge">
<title>Node7&#45;&gt;Node7</title>
<g id="a_edge8_Node000007_Node000007"><a xlink:title=" ">
<path fill="none" stroke="#9a32cd" stroke-dasharray="5,2" d="M275.01,-400.58C286.03,-404.9 296.62,-399.37 296.62,-384 296.62,-364.12 278.91,-360.71 265.48,-373.75"/>
<polygon fill="#9a32cd" stroke="#9a32cd" points="277.01,-397.7 266.74,-395.09 273.14,-403.53 277.01,-397.7"/>
</a>
</g>
<text text-anchor="middle" x="313.88" y="-398.5" font-family="Helvetica,sans-Serif" font-size="10.00" fill="grey"> Aside</text>
<text text-anchor="middle" x="313.88" y="-386.5" font-family="Helvetica,sans-Serif" font-size="10.00" fill="grey">Forward</text>
<text text-anchor="middle" x="313.88" y="-374.5" font-family="Helvetica,sans-Serif" font-size="10.00" fill="grey">Up</text>
<text text-anchor="middle" x="313.88" y="-362.5" font-family="Helvetica,sans-Serif" font-size="10.00" fill="grey">Zero</text>
</g>
<!-- Node8 -->
<g id="Node000008" class="node">
<title>Node8</title>
<g id="a_Node000008"><a xlink:href="../../d8/d08/class_timer.html" target="_top" xlink:title=" ">
<polygon fill="white" stroke="#666666" points="389.88,-394 349.88,-394 349.88,-374 389.88,-374 389.88,-394"/>
<text text-anchor="middle" x="369.88" y="-380.5" font-family="Helvetica,sans-Serif" font-size="10.00">Timer</text>
</a>
</g>
</g>
<!-- Node8&#45;&gt;Node4 -->
<g id="edge9_Node000004_Node000008" class="edge">
<title>Node8&#45;&gt;Node4</title>
<g id="a_edge9_Node000004_Node000008"><a xlink:title=" ">
<path fill="none" stroke="#9a32cd" stroke-dasharray="5,2" d="M373.68,-362.6C378.38,-330.43 382.03,-268.07 347.88,-234 328.16,-214.34 250.49,-224.18 223.88,-216 217.68,-214.09 211.2,-211.23 205.54,-208.39"/>
<polygon fill="#9a32cd" stroke="#9a32cd" points="370.27,-361.75 372.08,-372.19 377.18,-362.9 370.27,-361.75"/>
</a>
</g>
<text text-anchor="middle" x="396.12" y="-284.5" font-family="Helvetica,sans-Serif" font-size="10.00" fill="grey"> m_Timer</text>
</g>
<!-- Node9 -->
<g id="Node000009" class="node">
<title>Node9</title>
<g id="a_Node000009"><a xlink:href="../../d4/d03/classfloat.html" target="_top" xlink:title=" ">
<polygon fill="white" stroke="#666666" points="266.88,-208 232.88,-208 232.88,-188 266.88,-188 266.88,-208"/>
<text text-anchor="middle" x="249.88" y="-194.5" font-family="Helvetica,sans-Serif" font-size="10.00">float</text>
</a>
</g>
</g>
<!-- Node9&#45;&gt;Node3 -->
<g id="edge10_Node000003_Node000009" class="edge">
<title>Node9&#45;&gt;Node3</title>
<g id="a_edge10_Node000003_Node000009"><a xlink:title=" ">
<path fill="none" stroke="#9a32cd" stroke-dasharray="5,2" d="M247.58,-176.19C247.13,-171.52 246.69,-166.6 246.38,-162 245.67,-151.86 245.28,-140.21 245.07,-132.31"/>
<polygon fill="#9a32cd" stroke="#9a32cd" points="244.09,-176.42 248.61,-186 251.05,-175.69 244.09,-176.42"/>
</a>
</g>
<text text-anchor="middle" x="296.12" y="-152.5" font-family="Helvetica,sans-Serif" font-size="10.00" fill="grey"> m_LowFilterEventTime</text>
</g>
<!-- Node9&#45;&gt;Node9 -->
<g id="edge11_Node000009_Node000009" class="edge">
<title>Node9&#45;&gt;Node9</title>
<g id="a_edge11_Node000009_Node000009"><a xlink:title=" ">
<path fill="none" stroke="#9a32cd" stroke-dasharray="5,2" d="M278.55,-204.95C282.35,-203.77 284.88,-201.45 284.88,-198 284.88,-191.68 276.43,-189.17 267.16,-190.45"/>
<polygon fill="#9a32cd" stroke="#9a32cd" points="278.48,-201.45 268.67,-205.47 278.84,-208.44 278.48,-201.45"/>
</a>
</g>
<text text-anchor="middle" x="307" y="-206.5" font-family="Helvetica,sans-Serif" font-size="10.00" fill="grey"> LOWEST</text>
<text text-anchor="middle" x="307" y="-194.5" font-family="Helvetica,sans-Serif" font-size="10.00" fill="grey">MAX</text>
<text text-anchor="middle" x="307" y="-182.5" font-family="Helvetica,sans-Serif" font-size="10.00" fill="grey">MIN</text>
</g>
<!-- Node10 -->
<g id="Node000010" class="node">
<title>Node10</title>
<g id="a_Node000010"><a xlink:href="../../d9/d09/classbool.html" target="_top" xlink:title=" ">
<polygon fill="white" stroke="#666666" points="385.88,-208 351.88,-208 351.88,-188 385.88,-188 385.88,-208"/>
<text text-anchor="middle" x="368.88" y="-194.5" font-family="Helvetica,sans-Serif" font-size="10.00">bool</text>
</a>
</g>
</g>
<!-- Node10&#45;&gt;Node3 -->
<g id="edge12_Node000003_Node000010" class="edge">
<title>Node10&#45;&gt;Node3</title>
<g id="a_edge12_Node000003_Node000010"><a xlink:title=" ">
<path fill="none" stroke="#9a32cd" stroke-dasharray="5,2" d="M363.71,-176.72C360.36,-167.36 355.04,-156.82 346.88,-150 327.9,-134.15 300.57,-127.51 278.98,-124.77"/>
<polygon fill="#9a32cd" stroke="#9a32cd" points="360.31,-177.58 366.55,-186.15 367.02,-175.56 360.31,-177.58"/>
</a>
</g>
<text text-anchor="middle" x="417.38" y="-152.5" font-family="Helvetica,sans-Serif" font-size="10.00" fill="grey"> m_IncomingLambdaChange</text>
</g>
</g>
</svg>
</svg>

<style type='text/css'>
<![CDATA[
[data-mouse-over-selected='false'] { opacity: 0.7; }
[data-mouse-over-selected='true']  { opacity: 1.0; }
]]>
</style>
<script type="application/ecmascript"><![CDATA[
document.addEventListener('DOMContentLoaded', (event) => {
  highlightEdges();
  highlightAdjacentNodes();
});
]]></script>
</svg>
