<?xml version="1.0" encoding="UTF-8" standalone="no"?>
<!DOCTYPE svg PUBLIC "-//W3C//DTD SVG 1.1//EN"
 "http://www.w3.org/Graphics/SVG/1.1/DTD/svg11.dtd">
<!-- Generated by graphviz version 11.0.0 (20240428.1522)
 -->
<!-- Title: ActionWashHandsItemContinuousCB Pages: 1 -->
<svg width="186pt" height="196pt"
 viewBox="0.00 0.00 186.00 196.00" xmlns="http://www.w3.org/2000/svg" xmlns:xlink="http://www.w3.org/1999/xlink">
<g id="graph0" class="graph" transform="scale(1 1) rotate(0) translate(4 192)">
<title>ActionWashHandsItemContinuousCB</title>
<!-- Node1 -->
<g id="Node000001" class="node">
<title>Node1</title>
<g id="a_Node000001"><a xlink:title=" ">
<polygon fill="#999999" stroke="#666666" points="178,-20 0,-20 0,0 178,0 178,-20"/>
<text text-anchor="middle" x="89" y="-6.5" font-family="Helvetica,sans-Serif" font-size="10.00">ActionWashHandsItemContinuousCB</text>
</a>
</g>
</g>
<!-- Node2 -->
<g id="Node000002" class="node">
<title>Node2</title>
<g id="a_Node000002"><a xlink:href="../../d0/d0c/class_action_continuous_base_c_b.html" target="_top" xlink:title=" ">
<polygon fill="white" stroke="#666666" points="153.25,-76 24.75,-76 24.75,-56 153.25,-56 153.25,-76"/>
<text text-anchor="middle" x="89" y="-62.5" font-family="Helvetica,sans-Serif" font-size="10.00">ActionContinuousBaseCB</text>
</a>
</g>
</g>
<!-- Node2&#45;&gt;Node1 -->
<g id="edge1_Node000001_Node000002" class="edge">
<title>Node2&#45;&gt;Node1</title>
<g id="a_edge1_Node000001_Node000002"><a xlink:title=" ">
<path fill="none" stroke="#8b1a1a" d="M89,-44.13C89,-35.9 89,-26.85 89,-20.3"/>
<polygon fill="#8b1a1a" stroke="#8b1a1a" points="85.5,-44.08 89,-54.08 92.5,-44.08 85.5,-44.08"/>
</a>
</g>
</g>
<!-- Node3 -->
<g id="Node000003" class="node">
<title>Node3</title>
<g id="a_Node000003"><a xlink:href="../../dd/d0f/class_action_base_c_b.html" target="_top" xlink:title=" ">
<polygon fill="white" stroke="#666666" points="128.88,-132 49.12,-132 49.12,-112 128.88,-112 128.88,-132"/>
<text text-anchor="middle" x="89" y="-118.5" font-family="Helvetica,sans-Serif" font-size="10.00">ActionBaseCB</text>
</a>
</g>
</g>
<!-- Node3&#45;&gt;Node2 -->
<g id="edge2_Node000002_Node000003" class="edge">
<title>Node3&#45;&gt;Node2</title>
<g id="a_edge2_Node000002_Node000003"><a xlink:title=" ">
<path fill="none" stroke="#8b1a1a" d="M89,-100.13C89,-91.9 89,-82.85 89,-76.3"/>
<polygon fill="#8b1a1a" stroke="#8b1a1a" points="85.5,-100.08 89,-110.08 92.5,-100.08 85.5,-100.08"/>
</a>
</g>
</g>
<!-- Node4 -->
<g id="Node000004" class="node">
<title>Node4</title>
<g id="a_Node000004"><a xlink:href="../../dc/d02/class_human_command_action_callback.html" target="_top" xlink:title=" ">
<polygon fill="white" stroke="#666666" points="167.12,-188 10.88,-188 10.88,-168 167.12,-168 167.12,-188"/>
<text text-anchor="middle" x="89" y="-174.5" font-family="Helvetica,sans-Serif" font-size="10.00">HumanCommandActionCallback</text>
</a>
</g>
</g>
<!-- Node4&#45;&gt;Node3 -->
<g id="edge3_Node000003_Node000004" class="edge">
<title>Node4&#45;&gt;Node3</title>
<g id="a_edge3_Node000003_Node000004"><a xlink:title=" ">
<path fill="none" stroke="#8b1a1a" d="M89,-156.13C89,-147.9 89,-138.85 89,-132.3"/>
<polygon fill="#8b1a1a" stroke="#8b1a1a" points="85.5,-156.08 89,-166.08 92.5,-156.08 85.5,-156.08"/>
</a>
</g>
</g>
</g>
</svg>
