<?xml version="1.0" encoding="UTF-8" standalone="no"?>
<!DOCTYPE svg PUBLIC "-//W3C//DTD SVG 1.1//EN"
 "http://www.w3.org/Graphics/SVG/1.1/DTD/svg11.dtd">
<!-- Generated by graphviz version 11.0.0 (20240428.1522)
 -->
<!-- Title: ActionDeployHuntingTrap Pages: 1 -->
<svg width="251pt" height="304pt"
 viewBox="0.00 0.00 251.38 304.00" xmlns="http://www.w3.org/2000/svg" xmlns:xlink="http://www.w3.org/1999/xlink">

<svg id="main" version="1.1" xmlns="http://www.w3.org/2000/svg" xmlns:xlink="http://www.w3.org/1999/xlink" xml:space="preserve" onload="init(evt)">
<style type="text/css"><![CDATA[
.node, .edge {opacity: 0.7;}
.node.selected, .edge.selected {opacity: 1;}
.edge:hover path { stroke: red; }
.edge:hover polygon { stroke: red; fill: red; }
]]></style>
<script type="application/ecmascript" xlink:href="../../svg.min.js"/>
<svg id="graph" class="graph">
<g id="graph0" class="graph" transform="scale(1 1) rotate(0) translate(4 300)">
<title>ActionDeployHuntingTrap</title>
<!-- Node1 -->
<g id="Node000001" class="node">
<title>Node1</title>
<g id="a_Node000001"><a xlink:title=" ">
<polygon fill="#999999" stroke="#666666" points="179.88,-20 54.38,-20 54.38,0 179.88,0 179.88,-20"/>
<text text-anchor="middle" x="117.12" y="-6.5" font-family="Helvetica,sans-Serif" font-size="10.00">ActionDeployHuntingTrap</text>
</a>
</g>
</g>
<!-- Node2 -->
<g id="Node000002" class="node">
<title>Node2</title>
<g id="a_Node000002"><a xlink:href="../../d6/d0d/class_action_deploy_base.html" target="_top" xlink:title=" ">
<polygon fill="white" stroke="#666666" points="165.25,-76 69,-76 69,-56 165.25,-56 165.25,-76"/>
<text text-anchor="middle" x="117.12" y="-62.5" font-family="Helvetica,sans-Serif" font-size="10.00">ActionDeployBase</text>
</a>
</g>
</g>
<!-- Node2&#45;&gt;Node1 -->
<g id="edge1_Node000001_Node000002" class="edge">
<title>Node2&#45;&gt;Node1</title>
<g id="a_edge1_Node000001_Node000002"><a xlink:title=" ">
<path fill="none" stroke="#8b1a1a" d="M117.12,-44.13C117.12,-35.9 117.12,-26.85 117.12,-20.3"/>
<polygon fill="#8b1a1a" stroke="#8b1a1a" points="113.63,-44.08 117.13,-54.08 120.63,-44.08 113.63,-44.08"/>
</a>
</g>
</g>
<!-- Node3 -->
<g id="Node000003" class="node">
<title>Node3</title>
<g id="a_Node000003"><a xlink:href="../../d6/d0f/class_action_continuous_base.html" target="_top" xlink:title=" ">
<polygon fill="white" stroke="#666666" points="128.62,-152 13.62,-152 13.62,-132 128.62,-132 128.62,-152"/>
<text text-anchor="middle" x="71.12" y="-138.5" font-family="Helvetica,sans-Serif" font-size="10.00">ActionContinuousBase</text>
</a>
</g>
</g>
<!-- Node3&#45;&gt;Node2 -->
<g id="edge2_Node000002_Node000003" class="edge">
<title>Node3&#45;&gt;Node2</title>
<g id="a_edge2_Node000002_Node000003"><a xlink:title=" ">
<path fill="none" stroke="#8b1a1a" d="M82.96,-121.97C92.13,-107.22 104.42,-87.43 111.49,-76.06"/>
<polygon fill="#8b1a1a" stroke="#8b1a1a" points="80.06,-120 77.75,-130.34 86,-123.7 80.06,-120"/>
</a>
</g>
</g>
<!-- Node4 -->
<g id="Node000004" class="node">
<title>Node4</title>
<g id="a_Node000004"><a xlink:href="../../d7/d04/class_animated_action_base.html" target="_top" xlink:title=" ">
<polygon fill="white" stroke="#666666" points="124.88,-216 17.38,-216 17.38,-196 124.88,-196 124.88,-216"/>
<text text-anchor="middle" x="71.12" y="-202.5" font-family="Helvetica,sans-Serif" font-size="10.00">AnimatedActionBase</text>
</a>
</g>
</g>
<!-- Node4&#45;&gt;Node3 -->
<g id="edge3_Node000003_Node000004" class="edge">
<title>Node4&#45;&gt;Node3</title>
<g id="a_edge3_Node000003_Node000004"><a xlink:title=" ">
<path fill="none" stroke="#8b1a1a" d="M71.12,-184.4C71.12,-173.46 71.12,-160.56 71.12,-152.1"/>
<polygon fill="#8b1a1a" stroke="#8b1a1a" points="67.63,-184.07 71.13,-194.07 74.63,-184.07 67.63,-184.07"/>
</a>
</g>
</g>
<!-- Node5 -->
<g id="Node000005" class="node">
<title>Node5</title>
<g id="a_Node000005"><a xlink:title=" ">
<polygon fill="white" stroke="#666666" points="66.25,-296 0,-296 0,-276 66.25,-276 66.25,-296"/>
<text text-anchor="middle" x="33.12" y="-282.5" font-family="Helvetica,sans-Serif" font-size="10.00">ActionBase</text>
</a>
</g>
</g>
<!-- Node5&#45;&gt;Node4 -->
<g id="edge4_Node000004_Node000005" class="edge">
<title>Node5&#45;&gt;Node4</title>
<g id="a_edge4_Node000004_Node000005"><a xlink:title=" ">
<path fill="none" stroke="#8b1a1a" d="M42.62,-265.51C50.29,-249.77 60.74,-228.32 66.62,-216.24"/>
<polygon fill="#8b1a1a" stroke="#8b1a1a" points="39.53,-263.86 38.3,-274.39 45.82,-266.93 39.53,-263.86"/>
</a>
</g>
</g>
<!-- Node6 -->
<g id="Node000006" class="node">
<title>Node6</title>
<g id="a_Node000006"><a xlink:href="../../db/d06/class_param3.html" target="_top" xlink:title=" ">
<polygon fill="white" stroke="#666666" points="134,-296 84.25,-296 84.25,-276 134,-276 134,-296"/>
<text text-anchor="middle" x="109.12" y="-282.5" font-family="Helvetica,sans-Serif" font-size="10.00">Param3</text>
</a>
</g>
</g>
<!-- Node6&#45;&gt;Node4 -->
<g id="edge5_Node000004_Node000006" class="edge">
<title>Node6&#45;&gt;Node4</title>
<g id="a_edge5_Node000004_Node000006"><a xlink:title=" ">
<path fill="none" stroke="#9a32cd" stroke-dasharray="5,2" d="M99.63,-265.51C91.96,-249.77 81.51,-228.32 75.63,-216.24"/>
<polygon fill="#9a32cd" stroke="#9a32cd" points="96.43,-266.93 103.95,-274.39 102.72,-263.86 96.43,-266.93"/>
</a>
</g>
<text text-anchor="middle" x="145.62" y="-248.5" font-family="Helvetica,sans-Serif" font-size="10.00" fill="grey"> m_CommandUID</text>
<text text-anchor="middle" x="145.62" y="-236.5" font-family="Helvetica,sans-Serif" font-size="10.00" fill="grey">m_CommandUIDProne</text>
</g>
<!-- Node7 -->
<g id="Node000007" class="node">
<title>Node7</title>
<g id="a_Node000007"><a xlink:href="../../d4/d03/classfloat.html" target="_top" xlink:title=" ">
<polygon fill="white" stroke="#666666" points="181.12,-152 147.12,-152 147.12,-132 181.12,-132 181.12,-152"/>
<text text-anchor="middle" x="164.12" y="-138.5" font-family="Helvetica,sans-Serif" font-size="10.00">float</text>
</a>
</g>
</g>
<!-- Node7&#45;&gt;Node2 -->
<g id="edge6_Node000002_Node000007" class="edge">
<title>Node7&#45;&gt;Node2</title>
<g id="a_edge6_Node000002_Node000007"><a xlink:title=" ">
<path fill="none" stroke="#9a32cd" stroke-dasharray="5,2" d="M152.04,-121.97C142.67,-107.22 130.1,-87.43 122.88,-76.06"/>
<polygon fill="#9a32cd" stroke="#9a32cd" points="149.05,-123.79 157.36,-130.35 154.95,-120.03 149.05,-123.79"/>
</a>
</g>
<text text-anchor="middle" x="185.88" y="-96.5" font-family="Helvetica,sans-Serif" font-size="10.00" fill="grey"> POSITION_OFFSET</text>
</g>
<!-- Node7&#45;&gt;Node7 -->
<g id="edge7_Node000007_Node000007" class="edge">
<title>Node7&#45;&gt;Node7</title>
<g id="a_edge7_Node000007_Node000007"><a xlink:title=" ">
<path fill="none" stroke="#9a32cd" stroke-dasharray="5,2" d="M192.8,-147.96C196.6,-146.95 199.12,-144.96 199.12,-142 199.12,-136.59 190.68,-134.43 181.41,-135.53"/>
<polygon fill="#9a32cd" stroke="#9a32cd" points="192.76,-144.46 182.92,-148.4 193.07,-151.45 192.76,-144.46"/>
</a>
</g>
<text text-anchor="middle" x="221.25" y="-150.5" font-family="Helvetica,sans-Serif" font-size="10.00" fill="grey"> LOWEST</text>
<text text-anchor="middle" x="221.25" y="-138.5" font-family="Helvetica,sans-Serif" font-size="10.00" fill="grey">MAX</text>
<text text-anchor="middle" x="221.25" y="-126.5" font-family="Helvetica,sans-Serif" font-size="10.00" fill="grey">MIN</text>
</g>
</g>
</svg>
</svg>

<style type='text/css'>
<![CDATA[
[data-mouse-over-selected='false'] { opacity: 0.7; }
[data-mouse-over-selected='true']  { opacity: 1.0; }
]]>
</style>
<script type="application/ecmascript"><![CDATA[
document.addEventListener('DOMContentLoaded', (event) => {
  highlightEdges();
  highlightAdjacentNodes();
});
]]></script>
</svg>
