<?xml version="1.0" encoding="UTF-8" standalone="no"?>
<!DOCTYPE svg PUBLIC "-//W3C//DTD SVG 1.1//EN"
 "http://www.w3.org/Graphics/SVG/1.1/DTD/svg11.dtd">
<!-- Generated by graphviz version 11.0.0 (20240428.1522)
 -->
<!-- Title: TreeHard_BetulaPendula Pages: 1 -->
<!--zoomable 180 -->

<svg id="main" version="1.1" xmlns="http://www.w3.org/2000/svg" xmlns:xlink="http://www.w3.org/1999/xlink" xml:space="preserve" onload="init(evt)">
<style type="text/css"><![CDATA[
.node, .edge {opacity: 0.7;}
.node.selected, .edge.selected {opacity: 1;}
.edge:hover path { stroke: red; }
.edge:hover polygon { stroke: red; fill: red; }
]]></style>

<defs>
  <circle id="rim" cx="0" cy="0" r="7"/>
  <circle id="rim2" cx="0" cy="0" r="3.5"/>
  <g id="zoomPlus">
    <use xlink:href="#rim" fill="#404040"><set attributeName="fill" to="#808080" begin="zoomplus.mouseover" end="zoomplus.mouseout"/></use>
    <path d="M-4,0h8M0,-4v8" fill="none" stroke="white" stroke-width="1.5" pointer-events="none"/>
  </g>
  <g id="zoomMin">
    <use xlink:href="#rim" fill="#404040"><set attributeName="fill" to="#808080" begin="zoomminus.mouseover" end="zoomminus.mouseout"/></use>
    <path d="M-4,0h8" fill="none" stroke="white" stroke-width="1.5" pointer-events="none"/>
  </g>
  <g id="arrowUp" transform="translate(30 24)">
    <use xlink:href="#rim"/>
    <path pointer-events="none" fill="none" stroke="white" stroke-width="1.5" d="M0,-3.0v7 M-2.5,-0.5L0,-3.0L2.5,-0.5"/>
  </g>
  <g id="arrowRight" transform="rotate(90) translate(36 -43)">
    <use xlink:href="#rim"/>
    <path pointer-events="none" fill="none" stroke="white" stroke-width="1.5" d="M0,-3.0v7 M-2.5,-0.5L0,-3.0L2.5,-0.5"/>
  </g>
  <g id="arrowDown" transform="rotate(180) translate(-30 -48)">
    <use xlink:href="#rim"/>
    <path pointer-events="none" fill="none" stroke="white" stroke-width="1.5" d="M0,-3.0v7 M-2.5,-0.5L0,-3.0L2.5,-0.5"/>
  </g>
  <g id="arrowLeft" transform="rotate(270) translate(-36 17)">
    <use xlink:href="#rim"/>
    <path pointer-events="none" fill="none" stroke="white" stroke-width="1.5" d="M0,-3.0v7 M-2.5,-0.5L0,-3.0L2.5,-0.5"/>
  </g>
  <g id="resetDef">
    <use xlink:href="#rim2" fill="#404040"><set attributeName="fill" to="#808080" begin="reset.mouseover" end="reset.mouseout"/></use>
  </g>
</defs>
<script type="application/ecmascript">
var viewWidth = 508;
var viewHeight = 180;
var sectionId = 'dynsection-0';
</script>
<script type="application/ecmascript" xlink:href="../../svg.min.js"/>
<svg id="graph" class="graph">
<g id="viewport">
<title>TreeHard_BetulaPendula</title>
<!-- Node1 -->
<g id="Node000001" class="node">
<title>Node1</title>
<g id="a_Node000001"><a xlink:title=" ">
<polygon fill="#999999" stroke="#666666" points="314.25,-96 191,-96 191,-76 314.25,-76 314.25,-96"/>
<text text-anchor="middle" x="252.62" y="-82.5" font-family="Helvetica,sans-Serif" font-size="10.00">TreeHard_BetulaPendula</text>
</a>
</g>
</g>
<!-- Node4 -->
<g id="Node000004" class="node">
<title>Node4</title>
<g id="a_Node000004"><a xlink:href="../../d8/d06/class_tree_hard__t___betula_pendula__2s.html" target="_top" xlink:title=" ">
<polygon fill="white" stroke="#666666" points="498.62,-172 351.38,-172 351.38,-152 498.62,-152 498.62,-172"/>
<text text-anchor="middle" x="425" y="-158.5" font-family="Helvetica,sans-Serif" font-size="10.00">TreeHard_t_BetulaPendula_2s</text>
</a>
</g>
</g>
<!-- Node1&#45;&gt;Node4 -->
<g id="edge3_Node000001_Node000004" class="edge">
<title>Node1&#45;&gt;Node4</title>
<g id="a_edge3_Node000001_Node000004"><a xlink:title=" ">
<path fill="none" stroke="#8b1a1a" d="M277.67,-102.78C296.64,-115.36 324.17,-132.2 350.25,-143 358.19,-146.29 366.85,-149.13 375.36,-151.54"/>
<polygon fill="#8b1a1a" stroke="#8b1a1a" points="279.83,-100.01 269.59,-97.31 275.91,-105.81 279.83,-100.01"/>
</a>
</g>
</g>
<!-- Node5 -->
<g id="Node000005" class="node">
<title>Node5</title>
<g id="a_Node000005"><a xlink:href="../../d1/d09/class_tree_hard__t___betula_pendula__3f.html" target="_top" xlink:title=" ">
<polygon fill="white" stroke="#666666" points="497.12,-134 352.88,-134 352.88,-114 497.12,-114 497.12,-134"/>
<text text-anchor="middle" x="425" y="-120.5" font-family="Helvetica,sans-Serif" font-size="10.00">TreeHard_t_BetulaPendula_3f</text>
</a>
</g>
</g>
<!-- Node1&#45;&gt;Node5 -->
<g id="edge4_Node000001_Node000005" class="edge">
<title>Node1&#45;&gt;Node5</title>
<g id="a_edge4_Node000001_Node000005"><a xlink:title=" ">
<path fill="none" stroke="#8b1a1a" d="M311.84,-98.98C333.15,-103.74 356.96,-109.05 377.15,-113.55"/>
<polygon fill="#8b1a1a" stroke="#8b1a1a" points="312.63,-95.57 302.11,-96.81 311.11,-102.41 312.63,-95.57"/>
</a>
</g>
</g>
<!-- Node6 -->
<g id="Node000006" class="node">
<title>Node6</title>
<g id="a_Node000006"><a xlink:href="../../d8/d02/class_tree_hard__t___betula_pendula__3fb.html" target="_top" xlink:title=" ">
<polygon fill="white" stroke="#666666" points="499.75,-96 350.25,-96 350.25,-76 499.75,-76 499.75,-96"/>
<text text-anchor="middle" x="425" y="-82.5" font-family="Helvetica,sans-Serif" font-size="10.00">TreeHard_t_BetulaPendula_3fb</text>
</a>
</g>
</g>
<!-- Node1&#45;&gt;Node6 -->
<g id="edge5_Node000001_Node000006" class="edge">
<title>Node1&#45;&gt;Node6</title>
<g id="a_edge5_Node000001_Node000006"><a xlink:title=" ">
<path fill="none" stroke="#8b1a1a" d="M326.1,-86C334.02,-86 342.08,-86 350.01,-86"/>
<polygon fill="#8b1a1a" stroke="#8b1a1a" points="326.17,-82.5 316.17,-86 326.17,-89.5 326.17,-82.5"/>
</a>
</g>
</g>
<!-- Node7 -->
<g id="Node000007" class="node">
<title>Node7</title>
<g id="a_Node000007"><a xlink:href="../../d1/d00/class_tree_hard__t___betula_pendula__3fc.html" target="_top" xlink:title=" ">
<polygon fill="white" stroke="#666666" points="499.75,-58 350.25,-58 350.25,-38 499.75,-38 499.75,-58"/>
<text text-anchor="middle" x="425" y="-44.5" font-family="Helvetica,sans-Serif" font-size="10.00">TreeHard_t_BetulaPendula_3fc</text>
</a>
</g>
</g>
<!-- Node1&#45;&gt;Node7 -->
<g id="edge6_Node000001_Node000007" class="edge">
<title>Node1&#45;&gt;Node7</title>
<g id="a_edge6_Node000001_Node000007"><a xlink:title=" ">
<path fill="none" stroke="#8b1a1a" d="M311.84,-73.02C333.15,-68.26 356.96,-62.95 377.15,-58.45"/>
<polygon fill="#8b1a1a" stroke="#8b1a1a" points="311.11,-69.59 302.11,-75.19 312.63,-76.43 311.11,-69.59"/>
</a>
</g>
</g>
<!-- Node8 -->
<g id="Node000008" class="node">
<title>Node8</title>
<g id="a_Node000008"><a xlink:href="../../dd/d08/class_tree_hard__t___betula_pendula__3s.html" target="_top" xlink:title=" ">
<polygon fill="white" stroke="#666666" points="498.62,-20 351.38,-20 351.38,0 498.62,0 498.62,-20"/>
<text text-anchor="middle" x="425" y="-6.5" font-family="Helvetica,sans-Serif" font-size="10.00">TreeHard_t_BetulaPendula_3s</text>
</a>
</g>
</g>
<!-- Node1&#45;&gt;Node8 -->
<g id="edge7_Node000001_Node000008" class="edge">
<title>Node1&#45;&gt;Node8</title>
<g id="a_edge7_Node000001_Node000008"><a xlink:title=" ">
<path fill="none" stroke="#8b1a1a" d="M277.67,-69.22C296.64,-56.64 324.17,-39.8 350.25,-29 358.19,-25.71 366.85,-22.87 375.36,-20.46"/>
<polygon fill="#8b1a1a" stroke="#8b1a1a" points="275.91,-66.19 269.59,-74.69 279.83,-71.99 275.91,-66.19"/>
</a>
</g>
</g>
<!-- Node2 -->
<g id="Node000002" class="node">
<title>Node2</title>
<g id="a_Node000002"><a xlink:href="../../d1/d0a/class_tree_hard.html" target="_top" xlink:title="Specific tree class can be declared as: class TreeHard + _ + p3d filename (without extension)">
<polygon fill="white" stroke="#666666" points="155,-96 100,-96 100,-76 155,-76 155,-96"/>
<text text-anchor="middle" x="127.5" y="-82.5" font-family="Helvetica,sans-Serif" font-size="10.00">TreeHard</text>
</a>
</g>
</g>
<!-- Node2&#45;&gt;Node1 -->
<g id="edge1_Node000001_Node000002" class="edge">
<title>Node2&#45;&gt;Node1</title>
<g id="a_edge1_Node000001_Node000002"><a xlink:title=" ">
<path fill="none" stroke="#8b1a1a" d="M166.64,-86C174.25,-86 182.43,-86 190.6,-86"/>
<polygon fill="#8b1a1a" stroke="#8b1a1a" points="166.73,-82.5 156.73,-86 166.73,-89.5 166.73,-82.5"/>
</a>
</g>
</g>
<!-- Node3 -->
<g id="Node000003" class="node">
<title>Node3</title>
<g id="a_Node000003"><a xlink:title=" ">
<polygon fill="white" stroke="#666666" points="64,-96 0,-96 0,-76 64,-76 64,-96"/>
<text text-anchor="middle" x="32" y="-82.5" font-family="Helvetica,sans-Serif" font-size="10.00">PlantSuper</text>
</a>
</g>
</g>
<!-- Node3&#45;&gt;Node2 -->
<g id="edge2_Node000002_Node000003" class="edge">
<title>Node3&#45;&gt;Node2</title>
<g id="a_edge2_Node000002_Node000003"><a xlink:title=" ">
<path fill="none" stroke="#8b1a1a" d="M75.73,-86C83.89,-86 92.23,-86 99.72,-86"/>
<polygon fill="#8b1a1a" stroke="#8b1a1a" points="75.91,-82.5 65.91,-86 75.91,-89.5 75.91,-82.5"/>
</a>
</g>
</g>
</g>
</svg>

<g id="navigator" transform="translate(0 0)" fill="#404254">
  <rect fill="#f2f5e9" fill-opacity="0.5" stroke="#606060" stroke-width=".5" x="0" y="0" width="60" height="60"/>
  <use id="zoomplus" xlink:href="#zoomPlus" x="17" y="9" onmousedown="handleZoom(evt,'in')"/>
  <use id="zoomminus" xlink:href="#zoomMin" x="42" y="9" onmousedown="handleZoom(evt,'out')"/>
  <use id="reset" xlink:href="#resetDef" x="30" y="36" onmousedown="handleReset()"/>
   <use id="arrowup" xlink:href="#arrowUp" x="0" y="0" onmousedown="handlePan(0,-1)"/>
  <use id="arrowright" xlink:href="#arrowRight" x="0" y="0" onmousedown="handlePan(1,0)"/>
  <use id="arrowdown" xlink:href="#arrowDown" x="0" y="0" onmousedown="handlePan(0,1)"/>
  <use id="arrowleft" xlink:href="#arrowLeft" x="0" y="0" onmousedown="handlePan(-1,0)"/>
</g>
<svg viewBox="0 0 15 15" width="100%" height="30px" preserveAspectRatio="xMaxYMin meet">
 <g id="arrow_out" transform="scale(0.3 0.3)">
  <a xlink:href="class_tree_hard___betula_pendula__inherit__graph_org.svg" target="_base">
   <rect id="button" ry="5" rx="5" y="6" x="6" height="38" width="38"
        fill="#f2f5e9" fill-opacity="0.5" stroke="#606060" stroke-width="1.0"/>
   <path id="arrow"
     d="M 11.500037,31.436501 C 11.940474,20.09759 22.043105,11.32322 32.158766,21.979434 L 37.068811,17.246167 C 37.068811,17.246167 37.088388,32 37.088388,32 L 22.160133,31.978069 C 22.160133,31.978069 26.997745,27.140456 26.997745,27.140456 C 18.528582,18.264221 13.291696,25.230495 11.500037,31.436501 z"
     style="fill:#404040;"/>
  </a>
 </g>
</svg>

<style type='text/css'>
<![CDATA[
[data-mouse-over-selected='false'] { opacity: 0.7; }
[data-mouse-over-selected='true']  { opacity: 1.0; }
]]>
</style>
<script type="application/ecmascript"><![CDATA[
document.addEventListener('DOMContentLoaded', (event) => {
  highlightEdges();
  highlightAdjacentNodes();
});
]]></script>
</svg>
