<?xml version="1.0" encoding="UTF-8" standalone="no"?>
<!DOCTYPE svg PUBLIC "-//W3C//DTD SVG 1.1//EN"
 "http://www.w3.org/Graphics/SVG/1.1/DTD/svg11.dtd">
<!-- Generated by graphviz version 11.0.0 (20240428.1522)
 -->
<!-- Title: TreeHard_BetulaPendula Pages: 1 -->
<svg width="508pt" height="180pt"
 viewBox="0.00 0.00 507.75 180.00" xmlns="http://www.w3.org/2000/svg" xmlns:xlink="http://www.w3.org/1999/xlink">
<g id="graph0" class="graph" transform="scale(1 1) rotate(0) translate(4 176)">
<title>TreeHard_BetulaPendula</title>
<!-- Node1 -->
<g id="Node000001" class="node">
<title>Node1</title>
<g id="a_Node000001"><a xlink:title=" ">
<polygon fill="#999999" stroke="#666666" points="314.25,-96 191,-96 191,-76 314.25,-76 314.25,-96"/>
<text text-anchor="middle" x="252.62" y="-82.5" font-family="Helvetica,sans-Serif" font-size="10.00">TreeHard_BetulaPendula</text>
</a>
</g>
</g>
<!-- Node4 -->
<g id="Node000004" class="node">
<title>Node4</title>
<g id="a_Node000004"><a xlink:href="../../d8/d06/class_tree_hard__t___betula_pendula__2s.html" target="_top" xlink:title=" ">
<polygon fill="white" stroke="#666666" points="498.62,-172 351.38,-172 351.38,-152 498.62,-152 498.62,-172"/>
<text text-anchor="middle" x="425" y="-158.5" font-family="Helvetica,sans-Serif" font-size="10.00">TreeHard_t_BetulaPendula_2s</text>
</a>
</g>
</g>
<!-- Node1&#45;&gt;Node4 -->
<g id="edge3_Node000001_Node000004" class="edge">
<title>Node1&#45;&gt;Node4</title>
<g id="a_edge3_Node000001_Node000004"><a xlink:title=" ">
<path fill="none" stroke="#8b1a1a" d="M277.67,-102.78C296.64,-115.36 324.17,-132.2 350.25,-143 358.19,-146.29 366.85,-149.13 375.36,-151.54"/>
<polygon fill="#8b1a1a" stroke="#8b1a1a" points="279.83,-100.01 269.59,-97.31 275.91,-105.81 279.83,-100.01"/>
</a>
</g>
</g>
<!-- Node5 -->
<g id="Node000005" class="node">
<title>Node5</title>
<g id="a_Node000005"><a xlink:href="../../d1/d09/class_tree_hard__t___betula_pendula__3f.html" target="_top" xlink:title=" ">
<polygon fill="white" stroke="#666666" points="497.12,-134 352.88,-134 352.88,-114 497.12,-114 497.12,-134"/>
<text text-anchor="middle" x="425" y="-120.5" font-family="Helvetica,sans-Serif" font-size="10.00">TreeHard_t_BetulaPendula_3f</text>
</a>
</g>
</g>
<!-- Node1&#45;&gt;Node5 -->
<g id="edge4_Node000001_Node000005" class="edge">
<title>Node1&#45;&gt;Node5</title>
<g id="a_edge4_Node000001_Node000005"><a xlink:title=" ">
<path fill="none" stroke="#8b1a1a" d="M311.84,-98.98C333.15,-103.74 356.96,-109.05 377.15,-113.55"/>
<polygon fill="#8b1a1a" stroke="#8b1a1a" points="312.63,-95.57 302.11,-96.81 311.11,-102.41 312.63,-95.57"/>
</a>
</g>
</g>
<!-- Node6 -->
<g id="Node000006" class="node">
<title>Node6</title>
<g id="a_Node000006"><a xlink:href="../../d8/d02/class_tree_hard__t___betula_pendula__3fb.html" target="_top" xlink:title=" ">
<polygon fill="white" stroke="#666666" points="499.75,-96 350.25,-96 350.25,-76 499.75,-76 499.75,-96"/>
<text text-anchor="middle" x="425" y="-82.5" font-family="Helvetica,sans-Serif" font-size="10.00">TreeHard_t_BetulaPendula_3fb</text>
</a>
</g>
</g>
<!-- Node1&#45;&gt;Node6 -->
<g id="edge5_Node000001_Node000006" class="edge">
<title>Node1&#45;&gt;Node6</title>
<g id="a_edge5_Node000001_Node000006"><a xlink:title=" ">
<path fill="none" stroke="#8b1a1a" d="M326.1,-86C334.02,-86 342.08,-86 350.01,-86"/>
<polygon fill="#8b1a1a" stroke="#8b1a1a" points="326.17,-82.5 316.17,-86 326.17,-89.5 326.17,-82.5"/>
</a>
</g>
</g>
<!-- Node7 -->
<g id="Node000007" class="node">
<title>Node7</title>
<g id="a_Node000007"><a xlink:href="../../d1/d00/class_tree_hard__t___betula_pendula__3fc.html" target="_top" xlink:title=" ">
<polygon fill="white" stroke="#666666" points="499.75,-58 350.25,-58 350.25,-38 499.75,-38 499.75,-58"/>
<text text-anchor="middle" x="425" y="-44.5" font-family="Helvetica,sans-Serif" font-size="10.00">TreeHard_t_BetulaPendula_3fc</text>
</a>
</g>
</g>
<!-- Node1&#45;&gt;Node7 -->
<g id="edge6_Node000001_Node000007" class="edge">
<title>Node1&#45;&gt;Node7</title>
<g id="a_edge6_Node000001_Node000007"><a xlink:title=" ">
<path fill="none" stroke="#8b1a1a" d="M311.84,-73.02C333.15,-68.26 356.96,-62.95 377.15,-58.45"/>
<polygon fill="#8b1a1a" stroke="#8b1a1a" points="311.11,-69.59 302.11,-75.19 312.63,-76.43 311.11,-69.59"/>
</a>
</g>
</g>
<!-- Node8 -->
<g id="Node000008" class="node">
<title>Node8</title>
<g id="a_Node000008"><a xlink:href="../../dd/d08/class_tree_hard__t___betula_pendula__3s.html" target="_top" xlink:title=" ">
<polygon fill="white" stroke="#666666" points="498.62,-20 351.38,-20 351.38,0 498.62,0 498.62,-20"/>
<text text-anchor="middle" x="425" y="-6.5" font-family="Helvetica,sans-Serif" font-size="10.00">TreeHard_t_BetulaPendula_3s</text>
</a>
</g>
</g>
<!-- Node1&#45;&gt;Node8 -->
<g id="edge7_Node000001_Node000008" class="edge">
<title>Node1&#45;&gt;Node8</title>
<g id="a_edge7_Node000001_Node000008"><a xlink:title=" ">
<path fill="none" stroke="#8b1a1a" d="M277.67,-69.22C296.64,-56.64 324.17,-39.8 350.25,-29 358.19,-25.71 366.85,-22.87 375.36,-20.46"/>
<polygon fill="#8b1a1a" stroke="#8b1a1a" points="275.91,-66.19 269.59,-74.69 279.83,-71.99 275.91,-66.19"/>
</a>
</g>
</g>
<!-- Node2 -->
<g id="Node000002" class="node">
<title>Node2</title>
<g id="a_Node000002"><a xlink:href="../../d1/d0a/class_tree_hard.html" target="_top" xlink:title="Specific tree class can be declared as: class TreeHard + _ + p3d filename (without extension)">
<polygon fill="white" stroke="#666666" points="155,-96 100,-96 100,-76 155,-76 155,-96"/>
<text text-anchor="middle" x="127.5" y="-82.5" font-family="Helvetica,sans-Serif" font-size="10.00">TreeHard</text>
</a>
</g>
</g>
<!-- Node2&#45;&gt;Node1 -->
<g id="edge1_Node000001_Node000002" class="edge">
<title>Node2&#45;&gt;Node1</title>
<g id="a_edge1_Node000001_Node000002"><a xlink:title=" ">
<path fill="none" stroke="#8b1a1a" d="M166.64,-86C174.25,-86 182.43,-86 190.6,-86"/>
<polygon fill="#8b1a1a" stroke="#8b1a1a" points="166.73,-82.5 156.73,-86 166.73,-89.5 166.73,-82.5"/>
</a>
</g>
</g>
<!-- Node3 -->
<g id="Node000003" class="node">
<title>Node3</title>
<g id="a_Node000003"><a xlink:title=" ">
<polygon fill="white" stroke="#666666" points="64,-96 0,-96 0,-76 64,-76 64,-96"/>
<text text-anchor="middle" x="32" y="-82.5" font-family="Helvetica,sans-Serif" font-size="10.00">PlantSuper</text>
</a>
</g>
</g>
<!-- Node3&#45;&gt;Node2 -->
<g id="edge2_Node000002_Node000003" class="edge">
<title>Node3&#45;&gt;Node2</title>
<g id="a_edge2_Node000002_Node000003"><a xlink:title=" ">
<path fill="none" stroke="#8b1a1a" d="M75.73,-86C83.89,-86 92.23,-86 99.72,-86"/>
<polygon fill="#8b1a1a" stroke="#8b1a1a" points="75.91,-82.5 65.91,-86 75.91,-89.5 75.91,-82.5"/>
</a>
</g>
</g>
</g>
</svg>
