<?xml version="1.0" encoding="UTF-8" standalone="no"?>
<!DOCTYPE svg PUBLIC "-//W3C//DTD SVG 1.1//EN"
 "http://www.w3.org/Graphics/SVG/1.1/DTD/svg11.dtd">
<!-- Generated by graphviz version 11.0.0 (20240428.1522)
 -->
<!-- Title: Rotator Pages: 1 -->
<svg width="211pt" height="204pt"
 viewBox="0.00 0.00 211.38 204.00" xmlns="http://www.w3.org/2000/svg" xmlns:xlink="http://www.w3.org/1999/xlink">
<g id="graph0" class="graph" transform="scale(1 1) rotate(0) translate(4 200)">
<title>Rotator</title>
<!-- Node1 -->
<g id="Node000001" class="node">
<title>Node1</title>
<g id="a_Node000001"><a xlink:title=" ">
<polygon fill="#999999" stroke="#666666" points="122.75,-20 75.25,-20 75.25,0 122.75,0 122.75,-20"/>
<text text-anchor="middle" x="99" y="-6.5" font-family="Helvetica,sans-Serif" font-size="10.00">Rotator</text>
</a>
</g>
</g>
<!-- Node2 -->
<g id="Node000002" class="node">
<title>Node2</title>
<g id="a_Node000002"><a xlink:href="../../d4/d03/classfloat.html" target="_top" xlink:title=" ">
<polygon fill="white" stroke="#666666" points="34,-188 0,-188 0,-168 34,-168 34,-188"/>
<text text-anchor="middle" x="17" y="-174.5" font-family="Helvetica,sans-Serif" font-size="10.00">float</text>
</a>
</g>
</g>
<!-- Node2&#45;&gt;Node1 -->
<g id="edge1_Node000001_Node000002" class="edge">
<title>Node2&#45;&gt;Node1</title>
<g id="a_edge1_Node000001_Node000002"><a xlink:title=" ">
<path fill="none" stroke="#9a32cd" stroke-dasharray="5,2" d="M12.62,-156.44C8.82,-133.45 6,-95.8 20.75,-68 32.72,-45.43 58.06,-29.57 76.68,-20.4"/>
<polygon fill="#9a32cd" stroke="#9a32cd" points="9.14,-156.89 14.44,-166.06 16.02,-155.59 9.14,-156.89"/>
</a>
</g>
<text text-anchor="middle" x="35.62" y="-74.5" font-family="Helvetica,sans-Serif" font-size="10.00" fill="grey"> speed</text>
</g>
<!-- Node2&#45;&gt;Node2 -->
<g id="edge2_Node000002_Node000002" class="edge">
<title>Node2&#45;&gt;Node2</title>
<g id="a_edge2_Node000002_Node000002"><a xlink:title=" ">
<path fill="none" stroke="#9a32cd" stroke-dasharray="5,2" d="M45.67,-186.94C49.47,-185.42 52,-182.44 52,-178 52,-169.88 43.56,-166.64 34.29,-168.29"/>
<polygon fill="#9a32cd" stroke="#9a32cd" points="45.54,-183.44 35.8,-187.61 46.01,-190.43 45.54,-183.44"/>
</a>
</g>
<text text-anchor="middle" x="74.12" y="-186.5" font-family="Helvetica,sans-Serif" font-size="10.00" fill="grey"> LOWEST</text>
<text text-anchor="middle" x="74.12" y="-174.5" font-family="Helvetica,sans-Serif" font-size="10.00" fill="grey">MAX</text>
<text text-anchor="middle" x="74.12" y="-162.5" font-family="Helvetica,sans-Serif" font-size="10.00" fill="grey">MIN</text>
</g>
<!-- Node4 -->
<g id="Node000004" class="node">
<title>Node4</title>
<g id="a_Node000004"><a xlink:href="../../d7/d00/class_animator_timer.html" target="_top" xlink:title=" ">
<polygon fill="white" stroke="#666666" points="138.5,-88 59.5,-88 59.5,-68 138.5,-68 138.5,-88"/>
<text text-anchor="middle" x="99" y="-74.5" font-family="Helvetica,sans-Serif" font-size="10.00">AnimatorTimer</text>
</a>
</g>
</g>
<!-- Node2&#45;&gt;Node4 -->
<g id="edge6_Node000004_Node000002" class="edge">
<title>Node2&#45;&gt;Node4</title>
<g id="a_edge6_Node000004_Node000002"><a xlink:title=" ">
<path fill="none" stroke="#9a32cd" stroke-dasharray="5,2" d="M19.77,-156.53C22.81,-141.03 29.07,-120.09 41.75,-106 48.73,-98.24 58.42,-92.52 67.84,-88.4"/>
<polygon fill="#9a32cd" stroke="#9a32cd" points="16.37,-155.62 18.2,-166.05 23.28,-156.75 16.37,-155.62"/>
</a>
</g>
<text text-anchor="middle" x="76.12" y="-132.5" font-family="Helvetica,sans-Serif" font-size="10.00" fill="grey"> m_target_value</text>
<text text-anchor="middle" x="76.12" y="-120.5" font-family="Helvetica,sans-Serif" font-size="10.00" fill="grey">m_time</text>
<text text-anchor="middle" x="76.12" y="-108.5" font-family="Helvetica,sans-Serif" font-size="10.00" fill="grey">m_value</text>
</g>
<!-- Node3 -->
<g id="Node000003" class="node">
<title>Node3</title>
<g id="a_Node000003"><a xlink:href="../../dd/d0a/class_widget.html" target="_top" xlink:title=" ">
<polygon fill="white" stroke="#666666" points="203.38,-88 156.62,-88 156.62,-68 203.38,-68 203.38,-88"/>
<text text-anchor="middle" x="180" y="-74.5" font-family="Helvetica,sans-Serif" font-size="10.00">Widget</text>
</a>
</g>
</g>
<!-- Node3&#45;&gt;Node1 -->
<g id="edge3_Node000001_Node000003" class="edge">
<title>Node3&#45;&gt;Node1</title>
<g id="a_edge3_Node000001_Node000003"><a xlink:title=" ">
<path fill="none" stroke="#9a32cd" stroke-dasharray="5,2" d="M164.09,-59.53C157.29,-52.49 149.07,-44.51 141,-38 133.04,-31.58 123.49,-25.34 115.51,-20.48"/>
<polygon fill="#9a32cd" stroke="#9a32cd" points="161.4,-61.77 170.79,-66.66 166.5,-56.98 161.4,-61.77"/>
</a>
</g>
<text text-anchor="middle" x="169.5" y="-40.5" font-family="Helvetica,sans-Serif" font-size="10.00" fill="grey"> m_root</text>
</g>
<!-- Node4&#45;&gt;Node1 -->
<g id="edge4_Node000001_Node000004" class="edge">
<title>Node4&#45;&gt;Node1</title>
<g id="a_edge4_Node000001_Node000004"><a xlink:title=" ">
<path fill="none" stroke="#9a32cd" stroke-dasharray="5,2" d="M99,-56.28C99,-44.27 99,-29.74 99,-20.44"/>
<polygon fill="#9a32cd" stroke="#9a32cd" points="95.5,-56.03 99,-66.03 102.5,-56.03 95.5,-56.03"/>
</a>
</g>
<text text-anchor="middle" x="117.75" y="-40.5" font-family="Helvetica,sans-Serif" font-size="10.00" fill="grey"> m_anim</text>
</g>
<!-- Node5 -->
<g id="Node000005" class="node">
<title>Node5</title>
<g id="a_Node000005"><a xlink:href="../../d9/d09/classbool.html" target="_top" xlink:title=" ">
<polygon fill="white" stroke="#666666" points="153,-188 119,-188 119,-168 153,-168 153,-188"/>
<text text-anchor="middle" x="136" y="-174.5" font-family="Helvetica,sans-Serif" font-size="10.00">bool</text>
</a>
</g>
</g>
<!-- Node5&#45;&gt;Node4 -->
<g id="edge5_Node000004_Node000005" class="edge">
<title>Node5&#45;&gt;Node4</title>
<g id="a_edge5_Node000004_Node000005"><a xlink:title=" ">
<path fill="none" stroke="#9a32cd" stroke-dasharray="5,2" d="M130.85,-156.47C126.95,-142.07 121.06,-122.52 114,-106 111.39,-99.89 107.79,-93.36 104.77,-88.26"/>
<polygon fill="#9a32cd" stroke="#9a32cd" points="127.46,-157.33 133.37,-166.13 134.23,-155.57 127.46,-157.33"/>
</a>
</g>
<text text-anchor="middle" x="146.62" y="-126.5" font-family="Helvetica,sans-Serif" font-size="10.00" fill="grey"> m_active</text>
<text text-anchor="middle" x="146.62" y="-114.5" font-family="Helvetica,sans-Serif" font-size="10.00" fill="grey">m_loop</text>
</g>
</g>
</svg>
