<?xml version="1.0" encoding="UTF-8" standalone="no"?>
<!DOCTYPE svg PUBLIC "-//W3C//DTD SVG 1.1//EN"
 "http://www.w3.org/Graphics/SVG/1.1/DTD/svg11.dtd">
<!-- Generated by graphviz version 11.0.0 (20240428.1522)
 -->
<!-- Title: PPERequester_GameplayBase Pages: 1 -->
<!--zoomable 566 -->

<svg id="main" version="1.1" xmlns="http://www.w3.org/2000/svg" xmlns:xlink="http://www.w3.org/1999/xlink" xml:space="preserve" onload="init(evt)">
<style type="text/css"><![CDATA[
.node, .edge {opacity: 0.7;}
.node.selected, .edge.selected {opacity: 1;}
.edge:hover path { stroke: red; }
.edge:hover polygon { stroke: red; fill: red; }
]]></style>

<defs>
  <circle id="rim" cx="0" cy="0" r="7"/>
  <circle id="rim2" cx="0" cy="0" r="3.5"/>
  <g id="zoomPlus">
    <use xlink:href="#rim" fill="#404040"><set attributeName="fill" to="#808080" begin="zoomplus.mouseover" end="zoomplus.mouseout"/></use>
    <path d="M-4,0h8M0,-4v8" fill="none" stroke="white" stroke-width="1.5" pointer-events="none"/>
  </g>
  <g id="zoomMin">
    <use xlink:href="#rim" fill="#404040"><set attributeName="fill" to="#808080" begin="zoomminus.mouseover" end="zoomminus.mouseout"/></use>
    <path d="M-4,0h8" fill="none" stroke="white" stroke-width="1.5" pointer-events="none"/>
  </g>
  <g id="arrowUp" transform="translate(30 24)">
    <use xlink:href="#rim"/>
    <path pointer-events="none" fill="none" stroke="white" stroke-width="1.5" d="M0,-3.0v7 M-2.5,-0.5L0,-3.0L2.5,-0.5"/>
  </g>
  <g id="arrowRight" transform="rotate(90) translate(36 -43)">
    <use xlink:href="#rim"/>
    <path pointer-events="none" fill="none" stroke="white" stroke-width="1.5" d="M0,-3.0v7 M-2.5,-0.5L0,-3.0L2.5,-0.5"/>
  </g>
  <g id="arrowDown" transform="rotate(180) translate(-30 -48)">
    <use xlink:href="#rim"/>
    <path pointer-events="none" fill="none" stroke="white" stroke-width="1.5" d="M0,-3.0v7 M-2.5,-0.5L0,-3.0L2.5,-0.5"/>
  </g>
  <g id="arrowLeft" transform="rotate(270) translate(-36 17)">
    <use xlink:href="#rim"/>
    <path pointer-events="none" fill="none" stroke="white" stroke-width="1.5" d="M0,-3.0v7 M-2.5,-0.5L0,-3.0L2.5,-0.5"/>
  </g>
  <g id="resetDef">
    <use xlink:href="#rim2" fill="#404040"><set attributeName="fill" to="#808080" begin="reset.mouseover" end="reset.mouseout"/></use>
  </g>
</defs>
<script type="application/ecmascript">
var viewWidth = 1019;
var viewHeight = 566;
var sectionId = 'dynsection-0';
</script>
<script type="application/ecmascript" xlink:href="../../svg.min.js"/>
<svg id="graph" class="graph">
<g id="viewport">
<title>PPERequester_GameplayBase</title>
<!-- Node1 -->
<g id="Node000001" class="node">
<title>Node1</title>
<g id="a_Node000001"><a xlink:title="base, not to be used directly, would lead to layering collisions!">
<polygon fill="#999999" stroke="#666666" points="259.13,-20 106.63,-20 106.63,0 259.13,0 259.13,-20"/>
<text text-anchor="middle" x="182.88" y="-6.5" font-family="Helvetica,sans-Serif" font-size="10.00">PPERequester_GameplayBase</text>
</a>
</g>
</g>
<!-- Node2 -->
<g id="Node000002" class="node">
<title>Node2</title>
<g id="a_Node000002"><a xlink:href="../../db/d06/class_param3.html" target="_top" xlink:title=" ">
<polygon fill="white" stroke="#666666" points="163.76,-556 114.01,-556 114.01,-536 163.76,-536 163.76,-556"/>
<text text-anchor="middle" x="138.88" y="-542.5" font-family="Helvetica,sans-Serif" font-size="10.00">Param3</text>
</a>
</g>
</g>
<!-- Node2&#45;&gt;Node1 -->
<g id="edge1_Node000001_Node000002" class="edge">
<title>Node2&#45;&gt;Node1</title>
<g id="a_edge1_Node000001_Node000002"><a xlink:title=" ">
<path fill="none" stroke="#9a32cd" stroke-dasharray="5,2" d="M111.69,-529.34C107.09,-525.96 102.6,-522.15 98.88,-518 15.6,-425.19 -10.27,-377.89 3.88,-254 15.06,-156.1 -16.53,-106.94 53.88,-38 62.02,-30.04 83.31,-24.18 106.31,-20.01"/>
<polygon fill="#9a32cd" stroke="#9a32cd" points="109.58,-532.13 119.84,-534.77 113.46,-526.31 109.58,-532.13"/>
</a>
</g>
<text text-anchor="middle" x="60.88" y="-328.5" font-family="Helvetica,sans-Serif" font-size="10.00" fill="grey"> NV_DAYTIME_OPTICS</text>
<text text-anchor="middle" x="60.88" y="-316.5" font-family="Helvetica,sans-Serif" font-size="10.00" fill="grey">NV_DEFAULT_GLASSES</text>
<text text-anchor="middle" x="60.88" y="-304.5" font-family="Helvetica,sans-Serif" font-size="10.00" fill="grey">NV_DEFAULT_OPTICS</text>
<text text-anchor="middle" x="60.88" y="-292.5" font-family="Helvetica,sans-Serif" font-size="10.00" fill="grey">NV_NO_BATTERY</text>
<text text-anchor="middle" x="60.88" y="-280.5" font-family="Helvetica,sans-Serif" font-size="10.00" fill="grey">NV_PUMPKIN</text>
<text text-anchor="middle" x="60.88" y="-268.5" font-family="Helvetica,sans-Serif" font-size="10.00" fill="grey">NV_TRANSITIVE</text>
<text text-anchor="middle" x="60.88" y="-256.5" font-family="Helvetica,sans-Serif" font-size="10.00" fill="grey">m_CurrentMode</text>
</g>
<!-- Node6 -->
<g id="Node000006" class="node">
<title>Node6</title>
<g id="a_Node000006"><a xlink:href="../../d2/d01/classarray.html" target="_top" xlink:title=" ">
<polygon fill="white" stroke="#666666" points="777.76,-222 704.01,-222 704.01,-202 777.76,-202 777.76,-222"/>
<text text-anchor="middle" x="740.88" y="-208.5" font-family="Helvetica,sans-Serif" font-size="10.00">array&lt; float &gt;</text>
</a>
</g>
</g>
<!-- Node2&#45;&gt;Node6 -->
<g id="edge9_Node000006_Node000002" class="edge">
<title>Node2&#45;&gt;Node6</title>
<g id="a_edge9_Node000006_Node000002"><a xlink:title=" ">
<path fill="none" stroke="#9a32cd" stroke-dasharray="5,2" d="M159.75,-528.69C198.83,-498.08 279.51,-434.49 283.88,-428 302.55,-400.27 279.51,-376.85 305.63,-356 350.42,-320.25 517.59,-373.11 562.88,-338 593.98,-313.89 562.3,-281.05 590.88,-254 621.37,-225.14 670.16,-216.21 703.78,-213.65"/>
<polygon fill="#9a32cd" stroke="#9a32cd" points="157.69,-525.85 151.98,-534.77 162.01,-531.37 157.69,-525.85"/>
</a>
</g>
<text text-anchor="middle" x="363.01" y="-418.5" font-family="Helvetica,sans-Serif" font-size="10.00" fill="grey"> NO_SORTING</text>
<text text-anchor="middle" x="363.01" y="-406.5" font-family="Helvetica,sans-Serif" font-size="10.00" fill="grey">geomLevel</text>
<text text-anchor="middle" x="363.01" y="-394.5" font-family="Helvetica,sans-Serif" font-size="10.00" fill="grey">hierLevel</text>
<text text-anchor="start" x="304.88" y="-382.5" font-family="Helvetica,sans-Serif" font-size="10.00" fill="grey">m_CurrentSettingAlternate</text>
<text text-anchor="middle" x="363.01" y="-370.5" font-family="Helvetica,sans-Serif" font-size="10.00" fill="grey">KeyIndex</text>
<text text-anchor="middle" x="363.01" y="-358.5" font-family="Helvetica,sans-Serif" font-size="10.00" fill="grey">m_CurrentSettingKeyIndex</text>
</g>
<!-- Node8 -->
<g id="Node000008" class="node">
<title>Node8</title>
<g id="a_Node000008"><a xlink:href="../../d2/d01/classarray.html" target="_top" xlink:title="Result for an object found in CGame.IsBoxCollidingGeometryProxy.">
<polygon fill="white" stroke="#666666" points="637.76,-402 600.01,-402 600.01,-382 637.76,-382 637.76,-402"/>
<text text-anchor="middle" x="618.88" y="-388.5" font-family="Helvetica,sans-Serif" font-size="10.00">array</text>
</a>
</g>
</g>
<!-- Node2&#45;&gt;Node8 -->
<g id="edge12_Node000008_Node000002" class="edge">
<title>Node2&#45;&gt;Node8</title>
<g id="a_edge12_Node000008_Node000002"><a xlink:title=" ">
<path fill="none" stroke="#9a32cd" stroke-dasharray="5,2" d="M175.5,-539.33C200.08,-534.94 232.95,-527.92 260.88,-518 328.22,-494.1 335.99,-465.86 404.63,-446 482.39,-423.5 513.23,-463.71 585.88,-428 597.57,-422.25 607.27,-410.51 613.06,-402.22"/>
<polygon fill="#9a32cd" stroke="#9a32cd" points="174.91,-535.88 165.65,-541.02 176.09,-542.78 174.91,-535.88"/>
</a>
</g>
<text text-anchor="middle" x="462.01" y="-508.5" font-family="Helvetica,sans-Serif" font-size="10.00" fill="grey"> NO_SORTING</text>
<text text-anchor="middle" x="462.01" y="-496.5" font-family="Helvetica,sans-Serif" font-size="10.00" fill="grey">geomLevel</text>
<text text-anchor="middle" x="462.01" y="-484.5" font-family="Helvetica,sans-Serif" font-size="10.00" fill="grey">hierLevel</text>
<text text-anchor="start" x="403.88" y="-472.5" font-family="Helvetica,sans-Serif" font-size="10.00" fill="grey">m_CurrentSettingAlternate</text>
<text text-anchor="middle" x="462.01" y="-460.5" font-family="Helvetica,sans-Serif" font-size="10.00" fill="grey">KeyIndex</text>
<text text-anchor="middle" x="462.01" y="-448.5" font-family="Helvetica,sans-Serif" font-size="10.00" fill="grey">m_CurrentSettingKeyIndex</text>
</g>
<!-- Node12 -->
<g id="Node000012" class="node">
<title>Node12</title>
<g id="a_Node000012"><a xlink:href="../../d2/d01/classarray.html" target="_top" xlink:title=" ">
<polygon fill="white" stroke="#666666" points="477.13,-222 390.63,-222 390.63,-202 477.13,-202 477.13,-222"/>
<text text-anchor="middle" x="433.88" y="-208.5" font-family="Helvetica,sans-Serif" font-size="10.00">array&lt; Widget &gt;</text>
</a>
</g>
</g>
<!-- Node2&#45;&gt;Node12 -->
<g id="edge20_Node000012_Node000002" class="edge">
<title>Node2&#45;&gt;Node12</title>
<g id="a_edge20_Node000012_Node000002"><a xlink:title=" ">
<path fill="none" stroke="#9a32cd" stroke-dasharray="5,2" d="M129.06,-525.73C112.4,-490.15 83.05,-412.61 111.63,-356 146.05,-287.84 180.39,-285.65 249.88,-254 262.58,-248.22 339.98,-231.95 390.27,-221.73"/>
<polygon fill="#9a32cd" stroke="#9a32cd" points="125.74,-526.91 133.27,-534.37 132.04,-523.85 125.74,-526.91"/>
</a>
</g>
<text text-anchor="middle" x="169.01" y="-418.5" font-family="Helvetica,sans-Serif" font-size="10.00" fill="grey"> NO_SORTING</text>
<text text-anchor="middle" x="169.01" y="-406.5" font-family="Helvetica,sans-Serif" font-size="10.00" fill="grey">geomLevel</text>
<text text-anchor="middle" x="169.01" y="-394.5" font-family="Helvetica,sans-Serif" font-size="10.00" fill="grey">hierLevel</text>
<text text-anchor="start" x="110.88" y="-382.5" font-family="Helvetica,sans-Serif" font-size="10.00" fill="grey">m_CurrentSettingAlternate</text>
<text text-anchor="middle" x="169.01" y="-370.5" font-family="Helvetica,sans-Serif" font-size="10.00" fill="grey">KeyIndex</text>
<text text-anchor="middle" x="169.01" y="-358.5" font-family="Helvetica,sans-Serif" font-size="10.00" fill="grey">m_CurrentSettingKeyIndex</text>
</g>
<!-- Node3 -->
<g id="Node000003" class="node">
<title>Node3</title>
<g id="a_Node000003"><a xlink:href="../../d4/d03/classfloat.html" target="_top" xlink:title=" ">
<polygon fill="white" stroke="#666666" points="81.88,-222 47.88,-222 47.88,-202 81.88,-202 81.88,-222"/>
<text text-anchor="middle" x="64.88" y="-208.5" font-family="Helvetica,sans-Serif" font-size="10.00">float</text>
</a>
</g>
</g>
<!-- Node3&#45;&gt;Node1 -->
<g id="edge2_Node000001_Node000003" class="edge">
<title>Node3&#45;&gt;Node1</title>
<g id="a_edge2_Node000001_Node000003"><a xlink:title=" ">
<path fill="none" stroke="#9a32cd" stroke-dasharray="5,2" d="M60.99,-190.45C55.52,-154.83 50.01,-81.28 87.38,-38 94.14,-30.18 102.97,-24.54 112.54,-20.49"/>
<polygon fill="#9a32cd" stroke="#9a32cd" points="57.53,-190.98 62.67,-200.24 64.43,-189.79 57.53,-190.98"/>
</a>
</g>
<text text-anchor="middle" x="132.63" y="-160.5" font-family="Helvetica,sans-Serif" font-size="10.00" fill="grey"> B_TARGET</text>
<text text-anchor="middle" x="132.63" y="-148.5" font-family="Helvetica,sans-Serif" font-size="10.00" fill="grey">EXPOSURE_MAX</text>
<text text-anchor="middle" x="132.63" y="-136.5" font-family="Helvetica,sans-Serif" font-size="10.00" fill="grey">FADE_TIME</text>
<text text-anchor="middle" x="132.63" y="-124.5" font-family="Helvetica,sans-Serif" font-size="10.00" fill="grey">G_TARGET</text>
<text text-anchor="middle" x="132.63" y="-112.5" font-family="Helvetica,sans-Serif" font-size="10.00" fill="grey">INTENSITY_MULT</text>
<text text-anchor="middle" x="132.63" y="-100.5" font-family="Helvetica,sans-Serif" font-size="10.00" fill="grey">R_TARGET</text>
<text text-anchor="middle" x="132.63" y="-88.5" font-family="Helvetica,sans-Serif" font-size="10.00" fill="grey">VAL_FACTOR</text>
<text text-anchor="middle" x="132.63" y="-76.5" font-family="Helvetica,sans-Serif" font-size="10.00" fill="grey">m_AccumulatedTime</text>
<text text-anchor="middle" x="132.63" y="-64.5" font-family="Helvetica,sans-Serif" font-size="10.00" fill="grey">m_EffectPhase</text>
<text text-anchor="middle" x="132.63" y="-52.5" font-family="Helvetica,sans-Serif" font-size="10.00" fill="grey">m_Exposure</text>
<text text-anchor="middle" x="132.63" y="-40.5" font-family="Helvetica,sans-Serif" font-size="10.00" fill="grey">...</text>
</g>
<!-- Node3&#45;&gt;Node3 -->
<g id="edge3_Node000003_Node000003" class="edge">
<title>Node3&#45;&gt;Node3</title>
<g id="a_edge3_Node000003_Node000003"><a xlink:title=" ">
<path fill="none" stroke="#9a32cd" stroke-dasharray="5,2" d="M83.75,-227.47C92.38,-229.07 99.88,-223.91 99.88,-212 99.88,-195.43 85.35,-191.93 73.49,-201.51"/>
<polygon fill="#9a32cd" stroke="#9a32cd" points="85.38,-224.37 74.85,-223.15 82.32,-230.66 85.38,-224.37"/>
</a>
</g>
<text text-anchor="middle" x="122.01" y="-220.5" font-family="Helvetica,sans-Serif" font-size="10.00" fill="grey"> LOWEST</text>
<text text-anchor="middle" x="122.01" y="-208.5" font-family="Helvetica,sans-Serif" font-size="10.00" fill="grey">MAX</text>
<text text-anchor="middle" x="122.01" y="-196.5" font-family="Helvetica,sans-Serif" font-size="10.00" fill="grey">MIN</text>
</g>
<!-- Node4 -->
<g id="Node000004" class="node">
<title>Node4</title>
<g id="a_Node000004"><a xlink:href="../../d7/d0c/classvector.html" target="_top" xlink:title=" ">
<polygon fill="white" stroke="#666666" points="203.63,-222 162.13,-222 162.13,-202 203.63,-202 203.63,-222"/>
<text text-anchor="middle" x="182.88" y="-208.5" font-family="Helvetica,sans-Serif" font-size="10.00">vector</text>
</a>
</g>
</g>
<!-- Node4&#45;&gt;Node1 -->
<g id="edge4_Node000001_Node000004" class="edge">
<title>Node4&#45;&gt;Node1</title>
<g id="a_edge4_Node000001_Node000004"><a xlink:title=" ">
<path fill="none" stroke="#9a32cd" stroke-dasharray="5,2" d="M182.88,-190.15C182.88,-147.19 182.88,-50.28 182.88,-20.13"/>
<polygon fill="#9a32cd" stroke="#9a32cd" points="179.38,-190.11 182.88,-200.11 186.38,-190.11 179.38,-190.11"/>
</a>
</g>
<text text-anchor="middle" x="212.13" y="-100.5" font-family="Helvetica,sans-Serif" font-size="10.00" fill="grey"> m_StartRGB</text>
</g>
<!-- Node4&#45;&gt;Node4 -->
<g id="edge5_Node000004_Node000004" class="edge">
<title>Node4&#45;&gt;Node4</title>
<g id="a_edge5_Node000004_Node000004"><a xlink:title=" ">
<path fill="none" stroke="#9a32cd" stroke-dasharray="5,2" d="M202.83,-227.29C212.77,-229.39 221.63,-224.3 221.63,-212 221.63,-195.43 205.55,-191.93 192.42,-201.51"/>
<polygon fill="#9a32cd" stroke="#9a32cd" points="204.34,-224.13 193.79,-223.12 201.41,-230.48 204.34,-224.13"/>
</a>
</g>
<text text-anchor="middle" x="238.88" y="-226.5" font-family="Helvetica,sans-Serif" font-size="10.00" fill="grey"> Aside</text>
<text text-anchor="middle" x="238.88" y="-214.5" font-family="Helvetica,sans-Serif" font-size="10.00" fill="grey">Forward</text>
<text text-anchor="middle" x="238.88" y="-202.5" font-family="Helvetica,sans-Serif" font-size="10.00" fill="grey">Up</text>
<text text-anchor="middle" x="238.88" y="-190.5" font-family="Helvetica,sans-Serif" font-size="10.00" fill="grey">Zero</text>
</g>
<!-- Node5 -->
<g id="Node000005" class="node">
<title>Node5</title>
<g id="a_Node000005"><a xlink:href="../../d9/d09/classbool.html" target="_top" xlink:title=" ">
<polygon fill="white" stroke="#666666" points="307.88,-222 273.88,-222 273.88,-202 307.88,-202 307.88,-222"/>
<text text-anchor="middle" x="290.88" y="-208.5" font-family="Helvetica,sans-Serif" font-size="10.00">bool</text>
</a>
</g>
</g>
<!-- Node5&#45;&gt;Node1 -->
<g id="edge6_Node000001_Node000005" class="edge">
<title>Node5&#45;&gt;Node1</title>
<g id="a_edge6_Node000001_Node000005"><a xlink:title=" ">
<path fill="none" stroke="#9a32cd" stroke-dasharray="5,2" d="M291.1,-190.69C290.41,-155.43 284.09,-82.43 245.88,-38 239.05,-30.06 229.48,-24.39 219.85,-20.36"/>
<polygon fill="#9a32cd" stroke="#9a32cd" points="287.6,-190.35 291.15,-200.33 294.6,-190.32 287.6,-190.35"/>
</a>
</g>
<text text-anchor="middle" x="315.38" y="-106.5" font-family="Helvetica,sans-Serif" font-size="10.00" fill="grey"> m_FadeIn</text>
<text text-anchor="middle" x="315.38" y="-94.5" font-family="Helvetica,sans-Serif" font-size="10.00" fill="grey">m_FadeOut</text>
</g>
<!-- Node6&#45;&gt;Node1 -->
<g id="edge7_Node000001_Node000006" class="edge">
<title>Node6&#45;&gt;Node1</title>
<g id="a_edge7_Node000001_Node000006"><a xlink:title=" ">
<path fill="none" stroke="#9a32cd" stroke-dasharray="5,2" d="M713.8,-196.36C650.93,-162.99 489.36,-80.88 344.88,-38 317.55,-29.89 286.85,-23.99 259.58,-19.82"/>
<polygon fill="#9a32cd" stroke="#9a32cd" points="711.9,-199.31 722.37,-200.93 715.2,-193.13 711.9,-199.31"/>
</a>
</g>
<text text-anchor="middle" x="697.51" y="-100.5" font-family="Helvetica,sans-Serif" font-size="10.00" fill="grey"> m_OverlayColor</text>
</g>
<!-- Node7 -->
<g id="Node000007" class="node">
<title>Node7</title>
<g id="a_Node000007"><a xlink:href="../../d8/d03/class_object.html" target="_top" xlink:title=" ">
<polygon fill="white" stroke="#666666" points="784.13,-556 739.63,-556 739.63,-536 784.13,-536 784.13,-556"/>
<text text-anchor="middle" x="761.88" y="-542.5" font-family="Helvetica,sans-Serif" font-size="10.00">Object</text>
</a>
</g>
</g>
<!-- Node7&#45;&gt;Node6 -->
<g id="edge8_Node000006_Node000007" class="edge">
<title>Node7&#45;&gt;Node6</title>
<g id="a_edge8_Node000006_Node000007"><a xlink:title=" ">
<path fill="none" stroke="#9a32cd" stroke-dasharray="5,2" d="M795.4,-538.74C811.83,-534.62 831.37,-528.07 846.88,-518 914.23,-474.27 955.28,-431.11 926.88,-356 905.5,-299.45 885.88,-289.41 836.88,-254 817.2,-239.78 791.82,-229.21 772.1,-222.37"/>
<polygon fill="#9a32cd" stroke="#9a32cd" points="795.04,-535.24 786.08,-540.89 796.61,-542.06 795.04,-535.24"/>
</a>
</g>
<text text-anchor="middle" x="949.38" y="-394.5" font-family="Helvetica,sans-Serif" font-size="10.00" fill="grey"> obj</text>
<text text-anchor="middle" x="949.38" y="-382.5" font-family="Helvetica,sans-Serif" font-size="10.00" fill="grey">parent</text>
</g>
<!-- Node7&#45;&gt;Node8 -->
<g id="edge11_Node000008_Node000007" class="edge">
<title>Node7&#45;&gt;Node8</title>
<g id="a_edge11_Node000008_Node000007"><a xlink:title=" ">
<path fill="none" stroke="#9a32cd" stroke-dasharray="5,2" d="M734.99,-529.53C730.02,-526.07 725.08,-522.17 720.88,-518 693.61,-490.88 697.4,-475.63 672.88,-446 659.15,-429.4 640.85,-412.32 629.47,-402.18"/>
<polygon fill="#9a32cd" stroke="#9a32cd" points="732.82,-532.3 743.12,-534.8 736.62,-526.43 732.82,-532.3"/>
</a>
</g>
<text text-anchor="middle" x="734.38" y="-484.5" font-family="Helvetica,sans-Serif" font-size="10.00" fill="grey"> obj</text>
<text text-anchor="middle" x="734.38" y="-472.5" font-family="Helvetica,sans-Serif" font-size="10.00" fill="grey">parent</text>
</g>
<!-- Node7&#45;&gt;Node12 -->
<g id="edge19_Node000012_Node000007" class="edge">
<title>Node7&#45;&gt;Node12</title>
<g id="a_edge19_Node000012_Node000007"><a xlink:title=" ">
<path fill="none" stroke="#9a32cd" stroke-dasharray="5,2" d="M762.01,-524.11C761.44,-503.48 758.65,-471.42 747.88,-446 743.93,-436.67 738.83,-436.85 733.88,-428 717.2,-398.17 724.06,-385.54 706.88,-356 677.21,-304.99 672.33,-284.61 621.88,-254 577.47,-227.05 517.65,-217.71 477.52,-214.54"/>
<polygon fill="#9a32cd" stroke="#9a32cd" points="758.51,-524.09 762.11,-534.06 765.51,-524.02 758.51,-524.09"/>
</a>
</g>
<text text-anchor="middle" x="747.38" y="-394.5" font-family="Helvetica,sans-Serif" font-size="10.00" fill="grey"> obj</text>
<text text-anchor="middle" x="747.38" y="-382.5" font-family="Helvetica,sans-Serif" font-size="10.00" fill="grey">parent</text>
</g>
<!-- Node8&#45;&gt;Node6 -->
<g id="edge10_Node000006_Node000008" class="edge">
<title>Node8&#45;&gt;Node6</title>
<g id="a_edge10_Node000006_Node000008"><a xlink:title=" ">
<path fill="none" stroke="#9a32cd" stroke-dasharray="5,2" d="M631.46,-372.65C657.23,-335.04 715.26,-250.38 734.53,-222.27"/>
<polygon fill="#9a32cd" stroke="#9a32cd" points="628.72,-370.45 625.95,-380.68 634.5,-374.41 628.72,-370.45"/>
</a>
</g>
<text text-anchor="middle" x="731.88" y="-292.5" font-family="Helvetica,sans-Serif" font-size="10.00" fill="grey"> proxyInfo</text>
</g>
<!-- Node8&#45;&gt;Node8 -->
<g id="edge13_Node000008_Node000008" class="edge">
<title>Node8&#45;&gt;Node8</title>
<g id="a_edge13_Node000008_Node000008"><a xlink:title=" ">
<path fill="none" stroke="#9a32cd" stroke-dasharray="5,2" d="M636.71,-408.07C646.63,-411.07 655.76,-405.71 655.76,-392 655.76,-373.72 639.53,-370.29 626.85,-381.72"/>
<polygon fill="#9a32cd" stroke="#9a32cd" points="638.55,-405.09 628.15,-403.05 635.01,-411.13 638.55,-405.09"/>
</a>
</g>
<text text-anchor="middle" x="676.76" y="-388.5" font-family="Helvetica,sans-Serif" font-size="10.00" fill="grey"> proxyInfo</text>
</g>
<!-- Node8&#45;&gt;Node12 -->
<g id="edge21_Node000012_Node000008" class="edge">
<title>Node8&#45;&gt;Node12</title>
<g id="a_edge21_Node000012_Node000008"><a xlink:title=" ">
<path fill="none" stroke="#9a32cd" stroke-dasharray="5,2" d="M605.28,-372.55C584.25,-344.79 541.66,-291.52 497.88,-254 483.35,-241.55 464.75,-230.05 451.35,-222.42"/>
<polygon fill="#9a32cd" stroke="#9a32cd" points="602.31,-374.43 611.11,-380.34 607.92,-370.24 602.31,-374.43"/>
</a>
</g>
<text text-anchor="middle" x="596.88" y="-292.5" font-family="Helvetica,sans-Serif" font-size="10.00" fill="grey"> proxyInfo</text>
</g>
<!-- Node9 -->
<g id="Node000009" class="node">
<title>Node9</title>
<g id="a_Node000009"><a xlink:href="../../d4/d04/class_class.html" target="_top" xlink:title="Super root of all classes in Enforce script.">
<polygon fill="white" stroke="#666666" points="639.26,-556 598.51,-556 598.51,-536 639.26,-536 639.26,-556"/>
<text text-anchor="middle" x="618.88" y="-542.5" font-family="Helvetica,sans-Serif" font-size="10.00">Class</text>
</a>
</g>
</g>
<!-- Node9&#45;&gt;Node6 -->
<g id="edge26_Node000006_Node000009" class="edge">
<title>Node9&#45;&gt;Node6</title>
<g id="a_edge26_Node000006_Node000009"><a xlink:title=" ">
<path fill="none" stroke="#9a32cd" stroke-dasharray="5,2" d="M650.82,-544.16C673.44,-541.95 703.15,-535.55 722.88,-518 748.54,-495.18 733.94,-475.86 750.88,-446 755.88,-437.18 761.59,-437.59 764.88,-428 790.01,-354.78 774.17,-329.46 756.88,-254 754.29,-242.68 749.13,-230.35 745.37,-222.2"/>
<polygon fill="#9a32cd" stroke="#9a32cd" points="650.64,-540.66 640.92,-544.88 651.15,-547.64 650.64,-540.66"/>
</a>
</g>
<text text-anchor="middle" x="804.51" y="-388.5" font-family="Helvetica,sans-Serif" font-size="10.00" fill="grey"> m_Instance</text>
</g>
<!-- Node9&#45;&gt;Node8 -->
<g id="edge14_Node000008_Node000009" class="edge">
<title>Node9&#45;&gt;Node8</title>
<g id="a_edge14_Node000008_Node000009"><a xlink:title=" ">
<path fill="none" stroke="#9a32cd" stroke-dasharray="5,2" d="M618.88,-524.47C618.88,-491.04 618.88,-426.17 618.88,-402.2"/>
<polygon fill="#9a32cd" stroke="#9a32cd" points="615.38,-524.43 618.88,-534.43 622.38,-524.43 615.38,-524.43"/>
</a>
</g>
<text text-anchor="middle" x="645.51" y="-478.5" font-family="Helvetica,sans-Serif" font-size="10.00" fill="grey"> m_Instance</text>
</g>
<!-- Node9&#45;&gt;Node12 -->
<g id="edge22_Node000012_Node000009" class="edge">
<title>Node9&#45;&gt;Node12</title>
<g id="a_edge22_Node000012_Node000009"><a xlink:title=" ">
<path fill="none" stroke="#9a32cd" stroke-dasharray="5,2" d="M614.95,-524.44C609.44,-501.57 597.14,-465.3 571.88,-446 535.92,-418.51 509.17,-453.3 471.63,-428 470.41,-427.17 415.29,-339.42 414.88,-338 404.52,-302.13 406.84,-290.46 414.88,-254 417.41,-242.51 423.5,-230.41 428.11,-222.36"/>
<polygon fill="#9a32cd" stroke="#9a32cd" points="611.5,-525.06 617.03,-534.1 618.34,-523.59 611.5,-525.06"/>
</a>
</g>
<text text-anchor="middle" x="497.51" y="-388.5" font-family="Helvetica,sans-Serif" font-size="10.00" fill="grey"> m_Instance</text>
</g>
<!-- Node10 -->
<g id="Node000010" class="node">
<title>Node10</title>
<g id="a_Node000010"><a xlink:href="../../d5/d02/classstring.html" target="_top" xlink:title=" ">
<polygon fill="white" stroke="#666666" points="522.88,-556 482.88,-556 482.88,-536 522.88,-536 522.88,-556"/>
<text text-anchor="middle" x="502.88" y="-542.5" font-family="Helvetica,sans-Serif" font-size="10.00">string</text>
</a>
</g>
</g>
<!-- Node10&#45;&gt;Node6 -->
<g id="edge27_Node000006_Node000010" class="edge">
<title>Node10&#45;&gt;Node6</title>
<g id="a_edge27_Node000006_Node000010"><a xlink:title=" ">
<path fill="none" stroke="#9a32cd" stroke-dasharray="5,2" d="M505.48,-524.36C508.29,-504.15 513.4,-472.61 520.88,-446 532.49,-404.72 527.52,-388.37 555.63,-356 566.39,-343.61 575.4,-348.66 587.88,-338 623.98,-307.16 616.74,-283.58 653.88,-254 671.51,-239.96 694.74,-229.32 712.76,-222.41"/>
<polygon fill="#9a32cd" stroke="#9a32cd" points="502.03,-523.71 504.19,-534.08 508.97,-524.63 502.03,-523.71"/>
</a>
</g>
<text text-anchor="middle" x="572.51" y="-388.5" font-family="Helvetica,sans-Serif" font-size="10.00" fill="grey"> m_Test</text>
</g>
<!-- Node10&#45;&gt;Node8 -->
<g id="edge15_Node000008_Node000010" class="edge">
<title>Node10&#45;&gt;Node8</title>
<g id="a_edge15_Node000008_Node000010"><a xlink:title=" ">
<path fill="none" stroke="#9a32cd" stroke-dasharray="5,2" d="M516.57,-527.06C541.41,-494.51 593.08,-426.81 611.86,-402.2"/>
<polygon fill="#9a32cd" stroke="#9a32cd" points="513.99,-524.67 510.71,-534.74 519.56,-528.92 513.99,-524.67"/>
</a>
</g>
<text text-anchor="middle" x="595.51" y="-478.5" font-family="Helvetica,sans-Serif" font-size="10.00" fill="grey"> m_Test</text>
</g>
<!-- Node10&#45;&gt;Node10 -->
<g id="edge16_Node000010_Node000010" class="edge">
<title>Node10&#45;&gt;Node10</title>
<g id="a_edge16_Node000010_Node000010"><a xlink:title=" ">
<path fill="none" stroke="#9a32cd" stroke-dasharray="5,2" d="M528.65,-557.91C535.6,-557.28 540.88,-553.31 540.88,-546 540.88,-535.12 529.18,-531.64 517.7,-535.55"/>
<polygon fill="#9a32cd" stroke="#9a32cd" points="529.58,-554.5 519.2,-556.65 528.65,-561.44 529.58,-554.5"/>
</a>
</g>
<text text-anchor="middle" x="556.63" y="-542.5" font-family="Helvetica,sans-Serif" font-size="10.00" fill="grey"> Empty</text>
</g>
<!-- Node10&#45;&gt;Node12 -->
<g id="edge23_Node000012_Node000010" class="edge">
<title>Node10&#45;&gt;Node12</title>
<g id="a_edge23_Node000012_Node000010"><a xlink:title=" ">
<path fill="none" stroke="#9a32cd" stroke-dasharray="5,2" d="M489.76,-526.46C472.2,-503.27 438.74,-464.39 399.88,-446 369.29,-431.52 271.11,-453.31 248.63,-428 178.78,-349.34 354.29,-252.35 414.48,-222.31"/>
<polygon fill="#9a32cd" stroke="#9a32cd" points="486.84,-528.39 495.58,-534.38 492.48,-524.25 486.84,-528.39"/>
</a>
</g>
<text text-anchor="middle" x="265.51" y="-388.5" font-family="Helvetica,sans-Serif" font-size="10.00" fill="grey"> m_Test</text>
</g>
<!-- Node11 -->
<g id="Node000011" class="node">
<title>Node11</title>
<g id="a_Node000011"><a xlink:href="../../dd/d0a/class_widget.html" target="_top" xlink:title=" ">
<polygon fill="white" stroke="#666666" points="909.26,-556 862.51,-556 862.51,-536 909.26,-536 909.26,-556"/>
<text text-anchor="middle" x="885.88" y="-542.5" font-family="Helvetica,sans-Serif" font-size="10.00">Widget</text>
</a>
</g>
</g>
<!-- Node11&#45;&gt;Node6 -->
<g id="edge28_Node000006_Node000011" class="edge">
<title>Node11&#45;&gt;Node6</title>
<g id="a_edge28_Node000006_Node000011"><a xlink:title=" ">
<path fill="none" stroke="#9a32cd" stroke-dasharray="5,2" d="M903.01,-527.74C922.84,-506.42 954.38,-468.03 966.88,-428 976.42,-397.46 976.86,-386.41 966.88,-356 949.34,-302.53 938.29,-285.82 891.88,-254 857.71,-230.58 810.67,-220.51 778.21,-216.2"/>
<polygon fill="#9a32cd" stroke="#9a32cd" points="900.74,-525.04 896.36,-534.69 905.8,-529.88 900.74,-525.04"/>
</a>
</g>
<text text-anchor="middle" x="992.26" y="-388.5" font-family="Helvetica,sans-Serif" font-size="10.00" fill="grey"> m_Root</text>
</g>
<!-- Node11&#45;&gt;Node8 -->
<g id="edge17_Node000008_Node000011" class="edge">
<title>Node11&#45;&gt;Node8</title>
<g id="a_edge17_Node000008_Node000011"><a xlink:title=" ">
<path fill="none" stroke="#9a32cd" stroke-dasharray="5,2" d="M856.05,-530.56C849.01,-526.77 841.66,-522.47 835.13,-518 794.79,-490.34 793.68,-471.41 751.88,-446 741.71,-439.82 672.33,-413.23 638.02,-400.22"/>
<polygon fill="#9a32cd" stroke="#9a32cd" points="854.17,-533.53 864.66,-535.03 857.4,-527.32 854.17,-533.53"/>
</a>
</g>
<text text-anchor="middle" x="853.26" y="-478.5" font-family="Helvetica,sans-Serif" font-size="10.00" fill="grey"> m_Root</text>
</g>
<!-- Node11&#45;&gt;Node12 -->
<g id="edge24_Node000012_Node000011" class="edge">
<title>Node11&#45;&gt;Node12</title>
<g id="a_edge24_Node000012_Node000011"><a xlink:title=" ">
<path fill="none" stroke="#9a32cd" stroke-dasharray="5,2" d="M884.5,-524.42C879.46,-468.02 856.65,-311.4 756.88,-254 733.12,-240.33 559.88,-223.83 477.36,-216.64"/>
<polygon fill="#9a32cd" stroke="#9a32cd" points="881,-524.47 885.27,-534.17 887.98,-523.93 881,-524.47"/>
</a>
</g>
<text text-anchor="middle" x="885.26" y="-388.5" font-family="Helvetica,sans-Serif" font-size="10.00" fill="grey"> m_Root</text>
</g>
<!-- Node12&#45;&gt;Node8 -->
<g id="edge18_Node000008_Node000012" class="edge">
<title>Node12&#45;&gt;Node8</title>
<g id="a_edge18_Node000008_Node000012"><a xlink:title=" ">
<path fill="none" stroke="#9a32cd" stroke-dasharray="5,2" d="M426.78,-233.23C418.58,-260.63 409.28,-309.39 434.88,-338 457.42,-363.18 555.7,-340.79 585.88,-356 597.37,-361.79 606.98,-373.28 612.81,-381.51"/>
<polygon fill="#9a32cd" stroke="#9a32cd" points="430.1,-234.33 429.87,-223.73 423.44,-232.16 430.1,-234.33"/>
</a>
</g>
<text text-anchor="middle" x="466.38" y="-292.5" font-family="Helvetica,sans-Serif" font-size="10.00" fill="grey"> m_Subgroups</text>
</g>
<!-- Node12&#45;&gt;Node12 -->
<g id="edge25_Node000012_Node000012" class="edge">
<title>Node12&#45;&gt;Node12</title>
<g id="a_edge25_Node000012_Node000012"><a xlink:title=" ">
<path fill="none" stroke="#9a32cd" stroke-dasharray="5,2" d="M459.66,-226.21C477.53,-230.52 495.13,-225.79 495.13,-212 495.13,-195.43 469.71,-191.93 448.95,-201.51"/>
<polygon fill="#9a32cd" stroke="#9a32cd" points="460.98,-222.96 450.38,-222.98 458.68,-229.57 460.98,-222.96"/>
</a>
</g>
<text text-anchor="middle" x="526.63" y="-208.5" font-family="Helvetica,sans-Serif" font-size="10.00" fill="grey"> m_Subgroups</text>
</g>
</g>
</svg>

<g id="navigator" transform="translate(0 0)" fill="#404254">
  <rect fill="#f2f5e9" fill-opacity="0.5" stroke="#606060" stroke-width=".5" x="0" y="0" width="60" height="60"/>
  <use id="zoomplus" xlink:href="#zoomPlus" x="17" y="9" onmousedown="handleZoom(evt,'in')"/>
  <use id="zoomminus" xlink:href="#zoomMin" x="42" y="9" onmousedown="handleZoom(evt,'out')"/>
  <use id="reset" xlink:href="#resetDef" x="30" y="36" onmousedown="handleReset()"/>
   <use id="arrowup" xlink:href="#arrowUp" x="0" y="0" onmousedown="handlePan(0,-1)"/>
  <use id="arrowright" xlink:href="#arrowRight" x="0" y="0" onmousedown="handlePan(1,0)"/>
  <use id="arrowdown" xlink:href="#arrowDown" x="0" y="0" onmousedown="handlePan(0,1)"/>
  <use id="arrowleft" xlink:href="#arrowLeft" x="0" y="0" onmousedown="handlePan(-1,0)"/>
</g>
<svg viewBox="0 0 15 15" width="100%" height="30px" preserveAspectRatio="xMaxYMin meet">
 <g id="arrow_out" transform="scale(0.3 0.3)">
  <a xlink:href="class_p_p_e_requester___gameplay_base__coll__graph_org.svg" target="_base">
   <rect id="button" ry="5" rx="5" y="6" x="6" height="38" width="38"
        fill="#f2f5e9" fill-opacity="0.5" stroke="#606060" stroke-width="1.0"/>
   <path id="arrow"
     d="M 11.500037,31.436501 C 11.940474,20.09759 22.043105,11.32322 32.158766,21.979434 L 37.068811,17.246167 C 37.068811,17.246167 37.088388,32 37.088388,32 L 22.160133,31.978069 C 22.160133,31.978069 26.997745,27.140456 26.997745,27.140456 C 18.528582,18.264221 13.291696,25.230495 11.500037,31.436501 z"
     style="fill:#404040;"/>
  </a>
 </g>
</svg>

<style type='text/css'>
<![CDATA[
[data-mouse-over-selected='false'] { opacity: 0.7; }
[data-mouse-over-selected='true']  { opacity: 1.0; }
]]>
</style>
<script type="application/ecmascript"><![CDATA[
document.addEventListener('DOMContentLoaded', (event) => {
  highlightEdges();
  highlightAdjacentNodes();
});
]]></script>
</svg>
