<?xml version="1.0" encoding="UTF-8" standalone="no"?>
<!DOCTYPE svg PUBLIC "-//W3C//DTD SVG 1.1//EN"
 "http://www.w3.org/Graphics/SVG/1.1/DTD/svg11.dtd">
<!-- Generated by graphviz version 11.0.0 (20240428.1522)
 -->
<!-- Title: TreeHard_t_PiceaAbies_3f Pages: 1 -->
<svg width="139pt" height="140pt"
 viewBox="0.00 0.00 138.75 140.00" xmlns="http://www.w3.org/2000/svg" xmlns:xlink="http://www.w3.org/1999/xlink">
<g id="graph0" class="graph" transform="scale(1 1) rotate(0) translate(4 136)">
<title>TreeHard_t_PiceaAbies_3f</title>
<!-- Node1 -->
<g id="Node000001" class="node">
<title>Node1</title>
<g id="a_Node000001"><a xlink:title=" ">
<polygon fill="#999999" stroke="#666666" points="130.75,-20 0,-20 0,0 130.75,0 130.75,-20"/>
<text text-anchor="middle" x="65.38" y="-6.5" font-family="Helvetica,sans-Serif" font-size="10.00">TreeHard_t_PiceaAbies_3f</text>
</a>
</g>
</g>
<!-- Node2 -->
<g id="Node000002" class="node">
<title>Node2</title>
<g id="a_Node000002"><a xlink:href="../../d1/d0a/class_tree_hard.html" target="_top" xlink:title="Specific tree class can be declared as: class TreeHard + _ + p3d filename (without extension)">
<polygon fill="white" stroke="#666666" points="92.88,-76 37.88,-76 37.88,-56 92.88,-56 92.88,-76"/>
<text text-anchor="middle" x="65.38" y="-62.5" font-family="Helvetica,sans-Serif" font-size="10.00">TreeHard</text>
</a>
</g>
</g>
<!-- Node2&#45;&gt;Node1 -->
<g id="edge1_Node000001_Node000002" class="edge">
<title>Node2&#45;&gt;Node1</title>
<g id="a_edge1_Node000001_Node000002"><a xlink:title=" ">
<path fill="none" stroke="#8b1a1a" d="M65.38,-44.13C65.38,-35.9 65.38,-26.85 65.38,-20.3"/>
<polygon fill="#8b1a1a" stroke="#8b1a1a" points="61.88,-44.08 65.38,-54.08 68.88,-44.08 61.88,-44.08"/>
</a>
</g>
</g>
<!-- Node3 -->
<g id="Node000003" class="node">
<title>Node3</title>
<g id="a_Node000003"><a xlink:title=" ">
<polygon fill="white" stroke="#666666" points="97.38,-132 33.38,-132 33.38,-112 97.38,-112 97.38,-132"/>
<text text-anchor="middle" x="65.38" y="-118.5" font-family="Helvetica,sans-Serif" font-size="10.00">PlantSuper</text>
</a>
</g>
</g>
<!-- Node3&#45;&gt;Node2 -->
<g id="edge2_Node000002_Node000003" class="edge">
<title>Node3&#45;&gt;Node2</title>
<g id="a_edge2_Node000002_Node000003"><a xlink:title=" ">
<path fill="none" stroke="#8b1a1a" d="M65.38,-100.13C65.38,-91.9 65.38,-82.85 65.38,-76.3"/>
<polygon fill="#8b1a1a" stroke="#8b1a1a" points="61.88,-100.08 65.38,-110.08 68.88,-100.08 61.88,-100.08"/>
</a>
</g>
</g>
</g>
</svg>
