<?xml version="1.0" encoding="UTF-8" standalone="no"?>
<!DOCTYPE svg PUBLIC "-//W3C//DTD SVG 1.1//EN"
 "http://www.w3.org/Graphics/SVG/1.1/DTD/svg11.dtd">
<!-- Generated by graphviz version 11.0.0 (20240428.1522)
 -->
<!-- Title: multiMap&lt; Class K, Class V &gt; Pages: 1 -->
<svg width="1077pt" height="486pt"
 viewBox="0.00 0.00 1076.86 485.91" xmlns="http://www.w3.org/2000/svg" xmlns:xlink="http://www.w3.org/1999/xlink">
<g id="graph0" class="graph" transform="scale(1 1) rotate(0) translate(4 481.91)">
<title>multiMap&lt; Class K, Class V &gt;</title>
<!-- Node1 -->
<g id="Node000001" class="node">
<title>Node1</title>
<g id="a_Node000001"><a xlink:title="Associative array template, with multiple values per key &#160;&#160;usage:">
<polygon fill="#999999" stroke="#666666" points="585.23,-32 482.98,-32 482.98,0 585.23,0 585.23,-32"/>
<text text-anchor="start" x="490.98" y="-18.5" font-family="Helvetica,sans-Serif" font-size="10.00">multiMap&lt; Class K,</text>
<text text-anchor="middle" x="534.11" y="-6.5" font-family="Helvetica,sans-Serif" font-size="10.00"> Class V &gt;</text>
</a>
</g>
</g>
<!-- Node2 -->
<g id="Node000002" class="node">
<title>Node2</title>
<g id="a_Node000002"><a xlink:href="../../d2/d01/classarray.html" target="_top" xlink:title=" ">
<polygon fill="white" stroke="#666666" points="480.98,-100 365.23,-100 365.23,-80 480.98,-80 480.98,-100"/>
<text text-anchor="middle" x="423.11" y="-86.5" font-family="Helvetica,sans-Serif" font-size="10.00">array&lt; ref array&lt; V &gt; &gt;</text>
</a>
</g>
</g>
<!-- Node2&#45;&gt;Node1 -->
<g id="edge1_Node000001_Node000002" class="edge">
<title>Node2&#45;&gt;Node1</title>
<g id="a_edge1_Node000001_Node000002"><a xlink:title=" ">
<path fill="none" stroke="#9a32cd" stroke-dasharray="5,2" d="M447.18,-73.39C465.86,-61.27 491.63,-44.55 510.26,-32.47"/>
<polygon fill="#9a32cd" stroke="#9a32cd" points="445.38,-70.39 438.89,-78.76 449.18,-76.26 445.38,-70.39"/>
</a>
</g>
<text text-anchor="middle" x="502.86" y="-52.5" font-family="Helvetica,sans-Serif" font-size="10.00" fill="grey"> m_values</text>
</g>
<!-- Node3 -->
<g id="Node000003" class="node">
<title>Node3</title>
<g id="a_Node000003"><a xlink:href="../../d8/d03/class_object.html" target="_top" xlink:title=" ">
<polygon fill="white" stroke="#666666" points="324.36,-476 279.86,-476 279.86,-456 324.36,-456 324.36,-476"/>
<text text-anchor="middle" x="302.11" y="-462.5" font-family="Helvetica,sans-Serif" font-size="10.00">Object</text>
</a>
</g>
</g>
<!-- Node3&#45;&gt;Node2 -->
<g id="edge2_Node000002_Node000003" class="edge">
<title>Node3&#45;&gt;Node2</title>
<g id="a_edge2_Node000002_Node000003"><a xlink:title=" ">
<path fill="none" stroke="#9a32cd" stroke-dasharray="5,2" d="M276.13,-449.18C271.53,-445.79 266.98,-442.01 263.11,-438 177.68,-349.35 119.12,-305.65 148.11,-186 156.11,-152.96 155.13,-137.3 183.11,-118 211.63,-98.33 303.33,-92.81 364.77,-91.36"/>
<polygon fill="#9a32cd" stroke="#9a32cd" points="273.95,-451.93 284.19,-454.68 277.9,-446.15 273.95,-451.93"/>
</a>
</g>
<text text-anchor="middle" x="161.61" y="-224.5" font-family="Helvetica,sans-Serif" font-size="10.00" fill="grey"> obj</text>
<text text-anchor="middle" x="161.61" y="-212.5" font-family="Helvetica,sans-Serif" font-size="10.00" fill="grey">parent</text>
</g>
<!-- Node5 -->
<g id="Node000005" class="node">
<title>Node5</title>
<g id="a_Node000005"><a xlink:href="../../d2/d01/classarray.html" target="_top" xlink:title="Result for an object found in CGame.IsBoxCollidingGeometryProxy.">
<polygon fill="white" stroke="#666666" points="637.98,-322 600.23,-322 600.23,-302 637.98,-302 637.98,-322"/>
<text text-anchor="middle" x="619.11" y="-308.5" font-family="Helvetica,sans-Serif" font-size="10.00">array</text>
</a>
</g>
</g>
<!-- Node3&#45;&gt;Node5 -->
<g id="edge5_Node000005_Node000003" class="edge">
<title>Node3&#45;&gt;Node5</title>
<g id="a_edge5_Node000005_Node000003"><a xlink:title=" ">
<path fill="none" stroke="#9a32cd" stroke-dasharray="5,2" d="M336.07,-465.47C372.62,-464.71 431.64,-459.75 477.11,-438 519.97,-417.5 518,-394.36 556.11,-366 568.58,-356.72 574,-357.75 586.11,-348 595.74,-340.25 605.26,-329.76 611.59,-322.29"/>
<polygon fill="#9a32cd" stroke="#9a32cd" points="336.06,-461.97 326.1,-465.57 336.13,-468.97 336.06,-461.97"/>
</a>
</g>
<text text-anchor="middle" x="569.61" y="-404.5" font-family="Helvetica,sans-Serif" font-size="10.00" fill="grey"> obj</text>
<text text-anchor="middle" x="569.61" y="-392.5" font-family="Helvetica,sans-Serif" font-size="10.00" fill="grey">parent</text>
</g>
<!-- Node9 -->
<g id="Node000009" class="node">
<title>Node9</title>
<g id="a_Node000009"><a xlink:href="../../d2/d01/classarray.html" target="_top" xlink:title=" ">
<polygon fill="white" stroke="#666666" points="588.36,-168 501.86,-168 501.86,-148 588.36,-148 588.36,-168"/>
<text text-anchor="middle" x="545.11" y="-154.5" font-family="Helvetica,sans-Serif" font-size="10.00">array&lt; Widget &gt;</text>
</a>
</g>
</g>
<!-- Node3&#45;&gt;Node9 -->
<g id="edge13_Node000009_Node000003" class="edge">
<title>Node3&#45;&gt;Node9</title>
<g id="a_edge13_Node000009_Node000003"><a xlink:title=" ">
<path fill="none" stroke="#9a32cd" stroke-dasharray="5,2" d="M335.89,-462.97C374.73,-459.95 435.32,-452.95 452.11,-438 466.15,-425.49 495.59,-293.98 501.11,-276 513.4,-235.95 512.09,-224.28 529.11,-186 531.85,-179.83 535.69,-173.3 538.92,-168.21"/>
<polygon fill="#9a32cd" stroke="#9a32cd" points="335.83,-459.46 326.11,-463.67 336.34,-466.44 335.83,-459.46"/>
</a>
</g>
<text text-anchor="middle" x="514.61" y="-314.5" font-family="Helvetica,sans-Serif" font-size="10.00" fill="grey"> obj</text>
<text text-anchor="middle" x="514.61" y="-302.5" font-family="Helvetica,sans-Serif" font-size="10.00" fill="grey">parent</text>
</g>
<!-- Node10 -->
<g id="Node000010" class="node">
<title>Node10</title>
<g id="a_Node000010"><a xlink:href="../../d2/d01/classarray.html" target="_top" xlink:title=" ">
<polygon fill="white" stroke="#666666" points="697.36,-100 634.86,-100 634.86,-80 697.36,-80 697.36,-100"/>
<text text-anchor="middle" x="666.11" y="-86.5" font-family="Helvetica,sans-Serif" font-size="10.00">array&lt; K &gt;</text>
</a>
</g>
</g>
<!-- Node3&#45;&gt;Node10 -->
<g id="edge25_Node000010_Node000003" class="edge">
<title>Node3&#45;&gt;Node10</title>
<g id="a_edge25_Node000010_Node000003"><a xlink:title=" ">
<path fill="none" stroke="#9a32cd" stroke-dasharray="5,2" d="M292.24,-445.37C282.73,-423.38 272.33,-387.94 291.11,-366 324.74,-326.69 365.29,-379.79 406.11,-348 482.59,-288.44 420.45,-212.16 493.11,-148 514.38,-129.21 590.88,-108.75 634.7,-98.2"/>
<polygon fill="#9a32cd" stroke="#9a32cd" points="289.05,-446.83 296.46,-454.4 295.39,-443.86 289.05,-446.83"/>
</a>
</g>
<text text-anchor="middle" x="477.61" y="-224.5" font-family="Helvetica,sans-Serif" font-size="10.00" fill="grey"> obj</text>
<text text-anchor="middle" x="477.61" y="-212.5" font-family="Helvetica,sans-Serif" font-size="10.00" fill="grey">parent</text>
</g>
<!-- Node4 -->
<g id="Node000004" class="node">
<title>Node4</title>
<g id="a_Node000004"><a xlink:href="../../db/d06/class_param3.html" target="_top" xlink:title=" ">
<polygon fill="white" stroke="#666666" points="251.98,-476 202.23,-476 202.23,-456 251.98,-456 251.98,-476"/>
<text text-anchor="middle" x="227.11" y="-462.5" font-family="Helvetica,sans-Serif" font-size="10.00">Param3</text>
</a>
</g>
</g>
<!-- Node4&#45;&gt;Node2 -->
<g id="edge3_Node000002_Node000004" class="edge">
<title>Node4&#45;&gt;Node2</title>
<g id="a_edge3_Node000002_Node000004"><a xlink:title=" ">
<path fill="none" stroke="#9a32cd" stroke-dasharray="5,2" d="M196.72,-450.42C190.3,-446.76 183.77,-442.56 178.11,-438 75.31,-355.17 -49.84,-297.49 20.86,-186 58.82,-126.14 96.84,-137.07 165.11,-118 232.02,-99.31 311.96,-93.34 364.94,-91.55"/>
<polygon fill="#9a32cd" stroke="#9a32cd" points="194.77,-453.34 205.23,-454.99 198.08,-447.18 194.77,-453.34"/>
</a>
</g>
<text text-anchor="middle" x="79.23" y="-248.5" font-family="Helvetica,sans-Serif" font-size="10.00" fill="grey"> NO_SORTING</text>
<text text-anchor="middle" x="79.23" y="-236.5" font-family="Helvetica,sans-Serif" font-size="10.00" fill="grey">geomLevel</text>
<text text-anchor="middle" x="79.23" y="-224.5" font-family="Helvetica,sans-Serif" font-size="10.00" fill="grey">hierLevel</text>
<text text-anchor="start" x="21.11" y="-212.5" font-family="Helvetica,sans-Serif" font-size="10.00" fill="grey">m_CurrentSettingAlternate</text>
<text text-anchor="middle" x="79.23" y="-200.5" font-family="Helvetica,sans-Serif" font-size="10.00" fill="grey">KeyIndex</text>
<text text-anchor="middle" x="79.23" y="-188.5" font-family="Helvetica,sans-Serif" font-size="10.00" fill="grey">m_CurrentSettingKeyIndex</text>
</g>
<!-- Node4&#45;&gt;Node5 -->
<g id="edge6_Node000005_Node000004" class="edge">
<title>Node4&#45;&gt;Node5</title>
<g id="a_edge6_Node000005_Node000004"><a xlink:title=" ">
<path fill="none" stroke="#9a32cd" stroke-dasharray="5,2" d="M250.07,-449.47C255.39,-445.78 260.98,-441.8 266.11,-438 307.46,-407.33 308.94,-384.84 356.86,-366 451.98,-328.61 493.93,-392.14 586.11,-348 597.86,-342.37 607.54,-330.61 613.32,-322.27"/>
<polygon fill="#9a32cd" stroke="#9a32cd" points="248.49,-446.31 242.23,-454.86 252.45,-452.08 248.49,-446.31"/>
</a>
</g>
<text text-anchor="middle" x="414.23" y="-428.5" font-family="Helvetica,sans-Serif" font-size="10.00" fill="grey"> NO_SORTING</text>
<text text-anchor="middle" x="414.23" y="-416.5" font-family="Helvetica,sans-Serif" font-size="10.00" fill="grey">geomLevel</text>
<text text-anchor="middle" x="414.23" y="-404.5" font-family="Helvetica,sans-Serif" font-size="10.00" fill="grey">hierLevel</text>
<text text-anchor="start" x="356.11" y="-392.5" font-family="Helvetica,sans-Serif" font-size="10.00" fill="grey">m_CurrentSettingAlternate</text>
<text text-anchor="middle" x="414.23" y="-380.5" font-family="Helvetica,sans-Serif" font-size="10.00" fill="grey">KeyIndex</text>
<text text-anchor="middle" x="414.23" y="-368.5" font-family="Helvetica,sans-Serif" font-size="10.00" fill="grey">m_CurrentSettingKeyIndex</text>
</g>
<!-- Node4&#45;&gt;Node9 -->
<g id="edge14_Node000009_Node000004" class="edge">
<title>Node4&#45;&gt;Node9</title>
<g id="a_edge14_Node000009_Node000004"><a xlink:title=" ">
<path fill="none" stroke="#9a32cd" stroke-dasharray="5,2" d="M232.29,-444.55C238.24,-423.6 249.38,-390.68 266.11,-366 298.88,-317.66 314.96,-310.81 361.86,-276 374.73,-266.45 381.31,-268.85 393.11,-258 421.8,-231.64 411.21,-208.36 443.11,-186 460.21,-174.01 482.31,-167.35 501.56,-163.64"/>
<polygon fill="#9a32cd" stroke="#9a32cd" points="228.93,-443.58 229.72,-454.15 235.69,-445.4 228.93,-443.58"/>
</a>
</g>
<text text-anchor="middle" x="419.23" y="-338.5" font-family="Helvetica,sans-Serif" font-size="10.00" fill="grey"> NO_SORTING</text>
<text text-anchor="middle" x="419.23" y="-326.5" font-family="Helvetica,sans-Serif" font-size="10.00" fill="grey">geomLevel</text>
<text text-anchor="middle" x="419.23" y="-314.5" font-family="Helvetica,sans-Serif" font-size="10.00" fill="grey">hierLevel</text>
<text text-anchor="start" x="361.11" y="-302.5" font-family="Helvetica,sans-Serif" font-size="10.00" fill="grey">m_CurrentSettingAlternate</text>
<text text-anchor="middle" x="419.23" y="-290.5" font-family="Helvetica,sans-Serif" font-size="10.00" fill="grey">KeyIndex</text>
<text text-anchor="middle" x="419.23" y="-278.5" font-family="Helvetica,sans-Serif" font-size="10.00" fill="grey">m_CurrentSettingKeyIndex</text>
</g>
<!-- Node4&#45;&gt;Node10 -->
<g id="edge26_Node000010_Node000004" class="edge">
<title>Node4&#45;&gt;Node10</title>
<g id="a_edge26_Node000010_Node000004"><a xlink:title=" ">
<path fill="none" stroke="#9a32cd" stroke-dasharray="5,2" d="M226.27,-444.15C225.85,-423.98 226.25,-392.65 231.11,-366 238.67,-324.54 262.86,-217.5 290.86,-186 338.22,-132.73 367.55,-137.52 436.11,-118 505.13,-98.35 589.72,-92.98 634.61,-91.52"/>
<polygon fill="#9a32cd" stroke="#9a32cd" points="222.77,-444.22 226.58,-454.11 229.77,-444.01 222.77,-444.22"/>
</a>
</g>
<text text-anchor="middle" x="348.23" y="-248.5" font-family="Helvetica,sans-Serif" font-size="10.00" fill="grey"> NO_SORTING</text>
<text text-anchor="middle" x="348.23" y="-236.5" font-family="Helvetica,sans-Serif" font-size="10.00" fill="grey">geomLevel</text>
<text text-anchor="middle" x="348.23" y="-224.5" font-family="Helvetica,sans-Serif" font-size="10.00" fill="grey">hierLevel</text>
<text text-anchor="start" x="290.11" y="-212.5" font-family="Helvetica,sans-Serif" font-size="10.00" fill="grey">m_CurrentSettingAlternate</text>
<text text-anchor="middle" x="348.23" y="-200.5" font-family="Helvetica,sans-Serif" font-size="10.00" fill="grey">KeyIndex</text>
<text text-anchor="middle" x="348.23" y="-188.5" font-family="Helvetica,sans-Serif" font-size="10.00" fill="grey">m_CurrentSettingKeyIndex</text>
</g>
<!-- Node5&#45;&gt;Node2 -->
<g id="edge4_Node000002_Node000005" class="edge">
<title>Node5&#45;&gt;Node2</title>
<g id="a_edge4_Node000002_Node000005"><a xlink:title=" ">
<path fill="none" stroke="#9a32cd" stroke-dasharray="5,2" d="M609.57,-291.83C605.62,-285.8 600.45,-279.75 594.11,-276 564.44,-258.48 464.29,-282.54 440.11,-258 396.75,-213.99 413.55,-128.34 420.6,-100.2"/>
<polygon fill="#9a32cd" stroke="#9a32cd" points="606.36,-293.25 614.33,-300.23 612.45,-289.8 606.36,-293.25"/>
</a>
</g>
<text text-anchor="middle" x="433.11" y="-154.5" font-family="Helvetica,sans-Serif" font-size="10.00" fill="grey"> proxyInfo</text>
</g>
<!-- Node5&#45;&gt;Node5 -->
<g id="edge7_Node000005_Node000005" class="edge">
<title>Node5&#45;&gt;Node5</title>
<g id="a_edge7_Node000005_Node000005"><a xlink:title=" ">
<path fill="none" stroke="#9a32cd" stroke-dasharray="5,2" d="M636.94,-328.07C646.86,-331.07 655.98,-325.71 655.98,-312 655.98,-293.72 639.76,-290.29 627.08,-301.72"/>
<polygon fill="#9a32cd" stroke="#9a32cd" points="638.78,-325.09 628.38,-323.05 635.24,-331.13 638.78,-325.09"/>
</a>
</g>
<text text-anchor="middle" x="676.98" y="-308.5" font-family="Helvetica,sans-Serif" font-size="10.00" fill="grey"> proxyInfo</text>
</g>
<!-- Node5&#45;&gt;Node9 -->
<g id="edge15_Node000009_Node000005" class="edge">
<title>Node5&#45;&gt;Node9</title>
<g id="a_edge15_Node000009_Node000005"><a xlink:title=" ">
<path fill="none" stroke="#9a32cd" stroke-dasharray="5,2" d="M627.28,-291.12C636.78,-264.5 648.48,-217.04 626.11,-186 617.36,-173.85 602.9,-167.09 588.61,-163.35"/>
<polygon fill="#9a32cd" stroke="#9a32cd" points="624.06,-289.74 623.74,-300.33 630.59,-292.25 624.06,-289.74"/>
</a>
</g>
<text text-anchor="middle" x="659.11" y="-218.5" font-family="Helvetica,sans-Serif" font-size="10.00" fill="grey"> proxyInfo</text>
</g>
<!-- Node5&#45;&gt;Node10 -->
<g id="edge27_Node000010_Node000005" class="edge">
<title>Node5&#45;&gt;Node10</title>
<g id="a_edge27_Node000010_Node000005"><a xlink:title=" ">
<path fill="none" stroke="#9a32cd" stroke-dasharray="5,2" d="M647.8,-295.72C661.49,-286.73 676.52,-273.98 684.11,-258 710.8,-201.79 700.8,-177.66 683.11,-118 681.22,-111.63 677.37,-105.3 673.8,-100.37"/>
<polygon fill="#9a32cd" stroke="#9a32cd" points="646.19,-292.6 639.48,-300.8 649.83,-298.57 646.19,-292.6"/>
</a>
</g>
<text text-anchor="middle" x="717.11" y="-154.5" font-family="Helvetica,sans-Serif" font-size="10.00" fill="grey"> proxyInfo</text>
</g>
<!-- Node6 -->
<g id="Node000006" class="node">
<title>Node6</title>
<g id="a_Node000006"><a xlink:href="../../d4/d04/class_class.html" target="_top" xlink:title="Super root of all classes in Enforce script.">
<polygon fill="white" stroke="#666666" points="600.48,-476 559.73,-476 559.73,-456 600.48,-456 600.48,-476"/>
<text text-anchor="middle" x="580.11" y="-462.5" font-family="Helvetica,sans-Serif" font-size="10.00">Class</text>
</a>
</g>
</g>
<!-- Node6&#45;&gt;Node2 -->
<g id="edge20_Node000002_Node000006" class="edge">
<title>Node6&#45;&gt;Node2</title>
<g id="a_edge20_Node000002_Node000006"><a xlink:title=" ">
<path fill="none" stroke="#9a32cd" stroke-dasharray="5,2" d="M547.94,-465.1C486.31,-464.74 354.32,-461.2 316.11,-438 275.2,-413.16 211.57,-303.85 197.86,-258 178.4,-192.93 199.52,-150.58 259.11,-118 291.39,-100.35 332.2,-93.58 365.03,-91.24"/>
<polygon fill="#9a32cd" stroke="#9a32cd" points="547.75,-468.6 557.76,-465.13 547.77,-461.6 547.75,-468.6"/>
</a>
</g>
<text text-anchor="middle" x="224.73" y="-218.5" font-family="Helvetica,sans-Serif" font-size="10.00" fill="grey"> m_Instance</text>
</g>
<!-- Node6&#45;&gt;Node5 -->
<g id="edge8_Node000005_Node000006" class="edge">
<title>Node6&#45;&gt;Node5</title>
<g id="a_edge8_Node000005_Node000006"><a xlink:title=" ">
<path fill="none" stroke="#9a32cd" stroke-dasharray="5,2" d="M585.26,-444.91C593.81,-411.61 610.57,-346.28 616.75,-322.2"/>
<polygon fill="#9a32cd" stroke="#9a32cd" points="581.9,-443.92 582.81,-454.48 588.68,-445.66 581.9,-443.92"/>
</a>
</g>
<text text-anchor="middle" x="631.73" y="-398.5" font-family="Helvetica,sans-Serif" font-size="10.00" fill="grey"> m_Instance</text>
</g>
<!-- Node6&#45;&gt;Node9 -->
<g id="edge16_Node000009_Node000006" class="edge">
<title>Node6&#45;&gt;Node9</title>
<g id="a_edge16_Node000009_Node000006"><a xlink:title=" ">
<path fill="none" stroke="#9a32cd" stroke-dasharray="5,2" d="M570.58,-445.25C560.14,-422.45 544.07,-383.51 537.86,-348 525.91,-279.75 538.58,-195.61 543.41,-168.14"/>
<polygon fill="#9a32cd" stroke="#9a32cd" points="567.38,-446.67 574.79,-454.23 573.71,-443.69 567.38,-446.67"/>
</a>
</g>
<text text-anchor="middle" x="563.73" y="-308.5" font-family="Helvetica,sans-Serif" font-size="10.00" fill="grey"> m_Instance</text>
</g>
<!-- Node6&#45;&gt;Node10 -->
<g id="edge28_Node000010_Node000006" class="edge">
<title>Node6&#45;&gt;Node10</title>
<g id="a_edge28_Node000010_Node000006"><a xlink:title=" ">
<path fill="none" stroke="#9a32cd" stroke-dasharray="5,2" d="M611.69,-460.59C628.27,-456.9 648.01,-450.18 662.11,-438 695.95,-408.76 692.71,-390.34 707.11,-348 736.17,-262.57 782.47,-228.71 742.11,-148 730.9,-125.58 706.21,-109.69 688,-100.48"/>
<polygon fill="#9a32cd" stroke="#9a32cd" points="611.46,-457.07 602.31,-462.4 612.79,-463.94 611.46,-457.07"/>
</a>
</g>
<text text-anchor="middle" x="783.73" y="-218.5" font-family="Helvetica,sans-Serif" font-size="10.00" fill="grey"> m_Instance</text>
</g>
<!-- Node7 -->
<g id="Node000007" class="node">
<title>Node7</title>
<g id="a_Node000007"><a xlink:href="../../d5/d02/classstring.html" target="_top" xlink:title=" ">
<polygon fill="white" stroke="#666666" points="807.11,-476 767.11,-476 767.11,-456 807.11,-456 807.11,-476"/>
<text text-anchor="middle" x="787.11" y="-462.5" font-family="Helvetica,sans-Serif" font-size="10.00">string</text>
</a>
</g>
</g>
<!-- Node7&#45;&gt;Node2 -->
<g id="edge21_Node000002_Node000007" class="edge">
<title>Node7&#45;&gt;Node2</title>
<g id="a_edge21_Node000002_Node000007"><a xlink:title=" ">
<path fill="none" stroke="#9a32cd" stroke-dasharray="5,2" d="M818.29,-456.74C827.57,-452.67 836.69,-446.7 842.11,-438 857.58,-413.17 832.12,-211.24 814.11,-186 752,-98.95 685.37,-148.84 580.11,-130 536.57,-122.21 487.18,-109.24 455.61,-100.42"/>
<polygon fill="#9a32cd" stroke="#9a32cd" points="817.14,-453.43 808.96,-460.17 819.56,-460 817.14,-453.43"/>
</a>
</g>
<text text-anchor="middle" x="849.73" y="-218.5" font-family="Helvetica,sans-Serif" font-size="10.00" fill="grey"> m_Test</text>
</g>
<!-- Node7&#45;&gt;Node5 -->
<g id="edge9_Node000005_Node000007" class="edge">
<title>Node7&#45;&gt;Node5</title>
<g id="a_edge9_Node000005_Node000007"><a xlink:title=" ">
<path fill="none" stroke="#9a32cd" stroke-dasharray="5,2" d="M755.84,-455.62C744.49,-451.33 731.98,-445.5 721.86,-438 718.85,-435.77 649.72,-350.72 626.58,-322.21"/>
<polygon fill="#9a32cd" stroke="#9a32cd" points="754.64,-458.91 765.24,-458.9 756.95,-452.3 754.64,-458.91"/>
</a>
</g>
<text text-anchor="middle" x="738.73" y="-398.5" font-family="Helvetica,sans-Serif" font-size="10.00" fill="grey"> m_Test</text>
</g>
<!-- Node7&#45;&gt;Node7 -->
<g id="edge10_Node000007_Node000007" class="edge">
<title>Node7&#45;&gt;Node7</title>
<g id="a_edge10_Node000007_Node000007"><a xlink:title=" ">
<path fill="none" stroke="#9a32cd" stroke-dasharray="5,2" d="M812.88,-477.91C819.83,-477.28 825.11,-473.31 825.11,-466 825.11,-455.12 813.41,-451.64 801.93,-455.55"/>
<polygon fill="#9a32cd" stroke="#9a32cd" points="813.81,-474.5 803.43,-476.65 812.88,-481.44 813.81,-474.5"/>
</a>
</g>
<text text-anchor="middle" x="840.86" y="-462.5" font-family="Helvetica,sans-Serif" font-size="10.00" fill="grey"> Empty</text>
</g>
<!-- Node7&#45;&gt;Node9 -->
<g id="edge17_Node000009_Node000007" class="edge">
<title>Node7&#45;&gt;Node9</title>
<g id="a_edge17_Node000009_Node000007"><a xlink:title=" ">
<path fill="none" stroke="#9a32cd" stroke-dasharray="5,2" d="M782.4,-444.62C768.5,-386.26 725.98,-220.47 684.11,-186 669.78,-174.2 623.99,-166.93 588.85,-162.95"/>
<polygon fill="#9a32cd" stroke="#9a32cd" points="778.95,-445.23 784.64,-454.16 785.76,-443.63 778.95,-445.23"/>
</a>
</g>
<text text-anchor="middle" x="772.73" y="-308.5" font-family="Helvetica,sans-Serif" font-size="10.00" fill="grey"> m_Test</text>
</g>
<!-- Node7&#45;&gt;Node10 -->
<g id="edge29_Node000010_Node000007" class="edge">
<title>Node7&#45;&gt;Node10</title>
<g id="a_edge29_Node000010_Node000007"><a xlink:title=" ">
<path fill="none" stroke="#9a32cd" stroke-dasharray="5,2" d="M818.37,-460.77C835.27,-457.12 855.59,-450.39 870.11,-438 915.46,-399.3 991.05,-238.12 962.11,-186 935.81,-138.64 768.74,-107.14 697.85,-95.75"/>
<polygon fill="#9a32cd" stroke="#9a32cd" points="818.01,-457.27 808.82,-462.55 819.29,-464.15 818.01,-457.27"/>
</a>
</g>
<text text-anchor="middle" x="985.73" y="-218.5" font-family="Helvetica,sans-Serif" font-size="10.00" fill="grey"> m_Test</text>
</g>
<!-- Node8 -->
<g id="Node000008" class="node">
<title>Node8</title>
<g id="a_Node000008"><a xlink:href="../../dd/d0a/class_widget.html" target="_top" xlink:title=" ">
<polygon fill="white" stroke="#666666" points="953.48,-476 906.73,-476 906.73,-456 953.48,-456 953.48,-476"/>
<text text-anchor="middle" x="930.11" y="-462.5" font-family="Helvetica,sans-Serif" font-size="10.00">Widget</text>
</a>
</g>
</g>
<!-- Node8&#45;&gt;Node2 -->
<g id="edge22_Node000002_Node000008" class="edge">
<title>Node8&#45;&gt;Node2</title>
<g id="a_edge22_Node000002_Node000008"><a xlink:title=" ">
<path fill="none" stroke="#9a32cd" stroke-dasharray="5,2" d="M931.52,-444.18C933.78,-394.1 932.83,-265.23 871.11,-186 849.35,-158.07 834.98,-158.3 801.11,-148 718.68,-122.94 692.78,-145.9 608.11,-130 589.03,-126.42 585,-122.47 566.11,-118 537.84,-111.31 506.11,-105.18 479.73,-100.46"/>
<polygon fill="#9a32cd" stroke="#9a32cd" points="928.02,-443.93 930.96,-454.11 935.01,-444.32 928.02,-443.93"/>
</a>
</g>
<text text-anchor="middle" x="926.48" y="-218.5" font-family="Helvetica,sans-Serif" font-size="10.00" fill="grey"> m_Root</text>
</g>
<!-- Node8&#45;&gt;Node5 -->
<g id="edge11_Node000005_Node000008" class="edge">
<title>Node8&#45;&gt;Node5</title>
<g id="a_edge11_Node000005_Node000008"><a xlink:title=" ">
<path fill="none" stroke="#9a32cd" stroke-dasharray="5,2" d="M895.43,-460.29C875.38,-456.46 850.27,-449.7 830.36,-438 791.81,-415.36 797.54,-390.45 760.11,-366 720.48,-340.11 666.4,-324.34 638.12,-317.32"/>
<polygon fill="#9a32cd" stroke="#9a32cd" points="894.63,-463.7 905.08,-461.96 895.82,-456.8 894.63,-463.7"/>
</a>
</g>
<text text-anchor="middle" x="848.48" y="-398.5" font-family="Helvetica,sans-Serif" font-size="10.00" fill="grey"> m_Root</text>
</g>
<!-- Node8&#45;&gt;Node9 -->
<g id="edge18_Node000009_Node000008" class="edge">
<title>Node8&#45;&gt;Node9</title>
<g id="a_edge18_Node000009_Node000008"><a xlink:title=" ">
<path fill="none" stroke="#9a32cd" stroke-dasharray="5,2" d="M918.86,-445.91C906.71,-425.65 886.5,-392.92 867.11,-366 837.01,-324.21 831.56,-311.36 794.11,-276 784.15,-266.6 778.75,-267.72 769.11,-258 741.49,-230.16 751.44,-206.65 718.11,-186 697.05,-172.95 632.67,-165.57 588.68,-161.94"/>
<polygon fill="#9a32cd" stroke="#9a32cd" points="915.82,-447.65 923.94,-454.46 921.84,-444.08 915.82,-447.65"/>
</a>
</g>
<text text-anchor="middle" x="871.48" y="-308.5" font-family="Helvetica,sans-Serif" font-size="10.00" fill="grey"> m_Root</text>
</g>
<!-- Node8&#45;&gt;Node10 -->
<g id="edge30_Node000010_Node000008" class="edge">
<title>Node8&#45;&gt;Node10</title>
<g id="a_edge30_Node000010_Node000008"><a xlink:title=" ">
<path fill="none" stroke="#9a32cd" stroke-dasharray="5,2" d="M952.01,-448.16C955.06,-445.05 957.9,-441.63 960.11,-438 1019.34,-340.67 1064.45,-284.45 1007.11,-186 975.44,-131.63 776.3,-103.46 697.83,-94.36"/>
<polygon fill="#9a32cd" stroke="#9a32cd" points="949.96,-445.3 944.85,-454.58 954.63,-450.51 949.96,-445.3"/>
</a>
</g>
<text text-anchor="middle" x="1050.48" y="-218.5" font-family="Helvetica,sans-Serif" font-size="10.00" fill="grey"> m_Root</text>
</g>
<!-- Node9&#45;&gt;Node2 -->
<g id="edge23_Node000002_Node000009" class="edge">
<title>Node9&#45;&gt;Node2</title>
<g id="a_edge23_Node000002_Node000009"><a xlink:title=" ">
<path fill="none" stroke="#9a32cd" stroke-dasharray="5,2" d="M490.63,-147.11C477.61,-143.15 464.27,-137.64 453.11,-130 441.97,-122.38 433.15,-109.31 428.04,-100.42"/>
<polygon fill="#9a32cd" stroke="#9a32cd" points="489.4,-150.4 499.97,-149.69 491.26,-143.66 489.4,-150.4"/>
</a>
</g>
<text text-anchor="middle" x="484.61" y="-120.5" font-family="Helvetica,sans-Serif" font-size="10.00" fill="grey"> m_Subgroups</text>
</g>
<!-- Node9&#45;&gt;Node5 -->
<g id="edge12_Node000005_Node000009" class="edge">
<title>Node9&#45;&gt;Node5</title>
<g id="a_edge12_Node000005_Node000009"><a xlink:title=" ">
<path fill="none" stroke="#9a32cd" stroke-dasharray="5,2" d="M544.69,-179.64C545.18,-200.78 548.53,-233.85 563.11,-258 569.82,-269.11 576.52,-267.25 586.11,-276 595.12,-284.22 604.58,-294.44 611.06,-301.72"/>
<polygon fill="#9a32cd" stroke="#9a32cd" points="548.19,-179.73 544.69,-169.73 541.19,-179.73 548.19,-179.73"/>
</a>
</g>
<text text-anchor="middle" x="594.61" y="-218.5" font-family="Helvetica,sans-Serif" font-size="10.00" fill="grey"> m_Subgroups</text>
</g>
<!-- Node9&#45;&gt;Node9 -->
<g id="edge19_Node000009_Node000009" class="edge">
<title>Node9&#45;&gt;Node9</title>
<g id="a_edge19_Node000009_Node000009"><a xlink:title=" ">
<path fill="none" stroke="#9a32cd" stroke-dasharray="5,2" d="M599.74,-162.76C603.84,-161.7 606.36,-160.11 606.36,-158 606.36,-154.35 598.82,-152.26 588.6,-151.75"/>
<polygon fill="#9a32cd" stroke="#9a32cd" points="599.55,-159.26 590.1,-164.05 600.48,-166.19 599.55,-159.26"/>
</a>
</g>
<text text-anchor="middle" x="637.86" y="-154.5" font-family="Helvetica,sans-Serif" font-size="10.00" fill="grey"> m_Subgroups</text>
</g>
<!-- Node9&#45;&gt;Node10 -->
<g id="edge31_Node000010_Node000009" class="edge">
<title>Node9&#45;&gt;Node10</title>
<g id="a_edge31_Node000010_Node000009"><a xlink:title=" ">
<path fill="none" stroke="#9a32cd" stroke-dasharray="5,2" d="M572.45,-142.09C595.86,-129.32 628.87,-111.31 648.81,-100.44"/>
<polygon fill="#9a32cd" stroke="#9a32cd" points="570.88,-138.96 563.77,-146.82 574.23,-145.1 570.88,-138.96"/>
</a>
</g>
<text text-anchor="middle" x="647.61" y="-120.5" font-family="Helvetica,sans-Serif" font-size="10.00" fill="grey"> m_Subgroups</text>
</g>
<!-- Node10&#45;&gt;Node1 -->
<g id="edge24_Node000001_Node000010" class="edge">
<title>Node10&#45;&gt;Node1</title>
<g id="a_edge24_Node000001_Node000010"><a xlink:title=" ">
<path fill="none" stroke="#9a32cd" stroke-dasharray="5,2" d="M639.01,-74.22C616.69,-62.04 585.14,-44.83 562.47,-32.47"/>
<polygon fill="#9a32cd" stroke="#9a32cd" points="637.07,-77.15 647.52,-78.86 640.42,-71 637.07,-77.15"/>
</a>
</g>
<text text-anchor="middle" x="633.86" y="-52.5" font-family="Helvetica,sans-Serif" font-size="10.00" fill="grey"> m_keys</text>
</g>
</g>
</svg>
