<?xml version="1.0" encoding="UTF-8" standalone="no"?>
<!DOCTYPE svg PUBLIC "-//W3C//DTD SVG 1.1//EN"
 "http://www.w3.org/Graphics/SVG/1.1/DTD/svg11.dtd">
<!-- Generated by graphviz version 11.0.0 (20240428.1522)
 -->
<!-- Title: OverheatingParticle Pages: 1 -->
<!--zoomable 244 -->

<svg id="main" version="1.1" xmlns="http://www.w3.org/2000/svg" xmlns:xlink="http://www.w3.org/1999/xlink" xml:space="preserve" onload="init(evt)">
<style type="text/css"><![CDATA[
.node, .edge {opacity: 0.7;}
.node.selected, .edge.selected {opacity: 1;}
.edge:hover path { stroke: red; }
.edge:hover polygon { stroke: red; fill: red; }
]]></style>

<defs>
  <circle id="rim" cx="0" cy="0" r="7"/>
  <circle id="rim2" cx="0" cy="0" r="3.5"/>
  <g id="zoomPlus">
    <use xlink:href="#rim" fill="#404040"><set attributeName="fill" to="#808080" begin="zoomplus.mouseover" end="zoomplus.mouseout"/></use>
    <path d="M-4,0h8M0,-4v8" fill="none" stroke="white" stroke-width="1.5" pointer-events="none"/>
  </g>
  <g id="zoomMin">
    <use xlink:href="#rim" fill="#404040"><set attributeName="fill" to="#808080" begin="zoomminus.mouseover" end="zoomminus.mouseout"/></use>
    <path d="M-4,0h8" fill="none" stroke="white" stroke-width="1.5" pointer-events="none"/>
  </g>
  <g id="arrowUp" transform="translate(30 24)">
    <use xlink:href="#rim"/>
    <path pointer-events="none" fill="none" stroke="white" stroke-width="1.5" d="M0,-3.0v7 M-2.5,-0.5L0,-3.0L2.5,-0.5"/>
  </g>
  <g id="arrowRight" transform="rotate(90) translate(36 -43)">
    <use xlink:href="#rim"/>
    <path pointer-events="none" fill="none" stroke="white" stroke-width="1.5" d="M0,-3.0v7 M-2.5,-0.5L0,-3.0L2.5,-0.5"/>
  </g>
  <g id="arrowDown" transform="rotate(180) translate(-30 -48)">
    <use xlink:href="#rim"/>
    <path pointer-events="none" fill="none" stroke="white" stroke-width="1.5" d="M0,-3.0v7 M-2.5,-0.5L0,-3.0L2.5,-0.5"/>
  </g>
  <g id="arrowLeft" transform="rotate(270) translate(-36 17)">
    <use xlink:href="#rim"/>
    <path pointer-events="none" fill="none" stroke="white" stroke-width="1.5" d="M0,-3.0v7 M-2.5,-0.5L0,-3.0L2.5,-0.5"/>
  </g>
  <g id="resetDef">
    <use xlink:href="#rim2" fill="#404040"><set attributeName="fill" to="#808080" begin="reset.mouseover" end="reset.mouseout"/></use>
  </g>
</defs>
<script type="application/ecmascript">
var viewWidth = 812;
var viewHeight = 244;
var sectionId = 'dynsection-0';
</script>
<script type="application/ecmascript" xlink:href="../../svg.min.js"/>
<svg id="graph" class="graph">
<g id="viewport">
<title>OverheatingParticle</title>
<!-- Node1 -->
<g id="Node000001" class="node">
<title>Node1</title>
<g id="a_Node000001"><a xlink:title=" ">
<polygon fill="#999999" stroke="#666666" points="415.88,-20 315.88,-20 315.88,0 415.88,0 415.88,-20"/>
<text text-anchor="middle" x="365.88" y="-6.5" font-family="Helvetica,sans-Serif" font-size="10.00">OverheatingParticle</text>
</a>
</g>
</g>
<!-- Node2 -->
<g id="Node000002" class="node">
<title>Node2</title>
<g id="a_Node000002"><a xlink:href="../../de/d05/class_particle.html" target="_top" xlink:title="Legacy way of using particles in the game.">
<polygon fill="white" stroke="#666666" points="390.38,-90 341.38,-90 341.38,-70 390.38,-70 390.38,-90"/>
<text text-anchor="middle" x="365.88" y="-76.5" font-family="Helvetica,sans-Serif" font-size="10.00">Particle</text>
</a>
</g>
</g>
<!-- Node2&#45;&gt;Node1 -->
<g id="edge1_Node000001_Node000002" class="edge">
<title>Node2&#45;&gt;Node1</title>
<g id="a_edge1_Node000001_Node000002"><a xlink:title=" ">
<path fill="none" stroke="#9a32cd" stroke-dasharray="5,2" d="M365.88,-58.2C365.88,-45.58 365.88,-30.09 365.88,-20.37"/>
<polygon fill="#9a32cd" stroke="#9a32cd" points="362.38,-58.03 365.88,-68.03 369.38,-58.03 362.38,-58.03"/>
</a>
</g>
<text text-anchor="middle" x="390.62" y="-40.5" font-family="Helvetica,sans-Serif" font-size="10.00" fill="grey"> m_Particle</text>
</g>
<!-- Node3 -->
<g id="Node000003" class="node">
<title>Node3</title>
<g id="a_Node000003"><a xlink:title=" ">
<polygon fill="white" stroke="#666666" points="546.62,-222 475.12,-222 475.12,-202 546.62,-202 546.62,-222"/>
<text text-anchor="middle" x="510.88" y="-208.5" font-family="Helvetica,sans-Serif" font-size="10.00">ParticleBase</text>
</a>
</g>
</g>
<!-- Node3&#45;&gt;Node2 -->
<g id="edge2_Node000002_Node000003" class="edge">
<title>Node3&#45;&gt;Node2</title>
<g id="a_edge2_Node000002_Node000003"><a xlink:title=" ">
<path fill="none" stroke="#8b1a1a" d="M512.37,-190.32C512.82,-167.53 509.8,-131.28 488.88,-110 475.38,-96.27 422.58,-87.74 390.71,-83.73"/>
<polygon fill="#8b1a1a" stroke="#8b1a1a" points="508.88,-190.03 511.91,-200.19 515.87,-190.36 508.88,-190.03"/>
</a>
</g>
</g>
<!-- Node4 -->
<g id="Node000004" class="node">
<title>Node4</title>
<g id="a_Node000004"><a xlink:href="../../db/d06/class_param3.html" target="_top" xlink:title=" ">
<polygon fill="white" stroke="#666666" points="49.75,-222 0,-222 0,-202 49.75,-202 49.75,-222"/>
<text text-anchor="middle" x="24.88" y="-208.5" font-family="Helvetica,sans-Serif" font-size="10.00">Param3</text>
</a>
</g>
</g>
<!-- Node4&#45;&gt;Node1 -->
<g id="edge11_Node000001_Node000004" class="edge">
<title>Node4&#45;&gt;Node1</title>
<g id="a_edge11_Node000001_Node000004"><a xlink:title=" ">
<path fill="none" stroke="#9a32cd" stroke-dasharray="5,2" d="M20.23,-190.4C16.52,-168.75 14.1,-134.5 28.88,-110 58.71,-60.52 229.03,-30.05 315.51,-17.55"/>
<polygon fill="#9a32cd" stroke="#9a32cd" points="16.76,-190.91 22.14,-200.04 23.63,-189.55 16.76,-190.91"/>
</a>
</g>
<text text-anchor="middle" x="122.12" y="-76.5" font-family="Helvetica,sans-Serif" font-size="10.00" fill="grey"> m_ParticleID</text>
</g>
<!-- Node4&#45;&gt;Node2 -->
<g id="edge3_Node000002_Node000004" class="edge">
<title>Node4&#45;&gt;Node2</title>
<g id="a_edge3_Node000002_Node000004"><a xlink:title=" ">
<path fill="none" stroke="#9a32cd" stroke-dasharray="5,2" d="M27.42,-190.4C31.52,-166.82 41.95,-129.01 67.88,-110 70.63,-107.98 269.87,-89.72 340.99,-83.25"/>
<polygon fill="#9a32cd" stroke="#9a32cd" points="24,-189.64 25.99,-200.05 30.92,-190.67 24,-189.64"/>
</a>
</g>
<text text-anchor="middle" x="106.88" y="-148.5" font-family="Helvetica,sans-Serif" font-size="10.00" fill="grey"> MAX_EMITORS</text>
<text text-anchor="middle" x="106.88" y="-136.5" font-family="Helvetica,sans-Serif" font-size="10.00" fill="grey">m_ParticleID</text>
<text text-anchor="middle" x="106.88" y="-124.5" font-family="Helvetica,sans-Serif" font-size="10.00" fill="grey">m_PreviousFrame</text>
</g>
<!-- Node5 -->
<g id="Node000005" class="node">
<title>Node5</title>
<g id="a_Node000005"><a xlink:href="../../d4/d03/classfloat.html" target="_top" xlink:title=" ">
<polygon fill="white" stroke="#666666" points="157.88,-222 123.88,-222 123.88,-202 157.88,-202 157.88,-222"/>
<text text-anchor="middle" x="140.88" y="-208.5" font-family="Helvetica,sans-Serif" font-size="10.00">float</text>
</a>
</g>
</g>
<!-- Node5&#45;&gt;Node1 -->
<g id="edge14_Node000001_Node000005" class="edge">
<title>Node5&#45;&gt;Node1</title>
<g id="a_edge14_Node000001_Node000005"><a xlink:title=" ">
<path fill="none" stroke="#9a32cd" stroke-dasharray="5,2" d="M136.9,-190.59C133.83,-168.83 132.34,-134.25 147.88,-110 184.53,-52.77 263.29,-28.26 315.41,-18.02"/>
<polygon fill="#9a32cd" stroke="#9a32cd" points="133.42,-190.97 138.53,-200.24 140.32,-189.8 133.42,-190.97"/>
</a>
</g>
<text text-anchor="middle" x="240.5" y="-82.5" font-family="Helvetica,sans-Serif" font-size="10.00" fill="grey"> m_OverheatingLimitMax</text>
<text text-anchor="middle" x="240.5" y="-70.5" font-family="Helvetica,sans-Serif" font-size="10.00" fill="grey">m_OverheatingLimitMin</text>
</g>
<!-- Node5&#45;&gt;Node2 -->
<g id="edge4_Node000002_Node000005" class="edge">
<title>Node5&#45;&gt;Node2</title>
<g id="a_edge4_Node000002_Node000005"><a xlink:title=" ">
<path fill="none" stroke="#9a32cd" stroke-dasharray="5,2" d="M143.9,-190.34C148.48,-166.99 159.49,-129.67 184.88,-110 197.04,-100.57 294.23,-88.83 340.95,-83.66"/>
<polygon fill="#9a32cd" stroke="#9a32cd" points="140.46,-189.74 142.23,-200.18 147.36,-190.91 140.46,-189.74"/>
</a>
</g>
<text text-anchor="middle" x="222.38" y="-148.5" font-family="Helvetica,sans-Serif" font-size="10.00" fill="grey"> m_Lifetime</text>
<text text-anchor="middle" x="222.38" y="-136.5" font-family="Helvetica,sans-Serif" font-size="10.00" fill="grey">m_MaxOriInterval</text>
<text text-anchor="middle" x="222.38" y="-124.5" font-family="Helvetica,sans-Serif" font-size="10.00" fill="grey">m_MaxOriWiggle</text>
</g>
<!-- Node5&#45;&gt;Node5 -->
<g id="edge5_Node000005_Node000005" class="edge">
<title>Node5&#45;&gt;Node5</title>
<g id="a_edge5_Node000005_Node000005"><a xlink:title=" ">
<path fill="none" stroke="#9a32cd" stroke-dasharray="5,2" d="M162.55,-225.5C169.94,-225.58 175.88,-221.08 175.88,-212 175.88,-198.64 163.02,-195.2 151.63,-201.67"/>
<polygon fill="#9a32cd" stroke="#9a32cd" points="163.66,-222.17 153.08,-222.75 161.71,-228.9 163.66,-222.17"/>
</a>
</g>
<text text-anchor="middle" x="198" y="-220.5" font-family="Helvetica,sans-Serif" font-size="10.00" fill="grey"> LOWEST</text>
<text text-anchor="middle" x="198" y="-208.5" font-family="Helvetica,sans-Serif" font-size="10.00" fill="grey">MAX</text>
<text text-anchor="middle" x="198" y="-196.5" font-family="Helvetica,sans-Serif" font-size="10.00" fill="grey">MIN</text>
</g>
<!-- Node6 -->
<g id="Node000006" class="node">
<title>Node6</title>
<g id="a_Node000006"><a xlink:href="../../d9/d09/classbool.html" target="_top" xlink:title=" ">
<polygon fill="white" stroke="#666666" points="382.88,-222 348.88,-222 348.88,-202 382.88,-202 382.88,-222"/>
<text text-anchor="middle" x="365.88" y="-208.5" font-family="Helvetica,sans-Serif" font-size="10.00">bool</text>
</a>
</g>
</g>
<!-- Node6&#45;&gt;Node2 -->
<g id="edge6_Node000002_Node000006" class="edge">
<title>Node6&#45;&gt;Node2</title>
<g id="a_edge6_Node000002_Node000006"><a xlink:title=" ">
<path fill="none" stroke="#9a32cd" stroke-dasharray="5,2" d="M365.88,-190.19C365.88,-161.49 365.88,-110.98 365.88,-90.26"/>
<polygon fill="#9a32cd" stroke="#9a32cd" points="362.38,-190.14 365.88,-200.14 369.38,-190.14 362.38,-190.14"/>
</a>
</g>
<text text-anchor="start" x="365.88" y="-160.5" font-family="Helvetica,sans-Serif" font-size="10.00" fill="grey"> m_ForceOrientationRelative</text>
<text text-anchor="middle" x="427" y="-148.5" font-family="Helvetica,sans-Serif" font-size="10.00" fill="grey">ToWorld</text>
<text text-anchor="middle" x="427" y="-136.5" font-family="Helvetica,sans-Serif" font-size="10.00" fill="grey">m_IsRepeat</text>
<text text-anchor="middle" x="427" y="-124.5" font-family="Helvetica,sans-Serif" font-size="10.00" fill="grey">m_MarkedForDeletion</text>
<text text-anchor="middle" x="427" y="-112.5" font-family="Helvetica,sans-Serif" font-size="10.00" fill="grey">m_WiggleProcessing</text>
</g>
<!-- Node7 -->
<g id="Node000007" class="node">
<title>Node7</title>
<g id="a_Node000007"><a xlink:href="../../d7/d0c/classvector.html" target="_top" xlink:title=" ">
<polygon fill="white" stroke="#666666" points="650.62,-222 609.12,-222 609.12,-202 650.62,-202 650.62,-222"/>
<text text-anchor="middle" x="629.88" y="-208.5" font-family="Helvetica,sans-Serif" font-size="10.00">vector</text>
</a>
</g>
</g>
<!-- Node7&#45;&gt;Node1 -->
<g id="edge13_Node000001_Node000007" class="edge">
<title>Node7&#45;&gt;Node1</title>
<g id="a_edge13_Node000001_Node000007"><a xlink:title=" ">
<path fill="none" stroke="#9a32cd" stroke-dasharray="5,2" d="M645.64,-192.94C650.56,-186.2 655.35,-178.19 657.88,-170 665.75,-144.52 673.41,-131.67 657.88,-110 602.67,-33 484.22,-15.15 416.36,-11.47"/>
<polygon fill="#9a32cd" stroke="#9a32cd" points="643.05,-190.59 639.55,-200.59 648.52,-194.95 643.05,-190.59"/>
</a>
</g>
<text text-anchor="middle" x="666.88" y="-82.5" font-family="Helvetica,sans-Serif" font-size="10.00" fill="grey"> m_LocalOri</text>
<text text-anchor="middle" x="666.88" y="-70.5" font-family="Helvetica,sans-Serif" font-size="10.00" fill="grey">m_LocalPos</text>
</g>
<!-- Node7&#45;&gt;Node2 -->
<g id="edge7_Node000002_Node000007" class="edge">
<title>Node7&#45;&gt;Node2</title>
<g id="a_edge7_Node000002_Node000007"><a xlink:title=" ">
<path fill="none" stroke="#9a32cd" stroke-dasharray="5,2" d="M598,-204.05C577.56,-198.11 551.8,-187.64 534.88,-170 515.1,-149.39 533.71,-128.41 511.88,-110 493.85,-94.8 427.32,-86.53 390.61,-83.04"/>
<polygon fill="#9a32cd" stroke="#9a32cd" points="596.98,-207.4 607.54,-206.58 598.77,-200.63 596.98,-207.4"/>
</a>
</g>
<text text-anchor="middle" x="596.38" y="-160.5" font-family="Helvetica,sans-Serif" font-size="10.00" fill="grey"> m_DefaultOri</text>
<text text-anchor="middle" x="596.38" y="-148.5" font-family="Helvetica,sans-Serif" font-size="10.00" fill="grey">m_DefaultPos</text>
<text text-anchor="middle" x="596.38" y="-136.5" font-family="Helvetica,sans-Serif" font-size="10.00" fill="grey">m_DefaultWorldOri</text>
<text text-anchor="middle" x="596.38" y="-124.5" font-family="Helvetica,sans-Serif" font-size="10.00" fill="grey">m_DefaultWorldPos</text>
<text text-anchor="middle" x="596.38" y="-112.5" font-family="Helvetica,sans-Serif" font-size="10.00" fill="grey">m_GlobalPosPreviousFrame</text>
</g>
<!-- Node7&#45;&gt;Node7 -->
<g id="edge8_Node000007_Node000007" class="edge">
<title>Node7&#45;&gt;Node7</title>
<g id="a_edge8_Node000007_Node000007"><a xlink:title=" ">
<path fill="none" stroke="#9a32cd" stroke-dasharray="5,2" d="M652.74,-225.46C661.43,-225.98 668.62,-221.5 668.62,-212 668.62,-198.64 654.39,-195.2 641.78,-201.67"/>
<polygon fill="#9a32cd" stroke="#9a32cd" points="653.81,-222.12 643.23,-222.75 651.89,-228.86 653.81,-222.12"/>
</a>
</g>
<text text-anchor="middle" x="685.88" y="-226.5" font-family="Helvetica,sans-Serif" font-size="10.00" fill="grey"> Aside</text>
<text text-anchor="middle" x="685.88" y="-214.5" font-family="Helvetica,sans-Serif" font-size="10.00" fill="grey">Forward</text>
<text text-anchor="middle" x="685.88" y="-202.5" font-family="Helvetica,sans-Serif" font-size="10.00" fill="grey">Up</text>
<text text-anchor="middle" x="685.88" y="-190.5" font-family="Helvetica,sans-Serif" font-size="10.00" fill="grey">Zero</text>
</g>
<!-- Node8 -->
<g id="Node000008" class="node">
<title>Node8</title>
<g id="a_Node000008"><a xlink:href="../../d8/d08/class_timer.html" target="_top" xlink:title=" ">
<polygon fill="white" stroke="#666666" points="284.88,-222 244.88,-222 244.88,-202 284.88,-202 284.88,-222"/>
<text text-anchor="middle" x="264.88" y="-208.5" font-family="Helvetica,sans-Serif" font-size="10.00">Timer</text>
</a>
</g>
</g>
<!-- Node8&#45;&gt;Node2 -->
<g id="edge9_Node000002_Node000008" class="edge">
<title>Node8&#45;&gt;Node2</title>
<g id="a_edge9_Node000002_Node000008"><a xlink:title=" ">
<path fill="none" stroke="#9a32cd" stroke-dasharray="5,2" d="M263.12,-190.44C262.35,-168.04 264.67,-132.42 283.88,-110 298.12,-93.37 322.54,-86.28 341.03,-83.25"/>
<polygon fill="#9a32cd" stroke="#9a32cd" points="259.6,-190.35 263.7,-200.12 266.59,-189.93 259.6,-190.35"/>
</a>
</g>
<text text-anchor="middle" x="322.88" y="-136.5" font-family="Helvetica,sans-Serif" font-size="10.00" fill="grey"> m_RandomizeOri</text>
</g>
<!-- Node9 -->
<g id="Node000009" class="node">
<title>Node9</title>
<g id="a_Node000009"><a xlink:href="../../d8/d03/class_object.html" target="_top" xlink:title=" ">
<polygon fill="white" stroke="#666666" points="768.12,-222 723.62,-222 723.62,-202 768.12,-202 768.12,-222"/>
<text text-anchor="middle" x="745.88" y="-208.5" font-family="Helvetica,sans-Serif" font-size="10.00">Object</text>
</a>
</g>
</g>
<!-- Node9&#45;&gt;Node1 -->
<g id="edge12_Node000001_Node000009" class="edge">
<title>Node9&#45;&gt;Node1</title>
<g id="a_edge12_Node000001_Node000009"><a xlink:title=" ">
<path fill="none" stroke="#9a32cd" stroke-dasharray="5,2" d="M765.05,-193.37C770.98,-186.69 776.77,-178.61 779.88,-170 788.92,-144.92 793.78,-132.75 779.88,-110 741.95,-47.97 517.78,-22.81 416.05,-14.49"/>
<polygon fill="#9a32cd" stroke="#9a32cd" points="762.64,-190.83 758.17,-200.43 767.65,-195.71 762.64,-190.83"/>
</a>
</g>
<text text-anchor="middle" x="781.38" y="-76.5" font-family="Helvetica,sans-Serif" font-size="10.00" fill="grey"> m_Parent</text>
</g>
<!-- Node9&#45;&gt;Node2 -->
<g id="edge10_Node000002_Node000009" class="edge">
<title>Node9&#45;&gt;Node2</title>
<g id="a_edge10_Node000002_Node000009"><a xlink:title=" ">
<path fill="none" stroke="#9a32cd" stroke-dasharray="5,2" d="M728.41,-193.87C721.35,-186.69 713.26,-178.13 706.38,-170 684.92,-144.66 690.77,-126.36 661.88,-110 615.71,-83.86 452.92,-81 390.5,-80.89"/>
<polygon fill="#9a32cd" stroke="#9a32cd" points="725.48,-195.88 735.02,-200.48 730.43,-190.94 725.48,-195.88"/>
</a>
</g>
<text text-anchor="middle" x="742.62" y="-142.5" font-family="Helvetica,sans-Serif" font-size="10.00" fill="grey"> m_ParentObject</text>
<text text-anchor="middle" x="742.62" y="-130.5" font-family="Helvetica,sans-Serif" font-size="10.00" fill="grey">m_ParticleEffect</text>
</g>
</g>
</svg>

<g id="navigator" transform="translate(0 0)" fill="#404254">
  <rect fill="#f2f5e9" fill-opacity="0.5" stroke="#606060" stroke-width=".5" x="0" y="0" width="60" height="60"/>
  <use id="zoomplus" xlink:href="#zoomPlus" x="17" y="9" onmousedown="handleZoom(evt,'in')"/>
  <use id="zoomminus" xlink:href="#zoomMin" x="42" y="9" onmousedown="handleZoom(evt,'out')"/>
  <use id="reset" xlink:href="#resetDef" x="30" y="36" onmousedown="handleReset()"/>
   <use id="arrowup" xlink:href="#arrowUp" x="0" y="0" onmousedown="handlePan(0,-1)"/>
  <use id="arrowright" xlink:href="#arrowRight" x="0" y="0" onmousedown="handlePan(1,0)"/>
  <use id="arrowdown" xlink:href="#arrowDown" x="0" y="0" onmousedown="handlePan(0,1)"/>
  <use id="arrowleft" xlink:href="#arrowLeft" x="0" y="0" onmousedown="handlePan(-1,0)"/>
</g>
<svg viewBox="0 0 15 15" width="100%" height="30px" preserveAspectRatio="xMaxYMin meet">
 <g id="arrow_out" transform="scale(0.3 0.3)">
  <a xlink:href="class_overheating_particle__coll__graph_org.svg" target="_base">
   <rect id="button" ry="5" rx="5" y="6" x="6" height="38" width="38"
        fill="#f2f5e9" fill-opacity="0.5" stroke="#606060" stroke-width="1.0"/>
   <path id="arrow"
     d="M 11.500037,31.436501 C 11.940474,20.09759 22.043105,11.32322 32.158766,21.979434 L 37.068811,17.246167 C 37.068811,17.246167 37.088388,32 37.088388,32 L 22.160133,31.978069 C 22.160133,31.978069 26.997745,27.140456 26.997745,27.140456 C 18.528582,18.264221 13.291696,25.230495 11.500037,31.436501 z"
     style="fill:#404040;"/>
  </a>
 </g>
</svg>

<style type='text/css'>
<![CDATA[
[data-mouse-over-selected='false'] { opacity: 0.7; }
[data-mouse-over-selected='true']  { opacity: 1.0; }
]]>
</style>
<script type="application/ecmascript"><![CDATA[
document.addEventListener('DOMContentLoaded', (event) => {
  highlightEdges();
  highlightAdjacentNodes();
});
]]></script>
</svg>
