<?xml version="1.0" encoding="UTF-8" standalone="no"?>
<!DOCTYPE svg PUBLIC "-//W3C//DTD SVG 1.1//EN"
 "http://www.w3.org/Graphics/SVG/1.1/DTD/svg11.dtd">
<!-- Generated by graphviz version 11.0.0 (20240428.1522)
 -->
<!-- Title: HealthNotfr Pages: 1 -->
<!--zoomable 397 -->

<svg id="main" version="1.1" xmlns="http://www.w3.org/2000/svg" xmlns:xlink="http://www.w3.org/1999/xlink" xml:space="preserve" onload="init(evt)">
<style type="text/css"><![CDATA[
.node, .edge {opacity: 0.7;}
.node.selected, .edge.selected {opacity: 1;}
.edge:hover path { stroke: red; }
.edge:hover polygon { stroke: red; fill: red; }
]]></style>

<defs>
  <circle id="rim" cx="0" cy="0" r="7"/>
  <circle id="rim2" cx="0" cy="0" r="3.5"/>
  <g id="zoomPlus">
    <use xlink:href="#rim" fill="#404040"><set attributeName="fill" to="#808080" begin="zoomplus.mouseover" end="zoomplus.mouseout"/></use>
    <path d="M-4,0h8M0,-4v8" fill="none" stroke="white" stroke-width="1.5" pointer-events="none"/>
  </g>
  <g id="zoomMin">
    <use xlink:href="#rim" fill="#404040"><set attributeName="fill" to="#808080" begin="zoomminus.mouseover" end="zoomminus.mouseout"/></use>
    <path d="M-4,0h8" fill="none" stroke="white" stroke-width="1.5" pointer-events="none"/>
  </g>
  <g id="arrowUp" transform="translate(30 24)">
    <use xlink:href="#rim"/>
    <path pointer-events="none" fill="none" stroke="white" stroke-width="1.5" d="M0,-3.0v7 M-2.5,-0.5L0,-3.0L2.5,-0.5"/>
  </g>
  <g id="arrowRight" transform="rotate(90) translate(36 -43)">
    <use xlink:href="#rim"/>
    <path pointer-events="none" fill="none" stroke="white" stroke-width="1.5" d="M0,-3.0v7 M-2.5,-0.5L0,-3.0L2.5,-0.5"/>
  </g>
  <g id="arrowDown" transform="rotate(180) translate(-30 -48)">
    <use xlink:href="#rim"/>
    <path pointer-events="none" fill="none" stroke="white" stroke-width="1.5" d="M0,-3.0v7 M-2.5,-0.5L0,-3.0L2.5,-0.5"/>
  </g>
  <g id="arrowLeft" transform="rotate(270) translate(-36 17)">
    <use xlink:href="#rim"/>
    <path pointer-events="none" fill="none" stroke="white" stroke-width="1.5" d="M0,-3.0v7 M-2.5,-0.5L0,-3.0L2.5,-0.5"/>
  </g>
  <g id="resetDef">
    <use xlink:href="#rim2" fill="#404040"><set attributeName="fill" to="#808080" begin="reset.mouseover" end="reset.mouseout"/></use>
  </g>
</defs>
<script type="application/ecmascript">
var viewWidth = 554;
var viewHeight = 397;
var sectionId = 'dynsection-1';
</script>
<script type="application/ecmascript" xlink:href="../../svg.min.js"/>
<svg id="graph" class="graph">
<g id="viewport">
<title>HealthNotfr</title>
<!-- Node1 -->
<g id="Node000001" class="node">
<title>Node1</title>
<g id="a_Node000001"><a xlink:title=" ">
<polygon fill="#999999" stroke="#666666" points="94,-20 30,-20 30,0 94,0 94,-20"/>
<text text-anchor="middle" x="62" y="-6.5" font-family="Helvetica,sans-Serif" font-size="10.00">HealthNotfr</text>
</a>
</g>
</g>
<!-- Node2 -->
<g id="Node000002" class="node">
<title>Node2</title>
<g id="a_Node000002"><a xlink:href="../../d9/d0b/class_notifier_base.html" target="_top" xlink:title=" ">
<polygon fill="white" stroke="#666666" points="225.25,-103 156.75,-103 156.75,-83 225.25,-83 225.25,-103"/>
<text text-anchor="middle" x="191" y="-89.5" font-family="Helvetica,sans-Serif" font-size="10.00">NotifierBase</text>
</a>
</g>
</g>
<!-- Node2&#45;&gt;Node1 -->
<g id="edge1_Node000001_Node000002" class="edge">
<title>Node2&#45;&gt;Node1</title>
<g id="a_edge1_Node000001_Node000002"><a xlink:title=" ">
<path fill="none" stroke="#8b1a1a" d="M166.28,-76.48C139.86,-59.89 98.84,-34.13 76.95,-20.39"/>
<polygon fill="#8b1a1a" stroke="#8b1a1a" points="164.34,-79.39 174.67,-81.74 168.06,-73.46 164.34,-79.39"/>
</a>
</g>
</g>
<!-- Node3 -->
<g id="Node000003" class="node">
<title>Node3</title>
<g id="a_Node000003"><a xlink:href="../../d4/d03/classfloat.html" target="_top" xlink:title=" ">
<polygon fill="white" stroke="#666666" points="34,-265 0,-265 0,-245 34,-245 34,-265"/>
<text text-anchor="middle" x="17" y="-251.5" font-family="Helvetica,sans-Serif" font-size="10.00">float</text>
</a>
</g>
</g>
<!-- Node3&#45;&gt;Node1 -->
<g id="edge10_Node000001_Node000003" class="edge">
<title>Node3&#45;&gt;Node1</title>
<g id="a_edge10_Node000001_Node000003"><a xlink:title=" ">
<path fill="none" stroke="#9a32cd" stroke-dasharray="5,2" d="M16.52,-233.62C16.26,-197.18 18.45,-118.87 39.25,-57 43.74,-43.66 51.35,-29.26 56.52,-20.2"/>
<polygon fill="#9a32cd" stroke="#9a32cd" points="13.01,-233.21 16.66,-243.16 20.01,-233.11 13.01,-233.21"/>
</a>
</g>
<text text-anchor="middle" x="94.38" y="-119.5" font-family="Helvetica,sans-Serif" font-size="10.00" fill="grey"> DEC_TRESHOLD_HIGH</text>
<text text-anchor="middle" x="94.38" y="-107.5" font-family="Helvetica,sans-Serif" font-size="10.00" fill="grey">DEC_TRESHOLD_LOW</text>
<text text-anchor="middle" x="94.38" y="-95.5" font-family="Helvetica,sans-Serif" font-size="10.00" fill="grey">DEC_TRESHOLD_MED</text>
<text text-anchor="middle" x="94.38" y="-83.5" font-family="Helvetica,sans-Serif" font-size="10.00" fill="grey">INC_TRESHOLD_HIGH</text>
<text text-anchor="middle" x="94.38" y="-71.5" font-family="Helvetica,sans-Serif" font-size="10.00" fill="grey">INC_TRESHOLD_LOW</text>
<text text-anchor="middle" x="94.38" y="-59.5" font-family="Helvetica,sans-Serif" font-size="10.00" fill="grey">INC_TRESHOLD_MED</text>
</g>
<!-- Node3&#45;&gt;Node2 -->
<g id="edge2_Node000002_Node000003" class="edge">
<title>Node3&#45;&gt;Node2</title>
<g id="a_edge2_Node000002_Node000003"><a xlink:title=" ">
<path fill="none" stroke="#9a32cd" stroke-dasharray="5,2" d="M18.64,-233.4C21.66,-209.28 30.28,-169.73 54.75,-147 77.11,-126.24 92.49,-139.88 121,-129 139.92,-121.78 160.53,-111.11 174.45,-103.45"/>
<polygon fill="#9a32cd" stroke="#9a32cd" points="15.17,-232.92 17.64,-243.22 22.13,-233.63 15.17,-232.92"/>
</a>
</g>
<text text-anchor="middle" x="95.12" y="-197.5" font-family="Helvetica,sans-Serif" font-size="10.00" fill="grey"> m_DeltaT</text>
<text text-anchor="middle" x="95.12" y="-185.5" font-family="Helvetica,sans-Serif" font-size="10.00" fill="grey">m_LastMA</text>
<text text-anchor="middle" x="95.12" y="-173.5" font-family="Helvetica,sans-Serif" font-size="10.00" fill="grey">m_LastTendency</text>
<text text-anchor="middle" x="95.12" y="-161.5" font-family="Helvetica,sans-Serif" font-size="10.00" fill="grey">m_TendencyBuffer</text>
</g>
<!-- Node3&#45;&gt;Node3 -->
<g id="edge3_Node000003_Node000003" class="edge">
<title>Node3&#45;&gt;Node3</title>
<g id="a_edge3_Node000003_Node000003"><a xlink:title=" ">
<path fill="none" stroke="#9a32cd" stroke-dasharray="5,2" d="M41.2,-267.23C47.37,-266.43 52,-262.35 52,-255 52,-243.53 40.72,-240.03 29.92,-244.51"/>
<polygon fill="#9a32cd" stroke="#9a32cd" points="41.84,-263.78 31.42,-265.72 40.77,-270.7 41.84,-263.78"/>
</a>
</g>
<text text-anchor="middle" x="74.12" y="-263.5" font-family="Helvetica,sans-Serif" font-size="10.00" fill="grey"> LOWEST</text>
<text text-anchor="middle" x="74.12" y="-251.5" font-family="Helvetica,sans-Serif" font-size="10.00" fill="grey">MAX</text>
<text text-anchor="middle" x="74.12" y="-239.5" font-family="Helvetica,sans-Serif" font-size="10.00" fill="grey">MIN</text>
</g>
<!-- Node4 -->
<g id="Node000004" class="node">
<title>Node4</title>
<g id="a_Node000004"><a xlink:href="../../d8/d08/class_timer.html" target="_top" xlink:title=" ">
<polygon fill="white" stroke="#666666" points="162,-265 122,-265 122,-245 162,-245 162,-265"/>
<text text-anchor="middle" x="142" y="-251.5" font-family="Helvetica,sans-Serif" font-size="10.00">Timer</text>
</a>
</g>
</g>
<!-- Node4&#45;&gt;Node2 -->
<g id="edge4_Node000002_Node000004" class="edge">
<title>Node4&#45;&gt;Node2</title>
<g id="a_edge4_Node000002_Node000004"><a xlink:title=" ">
<path fill="none" stroke="#9a32cd" stroke-dasharray="5,2" d="M139.58,-233.44C137.78,-211.31 137.27,-175.44 148.25,-147 155.06,-129.36 170.06,-113.06 180.35,-103.33"/>
<polygon fill="#9a32cd" stroke="#9a32cd" points="136.08,-233.62 140.55,-243.22 143.04,-232.92 136.08,-233.62"/>
</a>
</g>
<text text-anchor="middle" x="170.88" y="-179.5" font-family="Helvetica,sans-Serif" font-size="10.00" fill="grey"> m_Timer1</text>
</g>
<!-- Node5 -->
<g id="Node000005" class="node">
<title>Node5</title>
<g id="a_Node000005"><a xlink:href="../../d5/d08/class_player_base.html" target="_top" xlink:title=" ">
<polygon fill="white" stroke="#666666" points="246.12,-265 179.88,-265 179.88,-245 246.12,-245 246.12,-265"/>
<text text-anchor="middle" x="213" y="-251.5" font-family="Helvetica,sans-Serif" font-size="10.00">PlayerBase</text>
</a>
</g>
</g>
<!-- Node5&#45;&gt;Node2 -->
<g id="edge5_Node000002_Node000005" class="edge">
<title>Node5&#45;&gt;Node2</title>
<g id="a_edge5_Node000002_Node000005"><a xlink:title=" ">
<path fill="none" stroke="#9a32cd" stroke-dasharray="5,2" d="M210.23,-233.84C205.43,-198.97 195.77,-128.68 192.29,-103.36"/>
<polygon fill="#9a32cd" stroke="#9a32cd" points="206.72,-234.01 211.55,-243.44 213.65,-233.06 206.72,-234.01"/>
</a>
</g>
<text text-anchor="middle" x="229.12" y="-179.5" font-family="Helvetica,sans-Serif" font-size="10.00" fill="grey"> m_Player</text>
</g>
<!-- Node6 -->
<g id="Node000006" class="node">
<title>Node6</title>
<g id="a_Node000006"><a xlink:href="../../dd/d03/class_scripted_light_base.html" target="_top" xlink:title=" ">
<polygon fill="white" stroke="#666666" points="121.75,-389 26.25,-389 26.25,-369 121.75,-369 121.75,-389"/>
<text text-anchor="middle" x="74" y="-375.5" font-family="Helvetica,sans-Serif" font-size="10.00">ScriptedLightBase</text>
</a>
</g>
</g>
<!-- Node6&#45;&gt;Node5 -->
<g id="edge6_Node000005_Node000006" class="edge">
<title>Node6&#45;&gt;Node5</title>
<g id="a_edge6_Node000005_Node000006"><a xlink:title=" ">
<path fill="none" stroke="#9a32cd" stroke-dasharray="5,2" d="M70.23,-357.42C67.92,-337.82 67.98,-308.75 84.25,-291 110.85,-261.97 133.32,-284.43 171,-273 177.93,-270.9 185.3,-268.11 191.9,-265.4"/>
<polygon fill="#9a32cd" stroke="#9a32cd" points="66.76,-357.86 71.73,-367.22 73.68,-356.81 66.76,-357.86"/>
</a>
</g>
<text text-anchor="middle" x="122.88" y="-317.5" font-family="Helvetica,sans-Serif" font-size="10.00" fill="grey"> m_PersonalLight</text>
</g>
<!-- Node7 -->
<g id="Node000007" class="node">
<title>Node7</title>
<g id="a_Node000007"><a xlink:href="../../d9/d09/classbool.html" target="_top" xlink:title=" ">
<polygon fill="white" stroke="#666666" points="264,-389 230,-389 230,-369 264,-369 264,-389"/>
<text text-anchor="middle" x="247" y="-375.5" font-family="Helvetica,sans-Serif" font-size="10.00">bool</text>
</a>
</g>
</g>
<!-- Node7&#45;&gt;Node2 -->
<g id="edge9_Node000002_Node000007" class="edge">
<title>Node7&#45;&gt;Node2</title>
<g id="a_edge9_Node000002_Node000007"><a xlink:title=" ">
<path fill="none" stroke="#9a32cd" stroke-dasharray="5,2" d="M275.24,-372.43C287.16,-368.53 299.9,-361.98 307,-351 321.48,-328.61 311.6,-317.27 307,-291 295.27,-223.97 294.14,-202.66 255,-147 241.97,-128.47 220.85,-112.74 206.47,-103.34"/>
<polygon fill="#9a32cd" stroke="#9a32cd" points="274.47,-369.01 265.74,-375.01 276.3,-375.77 274.47,-369.01"/>
</a>
</g>
<text text-anchor="middle" x="342.75" y="-263.5" font-family="Helvetica,sans-Serif" font-size="10.00" fill="grey"> m_Active</text>
<text text-anchor="middle" x="342.75" y="-251.5" font-family="Helvetica,sans-Serif" font-size="10.00" fill="grey">m_FirstPass</text>
<text text-anchor="middle" x="342.75" y="-239.5" font-family="Helvetica,sans-Serif" font-size="10.00" fill="grey">m_ShowTendency</text>
</g>
<!-- Node7&#45;&gt;Node5 -->
<g id="edge7_Node000005_Node000007" class="edge">
<title>Node7&#45;&gt;Node5</title>
<g id="a_edge7_Node000005_Node000007"><a xlink:title=" ">
<path fill="none" stroke="#9a32cd" stroke-dasharray="5,2" d="M218.88,-375.29C202.96,-372.15 184.28,-365.42 174.25,-351 159.02,-329.11 163.42,-315.37 174.25,-291 179.04,-280.23 188.95,-271.37 197.56,-265.26"/>
<polygon fill="#9a32cd" stroke="#9a32cd" points="217.9,-378.68 228.32,-376.77 218.98,-371.77 217.9,-378.68"/>
</a>
</g>
<text text-anchor="start" x="174" y="-341.5" font-family="Helvetica,sans-Serif" font-size="10.00" fill="grey"> m_PersonalLightDisabledBy</text>
<text text-anchor="middle" x="240.38" y="-329.5" font-family="Helvetica,sans-Serif" font-size="10.00" fill="grey">Debug</text>
<text text-anchor="start" x="174" y="-317.5" font-family="Helvetica,sans-Serif" font-size="10.00" fill="grey">m_PersonalLightEnabledOn</text>
<text text-anchor="middle" x="240.38" y="-305.5" font-family="Helvetica,sans-Serif" font-size="10.00" fill="grey">CurrentServer</text>
<text text-anchor="middle" x="240.38" y="-293.5" font-family="Helvetica,sans-Serif" font-size="10.00" fill="grey">m_PersonalLightIsSwitchedOn</text>
</g>
<!-- Node8 -->
<g id="Node000008" class="node">
<title>Node8</title>
<g id="a_Node000008"><a xlink:href="../../db/d06/class_param3.html" target="_top" xlink:title=" ">
<polygon fill="white" stroke="#666666" points="467.88,-265 418.12,-265 418.12,-245 467.88,-245 467.88,-265"/>
<text text-anchor="middle" x="443" y="-251.5" font-family="Helvetica,sans-Serif" font-size="10.00">Param3</text>
</a>
</g>
</g>
<!-- Node8&#45;&gt;Node2 -->
<g id="edge8_Node000002_Node000008" class="edge">
<title>Node8&#45;&gt;Node2</title>
<g id="a_edge8_Node000002_Node000008"><a xlink:title=" ">
<path fill="none" stroke="#9a32cd" stroke-dasharray="5,2" d="M428.82,-235.74C409.77,-212.28 373.77,-171.67 335,-147 300.61,-125.12 255.89,-110.46 225.47,-102.21"/>
<polygon fill="#9a32cd" stroke="#9a32cd" points="426,-237.81 434.97,-243.46 431.48,-233.45 426,-237.81"/>
</a>
</g>
<text text-anchor="middle" x="478.75" y="-209.5" font-family="Helvetica,sans-Serif" font-size="10.00" fill="grey"> TENDENCY_BUFFER_SIZE</text>
<text text-anchor="middle" x="478.75" y="-197.5" font-family="Helvetica,sans-Serif" font-size="10.00" fill="grey">m_TendencyBufferSize</text>
<text text-anchor="middle" x="478.75" y="-185.5" font-family="Helvetica,sans-Serif" font-size="10.00" fill="grey">m_TendencyBufferWriteIterator</text>
<text text-anchor="middle" x="478.75" y="-173.5" font-family="Helvetica,sans-Serif" font-size="10.00" fill="grey">m_TickInterval</text>
<text text-anchor="middle" x="478.75" y="-161.5" font-family="Helvetica,sans-Serif" font-size="10.00" fill="grey">m_TickIntervalLastTick</text>
<text text-anchor="middle" x="478.75" y="-149.5" font-family="Helvetica,sans-Serif" font-size="10.00" fill="grey">m_Type</text>
</g>
</g>
</svg>

<g id="navigator" transform="translate(0 0)" fill="#404254">
  <rect fill="#f2f5e9" fill-opacity="0.5" stroke="#606060" stroke-width=".5" x="0" y="0" width="60" height="60"/>
  <use id="zoomplus" xlink:href="#zoomPlus" x="17" y="9" onmousedown="handleZoom(evt,'in')"/>
  <use id="zoomminus" xlink:href="#zoomMin" x="42" y="9" onmousedown="handleZoom(evt,'out')"/>
  <use id="reset" xlink:href="#resetDef" x="30" y="36" onmousedown="handleReset()"/>
   <use id="arrowup" xlink:href="#arrowUp" x="0" y="0" onmousedown="handlePan(0,-1)"/>
  <use id="arrowright" xlink:href="#arrowRight" x="0" y="0" onmousedown="handlePan(1,0)"/>
  <use id="arrowdown" xlink:href="#arrowDown" x="0" y="0" onmousedown="handlePan(0,1)"/>
  <use id="arrowleft" xlink:href="#arrowLeft" x="0" y="0" onmousedown="handlePan(-1,0)"/>
</g>
<svg viewBox="0 0 15 15" width="100%" height="30px" preserveAspectRatio="xMaxYMin meet">
 <g id="arrow_out" transform="scale(0.3 0.3)">
  <a xlink:href="class_health_notfr__coll__graph_org.svg" target="_base">
   <rect id="button" ry="5" rx="5" y="6" x="6" height="38" width="38"
        fill="#f2f5e9" fill-opacity="0.5" stroke="#606060" stroke-width="1.0"/>
   <path id="arrow"
     d="M 11.500037,31.436501 C 11.940474,20.09759 22.043105,11.32322 32.158766,21.979434 L 37.068811,17.246167 C 37.068811,17.246167 37.088388,32 37.088388,32 L 22.160133,31.978069 C 22.160133,31.978069 26.997745,27.140456 26.997745,27.140456 C 18.528582,18.264221 13.291696,25.230495 11.500037,31.436501 z"
     style="fill:#404040;"/>
  </a>
 </g>
</svg>

<style type='text/css'>
<![CDATA[
[data-mouse-over-selected='false'] { opacity: 0.7; }
[data-mouse-over-selected='true']  { opacity: 1.0; }
]]>
</style>
<script type="application/ecmascript"><![CDATA[
document.addEventListener('DOMContentLoaded', (event) => {
  highlightEdges();
  highlightAdjacentNodes();
});
]]></script>
</svg>
