<?xml version="1.0" encoding="UTF-8" standalone="no"?>
<!DOCTYPE svg PUBLIC "-//W3C//DTD SVG 1.1//EN"
 "http://www.w3.org/Graphics/SVG/1.1/DTD/svg11.dtd">
<!-- Generated by graphviz version 11.0.0 (20240428.1522)
 -->
<!-- Title: HungerMdfr Pages: 1 -->
<svg width="365pt" height="220pt"
 viewBox="0.00 0.00 365.38 220.00" xmlns="http://www.w3.org/2000/svg" xmlns:xlink="http://www.w3.org/1999/xlink">
<g id="graph0" class="graph" transform="scale(1 1) rotate(0) translate(4 216)">
<title>HungerMdfr</title>
<!-- Node1 -->
<g id="Node000001" class="node">
<title>Node1</title>
<g id="a_Node000001"><a xlink:title=" ">
<polygon fill="#999999" stroke="#666666" points="140.88,-20 75.38,-20 75.38,0 140.88,0 140.88,-20"/>
<text text-anchor="middle" x="108.12" y="-6.5" font-family="Helvetica,sans-Serif" font-size="10.00">HungerMdfr</text>
</a>
</g>
</g>
<!-- Node2 -->
<g id="Node000002" class="node">
<title>Node2</title>
<g id="a_Node000002"><a xlink:href="../../d8/d0a/class_modifier_base.html" target="_top" xlink:title=" ">
<polygon fill="white" stroke="#666666" points="72.25,-90 0,-90 0,-70 72.25,-70 72.25,-90"/>
<text text-anchor="middle" x="36.12" y="-76.5" font-family="Helvetica,sans-Serif" font-size="10.00">ModifierBase</text>
</a>
</g>
</g>
<!-- Node2&#45;&gt;Node1 -->
<g id="edge1_Node000001_Node000002" class="edge">
<title>Node2&#45;&gt;Node1</title>
<g id="a_edge1_Node000001_Node000002"><a xlink:title=" ">
<path fill="none" stroke="#8b1a1a" d="M54.48,-61.67C68.38,-48.54 86.95,-31 98.2,-20.37"/>
<polygon fill="#8b1a1a" stroke="#8b1a1a" points="52.1,-59.09 47.24,-68.51 56.91,-64.18 52.1,-59.09"/>
</a>
</g>
</g>
<!-- Node3 -->
<g id="Node000003" class="node">
<title>Node3</title>
<g id="a_Node000003"><a xlink:href="../../d4/d03/classfloat.html" target="_top" xlink:title=" ">
<polygon fill="white" stroke="#666666" points="144.12,-204 110.12,-204 110.12,-184 144.12,-184 144.12,-204"/>
<text text-anchor="middle" x="127.12" y="-190.5" font-family="Helvetica,sans-Serif" font-size="10.00">float</text>
</a>
</g>
</g>
<!-- Node3&#45;&gt;Node1 -->
<g id="edge2_Node000001_Node000003" class="edge">
<title>Node3&#45;&gt;Node1</title>
<g id="a_edge2_Node000001_Node000003"><a xlink:title=" ">
<path fill="none" stroke="#9a32cd" stroke-dasharray="5,2" d="M124.98,-172.48C120.88,-133.21 112.07,-48.79 109.11,-20.48"/>
<polygon fill="#9a32cd" stroke="#9a32cd" points="121.48,-172.64 126,-182.22 128.44,-171.91 121.48,-172.64"/>
</a>
</g>
<text text-anchor="middle" x="158.5" y="-82.5" font-family="Helvetica,sans-Serif" font-size="10.00" fill="grey"> m_EnergyDelta</text>
<text text-anchor="middle" x="158.5" y="-70.5" font-family="Helvetica,sans-Serif" font-size="10.00" fill="grey">m_LastEnergyLevel</text>
</g>
<!-- Node3&#45;&gt;Node3 -->
<g id="edge3_Node000003_Node000003" class="edge">
<title>Node3&#45;&gt;Node3</title>
<g id="a_edge3_Node000003_Node000003"><a xlink:title=" ">
<path fill="none" stroke="#9a32cd" stroke-dasharray="5,2" d="M154.47,-204.44C159,-202.97 162.12,-199.49 162.12,-194 162.12,-184.51 152.78,-181.02 142.96,-183.54"/>
<polygon fill="#9a32cd" stroke="#9a32cd" points="154.47,-200.94 144.48,-204.45 154.48,-207.94 154.47,-200.94"/>
</a>
</g>
<text text-anchor="middle" x="184.25" y="-202.5" font-family="Helvetica,sans-Serif" font-size="10.00" fill="grey"> LOWEST</text>
<text text-anchor="middle" x="184.25" y="-190.5" font-family="Helvetica,sans-Serif" font-size="10.00" fill="grey">MAX</text>
<text text-anchor="middle" x="184.25" y="-178.5" font-family="Helvetica,sans-Serif" font-size="10.00" fill="grey">MIN</text>
</g>
<!-- Node4 -->
<g id="Node000004" class="node">
<title>Node4</title>
<g id="a_Node000004"><a xlink:href="../../d2/d0b/class_human_movement_state.html" target="_top" xlink:title=" ">
<polygon fill="white" stroke="#666666" points="325.25,-90 211,-90 211,-70 325.25,-70 325.25,-90"/>
<text text-anchor="middle" x="268.12" y="-76.5" font-family="Helvetica,sans-Serif" font-size="10.00">HumanMovementState</text>
</a>
</g>
</g>
<!-- Node3&#45;&gt;Node4 -->
<g id="edge6_Node000004_Node000003" class="edge">
<title>Node3&#45;&gt;Node4</title>
<g id="a_edge6_Node000004_Node000003"><a xlink:title=" ">
<path fill="none" stroke="#9a32cd" stroke-dasharray="5,2" d="M142.33,-175.18C158.3,-157.19 184.79,-129.37 211.62,-110 222.26,-102.32 235.22,-95.51 246.04,-90.43"/>
<polygon fill="#9a32cd" stroke="#9a32cd" points="139.92,-172.62 135.98,-182.45 145.19,-177.22 139.92,-172.62"/>
</a>
</g>
<text text-anchor="middle" x="237.38" y="-130.5" font-family="Helvetica,sans-Serif" font-size="10.00" fill="grey"> m_fLeaning</text>
</g>
<!-- Node4&#45;&gt;Node1 -->
<g id="edge4_Node000001_Node000004" class="edge">
<title>Node4&#45;&gt;Node1</title>
<g id="a_edge4_Node000001_Node000004"><a xlink:title=" ">
<path fill="none" stroke="#9a32cd" stroke-dasharray="5,2" d="M235.49,-65.13C204.18,-51.82 157.74,-32.09 130.44,-20.48"/>
<polygon fill="#9a32cd" stroke="#9a32cd" points="233.91,-68.26 244.48,-68.95 236.65,-61.82 233.91,-68.26"/>
</a>
</g>
<text text-anchor="middle" x="239.12" y="-40.5" font-family="Helvetica,sans-Serif" font-size="10.00" fill="grey"> m_MovementState</text>
</g>
<!-- Node5 -->
<g id="Node000005" class="node">
<title>Node5</title>
<g id="a_Node000005"><a xlink:href="../../db/d06/class_param3.html" target="_top" xlink:title=" ">
<polygon fill="white" stroke="#666666" points="293,-204 243.25,-204 243.25,-184 293,-184 293,-204"/>
<text text-anchor="middle" x="268.12" y="-190.5" font-family="Helvetica,sans-Serif" font-size="10.00">Param3</text>
</a>
</g>
</g>
<!-- Node5&#45;&gt;Node4 -->
<g id="edge5_Node000004_Node000005" class="edge">
<title>Node5&#45;&gt;Node4</title>
<g id="a_edge5_Node000004_Node000005"><a xlink:title=" ">
<path fill="none" stroke="#9a32cd" stroke-dasharray="5,2" d="M268.12,-172.33C268.12,-147.87 268.12,-108.2 268.12,-90.29"/>
<polygon fill="#9a32cd" stroke="#9a32cd" points="264.63,-172.32 268.13,-182.32 271.63,-172.32 264.63,-172.32"/>
</a>
</g>
<text text-anchor="middle" x="312.75" y="-148.5" font-family="Helvetica,sans-Serif" font-size="10.00" fill="grey"> m_CommandTypeId</text>
<text text-anchor="middle" x="312.75" y="-136.5" font-family="Helvetica,sans-Serif" font-size="10.00" fill="grey">m_LocalMovement</text>
<text text-anchor="middle" x="312.75" y="-124.5" font-family="Helvetica,sans-Serif" font-size="10.00" fill="grey">m_iMovement</text>
<text text-anchor="middle" x="312.75" y="-112.5" font-family="Helvetica,sans-Serif" font-size="10.00" fill="grey">m_iStanceIdx</text>
</g>
</g>
</svg>
