<?xml version="1.0" encoding="UTF-8" standalone="no"?>
<!DOCTYPE svg PUBLIC "-//W3C//DTD SVG 1.1//EN"
 "http://www.w3.org/Graphics/SVG/1.1/DTD/svg11.dtd">
<!-- Generated by graphviz version 11.0.0 (20240428.1522)
 -->
<!-- Title: ActionConsumeSingle Pages: 1 -->
<!--zoomable 313 -->

<svg id="main" version="1.1" xmlns="http://www.w3.org/2000/svg" xmlns:xlink="http://www.w3.org/1999/xlink" xml:space="preserve" onload="init(evt)">
<style type="text/css"><![CDATA[
.node, .edge {opacity: 0.7;}
.node.selected, .edge.selected {opacity: 1;}
.edge:hover path { stroke: red; }
.edge:hover polygon { stroke: red; fill: red; }
]]></style>

<defs>
  <circle id="rim" cx="0" cy="0" r="7"/>
  <circle id="rim2" cx="0" cy="0" r="3.5"/>
  <g id="zoomPlus">
    <use xlink:href="#rim" fill="#404040"><set attributeName="fill" to="#808080" begin="zoomplus.mouseover" end="zoomplus.mouseout"/></use>
    <path d="M-4,0h8M0,-4v8" fill="none" stroke="white" stroke-width="1.5" pointer-events="none"/>
  </g>
  <g id="zoomMin">
    <use xlink:href="#rim" fill="#404040"><set attributeName="fill" to="#808080" begin="zoomminus.mouseover" end="zoomminus.mouseout"/></use>
    <path d="M-4,0h8" fill="none" stroke="white" stroke-width="1.5" pointer-events="none"/>
  </g>
  <g id="arrowUp" transform="translate(30 24)">
    <use xlink:href="#rim"/>
    <path pointer-events="none" fill="none" stroke="white" stroke-width="1.5" d="M0,-3.0v7 M-2.5,-0.5L0,-3.0L2.5,-0.5"/>
  </g>
  <g id="arrowRight" transform="rotate(90) translate(36 -43)">
    <use xlink:href="#rim"/>
    <path pointer-events="none" fill="none" stroke="white" stroke-width="1.5" d="M0,-3.0v7 M-2.5,-0.5L0,-3.0L2.5,-0.5"/>
  </g>
  <g id="arrowDown" transform="rotate(180) translate(-30 -48)">
    <use xlink:href="#rim"/>
    <path pointer-events="none" fill="none" stroke="white" stroke-width="1.5" d="M0,-3.0v7 M-2.5,-0.5L0,-3.0L2.5,-0.5"/>
  </g>
  <g id="arrowLeft" transform="rotate(270) translate(-36 17)">
    <use xlink:href="#rim"/>
    <path pointer-events="none" fill="none" stroke="white" stroke-width="1.5" d="M0,-3.0v7 M-2.5,-0.5L0,-3.0L2.5,-0.5"/>
  </g>
  <g id="resetDef">
    <use xlink:href="#rim2" fill="#404040"><set attributeName="fill" to="#808080" begin="reset.mouseover" end="reset.mouseout"/></use>
  </g>
</defs>
<script type="application/ecmascript">
var viewWidth = 850;
var viewHeight = 313;
var sectionId = 'dynsection-0';
</script>
<script type="application/ecmascript" xlink:href="../../svg.min.js"/>
<svg id="graph" class="graph">
<g id="viewport">
<title>ActionConsumeSingle</title>
<!-- Node1 -->
<g id="Node000001" class="node">
<title>Node1</title>
<g id="a_Node000001"><a xlink:title=" ">
<polygon fill="#999999" stroke="#666666" points="504.25,-172 392.25,-172 392.25,-152 504.25,-152 504.25,-172"/>
<text text-anchor="middle" x="448.25" y="-158.5" font-family="Helvetica,sans-Serif" font-size="10.00">ActionConsumeSingle</text>
</a>
</g>
</g>
<!-- Node5 -->
<g id="Node000005" class="node">
<title>Node5</title>
<g id="a_Node000005"><a xlink:href="../../dc/d02/class_action_bite_charcoal_tablets.html" target="_top" xlink:title=" ">
<polygon fill="white" stroke="#666666" points="685.25,-305 554.5,-305 554.5,-285 685.25,-285 685.25,-305"/>
<text text-anchor="middle" x="619.88" y="-291.5" font-family="Helvetica,sans-Serif" font-size="10.00">ActionBiteCharcoalTablets</text>
</a>
</g>
</g>
<!-- Node1&#45;&gt;Node5 -->
<g id="edge4_Node000001_Node000005" class="edge">
<title>Node1&#45;&gt;Node5</title>
<g id="a_edge4_Node000001_Node000005"><a xlink:title=" ">
<path fill="none" stroke="#8b1a1a" d="M459.81,-182.25C474.36,-208.11 503.06,-252.31 540.25,-276 545.7,-279.47 551.73,-282.31 557.95,-284.63"/>
<polygon fill="#8b1a1a" stroke="#8b1a1a" points="463.03,-180.85 455.18,-173.74 456.88,-184.2 463.03,-180.85"/>
</a>
</g>
</g>
<!-- Node6 -->
<g id="Node000006" class="node">
<title>Node6</title>
<g id="a_Node000006"><a xlink:href="../../dc/d0b/class_action_bite_painkiller_tablets.html" target="_top" xlink:title=" ">
<polygon fill="white" stroke="#666666" points="686,-267 553.75,-267 553.75,-247 686,-247 686,-267"/>
<text text-anchor="middle" x="619.88" y="-253.5" font-family="Helvetica,sans-Serif" font-size="10.00">ActionBitePainkillerTablets</text>
</a>
</g>
</g>
<!-- Node1&#45;&gt;Node6 -->
<g id="edge5_Node000001_Node000006" class="edge">
<title>Node1&#45;&gt;Node6</title>
<g id="a_edge5_Node000001_Node000006"><a xlink:title=" ">
<path fill="none" stroke="#8b1a1a" d="M466.43,-180.61C483.51,-198 511.29,-223.42 540.25,-238 547.02,-241.41 554.44,-244.23 561.92,-246.55"/>
<polygon fill="#8b1a1a" stroke="#8b1a1a" points="469.01,-178.24 459.56,-173.44 463.95,-183.08 469.01,-178.24"/>
</a>
</g>
</g>
<!-- Node7 -->
<g id="Node000007" class="node">
<title>Node7</title>
<g id="a_Node000007"><a xlink:href="../../d7/d04/class_action_bite_purification_tablets.html" target="_top" xlink:title=" ">
<polygon fill="white" stroke="#666666" points="690.12,-229 549.62,-229 549.62,-209 690.12,-209 690.12,-229"/>
<text text-anchor="middle" x="619.88" y="-215.5" font-family="Helvetica,sans-Serif" font-size="10.00">ActionBitePurificationTablets</text>
</a>
</g>
</g>
<!-- Node1&#45;&gt;Node7 -->
<g id="edge6_Node000001_Node000007" class="edge">
<title>Node1&#45;&gt;Node7</title>
<g id="a_edge6_Node000001_Node000007"><a xlink:title=" ">
<path fill="none" stroke="#8b1a1a" d="M481.39,-176.89C498.6,-184.48 520.31,-193.47 540.25,-200 549.86,-203.15 560.28,-206.02 570.3,-208.54"/>
<polygon fill="#8b1a1a" stroke="#8b1a1a" points="483.25,-173.89 472.7,-172.99 480.39,-180.28 483.25,-173.89"/>
</a>
</g>
</g>
<!-- Node8 -->
<g id="Node000008" class="node">
<title>Node8</title>
<g id="a_Node000008"><a xlink:href="../../d8/d04/class_action_bite_tetracycline_antibiotics.html" target="_top" xlink:title=" ">
<polygon fill="white" stroke="#666666" points="699.5,-191 540.25,-191 540.25,-171 699.5,-171 699.5,-191"/>
<text text-anchor="middle" x="619.88" y="-177.5" font-family="Helvetica,sans-Serif" font-size="10.00">ActionBiteTetracyclineAntibiotics</text>
</a>
</g>
</g>
<!-- Node1&#45;&gt;Node8 -->
<g id="edge7_Node000001_Node000008" class="edge">
<title>Node1&#45;&gt;Node8</title>
<g id="a_edge7_Node000001_Node000008"><a xlink:title=" ">
<path fill="none" stroke="#8b1a1a" d="M515.51,-169.42C523.56,-170.32 531.84,-171.25 540.05,-172.17"/>
<polygon fill="#8b1a1a" stroke="#8b1a1a" points="516.15,-165.97 505.83,-168.34 515.37,-172.93 516.15,-165.97"/>
</a>
</g>
</g>
<!-- Node9 -->
<g id="Node000009" class="node">
<title>Node9</title>
<g id="a_Node000009"><a xlink:href="../../d8/d01/class_action_bite_vitamin_bottle.html" target="_top" xlink:title=" ">
<polygon fill="white" stroke="#666666" points="679.62,-153 560.12,-153 560.12,-133 679.62,-133 679.62,-153"/>
<text text-anchor="middle" x="619.88" y="-139.5" font-family="Helvetica,sans-Serif" font-size="10.00">ActionBiteVitaminBottle</text>
</a>
</g>
</g>
<!-- Node1&#45;&gt;Node9 -->
<g id="edge8_Node000001_Node000009" class="edge">
<title>Node1&#45;&gt;Node9</title>
<g id="a_edge8_Node000001_Node000009"><a xlink:title=" ">
<path fill="none" stroke="#8b1a1a" d="M515.75,-154.55C530.25,-152.93 545.5,-151.22 559.69,-149.63"/>
<polygon fill="#8b1a1a" stroke="#8b1a1a" points="515.37,-151.07 505.83,-155.66 516.15,-158.03 515.37,-151.07"/>
</a>
</g>
</g>
<!-- Node10 -->
<g id="Node000010" class="node">
<title>Node10</title>
<g id="a_Node000010"><a xlink:href="../../d4/d05/class_action_eat_pill_from_bottle.html" target="_top" xlink:title=" ">
<polygon fill="white" stroke="#666666" points="680,-115 559.75,-115 559.75,-95 680,-95 680,-115"/>
<text text-anchor="middle" x="619.88" y="-101.5" font-family="Helvetica,sans-Serif" font-size="10.00">ActionEatPillFromBottle</text>
</a>
</g>
</g>
<!-- Node1&#45;&gt;Node10 -->
<g id="edge9_Node000001_Node000010" class="edge">
<title>Node1&#45;&gt;Node10</title>
<g id="a_edge9_Node000001_Node000010"><a xlink:title=" ">
<path fill="none" stroke="#8b1a1a" d="M481.39,-147.11C498.6,-139.52 520.31,-130.53 540.25,-124 549.86,-120.85 560.28,-117.98 570.3,-115.46"/>
<polygon fill="#8b1a1a" stroke="#8b1a1a" points="480.39,-143.72 472.7,-151.01 483.25,-150.11 480.39,-143.72"/>
</a>
</g>
</g>
<!-- Node11 -->
<g id="Node000011" class="node">
<title>Node11</title>
<g id="a_Node000011"><a xlink:href="../../da/d01/class_action_eat_tablet_from_wrapper.html" target="_top" xlink:title=" ">
<polygon fill="white" stroke="#666666" points="692,-77 547.75,-77 547.75,-57 692,-57 692,-77"/>
<text text-anchor="middle" x="619.88" y="-63.5" font-family="Helvetica,sans-Serif" font-size="10.00">ActionEatTabletFromWrapper</text>
</a>
</g>
</g>
<!-- Node1&#45;&gt;Node11 -->
<g id="edge10_Node000001_Node000011" class="edge">
<title>Node1&#45;&gt;Node11</title>
<g id="a_edge10_Node000001_Node000011"><a xlink:title=" ">
<path fill="none" stroke="#8b1a1a" d="M466.43,-143.39C483.51,-126 511.29,-100.58 540.25,-86 547.02,-82.59 554.44,-79.77 561.92,-77.45"/>
<polygon fill="#8b1a1a" stroke="#8b1a1a" points="463.95,-140.92 459.56,-150.56 469.01,-145.76 463.95,-140.92"/>
</a>
</g>
</g>
<!-- Node12 -->
<g id="Node000012" class="node">
<title>Node12</title>
<g id="a_Node000012"><a xlink:href="../../d8/d06/class_action_take_a_bite.html" target="_top" xlink:title=" ">
<polygon fill="white" stroke="#666666" points="664.25,-39 575.5,-39 575.5,-19 664.25,-19 664.25,-39"/>
<text text-anchor="middle" x="619.88" y="-25.5" font-family="Helvetica,sans-Serif" font-size="10.00">ActionTakeABite</text>
</a>
</g>
</g>
<!-- Node1&#45;&gt;Node12 -->
<g id="edge11_Node000001_Node000012" class="edge">
<title>Node1&#45;&gt;Node12</title>
<g id="a_edge11_Node000001_Node000012"><a xlink:title=" ">
<path fill="none" stroke="#8b1a1a" d="M459.81,-141.75C474.36,-115.89 503.06,-71.69 540.25,-48 550.67,-41.36 563.22,-37.04 575.2,-34.23"/>
<polygon fill="#8b1a1a" stroke="#8b1a1a" points="456.88,-139.8 455.18,-150.26 463.03,-143.15 456.88,-139.8"/>
</a>
</g>
</g>
<!-- Node2 -->
<g id="Node000002" class="node">
<title>Node2</title>
<g id="a_Node000002"><a xlink:href="../../d1/d01/class_action_single_use_base.html" target="_top" xlink:title=" ">
<polygon fill="white" stroke="#666666" points="356.25,-172 245.75,-172 245.75,-152 356.25,-152 356.25,-172"/>
<text text-anchor="middle" x="301" y="-158.5" font-family="Helvetica,sans-Serif" font-size="10.00">ActionSingleUseBase</text>
</a>
</g>
</g>
<!-- Node2&#45;&gt;Node1 -->
<g id="edge1_Node000001_Node000002" class="edge">
<title>Node2&#45;&gt;Node1</title>
<g id="a_edge1_Node000001_Node000002"><a xlink:title=" ">
<path fill="none" stroke="#8b1a1a" d="M367.8,-162C375.87,-162 384.06,-162 391.96,-162"/>
<polygon fill="#8b1a1a" stroke="#8b1a1a" points="368.01,-158.5 358.01,-162 368.01,-165.5 368.01,-158.5"/>
</a>
</g>
</g>
<!-- Node3 -->
<g id="Node000003" class="node">
<title>Node3</title>
<g id="a_Node000003"><a xlink:href="../../d7/d04/class_animated_action_base.html" target="_top" xlink:title=" ">
<polygon fill="white" stroke="#666666" points="209.75,-172 102.25,-172 102.25,-152 209.75,-152 209.75,-172"/>
<text text-anchor="middle" x="156" y="-158.5" font-family="Helvetica,sans-Serif" font-size="10.00">AnimatedActionBase</text>
</a>
</g>
</g>
<!-- Node3&#45;&gt;Node2 -->
<g id="edge2_Node000002_Node000003" class="edge">
<title>Node3&#45;&gt;Node2</title>
<g id="a_edge2_Node000002_Node000003"><a xlink:title=" ">
<path fill="none" stroke="#8b1a1a" d="M221.67,-162C229.56,-162 237.55,-162 245.27,-162"/>
<polygon fill="#8b1a1a" stroke="#8b1a1a" points="221.76,-158.5 211.76,-162 221.76,-165.5 221.76,-158.5"/>
</a>
</g>
</g>
<!-- Node4 -->
<g id="Node000004" class="node">
<title>Node4</title>
<g id="a_Node000004"><a xlink:title=" ">
<polygon fill="white" stroke="#666666" points="66.25,-172 0,-172 0,-152 66.25,-152 66.25,-172"/>
<text text-anchor="middle" x="33.12" y="-158.5" font-family="Helvetica,sans-Serif" font-size="10.00">ActionBase</text>
</a>
</g>
</g>
<!-- Node4&#45;&gt;Node3 -->
<g id="edge3_Node000003_Node000004" class="edge">
<title>Node4&#45;&gt;Node3</title>
<g id="a_edge3_Node000003_Node000004"><a xlink:title=" ">
<path fill="none" stroke="#8b1a1a" d="M77.97,-162C85.76,-162 93.96,-162 101.98,-162"/>
<polygon fill="#8b1a1a" stroke="#8b1a1a" points="78.03,-158.5 68.03,-162 78.03,-165.5 78.03,-158.5"/>
</a>
</g>
</g>
<!-- Node13 -->
<g id="Node000013" class="node">
<title>Node13</title>
<g id="a_Node000013"><a xlink:href="../../d2/d09/class_action_take_a_bite_can.html" target="_top" xlink:title=" ">
<polygon fill="white" stroke="#666666" points="841.5,-58 735.5,-58 735.5,-38 841.5,-38 841.5,-58"/>
<text text-anchor="middle" x="788.5" y="-44.5" font-family="Helvetica,sans-Serif" font-size="10.00">ActionTakeABiteCan</text>
</a>
</g>
</g>
<!-- Node12&#45;&gt;Node13 -->
<g id="edge12_Node000012_Node000013" class="edge">
<title>Node12&#45;&gt;Node13</title>
<g id="a_edge12_Node000012_Node000013"><a xlink:title=" ">
<path fill="none" stroke="#8b1a1a" d="M675.89,-35.27C694.96,-37.45 716.27,-39.88 735.12,-42.03"/>
<polygon fill="#8b1a1a" stroke="#8b1a1a" points="676.49,-31.82 666.16,-34.16 675.7,-38.77 676.49,-31.82"/>
</a>
</g>
</g>
<!-- Node14 -->
<g id="Node000014" class="node">
<title>Node14</title>
<g id="a_Node000014"><a xlink:href="../../d7/d01/class_action_take_a_sip.html" target="_top" xlink:title=" ">
<polygon fill="white" stroke="#666666" points="831.38,-20 745.62,-20 745.62,0 831.38,0 831.38,-20"/>
<text text-anchor="middle" x="788.5" y="-6.5" font-family="Helvetica,sans-Serif" font-size="10.00">ActionTakeASip</text>
</a>
</g>
</g>
<!-- Node12&#45;&gt;Node14 -->
<g id="edge13_Node000012_Node000014" class="edge">
<title>Node12&#45;&gt;Node14</title>
<g id="a_edge13_Node000012_Node000014"><a xlink:title=" ">
<path fill="none" stroke="#8b1a1a" d="M675.79,-22.74C698.36,-20.16 724.09,-17.23 745.16,-14.83"/>
<polygon fill="#8b1a1a" stroke="#8b1a1a" points="675.7,-19.23 666.16,-23.84 676.49,-26.18 675.7,-19.23"/>
</a>
</g>
</g>
</g>
</svg>

<g id="navigator" transform="translate(0 0)" fill="#404254">
  <rect fill="#f2f5e9" fill-opacity="0.5" stroke="#606060" stroke-width=".5" x="0" y="0" width="60" height="60"/>
  <use id="zoomplus" xlink:href="#zoomPlus" x="17" y="9" onmousedown="handleZoom(evt,'in')"/>
  <use id="zoomminus" xlink:href="#zoomMin" x="42" y="9" onmousedown="handleZoom(evt,'out')"/>
  <use id="reset" xlink:href="#resetDef" x="30" y="36" onmousedown="handleReset()"/>
   <use id="arrowup" xlink:href="#arrowUp" x="0" y="0" onmousedown="handlePan(0,-1)"/>
  <use id="arrowright" xlink:href="#arrowRight" x="0" y="0" onmousedown="handlePan(1,0)"/>
  <use id="arrowdown" xlink:href="#arrowDown" x="0" y="0" onmousedown="handlePan(0,1)"/>
  <use id="arrowleft" xlink:href="#arrowLeft" x="0" y="0" onmousedown="handlePan(-1,0)"/>
</g>
<svg viewBox="0 0 15 15" width="100%" height="30px" preserveAspectRatio="xMaxYMin meet">
 <g id="arrow_out" transform="scale(0.3 0.3)">
  <a xlink:href="class_action_consume_single__inherit__graph_org.svg" target="_base">
   <rect id="button" ry="5" rx="5" y="6" x="6" height="38" width="38"
        fill="#f2f5e9" fill-opacity="0.5" stroke="#606060" stroke-width="1.0"/>
   <path id="arrow"
     d="M 11.500037,31.436501 C 11.940474,20.09759 22.043105,11.32322 32.158766,21.979434 L 37.068811,17.246167 C 37.068811,17.246167 37.088388,32 37.088388,32 L 22.160133,31.978069 C 22.160133,31.978069 26.997745,27.140456 26.997745,27.140456 C 18.528582,18.264221 13.291696,25.230495 11.500037,31.436501 z"
     style="fill:#404040;"/>
  </a>
 </g>
</svg>

<style type='text/css'>
<![CDATA[
[data-mouse-over-selected='false'] { opacity: 0.7; }
[data-mouse-over-selected='true']  { opacity: 1.0; }
]]>
</style>
<script type="application/ecmascript"><![CDATA[
document.addEventListener('DOMContentLoaded', (event) => {
  highlightEdges();
  highlightAdjacentNodes();
});
]]></script>
</svg>
