<?xml version="1.0" encoding="UTF-8" standalone="no"?>
<!DOCTYPE svg PUBLIC "-//W3C//DTD SVG 1.1//EN"
 "http://www.w3.org/Graphics/SVG/1.1/DTD/svg11.dtd">
<!-- Generated by graphviz version 11.0.0 (20240428.1522)
 -->
<!-- Title: WeaponGuardBase Pages: 1 -->
<!--zoomable 296 -->

<svg id="main" version="1.1" xmlns="http://www.w3.org/2000/svg" xmlns:xlink="http://www.w3.org/1999/xlink" xml:space="preserve" onload="init(evt)">
<style type="text/css"><![CDATA[
.node, .edge {opacity: 0.7;}
.node.selected, .edge.selected {opacity: 1;}
.edge:hover path { stroke: red; }
.edge:hover polygon { stroke: red; fill: red; }
]]></style>

<defs>
  <circle id="rim" cx="0" cy="0" r="7"/>
  <circle id="rim2" cx="0" cy="0" r="3.5"/>
  <g id="zoomPlus">
    <use xlink:href="#rim" fill="#404040"><set attributeName="fill" to="#808080" begin="zoomplus.mouseover" end="zoomplus.mouseout"/></use>
    <path d="M-4,0h8M0,-4v8" fill="none" stroke="white" stroke-width="1.5" pointer-events="none"/>
  </g>
  <g id="zoomMin">
    <use xlink:href="#rim" fill="#404040"><set attributeName="fill" to="#808080" begin="zoomminus.mouseover" end="zoomminus.mouseout"/></use>
    <path d="M-4,0h8" fill="none" stroke="white" stroke-width="1.5" pointer-events="none"/>
  </g>
  <g id="arrowUp" transform="translate(30 24)">
    <use xlink:href="#rim"/>
    <path pointer-events="none" fill="none" stroke="white" stroke-width="1.5" d="M0,-3.0v7 M-2.5,-0.5L0,-3.0L2.5,-0.5"/>
  </g>
  <g id="arrowRight" transform="rotate(90) translate(36 -43)">
    <use xlink:href="#rim"/>
    <path pointer-events="none" fill="none" stroke="white" stroke-width="1.5" d="M0,-3.0v7 M-2.5,-0.5L0,-3.0L2.5,-0.5"/>
  </g>
  <g id="arrowDown" transform="rotate(180) translate(-30 -48)">
    <use xlink:href="#rim"/>
    <path pointer-events="none" fill="none" stroke="white" stroke-width="1.5" d="M0,-3.0v7 M-2.5,-0.5L0,-3.0L2.5,-0.5"/>
  </g>
  <g id="arrowLeft" transform="rotate(270) translate(-36 17)">
    <use xlink:href="#rim"/>
    <path pointer-events="none" fill="none" stroke="white" stroke-width="1.5" d="M0,-3.0v7 M-2.5,-0.5L0,-3.0L2.5,-0.5"/>
  </g>
  <g id="resetDef">
    <use xlink:href="#rim2" fill="#404040"><set attributeName="fill" to="#808080" begin="reset.mouseover" end="reset.mouseout"/></use>
  </g>
</defs>
<script type="application/ecmascript">
var viewWidth = 560;
var viewHeight = 296;
var sectionId = 'dynsection-0';
</script>
<script type="application/ecmascript" xlink:href="../../svg.min.js"/>
<svg id="graph" class="graph">
<g id="viewport">
<title>WeaponGuardBase</title>
<!-- Node1 -->
<g id="Node000001" class="node">
<title>Node1</title>
<g id="a_Node000001"><a xlink:title="represents guard on a transition from state to state">
<polygon fill="#999999" stroke="#666666" points="404.88,-22 304.12,-22 304.12,-2 404.88,-2 404.88,-22"/>
<text text-anchor="middle" x="354.5" y="-8.5" font-family="Helvetica,sans-Serif" font-size="10.00">WeaponGuardBase</text>
</a>
</g>
</g>
<!-- Node1&#45;&gt;Node1 -->
<g id="edge1_Node000001_Node000001" class="edge">
<title>Node1&#45;&gt;Node1</title>
<g id="a_edge1_Node000001_Node000001"><a xlink:title=" ">
<path fill="none" stroke="#9a32cd" stroke-dasharray="5,2" d="M416.34,-16.82C420.41,-15.7 422.88,-14.09 422.88,-12 422.88,-8.38 415.5,-6.21 405.19,-5.51"/>
<polygon fill="#9a32cd" stroke="#9a32cd" points="416.06,-13.32 406.69,-18.27 417.1,-20.24 416.06,-13.32"/>
</a>
</g>
<text text-anchor="middle" x="440.5" y="-14.5" font-family="Helvetica,sans-Serif" font-size="10.00" fill="grey"> m_arg0</text>
<text text-anchor="middle" x="440.5" y="-2.5" font-family="Helvetica,sans-Serif" font-size="10.00" fill="grey">m_arg1</text>
</g>
<!-- Node2 -->
<g id="Node000002" class="node">
<title>Node2</title>
<g id="a_Node000002"><a xlink:href="../../d3/d0c/class_weapon___base.html" target="_top" xlink:title="shorthand">
<polygon fill="white" stroke="#666666" points="224.38,-92 144.62,-92 144.62,-72 224.38,-72 224.38,-92"/>
<text text-anchor="middle" x="184.5" y="-78.5" font-family="Helvetica,sans-Serif" font-size="10.00">Weapon_Base</text>
</a>
</g>
</g>
<!-- Node2&#45;&gt;Node1 -->
<g id="edge2_Node000001_Node000002" class="edge">
<title>Node2&#45;&gt;Node1</title>
<g id="a_edge2_Node000001_Node000002"><a xlink:title=" ">
<path fill="none" stroke="#9a32cd" stroke-dasharray="5,2" d="M218.74,-67.3C252.01,-54 301.66,-34.14 330.79,-22.48"/>
<polygon fill="#9a32cd" stroke="#9a32cd" points="217.53,-64.02 209.54,-70.98 220.13,-70.52 217.53,-64.02"/>
</a>
</g>
<text text-anchor="middle" x="305.25" y="-44.5" font-family="Helvetica,sans-Serif" font-size="10.00" fill="grey"> m_weapon</text>
</g>
<!-- Node3 -->
<g id="Node000003" class="node">
<title>Node3</title>
<g id="a_Node000003"><a xlink:href="../../dc/d0c/class_weapon_stable_state.html" target="_top" xlink:title="represents weapon&#39;s stable state (i.e. the basic states that the weapon will spend the most time in)">
<polygon fill="white" stroke="#666666" points="103,-280 0,-280 0,-260 103,-260 103,-280"/>
<text text-anchor="middle" x="51.5" y="-266.5" font-family="Helvetica,sans-Serif" font-size="10.00">WeaponStableState</text>
</a>
</g>
</g>
<!-- Node3&#45;&gt;Node2 -->
<g id="edge3_Node000002_Node000003" class="edge">
<title>Node3&#45;&gt;Node2</title>
<g id="a_edge3_Node000002_Node000003"><a xlink:title=" ">
<path fill="none" stroke="#9a32cd" stroke-dasharray="5,2" d="M47.95,-248.57C43.41,-215.09 39.82,-148.45 74.75,-110 84.12,-99.69 116.86,-92.51 144.16,-88.16"/>
<polygon fill="#9a32cd" stroke="#9a32cd" points="44.45,-248.8 49.44,-258.15 51.37,-247.73 44.45,-248.8"/>
</a>
</g>
<text text-anchor="middle" x="87.88" y="-232.5" font-family="Helvetica,sans-Serif" font-size="10.00" fill="grey"> C</text>
<text text-anchor="middle" x="87.88" y="-220.5" font-family="Helvetica,sans-Serif" font-size="10.00" fill="grey">CC00</text>
<text text-anchor="middle" x="87.88" y="-208.5" font-family="Helvetica,sans-Serif" font-size="10.00" fill="grey">CC01</text>
<text text-anchor="middle" x="87.88" y="-196.5" font-family="Helvetica,sans-Serif" font-size="10.00" fill="grey">CC10</text>
<text text-anchor="middle" x="87.88" y="-184.5" font-family="Helvetica,sans-Serif" font-size="10.00" fill="grey">CC11</text>
<text text-anchor="middle" x="87.88" y="-172.5" font-family="Helvetica,sans-Serif" font-size="10.00" fill="grey">CD00</text>
<text text-anchor="middle" x="87.88" y="-160.5" font-family="Helvetica,sans-Serif" font-size="10.00" fill="grey">CD01</text>
<text text-anchor="middle" x="87.88" y="-148.5" font-family="Helvetica,sans-Serif" font-size="10.00" fill="grey">CJF0</text>
<text text-anchor="middle" x="87.88" y="-136.5" font-family="Helvetica,sans-Serif" font-size="10.00" fill="grey">CJF1</text>
<text text-anchor="middle" x="87.88" y="-124.5" font-family="Helvetica,sans-Serif" font-size="10.00" fill="grey">OD00</text>
<text text-anchor="middle" x="87.88" y="-112.5" font-family="Helvetica,sans-Serif" font-size="10.00" fill="grey">...</text>
</g>
<!-- Node4 -->
<g id="Node000004" class="node">
<title>Node4</title>
<g id="a_Node000004"><a xlink:href="../../db/d06/class_param3.html" target="_top" xlink:title=" ">
<polygon fill="white" stroke="#666666" points="318.38,-280 268.62,-280 268.62,-260 318.38,-260 318.38,-280"/>
<text text-anchor="middle" x="293.5" y="-266.5" font-family="Helvetica,sans-Serif" font-size="10.00">Param3</text>
</a>
</g>
</g>
<!-- Node4&#45;&gt;Node1 -->
<g id="edge7_Node000001_Node000004" class="edge">
<title>Node4&#45;&gt;Node1</title>
<g id="a_edge7_Node000001_Node000004"><a xlink:title=" ">
<path fill="none" stroke="#9a32cd" stroke-dasharray="5,2" d="M328.23,-254.55C333.06,-251.12 337.42,-246.97 340.5,-242 363.75,-204.51 357.25,-60.46 355.07,-22.31"/>
<polygon fill="#9a32cd" stroke="#9a32cd" points="326.67,-251.4 319.87,-259.52 330.25,-257.42 326.67,-251.4"/>
</a>
</g>
<text text-anchor="middle" x="381.5" y="-78.5" font-family="Helvetica,sans-Serif" font-size="10.00" fill="grey"> m_muzzle</text>
</g>
<!-- Node4&#45;&gt;Node2 -->
<g id="edge4_Node000002_Node000004" class="edge">
<title>Node4&#45;&gt;Node2</title>
<g id="a_edge4_Node000002_Node000004"><a xlink:title=" ">
<path fill="none" stroke="#9a32cd" stroke-dasharray="5,2" d="M259.86,-253.61C255.41,-250.33 251.32,-246.48 248.25,-242 214.55,-192.93 258.1,-159.81 225.5,-110 220.65,-102.58 212.97,-96.74 205.56,-92.41"/>
<polygon fill="#9a32cd" stroke="#9a32cd" points="257.72,-256.4 268.06,-258.74 261.44,-250.46 257.72,-256.4"/>
</a>
</g>
<text text-anchor="middle" x="294.62" y="-178.5" font-family="Helvetica,sans-Serif" font-size="10.00" fill="grey"> m_ActiveMuzzle</text>
<text text-anchor="middle" x="294.62" y="-166.5" font-family="Helvetica,sans-Serif" font-size="10.00" fill="grey">m_LastMuzzleloaded</text>
</g>
<!-- Node5 -->
<g id="Node000005" class="node">
<title>Node5</title>
<g id="a_Node000005"><a xlink:href="../../d5/d02/classstring.html" target="_top" xlink:title=" ">
<polygon fill="white" stroke="#666666" points="161.5,-280 121.5,-280 121.5,-260 161.5,-260 161.5,-280"/>
<text text-anchor="middle" x="141.5" y="-266.5" font-family="Helvetica,sans-Serif" font-size="10.00">string</text>
</a>
</g>
</g>
<!-- Node5&#45;&gt;Node2 -->
<g id="edge5_Node000002_Node000005" class="edge">
<title>Node5&#45;&gt;Node2</title>
<g id="a_edge5_Node000002_Node000005"><a xlink:title=" ">
<path fill="none" stroke="#9a32cd" stroke-dasharray="5,2" d="M126.07,-250.7C124.4,-247.93 122.97,-244.99 122,-242 103.95,-186.18 89.78,-159.02 122,-110 127.26,-102 135.45,-96.36 144.18,-92.39"/>
<polygon fill="#9a32cd" stroke="#9a32cd" points="123.07,-252.54 131.76,-258.6 128.75,-248.44 123.07,-252.54"/>
</a>
</g>
<text text-anchor="middle" x="174.25" y="-178.5" font-family="Helvetica,sans-Serif" font-size="10.00" fill="grey"> ATT_SLOT_CYLINDER</text>
<text text-anchor="middle" x="174.25" y="-166.5" font-family="Helvetica,sans-Serif" font-size="10.00" fill="grey">ATT_SLOT_EJECTOR</text>
</g>
<!-- Node5&#45;&gt;Node5 -->
<g id="edge6_Node000005_Node000005" class="edge">
<title>Node5&#45;&gt;Node5</title>
<g id="a_edge6_Node000005_Node000005"><a xlink:title=" ">
<path fill="none" stroke="#9a32cd" stroke-dasharray="5,2" d="M158.94,-286.47C169.51,-290.25 179.5,-284.76 179.5,-270 179.5,-250.72 162.45,-247.26 149.33,-259.61"/>
<polygon fill="#9a32cd" stroke="#9a32cd" points="160.93,-283.59 150.61,-281.2 157.19,-289.51 160.93,-283.59"/>
</a>
</g>
<text text-anchor="middle" x="195.25" y="-266.5" font-family="Helvetica,sans-Serif" font-size="10.00" fill="grey"> Empty</text>
</g>
<!-- Node6 -->
<g id="Node000006" class="node">
<title>Node6</title>
<g id="a_Node000006"><a xlink:href="../../d1/d0f/class_weapon_chambering___base.html" target="_top" xlink:title=" ">
<polygon fill="white" stroke="#666666" points="552.25,-92 420.75,-92 420.75,-72 552.25,-72 552.25,-92"/>
<text text-anchor="middle" x="486.5" y="-78.5" font-family="Helvetica,sans-Serif" font-size="10.00">WeaponChambering_Base</text>
</a>
</g>
</g>
<!-- Node6&#45;&gt;Node1 -->
<g id="edge8_Node000001_Node000006" class="edge">
<title>Node6&#45;&gt;Node1</title>
<g id="a_edge8_Node000001_Node000006"><a xlink:title=" ">
<path fill="none" stroke="#9a32cd" stroke-dasharray="5,2" d="M458.18,-66.41C432.3,-53.08 394.79,-33.76 372.7,-22.37"/>
<polygon fill="#9a32cd" stroke="#9a32cd" points="456.31,-69.38 466.8,-70.85 459.51,-63.16 456.31,-69.38"/>
</a>
</g>
<text text-anchor="middle" x="450.62" y="-44.5" font-family="Helvetica,sans-Serif" font-size="10.00" fill="grey"> m_state</text>
</g>
</g>
</svg>

<g id="navigator" transform="translate(0 0)" fill="#404254">
  <rect fill="#f2f5e9" fill-opacity="0.5" stroke="#606060" stroke-width=".5" x="0" y="0" width="60" height="60"/>
  <use id="zoomplus" xlink:href="#zoomPlus" x="17" y="9" onmousedown="handleZoom(evt,'in')"/>
  <use id="zoomminus" xlink:href="#zoomMin" x="42" y="9" onmousedown="handleZoom(evt,'out')"/>
  <use id="reset" xlink:href="#resetDef" x="30" y="36" onmousedown="handleReset()"/>
   <use id="arrowup" xlink:href="#arrowUp" x="0" y="0" onmousedown="handlePan(0,-1)"/>
  <use id="arrowright" xlink:href="#arrowRight" x="0" y="0" onmousedown="handlePan(1,0)"/>
  <use id="arrowdown" xlink:href="#arrowDown" x="0" y="0" onmousedown="handlePan(0,1)"/>
  <use id="arrowleft" xlink:href="#arrowLeft" x="0" y="0" onmousedown="handlePan(-1,0)"/>
</g>
<svg viewBox="0 0 15 15" width="100%" height="30px" preserveAspectRatio="xMaxYMin meet">
 <g id="arrow_out" transform="scale(0.3 0.3)">
  <a xlink:href="class_weapon_guard_base__coll__graph_org.svg" target="_base">
   <rect id="button" ry="5" rx="5" y="6" x="6" height="38" width="38"
        fill="#f2f5e9" fill-opacity="0.5" stroke="#606060" stroke-width="1.0"/>
   <path id="arrow"
     d="M 11.500037,31.436501 C 11.940474,20.09759 22.043105,11.32322 32.158766,21.979434 L 37.068811,17.246167 C 37.068811,17.246167 37.088388,32 37.088388,32 L 22.160133,31.978069 C 22.160133,31.978069 26.997745,27.140456 26.997745,27.140456 C 18.528582,18.264221 13.291696,25.230495 11.500037,31.436501 z"
     style="fill:#404040;"/>
  </a>
 </g>
</svg>

<style type='text/css'>
<![CDATA[
[data-mouse-over-selected='false'] { opacity: 0.7; }
[data-mouse-over-selected='true']  { opacity: 1.0; }
]]>
</style>
<script type="application/ecmascript"><![CDATA[
document.addEventListener('DOMContentLoaded', (event) => {
  highlightEdges();
  highlightAdjacentNodes();
});
]]></script>
</svg>
