<?xml version="1.0" encoding="UTF-8" standalone="no"?>
<!DOCTYPE svg PUBLIC "-//W3C//DTD SVG 1.1//EN"
 "http://www.w3.org/Graphics/SVG/1.1/DTD/svg11.dtd">
<!-- Generated by graphviz version 11.0.0 (20240428.1522)
 -->
<!-- Title: NoticeSpacer Pages: 1 -->
<svg width="148pt" height="196pt"
 viewBox="0.00 0.00 147.75 196.00" xmlns="http://www.w3.org/2000/svg" xmlns:xlink="http://www.w3.org/1999/xlink">
<g id="graph0" class="graph" transform="scale(1 1) rotate(0) translate(4 192)">
<title>NoticeSpacer</title>
<!-- Node1 -->
<g id="Node000001" class="node">
<title>Node1</title>
<g id="a_Node000001"><a xlink:title=" ">
<polygon fill="#999999" stroke="#666666" points="107.12,-20 32.62,-20 32.62,0 107.12,0 107.12,-20"/>
<text text-anchor="middle" x="69.88" y="-6.5" font-family="Helvetica,sans-Serif" font-size="10.00">NoticeSpacer</text>
</a>
</g>
</g>
<!-- Node2 -->
<g id="Node000002" class="node">
<title>Node2</title>
<g id="a_Node000002"><a xlink:href="../../d7/d0d/class_auto_height_spacer.html" target="_top" xlink:title=" ">
<polygon fill="white" stroke="#666666" points="117.25,-76 22.5,-76 22.5,-56 117.25,-56 117.25,-76"/>
<text text-anchor="middle" x="69.88" y="-62.5" font-family="Helvetica,sans-Serif" font-size="10.00">AutoHeightSpacer</text>
</a>
</g>
</g>
<!-- Node2&#45;&gt;Node1 -->
<g id="edge1_Node000001_Node000002" class="edge">
<title>Node2&#45;&gt;Node1</title>
<g id="a_edge1_Node000001_Node000002"><a xlink:title=" ">
<path fill="none" stroke="#8b1a1a" d="M69.88,-44.13C69.88,-35.9 69.88,-26.85 69.88,-20.3"/>
<polygon fill="#8b1a1a" stroke="#8b1a1a" points="66.38,-44.08 69.88,-54.08 73.38,-44.08 66.38,-44.08"/>
</a>
</g>
</g>
<!-- Node3 -->
<g id="Node000003" class="node">
<title>Node3</title>
<g id="a_Node000003"><a xlink:href="../../df/d04/class_scripted_widget_event_handler.html" target="_top" xlink:title="map: item x vector(index, width, height)">
<polygon fill="white" stroke="#666666" points="139.75,-132 0,-132 0,-112 139.75,-112 139.75,-132"/>
<text text-anchor="middle" x="69.88" y="-118.5" font-family="Helvetica,sans-Serif" font-size="10.00">ScriptedWidgetEventHandler</text>
</a>
</g>
</g>
<!-- Node3&#45;&gt;Node2 -->
<g id="edge2_Node000002_Node000003" class="edge">
<title>Node3&#45;&gt;Node2</title>
<g id="a_edge2_Node000002_Node000003"><a xlink:title=" ">
<path fill="none" stroke="#8b1a1a" d="M69.88,-100.13C69.88,-91.9 69.88,-82.85 69.88,-76.3"/>
<polygon fill="#8b1a1a" stroke="#8b1a1a" points="66.38,-100.08 69.88,-110.08 73.38,-100.08 66.38,-100.08"/>
</a>
</g>
</g>
<!-- Node4 -->
<g id="Node000004" class="node">
<title>Node4</title>
<g id="a_Node000004"><a xlink:href="../../dd/d07/class_managed.html" target="_top" xlink:title="TODO doc.">
<polygon fill="white" stroke="#666666" points="97.75,-188 42,-188 42,-168 97.75,-168 97.75,-188"/>
<text text-anchor="middle" x="69.88" y="-174.5" font-family="Helvetica,sans-Serif" font-size="10.00">Managed</text>
</a>
</g>
</g>
<!-- Node4&#45;&gt;Node3 -->
<g id="edge3_Node000003_Node000004" class="edge">
<title>Node4&#45;&gt;Node3</title>
<g id="a_edge3_Node000003_Node000004"><a xlink:title=" ">
<path fill="none" stroke="#8b1a1a" d="M69.88,-156.13C69.88,-147.9 69.88,-138.85 69.88,-132.3"/>
<polygon fill="#8b1a1a" stroke="#8b1a1a" points="66.38,-156.08 69.88,-166.08 73.38,-156.08 66.38,-156.08"/>
</a>
</g>
</g>
</g>
</svg>
