<?xml version="1.0" encoding="UTF-8" standalone="no"?>
<!DOCTYPE svg PUBLIC "-//W3C//DTD SVG 1.1//EN"
 "http://www.w3.org/Graphics/SVG/1.1/DTD/svg11.dtd">
<!-- Generated by graphviz version 11.0.0 (20240428.1522)
 -->
<!-- Title: FatigueMdfr Pages: 1 -->
<svg width="238pt" height="220pt"
 viewBox="0.00 0.00 237.62 220.16" xmlns="http://www.w3.org/2000/svg" xmlns:xlink="http://www.w3.org/1999/xlink">
<g id="graph0" class="graph" transform="scale(1 1) rotate(0) translate(4 216.16)">
<title>FatigueMdfr</title>
<!-- Node1 -->
<g id="Node000001" class="node">
<title>Node1</title>
<g id="a_Node000001"><a xlink:title=" ">
<polygon fill="#999999" stroke="#666666" points="92.62,-20 25.62,-20 25.62,0 92.62,0 92.62,-20"/>
<text text-anchor="middle" x="59.12" y="-6.5" font-family="Helvetica,sans-Serif" font-size="10.00">FatigueMdfr</text>
</a>
</g>
</g>
<!-- Node2 -->
<g id="Node000002" class="node">
<title>Node2</title>
<g id="a_Node000002"><a xlink:href="../../d8/d0a/class_modifier_base.html" target="_top" xlink:title=" ">
<polygon fill="white" stroke="#666666" points="72.25,-204 0,-204 0,-184 72.25,-184 72.25,-204"/>
<text text-anchor="middle" x="36.12" y="-190.5" font-family="Helvetica,sans-Serif" font-size="10.00">ModifierBase</text>
</a>
</g>
</g>
<!-- Node2&#45;&gt;Node1 -->
<g id="edge1_Node000001_Node000002" class="edge">
<title>Node2&#45;&gt;Node1</title>
<g id="a_edge1_Node000001_Node000002"><a xlink:title=" ">
<path fill="none" stroke="#8b1a1a" d="M38.72,-172.48C43.68,-133.21 54.35,-48.79 57.93,-20.48"/>
<polygon fill="#8b1a1a" stroke="#8b1a1a" points="35.27,-171.86 37.49,-182.22 42.21,-172.74 35.27,-171.86"/>
</a>
</g>
</g>
<!-- Node3 -->
<g id="Node000003" class="node">
<title>Node3</title>
<g id="a_Node000003"><a xlink:href="../../d4/d03/classfloat.html" target="_top" xlink:title=" ">
<polygon fill="white" stroke="#666666" points="124.12,-204 90.12,-204 90.12,-184 124.12,-184 124.12,-204"/>
<text text-anchor="middle" x="107.12" y="-190.5" font-family="Helvetica,sans-Serif" font-size="10.00">float</text>
</a>
</g>
</g>
<!-- Node3&#45;&gt;Node1 -->
<g id="edge2_Node000001_Node000003" class="edge">
<title>Node3&#45;&gt;Node1</title>
<g id="a_edge2_Node000001_Node000003"><a xlink:title=" ">
<path fill="none" stroke="#9a32cd" stroke-dasharray="5,2" d="M101.78,-172.74C91.45,-133.58 69.11,-48.85 61.62,-20.48"/>
<polygon fill="#9a32cd" stroke="#9a32cd" points="98.36,-173.48 104.29,-182.26 105.13,-171.7 98.36,-173.48"/>
</a>
</g>
<text text-anchor="start" x="96.12" y="-148.5" font-family="Helvetica,sans-Serif" font-size="10.00" fill="grey"> FATIGUE_EVENT_INTERVAL</text>
<text text-anchor="middle" x="162.88" y="-136.5" font-family="Helvetica,sans-Serif" font-size="10.00" fill="grey">_MAX</text>
<text text-anchor="start" x="96.12" y="-124.5" font-family="Helvetica,sans-Serif" font-size="10.00" fill="grey">FATIGUE_EVENT_INTERVAL</text>
<text text-anchor="middle" x="162.88" y="-112.5" font-family="Helvetica,sans-Serif" font-size="10.00" fill="grey">_MIN</text>
<text text-anchor="start" x="96.12" y="-100.5" font-family="Helvetica,sans-Serif" font-size="10.00" fill="grey">STAMINA_DEPLETION</text>
<text text-anchor="middle" x="162.88" y="-88.5" font-family="Helvetica,sans-Serif" font-size="10.00" fill="grey">_MULTIPLIER</text>
<text text-anchor="start" x="96.12" y="-76.5" font-family="Helvetica,sans-Serif" font-size="10.00" fill="grey">STAMINA_RECOVERY</text>
<text text-anchor="middle" x="162.88" y="-64.5" font-family="Helvetica,sans-Serif" font-size="10.00" fill="grey">_MULTIPLIER</text>
<text text-anchor="middle" x="162.88" y="-52.5" font-family="Helvetica,sans-Serif" font-size="10.00" fill="grey">m_NextEvent</text>
<text text-anchor="middle" x="162.88" y="-40.5" font-family="Helvetica,sans-Serif" font-size="10.00" fill="grey">m_Time</text>
</g>
<!-- Node3&#45;&gt;Node3 -->
<g id="edge3_Node000003_Node000003" class="edge">
<title>Node3&#45;&gt;Node3</title>
<g id="a_edge3_Node000003_Node000003"><a xlink:title=" ">
<path fill="none" stroke="#9a32cd" stroke-dasharray="5,2" d="M123.21,-210.83C132.94,-214.67 142.12,-209.06 142.12,-194 142.12,-174.12 126.12,-170.71 114,-183.75"/>
<polygon fill="#9a32cd" stroke="#9a32cd" points="125.4,-208.09 115.23,-205.13 121.33,-213.79 125.4,-208.09"/>
</a>
</g>
<text text-anchor="middle" x="164.25" y="-202.5" font-family="Helvetica,sans-Serif" font-size="10.00" fill="grey"> LOWEST</text>
<text text-anchor="middle" x="164.25" y="-190.5" font-family="Helvetica,sans-Serif" font-size="10.00" fill="grey">MAX</text>
<text text-anchor="middle" x="164.25" y="-178.5" font-family="Helvetica,sans-Serif" font-size="10.00" fill="grey">MIN</text>
</g>
</g>
</svg>
