<?xml version="1.0" encoding="UTF-8" standalone="no"?>
<!DOCTYPE svg PUBLIC "-//W3C//DTD SVG 1.1//EN"
 "http://www.w3.org/Graphics/SVG/1.1/DTD/svg11.dtd">
<!-- Generated by graphviz version 11.0.0 (20240428.1522)
 -->
<!-- Title: BrokenLegsMdfr Pages: 1 -->
<svg width="282pt" height="136pt"
 viewBox="0.00 0.00 282.38 136.00" xmlns="http://www.w3.org/2000/svg" xmlns:xlink="http://www.w3.org/1999/xlink">

<svg id="main" version="1.1" xmlns="http://www.w3.org/2000/svg" xmlns:xlink="http://www.w3.org/1999/xlink" xml:space="preserve" onload="init(evt)">
<style type="text/css"><![CDATA[
.node, .edge {opacity: 0.7;}
.node.selected, .edge.selected {opacity: 1;}
.edge:hover path { stroke: red; }
.edge:hover polygon { stroke: red; fill: red; }
]]></style>
<script type="application/ecmascript" xlink:href="../../svg.min.js"/>
<svg id="graph" class="graph">
<g id="graph0" class="graph" transform="scale(1 1) rotate(0) translate(4 132)">
<title>BrokenLegsMdfr</title>
<!-- Node1 -->
<g id="Node000001" class="node">
<title>Node1</title>
<g id="a_Node000001"><a xlink:title=" ">
<polygon fill="#999999" stroke="#666666" points="150.38,-20 63.88,-20 63.88,0 150.38,0 150.38,-20"/>
<text text-anchor="middle" x="107.12" y="-6.5" font-family="Helvetica,sans-Serif" font-size="10.00">BrokenLegsMdfr</text>
</a>
</g>
</g>
<!-- Node2 -->
<g id="Node000002" class="node">
<title>Node2</title>
<g id="a_Node000002"><a xlink:href="../../d8/d0a/class_modifier_base.html" target="_top" xlink:title=" ">
<polygon fill="white" stroke="#666666" points="72.25,-120 0,-120 0,-100 72.25,-100 72.25,-120"/>
<text text-anchor="middle" x="36.12" y="-106.5" font-family="Helvetica,sans-Serif" font-size="10.00">ModifierBase</text>
</a>
</g>
</g>
<!-- Node2&#45;&gt;Node1 -->
<g id="edge1_Node000001_Node000002" class="edge">
<title>Node2&#45;&gt;Node1</title>
<g id="a_edge1_Node000001_Node000002"><a xlink:title=" ">
<path fill="none" stroke="#8b1a1a" d="M49.58,-90.43C64.75,-69.48 88.84,-36.24 100.44,-20.23"/>
<polygon fill="#8b1a1a" stroke="#8b1a1a" points="46.85,-88.23 43.82,-98.38 52.52,-92.33 46.85,-88.23"/>
</a>
</g>
</g>
<!-- Node3 -->
<g id="Node000003" class="node">
<title>Node3</title>
<g id="a_Node000003"><a xlink:href="../../d4/d03/classfloat.html" target="_top" xlink:title=" ">
<polygon fill="white" stroke="#666666" points="124.12,-120 90.12,-120 90.12,-100 124.12,-100 124.12,-120"/>
<text text-anchor="middle" x="107.12" y="-106.5" font-family="Helvetica,sans-Serif" font-size="10.00">float</text>
</a>
</g>
</g>
<!-- Node3&#45;&gt;Node1 -->
<g id="edge2_Node000001_Node000003" class="edge">
<title>Node3&#45;&gt;Node1</title>
<g id="a_edge2_Node000001_Node000003"><a xlink:title=" ">
<path fill="none" stroke="#9a32cd" stroke-dasharray="5,2" d="M107.12,-88.1C107.12,-67.09 107.12,-35.66 107.12,-20.23"/>
<polygon fill="#9a32cd" stroke="#9a32cd" points="103.63,-88.09 107.13,-98.09 110.63,-88.09 103.63,-88.09"/>
</a>
</g>
<text text-anchor="middle" x="149.5" y="-64.5" font-family="Helvetica,sans-Serif" font-size="10.00" fill="grey"> HEALTHY_LEG</text>
<text text-anchor="middle" x="149.5" y="-52.5" font-family="Helvetica,sans-Serif" font-size="10.00" fill="grey">TIME_TO_UPDATE</text>
<text text-anchor="middle" x="149.5" y="-40.5" font-family="Helvetica,sans-Serif" font-size="10.00" fill="grey">elapsedTime</text>
</g>
<!-- Node3&#45;&gt;Node3 -->
<g id="edge3_Node000003_Node000003" class="edge">
<title>Node3&#45;&gt;Node3</title>
<g id="a_edge3_Node000003_Node000003"><a xlink:title=" ">
<path fill="none" stroke="#9a32cd" stroke-dasharray="5,2" d="M135.8,-118.94C139.6,-117.42 142.12,-114.44 142.12,-110 142.12,-101.88 133.68,-98.64 124.41,-100.29"/>
<polygon fill="#9a32cd" stroke="#9a32cd" points="135.67,-115.44 125.92,-119.61 136.14,-122.43 135.67,-115.44"/>
</a>
</g>
<text text-anchor="middle" x="164.25" y="-118.5" font-family="Helvetica,sans-Serif" font-size="10.00" fill="grey"> LOWEST</text>
<text text-anchor="middle" x="164.25" y="-106.5" font-family="Helvetica,sans-Serif" font-size="10.00" fill="grey">MAX</text>
<text text-anchor="middle" x="164.25" y="-94.5" font-family="Helvetica,sans-Serif" font-size="10.00" fill="grey">MIN</text>
</g>
<!-- Node4 -->
<g id="Node000004" class="node">
<title>Node4</title>
<g id="a_Node000004"><a xlink:href="../../db/d06/class_param3.html" target="_top" xlink:title=" ">
<polygon fill="white" stroke="#666666" points="254,-120 204.25,-120 204.25,-100 254,-100 254,-120"/>
<text text-anchor="middle" x="229.12" y="-106.5" font-family="Helvetica,sans-Serif" font-size="10.00">Param3</text>
</a>
</g>
</g>
<!-- Node4&#45;&gt;Node1 -->
<g id="edge4_Node000001_Node000004" class="edge">
<title>Node4&#45;&gt;Node1</title>
<g id="a_edge4_Node000001_Node000004"><a xlink:title=" ">
<path fill="none" stroke="#9a32cd" stroke-dasharray="5,2" d="M224.59,-88.87C220,-72.92 211.34,-51.21 196.12,-38 183.45,-26.99 166.38,-20.47 150.58,-16.61"/>
<polygon fill="#9a32cd" stroke="#9a32cd" points="221.12,-89.41 226.98,-98.23 227.9,-87.67 221.12,-89.41"/>
</a>
</g>
<text text-anchor="middle" x="246.25" y="-52.5" font-family="Helvetica,sans-Serif" font-size="10.00" fill="grey"> currentState</text>
</g>
</g>
</svg>
</svg>

<style type='text/css'>
<![CDATA[
[data-mouse-over-selected='false'] { opacity: 0.7; }
[data-mouse-over-selected='true']  { opacity: 1.0; }
]]>
</style>
<script type="application/ecmascript"><![CDATA[
document.addEventListener('DOMContentLoaded', (event) => {
  highlightEdges();
  highlightAdjacentNodes();
});
]]></script>
</svg>
