<?xml version="1.0" encoding="UTF-8" standalone="no"?>
<!DOCTYPE svg PUBLIC "-//W3C//DTD SVG 1.1//EN"
 "http://www.w3.org/Graphics/SVG/1.1/DTD/svg11.dtd">
<!-- Generated by graphviz version 11.0.0 (20240428.1522)
 -->
<!-- Title: ActionOpenCarDoors Pages: 1 -->
<svg width="1414pt" height="878pt"
 viewBox="0.00 0.00 1414.25 878.00" xmlns="http://www.w3.org/2000/svg" xmlns:xlink="http://www.w3.org/1999/xlink">
<g id="graph0" class="graph" transform="scale(1 1) rotate(0) translate(4 874)">
<title>ActionOpenCarDoors</title>
<!-- Node1 -->
<g id="Node000001" class="node">
<title>Node1</title>
<g id="a_Node000001"><a xlink:title=" ">
<polygon fill="#999999" stroke="#666666" points="1406.25,-755 1298.75,-755 1298.75,-735 1406.25,-735 1406.25,-755"/>
<text text-anchor="middle" x="1352.5" y="-741.5" font-family="Helvetica,sans-Serif" font-size="10.00">ActionOpenCarDoors</text>
</a>
</g>
</g>
<!-- Node2 -->
<g id="Node000002" class="node">
<title>Node2</title>
<g id="a_Node000002"><a xlink:href="../../db/d08/class_action_car_doors.html" target="_top" xlink:title=" ">
<polygon fill="white" stroke="#666666" points="1262.75,-755 1178.5,-755 1178.5,-735 1262.75,-735 1262.75,-755"/>
<text text-anchor="middle" x="1220.62" y="-741.5" font-family="Helvetica,sans-Serif" font-size="10.00">ActionCarDoors</text>
</a>
</g>
</g>
<!-- Node2&#45;&gt;Node1 -->
<g id="edge1_Node000001_Node000002" class="edge">
<title>Node2&#45;&gt;Node1</title>
<g id="a_edge1_Node000001_Node000002"><a xlink:title=" ">
<path fill="none" stroke="#8b1a1a" d="M1274.48,-745C1282.42,-745 1290.62,-745 1298.56,-745"/>
<polygon fill="#8b1a1a" stroke="#8b1a1a" points="1274.59,-741.5 1264.59,-745 1274.59,-748.5 1274.59,-741.5"/>
</a>
</g>
</g>
<!-- Node3 -->
<g id="Node000003" class="node">
<title>Node3</title>
<g id="a_Node000003"><a xlink:href="../../d0/d0b/class_action_interact_base.html" target="_top" xlink:title=" ">
<polygon fill="white" stroke="#666666" points="624.88,-755 526.38,-755 526.38,-735 624.88,-735 624.88,-755"/>
<text text-anchor="middle" x="575.62" y="-741.5" font-family="Helvetica,sans-Serif" font-size="10.00">ActionInteractBase</text>
</a>
</g>
</g>
<!-- Node3&#45;&gt;Node2 -->
<g id="edge2_Node000002_Node000003" class="edge">
<title>Node3&#45;&gt;Node2</title>
<g id="a_edge2_Node000002_Node000003"><a xlink:title=" ">
<path fill="none" stroke="#8b1a1a" d="M636.42,-745C765.47,-745 1067.36,-745 1178.02,-745"/>
<polygon fill="#8b1a1a" stroke="#8b1a1a" points="636.73,-741.5 626.73,-745 636.73,-748.5 636.73,-741.5"/>
</a>
</g>
</g>
<!-- Node4 -->
<g id="Node000004" class="node">
<title>Node4</title>
<g id="a_Node000004"><a xlink:href="../../d7/d04/class_animated_action_base.html" target="_top" xlink:title=" ">
<polygon fill="white" stroke="#666666" points="330.38,-799 222.88,-799 222.88,-779 330.38,-779 330.38,-799"/>
<text text-anchor="middle" x="276.62" y="-785.5" font-family="Helvetica,sans-Serif" font-size="10.00">AnimatedActionBase</text>
</a>
</g>
</g>
<!-- Node4&#45;&gt;Node3 -->
<g id="edge3_Node000003_Node000004" class="edge">
<title>Node4&#45;&gt;Node3</title>
<g id="a_edge3_Node000003_Node000004"><a xlink:title=" ">
<path fill="none" stroke="#8b1a1a" d="M341.8,-779.49C397.08,-771.3 475.69,-759.66 525.92,-752.21"/>
<polygon fill="#8b1a1a" stroke="#8b1a1a" points="341.6,-775.98 332.22,-780.91 342.62,-782.91 341.6,-775.98"/>
</a>
</g>
</g>
<!-- Node5 -->
<g id="Node000005" class="node">
<title>Node5</title>
<g id="a_Node000005"><a xlink:title=" ">
<polygon fill="white" stroke="#666666" points="66.25,-870 0,-870 0,-850 66.25,-850 66.25,-870"/>
<text text-anchor="middle" x="33.12" y="-856.5" font-family="Helvetica,sans-Serif" font-size="10.00">ActionBase</text>
</a>
</g>
</g>
<!-- Node5&#45;&gt;Node4 -->
<g id="edge4_Node000004_Node000005" class="edge">
<title>Node5&#45;&gt;Node4</title>
<g id="a_edge4_Node000004_Node000005"><a xlink:title=" ">
<path fill="none" stroke="#8b1a1a" d="M77.32,-848.71C111.01,-839.75 158.9,-826.66 200.5,-814 215.36,-809.48 231.74,-804.08 245.4,-799.45"/>
<polygon fill="#8b1a1a" stroke="#8b1a1a" points="76.71,-845.25 67.94,-851.2 78.5,-852.02 76.71,-845.25"/>
</a>
</g>
</g>
<!-- Node6 -->
<g id="Node000006" class="node">
<title>Node6</title>
<g id="a_Node000006"><a xlink:href="../../db/d06/class_param3.html" target="_top" xlink:title=" ">
<polygon fill="white" stroke="#666666" points="58,-693 8.25,-693 8.25,-673 58,-673 58,-693"/>
<text text-anchor="middle" x="33.12" y="-679.5" font-family="Helvetica,sans-Serif" font-size="10.00">Param3</text>
</a>
</g>
</g>
<!-- Node6&#45;&gt;Node2 -->
<g id="edge8_Node000002_Node000006" class="edge">
<title>Node6&#45;&gt;Node2</title>
<g id="a_edge8_Node000002_Node000006"><a xlink:title=" ">
<path fill="none" stroke="#9a32cd" stroke-dasharray="5,2" d="M35.59,-704.46C38.88,-734.23 49.56,-787.29 84.25,-813 152.76,-863.79 190.34,-827 275.62,-827 275.62,-827 275.62,-827 1083.75,-827 1138.58,-827 1190.27,-777.45 1210.57,-755.39"/>
<polygon fill="#9a32cd" stroke="#9a32cd" points="39.1,-704.43 34.72,-694.78 32.13,-705.06 39.1,-704.43"/>
</a>
</g>
<text text-anchor="middle" x="726.5" y="-829.5" font-family="Helvetica,sans-Serif" font-size="10.00" fill="grey"> m_CommandUIDPerCrewIdx</text>
</g>
<!-- Node6&#45;&gt;Node4 -->
<g id="edge5_Node000004_Node000006" class="edge">
<title>Node6&#45;&gt;Node4</title>
<g id="a_edge5_Node000004_Node000006"><a xlink:title=" ">
<path fill="none" stroke="#9a32cd" stroke-dasharray="5,2" d="M41.1,-703.83C48.61,-722.81 62.5,-749.96 84.25,-764 106.49,-778.36 174.18,-784.52 222.74,-787.13"/>
<polygon fill="#9a32cd" stroke="#9a32cd" points="44.47,-702.87 37.75,-694.68 37.9,-705.27 44.47,-702.87"/>
</a>
</g>
<text text-anchor="middle" x="142.38" y="-799.5" font-family="Helvetica,sans-Serif" font-size="10.00" fill="grey"> m_CommandUID</text>
<text text-anchor="middle" x="142.38" y="-787.5" font-family="Helvetica,sans-Serif" font-size="10.00" fill="grey">m_CommandUIDProne</text>
</g>
<!-- Node16 -->
<g id="Node000016" class="node">
<title>Node16</title>
<g id="a_Node000016"><a xlink:href="../../d2/d01/classarray.html" target="_top" xlink:title="Result for an object found in CGame.IsBoxCollidingGeometryProxy.">
<polygon fill="white" stroke="#666666" points="295.5,-178 257.75,-178 257.75,-158 295.5,-158 295.5,-178"/>
<text text-anchor="middle" x="276.62" y="-164.5" font-family="Helvetica,sans-Serif" font-size="10.00">array</text>
</a>
</g>
</g>
<!-- Node6&#45;&gt;Node16 -->
<g id="edge22_Node000016_Node000006" class="edge">
<title>Node6&#45;&gt;Node16</title>
<g id="a_edge22_Node000016_Node000006"><a xlink:title=" ">
<path fill="none" stroke="#9a32cd" stroke-dasharray="5,2" d="M40.84,-661.7C48.38,-636.85 60.33,-594.39 66.25,-557 75.97,-495.64 51.42,-330.75 84.25,-278 124.55,-213.26 217.84,-182.7 257.38,-172.3"/>
<polygon fill="#9a32cd" stroke="#9a32cd" points="37.51,-660.65 37.9,-671.24 44.2,-662.72 37.51,-660.65"/>
</a>
</g>
<text text-anchor="middle" x="142.38" y="-340.5" font-family="Helvetica,sans-Serif" font-size="10.00" fill="grey"> NO_SORTING</text>
<text text-anchor="middle" x="142.38" y="-328.5" font-family="Helvetica,sans-Serif" font-size="10.00" fill="grey">geomLevel</text>
<text text-anchor="middle" x="142.38" y="-316.5" font-family="Helvetica,sans-Serif" font-size="10.00" fill="grey">hierLevel</text>
<text text-anchor="start" x="84.25" y="-304.5" font-family="Helvetica,sans-Serif" font-size="10.00" fill="grey">m_CurrentSettingAlternate</text>
<text text-anchor="middle" x="142.38" y="-292.5" font-family="Helvetica,sans-Serif" font-size="10.00" fill="grey">KeyIndex</text>
<text text-anchor="middle" x="142.38" y="-280.5" font-family="Helvetica,sans-Serif" font-size="10.00" fill="grey">m_CurrentSettingKeyIndex</text>
</g>
<!-- Node20 -->
<g id="Node000020" class="node">
<title>Node20</title>
<g id="a_Node000020"><a xlink:href="../../d2/d01/classarray.html" target="_top" xlink:title=" ">
<polygon fill="white" stroke="#666666" points="618.88,-213 532.38,-213 532.38,-193 618.88,-193 618.88,-213"/>
<text text-anchor="middle" x="575.62" y="-199.5" font-family="Helvetica,sans-Serif" font-size="10.00">array&lt; Widget &gt;</text>
</a>
</g>
</g>
<!-- Node6&#45;&gt;Node20 -->
<g id="edge29_Node000020_Node000006" class="edge">
<title>Node6&#45;&gt;Node20</title>
<g id="a_edge29_Node000020_Node000006"><a xlink:title=" ">
<path fill="none" stroke="#9a32cd" stroke-dasharray="5,2" d="M39.36,-661.95C50.48,-617.66 76.09,-517.76 84.25,-504 126.78,-432.3 142.69,-407.69 218.5,-373 273.11,-348.01 441.7,-388.54 487.75,-350 511.4,-330.21 491.33,-310.25 505.75,-283 520.75,-254.65 547.43,-227.68 562.81,-213.44"/>
<polygon fill="#9a32cd" stroke="#9a32cd" points="36.04,-660.83 37.01,-671.38 42.83,-662.53 36.04,-660.83"/>
</a>
</g>
<text text-anchor="middle" x="276.62" y="-435.5" font-family="Helvetica,sans-Serif" font-size="10.00" fill="grey"> NO_SORTING</text>
<text text-anchor="middle" x="276.62" y="-423.5" font-family="Helvetica,sans-Serif" font-size="10.00" fill="grey">geomLevel</text>
<text text-anchor="middle" x="276.62" y="-411.5" font-family="Helvetica,sans-Serif" font-size="10.00" fill="grey">hierLevel</text>
<text text-anchor="start" x="218.5" y="-399.5" font-family="Helvetica,sans-Serif" font-size="10.00" fill="grey">m_CurrentSettingAlternate</text>
<text text-anchor="middle" x="276.62" y="-387.5" font-family="Helvetica,sans-Serif" font-size="10.00" fill="grey">KeyIndex</text>
<text text-anchor="middle" x="276.62" y="-375.5" font-family="Helvetica,sans-Serif" font-size="10.00" fill="grey">m_CurrentSettingKeyIndex</text>
</g>
<!-- Node7 -->
<g id="Node000007" class="node">
<title>Node7</title>
<g id="a_Node000007"><a xlink:href="../../d5/d02/classstring.html" target="_top" xlink:title=" ">
<polygon fill="white" stroke="#666666" points="53.12,-518 13.12,-518 13.12,-498 53.12,-498 53.12,-518"/>
<text text-anchor="middle" x="33.12" y="-504.5" font-family="Helvetica,sans-Serif" font-size="10.00">string</text>
</a>
</g>
</g>
<!-- Node7&#45;&gt;Node2 -->
<g id="edge43_Node000002_Node000007" class="edge">
<title>Node7&#45;&gt;Node2</title>
<g id="a_edge43_Node000002_Node000007"><a xlink:title=" ">
<path fill="none" stroke="#9a32cd" stroke-dasharray="5,2" d="M38.53,-529.25C44.96,-556.4 59.01,-603.84 84.25,-637 129.31,-696.2 149.91,-708.19 218.5,-737 313.88,-777.07 601.84,-783 725.5,-783 725.5,-783 725.5,-783 1083.75,-783 1124.9,-783 1170.56,-766.63 1197.08,-755.38"/>
<polygon fill="#9a32cd" stroke="#9a32cd" points="42.01,-528.81 36.42,-519.81 35.18,-530.33 42.01,-528.81"/>
</a>
</g>
<text text-anchor="middle" x="726.5" y="-785.5" font-family="Helvetica,sans-Serif" font-size="10.00" fill="grey"> m_AnimSource</text>
</g>
<!-- Node7&#45;&gt;Node3 -->
<g id="edge6_Node000003_Node000007" class="edge">
<title>Node7&#45;&gt;Node3</title>
<g id="a_edge6_Node000003_Node000007"><a xlink:title=" ">
<path fill="none" stroke="#9a32cd" stroke-dasharray="5,2" d="M47.93,-527.31C75.62,-564.43 141.89,-645.48 218.5,-684 319.52,-734.79 454.83,-744.3 526.07,-745.48"/>
<polygon fill="#9a32cd" stroke="#9a32cd" points="50.79,-525.3 42.06,-519.3 45.14,-529.43 50.79,-525.3"/>
</a>
</g>
<text text-anchor="middle" x="276.62" y="-725.5" font-family="Helvetica,sans-Serif" font-size="10.00" fill="grey"> m_HUDCursorIcon</text>
</g>
<!-- Node7&#45;&gt;Node7 -->
<g id="edge7_Node000007_Node000007" class="edge">
<title>Node7&#45;&gt;Node7</title>
<g id="a_edge7_Node000007_Node000007"><a xlink:title=" ">
<path fill="none" stroke="#9a32cd" stroke-dasharray="5,2" d="M13.82,-529.44C16.3,-533.3 22.74,-536 33.12,-536 52.12,-536 57.9,-526.98 50.48,-518.34"/>
<polygon fill="#9a32cd" stroke="#9a32cd" points="17.22,-530.28 15.5,-519.83 10.33,-529.07 17.22,-530.28"/>
</a>
</g>
<text text-anchor="middle" x="33.12" y="-538.5" font-family="Helvetica,sans-Serif" font-size="10.00" fill="grey"> Empty</text>
</g>
<!-- Node7&#45;&gt;Node16 -->
<g id="edge25_Node000016_Node000007" class="edge">
<title>Node7&#45;&gt;Node16</title>
<g id="a_edge25_Node000016_Node000007"><a xlink:title=" ">
<path fill="none" stroke="#9a32cd" stroke-dasharray="5,2" d="M36.52,-486.56C44.77,-413.69 72.11,-179.53 84.25,-169 109.66,-146.95 214.62,-159.16 257.37,-165.22"/>
<polygon fill="#9a32cd" stroke="#9a32cd" points="33.06,-486.02 35.42,-496.35 40.02,-486.81 33.06,-486.02"/>
</a>
</g>
<text text-anchor="middle" x="142.38" y="-171.5" font-family="Helvetica,sans-Serif" font-size="10.00" fill="grey"> m_Test</text>
</g>
<!-- Node7&#45;&gt;Node20 -->
<g id="edge32_Node000020_Node000007" class="edge">
<title>Node7&#45;&gt;Node20</title>
<g id="a_edge32_Node000020_Node000007"><a xlink:title=" ">
<path fill="none" stroke="#9a32cd" stroke-dasharray="5,2" d="M34.53,-486.29C36.39,-452.1 45.19,-385.93 84.25,-350 168.29,-272.7 224.97,-324.4 334.75,-293 403.94,-273.21 420.61,-265.89 487.75,-240 509.47,-231.62 533.82,-221.16 551.21,-213.49"/>
<polygon fill="#9a32cd" stroke="#9a32cd" points="31.03,-486.06 34.16,-496.18 38.03,-486.32 31.03,-486.06"/>
</a>
</g>
<text text-anchor="middle" x="276.62" y="-306.5" font-family="Helvetica,sans-Serif" font-size="10.00" fill="grey"> m_Test</text>
</g>
<!-- Node21 -->
<g id="Node000021" class="node">
<title>Node21</title>
<g id="a_Node000021"><a xlink:href="../../d4/d0d/class_sound_lookup_table.html" target="_top" xlink:title=" ">
<polygon fill="white" stroke="#666666" points="325.88,-518 227.38,-518 227.38,-498 325.88,-498 325.88,-518"/>
<text text-anchor="middle" x="276.62" y="-504.5" font-family="Helvetica,sans-Serif" font-size="10.00">SoundLookupTable</text>
</a>
</g>
</g>
<!-- Node7&#45;&gt;Node21 -->
<g id="edge37_Node000021_Node000007" class="edge">
<title>Node7&#45;&gt;Node21</title>
<g id="a_edge37_Node000021_Node000007"><a xlink:title=" ">
<path fill="none" stroke="#9a32cd" stroke-dasharray="5,2" d="M64.87,-508C105.88,-508 178.9,-508 227.3,-508"/>
<polygon fill="#9a32cd" stroke="#9a32cd" points="64.99,-504.5 54.99,-508 64.99,-511.5 64.99,-504.5"/>
</a>
</g>
<text text-anchor="middle" x="142.38" y="-522.5" font-family="Helvetica,sans-Serif" font-size="10.00" fill="grey"> m_parameterName</text>
<text text-anchor="middle" x="142.38" y="-510.5" font-family="Helvetica,sans-Serif" font-size="10.00" fill="grey">m_tableCategoryName</text>
</g>
<!-- Node8 -->
<g id="Node000008" class="node">
<title>Node8</title>
<g id="a_Node000008"><a xlink:href="../../d9/d09/classbool.html" target="_top" xlink:title=" ">
<polygon fill="white" stroke="#666666" points="293.62,-474 259.62,-474 259.62,-454 293.62,-454 293.62,-474"/>
<text text-anchor="middle" x="276.62" y="-460.5" font-family="Helvetica,sans-Serif" font-size="10.00">bool</text>
</a>
</g>
</g>
<!-- Node8&#45;&gt;Node2 -->
<g id="edge9_Node000002_Node000008" class="edge">
<title>Node8&#45;&gt;Node2</title>
<g id="a_edge9_Node000002_Node000008"><a xlink:title=" ">
<path fill="none" stroke="#9a32cd" stroke-dasharray="5,2" d="M304.86,-458.08C314.45,-455.68 325.2,-452.61 334.75,-449 405.96,-422.07 438.26,-429.84 487.75,-372 504.75,-352.14 485.31,-332.3 505.75,-316 582.4,-254.89 627.47,-297 725.5,-297 725.5,-297 725.5,-297 1083.75,-297 1178.44,-297 1213.32,-668.12 1218.82,-734.8"/>
<polygon fill="#9a32cd" stroke="#9a32cd" points="304.31,-454.62 295.38,-460.33 305.92,-461.43 304.31,-454.62"/>
</a>
</g>
<text text-anchor="middle" x="877.38" y="-299.5" font-family="Helvetica,sans-Serif" font-size="10.00" fill="grey"> m_IsOpening</text>
</g>
<!-- Node12 -->
<g id="Node000012" class="node">
<title>Node12</title>
<g id="a_Node000012"><a xlink:href="../../db/d09/class_universal_temperature_source_settings.html" target="_top" xlink:title=" ">
<polygon fill="white" stroke="#666666" points="947.25,-527 807.5,-527 807.5,-495 947.25,-495 947.25,-527"/>
<text text-anchor="start" x="815.5" y="-513.5" font-family="Helvetica,sans-Serif" font-size="10.00">UniversalTemperatureSource</text>
<text text-anchor="middle" x="877.38" y="-501.5" font-family="Helvetica,sans-Serif" font-size="10.00">Settings</text>
</a>
</g>
</g>
<!-- Node8&#45;&gt;Node12 -->
<g id="edge16_Node000012_Node000008" class="edge">
<title>Node8&#45;&gt;Node12</title>
<g id="a_edge16_Node000012_Node000008"><a xlink:title=" ">
<path fill="none" stroke="#9a32cd" stroke-dasharray="5,2" d="M305.49,-462.34C319.64,-461.54 337.1,-460.62 352.75,-460 482.77,-454.84 516.27,-440.82 645.5,-456 707.5,-463.28 776.97,-481.21 823.36,-494.63"/>
<polygon fill="#9a32cd" stroke="#9a32cd" points="305.33,-458.84 295.54,-462.91 305.73,-465.83 305.33,-458.84"/>
</a>
</g>
<text text-anchor="middle" x="575.62" y="-482.5" font-family="Helvetica,sans-Serif" font-size="10.00" fill="grey"> m_AffectStat</text>
<text text-anchor="middle" x="575.62" y="-470.5" font-family="Helvetica,sans-Serif" font-size="10.00" fill="grey">m_ManualUpdate</text>
<text text-anchor="middle" x="575.62" y="-458.5" font-family="Helvetica,sans-Serif" font-size="10.00" fill="grey">m_Updateable</text>
</g>
<!-- Node15 -->
<g id="Node000015" class="node">
<title>Node15</title>
<g id="a_Node000015"><a xlink:href="../../df/d09/class_entity_a_i.html" target="_top" xlink:title=" ">
<polygon fill="white" stroke="#666666" points="600.88,-521 550.38,-521 550.38,-501 600.88,-501 600.88,-521"/>
<text text-anchor="middle" x="575.62" y="-507.5" font-family="Helvetica,sans-Serif" font-size="10.00">EntityAI</text>
</a>
</g>
</g>
<!-- Node8&#45;&gt;Node15 -->
<g id="edge38_Node000015_Node000008" class="edge">
<title>Node8&#45;&gt;Node15</title>
<g id="a_edge38_Node000015_Node000008"><a xlink:title=" ">
<path fill="none" stroke="#9a32cd" stroke-dasharray="5,2" d="M305.28,-463.53C345.83,-463.43 423.57,-465.42 487.75,-480 496.12,-481.9 497.7,-484.03 505.75,-487 520.36,-492.39 536.83,-498.14 550,-502.66"/>
<polygon fill="#9a32cd" stroke="#9a32cd" points="305.43,-460.03 295.46,-463.61 305.49,-467.03 305.43,-460.03"/>
</a>
</g>
<text text-anchor="middle" x="420.25" y="-494.5" font-family="Helvetica,sans-Serif" font-size="10.00" fill="grey"> m_ActionsInitialize</text>
<text text-anchor="middle" x="420.25" y="-482.5" font-family="Helvetica,sans-Serif" font-size="10.00" fill="grey">m_IsMeleeWeapon</text>
</g>
<!-- Node9 -->
<g id="Node000009" class="node">
<title>Node9</title>
<g id="a_Node000009"><a xlink:href="../../de/d09/class_car_script.html" target="_top" xlink:title=" ">
<polygon fill="white" stroke="#666666" points="1111,-690 1054.5,-690 1054.5,-670 1111,-670 1111,-690"/>
<text text-anchor="middle" x="1082.75" y="-676.5" font-family="Helvetica,sans-Serif" font-size="10.00">CarScript</text>
</a>
</g>
</g>
<!-- Node9&#45;&gt;Node2 -->
<g id="edge10_Node000002_Node000009" class="edge">
<title>Node9&#45;&gt;Node2</title>
<g id="a_edge10_Node000002_Node000009"><a xlink:title=" ">
<path fill="none" stroke="#9a32cd" stroke-dasharray="5,2" d="M1115.79,-695.33C1141.08,-707.42 1175.68,-723.98 1197.85,-734.58"/>
<polygon fill="#9a32cd" stroke="#9a32cd" points="1117.48,-692.25 1106.95,-691.1 1114.46,-698.57 1117.48,-692.25"/>
</a>
</g>
<text text-anchor="middle" x="1144.75" y="-718.5" font-family="Helvetica,sans-Serif" font-size="10.00" fill="grey"> m_Car</text>
</g>
<!-- Node10 -->
<g id="Node000010" class="node">
<title>Node10</title>
<g id="a_Node000010"><a xlink:href="../../db/d09/class_universal_temperature_source.html" target="_top" xlink:title="original Timer deletes m_params which is unwanted">
<polygon fill="white" stroke="#666666" points="947.25,-667 807.5,-667 807.5,-647 947.25,-647 947.25,-667"/>
<text text-anchor="middle" x="877.38" y="-653.5" font-family="Helvetica,sans-Serif" font-size="10.00">UniversalTemperatureSource</text>
</a>
</g>
</g>
<!-- Node10&#45;&gt;Node9 -->
<g id="edge11_Node000009_Node000010" class="edge">
<title>Node10&#45;&gt;Node9</title>
<g id="a_edge11_Node000009_Node000010"><a xlink:title=" ">
<path fill="none" stroke="#9a32cd" stroke-dasharray="5,2" d="M958.82,-660.56C983.81,-662.35 1011.39,-665.02 1036.5,-669 1042.25,-669.91 1048.34,-671.18 1054.13,-672.53"/>
<polygon fill="#9a32cd" stroke="#9a32cd" points="959.26,-657.09 949.05,-659.91 958.79,-664.07 959.26,-657.09"/>
</a>
</g>
<text text-anchor="middle" x="1000.88" y="-671.5" font-family="Helvetica,sans-Serif" font-size="10.00" fill="grey"> m_UTSource</text>
</g>
<!-- Node11 -->
<g id="Node000011" class="node">
<title>Node11</title>
<g id="a_Node000011"><a xlink:href="../../d8/d08/class_timer.html" target="_top" xlink:title=" ">
<polygon fill="white" stroke="#666666" points="595.62,-667 555.62,-667 555.62,-647 595.62,-647 595.62,-667"/>
<text text-anchor="middle" x="575.62" y="-653.5" font-family="Helvetica,sans-Serif" font-size="10.00">Timer</text>
</a>
</g>
</g>
<!-- Node11&#45;&gt;Node10 -->
<g id="edge12_Node000010_Node000011" class="edge">
<title>Node11&#45;&gt;Node10</title>
<g id="a_edge12_Node000010_Node000011"><a xlink:title=" ">
<path fill="none" stroke="#8b1a1a" d="M607.26,-657C653.98,-657 744.24,-657 807.29,-657"/>
<polygon fill="#8b1a1a" stroke="#8b1a1a" points="607.35,-653.5 597.35,-657 607.35,-660.5 607.35,-653.5"/>
</a>
</g>
</g>
<!-- Node12&#45;&gt;Node9 -->
<g id="edge13_Node000009_Node000012" class="edge">
<title>Node12&#45;&gt;Node9</title>
<g id="a_edge13_Node000009_Node000012"><a xlink:title=" ">
<path fill="none" stroke="#9a32cd" stroke-dasharray="5,2" d="M906.52,-534.39C951.3,-571.6 1036.99,-642.8 1069.14,-669.52"/>
<polygon fill="#9a32cd" stroke="#9a32cd" points="908.97,-531.87 899.04,-528.17 904.49,-537.25 908.97,-531.87"/>
</a>
</g>
<text text-anchor="middle" x="1000.88" y="-641.5" font-family="Helvetica,sans-Serif" font-size="10.00" fill="grey"> m_UTSSettings</text>
</g>
<!-- Node13 -->
<g id="Node000013" class="node">
<title>Node13</title>
<g id="a_Node000013"><a xlink:href="../../d4/d03/classfloat.html" target="_top" xlink:title=" ">
<polygon fill="white" stroke="#666666" points="293.62,-621 259.62,-621 259.62,-601 293.62,-601 293.62,-621"/>
<text text-anchor="middle" x="276.62" y="-607.5" font-family="Helvetica,sans-Serif" font-size="10.00">float</text>
</a>
</g>
</g>
<!-- Node13&#45;&gt;Node12 -->
<g id="edge14_Node000012_Node000013" class="edge">
<title>Node13&#45;&gt;Node12</title>
<g id="a_edge14_Node000012_Node000013"><a xlink:title=" ">
<path fill="none" stroke="#9a32cd" stroke-dasharray="5,2" d="M304.75,-621.46C347.89,-636.17 432.87,-657.08 487.75,-618 507.67,-603.81 486.84,-581.51 505.75,-566 554.96,-525.63 726.66,-537.1 789.5,-527 795.25,-526.08 801.21,-525.07 807.19,-524.04"/>
<polygon fill="#9a32cd" stroke="#9a32cd" points="306.01,-618.19 295.42,-618.13 303.66,-624.78 306.01,-618.19"/>
</a>
</g>
<text text-anchor="middle" x="575.62" y="-628.5" font-family="Helvetica,sans-Serif" font-size="10.00" fill="grey"> m_RangeFull</text>
<text text-anchor="middle" x="575.62" y="-616.5" font-family="Helvetica,sans-Serif" font-size="10.00" fill="grey">m_RangeMax</text>
<text text-anchor="middle" x="575.62" y="-604.5" font-family="Helvetica,sans-Serif" font-size="10.00" fill="grey">m_TemperatureCap</text>
<text text-anchor="middle" x="575.62" y="-592.5" font-family="Helvetica,sans-Serif" font-size="10.00" fill="grey">m_TemperatureMax</text>
<text text-anchor="middle" x="575.62" y="-580.5" font-family="Helvetica,sans-Serif" font-size="10.00" fill="grey">m_TemperatureMin</text>
<text text-anchor="middle" x="575.62" y="-568.5" font-family="Helvetica,sans-Serif" font-size="10.00" fill="grey">m_UpdateInterval</text>
</g>
<!-- Node13&#45;&gt;Node13 -->
<g id="edge15_Node000013_Node000013" class="edge">
<title>Node13&#45;&gt;Node13</title>
<g id="a_edge15_Node000013_Node000013"><a xlink:title=" ">
<path fill="none" stroke="#9a32cd" stroke-dasharray="5,2" d="M251.83,-626.3C249.52,-633.11 257.78,-639 276.62,-639 302.85,-639 308.58,-627.61 293.83,-618.17"/>
<polygon fill="#9a32cd" stroke="#9a32cd" points="254.12,-628.98 258.39,-619.28 249,-624.2 254.12,-628.98"/>
</a>
</g>
<text text-anchor="middle" x="276.62" y="-665.5" font-family="Helvetica,sans-Serif" font-size="10.00" fill="grey"> LOWEST</text>
<text text-anchor="middle" x="276.62" y="-653.5" font-family="Helvetica,sans-Serif" font-size="10.00" fill="grey">MAX</text>
<text text-anchor="middle" x="276.62" y="-641.5" font-family="Helvetica,sans-Serif" font-size="10.00" fill="grey">MIN</text>
</g>
<!-- Node13&#45;&gt;Node15 -->
<g id="edge35_Node000015_Node000013" class="edge">
<title>Node13&#45;&gt;Node15</title>
<g id="a_edge35_Node000015_Node000013"><a xlink:title=" ">
<path fill="none" stroke="#9a32cd" stroke-dasharray="5,2" d="M305.04,-604.67C319.26,-601.42 336.92,-597.43 352.75,-594 412.64,-581.02 438.04,-601.83 487.75,-566 500.67,-556.68 493.46,-545.14 505.75,-535 518.35,-524.6 535.74,-518.59 549.89,-515.18"/>
<polygon fill="#9a32cd" stroke="#9a32cd" points="304.46,-601.21 295.49,-606.86 306.02,-608.04 304.46,-601.21"/>
</a>
</g>
<text text-anchor="middle" x="420.25" y="-608.5" font-family="Helvetica,sans-Serif" font-size="10.00" fill="grey"> SOUND_CONTACT_SKIP</text>
<text text-anchor="middle" x="420.25" y="-596.5" font-family="Helvetica,sans-Serif" font-size="10.00" fill="grey">m_SoundContactTickTime</text>
</g>
<!-- Node24 -->
<g id="Node000024" class="node">
<title>Node24</title>
<g id="a_Node000024"><a xlink:href="../../da/d0c/class_universal_temperature_source_lambda_base.html" target="_top" xlink:title=" ">
<polygon fill="white" stroke="#666666" points="645.5,-717 505.75,-717 505.75,-685 645.5,-685 645.5,-717"/>
<text text-anchor="start" x="513.75" y="-703.5" font-family="Helvetica,sans-Serif" font-size="10.00">UniversalTemperatureSource</text>
<text text-anchor="middle" x="575.62" y="-691.5" font-family="Helvetica,sans-Serif" font-size="10.00">LambdaBase</text>
</a>
</g>
</g>
<!-- Node13&#45;&gt;Node24 -->
<g id="edge42_Node000024_Node000013" class="edge">
<title>Node13&#45;&gt;Node24</title>
<g id="a_edge42_Node000024_Node000013"><a xlink:title=" ">
<path fill="none" stroke="#9a32cd" stroke-dasharray="5,2" d="M303.97,-624.8C318.15,-631.83 336.1,-640.12 352.75,-646 402.89,-663.71 461.33,-677.95 505.65,-687.5"/>
<polygon fill="#9a32cd" stroke="#9a32cd" points="305.8,-621.8 295.3,-620.41 302.64,-628.05 305.8,-621.8"/>
</a>
</g>
<text text-anchor="middle" x="420.25" y="-684.5" font-family="Helvetica,sans-Serif" font-size="10.00" fill="grey"> HEAT_THROUGH_AIR_COEF</text>
</g>
<!-- Node14 -->
<g id="Node000014" class="node">
<title>Node14</title>
<g id="a_Node000014"><a xlink:href="../../d7/d0c/classvector.html" target="_top" xlink:title=" ">
<polygon fill="white" stroke="#666666" points="596.38,-345 554.88,-345 554.88,-325 596.38,-325 596.38,-345"/>
<text text-anchor="middle" x="575.62" y="-331.5" font-family="Helvetica,sans-Serif" font-size="10.00">vector</text>
</a>
</g>
</g>
<!-- Node14&#45;&gt;Node12 -->
<g id="edge17_Node000012_Node000014" class="edge">
<title>Node14&#45;&gt;Node12</title>
<g id="a_edge17_Node000012_Node000014"><a xlink:title=" ">
<path fill="none" stroke="#9a32cd" stroke-dasharray="5,2" d="M607.7,-343.1C651.01,-355.33 730.78,-381.39 789.5,-421 820.29,-441.77 848.71,-474.95 864.18,-494.69"/>
<polygon fill="#9a32cd" stroke="#9a32cd" points="608.79,-339.76 598.21,-340.48 606.93,-346.51 608.79,-339.76"/>
</a>
</g>
<text text-anchor="middle" x="726.5" y="-423.5" font-family="Helvetica,sans-Serif" font-size="10.00" fill="grey"> m_Position</text>
</g>
<!-- Node14&#45;&gt;Node14 -->
<g id="edge18_Node000014_Node000014" class="edge">
<title>Node14&#45;&gt;Node14</title>
<g id="a_edge18_Node000014_Node000014"><a xlink:title=" ">
<path fill="none" stroke="#9a32cd" stroke-dasharray="5,2" d="M547.34,-352.36C547.19,-358.26 556.62,-363 575.62,-363 603.91,-363 610.99,-352.5 596.84,-343.31"/>
<polygon fill="#9a32cd" stroke="#9a32cd" points="550.08,-354.54 553.48,-344.51 544.56,-350.23 550.08,-354.54"/>
</a>
</g>
<text text-anchor="middle" x="575.62" y="-401.5" font-family="Helvetica,sans-Serif" font-size="10.00" fill="grey"> Aside</text>
<text text-anchor="middle" x="575.62" y="-389.5" font-family="Helvetica,sans-Serif" font-size="10.00" fill="grey">Forward</text>
<text text-anchor="middle" x="575.62" y="-377.5" font-family="Helvetica,sans-Serif" font-size="10.00" fill="grey">Up</text>
<text text-anchor="middle" x="575.62" y="-365.5" font-family="Helvetica,sans-Serif" font-size="10.00" fill="grey">Zero</text>
</g>
<!-- Node15&#45;&gt;Node12 -->
<g id="edge19_Node000012_Node000015" class="edge">
<title>Node15&#45;&gt;Node12</title>
<g id="a_edge19_Node000012_Node000015"><a xlink:title=" ">
<path fill="none" stroke="#9a32cd" stroke-dasharray="5,2" d="M612.49,-511C660.45,-511 746.47,-511 807.24,-511"/>
<polygon fill="#9a32cd" stroke="#9a32cd" points="612.67,-507.5 602.67,-511 612.67,-514.5 612.67,-507.5"/>
</a>
</g>
<text text-anchor="middle" x="726.5" y="-513.5" font-family="Helvetica,sans-Serif" font-size="10.00" fill="grey"> m_Parent</text>
</g>
<!-- Node16&#45;&gt;Node15 -->
<g id="edge20_Node000015_Node000016" class="edge">
<title>Node16&#45;&gt;Node15</title>
<g id="a_edge20_Node000015_Node000016"><a xlink:title=" ">
<path fill="none" stroke="#9a32cd" stroke-dasharray="5,2" d="M294.65,-186.92C306.14,-199.78 321.54,-217.26 334.75,-233 404.67,-316.32 437.83,-327.37 487.75,-424 501.12,-449.87 485.75,-465.83 505.75,-487 517.23,-499.15 535.18,-505.15 549.88,-508.11"/>
<polygon fill="#9a32cd" stroke="#9a32cd" points="297.36,-184.7 288.09,-179.58 292.15,-189.37 297.36,-184.7"/>
</a>
</g>
<text text-anchor="middle" x="420.25" y="-450.5" font-family="Helvetica,sans-Serif" font-size="10.00" fill="grey"> m_ContinuousActions</text>
<text text-anchor="middle" x="420.25" y="-438.5" font-family="Helvetica,sans-Serif" font-size="10.00" fill="grey">m_InteractActions</text>
<text text-anchor="middle" x="420.25" y="-426.5" font-family="Helvetica,sans-Serif" font-size="10.00" fill="grey">m_SingleUseActions</text>
</g>
<!-- Node16&#45;&gt;Node16 -->
<g id="edge23_Node000016_Node000016" class="edge">
<title>Node16&#45;&gt;Node16</title>
<g id="a_edge23_Node000016_Node000016"><a xlink:title=" ">
<path fill="none" stroke="#9a32cd" stroke-dasharray="5,2" d="M251.51,-186.35C252.3,-191.78 260.67,-196 276.62,-196 301.53,-196 307.96,-185.72 295.89,-176.6"/>
<polygon fill="#9a32cd" stroke="#9a32cd" points="254.44,-188.27 256.58,-177.9 248.44,-184.68 254.44,-188.27"/>
</a>
</g>
<text text-anchor="middle" x="276.62" y="-198.5" font-family="Helvetica,sans-Serif" font-size="10.00" fill="grey"> proxyInfo</text>
</g>
<!-- Node16&#45;&gt;Node20 -->
<g id="edge30_Node000020_Node000016" class="edge">
<title>Node16&#45;&gt;Node20</title>
<g id="a_edge30_Node000020_Node000016"><a xlink:title=" ">
<path fill="none" stroke="#9a32cd" stroke-dasharray="5,2" d="M307.16,-163.87C348.17,-158.99 424.45,-153.08 487.75,-166 512.65,-171.08 539.24,-183.57 556.35,-192.64"/>
<polygon fill="#9a32cd" stroke="#9a32cd" points="306.84,-160.38 297.36,-165.1 307.72,-167.32 306.84,-160.38"/>
</a>
</g>
<text text-anchor="middle" x="420.25" y="-168.5" font-family="Helvetica,sans-Serif" font-size="10.00" fill="grey"> proxyInfo</text>
</g>
<!-- Node17 -->
<g id="Node000017" class="node">
<title>Node17</title>
<g id="a_Node000017"><a xlink:href="../../d8/d03/class_object.html" target="_top" xlink:title=" ">
<polygon fill="white" stroke="#666666" points="55.38,-216 10.88,-216 10.88,-196 55.38,-196 55.38,-216"/>
<text text-anchor="middle" x="33.12" y="-202.5" font-family="Helvetica,sans-Serif" font-size="10.00">Object</text>
</a>
</g>
</g>
<!-- Node17&#45;&gt;Node16 -->
<g id="edge21_Node000016_Node000017" class="edge">
<title>Node17&#45;&gt;Node16</title>
<g id="a_edge21_Node000016_Node000017"><a xlink:title=" ">
<path fill="none" stroke="#9a32cd" stroke-dasharray="5,2" d="M40.16,-184.67C47.13,-164.48 60.78,-135.33 84.25,-122 129.18,-96.49 150.77,-107.98 200.5,-122 225.08,-128.93 249.56,-146.39 263.61,-157.7"/>
<polygon fill="#9a32cd" stroke="#9a32cd" points="36.84,-183.57 37.18,-194.16 43.51,-185.67 36.84,-183.57"/>
</a>
</g>
<text text-anchor="middle" x="142.38" y="-136.5" font-family="Helvetica,sans-Serif" font-size="10.00" fill="grey"> obj</text>
<text text-anchor="middle" x="142.38" y="-124.5" font-family="Helvetica,sans-Serif" font-size="10.00" fill="grey">parent</text>
</g>
<!-- Node17&#45;&gt;Node20 -->
<g id="edge28_Node000020_Node000017" class="edge">
<title>Node17&#45;&gt;Node20</title>
<g id="a_edge28_Node000020_Node000017"><a xlink:title=" ">
<path fill="none" stroke="#9a32cd" stroke-dasharray="5,2" d="M42.48,-226.69C50.47,-243.39 64.27,-265.73 84.25,-276 130.2,-299.61 149.72,-285.53 200.5,-276 208.94,-274.42 210.24,-271.35 218.5,-269 329.64,-237.39 464.71,-217.16 532.09,-208.25"/>
<polygon fill="#9a32cd" stroke="#9a32cd" points="45.73,-225.37 38.49,-217.63 39.32,-228.2 45.73,-225.37"/>
</a>
</g>
<text text-anchor="middle" x="276.62" y="-283.5" font-family="Helvetica,sans-Serif" font-size="10.00" fill="grey"> obj</text>
<text text-anchor="middle" x="276.62" y="-271.5" font-family="Helvetica,sans-Serif" font-size="10.00" fill="grey">parent</text>
</g>
<!-- Node18 -->
<g id="Node000018" class="node">
<title>Node18</title>
<g id="a_Node000018"><a xlink:href="../../d4/d04/class_class.html" target="_top" xlink:title="Super root of all classes in Enforce script.">
<polygon fill="white" stroke="#666666" points="53.5,-85 12.75,-85 12.75,-65 53.5,-65 53.5,-85"/>
<text text-anchor="middle" x="33.12" y="-71.5" font-family="Helvetica,sans-Serif" font-size="10.00">Class</text>
</a>
</g>
</g>
<!-- Node18&#45;&gt;Node16 -->
<g id="edge24_Node000016_Node000018" class="edge">
<title>Node18&#45;&gt;Node16</title>
<g id="a_edge24_Node000016_Node000018"><a xlink:title=" ">
<path fill="none" stroke="#9a32cd" stroke-dasharray="5,2" d="M65.29,-71.82C100.04,-69.64 157.08,-70.19 200.5,-91 232,-106.09 257.56,-140.22 269.06,-157.52"/>
<polygon fill="#9a32cd" stroke="#9a32cd" points="65.2,-68.32 55.49,-72.57 65.73,-75.3 65.2,-68.32"/>
</a>
</g>
<text text-anchor="middle" x="142.38" y="-93.5" font-family="Helvetica,sans-Serif" font-size="10.00" fill="grey"> m_Instance</text>
</g>
<!-- Node18&#45;&gt;Node20 -->
<g id="edge31_Node000020_Node000018" class="edge">
<title>Node18&#45;&gt;Node20</title>
<g id="a_edge31_Node000020_Node000018"><a xlink:title=" ">
<path fill="none" stroke="#9a32cd" stroke-dasharray="5,2" d="M64.65,-69.34C71.1,-68.37 77.88,-67.51 84.25,-67 135.75,-62.92 149.39,-59.43 200.5,-67 332.45,-86.54 365.09,-101.59 487.75,-154 513.71,-165.09 541.83,-181.92 558.84,-192.69"/>
<polygon fill="#9a32cd" stroke="#9a32cd" points="64.35,-65.84 55.05,-70.92 65.49,-72.75 64.35,-65.84"/>
</a>
</g>
<text text-anchor="middle" x="276.62" y="-97.5" font-family="Helvetica,sans-Serif" font-size="10.00" fill="grey"> m_Instance</text>
</g>
<!-- Node19 -->
<g id="Node000019" class="node">
<title>Node19</title>
<g id="a_Node000019"><a xlink:href="../../dd/d0a/class_widget.html" target="_top" xlink:title=" ">
<polygon fill="white" stroke="#666666" points="56.5,-20 9.75,-20 9.75,0 56.5,0 56.5,-20"/>
<text text-anchor="middle" x="33.12" y="-6.5" font-family="Helvetica,sans-Serif" font-size="10.00">Widget</text>
</a>
</g>
</g>
<!-- Node19&#45;&gt;Node16 -->
<g id="edge26_Node000016_Node000019" class="edge">
<title>Node19&#45;&gt;Node16</title>
<g id="a_edge26_Node000016_Node000019"><a xlink:title=" ">
<path fill="none" stroke="#9a32cd" stroke-dasharray="5,2" d="M68.33,-12.21C104.25,-16.04 160.9,-26.49 200.5,-55 238.54,-82.4 262.84,-135.48 271.77,-157.76"/>
<polygon fill="#9a32cd" stroke="#9a32cd" points="68.79,-8.74 58.5,-11.29 68.14,-15.71 68.79,-8.74"/>
</a>
</g>
<text text-anchor="middle" x="142.38" y="-57.5" font-family="Helvetica,sans-Serif" font-size="10.00" fill="grey"> m_Root</text>
</g>
<!-- Node19&#45;&gt;Node20 -->
<g id="edge33_Node000020_Node000019" class="edge">
<title>Node19&#45;&gt;Node20</title>
<g id="a_edge33_Node000020_Node000019"><a xlink:title=" ">
<path fill="none" stroke="#9a32cd" stroke-dasharray="5,2" d="M68.03,-7.88C148.24,-4.55 352.97,-6.09 487.75,-96 526.96,-122.16 557.27,-171.42 569.16,-192.74"/>
<polygon fill="#9a32cd" stroke="#9a32cd" points="68.03,-4.37 58.2,-8.35 68.36,-11.37 68.03,-4.37"/>
</a>
</g>
<text text-anchor="middle" x="276.62" y="-34.5" font-family="Helvetica,sans-Serif" font-size="10.00" fill="grey"> m_Root</text>
</g>
<!-- Node20&#45;&gt;Node16 -->
<g id="edge27_Node000016_Node000020" class="edge">
<title>Node20&#45;&gt;Node16</title>
<g id="a_edge27_Node000016_Node000020"><a xlink:title=" ">
<path fill="none" stroke="#9a32cd" stroke-dasharray="5,2" d="M520.72,-198.76C475.71,-194.95 409.91,-188.77 352.75,-181 333.21,-178.34 310.96,-174.38 295.78,-171.52"/>
<polygon fill="#9a32cd" stroke="#9a32cd" points="520.22,-202.23 530.47,-199.57 520.8,-195.25 520.22,-202.23"/>
</a>
</g>
<text text-anchor="middle" x="420.25" y="-197.5" font-family="Helvetica,sans-Serif" font-size="10.00" fill="grey"> m_Subgroups</text>
</g>
<!-- Node20&#45;&gt;Node20 -->
<g id="edge34_Node000020_Node000020" class="edge">
<title>Node20&#45;&gt;Node20</title>
<g id="a_edge34_Node000020_Node000020"><a xlink:title=" ">
<path fill="none" stroke="#9a32cd" stroke-dasharray="5,2" d="M548.96,-224.44C552.39,-228.3 561.28,-231 575.62,-231 601.85,-231 609.84,-221.98 599.6,-213.34"/>
<polygon fill="#9a32cd" stroke="#9a32cd" points="552.34,-225.35 551.3,-214.81 545.54,-223.7 552.34,-225.35"/>
</a>
</g>
<text text-anchor="middle" x="575.62" y="-233.5" font-family="Helvetica,sans-Serif" font-size="10.00" fill="grey"> m_Subgroups</text>
</g>
<!-- Node21&#45;&gt;Node15 -->
<g id="edge36_Node000015_Node000021" class="edge">
<title>Node21&#45;&gt;Node15</title>
<g id="a_edge36_Node000015_Node000021"><a xlink:title=" ">
<path fill="none" stroke="#9a32cd" stroke-dasharray="5,2" d="M337.67,-508.61C402.83,-509.26 503.76,-510.28 549.98,-510.75"/>
<polygon fill="#9a32cd" stroke="#9a32cd" points="337.88,-505.11 327.85,-508.51 337.81,-512.11 337.88,-505.11"/>
</a>
</g>
<text text-anchor="middle" x="420.25" y="-512.5" font-family="Helvetica,sans-Serif" font-size="10.00" fill="grey"> m_SoundImpactTable</text>
</g>
<!-- Node22 -->
<g id="Node000022" class="node">
<title>Node22</title>
<g id="a_Node000022"><a xlink:href="../../d4/d0d/class_script_invoker.html" target="_top" xlink:title="ScriptInvoker Class provide list of callbacks &#160;&#160;usage:">
<polygon fill="white" stroke="#666666" points="312.38,-556 240.88,-556 240.88,-536 312.38,-536 312.38,-556"/>
<text text-anchor="middle" x="276.62" y="-542.5" font-family="Helvetica,sans-Serif" font-size="10.00">ScriptInvoker</text>
</a>
</g>
</g>
<!-- Node22&#45;&gt;Node15 -->
<g id="edge39_Node000015_Node000022" class="edge">
<title>Node22&#45;&gt;Node15</title>
<g id="a_edge39_Node000015_Node000022"><a xlink:title=" ">
<path fill="none" stroke="#9a32cd" stroke-dasharray="5,2" d="M324.03,-541.74C366.66,-537.68 431.54,-531.14 487.75,-524 508.78,-521.33 532.58,-517.72 549.95,-514.99"/>
<polygon fill="#9a32cd" stroke="#9a32cd" points="323.76,-538.25 314.14,-542.67 324.42,-545.21 323.76,-538.25"/>
</a>
</g>
<text text-anchor="middle" x="420.25" y="-552.5" font-family="Helvetica,sans-Serif" font-size="10.00" fill="grey"> m_OnItemAddedToHands</text>
<text text-anchor="middle" x="420.25" y="-540.5" font-family="Helvetica,sans-Serif" font-size="10.00" fill="grey">m_OnItemRemovedFromHands</text>
</g>
<!-- Node23 -->
<g id="Node000023" class="node">
<title>Node23</title>
<g id="a_Node000023"><a xlink:href="../../dc/d00/class_universal_temperature_source_lambda_engine.html" target="_top" xlink:title=" ">
<polygon fill="white" stroke="#666666" points="947.25,-717 807.5,-717 807.5,-685 947.25,-685 947.25,-717"/>
<text text-anchor="start" x="815.5" y="-703.5" font-family="Helvetica,sans-Serif" font-size="10.00">UniversalTemperatureSource</text>
<text text-anchor="middle" x="877.38" y="-691.5" font-family="Helvetica,sans-Serif" font-size="10.00">LambdaEngine</text>
</a>
</g>
</g>
<!-- Node23&#45;&gt;Node9 -->
<g id="edge40_Node000009_Node000023" class="edge">
<title>Node23&#45;&gt;Node9</title>
<g id="a_edge40_Node000009_Node000023"><a xlink:title=" ">
<path fill="none" stroke="#9a32cd" stroke-dasharray="5,2" d="M958.81,-692.69C992.54,-689.21 1029.55,-685.39 1054.05,-682.86"/>
<polygon fill="#9a32cd" stroke="#9a32cd" points="958.61,-689.2 949.02,-693.71 959.32,-696.16 958.61,-689.2"/>
</a>
</g>
<text text-anchor="middle" x="1000.88" y="-693.5" font-family="Helvetica,sans-Serif" font-size="10.00" fill="grey"> m_UTSLEngine</text>
</g>
<!-- Node24&#45;&gt;Node23 -->
<g id="edge41_Node000023_Node000024" class="edge">
<title>Node24&#45;&gt;Node23</title>
<g id="a_edge41_Node000023_Node000024"><a xlink:title=" ">
<path fill="none" stroke="#8b1a1a" d="M657.1,-701C703.9,-701 762.3,-701 807.06,-701"/>
<polygon fill="#8b1a1a" stroke="#8b1a1a" points="657.28,-697.5 647.28,-701 657.28,-704.5 657.28,-697.5"/>
</a>
</g>
</g>
</g>
</svg>
