<?xml version="1.0" encoding="UTF-8" standalone="no"?>
<!DOCTYPE svg PUBLIC "-//W3C//DTD SVG 1.1//EN"
 "http://www.w3.org/Graphics/SVG/1.1/DTD/svg11.dtd">
<!-- Generated by graphviz version 11.0.0 (20240428.1522)
 -->
<!-- Title: FSMBase&lt; Class FSMStateBase, Class FSMEventBase, Class FSMActionBase, Class FSMGuardBase &gt; Pages: 1 -->
<svg width="910pt" height="592pt"
 viewBox="0.00 0.00 909.50 591.99" xmlns="http://www.w3.org/2000/svg" xmlns:xlink="http://www.w3.org/1999/xlink">
<g id="graph0" class="graph" transform="scale(1 1) rotate(0) translate(4 587.99)">
<title>FSMBase&lt; Class FSMStateBase, Class FSMEventBase, Class FSMActionBase, Class FSMGuardBase &gt;</title>
<!-- Node1 -->
<g id="Node000001" class="node">
<title>Node1</title>
<g id="a_Node000001"><a xlink:title=" ">
<polygon fill="#999999" stroke="#666666" points="901.5,-391.99 698.75,-391.99 698.75,-347.99 901.5,-347.99 901.5,-391.99"/>
<text text-anchor="start" x="706.75" y="-378.49" font-family="Helvetica,sans-Serif" font-size="10.00">FSMBase&lt; Class FSMStateBase,</text>
<text text-anchor="start" x="706.75" y="-366.49" font-family="Helvetica,sans-Serif" font-size="10.00"> Class FSMEventBase, Class</text>
<text text-anchor="middle" x="800.12" y="-354.49" font-family="Helvetica,sans-Serif" font-size="10.00"> FSMActionBase, Class FSMGuardBase &gt;</text>
</a>
</g>
</g>
<!-- Node2 -->
<g id="Node000002" class="node">
<title>Node2</title>
<g id="a_Node000002"><a xlink:href="../../d2/d01/classarray.html" target="_top" xlink:title=" ">
<polygon fill="white" stroke="#666666" points="601.25,-391.99 417.25,-391.99 417.25,-347.99 601.25,-347.99 601.25,-391.99"/>
<text text-anchor="start" x="425.25" y="-378.49" font-family="Helvetica,sans-Serif" font-size="10.00">array&lt; ref FSMTransition</text>
<text text-anchor="start" x="425.25" y="-366.49" font-family="Helvetica,sans-Serif" font-size="10.00">&lt; FSMStateBase, FSMEventBase,</text>
<text text-anchor="middle" x="509.25" y="-354.49" font-family="Helvetica,sans-Serif" font-size="10.00"> FSMActionBase, FSMGuardBase &gt; &gt;</text>
</a>
</g>
</g>
<!-- Node2&#45;&gt;Node1 -->
<g id="edge1_Node000001_Node000002" class="edge">
<title>Node2&#45;&gt;Node1</title>
<g id="a_edge1_Node000001_Node000002"><a xlink:title=" ">
<path fill="none" stroke="#9a32cd" stroke-dasharray="5,2" d="M612.97,-369.99C640.7,-369.99 670.67,-369.99 698.29,-369.99"/>
<polygon fill="#9a32cd" stroke="#9a32cd" points="613.17,-366.49 603.17,-369.99 613.17,-373.49 613.17,-366.49"/>
</a>
</g>
<text text-anchor="middle" x="650" y="-372.49" font-family="Helvetica,sans-Serif" font-size="10.00" fill="grey"> m_transitions</text>
</g>
<!-- Node3 -->
<g id="Node000003" class="node">
<title>Node3</title>
<g id="a_Node000003"><a xlink:href="../../d8/d03/class_object.html" target="_top" xlink:title=" ">
<polygon fill="white" stroke="#666666" points="47.12,-54.99 2.62,-54.99 2.62,-34.99 47.12,-34.99 47.12,-54.99"/>
<text text-anchor="middle" x="24.88" y="-41.49" font-family="Helvetica,sans-Serif" font-size="10.00">Object</text>
</a>
</g>
</g>
<!-- Node3&#45;&gt;Node2 -->
<g id="edge2_Node000002_Node000003" class="edge">
<title>Node3&#45;&gt;Node2</title>
<g id="a_edge2_Node000002_Node000003"><a xlink:title=" ">
<path fill="none" stroke="#9a32cd" stroke-dasharray="5,2" d="M59.03,-45.6C91.26,-46.74 141.45,-49.95 184,-58.99 184.96,-59.19 317.6,-104.25 318.25,-104.99 344.36,-134.61 311.47,-161.24 336.25,-191.99 355.48,-215.85 375.43,-200.71 399.25,-219.99 444.17,-256.33 479.69,-315.46 496.9,-347.55"/>
<polygon fill="#9a32cd" stroke="#9a32cd" points="59.22,-42.1 49.12,-45.3 59.01,-49.1 59.22,-42.1"/>
</a>
</g>
<text text-anchor="middle" x="260.12" y="-119.49" font-family="Helvetica,sans-Serif" font-size="10.00" fill="grey"> obj</text>
<text text-anchor="middle" x="260.12" y="-107.49" font-family="Helvetica,sans-Serif" font-size="10.00" fill="grey">parent</text>
</g>
<!-- Node5 -->
<g id="Node000005" class="node">
<title>Node5</title>
<g id="a_Node000005"><a xlink:href="../../d2/d01/classarray.html" target="_top" xlink:title="Result for an object found in CGame.IsBoxCollidingGeometryProxy.">
<polygon fill="white" stroke="#666666" points="279,-244.99 241.25,-244.99 241.25,-224.99 279,-224.99 279,-244.99"/>
<text text-anchor="middle" x="260.12" y="-231.49" font-family="Helvetica,sans-Serif" font-size="10.00">array</text>
</a>
</g>
</g>
<!-- Node3&#45;&gt;Node5 -->
<g id="edge5_Node000005_Node000003" class="edge">
<title>Node3&#45;&gt;Node5</title>
<g id="a_edge5_Node000005_Node000003"><a xlink:title=" ">
<path fill="none" stroke="#9a32cd" stroke-dasharray="5,2" d="M58.56,-53.86C94.88,-65.46 152.55,-89.36 184,-130.99 205.97,-160.07 178.6,-183.05 202,-210.99 211.74,-222.62 228.08,-228.71 240.79,-231.85"/>
<polygon fill="#9a32cd" stroke="#9a32cd" points="59.61,-50.52 49.02,-50.96 57.57,-57.22 59.61,-50.52"/>
</a>
</g>
<text text-anchor="middle" x="125.88" y="-145.49" font-family="Helvetica,sans-Serif" font-size="10.00" fill="grey"> obj</text>
<text text-anchor="middle" x="125.88" y="-133.49" font-family="Helvetica,sans-Serif" font-size="10.00" fill="grey">parent</text>
</g>
<!-- Node9 -->
<g id="Node000009" class="node">
<title>Node9</title>
<g id="a_Node000009"><a xlink:href="../../d2/d01/classarray.html" target="_top" xlink:title=" ">
<polygon fill="white" stroke="#666666" points="552.5,-153.99 466,-153.99 466,-133.99 552.5,-133.99 552.5,-153.99"/>
<text text-anchor="middle" x="509.25" y="-140.49" font-family="Helvetica,sans-Serif" font-size="10.00">array&lt; Widget &gt;</text>
</a>
</g>
</g>
<!-- Node3&#45;&gt;Node9 -->
<g id="edge13_Node000009_Node000003" class="edge">
<title>Node3&#45;&gt;Node9</title>
<g id="a_edge13_Node000009_Node000003"><a xlink:title=" ">
<path fill="none" stroke="#9a32cd" stroke-dasharray="5,2" d="M58.21,-33.24C112.68,-15.17 225.81,14.97 318.25,-8.99 399.73,-30.1 474.23,-106.03 499.31,-133.76"/>
<polygon fill="#9a32cd" stroke="#9a32cd" points="57.28,-29.86 48.94,-36.4 59.54,-36.49 57.28,-29.86"/>
</a>
</g>
<text text-anchor="middle" x="260.12" y="-23.49" font-family="Helvetica,sans-Serif" font-size="10.00" fill="grey"> obj</text>
<text text-anchor="middle" x="260.12" y="-11.49" font-family="Helvetica,sans-Serif" font-size="10.00" fill="grey">parent</text>
</g>
<!-- Node4 -->
<g id="Node000004" class="node">
<title>Node4</title>
<g id="a_Node000004"><a xlink:href="../../db/d06/class_param3.html" target="_top" xlink:title=" ">
<polygon fill="white" stroke="#666666" points="49.75,-476.99 0,-476.99 0,-456.99 49.75,-456.99 49.75,-476.99"/>
<text text-anchor="middle" x="24.88" y="-463.49" font-family="Helvetica,sans-Serif" font-size="10.00">Param3</text>
</a>
</g>
</g>
<!-- Node4&#45;&gt;Node2 -->
<g id="edge3_Node000002_Node000004" class="edge">
<title>Node4&#45;&gt;Node2</title>
<g id="a_edge3_Node000002_Node000004"><a xlink:title=" ">
<path fill="none" stroke="#9a32cd" stroke-dasharray="5,2" d="M60.74,-478.92C115.73,-496.13 225.83,-524.07 318.25,-506.99 356.15,-499.98 366.77,-496.74 399.25,-475.99 435.73,-452.68 470.2,-415.73 490.27,-392.19"/>
<polygon fill="#9a32cd" stroke="#9a32cd" points="61.9,-475.62 51.31,-475.89 59.77,-482.28 61.9,-475.62"/>
</a>
</g>
<text text-anchor="middle" x="260.12" y="-574.49" font-family="Helvetica,sans-Serif" font-size="10.00" fill="grey"> NO_SORTING</text>
<text text-anchor="middle" x="260.12" y="-562.49" font-family="Helvetica,sans-Serif" font-size="10.00" fill="grey">geomLevel</text>
<text text-anchor="middle" x="260.12" y="-550.49" font-family="Helvetica,sans-Serif" font-size="10.00" fill="grey">hierLevel</text>
<text text-anchor="start" x="202" y="-538.49" font-family="Helvetica,sans-Serif" font-size="10.00" fill="grey">m_CurrentSettingAlternate</text>
<text text-anchor="middle" x="260.12" y="-526.49" font-family="Helvetica,sans-Serif" font-size="10.00" fill="grey">KeyIndex</text>
<text text-anchor="middle" x="260.12" y="-514.49" font-family="Helvetica,sans-Serif" font-size="10.00" fill="grey">m_CurrentSettingKeyIndex</text>
</g>
<!-- Node4&#45;&gt;Node5 -->
<g id="edge6_Node000005_Node000004" class="edge">
<title>Node4&#45;&gt;Node5</title>
<g id="a_edge6_Node000005_Node000004"><a xlink:title=" ">
<path fill="none" stroke="#9a32cd" stroke-dasharray="5,2" d="M32.35,-445.65C38.88,-426.89 50.5,-399.73 67.75,-380.99 108.45,-336.79 138.88,-351.66 184,-311.99 193.75,-303.42 193.26,-298.58 202,-288.99 216.7,-272.84 235.34,-255.79 247.25,-245.26"/>
<polygon fill="#9a32cd" stroke="#9a32cd" points="29.02,-444.56 29.25,-455.15 35.68,-446.73 29.02,-444.56"/>
</a>
</g>
<text text-anchor="middle" x="125.88" y="-443.49" font-family="Helvetica,sans-Serif" font-size="10.00" fill="grey"> NO_SORTING</text>
<text text-anchor="middle" x="125.88" y="-431.49" font-family="Helvetica,sans-Serif" font-size="10.00" fill="grey">geomLevel</text>
<text text-anchor="middle" x="125.88" y="-419.49" font-family="Helvetica,sans-Serif" font-size="10.00" fill="grey">hierLevel</text>
<text text-anchor="start" x="67.75" y="-407.49" font-family="Helvetica,sans-Serif" font-size="10.00" fill="grey">m_CurrentSettingAlternate</text>
<text text-anchor="middle" x="125.88" y="-395.49" font-family="Helvetica,sans-Serif" font-size="10.00" fill="grey">KeyIndex</text>
<text text-anchor="middle" x="125.88" y="-383.49" font-family="Helvetica,sans-Serif" font-size="10.00" fill="grey">m_CurrentSettingKeyIndex</text>
</g>
<!-- Node4&#45;&gt;Node9 -->
<g id="edge14_Node000009_Node000004" class="edge">
<title>Node4&#45;&gt;Node9</title>
<g id="a_edge14_Node000009_Node000004"><a xlink:title=" ">
<path fill="none" stroke="#9a32cd" stroke-dasharray="5,2" d="M61.07,-473.72C95.82,-478.29 148.73,-479.42 184,-452.99 201.57,-439.82 185.63,-421.61 202,-406.99 241.87,-371.36 269.52,-398 318.25,-375.99 357.68,-358.17 369.25,-353.16 399.25,-321.99 451.76,-267.41 491.18,-183.31 503.89,-154.26"/>
<polygon fill="#9a32cd" stroke="#9a32cd" points="61.94,-470.31 51.53,-472.3 60.91,-477.23 61.94,-470.31"/>
</a>
</g>
<text text-anchor="middle" x="260.12" y="-469.49" font-family="Helvetica,sans-Serif" font-size="10.00" fill="grey"> NO_SORTING</text>
<text text-anchor="middle" x="260.12" y="-457.49" font-family="Helvetica,sans-Serif" font-size="10.00" fill="grey">geomLevel</text>
<text text-anchor="middle" x="260.12" y="-445.49" font-family="Helvetica,sans-Serif" font-size="10.00" fill="grey">hierLevel</text>
<text text-anchor="start" x="202" y="-433.49" font-family="Helvetica,sans-Serif" font-size="10.00" fill="grey">m_CurrentSettingAlternate</text>
<text text-anchor="middle" x="260.12" y="-421.49" font-family="Helvetica,sans-Serif" font-size="10.00" fill="grey">KeyIndex</text>
<text text-anchor="middle" x="260.12" y="-409.49" font-family="Helvetica,sans-Serif" font-size="10.00" fill="grey">m_CurrentSettingKeyIndex</text>
</g>
<!-- Node5&#45;&gt;Node2 -->
<g id="edge4_Node000002_Node000005" class="edge">
<title>Node5&#45;&gt;Node2</title>
<g id="a_edge4_Node000002_Node000005"><a xlink:title=" ">
<path fill="none" stroke="#9a32cd" stroke-dasharray="5,2" d="M289.2,-250.32C332.72,-274.1 416.72,-319.99 467.11,-347.51"/>
<polygon fill="#9a32cd" stroke="#9a32cd" points="291.08,-247.36 280.62,-245.64 287.72,-253.51 291.08,-247.36"/>
</a>
</g>
<text text-anchor="middle" x="367.75" y="-308.49" font-family="Helvetica,sans-Serif" font-size="10.00" fill="grey"> proxyInfo</text>
</g>
<!-- Node5&#45;&gt;Node5 -->
<g id="edge7_Node000005_Node000005" class="edge">
<title>Node5&#45;&gt;Node5</title>
<g id="a_edge7_Node000005_Node000005"><a xlink:title=" ">
<path fill="none" stroke="#9a32cd" stroke-dasharray="5,2" d="M241.1,-256.43C243.55,-260.29 249.89,-262.99 260.12,-262.99 278.83,-262.99 284.53,-253.96 277.23,-245.33"/>
<polygon fill="#9a32cd" stroke="#9a32cd" points="244.51,-257.27 242.77,-246.82 237.61,-256.07 244.51,-257.27"/>
</a>
</g>
<text text-anchor="middle" x="260.12" y="-265.49" font-family="Helvetica,sans-Serif" font-size="10.00" fill="grey"> proxyInfo</text>
</g>
<!-- Node5&#45;&gt;Node9 -->
<g id="edge15_Node000009_Node000005" class="edge">
<title>Node5&#45;&gt;Node9</title>
<g id="a_edge15_Node000009_Node000005"><a xlink:title=" ">
<path fill="none" stroke="#9a32cd" stroke-dasharray="5,2" d="M290.08,-227.63C299.98,-223.95 310.51,-218.61 318.25,-210.99 332.43,-197.03 320.45,-182.09 336.25,-169.99 373.17,-141.71 427.92,-138.04 465.68,-139.61"/>
<polygon fill="#9a32cd" stroke="#9a32cd" points="289.21,-224.23 280.78,-230.64 291.37,-230.89 289.21,-224.23"/>
</a>
</g>
<text text-anchor="middle" x="367.75" y="-172.49" font-family="Helvetica,sans-Serif" font-size="10.00" fill="grey"> proxyInfo</text>
</g>
<!-- Node6 -->
<g id="Node000006" class="node">
<title>Node6</title>
<g id="a_Node000006"><a xlink:href="../../d4/d04/class_class.html" target="_top" xlink:title="Super root of all classes in Enforce script.">
<polygon fill="white" stroke="#666666" points="45.25,-331.99 4.5,-331.99 4.5,-311.99 45.25,-311.99 45.25,-331.99"/>
<text text-anchor="middle" x="24.88" y="-318.49" font-family="Helvetica,sans-Serif" font-size="10.00">Class</text>
</a>
</g>
</g>
<!-- Node6&#45;&gt;Node2 -->
<g id="edge20_Node000002_Node000006" class="edge">
<title>Node6&#45;&gt;Node2</title>
<g id="a_edge20_Node000002_Node000006"><a xlink:title=" ">
<path fill="none" stroke="#9a32cd" stroke-dasharray="5,2" d="M29.19,-343.35C33.9,-366.92 44.65,-404.6 67.75,-427.99 113.06,-473.87 138.73,-470.53 202,-482.99 252.69,-492.97 268.43,-496.68 318.25,-482.99 382.27,-465.39 446.53,-419.97 481.47,-392.37"/>
<polygon fill="#9a32cd" stroke="#9a32cd" points="32.67,-342.9 27.47,-333.67 25.78,-344.13 32.67,-342.9"/>
</a>
</g>
<text text-anchor="middle" x="260.12" y="-493.49" font-family="Helvetica,sans-Serif" font-size="10.00" fill="grey"> m_Instance</text>
</g>
<!-- Node6&#45;&gt;Node5 -->
<g id="edge8_Node000005_Node000006" class="edge">
<title>Node6&#45;&gt;Node5</title>
<g id="a_edge8_Node000005_Node000006"><a xlink:title=" ">
<path fill="none" stroke="#9a32cd" stroke-dasharray="5,2" d="M50.05,-305.57C55.71,-302.13 61.82,-298.72 67.75,-295.99 128.71,-267.87 206.2,-247.55 240.89,-239.2"/>
<polygon fill="#9a32cd" stroke="#9a32cd" points="48.32,-302.53 41.77,-310.85 52.08,-308.43 48.32,-302.53"/>
</a>
</g>
<text text-anchor="middle" x="125.88" y="-298.49" font-family="Helvetica,sans-Serif" font-size="10.00" fill="grey"> m_Instance</text>
</g>
<!-- Node6&#45;&gt;Node9 -->
<g id="edge16_Node000009_Node000006" class="edge">
<title>Node6&#45;&gt;Node9</title>
<g id="a_edge16_Node000009_Node000006"><a xlink:title=" ">
<path fill="none" stroke="#9a32cd" stroke-dasharray="5,2" d="M56.76,-320.11C122,-315.81 271.66,-304.02 318.25,-283.99 395.8,-250.65 471.57,-180.31 498.21,-154.11"/>
<polygon fill="#9a32cd" stroke="#9a32cd" points="56.87,-316.6 47.12,-320.73 57.32,-323.58 56.87,-316.6"/>
</a>
</g>
<text text-anchor="middle" x="260.12" y="-308.49" font-family="Helvetica,sans-Serif" font-size="10.00" fill="grey"> m_Instance</text>
</g>
<!-- Node7 -->
<g id="Node000007" class="node">
<title>Node7</title>
<g id="a_Node000007"><a xlink:href="../../d5/d02/classstring.html" target="_top" xlink:title=" ">
<polygon fill="white" stroke="#666666" points="44.88,-244.99 4.88,-244.99 4.88,-224.99 44.88,-224.99 44.88,-244.99"/>
<text text-anchor="middle" x="24.88" y="-231.49" font-family="Helvetica,sans-Serif" font-size="10.00">string</text>
</a>
</g>
</g>
<!-- Node7&#45;&gt;Node2 -->
<g id="edge21_Node000002_Node000007" class="edge">
<title>Node7&#45;&gt;Node2</title>
<g id="a_edge21_Node000002_Node000007"><a xlink:title=" ">
<path fill="none" stroke="#9a32cd" stroke-dasharray="5,2" d="M38.62,-254.68C46,-264.58 56.12,-275.94 67.75,-282.99 113.2,-310.53 136.9,-286.38 184,-310.99 193.49,-315.94 192.28,-322.49 202,-326.99 269.62,-358.25 353.9,-368.26 416.92,-370.86"/>
<polygon fill="#9a32cd" stroke="#9a32cd" points="41.66,-252.93 33.07,-246.73 35.92,-256.93 41.66,-252.93"/>
</a>
</g>
<text text-anchor="middle" x="260.12" y="-362.49" font-family="Helvetica,sans-Serif" font-size="10.00" fill="grey"> m_Test</text>
</g>
<!-- Node7&#45;&gt;Node5 -->
<g id="edge9_Node000005_Node000007" class="edge">
<title>Node7&#45;&gt;Node5</title>
<g id="a_edge9_Node000005_Node000007"><a xlink:title=" ">
<path fill="none" stroke="#9a32cd" stroke-dasharray="5,2" d="M56.86,-234.99C106.18,-234.99 201.02,-234.99 240.83,-234.99"/>
<polygon fill="#9a32cd" stroke="#9a32cd" points="56.87,-231.49 46.87,-234.99 56.87,-238.49 56.87,-231.49"/>
</a>
</g>
<text text-anchor="middle" x="125.88" y="-237.49" font-family="Helvetica,sans-Serif" font-size="10.00" fill="grey"> m_Test</text>
</g>
<!-- Node7&#45;&gt;Node7 -->
<g id="edge10_Node000007_Node000007" class="edge">
<title>Node7&#45;&gt;Node7</title>
<g id="a_edge10_Node000007_Node000007"><a xlink:title=" ">
<path fill="none" stroke="#9a32cd" stroke-dasharray="5,2" d="M7.02,-256.43C9.32,-260.29 15.27,-262.99 24.88,-262.99 42.43,-262.99 47.78,-253.96 40.92,-245.33"/>
<polygon fill="#9a32cd" stroke="#9a32cd" points="10.44,-257.25 8.58,-246.82 3.53,-256.13 10.44,-257.25"/>
</a>
</g>
<text text-anchor="middle" x="24.88" y="-265.49" font-family="Helvetica,sans-Serif" font-size="10.00" fill="grey"> Empty</text>
</g>
<!-- Node7&#45;&gt;Node9 -->
<g id="edge17_Node000009_Node000007" class="edge">
<title>Node7&#45;&gt;Node9</title>
<g id="a_edge17_Node000009_Node000007"><a xlink:title=" ">
<path fill="none" stroke="#9a32cd" stroke-dasharray="5,2" d="M56.35,-232.14C90.36,-227.65 145.66,-216.29 184,-187.99 195.6,-179.42 189.85,-168.76 202,-160.99 276.27,-113.49 311.1,-138.37 399.25,-139.99 421.12,-140.39 445.44,-141.24 465.55,-142.06"/>
<polygon fill="#9a32cd" stroke="#9a32cd" points="56.28,-228.63 46.77,-233.28 57.11,-235.58 56.28,-228.63"/>
</a>
</g>
<text text-anchor="middle" x="260.12" y="-163.49" font-family="Helvetica,sans-Serif" font-size="10.00" fill="grey"> m_Test</text>
</g>
<!-- Node8 -->
<g id="Node000008" class="node">
<title>Node8</title>
<g id="a_Node000008"><a xlink:href="../../dd/d0a/class_widget.html" target="_top" xlink:title=" ">
<polygon fill="white" stroke="#666666" points="48.25,-151.99 1.5,-151.99 1.5,-131.99 48.25,-131.99 48.25,-151.99"/>
<text text-anchor="middle" x="24.88" y="-138.49" font-family="Helvetica,sans-Serif" font-size="10.00">Widget</text>
</a>
</g>
</g>
<!-- Node8&#45;&gt;Node2 -->
<g id="edge22_Node000002_Node000008" class="edge">
<title>Node8&#45;&gt;Node2</title>
<g id="a_edge22_Node000002_Node000008"><a xlink:title=" ">
<path fill="none" stroke="#9a32cd" stroke-dasharray="5,2" d="M59.86,-138.74C93.02,-136.97 144.15,-138.07 184,-155.99 194.04,-160.5 192.39,-167.63 202,-172.99 248.7,-199.03 270.99,-178.98 318.25,-203.99 337.08,-213.95 436.97,-304.6 483.88,-347.57"/>
<polygon fill="#9a32cd" stroke="#9a32cd" points="59.76,-135.24 50.02,-139.39 60.23,-142.22 59.76,-135.24"/>
</a>
</g>
<text text-anchor="middle" x="260.12" y="-206.49" font-family="Helvetica,sans-Serif" font-size="10.00" fill="grey"> m_Root</text>
</g>
<!-- Node8&#45;&gt;Node5 -->
<g id="edge11_Node000005_Node000008" class="edge">
<title>Node8&#45;&gt;Node5</title>
<g id="a_edge11_Node000005_Node000008"><a xlink:title=" ">
<path fill="none" stroke="#9a32cd" stroke-dasharray="5,2" d="M59.22,-155.28C109.16,-175.19 201.69,-212.08 240.85,-227.7"/>
<polygon fill="#9a32cd" stroke="#9a32cd" points="60.66,-152.09 50.07,-151.63 58.06,-158.59 60.66,-152.09"/>
</a>
</g>
<text text-anchor="middle" x="125.88" y="-206.49" font-family="Helvetica,sans-Serif" font-size="10.00" fill="grey"> m_Root</text>
</g>
<!-- Node8&#45;&gt;Node9 -->
<g id="edge18_Node000009_Node000008" class="edge">
<title>Node8&#45;&gt;Node9</title>
<g id="a_edge18_Node000009_Node000008"><a xlink:title=" ">
<path fill="none" stroke="#9a32cd" stroke-dasharray="5,2" d="M59.32,-133.14C62.17,-132.4 65.01,-131.68 67.75,-130.99 119.29,-118.01 144.43,-138.46 184,-102.99 201.59,-87.22 182.68,-66.57 202,-52.99 244.27,-23.28 267.87,-41.54 318.25,-52.99 387.8,-68.78 461.64,-113.31 492.87,-133.64"/>
<polygon fill="#9a32cd" stroke="#9a32cd" points="58.71,-129.68 49.92,-135.58 60.48,-136.45 58.71,-129.68"/>
</a>
</g>
<text text-anchor="middle" x="260.12" y="-55.49" font-family="Helvetica,sans-Serif" font-size="10.00" fill="grey"> m_Root</text>
</g>
<!-- Node9&#45;&gt;Node5 -->
<g id="edge12_Node000005_Node000009" class="edge">
<title>Node9&#45;&gt;Node5</title>
<g id="a_edge12_Node000005_Node000009"><a xlink:title=" ">
<path fill="none" stroke="#9a32cd" stroke-dasharray="5,2" d="M469.54,-158.24C415.41,-178.17 319.24,-213.59 279.3,-228.3"/>
<polygon fill="#9a32cd" stroke="#9a32cd" points="470.51,-161.61 478.68,-154.87 468.09,-155.05 470.51,-161.61"/>
</a>
</g>
<text text-anchor="middle" x="367.75" y="-207.49" font-family="Helvetica,sans-Serif" font-size="10.00" fill="grey"> m_Subgroups</text>
</g>
<!-- Node9&#45;&gt;Node9 -->
<g id="edge19_Node000009_Node000009" class="edge">
<title>Node9&#45;&gt;Node9</title>
<g id="a_edge19_Node000009_Node000009"><a xlink:title=" ">
<path fill="none" stroke="#9a32cd" stroke-dasharray="5,2" d="M484.37,-165.43C487.58,-169.29 495.87,-171.99 509.25,-171.99 533.72,-171.99 541.17,-162.96 531.61,-154.33"/>
<polygon fill="#9a32cd" stroke="#9a32cd" points="487.76,-166.33 486.55,-155.8 480.93,-164.78 487.76,-166.33"/>
</a>
</g>
<text text-anchor="middle" x="509.25" y="-174.49" font-family="Helvetica,sans-Serif" font-size="10.00" fill="grey"> m_Subgroups</text>
</g>
</g>
</svg>
