<?xml version="1.0" encoding="UTF-8" standalone="no"?>
<!DOCTYPE svg PUBLIC "-//W3C//DTD SVG 1.1//EN"
 "http://www.w3.org/Graphics/SVG/1.1/DTD/svg11.dtd">
<!-- Generated by graphviz version 11.0.0 (20240428.1522)
 -->
<!-- Title: Land_Underground_EntranceBase Pages: 1 -->
<svg width="172pt" height="196pt"
 viewBox="0.00 0.00 171.75 196.00" xmlns="http://www.w3.org/2000/svg" xmlns:xlink="http://www.w3.org/1999/xlink">
<g id="graph0" class="graph" transform="scale(1 1) rotate(0) translate(4 192)">
<title>Land_Underground_EntranceBase</title>
<!-- Node1 -->
<g id="Node000001" class="node">
<title>Node1</title>
<g id="a_Node000001"><a xlink:title=" ">
<polygon fill="#999999" stroke="#666666" points="163.75,-76 0,-76 0,-56 163.75,-56 163.75,-76"/>
<text text-anchor="middle" x="81.88" y="-62.5" font-family="Helvetica,sans-Serif" font-size="10.00">Land_Underground_EntranceBase</text>
</a>
</g>
</g>
<!-- Node4 -->
<g id="Node000004" class="node">
<title>Node4</title>
<g id="a_Node000004"><a xlink:href="../../d5/d0b/class_land___underground___stairs___exit.html" target="_top" xlink:title=" ">
<polygon fill="white" stroke="#666666" points="157,-20 6.75,-20 6.75,0 157,0 157,-20"/>
<text text-anchor="middle" x="81.88" y="-6.5" font-family="Helvetica,sans-Serif" font-size="10.00">Land_Underground_Stairs_Exit</text>
</a>
</g>
</g>
<!-- Node1&#45;&gt;Node4 -->
<g id="edge3_Node000001_Node000004" class="edge">
<title>Node1&#45;&gt;Node4</title>
<g id="a_edge3_Node000001_Node000004"><a xlink:title=" ">
<path fill="none" stroke="#8b1a1a" d="M81.88,-44.13C81.88,-35.9 81.88,-26.85 81.88,-20.3"/>
<polygon fill="#8b1a1a" stroke="#8b1a1a" points="78.38,-44.08 81.88,-54.08 85.38,-44.08 78.38,-44.08"/>
</a>
</g>
</g>
<!-- Node2 -->
<g id="Node000002" class="node">
<title>Node2</title>
<g id="a_Node000002"><a xlink:href="../../df/d01/class_house.html" target="_top" xlink:title=" ">
<polygon fill="white" stroke="#666666" points="103.75,-132 60,-132 60,-112 103.75,-112 103.75,-132"/>
<text text-anchor="middle" x="81.88" y="-118.5" font-family="Helvetica,sans-Serif" font-size="10.00">House</text>
</a>
</g>
</g>
<!-- Node2&#45;&gt;Node1 -->
<g id="edge1_Node000001_Node000002" class="edge">
<title>Node2&#45;&gt;Node1</title>
<g id="a_edge1_Node000001_Node000002"><a xlink:title=" ">
<path fill="none" stroke="#8b1a1a" d="M81.88,-100.13C81.88,-91.9 81.88,-82.85 81.88,-76.3"/>
<polygon fill="#8b1a1a" stroke="#8b1a1a" points="78.38,-100.08 81.88,-110.08 85.38,-100.08 78.38,-100.08"/>
</a>
</g>
</g>
<!-- Node3 -->
<g id="Node000003" class="node">
<title>Node3</title>
<g id="a_Node000003"><a xlink:title=" ">
<polygon fill="white" stroke="#666666" points="118.38,-188 45.38,-188 45.38,-168 118.38,-168 118.38,-188"/>
<text text-anchor="middle" x="81.88" y="-174.5" font-family="Helvetica,sans-Serif" font-size="10.00">BuildingBase</text>
</a>
</g>
</g>
<!-- Node3&#45;&gt;Node2 -->
<g id="edge2_Node000002_Node000003" class="edge">
<title>Node3&#45;&gt;Node2</title>
<g id="a_edge2_Node000002_Node000003"><a xlink:title=" ">
<path fill="none" stroke="#8b1a1a" d="M81.88,-156.13C81.88,-147.9 81.88,-138.85 81.88,-132.3"/>
<polygon fill="#8b1a1a" stroke="#8b1a1a" points="78.38,-156.08 81.88,-166.08 85.38,-156.08 78.38,-156.08"/>
</a>
</g>
</g>
</g>
</svg>
