<?xml version="1.0" encoding="UTF-8" standalone="no"?>
<!DOCTYPE svg PUBLIC "-//W3C//DTD SVG 1.1//EN"
 "http://www.w3.org/Graphics/SVG/1.1/DTD/svg11.dtd">
<!-- Generated by graphviz version 11.0.0 (20240428.1522)
 -->
<!-- Title: Bouncer Pages: 1 -->
<svg width="251pt" height="232pt"
 viewBox="0.00 0.00 251.38 232.00" xmlns="http://www.w3.org/2000/svg" xmlns:xlink="http://www.w3.org/1999/xlink">

<svg id="main" version="1.1" xmlns="http://www.w3.org/2000/svg" xmlns:xlink="http://www.w3.org/1999/xlink" xml:space="preserve" onload="init(evt)">
<style type="text/css"><![CDATA[
.node, .edge {opacity: 0.7;}
.node.selected, .edge.selected {opacity: 1;}
.edge:hover path { stroke: red; }
.edge:hover polygon { stroke: red; fill: red; }
]]></style>
<script type="application/ecmascript" xlink:href="../../svg.min.js"/>
<svg id="graph" class="graph">
<g id="graph0" class="graph" transform="scale(1 1) rotate(0) translate(4 228)">
<title>Bouncer</title>
<!-- Node1 -->
<g id="Node000001" class="node">
<title>Node1</title>
<g id="a_Node000001"><a xlink:title=" ">
<polygon fill="#999999" stroke="#666666" points="165,-20 113,-20 113,0 165,0 165,-20"/>
<text text-anchor="middle" x="139" y="-6.5" font-family="Helvetica,sans-Serif" font-size="10.00">Bouncer</text>
</a>
</g>
</g>
<!-- Node2 -->
<g id="Node000002" class="node">
<title>Node2</title>
<g id="a_Node000002"><a xlink:href="../../d4/d03/classfloat.html" target="_top" xlink:title=" ">
<polygon fill="white" stroke="#666666" points="34,-216 0,-216 0,-196 34,-196 34,-216"/>
<text text-anchor="middle" x="17" y="-202.5" font-family="Helvetica,sans-Serif" font-size="10.00">float</text>
</a>
</g>
</g>
<!-- Node2&#45;&gt;Node1 -->
<g id="edge1_Node000001_Node000002" class="edge">
<title>Node2&#45;&gt;Node1</title>
<g id="a_edge1_Node000001_Node000002"><a xlink:title=" ">
<path fill="none" stroke="#9a32cd" stroke-dasharray="5,2" d="M10.62,-184.81C2.93,-156.32 -6.34,-103.81 16.5,-68 37.56,-34.97 83.27,-20.78 112.51,-14.9"/>
<polygon fill="#9a32cd" stroke="#9a32cd" points="7.23,-185.68 13.4,-194.3 13.95,-183.72 7.23,-185.68"/>
</a>
</g>
<text text-anchor="middle" x="53.75" y="-106.5" font-family="Helvetica,sans-Serif" font-size="10.00" fill="grey"> amount</text>
<text text-anchor="middle" x="53.75" y="-94.5" font-family="Helvetica,sans-Serif" font-size="10.00" fill="grey">m_orginal_height</text>
<text text-anchor="middle" x="53.75" y="-82.5" font-family="Helvetica,sans-Serif" font-size="10.00" fill="grey">m_orginal_width</text>
<text text-anchor="middle" x="53.75" y="-70.5" font-family="Helvetica,sans-Serif" font-size="10.00" fill="grey">speed</text>
</g>
<!-- Node2&#45;&gt;Node2 -->
<g id="edge2_Node000002_Node000002" class="edge">
<title>Node2&#45;&gt;Node2</title>
<g id="a_edge2_Node000002_Node000002"><a xlink:title=" ">
<path fill="none" stroke="#9a32cd" stroke-dasharray="5,2" d="M45.67,-214.94C49.47,-213.42 52,-210.44 52,-206 52,-197.88 43.56,-194.64 34.29,-196.29"/>
<polygon fill="#9a32cd" stroke="#9a32cd" points="45.54,-211.44 35.8,-215.61 46.01,-218.43 45.54,-211.44"/>
</a>
</g>
<text text-anchor="middle" x="74.12" y="-214.5" font-family="Helvetica,sans-Serif" font-size="10.00" fill="grey"> LOWEST</text>
<text text-anchor="middle" x="74.12" y="-202.5" font-family="Helvetica,sans-Serif" font-size="10.00" fill="grey">MAX</text>
<text text-anchor="middle" x="74.12" y="-190.5" font-family="Helvetica,sans-Serif" font-size="10.00" fill="grey">MIN</text>
</g>
<!-- Node4 -->
<g id="Node000004" class="node">
<title>Node4</title>
<g id="a_Node000004"><a xlink:href="../../d7/d00/class_animator_timer.html" target="_top" xlink:title=" ">
<polygon fill="white" stroke="#666666" points="178.5,-102 99.5,-102 99.5,-82 178.5,-82 178.5,-102"/>
<text text-anchor="middle" x="139" y="-88.5" font-family="Helvetica,sans-Serif" font-size="10.00">AnimatorTimer</text>
</a>
</g>
</g>
<!-- Node2&#45;&gt;Node4 -->
<g id="edge6_Node000004_Node000002" class="edge">
<title>Node2&#45;&gt;Node4</title>
<g id="a_edge6_Node000004_Node000002"><a xlink:title=" ">
<path fill="none" stroke="#9a32cd" stroke-dasharray="5,2" d="M27.28,-185.77C36.2,-170.39 50.26,-148.99 66.75,-134 81.58,-120.51 101.61,-109.59 116.81,-102.41"/>
<polygon fill="#9a32cd" stroke="#9a32cd" points="24.28,-183.97 22.47,-194.41 30.39,-187.38 24.28,-183.97"/>
</a>
</g>
<text text-anchor="middle" x="101.12" y="-160.5" font-family="Helvetica,sans-Serif" font-size="10.00" fill="grey"> m_target_value</text>
<text text-anchor="middle" x="101.12" y="-148.5" font-family="Helvetica,sans-Serif" font-size="10.00" fill="grey">m_time</text>
<text text-anchor="middle" x="101.12" y="-136.5" font-family="Helvetica,sans-Serif" font-size="10.00" fill="grey">m_value</text>
</g>
<!-- Node3 -->
<g id="Node000003" class="node">
<title>Node3</title>
<g id="a_Node000003"><a xlink:href="../../dd/d0a/class_widget.html" target="_top" xlink:title=" ">
<polygon fill="white" stroke="#666666" points="243.38,-102 196.62,-102 196.62,-82 243.38,-82 243.38,-102"/>
<text text-anchor="middle" x="220" y="-88.5" font-family="Helvetica,sans-Serif" font-size="10.00">Widget</text>
</a>
</g>
</g>
<!-- Node3&#45;&gt;Node1 -->
<g id="edge3_Node000001_Node000003" class="edge">
<title>Node3&#45;&gt;Node1</title>
<g id="a_edge3_Node000001_Node000003"><a xlink:title=" ">
<path fill="none" stroke="#9a32cd" stroke-dasharray="5,2" d="M208.41,-71.88C201.33,-61.16 191.62,-47.97 181,-38 173.8,-31.24 164.68,-25.14 156.78,-20.46"/>
<polygon fill="#9a32cd" stroke="#9a32cd" points="205.43,-73.72 213.74,-80.3 211.35,-69.97 205.43,-73.72"/>
</a>
</g>
<text text-anchor="middle" x="208.5" y="-40.5" font-family="Helvetica,sans-Serif" font-size="10.00" fill="grey"> m_root</text>
</g>
<!-- Node4&#45;&gt;Node1 -->
<g id="edge4_Node000001_Node000004" class="edge">
<title>Node4&#45;&gt;Node1</title>
<g id="a_edge4_Node000001_Node000004"><a xlink:title=" ">
<path fill="none" stroke="#9a32cd" stroke-dasharray="5,2" d="M139,-70.06C139,-54.01 139,-32.62 139,-20.48"/>
<polygon fill="#9a32cd" stroke="#9a32cd" points="135.5,-70 139,-80 142.5,-70 135.5,-70"/>
</a>
</g>
<text text-anchor="middle" x="157.75" y="-40.5" font-family="Helvetica,sans-Serif" font-size="10.00" fill="grey"> m_anim</text>
</g>
<!-- Node5 -->
<g id="Node000005" class="node">
<title>Node5</title>
<g id="a_Node000005"><a xlink:href="../../d9/d09/classbool.html" target="_top" xlink:title=" ">
<polygon fill="white" stroke="#666666" points="156,-216 122,-216 122,-196 156,-196 156,-216"/>
<text text-anchor="middle" x="139" y="-202.5" font-family="Helvetica,sans-Serif" font-size="10.00">bool</text>
</a>
</g>
</g>
<!-- Node5&#45;&gt;Node4 -->
<g id="edge5_Node000004_Node000005" class="edge">
<title>Node5&#45;&gt;Node4</title>
<g id="a_edge5_Node000004_Node000005"><a xlink:title=" ">
<path fill="none" stroke="#9a32cd" stroke-dasharray="5,2" d="M139,-184.33C139,-159.87 139,-120.2 139,-102.29"/>
<polygon fill="#9a32cd" stroke="#9a32cd" points="135.5,-184.32 139,-194.32 142.5,-184.32 135.5,-184.32"/>
</a>
</g>
<text text-anchor="middle" x="159.62" y="-154.5" font-family="Helvetica,sans-Serif" font-size="10.00" fill="grey"> m_active</text>
<text text-anchor="middle" x="159.62" y="-142.5" font-family="Helvetica,sans-Serif" font-size="10.00" fill="grey">m_loop</text>
</g>
</g>
</svg>
</svg>

<style type='text/css'>
<![CDATA[
[data-mouse-over-selected='false'] { opacity: 0.7; }
[data-mouse-over-selected='true']  { opacity: 1.0; }
]]>
</style>
<script type="application/ecmascript"><![CDATA[
document.addEventListener('DOMContentLoaded', (event) => {
  highlightEdges();
  highlightAdjacentNodes();
});
]]></script>
</svg>
