<?xml version="1.0" encoding="UTF-8" standalone="no"?>
<!DOCTYPE svg PUBLIC "-//W3C//DTD SVG 1.1//EN"
 "http://www.w3.org/Graphics/SVG/1.1/DTD/svg11.dtd">
<!-- Generated by graphviz version 11.0.0 (20240428.1522)
 -->
<!-- Title: CigarettePack_ColorBase Pages: 1 -->
<svg width="430pt" height="140pt"
 viewBox="0.00 0.00 430.38 140.00" xmlns="http://www.w3.org/2000/svg" xmlns:xlink="http://www.w3.org/1999/xlink">

<svg id="main" version="1.1" xmlns="http://www.w3.org/2000/svg" xmlns:xlink="http://www.w3.org/1999/xlink" xml:space="preserve" onload="init(evt)">
<style type="text/css"><![CDATA[
.node, .edge {opacity: 0.7;}
.node.selected, .edge.selected {opacity: 1;}
.edge:hover path { stroke: red; }
.edge:hover polygon { stroke: red; fill: red; }
]]></style>
<script type="application/ecmascript" xlink:href="../../svg.min.js"/>
<svg id="graph" class="graph">
<g id="graph0" class="graph" transform="scale(1 1) rotate(0) translate(4 136)">
<title>CigarettePack_ColorBase</title>
<!-- Node1 -->
<g id="Node000001" class="node">
<title>Node1</title>
<g id="a_Node000001"><a xlink:title=" ">
<polygon fill="#999999" stroke="#666666" points="279.12,-76 151.38,-76 151.38,-56 279.12,-56 279.12,-76"/>
<text text-anchor="middle" x="215.25" y="-62.5" font-family="Helvetica,sans-Serif" font-size="10.00">CigarettePack_ColorBase</text>
</a>
</g>
</g>
<!-- Node3 -->
<g id="Node000003" class="node">
<title>Node3</title>
<g id="a_Node000003"><a xlink:href="../../d3/d09/class_cigarette_pack___chernamorka.html" target="_top" xlink:title=" ">
<polygon fill="white" stroke="#666666" points="140.5,-20 0,-20 0,0 140.5,0 140.5,-20"/>
<text text-anchor="middle" x="70.25" y="-6.5" font-family="Helvetica,sans-Serif" font-size="10.00">CigarettePack_Chernamorka</text>
</a>
</g>
</g>
<!-- Node1&#45;&gt;Node3 -->
<g id="edge2_Node000001_Node000003" class="edge">
<title>Node1&#45;&gt;Node3</title>
<g id="a_edge2_Node000001_Node000003"><a xlink:title=" ">
<path fill="none" stroke="#8b1a1a" d="M179.43,-51.66C153.44,-41.98 118.91,-29.12 95.7,-20.48"/>
<polygon fill="#8b1a1a" stroke="#8b1a1a" points="177.98,-54.86 188.57,-55.07 180.42,-48.3 177.98,-54.86"/>
</a>
</g>
</g>
<!-- Node4 -->
<g id="Node000004" class="node">
<title>Node4</title>
<g id="a_Node000004"><a xlink:href="../../d6/d06/class_cigarette_pack___merkur.html" target="_top" xlink:title=" ">
<polygon fill="white" stroke="#666666" points="271.62,-20 158.88,-20 158.88,0 271.62,0 271.62,-20"/>
<text text-anchor="middle" x="215.25" y="-6.5" font-family="Helvetica,sans-Serif" font-size="10.00">CigarettePack_Merkur</text>
</a>
</g>
</g>
<!-- Node1&#45;&gt;Node4 -->
<g id="edge3_Node000001_Node000004" class="edge">
<title>Node1&#45;&gt;Node4</title>
<g id="a_edge3_Node000001_Node000004"><a xlink:title=" ">
<path fill="none" stroke="#8b1a1a" d="M215.25,-44.13C215.25,-35.9 215.25,-26.85 215.25,-20.3"/>
<polygon fill="#8b1a1a" stroke="#8b1a1a" points="211.75,-44.08 215.25,-54.08 218.75,-44.08 211.75,-44.08"/>
</a>
</g>
</g>
<!-- Node5 -->
<g id="Node000005" class="node">
<title>Node5</title>
<g id="a_Node000005"><a xlink:href="../../d5/d0e/class_cigarette_pack___partyzanka.html" target="_top" xlink:title=" ">
<polygon fill="white" stroke="#666666" points="422.38,-20 290.12,-20 290.12,0 422.38,0 422.38,-20"/>
<text text-anchor="middle" x="356.25" y="-6.5" font-family="Helvetica,sans-Serif" font-size="10.00">CigarettePack_Partyzanka</text>
</a>
</g>
</g>
<!-- Node1&#45;&gt;Node5 -->
<g id="edge4_Node000001_Node000005" class="edge">
<title>Node1&#45;&gt;Node5</title>
<g id="a_edge4_Node000001_Node000005"><a xlink:title=" ">
<path fill="none" stroke="#8b1a1a" d="M250.42,-51.53C275.65,-41.87 309.03,-29.08 331.5,-20.48"/>
<polygon fill="#8b1a1a" stroke="#8b1a1a" points="249.31,-48.21 241.22,-55.05 251.81,-54.74 249.31,-48.21"/>
</a>
</g>
</g>
<!-- Node2 -->
<g id="Node000002" class="node">
<title>Node2</title>
<g id="a_Node000002"><a xlink:href="../../d7/d0d/class_inventory___base.html" target="_top" xlink:title=" ">
<polygon fill="white" stroke="#666666" points="256.25,-132 174.25,-132 174.25,-112 256.25,-112 256.25,-132"/>
<text text-anchor="middle" x="215.25" y="-118.5" font-family="Helvetica,sans-Serif" font-size="10.00">Inventory_Base</text>
</a>
</g>
</g>
<!-- Node2&#45;&gt;Node1 -->
<g id="edge1_Node000001_Node000002" class="edge">
<title>Node2&#45;&gt;Node1</title>
<g id="a_edge1_Node000001_Node000002"><a xlink:title=" ">
<path fill="none" stroke="#8b1a1a" d="M215.25,-100.13C215.25,-91.9 215.25,-82.85 215.25,-76.3"/>
<polygon fill="#8b1a1a" stroke="#8b1a1a" points="211.75,-100.08 215.25,-110.08 218.75,-100.08 211.75,-100.08"/>
</a>
</g>
</g>
</g>
</svg>
</svg>

<style type='text/css'>
<![CDATA[
[data-mouse-over-selected='false'] { opacity: 0.7; }
[data-mouse-over-selected='true']  { opacity: 1.0; }
]]>
</style>
<script type="application/ecmascript"><![CDATA[
document.addEventListener('DOMContentLoaded', (event) => {
  highlightEdges();
  highlightAdjacentNodes();
});
]]></script>
</svg>
