<?xml version="1.0" encoding="UTF-8" standalone="no"?>
<!DOCTYPE svg PUBLIC "-//W3C//DTD SVG 1.1//EN"
 "http://www.w3.org/Graphics/SVG/1.1/DTD/svg11.dtd">
<!-- Generated by graphviz version 11.0.0 (20240428.1522)
 -->
<!-- Title: FlashbangEffect Pages: 1 -->
<!--zoomable 819 -->

<svg id="main" version="1.1" xmlns="http://www.w3.org/2000/svg" xmlns:xlink="http://www.w3.org/1999/xlink" xml:space="preserve" onload="init(evt)">
<style type="text/css"><![CDATA[
.node, .edge {opacity: 0.7;}
.node.selected, .edge.selected {opacity: 1;}
.edge:hover path { stroke: red; }
.edge:hover polygon { stroke: red; fill: red; }
]]></style>

<defs>
  <circle id="rim" cx="0" cy="0" r="7"/>
  <circle id="rim2" cx="0" cy="0" r="3.5"/>
  <g id="zoomPlus">
    <use xlink:href="#rim" fill="#404040"><set attributeName="fill" to="#808080" begin="zoomplus.mouseover" end="zoomplus.mouseout"/></use>
    <path d="M-4,0h8M0,-4v8" fill="none" stroke="white" stroke-width="1.5" pointer-events="none"/>
  </g>
  <g id="zoomMin">
    <use xlink:href="#rim" fill="#404040"><set attributeName="fill" to="#808080" begin="zoomminus.mouseover" end="zoomminus.mouseout"/></use>
    <path d="M-4,0h8" fill="none" stroke="white" stroke-width="1.5" pointer-events="none"/>
  </g>
  <g id="arrowUp" transform="translate(30 24)">
    <use xlink:href="#rim"/>
    <path pointer-events="none" fill="none" stroke="white" stroke-width="1.5" d="M0,-3.0v7 M-2.5,-0.5L0,-3.0L2.5,-0.5"/>
  </g>
  <g id="arrowRight" transform="rotate(90) translate(36 -43)">
    <use xlink:href="#rim"/>
    <path pointer-events="none" fill="none" stroke="white" stroke-width="1.5" d="M0,-3.0v7 M-2.5,-0.5L0,-3.0L2.5,-0.5"/>
  </g>
  <g id="arrowDown" transform="rotate(180) translate(-30 -48)">
    <use xlink:href="#rim"/>
    <path pointer-events="none" fill="none" stroke="white" stroke-width="1.5" d="M0,-3.0v7 M-2.5,-0.5L0,-3.0L2.5,-0.5"/>
  </g>
  <g id="arrowLeft" transform="rotate(270) translate(-36 17)">
    <use xlink:href="#rim"/>
    <path pointer-events="none" fill="none" stroke="white" stroke-width="1.5" d="M0,-3.0v7 M-2.5,-0.5L0,-3.0L2.5,-0.5"/>
  </g>
  <g id="resetDef">
    <use xlink:href="#rim2" fill="#404040"><set attributeName="fill" to="#808080" begin="reset.mouseover" end="reset.mouseout"/></use>
  </g>
</defs>
<script type="application/ecmascript">
var viewWidth = 621;
var viewHeight = 819;
var sectionId = 'dynsection-0';
</script>
<script type="application/ecmascript" xlink:href="../../svg.min.js"/>
<svg id="graph" class="graph">
<g id="viewport">
<title>FlashbangEffect</title>
<!-- Node1 -->
<g id="Node000001" class="node">
<title>Node1</title>
<g id="a_Node000001"><a xlink:title=" ">
<polygon fill="#999999" stroke="#666666" points="613.25,-449.5 527.5,-449.5 527.5,-429.5 613.25,-429.5 613.25,-449.5"/>
<text text-anchor="middle" x="570.38" y="-436" font-family="Helvetica,sans-Serif" font-size="10.00">FlashbangEffect</text>
</a>
</g>
</g>
<!-- Node2 -->
<g id="Node000002" class="node">
<title>Node2</title>
<g id="a_Node000002"><a xlink:href="../../d4/d03/classfloat.html" target="_top" xlink:title=" ">
<polygon fill="white" stroke="#666666" points="68.12,-657.5 34.12,-657.5 34.12,-637.5 68.12,-637.5 68.12,-657.5"/>
<text text-anchor="middle" x="51.12" y="-644" font-family="Helvetica,sans-Serif" font-size="10.00">float</text>
</a>
</g>
</g>
<!-- Node2&#45;&gt;Node1 -->
<g id="edge1_Node000001_Node000002" class="edge">
<title>Node2&#45;&gt;Node1</title>
<g id="a_edge1_Node000001_Node000002"><a xlink:title=" ">
<path fill="none" stroke="#9a32cd" stroke-dasharray="5,2" d="M74.01,-664.41C86.74,-673.17 103.54,-682.96 120.25,-687.5 179.76,-703.68 200.68,-707.53 259,-687.5 402.52,-638.23 528.58,-490.49 561.2,-449.91"/>
<polygon fill="#9a32cd" stroke="#9a32cd" points="76.13,-661.63 65.97,-658.62 72.04,-667.31 76.13,-661.63"/>
</a>
</g>
<text text-anchor="middle" x="327.25" y="-801" font-family="Helvetica,sans-Serif" font-size="10.00" fill="grey"> ALPHA_MAX</text>
<text text-anchor="middle" x="327.25" y="-789" font-family="Helvetica,sans-Serif" font-size="10.00" fill="grey">ALPHA_MIN</text>
<text text-anchor="middle" x="327.25" y="-777" font-family="Helvetica,sans-Serif" font-size="10.00" fill="grey">SOUND_DEFER_TIME</text>
<text text-anchor="middle" x="327.25" y="-765" font-family="Helvetica,sans-Serif" font-size="10.00" fill="grey">m_AlphaMaxActual</text>
<text text-anchor="middle" x="327.25" y="-753" font-family="Helvetica,sans-Serif" font-size="10.00" fill="grey">m_BreakPoint</text>
<text text-anchor="middle" x="327.25" y="-741" font-family="Helvetica,sans-Serif" font-size="10.00" fill="grey">m_DayTimeToggle</text>
<text text-anchor="middle" x="327.25" y="-729" font-family="Helvetica,sans-Serif" font-size="10.00" fill="grey">m_HitDuration</text>
<text text-anchor="middle" x="327.25" y="-717" font-family="Helvetica,sans-Serif" font-size="10.00" fill="grey">m_ProgressMultiplier</text>
<text text-anchor="middle" x="327.25" y="-705" font-family="Helvetica,sans-Serif" font-size="10.00" fill="grey">m_SoundMaxActual</text>
<text text-anchor="middle" x="327.25" y="-693" font-family="Helvetica,sans-Serif" font-size="10.00" fill="grey">m_SoundStopTime</text>
<text text-anchor="middle" x="327.25" y="-681" font-family="Helvetica,sans-Serif" font-size="10.00" fill="grey">...</text>
</g>
<!-- Node2&#45;&gt;Node2 -->
<g id="edge2_Node000002_Node000002" class="edge">
<title>Node2&#45;&gt;Node2</title>
<g id="a_edge2_Node000002_Node000002"><a xlink:title=" ">
<path fill="none" stroke="#9a32cd" stroke-dasharray="5,2" d="M25.81,-662.15C22.62,-669.24 31.06,-675.5 51.12,-675.5 78.45,-675.5 84.21,-663.88 68.41,-654.39"/>
<polygon fill="#9a32cd" stroke="#9a32cd" points="27.99,-664.91 32.75,-655.45 23.12,-659.88 27.99,-664.91"/>
</a>
</g>
<text text-anchor="middle" x="51.12" y="-702" font-family="Helvetica,sans-Serif" font-size="10.00" fill="grey"> LOWEST</text>
<text text-anchor="middle" x="51.12" y="-690" font-family="Helvetica,sans-Serif" font-size="10.00" fill="grey">MAX</text>
<text text-anchor="middle" x="51.12" y="-678" font-family="Helvetica,sans-Serif" font-size="10.00" fill="grey">MIN</text>
</g>
<!-- Node6 -->
<g id="Node000006" class="node">
<title>Node6</title>
<g id="a_Node000006"><a xlink:href="../../d9/d09/class_effect_sound.html" target="_top" xlink:title="Wrapper class for managing sound through SEffectManager.">
<polygon fill="white" stroke="#666666" points="361.5,-280.5 293,-280.5 293,-260.5 361.5,-260.5 361.5,-280.5"/>
<text text-anchor="middle" x="327.25" y="-267" font-family="Helvetica,sans-Serif" font-size="10.00">EffectSound</text>
</a>
</g>
</g>
<!-- Node2&#45;&gt;Node6 -->
<g id="edge16_Node000006_Node000002" class="edge">
<title>Node2&#45;&gt;Node6</title>
<g id="a_edge16_Node000006_Node000002"><a xlink:title=" ">
<path fill="none" stroke="#9a32cd" stroke-dasharray="5,2" d="M69.01,-629.26C81.82,-616.6 100.54,-600.45 120.25,-591.5 177.17,-565.67 215.82,-613.7 259,-568.5 282.34,-544.07 269.59,-450.48 277,-417.5 288.8,-364.98 312.22,-304.8 321.9,-280.99"/>
<polygon fill="#9a32cd" stroke="#9a32cd" points="66.67,-626.65 62.21,-636.25 71.69,-631.53 66.67,-626.65"/>
</a>
</g>
<text text-anchor="middle" x="189.62" y="-678" font-family="Helvetica,sans-Serif" font-size="10.00" fill="grey"> m_SoundFadeInDuration</text>
<text text-anchor="middle" x="189.62" y="-666" font-family="Helvetica,sans-Serif" font-size="10.00" fill="grey">m_SoundFadeOutDuration</text>
<text text-anchor="middle" x="189.62" y="-654" font-family="Helvetica,sans-Serif" font-size="10.00" fill="grey">m_SoundFadeOutInitVolume</text>
<text text-anchor="middle" x="189.62" y="-642" font-family="Helvetica,sans-Serif" font-size="10.00" fill="grey">m_SoundFadeOutStartTime</text>
<text text-anchor="middle" x="189.62" y="-630" font-family="Helvetica,sans-Serif" font-size="10.00" fill="grey">m_SoundWaveLenght</text>
<text text-anchor="middle" x="189.62" y="-618" font-family="Helvetica,sans-Serif" font-size="10.00" fill="grey">m_SoundWaveTime</text>
<text text-anchor="middle" x="189.62" y="-606" font-family="Helvetica,sans-Serif" font-size="10.00" fill="grey">m_SoundWaveVolume</text>
<text text-anchor="middle" x="189.62" y="-594" font-family="Helvetica,sans-Serif" font-size="10.00" fill="grey">m_SoundWaveVolumeMax</text>
</g>
<!-- Node3 -->
<g id="Node000003" class="node">
<title>Node3</title>
<g id="a_Node000003"><a xlink:href="../../d9/d09/classbool.html" target="_top" xlink:title=" ">
<polygon fill="white" stroke="#666666" points="68.12,-449.5 34.12,-449.5 34.12,-429.5 68.12,-429.5 68.12,-449.5"/>
<text text-anchor="middle" x="51.12" y="-436" font-family="Helvetica,sans-Serif" font-size="10.00">bool</text>
</a>
</g>
</g>
<!-- Node3&#45;&gt;Node1 -->
<g id="edge3_Node000001_Node000003" class="edge">
<title>Node3&#45;&gt;Node1</title>
<g id="a_edge3_Node000001_Node000003"><a xlink:title=" ">
<path fill="none" stroke="#9a32cd" stroke-dasharray="5,2" d="M79.74,-439.5C165.05,-439.5 424.8,-439.5 527.22,-439.5"/>
<polygon fill="#9a32cd" stroke="#9a32cd" points="79.97,-436 69.97,-439.5 79.97,-443 79.97,-436"/>
</a>
</g>
<text text-anchor="middle" x="327.25" y="-454" font-family="Helvetica,sans-Serif" font-size="10.00" fill="grey"> m_Initialized</text>
<text text-anchor="middle" x="327.25" y="-442" font-family="Helvetica,sans-Serif" font-size="10.00" fill="grey">m_Visual</text>
</g>
<!-- Node4 -->
<g id="Node000004" class="node">
<title>Node4</title>
<g id="a_Node000004"><a xlink:href="../../d5/d08/class_player_base.html" target="_top" xlink:title=" ">
<polygon fill="white" stroke="#666666" points="360.38,-501.5 294.12,-501.5 294.12,-481.5 360.38,-481.5 360.38,-501.5"/>
<text text-anchor="middle" x="327.25" y="-488" font-family="Helvetica,sans-Serif" font-size="10.00">PlayerBase</text>
</a>
</g>
</g>
<!-- Node3&#45;&gt;Node4 -->
<g id="edge6_Node000004_Node000003" class="edge">
<title>Node3&#45;&gt;Node4</title>
<g id="a_edge6_Node000004_Node000003"><a xlink:title=" ">
<path fill="none" stroke="#9a32cd" stroke-dasharray="5,2" d="M79.7,-443.96C134.01,-452.75 250.3,-471.63 259,-473.5 270.46,-475.97 282.89,-479.16 293.91,-482.16"/>
<polygon fill="#9a32cd" stroke="#9a32cd" points="80.44,-440.54 70.01,-442.4 79.33,-447.45 80.44,-440.54"/>
</a>
</g>
<text text-anchor="start" x="123.25" y="-524" font-family="Helvetica,sans-Serif" font-size="10.00" fill="grey"> m_PersonalLightDisabledBy</text>
<text text-anchor="middle" x="189.62" y="-512" font-family="Helvetica,sans-Serif" font-size="10.00" fill="grey">Debug</text>
<text text-anchor="start" x="123.25" y="-500" font-family="Helvetica,sans-Serif" font-size="10.00" fill="grey">m_PersonalLightEnabledOn</text>
<text text-anchor="middle" x="189.62" y="-488" font-family="Helvetica,sans-Serif" font-size="10.00" fill="grey">CurrentServer</text>
<text text-anchor="middle" x="189.62" y="-476" font-family="Helvetica,sans-Serif" font-size="10.00" fill="grey">m_PersonalLightIsSwitchedOn</text>
</g>
<!-- Node3&#45;&gt;Node6 -->
<g id="edge15_Node000006_Node000003" class="edge">
<title>Node3&#45;&gt;Node6</title>
<g id="a_edge15_Node000006_Node000003"><a xlink:title=" ">
<path fill="none" stroke="#9a32cd" stroke-dasharray="5,2" d="M60.53,-418.84C70.97,-395.99 91.03,-359.98 120.25,-341.5 173.08,-308.1 201.24,-342.39 259,-318.5 281,-309.41 302.75,-291.92 315.32,-280.76"/>
<polygon fill="#9a32cd" stroke="#9a32cd" points="57.43,-417.19 56.67,-427.75 63.86,-419.97 57.43,-417.19"/>
</a>
</g>
<text text-anchor="middle" x="189.62" y="-416" font-family="Helvetica,sans-Serif" font-size="10.00" fill="grey"> m_SetEnvVariables</text>
<text text-anchor="middle" x="189.62" y="-404" font-family="Helvetica,sans-Serif" font-size="10.00" fill="grey">m_SoundAutodestroy</text>
<text text-anchor="middle" x="189.62" y="-392" font-family="Helvetica,sans-Serif" font-size="10.00" fill="grey">m_SoundFadedOut</text>
<text text-anchor="middle" x="189.62" y="-380" font-family="Helvetica,sans-Serif" font-size="10.00" fill="grey">m_SoundLoop</text>
<text text-anchor="middle" x="189.62" y="-368" font-family="Helvetica,sans-Serif" font-size="10.00" fill="grey">m_SoundWaveIsPlaying</text>
<text text-anchor="middle" x="189.62" y="-356" font-family="Helvetica,sans-Serif" font-size="10.00" fill="grey">m_SoundWaveStarting</text>
<text text-anchor="middle" x="189.62" y="-344" font-family="Helvetica,sans-Serif" font-size="10.00" fill="grey">m_SoundWaveStopping</text>
</g>
<!-- Node4&#45;&gt;Node1 -->
<g id="edge4_Node000001_Node000004" class="edge">
<title>Node4&#45;&gt;Node1</title>
<g id="a_edge4_Node000001_Node000004"><a xlink:title=" ">
<path fill="none" stroke="#9a32cd" stroke-dasharray="5,2" d="M371.54,-482.72C408.29,-475.19 462.42,-463.94 509.5,-453.5 515.23,-452.23 521.27,-450.86 527.2,-449.49"/>
<polygon fill="#9a32cd" stroke="#9a32cd" points="371.29,-479.2 362.2,-484.63 372.69,-486.06 371.29,-479.2"/>
</a>
</g>
<text text-anchor="middle" x="452.5" y="-479" font-family="Helvetica,sans-Serif" font-size="10.00" fill="grey"> m_Player</text>
</g>
<!-- Node5 -->
<g id="Node000005" class="node">
<title>Node5</title>
<g id="a_Node000005"><a xlink:href="../../dd/d03/class_scripted_light_base.html" target="_top" xlink:title=" ">
<polygon fill="white" stroke="#666666" points="98.88,-565.5 3.38,-565.5 3.38,-545.5 98.88,-545.5 98.88,-565.5"/>
<text text-anchor="middle" x="51.12" y="-552" font-family="Helvetica,sans-Serif" font-size="10.00">ScriptedLightBase</text>
</a>
</g>
</g>
<!-- Node5&#45;&gt;Node4 -->
<g id="edge5_Node000004_Node000005" class="edge">
<title>Node5&#45;&gt;Node4</title>
<g id="a_edge5_Node000004_Node000005"><a xlink:title=" ">
<path fill="none" stroke="#9a32cd" stroke-dasharray="5,2" d="M110.51,-556.23C152.81,-555.11 210.78,-550.13 259,-533.5 279.82,-526.32 300.89,-511.71 313.76,-501.76"/>
<polygon fill="#9a32cd" stroke="#9a32cd" points="110.47,-552.73 100.53,-556.42 110.6,-559.73 110.47,-552.73"/>
</a>
</g>
<text text-anchor="middle" x="189.62" y="-558" font-family="Helvetica,sans-Serif" font-size="10.00" fill="grey"> m_PersonalLight</text>
</g>
<!-- Node6&#45;&gt;Node1 -->
<g id="edge7_Node000001_Node000006" class="edge">
<title>Node6&#45;&gt;Node1</title>
<g id="a_edge7_Node000001_Node000006"><a xlink:title=" ">
<path fill="none" stroke="#9a32cd" stroke-dasharray="5,2" d="M352.28,-287.34C401.83,-322.08 514.13,-400.79 554.54,-429.11"/>
<polygon fill="#9a32cd" stroke="#9a32cd" points="354.41,-284.56 344.21,-281.69 350.39,-290.3 354.41,-284.56"/>
</a>
</g>
<text text-anchor="middle" x="452.5" y="-396" font-family="Helvetica,sans-Serif" font-size="10.00" fill="grey"> m_FlashbangEffectSound</text>
</g>
<!-- Node7 -->
<g id="Node000007" class="node">
<title>Node7</title>
<g id="a_Node000007"><a xlink:title=" ">
<polygon fill="white" stroke="#666666" points="71.5,-101.5 30.75,-101.5 30.75,-81.5 71.5,-81.5 71.5,-101.5"/>
<text text-anchor="middle" x="51.12" y="-88" font-family="Helvetica,sans-Serif" font-size="10.00">Effect</text>
</a>
</g>
</g>
<!-- Node7&#45;&gt;Node6 -->
<g id="edge8_Node000006_Node000007" class="edge">
<title>Node7&#45;&gt;Node6</title>
<g id="a_edge8_Node000006_Node000007"><a xlink:title=" ">
<path fill="none" stroke="#8b1a1a" d="M83.11,-84.81C128.44,-77.03 212.46,-70.53 259,-116.5 302.06,-159.04 239.53,-203.97 277,-251.5 281.03,-256.61 286.61,-260.35 292.57,-263.08"/>
<polygon fill="#8b1a1a" stroke="#8b1a1a" points="82.62,-81.35 73.43,-86.62 83.91,-88.23 82.62,-81.35"/>
</a>
</g>
</g>
<!-- Node8 -->
<g id="Node000008" class="node">
<title>Node8</title>
<g id="a_Node000008"><a xlink:href="../../d4/d0d/class_script_invoker.html" target="_top" xlink:title="ScriptInvoker Class provide list of callbacks &#160;&#160;usage:">
<polygon fill="white" stroke="#666666" points="86.88,-38.5 15.38,-38.5 15.38,-18.5 86.88,-18.5 86.88,-38.5"/>
<text text-anchor="middle" x="51.12" y="-25" font-family="Helvetica,sans-Serif" font-size="10.00">ScriptInvoker</text>
</a>
</g>
</g>
<!-- Node8&#45;&gt;Node6 -->
<g id="edge9_Node000006_Node000008" class="edge">
<title>Node8&#45;&gt;Node6</title>
<g id="a_edge9_Node000006_Node000008"><a xlink:title=" ">
<path fill="none" stroke="#9a32cd" stroke-dasharray="5,2" d="M90.17,-14.56C136.39,-0.35 213.77,14.24 259,-27.5 295.7,-61.37 247.12,-211.49 277,-251.5 280.95,-256.79 286.57,-260.61 292.61,-263.36"/>
<polygon fill="#9a32cd" stroke="#9a32cd" points="89.29,-11.17 80.85,-17.57 91.44,-17.83 89.29,-11.17"/>
</a>
</g>
<text text-anchor="middle" x="189.62" y="-66" font-family="Helvetica,sans-Serif" font-size="10.00" fill="grey"> Event_OnSoundFadeInStopped</text>
<text text-anchor="middle" x="189.62" y="-54" font-family="Helvetica,sans-Serif" font-size="10.00" fill="grey">Event_OnSoundFadeOutStarted</text>
<text text-anchor="middle" x="189.62" y="-42" font-family="Helvetica,sans-Serif" font-size="10.00" fill="grey">Event_OnSoundWaveEnded</text>
<text text-anchor="middle" x="189.62" y="-30" font-family="Helvetica,sans-Serif" font-size="10.00" fill="grey">Event_OnSoundWaveStarted</text>
</g>
<!-- Node9 -->
<g id="Node000009" class="node">
<title>Node9</title>
<g id="a_Node000009"><a xlink:href="../../d8/d0b/class_sound_params.html" target="_top" xlink:title=" ">
<polygon fill="white" stroke="#666666" points="89.88,-321.5 12.38,-321.5 12.38,-301.5 89.88,-301.5 89.88,-321.5"/>
<text text-anchor="middle" x="51.12" y="-308" font-family="Helvetica,sans-Serif" font-size="10.00">SoundParams</text>
</a>
</g>
</g>
<!-- Node9&#45;&gt;Node6 -->
<g id="edge10_Node000006_Node000009" class="edge">
<title>Node9&#45;&gt;Node6</title>
<g id="a_edge10_Node000006_Node000009"><a xlink:title=" ">
<path fill="none" stroke="#9a32cd" stroke-dasharray="5,2" d="M101.64,-305.6C143.63,-300.4 205.39,-292.31 259,-283.5 270.03,-281.69 282.03,-279.46 292.79,-277.36"/>
<polygon fill="#9a32cd" stroke="#9a32cd" points="101.35,-302.11 91.85,-306.8 102.2,-309.06 101.35,-302.11"/>
</a>
</g>
<text text-anchor="middle" x="189.62" y="-305" font-family="Helvetica,sans-Serif" font-size="10.00" fill="grey"> m_SoundParams</text>
</g>
<!-- Node10 -->
<g id="Node000010" class="node">
<title>Node10</title>
<g id="a_Node000010"><a xlink:href="../../d5/d09/class_sound_object_builder.html" target="_top" xlink:title=" ">
<polygon fill="white" stroke="#666666" points="102.25,-283.5 0,-283.5 0,-263.5 102.25,-263.5 102.25,-283.5"/>
<text text-anchor="middle" x="51.12" y="-270" font-family="Helvetica,sans-Serif" font-size="10.00">SoundObjectBuilder</text>
</a>
</g>
</g>
<!-- Node10&#45;&gt;Node6 -->
<g id="edge11_Node000006_Node000010" class="edge">
<title>Node10&#45;&gt;Node6</title>
<g id="a_edge11_Node000006_Node000010"><a xlink:title=" ">
<path fill="none" stroke="#9a32cd" stroke-dasharray="5,2" d="M114.04,-271.62C116.13,-271.58 118.21,-271.54 120.25,-271.5 181.04,-270.46 251.94,-270.36 292.71,-270.42"/>
<polygon fill="#9a32cd" stroke="#9a32cd" points="114.15,-268.12 104.23,-271.85 114.31,-275.12 114.15,-268.12"/>
</a>
</g>
<text text-anchor="middle" x="189.62" y="-274" font-family="Helvetica,sans-Serif" font-size="10.00" fill="grey"> m_SoundObjectBuilder</text>
</g>
<!-- Node11 -->
<g id="Node000011" class="node">
<title>Node11</title>
<g id="a_Node000011"><a xlink:href="../../d9/d02/class_abstract_wave.html" target="_top" xlink:title=" ">
<polygon fill="white" stroke="#666666" points="89.5,-245.5 12.75,-245.5 12.75,-225.5 89.5,-225.5 89.5,-245.5"/>
<text text-anchor="middle" x="51.12" y="-232" font-family="Helvetica,sans-Serif" font-size="10.00">AbstractWave</text>
</a>
</g>
</g>
<!-- Node11&#45;&gt;Node6 -->
<g id="edge12_Node000006_Node000011" class="edge">
<title>Node11&#45;&gt;Node6</title>
<g id="a_edge12_Node000006_Node000011"><a xlink:title=" ">
<path fill="none" stroke="#9a32cd" stroke-dasharray="5,2" d="M101.04,-237.54C143.14,-239.82 205.39,-244.46 259,-253.5 270.04,-255.37 281.94,-258.12 292.61,-260.87"/>
<polygon fill="#9a32cd" stroke="#9a32cd" points="101.41,-234.05 91.24,-237.04 101.05,-241.05 101.41,-234.05"/>
</a>
</g>
<text text-anchor="middle" x="189.62" y="-256" font-family="Helvetica,sans-Serif" font-size="10.00" fill="grey"> m_SoundWaveObject</text>
</g>
<!-- Node12 -->
<g id="Node000012" class="node">
<title>Node12</title>
<g id="a_Node000012"><a xlink:href="../../d5/d02/classstring.html" target="_top" xlink:title=" ">
<polygon fill="white" stroke="#666666" points="71.12,-177.5 31.12,-177.5 31.12,-157.5 71.12,-157.5 71.12,-177.5"/>
<text text-anchor="middle" x="51.12" y="-164" font-family="Helvetica,sans-Serif" font-size="10.00">string</text>
</a>
</g>
</g>
<!-- Node12&#45;&gt;Node6 -->
<g id="edge13_Node000006_Node000012" class="edge">
<title>Node12&#45;&gt;Node6</title>
<g id="a_edge13_Node000006_Node000012"><a xlink:title=" ">
<path fill="none" stroke="#9a32cd" stroke-dasharray="5,2" d="M83,-168.73C126.31,-171.88 205.75,-183.06 259,-222.5 271.19,-231.53 265.32,-241.83 277,-251.5 281.59,-255.3 287.02,-258.4 292.57,-260.9"/>
<polygon fill="#9a32cd" stroke="#9a32cd" points="83.25,-165.24 73.06,-168.11 82.82,-172.22 83.25,-165.24"/>
</a>
</g>
<text text-anchor="middle" x="189.62" y="-225" font-family="Helvetica,sans-Serif" font-size="10.00" fill="grey"> m_SoundSetName</text>
</g>
<!-- Node12&#45;&gt;Node12 -->
<g id="edge14_Node000012_Node000012" class="edge">
<title>Node12&#45;&gt;Node12</title>
<g id="a_edge14_Node000012_Node000012"><a xlink:title=" ">
<path fill="none" stroke="#9a32cd" stroke-dasharray="5,2" d="M25.33,-186.41C26.63,-191.57 35.23,-195.5 51.12,-195.5 76.55,-195.5 83.31,-185.44 71.39,-176.39"/>
<polygon fill="#9a32cd" stroke="#9a32cd" points="28.36,-188.16 30.13,-177.72 22.23,-184.78 28.36,-188.16"/>
</a>
</g>
<text text-anchor="middle" x="51.12" y="-198" font-family="Helvetica,sans-Serif" font-size="10.00" fill="grey"> Empty</text>
</g>
<!-- Node13 -->
<g id="Node000013" class="node">
<title>Node13</title>
<g id="a_Node000013"><a xlink:href="../../db/d06/class_param3.html" target="_top" xlink:title=" ">
<polygon fill="white" stroke="#666666" points="76,-139.5 26.25,-139.5 26.25,-119.5 76,-119.5 76,-139.5"/>
<text text-anchor="middle" x="51.12" y="-126" font-family="Helvetica,sans-Serif" font-size="10.00">Param3</text>
</a>
</g>
</g>
<!-- Node13&#45;&gt;Node6 -->
<g id="edge17_Node000006_Node000013" class="edge">
<title>Node13&#45;&gt;Node6</title>
<g id="a_edge17_Node000006_Node000013"><a xlink:title=" ">
<path fill="none" stroke="#9a32cd" stroke-dasharray="5,2" d="M87.49,-123.02C133.38,-116.82 213,-113.95 259,-157.5 289.89,-186.75 249.73,-218.86 277,-251.5 281.11,-256.43 286.66,-260.08 292.55,-262.79"/>
<polygon fill="#9a32cd" stroke="#9a32cd" points="87.19,-119.53 77.81,-124.46 88.22,-126.45 87.19,-119.53"/>
</a>
</g>
<text text-anchor="middle" x="189.62" y="-160" font-family="Helvetica,sans-Serif" font-size="10.00" fill="grey"> m_SoundDoppler</text>
</g>
<!-- Node14 -->
<g id="Node000014" class="node">
<title>Node14</title>
<g id="a_Node000014"><a xlink:href="../../d8/d08/class_timer.html" target="_top" xlink:title=" ">
<polygon fill="white" stroke="#666666" points="347.25,-242.5 307.25,-242.5 307.25,-222.5 347.25,-222.5 347.25,-242.5"/>
<text text-anchor="middle" x="327.25" y="-229" font-family="Helvetica,sans-Serif" font-size="10.00">Timer</text>
</a>
</g>
</g>
<!-- Node14&#45;&gt;Node1 -->
<g id="edge18_Node000001_Node000014" class="edge">
<title>Node14&#45;&gt;Node1</title>
<g id="a_edge18_Node000001_Node000014"><a xlink:title=" ">
<path fill="none" stroke="#9a32cd" stroke-dasharray="5,2" d="M358.77,-237.09C398.25,-244.5 467,-262.65 509.5,-303.5 547.25,-339.8 562.78,-404.05 567.59,-429.1"/>
<polygon fill="#9a32cd" stroke="#9a32cd" points="359.46,-233.66 349.01,-235.38 358.25,-240.55 359.46,-233.66"/>
</a>
</g>
<text text-anchor="middle" x="452.5" y="-306" font-family="Helvetica,sans-Serif" font-size="10.00" fill="grey"> m_DeferAttenuation</text>
</g>
</g>
</svg>

<g id="navigator" transform="translate(0 0)" fill="#404254">
  <rect fill="#f2f5e9" fill-opacity="0.5" stroke="#606060" stroke-width=".5" x="0" y="0" width="60" height="60"/>
  <use id="zoomplus" xlink:href="#zoomPlus" x="17" y="9" onmousedown="handleZoom(evt,'in')"/>
  <use id="zoomminus" xlink:href="#zoomMin" x="42" y="9" onmousedown="handleZoom(evt,'out')"/>
  <use id="reset" xlink:href="#resetDef" x="30" y="36" onmousedown="handleReset()"/>
   <use id="arrowup" xlink:href="#arrowUp" x="0" y="0" onmousedown="handlePan(0,-1)"/>
  <use id="arrowright" xlink:href="#arrowRight" x="0" y="0" onmousedown="handlePan(1,0)"/>
  <use id="arrowdown" xlink:href="#arrowDown" x="0" y="0" onmousedown="handlePan(0,1)"/>
  <use id="arrowleft" xlink:href="#arrowLeft" x="0" y="0" onmousedown="handlePan(-1,0)"/>
</g>
<svg viewBox="0 0 15 15" width="100%" height="30px" preserveAspectRatio="xMaxYMin meet">
 <g id="arrow_out" transform="scale(0.3 0.3)">
  <a xlink:href="class_flashbang_effect__coll__graph_org.svg" target="_base">
   <rect id="button" ry="5" rx="5" y="6" x="6" height="38" width="38"
        fill="#f2f5e9" fill-opacity="0.5" stroke="#606060" stroke-width="1.0"/>
   <path id="arrow"
     d="M 11.500037,31.436501 C 11.940474,20.09759 22.043105,11.32322 32.158766,21.979434 L 37.068811,17.246167 C 37.068811,17.246167 37.088388,32 37.088388,32 L 22.160133,31.978069 C 22.160133,31.978069 26.997745,27.140456 26.997745,27.140456 C 18.528582,18.264221 13.291696,25.230495 11.500037,31.436501 z"
     style="fill:#404040;"/>
  </a>
 </g>
</svg>

<style type='text/css'>
<![CDATA[
[data-mouse-over-selected='false'] { opacity: 0.7; }
[data-mouse-over-selected='true']  { opacity: 1.0; }
]]>
</style>
<script type="application/ecmascript"><![CDATA[
document.addEventListener('DOMContentLoaded', (event) => {
  highlightEdges();
  highlightAdjacentNodes();
});
]]></script>
</svg>
