<?xml version="1.0" encoding="UTF-8" standalone="no"?>
<!DOCTYPE svg PUBLIC "-//W3C//DTD SVG 1.1//EN"
 "http://www.w3.org/Graphics/SVG/1.1/DTD/svg11.dtd">
<!-- Generated by graphviz version 11.0.0 (20240428.1522)
 -->
<!-- Title: UndergroundAreaLoader Pages: 1 -->
<svg width="885pt" height="554pt"
 viewBox="0.00 0.00 885.07 553.91" xmlns="http://www.w3.org/2000/svg" xmlns:xlink="http://www.w3.org/1999/xlink">
<g id="graph0" class="graph" transform="scale(1 1) rotate(0) translate(4 549.91)">
<title>UndergroundAreaLoader</title>
<!-- Node1 -->
<g id="Node000001" class="node">
<title>Node1</title>
<g id="a_Node000001"><a xlink:title=" ">
<polygon fill="#999999" stroke="#666666" points="855.45,-20 735.2,-20 735.2,0 855.45,0 855.45,-20"/>
<text text-anchor="middle" x="795.32" y="-6.5" font-family="Helvetica,sans-Serif" font-size="10.00">UndergroundAreaLoader</text>
</a>
</g>
</g>
<!-- Node2 -->
<g id="Node000002" class="node">
<title>Node2</title>
<g id="a_Node000002"><a xlink:href="../../d5/d02/classstring.html" target="_top" xlink:title=" ">
<polygon fill="white" stroke="#666666" points="782.32,-544 742.32,-544 742.32,-524 782.32,-524 782.32,-544"/>
<text text-anchor="middle" x="762.32" y="-530.5" font-family="Helvetica,sans-Serif" font-size="10.00">string</text>
</a>
</g>
</g>
<!-- Node2&#45;&gt;Node1 -->
<g id="edge1_Node000001_Node000002" class="edge">
<title>Node2&#45;&gt;Node1</title>
<g id="a_edge1_Node000001_Node000002"><a xlink:title=" ">
<path fill="none" stroke="#9a32cd" stroke-dasharray="5,2" d="M782.33,-515.79C785.25,-512.72 788.03,-509.41 790.32,-506 823.72,-456.35 840.32,-440.84 840.32,-381 840.32,-381 840.32,-381 840.32,-77 840.32,-53.42 820.48,-32.06 807.15,-20.36"/>
<polygon fill="#9a32cd" stroke="#9a32cd" points="779.99,-513.2 775.18,-522.64 784.82,-518.26 779.99,-513.2"/>
</a>
</g>
<text text-anchor="middle" x="858.7" y="-188.5" font-family="Helvetica,sans-Serif" font-size="10.00" fill="grey"> m_Path</text>
</g>
<!-- Node2&#45;&gt;Node2 -->
<g id="edge2_Node000002_Node000002" class="edge">
<title>Node2&#45;&gt;Node2</title>
<g id="a_edge2_Node000002_Node000002"><a xlink:title=" ">
<path fill="none" stroke="#9a32cd" stroke-dasharray="5,2" d="M788.09,-545.91C795.04,-545.28 800.32,-541.31 800.32,-534 800.32,-523.12 788.62,-519.64 777.15,-523.55"/>
<polygon fill="#9a32cd" stroke="#9a32cd" points="789.02,-542.5 778.65,-544.65 788.1,-549.44 789.02,-542.5"/>
</a>
</g>
<text text-anchor="middle" x="816.07" y="-530.5" font-family="Helvetica,sans-Serif" font-size="10.00" fill="grey"> Empty</text>
</g>
<!-- Node4 -->
<g id="Node000004" class="node">
<title>Node4</title>
<g id="a_Node000004"><a xlink:href="../../d2/d01/classarray.html" target="_top" xlink:title=" ">
<polygon fill="white" stroke="#666666" points="672.95,-168 537.7,-168 537.7,-136 672.95,-136 672.95,-168"/>
<text text-anchor="start" x="545.7" y="-154.5" font-family="Helvetica,sans-Serif" font-size="10.00">array&lt; ref JsonUnderground</text>
<text text-anchor="middle" x="605.32" y="-142.5" font-family="Helvetica,sans-Serif" font-size="10.00">AreaTriggerData &gt;</text>
</a>
</g>
</g>
<!-- Node2&#45;&gt;Node4 -->
<g id="edge23_Node000004_Node000002" class="edge">
<title>Node2&#45;&gt;Node4</title>
<g id="a_edge23_Node000004_Node000002"><a xlink:title=" ">
<path fill="none" stroke="#9a32cd" stroke-dasharray="5,2" d="M768.24,-512.83C781.06,-465.18 807.11,-342.92 766.32,-254 746.1,-209.91 696.02,-183.15 657.03,-168.36"/>
<polygon fill="#9a32cd" stroke="#9a32cd" points="764.92,-511.72 765.58,-522.29 771.66,-513.61 764.92,-511.72"/>
</a>
</g>
<text text-anchor="middle" x="802.95" y="-286.5" font-family="Helvetica,sans-Serif" font-size="10.00" fill="grey"> m_Test</text>
</g>
<!-- Node7 -->
<g id="Node000007" class="node">
<title>Node7</title>
<g id="a_Node000007"><a xlink:href="../../d2/d01/classarray.html" target="_top" xlink:title="Result for an object found in CGame.IsBoxCollidingGeometryProxy.">
<polygon fill="white" stroke="#666666" points="473.2,-390 435.45,-390 435.45,-370 473.2,-370 473.2,-390"/>
<text text-anchor="middle" x="454.32" y="-376.5" font-family="Helvetica,sans-Serif" font-size="10.00">array</text>
</a>
</g>
</g>
<!-- Node2&#45;&gt;Node7 -->
<g id="edge12_Node000007_Node000002" class="edge">
<title>Node2&#45;&gt;Node7</title>
<g id="a_edge12_Node000007_Node000002"><a xlink:title=" ">
<path fill="none" stroke="#9a32cd" stroke-dasharray="5,2" d="M731.06,-528.69C709.63,-524.84 681.04,-517.92 658.07,-506 614.21,-483.23 615.16,-460.32 573.32,-434 540.21,-413.16 497.51,-396.28 473.3,-387.53"/>
<polygon fill="#9a32cd" stroke="#9a32cd" points="730.22,-532.1 740.66,-530.27 731.36,-525.19 730.22,-532.1"/>
</a>
</g>
<text text-anchor="middle" x="674.95" y="-466.5" font-family="Helvetica,sans-Serif" font-size="10.00" fill="grey"> m_Test</text>
</g>
<!-- Node10 -->
<g id="Node000010" class="node">
<title>Node10</title>
<g id="a_Node000010"><a xlink:href="../../d2/d01/classarray.html" target="_top" xlink:title=" ">
<polygon fill="white" stroke="#666666" points="459.57,-236 373.07,-236 373.07,-216 459.57,-216 459.57,-236"/>
<text text-anchor="middle" x="416.32" y="-222.5" font-family="Helvetica,sans-Serif" font-size="10.00">array&lt; Widget &gt;</text>
</a>
</g>
</g>
<!-- Node2&#45;&gt;Node10 -->
<g id="edge19_Node000010_Node000002" class="edge">
<title>Node2&#45;&gt;Node10</title>
<g id="a_edge19_Node000010_Node000002"><a xlink:title=" ">
<path fill="none" stroke="#9a32cd" stroke-dasharray="5,2" d="M751.43,-513.96C718.27,-456.64 617.53,-287.57 564.32,-254 533.07,-234.28 491.15,-228.11 459.9,-226.54"/>
<polygon fill="#9a32cd" stroke="#9a32cd" points="748.2,-515.35 756.22,-522.27 754.26,-511.86 748.2,-515.35"/>
</a>
</g>
<text text-anchor="middle" x="706.95" y="-376.5" font-family="Helvetica,sans-Serif" font-size="10.00" fill="grey"> m_Test</text>
</g>
<!-- Node3 -->
<g id="Node000003" class="node">
<title>Node3</title>
<g id="a_Node000003"><a xlink:href="../../df/d01/class_json_underground_triggers.html" target="_top" xlink:title=" ">
<polygon fill="white" stroke="#666666" points="771.07,-88 645.57,-88 645.57,-68 771.07,-68 771.07,-88"/>
<text text-anchor="middle" x="708.32" y="-74.5" font-family="Helvetica,sans-Serif" font-size="10.00">JsonUndergroundTriggers</text>
</a>
</g>
</g>
<!-- Node3&#45;&gt;Node1 -->
<g id="edge3_Node000001_Node000003" class="edge">
<title>Node3&#45;&gt;Node1</title>
<g id="a_edge3_Node000001_Node000003"><a xlink:title=" ">
<path fill="none" stroke="#9a32cd" stroke-dasharray="5,2" d="M729.83,-60.69C746.52,-48.03 769.07,-30.92 782.88,-20.44"/>
<polygon fill="#9a32cd" stroke="#9a32cd" points="727.85,-57.8 721.99,-66.63 732.08,-63.37 727.85,-57.8"/>
</a>
</g>
<text text-anchor="middle" x="787.82" y="-40.5" font-family="Helvetica,sans-Serif" font-size="10.00" fill="grey"> m_JsonData</text>
</g>
<!-- Node4&#45;&gt;Node3 -->
<g id="edge4_Node000003_Node000004" class="edge">
<title>Node4&#45;&gt;Node3</title>
<g id="a_edge4_Node000003_Node000004"><a xlink:title=" ">
<path fill="none" stroke="#9a32cd" stroke-dasharray="5,2" d="M636.81,-128.99C656.21,-115.43 680.11,-98.72 694.78,-88.47"/>
<polygon fill="#9a32cd" stroke="#9a32cd" points="634.85,-126.09 628.66,-134.69 638.86,-131.83 634.85,-126.09"/>
</a>
</g>
<text text-anchor="middle" x="687.07" y="-108.5" font-family="Helvetica,sans-Serif" font-size="10.00" fill="grey"> Triggers</text>
</g>
<!-- Node5 -->
<g id="Node000005" class="node">
<title>Node5</title>
<g id="a_Node000005"><a xlink:href="../../d8/d03/class_object.html" target="_top" xlink:title=" ">
<polygon fill="white" stroke="#666666" points="323.57,-544 279.07,-544 279.07,-524 323.57,-524 323.57,-544"/>
<text text-anchor="middle" x="301.32" y="-530.5" font-family="Helvetica,sans-Serif" font-size="10.00">Object</text>
</a>
</g>
</g>
<!-- Node5&#45;&gt;Node4 -->
<g id="edge5_Node000004_Node000005" class="edge">
<title>Node5&#45;&gt;Node4</title>
<g id="a_edge5_Node000004_Node000005"><a xlink:title=" ">
<path fill="none" stroke="#9a32cd" stroke-dasharray="5,2" d="M267.43,-531.09C228.48,-528.19 167.78,-521.31 151.32,-506 98.08,-456.46 91.44,-406.68 128.32,-344 212.69,-200.61 427.29,-164.78 537.6,-155.88"/>
<polygon fill="#9a32cd" stroke="#9a32cd" points="267.03,-534.57 277.24,-531.76 267.51,-527.59 267.03,-534.57"/>
</a>
</g>
<text text-anchor="middle" x="226.82" y="-292.5" font-family="Helvetica,sans-Serif" font-size="10.00" fill="grey"> obj</text>
<text text-anchor="middle" x="226.82" y="-280.5" font-family="Helvetica,sans-Serif" font-size="10.00" fill="grey">parent</text>
</g>
<!-- Node5&#45;&gt;Node7 -->
<g id="edge8_Node000007_Node000005" class="edge">
<title>Node5&#45;&gt;Node7</title>
<g id="a_edge8_Node000007_Node000005"><a xlink:title=" ">
<path fill="none" stroke="#9a32cd" stroke-dasharray="5,2" d="M316.46,-514.94C334.25,-494.23 365.18,-459.83 395.32,-434 406,-424.86 410.67,-425.16 421.32,-416 430.57,-408.05 440,-397.78 446.4,-390.43"/>
<polygon fill="#9a32cd" stroke="#9a32cd" points="313.84,-512.62 310.03,-522.5 319.17,-517.15 313.84,-512.62"/>
</a>
</g>
<text text-anchor="middle" x="408.82" y="-472.5" font-family="Helvetica,sans-Serif" font-size="10.00" fill="grey"> obj</text>
<text text-anchor="middle" x="408.82" y="-460.5" font-family="Helvetica,sans-Serif" font-size="10.00" fill="grey">parent</text>
</g>
<!-- Node5&#45;&gt;Node10 -->
<g id="edge15_Node000010_Node000005" class="edge">
<title>Node5&#45;&gt;Node10</title>
<g id="a_edge15_Node000010_Node000005"><a xlink:title=" ">
<path fill="none" stroke="#9a32cd" stroke-dasharray="5,2" d="M299.55,-512.43C296.36,-461.92 295.28,-330.36 361.32,-254 368,-246.28 377.41,-240.55 386.55,-236.41"/>
<polygon fill="#9a32cd" stroke="#9a32cd" points="296.04,-512.46 300.28,-522.18 303.02,-511.95 296.04,-512.46"/>
</a>
</g>
<text text-anchor="middle" x="327.82" y="-382.5" font-family="Helvetica,sans-Serif" font-size="10.00" fill="grey"> obj</text>
<text text-anchor="middle" x="327.82" y="-370.5" font-family="Helvetica,sans-Serif" font-size="10.00" fill="grey">parent</text>
</g>
<!-- Node6 -->
<g id="Node000006" class="node">
<title>Node6</title>
<g id="a_Node000006"><a xlink:href="../../db/d06/class_param3.html" target="_top" xlink:title=" ">
<polygon fill="white" stroke="#666666" points="137.2,-544 87.45,-544 87.45,-524 137.2,-524 137.2,-544"/>
<text text-anchor="middle" x="112.32" y="-530.5" font-family="Helvetica,sans-Serif" font-size="10.00">Param3</text>
</a>
</g>
</g>
<!-- Node6&#45;&gt;Node4 -->
<g id="edge6_Node000004_Node000006" class="edge">
<title>Node6&#45;&gt;Node4</title>
<g id="a_edge6_Node000004_Node000006"><a xlink:title=" ">
<path fill="none" stroke="#9a32cd" stroke-dasharray="5,2" d="M96.28,-515.12C55.61,-467.58 -43.77,-336.12 22.07,-254 85.47,-174.92 397.44,-157.74 537.29,-154.02"/>
<polygon fill="#9a32cd" stroke="#9a32cd" points="93.57,-517.33 102.78,-522.56 98.84,-512.73 93.57,-517.33"/>
</a>
</g>
<text text-anchor="middle" x="80.45" y="-316.5" font-family="Helvetica,sans-Serif" font-size="10.00" fill="grey"> NO_SORTING</text>
<text text-anchor="middle" x="80.45" y="-304.5" font-family="Helvetica,sans-Serif" font-size="10.00" fill="grey">geomLevel</text>
<text text-anchor="middle" x="80.45" y="-292.5" font-family="Helvetica,sans-Serif" font-size="10.00" fill="grey">hierLevel</text>
<text text-anchor="start" x="22.32" y="-280.5" font-family="Helvetica,sans-Serif" font-size="10.00" fill="grey">m_CurrentSettingAlternate</text>
<text text-anchor="middle" x="80.45" y="-268.5" font-family="Helvetica,sans-Serif" font-size="10.00" fill="grey">KeyIndex</text>
<text text-anchor="middle" x="80.45" y="-256.5" font-family="Helvetica,sans-Serif" font-size="10.00" fill="grey">m_CurrentSettingKeyIndex</text>
</g>
<!-- Node6&#45;&gt;Node7 -->
<g id="edge9_Node000007_Node000006" class="edge">
<title>Node6&#45;&gt;Node7</title>
<g id="a_edge9_Node000007_Node000006"><a xlink:title=" ">
<path fill="none" stroke="#9a32cd" stroke-dasharray="5,2" d="M123.4,-514.3C138.39,-490.91 167.53,-451.79 204.07,-434 291.19,-391.59 334.03,-458.03 421.32,-416 433.06,-410.35 442.75,-398.59 448.53,-390.26"/>
<polygon fill="#9a32cd" stroke="#9a32cd" points="120.6,-512.17 118.32,-522.52 126.55,-515.85 120.6,-512.17"/>
</a>
</g>
<text text-anchor="middle" x="261.45" y="-496.5" font-family="Helvetica,sans-Serif" font-size="10.00" fill="grey"> NO_SORTING</text>
<text text-anchor="middle" x="261.45" y="-484.5" font-family="Helvetica,sans-Serif" font-size="10.00" fill="grey">geomLevel</text>
<text text-anchor="middle" x="261.45" y="-472.5" font-family="Helvetica,sans-Serif" font-size="10.00" fill="grey">hierLevel</text>
<text text-anchor="start" x="203.32" y="-460.5" font-family="Helvetica,sans-Serif" font-size="10.00" fill="grey">m_CurrentSettingAlternate</text>
<text text-anchor="middle" x="261.45" y="-448.5" font-family="Helvetica,sans-Serif" font-size="10.00" fill="grey">KeyIndex</text>
<text text-anchor="middle" x="261.45" y="-436.5" font-family="Helvetica,sans-Serif" font-size="10.00" fill="grey">m_CurrentSettingKeyIndex</text>
</g>
<!-- Node6&#45;&gt;Node10 -->
<g id="edge16_Node000010_Node000006" class="edge">
<title>Node6&#45;&gt;Node10</title>
<g id="a_edge16_Node000010_Node000006"><a xlink:title=" ">
<path fill="none" stroke="#9a32cd" stroke-dasharray="5,2" d="M112.83,-512.35C113.88,-491.91 117.02,-460 126.32,-434 142.09,-389.92 148.59,-377.72 181.07,-344 231.43,-291.74 251.21,-283.92 317.32,-254 334.85,-246.07 355.21,-240.02 372.89,-235.68"/>
<polygon fill="#9a32cd" stroke="#9a32cd" points="109.33,-512.06 112.46,-522.18 116.33,-512.32 109.33,-512.06"/>
</a>
</g>
<text text-anchor="middle" x="238.45" y="-406.5" font-family="Helvetica,sans-Serif" font-size="10.00" fill="grey"> NO_SORTING</text>
<text text-anchor="middle" x="238.45" y="-394.5" font-family="Helvetica,sans-Serif" font-size="10.00" fill="grey">geomLevel</text>
<text text-anchor="middle" x="238.45" y="-382.5" font-family="Helvetica,sans-Serif" font-size="10.00" fill="grey">hierLevel</text>
<text text-anchor="start" x="180.32" y="-370.5" font-family="Helvetica,sans-Serif" font-size="10.00" fill="grey">m_CurrentSettingAlternate</text>
<text text-anchor="middle" x="238.45" y="-358.5" font-family="Helvetica,sans-Serif" font-size="10.00" fill="grey">KeyIndex</text>
<text text-anchor="middle" x="238.45" y="-346.5" font-family="Helvetica,sans-Serif" font-size="10.00" fill="grey">m_CurrentSettingKeyIndex</text>
</g>
<!-- Node7&#45;&gt;Node4 -->
<g id="edge7_Node000004_Node000007" class="edge">
<title>Node7&#45;&gt;Node4</title>
<g id="a_edge7_Node000004_Node000007"><a xlink:title=" ">
<path fill="none" stroke="#9a32cd" stroke-dasharray="5,2" d="M482.75,-363.99C498.15,-354.71 516.58,-341.6 529.32,-326 570.2,-275.94 593.17,-200.48 601.59,-168.36"/>
<polygon fill="#9a32cd" stroke="#9a32cd" points="481.39,-360.74 474.47,-368.76 484.88,-366.8 481.39,-360.74"/>
</a>
</g>
<text text-anchor="middle" x="607.32" y="-222.5" font-family="Helvetica,sans-Serif" font-size="10.00" fill="grey"> proxyInfo</text>
</g>
<!-- Node7&#45;&gt;Node7 -->
<g id="edge10_Node000007_Node000007" class="edge">
<title>Node7&#45;&gt;Node7</title>
<g id="a_edge10_Node000007_Node000007"><a xlink:title=" ">
<path fill="none" stroke="#9a32cd" stroke-dasharray="5,2" d="M472.16,-396.07C482.07,-399.07 491.2,-393.71 491.2,-380 491.2,-361.72 474.97,-358.29 462.29,-369.72"/>
<polygon fill="#9a32cd" stroke="#9a32cd" points="473.99,-393.09 463.6,-391.05 470.45,-399.13 473.99,-393.09"/>
</a>
</g>
<text text-anchor="middle" x="512.2" y="-376.5" font-family="Helvetica,sans-Serif" font-size="10.00" fill="grey"> proxyInfo</text>
</g>
<!-- Node7&#45;&gt;Node10 -->
<g id="edge17_Node000010_Node000007" class="edge">
<title>Node7&#45;&gt;Node10</title>
<g id="a_edge17_Node000010_Node000007"><a xlink:title=" ">
<path fill="none" stroke="#9a32cd" stroke-dasharray="5,2" d="M437.72,-361.4C423.17,-345.97 404.32,-326 404.32,-326 392.5,-296.26 397.68,-285.3 404.32,-254 405.64,-247.78 408.5,-241.25 411.1,-236.17"/>
<polygon fill="#9a32cd" stroke="#9a32cd" points="435.17,-363.79 444.58,-368.67 440.26,-358.99 435.17,-363.79"/>
</a>
</g>
<text text-anchor="middle" x="425.32" y="-286.5" font-family="Helvetica,sans-Serif" font-size="10.00" fill="grey"> proxyInfo</text>
</g>
<!-- Node8 -->
<g id="Node000008" class="node">
<title>Node8</title>
<g id="a_Node000008"><a xlink:href="../../d4/d04/class_class.html" target="_top" xlink:title="Super root of all classes in Enforce script.">
<polygon fill="white" stroke="#666666" points="450.7,-544 409.95,-544 409.95,-524 450.7,-524 450.7,-544"/>
<text text-anchor="middle" x="430.32" y="-530.5" font-family="Helvetica,sans-Serif" font-size="10.00">Class</text>
</a>
</g>
</g>
<!-- Node8&#45;&gt;Node4 -->
<g id="edge22_Node000004_Node000008" class="edge">
<title>Node8&#45;&gt;Node4</title>
<g id="a_edge22_Node000004_Node000008"><a xlink:title=" ">
<path fill="none" stroke="#9a32cd" stroke-dasharray="5,2" d="M461.37,-522.27C469.68,-518.21 478.07,-512.86 484.32,-506 507.45,-480.62 485.68,-455.66 512.32,-434 550.08,-403.31 587.65,-452.06 620.32,-416 650.22,-383 641.28,-259.62 632.32,-216 628.83,-198.98 620.54,-180.88 614.06,-168.47"/>
<polygon fill="#9a32cd" stroke="#9a32cd" points="460.24,-518.94 452.46,-526.13 463.03,-525.36 460.24,-518.94"/>
</a>
</g>
<text text-anchor="middle" x="666.95" y="-286.5" font-family="Helvetica,sans-Serif" font-size="10.00" fill="grey"> m_Instance</text>
</g>
<!-- Node8&#45;&gt;Node7 -->
<g id="edge11_Node000007_Node000008" class="edge">
<title>Node8&#45;&gt;Node7</title>
<g id="a_edge11_Node000007_Node000008"><a xlink:title=" ">
<path fill="none" stroke="#9a32cd" stroke-dasharray="5,2" d="M428.08,-512.36C426.45,-492.14 425.39,-460.6 431.07,-434 434.52,-417.89 443.09,-400.67 448.81,-390.37"/>
<polygon fill="#9a32cd" stroke="#9a32cd" points="424.58,-512.45 429.01,-522.08 431.54,-511.79 424.58,-512.45"/>
</a>
</g>
<text text-anchor="middle" x="456.95" y="-466.5" font-family="Helvetica,sans-Serif" font-size="10.00" fill="grey"> m_Instance</text>
</g>
<!-- Node8&#45;&gt;Node10 -->
<g id="edge18_Node000010_Node000008" class="edge">
<title>Node8&#45;&gt;Node10</title>
<g id="a_edge18_Node000010_Node000008"><a xlink:title=" ">
<path fill="none" stroke="#9a32cd" stroke-dasharray="5,2" d="M417.61,-513.98C403.51,-491.64 381.62,-452.92 373.07,-416 356.72,-345.36 359.57,-318.69 392.32,-254 395.72,-247.29 401.21,-240.93 406.08,-236.08"/>
<polygon fill="#9a32cd" stroke="#9a32cd" points="414.62,-515.8 422.99,-522.28 420.49,-511.99 414.62,-515.8"/>
</a>
</g>
<text text-anchor="middle" x="398.95" y="-376.5" font-family="Helvetica,sans-Serif" font-size="10.00" fill="grey"> m_Instance</text>
</g>
<!-- Node9 -->
<g id="Node000009" class="node">
<title>Node9</title>
<g id="a_Node000009"><a xlink:href="../../dd/d0a/class_widget.html" target="_top" xlink:title=" ">
<polygon fill="white" stroke="#666666" points="606.7,-544 559.95,-544 559.95,-524 606.7,-524 606.7,-544"/>
<text text-anchor="middle" x="583.32" y="-530.5" font-family="Helvetica,sans-Serif" font-size="10.00">Widget</text>
</a>
</g>
</g>
<!-- Node9&#45;&gt;Node4 -->
<g id="edge24_Node000004_Node000009" class="edge">
<title>Node9&#45;&gt;Node4</title>
<g id="a_edge24_Node000004_Node000009"><a xlink:title=" ">
<path fill="none" stroke="#9a32cd" stroke-dasharray="5,2" d="M617.81,-527.56C634.32,-523.65 653.65,-517.05 668.32,-506 706.73,-477.09 714.39,-462.01 728.32,-416 738.84,-381.28 721.62,-287.75 708.32,-254 695.47,-221.38 693.72,-210.18 668.32,-186 660.99,-179.02 651.89,-173.12 642.91,-168.34"/>
<polygon fill="#9a32cd" stroke="#9a32cd" points="617.46,-524.06 608.39,-529.55 618.9,-530.91 617.46,-524.06"/>
</a>
</g>
<text text-anchor="middle" x="743.7" y="-286.5" font-family="Helvetica,sans-Serif" font-size="10.00" fill="grey"> m_Root</text>
</g>
<!-- Node9&#45;&gt;Node7 -->
<g id="edge13_Node000007_Node000009" class="edge">
<title>Node9&#45;&gt;Node7</title>
<g id="a_edge13_Node000007_Node000009"><a xlink:title=" ">
<path fill="none" stroke="#9a32cd" stroke-dasharray="5,2" d="M549.59,-518.27C543.54,-514.77 537.58,-510.66 532.57,-506 531.95,-505.42 478.19,-419.27 460.15,-390.35"/>
<polygon fill="#9a32cd" stroke="#9a32cd" points="547.88,-521.33 558.36,-522.9 551.15,-515.14 547.88,-521.33"/>
</a>
</g>
<text text-anchor="middle" x="550.7" y="-466.5" font-family="Helvetica,sans-Serif" font-size="10.00" fill="grey"> m_Root</text>
</g>
<!-- Node9&#45;&gt;Node10 -->
<g id="edge20_Node000010_Node000009" class="edge">
<title>Node9&#45;&gt;Node10</title>
<g id="a_edge20_Node000010_Node000009"><a xlink:title=" ">
<path fill="none" stroke="#9a32cd" stroke-dasharray="5,2" d="M586.23,-512.52C592.25,-461.17 600.15,-325.96 529.32,-254 519.56,-244.08 487.49,-237.01 459.99,-232.6"/>
<polygon fill="#9a32cd" stroke="#9a32cd" points="582.79,-511.81 584.98,-522.17 589.73,-512.7 582.79,-511.81"/>
</a>
</g>
<text text-anchor="middle" x="606.7" y="-376.5" font-family="Helvetica,sans-Serif" font-size="10.00" fill="grey"> m_Root</text>
</g>
<!-- Node10&#45;&gt;Node4 -->
<g id="edge25_Node000004_Node000010" class="edge">
<title>Node10&#45;&gt;Node4</title>
<g id="a_edge25_Node000004_Node000010"><a xlink:title=" ">
<path fill="none" stroke="#9a32cd" stroke-dasharray="5,2" d="M447.29,-211C464.78,-203.28 487.11,-193.72 507.32,-186 523.34,-179.88 541.04,-173.74 556.95,-168.44"/>
<polygon fill="#9a32cd" stroke="#9a32cd" points="446.19,-207.66 438.48,-214.92 449.04,-214.05 446.19,-207.66"/>
</a>
</g>
<text text-anchor="middle" x="538.82" y="-188.5" font-family="Helvetica,sans-Serif" font-size="10.00" fill="grey"> m_Subgroups</text>
</g>
<!-- Node10&#45;&gt;Node7 -->
<g id="edge14_Node000007_Node000010" class="edge">
<title>Node10&#45;&gt;Node7</title>
<g id="a_edge14_Node000007_Node000010"><a xlink:title=" ">
<path fill="none" stroke="#9a32cd" stroke-dasharray="5,2" d="M442.46,-243.56C445.6,-246.65 448.38,-250.14 450.32,-254 469.93,-292.99 461.21,-347.81 456.56,-369.57"/>
<polygon fill="#9a32cd" stroke="#9a32cd" points="444.74,-240.91 434.78,-237.3 440.32,-246.33 444.74,-240.91"/>
</a>
</g>
<text text-anchor="middle" x="493.82" y="-286.5" font-family="Helvetica,sans-Serif" font-size="10.00" fill="grey"> m_Subgroups</text>
</g>
<!-- Node10&#45;&gt;Node10 -->
<g id="edge21_Node000010_Node000010" class="edge">
<title>Node10&#45;&gt;Node10</title>
<g id="a_edge21_Node000010_Node000010"><a xlink:title=" ">
<path fill="none" stroke="#9a32cd" stroke-dasharray="5,2" d="M470.95,-230.76C475.05,-229.7 477.57,-228.11 477.57,-226 477.57,-222.35 470.03,-220.26 459.82,-219.75"/>
<polygon fill="#9a32cd" stroke="#9a32cd" points="470.76,-227.26 461.32,-232.05 471.69,-234.19 470.76,-227.26"/>
</a>
</g>
<text text-anchor="middle" x="509.07" y="-222.5" font-family="Helvetica,sans-Serif" font-size="10.00" fill="grey"> m_Subgroups</text>
</g>
</g>
</svg>
