<?xml version="1.0" encoding="UTF-8" standalone="no"?>
<!DOCTYPE svg PUBLIC "-//W3C//DTD SVG 1.1//EN"
 "http://www.w3.org/Graphics/SVG/1.1/DTD/svg11.dtd">
<!-- Generated by graphviz version 11.0.0 (20240428.1522)
 -->
<!-- Title: CanvasBag_ColorBase Pages: 1 -->
<svg width="220pt" height="196pt"
 viewBox="0.00 0.00 220.38 196.00" xmlns="http://www.w3.org/2000/svg" xmlns:xlink="http://www.w3.org/1999/xlink">
<g id="graph0" class="graph" transform="scale(1 1) rotate(0) translate(4 192)">
<title>CanvasBag_ColorBase</title>
<!-- Node1 -->
<g id="Node000001" class="node">
<title>Node1</title>
<g id="a_Node000001"><a xlink:title=" ">
<polygon fill="#999999" stroke="#666666" points="166.38,-76 51.38,-76 51.38,-56 166.38,-56 166.38,-76"/>
<text text-anchor="middle" x="108.88" y="-62.5" font-family="Helvetica,sans-Serif" font-size="10.00">CanvasBag_ColorBase</text>
</a>
</g>
</g>
<!-- Node4 -->
<g id="Node000004" class="node">
<title>Node4</title>
<g id="a_Node000004"><a xlink:href="../../d4/d0d/class_canvas_bag___medical.html" target="_top" xlink:title=" ">
<polygon fill="white" stroke="#666666" points="103.75,-20 0,-20 0,0 103.75,0 103.75,-20"/>
<text text-anchor="middle" x="51.88" y="-6.5" font-family="Helvetica,sans-Serif" font-size="10.00">CanvasBag_Medical</text>
</a>
</g>
</g>
<!-- Node1&#45;&gt;Node4 -->
<g id="edge3_Node000001_Node000004" class="edge">
<title>Node1&#45;&gt;Node4</title>
<g id="a_edge3_Node000001_Node000004"><a xlink:title=" ">
<path fill="none" stroke="#8b1a1a" d="M90.77,-47.85C81.14,-38.72 69.67,-27.86 61.69,-20.3"/>
<polygon fill="#8b1a1a" stroke="#8b1a1a" points="88.18,-50.22 97.85,-54.55 93,-45.13 88.18,-50.22"/>
</a>
</g>
</g>
<!-- Node5 -->
<g id="Node000005" class="node">
<title>Node5</title>
<g id="a_Node000005"><a xlink:href="../../d0/d0c/class_canvas_bag___olive.html" target="_top" xlink:title=" ">
<polygon fill="white" stroke="#666666" points="212.38,-20 121.38,-20 121.38,0 212.38,0 212.38,-20"/>
<text text-anchor="middle" x="166.88" y="-6.5" font-family="Helvetica,sans-Serif" font-size="10.00">CanvasBag_Olive</text>
</a>
</g>
</g>
<!-- Node1&#45;&gt;Node5 -->
<g id="edge4_Node000001_Node000005" class="edge">
<title>Node1&#45;&gt;Node5</title>
<g id="a_edge4_Node000001_Node000005"><a xlink:title=" ">
<path fill="none" stroke="#8b1a1a" d="M127.3,-47.85C137.1,-38.72 148.77,-27.86 156.89,-20.3"/>
<polygon fill="#8b1a1a" stroke="#8b1a1a" points="125.02,-45.19 120.09,-54.56 129.79,-50.31 125.02,-45.19"/>
</a>
</g>
</g>
<!-- Node2 -->
<g id="Node000002" class="node">
<title>Node2</title>
<g id="a_Node000002"><a xlink:href="../../db/d01/class_backpack___base.html" target="_top" xlink:title=" ">
<polygon fill="white" stroke="#666666" points="152.5,-132 65.25,-132 65.25,-112 152.5,-112 152.5,-132"/>
<text text-anchor="middle" x="108.88" y="-118.5" font-family="Helvetica,sans-Serif" font-size="10.00">Backpack_Base</text>
</a>
</g>
</g>
<!-- Node2&#45;&gt;Node1 -->
<g id="edge1_Node000001_Node000002" class="edge">
<title>Node2&#45;&gt;Node1</title>
<g id="a_edge1_Node000001_Node000002"><a xlink:title=" ">
<path fill="none" stroke="#8b1a1a" d="M108.88,-100.13C108.88,-91.9 108.88,-82.85 108.88,-76.3"/>
<polygon fill="#8b1a1a" stroke="#8b1a1a" points="105.38,-100.08 108.88,-110.08 112.38,-100.08 105.38,-100.08"/>
</a>
</g>
</g>
<!-- Node3 -->
<g id="Node000003" class="node">
<title>Node3</title>
<g id="a_Node000003"><a xlink:href="../../d8/d04/class_clothing.html" target="_top" xlink:title=" ">
<polygon fill="white" stroke="#666666" points="134.5,-188 83.25,-188 83.25,-168 134.5,-168 134.5,-188"/>
<text text-anchor="middle" x="108.88" y="-174.5" font-family="Helvetica,sans-Serif" font-size="10.00">Clothing</text>
</a>
</g>
</g>
<!-- Node3&#45;&gt;Node2 -->
<g id="edge2_Node000002_Node000003" class="edge">
<title>Node3&#45;&gt;Node2</title>
<g id="a_edge2_Node000002_Node000003"><a xlink:title=" ">
<path fill="none" stroke="#8b1a1a" d="M108.88,-156.13C108.88,-147.9 108.88,-138.85 108.88,-132.3"/>
<polygon fill="#8b1a1a" stroke="#8b1a1a" points="105.38,-156.08 108.88,-166.08 112.38,-156.08 105.38,-156.08"/>
</a>
</g>
</g>
</g>
</svg>
