<?xml version="1.0" encoding="UTF-8" standalone="no"?>
<!DOCTYPE svg PUBLIC "-//W3C//DTD SVG 1.1//EN"
 "http://www.w3.org/Graphics/SVG/1.1/DTD/svg11.dtd">
<!-- Generated by graphviz version 11.0.0 (20240428.1522)
 -->
<!-- Title: FishingRod_Base_New Pages: 1 -->
<svg width="323pt" height="140pt"
 viewBox="0.00 0.00 323.25 140.00" xmlns="http://www.w3.org/2000/svg" xmlns:xlink="http://www.w3.org/1999/xlink">
<g id="graph0" class="graph" transform="scale(1 1) rotate(0) translate(4 136)">
<title>FishingRod_Base_New</title>
<!-- Node1 -->
<g id="Node000001" class="node">
<title>Node1</title>
<g id="a_Node000001"><a xlink:title=" ">
<polygon fill="#999999" stroke="#666666" points="196.62,-76 80.12,-76 80.12,-56 196.62,-56 196.62,-76"/>
<text text-anchor="middle" x="138.38" y="-62.5" font-family="Helvetica,sans-Serif" font-size="10.00">FishingRod_Base_New</text>
</a>
</g>
</g>
<!-- Node3 -->
<g id="Node000003" class="node">
<title>Node3</title>
<g id="a_Node000003"><a xlink:href="../../df/d0a/class_fishing_rod.html" target="_top" xlink:title=" ">
<polygon fill="white" stroke="#666666" points="64.75,-20 0,-20 0,0 64.75,0 64.75,-20"/>
<text text-anchor="middle" x="32.38" y="-6.5" font-family="Helvetica,sans-Serif" font-size="10.00">FishingRod</text>
</a>
</g>
</g>
<!-- Node1&#45;&gt;Node3 -->
<g id="edge2_Node000001_Node000003" class="edge">
<title>Node1&#45;&gt;Node3</title>
<g id="a_edge2_Node000001_Node000003"><a xlink:title=" ">
<path fill="none" stroke="#8b1a1a" d="M109.87,-50.48C91.18,-40.96 67.27,-28.78 50.98,-20.48"/>
<polygon fill="#8b1a1a" stroke="#8b1a1a" points="108.06,-53.49 118.56,-54.91 111.24,-47.25 108.06,-53.49"/>
</a>
</g>
</g>
<!-- Node4 -->
<g id="Node000004" class="node">
<title>Node4</title>
<g id="a_Node000004"><a xlink:href="../../d9/d0b/class_improvised_fishing_rod.html" target="_top" xlink:title=" ">
<polygon fill="white" stroke="#666666" points="193.62,-20 83.12,-20 83.12,0 193.62,0 193.62,-20"/>
<text text-anchor="middle" x="138.38" y="-6.5" font-family="Helvetica,sans-Serif" font-size="10.00">ImprovisedFishingRod</text>
</a>
</g>
</g>
<!-- Node1&#45;&gt;Node4 -->
<g id="edge3_Node000001_Node000004" class="edge">
<title>Node1&#45;&gt;Node4</title>
<g id="a_edge3_Node000001_Node000004"><a xlink:title=" ">
<path fill="none" stroke="#8b1a1a" d="M138.38,-44.13C138.38,-35.9 138.38,-26.85 138.38,-20.3"/>
<polygon fill="#8b1a1a" stroke="#8b1a1a" points="134.88,-44.08 138.38,-54.08 141.88,-44.08 134.88,-44.08"/>
</a>
</g>
</g>
<!-- Node5 -->
<g id="Node000005" class="node">
<title>Node5</title>
<g id="a_Node000005"><a xlink:href="../../d7/d0f/class_obsolete_fishing_rod.html" target="_top" xlink:title=" ">
<polygon fill="white" stroke="#666666" points="315.25,-20 211.5,-20 211.5,0 315.25,0 315.25,-20"/>
<text text-anchor="middle" x="263.38" y="-6.5" font-family="Helvetica,sans-Serif" font-size="10.00">ObsoleteFishingRod</text>
</a>
</g>
</g>
<!-- Node1&#45;&gt;Node5 -->
<g id="edge4_Node000001_Node000005" class="edge">
<title>Node1&#45;&gt;Node5</title>
<g id="a_edge4_Node000001_Node000005"><a xlink:title=" ">
<path fill="none" stroke="#8b1a1a" d="M170.46,-51.14C192.72,-41.52 221.78,-28.97 241.43,-20.48"/>
<polygon fill="#8b1a1a" stroke="#8b1a1a" points="169.33,-47.81 161.54,-54.99 172.11,-54.24 169.33,-47.81"/>
</a>
</g>
</g>
<!-- Node2 -->
<g id="Node000002" class="node">
<title>Node2</title>
<g id="a_Node000002"><a xlink:href="../../de/d0a/class_item_base.html" target="_top" xlink:title=" ">
<polygon fill="white" stroke="#666666" points="167,-132 109.75,-132 109.75,-112 167,-112 167,-132"/>
<text text-anchor="middle" x="138.38" y="-118.5" font-family="Helvetica,sans-Serif" font-size="10.00">ItemBase</text>
</a>
</g>
</g>
<!-- Node2&#45;&gt;Node1 -->
<g id="edge1_Node000001_Node000002" class="edge">
<title>Node2&#45;&gt;Node1</title>
<g id="a_edge1_Node000001_Node000002"><a xlink:title=" ">
<path fill="none" stroke="#8b1a1a" d="M138.38,-100.13C138.38,-91.9 138.38,-82.85 138.38,-76.3"/>
<polygon fill="#8b1a1a" stroke="#8b1a1a" points="134.88,-100.08 138.38,-110.08 141.88,-100.08 134.88,-100.08"/>
</a>
</g>
</g>
</g>
</svg>
