<?xml version="1.0" encoding="UTF-8" standalone="no"?>
<!DOCTYPE svg PUBLIC "-//W3C//DTD SVG 1.1//EN"
 "http://www.w3.org/Graphics/SVG/1.1/DTD/svg11.dtd">
<!-- Generated by graphviz version 11.0.0 (20240428.1522)
 -->
<!-- Title: ActionCloseFence Pages: 1 -->
<svg width="290pt" height="233pt"
 viewBox="0.00 0.00 289.88 233.00" xmlns="http://www.w3.org/2000/svg" xmlns:xlink="http://www.w3.org/1999/xlink">
<g id="graph0" class="graph" transform="scale(1 1) rotate(0) translate(4 229)">
<title>ActionCloseFence</title>
<!-- Node1 -->
<g id="Node000001" class="node">
<title>Node1</title>
<g id="a_Node000001"><a xlink:title=" ">
<polygon fill="#999999" stroke="#666666" points="190.88,-20 95.38,-20 95.38,0 190.88,0 190.88,-20"/>
<text text-anchor="middle" x="143.12" y="-6.5" font-family="Helvetica,sans-Serif" font-size="10.00">ActionCloseFence</text>
</a>
</g>
</g>
<!-- Node2 -->
<g id="Node000002" class="node">
<title>Node2</title>
<g id="a_Node000002"><a xlink:href="../../d0/d0b/class_action_interact_base.html" target="_top" xlink:title=" ">
<polygon fill="white" stroke="#666666" points="143.38,-77 44.87,-77 44.87,-57 143.38,-57 143.38,-77"/>
<text text-anchor="middle" x="94.12" y="-63.5" font-family="Helvetica,sans-Serif" font-size="10.00">ActionInteractBase</text>
</a>
</g>
</g>
<!-- Node2&#45;&gt;Node1 -->
<g id="edge1_Node000001_Node000002" class="edge">
<title>Node2&#45;&gt;Node1</title>
<g id="a_edge1_Node000001_Node000002"><a xlink:title=" ">
<path fill="none" stroke="#8b1a1a" d="M109.84,-48.36C118.16,-39.02 128.04,-27.94 134.86,-20.28"/>
<polygon fill="#8b1a1a" stroke="#8b1a1a" points="107.26,-45.99 103.22,-55.79 112.49,-50.65 107.26,-45.99"/>
</a>
</g>
</g>
<!-- Node3 -->
<g id="Node000003" class="node">
<title>Node3</title>
<g id="a_Node000003"><a xlink:href="../../d7/d04/class_animated_action_base.html" target="_top" xlink:title=" ">
<polygon fill="white" stroke="#666666" points="124.88,-145 17.38,-145 17.38,-125 124.88,-125 124.88,-145"/>
<text text-anchor="middle" x="71.12" y="-131.5" font-family="Helvetica,sans-Serif" font-size="10.00">AnimatedActionBase</text>
</a>
</g>
</g>
<!-- Node3&#45;&gt;Node2 -->
<g id="edge2_Node000002_Node000003" class="edge">
<title>Node3&#45;&gt;Node2</title>
<g id="a_edge2_Node000002_Node000003"><a xlink:title=" ">
<path fill="none" stroke="#8b1a1a" d="M75.61,-113.34C77.13,-107.35 78.99,-100.85 81.12,-95 83.34,-88.94 86.46,-82.42 89.08,-77.3"/>
<polygon fill="#8b1a1a" stroke="#8b1a1a" points="72.21,-112.54 73.34,-123.07 79.02,-114.13 72.21,-112.54"/>
</a>
</g>
</g>
<!-- Node4 -->
<g id="Node000004" class="node">
<title>Node4</title>
<g id="a_Node000004"><a xlink:title=" ">
<polygon fill="white" stroke="#666666" points="66.25,-225 0,-225 0,-205 66.25,-205 66.25,-225"/>
<text text-anchor="middle" x="33.12" y="-211.5" font-family="Helvetica,sans-Serif" font-size="10.00">ActionBase</text>
</a>
</g>
</g>
<!-- Node4&#45;&gt;Node3 -->
<g id="edge3_Node000003_Node000004" class="edge">
<title>Node4&#45;&gt;Node3</title>
<g id="a_edge3_Node000003_Node000004"><a xlink:title=" ">
<path fill="none" stroke="#8b1a1a" d="M42.62,-194.51C50.29,-178.77 60.74,-157.32 66.62,-145.24"/>
<polygon fill="#8b1a1a" stroke="#8b1a1a" points="39.53,-192.86 38.3,-203.39 45.82,-195.93 39.53,-192.86"/>
</a>
</g>
</g>
<!-- Node5 -->
<g id="Node000005" class="node">
<title>Node5</title>
<g id="a_Node000005"><a xlink:href="../../db/d06/class_param3.html" target="_top" xlink:title=" ">
<polygon fill="white" stroke="#666666" points="134,-225 84.25,-225 84.25,-205 134,-205 134,-225"/>
<text text-anchor="middle" x="109.12" y="-211.5" font-family="Helvetica,sans-Serif" font-size="10.00">Param3</text>
</a>
</g>
</g>
<!-- Node5&#45;&gt;Node3 -->
<g id="edge4_Node000003_Node000005" class="edge">
<title>Node5&#45;&gt;Node3</title>
<g id="a_edge4_Node000003_Node000005"><a xlink:title=" ">
<path fill="none" stroke="#9a32cd" stroke-dasharray="5,2" d="M99.63,-194.51C91.96,-178.77 81.51,-157.32 75.63,-145.24"/>
<polygon fill="#9a32cd" stroke="#9a32cd" points="96.43,-195.93 103.95,-203.39 102.72,-192.86 96.43,-195.93"/>
</a>
</g>
<text text-anchor="middle" x="145.62" y="-177.5" font-family="Helvetica,sans-Serif" font-size="10.00" fill="grey"> m_CommandUID</text>
<text text-anchor="middle" x="145.62" y="-165.5" font-family="Helvetica,sans-Serif" font-size="10.00" fill="grey">m_CommandUIDProne</text>
</g>
<!-- Node6 -->
<g id="Node000006" class="node">
<title>Node6</title>
<g id="a_Node000006"><a xlink:href="../../d5/d02/classstring.html" target="_top" xlink:title=" ">
<polygon fill="white" stroke="#666666" points="197.12,-145 157.12,-145 157.12,-125 197.12,-125 197.12,-145"/>
<text text-anchor="middle" x="177.12" y="-131.5" font-family="Helvetica,sans-Serif" font-size="10.00">string</text>
</a>
</g>
</g>
<!-- Node6&#45;&gt;Node1 -->
<g id="edge7_Node000001_Node000006" class="edge">
<title>Node6&#45;&gt;Node1</title>
<g id="a_edge7_Node000001_Node000006"><a xlink:title=" ">
<path fill="none" stroke="#9a32cd" stroke-dasharray="5,2" d="M179.36,-113.42C179.55,-107.43 179.31,-100.92 178.12,-95 172.42,-66.5 156.84,-35.57 148.52,-20.43"/>
<polygon fill="#9a32cd" stroke="#9a32cd" points="175.89,-112.86 178.63,-123.09 182.87,-113.38 175.89,-112.86"/>
</a>
</g>
<text text-anchor="middle" x="227.5" y="-63.5" font-family="Helvetica,sans-Serif" font-size="10.00" fill="grey"> SELECTION_INTERACT</text>
</g>
<!-- Node6&#45;&gt;Node2 -->
<g id="edge5_Node000002_Node000006" class="edge">
<title>Node6&#45;&gt;Node2</title>
<g id="a_edge5_Node000002_Node000006"><a xlink:title=" ">
<path fill="none" stroke="#9a32cd" stroke-dasharray="5,2" d="M145.73,-127.63C125.23,-122.77 101.14,-115.48 94.88,-107 88.6,-98.5 89.69,-85.88 91.5,-77.31"/>
<polygon fill="#9a32cd" stroke="#9a32cd" points="144.92,-131.04 155.44,-129.81 146.45,-124.21 144.92,-131.04"/>
</a>
</g>
<text text-anchor="middle" x="136.75" y="-97.5" font-family="Helvetica,sans-Serif" font-size="10.00" fill="grey"> m_HUDCursorIcon</text>
</g>
<!-- Node6&#45;&gt;Node6 -->
<g id="edge6_Node000006_Node000006" class="edge">
<title>Node6&#45;&gt;Node6</title>
<g id="a_edge6_Node000006_Node000006"><a xlink:title=" ">
<path fill="none" stroke="#9a32cd" stroke-dasharray="5,2" d="M208.88,-140.47C212.66,-139.48 215.12,-137.65 215.12,-135 215.12,-130.15 206.89,-128.07 197.45,-128.75"/>
<polygon fill="#9a32cd" stroke="#9a32cd" points="208.7,-136.98 198.96,-141.15 209.18,-143.96 208.7,-136.98"/>
</a>
</g>
<text text-anchor="middle" x="230.88" y="-131.5" font-family="Helvetica,sans-Serif" font-size="10.00" fill="grey"> Empty</text>
</g>
</g>
</svg>
