<?xml version="1.0" encoding="UTF-8" standalone="no"?>
<!DOCTYPE svg PUBLIC "-//W3C//DTD SVG 1.1//EN"
 "http://www.w3.org/Graphics/SVG/1.1/DTD/svg11.dtd">
<!-- Generated by graphviz version 11.0.0 (20240428.1522)
 -->
<!-- Title: GardenBase Pages: 1 -->
<svg width="222pt" height="96pt"
 viewBox="0.00 0.00 221.75 96.00" xmlns="http://www.w3.org/2000/svg" xmlns:xlink="http://www.w3.org/1999/xlink">

<svg id="main" version="1.1" xmlns="http://www.w3.org/2000/svg" xmlns:xlink="http://www.w3.org/1999/xlink" xml:space="preserve" onload="init(evt)">
<style type="text/css"><![CDATA[
.node, .edge {opacity: 0.7;}
.node.selected, .edge.selected {opacity: 1;}
.edge:hover path { stroke: red; }
.edge:hover polygon { stroke: red; fill: red; }
]]></style>
<script type="application/ecmascript" xlink:href="../../svg.min.js"/>
<svg id="graph" class="graph">
<g id="graph0" class="graph" transform="scale(1 1) rotate(0) translate(4 92)">
<title>GardenBase</title>
<!-- Node1 -->
<g id="Node000001" class="node">
<title>Node1</title>
<g id="a_Node000001"><a xlink:title=" ">
<polygon fill="#999999" stroke="#666666" points="104.25,-20 34.25,-20 34.25,0 104.25,0 104.25,-20"/>
<text text-anchor="middle" x="69.25" y="-6.5" font-family="Helvetica,sans-Serif" font-size="10.00">GardenBase</text>
</a>
</g>
</g>
<!-- Node2 -->
<g id="Node000002" class="node">
<title>Node2</title>
<g id="a_Node000002"><a xlink:href="../../d8/d03/class_object.html" target="_top" xlink:title=" ">
<polygon fill="white" stroke="#666666" points="44.5,-88 0,-88 0,-68 44.5,-68 44.5,-88"/>
<text text-anchor="middle" x="22.25" y="-74.5" font-family="Helvetica,sans-Serif" font-size="10.00">Object</text>
</a>
</g>
</g>
<!-- Node2&#45;&gt;Node1 -->
<g id="edge1_Node000001_Node000002" class="edge">
<title>Node2&#45;&gt;Node1</title>
<g id="a_edge1_Node000001_Node000002"><a xlink:title=" ">
<path fill="none" stroke="#9a32cd" stroke-dasharray="5,2" d="M18.9,-56.48C18.82,-50.18 19.78,-43.48 23,-38 27.52,-30.3 35.15,-24.58 42.93,-20.44"/>
<polygon fill="#9a32cd" stroke="#9a32cd" points="15.39,-56.53 19.85,-66.14 22.35,-55.84 15.39,-56.53"/>
</a>
</g>
<text text-anchor="middle" x="58.88" y="-40.5" font-family="Helvetica,sans-Serif" font-size="10.00" fill="grey"> m_ClutterCutter</text>
</g>
<!-- Node3 -->
<g id="Node000003" class="node">
<title>Node3</title>
<g id="a_Node000003"><a xlink:href="../../db/d06/class_param3.html" target="_top" xlink:title=" ">
<polygon fill="white" stroke="#666666" points="141.12,-88 91.38,-88 91.38,-68 141.12,-68 141.12,-88"/>
<text text-anchor="middle" x="116.25" y="-74.5" font-family="Helvetica,sans-Serif" font-size="10.00">Param3</text>
</a>
</g>
</g>
<!-- Node3&#45;&gt;Node1 -->
<g id="edge2_Node000001_Node000003" class="edge">
<title>Node3&#45;&gt;Node1</title>
<g id="a_edge2_Node000001_Node000003"><a xlink:title=" ">
<path fill="none" stroke="#9a32cd" stroke-dasharray="5,2" d="M106.52,-57.68C102.96,-51.22 98.71,-44.12 94.25,-38 89.58,-31.6 83.57,-25.07 78.61,-20.03"/>
<polygon fill="#9a32cd" stroke="#9a32cd" points="103.3,-59.08 111.05,-66.31 109.5,-55.83 103.3,-59.08"/>
</a>
</g>
<text text-anchor="middle" x="157.5" y="-40.5" font-family="Helvetica,sans-Serif" font-size="10.00" fill="grey"> GARDEN_SLOT_COUNT</text>
</g>
</g>
</svg>
</svg>

<style type='text/css'>
<![CDATA[
[data-mouse-over-selected='false'] { opacity: 0.7; }
[data-mouse-over-selected='true']  { opacity: 1.0; }
]]>
</style>
<script type="application/ecmascript"><![CDATA[
document.addEventListener('DOMContentLoaded', (event) => {
  highlightEdges();
  highlightAdjacentNodes();
});
]]></script>
</svg>
