<?xml version="1.0" encoding="UTF-8" standalone="no"?>
<!DOCTYPE svg PUBLIC "-//W3C//DTD SVG 1.1//EN"
 "http://www.w3.org/Graphics/SVG/1.1/DTD/svg11.dtd">
<!-- Generated by graphviz version 11.0.0 (20240428.1522)
 -->
<!-- Title: HipPack_ColorBase Pages: 1 -->
<svg width="403pt" height="196pt"
 viewBox="0.00 0.00 403.00 196.00" xmlns="http://www.w3.org/2000/svg" xmlns:xlink="http://www.w3.org/1999/xlink">

<svg id="main" version="1.1" xmlns="http://www.w3.org/2000/svg" xmlns:xlink="http://www.w3.org/1999/xlink" xml:space="preserve" onload="init(evt)">
<style type="text/css"><![CDATA[
.node, .edge {opacity: 0.7;}
.node.selected, .edge.selected {opacity: 1;}
.edge:hover path { stroke: red; }
.edge:hover polygon { stroke: red; fill: red; }
]]></style>
<script type="application/ecmascript" xlink:href="../../svg.min.js"/>
<svg id="graph" class="graph">
<g id="graph0" class="graph" transform="scale(1 1) rotate(0) translate(4 192)">
<title>HipPack_ColorBase</title>
<!-- Node1 -->
<g id="Node000001" class="node">
<title>Node1</title>
<g id="a_Node000001"><a xlink:title=" ">
<polygon fill="#999999" stroke="#666666" points="247.88,-76 144.88,-76 144.88,-56 247.88,-56 247.88,-76"/>
<text text-anchor="middle" x="196.38" y="-62.5" font-family="Helvetica,sans-Serif" font-size="10.00">HipPack_ColorBase</text>
</a>
</g>
</g>
<!-- Node4 -->
<g id="Node000004" class="node">
<title>Node4</title>
<g id="a_Node000004"><a xlink:href="../../d9/d0d/class_hip_pack___black.html" target="_top" xlink:title=" ">
<polygon fill="white" stroke="#666666" points="82.75,-20 0,-20 0,0 82.75,0 82.75,-20"/>
<text text-anchor="middle" x="41.38" y="-6.5" font-family="Helvetica,sans-Serif" font-size="10.00">HipPack_Black</text>
</a>
</g>
</g>
<!-- Node1&#45;&gt;Node4 -->
<g id="edge3_Node000001_Node000004" class="edge">
<title>Node1&#45;&gt;Node4</title>
<g id="a_edge3_Node000001_Node000004"><a xlink:title=" ">
<path fill="none" stroke="#8b1a1a" d="M158.83,-51.92C130.97,-42.21 93.62,-29.2 68.58,-20.48"/>
<polygon fill="#8b1a1a" stroke="#8b1a1a" points="157.35,-55.11 167.95,-55.1 159.65,-48.5 157.35,-55.11"/>
</a>
</g>
</g>
<!-- Node5 -->
<g id="Node000005" class="node">
<title>Node5</title>
<g id="a_Node000005"><a xlink:href="../../d1/d06/class_hip_pack___green.html" target="_top" xlink:title=" ">
<polygon fill="white" stroke="#666666" points="185.5,-20 101.25,-20 101.25,0 185.5,0 185.5,-20"/>
<text text-anchor="middle" x="143.38" y="-6.5" font-family="Helvetica,sans-Serif" font-size="10.00">HipPack_Green</text>
</a>
</g>
</g>
<!-- Node1&#45;&gt;Node5 -->
<g id="edge4_Node000001_Node000005" class="edge">
<title>Node1&#45;&gt;Node5</title>
<g id="a_edge4_Node000001_Node000005"><a xlink:title=" ">
<path fill="none" stroke="#8b1a1a" d="M179.26,-47.57C170.36,-38.5 159.84,-27.78 152.5,-20.3"/>
<polygon fill="#8b1a1a" stroke="#8b1a1a" points="176.58,-49.83 186.08,-54.51 181.58,-44.93 176.58,-49.83"/>
</a>
</g>
</g>
<!-- Node6 -->
<g id="Node000006" class="node">
<title>Node6</title>
<g id="a_Node000006"><a xlink:href="../../dc/d0c/class_hip_pack___medical.html" target="_top" xlink:title=" ">
<polygon fill="white" stroke="#666666" points="295.25,-20 203.5,-20 203.5,0 295.25,0 295.25,-20"/>
<text text-anchor="middle" x="249.38" y="-6.5" font-family="Helvetica,sans-Serif" font-size="10.00">HipPack_Medical</text>
</a>
</g>
</g>
<!-- Node1&#45;&gt;Node6 -->
<g id="edge5_Node000001_Node000006" class="edge">
<title>Node1&#45;&gt;Node6</title>
<g id="a_edge5_Node000001_Node000006"><a xlink:title=" ">
<path fill="none" stroke="#8b1a1a" d="M213.49,-47.57C222.39,-38.5 232.91,-27.78 240.25,-20.3"/>
<polygon fill="#8b1a1a" stroke="#8b1a1a" points="211.17,-44.93 206.67,-54.51 216.17,-49.83 211.17,-44.93"/>
</a>
</g>
</g>
<!-- Node7 -->
<g id="Node000007" class="node">
<title>Node7</title>
<g id="a_Node000007"><a xlink:href="../../d8/d03/class_hip_pack___party.html" target="_top" xlink:title=" ">
<polygon fill="white" stroke="#666666" points="395,-20 313.75,-20 313.75,0 395,0 395,-20"/>
<text text-anchor="middle" x="354.38" y="-6.5" font-family="Helvetica,sans-Serif" font-size="10.00">HipPack_Party</text>
</a>
</g>
</g>
<!-- Node1&#45;&gt;Node7 -->
<g id="edge6_Node000001_Node000007" class="edge">
<title>Node1&#45;&gt;Node7</title>
<g id="a_edge6_Node000001_Node000007"><a xlink:title=" ">
<path fill="none" stroke="#8b1a1a" d="M234.64,-51.92C263.05,-42.21 301.12,-29.2 326.64,-20.48"/>
<polygon fill="#8b1a1a" stroke="#8b1a1a" points="233.66,-48.56 225.33,-55.1 235.92,-55.18 233.66,-48.56"/>
</a>
</g>
</g>
<!-- Node2 -->
<g id="Node000002" class="node">
<title>Node2</title>
<g id="a_Node000002"><a xlink:href="../../d6/d01/class_belt___base.html" target="_top" xlink:title=" ">
<polygon fill="white" stroke="#666666" points="226.88,-132 165.88,-132 165.88,-112 226.88,-112 226.88,-132"/>
<text text-anchor="middle" x="196.38" y="-118.5" font-family="Helvetica,sans-Serif" font-size="10.00">Belt_Base</text>
</a>
</g>
</g>
<!-- Node2&#45;&gt;Node1 -->
<g id="edge1_Node000001_Node000002" class="edge">
<title>Node2&#45;&gt;Node1</title>
<g id="a_edge1_Node000001_Node000002"><a xlink:title=" ">
<path fill="none" stroke="#8b1a1a" d="M196.38,-100.13C196.38,-91.9 196.38,-82.85 196.38,-76.3"/>
<polygon fill="#8b1a1a" stroke="#8b1a1a" points="192.88,-100.08 196.38,-110.08 199.88,-100.08 192.88,-100.08"/>
</a>
</g>
</g>
<!-- Node3 -->
<g id="Node000003" class="node">
<title>Node3</title>
<g id="a_Node000003"><a xlink:href="../../d8/d04/class_clothing.html" target="_top" xlink:title=" ">
<polygon fill="white" stroke="#666666" points="222,-188 170.75,-188 170.75,-168 222,-168 222,-188"/>
<text text-anchor="middle" x="196.38" y="-174.5" font-family="Helvetica,sans-Serif" font-size="10.00">Clothing</text>
</a>
</g>
</g>
<!-- Node3&#45;&gt;Node2 -->
<g id="edge2_Node000002_Node000003" class="edge">
<title>Node3&#45;&gt;Node2</title>
<g id="a_edge2_Node000002_Node000003"><a xlink:title=" ">
<path fill="none" stroke="#8b1a1a" d="M196.38,-156.13C196.38,-147.9 196.38,-138.85 196.38,-132.3"/>
<polygon fill="#8b1a1a" stroke="#8b1a1a" points="192.88,-156.08 196.38,-166.08 199.88,-156.08 192.88,-156.08"/>
</a>
</g>
</g>
</g>
</svg>
</svg>

<style type='text/css'>
<![CDATA[
[data-mouse-over-selected='false'] { opacity: 0.7; }
[data-mouse-over-selected='true']  { opacity: 1.0; }
]]>
</style>
<script type="application/ecmascript"><![CDATA[
document.addEventListener('DOMContentLoaded', (event) => {
  highlightEdges();
  highlightAdjacentNodes();
});
]]></script>
</svg>
