<?xml version="1.0" encoding="UTF-8" standalone="no"?>
<!DOCTYPE svg PUBLIC "-//W3C//DTD SVG 1.1//EN"
 "http://www.w3.org/Graphics/SVG/1.1/DTD/svg11.dtd">
<!-- Generated by graphviz version 11.0.0 (20240428.1522)
 -->
<!-- Title: ShockHandler Pages: 1 -->
<svg width="343pt" height="348pt"
 viewBox="0.00 0.00 342.75 348.00" xmlns="http://www.w3.org/2000/svg" xmlns:xlink="http://www.w3.org/1999/xlink">
<g id="graph0" class="graph" transform="scale(1 1) rotate(0) translate(4 344)">
<title>ShockHandler</title>
<!-- Node1 -->
<g id="Node000001" class="node">
<title>Node1</title>
<g id="a_Node000001"><a xlink:title=" ">
<polygon fill="#999999" stroke="#666666" points="201.38,-20 124.62,-20 124.62,0 201.38,0 201.38,-20"/>
<text text-anchor="middle" x="163" y="-6.5" font-family="Helvetica,sans-Serif" font-size="10.00">ShockHandler</text>
</a>
</g>
</g>
<!-- Node2 -->
<g id="Node000002" class="node">
<title>Node2</title>
<g id="a_Node000002"><a xlink:href="../../d4/d03/classfloat.html" target="_top" xlink:title=" ">
<polygon fill="white" stroke="#666666" points="34,-216 0,-216 0,-196 34,-196 34,-216"/>
<text text-anchor="middle" x="17" y="-202.5" font-family="Helvetica,sans-Serif" font-size="10.00">float</text>
</a>
</g>
</g>
<!-- Node2&#45;&gt;Node1 -->
<g id="edge1_Node000001_Node000002" class="edge">
<title>Node2&#45;&gt;Node1</title>
<g id="a_edge1_Node000001_Node000002"><a xlink:title=" ">
<path fill="none" stroke="#9a32cd" stroke-dasharray="5,2" d="M11.74,-184.52C4.14,-149.73 -5.31,-78.88 31,-38 43.16,-24.32 89.78,-17.27 124.19,-13.86"/>
<polygon fill="#9a32cd" stroke="#9a32cd" points="8.3,-185.19 14.02,-194.12 15.11,-183.58 8.3,-185.19"/>
</a>
</g>
<text text-anchor="middle" x="92.5" y="-160.5" font-family="Helvetica,sans-Serif" font-size="10.00" fill="grey"> PULSE_AMPLITUDE</text>
<text text-anchor="middle" x="92.5" y="-148.5" font-family="Helvetica,sans-Serif" font-size="10.00" fill="grey">PULSE_PERIOD</text>
<text text-anchor="middle" x="92.5" y="-136.5" font-family="Helvetica,sans-Serif" font-size="10.00" fill="grey">UPDATE_THRESHOLD</text>
<text text-anchor="middle" x="92.5" y="-124.5" font-family="Helvetica,sans-Serif" font-size="10.00" fill="grey">VALUE_CHECK_INTERVAL</text>
<text text-anchor="middle" x="92.5" y="-112.5" font-family="Helvetica,sans-Serif" font-size="10.00" fill="grey">m_CumulatedShock</text>
<text text-anchor="middle" x="92.5" y="-100.5" font-family="Helvetica,sans-Serif" font-size="10.00" fill="grey">m_LerpRes</text>
<text text-anchor="middle" x="92.5" y="-88.5" font-family="Helvetica,sans-Serif" font-size="10.00" fill="grey">m_PrevVignette</text>
<text text-anchor="middle" x="92.5" y="-76.5" font-family="Helvetica,sans-Serif" font-size="10.00" fill="grey">m_PulseTimer</text>
<text text-anchor="middle" x="92.5" y="-64.5" font-family="Helvetica,sans-Serif" font-size="10.00" fill="grey">m_Shock</text>
<text text-anchor="middle" x="92.5" y="-52.5" font-family="Helvetica,sans-Serif" font-size="10.00" fill="grey">m_ShockMultiplier</text>
<text text-anchor="middle" x="92.5" y="-40.5" font-family="Helvetica,sans-Serif" font-size="10.00" fill="grey">...</text>
</g>
<!-- Node2&#45;&gt;Node2 -->
<g id="edge2_Node000002_Node000002" class="edge">
<title>Node2&#45;&gt;Node2</title>
<g id="a_edge2_Node000002_Node000002"><a xlink:title=" ">
<path fill="none" stroke="#9a32cd" stroke-dasharray="5,2" d="M41.2,-218.23C47.37,-217.43 52,-213.35 52,-206 52,-194.53 40.72,-191.03 29.92,-195.51"/>
<polygon fill="#9a32cd" stroke="#9a32cd" points="41.84,-214.78 31.42,-216.72 40.77,-221.7 41.84,-214.78"/>
</a>
</g>
<text text-anchor="middle" x="74.12" y="-214.5" font-family="Helvetica,sans-Serif" font-size="10.00" fill="grey"> LOWEST</text>
<text text-anchor="middle" x="74.12" y="-202.5" font-family="Helvetica,sans-Serif" font-size="10.00" fill="grey">MAX</text>
<text text-anchor="middle" x="74.12" y="-190.5" font-family="Helvetica,sans-Serif" font-size="10.00" fill="grey">MIN</text>
</g>
<!-- Node3 -->
<g id="Node000003" class="node">
<title>Node3</title>
<g id="a_Node000003"><a xlink:href="../../d5/d08/class_player_base.html" target="_top" xlink:title=" ">
<polygon fill="white" stroke="#666666" points="191.12,-216 124.88,-216 124.88,-196 191.12,-196 191.12,-216"/>
<text text-anchor="middle" x="158" y="-202.5" font-family="Helvetica,sans-Serif" font-size="10.00">PlayerBase</text>
</a>
</g>
</g>
<!-- Node3&#45;&gt;Node1 -->
<g id="edge3_Node000001_Node000003" class="edge">
<title>Node3&#45;&gt;Node1</title>
<g id="a_edge3_Node000001_Node000003"><a xlink:title=" ">
<path fill="none" stroke="#9a32cd" stroke-dasharray="5,2" d="M158.54,-184.23C159.61,-142.48 162,-49.83 162.76,-20.26"/>
<polygon fill="#9a32cd" stroke="#9a32cd" points="155.04,-184.04 158.28,-194.13 162.04,-184.22 155.04,-184.04"/>
</a>
</g>
<text text-anchor="middle" x="184.12" y="-100.5" font-family="Helvetica,sans-Serif" font-size="10.00" fill="grey"> m_Player</text>
</g>
<!-- Node4 -->
<g id="Node000004" class="node">
<title>Node4</title>
<g id="a_Node000004"><a xlink:href="../../dd/d03/class_scripted_light_base.html" target="_top" xlink:title=" ">
<polygon fill="white" stroke="#666666" points="155.75,-340 60.25,-340 60.25,-320 155.75,-320 155.75,-340"/>
<text text-anchor="middle" x="108" y="-326.5" font-family="Helvetica,sans-Serif" font-size="10.00">ScriptedLightBase</text>
</a>
</g>
</g>
<!-- Node4&#45;&gt;Node3 -->
<g id="edge4_Node000003_Node000004" class="edge">
<title>Node4&#45;&gt;Node3</title>
<g id="a_edge4_Node000003_Node000004"><a xlink:title=" ">
<path fill="none" stroke="#9a32cd" stroke-dasharray="5,2" d="M101.89,-308.74C97.52,-290.22 94.17,-262.66 105.25,-242 111.43,-230.48 123.27,-222.1 134.16,-216.44"/>
<polygon fill="#9a32cd" stroke="#9a32cd" points="98.46,-309.47 104.45,-318.22 105.22,-307.65 98.46,-309.47"/>
</a>
</g>
<text text-anchor="middle" x="142.88" y="-268.5" font-family="Helvetica,sans-Serif" font-size="10.00" fill="grey"> m_PersonalLight</text>
</g>
<!-- Node5 -->
<g id="Node000005" class="node">
<title>Node5</title>
<g id="a_Node000005"><a xlink:href="../../d9/d09/classbool.html" target="_top" xlink:title=" ">
<polygon fill="white" stroke="#666666" points="224,-340 190,-340 190,-320 224,-320 224,-340"/>
<text text-anchor="middle" x="207" y="-326.5" font-family="Helvetica,sans-Serif" font-size="10.00">bool</text>
</a>
</g>
</g>
<!-- Node5&#45;&gt;Node3 -->
<g id="edge5_Node000003_Node000005" class="edge">
<title>Node5&#45;&gt;Node3</title>
<g id="a_edge5_Node000003_Node000005"><a xlink:title=" ">
<path fill="none" stroke="#9a32cd" stroke-dasharray="5,2" d="M204.23,-308.43C201.23,-290.27 195.41,-263.41 185,-242 180.37,-232.47 172.89,-223.05 166.97,-216.38"/>
<polygon fill="#9a32cd" stroke="#9a32cd" points="200.75,-308.81 205.69,-318.19 207.67,-307.78 200.75,-308.81"/>
</a>
</g>
<text text-anchor="start" x="202" y="-292.5" font-family="Helvetica,sans-Serif" font-size="10.00" fill="grey"> m_PersonalLightDisabledBy</text>
<text text-anchor="middle" x="268.38" y="-280.5" font-family="Helvetica,sans-Serif" font-size="10.00" fill="grey">Debug</text>
<text text-anchor="start" x="202" y="-268.5" font-family="Helvetica,sans-Serif" font-size="10.00" fill="grey">m_PersonalLightEnabledOn</text>
<text text-anchor="middle" x="268.38" y="-256.5" font-family="Helvetica,sans-Serif" font-size="10.00" fill="grey">CurrentServer</text>
<text text-anchor="middle" x="268.38" y="-244.5" font-family="Helvetica,sans-Serif" font-size="10.00" fill="grey">m_PersonalLightIsSwitchedOn</text>
</g>
<!-- Node6 -->
<g id="Node000006" class="node">
<title>Node6</title>
<g id="a_Node000006"><a xlink:href="../../db/d06/class_param3.html" target="_top" xlink:title=" ">
<polygon fill="white" stroke="#666666" points="258.88,-216 209.12,-216 209.12,-196 258.88,-196 258.88,-216"/>
<text text-anchor="middle" x="234" y="-202.5" font-family="Helvetica,sans-Serif" font-size="10.00">Param3</text>
</a>
</g>
</g>
<!-- Node6&#45;&gt;Node1 -->
<g id="edge6_Node000001_Node000006" class="edge">
<title>Node6&#45;&gt;Node1</title>
<g id="a_edge6_Node000001_Node000006"><a xlink:title=" ">
<path fill="none" stroke="#9a32cd" stroke-dasharray="5,2" d="M236.45,-184.6C239.39,-150.97 240.62,-83.14 210,-38 204.82,-30.37 196.72,-24.62 188.69,-20.44"/>
<polygon fill="#9a32cd" stroke="#9a32cd" points="233,-183.88 235.45,-194.19 239.97,-184.6 233,-183.88"/>
</a>
</g>
<text text-anchor="middle" x="285" y="-118.5" font-family="Helvetica,sans-Serif" font-size="10.00" fill="grey"> HEAVY_SHOCK_HIT</text>
<text text-anchor="middle" x="285" y="-106.5" font-family="Helvetica,sans-Serif" font-size="10.00" fill="grey">INTENSITY_FACTOR</text>
<text text-anchor="middle" x="285" y="-94.5" font-family="Helvetica,sans-Serif" font-size="10.00" fill="grey">LIGHT_SHOCK_HIT</text>
<text text-anchor="middle" x="285" y="-82.5" font-family="Helvetica,sans-Serif" font-size="10.00" fill="grey">MID_SHOCK_HIT</text>
</g>
</g>
</svg>
