<?xml version="1.0" encoding="UTF-8" standalone="no"?>
<!DOCTYPE svg PUBLIC "-//W3C//DTD SVG 1.1//EN"
 "http://www.w3.org/Graphics/SVG/1.1/DTD/svg11.dtd">
<!-- Generated by graphviz version 11.0.0 (20240428.1522)
 -->
<!-- Title: StatsEventScoredKillData Pages: 1 -->
<svg width="304pt" height="136pt"
 viewBox="0.00 0.00 304.25 136.00" xmlns="http://www.w3.org/2000/svg" xmlns:xlink="http://www.w3.org/1999/xlink">
<g id="graph0" class="graph" transform="scale(1 1) rotate(0) translate(4 132)">
<title>StatsEventScoredKillData</title>
<!-- Node1 -->
<g id="Node000001" class="node">
<title>Node1</title>
<g id="a_Node000001"><a xlink:title=" ">
<polygon fill="#999999" stroke="#666666" points="195.88,-20 68.12,-20 68.12,0 195.88,0 195.88,-20"/>
<text text-anchor="middle" x="132" y="-6.5" font-family="Helvetica,sans-Serif" font-size="10.00">StatsEventScoredKillData</text>
</a>
</g>
</g>
<!-- Node2 -->
<g id="Node000002" class="node">
<title>Node2</title>
<g id="a_Node000002"><a xlink:href="../../d5/d02/classstring.html" target="_top" xlink:title=" ">
<polygon fill="white" stroke="#666666" points="40,-114 0,-114 0,-94 40,-94 40,-114"/>
<text text-anchor="middle" x="20" y="-100.5" font-family="Helvetica,sans-Serif" font-size="10.00">string</text>
</a>
</g>
</g>
<!-- Node2&#45;&gt;Node1 -->
<g id="edge1_Node000001_Node000002" class="edge">
<title>Node2&#45;&gt;Node1</title>
<g id="a_edge1_Node000001_Node000002"><a xlink:title=" ">
<path fill="none" stroke="#9a32cd" stroke-dasharray="5,2" d="M25.71,-82.88C30.74,-68.54 39.41,-49.8 53,-38 62.19,-30.02 73.86,-24.36 85.38,-20.37"/>
<polygon fill="#9a32cd" stroke="#9a32cd" points="22.45,-81.6 22.77,-92.19 29.12,-83.71 22.45,-81.6"/>
</a>
</g>
<text text-anchor="middle" x="90.5" y="-52.5" font-family="Helvetica,sans-Serif" font-size="10.00" fill="grey"> m_CharacterId</text>
<text text-anchor="middle" x="90.5" y="-40.5" font-family="Helvetica,sans-Serif" font-size="10.00" fill="grey">m_WeaponName</text>
</g>
<!-- Node2&#45;&gt;Node2 -->
<g id="edge2_Node000002_Node000002" class="edge">
<title>Node2&#45;&gt;Node2</title>
<g id="a_edge2_Node000002_Node000002"><a xlink:title=" ">
<path fill="none" stroke="#9a32cd" stroke-dasharray="5,2" d="M51.76,-112.69C55.54,-111.11 58,-108.21 58,-104 58,-96.3 49.76,-92.99 40.33,-94.08"/>
<polygon fill="#9a32cd" stroke="#9a32cd" points="51.4,-109.21 41.83,-113.76 52.15,-116.17 51.4,-109.21"/>
</a>
</g>
<text text-anchor="middle" x="73.75" y="-100.5" font-family="Helvetica,sans-Serif" font-size="10.00" fill="grey"> Empty</text>
</g>
<!-- Node3 -->
<g id="Node000003" class="node">
<title>Node3</title>
<g id="a_Node000003"><a xlink:href="../../db/d06/class_param3.html" target="_top" xlink:title=" ">
<polygon fill="white" stroke="#666666" points="156.88,-114 107.12,-114 107.12,-94 156.88,-94 156.88,-114"/>
<text text-anchor="middle" x="132" y="-100.5" font-family="Helvetica,sans-Serif" font-size="10.00">Param3</text>
</a>
</g>
</g>
<!-- Node3&#45;&gt;Node1 -->
<g id="edge3_Node000001_Node000003" class="edge">
<title>Node3&#45;&gt;Node1</title>
<g id="a_edge3_Node000001_Node000003"><a xlink:title=" ">
<path fill="none" stroke="#9a32cd" stroke-dasharray="5,2" d="M132,-82.23C132,-62.82 132,-34.73 132,-20.31"/>
<polygon fill="#9a32cd" stroke="#9a32cd" points="128.5,-81.99 132,-91.99 135.5,-81.99 128.5,-81.99"/>
</a>
</g>
<text text-anchor="middle" x="166.12" y="-46.5" font-family="Helvetica,sans-Serif" font-size="10.00" fill="grey"> m_KillDistance</text>
</g>
<!-- Node4 -->
<g id="Node000004" class="node">
<title>Node4</title>
<g id="a_Node000004"><a xlink:href="../../d7/d0c/classvector.html" target="_top" xlink:title=" ">
<polygon fill="white" stroke="#666666" points="243.75,-114 202.25,-114 202.25,-94 243.75,-94 243.75,-114"/>
<text text-anchor="middle" x="223" y="-100.5" font-family="Helvetica,sans-Serif" font-size="10.00">vector</text>
</a>
</g>
</g>
<!-- Node4&#45;&gt;Node1 -->
<g id="edge4_Node000001_Node000004" class="edge">
<title>Node4&#45;&gt;Node1</title>
<g id="a_edge4_Node000001_Node000004"><a xlink:title=" ">
<path fill="none" stroke="#9a32cd" stroke-dasharray="5,2" d="M220.68,-82.72C218.08,-68.57 212.58,-50.13 201,-38 193.45,-30.09 183.31,-24.46 173.13,-20.46"/>
<polygon fill="#9a32cd" stroke="#9a32cd" points="217.17,-82.89 222.08,-92.28 224.09,-81.88 217.17,-82.89"/>
</a>
</g>
<text text-anchor="middle" x="253.25" y="-52.5" font-family="Helvetica,sans-Serif" font-size="10.00" fill="grey"> m_PositionKiller</text>
<text text-anchor="middle" x="253.25" y="-40.5" font-family="Helvetica,sans-Serif" font-size="10.00" fill="grey">m_PositionVictim</text>
</g>
<!-- Node4&#45;&gt;Node4 -->
<g id="edge5_Node000004_Node000004" class="edge">
<title>Node4&#45;&gt;Node4</title>
<g id="a_edge5_Node000004_Node000004"><a xlink:title=" ">
<path fill="none" stroke="#9a32cd" stroke-dasharray="5,2" d="M255.54,-112.63C259.31,-111.03 261.75,-108.15 261.75,-104 261.75,-96.41 253.58,-93.08 244.13,-94.03"/>
<polygon fill="#9a32cd" stroke="#9a32cd" points="255.15,-109.15 245.63,-113.79 255.97,-116.1 255.15,-109.15"/>
</a>
</g>
<text text-anchor="middle" x="279" y="-118.5" font-family="Helvetica,sans-Serif" font-size="10.00" fill="grey"> Aside</text>
<text text-anchor="middle" x="279" y="-106.5" font-family="Helvetica,sans-Serif" font-size="10.00" fill="grey">Forward</text>
<text text-anchor="middle" x="279" y="-94.5" font-family="Helvetica,sans-Serif" font-size="10.00" fill="grey">Up</text>
<text text-anchor="middle" x="279" y="-82.5" font-family="Helvetica,sans-Serif" font-size="10.00" fill="grey">Zero</text>
</g>
</g>
</svg>
