<?xml version="1.0" encoding="UTF-8" standalone="no"?>
<!DOCTYPE svg PUBLIC "-//W3C//DTD SVG 1.1//EN"
 "http://www.w3.org/Graphics/SVG/1.1/DTD/svg11.dtd">
<!-- Generated by graphviz version 11.0.0 (20240428.1522)
 -->
<!-- Title: ActionMineRock Pages: 1 -->
<svg width="123pt" height="308pt"
 viewBox="0.00 0.00 123.00 308.00" xmlns="http://www.w3.org/2000/svg" xmlns:xlink="http://www.w3.org/1999/xlink">
<g id="graph0" class="graph" transform="scale(1 1) rotate(0) translate(4 304)">
<title>ActionMineRock</title>
<!-- Node1 -->
<g id="Node000001" class="node">
<title>Node1</title>
<g id="a_Node000001"><a xlink:title=" ">
<polygon fill="#999999" stroke="#666666" points="101.12,-76 13.88,-76 13.88,-56 101.12,-56 101.12,-76"/>
<text text-anchor="middle" x="57.5" y="-62.5" font-family="Helvetica,sans-Serif" font-size="10.00">ActionMineRock</text>
</a>
</g>
</g>
<!-- Node6 -->
<g id="Node000006" class="node">
<title>Node6</title>
<g id="a_Node000006"><a xlink:href="../../d3/d0b/class_action_mine_rock1_h.html" target="_top" xlink:title=" ">
<polygon fill="white" stroke="#666666" points="107.12,-20 7.88,-20 7.88,0 107.12,0 107.12,-20"/>
<text text-anchor="middle" x="57.5" y="-6.5" font-family="Helvetica,sans-Serif" font-size="10.00">ActionMineRock1H</text>
</a>
</g>
</g>
<!-- Node1&#45;&gt;Node6 -->
<g id="edge5_Node000001_Node000006" class="edge">
<title>Node1&#45;&gt;Node6</title>
<g id="a_edge5_Node000001_Node000006"><a xlink:title=" ">
<path fill="none" stroke="#8b1a1a" d="M57.5,-44.13C57.5,-35.9 57.5,-26.85 57.5,-20.3"/>
<polygon fill="#8b1a1a" stroke="#8b1a1a" points="54,-44.08 57.5,-54.08 61,-44.08 54,-44.08"/>
</a>
</g>
</g>
<!-- Node2 -->
<g id="Node000002" class="node">
<title>Node2</title>
<g id="a_Node000002"><a xlink:href="../../de/d0e/class_action_mine_base.html" target="_top" xlink:title=" ">
<polygon fill="white" stroke="#666666" points="101.12,-132 13.88,-132 13.88,-112 101.12,-112 101.12,-132"/>
<text text-anchor="middle" x="57.5" y="-118.5" font-family="Helvetica,sans-Serif" font-size="10.00">ActionMineBase</text>
</a>
</g>
</g>
<!-- Node2&#45;&gt;Node1 -->
<g id="edge1_Node000001_Node000002" class="edge">
<title>Node2&#45;&gt;Node1</title>
<g id="a_edge1_Node000001_Node000002"><a xlink:title=" ">
<path fill="none" stroke="#8b1a1a" d="M57.5,-100.13C57.5,-91.9 57.5,-82.85 57.5,-76.3"/>
<polygon fill="#8b1a1a" stroke="#8b1a1a" points="54,-100.08 57.5,-110.08 61,-100.08 54,-100.08"/>
</a>
</g>
</g>
<!-- Node3 -->
<g id="Node000003" class="node">
<title>Node3</title>
<g id="a_Node000003"><a xlink:href="../../d6/d0f/class_action_continuous_base.html" target="_top" xlink:title=" ">
<polygon fill="white" stroke="#666666" points="115,-188 0,-188 0,-168 115,-168 115,-188"/>
<text text-anchor="middle" x="57.5" y="-174.5" font-family="Helvetica,sans-Serif" font-size="10.00">ActionContinuousBase</text>
</a>
</g>
</g>
<!-- Node3&#45;&gt;Node2 -->
<g id="edge2_Node000002_Node000003" class="edge">
<title>Node3&#45;&gt;Node2</title>
<g id="a_edge2_Node000002_Node000003"><a xlink:title=" ">
<path fill="none" stroke="#8b1a1a" d="M57.5,-156.13C57.5,-147.9 57.5,-138.85 57.5,-132.3"/>
<polygon fill="#8b1a1a" stroke="#8b1a1a" points="54,-156.08 57.5,-166.08 61,-156.08 54,-156.08"/>
</a>
</g>
</g>
<!-- Node4 -->
<g id="Node000004" class="node">
<title>Node4</title>
<g id="a_Node000004"><a xlink:href="../../d7/d04/class_animated_action_base.html" target="_top" xlink:title=" ">
<polygon fill="white" stroke="#666666" points="111.25,-244 3.75,-244 3.75,-224 111.25,-224 111.25,-244"/>
<text text-anchor="middle" x="57.5" y="-230.5" font-family="Helvetica,sans-Serif" font-size="10.00">AnimatedActionBase</text>
</a>
</g>
</g>
<!-- Node4&#45;&gt;Node3 -->
<g id="edge3_Node000003_Node000004" class="edge">
<title>Node4&#45;&gt;Node3</title>
<g id="a_edge3_Node000003_Node000004"><a xlink:title=" ">
<path fill="none" stroke="#8b1a1a" d="M57.5,-212.13C57.5,-203.9 57.5,-194.85 57.5,-188.3"/>
<polygon fill="#8b1a1a" stroke="#8b1a1a" points="54,-212.08 57.5,-222.08 61,-212.08 54,-212.08"/>
</a>
</g>
</g>
<!-- Node5 -->
<g id="Node000005" class="node">
<title>Node5</title>
<g id="a_Node000005"><a xlink:title=" ">
<polygon fill="white" stroke="#666666" points="90.62,-300 24.38,-300 24.38,-280 90.62,-280 90.62,-300"/>
<text text-anchor="middle" x="57.5" y="-286.5" font-family="Helvetica,sans-Serif" font-size="10.00">ActionBase</text>
</a>
</g>
</g>
<!-- Node5&#45;&gt;Node4 -->
<g id="edge4_Node000004_Node000005" class="edge">
<title>Node5&#45;&gt;Node4</title>
<g id="a_edge4_Node000004_Node000005"><a xlink:title=" ">
<path fill="none" stroke="#8b1a1a" d="M57.5,-268.13C57.5,-259.9 57.5,-250.85 57.5,-244.3"/>
<polygon fill="#8b1a1a" stroke="#8b1a1a" points="54,-268.08 57.5,-278.08 61,-268.08 54,-268.08"/>
</a>
</g>
</g>
</g>
</svg>
