<?xml version="1.0" encoding="UTF-8" standalone="no"?>
<!DOCTYPE svg PUBLIC "-//W3C//DTD SVG 1.1//EN"
 "http://www.w3.org/Graphics/SVG/1.1/DTD/svg11.dtd">
<!-- Generated by graphviz version 11.0.0 (20240428.1522)
 -->
<!-- Title: MoveEquipToExistingItemAndDestroyOldRootLambda Pages: 1 -->
<!--zoomable 454 -->

<svg id="main" version="1.1" xmlns="http://www.w3.org/2000/svg" xmlns:xlink="http://www.w3.org/1999/xlink" xml:space="preserve" onload="init(evt)">
<style type="text/css"><![CDATA[
.node, .edge {opacity: 0.7;}
.node.selected, .edge.selected {opacity: 1;}
.edge:hover path { stroke: red; }
.edge:hover polygon { stroke: red; fill: red; }
]]></style>

<defs>
  <circle id="rim" cx="0" cy="0" r="7"/>
  <circle id="rim2" cx="0" cy="0" r="3.5"/>
  <g id="zoomPlus">
    <use xlink:href="#rim" fill="#404040"><set attributeName="fill" to="#808080" begin="zoomplus.mouseover" end="zoomplus.mouseout"/></use>
    <path d="M-4,0h8M0,-4v8" fill="none" stroke="white" stroke-width="1.5" pointer-events="none"/>
  </g>
  <g id="zoomMin">
    <use xlink:href="#rim" fill="#404040"><set attributeName="fill" to="#808080" begin="zoomminus.mouseover" end="zoomminus.mouseout"/></use>
    <path d="M-4,0h8" fill="none" stroke="white" stroke-width="1.5" pointer-events="none"/>
  </g>
  <g id="arrowUp" transform="translate(30 24)">
    <use xlink:href="#rim"/>
    <path pointer-events="none" fill="none" stroke="white" stroke-width="1.5" d="M0,-3.0v7 M-2.5,-0.5L0,-3.0L2.5,-0.5"/>
  </g>
  <g id="arrowRight" transform="rotate(90) translate(36 -43)">
    <use xlink:href="#rim"/>
    <path pointer-events="none" fill="none" stroke="white" stroke-width="1.5" d="M0,-3.0v7 M-2.5,-0.5L0,-3.0L2.5,-0.5"/>
  </g>
  <g id="arrowDown" transform="rotate(180) translate(-30 -48)">
    <use xlink:href="#rim"/>
    <path pointer-events="none" fill="none" stroke="white" stroke-width="1.5" d="M0,-3.0v7 M-2.5,-0.5L0,-3.0L2.5,-0.5"/>
  </g>
  <g id="arrowLeft" transform="rotate(270) translate(-36 17)">
    <use xlink:href="#rim"/>
    <path pointer-events="none" fill="none" stroke="white" stroke-width="1.5" d="M0,-3.0v7 M-2.5,-0.5L0,-3.0L2.5,-0.5"/>
  </g>
  <g id="resetDef">
    <use xlink:href="#rim2" fill="#404040"><set attributeName="fill" to="#808080" begin="reset.mouseover" end="reset.mouseout"/></use>
  </g>
</defs>
<script type="application/ecmascript">
var viewWidth = 1541;
var viewHeight = 454;
var sectionId = 'dynsection-1';
</script>
<script type="application/ecmascript" xlink:href="../../svg.min.js"/>
<svg id="graph" class="graph">
<g id="viewport">
<title>MoveEquipToExistingItemAndDestroyOldRootLambda</title>
<!-- Node1 -->
<g id="Node000001" class="node">
<title>Node1</title>
<g id="a_Node000001"><a xlink:title="this one is a also bit special: it moves all items to already existing item and destroys the ex&#45;root ...">
<polygon fill="#999999" stroke="#666666" points="1291.88,-32 1146.88,-32 1146.88,0 1291.88,0 1291.88,-32"/>
<text text-anchor="start" x="1154.88" y="-18.5" font-family="Helvetica,sans-Serif" font-size="10.00">MoveEquipToExistingItemAnd</text>
<text text-anchor="middle" x="1219.38" y="-6.5" font-family="Helvetica,sans-Serif" font-size="10.00">DestroyOldRootLambda</text>
</a>
</g>
</g>
<!-- Node2 -->
<g id="Node000002" class="node">
<title>Node2</title>
<g id="a_Node000002"><a xlink:href="../../d5/d04/class_replace_item_with_new_lambda_base.html" target="_top" xlink:title="base class for transformation operations (creating one item from another)">
<polygon fill="white" stroke="#666666" points="1302.38,-88 1136.38,-88 1136.38,-68 1302.38,-68 1302.38,-88"/>
<text text-anchor="middle" x="1219.38" y="-74.5" font-family="Helvetica,sans-Serif" font-size="10.00">ReplaceItemWithNewLambdaBase</text>
</a>
</g>
</g>
<!-- Node2&#45;&gt;Node1 -->
<g id="edge1_Node000001_Node000002" class="edge">
<title>Node2&#45;&gt;Node1</title>
<g id="a_edge1_Node000001_Node000002"><a xlink:title=" ">
<path fill="none" stroke="#8b1a1a" d="M1219.38,-56.31C1219.38,-48.37 1219.38,-39.46 1219.38,-32.14"/>
<polygon fill="#8b1a1a" stroke="#8b1a1a" points="1215.88,-56.11 1219.38,-66.11 1222.88,-56.11 1215.88,-56.11"/>
</a>
</g>
</g>
<!-- Node3 -->
<g id="Node000003" class="node">
<title>Node3</title>
<g id="a_Node000003"><a xlink:href="../../df/d09/class_entity_a_i.html" target="_top" xlink:title=" ">
<polygon fill="white" stroke="#666666" points="975.62,-170 925.12,-170 925.12,-150 975.62,-150 975.62,-170"/>
<text text-anchor="middle" x="950.38" y="-156.5" font-family="Helvetica,sans-Serif" font-size="10.00">EntityAI</text>
</a>
</g>
</g>
<!-- Node3&#45;&gt;Node2 -->
<g id="edge2_Node000002_Node000003" class="edge">
<title>Node3&#45;&gt;Node2</title>
<g id="a_edge2_Node000002_Node000003"><a xlink:title=" ">
<path fill="none" stroke="#9a32cd" stroke-dasharray="5,2" d="M986.59,-148.23C1039.61,-132.46 1137.5,-103.35 1187.77,-88.4"/>
<polygon fill="#9a32cd" stroke="#9a32cd" points="985.72,-144.84 977.13,-151.04 987.72,-151.55 985.72,-144.84"/>
</a>
</g>
<text text-anchor="middle" x="1150.5" y="-114.5" font-family="Helvetica,sans-Serif" font-size="10.00" fill="grey"> m_OldItem</text>
</g>
<!-- Node4 -->
<g id="Node000004" class="node">
<title>Node4</title>
<g id="a_Node000004"><a xlink:href="../../d2/d01/classarray.html" target="_top" xlink:title="Result for an object found in CGame.IsBoxCollidingGeometryProxy.">
<polygon fill="white" stroke="#666666" points="260.25,-290 222.5,-290 222.5,-270 260.25,-270 260.25,-290"/>
<text text-anchor="middle" x="241.38" y="-276.5" font-family="Helvetica,sans-Serif" font-size="10.00">array</text>
</a>
</g>
</g>
<!-- Node4&#45;&gt;Node3 -->
<g id="edge3_Node000003_Node000004" class="edge">
<title>Node4&#45;&gt;Node3</title>
<g id="a_edge3_Node000003_Node000004"><a xlink:title=" ">
<path fill="none" stroke="#9a32cd" stroke-dasharray="5,2" d="M271.21,-267.25C322.84,-247.49 432.59,-208 529.12,-190 677.22,-162.39 859,-160.42 924.95,-160.72"/>
<polygon fill="#9a32cd" stroke="#9a32cd" points="270,-263.96 261.93,-270.83 272.52,-270.49 270,-263.96"/>
</a>
</g>
<text text-anchor="middle" x="578.5" y="-216.5" font-family="Helvetica,sans-Serif" font-size="10.00" fill="grey"> m_ContinuousActions</text>
<text text-anchor="middle" x="578.5" y="-204.5" font-family="Helvetica,sans-Serif" font-size="10.00" fill="grey">m_InteractActions</text>
<text text-anchor="middle" x="578.5" y="-192.5" font-family="Helvetica,sans-Serif" font-size="10.00" fill="grey">m_SingleUseActions</text>
</g>
<!-- Node4&#45;&gt;Node4 -->
<g id="edge6_Node000004_Node000004" class="edge">
<title>Node4&#45;&gt;Node4</title>
<g id="a_edge6_Node000004_Node000004"><a xlink:title=" ">
<path fill="none" stroke="#9a32cd" stroke-dasharray="5,2" d="M263.68,-293.49C271.7,-293.78 278.25,-289.29 278.25,-280 278.25,-266.64 264.71,-263.2 252.7,-269.67"/>
<polygon fill="#9a32cd" stroke="#9a32cd" points="264.73,-290.15 254.16,-290.75 262.8,-296.88 264.73,-290.15"/>
</a>
</g>
<text text-anchor="middle" x="299.25" y="-276.5" font-family="Helvetica,sans-Serif" font-size="10.00" fill="grey"> proxyInfo</text>
</g>
<!-- Node10 -->
<g id="Node000010" class="node">
<title>Node10</title>
<g id="a_Node000010"><a xlink:href="../../d2/d01/classarray.html" target="_top" xlink:title=" ">
<polygon fill="white" stroke="#666666" points="219.62,-170 133.12,-170 133.12,-150 219.62,-150 219.62,-170"/>
<text text-anchor="middle" x="176.38" y="-156.5" font-family="Helvetica,sans-Serif" font-size="10.00">array&lt; Widget &gt;</text>
</a>
</g>
</g>
<!-- Node4&#45;&gt;Node10 -->
<g id="edge14_Node000010_Node000004" class="edge">
<title>Node4&#45;&gt;Node10</title>
<g id="a_edge14_Node000010_Node000004"><a xlink:title=" ">
<path fill="none" stroke="#9a32cd" stroke-dasharray="5,2" d="M226.51,-260.92C221.17,-255.09 214.86,-248.88 208.38,-244 194.4,-233.49 182.49,-240.93 173.38,-226 162.78,-208.64 168.57,-183.56 172.94,-170.2"/>
<polygon fill="#9a32cd" stroke="#9a32cd" points="223.79,-263.13 232.99,-268.39 229.08,-258.55 223.79,-263.13"/>
</a>
</g>
<text text-anchor="middle" x="194.38" y="-204.5" font-family="Helvetica,sans-Serif" font-size="10.00" fill="grey"> proxyInfo</text>
</g>
<!-- Node5 -->
<g id="Node000005" class="node">
<title>Node5</title>
<g id="a_Node000005"><a xlink:href="../../d8/d03/class_object.html" target="_top" xlink:title=" ">
<polygon fill="white" stroke="#666666" points="131.62,-444 87.12,-444 87.12,-424 131.62,-424 131.62,-444"/>
<text text-anchor="middle" x="109.38" y="-430.5" font-family="Helvetica,sans-Serif" font-size="10.00">Object</text>
</a>
</g>
</g>
<!-- Node5&#45;&gt;Node4 -->
<g id="edge4_Node000004_Node000005" class="edge">
<title>Node5&#45;&gt;Node4</title>
<g id="a_edge4_Node000004_Node000005"><a xlink:title=" ">
<path fill="none" stroke="#9a32cd" stroke-dasharray="5,2" d="M119.8,-413.8C132.04,-392.49 153.93,-357.96 179.38,-334 190.42,-323.6 196.63,-325.6 208.38,-316 217.95,-308.18 227.48,-297.7 233.82,-290.26"/>
<polygon fill="#9a32cd" stroke="#9a32cd" points="116.88,-411.85 115.05,-422.29 122.99,-415.27 116.88,-411.85"/>
</a>
</g>
<text text-anchor="middle" x="192.88" y="-372.5" font-family="Helvetica,sans-Serif" font-size="10.00" fill="grey"> obj</text>
<text text-anchor="middle" x="192.88" y="-360.5" font-family="Helvetica,sans-Serif" font-size="10.00" fill="grey">parent</text>
</g>
<!-- Node5&#45;&gt;Node10 -->
<g id="edge12_Node000010_Node000005" class="edge">
<title>Node5&#45;&gt;Node10</title>
<g id="a_edge12_Node000010_Node000005"><a xlink:title=" ">
<path fill="none" stroke="#9a32cd" stroke-dasharray="5,2" d="M110.18,-412.68C112.02,-377.6 117.8,-303.71 135.38,-244 143.73,-215.63 161.25,-185.16 170.45,-170.27"/>
<polygon fill="#9a32cd" stroke="#9a32cd" points="106.71,-412.09 109.74,-422.24 113.7,-412.41 106.71,-412.09"/>
</a>
</g>
<text text-anchor="middle" x="148.88" y="-282.5" font-family="Helvetica,sans-Serif" font-size="10.00" fill="grey"> obj</text>
<text text-anchor="middle" x="148.88" y="-270.5" font-family="Helvetica,sans-Serif" font-size="10.00" fill="grey">parent</text>
</g>
<!-- Node6 -->
<g id="Node000006" class="node">
<title>Node6</title>
<g id="a_Node000006"><a xlink:href="../../db/d06/class_param3.html" target="_top" xlink:title=" ">
<polygon fill="white" stroke="#666666" points="390.25,-444 340.5,-444 340.5,-424 390.25,-424 390.25,-444"/>
<text text-anchor="middle" x="365.38" y="-430.5" font-family="Helvetica,sans-Serif" font-size="10.00">Param3</text>
</a>
</g>
</g>
<!-- Node6&#45;&gt;Node4 -->
<g id="edge5_Node000004_Node000006" class="edge">
<title>Node6&#45;&gt;Node4</title>
<g id="a_edge5_Node000004_Node000006"><a xlink:title=" ">
<path fill="none" stroke="#9a32cd" stroke-dasharray="5,2" d="M329.58,-422.21C320.48,-418.21 311.27,-412.91 304.12,-406 278.57,-381.31 285.4,-365.71 269.38,-334 261.58,-318.58 252.12,-300.87 246.44,-290.33"/>
<polygon fill="#9a32cd" stroke="#9a32cd" points="328.07,-425.38 338.66,-425.78 330.63,-418.87 328.07,-425.38"/>
</a>
</g>
<text text-anchor="middle" x="362.5" y="-396.5" font-family="Helvetica,sans-Serif" font-size="10.00" fill="grey"> NO_SORTING</text>
<text text-anchor="middle" x="362.5" y="-384.5" font-family="Helvetica,sans-Serif" font-size="10.00" fill="grey">geomLevel</text>
<text text-anchor="middle" x="362.5" y="-372.5" font-family="Helvetica,sans-Serif" font-size="10.00" fill="grey">hierLevel</text>
<text text-anchor="start" x="304.38" y="-360.5" font-family="Helvetica,sans-Serif" font-size="10.00" fill="grey">m_CurrentSettingAlternate</text>
<text text-anchor="middle" x="362.5" y="-348.5" font-family="Helvetica,sans-Serif" font-size="10.00" fill="grey">KeyIndex</text>
<text text-anchor="middle" x="362.5" y="-336.5" font-family="Helvetica,sans-Serif" font-size="10.00" fill="grey">m_CurrentSettingKeyIndex</text>
</g>
<!-- Node6&#45;&gt;Node10 -->
<g id="edge13_Node000010_Node000006" class="edge">
<title>Node6&#45;&gt;Node10</title>
<g id="a_edge13_Node000010_Node000006"><a xlink:title=" ">
<path fill="none" stroke="#9a32cd" stroke-dasharray="5,2" d="M401.14,-422.36C408.7,-418.43 415.77,-413.12 420.38,-406 446.44,-365.67 458.31,-225.86 426.38,-190 412.92,-174.89 288.02,-166.46 220.02,-162.96"/>
<polygon fill="#9a32cd" stroke="#9a32cd" points="399.87,-419.09 392.11,-426.3 402.67,-425.51 399.87,-419.09"/>
</a>
</g>
<text text-anchor="middle" x="504.5" y="-306.5" font-family="Helvetica,sans-Serif" font-size="10.00" fill="grey"> NO_SORTING</text>
<text text-anchor="middle" x="504.5" y="-294.5" font-family="Helvetica,sans-Serif" font-size="10.00" fill="grey">geomLevel</text>
<text text-anchor="middle" x="504.5" y="-282.5" font-family="Helvetica,sans-Serif" font-size="10.00" fill="grey">hierLevel</text>
<text text-anchor="start" x="446.38" y="-270.5" font-family="Helvetica,sans-Serif" font-size="10.00" fill="grey">m_CurrentSettingAlternate</text>
<text text-anchor="middle" x="504.5" y="-258.5" font-family="Helvetica,sans-Serif" font-size="10.00" fill="grey">KeyIndex</text>
<text text-anchor="middle" x="504.5" y="-246.5" font-family="Helvetica,sans-Serif" font-size="10.00" fill="grey">m_CurrentSettingKeyIndex</text>
</g>
<!-- Node7 -->
<g id="Node000007" class="node">
<title>Node7</title>
<g id="a_Node000007"><a xlink:href="../../d4/d04/class_class.html" target="_top" xlink:title="Super root of all classes in Enforce script.">
<polygon fill="white" stroke="#666666" points="40.75,-444 0,-444 0,-424 40.75,-424 40.75,-444"/>
<text text-anchor="middle" x="20.38" y="-430.5" font-family="Helvetica,sans-Serif" font-size="10.00">Class</text>
</a>
</g>
</g>
<!-- Node7&#45;&gt;Node4 -->
<g id="edge7_Node000004_Node000007" class="edge">
<title>Node7&#45;&gt;Node4</title>
<g id="a_edge7_Node000004_Node000007"><a xlink:title=" ">
<path fill="none" stroke="#9a32cd" stroke-dasharray="5,2" d="M24.21,-412.55C29.69,-389.48 42.13,-352.73 68.12,-334 119.11,-297.25 152.38,-344.53 208.38,-316 219.83,-310.16 229.45,-298.68 235.29,-290.46"/>
<polygon fill="#9a32cd" stroke="#9a32cd" points="20.8,-411.78 22.15,-422.28 27.65,-413.22 20.8,-411.78"/>
</a>
</g>
<text text-anchor="middle" x="95" y="-366.5" font-family="Helvetica,sans-Serif" font-size="10.00" fill="grey"> m_Instance</text>
</g>
<!-- Node7&#45;&gt;Node10 -->
<g id="edge15_Node000010_Node000007" class="edge">
<title>Node7&#45;&gt;Node10</title>
<g id="a_edge15_Node000010_Node000007"><a xlink:title=" ">
<path fill="none" stroke="#9a32cd" stroke-dasharray="5,2" d="M18.72,-412.33C17.63,-392.1 17.35,-360.54 23.38,-334 33.05,-291.36 35.73,-278.08 63.12,-244 90.01,-210.56 133.45,-183.87 157.98,-170.45"/>
<polygon fill="#9a32cd" stroke="#9a32cd" points="15.21,-412.31 19.37,-422.06 22.2,-411.85 15.21,-412.31"/>
</a>
</g>
<text text-anchor="middle" x="90" y="-276.5" font-family="Helvetica,sans-Serif" font-size="10.00" fill="grey"> m_Instance</text>
</g>
<!-- Node8 -->
<g id="Node000008" class="node">
<title>Node8</title>
<g id="a_Node000008"><a xlink:href="../../d5/d02/classstring.html" target="_top" xlink:title=" ">
<polygon fill="white" stroke="#666666" points="637.38,-444 597.38,-444 597.38,-424 637.38,-424 637.38,-444"/>
<text text-anchor="middle" x="617.38" y="-430.5" font-family="Helvetica,sans-Serif" font-size="10.00">string</text>
</a>
</g>
</g>
<!-- Node8&#45;&gt;Node2 -->
<g id="edge25_Node000002_Node000008" class="edge">
<title>Node8&#45;&gt;Node2</title>
<g id="a_edge25_Node000002_Node000008"><a xlink:title=" ">
<path fill="none" stroke="#9a32cd" stroke-dasharray="5,2" d="M619.69,-412.49C626.14,-356.84 644.9,-206.07 660.38,-190 724.94,-122.97 996.48,-94.51 1135.94,-84.13"/>
<polygon fill="#9a32cd" stroke="#9a32cd" points="616.24,-411.82 618.58,-422.15 623.2,-412.61 616.24,-411.82"/>
</a>
</g>
<text text-anchor="middle" x="697.88" y="-204.5" font-family="Helvetica,sans-Serif" font-size="10.00" fill="grey"> m_NewItemType</text>
</g>
<!-- Node8&#45;&gt;Node4 -->
<g id="edge8_Node000004_Node000008" class="edge">
<title>Node8&#45;&gt;Node4</title>
<g id="a_edge8_Node000004_Node000008"><a xlink:title=" ">
<path fill="none" stroke="#9a32cd" stroke-dasharray="5,2" d="M586.17,-424.44C571.02,-419.8 552.76,-413.48 537.12,-406 483.5,-380.33 478.54,-358.52 424.38,-334 367.42,-308.22 294.82,-291.62 260.72,-284.69"/>
<polygon fill="#9a32cd" stroke="#9a32cd" points="585.02,-427.75 595.6,-427.23 587,-421.04 585.02,-427.75"/>
</a>
</g>
<text text-anchor="middle" x="555" y="-366.5" font-family="Helvetica,sans-Serif" font-size="10.00" fill="grey"> m_Test</text>
</g>
<!-- Node8&#45;&gt;Node8 -->
<g id="edge9_Node000008_Node000008" class="edge">
<title>Node8&#45;&gt;Node8</title>
<g id="a_edge9_Node000008_Node000008"><a xlink:title=" ">
<path fill="none" stroke="#9a32cd" stroke-dasharray="5,2" d="M643.14,-445.91C650.09,-445.28 655.38,-441.31 655.38,-434 655.38,-423.12 643.67,-419.64 632.2,-423.55"/>
<polygon fill="#9a32cd" stroke="#9a32cd" points="644.07,-442.5 633.7,-444.65 643.15,-449.44 644.07,-442.5"/>
</a>
</g>
<text text-anchor="middle" x="671.12" y="-430.5" font-family="Helvetica,sans-Serif" font-size="10.00" fill="grey"> Empty</text>
</g>
<!-- Node8&#45;&gt;Node10 -->
<g id="edge16_Node000010_Node000008" class="edge">
<title>Node8&#45;&gt;Node10</title>
<g id="a_edge16_Node000010_Node000008"><a xlink:title=" ">
<path fill="none" stroke="#9a32cd" stroke-dasharray="5,2" d="M613.86,-412.52C606.06,-369.13 586.26,-269.76 564.38,-244 527.55,-200.66 503.17,-205.22 448.38,-190 369.9,-168.2 274.5,-162.59 220.07,-161.27"/>
<polygon fill="#9a32cd" stroke="#9a32cd" points="610.37,-412.88 615.55,-422.12 617.26,-411.67 610.37,-412.88"/>
</a>
</g>
<text text-anchor="middle" x="610" y="-276.5" font-family="Helvetica,sans-Serif" font-size="10.00" fill="grey"> m_Test</text>
</g>
<!-- Node12 -->
<g id="Node000012" class="node">
<title>Node12</title>
<g id="a_Node000012"><a xlink:href="../../d4/d0d/class_sound_lookup_table.html" target="_top" xlink:title=" ">
<polygon fill="white" stroke="#666666" points="927.62,-290 829.12,-290 829.12,-270 927.62,-270 927.62,-290"/>
<text text-anchor="middle" x="878.38" y="-276.5" font-family="Helvetica,sans-Serif" font-size="10.00">SoundLookupTable</text>
</a>
</g>
</g>
<!-- Node8&#45;&gt;Node12 -->
<g id="edge22_Node000012_Node000008" class="edge">
<title>Node8&#45;&gt;Node12</title>
<g id="a_edge22_Node000012_Node000008"><a xlink:title=" ">
<path fill="none" stroke="#9a32cd" stroke-dasharray="5,2" d="M643.05,-418.05C696.51,-386.91 818.49,-315.88 862.32,-290.35"/>
<polygon fill="#9a32cd" stroke="#9a32cd" points="641.5,-414.9 634.62,-422.96 645.02,-420.95 641.5,-414.9"/>
</a>
</g>
<text text-anchor="middle" x="836.88" y="-372.5" font-family="Helvetica,sans-Serif" font-size="10.00" fill="grey"> m_parameterName</text>
<text text-anchor="middle" x="836.88" y="-360.5" font-family="Helvetica,sans-Serif" font-size="10.00" fill="grey">m_tableCategoryName</text>
</g>
<!-- Node9 -->
<g id="Node000009" class="node">
<title>Node9</title>
<g id="a_Node000009"><a xlink:href="../../dd/d0a/class_widget.html" target="_top" xlink:title=" ">
<polygon fill="white" stroke="#666666" points="225.75,-444 179,-444 179,-424 225.75,-424 225.75,-444"/>
<text text-anchor="middle" x="202.38" y="-430.5" font-family="Helvetica,sans-Serif" font-size="10.00">Widget</text>
</a>
</g>
</g>
<!-- Node9&#45;&gt;Node4 -->
<g id="edge10_Node000004_Node000009" class="edge">
<title>Node9&#45;&gt;Node4</title>
<g id="a_edge10_Node000004_Node000009"><a xlink:title=" ">
<path fill="none" stroke="#9a32cd" stroke-dasharray="5,2" d="M207.53,-412.91C216.07,-379.61 232.84,-314.28 239.02,-290.2"/>
<polygon fill="#9a32cd" stroke="#9a32cd" points="204.17,-411.92 205.07,-422.48 210.95,-413.66 204.17,-411.92"/>
</a>
</g>
<text text-anchor="middle" x="246.75" y="-366.5" font-family="Helvetica,sans-Serif" font-size="10.00" fill="grey"> m_Root</text>
</g>
<!-- Node9&#45;&gt;Node10 -->
<g id="edge17_Node000010_Node000009" class="edge">
<title>Node9&#45;&gt;Node10</title>
<g id="a_edge17_Node000010_Node000009"><a xlink:title=" ">
<path fill="none" stroke="#9a32cd" stroke-dasharray="5,2" d="M197.1,-412.9C187.82,-376.14 169.08,-295.43 164.38,-226 163.29,-210.04 161.26,-205.69 164.38,-190 165.73,-183.16 168.73,-175.91 171.39,-170.37"/>
<polygon fill="#9a32cd" stroke="#9a32cd" points="193.6,-413.33 199.48,-422.14 200.38,-411.58 193.6,-413.33"/>
</a>
</g>
<text text-anchor="middle" x="194.75" y="-276.5" font-family="Helvetica,sans-Serif" font-size="10.00" fill="grey"> m_Root</text>
</g>
<!-- Node10&#45;&gt;Node4 -->
<g id="edge11_Node000004_Node000010" class="edge">
<title>Node10&#45;&gt;Node4</title>
<g id="a_edge11_Node000004_Node000010"><a xlink:title=" ">
<path fill="none" stroke="#9a32cd" stroke-dasharray="5,2" d="M205.77,-176.5C210.91,-180.32 215.76,-184.83 219.38,-190 236.79,-214.92 240.46,-252.2 241.21,-269.52"/>
<polygon fill="#9a32cd" stroke="#9a32cd" points="207.95,-173.74 197.67,-171.19 204.11,-179.6 207.95,-173.74"/>
</a>
</g>
<text text-anchor="middle" x="266.88" y="-204.5" font-family="Helvetica,sans-Serif" font-size="10.00" fill="grey"> m_Subgroups</text>
</g>
<!-- Node10&#45;&gt;Node10 -->
<g id="edge18_Node000010_Node000010" class="edge">
<title>Node10&#45;&gt;Node10</title>
<g id="a_edge18_Node000010_Node000010"><a xlink:title=" ">
<path fill="none" stroke="#9a32cd" stroke-dasharray="5,2" d="M231,-165.88C235.11,-164.57 237.62,-162.61 237.62,-160 237.62,-155.49 230.09,-152.92 219.87,-152.28"/>
<polygon fill="#9a32cd" stroke="#9a32cd" points="230.66,-162.39 221.36,-167.47 231.8,-169.3 230.66,-162.39"/>
</a>
</g>
<text text-anchor="middle" x="269.12" y="-156.5" font-family="Helvetica,sans-Serif" font-size="10.00" fill="grey"> m_Subgroups</text>
</g>
<!-- Node11 -->
<g id="Node000011" class="node">
<title>Node11</title>
<g id="a_Node000011"><a xlink:href="../../d4/d03/classfloat.html" target="_top" xlink:title=" ">
<polygon fill="white" stroke="#666666" points="1042.38,-290 1008.38,-290 1008.38,-270 1042.38,-270 1042.38,-290"/>
<text text-anchor="middle" x="1025.38" y="-276.5" font-family="Helvetica,sans-Serif" font-size="10.00">float</text>
</a>
</g>
</g>
<!-- Node11&#45;&gt;Node3 -->
<g id="edge19_Node000003_Node000011" class="edge">
<title>Node11&#45;&gt;Node3</title>
<g id="a_edge19_Node000003_Node000011"><a xlink:title=" ">
<path fill="none" stroke="#9a32cd" stroke-dasharray="5,2" d="M1024.88,-258.15C1023.43,-238.69 1018.6,-209.77 1003.38,-190 996.46,-181.02 985.95,-174.46 976.11,-169.87"/>
<polygon fill="#9a32cd" stroke="#9a32cd" points="1021.39,-258.3 1025.36,-268.12 1028.38,-257.97 1021.39,-258.3"/>
</a>
</g>
<text text-anchor="middle" x="1078.12" y="-210.5" font-family="Helvetica,sans-Serif" font-size="10.00" fill="grey"> SOUND_CONTACT_SKIP</text>
<text text-anchor="middle" x="1078.12" y="-198.5" font-family="Helvetica,sans-Serif" font-size="10.00" fill="grey">m_SoundContactTickTime</text>
</g>
<!-- Node11&#45;&gt;Node11 -->
<g id="edge20_Node000011_Node000011" class="edge">
<title>Node11&#45;&gt;Node11</title>
<g id="a_edge20_Node000011_Node000011"><a xlink:title=" ">
<path fill="none" stroke="#9a32cd" stroke-dasharray="5,2" d="M1047.05,-293.5C1054.44,-293.58 1060.38,-289.08 1060.38,-280 1060.38,-266.64 1047.52,-263.2 1036.13,-269.67"/>
<polygon fill="#9a32cd" stroke="#9a32cd" points="1048.16,-290.17 1037.58,-290.75 1046.21,-296.9 1048.16,-290.17"/>
</a>
</g>
<text text-anchor="middle" x="1082.5" y="-288.5" font-family="Helvetica,sans-Serif" font-size="10.00" fill="grey"> LOWEST</text>
<text text-anchor="middle" x="1082.5" y="-276.5" font-family="Helvetica,sans-Serif" font-size="10.00" fill="grey">MAX</text>
<text text-anchor="middle" x="1082.5" y="-264.5" font-family="Helvetica,sans-Serif" font-size="10.00" fill="grey">MIN</text>
</g>
<!-- Node12&#45;&gt;Node3 -->
<g id="edge21_Node000003_Node000012" class="edge">
<title>Node12&#45;&gt;Node3</title>
<g id="a_edge21_Node000003_Node000012"><a xlink:title=" ">
<path fill="none" stroke="#9a32cd" stroke-dasharray="5,2" d="M880.92,-258.39C884.17,-239.1 891.32,-210.28 906.62,-190 912.77,-181.85 921.91,-175.28 930.25,-170.47"/>
<polygon fill="#9a32cd" stroke="#9a32cd" points="877.46,-257.86 879.49,-268.25 884.39,-258.86 877.46,-257.86"/>
</a>
</g>
<text text-anchor="middle" x="955.75" y="-204.5" font-family="Helvetica,sans-Serif" font-size="10.00" fill="grey"> m_SoundImpactTable</text>
</g>
<!-- Node13 -->
<g id="Node000013" class="node">
<title>Node13</title>
<g id="a_Node000013"><a xlink:href="../../d9/d09/classbool.html" target="_top" xlink:title=" ">
<polygon fill="white" stroke="#666666" points="1231.38,-290 1197.38,-290 1197.38,-270 1231.38,-270 1231.38,-290"/>
<text text-anchor="middle" x="1214.38" y="-276.5" font-family="Helvetica,sans-Serif" font-size="10.00">bool</text>
</a>
</g>
</g>
<!-- Node13&#45;&gt;Node2 -->
<g id="edge27_Node000002_Node000013" class="edge">
<title>Node13&#45;&gt;Node2</title>
<g id="a_edge27_Node000002_Node000013"><a xlink:title=" ">
<path fill="none" stroke="#9a32cd" stroke-dasharray="5,2" d="M1230.46,-261.18C1238.09,-251.51 1246.4,-238.92 1250.38,-226 1266.01,-175.14 1237.04,-111.99 1224.63,-88.44"/>
<polygon fill="#9a32cd" stroke="#9a32cd" points="1227.96,-258.71 1224.2,-268.62 1233.32,-263.22 1227.96,-258.71"/>
</a>
</g>
<text text-anchor="middle" x="1332.25" y="-162.5" font-family="Helvetica,sans-Serif" font-size="10.00" fill="grey"> m_RemoveFromLocationPassed</text>
<text text-anchor="middle" x="1332.25" y="-150.5" font-family="Helvetica,sans-Serif" font-size="10.00" fill="grey">m_RemoveNetworkObjectInfoPassed</text>
</g>
<!-- Node13&#45;&gt;Node3 -->
<g id="edge23_Node000003_Node000013" class="edge">
<title>Node13&#45;&gt;Node3</title>
<g id="a_edge23_Node000003_Node000013"><a xlink:title=" ">
<path fill="none" stroke="#9a32cd" stroke-dasharray="5,2" d="M1197.35,-261.5C1187.74,-251.38 1175.68,-238.26 1165.62,-226 1153.07,-210.69 1156.29,-200.29 1139.38,-190 1112.36,-173.57 1020.89,-165.53 975.86,-162.5"/>
<polygon fill="#9a32cd" stroke="#9a32cd" points="1194.55,-263.64 1204,-268.44 1199.6,-258.8 1194.55,-263.64"/>
</a>
</g>
<text text-anchor="middle" x="1208.75" y="-210.5" font-family="Helvetica,sans-Serif" font-size="10.00" fill="grey"> m_ActionsInitialize</text>
<text text-anchor="middle" x="1208.75" y="-198.5" font-family="Helvetica,sans-Serif" font-size="10.00" fill="grey">m_IsMeleeWeapon</text>
</g>
<!-- Node14 -->
<g id="Node000014" class="node">
<title>Node14</title>
<g id="a_Node000014"><a xlink:href="../../d4/d0d/class_script_invoker.html" target="_top" xlink:title="ScriptInvoker Class provide list of callbacks &#160;&#160;usage:">
<polygon fill="white" stroke="#666666" points="783.12,-290 711.62,-290 711.62,-270 783.12,-270 783.12,-290"/>
<text text-anchor="middle" x="747.38" y="-276.5" font-family="Helvetica,sans-Serif" font-size="10.00">ScriptInvoker</text>
</a>
</g>
</g>
<!-- Node14&#45;&gt;Node3 -->
<g id="edge24_Node000003_Node000014" class="edge">
<title>Node14&#45;&gt;Node3</title>
<g id="a_edge24_Node000003_Node000014"><a xlink:title=" ">
<path fill="none" stroke="#9a32cd" stroke-dasharray="5,2" d="M741.62,-258.52C737.35,-238.46 734.79,-208.33 751.38,-190 774.04,-164.95 876.13,-161.2 924.64,-160.86"/>
<polygon fill="#9a32cd" stroke="#9a32cd" points="738.18,-259.17 743.98,-268.04 744.97,-257.49 738.18,-259.17"/>
</a>
</g>
<text text-anchor="middle" x="818.88" y="-210.5" font-family="Helvetica,sans-Serif" font-size="10.00" fill="grey"> m_OnItemAddedToHands</text>
<text text-anchor="middle" x="818.88" y="-198.5" font-family="Helvetica,sans-Serif" font-size="10.00" fill="grey">m_OnItemRemovedFromHands</text>
</g>
<!-- Node15 -->
<g id="Node000015" class="node">
<title>Node15</title>
<g id="a_Node000015"><a xlink:href="../../d6/d05/class_inventory_location.html" target="_top" xlink:title="InventoryLocation.">
<polygon fill="white" stroke="#666666" points="1532.88,-170 1441.88,-170 1441.88,-150 1532.88,-150 1532.88,-170"/>
<text text-anchor="middle" x="1487.38" y="-156.5" font-family="Helvetica,sans-Serif" font-size="10.00">InventoryLocation</text>
</a>
</g>
</g>
<!-- Node15&#45;&gt;Node2 -->
<g id="edge26_Node000002_Node000015" class="edge">
<title>Node15&#45;&gt;Node2</title>
<g id="a_edge26_Node000002_Node000015"><a xlink:title=" ">
<path fill="none" stroke="#9a32cd" stroke-dasharray="5,2" d="M1444.68,-146.25C1390.76,-130.16 1299.26,-102.85 1251.13,-88.48"/>
<polygon fill="#9a32cd" stroke="#9a32cd" points="1443.55,-149.57 1454.13,-149.08 1445.55,-142.86 1443.55,-149.57"/>
</a>
</g>
<text text-anchor="middle" x="1420.38" y="-120.5" font-family="Helvetica,sans-Serif" font-size="10.00" fill="grey"> m_NewLocation</text>
<text text-anchor="middle" x="1420.38" y="-108.5" font-family="Helvetica,sans-Serif" font-size="10.00" fill="grey">m_OldLocation</text>
</g>
</g>
</svg>

<g id="navigator" transform="translate(0 0)" fill="#404254">
  <rect fill="#f2f5e9" fill-opacity="0.5" stroke="#606060" stroke-width=".5" x="0" y="0" width="60" height="60"/>
  <use id="zoomplus" xlink:href="#zoomPlus" x="17" y="9" onmousedown="handleZoom(evt,'in')"/>
  <use id="zoomminus" xlink:href="#zoomMin" x="42" y="9" onmousedown="handleZoom(evt,'out')"/>
  <use id="reset" xlink:href="#resetDef" x="30" y="36" onmousedown="handleReset()"/>
   <use id="arrowup" xlink:href="#arrowUp" x="0" y="0" onmousedown="handlePan(0,-1)"/>
  <use id="arrowright" xlink:href="#arrowRight" x="0" y="0" onmousedown="handlePan(1,0)"/>
  <use id="arrowdown" xlink:href="#arrowDown" x="0" y="0" onmousedown="handlePan(0,1)"/>
  <use id="arrowleft" xlink:href="#arrowLeft" x="0" y="0" onmousedown="handlePan(-1,0)"/>
</g>
<svg viewBox="0 0 15 15" width="100%" height="30px" preserveAspectRatio="xMaxYMin meet">
 <g id="arrow_out" transform="scale(0.3 0.3)">
  <a xlink:href="class_move_equip_to_existing_item_and_destroy_old_root_lambda__coll__graph_org.svg" target="_base">
   <rect id="button" ry="5" rx="5" y="6" x="6" height="38" width="38"
        fill="#f2f5e9" fill-opacity="0.5" stroke="#606060" stroke-width="1.0"/>
   <path id="arrow"
     d="M 11.500037,31.436501 C 11.940474,20.09759 22.043105,11.32322 32.158766,21.979434 L 37.068811,17.246167 C 37.068811,17.246167 37.088388,32 37.088388,32 L 22.160133,31.978069 C 22.160133,31.978069 26.997745,27.140456 26.997745,27.140456 C 18.528582,18.264221 13.291696,25.230495 11.500037,31.436501 z"
     style="fill:#404040;"/>
  </a>
 </g>
</svg>

<style type='text/css'>
<![CDATA[
[data-mouse-over-selected='false'] { opacity: 0.7; }
[data-mouse-over-selected='true']  { opacity: 1.0; }
]]>
</style>
<script type="application/ecmascript"><![CDATA[
document.addEventListener('DOMContentLoaded', (event) => {
  highlightEdges();
  highlightAdjacentNodes();
});
]]></script>
</svg>
