<?xml version="1.0" encoding="UTF-8" standalone="no"?>
<!DOCTYPE svg PUBLIC "-//W3C//DTD SVG 1.1//EN"
 "http://www.w3.org/Graphics/SVG/1.1/DTD/svg11.dtd">
<!-- Generated by graphviz version 11.0.0 (20240428.1522)
 -->
<!-- Title: DestroyItemInCorpsesHandsAndCreateNewOnGndLambda Pages: 1 -->
<svg width="382pt" height="292pt"
 viewBox="0.00 0.00 381.75 292.00" xmlns="http://www.w3.org/2000/svg" xmlns:xlink="http://www.w3.org/1999/xlink">
<g id="graph0" class="graph" transform="scale(1 1) rotate(0) translate(4 288)">
<title>DestroyItemInCorpsesHandsAndCreateNewOnGndLambda</title>
<!-- Node1 -->
<g id="Node000001" class="node">
<title>Node1</title>
<g id="a_Node000001"><a xlink:title=" ">
<polygon fill="#999999" stroke="#666666" points="269.38,-32 123.62,-32 123.62,0 269.38,0 269.38,-32"/>
<text text-anchor="start" x="131.62" y="-18.5" font-family="Helvetica,sans-Serif" font-size="10.00">DestroyItemInCorpsesHands</text>
<text text-anchor="middle" x="196.5" y="-6.5" font-family="Helvetica,sans-Serif" font-size="10.00">AndCreateNewOnGndLambda</text>
</a>
</g>
</g>
<!-- Node2 -->
<g id="Node000002" class="node">
<title>Node2</title>
<g id="a_Node000002"><a xlink:href="../../d3/d07/class_replace_and_destroy_lambda.html" target="_top" xlink:title=" ">
<polygon fill="white" stroke="#666666" points="264.88,-88 128.12,-88 128.12,-68 264.88,-68 264.88,-88"/>
<text text-anchor="middle" x="196.5" y="-74.5" font-family="Helvetica,sans-Serif" font-size="10.00">ReplaceAndDestroyLambda</text>
</a>
</g>
</g>
<!-- Node2&#45;&gt;Node1 -->
<g id="edge1_Node000001_Node000002" class="edge">
<title>Node2&#45;&gt;Node1</title>
<g id="a_edge1_Node000001_Node000002"><a xlink:title=" ">
<path fill="none" stroke="#8b1a1a" d="M196.5,-56.31C196.5,-48.37 196.5,-39.46 196.5,-32.14"/>
<polygon fill="#8b1a1a" stroke="#8b1a1a" points="193,-56.11 196.5,-66.11 200,-56.11 193,-56.11"/>
</a>
</g>
</g>
<!-- Node3 -->
<g id="Node000003" class="node">
<title>Node3</title>
<g id="a_Node000003"><a xlink:title=" ">
<polygon fill="white" stroke="#666666" points="145,-168 0,-168 0,-136 145,-136 145,-168"/>
<text text-anchor="start" x="8" y="-154.5" font-family="Helvetica,sans-Serif" font-size="10.00">TurnItemIntoItemLambdaAnim</text>
<text text-anchor="middle" x="72.5" y="-142.5" font-family="Helvetica,sans-Serif" font-size="10.00">SysNotifyLambda</text>
</a>
</g>
</g>
<!-- Node3&#45;&gt;Node2 -->
<g id="edge2_Node000002_Node000003" class="edge">
<title>Node3&#45;&gt;Node2</title>
<g id="a_edge2_Node000002_Node000003"><a xlink:title=" ">
<path fill="none" stroke="#8b1a1a" d="M108.81,-129.92C132.44,-116.19 162.13,-98.96 180.19,-88.47"/>
<polygon fill="#8b1a1a" stroke="#8b1a1a" points="107.3,-126.75 100.41,-134.79 110.82,-132.8 107.3,-126.75"/>
</a>
</g>
</g>
<!-- Node4 -->
<g id="Node000004" class="node">
<title>Node4</title>
<g id="a_Node000004"><a xlink:href="../../d5/d08/class_player_base.html" target="_top" xlink:title=" ">
<polygon fill="white" stroke="#666666" points="229.62,-162 163.38,-162 163.38,-142 229.62,-142 229.62,-162"/>
<text text-anchor="middle" x="196.5" y="-148.5" font-family="Helvetica,sans-Serif" font-size="10.00">PlayerBase</text>
</a>
</g>
</g>
<!-- Node4&#45;&gt;Node2 -->
<g id="edge3_Node000002_Node000004" class="edge">
<title>Node4&#45;&gt;Node2</title>
<g id="a_edge3_Node000002_Node000004"><a xlink:title=" ">
<path fill="none" stroke="#9a32cd" stroke-dasharray="5,2" d="M196.5,-130.18C196.5,-116.29 196.5,-98.71 196.5,-88.19"/>
<polygon fill="#9a32cd" stroke="#9a32cd" points="193,-130.07 196.5,-140.07 200,-130.07 193,-130.07"/>
</a>
</g>
<text text-anchor="middle" x="232.12" y="-108.5" font-family="Helvetica,sans-Serif" font-size="10.00" fill="grey"> m_TargetPlayer</text>
</g>
<!-- Node5 -->
<g id="Node000005" class="node">
<title>Node5</title>
<g id="a_Node000005"><a xlink:href="../../dd/d03/class_scripted_light_base.html" target="_top" xlink:title=" ">
<polygon fill="white" stroke="#666666" points="145.25,-284 49.75,-284 49.75,-264 145.25,-264 145.25,-284"/>
<text text-anchor="middle" x="97.5" y="-270.5" font-family="Helvetica,sans-Serif" font-size="10.00">ScriptedLightBase</text>
</a>
</g>
</g>
<!-- Node5&#45;&gt;Node4 -->
<g id="edge4_Node000004_Node000005" class="edge">
<title>Node5&#45;&gt;Node4</title>
<g id="a_edge4_Node000004_Node000005"><a xlink:title=" ">
<path fill="none" stroke="#9a32cd" stroke-dasharray="5,2" d="M94.29,-252.36C92.49,-233.15 93.02,-204.74 107.75,-186 108.78,-184.68 144.48,-171.66 170.28,-162.38"/>
<polygon fill="#9a32cd" stroke="#9a32cd" points="90.8,-252.73 95.53,-262.21 97.75,-251.85 90.8,-252.73"/>
</a>
</g>
<text text-anchor="middle" x="146.38" y="-212.5" font-family="Helvetica,sans-Serif" font-size="10.00" fill="grey"> m_PersonalLight</text>
</g>
<!-- Node6 -->
<g id="Node000006" class="node">
<title>Node6</title>
<g id="a_Node000006"><a xlink:href="../../d9/d09/classbool.html" target="_top" xlink:title=" ">
<polygon fill="white" stroke="#666666" points="287.5,-284 253.5,-284 253.5,-264 287.5,-264 287.5,-284"/>
<text text-anchor="middle" x="270.5" y="-270.5" font-family="Helvetica,sans-Serif" font-size="10.00">bool</text>
</a>
</g>
</g>
<!-- Node6&#45;&gt;Node2 -->
<g id="edge6_Node000002_Node000006" class="edge">
<title>Node6&#45;&gt;Node2</title>
<g id="a_edge6_Node000002_Node000006"><a xlink:title=" ">
<path fill="none" stroke="#9a32cd" stroke-dasharray="5,2" d="M298.74,-267.43C310.66,-263.53 323.4,-256.98 330.5,-246 344.98,-223.61 338.83,-211.33 330.5,-186 316.7,-144.03 306.92,-132.4 271.5,-106 261.07,-98.23 248.19,-92.52 236.06,-88.41"/>
<polygon fill="#9a32cd" stroke="#9a32cd" points="297.97,-264.01 289.24,-270.01 299.8,-270.77 297.97,-264.01"/>
</a>
</g>
<text text-anchor="middle" x="348.62" y="-154.5" font-family="Helvetica,sans-Serif" font-size="10.00" fill="grey"> m_Destroy</text>
<text text-anchor="middle" x="348.62" y="-142.5" font-family="Helvetica,sans-Serif" font-size="10.00" fill="grey">m_Drop</text>
</g>
<!-- Node6&#45;&gt;Node4 -->
<g id="edge5_Node000004_Node000006" class="edge">
<title>Node6&#45;&gt;Node4</title>
<g id="a_edge5_Node000004_Node000006"><a xlink:title=" ">
<path fill="none" stroke="#9a32cd" stroke-dasharray="5,2" d="M241.69,-270.09C225.96,-266.87 207.71,-260.12 197.75,-246 179.78,-220.54 188.2,-180.61 193.43,-162.5"/>
<polygon fill="#9a32cd" stroke="#9a32cd" points="241.12,-273.54 251.55,-271.69 242.24,-266.63 241.12,-273.54"/>
</a>
</g>
<text text-anchor="start" x="197.5" y="-236.5" font-family="Helvetica,sans-Serif" font-size="10.00" fill="grey"> m_PersonalLightDisabledBy</text>
<text text-anchor="middle" x="263.88" y="-224.5" font-family="Helvetica,sans-Serif" font-size="10.00" fill="grey">Debug</text>
<text text-anchor="start" x="197.5" y="-212.5" font-family="Helvetica,sans-Serif" font-size="10.00" fill="grey">m_PersonalLightEnabledOn</text>
<text text-anchor="middle" x="263.88" y="-200.5" font-family="Helvetica,sans-Serif" font-size="10.00" fill="grey">CurrentServer</text>
<text text-anchor="middle" x="263.88" y="-188.5" font-family="Helvetica,sans-Serif" font-size="10.00" fill="grey">m_PersonalLightIsSwitchedOn</text>
</g>
</g>
</svg>
