<?xml version="1.0" encoding="UTF-8" standalone="no"?>
<!DOCTYPE svg PUBLIC "-//W3C//DTD SVG 1.1//EN"
 "http://www.w3.org/Graphics/SVG/1.1/DTD/svg11.dtd">
<!-- Generated by graphviz version 11.0.0 (20240428.1522)
 -->
<!-- Title: ActionReadPaper Pages: 1 -->
<svg width="202pt" height="220pt"
 viewBox="0.00 0.00 202.12 220.00" xmlns="http://www.w3.org/2000/svg" xmlns:xlink="http://www.w3.org/1999/xlink">

<svg id="main" version="1.1" xmlns="http://www.w3.org/2000/svg" xmlns:xlink="http://www.w3.org/1999/xlink" xml:space="preserve" onload="init(evt)">
<style type="text/css"><![CDATA[
.node, .edge {opacity: 0.7;}
.node.selected, .edge.selected {opacity: 1;}
.edge:hover path { stroke: red; }
.edge:hover polygon { stroke: red; fill: red; }
]]></style>
<script type="application/ecmascript" xlink:href="../../svg.min.js"/>
<svg id="graph" class="graph">
<g id="graph0" class="graph" transform="scale(1 1) rotate(0) translate(4 216)">
<title>ActionReadPaper</title>
<!-- Node1 -->
<g id="Node000001" class="node">
<title>Node1</title>
<g id="a_Node000001"><a xlink:title=" ">
<polygon fill="#999999" stroke="#666666" points="117,-20 25.25,-20 25.25,0 117,0 117,-20"/>
<text text-anchor="middle" x="71.12" y="-6.5" font-family="Helvetica,sans-Serif" font-size="10.00">ActionReadPaper</text>
</a>
</g>
</g>
<!-- Node2 -->
<g id="Node000002" class="node">
<title>Node2</title>
<g id="a_Node000002"><a xlink:href="../../d6/d0f/class_action_continuous_base.html" target="_top" xlink:title=" ">
<polygon fill="white" stroke="#666666" points="128.62,-76 13.62,-76 13.62,-56 128.62,-56 128.62,-76"/>
<text text-anchor="middle" x="71.12" y="-62.5" font-family="Helvetica,sans-Serif" font-size="10.00">ActionContinuousBase</text>
</a>
</g>
</g>
<!-- Node2&#45;&gt;Node1 -->
<g id="edge1_Node000001_Node000002" class="edge">
<title>Node2&#45;&gt;Node1</title>
<g id="a_edge1_Node000001_Node000002"><a xlink:title=" ">
<path fill="none" stroke="#8b1a1a" d="M71.12,-44.13C71.12,-35.9 71.12,-26.85 71.12,-20.3"/>
<polygon fill="#8b1a1a" stroke="#8b1a1a" points="67.63,-44.08 71.13,-54.08 74.63,-44.08 67.63,-44.08"/>
</a>
</g>
</g>
<!-- Node3 -->
<g id="Node000003" class="node">
<title>Node3</title>
<g id="a_Node000003"><a xlink:href="../../d7/d04/class_animated_action_base.html" target="_top" xlink:title=" ">
<polygon fill="white" stroke="#666666" points="124.88,-132 17.38,-132 17.38,-112 124.88,-112 124.88,-132"/>
<text text-anchor="middle" x="71.12" y="-118.5" font-family="Helvetica,sans-Serif" font-size="10.00">AnimatedActionBase</text>
</a>
</g>
</g>
<!-- Node3&#45;&gt;Node2 -->
<g id="edge2_Node000002_Node000003" class="edge">
<title>Node3&#45;&gt;Node2</title>
<g id="a_edge2_Node000002_Node000003"><a xlink:title=" ">
<path fill="none" stroke="#8b1a1a" d="M71.12,-100.13C71.12,-91.9 71.12,-82.85 71.12,-76.3"/>
<polygon fill="#8b1a1a" stroke="#8b1a1a" points="67.63,-100.08 71.13,-110.08 74.63,-100.08 67.63,-100.08"/>
</a>
</g>
</g>
<!-- Node4 -->
<g id="Node000004" class="node">
<title>Node4</title>
<g id="a_Node000004"><a xlink:title=" ">
<polygon fill="white" stroke="#666666" points="66.25,-212 0,-212 0,-192 66.25,-192 66.25,-212"/>
<text text-anchor="middle" x="33.12" y="-198.5" font-family="Helvetica,sans-Serif" font-size="10.00">ActionBase</text>
</a>
</g>
</g>
<!-- Node4&#45;&gt;Node3 -->
<g id="edge3_Node000003_Node000004" class="edge">
<title>Node4&#45;&gt;Node3</title>
<g id="a_edge3_Node000003_Node000004"><a xlink:title=" ">
<path fill="none" stroke="#8b1a1a" d="M42.62,-181.51C50.29,-165.77 60.74,-144.32 66.62,-132.24"/>
<polygon fill="#8b1a1a" stroke="#8b1a1a" points="39.53,-179.86 38.3,-190.39 45.82,-182.93 39.53,-179.86"/>
</a>
</g>
</g>
<!-- Node5 -->
<g id="Node000005" class="node">
<title>Node5</title>
<g id="a_Node000005"><a xlink:href="../../db/d06/class_param3.html" target="_top" xlink:title=" ">
<polygon fill="white" stroke="#666666" points="134,-212 84.25,-212 84.25,-192 134,-192 134,-212"/>
<text text-anchor="middle" x="109.12" y="-198.5" font-family="Helvetica,sans-Serif" font-size="10.00">Param3</text>
</a>
</g>
</g>
<!-- Node5&#45;&gt;Node3 -->
<g id="edge4_Node000003_Node000005" class="edge">
<title>Node5&#45;&gt;Node3</title>
<g id="a_edge4_Node000003_Node000005"><a xlink:title=" ">
<path fill="none" stroke="#9a32cd" stroke-dasharray="5,2" d="M99.63,-181.51C91.96,-165.77 81.51,-144.32 75.63,-132.24"/>
<polygon fill="#9a32cd" stroke="#9a32cd" points="96.43,-182.93 103.95,-190.39 102.72,-179.86 96.43,-182.93"/>
</a>
</g>
<text text-anchor="middle" x="144.62" y="-164.5" font-family="Helvetica,sans-Serif" font-size="10.00" fill="grey"> m_CommandUID</text>
<text text-anchor="middle" x="144.62" y="-152.5" font-family="Helvetica,sans-Serif" font-size="10.00" fill="grey">m_CommandUIDProne</text>
</g>
</g>
</svg>
</svg>

<style type='text/css'>
<![CDATA[
[data-mouse-over-selected='false'] { opacity: 0.7; }
[data-mouse-over-selected='true']  { opacity: 1.0; }
]]>
</style>
<script type="application/ecmascript"><![CDATA[
document.addEventListener('DOMContentLoaded', (event) => {
  highlightEdges();
  highlightAdjacentNodes();
});
]]></script>
</svg>
