<?xml version="1.0" encoding="UTF-8" standalone="no"?>
<!DOCTYPE svg PUBLIC "-//W3C//DTD SVG 1.1//EN"
 "http://www.w3.org/Graphics/SVG/1.1/DTD/svg11.dtd">
<!-- Generated by graphviz version 11.0.0 (20240428.1522)
 -->
<!-- Title: ModLoader Pages: 1 -->
<!--zoomable 474 -->

<svg id="main" version="1.1" xmlns="http://www.w3.org/2000/svg" xmlns:xlink="http://www.w3.org/1999/xlink" xml:space="preserve" onload="init(evt)">
<style type="text/css"><![CDATA[
.node, .edge {opacity: 0.7;}
.node.selected, .edge.selected {opacity: 1;}
.edge:hover path { stroke: red; }
.edge:hover polygon { stroke: red; fill: red; }
]]></style>

<defs>
  <circle id="rim" cx="0" cy="0" r="7"/>
  <circle id="rim2" cx="0" cy="0" r="3.5"/>
  <g id="zoomPlus">
    <use xlink:href="#rim" fill="#404040"><set attributeName="fill" to="#808080" begin="zoomplus.mouseover" end="zoomplus.mouseout"/></use>
    <path d="M-4,0h8M0,-4v8" fill="none" stroke="white" stroke-width="1.5" pointer-events="none"/>
  </g>
  <g id="zoomMin">
    <use xlink:href="#rim" fill="#404040"><set attributeName="fill" to="#808080" begin="zoomminus.mouseover" end="zoomminus.mouseout"/></use>
    <path d="M-4,0h8" fill="none" stroke="white" stroke-width="1.5" pointer-events="none"/>
  </g>
  <g id="arrowUp" transform="translate(30 24)">
    <use xlink:href="#rim"/>
    <path pointer-events="none" fill="none" stroke="white" stroke-width="1.5" d="M0,-3.0v7 M-2.5,-0.5L0,-3.0L2.5,-0.5"/>
  </g>
  <g id="arrowRight" transform="rotate(90) translate(36 -43)">
    <use xlink:href="#rim"/>
    <path pointer-events="none" fill="none" stroke="white" stroke-width="1.5" d="M0,-3.0v7 M-2.5,-0.5L0,-3.0L2.5,-0.5"/>
  </g>
  <g id="arrowDown" transform="rotate(180) translate(-30 -48)">
    <use xlink:href="#rim"/>
    <path pointer-events="none" fill="none" stroke="white" stroke-width="1.5" d="M0,-3.0v7 M-2.5,-0.5L0,-3.0L2.5,-0.5"/>
  </g>
  <g id="arrowLeft" transform="rotate(270) translate(-36 17)">
    <use xlink:href="#rim"/>
    <path pointer-events="none" fill="none" stroke="white" stroke-width="1.5" d="M0,-3.0v7 M-2.5,-0.5L0,-3.0L2.5,-0.5"/>
  </g>
  <g id="resetDef">
    <use xlink:href="#rim2" fill="#404040"><set attributeName="fill" to="#808080" begin="reset.mouseover" end="reset.mouseout"/></use>
  </g>
</defs>
<script type="application/ecmascript">
var viewWidth = 935;
var viewHeight = 474;
var sectionId = 'dynsection-0';
</script>
<script type="application/ecmascript" xlink:href="../../svg.min.js"/>
<svg id="graph" class="graph">
<g id="viewport">
<title>ModLoader</title>
<!-- Node1 -->
<g id="Node000001" class="node">
<title>Node1</title>
<g id="a_Node000001"><a xlink:title=" ">
<polygon fill="#999999" stroke="#666666" points="611.25,-20 547.25,-20 547.25,0 611.25,0 611.25,-20"/>
<text text-anchor="middle" x="579.25" y="-6.5" font-family="Helvetica,sans-Serif" font-size="10.00">ModLoader</text>
</a>
</g>
</g>
<!-- Node2 -->
<g id="Node000002" class="node">
<title>Node2</title>
<g id="a_Node000002"><a xlink:href="../../d9/d09/classbool.html" target="_top" xlink:title=" ">
<polygon fill="white" stroke="#666666" points="561.25,-88 527.25,-88 527.25,-68 561.25,-68 561.25,-88"/>
<text text-anchor="middle" x="544.25" y="-74.5" font-family="Helvetica,sans-Serif" font-size="10.00">bool</text>
</a>
</g>
</g>
<!-- Node2&#45;&gt;Node1 -->
<g id="edge1_Node000001_Node000002" class="edge">
<title>Node2&#45;&gt;Node1</title>
<g id="a_edge1_Node000001_Node000002"><a xlink:title=" ">
<path fill="none" stroke="#9a32cd" stroke-dasharray="5,2" d="M550.65,-57.29C553.01,-50.97 555.93,-44.04 559.25,-38 562.73,-31.66 567.53,-25.13 571.56,-20.08"/>
<polygon fill="#9a32cd" stroke="#9a32cd" points="547.5,-55.68 547.53,-66.28 554.12,-57.97 547.5,-55.68"/>
</a>
</g>
<text text-anchor="middle" x="583.25" y="-40.5" font-family="Helvetica,sans-Serif" font-size="10.00" fill="grey"> m_Loaded</text>
</g>
<!-- Node3 -->
<g id="Node000003" class="node">
<title>Node3</title>
<g id="a_Node000003"><a xlink:href="../../d2/d01/classarray.html" target="_top" xlink:title=" ">
<polygon fill="white" stroke="#666666" points="707.12,-88 579.37,-88 579.37,-68 707.12,-68 707.12,-88"/>
<text text-anchor="middle" x="643.25" y="-74.5" font-family="Helvetica,sans-Serif" font-size="10.00">array&lt; ref ModStructure &gt;</text>
</a>
</g>
</g>
<!-- Node3&#45;&gt;Node1 -->
<g id="edge2_Node000001_Node000003" class="edge">
<title>Node3&#45;&gt;Node1</title>
<g id="a_edge2_Node000001_Node000003"><a xlink:title=" ">
<path fill="none" stroke="#9a32cd" stroke-dasharray="5,2" d="M627.18,-59.15C621.03,-52.44 613.9,-44.79 607.25,-38 601.39,-32.01 594.64,-25.49 589.23,-20.36"/>
<polygon fill="#9a32cd" stroke="#9a32cd" points="624.48,-61.39 633.8,-66.44 629.66,-56.68 624.48,-61.39"/>
</a>
</g>
<text text-anchor="middle" x="638.5" y="-40.5" font-family="Helvetica,sans-Serif" font-size="10.00" fill="grey"> m_Mods</text>
</g>
<!-- Node4 -->
<g id="Node000004" class="node">
<title>Node4</title>
<g id="a_Node000004"><a xlink:href="../../d8/d03/class_object.html" target="_top" xlink:title=" ">
<polygon fill="white" stroke="#666666" points="278.5,-464 234,-464 234,-444 278.5,-444 278.5,-464"/>
<text text-anchor="middle" x="256.25" y="-450.5" font-family="Helvetica,sans-Serif" font-size="10.00">Object</text>
</a>
</g>
</g>
<!-- Node4&#45;&gt;Node3 -->
<g id="edge3_Node000003_Node000004" class="edge">
<title>Node4&#45;&gt;Node3</title>
<g id="a_edge3_Node000003_Node000004"><a xlink:title=" ">
<path fill="none" stroke="#9a32cd" stroke-dasharray="5,2" d="M252.85,-432.19C252.61,-430.11 252.4,-428.01 252.25,-426 249.9,-394.09 247.93,-385.71 252.25,-354 263.84,-268.95 258.13,-231.06 322.25,-174 362.52,-138.17 512.97,-104.38 592.79,-88.49"/>
<polygon fill="#9a32cd" stroke="#9a32cd" points="249.38,-432.65 254.28,-442.04 256.31,-431.64 249.38,-432.65"/>
</a>
</g>
<text text-anchor="middle" x="335.75" y="-212.5" font-family="Helvetica,sans-Serif" font-size="10.00" fill="grey"> obj</text>
<text text-anchor="middle" x="335.75" y="-200.5" font-family="Helvetica,sans-Serif" font-size="10.00" fill="grey">parent</text>
</g>
<!-- Node6 -->
<g id="Node000006" class="node">
<title>Node6</title>
<g id="a_Node000006"><a xlink:href="../../d2/d01/classarray.html" target="_top" xlink:title="Result for an object found in CGame.IsBoxCollidingGeometryProxy.">
<polygon fill="white" stroke="#666666" points="533.12,-310 495.37,-310 495.37,-290 533.12,-290 533.12,-310"/>
<text text-anchor="middle" x="514.25" y="-296.5" font-family="Helvetica,sans-Serif" font-size="10.00">array</text>
</a>
</g>
</g>
<!-- Node4&#45;&gt;Node6 -->
<g id="edge6_Node000006_Node000004" class="edge">
<title>Node4&#45;&gt;Node6</title>
<g id="a_edge6_Node000006_Node000004"><a xlink:title=" ">
<path fill="none" stroke="#9a32cd" stroke-dasharray="5,2" d="M290.31,-453.23C322.22,-452.03 370.27,-446.51 406.25,-426 412.85,-422.24 482.58,-338.98 506.36,-310.47"/>
<polygon fill="#9a32cd" stroke="#9a32cd" points="290.35,-449.73 280.44,-453.46 290.52,-456.73 290.35,-449.73"/>
</a>
</g>
<text text-anchor="middle" x="482.75" y="-392.5" font-family="Helvetica,sans-Serif" font-size="10.00" fill="grey"> obj</text>
<text text-anchor="middle" x="482.75" y="-380.5" font-family="Helvetica,sans-Serif" font-size="10.00" fill="grey">parent</text>
</g>
<!-- Node10 -->
<g id="Node000010" class="node">
<title>Node10</title>
<g id="a_Node000010"><a xlink:href="../../d2/d01/classarray.html" target="_top" xlink:title=" ">
<polygon fill="white" stroke="#666666" points="522.5,-156 436,-156 436,-136 522.5,-136 522.5,-156"/>
<text text-anchor="middle" x="479.25" y="-142.5" font-family="Helvetica,sans-Serif" font-size="10.00">array&lt; Widget &gt;</text>
</a>
</g>
</g>
<!-- Node4&#45;&gt;Node10 -->
<g id="edge14_Node000010_Node000004" class="edge">
<title>Node4&#45;&gt;Node10</title>
<g id="a_edge14_Node000010_Node000004"><a xlink:title=" ">
<path fill="none" stroke="#9a32cd" stroke-dasharray="5,2" d="M255.63,-432.5C255.78,-411.73 258.23,-379.16 270.25,-354 315.82,-258.61 424.34,-182.14 464.22,-156.36"/>
<polygon fill="#9a32cd" stroke="#9a32cd" points="252.12,-432.27 255.74,-442.23 259.12,-432.18 252.12,-432.27"/>
</a>
</g>
<text text-anchor="middle" x="344.75" y="-302.5" font-family="Helvetica,sans-Serif" font-size="10.00" fill="grey"> obj</text>
<text text-anchor="middle" x="344.75" y="-290.5" font-family="Helvetica,sans-Serif" font-size="10.00" fill="grey">parent</text>
</g>
<!-- Node5 -->
<g id="Node000005" class="node">
<title>Node5</title>
<g id="a_Node000005"><a xlink:href="../../db/d06/class_param3.html" target="_top" xlink:title=" ">
<polygon fill="white" stroke="#666666" points="112.12,-464 62.37,-464 62.37,-444 112.12,-444 112.12,-464"/>
<text text-anchor="middle" x="87.25" y="-450.5" font-family="Helvetica,sans-Serif" font-size="10.00">Param3</text>
</a>
</g>
</g>
<!-- Node5&#45;&gt;Node3 -->
<g id="edge4_Node000003_Node000005" class="edge">
<title>Node5&#45;&gt;Node3</title>
<g id="a_edge4_Node000003_Node000005"><a xlink:title=" ">
<path fill="none" stroke="#9a32cd" stroke-dasharray="5,2" d="M73.73,-434.37C39.99,-385.44 -40.54,-251.75 26,-174 35,-163.48 422.56,-109.27 578.88,-87.79"/>
<polygon fill="#9a32cd" stroke="#9a32cd" points="70.82,-436.32 79.45,-442.47 76.54,-432.29 70.82,-436.32"/>
</a>
</g>
<text text-anchor="middle" x="84.37" y="-236.5" font-family="Helvetica,sans-Serif" font-size="10.00" fill="grey"> NO_SORTING</text>
<text text-anchor="middle" x="84.37" y="-224.5" font-family="Helvetica,sans-Serif" font-size="10.00" fill="grey">geomLevel</text>
<text text-anchor="middle" x="84.37" y="-212.5" font-family="Helvetica,sans-Serif" font-size="10.00" fill="grey">hierLevel</text>
<text text-anchor="start" x="26.25" y="-200.5" font-family="Helvetica,sans-Serif" font-size="10.00" fill="grey">m_CurrentSettingAlternate</text>
<text text-anchor="middle" x="84.37" y="-188.5" font-family="Helvetica,sans-Serif" font-size="10.00" fill="grey">KeyIndex</text>
<text text-anchor="middle" x="84.37" y="-176.5" font-family="Helvetica,sans-Serif" font-size="10.00" fill="grey">m_CurrentSettingKeyIndex</text>
</g>
<!-- Node5&#45;&gt;Node6 -->
<g id="edge7_Node000006_Node000005" class="edge">
<title>Node5&#45;&gt;Node6</title>
<g id="a_edge7_Node000006_Node000005"><a xlink:title=" ">
<path fill="none" stroke="#9a32cd" stroke-dasharray="5,2" d="M111.08,-437.45C147.23,-414.73 218.84,-373.1 286,-354 369.82,-330.17 402.91,-374.17 481.25,-336 492.96,-330.29 502.65,-318.55 508.44,-310.24"/>
<polygon fill="#9a32cd" stroke="#9a32cd" points="109.28,-434.44 102.72,-442.77 113.04,-440.35 109.28,-434.44"/>
</a>
</g>
<text text-anchor="middle" x="344.37" y="-416.5" font-family="Helvetica,sans-Serif" font-size="10.00" fill="grey"> NO_SORTING</text>
<text text-anchor="middle" x="344.37" y="-404.5" font-family="Helvetica,sans-Serif" font-size="10.00" fill="grey">geomLevel</text>
<text text-anchor="middle" x="344.37" y="-392.5" font-family="Helvetica,sans-Serif" font-size="10.00" fill="grey">hierLevel</text>
<text text-anchor="start" x="286.25" y="-380.5" font-family="Helvetica,sans-Serif" font-size="10.00" fill="grey">m_CurrentSettingAlternate</text>
<text text-anchor="middle" x="344.37" y="-368.5" font-family="Helvetica,sans-Serif" font-size="10.00" fill="grey">KeyIndex</text>
<text text-anchor="middle" x="344.37" y="-356.5" font-family="Helvetica,sans-Serif" font-size="10.00" fill="grey">m_CurrentSettingKeyIndex</text>
</g>
<!-- Node5&#45;&gt;Node10 -->
<g id="edge15_Node000010_Node000005" class="edge">
<title>Node5&#45;&gt;Node10</title>
<g id="a_edge15_Node000010_Node000005"><a xlink:title=" ">
<path fill="none" stroke="#9a32cd" stroke-dasharray="5,2" d="M89.03,-432.16C94.88,-378.32 118.7,-234.52 209.25,-174 245.28,-149.92 369,-146.51 435.74,-146.49"/>
<polygon fill="#9a32cd" stroke="#9a32cd" points="85.55,-431.75 88.07,-442.05 92.52,-432.43 85.55,-431.75"/>
</a>
</g>
<text text-anchor="middle" x="192.37" y="-326.5" font-family="Helvetica,sans-Serif" font-size="10.00" fill="grey"> NO_SORTING</text>
<text text-anchor="middle" x="192.37" y="-314.5" font-family="Helvetica,sans-Serif" font-size="10.00" fill="grey">geomLevel</text>
<text text-anchor="middle" x="192.37" y="-302.5" font-family="Helvetica,sans-Serif" font-size="10.00" fill="grey">hierLevel</text>
<text text-anchor="start" x="134.25" y="-290.5" font-family="Helvetica,sans-Serif" font-size="10.00" fill="grey">m_CurrentSettingAlternate</text>
<text text-anchor="middle" x="192.37" y="-278.5" font-family="Helvetica,sans-Serif" font-size="10.00" fill="grey">KeyIndex</text>
<text text-anchor="middle" x="192.37" y="-266.5" font-family="Helvetica,sans-Serif" font-size="10.00" fill="grey">m_CurrentSettingKeyIndex</text>
</g>
<!-- Node6&#45;&gt;Node3 -->
<g id="edge5_Node000003_Node000006" class="edge">
<title>Node6&#45;&gt;Node3</title>
<g id="a_edge5_Node000003_Node000006"><a xlink:title=" ">
<path fill="none" stroke="#9a32cd" stroke-dasharray="5,2" d="M543.71,-286.24C561.06,-277.32 582.11,-263.81 595.25,-246 632.86,-195.02 641.07,-115.3 642.8,-88.3"/>
<polygon fill="#9a32cd" stroke="#9a32cd" points="542.32,-283.02 534.85,-290.54 545.38,-289.32 542.32,-283.02"/>
</a>
</g>
<text text-anchor="middle" x="657.25" y="-142.5" font-family="Helvetica,sans-Serif" font-size="10.00" fill="grey"> proxyInfo</text>
</g>
<!-- Node6&#45;&gt;Node6 -->
<g id="edge8_Node000006_Node000006" class="edge">
<title>Node6&#45;&gt;Node6</title>
<g id="a_edge8_Node000006_Node000006"><a xlink:title=" ">
<path fill="none" stroke="#9a32cd" stroke-dasharray="5,2" d="M532.08,-316.07C542,-319.07 551.12,-313.71 551.12,-300 551.12,-281.72 534.9,-278.29 522.22,-289.72"/>
<polygon fill="#9a32cd" stroke="#9a32cd" points="533.92,-313.09 523.52,-311.05 530.38,-319.13 533.92,-313.09"/>
</a>
</g>
<text text-anchor="middle" x="572.12" y="-296.5" font-family="Helvetica,sans-Serif" font-size="10.00" fill="grey"> proxyInfo</text>
</g>
<!-- Node6&#45;&gt;Node10 -->
<g id="edge16_Node000010_Node000006" class="edge">
<title>Node6&#45;&gt;Node10</title>
<g id="a_edge16_Node000010_Node000006"><a xlink:title=" ">
<path fill="none" stroke="#9a32cd" stroke-dasharray="5,2" d="M495.48,-281.58C486.6,-272.04 476.93,-259.44 472.25,-246 461.31,-214.59 470.85,-174.27 476.2,-156.33"/>
<polygon fill="#9a32cd" stroke="#9a32cd" points="492.97,-284.02 502.5,-288.64 497.93,-279.08 492.97,-284.02"/>
</a>
</g>
<text text-anchor="middle" x="493.25" y="-206.5" font-family="Helvetica,sans-Serif" font-size="10.00" fill="grey"> proxyInfo</text>
</g>
<!-- Node7 -->
<g id="Node000007" class="node">
<title>Node7</title>
<g id="a_Node000007"><a xlink:href="../../d4/d04/class_class.html" target="_top" xlink:title="Super root of all classes in Enforce script.">
<polygon fill="white" stroke="#666666" points="649.62,-464 608.87,-464 608.87,-444 649.62,-444 649.62,-464"/>
<text text-anchor="middle" x="629.25" y="-450.5" font-family="Helvetica,sans-Serif" font-size="10.00">Class</text>
</a>
</g>
</g>
<!-- Node7&#45;&gt;Node3 -->
<g id="edge21_Node000003_Node000007" class="edge">
<title>Node7&#45;&gt;Node3</title>
<g id="a_edge21_Node000003_Node000007"><a xlink:title=" ">
<path fill="none" stroke="#9a32cd" stroke-dasharray="5,2" d="M661.05,-453.1C683.28,-451.35 711.8,-445.12 728.25,-426 780.77,-364.94 744.58,-326.41 749.25,-246 752.91,-183.12 771.83,-150.5 727.25,-106 719.23,-97.99 708.82,-92.36 698.09,-88.39"/>
<polygon fill="#9a32cd" stroke="#9a32cd" points="661.12,-449.59 651.3,-453.58 661.46,-456.58 661.12,-449.59"/>
</a>
</g>
<text text-anchor="middle" x="782.87" y="-206.5" font-family="Helvetica,sans-Serif" font-size="10.00" fill="grey"> m_Instance</text>
</g>
<!-- Node7&#45;&gt;Node6 -->
<g id="edge9_Node000006_Node000007" class="edge">
<title>Node7&#45;&gt;Node6</title>
<g id="a_edge9_Node000006_Node000007"><a xlink:title=" ">
<path fill="none" stroke="#9a32cd" stroke-dasharray="5,2" d="M597.58,-446.52C585.02,-442.5 571.36,-436.1 562,-426 539.19,-401.39 551.49,-385.25 539.25,-354 533.09,-338.28 524.41,-320.66 519.06,-310.22"/>
<polygon fill="#9a32cd" stroke="#9a32cd" points="596.63,-449.89 607.2,-449.17 598.49,-443.14 596.63,-449.89"/>
</a>
</g>
<text text-anchor="middle" x="587.87" y="-386.5" font-family="Helvetica,sans-Serif" font-size="10.00" fill="grey"> m_Instance</text>
</g>
<!-- Node7&#45;&gt;Node10 -->
<g id="edge17_Node000010_Node000007" class="edge">
<title>Node7&#45;&gt;Node10</title>
<g id="a_edge17_Node000010_Node000007"><a xlink:title=" ">
<path fill="none" stroke="#9a32cd" stroke-dasharray="5,2" d="M629.68,-432.23C630.42,-374.17 629.35,-211.97 595.25,-174 585.54,-163.19 551.55,-156.11 522.85,-151.93"/>
<polygon fill="#9a32cd" stroke="#9a32cd" points="626.18,-431.94 629.51,-442 633.18,-432.06 626.18,-431.94"/>
</a>
</g>
<text text-anchor="middle" x="653.87" y="-296.5" font-family="Helvetica,sans-Serif" font-size="10.00" fill="grey"> m_Instance</text>
</g>
<!-- Node8 -->
<g id="Node000008" class="node">
<title>Node8</title>
<g id="a_Node000008"><a xlink:href="../../d5/d02/classstring.html" target="_top" xlink:title=" ">
<polygon fill="white" stroke="#666666" points="523.25,-464 483.25,-464 483.25,-444 523.25,-444 523.25,-464"/>
<text text-anchor="middle" x="503.25" y="-450.5" font-family="Helvetica,sans-Serif" font-size="10.00">string</text>
</a>
</g>
</g>
<!-- Node8&#45;&gt;Node3 -->
<g id="edge22_Node000003_Node000008" class="edge">
<title>Node8&#45;&gt;Node3</title>
<g id="a_edge22_Node000003_Node000008"><a xlink:title=" ">
<path fill="none" stroke="#9a32cd" stroke-dasharray="5,2" d="M535,-449.74C589.34,-444.02 694.87,-432.17 700.25,-426 714.35,-409.84 711.77,-219.12 682.25,-136 675.59,-117.24 661.17,-98.84 651.85,-88.23"/>
<polygon fill="#9a32cd" stroke="#9a32cd" points="534.7,-446.25 525.12,-450.77 535.43,-453.22 534.7,-446.25"/>
</a>
</g>
<text text-anchor="middle" x="719.87" y="-206.5" font-family="Helvetica,sans-Serif" font-size="10.00" fill="grey"> m_Test</text>
</g>
<!-- Node8&#45;&gt;Node6 -->
<g id="edge10_Node000006_Node000008" class="edge">
<title>Node8&#45;&gt;Node6</title>
<g id="a_edge10_Node000006_Node000008"><a xlink:title=" ">
<path fill="none" stroke="#9a32cd" stroke-dasharray="5,2" d="M502.31,-432.27C501.65,-412.2 501.32,-380.94 504,-354 505.54,-338.52 509.39,-320.83 511.91,-310.31"/>
<polygon fill="#9a32cd" stroke="#9a32cd" points="498.8,-432.32 502.69,-442.18 505.8,-432.05 498.8,-432.32"/>
</a>
</g>
<text text-anchor="middle" x="520.87" y="-386.5" font-family="Helvetica,sans-Serif" font-size="10.00" fill="grey"> m_Test</text>
</g>
<!-- Node8&#45;&gt;Node8 -->
<g id="edge11_Node000008_Node000008" class="edge">
<title>Node8&#45;&gt;Node8</title>
<g id="a_edge11_Node000008_Node000008"><a xlink:title=" ">
<path fill="none" stroke="#9a32cd" stroke-dasharray="5,2" d="M529.02,-465.91C535.97,-465.28 541.25,-461.31 541.25,-454 541.25,-443.12 529.55,-439.64 518.07,-443.55"/>
<polygon fill="#9a32cd" stroke="#9a32cd" points="529.95,-462.5 519.57,-464.65 529.02,-469.44 529.95,-462.5"/>
</a>
</g>
<text text-anchor="middle" x="557" y="-450.5" font-family="Helvetica,sans-Serif" font-size="10.00" fill="grey"> Empty</text>
</g>
<!-- Node8&#45;&gt;Node10 -->
<g id="edge18_Node000010_Node000008" class="edge">
<title>Node8&#45;&gt;Node10</title>
<g id="a_edge18_Node000010_Node000008"><a xlink:title=" ">
<path fill="none" stroke="#9a32cd" stroke-dasharray="5,2" d="M493.31,-433.45C479.36,-405.57 455.18,-355.6 451,-336 435.95,-265.41 437.97,-241.97 462.25,-174 464.49,-167.74 468.36,-161.42 471.85,-156.46"/>
<polygon fill="#9a32cd" stroke="#9a32cd" points="490.11,-434.87 497.74,-442.22 496.36,-431.72 490.11,-434.87"/>
</a>
</g>
<text text-anchor="middle" x="467.87" y="-296.5" font-family="Helvetica,sans-Serif" font-size="10.00" fill="grey"> m_Test</text>
</g>
<!-- Node9 -->
<g id="Node000009" class="node">
<title>Node9</title>
<g id="a_Node000009"><a xlink:href="../../dd/d0a/class_widget.html" target="_top" xlink:title=" ">
<polygon fill="white" stroke="#666666" points="862.62,-464 815.87,-464 815.87,-444 862.62,-444 862.62,-464"/>
<text text-anchor="middle" x="839.25" y="-450.5" font-family="Helvetica,sans-Serif" font-size="10.00">Widget</text>
</a>
</g>
</g>
<!-- Node9&#45;&gt;Node3 -->
<g id="edge23_Node000003_Node000009" class="edge">
<title>Node9&#45;&gt;Node3</title>
<g id="a_edge23_Node000003_Node000009"><a xlink:title=" ">
<path fill="none" stroke="#9a32cd" stroke-dasharray="5,2" d="M853.23,-434.57C855.05,-431.78 856.78,-428.87 858.25,-426 877.5,-388.33 882.26,-377.73 889.25,-336 901.49,-262.86 897.18,-230.59 849.25,-174 813.8,-132.14 796.34,-128.36 746.25,-106 729.37,-98.46 709.96,-92.69 692.57,-88.46"/>
<polygon fill="#9a32cd" stroke="#9a32cd" points="850.41,-432.5 847.49,-442.68 856.12,-436.54 850.41,-432.5"/>
</a>
</g>
<text text-anchor="middle" x="908.62" y="-206.5" font-family="Helvetica,sans-Serif" font-size="10.00" fill="grey"> m_Root</text>
</g>
<!-- Node9&#45;&gt;Node6 -->
<g id="edge12_Node000006_Node000009" class="edge">
<title>Node9&#45;&gt;Node6</title>
<g id="a_edge12_Node000006_Node000009"><a xlink:title=" ">
<path fill="none" stroke="#9a32cd" stroke-dasharray="5,2" d="M809.28,-438.99C743.47,-408.2 587.82,-335.41 533.42,-309.97"/>
<polygon fill="#9a32cd" stroke="#9a32cd" points="807.5,-442.01 818.04,-443.08 810.46,-435.67 807.5,-442.01"/>
</a>
</g>
<text text-anchor="middle" x="794.62" y="-386.5" font-family="Helvetica,sans-Serif" font-size="10.00" fill="grey"> m_Root</text>
</g>
<!-- Node9&#45;&gt;Node10 -->
<g id="edge19_Node000010_Node000009" class="edge">
<title>Node9&#45;&gt;Node10</title>
<g id="a_edge19_Node000010_Node000009"><a xlink:title=" ">
<path fill="none" stroke="#9a32cd" stroke-dasharray="5,2" d="M841.53,-432.45C847.48,-374.31 860.69,-210.44 825.25,-174 820.04,-168.64 614.88,-155.36 522.99,-149.66"/>
<polygon fill="#9a32cd" stroke="#9a32cd" points="838.06,-431.91 840.48,-442.23 845.02,-432.65 838.06,-431.91"/>
</a>
</g>
<text text-anchor="middle" x="866.62" y="-296.5" font-family="Helvetica,sans-Serif" font-size="10.00" fill="grey"> m_Root</text>
</g>
<!-- Node10&#45;&gt;Node3 -->
<g id="edge24_Node000003_Node000010" class="edge">
<title>Node10&#45;&gt;Node3</title>
<g id="a_edge24_Node000003_Node000010"><a xlink:title=" ">
<path fill="none" stroke="#9a32cd" stroke-dasharray="5,2" d="M509.31,-130.78C525.94,-123.09 547.08,-113.64 566.25,-106 582.04,-99.71 599.95,-93.38 614.51,-88.43"/>
<polygon fill="#9a32cd" stroke="#9a32cd" points="508.05,-127.5 500.46,-134.89 511,-133.85 508.05,-127.5"/>
</a>
</g>
<text text-anchor="middle" x="597.75" y="-108.5" font-family="Helvetica,sans-Serif" font-size="10.00" fill="grey"> m_Subgroups</text>
</g>
<!-- Node10&#45;&gt;Node6 -->
<g id="edge13_Node000006_Node000010" class="edge">
<title>Node10&#45;&gt;Node6</title>
<g id="a_edge13_Node000006_Node000010"><a xlink:title=" ">
<path fill="none" stroke="#9a32cd" stroke-dasharray="5,2" d="M509.59,-163.25C513.06,-166.35 516.12,-169.93 518.25,-174 538.5,-212.66 524.49,-267.67 517.53,-289.52"/>
<polygon fill="#9a32cd" stroke="#9a32cd" points="511.73,-160.47 501.6,-157.38 507.58,-166.12 511.73,-160.47"/>
</a>
</g>
<text text-anchor="middle" x="559.75" y="-206.5" font-family="Helvetica,sans-Serif" font-size="10.00" fill="grey"> m_Subgroups</text>
</g>
<!-- Node10&#45;&gt;Node10 -->
<g id="edge20_Node000010_Node000010" class="edge">
<title>Node10&#45;&gt;Node10</title>
<g id="a_edge20_Node000010_Node000010"><a xlink:title=" ">
<path fill="none" stroke="#9a32cd" stroke-dasharray="5,2" d="M533.88,-150.76C537.98,-149.7 540.5,-148.11 540.5,-146 540.5,-142.35 532.96,-140.26 522.74,-139.75"/>
<polygon fill="#9a32cd" stroke="#9a32cd" points="533.69,-147.26 524.24,-152.05 534.62,-154.19 533.69,-147.26"/>
</a>
</g>
<text text-anchor="middle" x="572" y="-142.5" font-family="Helvetica,sans-Serif" font-size="10.00" fill="grey"> m_Subgroups</text>
</g>
</g>
</svg>

<g id="navigator" transform="translate(0 0)" fill="#404254">
  <rect fill="#f2f5e9" fill-opacity="0.5" stroke="#606060" stroke-width=".5" x="0" y="0" width="60" height="60"/>
  <use id="zoomplus" xlink:href="#zoomPlus" x="17" y="9" onmousedown="handleZoom(evt,'in')"/>
  <use id="zoomminus" xlink:href="#zoomMin" x="42" y="9" onmousedown="handleZoom(evt,'out')"/>
  <use id="reset" xlink:href="#resetDef" x="30" y="36" onmousedown="handleReset()"/>
   <use id="arrowup" xlink:href="#arrowUp" x="0" y="0" onmousedown="handlePan(0,-1)"/>
  <use id="arrowright" xlink:href="#arrowRight" x="0" y="0" onmousedown="handlePan(1,0)"/>
  <use id="arrowdown" xlink:href="#arrowDown" x="0" y="0" onmousedown="handlePan(0,1)"/>
  <use id="arrowleft" xlink:href="#arrowLeft" x="0" y="0" onmousedown="handlePan(-1,0)"/>
</g>
<svg viewBox="0 0 15 15" width="100%" height="30px" preserveAspectRatio="xMaxYMin meet">
 <g id="arrow_out" transform="scale(0.3 0.3)">
  <a xlink:href="class_mod_loader__coll__graph_org.svg" target="_base">
   <rect id="button" ry="5" rx="5" y="6" x="6" height="38" width="38"
        fill="#f2f5e9" fill-opacity="0.5" stroke="#606060" stroke-width="1.0"/>
   <path id="arrow"
     d="M 11.500037,31.436501 C 11.940474,20.09759 22.043105,11.32322 32.158766,21.979434 L 37.068811,17.246167 C 37.068811,17.246167 37.088388,32 37.088388,32 L 22.160133,31.978069 C 22.160133,31.978069 26.997745,27.140456 26.997745,27.140456 C 18.528582,18.264221 13.291696,25.230495 11.500037,31.436501 z"
     style="fill:#404040;"/>
  </a>
 </g>
</svg>

<style type='text/css'>
<![CDATA[
[data-mouse-over-selected='false'] { opacity: 0.7; }
[data-mouse-over-selected='true']  { opacity: 1.0; }
]]>
</style>
<script type="application/ecmascript"><![CDATA[
document.addEventListener('DOMContentLoaded', (event) => {
  highlightEdges();
  highlightAdjacentNodes();
});
]]></script>
</svg>
