<?xml version="1.0" encoding="UTF-8" standalone="no"?>
<!DOCTYPE svg PUBLIC "-//W3C//DTD SVG 1.1//EN"
 "http://www.w3.org/Graphics/SVG/1.1/DTD/svg11.dtd">
<!-- Generated by graphviz version 11.0.0 (20240428.1522)
 -->
<!-- Title: EffEngineSmoke Pages: 1 -->
<svg width="914pt" height="362pt"
 viewBox="0.00 0.00 913.50 362.00" xmlns="http://www.w3.org/2000/svg" xmlns:xlink="http://www.w3.org/1999/xlink">
<g id="graph0" class="graph" transform="scale(1 1) rotate(0) translate(4 358)">
<title>EffEngineSmoke</title>
<!-- Node1 -->
<g id="Node000001" class="node">
<title>Node1</title>
<g id="a_Node000001"><a xlink:title=" ">
<polygon fill="#999999" stroke="#666666" points="114,-20 26,-20 26,0 114,0 114,-20"/>
<text text-anchor="middle" x="70" y="-6.5" font-family="Helvetica,sans-Serif" font-size="10.00">EffEngineSmoke</text>
</a>
</g>
</g>
<!-- Node2 -->
<g id="Node000002" class="node">
<title>Node2</title>
<g id="a_Node000002"><a xlink:href="../../d6/d01/class_eff_vehicle_smoke.html" target="_top" xlink:title=" ">
<polygon fill="white" stroke="#666666" points="293.12,-77 202.88,-77 202.88,-57 293.12,-57 293.12,-77"/>
<text text-anchor="middle" x="248" y="-63.5" font-family="Helvetica,sans-Serif" font-size="10.00">EffVehicleSmoke</text>
</a>
</g>
</g>
<!-- Node2&#45;&gt;Node1 -->
<g id="edge1_Node000001_Node000002" class="edge">
<title>Node2&#45;&gt;Node1</title>
<g id="a_edge1_Node000001_Node000002"><a xlink:title=" ">
<path fill="none" stroke="#8b1a1a" d="M206.47,-53.17C174.04,-43.15 129.72,-29.45 100.5,-20.42"/>
<polygon fill="#8b1a1a" stroke="#8b1a1a" points="205.37,-56.49 215.95,-56.1 207.43,-49.8 205.37,-56.49"/>
</a>
</g>
</g>
<!-- Node3 -->
<g id="Node000003" class="node">
<title>Node3</title>
<g id="a_Node000003"><a xlink:href="../../de/d07/class_effect_particle.html" target="_top" xlink:title="Wrapper class for managing particles through SEffectManager.">
<polygon fill="white" stroke="#666666" points="459.88,-136 386.12,-136 386.12,-116 459.88,-116 459.88,-136"/>
<text text-anchor="middle" x="423" y="-122.5" font-family="Helvetica,sans-Serif" font-size="10.00">EffectParticle</text>
</a>
</g>
</g>
<!-- Node3&#45;&gt;Node2 -->
<g id="edge2_Node000002_Node000003" class="edge">
<title>Node3&#45;&gt;Node2</title>
<g id="a_edge2_Node000002_Node000003"><a xlink:title=" ">
<path fill="none" stroke="#8b1a1a" d="M383.23,-112.05C350.87,-101.51 305.96,-86.88 276.94,-77.43"/>
<polygon fill="#8b1a1a" stroke="#8b1a1a" points="382.07,-115.35 392.66,-115.12 384.24,-108.69 382.07,-115.35"/>
</a>
</g>
</g>
<!-- Node4 -->
<g id="Node000004" class="node">
<title>Node4</title>
<g id="a_Node000004"><a xlink:title=" ">
<polygon fill="white" stroke="#666666" points="821.38,-208 780.62,-208 780.62,-188 821.38,-188 821.38,-208"/>
<text text-anchor="middle" x="801" y="-194.5" font-family="Helvetica,sans-Serif" font-size="10.00">Effect</text>
</a>
</g>
</g>
<!-- Node4&#45;&gt;Node3 -->
<g id="edge3_Node000003_Node000004" class="edge">
<title>Node4&#45;&gt;Node3</title>
<g id="a_edge3_Node000003_Node000004"><a xlink:title=" ">
<path fill="none" stroke="#8b1a1a" d="M770.15,-184.15C746.66,-174.89 713.31,-162.87 683,-156 604.82,-138.29 510.85,-131.22 460.03,-128.53"/>
<polygon fill="#8b1a1a" stroke="#8b1a1a" points="768.53,-187.27 779.12,-187.75 771.14,-180.77 768.53,-187.27"/>
</a>
</g>
</g>
<!-- Node5 -->
<g id="Node000005" class="node">
<title>Node5</title>
<g id="a_Node000005"><a xlink:href="../../de/d05/class_particle.html" target="_top" xlink:title="Legacy way of using particles in the game.">
<polygon fill="white" stroke="#666666" points="447.5,-208 398.5,-208 398.5,-188 447.5,-188 447.5,-208"/>
<text text-anchor="middle" x="423" y="-194.5" font-family="Helvetica,sans-Serif" font-size="10.00">Particle</text>
</a>
</g>
</g>
<!-- Node5&#45;&gt;Node3 -->
<g id="edge4_Node000003_Node000005" class="edge">
<title>Node5&#45;&gt;Node3</title>
<g id="a_edge4_Node000003_Node000005"><a xlink:title=" ">
<path fill="none" stroke="#9a32cd" stroke-dasharray="5,2" d="M423,-176.17C423,-162.92 423,-146.41 423,-136.29"/>
<polygon fill="#9a32cd" stroke="#9a32cd" points="419.5,-176.05 423,-186.05 426.5,-176.05 419.5,-176.05"/>
</a>
</g>
<text text-anchor="middle" x="455.25" y="-158.5" font-family="Helvetica,sans-Serif" font-size="10.00" fill="grey"> m_ParticleObj</text>
</g>
<!-- Node6 -->
<g id="Node000006" class="node">
<title>Node6</title>
<g id="a_Node000006"><a xlink:title=" ">
<polygon fill="white" stroke="#666666" points="432.75,-340 361.25,-340 361.25,-320 432.75,-320 432.75,-340"/>
<text text-anchor="middle" x="397" y="-326.5" font-family="Helvetica,sans-Serif" font-size="10.00">ParticleBase</text>
</a>
</g>
</g>
<!-- Node6&#45;&gt;Node5 -->
<g id="edge5_Node000005_Node000006" class="edge">
<title>Node6&#45;&gt;Node5</title>
<g id="a_edge5_Node000005_Node000006"><a xlink:title=" ">
<path fill="none" stroke="#8b1a1a" d="M401.09,-308.57C406.81,-279.95 416.98,-229.08 421.15,-208.26"/>
<polygon fill="#8b1a1a" stroke="#8b1a1a" points="397.7,-307.67 399.17,-318.17 404.56,-309.05 397.7,-307.67"/>
</a>
</g>
</g>
<!-- Node7 -->
<g id="Node000007" class="node">
<title>Node7</title>
<g id="a_Node000007"><a xlink:href="../../db/d06/class_param3.html" target="_top" xlink:title=" ">
<polygon fill="white" stroke="#666666" points="827.88,-340 778.12,-340 778.12,-320 827.88,-320 827.88,-340"/>
<text text-anchor="middle" x="803" y="-326.5" font-family="Helvetica,sans-Serif" font-size="10.00">Param3</text>
</a>
</g>
</g>
<!-- Node7&#45;&gt;Node3 -->
<g id="edge14_Node000003_Node000007" class="edge">
<title>Node7&#45;&gt;Node3</title>
<g id="a_edge14_Node000003_Node000007"><a xlink:title=" ">
<path fill="none" stroke="#9a32cd" stroke-dasharray="5,2" d="M824.85,-312.55C832.04,-305.82 839.17,-297.4 843,-288 860.23,-245.67 862.63,-218 830,-186 778.01,-135 550.43,-127.82 460.12,-127"/>
<polygon fill="#9a32cd" stroke="#9a32cd" points="823.04,-309.49 817.72,-318.65 827.59,-314.81 823.04,-309.49"/>
</a>
</g>
<text text-anchor="middle" x="876.25" y="-194.5" font-family="Helvetica,sans-Serif" font-size="10.00" fill="grey"> m_ParticleID</text>
</g>
<!-- Node7&#45;&gt;Node5 -->
<g id="edge6_Node000005_Node000007" class="edge">
<title>Node7&#45;&gt;Node5</title>
<g id="a_edge6_Node000005_Node000007"><a xlink:title=" ">
<path fill="none" stroke="#9a32cd" stroke-dasharray="5,2" d="M787.02,-311.37C764.56,-287.87 721.2,-247.06 675,-228 634.19,-211.16 502.73,-202.91 447.64,-200.12"/>
<polygon fill="#9a32cd" stroke="#9a32cd" points="784.4,-313.69 793.78,-318.61 789.52,-308.91 784.4,-313.69"/>
</a>
</g>
<text text-anchor="middle" x="800" y="-266.5" font-family="Helvetica,sans-Serif" font-size="10.00" fill="grey"> MAX_EMITORS</text>
<text text-anchor="middle" x="800" y="-254.5" font-family="Helvetica,sans-Serif" font-size="10.00" fill="grey">m_ParticleID</text>
<text text-anchor="middle" x="800" y="-242.5" font-family="Helvetica,sans-Serif" font-size="10.00" fill="grey">m_PreviousFrame</text>
</g>
<!-- Node8 -->
<g id="Node000008" class="node">
<title>Node8</title>
<g id="a_Node000008"><a xlink:href="../../d4/d03/classfloat.html" target="_top" xlink:title=" ">
<polygon fill="white" stroke="#666666" points="36,-340 2,-340 2,-320 36,-320 36,-340"/>
<text text-anchor="middle" x="19" y="-326.5" font-family="Helvetica,sans-Serif" font-size="10.00">float</text>
</a>
</g>
</g>
<!-- Node8&#45;&gt;Node1 -->
<g id="edge18_Node000001_Node000008" class="edge">
<title>Node8&#45;&gt;Node1</title>
<g id="a_edge18_Node000001_Node000008"><a xlink:title=" ">
<path fill="none" stroke="#9a32cd" stroke-dasharray="5,2" d="M14.12,-308.46C8.49,-282.95 0,-238.03 0,-199 0,-199 0,-199 0,-66 0,-43.59 22.46,-28.92 41.93,-20.41"/>
<polygon fill="#9a32cd" stroke="#9a32cd" points="10.69,-309.17 16.33,-318.13 17.51,-307.6 10.69,-309.17"/>
</a>
</g>
<text text-anchor="middle" x="37.12" y="-128.5" font-family="Helvetica,sans-Serif" font-size="10.00" fill="grey"> m_Time</text>
<text text-anchor="middle" x="37.12" y="-116.5" font-family="Helvetica,sans-Serif" font-size="10.00" fill="grey">m_UpdateInterval</text>
</g>
<!-- Node8&#45;&gt;Node5 -->
<g id="edge7_Node000005_Node000008" class="edge">
<title>Node8&#45;&gt;Node5</title>
<g id="a_edge7_Node000005_Node000008"><a xlink:title=" ">
<path fill="none" stroke="#9a32cd" stroke-dasharray="5,2" d="M22.2,-308.55C27.11,-284.8 38.94,-246.52 66,-228 91.36,-210.64 311.42,-213.07 342,-210 360.92,-208.1 382.23,-205.18 398.24,-202.82"/>
<polygon fill="#9a32cd" stroke="#9a32cd" points="18.78,-307.8 20.45,-318.26 25.67,-309.04 18.78,-307.8"/>
</a>
</g>
<text text-anchor="middle" x="103.5" y="-266.5" font-family="Helvetica,sans-Serif" font-size="10.00" fill="grey"> m_Lifetime</text>
<text text-anchor="middle" x="103.5" y="-254.5" font-family="Helvetica,sans-Serif" font-size="10.00" fill="grey">m_MaxOriInterval</text>
<text text-anchor="middle" x="103.5" y="-242.5" font-family="Helvetica,sans-Serif" font-size="10.00" fill="grey">m_MaxOriWiggle</text>
</g>
<!-- Node8&#45;&gt;Node8 -->
<g id="edge8_Node000008_Node000008" class="edge">
<title>Node8&#45;&gt;Node8</title>
<g id="a_edge8_Node000008_Node000008"><a xlink:title=" ">
<path fill="none" stroke="#9a32cd" stroke-dasharray="5,2" d="M40.68,-343.5C48.06,-343.58 54,-339.08 54,-330 54,-316.64 41.15,-313.2 29.75,-319.67"/>
<polygon fill="#9a32cd" stroke="#9a32cd" points="41.78,-340.17 31.2,-340.75 39.83,-346.9 41.78,-340.17"/>
</a>
</g>
<text text-anchor="middle" x="76.12" y="-338.5" font-family="Helvetica,sans-Serif" font-size="10.00" fill="grey"> LOWEST</text>
<text text-anchor="middle" x="76.12" y="-326.5" font-family="Helvetica,sans-Serif" font-size="10.00" fill="grey">MAX</text>
<text text-anchor="middle" x="76.12" y="-314.5" font-family="Helvetica,sans-Serif" font-size="10.00" fill="grey">MIN</text>
</g>
<!-- Node9 -->
<g id="Node000009" class="node">
<title>Node9</title>
<g id="a_Node000009"><a xlink:href="../../d9/d09/classbool.html" target="_top" xlink:title=" ">
<polygon fill="white" stroke="#666666" points="154,-340 120,-340 120,-320 154,-320 154,-340"/>
<text text-anchor="middle" x="137" y="-326.5" font-family="Helvetica,sans-Serif" font-size="10.00">bool</text>
</a>
</g>
</g>
<!-- Node9&#45;&gt;Node3 -->
<g id="edge16_Node000003_Node000009" class="edge">
<title>Node9&#45;&gt;Node3</title>
<g id="a_edge16_Node000003_Node000009"><a xlink:title=" ">
<path fill="none" stroke="#9a32cd" stroke-dasharray="5,2" d="M133.2,-308.58C130.26,-287.32 128.53,-253.6 141,-228 153.64,-202.06 164.86,-199.22 190.5,-186 254.53,-152.98 338.2,-137.65 385.72,-131.17"/>
<polygon fill="#9a32cd" stroke="#9a32cd" points="129.72,-308.97 134.78,-318.28 136.62,-307.84 129.72,-308.97"/>
</a>
</g>
<text text-anchor="start" x="191" y="-200.5" font-family="Helvetica,sans-Serif" font-size="10.00" fill="grey"> m_ForceRotationRelativeTo</text>
<text text-anchor="middle" x="251.75" y="-188.5" font-family="Helvetica,sans-Serif" font-size="10.00" fill="grey">World</text>
</g>
<!-- Node9&#45;&gt;Node5 -->
<g id="edge9_Node000005_Node000009" class="edge">
<title>Node9&#45;&gt;Node5</title>
<g id="a_edge9_Node000005_Node000009"><a xlink:title=" ">
<path fill="none" stroke="#9a32cd" stroke-dasharray="5,2" d="M139.54,-308.46C143.62,-284.94 154,-247.19 179.75,-228 208.84,-206.32 306,-214.44 342,-210 360.87,-207.67 382.18,-204.77 398.2,-202.53"/>
<polygon fill="#9a32cd" stroke="#9a32cd" points="136.12,-307.67 138.12,-318.08 143.04,-308.7 136.12,-307.67"/>
</a>
</g>
<text text-anchor="start" x="180" y="-278.5" font-family="Helvetica,sans-Serif" font-size="10.00" fill="grey"> m_ForceOrientationRelative</text>
<text text-anchor="middle" x="241.12" y="-266.5" font-family="Helvetica,sans-Serif" font-size="10.00" fill="grey">ToWorld</text>
<text text-anchor="middle" x="241.12" y="-254.5" font-family="Helvetica,sans-Serif" font-size="10.00" fill="grey">m_IsRepeat</text>
<text text-anchor="middle" x="241.12" y="-242.5" font-family="Helvetica,sans-Serif" font-size="10.00" fill="grey">m_MarkedForDeletion</text>
<text text-anchor="middle" x="241.12" y="-230.5" font-family="Helvetica,sans-Serif" font-size="10.00" fill="grey">m_WiggleProcessing</text>
</g>
<!-- Node10 -->
<g id="Node000010" class="node">
<title>Node10</title>
<g id="a_Node000010"><a xlink:href="../../d7/d0c/classvector.html" target="_top" xlink:title=" ">
<polygon fill="white" stroke="#666666" points="636.75,-340 595.25,-340 595.25,-320 636.75,-320 636.75,-340"/>
<text text-anchor="middle" x="616" y="-326.5" font-family="Helvetica,sans-Serif" font-size="10.00">vector</text>
</a>
</g>
</g>
<!-- Node10&#45;&gt;Node3 -->
<g id="edge15_Node000003_Node000010" class="edge">
<title>Node10&#45;&gt;Node3</title>
<g id="a_edge15_Node000003_Node000010"><a xlink:title=" ">
<path fill="none" stroke="#9a32cd" stroke-dasharray="5,2" d="M646.5,-313.69C656.15,-307.19 665.67,-298.62 671,-288 682.96,-264.17 685.88,-250.13 671,-228 623.39,-157.21 516.61,-136.01 459.95,-129.68"/>
<polygon fill="#9a32cd" stroke="#9a32cd" points="644.98,-310.52 638.26,-318.72 648.62,-316.5 644.98,-310.52"/>
</a>
</g>
<text text-anchor="middle" x="702.88" y="-200.5" font-family="Helvetica,sans-Serif" font-size="10.00" fill="grey"> m_Orientation</text>
<text text-anchor="middle" x="702.88" y="-188.5" font-family="Helvetica,sans-Serif" font-size="10.00" fill="grey">m_ParticleOrientation</text>
</g>
<!-- Node10&#45;&gt;Node5 -->
<g id="edge10_Node000005_Node000010" class="edge">
<title>Node10&#45;&gt;Node5</title>
<g id="a_edge10_Node000005_Node000010"><a xlink:title=" ">
<path fill="none" stroke="#9a32cd" stroke-dasharray="5,2" d="M584.7,-315.72C571.9,-308.99 557.82,-299.73 548,-288 529.66,-266.1 546.07,-247.28 525,-228 503.81,-208.62 470.57,-202.09 447.83,-199.94"/>
<polygon fill="#9a32cd" stroke="#9a32cd" points="583.15,-318.86 593.67,-320.11 586.23,-312.57 583.15,-318.86"/>
</a>
</g>
<text text-anchor="middle" x="609.5" y="-278.5" font-family="Helvetica,sans-Serif" font-size="10.00" fill="grey"> m_DefaultOri</text>
<text text-anchor="middle" x="609.5" y="-266.5" font-family="Helvetica,sans-Serif" font-size="10.00" fill="grey">m_DefaultPos</text>
<text text-anchor="middle" x="609.5" y="-254.5" font-family="Helvetica,sans-Serif" font-size="10.00" fill="grey">m_DefaultWorldOri</text>
<text text-anchor="middle" x="609.5" y="-242.5" font-family="Helvetica,sans-Serif" font-size="10.00" fill="grey">m_DefaultWorldPos</text>
<text text-anchor="middle" x="609.5" y="-230.5" font-family="Helvetica,sans-Serif" font-size="10.00" fill="grey">m_GlobalPosPreviousFrame</text>
</g>
<!-- Node10&#45;&gt;Node10 -->
<g id="edge11_Node000010_Node000010" class="edge">
<title>Node10&#45;&gt;Node10</title>
<g id="a_edge11_Node000010_Node000010"><a xlink:title=" ">
<path fill="none" stroke="#9a32cd" stroke-dasharray="5,2" d="M638.87,-343.46C647.56,-343.98 654.75,-339.5 654.75,-330 654.75,-316.64 640.52,-313.2 627.9,-319.67"/>
<polygon fill="#9a32cd" stroke="#9a32cd" points="639.93,-340.12 629.36,-340.75 638.01,-346.86 639.93,-340.12"/>
</a>
</g>
<text text-anchor="middle" x="672" y="-344.5" font-family="Helvetica,sans-Serif" font-size="10.00" fill="grey"> Aside</text>
<text text-anchor="middle" x="672" y="-332.5" font-family="Helvetica,sans-Serif" font-size="10.00" fill="grey">Forward</text>
<text text-anchor="middle" x="672" y="-320.5" font-family="Helvetica,sans-Serif" font-size="10.00" fill="grey">Up</text>
<text text-anchor="middle" x="672" y="-308.5" font-family="Helvetica,sans-Serif" font-size="10.00" fill="grey">Zero</text>
</g>
<!-- Node11 -->
<g id="Node000011" class="node">
<title>Node11</title>
<g id="a_Node000011"><a xlink:href="../../d8/d08/class_timer.html" target="_top" xlink:title=" ">
<polygon fill="white" stroke="#666666" points="491,-340 451,-340 451,-320 491,-320 491,-340"/>
<text text-anchor="middle" x="471" y="-326.5" font-family="Helvetica,sans-Serif" font-size="10.00">Timer</text>
</a>
</g>
</g>
<!-- Node11&#45;&gt;Node5 -->
<g id="edge12_Node000005_Node000011" class="edge">
<title>Node11&#45;&gt;Node5</title>
<g id="a_edge12_Node000005_Node000011"><a xlink:title=" ">
<path fill="none" stroke="#9a32cd" stroke-dasharray="5,2" d="M458.48,-310.04C454.41,-303.28 450.14,-295.49 447,-288 435.32,-260.1 427.8,-224.89 424.67,-208.36"/>
<polygon fill="#9a32cd" stroke="#9a32cd" points="455.41,-311.74 463.71,-318.32 461.33,-308 455.41,-311.74"/>
</a>
</g>
<text text-anchor="middle" x="486" y="-254.5" font-family="Helvetica,sans-Serif" font-size="10.00" fill="grey"> m_RandomizeOri</text>
</g>
<!-- Node12 -->
<g id="Node000012" class="node">
<title>Node12</title>
<g id="a_Node000012"><a xlink:href="../../d8/d03/class_object.html" target="_top" xlink:title=" ">
<polygon fill="white" stroke="#666666" points="329.25,-340 284.75,-340 284.75,-320 329.25,-320 329.25,-340"/>
<text text-anchor="middle" x="307" y="-326.5" font-family="Helvetica,sans-Serif" font-size="10.00">Object</text>
</a>
</g>
</g>
<!-- Node12&#45;&gt;Node3 -->
<g id="edge17_Node000003_Node000012" class="edge">
<title>Node12&#45;&gt;Node3</title>
<g id="a_edge17_Node000003_Node000012"><a xlink:title=" ">
<path fill="none" stroke="#9a32cd" stroke-dasharray="5,2" d="M302.83,-308.64C299.48,-287.67 296.83,-254.41 307,-228 324.37,-182.9 375.17,-151.08 403.44,-136.31"/>
<polygon fill="#9a32cd" stroke="#9a32cd" points="299.34,-308.98 304.58,-318.19 306.22,-307.73 299.34,-308.98"/>
</a>
</g>
<text text-anchor="middle" x="356.5" y="-194.5" font-family="Helvetica,sans-Serif" font-size="10.00" fill="grey"> m_Object</text>
</g>
<!-- Node12&#45;&gt;Node5 -->
<g id="edge13_Node000005_Node000012" class="edge">
<title>Node12&#45;&gt;Node5</title>
<g id="a_edge13_Node000005_Node000012"><a xlink:title=" ">
<path fill="none" stroke="#9a32cd" stroke-dasharray="5,2" d="M305.4,-308.25C304.85,-285.68 307.58,-249.9 327.5,-228 345.46,-208.26 376.37,-201.78 398.15,-199.74"/>
<polygon fill="#9a32cd" stroke="#9a32cd" points="301.9,-308.22 305.91,-318.02 308.89,-307.86 301.9,-308.22"/>
</a>
</g>
<text text-anchor="middle" x="363.75" y="-260.5" font-family="Helvetica,sans-Serif" font-size="10.00" fill="grey"> m_ParentObject</text>
<text text-anchor="middle" x="363.75" y="-248.5" font-family="Helvetica,sans-Serif" font-size="10.00" fill="grey">m_ParticleEffect</text>
</g>
</g>
</svg>
