<?xml version="1.0" encoding="UTF-8" standalone="no"?>
<!DOCTYPE svg PUBLIC "-//W3C//DTD SVG 1.1//EN"
 "http://www.w3.org/Graphics/SVG/1.1/DTD/svg11.dtd">
<!-- Generated by graphviz version 11.0.0 (20240428.1522)
 -->
<!-- Title: ActionWorldFlagActionSwitch Pages: 1 -->
<svg width="153pt" height="196pt"
 viewBox="0.00 0.00 153.00 196.00" xmlns="http://www.w3.org/2000/svg" xmlns:xlink="http://www.w3.org/1999/xlink">
<g id="graph0" class="graph" transform="scale(1 1) rotate(0) translate(4 192)">
<title>ActionWorldFlagActionSwitch</title>
<!-- Node1 -->
<g id="Node000001" class="node">
<title>Node1</title>
<g id="a_Node000001"><a xlink:title=" ">
<polygon fill="#999999" stroke="#666666" points="145,-20 0,-20 0,0 145,0 145,-20"/>
<text text-anchor="middle" x="72.5" y="-6.5" font-family="Helvetica,sans-Serif" font-size="10.00">ActionWorldFlagActionSwitch</text>
</a>
</g>
</g>
<!-- Node2 -->
<g id="Node000002" class="node">
<title>Node2</title>
<g id="a_Node000002"><a xlink:href="../../d1/d01/class_action_single_use_base.html" target="_top" xlink:title=" ">
<polygon fill="white" stroke="#666666" points="127.75,-76 17.25,-76 17.25,-56 127.75,-56 127.75,-76"/>
<text text-anchor="middle" x="72.5" y="-62.5" font-family="Helvetica,sans-Serif" font-size="10.00">ActionSingleUseBase</text>
</a>
</g>
</g>
<!-- Node2&#45;&gt;Node1 -->
<g id="edge1_Node000001_Node000002" class="edge">
<title>Node2&#45;&gt;Node1</title>
<g id="a_edge1_Node000001_Node000002"><a xlink:title=" ">
<path fill="none" stroke="#8b1a1a" d="M72.5,-44.13C72.5,-35.9 72.5,-26.85 72.5,-20.3"/>
<polygon fill="#8b1a1a" stroke="#8b1a1a" points="69,-44.08 72.5,-54.08 76,-44.08 69,-44.08"/>
</a>
</g>
</g>
<!-- Node3 -->
<g id="Node000003" class="node">
<title>Node3</title>
<g id="a_Node000003"><a xlink:href="../../d7/d04/class_animated_action_base.html" target="_top" xlink:title=" ">
<polygon fill="white" stroke="#666666" points="126.25,-132 18.75,-132 18.75,-112 126.25,-112 126.25,-132"/>
<text text-anchor="middle" x="72.5" y="-118.5" font-family="Helvetica,sans-Serif" font-size="10.00">AnimatedActionBase</text>
</a>
</g>
</g>
<!-- Node3&#45;&gt;Node2 -->
<g id="edge2_Node000002_Node000003" class="edge">
<title>Node3&#45;&gt;Node2</title>
<g id="a_edge2_Node000002_Node000003"><a xlink:title=" ">
<path fill="none" stroke="#8b1a1a" d="M72.5,-100.13C72.5,-91.9 72.5,-82.85 72.5,-76.3"/>
<polygon fill="#8b1a1a" stroke="#8b1a1a" points="69,-100.08 72.5,-110.08 76,-100.08 69,-100.08"/>
</a>
</g>
</g>
<!-- Node4 -->
<g id="Node000004" class="node">
<title>Node4</title>
<g id="a_Node000004"><a xlink:title=" ">
<polygon fill="white" stroke="#666666" points="105.62,-188 39.38,-188 39.38,-168 105.62,-168 105.62,-188"/>
<text text-anchor="middle" x="72.5" y="-174.5" font-family="Helvetica,sans-Serif" font-size="10.00">ActionBase</text>
</a>
</g>
</g>
<!-- Node4&#45;&gt;Node3 -->
<g id="edge3_Node000003_Node000004" class="edge">
<title>Node4&#45;&gt;Node3</title>
<g id="a_edge3_Node000003_Node000004"><a xlink:title=" ">
<path fill="none" stroke="#8b1a1a" d="M72.5,-156.13C72.5,-147.9 72.5,-138.85 72.5,-132.3"/>
<polygon fill="#8b1a1a" stroke="#8b1a1a" points="69,-156.08 72.5,-166.08 76,-156.08 69,-156.08"/>
</a>
</g>
</g>
</g>
</svg>
