<?xml version="1.0" encoding="UTF-8" standalone="no"?>
<!DOCTYPE svg PUBLIC "-//W3C//DTD SVG 1.1//EN"
 "http://www.w3.org/Graphics/SVG/1.1/DTD/svg11.dtd">
<!-- Generated by graphviz version 11.0.0 (20240428.1522)
 -->
<!-- Title: Weapon_Base Pages: 1 -->
<svg width="354pt" height="196pt"
 viewBox="0.00 0.00 354.12 196.00" xmlns="http://www.w3.org/2000/svg" xmlns:xlink="http://www.w3.org/1999/xlink">

<svg id="main" version="1.1" xmlns="http://www.w3.org/2000/svg" xmlns:xlink="http://www.w3.org/1999/xlink" xml:space="preserve" onload="init(evt)">
<style type="text/css"><![CDATA[
.node, .edge {opacity: 0.7;}
.node.selected, .edge.selected {opacity: 1;}
.edge:hover path { stroke: red; }
.edge:hover polygon { stroke: red; fill: red; }
]]></style>
<script type="application/ecmascript" xlink:href="../../svg.min.js"/>
<svg id="graph" class="graph">
<g id="graph0" class="graph" transform="scale(1 1) rotate(0) translate(4 192)">
<title>Weapon_Base</title>
<!-- Node1 -->
<g id="Node000001" class="node">
<title>Node1</title>
<g id="a_Node000001"><a xlink:title="shorthand">
<polygon fill="#999999" stroke="#666666" points="199.12,-188 119.38,-188 119.38,-168 199.12,-168 199.12,-188"/>
<text text-anchor="middle" x="159.25" y="-174.5" font-family="Helvetica,sans-Serif" font-size="10.00">Weapon_Base</text>
</a>
</g>
</g>
<!-- Node2 -->
<g id="Node000002" class="node">
<title>Node2</title>
<g id="a_Node000002"><a xlink:href="../../d9/d0f/class_archery___base.html" target="_top" xlink:title="base for Archery @NOTE name copies config base class">
<polygon fill="white" stroke="#666666" points="82,-132 4.5,-132 4.5,-112 82,-112 82,-132"/>
<text text-anchor="middle" x="43.25" y="-118.5" font-family="Helvetica,sans-Serif" font-size="10.00">Archery_Base</text>
</a>
</g>
</g>
<!-- Node1&#45;&gt;Node2 -->
<g id="edge1_Node000001_Node000002" class="edge">
<title>Node1&#45;&gt;Node2</title>
<g id="a_edge1_Node000001_Node000002"><a xlink:title=" ">
<path fill="none" stroke="#8b1a1a" d="M128.63,-162.75C108.09,-153.18 81.6,-140.85 63.61,-132.48"/>
<polygon fill="#8b1a1a" stroke="#8b1a1a" points="127.13,-165.91 137.67,-166.96 130.08,-159.56 127.13,-165.91"/>
</a>
</g>
</g>
<!-- Node4 -->
<g id="Node000004" class="node">
<title>Node4</title>
<g id="a_Node000004"><a xlink:href="../../dd/d0d/class_flaregun.html" target="_top" xlink:title=" ">
<polygon fill="white" stroke="#666666" points="154,-132 100.5,-132 100.5,-112 154,-112 154,-132"/>
<text text-anchor="middle" x="127.25" y="-118.5" font-family="Helvetica,sans-Serif" font-size="10.00">Flaregun</text>
</a>
</g>
</g>
<!-- Node1&#45;&gt;Node4 -->
<g id="edge3_Node000001_Node000004" class="edge">
<title>Node1&#45;&gt;Node4</title>
<g id="a_edge3_Node000001_Node000004"><a xlink:title=" ">
<path fill="none" stroke="#8b1a1a" d="M147.91,-157.87C142.77,-149.19 136.92,-139.32 132.76,-132.3"/>
<polygon fill="#8b1a1a" stroke="#8b1a1a" points="144.8,-159.47 152.9,-166.29 150.82,-155.9 144.8,-159.47"/>
</a>
</g>
</g>
<!-- Node5 -->
<g id="Node000005" class="node">
<title>Node5</title>
<g id="a_Node000005"><a xlink:href="../../d9/d0e/class_m249.html" target="_top" xlink:title=" ">
<polygon fill="white" stroke="#666666" points="212.25,-132 172.25,-132 172.25,-112 212.25,-112 212.25,-132"/>
<text text-anchor="middle" x="192.25" y="-118.5" font-family="Helvetica,sans-Serif" font-size="10.00">M249</text>
</a>
</g>
</g>
<!-- Node1&#45;&gt;Node5 -->
<g id="edge4_Node000001_Node000005" class="edge">
<title>Node1&#45;&gt;Node5</title>
<g id="a_edge4_Node000001_Node000005"><a xlink:title=" ">
<path fill="none" stroke="#8b1a1a" d="M170.94,-157.87C176.25,-149.19 182.28,-139.32 186.57,-132.3"/>
<polygon fill="#8b1a1a" stroke="#8b1a1a" points="168.02,-155.94 165.79,-166.3 173.99,-159.59 168.02,-155.94"/>
</a>
</g>
</g>
<!-- Node6 -->
<g id="Node000006" class="node">
<title>Node6</title>
<g id="a_Node000006"><a xlink:href="../../d9/d0b/class_single_shot_pistol___base.html" target="_top" xlink:title=" ">
<polygon fill="white" stroke="#666666" points="346.12,-132 230.38,-132 230.38,-112 346.12,-112 346.12,-132"/>
<text text-anchor="middle" x="288.25" y="-118.5" font-family="Helvetica,sans-Serif" font-size="10.00">SingleShotPistol_Base</text>
</a>
</g>
</g>
<!-- Node1&#45;&gt;Node6 -->
<g id="edge5_Node000001_Node000006" class="edge">
<title>Node1&#45;&gt;Node6</title>
<g id="a_edge5_Node000001_Node000006"><a xlink:title=" ">
<path fill="none" stroke="#8b1a1a" d="M192.05,-163.27C215.06,-153.64 245.23,-141.01 265.6,-132.48"/>
<polygon fill="#8b1a1a" stroke="#8b1a1a" points="190.99,-159.92 183.12,-167.01 193.69,-166.38 190.99,-159.92"/>
</a>
</g>
</g>
<!-- Node3 -->
<g id="Node000003" class="node">
<title>Node3</title>
<g id="a_Node000003"><a xlink:href="../../db/d00/class_crossbow___base.html" target="_top" xlink:title="base for Crossbow @NOTE name copies config base class">
<polygon fill="white" stroke="#666666" points="86.5,-76 0,-76 0,-56 86.5,-56 86.5,-76"/>
<text text-anchor="middle" x="43.25" y="-62.5" font-family="Helvetica,sans-Serif" font-size="10.00">Crossbow_Base</text>
</a>
</g>
</g>
<!-- Node2&#45;&gt;Node3 -->
<g id="edge2_Node000002_Node000003" class="edge">
<title>Node2&#45;&gt;Node3</title>
<g id="a_edge2_Node000002_Node000003"><a xlink:title=" ">
<path fill="none" stroke="#8b1a1a" d="M43.25,-100.13C43.25,-91.9 43.25,-82.85 43.25,-76.3"/>
<polygon fill="#8b1a1a" stroke="#8b1a1a" points="39.75,-100.08 43.25,-110.08 46.75,-100.08 39.75,-100.08"/>
</a>
</g>
</g>
<!-- Node7 -->
<g id="Node000007" class="node">
<title>Node7</title>
<g id="a_Node000007"><a xlink:href="../../d9/d0e/class_long_horn___base.html" target="_top" xlink:title=" ">
<polygon fill="white" stroke="#666666" points="330.75,-76 245.75,-76 245.75,-56 330.75,-56 330.75,-76"/>
<text text-anchor="middle" x="288.25" y="-62.5" font-family="Helvetica,sans-Serif" font-size="10.00">LongHorn_Base</text>
</a>
</g>
</g>
<!-- Node6&#45;&gt;Node7 -->
<g id="edge6_Node000006_Node000007" class="edge">
<title>Node6&#45;&gt;Node7</title>
<g id="a_edge6_Node000006_Node000007"><a xlink:title=" ">
<path fill="none" stroke="#8b1a1a" d="M288.25,-100.13C288.25,-91.9 288.25,-82.85 288.25,-76.3"/>
<polygon fill="#8b1a1a" stroke="#8b1a1a" points="284.75,-100.08 288.25,-110.08 291.75,-100.08 284.75,-100.08"/>
</a>
</g>
</g>
<!-- Node8 -->
<g id="Node000008" class="node">
<title>Node8</title>
<g id="a_Node000008"><a xlink:href="../../de/d03/class_long_horn.html" target="_top" xlink:title=" ">
<polygon fill="white" stroke="#666666" points="316.88,-20 259.62,-20 259.62,0 316.88,0 316.88,-20"/>
<text text-anchor="middle" x="288.25" y="-6.5" font-family="Helvetica,sans-Serif" font-size="10.00">LongHorn</text>
</a>
</g>
</g>
<!-- Node7&#45;&gt;Node8 -->
<g id="edge7_Node000007_Node000008" class="edge">
<title>Node7&#45;&gt;Node8</title>
<g id="a_edge7_Node000007_Node000008"><a xlink:title=" ">
<path fill="none" stroke="#8b1a1a" d="M288.25,-44.13C288.25,-35.9 288.25,-26.85 288.25,-20.3"/>
<polygon fill="#8b1a1a" stroke="#8b1a1a" points="284.75,-44.08 288.25,-54.08 291.75,-44.08 284.75,-44.08"/>
</a>
</g>
</g>
</g>
</svg>
</svg>

<style type='text/css'>
<![CDATA[
[data-mouse-over-selected='false'] { opacity: 0.7; }
[data-mouse-over-selected='true']  { opacity: 1.0; }
]]>
</style>
<script type="application/ecmascript"><![CDATA[
document.addEventListener('DOMContentLoaded', (event) => {
  highlightEdges();
  highlightAdjacentNodes();
});
]]></script>
</svg>
