<?xml version="1.0" encoding="UTF-8" standalone="no"?>
<!DOCTYPE svg PUBLIC "-//W3C//DTD SVG 1.1//EN"
 "http://www.w3.org/Graphics/SVG/1.1/DTD/svg11.dtd">
<!-- Generated by graphviz version 11.0.0 (20240428.1522)
 -->
<!-- Title: TreeSoft Pages: 1 -->
<svg width="554pt" height="996pt"
 viewBox="0.00 0.00 554.25 996.00" xmlns="http://www.w3.org/2000/svg" xmlns:xlink="http://www.w3.org/1999/xlink">
<g id="graph0" class="graph" transform="scale(1 1) rotate(0) translate(4 992)">
<title>TreeSoft</title>
<!-- Node1 -->
<g id="Node000001" class="node">
<title>Node1</title>
<g id="a_Node000001"><a xlink:title="For specific tree declaration see description of TreeHard.">
<polygon fill="#999999" stroke="#666666" points="152,-438 100,-438 100,-418 152,-418 152,-438"/>
<text text-anchor="middle" x="126" y="-424.5" font-family="Helvetica,sans-Serif" font-size="10.00">TreeSoft</text>
</a>
</g>
</g>
<!-- Node3 -->
<g id="Node000003" class="node">
<title>Node3</title>
<g id="a_Node000003"><a xlink:href="../../df/d05/class_tree_soft___betula_pendula___base.html" target="_top" xlink:title=" ">
<polygon fill="white" stroke="#666666" points="346.12,-865 198.12,-865 198.12,-845 346.12,-845 346.12,-865"/>
<text text-anchor="middle" x="272.12" y="-851.5" font-family="Helvetica,sans-Serif" font-size="10.00">TreeSoft_BetulaPendula_Base</text>
</a>
</g>
</g>
<!-- Node1&#45;&gt;Node3 -->
<g id="edge2_Node000001_Node000003" class="edge">
<title>Node1&#45;&gt;Node3</title>
<g id="a_edge2_Node000001_Node000003"><a xlink:title=" ">
<path fill="none" stroke="#8b1a1a" d="M127.42,-449.44C129.32,-523.76 139.21,-768.93 188,-827 194.56,-834.81 203.39,-840.45 212.83,-844.52"/>
<polygon fill="#8b1a1a" stroke="#8b1a1a" points="130.93,-449.76 127.2,-439.84 123.93,-449.92 130.93,-449.76"/>
</a>
</g>
</g>
<!-- Node11 -->
<g id="Node000011" class="node">
<title>Node11</title>
<g id="a_Node000011"><a xlink:href="../../de/d00/class_tree_soft__t___fagus_sylvatica__1f.html" target="_top" xlink:title=" ">
<polygon fill="white" stroke="#666666" points="344.25,-818 200,-818 200,-798 344.25,-798 344.25,-818"/>
<text text-anchor="middle" x="272.12" y="-804.5" font-family="Helvetica,sans-Serif" font-size="10.00">TreeSoft_t_FagusSylvatica_1f</text>
</a>
</g>
</g>
<!-- Node1&#45;&gt;Node11 -->
<g id="edge10_Node000001_Node000011" class="edge">
<title>Node1&#45;&gt;Node11</title>
<g id="a_edge10_Node000001_Node000011"><a xlink:title=" ">
<path fill="none" stroke="#8b1a1a" d="M127.61,-449.8C130.03,-520.16 141.27,-739.51 188,-789 191.46,-792.66 195.46,-795.68 199.81,-798.17"/>
<polygon fill="#8b1a1a" stroke="#8b1a1a" points="131.11,-449.87 127.3,-439.98 124.12,-450.09 131.11,-449.87"/>
</a>
</g>
</g>
<!-- Node12 -->
<g id="Node000012" class="node">
<title>Node12</title>
<g id="a_Node000012"><a xlink:href="../../d6/d0e/class_tree_soft__t___fagus_sylvatica__1fc.html" target="_top" xlink:title=" ">
<polygon fill="white" stroke="#666666" points="346.88,-780 197.38,-780 197.38,-760 346.88,-760 346.88,-780"/>
<text text-anchor="middle" x="272.12" y="-766.5" font-family="Helvetica,sans-Serif" font-size="10.00">TreeSoft_t_FagusSylvatica_1fc</text>
</a>
</g>
</g>
<!-- Node1&#45;&gt;Node12 -->
<g id="edge11_Node000001_Node000012" class="edge">
<title>Node1&#45;&gt;Node12</title>
<g id="a_edge11_Node000001_Node000012"><a xlink:title=" ">
<path fill="none" stroke="#8b1a1a" d="M128.08,-449.6C131.76,-514.74 146.07,-707.45 188,-751 191.29,-754.41 195.05,-757.27 199.12,-759.66"/>
<polygon fill="#8b1a1a" stroke="#8b1a1a" points="131.58,-449.66 127.56,-439.86 124.59,-450.04 131.58,-449.66"/>
</a>
</g>
</g>
<!-- Node13 -->
<g id="Node000013" class="node">
<title>Node13</title>
<g id="a_Node000013"><a xlink:href="../../d2/d09/class_tree_soft__t___fagus_sylvatica__1fd.html" target="_top" xlink:title=" ">
<polygon fill="white" stroke="#666666" points="346.88,-742 197.38,-742 197.38,-722 346.88,-722 346.88,-742"/>
<text text-anchor="middle" x="272.12" y="-728.5" font-family="Helvetica,sans-Serif" font-size="10.00">TreeSoft_t_FagusSylvatica_1fd</text>
</a>
</g>
</g>
<!-- Node1&#45;&gt;Node13 -->
<g id="edge12_Node000001_Node000013" class="edge">
<title>Node1&#45;&gt;Node13</title>
<g id="a_edge12_Node000001_Node000013"><a xlink:title=" ">
<path fill="none" stroke="#8b1a1a" d="M128.68,-449.75C133.76,-509.71 150.93,-675.41 188,-713 191.33,-716.37 195.12,-719.2 199.21,-721.56"/>
<polygon fill="#8b1a1a" stroke="#8b1a1a" points="132.18,-449.55 127.88,-439.86 125.2,-450.11 132.18,-449.55"/>
</a>
</g>
</g>
<!-- Node14 -->
<g id="Node000014" class="node">
<title>Node14</title>
<g id="a_Node000014"><a xlink:href="../../d8/d0a/class_tree_soft__t___fagus_sylvatica__1s.html" target="_top" xlink:title=" ">
<polygon fill="white" stroke="#666666" points="345.75,-704 198.5,-704 198.5,-684 345.75,-684 345.75,-704"/>
<text text-anchor="middle" x="272.12" y="-690.5" font-family="Helvetica,sans-Serif" font-size="10.00">TreeSoft_t_FagusSylvatica_1s</text>
</a>
</g>
</g>
<!-- Node1&#45;&gt;Node14 -->
<g id="edge13_Node000001_Node000014" class="edge">
<title>Node1&#45;&gt;Node14</title>
<g id="a_edge13_Node000001_Node000014"><a xlink:title=" ">
<path fill="none" stroke="#8b1a1a" d="M129.45,-449.68C136.01,-503.88 155.7,-643.26 188,-675 191.48,-678.42 195.45,-681.28 199.72,-683.66"/>
<polygon fill="#8b1a1a" stroke="#8b1a1a" points="132.94,-449.41 128.3,-439.88 125.99,-450.22 132.94,-449.41"/>
</a>
</g>
</g>
<!-- Node15 -->
<g id="Node000015" class="node">
<title>Node15</title>
<g id="a_Node000015"><a xlink:href="../../d6/d0c/class_tree_soft__t___fagus_sylvatica__2sb.html" target="_top" xlink:title=" ">
<polygon fill="white" stroke="#666666" points="348.38,-666 195.88,-666 195.88,-646 348.38,-646 348.38,-666"/>
<text text-anchor="middle" x="272.12" y="-652.5" font-family="Helvetica,sans-Serif" font-size="10.00">TreeSoft_t_FagusSylvatica_2sb</text>
</a>
</g>
</g>
<!-- Node1&#45;&gt;Node15 -->
<g id="edge14_Node000001_Node000015" class="edge">
<title>Node1&#45;&gt;Node15</title>
<g id="a_edge14_Node000001_Node000015"><a xlink:title=" ">
<path fill="none" stroke="#8b1a1a" d="M126.6,-449.44C127.06,-491.8 134.4,-586.49 188,-637 191.66,-640.45 195.82,-643.32 200.27,-645.7"/>
<polygon fill="#8b1a1a" stroke="#8b1a1a" points="130.1,-449.6 126.64,-439.59 123.1,-449.58 130.1,-449.6"/>
</a>
</g>
</g>
<!-- Node20 -->
<g id="Node000020" class="node">
<title>Node20</title>
<g id="a_Node000020"><a xlink:href="../../d2/d0a/class_tree_soft__t___fraxinus_excelsior__2w.html" target="_top" xlink:title=" ">
<polygon fill="white" stroke="#666666" points="352.5,-628 191.75,-628 191.75,-608 352.5,-608 352.5,-628"/>
<text text-anchor="middle" x="272.12" y="-614.5" font-family="Helvetica,sans-Serif" font-size="10.00">TreeSoft_t_FraxinusExcelsior_2w</text>
</a>
</g>
</g>
<!-- Node1&#45;&gt;Node20 -->
<g id="edge19_Node000001_Node000020" class="edge">
<title>Node1&#45;&gt;Node20</title>
<g id="a_edge19_Node000001_Node000020"><a xlink:title=" ">
<path fill="none" stroke="#8b1a1a" d="M128.26,-449.54C131.59,-485.99 143.74,-559.67 188,-599 191.87,-602.44 196.24,-605.3 200.9,-607.66"/>
<polygon fill="#8b1a1a" stroke="#8b1a1a" points="131.77,-449.54 127.52,-439.83 124.79,-450.07 131.77,-449.54"/>
</a>
</g>
</g>
<!-- Node21 -->
<g id="Node000021" class="node">
<title>Node21</title>
<g id="a_Node000021"><a xlink:href="../../da/d0d/class_tree_soft__t___larix_decidua__1f.html" target="_top" xlink:title=" ">
<polygon fill="white" stroke="#666666" points="339.38,-590 204.88,-590 204.88,-570 339.38,-570 339.38,-590"/>
<text text-anchor="middle" x="272.12" y="-576.5" font-family="Helvetica,sans-Serif" font-size="10.00">TreeSoft_t_LarixDecidua_1f</text>
</a>
</g>
</g>
<!-- Node1&#45;&gt;Node21 -->
<g id="edge20_Node000001_Node000021" class="edge">
<title>Node1&#45;&gt;Node21</title>
<g id="a_edge20_Node000001_Node000021"><a xlink:title=" ">
<path fill="none" stroke="#8b1a1a" d="M130.71,-449.32C137.04,-479.02 152.82,-532.39 188,-561 192.94,-565.02 198.56,-568.22 204.5,-570.77"/>
<polygon fill="#8b1a1a" stroke="#8b1a1a" points="134.18,-448.82 128.84,-439.67 127.31,-450.16 134.18,-448.82"/>
</a>
</g>
</g>
<!-- Node22 -->
<g id="Node000022" class="node">
<title>Node22</title>
<g id="a_Node000022"><a xlink:href="../../d7/d0e/class_tree_soft__t___larix_decidua__1s.html" target="_top" xlink:title=" ">
<polygon fill="white" stroke="#666666" points="340.88,-552 203.38,-552 203.38,-532 340.88,-532 340.88,-552"/>
<text text-anchor="middle" x="272.12" y="-538.5" font-family="Helvetica,sans-Serif" font-size="10.00">TreeSoft_t_LarixDecidua_1s</text>
</a>
</g>
</g>
<!-- Node1&#45;&gt;Node22 -->
<g id="edge21_Node000001_Node000022" class="edge">
<title>Node1&#45;&gt;Node22</title>
<g id="a_edge21_Node000001_Node000022"><a xlink:title=" ">
<path fill="none" stroke="#8b1a1a" d="M134.85,-448.99C144.15,-470.9 161.76,-504.57 188,-523 192.85,-526.4 198.21,-529.21 203.8,-531.52"/>
<polygon fill="#8b1a1a" stroke="#8b1a1a" points="138.17,-447.87 131.2,-439.88 131.67,-450.47 138.17,-447.87"/>
</a>
</g>
</g>
<!-- Node23 -->
<g id="Node000023" class="node">
<title>Node23</title>
<g id="a_Node000023"><a xlink:href="../../d1/d08/class_tree_soft__t___picea_abies__1f.html" target="_top" xlink:title=" ">
<polygon fill="white" stroke="#666666" points="336,-514 208.25,-514 208.25,-494 336,-494 336,-514"/>
<text text-anchor="middle" x="272.12" y="-500.5" font-family="Helvetica,sans-Serif" font-size="10.00">TreeSoft_t_PiceaAbies_1f</text>
</a>
</g>
</g>
<!-- Node1&#45;&gt;Node23 -->
<g id="edge22_Node000001_Node000023" class="edge">
<title>Node1&#45;&gt;Node23</title>
<g id="a_edge22_Node000001_Node000023"><a xlink:title=" ">
<path fill="none" stroke="#8b1a1a" d="M142.18,-446.64C153.51,-459.33 170.08,-475.48 188,-485 194.54,-488.47 201.69,-491.31 208.97,-493.63"/>
<polygon fill="#8b1a1a" stroke="#8b1a1a" points="145.06,-444.62 135.9,-439.31 139.75,-449.18 145.06,-444.62"/>
</a>
</g>
</g>
<!-- Node24 -->
<g id="Node000024" class="node">
<title>Node24</title>
<g id="a_Node000024"><a xlink:href="../../d8/d00/class_tree_soft__t___picea_abies__2sb.html" target="_top" xlink:title=" ">
<polygon fill="white" stroke="#666666" points="340.12,-476 204.12,-476 204.12,-456 340.12,-456 340.12,-476"/>
<text text-anchor="middle" x="272.12" y="-462.5" font-family="Helvetica,sans-Serif" font-size="10.00">TreeSoft_t_PiceaAbies_2sb</text>
</a>
</g>
</g>
<!-- Node1&#45;&gt;Node24 -->
<g id="edge23_Node000001_Node000024" class="edge">
<title>Node1&#45;&gt;Node24</title>
<g id="a_edge23_Node000001_Node000024"><a xlink:title=" ">
<path fill="none" stroke="#8b1a1a" d="M163.11,-439.75C171.26,-442.26 179.9,-444.82 188,-447 199.15,-450.01 211.22,-452.94 222.62,-455.58"/>
<polygon fill="#8b1a1a" stroke="#8b1a1a" points="164.43,-436.5 153.84,-436.84 162.33,-443.18 164.43,-436.5"/>
</a>
</g>
</g>
<!-- Node25 -->
<g id="Node000025" class="node">
<title>Node25</title>
<g id="a_Node000025"><a xlink:href="../../d9/d0c/class_tree_soft__t__malus_domestica__1s.html" target="_top" xlink:title=" ">
<polygon fill="white" stroke="#666666" points="349.12,-438 195.12,-438 195.12,-418 349.12,-418 349.12,-438"/>
<text text-anchor="middle" x="272.12" y="-424.5" font-family="Helvetica,sans-Serif" font-size="10.00">TreeSoft_t_malusDomestica_1s</text>
</a>
</g>
</g>
<!-- Node1&#45;&gt;Node25 -->
<g id="edge24_Node000001_Node000025" class="edge">
<title>Node1&#45;&gt;Node25</title>
<g id="a_edge24_Node000001_Node000025"><a xlink:title=" ">
<path fill="none" stroke="#8b1a1a" d="M163.89,-428C173.45,-428 184.11,-428 194.9,-428"/>
<polygon fill="#8b1a1a" stroke="#8b1a1a" points="163.95,-424.5 153.95,-428 163.95,-431.5 163.95,-424.5"/>
</a>
</g>
</g>
<!-- Node28 -->
<g id="Node000028" class="node">
<title>Node28</title>
<g id="a_Node000028"><a xlink:href="../../d4/d09/class_tree_soft__t__populus_alba__1f.html" target="_top" xlink:title=" ">
<polygon fill="white" stroke="#666666" points="337.88,-400 206.38,-400 206.38,-380 337.88,-380 337.88,-400"/>
<text text-anchor="middle" x="272.12" y="-386.5" font-family="Helvetica,sans-Serif" font-size="10.00">TreeSoft_t_populusAlba_1f</text>
</a>
</g>
</g>
<!-- Node1&#45;&gt;Node28 -->
<g id="edge27_Node000001_Node000028" class="edge">
<title>Node1&#45;&gt;Node28</title>
<g id="a_edge27_Node000001_Node000028"><a xlink:title=" ">
<path fill="none" stroke="#8b1a1a" d="M163.11,-416.25C171.26,-413.74 179.9,-411.18 188,-409 199.15,-405.99 211.22,-403.06 222.62,-400.42"/>
<polygon fill="#8b1a1a" stroke="#8b1a1a" points="162.33,-412.82 153.84,-419.16 164.43,-419.5 162.33,-412.82"/>
</a>
</g>
</g>
<!-- Node29 -->
<g id="Node000029" class="node">
<title>Node29</title>
<g id="a_Node000029"><a xlink:href="../../dc/d08/class_tree_soft__t__pyrus_communis__2s.html" target="_top" xlink:title=" ">
<polygon fill="white" stroke="#666666" points="348,-362 196.25,-362 196.25,-342 348,-342 348,-362"/>
<text text-anchor="middle" x="272.12" y="-348.5" font-family="Helvetica,sans-Serif" font-size="10.00">TreeSoft_t_pyrusCommunis_2s</text>
</a>
</g>
</g>
<!-- Node1&#45;&gt;Node29 -->
<g id="edge28_Node000001_Node000029" class="edge">
<title>Node1&#45;&gt;Node29</title>
<g id="a_edge28_Node000001_Node000029"><a xlink:title=" ">
<path fill="none" stroke="#8b1a1a" d="M142.18,-409.36C153.51,-396.67 170.08,-380.52 188,-371 194.54,-367.53 201.69,-364.69 208.97,-362.37"/>
<polygon fill="#8b1a1a" stroke="#8b1a1a" points="139.75,-406.82 135.9,-416.69 145.06,-411.38 139.75,-406.82"/>
</a>
</g>
</g>
<!-- Node30 -->
<g id="Node000030" class="node">
<title>Node30</title>
<g id="a_Node000030"><a xlink:href="../../df/d05/class_tree_soft__t__quercus_robur__1f.html" target="_top" xlink:title=" ">
<polygon fill="white" stroke="#666666" points="341.25,-324 203,-324 203,-304 341.25,-304 341.25,-324"/>
<text text-anchor="middle" x="272.12" y="-310.5" font-family="Helvetica,sans-Serif" font-size="10.00">TreeSoft_t_quercusRobur_1f</text>
</a>
</g>
</g>
<!-- Node1&#45;&gt;Node30 -->
<g id="edge29_Node000001_Node000030" class="edge">
<title>Node1&#45;&gt;Node30</title>
<g id="a_edge29_Node000001_Node000030"><a xlink:title=" ">
<path fill="none" stroke="#8b1a1a" d="M134.85,-407.01C144.15,-385.1 161.76,-351.43 188,-333 192.85,-329.6 198.21,-326.79 203.8,-324.48"/>
<polygon fill="#8b1a1a" stroke="#8b1a1a" points="131.67,-405.53 131.2,-416.12 138.17,-408.13 131.67,-405.53"/>
</a>
</g>
</g>
<!-- Node31 -->
<g id="Node000031" class="node">
<title>Node31</title>
<g id="a_Node000031"><a xlink:href="../../df/d09/class_tree_soft__t__quercus_robur__1fc.html" target="_top" xlink:title=" ">
<polygon fill="white" stroke="#666666" points="343.88,-286 200.38,-286 200.38,-266 343.88,-266 343.88,-286"/>
<text text-anchor="middle" x="272.12" y="-272.5" font-family="Helvetica,sans-Serif" font-size="10.00">TreeSoft_t_quercusRobur_1fc</text>
</a>
</g>
</g>
<!-- Node1&#45;&gt;Node31 -->
<g id="edge30_Node000001_Node000031" class="edge">
<title>Node1&#45;&gt;Node31</title>
<g id="a_edge30_Node000001_Node000031"><a xlink:title=" ">
<path fill="none" stroke="#8b1a1a" d="M130.71,-406.68C137.04,-376.98 152.82,-323.61 188,-295 192.25,-291.54 197.01,-288.69 202.04,-286.34"/>
<polygon fill="#8b1a1a" stroke="#8b1a1a" points="127.31,-405.84 128.84,-416.33 134.18,-407.18 127.31,-405.84"/>
</a>
</g>
</g>
<!-- Node32 -->
<g id="Node000032" class="node">
<title>Node32</title>
<g id="a_Node000032"><a xlink:href="../../d3/d05/class_tree_soft__t__quercus_robur__1fd.html" target="_top" xlink:title=" ">
<polygon fill="white" stroke="#666666" points="343.88,-248 200.38,-248 200.38,-228 343.88,-228 343.88,-248"/>
<text text-anchor="middle" x="272.12" y="-234.5" font-family="Helvetica,sans-Serif" font-size="10.00">TreeSoft_t_quercusRobur_1fd</text>
</a>
</g>
</g>
<!-- Node1&#45;&gt;Node32 -->
<g id="edge31_Node000001_Node000032" class="edge">
<title>Node1&#45;&gt;Node32</title>
<g id="a_edge31_Node000001_Node000032"><a xlink:title=" ">
<path fill="none" stroke="#8b1a1a" d="M128.26,-406.46C131.59,-370.01 143.74,-296.33 188,-257 191.87,-253.56 196.24,-250.7 200.9,-248.34"/>
<polygon fill="#8b1a1a" stroke="#8b1a1a" points="124.79,-405.93 127.52,-416.17 131.77,-406.46 124.79,-405.93"/>
</a>
</g>
</g>
<!-- Node33 -->
<g id="Node000033" class="node">
<title>Node33</title>
<g id="a_Node000033"><a xlink:href="../../d6/d0d/class_tree_soft__t__quercus_robur__1s.html" target="_top" xlink:title=" ">
<polygon fill="white" stroke="#666666" points="342.75,-210 201.5,-210 201.5,-190 342.75,-190 342.75,-210"/>
<text text-anchor="middle" x="272.12" y="-196.5" font-family="Helvetica,sans-Serif" font-size="10.00">TreeSoft_t_quercusRobur_1s</text>
</a>
</g>
</g>
<!-- Node1&#45;&gt;Node33 -->
<g id="edge32_Node000001_Node000033" class="edge">
<title>Node1&#45;&gt;Node33</title>
<g id="a_edge32_Node000001_Node000033"><a xlink:title=" ">
<path fill="none" stroke="#8b1a1a" d="M126.6,-406.56C127.06,-364.2 134.4,-269.51 188,-219 191.88,-215.34 196.31,-212.34 201.06,-209.88"/>
<polygon fill="#8b1a1a" stroke="#8b1a1a" points="123.1,-406.42 126.64,-416.41 130.1,-406.4 123.1,-406.42"/>
</a>
</g>
</g>
<!-- Node34 -->
<g id="Node000034" class="node">
<title>Node34</title>
<g id="a_Node000034"><a xlink:href="../../df/d01/class_tree_soft__t__quercus_robur__2fb.html" target="_top" xlink:title=" ">
<polygon fill="white" stroke="#666666" points="343.88,-172 200.38,-172 200.38,-152 343.88,-152 343.88,-172"/>
<text text-anchor="middle" x="272.12" y="-158.5" font-family="Helvetica,sans-Serif" font-size="10.00">TreeSoft_t_quercusRobur_2fb</text>
</a>
</g>
</g>
<!-- Node1&#45;&gt;Node34 -->
<g id="edge33_Node000001_Node000034" class="edge">
<title>Node1&#45;&gt;Node34</title>
<g id="a_edge33_Node000001_Node000034"><a xlink:title=" ">
<path fill="none" stroke="#8b1a1a" d="M129.45,-406.32C136.01,-352.12 155.7,-212.74 188,-181 191.59,-177.47 195.69,-174.55 200.11,-172.12"/>
<polygon fill="#8b1a1a" stroke="#8b1a1a" points="125.99,-405.78 128.3,-416.12 132.94,-406.59 125.99,-405.78"/>
</a>
</g>
</g>
<!-- Node35 -->
<g id="Node000035" class="node">
<title>Node35</title>
<g id="a_Node000035"><a xlink:href="../../db/d09/class_tree_soft__t__quercus_robur__2fc.html" target="_top" xlink:title=" ">
<polygon fill="white" stroke="#666666" points="343.88,-134 200.38,-134 200.38,-114 343.88,-114 343.88,-134"/>
<text text-anchor="middle" x="272.12" y="-120.5" font-family="Helvetica,sans-Serif" font-size="10.00">TreeSoft_t_quercusRobur_2fc</text>
</a>
</g>
</g>
<!-- Node1&#45;&gt;Node35 -->
<g id="edge34_Node000001_Node000035" class="edge">
<title>Node1&#45;&gt;Node35</title>
<g id="a_edge34_Node000001_Node000035"><a xlink:title=" ">
<path fill="none" stroke="#8b1a1a" d="M128.68,-406.25C133.76,-346.29 150.93,-180.59 188,-143 191.53,-139.42 195.6,-136.45 199.98,-134"/>
<polygon fill="#8b1a1a" stroke="#8b1a1a" points="125.2,-405.89 127.88,-416.14 132.18,-406.45 125.2,-405.89"/>
</a>
</g>
</g>
<!-- Node36 -->
<g id="Node000036" class="node">
<title>Node36</title>
<g id="a_Node000036"><a xlink:href="../../d5/d0b/class_tree_soft__t__robinia_pseudoacacia__1f.html" target="_top" xlink:title=" ">
<polygon fill="white" stroke="#666666" points="356.25,-96 188,-96 188,-76 356.25,-76 356.25,-96"/>
<text text-anchor="middle" x="272.12" y="-82.5" font-family="Helvetica,sans-Serif" font-size="10.00">TreeSoft_t_robiniaPseudoacacia_1f</text>
</a>
</g>
</g>
<!-- Node1&#45;&gt;Node36 -->
<g id="edge35_Node000001_Node000036" class="edge">
<title>Node1&#45;&gt;Node36</title>
<g id="a_edge35_Node000001_Node000036"><a xlink:title=" ">
<path fill="none" stroke="#8b1a1a" d="M128.08,-406.4C131.76,-341.26 146.07,-148.55 188,-105 191.29,-101.59 195.05,-98.73 199.12,-96.34"/>
<polygon fill="#8b1a1a" stroke="#8b1a1a" points="124.59,-405.96 127.56,-416.14 131.58,-406.34 124.59,-405.96"/>
</a>
</g>
</g>
<!-- Node37 -->
<g id="Node000037" class="node">
<title>Node37</title>
<g id="a_Node000037"><a xlink:href="../../dd/d03/class_tree_soft__t__town__1s.html" target="_top" xlink:title=" ">
<polygon fill="white" stroke="#666666" points="322.88,-58 221.38,-58 221.38,-38 322.88,-38 322.88,-58"/>
<text text-anchor="middle" x="272.12" y="-44.5" font-family="Helvetica,sans-Serif" font-size="10.00">TreeSoft_t_town_1s</text>
</a>
</g>
</g>
<!-- Node1&#45;&gt;Node37 -->
<g id="edge36_Node000001_Node000037" class="edge">
<title>Node1&#45;&gt;Node37</title>
<g id="a_edge36_Node000001_Node000037"><a xlink:title=" ">
<path fill="none" stroke="#8b1a1a" d="M127.61,-406.2C130.03,-335.84 141.27,-116.49 188,-67 196.64,-57.85 208.71,-52.68 220.97,-49.86"/>
<polygon fill="#8b1a1a" stroke="#8b1a1a" points="124.12,-405.91 127.3,-416.02 131.11,-406.13 124.12,-405.91"/>
</a>
</g>
</g>
<!-- Node38 -->
<g id="Node000038" class="node">
<title>Node38</title>
<g id="a_Node000038"><a xlink:href="../../d4/d07/class_tree_soft__t__town__1sb.html" target="_top" xlink:title=" ">
<polygon fill="white" stroke="#666666" points="325.5,-20 218.75,-20 218.75,0 325.5,0 325.5,-20"/>
<text text-anchor="middle" x="272.12" y="-6.5" font-family="Helvetica,sans-Serif" font-size="10.00">TreeSoft_t_town_1sb</text>
</a>
</g>
</g>
<!-- Node1&#45;&gt;Node38 -->
<g id="edge37_Node000001_Node000038" class="edge">
<title>Node1&#45;&gt;Node38</title>
<g id="a_edge37_Node000001_Node000038"><a xlink:title=" ">
<path fill="none" stroke="#8b1a1a" d="M127.22,-406.38C128.44,-331.46 136.36,-84.55 188,-29 195.96,-20.43 206.93,-15.35 218.28,-12.4"/>
<polygon fill="#8b1a1a" stroke="#8b1a1a" points="123.72,-406.02 127.09,-416.07 130.72,-406.12 123.72,-406.02"/>
</a>
</g>
</g>
<!-- Node2 -->
<g id="Node000002" class="node">
<title>Node2</title>
<g id="a_Node000002"><a xlink:title=" ">
<polygon fill="white" stroke="#666666" points="64,-438 0,-438 0,-418 64,-418 64,-438"/>
<text text-anchor="middle" x="32" y="-424.5" font-family="Helvetica,sans-Serif" font-size="10.00">PlantSuper</text>
</a>
</g>
</g>
<!-- Node2&#45;&gt;Node1 -->
<g id="edge1_Node000001_Node000002" class="edge">
<title>Node2&#45;&gt;Node1</title>
<g id="a_edge1_Node000001_Node000002"><a xlink:title=" ">
<path fill="none" stroke="#8b1a1a" d="M75.72,-428C83.86,-428 92.14,-428 99.53,-428"/>
<polygon fill="#8b1a1a" stroke="#8b1a1a" points="75.92,-424.5 65.92,-428 75.92,-431.5 75.92,-424.5"/>
</a>
</g>
</g>
<!-- Node4 -->
<g id="Node000004" class="node">
<title>Node4</title>
<g id="a_Node000004"><a xlink:href="../../d2/d0e/class_tree_soft__t___betula_pendula__1f.html" target="_top" xlink:title=" ">
<polygon fill="white" stroke="#666666" points="539.88,-988 398.62,-988 398.62,-968 539.88,-968 539.88,-988"/>
<text text-anchor="middle" x="469.25" y="-974.5" font-family="Helvetica,sans-Serif" font-size="10.00">TreeSoft_t_BetulaPendula_1f</text>
</a>
</g>
</g>
<!-- Node3&#45;&gt;Node4 -->
<g id="edge3_Node000003_Node000004" class="edge">
<title>Node3&#45;&gt;Node4</title>
<g id="a_edge3_Node000003_Node000004"><a xlink:title=" ">
<path fill="none" stroke="#8b1a1a" d="M289.28,-873.76C310.54,-897.23 350.14,-937.01 392.25,-959 398.76,-962.4 405.9,-965.21 413.13,-967.53"/>
<polygon fill="#8b1a1a" stroke="#8b1a1a" points="292.09,-871.65 282.83,-866.49 286.85,-876.29 292.09,-871.65"/>
</a>
</g>
</g>
<!-- Node5 -->
<g id="Node000005" class="node">
<title>Node5</title>
<g id="a_Node000005"><a xlink:href="../../d0/d02/class_tree_soft__t___betula_pendula__1fb.html" target="_top" xlink:title=" ">
<polygon fill="white" stroke="#666666" points="542.5,-950 396,-950 396,-930 542.5,-930 542.5,-950"/>
<text text-anchor="middle" x="469.25" y="-936.5" font-family="Helvetica,sans-Serif" font-size="10.00">TreeSoft_t_BetulaPendula_1fb</text>
</a>
</g>
</g>
<!-- Node3&#45;&gt;Node5 -->
<g id="edge4_Node000003_Node000005" class="edge">
<title>Node3&#45;&gt;Node5</title>
<g id="a_edge4_Node000003_Node000005"><a xlink:title=" ">
<path fill="none" stroke="#8b1a1a" d="M298.18,-871.42C321.65,-886.19 358.14,-907.56 392.25,-921 400.6,-924.29 409.7,-927.15 418.6,-929.58"/>
<polygon fill="#8b1a1a" stroke="#8b1a1a" points="300.25,-868.59 289.93,-866.16 296.48,-874.49 300.25,-868.59"/>
</a>
</g>
</g>
<!-- Node6 -->
<g id="Node000006" class="node">
<title>Node6</title>
<g id="a_Node000006"><a xlink:href="../../d9/d02/class_tree_soft__t___betula_pendula__1s.html" target="_top" xlink:title=" ">
<polygon fill="white" stroke="#666666" points="541.38,-912 397.12,-912 397.12,-892 541.38,-892 541.38,-912"/>
<text text-anchor="middle" x="469.25" y="-898.5" font-family="Helvetica,sans-Serif" font-size="10.00">TreeSoft_t_BetulaPendula_1s</text>
</a>
</g>
</g>
<!-- Node3&#45;&gt;Node6 -->
<g id="edge5_Node000003_Node000006" class="edge">
<title>Node3&#45;&gt;Node6</title>
<g id="a_edge5_Node000003_Node000006"><a xlink:title=" ">
<path fill="none" stroke="#8b1a1a" d="M327.39,-868.07C358.1,-875.47 395.98,-884.59 424.73,-891.52"/>
<polygon fill="#8b1a1a" stroke="#8b1a1a" points="328.44,-864.72 317.9,-865.79 326.8,-871.53 328.44,-864.72"/>
</a>
</g>
</g>
<!-- Node7 -->
<g id="Node000007" class="node">
<title>Node7</title>
<g id="a_Node000007"><a xlink:href="../../d2/d0f/class_tree_soft__t___betula_pendula__2f.html" target="_top" xlink:title=" ">
<polygon fill="white" stroke="#666666" points="539.88,-874 398.62,-874 398.62,-854 539.88,-854 539.88,-874"/>
<text text-anchor="middle" x="469.25" y="-860.5" font-family="Helvetica,sans-Serif" font-size="10.00">TreeSoft_t_BetulaPendula_2f</text>
</a>
</g>
</g>
<!-- Node3&#45;&gt;Node7 -->
<g id="edge6_Node000003_Node000007" class="edge">
<title>Node3&#45;&gt;Node7</title>
<g id="a_edge6_Node000003_Node000007"><a xlink:title=" ">
<path fill="none" stroke="#8b1a1a" d="M357.87,-858.91C371.39,-859.53 385.25,-860.17 398.37,-860.78"/>
<polygon fill="#8b1a1a" stroke="#8b1a1a" points="358.28,-855.42 348.13,-858.46 357.96,-862.42 358.28,-855.42"/>
</a>
</g>
</g>
<!-- Node8 -->
<g id="Node000008" class="node">
<title>Node8</title>
<g id="a_Node000008"><a xlink:href="../../dd/d0a/class_tree_soft__t___betula_pendula__2fb.html" target="_top" xlink:title=" ">
<polygon fill="white" stroke="#666666" points="542.5,-836 396,-836 396,-816 542.5,-816 542.5,-836"/>
<text text-anchor="middle" x="469.25" y="-822.5" font-family="Helvetica,sans-Serif" font-size="10.00">TreeSoft_t_BetulaPendula_2fb</text>
</a>
</g>
</g>
<!-- Node3&#45;&gt;Node8 -->
<g id="edge7_Node000003_Node000008" class="edge">
<title>Node3&#45;&gt;Node8</title>
<g id="a_edge7_Node000003_Node000008"><a xlink:title=" ">
<path fill="none" stroke="#8b1a1a" d="M354.91,-842.85C369.2,-840.72 383.96,-838.53 397.91,-836.45"/>
<polygon fill="#8b1a1a" stroke="#8b1a1a" points="354.44,-839.38 345.07,-844.31 355.47,-846.3 354.44,-839.38"/>
</a>
</g>
</g>
<!-- Node9 -->
<g id="Node000009" class="node">
<title>Node9</title>
<g id="a_Node000009"><a xlink:href="../../d1/d01/class_tree_soft__t___betula_pendula__2fc.html" target="_top" xlink:title=" ">
<polygon fill="white" stroke="#666666" points="542.5,-798 396,-798 396,-778 542.5,-778 542.5,-798"/>
<text text-anchor="middle" x="469.25" y="-784.5" font-family="Helvetica,sans-Serif" font-size="10.00">TreeSoft_t_BetulaPendula_2fc</text>
</a>
</g>
</g>
<!-- Node3&#45;&gt;Node9 -->
<g id="edge8_Node000003_Node000009" class="edge">
<title>Node3&#45;&gt;Node9</title>
<g id="a_edge8_Node000003_Node000009"><a xlink:title=" ">
<path fill="none" stroke="#8b1a1a" d="M319.67,-840.99C331.75,-836.9 344.63,-832.14 356.25,-827 372.99,-819.6 375.23,-813.72 392.25,-807 400.6,-803.7 409.69,-800.84 418.6,-798.42"/>
<polygon fill="#8b1a1a" stroke="#8b1a1a" points="318.7,-837.62 310.29,-844.07 320.89,-844.27 318.7,-837.62"/>
</a>
</g>
</g>
<!-- Node10 -->
<g id="Node000010" class="node">
<title>Node10</title>
<g id="a_Node000010"><a xlink:href="../../d7/d09/class_tree_soft__t___betula_pendula__2w.html" target="_top" xlink:title=" ">
<polygon fill="white" stroke="#666666" points="542.12,-760 396.38,-760 396.38,-740 542.12,-740 542.12,-760"/>
<text text-anchor="middle" x="469.25" y="-746.5" font-family="Helvetica,sans-Serif" font-size="10.00">TreeSoft_t_BetulaPendula_2w</text>
</a>
</g>
</g>
<!-- Node3&#45;&gt;Node10 -->
<g id="edge9_Node000003_Node000010" class="edge">
<title>Node3&#45;&gt;Node10</title>
<g id="a_edge9_Node000003_Node000010"><a xlink:title=" ">
<path fill="none" stroke="#8b1a1a" d="M333.11,-840.44C341.37,-836.87 349.37,-832.45 356.25,-827 380.03,-808.16 367.74,-786.88 392.25,-769 396.98,-765.55 402.26,-762.73 407.78,-760.41"/>
<polygon fill="#8b1a1a" stroke="#8b1a1a" points="332.04,-837.1 323.98,-843.98 334.56,-843.63 332.04,-837.1"/>
</a>
</g>
</g>
<!-- Node16 -->
<g id="Node000016" class="node">
<title>Node16</title>
<g id="a_Node000016"><a xlink:href="../../d9/d0e/class_tree_soft__t___fagus_sylvatica__2sb___trail___b.html" target="_top" xlink:title=" ">
<polygon fill="white" stroke="#666666" points="535,-722 403.5,-722 403.5,-690 535,-690 535,-722"/>
<text text-anchor="start" x="411.5" y="-708.5" font-family="Helvetica,sans-Serif" font-size="10.00">TreeSoft_t_FagusSylvatica</text>
<text text-anchor="middle" x="469.25" y="-696.5" font-family="Helvetica,sans-Serif" font-size="10.00">_2sb_Trail_B</text>
</a>
</g>
</g>
<!-- Node15&#45;&gt;Node16 -->
<g id="edge15_Node000015_Node000016" class="edge">
<title>Node15&#45;&gt;Node16</title>
<g id="a_edge15_Node000015_Node000016"><a xlink:title=" ">
<path fill="none" stroke="#8b1a1a" d="M331.79,-669.06C340.02,-670.99 348.36,-673.01 356.25,-675 374.05,-679.5 393.35,-684.71 410.83,-689.57"/>
<polygon fill="#8b1a1a" stroke="#8b1a1a" points="332.7,-665.68 322.16,-666.82 331.11,-672.5 332.7,-665.68"/>
</a>
</g>
</g>
<!-- Node17 -->
<g id="Node000017" class="node">
<title>Node17</title>
<g id="a_Node000017"><a xlink:href="../../d1/d0e/class_tree_soft__t___fagus_sylvatica__2sb___trail___g.html" target="_top" xlink:title=" ">
<polygon fill="white" stroke="#666666" points="535,-672 403.5,-672 403.5,-640 535,-640 535,-672"/>
<text text-anchor="start" x="411.5" y="-658.5" font-family="Helvetica,sans-Serif" font-size="10.00">TreeSoft_t_FagusSylvatica</text>
<text text-anchor="middle" x="469.25" y="-646.5" font-family="Helvetica,sans-Serif" font-size="10.00">_2sb_Trail_G</text>
</a>
</g>
</g>
<!-- Node15&#45;&gt;Node17 -->
<g id="edge16_Node000015_Node000017" class="edge">
<title>Node15&#45;&gt;Node17</title>
<g id="a_edge16_Node000015_Node000017"><a xlink:title=" ">
<path fill="none" stroke="#8b1a1a" d="M360.28,-656C374.65,-656 389.32,-656 403.04,-656"/>
<polygon fill="#8b1a1a" stroke="#8b1a1a" points="360.36,-652.5 350.36,-656 360.36,-659.5 360.36,-652.5"/>
</a>
</g>
</g>
<!-- Node18 -->
<g id="Node000018" class="node">
<title>Node18</title>
<g id="a_Node000018"><a xlink:href="../../d3/d01/class_tree_soft__t___fagus_sylvatica__2sb___trail___r.html" target="_top" xlink:title=" ">
<polygon fill="white" stroke="#666666" points="535,-622 403.5,-622 403.5,-590 535,-590 535,-622"/>
<text text-anchor="start" x="411.5" y="-608.5" font-family="Helvetica,sans-Serif" font-size="10.00">TreeSoft_t_FagusSylvatica</text>
<text text-anchor="middle" x="469.25" y="-596.5" font-family="Helvetica,sans-Serif" font-size="10.00">_2sb_Trail_R</text>
</a>
</g>
</g>
<!-- Node15&#45;&gt;Node18 -->
<g id="edge17_Node000015_Node000018" class="edge">
<title>Node15&#45;&gt;Node18</title>
<g id="a_edge17_Node000015_Node000018"><a xlink:title=" ">
<path fill="none" stroke="#8b1a1a" d="M331.79,-642.94C340.02,-641.01 348.36,-638.99 356.25,-637 374.05,-632.5 393.35,-627.29 410.83,-622.43"/>
<polygon fill="#8b1a1a" stroke="#8b1a1a" points="331.11,-639.5 322.16,-645.18 332.7,-646.32 331.11,-639.5"/>
</a>
</g>
</g>
<!-- Node19 -->
<g id="Node000019" class="node">
<title>Node19</title>
<g id="a_Node000019"><a xlink:href="../../db/d00/class_tree_soft__t___fagus_sylvatica__2sb___trail___y.html" target="_top" xlink:title=" ">
<polygon fill="white" stroke="#666666" points="535,-572 403.5,-572 403.5,-540 535,-540 535,-572"/>
<text text-anchor="start" x="411.5" y="-558.5" font-family="Helvetica,sans-Serif" font-size="10.00">TreeSoft_t_FagusSylvatica</text>
<text text-anchor="middle" x="469.25" y="-546.5" font-family="Helvetica,sans-Serif" font-size="10.00">_2sb_Trail_Y</text>
</a>
</g>
</g>
<!-- Node15&#45;&gt;Node19 -->
<g id="edge18_Node000015_Node000019" class="edge">
<title>Node15&#45;&gt;Node19</title>
<g id="a_edge18_Node000015_Node000019"><a xlink:title=" ">
<path fill="none" stroke="#8b1a1a" d="M350.6,-640.58C352.54,-639.47 354.43,-638.28 356.25,-637 380.47,-620 368.85,-599.11 392.25,-581 396.42,-577.77 401.03,-574.95 405.86,-572.48"/>
<polygon fill="#8b1a1a" stroke="#8b1a1a" points="349.27,-637.33 341.81,-644.85 352.33,-643.63 349.27,-637.33"/>
</a>
</g>
</g>
<!-- Node26 -->
<g id="Node000026" class="node">
<title>Node26</title>
<g id="a_Node000026"><a xlink:href="../../da/d0a/class_tree_soft__t__malus_domestica__2s.html" target="_top" xlink:title=" ">
<polygon fill="white" stroke="#666666" points="546.25,-457 392.25,-457 392.25,-437 546.25,-437 546.25,-457"/>
<text text-anchor="middle" x="469.25" y="-443.5" font-family="Helvetica,sans-Serif" font-size="10.00">TreeSoft_t_malusDomestica_2s</text>
</a>
</g>
</g>
<!-- Node25&#45;&gt;Node26 -->
<g id="edge25_Node000025_Node000026" class="edge">
<title>Node25&#45;&gt;Node26</title>
<g id="a_edge25_Node000025_Node000026"><a xlink:title=" ">
<path fill="none" stroke="#8b1a1a" d="M360.67,-436.52C371.13,-437.54 381.74,-438.58 392.02,-439.58"/>
<polygon fill="#8b1a1a" stroke="#8b1a1a" points="361.2,-433.06 350.91,-435.57 360.52,-440.03 361.2,-433.06"/>
</a>
</g>
</g>
<!-- Node27 -->
<g id="Node000027" class="node">
<title>Node27</title>
<g id="a_Node000027"><a xlink:href="../../da/d0d/class_tree_soft__t__malus_domestica__3s.html" target="_top" xlink:title=" ">
<polygon fill="white" stroke="#666666" points="546.25,-419 392.25,-419 392.25,-399 546.25,-399 546.25,-419"/>
<text text-anchor="middle" x="469.25" y="-405.5" font-family="Helvetica,sans-Serif" font-size="10.00">TreeSoft_t_malusDomestica_3s</text>
</a>
</g>
</g>
<!-- Node25&#45;&gt;Node27 -->
<g id="edge26_Node000025_Node000027" class="edge">
<title>Node25&#45;&gt;Node27</title>
<g id="a_edge26_Node000025_Node000027"><a xlink:title=" ">
<path fill="none" stroke="#8b1a1a" d="M360.67,-419.48C371.13,-418.46 381.74,-417.42 392.02,-416.42"/>
<polygon fill="#8b1a1a" stroke="#8b1a1a" points="360.52,-415.97 350.91,-420.43 361.2,-422.94 360.52,-415.97"/>
</a>
</g>
</g>
</g>
</svg>
