<?xml version="1.0" encoding="UTF-8" standalone="no"?>
<!DOCTYPE svg PUBLIC "-//W3C//DTD SVG 1.1//EN"
 "http://www.w3.org/Graphics/SVG/1.1/DTD/svg11.dtd">
<!-- Generated by graphviz version 11.0.0 (20240428.1522)
 -->
<!-- Title: EntityLightSource Pages: 1 -->
<!--zoomable 268 -->

<svg id="main" version="1.1" xmlns="http://www.w3.org/2000/svg" xmlns:xlink="http://www.w3.org/1999/xlink" xml:space="preserve" onload="init(evt)">
<style type="text/css"><![CDATA[
.node, .edge {opacity: 0.7;}
.node.selected, .edge.selected {opacity: 1;}
.edge:hover path { stroke: red; }
.edge:hover polygon { stroke: red; fill: red; }
]]></style>

<defs>
  <circle id="rim" cx="0" cy="0" r="7"/>
  <circle id="rim2" cx="0" cy="0" r="3.5"/>
  <g id="zoomPlus">
    <use xlink:href="#rim" fill="#404040"><set attributeName="fill" to="#808080" begin="zoomplus.mouseover" end="zoomplus.mouseout"/></use>
    <path d="M-4,0h8M0,-4v8" fill="none" stroke="white" stroke-width="1.5" pointer-events="none"/>
  </g>
  <g id="zoomMin">
    <use xlink:href="#rim" fill="#404040"><set attributeName="fill" to="#808080" begin="zoomminus.mouseover" end="zoomminus.mouseout"/></use>
    <path d="M-4,0h8" fill="none" stroke="white" stroke-width="1.5" pointer-events="none"/>
  </g>
  <g id="arrowUp" transform="translate(30 24)">
    <use xlink:href="#rim"/>
    <path pointer-events="none" fill="none" stroke="white" stroke-width="1.5" d="M0,-3.0v7 M-2.5,-0.5L0,-3.0L2.5,-0.5"/>
  </g>
  <g id="arrowRight" transform="rotate(90) translate(36 -43)">
    <use xlink:href="#rim"/>
    <path pointer-events="none" fill="none" stroke="white" stroke-width="1.5" d="M0,-3.0v7 M-2.5,-0.5L0,-3.0L2.5,-0.5"/>
  </g>
  <g id="arrowDown" transform="rotate(180) translate(-30 -48)">
    <use xlink:href="#rim"/>
    <path pointer-events="none" fill="none" stroke="white" stroke-width="1.5" d="M0,-3.0v7 M-2.5,-0.5L0,-3.0L2.5,-0.5"/>
  </g>
  <g id="arrowLeft" transform="rotate(270) translate(-36 17)">
    <use xlink:href="#rim"/>
    <path pointer-events="none" fill="none" stroke="white" stroke-width="1.5" d="M0,-3.0v7 M-2.5,-0.5L0,-3.0L2.5,-0.5"/>
  </g>
  <g id="resetDef">
    <use xlink:href="#rim2" fill="#404040"><set attributeName="fill" to="#808080" begin="reset.mouseover" end="reset.mouseout"/></use>
  </g>
</defs>
<script type="application/ecmascript">
var viewWidth = 597;
var viewHeight = 268;
var sectionId = 'dynsection-0';
</script>
<script type="application/ecmascript" xlink:href="../../svg.min.js"/>
<svg id="graph" class="graph">
<g id="viewport">
<title>EntityLightSource</title>
<!-- Node1 -->
<g id="Node000001" class="node">
<title>Node1</title>
<g id="a_Node000001"><a xlink:title=" ">
<polygon fill="#999999" stroke="#666666" points="332.62,-20 239.37,-20 239.37,0 332.62,0 332.62,-20"/>
<text text-anchor="middle" x="285.99" y="-6.5" font-family="Helvetica,sans-Serif" font-size="10.00">EntityLightSource</text>
</a>
</g>
</g>
<!-- Node2 -->
<g id="Node000002" class="node">
<title>Node2</title>
<g id="a_Node000002"><a xlink:href="../../d4/d03/classfloat.html" target="_top" xlink:title=" ">
<polygon fill="white" stroke="#666666" points="37.99,-246 3.99,-246 3.99,-226 37.99,-226 37.99,-246"/>
<text text-anchor="middle" x="20.99" y="-232.5" font-family="Helvetica,sans-Serif" font-size="10.00">float</text>
</a>
</g>
</g>
<!-- Node2&#45;&gt;Node1 -->
<g id="edge1_Node000001_Node000002" class="edge">
<title>Node2&#45;&gt;Node1</title>
<g id="a_edge1_Node000001_Node000002"><a xlink:title=" ">
<path fill="none" stroke="#9a32cd" stroke-dasharray="5,2" d="M14.26,-214.72C2.48,-174.98 -16.54,-86.54 28.99,-38 43.05,-23.01 168.67,-15.64 238.93,-12.67"/>
<polygon fill="#9a32cd" stroke="#9a32cd" points="10.88,-215.65 17.21,-224.15 17.56,-213.56 10.88,-215.65"/>
</a>
</g>
<text text-anchor="middle" x="94.99" y="-184.5" font-family="Helvetica,sans-Serif" font-size="10.00" fill="grey"> m_BlinkingSpeed</text>
<text text-anchor="middle" x="94.99" y="-172.5" font-family="Helvetica,sans-Serif" font-size="10.00" fill="grey">m_Brightness</text>
<text text-anchor="middle" x="94.99" y="-160.5" font-family="Helvetica,sans-Serif" font-size="10.00" fill="grey">m_BrightnessPulse</text>
<text text-anchor="start" x="28.99" y="-148.5" font-family="Helvetica,sans-Serif" font-size="10.00" fill="grey">m_BrightnessPulseAmplitude</text>
<text text-anchor="middle" x="94.99" y="-136.5" font-family="Helvetica,sans-Serif" font-size="10.00" fill="grey">Max</text>
<text text-anchor="start" x="28.99" y="-124.5" font-family="Helvetica,sans-Serif" font-size="10.00" fill="grey">m_BrightnessPulseAmplitude</text>
<text text-anchor="middle" x="94.99" y="-112.5" font-family="Helvetica,sans-Serif" font-size="10.00" fill="grey">Min</text>
<text text-anchor="middle" x="94.99" y="-100.5" font-family="Helvetica,sans-Serif" font-size="10.00" fill="grey">m_BrightnessPulseSpeed</text>
<text text-anchor="middle" x="94.99" y="-88.5" font-family="Helvetica,sans-Serif" font-size="10.00" fill="grey">m_BrightnessSpeedOfChange</text>
<text text-anchor="middle" x="94.99" y="-76.5" font-family="Helvetica,sans-Serif" font-size="10.00" fill="grey">m_BrightnessTarget</text>
<text text-anchor="middle" x="94.99" y="-64.5" font-family="Helvetica,sans-Serif" font-size="10.00" fill="grey">m_DancingShadowsAmplitude</text>
<text text-anchor="middle" x="94.99" y="-52.5" font-family="Helvetica,sans-Serif" font-size="10.00" fill="grey">m_DancingShadowsSpeed</text>
<text text-anchor="middle" x="94.99" y="-40.5" font-family="Helvetica,sans-Serif" font-size="10.00" fill="grey">...</text>
</g>
<!-- Node2&#45;&gt;Node2 -->
<g id="edge2_Node000002_Node000002" class="edge">
<title>Node2&#45;&gt;Node2</title>
<g id="a_edge2_Node000002_Node000002"><a xlink:title=" ">
<path fill="none" stroke="#9a32cd" stroke-dasharray="5,2" d="M33.8,-254.98C44.63,-263.26 55.99,-256.93 55.99,-236 55.99,-209.98 38.44,-206.53 26.18,-225.63"/>
<polygon fill="#9a32cd" stroke="#9a32cd" points="36.43,-252.67 27.18,-247.5 31.19,-257.31 36.43,-252.67"/>
</a>
</g>
<text text-anchor="middle" x="78.12" y="-244.5" font-family="Helvetica,sans-Serif" font-size="10.00" fill="grey"> LOWEST</text>
<text text-anchor="middle" x="78.12" y="-232.5" font-family="Helvetica,sans-Serif" font-size="10.00" fill="grey">MAX</text>
<text text-anchor="middle" x="78.12" y="-220.5" font-family="Helvetica,sans-Serif" font-size="10.00" fill="grey">MIN</text>
</g>
<!-- Node3 -->
<g id="Node000003" class="node">
<title>Node3</title>
<g id="a_Node000003"><a xlink:href="../../d9/d09/classbool.html" target="_top" xlink:title=" ">
<polygon fill="white" stroke="#666666" points="192.99,-246 158.99,-246 158.99,-226 192.99,-226 192.99,-246"/>
<text text-anchor="middle" x="175.99" y="-232.5" font-family="Helvetica,sans-Serif" font-size="10.00">bool</text>
</a>
</g>
</g>
<!-- Node3&#45;&gt;Node1 -->
<g id="edge3_Node000001_Node000003" class="edge">
<title>Node3&#45;&gt;Node1</title>
<g id="a_edge3_Node000001_Node000003"><a xlink:title=" ">
<path fill="none" stroke="#9a32cd" stroke-dasharray="5,2" d="M171.29,-214.73C163.5,-175.68 152.69,-89.33 194.99,-38 205.79,-24.9 222.63,-17.97 238.9,-14.37"/>
<polygon fill="#9a32cd" stroke="#9a32cd" points="167.83,-215.33 173.36,-224.37 174.68,-213.85 167.83,-215.33"/>
</a>
</g>
<text text-anchor="middle" x="238.49" y="-112.5" font-family="Helvetica,sans-Serif" font-size="10.00" fill="grey"> m_IsDebugEnabled</text>
</g>
<!-- Node4 -->
<g id="Node000004" class="node">
<title>Node4</title>
<g id="a_Node000004"><a xlink:href="../../d8/d03/class_object.html" target="_top" xlink:title=" ">
<polygon fill="white" stroke="#666666" points="308.24,-246 263.74,-246 263.74,-226 308.24,-226 308.24,-246"/>
<text text-anchor="middle" x="285.99" y="-232.5" font-family="Helvetica,sans-Serif" font-size="10.00">Object</text>
</a>
</g>
</g>
<!-- Node4&#45;&gt;Node1 -->
<g id="edge4_Node000001_Node000004" class="edge">
<title>Node4&#45;&gt;Node1</title>
<g id="a_edge4_Node000001_Node000004"><a xlink:title=" ">
<path fill="none" stroke="#9a32cd" stroke-dasharray="5,2" d="M285.99,-214.26C285.99,-167.19 285.99,-53.74 285.99,-20.38"/>
<polygon fill="#9a32cd" stroke="#9a32cd" points="282.49,-214.15 285.99,-224.15 289.49,-214.15 282.49,-214.15"/>
</a>
</g>
<text text-anchor="middle" x="308.49" y="-112.5" font-family="Helvetica,sans-Serif" font-size="10.00" fill="grey"> m_Parent</text>
</g>
<!-- Node5 -->
<g id="Node000005" class="node">
<title>Node5</title>
<g id="a_Node000005"><a xlink:href="../../d7/d0c/classvector.html" target="_top" xlink:title=" ">
<polygon fill="white" stroke="#666666" points="374.74,-246 333.24,-246 333.24,-226 374.74,-226 374.74,-246"/>
<text text-anchor="middle" x="353.99" y="-232.5" font-family="Helvetica,sans-Serif" font-size="10.00">vector</text>
</a>
</g>
</g>
<!-- Node5&#45;&gt;Node1 -->
<g id="edge5_Node000001_Node000005" class="edge">
<title>Node5&#45;&gt;Node1</title>
<g id="a_edge5_Node000001_Node000005"><a xlink:title=" ">
<path fill="none" stroke="#9a32cd" stroke-dasharray="5,2" d="M353.98,-214.54C353.6,-170.17 350.66,-66.77 331.99,-38 327.05,-30.39 319.15,-24.65 311.28,-20.46"/>
<polygon fill="#9a32cd" stroke="#9a32cd" points="350.48,-214.33 354.02,-224.31 357.48,-214.3 350.48,-214.33"/>
</a>
</g>
<text text-anchor="middle" x="418.99" y="-124.5" font-family="Helvetica,sans-Serif" font-size="10.00" fill="grey"> m_DancingShadowsLocalPos</text>
<text text-anchor="middle" x="418.99" y="-112.5" font-family="Helvetica,sans-Serif" font-size="10.00" fill="grey">m_LocalOri</text>
<text text-anchor="middle" x="418.99" y="-100.5" font-family="Helvetica,sans-Serif" font-size="10.00" fill="grey">m_LocalPos</text>
</g>
<!-- Node5&#45;&gt;Node5 -->
<g id="edge6_Node000005_Node000005" class="edge">
<title>Node5&#45;&gt;Node5</title>
<g id="a_edge6_Node000005_Node000005"><a xlink:title=" ">
<path fill="none" stroke="#9a32cd" stroke-dasharray="5,2" d="M367.47,-254.48C379.67,-263.5 392.74,-257.34 392.74,-236 392.74,-209.98 373.31,-206.53 359.73,-225.63"/>
<polygon fill="#9a32cd" stroke="#9a32cd" points="370.21,-252.28 360.78,-247.46 365.15,-257.11 370.21,-252.28"/>
</a>
</g>
<text text-anchor="middle" x="409.99" y="-250.5" font-family="Helvetica,sans-Serif" font-size="10.00" fill="grey"> Aside</text>
<text text-anchor="middle" x="409.99" y="-238.5" font-family="Helvetica,sans-Serif" font-size="10.00" fill="grey">Forward</text>
<text text-anchor="middle" x="409.99" y="-226.5" font-family="Helvetica,sans-Serif" font-size="10.00" fill="grey">Up</text>
<text text-anchor="middle" x="409.99" y="-214.5" font-family="Helvetica,sans-Serif" font-size="10.00" fill="grey">Zero</text>
</g>
<!-- Node6 -->
<g id="Node000006" class="node">
<title>Node6</title>
<g id="a_Node000006"><a xlink:href="../../d8/d08/class_timer.html" target="_top" xlink:title=" ">
<polygon fill="white" stroke="#666666" points="528.99,-246 488.99,-246 488.99,-226 528.99,-226 528.99,-246"/>
<text text-anchor="middle" x="508.99" y="-232.5" font-family="Helvetica,sans-Serif" font-size="10.00">Timer</text>
</a>
</g>
</g>
<!-- Node6&#45;&gt;Node1 -->
<g id="edge7_Node000001_Node000006" class="edge">
<title>Node6&#45;&gt;Node1</title>
<g id="a_edge7_Node000001_Node000006"><a xlink:title=" ">
<path fill="none" stroke="#9a32cd" stroke-dasharray="5,2" d="M513.96,-214.33C522.24,-174.26 533.67,-85.73 486.99,-38 466.25,-16.79 385.73,-11.8 333.12,-10.87"/>
<polygon fill="#9a32cd" stroke="#9a32cd" points="510.55,-213.53 511.79,-224.05 517.38,-215.06 510.55,-213.53"/>
</a>
</g>
<text text-anchor="middle" x="555.12" y="-112.5" font-family="Helvetica,sans-Serif" font-size="10.00" fill="grey"> m_DeleteTimer</text>
</g>
</g>
</svg>

<g id="navigator" transform="translate(0 0)" fill="#404254">
  <rect fill="#f2f5e9" fill-opacity="0.5" stroke="#606060" stroke-width=".5" x="0" y="0" width="60" height="60"/>
  <use id="zoomplus" xlink:href="#zoomPlus" x="17" y="9" onmousedown="handleZoom(evt,'in')"/>
  <use id="zoomminus" xlink:href="#zoomMin" x="42" y="9" onmousedown="handleZoom(evt,'out')"/>
  <use id="reset" xlink:href="#resetDef" x="30" y="36" onmousedown="handleReset()"/>
   <use id="arrowup" xlink:href="#arrowUp" x="0" y="0" onmousedown="handlePan(0,-1)"/>
  <use id="arrowright" xlink:href="#arrowRight" x="0" y="0" onmousedown="handlePan(1,0)"/>
  <use id="arrowdown" xlink:href="#arrowDown" x="0" y="0" onmousedown="handlePan(0,1)"/>
  <use id="arrowleft" xlink:href="#arrowLeft" x="0" y="0" onmousedown="handlePan(-1,0)"/>
</g>
<svg viewBox="0 0 15 15" width="100%" height="30px" preserveAspectRatio="xMaxYMin meet">
 <g id="arrow_out" transform="scale(0.3 0.3)">
  <a xlink:href="class_entity_light_source__coll__graph_org.svg" target="_base">
   <rect id="button" ry="5" rx="5" y="6" x="6" height="38" width="38"
        fill="#f2f5e9" fill-opacity="0.5" stroke="#606060" stroke-width="1.0"/>
   <path id="arrow"
     d="M 11.500037,31.436501 C 11.940474,20.09759 22.043105,11.32322 32.158766,21.979434 L 37.068811,17.246167 C 37.068811,17.246167 37.088388,32 37.088388,32 L 22.160133,31.978069 C 22.160133,31.978069 26.997745,27.140456 26.997745,27.140456 C 18.528582,18.264221 13.291696,25.230495 11.500037,31.436501 z"
     style="fill:#404040;"/>
  </a>
 </g>
</svg>

<style type='text/css'>
<![CDATA[
[data-mouse-over-selected='false'] { opacity: 0.7; }
[data-mouse-over-selected='true']  { opacity: 1.0; }
]]>
</style>
<script type="application/ecmascript"><![CDATA[
document.addEventListener('DOMContentLoaded', (event) => {
  highlightEdges();
  highlightAdjacentNodes();
});
]]></script>
</svg>
