<?xml version="1.0" encoding="UTF-8" standalone="no"?>
<!DOCTYPE svg PUBLIC "-//W3C//DTD SVG 1.1//EN"
 "http://www.w3.org/Graphics/SVG/1.1/DTD/svg11.dtd">
<!-- Generated by graphviz version 11.0.0 (20240428.1522)
 -->
<!-- Title: EntityLightSource Pages: 1 -->
<svg width="597pt" height="268pt"
 viewBox="0.00 0.00 597.24 268.00" xmlns="http://www.w3.org/2000/svg" xmlns:xlink="http://www.w3.org/1999/xlink">
<g id="graph0" class="graph" transform="scale(1 1) rotate(0) translate(4 264)">
<title>EntityLightSource</title>
<!-- Node1 -->
<g id="Node000001" class="node">
<title>Node1</title>
<g id="a_Node000001"><a xlink:title=" ">
<polygon fill="#999999" stroke="#666666" points="332.62,-20 239.37,-20 239.37,0 332.62,0 332.62,-20"/>
<text text-anchor="middle" x="285.99" y="-6.5" font-family="Helvetica,sans-Serif" font-size="10.00">EntityLightSource</text>
</a>
</g>
</g>
<!-- Node2 -->
<g id="Node000002" class="node">
<title>Node2</title>
<g id="a_Node000002"><a xlink:href="../../d4/d03/classfloat.html" target="_top" xlink:title=" ">
<polygon fill="white" stroke="#666666" points="37.99,-246 3.99,-246 3.99,-226 37.99,-226 37.99,-246"/>
<text text-anchor="middle" x="20.99" y="-232.5" font-family="Helvetica,sans-Serif" font-size="10.00">float</text>
</a>
</g>
</g>
<!-- Node2&#45;&gt;Node1 -->
<g id="edge1_Node000001_Node000002" class="edge">
<title>Node2&#45;&gt;Node1</title>
<g id="a_edge1_Node000001_Node000002"><a xlink:title=" ">
<path fill="none" stroke="#9a32cd" stroke-dasharray="5,2" d="M14.26,-214.72C2.48,-174.98 -16.54,-86.54 28.99,-38 43.05,-23.01 168.67,-15.64 238.93,-12.67"/>
<polygon fill="#9a32cd" stroke="#9a32cd" points="10.88,-215.65 17.21,-224.15 17.56,-213.56 10.88,-215.65"/>
</a>
</g>
<text text-anchor="middle" x="94.99" y="-184.5" font-family="Helvetica,sans-Serif" font-size="10.00" fill="grey"> m_BlinkingSpeed</text>
<text text-anchor="middle" x="94.99" y="-172.5" font-family="Helvetica,sans-Serif" font-size="10.00" fill="grey">m_Brightness</text>
<text text-anchor="middle" x="94.99" y="-160.5" font-family="Helvetica,sans-Serif" font-size="10.00" fill="grey">m_BrightnessPulse</text>
<text text-anchor="start" x="28.99" y="-148.5" font-family="Helvetica,sans-Serif" font-size="10.00" fill="grey">m_BrightnessPulseAmplitude</text>
<text text-anchor="middle" x="94.99" y="-136.5" font-family="Helvetica,sans-Serif" font-size="10.00" fill="grey">Max</text>
<text text-anchor="start" x="28.99" y="-124.5" font-family="Helvetica,sans-Serif" font-size="10.00" fill="grey">m_BrightnessPulseAmplitude</text>
<text text-anchor="middle" x="94.99" y="-112.5" font-family="Helvetica,sans-Serif" font-size="10.00" fill="grey">Min</text>
<text text-anchor="middle" x="94.99" y="-100.5" font-family="Helvetica,sans-Serif" font-size="10.00" fill="grey">m_BrightnessPulseSpeed</text>
<text text-anchor="middle" x="94.99" y="-88.5" font-family="Helvetica,sans-Serif" font-size="10.00" fill="grey">m_BrightnessSpeedOfChange</text>
<text text-anchor="middle" x="94.99" y="-76.5" font-family="Helvetica,sans-Serif" font-size="10.00" fill="grey">m_BrightnessTarget</text>
<text text-anchor="middle" x="94.99" y="-64.5" font-family="Helvetica,sans-Serif" font-size="10.00" fill="grey">m_DancingShadowsAmplitude</text>
<text text-anchor="middle" x="94.99" y="-52.5" font-family="Helvetica,sans-Serif" font-size="10.00" fill="grey">m_DancingShadowsSpeed</text>
<text text-anchor="middle" x="94.99" y="-40.5" font-family="Helvetica,sans-Serif" font-size="10.00" fill="grey">...</text>
</g>
<!-- Node2&#45;&gt;Node2 -->
<g id="edge2_Node000002_Node000002" class="edge">
<title>Node2&#45;&gt;Node2</title>
<g id="a_edge2_Node000002_Node000002"><a xlink:title=" ">
<path fill="none" stroke="#9a32cd" stroke-dasharray="5,2" d="M33.8,-254.98C44.63,-263.26 55.99,-256.93 55.99,-236 55.99,-209.98 38.44,-206.53 26.18,-225.63"/>
<polygon fill="#9a32cd" stroke="#9a32cd" points="36.43,-252.67 27.18,-247.5 31.19,-257.31 36.43,-252.67"/>
</a>
</g>
<text text-anchor="middle" x="78.12" y="-244.5" font-family="Helvetica,sans-Serif" font-size="10.00" fill="grey"> LOWEST</text>
<text text-anchor="middle" x="78.12" y="-232.5" font-family="Helvetica,sans-Serif" font-size="10.00" fill="grey">MAX</text>
<text text-anchor="middle" x="78.12" y="-220.5" font-family="Helvetica,sans-Serif" font-size="10.00" fill="grey">MIN</text>
</g>
<!-- Node3 -->
<g id="Node000003" class="node">
<title>Node3</title>
<g id="a_Node000003"><a xlink:href="../../d9/d09/classbool.html" target="_top" xlink:title=" ">
<polygon fill="white" stroke="#666666" points="192.99,-246 158.99,-246 158.99,-226 192.99,-226 192.99,-246"/>
<text text-anchor="middle" x="175.99" y="-232.5" font-family="Helvetica,sans-Serif" font-size="10.00">bool</text>
</a>
</g>
</g>
<!-- Node3&#45;&gt;Node1 -->
<g id="edge3_Node000001_Node000003" class="edge">
<title>Node3&#45;&gt;Node1</title>
<g id="a_edge3_Node000001_Node000003"><a xlink:title=" ">
<path fill="none" stroke="#9a32cd" stroke-dasharray="5,2" d="M171.29,-214.73C163.5,-175.68 152.69,-89.33 194.99,-38 205.79,-24.9 222.63,-17.97 238.9,-14.37"/>
<polygon fill="#9a32cd" stroke="#9a32cd" points="167.83,-215.33 173.36,-224.37 174.68,-213.85 167.83,-215.33"/>
</a>
</g>
<text text-anchor="middle" x="238.49" y="-112.5" font-family="Helvetica,sans-Serif" font-size="10.00" fill="grey"> m_IsDebugEnabled</text>
</g>
<!-- Node4 -->
<g id="Node000004" class="node">
<title>Node4</title>
<g id="a_Node000004"><a xlink:href="../../d8/d03/class_object.html" target="_top" xlink:title=" ">
<polygon fill="white" stroke="#666666" points="308.24,-246 263.74,-246 263.74,-226 308.24,-226 308.24,-246"/>
<text text-anchor="middle" x="285.99" y="-232.5" font-family="Helvetica,sans-Serif" font-size="10.00">Object</text>
</a>
</g>
</g>
<!-- Node4&#45;&gt;Node1 -->
<g id="edge4_Node000001_Node000004" class="edge">
<title>Node4&#45;&gt;Node1</title>
<g id="a_edge4_Node000001_Node000004"><a xlink:title=" ">
<path fill="none" stroke="#9a32cd" stroke-dasharray="5,2" d="M285.99,-214.26C285.99,-167.19 285.99,-53.74 285.99,-20.38"/>
<polygon fill="#9a32cd" stroke="#9a32cd" points="282.49,-214.15 285.99,-224.15 289.49,-214.15 282.49,-214.15"/>
</a>
</g>
<text text-anchor="middle" x="308.49" y="-112.5" font-family="Helvetica,sans-Serif" font-size="10.00" fill="grey"> m_Parent</text>
</g>
<!-- Node5 -->
<g id="Node000005" class="node">
<title>Node5</title>
<g id="a_Node000005"><a xlink:href="../../d7/d0c/classvector.html" target="_top" xlink:title=" ">
<polygon fill="white" stroke="#666666" points="374.74,-246 333.24,-246 333.24,-226 374.74,-226 374.74,-246"/>
<text text-anchor="middle" x="353.99" y="-232.5" font-family="Helvetica,sans-Serif" font-size="10.00">vector</text>
</a>
</g>
</g>
<!-- Node5&#45;&gt;Node1 -->
<g id="edge5_Node000001_Node000005" class="edge">
<title>Node5&#45;&gt;Node1</title>
<g id="a_edge5_Node000001_Node000005"><a xlink:title=" ">
<path fill="none" stroke="#9a32cd" stroke-dasharray="5,2" d="M353.98,-214.54C353.6,-170.17 350.66,-66.77 331.99,-38 327.05,-30.39 319.15,-24.65 311.28,-20.46"/>
<polygon fill="#9a32cd" stroke="#9a32cd" points="350.48,-214.33 354.02,-224.31 357.48,-214.3 350.48,-214.33"/>
</a>
</g>
<text text-anchor="middle" x="418.99" y="-124.5" font-family="Helvetica,sans-Serif" font-size="10.00" fill="grey"> m_DancingShadowsLocalPos</text>
<text text-anchor="middle" x="418.99" y="-112.5" font-family="Helvetica,sans-Serif" font-size="10.00" fill="grey">m_LocalOri</text>
<text text-anchor="middle" x="418.99" y="-100.5" font-family="Helvetica,sans-Serif" font-size="10.00" fill="grey">m_LocalPos</text>
</g>
<!-- Node5&#45;&gt;Node5 -->
<g id="edge6_Node000005_Node000005" class="edge">
<title>Node5&#45;&gt;Node5</title>
<g id="a_edge6_Node000005_Node000005"><a xlink:title=" ">
<path fill="none" stroke="#9a32cd" stroke-dasharray="5,2" d="M367.47,-254.48C379.67,-263.5 392.74,-257.34 392.74,-236 392.74,-209.98 373.31,-206.53 359.73,-225.63"/>
<polygon fill="#9a32cd" stroke="#9a32cd" points="370.21,-252.28 360.78,-247.46 365.15,-257.11 370.21,-252.28"/>
</a>
</g>
<text text-anchor="middle" x="409.99" y="-250.5" font-family="Helvetica,sans-Serif" font-size="10.00" fill="grey"> Aside</text>
<text text-anchor="middle" x="409.99" y="-238.5" font-family="Helvetica,sans-Serif" font-size="10.00" fill="grey">Forward</text>
<text text-anchor="middle" x="409.99" y="-226.5" font-family="Helvetica,sans-Serif" font-size="10.00" fill="grey">Up</text>
<text text-anchor="middle" x="409.99" y="-214.5" font-family="Helvetica,sans-Serif" font-size="10.00" fill="grey">Zero</text>
</g>
<!-- Node6 -->
<g id="Node000006" class="node">
<title>Node6</title>
<g id="a_Node000006"><a xlink:href="../../d8/d08/class_timer.html" target="_top" xlink:title=" ">
<polygon fill="white" stroke="#666666" points="528.99,-246 488.99,-246 488.99,-226 528.99,-226 528.99,-246"/>
<text text-anchor="middle" x="508.99" y="-232.5" font-family="Helvetica,sans-Serif" font-size="10.00">Timer</text>
</a>
</g>
</g>
<!-- Node6&#45;&gt;Node1 -->
<g id="edge7_Node000001_Node000006" class="edge">
<title>Node6&#45;&gt;Node1</title>
<g id="a_edge7_Node000001_Node000006"><a xlink:title=" ">
<path fill="none" stroke="#9a32cd" stroke-dasharray="5,2" d="M513.96,-214.33C522.24,-174.26 533.67,-85.73 486.99,-38 466.25,-16.79 385.73,-11.8 333.12,-10.87"/>
<polygon fill="#9a32cd" stroke="#9a32cd" points="510.55,-213.53 511.79,-224.05 517.38,-215.06 510.55,-213.53"/>
</a>
</g>
<text text-anchor="middle" x="555.12" y="-112.5" font-family="Helvetica,sans-Serif" font-size="10.00" fill="grey"> m_DeleteTimer</text>
</g>
</g>
</svg>
