<?xml version="1.0" encoding="UTF-8" standalone="no"?>
<!DOCTYPE svg PUBLIC "-//W3C//DTD SVG 1.1//EN"
 "http://www.w3.org/Graphics/SVG/1.1/DTD/svg11.dtd">
<!-- Generated by graphviz version 11.0.0 (20240428.1522)
 -->
<!-- Title: ActionForceDrink Pages: 1 -->
<svg width="292pt" height="140pt"
 viewBox="0.00 0.00 291.62 140.00" xmlns="http://www.w3.org/2000/svg" xmlns:xlink="http://www.w3.org/1999/xlink">
<g id="graph0" class="graph" transform="scale(1 1) rotate(0) translate(4 136)">
<title>ActionForceDrink</title>
<!-- Node1 -->
<g id="Node000001" class="node">
<title>Node1</title>
<g id="a_Node000001"><a xlink:title=" ">
<polygon fill="#999999" stroke="#666666" points="182.12,-76 91.12,-76 91.12,-56 182.12,-56 182.12,-76"/>
<text text-anchor="middle" x="136.62" y="-62.5" font-family="Helvetica,sans-Serif" font-size="10.00">ActionForceDrink</text>
</a>
</g>
</g>
<!-- Node3 -->
<g id="Node000003" class="node">
<title>Node3</title>
<g id="a_Node000003"><a xlink:href="../../dc/d02/class_action_force_drink_alcohol.html" target="_top" xlink:title=" ">
<polygon fill="white" stroke="#666666" points="123.25,-20 0,-20 0,0 123.25,0 123.25,-20"/>
<text text-anchor="middle" x="61.62" y="-6.5" font-family="Helvetica,sans-Serif" font-size="10.00">ActionForceDrinkAlcohol</text>
</a>
</g>
</g>
<!-- Node1&#45;&gt;Node3 -->
<g id="edge2_Node000001_Node000003" class="edge">
<title>Node1&#45;&gt;Node3</title>
<g id="a_edge2_Node000001_Node000003"><a xlink:title=" ">
<path fill="none" stroke="#8b1a1a" d="M114.4,-49C101.51,-39.72 85.72,-28.35 74.79,-20.48"/>
<polygon fill="#8b1a1a" stroke="#8b1a1a" points="112.17,-51.71 122.33,-54.71 116.26,-46.03 112.17,-51.71"/>
</a>
</g>
</g>
<!-- Node4 -->
<g id="Node000004" class="node">
<title>Node4</title>
<g id="a_Node000004"><a xlink:href="../../d0/d0b/class_action_force_drink_disinfectant.html" target="_top" xlink:title=" ">
<polygon fill="white" stroke="#666666" points="283.62,-20 141.62,-20 141.62,0 283.62,0 283.62,-20"/>
<text text-anchor="middle" x="212.62" y="-6.5" font-family="Helvetica,sans-Serif" font-size="10.00">ActionForceDrinkDisinfectant</text>
</a>
</g>
</g>
<!-- Node1&#45;&gt;Node4 -->
<g id="edge3_Node000001_Node000004" class="edge">
<title>Node1&#45;&gt;Node4</title>
<g id="a_edge3_Node000001_Node000004"><a xlink:title=" ">
<path fill="none" stroke="#8b1a1a" d="M159.15,-49C172.2,-39.72 188.2,-28.35 199.28,-20.48"/>
<polygon fill="#8b1a1a" stroke="#8b1a1a" points="157.22,-46.07 151.1,-54.72 161.28,-51.78 157.22,-46.07"/>
</a>
</g>
</g>
<!-- Node2 -->
<g id="Node000002" class="node">
<title>Node2</title>
<g id="a_Node000002"><a xlink:title=" ">
<polygon fill="white" stroke="#666666" points="191.5,-132 81.75,-132 81.75,-112 191.5,-112 191.5,-132"/>
<text text-anchor="middle" x="136.62" y="-118.5" font-family="Helvetica,sans-Serif" font-size="10.00">ActionForceConsume</text>
</a>
</g>
</g>
<!-- Node2&#45;&gt;Node1 -->
<g id="edge1_Node000001_Node000002" class="edge">
<title>Node2&#45;&gt;Node1</title>
<g id="a_edge1_Node000001_Node000002"><a xlink:title=" ">
<path fill="none" stroke="#8b1a1a" d="M136.62,-100.13C136.62,-91.9 136.62,-82.85 136.62,-76.3"/>
<polygon fill="#8b1a1a" stroke="#8b1a1a" points="133.13,-100.08 136.63,-110.08 140.13,-100.08 133.13,-100.08"/>
</a>
</g>
</g>
</g>
</svg>
