<?xml version="1.0" encoding="UTF-8" standalone="no"?>
<!DOCTYPE svg PUBLIC "-//W3C//DTD SVG 1.1//EN"
 "http://www.w3.org/Graphics/SVG/1.1/DTD/svg11.dtd">
<!-- Generated by graphviz version 11.0.0 (20240428.1522)
 -->
<!-- Title: BotStateBase Pages: 1 -->
<!--zoomable 502 -->

<svg id="main" version="1.1" xmlns="http://www.w3.org/2000/svg" xmlns:xlink="http://www.w3.org/1999/xlink" xml:space="preserve" onload="init(evt)">
<style type="text/css"><![CDATA[
.node, .edge {opacity: 0.7;}
.node.selected, .edge.selected {opacity: 1;}
.edge:hover path { stroke: red; }
.edge:hover polygon { stroke: red; fill: red; }
]]></style>

<defs>
  <circle id="rim" cx="0" cy="0" r="7"/>
  <circle id="rim2" cx="0" cy="0" r="3.5"/>
  <g id="zoomPlus">
    <use xlink:href="#rim" fill="#404040"><set attributeName="fill" to="#808080" begin="zoomplus.mouseover" end="zoomplus.mouseout"/></use>
    <path d="M-4,0h8M0,-4v8" fill="none" stroke="white" stroke-width="1.5" pointer-events="none"/>
  </g>
  <g id="zoomMin">
    <use xlink:href="#rim" fill="#404040"><set attributeName="fill" to="#808080" begin="zoomminus.mouseover" end="zoomminus.mouseout"/></use>
    <path d="M-4,0h8" fill="none" stroke="white" stroke-width="1.5" pointer-events="none"/>
  </g>
  <g id="arrowUp" transform="translate(30 24)">
    <use xlink:href="#rim"/>
    <path pointer-events="none" fill="none" stroke="white" stroke-width="1.5" d="M0,-3.0v7 M-2.5,-0.5L0,-3.0L2.5,-0.5"/>
  </g>
  <g id="arrowRight" transform="rotate(90) translate(36 -43)">
    <use xlink:href="#rim"/>
    <path pointer-events="none" fill="none" stroke="white" stroke-width="1.5" d="M0,-3.0v7 M-2.5,-0.5L0,-3.0L2.5,-0.5"/>
  </g>
  <g id="arrowDown" transform="rotate(180) translate(-30 -48)">
    <use xlink:href="#rim"/>
    <path pointer-events="none" fill="none" stroke="white" stroke-width="1.5" d="M0,-3.0v7 M-2.5,-0.5L0,-3.0L2.5,-0.5"/>
  </g>
  <g id="arrowLeft" transform="rotate(270) translate(-36 17)">
    <use xlink:href="#rim"/>
    <path pointer-events="none" fill="none" stroke="white" stroke-width="1.5" d="M0,-3.0v7 M-2.5,-0.5L0,-3.0L2.5,-0.5"/>
  </g>
  <g id="resetDef">
    <use xlink:href="#rim2" fill="#404040"><set attributeName="fill" to="#808080" begin="reset.mouseover" end="reset.mouseout"/></use>
  </g>
</defs>
<script type="application/ecmascript">
var viewWidth = 1614;
var viewHeight = 502;
var sectionId = 'dynsection-1';
</script>
<script type="application/ecmascript" xlink:href="../../svg.min.js"/>
<svg id="graph" class="graph">
<g id="viewport">
<title>BotStateBase</title>
<!-- Node1 -->
<g id="Node000001" class="node">
<title>Node1</title>
<g id="a_Node000001"><a xlink:title="represent weapon state base">
<polygon fill="#999999" stroke="#666666" points="719.12,-88 642.38,-88 642.38,-68 719.12,-68 719.12,-88"/>
<text text-anchor="middle" x="680.75" y="-74.5" font-family="Helvetica,sans-Serif" font-size="10.00">BotStateBase</text>
</a>
</g>
</g>
<!-- Node1&#45;&gt;Node1 -->
<g id="edge39_Node000001_Node000001" class="edge">
<title>Node1&#45;&gt;Node1</title>
<g id="a_edge39_Node000001_Node000001"><a xlink:title=" ">
<path fill="none" stroke="#9a32cd" stroke-dasharray="5,2" d="M730.84,-82.82C734.73,-81.75 737.12,-80.15 737.12,-78 737.12,-74.18 729.54,-72.08 719.48,-71.69"/>
<polygon fill="#9a32cd" stroke="#9a32cd" points="730.44,-79.34 720.98,-84.11 731.35,-86.28 730.44,-79.34"/>
</a>
</g>
<text text-anchor="middle" x="771.25" y="-74.5" font-family="Helvetica,sans-Serif" font-size="10.00" fill="grey"> m_ParentState</text>
</g>
<!-- Node16 -->
<g id="Node000016" class="node">
<title>Node16</title>
<g id="a_Node000016"><a xlink:href="../../de/d09/class_bot.html" target="_top" xlink:title=" ">
<polygon fill="white" stroke="#666666" points="834.25,-20 803.25,-20 803.25,0 834.25,0 834.25,-20"/>
<text text-anchor="middle" x="818.75" y="-6.5" font-family="Helvetica,sans-Serif" font-size="10.00">Bot</text>
</a>
</g>
</g>
<!-- Node1&#45;&gt;Node16 -->
<g id="edge38_Node000016_Node000001" class="edge">
<title>Node1&#45;&gt;Node16</title>
<g id="a_edge38_Node000016_Node000001"><a xlink:title=" ">
<path fill="none" stroke="#9a32cd" stroke-dasharray="5,2" d="M714.34,-63.16C723.9,-59.06 734.29,-54.48 743.75,-50 764.44,-40.2 787.77,-27.86 802.83,-19.72"/>
<polygon fill="#9a32cd" stroke="#9a32cd" points="713.22,-59.83 705.37,-66.94 715.94,-66.28 713.22,-59.83"/>
</a>
</g>
<text text-anchor="middle" x="790.88" y="-40.5" font-family="Helvetica,sans-Serif" font-size="10.00" fill="grey"> m_BotTest</text>
</g>
<!-- Node2 -->
<g id="Node000002" class="node">
<title>Node2</title>
<g id="a_Node000002"><a xlink:href="../../df/d09/class_entity_a_i.html" target="_top" xlink:title=" ">
<polygon fill="white" stroke="#666666" points="684,-182 633.5,-182 633.5,-162 684,-162 684,-182"/>
<text text-anchor="middle" x="658.75" y="-168.5" font-family="Helvetica,sans-Serif" font-size="10.00">EntityAI</text>
</a>
</g>
</g>
<!-- Node2&#45;&gt;Node1 -->
<g id="edge1_Node000001_Node000002" class="edge">
<title>Node2&#45;&gt;Node1</title>
<g id="a_edge1_Node000001_Node000002"><a xlink:title=" ">
<path fill="none" stroke="#9a32cd" stroke-dasharray="5,2" d="M663.65,-150.51C668.29,-131.09 675.06,-102.8 678.52,-88.31"/>
<polygon fill="#9a32cd" stroke="#9a32cd" points="660.3,-149.49 661.37,-160.03 667.1,-151.12 660.3,-149.49"/>
</a>
</g>
<text text-anchor="middle" x="695.75" y="-120.5" font-family="Helvetica,sans-Serif" font-size="10.00" fill="grey"> m_Entity</text>
<text text-anchor="middle" x="695.75" y="-108.5" font-family="Helvetica,sans-Serif" font-size="10.00" fill="grey">m_Target</text>
</g>
<!-- Node3 -->
<g id="Node000003" class="node">
<title>Node3</title>
<g id="a_Node000003"><a xlink:href="../../d2/d01/classarray.html" target="_top" xlink:title="Result for an object found in CGame.IsBoxCollidingGeometryProxy.">
<polygon fill="white" stroke="#666666" points="1362.62,-338 1324.88,-338 1324.88,-318 1362.62,-318 1362.62,-338"/>
<text text-anchor="middle" x="1343.75" y="-324.5" font-family="Helvetica,sans-Serif" font-size="10.00">array</text>
</a>
</g>
</g>
<!-- Node3&#45;&gt;Node2 -->
<g id="edge2_Node000002_Node000003" class="edge">
<title>Node3&#45;&gt;Node2</title>
<g id="a_edge2_Node000002_Node000003"><a xlink:title=" ">
<path fill="none" stroke="#9a32cd" stroke-dasharray="5,2" d="M1330.72,-308.79C1325.27,-302.49 1318.41,-296 1310.75,-292 1262.86,-266.96 1241.62,-291.53 1190.5,-274 1139.02,-256.35 1136.03,-229.12 1083.75,-214 932.84,-170.36 885.3,-224.14 730.75,-196 714.48,-193.04 696.79,-187.42 683.01,-182.48"/>
<polygon fill="#9a32cd" stroke="#9a32cd" points="1327.77,-310.71 1336.7,-316.41 1333.28,-306.38 1327.77,-310.71"/>
</a>
</g>
<text text-anchor="middle" x="1238.88" y="-252.5" font-family="Helvetica,sans-Serif" font-size="10.00" fill="grey"> m_ContinuousActions</text>
<text text-anchor="middle" x="1238.88" y="-240.5" font-family="Helvetica,sans-Serif" font-size="10.00" fill="grey">m_InteractActions</text>
<text text-anchor="middle" x="1238.88" y="-228.5" font-family="Helvetica,sans-Serif" font-size="10.00" fill="grey">m_SingleUseActions</text>
</g>
<!-- Node3&#45;&gt;Node3 -->
<g id="edge5_Node000003_Node000003" class="edge">
<title>Node3&#45;&gt;Node3</title>
<g id="a_edge5_Node000003_Node000003"><a xlink:title=" ">
<path fill="none" stroke="#9a32cd" stroke-dasharray="5,2" d="M1363.04,-343.35C1372.37,-345.29 1380.62,-340.17 1380.62,-328 1380.62,-311.43 1365.32,-307.93 1352.82,-317.51"/>
<polygon fill="#9a32cd" stroke="#9a32cd" points="1364.72,-340.28 1354.19,-339.14 1361.71,-346.6 1364.72,-340.28"/>
</a>
</g>
<text text-anchor="middle" x="1401.62" y="-324.5" font-family="Helvetica,sans-Serif" font-size="10.00" fill="grey"> proxyInfo</text>
</g>
<!-- Node9 -->
<g id="Node000009" class="node">
<title>Node9</title>
<g id="a_Node000009"><a xlink:href="../../d2/d01/classarray.html" target="_top" xlink:title=" ">
<polygon fill="white" stroke="#666666" points="1346,-182 1259.5,-182 1259.5,-162 1346,-162 1346,-182"/>
<text text-anchor="middle" x="1302.75" y="-168.5" font-family="Helvetica,sans-Serif" font-size="10.00">array&lt; Widget &gt;</text>
</a>
</g>
</g>
<!-- Node3&#45;&gt;Node9 -->
<g id="edge13_Node000009_Node000003" class="edge">
<title>Node3&#45;&gt;Node9</title>
<g id="a_edge13_Node000009_Node000003"><a xlink:title=" ">
<path fill="none" stroke="#9a32cd" stroke-dasharray="5,2" d="M1326.97,-309.49C1315.79,-297.34 1302.63,-281.97 1299.75,-274 1288.19,-241.99 1295.88,-200.49 1300.27,-182.27"/>
<polygon fill="#9a32cd" stroke="#9a32cd" points="1324.16,-311.61 1333.56,-316.5 1329.27,-306.82 1324.16,-311.61"/>
</a>
</g>
<text text-anchor="middle" x="1320.75" y="-240.5" font-family="Helvetica,sans-Serif" font-size="10.00" fill="grey"> proxyInfo</text>
</g>
<!-- Node4 -->
<g id="Node000004" class="node">
<title>Node4</title>
<g id="a_Node000004"><a xlink:href="../../d8/d03/class_object.html" target="_top" xlink:title=" ">
<polygon fill="white" stroke="#666666" points="1456,-492 1411.5,-492 1411.5,-472 1456,-472 1456,-492"/>
<text text-anchor="middle" x="1433.75" y="-478.5" font-family="Helvetica,sans-Serif" font-size="10.00">Object</text>
</a>
</g>
</g>
<!-- Node4&#45;&gt;Node3 -->
<g id="edge3_Node000003_Node000004" class="edge">
<title>Node4&#45;&gt;Node3</title>
<g id="a_edge3_Node000003_Node000004"><a xlink:title=" ">
<path fill="none" stroke="#9a32cd" stroke-dasharray="5,2" d="M1412.64,-463.86C1409.71,-460.8 1406.95,-457.47 1404.75,-454 1386.76,-425.63 1396.83,-412.02 1381.75,-382 1373.41,-365.41 1360.16,-348.32 1351.72,-338.19"/>
<polygon fill="#9a32cd" stroke="#9a32cd" points="1410.23,-466.39 1419.94,-470.62 1414.99,-461.26 1410.23,-466.39"/>
</a>
</g>
<text text-anchor="middle" x="1418.25" y="-420.5" font-family="Helvetica,sans-Serif" font-size="10.00" fill="grey"> obj</text>
<text text-anchor="middle" x="1418.25" y="-408.5" font-family="Helvetica,sans-Serif" font-size="10.00" fill="grey">parent</text>
</g>
<!-- Node4&#45;&gt;Node9 -->
<g id="edge11_Node000009_Node000004" class="edge">
<title>Node4&#45;&gt;Node9</title>
<g id="a_edge11_Node000009_Node000004"><a xlink:title=" ">
<path fill="none" stroke="#9a32cd" stroke-dasharray="5,2" d="M1467.34,-477.37C1482.29,-473.89 1498.57,-467.13 1507.75,-454 1526.09,-427.78 1515.32,-413.09 1507.75,-382 1487.85,-300.3 1484.31,-269.04 1420.75,-214 1399.85,-195.9 1370.5,-185.66 1346.3,-179.94"/>
<polygon fill="#9a32cd" stroke="#9a32cd" points="1466.98,-473.88 1457.79,-479.16 1468.27,-480.76 1466.98,-473.88"/>
</a>
</g>
<text text-anchor="middle" x="1516.25" y="-330.5" font-family="Helvetica,sans-Serif" font-size="10.00" fill="grey"> obj</text>
<text text-anchor="middle" x="1516.25" y="-318.5" font-family="Helvetica,sans-Serif" font-size="10.00" fill="grey">parent</text>
</g>
<!-- Node5 -->
<g id="Node000005" class="node">
<title>Node5</title>
<g id="a_Node000005"><a xlink:href="../../db/d06/class_param3.html" target="_top" xlink:title=" ">
<polygon fill="white" stroke="#666666" points="1142.62,-492 1092.88,-492 1092.88,-472 1142.62,-472 1142.62,-492"/>
<text text-anchor="middle" x="1117.75" y="-478.5" font-family="Helvetica,sans-Serif" font-size="10.00">Param3</text>
</a>
</g>
</g>
<!-- Node5&#45;&gt;Node1 -->
<g id="edge26_Node000001_Node000005" class="edge">
<title>Node5&#45;&gt;Node1</title>
<g id="a_edge26_Node000001_Node000005"><a xlink:title=" ">
<path fill="none" stroke="#9a32cd" stroke-dasharray="5,2" d="M1081.28,-479.24C1061.44,-476.39 1037.93,-469.63 1022.75,-454 944.6,-373.55 1031.01,-285.68 944.75,-214 920.7,-194.02 902.31,-214 876.75,-196 855.58,-181.09 863.81,-164.37 843.75,-148 822.03,-130.27 748.44,-102.75 707.97,-88.41"/>
<polygon fill="#9a32cd" stroke="#9a32cd" points="1080.61,-482.69 1090.94,-480.34 1081.4,-475.74 1080.61,-482.69"/>
</a>
</g>
<text text-anchor="middle" x="1023.25" y="-252.5" font-family="Helvetica,sans-Serif" font-size="10.00" fill="grey"> m_WaitingForSlot</text>
<text text-anchor="middle" x="1023.25" y="-240.5" font-family="Helvetica,sans-Serif" font-size="10.00" fill="grey">m_hgSlot</text>
<text text-anchor="middle" x="1023.25" y="-228.5" font-family="Helvetica,sans-Serif" font-size="10.00" fill="grey">m_mskSlot</text>
</g>
<!-- Node5&#45;&gt;Node3 -->
<g id="edge4_Node000003_Node000005" class="edge">
<title>Node5&#45;&gt;Node3</title>
<g id="a_edge4_Node000003_Node000005"><a xlink:title=" ">
<path fill="none" stroke="#9a32cd" stroke-dasharray="5,2" d="M1128.24,-461.79C1141.89,-438.79 1168.01,-401 1201.5,-382 1244.3,-357.72 1267.31,-387.12 1310.75,-364 1322.1,-357.96 1331.74,-346.52 1337.62,-338.36"/>
<polygon fill="#9a32cd" stroke="#9a32cd" points="1125.23,-460.01 1123.31,-470.43 1131.31,-463.48 1125.23,-460.01"/>
</a>
</g>
<text text-anchor="middle" x="1258.88" y="-444.5" font-family="Helvetica,sans-Serif" font-size="10.00" fill="grey"> NO_SORTING</text>
<text text-anchor="middle" x="1258.88" y="-432.5" font-family="Helvetica,sans-Serif" font-size="10.00" fill="grey">geomLevel</text>
<text text-anchor="middle" x="1258.88" y="-420.5" font-family="Helvetica,sans-Serif" font-size="10.00" fill="grey">hierLevel</text>
<text text-anchor="start" x="1200.75" y="-408.5" font-family="Helvetica,sans-Serif" font-size="10.00" fill="grey">m_CurrentSettingAlternate</text>
<text text-anchor="middle" x="1258.88" y="-396.5" font-family="Helvetica,sans-Serif" font-size="10.00" fill="grey">KeyIndex</text>
<text text-anchor="middle" x="1258.88" y="-384.5" font-family="Helvetica,sans-Serif" font-size="10.00" fill="grey">m_CurrentSettingKeyIndex</text>
</g>
<!-- Node5&#45;&gt;Node9 -->
<g id="edge12_Node000009_Node000005" class="edge">
<title>Node5&#45;&gt;Node9</title>
<g id="a_edge12_Node000009_Node000005"><a xlink:title=" ">
<path fill="none" stroke="#9a32cd" stroke-dasharray="5,2" d="M1115.7,-460.25C1110.62,-403.69 1100.12,-248.75 1133.75,-214 1150.92,-196.27 1215.09,-184.46 1259.23,-178.24"/>
<polygon fill="#9a32cd" stroke="#9a32cd" points="1112.21,-460.43 1116.63,-470.06 1119.18,-459.78 1112.21,-460.43"/>
</a>
</g>
<text text-anchor="middle" x="1169.88" y="-354.5" font-family="Helvetica,sans-Serif" font-size="10.00" fill="grey"> NO_SORTING</text>
<text text-anchor="middle" x="1169.88" y="-342.5" font-family="Helvetica,sans-Serif" font-size="10.00" fill="grey">geomLevel</text>
<text text-anchor="middle" x="1169.88" y="-330.5" font-family="Helvetica,sans-Serif" font-size="10.00" fill="grey">hierLevel</text>
<text text-anchor="start" x="1111.75" y="-318.5" font-family="Helvetica,sans-Serif" font-size="10.00" fill="grey">m_CurrentSettingAlternate</text>
<text text-anchor="middle" x="1169.88" y="-306.5" font-family="Helvetica,sans-Serif" font-size="10.00" fill="grey">KeyIndex</text>
<text text-anchor="middle" x="1169.88" y="-294.5" font-family="Helvetica,sans-Serif" font-size="10.00" fill="grey">m_CurrentSettingKeyIndex</text>
</g>
<!-- Node6 -->
<g id="Node000006" class="node">
<title>Node6</title>
<g id="a_Node000006"><a xlink:href="../../d4/d04/class_class.html" target="_top" xlink:title="Super root of all classes in Enforce script.">
<polygon fill="white" stroke="#666666" points="1575.12,-492 1534.38,-492 1534.38,-472 1575.12,-472 1575.12,-492"/>
<text text-anchor="middle" x="1554.75" y="-478.5" font-family="Helvetica,sans-Serif" font-size="10.00">Class</text>
</a>
</g>
</g>
<!-- Node6&#45;&gt;Node3 -->
<g id="edge6_Node000003_Node000006" class="edge">
<title>Node6&#45;&gt;Node3</title>
<g id="a_edge6_Node000003_Node000006"><a xlink:title=" ">
<path fill="none" stroke="#9a32cd" stroke-dasharray="5,2" d="M1532.41,-465.2C1527.45,-461.59 1522.26,-457.71 1517.5,-454 1478.27,-423.38 1472.24,-410.93 1431.75,-382 1408.24,-365.21 1379.24,-348.44 1361.12,-338.4"/>
<polygon fill="#9a32cd" stroke="#9a32cd" points="1530.09,-467.84 1540.25,-470.84 1534.18,-462.16 1530.09,-467.84"/>
</a>
</g>
<text text-anchor="middle" x="1543.38" y="-414.5" font-family="Helvetica,sans-Serif" font-size="10.00" fill="grey"> m_Instance</text>
</g>
<!-- Node6&#45;&gt;Node9 -->
<g id="edge14_Node000009_Node000006" class="edge">
<title>Node6&#45;&gt;Node9</title>
<g id="a_edge14_Node000009_Node000006"><a xlink:title=" ">
<path fill="none" stroke="#9a32cd" stroke-dasharray="5,2" d="M1556.56,-460.48C1558.86,-424.53 1559.82,-348.62 1533.75,-292 1513.89,-248.87 1501.57,-238.26 1460.75,-214 1425.43,-193.01 1379.43,-182.64 1346.18,-177.6"/>
<polygon fill="#9a32cd" stroke="#9a32cd" points="1553.08,-460.06 1555.81,-470.29 1560.06,-460.59 1553.08,-460.06"/>
</a>
</g>
<text text-anchor="middle" x="1579.38" y="-324.5" font-family="Helvetica,sans-Serif" font-size="10.00" fill="grey"> m_Instance</text>
</g>
<!-- Node7 -->
<g id="Node000007" class="node">
<title>Node7</title>
<g id="a_Node000007"><a xlink:href="../../d5/d02/classstring.html" target="_top" xlink:title=" ">
<polygon fill="white" stroke="#666666" points="782.75,-492 742.75,-492 742.75,-472 782.75,-472 782.75,-492"/>
<text text-anchor="middle" x="762.75" y="-478.5" font-family="Helvetica,sans-Serif" font-size="10.00">string</text>
</a>
</g>
</g>
<!-- Node7&#45;&gt;Node1 -->
<g id="edge27_Node000001_Node000007" class="edge">
<title>Node7&#45;&gt;Node1</title>
<g id="a_edge27_Node000001_Node000007"><a xlink:title=" ">
<path fill="none" stroke="#9a32cd" stroke-dasharray="5,2" d="M731.31,-478.98C700.81,-476.17 653.7,-469.52 615.75,-454 487.18,-401.41 422.98,-397.93 360.25,-274 348.21,-250.21 344.63,-235.61 360.25,-214 375.19,-193.33 390.94,-205.15 414.75,-196 508.47,-160.01 617.22,-109.27 661,-88.46"/>
<polygon fill="#9a32cd" stroke="#9a32cd" points="730.76,-482.45 741.01,-479.79 731.34,-475.47 730.76,-482.45"/>
</a>
</g>
<text text-anchor="middle" x="379.5" y="-240.5" font-family="Helvetica,sans-Serif" font-size="10.00" fill="grey"> m_Type</text>
</g>
<!-- Node7&#45;&gt;Node3 -->
<g id="edge7_Node000003_Node000007" class="edge">
<title>Node7&#45;&gt;Node3</title>
<g id="a_edge7_Node000003_Node000007"><a xlink:title=" ">
<path fill="none" stroke="#9a32cd" stroke-dasharray="5,2" d="M794.27,-479.41C849.53,-476.28 961.47,-468.37 997.75,-454 1047.58,-434.26 1044.36,-400.95 1094.5,-382 1184.71,-347.9 1223.86,-405.86 1310.75,-364 1322.49,-358.35 1332.17,-346.59 1337.95,-338.26"/>
<polygon fill="#9a32cd" stroke="#9a32cd" points="794.38,-475.9 784.59,-479.94 794.77,-482.89 794.38,-475.9"/>
</a>
</g>
<text text-anchor="middle" x="1111.38" y="-414.5" font-family="Helvetica,sans-Serif" font-size="10.00" fill="grey"> m_Test</text>
</g>
<!-- Node7&#45;&gt;Node7 -->
<g id="edge8_Node000007_Node000007" class="edge">
<title>Node7&#45;&gt;Node7</title>
<g id="a_edge8_Node000007_Node000007"><a xlink:title=" ">
<path fill="none" stroke="#9a32cd" stroke-dasharray="5,2" d="M788.52,-493.91C795.47,-493.28 800.75,-489.31 800.75,-482 800.75,-471.12 789.05,-467.64 777.57,-471.55"/>
<polygon fill="#9a32cd" stroke="#9a32cd" points="789.45,-490.5 779.07,-492.65 788.52,-497.44 789.45,-490.5"/>
</a>
</g>
<text text-anchor="middle" x="816.5" y="-478.5" font-family="Helvetica,sans-Serif" font-size="10.00" fill="grey"> Empty</text>
</g>
<!-- Node7&#45;&gt;Node9 -->
<g id="edge15_Node000009_Node000007" class="edge">
<title>Node7&#45;&gt;Node9</title>
<g id="a_edge15_Node000009_Node000007"><a xlink:title=" ">
<path fill="none" stroke="#9a32cd" stroke-dasharray="5,2" d="M793.53,-468.1C803.29,-463.82 814.06,-458.89 823.75,-454 948.25,-391.19 997.29,-385.72 1080.75,-274 1098.48,-250.27 1086.44,-232.27 1109.75,-214 1132.6,-196.09 1209.8,-183.92 1259.36,-177.74"/>
<polygon fill="#9a32cd" stroke="#9a32cd" points="792.23,-464.85 784.43,-472.03 795,-471.28 792.23,-464.85"/>
</a>
</g>
<text text-anchor="middle" x="1081.38" y="-324.5" font-family="Helvetica,sans-Serif" font-size="10.00" fill="grey"> m_Test</text>
</g>
<!-- Node11 -->
<g id="Node000011" class="node">
<title>Node11</title>
<g id="a_Node000011"><a xlink:href="../../d4/d0d/class_sound_lookup_table.html" target="_top" xlink:title=" ">
<polygon fill="white" stroke="#666666" points="590,-338 491.5,-338 491.5,-318 590,-318 590,-338"/>
<text text-anchor="middle" x="540.75" y="-324.5" font-family="Helvetica,sans-Serif" font-size="10.00">SoundLookupTable</text>
</a>
</g>
</g>
<!-- Node7&#45;&gt;Node11 -->
<g id="edge21_Node000011_Node000007" class="edge">
<title>Node7&#45;&gt;Node11</title>
<g id="a_edge21_Node000011_Node000007"><a xlink:title=" ">
<path fill="none" stroke="#9a32cd" stroke-dasharray="5,2" d="M739.77,-465.26C693.71,-433.73 591.38,-363.66 554.41,-338.35"/>
<polygon fill="#9a32cd" stroke="#9a32cd" points="737.72,-468.1 747.95,-470.87 741.67,-462.33 737.72,-468.1"/>
</a>
</g>
<text text-anchor="middle" x="770.25" y="-420.5" font-family="Helvetica,sans-Serif" font-size="10.00" fill="grey"> m_parameterName</text>
<text text-anchor="middle" x="770.25" y="-408.5" font-family="Helvetica,sans-Serif" font-size="10.00" fill="grey">m_tableCategoryName</text>
</g>
<!-- Node8 -->
<g id="Node000008" class="node">
<title>Node8</title>
<g id="a_Node000008"><a xlink:href="../../dd/d0a/class_widget.html" target="_top" xlink:title=" ">
<polygon fill="white" stroke="#666666" points="1315.12,-492 1268.38,-492 1268.38,-472 1315.12,-472 1315.12,-492"/>
<text text-anchor="middle" x="1291.75" y="-478.5" font-family="Helvetica,sans-Serif" font-size="10.00">Widget</text>
</a>
</g>
</g>
<!-- Node8&#45;&gt;Node3 -->
<g id="edge9_Node000003_Node000008" class="edge">
<title>Node8&#45;&gt;Node3</title>
<g id="a_edge9_Node000003_Node000008"><a xlink:title=" ">
<path fill="none" stroke="#9a32cd" stroke-dasharray="5,2" d="M1313.91,-464.31C1316.93,-461.18 1319.69,-457.71 1321.75,-454 1343.22,-415.26 1344.54,-360.3 1344.11,-338.47"/>
<polygon fill="#9a32cd" stroke="#9a32cd" points="1311.86,-461.45 1306.75,-470.73 1316.53,-466.66 1311.86,-461.45"/>
</a>
</g>
<text text-anchor="middle" x="1360.12" y="-414.5" font-family="Helvetica,sans-Serif" font-size="10.00" fill="grey"> m_Root</text>
</g>
<!-- Node8&#45;&gt;Node9 -->
<g id="edge16_Node000009_Node000008" class="edge">
<title>Node8&#45;&gt;Node9</title>
<g id="a_edge16_Node000009_Node000008"><a xlink:title=" ">
<path fill="none" stroke="#9a32cd" stroke-dasharray="5,2" d="M1257.05,-476.77C1229.61,-472.63 1194.52,-465.28 1185.75,-454 1166.11,-428.73 1167.19,-408.07 1185.75,-382 1199.94,-362.08 1220.5,-381.34 1237.75,-364 1287.4,-314.07 1266.04,-280.65 1288.75,-214 1292.44,-203.18 1296.68,-190.75 1299.52,-182.44"/>
<polygon fill="#9a32cd" stroke="#9a32cd" points="1256.35,-480.21 1266.74,-478.14 1257.33,-473.28 1256.35,-480.21"/>
</a>
</g>
<text text-anchor="middle" x="1292.12" y="-324.5" font-family="Helvetica,sans-Serif" font-size="10.00" fill="grey"> m_Root</text>
</g>
<!-- Node9&#45;&gt;Node3 -->
<g id="edge10_Node000003_Node000009" class="edge">
<title>Node9&#45;&gt;Node3</title>
<g id="a_edge10_Node000003_Node000009"><a xlink:title=" ">
<path fill="none" stroke="#9a32cd" stroke-dasharray="5,2" d="M1326.53,-189.43C1334.15,-196.08 1341.66,-204.46 1345.75,-214 1361.04,-249.71 1351.48,-297.78 1346.37,-317.73"/>
<polygon fill="#9a32cd" stroke="#9a32cd" points="1328.93,-186.87 1318.92,-183.39 1324.57,-192.35 1328.93,-186.87"/>
</a>
</g>
<text text-anchor="middle" x="1385.25" y="-240.5" font-family="Helvetica,sans-Serif" font-size="10.00" fill="grey"> m_Subgroups</text>
</g>
<!-- Node9&#45;&gt;Node9 -->
<g id="edge17_Node000009_Node000009" class="edge">
<title>Node9&#45;&gt;Node9</title>
<g id="a_edge17_Node000009_Node000009"><a xlink:title=" ">
<path fill="none" stroke="#9a32cd" stroke-dasharray="5,2" d="M1357.38,-179.56C1361.48,-177.87 1364,-175.35 1364,-172 1364,-166.2 1356.46,-162.89 1346.24,-162.08"/>
<polygon fill="#9a32cd" stroke="#9a32cd" points="1356.78,-176.11 1347.72,-181.61 1358.23,-182.96 1356.78,-176.11"/>
</a>
</g>
<text text-anchor="middle" x="1395.5" y="-168.5" font-family="Helvetica,sans-Serif" font-size="10.00" fill="grey"> m_Subgroups</text>
</g>
<!-- Node10 -->
<g id="Node000010" class="node">
<title>Node10</title>
<g id="a_Node000010"><a xlink:href="../../d4/d03/classfloat.html" target="_top" xlink:title=" ">
<polygon fill="white" stroke="#666666" points="910.75,-338 876.75,-338 876.75,-318 910.75,-318 910.75,-338"/>
<text text-anchor="middle" x="893.75" y="-324.5" font-family="Helvetica,sans-Serif" font-size="10.00">float</text>
</a>
</g>
</g>
<!-- Node10&#45;&gt;Node1 -->
<g id="edge24_Node000001_Node000010" class="edge">
<title>Node10&#45;&gt;Node1</title>
<g id="a_edge24_Node000001_Node000010"><a xlink:title=" ">
<path fill="none" stroke="#9a32cd" stroke-dasharray="5,2" d="M908.49,-308.56C926.19,-284.07 950.69,-240.79 926.75,-214 902.98,-187.4 796.63,-216.23 767.25,-196 730.17,-170.46 750.67,-139.64 720.75,-106 714.51,-98.99 706.08,-92.94 698.56,-88.36"/>
<polygon fill="#9a32cd" stroke="#9a32cd" points="905.87,-306.23 902.62,-316.31 911.45,-310.45 905.87,-306.23"/>
</a>
</g>
<text text-anchor="middle" x="805" y="-174.5" font-family="Helvetica,sans-Serif" font-size="10.00" fill="grey"> m_Timeout</text>
<text text-anchor="middle" x="805" y="-162.5" font-family="Helvetica,sans-Serif" font-size="10.00" fill="grey">m_dtAccumulator</text>
</g>
<!-- Node10&#45;&gt;Node2 -->
<g id="edge18_Node000002_Node000010" class="edge">
<title>Node10&#45;&gt;Node2</title>
<g id="a_edge18_Node000002_Node000010"><a xlink:title=" ">
<path fill="none" stroke="#9a32cd" stroke-dasharray="5,2" d="M865.96,-314.75C848.23,-305.71 825.91,-291.88 811.25,-274 793.1,-251.85 808.67,-233.56 787.75,-214 768.34,-195.86 756.07,-204.04 730.75,-196 715.37,-191.11 698.14,-185.61 684.4,-181.22"/>
<polygon fill="#9a32cd" stroke="#9a32cd" points="864.41,-317.89 874.94,-319.09 867.46,-311.58 864.41,-317.89"/>
</a>
</g>
<text text-anchor="middle" x="868.5" y="-246.5" font-family="Helvetica,sans-Serif" font-size="10.00" fill="grey"> SOUND_CONTACT_SKIP</text>
<text text-anchor="middle" x="868.5" y="-234.5" font-family="Helvetica,sans-Serif" font-size="10.00" fill="grey">m_SoundContactTickTime</text>
</g>
<!-- Node10&#45;&gt;Node10 -->
<g id="edge19_Node000010_Node000010" class="edge">
<title>Node10&#45;&gt;Node10</title>
<g id="a_edge19_Node000010_Node000010"><a xlink:title=" ">
<path fill="none" stroke="#9a32cd" stroke-dasharray="5,2" d="M912.62,-343.47C921.24,-345.07 928.75,-339.91 928.75,-328 928.75,-311.43 914.22,-307.93 902.36,-317.51"/>
<polygon fill="#9a32cd" stroke="#9a32cd" points="914.25,-340.37 903.72,-339.15 911.19,-346.66 914.25,-340.37"/>
</a>
</g>
<text text-anchor="middle" x="950.88" y="-336.5" font-family="Helvetica,sans-Serif" font-size="10.00" fill="grey"> LOWEST</text>
<text text-anchor="middle" x="950.88" y="-324.5" font-family="Helvetica,sans-Serif" font-size="10.00" fill="grey">MAX</text>
<text text-anchor="middle" x="950.88" y="-312.5" font-family="Helvetica,sans-Serif" font-size="10.00" fill="grey">MIN</text>
</g>
<!-- Node10&#45;&gt;Node16 -->
<g id="edge34_Node000016_Node000010" class="edge">
<title>Node10&#45;&gt;Node16</title>
<g id="a_edge34_Node000016_Node000010"><a xlink:title=" ">
<path fill="none" stroke="#9a32cd" stroke-dasharray="5,2" d="M915.72,-310.78C926.6,-301.38 938.67,-288.54 944.75,-274 953.89,-252.14 954.97,-90.7 946.75,-68 930.6,-23.4 864.79,-13.67 834.34,-11.57"/>
<polygon fill="#9a32cd" stroke="#9a32cd" points="913.77,-307.86 908.2,-316.88 918.18,-313.3 913.77,-307.86"/>
</a>
</g>
<text text-anchor="middle" x="997.88" y="-120.5" font-family="Helvetica,sans-Serif" font-size="10.00" fill="grey"> c_TriggerTimeoutMS</text>
<text text-anchor="middle" x="997.88" y="-108.5" font-family="Helvetica,sans-Serif" font-size="10.00" fill="grey">c_UpdateMS</text>
</g>
<!-- Node11&#45;&gt;Node2 -->
<g id="edge20_Node000002_Node000011" class="edge">
<title>Node11&#45;&gt;Node2</title>
<g id="a_edge20_Node000002_Node000011"><a xlink:title=" ">
<path fill="none" stroke="#9a32cd" stroke-dasharray="5,2" d="M536.38,-306.49C532.4,-281.93 529.82,-240.77 550,-214 569.56,-188.06 607.53,-178.53 633.02,-175.03"/>
<polygon fill="#9a32cd" stroke="#9a32cd" points="532.91,-306.99 538.2,-316.17 539.79,-305.69 532.91,-306.99"/>
</a>
</g>
<text text-anchor="middle" x="599.12" y="-240.5" font-family="Helvetica,sans-Serif" font-size="10.00" fill="grey"> m_SoundImpactTable</text>
</g>
<!-- Node12 -->
<g id="Node000012" class="node">
<title>Node12</title>
<g id="a_Node000012"><a xlink:href="../../d9/d09/classbool.html" target="_top" xlink:title=" ">
<polygon fill="white" stroke="#666666" points="328.75,-338 294.75,-338 294.75,-318 328.75,-318 328.75,-338"/>
<text text-anchor="middle" x="311.75" y="-324.5" font-family="Helvetica,sans-Serif" font-size="10.00">bool</text>
</a>
</g>
</g>
<!-- Node12&#45;&gt;Node1 -->
<g id="edge25_Node000001_Node000012" class="edge">
<title>Node12&#45;&gt;Node1</title>
<g id="a_edge25_Node000001_Node000012"><a xlink:title=" ">
<path fill="none" stroke="#9a32cd" stroke-dasharray="5,2" d="M313.02,-306.2C315.98,-264.36 324.6,-171.96 344.25,-148 358.04,-131.18 371.13,-141.23 389.75,-130 403.79,-121.54 402.69,-112.47 417.75,-106 457.13,-89.09 579.02,-82.49 642.07,-80.15"/>
<polygon fill="#9a32cd" stroke="#9a32cd" points="309.53,-305.93 312.37,-316.14 316.52,-306.39 309.53,-305.93"/>
</a>
</g>
<text text-anchor="middle" x="380" y="-186.5" font-family="Helvetica,sans-Serif" font-size="10.00" fill="grey"> m_Periodic</text>
<text text-anchor="middle" x="380" y="-174.5" font-family="Helvetica,sans-Serif" font-size="10.00" fill="grey">m_TargetInSight</text>
<text text-anchor="middle" x="380" y="-162.5" font-family="Helvetica,sans-Serif" font-size="10.00" fill="grey">m_TargetLost</text>
<text text-anchor="middle" x="380" y="-150.5" font-family="Helvetica,sans-Serif" font-size="10.00" fill="grey">m_Tracking</text>
</g>
<!-- Node12&#45;&gt;Node2 -->
<g id="edge22_Node000002_Node000012" class="edge">
<title>Node12&#45;&gt;Node2</title>
<g id="a_edge22_Node000002_Node000012"><a xlink:title=" ">
<path fill="none" stroke="#9a32cd" stroke-dasharray="5,2" d="M339.39,-314.5C358.28,-305.1 383.16,-290.95 401.75,-274 426.04,-251.85 417.29,-231.68 445,-214 504.41,-176.1 590.7,-171.66 633.18,-172.04"/>
<polygon fill="#9a32cd" stroke="#9a32cd" points="337.91,-311.33 330.42,-318.82 340.94,-317.64 337.91,-311.33"/>
</a>
</g>
<text text-anchor="middle" x="488.12" y="-246.5" font-family="Helvetica,sans-Serif" font-size="10.00" fill="grey"> m_ActionsInitialize</text>
<text text-anchor="middle" x="488.12" y="-234.5" font-family="Helvetica,sans-Serif" font-size="10.00" fill="grey">m_IsMeleeWeapon</text>
</g>
<!-- Node14 -->
<g id="Node000014" class="node">
<title>Node14</title>
<g id="a_Node000014"><a xlink:href="../../d5/d08/class_player_base.html" target="_top" xlink:title=" ">
<polygon fill="white" stroke="#666666" points="190.88,-182 124.62,-182 124.62,-162 190.88,-162 190.88,-182"/>
<text text-anchor="middle" x="157.75" y="-168.5" font-family="Helvetica,sans-Serif" font-size="10.00">PlayerBase</text>
</a>
</g>
</g>
<!-- Node12&#45;&gt;Node14 -->
<g id="edge30_Node000014_Node000012" class="edge">
<title>Node12&#45;&gt;Node14</title>
<g id="a_edge30_Node000014_Node000012"><a xlink:title=" ">
<path fill="none" stroke="#9a32cd" stroke-dasharray="5,2" d="M283.1,-327.18C245.04,-325.67 179.01,-316.63 148,-274 127.69,-246.08 144.19,-201.71 153.05,-182.44"/>
<polygon fill="#9a32cd" stroke="#9a32cd" points="282.8,-330.67 292.88,-327.4 282.96,-323.67 282.8,-330.67"/>
</a>
</g>
<text text-anchor="start" x="148.75" y="-264.5" font-family="Helvetica,sans-Serif" font-size="10.00" fill="grey"> m_PersonalLightDisabledBy</text>
<text text-anchor="middle" x="215.12" y="-252.5" font-family="Helvetica,sans-Serif" font-size="10.00" fill="grey">Debug</text>
<text text-anchor="start" x="148.75" y="-240.5" font-family="Helvetica,sans-Serif" font-size="10.00" fill="grey">m_PersonalLightEnabledOn</text>
<text text-anchor="middle" x="215.12" y="-228.5" font-family="Helvetica,sans-Serif" font-size="10.00" fill="grey">CurrentServer</text>
<text text-anchor="middle" x="215.12" y="-216.5" font-family="Helvetica,sans-Serif" font-size="10.00" fill="grey">m_PersonalLightIsSwitchedOn</text>
</g>
<!-- Node12&#45;&gt;Node16 -->
<g id="edge36_Node000016_Node000012" class="edge">
<title>Node12&#45;&gt;Node16</title>
<g id="a_edge36_Node000016_Node000012"><a xlink:title=" ">
<path fill="none" stroke="#9a32cd" stroke-dasharray="5,2" d="M306.28,-306.95C292.86,-257.7 259.34,-134.49 258.75,-130 257.35,-119.43 251.87,-114.15 258.75,-106 331.37,-20.02 719.67,-11.84 803,-11.08"/>
<polygon fill="#9a32cd" stroke="#9a32cd" points="302.82,-307.57 308.83,-316.3 309.58,-305.73 302.82,-307.57"/>
</a>
</g>
<text text-anchor="middle" x="288.75" y="-120.5" font-family="Helvetica,sans-Serif" font-size="10.00" fill="grey"> m_Triggered</text>
<text text-anchor="middle" x="288.75" y="-108.5" font-family="Helvetica,sans-Serif" font-size="10.00" fill="grey">m_UseTrigger</text>
</g>
<!-- Node13 -->
<g id="Node000013" class="node">
<title>Node13</title>
<g id="a_Node000013"><a xlink:href="../../d4/d0d/class_script_invoker.html" target="_top" xlink:title="ScriptInvoker Class provide list of callbacks &#160;&#160;usage:">
<polygon fill="white" stroke="#666666" points="687.5,-338 616,-338 616,-318 687.5,-318 687.5,-338"/>
<text text-anchor="middle" x="651.75" y="-324.5" font-family="Helvetica,sans-Serif" font-size="10.00">ScriptInvoker</text>
</a>
</g>
</g>
<!-- Node13&#45;&gt;Node2 -->
<g id="edge23_Node000002_Node000013" class="edge">
<title>Node13&#45;&gt;Node2</title>
<g id="a_edge23_Node000002_Node000013"><a xlink:title=" ">
<path fill="none" stroke="#9a32cd" stroke-dasharray="5,2" d="M651.09,-306.39C650.56,-283.71 650.26,-246.2 652.75,-214 653.59,-203.1 655.55,-190.69 657,-182.4"/>
<polygon fill="#9a32cd" stroke="#9a32cd" points="647.58,-306.19 651.36,-316.09 654.58,-306 647.58,-306.19"/>
</a>
</g>
<text text-anchor="middle" x="720.25" y="-246.5" font-family="Helvetica,sans-Serif" font-size="10.00" fill="grey"> m_OnItemAddedToHands</text>
<text text-anchor="middle" x="720.25" y="-234.5" font-family="Helvetica,sans-Serif" font-size="10.00" fill="grey">m_OnItemRemovedFromHands</text>
</g>
<!-- Node14&#45;&gt;Node1 -->
<g id="edge28_Node000001_Node000014" class="edge">
<title>Node14&#45;&gt;Node1</title>
<g id="a_edge28_Node000001_Node000014"><a xlink:title=" ">
<path fill="none" stroke="#9a32cd" stroke-dasharray="5,2" d="M202.34,-166.82C237.09,-161.99 285.52,-151.7 322.75,-130 335.45,-122.6 332.24,-112.34 345.5,-106 396.99,-81.37 565.35,-78.61 642.05,-78.68"/>
<polygon fill="#9a32cd" stroke="#9a32cd" points="202.1,-163.32 192.62,-168.06 202.99,-170.26 202.1,-163.32"/>
</a>
</g>
<text text-anchor="middle" x="367.88" y="-114.5" font-family="Helvetica,sans-Serif" font-size="10.00" fill="grey"> m_Owner</text>
</g>
<!-- Node14&#45;&gt;Node16 -->
<g id="edge32_Node000016_Node000014" class="edge">
<title>Node14&#45;&gt;Node16</title>
<g id="a_edge32_Node000016_Node000014"><a xlink:title=" ">
<path fill="none" stroke="#9a32cd" stroke-dasharray="5,2" d="M163.09,-150.75C169.71,-128.56 182.74,-92.82 203.5,-68 218.74,-49.77 225.21,-45.51 247.75,-38 301.66,-20.05 716.03,-12.61 802.83,-11.24"/>
<polygon fill="#9a32cd" stroke="#9a32cd" points="159.8,-149.5 160.47,-160.07 166.54,-151.39 159.8,-149.5"/>
</a>
</g>
<text text-anchor="middle" x="225.88" y="-74.5" font-family="Helvetica,sans-Serif" font-size="10.00" fill="grey"> m_Owner</text>
</g>
<!-- Node15 -->
<g id="Node000015" class="node">
<title>Node15</title>
<g id="a_Node000015"><a xlink:href="../../dd/d03/class_scripted_light_base.html" target="_top" xlink:title=" ">
<polygon fill="white" stroke="#666666" points="95.5,-338 0,-338 0,-318 95.5,-318 95.5,-338"/>
<text text-anchor="middle" x="47.75" y="-324.5" font-family="Helvetica,sans-Serif" font-size="10.00">ScriptedLightBase</text>
</a>
</g>
</g>
<!-- Node15&#45;&gt;Node14 -->
<g id="edge29_Node000014_Node000015" class="edge">
<title>Node15&#45;&gt;Node14</title>
<g id="a_edge29_Node000014_Node000015"><a xlink:title=" ">
<path fill="none" stroke="#9a32cd" stroke-dasharray="5,2" d="M41.64,-306.7C35.62,-282.34 29.84,-241.38 49,-214 65.89,-189.87 98.89,-179.92 124.13,-175.84"/>
<polygon fill="#9a32cd" stroke="#9a32cd" points="38.25,-307.58 44.27,-316.3 45,-305.73 38.25,-307.58"/>
</a>
</g>
<text text-anchor="middle" x="87.62" y="-240.5" font-family="Helvetica,sans-Serif" font-size="10.00" fill="grey"> m_PersonalLight</text>
</g>
<!-- Node16&#45;&gt;Node1 -->
<g id="edge31_Node000001_Node000016" class="edge">
<title>Node16&#45;&gt;Node1</title>
<g id="a_edge31_Node000001_Node000016"><a xlink:title=" ">
<path fill="none" stroke="#9a32cd" stroke-dasharray="5,2" d="M791.88,-13.06C769.15,-15.87 736.48,-22.47 712.25,-38 700.52,-45.51 691.15,-58.87 685.77,-67.83"/>
<polygon fill="#9a32cd" stroke="#9a32cd" points="791.99,-16.57 801.57,-12.05 791.26,-9.61 791.99,-16.57"/>
</a>
</g>
<text text-anchor="middle" x="728.5" y="-40.5" font-family="Helvetica,sans-Serif" font-size="10.00" fill="grey"> m_Bot</text>
</g>
<!-- Node17 -->
<g id="Node000017" class="node">
<title>Node17</title>
<g id="a_Node000017"><a xlink:href="../../d8/d08/class_timer.html" target="_top" xlink:title=" ">
<polygon fill="white" stroke="#666666" points="937.75,-88 897.75,-88 897.75,-68 937.75,-68 937.75,-88"/>
<text text-anchor="middle" x="917.75" y="-74.5" font-family="Helvetica,sans-Serif" font-size="10.00">Timer</text>
</a>
</g>
</g>
<!-- Node17&#45;&gt;Node16 -->
<g id="edge33_Node000016_Node000017" class="edge">
<title>Node17&#45;&gt;Node16</title>
<g id="a_edge33_Node000016_Node000017"><a xlink:title=" ">
<path fill="none" stroke="#9a32cd" stroke-dasharray="5,2" d="M894.08,-61.22C875.01,-48.51 848.85,-31.07 832.91,-20.44"/>
<polygon fill="#9a32cd" stroke="#9a32cd" points="892.04,-64.07 902.31,-66.7 895.93,-58.25 892.04,-64.07"/>
</a>
</g>
<text text-anchor="middle" x="897" y="-40.5" font-family="Helvetica,sans-Serif" font-size="10.00" fill="grey"> m_Timer</text>
</g>
<!-- Node18 -->
<g id="Node000018" class="node">
<title>Node18</title>
<g id="a_Node000018"><a xlink:href="../../d3/d09/class_bot_f_s_m.html" target="_top" xlink:title="Bot Finite State Machine (Hierarchical)">
<polygon fill="white" stroke="#666666" points="937.75,-182 885.75,-182 885.75,-162 937.75,-162 937.75,-182"/>
<text text-anchor="middle" x="911.75" y="-168.5" font-family="Helvetica,sans-Serif" font-size="10.00">BotFSM</text>
</a>
</g>
</g>
<!-- Node18&#45;&gt;Node1 -->
<g id="edge40_Node000001_Node000018" class="edge">
<title>Node18&#45;&gt;Node1</title>
<g id="a_edge40_Node000001_Node000018"><a xlink:title=" ">
<path fill="none" stroke="#9a32cd" stroke-dasharray="5,2" d="M886.02,-155.94C881.3,-153.25 876.39,-150.51 871.75,-148 856.19,-139.59 850.52,-140.46 836.25,-130 824.21,-121.17 825.86,-113.14 812.75,-106 783.89,-90.28 746.95,-83.68 719.49,-80.93"/>
<polygon fill="#9a32cd" stroke="#9a32cd" points="884.17,-158.92 894.59,-160.87 887.67,-152.85 884.17,-158.92"/>
</a>
</g>
<text text-anchor="middle" x="854.5" y="-114.5" font-family="Helvetica,sans-Serif" font-size="10.00" fill="grey"> m_FSM</text>
</g>
<!-- Node18&#45;&gt;Node16 -->
<g id="edge35_Node000016_Node000018" class="edge">
<title>Node18&#45;&gt;Node16</title>
<g id="a_edge35_Node000016_Node000018"><a xlink:title=" ">
<path fill="none" stroke="#9a32cd" stroke-dasharray="5,2" d="M902.87,-151.77C896.05,-138.15 885.77,-119.91 873.75,-106 865.38,-96.31 858.98,-98.21 851.25,-88 834.97,-66.48 825.19,-35.58 821.06,-20.3"/>
<polygon fill="#9a32cd" stroke="#9a32cd" points="899.61,-153.06 907.1,-160.56 905.92,-150.03 899.61,-153.06"/>
</a>
</g>
<text text-anchor="middle" x="869.5" y="-74.5" font-family="Helvetica,sans-Serif" font-size="10.00" fill="grey"> m_FSM</text>
</g>
<!-- Node19 -->
<g id="Node000019" class="node">
<title>Node19</title>
<g id="a_Node000019"><a xlink:href="../../db/d0c/class_bot_trigger.html" target="_top" xlink:title=" ">
<polygon fill="white" stroke="#666666" points="1053.88,-88 993.62,-88 993.62,-68 1053.88,-68 1053.88,-88"/>
<text text-anchor="middle" x="1023.75" y="-74.5" font-family="Helvetica,sans-Serif" font-size="10.00">BotTrigger</text>
</a>
</g>
</g>
<!-- Node19&#45;&gt;Node16 -->
<g id="edge37_Node000016_Node000019" class="edge">
<title>Node19&#45;&gt;Node16</title>
<g id="a_edge37_Node000016_Node000019"><a xlink:title=" ">
<path fill="none" stroke="#9a32cd" stroke-dasharray="5,2" d="M1008.3,-59.4C1000.51,-51.63 990.46,-43.12 979.75,-38 930.65,-14.54 864.64,-11.08 834.7,-10.82"/>
<polygon fill="#9a32cd" stroke="#9a32cd" points="1005.61,-61.64 1015.01,-66.53 1010.71,-56.85 1005.61,-61.64"/>
</a>
</g>
<text text-anchor="middle" x="1027.12" y="-40.5" font-family="Helvetica,sans-Serif" font-size="10.00" fill="grey"> m_BotTrigger</text>
</g>
</g>
</svg>

<g id="navigator" transform="translate(0 0)" fill="#404254">
  <rect fill="#f2f5e9" fill-opacity="0.5" stroke="#606060" stroke-width=".5" x="0" y="0" width="60" height="60"/>
  <use id="zoomplus" xlink:href="#zoomPlus" x="17" y="9" onmousedown="handleZoom(evt,'in')"/>
  <use id="zoomminus" xlink:href="#zoomMin" x="42" y="9" onmousedown="handleZoom(evt,'out')"/>
  <use id="reset" xlink:href="#resetDef" x="30" y="36" onmousedown="handleReset()"/>
   <use id="arrowup" xlink:href="#arrowUp" x="0" y="0" onmousedown="handlePan(0,-1)"/>
  <use id="arrowright" xlink:href="#arrowRight" x="0" y="0" onmousedown="handlePan(1,0)"/>
  <use id="arrowdown" xlink:href="#arrowDown" x="0" y="0" onmousedown="handlePan(0,1)"/>
  <use id="arrowleft" xlink:href="#arrowLeft" x="0" y="0" onmousedown="handlePan(-1,0)"/>
</g>
<svg viewBox="0 0 15 15" width="100%" height="30px" preserveAspectRatio="xMaxYMin meet">
 <g id="arrow_out" transform="scale(0.3 0.3)">
  <a xlink:href="class_bot_state_base__coll__graph_org.svg" target="_base">
   <rect id="button" ry="5" rx="5" y="6" x="6" height="38" width="38"
        fill="#f2f5e9" fill-opacity="0.5" stroke="#606060" stroke-width="1.0"/>
   <path id="arrow"
     d="M 11.500037,31.436501 C 11.940474,20.09759 22.043105,11.32322 32.158766,21.979434 L 37.068811,17.246167 C 37.068811,17.246167 37.088388,32 37.088388,32 L 22.160133,31.978069 C 22.160133,31.978069 26.997745,27.140456 26.997745,27.140456 C 18.528582,18.264221 13.291696,25.230495 11.500037,31.436501 z"
     style="fill:#404040;"/>
  </a>
 </g>
</svg>

<style type='text/css'>
<![CDATA[
[data-mouse-over-selected='false'] { opacity: 0.7; }
[data-mouse-over-selected='true']  { opacity: 1.0; }
]]>
</style>
<script type="application/ecmascript"><![CDATA[
document.addEventListener('DOMContentLoaded', (event) => {
  highlightEdges();
  highlightAdjacentNodes();
});
]]></script>
</svg>
