<?xml version="1.0" encoding="UTF-8" standalone="no"?>
<!DOCTYPE svg PUBLIC "-//W3C//DTD SVG 1.1//EN"
 "http://www.w3.org/Graphics/SVG/1.1/DTD/svg11.dtd">
<!-- Generated by graphviz version 11.0.0 (20240428.1522)
 -->
<!-- Title: PluginDiagMenu Pages: 1 -->
<svg width="250pt" height="140pt"
 viewBox="0.00 0.00 250.38 140.00" xmlns="http://www.w3.org/2000/svg" xmlns:xlink="http://www.w3.org/1999/xlink">

<svg id="main" version="1.1" xmlns="http://www.w3.org/2000/svg" xmlns:xlink="http://www.w3.org/1999/xlink" xml:space="preserve" onload="init(evt)">
<style type="text/css"><![CDATA[
.node, .edge {opacity: 0.7;}
.node.selected, .edge.selected {opacity: 1;}
.edge:hover path { stroke: red; }
.edge:hover polygon { stroke: red; fill: red; }
]]></style>
<script type="application/ecmascript" xlink:href="../../svg.min.js"/>
<svg id="graph" class="graph">
<g id="graph0" class="graph" transform="scale(1 1) rotate(0) translate(4 136)">
<title>PluginDiagMenu</title>
<!-- Node1 -->
<g id="Node000001" class="node">
<title>Node1</title>
<g id="a_Node000001"><a xlink:title=" ">
<polygon fill="#999999" stroke="#666666" points="163.88,-76 77.38,-76 77.38,-56 163.88,-56 163.88,-76"/>
<text text-anchor="middle" x="120.62" y="-62.5" font-family="Helvetica,sans-Serif" font-size="10.00">PluginDiagMenu</text>
</a>
</g>
</g>
<!-- Node3 -->
<g id="Node000003" class="node">
<title>Node3</title>
<g id="a_Node000003"><a xlink:href="../../d7/d07/class_plugin_diag_menu_client.html" target="_top" xlink:title=" ">
<polygon fill="white" stroke="#666666" points="111.25,-20 0,-20 0,0 111.25,0 111.25,-20"/>
<text text-anchor="middle" x="55.62" y="-6.5" font-family="Helvetica,sans-Serif" font-size="10.00">PluginDiagMenuClient</text>
</a>
</g>
</g>
<!-- Node1&#45;&gt;Node3 -->
<g id="edge2_Node000001_Node000003" class="edge">
<title>Node1&#45;&gt;Node3</title>
<g id="a_edge2_Node000001_Node000003"><a xlink:title=" ">
<path fill="none" stroke="#8b1a1a" d="M100.65,-48.4C89.53,-39.17 76.1,-28.01 66.82,-20.3"/>
<polygon fill="#8b1a1a" stroke="#8b1a1a" points="98.21,-50.93 108.14,-54.63 102.68,-45.54 98.21,-50.93"/>
</a>
</g>
</g>
<!-- Node4 -->
<g id="Node000004" class="node">
<title>Node4</title>
<g id="a_Node000004"><a xlink:href="../../d8/d0f/class_plugin_diag_menu_server.html" target="_top" xlink:title=" ">
<polygon fill="white" stroke="#666666" points="242.38,-20 128.88,-20 128.88,0 242.38,0 242.38,-20"/>
<text text-anchor="middle" x="185.62" y="-6.5" font-family="Helvetica,sans-Serif" font-size="10.00">PluginDiagMenuServer</text>
</a>
</g>
</g>
<!-- Node1&#45;&gt;Node4 -->
<g id="edge3_Node000001_Node000004" class="edge">
<title>Node1&#45;&gt;Node4</title>
<g id="a_edge3_Node000001_Node000004"><a xlink:title=" ">
<path fill="none" stroke="#8b1a1a" d="M140.6,-48.4C151.72,-39.17 165.15,-28.01 174.43,-20.3"/>
<polygon fill="#8b1a1a" stroke="#8b1a1a" points="138.57,-45.54 133.11,-54.63 143.04,-50.93 138.57,-45.54"/>
</a>
</g>
</g>
<!-- Node2 -->
<g id="Node000002" class="node">
<title>Node2</title>
<g id="a_Node000002"><a xlink:href="../../dd/d01/class_plugin_base.html" target="_top" xlink:title=" ">
<polygon fill="white" stroke="#666666" points="153.38,-132 87.88,-132 87.88,-112 153.38,-112 153.38,-132"/>
<text text-anchor="middle" x="120.62" y="-118.5" font-family="Helvetica,sans-Serif" font-size="10.00">PluginBase</text>
</a>
</g>
</g>
<!-- Node2&#45;&gt;Node1 -->
<g id="edge1_Node000001_Node000002" class="edge">
<title>Node2&#45;&gt;Node1</title>
<g id="a_edge1_Node000001_Node000002"><a xlink:title=" ">
<path fill="none" stroke="#8b1a1a" d="M120.62,-100.13C120.62,-91.9 120.62,-82.85 120.62,-76.3"/>
<polygon fill="#8b1a1a" stroke="#8b1a1a" points="117.13,-100.08 120.63,-110.08 124.13,-100.08 117.13,-100.08"/>
</a>
</g>
</g>
</g>
</svg>
</svg>

<style type='text/css'>
<![CDATA[
[data-mouse-over-selected='false'] { opacity: 0.7; }
[data-mouse-over-selected='true']  { opacity: 1.0; }
]]>
</style>
<script type="application/ecmascript"><![CDATA[
document.addEventListener('DOMContentLoaded', (event) => {
  highlightEdges();
  highlightAdjacentNodes();
});
]]></script>
</svg>
