<?xml version="1.0" encoding="UTF-8" standalone="no"?>
<!DOCTYPE svg PUBLIC "-//W3C//DTD SVG 1.1//EN"
 "http://www.w3.org/Graphics/SVG/1.1/DTD/svg11.dtd">
<!-- Generated by graphviz version 11.0.0 (20240428.1522)
 -->
<!-- Title: CrossHair Pages: 1 -->
<svg width="242pt" height="108pt"
 viewBox="0.00 0.00 242.25 108.00" xmlns="http://www.w3.org/2000/svg" xmlns:xlink="http://www.w3.org/1999/xlink">

<svg id="main" version="1.1" xmlns="http://www.w3.org/2000/svg" xmlns:xlink="http://www.w3.org/1999/xlink" xml:space="preserve" onload="init(evt)">
<style type="text/css"><![CDATA[
.node, .edge {opacity: 0.7;}
.node.selected, .edge.selected {opacity: 1;}
.edge:hover path { stroke: red; }
.edge:hover polygon { stroke: red; fill: red; }
]]></style>
<script type="application/ecmascript" xlink:href="../../svg.min.js"/>
<svg id="graph" class="graph">
<g id="graph0" class="graph" transform="scale(1 1) rotate(0) translate(4 104)">
<title>CrossHair</title>
<!-- Node1 -->
<g id="Node000001" class="node">
<title>Node1</title>
<g id="a_Node000001"><a xlink:title=" ">
<polygon fill="#999999" stroke="#666666" points="154.38,-20 95.62,-20 95.62,0 154.38,0 154.38,-20"/>
<text text-anchor="middle" x="125" y="-6.5" font-family="Helvetica,sans-Serif" font-size="10.00">CrossHair</text>
</a>
</g>
</g>
<!-- Node2 -->
<g id="Node000002" class="node">
<title>Node2</title>
<g id="a_Node000002"><a xlink:href="../../d5/d02/classstring.html" target="_top" xlink:title=" ">
<polygon fill="white" stroke="#666666" points="40,-100 0,-100 0,-80 40,-80 40,-100"/>
<text text-anchor="middle" x="20" y="-86.5" font-family="Helvetica,sans-Serif" font-size="10.00">string</text>
</a>
</g>
</g>
<!-- Node2&#45;&gt;Node1 -->
<g id="edge1_Node000001_Node000002" class="edge">
<title>Node2&#45;&gt;Node1</title>
<g id="a_edge1_Node000001_Node000002"><a xlink:title=" ">
<path fill="none" stroke="#9a32cd" stroke-dasharray="5,2" d="M37.75,-72.15C49.11,-61.76 64.41,-48.45 79,-38 88.03,-31.53 98.7,-25.19 107.49,-20.28"/>
<polygon fill="#9a32cd" stroke="#9a32cd" points="35.62,-69.36 30.68,-78.73 40.38,-74.48 35.62,-69.36"/>
</a>
</g>
<text text-anchor="middle" x="100" y="-46.5" font-family="Helvetica,sans-Serif" font-size="10.00" fill="grey"> m_Name</text>
</g>
<!-- Node2&#45;&gt;Node2 -->
<g id="edge2_Node000002_Node000002" class="edge">
<title>Node2&#45;&gt;Node2</title>
<g id="a_edge2_Node000002_Node000002"><a xlink:title=" ">
<path fill="none" stroke="#9a32cd" stroke-dasharray="5,2" d="M51.76,-96.44C55.54,-95.27 58,-93.12 58,-90 58,-84.3 49.76,-81.85 40.33,-82.65"/>
<polygon fill="#9a32cd" stroke="#9a32cd" points="51.53,-92.95 41.84,-97.23 52.09,-99.92 51.53,-92.95"/>
</a>
</g>
<text text-anchor="middle" x="73.75" y="-86.5" font-family="Helvetica,sans-Serif" font-size="10.00" fill="grey"> Empty</text>
</g>
<!-- Node3 -->
<g id="Node000003" class="node">
<title>Node3</title>
<g id="a_Node000003"><a xlink:href="../../d9/d09/classbool.html" target="_top" xlink:title=" ">
<polygon fill="white" stroke="#666666" points="142,-100 108,-100 108,-80 142,-80 142,-100"/>
<text text-anchor="middle" x="125" y="-86.5" font-family="Helvetica,sans-Serif" font-size="10.00">bool</text>
</a>
</g>
</g>
<!-- Node3&#45;&gt;Node1 -->
<g id="edge3_Node000001_Node000003" class="edge">
<title>Node3&#45;&gt;Node1</title>
<g id="a_edge3_Node000001_Node000003"><a xlink:title=" ">
<path fill="none" stroke="#9a32cd" stroke-dasharray="5,2" d="M125,-68.59C125,-52.94 125,-32.08 125,-20.24"/>
<polygon fill="#9a32cd" stroke="#9a32cd" points="121.5,-68.23 125,-78.23 128.5,-68.23 121.5,-68.23"/>
</a>
</g>
<text text-anchor="middle" x="149" y="-52.5" font-family="Helvetica,sans-Serif" font-size="10.00" fill="grey"> m_Current</text>
<text text-anchor="middle" x="149" y="-40.5" font-family="Helvetica,sans-Serif" font-size="10.00" fill="grey">m_Shown</text>
</g>
<!-- Node4 -->
<g id="Node000004" class="node">
<title>Node4</title>
<g id="a_Node000004"><a xlink:href="../../dd/d0a/class_widget.html" target="_top" xlink:title=" ">
<polygon fill="white" stroke="#666666" points="219.38,-100 172.62,-100 172.62,-80 219.38,-80 219.38,-100"/>
<text text-anchor="middle" x="196" y="-86.5" font-family="Helvetica,sans-Serif" font-size="10.00">Widget</text>
</a>
</g>
</g>
<!-- Node4&#45;&gt;Node1 -->
<g id="edge4_Node000001_Node000004" class="edge">
<title>Node4&#45;&gt;Node1</title>
<g id="a_edge4_Node000001_Node000004"><a xlink:title=" ">
<path fill="none" stroke="#9a32cd" stroke-dasharray="5,2" d="M190.74,-68.91C187.29,-58.74 181.92,-46.72 174,-38 167.27,-30.59 158.03,-24.78 149.38,-20.47"/>
<polygon fill="#9a32cd" stroke="#9a32cd" points="187.32,-69.67 193.52,-78.26 194.03,-67.68 187.32,-69.67"/>
</a>
</g>
<text text-anchor="middle" x="210.62" y="-46.5" font-family="Helvetica,sans-Serif" font-size="10.00" fill="grey"> m_Widget</text>
</g>
</g>
</svg>
</svg>

<style type='text/css'>
<![CDATA[
[data-mouse-over-selected='false'] { opacity: 0.7; }
[data-mouse-over-selected='true']  { opacity: 1.0; }
]]>
</style>
<script type="application/ecmascript"><![CDATA[
document.addEventListener('DOMContentLoaded', (event) => {
  highlightEdges();
  highlightAdjacentNodes();
});
]]></script>
</svg>
