<?xml version="1.0" encoding="UTF-8" standalone="no"?>
<!DOCTYPE svg PUBLIC "-//W3C//DTD SVG 1.1//EN"
 "http://www.w3.org/Graphics/SVG/1.1/DTD/svg11.dtd">
<!-- Generated by graphviz version 11.0.0 (20240428.1522)
 -->
<!-- Title: ActionMineBase Pages: 1 -->
<svg width="248pt" height="308pt"
 viewBox="0.00 0.00 247.50 308.00" xmlns="http://www.w3.org/2000/svg" xmlns:xlink="http://www.w3.org/1999/xlink">

<svg id="main" version="1.1" xmlns="http://www.w3.org/2000/svg" xmlns:xlink="http://www.w3.org/1999/xlink" xml:space="preserve" onload="init(evt)">
<style type="text/css"><![CDATA[
.node, .edge {opacity: 0.7;}
.node.selected, .edge.selected {opacity: 1;}
.edge:hover path { stroke: red; }
.edge:hover polygon { stroke: red; fill: red; }
]]></style>
<script type="application/ecmascript" xlink:href="../../svg.min.js"/>
<svg id="graph" class="graph">
<g id="graph0" class="graph" transform="scale(1 1) rotate(0) translate(4 304)">
<title>ActionMineBase</title>
<!-- Node1 -->
<g id="Node000001" class="node">
<title>Node1</title>
<g id="a_Node000001"><a xlink:title=" ">
<polygon fill="#999999" stroke="#666666" points="168.5,-132 81.25,-132 81.25,-112 168.5,-112 168.5,-132"/>
<text text-anchor="middle" x="124.88" y="-118.5" font-family="Helvetica,sans-Serif" font-size="10.00">ActionMineBase</text>
</a>
</g>
</g>
<!-- Node5 -->
<g id="Node000005" class="node">
<title>Node5</title>
<g id="a_Node000005"><a xlink:href="../../d4/d09/class_action_mine_bush.html" target="_top" xlink:title=" ">
<polygon fill="white" stroke="#666666" points="116.5,-76 29.25,-76 29.25,-56 116.5,-56 116.5,-76"/>
<text text-anchor="middle" x="72.88" y="-62.5" font-family="Helvetica,sans-Serif" font-size="10.00">ActionMineBush</text>
</a>
</g>
</g>
<!-- Node1&#45;&gt;Node5 -->
<g id="edge4_Node000001_Node000005" class="edge">
<title>Node1&#45;&gt;Node5</title>
<g id="a_edge4_Node000001_Node000005"><a xlink:title=" ">
<path fill="none" stroke="#8b1a1a" d="M108.09,-103.57C99.36,-94.5 89.03,-83.78 81.83,-76.3"/>
<polygon fill="#8b1a1a" stroke="#8b1a1a" points="105.31,-105.73 114.77,-110.5 110.35,-100.87 105.31,-105.73"/>
</a>
</g>
</g>
<!-- Node7 -->
<g id="Node000007" class="node">
<title>Node7</title>
<g id="a_Node000007"><a xlink:href="../../dc/d0e/class_action_mine_rock.html" target="_top" xlink:title=" ">
<polygon fill="white" stroke="#666666" points="227.5,-76 140.25,-76 140.25,-56 227.5,-56 227.5,-76"/>
<text text-anchor="middle" x="183.88" y="-62.5" font-family="Helvetica,sans-Serif" font-size="10.00">ActionMineRock</text>
</a>
</g>
</g>
<!-- Node1&#45;&gt;Node7 -->
<g id="edge6_Node000001_Node000007" class="edge">
<title>Node1&#45;&gt;Node7</title>
<g id="a_edge6_Node000001_Node000007"><a xlink:title=" ">
<path fill="none" stroke="#8b1a1a" d="M143.62,-103.85C153.59,-94.72 165.46,-83.86 173.72,-76.3"/>
<polygon fill="#8b1a1a" stroke="#8b1a1a" points="141.28,-101.24 136.27,-110.57 146.01,-106.4 141.28,-101.24"/>
</a>
</g>
</g>
<!-- Node2 -->
<g id="Node000002" class="node">
<title>Node2</title>
<g id="a_Node000002"><a xlink:href="../../d6/d0f/class_action_continuous_base.html" target="_top" xlink:title=" ">
<polygon fill="white" stroke="#666666" points="182.38,-188 67.38,-188 67.38,-168 182.38,-168 182.38,-188"/>
<text text-anchor="middle" x="124.88" y="-174.5" font-family="Helvetica,sans-Serif" font-size="10.00">ActionContinuousBase</text>
</a>
</g>
</g>
<!-- Node2&#45;&gt;Node1 -->
<g id="edge1_Node000001_Node000002" class="edge">
<title>Node2&#45;&gt;Node1</title>
<g id="a_edge1_Node000001_Node000002"><a xlink:title=" ">
<path fill="none" stroke="#8b1a1a" d="M124.88,-156.13C124.88,-147.9 124.88,-138.85 124.88,-132.3"/>
<polygon fill="#8b1a1a" stroke="#8b1a1a" points="121.38,-156.08 124.88,-166.08 128.38,-156.08 121.38,-156.08"/>
</a>
</g>
</g>
<!-- Node3 -->
<g id="Node000003" class="node">
<title>Node3</title>
<g id="a_Node000003"><a xlink:href="../../d7/d04/class_animated_action_base.html" target="_top" xlink:title=" ">
<polygon fill="white" stroke="#666666" points="178.62,-244 71.12,-244 71.12,-224 178.62,-224 178.62,-244"/>
<text text-anchor="middle" x="124.88" y="-230.5" font-family="Helvetica,sans-Serif" font-size="10.00">AnimatedActionBase</text>
</a>
</g>
</g>
<!-- Node3&#45;&gt;Node2 -->
<g id="edge2_Node000002_Node000003" class="edge">
<title>Node3&#45;&gt;Node2</title>
<g id="a_edge2_Node000002_Node000003"><a xlink:title=" ">
<path fill="none" stroke="#8b1a1a" d="M124.88,-212.13C124.88,-203.9 124.88,-194.85 124.88,-188.3"/>
<polygon fill="#8b1a1a" stroke="#8b1a1a" points="121.38,-212.08 124.88,-222.08 128.38,-212.08 121.38,-212.08"/>
</a>
</g>
</g>
<!-- Node4 -->
<g id="Node000004" class="node">
<title>Node4</title>
<g id="a_Node000004"><a xlink:title=" ">
<polygon fill="white" stroke="#666666" points="158,-300 91.75,-300 91.75,-280 158,-280 158,-300"/>
<text text-anchor="middle" x="124.88" y="-286.5" font-family="Helvetica,sans-Serif" font-size="10.00">ActionBase</text>
</a>
</g>
</g>
<!-- Node4&#45;&gt;Node3 -->
<g id="edge3_Node000003_Node000004" class="edge">
<title>Node4&#45;&gt;Node3</title>
<g id="a_edge3_Node000003_Node000004"><a xlink:title=" ">
<path fill="none" stroke="#8b1a1a" d="M124.88,-268.13C124.88,-259.9 124.88,-250.85 124.88,-244.3"/>
<polygon fill="#8b1a1a" stroke="#8b1a1a" points="121.38,-268.08 124.88,-278.08 128.38,-268.08 121.38,-268.08"/>
</a>
</g>
</g>
<!-- Node6 -->
<g id="Node000006" class="node">
<title>Node6</title>
<g id="a_Node000006"><a xlink:href="../../d8/d00/class_action_mine_bush_by_hand.html" target="_top" xlink:title=" ">
<polygon fill="white" stroke="#666666" points="121.75,-20 0,-20 0,0 121.75,0 121.75,-20"/>
<text text-anchor="middle" x="60.88" y="-6.5" font-family="Helvetica,sans-Serif" font-size="10.00">ActionMineBushByHand</text>
</a>
</g>
</g>
<!-- Node5&#45;&gt;Node6 -->
<g id="edge5_Node000005_Node000006" class="edge">
<title>Node5&#45;&gt;Node6</title>
<g id="a_edge5_Node000005_Node000006"><a xlink:title=" ">
<path fill="none" stroke="#8b1a1a" d="M68.3,-44.43C66.45,-36.11 64.42,-26.93 62.94,-20.3"/>
<polygon fill="#8b1a1a" stroke="#8b1a1a" points="64.87,-45.11 70.46,-54.12 71.7,-43.6 64.87,-45.11"/>
</a>
</g>
</g>
<!-- Node8 -->
<g id="Node000008" class="node">
<title>Node8</title>
<g id="a_Node000008"><a xlink:href="../../d3/d0b/class_action_mine_rock1_h.html" target="_top" xlink:title=" ">
<polygon fill="white" stroke="#666666" points="239.5,-20 140.25,-20 140.25,0 239.5,0 239.5,-20"/>
<text text-anchor="middle" x="189.88" y="-6.5" font-family="Helvetica,sans-Serif" font-size="10.00">ActionMineRock1H</text>
</a>
</g>
</g>
<!-- Node7&#45;&gt;Node8 -->
<g id="edge7_Node000007_Node000008" class="edge">
<title>Node7&#45;&gt;Node8</title>
<g id="a_edge7_Node000007_Node000008"><a xlink:title=" ">
<path fill="none" stroke="#8b1a1a" d="M186.16,-44.43C187.09,-36.11 188.1,-26.93 188.84,-20.3"/>
<polygon fill="#8b1a1a" stroke="#8b1a1a" points="182.71,-43.76 185.09,-54.09 189.67,-44.54 182.71,-43.76"/>
</a>
</g>
</g>
</g>
</svg>
</svg>

<style type='text/css'>
<![CDATA[
[data-mouse-over-selected='false'] { opacity: 0.7; }
[data-mouse-over-selected='true']  { opacity: 1.0; }
]]>
</style>
<script type="application/ecmascript"><![CDATA[
document.addEventListener('DOMContentLoaded', (event) => {
  highlightEdges();
  highlightAdjacentNodes();
});
]]></script>
</svg>
