<?xml version="1.0" encoding="UTF-8" standalone="no"?>
<!DOCTYPE svg PUBLIC "-//W3C//DTD SVG 1.1//EN"
 "http://www.w3.org/Graphics/SVG/1.1/DTD/svg11.dtd">
<!-- Generated by graphviz version 11.0.0 (20240428.1522)
 -->
<!-- Title: CCTNonRuined Pages: 1 -->
<svg width="206pt" height="112pt"
 viewBox="0.00 0.00 206.25 112.00" xmlns="http://www.w3.org/2000/svg" xmlns:xlink="http://www.w3.org/1999/xlink">

<svg id="main" version="1.1" xmlns="http://www.w3.org/2000/svg" xmlns:xlink="http://www.w3.org/1999/xlink" xml:space="preserve" onload="init(evt)">
<style type="text/css"><![CDATA[
.node, .edge {opacity: 0.7;}
.node.selected, .edge.selected {opacity: 1;}
.edge:hover path { stroke: red; }
.edge:hover polygon { stroke: red; fill: red; }
]]></style>
<script type="application/ecmascript" xlink:href="../../svg.min.js"/>
<svg id="graph" class="graph">
<g id="graph0" class="graph" transform="scale(1 1) rotate(0) translate(4 108)">
<title>CCTNonRuined</title>
<!-- Node1 -->
<g id="Node000001" class="node">
<title>Node1</title>
<g id="a_Node000001"><a xlink:title=" ">
<polygon fill="#999999" stroke="#666666" points="82,-20 0,-20 0,0 82,0 82,-20"/>
<text text-anchor="middle" x="41" y="-6.5" font-family="Helvetica,sans-Serif" font-size="10.00">CCTNonRuined</text>
</a>
</g>
</g>
<!-- Node2 -->
<g id="Node000002" class="node">
<title>Node2</title>
<g id="a_Node000002"><a xlink:href="../../de/d0e/class_c_c_t_base.html" target="_top" xlink:title=" ">
<polygon fill="white" stroke="#666666" points="58.62,-96 1.38,-96 1.38,-76 58.62,-76 58.62,-96"/>
<text text-anchor="middle" x="30" y="-82.5" font-family="Helvetica,sans-Serif" font-size="10.00">CCTBase</text>
</a>
</g>
</g>
<!-- Node2&#45;&gt;Node1 -->
<g id="edge1_Node000001_Node000002" class="edge">
<title>Node2&#45;&gt;Node1</title>
<g id="a_edge1_Node000001_Node000002"><a xlink:title=" ">
<path fill="none" stroke="#8b1a1a" d="M33.02,-64.67C35.19,-50.07 38.01,-31.1 39.65,-20.06"/>
<polygon fill="#8b1a1a" stroke="#8b1a1a" points="29.62,-63.72 31.62,-74.13 36.55,-64.75 29.62,-63.72"/>
</a>
</g>
</g>
<!-- Node3 -->
<g id="Node000003" class="node">
<title>Node3</title>
<g id="a_Node000003"><a xlink:href="../../d4/d03/classfloat.html" target="_top" xlink:title=" ">
<polygon fill="white" stroke="#666666" points="111,-96 77,-96 77,-76 111,-76 111,-96"/>
<text text-anchor="middle" x="94" y="-82.5" font-family="Helvetica,sans-Serif" font-size="10.00">float</text>
</a>
</g>
</g>
<!-- Node3&#45;&gt;Node1 -->
<g id="edge2_Node000001_Node000003" class="edge">
<title>Node3&#45;&gt;Node1</title>
<g id="a_edge2_Node000001_Node000003"><a xlink:title=" ">
<path fill="none" stroke="#9a32cd" stroke-dasharray="5,2" d="M80.68,-66.4C70.08,-51.6 55.71,-31.54 47.49,-20.06"/>
<polygon fill="#9a32cd" stroke="#9a32cd" points="77.74,-68.31 86.41,-74.4 83.43,-64.23 77.74,-68.31"/>
</a>
</g>
<text text-anchor="middle" x="132.62" y="-40.5" font-family="Helvetica,sans-Serif" font-size="10.00" fill="grey"> m_MaximalActionDistanceSq</text>
</g>
<!-- Node3&#45;&gt;Node3 -->
<g id="edge3_Node000003_Node000003" class="edge">
<title>Node3&#45;&gt;Node3</title>
<g id="a_edge3_Node000003_Node000003"><a xlink:title=" ">
<path fill="none" stroke="#9a32cd" stroke-dasharray="5,2" d="M122.67,-92.95C126.47,-91.77 129,-89.45 129,-86 129,-79.68 120.56,-77.17 111.29,-78.45"/>
<polygon fill="#9a32cd" stroke="#9a32cd" points="122.6,-89.45 112.8,-93.47 122.97,-96.44 122.6,-89.45"/>
</a>
</g>
<text text-anchor="middle" x="151.12" y="-94.5" font-family="Helvetica,sans-Serif" font-size="10.00" fill="grey"> LOWEST</text>
<text text-anchor="middle" x="151.12" y="-82.5" font-family="Helvetica,sans-Serif" font-size="10.00" fill="grey">MAX</text>
<text text-anchor="middle" x="151.12" y="-70.5" font-family="Helvetica,sans-Serif" font-size="10.00" fill="grey">MIN</text>
</g>
</g>
</svg>
</svg>

<style type='text/css'>
<![CDATA[
[data-mouse-over-selected='false'] { opacity: 0.7; }
[data-mouse-over-selected='true']  { opacity: 1.0; }
]]>
</style>
<script type="application/ecmascript"><![CDATA[
document.addEventListener('DOMContentLoaded', (event) => {
  highlightEdges();
  highlightAdjacentNodes();
});
]]></script>
</svg>
