<?xml version="1.0" encoding="UTF-8" standalone="no"?>
<!DOCTYPE svg PUBLIC "-//W3C//DTD SVG 1.1//EN"
 "http://www.w3.org/Graphics/SVG/1.1/DTD/svg11.dtd">
<!-- Generated by graphviz version 11.0.0 (20240428.1522)
 -->
<!-- Title: DeferredSwapEntities Pages: 1 -->
<!--zoomable 382 -->

<svg id="main" version="1.1" xmlns="http://www.w3.org/2000/svg" xmlns:xlink="http://www.w3.org/1999/xlink" xml:space="preserve" onload="init(evt)">
<style type="text/css"><![CDATA[
.node, .edge {opacity: 0.7;}
.node.selected, .edge.selected {opacity: 1;}
.edge:hover path { stroke: red; }
.edge:hover polygon { stroke: red; fill: red; }
]]></style>

<defs>
  <circle id="rim" cx="0" cy="0" r="7"/>
  <circle id="rim2" cx="0" cy="0" r="3.5"/>
  <g id="zoomPlus">
    <use xlink:href="#rim" fill="#404040"><set attributeName="fill" to="#808080" begin="zoomplus.mouseover" end="zoomplus.mouseout"/></use>
    <path d="M-4,0h8M0,-4v8" fill="none" stroke="white" stroke-width="1.5" pointer-events="none"/>
  </g>
  <g id="zoomMin">
    <use xlink:href="#rim" fill="#404040"><set attributeName="fill" to="#808080" begin="zoomminus.mouseover" end="zoomminus.mouseout"/></use>
    <path d="M-4,0h8" fill="none" stroke="white" stroke-width="1.5" pointer-events="none"/>
  </g>
  <g id="arrowUp" transform="translate(30 24)">
    <use xlink:href="#rim"/>
    <path pointer-events="none" fill="none" stroke="white" stroke-width="1.5" d="M0,-3.0v7 M-2.5,-0.5L0,-3.0L2.5,-0.5"/>
  </g>
  <g id="arrowRight" transform="rotate(90) translate(36 -43)">
    <use xlink:href="#rim"/>
    <path pointer-events="none" fill="none" stroke="white" stroke-width="1.5" d="M0,-3.0v7 M-2.5,-0.5L0,-3.0L2.5,-0.5"/>
  </g>
  <g id="arrowDown" transform="rotate(180) translate(-30 -48)">
    <use xlink:href="#rim"/>
    <path pointer-events="none" fill="none" stroke="white" stroke-width="1.5" d="M0,-3.0v7 M-2.5,-0.5L0,-3.0L2.5,-0.5"/>
  </g>
  <g id="arrowLeft" transform="rotate(270) translate(-36 17)">
    <use xlink:href="#rim"/>
    <path pointer-events="none" fill="none" stroke="white" stroke-width="1.5" d="M0,-3.0v7 M-2.5,-0.5L0,-3.0L2.5,-0.5"/>
  </g>
  <g id="resetDef">
    <use xlink:href="#rim2" fill="#404040"><set attributeName="fill" to="#808080" begin="reset.mouseover" end="reset.mouseout"/></use>
  </g>
</defs>
<script type="application/ecmascript">
var viewWidth = 1081;
var viewHeight = 382;
var sectionId = 'dynsection-1';
</script>
<script type="application/ecmascript" xlink:href="../../svg.min.js"/>
<svg id="graph" class="graph">
<g id="viewport">
<title>DeferredSwapEntities</title>
<!-- Node1 -->
<g id="Node000001" class="node">
<title>Node1</title>
<g id="a_Node000001"><a xlink:title=" ">
<polygon fill="#999999" stroke="#666666" points="706.88,-20 597.88,-20 597.88,0 706.88,0 706.88,-20"/>
<text text-anchor="middle" x="652.38" y="-6.5" font-family="Helvetica,sans-Serif" font-size="10.00">DeferredSwapEntities</text>
</a>
</g>
</g>
<!-- Node2 -->
<g id="Node000002" class="node">
<title>Node2</title>
<g id="a_Node000002"><a xlink:href="../../d6/d07/class_deferred_event.html" target="_top" xlink:title=" ">
<polygon fill="white" stroke="#666666" points="227.38,-100 151.38,-100 151.38,-80 227.38,-80 227.38,-100"/>
<text text-anchor="middle" x="189.38" y="-86.5" font-family="Helvetica,sans-Serif" font-size="10.00">DeferredEvent</text>
</a>
</g>
</g>
<!-- Node2&#45;&gt;Node1 -->
<g id="edge1_Node000001_Node000002" class="edge">
<title>Node2&#45;&gt;Node1</title>
<g id="a_edge1_Node000001_Node000002"><a xlink:title=" ">
<path fill="none" stroke="#8b1a1a" d="M239.16,-79.53C373.83,-55.59 519.97,-31.99 597.46,-19.66"/>
<polygon fill="#8b1a1a" stroke="#8b1a1a" points="238.55,-76.09 229.32,-81.29 239.78,-82.98 238.55,-76.09"/>
</a>
</g>
</g>
<!-- Node3 -->
<g id="Node000003" class="node">
<title>Node3</title>
<g id="a_Node000003"><a xlink:href="../../df/d09/class_entity_a_i.html" target="_top" xlink:title=" ">
<polygon fill="white" stroke="#666666" points="677.62,-100 627.12,-100 627.12,-80 677.62,-80 677.62,-100"/>
<text text-anchor="middle" x="652.38" y="-86.5" font-family="Helvetica,sans-Serif" font-size="10.00">EntityAI</text>
</a>
</g>
</g>
<!-- Node3&#45;&gt;Node1 -->
<g id="edge2_Node000001_Node000003" class="edge">
<title>Node3&#45;&gt;Node1</title>
<g id="a_edge2_Node000001_Node000003"><a xlink:title=" ">
<path fill="none" stroke="#9a32cd" stroke-dasharray="5,2" d="M652.38,-68.59C652.38,-52.94 652.38,-32.08 652.38,-20.24"/>
<polygon fill="#9a32cd" stroke="#9a32cd" points="648.88,-68.23 652.38,-78.23 655.88,-68.23 648.88,-68.23"/>
</a>
</g>
<text text-anchor="middle" x="672.62" y="-52.5" font-family="Helvetica,sans-Serif" font-size="10.00" fill="grey"> m_item1</text>
<text text-anchor="middle" x="672.62" y="-40.5" font-family="Helvetica,sans-Serif" font-size="10.00" fill="grey">m_item2</text>
</g>
<!-- Node4 -->
<g id="Node000004" class="node">
<title>Node4</title>
<g id="a_Node000004"><a xlink:href="../../d2/d01/classarray.html" target="_top" xlink:title="Result for an object found in CGame.IsBoxCollidingGeometryProxy.">
<polygon fill="white" stroke="#666666" points="339.25,-218 301.5,-218 301.5,-198 339.25,-198 339.25,-218"/>
<text text-anchor="middle" x="320.38" y="-204.5" font-family="Helvetica,sans-Serif" font-size="10.00">array</text>
</a>
</g>
</g>
<!-- Node4&#45;&gt;Node3 -->
<g id="edge3_Node000003_Node000004" class="edge">
<title>Node4&#45;&gt;Node3</title>
<g id="a_edge3_Node000003_Node000004"><a xlink:title=" ">
<path fill="none" stroke="#9a32cd" stroke-dasharray="5,2" d="M342.27,-191.11C371.49,-170.75 425.57,-135.93 477.12,-118 528.3,-100.21 591.94,-94.12 626.72,-92.05"/>
<polygon fill="#9a32cd" stroke="#9a32cd" points="340.39,-188.15 334.25,-196.79 344.44,-193.87 340.39,-188.15"/>
</a>
</g>
<text text-anchor="middle" x="526.5" y="-144.5" font-family="Helvetica,sans-Serif" font-size="10.00" fill="grey"> m_ContinuousActions</text>
<text text-anchor="middle" x="526.5" y="-132.5" font-family="Helvetica,sans-Serif" font-size="10.00" fill="grey">m_InteractActions</text>
<text text-anchor="middle" x="526.5" y="-120.5" font-family="Helvetica,sans-Serif" font-size="10.00" fill="grey">m_SingleUseActions</text>
</g>
<!-- Node4&#45;&gt;Node4 -->
<g id="edge6_Node000004_Node000004" class="edge">
<title>Node4&#45;&gt;Node4</title>
<g id="a_edge6_Node000004_Node000004"><a xlink:title=" ">
<path fill="none" stroke="#9a32cd" stroke-dasharray="5,2" d="M342.68,-221.49C350.7,-221.78 357.25,-217.29 357.25,-208 357.25,-194.64 343.71,-191.2 331.7,-197.67"/>
<polygon fill="#9a32cd" stroke="#9a32cd" points="343.73,-218.15 333.16,-218.75 341.8,-224.88 343.73,-218.15"/>
</a>
</g>
<text text-anchor="middle" x="378.25" y="-204.5" font-family="Helvetica,sans-Serif" font-size="10.00" fill="grey"> proxyInfo</text>
</g>
<!-- Node10 -->
<g id="Node000010" class="node">
<title>Node10</title>
<g id="a_Node000010"><a xlink:href="../../d2/d01/classarray.html" target="_top" xlink:title=" ">
<polygon fill="white" stroke="#666666" points="331.62,-100 245.12,-100 245.12,-80 331.62,-80 331.62,-100"/>
<text text-anchor="middle" x="288.38" y="-86.5" font-family="Helvetica,sans-Serif" font-size="10.00">array&lt; Widget &gt;</text>
</a>
</g>
</g>
<!-- Node4&#45;&gt;Node10 -->
<g id="edge14_Node000010_Node000004" class="edge">
<title>Node4&#45;&gt;Node10</title>
<g id="a_edge14_Node000010_Node000004"><a xlink:title=" ">
<path fill="none" stroke="#9a32cd" stroke-dasharray="5,2" d="M305.51,-188.92C300.17,-183.09 293.86,-176.88 287.38,-172 273.4,-161.49 261.49,-168.93 252.38,-154 244.04,-140.34 245.22,-132.31 252.38,-118 256.08,-110.59 262.89,-104.69 269.59,-100.32"/>
<polygon fill="#9a32cd" stroke="#9a32cd" points="302.79,-191.13 311.99,-196.39 308.08,-186.55 302.79,-191.13"/>
</a>
</g>
<text text-anchor="middle" x="273.38" y="-132.5" font-family="Helvetica,sans-Serif" font-size="10.00" fill="grey"> proxyInfo</text>
</g>
<!-- Node5 -->
<g id="Node000005" class="node">
<title>Node5</title>
<g id="a_Node000005"><a xlink:href="../../d8/d03/class_object.html" target="_top" xlink:title=" ">
<polygon fill="white" stroke="#666666" points="148.62,-372 104.12,-372 104.12,-352 148.62,-352 148.62,-372"/>
<text text-anchor="middle" x="126.38" y="-358.5" font-family="Helvetica,sans-Serif" font-size="10.00">Object</text>
</a>
</g>
</g>
<!-- Node5&#45;&gt;Node4 -->
<g id="edge4_Node000004_Node000005" class="edge">
<title>Node5&#45;&gt;Node4</title>
<g id="a_edge4_Node000004_Node000005"><a xlink:title=" ">
<path fill="none" stroke="#9a32cd" stroke-dasharray="5,2" d="M130.8,-340.65C136.92,-317.7 150.3,-281.09 176.38,-262 216.7,-232.48 243.23,-267.42 287.38,-244 298.74,-237.97 308.37,-226.53 314.24,-218.37"/>
<polygon fill="#9a32cd" stroke="#9a32cd" points="127.48,-339.51 128.53,-350.05 134.28,-341.16 127.48,-339.51"/>
</a>
</g>
<text text-anchor="middle" x="189.88" y="-300.5" font-family="Helvetica,sans-Serif" font-size="10.00" fill="grey"> obj</text>
<text text-anchor="middle" x="189.88" y="-288.5" font-family="Helvetica,sans-Serif" font-size="10.00" fill="grey">parent</text>
</g>
<!-- Node5&#45;&gt;Node10 -->
<g id="edge12_Node000010_Node000005" class="edge">
<title>Node5&#45;&gt;Node10</title>
<g id="a_edge12_Node000010_Node000005"><a xlink:title=" ">
<path fill="none" stroke="#9a32cd" stroke-dasharray="5,2" d="M93.47,-350.68C85.91,-346.7 78.8,-341.29 74.38,-334 57.76,-306.65 64.64,-292.48 74.38,-262 98.87,-185.28 116.12,-160.75 184.38,-118 194.61,-111.59 221.1,-104.75 244.79,-99.57"/>
<polygon fill="#9a32cd" stroke="#9a32cd" points="91.9,-353.82 102.46,-354.66 94.73,-347.41 91.9,-353.82"/>
</a>
</g>
<text text-anchor="middle" x="129.88" y="-210.5" font-family="Helvetica,sans-Serif" font-size="10.00" fill="grey"> obj</text>
<text text-anchor="middle" x="129.88" y="-198.5" font-family="Helvetica,sans-Serif" font-size="10.00" fill="grey">parent</text>
</g>
<!-- Node6 -->
<g id="Node000006" class="node">
<title>Node6</title>
<g id="a_Node000006"><a xlink:href="../../db/d06/class_param3.html" target="_top" xlink:title=" ">
<polygon fill="white" stroke="#666666" points="236.25,-372 186.5,-372 186.5,-352 236.25,-352 236.25,-372"/>
<text text-anchor="middle" x="211.38" y="-358.5" font-family="Helvetica,sans-Serif" font-size="10.00">Param3</text>
</a>
</g>
</g>
<!-- Node6&#45;&gt;Node4 -->
<g id="edge5_Node000004_Node000006" class="edge">
<title>Node6&#45;&gt;Node4</title>
<g id="a_edge5_Node000004_Node000006"><a xlink:title=" ">
<path fill="none" stroke="#9a32cd" stroke-dasharray="5,2" d="M208.23,-340.44C206.09,-318.38 206.42,-283.6 225.12,-262 243.98,-240.23 262.79,-259.01 287.38,-244 298.21,-237.39 307.81,-226.29 313.83,-218.36"/>
<polygon fill="#9a32cd" stroke="#9a32cd" points="204.75,-340.78 209.47,-350.26 211.69,-339.91 204.75,-340.78"/>
</a>
</g>
<text text-anchor="middle" x="283.5" y="-324.5" font-family="Helvetica,sans-Serif" font-size="10.00" fill="grey"> NO_SORTING</text>
<text text-anchor="middle" x="283.5" y="-312.5" font-family="Helvetica,sans-Serif" font-size="10.00" fill="grey">geomLevel</text>
<text text-anchor="middle" x="283.5" y="-300.5" font-family="Helvetica,sans-Serif" font-size="10.00" fill="grey">hierLevel</text>
<text text-anchor="start" x="225.38" y="-288.5" font-family="Helvetica,sans-Serif" font-size="10.00" fill="grey">m_CurrentSettingAlternate</text>
<text text-anchor="middle" x="283.5" y="-276.5" font-family="Helvetica,sans-Serif" font-size="10.00" fill="grey">KeyIndex</text>
<text text-anchor="middle" x="283.5" y="-264.5" font-family="Helvetica,sans-Serif" font-size="10.00" fill="grey">m_CurrentSettingKeyIndex</text>
</g>
<!-- Node6&#45;&gt;Node10 -->
<g id="edge13_Node000010_Node000006" class="edge">
<title>Node6&#45;&gt;Node10</title>
<g id="a_edge13_Node000010_Node000006"><a xlink:title=" ">
<path fill="none" stroke="#9a32cd" stroke-dasharray="5,2" d="M205.26,-340.84C195.22,-307.7 176.31,-245.23 176.12,-244 171.46,-212.34 162.29,-200.85 176.12,-172 193.48,-135.81 235.96,-112.37 263.4,-100.44"/>
<polygon fill="#9a32cd" stroke="#9a32cd" points="201.82,-341.55 208.07,-350.11 208.52,-339.52 201.82,-341.55"/>
</a>
</g>
<text text-anchor="middle" x="234.5" y="-234.5" font-family="Helvetica,sans-Serif" font-size="10.00" fill="grey"> NO_SORTING</text>
<text text-anchor="middle" x="234.5" y="-222.5" font-family="Helvetica,sans-Serif" font-size="10.00" fill="grey">geomLevel</text>
<text text-anchor="middle" x="234.5" y="-210.5" font-family="Helvetica,sans-Serif" font-size="10.00" fill="grey">hierLevel</text>
<text text-anchor="start" x="176.38" y="-198.5" font-family="Helvetica,sans-Serif" font-size="10.00" fill="grey">m_CurrentSettingAlternate</text>
<text text-anchor="middle" x="234.5" y="-186.5" font-family="Helvetica,sans-Serif" font-size="10.00" fill="grey">KeyIndex</text>
<text text-anchor="middle" x="234.5" y="-174.5" font-family="Helvetica,sans-Serif" font-size="10.00" fill="grey">m_CurrentSettingKeyIndex</text>
</g>
<!-- Node7 -->
<g id="Node000007" class="node">
<title>Node7</title>
<g id="a_Node000007"><a xlink:href="../../d4/d04/class_class.html" target="_top" xlink:title="Super root of all classes in Enforce script.">
<polygon fill="white" stroke="#666666" points="421.75,-372 381,-372 381,-352 421.75,-352 421.75,-372"/>
<text text-anchor="middle" x="401.38" y="-358.5" font-family="Helvetica,sans-Serif" font-size="10.00">Class</text>
</a>
</g>
</g>
<!-- Node7&#45;&gt;Node4 -->
<g id="edge7_Node000004_Node000007" class="edge">
<title>Node7&#45;&gt;Node4</title>
<g id="a_edge7_Node000004_Node000007"><a xlink:title=" ">
<path fill="none" stroke="#9a32cd" stroke-dasharray="5,2" d="M377.37,-344.44C373.93,-341.28 370.69,-337.77 368.12,-334 349.25,-306.25 357.62,-293.25 345.38,-262 339.21,-246.28 330.53,-228.66 325.19,-218.22"/>
<polygon fill="#9a32cd" stroke="#9a32cd" points="374.95,-346.98 384.92,-350.56 379.36,-341.54 374.95,-346.98"/>
</a>
</g>
<text text-anchor="middle" x="395" y="-294.5" font-family="Helvetica,sans-Serif" font-size="10.00" fill="grey"> m_Instance</text>
</g>
<!-- Node7&#45;&gt;Node10 -->
<g id="edge15_Node000010_Node000007" class="edge">
<title>Node7&#45;&gt;Node10</title>
<g id="a_edge15_Node000010_Node000007"><a xlink:title=" ">
<path fill="none" stroke="#9a32cd" stroke-dasharray="5,2" d="M417.2,-342.74C418.91,-339.96 420.38,-337.01 421.38,-334 444.01,-265.41 432.87,-239.95 408.38,-172 398.84,-145.54 397.57,-135.28 375.38,-118 362.9,-108.28 346.89,-102.04 332.02,-98.04"/>
<polygon fill="#9a32cd" stroke="#9a32cd" points="414.49,-340.53 411.35,-350.65 420.11,-344.69 414.49,-340.53"/>
</a>
</g>
<text text-anchor="middle" x="458" y="-204.5" font-family="Helvetica,sans-Serif" font-size="10.00" fill="grey"> m_Instance</text>
</g>
<!-- Node8 -->
<g id="Node000008" class="node">
<title>Node8</title>
<g id="a_Node000008"><a xlink:href="../../d5/d02/classstring.html" target="_top" xlink:title=" ">
<polygon fill="white" stroke="#666666" points="564.38,-372 524.38,-372 524.38,-352 564.38,-352 564.38,-372"/>
<text text-anchor="middle" x="544.38" y="-358.5" font-family="Helvetica,sans-Serif" font-size="10.00">string</text>
</a>
</g>
</g>
<!-- Node8&#45;&gt;Node4 -->
<g id="edge8_Node000004_Node000008" class="edge">
<title>Node8&#45;&gt;Node4</title>
<g id="a_edge8_Node000004_Node000008"><a xlink:title=" ">
<path fill="none" stroke="#9a32cd" stroke-dasharray="5,2" d="M514,-346.22C507.54,-342.57 500.93,-338.42 495.12,-334 459.69,-306.99 461.26,-288.41 425.38,-262 397.91,-241.79 361.59,-225.39 339.66,-216.44"/>
<polygon fill="#9a32cd" stroke="#9a32cd" points="512.08,-349.16 522.55,-350.8 515.39,-342.99 512.08,-349.16"/>
</a>
</g>
<text text-anchor="middle" x="513" y="-294.5" font-family="Helvetica,sans-Serif" font-size="10.00" fill="grey"> m_Test</text>
</g>
<!-- Node8&#45;&gt;Node8 -->
<g id="edge9_Node000008_Node000008" class="edge">
<title>Node8&#45;&gt;Node8</title>
<g id="a_edge9_Node000008_Node000008"><a xlink:title=" ">
<path fill="none" stroke="#9a32cd" stroke-dasharray="5,2" d="M570.14,-373.91C577.09,-373.28 582.38,-369.31 582.38,-362 582.38,-351.12 570.67,-347.64 559.2,-351.55"/>
<polygon fill="#9a32cd" stroke="#9a32cd" points="571.07,-370.5 560.7,-372.65 570.15,-377.44 571.07,-370.5"/>
</a>
</g>
<text text-anchor="middle" x="598.12" y="-358.5" font-family="Helvetica,sans-Serif" font-size="10.00" fill="grey"> Empty</text>
</g>
<!-- Node8&#45;&gt;Node10 -->
<g id="edge16_Node000010_Node000008" class="edge">
<title>Node8&#45;&gt;Node10</title>
<g id="a_edge16_Node000010_Node000008"><a xlink:title=" ">
<path fill="none" stroke="#9a32cd" stroke-dasharray="5,2" d="M546.41,-340.44C551.14,-287.71 560.32,-149.59 530.38,-118 517,-103.89 397.83,-96.11 331.86,-92.86"/>
<polygon fill="#9a32cd" stroke="#9a32cd" points="542.95,-339.84 545.49,-350.13 549.92,-340.5 542.95,-339.84"/>
</a>
</g>
<text text-anchor="middle" x="570" y="-204.5" font-family="Helvetica,sans-Serif" font-size="10.00" fill="grey"> m_Test</text>
</g>
<!-- Node12 -->
<g id="Node000012" class="node">
<title>Node12</title>
<g id="a_Node000012"><a xlink:href="../../d4/d0d/class_sound_lookup_table.html" target="_top" xlink:title=" ">
<polygon fill="white" stroke="#666666" points="1010.62,-218 912.12,-218 912.12,-198 1010.62,-198 1010.62,-218"/>
<text text-anchor="middle" x="961.38" y="-204.5" font-family="Helvetica,sans-Serif" font-size="10.00">SoundLookupTable</text>
</a>
</g>
</g>
<!-- Node8&#45;&gt;Node12 -->
<g id="edge22_Node000012_Node000008" class="edge">
<title>Node8&#45;&gt;Node12</title>
<g id="a_edge22_Node000012_Node000008"><a xlink:title=" ">
<path fill="none" stroke="#9a32cd" stroke-dasharray="5,2" d="M575.41,-350.57C634.23,-330.68 765.88,-285.61 875.38,-244 897.22,-235.7 921.91,-225.57 939.21,-218.35"/>
<polygon fill="#9a32cd" stroke="#9a32cd" points="574.43,-347.21 566.08,-353.72 576.67,-353.84 574.43,-347.21"/>
</a>
</g>
<text text-anchor="middle" x="870.88" y="-300.5" font-family="Helvetica,sans-Serif" font-size="10.00" fill="grey"> m_parameterName</text>
<text text-anchor="middle" x="870.88" y="-288.5" font-family="Helvetica,sans-Serif" font-size="10.00" fill="grey">m_tableCategoryName</text>
</g>
<!-- Node9 -->
<g id="Node000009" class="node">
<title>Node9</title>
<g id="a_Node000009"><a xlink:href="../../dd/d0a/class_widget.html" target="_top" xlink:title=" ">
<polygon fill="white" stroke="#666666" points="46.75,-372 0,-372 0,-352 46.75,-352 46.75,-372"/>
<text text-anchor="middle" x="23.38" y="-358.5" font-family="Helvetica,sans-Serif" font-size="10.00">Widget</text>
</a>
</g>
</g>
<!-- Node9&#45;&gt;Node4 -->
<g id="edge10_Node000004_Node000009" class="edge">
<title>Node9&#45;&gt;Node4</title>
<g id="a_edge10_Node000004_Node000009"><a xlink:title=" ">
<path fill="none" stroke="#9a32cd" stroke-dasharray="5,2" d="M31.09,-341.15C41.31,-317.8 61.75,-279.94 92.62,-262 167.79,-218.34 209.24,-282.08 287.38,-244 299.09,-238.29 308.78,-226.54 314.56,-218.24"/>
<polygon fill="#9a32cd" stroke="#9a32cd" points="27.94,-339.6 27.36,-350.18 34.41,-342.28 27.94,-339.6"/>
</a>
</g>
<text text-anchor="middle" x="111.75" y="-294.5" font-family="Helvetica,sans-Serif" font-size="10.00" fill="grey"> m_Root</text>
</g>
<!-- Node9&#45;&gt;Node10 -->
<g id="edge17_Node000010_Node000009" class="edge">
<title>Node9&#45;&gt;Node10</title>
<g id="a_edge17_Node000010_Node000009"><a xlink:title=" ">
<path fill="none" stroke="#9a32cd" stroke-dasharray="5,2" d="M19.61,-340.66C13.95,-303.86 7.14,-225.11 40.62,-172 90.06,-93.59 145.02,-115.74 236.38,-100 239.08,-99.53 241.87,-99.05 244.68,-98.57"/>
<polygon fill="#9a32cd" stroke="#9a32cd" points="16.13,-341.05 21.25,-350.33 23.03,-339.88 16.13,-341.05"/>
</a>
</g>
<text text-anchor="middle" x="59.75" y="-204.5" font-family="Helvetica,sans-Serif" font-size="10.00" fill="grey"> m_Root</text>
</g>
<!-- Node10&#45;&gt;Node4 -->
<g id="edge11_Node000004_Node000010" class="edge">
<title>Node10&#45;&gt;Node4</title>
<g id="a_edge11_Node000004_Node000010"><a xlink:title=" ">
<path fill="none" stroke="#9a32cd" stroke-dasharray="5,2" d="M296.13,-111.19C296.93,-113.47 297.69,-115.78 298.38,-118 307.18,-146.6 314.92,-181.19 318.41,-197.55"/>
<polygon fill="#9a32cd" stroke="#9a32cd" points="299.42,-110 292.68,-101.83 292.86,-112.42 299.42,-110"/>
</a>
</g>
<text text-anchor="middle" x="339.88" y="-132.5" font-family="Helvetica,sans-Serif" font-size="10.00" fill="grey"> m_Subgroups</text>
</g>
<!-- Node10&#45;&gt;Node10 -->
<g id="edge18_Node000010_Node000010" class="edge">
<title>Node10&#45;&gt;Node10</title>
<g id="a_edge18_Node000010_Node000010"><a xlink:title=" ">
<path fill="none" stroke="#9a32cd" stroke-dasharray="5,2" d="M343,-95.6C347.11,-94.35 349.62,-92.48 349.62,-90 349.62,-85.7 342.09,-83.25 331.87,-82.65"/>
<polygon fill="#9a32cd" stroke="#9a32cd" points="342.7,-92.11 333.36,-97.12 343.78,-99.02 342.7,-92.11"/>
</a>
</g>
<text text-anchor="middle" x="381.12" y="-86.5" font-family="Helvetica,sans-Serif" font-size="10.00" fill="grey"> m_Subgroups</text>
</g>
<!-- Node11 -->
<g id="Node000011" class="node">
<title>Node11</title>
<g id="a_Node000011"><a xlink:href="../../d4/d03/classfloat.html" target="_top" xlink:title=" ">
<polygon fill="white" stroke="#666666" points="631.38,-218 597.38,-218 597.38,-198 631.38,-198 631.38,-218"/>
<text text-anchor="middle" x="614.38" y="-204.5" font-family="Helvetica,sans-Serif" font-size="10.00">float</text>
</a>
</g>
</g>
<!-- Node11&#45;&gt;Node3 -->
<g id="edge19_Node000003_Node000011" class="edge">
<title>Node11&#45;&gt;Node3</title>
<g id="a_edge19_Node000003_Node000011"><a xlink:title=" ">
<path fill="none" stroke="#9a32cd" stroke-dasharray="5,2" d="M599.36,-188.61C585.81,-169.64 570.1,-139.82 584.88,-118 594.22,-104.2 611.87,-97.46 626.78,-94.16"/>
<polygon fill="#9a32cd" stroke="#9a32cd" points="596.5,-190.64 605.35,-196.48 602.07,-186.4 596.5,-190.64"/>
</a>
</g>
<text text-anchor="middle" x="643.12" y="-138.5" font-family="Helvetica,sans-Serif" font-size="10.00" fill="grey"> SOUND_CONTACT_SKIP</text>
<text text-anchor="middle" x="643.12" y="-126.5" font-family="Helvetica,sans-Serif" font-size="10.00" fill="grey">m_SoundContactTickTime</text>
</g>
<!-- Node11&#45;&gt;Node11 -->
<g id="edge20_Node000011_Node000011" class="edge">
<title>Node11&#45;&gt;Node11</title>
<g id="a_edge20_Node000011_Node000011"><a xlink:title=" ">
<path fill="none" stroke="#9a32cd" stroke-dasharray="5,2" d="M636.05,-221.5C643.44,-221.58 649.38,-217.08 649.38,-208 649.38,-194.64 636.52,-191.2 625.13,-197.67"/>
<polygon fill="#9a32cd" stroke="#9a32cd" points="637.16,-218.17 626.58,-218.75 635.21,-224.9 637.16,-218.17"/>
</a>
</g>
<text text-anchor="middle" x="671.5" y="-216.5" font-family="Helvetica,sans-Serif" font-size="10.00" fill="grey"> LOWEST</text>
<text text-anchor="middle" x="671.5" y="-204.5" font-family="Helvetica,sans-Serif" font-size="10.00" fill="grey">MAX</text>
<text text-anchor="middle" x="671.5" y="-192.5" font-family="Helvetica,sans-Serif" font-size="10.00" fill="grey">MIN</text>
</g>
<!-- Node12&#45;&gt;Node3 -->
<g id="edge21_Node000003_Node000012" class="edge">
<title>Node12&#45;&gt;Node3</title>
<g id="a_edge21_Node000003_Node000012"><a xlink:title=" ">
<path fill="none" stroke="#9a32cd" stroke-dasharray="5,2" d="M969.6,-186.99C976.4,-166.84 982.45,-136.21 965.38,-118 944.21,-95.42 717.94,-104.88 687.38,-100 684.28,-99.51 681.05,-98.86 677.87,-98.14"/>
<polygon fill="#9a32cd" stroke="#9a32cd" points="966.34,-185.71 966.11,-196.3 972.9,-188.17 966.34,-185.71"/>
</a>
</g>
<text text-anchor="middle" x="1024.75" y="-132.5" font-family="Helvetica,sans-Serif" font-size="10.00" fill="grey"> m_SoundImpactTable</text>
</g>
<!-- Node13 -->
<g id="Node000013" class="node">
<title>Node13</title>
<g id="a_Node000013"><a xlink:href="../../d9/d09/classbool.html" target="_top" xlink:title=" ">
<polygon fill="white" stroke="#666666" points="745.38,-218 711.38,-218 711.38,-198 745.38,-198 745.38,-218"/>
<text text-anchor="middle" x="728.38" y="-204.5" font-family="Helvetica,sans-Serif" font-size="10.00">bool</text>
</a>
</g>
</g>
<!-- Node13&#45;&gt;Node3 -->
<g id="edge23_Node000003_Node000013" class="edge">
<title>Node13&#45;&gt;Node3</title>
<g id="a_edge23_Node000003_Node000013"><a xlink:title=" ">
<path fill="none" stroke="#9a32cd" stroke-dasharray="5,2" d="M726.27,-186.41C723.34,-166.93 716.45,-137.81 700.38,-118 694.23,-110.43 685.36,-104.6 676.92,-100.33"/>
<polygon fill="#9a32cd" stroke="#9a32cd" points="722.77,-186.63 727.49,-196.12 729.71,-185.76 722.77,-186.63"/>
</a>
</g>
<text text-anchor="middle" x="760.75" y="-138.5" font-family="Helvetica,sans-Serif" font-size="10.00" fill="grey"> m_ActionsInitialize</text>
<text text-anchor="middle" x="760.75" y="-126.5" font-family="Helvetica,sans-Serif" font-size="10.00" fill="grey">m_IsMeleeWeapon</text>
</g>
<!-- Node14 -->
<g id="Node000014" class="node">
<title>Node14</title>
<g id="a_Node000014"><a xlink:href="../../d4/d0d/class_script_invoker.html" target="_top" xlink:title="ScriptInvoker Class provide list of callbacks &#160;&#160;usage:">
<polygon fill="white" stroke="#666666" points="866.12,-218 794.62,-218 794.62,-198 866.12,-198 866.12,-218"/>
<text text-anchor="middle" x="830.38" y="-204.5" font-family="Helvetica,sans-Serif" font-size="10.00">ScriptInvoker</text>
</a>
</g>
</g>
<!-- Node14&#45;&gt;Node3 -->
<g id="edge24_Node000003_Node000014" class="edge">
<title>Node14&#45;&gt;Node3</title>
<g id="a_edge24_Node000003_Node000014"><a xlink:title=" ">
<path fill="none" stroke="#9a32cd" stroke-dasharray="5,2" d="M831.1,-186.01C830.58,-165.55 826.33,-135.08 807.38,-118 787.34,-99.95 713.8,-105.36 687.38,-100 684.3,-99.38 681.09,-98.65 677.92,-97.89"/>
<polygon fill="#9a32cd" stroke="#9a32cd" points="827.6,-185.98 831.04,-196 834.6,-186.02 827.6,-185.98"/>
</a>
</g>
<text text-anchor="middle" x="893.88" y="-138.5" font-family="Helvetica,sans-Serif" font-size="10.00" fill="grey"> m_OnItemAddedToHands</text>
<text text-anchor="middle" x="893.88" y="-126.5" font-family="Helvetica,sans-Serif" font-size="10.00" fill="grey">m_OnItemRemovedFromHands</text>
</g>
<!-- Node15 -->
<g id="Node000015" class="node">
<title>Node15</title>
<g id="a_Node000015"><a xlink:href="../../d6/d05/class_inventory_location.html" target="_top" xlink:title="InventoryLocation.">
<polygon fill="white" stroke="#666666" points="786.88,-100 695.88,-100 695.88,-80 786.88,-80 786.88,-100"/>
<text text-anchor="middle" x="741.38" y="-86.5" font-family="Helvetica,sans-Serif" font-size="10.00">InventoryLocation</text>
</a>
</g>
</g>
<!-- Node15&#45;&gt;Node1 -->
<g id="edge25_Node000001_Node000015" class="edge">
<title>Node15&#45;&gt;Node1</title>
<g id="a_edge25_Node000001_Node000015"><a xlink:title=" ">
<path fill="none" stroke="#9a32cd" stroke-dasharray="5,2" d="M727.83,-70.56C719.71,-60.25 708.76,-47.59 697.38,-38 689.29,-31.19 679.29,-25.01 670.78,-20.29"/>
<polygon fill="#9a32cd" stroke="#9a32cd" points="724.92,-72.51 733.76,-78.35 730.49,-68.27 724.92,-72.51"/>
</a>
</g>
<text text-anchor="middle" x="738" y="-52.5" font-family="Helvetica,sans-Serif" font-size="10.00" fill="grey"> m_dst1</text>
<text text-anchor="middle" x="738" y="-40.5" font-family="Helvetica,sans-Serif" font-size="10.00" fill="grey">m_dst2</text>
</g>
</g>
</svg>

<g id="navigator" transform="translate(0 0)" fill="#404254">
  <rect fill="#f2f5e9" fill-opacity="0.5" stroke="#606060" stroke-width=".5" x="0" y="0" width="60" height="60"/>
  <use id="zoomplus" xlink:href="#zoomPlus" x="17" y="9" onmousedown="handleZoom(evt,'in')"/>
  <use id="zoomminus" xlink:href="#zoomMin" x="42" y="9" onmousedown="handleZoom(evt,'out')"/>
  <use id="reset" xlink:href="#resetDef" x="30" y="36" onmousedown="handleReset()"/>
   <use id="arrowup" xlink:href="#arrowUp" x="0" y="0" onmousedown="handlePan(0,-1)"/>
  <use id="arrowright" xlink:href="#arrowRight" x="0" y="0" onmousedown="handlePan(1,0)"/>
  <use id="arrowdown" xlink:href="#arrowDown" x="0" y="0" onmousedown="handlePan(0,1)"/>
  <use id="arrowleft" xlink:href="#arrowLeft" x="0" y="0" onmousedown="handlePan(-1,0)"/>
</g>
<svg viewBox="0 0 15 15" width="100%" height="30px" preserveAspectRatio="xMaxYMin meet">
 <g id="arrow_out" transform="scale(0.3 0.3)">
  <a xlink:href="class_deferred_swap_entities__coll__graph_org.svg" target="_base">
   <rect id="button" ry="5" rx="5" y="6" x="6" height="38" width="38"
        fill="#f2f5e9" fill-opacity="0.5" stroke="#606060" stroke-width="1.0"/>
   <path id="arrow"
     d="M 11.500037,31.436501 C 11.940474,20.09759 22.043105,11.32322 32.158766,21.979434 L 37.068811,17.246167 C 37.068811,17.246167 37.088388,32 37.088388,32 L 22.160133,31.978069 C 22.160133,31.978069 26.997745,27.140456 26.997745,27.140456 C 18.528582,18.264221 13.291696,25.230495 11.500037,31.436501 z"
     style="fill:#404040;"/>
  </a>
 </g>
</svg>

<style type='text/css'>
<![CDATA[
[data-mouse-over-selected='false'] { opacity: 0.7; }
[data-mouse-over-selected='true']  { opacity: 1.0; }
]]>
</style>
<script type="application/ecmascript"><![CDATA[
document.addEventListener('DOMContentLoaded', (event) => {
  highlightEdges();
  highlightAdjacentNodes();
});
]]></script>
</svg>
