<?xml version="1.0" encoding="UTF-8" standalone="no"?>
<!DOCTYPE svg PUBLIC "-//W3C//DTD SVG 1.1//EN"
 "http://www.w3.org/Graphics/SVG/1.1/DTD/svg11.dtd">
<!-- Generated by graphviz version 11.0.0 (20240428.1522)
 -->
<!-- Title: EffBulletImpactBase Pages: 1 -->
<svg width="639pt" height="674pt"
 viewBox="0.00 0.00 638.50 674.00" xmlns="http://www.w3.org/2000/svg" xmlns:xlink="http://www.w3.org/1999/xlink">
<g id="graph0" class="graph" transform="scale(1 1) rotate(0) translate(4 670)">
<title>EffBulletImpactBase</title>
<!-- Node1 -->
<g id="Node000001" class="node">
<title>Node1</title>
<g id="a_Node000001"><a xlink:title=" ">
<polygon fill="#999999" stroke="#666666" points="290.25,-343 186.5,-343 186.5,-323 290.25,-323 290.25,-343"/>
<text text-anchor="middle" x="238.38" y="-329.5" font-family="Helvetica,sans-Serif" font-size="10.00">EffBulletImpactBase</text>
</a>
</g>
</g>
<!-- Node4 -->
<g id="Node000004" class="node">
<title>Node4</title>
<g id="a_Node000004"><a xlink:href="../../d5/d02/class_hit___concrete.html" target="_top" xlink:title=" ">
<polygon fill="white" stroke="#666666" points="412.75,-666 340.5,-666 340.5,-646 412.75,-646 412.75,-666"/>
<text text-anchor="middle" x="376.62" y="-652.5" font-family="Helvetica,sans-Serif" font-size="10.00">Hit_Concrete</text>
</a>
</g>
</g>
<!-- Node1&#45;&gt;Node4 -->
<g id="edge3_Node000001_Node000004" class="edge">
<title>Node1&#45;&gt;Node4</title>
<g id="a_edge3_Node000001_Node000004"><a xlink:title=" ">
<path fill="none" stroke="#8b1a1a" d="M239.31,-354.82C240.32,-409.55 250.45,-554.13 326.25,-637 330.09,-641.2 334.97,-644.48 340.16,-647.04"/>
<polygon fill="#8b1a1a" stroke="#8b1a1a" points="242.81,-354.96 239.22,-344.99 235.81,-355.02 242.81,-354.96"/>
</a>
</g>
</g>
<!-- Node5 -->
<g id="Node000005" class="node">
<title>Node5</title>
<g id="a_Node000005"><a xlink:href="../../df/d01/class_hit___dirt.html" target="_top" xlink:title=" ">
<polygon fill="white" stroke="#666666" points="400.75,-628 352.5,-628 352.5,-608 400.75,-608 400.75,-628"/>
<text text-anchor="middle" x="376.62" y="-614.5" font-family="Helvetica,sans-Serif" font-size="10.00">Hit_Dirt</text>
</a>
</g>
</g>
<!-- Node1&#45;&gt;Node5 -->
<g id="edge4_Node000001_Node000005" class="edge">
<title>Node1&#45;&gt;Node5</title>
<g id="a_edge4_Node000001_Node000005"><a xlink:title=" ">
<path fill="none" stroke="#8b1a1a" d="M240.37,-354.75C243.8,-404.59 259.01,-528.19 326.25,-599 333.08,-606.19 342.94,-610.7 352.05,-613.5"/>
<polygon fill="#8b1a1a" stroke="#8b1a1a" points="243.88,-354.79 239.8,-345.01 236.89,-355.19 243.88,-354.79"/>
</a>
</g>
</g>
<!-- Node6 -->
<g id="Node000006" class="node">
<title>Node6</title>
<g id="a_Node000006"><a xlink:href="../../d4/d08/class_hit___error_no_material.html" target="_top" xlink:title=" ">
<polygon fill="white" stroke="#666666" points="427,-590 326.25,-590 326.25,-570 427,-570 427,-590"/>
<text text-anchor="middle" x="376.62" y="-576.5" font-family="Helvetica,sans-Serif" font-size="10.00">Hit_ErrorNoMaterial</text>
</a>
</g>
</g>
<!-- Node1&#45;&gt;Node6 -->
<g id="edge5_Node000001_Node000006" class="edge">
<title>Node1&#45;&gt;Node6</title>
<g id="a_edge5_Node000001_Node000006"><a xlink:title=" ">
<path fill="none" stroke="#8b1a1a" d="M241.74,-354.63C247.74,-399.2 267.47,-502.03 326.25,-561 329.75,-564.51 333.97,-567.39 338.45,-569.74"/>
<polygon fill="#8b1a1a" stroke="#8b1a1a" points="245.25,-354.46 240.56,-344.96 238.3,-355.31 245.25,-354.46"/>
</a>
</g>
</g>
<!-- Node7 -->
<g id="Node000007" class="node">
<title>Node7</title>
<g id="a_Node000007"><a xlink:href="../../d0/d0d/class_hit___foliage.html" target="_top" xlink:title=" ">
<polygon fill="white" stroke="#666666" points="409,-552 344.25,-552 344.25,-532 409,-532 409,-552"/>
<text text-anchor="middle" x="376.62" y="-538.5" font-family="Helvetica,sans-Serif" font-size="10.00">Hit_Foliage</text>
</a>
</g>
</g>
<!-- Node1&#45;&gt;Node7 -->
<g id="edge6_Node000001_Node000007" class="edge">
<title>Node1&#45;&gt;Node7</title>
<g id="a_edge6_Node000001_Node000007"><a xlink:title=" ">
<path fill="none" stroke="#8b1a1a" d="M243.59,-354.42C252.29,-393.24 275.81,-475.57 326.25,-523 331.27,-527.72 337.58,-531.3 344.01,-534.01"/>
<polygon fill="#8b1a1a" stroke="#8b1a1a" points="247.03,-353.78 241.54,-344.72 240.18,-355.23 247.03,-353.78"/>
</a>
</g>
</g>
<!-- Node8 -->
<g id="Node000008" class="node">
<title>Node8</title>
<g id="a_Node000008"><a xlink:href="../../d8/d0b/class_hit___glass.html" target="_top" xlink:title=" ">
<polygon fill="white" stroke="#666666" points="406,-514 347.25,-514 347.25,-494 406,-494 406,-514"/>
<text text-anchor="middle" x="376.62" y="-500.5" font-family="Helvetica,sans-Serif" font-size="10.00">Hit_Glass</text>
</a>
</g>
</g>
<!-- Node1&#45;&gt;Node8 -->
<g id="edge7_Node000001_Node000008" class="edge">
<title>Node1&#45;&gt;Node8</title>
<g id="a_edge7_Node000001_Node000008"><a xlink:title=" ">
<path fill="none" stroke="#8b1a1a" d="M246.16,-353.94C257.65,-386.34 283.94,-448.67 326.25,-485 332.17,-490.09 339.61,-493.89 346.89,-496.7"/>
<polygon fill="#8b1a1a" stroke="#8b1a1a" points="249.61,-353.23 243.07,-344.89 242.98,-355.49 249.61,-353.23"/>
</a>
</g>
</g>
<!-- Node9 -->
<g id="Node000009" class="node">
<title>Node9</title>
<g id="a_Node000009"><a xlink:href="../../d2/d09/class_hit___glass___thin.html" target="_top" xlink:title=" ">
<polygon fill="white" stroke="#666666" points="417.62,-476 335.62,-476 335.62,-456 417.62,-456 417.62,-476"/>
<text text-anchor="middle" x="376.62" y="-462.5" font-family="Helvetica,sans-Serif" font-size="10.00">Hit_Glass_Thin</text>
</a>
</g>
</g>
<!-- Node1&#45;&gt;Node9 -->
<g id="edge8_Node000001_Node000009" class="edge">
<title>Node1&#45;&gt;Node9</title>
<g id="a_edge8_Node000001_Node000009"><a xlink:title=" ">
<path fill="none" stroke="#8b1a1a" d="M250.12,-353.26C264.41,-378.45 291.91,-421.25 326.25,-447 330.73,-450.36 335.88,-453.2 341.13,-455.57"/>
<polygon fill="#8b1a1a" stroke="#8b1a1a" points="253.28,-351.75 245.39,-344.68 247.15,-355.13 253.28,-351.75"/>
</a>
</g>
</g>
<!-- Node10 -->
<g id="Node000010" class="node">
<title>Node10</title>
<g id="a_Node000010"><a xlink:href="../../db/d05/class_hit___grass.html" target="_top" xlink:title=" ">
<polygon fill="white" stroke="#666666" points="406.38,-438 346.88,-438 346.88,-418 406.38,-418 406.38,-438"/>
<text text-anchor="middle" x="376.62" y="-424.5" font-family="Helvetica,sans-Serif" font-size="10.00">Hit_Grass</text>
</a>
</g>
</g>
<!-- Node1&#45;&gt;Node10 -->
<g id="edge9_Node000001_Node000010" class="edge">
<title>Node1&#45;&gt;Node10</title>
<g id="a_edge9_Node000001_Node000010"><a xlink:title=" ">
<path fill="none" stroke="#8b1a1a" d="M256.59,-351.39C273.14,-368.21 299.51,-392.86 326.25,-409 332.54,-412.8 339.72,-416.08 346.62,-418.79"/>
<polygon fill="#8b1a1a" stroke="#8b1a1a" points="259.39,-349.25 249.93,-344.48 254.35,-354.11 259.39,-349.25"/>
</a>
</g>
</g>
<!-- Node11 -->
<g id="Node000011" class="node">
<title>Node11</title>
<g id="a_Node000011"><a xlink:href="../../d8/d0f/class_hit___gravel.html" target="_top" xlink:title=" ">
<polygon fill="white" stroke="#666666" points="406.75,-400 346.5,-400 346.5,-380 406.75,-380 406.75,-400"/>
<text text-anchor="middle" x="376.62" y="-386.5" font-family="Helvetica,sans-Serif" font-size="10.00">Hit_Gravel</text>
</a>
</g>
</g>
<!-- Node1&#45;&gt;Node11 -->
<g id="edge10_Node000001_Node000011" class="edge">
<title>Node1&#45;&gt;Node11</title>
<g id="a_edge10_Node000001_Node000011"><a xlink:title=" ">
<path fill="none" stroke="#8b1a1a" d="M272.98,-348.12C289.03,-355.23 308.56,-363.73 326.25,-371 333.22,-373.86 340.79,-376.84 347.86,-379.57"/>
<polygon fill="#8b1a1a" stroke="#8b1a1a" points="274.43,-344.93 263.87,-344.06 271.58,-351.33 274.43,-344.93"/>
</a>
</g>
</g>
<!-- Node12 -->
<g id="Node000012" class="node">
<title>Node12</title>
<g id="a_Node000012"><a xlink:href="../../d4/d09/class_hit___meat_bones.html" target="_top" xlink:title=" ">
<polygon fill="white" stroke="#666666" points="418,-362 335.25,-362 335.25,-342 418,-342 418,-362"/>
<text text-anchor="middle" x="376.62" y="-348.5" font-family="Helvetica,sans-Serif" font-size="10.00">Hit_MeatBones</text>
</a>
</g>
</g>
<!-- Node1&#45;&gt;Node12 -->
<g id="edge11_Node000001_Node000012" class="edge">
<title>Node1&#45;&gt;Node12</title>
<g id="a_edge11_Node000001_Node000012"><a xlink:title=" ">
<path fill="none" stroke="#8b1a1a" d="M301.65,-341.68C312.92,-343.26 324.4,-344.86 334.85,-346.31"/>
<polygon fill="#8b1a1a" stroke="#8b1a1a" points="302.38,-338.25 292,-340.34 301.42,-345.19 302.38,-338.25"/>
</a>
</g>
</g>
<!-- Node17 -->
<g id="Node000017" class="node">
<title>Node17</title>
<g id="a_Node000017"><a xlink:href="../../da/d0c/class_hit___metal.html" target="_top" xlink:title=" ">
<polygon fill="white" stroke="#666666" points="405.25,-324 348,-324 348,-304 405.25,-304 405.25,-324"/>
<text text-anchor="middle" x="376.62" y="-310.5" font-family="Helvetica,sans-Serif" font-size="10.00">Hit_Metal</text>
</a>
</g>
</g>
<!-- Node1&#45;&gt;Node17 -->
<g id="edge16_Node000001_Node000017" class="edge">
<title>Node1&#45;&gt;Node17</title>
<g id="a_edge16_Node000001_Node000017"><a xlink:title=" ">
<path fill="none" stroke="#8b1a1a" d="M301.53,-324.33C317.64,-322.09 334.19,-319.78 347.56,-317.91"/>
<polygon fill="#8b1a1a" stroke="#8b1a1a" points="301.42,-320.81 292,-325.66 302.38,-327.75 301.42,-320.81"/>
</a>
</g>
</g>
<!-- Node18 -->
<g id="Node000018" class="node">
<title>Node18</title>
<g id="a_Node000018"><a xlink:href="../../d0/d0c/class_hit___plaster.html" target="_top" xlink:title=" ">
<polygon fill="white" stroke="#666666" points="408.62,-286 344.62,-286 344.62,-266 408.62,-266 408.62,-286"/>
<text text-anchor="middle" x="376.62" y="-272.5" font-family="Helvetica,sans-Serif" font-size="10.00">Hit_Plaster</text>
</a>
</g>
</g>
<!-- Node1&#45;&gt;Node18 -->
<g id="edge17_Node000001_Node000018" class="edge">
<title>Node1&#45;&gt;Node18</title>
<g id="a_edge17_Node000001_Node000018"><a xlink:title=" ">
<path fill="none" stroke="#8b1a1a" d="M272.98,-317.88C289.03,-310.77 308.56,-302.27 326.25,-295 333.22,-292.14 340.79,-289.16 347.86,-286.43"/>
<polygon fill="#8b1a1a" stroke="#8b1a1a" points="271.58,-314.67 263.87,-321.94 274.43,-321.07 271.58,-314.67"/>
</a>
</g>
</g>
<!-- Node19 -->
<g id="Node000019" class="node">
<title>Node19</title>
<g id="a_Node000019"><a xlink:href="../../df/d0c/class_hit___plastic.html" target="_top" xlink:title=" ">
<polygon fill="white" stroke="#666666" points="408.25,-248 345,-248 345,-228 408.25,-228 408.25,-248"/>
<text text-anchor="middle" x="376.62" y="-234.5" font-family="Helvetica,sans-Serif" font-size="10.00">Hit_Plastic</text>
</a>
</g>
</g>
<!-- Node1&#45;&gt;Node19 -->
<g id="edge18_Node000001_Node000019" class="edge">
<title>Node1&#45;&gt;Node19</title>
<g id="a_edge18_Node000001_Node000019"><a xlink:title=" ">
<path fill="none" stroke="#8b1a1a" d="M256.59,-314.61C273.14,-297.79 299.51,-273.14 326.25,-257 331.91,-253.58 338.29,-250.58 344.54,-248.04"/>
<polygon fill="#8b1a1a" stroke="#8b1a1a" points="254.35,-311.89 249.93,-321.52 259.39,-316.75 254.35,-311.89"/>
</a>
</g>
</g>
<!-- Node20 -->
<g id="Node000020" class="node">
<title>Node20</title>
<g id="a_Node000020"><a xlink:href="../../d9/d0a/class_hit___rubber.html" target="_top" xlink:title=" ">
<polygon fill="white" stroke="#666666" points="408.62,-210 344.62,-210 344.62,-190 408.62,-190 408.62,-210"/>
<text text-anchor="middle" x="376.62" y="-196.5" font-family="Helvetica,sans-Serif" font-size="10.00">Hit_Rubber</text>
</a>
</g>
</g>
<!-- Node1&#45;&gt;Node20 -->
<g id="edge19_Node000001_Node000020" class="edge">
<title>Node1&#45;&gt;Node20</title>
<g id="a_edge19_Node000001_Node000020"><a xlink:title=" ">
<path fill="none" stroke="#8b1a1a" d="M250.12,-312.74C264.41,-287.55 291.91,-244.75 326.25,-219 331.61,-214.98 337.93,-211.7 344.23,-209.08"/>
<polygon fill="#8b1a1a" stroke="#8b1a1a" points="247.15,-310.87 245.39,-321.32 253.28,-314.25 247.15,-310.87"/>
</a>
</g>
</g>
<!-- Node21 -->
<g id="Node000021" class="node">
<title>Node21</title>
<g id="a_Node000021"><a xlink:href="../../d4/d01/class_hit___sand.html" target="_top" xlink:title=" ">
<polygon fill="white" stroke="#666666" points="404.5,-172 348.75,-172 348.75,-152 404.5,-152 404.5,-172"/>
<text text-anchor="middle" x="376.62" y="-158.5" font-family="Helvetica,sans-Serif" font-size="10.00">Hit_Sand</text>
</a>
</g>
</g>
<!-- Node1&#45;&gt;Node21 -->
<g id="edge20_Node000001_Node000021" class="edge">
<title>Node1&#45;&gt;Node21</title>
<g id="a_edge20_Node000001_Node000021"><a xlink:title=" ">
<path fill="none" stroke="#8b1a1a" d="M246.16,-312.06C257.65,-279.66 283.94,-217.33 326.25,-181 332.59,-175.56 340.66,-171.58 348.43,-168.72"/>
<polygon fill="#8b1a1a" stroke="#8b1a1a" points="242.98,-310.51 243.07,-321.11 249.61,-312.77 242.98,-310.51"/>
</a>
</g>
</g>
<!-- Node22 -->
<g id="Node000022" class="node">
<title>Node22</title>
<g id="a_Node000022"><a xlink:href="../../d3/d0e/class_hit___textile.html" target="_top" xlink:title=" ">
<polygon fill="white" stroke="#666666" points="407.5,-134 345.75,-134 345.75,-114 407.5,-114 407.5,-134"/>
<text text-anchor="middle" x="376.62" y="-120.5" font-family="Helvetica,sans-Serif" font-size="10.00">Hit_Textile</text>
</a>
</g>
</g>
<!-- Node1&#45;&gt;Node22 -->
<g id="edge21_Node000001_Node000022" class="edge">
<title>Node1&#45;&gt;Node22</title>
<g id="a_edge21_Node000001_Node000022"><a xlink:title=" ">
<path fill="none" stroke="#8b1a1a" d="M243.59,-311.58C252.29,-272.76 275.81,-190.43 326.25,-143 331.6,-137.97 338.43,-134.22 345.29,-131.46"/>
<polygon fill="#8b1a1a" stroke="#8b1a1a" points="240.18,-310.77 241.54,-321.28 247.03,-312.22 240.18,-310.77"/>
</a>
</g>
</g>
<!-- Node23 -->
<g id="Node000023" class="node">
<title>Node23</title>
<g id="a_Node000023"><a xlink:href="../../d7/d03/class_hit___undefined.html" target="_top" xlink:title=" ">
<polygon fill="white" stroke="#666666" points="414.62,-96 338.62,-96 338.62,-76 414.62,-76 414.62,-96"/>
<text text-anchor="middle" x="376.62" y="-82.5" font-family="Helvetica,sans-Serif" font-size="10.00">Hit_Undefined</text>
</a>
</g>
</g>
<!-- Node1&#45;&gt;Node23 -->
<g id="edge22_Node000001_Node000023" class="edge">
<title>Node1&#45;&gt;Node23</title>
<g id="a_edge22_Node000001_Node000023"><a xlink:title=" ">
<path fill="none" stroke="#8b1a1a" d="M241.74,-311.37C247.74,-266.8 267.47,-163.97 326.25,-105 329.75,-101.49 333.97,-98.61 338.45,-96.26"/>
<polygon fill="#8b1a1a" stroke="#8b1a1a" points="238.3,-310.69 240.56,-321.04 245.25,-311.54 238.3,-310.69"/>
</a>
</g>
</g>
<!-- Node24 -->
<g id="Node000024" class="node">
<title>Node24</title>
<g id="a_Node000024"><a xlink:href="../../dd/d03/class_hit___water.html" target="_top" xlink:title=" ">
<polygon fill="white" stroke="#666666" points="406.38,-58 346.88,-58 346.88,-38 406.38,-38 406.38,-58"/>
<text text-anchor="middle" x="376.62" y="-44.5" font-family="Helvetica,sans-Serif" font-size="10.00">Hit_Water</text>
</a>
</g>
</g>
<!-- Node1&#45;&gt;Node24 -->
<g id="edge23_Node000001_Node000024" class="edge">
<title>Node1&#45;&gt;Node24</title>
<g id="a_edge23_Node000001_Node000024"><a xlink:title=" ">
<path fill="none" stroke="#8b1a1a" d="M240.37,-311.25C243.8,-261.41 259.01,-137.81 326.25,-67 331.69,-61.27 339.05,-57.25 346.42,-54.43"/>
<polygon fill="#8b1a1a" stroke="#8b1a1a" points="236.89,-310.81 239.8,-320.99 243.88,-311.21 236.89,-310.81"/>
</a>
</g>
</g>
<!-- Node25 -->
<g id="Node000025" class="node">
<title>Node25</title>
<g id="a_Node000025"><a xlink:href="../../db/d0b/class_hit___wood.html" target="_top" xlink:title=" ">
<polygon fill="white" stroke="#666666" points="406,-20 347.25,-20 347.25,0 406,0 406,-20"/>
<text text-anchor="middle" x="376.62" y="-6.5" font-family="Helvetica,sans-Serif" font-size="10.00">Hit_Wood</text>
</a>
</g>
</g>
<!-- Node1&#45;&gt;Node25 -->
<g id="edge24_Node000001_Node000025" class="edge">
<title>Node1&#45;&gt;Node25</title>
<g id="a_edge24_Node000001_Node000025"><a xlink:title=" ">
<path fill="none" stroke="#8b1a1a" d="M239.31,-311.18C240.32,-256.45 250.45,-111.87 326.25,-29 331.71,-23.04 339.24,-18.93 346.79,-16.1"/>
<polygon fill="#8b1a1a" stroke="#8b1a1a" points="235.81,-310.98 239.22,-321.01 242.81,-311.04 235.81,-310.98"/>
</a>
</g>
</g>
<!-- Node2 -->
<g id="Node000002" class="node">
<title>Node2</title>
<g id="a_Node000002"><a xlink:href="../../de/d07/class_effect_particle.html" target="_top" xlink:title="Wrapper class for managing particles through SEffectManager.">
<polygon fill="white" stroke="#666666" points="150.5,-343 76.75,-343 76.75,-323 150.5,-323 150.5,-343"/>
<text text-anchor="middle" x="113.62" y="-329.5" font-family="Helvetica,sans-Serif" font-size="10.00">EffectParticle</text>
</a>
</g>
</g>
<!-- Node2&#45;&gt;Node1 -->
<g id="edge1_Node000001_Node000002" class="edge">
<title>Node2&#45;&gt;Node1</title>
<g id="a_edge1_Node000001_Node000002"><a xlink:title=" ">
<path fill="none" stroke="#8b1a1a" d="M162.28,-333C170.06,-333 178.15,-333 186.01,-333"/>
<polygon fill="#8b1a1a" stroke="#8b1a1a" points="162.3,-329.5 152.3,-333 162.3,-336.5 162.3,-329.5"/>
</a>
</g>
</g>
<!-- Node3 -->
<g id="Node000003" class="node">
<title>Node3</title>
<g id="a_Node000003"><a xlink:title=" ">
<polygon fill="white" stroke="#666666" points="40.75,-343 0,-343 0,-323 40.75,-323 40.75,-343"/>
<text text-anchor="middle" x="20.38" y="-329.5" font-family="Helvetica,sans-Serif" font-size="10.00">Effect</text>
</a>
</g>
</g>
<!-- Node3&#45;&gt;Node2 -->
<g id="edge2_Node000002_Node000003" class="edge">
<title>Node3&#45;&gt;Node2</title>
<g id="a_edge2_Node000002_Node000003"><a xlink:title=" ">
<path fill="none" stroke="#8b1a1a" d="M52.55,-333C60.2,-333 68.45,-333 76.31,-333"/>
<polygon fill="#8b1a1a" stroke="#8b1a1a" points="52.69,-329.5 42.69,-333 52.69,-336.5 52.69,-329.5"/>
</a>
</g>
</g>
<!-- Node13 -->
<g id="Node000013" class="node">
<title>Node13</title>
<g id="a_Node000013"><a xlink:href="../../de/d0e/class_hit___meat_bones___melee_fist.html" target="_top" xlink:title=" ">
<polygon fill="white" stroke="#666666" points="612.12,-419 481.38,-419 481.38,-399 612.12,-399 612.12,-419"/>
<text text-anchor="middle" x="546.75" y="-405.5" font-family="Helvetica,sans-Serif" font-size="10.00">Hit_MeatBones_MeleeFist</text>
</a>
</g>
</g>
<!-- Node12&#45;&gt;Node13 -->
<g id="edge12_Node000012_Node000013" class="edge">
<title>Node12&#45;&gt;Node13</title>
<g id="a_edge12_Node000012_Node000013"><a xlink:title=" ">
<path fill="none" stroke="#8b1a1a" d="M417.2,-366.75C420.54,-368.14 423.84,-369.56 427,-371 443.47,-378.48 446.04,-383.7 463,-390 471.84,-393.28 481.44,-396.11 490.85,-398.51"/>
<polygon fill="#8b1a1a" stroke="#8b1a1a" points="418.57,-363.53 407.99,-363.05 415.96,-370.02 418.57,-363.53"/>
</a>
</g>
</g>
<!-- Node14 -->
<g id="Node000014" class="node">
<title>Node14</title>
<g id="a_Node000014"><a xlink:href="../../df/d0c/class_hit___meat_bones___melee_pipe_wrench.html" target="_top" xlink:title=" ">
<polygon fill="white" stroke="#666666" points="630.5,-381 463,-381 463,-361 630.5,-361 630.5,-381"/>
<text text-anchor="middle" x="546.75" y="-367.5" font-family="Helvetica,sans-Serif" font-size="10.00">Hit_MeatBones_MeleePipeWrench</text>
</a>
</g>
</g>
<!-- Node12&#45;&gt;Node14 -->
<g id="edge13_Node000012_Node000014" class="edge">
<title>Node12&#45;&gt;Node14</title>
<g id="a_edge13_Node000012_Node000014"><a xlink:title=" ">
<path fill="none" stroke="#8b1a1a" d="M429.74,-357.89C440.17,-359.07 451.38,-360.34 462.57,-361.6"/>
<polygon fill="#8b1a1a" stroke="#8b1a1a" points="430.16,-354.41 419.83,-356.77 429.37,-361.37 430.16,-354.41"/>
</a>
</g>
</g>
<!-- Node15 -->
<g id="Node000015" class="node">
<title>Node15</title>
<g id="a_Node000015"><a xlink:href="../../d2/d07/class_hit___meat_bones___melee_shovel.html" target="_top" xlink:title=" ">
<polygon fill="white" stroke="#666666" points="618.12,-343 475.38,-343 475.38,-323 618.12,-323 618.12,-343"/>
<text text-anchor="middle" x="546.75" y="-329.5" font-family="Helvetica,sans-Serif" font-size="10.00">Hit_MeatBones_MeleeShovel</text>
</a>
</g>
</g>
<!-- Node12&#45;&gt;Node15 -->
<g id="edge14_Node000012_Node000015" class="edge">
<title>Node12&#45;&gt;Node15</title>
<g id="a_edge14_Node000012_Node000015"><a xlink:title=" ">
<path fill="none" stroke="#8b1a1a" d="M429.48,-346.14C443.84,-344.52 459.67,-342.73 474.91,-341.01"/>
<polygon fill="#8b1a1a" stroke="#8b1a1a" points="429.37,-342.63 419.83,-347.23 430.16,-349.59 429.37,-342.63"/>
</a>
</g>
</g>
<!-- Node16 -->
<g id="Node000016" class="node">
<title>Node16</title>
<g id="a_Node000016"><a xlink:href="../../d9/d08/class_hit___meat_bones___melee_wrench.html" target="_top" xlink:title=" ">
<polygon fill="white" stroke="#666666" points="620.75,-305 472.75,-305 472.75,-285 620.75,-285 620.75,-305"/>
<text text-anchor="middle" x="546.75" y="-291.5" font-family="Helvetica,sans-Serif" font-size="10.00">Hit_MeatBones_MeleeWrench</text>
</a>
</g>
</g>
<!-- Node12&#45;&gt;Node16 -->
<g id="edge15_Node000012_Node000016" class="edge">
<title>Node12&#45;&gt;Node16</title>
<g id="a_edge15_Node000012_Node000016"><a xlink:title=" ">
<path fill="none" stroke="#8b1a1a" d="M417.2,-337.25C420.54,-335.86 423.84,-334.44 427,-333 443.47,-325.52 446.04,-320.3 463,-314 471.84,-310.72 481.44,-307.89 490.85,-305.49"/>
<polygon fill="#8b1a1a" stroke="#8b1a1a" points="415.96,-333.98 407.99,-340.95 418.57,-340.47 415.96,-333.98"/>
</a>
</g>
</g>
</g>
</svg>
