<?xml version="1.0" encoding="UTF-8" standalone="no"?>
<!DOCTYPE svg PUBLIC "-//W3C//DTD SVG 1.1//EN"
 "http://www.w3.org/Graphics/SVG/1.1/DTD/svg11.dtd">
<!-- Generated by graphviz version 11.0.0 (20240428.1522)
 -->
<!-- Title: ReplaceWithNewReciveCargoLambda Pages: 1 -->
<svg width="1080pt" height="382pt"
 viewBox="0.00 0.00 1080.12 381.91" xmlns="http://www.w3.org/2000/svg" xmlns:xlink="http://www.w3.org/1999/xlink">
<g id="graph0" class="graph" transform="scale(1 1) rotate(0) translate(4 377.91)">
<title>ReplaceWithNewReciveCargoLambda</title>
<!-- Node1 -->
<g id="Node000001" class="node">
<title>Node1</title>
<g id="a_Node000001"><a xlink:title=" ">
<polygon fill="#999999" stroke="#666666" points="248.5,-32 104.25,-32 104.25,0 248.5,0 248.5,-32"/>
<text text-anchor="start" x="112.25" y="-18.5" font-family="Helvetica,sans-Serif" font-size="10.00">ReplaceWithNewReciveCargo</text>
<text text-anchor="middle" x="176.38" y="-6.5" font-family="Helvetica,sans-Serif" font-size="10.00">Lambda</text>
</a>
</g>
</g>
<!-- Node2 -->
<g id="Node000002" class="node">
<title>Node2</title>
<g id="a_Node000002"><a xlink:href="../../d1/d00/class_turn_item_into_item_lambda.html" target="_top" xlink:title=" ">
<polygon fill="white" stroke="#666666" points="226.62,-100 104.12,-100 104.12,-80 226.62,-80 226.62,-100"/>
<text text-anchor="middle" x="165.38" y="-86.5" font-family="Helvetica,sans-Serif" font-size="10.00">TurnItemIntoItemLambda</text>
</a>
</g>
</g>
<!-- Node2&#45;&gt;Node1 -->
<g id="edge1_Node000001_Node000002" class="edge">
<title>Node2&#45;&gt;Node1</title>
<g id="a_edge1_Node000001_Node000002"><a xlink:title=" ">
<path fill="none" stroke="#8b1a1a" d="M168.51,-68.46C170.26,-57.01 172.4,-42.99 174.01,-32.47"/>
<polygon fill="#8b1a1a" stroke="#8b1a1a" points="165.09,-67.68 167.04,-78.09 172.01,-68.73 165.09,-67.68"/>
</a>
</g>
</g>
<!-- Node3 -->
<g id="Node000003" class="node">
<title>Node3</title>
<g id="a_Node000003"><a xlink:href="../../df/d09/class_entity_a_i.html" target="_top" xlink:title=" ">
<polygon fill="white" stroke="#666666" points="677.62,-100 627.12,-100 627.12,-80 677.62,-80 677.62,-100"/>
<text text-anchor="middle" x="652.38" y="-86.5" font-family="Helvetica,sans-Serif" font-size="10.00">EntityAI</text>
</a>
</g>
</g>
<!-- Node3&#45;&gt;Node1 -->
<g id="edge2_Node000001_Node000003" class="edge">
<title>Node3&#45;&gt;Node1</title>
<g id="a_edge2_Node000001_Node000003"><a xlink:title=" ">
<path fill="none" stroke="#9a32cd" stroke-dasharray="5,2" d="M615.55,-83.43C536.95,-71.54 351.57,-43.5 248.56,-27.92"/>
<polygon fill="#9a32cd" stroke="#9a32cd" points="614.88,-86.87 625.29,-84.9 615.92,-79.95 614.88,-86.87"/>
</a>
</g>
<text text-anchor="middle" x="506" y="-52.5" font-family="Helvetica,sans-Serif" font-size="10.00" fill="grey"> m_ItemToCargo</text>
</g>
<!-- Node4 -->
<g id="Node000004" class="node">
<title>Node4</title>
<g id="a_Node000004"><a xlink:href="../../d2/d01/classarray.html" target="_top" xlink:title="Result for an object found in CGame.IsBoxCollidingGeometryProxy.">
<polygon fill="white" stroke="#666666" points="339.25,-218 301.5,-218 301.5,-198 339.25,-198 339.25,-218"/>
<text text-anchor="middle" x="320.38" y="-204.5" font-family="Helvetica,sans-Serif" font-size="10.00">array</text>
</a>
</g>
</g>
<!-- Node4&#45;&gt;Node3 -->
<g id="edge3_Node000003_Node000004" class="edge">
<title>Node4&#45;&gt;Node3</title>
<g id="a_edge3_Node000003_Node000004"><a xlink:title=" ">
<path fill="none" stroke="#9a32cd" stroke-dasharray="5,2" d="M342.11,-191.1C371.13,-170.72 424.83,-135.89 476.12,-118 527.71,-100.01 591.95,-93.99 626.87,-91.99"/>
<polygon fill="#9a32cd" stroke="#9a32cd" points="340.26,-188.12 334.16,-196.78 344.33,-193.82 340.26,-188.12"/>
</a>
</g>
<text text-anchor="middle" x="524.5" y="-144.5" font-family="Helvetica,sans-Serif" font-size="10.00" fill="grey"> m_ContinuousActions</text>
<text text-anchor="middle" x="524.5" y="-132.5" font-family="Helvetica,sans-Serif" font-size="10.00" fill="grey">m_InteractActions</text>
<text text-anchor="middle" x="524.5" y="-120.5" font-family="Helvetica,sans-Serif" font-size="10.00" fill="grey">m_SingleUseActions</text>
</g>
<!-- Node4&#45;&gt;Node4 -->
<g id="edge6_Node000004_Node000004" class="edge">
<title>Node4&#45;&gt;Node4</title>
<g id="a_edge6_Node000004_Node000004"><a xlink:title=" ">
<path fill="none" stroke="#9a32cd" stroke-dasharray="5,2" d="M342.68,-221.49C350.7,-221.78 357.25,-217.29 357.25,-208 357.25,-194.64 343.71,-191.2 331.7,-197.67"/>
<polygon fill="#9a32cd" stroke="#9a32cd" points="343.73,-218.15 333.16,-218.75 341.8,-224.88 343.73,-218.15"/>
</a>
</g>
<text text-anchor="middle" x="378.25" y="-204.5" font-family="Helvetica,sans-Serif" font-size="10.00" fill="grey"> proxyInfo</text>
</g>
<!-- Node10 -->
<g id="Node000010" class="node">
<title>Node10</title>
<g id="a_Node000010"><a xlink:href="../../d2/d01/classarray.html" target="_top" xlink:title=" ">
<polygon fill="white" stroke="#666666" points="331.62,-100 245.12,-100 245.12,-80 331.62,-80 331.62,-100"/>
<text text-anchor="middle" x="288.38" y="-86.5" font-family="Helvetica,sans-Serif" font-size="10.00">array&lt; Widget &gt;</text>
</a>
</g>
</g>
<!-- Node4&#45;&gt;Node10 -->
<g id="edge14_Node000010_Node000004" class="edge">
<title>Node4&#45;&gt;Node10</title>
<g id="a_edge14_Node000010_Node000004"><a xlink:title=" ">
<path fill="none" stroke="#9a32cd" stroke-dasharray="5,2" d="M305.51,-188.92C300.17,-183.09 293.86,-176.88 287.38,-172 273.4,-161.49 261.49,-168.93 252.38,-154 244.04,-140.34 245.22,-132.31 252.38,-118 256.08,-110.59 262.89,-104.69 269.59,-100.32"/>
<polygon fill="#9a32cd" stroke="#9a32cd" points="302.79,-191.13 311.99,-196.39 308.08,-186.55 302.79,-191.13"/>
</a>
</g>
<text text-anchor="middle" x="273.38" y="-132.5" font-family="Helvetica,sans-Serif" font-size="10.00" fill="grey"> proxyInfo</text>
</g>
<!-- Node5 -->
<g id="Node000005" class="node">
<title>Node5</title>
<g id="a_Node000005"><a xlink:href="../../d8/d03/class_object.html" target="_top" xlink:title=" ">
<polygon fill="white" stroke="#666666" points="148.62,-372 104.12,-372 104.12,-352 148.62,-352 148.62,-372"/>
<text text-anchor="middle" x="126.38" y="-358.5" font-family="Helvetica,sans-Serif" font-size="10.00">Object</text>
</a>
</g>
</g>
<!-- Node5&#45;&gt;Node4 -->
<g id="edge4_Node000004_Node000005" class="edge">
<title>Node5&#45;&gt;Node4</title>
<g id="a_edge4_Node000004_Node000005"><a xlink:title=" ">
<path fill="none" stroke="#9a32cd" stroke-dasharray="5,2" d="M130.67,-340.34C136.59,-317.37 149.59,-281.01 175.38,-262 215.96,-232.08 242.82,-267.6 287.38,-244 298.74,-237.98 308.37,-226.54 314.25,-218.37"/>
<polygon fill="#9a32cd" stroke="#9a32cd" points="127.27,-339.52 128.42,-350.05 134.09,-341.1 127.27,-339.52"/>
</a>
</g>
<text text-anchor="middle" x="188.88" y="-300.5" font-family="Helvetica,sans-Serif" font-size="10.00" fill="grey"> obj</text>
<text text-anchor="middle" x="188.88" y="-288.5" font-family="Helvetica,sans-Serif" font-size="10.00" fill="grey">parent</text>
</g>
<!-- Node5&#45;&gt;Node10 -->
<g id="edge12_Node000010_Node000005" class="edge">
<title>Node5&#45;&gt;Node10</title>
<g id="a_edge12_Node000010_Node000005"><a xlink:title=" ">
<path fill="none" stroke="#9a32cd" stroke-dasharray="5,2" d="M93.47,-350.68C85.91,-346.7 78.8,-341.29 74.38,-334 57.76,-306.65 64.64,-292.48 74.38,-262 98.79,-185.54 115.53,-160.9 183.38,-118 193.76,-111.44 220.84,-104.55 244.9,-99.37"/>
<polygon fill="#9a32cd" stroke="#9a32cd" points="91.9,-353.82 102.46,-354.66 94.73,-347.41 91.9,-353.82"/>
</a>
</g>
<text text-anchor="middle" x="129.88" y="-210.5" font-family="Helvetica,sans-Serif" font-size="10.00" fill="grey"> obj</text>
<text text-anchor="middle" x="129.88" y="-198.5" font-family="Helvetica,sans-Serif" font-size="10.00" fill="grey">parent</text>
</g>
<!-- Node6 -->
<g id="Node000006" class="node">
<title>Node6</title>
<g id="a_Node000006"><a xlink:href="../../db/d06/class_param3.html" target="_top" xlink:title=" ">
<polygon fill="white" stroke="#666666" points="236.25,-372 186.5,-372 186.5,-352 236.25,-352 236.25,-372"/>
<text text-anchor="middle" x="211.38" y="-358.5" font-family="Helvetica,sans-Serif" font-size="10.00">Param3</text>
</a>
</g>
</g>
<!-- Node6&#45;&gt;Node4 -->
<g id="edge5_Node000004_Node000006" class="edge">
<title>Node6&#45;&gt;Node4</title>
<g id="a_edge5_Node000004_Node000006"><a xlink:title=" ">
<path fill="none" stroke="#9a32cd" stroke-dasharray="5,2" d="M208.23,-340.44C206.09,-318.38 206.42,-283.6 225.12,-262 243.98,-240.23 262.79,-259.01 287.38,-244 298.21,-237.39 307.81,-226.29 313.83,-218.36"/>
<polygon fill="#9a32cd" stroke="#9a32cd" points="204.75,-340.78 209.47,-350.26 211.69,-339.91 204.75,-340.78"/>
</a>
</g>
<text text-anchor="middle" x="282.5" y="-324.5" font-family="Helvetica,sans-Serif" font-size="10.00" fill="grey"> NO_SORTING</text>
<text text-anchor="middle" x="282.5" y="-312.5" font-family="Helvetica,sans-Serif" font-size="10.00" fill="grey">geomLevel</text>
<text text-anchor="middle" x="282.5" y="-300.5" font-family="Helvetica,sans-Serif" font-size="10.00" fill="grey">hierLevel</text>
<text text-anchor="start" x="224.38" y="-288.5" font-family="Helvetica,sans-Serif" font-size="10.00" fill="grey">m_CurrentSettingAlternate</text>
<text text-anchor="middle" x="282.5" y="-276.5" font-family="Helvetica,sans-Serif" font-size="10.00" fill="grey">KeyIndex</text>
<text text-anchor="middle" x="282.5" y="-264.5" font-family="Helvetica,sans-Serif" font-size="10.00" fill="grey">m_CurrentSettingKeyIndex</text>
</g>
<!-- Node6&#45;&gt;Node10 -->
<g id="edge13_Node000010_Node000006" class="edge">
<title>Node6&#45;&gt;Node10</title>
<g id="a_edge13_Node000010_Node000006"><a xlink:title=" ">
<path fill="none" stroke="#9a32cd" stroke-dasharray="5,2" d="M205.26,-340.84C195.22,-307.7 176.31,-245.23 176.12,-244 171.46,-212.34 162.39,-200.9 176.12,-172 193.34,-135.75 235.87,-112.32 263.35,-100.42"/>
<polygon fill="#9a32cd" stroke="#9a32cd" points="201.82,-341.55 208.07,-350.11 208.52,-339.52 201.82,-341.55"/>
</a>
</g>
<text text-anchor="middle" x="234.5" y="-234.5" font-family="Helvetica,sans-Serif" font-size="10.00" fill="grey"> NO_SORTING</text>
<text text-anchor="middle" x="234.5" y="-222.5" font-family="Helvetica,sans-Serif" font-size="10.00" fill="grey">geomLevel</text>
<text text-anchor="middle" x="234.5" y="-210.5" font-family="Helvetica,sans-Serif" font-size="10.00" fill="grey">hierLevel</text>
<text text-anchor="start" x="176.38" y="-198.5" font-family="Helvetica,sans-Serif" font-size="10.00" fill="grey">m_CurrentSettingAlternate</text>
<text text-anchor="middle" x="234.5" y="-186.5" font-family="Helvetica,sans-Serif" font-size="10.00" fill="grey">KeyIndex</text>
<text text-anchor="middle" x="234.5" y="-174.5" font-family="Helvetica,sans-Serif" font-size="10.00" fill="grey">m_CurrentSettingKeyIndex</text>
</g>
<!-- Node7 -->
<g id="Node000007" class="node">
<title>Node7</title>
<g id="a_Node000007"><a xlink:href="../../d4/d04/class_class.html" target="_top" xlink:title="Super root of all classes in Enforce script.">
<polygon fill="white" stroke="#666666" points="421.75,-372 381,-372 381,-352 421.75,-352 421.75,-372"/>
<text text-anchor="middle" x="401.38" y="-358.5" font-family="Helvetica,sans-Serif" font-size="10.00">Class</text>
</a>
</g>
</g>
<!-- Node7&#45;&gt;Node4 -->
<g id="edge7_Node000004_Node000007" class="edge">
<title>Node7&#45;&gt;Node4</title>
<g id="a_edge7_Node000004_Node000007"><a xlink:title=" ">
<path fill="none" stroke="#9a32cd" stroke-dasharray="5,2" d="M377.37,-344.44C373.93,-341.28 370.69,-337.77 368.12,-334 349.25,-306.25 357.62,-293.25 345.38,-262 339.21,-246.28 330.53,-228.66 325.19,-218.22"/>
<polygon fill="#9a32cd" stroke="#9a32cd" points="374.95,-346.98 384.92,-350.56 379.36,-341.54 374.95,-346.98"/>
</a>
</g>
<text text-anchor="middle" x="394" y="-294.5" font-family="Helvetica,sans-Serif" font-size="10.00" fill="grey"> m_Instance</text>
</g>
<!-- Node7&#45;&gt;Node10 -->
<g id="edge15_Node000010_Node000007" class="edge">
<title>Node7&#45;&gt;Node10</title>
<g id="a_edge15_Node000010_Node000007"><a xlink:title=" ">
<path fill="none" stroke="#9a32cd" stroke-dasharray="5,2" d="M417.2,-342.74C418.91,-339.96 420.38,-337.01 421.38,-334 444.01,-265.41 433.33,-239.79 408.38,-172 398.58,-145.38 396.84,-135.31 374.38,-118 362.1,-108.54 346.46,-102.36 331.89,-98.34"/>
<polygon fill="#9a32cd" stroke="#9a32cd" points="414.49,-340.53 411.35,-350.65 420.11,-344.69 414.49,-340.53"/>
</a>
</g>
<text text-anchor="middle" x="457" y="-204.5" font-family="Helvetica,sans-Serif" font-size="10.00" fill="grey"> m_Instance</text>
</g>
<!-- Node8 -->
<g id="Node000008" class="node">
<title>Node8</title>
<g id="a_Node000008"><a xlink:href="../../d5/d02/classstring.html" target="_top" xlink:title=" ">
<polygon fill="white" stroke="#666666" points="564.38,-372 524.38,-372 524.38,-352 564.38,-352 564.38,-372"/>
<text text-anchor="middle" x="544.38" y="-358.5" font-family="Helvetica,sans-Serif" font-size="10.00">string</text>
</a>
</g>
</g>
<!-- Node8&#45;&gt;Node4 -->
<g id="edge8_Node000004_Node000008" class="edge">
<title>Node8&#45;&gt;Node4</title>
<g id="a_edge8_Node000004_Node000008"><a xlink:title=" ">
<path fill="none" stroke="#9a32cd" stroke-dasharray="5,2" d="M514.37,-346.38C507.8,-342.68 501.04,-338.48 495.12,-334 459.35,-306.93 460.55,-288.53 424.38,-262 397.08,-241.99 361.14,-225.53 339.45,-216.51"/>
<polygon fill="#9a32cd" stroke="#9a32cd" points="512.59,-349.39 523.05,-351.02 515.88,-343.22 512.59,-349.39"/>
</a>
</g>
<text text-anchor="middle" x="512" y="-294.5" font-family="Helvetica,sans-Serif" font-size="10.00" fill="grey"> m_Test</text>
</g>
<!-- Node8&#45;&gt;Node8 -->
<g id="edge9_Node000008_Node000008" class="edge">
<title>Node8&#45;&gt;Node8</title>
<g id="a_edge9_Node000008_Node000008"><a xlink:title=" ">
<path fill="none" stroke="#9a32cd" stroke-dasharray="5,2" d="M570.14,-373.91C577.09,-373.28 582.38,-369.31 582.38,-362 582.38,-351.12 570.67,-347.64 559.2,-351.55"/>
<polygon fill="#9a32cd" stroke="#9a32cd" points="571.07,-370.5 560.7,-372.65 570.15,-377.44 571.07,-370.5"/>
</a>
</g>
<text text-anchor="middle" x="598.12" y="-358.5" font-family="Helvetica,sans-Serif" font-size="10.00" fill="grey"> Empty</text>
</g>
<!-- Node8&#45;&gt;Node10 -->
<g id="edge16_Node000010_Node000008" class="edge">
<title>Node8&#45;&gt;Node10</title>
<g id="a_edge16_Node000010_Node000008"><a xlink:title=" ">
<path fill="none" stroke="#9a32cd" stroke-dasharray="5,2" d="M546.41,-340.44C551.14,-287.71 560.32,-149.59 530.38,-118 517,-103.89 397.83,-96.11 331.86,-92.86"/>
<polygon fill="#9a32cd" stroke="#9a32cd" points="542.95,-339.84 545.49,-350.13 549.92,-340.5 542.95,-339.84"/>
</a>
</g>
<text text-anchor="middle" x="569" y="-204.5" font-family="Helvetica,sans-Serif" font-size="10.00" fill="grey"> m_Test</text>
</g>
<!-- Node12 -->
<g id="Node000012" class="node">
<title>Node12</title>
<g id="a_Node000012"><a xlink:href="../../d4/d0d/class_sound_lookup_table.html" target="_top" xlink:title=" ">
<polygon fill="white" stroke="#666666" points="1010.62,-218 912.12,-218 912.12,-198 1010.62,-198 1010.62,-218"/>
<text text-anchor="middle" x="961.38" y="-204.5" font-family="Helvetica,sans-Serif" font-size="10.00">SoundLookupTable</text>
</a>
</g>
</g>
<!-- Node8&#45;&gt;Node12 -->
<g id="edge22_Node000012_Node000008" class="edge">
<title>Node8&#45;&gt;Node12</title>
<g id="a_edge22_Node000012_Node000008"><a xlink:title=" ">
<path fill="none" stroke="#9a32cd" stroke-dasharray="5,2" d="M575.41,-350.57C634.23,-330.68 765.88,-285.61 875.38,-244 897.22,-235.7 921.91,-225.57 939.21,-218.35"/>
<polygon fill="#9a32cd" stroke="#9a32cd" points="574.43,-347.21 566.08,-353.72 576.67,-353.84 574.43,-347.21"/>
</a>
</g>
<text text-anchor="middle" x="870.88" y="-300.5" font-family="Helvetica,sans-Serif" font-size="10.00" fill="grey"> m_parameterName</text>
<text text-anchor="middle" x="870.88" y="-288.5" font-family="Helvetica,sans-Serif" font-size="10.00" fill="grey">m_tableCategoryName</text>
</g>
<!-- Node9 -->
<g id="Node000009" class="node">
<title>Node9</title>
<g id="a_Node000009"><a xlink:href="../../dd/d0a/class_widget.html" target="_top" xlink:title=" ">
<polygon fill="white" stroke="#666666" points="46.75,-372 0,-372 0,-352 46.75,-352 46.75,-372"/>
<text text-anchor="middle" x="23.38" y="-358.5" font-family="Helvetica,sans-Serif" font-size="10.00">Widget</text>
</a>
</g>
</g>
<!-- Node9&#45;&gt;Node4 -->
<g id="edge10_Node000004_Node000009" class="edge">
<title>Node9&#45;&gt;Node4</title>
<g id="a_edge10_Node000004_Node000009"><a xlink:title=" ">
<path fill="none" stroke="#9a32cd" stroke-dasharray="5,2" d="M31.09,-341.15C41.31,-317.8 61.75,-279.94 92.62,-262 167.79,-218.34 209.24,-282.08 287.38,-244 299.09,-238.29 308.78,-226.54 314.56,-218.24"/>
<polygon fill="#9a32cd" stroke="#9a32cd" points="27.94,-339.6 27.36,-350.18 34.41,-342.28 27.94,-339.6"/>
</a>
</g>
<text text-anchor="middle" x="111.75" y="-294.5" font-family="Helvetica,sans-Serif" font-size="10.00" fill="grey"> m_Root</text>
</g>
<!-- Node9&#45;&gt;Node10 -->
<g id="edge17_Node000010_Node000009" class="edge">
<title>Node9&#45;&gt;Node10</title>
<g id="a_edge17_Node000010_Node000009"><a xlink:title=" ">
<path fill="none" stroke="#9a32cd" stroke-dasharray="5,2" d="M19.61,-340.66C13.95,-303.86 7.14,-225.11 40.62,-172 65.66,-132.3 87.34,-134.25 131.38,-118 132.73,-117.5 198.73,-106.23 244.72,-98.41"/>
<polygon fill="#9a32cd" stroke="#9a32cd" points="16.13,-341.05 21.25,-350.33 23.03,-339.88 16.13,-341.05"/>
</a>
</g>
<text text-anchor="middle" x="59.75" y="-204.5" font-family="Helvetica,sans-Serif" font-size="10.00" fill="grey"> m_Root</text>
</g>
<!-- Node10&#45;&gt;Node4 -->
<g id="edge11_Node000004_Node000010" class="edge">
<title>Node10&#45;&gt;Node4</title>
<g id="a_edge11_Node000004_Node000010"><a xlink:title=" ">
<path fill="none" stroke="#9a32cd" stroke-dasharray="5,2" d="M296.13,-111.19C296.93,-113.47 297.69,-115.78 298.38,-118 307.18,-146.6 314.92,-181.19 318.41,-197.55"/>
<polygon fill="#9a32cd" stroke="#9a32cd" points="299.42,-110 292.68,-101.83 292.86,-112.42 299.42,-110"/>
</a>
</g>
<text text-anchor="middle" x="338.88" y="-132.5" font-family="Helvetica,sans-Serif" font-size="10.00" fill="grey"> m_Subgroups</text>
</g>
<!-- Node10&#45;&gt;Node10 -->
<g id="edge18_Node000010_Node000010" class="edge">
<title>Node10&#45;&gt;Node10</title>
<g id="a_edge18_Node000010_Node000010"><a xlink:title=" ">
<path fill="none" stroke="#9a32cd" stroke-dasharray="5,2" d="M343,-94.76C347.11,-93.7 349.62,-92.11 349.62,-90 349.62,-86.35 342.09,-84.26 331.87,-83.75"/>
<polygon fill="#9a32cd" stroke="#9a32cd" points="342.82,-91.26 333.37,-96.05 343.74,-98.19 342.82,-91.26"/>
</a>
</g>
<text text-anchor="middle" x="381.12" y="-86.5" font-family="Helvetica,sans-Serif" font-size="10.00" fill="grey"> m_Subgroups</text>
</g>
<!-- Node11 -->
<g id="Node000011" class="node">
<title>Node11</title>
<g id="a_Node000011"><a xlink:href="../../d4/d03/classfloat.html" target="_top" xlink:title=" ">
<polygon fill="white" stroke="#666666" points="631.38,-218 597.38,-218 597.38,-198 631.38,-198 631.38,-218"/>
<text text-anchor="middle" x="614.38" y="-204.5" font-family="Helvetica,sans-Serif" font-size="10.00">float</text>
</a>
</g>
</g>
<!-- Node11&#45;&gt;Node3 -->
<g id="edge19_Node000003_Node000011" class="edge">
<title>Node11&#45;&gt;Node3</title>
<g id="a_edge19_Node000003_Node000011"><a xlink:title=" ">
<path fill="none" stroke="#9a32cd" stroke-dasharray="5,2" d="M599.36,-188.61C585.81,-169.64 570.1,-139.82 584.88,-118 594.22,-104.2 611.87,-97.46 626.78,-94.16"/>
<polygon fill="#9a32cd" stroke="#9a32cd" points="596.5,-190.64 605.35,-196.48 602.07,-186.4 596.5,-190.64"/>
</a>
</g>
<text text-anchor="middle" x="642.12" y="-138.5" font-family="Helvetica,sans-Serif" font-size="10.00" fill="grey"> SOUND_CONTACT_SKIP</text>
<text text-anchor="middle" x="642.12" y="-126.5" font-family="Helvetica,sans-Serif" font-size="10.00" fill="grey">m_SoundContactTickTime</text>
</g>
<!-- Node11&#45;&gt;Node11 -->
<g id="edge20_Node000011_Node000011" class="edge">
<title>Node11&#45;&gt;Node11</title>
<g id="a_edge20_Node000011_Node000011"><a xlink:title=" ">
<path fill="none" stroke="#9a32cd" stroke-dasharray="5,2" d="M636.05,-221.5C643.44,-221.58 649.38,-217.08 649.38,-208 649.38,-194.64 636.52,-191.2 625.13,-197.67"/>
<polygon fill="#9a32cd" stroke="#9a32cd" points="637.16,-218.17 626.58,-218.75 635.21,-224.9 637.16,-218.17"/>
</a>
</g>
<text text-anchor="middle" x="671.5" y="-216.5" font-family="Helvetica,sans-Serif" font-size="10.00" fill="grey"> LOWEST</text>
<text text-anchor="middle" x="671.5" y="-204.5" font-family="Helvetica,sans-Serif" font-size="10.00" fill="grey">MAX</text>
<text text-anchor="middle" x="671.5" y="-192.5" font-family="Helvetica,sans-Serif" font-size="10.00" fill="grey">MIN</text>
</g>
<!-- Node12&#45;&gt;Node3 -->
<g id="edge21_Node000003_Node000012" class="edge">
<title>Node12&#45;&gt;Node3</title>
<g id="a_edge21_Node000003_Node000012"><a xlink:title=" ">
<path fill="none" stroke="#9a32cd" stroke-dasharray="5,2" d="M969.21,-187.06C975.65,-166.97 981.24,-136.39 964.38,-118 945.17,-97.06 749.37,-92.32 678.12,-91.28"/>
<polygon fill="#9a32cd" stroke="#9a32cd" points="965.97,-185.74 965.89,-196.33 972.56,-188.09 965.97,-185.74"/>
</a>
</g>
<text text-anchor="middle" x="1023.75" y="-132.5" font-family="Helvetica,sans-Serif" font-size="10.00" fill="grey"> m_SoundImpactTable</text>
</g>
<!-- Node13 -->
<g id="Node000013" class="node">
<title>Node13</title>
<g id="a_Node000013"><a xlink:href="../../d9/d09/classbool.html" target="_top" xlink:title=" ">
<polygon fill="white" stroke="#666666" points="745.38,-218 711.38,-218 711.38,-198 745.38,-198 745.38,-218"/>
<text text-anchor="middle" x="728.38" y="-204.5" font-family="Helvetica,sans-Serif" font-size="10.00">bool</text>
</a>
</g>
</g>
<!-- Node13&#45;&gt;Node3 -->
<g id="edge23_Node000003_Node000013" class="edge">
<title>Node13&#45;&gt;Node3</title>
<g id="a_edge23_Node000003_Node000013"><a xlink:title=" ">
<path fill="none" stroke="#9a32cd" stroke-dasharray="5,2" d="M726.27,-186.41C723.34,-166.93 716.45,-137.81 700.38,-118 694.23,-110.43 685.36,-104.6 676.92,-100.33"/>
<polygon fill="#9a32cd" stroke="#9a32cd" points="722.77,-186.63 727.49,-196.12 729.71,-185.76 722.77,-186.63"/>
</a>
</g>
<text text-anchor="middle" x="760.75" y="-138.5" font-family="Helvetica,sans-Serif" font-size="10.00" fill="grey"> m_ActionsInitialize</text>
<text text-anchor="middle" x="760.75" y="-126.5" font-family="Helvetica,sans-Serif" font-size="10.00" fill="grey">m_IsMeleeWeapon</text>
</g>
<!-- Node14 -->
<g id="Node000014" class="node">
<title>Node14</title>
<g id="a_Node000014"><a xlink:href="../../d4/d0d/class_script_invoker.html" target="_top" xlink:title="ScriptInvoker Class provide list of callbacks &#160;&#160;usage:">
<polygon fill="white" stroke="#666666" points="866.12,-218 794.62,-218 794.62,-198 866.12,-198 866.12,-218"/>
<text text-anchor="middle" x="830.38" y="-204.5" font-family="Helvetica,sans-Serif" font-size="10.00">ScriptInvoker</text>
</a>
</g>
</g>
<!-- Node14&#45;&gt;Node3 -->
<g id="edge24_Node000003_Node000014" class="edge">
<title>Node14&#45;&gt;Node3</title>
<g id="a_edge24_Node000003_Node000014"><a xlink:title=" ">
<path fill="none" stroke="#9a32cd" stroke-dasharray="5,2" d="M831.01,-186.11C830.43,-165.71 826.13,-135.3 807.38,-118 788.91,-100.96 716.91,-94.47 677.88,-92.16"/>
<polygon fill="#9a32cd" stroke="#9a32cd" points="827.51,-186.04 830.99,-196.05 834.51,-186.06 827.51,-186.04"/>
</a>
</g>
<text text-anchor="middle" x="892.88" y="-138.5" font-family="Helvetica,sans-Serif" font-size="10.00" fill="grey"> m_OnItemAddedToHands</text>
<text text-anchor="middle" x="892.88" y="-126.5" font-family="Helvetica,sans-Serif" font-size="10.00" fill="grey">m_OnItemRemovedFromHands</text>
</g>
</g>
</svg>
