<?xml version="1.0" encoding="UTF-8" standalone="no"?>
<!DOCTYPE svg PUBLIC "-//W3C//DTD SVG 1.1//EN"
 "http://www.w3.org/Graphics/SVG/1.1/DTD/svg11.dtd">
<!-- Generated by graphviz version 11.0.0 (20240428.1522)
 -->
<!-- Title: PMTPlayback Pages: 1 -->
<!--zoomable 578 -->

<svg id="main" version="1.1" xmlns="http://www.w3.org/2000/svg" xmlns:xlink="http://www.w3.org/1999/xlink" xml:space="preserve" onload="init(evt)">
<style type="text/css"><![CDATA[
.node, .edge {opacity: 0.7;}
.node.selected, .edge.selected {opacity: 1;}
.edge:hover path { stroke: red; }
.edge:hover polygon { stroke: red; fill: red; }
]]></style>

<defs>
  <circle id="rim" cx="0" cy="0" r="7"/>
  <circle id="rim2" cx="0" cy="0" r="3.5"/>
  <g id="zoomPlus">
    <use xlink:href="#rim" fill="#404040"><set attributeName="fill" to="#808080" begin="zoomplus.mouseover" end="zoomplus.mouseout"/></use>
    <path d="M-4,0h8M0,-4v8" fill="none" stroke="white" stroke-width="1.5" pointer-events="none"/>
  </g>
  <g id="zoomMin">
    <use xlink:href="#rim" fill="#404040"><set attributeName="fill" to="#808080" begin="zoomminus.mouseover" end="zoomminus.mouseout"/></use>
    <path d="M-4,0h8" fill="none" stroke="white" stroke-width="1.5" pointer-events="none"/>
  </g>
  <g id="arrowUp" transform="translate(30 24)">
    <use xlink:href="#rim"/>
    <path pointer-events="none" fill="none" stroke="white" stroke-width="1.5" d="M0,-3.0v7 M-2.5,-0.5L0,-3.0L2.5,-0.5"/>
  </g>
  <g id="arrowRight" transform="rotate(90) translate(36 -43)">
    <use xlink:href="#rim"/>
    <path pointer-events="none" fill="none" stroke="white" stroke-width="1.5" d="M0,-3.0v7 M-2.5,-0.5L0,-3.0L2.5,-0.5"/>
  </g>
  <g id="arrowDown" transform="rotate(180) translate(-30 -48)">
    <use xlink:href="#rim"/>
    <path pointer-events="none" fill="none" stroke="white" stroke-width="1.5" d="M0,-3.0v7 M-2.5,-0.5L0,-3.0L2.5,-0.5"/>
  </g>
  <g id="arrowLeft" transform="rotate(270) translate(-36 17)">
    <use xlink:href="#rim"/>
    <path pointer-events="none" fill="none" stroke="white" stroke-width="1.5" d="M0,-3.0v7 M-2.5,-0.5L0,-3.0L2.5,-0.5"/>
  </g>
  <g id="resetDef">
    <use xlink:href="#rim2" fill="#404040"><set attributeName="fill" to="#808080" begin="reset.mouseover" end="reset.mouseout"/></use>
  </g>
</defs>
<script type="application/ecmascript">
var viewWidth = 1059;
var viewHeight = 578;
var sectionId = 'dynsection-1';
</script>
<script type="application/ecmascript" xlink:href="../../svg.min.js"/>
<svg id="graph" class="graph">
<g id="viewport">
<title>PMTPlayback</title>
<!-- Node1 -->
<g id="Node000001" class="node">
<title>Node1</title>
<g id="a_Node000001"><a xlink:title=" ">
<polygon fill="#999999" stroke="#666666" points="615.75,-20 539,-20 539,0 615.75,0 615.75,-20"/>
<text text-anchor="middle" x="577.38" y="-6.5" font-family="Helvetica,sans-Serif" font-size="10.00">PMTPlayback</text>
</a>
</g>
</g>
<!-- Node2 -->
<g id="Node000002" class="node">
<title>Node2</title>
<g id="a_Node000002"><a xlink:href="../../d5/d08/class_p_m_t_f.html" target="_top" xlink:title=" ">
<polygon fill="white" stroke="#666666" points="85.5,-414 43.25,-414 43.25,-394 85.5,-394 85.5,-414"/>
<text text-anchor="middle" x="64.38" y="-400.5" font-family="Helvetica,sans-Serif" font-size="10.00">PMTF</text>
</a>
</g>
</g>
<!-- Node2&#45;&gt;Node1 -->
<g id="edge1_Node000001_Node000002" class="edge">
<title>Node2&#45;&gt;Node1</title>
<g id="a_edge1_Node000001_Node000002"><a xlink:title=" ">
<path fill="none" stroke="#8b1a1a" d="M60.81,-382.69C51.12,-320.02 31.46,-128.47 134.38,-38 164.36,-11.64 436.14,-10.27 538.56,-10.7"/>
<polygon fill="#8b1a1a" stroke="#8b1a1a" points="57.31,-382.94 62.39,-392.24 64.21,-381.8 57.31,-382.94"/>
</a>
</g>
</g>
<!-- Node3 -->
<g id="Node000003" class="node">
<title>Node3</title>
<g id="a_Node000003"><a xlink:title=" ">
<polygon fill="white" stroke="#666666" points="82.75,-568 0,-568 0,-548 82.75,-548 82.75,-568"/>
<text text-anchor="middle" x="41.38" y="-554.5" font-family="Helvetica,sans-Serif" font-size="10.00">TestFramework</text>
</a>
</g>
</g>
<!-- Node3&#45;&gt;Node2 -->
<g id="edge2_Node000002_Node000003" class="edge">
<title>Node3&#45;&gt;Node2</title>
<g id="a_edge2_Node000002_Node000003"><a xlink:title=" ">
<path fill="none" stroke="#8b1a1a" d="M42.63,-536.22C44.04,-516.11 46.76,-484.81 51.38,-458 54.05,-442.5 58.72,-424.82 61.67,-414.3"/>
<polygon fill="#8b1a1a" stroke="#8b1a1a" points="39.14,-535.94 41.98,-546.15 46.12,-536.4 39.14,-535.94"/>
</a>
</g>
</g>
<!-- Node4 -->
<g id="Node000004" class="node">
<title>Node4</title>
<g id="a_Node000004"><a xlink:href="../../db/d06/class_param3.html" target="_top" xlink:title=" ">
<polygon fill="white" stroke="#666666" points="211.25,-568 161.5,-568 161.5,-548 211.25,-548 211.25,-568"/>
<text text-anchor="middle" x="186.38" y="-554.5" font-family="Helvetica,sans-Serif" font-size="10.00">Param3</text>
</a>
</g>
</g>
<!-- Node4&#45;&gt;Node1 -->
<g id="edge27_Node000001_Node000004" class="edge">
<title>Node4&#45;&gt;Node1</title>
<g id="a_edge27_Node000001_Node000004"><a xlink:title=" ">
<path fill="none" stroke="#9a32cd" stroke-dasharray="5,2" d="M178.04,-536.99C166.85,-508.3 148.38,-453.55 148.38,-405 148.38,-405 148.38,-405 148.38,-145 148.38,-63.66 432.95,-25.93 538.55,-14.73"/>
<polygon fill="#9a32cd" stroke="#9a32cd" points="174.76,-538.23 181.74,-546.2 181.25,-535.61 174.76,-538.23"/>
</a>
</g>
<text text-anchor="middle" x="205" y="-250.5" font-family="Helvetica,sans-Serif" font-size="10.00" fill="grey"> m_OnePlayingManagerID</text>
<text text-anchor="middle" x="205" y="-238.5" font-family="Helvetica,sans-Serif" font-size="10.00" fill="grey">m_OnePlayingSAADPSID</text>
<text text-anchor="middle" x="205" y="-226.5" font-family="Helvetica,sans-Serif" font-size="10.00" fill="grey">m_OnePlayingSAPSID</text>
<text text-anchor="middle" x="205" y="-214.5" font-family="Helvetica,sans-Serif" font-size="10.00" fill="grey">m_StopPSID</text>
</g>
<!-- Node4&#45;&gt;Node2 -->
<g id="edge3_Node000002_Node000004" class="edge">
<title>Node4&#45;&gt;Node2</title>
<g id="a_edge3_Node000002_Node000004"><a xlink:title=" ">
<path fill="none" stroke="#9a32cd" stroke-dasharray="5,2" d="M150.15,-553.83C118.47,-550.21 75.92,-543.05 65.38,-530 37.69,-495.73 53.28,-437.21 60.93,-414.45"/>
<polygon fill="#9a32cd" stroke="#9a32cd" points="149.44,-557.27 159.75,-554.84 150.17,-550.31 149.44,-557.27"/>
</a>
</g>
<text text-anchor="middle" x="99.88" y="-490.5" font-family="Helvetica,sans-Serif" font-size="10.00" fill="grey"> PM_CREATED</text>
</g>
<!-- Node5 -->
<g id="Node000005" class="node">
<title>Node5</title>
<g id="a_Node000005"><a xlink:href="../../d2/d01/classarray.html" target="_top" xlink:title=" ">
<polygon fill="white" stroke="#666666" points="651.12,-156 531.62,-156 531.62,-136 651.12,-136 651.12,-156"/>
<text text-anchor="middle" x="591.38" y="-142.5" font-family="Helvetica,sans-Serif" font-size="10.00">array&lt; ParticleSource &gt;</text>
</a>
</g>
</g>
<!-- Node4&#45;&gt;Node5 -->
<g id="edge6_Node000005_Node000004" class="edge">
<title>Node4&#45;&gt;Node5</title>
<g id="a_edge6_Node000005_Node000004"><a xlink:title=" ">
<path fill="none" stroke="#9a32cd" stroke-dasharray="5,2" d="M187.18,-536.46C188.45,-516.09 191.77,-484.24 200.38,-458 228.67,-371.7 230.56,-339.79 297.12,-278 371.2,-209.24 487.36,-172.27 549.25,-156.48"/>
<polygon fill="#9a32cd" stroke="#9a32cd" points="183.69,-536.07 186.68,-546.24 190.68,-536.43 183.69,-536.07"/>
</a>
</g>
<text text-anchor="middle" x="355.5" y="-340.5" font-family="Helvetica,sans-Serif" font-size="10.00" fill="grey"> NO_SORTING</text>
<text text-anchor="middle" x="355.5" y="-328.5" font-family="Helvetica,sans-Serif" font-size="10.00" fill="grey">geomLevel</text>
<text text-anchor="middle" x="355.5" y="-316.5" font-family="Helvetica,sans-Serif" font-size="10.00" fill="grey">hierLevel</text>
<text text-anchor="start" x="297.38" y="-304.5" font-family="Helvetica,sans-Serif" font-size="10.00" fill="grey">m_CurrentSettingAlternate</text>
<text text-anchor="middle" x="355.5" y="-292.5" font-family="Helvetica,sans-Serif" font-size="10.00" fill="grey">KeyIndex</text>
<text text-anchor="middle" x="355.5" y="-280.5" font-family="Helvetica,sans-Serif" font-size="10.00" fill="grey">m_CurrentSettingKeyIndex</text>
</g>
<!-- Node7 -->
<g id="Node000007" class="node">
<title>Node7</title>
<g id="a_Node000007"><a xlink:href="../../d2/d01/classarray.html" target="_top" xlink:title="Result for an object found in CGame.IsBoxCollidingGeometryProxy.">
<polygon fill="white" stroke="#666666" points="670.25,-414 632.5,-414 632.5,-394 670.25,-394 670.25,-414"/>
<text text-anchor="middle" x="651.38" y="-400.5" font-family="Helvetica,sans-Serif" font-size="10.00">array</text>
</a>
</g>
</g>
<!-- Node4&#45;&gt;Node7 -->
<g id="edge9_Node000007_Node000004" class="edge">
<title>Node4&#45;&gt;Node7</title>
<g id="a_edge9_Node000007_Node000004"><a xlink:title=" ">
<path fill="none" stroke="#9a32cd" stroke-dasharray="5,2" d="M217.67,-543.03C273.56,-518.31 388.67,-468.45 431.12,-458 510.16,-438.54 539.1,-473.29 613.38,-440 626.14,-434.28 637.46,-422.53 644.35,-414.23"/>
<polygon fill="#9a32cd" stroke="#9a32cd" points="216.43,-539.76 208.7,-547.01 219.26,-546.15 216.43,-539.76"/>
</a>
</g>
<text text-anchor="middle" x="489.5" y="-520.5" font-family="Helvetica,sans-Serif" font-size="10.00" fill="grey"> NO_SORTING</text>
<text text-anchor="middle" x="489.5" y="-508.5" font-family="Helvetica,sans-Serif" font-size="10.00" fill="grey">geomLevel</text>
<text text-anchor="middle" x="489.5" y="-496.5" font-family="Helvetica,sans-Serif" font-size="10.00" fill="grey">hierLevel</text>
<text text-anchor="start" x="431.38" y="-484.5" font-family="Helvetica,sans-Serif" font-size="10.00" fill="grey">m_CurrentSettingAlternate</text>
<text text-anchor="middle" x="489.5" y="-472.5" font-family="Helvetica,sans-Serif" font-size="10.00" fill="grey">KeyIndex</text>
<text text-anchor="middle" x="489.5" y="-460.5" font-family="Helvetica,sans-Serif" font-size="10.00" fill="grey">m_CurrentSettingKeyIndex</text>
</g>
<!-- Node11 -->
<g id="Node000011" class="node">
<title>Node11</title>
<g id="a_Node000011"><a xlink:href="../../d2/d01/classarray.html" target="_top" xlink:title=" ">
<polygon fill="white" stroke="#666666" points="737.62,-246 651.12,-246 651.12,-226 737.62,-226 737.62,-246"/>
<text text-anchor="middle" x="694.38" y="-232.5" font-family="Helvetica,sans-Serif" font-size="10.00">array&lt; Widget &gt;</text>
</a>
</g>
</g>
<!-- Node4&#45;&gt;Node11 -->
<g id="edge17_Node000011_Node000004" class="edge">
<title>Node4&#45;&gt;Node11</title>
<g id="a_edge17_Node000011_Node000004"><a xlink:title=" ">
<path fill="none" stroke="#9a32cd" stroke-dasharray="5,2" d="M197.38,-537.68C223.66,-491.83 289.08,-379.41 305.12,-368 334.21,-347.32 350.67,-364.27 383.38,-350 435.57,-327.23 436.04,-297.96 489.38,-278 552.26,-254.47 574.45,-277.12 639.38,-260 651.78,-256.73 665.08,-251.23 675.48,-246.43"/>
<polygon fill="#9a32cd" stroke="#9a32cd" points="194.4,-535.84 192.48,-546.26 200.48,-539.31 194.4,-535.84"/>
</a>
</g>
<text text-anchor="middle" x="363.5" y="-430.5" font-family="Helvetica,sans-Serif" font-size="10.00" fill="grey"> NO_SORTING</text>
<text text-anchor="middle" x="363.5" y="-418.5" font-family="Helvetica,sans-Serif" font-size="10.00" fill="grey">geomLevel</text>
<text text-anchor="middle" x="363.5" y="-406.5" font-family="Helvetica,sans-Serif" font-size="10.00" fill="grey">hierLevel</text>
<text text-anchor="start" x="305.38" y="-394.5" font-family="Helvetica,sans-Serif" font-size="10.00" fill="grey">m_CurrentSettingAlternate</text>
<text text-anchor="middle" x="363.5" y="-382.5" font-family="Helvetica,sans-Serif" font-size="10.00" fill="grey">KeyIndex</text>
<text text-anchor="middle" x="363.5" y="-370.5" font-family="Helvetica,sans-Serif" font-size="10.00" fill="grey">m_CurrentSettingKeyIndex</text>
</g>
<!-- Node5&#45;&gt;Node1 -->
<g id="edge4_Node000001_Node000005" class="edge">
<title>Node5&#45;&gt;Node1</title>
<g id="a_edge4_Node000001_Node000005"><a xlink:title=" ">
<path fill="none" stroke="#9a32cd" stroke-dasharray="5,2" d="M583.07,-125.3C581.36,-120.39 579.79,-115.07 578.88,-110 573,-77.52 575.09,-38.07 576.51,-20.38"/>
<polygon fill="#9a32cd" stroke="#9a32cd" points="579.69,-126.26 586.57,-134.31 586.21,-123.72 579.69,-126.26"/>
</a>
</g>
<text text-anchor="middle" x="621.12" y="-70.5" font-family="Helvetica,sans-Serif" font-size="10.00" fill="grey"> m_ParticleSources</text>
</g>
<!-- Node6 -->
<g id="Node000006" class="node">
<title>Node6</title>
<g id="a_Node000006"><a xlink:href="../../d8/d03/class_object.html" target="_top" xlink:title=" ">
<polygon fill="white" stroke="#666666" points="678.62,-568 634.12,-568 634.12,-548 678.62,-548 678.62,-568"/>
<text text-anchor="middle" x="656.38" y="-554.5" font-family="Helvetica,sans-Serif" font-size="10.00">Object</text>
</a>
</g>
</g>
<!-- Node6&#45;&gt;Node5 -->
<g id="edge5_Node000005_Node000006" class="edge">
<title>Node6&#45;&gt;Node5</title>
<g id="a_edge5_Node000005_Node000006"><a xlink:title=" ">
<path fill="none" stroke="#9a32cd" stroke-dasharray="5,2" d="M689.96,-553.35C742.91,-547.43 840.33,-535.82 845.38,-530 856.97,-516.63 838.8,-225.51 827.38,-212 824.09,-208.11 693.32,-173.58 627.89,-156.49"/>
<polygon fill="#9a32cd" stroke="#9a32cd" points="689.83,-549.84 680.28,-554.42 690.6,-556.8 689.83,-549.84"/>
</a>
</g>
<text text-anchor="middle" x="856.88" y="-316.5" font-family="Helvetica,sans-Serif" font-size="10.00" fill="grey"> obj</text>
<text text-anchor="middle" x="856.88" y="-304.5" font-family="Helvetica,sans-Serif" font-size="10.00" fill="grey">parent</text>
</g>
<!-- Node6&#45;&gt;Node7 -->
<g id="edge8_Node000007_Node000006" class="edge">
<title>Node6&#45;&gt;Node7</title>
<g id="a_edge8_Node000007_Node000006"><a xlink:title=" ">
<path fill="none" stroke="#9a32cd" stroke-dasharray="5,2" d="M655.7,-536.47C654.6,-503.04 652.47,-438.17 651.68,-414.2"/>
<polygon fill="#9a32cd" stroke="#9a32cd" points="652.2,-536.55 656.03,-546.43 659.2,-536.32 652.2,-536.55"/>
</a>
</g>
<text text-anchor="middle" x="668.88" y="-496.5" font-family="Helvetica,sans-Serif" font-size="10.00" fill="grey"> obj</text>
<text text-anchor="middle" x="668.88" y="-484.5" font-family="Helvetica,sans-Serif" font-size="10.00" fill="grey">parent</text>
</g>
<!-- Node6&#45;&gt;Node11 -->
<g id="edge16_Node000011_Node000006" class="edge">
<title>Node6&#45;&gt;Node11</title>
<g id="a_edge16_Node000011_Node000006"><a xlink:title=" ">
<path fill="none" stroke="#9a32cd" stroke-dasharray="5,2" d="M648.26,-537.24C639.6,-516.86 625.01,-484.42 609.38,-458 604.35,-449.51 599.41,-449.39 596.38,-440 586.53,-409.55 593.05,-399.83 596.38,-368 600.62,-327.34 590.63,-310.54 615.38,-278 622.67,-268.41 650.41,-255.28 670.97,-246.49"/>
<polygon fill="#9a32cd" stroke="#9a32cd" points="644.97,-538.43 652.05,-546.31 651.43,-535.73 644.97,-538.43"/>
</a>
</g>
<text text-anchor="middle" x="609.88" y="-406.5" font-family="Helvetica,sans-Serif" font-size="10.00" fill="grey"> obj</text>
<text text-anchor="middle" x="609.88" y="-394.5" font-family="Helvetica,sans-Serif" font-size="10.00" fill="grey">parent</text>
</g>
<!-- Node7&#45;&gt;Node5 -->
<g id="edge7_Node000005_Node000007" class="edge">
<title>Node7&#45;&gt;Node5</title>
<g id="a_edge7_Node000005_Node000007"><a xlink:title=" ">
<path fill="none" stroke="#9a32cd" stroke-dasharray="5,2" d="M638.4,-384.09C628.24,-369.27 615.77,-350.98 615.38,-350 587.27,-279.83 589.32,-185.89 590.8,-156.32"/>
<polygon fill="#9a32cd" stroke="#9a32cd" points="635.48,-386.03 644.02,-392.3 641.25,-382.07 635.48,-386.03"/>
</a>
</g>
<text text-anchor="middle" x="614.38" y="-232.5" font-family="Helvetica,sans-Serif" font-size="10.00" fill="grey"> proxyInfo</text>
</g>
<!-- Node7&#45;&gt;Node7 -->
<g id="edge10_Node000007_Node000007" class="edge">
<title>Node7&#45;&gt;Node7</title>
<g id="a_edge10_Node000007_Node000007"><a xlink:title=" ">
<path fill="none" stroke="#9a32cd" stroke-dasharray="5,2" d="M669.21,-420.07C679.12,-423.07 688.25,-417.71 688.25,-404 688.25,-385.72 672.02,-382.29 659.34,-393.72"/>
<polygon fill="#9a32cd" stroke="#9a32cd" points="671.04,-417.09 660.65,-415.05 667.5,-423.13 671.04,-417.09"/>
</a>
</g>
<text text-anchor="middle" x="709.25" y="-400.5" font-family="Helvetica,sans-Serif" font-size="10.00" fill="grey"> proxyInfo</text>
</g>
<!-- Node7&#45;&gt;Node11 -->
<g id="edge18_Node000011_Node000007" class="edge">
<title>Node7&#45;&gt;Node11</title>
<g id="a_edge18_Node000011_Node000007"><a xlink:title=" ">
<path fill="none" stroke="#9a32cd" stroke-dasharray="5,2" d="M640.31,-383.55C627.27,-357.82 609.6,-311.77 628.38,-278 636.63,-263.15 652.75,-252.98 666.99,-246.49"/>
<polygon fill="#9a32cd" stroke="#9a32cd" points="637.14,-385.04 644.95,-392.2 643.31,-381.74 637.14,-385.04"/>
</a>
</g>
<text text-anchor="middle" x="649.38" y="-310.5" font-family="Helvetica,sans-Serif" font-size="10.00" fill="grey"> proxyInfo</text>
</g>
<!-- Node8 -->
<g id="Node000008" class="node">
<title>Node8</title>
<g id="a_Node000008"><a xlink:href="../../d4/d04/class_class.html" target="_top" xlink:title="Super root of all classes in Enforce script.">
<polygon fill="white" stroke="#666666" points="794.75,-568 754,-568 754,-548 794.75,-548 794.75,-568"/>
<text text-anchor="middle" x="774.38" y="-554.5" font-family="Helvetica,sans-Serif" font-size="10.00">Class</text>
</a>
</g>
</g>
<!-- Node8&#45;&gt;Node5 -->
<g id="edge23_Node000005_Node000008" class="edge">
<title>Node8&#45;&gt;Node5</title>
<g id="a_edge23_Node000005_Node000008"><a xlink:title=" ">
<path fill="none" stroke="#9a32cd" stroke-dasharray="5,2" d="M806.36,-555.5C825.09,-552.82 847.53,-546.15 860.38,-530 948.47,-419.28 949.09,-308.24 845.38,-212 783.11,-154.22 743.46,-181.69 660.38,-164 649.76,-161.74 638.28,-159.02 627.8,-156.43"/>
<polygon fill="#9a32cd" stroke="#9a32cd" points="806.08,-552.01 796.51,-556.56 806.83,-558.97 806.08,-552.01"/>
</a>
</g>
<text text-anchor="middle" x="950" y="-310.5" font-family="Helvetica,sans-Serif" font-size="10.00" fill="grey"> m_Instance</text>
</g>
<!-- Node8&#45;&gt;Node7 -->
<g id="edge11_Node000007_Node000008" class="edge">
<title>Node8&#45;&gt;Node7</title>
<g id="a_edge11_Node000007_Node000008"><a xlink:title=" ">
<path fill="none" stroke="#9a32cd" stroke-dasharray="5,2" d="M742.71,-550.52C730.14,-546.5 716.49,-540.1 707.12,-530 684.31,-505.39 698.41,-488.48 684.38,-458 676.94,-441.85 665.49,-424.64 658.22,-414.36"/>
<polygon fill="#9a32cd" stroke="#9a32cd" points="741.75,-553.89 752.32,-553.17 743.62,-547.14 741.75,-553.89"/>
</a>
</g>
<text text-anchor="middle" x="733" y="-490.5" font-family="Helvetica,sans-Serif" font-size="10.00" fill="grey"> m_Instance</text>
</g>
<!-- Node8&#45;&gt;Node11 -->
<g id="edge19_Node000011_Node000008" class="edge">
<title>Node8&#45;&gt;Node11</title>
<g id="a_edge19_Node000011_Node000008"><a xlink:title=" ">
<path fill="none" stroke="#9a32cd" stroke-dasharray="5,2" d="M778.62,-536.96C787.74,-488.62 804.61,-363.3 755.38,-278 747.02,-263.52 731.24,-253.13 717.83,-246.42"/>
<polygon fill="#9a32cd" stroke="#9a32cd" points="775.24,-536.02 776.71,-546.51 782.11,-537.39 775.24,-536.02"/>
</a>
</g>
<text text-anchor="middle" x="815" y="-400.5" font-family="Helvetica,sans-Serif" font-size="10.00" fill="grey"> m_Instance</text>
</g>
<!-- Node9 -->
<g id="Node000009" class="node">
<title>Node9</title>
<g id="a_Node000009"><a xlink:href="../../d5/d02/classstring.html" target="_top" xlink:title=" ">
<polygon fill="white" stroke="#666666" points="421.38,-568 381.38,-568 381.38,-548 421.38,-548 421.38,-568"/>
<text text-anchor="middle" x="401.38" y="-554.5" font-family="Helvetica,sans-Serif" font-size="10.00">string</text>
</a>
</g>
</g>
<!-- Node9&#45;&gt;Node5 -->
<g id="edge24_Node000005_Node000009" class="edge">
<title>Node9&#45;&gt;Node5</title>
<g id="a_edge24_Node000005_Node000009"><a xlink:title=" ">
<path fill="none" stroke="#9a32cd" stroke-dasharray="5,2" d="M397.98,-536.19C397.73,-534.11 397.52,-532.01 397.38,-530 395.02,-498.09 393.22,-489.73 397.38,-458 408.27,-374.83 408.24,-348.22 454.12,-278 489.44,-223.96 551.13,-175.88 578.11,-156.31"/>
<polygon fill="#9a32cd" stroke="#9a32cd" points="394.51,-536.65 399.41,-546.04 401.44,-535.64 394.51,-536.65"/>
</a>
</g>
<text text-anchor="middle" x="472" y="-310.5" font-family="Helvetica,sans-Serif" font-size="10.00" fill="grey"> m_Test</text>
</g>
<!-- Node9&#45;&gt;Node7 -->
<g id="edge12_Node000007_Node000009" class="edge">
<title>Node9&#45;&gt;Node7</title>
<g id="a_edge12_Node000007_Node000009"><a xlink:title=" ">
<path fill="none" stroke="#9a32cd" stroke-dasharray="5,2" d="M433.19,-557.6C465.19,-556.82 514.89,-551.73 551.38,-530 564.03,-522.46 624.3,-441.69 644.65,-414.14"/>
<polygon fill="#9a32cd" stroke="#9a32cd" points="433.34,-554.1 423.37,-557.7 433.41,-561.1 433.34,-554.1"/>
</a>
</g>
<text text-anchor="middle" x="627" y="-490.5" font-family="Helvetica,sans-Serif" font-size="10.00" fill="grey"> m_Test</text>
</g>
<!-- Node9&#45;&gt;Node9 -->
<g id="edge13_Node000009_Node000009" class="edge">
<title>Node9&#45;&gt;Node9</title>
<g id="a_edge13_Node000009_Node000009"><a xlink:title=" ">
<path fill="none" stroke="#9a32cd" stroke-dasharray="5,2" d="M427.14,-569.91C434.09,-569.28 439.38,-565.31 439.38,-558 439.38,-547.12 427.67,-543.64 416.2,-547.55"/>
<polygon fill="#9a32cd" stroke="#9a32cd" points="428.07,-566.5 417.7,-568.65 427.15,-573.44 428.07,-566.5"/>
</a>
</g>
<text text-anchor="middle" x="455.12" y="-554.5" font-family="Helvetica,sans-Serif" font-size="10.00" fill="grey"> Empty</text>
</g>
<!-- Node9&#45;&gt;Node11 -->
<g id="edge20_Node000011_Node000009" class="edge">
<title>Node9&#45;&gt;Node11</title>
<g id="a_edge20_Node000011_Node000009"><a xlink:title=" ">
<path fill="none" stroke="#9a32cd" stroke-dasharray="5,2" d="M400.6,-536.43C400.64,-515.6 402.99,-482.99 415.38,-458 465.34,-357.19 499.39,-339.85 593.38,-278 611.71,-265.93 619.02,-268.24 639.38,-260 650.22,-255.61 662.2,-250.62 672.21,-246.41"/>
<polygon fill="#9a32cd" stroke="#9a32cd" points="397.1,-536.25 400.78,-546.19 404.1,-536.13 397.1,-536.25"/>
</a>
</g>
<text text-anchor="middle" x="491" y="-400.5" font-family="Helvetica,sans-Serif" font-size="10.00" fill="grey"> m_Test</text>
</g>
<!-- Node10 -->
<g id="Node000010" class="node">
<title>Node10</title>
<g id="a_Node000010"><a xlink:href="../../dd/d0a/class_widget.html" target="_top" xlink:title=" ">
<polygon fill="white" stroke="#666666" points="987.75,-568 941,-568 941,-548 987.75,-548 987.75,-568"/>
<text text-anchor="middle" x="964.38" y="-554.5" font-family="Helvetica,sans-Serif" font-size="10.00">Widget</text>
</a>
</g>
</g>
<!-- Node10&#45;&gt;Node5 -->
<g id="edge25_Node000005_Node000010" class="edge">
<title>Node10&#45;&gt;Node5</title>
<g id="a_edge25_Node000005_Node000010"><a xlink:title=" ">
<path fill="none" stroke="#9a32cd" stroke-dasharray="5,2" d="M978.38,-538.59C980.19,-535.79 981.92,-532.88 983.38,-530 1002.38,-492.36 1006.62,-481.62 1013.38,-440 1025.24,-366.9 1021.16,-335.41 974.38,-278 924.61,-216.93 900.54,-205.58 825.38,-182 754.99,-159.92 733.02,-176.85 660.38,-164 649.08,-162 636.88,-159.21 625.93,-156.47"/>
<polygon fill="#9a32cd" stroke="#9a32cd" points="975.56,-536.51 972.64,-546.69 981.27,-540.55 975.56,-536.51"/>
</a>
</g>
<text text-anchor="middle" x="1032.75" y="-310.5" font-family="Helvetica,sans-Serif" font-size="10.00" fill="grey"> m_Root</text>
</g>
<!-- Node10&#45;&gt;Node7 -->
<g id="edge14_Node000007_Node000010" class="edge">
<title>Node10&#45;&gt;Node7</title>
<g id="a_edge14_Node000007_Node000010"><a xlink:title=" ">
<path fill="none" stroke="#9a32cd" stroke-dasharray="5,2" d="M935.49,-542.59C896.5,-523.2 824.85,-487.68 763.38,-458 730.83,-442.29 692.77,-424.37 670.44,-413.91"/>
<polygon fill="#9a32cd" stroke="#9a32cd" points="933.71,-545.62 944.22,-546.95 936.83,-539.35 933.71,-545.62"/>
</a>
</g>
<text text-anchor="middle" x="924.75" y="-490.5" font-family="Helvetica,sans-Serif" font-size="10.00" fill="grey"> m_Root</text>
</g>
<!-- Node10&#45;&gt;Node11 -->
<g id="edge21_Node000011_Node000010" class="edge">
<title>Node10&#45;&gt;Node11</title>
<g id="a_edge21_Node000011_Node000010"><a xlink:title=" ">
<path fill="none" stroke="#9a32cd" stroke-dasharray="5,2" d="M966.54,-536.21C972.11,-478.09 984.24,-315.76 950.38,-278 922.84,-247.3 803.55,-239.54 737.98,-237.61"/>
<polygon fill="#9a32cd" stroke="#9a32cd" points="963.07,-535.7 965.56,-546 970.04,-536.4 963.07,-535.7"/>
</a>
</g>
<text text-anchor="middle" x="990.75" y="-400.5" font-family="Helvetica,sans-Serif" font-size="10.00" fill="grey"> m_Root</text>
</g>
<!-- Node11&#45;&gt;Node5 -->
<g id="edge26_Node000005_Node000011" class="edge">
<title>Node11&#45;&gt;Node5</title>
<g id="a_edge26_Node000005_Node000011"><a xlink:title=" ">
<path fill="none" stroke="#9a32cd" stroke-dasharray="5,2" d="M674.7,-218.19C653.2,-199.82 619.54,-171.06 602.32,-156.35"/>
<polygon fill="#9a32cd" stroke="#9a32cd" points="672.32,-220.76 682.2,-224.6 676.87,-215.44 672.32,-220.76"/>
</a>
</g>
<text text-anchor="middle" x="676.88" y="-184.5" font-family="Helvetica,sans-Serif" font-size="10.00" fill="grey"> m_Subgroups</text>
</g>
<!-- Node11&#45;&gt;Node7 -->
<g id="edge15_Node000007_Node000011" class="edge">
<title>Node11&#45;&gt;Node7</title>
<g id="a_edge15_Node000007_Node000011"><a xlink:title=" ">
<path fill="none" stroke="#9a32cd" stroke-dasharray="5,2" d="M692.2,-257.56C689.45,-280.47 683.87,-318.44 674.38,-350 669.58,-365.94 661.33,-383.5 656.13,-393.87"/>
<polygon fill="#9a32cd" stroke="#9a32cd" points="695.67,-258.08 693.31,-247.75 688.71,-257.3 695.67,-258.08"/>
</a>
</g>
<text text-anchor="middle" x="719.88" y="-310.5" font-family="Helvetica,sans-Serif" font-size="10.00" fill="grey"> m_Subgroups</text>
</g>
<!-- Node11&#45;&gt;Node11 -->
<g id="edge22_Node000011_Node000011" class="edge">
<title>Node11&#45;&gt;Node11</title>
<g id="a_edge22_Node000011_Node000011"><a xlink:title=" ">
<path fill="none" stroke="#9a32cd" stroke-dasharray="5,2" d="M749,-242.72C753.11,-241.22 755.62,-238.98 755.62,-236 755.62,-230.84 748.09,-227.9 737.87,-227.18"/>
<polygon fill="#9a32cd" stroke="#9a32cd" points="748.53,-239.25 739.35,-244.54 749.83,-246.13 748.53,-239.25"/>
</a>
</g>
<text text-anchor="middle" x="787.12" y="-232.5" font-family="Helvetica,sans-Serif" font-size="10.00" fill="grey"> m_Subgroups</text>
</g>
<!-- Node12 -->
<g id="Node000012" class="node">
<title>Node12</title>
<g id="a_Node000012"><a xlink:href="../../d9/d09/classbool.html" target="_top" xlink:title=" ">
<polygon fill="white" stroke="#666666" points="703.38,-156 669.38,-156 669.38,-136 703.38,-136 703.38,-156"/>
<text text-anchor="middle" x="686.38" y="-142.5" font-family="Helvetica,sans-Serif" font-size="10.00">bool</text>
</a>
</g>
</g>
<!-- Node12&#45;&gt;Node1 -->
<g id="edge28_Node000001_Node000012" class="edge">
<title>Node12&#45;&gt;Node1</title>
<g id="a_edge28_Node000001_Node000012"><a xlink:title=" ">
<path fill="none" stroke="#9a32cd" stroke-dasharray="5,2" d="M684.6,-124.26C681.85,-96.81 675.64,-50.43 664.38,-38 652.05,-24.41 633.04,-17.59 615.92,-14.2"/>
<polygon fill="#9a32cd" stroke="#9a32cd" points="681.11,-124.53 685.52,-134.16 688.08,-123.88 681.11,-124.53"/>
</a>
</g>
<text text-anchor="middle" x="745.75" y="-100.5" font-family="Helvetica,sans-Serif" font-size="10.00" fill="grey"> m_bOnePlayingSAADEnded</text>
<text text-anchor="middle" x="745.75" y="-88.5" font-family="Helvetica,sans-Serif" font-size="10.00" fill="grey">m_bOnePlayingSAEnded</text>
<text text-anchor="middle" x="745.75" y="-76.5" font-family="Helvetica,sans-Serif" font-size="10.00" fill="grey">m_bOnePlayingTestSuccess</text>
<text text-anchor="middle" x="745.75" y="-64.5" font-family="Helvetica,sans-Serif" font-size="10.00" fill="grey">m_bStopEnded</text>
<text text-anchor="middle" x="745.75" y="-52.5" font-family="Helvetica,sans-Serif" font-size="10.00" fill="grey">m_bStopWasResumed</text>
<text text-anchor="middle" x="745.75" y="-40.5" font-family="Helvetica,sans-Serif" font-size="10.00" fill="grey">m_bStopWasStopped</text>
</g>
<!-- Node13 -->
<g id="Node000013" class="node">
<title>Node13</title>
<g id="a_Node000013"><a xlink:href="../../d4/d03/classfloat.html" target="_top" xlink:title=" ">
<polygon fill="white" stroke="#666666" points="853.38,-156 819.38,-156 819.38,-136 853.38,-136 853.38,-156"/>
<text text-anchor="middle" x="836.38" y="-142.5" font-family="Helvetica,sans-Serif" font-size="10.00">float</text>
</a>
</g>
</g>
<!-- Node13&#45;&gt;Node1 -->
<g id="edge29_Node000001_Node000013" class="edge">
<title>Node13&#45;&gt;Node1</title>
<g id="a_edge29_Node000001_Node000013"><a xlink:title=" ">
<path fill="none" stroke="#9a32cd" stroke-dasharray="5,2" d="M838.43,-124.37C839.6,-99.91 837.35,-59.74 813.38,-38 785.27,-12.52 675.65,-9.72 616.21,-10.16"/>
<polygon fill="#9a32cd" stroke="#9a32cd" points="834.96,-123.8 837.71,-134.03 841.94,-124.32 834.96,-123.8"/>
</a>
</g>
<text text-anchor="start" x="838.38" y="-94.5" font-family="Helvetica,sans-Serif" font-size="10.00" fill="grey"> STOP_ACCUMULATED_TIME</text>
<text text-anchor="middle" x="905.88" y="-82.5" font-family="Helvetica,sans-Serif" font-size="10.00" fill="grey">_PLAY_CUTOFF</text>
<text text-anchor="start" x="838.38" y="-70.5" font-family="Helvetica,sans-Serif" font-size="10.00" fill="grey">STOP_ACCUMULATED_TIME</text>
<text text-anchor="middle" x="905.88" y="-58.5" font-family="Helvetica,sans-Serif" font-size="10.00" fill="grey">_STOP_CUTOFF</text>
<text text-anchor="middle" x="905.88" y="-46.5" font-family="Helvetica,sans-Serif" font-size="10.00" fill="grey">m_StopAccumulatedTime</text>
</g>
<!-- Node13&#45;&gt;Node13 -->
<g id="edge30_Node000013_Node000013" class="edge">
<title>Node13&#45;&gt;Node13</title>
<g id="a_edge30_Node000013_Node000013"><a xlink:title=" ">
<path fill="none" stroke="#9a32cd" stroke-dasharray="5,2" d="M865.05,-152.95C868.85,-151.77 871.38,-149.45 871.38,-146 871.38,-139.68 862.93,-137.17 853.66,-138.45"/>
<polygon fill="#9a32cd" stroke="#9a32cd" points="864.98,-149.45 855.17,-153.47 865.34,-156.44 864.98,-149.45"/>
</a>
</g>
<text text-anchor="middle" x="893.5" y="-154.5" font-family="Helvetica,sans-Serif" font-size="10.00" fill="grey"> LOWEST</text>
<text text-anchor="middle" x="893.5" y="-142.5" font-family="Helvetica,sans-Serif" font-size="10.00" fill="grey">MAX</text>
<text text-anchor="middle" x="893.5" y="-130.5" font-family="Helvetica,sans-Serif" font-size="10.00" fill="grey">MIN</text>
</g>
</g>
</svg>

<g id="navigator" transform="translate(0 0)" fill="#404254">
  <rect fill="#f2f5e9" fill-opacity="0.5" stroke="#606060" stroke-width=".5" x="0" y="0" width="60" height="60"/>
  <use id="zoomplus" xlink:href="#zoomPlus" x="17" y="9" onmousedown="handleZoom(evt,'in')"/>
  <use id="zoomminus" xlink:href="#zoomMin" x="42" y="9" onmousedown="handleZoom(evt,'out')"/>
  <use id="reset" xlink:href="#resetDef" x="30" y="36" onmousedown="handleReset()"/>
   <use id="arrowup" xlink:href="#arrowUp" x="0" y="0" onmousedown="handlePan(0,-1)"/>
  <use id="arrowright" xlink:href="#arrowRight" x="0" y="0" onmousedown="handlePan(1,0)"/>
  <use id="arrowdown" xlink:href="#arrowDown" x="0" y="0" onmousedown="handlePan(0,1)"/>
  <use id="arrowleft" xlink:href="#arrowLeft" x="0" y="0" onmousedown="handlePan(-1,0)"/>
</g>
<svg viewBox="0 0 15 15" width="100%" height="30px" preserveAspectRatio="xMaxYMin meet">
 <g id="arrow_out" transform="scale(0.3 0.3)">
  <a xlink:href="class_p_m_t_playback__coll__graph_org.svg" target="_base">
   <rect id="button" ry="5" rx="5" y="6" x="6" height="38" width="38"
        fill="#f2f5e9" fill-opacity="0.5" stroke="#606060" stroke-width="1.0"/>
   <path id="arrow"
     d="M 11.500037,31.436501 C 11.940474,20.09759 22.043105,11.32322 32.158766,21.979434 L 37.068811,17.246167 C 37.068811,17.246167 37.088388,32 37.088388,32 L 22.160133,31.978069 C 22.160133,31.978069 26.997745,27.140456 26.997745,27.140456 C 18.528582,18.264221 13.291696,25.230495 11.500037,31.436501 z"
     style="fill:#404040;"/>
  </a>
 </g>
</svg>

<style type='text/css'>
<![CDATA[
[data-mouse-over-selected='false'] { opacity: 0.7; }
[data-mouse-over-selected='true']  { opacity: 1.0; }
]]>
</style>
<script type="application/ecmascript"><![CDATA[
document.addEventListener('DOMContentLoaded', (event) => {
  highlightEdges();
  highlightAdjacentNodes();
});
]]></script>
</svg>
