<?xml version="1.0" encoding="UTF-8" standalone="no"?>
<!DOCTYPE svg PUBLIC "-//W3C//DTD SVG 1.1//EN"
 "http://www.w3.org/Graphics/SVG/1.1/DTD/svg11.dtd">
<!-- Generated by graphviz version 11.0.0 (20240428.1522)
 -->
<!-- Title: PPERequestParamDataBase Pages: 1 -->
<!--zoomable 506 -->

<svg id="main" version="1.1" xmlns="http://www.w3.org/2000/svg" xmlns:xlink="http://www.w3.org/1999/xlink" xml:space="preserve" onload="init(evt)">
<style type="text/css"><![CDATA[
.node, .edge {opacity: 0.7;}
.node.selected, .edge.selected {opacity: 1;}
.edge:hover path { stroke: red; }
.edge:hover polygon { stroke: red; fill: red; }
]]></style>

<defs>
  <circle id="rim" cx="0" cy="0" r="7"/>
  <circle id="rim2" cx="0" cy="0" r="3.5"/>
  <g id="zoomPlus">
    <use xlink:href="#rim" fill="#404040"><set attributeName="fill" to="#808080" begin="zoomplus.mouseover" end="zoomplus.mouseout"/></use>
    <path d="M-4,0h8M0,-4v8" fill="none" stroke="white" stroke-width="1.5" pointer-events="none"/>
  </g>
  <g id="zoomMin">
    <use xlink:href="#rim" fill="#404040"><set attributeName="fill" to="#808080" begin="zoomminus.mouseover" end="zoomminus.mouseout"/></use>
    <path d="M-4,0h8" fill="none" stroke="white" stroke-width="1.5" pointer-events="none"/>
  </g>
  <g id="arrowUp" transform="translate(30 24)">
    <use xlink:href="#rim"/>
    <path pointer-events="none" fill="none" stroke="white" stroke-width="1.5" d="M0,-3.0v7 M-2.5,-0.5L0,-3.0L2.5,-0.5"/>
  </g>
  <g id="arrowRight" transform="rotate(90) translate(36 -43)">
    <use xlink:href="#rim"/>
    <path pointer-events="none" fill="none" stroke="white" stroke-width="1.5" d="M0,-3.0v7 M-2.5,-0.5L0,-3.0L2.5,-0.5"/>
  </g>
  <g id="arrowDown" transform="rotate(180) translate(-30 -48)">
    <use xlink:href="#rim"/>
    <path pointer-events="none" fill="none" stroke="white" stroke-width="1.5" d="M0,-3.0v7 M-2.5,-0.5L0,-3.0L2.5,-0.5"/>
  </g>
  <g id="arrowLeft" transform="rotate(270) translate(-36 17)">
    <use xlink:href="#rim"/>
    <path pointer-events="none" fill="none" stroke="white" stroke-width="1.5" d="M0,-3.0v7 M-2.5,-0.5L0,-3.0L2.5,-0.5"/>
  </g>
  <g id="resetDef">
    <use xlink:href="#rim2" fill="#404040"><set attributeName="fill" to="#808080" begin="reset.mouseover" end="reset.mouseout"/></use>
  </g>
</defs>
<script type="application/ecmascript">
var viewWidth = 1292;
var viewHeight = 506;
var sectionId = 'dynsection-0';
</script>
<script type="application/ecmascript" xlink:href="../../svg.min.js"/>
<svg id="graph" class="graph">
<g id="viewport">
<title>PPERequestParamDataBase</title>
<!-- Node1 -->
<g id="Node000001" class="node">
<title>Node1</title>
<g id="a_Node000001"><a xlink:title="Data for one material parameter, requester side.">
<polygon fill="#999999" stroke="#666666" points="277.25,-20 133.75,-20 133.75,0 277.25,0 277.25,-20"/>
<text text-anchor="middle" x="205.5" y="-6.5" font-family="Helvetica,sans-Serif" font-size="10.00">PPERequestParamDataBase</text>
</a>
</g>
</g>
<!-- Node2 -->
<g id="Node000002" class="node">
<title>Node2</title>
<g id="a_Node000002"><a xlink:href="../../d0/d06/class_p_p_e_requester_base.html" target="_top" xlink:title=" ">
<polygon fill="white" stroke="#666666" points="103,-144 0,-144 0,-124 103,-124 103,-144"/>
<text text-anchor="middle" x="51.5" y="-130.5" font-family="Helvetica,sans-Serif" font-size="10.00">PPERequesterBase</text>
</a>
</g>
</g>
<!-- Node2&#45;&gt;Node1 -->
<g id="edge1_Node000001_Node000002" class="edge">
<title>Node2&#45;&gt;Node1</title>
<g id="a_edge1_Node000001_Node000002"><a xlink:title=" ">
<path fill="none" stroke="#9a32cd" stroke-dasharray="5,2" d="M48.08,-112.32C45.79,-90.84 46.04,-57.69 64.75,-38 74.61,-27.63 104.01,-21.13 133.41,-17.11"/>
<polygon fill="#9a32cd" stroke="#9a32cd" points="44.6,-112.76 49.43,-122.19 51.54,-111.81 44.6,-112.76"/>
</a>
</g>
<text text-anchor="middle" x="95.88" y="-64.5" font-family="Helvetica,sans-Serif" font-size="10.00" fill="grey"> m_Requester</text>
</g>
<!-- Node3 -->
<g id="Node000003" class="node">
<title>Node3</title>
<g id="a_Node000003"><a xlink:href="../../d9/d09/classbool.html" target="_top" xlink:title=" ">
<polygon fill="white" stroke="#666666" points="133.5,-342 99.5,-342 99.5,-322 133.5,-322 133.5,-342"/>
<text text-anchor="middle" x="116.5" y="-328.5" font-family="Helvetica,sans-Serif" font-size="10.00">bool</text>
</a>
</g>
</g>
<!-- Node3&#45;&gt;Node1 -->
<g id="edge4_Node000001_Node000003" class="edge">
<title>Node3&#45;&gt;Node1</title>
<g id="a_edge4_Node000001_Node000003"><a xlink:title=" ">
<path fill="none" stroke="#9a32cd" stroke-dasharray="5,2" d="M119.99,-310.44C129.1,-256.9 152.87,-117.16 153.25,-116 165.38,-78.84 188.71,-38.36 199.61,-20.44"/>
<polygon fill="#9a32cd" stroke="#9a32cd" points="116.59,-309.61 118.36,-320.05 123.49,-310.78 116.59,-309.61"/>
</a>
</g>
<text text-anchor="middle" x="205.62" y="-142.5" font-family="Helvetica,sans-Serif" font-size="10.00" fill="grey"> m_IsActive</text>
<text text-anchor="middle" x="205.62" y="-130.5" font-family="Helvetica,sans-Serif" font-size="10.00" fill="grey">m_SettingDefaultValues</text>
<text text-anchor="middle" x="205.62" y="-118.5" font-family="Helvetica,sans-Serif" font-size="10.00" fill="grey">m_UpdatingDataValues</text>
</g>
<!-- Node3&#45;&gt;Node2 -->
<g id="edge2_Node000002_Node000003" class="edge">
<title>Node3&#45;&gt;Node2</title>
<g id="a_edge2_Node000002_Node000003"><a xlink:title=" ">
<path fill="none" stroke="#9a32cd" stroke-dasharray="5,2" d="M93.12,-314.91C81.56,-305.58 68.64,-292.76 61.75,-278 40.17,-231.76 46.58,-167.88 49.99,-144.26"/>
<polygon fill="#9a32cd" stroke="#9a32cd" points="90.67,-317.45 100.75,-320.7 94.9,-311.87 90.67,-317.45"/>
</a>
</g>
<text text-anchor="middle" x="94.38" y="-232.5" font-family="Helvetica,sans-Serif" font-size="10.00" fill="grey"> m_IsRunning</text>
<text text-anchor="middle" x="94.38" y="-220.5" font-family="Helvetica,sans-Serif" font-size="10.00" fill="grey">m_Valid</text>
<text text-anchor="middle" x="94.38" y="-208.5" font-family="Helvetica,sans-Serif" font-size="10.00" fill="grey">m_ValuesSent</text>
</g>
<!-- Node4 -->
<g id="Node000004" class="node">
<title>Node4</title>
<g id="a_Node000004"><a xlink:href="../../db/d06/class_param3.html" target="_top" xlink:title=" ">
<polygon fill="white" stroke="#666666" points="368.38,-496 318.62,-496 318.62,-476 368.38,-476 368.38,-496"/>
<text text-anchor="middle" x="343.5" y="-482.5" font-family="Helvetica,sans-Serif" font-size="10.00">Param3</text>
</a>
</g>
</g>
<!-- Node4&#45;&gt;Node1 -->
<g id="edge5_Node000001_Node000004" class="edge">
<title>Node4&#45;&gt;Node1</title>
<g id="a_edge5_Node000001_Node000004"><a xlink:title=" ">
<path fill="none" stroke="#9a32cd" stroke-dasharray="5,2" d="M340.41,-464.38C331.55,-407.6 303.65,-244.67 257.5,-116 244.24,-79.05 221.42,-38.13 210.99,-20.23"/>
<polygon fill="#9a32cd" stroke="#9a32cd" points="336.93,-464.79 341.91,-474.15 343.85,-463.74 336.93,-464.79"/>
</a>
</g>
<text text-anchor="middle" x="345.75" y="-268.5" font-family="Helvetica,sans-Serif" font-size="10.00" fill="grey"> m_IntCurrent</text>
<text text-anchor="middle" x="345.75" y="-256.5" font-family="Helvetica,sans-Serif" font-size="10.00" fill="grey">m_IntLast</text>
<text text-anchor="middle" x="345.75" y="-244.5" font-family="Helvetica,sans-Serif" font-size="10.00" fill="grey">m_IntTarget</text>
<text text-anchor="middle" x="345.75" y="-232.5" font-family="Helvetica,sans-Serif" font-size="10.00" fill="grey">m_InteractionMask</text>
<text text-anchor="middle" x="345.75" y="-220.5" font-family="Helvetica,sans-Serif" font-size="10.00" fill="grey">m_MaterialID</text>
<text text-anchor="middle" x="345.75" y="-208.5" font-family="Helvetica,sans-Serif" font-size="10.00" fill="grey">m_ParameterID</text>
<text text-anchor="middle" x="345.75" y="-196.5" font-family="Helvetica,sans-Serif" font-size="10.00" fill="grey">m_Priority</text>
<text text-anchor="middle" x="345.75" y="-184.5" font-family="Helvetica,sans-Serif" font-size="10.00" fill="grey">m_RequesterIDX</text>
<text text-anchor="middle" x="345.75" y="-172.5" font-family="Helvetica,sans-Serif" font-size="10.00" fill="grey">m_VariableType</text>
</g>
<!-- Node4&#45;&gt;Node2 -->
<g id="edge3_Node000002_Node000004" class="edge">
<title>Node4&#45;&gt;Node2</title>
<g id="a_edge3_Node000002_Node000004"><a xlink:title=" ">
<path fill="none" stroke="#9a32cd" stroke-dasharray="5,2" d="M307.08,-481.27C245.54,-472.9 121.65,-446.69 59.75,-368 5.19,-298.65 37.57,-178.45 48.39,-144.29"/>
<polygon fill="#9a32cd" stroke="#9a32cd" points="306.3,-484.7 316.66,-482.49 307.18,-477.76 306.3,-484.7"/>
</a>
</g>
<text text-anchor="middle" x="75.88" y="-328.5" font-family="Helvetica,sans-Serif" font-size="10.00" fill="grey"> m_IDX</text>
</g>
<!-- Node5 -->
<g id="Node000005" class="node">
<title>Node5</title>
<g id="a_Node000005"><a xlink:href="../../d2/d01/classarray.html" target="_top" xlink:title=" ">
<polygon fill="white" stroke="#666666" points="723.38,-144 649.62,-144 649.62,-124 723.38,-124 723.38,-144"/>
<text text-anchor="middle" x="686.5" y="-130.5" font-family="Helvetica,sans-Serif" font-size="10.00">array&lt; float &gt;</text>
</a>
</g>
</g>
<!-- Node4&#45;&gt;Node5 -->
<g id="edge8_Node000005_Node000004" class="edge">
<title>Node4&#45;&gt;Node5</title>
<g id="a_edge8_Node000005_Node000004"><a xlink:title=" ">
<path fill="none" stroke="#9a32cd" stroke-dasharray="5,2" d="M343.46,-464.19C344.24,-427.81 349.74,-351.25 380.25,-296 419.81,-224.37 441.81,-207.59 514.5,-170 557.4,-147.81 613.11,-139.68 649.33,-136.71"/>
<polygon fill="#9a32cd" stroke="#9a32cd" points="339.96,-464.12 343.36,-474.15 346.96,-464.19 339.96,-464.12"/>
</a>
</g>
<text text-anchor="middle" x="438.62" y="-358.5" font-family="Helvetica,sans-Serif" font-size="10.00" fill="grey"> NO_SORTING</text>
<text text-anchor="middle" x="438.62" y="-346.5" font-family="Helvetica,sans-Serif" font-size="10.00" fill="grey">geomLevel</text>
<text text-anchor="middle" x="438.62" y="-334.5" font-family="Helvetica,sans-Serif" font-size="10.00" fill="grey">hierLevel</text>
<text text-anchor="start" x="380.5" y="-322.5" font-family="Helvetica,sans-Serif" font-size="10.00" fill="grey">m_CurrentSettingAlternate</text>
<text text-anchor="middle" x="438.62" y="-310.5" font-family="Helvetica,sans-Serif" font-size="10.00" fill="grey">KeyIndex</text>
<text text-anchor="middle" x="438.62" y="-298.5" font-family="Helvetica,sans-Serif" font-size="10.00" fill="grey">m_CurrentSettingKeyIndex</text>
</g>
<!-- Node7 -->
<g id="Node000007" class="node">
<title>Node7</title>
<g id="a_Node000007"><a xlink:href="../../d2/d01/classarray.html" target="_top" xlink:title="Result for an object found in CGame.IsBoxCollidingGeometryProxy.">
<polygon fill="white" stroke="#666666" points="989.38,-342 951.62,-342 951.62,-322 989.38,-322 989.38,-342"/>
<text text-anchor="middle" x="970.5" y="-328.5" font-family="Helvetica,sans-Serif" font-size="10.00">array</text>
</a>
</g>
</g>
<!-- Node4&#45;&gt;Node7 -->
<g id="edge11_Node000007_Node000004" class="edge">
<title>Node4&#45;&gt;Node7</title>
<g id="a_edge11_Node000007_Node000004"><a xlink:title=" ">
<path fill="none" stroke="#9a32cd" stroke-dasharray="5,2" d="M380.09,-484.38C441.29,-482.82 561.38,-477.31 598.5,-458 636.16,-438.41 623.21,-404.83 661.25,-386 716.39,-358.72 881.84,-394.2 937.5,-368 949.29,-362.45 958.96,-350.67 964.72,-342.31"/>
<polygon fill="#9a32cd" stroke="#9a32cd" points="380.11,-480.88 370.19,-484.61 380.27,-487.88 380.11,-480.88"/>
</a>
</g>
<text text-anchor="middle" x="718.62" y="-448.5" font-family="Helvetica,sans-Serif" font-size="10.00" fill="grey"> NO_SORTING</text>
<text text-anchor="middle" x="718.62" y="-436.5" font-family="Helvetica,sans-Serif" font-size="10.00" fill="grey">geomLevel</text>
<text text-anchor="middle" x="718.62" y="-424.5" font-family="Helvetica,sans-Serif" font-size="10.00" fill="grey">hierLevel</text>
<text text-anchor="start" x="660.5" y="-412.5" font-family="Helvetica,sans-Serif" font-size="10.00" fill="grey">m_CurrentSettingAlternate</text>
<text text-anchor="middle" x="718.62" y="-400.5" font-family="Helvetica,sans-Serif" font-size="10.00" fill="grey">KeyIndex</text>
<text text-anchor="middle" x="718.62" y="-388.5" font-family="Helvetica,sans-Serif" font-size="10.00" fill="grey">m_CurrentSettingKeyIndex</text>
</g>
<!-- Node11 -->
<g id="Node000011" class="node">
<title>Node11</title>
<g id="a_Node000011"><a xlink:href="../../d2/d01/classarray.html" target="_top" xlink:title=" ">
<polygon fill="white" stroke="#666666" points="1102.75,-144 1016.25,-144 1016.25,-124 1102.75,-124 1102.75,-144"/>
<text text-anchor="middle" x="1059.5" y="-130.5" font-family="Helvetica,sans-Serif" font-size="10.00">array&lt; Widget &gt;</text>
</a>
</g>
</g>
<!-- Node4&#45;&gt;Node11 -->
<g id="edge19_Node000011_Node000004" class="edge">
<title>Node4&#45;&gt;Node11</title>
<g id="a_edge19_Node000011_Node000004"><a xlink:title=" ">
<path fill="none" stroke="#9a32cd" stroke-dasharray="5,2" d="M379.52,-475.26C428.12,-460.28 514.17,-426.94 562.5,-368 583.69,-342.15 565.36,-323.58 584.25,-296 635.64,-220.96 661.28,-204.34 745.5,-170 793.43,-150.46 941.38,-140.7 1015.8,-136.93"/>
<polygon fill="#9a32cd" stroke="#9a32cd" points="378.63,-471.88 370.04,-478.08 380.62,-478.59 378.63,-471.88"/>
</a>
</g>
<text text-anchor="middle" x="641.62" y="-358.5" font-family="Helvetica,sans-Serif" font-size="10.00" fill="grey"> NO_SORTING</text>
<text text-anchor="middle" x="641.62" y="-346.5" font-family="Helvetica,sans-Serif" font-size="10.00" fill="grey">geomLevel</text>
<text text-anchor="middle" x="641.62" y="-334.5" font-family="Helvetica,sans-Serif" font-size="10.00" fill="grey">hierLevel</text>
<text text-anchor="start" x="583.5" y="-322.5" font-family="Helvetica,sans-Serif" font-size="10.00" fill="grey">m_CurrentSettingAlternate</text>
<text text-anchor="middle" x="641.62" y="-310.5" font-family="Helvetica,sans-Serif" font-size="10.00" fill="grey">KeyIndex</text>
<text text-anchor="middle" x="641.62" y="-298.5" font-family="Helvetica,sans-Serif" font-size="10.00" fill="grey">m_CurrentSettingKeyIndex</text>
</g>
<!-- Node5&#45;&gt;Node1 -->
<g id="edge6_Node000001_Node000005" class="edge">
<title>Node5&#45;&gt;Node1</title>
<g id="a_edge6_Node000001_Node000005"><a xlink:title=" ">
<path fill="none" stroke="#9a32cd" stroke-dasharray="5,2" d="M638.03,-120.71C541.91,-96.33 329.02,-42.33 242.82,-20.47"/>
<polygon fill="#9a32cd" stroke="#9a32cd" points="637.14,-124.09 647.69,-123.16 638.86,-117.31 637.14,-124.09"/>
</a>
</g>
<text text-anchor="middle" x="590.38" y="-88.5" font-family="Helvetica,sans-Serif" font-size="10.00" fill="grey"> m_ColorCurrent</text>
<text text-anchor="middle" x="590.38" y="-76.5" font-family="Helvetica,sans-Serif" font-size="10.00" fill="grey">m_ColorFormerTarget</text>
<text text-anchor="middle" x="590.38" y="-64.5" font-family="Helvetica,sans-Serif" font-size="10.00" fill="grey">m_ColorLast</text>
<text text-anchor="middle" x="590.38" y="-52.5" font-family="Helvetica,sans-Serif" font-size="10.00" fill="grey">m_ColorStart</text>
<text text-anchor="middle" x="590.38" y="-40.5" font-family="Helvetica,sans-Serif" font-size="10.00" fill="grey">m_ColorTarget</text>
</g>
<!-- Node6 -->
<g id="Node000006" class="node">
<title>Node6</title>
<g id="a_Node000006"><a xlink:href="../../d8/d03/class_object.html" target="_top" xlink:title=" ">
<polygon fill="white" stroke="#666666" points="1266.75,-496 1222.25,-496 1222.25,-476 1266.75,-476 1266.75,-496"/>
<text text-anchor="middle" x="1244.5" y="-482.5" font-family="Helvetica,sans-Serif" font-size="10.00">Object</text>
</a>
</g>
</g>
<!-- Node6&#45;&gt;Node5 -->
<g id="edge7_Node000005_Node000006" class="edge">
<title>Node6&#45;&gt;Node5</title>
<g id="a_edge7_Node000005_Node000006"><a xlink:title=" ">
<path fill="none" stroke="#9a32cd" stroke-dasharray="5,2" d="M1247.54,-464.47C1249.59,-442.43 1249.13,-407.68 1230.5,-386 1212.35,-364.88 1191.81,-385.92 1170.5,-368 1143.12,-344.97 1163.83,-316.49 1134.5,-296 1076.21,-255.26 1029.2,-324.62 975.5,-278 938.05,-245.49 984.61,-202.89 947.5,-170 915.08,-141.27 787.64,-135.89 723.62,-135.04"/>
<polygon fill="#9a32cd" stroke="#9a32cd" points="1244.08,-463.93 1246.35,-474.28 1251.03,-464.77 1244.08,-463.93"/>
</a>
</g>
<text text-anchor="middle" x="1184" y="-334.5" font-family="Helvetica,sans-Serif" font-size="10.00" fill="grey"> obj</text>
<text text-anchor="middle" x="1184" y="-322.5" font-family="Helvetica,sans-Serif" font-size="10.00" fill="grey">parent</text>
</g>
<!-- Node6&#45;&gt;Node7 -->
<g id="edge10_Node000007_Node000006" class="edge">
<title>Node6&#45;&gt;Node7</title>
<g id="a_edge10_Node000007_Node000006"><a xlink:title=" ">
<path fill="none" stroke="#9a32cd" stroke-dasharray="5,2" d="M1219.47,-469.6C1214.06,-465.98 1208.48,-462 1203.5,-458 1167.73,-429.25 1169.35,-408.76 1129.5,-386 1103.1,-370.92 1092.43,-377.36 1063.5,-368 1037.57,-359.6 1008.22,-348.24 989.55,-340.77"/>
<polygon fill="#9a32cd" stroke="#9a32cd" points="1217.26,-472.34 1227.56,-474.84 1221.07,-466.47 1217.26,-472.34"/>
</a>
</g>
<text text-anchor="middle" x="1217" y="-424.5" font-family="Helvetica,sans-Serif" font-size="10.00" fill="grey"> obj</text>
<text text-anchor="middle" x="1217" y="-412.5" font-family="Helvetica,sans-Serif" font-size="10.00" fill="grey">parent</text>
</g>
<!-- Node6&#45;&gt;Node11 -->
<g id="edge18_Node000011_Node000006" class="edge">
<title>Node6&#45;&gt;Node11</title>
<g id="a_edge18_Node000011_Node000006"><a xlink:title=" ">
<path fill="none" stroke="#9a32cd" stroke-dasharray="5,2" d="M1255.87,-465.73C1256.95,-463.2 1257.87,-460.58 1258.5,-458 1266.08,-426.91 1260.97,-417.9 1258.5,-386 1250.73,-285.52 1265.85,-235.78 1189.5,-170 1165.59,-149.41 1130.75,-140.8 1103.15,-137.26"/>
<polygon fill="#9a32cd" stroke="#9a32cd" points="1252.77,-464.11 1251.29,-474.6 1258.98,-467.32 1252.77,-464.11"/>
</a>
</g>
<text text-anchor="middle" x="1270" y="-334.5" font-family="Helvetica,sans-Serif" font-size="10.00" fill="grey"> obj</text>
<text text-anchor="middle" x="1270" y="-322.5" font-family="Helvetica,sans-Serif" font-size="10.00" fill="grey">parent</text>
</g>
<!-- Node7&#45;&gt;Node5 -->
<g id="edge9_Node000005_Node000007" class="edge">
<title>Node7&#45;&gt;Node5</title>
<g id="a_edge9_Node000005_Node000007"><a xlink:title=" ">
<path fill="none" stroke="#9a32cd" stroke-dasharray="5,2" d="M955.53,-313.06C950.18,-307.24 943.89,-301 937.5,-296 924.65,-285.95 915.17,-291.15 905.5,-278 876.42,-238.46 917.77,-204.12 882.5,-170 860.39,-148.61 774.27,-140.04 723.84,-136.81"/>
<polygon fill="#9a32cd" stroke="#9a32cd" points="952.82,-315.28 962.04,-320.49 958.08,-310.67 952.82,-315.28"/>
</a>
</g>
<text text-anchor="middle" x="926.5" y="-220.5" font-family="Helvetica,sans-Serif" font-size="10.00" fill="grey"> proxyInfo</text>
</g>
<!-- Node7&#45;&gt;Node7 -->
<g id="edge12_Node000007_Node000007" class="edge">
<title>Node7&#45;&gt;Node7</title>
<g id="a_edge12_Node000007_Node000007"><a xlink:title=" ">
<path fill="none" stroke="#9a32cd" stroke-dasharray="5,2" d="M988.33,-348.07C998.25,-351.07 1007.38,-345.71 1007.38,-332 1007.38,-313.72 991.15,-310.29 978.47,-321.72"/>
<polygon fill="#9a32cd" stroke="#9a32cd" points="990.17,-345.09 979.77,-343.05 986.63,-351.13 990.17,-345.09"/>
</a>
</g>
<text text-anchor="middle" x="1028.38" y="-328.5" font-family="Helvetica,sans-Serif" font-size="10.00" fill="grey"> proxyInfo</text>
</g>
<!-- Node7&#45;&gt;Node11 -->
<g id="edge20_Node000011_Node000007" class="edge">
<title>Node7&#45;&gt;Node11</title>
<g id="a_edge20_Node000011_Node000007"><a xlink:title=" ">
<path fill="none" stroke="#9a32cd" stroke-dasharray="5,2" d="M967.5,-310.3C963.89,-277.4 961.6,-212.55 991.5,-170 999.97,-157.94 1013.88,-149.76 1026.92,-144.36"/>
<polygon fill="#9a32cd" stroke="#9a32cd" points="964.01,-310.61 968.75,-320.08 970.96,-309.72 964.01,-310.61"/>
</a>
</g>
<text text-anchor="middle" x="1012.5" y="-220.5" font-family="Helvetica,sans-Serif" font-size="10.00" fill="grey"> proxyInfo</text>
</g>
<!-- Node8 -->
<g id="Node000008" class="node">
<title>Node8</title>
<g id="a_Node000008"><a xlink:href="../../d4/d04/class_class.html" target="_top" xlink:title="Super root of all classes in Enforce script.">
<polygon fill="white" stroke="#666666" points="651.88,-496 611.12,-496 611.12,-476 651.88,-476 651.88,-496"/>
<text text-anchor="middle" x="631.5" y="-482.5" font-family="Helvetica,sans-Serif" font-size="10.00">Class</text>
</a>
</g>
</g>
<!-- Node8&#45;&gt;Node5 -->
<g id="edge25_Node000005_Node000008" class="edge">
<title>Node8&#45;&gt;Node5</title>
<g id="a_edge25_Node000005_Node000008"><a xlink:title=" ">
<path fill="none" stroke="#9a32cd" stroke-dasharray="5,2" d="M605.53,-469.49C575.82,-450.05 528.76,-413.68 509.25,-368 496.68,-338.57 496.3,-325.26 509.25,-296 542.57,-220.73 630.38,-165.58 668.46,-144.46"/>
<polygon fill="#9a32cd" stroke="#9a32cd" points="603.65,-472.44 613.97,-474.83 607.39,-466.52 603.65,-472.44"/>
</a>
</g>
<text text-anchor="middle" x="535.12" y="-328.5" font-family="Helvetica,sans-Serif" font-size="10.00" fill="grey"> m_Instance</text>
</g>
<!-- Node8&#45;&gt;Node7 -->
<g id="edge13_Node000007_Node000008" class="edge">
<title>Node8&#45;&gt;Node7</title>
<g id="a_edge13_Node000007_Node000008"><a xlink:title=" ">
<path fill="none" stroke="#9a32cd" stroke-dasharray="5,2" d="M663.34,-482.47C694.29,-479.28 742.23,-472.36 781.5,-458 819.09,-444.25 906.11,-392.82 937.5,-368 947.2,-360.33 956.71,-349.83 963.01,-342.34"/>
<polygon fill="#9a32cd" stroke="#9a32cd" points="663.1,-478.98 653.48,-483.41 663.77,-485.95 663.1,-478.98"/>
</a>
</g>
<text text-anchor="middle" x="936.12" y="-418.5" font-family="Helvetica,sans-Serif" font-size="10.00" fill="grey"> m_Instance</text>
</g>
<!-- Node8&#45;&gt;Node11 -->
<g id="edge21_Node000011_Node000008" class="edge">
<title>Node8&#45;&gt;Node11</title>
<g id="a_edge21_Node000011_Node000008"><a xlink:title=" ">
<path fill="none" stroke="#9a32cd" stroke-dasharray="5,2" d="M628.48,-464.49C626.45,-442.47 626.92,-407.72 645.5,-386 663.32,-365.17 683.99,-386.2 704.5,-368 730.66,-344.79 715.63,-324.25 736.25,-296 786.05,-227.79 802.75,-207.34 878.5,-170 922.14,-148.49 977.76,-140.19 1015.76,-136.99"/>
<polygon fill="#9a32cd" stroke="#9a32cd" points="624.99,-464.78 629.66,-474.29 631.94,-463.94 624.99,-464.78"/>
</a>
</g>
<text text-anchor="middle" x="762.12" y="-328.5" font-family="Helvetica,sans-Serif" font-size="10.00" fill="grey"> m_Instance</text>
</g>
<!-- Node9 -->
<g id="Node000009" class="node">
<title>Node9</title>
<g id="a_Node000009"><a xlink:href="../../d5/d02/classstring.html" target="_top" xlink:title=" ">
<polygon fill="white" stroke="#666666" points="990.5,-496 950.5,-496 950.5,-476 990.5,-476 990.5,-496"/>
<text text-anchor="middle" x="970.5" y="-482.5" font-family="Helvetica,sans-Serif" font-size="10.00">string</text>
</a>
</g>
</g>
<!-- Node9&#45;&gt;Node5 -->
<g id="edge26_Node000005_Node000009" class="edge">
<title>Node9&#45;&gt;Node5</title>
<g id="a_edge26_Node000005_Node000009"><a xlink:title=" ">
<path fill="none" stroke="#9a32cd" stroke-dasharray="5,2" d="M938.91,-481.69C921.26,-478.33 899.97,-471.58 885.5,-458 860.47,-434.5 876.36,-414.69 857.5,-386 851.24,-376.48 846.41,-376.86 839.25,-368 815.43,-338.5 814.16,-327.79 793.5,-296 755.83,-238.03 709.5,-169.1 692.84,-144.39"/>
<polygon fill="#9a32cd" stroke="#9a32cd" points="938.23,-485.12 948.65,-483.24 939.33,-478.21 938.23,-485.12"/>
</a>
</g>
<text text-anchor="middle" x="856.12" y="-328.5" font-family="Helvetica,sans-Serif" font-size="10.00" fill="grey"> m_Test</text>
</g>
<!-- Node9&#45;&gt;Node7 -->
<g id="edge14_Node000007_Node000009" class="edge">
<title>Node9&#45;&gt;Node7</title>
<g id="a_edge14_Node000007_Node000009"><a xlink:title=" ">
<path fill="none" stroke="#9a32cd" stroke-dasharray="5,2" d="M970.5,-464.47C970.5,-431.04 970.5,-366.17 970.5,-342.2"/>
<polygon fill="#9a32cd" stroke="#9a32cd" points="967,-464.43 970.5,-474.43 974,-464.43 967,-464.43"/>
</a>
</g>
<text text-anchor="middle" x="988.12" y="-418.5" font-family="Helvetica,sans-Serif" font-size="10.00" fill="grey"> m_Test</text>
</g>
<!-- Node9&#45;&gt;Node9 -->
<g id="edge15_Node000009_Node000009" class="edge">
<title>Node9&#45;&gt;Node9</title>
<g id="a_edge15_Node000009_Node000009"><a xlink:title=" ">
<path fill="none" stroke="#9a32cd" stroke-dasharray="5,2" d="M996.27,-497.91C1003.22,-497.28 1008.5,-493.31 1008.5,-486 1008.5,-475.12 996.8,-471.64 985.32,-475.55"/>
<polygon fill="#9a32cd" stroke="#9a32cd" points="997.2,-494.5 986.82,-496.65 996.27,-501.44 997.2,-494.5"/>
</a>
</g>
<text text-anchor="middle" x="1024.25" y="-482.5" font-family="Helvetica,sans-Serif" font-size="10.00" fill="grey"> Empty</text>
</g>
<!-- Node9&#45;&gt;Node11 -->
<g id="edge22_Node000011_Node000009" class="edge">
<title>Node9&#45;&gt;Node11</title>
<g id="a_edge22_Node000011_Node000009"><a xlink:title=" ">
<path fill="none" stroke="#9a32cd" stroke-dasharray="5,2" d="M996.69,-469.37C1001.27,-465.97 1005.76,-462.13 1009.5,-458 1037.12,-427.49 1072.14,-326.97 1099.25,-296 1108.09,-285.9 1117.47,-289.99 1123.5,-278 1145.07,-235.12 1147.98,-211.29 1123.5,-170 1116.4,-158.02 1103.58,-149.87 1091.27,-144.47"/>
<polygon fill="#9a32cd" stroke="#9a32cd" points="994.92,-466.35 988.62,-474.87 998.86,-472.13 994.92,-466.35"/>
</a>
</g>
<text text-anchor="middle" x="1116.12" y="-328.5" font-family="Helvetica,sans-Serif" font-size="10.00" fill="grey"> m_Test</text>
</g>
<!-- Node10 -->
<g id="Node000010" class="node">
<title>Node10</title>
<g id="a_Node000010"><a xlink:href="../../dd/d0a/class_widget.html" target="_top" xlink:title=" ">
<polygon fill="white" stroke="#666666" points="1140.88,-496 1094.12,-496 1094.12,-476 1140.88,-476 1140.88,-496"/>
<text text-anchor="middle" x="1117.5" y="-482.5" font-family="Helvetica,sans-Serif" font-size="10.00">Widget</text>
</a>
</g>
</g>
<!-- Node10&#45;&gt;Node5 -->
<g id="edge27_Node000005_Node000010" class="edge">
<title>Node10&#45;&gt;Node5</title>
<g id="a_edge27_Node000005_Node000010"><a xlink:title=" ">
<path fill="none" stroke="#9a32cd" stroke-dasharray="5,2" d="M1082.45,-480.2C1040.91,-474.28 976.09,-464.24 966.5,-458 926.05,-431.67 928.96,-410.31 905.75,-368 888.98,-337.41 893.46,-325.28 874.5,-296 833.29,-232.36 820.36,-215.22 759.5,-170 745.06,-159.27 726.81,-150.52 712.17,-144.45"/>
<polygon fill="#9a32cd" stroke="#9a32cd" points="1081.85,-483.65 1092.24,-481.58 1082.82,-476.72 1081.85,-483.65"/>
</a>
</g>
<text text-anchor="middle" x="923.88" y="-328.5" font-family="Helvetica,sans-Serif" font-size="10.00" fill="grey"> m_Root</text>
</g>
<!-- Node10&#45;&gt;Node7 -->
<g id="edge16_Node000007_Node000010" class="edge">
<title>Node10&#45;&gt;Node7</title>
<g id="a_edge16_Node000007_Node000010"><a xlink:title=" ">
<path fill="none" stroke="#9a32cd" stroke-dasharray="5,2" d="M1100.96,-467.89C1069.8,-435.68 1003.4,-367.02 979.4,-342.2"/>
<polygon fill="#9a32cd" stroke="#9a32cd" points="1098.22,-470.1 1107.69,-474.86 1103.26,-465.24 1098.22,-470.1"/>
</a>
</g>
<text text-anchor="middle" x="1106.88" y="-418.5" font-family="Helvetica,sans-Serif" font-size="10.00" fill="grey"> m_Root</text>
</g>
<!-- Node10&#45;&gt;Node11 -->
<g id="edge23_Node000011_Node000010" class="edge">
<title>Node10&#45;&gt;Node11</title>
<g id="a_edge23_Node000011_Node000010"><a xlink:title=" ">
<path fill="none" stroke="#9a32cd" stroke-dasharray="5,2" d="M1152.59,-483.81C1171.5,-481.15 1193.39,-474.39 1205.5,-458 1224.52,-432.27 1208.65,-417.84 1205.5,-386 1195.75,-287.53 1218.43,-242.89 1151.5,-170 1138.9,-156.28 1120.35,-147.9 1103.21,-142.8"/>
<polygon fill="#9a32cd" stroke="#9a32cd" points="1152.4,-480.31 1142.82,-484.83 1153.13,-487.27 1152.4,-480.31"/>
</a>
</g>
<text text-anchor="middle" x="1221.88" y="-328.5" font-family="Helvetica,sans-Serif" font-size="10.00" fill="grey"> m_Root</text>
</g>
<!-- Node11&#45;&gt;Node7 -->
<g id="edge17_Node000007_Node000011" class="edge">
<title>Node11&#45;&gt;Node7</title>
<g id="a_edge17_Node000007_Node000011"><a xlink:title=" ">
<path fill="none" stroke="#9a32cd" stroke-dasharray="5,2" d="M1058.18,-155.6C1055.67,-190.05 1049.38,-257.6 1037.5,-278 1026.16,-297.48 1004.67,-312.52 989.07,-321.51"/>
<polygon fill="#9a32cd" stroke="#9a32cd" points="1061.67,-155.91 1058.86,-145.69 1054.68,-155.43 1061.67,-155.91"/>
</a>
</g>
<text text-anchor="middle" x="1088" y="-220.5" font-family="Helvetica,sans-Serif" font-size="10.00" fill="grey"> m_Subgroups</text>
</g>
<!-- Node11&#45;&gt;Node11 -->
<g id="edge24_Node000011_Node000011" class="edge">
<title>Node11&#45;&gt;Node11</title>
<g id="a_edge24_Node000011_Node000011"><a xlink:title=" ">
<path fill="none" stroke="#9a32cd" stroke-dasharray="5,2" d="M1093.13,-146.2C1107.97,-147.3 1120.75,-143.23 1120.75,-134 1120.75,-122.53 1101.01,-119.03 1082.12,-123.51"/>
<polygon fill="#9a32cd" stroke="#9a32cd" points="1094.03,-142.8 1083.61,-144.72 1092.95,-149.71 1094.03,-142.8"/>
</a>
</g>
<text text-anchor="middle" x="1152.25" y="-130.5" font-family="Helvetica,sans-Serif" font-size="10.00" fill="grey"> m_Subgroups</text>
</g>
</g>
</svg>

<g id="navigator" transform="translate(0 0)" fill="#404254">
  <rect fill="#f2f5e9" fill-opacity="0.5" stroke="#606060" stroke-width=".5" x="0" y="0" width="60" height="60"/>
  <use id="zoomplus" xlink:href="#zoomPlus" x="17" y="9" onmousedown="handleZoom(evt,'in')"/>
  <use id="zoomminus" xlink:href="#zoomMin" x="42" y="9" onmousedown="handleZoom(evt,'out')"/>
  <use id="reset" xlink:href="#resetDef" x="30" y="36" onmousedown="handleReset()"/>
   <use id="arrowup" xlink:href="#arrowUp" x="0" y="0" onmousedown="handlePan(0,-1)"/>
  <use id="arrowright" xlink:href="#arrowRight" x="0" y="0" onmousedown="handlePan(1,0)"/>
  <use id="arrowdown" xlink:href="#arrowDown" x="0" y="0" onmousedown="handlePan(0,1)"/>
  <use id="arrowleft" xlink:href="#arrowLeft" x="0" y="0" onmousedown="handlePan(-1,0)"/>
</g>
<svg viewBox="0 0 15 15" width="100%" height="30px" preserveAspectRatio="xMaxYMin meet">
 <g id="arrow_out" transform="scale(0.3 0.3)">
  <a xlink:href="class_p_p_e_request_param_data_base__coll__graph_org.svg" target="_base">
   <rect id="button" ry="5" rx="5" y="6" x="6" height="38" width="38"
        fill="#f2f5e9" fill-opacity="0.5" stroke="#606060" stroke-width="1.0"/>
   <path id="arrow"
     d="M 11.500037,31.436501 C 11.940474,20.09759 22.043105,11.32322 32.158766,21.979434 L 37.068811,17.246167 C 37.068811,17.246167 37.088388,32 37.088388,32 L 22.160133,31.978069 C 22.160133,31.978069 26.997745,27.140456 26.997745,27.140456 C 18.528582,18.264221 13.291696,25.230495 11.500037,31.436501 z"
     style="fill:#404040;"/>
  </a>
 </g>
</svg>

<style type='text/css'>
<![CDATA[
[data-mouse-over-selected='false'] { opacity: 0.7; }
[data-mouse-over-selected='true']  { opacity: 1.0; }
]]>
</style>
<script type="application/ecmascript"><![CDATA[
document.addEventListener('DOMContentLoaded', (event) => {
  highlightEdges();
  highlightAdjacentNodes();
});
]]></script>
</svg>
