<?xml version="1.0" encoding="UTF-8" standalone="no"?>
<!DOCTYPE svg PUBLIC "-//W3C//DTD SVG 1.1//EN"
 "http://www.w3.org/Graphics/SVG/1.1/DTD/svg11.dtd">
<!-- Generated by graphviz version 11.0.0 (20240428.1522)
 -->
<!-- Title: CowboyHat_ColorBase Pages: 1 -->
<svg width="465pt" height="196pt"
 viewBox="0.00 0.00 465.25 196.00" xmlns="http://www.w3.org/2000/svg" xmlns:xlink="http://www.w3.org/1999/xlink">
<g id="graph0" class="graph" transform="scale(1 1) rotate(0) translate(4 192)">
<title>CowboyHat_ColorBase</title>
<!-- Node1 -->
<g id="Node000001" class="node">
<title>Node1</title>
<g id="a_Node000001"><a xlink:title=" ">
<polygon fill="#999999" stroke="#666666" points="281.75,-76 166,-76 166,-56 281.75,-56 281.75,-76"/>
<text text-anchor="middle" x="223.88" y="-62.5" font-family="Helvetica,sans-Serif" font-size="10.00">CowboyHat_ColorBase</text>
</a>
</g>
</g>
<!-- Node4 -->
<g id="Node000004" class="node">
<title>Node4</title>
<g id="a_Node000004"><a xlink:href="../../db/d00/class_cowboy_hat___brown.html" target="_top" xlink:title=" ">
<polygon fill="white" stroke="#666666" points="97.75,-20 0,-20 0,0 97.75,0 97.75,-20"/>
<text text-anchor="middle" x="48.88" y="-6.5" font-family="Helvetica,sans-Serif" font-size="10.00">CowboyHat_Brown</text>
</a>
</g>
</g>
<!-- Node1&#45;&gt;Node4 -->
<g id="edge3_Node000001_Node000004" class="edge">
<title>Node1&#45;&gt;Node4</title>
<g id="a_edge3_Node000001_Node000004"><a xlink:title=" ">
<path fill="none" stroke="#8b1a1a" d="M182.73,-52.31C151.15,-42.56 108.23,-29.32 79.6,-20.48"/>
<polygon fill="#8b1a1a" stroke="#8b1a1a" points="181.36,-55.54 191.95,-55.15 183.42,-48.85 181.36,-55.54"/>
</a>
</g>
</g>
<!-- Node5 -->
<g id="Node000005" class="node">
<title>Node5</title>
<g id="a_Node000005"><a xlink:href="../../d2/d05/class_cowboy_hat__black.html" target="_top" xlink:title=" ">
<polygon fill="white" stroke="#666666" points="209.88,-20 115.88,-20 115.88,0 209.88,0 209.88,-20"/>
<text text-anchor="middle" x="162.88" y="-6.5" font-family="Helvetica,sans-Serif" font-size="10.00">CowboyHat_black</text>
</a>
</g>
</g>
<!-- Node1&#45;&gt;Node5 -->
<g id="edge4_Node000001_Node000005" class="edge">
<title>Node1&#45;&gt;Node5</title>
<g id="a_edge4_Node000001_Node000005"><a xlink:title=" ">
<path fill="none" stroke="#8b1a1a" d="M204.81,-48.13C194.44,-38.94 182,-27.93 173.38,-20.3"/>
<polygon fill="#8b1a1a" stroke="#8b1a1a" points="202.31,-50.58 212.12,-54.59 206.95,-45.34 202.31,-50.58"/>
</a>
</g>
</g>
<!-- Node6 -->
<g id="Node000006" class="node">
<title>Node6</title>
<g id="a_Node000006"><a xlink:href="../../d6/d02/class_cowboy_hat__dark_brown.html" target="_top" xlink:title=" ">
<polygon fill="white" stroke="#666666" points="344.12,-20 227.62,-20 227.62,0 344.12,0 344.12,-20"/>
<text text-anchor="middle" x="285.88" y="-6.5" font-family="Helvetica,sans-Serif" font-size="10.00">CowboyHat_darkBrown</text>
</a>
</g>
</g>
<!-- Node1&#45;&gt;Node6 -->
<g id="edge5_Node000001_Node000006" class="edge">
<title>Node1&#45;&gt;Node6</title>
<g id="a_edge5_Node000001_Node000006"><a xlink:title=" ">
<path fill="none" stroke="#8b1a1a" d="M243.25,-48.13C253.79,-38.94 266.43,-27.93 275.2,-20.3"/>
<polygon fill="#8b1a1a" stroke="#8b1a1a" points="241.06,-45.39 235.82,-54.6 245.66,-50.67 241.06,-45.39"/>
</a>
</g>
</g>
<!-- Node7 -->
<g id="Node000007" class="node">
<title>Node7</title>
<g id="a_Node000007"><a xlink:href="../../d5/d0c/class_cowboy_hat__green.html" target="_top" xlink:title=" ">
<polygon fill="white" stroke="#666666" points="457.25,-20 362.5,-20 362.5,0 457.25,0 457.25,-20"/>
<text text-anchor="middle" x="409.88" y="-6.5" font-family="Helvetica,sans-Serif" font-size="10.00">CowboyHat_green</text>
</a>
</g>
</g>
<!-- Node1&#45;&gt;Node7 -->
<g id="edge6_Node000001_Node000007" class="edge">
<title>Node1&#45;&gt;Node7</title>
<g id="a_edge6_Node000001_Node000007"><a xlink:title=" ">
<path fill="none" stroke="#8b1a1a" d="M267.16,-52.43C300.77,-42.67 346.65,-29.35 377.22,-20.48"/>
<polygon fill="#8b1a1a" stroke="#8b1a1a" points="266.35,-49.02 257.73,-55.17 268.31,-55.74 266.35,-49.02"/>
</a>
</g>
</g>
<!-- Node2 -->
<g id="Node000002" class="node">
<title>Node2</title>
<g id="a_Node000002"><a xlink:href="../../dc/d0d/class_head_gear___base.html" target="_top" xlink:title="hard helmet base">
<polygon fill="white" stroke="#666666" points="267.5,-132 180.25,-132 180.25,-112 267.5,-112 267.5,-132"/>
<text text-anchor="middle" x="223.88" y="-118.5" font-family="Helvetica,sans-Serif" font-size="10.00">HeadGear_Base</text>
</a>
</g>
</g>
<!-- Node2&#45;&gt;Node1 -->
<g id="edge1_Node000001_Node000002" class="edge">
<title>Node2&#45;&gt;Node1</title>
<g id="a_edge1_Node000001_Node000002"><a xlink:title=" ">
<path fill="none" stroke="#8b1a1a" d="M223.88,-100.13C223.88,-91.9 223.88,-82.85 223.88,-76.3"/>
<polygon fill="#8b1a1a" stroke="#8b1a1a" points="220.38,-100.08 223.88,-110.08 227.38,-100.08 220.38,-100.08"/>
</a>
</g>
</g>
<!-- Node3 -->
<g id="Node000003" class="node">
<title>Node3</title>
<g id="a_Node000003"><a xlink:href="../../d8/d04/class_clothing.html" target="_top" xlink:title=" ">
<polygon fill="white" stroke="#666666" points="249.5,-188 198.25,-188 198.25,-168 249.5,-168 249.5,-188"/>
<text text-anchor="middle" x="223.88" y="-174.5" font-family="Helvetica,sans-Serif" font-size="10.00">Clothing</text>
</a>
</g>
</g>
<!-- Node3&#45;&gt;Node2 -->
<g id="edge2_Node000002_Node000003" class="edge">
<title>Node3&#45;&gt;Node2</title>
<g id="a_edge2_Node000002_Node000003"><a xlink:title=" ">
<path fill="none" stroke="#8b1a1a" d="M223.88,-156.13C223.88,-147.9 223.88,-138.85 223.88,-132.3"/>
<polygon fill="#8b1a1a" stroke="#8b1a1a" points="220.38,-156.08 223.88,-166.08 227.38,-156.08 220.38,-156.08"/>
</a>
</g>
</g>
</g>
</svg>
