<?xml version="1.0" encoding="UTF-8" standalone="no"?>
<!DOCTYPE svg PUBLIC "-//W3C//DTD SVG 1.1//EN"
 "http://www.w3.org/Graphics/SVG/1.1/DTD/svg11.dtd">
<!-- Generated by graphviz version 11.0.0 (20240428.1522)
 -->
<!-- Title: CZ550_Base Pages: 1 -->
<svg width="129pt" height="152pt"
 viewBox="0.00 0.00 129.00 152.00" xmlns="http://www.w3.org/2000/svg" xmlns:xlink="http://www.w3.org/1999/xlink">
<g id="graph0" class="graph" transform="scale(1 1) rotate(0) translate(4 148)">
<title>CZ550_Base</title>
<!-- Node1 -->
<g id="Node000001" class="node">
<title>Node1</title>
<g id="a_Node000001"><a xlink:title=" ">
<polygon fill="#999999" stroke="#666666" points="96.25,-20 24.75,-20 24.75,0 96.25,0 96.25,-20"/>
<text text-anchor="middle" x="60.5" y="-6.5" font-family="Helvetica,sans-Serif" font-size="10.00">CZ550_Base</text>
</a>
</g>
</g>
<!-- Node2 -->
<g id="Node000002" class="node">
<title>Node2</title>
<g id="a_Node000002"><a xlink:href="../../df/d01/class_bolt_action_rifle___external_magazine___base.html" target="_top" xlink:title=" ">
<polygon fill="white" stroke="#666666" points="121,-88 0,-88 0,-56 121,-56 121,-88"/>
<text text-anchor="start" x="8" y="-74.5" font-family="Helvetica,sans-Serif" font-size="10.00">BoltActionRifle_External</text>
<text text-anchor="middle" x="60.5" y="-62.5" font-family="Helvetica,sans-Serif" font-size="10.00">Magazine_Base</text>
</a>
</g>
</g>
<!-- Node2&#45;&gt;Node1 -->
<g id="edge1_Node000001_Node000002" class="edge">
<title>Node2&#45;&gt;Node1</title>
<g id="a_edge1_Node000001_Node000002"><a xlink:title=" ">
<path fill="none" stroke="#8b1a1a" d="M60.5,-44.08C60.5,-35.6 60.5,-26.8 60.5,-20.41"/>
<polygon fill="#8b1a1a" stroke="#8b1a1a" points="57,-44.03 60.5,-54.03 64,-44.03 57,-44.03"/>
</a>
</g>
</g>
<!-- Node3 -->
<g id="Node000003" class="node">
<title>Node3</title>
<g id="a_Node000003"><a xlink:href="../../d3/d0e/class_bolt_action_rifle___base.html" target="_top" xlink:title=" ">
<polygon fill="white" stroke="#666666" points="114.25,-144 6.75,-144 6.75,-124 114.25,-124 114.25,-144"/>
<text text-anchor="middle" x="60.5" y="-130.5" font-family="Helvetica,sans-Serif" font-size="10.00">BoltActionRifle_Base</text>
</a>
</g>
</g>
<!-- Node3&#45;&gt;Node2 -->
<g id="edge2_Node000002_Node000003" class="edge">
<title>Node3&#45;&gt;Node2</title>
<g id="a_edge2_Node000002_Node000003"><a xlink:title=" ">
<path fill="none" stroke="#8b1a1a" d="M60.5,-112.31C60.5,-104.37 60.5,-95.46 60.5,-88.14"/>
<polygon fill="#8b1a1a" stroke="#8b1a1a" points="57,-112.11 60.5,-122.11 64,-112.11 57,-112.11"/>
</a>
</g>
</g>
</g>
</svg>
