<?xml version="1.0" encoding="UTF-8" standalone="no"?>
<!DOCTYPE svg PUBLIC "-//W3C//DTD SVG 1.1//EN"
 "http://www.w3.org/Graphics/SVG/1.1/DTD/svg11.dtd">
<!-- Generated by graphviz version 11.0.0 (20240428.1522)
 -->
<!-- Title: Mask_Base Pages: 1 -->
<svg width="208pt" height="196pt"
 viewBox="0.00 0.00 208.00 196.00" xmlns="http://www.w3.org/2000/svg" xmlns:xlink="http://www.w3.org/1999/xlink">
<g id="graph0" class="graph" transform="scale(1 1) rotate(0) translate(4 192)">
<title>Mask_Base</title>
<!-- Node1 -->
<g id="Node000001" class="node">
<title>Node1</title>
<g id="a_Node000001"><a xlink:title="gas mask base">
<polygon fill="#999999" stroke="#666666" points="137.62,-132 69.88,-132 69.88,-112 137.62,-112 137.62,-132"/>
<text text-anchor="middle" x="103.75" y="-118.5" font-family="Helvetica,sans-Serif" font-size="10.00">Mask_Base</text>
</a>
</g>
</g>
<!-- Node3 -->
<g id="Node000003" class="node">
<title>Node3</title>
<g id="a_Node000003"><a xlink:href="../../db/d0f/class_mime_mask___male.html" target="_top" xlink:title=" ">
<polygon fill="white" stroke="#666666" points="95.88,-76 5.62,-76 5.62,-56 95.88,-56 95.88,-76"/>
<text text-anchor="middle" x="50.75" y="-62.5" font-family="Helvetica,sans-Serif" font-size="10.00">MimeMask_Male</text>
</a>
</g>
</g>
<!-- Node1&#45;&gt;Node3 -->
<g id="edge2_Node000001_Node000003" class="edge">
<title>Node1&#45;&gt;Node3</title>
<g id="a_edge2_Node000001_Node000003"><a xlink:title=" ">
<path fill="none" stroke="#8b1a1a" d="M86.64,-103.57C77.74,-94.5 67.22,-83.78 59.88,-76.3"/>
<polygon fill="#8b1a1a" stroke="#8b1a1a" points="83.96,-105.83 93.46,-110.51 88.95,-100.93 83.96,-105.83"/>
</a>
</g>
</g>
<!-- Node5 -->
<g id="Node000005" class="node">
<title>Node5</title>
<g id="a_Node000005"><a xlink:href="../../d7/d0f/class_niosh_face_mask.html" target="_top" xlink:title=" ">
<polygon fill="white" stroke="#666666" points="200,-76 113.5,-76 113.5,-56 200,-56 200,-76"/>
<text text-anchor="middle" x="156.75" y="-62.5" font-family="Helvetica,sans-Serif" font-size="10.00">NioshFaceMask</text>
</a>
</g>
</g>
<!-- Node1&#45;&gt;Node5 -->
<g id="edge4_Node000001_Node000005" class="edge">
<title>Node1&#45;&gt;Node5</title>
<g id="a_edge4_Node000001_Node000005"><a xlink:title=" ">
<path fill="none" stroke="#8b1a1a" d="M120.86,-103.57C129.76,-94.5 140.28,-83.78 147.62,-76.3"/>
<polygon fill="#8b1a1a" stroke="#8b1a1a" points="118.55,-100.93 114.04,-110.51 123.54,-105.83 118.55,-100.93"/>
</a>
</g>
</g>
<!-- Node2 -->
<g id="Node000002" class="node">
<title>Node2</title>
<g id="a_Node000002"><a xlink:href="../../d8/d04/class_clothing.html" target="_top" xlink:title=" ">
<polygon fill="white" stroke="#666666" points="129.38,-188 78.12,-188 78.12,-168 129.38,-168 129.38,-188"/>
<text text-anchor="middle" x="103.75" y="-174.5" font-family="Helvetica,sans-Serif" font-size="10.00">Clothing</text>
</a>
</g>
</g>
<!-- Node2&#45;&gt;Node1 -->
<g id="edge1_Node000001_Node000002" class="edge">
<title>Node2&#45;&gt;Node1</title>
<g id="a_edge1_Node000001_Node000002"><a xlink:title=" ">
<path fill="none" stroke="#8b1a1a" d="M103.75,-156.13C103.75,-147.9 103.75,-138.85 103.75,-132.3"/>
<polygon fill="#8b1a1a" stroke="#8b1a1a" points="100.25,-156.08 103.75,-166.08 107.25,-156.08 100.25,-156.08"/>
</a>
</g>
</g>
<!-- Node4 -->
<g id="Node000004" class="node">
<title>Node4</title>
<g id="a_Node000004"><a xlink:href="../../dc/d05/class_mime_mask___female.html" target="_top" xlink:title=" ">
<polygon fill="white" stroke="#666666" points="101.5,-20 0,-20 0,0 101.5,0 101.5,-20"/>
<text text-anchor="middle" x="50.75" y="-6.5" font-family="Helvetica,sans-Serif" font-size="10.00">MimeMask_Female</text>
</a>
</g>
</g>
<!-- Node3&#45;&gt;Node4 -->
<g id="edge3_Node000003_Node000004" class="edge">
<title>Node3&#45;&gt;Node4</title>
<g id="a_edge3_Node000003_Node000004"><a xlink:title=" ">
<path fill="none" stroke="#8b1a1a" d="M50.75,-44.13C50.75,-35.9 50.75,-26.85 50.75,-20.3"/>
<polygon fill="#8b1a1a" stroke="#8b1a1a" points="47.25,-44.08 50.75,-54.08 54.25,-44.08 47.25,-44.08"/>
</a>
</g>
</g>
</g>
</svg>
