<?xml version="1.0" encoding="UTF-8" standalone="no"?>
<!DOCTYPE svg PUBLIC "-//W3C//DTD SVG 1.1//EN"
 "http://www.w3.org/Graphics/SVG/1.1/DTD/svg11.dtd">
<!-- Generated by graphviz version 11.0.0 (20240428.1522)
 -->
<!-- Title: Object Pages: 1 -->
<svg width="320pt" height="1780pt"
 viewBox="0.00 0.00 320.00 1780.00" xmlns="http://www.w3.org/2000/svg" xmlns:xlink="http://www.w3.org/1999/xlink">
<g id="graph0" class="graph" transform="scale(1 1) rotate(0) translate(4 1776)">
<title>Object</title>
<!-- Node1 -->
<g id="Node000001" class="node">
<title>Node1</title>
<g id="a_Node000001"><a xlink:title=" ">
<polygon fill="#999999" stroke="#666666" points="44.5,-438 0,-438 0,-418 44.5,-418 44.5,-438"/>
<text text-anchor="middle" x="22.25" y="-424.5" font-family="Helvetica,sans-Serif" font-size="10.00">Object</text>
</a>
</g>
</g>
<!-- Node2 -->
<g id="Node000002" class="node">
<title>Node2</title>
<g id="a_Node000002"><a xlink:href="../../db/d0f/class_rock_base.html" target="_top" xlink:title=" ">
<polygon fill="white" stroke="#666666" points="141.5,-837 80.5,-837 80.5,-817 141.5,-817 141.5,-837"/>
<text text-anchor="middle" x="111" y="-823.5" font-family="Helvetica,sans-Serif" font-size="10.00">RockBase</text>
</a>
</g>
</g>
<!-- Node1&#45;&gt;Node2 -->
<g id="edge1_Node000001_Node000002" class="edge">
<title>Node1&#45;&gt;Node2</title>
<g id="a_edge1_Node000001_Node000002"><a xlink:title=" ">
<path fill="none" stroke="#8b1a1a" d="M27.87,-449.25C43.84,-522.7 96.34,-764.16 107.78,-816.8"/>
<polygon fill="#8b1a1a" stroke="#8b1a1a" points="31.35,-448.77 25.8,-439.74 24.51,-450.26 31.35,-448.77"/>
</a>
</g>
</g>
<!-- Node44 -->
<g id="Node000044" class="node">
<title>Node44</title>
<g id="a_Node000044"><a xlink:href="../../d4/d0f/class_static.html" target="_top" xlink:title=" ">
<polygon fill="white" stroke="#666666" points="131.75,-58 90.25,-58 90.25,-38 131.75,-38 131.75,-58"/>
<text text-anchor="middle" x="111" y="-44.5" font-family="Helvetica,sans-Serif" font-size="10.00">Static</text>
</a>
</g>
</g>
<!-- Node1&#45;&gt;Node44 -->
<g id="edge43_Node000001_Node000044" class="edge">
<title>Node1&#45;&gt;Node44</title>
<g id="a_edge43_Node000001_Node000044"><a xlink:title=" ">
<path fill="none" stroke="#8b1a1a" d="M28.08,-406.86C44.21,-336.18 95.93,-109.63 107.63,-58.37"/>
<polygon fill="#8b1a1a" stroke="#8b1a1a" points="24.72,-405.83 25.91,-416.36 31.55,-407.39 24.72,-405.83"/>
</a>
</g>
</g>
<!-- Node3 -->
<g id="Node000003" class="node">
<title>Node3</title>
<g id="a_Node000003"><a xlink:href="../../de/d07/class_static__rock__apart1.html" target="_top" xlink:title=" ">
<polygon fill="white" stroke="#666666" points="293.62,-1772 195.88,-1772 195.88,-1752 293.62,-1752 293.62,-1772"/>
<text text-anchor="middle" x="244.75" y="-1758.5" font-family="Helvetica,sans-Serif" font-size="10.00">Static_rock_apart1</text>
</a>
</g>
</g>
<!-- Node2&#45;&gt;Node3 -->
<g id="edge2_Node000002_Node000003" class="edge">
<title>Node2&#45;&gt;Node3</title>
<g id="a_edge2_Node000002_Node000003"><a xlink:title=" ">
<path fill="none" stroke="#8b1a1a" d="M112.09,-848.53C112.81,-979.98 119.37,-1671.32 177.5,-1743 182.25,-1748.85 188.67,-1752.98 195.66,-1755.87"/>
<polygon fill="#8b1a1a" stroke="#8b1a1a" points="115.59,-848.8 112.04,-838.81 108.59,-848.83 115.59,-848.8"/>
</a>
</g>
</g>
<!-- Node4 -->
<g id="Node000004" class="node">
<title>Node4</title>
<g id="a_Node000004"><a xlink:href="../../db/d0e/class_static__rock__apart2.html" target="_top" xlink:title=" ">
<polygon fill="white" stroke="#666666" points="293.62,-1734 195.88,-1734 195.88,-1714 293.62,-1714 293.62,-1734"/>
<text text-anchor="middle" x="244.75" y="-1720.5" font-family="Helvetica,sans-Serif" font-size="10.00">Static_rock_apart2</text>
</a>
</g>
</g>
<!-- Node2&#45;&gt;Node4 -->
<g id="edge3_Node000002_Node000004" class="edge">
<title>Node2&#45;&gt;Node4</title>
<g id="a_edge3_Node000002_Node000004"><a xlink:title=" ">
<path fill="none" stroke="#8b1a1a" d="M112.16,-848.82C113.3,-977.75 121.83,-1636.58 177.5,-1705 182.26,-1710.85 188.69,-1714.97 195.67,-1717.86"/>
<polygon fill="#8b1a1a" stroke="#8b1a1a" points="115.66,-848.94 112.08,-838.97 108.66,-849 115.66,-848.94"/>
</a>
</g>
</g>
<!-- Node5 -->
<g id="Node000005" class="node">
<title>Node5</title>
<g id="a_Node000005"><a xlink:href="../../d1/d07/class_static__rock__bright__apart1.html" target="_top" xlink:title=" ">
<polygon fill="white" stroke="#666666" points="292.12,-1696 197.38,-1696 197.38,-1664 292.12,-1664 292.12,-1696"/>
<text text-anchor="start" x="205.38" y="-1682.5" font-family="Helvetica,sans-Serif" font-size="10.00">Static_rock_bright</text>
<text text-anchor="middle" x="244.75" y="-1670.5" font-family="Helvetica,sans-Serif" font-size="10.00">_apart1</text>
</a>
</g>
</g>
<!-- Node2&#45;&gt;Node5 -->
<g id="edge4_Node000002_Node000005" class="edge">
<title>Node2&#45;&gt;Node5</title>
<g id="a_edge4_Node000002_Node000005"><a xlink:title=" ">
<path fill="none" stroke="#8b1a1a" d="M112.35,-848.66C114.5,-972.61 127.67,-1588.68 177.5,-1655 182.52,-1661.68 189.55,-1666.58 197.17,-1670.17"/>
<polygon fill="#8b1a1a" stroke="#8b1a1a" points="115.85,-848.85 112.18,-838.91 108.85,-848.97 115.85,-848.85"/>
</a>
</g>
</g>
<!-- Node6 -->
<g id="Node000006" class="node">
<title>Node6</title>
<g id="a_Node000006"><a xlink:href="../../d5/d0f/class_static__rock__bright__apart2.html" target="_top" xlink:title=" ">
<polygon fill="white" stroke="#666666" points="292.12,-1646 197.38,-1646 197.38,-1614 292.12,-1614 292.12,-1646"/>
<text text-anchor="start" x="205.38" y="-1632.5" font-family="Helvetica,sans-Serif" font-size="10.00">Static_rock_bright</text>
<text text-anchor="middle" x="244.75" y="-1620.5" font-family="Helvetica,sans-Serif" font-size="10.00">_apart2</text>
</a>
</g>
</g>
<!-- Node2&#45;&gt;Node6 -->
<g id="edge5_Node000002_Node000006" class="edge">
<title>Node2&#45;&gt;Node6</title>
<g id="a_edge5_Node000002_Node000006"><a xlink:title=" ">
<path fill="none" stroke="#8b1a1a" d="M112.47,-848.82C115.2,-968.6 130.69,-1543.04 177.5,-1605 182.54,-1611.67 189.58,-1616.56 197.19,-1620.15"/>
<polygon fill="#8b1a1a" stroke="#8b1a1a" points="115.96,-848.75 112.24,-838.83 108.97,-848.91 115.96,-848.75"/>
</a>
</g>
</g>
<!-- Node7 -->
<g id="Node000007" class="node">
<title>Node7</title>
<g id="a_Node000007"><a xlink:href="../../dc/d05/class_static__rock__bright__monolith1.html" target="_top" xlink:title=" ">
<polygon fill="white" stroke="#666666" points="292.12,-1596 197.38,-1596 197.38,-1564 292.12,-1564 292.12,-1596"/>
<text text-anchor="start" x="205.38" y="-1582.5" font-family="Helvetica,sans-Serif" font-size="10.00">Static_rock_bright</text>
<text text-anchor="middle" x="244.75" y="-1570.5" font-family="Helvetica,sans-Serif" font-size="10.00">_monolith1</text>
</a>
</g>
</g>
<!-- Node2&#45;&gt;Node7 -->
<g id="edge6_Node000002_Node000007" class="edge">
<title>Node2&#45;&gt;Node7</title>
<g id="a_edge6_Node000002_Node000007"><a xlink:title=" ">
<path fill="none" stroke="#8b1a1a" d="M112.6,-848.84C115.94,-963.99 133.69,-1497.36 177.5,-1555 182.48,-1561.56 189.4,-1566.4 196.89,-1569.96"/>
<polygon fill="#8b1a1a" stroke="#8b1a1a" points="116.1,-848.86 112.32,-838.96 109.1,-849.05 116.1,-848.86"/>
</a>
</g>
</g>
<!-- Node8 -->
<g id="Node000008" class="node">
<title>Node8</title>
<g id="a_Node000008"><a xlink:href="../../df/d0c/class_static__rock__bright__monolith2.html" target="_top" xlink:title=" ">
<polygon fill="white" stroke="#666666" points="292.12,-1546 197.38,-1546 197.38,-1514 292.12,-1514 292.12,-1546"/>
<text text-anchor="start" x="205.38" y="-1532.5" font-family="Helvetica,sans-Serif" font-size="10.00">Static_rock_bright</text>
<text text-anchor="middle" x="244.75" y="-1520.5" font-family="Helvetica,sans-Serif" font-size="10.00">_monolith2</text>
</a>
</g>
</g>
<!-- Node2&#45;&gt;Node8 -->
<g id="edge7_Node000002_Node000008" class="edge">
<title>Node2&#45;&gt;Node8</title>
<g id="a_edge7_Node000002_Node000008"><a xlink:title=" ">
<path fill="none" stroke="#8b1a1a" d="M112.75,-848.71C116.72,-958.74 136.67,-1451.64 177.5,-1505 182.51,-1511.54 189.43,-1516.37 196.92,-1519.94"/>
<polygon fill="#8b1a1a" stroke="#8b1a1a" points="116.26,-848.88 112.4,-839.01 109.26,-849.12 116.26,-848.88"/>
</a>
</g>
</g>
<!-- Node9 -->
<g id="Node000009" class="node">
<title>Node9</title>
<g id="a_Node000009"><a xlink:href="../../d5/d0a/class_static__rock__bright__monolith3.html" target="_top" xlink:title=" ">
<polygon fill="white" stroke="#666666" points="292.12,-1496 197.38,-1496 197.38,-1464 292.12,-1464 292.12,-1496"/>
<text text-anchor="start" x="205.38" y="-1482.5" font-family="Helvetica,sans-Serif" font-size="10.00">Static_rock_bright</text>
<text text-anchor="middle" x="244.75" y="-1470.5" font-family="Helvetica,sans-Serif" font-size="10.00">_monolith3</text>
</a>
</g>
</g>
<!-- Node2&#45;&gt;Node9 -->
<g id="edge8_Node000002_Node000009" class="edge">
<title>Node2&#45;&gt;Node9</title>
<g id="a_edge8_Node000002_Node000009"><a xlink:title=" ">
<path fill="none" stroke="#8b1a1a" d="M112.93,-848.73C117.57,-953.79 139.66,-1405.94 177.5,-1455 182.53,-1461.52 189.47,-1466.34 196.96,-1469.91"/>
<polygon fill="#8b1a1a" stroke="#8b1a1a" points="116.43,-848.8 112.5,-838.97 109.44,-849.11 116.43,-848.8"/>
</a>
</g>
</g>
<!-- Node10 -->
<g id="Node000010" class="node">
<title>Node10</title>
<g id="a_Node000010"><a xlink:href="../../d9/d01/class_static__rock__bright__monolith4.html" target="_top" xlink:title=" ">
<polygon fill="white" stroke="#666666" points="292.12,-1446 197.38,-1446 197.38,-1414 292.12,-1414 292.12,-1446"/>
<text text-anchor="start" x="205.38" y="-1432.5" font-family="Helvetica,sans-Serif" font-size="10.00">Static_rock_bright</text>
<text text-anchor="middle" x="244.75" y="-1420.5" font-family="Helvetica,sans-Serif" font-size="10.00">_monolith4</text>
</a>
</g>
</g>
<!-- Node2&#45;&gt;Node10 -->
<g id="edge9_Node000002_Node000010" class="edge">
<title>Node2&#45;&gt;Node10</title>
<g id="a_edge9_Node000002_Node000010"><a xlink:title=" ">
<path fill="none" stroke="#8b1a1a" d="M111.54,-848.89C109.97,-943.47 108.33,-1316.14 177.5,-1405 182.56,-1411.5 189.51,-1416.31 197.01,-1419.87"/>
<polygon fill="#8b1a1a" stroke="#8b1a1a" points="115.03,-849.03 111.72,-838.97 108.04,-848.9 115.03,-849.03"/>
</a>
</g>
</g>
<!-- Node11 -->
<g id="Node000011" class="node">
<title>Node11</title>
<g id="a_Node000011"><a xlink:href="../../dc/d0b/class_static__rock__bright__spike1.html" target="_top" xlink:title=" ">
<polygon fill="white" stroke="#666666" points="292.12,-1396 197.38,-1396 197.38,-1364 292.12,-1364 292.12,-1396"/>
<text text-anchor="start" x="205.38" y="-1382.5" font-family="Helvetica,sans-Serif" font-size="10.00">Static_rock_bright</text>
<text text-anchor="middle" x="244.75" y="-1370.5" font-family="Helvetica,sans-Serif" font-size="10.00">_spike1</text>
</a>
</g>
</g>
<!-- Node2&#45;&gt;Node11 -->
<g id="edge10_Node000002_Node000011" class="edge">
<title>Node2&#45;&gt;Node11</title>
<g id="a_edge10_Node000002_Node000011"><a xlink:title=" ">
<path fill="none" stroke="#8b1a1a" d="M111.8,-848.68C111.41,-937.75 114.21,-1274.57 177.5,-1355 182.59,-1361.47 189.56,-1366.27 197.07,-1369.83"/>
<polygon fill="#8b1a1a" stroke="#8b1a1a" points="115.3,-848.93 111.87,-838.91 108.3,-848.89 115.3,-848.93"/>
</a>
</g>
</g>
<!-- Node12 -->
<g id="Node000012" class="node">
<title>Node12</title>
<g id="a_Node000012"><a xlink:href="../../dd/d07/class_static__rock__bright__spike2.html" target="_top" xlink:title=" ">
<polygon fill="white" stroke="#666666" points="292.12,-1346 197.38,-1346 197.38,-1314 292.12,-1314 292.12,-1346"/>
<text text-anchor="start" x="205.38" y="-1332.5" font-family="Helvetica,sans-Serif" font-size="10.00">Static_rock_bright</text>
<text text-anchor="middle" x="244.75" y="-1320.5" font-family="Helvetica,sans-Serif" font-size="10.00">_spike2</text>
</a>
</g>
</g>
<!-- Node2&#45;&gt;Node12 -->
<g id="edge11_Node000002_Node000012" class="edge">
<title>Node2&#45;&gt;Node12</title>
<g id="a_edge11_Node000002_Node000012"><a xlink:title=" ">
<path fill="none" stroke="#8b1a1a" d="M112.12,-848.72C112.99,-932.42 120.13,-1233.04 177.5,-1305 182.63,-1311.44 189.62,-1316.22 197.13,-1319.77"/>
<polygon fill="#8b1a1a" stroke="#8b1a1a" points="115.62,-848.7 112.04,-838.73 108.62,-848.75 115.62,-848.7"/>
</a>
</g>
</g>
<!-- Node13 -->
<g id="Node000013" class="node">
<title>Node13</title>
<g id="a_Node000013"><a xlink:href="../../d1/d04/class_static__rock__bright__spike3.html" target="_top" xlink:title=" ">
<polygon fill="white" stroke="#666666" points="292.12,-1296 197.38,-1296 197.38,-1264 292.12,-1264 292.12,-1296"/>
<text text-anchor="start" x="205.38" y="-1282.5" font-family="Helvetica,sans-Serif" font-size="10.00">Static_rock_bright</text>
<text text-anchor="middle" x="244.75" y="-1270.5" font-family="Helvetica,sans-Serif" font-size="10.00">_spike3</text>
</a>
</g>
</g>
<!-- Node2&#45;&gt;Node13 -->
<g id="edge12_Node000002_Node000013" class="edge">
<title>Node2&#45;&gt;Node13</title>
<g id="a_edge12_Node000002_Node000013"><a xlink:title=" ">
<path fill="none" stroke="#8b1a1a" d="M112.5,-848.42C114.7,-926.05 125.95,-1191.37 177.5,-1255 182.61,-1261.3 189.48,-1266.02 196.88,-1269.55"/>
<polygon fill="#8b1a1a" stroke="#8b1a1a" points="116,-848.69 112.25,-838.78 109.01,-848.87 116,-848.69"/>
</a>
</g>
</g>
<!-- Node14 -->
<g id="Node000014" class="node">
<title>Node14</title>
<g id="a_Node000014"><a xlink:href="../../d7/d09/class_static__rock__bright__wallh1.html" target="_top" xlink:title=" ">
<polygon fill="white" stroke="#666666" points="292.12,-1246 197.38,-1246 197.38,-1214 292.12,-1214 292.12,-1246"/>
<text text-anchor="start" x="205.38" y="-1232.5" font-family="Helvetica,sans-Serif" font-size="10.00">Static_rock_bright</text>
<text text-anchor="middle" x="244.75" y="-1220.5" font-family="Helvetica,sans-Serif" font-size="10.00">_wallh1</text>
</a>
</g>
</g>
<!-- Node2&#45;&gt;Node14 -->
<g id="edge13_Node000002_Node000014" class="edge">
<title>Node2&#45;&gt;Node14</title>
<g id="a_edge13_Node000002_Node000014"><a xlink:title=" ">
<path fill="none" stroke="#8b1a1a" d="M112.99,-848.65C116.68,-920.52 131.86,-1149.79 177.5,-1205 182.67,-1211.25 189.58,-1215.94 196.98,-1219.46"/>
<polygon fill="#8b1a1a" stroke="#8b1a1a" points="116.5,-848.81 112.52,-838.99 109.51,-849.15 116.5,-848.81"/>
</a>
</g>
</g>
<!-- Node15 -->
<g id="Node000015" class="node">
<title>Node15</title>
<g id="a_Node000015"><a xlink:href="../../de/d0d/class_static__rock__bright__wallh2.html" target="_top" xlink:title=" ">
<polygon fill="white" stroke="#666666" points="292.12,-1196 197.38,-1196 197.38,-1164 292.12,-1164 292.12,-1196"/>
<text text-anchor="start" x="205.38" y="-1182.5" font-family="Helvetica,sans-Serif" font-size="10.00">Static_rock_bright</text>
<text text-anchor="middle" x="244.75" y="-1170.5" font-family="Helvetica,sans-Serif" font-size="10.00">_wallh2</text>
</a>
</g>
</g>
<!-- Node2&#45;&gt;Node15 -->
<g id="edge14_Node000002_Node000015" class="edge">
<title>Node2&#45;&gt;Node15</title>
<g id="a_edge14_Node000002_Node000015"><a xlink:title=" ">
<path fill="none" stroke="#8b1a1a" d="M113.62,-848.69C118.91,-914.15 137.7,-1108.09 177.5,-1155 182.75,-1161.19 189.69,-1165.85 197.11,-1169.35"/>
<polygon fill="#8b1a1a" stroke="#8b1a1a" points="117.12,-848.6 112.86,-838.9 110.14,-849.15 117.12,-848.6"/>
</a>
</g>
</g>
<!-- Node16 -->
<g id="Node000016" class="node">
<title>Node16</title>
<g id="a_Node000016"><a xlink:href="../../d4/d0c/class_static__rock__bright__wallh3.html" target="_top" xlink:title=" ">
<polygon fill="white" stroke="#666666" points="292.12,-1146 197.38,-1146 197.38,-1114 292.12,-1114 292.12,-1146"/>
<text text-anchor="start" x="205.38" y="-1132.5" font-family="Helvetica,sans-Serif" font-size="10.00">Static_rock_bright</text>
<text text-anchor="middle" x="244.75" y="-1120.5" font-family="Helvetica,sans-Serif" font-size="10.00">_wallh3</text>
</a>
</g>
</g>
<!-- Node2&#45;&gt;Node16 -->
<g id="edge15_Node000002_Node000016" class="edge">
<title>Node2&#45;&gt;Node16</title>
<g id="a_edge15_Node000002_Node000016"><a xlink:title=" ">
<path fill="none" stroke="#8b1a1a" d="M114.43,-848.38C121.45,-906.61 143.43,-1066.21 177.5,-1105 182.77,-1111 189.64,-1115.57 196.95,-1119.04"/>
<polygon fill="#8b1a1a" stroke="#8b1a1a" points="117.95,-848.32 113.31,-838.79 111,-849.13 117.95,-848.32"/>
</a>
</g>
</g>
<!-- Node17 -->
<g id="Node000017" class="node">
<title>Node17</title>
<g id="a_Node000017"><a xlink:href="../../d9/d02/class_static__rock__bright__wallv.html" target="_top" xlink:title=" ">
<polygon fill="white" stroke="#666666" points="292.12,-1096 197.38,-1096 197.38,-1064 292.12,-1064 292.12,-1096"/>
<text text-anchor="start" x="205.38" y="-1082.5" font-family="Helvetica,sans-Serif" font-size="10.00">Static_rock_bright</text>
<text text-anchor="middle" x="244.75" y="-1070.5" font-family="Helvetica,sans-Serif" font-size="10.00">_wallv</text>
</a>
</g>
</g>
<!-- Node2&#45;&gt;Node17 -->
<g id="edge16_Node000002_Node000017" class="edge">
<title>Node2&#45;&gt;Node17</title>
<g id="a_edge16_Node000002_Node000017"><a xlink:title=" ">
<path fill="none" stroke="#8b1a1a" d="M112.09,-848.83C113.44,-893.39 122.74,-995.61 177.5,-1055 182.92,-1060.87 189.85,-1065.38 197.19,-1068.83"/>
<polygon fill="#8b1a1a" stroke="#8b1a1a" points="115.59,-848.86 111.91,-838.93 108.59,-848.99 115.59,-848.86"/>
</a>
</g>
</g>
<!-- Node18 -->
<g id="Node000018" class="node">
<title>Node18</title>
<g id="a_Node000018"><a xlink:href="../../dc/d0a/class_static__rock__monolith1.html" target="_top" xlink:title=" ">
<polygon fill="white" stroke="#666666" points="301.12,-1046 188.38,-1046 188.38,-1026 301.12,-1026 301.12,-1046"/>
<text text-anchor="middle" x="244.75" y="-1032.5" font-family="Helvetica,sans-Serif" font-size="10.00">Static_rock_monolith1</text>
</a>
</g>
</g>
<!-- Node2&#45;&gt;Node18 -->
<g id="edge17_Node000002_Node000018" class="edge">
<title>Node2&#45;&gt;Node18</title>
<g id="a_edge17_Node000002_Node000018"><a xlink:title=" ">
<path fill="none" stroke="#8b1a1a" d="M113.18,-848.73C116.5,-888.05 129.18,-971.16 177.5,-1017 181.15,-1020.46 185.38,-1023.29 189.91,-1025.62"/>
<polygon fill="#8b1a1a" stroke="#8b1a1a" points="116.68,-848.64 112.49,-838.91 109.7,-849.13 116.68,-848.64"/>
</a>
</g>
</g>
<!-- Node19 -->
<g id="Node000019" class="node">
<title>Node19</title>
<g id="a_Node000019"><a xlink:href="../../dd/d07/class_static__rock__monolith2.html" target="_top" xlink:title=" ">
<polygon fill="white" stroke="#666666" points="301.12,-1008 188.38,-1008 188.38,-988 301.12,-988 301.12,-1008"/>
<text text-anchor="middle" x="244.75" y="-994.5" font-family="Helvetica,sans-Serif" font-size="10.00">Static_rock_monolith2</text>
</a>
</g>
</g>
<!-- Node2&#45;&gt;Node19 -->
<g id="edge18_Node000002_Node000019" class="edge">
<title>Node2&#45;&gt;Node19</title>
<g id="a_edge18_Node000002_Node000019"><a xlink:title=" ">
<path fill="none" stroke="#8b1a1a" d="M115.25,-848.26C121.42,-881.14 137.9,-944.16 177.5,-979 181.45,-982.48 186,-985.32 190.83,-987.65"/>
<polygon fill="#8b1a1a" stroke="#8b1a1a" points="118.76,-848.01 113.63,-838.75 111.86,-849.19 118.76,-848.01"/>
</a>
</g>
</g>
<!-- Node20 -->
<g id="Node000020" class="node">
<title>Node20</title>
<g id="a_Node000020"><a xlink:href="../../dd/d06/class_static__rock__monolith3.html" target="_top" xlink:title=" ">
<polygon fill="white" stroke="#666666" points="301.12,-970 188.38,-970 188.38,-950 301.12,-950 301.12,-970"/>
<text text-anchor="middle" x="244.75" y="-956.5" font-family="Helvetica,sans-Serif" font-size="10.00">Static_rock_monolith3</text>
</a>
</g>
</g>
<!-- Node2&#45;&gt;Node20 -->
<g id="edge19_Node000002_Node000020" class="edge">
<title>Node2&#45;&gt;Node20</title>
<g id="a_edge19_Node000002_Node000020"><a xlink:title=" ">
<path fill="none" stroke="#8b1a1a" d="M118.58,-848.04C127.69,-873.76 146.63,-916.82 177.5,-941 181.93,-944.47 186.96,-947.3 192.23,-949.62"/>
<polygon fill="#8b1a1a" stroke="#8b1a1a" points="121.95,-847.08 115.46,-838.71 115.31,-849.3 121.95,-847.08"/>
</a>
</g>
</g>
<!-- Node21 -->
<g id="Node000021" class="node">
<title>Node21</title>
<g id="a_Node000021"><a xlink:href="../../dc/d03/class_static__rock__monolith4.html" target="_top" xlink:title=" ">
<polygon fill="white" stroke="#666666" points="301.12,-932 188.38,-932 188.38,-912 301.12,-912 301.12,-932"/>
<text text-anchor="middle" x="244.75" y="-918.5" font-family="Helvetica,sans-Serif" font-size="10.00">Static_rock_monolith4</text>
</a>
</g>
</g>
<!-- Node2&#45;&gt;Node21 -->
<g id="edge20_Node000002_Node000021" class="edge">
<title>Node2&#45;&gt;Node21</title>
<g id="a_edge20_Node000002_Node000021"><a xlink:title=" ">
<path fill="none" stroke="#8b1a1a" d="M124,-846.48C135.63,-863.77 154.81,-888.48 177.5,-903 182.84,-906.42 188.81,-909.24 194.92,-911.56"/>
<polygon fill="#8b1a1a" stroke="#8b1a1a" points="127.25,-845.05 118.88,-838.56 121.37,-848.85 127.25,-845.05"/>
</a>
</g>
</g>
<!-- Node22 -->
<g id="Node000022" class="node">
<title>Node22</title>
<g id="a_Node000022"><a xlink:href="../../d1/d08/class_static__rock__spike1.html" target="_top" xlink:title=" ">
<polygon fill="white" stroke="#666666" points="294.38,-894 195.12,-894 195.12,-874 294.38,-874 294.38,-894"/>
<text text-anchor="middle" x="244.75" y="-880.5" font-family="Helvetica,sans-Serif" font-size="10.00">Static_rock_spike1</text>
</a>
</g>
</g>
<!-- Node2&#45;&gt;Node22 -->
<g id="edge21_Node000002_Node000022" class="edge">
<title>Node2&#45;&gt;Node22</title>
<g id="a_edge21_Node000002_Node000022"><a xlink:title=" ">
<path fill="none" stroke="#8b1a1a" d="M136.99,-843.45C148.9,-850.77 163.56,-859.07 177.5,-865 185.1,-868.23 193.41,-871.11 201.5,-873.57"/>
<polygon fill="#8b1a1a" stroke="#8b1a1a" points="138.92,-840.53 128.6,-838.15 135.18,-846.45 138.92,-840.53"/>
</a>
</g>
</g>
<!-- Node23 -->
<g id="Node000023" class="node">
<title>Node23</title>
<g id="a_Node000023"><a xlink:href="../../df/d02/class_static__rock__spike2.html" target="_top" xlink:title=" ">
<polygon fill="white" stroke="#666666" points="294.38,-856 195.12,-856 195.12,-836 294.38,-836 294.38,-856"/>
<text text-anchor="middle" x="244.75" y="-842.5" font-family="Helvetica,sans-Serif" font-size="10.00">Static_rock_spike2</text>
</a>
</g>
</g>
<!-- Node2&#45;&gt;Node23 -->
<g id="edge22_Node000002_Node000023" class="edge">
<title>Node2&#45;&gt;Node23</title>
<g id="a_edge22_Node000002_Node000023"><a xlink:title=" ">
<path fill="none" stroke="#8b1a1a" d="M153.06,-832.92C166.3,-834.83 181.11,-836.97 194.85,-838.95"/>
<polygon fill="#8b1a1a" stroke="#8b1a1a" points="153.79,-829.49 143.39,-831.53 152.79,-836.42 153.79,-829.49"/>
</a>
</g>
</g>
<!-- Node24 -->
<g id="Node000024" class="node">
<title>Node24</title>
<g id="a_Node000024"><a xlink:href="../../d6/d08/class_static__rock__spike3.html" target="_top" xlink:title=" ">
<polygon fill="white" stroke="#666666" points="294.38,-818 195.12,-818 195.12,-798 294.38,-798 294.38,-818"/>
<text text-anchor="middle" x="244.75" y="-804.5" font-family="Helvetica,sans-Serif" font-size="10.00">Static_rock_spike3</text>
</a>
</g>
</g>
<!-- Node2&#45;&gt;Node24 -->
<g id="edge23_Node000002_Node000024" class="edge">
<title>Node2&#45;&gt;Node24</title>
<g id="a_edge23_Node000002_Node000024"><a xlink:title=" ">
<path fill="none" stroke="#8b1a1a" d="M153.06,-821.08C166.3,-819.17 181.11,-817.03 194.85,-815.05"/>
<polygon fill="#8b1a1a" stroke="#8b1a1a" points="152.79,-817.58 143.39,-822.47 153.79,-824.51 152.79,-817.58"/>
</a>
</g>
</g>
<!-- Node25 -->
<g id="Node000025" class="node">
<title>Node25</title>
<g id="a_Node000025"><a xlink:href="../../d8/d06/class_static__rock__stone10.html" target="_top" xlink:title=" ">
<polygon fill="white" stroke="#666666" points="297.38,-780 192.12,-780 192.12,-760 297.38,-760 297.38,-780"/>
<text text-anchor="middle" x="244.75" y="-766.5" font-family="Helvetica,sans-Serif" font-size="10.00">Static_rock_stone10</text>
</a>
</g>
</g>
<!-- Node2&#45;&gt;Node25 -->
<g id="edge24_Node000002_Node000025" class="edge">
<title>Node2&#45;&gt;Node25</title>
<g id="a_edge24_Node000002_Node000025"><a xlink:title=" ">
<path fill="none" stroke="#8b1a1a" d="M136.99,-810.55C148.9,-803.23 163.56,-794.93 177.5,-789 185.1,-785.77 193.41,-782.89 201.5,-780.43"/>
<polygon fill="#8b1a1a" stroke="#8b1a1a" points="135.18,-807.55 128.6,-815.85 138.92,-813.47 135.18,-807.55"/>
</a>
</g>
</g>
<!-- Node26 -->
<g id="Node000026" class="node">
<title>Node26</title>
<g id="a_Node000026"><a xlink:href="../../dc/d0d/class_static__rock__stone10__moss.html" target="_top" xlink:title=" ">
<polygon fill="white" stroke="#666666" points="312,-742 177.5,-742 177.5,-722 312,-722 312,-742"/>
<text text-anchor="middle" x="244.75" y="-728.5" font-family="Helvetica,sans-Serif" font-size="10.00">Static_rock_stone10_moss</text>
</a>
</g>
</g>
<!-- Node2&#45;&gt;Node26 -->
<g id="edge25_Node000002_Node000026" class="edge">
<title>Node2&#45;&gt;Node26</title>
<g id="a_edge25_Node000002_Node000026"><a xlink:title=" ">
<path fill="none" stroke="#8b1a1a" d="M124,-807.52C135.63,-790.23 154.81,-765.52 177.5,-751 182.84,-747.58 188.81,-744.76 194.92,-742.44"/>
<polygon fill="#8b1a1a" stroke="#8b1a1a" points="121.37,-805.15 118.88,-815.44 127.25,-808.95 121.37,-805.15"/>
</a>
</g>
</g>
<!-- Node27 -->
<g id="Node000027" class="node">
<title>Node27</title>
<g id="a_Node000027"><a xlink:href="../../d3/d02/class_static__rock__stone6.html" target="_top" xlink:title=" ">
<polygon fill="white" stroke="#666666" points="294.75,-704 194.75,-704 194.75,-684 294.75,-684 294.75,-704"/>
<text text-anchor="middle" x="244.75" y="-690.5" font-family="Helvetica,sans-Serif" font-size="10.00">Static_rock_stone6</text>
</a>
</g>
</g>
<!-- Node2&#45;&gt;Node27 -->
<g id="edge26_Node000002_Node000027" class="edge">
<title>Node2&#45;&gt;Node27</title>
<g id="a_edge26_Node000002_Node000027"><a xlink:title=" ">
<path fill="none" stroke="#8b1a1a" d="M118.58,-805.96C127.69,-780.24 146.63,-737.18 177.5,-713 182.49,-709.09 188.26,-705.99 194.26,-703.52"/>
<polygon fill="#8b1a1a" stroke="#8b1a1a" points="115.31,-804.7 115.46,-815.29 121.95,-806.92 115.31,-804.7"/>
</a>
</g>
</g>
<!-- Node28 -->
<g id="Node000028" class="node">
<title>Node28</title>
<g id="a_Node000028"><a xlink:href="../../da/d04/class_static__rock__stone6__moss.html" target="_top" xlink:title=" ">
<polygon fill="white" stroke="#666666" points="309.38,-666 180.12,-666 180.12,-646 309.38,-646 309.38,-666"/>
<text text-anchor="middle" x="244.75" y="-652.5" font-family="Helvetica,sans-Serif" font-size="10.00">Static_rock_stone6_moss</text>
</a>
</g>
</g>
<!-- Node2&#45;&gt;Node28 -->
<g id="edge27_Node000002_Node000028" class="edge">
<title>Node2&#45;&gt;Node28</title>
<g id="a_edge27_Node000002_Node000028"><a xlink:title=" ">
<path fill="none" stroke="#8b1a1a" d="M115.25,-805.74C121.42,-772.86 137.9,-709.84 177.5,-675 181.45,-671.52 186,-668.68 190.83,-666.35"/>
<polygon fill="#8b1a1a" stroke="#8b1a1a" points="111.86,-804.81 113.63,-815.25 118.76,-805.99 111.86,-804.81"/>
</a>
</g>
</g>
<!-- Node29 -->
<g id="Node000029" class="node">
<title>Node29</title>
<g id="a_Node000029"><a xlink:href="../../da/d06/class_static__rock__stone7.html" target="_top" xlink:title=" ">
<polygon fill="white" stroke="#666666" points="294.75,-628 194.75,-628 194.75,-608 294.75,-608 294.75,-628"/>
<text text-anchor="middle" x="244.75" y="-614.5" font-family="Helvetica,sans-Serif" font-size="10.00">Static_rock_stone7</text>
</a>
</g>
</g>
<!-- Node2&#45;&gt;Node29 -->
<g id="edge28_Node000002_Node000029" class="edge">
<title>Node2&#45;&gt;Node29</title>
<g id="a_edge28_Node000002_Node000029"><a xlink:title=" ">
<path fill="none" stroke="#8b1a1a" d="M113.18,-805.27C116.5,-765.95 129.18,-682.84 177.5,-637 182.36,-632.39 188.27,-628.89 194.52,-626.23"/>
<polygon fill="#8b1a1a" stroke="#8b1a1a" points="109.7,-804.87 112.49,-815.09 116.68,-805.36 109.7,-804.87"/>
</a>
</g>
</g>
<!-- Node30 -->
<g id="Node000030" class="node">
<title>Node30</title>
<g id="a_Node000030"><a xlink:href="../../d0/d06/class_static__rock__stone7__moss.html" target="_top" xlink:title=" ">
<polygon fill="white" stroke="#666666" points="309.38,-590 180.12,-590 180.12,-570 309.38,-570 309.38,-590"/>
<text text-anchor="middle" x="244.75" y="-576.5" font-family="Helvetica,sans-Serif" font-size="10.00">Static_rock_stone7_moss</text>
</a>
</g>
</g>
<!-- Node2&#45;&gt;Node30 -->
<g id="edge29_Node000002_Node000030" class="edge">
<title>Node2&#45;&gt;Node30</title>
<g id="a_edge29_Node000002_Node000030"><a xlink:title=" ">
<path fill="none" stroke="#8b1a1a" d="M111.69,-805.4C112.26,-760.47 120.11,-656.36 177.5,-599 180.97,-595.53 185.03,-592.69 189.4,-590.36"/>
<polygon fill="#8b1a1a" stroke="#8b1a1a" points="108.19,-805.13 111.69,-815.13 115.19,-805.13 108.19,-805.13"/>
</a>
</g>
</g>
<!-- Node31 -->
<g id="Node000031" class="node">
<title>Node31</title>
<g id="a_Node000031"><a xlink:href="../../d2/d0e/class_static__rock__stone8.html" target="_top" xlink:title=" ">
<polygon fill="white" stroke="#666666" points="294.75,-552 194.75,-552 194.75,-532 294.75,-532 294.75,-552"/>
<text text-anchor="middle" x="244.75" y="-538.5" font-family="Helvetica,sans-Serif" font-size="10.00">Static_rock_stone8</text>
</a>
</g>
</g>
<!-- Node2&#45;&gt;Node31 -->
<g id="edge30_Node000002_Node000031" class="edge">
<title>Node2&#45;&gt;Node31</title>
<g id="a_edge30_Node000002_Node000031"><a xlink:title=" ">
<path fill="none" stroke="#8b1a1a" d="M114.5,-805.66C121.54,-748.96 143.31,-596.51 177.5,-561 182.23,-556.09 188.14,-552.42 194.47,-549.69"/>
<polygon fill="#8b1a1a" stroke="#8b1a1a" points="111.06,-804.93 113.33,-815.28 118.01,-805.77 111.06,-804.93"/>
</a>
</g>
</g>
<!-- Node32 -->
<g id="Node000032" class="node">
<title>Node32</title>
<g id="a_Node000032"><a xlink:href="../../df/d05/class_static__rock__stone8__moss.html" target="_top" xlink:title=" ">
<polygon fill="white" stroke="#666666" points="309.38,-514 180.12,-514 180.12,-494 309.38,-494 309.38,-514"/>
<text text-anchor="middle" x="244.75" y="-500.5" font-family="Helvetica,sans-Serif" font-size="10.00">Static_rock_stone8_moss</text>
</a>
</g>
</g>
<!-- Node2&#45;&gt;Node32 -->
<g id="edge31_Node000002_Node000032" class="edge">
<title>Node2&#45;&gt;Node32</title>
<g id="a_edge31_Node000002_Node000032"><a xlink:title=" ">
<path fill="none" stroke="#8b1a1a" d="M113.79,-805.54C119.42,-743.29 138.69,-564.5 177.5,-523 180.69,-519.59 184.44,-516.78 188.51,-514.46"/>
<polygon fill="#8b1a1a" stroke="#8b1a1a" points="110.34,-804.88 112.96,-815.15 117.31,-805.49 110.34,-804.88"/>
</a>
</g>
</g>
<!-- Node33 -->
<g id="Node000033" class="node">
<title>Node33</title>
<g id="a_Node000033"><a xlink:href="../../d3/d07/class_static__rock__stone9.html" target="_top" xlink:title=" ">
<polygon fill="white" stroke="#666666" points="294.75,-476 194.75,-476 194.75,-456 294.75,-456 294.75,-476"/>
<text text-anchor="middle" x="244.75" y="-462.5" font-family="Helvetica,sans-Serif" font-size="10.00">Static_rock_stone9</text>
</a>
</g>
</g>
<!-- Node2&#45;&gt;Node33 -->
<g id="edge32_Node000002_Node000033" class="edge">
<title>Node2&#45;&gt;Node33</title>
<g id="a_edge32_Node000002_Node000033"><a xlink:title=" ">
<path fill="none" stroke="#8b1a1a" d="M113.23,-805.56C117.53,-738.22 134.02,-532.59 177.5,-485 182.18,-479.88 188.14,-476.1 194.56,-473.32"/>
<polygon fill="#8b1a1a" stroke="#8b1a1a" points="109.75,-805.07 112.64,-815.27 116.74,-805.5 109.75,-805.07"/>
</a>
</g>
</g>
<!-- Node34 -->
<g id="Node000034" class="node">
<title>Node34</title>
<g id="a_Node000034"><a xlink:href="../../d7/d06/class_static__rock__stone9__moss.html" target="_top" xlink:title=" ">
<polygon fill="white" stroke="#666666" points="309.38,-438 180.12,-438 180.12,-418 309.38,-418 309.38,-438"/>
<text text-anchor="middle" x="244.75" y="-424.5" font-family="Helvetica,sans-Serif" font-size="10.00">Static_rock_stone9_moss</text>
</a>
</g>
</g>
<!-- Node2&#45;&gt;Node34 -->
<g id="edge33_Node000002_Node000034" class="edge">
<title>Node2&#45;&gt;Node34</title>
<g id="a_edge33_Node000002_Node000034"><a xlink:title=" ">
<path fill="none" stroke="#8b1a1a" d="M112.78,-805.57C115.84,-733.39 129.32,-500.71 177.5,-447 180.62,-443.53 184.32,-440.67 188.36,-438.32"/>
<polygon fill="#8b1a1a" stroke="#8b1a1a" points="109.3,-805.12 112.4,-815.25 116.29,-805.39 109.3,-805.12"/>
</a>
</g>
</g>
<!-- Node35 -->
<g id="Node000035" class="node">
<title>Node35</title>
<g id="a_Node000035"><a xlink:href="../../d4/d08/class_static__rock__wallh1.html" target="_top" xlink:title=" ">
<polygon fill="white" stroke="#666666" points="293.62,-400 195.88,-400 195.88,-380 293.62,-380 293.62,-400"/>
<text text-anchor="middle" x="244.75" y="-386.5" font-family="Helvetica,sans-Serif" font-size="10.00">Static_rock_wallh1</text>
</a>
</g>
</g>
<!-- Node2&#45;&gt;Node35 -->
<g id="edge34_Node000002_Node000035" class="edge">
<title>Node2&#45;&gt;Node35</title>
<g id="a_edge34_Node000002_Node000035"><a xlink:title=" ">
<path fill="none" stroke="#8b1a1a" d="M112.41,-805.44C114.32,-728.49 124.64,-468.84 177.5,-409 182.33,-403.53 188.62,-399.59 195.4,-396.76"/>
<polygon fill="#8b1a1a" stroke="#8b1a1a" points="108.92,-804.93 112.2,-815.01 115.92,-805.09 108.92,-804.93"/>
</a>
</g>
</g>
<!-- Node36 -->
<g id="Node000036" class="node">
<title>Node36</title>
<g id="a_Node000036"><a xlink:href="../../dc/d08/class_static__rock__wallh2.html" target="_top" xlink:title=" ">
<polygon fill="white" stroke="#666666" points="293.62,-362 195.88,-362 195.88,-342 293.62,-342 293.62,-362"/>
<text text-anchor="middle" x="244.75" y="-348.5" font-family="Helvetica,sans-Serif" font-size="10.00">Static_rock_wallh2</text>
</a>
</g>
</g>
<!-- Node2&#45;&gt;Node36 -->
<g id="edge35_Node000002_Node000036" class="edge">
<title>Node2&#45;&gt;Node36</title>
<g id="a_edge35_Node000002_Node000036"><a xlink:title=" ">
<path fill="none" stroke="#8b1a1a" d="M112.1,-805.36C112.93,-723.91 119.93,-437.02 177.5,-371 182.38,-365.41 188.78,-361.41 195.67,-358.56"/>
<polygon fill="#8b1a1a" stroke="#8b1a1a" points="108.6,-805.26 112.03,-815.28 115.6,-805.31 108.6,-805.26"/>
</a>
</g>
</g>
<!-- Node37 -->
<g id="Node000037" class="node">
<title>Node37</title>
<g id="a_Node000037"><a xlink:href="../../d1/d0d/class_static__rock__wallh3.html" target="_top" xlink:title=" ">
<polygon fill="white" stroke="#666666" points="293.62,-324 195.88,-324 195.88,-304 293.62,-304 293.62,-324"/>
<text text-anchor="middle" x="244.75" y="-310.5" font-family="Helvetica,sans-Serif" font-size="10.00">Static_rock_wallh3</text>
</a>
</g>
</g>
<!-- Node2&#45;&gt;Node37 -->
<g id="edge36_Node000002_Node000037" class="edge">
<title>Node2&#45;&gt;Node37</title>
<g id="a_edge36_Node000002_Node000037"><a xlink:title=" ">
<path fill="none" stroke="#8b1a1a" d="M111.84,-805.5C111.62,-720.01 115.16,-405.29 177.5,-333 182.34,-327.38 188.73,-323.37 195.62,-320.52"/>
<polygon fill="#8b1a1a" stroke="#8b1a1a" points="108.33,-805.3 111.88,-815.28 115.33,-805.26 108.33,-805.3"/>
</a>
</g>
</g>
<!-- Node38 -->
<g id="Node000038" class="node">
<title>Node38</title>
<g id="a_Node000038"><a xlink:href="../../d8/d0d/class_static__rock__wallv.html" target="_top" xlink:title=" ">
<polygon fill="white" stroke="#666666" points="290.25,-286 199.25,-286 199.25,-266 290.25,-266 290.25,-286"/>
<text text-anchor="middle" x="244.75" y="-272.5" font-family="Helvetica,sans-Serif" font-size="10.00">Static_rock_wallv</text>
</a>
</g>
</g>
<!-- Node2&#45;&gt;Node38 -->
<g id="edge37_Node000002_Node000038" class="edge">
<title>Node2&#45;&gt;Node38</title>
<g id="a_edge37_Node000002_Node000038"><a xlink:title=" ">
<path fill="none" stroke="#8b1a1a" d="M111.61,-805.59C110.42,-716.17 110.38,-373.56 177.5,-295 183.1,-288.45 190.78,-284.08 198.95,-281.19"/>
<polygon fill="#8b1a1a" stroke="#8b1a1a" points="108.11,-805.43 111.76,-815.37 115.11,-805.32 108.11,-805.43"/>
</a>
</g>
</g>
<!-- Node39 -->
<g id="Node000039" class="node">
<title>Node39</title>
<g id="a_Node000039"><a xlink:href="../../d9/d0b/class_static__stone1.html" target="_top" xlink:title=" ">
<polygon fill="white" stroke="#666666" points="282.75,-248 206.75,-248 206.75,-228 282.75,-228 282.75,-248"/>
<text text-anchor="middle" x="244.75" y="-234.5" font-family="Helvetica,sans-Serif" font-size="10.00">Static_stone1</text>
</a>
</g>
</g>
<!-- Node2&#45;&gt;Node39 -->
<g id="edge38_Node000002_Node000039" class="edge">
<title>Node2&#45;&gt;Node39</title>
<g id="a_edge38_Node000002_Node000039"><a xlink:title=" ">
<path fill="none" stroke="#8b1a1a" d="M113.09,-805.07C118.25,-705.58 141.37,-299.64 177.5,-257 184.77,-248.42 195.63,-243.58 206.47,-240.89"/>
<polygon fill="#8b1a1a" stroke="#8b1a1a" points="109.6,-804.88 112.59,-815.05 116.59,-805.24 109.6,-804.88"/>
</a>
</g>
</g>
<!-- Node40 -->
<g id="Node000040" class="node">
<title>Node40</title>
<g id="a_Node000040"><a xlink:href="../../d6/d03/class_static__stone2.html" target="_top" xlink:title=" ">
<polygon fill="white" stroke="#666666" points="282.75,-210 206.75,-210 206.75,-190 282.75,-190 282.75,-210"/>
<text text-anchor="middle" x="244.75" y="-196.5" font-family="Helvetica,sans-Serif" font-size="10.00">Static_stone2</text>
</a>
</g>
</g>
<!-- Node2&#45;&gt;Node40 -->
<g id="edge39_Node000002_Node000040" class="edge">
<title>Node2&#45;&gt;Node40</title>
<g id="a_edge39_Node000002_Node000040"><a xlink:title=" ">
<path fill="none" stroke="#8b1a1a" d="M112.91,-805.58C117.43,-702.99 138.91,-264.87 177.5,-219 184.74,-210.39 195.6,-205.55 206.44,-202.86"/>
<polygon fill="#8b1a1a" stroke="#8b1a1a" points="109.42,-805.19 112.48,-815.34 116.41,-805.5 109.42,-805.19"/>
</a>
</g>
</g>
<!-- Node41 -->
<g id="Node000041" class="node">
<title>Node41</title>
<g id="a_Node000041"><a xlink:href="../../dc/d0b/class_static__stone3.html" target="_top" xlink:title=" ">
<polygon fill="white" stroke="#666666" points="282.75,-172 206.75,-172 206.75,-152 282.75,-152 282.75,-172"/>
<text text-anchor="middle" x="244.75" y="-158.5" font-family="Helvetica,sans-Serif" font-size="10.00">Static_stone3</text>
</a>
</g>
</g>
<!-- Node2&#45;&gt;Node41 -->
<g id="edge40_Node000002_Node000041" class="edge">
<title>Node2&#45;&gt;Node41</title>
<g id="a_edge40_Node000002_Node000041"><a xlink:title=" ">
<path fill="none" stroke="#8b1a1a" d="M112.78,-805.27C116.78,-698.19 136.55,-229.99 177.5,-181 184.71,-172.37 195.56,-167.52 206.4,-164.83"/>
<polygon fill="#8b1a1a" stroke="#8b1a1a" points="109.28,-805.09 112.41,-815.21 116.27,-805.34 109.28,-805.09"/>
</a>
</g>
</g>
<!-- Node42 -->
<g id="Node000042" class="node">
<title>Node42</title>
<g id="a_Node000042"><a xlink:href="../../dd/d08/class_static__stone4.html" target="_top" xlink:title=" ">
<polygon fill="white" stroke="#666666" points="282.75,-134 206.75,-134 206.75,-114 282.75,-114 282.75,-134"/>
<text text-anchor="middle" x="244.75" y="-120.5" font-family="Helvetica,sans-Serif" font-size="10.00">Static_stone4</text>
</a>
</g>
</g>
<!-- Node2&#45;&gt;Node42 -->
<g id="edge41_Node000002_Node000042" class="edge">
<title>Node2&#45;&gt;Node42</title>
<g id="a_edge41_Node000002_Node000042"><a xlink:title=" ">
<path fill="none" stroke="#8b1a1a" d="M112.64,-805.38C116.12,-694.77 134.13,-195.18 177.5,-143 184.69,-134.35 195.53,-129.49 206.37,-126.8"/>
<polygon fill="#8b1a1a" stroke="#8b1a1a" points="109.15,-805.03 112.34,-815.13 116.15,-805.24 109.15,-805.03"/>
</a>
</g>
</g>
<!-- Node43 -->
<g id="Node000043" class="node">
<title>Node43</title>
<g id="a_Node000043"><a xlink:href="../../d7/d0c/class_static__stone5.html" target="_top" xlink:title=" ">
<polygon fill="white" stroke="#666666" points="282.75,-96 206.75,-96 206.75,-76 282.75,-76 282.75,-96"/>
<text text-anchor="middle" x="244.75" y="-82.5" font-family="Helvetica,sans-Serif" font-size="10.00">Static_stone5</text>
</a>
</g>
</g>
<!-- Node2&#45;&gt;Node43 -->
<g id="edge42_Node000002_Node000043" class="edge">
<title>Node2&#45;&gt;Node43</title>
<g id="a_edge42_Node000002_Node000043"><a xlink:title=" ">
<path fill="none" stroke="#8b1a1a" d="M112.53,-805.27C115.51,-690.75 131.74,-160.33 177.5,-105 184.67,-96.33 195.5,-91.47 206.35,-88.78"/>
<polygon fill="#8b1a1a" stroke="#8b1a1a" points="109.04,-805.01 112.28,-815.1 116.03,-805.19 109.04,-805.01"/>
</a>
</g>
</g>
<!-- Node45 -->
<g id="Node000045" class="node">
<title>Node45</title>
<g id="a_Node000045"><a xlink:href="../../d1/d03/class_large_tent_clutter_cutter.html" target="_top" xlink:title=" ">
<polygon fill="white" stroke="#666666" points="301.5,-58 188,-58 188,-38 301.5,-38 301.5,-58"/>
<text text-anchor="middle" x="244.75" y="-44.5" font-family="Helvetica,sans-Serif" font-size="10.00">LargeTentClutterCutter</text>
</a>
</g>
</g>
<!-- Node44&#45;&gt;Node45 -->
<g id="edge44_Node000044_Node000045" class="edge">
<title>Node44&#45;&gt;Node45</title>
<g id="a_edge44_Node000044_Node000045"><a xlink:title=" ">
<path fill="none" stroke="#8b1a1a" d="M143.36,-48C156.61,-48 172.46,-48 187.61,-48"/>
<polygon fill="#8b1a1a" stroke="#8b1a1a" points="143.52,-44.5 133.52,-48 143.52,-51.5 143.52,-44.5"/>
</a>
</g>
</g>
<!-- Node46 -->
<g id="Node000046" class="node">
<title>Node46</title>
<g id="a_Node000046"><a xlink:href="../../dc/d03/class_medium_tent_clutter_cutter.html" target="_top" xlink:title=" ">
<polygon fill="white" stroke="#666666" points="306.75,-20 182.75,-20 182.75,0 306.75,0 306.75,-20"/>
<text text-anchor="middle" x="244.75" y="-6.5" font-family="Helvetica,sans-Serif" font-size="10.00">MediumTentClutterCutter</text>
</a>
</g>
</g>
<!-- Node44&#45;&gt;Node46 -->
<g id="edge45_Node000044_Node000046" class="edge">
<title>Node44&#45;&gt;Node46</title>
<g id="a_edge45_Node000044_Node000046"><a xlink:title=" ">
<path fill="none" stroke="#8b1a1a" d="M142.83,-39.04C153.78,-35.86 166.19,-32.26 177.5,-29 187.16,-26.21 197.61,-23.21 207.3,-20.43"/>
<polygon fill="#8b1a1a" stroke="#8b1a1a" points="142.14,-35.59 133.52,-41.74 144.1,-42.31 142.14,-35.59"/>
</a>
</g>
</g>
</g>
</svg>
