<?xml version="1.0" encoding="UTF-8" standalone="no"?>
<!DOCTYPE svg PUBLIC "-//W3C//DTD SVG 1.1//EN"
 "http://www.w3.org/Graphics/SVG/1.1/DTD/svg11.dtd">
<!-- Generated by graphviz version 11.0.0 (20240428.1522)
 -->
<!-- Title: SSG82_Base Pages: 1 -->
<svg width="189pt" height="333pt"
 viewBox="0.00 0.00 189.25 333.00" xmlns="http://www.w3.org/2000/svg" xmlns:xlink="http://www.w3.org/1999/xlink">
<g id="graph0" class="graph" transform="scale(1 1) rotate(0) translate(4 329)">
<title>SSG82_Base</title>
<!-- Node1 -->
<g id="Node000001" class="node">
<title>Node1</title>
<g id="a_Node000001"><a xlink:title=" ">
<polygon fill="#999999" stroke="#666666" points="104.12,-20 28.88,-20 28.88,0 104.12,0 104.12,-20"/>
<text text-anchor="middle" x="66.5" y="-6.5" font-family="Helvetica,sans-Serif" font-size="10.00">SSG82_Base</text>
</a>
</g>
</g>
<!-- Node2 -->
<g id="Node000002" class="node">
<title>Node2</title>
<g id="a_Node000002"><a xlink:href="../../df/d01/class_bolt_action_rifle___external_magazine___base.html" target="_top" xlink:title=" ">
<polygon fill="white" stroke="#666666" points="127,-88 6,-88 6,-56 127,-56 127,-88"/>
<text text-anchor="start" x="14" y="-74.5" font-family="Helvetica,sans-Serif" font-size="10.00">BoltActionRifle_External</text>
<text text-anchor="middle" x="66.5" y="-62.5" font-family="Helvetica,sans-Serif" font-size="10.00">Magazine_Base</text>
</a>
</g>
</g>
<!-- Node2&#45;&gt;Node1 -->
<g id="edge1_Node000001_Node000002" class="edge">
<title>Node2&#45;&gt;Node1</title>
<g id="a_edge1_Node000001_Node000002"><a xlink:title=" ">
<path fill="none" stroke="#8b1a1a" d="M66.5,-44.08C66.5,-35.6 66.5,-26.8 66.5,-20.41"/>
<polygon fill="#8b1a1a" stroke="#8b1a1a" points="63,-44.03 66.5,-54.03 70,-44.03 63,-44.03"/>
</a>
</g>
</g>
<!-- Node3 -->
<g id="Node000003" class="node">
<title>Node3</title>
<g id="a_Node000003"><a xlink:href="../../d3/d0e/class_bolt_action_rifle___base.html" target="_top" xlink:title=" ">
<polygon fill="white" stroke="#666666" points="181.25,-183 73.75,-183 73.75,-163 181.25,-163 181.25,-183"/>
<text text-anchor="middle" x="127.5" y="-169.5" font-family="Helvetica,sans-Serif" font-size="10.00">BoltActionRifle_Base</text>
</a>
</g>
</g>
<!-- Node3&#45;&gt;Node2 -->
<g id="edge2_Node000002_Node000003" class="edge">
<title>Node3&#45;&gt;Node2</title>
<g id="a_edge2_Node000002_Node000003"><a xlink:title=" ">
<path fill="none" stroke="#8b1a1a" d="M115.76,-152.95C104.19,-134.17 86.73,-105.83 76,-88.42"/>
<polygon fill="#8b1a1a" stroke="#8b1a1a" points="112.63,-154.54 120.86,-161.22 118.59,-150.87 112.63,-154.54"/>
</a>
</g>
</g>
<!-- Node4 -->
<g id="Node000004" class="node">
<title>Node4</title>
<g id="a_Node000004"><a xlink:href="../../dc/d0c/class_weapon_stable_state.html" target="_top" xlink:title="represents weapon&#39;s stable state (i.e. the basic states that the weapon will spend the most time in)">
<polygon fill="white" stroke="#666666" points="103,-325 0,-325 0,-305 103,-305 103,-325"/>
<text text-anchor="middle" x="51.5" y="-311.5" font-family="Helvetica,sans-Serif" font-size="10.00">WeaponStableState</text>
</a>
</g>
</g>
<!-- Node4&#45;&gt;Node2 -->
<g id="edge4_Node000002_Node000004" class="edge">
<title>Node4&#45;&gt;Node2</title>
<g id="a_edge4_Node000002_Node000004"><a xlink:title=" ">
<path fill="none" stroke="#9a32cd" stroke-dasharray="5,2" d="M47.61,-293.84C41.57,-259 31.86,-185.45 44.25,-125 46.89,-112.11 52.86,-98.47 57.96,-88.39"/>
<polygon fill="#9a32cd" stroke="#9a32cd" points="44.1,-294.13 49.34,-303.34 50.99,-292.87 44.1,-294.13"/>
</a>
</g>
<text text-anchor="middle" x="53.62" y="-211.5" font-family="Helvetica,sans-Serif" font-size="10.00" fill="grey"> C00</text>
<text text-anchor="middle" x="53.62" y="-199.5" font-family="Helvetica,sans-Serif" font-size="10.00" fill="grey">C01</text>
<text text-anchor="middle" x="53.62" y="-187.5" font-family="Helvetica,sans-Serif" font-size="10.00" fill="grey">C10</text>
<text text-anchor="middle" x="53.62" y="-175.5" font-family="Helvetica,sans-Serif" font-size="10.00" fill="grey">C11</text>
<text text-anchor="middle" x="53.62" y="-163.5" font-family="Helvetica,sans-Serif" font-size="10.00" fill="grey">CF0</text>
<text text-anchor="middle" x="53.62" y="-151.5" font-family="Helvetica,sans-Serif" font-size="10.00" fill="grey">CF1</text>
<text text-anchor="middle" x="53.62" y="-139.5" font-family="Helvetica,sans-Serif" font-size="10.00" fill="grey">JF0</text>
<text text-anchor="middle" x="53.62" y="-127.5" font-family="Helvetica,sans-Serif" font-size="10.00" fill="grey">JF1</text>
</g>
<!-- Node4&#45;&gt;Node3 -->
<g id="edge3_Node000003_Node000004" class="edge">
<title>Node4&#45;&gt;Node3</title>
<g id="a_edge3_Node000003_Node000004"><a xlink:title=" ">
<path fill="none" stroke="#9a32cd" stroke-dasharray="5,2" d="M61.81,-295.01C78.31,-264.62 110.04,-206.17 122.4,-183.4"/>
<polygon fill="#9a32cd" stroke="#9a32cd" points="58.9,-293.03 57.21,-303.48 65.06,-296.37 58.9,-293.03"/>
</a>
</g>
<text text-anchor="middle" x="99" y="-277.5" font-family="Helvetica,sans-Serif" font-size="10.00" fill="grey"> C0</text>
<text text-anchor="middle" x="99" y="-265.5" font-family="Helvetica,sans-Serif" font-size="10.00" fill="grey">C1</text>
<text text-anchor="middle" x="99" y="-253.5" font-family="Helvetica,sans-Serif" font-size="10.00" fill="grey">D1</text>
<text text-anchor="middle" x="99" y="-241.5" font-family="Helvetica,sans-Serif" font-size="10.00" fill="grey">JF</text>
</g>
</g>
</svg>
