<?xml version="1.0" encoding="UTF-8" standalone="no"?>
<!DOCTYPE svg PUBLIC "-//W3C//DTD SVG 1.1//EN"
 "http://www.w3.org/Graphics/SVG/1.1/DTD/svg11.dtd">
<!-- Generated by graphviz version 11.0.0 (20240428.1522)
 -->
<!-- Title: DefaultActionInput Pages: 1 -->
<svg width="260pt" height="140pt"
 viewBox="0.00 0.00 259.88 140.00" xmlns="http://www.w3.org/2000/svg" xmlns:xlink="http://www.w3.org/1999/xlink">

<svg id="main" version="1.1" xmlns="http://www.w3.org/2000/svg" xmlns:xlink="http://www.w3.org/1999/xlink" xml:space="preserve" onload="init(evt)">
<style type="text/css"><![CDATA[
.node, .edge {opacity: 0.7;}
.node.selected, .edge.selected {opacity: 1;}
.edge:hover path { stroke: red; }
.edge:hover polygon { stroke: red; fill: red; }
]]></style>
<script type="application/ecmascript" xlink:href="../../svg.min.js"/>
<svg id="graph" class="graph">
<g id="graph0" class="graph" transform="scale(1 1) rotate(0) translate(4 136)">
<title>DefaultActionInput</title>
<!-- Node1 -->
<g id="Node000001" class="node">
<title>Node1</title>
<g id="a_Node000001"><a xlink:title=" ">
<polygon fill="#999999" stroke="#666666" points="174.12,-76 79.38,-76 79.38,-56 174.12,-56 174.12,-76"/>
<text text-anchor="middle" x="126.75" y="-62.5" font-family="Helvetica,sans-Serif" font-size="10.00">DefaultActionInput</text>
</a>
</g>
</g>
<!-- Node3 -->
<g id="Node000003" class="node">
<title>Node3</title>
<g id="a_Node000003"><a xlink:href="../../d0/d08/class_toggle_lights_action_input.html" target="_top" xlink:title=" ">
<polygon fill="white" stroke="#666666" points="119.5,-20 0,-20 0,0 119.5,0 119.5,-20"/>
<text text-anchor="middle" x="59.75" y="-6.5" font-family="Helvetica,sans-Serif" font-size="10.00">ToggleLightsActionInput</text>
</a>
</g>
</g>
<!-- Node1&#45;&gt;Node3 -->
<g id="edge2_Node000001_Node000003" class="edge">
<title>Node1&#45;&gt;Node3</title>
<g id="a_edge2_Node000001_Node000003"><a xlink:title=" ">
<path fill="none" stroke="#8b1a1a" d="M106.16,-48.4C94.7,-39.17 80.85,-28.01 71.29,-20.3"/>
<polygon fill="#8b1a1a" stroke="#8b1a1a" points="103.92,-51.09 113.9,-54.64 108.31,-45.64 103.92,-51.09"/>
</a>
</g>
</g>
<!-- Node4 -->
<g id="Node000004" class="node">
<title>Node4</title>
<g id="a_Node000004"><a xlink:href="../../d8/d05/class_toggle_n_v_g_action_input.html" target="_top" xlink:title=" ">
<polygon fill="white" stroke="#666666" points="251.88,-20 137.62,-20 137.62,0 251.88,0 251.88,-20"/>
<text text-anchor="middle" x="194.75" y="-6.5" font-family="Helvetica,sans-Serif" font-size="10.00">ToggleNVGActionInput</text>
</a>
</g>
</g>
<!-- Node1&#45;&gt;Node4 -->
<g id="edge3_Node000001_Node000004" class="edge">
<title>Node1&#45;&gt;Node4</title>
<g id="a_edge3_Node000001_Node000004"><a xlink:title=" ">
<path fill="none" stroke="#8b1a1a" d="M147.3,-48.68C159,-39.39 173.23,-28.09 183.04,-20.3"/>
<polygon fill="#8b1a1a" stroke="#8b1a1a" points="145.43,-45.69 139.78,-54.65 149.79,-51.17 145.43,-45.69"/>
</a>
</g>
</g>
<!-- Node2 -->
<g id="Node000002" class="node">
<title>Node2</title>
<g id="a_Node000002"><a xlink:title=" ">
<polygon fill="white" stroke="#666666" points="198.5,-132 55,-132 55,-112 198.5,-112 198.5,-132"/>
<text text-anchor="middle" x="126.75" y="-118.5" font-family="Helvetica,sans-Serif" font-size="10.00">ContinuousDefaultActionInput</text>
</a>
</g>
</g>
<!-- Node2&#45;&gt;Node1 -->
<g id="edge1_Node000001_Node000002" class="edge">
<title>Node2&#45;&gt;Node1</title>
<g id="a_edge1_Node000001_Node000002"><a xlink:title=" ">
<path fill="none" stroke="#8b1a1a" d="M126.75,-100.13C126.75,-91.9 126.75,-82.85 126.75,-76.3"/>
<polygon fill="#8b1a1a" stroke="#8b1a1a" points="123.25,-100.08 126.75,-110.08 130.25,-100.08 123.25,-100.08"/>
</a>
</g>
</g>
</g>
</svg>
</svg>

<style type='text/css'>
<![CDATA[
[data-mouse-over-selected='false'] { opacity: 0.7; }
[data-mouse-over-selected='true']  { opacity: 1.0; }
]]>
</style>
<script type="application/ecmascript"><![CDATA[
document.addEventListener('DOMContentLoaded', (event) => {
  highlightEdges();
  highlightAdjacentNodes();
});
]]></script>
</svg>
