<?xml version="1.0" encoding="UTF-8" standalone="no"?>
<!DOCTYPE svg PUBLIC "-//W3C//DTD SVG 1.1//EN"
 "http://www.w3.org/Graphics/SVG/1.1/DTD/svg11.dtd">
<!-- Generated by graphviz version 11.0.0 (20240428.1522)
 -->
<!-- Title: FirearmActionAttachMagazineQuick Pages: 1 -->
<svg width="155pt" height="152pt"
 viewBox="0.00 0.00 155.25 152.00" xmlns="http://www.w3.org/2000/svg" xmlns:xlink="http://www.w3.org/1999/xlink">
<g id="graph0" class="graph" transform="scale(1 1) rotate(0) translate(4 148)">
<title>FirearmActionAttachMagazineQuick</title>
<!-- Node1 -->
<g id="Node000001" class="node">
<title>Node1</title>
<g id="a_Node000001"><a xlink:title=" ">
<polygon fill="#999999" stroke="#666666" points="147.25,-32 0,-32 0,0 147.25,0 147.25,-32"/>
<text text-anchor="start" x="8" y="-18.5" font-family="Helvetica,sans-Serif" font-size="10.00">FirearmActionAttachMagazine</text>
<text text-anchor="middle" x="73.62" y="-6.5" font-family="Helvetica,sans-Serif" font-size="10.00">Quick</text>
</a>
</g>
</g>
<!-- Node2 -->
<g id="Node000002" class="node">
<title>Node2</title>
<g id="a_Node000002"><a xlink:href="../../d1/d0a/class_firearm_action_base.html" target="_top" xlink:title=" ">
<polygon fill="white" stroke="#666666" points="123.25,-88 24,-88 24,-68 123.25,-68 123.25,-88"/>
<text text-anchor="middle" x="73.62" y="-74.5" font-family="Helvetica,sans-Serif" font-size="10.00">FirearmActionBase</text>
</a>
</g>
</g>
<!-- Node2&#45;&gt;Node1 -->
<g id="edge1_Node000001_Node000002" class="edge">
<title>Node2&#45;&gt;Node1</title>
<g id="a_edge1_Node000001_Node000002"><a xlink:title=" ">
<path fill="none" stroke="#8b1a1a" d="M73.62,-56.31C73.62,-48.37 73.62,-39.46 73.62,-32.14"/>
<polygon fill="#8b1a1a" stroke="#8b1a1a" points="70.13,-56.11 73.63,-66.11 77.13,-56.11 70.13,-56.11"/>
</a>
</g>
</g>
<!-- Node3 -->
<g id="Node000003" class="node">
<title>Node3</title>
<g id="a_Node000003"><a xlink:title=" ">
<polygon fill="white" stroke="#666666" points="106.75,-144 40.5,-144 40.5,-124 106.75,-124 106.75,-144"/>
<text text-anchor="middle" x="73.62" y="-130.5" font-family="Helvetica,sans-Serif" font-size="10.00">ActionBase</text>
</a>
</g>
</g>
<!-- Node3&#45;&gt;Node2 -->
<g id="edge2_Node000002_Node000003" class="edge">
<title>Node3&#45;&gt;Node2</title>
<g id="a_edge2_Node000002_Node000003"><a xlink:title=" ">
<path fill="none" stroke="#8b1a1a" d="M73.62,-112.13C73.62,-103.9 73.62,-94.85 73.62,-88.3"/>
<polygon fill="#8b1a1a" stroke="#8b1a1a" points="70.13,-112.08 73.63,-122.08 77.13,-112.08 70.13,-112.08"/>
</a>
</g>
</g>
</g>
</svg>
