<?xml version="1.0" encoding="UTF-8" standalone="no"?>
<!DOCTYPE svg PUBLIC "-//W3C//DTD SVG 1.1//EN"
 "http://www.w3.org/Graphics/SVG/1.1/DTD/svg11.dtd">
<!-- Generated by graphviz version 11.0.0 (20240428.1522)
 -->
<!-- Title: WeaponInventory Pages: 1 -->
<svg width="310pt" height="272pt"
 viewBox="0.00 0.00 310.12 272.00" xmlns="http://www.w3.org/2000/svg" xmlns:xlink="http://www.w3.org/1999/xlink">

<svg id="main" version="1.1" xmlns="http://www.w3.org/2000/svg" xmlns:xlink="http://www.w3.org/1999/xlink" xml:space="preserve" onload="init(evt)">
<style type="text/css"><![CDATA[
.node, .edge {opacity: 0.7;}
.node.selected, .edge.selected {opacity: 1;}
.edge:hover path { stroke: red; }
.edge:hover polygon { stroke: red; fill: red; }
]]></style>
<script type="application/ecmascript" xlink:href="../../svg.min.js"/>
<svg id="graph" class="graph">
<g id="graph0" class="graph" transform="scale(1 1) rotate(0) translate(4 268)">
<title>WeaponInventory</title>
<!-- Node1 -->
<g id="Node000001" class="node">
<title>Node1</title>
<g id="a_Node000001"><a xlink:title="inventory for weapons">
<polygon fill="#999999" stroke="#666666" points="150,-20 59.75,-20 59.75,0 150,0 150,-20"/>
<text text-anchor="middle" x="104.88" y="-6.5" font-family="Helvetica,sans-Serif" font-size="10.00">WeaponInventory</text>
</a>
</g>
</g>
<!-- Node2 -->
<g id="Node000002" class="node">
<title>Node2</title>
<g id="a_Node000002"><a xlink:href="../../d1/d06/class_item_inventory.html" target="_top" xlink:title=" ">
<polygon fill="white" stroke="#666666" points="141.38,-76 68.38,-76 68.38,-56 141.38,-56 141.38,-76"/>
<text text-anchor="middle" x="104.88" y="-62.5" font-family="Helvetica,sans-Serif" font-size="10.00">ItemInventory</text>
</a>
</g>
</g>
<!-- Node2&#45;&gt;Node1 -->
<g id="edge1_Node000001_Node000002" class="edge">
<title>Node2&#45;&gt;Node1</title>
<g id="a_edge1_Node000001_Node000002"><a xlink:title=" ">
<path fill="none" stroke="#8b1a1a" d="M104.88,-44.13C104.88,-35.9 104.88,-26.85 104.88,-20.3"/>
<polygon fill="#8b1a1a" stroke="#8b1a1a" points="101.38,-44.08 104.88,-54.08 108.38,-44.08 101.38,-44.08"/>
</a>
</g>
</g>
<!-- Node3 -->
<g id="Node000003" class="node">
<title>Node3</title>
<g id="a_Node000003"><a xlink:href="../../dc/d01/class_game_inventory.html" target="_top" xlink:title="script counterpart to engine&#39;s class Inventory">
<polygon fill="white" stroke="#666666" points="145.12,-132 64.62,-132 64.62,-112 145.12,-112 145.12,-132"/>
<text text-anchor="middle" x="104.88" y="-118.5" font-family="Helvetica,sans-Serif" font-size="10.00">GameInventory</text>
</a>
</g>
</g>
<!-- Node3&#45;&gt;Node2 -->
<g id="edge2_Node000002_Node000003" class="edge">
<title>Node3&#45;&gt;Node2</title>
<g id="a_edge2_Node000002_Node000003"><a xlink:title=" ">
<path fill="none" stroke="#8b1a1a" d="M104.88,-100.13C104.88,-91.9 104.88,-82.85 104.88,-76.3"/>
<polygon fill="#8b1a1a" stroke="#8b1a1a" points="101.38,-100.08 104.88,-110.08 108.38,-100.08 101.38,-100.08"/>
</a>
</g>
</g>
<!-- Node4 -->
<g id="Node000004" class="node">
<title>Node4</title>
<g id="a_Node000004"><a xlink:href="../../db/d06/class_param3.html" target="_top" xlink:title=" ">
<polygon fill="white" stroke="#666666" points="49.75,-256 0,-256 0,-236 49.75,-236 49.75,-256"/>
<text text-anchor="middle" x="24.88" y="-242.5" font-family="Helvetica,sans-Serif" font-size="10.00">Param3</text>
</a>
</g>
</g>
<!-- Node4&#45;&gt;Node3 -->
<g id="edge3_Node000003_Node000004" class="edge">
<title>Node4&#45;&gt;Node3</title>
<g id="a_edge3_Node000003_Node000004"><a xlink:title=" ">
<path fill="none" stroke="#9a32cd" stroke-dasharray="5,2" d="M18.93,-224.5C14.22,-203.69 10.74,-171.55 26.38,-150 35.26,-137.75 50.06,-131.01 64.44,-127.32"/>
<polygon fill="#9a32cd" stroke="#9a32cd" points="15.52,-225.27 21.41,-234.07 22.29,-223.52 15.52,-225.27"/>
</a>
</g>
<text text-anchor="start" x="26.88" y="-200.5" font-family="Helvetica,sans-Serif" font-size="10.00" fill="grey"> c_InventoryReservationTimeout</text>
<text text-anchor="middle" x="95.12" y="-188.5" font-family="Helvetica,sans-Serif" font-size="10.00" fill="grey">MS</text>
<text text-anchor="start" x="26.88" y="-176.5" font-family="Helvetica,sans-Serif" font-size="10.00" fill="grey">c_InventoryReservationTimeout</text>
<text text-anchor="middle" x="95.12" y="-164.5" font-family="Helvetica,sans-Serif" font-size="10.00" fill="grey">ShortMS</text>
<text text-anchor="middle" x="95.12" y="-152.5" font-family="Helvetica,sans-Serif" font-size="10.00" fill="grey">m_inventory_check_context</text>
</g>
<!-- Node5 -->
<g id="Node000005" class="node">
<title>Node5</title>
<g id="a_Node000005"><a xlink:href="../../d4/d03/classfloat.html" target="_top" xlink:title=" ">
<polygon fill="white" stroke="#666666" points="201.88,-256 167.88,-256 167.88,-236 201.88,-236 201.88,-256"/>
<text text-anchor="middle" x="184.88" y="-242.5" font-family="Helvetica,sans-Serif" font-size="10.00">float</text>
</a>
</g>
</g>
<!-- Node5&#45;&gt;Node3 -->
<g id="edge4_Node000003_Node000005" class="edge">
<title>Node5&#45;&gt;Node3</title>
<g id="a_edge4_Node000003_Node000005"><a xlink:title=" ">
<path fill="none" stroke="#9a32cd" stroke-dasharray="5,2" d="M185.13,-224.4C184.34,-203.48 180.09,-171.23 162.88,-150 156.51,-142.15 147.34,-136.47 138.17,-132.41"/>
<polygon fill="#9a32cd" stroke="#9a32cd" points="181.63,-224.28 185.25,-234.24 188.63,-224.2 181.63,-224.28"/>
</a>
</g>
<text text-anchor="middle" x="242.5" y="-176.5" font-family="Helvetica,sans-Serif" font-size="10.00" fill="grey"> c_MaxItemDistanceRadius</text>
</g>
<!-- Node5&#45;&gt;Node5 -->
<g id="edge5_Node000005_Node000005" class="edge">
<title>Node5&#45;&gt;Node5</title>
<g id="a_edge5_Node000005_Node000005"><a xlink:title=" ">
<path fill="none" stroke="#9a32cd" stroke-dasharray="5,2" d="M209.08,-258.23C215.25,-257.43 219.88,-253.35 219.88,-246 219.88,-234.53 208.59,-231.03 197.8,-235.51"/>
<polygon fill="#9a32cd" stroke="#9a32cd" points="209.71,-254.78 199.29,-256.72 208.64,-261.7 209.71,-254.78"/>
</a>
</g>
<text text-anchor="middle" x="242" y="-254.5" font-family="Helvetica,sans-Serif" font-size="10.00" fill="grey"> LOWEST</text>
<text text-anchor="middle" x="242" y="-242.5" font-family="Helvetica,sans-Serif" font-size="10.00" fill="grey">MAX</text>
<text text-anchor="middle" x="242" y="-230.5" font-family="Helvetica,sans-Serif" font-size="10.00" fill="grey">MIN</text>
</g>
</g>
</svg>
</svg>

<style type='text/css'>
<![CDATA[
[data-mouse-over-selected='false'] { opacity: 0.7; }
[data-mouse-over-selected='true']  { opacity: 1.0; }
]]>
</style>
<script type="application/ecmascript"><![CDATA[
document.addEventListener('DOMContentLoaded', (event) => {
  highlightEdges();
  highlightAdjacentNodes();
});
]]></script>
</svg>
