<?xml version="1.0" encoding="UTF-8" standalone="no"?>
<!DOCTYPE svg PUBLIC "-//W3C//DTD SVG 1.1//EN"
 "http://www.w3.org/Graphics/SVG/1.1/DTD/svg11.dtd">
<!-- Generated by graphviz version 11.0.0 (20240428.1522)
 -->
<!-- Title: PaddedGloves_Beige Pages: 1 -->
<svg width="424pt" height="388pt"
 viewBox="0.00 0.00 424.38 388.00" xmlns="http://www.w3.org/2000/svg" xmlns:xlink="http://www.w3.org/1999/xlink">
<g id="graph0" class="graph" transform="scale(1 1) rotate(0) translate(4 384)">
<title>PaddedGloves_Beige</title>
<!-- Node1 -->
<g id="Node000001" class="node">
<title>Node1</title>
<g id="a_Node000001"><a xlink:title=" ">
<polygon fill="#999999" stroke="#666666" points="243,-20 134.75,-20 134.75,0 243,0 243,-20"/>
<text text-anchor="middle" x="188.88" y="-6.5" font-family="Helvetica,sans-Serif" font-size="10.00">PaddedGloves_Beige</text>
</a>
</g>
</g>
<!-- Node2 -->
<g id="Node000002" class="node">
<title>Node2</title>
<g id="a_Node000002"><a xlink:href="../../d8/d00/class_padded_gloves___color_base.html" target="_top" xlink:title=" ">
<polygon fill="white" stroke="#666666" points="253.12,-76 124.62,-76 124.62,-56 253.12,-56 253.12,-76"/>
<text text-anchor="middle" x="188.88" y="-62.5" font-family="Helvetica,sans-Serif" font-size="10.00">PaddedGloves_ColorBase</text>
</a>
</g>
</g>
<!-- Node2&#45;&gt;Node1 -->
<g id="edge1_Node000001_Node000002" class="edge">
<title>Node2&#45;&gt;Node1</title>
<g id="a_edge1_Node000001_Node000002"><a xlink:title=" ">
<path fill="none" stroke="#8b1a1a" d="M188.88,-44.13C188.88,-35.9 188.88,-26.85 188.88,-20.3"/>
<polygon fill="#8b1a1a" stroke="#8b1a1a" points="185.38,-44.08 188.88,-54.08 192.38,-44.08 185.38,-44.08"/>
</a>
</g>
</g>
<!-- Node3 -->
<g id="Node000003" class="node">
<title>Node3</title>
<g id="a_Node000003"><a xlink:href="../../df/d03/class_gloves___base.html" target="_top" xlink:title=" ">
<polygon fill="white" stroke="#666666" points="225.38,-132 152.38,-132 152.38,-112 225.38,-112 225.38,-132"/>
<text text-anchor="middle" x="188.88" y="-118.5" font-family="Helvetica,sans-Serif" font-size="10.00">Gloves_Base</text>
</a>
</g>
</g>
<!-- Node3&#45;&gt;Node2 -->
<g id="edge2_Node000002_Node000003" class="edge">
<title>Node3&#45;&gt;Node2</title>
<g id="a_edge2_Node000002_Node000003"><a xlink:title=" ">
<path fill="none" stroke="#8b1a1a" d="M188.88,-100.13C188.88,-91.9 188.88,-82.85 188.88,-76.3"/>
<polygon fill="#8b1a1a" stroke="#8b1a1a" points="185.38,-100.08 188.88,-110.08 192.38,-100.08 185.38,-100.08"/>
</a>
</g>
</g>
<!-- Node4 -->
<g id="Node000004" class="node">
<title>Node4</title>
<g id="a_Node000004"><a xlink:href="../../d8/d04/class_clothing.html" target="_top" xlink:title=" ">
<polygon fill="white" stroke="#666666" points="214.5,-188 163.25,-188 163.25,-168 214.5,-168 214.5,-188"/>
<text text-anchor="middle" x="188.88" y="-174.5" font-family="Helvetica,sans-Serif" font-size="10.00">Clothing</text>
</a>
</g>
</g>
<!-- Node4&#45;&gt;Node3 -->
<g id="edge3_Node000003_Node000004" class="edge">
<title>Node4&#45;&gt;Node3</title>
<g id="a_edge3_Node000003_Node000004"><a xlink:title=" ">
<path fill="none" stroke="#8b1a1a" d="M188.88,-156.13C188.88,-147.9 188.88,-138.85 188.88,-132.3"/>
<polygon fill="#8b1a1a" stroke="#8b1a1a" points="185.38,-156.08 188.88,-166.08 192.38,-156.08 185.38,-156.08"/>
</a>
</g>
</g>
<!-- Node5 -->
<g id="Node000005" class="node">
<title>Node5</title>
<g id="a_Node000005"><a xlink:href="../../db/d06/class_param3.html" target="_top" xlink:title=" ">
<polygon fill="white" stroke="#666666" points="49.75,-366 0,-366 0,-346 49.75,-346 49.75,-366"/>
<text text-anchor="middle" x="24.88" y="-352.5" font-family="Helvetica,sans-Serif" font-size="10.00">Param3</text>
</a>
</g>
</g>
<!-- Node5&#45;&gt;Node4 -->
<g id="edge4_Node000004_Node000005" class="edge">
<title>Node5&#45;&gt;Node4</title>
<g id="a_edge4_Node000004_Node000005"><a xlink:title=" ">
<path fill="none" stroke="#9a32cd" stroke-dasharray="5,2" d="M18.01,-334.63C8.77,-302.99 -3.18,-241.96 27.88,-206 45.06,-186.11 121.87,-180.87 162.88,-179.49"/>
<polygon fill="#9a32cd" stroke="#9a32cd" points="14.65,-335.61 20.99,-344.1 21.33,-333.51 14.65,-335.61"/>
</a>
</g>
<text text-anchor="middle" x="63.88" y="-262.5" font-family="Helvetica,sans-Serif" font-size="10.00" fill="grey"> GLASS_ID</text>
<text text-anchor="middle" x="63.88" y="-250.5" font-family="Helvetica,sans-Serif" font-size="10.00" fill="grey">REFLECTOR_ID</text>
</g>
<!-- Node6 -->
<g id="Node000006" class="node">
<title>Node6</title>
<g id="a_Node000006"><a xlink:href="../../d5/d02/classstring.html" target="_top" xlink:title=" ">
<polygon fill="white" stroke="#666666" points="139.88,-366 99.88,-366 99.88,-346 139.88,-346 139.88,-366"/>
<text text-anchor="middle" x="119.88" y="-352.5" font-family="Helvetica,sans-Serif" font-size="10.00">string</text>
</a>
</g>
</g>
<!-- Node6&#45;&gt;Node4 -->
<g id="edge5_Node000004_Node000006" class="edge">
<title>Node6&#45;&gt;Node4</title>
<g id="a_edge5_Node000004_Node000006"><a xlink:title=" ">
<path fill="none" stroke="#9a32cd" stroke-dasharray="5,2" d="M113.46,-334.55C105.12,-303.73 94.55,-244.84 121.12,-206 130.49,-192.31 148.01,-185.56 162.89,-182.23"/>
<polygon fill="#9a32cd" stroke="#9a32cd" points="110.08,-335.5 116.25,-344.12 116.8,-333.54 110.08,-335.5"/>
</a>
</g>
<text text-anchor="middle" x="178.25" y="-304.5" font-family="Helvetica,sans-Serif" font-size="10.00" fill="grey"> LIGHT_OFF_GLASS</text>
<text text-anchor="middle" x="178.25" y="-292.5" font-family="Helvetica,sans-Serif" font-size="10.00" fill="grey">LIGHT_OFF_REFLECTOR</text>
<text text-anchor="middle" x="178.25" y="-280.5" font-family="Helvetica,sans-Serif" font-size="10.00" fill="grey">LIGHT_ON_GLASS</text>
<text text-anchor="middle" x="178.25" y="-268.5" font-family="Helvetica,sans-Serif" font-size="10.00" fill="grey">LIGHT_ON_GLASS_RED</text>
<text text-anchor="middle" x="178.25" y="-256.5" font-family="Helvetica,sans-Serif" font-size="10.00" fill="grey">LIGHT_ON_REFLECTOR</text>
<text text-anchor="start" x="120.88" y="-244.5" font-family="Helvetica,sans-Serif" font-size="10.00" fill="grey">LIGHT_ON_REFLECTOR</text>
<text text-anchor="middle" x="178.25" y="-232.5" font-family="Helvetica,sans-Serif" font-size="10.00" fill="grey">_RED</text>
<text text-anchor="middle" x="178.25" y="-220.5" font-family="Helvetica,sans-Serif" font-size="10.00" fill="grey">m_OffHeadLightPoint</text>
<text text-anchor="middle" x="178.25" y="-208.5" font-family="Helvetica,sans-Serif" font-size="10.00" fill="grey">m_OffHeadLightTarget</text>
</g>
<!-- Node6&#45;&gt;Node6 -->
<g id="edge6_Node000006_Node000006" class="edge">
<title>Node6&#45;&gt;Node6</title>
<g id="a_edge6_Node000006_Node000006"><a xlink:title=" ">
<path fill="none" stroke="#9a32cd" stroke-dasharray="5,2" d="M136.68,-372.58C147.48,-376.9 157.88,-371.37 157.88,-356 157.88,-336.12 140.5,-332.71 127.34,-345.75"/>
<polygon fill="#9a32cd" stroke="#9a32cd" points="138.83,-369.81 128.59,-367.1 134.91,-375.6 138.83,-369.81"/>
</a>
</g>
<text text-anchor="middle" x="173.62" y="-352.5" font-family="Helvetica,sans-Serif" font-size="10.00" fill="grey"> Empty</text>
</g>
<!-- Node7 -->
<g id="Node000007" class="node">
<title>Node7</title>
<g id="a_Node000007"><a xlink:href="../../d7/d0c/classvector.html" target="_top" xlink:title=" ">
<polygon fill="white" stroke="#666666" points="278.62,-366 237.12,-366 237.12,-346 278.62,-346 278.62,-366"/>
<text text-anchor="middle" x="257.88" y="-352.5" font-family="Helvetica,sans-Serif" font-size="10.00">vector</text>
</a>
</g>
</g>
<!-- Node7&#45;&gt;Node4 -->
<g id="edge7_Node000004_Node000007" class="edge">
<title>Node7&#45;&gt;Node4</title>
<g id="a_edge7_Node000004_Node000007"><a xlink:title=" ">
<path fill="none" stroke="#9a32cd" stroke-dasharray="5,2" d="M257.02,-334.32C255.19,-298.44 249.84,-226.5 235.88,-206 230.68,-198.38 222.58,-192.64 214.55,-188.45"/>
<polygon fill="#9a32cd" stroke="#9a32cd" points="253.52,-334.41 257.48,-344.24 260.51,-334.09 253.52,-334.41"/>
</a>
</g>
<text text-anchor="middle" x="299.5" y="-262.5" font-family="Helvetica,sans-Serif" font-size="10.00" fill="grey"> m_OnHeadLocalOri</text>
<text text-anchor="middle" x="299.5" y="-250.5" font-family="Helvetica,sans-Serif" font-size="10.00" fill="grey">m_OnHeadLocalPos</text>
</g>
<!-- Node7&#45;&gt;Node7 -->
<g id="edge8_Node000007_Node000007" class="edge">
<title>Node7&#45;&gt;Node7</title>
<g id="a_edge8_Node000007_Node000007"><a xlink:title=" ">
<path fill="none" stroke="#9a32cd" stroke-dasharray="5,2" d="M275.01,-372.58C286.03,-376.9 296.62,-371.37 296.62,-356 296.62,-336.12 278.91,-332.71 265.48,-345.75"/>
<polygon fill="#9a32cd" stroke="#9a32cd" points="277.01,-369.7 266.74,-367.09 273.14,-375.53 277.01,-369.7"/>
</a>
</g>
<text text-anchor="middle" x="313.88" y="-370.5" font-family="Helvetica,sans-Serif" font-size="10.00" fill="grey"> Aside</text>
<text text-anchor="middle" x="313.88" y="-358.5" font-family="Helvetica,sans-Serif" font-size="10.00" fill="grey">Forward</text>
<text text-anchor="middle" x="313.88" y="-346.5" font-family="Helvetica,sans-Serif" font-size="10.00" fill="grey">Up</text>
<text text-anchor="middle" x="313.88" y="-334.5" font-family="Helvetica,sans-Serif" font-size="10.00" fill="grey">Zero</text>
</g>
<!-- Node8 -->
<g id="Node000008" class="node">
<title>Node8</title>
<g id="a_Node000008"><a xlink:href="../../d8/d08/class_timer.html" target="_top" xlink:title=" ">
<polygon fill="white" stroke="#666666" points="389.88,-366 349.88,-366 349.88,-346 389.88,-346 389.88,-366"/>
<text text-anchor="middle" x="369.88" y="-352.5" font-family="Helvetica,sans-Serif" font-size="10.00">Timer</text>
</a>
</g>
</g>
<!-- Node8&#45;&gt;Node4 -->
<g id="edge9_Node000004_Node000008" class="edge">
<title>Node8&#45;&gt;Node4</title>
<g id="a_edge9_Node000004_Node000008"><a xlink:title=" ">
<path fill="none" stroke="#9a32cd" stroke-dasharray="5,2" d="M373.58,-334.7C378.15,-302.66 381.62,-240.48 347.88,-206 329.81,-187.54 255.2,-181.66 214.93,-179.82"/>
<polygon fill="#9a32cd" stroke="#9a32cd" points="370.18,-333.8 372.03,-344.23 377.09,-334.92 370.18,-333.8"/>
</a>
</g>
<text text-anchor="middle" x="396.12" y="-256.5" font-family="Helvetica,sans-Serif" font-size="10.00" fill="grey"> m_Timer</text>
</g>
</g>
</svg>
