<?xml version="1.0" encoding="UTF-8" standalone="no"?>
<!DOCTYPE svg PUBLIC "-//W3C//DTD SVG 1.1//EN"
 "http://www.w3.org/Graphics/SVG/1.1/DTD/svg11.dtd">
<!-- Generated by graphviz version 11.0.0 (20240428.1522)
 -->
<!-- Title: ChainedDropAndRestrainLambda Pages: 1 -->
<svg width="351pt" height="361pt"
 viewBox="0.00 0.00 351.02 361.00" xmlns="http://www.w3.org/2000/svg" xmlns:xlink="http://www.w3.org/1999/xlink">

<svg id="main" version="1.1" xmlns="http://www.w3.org/2000/svg" xmlns:xlink="http://www.w3.org/1999/xlink" xml:space="preserve" onload="init(evt)">
<style type="text/css"><![CDATA[
.node, .edge {opacity: 0.7;}
.node.selected, .edge.selected {opacity: 1;}
.edge:hover path { stroke: red; }
.edge:hover polygon { stroke: red; fill: red; }
]]></style>
<script type="application/ecmascript" xlink:href="../../svg.min.js"/>
<svg id="graph" class="graph">
<g id="graph0" class="graph" transform="scale(1 1) rotate(0) translate(4 357)">
<title>ChainedDropAndRestrainLambda</title>
<!-- Node1 -->
<g id="Node000001" class="node">
<title>Node1</title>
<g id="a_Node000001"><a xlink:title=" ">
<polygon fill="#999999" stroke="#666666" points="291.89,-20 132.64,-20 132.64,0 291.89,0 291.89,-20"/>
<text text-anchor="middle" x="212.27" y="-6.5" font-family="Helvetica,sans-Serif" font-size="10.00">ChainedDropAndRestrainLambda</text>
</a>
</g>
</g>
<!-- Node2 -->
<g id="Node000002" class="node">
<title>Node2</title>
<g id="a_Node000002"><a xlink:href="../../d2/d0a/class_destroy_item_in_corpses_hands_and_create_new_on_gnd_lambda.html" target="_top" xlink:title=" ">
<polygon fill="white" stroke="#666666" points="230.14,-89 84.39,-89 84.39,-57 230.14,-57 230.14,-89"/>
<text text-anchor="start" x="92.39" y="-75.5" font-family="Helvetica,sans-Serif" font-size="10.00">DestroyItemInCorpsesHands</text>
<text text-anchor="middle" x="157.27" y="-63.5" font-family="Helvetica,sans-Serif" font-size="10.00">AndCreateNewOnGndLambda</text>
</a>
</g>
</g>
<!-- Node2&#45;&gt;Node1 -->
<g id="edge1_Node000001_Node000002" class="edge">
<title>Node2&#45;&gt;Node1</title>
<g id="a_edge1_Node000001_Node000002"><a xlink:title=" ">
<path fill="none" stroke="#8b1a1a" d="M178.85,-48.06C187.61,-38.34 197.22,-27.69 203.87,-20.31"/>
<polygon fill="#8b1a1a" stroke="#8b1a1a" points="176.26,-45.71 172.16,-55.48 181.45,-50.4 176.26,-45.71"/>
</a>
</g>
</g>
<!-- Node3 -->
<g id="Node000003" class="node">
<title>Node3</title>
<g id="a_Node000003"><a xlink:href="../../d3/d07/class_replace_and_destroy_lambda.html" target="_top" xlink:title=" ">
<polygon fill="white" stroke="#666666" points="213.64,-157 76.89,-157 76.89,-137 213.64,-137 213.64,-157"/>
<text text-anchor="middle" x="145.27" y="-143.5" font-family="Helvetica,sans-Serif" font-size="10.00">ReplaceAndDestroyLambda</text>
</a>
</g>
</g>
<!-- Node3&#45;&gt;Node2 -->
<g id="edge2_Node000002_Node000003" class="edge">
<title>Node3&#45;&gt;Node2</title>
<g id="a_edge2_Node000002_Node000003"><a xlink:title=" ">
<path fill="none" stroke="#8b1a1a" d="M148.69,-125.46C150.6,-114.01 152.93,-99.99 154.69,-89.47"/>
<polygon fill="#8b1a1a" stroke="#8b1a1a" points="145.27,-124.65 147.08,-135.09 152.18,-125.81 145.27,-124.65"/>
</a>
</g>
</g>
<!-- Node4 -->
<g id="Node000004" class="node">
<title>Node4</title>
<g id="a_Node000004"><a xlink:title=" ">
<polygon fill="white" stroke="#666666" points="215.77,-237 70.77,-237 70.77,-205 215.77,-205 215.77,-237"/>
<text text-anchor="start" x="78.77" y="-223.5" font-family="Helvetica,sans-Serif" font-size="10.00">TurnItemIntoItemLambdaAnim</text>
<text text-anchor="middle" x="143.27" y="-211.5" font-family="Helvetica,sans-Serif" font-size="10.00">SysNotifyLambda</text>
</a>
</g>
</g>
<!-- Node4&#45;&gt;Node3 -->
<g id="edge3_Node000003_Node000004" class="edge">
<title>Node4&#45;&gt;Node3</title>
<g id="a_edge3_Node000003_Node000004"><a xlink:title=" ">
<path fill="none" stroke="#8b1a1a" d="M144.01,-193.34C144.36,-180.7 144.75,-166.41 145.01,-157.31"/>
<polygon fill="#8b1a1a" stroke="#8b1a1a" points="140.51,-193.12 143.73,-203.22 147.51,-193.32 140.51,-193.12"/>
</a>
</g>
</g>
<!-- Node5 -->
<g id="Node000005" class="node">
<title>Node5</title>
<g id="a_Node000005"><a xlink:href="../../d5/d08/class_player_base.html" target="_top" xlink:title=" ">
<polygon fill="white" stroke="#666666" points="300.39,-231 234.14,-231 234.14,-211 300.39,-211 300.39,-231"/>
<text text-anchor="middle" x="267.27" y="-217.5" font-family="Helvetica,sans-Serif" font-size="10.00">PlayerBase</text>
</a>
</g>
</g>
<!-- Node5&#45;&gt;Node1 -->
<g id="edge8_Node000001_Node000005" class="edge">
<title>Node5&#45;&gt;Node1</title>
<g id="a_edge8_Node000001_Node000005"><a xlink:title=" ">
<path fill="none" stroke="#9a32cd" stroke-dasharray="5,2" d="M266.09,-199.28C263.79,-167.72 257.2,-106.06 239.27,-57 234.31,-43.43 225.36,-29.32 219.14,-20.36"/>
<polygon fill="#9a32cd" stroke="#9a32cd" points="262.58,-199.24 266.73,-209 269.57,-198.79 262.58,-199.24"/>
</a>
</g>
<text text-anchor="middle" x="292.77" y="-109.5" font-family="Helvetica,sans-Serif" font-size="10.00" fill="grey"> m_SourcePlayer</text>
</g>
<!-- Node5&#45;&gt;Node3 -->
<g id="edge4_Node000003_Node000005" class="edge">
<title>Node5&#45;&gt;Node3</title>
<g id="a_edge4_Node000003_Node000005"><a xlink:title=" ">
<path fill="none" stroke="#9a32cd" stroke-dasharray="5,2" d="M229.84,-206.65C206.47,-198.24 180.36,-188.65 178.02,-187 166.59,-178.96 156.79,-165.99 150.97,-157.24"/>
<polygon fill="#9a32cd" stroke="#9a32cd" points="228.62,-209.93 239.21,-210.02 230.99,-203.35 228.62,-209.93"/>
</a>
</g>
<text text-anchor="middle" x="212.89" y="-177.5" font-family="Helvetica,sans-Serif" font-size="10.00" fill="grey"> m_TargetPlayer</text>
</g>
<!-- Node6 -->
<g id="Node000006" class="node">
<title>Node6</title>
<g id="a_Node000006"><a xlink:href="../../dd/d03/class_scripted_light_base.html" target="_top" xlink:title=" ">
<polygon fill="white" stroke="#666666" points="315.02,-353 219.52,-353 219.52,-333 315.02,-333 315.02,-353"/>
<text text-anchor="middle" x="267.27" y="-339.5" font-family="Helvetica,sans-Serif" font-size="10.00">ScriptedLightBase</text>
</a>
</g>
</g>
<!-- Node6&#45;&gt;Node5 -->
<g id="edge5_Node000005_Node000006" class="edge">
<title>Node6&#45;&gt;Node5</title>
<g id="a_edge5_Node000005_Node000006"><a xlink:title=" ">
<path fill="none" stroke="#9a32cd" stroke-dasharray="5,2" d="M267.27,-321.29C267.27,-294.96 267.27,-250.61 267.27,-231.37"/>
<polygon fill="#9a32cd" stroke="#9a32cd" points="263.77,-321.07 267.27,-331.07 270.77,-321.07 263.77,-321.07"/>
</a>
</g>
<text text-anchor="middle" x="305.14" y="-281.5" font-family="Helvetica,sans-Serif" font-size="10.00" fill="grey"> m_PersonalLight</text>
</g>
<!-- Node7 -->
<g id="Node000007" class="node">
<title>Node7</title>
<g id="a_Node000007"><a xlink:href="../../d9/d09/classbool.html" target="_top" xlink:title=" ">
<polygon fill="white" stroke="#666666" points="47.27,-353 13.27,-353 13.27,-333 47.27,-333 47.27,-353"/>
<text text-anchor="middle" x="30.27" y="-339.5" font-family="Helvetica,sans-Serif" font-size="10.00">bool</text>
</a>
</g>
</g>
<!-- Node7&#45;&gt;Node3 -->
<g id="edge7_Node000003_Node000007" class="edge">
<title>Node7&#45;&gt;Node3</title>
<g id="a_edge7_Node000003_Node000007"><a xlink:title=" ">
<path fill="none" stroke="#9a32cd" stroke-dasharray="5,2" d="M20.14,-322.56C6.95,-294.24 -11.8,-241.08 12.02,-205 28.92,-179.38 59.98,-165.23 87.86,-157.44"/>
<polygon fill="#9a32cd" stroke="#9a32cd" points="16.93,-323.96 24.49,-331.38 23.21,-320.87 16.93,-323.96"/>
</a>
</g>
<text text-anchor="middle" x="36.39" y="-223.5" font-family="Helvetica,sans-Serif" font-size="10.00" fill="grey"> m_Destroy</text>
<text text-anchor="middle" x="36.39" y="-211.5" font-family="Helvetica,sans-Serif" font-size="10.00" fill="grey">m_Drop</text>
</g>
<!-- Node7&#45;&gt;Node5 -->
<g id="edge6_Node000005_Node000007" class="edge">
<title>Node7&#45;&gt;Node5</title>
<g id="a_edge6_Node000005_Node000007"><a xlink:title=" ">
<path fill="none" stroke="#9a32cd" stroke-dasharray="5,2" d="M45.48,-324.02C63.59,-303.87 95.78,-271.83 130.52,-255 169.09,-236.31 183.9,-248.24 225.27,-237 231.09,-235.42 237.27,-233.4 243.04,-231.37"/>
<polygon fill="#9a32cd" stroke="#9a32cd" points="42.93,-321.62 38.98,-331.45 48.19,-326.23 42.93,-321.62"/>
</a>
</g>
<text text-anchor="start" x="130.27" y="-305.5" font-family="Helvetica,sans-Serif" font-size="10.00" fill="grey"> m_PersonalLightDisabledBy</text>
<text text-anchor="middle" x="196.64" y="-293.5" font-family="Helvetica,sans-Serif" font-size="10.00" fill="grey">Debug</text>
<text text-anchor="start" x="130.27" y="-281.5" font-family="Helvetica,sans-Serif" font-size="10.00" fill="grey">m_PersonalLightEnabledOn</text>
<text text-anchor="middle" x="196.64" y="-269.5" font-family="Helvetica,sans-Serif" font-size="10.00" fill="grey">CurrentServer</text>
<text text-anchor="middle" x="196.64" y="-257.5" font-family="Helvetica,sans-Serif" font-size="10.00" fill="grey">m_PersonalLightIsSwitchedOn</text>
</g>
</g>
</svg>
</svg>

<style type='text/css'>
<![CDATA[
[data-mouse-over-selected='false'] { opacity: 0.7; }
[data-mouse-over-selected='true']  { opacity: 1.0; }
]]>
</style>
<script type="application/ecmascript"><![CDATA[
document.addEventListener('DOMContentLoaded', (event) => {
  highlightEdges();
  highlightAdjacentNodes();
});
]]></script>
</svg>
