<?xml version="1.0" encoding="UTF-8" standalone="no"?>
<!DOCTYPE svg PUBLIC "-//W3C//DTD SVG 1.1//EN"
 "http://www.w3.org/Graphics/SVG/1.1/DTD/svg11.dtd">
<!-- Generated by graphviz version 11.0.0 (20240428.1522)
 -->
<!-- Title: ActionCloseCarDoorsOutside Pages: 1 -->
<svg width="325pt" height="300pt"
 viewBox="0.00 0.00 324.56 300.00" xmlns="http://www.w3.org/2000/svg" xmlns:xlink="http://www.w3.org/1999/xlink">

<svg id="main" version="1.1" xmlns="http://www.w3.org/2000/svg" xmlns:xlink="http://www.w3.org/1999/xlink" xml:space="preserve" onload="init(evt)">
<style type="text/css"><![CDATA[
.node, .edge {opacity: 0.7;}
.node.selected, .edge.selected {opacity: 1;}
.edge:hover path { stroke: red; }
.edge:hover polygon { stroke: red; fill: red; }
]]></style>
<script type="application/ecmascript" xlink:href="../../svg.min.js"/>
<svg id="graph" class="graph">
<g id="graph0" class="graph" transform="scale(1 1) rotate(0) translate(4 296)">
<title>ActionCloseCarDoorsOutside</title>
<!-- Node1 -->
<g id="Node000001" class="node">
<title>Node1</title>
<g id="a_Node000001"><a xlink:title=" ">
<polygon fill="#999999" stroke="#666666" points="228.18,-20 85.43,-20 85.43,0 228.18,0 228.18,-20"/>
<text text-anchor="middle" x="156.81" y="-6.5" font-family="Helvetica,sans-Serif" font-size="10.00">ActionCloseCarDoorsOutside</text>
</a>
</g>
</g>
<!-- Node2 -->
<g id="Node000002" class="node">
<title>Node2</title>
<g id="a_Node000002"><a xlink:href="../../d3/d04/class_action_car_doors_outside.html" target="_top" xlink:title=" ">
<polygon fill="white" stroke="#666666" points="215.81,-76 97.81,-76 97.81,-56 215.81,-56 215.81,-76"/>
<text text-anchor="middle" x="156.81" y="-62.5" font-family="Helvetica,sans-Serif" font-size="10.00">ActionCarDoorsOutside</text>
</a>
</g>
</g>
<!-- Node2&#45;&gt;Node1 -->
<g id="edge1_Node000001_Node000002" class="edge">
<title>Node2&#45;&gt;Node1</title>
<g id="a_edge1_Node000001_Node000002"><a xlink:title=" ">
<path fill="none" stroke="#8b1a1a" d="M156.81,-44.13C156.81,-35.9 156.81,-26.85 156.81,-20.3"/>
<polygon fill="#8b1a1a" stroke="#8b1a1a" points="153.31,-44.08 156.81,-54.08 160.31,-44.08 153.31,-44.08"/>
</a>
</g>
</g>
<!-- Node3 -->
<g id="Node000003" class="node">
<title>Node3</title>
<g id="a_Node000003"><a xlink:href="../../d0/d0b/class_action_interact_base.html" target="_top" xlink:title=" ">
<polygon fill="white" stroke="#666666" points="206.06,-144 107.56,-144 107.56,-124 206.06,-124 206.06,-144"/>
<text text-anchor="middle" x="156.81" y="-130.5" font-family="Helvetica,sans-Serif" font-size="10.00">ActionInteractBase</text>
</a>
</g>
</g>
<!-- Node3&#45;&gt;Node2 -->
<g id="edge2_Node000002_Node000003" class="edge">
<title>Node3&#45;&gt;Node2</title>
<g id="a_edge2_Node000002_Node000003"><a xlink:title=" ">
<path fill="none" stroke="#8b1a1a" d="M156.81,-112.28C156.81,-100.27 156.81,-85.74 156.81,-76.44"/>
<polygon fill="#8b1a1a" stroke="#8b1a1a" points="153.31,-112.03 156.81,-122.03 160.31,-112.03 153.31,-112.03"/>
</a>
</g>
</g>
<!-- Node4 -->
<g id="Node000004" class="node">
<title>Node4</title>
<g id="a_Node000004"><a xlink:href="../../d7/d04/class_animated_action_base.html" target="_top" xlink:title=" ">
<polygon fill="white" stroke="#666666" points="316.56,-212 209.06,-212 209.06,-192 316.56,-192 316.56,-212"/>
<text text-anchor="middle" x="262.81" y="-198.5" font-family="Helvetica,sans-Serif" font-size="10.00">AnimatedActionBase</text>
</a>
</g>
</g>
<!-- Node4&#45;&gt;Node3 -->
<g id="edge3_Node000003_Node000004" class="edge">
<title>Node4&#45;&gt;Node3</title>
<g id="a_edge3_Node000003_Node000004"><a xlink:title=" ">
<path fill="none" stroke="#8b1a1a" d="M250.43,-182.6C244.83,-175.39 237.7,-167.53 229.81,-162 218.96,-154.4 205.72,-148.66 193.51,-144.47"/>
<polygon fill="#8b1a1a" stroke="#8b1a1a" points="247.47,-184.48 256.16,-190.54 253.14,-180.38 247.47,-184.48"/>
</a>
</g>
</g>
<!-- Node5 -->
<g id="Node000005" class="node">
<title>Node5</title>
<g id="a_Node000005"><a xlink:title=" ">
<polygon fill="white" stroke="#666666" points="295.93,-292 229.68,-292 229.68,-272 295.93,-272 295.93,-292"/>
<text text-anchor="middle" x="262.81" y="-278.5" font-family="Helvetica,sans-Serif" font-size="10.00">ActionBase</text>
</a>
</g>
</g>
<!-- Node5&#45;&gt;Node4 -->
<g id="edge4_Node000004_Node000005" class="edge">
<title>Node5&#45;&gt;Node4</title>
<g id="a_edge4_Node000004_Node000005"><a xlink:title=" ">
<path fill="none" stroke="#8b1a1a" d="M262.81,-260.59C262.81,-244.94 262.81,-224.08 262.81,-212.24"/>
<polygon fill="#8b1a1a" stroke="#8b1a1a" points="259.31,-260.23 262.81,-270.23 266.31,-260.23 259.31,-260.23"/>
</a>
</g>
</g>
<!-- Node6 -->
<g id="Node000006" class="node">
<title>Node6</title>
<g id="a_Node000006"><a xlink:href="../../db/d06/class_param3.html" target="_top" xlink:title=" ">
<polygon fill="white" stroke="#666666" points="66.68,-292 16.93,-292 16.93,-272 66.68,-272 66.68,-292"/>
<text text-anchor="middle" x="41.81" y="-278.5" font-family="Helvetica,sans-Serif" font-size="10.00">Param3</text>
</a>
</g>
</g>
<!-- Node6&#45;&gt;Node2 -->
<g id="edge8_Node000002_Node000006" class="edge">
<title>Node6&#45;&gt;Node2</title>
<g id="a_edge8_Node000002_Node000006"><a xlink:title=" ">
<path fill="none" stroke="#9a32cd" stroke-dasharray="5,2" d="M27.81,-262.35C11.43,-238.07 -11.27,-194.85 6.81,-162 32.07,-116.09 89.93,-89.26 125.95,-76.42"/>
<polygon fill="#9a32cd" stroke="#9a32cd" points="24.79,-264.14 33.43,-270.28 30.5,-260.09 24.79,-264.14"/>
</a>
</g>
<text text-anchor="middle" x="69.81" y="-164.5" font-family="Helvetica,sans-Serif" font-size="10.00" fill="grey"> m_CommandUIDPerCrewIdx</text>
</g>
<!-- Node6&#45;&gt;Node4 -->
<g id="edge5_Node000004_Node000006" class="edge">
<title>Node6&#45;&gt;Node4</title>
<g id="a_edge5_Node000004_Node000006"><a xlink:title=" ">
<path fill="none" stroke="#9a32cd" stroke-dasharray="5,2" d="M71.43,-266.7C95,-255.7 129.03,-240.62 159.81,-230 179.55,-223.19 201.94,-217.13 220.78,-212.49"/>
<polygon fill="#9a32cd" stroke="#9a32cd" points="69.99,-263.51 62.44,-270.95 72.98,-269.84 69.99,-263.51"/>
</a>
</g>
<text text-anchor="middle" x="209.31" y="-244.5" font-family="Helvetica,sans-Serif" font-size="10.00" fill="grey"> m_CommandUID</text>
<text text-anchor="middle" x="209.31" y="-232.5" font-family="Helvetica,sans-Serif" font-size="10.00" fill="grey">m_CommandUIDProne</text>
</g>
<!-- Node7 -->
<g id="Node000007" class="node">
<title>Node7</title>
<g id="a_Node000007"><a xlink:href="../../d5/d02/classstring.html" target="_top" xlink:title=" ">
<polygon fill="white" stroke="#666666" points="141.81,-212 101.81,-212 101.81,-192 141.81,-192 141.81,-212"/>
<text text-anchor="middle" x="121.81" y="-198.5" font-family="Helvetica,sans-Serif" font-size="10.00">string</text>
</a>
</g>
</g>
<!-- Node7&#45;&gt;Node3 -->
<g id="edge6_Node000003_Node000007" class="edge">
<title>Node7&#45;&gt;Node3</title>
<g id="a_edge6_Node000003_Node000007"><a xlink:title=" ">
<path fill="none" stroke="#9a32cd" stroke-dasharray="5,2" d="M132.2,-181.4C138.67,-169.2 146.71,-154.04 151.8,-144.44"/>
<polygon fill="#9a32cd" stroke="#9a32cd" points="129.12,-179.73 127.53,-190.21 135.31,-183.01 129.12,-179.73"/>
</a>
</g>
<text text-anchor="middle" x="184.43" y="-164.5" font-family="Helvetica,sans-Serif" font-size="10.00" fill="grey"> m_HUDCursorIcon</text>
</g>
<!-- Node7&#45;&gt;Node7 -->
<g id="edge7_Node000007_Node000007" class="edge">
<title>Node7&#45;&gt;Node7</title>
<g id="a_edge7_Node000007_Node000007"><a xlink:title=" ">
<path fill="none" stroke="#9a32cd" stroke-dasharray="5,2" d="M153.57,-207.47C157.34,-206.48 159.81,-204.65 159.81,-202 159.81,-197.15 151.57,-195.07 142.14,-195.75"/>
<polygon fill="#9a32cd" stroke="#9a32cd" points="153.39,-203.98 143.65,-208.15 153.86,-210.96 153.39,-203.98"/>
</a>
</g>
<text text-anchor="middle" x="175.56" y="-198.5" font-family="Helvetica,sans-Serif" font-size="10.00" fill="grey"> Empty</text>
</g>
<!-- Node8 -->
<g id="Node000008" class="node">
<title>Node8</title>
<g id="a_Node000008"><a xlink:href="../../d9/d09/classbool.html" target="_top" xlink:title=" ">
<polygon fill="white" stroke="#666666" points="257.81,-144 223.81,-144 223.81,-124 257.81,-124 257.81,-144"/>
<text text-anchor="middle" x="240.81" y="-130.5" font-family="Helvetica,sans-Serif" font-size="10.00">bool</text>
</a>
</g>
</g>
<!-- Node8&#45;&gt;Node2 -->
<g id="edge9_Node000002_Node000008" class="edge">
<title>Node8&#45;&gt;Node2</title>
<g id="a_edge9_Node000002_Node000008"><a xlink:title=" ">
<path fill="none" stroke="#9a32cd" stroke-dasharray="5,2" d="M220.04,-116.69C203.93,-104.03 182.16,-86.92 168.82,-76.44"/>
<polygon fill="#9a32cd" stroke="#9a32cd" points="217.56,-119.18 227.58,-122.61 221.88,-113.68 217.56,-119.18"/>
</a>
</g>
<text text-anchor="middle" x="235.81" y="-96.5" font-family="Helvetica,sans-Serif" font-size="10.00" fill="grey"> m_IsOpening</text>
</g>
</g>
</svg>
</svg>

<style type='text/css'>
<![CDATA[
[data-mouse-over-selected='false'] { opacity: 0.7; }
[data-mouse-over-selected='true']  { opacity: 1.0; }
]]>
</style>
<script type="application/ecmascript"><![CDATA[
document.addEventListener('DOMContentLoaded', (event) => {
  highlightEdges();
  highlightAdjacentNodes();
});
]]></script>
</svg>
