<?xml version="1.0" encoding="UTF-8" standalone="no"?>
<!DOCTYPE svg PUBLIC "-//W3C//DTD SVG 1.1//EN"
 "http://www.w3.org/Graphics/SVG/1.1/DTD/svg11.dtd">
<!-- Generated by graphviz version 11.0.0 (20240428.1522)
 -->
<!-- Title: Spraycan_ColorBase Pages: 1 -->
<svg width="202pt" height="140pt"
 viewBox="0.00 0.00 202.00 140.00" xmlns="http://www.w3.org/2000/svg" xmlns:xlink="http://www.w3.org/1999/xlink">
<g id="graph0" class="graph" transform="scale(1 1) rotate(0) translate(4 136)">
<title>Spraycan_ColorBase</title>
<!-- Node1 -->
<g id="Node000001" class="node">
<title>Node1</title>
<g id="a_Node000001"><a xlink:title=" ">
<polygon fill="#999999" stroke="#666666" points="150.38,-76 42.88,-76 42.88,-56 150.38,-56 150.38,-76"/>
<text text-anchor="middle" x="96.62" y="-62.5" font-family="Helvetica,sans-Serif" font-size="10.00">Spraycan_ColorBase</text>
</a>
</g>
</g>
<!-- Node3 -->
<g id="Node000003" class="node">
<title>Node3</title>
<g id="a_Node000003"><a xlink:href="../../d3/d0e/class_spraycan___black.html" target="_top" xlink:title=" ">
<polygon fill="white" stroke="#666666" points="87.25,-20 0,-20 0,0 87.25,0 87.25,-20"/>
<text text-anchor="middle" x="43.62" y="-6.5" font-family="Helvetica,sans-Serif" font-size="10.00">Spraycan_Black</text>
</a>
</g>
</g>
<!-- Node1&#45;&gt;Node3 -->
<g id="edge2_Node000001_Node000003" class="edge">
<title>Node1&#45;&gt;Node3</title>
<g id="a_edge2_Node000001_Node000003"><a xlink:title=" ">
<path fill="none" stroke="#8b1a1a" d="M79.51,-47.57C70.61,-38.5 60.09,-27.78 52.75,-20.3"/>
<polygon fill="#8b1a1a" stroke="#8b1a1a" points="76.83,-49.83 86.33,-54.51 81.83,-44.93 76.83,-49.83"/>
</a>
</g>
</g>
<!-- Node4 -->
<g id="Node000004" class="node">
<title>Node4</title>
<g id="a_Node000004"><a xlink:href="../../db/d06/class_spraycan___green.html" target="_top" xlink:title=" ">
<polygon fill="white" stroke="#666666" points="194,-20 105.25,-20 105.25,0 194,0 194,-20"/>
<text text-anchor="middle" x="149.62" y="-6.5" font-family="Helvetica,sans-Serif" font-size="10.00">Spraycan_Green</text>
</a>
</g>
</g>
<!-- Node1&#45;&gt;Node4 -->
<g id="edge3_Node000001_Node000004" class="edge">
<title>Node1&#45;&gt;Node4</title>
<g id="a_edge3_Node000001_Node000004"><a xlink:title=" ">
<path fill="none" stroke="#8b1a1a" d="M113.74,-47.57C122.64,-38.5 133.16,-27.78 140.5,-20.3"/>
<polygon fill="#8b1a1a" stroke="#8b1a1a" points="111.42,-44.93 106.92,-54.51 116.42,-49.83 111.42,-44.93"/>
</a>
</g>
</g>
<!-- Node2 -->
<g id="Node000002" class="node">
<title>Node2</title>
<g id="a_Node000002"><a xlink:href="../../de/d0a/class_item_base.html" target="_top" xlink:title=" ">
<polygon fill="white" stroke="#666666" points="125.25,-132 68,-132 68,-112 125.25,-112 125.25,-132"/>
<text text-anchor="middle" x="96.62" y="-118.5" font-family="Helvetica,sans-Serif" font-size="10.00">ItemBase</text>
</a>
</g>
</g>
<!-- Node2&#45;&gt;Node1 -->
<g id="edge1_Node000001_Node000002" class="edge">
<title>Node2&#45;&gt;Node1</title>
<g id="a_edge1_Node000001_Node000002"><a xlink:title=" ">
<path fill="none" stroke="#8b1a1a" d="M96.62,-100.13C96.62,-91.9 96.62,-82.85 96.62,-76.3"/>
<polygon fill="#8b1a1a" stroke="#8b1a1a" points="93.13,-100.08 96.63,-110.08 100.13,-100.08 93.13,-100.08"/>
</a>
</g>
</g>
</g>
</svg>
