<?xml version="1.0" encoding="UTF-8" standalone="no"?>
<!DOCTYPE svg PUBLIC "-//W3C//DTD SVG 1.1//EN"
 "http://www.w3.org/Graphics/SVG/1.1/DTD/svg11.dtd">
<!-- Generated by graphviz version 11.0.0 (20240428.1522)
 -->
<!-- Title: SpookyEventBase Pages: 1 -->
<svg width="220pt" height="84pt"
 viewBox="0.00 0.00 220.00 84.00" xmlns="http://www.w3.org/2000/svg" xmlns:xlink="http://www.w3.org/1999/xlink">
<g id="graph0" class="graph" transform="scale(1 1) rotate(0) translate(4 80)">
<title>SpookyEventBase</title>
<!-- Node1 -->
<g id="Node000001" class="node">
<title>Node1</title>
<g id="a_Node000001"><a xlink:title=" ">
<polygon fill="#999999" stroke="#666666" points="154,-76 58.5,-76 58.5,-56 154,-56 154,-76"/>
<text text-anchor="middle" x="106.25" y="-62.5" font-family="Helvetica,sans-Serif" font-size="10.00">SpookyEventBase</text>
</a>
</g>
</g>
<!-- Node2 -->
<g id="Node000002" class="node">
<title>Node2</title>
<g id="a_Node000002"><a xlink:href="../../db/d0b/class_spooky_event_steps.html" target="_top" xlink:title=" ">
<polygon fill="white" stroke="#666666" points="98.5,-20 0,-20 0,0 98.5,0 98.5,-20"/>
<text text-anchor="middle" x="49.25" y="-6.5" font-family="Helvetica,sans-Serif" font-size="10.00">SpookyEventSteps</text>
</a>
</g>
</g>
<!-- Node1&#45;&gt;Node2 -->
<g id="edge1_Node000001_Node000002" class="edge">
<title>Node1&#45;&gt;Node2</title>
<g id="a_edge1_Node000001_Node000002"><a xlink:title=" ">
<path fill="none" stroke="#8b1a1a" d="M88.14,-47.85C78.51,-38.72 67.04,-27.86 59.06,-20.3"/>
<polygon fill="#8b1a1a" stroke="#8b1a1a" points="85.56,-50.22 95.22,-54.55 90.37,-45.13 85.56,-50.22"/>
</a>
</g>
</g>
<!-- Node3 -->
<g id="Node000003" class="node">
<title>Node3</title>
<g id="a_Node000003"><a xlink:href="../../db/d03/class_spooky_event_wind.html" target="_top" xlink:title=" ">
<polygon fill="white" stroke="#666666" points="212,-20 116.5,-20 116.5,0 212,0 212,-20"/>
<text text-anchor="middle" x="164.25" y="-6.5" font-family="Helvetica,sans-Serif" font-size="10.00">SpookyEventWind</text>
</a>
</g>
</g>
<!-- Node1&#45;&gt;Node3 -->
<g id="edge2_Node000001_Node000003" class="edge">
<title>Node1&#45;&gt;Node3</title>
<g id="a_edge2_Node000001_Node000003"><a xlink:title=" ">
<path fill="none" stroke="#8b1a1a" d="M124.67,-47.85C134.48,-38.72 146.15,-27.86 154.26,-20.3"/>
<polygon fill="#8b1a1a" stroke="#8b1a1a" points="122.39,-45.19 117.46,-54.56 127.16,-50.31 122.39,-45.19"/>
</a>
</g>
</g>
</g>
</svg>
