<?xml version="1.0" encoding="UTF-8" standalone="no"?>
<!DOCTYPE svg PUBLIC "-//W3C//DTD SVG 1.1//EN"
 "http://www.w3.org/Graphics/SVG/1.1/DTD/svg11.dtd">
<!-- Generated by graphviz version 11.0.0 (20240428.1522)
 -->
<!-- Title: ActionDrinkDisinfectant Pages: 1 -->
<svg width="125pt" height="308pt"
 viewBox="0.00 0.00 125.25 308.00" xmlns="http://www.w3.org/2000/svg" xmlns:xlink="http://www.w3.org/1999/xlink">
<g id="graph0" class="graph" transform="scale(1 1) rotate(0) translate(4 304)">
<title>ActionDrinkDisinfectant</title>
<!-- Node1 -->
<g id="Node000001" class="node">
<title>Node1</title>
<g id="a_Node000001"><a xlink:title=" ">
<polygon fill="#999999" stroke="#666666" points="117.25,-20 0,-20 0,0 117.25,0 117.25,-20"/>
<text text-anchor="middle" x="58.62" y="-6.5" font-family="Helvetica,sans-Serif" font-size="10.00">ActionDrinkDisinfectant</text>
</a>
</g>
</g>
<!-- Node2 -->
<g id="Node000002" class="node">
<title>Node2</title>
<g id="a_Node000002"><a xlink:href="../../d5/d01/class_action_drink.html" target="_top" xlink:title=" ">
<polygon fill="white" stroke="#666666" points="91.75,-76 25.5,-76 25.5,-56 91.75,-56 91.75,-76"/>
<text text-anchor="middle" x="58.62" y="-62.5" font-family="Helvetica,sans-Serif" font-size="10.00">ActionDrink</text>
</a>
</g>
</g>
<!-- Node2&#45;&gt;Node1 -->
<g id="edge1_Node000001_Node000002" class="edge">
<title>Node2&#45;&gt;Node1</title>
<g id="a_edge1_Node000001_Node000002"><a xlink:title=" ">
<path fill="none" stroke="#8b1a1a" d="M58.62,-44.13C58.62,-35.9 58.62,-26.85 58.62,-20.3"/>
<polygon fill="#8b1a1a" stroke="#8b1a1a" points="55.13,-44.08 58.63,-54.08 62.13,-44.08 55.13,-44.08"/>
</a>
</g>
</g>
<!-- Node3 -->
<g id="Node000003" class="node">
<title>Node3</title>
<g id="a_Node000003"><a xlink:href="../../db/d09/class_action_consume.html" target="_top" xlink:title=" ">
<polygon fill="white" stroke="#666666" points="101.12,-132 16.12,-132 16.12,-112 101.12,-112 101.12,-132"/>
<text text-anchor="middle" x="58.62" y="-118.5" font-family="Helvetica,sans-Serif" font-size="10.00">ActionConsume</text>
</a>
</g>
</g>
<!-- Node3&#45;&gt;Node2 -->
<g id="edge2_Node000002_Node000003" class="edge">
<title>Node3&#45;&gt;Node2</title>
<g id="a_edge2_Node000002_Node000003"><a xlink:title=" ">
<path fill="none" stroke="#8b1a1a" d="M58.62,-100.13C58.62,-91.9 58.62,-82.85 58.62,-76.3"/>
<polygon fill="#8b1a1a" stroke="#8b1a1a" points="55.13,-100.08 58.63,-110.08 62.13,-100.08 55.13,-100.08"/>
</a>
</g>
</g>
<!-- Node4 -->
<g id="Node000004" class="node">
<title>Node4</title>
<g id="a_Node000004"><a xlink:href="../../d6/d0f/class_action_continuous_base.html" target="_top" xlink:title=" ">
<polygon fill="white" stroke="#666666" points="116.12,-188 1.12,-188 1.12,-168 116.12,-168 116.12,-188"/>
<text text-anchor="middle" x="58.62" y="-174.5" font-family="Helvetica,sans-Serif" font-size="10.00">ActionContinuousBase</text>
</a>
</g>
</g>
<!-- Node4&#45;&gt;Node3 -->
<g id="edge3_Node000003_Node000004" class="edge">
<title>Node4&#45;&gt;Node3</title>
<g id="a_edge3_Node000003_Node000004"><a xlink:title=" ">
<path fill="none" stroke="#8b1a1a" d="M58.62,-156.13C58.62,-147.9 58.62,-138.85 58.62,-132.3"/>
<polygon fill="#8b1a1a" stroke="#8b1a1a" points="55.13,-156.08 58.63,-166.08 62.13,-156.08 55.13,-156.08"/>
</a>
</g>
</g>
<!-- Node5 -->
<g id="Node000005" class="node">
<title>Node5</title>
<g id="a_Node000005"><a xlink:href="../../d7/d04/class_animated_action_base.html" target="_top" xlink:title=" ">
<polygon fill="white" stroke="#666666" points="112.38,-244 4.88,-244 4.88,-224 112.38,-224 112.38,-244"/>
<text text-anchor="middle" x="58.62" y="-230.5" font-family="Helvetica,sans-Serif" font-size="10.00">AnimatedActionBase</text>
</a>
</g>
</g>
<!-- Node5&#45;&gt;Node4 -->
<g id="edge4_Node000004_Node000005" class="edge">
<title>Node5&#45;&gt;Node4</title>
<g id="a_edge4_Node000004_Node000005"><a xlink:title=" ">
<path fill="none" stroke="#8b1a1a" d="M58.62,-212.13C58.62,-203.9 58.62,-194.85 58.62,-188.3"/>
<polygon fill="#8b1a1a" stroke="#8b1a1a" points="55.13,-212.08 58.63,-222.08 62.13,-212.08 55.13,-212.08"/>
</a>
</g>
</g>
<!-- Node6 -->
<g id="Node000006" class="node">
<title>Node6</title>
<g id="a_Node000006"><a xlink:title=" ">
<polygon fill="white" stroke="#666666" points="91.75,-300 25.5,-300 25.5,-280 91.75,-280 91.75,-300"/>
<text text-anchor="middle" x="58.62" y="-286.5" font-family="Helvetica,sans-Serif" font-size="10.00">ActionBase</text>
</a>
</g>
</g>
<!-- Node6&#45;&gt;Node5 -->
<g id="edge5_Node000005_Node000006" class="edge">
<title>Node6&#45;&gt;Node5</title>
<g id="a_edge5_Node000005_Node000006"><a xlink:title=" ">
<path fill="none" stroke="#8b1a1a" d="M58.62,-268.13C58.62,-259.9 58.62,-250.85 58.62,-244.3"/>
<polygon fill="#8b1a1a" stroke="#8b1a1a" points="55.13,-268.08 58.63,-278.08 62.13,-268.08 55.13,-268.08"/>
</a>
</g>
</g>
</g>
</svg>
