<?xml version="1.0" encoding="UTF-8" standalone="no"?>
<!DOCTYPE svg PUBLIC "-//W3C//DTD SVG 1.1//EN"
 "http://www.w3.org/Graphics/SVG/1.1/DTD/svg11.dtd">
<!-- Generated by graphviz version 11.0.0 (20240428.1522)
 -->
<!-- Title: ScriptConsoleVicinityTab Pages: 1 -->
<!--zoomable 362 -->

<svg id="main" version="1.1" xmlns="http://www.w3.org/2000/svg" xmlns:xlink="http://www.w3.org/1999/xlink" xml:space="preserve" onload="init(evt)">
<style type="text/css"><![CDATA[
.node, .edge {opacity: 0.7;}
.node.selected, .edge.selected {opacity: 1;}
.edge:hover path { stroke: red; }
.edge:hover polygon { stroke: red; fill: red; }
]]></style>

<defs>
  <circle id="rim" cx="0" cy="0" r="7"/>
  <circle id="rim2" cx="0" cy="0" r="3.5"/>
  <g id="zoomPlus">
    <use xlink:href="#rim" fill="#404040"><set attributeName="fill" to="#808080" begin="zoomplus.mouseover" end="zoomplus.mouseout"/></use>
    <path d="M-4,0h8M0,-4v8" fill="none" stroke="white" stroke-width="1.5" pointer-events="none"/>
  </g>
  <g id="zoomMin">
    <use xlink:href="#rim" fill="#404040"><set attributeName="fill" to="#808080" begin="zoomminus.mouseover" end="zoomminus.mouseout"/></use>
    <path d="M-4,0h8" fill="none" stroke="white" stroke-width="1.5" pointer-events="none"/>
  </g>
  <g id="arrowUp" transform="translate(30 24)">
    <use xlink:href="#rim"/>
    <path pointer-events="none" fill="none" stroke="white" stroke-width="1.5" d="M0,-3.0v7 M-2.5,-0.5L0,-3.0L2.5,-0.5"/>
  </g>
  <g id="arrowRight" transform="rotate(90) translate(36 -43)">
    <use xlink:href="#rim"/>
    <path pointer-events="none" fill="none" stroke="white" stroke-width="1.5" d="M0,-3.0v7 M-2.5,-0.5L0,-3.0L2.5,-0.5"/>
  </g>
  <g id="arrowDown" transform="rotate(180) translate(-30 -48)">
    <use xlink:href="#rim"/>
    <path pointer-events="none" fill="none" stroke="white" stroke-width="1.5" d="M0,-3.0v7 M-2.5,-0.5L0,-3.0L2.5,-0.5"/>
  </g>
  <g id="arrowLeft" transform="rotate(270) translate(-36 17)">
    <use xlink:href="#rim"/>
    <path pointer-events="none" fill="none" stroke="white" stroke-width="1.5" d="M0,-3.0v7 M-2.5,-0.5L0,-3.0L2.5,-0.5"/>
  </g>
  <g id="resetDef">
    <use xlink:href="#rim2" fill="#404040"><set attributeName="fill" to="#808080" begin="reset.mouseover" end="reset.mouseout"/></use>
  </g>
</defs>
<script type="application/ecmascript">
var viewWidth = 1365;
var viewHeight = 362;
var sectionId = 'dynsection-1';
</script>
<script type="application/ecmascript" xlink:href="../../svg.min.js"/>
<svg id="graph" class="graph">
<g id="viewport">
<title>ScriptConsoleVicinityTab</title>
<!-- Node1 -->
<g id="Node000001" class="node">
<title>Node1</title>
<g id="a_Node000001"><a xlink:title=" ">
<polygon fill="#999999" stroke="#666666" points="786.56,-20 661.81,-20 661.81,0 786.56,0 786.56,-20"/>
<text text-anchor="middle" x="724.19" y="-6.5" font-family="Helvetica,sans-Serif" font-size="10.00">ScriptConsoleVicinityTab</text>
</a>
</g>
</g>
<!-- Node2 -->
<g id="Node000002" class="node">
<title>Node2</title>
<g id="a_Node000002"><a xlink:href="../../d8/d09/class_script_console_tab_base.html" target="_top" xlink:title=" ">
<polygon fill="white" stroke="#666666" points="284.69,-96 169.69,-96 169.69,-76 284.69,-76 284.69,-96"/>
<text text-anchor="middle" x="227.19" y="-82.5" font-family="Helvetica,sans-Serif" font-size="10.00">ScriptConsoleTabBase</text>
</a>
</g>
</g>
<!-- Node2&#45;&gt;Node1 -->
<g id="edge1_Node000001_Node000002" class="edge">
<title>Node2&#45;&gt;Node1</title>
<g id="a_edge1_Node000001_Node000002"><a xlink:title=" ">
<path fill="none" stroke="#8b1a1a" d="M296.31,-74.71C393.25,-60.27 568.16,-34.23 661.51,-20.33"/>
<polygon fill="#8b1a1a" stroke="#8b1a1a" points="296.04,-71.21 286.67,-76.14 297.07,-78.13 296.04,-71.21"/>
</a>
</g>
</g>
<!-- Node2&#45;&gt;Node2 -->
<g id="edge5_Node000002_Node000002" class="edge">
<title>Node2&#45;&gt;Node2</title>
<g id="a_edge5_Node000002_Node000002"><a xlink:title=" ">
<path fill="none" stroke="#9a32cd" stroke-dasharray="5,2" d="M296.23,-91.39C300.27,-90.1 302.69,-88.3 302.69,-86 302.69,-82.02 295.46,-79.55 285.11,-78.59"/>
<polygon fill="#9a32cd" stroke="#9a32cd" points="295.81,-87.91 286.6,-93.14 297.07,-94.79 295.81,-87.91"/>
</a>
</g>
<text text-anchor="middle" x="325.19" y="-82.5" font-family="Helvetica,sans-Serif" font-size="10.00" fill="grey"> m_Parent</text>
</g>
<!-- Node3 -->
<g id="Node000003" class="node">
<title>Node3</title>
<g id="a_Node000003"><a xlink:href="../../db/d06/class_param3.html" target="_top" xlink:title=" ">
<polygon fill="white" stroke="#666666" points="544.06,-352 494.31,-352 494.31,-332 544.06,-332 544.06,-352"/>
<text text-anchor="middle" x="519.19" y="-338.5" font-family="Helvetica,sans-Serif" font-size="10.00">Param3</text>
</a>
</g>
</g>
<!-- Node3&#45;&gt;Node2 -->
<g id="edge2_Node000002_Node000003" class="edge">
<title>Node3&#45;&gt;Node2</title>
<g id="a_edge2_Node000002_Node000003"><a xlink:title=" ">
<path fill="none" stroke="#9a32cd" stroke-dasharray="5,2" d="M482.65,-338.19C419.87,-331.17 292.79,-306.91 236.19,-224 208.63,-183.64 219.44,-120.07 224.83,-96.34"/>
<polygon fill="#9a32cd" stroke="#9a32cd" points="482.15,-341.65 492.45,-339.19 482.86,-334.69 482.15,-341.65"/>
</a>
</g>
<text text-anchor="middle" x="248.19" y="-184.5" font-family="Helvetica,sans-Serif" font-size="10.00" fill="grey"> m_Id</text>
</g>
<!-- Node11 -->
<g id="Node000011" class="node">
<title>Node11</title>
<g id="a_Node000011"><a xlink:href="../../d2/d01/classarray.html" target="_top" xlink:title=" ">
<polygon fill="white" stroke="#666666" points="766.31,-96 682.06,-96 682.06,-76 766.31,-76 766.31,-96"/>
<text text-anchor="middle" x="724.19" y="-82.5" font-family="Helvetica,sans-Serif" font-size="10.00">array&lt; Object &gt;</text>
</a>
</g>
</g>
<!-- Node3&#45;&gt;Node11 -->
<g id="edge15_Node000011_Node000003" class="edge">
<title>Node3&#45;&gt;Node11</title>
<g id="a_edge15_Node000011_Node000003"><a xlink:title=" ">
<path fill="none" stroke="#9a32cd" stroke-dasharray="5,2" d="M483.03,-338.92C465.6,-335.87 446.14,-329.03 435.19,-314 424.45,-299.27 442.54,-152.45 442.94,-152 512.3,-73.8 572.26,-131.24 673.19,-104 681.3,-101.81 690.01,-99.06 697.89,-96.41"/>
<polygon fill="#9a32cd" stroke="#9a32cd" points="482.2,-342.34 492.58,-340.22 483.14,-335.4 482.2,-342.34"/>
</a>
</g>
<text text-anchor="middle" x="501.31" y="-214.5" font-family="Helvetica,sans-Serif" font-size="10.00" fill="grey"> NO_SORTING</text>
<text text-anchor="middle" x="501.31" y="-202.5" font-family="Helvetica,sans-Serif" font-size="10.00" fill="grey">geomLevel</text>
<text text-anchor="middle" x="501.31" y="-190.5" font-family="Helvetica,sans-Serif" font-size="10.00" fill="grey">hierLevel</text>
<text text-anchor="start" x="443.19" y="-178.5" font-family="Helvetica,sans-Serif" font-size="10.00" fill="grey">m_CurrentSettingAlternate</text>
<text text-anchor="middle" x="501.31" y="-166.5" font-family="Helvetica,sans-Serif" font-size="10.00" fill="grey">KeyIndex</text>
<text text-anchor="middle" x="501.31" y="-154.5" font-family="Helvetica,sans-Serif" font-size="10.00" fill="grey">m_CurrentSettingKeyIndex</text>
</g>
<!-- Node12 -->
<g id="Node000012" class="node">
<title>Node12</title>
<g id="a_Node000012"><a xlink:href="../../d2/d01/classarray.html" target="_top" xlink:title="Result for an object found in CGame.IsBoxCollidingGeometryProxy.">
<polygon fill="white" stroke="#666666" points="986.06,-198 948.31,-198 948.31,-178 986.06,-178 986.06,-198"/>
<text text-anchor="middle" x="967.19" y="-184.5" font-family="Helvetica,sans-Serif" font-size="10.00">array</text>
</a>
</g>
</g>
<!-- Node3&#45;&gt;Node12 -->
<g id="edge18_Node000012_Node000003" class="edge">
<title>Node3&#45;&gt;Node12</title>
<g id="a_edge18_Node000012_Node000003"><a xlink:title=" ">
<path fill="none" stroke="#9a32cd" stroke-dasharray="5,2" d="M555.52,-339.68C590.57,-337.38 644.57,-331.11 688.19,-314 741.81,-292.97 742.02,-262.25 795.94,-242 853.94,-220.21 879,-252.18 934.19,-224 945.64,-218.15 955.26,-206.67 961.1,-198.46"/>
<polygon fill="#9a32cd" stroke="#9a32cd" points="555.7,-336.16 545.92,-340.23 556.1,-343.15 555.7,-336.16"/>
</a>
</g>
<text text-anchor="middle" x="853.31" y="-304.5" font-family="Helvetica,sans-Serif" font-size="10.00" fill="grey"> NO_SORTING</text>
<text text-anchor="middle" x="853.31" y="-292.5" font-family="Helvetica,sans-Serif" font-size="10.00" fill="grey">geomLevel</text>
<text text-anchor="middle" x="853.31" y="-280.5" font-family="Helvetica,sans-Serif" font-size="10.00" fill="grey">hierLevel</text>
<text text-anchor="start" x="795.19" y="-268.5" font-family="Helvetica,sans-Serif" font-size="10.00" fill="grey">m_CurrentSettingAlternate</text>
<text text-anchor="middle" x="853.31" y="-256.5" font-family="Helvetica,sans-Serif" font-size="10.00" fill="grey">KeyIndex</text>
<text text-anchor="middle" x="853.31" y="-244.5" font-family="Helvetica,sans-Serif" font-size="10.00" fill="grey">m_CurrentSettingKeyIndex</text>
</g>
<!-- Node14 -->
<g id="Node000014" class="node">
<title>Node14</title>
<g id="a_Node000014"><a xlink:href="../../d2/d01/classarray.html" target="_top" xlink:title=" ">
<polygon fill="white" stroke="#666666" points="1091.44,-96 1004.94,-96 1004.94,-76 1091.44,-76 1091.44,-96"/>
<text text-anchor="middle" x="1048.19" y="-82.5" font-family="Helvetica,sans-Serif" font-size="10.00">array&lt; Widget &gt;</text>
</a>
</g>
</g>
<!-- Node3&#45;&gt;Node14 -->
<g id="edge25_Node000014_Node000003" class="edge">
<title>Node3&#45;&gt;Node14</title>
<g id="a_edge25_Node000014_Node000003"><a xlink:title=" ">
<path fill="none" stroke="#9a32cd" stroke-dasharray="5,2" d="M555.42,-337.01C571.93,-333.45 590.56,-326.72 603.19,-314 656.34,-260.45 596.98,-201.48 653.94,-152 680.22,-129.17 907.72,-102.17 1004.69,-91.59"/>
<polygon fill="#9a32cd" stroke="#9a32cd" points="555.13,-333.51 545.92,-338.74 556.38,-340.4 555.13,-333.51"/>
</a>
</g>
<text text-anchor="middle" x="711.31" y="-214.5" font-family="Helvetica,sans-Serif" font-size="10.00" fill="grey"> NO_SORTING</text>
<text text-anchor="middle" x="711.31" y="-202.5" font-family="Helvetica,sans-Serif" font-size="10.00" fill="grey">geomLevel</text>
<text text-anchor="middle" x="711.31" y="-190.5" font-family="Helvetica,sans-Serif" font-size="10.00" fill="grey">hierLevel</text>
<text text-anchor="start" x="653.19" y="-178.5" font-family="Helvetica,sans-Serif" font-size="10.00" fill="grey">m_CurrentSettingAlternate</text>
<text text-anchor="middle" x="711.31" y="-166.5" font-family="Helvetica,sans-Serif" font-size="10.00" fill="grey">KeyIndex</text>
<text text-anchor="middle" x="711.31" y="-154.5" font-family="Helvetica,sans-Serif" font-size="10.00" fill="grey">m_CurrentSettingKeyIndex</text>
</g>
<!-- Node4 -->
<g id="Node000004" class="node">
<title>Node4</title>
<g id="a_Node000004"><a xlink:href="../../d9/d09/classbool.html" target="_top" xlink:title=" ">
<polygon fill="white" stroke="#666666" points="118.19,-198 84.19,-198 84.19,-178 118.19,-178 118.19,-198"/>
<text text-anchor="middle" x="101.19" y="-184.5" font-family="Helvetica,sans-Serif" font-size="10.00">bool</text>
</a>
</g>
</g>
<!-- Node4&#45;&gt;Node2 -->
<g id="edge3_Node000002_Node000004" class="edge">
<title>Node4&#45;&gt;Node2</title>
<g id="a_edge3_Node000002_Node000004"><a xlink:title=" ">
<path fill="none" stroke="#9a32cd" stroke-dasharray="5,2" d="M112.05,-168.2C121.01,-154.01 134.83,-134.86 150.94,-122 164.94,-110.82 183.08,-102.3 198.16,-96.47"/>
<polygon fill="#9a32cd" stroke="#9a32cd" points="109.15,-166.23 106.97,-176.6 115.14,-169.85 109.15,-166.23"/>
</a>
</g>
<text text-anchor="middle" x="182.31" y="-124.5" font-family="Helvetica,sans-Serif" font-size="10.00" fill="grey"> m_IsSelected</text>
</g>
<!-- Node5 -->
<g id="Node000005" class="node">
<title>Node5</title>
<g id="a_Node000005"><a xlink:href="../../dd/d0a/class_widget.html" target="_top" xlink:title=" ">
<polygon fill="white" stroke="#666666" points="275.56,-352 228.81,-352 228.81,-332 275.56,-332 275.56,-352"/>
<text text-anchor="middle" x="252.19" y="-338.5" font-family="Helvetica,sans-Serif" font-size="10.00">Widget</text>
</a>
</g>
</g>
<!-- Node5&#45;&gt;Node2 -->
<g id="edge4_Node000002_Node000005" class="edge">
<title>Node5&#45;&gt;Node2</title>
<g id="a_edge4_Node000002_Node000005"><a xlink:title=" ">
<path fill="none" stroke="#9a32cd" stroke-dasharray="5,2" d="M217.4,-336.71C161.15,-327.61 52.52,-300.48 12.94,-224 -1.77,-195.58 -6.13,-177.7 12.94,-152 31.78,-126.59 113.26,-107.22 170.11,-96.48"/>
<polygon fill="#9a32cd" stroke="#9a32cd" points="216.66,-340.14 227.07,-338.16 217.7,-333.21 216.66,-340.14"/>
</a>
</g>
<text text-anchor="middle" x="44.31" y="-196.5" font-family="Helvetica,sans-Serif" font-size="10.00" fill="grey"> m_Button</text>
<text text-anchor="middle" x="44.31" y="-184.5" font-family="Helvetica,sans-Serif" font-size="10.00" fill="grey">m_ParentRoot</text>
<text text-anchor="middle" x="44.31" y="-172.5" font-family="Helvetica,sans-Serif" font-size="10.00" fill="grey">m_Root</text>
</g>
<!-- Node5&#45;&gt;Node11 -->
<g id="edge33_Node000011_Node000005" class="edge">
<title>Node5&#45;&gt;Node11</title>
<g id="a_edge33_Node000011_Node000005"><a xlink:title=" ">
<path fill="none" stroke="#9a32cd" stroke-dasharray="5,2" d="M234.33,-323.37C199.74,-287.12 130.92,-203.35 177.44,-152 191.06,-136.96 339.01,-136.2 359.19,-134 404.12,-129.11 415.21,-126.57 460.19,-122 554.7,-112.39 580.13,-123.16 673.19,-104 682.05,-102.17 691.52,-99.29 699.87,-96.41"/>
<polygon fill="#9a32cd" stroke="#9a32cd" points="231.74,-325.73 241.24,-330.43 236.75,-320.83 231.74,-325.73"/>
</a>
</g>
<text text-anchor="middle" x="196.56" y="-184.5" font-family="Helvetica,sans-Serif" font-size="10.00" fill="grey"> m_Root</text>
</g>
<!-- Node5&#45;&gt;Node12 -->
<g id="edge22_Node000012_Node000005" class="edge">
<title>Node5&#45;&gt;Node12</title>
<g id="a_edge22_Node000012_Node000005"><a xlink:title=" ">
<path fill="none" stroke="#9a32cd" stroke-dasharray="5,2" d="M287.48,-340.12C371.38,-337.76 577.69,-330.36 604.19,-314 635.95,-294.39 615.54,-261.39 647.44,-242 701.99,-208.83 876.39,-251.12 934.19,-224 945.98,-218.47 955.65,-206.68 961.41,-198.32"/>
<polygon fill="#9a32cd" stroke="#9a32cd" points="287.44,-336.62 277.54,-340.39 287.63,-343.61 287.44,-336.62"/>
</a>
</g>
<text text-anchor="middle" x="665.56" y="-274.5" font-family="Helvetica,sans-Serif" font-size="10.00" fill="grey"> m_Root</text>
</g>
<!-- Node5&#45;&gt;Node14 -->
<g id="edge29_Node000014_Node000005" class="edge">
<title>Node5&#45;&gt;Node14</title>
<g id="a_edge29_Node000014_Node000005"><a xlink:title=" ">
<path fill="none" stroke="#9a32cd" stroke-dasharray="5,2" d="M287.33,-339.3C369.14,-335.17 566.18,-324.21 576.19,-314 626.69,-262.48 540.17,-207.36 586.44,-152 622.18,-109.24 653.28,-131.54 708.19,-122 722.58,-119.5 916.16,-100.12 1004.63,-91.32"/>
<polygon fill="#9a32cd" stroke="#9a32cd" points="287.23,-335.8 277.42,-339.79 287.58,-342.79 287.23,-335.8"/>
</a>
</g>
<text text-anchor="middle" x="605.56" y="-184.5" font-family="Helvetica,sans-Serif" font-size="10.00" fill="grey"> m_Root</text>
</g>
<!-- Node6 -->
<g id="Node000006" class="node">
<title>Node6</title>
<g id="a_Node000006"><a xlink:href="../../d2/d02/class_plugin_config_debug_profile.html" target="_top" xlink:title=" ">
<polygon fill="white" stroke="#666666" points="393.56,-198 268.81,-198 268.81,-178 393.56,-178 393.56,-198"/>
<text text-anchor="middle" x="331.19" y="-184.5" font-family="Helvetica,sans-Serif" font-size="10.00">PluginConfigDebugProfile</text>
</a>
</g>
</g>
<!-- Node6&#45;&gt;Node2 -->
<g id="edge6_Node000002_Node000006" class="edge">
<title>Node6&#45;&gt;Node2</title>
<g id="a_edge6_Node000002_Node000006"><a xlink:title=" ">
<path fill="none" stroke="#9a32cd" stroke-dasharray="5,2" d="M313.41,-169.91C291.38,-148.72 254.6,-113.36 237.06,-96.5"/>
<polygon fill="#9a32cd" stroke="#9a32cd" points="310.86,-172.31 320.5,-176.72 315.71,-167.27 310.86,-172.31"/>
</a>
</g>
<text text-anchor="middle" x="322.31" y="-124.5" font-family="Helvetica,sans-Serif" font-size="10.00" fill="grey"> m_ConfigDebugProfile</text>
</g>
<!-- Node7 -->
<g id="Node000007" class="node">
<title>Node7</title>
<g id="a_Node000007"><a xlink:href="../../d5/d02/classstring.html" target="_top" xlink:title=" ">
<polygon fill="white" stroke="#666666" points="924.19,-352 884.19,-352 884.19,-332 924.19,-332 924.19,-352"/>
<text text-anchor="middle" x="904.19" y="-338.5" font-family="Helvetica,sans-Serif" font-size="10.00">string</text>
</a>
</g>
</g>
<!-- Node7&#45;&gt;Node6 -->
<g id="edge7_Node000006_Node000007" class="edge">
<title>Node7&#45;&gt;Node6</title>
<g id="a_edge7_Node000006_Node000007"><a xlink:title=" ">
<path fill="none" stroke="#9a32cd" stroke-dasharray="5,2" d="M872.53,-341.05C790.8,-340.81 574.46,-337.89 507.44,-314 434.65,-288.05 364.88,-222.92 340.4,-198.47"/>
<polygon fill="#9a32cd" stroke="#9a32cd" points="872.27,-344.54 882.28,-341.06 872.28,-337.54 872.27,-344.54"/>
</a>
</g>
<text text-anchor="middle" x="568.56" y="-292.5" font-family="Helvetica,sans-Serif" font-size="10.00" fill="grey"> POSITIONS_LIST</text>
<text text-anchor="middle" x="568.56" y="-280.5" font-family="Helvetica,sans-Serif" font-size="10.00" fill="grey">POSITIONS_LIST_ENOCH</text>
<text text-anchor="middle" x="568.56" y="-268.5" font-family="Helvetica,sans-Serif" font-size="10.00" fill="grey">SUB_PARAM_POS_NAME</text>
<text text-anchor="middle" x="568.56" y="-256.5" font-family="Helvetica,sans-Serif" font-size="10.00" fill="grey">SUB_PARAM_POS_VEC</text>
</g>
<!-- Node7&#45;&gt;Node7 -->
<g id="edge8_Node000007_Node000007" class="edge">
<title>Node7&#45;&gt;Node7</title>
<g id="a_edge8_Node000007_Node000007"><a xlink:title=" ">
<path fill="none" stroke="#9a32cd" stroke-dasharray="5,2" d="M929.96,-353.91C936.9,-353.28 942.19,-349.31 942.19,-342 942.19,-331.12 930.48,-327.64 919.01,-331.55"/>
<polygon fill="#9a32cd" stroke="#9a32cd" points="930.88,-350.5 920.51,-352.65 929.96,-357.44 930.88,-350.5"/>
</a>
</g>
<text text-anchor="middle" x="957.94" y="-338.5" font-family="Helvetica,sans-Serif" font-size="10.00" fill="grey"> Empty</text>
</g>
<!-- Node7&#45;&gt;Node11 -->
<g id="edge32_Node000011_Node000007" class="edge">
<title>Node7&#45;&gt;Node11</title>
<g id="a_edge32_Node000011_Node000007"><a xlink:title=" ">
<path fill="none" stroke="#9a32cd" stroke-dasharray="5,2" d="M875.98,-325.3C871.36,-321.96 866.88,-318.16 863.19,-314 839.43,-287.25 844.27,-273.43 827.19,-242 805.02,-201.22 800.16,-190.47 774.19,-152 760.32,-131.47 742.21,-108.82 732.02,-96.42"/>
<polygon fill="#9a32cd" stroke="#9a32cd" points="873.91,-328.13 884.2,-330.68 877.75,-322.28 873.91,-328.13"/>
</a>
</g>
<text text-anchor="middle" x="834.81" y="-184.5" font-family="Helvetica,sans-Serif" font-size="10.00" fill="grey"> m_Test</text>
</g>
<!-- Node7&#45;&gt;Node12 -->
<g id="edge21_Node000012_Node000007" class="edge">
<title>Node7&#45;&gt;Node12</title>
<g id="a_edge21_Node000012_Node000007"><a xlink:title=" ">
<path fill="none" stroke="#9a32cd" stroke-dasharray="5,2" d="M912.33,-321.35C926.08,-288.19 953.35,-222.39 963.37,-198.2"/>
<polygon fill="#9a32cd" stroke="#9a32cd" points="909.11,-319.97 908.52,-330.55 915.58,-322.65 909.11,-319.97"/>
</a>
</g>
<text text-anchor="middle" x="961.81" y="-274.5" font-family="Helvetica,sans-Serif" font-size="10.00" fill="grey"> m_Test</text>
</g>
<!-- Node7&#45;&gt;Node14 -->
<g id="edge28_Node000014_Node000007" class="edge">
<title>Node7&#45;&gt;Node14</title>
<g id="a_edge28_Node000014_Node000007"><a xlink:title=" ">
<path fill="none" stroke="#9a32cd" stroke-dasharray="5,2" d="M935.52,-334.66C950.85,-330.51 969.01,-323.96 983.19,-314 1025.09,-284.54 1027.77,-267.27 1055.19,-224 1079.02,-186.39 1089.15,-177.38 1099.19,-134 1100.39,-128.8 1101.67,-126.72 1099.19,-122 1093.18,-110.6 1081.6,-102.19 1070.99,-96.48"/>
<polygon fill="#9a32cd" stroke="#9a32cd" points="934.8,-331.23 925.92,-337.02 936.47,-338.03 934.8,-331.23"/>
</a>
</g>
<text text-anchor="middle" x="1110.81" y="-184.5" font-family="Helvetica,sans-Serif" font-size="10.00" fill="grey"> m_Test</text>
</g>
<!-- Node8 -->
<g id="Node000008" class="node">
<title>Node8</title>
<g id="a_Node000008"><a xlink:href="../../d4/d03/classfloat.html" target="_top" xlink:title=" ">
<polygon fill="white" stroke="#666666" points="602.19,-96 568.19,-96 568.19,-76 602.19,-76 602.19,-96"/>
<text text-anchor="middle" x="585.19" y="-82.5" font-family="Helvetica,sans-Serif" font-size="10.00">float</text>
</a>
</g>
</g>
<!-- Node8&#45;&gt;Node1 -->
<g id="edge9_Node000001_Node000008" class="edge">
<title>Node8&#45;&gt;Node1</title>
<g id="a_edge9_Node000001_Node000008"><a xlink:title=" ">
<path fill="none" stroke="#9a32cd" stroke-dasharray="5,2" d="M609.81,-69.72C625.51,-60.2 646.41,-47.91 665.44,-38 677.38,-31.78 691.04,-25.45 702.18,-20.49"/>
<polygon fill="#9a32cd" stroke="#9a32cd" points="608.31,-66.54 601.61,-74.74 611.97,-72.51 608.31,-66.54"/>
</a>
</g>
<text text-anchor="middle" x="692.56" y="-40.5" font-family="Helvetica,sans-Serif" font-size="10.00" fill="grey"> m_Distance</text>
</g>
<!-- Node8&#45;&gt;Node8 -->
<g id="edge10_Node000008_Node000008" class="edge">
<title>Node8&#45;&gt;Node8</title>
<g id="a_edge10_Node000008_Node000008"><a xlink:title=" ">
<path fill="none" stroke="#9a32cd" stroke-dasharray="5,2" d="M613.86,-92.95C617.66,-91.77 620.19,-89.45 620.19,-86 620.19,-79.68 611.74,-77.17 602.47,-78.45"/>
<polygon fill="#9a32cd" stroke="#9a32cd" points="613.79,-89.45 603.99,-93.47 614.15,-96.44 613.79,-89.45"/>
</a>
</g>
<text text-anchor="middle" x="642.31" y="-94.5" font-family="Helvetica,sans-Serif" font-size="10.00" fill="grey"> LOWEST</text>
<text text-anchor="middle" x="642.31" y="-82.5" font-family="Helvetica,sans-Serif" font-size="10.00" fill="grey">MAX</text>
<text text-anchor="middle" x="642.31" y="-70.5" font-family="Helvetica,sans-Serif" font-size="10.00" fill="grey">MIN</text>
</g>
<!-- Node9 -->
<g id="Node000009" class="node">
<title>Node9</title>
<g id="a_Node000009"><a xlink:href="../../d8/d03/class_object.html" target="_top" xlink:title=" ">
<polygon fill="white" stroke="#666666" points="1295.44,-352 1250.94,-352 1250.94,-332 1295.44,-332 1295.44,-352"/>
<text text-anchor="middle" x="1273.19" y="-338.5" font-family="Helvetica,sans-Serif" font-size="10.00">Object</text>
</a>
</g>
</g>
<!-- Node9&#45;&gt;Node1 -->
<g id="edge11_Node000001_Node000009" class="edge">
<title>Node9&#45;&gt;Node1</title>
<g id="a_edge11_Node000001_Node000009"><a xlink:title=" ">
<path fill="none" stroke="#9a32cd" stroke-dasharray="5,2" d="M1290.37,-323.32C1292.59,-320.37 1294.62,-317.22 1296.19,-314 1327.79,-248.82 1349.15,-215.44 1314.19,-152 1280.44,-90.77 1247.01,-91.56 1181.19,-68 1046.44,-19.77 876.7,-11.12 786.78,-10.28"/>
<polygon fill="#9a32cd" stroke="#9a32cd" points="1287.87,-320.85 1284.02,-330.72 1293.19,-325.41 1287.87,-320.85"/>
</a>
</g>
<text text-anchor="middle" x="1329.56" y="-124.5" font-family="Helvetica,sans-Serif" font-size="10.00" fill="grey"> m_Selected</text>
</g>
<!-- Node9&#45;&gt;Node11 -->
<g id="edge14_Node000011_Node000009" class="edge">
<title>Node9&#45;&gt;Node11</title>
<g id="a_edge14_Node000011_Node000009"><a xlink:title=" ">
<path fill="none" stroke="#9a32cd" stroke-dasharray="5,2" d="M1269.25,-320.73C1263.78,-298.12 1251.66,-262.09 1227.19,-242 1201.02,-220.53 1177.8,-247.23 1153.19,-224 1128.85,-201.04 1156.94,-173.36 1131.19,-152 1103.31,-128.88 1004.46,-142.25 969.19,-134 953.99,-130.45 951.38,-125.56 936.19,-122 866.08,-105.58 845.51,-119.47 775.19,-104 766.53,-102.09 757.27,-99.26 749.05,-96.45"/>
<polygon fill="#9a32cd" stroke="#9a32cd" points="1265.77,-321.22 1271.32,-330.24 1272.61,-319.73 1265.77,-321.22"/>
</a>
</g>
<text text-anchor="middle" x="1166.69" y="-190.5" font-family="Helvetica,sans-Serif" font-size="10.00" fill="grey"> obj</text>
<text text-anchor="middle" x="1166.69" y="-178.5" font-family="Helvetica,sans-Serif" font-size="10.00" fill="grey">parent</text>
</g>
<!-- Node9&#45;&gt;Node12 -->
<g id="edge17_Node000012_Node000009" class="edge">
<title>Node9&#45;&gt;Node12</title>
<g id="a_edge17_Node000012_Node000009"><a xlink:title=" ">
<path fill="none" stroke="#9a32cd" stroke-dasharray="5,2" d="M1239.75,-332.05C1226.79,-327.73 1212.21,-321.77 1200.19,-314 1162.43,-289.62 1168.1,-264.48 1129.19,-242 1101.74,-226.15 1090.39,-233.59 1060.19,-224 1034.21,-215.75 1004.87,-204.35 986.22,-196.83"/>
<polygon fill="#9a32cd" stroke="#9a32cd" points="1238.58,-335.35 1249.17,-334.98 1240.66,-328.67 1238.58,-335.35"/>
</a>
</g>
<text text-anchor="middle" x="1213.69" y="-280.5" font-family="Helvetica,sans-Serif" font-size="10.00" fill="grey"> obj</text>
<text text-anchor="middle" x="1213.69" y="-268.5" font-family="Helvetica,sans-Serif" font-size="10.00" fill="grey">parent</text>
</g>
<!-- Node9&#45;&gt;Node14 -->
<g id="edge24_Node000014_Node000009" class="edge">
<title>Node9&#45;&gt;Node14</title>
<g id="a_edge24_Node000014_Node000009"><a xlink:title=" ">
<path fill="none" stroke="#9a32cd" stroke-dasharray="5,2" d="M1277.97,-320.5C1285.49,-282.86 1295.53,-202.01 1257.19,-152 1218.34,-101.34 1140.47,-89.18 1091.53,-86.8"/>
<polygon fill="#9a32cd" stroke="#9a32cd" points="1274.61,-319.51 1275.92,-330.03 1281.45,-320.99 1274.61,-319.51"/>
</a>
</g>
<text text-anchor="middle" x="1296.69" y="-190.5" font-family="Helvetica,sans-Serif" font-size="10.00" fill="grey"> obj</text>
<text text-anchor="middle" x="1296.69" y="-178.5" font-family="Helvetica,sans-Serif" font-size="10.00" fill="grey">parent</text>
</g>
<!-- Node10 -->
<g id="Node000010" class="node">
<title>Node10</title>
<g id="a_Node000010"><a xlink:href="../../d0/d0b/class_edit_box_widget.html" target="_top" xlink:title=" ">
<polygon fill="white" stroke="#666666" points="865.81,-96 784.56,-96 784.56,-76 865.81,-76 865.81,-96"/>
<text text-anchor="middle" x="825.19" y="-82.5" font-family="Helvetica,sans-Serif" font-size="10.00">EditBoxWidget</text>
</a>
</g>
</g>
<!-- Node10&#45;&gt;Node1 -->
<g id="edge12_Node000001_Node000010" class="edge">
<title>Node10&#45;&gt;Node1</title>
<g id="a_edge12_Node000001_Node000010"><a xlink:title=" ">
<path fill="none" stroke="#9a32cd" stroke-dasharray="5,2" d="M818.89,-64.98C815.08,-55.68 809.34,-45.12 801.19,-38 792.12,-30.08 780.58,-24.44 769.22,-20.44"/>
<polygon fill="#9a32cd" stroke="#9a32cd" points="815.57,-66.08 822.23,-74.32 822.16,-63.73 815.57,-66.08"/>
</a>
</g>
<text text-anchor="middle" x="852.94" y="-40.5" font-family="Helvetica,sans-Serif" font-size="10.00" fill="grey"> m_DistanceWidget</text>
</g>
<!-- Node11&#45;&gt;Node1 -->
<g id="edge13_Node000001_Node000011" class="edge">
<title>Node11&#45;&gt;Node1</title>
<g id="a_edge13_Node000001_Node000011"><a xlink:title=" ">
<path fill="none" stroke="#9a32cd" stroke-dasharray="5,2" d="M724.19,-64.23C724.19,-49.69 724.19,-30.99 724.19,-20.06"/>
<polygon fill="#9a32cd" stroke="#9a32cd" points="720.69,-64.11 724.19,-74.11 727.69,-64.11 720.69,-64.11"/>
</a>
</g>
<text text-anchor="middle" x="760.56" y="-40.5" font-family="Helvetica,sans-Serif" font-size="10.00" fill="grey"> m_VicinityItems</text>
</g>
<!-- Node12&#45;&gt;Node11 -->
<g id="edge16_Node000011_Node000012" class="edge">
<title>Node12&#45;&gt;Node11</title>
<g id="a_edge16_Node000011_Node000012"><a xlink:title=" ">
<path fill="none" stroke="#9a32cd" stroke-dasharray="5,2" d="M952.68,-168.96C947.31,-163.05 940.88,-156.77 934.19,-152 918.31,-140.69 911.72,-142.51 894.19,-134 883.81,-128.97 882.08,-125.77 871.19,-122 830.16,-107.81 817.21,-114.89 775.19,-104 766.96,-101.87 758.14,-99.11 750.19,-96.43"/>
<polygon fill="#9a32cd" stroke="#9a32cd" points="950.01,-171.22 959.16,-176.55 955.33,-166.68 950.01,-171.22"/>
</a>
</g>
<text text-anchor="middle" x="915.19" y="-124.5" font-family="Helvetica,sans-Serif" font-size="10.00" fill="grey"> proxyInfo</text>
</g>
<!-- Node12&#45;&gt;Node12 -->
<g id="edge19_Node000012_Node000012" class="edge">
<title>Node12&#45;&gt;Node12</title>
<g id="a_edge19_Node000012_Node000012"><a xlink:title=" ">
<path fill="none" stroke="#9a32cd" stroke-dasharray="5,2" d="M995.21,-198.66C1000.41,-197.34 1004.06,-193.78 1004.06,-188 1004.06,-178.51 994.22,-175.02 983.87,-177.54"/>
<polygon fill="#9a32cd" stroke="#9a32cd" points="995.45,-195.17 985.39,-198.48 995.32,-202.16 995.45,-195.17"/>
</a>
</g>
<text text-anchor="middle" x="1025.06" y="-184.5" font-family="Helvetica,sans-Serif" font-size="10.00" fill="grey"> proxyInfo</text>
</g>
<!-- Node12&#45;&gt;Node14 -->
<g id="edge26_Node000014_Node000012" class="edge">
<title>Node12&#45;&gt;Node14</title>
<g id="a_edge26_Node000014_Node000012"><a xlink:title=" ">
<path fill="none" stroke="#9a32cd" stroke-dasharray="5,2" d="M966.83,-166.32C967.6,-152.53 970.63,-134.66 980.19,-122 989.14,-110.13 1003.28,-101.95 1016.35,-96.5"/>
<polygon fill="#9a32cd" stroke="#9a32cd" points="963.34,-166.02 966.67,-176.07 970.34,-166.13 963.34,-166.02"/>
</a>
</g>
<text text-anchor="middle" x="1001.19" y="-124.5" font-family="Helvetica,sans-Serif" font-size="10.00" fill="grey"> proxyInfo</text>
</g>
<!-- Node13 -->
<g id="Node000013" class="node">
<title>Node13</title>
<g id="a_Node000013"><a xlink:href="../../d4/d04/class_class.html" target="_top" xlink:title="Super root of all classes in Enforce script.">
<polygon fill="white" stroke="#666666" points="1118.56,-352 1077.81,-352 1077.81,-332 1118.56,-332 1118.56,-352"/>
<text text-anchor="middle" x="1098.19" y="-338.5" font-family="Helvetica,sans-Serif" font-size="10.00">Class</text>
</a>
</g>
</g>
<!-- Node13&#45;&gt;Node11 -->
<g id="edge31_Node000011_Node000013" class="edge">
<title>Node13&#45;&gt;Node11</title>
<g id="a_edge31_Node000011_Node000013"><a xlink:title=" ">
<path fill="none" stroke="#9a32cd" stroke-dasharray="5,2" d="M1066.08,-338.15C1016.01,-333.44 923.86,-323.6 912.19,-314 853.24,-265.51 905.76,-209.17 855.19,-152 840.13,-134.98 782.08,-109.98 748.52,-96.48"/>
<polygon fill="#9a32cd" stroke="#9a32cd" points="1065.74,-341.64 1076.02,-339.07 1066.39,-334.66 1065.74,-341.64"/>
</a>
</g>
<text text-anchor="middle" x="906.81" y="-184.5" font-family="Helvetica,sans-Serif" font-size="10.00" fill="grey"> m_Instance</text>
</g>
<!-- Node13&#45;&gt;Node12 -->
<g id="edge20_Node000012_Node000013" class="edge">
<title>Node13&#45;&gt;Node12</title>
<g id="a_edge20_Node000012_Node000013"><a xlink:title=" ">
<path fill="none" stroke="#9a32cd" stroke-dasharray="5,2" d="M1083.09,-323.48C1055.17,-291.09 996.42,-222.92 975.11,-198.2"/>
<polygon fill="#9a32cd" stroke="#9a32cd" points="1080.22,-325.51 1089.4,-330.8 1085.52,-320.94 1080.22,-325.51"/>
</a>
</g>
<text text-anchor="middle" x="1098.81" y="-274.5" font-family="Helvetica,sans-Serif" font-size="10.00" fill="grey"> m_Instance</text>
</g>
<!-- Node13&#45;&gt;Node14 -->
<g id="edge27_Node000014_Node000013" class="edge">
<title>Node13&#45;&gt;Node14</title>
<g id="a_edge27_Node000014_Node000013"><a xlink:title=" ">
<path fill="none" stroke="#9a32cd" stroke-dasharray="5,2" d="M1130.28,-336.98C1157.46,-332.84 1193.39,-325.37 1202.19,-314 1221.77,-288.69 1205.34,-273.84 1202.19,-242 1198.17,-201.41 1206.71,-186.01 1184.19,-152 1163.45,-120.69 1123.23,-104.06 1091.88,-95.49"/>
<polygon fill="#9a32cd" stroke="#9a32cd" points="1129.8,-333.51 1120.4,-338.39 1130.79,-340.44 1129.8,-333.51"/>
</a>
</g>
<text text-anchor="middle" x="1226.81" y="-184.5" font-family="Helvetica,sans-Serif" font-size="10.00" fill="grey"> m_Instance</text>
</g>
<!-- Node14&#45;&gt;Node12 -->
<g id="edge23_Node000012_Node000014" class="edge">
<title>Node14&#45;&gt;Node12</title>
<g id="a_edge23_Node000012_Node000014"><a xlink:title=" ">
<path fill="none" stroke="#9a32cd" stroke-dasharray="5,2" d="M1041.04,-106.72C1037.34,-115.52 1032.31,-125.75 1026.19,-134 1013.06,-151.69 993.29,-167.97 980.32,-177.69"/>
<polygon fill="#9a32cd" stroke="#9a32cd" points="1044.2,-108.25 1044.57,-97.66 1037.68,-105.71 1044.2,-108.25"/>
</a>
</g>
<text text-anchor="middle" x="1063.69" y="-124.5" font-family="Helvetica,sans-Serif" font-size="10.00" fill="grey"> m_Subgroups</text>
</g>
<!-- Node14&#45;&gt;Node14 -->
<g id="edge30_Node000014_Node000014" class="edge">
<title>Node14&#45;&gt;Node14</title>
<g id="a_edge30_Node000014_Node000014"><a xlink:title=" ">
<path fill="none" stroke="#9a32cd" stroke-dasharray="5,2" d="M1102.82,-91.88C1106.92,-90.57 1109.44,-88.61 1109.44,-86 1109.44,-81.49 1101.9,-78.92 1091.68,-78.28"/>
<polygon fill="#9a32cd" stroke="#9a32cd" points="1102.47,-88.39 1093.17,-93.47 1103.61,-95.3 1102.47,-88.39"/>
</a>
</g>
<text text-anchor="middle" x="1140.94" y="-82.5" font-family="Helvetica,sans-Serif" font-size="10.00" fill="grey"> m_Subgroups</text>
</g>
</g>
</svg>

<g id="navigator" transform="translate(0 0)" fill="#404254">
  <rect fill="#f2f5e9" fill-opacity="0.5" stroke="#606060" stroke-width=".5" x="0" y="0" width="60" height="60"/>
  <use id="zoomplus" xlink:href="#zoomPlus" x="17" y="9" onmousedown="handleZoom(evt,'in')"/>
  <use id="zoomminus" xlink:href="#zoomMin" x="42" y="9" onmousedown="handleZoom(evt,'out')"/>
  <use id="reset" xlink:href="#resetDef" x="30" y="36" onmousedown="handleReset()"/>
   <use id="arrowup" xlink:href="#arrowUp" x="0" y="0" onmousedown="handlePan(0,-1)"/>
  <use id="arrowright" xlink:href="#arrowRight" x="0" y="0" onmousedown="handlePan(1,0)"/>
  <use id="arrowdown" xlink:href="#arrowDown" x="0" y="0" onmousedown="handlePan(0,1)"/>
  <use id="arrowleft" xlink:href="#arrowLeft" x="0" y="0" onmousedown="handlePan(-1,0)"/>
</g>
<svg viewBox="0 0 15 15" width="100%" height="30px" preserveAspectRatio="xMaxYMin meet">
 <g id="arrow_out" transform="scale(0.3 0.3)">
  <a xlink:href="class_script_console_vicinity_tab__coll__graph_org.svg" target="_base">
   <rect id="button" ry="5" rx="5" y="6" x="6" height="38" width="38"
        fill="#f2f5e9" fill-opacity="0.5" stroke="#606060" stroke-width="1.0"/>
   <path id="arrow"
     d="M 11.500037,31.436501 C 11.940474,20.09759 22.043105,11.32322 32.158766,21.979434 L 37.068811,17.246167 C 37.068811,17.246167 37.088388,32 37.088388,32 L 22.160133,31.978069 C 22.160133,31.978069 26.997745,27.140456 26.997745,27.140456 C 18.528582,18.264221 13.291696,25.230495 11.500037,31.436501 z"
     style="fill:#404040;"/>
  </a>
 </g>
</svg>

<style type='text/css'>
<![CDATA[
[data-mouse-over-selected='false'] { opacity: 0.7; }
[data-mouse-over-selected='true']  { opacity: 1.0; }
]]>
</style>
<script type="application/ecmascript"><![CDATA[
document.addEventListener('DOMContentLoaded', (event) => {
  highlightEdges();
  highlightAdjacentNodes();
});
]]></script>
</svg>
