<?xml version="1.0" encoding="UTF-8" standalone="no"?>
<!DOCTYPE svg PUBLIC "-//W3C//DTD SVG 1.1//EN"
 "http://www.w3.org/Graphics/SVG/1.1/DTD/svg11.dtd">
<!-- Generated by graphviz version 11.0.0 (20240428.1522)
 -->
<!-- Title: InputUtils Pages: 1 -->
<!--zoomable 398 -->

<svg id="main" version="1.1" xmlns="http://www.w3.org/2000/svg" xmlns:xlink="http://www.w3.org/1999/xlink" xml:space="preserve" onload="init(evt)">
<style type="text/css"><![CDATA[
.node, .edge {opacity: 0.7;}
.node.selected, .edge.selected {opacity: 1;}
.edge:hover path { stroke: red; }
.edge:hover polygon { stroke: red; fill: red; }
]]></style>

<defs>
  <circle id="rim" cx="0" cy="0" r="7"/>
  <circle id="rim2" cx="0" cy="0" r="3.5"/>
  <g id="zoomPlus">
    <use xlink:href="#rim" fill="#404040"><set attributeName="fill" to="#808080" begin="zoomplus.mouseover" end="zoomplus.mouseout"/></use>
    <path d="M-4,0h8M0,-4v8" fill="none" stroke="white" stroke-width="1.5" pointer-events="none"/>
  </g>
  <g id="zoomMin">
    <use xlink:href="#rim" fill="#404040"><set attributeName="fill" to="#808080" begin="zoomminus.mouseover" end="zoomminus.mouseout"/></use>
    <path d="M-4,0h8" fill="none" stroke="white" stroke-width="1.5" pointer-events="none"/>
  </g>
  <g id="arrowUp" transform="translate(30 24)">
    <use xlink:href="#rim"/>
    <path pointer-events="none" fill="none" stroke="white" stroke-width="1.5" d="M0,-3.0v7 M-2.5,-0.5L0,-3.0L2.5,-0.5"/>
  </g>
  <g id="arrowRight" transform="rotate(90) translate(36 -43)">
    <use xlink:href="#rim"/>
    <path pointer-events="none" fill="none" stroke="white" stroke-width="1.5" d="M0,-3.0v7 M-2.5,-0.5L0,-3.0L2.5,-0.5"/>
  </g>
  <g id="arrowDown" transform="rotate(180) translate(-30 -48)">
    <use xlink:href="#rim"/>
    <path pointer-events="none" fill="none" stroke="white" stroke-width="1.5" d="M0,-3.0v7 M-2.5,-0.5L0,-3.0L2.5,-0.5"/>
  </g>
  <g id="arrowLeft" transform="rotate(270) translate(-36 17)">
    <use xlink:href="#rim"/>
    <path pointer-events="none" fill="none" stroke="white" stroke-width="1.5" d="M0,-3.0v7 M-2.5,-0.5L0,-3.0L2.5,-0.5"/>
  </g>
  <g id="resetDef">
    <use xlink:href="#rim2" fill="#404040"><set attributeName="fill" to="#808080" begin="reset.mouseover" end="reset.mouseout"/></use>
  </g>
</defs>
<script type="application/ecmascript">
var viewWidth = 1247;
var viewHeight = 398;
var sectionId = 'dynsection-0';
</script>
<script type="application/ecmascript" xlink:href="../../svg.min.js"/>
<svg id="graph" class="graph">
<g id="viewport">
<title>InputUtils</title>
<!-- Node1 -->
<g id="Node000001" class="node">
<title>Node1</title>
<g id="a_Node000001"><a xlink:title=" ">
<polygon fill="#999999" stroke="#666666" points="1056.29,-20 999.79,-20 999.79,0 1056.29,0 1056.29,-20"/>
<text text-anchor="middle" x="1028.04" y="-6.5" font-family="Helvetica,sans-Serif" font-size="10.00">InputUtils</text>
</a>
</g>
</g>
<!-- Node2 -->
<g id="Node000002" class="node">
<title>Node2</title>
<g id="a_Node000002"><a xlink:href="../../d5/d02/classstring.html" target="_top" xlink:title=" ">
<polygon fill="white" stroke="#666666" points="1017.04,-388 977.04,-388 977.04,-368 1017.04,-368 1017.04,-388"/>
<text text-anchor="middle" x="997.04" y="-374.5" font-family="Helvetica,sans-Serif" font-size="10.00">string</text>
</a>
</g>
</g>
<!-- Node2&#45;&gt;Node1 -->
<g id="edge1_Node000001_Node000002" class="edge">
<title>Node2&#45;&gt;Node1</title>
<g id="a_edge1_Node000001_Node000002"><a xlink:title=" ">
<path fill="none" stroke="#9a32cd" stroke-dasharray="5,2" d="M1018.05,-359.79C1020.99,-356.74 1023.78,-353.44 1026.04,-350 1049.35,-314.52 1048.93,-301.47 1058.04,-260 1079.27,-163.31 1126.01,-123.45 1076.04,-38 1071.5,-30.24 1063.82,-24.54 1055.93,-20.43"/>
<polygon fill="#9a32cd" stroke="#9a32cd" points="1015.7,-357.19 1010.75,-366.56 1020.46,-362.33 1015.7,-357.19"/>
</a>
</g>
<text text-anchor="middle" x="1130.29" y="-154.5" font-family="Helvetica,sans-Serif" font-size="10.00" fill="grey"> PRESET_NEW</text>
<text text-anchor="middle" x="1130.29" y="-142.5" font-family="Helvetica,sans-Serif" font-size="10.00" fill="grey">PRESET_OLD</text>
</g>
<!-- Node2&#45;&gt;Node2 -->
<g id="edge2_Node000002_Node000002" class="edge">
<title>Node2&#45;&gt;Node2</title>
<g id="a_edge2_Node000002_Node000002"><a xlink:title=" ">
<path fill="none" stroke="#9a32cd" stroke-dasharray="5,2" d="M1022.81,-389.91C1029.76,-389.28 1035.04,-385.31 1035.04,-378 1035.04,-367.12 1023.34,-363.64 1011.86,-367.55"/>
<polygon fill="#9a32cd" stroke="#9a32cd" points="1023.74,-386.5 1013.36,-388.65 1022.81,-393.44 1023.74,-386.5"/>
</a>
</g>
<text text-anchor="middle" x="1050.79" y="-374.5" font-family="Helvetica,sans-Serif" font-size="10.00" fill="grey"> Empty</text>
</g>
<!-- Node4 -->
<g id="Node000004" class="node">
<title>Node4</title>
<g id="a_Node000004"><a xlink:href="../../d2/d01/classarray.html" target="_top" xlink:title=" ">
<polygon fill="white" stroke="#666666" points="870.79,-108 781.29,-108 781.29,-88 870.79,-88 870.79,-108"/>
<text text-anchor="middle" x="826.04" y="-94.5" font-family="Helvetica,sans-Serif" font-size="10.00">array&lt; Param3 &gt;</text>
</a>
</g>
</g>
<!-- Node2&#45;&gt;Node4 -->
<g id="edge23_Node000004_Node000002" class="edge">
<title>Node2&#45;&gt;Node4</title>
<g id="a_edge23_Node000004_Node000002"><a xlink:title=" ">
<path fill="none" stroke="#9a32cd" stroke-dasharray="5,2" d="M1003.95,-357.18C1015.38,-320.65 1033.88,-241.54 1001.04,-188 972.88,-142.09 912.82,-118.95 870.96,-107.96"/>
<polygon fill="#9a32cd" stroke="#9a32cd" points="1000.72,-355.81 1000.91,-366.4 1007.37,-358 1000.72,-355.81"/>
</a>
</g>
<text text-anchor="middle" x="1036.66" y="-220.5" font-family="Helvetica,sans-Serif" font-size="10.00" fill="grey"> m_Test</text>
</g>
<!-- Node6 -->
<g id="Node000006" class="node">
<title>Node6</title>
<g id="a_Node000006"><a xlink:href="../../d2/d01/classarray.html" target="_top" xlink:title="Result for an object found in CGame.IsBoxCollidingGeometryProxy.">
<polygon fill="white" stroke="#666666" points="656.91,-234 619.16,-234 619.16,-214 656.91,-214 656.91,-234"/>
<text text-anchor="middle" x="638.04" y="-220.5" font-family="Helvetica,sans-Serif" font-size="10.00">array</text>
</a>
</g>
</g>
<!-- Node2&#45;&gt;Node6 -->
<g id="edge12_Node000006_Node000002" class="edge">
<title>Node2&#45;&gt;Node6</title>
<g id="a_edge12_Node000006_Node000002"><a xlink:title=" ">
<path fill="none" stroke="#9a32cd" stroke-dasharray="5,2" d="M965.8,-367.97C949.79,-363.1 930.07,-356.71 912.79,-350 841.32,-322.25 825.84,-309.71 756.04,-278 721.28,-262.21 680.65,-244.02 657.27,-233.58"/>
<polygon fill="#9a32cd" stroke="#9a32cd" points="964.68,-371.29 975.26,-370.8 966.69,-364.58 964.68,-371.29"/>
</a>
</g>
<text text-anchor="middle" x="930.66" y="-310.5" font-family="Helvetica,sans-Serif" font-size="10.00" fill="grey"> m_Test</text>
</g>
<!-- Node9 -->
<g id="Node000009" class="node">
<title>Node9</title>
<g id="a_Node000009"><a xlink:href="../../d2/d01/classarray.html" target="_top" xlink:title=" ">
<polygon fill="white" stroke="#666666" points="492.29,-108 405.79,-108 405.79,-88 492.29,-88 492.29,-108"/>
<text text-anchor="middle" x="449.04" y="-94.5" font-family="Helvetica,sans-Serif" font-size="10.00">array&lt; Widget &gt;</text>
</a>
</g>
</g>
<!-- Node2&#45;&gt;Node9 -->
<g id="edge19_Node000009_Node000002" class="edge">
<title>Node2&#45;&gt;Node9</title>
<g id="a_edge19_Node000009_Node000002"><a xlink:title=" ">
<path fill="none" stroke="#9a32cd" stroke-dasharray="5,2" d="M990.83,-356.69C976.08,-308.54 939.95,-191.26 937.04,-188 897.8,-144.09 872.99,-148.99 816.04,-134 702.15,-104.02 562.38,-99.05 492.77,-98.63"/>
<polygon fill="#9a32cd" stroke="#9a32cd" points="987.44,-357.58 993.72,-366.12 994.14,-355.53 987.44,-357.58"/>
</a>
</g>
<text text-anchor="middle" x="977.66" y="-220.5" font-family="Helvetica,sans-Serif" font-size="10.00" fill="grey"> m_Test</text>
</g>
<!-- Node3 -->
<g id="Node000003" class="node">
<title>Node3</title>
<g id="a_Node000003"><a xlink:href="../../db/d06/class_param3.html" target="_top" xlink:title=" ">
<polygon fill="white" stroke="#666666" points="172.91,-388 123.16,-388 123.16,-368 172.91,-368 172.91,-388"/>
<text text-anchor="middle" x="148.04" y="-374.5" font-family="Helvetica,sans-Serif" font-size="10.00">Param3</text>
</a>
</g>
</g>
<!-- Node3&#45;&gt;Node1 -->
<g id="edge3_Node000001_Node000003" class="edge">
<title>Node3&#45;&gt;Node1</title>
<g id="a_edge3_Node000001_Node000003"><a xlink:title=" ">
<path fill="none" stroke="#9a32cd" stroke-dasharray="5,2" d="M119.7,-361.42C115.1,-358.06 110.66,-354.23 107.04,-350 40.33,-271.98 -41.87,-211.62 25.29,-134 91.03,-58.02 842.35,-19.52 999.38,-12.27"/>
<polygon fill="#9a32cd" stroke="#9a32cd" points="117.64,-364.25 127.92,-366.8 121.47,-358.39 117.64,-364.25"/>
</a>
</g>
<text text-anchor="middle" x="84.91" y="-160.5" font-family="Helvetica,sans-Serif" font-size="10.00" fill="grey"> VARIANT_NEW</text>
<text text-anchor="middle" x="84.91" y="-148.5" font-family="Helvetica,sans-Serif" font-size="10.00" fill="grey">VARIANT_OLD</text>
<text text-anchor="middle" x="84.91" y="-136.5" font-family="Helvetica,sans-Serif" font-size="10.00" fill="grey">m_CurrentPresetIDConsole</text>
</g>
<!-- Node3&#45;&gt;Node4 -->
<g id="edge6_Node000004_Node000003" class="edge">
<title>Node3&#45;&gt;Node4</title>
<g id="a_edge6_Node000004_Node000003"><a xlink:title=" ">
<path fill="none" stroke="#9a32cd" stroke-dasharray="5,2" d="M166.46,-360.19C190,-339.25 232.56,-303.16 273.04,-278 288.91,-268.13 298.49,-273.85 311.04,-260 333.85,-234.81 309.75,-208.59 336.79,-188 379.56,-155.43 530.66,-195.4 578.04,-170 595.9,-160.42 588.59,-144.31 606.04,-134 634.92,-116.93 725.71,-106.92 781.22,-102.24"/>
<polygon fill="#9a32cd" stroke="#9a32cd" points="164.36,-357.37 159.26,-366.66 169.04,-362.58 164.36,-357.37"/>
</a>
</g>
<text text-anchor="middle" x="395.16" y="-250.5" font-family="Helvetica,sans-Serif" font-size="10.00" fill="grey"> NO_SORTING</text>
<text text-anchor="middle" x="395.16" y="-238.5" font-family="Helvetica,sans-Serif" font-size="10.00" fill="grey">geomLevel</text>
<text text-anchor="middle" x="395.16" y="-226.5" font-family="Helvetica,sans-Serif" font-size="10.00" fill="grey">hierLevel</text>
<text text-anchor="start" x="337.04" y="-214.5" font-family="Helvetica,sans-Serif" font-size="10.00" fill="grey">m_CurrentSettingAlternate</text>
<text text-anchor="middle" x="395.16" y="-202.5" font-family="Helvetica,sans-Serif" font-size="10.00" fill="grey">KeyIndex</text>
<text text-anchor="middle" x="395.16" y="-190.5" font-family="Helvetica,sans-Serif" font-size="10.00" fill="grey">m_CurrentSettingKeyIndex</text>
</g>
<!-- Node3&#45;&gt;Node6 -->
<g id="edge9_Node000006_Node000003" class="edge">
<title>Node3&#45;&gt;Node6</title>
<g id="a_edge9_Node000006_Node000003"><a xlink:title=" ">
<path fill="none" stroke="#9a32cd" stroke-dasharray="5,2" d="M184.43,-371.69C209.09,-367.42 242.14,-360.42 270.04,-350 332.92,-326.52 338.53,-297.38 402.79,-278 489.19,-251.95 523.85,-299.4 605.04,-260 616.76,-254.31 626.45,-242.56 632.23,-234.25"/>
<polygon fill="#9a32cd" stroke="#9a32cd" points="184.18,-368.18 174.89,-373.26 185.32,-375.08 184.18,-368.18"/>
</a>
</g>
<text text-anchor="middle" x="461.16" y="-340.5" font-family="Helvetica,sans-Serif" font-size="10.00" fill="grey"> NO_SORTING</text>
<text text-anchor="middle" x="461.16" y="-328.5" font-family="Helvetica,sans-Serif" font-size="10.00" fill="grey">geomLevel</text>
<text text-anchor="middle" x="461.16" y="-316.5" font-family="Helvetica,sans-Serif" font-size="10.00" fill="grey">hierLevel</text>
<text text-anchor="start" x="403.04" y="-304.5" font-family="Helvetica,sans-Serif" font-size="10.00" fill="grey">m_CurrentSettingAlternate</text>
<text text-anchor="middle" x="461.16" y="-292.5" font-family="Helvetica,sans-Serif" font-size="10.00" fill="grey">KeyIndex</text>
<text text-anchor="middle" x="461.16" y="-280.5" font-family="Helvetica,sans-Serif" font-size="10.00" fill="grey">m_CurrentSettingKeyIndex</text>
</g>
<!-- Node3&#45;&gt;Node9 -->
<g id="edge16_Node000009_Node000003" class="edge">
<title>Node3&#45;&gt;Node9</title>
<g id="a_edge16_Node000009_Node000003"><a xlink:title=" ">
<path fill="none" stroke="#9a32cd" stroke-dasharray="5,2" d="M137.73,-357.83C119.62,-321.23 87.28,-240.39 123.79,-188 156.08,-141.65 324.55,-114.6 405.51,-104.1"/>
<polygon fill="#9a32cd" stroke="#9a32cd" points="134.43,-359.05 142.11,-366.34 140.65,-355.85 134.43,-359.05"/>
</a>
</g>
<text text-anchor="middle" x="182.16" y="-250.5" font-family="Helvetica,sans-Serif" font-size="10.00" fill="grey"> NO_SORTING</text>
<text text-anchor="middle" x="182.16" y="-238.5" font-family="Helvetica,sans-Serif" font-size="10.00" fill="grey">geomLevel</text>
<text text-anchor="middle" x="182.16" y="-226.5" font-family="Helvetica,sans-Serif" font-size="10.00" fill="grey">hierLevel</text>
<text text-anchor="start" x="124.04" y="-214.5" font-family="Helvetica,sans-Serif" font-size="10.00" fill="grey">m_CurrentSettingAlternate</text>
<text text-anchor="middle" x="182.16" y="-202.5" font-family="Helvetica,sans-Serif" font-size="10.00" fill="grey">KeyIndex</text>
<text text-anchor="middle" x="182.16" y="-190.5" font-family="Helvetica,sans-Serif" font-size="10.00" fill="grey">m_CurrentSettingKeyIndex</text>
</g>
<!-- Node4&#45;&gt;Node1 -->
<g id="edge4_Node000001_Node000004" class="edge">
<title>Node4&#45;&gt;Node1</title>
<g id="a_edge4_Node000001_Node000004"><a xlink:title=" ">
<path fill="none" stroke="#9a32cd" stroke-dasharray="5,2" d="M858.63,-83.12C899.94,-65.54 970.08,-35.68 1005.76,-20.49"/>
<polygon fill="#9a32cd" stroke="#9a32cd" points="857.26,-79.9 849.43,-87.04 860.01,-86.34 857.26,-79.9"/>
</a>
</g>
<text text-anchor="middle" x="1016.79" y="-46.5" font-family="Helvetica,sans-Serif" font-size="10.00" fill="grey"> m_UnsortedInputActions</text>
</g>
<!-- Node5 -->
<g id="Node000005" class="node">
<title>Node5</title>
<g id="a_Node000005"><a xlink:href="../../d8/d03/class_object.html" target="_top" xlink:title=" ">
<polygon fill="white" stroke="#666666" points="660.29,-388 615.79,-388 615.79,-368 660.29,-368 660.29,-388"/>
<text text-anchor="middle" x="638.04" y="-374.5" font-family="Helvetica,sans-Serif" font-size="10.00">Object</text>
</a>
</g>
</g>
<!-- Node5&#45;&gt;Node4 -->
<g id="edge5_Node000004_Node000005" class="edge">
<title>Node5&#45;&gt;Node4</title>
<g id="a_edge5_Node000004_Node000005"><a xlink:title=" ">
<path fill="none" stroke="#9a32cd" stroke-dasharray="5,2" d="M671.87,-373.75C689.91,-370.41 711.35,-363.65 726.04,-350 751.19,-326.63 730.4,-302.9 754.04,-278 767.46,-263.86 781.89,-275.25 794.04,-260 831.33,-213.19 828.97,-134.84 826.92,-108.19"/>
<polygon fill="#9a32cd" stroke="#9a32cd" points="671.46,-370.27 662.11,-375.26 672.53,-377.19 671.46,-370.27"/>
</a>
</g>
<text text-anchor="middle" x="837.54" y="-226.5" font-family="Helvetica,sans-Serif" font-size="10.00" fill="grey"> obj</text>
<text text-anchor="middle" x="837.54" y="-214.5" font-family="Helvetica,sans-Serif" font-size="10.00" fill="grey">parent</text>
</g>
<!-- Node5&#45;&gt;Node6 -->
<g id="edge8_Node000006_Node000005" class="edge">
<title>Node5&#45;&gt;Node6</title>
<g id="a_edge8_Node000006_Node000005"><a xlink:title=" ">
<path fill="none" stroke="#9a32cd" stroke-dasharray="5,2" d="M638.04,-356.47C638.04,-323.04 638.04,-258.17 638.04,-234.2"/>
<polygon fill="#9a32cd" stroke="#9a32cd" points="634.54,-356.43 638.04,-366.43 641.54,-356.43 634.54,-356.43"/>
</a>
</g>
<text text-anchor="middle" x="651.54" y="-316.5" font-family="Helvetica,sans-Serif" font-size="10.00" fill="grey"> obj</text>
<text text-anchor="middle" x="651.54" y="-304.5" font-family="Helvetica,sans-Serif" font-size="10.00" fill="grey">parent</text>
</g>
<!-- Node5&#45;&gt;Node9 -->
<g id="edge15_Node000009_Node000005" class="edge">
<title>Node5&#45;&gt;Node9</title>
<g id="a_edge15_Node000009_Node000005"><a xlink:title=" ">
<path fill="none" stroke="#9a32cd" stroke-dasharray="5,2" d="M634.05,-356.52C628.5,-333.71 616.14,-297.5 591.04,-278 558.13,-252.44 532.42,-284.93 499.04,-260 462.88,-233 463.72,-213.59 452.04,-170 446.29,-148.55 447.14,-122.16 448.16,-108.39"/>
<polygon fill="#9a32cd" stroke="#9a32cd" points="630.6,-357.11 636.15,-366.14 637.44,-355.62 630.6,-357.11"/>
</a>
</g>
<text text-anchor="middle" x="512.54" y="-226.5" font-family="Helvetica,sans-Serif" font-size="10.00" fill="grey"> obj</text>
<text text-anchor="middle" x="512.54" y="-214.5" font-family="Helvetica,sans-Serif" font-size="10.00" fill="grey">parent</text>
</g>
<!-- Node6&#45;&gt;Node4 -->
<g id="edge7_Node000004_Node000006" class="edge">
<title>Node6&#45;&gt;Node4</title>
<g id="a_edge7_Node000004_Node000006"><a xlink:title=" ">
<path fill="none" stroke="#9a32cd" stroke-dasharray="5,2" d="M660.84,-207.28C687.03,-189.3 731.36,-159.11 770.04,-134 783.69,-125.13 799.43,-115.33 810.74,-108.37"/>
<polygon fill="#9a32cd" stroke="#9a32cd" points="658.93,-204.34 652.67,-212.89 662.9,-210.11 658.93,-204.34"/>
</a>
</g>
<text text-anchor="middle" x="791.04" y="-148.5" font-family="Helvetica,sans-Serif" font-size="10.00" fill="grey"> proxyInfo</text>
</g>
<!-- Node6&#45;&gt;Node6 -->
<g id="edge10_Node000006_Node000006" class="edge">
<title>Node6&#45;&gt;Node6</title>
<g id="a_edge10_Node000006_Node000006"><a xlink:title=" ">
<path fill="none" stroke="#9a32cd" stroke-dasharray="5,2" d="M660.34,-237.49C668.37,-237.78 674.91,-233.29 674.91,-224 674.91,-210.64 661.37,-207.2 649.36,-213.67"/>
<polygon fill="#9a32cd" stroke="#9a32cd" points="661.4,-234.15 650.82,-234.75 659.46,-240.88 661.4,-234.15"/>
</a>
</g>
<text text-anchor="middle" x="695.91" y="-220.5" font-family="Helvetica,sans-Serif" font-size="10.00" fill="grey"> proxyInfo</text>
</g>
<!-- Node6&#45;&gt;Node9 -->
<g id="edge17_Node000009_Node000006" class="edge">
<title>Node6&#45;&gt;Node9</title>
<g id="a_edge17_Node000009_Node000006"><a xlink:title=" ">
<path fill="none" stroke="#9a32cd" stroke-dasharray="5,2" d="M625.03,-204.76C619.58,-198.45 612.71,-191.97 605.04,-188 554.01,-161.61 522.16,-205.56 477.04,-170 457.47,-154.58 451.54,-123.52 449.77,-108.1"/>
<polygon fill="#9a32cd" stroke="#9a32cd" points="622.08,-206.67 631,-212.38 627.59,-202.35 622.08,-206.67"/>
</a>
</g>
<text text-anchor="middle" x="498.04" y="-148.5" font-family="Helvetica,sans-Serif" font-size="10.00" fill="grey"> proxyInfo</text>
</g>
<!-- Node7 -->
<g id="Node000007" class="node">
<title>Node7</title>
<g id="a_Node000007"><a xlink:href="../../d4/d04/class_class.html" target="_top" xlink:title="Super root of all classes in Enforce script.">
<polygon fill="white" stroke="#666666" points="524.41,-388 483.66,-388 483.66,-368 524.41,-368 524.41,-388"/>
<text text-anchor="middle" x="504.04" y="-374.5" font-family="Helvetica,sans-Serif" font-size="10.00">Class</text>
</a>
</g>
</g>
<!-- Node7&#45;&gt;Node4 -->
<g id="edge22_Node000004_Node000007" class="edge">
<title>Node7&#45;&gt;Node4</title>
<g id="a_edge22_Node000004_Node000007"><a xlink:title=" ">
<path fill="none" stroke="#9a32cd" stroke-dasharray="5,2" d="M505.68,-356.31C507.63,-336.06 511.6,-304.49 519.04,-278 519.77,-275.39 554.81,-189.85 556.79,-188 563.58,-181.66 706.21,-136.9 715.04,-134 742.11,-125.12 773.03,-115.4 795.35,-108.46"/>
<polygon fill="#9a32cd" stroke="#9a32cd" points="502.21,-355.78 504.82,-366.05 509.18,-356.39 502.21,-355.78"/>
</a>
</g>
<text text-anchor="middle" x="583.66" y="-220.5" font-family="Helvetica,sans-Serif" font-size="10.00" fill="grey"> m_Instance</text>
</g>
<!-- Node7&#45;&gt;Node6 -->
<g id="edge11_Node000006_Node000007" class="edge">
<title>Node7&#45;&gt;Node6</title>
<g id="a_edge11_Node000006_Node000007"><a xlink:title=" ">
<path fill="none" stroke="#9a32cd" stroke-dasharray="5,2" d="M516.27,-358.25C530.39,-337.37 555,-303.25 580.79,-278 590.38,-268.61 595.01,-268.92 605.04,-260 614.15,-251.9 623.6,-241.65 630.04,-234.35"/>
<polygon fill="#9a32cd" stroke="#9a32cd" points="513.52,-356.06 510.9,-366.33 519.35,-359.94 513.52,-356.06"/>
</a>
</g>
<text text-anchor="middle" x="607.66" y="-310.5" font-family="Helvetica,sans-Serif" font-size="10.00" fill="grey"> m_Instance</text>
</g>
<!-- Node7&#45;&gt;Node9 -->
<g id="edge18_Node000009_Node000007" class="edge">
<title>Node7&#45;&gt;Node9</title>
<g id="a_edge18_Node000009_Node000007"><a xlink:title=" ">
<path fill="none" stroke="#9a32cd" stroke-dasharray="5,2" d="M492.07,-358.15C476.19,-334.94 445.83,-296.33 409.04,-278 378.74,-262.91 280.26,-285.31 257.79,-260 236.54,-236.07 240.58,-214.98 257.79,-188 290.18,-137.2 359.91,-114.94 405.62,-105.51"/>
<polygon fill="#9a32cd" stroke="#9a32cd" points="489.05,-359.93 497.48,-366.34 494.89,-356.07 489.05,-359.93"/>
</a>
</g>
<text text-anchor="middle" x="284.66" y="-220.5" font-family="Helvetica,sans-Serif" font-size="10.00" fill="grey"> m_Instance</text>
</g>
<!-- Node8 -->
<g id="Node000008" class="node">
<title>Node8</title>
<g id="a_Node000008"><a xlink:href="../../dd/d0a/class_widget.html" target="_top" xlink:title=" ">
<polygon fill="white" stroke="#666666" points="788.41,-388 741.66,-388 741.66,-368 788.41,-368 788.41,-388"/>
<text text-anchor="middle" x="765.04" y="-374.5" font-family="Helvetica,sans-Serif" font-size="10.00">Widget</text>
</a>
</g>
</g>
<!-- Node8&#45;&gt;Node4 -->
<g id="edge24_Node000004_Node000008" class="edge">
<title>Node8&#45;&gt;Node4</title>
<g id="a_edge24_Node000004_Node000008"><a xlink:title=" ">
<path fill="none" stroke="#9a32cd" stroke-dasharray="5,2" d="M799.91,-373.11C828.53,-369.12 865.79,-361.8 875.04,-350 935.04,-273.49 856.52,-144.19 832.57,-108.42"/>
<polygon fill="#9a32cd" stroke="#9a32cd" points="799.63,-369.62 790.17,-374.38 800.54,-376.56 799.63,-369.62"/>
</a>
</g>
<text text-anchor="middle" x="914.41" y="-220.5" font-family="Helvetica,sans-Serif" font-size="10.00" fill="grey"> m_Root</text>
</g>
<!-- Node8&#45;&gt;Node6 -->
<g id="edge13_Node000006_Node000008" class="edge">
<title>Node8&#45;&gt;Node6</title>
<g id="a_edge13_Node000006_Node000008"><a xlink:title=" ">
<path fill="none" stroke="#9a32cd" stroke-dasharray="5,2" d="M731.26,-362.32C725.22,-358.81 719.27,-354.69 714.29,-350 694.96,-331.78 656.37,-259.99 642.85,-234.25"/>
<polygon fill="#9a32cd" stroke="#9a32cd" points="729.55,-365.38 740.03,-366.95 732.82,-359.18 729.55,-365.38"/>
</a>
</g>
<text text-anchor="middle" x="733.41" y="-310.5" font-family="Helvetica,sans-Serif" font-size="10.00" fill="grey"> m_Root</text>
</g>
<!-- Node8&#45;&gt;Node9 -->
<g id="edge20_Node000009_Node000008" class="edge">
<title>Node8&#45;&gt;Node9</title>
<g id="a_edge20_Node000009_Node000008"><a xlink:title=" ">
<path fill="none" stroke="#9a32cd" stroke-dasharray="5,2" d="M762.94,-356.42C758.18,-313.22 745.49,-214.86 726.04,-188 672.41,-113.96 556.14,-100.12 492.62,-98.38"/>
<polygon fill="#9a32cd" stroke="#9a32cd" points="759.44,-356.62 763.97,-366.19 766.4,-355.88 759.44,-356.62"/>
</a>
</g>
<text text-anchor="middle" x="767.41" y="-220.5" font-family="Helvetica,sans-Serif" font-size="10.00" fill="grey"> m_Root</text>
</g>
<!-- Node9&#45;&gt;Node6 -->
<g id="edge14_Node000006_Node000009" class="edge">
<title>Node9&#45;&gt;Node6</title>
<g id="a_edge14_Node000006_Node000009"><a xlink:title=" ">
<path fill="none" stroke="#9a32cd" stroke-dasharray="5,2" d="M480.26,-113.37C513.02,-129.21 565.19,-156.65 605.04,-188 614.75,-195.64 624.26,-206.15 630.56,-213.65"/>
<polygon fill="#9a32cd" stroke="#9a32cd" points="481.84,-110.25 471.31,-109.11 478.83,-116.57 481.84,-110.25"/>
</a>
</g>
<text text-anchor="middle" x="609.54" y="-148.5" font-family="Helvetica,sans-Serif" font-size="10.00" fill="grey"> m_Subgroups</text>
</g>
<!-- Node9&#45;&gt;Node9 -->
<g id="edge21_Node000009_Node000009" class="edge">
<title>Node9&#45;&gt;Node9</title>
<g id="a_edge21_Node000009_Node000009"><a xlink:title=" ">
<path fill="none" stroke="#9a32cd" stroke-dasharray="5,2" d="M503.67,-104.72C507.77,-103.22 510.29,-100.98 510.29,-98 510.29,-92.84 502.75,-89.9 492.53,-89.18"/>
<polygon fill="#9a32cd" stroke="#9a32cd" points="503.2,-101.25 494.02,-106.54 504.49,-108.13 503.2,-101.25"/>
</a>
</g>
<text text-anchor="middle" x="541.79" y="-94.5" font-family="Helvetica,sans-Serif" font-size="10.00" fill="grey"> m_Subgroups</text>
</g>
<!-- Node10 -->
<g id="Node000010" class="node">
<title>Node10</title>
<g id="a_Node000010"><a xlink:href="../../d4/d03/classfloat.html" target="_top" xlink:title=" ">
<polygon fill="white" stroke="#666666" points="1158.04,-108 1124.04,-108 1124.04,-88 1158.04,-88 1158.04,-108"/>
<text text-anchor="middle" x="1141.04" y="-94.5" font-family="Helvetica,sans-Serif" font-size="10.00">float</text>
</a>
</g>
</g>
<!-- Node10&#45;&gt;Node1 -->
<g id="edge25_Node000001_Node000010" class="edge">
<title>Node10&#45;&gt;Node1</title>
<g id="a_edge25_Node000001_Node000010"><a xlink:title=" ">
<path fill="none" stroke="#9a32cd" stroke-dasharray="5,2" d="M1134.94,-77.04C1130.08,-64.25 1122.07,-48.19 1110.04,-38 1094.94,-25.22 1073.61,-18.44 1056.49,-14.87"/>
<polygon fill="#9a32cd" stroke="#9a32cd" points="1131.51,-77.84 1138.05,-86.18 1138.14,-75.59 1131.51,-77.84"/>
</a>
</g>
<text text-anchor="middle" x="1182.91" y="-52.5" font-family="Helvetica,sans-Serif" font-size="10.00" fill="grey"> ICON_SCALE_NORMAL</text>
<text text-anchor="middle" x="1182.91" y="-40.5" font-family="Helvetica,sans-Serif" font-size="10.00" fill="grey">ICON_SCALE_TOOLBAR</text>
</g>
<!-- Node10&#45;&gt;Node10 -->
<g id="edge26_Node000010_Node000010" class="edge">
<title>Node10&#45;&gt;Node10</title>
<g id="a_edge26_Node000010_Node000010"><a xlink:title=" ">
<path fill="none" stroke="#9a32cd" stroke-dasharray="5,2" d="M1169.71,-105.95C1173.51,-104.6 1176.04,-101.95 1176.04,-98 1176.04,-90.78 1167.59,-87.91 1158.33,-89.37"/>
<polygon fill="#9a32cd" stroke="#9a32cd" points="1169.61,-102.45 1159.84,-106.54 1170.03,-109.43 1169.61,-102.45"/>
</a>
</g>
<text text-anchor="middle" x="1198.16" y="-106.5" font-family="Helvetica,sans-Serif" font-size="10.00" fill="grey"> LOWEST</text>
<text text-anchor="middle" x="1198.16" y="-94.5" font-family="Helvetica,sans-Serif" font-size="10.00" fill="grey">MAX</text>
<text text-anchor="middle" x="1198.16" y="-82.5" font-family="Helvetica,sans-Serif" font-size="10.00" fill="grey">MIN</text>
</g>
</g>
</svg>

<g id="navigator" transform="translate(0 0)" fill="#404254">
  <rect fill="#f2f5e9" fill-opacity="0.5" stroke="#606060" stroke-width=".5" x="0" y="0" width="60" height="60"/>
  <use id="zoomplus" xlink:href="#zoomPlus" x="17" y="9" onmousedown="handleZoom(evt,'in')"/>
  <use id="zoomminus" xlink:href="#zoomMin" x="42" y="9" onmousedown="handleZoom(evt,'out')"/>
  <use id="reset" xlink:href="#resetDef" x="30" y="36" onmousedown="handleReset()"/>
   <use id="arrowup" xlink:href="#arrowUp" x="0" y="0" onmousedown="handlePan(0,-1)"/>
  <use id="arrowright" xlink:href="#arrowRight" x="0" y="0" onmousedown="handlePan(1,0)"/>
  <use id="arrowdown" xlink:href="#arrowDown" x="0" y="0" onmousedown="handlePan(0,1)"/>
  <use id="arrowleft" xlink:href="#arrowLeft" x="0" y="0" onmousedown="handlePan(-1,0)"/>
</g>
<svg viewBox="0 0 15 15" width="100%" height="30px" preserveAspectRatio="xMaxYMin meet">
 <g id="arrow_out" transform="scale(0.3 0.3)">
  <a xlink:href="class_input_utils__coll__graph_org.svg" target="_base">
   <rect id="button" ry="5" rx="5" y="6" x="6" height="38" width="38"
        fill="#f2f5e9" fill-opacity="0.5" stroke="#606060" stroke-width="1.0"/>
   <path id="arrow"
     d="M 11.500037,31.436501 C 11.940474,20.09759 22.043105,11.32322 32.158766,21.979434 L 37.068811,17.246167 C 37.068811,17.246167 37.088388,32 37.088388,32 L 22.160133,31.978069 C 22.160133,31.978069 26.997745,27.140456 26.997745,27.140456 C 18.528582,18.264221 13.291696,25.230495 11.500037,31.436501 z"
     style="fill:#404040;"/>
  </a>
 </g>
</svg>

<style type='text/css'>
<![CDATA[
[data-mouse-over-selected='false'] { opacity: 0.7; }
[data-mouse-over-selected='true']  { opacity: 1.0; }
]]>
</style>
<script type="application/ecmascript"><![CDATA[
document.addEventListener('DOMContentLoaded', (event) => {
  highlightEdges();
  highlightAdjacentNodes();
});
]]></script>
</svg>
