<?xml version="1.0" encoding="UTF-8" standalone="no"?>
<!DOCTYPE svg PUBLIC "-//W3C//DTD SVG 1.1//EN"
 "http://www.w3.org/Graphics/SVG/1.1/DTD/svg11.dtd">
<!-- Generated by graphviz version 11.0.0 (20240428.1522)
 -->
<!-- Title: ArmyPouch_ColorBase Pages: 1 -->
<svg width="337pt" height="196pt"
 viewBox="0.00 0.00 336.75 196.00" xmlns="http://www.w3.org/2000/svg" xmlns:xlink="http://www.w3.org/1999/xlink">

<svg id="main" version="1.1" xmlns="http://www.w3.org/2000/svg" xmlns:xlink="http://www.w3.org/1999/xlink" xml:space="preserve" onload="init(evt)">
<style type="text/css"><![CDATA[
.node, .edge {opacity: 0.7;}
.node.selected, .edge.selected {opacity: 1;}
.edge:hover path { stroke: red; }
.edge:hover polygon { stroke: red; fill: red; }
]]></style>
<script type="application/ecmascript" xlink:href="../../svg.min.js"/>
<svg id="graph" class="graph">
<g id="graph0" class="graph" transform="scale(1 1) rotate(0) translate(4 192)">
<title>ArmyPouch_ColorBase</title>
<!-- Node1 -->
<g id="Node000001" class="node">
<title>Node1</title>
<g id="a_Node000001"><a xlink:title=" ">
<polygon fill="#999999" stroke="#666666" points="222.12,-76 104.88,-76 104.88,-56 222.12,-56 222.12,-76"/>
<text text-anchor="middle" x="163.5" y="-62.5" font-family="Helvetica,sans-Serif" font-size="10.00">ArmyPouch_ColorBase</text>
</a>
</g>
</g>
<!-- Node4 -->
<g id="Node000004" class="node">
<title>Node4</title>
<g id="a_Node000004"><a xlink:href="../../df/d03/class_army_pouch___black.html" target="_top" xlink:title=" ">
<polygon fill="white" stroke="#666666" points="97,-20 0,-20 0,0 97,0 97,-20"/>
<text text-anchor="middle" x="48.5" y="-6.5" font-family="Helvetica,sans-Serif" font-size="10.00">ArmyPouch_Black</text>
</a>
</g>
</g>
<!-- Node1&#45;&gt;Node4 -->
<g id="edge3_Node000001_Node000004" class="edge">
<title>Node1&#45;&gt;Node4</title>
<g id="a_edge3_Node000001_Node000004"><a xlink:title=" ">
<path fill="none" stroke="#8b1a1a" d="M133.14,-50.75C112.78,-41.18 86.52,-28.85 68.69,-20.48"/>
<polygon fill="#8b1a1a" stroke="#8b1a1a" points="131.56,-53.87 142.1,-54.95 134.53,-47.53 131.56,-53.87"/>
</a>
</g>
</g>
<!-- Node5 -->
<g id="Node000005" class="node">
<title>Node5</title>
<g id="a_Node000005"><a xlink:href="../../d4/d08/class_army_pouch___camo.html" target="_top" xlink:title=" ">
<polygon fill="white" stroke="#666666" points="212.38,-20 114.62,-20 114.62,0 212.38,0 212.38,-20"/>
<text text-anchor="middle" x="163.5" y="-6.5" font-family="Helvetica,sans-Serif" font-size="10.00">ArmyPouch_Camo</text>
</a>
</g>
</g>
<!-- Node1&#45;&gt;Node5 -->
<g id="edge4_Node000001_Node000005" class="edge">
<title>Node1&#45;&gt;Node5</title>
<g id="a_edge4_Node000001_Node000005"><a xlink:title=" ">
<path fill="none" stroke="#8b1a1a" d="M163.5,-44.13C163.5,-35.9 163.5,-26.85 163.5,-20.3"/>
<polygon fill="#8b1a1a" stroke="#8b1a1a" points="160,-44.08 163.5,-54.08 167,-44.08 160,-44.08"/>
</a>
</g>
</g>
<!-- Node6 -->
<g id="Node000006" class="node">
<title>Node6</title>
<g id="a_Node000006"><a xlink:href="../../dd/d00/class_army_pouch___green.html" target="_top" xlink:title=" ">
<polygon fill="white" stroke="#666666" points="328.75,-20 230.25,-20 230.25,0 328.75,0 328.75,-20"/>
<text text-anchor="middle" x="279.5" y="-6.5" font-family="Helvetica,sans-Serif" font-size="10.00">ArmyPouch_Green</text>
</a>
</g>
</g>
<!-- Node1&#45;&gt;Node6 -->
<g id="edge5_Node000001_Node000006" class="edge">
<title>Node1&#45;&gt;Node6</title>
<g id="a_edge5_Node000001_Node000006"><a xlink:title=" ">
<path fill="none" stroke="#8b1a1a" d="M194.12,-50.75C214.66,-41.18 241.15,-28.85 259.14,-20.48"/>
<polygon fill="#8b1a1a" stroke="#8b1a1a" points="192.67,-47.56 185.08,-54.96 195.62,-53.91 192.67,-47.56"/>
</a>
</g>
</g>
<!-- Node2 -->
<g id="Node000002" class="node">
<title>Node2</title>
<g id="a_Node000002"><a xlink:href="../../db/d01/class_backpack___base.html" target="_top" xlink:title=" ">
<polygon fill="white" stroke="#666666" points="207.12,-132 119.88,-132 119.88,-112 207.12,-112 207.12,-132"/>
<text text-anchor="middle" x="163.5" y="-118.5" font-family="Helvetica,sans-Serif" font-size="10.00">Backpack_Base</text>
</a>
</g>
</g>
<!-- Node2&#45;&gt;Node1 -->
<g id="edge1_Node000001_Node000002" class="edge">
<title>Node2&#45;&gt;Node1</title>
<g id="a_edge1_Node000001_Node000002"><a xlink:title=" ">
<path fill="none" stroke="#8b1a1a" d="M163.5,-100.13C163.5,-91.9 163.5,-82.85 163.5,-76.3"/>
<polygon fill="#8b1a1a" stroke="#8b1a1a" points="160,-100.08 163.5,-110.08 167,-100.08 160,-100.08"/>
</a>
</g>
</g>
<!-- Node3 -->
<g id="Node000003" class="node">
<title>Node3</title>
<g id="a_Node000003"><a xlink:href="../../d8/d04/class_clothing.html" target="_top" xlink:title=" ">
<polygon fill="white" stroke="#666666" points="189.12,-188 137.88,-188 137.88,-168 189.12,-168 189.12,-188"/>
<text text-anchor="middle" x="163.5" y="-174.5" font-family="Helvetica,sans-Serif" font-size="10.00">Clothing</text>
</a>
</g>
</g>
<!-- Node3&#45;&gt;Node2 -->
<g id="edge2_Node000002_Node000003" class="edge">
<title>Node3&#45;&gt;Node2</title>
<g id="a_edge2_Node000002_Node000003"><a xlink:title=" ">
<path fill="none" stroke="#8b1a1a" d="M163.5,-156.13C163.5,-147.9 163.5,-138.85 163.5,-132.3"/>
<polygon fill="#8b1a1a" stroke="#8b1a1a" points="160,-156.08 163.5,-166.08 167,-156.08 160,-156.08"/>
</a>
</g>
</g>
</g>
</svg>
</svg>

<style type='text/css'>
<![CDATA[
[data-mouse-over-selected='false'] { opacity: 0.7; }
[data-mouse-over-selected='true']  { opacity: 1.0; }
]]>
</style>
<script type="application/ecmascript"><![CDATA[
document.addEventListener('DOMContentLoaded', (event) => {
  highlightEdges();
  highlightAdjacentNodes();
});
]]></script>
</svg>
