<?xml version="1.0" encoding="UTF-8" standalone="no"?>
<!DOCTYPE svg PUBLIC "-//W3C//DTD SVG 1.1//EN"
 "http://www.w3.org/Graphics/SVG/1.1/DTD/svg11.dtd">
<!-- Generated by graphviz version 11.0.0 (20240428.1522)
 -->
<!-- Title: HumanInventoryWithFSM Pages: 1 -->
<!--zoomable 524 -->

<svg id="main" version="1.1" xmlns="http://www.w3.org/2000/svg" xmlns:xlink="http://www.w3.org/1999/xlink" xml:space="preserve" onload="init(evt)">
<style type="text/css"><![CDATA[
.node, .edge {opacity: 0.7;}
.node.selected, .edge.selected {opacity: 1;}
.edge:hover path { stroke: red; }
.edge:hover polygon { stroke: red; fill: red; }
]]></style>

<defs>
  <circle id="rim" cx="0" cy="0" r="7"/>
  <circle id="rim2" cx="0" cy="0" r="3.5"/>
  <g id="zoomPlus">
    <use xlink:href="#rim" fill="#404040"><set attributeName="fill" to="#808080" begin="zoomplus.mouseover" end="zoomplus.mouseout"/></use>
    <path d="M-4,0h8M0,-4v8" fill="none" stroke="white" stroke-width="1.5" pointer-events="none"/>
  </g>
  <g id="zoomMin">
    <use xlink:href="#rim" fill="#404040"><set attributeName="fill" to="#808080" begin="zoomminus.mouseover" end="zoomminus.mouseout"/></use>
    <path d="M-4,0h8" fill="none" stroke="white" stroke-width="1.5" pointer-events="none"/>
  </g>
  <g id="arrowUp" transform="translate(30 24)">
    <use xlink:href="#rim"/>
    <path pointer-events="none" fill="none" stroke="white" stroke-width="1.5" d="M0,-3.0v7 M-2.5,-0.5L0,-3.0L2.5,-0.5"/>
  </g>
  <g id="arrowRight" transform="rotate(90) translate(36 -43)">
    <use xlink:href="#rim"/>
    <path pointer-events="none" fill="none" stroke="white" stroke-width="1.5" d="M0,-3.0v7 M-2.5,-0.5L0,-3.0L2.5,-0.5"/>
  </g>
  <g id="arrowDown" transform="rotate(180) translate(-30 -48)">
    <use xlink:href="#rim"/>
    <path pointer-events="none" fill="none" stroke="white" stroke-width="1.5" d="M0,-3.0v7 M-2.5,-0.5L0,-3.0L2.5,-0.5"/>
  </g>
  <g id="arrowLeft" transform="rotate(270) translate(-36 17)">
    <use xlink:href="#rim"/>
    <path pointer-events="none" fill="none" stroke="white" stroke-width="1.5" d="M0,-3.0v7 M-2.5,-0.5L0,-3.0L2.5,-0.5"/>
  </g>
  <g id="resetDef">
    <use xlink:href="#rim2" fill="#404040"><set attributeName="fill" to="#808080" begin="reset.mouseover" end="reset.mouseout"/></use>
  </g>
</defs>
<script type="application/ecmascript">
var viewWidth = 1633;
var viewHeight = 524;
var sectionId = 'dynsection-1';
</script>
<script type="application/ecmascript" xlink:href="../../svg.min.js"/>
<svg id="graph" class="graph">
<g id="viewport">
<title>HumanInventoryWithFSM</title>
<!-- Node1 -->
<g id="Node000001" class="node">
<title>Node1</title>
<g id="a_Node000001"><a xlink:title="HumanInventory... with FSM (synchronous, no anims)">
<polygon fill="#999999" stroke="#666666" points="194.62,-20 68.38,-20 68.38,0 194.62,0 194.62,-20"/>
<text text-anchor="middle" x="131.5" y="-6.5" font-family="Helvetica,sans-Serif" font-size="10.00">HumanInventoryWithFSM</text>
</a>
</g>
</g>
<!-- Node2 -->
<g id="Node000002" class="node">
<title>Node2</title>
<g id="a_Node000002"><a xlink:href="../../d8/d06/class_human_inventory.html" target="_top" xlink:title="inventory for plain man/human">
<polygon fill="white" stroke="#666666" points="85,-228 0,-228 0,-208 85,-208 85,-228"/>
<text text-anchor="middle" x="42.5" y="-214.5" font-family="Helvetica,sans-Serif" font-size="10.00">HumanInventory</text>
</a>
</g>
</g>
<!-- Node2&#45;&gt;Node1 -->
<g id="edge1_Node000001_Node000002" class="edge">
<title>Node2&#45;&gt;Node1</title>
<g id="a_edge1_Node000001_Node000002"><a xlink:title=" ">
<path fill="none" stroke="#8b1a1a" d="M51.02,-197.29C69.72,-153.99 113.8,-51.96 127.42,-20.44"/>
<polygon fill="#8b1a1a" stroke="#8b1a1a" points="47.91,-195.66 47.16,-206.22 54.33,-198.43 47.91,-195.66"/>
</a>
</g>
</g>
<!-- Node3 -->
<g id="Node000003" class="node">
<title>Node3</title>
<g id="a_Node000003"><a xlink:href="../../dc/d01/class_game_inventory.html" target="_top" xlink:title="script counterpart to engine&#39;s class Inventory">
<polygon fill="white" stroke="#666666" points="82.75,-346 2.25,-346 2.25,-326 82.75,-326 82.75,-346"/>
<text text-anchor="middle" x="42.5" y="-332.5" font-family="Helvetica,sans-Serif" font-size="10.00">GameInventory</text>
</a>
</g>
</g>
<!-- Node3&#45;&gt;Node2 -->
<g id="edge2_Node000002_Node000003" class="edge">
<title>Node3&#45;&gt;Node2</title>
<g id="a_edge2_Node000002_Node000003"><a xlink:title=" ">
<path fill="none" stroke="#8b1a1a" d="M42.5,-314.23C42.5,-288.8 42.5,-246.84 42.5,-228.3"/>
<polygon fill="#8b1a1a" stroke="#8b1a1a" points="39,-313.99 42.5,-323.99 46,-313.99 39,-313.99"/>
</a>
</g>
</g>
<!-- Node4 -->
<g id="Node000004" class="node">
<title>Node4</title>
<g id="a_Node000004"><a xlink:href="../../db/d06/class_param3.html" target="_top" xlink:title=" ">
<polygon fill="white" stroke="#666666" points="517.38,-508 467.62,-508 467.62,-488 517.38,-488 517.38,-508"/>
<text text-anchor="middle" x="492.5" y="-494.5" font-family="Helvetica,sans-Serif" font-size="10.00">Param3</text>
</a>
</g>
</g>
<!-- Node4&#45;&gt;Node2 -->
<g id="edge6_Node000002_Node000004" class="edge">
<title>Node4&#45;&gt;Node2</title>
<g id="a_edge6_Node000002_Node000004"><a xlink:title=" ">
<path fill="none" stroke="#9a32cd" stroke-dasharray="5,2" d="M467.49,-481.55C385,-430.59 123.07,-268.78 57.5,-228.26"/>
<polygon fill="#9a32cd" stroke="#9a32cd" points="465.64,-484.52 475.98,-486.8 469.31,-478.56 465.64,-484.52"/>
</a>
</g>
<text text-anchor="middle" x="367.38" y="-332.5" font-family="Helvetica,sans-Serif" font-size="10.00" fill="grey"> m_syncClearUserReservationindex</text>
</g>
<!-- Node4&#45;&gt;Node3 -->
<g id="edge3_Node000003_Node000004" class="edge">
<title>Node4&#45;&gt;Node3</title>
<g id="a_edge3_Node000003_Node000004"><a xlink:title=" ">
<path fill="none" stroke="#9a32cd" stroke-dasharray="5,2" d="M455.92,-494.22C371.89,-487.69 171.4,-471.22 160,-462 133.83,-440.83 157.83,-416.04 136.5,-390 119.28,-368.99 91.41,-354.77 70.48,-346.4"/>
<polygon fill="#9a32cd" stroke="#9a32cd" points="455.45,-497.69 465.69,-494.97 455.99,-490.71 455.45,-497.69"/>
</a>
</g>
<text text-anchor="start" x="160.5" y="-446.5" font-family="Helvetica,sans-Serif" font-size="10.00" fill="grey"> c_InventoryReservationTimeout</text>
<text text-anchor="middle" x="228.75" y="-434.5" font-family="Helvetica,sans-Serif" font-size="10.00" fill="grey">MS</text>
<text text-anchor="start" x="160.5" y="-422.5" font-family="Helvetica,sans-Serif" font-size="10.00" fill="grey">c_InventoryReservationTimeout</text>
<text text-anchor="middle" x="228.75" y="-410.5" font-family="Helvetica,sans-Serif" font-size="10.00" fill="grey">ShortMS</text>
<text text-anchor="middle" x="228.75" y="-398.5" font-family="Helvetica,sans-Serif" font-size="10.00" fill="grey">m_inventory_check_context</text>
</g>
<!-- Node7 -->
<g id="Node000007" class="node">
<title>Node7</title>
<g id="a_Node000007"><a xlink:href="../../d2/d0a/class_hand_state_base.html" target="_top" xlink:title="represent hand state base">
<polygon fill="white" stroke="#666666" points="344.62,-100 260.38,-100 260.38,-80 344.62,-80 344.62,-100"/>
<text text-anchor="middle" x="302.5" y="-86.5" font-family="Helvetica,sans-Serif" font-size="10.00">HandStateBase</text>
</a>
</g>
</g>
<!-- Node4&#45;&gt;Node7 -->
<g id="edge33_Node000007_Node000004" class="edge">
<title>Node4&#45;&gt;Node7</title>
<g id="a_edge33_Node000007_Node000004"><a xlink:title=" ">
<path fill="none" stroke="#9a32cd" stroke-dasharray="5,2" d="M495.09,-476.21C500.32,-427.51 508.85,-302.96 473.5,-208 456.01,-161.02 447.16,-145.89 405.5,-118 387.61,-106.02 364.67,-99.35 344.98,-95.64"/>
<polygon fill="#9a32cd" stroke="#9a32cd" points="491.61,-475.77 493.94,-486.11 498.57,-476.58 491.61,-475.77"/>
</a>
</g>
<text text-anchor="middle" x="524.12" y="-266.5" font-family="Helvetica,sans-Serif" font-size="10.00" fill="grey"> m_ActionType</text>
<text text-anchor="middle" x="524.12" y="-254.5" font-family="Helvetica,sans-Serif" font-size="10.00" fill="grey">m_AnimState</text>
</g>
<!-- Node11 -->
<g id="Node000011" class="node">
<title>Node11</title>
<g id="a_Node000011"><a xlink:href="../../d2/d01/classarray.html" target="_top" xlink:title="Result for an object found in CGame.IsBoxCollidingGeometryProxy.">
<polygon fill="white" stroke="#666666" points="1286.38,-346 1248.62,-346 1248.62,-326 1286.38,-326 1286.38,-346"/>
<text text-anchor="middle" x="1267.5" y="-332.5" font-family="Helvetica,sans-Serif" font-size="10.00">array</text>
</a>
</g>
</g>
<!-- Node4&#45;&gt;Node11 -->
<g id="edge14_Node000011_Node000004" class="edge">
<title>Node4&#45;&gt;Node11</title>
<g id="a_edge14_Node000011_Node000004"><a xlink:title=" ">
<path fill="none" stroke="#9a32cd" stroke-dasharray="5,2" d="M529.16,-495.47C614.84,-491.64 826.12,-480.55 894.5,-462 966.55,-442.45 974.29,-409.85 1046.25,-390 1127.27,-367.65 1159.01,-408.94 1234.5,-372 1246.2,-366.27 1255.9,-354.53 1261.68,-346.23"/>
<polygon fill="#9a32cd" stroke="#9a32cd" points="529.04,-491.98 519.2,-495.91 529.35,-498.97 529.04,-491.98"/>
</a>
</g>
<text text-anchor="middle" x="1103.62" y="-452.5" font-family="Helvetica,sans-Serif" font-size="10.00" fill="grey"> NO_SORTING</text>
<text text-anchor="middle" x="1103.62" y="-440.5" font-family="Helvetica,sans-Serif" font-size="10.00" fill="grey">geomLevel</text>
<text text-anchor="middle" x="1103.62" y="-428.5" font-family="Helvetica,sans-Serif" font-size="10.00" fill="grey">hierLevel</text>
<text text-anchor="start" x="1045.5" y="-416.5" font-family="Helvetica,sans-Serif" font-size="10.00" fill="grey">m_CurrentSettingAlternate</text>
<text text-anchor="middle" x="1103.62" y="-404.5" font-family="Helvetica,sans-Serif" font-size="10.00" fill="grey">KeyIndex</text>
<text text-anchor="middle" x="1103.62" y="-392.5" font-family="Helvetica,sans-Serif" font-size="10.00" fill="grey">m_CurrentSettingKeyIndex</text>
</g>
<!-- Node16 -->
<g id="Node000016" class="node">
<title>Node16</title>
<g id="a_Node000016"><a xlink:href="../../d2/d01/classarray.html" target="_top" xlink:title=" ">
<polygon fill="white" stroke="#666666" points="1253.75,-228 1167.25,-228 1167.25,-208 1253.75,-208 1253.75,-228"/>
<text text-anchor="middle" x="1210.5" y="-214.5" font-family="Helvetica,sans-Serif" font-size="10.00">array&lt; Widget &gt;</text>
</a>
</g>
</g>
<!-- Node4&#45;&gt;Node16 -->
<g id="edge22_Node000016_Node000004" class="edge">
<title>Node4&#45;&gt;Node16</title>
<g id="a_edge22_Node000016_Node000004"><a xlink:title=" ">
<path fill="none" stroke="#9a32cd" stroke-dasharray="5,2" d="M528.59,-485.99C588.31,-467.04 710.5,-425.12 805.5,-372 852.28,-345.84 853.25,-321.72 902.25,-300 940.04,-283.25 956.77,-300.96 993.5,-282 1014.17,-271.33 1010.59,-256.2 1031.5,-246 1074.29,-225.12 1129.12,-219.49 1166.76,-218.38"/>
<polygon fill="#9a32cd" stroke="#9a32cd" points="527.78,-482.58 519.29,-488.91 529.88,-489.25 527.78,-482.58"/>
</a>
</g>
<text text-anchor="middle" x="959.62" y="-362.5" font-family="Helvetica,sans-Serif" font-size="10.00" fill="grey"> NO_SORTING</text>
<text text-anchor="middle" x="959.62" y="-350.5" font-family="Helvetica,sans-Serif" font-size="10.00" fill="grey">geomLevel</text>
<text text-anchor="middle" x="959.62" y="-338.5" font-family="Helvetica,sans-Serif" font-size="10.00" fill="grey">hierLevel</text>
<text text-anchor="start" x="901.5" y="-326.5" font-family="Helvetica,sans-Serif" font-size="10.00" fill="grey">m_CurrentSettingAlternate</text>
<text text-anchor="middle" x="959.62" y="-314.5" font-family="Helvetica,sans-Serif" font-size="10.00" fill="grey">KeyIndex</text>
<text text-anchor="middle" x="959.62" y="-302.5" font-family="Helvetica,sans-Serif" font-size="10.00" fill="grey">m_CurrentSettingKeyIndex</text>
</g>
<!-- Node5 -->
<g id="Node000005" class="node">
<title>Node5</title>
<g id="a_Node000005"><a xlink:href="../../d4/d03/classfloat.html" target="_top" xlink:title=" ">
<polygon fill="white" stroke="#666666" points="210.5,-508 176.5,-508 176.5,-488 210.5,-488 210.5,-508"/>
<text text-anchor="middle" x="193.5" y="-494.5" font-family="Helvetica,sans-Serif" font-size="10.00">float</text>
</a>
</g>
</g>
<!-- Node5&#45;&gt;Node3 -->
<g id="edge4_Node000003_Node000005" class="edge">
<title>Node5&#45;&gt;Node3</title>
<g id="a_edge4_Node000003_Node000005"><a xlink:title=" ">
<path fill="none" stroke="#9a32cd" stroke-dasharray="5,2" d="M164.93,-495.59C119.9,-492.69 35.61,-484.36 17.25,-462 -11.27,-427.26 21.32,-369.02 36.03,-346.39"/>
<polygon fill="#9a32cd" stroke="#9a32cd" points="164.55,-499.07 174.74,-496.16 164.96,-492.08 164.55,-499.07"/>
</a>
</g>
<text text-anchor="middle" x="77.12" y="-422.5" font-family="Helvetica,sans-Serif" font-size="10.00" fill="grey"> c_MaxItemDistanceRadius</text>
</g>
<!-- Node5&#45;&gt;Node5 -->
<g id="edge5_Node000005_Node000005" class="edge">
<title>Node5&#45;&gt;Node5</title>
<g id="a_edge5_Node000005_Node000005"><a xlink:title=" ">
<path fill="none" stroke="#9a32cd" stroke-dasharray="5,2" d="M215.18,-511.5C222.56,-511.58 228.5,-507.08 228.5,-498 228.5,-484.64 215.65,-481.2 204.25,-487.67"/>
<polygon fill="#9a32cd" stroke="#9a32cd" points="216.28,-508.17 205.7,-508.75 214.33,-514.9 216.28,-508.17"/>
</a>
</g>
<text text-anchor="middle" x="250.62" y="-506.5" font-family="Helvetica,sans-Serif" font-size="10.00" fill="grey"> LOWEST</text>
<text text-anchor="middle" x="250.62" y="-494.5" font-family="Helvetica,sans-Serif" font-size="10.00" fill="grey">MAX</text>
<text text-anchor="middle" x="250.62" y="-482.5" font-family="Helvetica,sans-Serif" font-size="10.00" fill="grey">MIN</text>
</g>
<!-- Node10 -->
<g id="Node000010" class="node">
<title>Node10</title>
<g id="a_Node000010"><a xlink:href="../../df/d09/class_entity_a_i.html" target="_top" xlink:title=" ">
<polygon fill="white" stroke="#666666" points="707.75,-228 657.25,-228 657.25,-208 707.75,-208 707.75,-228"/>
<text text-anchor="middle" x="682.5" y="-214.5" font-family="Helvetica,sans-Serif" font-size="10.00">EntityAI</text>
</a>
</g>
</g>
<!-- Node5&#45;&gt;Node10 -->
<g id="edge28_Node000010_Node000005" class="edge">
<title>Node5&#45;&gt;Node10</title>
<g id="a_edge28_Node000010_Node000005"><a xlink:title=" ">
<path fill="none" stroke="#9a32cd" stroke-dasharray="5,2" d="M221.52,-489.75C243.51,-483.61 274.61,-473.91 300.5,-462 370.44,-429.82 384.56,-414.88 448.5,-372 526.91,-319.42 537.57,-292.9 619.5,-246 631.38,-239.2 645.3,-233.06 657.03,-228.36"/>
<polygon fill="#9a32cd" stroke="#9a32cd" points="220.83,-486.31 212.1,-492.31 222.66,-493.06 220.83,-486.31"/>
</a>
</g>
<text text-anchor="middle" x="597.25" y="-338.5" font-family="Helvetica,sans-Serif" font-size="10.00" fill="grey"> SOUND_CONTACT_SKIP</text>
<text text-anchor="middle" x="597.25" y="-326.5" font-family="Helvetica,sans-Serif" font-size="10.00" fill="grey">m_SoundContactTickTime</text>
</g>
<!-- Node6 -->
<g id="Node000006" class="node">
<title>Node6</title>
<g id="a_Node000006"><a xlink:href="../../d8/d05/class_hand_f_s_m.html" target="_top" xlink:title="Hand finite state machine.">
<polygon fill="white" stroke="#666666" points="162.25,-228 102.75,-228 102.75,-208 162.25,-208 162.25,-228"/>
<text text-anchor="middle" x="132.5" y="-214.5" font-family="Helvetica,sans-Serif" font-size="10.00">HandFSM</text>
</a>
</g>
</g>
<!-- Node6&#45;&gt;Node1 -->
<g id="edge7_Node000001_Node000006" class="edge">
<title>Node6&#45;&gt;Node1</title>
<g id="a_edge7_Node000001_Node000006"><a xlink:title=" ">
<path fill="none" stroke="#9a32cd" stroke-dasharray="5,2" d="M132.4,-196.17C132.19,-152.26 131.7,-51.69 131.55,-20.44"/>
<polygon fill="#9a32cd" stroke="#9a32cd" points="128.9,-196.12 132.45,-206.1 135.9,-196.08 128.9,-196.12"/>
</a>
</g>
<text text-anchor="middle" x="151.25" y="-86.5" font-family="Helvetica,sans-Serif" font-size="10.00" fill="grey"> m_FSM</text>
</g>
<!-- Node6&#45;&gt;Node7 -->
<g id="edge35_Node000007_Node000006" class="edge">
<title>Node6&#45;&gt;Node7</title>
<g id="a_edge35_Node000007_Node000006"><a xlink:title=" ">
<path fill="none" stroke="#9a32cd" stroke-dasharray="5,2" d="M139.59,-196.98C148.66,-174.32 166.55,-137.99 194,-118 213.07,-104.12 238.47,-97.33 259.91,-94.03"/>
<polygon fill="#9a32cd" stroke="#9a32cd" points="136.34,-195.68 136.09,-206.27 142.89,-198.15 136.34,-195.68"/>
</a>
</g>
<text text-anchor="middle" x="213.25" y="-150.5" font-family="Helvetica,sans-Serif" font-size="10.00" fill="grey"> m_FSM</text>
</g>
<!-- Node7&#45;&gt;Node1 -->
<g id="edge8_Node000001_Node000007" class="edge">
<title>Node7&#45;&gt;Node1</title>
<g id="a_edge8_Node000001_Node000007"><a xlink:title=" ">
<path fill="none" stroke="#9a32cd" stroke-dasharray="5,2" d="M271.41,-74.82C236.82,-59.04 181.9,-33.99 152.2,-20.44"/>
<polygon fill="#9a32cd" stroke="#9a32cd" points="269.95,-78 280.5,-78.96 272.85,-71.63 269.95,-78"/>
</a>
</g>
<text text-anchor="middle" x="269.5" y="-52.5" font-family="Helvetica,sans-Serif" font-size="10.00" fill="grey"> m_Empty</text>
<text text-anchor="middle" x="269.5" y="-40.5" font-family="Helvetica,sans-Serif" font-size="10.00" fill="grey">m_Equipped</text>
</g>
<!-- Node7&#45;&gt;Node7 -->
<g id="edge34_Node000007_Node000007" class="edge">
<title>Node7&#45;&gt;Node7</title>
<g id="a_edge34_Node000007_Node000007"><a xlink:title=" ">
<path fill="none" stroke="#9a32cd" stroke-dasharray="5,2" d="M356.02,-95.64C360.11,-94.39 362.62,-92.51 362.62,-90 362.62,-85.66 355.09,-83.21 344.92,-82.63"/>
<polygon fill="#9a32cd" stroke="#9a32cd" points="355.75,-92.13 346.41,-97.13 356.83,-99.05 355.75,-92.13"/>
</a>
</g>
<text text-anchor="middle" x="396" y="-86.5" font-family="Helvetica,sans-Serif" font-size="10.00" fill="grey"> m_parentState</text>
</g>
<!-- Node8 -->
<g id="Node000008" class="node">
<title>Node8</title>
<g id="a_Node000008"><a xlink:href="../../d6/d05/class_inventory_location.html" target="_top" xlink:title="InventoryLocation.">
<polygon fill="white" stroke="#666666" points="271,-228 180,-228 180,-208 271,-208 271,-228"/>
<text text-anchor="middle" x="225.5" y="-214.5" font-family="Helvetica,sans-Serif" font-size="10.00">InventoryLocation</text>
</a>
</g>
</g>
<!-- Node8&#45;&gt;Node7 -->
<g id="edge9_Node000007_Node000008" class="edge">
<title>Node8&#45;&gt;Node7</title>
<g id="a_edge9_Node000007_Node000008"><a xlink:title=" ">
<path fill="none" stroke="#9a32cd" stroke-dasharray="5,2" d="M231.91,-196.72C239.2,-175.68 252.52,-142.49 271,-118 276.03,-111.33 282.97,-105.16 289.06,-100.41"/>
<polygon fill="#9a32cd" stroke="#9a32cd" points="228.62,-195.52 228.8,-206.11 235.27,-197.72 228.62,-195.52"/>
</a>
</g>
<text text-anchor="middle" x="293.25" y="-180.5" font-family="Helvetica,sans-Serif" font-size="10.00" fill="grey"> m_Dst</text>
<text text-anchor="middle" x="293.25" y="-168.5" font-family="Helvetica,sans-Serif" font-size="10.00" fill="grey">m_Dst1</text>
<text text-anchor="middle" x="293.25" y="-156.5" font-family="Helvetica,sans-Serif" font-size="10.00" fill="grey">m_Dst2</text>
<text text-anchor="middle" x="293.25" y="-144.5" font-family="Helvetica,sans-Serif" font-size="10.00" fill="grey">m_Src1</text>
<text text-anchor="middle" x="293.25" y="-132.5" font-family="Helvetica,sans-Serif" font-size="10.00" fill="grey">m_Src2</text>
<text text-anchor="middle" x="293.25" y="-120.5" font-family="Helvetica,sans-Serif" font-size="10.00" fill="grey">m_ilEntity</text>
</g>
<!-- Node9 -->
<g id="Node000009" class="node">
<title>Node9</title>
<g id="a_Node000009"><a xlink:href="../../de/d05/class_hand_force_swapping_animated___show.html" target="_top" xlink:title=" ">
<polygon fill="white" stroke="#666666" points="464.38,-228 288.62,-228 288.62,-208 464.38,-208 464.38,-228"/>
<text text-anchor="middle" x="376.5" y="-214.5" font-family="Helvetica,sans-Serif" font-size="10.00">HandForceSwappingAnimated_Show</text>
</a>
</g>
</g>
<!-- Node9&#45;&gt;Node7 -->
<g id="edge10_Node000007_Node000009" class="edge">
<title>Node9&#45;&gt;Node7</title>
<g id="a_edge10_Node000007_Node000009"><a xlink:title=" ">
<path fill="none" stroke="#9a32cd" stroke-dasharray="5,2" d="M365.26,-197.87C349.12,-170.37 319.96,-120.73 307.93,-100.24"/>
<polygon fill="#9a32cd" stroke="#9a32cd" points="362.09,-199.37 370.17,-206.22 368.13,-195.83 362.09,-199.37"/>
</a>
</g>
<text text-anchor="middle" x="381.75" y="-150.5" font-family="Helvetica,sans-Serif" font-size="10.00" fill="grey"> m_Swap</text>
</g>
<!-- Node10&#45;&gt;Node7 -->
<g id="edge11_Node000007_Node000010" class="edge">
<title>Node10&#45;&gt;Node7</title>
<g id="a_edge11_Node000007_Node000010"><a xlink:title=" ">
<path fill="none" stroke="#9a32cd" stroke-dasharray="5,2" d="M660.77,-201.12C628.75,-178.6 566.22,-137.92 506.5,-118 452.62,-100.02 386.97,-93.96 344.96,-91.95"/>
<polygon fill="#9a32cd" stroke="#9a32cd" points="658.65,-203.91 668.82,-206.87 662.71,-198.21 658.65,-203.91"/>
</a>
</g>
<text text-anchor="middle" x="662.5" y="-150.5" font-family="Helvetica,sans-Serif" font-size="10.00" fill="grey"> m_Entity</text>
</g>
<!-- Node11&#45;&gt;Node10 -->
<g id="edge12_Node000010_Node000011" class="edge">
<title>Node11&#45;&gt;Node10</title>
<g id="a_edge12_Node000010_Node000011"><a xlink:title=" ">
<path fill="none" stroke="#9a32cd" stroke-dasharray="5,2" d="M1254.86,-316.69C1249.39,-310.26 1242.43,-303.72 1234.5,-300 1176.19,-272.66 1007.47,-298.61 945.25,-282 910.39,-272.7 906.96,-256.67 872.5,-246 815.37,-228.31 744.95,-222.15 707.96,-220.05"/>
<polygon fill="#9a32cd" stroke="#9a32cd" points="1251.96,-318.66 1260.81,-324.48 1257.52,-314.41 1251.96,-318.66"/>
</a>
</g>
<text text-anchor="middle" x="993.62" y="-272.5" font-family="Helvetica,sans-Serif" font-size="10.00" fill="grey"> m_ContinuousActions</text>
<text text-anchor="middle" x="993.62" y="-260.5" font-family="Helvetica,sans-Serif" font-size="10.00" fill="grey">m_InteractActions</text>
<text text-anchor="middle" x="993.62" y="-248.5" font-family="Helvetica,sans-Serif" font-size="10.00" fill="grey">m_SingleUseActions</text>
</g>
<!-- Node11&#45;&gt;Node11 -->
<g id="edge15_Node000011_Node000011" class="edge">
<title>Node11&#45;&gt;Node11</title>
<g id="a_edge15_Node000011_Node000011"><a xlink:title=" ">
<path fill="none" stroke="#9a32cd" stroke-dasharray="5,2" d="M1289.8,-349.49C1297.83,-349.78 1304.38,-345.29 1304.38,-336 1304.38,-322.64 1290.83,-319.2 1278.83,-325.67"/>
<polygon fill="#9a32cd" stroke="#9a32cd" points="1290.86,-346.15 1280.28,-346.75 1288.93,-352.88 1290.86,-346.15"/>
</a>
</g>
<text text-anchor="middle" x="1325.38" y="-332.5" font-family="Helvetica,sans-Serif" font-size="10.00" fill="grey"> proxyInfo</text>
</g>
<!-- Node11&#45;&gt;Node16 -->
<g id="edge23_Node000016_Node000011" class="edge">
<title>Node11&#45;&gt;Node16</title>
<g id="a_edge23_Node000016_Node000011"><a xlink:title=" ">
<path fill="none" stroke="#9a32cd" stroke-dasharray="5,2" d="M1275.62,-315.19C1282.12,-295.89 1288.12,-266.53 1274.5,-246 1269.23,-238.06 1261.12,-232.45 1252.42,-228.49"/>
<polygon fill="#9a32cd" stroke="#9a32cd" points="1272.43,-313.73 1272.21,-324.33 1278.99,-316.18 1272.43,-313.73"/>
</a>
</g>
<text text-anchor="middle" x="1303.5" y="-260.5" font-family="Helvetica,sans-Serif" font-size="10.00" fill="grey"> proxyInfo</text>
</g>
<!-- Node12 -->
<g id="Node000012" class="node">
<title>Node12</title>
<g id="a_Node000012"><a xlink:href="../../d8/d03/class_object.html" target="_top" xlink:title=" ">
<polygon fill="white" stroke="#666666" points="1087.75,-508 1043.25,-508 1043.25,-488 1087.75,-488 1087.75,-508"/>
<text text-anchor="middle" x="1065.5" y="-494.5" font-family="Helvetica,sans-Serif" font-size="10.00">Object</text>
</a>
</g>
</g>
<!-- Node12&#45;&gt;Node11 -->
<g id="edge13_Node000011_Node000012" class="edge">
<title>Node12&#45;&gt;Node11</title>
<g id="a_edge13_Node000011_Node000012"><a xlink:title=" ">
<path fill="none" stroke="#9a32cd" stroke-dasharray="5,2" d="M1099.35,-491.58C1120.54,-486.76 1147.35,-477.91 1166.5,-462 1194.82,-438.46 1182.39,-416.94 1207.5,-390 1217.33,-379.45 1223.48,-381.31 1234.5,-372 1243.81,-364.13 1253.24,-353.85 1259.62,-346.47"/>
<polygon fill="#9a32cd" stroke="#9a32cd" points="1098.81,-488.11 1089.72,-493.55 1100.22,-494.97 1098.81,-488.11"/>
</a>
</g>
<text text-anchor="middle" x="1221" y="-428.5" font-family="Helvetica,sans-Serif" font-size="10.00" fill="grey"> obj</text>
<text text-anchor="middle" x="1221" y="-416.5" font-family="Helvetica,sans-Serif" font-size="10.00" fill="grey">parent</text>
</g>
<!-- Node12&#45;&gt;Node16 -->
<g id="edge21_Node000016_Node000012" class="edge">
<title>Node12&#45;&gt;Node16</title>
<g id="a_edge21_Node000016_Node000012"><a xlink:title=" ">
<path fill="none" stroke="#9a32cd" stroke-dasharray="5,2" d="M1041.45,-480.42C1035.82,-475.23 1030.57,-469.01 1027.5,-462 1007.95,-417.42 1036.59,-256.24 1046.5,-246 1062.76,-229.21 1124.12,-222.86 1166.98,-220.46"/>
<polygon fill="#9a32cd" stroke="#9a32cd" points="1039.21,-483.11 1049.17,-486.71 1043.63,-477.68 1039.21,-483.11"/>
</a>
</g>
<text text-anchor="middle" x="1045" y="-338.5" font-family="Helvetica,sans-Serif" font-size="10.00" fill="grey"> obj</text>
<text text-anchor="middle" x="1045" y="-326.5" font-family="Helvetica,sans-Serif" font-size="10.00" fill="grey">parent</text>
</g>
<!-- Node13 -->
<g id="Node000013" class="node">
<title>Node13</title>
<g id="a_Node000013"><a xlink:href="../../d4/d04/class_class.html" target="_top" xlink:title="Super root of all classes in Enforce script.">
<polygon fill="white" stroke="#666666" points="1239.88,-508 1199.12,-508 1199.12,-488 1239.88,-488 1239.88,-508"/>
<text text-anchor="middle" x="1219.5" y="-494.5" font-family="Helvetica,sans-Serif" font-size="10.00">Class</text>
</a>
</g>
</g>
<!-- Node13&#45;&gt;Node11 -->
<g id="edge16_Node000011_Node000013" class="edge">
<title>Node13&#45;&gt;Node11</title>
<g id="a_edge16_Node000011_Node000013"><a xlink:title=" ">
<path fill="none" stroke="#9a32cd" stroke-dasharray="5,2" d="M1231.22,-477.62C1233.89,-472.65 1236.51,-467.23 1238.5,-462 1254.31,-420.34 1263.12,-367.48 1266.21,-346.35"/>
<polygon fill="#9a32cd" stroke="#9a32cd" points="1228.23,-475.8 1226.3,-486.21 1234.31,-479.27 1228.23,-475.8"/>
</a>
</g>
<text text-anchor="middle" x="1284.12" y="-422.5" font-family="Helvetica,sans-Serif" font-size="10.00" fill="grey"> m_Instance</text>
</g>
<!-- Node13&#45;&gt;Node16 -->
<g id="edge24_Node000016_Node000013" class="edge">
<title>Node13&#45;&gt;Node16</title>
<g id="a_edge24_Node000016_Node000013"><a xlink:title=" ">
<path fill="none" stroke="#9a32cd" stroke-dasharray="5,2" d="M1201.88,-479.28C1197.75,-474.11 1193.87,-468.18 1191.5,-462 1165.68,-394.75 1176.37,-371.36 1186.25,-300 1189.96,-273.25 1200.86,-243.11 1206.7,-228.27"/>
<polygon fill="#9a32cd" stroke="#9a32cd" points="1199.05,-481.36 1208.31,-486.52 1204.29,-476.72 1199.05,-481.36"/>
</a>
</g>
<text text-anchor="middle" x="1212.12" y="-332.5" font-family="Helvetica,sans-Serif" font-size="10.00" fill="grey"> m_Instance</text>
</g>
<!-- Node14 -->
<g id="Node000014" class="node">
<title>Node14</title>
<g id="a_Node000014"><a xlink:href="../../d5/d02/classstring.html" target="_top" xlink:title=" ">
<polygon fill="white" stroke="#666666" points="1414.5,-508 1374.5,-508 1374.5,-488 1414.5,-488 1414.5,-508"/>
<text text-anchor="middle" x="1394.5" y="-494.5" font-family="Helvetica,sans-Serif" font-size="10.00">string</text>
</a>
</g>
</g>
<!-- Node14&#45;&gt;Node11 -->
<g id="edge17_Node000011_Node000014" class="edge">
<title>Node14&#45;&gt;Node11</title>
<g id="a_edge17_Node000011_Node000014"><a xlink:title=" ">
<path fill="none" stroke="#9a32cd" stroke-dasharray="5,2" d="M1371.82,-480.96C1365,-475.45 1357.86,-468.92 1352.25,-462 1329.5,-433.93 1335.03,-419.74 1314.5,-390 1303.04,-373.4 1286.98,-356.32 1276.91,-346.18"/>
<polygon fill="#9a32cd" stroke="#9a32cd" points="1369.46,-483.56 1379.53,-486.85 1373.71,-478 1369.46,-483.56"/>
</a>
</g>
<text text-anchor="middle" x="1369.12" y="-422.5" font-family="Helvetica,sans-Serif" font-size="10.00" fill="grey"> m_Test</text>
</g>
<!-- Node14&#45;&gt;Node14 -->
<g id="edge18_Node000014_Node000014" class="edge">
<title>Node14&#45;&gt;Node14</title>
<g id="a_edge18_Node000014_Node000014"><a xlink:title=" ">
<path fill="none" stroke="#9a32cd" stroke-dasharray="5,2" d="M1417.2,-511.47C1425.6,-511.88 1432.5,-507.39 1432.5,-498 1432.5,-484.64 1418.55,-481.2 1406.17,-487.67"/>
<polygon fill="#9a32cd" stroke="#9a32cd" points="1418.2,-508.12 1407.63,-508.75 1416.29,-514.85 1418.2,-508.12"/>
</a>
</g>
<text text-anchor="middle" x="1448.25" y="-494.5" font-family="Helvetica,sans-Serif" font-size="10.00" fill="grey"> Empty</text>
</g>
<!-- Node14&#45;&gt;Node16 -->
<g id="edge25_Node000016_Node000014" class="edge">
<title>Node14&#45;&gt;Node16</title>
<g id="a_edge25_Node000016_Node000014"><a xlink:title=" ">
<path fill="none" stroke="#9a32cd" stroke-dasharray="5,2" d="M1426.01,-495.22C1449.13,-492.06 1479.09,-483.72 1494.5,-462 1536.58,-402.69 1519.99,-354.19 1471.5,-300 1415.66,-237.6 1312.75,-222.74 1254.22,-219.53"/>
<polygon fill="#9a32cd" stroke="#9a32cd" points="1425.72,-491.73 1416.15,-496.28 1426.47,-498.69 1425.72,-491.73"/>
</a>
</g>
<text text-anchor="middle" x="1532.12" y="-332.5" font-family="Helvetica,sans-Serif" font-size="10.00" fill="grey"> m_Test</text>
</g>
<!-- Node17 -->
<g id="Node000017" class="node">
<title>Node17</title>
<g id="a_Node000017"><a xlink:href="../../d4/d0d/class_sound_lookup_table.html" target="_top" xlink:title=" ">
<polygon fill="white" stroke="#666666" points="1462.75,-346 1364.25,-346 1364.25,-326 1462.75,-326 1462.75,-346"/>
<text text-anchor="middle" x="1413.5" y="-332.5" font-family="Helvetica,sans-Serif" font-size="10.00">SoundLookupTable</text>
</a>
</g>
</g>
<!-- Node14&#45;&gt;Node17 -->
<g id="edge30_Node000017_Node000014" class="edge">
<title>Node14&#45;&gt;Node17</title>
<g id="a_edge30_Node000017_Node000014"><a xlink:title=" ">
<path fill="none" stroke="#9a32cd" stroke-dasharray="5,2" d="M1392.77,-476.41C1391.4,-454.74 1390.45,-419.71 1395.5,-390 1398.2,-374.1 1404.97,-356.53 1409.39,-346.15"/>
<polygon fill="#9a32cd" stroke="#9a32cd" points="1389.27,-476.53 1393.5,-486.24 1396.25,-476.01 1389.27,-476.53"/>
</a>
</g>
<text text-anchor="middle" x="1445" y="-428.5" font-family="Helvetica,sans-Serif" font-size="10.00" fill="grey"> m_parameterName</text>
<text text-anchor="middle" x="1445" y="-416.5" font-family="Helvetica,sans-Serif" font-size="10.00" fill="grey">m_tableCategoryName</text>
</g>
<!-- Node15 -->
<g id="Node000015" class="node">
<title>Node15</title>
<g id="a_Node000015"><a xlink:href="../../dd/d0a/class_widget.html" target="_top" xlink:title=" ">
<polygon fill="white" stroke="#666666" points="1590.88,-508 1544.12,-508 1544.12,-488 1590.88,-488 1590.88,-508"/>
<text text-anchor="middle" x="1567.5" y="-494.5" font-family="Helvetica,sans-Serif" font-size="10.00">Widget</text>
</a>
</g>
</g>
<!-- Node15&#45;&gt;Node11 -->
<g id="edge19_Node000011_Node000015" class="edge">
<title>Node15&#45;&gt;Node11</title>
<g id="a_edge19_Node000011_Node000015"><a xlink:title=" ">
<path fill="none" stroke="#9a32cd" stroke-dasharray="5,2" d="M1553.98,-478.36C1550.27,-473.12 1546.3,-467.38 1542.75,-462 1522.06,-430.65 1530.07,-410.35 1498.5,-390 1444.66,-355.3 1417.54,-387.96 1355.5,-372 1330.98,-365.69 1304.11,-354.31 1286.6,-346.24"/>
<polygon fill="#9a32cd" stroke="#9a32cd" points="1551.06,-480.29 1559.73,-486.38 1556.75,-476.21 1551.06,-480.29"/>
</a>
</g>
<text text-anchor="middle" x="1560.88" y="-422.5" font-family="Helvetica,sans-Serif" font-size="10.00" fill="grey"> m_Root</text>
</g>
<!-- Node15&#45;&gt;Node16 -->
<g id="edge26_Node000016_Node000015" class="edge">
<title>Node15&#45;&gt;Node16</title>
<g id="a_edge26_Node000016_Node000015"><a xlink:title=" ">
<path fill="none" stroke="#9a32cd" stroke-dasharray="5,2" d="M1575.53,-477.28C1577.17,-472.37 1578.66,-467.06 1579.5,-462 1591.49,-390.07 1601.2,-355.16 1553.5,-300 1515.51,-256.07 1490.43,-261.66 1434.5,-246 1373.39,-228.89 1299.92,-222.62 1254.21,-220.33"/>
<polygon fill="#9a32cd" stroke="#9a32cd" points="1572.38,-475.7 1572.16,-486.29 1578.94,-478.15 1572.38,-475.7"/>
</a>
</g>
<text text-anchor="middle" x="1606.88" y="-332.5" font-family="Helvetica,sans-Serif" font-size="10.00" fill="grey"> m_Root</text>
</g>
<!-- Node16&#45;&gt;Node11 -->
<g id="edge20_Node000011_Node000016" class="edge">
<title>Node16&#45;&gt;Node11</title>
<g id="a_edge20_Node000011_Node000016"><a xlink:title=" ">
<path fill="none" stroke="#9a32cd" stroke-dasharray="5,2" d="M1206.5,-239.49C1205.01,-252.35 1205,-268.92 1211.5,-282 1217.28,-293.62 1224.91,-291.25 1234.5,-300 1243.51,-308.22 1252.98,-318.44 1259.45,-325.72"/>
<polygon fill="#9a32cd" stroke="#9a32cd" points="1209.96,-240.05 1208.07,-229.62 1203.04,-238.95 1209.96,-240.05"/>
</a>
</g>
<text text-anchor="middle" x="1243" y="-260.5" font-family="Helvetica,sans-Serif" font-size="10.00" fill="grey"> m_Subgroups</text>
</g>
<!-- Node16&#45;&gt;Node16 -->
<g id="edge27_Node000016_Node000016" class="edge">
<title>Node16&#45;&gt;Node16</title>
<g id="a_edge27_Node000016_Node000016"><a xlink:title=" ">
<path fill="none" stroke="#9a32cd" stroke-dasharray="5,2" d="M1265.13,-224.44C1269.23,-223 1271.75,-220.86 1271.75,-218 1271.75,-213.06 1264.21,-210.24 1253.99,-209.55"/>
<polygon fill="#9a32cd" stroke="#9a32cd" points="1264.7,-220.96 1255.48,-226.19 1265.94,-227.85 1264.7,-220.96"/>
</a>
</g>
<text text-anchor="middle" x="1303.25" y="-214.5" font-family="Helvetica,sans-Serif" font-size="10.00" fill="grey"> m_Subgroups</text>
</g>
<!-- Node17&#45;&gt;Node10 -->
<g id="edge29_Node000010_Node000017" class="edge">
<title>Node17&#45;&gt;Node10</title>
<g id="a_edge29_Node000010_Node000017"><a xlink:title=" ">
<path fill="none" stroke="#9a32cd" stroke-dasharray="5,2" d="M1392.7,-319.15C1382.13,-311.99 1368.75,-304.21 1355.5,-300 1249,-266.2 1211.44,-315.18 1104.75,-282 1074.6,-272.62 1073.64,-255.42 1043.5,-246 980.82,-226.4 779.87,-220.81 708.2,-219.41"/>
<polygon fill="#9a32cd" stroke="#9a32cd" points="1390.46,-321.86 1400.64,-324.81 1394.53,-316.16 1390.46,-321.86"/>
</a>
</g>
<text text-anchor="middle" x="1152.88" y="-260.5" font-family="Helvetica,sans-Serif" font-size="10.00" fill="grey"> m_SoundImpactTable</text>
</g>
<!-- Node18 -->
<g id="Node000018" class="node">
<title>Node18</title>
<g id="a_Node000018"><a xlink:href="../../d9/d09/classbool.html" target="_top" xlink:title=" ">
<polygon fill="white" stroke="#666666" points="706.5,-346 672.5,-346 672.5,-326 706.5,-326 706.5,-346"/>
<text text-anchor="middle" x="689.5" y="-332.5" font-family="Helvetica,sans-Serif" font-size="10.00">bool</text>
</a>
</g>
</g>
<!-- Node18&#45;&gt;Node10 -->
<g id="edge31_Node000010_Node000018" class="edge">
<title>Node18&#45;&gt;Node10</title>
<g id="a_edge31_Node000010_Node000018"><a xlink:title=" ">
<path fill="none" stroke="#9a32cd" stroke-dasharray="5,2" d="M675.45,-317.18C670.43,-311.36 664.52,-305.09 658.5,-300 647,-290.26 637.05,-295.19 629.75,-282 622,-268 621.4,-259.65 629.75,-246 635.76,-236.17 646.61,-229.77 656.91,-225.69"/>
<polygon fill="#9a32cd" stroke="#9a32cd" points="672.47,-319.06 681.53,-324.55 677.87,-314.61 672.47,-319.06"/>
</a>
</g>
<text text-anchor="middle" x="671.88" y="-266.5" font-family="Helvetica,sans-Serif" font-size="10.00" fill="grey"> m_ActionsInitialize</text>
<text text-anchor="middle" x="671.88" y="-254.5" font-family="Helvetica,sans-Serif" font-size="10.00" fill="grey">m_IsMeleeWeapon</text>
</g>
<!-- Node19 -->
<g id="Node000019" class="node">
<title>Node19</title>
<g id="a_Node000019"><a xlink:href="../../d4/d0d/class_script_invoker.html" target="_top" xlink:title="ScriptInvoker Class provide list of callbacks &#160;&#160;usage:">
<polygon fill="white" stroke="#666666" points="796.25,-346 724.75,-346 724.75,-326 796.25,-326 796.25,-346"/>
<text text-anchor="middle" x="760.5" y="-332.5" font-family="Helvetica,sans-Serif" font-size="10.00">ScriptInvoker</text>
</a>
</g>
</g>
<!-- Node19&#45;&gt;Node10 -->
<g id="edge32_Node000010_Node000019" class="edge">
<title>Node19&#45;&gt;Node10</title>
<g id="a_edge32_Node000010_Node000019"><a xlink:title=" ">
<path fill="none" stroke="#9a32cd" stroke-dasharray="5,2" d="M752.89,-315.09C745.05,-296.14 731.58,-267.4 714.5,-246 709.24,-239.41 702.18,-233.25 696.02,-228.48"/>
<polygon fill="#9a32cd" stroke="#9a32cd" points="749.61,-316.32 756.56,-324.32 756.11,-313.73 749.61,-316.32"/>
</a>
</g>
<text text-anchor="middle" x="804" y="-266.5" font-family="Helvetica,sans-Serif" font-size="10.00" fill="grey"> m_OnItemAddedToHands</text>
<text text-anchor="middle" x="804" y="-254.5" font-family="Helvetica,sans-Serif" font-size="10.00" fill="grey">m_OnItemRemovedFromHands</text>
</g>
</g>
</svg>

<g id="navigator" transform="translate(0 0)" fill="#404254">
  <rect fill="#f2f5e9" fill-opacity="0.5" stroke="#606060" stroke-width=".5" x="0" y="0" width="60" height="60"/>
  <use id="zoomplus" xlink:href="#zoomPlus" x="17" y="9" onmousedown="handleZoom(evt,'in')"/>
  <use id="zoomminus" xlink:href="#zoomMin" x="42" y="9" onmousedown="handleZoom(evt,'out')"/>
  <use id="reset" xlink:href="#resetDef" x="30" y="36" onmousedown="handleReset()"/>
   <use id="arrowup" xlink:href="#arrowUp" x="0" y="0" onmousedown="handlePan(0,-1)"/>
  <use id="arrowright" xlink:href="#arrowRight" x="0" y="0" onmousedown="handlePan(1,0)"/>
  <use id="arrowdown" xlink:href="#arrowDown" x="0" y="0" onmousedown="handlePan(0,1)"/>
  <use id="arrowleft" xlink:href="#arrowLeft" x="0" y="0" onmousedown="handlePan(-1,0)"/>
</g>
<svg viewBox="0 0 15 15" width="100%" height="30px" preserveAspectRatio="xMaxYMin meet">
 <g id="arrow_out" transform="scale(0.3 0.3)">
  <a xlink:href="class_human_inventory_with_f_s_m__coll__graph_org.svg" target="_base">
   <rect id="button" ry="5" rx="5" y="6" x="6" height="38" width="38"
        fill="#f2f5e9" fill-opacity="0.5" stroke="#606060" stroke-width="1.0"/>
   <path id="arrow"
     d="M 11.500037,31.436501 C 11.940474,20.09759 22.043105,11.32322 32.158766,21.979434 L 37.068811,17.246167 C 37.068811,17.246167 37.088388,32 37.088388,32 L 22.160133,31.978069 C 22.160133,31.978069 26.997745,27.140456 26.997745,27.140456 C 18.528582,18.264221 13.291696,25.230495 11.500037,31.436501 z"
     style="fill:#404040;"/>
  </a>
 </g>
</svg>

<style type='text/css'>
<![CDATA[
[data-mouse-over-selected='false'] { opacity: 0.7; }
[data-mouse-over-selected='true']  { opacity: 1.0; }
]]>
</style>
<script type="application/ecmascript"><![CDATA[
document.addEventListener('DOMContentLoaded', (event) => {
  highlightEdges();
  highlightAdjacentNodes();
});
]]></script>
</svg>
