<?xml version="1.0" encoding="UTF-8" standalone="no"?>
<!DOCTYPE svg PUBLIC "-//W3C//DTD SVG 1.1//EN"
 "http://www.w3.org/Graphics/SVG/1.1/DTD/svg11.dtd">
<!-- Generated by graphviz version 11.0.0 (20240428.1522)
 -->
<!-- Title: Ammo_40mm_Base Pages: 1 -->
<svg width="475pt" height="252pt"
 viewBox="0.00 0.00 475.12 252.00" xmlns="http://www.w3.org/2000/svg" xmlns:xlink="http://www.w3.org/1999/xlink">

<svg id="main" version="1.1" xmlns="http://www.w3.org/2000/svg" xmlns:xlink="http://www.w3.org/1999/xlink" xml:space="preserve" onload="init(evt)">
<style type="text/css"><![CDATA[
.node, .edge {opacity: 0.7;}
.node.selected, .edge.selected {opacity: 1;}
.edge:hover path { stroke: red; }
.edge:hover polygon { stroke: red; fill: red; }
]]></style>
<script type="application/ecmascript" xlink:href="../../svg.min.js"/>
<svg id="graph" class="graph">
<g id="graph0" class="graph" transform="scale(1 1) rotate(0) translate(4 248)">
<title>Ammo_40mm_Base</title>
<!-- Node1 -->
<g id="Node000001" class="node">
<title>Node1</title>
<g id="a_Node000001"><a xlink:title=" ">
<polygon fill="#999999" stroke="#666666" points="204.62,-132 100.12,-132 100.12,-112 204.62,-112 204.62,-132"/>
<text text-anchor="middle" x="152.38" y="-118.5" font-family="Helvetica,sans-Serif" font-size="10.00">Ammo_40mm_Base</text>
</a>
</g>
</g>
<!-- Node4 -->
<g id="Node000004" class="node">
<title>Node4</title>
<g id="a_Node000004"><a xlink:href="../../d5/d0b/class_ammo__40mm___explosive.html" target="_top" xlink:title=" ">
<polygon fill="white" stroke="#666666" points="134,-76 10.75,-76 10.75,-56 134,-56 134,-76"/>
<text text-anchor="middle" x="72.38" y="-62.5" font-family="Helvetica,sans-Serif" font-size="10.00">Ammo_40mm_Explosive</text>
</a>
</g>
</g>
<!-- Node1&#45;&gt;Node4 -->
<g id="edge3_Node000001_Node000004" class="edge">
<title>Node1&#45;&gt;Node4</title>
<g id="a_edge3_Node000001_Node000004"><a xlink:title=" ">
<path fill="none" stroke="#8b1a1a" d="M129.07,-105.27C115.25,-95.94 98.19,-84.43 86.42,-76.48"/>
<polygon fill="#8b1a1a" stroke="#8b1a1a" points="126.94,-108.05 137.19,-110.75 130.86,-102.25 126.94,-108.05"/>
</a>
</g>
</g>
<!-- Node5 -->
<g id="Node000005" class="node">
<title>Node5</title>
<g id="a_Node000005"><a xlink:href="../../d5/d0d/class_ammo__40mm___smoke___color_base.html" target="_top" xlink:title=" ">
<polygon fill="white" stroke="#666666" points="314.88,-76 151.88,-76 151.88,-56 314.88,-56 314.88,-76"/>
<text text-anchor="middle" x="233.38" y="-62.5" font-family="Helvetica,sans-Serif" font-size="10.00">Ammo_40mm_Smoke_ColorBase</text>
</a>
</g>
</g>
<!-- Node1&#45;&gt;Node5 -->
<g id="edge4_Node000001_Node000005" class="edge">
<title>Node1&#45;&gt;Node5</title>
<g id="a_edge4_Node000001_Node000005"><a xlink:title=" ">
<path fill="none" stroke="#8b1a1a" d="M175.97,-105.27C189.96,-95.94 207.23,-84.43 219.16,-76.48"/>
<polygon fill="#8b1a1a" stroke="#8b1a1a" points="174.12,-102.3 167.74,-110.75 178.01,-108.12 174.12,-102.3"/>
</a>
</g>
</g>
<!-- Node2 -->
<g id="Node000002" class="node">
<title>Node2</title>
<g id="a_Node000002"><a xlink:href="../../dc/d03/class_ammunition___base.html" target="_top" xlink:title="ammo pile base">
<polygon fill="white" stroke="#666666" points="200.12,-188 104.62,-188 104.62,-168 200.12,-168 200.12,-188"/>
<text text-anchor="middle" x="152.38" y="-174.5" font-family="Helvetica,sans-Serif" font-size="10.00">Ammunition_Base</text>
</a>
</g>
</g>
<!-- Node2&#45;&gt;Node1 -->
<g id="edge1_Node000001_Node000002" class="edge">
<title>Node2&#45;&gt;Node1</title>
<g id="a_edge1_Node000001_Node000002"><a xlink:title=" ">
<path fill="none" stroke="#8b1a1a" d="M152.38,-156.13C152.38,-147.9 152.38,-138.85 152.38,-132.3"/>
<polygon fill="#8b1a1a" stroke="#8b1a1a" points="148.88,-156.08 152.38,-166.08 155.88,-156.08 148.88,-156.08"/>
</a>
</g>
</g>
<!-- Node3 -->
<g id="Node000003" class="node">
<title>Node3</title>
<g id="a_Node000003"><a xlink:title=" ">
<polygon fill="white" stroke="#666666" points="195.25,-244 109.5,-244 109.5,-224 195.25,-224 195.25,-244"/>
<text text-anchor="middle" x="152.38" y="-230.5" font-family="Helvetica,sans-Serif" font-size="10.00">Magazine_Base</text>
</a>
</g>
</g>
<!-- Node3&#45;&gt;Node2 -->
<g id="edge2_Node000002_Node000003" class="edge">
<title>Node3&#45;&gt;Node2</title>
<g id="a_edge2_Node000002_Node000003"><a xlink:title=" ">
<path fill="none" stroke="#8b1a1a" d="M152.38,-212.13C152.38,-203.9 152.38,-194.85 152.38,-188.3"/>
<polygon fill="#8b1a1a" stroke="#8b1a1a" points="148.88,-212.08 152.38,-222.08 155.88,-212.08 148.88,-212.08"/>
</a>
</g>
</g>
<!-- Node6 -->
<g id="Node000006" class="node">
<title>Node6</title>
<g id="a_Node000006"><a xlink:href="../../d4/d06/class_ammo__40mm___smoke___black.html" target="_top" xlink:title=" ">
<polygon fill="white" stroke="#666666" points="142.75,-20 0,-20 0,0 142.75,0 142.75,-20"/>
<text text-anchor="middle" x="71.38" y="-6.5" font-family="Helvetica,sans-Serif" font-size="10.00">Ammo_40mm_Smoke_Black</text>
</a>
</g>
</g>
<!-- Node5&#45;&gt;Node6 -->
<g id="edge5_Node000005_Node000006" class="edge">
<title>Node5&#45;&gt;Node6</title>
<g id="a_edge5_Node000005_Node000006"><a xlink:title=" ">
<path fill="none" stroke="#8b1a1a" d="M194.52,-52.05C165.36,-42.33 126.09,-29.24 99.81,-20.48"/>
<polygon fill="#8b1a1a" stroke="#8b1a1a" points="193.13,-55.27 203.72,-55.12 195.34,-48.63 193.13,-55.27"/>
</a>
</g>
</g>
<!-- Node7 -->
<g id="Node000007" class="node">
<title>Node7</title>
<g id="a_Node000007"><a xlink:href="../../d3/d07/class_ammo__40mm___smoke___green.html" target="_top" xlink:title=" ">
<polygon fill="white" stroke="#666666" points="305.5,-20 161.25,-20 161.25,0 305.5,0 305.5,-20"/>
<text text-anchor="middle" x="233.38" y="-6.5" font-family="Helvetica,sans-Serif" font-size="10.00">Ammo_40mm_Smoke_Green</text>
</a>
</g>
</g>
<!-- Node5&#45;&gt;Node7 -->
<g id="edge6_Node000005_Node000007" class="edge">
<title>Node5&#45;&gt;Node7</title>
<g id="a_edge6_Node000005_Node000007"><a xlink:title=" ">
<path fill="none" stroke="#8b1a1a" d="M233.38,-44.13C233.38,-35.9 233.38,-26.85 233.38,-20.3"/>
<polygon fill="#8b1a1a" stroke="#8b1a1a" points="229.88,-44.08 233.38,-54.08 236.88,-44.08 229.88,-44.08"/>
</a>
</g>
</g>
<!-- Node8 -->
<g id="Node000008" class="node">
<title>Node8</title>
<g id="a_Node000008"><a xlink:href="../../d2/d07/class_ammo__40mm___smoke___white.html" target="_top" xlink:title=" ">
<polygon fill="white" stroke="#666666" points="467.12,-20 323.62,-20 323.62,0 467.12,0 467.12,-20"/>
<text text-anchor="middle" x="395.38" y="-6.5" font-family="Helvetica,sans-Serif" font-size="10.00">Ammo_40mm_Smoke_White</text>
</a>
</g>
</g>
<!-- Node5&#45;&gt;Node8 -->
<g id="edge7_Node000005_Node000008" class="edge">
<title>Node5&#45;&gt;Node8</title>
<g id="a_edge7_Node000005_Node000008"><a xlink:title=" ">
<path fill="none" stroke="#8b1a1a" d="M272.23,-52.05C301.39,-42.33 340.66,-29.24 366.94,-20.48"/>
<polygon fill="#8b1a1a" stroke="#8b1a1a" points="271.41,-48.63 263.03,-55.12 273.62,-55.27 271.41,-48.63"/>
</a>
</g>
</g>
</g>
</svg>
</svg>

<style type='text/css'>
<![CDATA[
[data-mouse-over-selected='false'] { opacity: 0.7; }
[data-mouse-over-selected='true']  { opacity: 1.0; }
]]>
</style>
<script type="application/ecmascript"><![CDATA[
document.addEventListener('DOMContentLoaded', (event) => {
  highlightEdges();
  highlightAdjacentNodes();
});
]]></script>
</svg>
