<?xml version="1.0" encoding="UTF-8" standalone="no"?>
<!DOCTYPE svg PUBLIC "-//W3C//DTD SVG 1.1//EN"
 "http://www.w3.org/Graphics/SVG/1.1/DTD/svg11.dtd">
<!-- Generated by graphviz version 11.0.0 (20240428.1522)
 -->
<!-- Title: WaterLevelSnapshot Pages: 1 -->
<svg width="145pt" height="124pt"
 viewBox="0.00 0.00 145.38 124.00" xmlns="http://www.w3.org/2000/svg" xmlns:xlink="http://www.w3.org/1999/xlink">
<g id="graph0" class="graph" transform="scale(1 1) rotate(0) translate(4 120)">
<title>WaterLevelSnapshot</title>
<!-- Node1 -->
<g id="Node000001" class="node">
<title>Node1</title>
<g id="a_Node000001"><a xlink:title=" ">
<polygon fill="#999999" stroke="#666666" points="105.25,-20 0,-20 0,0 105.25,0 105.25,-20"/>
<text text-anchor="middle" x="52.62" y="-6.5" font-family="Helvetica,sans-Serif" font-size="10.00">WaterLevelSnapshot</text>
</a>
</g>
</g>
<!-- Node2 -->
<g id="Node000002" class="node">
<title>Node2</title>
<g id="a_Node000002"><a xlink:href="../../d4/d03/classfloat.html" target="_top" xlink:title=" ">
<polygon fill="white" stroke="#666666" points="69.62,-108 35.62,-108 35.62,-88 69.62,-88 69.62,-108"/>
<text text-anchor="middle" x="52.62" y="-94.5" font-family="Helvetica,sans-Serif" font-size="10.00">float</text>
</a>
</g>
</g>
<!-- Node2&#45;&gt;Node1 -->
<g id="edge1_Node000001_Node000002" class="edge">
<title>Node2&#45;&gt;Node1</title>
<g id="a_edge1_Node000001_Node000002"><a xlink:title=" ">
<path fill="none" stroke="#9a32cd" stroke-dasharray="5,2" d="M52.62,-76.37C52.62,-58.6 52.62,-33.76 52.62,-20.4"/>
<polygon fill="#9a32cd" stroke="#9a32cd" points="49.13,-76.28 52.63,-86.28 56.13,-76.28 49.13,-76.28"/>
</a>
</g>
<text text-anchor="middle" x="95" y="-52.5" font-family="Helvetica,sans-Serif" font-size="10.00" fill="grey"> RemainingDuration</text>
<text text-anchor="middle" x="95" y="-40.5" font-family="Helvetica,sans-Serif" font-size="10.00" fill="grey">WaterHeight</text>
</g>
<!-- Node2&#45;&gt;Node2 -->
<g id="edge2_Node000002_Node000002" class="edge">
<title>Node2&#45;&gt;Node2</title>
<g id="a_edge2_Node000002_Node000002"><a xlink:title=" ">
<path fill="none" stroke="#9a32cd" stroke-dasharray="5,2" d="M81.3,-105.95C85.1,-104.6 87.62,-101.95 87.62,-98 87.62,-90.78 79.18,-87.91 69.91,-89.37"/>
<polygon fill="#9a32cd" stroke="#9a32cd" points="81.2,-102.45 71.42,-106.54 81.61,-109.43 81.2,-102.45"/>
</a>
</g>
<text text-anchor="middle" x="109.75" y="-106.5" font-family="Helvetica,sans-Serif" font-size="10.00" fill="grey"> LOWEST</text>
<text text-anchor="middle" x="109.75" y="-94.5" font-family="Helvetica,sans-Serif" font-size="10.00" fill="grey">MAX</text>
<text text-anchor="middle" x="109.75" y="-82.5" font-family="Helvetica,sans-Serif" font-size="10.00" fill="grey">MIN</text>
</g>
</g>
</svg>
