<?xml version="1.0" encoding="UTF-8" standalone="no"?>
<!DOCTYPE svg PUBLIC "-//W3C//DTD SVG 1.1//EN"
 "http://www.w3.org/Graphics/SVG/1.1/DTD/svg11.dtd">
<!-- Generated by graphviz version 11.0.0 (20240428.1522)
 -->
<!-- Title: ActionLockAttachment Pages: 1 -->
<svg width="248pt" height="256pt"
 viewBox="0.00 0.00 247.62 256.00" xmlns="http://www.w3.org/2000/svg" xmlns:xlink="http://www.w3.org/1999/xlink">
<g id="graph0" class="graph" transform="scale(1 1) rotate(0) translate(4 252)">
<title>ActionLockAttachment</title>
<!-- Node1 -->
<g id="Node000001" class="node">
<title>Node1</title>
<g id="a_Node000001"><a xlink:title=" ">
<polygon fill="#999999" stroke="#666666" points="175.62,-20 60.62,-20 60.62,0 175.62,0 175.62,-20"/>
<text text-anchor="middle" x="118.12" y="-6.5" font-family="Helvetica,sans-Serif" font-size="10.00">ActionLockAttachment</text>
</a>
</g>
</g>
<!-- Node2 -->
<g id="Node000002" class="node">
<title>Node2</title>
<g id="a_Node000002"><a xlink:href="../../d6/d0f/class_action_continuous_base.html" target="_top" xlink:title=" ">
<polygon fill="white" stroke="#666666" points="128.62,-112 13.62,-112 13.62,-92 128.62,-92 128.62,-112"/>
<text text-anchor="middle" x="71.12" y="-98.5" font-family="Helvetica,sans-Serif" font-size="10.00">ActionContinuousBase</text>
</a>
</g>
</g>
<!-- Node2&#45;&gt;Node1 -->
<g id="edge1_Node000001_Node000002" class="edge">
<title>Node2&#45;&gt;Node1</title>
<g id="a_edge1_Node000001_Node000002"><a xlink:title=" ">
<path fill="none" stroke="#8b1a1a" d="M81.28,-81.55C91.15,-62.66 105.71,-34.78 113.23,-20.38"/>
<polygon fill="#8b1a1a" stroke="#8b1a1a" points="78.21,-79.88 76.68,-90.37 84.41,-83.12 78.21,-79.88"/>
</a>
</g>
</g>
<!-- Node3 -->
<g id="Node000003" class="node">
<title>Node3</title>
<g id="a_Node000003"><a xlink:href="../../d7/d04/class_animated_action_base.html" target="_top" xlink:title=" ">
<polygon fill="white" stroke="#666666" points="124.88,-168 17.38,-168 17.38,-148 124.88,-148 124.88,-168"/>
<text text-anchor="middle" x="71.12" y="-154.5" font-family="Helvetica,sans-Serif" font-size="10.00">AnimatedActionBase</text>
</a>
</g>
</g>
<!-- Node3&#45;&gt;Node2 -->
<g id="edge2_Node000002_Node000003" class="edge">
<title>Node3&#45;&gt;Node2</title>
<g id="a_edge2_Node000002_Node000003"><a xlink:title=" ">
<path fill="none" stroke="#8b1a1a" d="M71.12,-136.13C71.12,-127.9 71.12,-118.85 71.12,-112.3"/>
<polygon fill="#8b1a1a" stroke="#8b1a1a" points="67.63,-136.08 71.13,-146.08 74.63,-136.08 67.63,-136.08"/>
</a>
</g>
</g>
<!-- Node4 -->
<g id="Node000004" class="node">
<title>Node4</title>
<g id="a_Node000004"><a xlink:title=" ">
<polygon fill="white" stroke="#666666" points="66.25,-248 0,-248 0,-228 66.25,-228 66.25,-248"/>
<text text-anchor="middle" x="33.12" y="-234.5" font-family="Helvetica,sans-Serif" font-size="10.00">ActionBase</text>
</a>
</g>
</g>
<!-- Node4&#45;&gt;Node3 -->
<g id="edge3_Node000003_Node000004" class="edge">
<title>Node4&#45;&gt;Node3</title>
<g id="a_edge3_Node000003_Node000004"><a xlink:title=" ">
<path fill="none" stroke="#8b1a1a" d="M42.62,-217.51C50.29,-201.77 60.74,-180.32 66.62,-168.24"/>
<polygon fill="#8b1a1a" stroke="#8b1a1a" points="39.53,-215.86 38.3,-226.39 45.82,-218.93 39.53,-215.86"/>
</a>
</g>
</g>
<!-- Node5 -->
<g id="Node000005" class="node">
<title>Node5</title>
<g id="a_Node000005"><a xlink:href="../../db/d06/class_param3.html" target="_top" xlink:title=" ">
<polygon fill="white" stroke="#666666" points="134,-248 84.25,-248 84.25,-228 134,-228 134,-248"/>
<text text-anchor="middle" x="109.12" y="-234.5" font-family="Helvetica,sans-Serif" font-size="10.00">Param3</text>
</a>
</g>
</g>
<!-- Node5&#45;&gt;Node3 -->
<g id="edge4_Node000003_Node000005" class="edge">
<title>Node5&#45;&gt;Node3</title>
<g id="a_edge4_Node000003_Node000005"><a xlink:title=" ">
<path fill="none" stroke="#9a32cd" stroke-dasharray="5,2" d="M99.63,-217.51C91.96,-201.77 81.51,-180.32 75.63,-168.24"/>
<polygon fill="#9a32cd" stroke="#9a32cd" points="96.43,-218.93 103.95,-226.39 102.72,-215.86 96.43,-218.93"/>
</a>
</g>
<text text-anchor="middle" x="145.62" y="-200.5" font-family="Helvetica,sans-Serif" font-size="10.00" fill="grey"> m_CommandUID</text>
<text text-anchor="middle" x="145.62" y="-188.5" font-family="Helvetica,sans-Serif" font-size="10.00" fill="grey">m_CommandUIDProne</text>
</g>
<!-- Node6 -->
<g id="Node000006" class="node">
<title>Node6</title>
<g id="a_Node000006"><a xlink:href="../../d5/d02/classstring.html" target="_top" xlink:title=" ">
<polygon fill="white" stroke="#666666" points="187.12,-112 147.12,-112 147.12,-92 187.12,-92 187.12,-112"/>
<text text-anchor="middle" x="167.12" y="-98.5" font-family="Helvetica,sans-Serif" font-size="10.00">string</text>
</a>
</g>
</g>
<!-- Node6&#45;&gt;Node1 -->
<g id="edge5_Node000001_Node000006" class="edge">
<title>Node6&#45;&gt;Node1</title>
<g id="a_edge5_Node000001_Node000006"><a xlink:title=" ">
<path fill="none" stroke="#9a32cd" stroke-dasharray="5,2" d="M156.68,-81.81C146.39,-62.92 131.11,-34.85 123.23,-20.38"/>
<polygon fill="#9a32cd" stroke="#9a32cd" points="153.49,-83.27 161.34,-90.38 159.63,-79.92 153.49,-83.27"/>
</a>
</g>
<text text-anchor="middle" x="195.38" y="-64.5" font-family="Helvetica,sans-Serif" font-size="10.00" fill="grey"> LOCK_VERSION</text>
<text text-anchor="middle" x="195.38" y="-52.5" font-family="Helvetica,sans-Serif" font-size="10.00" fill="grey">UNLOCK_VERSION</text>
<text text-anchor="middle" x="195.38" y="-40.5" font-family="Helvetica,sans-Serif" font-size="10.00" fill="grey">m_Name</text>
</g>
<!-- Node6&#45;&gt;Node6 -->
<g id="edge6_Node000006_Node000006" class="edge">
<title>Node6&#45;&gt;Node6</title>
<g id="a_edge6_Node000006_Node000006"><a xlink:title=" ">
<path fill="none" stroke="#9a32cd" stroke-dasharray="5,2" d="M198.88,-106.51C202.66,-105.69 205.12,-104.18 205.12,-102 205.12,-98.01 196.89,-96.29 187.45,-96.85"/>
<polygon fill="#9a32cd" stroke="#9a32cd" points="198.75,-103.01 188.97,-107.06 199.15,-110 198.75,-103.01"/>
</a>
</g>
<text text-anchor="middle" x="220.88" y="-98.5" font-family="Helvetica,sans-Serif" font-size="10.00" fill="grey"> Empty</text>
</g>
</g>
</svg>
