<?xml version="1.0" encoding="UTF-8" standalone="no"?>
<!DOCTYPE svg PUBLIC "-//W3C//DTD SVG 1.1//EN"
 "http://www.w3.org/Graphics/SVG/1.1/DTD/svg11.dtd">
<!-- Generated by graphviz version 11.0.0 (20240428.1522)
 -->
<!-- Title: Hit_Gravel Pages: 1 -->
<svg width="112pt" height="196pt"
 viewBox="0.00 0.00 111.75 196.00" xmlns="http://www.w3.org/2000/svg" xmlns:xlink="http://www.w3.org/1999/xlink">
<g id="graph0" class="graph" transform="scale(1 1) rotate(0) translate(4 192)">
<title>Hit_Gravel</title>
<!-- Node1 -->
<g id="Node000001" class="node">
<title>Node1</title>
<g id="a_Node000001"><a xlink:title=" ">
<polygon fill="#999999" stroke="#666666" points="82,-20 21.75,-20 21.75,0 82,0 82,-20"/>
<text text-anchor="middle" x="51.88" y="-6.5" font-family="Helvetica,sans-Serif" font-size="10.00">Hit_Gravel</text>
</a>
</g>
</g>
<!-- Node2 -->
<g id="Node000002" class="node">
<title>Node2</title>
<g id="a_Node000002"><a xlink:href="../../d3/d0b/class_eff_bullet_impact_base.html" target="_top" xlink:title=" ">
<polygon fill="white" stroke="#666666" points="103.75,-76 0,-76 0,-56 103.75,-56 103.75,-76"/>
<text text-anchor="middle" x="51.88" y="-62.5" font-family="Helvetica,sans-Serif" font-size="10.00">EffBulletImpactBase</text>
</a>
</g>
</g>
<!-- Node2&#45;&gt;Node1 -->
<g id="edge1_Node000001_Node000002" class="edge">
<title>Node2&#45;&gt;Node1</title>
<g id="a_edge1_Node000001_Node000002"><a xlink:title=" ">
<path fill="none" stroke="#8b1a1a" d="M51.88,-44.13C51.88,-35.9 51.88,-26.85 51.88,-20.3"/>
<polygon fill="#8b1a1a" stroke="#8b1a1a" points="48.38,-44.08 51.88,-54.08 55.38,-44.08 48.38,-44.08"/>
</a>
</g>
</g>
<!-- Node3 -->
<g id="Node000003" class="node">
<title>Node3</title>
<g id="a_Node000003"><a xlink:href="../../de/d07/class_effect_particle.html" target="_top" xlink:title="Wrapper class for managing particles through SEffectManager.">
<polygon fill="white" stroke="#666666" points="88.75,-132 15,-132 15,-112 88.75,-112 88.75,-132"/>
<text text-anchor="middle" x="51.88" y="-118.5" font-family="Helvetica,sans-Serif" font-size="10.00">EffectParticle</text>
</a>
</g>
</g>
<!-- Node3&#45;&gt;Node2 -->
<g id="edge2_Node000002_Node000003" class="edge">
<title>Node3&#45;&gt;Node2</title>
<g id="a_edge2_Node000002_Node000003"><a xlink:title=" ">
<path fill="none" stroke="#8b1a1a" d="M51.88,-100.13C51.88,-91.9 51.88,-82.85 51.88,-76.3"/>
<polygon fill="#8b1a1a" stroke="#8b1a1a" points="48.38,-100.08 51.88,-110.08 55.38,-100.08 48.38,-100.08"/>
</a>
</g>
</g>
<!-- Node4 -->
<g id="Node000004" class="node">
<title>Node4</title>
<g id="a_Node000004"><a xlink:title=" ">
<polygon fill="white" stroke="#666666" points="72.25,-188 31.5,-188 31.5,-168 72.25,-168 72.25,-188"/>
<text text-anchor="middle" x="51.88" y="-174.5" font-family="Helvetica,sans-Serif" font-size="10.00">Effect</text>
</a>
</g>
</g>
<!-- Node4&#45;&gt;Node3 -->
<g id="edge3_Node000003_Node000004" class="edge">
<title>Node4&#45;&gt;Node3</title>
<g id="a_edge3_Node000003_Node000004"><a xlink:title=" ">
<path fill="none" stroke="#8b1a1a" d="M51.88,-156.13C51.88,-147.9 51.88,-138.85 51.88,-132.3"/>
<polygon fill="#8b1a1a" stroke="#8b1a1a" points="48.38,-156.08 51.88,-166.08 55.38,-156.08 48.38,-156.08"/>
</a>
</g>
</g>
</g>
</svg>
