<?xml version="1.0" encoding="UTF-8" standalone="no"?>
<!DOCTYPE svg PUBLIC "-//W3C//DTD SVG 1.1//EN"
 "http://www.w3.org/Graphics/SVG/1.1/DTD/svg11.dtd">
<!-- Generated by graphviz version 11.0.0 (20240428.1522)
 -->
<!-- Title: ComponentBodyStaging Pages: 1 -->
<svg width="1292pt" height="427pt"
 viewBox="0.00 0.00 1291.70 426.91" xmlns="http://www.w3.org/2000/svg" xmlns:xlink="http://www.w3.org/1999/xlink">
<g id="graph0" class="graph" transform="scale(1 1) rotate(0) translate(4 422.91)">
<title>ComponentBodyStaging</title>
<!-- Node1 -->
<g id="Node000001" class="node">
<title>Node1</title>
<g id="a_Node000001"><a xlink:title=" ">
<polygon fill="#999999" stroke="#666666" points="551.95,-20 430.95,-20 430.95,0 551.95,0 551.95,-20"/>
<text text-anchor="middle" x="491.45" y="-6.5" font-family="Helvetica,sans-Serif" font-size="10.00">ComponentBodyStaging</text>
</a>
</g>
</g>
<!-- Node2 -->
<g id="Node000002" class="node">
<title>Node2</title>
<g id="a_Node000002"><a xlink:href="../../d2/d00/class_component.html" target="_top" xlink:title=" ">
<polygon fill="white" stroke="#666666" points="241.2,-77 175.7,-77 175.7,-57 241.2,-57 241.2,-77"/>
<text text-anchor="middle" x="208.45" y="-63.5" font-family="Helvetica,sans-Serif" font-size="10.00">Component</text>
</a>
</g>
</g>
<!-- Node2&#45;&gt;Node1 -->
<g id="edge1_Node000001_Node000002" class="edge">
<title>Node2&#45;&gt;Node1</title>
<g id="a_edge1_Node000001_Node000002"><a xlink:title=" ">
<path fill="none" stroke="#8b1a1a" d="M252.57,-57.43C304.18,-47.4 389.34,-30.85 442.81,-20.45"/>
<polygon fill="#8b1a1a" stroke="#8b1a1a" points="252.1,-53.95 242.96,-59.29 253.44,-60.82 252.1,-53.95"/>
</a>
</g>
</g>
<!-- Node3 -->
<g id="Node000003" class="node">
<title>Node3</title>
<g id="a_Node000003"><a xlink:href="../../d5/d02/classstring.html" target="_top" xlink:title=" ">
<polygon fill="white" stroke="#666666" points="571.45,-417 531.45,-417 531.45,-397 571.45,-397 571.45,-417"/>
<text text-anchor="middle" x="551.45" y="-403.5" font-family="Helvetica,sans-Serif" font-size="10.00">string</text>
</a>
</g>
</g>
<!-- Node3&#45;&gt;Node2 -->
<g id="edge2_Node000002_Node000003" class="edge">
<title>Node3&#45;&gt;Node2</title>
<g id="a_edge2_Node000002_Node000003"><a xlink:title=" ">
<path fill="none" stroke="#9a32cd" stroke-dasharray="5,2" d="M519.95,-406.31C437.5,-405.57 211.79,-393.51 67.45,-289 17.85,-253.09 -19.99,-215.4 11.7,-163 46.85,-104.91 129.04,-81.61 175.3,-72.85"/>
<polygon fill="#9a32cd" stroke="#9a32cd" points="519.74,-409.81 529.75,-406.34 519.76,-402.81 519.74,-409.81"/>
</a>
</g>
<text text-anchor="middle" x="48.83" y="-177.5" font-family="Helvetica,sans-Serif" font-size="10.00" fill="grey"> m_CompNames</text>
</g>
<!-- Node3&#45;&gt;Node3 -->
<g id="edge3_Node000003_Node000003" class="edge">
<title>Node3&#45;&gt;Node3</title>
<g id="a_edge3_Node000003_Node000003"><a xlink:title=" ">
<path fill="none" stroke="#9a32cd" stroke-dasharray="5,2" d="M577.22,-418.91C584.17,-418.28 589.45,-414.31 589.45,-407 589.45,-396.12 577.75,-392.64 566.27,-396.55"/>
<polygon fill="#9a32cd" stroke="#9a32cd" points="578.15,-415.5 567.77,-417.65 577.22,-422.44 578.15,-415.5"/>
</a>
</g>
<text text-anchor="middle" x="605.2" y="-403.5" font-family="Helvetica,sans-Serif" font-size="10.00" fill="grey"> Empty</text>
</g>
<!-- Node5 -->
<g id="Node000005" class="node">
<title>Node5</title>
<g id="a_Node000005"><a xlink:href="../../d2/d01/classarray.html" target="_top" xlink:title="Result for an object found in CGame.IsBoxCollidingGeometryProxy.">
<polygon fill="white" stroke="#666666" points="849.33,-263 811.58,-263 811.58,-243 849.33,-243 849.33,-263"/>
<text text-anchor="middle" x="830.45" y="-249.5" font-family="Helvetica,sans-Serif" font-size="10.00">array</text>
</a>
</g>
</g>
<!-- Node3&#45;&gt;Node5 -->
<g id="edge10_Node000005_Node000003" class="edge">
<title>Node3&#45;&gt;Node5</title>
<g id="a_edge10_Node000005_Node000003"><a xlink:title=" ">
<path fill="none" stroke="#9a32cd" stroke-dasharray="5,2" d="M582.77,-399.49C598.98,-395.24 618.63,-388.65 634.45,-379 673.3,-355.32 669.48,-332.43 707.2,-307 741,-284.21 786.19,-267.81 811.4,-259.72"/>
<polygon fill="#9a32cd" stroke="#9a32cd" points="582.04,-396.07 573.15,-401.83 583.69,-402.87 582.04,-396.07"/>
</a>
</g>
<text text-anchor="middle" x="724.08" y="-339.5" font-family="Helvetica,sans-Serif" font-size="10.00" fill="grey"> m_Test</text>
</g>
<!-- Node10 -->
<g id="Node000010" class="node">
<title>Node10</title>
<g id="a_Node000010"><a xlink:href="../../d2/d01/classarray.html" target="_top" xlink:title=" ">
<polygon fill="white" stroke="#666666" points="962.7,-145 876.2,-145 876.2,-125 962.7,-125 962.7,-145"/>
<text text-anchor="middle" x="919.45" y="-131.5" font-family="Helvetica,sans-Serif" font-size="10.00">array&lt; Widget &gt;</text>
</a>
</g>
</g>
<!-- Node3&#45;&gt;Node10 -->
<g id="edge17_Node000010_Node000003" class="edge">
<title>Node3&#45;&gt;Node10</title>
<g id="a_edge17_Node000010_Node000003"><a xlink:title=" ">
<path fill="none" stroke="#9a32cd" stroke-dasharray="5,2" d="M582.22,-397.59C592.19,-393.48 602.46,-387.51 609.45,-379 656.52,-321.72 616.8,-283.68 649.2,-217 662.52,-189.59 664.89,-177.94 691.45,-163 722.11,-145.75 818.87,-139.45 876.02,-137.21"/>
<polygon fill="#9a32cd" stroke="#9a32cd" points="581.35,-394.19 573.12,-400.86 583.71,-400.78 581.35,-394.19"/>
</a>
</g>
<text text-anchor="middle" x="666.08" y="-249.5" font-family="Helvetica,sans-Serif" font-size="10.00" fill="grey"> m_Test</text>
</g>
<!-- Node12 -->
<g id="Node000012" class="node">
<title>Node12</title>
<g id="a_Node000012"><a xlink:href="../../d4/d0d/class_sound_lookup_table.html" target="_top" xlink:title=" ">
<polygon fill="white" stroke="#666666" points="498.7,-263 400.2,-263 400.2,-243 498.7,-243 498.7,-263"/>
<text text-anchor="middle" x="449.45" y="-249.5" font-family="Helvetica,sans-Serif" font-size="10.00">SoundLookupTable</text>
</a>
</g>
</g>
<!-- Node3&#45;&gt;Node12 -->
<g id="edge23_Node000012_Node000003" class="edge">
<title>Node3&#45;&gt;Node12</title>
<g id="a_edge23_Node000012_Node000003"><a xlink:title=" ">
<path fill="none" stroke="#9a32cd" stroke-dasharray="5,2" d="M523.22,-390.33C518.6,-386.99 514.13,-383.18 510.45,-379 478.24,-342.37 458.89,-285.72 452.15,-263.45"/>
<polygon fill="#9a32cd" stroke="#9a32cd" points="521.15,-393.16 531.43,-395.71 524.98,-387.31 521.15,-393.16"/>
</a>
</g>
<text text-anchor="middle" x="559.95" y="-345.5" font-family="Helvetica,sans-Serif" font-size="10.00" fill="grey"> m_parameterName</text>
<text text-anchor="middle" x="559.95" y="-333.5" font-family="Helvetica,sans-Serif" font-size="10.00" fill="grey">m_tableCategoryName</text>
</g>
<!-- Node4 -->
<g id="Node000004" class="node">
<title>Node4</title>
<g id="a_Node000004"><a xlink:href="../../df/d09/class_entity_a_i.html" target="_top" xlink:title=" ">
<polygon fill="white" stroke="#666666" points="353.7,-145 303.2,-145 303.2,-125 353.7,-125 353.7,-145"/>
<text text-anchor="middle" x="328.45" y="-131.5" font-family="Helvetica,sans-Serif" font-size="10.00">EntityAI</text>
</a>
</g>
</g>
<!-- Node4&#45;&gt;Node2 -->
<g id="edge4_Node000002_Node000004" class="edge">
<title>Node4&#45;&gt;Node2</title>
<g id="a_edge4_Node000002_Node000004"><a xlink:title=" ">
<path fill="none" stroke="#9a32cd" stroke-dasharray="5,2" d="M301.34,-119.09C278.12,-106.32 245.38,-88.31 225.61,-77.44"/>
<polygon fill="#9a32cd" stroke="#9a32cd" points="299.48,-122.06 309.93,-123.81 302.86,-115.93 299.48,-122.06"/>
</a>
</g>
<text text-anchor="middle" x="313.95" y="-97.5" font-family="Helvetica,sans-Serif" font-size="10.00" fill="grey"> m_ThisEntityAI</text>
</g>
<!-- Node5&#45;&gt;Node4 -->
<g id="edge5_Node000004_Node000005" class="edge">
<title>Node5&#45;&gt;Node4</title>
<g id="a_edge5_Node000004_Node000005"><a xlink:title=" ">
<path fill="none" stroke="#9a32cd" stroke-dasharray="5,2" d="M802.9,-237.44C762.86,-217.02 685.67,-180.42 615.45,-163 520.98,-139.57 404.39,-136.15 353.83,-135.87"/>
<polygon fill="#9a32cd" stroke="#9a32cd" points="801.11,-240.45 811.6,-241.93 804.32,-234.23 801.11,-240.45"/>
</a>
</g>
<text text-anchor="middle" x="766.58" y="-189.5" font-family="Helvetica,sans-Serif" font-size="10.00" fill="grey"> m_ContinuousActions</text>
<text text-anchor="middle" x="766.58" y="-177.5" font-family="Helvetica,sans-Serif" font-size="10.00" fill="grey">m_InteractActions</text>
<text text-anchor="middle" x="766.58" y="-165.5" font-family="Helvetica,sans-Serif" font-size="10.00" fill="grey">m_SingleUseActions</text>
</g>
<!-- Node5&#45;&gt;Node5 -->
<g id="edge8_Node000005_Node000005" class="edge">
<title>Node5&#45;&gt;Node5</title>
<g id="a_edge8_Node000005_Node000005"><a xlink:title=" ">
<path fill="none" stroke="#9a32cd" stroke-dasharray="5,2" d="M852.76,-266.49C860.78,-266.78 867.33,-262.29 867.33,-253 867.33,-239.64 853.79,-236.2 841.78,-242.67"/>
<polygon fill="#9a32cd" stroke="#9a32cd" points="853.81,-263.15 843.23,-263.75 851.88,-269.88 853.81,-263.15"/>
</a>
</g>
<text text-anchor="middle" x="888.33" y="-249.5" font-family="Helvetica,sans-Serif" font-size="10.00" fill="grey"> proxyInfo</text>
</g>
<!-- Node5&#45;&gt;Node10 -->
<g id="edge15_Node000010_Node000005" class="edge">
<title>Node5&#45;&gt;Node10</title>
<g id="a_edge15_Node000010_Node000005"><a xlink:title=" ">
<path fill="none" stroke="#9a32cd" stroke-dasharray="5,2" d="M830.12,-231.32C830.89,-211.56 835.03,-182.02 851.45,-163 858.34,-155.02 867.91,-149.38 877.7,-145.39"/>
<polygon fill="#9a32cd" stroke="#9a32cd" points="826.62,-231.15 830.02,-241.18 833.62,-231.22 826.62,-231.15"/>
</a>
</g>
<text text-anchor="middle" x="872.45" y="-177.5" font-family="Helvetica,sans-Serif" font-size="10.00" fill="grey"> proxyInfo</text>
</g>
<!-- Node6 -->
<g id="Node000006" class="node">
<title>Node6</title>
<g id="a_Node000006"><a xlink:href="../../d8/d03/class_object.html" target="_top" xlink:title=" ">
<polygon fill="white" stroke="#666666" points="769.7,-417 725.2,-417 725.2,-397 769.7,-397 769.7,-417"/>
<text text-anchor="middle" x="747.45" y="-403.5" font-family="Helvetica,sans-Serif" font-size="10.00">Object</text>
</a>
</g>
</g>
<!-- Node6&#45;&gt;Node5 -->
<g id="edge6_Node000005_Node000006" class="edge">
<title>Node6&#45;&gt;Node5</title>
<g id="a_edge6_Node000005_Node000006"><a xlink:title=" ">
<path fill="none" stroke="#9a32cd" stroke-dasharray="5,2" d="M746.86,-385.08C747.17,-363.97 750.24,-331.14 764.45,-307 775.86,-287.62 797.21,-272.48 812.54,-263.43"/>
<polygon fill="#9a32cd" stroke="#9a32cd" points="743.35,-385.04 746.93,-395.01 750.35,-384.98 743.35,-385.04"/>
</a>
</g>
<text text-anchor="middle" x="777.95" y="-345.5" font-family="Helvetica,sans-Serif" font-size="10.00" fill="grey"> obj</text>
<text text-anchor="middle" x="777.95" y="-333.5" font-family="Helvetica,sans-Serif" font-size="10.00" fill="grey">parent</text>
</g>
<!-- Node6&#45;&gt;Node10 -->
<g id="edge13_Node000010_Node000006" class="edge">
<title>Node6&#45;&gt;Node10</title>
<g id="a_edge13_Node000010_Node000006"><a xlink:title=" ">
<path fill="none" stroke="#9a32cd" stroke-dasharray="5,2" d="M736.06,-386.68C711.02,-341.45 657.78,-227.63 714.45,-163 735.04,-139.52 822.35,-135.48 876.17,-135.31"/>
<polygon fill="#9a32cd" stroke="#9a32cd" points="732.99,-388.36 740.98,-395.32 739.07,-384.9 732.99,-388.36"/>
</a>
</g>
<text text-anchor="middle" x="708.95" y="-255.5" font-family="Helvetica,sans-Serif" font-size="10.00" fill="grey"> obj</text>
<text text-anchor="middle" x="708.95" y="-243.5" font-family="Helvetica,sans-Serif" font-size="10.00" fill="grey">parent</text>
</g>
<!-- Node7 -->
<g id="Node000007" class="node">
<title>Node7</title>
<g id="a_Node000007"><a xlink:href="../../db/d06/class_param3.html" target="_top" xlink:title=" ">
<polygon fill="white" stroke="#666666" points="930.33,-417 880.58,-417 880.58,-397 930.33,-397 930.33,-417"/>
<text text-anchor="middle" x="905.45" y="-403.5" font-family="Helvetica,sans-Serif" font-size="10.00">Param3</text>
</a>
</g>
</g>
<!-- Node7&#45;&gt;Node5 -->
<g id="edge7_Node000005_Node000007" class="edge">
<title>Node7&#45;&gt;Node5</title>
<g id="a_edge7_Node000005_Node000007"><a xlink:title=" ">
<path fill="none" stroke="#9a32cd" stroke-dasharray="5,2" d="M869.11,-400.69C844.4,-396.25 814.84,-389.02 807.2,-379 780.04,-343.36 810.57,-285.64 824.38,-263.27"/>
<polygon fill="#9a32cd" stroke="#9a32cd" points="868.45,-404.13 878.9,-402.34 869.62,-397.22 868.45,-404.13"/>
</a>
</g>
<text text-anchor="middle" x="864.58" y="-369.5" font-family="Helvetica,sans-Serif" font-size="10.00" fill="grey"> NO_SORTING</text>
<text text-anchor="middle" x="864.58" y="-357.5" font-family="Helvetica,sans-Serif" font-size="10.00" fill="grey">geomLevel</text>
<text text-anchor="middle" x="864.58" y="-345.5" font-family="Helvetica,sans-Serif" font-size="10.00" fill="grey">hierLevel</text>
<text text-anchor="start" x="806.45" y="-333.5" font-family="Helvetica,sans-Serif" font-size="10.00" fill="grey">m_CurrentSettingAlternate</text>
<text text-anchor="middle" x="864.58" y="-321.5" font-family="Helvetica,sans-Serif" font-size="10.00" fill="grey">KeyIndex</text>
<text text-anchor="middle" x="864.58" y="-309.5" font-family="Helvetica,sans-Serif" font-size="10.00" fill="grey">m_CurrentSettingKeyIndex</text>
</g>
<!-- Node7&#45;&gt;Node10 -->
<g id="edge14_Node000010_Node000007" class="edge">
<title>Node7&#45;&gt;Node10</title>
<g id="a_edge14_Node000010_Node000007"><a xlink:title=" ">
<path fill="none" stroke="#9a32cd" stroke-dasharray="5,2" d="M941.65,-402.67C957.16,-399.24 973.89,-392.43 983.45,-379 1001.19,-354.09 1011.27,-209.28 980.45,-163 975.13,-155 966.84,-149.35 958.07,-145.36"/>
<polygon fill="#9a32cd" stroke="#9a32cd" points="941.41,-399.16 932.17,-404.35 942.63,-406.05 941.41,-399.16"/>
</a>
</g>
<text text-anchor="middle" x="1057.58" y="-279.5" font-family="Helvetica,sans-Serif" font-size="10.00" fill="grey"> NO_SORTING</text>
<text text-anchor="middle" x="1057.58" y="-267.5" font-family="Helvetica,sans-Serif" font-size="10.00" fill="grey">geomLevel</text>
<text text-anchor="middle" x="1057.58" y="-255.5" font-family="Helvetica,sans-Serif" font-size="10.00" fill="grey">hierLevel</text>
<text text-anchor="start" x="999.45" y="-243.5" font-family="Helvetica,sans-Serif" font-size="10.00" fill="grey">m_CurrentSettingAlternate</text>
<text text-anchor="middle" x="1057.58" y="-231.5" font-family="Helvetica,sans-Serif" font-size="10.00" fill="grey">KeyIndex</text>
<text text-anchor="middle" x="1057.58" y="-219.5" font-family="Helvetica,sans-Serif" font-size="10.00" fill="grey">m_CurrentSettingKeyIndex</text>
</g>
<!-- Node8 -->
<g id="Node000008" class="node">
<title>Node8</title>
<g id="a_Node000008"><a xlink:href="../../d4/d04/class_class.html" target="_top" xlink:title="Super root of all classes in Enforce script.">
<polygon fill="white" stroke="#666666" points="1230.83,-417 1190.08,-417 1190.08,-397 1230.83,-397 1230.83,-417"/>
<text text-anchor="middle" x="1210.45" y="-403.5" font-family="Helvetica,sans-Serif" font-size="10.00">Class</text>
</a>
</g>
</g>
<!-- Node8&#45;&gt;Node5 -->
<g id="edge9_Node000005_Node000008" class="edge">
<title>Node8&#45;&gt;Node5</title>
<g id="a_edge9_Node000005_Node000008"><a xlink:title=" ">
<path fill="none" stroke="#9a32cd" stroke-dasharray="5,2" d="M1193.1,-389.12C1164.67,-361.52 1110.75,-309.54 1105.45,-307 1052.85,-281.8 1032.76,-299.86 975.45,-289 929.91,-280.37 877.16,-266.7 849.55,-259.25"/>
<polygon fill="#9a32cd" stroke="#9a32cd" points="1190.33,-391.3 1199.94,-395.76 1195.21,-386.28 1190.33,-391.3"/>
</a>
</g>
<text text-anchor="middle" x="1207.08" y="-339.5" font-family="Helvetica,sans-Serif" font-size="10.00" fill="grey"> m_Instance</text>
</g>
<!-- Node8&#45;&gt;Node10 -->
<g id="edge16_Node000010_Node000008" class="edge">
<title>Node8&#45;&gt;Node10</title>
<g id="a_edge16_Node000010_Node000008"><a xlink:title=" ">
<path fill="none" stroke="#9a32cd" stroke-dasharray="5,2" d="M1230.87,-388.38C1233.14,-385.48 1235.11,-382.33 1236.45,-379 1248.42,-349.32 1245.24,-337.77 1236.45,-307 1223.51,-261.7 1213.95,-250.12 1180.45,-217 1147.55,-184.47 1134.91,-178.89 1091.45,-163 1049.44,-147.64 998.52,-141.01 963.03,-138.16"/>
<polygon fill="#9a32cd" stroke="#9a32cd" points="1228.41,-385.89 1224.06,-395.55 1233.48,-390.7 1228.41,-385.89"/>
</a>
</g>
<text text-anchor="middle" x="1257.08" y="-249.5" font-family="Helvetica,sans-Serif" font-size="10.00" fill="grey"> m_Instance</text>
</g>
<!-- Node9 -->
<g id="Node000009" class="node">
<title>Node9</title>
<g id="a_Node000009"><a xlink:href="../../dd/d0a/class_widget.html" target="_top" xlink:title=" ">
<polygon fill="white" stroke="#666666" points="1143.83,-417 1097.08,-417 1097.08,-397 1143.83,-397 1143.83,-417"/>
<text text-anchor="middle" x="1120.45" y="-403.5" font-family="Helvetica,sans-Serif" font-size="10.00">Widget</text>
</a>
</g>
</g>
<!-- Node9&#45;&gt;Node5 -->
<g id="edge11_Node000005_Node000009" class="edge">
<title>Node9&#45;&gt;Node5</title>
<g id="a_edge11_Node000005_Node000009"><a xlink:title=" ">
<path fill="none" stroke="#9a32cd" stroke-dasharray="5,2" d="M1092.67,-391.44C1033.65,-360.5 897.2,-288.98 848.29,-263.35"/>
<polygon fill="#9a32cd" stroke="#9a32cd" points="1090.93,-394.48 1101.41,-396.02 1094.18,-388.28 1090.93,-394.48"/>
</a>
</g>
<text text-anchor="middle" x="1082.83" y="-339.5" font-family="Helvetica,sans-Serif" font-size="10.00" fill="grey"> m_Root</text>
</g>
<!-- Node9&#45;&gt;Node10 -->
<g id="edge18_Node000010_Node000009" class="edge">
<title>Node9&#45;&gt;Node10</title>
<g id="a_edge18_Node000010_Node000009"><a xlink:title=" ">
<path fill="none" stroke="#9a32cd" stroke-dasharray="5,2" d="M1126.82,-386.02C1137.26,-349.22 1153.6,-269.69 1119.45,-217 1085.43,-164.5 1010.68,-146.03 962.83,-139.53"/>
<polygon fill="#9a32cd" stroke="#9a32cd" points="1123.56,-384.72 1124.03,-395.31 1130.26,-386.74 1123.56,-384.72"/>
</a>
</g>
<text text-anchor="middle" x="1157.83" y="-249.5" font-family="Helvetica,sans-Serif" font-size="10.00" fill="grey"> m_Root</text>
</g>
<!-- Node10&#45;&gt;Node5 -->
<g id="edge12_Node000005_Node000010" class="edge">
<title>Node10&#45;&gt;Node5</title>
<g id="a_edge12_Node000005_Node000010"><a xlink:title=" ">
<path fill="none" stroke="#9a32cd" stroke-dasharray="5,2" d="M915.43,-156.41C912.14,-169.46 906.52,-186.27 897.45,-199 884.12,-217.73 862.37,-233.21 847.28,-242.51"/>
<polygon fill="#9a32cd" stroke="#9a32cd" points="918.81,-157.3 917.57,-146.78 911.98,-155.78 918.81,-157.3"/>
</a>
</g>
<text text-anchor="middle" x="944.95" y="-177.5" font-family="Helvetica,sans-Serif" font-size="10.00" fill="grey"> m_Subgroups</text>
</g>
<!-- Node10&#45;&gt;Node10 -->
<g id="edge19_Node000010_Node000010" class="edge">
<title>Node10&#45;&gt;Node10</title>
<g id="a_edge19_Node000010_Node000010"><a xlink:title=" ">
<path fill="none" stroke="#9a32cd" stroke-dasharray="5,2" d="M974.08,-139.76C978.18,-138.7 980.7,-137.11 980.7,-135 980.7,-131.35 973.16,-129.26 962.94,-128.75"/>
<polygon fill="#9a32cd" stroke="#9a32cd" points="973.89,-136.26 964.44,-141.05 974.82,-143.19 973.89,-136.26"/>
</a>
</g>
<text text-anchor="middle" x="1012.2" y="-131.5" font-family="Helvetica,sans-Serif" font-size="10.00" fill="grey"> m_Subgroups</text>
</g>
<!-- Node11 -->
<g id="Node000011" class="node">
<title>Node11</title>
<g id="a_Node000011"><a xlink:href="../../d4/d03/classfloat.html" target="_top" xlink:title=" ">
<polygon fill="white" stroke="#666666" points="110.45,-263 76.45,-263 76.45,-243 110.45,-243 110.45,-263"/>
<text text-anchor="middle" x="93.45" y="-249.5" font-family="Helvetica,sans-Serif" font-size="10.00">float</text>
</a>
</g>
</g>
<!-- Node11&#45;&gt;Node2 -->
<g id="edge26_Node000002_Node000011" class="edge">
<title>Node11&#45;&gt;Node2</title>
<g id="a_edge26_Node000002_Node000011"><a xlink:title=" ">
<path fill="none" stroke="#9a32cd" stroke-dasharray="5,2" d="M89.58,-231.22C87.11,-212.42 86.06,-184.49 96.45,-163 116.33,-121.91 163.17,-91.84 189.54,-77.46"/>
<polygon fill="#9a32cd" stroke="#9a32cd" points="86.12,-231.76 91.16,-241.08 93.04,-230.65 86.12,-231.76"/>
</a>
</g>
<text text-anchor="middle" x="188.2" y="-131.5" font-family="Helvetica,sans-Serif" font-size="10.00" fill="grey"> m_DebugShapeDirectionDist</text>
</g>
<!-- Node11&#45;&gt;Node4 -->
<g id="edge20_Node000004_Node000011" class="edge">
<title>Node11&#45;&gt;Node4</title>
<g id="a_edge20_Node000004_Node000011"><a xlink:title=" ">
<path fill="none" stroke="#9a32cd" stroke-dasharray="5,2" d="M93.76,-231.45C95.26,-210.84 100.98,-179.83 120.95,-163 134.67,-151.44 250.72,-141.65 303.05,-137.77"/>
<polygon fill="#9a32cd" stroke="#9a32cd" points="90.28,-231.06 93.35,-241.2 97.27,-231.36 90.28,-231.06"/>
</a>
</g>
<text text-anchor="middle" x="179.2" y="-183.5" font-family="Helvetica,sans-Serif" font-size="10.00" fill="grey"> SOUND_CONTACT_SKIP</text>
<text text-anchor="middle" x="179.2" y="-171.5" font-family="Helvetica,sans-Serif" font-size="10.00" fill="grey">m_SoundContactTickTime</text>
</g>
<!-- Node11&#45;&gt;Node11 -->
<g id="edge21_Node000011_Node000011" class="edge">
<title>Node11&#45;&gt;Node11</title>
<g id="a_edge21_Node000011_Node000011"><a xlink:title=" ">
<path fill="none" stroke="#9a32cd" stroke-dasharray="5,2" d="M115.13,-266.5C122.51,-266.58 128.45,-262.08 128.45,-253 128.45,-239.64 115.6,-236.2 104.2,-242.67"/>
<polygon fill="#9a32cd" stroke="#9a32cd" points="116.24,-263.17 105.66,-263.75 114.29,-269.9 116.24,-263.17"/>
</a>
</g>
<text text-anchor="middle" x="150.58" y="-261.5" font-family="Helvetica,sans-Serif" font-size="10.00" fill="grey"> LOWEST</text>
<text text-anchor="middle" x="150.58" y="-249.5" font-family="Helvetica,sans-Serif" font-size="10.00" fill="grey">MAX</text>
<text text-anchor="middle" x="150.58" y="-237.5" font-family="Helvetica,sans-Serif" font-size="10.00" fill="grey">MIN</text>
</g>
<!-- Node12&#45;&gt;Node4 -->
<g id="edge22_Node000004_Node000012" class="edge">
<title>Node12&#45;&gt;Node4</title>
<g id="a_edge22_Node000004_Node000012"><a xlink:title=" ">
<path fill="none" stroke="#9a32cd" stroke-dasharray="5,2" d="M435.08,-234.07C427.11,-223.93 417.12,-210.93 408.7,-199 397.72,-183.44 399.77,-175.56 385.45,-163 376.4,-155.06 364.6,-148.96 354.09,-144.58"/>
<polygon fill="#9a32cd" stroke="#9a32cd" points="432.1,-235.95 441.06,-241.61 437.59,-231.6 432.1,-235.95"/>
</a>
</g>
<text text-anchor="middle" x="457.83" y="-177.5" font-family="Helvetica,sans-Serif" font-size="10.00" fill="grey"> m_SoundImpactTable</text>
</g>
<!-- Node13 -->
<g id="Node000013" class="node">
<title>Node13</title>
<g id="a_Node000013"><a xlink:href="../../d9/d09/classbool.html" target="_top" xlink:title=" ">
<polygon fill="white" stroke="#666666" points="568.45,-263 534.45,-263 534.45,-243 568.45,-243 568.45,-263"/>
<text text-anchor="middle" x="551.45" y="-249.5" font-family="Helvetica,sans-Serif" font-size="10.00">bool</text>
</a>
</g>
</g>
<!-- Node13&#45;&gt;Node1 -->
<g id="edge27_Node000001_Node000013" class="edge">
<title>Node13&#45;&gt;Node1</title>
<g id="a_edge27_Node000001_Node000013"><a xlink:title=" ">
<path fill="none" stroke="#9a32cd" stroke-dasharray="5,2" d="M578.46,-236.7C591.63,-227.61 606.18,-214.78 613.45,-199 620.15,-184.47 618.76,-178.09 613.45,-163 591,-99.16 529.17,-42.3 503.19,-20.47"/>
<polygon fill="#9a32cd" stroke="#9a32cd" points="576.59,-233.73 570.07,-242.08 580.37,-239.63 576.59,-233.73"/>
</a>
</g>
<text text-anchor="middle" x="612.08" y="-97.5" font-family="Helvetica,sans-Serif" font-size="10.00" fill="grey"> m_IsSkinned</text>
</g>
<!-- Node13&#45;&gt;Node4 -->
<g id="edge24_Node000004_Node000013" class="edge">
<title>Node13&#45;&gt;Node4</title>
<g id="a_edge24_Node000004_Node000013"><a xlink:title=" ">
<path fill="none" stroke="#9a32cd" stroke-dasharray="5,2" d="M542.46,-232.35C530.91,-207.51 511.64,-167.44 505.45,-163 481.65,-145.92 396.94,-139.35 353.92,-137.08"/>
<polygon fill="#9a32cd" stroke="#9a32cd" points="539.28,-233.81 546.64,-241.42 545.63,-230.88 539.28,-233.81"/>
</a>
</g>
<text text-anchor="middle" x="568.83" y="-183.5" font-family="Helvetica,sans-Serif" font-size="10.00" fill="grey"> m_ActionsInitialize</text>
<text text-anchor="middle" x="568.83" y="-171.5" font-family="Helvetica,sans-Serif" font-size="10.00" fill="grey">m_IsMeleeWeapon</text>
</g>
<!-- Node14 -->
<g id="Node000014" class="node">
<title>Node14</title>
<g id="a_Node000014"><a xlink:href="../../d4/d0d/class_script_invoker.html" target="_top" xlink:title="ScriptInvoker Class provide list of callbacks &#160;&#160;usage:">
<polygon fill="white" stroke="#666666" points="285.2,-263 213.7,-263 213.7,-243 285.2,-243 285.2,-263"/>
<text text-anchor="middle" x="249.45" y="-249.5" font-family="Helvetica,sans-Serif" font-size="10.00">ScriptInvoker</text>
</a>
</g>
</g>
<!-- Node14&#45;&gt;Node4 -->
<g id="edge25_Node000004_Node000014" class="edge">
<title>Node14&#45;&gt;Node4</title>
<g id="a_edge25_Node000004_Node000014"><a xlink:title=" ">
<path fill="none" stroke="#9a32cd" stroke-dasharray="5,2" d="M243.53,-231.66C239.15,-212.16 236.16,-182.84 250.45,-163 262.35,-146.49 285.05,-139.99 302.9,-137.47"/>
<polygon fill="#9a32cd" stroke="#9a32cd" points="240.09,-232.34 245.98,-241.14 246.86,-230.58 240.09,-232.34"/>
</a>
</g>
<text text-anchor="middle" x="317.95" y="-183.5" font-family="Helvetica,sans-Serif" font-size="10.00" fill="grey"> m_OnItemAddedToHands</text>
<text text-anchor="middle" x="317.95" y="-171.5" font-family="Helvetica,sans-Serif" font-size="10.00" fill="grey">m_OnItemRemovedFromHands</text>
</g>
</g>
</svg>
