<?xml version="1.0" encoding="UTF-8" standalone="no"?>
<!DOCTYPE svg PUBLIC "-//W3C//DTD SVG 1.1//EN"
 "http://www.w3.org/Graphics/SVG/1.1/DTD/svg11.dtd">
<!-- Generated by graphviz version 11.0.0 (20240428.1522)
 -->
<!-- Title: ActionTakeArrow Pages: 1 -->
<svg width="116pt" height="252pt"
 viewBox="0.00 0.00 115.50 252.00" xmlns="http://www.w3.org/2000/svg" xmlns:xlink="http://www.w3.org/1999/xlink">

<svg id="main" version="1.1" xmlns="http://www.w3.org/2000/svg" xmlns:xlink="http://www.w3.org/1999/xlink" xml:space="preserve" onload="init(evt)">
<style type="text/css"><![CDATA[
.node, .edge {opacity: 0.7;}
.node.selected, .edge.selected {opacity: 1;}
.edge:hover path { stroke: red; }
.edge:hover polygon { stroke: red; fill: red; }
]]></style>
<script type="application/ecmascript" xlink:href="../../svg.min.js"/>
<svg id="graph" class="graph">
<g id="graph0" class="graph" transform="scale(1 1) rotate(0) translate(4 248)">
<title>ActionTakeArrow</title>
<!-- Node1 -->
<g id="Node000001" class="node">
<title>Node1</title>
<g id="a_Node000001"><a xlink:title=" ">
<polygon fill="#999999" stroke="#666666" points="98.5,-20 9,-20 9,0 98.5,0 98.5,-20"/>
<text text-anchor="middle" x="53.75" y="-6.5" font-family="Helvetica,sans-Serif" font-size="10.00">ActionTakeArrow</text>
</a>
</g>
</g>
<!-- Node2 -->
<g id="Node000002" class="node">
<title>Node2</title>
<g id="a_Node000002"><a xlink:href="../../da/d0f/class_action_take_item.html" target="_top" xlink:title=" ">
<polygon fill="white" stroke="#666666" points="95.5,-76 12,-76 12,-56 95.5,-56 95.5,-76"/>
<text text-anchor="middle" x="53.75" y="-62.5" font-family="Helvetica,sans-Serif" font-size="10.00">ActionTakeItem</text>
</a>
</g>
</g>
<!-- Node2&#45;&gt;Node1 -->
<g id="edge1_Node000001_Node000002" class="edge">
<title>Node2&#45;&gt;Node1</title>
<g id="a_edge1_Node000001_Node000002"><a xlink:title=" ">
<path fill="none" stroke="#8b1a1a" d="M53.75,-44.13C53.75,-35.9 53.75,-26.85 53.75,-20.3"/>
<polygon fill="#8b1a1a" stroke="#8b1a1a" points="50.25,-44.08 53.75,-54.08 57.25,-44.08 50.25,-44.08"/>
</a>
</g>
</g>
<!-- Node3 -->
<g id="Node000003" class="node">
<title>Node3</title>
<g id="a_Node000003"><a xlink:href="../../d0/d0b/class_action_interact_base.html" target="_top" xlink:title=" ">
<polygon fill="white" stroke="#666666" points="103,-132 4.5,-132 4.5,-112 103,-112 103,-132"/>
<text text-anchor="middle" x="53.75" y="-118.5" font-family="Helvetica,sans-Serif" font-size="10.00">ActionInteractBase</text>
</a>
</g>
</g>
<!-- Node3&#45;&gt;Node2 -->
<g id="edge2_Node000002_Node000003" class="edge">
<title>Node3&#45;&gt;Node2</title>
<g id="a_edge2_Node000002_Node000003"><a xlink:title=" ">
<path fill="none" stroke="#8b1a1a" d="M53.75,-100.13C53.75,-91.9 53.75,-82.85 53.75,-76.3"/>
<polygon fill="#8b1a1a" stroke="#8b1a1a" points="50.25,-100.08 53.75,-110.08 57.25,-100.08 50.25,-100.08"/>
</a>
</g>
</g>
<!-- Node4 -->
<g id="Node000004" class="node">
<title>Node4</title>
<g id="a_Node000004"><a xlink:href="../../d7/d04/class_animated_action_base.html" target="_top" xlink:title=" ">
<polygon fill="white" stroke="#666666" points="107.5,-188 0,-188 0,-168 107.5,-168 107.5,-188"/>
<text text-anchor="middle" x="53.75" y="-174.5" font-family="Helvetica,sans-Serif" font-size="10.00">AnimatedActionBase</text>
</a>
</g>
</g>
<!-- Node4&#45;&gt;Node3 -->
<g id="edge3_Node000003_Node000004" class="edge">
<title>Node4&#45;&gt;Node3</title>
<g id="a_edge3_Node000003_Node000004"><a xlink:title=" ">
<path fill="none" stroke="#8b1a1a" d="M53.75,-156.13C53.75,-147.9 53.75,-138.85 53.75,-132.3"/>
<polygon fill="#8b1a1a" stroke="#8b1a1a" points="50.25,-156.08 53.75,-166.08 57.25,-156.08 50.25,-156.08"/>
</a>
</g>
</g>
<!-- Node5 -->
<g id="Node000005" class="node">
<title>Node5</title>
<g id="a_Node000005"><a xlink:title=" ">
<polygon fill="white" stroke="#666666" points="86.88,-244 20.62,-244 20.62,-224 86.88,-224 86.88,-244"/>
<text text-anchor="middle" x="53.75" y="-230.5" font-family="Helvetica,sans-Serif" font-size="10.00">ActionBase</text>
</a>
</g>
</g>
<!-- Node5&#45;&gt;Node4 -->
<g id="edge4_Node000004_Node000005" class="edge">
<title>Node5&#45;&gt;Node4</title>
<g id="a_edge4_Node000004_Node000005"><a xlink:title=" ">
<path fill="none" stroke="#8b1a1a" d="M53.75,-212.13C53.75,-203.9 53.75,-194.85 53.75,-188.3"/>
<polygon fill="#8b1a1a" stroke="#8b1a1a" points="50.25,-212.08 53.75,-222.08 57.25,-212.08 50.25,-212.08"/>
</a>
</g>
</g>
</g>
</svg>
</svg>

<style type='text/css'>
<![CDATA[
[data-mouse-over-selected='false'] { opacity: 0.7; }
[data-mouse-over-selected='true']  { opacity: 1.0; }
]]>
</style>
<script type="application/ecmascript"><![CDATA[
document.addEventListener('DOMContentLoaded', (event) => {
  highlightEdges();
  highlightAdjacentNodes();
});
]]></script>
</svg>
