<?xml version="1.0" encoding="UTF-8" standalone="no"?>
<!DOCTYPE svg PUBLIC "-//W3C//DTD SVG 1.1//EN"
 "http://www.w3.org/Graphics/SVG/1.1/DTD/svg11.dtd">
<!-- Generated by graphviz version 11.0.0 (20240428.1522)
 -->
<!-- Title: AmanitaMushroom Pages: 1 -->
<svg width="106pt" height="196pt"
 viewBox="0.00 0.00 105.75 196.00" xmlns="http://www.w3.org/2000/svg" xmlns:xlink="http://www.w3.org/1999/xlink">
<g id="graph0" class="graph" transform="scale(1 1) rotate(0) translate(4 192)">
<title>AmanitaMushroom</title>
<!-- Node1 -->
<g id="Node000001" class="node">
<title>Node1</title>
<g id="a_Node000001"><a xlink:title=" ">
<polygon fill="#999999" stroke="#666666" points="97.75,-20 0,-20 0,0 97.75,0 97.75,-20"/>
<text text-anchor="middle" x="48.88" y="-6.5" font-family="Helvetica,sans-Serif" font-size="10.00">AmanitaMushroom</text>
</a>
</g>
</g>
<!-- Node2 -->
<g id="Node000002" class="node">
<title>Node2</title>
<g id="a_Node000002"><a xlink:href="../../d5/d0a/class_mushroom_base.html" target="_top" xlink:title=" ">
<polygon fill="white" stroke="#666666" points="91,-76 6.75,-76 6.75,-56 91,-56 91,-76"/>
<text text-anchor="middle" x="48.88" y="-62.5" font-family="Helvetica,sans-Serif" font-size="10.00">MushroomBase</text>
</a>
</g>
</g>
<!-- Node2&#45;&gt;Node1 -->
<g id="edge1_Node000001_Node000002" class="edge">
<title>Node2&#45;&gt;Node1</title>
<g id="a_edge1_Node000001_Node000002"><a xlink:title=" ">
<path fill="none" stroke="#8b1a1a" d="M48.88,-44.13C48.88,-35.9 48.88,-26.85 48.88,-20.3"/>
<polygon fill="#8b1a1a" stroke="#8b1a1a" points="45.38,-44.08 48.88,-54.08 52.38,-44.08 45.38,-44.08"/>
</a>
</g>
</g>
<!-- Node3 -->
<g id="Node000003" class="node">
<title>Node3</title>
<g id="a_Node000003"><a xlink:href="../../df/d0c/class_edible___base.html" target="_top" xlink:title=" ">
<polygon fill="white" stroke="#666666" points="84.25,-132 13.5,-132 13.5,-112 84.25,-112 84.25,-132"/>
<text text-anchor="middle" x="48.88" y="-118.5" font-family="Helvetica,sans-Serif" font-size="10.00">Edible_Base</text>
</a>
</g>
</g>
<!-- Node3&#45;&gt;Node2 -->
<g id="edge2_Node000002_Node000003" class="edge">
<title>Node3&#45;&gt;Node2</title>
<g id="a_edge2_Node000002_Node000003"><a xlink:title=" ">
<path fill="none" stroke="#8b1a1a" d="M48.88,-100.13C48.88,-91.9 48.88,-82.85 48.88,-76.3"/>
<polygon fill="#8b1a1a" stroke="#8b1a1a" points="45.38,-100.08 48.88,-110.08 52.38,-100.08 45.38,-100.08"/>
</a>
</g>
</g>
<!-- Node4 -->
<g id="Node000004" class="node">
<title>Node4</title>
<g id="a_Node000004"><a xlink:href="../../de/d0a/class_item_base.html" target="_top" xlink:title=" ">
<polygon fill="white" stroke="#666666" points="77.5,-188 20.25,-188 20.25,-168 77.5,-168 77.5,-188"/>
<text text-anchor="middle" x="48.88" y="-174.5" font-family="Helvetica,sans-Serif" font-size="10.00">ItemBase</text>
</a>
</g>
</g>
<!-- Node4&#45;&gt;Node3 -->
<g id="edge3_Node000003_Node000004" class="edge">
<title>Node4&#45;&gt;Node3</title>
<g id="a_edge3_Node000003_Node000004"><a xlink:title=" ">
<path fill="none" stroke="#8b1a1a" d="M48.88,-156.13C48.88,-147.9 48.88,-138.85 48.88,-132.3"/>
<polygon fill="#8b1a1a" stroke="#8b1a1a" points="45.38,-156.08 48.88,-166.08 52.38,-156.08 45.38,-156.08"/>
</a>
</g>
</g>
</g>
</svg>
