<?xml version="1.0" encoding="UTF-8" standalone="no"?>
<!DOCTYPE svg PUBLIC "-//W3C//DTD SVG 1.1//EN"
 "http://www.w3.org/Graphics/SVG/1.1/DTD/svg11.dtd">
<!-- Generated by graphviz version 11.0.0 (20240428.1522)
 -->
<!-- Title: GetFirstServerWithEmptySlotResult Pages: 1 -->
<svg width="711pt" height="358pt"
 viewBox="0.00 0.00 711.12 357.91" xmlns="http://www.w3.org/2000/svg" xmlns:xlink="http://www.w3.org/1999/xlink">
<g id="graph0" class="graph" transform="scale(1 1) rotate(0) translate(4 353.91)">
<title>GetFirstServerWithEmptySlotResult</title>
<!-- Node1 -->
<g id="Node000001" class="node">
<title>Node1</title>
<g id="a_Node000001"><a xlink:title=" ">
<polygon fill="#999999" stroke="#666666" points="218.74,-32 74.49,-32 74.49,0 218.74,0 218.74,-32"/>
<text text-anchor="start" x="82.49" y="-18.5" font-family="Helvetica,sans-Serif" font-size="10.00">GetFirstServerWithEmptySlot</text>
<text text-anchor="middle" x="146.62" y="-6.5" font-family="Helvetica,sans-Serif" font-size="10.00">Result</text>
</a>
</g>
</g>
<!-- Node2 -->
<g id="Node000002" class="node">
<title>Node2</title>
<g id="a_Node000002"><a xlink:href="../../dc/d0a/class_get_servers_result.html" target="_top" xlink:title="GetServersResult the output structure of the GetServers operation.">
<polygon fill="white" stroke="#666666" points="192.49,-100 100.74,-100 100.74,-80 192.49,-80 192.49,-100"/>
<text text-anchor="middle" x="146.62" y="-86.5" font-family="Helvetica,sans-Serif" font-size="10.00">GetServersResult</text>
</a>
</g>
</g>
<!-- Node2&#45;&gt;Node1 -->
<g id="edge1_Node000001_Node000002" class="edge">
<title>Node2&#45;&gt;Node1</title>
<g id="a_edge1_Node000001_Node000002"><a xlink:title=" ">
<path fill="none" stroke="#9a32cd" stroke-dasharray="5,2" d="M146.62,-68.1C146.62,-56.71 146.62,-42.87 146.62,-32.47"/>
<polygon fill="#9a32cd" stroke="#9a32cd" points="143.12,-68.07 146.62,-78.07 150.12,-68.07 143.12,-68.07"/>
</a>
</g>
<text text-anchor="middle" x="168.74" y="-52.5" font-family="Helvetica,sans-Serif" font-size="10.00" fill="grey"> m_Result</text>
</g>
<!-- Node3 -->
<g id="Node000003" class="node">
<title>Node3</title>
<g id="a_Node000003"><a xlink:href="../../db/d06/class_param3.html" target="_top" xlink:title=" ">
<polygon fill="white" stroke="#666666" points="127.49,-348 77.74,-348 77.74,-328 127.49,-328 127.49,-348"/>
<text text-anchor="middle" x="102.62" y="-334.5" font-family="Helvetica,sans-Serif" font-size="10.00">Param3</text>
</a>
</g>
</g>
<!-- Node3&#45;&gt;Node2 -->
<g id="edge2_Node000002_Node000003" class="edge">
<title>Node3&#45;&gt;Node2</title>
<g id="a_edge2_Node000002_Node000003"><a xlink:title=" ">
<path fill="none" stroke="#9a32cd" stroke-dasharray="5,2" d="M83.15,-320.23C46.04,-286.22 -27.72,-207.31 11.62,-148 31.24,-118.42 69.56,-104.16 100.38,-97.29"/>
<polygon fill="#9a32cd" stroke="#9a32cd" points="80.78,-322.81 90.57,-326.86 85.44,-317.59 80.78,-322.81"/>
</a>
</g>
<text text-anchor="middle" x="46.12" y="-192.5" font-family="Helvetica,sans-Serif" font-size="10.00" fill="grey"> m_NumServers</text>
<text text-anchor="middle" x="46.12" y="-180.5" font-family="Helvetica,sans-Serif" font-size="10.00" fill="grey">m_Page</text>
<text text-anchor="middle" x="46.12" y="-168.5" font-family="Helvetica,sans-Serif" font-size="10.00" fill="grey">m_Pages</text>
</g>
<!-- Node4 -->
<g id="Node000004" class="node">
<title>Node4</title>
<g id="a_Node000004"><a xlink:href="../../d2/d01/classarray.html" target="_top" xlink:title="Result for an object found in CGame.IsBoxCollidingGeometryProxy.">
<polygon fill="white" stroke="#666666" points="387.49,-194 349.74,-194 349.74,-174 387.49,-174 387.49,-194"/>
<text text-anchor="middle" x="368.62" y="-180.5" font-family="Helvetica,sans-Serif" font-size="10.00">array</text>
</a>
</g>
</g>
<!-- Node3&#45;&gt;Node4 -->
<g id="edge5_Node000004_Node000003" class="edge">
<title>Node3&#45;&gt;Node4</title>
<g id="a_edge5_Node000004_Node000003"><a xlink:title=" ">
<path fill="none" stroke="#9a32cd" stroke-dasharray="5,2" d="M110.36,-317.37C120.6,-294.23 140.97,-256.58 171.37,-238 222.74,-206.61 248.48,-238.95 305.62,-220 323.91,-213.94 342.99,-202.5 355.3,-194.35"/>
<polygon fill="#9a32cd" stroke="#9a32cd" points="107.26,-315.72 106.63,-326.29 113.72,-318.42 107.26,-315.72"/>
</a>
</g>
<text text-anchor="middle" x="229.74" y="-300.5" font-family="Helvetica,sans-Serif" font-size="10.00" fill="grey"> NO_SORTING</text>
<text text-anchor="middle" x="229.74" y="-288.5" font-family="Helvetica,sans-Serif" font-size="10.00" fill="grey">geomLevel</text>
<text text-anchor="middle" x="229.74" y="-276.5" font-family="Helvetica,sans-Serif" font-size="10.00" fill="grey">hierLevel</text>
<text text-anchor="start" x="171.62" y="-264.5" font-family="Helvetica,sans-Serif" font-size="10.00" fill="grey">m_CurrentSettingAlternate</text>
<text text-anchor="middle" x="229.74" y="-252.5" font-family="Helvetica,sans-Serif" font-size="10.00" fill="grey">KeyIndex</text>
<text text-anchor="middle" x="229.74" y="-240.5" font-family="Helvetica,sans-Serif" font-size="10.00" fill="grey">m_CurrentSettingKeyIndex</text>
</g>
<!-- Node9 -->
<g id="Node000009" class="node">
<title>Node9</title>
<g id="a_Node000009"><a xlink:href="../../d2/d01/classarray.html" target="_top" xlink:title=" ">
<polygon fill="white" stroke="#666666" points="476.87,-100 390.37,-100 390.37,-80 476.87,-80 476.87,-100"/>
<text text-anchor="middle" x="433.62" y="-86.5" font-family="Helvetica,sans-Serif" font-size="10.00">array&lt; Widget &gt;</text>
</a>
</g>
</g>
<!-- Node3&#45;&gt;Node9 -->
<g id="edge13_Node000009_Node000003" class="edge">
<title>Node3&#45;&gt;Node9</title>
<g id="a_edge13_Node000009_Node000003"><a xlink:title=" ">
<path fill="none" stroke="#9a32cd" stroke-dasharray="5,2" d="M98.93,-316.32C93.34,-277.71 87.56,-194.4 131.37,-148 166.1,-111.21 315.03,-97.65 390.06,-93.09"/>
<polygon fill="#9a32cd" stroke="#9a32cd" points="95.46,-316.77 100.51,-326.08 102.37,-315.65 95.46,-316.77"/>
</a>
</g>
<text text-anchor="middle" x="189.74" y="-210.5" font-family="Helvetica,sans-Serif" font-size="10.00" fill="grey"> NO_SORTING</text>
<text text-anchor="middle" x="189.74" y="-198.5" font-family="Helvetica,sans-Serif" font-size="10.00" fill="grey">geomLevel</text>
<text text-anchor="middle" x="189.74" y="-186.5" font-family="Helvetica,sans-Serif" font-size="10.00" fill="grey">hierLevel</text>
<text text-anchor="start" x="131.62" y="-174.5" font-family="Helvetica,sans-Serif" font-size="10.00" fill="grey">m_CurrentSettingAlternate</text>
<text text-anchor="middle" x="189.74" y="-162.5" font-family="Helvetica,sans-Serif" font-size="10.00" fill="grey">KeyIndex</text>
<text text-anchor="middle" x="189.74" y="-150.5" font-family="Helvetica,sans-Serif" font-size="10.00" fill="grey">m_CurrentSettingKeyIndex</text>
</g>
<!-- Node4&#45;&gt;Node2 -->
<g id="edge3_Node000002_Node000004" class="edge">
<title>Node4&#45;&gt;Node2</title>
<g id="a_edge3_Node000002_Node000004"><a xlink:title=" ">
<path fill="none" stroke="#9a32cd" stroke-dasharray="5,2" d="M343.76,-167.96C332.36,-161.38 318.53,-153.85 305.62,-148 262.35,-128.38 210.17,-110.77 177.69,-100.48"/>
<polygon fill="#9a32cd" stroke="#9a32cd" points="341.75,-170.84 352.14,-172.88 345.29,-164.8 341.75,-170.84"/>
</a>
</g>
<text text-anchor="middle" x="283.37" y="-120.5" font-family="Helvetica,sans-Serif" font-size="10.00" fill="grey"> m_Results</text>
</g>
<!-- Node4&#45;&gt;Node4 -->
<g id="edge6_Node000004_Node000004" class="edge">
<title>Node4&#45;&gt;Node4</title>
<g id="a_edge6_Node000004_Node000004"><a xlink:title=" ">
<path fill="none" stroke="#9a32cd" stroke-dasharray="5,2" d="M396.64,-194.66C401.84,-193.34 405.49,-189.78 405.49,-184 405.49,-174.51 395.65,-171.02 385.31,-173.54"/>
<polygon fill="#9a32cd" stroke="#9a32cd" points="396.88,-191.17 386.82,-194.48 396.75,-198.16 396.88,-191.17"/>
</a>
</g>
<text text-anchor="middle" x="426.49" y="-180.5" font-family="Helvetica,sans-Serif" font-size="10.00" fill="grey"> proxyInfo</text>
</g>
<!-- Node4&#45;&gt;Node9 -->
<g id="edge14_Node000009_Node000004" class="edge">
<title>Node4&#45;&gt;Node9</title>
<g id="a_edge14_Node000009_Node000004"><a xlink:title=" ">
<path fill="none" stroke="#9a32cd" stroke-dasharray="5,2" d="M361.8,-162.89C358.45,-149.09 356.79,-131.01 365.62,-118 371.47,-109.38 380.55,-103.52 390.19,-99.52"/>
<polygon fill="#9a32cd" stroke="#9a32cd" points="358.36,-163.6 364.54,-172.21 365.08,-161.63 358.36,-163.6"/>
</a>
</g>
<text text-anchor="middle" x="386.62" y="-120.5" font-family="Helvetica,sans-Serif" font-size="10.00" fill="grey"> proxyInfo</text>
</g>
<!-- Node5 -->
<g id="Node000005" class="node">
<title>Node5</title>
<g id="a_Node000005"><a xlink:href="../../d8/d03/class_object.html" target="_top" xlink:title=" ">
<polygon fill="white" stroke="#666666" points="518.87,-348 474.37,-348 474.37,-328 518.87,-328 518.87,-348"/>
<text text-anchor="middle" x="496.62" y="-334.5" font-family="Helvetica,sans-Serif" font-size="10.00">Object</text>
</a>
</g>
</g>
<!-- Node5&#45;&gt;Node4 -->
<g id="edge4_Node000004_Node000005" class="edge">
<title>Node5&#45;&gt;Node4</title>
<g id="a_edge4_Node000004_Node000005"><a xlink:title=" ">
<path fill="none" stroke="#9a32cd" stroke-dasharray="5,2" d="M483.88,-318.23C469.74,-297.82 445.83,-264.55 422.62,-238 408.44,-221.78 390.27,-204.59 379.04,-194.33"/>
<polygon fill="#9a32cd" stroke="#9a32cd" points="480.93,-320.12 489.48,-326.38 486.7,-316.16 480.93,-320.12"/>
</a>
</g>
<text text-anchor="middle" x="491.12" y="-276.5" font-family="Helvetica,sans-Serif" font-size="10.00" fill="grey"> obj</text>
<text text-anchor="middle" x="491.12" y="-264.5" font-family="Helvetica,sans-Serif" font-size="10.00" fill="grey">parent</text>
</g>
<!-- Node5&#45;&gt;Node9 -->
<g id="edge12_Node000009_Node000005" class="edge">
<title>Node5&#45;&gt;Node9</title>
<g id="a_edge12_Node000009_Node000005"><a xlink:title=" ">
<path fill="none" stroke="#9a32cd" stroke-dasharray="5,2" d="M511.31,-318.68C537.53,-283.58 586.69,-205.26 553.62,-148 537.87,-120.74 504.8,-106.34 477.36,-98.84"/>
<polygon fill="#9a32cd" stroke="#9a32cd" points="508.57,-316.49 505.24,-326.55 514.12,-320.77 508.57,-316.49"/>
</a>
</g>
<text text-anchor="middle" x="578.12" y="-186.5" font-family="Helvetica,sans-Serif" font-size="10.00" fill="grey"> obj</text>
<text text-anchor="middle" x="578.12" y="-174.5" font-family="Helvetica,sans-Serif" font-size="10.00" fill="grey">parent</text>
</g>
<!-- Node6 -->
<g id="Node000006" class="node">
<title>Node6</title>
<g id="a_Node000006"><a xlink:href="../../d4/d04/class_class.html" target="_top" xlink:title="Super root of all classes in Enforce script.">
<polygon fill="white" stroke="#666666" points="421.99,-348 381.24,-348 381.24,-328 421.99,-328 421.99,-348"/>
<text text-anchor="middle" x="401.62" y="-334.5" font-family="Helvetica,sans-Serif" font-size="10.00">Class</text>
</a>
</g>
</g>
<!-- Node6&#45;&gt;Node4 -->
<g id="edge7_Node000004_Node000006" class="edge">
<title>Node6&#45;&gt;Node4</title>
<g id="a_edge7_Node000004_Node000006"><a xlink:title=" ">
<path fill="none" stroke="#9a32cd" stroke-dasharray="5,2" d="M376.46,-320.03C373.61,-317.04 371.1,-313.68 369.37,-310 350.79,-270.53 360.93,-215.98 366.14,-194.36"/>
<polygon fill="#9a32cd" stroke="#9a32cd" points="374.12,-322.63 383.97,-326.53 378.7,-317.34 374.12,-322.63"/>
</a>
</g>
<text text-anchor="middle" x="395.24" y="-270.5" font-family="Helvetica,sans-Serif" font-size="10.00" fill="grey"> m_Instance</text>
</g>
<!-- Node6&#45;&gt;Node9 -->
<g id="edge15_Node000009_Node000006" class="edge">
<title>Node6&#45;&gt;Node9</title>
<g id="a_edge15_Node000009_Node000006"><a xlink:title=" ">
<path fill="none" stroke="#9a32cd" stroke-dasharray="5,2" d="M433.33,-332.76C447.63,-329.15 463.36,-322.44 472.62,-310 498.15,-275.69 507.82,-154.55 485.62,-118 480.87,-110.18 473.03,-104.52 464.86,-100.47"/>
<polygon fill="#9a32cd" stroke="#9a32cd" points="432.87,-329.28 423.8,-334.75 434.3,-336.14 432.87,-329.28"/>
</a>
</g>
<text text-anchor="middle" x="524.24" y="-180.5" font-family="Helvetica,sans-Serif" font-size="10.00" fill="grey"> m_Instance</text>
</g>
<!-- Node7 -->
<g id="Node000007" class="node">
<title>Node7</title>
<g id="a_Node000007"><a xlink:href="../../d5/d02/classstring.html" target="_top" xlink:title=" ">
<polygon fill="white" stroke="#666666" points="653.62,-348 613.62,-348 613.62,-328 653.62,-328 653.62,-348"/>
<text text-anchor="middle" x="633.62" y="-334.5" font-family="Helvetica,sans-Serif" font-size="10.00">string</text>
</a>
</g>
</g>
<!-- Node7&#45;&gt;Node4 -->
<g id="edge8_Node000004_Node000007" class="edge">
<title>Node7&#45;&gt;Node4</title>
<g id="a_edge8_Node000004_Node000007"><a xlink:title=" ">
<path fill="none" stroke="#9a32cd" stroke-dasharray="5,2" d="M615.87,-319.99C592.73,-298.54 550.29,-261.63 508.62,-238 497.71,-231.81 423.68,-204.83 387.9,-191.93"/>
<polygon fill="#9a32cd" stroke="#9a32cd" points="613.23,-322.31 622.91,-326.61 618.02,-317.21 613.23,-322.31"/>
</a>
</g>
<text text-anchor="middle" x="619.24" y="-270.5" font-family="Helvetica,sans-Serif" font-size="10.00" fill="grey"> m_Test</text>
</g>
<!-- Node7&#45;&gt;Node7 -->
<g id="edge9_Node000007_Node000007" class="edge">
<title>Node7&#45;&gt;Node7</title>
<g id="a_edge9_Node000007_Node000007"><a xlink:title=" ">
<path fill="none" stroke="#9a32cd" stroke-dasharray="5,2" d="M659.39,-349.91C666.34,-349.28 671.62,-345.31 671.62,-338 671.62,-327.12 659.92,-323.64 648.44,-327.55"/>
<polygon fill="#9a32cd" stroke="#9a32cd" points="660.32,-346.5 649.94,-348.65 659.39,-353.44 660.32,-346.5"/>
</a>
</g>
<text text-anchor="middle" x="687.37" y="-334.5" font-family="Helvetica,sans-Serif" font-size="10.00" fill="grey"> Empty</text>
</g>
<!-- Node7&#45;&gt;Node9 -->
<g id="edge16_Node000009_Node000007" class="edge">
<title>Node7&#45;&gt;Node9</title>
<g id="a_edge16_Node000009_Node000007"><a xlink:title=" ">
<path fill="none" stroke="#9a32cd" stroke-dasharray="5,2" d="M639.5,-316.55C639.96,-314.35 640.35,-312.14 640.62,-310 644.67,-278.26 647.97,-269.14 640.62,-238 630.34,-194.47 626.15,-180.68 595.62,-148 564.79,-114.99 513.71,-101.09 477.15,-95.24"/>
<polygon fill="#9a32cd" stroke="#9a32cd" points="636.13,-315.6 637.05,-326.15 642.91,-317.33 636.13,-315.6"/>
</a>
</g>
<text text-anchor="middle" x="653.24" y="-180.5" font-family="Helvetica,sans-Serif" font-size="10.00" fill="grey"> m_Test</text>
</g>
<!-- Node8 -->
<g id="Node000008" class="node">
<title>Node8</title>
<g id="a_Node000008"><a xlink:href="../../dd/d0a/class_widget.html" target="_top" xlink:title=" ">
<polygon fill="white" stroke="#666666" points="308.99,-348 262.24,-348 262.24,-328 308.99,-328 308.99,-348"/>
<text text-anchor="middle" x="285.62" y="-334.5" font-family="Helvetica,sans-Serif" font-size="10.00">Widget</text>
</a>
</g>
</g>
<!-- Node8&#45;&gt;Node4 -->
<g id="edge10_Node000004_Node000008" class="edge">
<title>Node8&#45;&gt;Node4</title>
<g id="a_edge10_Node000004_Node000008"><a xlink:title=" ">
<path fill="none" stroke="#9a32cd" stroke-dasharray="5,2" d="M289.44,-316.7C293.98,-295.86 302.89,-263.04 317.87,-238 328.34,-220.51 345.54,-204.18 356.98,-194.39"/>
<polygon fill="#9a32cd" stroke="#9a32cd" points="286.07,-315.71 287.51,-326.2 292.93,-317.1 286.07,-315.71"/>
</a>
</g>
<text text-anchor="middle" x="336.99" y="-270.5" font-family="Helvetica,sans-Serif" font-size="10.00" fill="grey"> m_Root</text>
</g>
<!-- Node8&#45;&gt;Node9 -->
<g id="edge17_Node000009_Node000008" class="edge">
<title>Node8&#45;&gt;Node9</title>
<g id="a_edge17_Node000009_Node000008"><a xlink:title=" ">
<path fill="none" stroke="#9a32cd" stroke-dasharray="5,2" d="M276.95,-317.2C259.98,-275.04 228.08,-175.59 276.62,-118 290.88,-101.08 348.64,-94.76 389.96,-92.41"/>
<polygon fill="#9a32cd" stroke="#9a32cd" points="273.67,-318.43 280.77,-326.3 280.13,-315.73 273.67,-318.43"/>
</a>
</g>
<text text-anchor="middle" x="277.99" y="-180.5" font-family="Helvetica,sans-Serif" font-size="10.00" fill="grey"> m_Root</text>
</g>
<!-- Node9&#45;&gt;Node4 -->
<g id="edge11_Node000004_Node000009" class="edge">
<title>Node9&#45;&gt;Node4</title>
<g id="a_edge11_Node000004_Node000009"><a xlink:title=" ">
<path fill="none" stroke="#9a32cd" stroke-dasharray="5,2" d="M423.65,-110.16C420.08,-116.6 415.88,-123.74 411.62,-130 400.69,-146.06 386.11,-163.3 377.05,-173.61"/>
<polygon fill="#9a32cd" stroke="#9a32cd" points="426.61,-112.04 428.25,-101.58 420.44,-108.74 426.61,-112.04"/>
</a>
</g>
<text text-anchor="middle" x="450.12" y="-120.5" font-family="Helvetica,sans-Serif" font-size="10.00" fill="grey"> m_Subgroups</text>
</g>
<!-- Node9&#45;&gt;Node9 -->
<g id="edge18_Node000009_Node000009" class="edge">
<title>Node9&#45;&gt;Node9</title>
<g id="a_edge18_Node000009_Node000009"><a xlink:title=" ">
<path fill="none" stroke="#9a32cd" stroke-dasharray="5,2" d="M488.25,-94.76C492.35,-93.7 494.87,-92.11 494.87,-90 494.87,-86.35 487.33,-84.26 477.11,-83.75"/>
<polygon fill="#9a32cd" stroke="#9a32cd" points="488.06,-91.26 478.61,-96.05 488.99,-98.19 488.06,-91.26"/>
</a>
</g>
<text text-anchor="middle" x="526.37" y="-86.5" font-family="Helvetica,sans-Serif" font-size="10.00" fill="grey"> m_Subgroups</text>
</g>
</g>
</svg>
