<?xml version="1.0" encoding="UTF-8" standalone="no"?>
<!DOCTYPE svg PUBLIC "-//W3C//DTD SVG 1.1//EN"
 "http://www.w3.org/Graphics/SVG/1.1/DTD/svg11.dtd">
<!-- Generated by graphviz version 11.0.0 (20240428.1522)
 -->
<!-- Title: PluginDayzPlayerDebugUserData Pages: 1 -->
<svg width="287pt" height="120pt"
 viewBox="0.00 0.00 287.38 120.00" xmlns="http://www.w3.org/2000/svg" xmlns:xlink="http://www.w3.org/1999/xlink">

<svg id="main" version="1.1" xmlns="http://www.w3.org/2000/svg" xmlns:xlink="http://www.w3.org/1999/xlink" xml:space="preserve" onload="init(evt)">
<style type="text/css"><![CDATA[
.node, .edge {opacity: 0.7;}
.node.selected, .edge.selected {opacity: 1;}
.edge:hover path { stroke: red; }
.edge:hover polygon { stroke: red; fill: red; }
]]></style>
<script type="application/ecmascript" xlink:href="../../svg.min.js"/>
<svg id="graph" class="graph">
<g id="graph0" class="graph" transform="scale(1 1) rotate(0) translate(4 116)">
<title>PluginDayzPlayerDebugUserData</title>
<!-- Node1 -->
<g id="Node000001" class="node">
<title>Node1</title>
<g id="a_Node000001"><a xlink:title=" ">
<polygon fill="#999999" stroke="#666666" points="199.62,-20 38.12,-20 38.12,0 199.62,0 199.62,-20"/>
<text text-anchor="middle" x="118.88" y="-6.5" font-family="Helvetica,sans-Serif" font-size="10.00">PluginDayzPlayerDebugUserData</text>
</a>
</g>
</g>
<!-- Node2 -->
<g id="Node000002" class="node">
<title>Node2</title>
<g id="a_Node000002"><a xlink:href="../../db/d06/class_param3.html" target="_top" xlink:title=" ">
<polygon fill="white" stroke="#666666" points="49.75,-112 0,-112 0,-92 49.75,-92 49.75,-112"/>
<text text-anchor="middle" x="24.88" y="-98.5" font-family="Helvetica,sans-Serif" font-size="10.00">Param3</text>
</a>
</g>
</g>
<!-- Node2&#45;&gt;Node1 -->
<g id="edge1_Node000001_Node000002" class="edge">
<title>Node2&#45;&gt;Node1</title>
<g id="a_edge1_Node000001_Node000002"><a xlink:title=" ">
<path fill="none" stroke="#9a32cd" stroke-dasharray="5,2" d="M26.54,-80.42C28.67,-66.8 33.49,-49.42 44.38,-38 51.97,-30.04 62.09,-24.41 72.42,-20.44"/>
<polygon fill="#9a32cd" stroke="#9a32cd" points="23.1,-79.74 25.42,-90.08 30.05,-80.55 23.1,-79.74"/>
</a>
</g>
<text text-anchor="middle" x="80.12" y="-64.5" font-family="Helvetica,sans-Serif" font-size="10.00" fill="grey"> m_Category</text>
<text text-anchor="middle" x="80.12" y="-52.5" font-family="Helvetica,sans-Serif" font-size="10.00" fill="grey">m_iStanceMask</text>
<text text-anchor="middle" x="80.12" y="-40.5" font-family="Helvetica,sans-Serif" font-size="10.00" fill="grey">m_iUserData</text>
</g>
<!-- Node3 -->
<g id="Node000003" class="node">
<title>Node3</title>
<g id="a_Node000003"><a xlink:href="../../d9/d09/classbool.html" target="_top" xlink:title=" ">
<polygon fill="white" stroke="#666666" points="135.88,-112 101.88,-112 101.88,-92 135.88,-92 135.88,-112"/>
<text text-anchor="middle" x="118.88" y="-98.5" font-family="Helvetica,sans-Serif" font-size="10.00">bool</text>
</a>
</g>
</g>
<!-- Node3&#45;&gt;Node1 -->
<g id="edge2_Node000001_Node000003" class="edge">
<title>Node3&#45;&gt;Node1</title>
<g id="a_edge2_Node000001_Node000003"><a xlink:title=" ">
<path fill="none" stroke="#9a32cd" stroke-dasharray="5,2" d="M118.88,-80.2C118.88,-61.36 118.88,-34.44 118.88,-20.38"/>
<polygon fill="#9a32cd" stroke="#9a32cd" points="115.38,-80.19 118.88,-90.19 122.38,-80.19 115.38,-80.19"/>
</a>
</g>
<text text-anchor="middle" x="152.62" y="-52.5" font-family="Helvetica,sans-Serif" font-size="10.00" fill="grey"> m_bIsFullBody</text>
</g>
<!-- Node4 -->
<g id="Node000004" class="node">
<title>Node4</title>
<g id="a_Node000004"><a xlink:href="../../d5/d02/classstring.html" target="_top" xlink:title=" ">
<polygon fill="white" stroke="#666666" points="229.88,-112 189.88,-112 189.88,-92 229.88,-92 229.88,-112"/>
<text text-anchor="middle" x="209.88" y="-98.5" font-family="Helvetica,sans-Serif" font-size="10.00">string</text>
</a>
</g>
</g>
<!-- Node4&#45;&gt;Node1 -->
<g id="edge3_Node000001_Node000004" class="edge">
<title>Node4&#45;&gt;Node1</title>
<g id="a_edge3_Node000001_Node000004"><a xlink:title=" ">
<path fill="none" stroke="#9a32cd" stroke-dasharray="5,2" d="M207.22,-80.47C204.48,-66.87 198.95,-49.5 187.88,-38 180.2,-30.03 169.89,-24.37 159.59,-20.37"/>
<polygon fill="#9a32cd" stroke="#9a32cd" points="203.73,-80.81 208.79,-90.12 210.64,-79.68 203.73,-80.81"/>
</a>
</g>
<text text-anchor="middle" x="225.88" y="-52.5" font-family="Helvetica,sans-Serif" font-size="10.00" fill="grey"> m_Name</text>
</g>
<!-- Node4&#45;&gt;Node4 -->
<g id="edge4_Node000004_Node000004" class="edge">
<title>Node4&#45;&gt;Node4</title>
<g id="a_edge4_Node000004_Node000004"><a xlink:title=" ">
<path fill="none" stroke="#9a32cd" stroke-dasharray="5,2" d="M241.63,-109.4C245.41,-108.05 247.88,-105.59 247.88,-102 247.88,-95.44 239.64,-92.62 230.2,-93.55"/>
<polygon fill="#9a32cd" stroke="#9a32cd" points="241.35,-105.92 231.71,-110.32 241.99,-112.89 241.35,-105.92"/>
</a>
</g>
<text text-anchor="middle" x="263.62" y="-98.5" font-family="Helvetica,sans-Serif" font-size="10.00" fill="grey"> Empty</text>
</g>
</g>
</svg>
</svg>

<style type='text/css'>
<![CDATA[
[data-mouse-over-selected='false'] { opacity: 0.7; }
[data-mouse-over-selected='true']  { opacity: 1.0; }
]]>
</style>
<script type="application/ecmascript"><![CDATA[
document.addEventListener('DOMContentLoaded', (event) => {
  highlightEdges();
  highlightAdjacentNodes();
});
]]></script>
</svg>
