<?xml version="1.0" encoding="UTF-8" standalone="no"?>
<!DOCTYPE svg PUBLIC "-//W3C//DTD SVG 1.1//EN"
 "http://www.w3.org/Graphics/SVG/1.1/DTD/svg11.dtd">
<!-- Generated by graphviz version 11.0.0 (20240428.1522)
 -->
<!-- Title: RadialProgressBar Pages: 1 -->
<svg width="415pt" height="268pt"
 viewBox="0.00 0.00 414.88 268.00" xmlns="http://www.w3.org/2000/svg" xmlns:xlink="http://www.w3.org/1999/xlink">
<g id="graph0" class="graph" transform="scale(1 1) rotate(0) translate(4 264)">
<title>RadialProgressBar</title>
<!-- Node1 -->
<g id="Node000001" class="node">
<title>Node1</title>
<g id="a_Node000001"><a xlink:title=" ">
<polygon fill="#999999" stroke="#666666" points="253.5,-20 156.5,-20 156.5,0 253.5,0 253.5,-20"/>
<text text-anchor="middle" x="205" y="-6.5" font-family="Helvetica,sans-Serif" font-size="10.00">RadialProgressBar</text>
</a>
</g>
</g>
<!-- Node2 -->
<g id="Node000002" class="node">
<title>Node2</title>
<g id="a_Node000002"><a xlink:href="../../d4/d03/classfloat.html" target="_top" xlink:title=" ">
<polygon fill="white" stroke="#666666" points="34,-252 0,-252 0,-232 34,-232 34,-252"/>
<text text-anchor="middle" x="17" y="-238.5" font-family="Helvetica,sans-Serif" font-size="10.00">float</text>
</a>
</g>
</g>
<!-- Node2&#45;&gt;Node1 -->
<g id="edge1_Node000001_Node000002" class="edge">
<title>Node2&#45;&gt;Node1</title>
<g id="a_edge1_Node000001_Node000002"><a xlink:title=" ">
<path fill="none" stroke="#9a32cd" stroke-dasharray="5,2" d="M10.88,-220.62C2.32,-187.69 -9.04,-122.22 21,-80 51.76,-36.77 113.04,-20.6 156.41,-14.57"/>
<polygon fill="#9a32cd" stroke="#9a32cd" points="7.46,-221.38 13.52,-230.07 14.2,-219.5 7.46,-221.38"/>
</a>
</g>
<text text-anchor="middle" x="49.5" y="-142.5" font-family="Helvetica,sans-Serif" font-size="10.00" fill="grey"> rotation</text>
<text text-anchor="middle" x="49.5" y="-130.5" font-family="Helvetica,sans-Serif" font-size="10.00" fill="grey">speed</text>
<text text-anchor="middle" x="49.5" y="-118.5" font-family="Helvetica,sans-Serif" font-size="10.00" fill="grey">start_rotation</text>
<text text-anchor="middle" x="49.5" y="-106.5" font-family="Helvetica,sans-Serif" font-size="10.00" fill="grey">x</text>
<text text-anchor="middle" x="49.5" y="-94.5" font-family="Helvetica,sans-Serif" font-size="10.00" fill="grey">y</text>
<text text-anchor="middle" x="49.5" y="-82.5" font-family="Helvetica,sans-Serif" font-size="10.00" fill="grey">z</text>
</g>
<!-- Node2&#45;&gt;Node2 -->
<g id="edge2_Node000002_Node000002" class="edge">
<title>Node2&#45;&gt;Node2</title>
<g id="a_edge2_Node000002_Node000002"><a xlink:title=" ">
<path fill="none" stroke="#9a32cd" stroke-dasharray="5,2" d="M45.67,-250.94C49.47,-249.42 52,-246.44 52,-242 52,-233.88 43.56,-230.64 34.29,-232.29"/>
<polygon fill="#9a32cd" stroke="#9a32cd" points="45.54,-247.44 35.8,-251.61 46.01,-254.43 45.54,-247.44"/>
</a>
</g>
<text text-anchor="middle" x="74.12" y="-250.5" font-family="Helvetica,sans-Serif" font-size="10.00" fill="grey"> LOWEST</text>
<text text-anchor="middle" x="74.12" y="-238.5" font-family="Helvetica,sans-Serif" font-size="10.00" fill="grey">MAX</text>
<text text-anchor="middle" x="74.12" y="-226.5" font-family="Helvetica,sans-Serif" font-size="10.00" fill="grey">MIN</text>
</g>
<!-- Node5 -->
<g id="Node000005" class="node">
<title>Node5</title>
<g id="a_Node000005"><a xlink:href="../../d7/d00/class_animator_timer.html" target="_top" xlink:title=" ">
<polygon fill="white" stroke="#666666" points="166.5,-126 87.5,-126 87.5,-106 166.5,-106 166.5,-126"/>
<text text-anchor="middle" x="127" y="-112.5" font-family="Helvetica,sans-Serif" font-size="10.00">AnimatorTimer</text>
</a>
</g>
</g>
<!-- Node2&#45;&gt;Node5 -->
<g id="edge8_Node000005_Node000002" class="edge">
<title>Node2&#45;&gt;Node5</title>
<g id="a_edge8_Node000005_Node000002"><a xlink:title=" ">
<path fill="none" stroke="#9a32cd" stroke-dasharray="5,2" d="M26.02,-221.32C33.48,-206.29 45.06,-185.58 58.75,-170 74.5,-152.08 97.01,-135.98 111.81,-126.34"/>
<polygon fill="#9a32cd" stroke="#9a32cd" points="22.94,-219.63 21.79,-230.17 29.26,-222.65 22.94,-219.63"/>
</a>
</g>
<text text-anchor="middle" x="93.12" y="-196.5" font-family="Helvetica,sans-Serif" font-size="10.00" fill="grey"> m_target_value</text>
<text text-anchor="middle" x="93.12" y="-184.5" font-family="Helvetica,sans-Serif" font-size="10.00" fill="grey">m_time</text>
<text text-anchor="middle" x="93.12" y="-172.5" font-family="Helvetica,sans-Serif" font-size="10.00" fill="grey">m_value</text>
</g>
<!-- Node3 -->
<g id="Node000003" class="node">
<title>Node3</title>
<g id="a_Node000003"><a xlink:href="../../d5/d02/classstring.html" target="_top" xlink:title=" ">
<polygon fill="white" stroke="#666666" points="225,-126 185,-126 185,-106 225,-106 225,-126"/>
<text text-anchor="middle" x="205" y="-112.5" font-family="Helvetica,sans-Serif" font-size="10.00">string</text>
</a>
</g>
</g>
<!-- Node3&#45;&gt;Node1 -->
<g id="edge3_Node000001_Node000003" class="edge">
<title>Node3&#45;&gt;Node1</title>
<g id="a_edge3_Node000001_Node000003"><a xlink:title=" ">
<path fill="none" stroke="#9a32cd" stroke-dasharray="5,2" d="M205,-94.51C205,-72.04 205,-36.99 205,-20.36"/>
<polygon fill="#9a32cd" stroke="#9a32cd" points="201.5,-94.26 205,-104.26 208.5,-94.26 201.5,-94.26"/>
</a>
</g>
<text text-anchor="middle" x="232" y="-52.5" font-family="Helvetica,sans-Serif" font-size="10.00" fill="grey"> m_BarHider</text>
<text text-anchor="middle" x="232" y="-40.5" font-family="Helvetica,sans-Serif" font-size="10.00" fill="grey">m_BarPart</text>
</g>
<!-- Node3&#45;&gt;Node3 -->
<g id="edge4_Node000003_Node000003" class="edge">
<title>Node3&#45;&gt;Node3</title>
<g id="a_edge4_Node000003_Node000003"><a xlink:title=" ">
<path fill="none" stroke="#9a32cd" stroke-dasharray="5,2" d="M230.29,-128.32C237.47,-127.82 243,-123.71 243,-116 243,-104.53 230.75,-101.03 219.03,-105.51"/>
<polygon fill="#9a32cd" stroke="#9a32cd" points="230.96,-124.88 220.52,-126.73 229.83,-131.79 230.96,-124.88"/>
</a>
</g>
<text text-anchor="middle" x="258.75" y="-112.5" font-family="Helvetica,sans-Serif" font-size="10.00" fill="grey"> Empty</text>
</g>
<!-- Node4 -->
<g id="Node000004" class="node">
<title>Node4</title>
<g id="a_Node000004"><a xlink:href="../../dd/d0a/class_widget.html" target="_top" xlink:title=" ">
<polygon fill="white" stroke="#666666" points="339.38,-126 292.62,-126 292.62,-106 339.38,-106 339.38,-126"/>
<text text-anchor="middle" x="316" y="-112.5" font-family="Helvetica,sans-Serif" font-size="10.00">Widget</text>
</a>
</g>
</g>
<!-- Node4&#45;&gt;Node1 -->
<g id="edge5_Node000001_Node000004" class="edge">
<title>Node4&#45;&gt;Node1</title>
<g id="a_edge5_Node000001_Node000004"><a xlink:title=" ">
<path fill="none" stroke="#9a32cd" stroke-dasharray="5,2" d="M306.45,-95.55C297.27,-78.53 282.01,-54.07 263,-38 254.26,-30.61 243.17,-24.8 233.03,-20.49"/>
<polygon fill="#9a32cd" stroke="#9a32cd" points="303.19,-96.87 310.88,-104.16 309.41,-93.67 303.19,-96.87"/>
</a>
</g>
<text text-anchor="middle" x="301.38" y="-46.5" font-family="Helvetica,sans-Serif" font-size="10.00" fill="grey"> m_Root</text>
</g>
<!-- Node5&#45;&gt;Node1 -->
<g id="edge6_Node000001_Node000005" class="edge">
<title>Node5&#45;&gt;Node1</title>
<g id="a_edge6_Node000001_Node000005"><a xlink:title=" ">
<path fill="none" stroke="#9a32cd" stroke-dasharray="5,2" d="M132.44,-95.28C137.82,-78.57 147.38,-54.72 162,-38 168.27,-30.83 176.9,-24.91 184.78,-20.45"/>
<polygon fill="#9a32cd" stroke="#9a32cd" points="129.18,-93.95 129.68,-104.54 135.89,-95.95 129.18,-93.95"/>
</a>
</g>
<text text-anchor="middle" x="181.5" y="-46.5" font-family="Helvetica,sans-Serif" font-size="10.00" fill="grey"> m_Anim</text>
</g>
<!-- Node6 -->
<g id="Node000006" class="node">
<title>Node6</title>
<g id="a_Node000006"><a xlink:href="../../d9/d09/classbool.html" target="_top" xlink:title=" ">
<polygon fill="white" stroke="#666666" points="153,-252 119,-252 119,-232 153,-232 153,-252"/>
<text text-anchor="middle" x="136" y="-238.5" font-family="Helvetica,sans-Serif" font-size="10.00">bool</text>
</a>
</g>
</g>
<!-- Node6&#45;&gt;Node5 -->
<g id="edge7_Node000005_Node000006" class="edge">
<title>Node6&#45;&gt;Node5</title>
<g id="a_edge7_Node000005_Node000006"><a xlink:title=" ">
<path fill="none" stroke="#9a32cd" stroke-dasharray="5,2" d="M134.51,-220.41C132.53,-193.19 129.13,-146.36 127.68,-126.43"/>
<polygon fill="#9a32cd" stroke="#9a32cd" points="131,-220.45 135.21,-230.17 137.98,-219.94 131,-220.45"/>
</a>
</g>
<text text-anchor="middle" x="154.62" y="-190.5" font-family="Helvetica,sans-Serif" font-size="10.00" fill="grey"> m_active</text>
<text text-anchor="middle" x="154.62" y="-178.5" font-family="Helvetica,sans-Serif" font-size="10.00" fill="grey">m_loop</text>
</g>
<!-- Node7 -->
<g id="Node000007" class="node">
<title>Node7</title>
<g id="a_Node000007"><a xlink:href="../../db/d06/class_param3.html" target="_top" xlink:title=" ">
<polygon fill="white" stroke="#666666" points="406.88,-126 357.12,-126 357.12,-106 406.88,-106 406.88,-126"/>
<text text-anchor="middle" x="382" y="-112.5" font-family="Helvetica,sans-Serif" font-size="10.00">Param3</text>
</a>
</g>
</g>
<!-- Node7&#45;&gt;Node1 -->
<g id="edge9_Node000001_Node000007" class="edge">
<title>Node7&#45;&gt;Node1</title>
<g id="a_edge9_Node000001_Node000007"><a xlink:title=" ">
<path fill="none" stroke="#9a32cd" stroke-dasharray="5,2" d="M372.51,-95.63C362.79,-77.87 346.01,-52.24 324,-38 303.19,-24.54 276.54,-17.74 253.74,-14.33"/>
<polygon fill="#9a32cd" stroke="#9a32cd" points="369.34,-97.12 377.05,-104.39 375.56,-93.9 369.34,-97.12"/>
</a>
</g>
<text text-anchor="middle" x="362.5" y="-46.5" font-family="Helvetica,sans-Serif" font-size="10.00" fill="grey"> stage</text>
</g>
</g>
</svg>
