<?xml version="1.0" encoding="UTF-8" standalone="no"?>
<!DOCTYPE svg PUBLIC "-//W3C//DTD SVG 1.1//EN"
 "http://www.w3.org/Graphics/SVG/1.1/DTD/svg11.dtd">
<!-- Generated by graphviz version 11.0.0 (20240428.1522)
 -->
<!-- Title: Debug Pages: 1 -->
<!--zoomable 478 -->

<svg id="main" version="1.1" xmlns="http://www.w3.org/2000/svg" xmlns:xlink="http://www.w3.org/1999/xlink" xml:space="preserve" onload="init(evt)">
<style type="text/css"><![CDATA[
.node, .edge {opacity: 0.7;}
.node.selected, .edge.selected {opacity: 1;}
.edge:hover path { stroke: red; }
.edge:hover polygon { stroke: red; fill: red; }
]]></style>

<defs>
  <circle id="rim" cx="0" cy="0" r="7"/>
  <circle id="rim2" cx="0" cy="0" r="3.5"/>
  <g id="zoomPlus">
    <use xlink:href="#rim" fill="#404040"><set attributeName="fill" to="#808080" begin="zoomplus.mouseover" end="zoomplus.mouseout"/></use>
    <path d="M-4,0h8M0,-4v8" fill="none" stroke="white" stroke-width="1.5" pointer-events="none"/>
  </g>
  <g id="zoomMin">
    <use xlink:href="#rim" fill="#404040"><set attributeName="fill" to="#808080" begin="zoomminus.mouseover" end="zoomminus.mouseout"/></use>
    <path d="M-4,0h8" fill="none" stroke="white" stroke-width="1.5" pointer-events="none"/>
  </g>
  <g id="arrowUp" transform="translate(30 24)">
    <use xlink:href="#rim"/>
    <path pointer-events="none" fill="none" stroke="white" stroke-width="1.5" d="M0,-3.0v7 M-2.5,-0.5L0,-3.0L2.5,-0.5"/>
  </g>
  <g id="arrowRight" transform="rotate(90) translate(36 -43)">
    <use xlink:href="#rim"/>
    <path pointer-events="none" fill="none" stroke="white" stroke-width="1.5" d="M0,-3.0v7 M-2.5,-0.5L0,-3.0L2.5,-0.5"/>
  </g>
  <g id="arrowDown" transform="rotate(180) translate(-30 -48)">
    <use xlink:href="#rim"/>
    <path pointer-events="none" fill="none" stroke="white" stroke-width="1.5" d="M0,-3.0v7 M-2.5,-0.5L0,-3.0L2.5,-0.5"/>
  </g>
  <g id="arrowLeft" transform="rotate(270) translate(-36 17)">
    <use xlink:href="#rim"/>
    <path pointer-events="none" fill="none" stroke="white" stroke-width="1.5" d="M0,-3.0v7 M-2.5,-0.5L0,-3.0L2.5,-0.5"/>
  </g>
  <g id="resetDef">
    <use xlink:href="#rim2" fill="#404040"><set attributeName="fill" to="#808080" begin="reset.mouseover" end="reset.mouseout"/></use>
  </g>
</defs>
<script type="application/ecmascript">
var viewWidth = 1286;
var viewHeight = 478;
var sectionId = 'dynsection-0';
</script>
<script type="application/ecmascript" xlink:href="../../svg.min.js"/>
<svg id="graph" class="graph">
<g id="viewport">
<title>Debug</title>
<!-- Node1 -->
<g id="Node000001" class="node">
<title>Node1</title>
<g id="a_Node000001"><a xlink:title=" ">
<polygon fill="#999999" stroke="#666666" points="1124.3,-20 1080.55,-20 1080.55,0 1124.3,0 1124.3,-20"/>
<text text-anchor="middle" x="1102.43" y="-6.5" font-family="Helvetica,sans-Serif" font-size="10.00">Debug</text>
</a>
</g>
</g>
<!-- Node2 -->
<g id="Node000002" class="node">
<title>Node2</title>
<g id="a_Node000002"><a xlink:href="../../d5/d02/classstring.html" target="_top" xlink:title=" ">
<polygon fill="white" stroke="#666666" points="234.43,-468 194.43,-468 194.43,-448 234.43,-448 234.43,-468"/>
<text text-anchor="middle" x="214.43" y="-454.5" font-family="Helvetica,sans-Serif" font-size="10.00">string</text>
</a>
</g>
</g>
<!-- Node2&#45;&gt;Node1 -->
<g id="edge1_Node000001_Node000002" class="edge">
<title>Node2&#45;&gt;Node1</title>
<g id="a_edge1_Node000001_Node000002"><a xlink:title=" ">
<path fill="none" stroke="#9a32cd" stroke-dasharray="5,2" d="M192.99,-440.64C125.68,-387.42 -71.25,-216.25 27.18,-106 99.95,-24.48 932.74,-12.65 1080.18,-11.19"/>
<polygon fill="#9a32cd" stroke="#9a32cd" points="190.7,-443.29 200.74,-446.69 195,-437.78 190.7,-443.29"/>
</a>
</g>
<text text-anchor="middle" x="105.05" y="-240.5" font-family="Helvetica,sans-Serif" font-size="10.00" fill="grey"> LOG_DEBUG</text>
<text text-anchor="middle" x="105.05" y="-228.5" font-family="Helvetica,sans-Serif" font-size="10.00" fill="grey">LOG_DEBUG_ACTION</text>
<text text-anchor="middle" x="105.05" y="-216.5" font-family="Helvetica,sans-Serif" font-size="10.00" fill="grey">LOG_DEBUG_BASEBUILDING</text>
<text text-anchor="start" x="27.43" y="-204.5" font-family="Helvetica,sans-Serif" font-size="10.00" fill="grey">LOG_DEBUG_BLEEDING</text>
<text text-anchor="middle" x="105.05" y="-192.5" font-family="Helvetica,sans-Serif" font-size="10.00" fill="grey">_CHANCES</text>
<text text-anchor="middle" x="105.05" y="-180.5" font-family="Helvetica,sans-Serif" font-size="10.00" fill="grey">LOG_DEBUG_INV_HFSM</text>
<text text-anchor="middle" x="105.05" y="-168.5" font-family="Helvetica,sans-Serif" font-size="10.00" fill="grey">LOG_DEBUG_INV_MOVE</text>
<text text-anchor="middle" x="105.05" y="-156.5" font-family="Helvetica,sans-Serif" font-size="10.00" fill="grey">LOG_DEBUG_INV_RESERVATION</text>
<text text-anchor="middle" x="105.05" y="-144.5" font-family="Helvetica,sans-Serif" font-size="10.00" fill="grey">LOG_DEBUG_MELEE</text>
<text text-anchor="middle" x="105.05" y="-132.5" font-family="Helvetica,sans-Serif" font-size="10.00" fill="grey">LOG_DEBUG_PARTICLE</text>
<text text-anchor="middle" x="105.05" y="-120.5" font-family="Helvetica,sans-Serif" font-size="10.00" fill="grey">LOG_DEBUG_QUICKBAR</text>
<text text-anchor="middle" x="105.05" y="-108.5" font-family="Helvetica,sans-Serif" font-size="10.00" fill="grey">...</text>
</g>
<!-- Node2&#45;&gt;Node2 -->
<g id="edge2_Node000002_Node000002" class="edge">
<title>Node2&#45;&gt;Node2</title>
<g id="a_edge2_Node000002_Node000002"><a xlink:title=" ">
<path fill="none" stroke="#9a32cd" stroke-dasharray="5,2" d="M240.2,-469.91C247.14,-469.28 252.43,-465.31 252.43,-458 252.43,-447.12 240.72,-443.64 229.25,-447.55"/>
<polygon fill="#9a32cd" stroke="#9a32cd" points="241.12,-466.5 230.75,-468.65 240.2,-473.44 241.12,-466.5"/>
</a>
</g>
<text text-anchor="middle" x="268.18" y="-454.5" font-family="Helvetica,sans-Serif" font-size="10.00" fill="grey"> Empty</text>
</g>
<!-- Node3 -->
<g id="Node000003" class="node">
<title>Node3</title>
<g id="a_Node000003"><a xlink:href="../../d2/d01/classarray.html" target="_top" xlink:title=" ">
<polygon fill="white" stroke="#666666" points="919.18,-88 835.68,-88 835.68,-68 919.18,-68 919.18,-88"/>
<text text-anchor="middle" x="877.43" y="-74.5" font-family="Helvetica,sans-Serif" font-size="10.00">array&lt; Shape &gt;</text>
</a>
</g>
</g>
<!-- Node2&#45;&gt;Node3 -->
<g id="edge22_Node000003_Node000002" class="edge">
<title>Node2&#45;&gt;Node3</title>
<g id="a_edge22_Node000003_Node000002"><a xlink:title=" ">
<path fill="none" stroke="#9a32cd" stroke-dasharray="5,2" d="M230.95,-439.38C251.35,-417.16 286.54,-377.35 312.43,-340 333.37,-309.78 322.33,-288.01 353.18,-268 388.62,-245.01 510.86,-278.07 542.43,-250 591.35,-206.5 524.37,-149.35 573.43,-106 592.63,-89.03 756.49,-82.29 835.35,-80.01"/>
<polygon fill="#9a32cd" stroke="#9a32cd" points="228.44,-436.94 224.21,-446.66 233.57,-441.7 228.44,-436.94"/>
</a>
</g>
<text text-anchor="middle" x="371.05" y="-300.5" font-family="Helvetica,sans-Serif" font-size="10.00" fill="grey"> m_Test</text>
</g>
<!-- Node6 -->
<g id="Node000006" class="node">
<title>Node6</title>
<g id="a_Node000006"><a xlink:href="../../d2/d01/classarray.html" target="_top" xlink:title="Result for an object found in CGame.IsBoxCollidingGeometryProxy.">
<polygon fill="white" stroke="#666666" points="666.3,-314 628.55,-314 628.55,-294 666.3,-294 666.3,-314"/>
<text text-anchor="middle" x="647.43" y="-300.5" font-family="Helvetica,sans-Serif" font-size="10.00">array</text>
</a>
</g>
</g>
<!-- Node2&#45;&gt;Node6 -->
<g id="edge11_Node000006_Node000002" class="edge">
<title>Node2&#45;&gt;Node6</title>
<g id="a_edge11_Node000006_Node000002"><a xlink:title=" ">
<path fill="none" stroke="#9a32cd" stroke-dasharray="5,2" d="M245.64,-448.39C263.3,-443.36 285.71,-436.69 305.43,-430 390.05,-401.27 406.74,-380.7 493.18,-358 545.87,-344.16 566.13,-365.21 614.43,-340 625.83,-334.05 635.45,-322.59 641.31,-314.41"/>
<polygon fill="#9a32cd" stroke="#9a32cd" points="244.94,-444.95 236.27,-451.03 246.84,-451.69 244.94,-444.95"/>
</a>
</g>
<text text-anchor="middle" x="511.05" y="-390.5" font-family="Helvetica,sans-Serif" font-size="10.00" fill="grey"> m_Test</text>
</g>
<!-- Node9 -->
<g id="Node000009" class="node">
<title>Node9</title>
<g id="a_Node000009"><a xlink:href="../../d2/d01/classarray.html" target="_top" xlink:title=" ">
<polygon fill="white" stroke="#666666" points="456.68,-88 370.18,-88 370.18,-68 456.68,-68 456.68,-88"/>
<text text-anchor="middle" x="413.43" y="-74.5" font-family="Helvetica,sans-Serif" font-size="10.00">array&lt; Widget &gt;</text>
</a>
</g>
</g>
<!-- Node2&#45;&gt;Node9 -->
<g id="edge18_Node000009_Node000002" class="edge">
<title>Node2&#45;&gt;Node9</title>
<g id="a_edge18_Node000009_Node000002"><a xlink:title=" ">
<path fill="none" stroke="#9a32cd" stroke-dasharray="5,2" d="M208.36,-437.06C191.28,-376.35 150,-192.68 246.43,-106 264.17,-90.05 326.68,-83.47 369.97,-80.79"/>
<polygon fill="#9a32cd" stroke="#9a32cd" points="204.91,-437.71 211.07,-446.33 211.63,-435.75 204.91,-437.71"/>
</a>
</g>
<text text-anchor="middle" x="206.05" y="-300.5" font-family="Helvetica,sans-Serif" font-size="10.00" fill="grey"> m_Test</text>
</g>
<!-- Node3&#45;&gt;Node1 -->
<g id="edge3_Node000001_Node000003" class="edge">
<title>Node3&#45;&gt;Node1</title>
<g id="a_edge3_Node000001_Node000003"><a xlink:title=" ">
<path fill="none" stroke="#9a32cd" stroke-dasharray="5,2" d="M920.56,-64.35C968.21,-50.37 1043.07,-28.41 1080.12,-17.54"/>
<polygon fill="#9a32cd" stroke="#9a32cd" points="919.73,-60.94 911.12,-67.12 921.7,-67.66 919.73,-60.94"/>
</a>
</g>
<text text-anchor="middle" x="1049.05" y="-40.5" font-family="Helvetica,sans-Serif" font-size="10.00" fill="grey"> m_DebugShapes</text>
</g>
<!-- Node4 -->
<g id="Node000004" class="node">
<title>Node4</title>
<g id="a_Node000004"><a xlink:href="../../d8/d03/class_object.html" target="_top" xlink:title=" ">
<polygon fill="white" stroke="#666666" points="935.68,-468 891.18,-468 891.18,-448 935.68,-448 935.68,-468"/>
<text text-anchor="middle" x="913.43" y="-454.5" font-family="Helvetica,sans-Serif" font-size="10.00">Object</text>
</a>
</g>
</g>
<!-- Node4&#45;&gt;Node3 -->
<g id="edge4_Node000003_Node000004" class="edge">
<title>Node4&#45;&gt;Node3</title>
<g id="a_edge4_Node000003_Node000004"><a xlink:title=" ">
<path fill="none" stroke="#9a32cd" stroke-dasharray="5,2" d="M935.68,-440.7C961.28,-420.43 1001.9,-383.17 1018.43,-340 1029.87,-310.12 1028.51,-298.37 1018.43,-268 991.73,-187.57 916.02,-113.64 888.01,-88.28"/>
<polygon fill="#9a32cd" stroke="#9a32cd" points="933.68,-437.82 927.89,-446.69 937.95,-443.37 933.68,-437.82"/>
</a>
</g>
<text text-anchor="middle" x="1040.93" y="-306.5" font-family="Helvetica,sans-Serif" font-size="10.00" fill="grey"> obj</text>
<text text-anchor="middle" x="1040.93" y="-294.5" font-family="Helvetica,sans-Serif" font-size="10.00" fill="grey">parent</text>
</g>
<!-- Node4&#45;&gt;Node6 -->
<g id="edge7_Node000006_Node000004" class="edge">
<title>Node4&#45;&gt;Node6</title>
<g id="a_edge7_Node000006_Node000004"><a xlink:title=" ">
<path fill="none" stroke="#9a32cd" stroke-dasharray="5,2" d="M879.58,-454.27C858.55,-451.13 831.91,-444.41 812.43,-430 782.08,-407.56 795.94,-382.71 767.43,-358 751.51,-344.2 695.93,-322.67 666.32,-311.79"/>
<polygon fill="#9a32cd" stroke="#9a32cd" points="879.05,-457.73 889.41,-455.51 879.92,-450.78 879.05,-457.73"/>
</a>
</g>
<text text-anchor="middle" x="825.93" y="-396.5" font-family="Helvetica,sans-Serif" font-size="10.00" fill="grey"> obj</text>
<text text-anchor="middle" x="825.93" y="-384.5" font-family="Helvetica,sans-Serif" font-size="10.00" fill="grey">parent</text>
</g>
<!-- Node4&#45;&gt;Node9 -->
<g id="edge14_Node000009_Node000004" class="edge">
<title>Node4&#45;&gt;Node9</title>
<g id="a_edge14_Node000009_Node000004"><a xlink:title=" ">
<path fill="none" stroke="#9a32cd" stroke-dasharray="5,2" d="M917,-436.56C919.66,-414.06 919.87,-378.38 899.43,-358 858.12,-316.81 815.91,-375.24 769.43,-340 758.13,-331.43 678.86,-114.39 667.43,-106 634.93,-82.17 520.55,-78.57 456.93,-78.48"/>
<polygon fill="#9a32cd" stroke="#9a32cd" points="913.56,-435.89 915.56,-446.3 920.49,-436.92 913.56,-435.89"/>
</a>
</g>
<text text-anchor="middle" x="782.93" y="-306.5" font-family="Helvetica,sans-Serif" font-size="10.00" fill="grey"> obj</text>
<text text-anchor="middle" x="782.93" y="-294.5" font-family="Helvetica,sans-Serif" font-size="10.00" fill="grey">parent</text>
</g>
<!-- Node5 -->
<g id="Node000005" class="node">
<title>Node5</title>
<g id="a_Node000005"><a xlink:href="../../db/d06/class_param3.html" target="_top" xlink:title=" ">
<polygon fill="white" stroke="#666666" points="672.3,-468 622.55,-468 622.55,-448 672.3,-448 672.3,-468"/>
<text text-anchor="middle" x="647.43" y="-454.5" font-family="Helvetica,sans-Serif" font-size="10.00">Param3</text>
</a>
</g>
</g>
<!-- Node5&#45;&gt;Node3 -->
<g id="edge5_Node000003_Node000005" class="edge">
<title>Node5&#45;&gt;Node3</title>
<g id="a_edge5_Node000003_Node000005"><a xlink:title=" ">
<path fill="none" stroke="#9a32cd" stroke-dasharray="5,2" d="M683.74,-457.18C709.1,-455.45 742.24,-449.2 764.43,-430 790.39,-407.53 778.27,-389.28 792.43,-358 811.01,-316.94 809.94,-302.31 839.18,-268 847.88,-257.78 856.91,-261.73 863.43,-250 893.8,-195.32 883.76,-115.28 879.17,-88.28"/>
<polygon fill="#9a32cd" stroke="#9a32cd" points="683.7,-453.68 673.87,-457.63 684.02,-460.67 683.7,-453.68"/>
</a>
</g>
<text text-anchor="middle" x="897.55" y="-330.5" font-family="Helvetica,sans-Serif" font-size="10.00" fill="grey"> NO_SORTING</text>
<text text-anchor="middle" x="897.55" y="-318.5" font-family="Helvetica,sans-Serif" font-size="10.00" fill="grey">geomLevel</text>
<text text-anchor="middle" x="897.55" y="-306.5" font-family="Helvetica,sans-Serif" font-size="10.00" fill="grey">hierLevel</text>
<text text-anchor="start" x="839.43" y="-294.5" font-family="Helvetica,sans-Serif" font-size="10.00" fill="grey">m_CurrentSettingAlternate</text>
<text text-anchor="middle" x="897.55" y="-282.5" font-family="Helvetica,sans-Serif" font-size="10.00" fill="grey">KeyIndex</text>
<text text-anchor="middle" x="897.55" y="-270.5" font-family="Helvetica,sans-Serif" font-size="10.00" fill="grey">m_CurrentSettingKeyIndex</text>
</g>
<!-- Node5&#45;&gt;Node6 -->
<g id="edge8_Node000006_Node000005" class="edge">
<title>Node5&#45;&gt;Node6</title>
<g id="a_edge8_Node000006_Node000005"><a xlink:title=" ">
<path fill="none" stroke="#9a32cd" stroke-dasharray="5,2" d="M647.43,-436.47C647.43,-403.04 647.43,-338.17 647.43,-314.2"/>
<polygon fill="#9a32cd" stroke="#9a32cd" points="643.93,-436.43 647.43,-446.43 650.93,-436.43 643.93,-436.43"/>
</a>
</g>
<text text-anchor="middle" x="705.55" y="-420.5" font-family="Helvetica,sans-Serif" font-size="10.00" fill="grey"> NO_SORTING</text>
<text text-anchor="middle" x="705.55" y="-408.5" font-family="Helvetica,sans-Serif" font-size="10.00" fill="grey">geomLevel</text>
<text text-anchor="middle" x="705.55" y="-396.5" font-family="Helvetica,sans-Serif" font-size="10.00" fill="grey">hierLevel</text>
<text text-anchor="start" x="647.43" y="-384.5" font-family="Helvetica,sans-Serif" font-size="10.00" fill="grey">m_CurrentSettingAlternate</text>
<text text-anchor="middle" x="705.55" y="-372.5" font-family="Helvetica,sans-Serif" font-size="10.00" fill="grey">KeyIndex</text>
<text text-anchor="middle" x="705.55" y="-360.5" font-family="Helvetica,sans-Serif" font-size="10.00" fill="grey">m_CurrentSettingKeyIndex</text>
</g>
<!-- Node5&#45;&gt;Node9 -->
<g id="edge15_Node000009_Node000005" class="edge">
<title>Node5&#45;&gt;Node9</title>
<g id="a_edge15_Node000009_Node000005"><a xlink:title=" ">
<path fill="none" stroke="#9a32cd" stroke-dasharray="5,2" d="M643.84,-436.43C638.62,-413.24 626.55,-376.39 600.43,-358 567.33,-334.7 449.84,-366.42 419.18,-340 379.59,-305.9 381.94,-156.2 396.43,-106 398.27,-99.61 402.12,-93.28 405.69,-88.36"/>
<polygon fill="#9a32cd" stroke="#9a32cd" points="640.4,-437.09 645.78,-446.22 647.27,-435.73 640.4,-437.09"/>
</a>
</g>
<text text-anchor="middle" x="477.55" y="-330.5" font-family="Helvetica,sans-Serif" font-size="10.00" fill="grey"> NO_SORTING</text>
<text text-anchor="middle" x="477.55" y="-318.5" font-family="Helvetica,sans-Serif" font-size="10.00" fill="grey">geomLevel</text>
<text text-anchor="middle" x="477.55" y="-306.5" font-family="Helvetica,sans-Serif" font-size="10.00" fill="grey">hierLevel</text>
<text text-anchor="start" x="419.43" y="-294.5" font-family="Helvetica,sans-Serif" font-size="10.00" fill="grey">m_CurrentSettingAlternate</text>
<text text-anchor="middle" x="477.55" y="-282.5" font-family="Helvetica,sans-Serif" font-size="10.00" fill="grey">KeyIndex</text>
<text text-anchor="middle" x="477.55" y="-270.5" font-family="Helvetica,sans-Serif" font-size="10.00" fill="grey">m_CurrentSettingKeyIndex</text>
</g>
<!-- Node6&#45;&gt;Node3 -->
<g id="edge6_Node000003_Node000006" class="edge">
<title>Node6&#45;&gt;Node3</title>
<g id="a_edge6_Node000003_Node000006"><a xlink:title=" ">
<path fill="none" stroke="#9a32cd" stroke-dasharray="5,2" d="M660.03,-284.28C686.27,-246.45 750.27,-159.9 821.43,-106 830.8,-98.9 842.35,-92.95 852.51,-88.46"/>
<polygon fill="#9a32cd" stroke="#9a32cd" points="657.27,-282.12 654.51,-292.34 663.05,-286.07 657.27,-282.12"/>
</a>
</g>
<text text-anchor="middle" x="842.43" y="-174.5" font-family="Helvetica,sans-Serif" font-size="10.00" fill="grey"> proxyInfo</text>
</g>
<!-- Node6&#45;&gt;Node6 -->
<g id="edge9_Node000006_Node000006" class="edge">
<title>Node6&#45;&gt;Node6</title>
<g id="a_edge9_Node000006_Node000006"><a xlink:title=" ">
<path fill="none" stroke="#9a32cd" stroke-dasharray="5,2" d="M665.26,-320.07C675.17,-323.07 684.3,-317.71 684.3,-304 684.3,-285.72 668.07,-282.29 655.39,-293.72"/>
<polygon fill="#9a32cd" stroke="#9a32cd" points="667.1,-317.09 656.7,-315.05 663.56,-323.13 667.1,-317.09"/>
</a>
</g>
<text text-anchor="middle" x="705.3" y="-300.5" font-family="Helvetica,sans-Serif" font-size="10.00" fill="grey"> proxyInfo</text>
</g>
<!-- Node6&#45;&gt;Node9 -->
<g id="edge16_Node000009_Node000006" class="edge">
<title>Node6&#45;&gt;Node9</title>
<g id="a_edge16_Node000009_Node000006"><a xlink:title=" ">
<path fill="none" stroke="#9a32cd" stroke-dasharray="5,2" d="M634.73,-284.79C629.26,-278.38 622.3,-271.82 614.43,-268 573.48,-248.15 441.16,-283.56 410.43,-250 388.77,-226.35 405.79,-120.87 411.64,-88.49"/>
<polygon fill="#9a32cd" stroke="#9a32cd" points="631.83,-286.76 640.7,-292.55 637.38,-282.49 631.83,-286.76"/>
</a>
</g>
<text text-anchor="middle" x="431.43" y="-174.5" font-family="Helvetica,sans-Serif" font-size="10.00" fill="grey"> proxyInfo</text>
</g>
<!-- Node7 -->
<g id="Node000007" class="node">
<title>Node7</title>
<g id="a_Node000007"><a xlink:href="../../d4/d04/class_class.html" target="_top" xlink:title="Super root of all classes in Enforce script.">
<polygon fill="white" stroke="#666666" points="533.8,-468 493.05,-468 493.05,-448 533.8,-448 533.8,-468"/>
<text text-anchor="middle" x="513.43" y="-454.5" font-family="Helvetica,sans-Serif" font-size="10.00">Class</text>
</a>
</g>
</g>
<!-- Node7&#45;&gt;Node3 -->
<g id="edge21_Node000003_Node000007" class="edge">
<title>Node7&#45;&gt;Node3</title>
<g id="a_edge21_Node000003_Node000007"><a xlink:title=" ">
<path fill="none" stroke="#9a32cd" stroke-dasharray="5,2" d="M515.06,-436.31C517.01,-416.06 520.99,-384.49 528.43,-358 529.89,-352.78 563.54,-272.74 566.18,-268 609.14,-190.79 605.85,-151.78 681.43,-106 706.54,-90.78 785.56,-83.85 835.26,-80.92"/>
<polygon fill="#9a32cd" stroke="#9a32cd" points="511.6,-435.78 514.21,-446.05 518.57,-436.39 511.6,-435.78"/>
</a>
</g>
<text text-anchor="middle" x="593.05" y="-300.5" font-family="Helvetica,sans-Serif" font-size="10.00" fill="grey"> m_Instance</text>
</g>
<!-- Node7&#45;&gt;Node6 -->
<g id="edge10_Node000006_Node000007" class="edge">
<title>Node7&#45;&gt;Node6</title>
<g id="a_edge10_Node000006_Node000007"><a xlink:title=" ">
<path fill="none" stroke="#9a32cd" stroke-dasharray="5,2" d="M525.66,-438.25C539.78,-417.37 564.39,-383.25 590.18,-358 599.77,-348.61 604.39,-348.92 614.43,-340 623.54,-331.9 632.99,-321.65 639.43,-314.35"/>
<polygon fill="#9a32cd" stroke="#9a32cd" points="522.91,-436.06 520.28,-446.33 528.74,-439.94 522.91,-436.06"/>
</a>
</g>
<text text-anchor="middle" x="617.05" y="-390.5" font-family="Helvetica,sans-Serif" font-size="10.00" fill="grey"> m_Instance</text>
</g>
<!-- Node7&#45;&gt;Node9 -->
<g id="edge17_Node000009_Node000007" class="edge">
<title>Node7&#45;&gt;Node9</title>
<g id="a_edge17_Node000009_Node000007"><a xlink:title=" ">
<path fill="none" stroke="#9a32cd" stroke-dasharray="5,2" d="M494.11,-440.39C466.89,-417.93 414.81,-378.35 363.43,-358 319.71,-340.68 289.46,-375.96 259.18,-340 189.42,-257.17 338.87,-131.86 366.43,-106 373.97,-98.92 383.71,-92.93 392.37,-88.42"/>
<polygon fill="#9a32cd" stroke="#9a32cd" points="491.59,-442.84 501.5,-446.59 496.09,-437.48 491.59,-442.84"/>
</a>
</g>
<text text-anchor="middle" x="286.05" y="-300.5" font-family="Helvetica,sans-Serif" font-size="10.00" fill="grey"> m_Instance</text>
</g>
<!-- Node8 -->
<g id="Node000008" class="node">
<title>Node8</title>
<g id="a_Node000008"><a xlink:href="../../dd/d0a/class_widget.html" target="_top" xlink:title=" ">
<polygon fill="white" stroke="#666666" points="1049.8,-468 1003.05,-468 1003.05,-448 1049.8,-448 1049.8,-468"/>
<text text-anchor="middle" x="1026.43" y="-454.5" font-family="Helvetica,sans-Serif" font-size="10.00">Widget</text>
</a>
</g>
</g>
<!-- Node8&#45;&gt;Node1 -->
<g id="edge24_Node000001_Node000008" class="edge">
<title>Node8&#45;&gt;Node1</title>
<g id="a_edge24_Node000001_Node000008"><a xlink:title=" ">
<path fill="none" stroke="#9a32cd" stroke-dasharray="5,2" d="M1051.13,-441.06C1055.22,-437.73 1059.18,-434 1062.43,-430 1090.25,-395.73 1094.87,-383.09 1104.43,-340 1131.89,-216.21 1110.22,-59.7 1103.98,-20.32"/>
<polygon fill="#9a32cd" stroke="#9a32cd" points="1049.36,-438.01 1043.4,-446.78 1053.52,-443.64 1049.36,-438.01"/>
</a>
</g>
<text text-anchor="middle" x="1169.93" y="-174.5" font-family="Helvetica,sans-Serif" font-size="10.00" fill="grey"> m_DebugLayoutCanvas</text>
</g>
<!-- Node8&#45;&gt;Node3 -->
<g id="edge23_Node000003_Node000008" class="edge">
<title>Node8&#45;&gt;Node3</title>
<g id="a_edge23_Node000003_Node000008"><a xlink:title=" ">
<path fill="none" stroke="#9a32cd" stroke-dasharray="5,2" d="M1034.97,-437.36C1048.85,-402.8 1073.31,-329.03 1058.43,-268 1039.21,-189.21 1037.39,-157.12 974.43,-106 958.96,-93.44 938.03,-86.71 919.57,-83.11"/>
<polygon fill="#9a32cd" stroke="#9a32cd" points="1031.79,-435.88 1031.17,-446.46 1038.25,-438.58 1031.79,-435.88"/>
</a>
</g>
<text text-anchor="middle" x="1081.8" y="-300.5" font-family="Helvetica,sans-Serif" font-size="10.00" fill="grey"> m_Root</text>
</g>
<!-- Node8&#45;&gt;Node6 -->
<g id="edge12_Node000006_Node000008" class="edge">
<title>Node8&#45;&gt;Node6</title>
<g id="a_edge12_Node000006_Node000008"><a xlink:title=" ">
<path fill="none" stroke="#9a32cd" stroke-dasharray="5,2" d="M991.85,-446.32C978.97,-441.87 964.4,-436.28 951.68,-430 898.53,-403.77 894.58,-379.71 839.43,-358 797.81,-341.62 783.53,-351.92 740.43,-340 714.32,-332.78 685.26,-321.25 666.68,-313.41"/>
<polygon fill="#9a32cd" stroke="#9a32cd" points="990.61,-449.59 1001.2,-449.44 992.82,-442.95 990.61,-449.59"/>
</a>
</g>
<text text-anchor="middle" x="970.8" y="-390.5" font-family="Helvetica,sans-Serif" font-size="10.00" fill="grey"> m_Root</text>
</g>
<!-- Node8&#45;&gt;Node9 -->
<g id="edge19_Node000009_Node000008" class="edge">
<title>Node8&#45;&gt;Node9</title>
<g id="a_edge19_Node000009_Node000008"><a xlink:title=" ">
<path fill="none" stroke="#9a32cd" stroke-dasharray="5,2" d="M1017.52,-437.25C1007.27,-414.17 990.24,-374.71 977.68,-340 966.28,-308.51 970.37,-297.97 955.43,-268 915.79,-188.52 916.18,-148.92 838.43,-106 805.66,-87.91 558.81,-81.55 457.06,-79.67"/>
<polygon fill="#9a32cd" stroke="#9a32cd" points="1014.31,-438.64 1021.58,-446.33 1020.69,-435.78 1014.31,-438.64"/>
</a>
</g>
<text text-anchor="middle" x="996.8" y="-300.5" font-family="Helvetica,sans-Serif" font-size="10.00" fill="grey"> m_Root</text>
</g>
<!-- Node9&#45;&gt;Node6 -->
<g id="edge13_Node000006_Node000009" class="edge">
<title>Node9&#45;&gt;Node6</title>
<g id="a_edge13_Node000006_Node000009"><a xlink:title=" ">
<path fill="none" stroke="#9a32cd" stroke-dasharray="5,2" d="M440.09,-94.36C445.66,-97.94 451.37,-101.92 456.43,-106 535.37,-169.75 615.17,-263.79 639.75,-293.59"/>
<polygon fill="#9a32cd" stroke="#9a32cd" points="442.02,-91.44 431.67,-89.18 438.35,-97.4 442.02,-91.44"/>
</a>
</g>
<text text-anchor="middle" x="631.93" y="-174.5" font-family="Helvetica,sans-Serif" font-size="10.00" fill="grey"> m_Subgroups</text>
</g>
<!-- Node9&#45;&gt;Node9 -->
<g id="edge20_Node000009_Node000009" class="edge">
<title>Node9&#45;&gt;Node9</title>
<g id="a_edge20_Node000009_Node000009"><a xlink:title=" ">
<path fill="none" stroke="#9a32cd" stroke-dasharray="5,2" d="M468.06,-82.76C472.16,-81.7 474.68,-80.11 474.68,-78 474.68,-74.35 467.14,-72.26 456.92,-71.75"/>
<polygon fill="#9a32cd" stroke="#9a32cd" points="467.87,-79.26 458.42,-84.05 468.79,-86.19 467.87,-79.26"/>
</a>
</g>
<text text-anchor="middle" x="506.18" y="-74.5" font-family="Helvetica,sans-Serif" font-size="10.00" fill="grey"> m_Subgroups</text>
</g>
<!-- Node10 -->
<g id="Node000010" class="node">
<title>Node10</title>
<g id="a_Node000010"><a xlink:href="../../d9/d09/classbool.html" target="_top" xlink:title=" ">
<polygon fill="white" stroke="#666666" points="1240.43,-88 1206.43,-88 1206.43,-68 1240.43,-68 1240.43,-88"/>
<text text-anchor="middle" x="1223.43" y="-74.5" font-family="Helvetica,sans-Serif" font-size="10.00">bool</text>
</a>
</g>
</g>
<!-- Node10&#45;&gt;Node1 -->
<g id="edge25_Node000001_Node000010" class="edge">
<title>Node10&#45;&gt;Node1</title>
<g id="a_edge25_Node000001_Node000010"><a xlink:title=" ">
<path fill="none" stroke="#9a32cd" stroke-dasharray="5,2" d="M1212.17,-58.34C1206.96,-51.09 1200.21,-43.27 1192.43,-38 1171.9,-24.1 1144.02,-17.18 1124.75,-13.86"/>
<polygon fill="#9a32cd" stroke="#9a32cd" points="1209,-59.9 1217.42,-66.33 1214.85,-56.06 1209,-59.9"/>
</a>
</g>
<text text-anchor="middle" x="1241.8" y="-40.5" font-family="Helvetica,sans-Serif" font-size="10.00" fill="grey"> m_EnabledLogs</text>
</g>
</g>
</svg>

<g id="navigator" transform="translate(0 0)" fill="#404254">
  <rect fill="#f2f5e9" fill-opacity="0.5" stroke="#606060" stroke-width=".5" x="0" y="0" width="60" height="60"/>
  <use id="zoomplus" xlink:href="#zoomPlus" x="17" y="9" onmousedown="handleZoom(evt,'in')"/>
  <use id="zoomminus" xlink:href="#zoomMin" x="42" y="9" onmousedown="handleZoom(evt,'out')"/>
  <use id="reset" xlink:href="#resetDef" x="30" y="36" onmousedown="handleReset()"/>
   <use id="arrowup" xlink:href="#arrowUp" x="0" y="0" onmousedown="handlePan(0,-1)"/>
  <use id="arrowright" xlink:href="#arrowRight" x="0" y="0" onmousedown="handlePan(1,0)"/>
  <use id="arrowdown" xlink:href="#arrowDown" x="0" y="0" onmousedown="handlePan(0,1)"/>
  <use id="arrowleft" xlink:href="#arrowLeft" x="0" y="0" onmousedown="handlePan(-1,0)"/>
</g>
<svg viewBox="0 0 15 15" width="100%" height="30px" preserveAspectRatio="xMaxYMin meet">
 <g id="arrow_out" transform="scale(0.3 0.3)">
  <a xlink:href="class_debug__coll__graph_org.svg" target="_base">
   <rect id="button" ry="5" rx="5" y="6" x="6" height="38" width="38"
        fill="#f2f5e9" fill-opacity="0.5" stroke="#606060" stroke-width="1.0"/>
   <path id="arrow"
     d="M 11.500037,31.436501 C 11.940474,20.09759 22.043105,11.32322 32.158766,21.979434 L 37.068811,17.246167 C 37.068811,17.246167 37.088388,32 37.088388,32 L 22.160133,31.978069 C 22.160133,31.978069 26.997745,27.140456 26.997745,27.140456 C 18.528582,18.264221 13.291696,25.230495 11.500037,31.436501 z"
     style="fill:#404040;"/>
  </a>
 </g>
</svg>

<style type='text/css'>
<![CDATA[
[data-mouse-over-selected='false'] { opacity: 0.7; }
[data-mouse-over-selected='true']  { opacity: 1.0; }
]]>
</style>
<script type="application/ecmascript"><![CDATA[
document.addEventListener('DOMContentLoaded', (event) => {
  highlightEdges();
  highlightAdjacentNodes();
});
]]></script>
</svg>
