<?xml version="1.0" encoding="UTF-8" standalone="no"?>
<!DOCTYPE svg PUBLIC "-//W3C//DTD SVG 1.1//EN"
 "http://www.w3.org/Graphics/SVG/1.1/DTD/svg11.dtd">
<!-- Generated by graphviz version 11.0.0 (20240428.1522)
 -->
<!-- Title: ScriptConsoleOutputTab Pages: 1 -->
<svg width="403pt" height="280pt"
 viewBox="0.00 0.00 402.62 280.00" xmlns="http://www.w3.org/2000/svg" xmlns:xlink="http://www.w3.org/1999/xlink">
<g id="graph0" class="graph" transform="scale(1 1) rotate(0) translate(4 276)">
<title>ScriptConsoleOutputTab</title>
<!-- Node1 -->
<g id="Node000001" class="node">
<title>Node1</title>
<g id="a_Node000001"><a xlink:title=" ">
<polygon fill="#999999" stroke="#666666" points="187.75,-20 66,-20 66,0 187.75,0 187.75,-20"/>
<text text-anchor="middle" x="126.88" y="-6.5" font-family="Helvetica,sans-Serif" font-size="10.00">ScriptConsoleOutputTab</text>
</a>
</g>
</g>
<!-- Node2 -->
<g id="Node000002" class="node">
<title>Node2</title>
<g id="a_Node000002"><a xlink:href="../../d8/d09/class_script_console_tab_base.html" target="_top" xlink:title=" ">
<polygon fill="white" stroke="#666666" points="184.38,-76 69.38,-76 69.38,-56 184.38,-56 184.38,-76"/>
<text text-anchor="middle" x="126.88" y="-62.5" font-family="Helvetica,sans-Serif" font-size="10.00">ScriptConsoleTabBase</text>
</a>
</g>
</g>
<!-- Node2&#45;&gt;Node1 -->
<g id="edge1_Node000001_Node000002" class="edge">
<title>Node2&#45;&gt;Node1</title>
<g id="a_edge1_Node000001_Node000002"><a xlink:title=" ">
<path fill="none" stroke="#8b1a1a" d="M126.88,-44.13C126.88,-35.9 126.88,-26.85 126.88,-20.3"/>
<polygon fill="#8b1a1a" stroke="#8b1a1a" points="123.38,-44.08 126.88,-54.08 130.38,-44.08 123.38,-44.08"/>
</a>
</g>
</g>
<!-- Node2&#45;&gt;Node2 -->
<g id="edge5_Node000002_Node000002" class="edge">
<title>Node2&#45;&gt;Node2</title>
<g id="a_edge5_Node000002_Node000002"><a xlink:title=" ">
<path fill="none" stroke="#9a32cd" stroke-dasharray="5,2" d="M195.92,-69.59C199.96,-68.73 202.38,-67.53 202.38,-66 202.38,-63.35 195.15,-61.7 184.8,-61.06"/>
<polygon fill="#9a32cd" stroke="#9a32cd" points="195.81,-66.08 186.31,-70.76 196.65,-73.03 195.81,-66.08"/>
</a>
</g>
<text text-anchor="middle" x="224.88" y="-62.5" font-family="Helvetica,sans-Serif" font-size="10.00" fill="grey"> m_Parent</text>
</g>
<!-- Node3 -->
<g id="Node000003" class="node">
<title>Node3</title>
<g id="a_Node000003"><a xlink:href="../../db/d06/class_param3.html" target="_top" xlink:title=" ">
<polygon fill="white" stroke="#666666" points="49.75,-168 0,-168 0,-148 49.75,-148 49.75,-168"/>
<text text-anchor="middle" x="24.88" y="-154.5" font-family="Helvetica,sans-Serif" font-size="10.00">Param3</text>
</a>
</g>
</g>
<!-- Node3&#45;&gt;Node2 -->
<g id="edge2_Node000002_Node000003" class="edge">
<title>Node3&#45;&gt;Node2</title>
<g id="a_edge2_Node000002_Node000003"><a xlink:title=" ">
<path fill="none" stroke="#9a32cd" stroke-dasharray="5,2" d="M28.83,-136.3C32.43,-122.63 39.06,-105.24 50.88,-94 59.19,-86.09 69.98,-80.47 80.8,-76.5"/>
<polygon fill="#9a32cd" stroke="#9a32cd" points="25.42,-135.52 26.64,-146.04 32.25,-137.05 25.42,-135.52"/>
</a>
</g>
<text text-anchor="middle" x="62.88" y="-108.5" font-family="Helvetica,sans-Serif" font-size="10.00" fill="grey"> m_Id</text>
</g>
<!-- Node4 -->
<g id="Node000004" class="node">
<title>Node4</title>
<g id="a_Node000004"><a xlink:href="../../d9/d09/classbool.html" target="_top" xlink:title=" ">
<polygon fill="white" stroke="#666666" points="101.88,-168 67.88,-168 67.88,-148 101.88,-148 101.88,-168"/>
<text text-anchor="middle" x="84.88" y="-154.5" font-family="Helvetica,sans-Serif" font-size="10.00">bool</text>
</a>
</g>
</g>
<!-- Node4&#45;&gt;Node2 -->
<g id="edge3_Node000002_Node000004" class="edge">
<title>Node4&#45;&gt;Node2</title>
<g id="a_edge3_Node000002_Node000004"><a xlink:title=" ">
<path fill="none" stroke="#9a32cd" stroke-dasharray="5,2" d="M80.46,-136.73C78.7,-123.73 78.53,-106.94 85.62,-94 89.74,-86.5 96.93,-80.73 104.17,-76.5"/>
<polygon fill="#9a32cd" stroke="#9a32cd" points="76.96,-137.06 82.17,-146.28 83.85,-135.82 76.96,-137.06"/>
</a>
</g>
<text text-anchor="middle" x="116" y="-108.5" font-family="Helvetica,sans-Serif" font-size="10.00" fill="grey"> m_IsSelected</text>
</g>
<!-- Node5 -->
<g id="Node000005" class="node">
<title>Node5</title>
<g id="a_Node000005"><a xlink:href="../../dd/d0a/class_widget.html" target="_top" xlink:title=" ">
<polygon fill="white" stroke="#666666" points="193.25,-168 146.5,-168 146.5,-148 193.25,-148 193.25,-168"/>
<text text-anchor="middle" x="169.88" y="-154.5" font-family="Helvetica,sans-Serif" font-size="10.00">Widget</text>
</a>
</g>
</g>
<!-- Node5&#45;&gt;Node2 -->
<g id="edge4_Node000002_Node000005" class="edge">
<title>Node5&#45;&gt;Node2</title>
<g id="a_edge4_Node000002_Node000005"><a xlink:title=" ">
<path fill="none" stroke="#9a32cd" stroke-dasharray="5,2" d="M164.65,-136.82C160.92,-124.1 155.26,-107.57 147.88,-94 144.47,-87.74 139.64,-81.42 135.47,-76.46"/>
<polygon fill="#9a32cd" stroke="#9a32cd" points="161.2,-137.46 167.23,-146.18 167.95,-135.61 161.2,-137.46"/>
</a>
</g>
<text text-anchor="middle" x="193" y="-120.5" font-family="Helvetica,sans-Serif" font-size="10.00" fill="grey"> m_Button</text>
<text text-anchor="middle" x="193" y="-108.5" font-family="Helvetica,sans-Serif" font-size="10.00" fill="grey">m_ParentRoot</text>
<text text-anchor="middle" x="193" y="-96.5" font-family="Helvetica,sans-Serif" font-size="10.00" fill="grey">m_Root</text>
</g>
<!-- Node6 -->
<g id="Node000006" class="node">
<title>Node6</title>
<g id="a_Node000006"><a xlink:href="../../d2/d02/class_plugin_config_debug_profile.html" target="_top" xlink:title=" ">
<polygon fill="white" stroke="#666666" points="336.25,-168 211.5,-168 211.5,-148 336.25,-148 336.25,-168"/>
<text text-anchor="middle" x="273.88" y="-154.5" font-family="Helvetica,sans-Serif" font-size="10.00">PluginConfigDebugProfile</text>
</a>
</g>
</g>
<!-- Node6&#45;&gt;Node2 -->
<g id="edge6_Node000002_Node000006" class="edge">
<title>Node6&#45;&gt;Node2</title>
<g id="a_edge6_Node000002_Node000006"><a xlink:title=" ">
<path fill="none" stroke="#9a32cd" stroke-dasharray="5,2" d="M264.34,-137.59C256.44,-123.48 243.92,-104.99 227.88,-94 215.15,-85.28 199.74,-79.37 184.83,-75.38"/>
<polygon fill="#9a32cd" stroke="#9a32cd" points="261.22,-139.17 268.96,-146.4 267.42,-135.92 261.22,-139.17"/>
</a>
</g>
<text text-anchor="middle" x="308" y="-108.5" font-family="Helvetica,sans-Serif" font-size="10.00" fill="grey"> m_ConfigDebugProfile</text>
</g>
<!-- Node7 -->
<g id="Node000007" class="node">
<title>Node7</title>
<g id="a_Node000007"><a xlink:href="../../d5/d02/classstring.html" target="_top" xlink:title=" ">
<polygon fill="white" stroke="#666666" points="293.88,-272 253.88,-272 253.88,-252 293.88,-252 293.88,-272"/>
<text text-anchor="middle" x="273.88" y="-258.5" font-family="Helvetica,sans-Serif" font-size="10.00">string</text>
</a>
</g>
</g>
<!-- Node7&#45;&gt;Node6 -->
<g id="edge7_Node000006_Node000007" class="edge">
<title>Node7&#45;&gt;Node6</title>
<g id="a_edge7_Node000006_Node000007"><a xlink:title=" ">
<path fill="none" stroke="#9a32cd" stroke-dasharray="5,2" d="M273.88,-240.23C273.88,-218.27 273.88,-184.62 273.88,-168.39"/>
<polygon fill="#9a32cd" stroke="#9a32cd" points="270.38,-240.07 273.88,-250.07 277.38,-240.07 270.38,-240.07"/>
</a>
</g>
<text text-anchor="middle" x="334.25" y="-224.5" font-family="Helvetica,sans-Serif" font-size="10.00" fill="grey"> POSITIONS_LIST</text>
<text text-anchor="middle" x="334.25" y="-212.5" font-family="Helvetica,sans-Serif" font-size="10.00" fill="grey">POSITIONS_LIST_ENOCH</text>
<text text-anchor="middle" x="334.25" y="-200.5" font-family="Helvetica,sans-Serif" font-size="10.00" fill="grey">SUB_PARAM_POS_NAME</text>
<text text-anchor="middle" x="334.25" y="-188.5" font-family="Helvetica,sans-Serif" font-size="10.00" fill="grey">SUB_PARAM_POS_VEC</text>
</g>
<!-- Node7&#45;&gt;Node7 -->
<g id="edge8_Node000007_Node000007" class="edge">
<title>Node7&#45;&gt;Node7</title>
<g id="a_edge8_Node000007_Node000007"><a xlink:title=" ">
<path fill="none" stroke="#9a32cd" stroke-dasharray="5,2" d="M305.63,-270.37C309.41,-268.84 311.88,-266.05 311.88,-262 311.88,-254.59 303.64,-251.4 294.2,-252.44"/>
<polygon fill="#9a32cd" stroke="#9a32cd" points="305.29,-266.89 295.71,-271.4 306.02,-273.85 305.29,-266.89"/>
</a>
</g>
<text text-anchor="middle" x="327.62" y="-258.5" font-family="Helvetica,sans-Serif" font-size="10.00" fill="grey"> Empty</text>
</g>
</g>
</svg>
