<?xml version="1.0" encoding="UTF-8" standalone="no"?>
<!DOCTYPE svg PUBLIC "-//W3C//DTD SVG 1.1//EN"
 "http://www.w3.org/Graphics/SVG/1.1/DTD/svg11.dtd">
<!-- Generated by graphviz version 11.0.0 (20240428.1522)
 -->
<!-- Title: TreeSoft_t_BetulaPendula_1f Pages: 1 -->
<svg width="156pt" height="196pt"
 viewBox="0.00 0.00 156.00 196.00" xmlns="http://www.w3.org/2000/svg" xmlns:xlink="http://www.w3.org/1999/xlink">
<g id="graph0" class="graph" transform="scale(1 1) rotate(0) translate(4 192)">
<title>TreeSoft_t_BetulaPendula_1f</title>
<!-- Node1 -->
<g id="Node000001" class="node">
<title>Node1</title>
<g id="a_Node000001"><a xlink:title=" ">
<polygon fill="#999999" stroke="#666666" points="144.62,-20 3.38,-20 3.38,0 144.62,0 144.62,-20"/>
<text text-anchor="middle" x="74" y="-6.5" font-family="Helvetica,sans-Serif" font-size="10.00">TreeSoft_t_BetulaPendula_1f</text>
</a>
</g>
</g>
<!-- Node2 -->
<g id="Node000002" class="node">
<title>Node2</title>
<g id="a_Node000002"><a xlink:href="../../df/d05/class_tree_soft___betula_pendula___base.html" target="_top" xlink:title=" ">
<polygon fill="white" stroke="#666666" points="148,-76 0,-76 0,-56 148,-56 148,-76"/>
<text text-anchor="middle" x="74" y="-62.5" font-family="Helvetica,sans-Serif" font-size="10.00">TreeSoft_BetulaPendula_Base</text>
</a>
</g>
</g>
<!-- Node2&#45;&gt;Node1 -->
<g id="edge1_Node000001_Node000002" class="edge">
<title>Node2&#45;&gt;Node1</title>
<g id="a_edge1_Node000001_Node000002"><a xlink:title=" ">
<path fill="none" stroke="#8b1a1a" d="M74,-44.13C74,-35.9 74,-26.85 74,-20.3"/>
<polygon fill="#8b1a1a" stroke="#8b1a1a" points="70.5,-44.08 74,-54.08 77.5,-44.08 70.5,-44.08"/>
</a>
</g>
</g>
<!-- Node3 -->
<g id="Node000003" class="node">
<title>Node3</title>
<g id="a_Node000003"><a xlink:href="../../d2/d08/class_tree_soft.html" target="_top" xlink:title="For specific tree declaration see description of TreeHard.">
<polygon fill="white" stroke="#666666" points="100,-132 48,-132 48,-112 100,-112 100,-132"/>
<text text-anchor="middle" x="74" y="-118.5" font-family="Helvetica,sans-Serif" font-size="10.00">TreeSoft</text>
</a>
</g>
</g>
<!-- Node3&#45;&gt;Node2 -->
<g id="edge2_Node000002_Node000003" class="edge">
<title>Node3&#45;&gt;Node2</title>
<g id="a_edge2_Node000002_Node000003"><a xlink:title=" ">
<path fill="none" stroke="#8b1a1a" d="M74,-100.13C74,-91.9 74,-82.85 74,-76.3"/>
<polygon fill="#8b1a1a" stroke="#8b1a1a" points="70.5,-100.08 74,-110.08 77.5,-100.08 70.5,-100.08"/>
</a>
</g>
</g>
<!-- Node4 -->
<g id="Node000004" class="node">
<title>Node4</title>
<g id="a_Node000004"><a xlink:title=" ">
<polygon fill="white" stroke="#666666" points="106,-188 42,-188 42,-168 106,-168 106,-188"/>
<text text-anchor="middle" x="74" y="-174.5" font-family="Helvetica,sans-Serif" font-size="10.00">PlantSuper</text>
</a>
</g>
</g>
<!-- Node4&#45;&gt;Node3 -->
<g id="edge3_Node000003_Node000004" class="edge">
<title>Node4&#45;&gt;Node3</title>
<g id="a_edge3_Node000003_Node000004"><a xlink:title=" ">
<path fill="none" stroke="#8b1a1a" d="M74,-156.13C74,-147.9 74,-138.85 74,-132.3"/>
<polygon fill="#8b1a1a" stroke="#8b1a1a" points="70.5,-156.08 74,-166.08 77.5,-156.08 70.5,-156.08"/>
</a>
</g>
</g>
</g>
</svg>
