<?xml version="1.0" encoding="UTF-8" standalone="no"?>
<!DOCTYPE svg PUBLIC "-//W3C//DTD SVG 1.1//EN"
 "http://www.w3.org/Graphics/SVG/1.1/DTD/svg11.dtd">
<!-- Generated by graphviz version 11.0.0 (20240428.1522)
 -->
<!-- Title: GetServerModListResult Pages: 1 -->
<!--zoomable 346 -->

<svg id="main" version="1.1" xmlns="http://www.w3.org/2000/svg" xmlns:xlink="http://www.w3.org/1999/xlink" xml:space="preserve" onload="init(evt)">
<style type="text/css"><![CDATA[
.node, .edge {opacity: 0.7;}
.node.selected, .edge.selected {opacity: 1;}
.edge:hover path { stroke: red; }
.edge:hover polygon { stroke: red; fill: red; }
]]></style>

<defs>
  <circle id="rim" cx="0" cy="0" r="7"/>
  <circle id="rim2" cx="0" cy="0" r="3.5"/>
  <g id="zoomPlus">
    <use xlink:href="#rim" fill="#404040"><set attributeName="fill" to="#808080" begin="zoomplus.mouseover" end="zoomplus.mouseout"/></use>
    <path d="M-4,0h8M0,-4v8" fill="none" stroke="white" stroke-width="1.5" pointer-events="none"/>
  </g>
  <g id="zoomMin">
    <use xlink:href="#rim" fill="#404040"><set attributeName="fill" to="#808080" begin="zoomminus.mouseover" end="zoomminus.mouseout"/></use>
    <path d="M-4,0h8" fill="none" stroke="white" stroke-width="1.5" pointer-events="none"/>
  </g>
  <g id="arrowUp" transform="translate(30 24)">
    <use xlink:href="#rim"/>
    <path pointer-events="none" fill="none" stroke="white" stroke-width="1.5" d="M0,-3.0v7 M-2.5,-0.5L0,-3.0L2.5,-0.5"/>
  </g>
  <g id="arrowRight" transform="rotate(90) translate(36 -43)">
    <use xlink:href="#rim"/>
    <path pointer-events="none" fill="none" stroke="white" stroke-width="1.5" d="M0,-3.0v7 M-2.5,-0.5L0,-3.0L2.5,-0.5"/>
  </g>
  <g id="arrowDown" transform="rotate(180) translate(-30 -48)">
    <use xlink:href="#rim"/>
    <path pointer-events="none" fill="none" stroke="white" stroke-width="1.5" d="M0,-3.0v7 M-2.5,-0.5L0,-3.0L2.5,-0.5"/>
  </g>
  <g id="arrowLeft" transform="rotate(270) translate(-36 17)">
    <use xlink:href="#rim"/>
    <path pointer-events="none" fill="none" stroke="white" stroke-width="1.5" d="M0,-3.0v7 M-2.5,-0.5L0,-3.0L2.5,-0.5"/>
  </g>
  <g id="resetDef">
    <use xlink:href="#rim2" fill="#404040"><set attributeName="fill" to="#808080" begin="reset.mouseover" end="reset.mouseout"/></use>
  </g>
</defs>
<script type="application/ecmascript">
var viewWidth = 1044;
var viewHeight = 346;
var sectionId = 'dynsection-0';
</script>
<script type="application/ecmascript" xlink:href="../../svg.min.js"/>
<svg id="graph" class="graph">
<g id="viewport">
<title>GetServerModListResult</title>
<!-- Node1 -->
<g id="Node000001" class="node">
<title>Node1</title>
<g id="a_Node000001"><a xlink:title=" ">
<polygon fill="#999999" stroke="#666666" points="121,-20 0,-20 0,0 121,0 121,-20"/>
<text text-anchor="middle" x="60.5" y="-6.5" font-family="Helvetica,sans-Serif" font-size="10.00">GetServerModListResult</text>
</a>
</g>
</g>
<!-- Node2 -->
<g id="Node000002" class="node">
<title>Node2</title>
<g id="a_Node000002"><a xlink:href="../../d5/d02/classstring.html" target="_top" xlink:title=" ">
<polygon fill="white" stroke="#666666" points="158.5,-336 118.5,-336 118.5,-316 158.5,-316 158.5,-336"/>
<text text-anchor="middle" x="138.5" y="-322.5" font-family="Helvetica,sans-Serif" font-size="10.00">string</text>
</a>
</g>
</g>
<!-- Node2&#45;&gt;Node1 -->
<g id="edge1_Node000001_Node000002" class="edge">
<title>Node2&#45;&gt;Node1</title>
<g id="a_edge1_Node000001_Node000002"><a xlink:title=" ">
<path fill="none" stroke="#9a32cd" stroke-dasharray="5,2" d="M115.89,-307.88C113.04,-304.87 110.45,-301.55 108.5,-298 54.79,-200.12 58.04,-57.35 59.93,-20.14"/>
<polygon fill="#9a32cd" stroke="#9a32cd" points="113.41,-310.36 123.17,-314.49 118.12,-305.18 113.41,-310.36"/>
</a>
</g>
<text text-anchor="middle" x="74.5" y="-108.5" font-family="Helvetica,sans-Serif" font-size="10.00" fill="grey"> m_Id</text>
</g>
<!-- Node2&#45;&gt;Node2 -->
<g id="edge2_Node000002_Node000002" class="edge">
<title>Node2&#45;&gt;Node2</title>
<g id="a_edge2_Node000002_Node000002"><a xlink:title=" ">
<path fill="none" stroke="#9a32cd" stroke-dasharray="5,2" d="M164.27,-337.91C171.22,-337.28 176.5,-333.31 176.5,-326 176.5,-315.12 164.8,-311.64 153.32,-315.55"/>
<polygon fill="#9a32cd" stroke="#9a32cd" points="165.2,-334.5 154.82,-336.65 164.27,-341.44 165.2,-334.5"/>
</a>
</g>
<text text-anchor="middle" x="192.25" y="-322.5" font-family="Helvetica,sans-Serif" font-size="10.00" fill="grey"> Empty</text>
</g>
<!-- Node3 -->
<g id="Node000003" class="node">
<title>Node3</title>
<g id="a_Node000003"><a xlink:href="../../d2/d01/classarray.html" target="_top" xlink:title=" ">
<polygon fill="white" stroke="#666666" points="285.38,-88 205.62,-88 205.62,-68 285.38,-68 285.38,-88"/>
<text text-anchor="middle" x="245.5" y="-74.5" font-family="Helvetica,sans-Serif" font-size="10.00">array&lt; string &gt;</text>
</a>
</g>
</g>
<!-- Node2&#45;&gt;Node3 -->
<g id="edge22_Node000003_Node000002" class="edge">
<title>Node2&#45;&gt;Node3</title>
<g id="a_edge22_Node000003_Node000002"><a xlink:title=" ">
<path fill="none" stroke="#9a32cd" stroke-dasharray="5,2" d="M130.48,-305.23C117.1,-268.79 94.69,-189.82 127.25,-136 143.82,-108.6 177.82,-94.11 205.13,-86.61"/>
<polygon fill="#9a32cd" stroke="#9a32cd" points="127.18,-306.38 134.04,-314.45 133.71,-303.86 127.18,-306.38"/>
</a>
</g>
<text text-anchor="middle" x="145.12" y="-168.5" font-family="Helvetica,sans-Serif" font-size="10.00" fill="grey"> m_Test</text>
</g>
<!-- Node6 -->
<g id="Node000006" class="node">
<title>Node6</title>
<g id="a_Node000006"><a xlink:href="../../d2/d01/classarray.html" target="_top" xlink:title="Result for an object found in CGame.IsBoxCollidingGeometryProxy.">
<polygon fill="white" stroke="#666666" points="619.38,-182 581.62,-182 581.62,-162 619.38,-162 619.38,-182"/>
<text text-anchor="middle" x="600.5" y="-168.5" font-family="Helvetica,sans-Serif" font-size="10.00">array</text>
</a>
</g>
</g>
<!-- Node2&#45;&gt;Node6 -->
<g id="edge11_Node000006_Node000002" class="edge">
<title>Node2&#45;&gt;Node6</title>
<g id="a_edge11_Node000006_Node000002"><a xlink:title=" ">
<path fill="none" stroke="#9a32cd" stroke-dasharray="5,2" d="M170.14,-320.06C190.48,-316.03 217.01,-309.14 238.5,-298 282.98,-274.94 278.78,-244.75 325.25,-226 425.37,-185.61 470.03,-254.42 567.5,-208 579.26,-202.4 588.94,-190.63 594.71,-182.29"/>
<polygon fill="#9a32cd" stroke="#9a32cd" points="169.66,-316.59 160.46,-321.84 170.93,-323.47 169.66,-316.59"/>
</a>
</g>
<text text-anchor="middle" x="342.12" y="-258.5" font-family="Helvetica,sans-Serif" font-size="10.00" fill="grey"> m_Test</text>
</g>
<!-- Node9 -->
<g id="Node000009" class="node">
<title>Node9</title>
<g id="a_Node000009"><a xlink:href="../../d2/d01/classarray.html" target="_top" xlink:title=" ">
<polygon fill="white" stroke="#666666" points="724.75,-88 638.25,-88 638.25,-68 724.75,-68 724.75,-88"/>
<text text-anchor="middle" x="681.5" y="-74.5" font-family="Helvetica,sans-Serif" font-size="10.00">array&lt; Widget &gt;</text>
</a>
</g>
</g>
<!-- Node2&#45;&gt;Node9 -->
<g id="edge18_Node000009_Node000002" class="edge">
<title>Node2&#45;&gt;Node9</title>
<g id="a_edge18_Node000009_Node000002"><a xlink:title=" ">
<path fill="none" stroke="#9a32cd" stroke-dasharray="5,2" d="M149.8,-306.03C163.2,-283.19 185.8,-243.46 202.5,-208 217.18,-176.83 206.26,-159.72 231.25,-136 289.04,-81.15 536.55,-77.39 637.93,-78.23"/>
<polygon fill="#9a32cd" stroke="#9a32cd" points="146.88,-304.1 144.8,-314.49 152.9,-307.66 146.88,-304.1"/>
</a>
</g>
<text text-anchor="middle" x="248.12" y="-168.5" font-family="Helvetica,sans-Serif" font-size="10.00" fill="grey"> m_Test</text>
</g>
<!-- Node3&#45;&gt;Node1 -->
<g id="edge3_Node000001_Node000003" class="edge">
<title>Node3&#45;&gt;Node1</title>
<g id="a_edge3_Node000001_Node000003"><a xlink:title=" ">
<path fill="none" stroke="#9a32cd" stroke-dasharray="5,2" d="M208.45,-63.78C172.49,-50.95 118.81,-31.8 86.96,-20.44"/>
<polygon fill="#9a32cd" stroke="#9a32cd" points="206.97,-66.97 217.57,-67.04 209.33,-60.38 206.97,-66.97"/>
</a>
</g>
<text text-anchor="middle" x="190.75" y="-40.5" font-family="Helvetica,sans-Serif" font-size="10.00" fill="grey"> m_Mods</text>
</g>
<!-- Node4 -->
<g id="Node000004" class="node">
<title>Node4</title>
<g id="a_Node000004"><a xlink:href="../../d8/d03/class_object.html" target="_top" xlink:title=" ">
<polygon fill="white" stroke="#666666" points="317.75,-336 273.25,-336 273.25,-316 317.75,-316 317.75,-336"/>
<text text-anchor="middle" x="295.5" y="-322.5" font-family="Helvetica,sans-Serif" font-size="10.00">Object</text>
</a>
</g>
</g>
<!-- Node4&#45;&gt;Node3 -->
<g id="edge4_Node000003_Node000004" class="edge">
<title>Node4&#45;&gt;Node3</title>
<g id="a_edge4_Node000003_Node000004"><a xlink:title=" ">
<path fill="none" stroke="#9a32cd" stroke-dasharray="5,2" d="M270,-309.37C240.82,-289.81 194.61,-253.33 175.5,-208 163.07,-178.51 161.76,-164.9 175.5,-136 185.93,-114.06 209.39,-97.79 226.28,-88.37"/>
<polygon fill="#9a32cd" stroke="#9a32cd" points="267.97,-312.23 278.26,-314.74 271.79,-306.36 267.97,-312.23"/>
</a>
</g>
<text text-anchor="middle" x="189" y="-174.5" font-family="Helvetica,sans-Serif" font-size="10.00" fill="grey"> obj</text>
<text text-anchor="middle" x="189" y="-162.5" font-family="Helvetica,sans-Serif" font-size="10.00" fill="grey">parent</text>
</g>
<!-- Node4&#45;&gt;Node6 -->
<g id="edge7_Node000006_Node000004" class="edge">
<title>Node4&#45;&gt;Node6</title>
<g id="a_edge7_Node000006_Node000004"><a xlink:title=" ">
<path fill="none" stroke="#9a32cd" stroke-dasharray="5,2" d="M328.43,-312.46C339.89,-308 352.8,-302.88 364.5,-298 455.59,-260.01 486.95,-265.03 567.5,-208 577.72,-200.76 587.3,-189.99 593.47,-182.31"/>
<polygon fill="#9a32cd" stroke="#9a32cd" points="327.45,-309.08 319.39,-315.95 329.98,-315.61 327.45,-309.08"/>
</a>
</g>
<text text-anchor="middle" x="553" y="-264.5" font-family="Helvetica,sans-Serif" font-size="10.00" fill="grey"> obj</text>
<text text-anchor="middle" x="553" y="-252.5" font-family="Helvetica,sans-Serif" font-size="10.00" fill="grey">parent</text>
</g>
<!-- Node4&#45;&gt;Node9 -->
<g id="edge14_Node000009_Node000004" class="edge">
<title>Node4&#45;&gt;Node9</title>
<g id="a_edge14_Node000009_Node000004"><a xlink:title=" ">
<path fill="none" stroke="#9a32cd" stroke-dasharray="5,2" d="M288,-305.06C275.16,-267.11 254.1,-183.96 295.5,-136 339.32,-85.23 546.26,-78.9 637.79,-78.63"/>
<polygon fill="#9a32cd" stroke="#9a32cd" points="284.63,-306.03 291.29,-314.27 291.22,-303.68 284.63,-306.03"/>
</a>
</g>
<text text-anchor="middle" x="309" y="-174.5" font-family="Helvetica,sans-Serif" font-size="10.00" fill="grey"> obj</text>
<text text-anchor="middle" x="309" y="-162.5" font-family="Helvetica,sans-Serif" font-size="10.00" fill="grey">parent</text>
</g>
<!-- Node5 -->
<g id="Node000005" class="node">
<title>Node5</title>
<g id="a_Node000005"><a xlink:href="../../db/d06/class_param3.html" target="_top" xlink:title=" ">
<polygon fill="white" stroke="#666666" points="609.38,-336 559.62,-336 559.62,-316 609.38,-316 609.38,-336"/>
<text text-anchor="middle" x="584.5" y="-322.5" font-family="Helvetica,sans-Serif" font-size="10.00">Param3</text>
</a>
</g>
</g>
<!-- Node5&#45;&gt;Node3 -->
<g id="edge5_Node000003_Node000005" class="edge">
<title>Node5&#45;&gt;Node3</title>
<g id="a_edge5_Node000003_Node000005"><a xlink:title=" ">
<path fill="none" stroke="#9a32cd" stroke-dasharray="5,2" d="M548.59,-317.64C532.06,-313.36 512.6,-306.99 496.5,-298 454.15,-274.36 455.55,-251.83 414.5,-226 397.22,-215.13 387.81,-221.21 372.25,-208 343.34,-183.47 352.67,-163.43 326.5,-136 307.39,-115.97 280.28,-98.59 262.79,-88.45"/>
<polygon fill="#9a32cd" stroke="#9a32cd" points="547.46,-320.97 558.01,-319.93 549.11,-314.17 547.46,-320.97"/>
</a>
</g>
<text text-anchor="middle" x="429.62" y="-198.5" font-family="Helvetica,sans-Serif" font-size="10.00" fill="grey"> NO_SORTING</text>
<text text-anchor="middle" x="429.62" y="-186.5" font-family="Helvetica,sans-Serif" font-size="10.00" fill="grey">geomLevel</text>
<text text-anchor="middle" x="429.62" y="-174.5" font-family="Helvetica,sans-Serif" font-size="10.00" fill="grey">hierLevel</text>
<text text-anchor="start" x="371.5" y="-162.5" font-family="Helvetica,sans-Serif" font-size="10.00" fill="grey">m_CurrentSettingAlternate</text>
<text text-anchor="middle" x="429.62" y="-150.5" font-family="Helvetica,sans-Serif" font-size="10.00" fill="grey">KeyIndex</text>
<text text-anchor="middle" x="429.62" y="-138.5" font-family="Helvetica,sans-Serif" font-size="10.00" fill="grey">m_CurrentSettingKeyIndex</text>
</g>
<!-- Node5&#45;&gt;Node6 -->
<g id="edge8_Node000006_Node000005" class="edge">
<title>Node5&#45;&gt;Node6</title>
<g id="a_edge8_Node000006_Node000005"><a xlink:title=" ">
<path fill="none" stroke="#9a32cd" stroke-dasharray="5,2" d="M583.02,-304.21C581.98,-284.09 581.37,-252.79 585.25,-226 587.53,-210.27 593.26,-192.65 597.02,-182.21"/>
<polygon fill="#9a32cd" stroke="#9a32cd" points="579.53,-304.38 583.64,-314.14 586.51,-303.95 579.53,-304.38"/>
</a>
</g>
<text text-anchor="middle" x="642.62" y="-288.5" font-family="Helvetica,sans-Serif" font-size="10.00" fill="grey"> NO_SORTING</text>
<text text-anchor="middle" x="642.62" y="-276.5" font-family="Helvetica,sans-Serif" font-size="10.00" fill="grey">geomLevel</text>
<text text-anchor="middle" x="642.62" y="-264.5" font-family="Helvetica,sans-Serif" font-size="10.00" fill="grey">hierLevel</text>
<text text-anchor="start" x="584.5" y="-252.5" font-family="Helvetica,sans-Serif" font-size="10.00" fill="grey">m_CurrentSettingAlternate</text>
<text text-anchor="middle" x="642.62" y="-240.5" font-family="Helvetica,sans-Serif" font-size="10.00" fill="grey">KeyIndex</text>
<text text-anchor="middle" x="642.62" y="-228.5" font-family="Helvetica,sans-Serif" font-size="10.00" fill="grey">m_CurrentSettingKeyIndex</text>
</g>
<!-- Node5&#45;&gt;Node9 -->
<g id="edge15_Node000009_Node000005" class="edge">
<title>Node5&#45;&gt;Node9</title>
<g id="a_edge15_Node000009_Node000005"><a xlink:title=" ">
<path fill="none" stroke="#9a32cd" stroke-dasharray="5,2" d="M621.18,-320.98C651.27,-316.9 690.6,-309.54 701.5,-298 751.66,-244.89 714.68,-207.58 729.25,-136 731.94,-122.8 740.49,-117.51 733.5,-106 728.75,-98.18 720.91,-92.52 712.74,-88.47"/>
<polygon fill="#9a32cd" stroke="#9a32cd" points="620.76,-317.5 611.28,-322.24 621.65,-324.45 620.76,-317.5"/>
</a>
</g>
<text text-anchor="middle" x="786.62" y="-198.5" font-family="Helvetica,sans-Serif" font-size="10.00" fill="grey"> NO_SORTING</text>
<text text-anchor="middle" x="786.62" y="-186.5" font-family="Helvetica,sans-Serif" font-size="10.00" fill="grey">geomLevel</text>
<text text-anchor="middle" x="786.62" y="-174.5" font-family="Helvetica,sans-Serif" font-size="10.00" fill="grey">hierLevel</text>
<text text-anchor="start" x="728.5" y="-162.5" font-family="Helvetica,sans-Serif" font-size="10.00" fill="grey">m_CurrentSettingAlternate</text>
<text text-anchor="middle" x="786.62" y="-150.5" font-family="Helvetica,sans-Serif" font-size="10.00" fill="grey">KeyIndex</text>
<text text-anchor="middle" x="786.62" y="-138.5" font-family="Helvetica,sans-Serif" font-size="10.00" fill="grey">m_CurrentSettingKeyIndex</text>
</g>
<!-- Node6&#45;&gt;Node3 -->
<g id="edge6_Node000003_Node000006" class="edge">
<title>Node6&#45;&gt;Node3</title>
<g id="a_edge6_Node000003_Node000006"><a xlink:title=" ">
<path fill="none" stroke="#9a32cd" stroke-dasharray="5,2" d="M586,-152.96C580.62,-147.05 574.2,-140.77 567.5,-136 551.62,-124.69 545.04,-126.51 527.5,-118 517.13,-112.97 515.54,-109.32 504.5,-106 429.39,-83.39 337.13,-79.03 285.46,-78.56"/>
<polygon fill="#9a32cd" stroke="#9a32cd" points="583.32,-155.22 592.48,-160.55 588.64,-150.68 583.32,-155.22"/>
</a>
</g>
<text text-anchor="middle" x="548.5" y="-108.5" font-family="Helvetica,sans-Serif" font-size="10.00" fill="grey"> proxyInfo</text>
</g>
<!-- Node6&#45;&gt;Node6 -->
<g id="edge9_Node000006_Node000006" class="edge">
<title>Node6&#45;&gt;Node6</title>
<g id="a_edge9_Node000006_Node000006"><a xlink:title=" ">
<path fill="none" stroke="#9a32cd" stroke-dasharray="5,2" d="M628.52,-182.66C633.72,-181.34 637.38,-177.78 637.38,-172 637.38,-162.51 627.53,-159.02 617.19,-161.54"/>
<polygon fill="#9a32cd" stroke="#9a32cd" points="628.76,-179.17 618.7,-182.48 628.63,-186.16 628.76,-179.17"/>
</a>
</g>
<text text-anchor="middle" x="658.38" y="-168.5" font-family="Helvetica,sans-Serif" font-size="10.00" fill="grey"> proxyInfo</text>
</g>
<!-- Node6&#45;&gt;Node9 -->
<g id="edge16_Node000009_Node000006" class="edge">
<title>Node6&#45;&gt;Node9</title>
<g id="a_edge16_Node000009_Node000006"><a xlink:title=" ">
<path fill="none" stroke="#9a32cd" stroke-dasharray="5,2" d="M599.74,-150.48C600.29,-136.48 603.23,-118.32 613.5,-106 620.17,-98 629.55,-92.36 639.21,-88.38"/>
<polygon fill="#9a32cd" stroke="#9a32cd" points="596.24,-150.37 599.76,-160.36 603.24,-150.36 596.24,-150.37"/>
</a>
</g>
<text text-anchor="middle" x="634.5" y="-108.5" font-family="Helvetica,sans-Serif" font-size="10.00" fill="grey"> proxyInfo</text>
</g>
<!-- Node7 -->
<g id="Node000007" class="node">
<title>Node7</title>
<g id="a_Node000007"><a xlink:href="../../d4/d04/class_class.html" target="_top" xlink:title="Super root of all classes in Enforce script.">
<polygon fill="white" stroke="#666666" points="768.88,-336 728.12,-336 728.12,-316 768.88,-316 768.88,-336"/>
<text text-anchor="middle" x="748.5" y="-322.5" font-family="Helvetica,sans-Serif" font-size="10.00">Class</text>
</a>
</g>
</g>
<!-- Node7&#45;&gt;Node3 -->
<g id="edge21_Node000003_Node000007" class="edge">
<title>Node7&#45;&gt;Node3</title>
<g id="a_edge21_Node000003_Node000007"><a xlink:title=" ">
<path fill="none" stroke="#9a32cd" stroke-dasharray="5,2" d="M716.64,-323.06C673.66,-319.92 599.9,-312.56 577.5,-298 537.55,-272.03 541.63,-250.06 519.25,-208 502.9,-177.28 515.14,-158.38 488.5,-136 458.06,-110.42 346.41,-92.23 285.61,-83.97"/>
<polygon fill="#9a32cd" stroke="#9a32cd" points="716.15,-326.53 726.37,-323.73 716.63,-319.55 716.15,-326.53"/>
</a>
</g>
<text text-anchor="middle" x="545.12" y="-168.5" font-family="Helvetica,sans-Serif" font-size="10.00" fill="grey"> m_Instance</text>
</g>
<!-- Node7&#45;&gt;Node6 -->
<g id="edge10_Node000006_Node000007" class="edge">
<title>Node7&#45;&gt;Node6</title>
<g id="a_edge10_Node000006_Node000007"><a xlink:title=" ">
<path fill="none" stroke="#9a32cd" stroke-dasharray="5,2" d="M743.83,-304.75C737.9,-282.97 725.8,-248.47 704.5,-226 680.79,-201 642.71,-185.83 619.8,-178.46"/>
<polygon fill="#9a32cd" stroke="#9a32cd" points="740.36,-305.33 746.19,-314.17 747.15,-303.62 740.36,-305.33"/>
</a>
</g>
<text text-anchor="middle" x="767.12" y="-258.5" font-family="Helvetica,sans-Serif" font-size="10.00" fill="grey"> m_Instance</text>
</g>
<!-- Node7&#45;&gt;Node9 -->
<g id="edge17_Node000009_Node000007" class="edge">
<title>Node7&#45;&gt;Node9</title>
<g id="a_edge17_Node000009_Node000007"><a xlink:title=" ">
<path fill="none" stroke="#9a32cd" stroke-dasharray="5,2" d="M780.57,-324.49C805.3,-322.55 839.13,-316.35 862.5,-298 921.38,-251.79 954.53,-195.02 908.5,-136 886.2,-107.4 784.63,-90.97 725.18,-83.65"/>
<polygon fill="#9a32cd" stroke="#9a32cd" points="780.54,-320.98 770.75,-325.05 780.94,-327.97 780.54,-320.98"/>
</a>
</g>
<text text-anchor="middle" x="956.12" y="-168.5" font-family="Helvetica,sans-Serif" font-size="10.00" fill="grey"> m_Instance</text>
</g>
<!-- Node8 -->
<g id="Node000008" class="node">
<title>Node8</title>
<g id="a_Node000008"><a xlink:href="../../dd/d0a/class_widget.html" target="_top" xlink:title=" ">
<polygon fill="white" stroke="#666666" points="924.88,-336 878.12,-336 878.12,-316 924.88,-316 924.88,-336"/>
<text text-anchor="middle" x="901.5" y="-322.5" font-family="Helvetica,sans-Serif" font-size="10.00">Widget</text>
</a>
</g>
</g>
<!-- Node8&#45;&gt;Node3 -->
<g id="edge23_Node000003_Node000008" class="edge">
<title>Node8&#45;&gt;Node3</title>
<g id="a_edge23_Node000003_Node000008"><a xlink:title=" ">
<path fill="none" stroke="#9a32cd" stroke-dasharray="5,2" d="M902.54,-304.29C902.72,-283.36 900.53,-250.66 887.5,-226 881.95,-215.5 874.12,-218.03 867.75,-208 849.8,-179.73 871.7,-156.86 845.5,-136 803.14,-102.27 655.44,-129.36 602.5,-118 587.24,-114.73 584.74,-109.34 569.5,-106 469.02,-83.96 347.4,-79.62 285.66,-78.94"/>
<polygon fill="#9a32cd" stroke="#9a32cd" points="899.05,-304.02 902.25,-314.12 906.05,-304.23 899.05,-304.02"/>
</a>
</g>
<text text-anchor="middle" x="885.88" y="-168.5" font-family="Helvetica,sans-Serif" font-size="10.00" fill="grey"> m_Root</text>
</g>
<!-- Node8&#45;&gt;Node6 -->
<g id="edge12_Node000006_Node000008" class="edge">
<title>Node8&#45;&gt;Node6</title>
<g id="a_edge12_Node000006_Node000008"><a xlink:title=" ">
<path fill="none" stroke="#9a32cd" stroke-dasharray="5,2" d="M868.85,-310.41C862.5,-306.83 856.16,-302.66 850.75,-298 820.6,-272.01 831.38,-246.89 797.5,-226 757.57,-201.37 738.76,-220.32 693.5,-208 667.37,-200.89 638.31,-189.34 619.74,-181.46"/>
<polygon fill="#9a32cd" stroke="#9a32cd" points="866.84,-313.31 877.33,-314.84 870.09,-307.11 866.84,-313.31"/>
</a>
</g>
<text text-anchor="middle" x="868.88" y="-258.5" font-family="Helvetica,sans-Serif" font-size="10.00" fill="grey"> m_Root</text>
</g>
<!-- Node8&#45;&gt;Node9 -->
<g id="edge19_Node000009_Node000008" class="edge">
<title>Node8&#45;&gt;Node9</title>
<g id="a_edge19_Node000009_Node000008"><a xlink:title=" ">
<path fill="none" stroke="#9a32cd" stroke-dasharray="5,2" d="M920.2,-308.11C956.48,-273.32 1029.23,-192.22 986.5,-136 955.45,-95.15 801.72,-83.53 725.08,-80.26"/>
<polygon fill="#9a32cd" stroke="#9a32cd" points="918.27,-305.13 913.37,-314.52 923.06,-310.24 918.27,-305.13"/>
</a>
</g>
<text text-anchor="middle" x="1017.88" y="-168.5" font-family="Helvetica,sans-Serif" font-size="10.00" fill="grey"> m_Root</text>
</g>
<!-- Node9&#45;&gt;Node6 -->
<g id="edge13_Node000006_Node000009" class="edge">
<title>Node9&#45;&gt;Node6</title>
<g id="a_edge13_Node000006_Node000009"><a xlink:title=" ">
<path fill="none" stroke="#9a32cd" stroke-dasharray="5,2" d="M672.22,-98.31C668.67,-104.86 664.3,-112.02 659.5,-118 645.54,-135.4 625.62,-152 612.88,-161.85"/>
<polygon fill="#9a32cd" stroke="#9a32cd" points="675.27,-100.04 676.69,-89.54 669.03,-96.87 675.27,-100.04"/>
</a>
</g>
<text text-anchor="middle" x="698" y="-108.5" font-family="Helvetica,sans-Serif" font-size="10.00" fill="grey"> m_Subgroups</text>
</g>
<!-- Node9&#45;&gt;Node9 -->
<g id="edge20_Node000009_Node000009" class="edge">
<title>Node9&#45;&gt;Node9</title>
<g id="a_edge20_Node000009_Node000009"><a xlink:title=" ">
<path fill="none" stroke="#9a32cd" stroke-dasharray="5,2" d="M736.13,-82.76C740.23,-81.7 742.75,-80.11 742.75,-78 742.75,-74.35 735.21,-72.26 724.99,-71.75"/>
<polygon fill="#9a32cd" stroke="#9a32cd" points="735.94,-79.26 726.49,-84.05 736.87,-86.19 735.94,-79.26"/>
</a>
</g>
<text text-anchor="middle" x="774.25" y="-74.5" font-family="Helvetica,sans-Serif" font-size="10.00" fill="grey"> m_Subgroups</text>
</g>
</g>
</svg>

<g id="navigator" transform="translate(0 0)" fill="#404254">
  <rect fill="#f2f5e9" fill-opacity="0.5" stroke="#606060" stroke-width=".5" x="0" y="0" width="60" height="60"/>
  <use id="zoomplus" xlink:href="#zoomPlus" x="17" y="9" onmousedown="handleZoom(evt,'in')"/>
  <use id="zoomminus" xlink:href="#zoomMin" x="42" y="9" onmousedown="handleZoom(evt,'out')"/>
  <use id="reset" xlink:href="#resetDef" x="30" y="36" onmousedown="handleReset()"/>
   <use id="arrowup" xlink:href="#arrowUp" x="0" y="0" onmousedown="handlePan(0,-1)"/>
  <use id="arrowright" xlink:href="#arrowRight" x="0" y="0" onmousedown="handlePan(1,0)"/>
  <use id="arrowdown" xlink:href="#arrowDown" x="0" y="0" onmousedown="handlePan(0,1)"/>
  <use id="arrowleft" xlink:href="#arrowLeft" x="0" y="0" onmousedown="handlePan(-1,0)"/>
</g>
<svg viewBox="0 0 15 15" width="100%" height="30px" preserveAspectRatio="xMaxYMin meet">
 <g id="arrow_out" transform="scale(0.3 0.3)">
  <a xlink:href="class_get_server_mod_list_result__coll__graph_org.svg" target="_base">
   <rect id="button" ry="5" rx="5" y="6" x="6" height="38" width="38"
        fill="#f2f5e9" fill-opacity="0.5" stroke="#606060" stroke-width="1.0"/>
   <path id="arrow"
     d="M 11.500037,31.436501 C 11.940474,20.09759 22.043105,11.32322 32.158766,21.979434 L 37.068811,17.246167 C 37.068811,17.246167 37.088388,32 37.088388,32 L 22.160133,31.978069 C 22.160133,31.978069 26.997745,27.140456 26.997745,27.140456 C 18.528582,18.264221 13.291696,25.230495 11.500037,31.436501 z"
     style="fill:#404040;"/>
  </a>
 </g>
</svg>

<style type='text/css'>
<![CDATA[
[data-mouse-over-selected='false'] { opacity: 0.7; }
[data-mouse-over-selected='true']  { opacity: 1.0; }
]]>
</style>
<script type="application/ecmascript"><![CDATA[
document.addEventListener('DOMContentLoaded', (event) => {
  highlightEdges();
  highlightAdjacentNodes();
});
]]></script>
</svg>
