<?xml version="1.0" encoding="UTF-8" standalone="no"?>
<!DOCTYPE svg PUBLIC "-//W3C//DTD SVG 1.1//EN"
 "http://www.w3.org/Graphics/SVG/1.1/DTD/svg11.dtd">
<!-- Generated by graphviz version 11.0.0 (20240428.1522)
 -->
<!-- Title: DebugMonitorValues Pages: 1 -->
<svg width="492pt" height="324pt"
 viewBox="0.00 0.00 491.62 324.00" xmlns="http://www.w3.org/2000/svg" xmlns:xlink="http://www.w3.org/1999/xlink">
<g id="graph0" class="graph" transform="scale(1 1) rotate(0) translate(4 320)">
<title>DebugMonitorValues</title>
<!-- Node1 -->
<g id="Node000001" class="node">
<title>Node1</title>
<g id="a_Node000001"><a xlink:title=" ">
<polygon fill="#999999" stroke="#666666" points="281.88,-20 175.88,-20 175.88,0 281.88,0 281.88,-20"/>
<text text-anchor="middle" x="228.88" y="-6.5" font-family="Helvetica,sans-Serif" font-size="10.00">DebugMonitorValues</text>
</a>
</g>
</g>
<!-- Node2 -->
<g id="Node000002" class="node">
<title>Node2</title>
<g id="a_Node000002"><a xlink:href="../../db/d06/class_param3.html" target="_top" xlink:title=" ">
<polygon fill="white" stroke="#666666" points="49.75,-192 0,-192 0,-172 49.75,-172 49.75,-192"/>
<text text-anchor="middle" x="24.88" y="-178.5" font-family="Helvetica,sans-Serif" font-size="10.00">Param3</text>
</a>
</g>
</g>
<!-- Node2&#45;&gt;Node1 -->
<g id="edge1_Node000001_Node000002" class="edge">
<title>Node2&#45;&gt;Node1</title>
<g id="a_edge1_Node000001_Node000002"><a xlink:title=" ">
<path fill="none" stroke="#9a32cd" stroke-dasharray="5,2" d="M17.62,-160.94C7.98,-130.37 -4.58,-72.07 25.38,-38 44.55,-16.19 121.81,-11.2 175.41,-10.46"/>
<polygon fill="#9a32cd" stroke="#9a32cd" points="14.19,-161.74 20.71,-170.1 20.82,-159.5 14.19,-161.74"/>
</a>
</g>
<text text-anchor="middle" x="77.62" y="-124.5" font-family="Helvetica,sans-Serif" font-size="10.00" fill="grey"> LAST_DAMAGE_FALL</text>
<text text-anchor="middle" x="77.62" y="-112.5" font-family="Helvetica,sans-Serif" font-size="10.00" fill="grey">LAST_DAMAGE_HIT</text>
<text text-anchor="middle" x="77.62" y="-100.5" font-family="Helvetica,sans-Serif" font-size="10.00" fill="grey">TYPE_BLOOD</text>
<text text-anchor="middle" x="77.62" y="-88.5" font-family="Helvetica,sans-Serif" font-size="10.00" fill="grey">TYPE_BODY_TEMP</text>
<text text-anchor="middle" x="77.62" y="-76.5" font-family="Helvetica,sans-Serif" font-size="10.00" fill="grey">TYPE_HEALTH</text>
<text text-anchor="middle" x="77.62" y="-64.5" font-family="Helvetica,sans-Serif" font-size="10.00" fill="grey">TYPE_LAST_DAMAGE</text>
<text text-anchor="middle" x="77.62" y="-52.5" font-family="Helvetica,sans-Serif" font-size="10.00" fill="grey">TYPE_POSITION</text>
</g>
<!-- Node3 -->
<g id="Node000003" class="node">
<title>Node3</title>
<g id="a_Node000003"><a xlink:href="../../d4/d03/classfloat.html" target="_top" xlink:title=" ">
<polygon fill="white" stroke="#666666" points="168.88,-192 134.88,-192 134.88,-172 168.88,-172 168.88,-192"/>
<text text-anchor="middle" x="151.88" y="-178.5" font-family="Helvetica,sans-Serif" font-size="10.00">float</text>
</a>
</g>
</g>
<!-- Node3&#45;&gt;Node1 -->
<g id="edge2_Node000001_Node000003" class="edge">
<title>Node3&#45;&gt;Node1</title>
<g id="a_edge2_Node000001_Node000003"><a xlink:title=" ">
<path fill="none" stroke="#9a32cd" stroke-dasharray="5,2" d="M144.63,-160.8C135.29,-130.93 123.19,-74.54 149.38,-38 155.74,-29.11 165.2,-23.12 175.4,-19.08"/>
<polygon fill="#9a32cd" stroke="#9a32cd" points="141.24,-161.72 147.74,-170.09 147.88,-159.5 141.24,-161.72"/>
</a>
</g>
<text text-anchor="middle" x="214.12" y="-136.5" font-family="Helvetica,sans-Serif" font-size="10.00" fill="grey"> SENSITIVTY_PERCENTAGE</text>
<text text-anchor="middle" x="214.12" y="-124.5" font-family="Helvetica,sans-Serif" font-size="10.00" fill="grey">VALUE_CHECK_INTERVAL</text>
<text text-anchor="middle" x="214.12" y="-112.5" font-family="Helvetica,sans-Serif" font-size="10.00" fill="grey">m_BloodClient</text>
<text text-anchor="middle" x="214.12" y="-100.5" font-family="Helvetica,sans-Serif" font-size="10.00" fill="grey">m_BloodMaxValue</text>
<text text-anchor="middle" x="214.12" y="-88.5" font-family="Helvetica,sans-Serif" font-size="10.00" fill="grey">m_HealthClient</text>
<text text-anchor="middle" x="214.12" y="-76.5" font-family="Helvetica,sans-Serif" font-size="10.00" fill="grey">m_HealthMaxValue</text>
<text text-anchor="middle" x="214.12" y="-64.5" font-family="Helvetica,sans-Serif" font-size="10.00" fill="grey">m_LastBloodUpdate</text>
<text text-anchor="middle" x="214.12" y="-52.5" font-family="Helvetica,sans-Serif" font-size="10.00" fill="grey">m_LastHealthUpdate</text>
<text text-anchor="middle" x="214.12" y="-40.5" font-family="Helvetica,sans-Serif" font-size="10.00" fill="grey">m_TimeSinceLastTick</text>
</g>
<!-- Node3&#45;&gt;Node3 -->
<g id="edge3_Node000003_Node000003" class="edge">
<title>Node3&#45;&gt;Node3</title>
<g id="a_edge3_Node000003_Node000003"><a xlink:title=" ">
<path fill="none" stroke="#9a32cd" stroke-dasharray="5,2" d="M176.08,-194.23C182.25,-193.43 186.88,-189.35 186.88,-182 186.88,-170.53 175.59,-167.03 164.8,-171.51"/>
<polygon fill="#9a32cd" stroke="#9a32cd" points="176.71,-190.78 166.29,-192.72 175.64,-197.7 176.71,-190.78"/>
</a>
</g>
<text text-anchor="middle" x="209" y="-190.5" font-family="Helvetica,sans-Serif" font-size="10.00" fill="grey"> LOWEST</text>
<text text-anchor="middle" x="209" y="-178.5" font-family="Helvetica,sans-Serif" font-size="10.00" fill="grey">MAX</text>
<text text-anchor="middle" x="209" y="-166.5" font-family="Helvetica,sans-Serif" font-size="10.00" fill="grey">MIN</text>
</g>
<!-- Node4 -->
<g id="Node000004" class="node">
<title>Node4</title>
<g id="a_Node000004"><a xlink:href="../../d5/d08/class_player_base.html" target="_top" xlink:title=" ">
<polygon fill="white" stroke="#666666" points="338,-192 271.75,-192 271.75,-172 338,-172 338,-192"/>
<text text-anchor="middle" x="304.88" y="-178.5" font-family="Helvetica,sans-Serif" font-size="10.00">PlayerBase</text>
</a>
</g>
</g>
<!-- Node4&#45;&gt;Node1 -->
<g id="edge4_Node000001_Node000004" class="edge">
<title>Node4&#45;&gt;Node1</title>
<g id="a_edge4_Node000001_Node000004"><a xlink:title=" ">
<path fill="none" stroke="#9a32cd" stroke-dasharray="5,2" d="M307.45,-160.45C310.06,-130.52 310.53,-74.54 283.88,-38 278.17,-30.18 269.57,-24.51 260.86,-20.44"/>
<polygon fill="#9a32cd" stroke="#9a32cd" points="304,-159.73 306.43,-170.04 310.97,-160.47 304,-159.73"/>
</a>
</g>
<text text-anchor="middle" x="330" y="-88.5" font-family="Helvetica,sans-Serif" font-size="10.00" fill="grey"> m_Player</text>
</g>
<!-- Node5 -->
<g id="Node000005" class="node">
<title>Node5</title>
<g id="a_Node000005"><a xlink:href="../../dd/d03/class_scripted_light_base.html" target="_top" xlink:title=" ">
<polygon fill="white" stroke="#666666" points="302.62,-316 207.12,-316 207.12,-296 302.62,-296 302.62,-316"/>
<text text-anchor="middle" x="254.88" y="-302.5" font-family="Helvetica,sans-Serif" font-size="10.00">ScriptedLightBase</text>
</a>
</g>
</g>
<!-- Node5&#45;&gt;Node4 -->
<g id="edge5_Node000004_Node000005" class="edge">
<title>Node5&#45;&gt;Node4</title>
<g id="a_edge5_Node000004_Node000005"><a xlink:title=" ">
<path fill="none" stroke="#9a32cd" stroke-dasharray="5,2" d="M248.77,-284.74C244.4,-266.22 241.04,-238.66 252.12,-218 258.31,-206.48 270.14,-198.1 281.04,-192.44"/>
<polygon fill="#9a32cd" stroke="#9a32cd" points="245.34,-285.47 251.32,-294.22 252.1,-283.65 245.34,-285.47"/>
</a>
</g>
<text text-anchor="middle" x="289.75" y="-244.5" font-family="Helvetica,sans-Serif" font-size="10.00" fill="grey"> m_PersonalLight</text>
</g>
<!-- Node6 -->
<g id="Node000006" class="node">
<title>Node6</title>
<g id="a_Node000006"><a xlink:href="../../d9/d09/classbool.html" target="_top" xlink:title=" ">
<polygon fill="white" stroke="#666666" points="370.88,-316 336.88,-316 336.88,-296 370.88,-296 370.88,-316"/>
<text text-anchor="middle" x="353.88" y="-302.5" font-family="Helvetica,sans-Serif" font-size="10.00">bool</text>
</a>
</g>
</g>
<!-- Node6&#45;&gt;Node4 -->
<g id="edge6_Node000004_Node000006" class="edge">
<title>Node6&#45;&gt;Node4</title>
<g id="a_edge6_Node000004_Node000006"><a xlink:title=" ">
<path fill="none" stroke="#9a32cd" stroke-dasharray="5,2" d="M351.11,-284.43C348.1,-266.27 342.28,-239.41 331.88,-218 327.25,-208.47 319.76,-199.05 313.85,-192.38"/>
<polygon fill="#9a32cd" stroke="#9a32cd" points="347.62,-284.81 352.56,-294.19 354.55,-283.78 347.62,-284.81"/>
</a>
</g>
<text text-anchor="start" x="348.88" y="-268.5" font-family="Helvetica,sans-Serif" font-size="10.00" fill="grey"> m_PersonalLightDisabledBy</text>
<text text-anchor="middle" x="415.25" y="-256.5" font-family="Helvetica,sans-Serif" font-size="10.00" fill="grey">Debug</text>
<text text-anchor="start" x="348.88" y="-244.5" font-family="Helvetica,sans-Serif" font-size="10.00" fill="grey">m_PersonalLightEnabledOn</text>
<text text-anchor="middle" x="415.25" y="-232.5" font-family="Helvetica,sans-Serif" font-size="10.00" fill="grey">CurrentServer</text>
<text text-anchor="middle" x="415.25" y="-220.5" font-family="Helvetica,sans-Serif" font-size="10.00" fill="grey">m_PersonalLightIsSwitchedOn</text>
</g>
<!-- Node7 -->
<g id="Node000007" class="node">
<title>Node7</title>
<g id="a_Node000007"><a xlink:href="../../d5/d02/classstring.html" target="_top" xlink:title=" ">
<polygon fill="white" stroke="#666666" points="395.88,-192 355.88,-192 355.88,-172 395.88,-172 395.88,-192"/>
<text text-anchor="middle" x="375.88" y="-178.5" font-family="Helvetica,sans-Serif" font-size="10.00">string</text>
</a>
</g>
</g>
<!-- Node7&#45;&gt;Node1 -->
<g id="edge7_Node000001_Node000007" class="edge">
<title>Node7&#45;&gt;Node1</title>
<g id="a_edge7_Node000001_Node000007"><a xlink:title=" ">
<path fill="none" stroke="#9a32cd" stroke-dasharray="5,2" d="M379.06,-160.81C382.67,-130.01 384.48,-71.39 352.88,-38 343.03,-27.6 311.21,-20.8 282.27,-16.62"/>
<polygon fill="#9a32cd" stroke="#9a32cd" points="375.65,-159.93 377.75,-170.31 382.58,-160.88 375.65,-159.93"/>
</a>
</g>
<text text-anchor="middle" x="432.25" y="-100.5" font-family="Helvetica,sans-Serif" font-size="10.00" fill="grey"> m_CurrentLastDamage</text>
<text text-anchor="middle" x="432.25" y="-88.5" font-family="Helvetica,sans-Serif" font-size="10.00" fill="grey">m_LastDamageClient</text>
<text text-anchor="middle" x="432.25" y="-76.5" font-family="Helvetica,sans-Serif" font-size="10.00" fill="grey">m_lastDamageUpdate</text>
</g>
<!-- Node7&#45;&gt;Node7 -->
<g id="edge8_Node000007_Node000007" class="edge">
<title>Node7&#45;&gt;Node7</title>
<g id="a_edge8_Node000007_Node000007"><a xlink:title=" ">
<path fill="none" stroke="#9a32cd" stroke-dasharray="5,2" d="M401.16,-194.32C408.35,-193.82 413.88,-189.71 413.88,-182 413.88,-170.53 401.63,-167.03 389.91,-171.51"/>
<polygon fill="#9a32cd" stroke="#9a32cd" points="401.83,-190.88 391.4,-192.73 400.71,-197.79 401.83,-190.88"/>
</a>
</g>
<text text-anchor="middle" x="429.62" y="-178.5" font-family="Helvetica,sans-Serif" font-size="10.00" fill="grey"> Empty</text>
</g>
</g>
</svg>
