<?xml version="1.0" encoding="UTF-8" standalone="no"?>
<!DOCTYPE svg PUBLIC "-//W3C//DTD SVG 1.1//EN"
 "http://www.w3.org/Graphics/SVG/1.1/DTD/svg11.dtd">
<!-- Generated by graphviz version 11.0.0 (20240428.1522)
 -->
<!-- Title: BaseContainer Pages: 1 -->
<svg width="178pt" height="84pt"
 viewBox="0.00 0.00 178.00 84.00" xmlns="http://www.w3.org/2000/svg" xmlns:xlink="http://www.w3.org/1999/xlink">
<g id="graph0" class="graph" transform="scale(1 1) rotate(0) translate(4 80)">
<title>BaseContainer</title>
<!-- Node1 -->
<g id="Node000001" class="node">
<title>Node1</title>
<g id="a_Node000001"><a xlink:title=" ">
<polygon fill="#999999" stroke="#666666" points="124.12,-76 44.38,-76 44.38,-56 124.12,-56 124.12,-76"/>
<text text-anchor="middle" x="84.25" y="-62.5" font-family="Helvetica,sans-Serif" font-size="10.00">BaseContainer</text>
</a>
</g>
</g>
<!-- Node2 -->
<g id="Node000002" class="node">
<title>Node2</title>
<g id="a_Node000002"><a xlink:href="../../dc/d0b/class_i_entity_source.html" target="_top" xlink:title=" ">
<polygon fill="white" stroke="#666666" points="74.5,-20 0,-20 0,0 74.5,0 74.5,-20"/>
<text text-anchor="middle" x="37.25" y="-6.5" font-family="Helvetica,sans-Serif" font-size="10.00">IEntitySource</text>
</a>
</g>
</g>
<!-- Node1&#45;&gt;Node2 -->
<g id="edge1_Node000001_Node000002" class="edge">
<title>Node1&#45;&gt;Node2</title>
<g id="a_edge1_Node000001_Node000002"><a xlink:title=" ">
<path fill="none" stroke="#8b1a1a" d="M68.59,-47C60.8,-38.06 51.72,-27.62 45.34,-20.3"/>
<polygon fill="#8b1a1a" stroke="#8b1a1a" points="65.86,-49.21 75.07,-54.45 71.14,-44.61 65.86,-49.21"/>
</a>
</g>
</g>
<!-- Node3 -->
<g id="Node000003" class="node">
<title>Node3</title>
<g id="a_Node000003"><a xlink:href="../../df/d00/class_widget_source.html" target="_top" xlink:title=" ">
<polygon fill="white" stroke="#666666" points="170,-20 92.5,-20 92.5,0 170,0 170,-20"/>
<text text-anchor="middle" x="131.25" y="-6.5" font-family="Helvetica,sans-Serif" font-size="10.00">WidgetSource</text>
</a>
</g>
</g>
<!-- Node1&#45;&gt;Node3 -->
<g id="edge2_Node000001_Node000003" class="edge">
<title>Node1&#45;&gt;Node3</title>
<g id="a_edge2_Node000001_Node000003"><a xlink:title=" ">
<path fill="none" stroke="#8b1a1a" d="M99.91,-47C107.7,-38.06 116.78,-27.62 123.16,-20.3"/>
<polygon fill="#8b1a1a" stroke="#8b1a1a" points="97.36,-44.61 93.43,-54.45 102.64,-49.21 97.36,-44.61"/>
</a>
</g>
</g>
</g>
</svg>
