<?xml version="1.0" encoding="UTF-8" standalone="no"?>
<!DOCTYPE svg PUBLIC "-//W3C//DTD SVG 1.1//EN"
 "http://www.w3.org/Graphics/SVG/1.1/DTD/svg11.dtd">
<!-- Generated by graphviz version 11.0.0 (20240428.1522)
 -->
<!-- Title: TraceParam Pages: 1 -->
<svg width="156pt" height="196pt"
 viewBox="0.00 0.00 155.88 196.00" xmlns="http://www.w3.org/2000/svg" xmlns:xlink="http://www.w3.org/1999/xlink">
<g id="graph0" class="graph" transform="scale(1 1) rotate(0) translate(4 192)">
<title>TraceParam</title>
<!-- Node1 -->
<g id="Node000001" class="node">
<title>Node1</title>
<g id="a_Node000001"><a xlink:title=" ">
<polygon fill="#999999" stroke="#666666" points="105.75,-132 37.25,-132 37.25,-112 105.75,-112 105.75,-132"/>
<text text-anchor="middle" x="71.5" y="-118.5" font-family="Helvetica,sans-Serif" font-size="10.00">TraceParam</text>
</a>
</g>
</g>
<!-- Node3 -->
<g id="Node000003" class="node">
<title>Node3</title>
<g id="a_Node000003"><a xlink:href="../../de/d0e/class_trace_box.html" target="_top" xlink:title=" ">
<polygon fill="white" stroke="#666666" points="59.12,-76 1.88,-76 1.88,-56 59.12,-56 59.12,-76"/>
<text text-anchor="middle" x="30.5" y="-62.5" font-family="Helvetica,sans-Serif" font-size="10.00">TraceBox</text>
</a>
</g>
</g>
<!-- Node1&#45;&gt;Node3 -->
<g id="edge2_Node000001_Node000003" class="edge">
<title>Node1&#45;&gt;Node3</title>
<g id="a_edge2_Node000001_Node000003"><a xlink:title=" ">
<path fill="none" stroke="#8b1a1a" d="M57.41,-102.44C50.71,-93.62 43,-83.47 37.56,-76.3"/>
<polygon fill="#8b1a1a" stroke="#8b1a1a" points="54.61,-104.54 63.44,-110.39 60.18,-100.31 54.61,-104.54"/>
</a>
</g>
</g>
<!-- Node5 -->
<g id="Node000005" class="node">
<title>Node5</title>
<g id="a_Node000005"><a xlink:href="../../da/d06/class_trace_sphere.html" target="_top" xlink:title=" ">
<polygon fill="white" stroke="#666666" points="147.88,-76 77.12,-76 77.12,-56 147.88,-56 147.88,-76"/>
<text text-anchor="middle" x="112.5" y="-62.5" font-family="Helvetica,sans-Serif" font-size="10.00">TraceSphere</text>
</a>
</g>
</g>
<!-- Node1&#45;&gt;Node5 -->
<g id="edge4_Node000001_Node000005" class="edge">
<title>Node1&#45;&gt;Node5</title>
<g id="a_edge4_Node000001_Node000005"><a xlink:title=" ">
<path fill="none" stroke="#8b1a1a" d="M85.59,-102.44C92.29,-93.62 100,-83.47 105.44,-76.3"/>
<polygon fill="#8b1a1a" stroke="#8b1a1a" points="82.82,-100.31 79.56,-110.39 88.39,-104.54 82.82,-100.31"/>
</a>
</g>
</g>
<!-- Node2 -->
<g id="Node000002" class="node">
<title>Node2</title>
<g id="a_Node000002"><a xlink:href="../../dd/d07/class_managed.html" target="_top" xlink:title="TODO doc.">
<polygon fill="white" stroke="#666666" points="99.38,-188 43.62,-188 43.62,-168 99.38,-168 99.38,-188"/>
<text text-anchor="middle" x="71.5" y="-174.5" font-family="Helvetica,sans-Serif" font-size="10.00">Managed</text>
</a>
</g>
</g>
<!-- Node2&#45;&gt;Node1 -->
<g id="edge1_Node000001_Node000002" class="edge">
<title>Node2&#45;&gt;Node1</title>
<g id="a_edge1_Node000001_Node000002"><a xlink:title=" ">
<path fill="none" stroke="#8b1a1a" d="M71.5,-156.13C71.5,-147.9 71.5,-138.85 71.5,-132.3"/>
<polygon fill="#8b1a1a" stroke="#8b1a1a" points="68,-156.08 71.5,-166.08 75,-156.08 68,-156.08"/>
</a>
</g>
</g>
<!-- Node4 -->
<g id="Node000004" class="node">
<title>Node4</title>
<g id="a_Node000004"><a xlink:href="../../d7/d0e/class_trace_o_b_b.html" target="_top" xlink:title=" ">
<polygon fill="white" stroke="#666666" points="61,-20 0,-20 0,0 61,0 61,-20"/>
<text text-anchor="middle" x="30.5" y="-6.5" font-family="Helvetica,sans-Serif" font-size="10.00">TraceOBB</text>
</a>
</g>
</g>
<!-- Node3&#45;&gt;Node4 -->
<g id="edge3_Node000003_Node000004" class="edge">
<title>Node3&#45;&gt;Node4</title>
<g id="a_edge3_Node000003_Node000004"><a xlink:title=" ">
<path fill="none" stroke="#8b1a1a" d="M30.5,-44.13C30.5,-35.9 30.5,-26.85 30.5,-20.3"/>
<polygon fill="#8b1a1a" stroke="#8b1a1a" points="27,-44.08 30.5,-54.08 34,-44.08 27,-44.08"/>
</a>
</g>
</g>
</g>
</svg>
