<?xml version="1.0" encoding="UTF-8" standalone="no"?>
<!DOCTYPE svg PUBLIC "-//W3C//DTD SVG 1.1//EN"
 "http://www.w3.org/Graphics/SVG/1.1/DTD/svg11.dtd">
<!-- Generated by graphviz version 11.0.0 (20240428.1522)
 -->
<!-- Title: HumanInventory Pages: 1 -->
<svg width="347pt" height="217pt"
 viewBox="0.00 0.00 347.12 217.00" xmlns="http://www.w3.org/2000/svg" xmlns:xlink="http://www.w3.org/1999/xlink">

<svg id="main" version="1.1" xmlns="http://www.w3.org/2000/svg" xmlns:xlink="http://www.w3.org/1999/xlink" xml:space="preserve" onload="init(evt)">
<style type="text/css"><![CDATA[
.node, .edge {opacity: 0.7;}
.node.selected, .edge.selected {opacity: 1;}
.edge:hover path { stroke: red; }
.edge:hover polygon { stroke: red; fill: red; }
]]></style>
<script type="application/ecmascript" xlink:href="../../svg.min.js"/>
<svg id="graph" class="graph">
<g id="graph0" class="graph" transform="scale(1 1) rotate(0) translate(4 213)">
<title>HumanInventory</title>
<!-- Node1 -->
<g id="Node000001" class="node">
<title>Node1</title>
<g id="a_Node000001"><a xlink:title="inventory for plain man/human">
<polygon fill="#999999" stroke="#666666" points="111.38,-20 26.38,-20 26.38,0 111.38,0 111.38,-20"/>
<text text-anchor="middle" x="68.88" y="-6.5" font-family="Helvetica,sans-Serif" font-size="10.00">HumanInventory</text>
</a>
</g>
</g>
<!-- Node2 -->
<g id="Node000002" class="node">
<title>Node2</title>
<g id="a_Node000002"><a xlink:href="../../dc/d01/class_game_inventory.html" target="_top" xlink:title="script counterpart to engine&#39;s class Inventory">
<polygon fill="white" stroke="#666666" points="260.12,-77 179.62,-77 179.62,-57 260.12,-57 260.12,-77"/>
<text text-anchor="middle" x="219.88" y="-63.5" font-family="Helvetica,sans-Serif" font-size="10.00">GameInventory</text>
</a>
</g>
</g>
<!-- Node2&#45;&gt;Node1 -->
<g id="edge1_Node000001_Node000002" class="edge">
<title>Node2&#45;&gt;Node1</title>
<g id="a_edge1_Node000001_Node000002"><a xlink:title=" ">
<path fill="none" stroke="#8b1a1a" d="M183.19,-52.64C155.82,-42.67 119.1,-29.29 94.75,-20.42"/>
<polygon fill="#8b1a1a" stroke="#8b1a1a" points="181.9,-55.89 192.5,-56.03 184.3,-49.32 181.9,-55.89"/>
</a>
</g>
</g>
<!-- Node3 -->
<g id="Node000003" class="node">
<title>Node3</title>
<g id="a_Node000003"><a xlink:href="../../db/d06/class_param3.html" target="_top" xlink:title=" ">
<polygon fill="white" stroke="#666666" points="49.75,-201 0,-201 0,-181 49.75,-181 49.75,-201"/>
<text text-anchor="middle" x="24.88" y="-187.5" font-family="Helvetica,sans-Serif" font-size="10.00">Param3</text>
</a>
</g>
</g>
<!-- Node3&#45;&gt;Node1 -->
<g id="edge5_Node000001_Node000003" class="edge">
<title>Node3&#45;&gt;Node1</title>
<g id="a_edge5_Node000001_Node000003"><a xlink:title=" ">
<path fill="none" stroke="#9a32cd" stroke-dasharray="5,2" d="M18.2,-170.05C10.37,-143.09 0.45,-94.14 17.12,-57 24.27,-41.1 39.92,-28.45 52.15,-20.48"/>
<polygon fill="#9a32cd" stroke="#9a32cd" points="14.77,-170.82 21.09,-179.32 21.45,-168.73 14.77,-170.82"/>
</a>
</g>
<text text-anchor="middle" x="94.75" y="-63.5" font-family="Helvetica,sans-Serif" font-size="10.00" fill="grey"> m_syncClearUserReservationindex</text>
</g>
<!-- Node3&#45;&gt;Node2 -->
<g id="edge2_Node000002_Node000003" class="edge">
<title>Node3&#45;&gt;Node2</title>
<g id="a_edge2_Node000002_Node000003"><a xlink:title=" ">
<path fill="none" stroke="#9a32cd" stroke-dasharray="5,2" d="M30.79,-169.92C38.36,-147.93 53.65,-113.36 79.38,-95 83.49,-92.06 139.33,-81.92 179.35,-74.94"/>
<polygon fill="#9a32cd" stroke="#9a32cd" points="27.53,-168.62 27.83,-179.21 34.2,-170.75 27.53,-168.62"/>
</a>
</g>
<text text-anchor="start" x="79.88" y="-145.5" font-family="Helvetica,sans-Serif" font-size="10.00" fill="grey"> c_InventoryReservationTimeout</text>
<text text-anchor="middle" x="148.12" y="-133.5" font-family="Helvetica,sans-Serif" font-size="10.00" fill="grey">MS</text>
<text text-anchor="start" x="79.88" y="-121.5" font-family="Helvetica,sans-Serif" font-size="10.00" fill="grey">c_InventoryReservationTimeout</text>
<text text-anchor="middle" x="148.12" y="-109.5" font-family="Helvetica,sans-Serif" font-size="10.00" fill="grey">ShortMS</text>
<text text-anchor="middle" x="148.12" y="-97.5" font-family="Helvetica,sans-Serif" font-size="10.00" fill="grey">m_inventory_check_context</text>
</g>
<!-- Node4 -->
<g id="Node000004" class="node">
<title>Node4</title>
<g id="a_Node000004"><a xlink:href="../../d4/d03/classfloat.html" target="_top" xlink:title=" ">
<polygon fill="white" stroke="#666666" points="236.88,-201 202.88,-201 202.88,-181 236.88,-181 236.88,-201"/>
<text text-anchor="middle" x="219.88" y="-187.5" font-family="Helvetica,sans-Serif" font-size="10.00">float</text>
</a>
</g>
</g>
<!-- Node4&#45;&gt;Node2 -->
<g id="edge3_Node000002_Node000004" class="edge">
<title>Node4&#45;&gt;Node2</title>
<g id="a_edge3_Node000002_Node000004"><a xlink:title=" ">
<path fill="none" stroke="#9a32cd" stroke-dasharray="5,2" d="M219.88,-169.38C219.88,-142.55 219.88,-96.8 219.88,-77.28"/>
<polygon fill="#9a32cd" stroke="#9a32cd" points="216.38,-169.32 219.88,-179.32 223.38,-169.32 216.38,-169.32"/>
</a>
</g>
<text text-anchor="middle" x="279.5" y="-121.5" font-family="Helvetica,sans-Serif" font-size="10.00" fill="grey"> c_MaxItemDistanceRadius</text>
</g>
<!-- Node4&#45;&gt;Node4 -->
<g id="edge4_Node000004_Node000004" class="edge">
<title>Node4&#45;&gt;Node4</title>
<g id="a_edge4_Node000004_Node000004"><a xlink:title=" ">
<path fill="none" stroke="#9a32cd" stroke-dasharray="5,2" d="M244.08,-203.23C250.25,-202.43 254.88,-198.35 254.88,-191 254.88,-179.53 243.59,-176.03 232.8,-180.51"/>
<polygon fill="#9a32cd" stroke="#9a32cd" points="244.71,-199.78 234.29,-201.72 243.64,-206.7 244.71,-199.78"/>
</a>
</g>
<text text-anchor="middle" x="277" y="-199.5" font-family="Helvetica,sans-Serif" font-size="10.00" fill="grey"> LOWEST</text>
<text text-anchor="middle" x="277" y="-187.5" font-family="Helvetica,sans-Serif" font-size="10.00" fill="grey">MAX</text>
<text text-anchor="middle" x="277" y="-175.5" font-family="Helvetica,sans-Serif" font-size="10.00" fill="grey">MIN</text>
</g>
</g>
</svg>
</svg>

<style type='text/css'>
<![CDATA[
[data-mouse-over-selected='false'] { opacity: 0.7; }
[data-mouse-over-selected='true']  { opacity: 1.0; }
]]>
</style>
<script type="application/ecmascript"><![CDATA[
document.addEventListener('DOMContentLoaded', (event) => {
  highlightEdges();
  highlightAdjacentNodes();
});
]]></script>
</svg>
