<?xml version="1.0" encoding="UTF-8" standalone="no"?>
<!DOCTYPE svg PUBLIC "-//W3C//DTD SVG 1.1//EN"
 "http://www.w3.org/Graphics/SVG/1.1/DTD/svg11.dtd">
<!-- Generated by graphviz version 11.0.0 (20240428.1522)
 -->
<!-- Title: AreaDamageLooped Pages: 1 -->
<svg width="459pt" height="148pt"
 viewBox="0.00 0.00 458.88 148.00" xmlns="http://www.w3.org/2000/svg" xmlns:xlink="http://www.w3.org/1999/xlink">
<g id="graph0" class="graph" transform="scale(1 1) rotate(0) translate(4 144)">
<title>AreaDamageLooped</title>
<!-- Node1 -->
<g id="Node000001" class="node">
<title>Node1</title>
<g id="a_Node000001"><a xlink:title=" ">
<polygon fill="#999999" stroke="#666666" points="257.75,-20 154,-20 154,0 257.75,0 257.75,-20"/>
<text text-anchor="middle" x="205.88" y="-6.5" font-family="Helvetica,sans-Serif" font-size="10.00">AreaDamageLooped</text>
</a>
</g>
</g>
<!-- Node2 -->
<g id="Node000002" class="node">
<title>Node2</title>
<g id="a_Node000002"><a xlink:title=" ">
<polygon fill="white" stroke="#666666" points="109.75,-132 0,-132 0,-112 109.75,-112 109.75,-132"/>
<text text-anchor="middle" x="54.88" y="-118.5" font-family="Helvetica,sans-Serif" font-size="10.00">AreaDamageManager</text>
</a>
</g>
</g>
<!-- Node2&#45;&gt;Node1 -->
<g id="edge1_Node000001_Node000002" class="edge">
<title>Node2&#45;&gt;Node1</title>
<g id="a_edge1_Node000001_Node000002"><a xlink:title=" ">
<path fill="none" stroke="#8b1a1a" d="M68.4,-102.84C83,-84.32 107.84,-55.85 134.88,-38 146.21,-30.52 159.92,-24.68 172.25,-20.38"/>
<polygon fill="#8b1a1a" stroke="#8b1a1a" points="65.8,-100.48 62.48,-110.54 71.35,-104.74 65.8,-100.48"/>
</a>
</g>
</g>
<!-- Node3 -->
<g id="Node000003" class="node">
<title>Node3</title>
<g id="a_Node000003"><a xlink:href="../../d4/d03/classfloat.html" target="_top" xlink:title=" ">
<polygon fill="white" stroke="#666666" points="161.88,-132 127.88,-132 127.88,-112 161.88,-112 161.88,-132"/>
<text text-anchor="middle" x="144.88" y="-118.5" font-family="Helvetica,sans-Serif" font-size="10.00">float</text>
</a>
</g>
</g>
<!-- Node3&#45;&gt;Node1 -->
<g id="edge2_Node000001_Node000003" class="edge">
<title>Node3&#45;&gt;Node1</title>
<g id="a_edge2_Node000001_Node000003"><a xlink:title=" ">
<path fill="none" stroke="#9a32cd" stroke-dasharray="5,2" d="M140.5,-100.35C137.89,-82.35 137.11,-56.33 149.38,-38 154.63,-30.14 162.84,-24.5 171.39,-20.49"/>
<polygon fill="#9a32cd" stroke="#9a32cd" points="137.04,-100.87 142.25,-110.09 143.93,-99.63 137.04,-100.87"/>
</a>
</g>
<text text-anchor="middle" x="196.12" y="-76.5" font-family="Helvetica,sans-Serif" font-size="10.00" fill="grey"> m_AccumulatedTime</text>
<text text-anchor="middle" x="196.12" y="-64.5" font-family="Helvetica,sans-Serif" font-size="10.00" fill="grey">m_CurrentTime</text>
<text text-anchor="middle" x="196.12" y="-52.5" font-family="Helvetica,sans-Serif" font-size="10.00" fill="grey">m_LoopInterval</text>
<text text-anchor="middle" x="196.12" y="-40.5" font-family="Helvetica,sans-Serif" font-size="10.00" fill="grey">m_PreviousTime</text>
</g>
<!-- Node3&#45;&gt;Node3 -->
<g id="edge3_Node000003_Node000003" class="edge">
<title>Node3&#45;&gt;Node3</title>
<g id="a_edge3_Node000003_Node000003"><a xlink:title=" ">
<path fill="none" stroke="#9a32cd" stroke-dasharray="5,2" d="M172.22,-132.44C176.75,-130.97 179.88,-127.49 179.88,-122 179.88,-112.51 170.53,-109.02 160.71,-111.54"/>
<polygon fill="#9a32cd" stroke="#9a32cd" points="172.22,-128.94 162.23,-132.45 172.23,-135.94 172.22,-128.94"/>
</a>
</g>
<text text-anchor="middle" x="202" y="-130.5" font-family="Helvetica,sans-Serif" font-size="10.00" fill="grey"> LOWEST</text>
<text text-anchor="middle" x="202" y="-118.5" font-family="Helvetica,sans-Serif" font-size="10.00" fill="grey">MAX</text>
<text text-anchor="middle" x="202" y="-106.5" font-family="Helvetica,sans-Serif" font-size="10.00" fill="grey">MIN</text>
</g>
<!-- Node4 -->
<g id="Node000004" class="node">
<title>Node4</title>
<g id="a_Node000004"><a xlink:href="../../db/d06/class_param3.html" target="_top" xlink:title=" ">
<polygon fill="white" stroke="#666666" points="291.75,-132 242,-132 242,-112 291.75,-112 291.75,-132"/>
<text text-anchor="middle" x="266.88" y="-118.5" font-family="Helvetica,sans-Serif" font-size="10.00">Param3</text>
</a>
</g>
</g>
<!-- Node4&#45;&gt;Node1 -->
<g id="edge4_Node000001_Node000004" class="edge">
<title>Node4&#45;&gt;Node1</title>
<g id="a_edge4_Node000001_Node000004"><a xlink:title=" ">
<path fill="none" stroke="#9a32cd" stroke-dasharray="5,2" d="M265.04,-100.28C262.59,-82.41 256.93,-56.62 243.88,-38 238.86,-30.84 231.31,-24.92 224.26,-20.46"/>
<polygon fill="#9a32cd" stroke="#9a32cd" points="261.55,-100.62 266.14,-110.17 268.51,-99.84 261.55,-100.62"/>
</a>
</g>
<text text-anchor="middle" x="305" y="-58.5" font-family="Helvetica,sans-Serif" font-size="10.00" fill="grey"> m_AmountOfLoops</text>
</g>
<!-- Node5 -->
<g id="Node000005" class="node">
<title>Node5</title>
<g id="a_Node000005"><a xlink:href="../../d9/d09/classbool.html" target="_top" xlink:title=" ">
<polygon fill="white" stroke="#666666" points="391.88,-132 357.88,-132 357.88,-112 391.88,-112 391.88,-132"/>
<text text-anchor="middle" x="374.88" y="-118.5" font-family="Helvetica,sans-Serif" font-size="10.00">bool</text>
</a>
</g>
</g>
<!-- Node5&#45;&gt;Node1 -->
<g id="edge5_Node000001_Node000005" class="edge">
<title>Node5&#45;&gt;Node1</title>
<g id="a_edge5_Node000001_Node000005"><a xlink:title=" ">
<path fill="none" stroke="#9a32cd" stroke-dasharray="5,2" d="M374.98,-100.39C373.9,-81.39 369.16,-53.83 351.88,-38 338.29,-25.55 294.32,-18.58 258.16,-14.86"/>
<polygon fill="#9a32cd" stroke="#9a32cd" points="371.47,-100.24 375.21,-110.15 378.47,-100.07 371.47,-100.24"/>
</a>
</g>
<text text-anchor="middle" x="411.88" y="-58.5" font-family="Helvetica,sans-Serif" font-size="10.00" fill="grey"> m_LoopByObject</text>
</g>
</g>
</svg>
