<?xml version="1.0" encoding="UTF-8" standalone="no"?>
<!DOCTYPE svg PUBLIC "-//W3C//DTD SVG 1.1//EN"
 "http://www.w3.org/Graphics/SVG/1.1/DTD/svg11.dtd">
<!-- Generated by graphviz version 11.0.0 (20240428.1522)
 -->
<!-- Title: Hit_MeatBones_MeleeShovel Pages: 1 -->
<svg width="151pt" height="252pt"
 viewBox="0.00 0.00 150.75 252.00" xmlns="http://www.w3.org/2000/svg" xmlns:xlink="http://www.w3.org/1999/xlink">
<g id="graph0" class="graph" transform="scale(1 1) rotate(0) translate(4 248)">
<title>Hit_MeatBones_MeleeShovel</title>
<!-- Node1 -->
<g id="Node000001" class="node">
<title>Node1</title>
<g id="a_Node000001"><a xlink:title=" ">
<polygon fill="#999999" stroke="#666666" points="142.75,-20 0,-20 0,0 142.75,0 142.75,-20"/>
<text text-anchor="middle" x="71.38" y="-6.5" font-family="Helvetica,sans-Serif" font-size="10.00">Hit_MeatBones_MeleeShovel</text>
</a>
</g>
</g>
<!-- Node2 -->
<g id="Node000002" class="node">
<title>Node2</title>
<g id="a_Node000002"><a xlink:href="../../d4/d09/class_hit___meat_bones.html" target="_top" xlink:title=" ">
<polygon fill="white" stroke="#666666" points="112.75,-76 30,-76 30,-56 112.75,-56 112.75,-76"/>
<text text-anchor="middle" x="71.38" y="-62.5" font-family="Helvetica,sans-Serif" font-size="10.00">Hit_MeatBones</text>
</a>
</g>
</g>
<!-- Node2&#45;&gt;Node1 -->
<g id="edge1_Node000001_Node000002" class="edge">
<title>Node2&#45;&gt;Node1</title>
<g id="a_edge1_Node000001_Node000002"><a xlink:title=" ">
<path fill="none" stroke="#8b1a1a" d="M71.38,-44.13C71.38,-35.9 71.38,-26.85 71.38,-20.3"/>
<polygon fill="#8b1a1a" stroke="#8b1a1a" points="67.88,-44.08 71.38,-54.08 74.88,-44.08 67.88,-44.08"/>
</a>
</g>
</g>
<!-- Node3 -->
<g id="Node000003" class="node">
<title>Node3</title>
<g id="a_Node000003"><a xlink:href="../../d3/d0b/class_eff_bullet_impact_base.html" target="_top" xlink:title=" ">
<polygon fill="white" stroke="#666666" points="123.25,-132 19.5,-132 19.5,-112 123.25,-112 123.25,-132"/>
<text text-anchor="middle" x="71.38" y="-118.5" font-family="Helvetica,sans-Serif" font-size="10.00">EffBulletImpactBase</text>
</a>
</g>
</g>
<!-- Node3&#45;&gt;Node2 -->
<g id="edge2_Node000002_Node000003" class="edge">
<title>Node3&#45;&gt;Node2</title>
<g id="a_edge2_Node000002_Node000003"><a xlink:title=" ">
<path fill="none" stroke="#8b1a1a" d="M71.38,-100.13C71.38,-91.9 71.38,-82.85 71.38,-76.3"/>
<polygon fill="#8b1a1a" stroke="#8b1a1a" points="67.88,-100.08 71.38,-110.08 74.88,-100.08 67.88,-100.08"/>
</a>
</g>
</g>
<!-- Node4 -->
<g id="Node000004" class="node">
<title>Node4</title>
<g id="a_Node000004"><a xlink:href="../../de/d07/class_effect_particle.html" target="_top" xlink:title="Wrapper class for managing particles through SEffectManager.">
<polygon fill="white" stroke="#666666" points="108.25,-188 34.5,-188 34.5,-168 108.25,-168 108.25,-188"/>
<text text-anchor="middle" x="71.38" y="-174.5" font-family="Helvetica,sans-Serif" font-size="10.00">EffectParticle</text>
</a>
</g>
</g>
<!-- Node4&#45;&gt;Node3 -->
<g id="edge3_Node000003_Node000004" class="edge">
<title>Node4&#45;&gt;Node3</title>
<g id="a_edge3_Node000003_Node000004"><a xlink:title=" ">
<path fill="none" stroke="#8b1a1a" d="M71.38,-156.13C71.38,-147.9 71.38,-138.85 71.38,-132.3"/>
<polygon fill="#8b1a1a" stroke="#8b1a1a" points="67.88,-156.08 71.38,-166.08 74.88,-156.08 67.88,-156.08"/>
</a>
</g>
</g>
<!-- Node5 -->
<g id="Node000005" class="node">
<title>Node5</title>
<g id="a_Node000005"><a xlink:title=" ">
<polygon fill="white" stroke="#666666" points="91.75,-244 51,-244 51,-224 91.75,-224 91.75,-244"/>
<text text-anchor="middle" x="71.38" y="-230.5" font-family="Helvetica,sans-Serif" font-size="10.00">Effect</text>
</a>
</g>
</g>
<!-- Node5&#45;&gt;Node4 -->
<g id="edge4_Node000004_Node000005" class="edge">
<title>Node5&#45;&gt;Node4</title>
<g id="a_edge4_Node000004_Node000005"><a xlink:title=" ">
<path fill="none" stroke="#8b1a1a" d="M71.38,-212.13C71.38,-203.9 71.38,-194.85 71.38,-188.3"/>
<polygon fill="#8b1a1a" stroke="#8b1a1a" points="67.88,-212.08 71.38,-222.08 74.88,-212.08 67.88,-212.08"/>
</a>
</g>
</g>
</g>
</svg>
