<?xml version="1.0" encoding="UTF-8" standalone="no"?>
<!DOCTYPE svg PUBLIC "-//W3C//DTD SVG 1.1//EN"
 "http://www.w3.org/Graphics/SVG/1.1/DTD/svg11.dtd">
<!-- Generated by graphviz version 11.0.0 (20240428.1522)
 -->
<!-- Title: Box_Base Pages: 1 -->
<!--zoomable 672 -->

<svg id="main" version="1.1" xmlns="http://www.w3.org/2000/svg" xmlns:xlink="http://www.w3.org/1999/xlink" xml:space="preserve" onload="init(evt)">
<style type="text/css"><![CDATA[
.node, .edge {opacity: 0.7;}
.node.selected, .edge.selected {opacity: 1;}
.edge:hover path { stroke: red; }
.edge:hover polygon { stroke: red; fill: red; }
]]></style>

<defs>
  <circle id="rim" cx="0" cy="0" r="7"/>
  <circle id="rim2" cx="0" cy="0" r="3.5"/>
  <g id="zoomPlus">
    <use xlink:href="#rim" fill="#404040"><set attributeName="fill" to="#808080" begin="zoomplus.mouseover" end="zoomplus.mouseout"/></use>
    <path d="M-4,0h8M0,-4v8" fill="none" stroke="white" stroke-width="1.5" pointer-events="none"/>
  </g>
  <g id="zoomMin">
    <use xlink:href="#rim" fill="#404040"><set attributeName="fill" to="#808080" begin="zoomminus.mouseover" end="zoomminus.mouseout"/></use>
    <path d="M-4,0h8" fill="none" stroke="white" stroke-width="1.5" pointer-events="none"/>
  </g>
  <g id="arrowUp" transform="translate(30 24)">
    <use xlink:href="#rim"/>
    <path pointer-events="none" fill="none" stroke="white" stroke-width="1.5" d="M0,-3.0v7 M-2.5,-0.5L0,-3.0L2.5,-0.5"/>
  </g>
  <g id="arrowRight" transform="rotate(90) translate(36 -43)">
    <use xlink:href="#rim"/>
    <path pointer-events="none" fill="none" stroke="white" stroke-width="1.5" d="M0,-3.0v7 M-2.5,-0.5L0,-3.0L2.5,-0.5"/>
  </g>
  <g id="arrowDown" transform="rotate(180) translate(-30 -48)">
    <use xlink:href="#rim"/>
    <path pointer-events="none" fill="none" stroke="white" stroke-width="1.5" d="M0,-3.0v7 M-2.5,-0.5L0,-3.0L2.5,-0.5"/>
  </g>
  <g id="arrowLeft" transform="rotate(270) translate(-36 17)">
    <use xlink:href="#rim"/>
    <path pointer-events="none" fill="none" stroke="white" stroke-width="1.5" d="M0,-3.0v7 M-2.5,-0.5L0,-3.0L2.5,-0.5"/>
  </g>
  <g id="resetDef">
    <use xlink:href="#rim2" fill="#404040"><set attributeName="fill" to="#808080" begin="reset.mouseover" end="reset.mouseout"/></use>
  </g>
</defs>
<script type="application/ecmascript">
var viewWidth = 246;
var viewHeight = 672;
var sectionId = 'dynsection-0';
</script>
<script type="application/ecmascript" xlink:href="../../svg.min.js"/>
<svg id="graph" class="graph">
<g id="viewport">
<title>Box_Base</title>
<!-- Node1 -->
<g id="Node000001" class="node">
<title>Node1</title>
<g id="a_Node000001"><a xlink:title=" ">
<polygon fill="#999999" stroke="#666666" points="61,-354 0,-354 0,-334 61,-334 61,-354"/>
<text text-anchor="middle" x="30.5" y="-340.5" font-family="Helvetica,sans-Serif" font-size="10.00">Box_Base</text>
</a>
</g>
</g>
<!-- Node2 -->
<g id="Node000002" class="node">
<title>Node2</title>
<g id="a_Node000002"><a xlink:href="../../d8/d0d/class_ammo_box__00buck__10rnd.html" target="_top" xlink:title=" ">
<polygon fill="white" stroke="#666666" points="231.12,-664 103.38,-664 103.38,-644 231.12,-644 231.12,-664"/>
<text text-anchor="middle" x="167.25" y="-650.5" font-family="Helvetica,sans-Serif" font-size="10.00">AmmoBox_00buck_10rnd</text>
</a>
</g>
</g>
<!-- Node1&#45;&gt;Node2 -->
<g id="edge1_Node000001_Node000002" class="edge">
<title>Node1&#45;&gt;Node2</title>
<g id="a_edge1_Node000001_Node000002"><a xlink:title=" ">
<path fill="none" stroke="#8b1a1a" d="M33.48,-365.35C39.51,-425.71 59.53,-595.75 97,-635 100.27,-638.43 104.1,-641.25 108.24,-643.59"/>
<polygon fill="#8b1a1a" stroke="#8b1a1a" points="37,-365.35 32.55,-355.73 30.03,-366.02 37,-365.35"/>
</a>
</g>
</g>
<!-- Node3 -->
<g id="Node000003" class="node">
<title>Node3</title>
<g id="a_Node000003"><a xlink:href="../../d2/d0a/class_ammo_box__12ga_slug__10_rnd.html" target="_top" xlink:title=" ">
<polygon fill="white" stroke="#666666" points="237.5,-626 97,-626 97,-606 237.5,-606 237.5,-626"/>
<text text-anchor="middle" x="167.25" y="-612.5" font-family="Helvetica,sans-Serif" font-size="10.00">AmmoBox_12gaSlug_10Rnd</text>
</a>
</g>
</g>
<!-- Node1&#45;&gt;Node3 -->
<g id="edge2_Node000001_Node000003" class="edge">
<title>Node1&#45;&gt;Node3</title>
<g id="a_edge2_Node000001_Node000003"><a xlink:title=" ">
<path fill="none" stroke="#8b1a1a" d="M34.27,-365.41C41.78,-420.24 64.2,-563.72 97,-597 100.41,-600.46 104.39,-603.31 108.69,-605.65"/>
<polygon fill="#8b1a1a" stroke="#8b1a1a" points="37.78,-365.25 32.99,-355.8 30.84,-366.18 37.78,-365.25"/>
</a>
</g>
</g>
<!-- Node4 -->
<g id="Node000004" class="node">
<title>Node4</title>
<g id="a_Node000004"><a xlink:href="../../d9/d04/class_ammo_box__22__50_rnd.html" target="_top" xlink:title=" ">
<polygon fill="white" stroke="#666666" points="222.5,-588 112,-588 112,-568 222.5,-568 222.5,-588"/>
<text text-anchor="middle" x="167.25" y="-574.5" font-family="Helvetica,sans-Serif" font-size="10.00">AmmoBox_22_50Rnd</text>
</a>
</g>
</g>
<!-- Node1&#45;&gt;Node4 -->
<g id="edge3_Node000001_Node000004" class="edge">
<title>Node1&#45;&gt;Node4</title>
<g id="a_edge3_Node000001_Node000004"><a xlink:title=" ">
<path fill="none" stroke="#8b1a1a" d="M31.59,-365.59C32.97,-408.71 42.38,-505.88 97,-559 101.2,-563.08 106.19,-566.31 111.55,-568.85"/>
<polygon fill="#8b1a1a" stroke="#8b1a1a" points="35.09,-365.72 31.4,-355.79 28.09,-365.85 35.09,-365.72"/>
</a>
</g>
</g>
<!-- Node5 -->
<g id="Node000005" class="node">
<title>Node5</title>
<g id="a_Node000005"><a xlink:href="../../d1/d03/class_ammo_box__308_win__20_rnd.html" target="_top" xlink:title=" ">
<polygon fill="white" stroke="#666666" points="233.75,-550 100.75,-550 100.75,-530 233.75,-530 233.75,-550"/>
<text text-anchor="middle" x="167.25" y="-536.5" font-family="Helvetica,sans-Serif" font-size="10.00">AmmoBox_308Win_20Rnd</text>
</a>
</g>
</g>
<!-- Node1&#45;&gt;Node5 -->
<g id="edge4_Node000001_Node000005" class="edge">
<title>Node1&#45;&gt;Node5</title>
<g id="a_edge4_Node000001_Node000005"><a xlink:title=" ">
<path fill="none" stroke="#8b1a1a" d="M33.25,-365.58C37.44,-402.82 51.42,-479.2 97,-521 100.77,-524.45 105.1,-527.29 109.73,-529.62"/>
<polygon fill="#8b1a1a" stroke="#8b1a1a" points="36.74,-365.27 32.28,-355.66 29.77,-365.95 36.74,-365.27"/>
</a>
</g>
</g>
<!-- Node6 -->
<g id="Node000006" class="node">
<title>Node6</title>
<g id="a_Node000006"><a xlink:href="../../db/d06/class_ammo_box__357__20_rnd.html" target="_top" xlink:title=" ">
<polygon fill="white" stroke="#666666" points="225.12,-512 109.38,-512 109.38,-492 225.12,-492 225.12,-512"/>
<text text-anchor="middle" x="167.25" y="-498.5" font-family="Helvetica,sans-Serif" font-size="10.00">AmmoBox_357_20Rnd</text>
</a>
</g>
</g>
<!-- Node1&#45;&gt;Node6 -->
<g id="edge5_Node000001_Node000006" class="edge">
<title>Node1&#45;&gt;Node6</title>
<g id="a_edge5_Node000001_Node000006"><a xlink:title=" ">
<path fill="none" stroke="#8b1a1a" d="M35.65,-365.22C42.76,-395.82 60.21,-452.07 97,-483 101.1,-486.45 105.78,-489.28 110.73,-491.59"/>
<polygon fill="#8b1a1a" stroke="#8b1a1a" points="39.12,-364.68 33.6,-355.64 32.27,-366.15 39.12,-364.68"/>
</a>
</g>
</g>
<!-- Node7 -->
<g id="Node000007" class="node">
<title>Node7</title>
<g id="a_Node000007"><a xlink:href="../../dc/d04/class_ammo_box__380__35rnd.html" target="_top" xlink:title=" ">
<polygon fill="white" stroke="#666666" points="223.25,-474 111.25,-474 111.25,-454 223.25,-454 223.25,-474"/>
<text text-anchor="middle" x="167.25" y="-460.5" font-family="Helvetica,sans-Serif" font-size="10.00">AmmoBox_380_35rnd</text>
</a>
</g>
</g>
<!-- Node1&#45;&gt;Node7 -->
<g id="edge6_Node000001_Node000007" class="edge">
<title>Node1&#45;&gt;Node7</title>
<g id="a_edge6_Node000001_Node000007"><a xlink:title=" ">
<path fill="none" stroke="#8b1a1a" d="M39.56,-364.74C49.58,-387.77 68.86,-424.41 97,-445 101.73,-448.46 107.06,-451.29 112.6,-453.6"/>
<polygon fill="#8b1a1a" stroke="#8b1a1a" points="42.91,-363.68 35.86,-355.77 36.44,-366.35 42.91,-363.68"/>
</a>
</g>
</g>
<!-- Node8 -->
<g id="Node000008" class="node">
<title>Node8</title>
<g id="a_Node000008"><a xlink:href="../../dd/d0f/class_ammo_box__45_a_c_p__25rnd.html" target="_top" xlink:title=" ">
<polygon fill="white" stroke="#666666" points="230.75,-436 103.75,-436 103.75,-416 230.75,-416 230.75,-436"/>
<text text-anchor="middle" x="167.25" y="-422.5" font-family="Helvetica,sans-Serif" font-size="10.00">AmmoBox_45ACP_25rnd</text>
</a>
</g>
</g>
<!-- Node1&#45;&gt;Node8 -->
<g id="edge7_Node000001_Node000008" class="edge">
<title>Node1&#45;&gt;Node8</title>
<g id="a_edge7_Node000001_Node000008"><a xlink:title=" ">
<path fill="none" stroke="#8b1a1a" d="M46.29,-362.59C58.48,-376.72 76.97,-395.62 97,-407 102.96,-410.39 109.56,-413.2 116.24,-415.52"/>
<polygon fill="#8b1a1a" stroke="#8b1a1a" points="49.29,-360.73 40.21,-355.28 43.91,-365.2 49.29,-360.73"/>
</a>
</g>
</g>
<!-- Node9 -->
<g id="Node000009" class="node">
<title>Node9</title>
<g id="a_Node000009"><a xlink:href="../../d1/d07/class_ammo_box__545x39__20_rnd.html" target="_top" xlink:title=" ">
<polygon fill="white" stroke="#666666" points="233,-398 101.5,-398 101.5,-378 233,-378 233,-398"/>
<text text-anchor="middle" x="167.25" y="-384.5" font-family="Helvetica,sans-Serif" font-size="10.00">AmmoBox_545x39_20Rnd</text>
</a>
</g>
</g>
<!-- Node1&#45;&gt;Node9 -->
<g id="edge8_Node000001_Node000009" class="edge">
<title>Node1&#45;&gt;Node9</title>
<g id="a_edge8_Node000001_Node000009"><a xlink:title=" ">
<path fill="none" stroke="#8b1a1a" d="M67.77,-358.56C77.22,-362.16 87.44,-365.87 97,-369 106.12,-371.98 116.02,-374.89 125.41,-377.5"/>
<polygon fill="#8b1a1a" stroke="#8b1a1a" points="69.12,-355.33 58.53,-354.98 66.59,-361.86 69.12,-355.33"/>
</a>
</g>
</g>
<!-- Node10 -->
<g id="Node000010" class="node">
<title>Node10</title>
<g id="a_Node000010"><a xlink:href="../../df/d0b/class_ammo_box__556x45_tracer__20_rnd.html" target="_top" xlink:title=" ">
<polygon fill="white" stroke="#666666" points="230,-360 104.5,-360 104.5,-328 230,-328 230,-360"/>
<text text-anchor="start" x="112.5" y="-346.5" font-family="Helvetica,sans-Serif" font-size="10.00">AmmoBox_556x45Tracer</text>
<text text-anchor="middle" x="167.25" y="-334.5" font-family="Helvetica,sans-Serif" font-size="10.00">_20Rnd</text>
</a>
</g>
</g>
<!-- Node1&#45;&gt;Node10 -->
<g id="edge9_Node000001_Node000010" class="edge">
<title>Node1&#45;&gt;Node10</title>
<g id="a_edge9_Node000001_Node000010"><a xlink:title=" ">
<path fill="none" stroke="#8b1a1a" d="M72.62,-344C82.58,-344 93.44,-344 104.13,-344"/>
<polygon fill="#8b1a1a" stroke="#8b1a1a" points="72.92,-340.5 62.92,-344 72.92,-347.5 72.92,-340.5"/>
</a>
</g>
</g>
<!-- Node11 -->
<g id="Node000011" class="node">
<title>Node11</title>
<g id="a_Node000011"><a xlink:href="../../d5/d0c/class_ammo_box__556x45__20_rnd.html" target="_top" xlink:title=" ">
<polygon fill="white" stroke="#666666" points="233,-310 101.5,-310 101.5,-290 233,-290 233,-310"/>
<text text-anchor="middle" x="167.25" y="-296.5" font-family="Helvetica,sans-Serif" font-size="10.00">AmmoBox_556x45_20Rnd</text>
</a>
</g>
</g>
<!-- Node1&#45;&gt;Node11 -->
<g id="edge10_Node000001_Node000011" class="edge">
<title>Node1&#45;&gt;Node11</title>
<g id="a_edge10_Node000001_Node000011"><a xlink:title=" ">
<path fill="none" stroke="#8b1a1a" d="M67.77,-329.44C77.22,-325.84 87.44,-322.13 97,-319 106.12,-316.02 116.02,-313.11 125.41,-310.5"/>
<polygon fill="#8b1a1a" stroke="#8b1a1a" points="66.59,-326.14 58.53,-333.02 69.12,-332.67 66.59,-326.14"/>
</a>
</g>
</g>
<!-- Node12 -->
<g id="Node000012" class="node">
<title>Node12</title>
<g id="a_Node000012"><a xlink:href="../../db/d0c/class_ammo_box__762x39_tracer__20_rnd.html" target="_top" xlink:title=" ">
<polygon fill="white" stroke="#666666" points="230,-272 104.5,-272 104.5,-240 230,-240 230,-272"/>
<text text-anchor="start" x="112.5" y="-258.5" font-family="Helvetica,sans-Serif" font-size="10.00">AmmoBox_762x39Tracer</text>
<text text-anchor="middle" x="167.25" y="-246.5" font-family="Helvetica,sans-Serif" font-size="10.00">_20Rnd</text>
</a>
</g>
</g>
<!-- Node1&#45;&gt;Node12 -->
<g id="edge11_Node000001_Node000012" class="edge">
<title>Node1&#45;&gt;Node12</title>
<g id="a_edge11_Node000001_Node000012"><a xlink:title=" ">
<path fill="none" stroke="#8b1a1a" d="M46.97,-325.37C59.3,-311.53 77.65,-293.03 97,-281 102.1,-277.83 107.66,-274.98 113.35,-272.44"/>
<polygon fill="#8b1a1a" stroke="#8b1a1a" points="44.66,-322.68 40.77,-332.54 49.96,-327.26 44.66,-322.68"/>
</a>
</g>
</g>
<!-- Node13 -->
<g id="Node000013" class="node">
<title>Node13</title>
<g id="a_Node000013"><a xlink:href="../../de/d0c/class_ammo_box__762x39__20_rnd.html" target="_top" xlink:title=" ">
<polygon fill="white" stroke="#666666" points="233,-222 101.5,-222 101.5,-202 233,-202 233,-222"/>
<text text-anchor="middle" x="167.25" y="-208.5" font-family="Helvetica,sans-Serif" font-size="10.00">AmmoBox_762x39_20Rnd</text>
</a>
</g>
</g>
<!-- Node1&#45;&gt;Node13 -->
<g id="edge12_Node000001_Node000013" class="edge">
<title>Node1&#45;&gt;Node13</title>
<g id="a_edge12_Node000001_Node000013"><a xlink:title=" ">
<path fill="none" stroke="#8b1a1a" d="M38.08,-323.08C47.21,-297.53 66.15,-254.78 97,-231 101.44,-227.58 106.46,-224.77 111.72,-222.47"/>
<polygon fill="#8b1a1a" stroke="#8b1a1a" points="34.84,-321.76 34.96,-332.35 41.47,-323.99 34.84,-321.76"/>
</a>
</g>
</g>
<!-- Node14 -->
<g id="Node000014" class="node">
<title>Node14</title>
<g id="a_Node000014"><a xlink:href="../../dc/d01/class_ammo_box__762x54_tracer__20_rnd.html" target="_top" xlink:title=" ">
<polygon fill="white" stroke="#666666" points="230,-184 104.5,-184 104.5,-152 230,-152 230,-184"/>
<text text-anchor="start" x="112.5" y="-170.5" font-family="Helvetica,sans-Serif" font-size="10.00">AmmoBox_762x54Tracer</text>
<text text-anchor="middle" x="167.25" y="-158.5" font-family="Helvetica,sans-Serif" font-size="10.00">_20Rnd</text>
</a>
</g>
</g>
<!-- Node1&#45;&gt;Node14 -->
<g id="edge13_Node000001_Node000014" class="edge">
<title>Node1&#45;&gt;Node14</title>
<g id="a_edge13_Node000001_Node000014"><a xlink:title=" ">
<path fill="none" stroke="#8b1a1a" d="M35.27,-322.29C42,-289.81 59.12,-228.57 97,-193 100.45,-189.76 104.35,-186.94 108.49,-184.48"/>
<polygon fill="#8b1a1a" stroke="#8b1a1a" points="31.83,-321.62 33.39,-332.09 38.71,-322.93 31.83,-321.62"/>
</a>
</g>
</g>
<!-- Node15 -->
<g id="Node000015" class="node">
<title>Node15</title>
<g id="a_Node000015"><a xlink:href="../../d8/d0b/class_ammo_box__762x54__20_rnd.html" target="_top" xlink:title=" ">
<polygon fill="white" stroke="#666666" points="233,-134 101.5,-134 101.5,-114 233,-114 233,-134"/>
<text text-anchor="middle" x="167.25" y="-120.5" font-family="Helvetica,sans-Serif" font-size="10.00">AmmoBox_762x54_20Rnd</text>
</a>
</g>
</g>
<!-- Node1&#45;&gt;Node15 -->
<g id="edge14_Node000001_Node000015" class="edge">
<title>Node1&#45;&gt;Node15</title>
<g id="a_edge14_Node000001_Node000015"><a xlink:title=" ">
<path fill="none" stroke="#8b1a1a" d="M32.13,-322.42C34.53,-281.4 45.72,-191.92 97,-143 100.61,-139.56 104.78,-136.73 109.25,-134.4"/>
<polygon fill="#8b1a1a" stroke="#8b1a1a" points="28.64,-322.26 31.69,-332.41 35.63,-322.57 28.64,-322.26"/>
</a>
</g>
</g>
<!-- Node16 -->
<g id="Node000016" class="node">
<title>Node16</title>
<g id="a_Node000016"><a xlink:href="../../d2/d0d/class_ammo_box__9x19__25rnd.html" target="_top" xlink:title=" ">
<polygon fill="white" stroke="#666666" points="225.88,-96 108.62,-96 108.62,-76 225.88,-76 225.88,-96"/>
<text text-anchor="middle" x="167.25" y="-82.5" font-family="Helvetica,sans-Serif" font-size="10.00">AmmoBox_9x19_25rnd</text>
</a>
</g>
</g>
<!-- Node1&#45;&gt;Node16 -->
<g id="edge15_Node000001_Node000016" class="edge">
<title>Node1&#45;&gt;Node16</title>
<g id="a_edge15_Node000001_Node000016"><a xlink:title=" ">
<path fill="none" stroke="#8b1a1a" d="M30.79,-322.28C30.51,-275.66 36.67,-165.35 97,-105 100.44,-101.56 104.43,-98.73 108.74,-96.4"/>
<polygon fill="#8b1a1a" stroke="#8b1a1a" points="27.29,-322.2 30.97,-332.13 34.29,-322.07 27.29,-322.2"/>
</a>
</g>
</g>
<!-- Node17 -->
<g id="Node000017" class="node">
<title>Node17</title>
<g id="a_Node000017"><a xlink:href="../../da/d05/class_ammo_box__9x39__20_rnd.html" target="_top" xlink:title=" ">
<polygon fill="white" stroke="#666666" points="227.75,-58 106.75,-58 106.75,-38 227.75,-38 227.75,-58"/>
<text text-anchor="middle" x="167.25" y="-44.5" font-family="Helvetica,sans-Serif" font-size="10.00">AmmoBox_9x39_20Rnd</text>
</a>
</g>
</g>
<!-- Node1&#45;&gt;Node17 -->
<g id="edge16_Node000001_Node000017" class="edge">
<title>Node1&#45;&gt;Node17</title>
<g id="a_edge16_Node000001_Node000017"><a xlink:title=" ">
<path fill="none" stroke="#8b1a1a" d="M33.76,-322.52C40.33,-264.07 61.27,-104.02 97,-67 100.29,-63.59 104.13,-60.78 108.28,-58.45"/>
<polygon fill="#8b1a1a" stroke="#8b1a1a" points="30.31,-321.84 32.71,-332.16 37.27,-322.6 30.31,-321.84"/>
</a>
</g>
</g>
<!-- Node18 -->
<g id="Node000018" class="node">
<title>Node18</title>
<g id="a_Node000018"><a xlink:href="../../d9/d0e/class_nail_box.html" target="_top" xlink:title=" ">
<polygon fill="white" stroke="#666666" points="192.12,-20 142.38,-20 142.38,0 192.12,0 192.12,-20"/>
<text text-anchor="middle" x="167.25" y="-6.5" font-family="Helvetica,sans-Serif" font-size="10.00">NailBox</text>
</a>
</g>
</g>
<!-- Node1&#45;&gt;Node18 -->
<g id="edge17_Node000001_Node000018" class="edge">
<title>Node1&#45;&gt;Node18</title>
<g id="a_edge17_Node000001_Node000018"><a xlink:title=" ">
<path fill="none" stroke="#8b1a1a" d="M33.12,-322.17C38.33,-258.03 56.67,-71.95 97,-29 108.52,-16.73 127.15,-12.12 142.18,-10.5"/>
<polygon fill="#8b1a1a" stroke="#8b1a1a" points="29.64,-321.86 32.35,-332.1 36.62,-322.4 29.64,-321.86"/>
</a>
</g>
</g>
</g>
</svg>

<g id="navigator" transform="translate(0 0)" fill="#404254">
  <rect fill="#f2f5e9" fill-opacity="0.5" stroke="#606060" stroke-width=".5" x="0" y="0" width="60" height="60"/>
  <use id="zoomplus" xlink:href="#zoomPlus" x="17" y="9" onmousedown="handleZoom(evt,'in')"/>
  <use id="zoomminus" xlink:href="#zoomMin" x="42" y="9" onmousedown="handleZoom(evt,'out')"/>
  <use id="reset" xlink:href="#resetDef" x="30" y="36" onmousedown="handleReset()"/>
   <use id="arrowup" xlink:href="#arrowUp" x="0" y="0" onmousedown="handlePan(0,-1)"/>
  <use id="arrowright" xlink:href="#arrowRight" x="0" y="0" onmousedown="handlePan(1,0)"/>
  <use id="arrowdown" xlink:href="#arrowDown" x="0" y="0" onmousedown="handlePan(0,1)"/>
  <use id="arrowleft" xlink:href="#arrowLeft" x="0" y="0" onmousedown="handlePan(-1,0)"/>
</g>
<svg viewBox="0 0 15 15" width="100%" height="30px" preserveAspectRatio="xMaxYMin meet">
 <g id="arrow_out" transform="scale(0.3 0.3)">
  <a xlink:href="class_box___base__inherit__graph_org.svg" target="_base">
   <rect id="button" ry="5" rx="5" y="6" x="6" height="38" width="38"
        fill="#f2f5e9" fill-opacity="0.5" stroke="#606060" stroke-width="1.0"/>
   <path id="arrow"
     d="M 11.500037,31.436501 C 11.940474,20.09759 22.043105,11.32322 32.158766,21.979434 L 37.068811,17.246167 C 37.068811,17.246167 37.088388,32 37.088388,32 L 22.160133,31.978069 C 22.160133,31.978069 26.997745,27.140456 26.997745,27.140456 C 18.528582,18.264221 13.291696,25.230495 11.500037,31.436501 z"
     style="fill:#404040;"/>
  </a>
 </g>
</svg>

<style type='text/css'>
<![CDATA[
[data-mouse-over-selected='false'] { opacity: 0.7; }
[data-mouse-over-selected='true']  { opacity: 1.0; }
]]>
</style>
<script type="application/ecmascript"><![CDATA[
document.addEventListener('DOMContentLoaded', (event) => {
  highlightEdges();
  highlightAdjacentNodes();
});
]]></script>
</svg>
