<?xml version="1.0" encoding="UTF-8" standalone="no"?>
<!DOCTYPE svg PUBLIC "-//W3C//DTD SVG 1.1//EN"
 "http://www.w3.org/Graphics/SVG/1.1/DTD/svg11.dtd">
<!-- Generated by graphviz version 11.0.0 (20240428.1522)
 -->
<!-- Title: NoIndicationActionInputBase Pages: 1 -->
<svg width="718pt" height="216pt"
 viewBox="0.00 0.00 718.00 216.00" xmlns="http://www.w3.org/2000/svg" xmlns:xlink="http://www.w3.org/1999/xlink">
<g id="graph0" class="graph" transform="scale(1 1) rotate(0) translate(4 212)">
<title>NoIndicationActionInputBase</title>
<!-- Node1 -->
<g id="Node000001" class="node">
<title>Node1</title>
<g id="a_Node000001"><a xlink:title=" ">
<polygon fill="#999999" stroke="#666666" points="372,-114 231.5,-114 231.5,-94 372,-94 372,-114"/>
<text text-anchor="middle" x="301.75" y="-100.5" font-family="Helvetica,sans-Serif" font-size="10.00">NoIndicationActionInputBase</text>
</a>
</g>
</g>
<!-- Node4 -->
<g id="Node000004" class="node">
<title>Node4</title>
<g id="a_Node000004"><a xlink:href="../../de/d0a/class_continuous_weapon_manipulation_action_input.html" target="_top" xlink:title=" ">
<polygon fill="white" stroke="#666666" points="563.5,-208 408,-208 408,-176 563.5,-176 563.5,-208"/>
<text text-anchor="start" x="416" y="-194.5" font-family="Helvetica,sans-Serif" font-size="10.00">ContinuousWeaponManipulation</text>
<text text-anchor="middle" x="485.75" y="-182.5" font-family="Helvetica,sans-Serif" font-size="10.00">ActionInput</text>
</a>
</g>
</g>
<!-- Node1&#45;&gt;Node4 -->
<g id="edge3_Node000001_Node000004" class="edge">
<title>Node1&#45;&gt;Node4</title>
<g id="a_edge3_Node000001_Node000004"><a xlink:title=" ">
<path fill="none" stroke="#8b1a1a" d="M326.82,-120.55C347.63,-134.31 378.85,-153.73 408,-167 414.76,-170.08 422.01,-172.95 429.26,-175.58"/>
<polygon fill="#8b1a1a" stroke="#8b1a1a" points="329.02,-117.8 318.76,-115.14 325.12,-123.61 329.02,-117.8"/>
</a>
</g>
</g>
<!-- Node5 -->
<g id="Node000005" class="node">
<title>Node5</title>
<g id="a_Node000005"><a xlink:href="../../d4/d0f/class_drop_action_input.html" target="_top" xlink:title=" ">
<polygon fill="white" stroke="#666666" points="528.25,-158 443.25,-158 443.25,-138 528.25,-138 528.25,-158"/>
<text text-anchor="middle" x="485.75" y="-144.5" font-family="Helvetica,sans-Serif" font-size="10.00">DropActionInput</text>
</a>
</g>
</g>
<!-- Node1&#45;&gt;Node5 -->
<g id="edge4_Node000001_Node000005" class="edge">
<title>Node1&#45;&gt;Node5</title>
<g id="a_edge4_Node000001_Node000005"><a xlink:title=" ">
<path fill="none" stroke="#8b1a1a" d="M356.91,-117.09C384.42,-123.74 417.33,-131.7 442.87,-137.87"/>
<polygon fill="#8b1a1a" stroke="#8b1a1a" points="357.9,-113.73 347.35,-114.78 356.25,-120.54 357.9,-113.73"/>
</a>
</g>
</g>
<!-- Node6 -->
<g id="Node000006" class="node">
<title>Node6</title>
<g id="a_Node000006"><a xlink:href="../../d1/d03/class_external_controlled_action_input.html" target="_top" xlink:title=" ">
<polygon fill="white" stroke="#666666" points="547.38,-120 424.12,-120 424.12,-88 547.38,-88 547.38,-120"/>
<text text-anchor="start" x="432.12" y="-106.5" font-family="Helvetica,sans-Serif" font-size="10.00">ExternalControlledAction</text>
<text text-anchor="middle" x="485.75" y="-94.5" font-family="Helvetica,sans-Serif" font-size="10.00">Input</text>
</a>
</g>
</g>
<!-- Node1&#45;&gt;Node6 -->
<g id="edge5_Node000001_Node000006" class="edge">
<title>Node1&#45;&gt;Node6</title>
<g id="a_edge5_Node000001_Node000006"><a xlink:title=" ">
<path fill="none" stroke="#8b1a1a" d="M383.59,-104C397.1,-104 410.92,-104 423.83,-104"/>
<polygon fill="#8b1a1a" stroke="#8b1a1a" points="383.85,-100.5 373.85,-104 383.85,-107.5 383.85,-100.5"/>
</a>
</g>
</g>
<!-- Node8 -->
<g id="Node000008" class="node">
<title>Node8</title>
<g id="a_Node000008"><a xlink:href="../../db/d00/class_inventory_only_action_input.html" target="_top" xlink:title=" ">
<polygon fill="white" stroke="#666666" points="547.38,-70 424.12,-70 424.12,-50 547.38,-50 547.38,-70"/>
<text text-anchor="middle" x="485.75" y="-56.5" font-family="Helvetica,sans-Serif" font-size="10.00">InventoryOnlyActionInput</text>
</a>
</g>
</g>
<!-- Node1&#45;&gt;Node8 -->
<g id="edge7_Node000001_Node000008" class="edge">
<title>Node1&#45;&gt;Node8</title>
<g id="a_edge7_Node000001_Node000008"><a xlink:title=" ">
<path fill="none" stroke="#8b1a1a" d="M356.75,-90.95C383.84,-84.4 416.21,-76.57 441.61,-70.43"/>
<polygon fill="#8b1a1a" stroke="#8b1a1a" points="356.25,-87.46 347.35,-93.22 357.9,-94.27 356.25,-87.46"/>
</a>
</g>
</g>
<!-- Node9 -->
<g id="Node000009" class="node">
<title>Node9</title>
<g id="a_Node000009"><a xlink:href="../../d4/d0a/class_weapon_manipulation_action_input.html" target="_top" xlink:title=" ">
<polygon fill="white" stroke="#666666" points="553,-32 418.5,-32 418.5,0 553,0 553,-32"/>
<text text-anchor="start" x="426.5" y="-18.5" font-family="Helvetica,sans-Serif" font-size="10.00">WeaponManipulationAction</text>
<text text-anchor="middle" x="485.75" y="-6.5" font-family="Helvetica,sans-Serif" font-size="10.00">Input</text>
</a>
</g>
</g>
<!-- Node1&#45;&gt;Node9 -->
<g id="edge8_Node000001_Node000009" class="edge">
<title>Node1&#45;&gt;Node9</title>
<g id="a_edge8_Node000001_Node000009"><a xlink:title=" ">
<path fill="none" stroke="#8b1a1a" d="M326.82,-87.45C347.63,-73.69 378.85,-54.27 408,-41 414.76,-37.92 422.01,-35.05 429.26,-32.42"/>
<polygon fill="#8b1a1a" stroke="#8b1a1a" points="325.12,-84.39 318.76,-92.86 329.02,-90.2 325.12,-84.39"/>
</a>
</g>
</g>
<!-- Node2 -->
<g id="Node000002" class="node">
<title>Node2</title>
<g id="a_Node000002"><a xlink:href="../../dc/d07/class_action_input.html" target="_top" xlink:title=" ">
<polygon fill="white" stroke="#666666" points="195.5,-114 130.75,-114 130.75,-94 195.5,-94 195.5,-114"/>
<text text-anchor="middle" x="163.12" y="-100.5" font-family="Helvetica,sans-Serif" font-size="10.00">ActionInput</text>
</a>
</g>
</g>
<!-- Node2&#45;&gt;Node1 -->
<g id="edge1_Node000001_Node000002" class="edge">
<title>Node2&#45;&gt;Node1</title>
<g id="a_edge1_Node000001_Node000002"><a xlink:title=" ">
<path fill="none" stroke="#8b1a1a" d="M207.32,-104C214.94,-104 223.04,-104 231.16,-104"/>
<polygon fill="#8b1a1a" stroke="#8b1a1a" points="207.33,-100.5 197.33,-104 207.33,-107.5 207.33,-100.5"/>
</a>
</g>
</g>
<!-- Node3 -->
<g id="Node000003" class="node">
<title>Node3</title>
<g id="a_Node000003"><a xlink:href="../../d1/d06/class_action_input___basic.html" target="_top" xlink:title=" ">
<polygon fill="white" stroke="#666666" points="94.75,-114 0,-114 0,-94 94.75,-94 94.75,-114"/>
<text text-anchor="middle" x="47.38" y="-100.5" font-family="Helvetica,sans-Serif" font-size="10.00">ActionInput_Basic</text>
</a>
</g>
</g>
<!-- Node3&#45;&gt;Node2 -->
<g id="edge2_Node000002_Node000003" class="edge">
<title>Node3&#45;&gt;Node2</title>
<g id="a_edge2_Node000002_Node000003"><a xlink:title=" ">
<path fill="none" stroke="#8b1a1a" d="M106.24,-104C114.55,-104 122.82,-104 130.36,-104"/>
<polygon fill="#8b1a1a" stroke="#8b1a1a" points="106.48,-100.5 96.48,-104 106.48,-107.5 106.48,-100.5"/>
</a>
</g>
</g>
<!-- Node7 -->
<g id="Node000007" class="node">
<title>Node7</title>
<g id="a_Node000007"><a xlink:href="../../d8/d02/class_quicka_bar_action_input.html" target="_top" xlink:title=" ">
<polygon fill="white" stroke="#666666" points="710,-114 599.5,-114 599.5,-94 710,-94 710,-114"/>
<text text-anchor="middle" x="654.75" y="-100.5" font-family="Helvetica,sans-Serif" font-size="10.00">QuickaBarActionInput</text>
</a>
</g>
</g>
<!-- Node6&#45;&gt;Node7 -->
<g id="edge6_Node000006_Node000007" class="edge">
<title>Node6&#45;&gt;Node7</title>
<g id="a_edge6_Node000006_Node000007"><a xlink:title=" ">
<path fill="none" stroke="#8b1a1a" d="M558.75,-104C572.28,-104 586.23,-104 599.12,-104"/>
<polygon fill="#8b1a1a" stroke="#8b1a1a" points="559.03,-100.5 549.03,-104 559.03,-107.5 559.03,-100.5"/>
</a>
</g>
</g>
</g>
</svg>
