<?xml version="1.0" encoding="UTF-8" standalone="no"?>
<!DOCTYPE svg PUBLIC "-//W3C//DTD SVG 1.1//EN"
 "http://www.w3.org/Graphics/SVG/1.1/DTD/svg11.dtd">
<!-- Generated by graphviz version 11.0.0 (20240428.1522)
 -->
<!-- Title: LifespanLevel Pages: 1 -->
<svg width="279pt" height="124pt"
 viewBox="0.00 0.00 279.38 124.00" xmlns="http://www.w3.org/2000/svg" xmlns:xlink="http://www.w3.org/1999/xlink">

<svg id="main" version="1.1" xmlns="http://www.w3.org/2000/svg" xmlns:xlink="http://www.w3.org/1999/xlink" xml:space="preserve" onload="init(evt)">
<style type="text/css"><![CDATA[
.node, .edge {opacity: 0.7;}
.node.selected, .edge.selected {opacity: 1;}
.edge:hover path { stroke: red; }
.edge:hover polygon { stroke: red; fill: red; }
]]></style>
<script type="application/ecmascript" xlink:href="../../svg.min.js"/>
<svg id="graph" class="graph">
<g id="graph0" class="graph" transform="scale(1 1) rotate(0) translate(4 120)">
<title>LifespanLevel</title>
<!-- Node1 -->
<g id="Node000001" class="node">
<title>Node1</title>
<g id="a_Node000001"><a xlink:title=" ">
<polygon fill="#999999" stroke="#666666" points="122.75,-20 49,-20 49,0 122.75,0 122.75,-20"/>
<text text-anchor="middle" x="85.88" y="-6.5" font-family="Helvetica,sans-Serif" font-size="10.00">LifespanLevel</text>
</a>
</g>
</g>
<!-- Node2 -->
<g id="Node000002" class="node">
<title>Node2</title>
<g id="a_Node000002"><a xlink:href="../../db/d06/class_param3.html" target="_top" xlink:title=" ">
<polygon fill="white" stroke="#666666" points="49.75,-108 0,-108 0,-88 49.75,-88 49.75,-108"/>
<text text-anchor="middle" x="24.88" y="-94.5" font-family="Helvetica,sans-Serif" font-size="10.00">Param3</text>
</a>
</g>
</g>
<!-- Node2&#45;&gt;Node1 -->
<g id="edge1_Node000001_Node000002" class="edge">
<title>Node2&#45;&gt;Node1</title>
<g id="a_edge1_Node000001_Node000002"><a xlink:title=" ">
<path fill="none" stroke="#9a32cd" stroke-dasharray="5,2" d="M27.37,-76.4C29.69,-64.24 34.14,-49.1 42.62,-38 48.32,-30.54 56.72,-24.63 64.6,-20.27"/>
<polygon fill="#9a32cd" stroke="#9a32cd" points="23.93,-75.79 25.87,-86.2 30.84,-76.85 23.93,-75.79"/>
</a>
</g>
<text text-anchor="middle" x="61" y="-46.5" font-family="Helvetica,sans-Serif" font-size="10.00" fill="grey"> m_Level</text>
</g>
<!-- Node3 -->
<g id="Node000003" class="node">
<title>Node3</title>
<g id="a_Node000003"><a xlink:href="../../d4/d03/classfloat.html" target="_top" xlink:title=" ">
<polygon fill="white" stroke="#666666" points="101.88,-108 67.88,-108 67.88,-88 101.88,-88 101.88,-108"/>
<text text-anchor="middle" x="84.88" y="-94.5" font-family="Helvetica,sans-Serif" font-size="10.00">float</text>
</a>
</g>
</g>
<!-- Node3&#45;&gt;Node1 -->
<g id="edge2_Node000001_Node000003" class="edge">
<title>Node3&#45;&gt;Node1</title>
<g id="a_edge2_Node000001_Node000003"><a xlink:title=" ">
<path fill="none" stroke="#9a32cd" stroke-dasharray="5,2" d="M85.11,-76.37C85.32,-58.6 85.61,-33.76 85.77,-20.4"/>
<polygon fill="#9a32cd" stroke="#9a32cd" points="81.62,-76.24 85,-86.28 88.62,-76.32 81.62,-76.24"/>
</a>
</g>
<text text-anchor="middle" x="114.12" y="-46.5" font-family="Helvetica,sans-Serif" font-size="10.00" fill="grey"> m_Threshold</text>
</g>
<!-- Node3&#45;&gt;Node3 -->
<g id="edge3_Node000003_Node000003" class="edge">
<title>Node3&#45;&gt;Node3</title>
<g id="a_edge3_Node000003_Node000003"><a xlink:title=" ">
<path fill="none" stroke="#9a32cd" stroke-dasharray="5,2" d="M113.55,-105.95C117.35,-104.6 119.88,-101.95 119.88,-98 119.88,-90.78 111.43,-87.91 102.16,-89.37"/>
<polygon fill="#9a32cd" stroke="#9a32cd" points="113.45,-102.45 103.67,-106.54 113.86,-109.43 113.45,-102.45"/>
</a>
</g>
<text text-anchor="middle" x="142" y="-106.5" font-family="Helvetica,sans-Serif" font-size="10.00" fill="grey"> LOWEST</text>
<text text-anchor="middle" x="142" y="-94.5" font-family="Helvetica,sans-Serif" font-size="10.00" fill="grey">MAX</text>
<text text-anchor="middle" x="142" y="-82.5" font-family="Helvetica,sans-Serif" font-size="10.00" fill="grey">MIN</text>
</g>
<!-- Node4 -->
<g id="Node000004" class="node">
<title>Node4</title>
<g id="a_Node000004"><a xlink:href="../../d5/d02/classstring.html" target="_top" xlink:title=" ">
<polygon fill="white" stroke="#666666" points="221.88,-108 181.88,-108 181.88,-88 221.88,-88 221.88,-108"/>
<text text-anchor="middle" x="201.88" y="-94.5" font-family="Helvetica,sans-Serif" font-size="10.00">string</text>
</a>
</g>
</g>
<!-- Node4&#45;&gt;Node1 -->
<g id="edge4_Node000001_Node000004" class="edge">
<title>Node4&#45;&gt;Node1</title>
<g id="a_edge4_Node000001_Node000004"><a xlink:title=" ">
<path fill="none" stroke="#9a32cd" stroke-dasharray="5,2" d="M188.8,-79.1C178.75,-66.32 163.9,-49.45 147.88,-38 137.75,-30.77 125.38,-24.9 114.36,-20.5"/>
<polygon fill="#9a32cd" stroke="#9a32cd" points="185.74,-80.86 194.58,-86.7 191.32,-76.62 185.74,-80.86"/>
</a>
</g>
<text text-anchor="middle" x="211.12" y="-52.5" font-family="Helvetica,sans-Serif" font-size="10.00" fill="grey"> m_MaterialName</text>
<text text-anchor="middle" x="211.12" y="-40.5" font-family="Helvetica,sans-Serif" font-size="10.00" fill="grey">m_TextureName</text>
</g>
<!-- Node4&#45;&gt;Node4 -->
<g id="edge5_Node000004_Node000004" class="edge">
<title>Node4&#45;&gt;Node4</title>
<g id="a_edge5_Node000004_Node000004"><a xlink:title=" ">
<path fill="none" stroke="#9a32cd" stroke-dasharray="5,2" d="M233.63,-105.73C237.41,-104.32 239.88,-101.74 239.88,-98 239.88,-91.16 231.64,-88.22 222.2,-89.18"/>
<polygon fill="#9a32cd" stroke="#9a32cd" points="233.33,-102.24 223.71,-106.68 234,-109.21 233.33,-102.24"/>
</a>
</g>
<text text-anchor="middle" x="255.62" y="-94.5" font-family="Helvetica,sans-Serif" font-size="10.00" fill="grey"> Empty</text>
</g>
</g>
</svg>
</svg>

<style type='text/css'>
<![CDATA[
[data-mouse-over-selected='false'] { opacity: 0.7; }
[data-mouse-over-selected='true']  { opacity: 1.0; }
]]>
</style>
<script type="application/ecmascript"><![CDATA[
document.addEventListener('DOMContentLoaded', (event) => {
  highlightEdges();
  highlightAdjacentNodes();
});
]]></script>
</svg>
