<?xml version="1.0" encoding="UTF-8" standalone="no"?>
<!DOCTYPE svg PUBLIC "-//W3C//DTD SVG 1.1//EN"
 "http://www.w3.org/Graphics/SVG/1.1/DTD/svg11.dtd">
<!-- Generated by graphviz version 11.0.0 (20240428.1522)
 -->
<!-- Title: BiosFriendInfo Pages: 1 -->
<svg width="182pt" height="108pt"
 viewBox="0.00 0.00 182.25 108.00" xmlns="http://www.w3.org/2000/svg" xmlns:xlink="http://www.w3.org/1999/xlink">

<svg id="main" version="1.1" xmlns="http://www.w3.org/2000/svg" xmlns:xlink="http://www.w3.org/1999/xlink" xml:space="preserve" onload="init(evt)">
<style type="text/css"><![CDATA[
.node, .edge {opacity: 0.7;}
.node.selected, .edge.selected {opacity: 1;}
.edge:hover path { stroke: red; }
.edge:hover polygon { stroke: red; fill: red; }
]]></style>
<script type="application/ecmascript" xlink:href="../../svg.min.js"/>
<svg id="graph" class="graph">
<g id="graph0" class="graph" transform="scale(1 1) rotate(0) translate(4 104)">
<title>BiosFriendInfo</title>
<!-- Node1 -->
<g id="Node000001" class="node">
<title>Node1</title>
<g id="a_Node000001"><a xlink:title="BiosFriendInfo represents friend information.">
<polygon fill="#999999" stroke="#666666" points="110.75,-20 33.25,-20 33.25,0 110.75,0 110.75,-20"/>
<text text-anchor="middle" x="72" y="-6.5" font-family="Helvetica,sans-Serif" font-size="10.00">BiosFriendInfo</text>
</a>
</g>
</g>
<!-- Node2 -->
<g id="Node000002" class="node">
<title>Node2</title>
<g id="a_Node000002"><a xlink:href="../../d5/d02/classstring.html" target="_top" xlink:title=" ">
<polygon fill="white" stroke="#666666" points="40,-100 0,-100 0,-80 40,-80 40,-100"/>
<text text-anchor="middle" x="20" y="-86.5" font-family="Helvetica,sans-Serif" font-size="10.00">string</text>
</a>
</g>
</g>
<!-- Node2&#45;&gt;Node1 -->
<g id="edge1_Node000001_Node000002" class="edge">
<title>Node2&#45;&gt;Node1</title>
<g id="a_edge1_Node000001_Node000002"><a xlink:title=" ">
<path fill="none" stroke="#9a32cd" stroke-dasharray="5,2" d="M19.73,-68.22C20.52,-58.35 22.83,-46.81 28.75,-38 33.78,-30.5 41.67,-24.7 49.34,-20.42"/>
<polygon fill="#9a32cd" stroke="#9a32cd" points="16.24,-67.9 19.45,-77.99 23.24,-68.1 16.24,-67.9"/>
</a>
</g>
<text text-anchor="middle" x="65.12" y="-52.5" font-family="Helvetica,sans-Serif" font-size="10.00" fill="grey"> m_DisplayName</text>
<text text-anchor="middle" x="65.12" y="-40.5" font-family="Helvetica,sans-Serif" font-size="10.00" fill="grey">m_Uid</text>
</g>
<!-- Node2&#45;&gt;Node2 -->
<g id="edge2_Node000002_Node000002" class="edge">
<title>Node2&#45;&gt;Node2</title>
<g id="a_edge2_Node000002_Node000002"><a xlink:title=" ">
<path fill="none" stroke="#9a32cd" stroke-dasharray="5,2" d="M51.76,-96.44C55.54,-95.27 58,-93.12 58,-90 58,-84.3 49.76,-81.85 40.33,-82.65"/>
<polygon fill="#9a32cd" stroke="#9a32cd" points="51.53,-92.95 41.84,-97.23 52.09,-99.92 51.53,-92.95"/>
</a>
</g>
<text text-anchor="middle" x="73.75" y="-86.5" font-family="Helvetica,sans-Serif" font-size="10.00" fill="grey"> Empty</text>
</g>
<!-- Node3 -->
<g id="Node000003" class="node">
<title>Node3</title>
<g id="a_Node000003"><a xlink:href="../../d9/d09/classbool.html" target="_top" xlink:title=" ">
<polygon fill="white" stroke="#666666" points="142,-100 108,-100 108,-80 142,-80 142,-100"/>
<text text-anchor="middle" x="125" y="-86.5" font-family="Helvetica,sans-Serif" font-size="10.00">bool</text>
</a>
</g>
</g>
<!-- Node3&#45;&gt;Node1 -->
<g id="edge3_Node000001_Node000003" class="edge">
<title>Node3&#45;&gt;Node1</title>
<g id="a_edge3_Node000001_Node000003"><a xlink:title=" ">
<path fill="none" stroke="#9a32cd" stroke-dasharray="5,2" d="M118.7,-68.89C115.04,-59.02 109.79,-47.3 103,-38 98.12,-31.31 91.29,-25.14 85.29,-20.39"/>
<polygon fill="#9a32cd" stroke="#9a32cd" points="115.35,-69.93 121.89,-78.27 121.98,-67.67 115.35,-69.93"/>
</a>
</g>
<text text-anchor="middle" x="144.62" y="-52.5" font-family="Helvetica,sans-Serif" font-size="10.00" fill="grey"> m_IsFavorite</text>
<text text-anchor="middle" x="144.62" y="-40.5" font-family="Helvetica,sans-Serif" font-size="10.00" fill="grey">m_IsFollowed</text>
</g>
</g>
</svg>
</svg>

<style type='text/css'>
<![CDATA[
[data-mouse-over-selected='false'] { opacity: 0.7; }
[data-mouse-over-selected='true']  { opacity: 1.0; }
]]>
</style>
<script type="application/ecmascript"><![CDATA[
document.addEventListener('DOMContentLoaded', (event) => {
  highlightEdges();
  highlightAdjacentNodes();
});
]]></script>
</svg>
