<?xml version="1.0" encoding="UTF-8" standalone="no"?>
<!DOCTYPE svg PUBLIC "-//W3C//DTD SVG 1.1//EN"
 "http://www.w3.org/Graphics/SVG/1.1/DTD/svg11.dtd">
<!-- Generated by graphviz version 11.0.0 (20240428.1522)
 -->
<!-- Title: FeverNotfr Pages: 1 -->
<!--zoomable 344 -->

<svg id="main" version="1.1" xmlns="http://www.w3.org/2000/svg" xmlns:xlink="http://www.w3.org/1999/xlink" xml:space="preserve" onload="init(evt)">
<style type="text/css"><![CDATA[
.node, .edge {opacity: 0.7;}
.node.selected, .edge.selected {opacity: 1;}
.edge:hover path { stroke: red; }
.edge:hover polygon { stroke: red; fill: red; }
]]></style>

<defs>
  <circle id="rim" cx="0" cy="0" r="7"/>
  <circle id="rim2" cx="0" cy="0" r="3.5"/>
  <g id="zoomPlus">
    <use xlink:href="#rim" fill="#404040"><set attributeName="fill" to="#808080" begin="zoomplus.mouseover" end="zoomplus.mouseout"/></use>
    <path d="M-4,0h8M0,-4v8" fill="none" stroke="white" stroke-width="1.5" pointer-events="none"/>
  </g>
  <g id="zoomMin">
    <use xlink:href="#rim" fill="#404040"><set attributeName="fill" to="#808080" begin="zoomminus.mouseover" end="zoomminus.mouseout"/></use>
    <path d="M-4,0h8" fill="none" stroke="white" stroke-width="1.5" pointer-events="none"/>
  </g>
  <g id="arrowUp" transform="translate(30 24)">
    <use xlink:href="#rim"/>
    <path pointer-events="none" fill="none" stroke="white" stroke-width="1.5" d="M0,-3.0v7 M-2.5,-0.5L0,-3.0L2.5,-0.5"/>
  </g>
  <g id="arrowRight" transform="rotate(90) translate(36 -43)">
    <use xlink:href="#rim"/>
    <path pointer-events="none" fill="none" stroke="white" stroke-width="1.5" d="M0,-3.0v7 M-2.5,-0.5L0,-3.0L2.5,-0.5"/>
  </g>
  <g id="arrowDown" transform="rotate(180) translate(-30 -48)">
    <use xlink:href="#rim"/>
    <path pointer-events="none" fill="none" stroke="white" stroke-width="1.5" d="M0,-3.0v7 M-2.5,-0.5L0,-3.0L2.5,-0.5"/>
  </g>
  <g id="arrowLeft" transform="rotate(270) translate(-36 17)">
    <use xlink:href="#rim"/>
    <path pointer-events="none" fill="none" stroke="white" stroke-width="1.5" d="M0,-3.0v7 M-2.5,-0.5L0,-3.0L2.5,-0.5"/>
  </g>
  <g id="resetDef">
    <use xlink:href="#rim2" fill="#404040"><set attributeName="fill" to="#808080" begin="reset.mouseover" end="reset.mouseout"/></use>
  </g>
</defs>
<script type="application/ecmascript">
var viewWidth = 549;
var viewHeight = 344;
var sectionId = 'dynsection-1';
</script>
<script type="application/ecmascript" xlink:href="../../svg.min.js"/>
<svg id="graph" class="graph">
<g id="viewport">
<title>FeverNotfr</title>
<!-- Node1 -->
<g id="Node000001" class="node">
<title>Node1</title>
<g id="a_Node000001"><a xlink:title=" ">
<polygon fill="#999999" stroke="#666666" points="234.75,-20 175.25,-20 175.25,0 234.75,0 234.75,-20"/>
<text text-anchor="middle" x="205" y="-6.5" font-family="Helvetica,sans-Serif" font-size="10.00">FeverNotfr</text>
</a>
</g>
</g>
<!-- Node2 -->
<g id="Node000002" class="node">
<title>Node2</title>
<g id="a_Node000002"><a xlink:href="../../d9/d0b/class_notifier_base.html" target="_top" xlink:title=" ">
<polygon fill="white" stroke="#666666" points="239.25,-76 170.75,-76 170.75,-56 239.25,-56 239.25,-76"/>
<text text-anchor="middle" x="205" y="-62.5" font-family="Helvetica,sans-Serif" font-size="10.00">NotifierBase</text>
</a>
</g>
</g>
<!-- Node2&#45;&gt;Node1 -->
<g id="edge1_Node000001_Node000002" class="edge">
<title>Node2&#45;&gt;Node1</title>
<g id="a_edge1_Node000001_Node000002"><a xlink:title=" ">
<path fill="none" stroke="#8b1a1a" d="M205,-44.13C205,-35.9 205,-26.85 205,-20.3"/>
<polygon fill="#8b1a1a" stroke="#8b1a1a" points="201.5,-44.08 205,-54.08 208.5,-44.08 201.5,-44.08"/>
</a>
</g>
</g>
<!-- Node3 -->
<g id="Node000003" class="node">
<title>Node3</title>
<g id="a_Node000003"><a xlink:href="../../d4/d03/classfloat.html" target="_top" xlink:title=" ">
<polygon fill="white" stroke="#666666" points="34,-212 0,-212 0,-192 34,-192 34,-212"/>
<text text-anchor="middle" x="17" y="-198.5" font-family="Helvetica,sans-Serif" font-size="10.00">float</text>
</a>
</g>
</g>
<!-- Node3&#45;&gt;Node2 -->
<g id="edge2_Node000002_Node000003" class="edge">
<title>Node3&#45;&gt;Node2</title>
<g id="a_edge2_Node000002_Node000003"><a xlink:title=" ">
<path fill="none" stroke="#9a32cd" stroke-dasharray="5,2" d="M17.23,-180.08C18.7,-155.65 25.05,-115.79 49.75,-94 67.24,-78.57 130.3,-71.72 170.47,-68.86"/>
<polygon fill="#9a32cd" stroke="#9a32cd" points="13.74,-179.94 16.89,-190.06 20.73,-180.19 13.74,-179.94"/>
</a>
</g>
<text text-anchor="middle" x="90.12" y="-144.5" font-family="Helvetica,sans-Serif" font-size="10.00" fill="grey"> m_DeltaT</text>
<text text-anchor="middle" x="90.12" y="-132.5" font-family="Helvetica,sans-Serif" font-size="10.00" fill="grey">m_LastMA</text>
<text text-anchor="middle" x="90.12" y="-120.5" font-family="Helvetica,sans-Serif" font-size="10.00" fill="grey">m_LastTendency</text>
<text text-anchor="middle" x="90.12" y="-108.5" font-family="Helvetica,sans-Serif" font-size="10.00" fill="grey">m_TendencyBuffer</text>
</g>
<!-- Node3&#45;&gt;Node3 -->
<g id="edge3_Node000003_Node000003" class="edge">
<title>Node3&#45;&gt;Node3</title>
<g id="a_edge3_Node000003_Node000003"><a xlink:title=" ">
<path fill="none" stroke="#9a32cd" stroke-dasharray="5,2" d="M41.2,-214.23C47.37,-213.43 52,-209.35 52,-202 52,-190.53 40.72,-187.03 29.92,-191.51"/>
<polygon fill="#9a32cd" stroke="#9a32cd" points="41.84,-210.78 31.42,-212.72 40.77,-217.7 41.84,-210.78"/>
</a>
</g>
<text text-anchor="middle" x="74.12" y="-210.5" font-family="Helvetica,sans-Serif" font-size="10.00" fill="grey"> LOWEST</text>
<text text-anchor="middle" x="74.12" y="-198.5" font-family="Helvetica,sans-Serif" font-size="10.00" fill="grey">MAX</text>
<text text-anchor="middle" x="74.12" y="-186.5" font-family="Helvetica,sans-Serif" font-size="10.00" fill="grey">MIN</text>
</g>
<!-- Node4 -->
<g id="Node000004" class="node">
<title>Node4</title>
<g id="a_Node000004"><a xlink:href="../../d8/d08/class_timer.html" target="_top" xlink:title=" ">
<polygon fill="white" stroke="#666666" points="154,-212 114,-212 114,-192 154,-192 154,-212"/>
<text text-anchor="middle" x="134" y="-198.5" font-family="Helvetica,sans-Serif" font-size="10.00">Timer</text>
</a>
</g>
</g>
<!-- Node4&#45;&gt;Node2 -->
<g id="edge4_Node000002_Node000004" class="edge">
<title>Node4&#45;&gt;Node2</title>
<g id="a_edge4_Node000002_Node000004"><a xlink:title=" ">
<path fill="none" stroke="#9a32cd" stroke-dasharray="5,2" d="M133.12,-180.45C133.16,-157.27 136.49,-119.48 155.25,-94 160.9,-86.32 169.41,-80.59 177.81,-76.43"/>
<polygon fill="#9a32cd" stroke="#9a32cd" points="129.61,-180.22 133.32,-190.15 136.61,-180.08 129.61,-180.22"/>
</a>
</g>
<text text-anchor="middle" x="178.88" y="-126.5" font-family="Helvetica,sans-Serif" font-size="10.00" fill="grey"> m_Timer1</text>
</g>
<!-- Node5 -->
<g id="Node000005" class="node">
<title>Node5</title>
<g id="a_Node000005"><a xlink:href="../../d5/d08/class_player_base.html" target="_top" xlink:title=" ">
<polygon fill="white" stroke="#666666" points="238.12,-212 171.88,-212 171.88,-192 238.12,-192 238.12,-212"/>
<text text-anchor="middle" x="205" y="-198.5" font-family="Helvetica,sans-Serif" font-size="10.00">PlayerBase</text>
</a>
</g>
</g>
<!-- Node5&#45;&gt;Node2 -->
<g id="edge5_Node000002_Node000005" class="edge">
<title>Node5&#45;&gt;Node2</title>
<g id="a_edge5_Node000002_Node000005"><a xlink:title=" ">
<path fill="none" stroke="#9a32cd" stroke-dasharray="5,2" d="M205,-180.41C205,-150.87 205,-97.66 205,-76.27"/>
<polygon fill="#9a32cd" stroke="#9a32cd" points="201.5,-180.28 205,-190.28 208.5,-180.28 201.5,-180.28"/>
</a>
</g>
<text text-anchor="middle" x="227.12" y="-126.5" font-family="Helvetica,sans-Serif" font-size="10.00" fill="grey"> m_Player</text>
</g>
<!-- Node6 -->
<g id="Node000006" class="node">
<title>Node6</title>
<g id="a_Node000006"><a xlink:href="../../dd/d03/class_scripted_light_base.html" target="_top" xlink:title=" ">
<polygon fill="white" stroke="#666666" points="113.75,-336 18.25,-336 18.25,-316 113.75,-316 113.75,-336"/>
<text text-anchor="middle" x="66" y="-322.5" font-family="Helvetica,sans-Serif" font-size="10.00">ScriptedLightBase</text>
</a>
</g>
</g>
<!-- Node6&#45;&gt;Node5 -->
<g id="edge6_Node000005_Node000006" class="edge">
<title>Node6&#45;&gt;Node5</title>
<g id="a_edge6_Node000005_Node000006"><a xlink:title=" ">
<path fill="none" stroke="#9a32cd" stroke-dasharray="5,2" d="M62.51,-304.4C60.46,-284.79 60.88,-255.7 77.25,-238 103.69,-209.41 125.75,-231.35 163,-220 169.92,-217.89 177.29,-215.1 183.9,-212.39"/>
<polygon fill="#9a32cd" stroke="#9a32cd" points="59.03,-304.78 63.88,-314.21 65.97,-303.82 59.03,-304.78"/>
</a>
</g>
<text text-anchor="middle" x="115.88" y="-264.5" font-family="Helvetica,sans-Serif" font-size="10.00" fill="grey"> m_PersonalLight</text>
</g>
<!-- Node7 -->
<g id="Node000007" class="node">
<title>Node7</title>
<g id="a_Node000007"><a xlink:href="../../d9/d09/classbool.html" target="_top" xlink:title=" ">
<polygon fill="white" stroke="#666666" points="256,-336 222,-336 222,-316 256,-316 256,-336"/>
<text text-anchor="middle" x="239" y="-322.5" font-family="Helvetica,sans-Serif" font-size="10.00">bool</text>
</a>
</g>
</g>
<!-- Node7&#45;&gt;Node2 -->
<g id="edge9_Node000002_Node000007" class="edge">
<title>Node7&#45;&gt;Node2</title>
<g id="a_edge9_Node000002_Node000007"><a xlink:title=" ">
<path fill="none" stroke="#9a32cd" stroke-dasharray="5,2" d="M267.24,-319.43C279.16,-315.53 291.9,-308.98 299,-298 313.48,-275.61 303.11,-264.35 299,-238 288.65,-171.62 295.44,-146.08 253,-94 246.84,-86.44 237.97,-80.62 229.52,-76.35"/>
<polygon fill="#9a32cd" stroke="#9a32cd" points="266.47,-316.01 257.74,-322.01 268.3,-322.77 266.47,-316.01"/>
</a>
</g>
<text text-anchor="middle" x="335.75" y="-210.5" font-family="Helvetica,sans-Serif" font-size="10.00" fill="grey"> m_Active</text>
<text text-anchor="middle" x="335.75" y="-198.5" font-family="Helvetica,sans-Serif" font-size="10.00" fill="grey">m_FirstPass</text>
<text text-anchor="middle" x="335.75" y="-186.5" font-family="Helvetica,sans-Serif" font-size="10.00" fill="grey">m_ShowTendency</text>
</g>
<!-- Node7&#45;&gt;Node5 -->
<g id="edge7_Node000005_Node000007" class="edge">
<title>Node7&#45;&gt;Node5</title>
<g id="a_edge7_Node000005_Node000007"><a xlink:title=" ">
<path fill="none" stroke="#9a32cd" stroke-dasharray="5,2" d="M210.88,-322.29C194.96,-319.15 176.28,-312.42 166.25,-298 151.02,-276.11 155.42,-262.37 166.25,-238 171.04,-227.23 180.95,-218.37 189.56,-212.26"/>
<polygon fill="#9a32cd" stroke="#9a32cd" points="209.9,-325.68 220.32,-323.77 210.98,-318.77 209.9,-325.68"/>
</a>
</g>
<text text-anchor="start" x="167" y="-288.5" font-family="Helvetica,sans-Serif" font-size="10.00" fill="grey"> m_PersonalLightDisabledBy</text>
<text text-anchor="middle" x="233.38" y="-276.5" font-family="Helvetica,sans-Serif" font-size="10.00" fill="grey">Debug</text>
<text text-anchor="start" x="167" y="-264.5" font-family="Helvetica,sans-Serif" font-size="10.00" fill="grey">m_PersonalLightEnabledOn</text>
<text text-anchor="middle" x="233.38" y="-252.5" font-family="Helvetica,sans-Serif" font-size="10.00" fill="grey">CurrentServer</text>
<text text-anchor="middle" x="233.38" y="-240.5" font-family="Helvetica,sans-Serif" font-size="10.00" fill="grey">m_PersonalLightIsSwitchedOn</text>
</g>
<!-- Node8 -->
<g id="Node000008" class="node">
<title>Node8</title>
<g id="a_Node000008"><a xlink:href="../../db/d06/class_param3.html" target="_top" xlink:title=" ">
<polygon fill="white" stroke="#666666" points="459.88,-212 410.12,-212 410.12,-192 459.88,-192 459.88,-212"/>
<text text-anchor="middle" x="435" y="-198.5" font-family="Helvetica,sans-Serif" font-size="10.00">Param3</text>
</a>
</g>
</g>
<!-- Node8&#45;&gt;Node2 -->
<g id="edge8_Node000002_Node000008" class="edge">
<title>Node8&#45;&gt;Node2</title>
<g id="a_edge8_Node000002_Node000008"><a xlink:title=" ">
<path fill="none" stroke="#9a32cd" stroke-dasharray="5,2" d="M421.58,-182.28C403.13,-158 367.55,-116.12 327,-94 299.86,-79.2 265.13,-72.51 239.68,-69.49"/>
<polygon fill="#9a32cd" stroke="#9a32cd" points="418.75,-184.33 427.51,-190.29 424.37,-180.17 418.75,-184.33"/>
</a>
</g>
<text text-anchor="middle" x="473.75" y="-156.5" font-family="Helvetica,sans-Serif" font-size="10.00" fill="grey"> TENDENCY_BUFFER_SIZE</text>
<text text-anchor="middle" x="473.75" y="-144.5" font-family="Helvetica,sans-Serif" font-size="10.00" fill="grey">m_TendencyBufferSize</text>
<text text-anchor="middle" x="473.75" y="-132.5" font-family="Helvetica,sans-Serif" font-size="10.00" fill="grey">m_TendencyBufferWriteIterator</text>
<text text-anchor="middle" x="473.75" y="-120.5" font-family="Helvetica,sans-Serif" font-size="10.00" fill="grey">m_TickInterval</text>
<text text-anchor="middle" x="473.75" y="-108.5" font-family="Helvetica,sans-Serif" font-size="10.00" fill="grey">m_TickIntervalLastTick</text>
<text text-anchor="middle" x="473.75" y="-96.5" font-family="Helvetica,sans-Serif" font-size="10.00" fill="grey">m_Type</text>
</g>
</g>
</svg>

<g id="navigator" transform="translate(0 0)" fill="#404254">
  <rect fill="#f2f5e9" fill-opacity="0.5" stroke="#606060" stroke-width=".5" x="0" y="0" width="60" height="60"/>
  <use id="zoomplus" xlink:href="#zoomPlus" x="17" y="9" onmousedown="handleZoom(evt,'in')"/>
  <use id="zoomminus" xlink:href="#zoomMin" x="42" y="9" onmousedown="handleZoom(evt,'out')"/>
  <use id="reset" xlink:href="#resetDef" x="30" y="36" onmousedown="handleReset()"/>
   <use id="arrowup" xlink:href="#arrowUp" x="0" y="0" onmousedown="handlePan(0,-1)"/>
  <use id="arrowright" xlink:href="#arrowRight" x="0" y="0" onmousedown="handlePan(1,0)"/>
  <use id="arrowdown" xlink:href="#arrowDown" x="0" y="0" onmousedown="handlePan(0,1)"/>
  <use id="arrowleft" xlink:href="#arrowLeft" x="0" y="0" onmousedown="handlePan(-1,0)"/>
</g>
<svg viewBox="0 0 15 15" width="100%" height="30px" preserveAspectRatio="xMaxYMin meet">
 <g id="arrow_out" transform="scale(0.3 0.3)">
  <a xlink:href="class_fever_notfr__coll__graph_org.svg" target="_base">
   <rect id="button" ry="5" rx="5" y="6" x="6" height="38" width="38"
        fill="#f2f5e9" fill-opacity="0.5" stroke="#606060" stroke-width="1.0"/>
   <path id="arrow"
     d="M 11.500037,31.436501 C 11.940474,20.09759 22.043105,11.32322 32.158766,21.979434 L 37.068811,17.246167 C 37.068811,17.246167 37.088388,32 37.088388,32 L 22.160133,31.978069 C 22.160133,31.978069 26.997745,27.140456 26.997745,27.140456 C 18.528582,18.264221 13.291696,25.230495 11.500037,31.436501 z"
     style="fill:#404040;"/>
  </a>
 </g>
</svg>

<style type='text/css'>
<![CDATA[
[data-mouse-over-selected='false'] { opacity: 0.7; }
[data-mouse-over-selected='true']  { opacity: 1.0; }
]]>
</style>
<script type="application/ecmascript"><![CDATA[
document.addEventListener('DOMContentLoaded', (event) => {
  highlightEdges();
  highlightAdjacentNodes();
});
]]></script>
</svg>
