<?xml version="1.0" encoding="UTF-8" standalone="no"?>
<!DOCTYPE svg PUBLIC "-//W3C//DTD SVG 1.1//EN"
 "http://www.w3.org/Graphics/SVG/1.1/DTD/svg11.dtd">
<!-- Generated by graphviz version 11.0.0 (20240428.1522)
 -->
<!-- Title: CCTObject Pages: 1 -->
<svg width="205pt" height="112pt"
 viewBox="0.00 0.00 204.88 112.00" xmlns="http://www.w3.org/2000/svg" xmlns:xlink="http://www.w3.org/1999/xlink">

<svg id="main" version="1.1" xmlns="http://www.w3.org/2000/svg" xmlns:xlink="http://www.w3.org/1999/xlink" xml:space="preserve" onload="init(evt)">
<style type="text/css"><![CDATA[
.node, .edge {opacity: 0.7;}
.node.selected, .edge.selected {opacity: 1;}
.edge:hover path { stroke: red; }
.edge:hover polygon { stroke: red; fill: red; }
]]></style>
<script type="application/ecmascript" xlink:href="../../svg.min.js"/>
<svg id="graph" class="graph">
<g id="graph0" class="graph" transform="scale(1 1) rotate(0) translate(4 108)">
<title>CCTObject</title>
<!-- Node1 -->
<g id="Node000001" class="node">
<title>Node1</title>
<g id="a_Node000001"><a xlink:title=" ">
<polygon fill="#999999" stroke="#666666" points="71.25,-20 8,-20 8,0 71.25,0 71.25,-20"/>
<text text-anchor="middle" x="39.62" y="-6.5" font-family="Helvetica,sans-Serif" font-size="10.00">CCTObject</text>
</a>
</g>
</g>
<!-- Node2 -->
<g id="Node000002" class="node">
<title>Node2</title>
<g id="a_Node000002"><a xlink:href="../../de/d0e/class_c_c_t_base.html" target="_top" xlink:title=" ">
<polygon fill="white" stroke="#666666" points="57.25,-96 0,-96 0,-76 57.25,-76 57.25,-96"/>
<text text-anchor="middle" x="28.62" y="-82.5" font-family="Helvetica,sans-Serif" font-size="10.00">CCTBase</text>
</a>
</g>
</g>
<!-- Node2&#45;&gt;Node1 -->
<g id="edge1_Node000001_Node000002" class="edge">
<title>Node2&#45;&gt;Node1</title>
<g id="a_edge1_Node000001_Node000002"><a xlink:title=" ">
<path fill="none" stroke="#8b1a1a" d="M31.65,-64.67C33.82,-50.07 36.64,-31.1 38.28,-20.06"/>
<polygon fill="#8b1a1a" stroke="#8b1a1a" points="28.25,-63.72 30.24,-74.13 35.17,-64.75 28.25,-63.72"/>
</a>
</g>
</g>
<!-- Node3 -->
<g id="Node000003" class="node">
<title>Node3</title>
<g id="a_Node000003"><a xlink:href="../../d4/d03/classfloat.html" target="_top" xlink:title=" ">
<polygon fill="white" stroke="#666666" points="109.62,-96 75.62,-96 75.62,-76 109.62,-76 109.62,-96"/>
<text text-anchor="middle" x="92.62" y="-82.5" font-family="Helvetica,sans-Serif" font-size="10.00">float</text>
</a>
</g>
</g>
<!-- Node3&#45;&gt;Node1 -->
<g id="edge2_Node000001_Node000003" class="edge">
<title>Node3&#45;&gt;Node1</title>
<g id="a_edge2_Node000001_Node000003"><a xlink:title=" ">
<path fill="none" stroke="#9a32cd" stroke-dasharray="5,2" d="M79.3,-66.4C68.7,-51.6 54.34,-31.54 46.12,-20.06"/>
<polygon fill="#9a32cd" stroke="#9a32cd" points="76.36,-68.31 85.03,-74.4 82.05,-64.23 76.36,-68.31"/>
</a>
</g>
<text text-anchor="middle" x="131.25" y="-40.5" font-family="Helvetica,sans-Serif" font-size="10.00" fill="grey"> m_MaximalActionDistanceSq</text>
</g>
<!-- Node3&#45;&gt;Node3 -->
<g id="edge3_Node000003_Node000003" class="edge">
<title>Node3&#45;&gt;Node3</title>
<g id="a_edge3_Node000003_Node000003"><a xlink:title=" ">
<path fill="none" stroke="#9a32cd" stroke-dasharray="5,2" d="M121.3,-92.95C125.1,-91.77 127.62,-89.45 127.62,-86 127.62,-79.68 119.18,-77.17 109.91,-78.45"/>
<polygon fill="#9a32cd" stroke="#9a32cd" points="121.23,-89.45 111.42,-93.47 121.59,-96.44 121.23,-89.45"/>
</a>
</g>
<text text-anchor="middle" x="149.75" y="-94.5" font-family="Helvetica,sans-Serif" font-size="10.00" fill="grey"> LOWEST</text>
<text text-anchor="middle" x="149.75" y="-82.5" font-family="Helvetica,sans-Serif" font-size="10.00" fill="grey">MAX</text>
<text text-anchor="middle" x="149.75" y="-70.5" font-family="Helvetica,sans-Serif" font-size="10.00" fill="grey">MIN</text>
</g>
</g>
</svg>
</svg>

<style type='text/css'>
<![CDATA[
[data-mouse-over-selected='false'] { opacity: 0.7; }
[data-mouse-over-selected='true']  { opacity: 1.0; }
]]>
</style>
<script type="application/ecmascript"><![CDATA[
document.addEventListener('DOMContentLoaded', (event) => {
  highlightEdges();
  highlightAdjacentNodes();
});
]]></script>
</svg>
