<?xml version="1.0" encoding="UTF-8" standalone="no"?>
<!DOCTYPE svg PUBLIC "-//W3C//DTD SVG 1.1//EN"
 "http://www.w3.org/Graphics/SVG/1.1/DTD/svg11.dtd">
<!-- Generated by graphviz version 11.0.0 (20240428.1522)
 -->
<!-- Title: ActionRepackTent Pages: 1 -->
<svg width="1383pt" height="370pt"
 viewBox="0.00 0.00 1382.88 369.91" xmlns="http://www.w3.org/2000/svg" xmlns:xlink="http://www.w3.org/1999/xlink">
<g id="graph0" class="graph" transform="scale(1 1) rotate(0) translate(4 365.91)">
<title>ActionRepackTent</title>
<!-- Node1 -->
<g id="Node000001" class="node">
<title>Node1</title>
<g id="a_Node000001"><a xlink:title=" ">
<polygon fill="#999999" stroke="#666666" points="1020.88,-20 925.38,-20 925.38,0 1020.88,0 1020.88,-20"/>
<text text-anchor="middle" x="973.12" y="-6.5" font-family="Helvetica,sans-Serif" font-size="10.00">ActionRepackTent</text>
</a>
</g>
</g>
<!-- Node2 -->
<g id="Node000002" class="node">
<title>Node2</title>
<g id="a_Node000002"><a xlink:href="../../d6/d0f/class_action_continuous_base.html" target="_top" xlink:title=" ">
<polygon fill="white" stroke="#666666" points="299.62,-88 184.62,-88 184.62,-68 299.62,-68 299.62,-88"/>
<text text-anchor="middle" x="242.12" y="-74.5" font-family="Helvetica,sans-Serif" font-size="10.00">ActionContinuousBase</text>
</a>
</g>
</g>
<!-- Node2&#45;&gt;Node1 -->
<g id="edge1_Node000001_Node000002" class="edge">
<title>Node2&#45;&gt;Node1</title>
<g id="a_edge1_Node000001_Node000002"><a xlink:title=" ">
<path fill="none" stroke="#8b1a1a" d="M311.18,-70.77C458.13,-57.5 798.66,-26.75 924.9,-15.35"/>
<polygon fill="#8b1a1a" stroke="#8b1a1a" points="311.25,-67.24 301.6,-71.63 311.88,-74.22 311.25,-67.24"/>
</a>
</g>
</g>
<!-- Node3 -->
<g id="Node000003" class="node">
<title>Node3</title>
<g id="a_Node000003"><a xlink:href="../../d7/d04/class_animated_action_base.html" target="_top" xlink:title=" ">
<polygon fill="white" stroke="#666666" points="109.88,-206 2.38,-206 2.38,-186 109.88,-186 109.88,-206"/>
<text text-anchor="middle" x="56.12" y="-192.5" font-family="Helvetica,sans-Serif" font-size="10.00">AnimatedActionBase</text>
</a>
</g>
</g>
<!-- Node3&#45;&gt;Node2 -->
<g id="edge2_Node000002_Node000003" class="edge">
<title>Node3&#45;&gt;Node2</title>
<g id="a_edge2_Node000002_Node000003"><a xlink:title=" ">
<path fill="none" stroke="#8b1a1a" d="M71.87,-177.01C90.24,-157.04 122.44,-125.1 156.12,-106 169.6,-98.36 185.52,-92.59 199.97,-88.39"/>
<polygon fill="#8b1a1a" stroke="#8b1a1a" points="69.32,-174.6 65.24,-184.38 74.53,-179.29 69.32,-174.6"/>
</a>
</g>
</g>
<!-- Node4 -->
<g id="Node000004" class="node">
<title>Node4</title>
<g id="a_Node000004"><a xlink:title=" ">
<polygon fill="white" stroke="#666666" points="66.25,-360 0,-360 0,-340 66.25,-340 66.25,-360"/>
<text text-anchor="middle" x="33.12" y="-346.5" font-family="Helvetica,sans-Serif" font-size="10.00">ActionBase</text>
</a>
</g>
</g>
<!-- Node4&#45;&gt;Node3 -->
<g id="edge3_Node000003_Node000004" class="edge">
<title>Node4&#45;&gt;Node3</title>
<g id="a_edge3_Node000003_Node000004"><a xlink:title=" ">
<path fill="none" stroke="#8b1a1a" d="M34.38,-328.22C35.79,-308.11 38.51,-276.81 43.12,-250 45.8,-234.5 50.47,-216.82 53.42,-206.3"/>
<polygon fill="#8b1a1a" stroke="#8b1a1a" points="30.89,-327.94 33.73,-338.15 37.87,-328.4 30.89,-327.94"/>
</a>
</g>
</g>
<!-- Node5 -->
<g id="Node000005" class="node">
<title>Node5</title>
<g id="a_Node000005"><a xlink:href="../../db/d06/class_param3.html" target="_top" xlink:title=" ">
<polygon fill="white" stroke="#666666" points="195,-360 145.25,-360 145.25,-340 195,-340 195,-360"/>
<text text-anchor="middle" x="170.12" y="-346.5" font-family="Helvetica,sans-Serif" font-size="10.00">Param3</text>
</a>
</g>
</g>
<!-- Node5&#45;&gt;Node3 -->
<g id="edge4_Node000003_Node000005" class="edge">
<title>Node5&#45;&gt;Node3</title>
<g id="a_edge4_Node000003_Node000005"><a xlink:title=" ">
<path fill="none" stroke="#9a32cd" stroke-dasharray="5,2" d="M133.71,-345.14C104.42,-341.21 66.63,-333.95 57.12,-322 29.69,-287.53 45.14,-229.13 52.71,-206.42"/>
<polygon fill="#9a32cd" stroke="#9a32cd" points="132.98,-348.58 143.34,-346.35 133.85,-341.64 132.98,-348.58"/>
</a>
</g>
<text text-anchor="middle" x="106.62" y="-288.5" font-family="Helvetica,sans-Serif" font-size="10.00" fill="grey"> m_CommandUID</text>
<text text-anchor="middle" x="106.62" y="-276.5" font-family="Helvetica,sans-Serif" font-size="10.00" fill="grey">m_CommandUIDProne</text>
</g>
<!-- Node7 -->
<g id="Node000007" class="node">
<title>Node7</title>
<g id="a_Node000007"><a xlink:href="../../d2/d01/classarray.html" target="_top" xlink:title="Result for an object found in CGame.IsBoxCollidingGeometryProxy.">
<polygon fill="white" stroke="#666666" points="557,-206 519.25,-206 519.25,-186 557,-186 557,-206"/>
<text text-anchor="middle" x="538.12" y="-192.5" font-family="Helvetica,sans-Serif" font-size="10.00">array</text>
</a>
</g>
</g>
<!-- Node5&#45;&gt;Node7 -->
<g id="edge8_Node000007_Node000005" class="edge">
<title>Node5&#45;&gt;Node7</title>
<g id="a_edge8_Node000007_Node000005"><a xlink:title=" ">
<path fill="none" stroke="#9a32cd" stroke-dasharray="5,2" d="M186.22,-331.54C208.84,-308.3 252.48,-268.06 298.88,-250 384.62,-216.62 422.31,-272.1 505.12,-232 516.85,-226.32 526.54,-214.57 532.32,-206.25"/>
<polygon fill="#9a32cd" stroke="#9a32cd" points="183.76,-329.04 179.41,-338.7 188.84,-333.86 183.76,-329.04"/>
</a>
</g>
<text text-anchor="middle" x="357.25" y="-312.5" font-family="Helvetica,sans-Serif" font-size="10.00" fill="grey"> NO_SORTING</text>
<text text-anchor="middle" x="357.25" y="-300.5" font-family="Helvetica,sans-Serif" font-size="10.00" fill="grey">geomLevel</text>
<text text-anchor="middle" x="357.25" y="-288.5" font-family="Helvetica,sans-Serif" font-size="10.00" fill="grey">hierLevel</text>
<text text-anchor="start" x="299.12" y="-276.5" font-family="Helvetica,sans-Serif" font-size="10.00" fill="grey">m_CurrentSettingAlternate</text>
<text text-anchor="middle" x="357.25" y="-264.5" font-family="Helvetica,sans-Serif" font-size="10.00" fill="grey">KeyIndex</text>
<text text-anchor="middle" x="357.25" y="-252.5" font-family="Helvetica,sans-Serif" font-size="10.00" fill="grey">m_CurrentSettingKeyIndex</text>
</g>
<!-- Node12 -->
<g id="Node000012" class="node">
<title>Node12</title>
<g id="a_Node000012"><a xlink:href="../../d2/d01/classarray.html" target="_top" xlink:title=" ">
<polygon fill="white" stroke="#666666" points="540.38,-88 453.88,-88 453.88,-68 540.38,-68 540.38,-88"/>
<text text-anchor="middle" x="497.12" y="-74.5" font-family="Helvetica,sans-Serif" font-size="10.00">array&lt; Widget &gt;</text>
</a>
</g>
</g>
<!-- Node5&#45;&gt;Node12 -->
<g id="edge16_Node000012_Node000005" class="edge">
<title>Node5&#45;&gt;Node12</title>
<g id="a_edge16_Node000012_Node000005"><a xlink:title=" ">
<path fill="none" stroke="#9a32cd" stroke-dasharray="5,2" d="M167.64,-328.21C162.89,-284.59 154.7,-185.47 174.88,-160 209.31,-116.53 373.76,-92.67 453.53,-83.48"/>
<polygon fill="#9a32cd" stroke="#9a32cd" points="164.16,-328.56 168.77,-338.09 171.11,-327.76 164.16,-328.56"/>
</a>
</g>
<text text-anchor="middle" x="233.25" y="-222.5" font-family="Helvetica,sans-Serif" font-size="10.00" fill="grey"> NO_SORTING</text>
<text text-anchor="middle" x="233.25" y="-210.5" font-family="Helvetica,sans-Serif" font-size="10.00" fill="grey">geomLevel</text>
<text text-anchor="middle" x="233.25" y="-198.5" font-family="Helvetica,sans-Serif" font-size="10.00" fill="grey">hierLevel</text>
<text text-anchor="start" x="175.12" y="-186.5" font-family="Helvetica,sans-Serif" font-size="10.00" fill="grey">m_CurrentSettingAlternate</text>
<text text-anchor="middle" x="233.25" y="-174.5" font-family="Helvetica,sans-Serif" font-size="10.00" fill="grey">KeyIndex</text>
<text text-anchor="middle" x="233.25" y="-162.5" font-family="Helvetica,sans-Serif" font-size="10.00" fill="grey">m_CurrentSettingKeyIndex</text>
</g>
<!-- Node6 -->
<g id="Node000006" class="node">
<title>Node6</title>
<g id="a_Node000006"><a xlink:href="../../df/d09/class_entity_a_i.html" target="_top" xlink:title=" ">
<polygon fill="white" stroke="#666666" points="998.38,-88 947.88,-88 947.88,-68 998.38,-68 998.38,-88"/>
<text text-anchor="middle" x="973.12" y="-74.5" font-family="Helvetica,sans-Serif" font-size="10.00">EntityAI</text>
</a>
</g>
</g>
<!-- Node6&#45;&gt;Node1 -->
<g id="edge5_Node000001_Node000006" class="edge">
<title>Node6&#45;&gt;Node1</title>
<g id="a_edge5_Node000001_Node000006"><a xlink:title=" ">
<path fill="none" stroke="#9a32cd" stroke-dasharray="5,2" d="M973.12,-56.28C973.12,-44.27 973.12,-29.74 973.12,-20.44"/>
<polygon fill="#9a32cd" stroke="#9a32cd" points="969.63,-56.03 973.13,-66.03 976.63,-56.03 969.63,-56.03"/>
</a>
</g>
<text text-anchor="middle" x="1015.88" y="-40.5" font-family="Helvetica,sans-Serif" font-size="10.00" fill="grey"> m_RepackedEntity</text>
</g>
<!-- Node7&#45;&gt;Node6 -->
<g id="edge6_Node000006_Node000007" class="edge">
<title>Node7&#45;&gt;Node6</title>
<g id="a_edge6_Node000006_Node000007"><a xlink:title=" ">
<path fill="none" stroke="#9a32cd" stroke-dasharray="5,2" d="M564.29,-180.3C601.73,-160 673.31,-123.86 738.88,-106 812.93,-85.82 904.17,-80.72 947.69,-79.43"/>
<polygon fill="#9a32cd" stroke="#9a32cd" points="563.08,-176.97 556,-184.85 566.45,-183.11 563.08,-176.97"/>
</a>
</g>
<text text-anchor="middle" x="787.25" y="-132.5" font-family="Helvetica,sans-Serif" font-size="10.00" fill="grey"> m_ContinuousActions</text>
<text text-anchor="middle" x="787.25" y="-120.5" font-family="Helvetica,sans-Serif" font-size="10.00" fill="grey">m_InteractActions</text>
<text text-anchor="middle" x="787.25" y="-108.5" font-family="Helvetica,sans-Serif" font-size="10.00" fill="grey">m_SingleUseActions</text>
</g>
<!-- Node7&#45;&gt;Node7 -->
<g id="edge9_Node000007_Node000007" class="edge">
<title>Node7&#45;&gt;Node7</title>
<g id="a_edge9_Node000007_Node000007"><a xlink:title=" ">
<path fill="none" stroke="#9a32cd" stroke-dasharray="5,2" d="M560.43,-209.49C568.45,-209.78 575,-205.29 575,-196 575,-182.64 561.46,-179.2 549.45,-185.67"/>
<polygon fill="#9a32cd" stroke="#9a32cd" points="561.48,-206.15 550.91,-206.75 559.55,-212.88 561.48,-206.15"/>
</a>
</g>
<text text-anchor="middle" x="596" y="-192.5" font-family="Helvetica,sans-Serif" font-size="10.00" fill="grey"> proxyInfo</text>
</g>
<!-- Node7&#45;&gt;Node12 -->
<g id="edge17_Node000012_Node000007" class="edge">
<title>Node7&#45;&gt;Node12</title>
<g id="a_edge17_Node000012_Node000007"><a xlink:title=" ">
<path fill="none" stroke="#9a32cd" stroke-dasharray="5,2" d="M521.35,-177.49C510.16,-165.34 497,-149.97 494.12,-142 487.58,-123.87 491.45,-100.89 494.51,-88.3"/>
<polygon fill="#9a32cd" stroke="#9a32cd" points="518.54,-179.61 527.93,-184.5 523.64,-174.82 518.54,-179.61"/>
</a>
</g>
<text text-anchor="middle" x="515.12" y="-120.5" font-family="Helvetica,sans-Serif" font-size="10.00" fill="grey"> proxyInfo</text>
</g>
<!-- Node8 -->
<g id="Node000008" class="node">
<title>Node8</title>
<g id="a_Node000008"><a xlink:href="../../d8/d03/class_object.html" target="_top" xlink:title=" ">
<polygon fill="white" stroke="#666666" points="652.38,-360 607.88,-360 607.88,-340 652.38,-340 652.38,-360"/>
<text text-anchor="middle" x="630.12" y="-346.5" font-family="Helvetica,sans-Serif" font-size="10.00">Object</text>
</a>
</g>
</g>
<!-- Node8&#45;&gt;Node7 -->
<g id="edge7_Node000007_Node000008" class="edge">
<title>Node8&#45;&gt;Node7</title>
<g id="a_edge7_Node000007_Node000008"><a xlink:title=" ">
<path fill="none" stroke="#9a32cd" stroke-dasharray="5,2" d="M617.3,-330.3C615.52,-327.55 613.74,-324.72 612.12,-322 593.62,-290.91 592.76,-281.01 574.12,-250 564.61,-234.17 552.3,-216.59 544.82,-206.18"/>
<polygon fill="#9a32cd" stroke="#9a32cd" points="614.25,-332.03 622.71,-338.4 620.07,-328.14 614.25,-332.03"/>
</a>
</g>
<text text-anchor="middle" x="625.62" y="-288.5" font-family="Helvetica,sans-Serif" font-size="10.00" fill="grey"> obj</text>
<text text-anchor="middle" x="625.62" y="-276.5" font-family="Helvetica,sans-Serif" font-size="10.00" fill="grey">parent</text>
</g>
<!-- Node8&#45;&gt;Node12 -->
<g id="edge15_Node000012_Node000008" class="edge">
<title>Node8&#45;&gt;Node12</title>
<g id="a_edge15_Node000012_Node000008"><a xlink:title=" ">
<path fill="none" stroke="#9a32cd" stroke-dasharray="5,2" d="M637.6,-328.91C638.23,-326.6 638.76,-324.27 639.12,-322 654.6,-226.66 682.6,-175.11 615.12,-106 604.74,-95.36 569.78,-88.23 540.59,-83.99"/>
<polygon fill="#9a32cd" stroke="#9a32cd" points="634.33,-327.66 634.53,-338.25 640.98,-329.85 634.33,-327.66"/>
</a>
</g>
<text text-anchor="middle" x="671.62" y="-198.5" font-family="Helvetica,sans-Serif" font-size="10.00" fill="grey"> obj</text>
<text text-anchor="middle" x="671.62" y="-186.5" font-family="Helvetica,sans-Serif" font-size="10.00" fill="grey">parent</text>
</g>
<!-- Node9 -->
<g id="Node000009" class="node">
<title>Node9</title>
<g id="a_Node000009"><a xlink:href="../../d4/d04/class_class.html" target="_top" xlink:title="Super root of all classes in Enforce script.">
<polygon fill="white" stroke="#666666" points="379.5,-360 338.75,-360 338.75,-340 379.5,-340 379.5,-360"/>
<text text-anchor="middle" x="359.12" y="-346.5" font-family="Helvetica,sans-Serif" font-size="10.00">Class</text>
</a>
</g>
</g>
<!-- Node9&#45;&gt;Node7 -->
<g id="edge10_Node000007_Node000009" class="edge">
<title>Node9&#45;&gt;Node7</title>
<g id="a_edge10_Node000007_Node000009"><a xlink:title=" ">
<path fill="none" stroke="#9a32cd" stroke-dasharray="5,2" d="M390.48,-338.61C400.29,-334.43 410.74,-328.92 419.12,-322 449.32,-297.08 440.3,-275.65 469.88,-250 483.16,-238.47 491.05,-242.55 505.12,-232 515.01,-224.58 524.5,-214.05 530.74,-206.47"/>
<polygon fill="#9a32cd" stroke="#9a32cd" points="389.26,-335.33 381.22,-342.23 391.81,-341.85 389.26,-335.33"/>
</a>
</g>
<text text-anchor="middle" x="495.75" y="-282.5" font-family="Helvetica,sans-Serif" font-size="10.00" fill="grey"> m_Instance</text>
</g>
<!-- Node9&#45;&gt;Node12 -->
<g id="edge18_Node000012_Node000009" class="edge">
<title>Node9&#45;&gt;Node12</title>
<g id="a_edge18_Node000012_Node000009"><a xlink:title=" ">
<path fill="none" stroke="#9a32cd" stroke-dasharray="5,2" d="M327.3,-346.17C311.26,-342.95 293.13,-336.18 283.12,-322 264.67,-295.86 269.25,-278.84 283.12,-250 323.84,-165.36 429.1,-109.54 475.09,-88.45"/>
<polygon fill="#9a32cd" stroke="#9a32cd" points="326.55,-349.6 336.97,-347.71 327.64,-342.69 326.55,-349.6"/>
</a>
</g>
<text text-anchor="middle" x="382.75" y="-192.5" font-family="Helvetica,sans-Serif" font-size="10.00" fill="grey"> m_Instance</text>
</g>
<!-- Node10 -->
<g id="Node000010" class="node">
<title>Node10</title>
<g id="a_Node000010"><a xlink:href="../../d5/d02/classstring.html" target="_top" xlink:title=" ">
<polygon fill="white" stroke="#666666" points="806.12,-360 766.12,-360 766.12,-340 806.12,-340 806.12,-360"/>
<text text-anchor="middle" x="786.12" y="-346.5" font-family="Helvetica,sans-Serif" font-size="10.00">string</text>
</a>
</g>
</g>
<!-- Node10&#45;&gt;Node7 -->
<g id="edge11_Node000007_Node000010" class="edge">
<title>Node10&#45;&gt;Node7</title>
<g id="a_edge11_Node000007_Node000010"><a xlink:title=" ">
<path fill="none" stroke="#9a32cd" stroke-dasharray="5,2" d="M757.72,-334.4C750.78,-330.56 743.46,-326.3 736.88,-322 692.88,-293.29 687.6,-277.96 643.12,-250 614.43,-231.96 578.8,-215.03 557.29,-205.36"/>
<polygon fill="#9a32cd" stroke="#9a32cd" points="755.69,-337.28 766.16,-338.93 759.01,-331.11 755.69,-337.28"/>
</a>
</g>
<text text-anchor="middle" x="753.75" y="-282.5" font-family="Helvetica,sans-Serif" font-size="10.00" fill="grey"> m_Test</text>
</g>
<!-- Node10&#45;&gt;Node10 -->
<g id="edge12_Node000010_Node000010" class="edge">
<title>Node10&#45;&gt;Node10</title>
<g id="a_edge12_Node000010_Node000010"><a xlink:title=" ">
<path fill="none" stroke="#9a32cd" stroke-dasharray="5,2" d="M811.89,-361.91C818.84,-361.28 824.12,-357.31 824.12,-350 824.12,-339.12 812.42,-335.64 800.95,-339.55"/>
<polygon fill="#9a32cd" stroke="#9a32cd" points="812.82,-358.5 802.45,-360.65 811.9,-365.44 812.82,-358.5"/>
</a>
</g>
<text text-anchor="middle" x="839.88" y="-346.5" font-family="Helvetica,sans-Serif" font-size="10.00" fill="grey"> Empty</text>
</g>
<!-- Node10&#45;&gt;Node12 -->
<g id="edge19_Node000012_Node000010" class="edge">
<title>Node10&#45;&gt;Node12</title>
<g id="a_edge19_Node000012_Node000010"><a xlink:title=" ">
<path fill="none" stroke="#9a32cd" stroke-dasharray="5,2" d="M788.18,-328.41C792.97,-275.63 802.28,-137.39 772.12,-106 756.44,-89.67 614.39,-82.74 540.84,-80.23"/>
<polygon fill="#9a32cd" stroke="#9a32cd" points="784.72,-327.83 787.26,-338.11 791.69,-328.49 784.72,-327.83"/>
</a>
</g>
<text text-anchor="middle" x="810.75" y="-192.5" font-family="Helvetica,sans-Serif" font-size="10.00" fill="grey"> m_Test</text>
</g>
<!-- Node14 -->
<g id="Node000014" class="node">
<title>Node14</title>
<g id="a_Node000014"><a xlink:href="../../d4/d0d/class_sound_lookup_table.html" target="_top" xlink:title=" ">
<polygon fill="white" stroke="#666666" points="1161.38,-206 1062.88,-206 1062.88,-186 1161.38,-186 1161.38,-206"/>
<text text-anchor="middle" x="1112.12" y="-192.5" font-family="Helvetica,sans-Serif" font-size="10.00">SoundLookupTable</text>
</a>
</g>
</g>
<!-- Node10&#45;&gt;Node14 -->
<g id="edge25_Node000014_Node000010" class="edge">
<title>Node10&#45;&gt;Node14</title>
<g id="a_edge25_Node000014_Node000010"><a xlink:title=" ">
<path fill="none" stroke="#9a32cd" stroke-dasharray="5,2" d="M816.13,-335.01C881.79,-304.4 1036.75,-232.14 1092.07,-206.35"/>
<polygon fill="#9a32cd" stroke="#9a32cd" points="814.98,-331.68 807.4,-339.08 817.94,-338.03 814.98,-331.68"/>
</a>
</g>
<text text-anchor="middle" x="1046.62" y="-288.5" font-family="Helvetica,sans-Serif" font-size="10.00" fill="grey"> m_parameterName</text>
<text text-anchor="middle" x="1046.62" y="-276.5" font-family="Helvetica,sans-Serif" font-size="10.00" fill="grey">m_tableCategoryName</text>
</g>
<!-- Node11 -->
<g id="Node000011" class="node">
<title>Node11</title>
<g id="a_Node000011"><a xlink:href="../../dd/d0a/class_widget.html" target="_top" xlink:title=" ">
<polygon fill="white" stroke="#666666" points="548.5,-360 501.75,-360 501.75,-340 548.5,-340 548.5,-360"/>
<text text-anchor="middle" x="525.12" y="-346.5" font-family="Helvetica,sans-Serif" font-size="10.00">Widget</text>
</a>
</g>
</g>
<!-- Node11&#45;&gt;Node7 -->
<g id="edge13_Node000007_Node000011" class="edge">
<title>Node11&#45;&gt;Node7</title>
<g id="a_edge13_Node000007_Node000011"><a xlink:title=" ">
<path fill="none" stroke="#9a32cd" stroke-dasharray="5,2" d="M526.84,-328.91C529.69,-295.61 535.28,-230.28 537.34,-206.2"/>
<polygon fill="#9a32cd" stroke="#9a32cd" points="523.39,-328.18 526.03,-338.44 530.37,-328.77 523.39,-328.18"/>
</a>
</g>
<text text-anchor="middle" x="551.5" y="-282.5" font-family="Helvetica,sans-Serif" font-size="10.00" fill="grey"> m_Root</text>
</g>
<!-- Node11&#45;&gt;Node12 -->
<g id="edge20_Node000012_Node000011" class="edge">
<title>Node11&#45;&gt;Node12</title>
<g id="a_edge20_Node000012_Node000011"><a xlink:title=" ">
<path fill="none" stroke="#9a32cd" stroke-dasharray="5,2" d="M522.49,-328.65C518.99,-307.54 511.26,-274.26 495.12,-250 488.18,-239.55 478.72,-243.35 473.38,-232 449.8,-181.89 479.55,-113.36 492.06,-88.5"/>
<polygon fill="#9a32cd" stroke="#9a32cd" points="518.99,-328.9 523.91,-338.29 525.92,-327.88 518.99,-328.9"/>
</a>
</g>
<text text-anchor="middle" x="491.5" y="-192.5" font-family="Helvetica,sans-Serif" font-size="10.00" fill="grey"> m_Root</text>
</g>
<!-- Node12&#45;&gt;Node7 -->
<g id="edge14_Node000007_Node000012" class="edge">
<title>Node12&#45;&gt;Node7</title>
<g id="a_edge14_Node000007_Node000012"><a xlink:title=" ">
<path fill="none" stroke="#9a32cd" stroke-dasharray="5,2" d="M530.1,-94.47C534.11,-97.72 537.66,-101.54 540.12,-106 554.41,-131.83 546.26,-168.66 541.21,-185.7"/>
<polygon fill="#9a32cd" stroke="#9a32cd" points="532.33,-91.75 522.07,-89.11 528.44,-97.57 532.33,-91.75"/>
</a>
</g>
<text text-anchor="middle" x="579.62" y="-120.5" font-family="Helvetica,sans-Serif" font-size="10.00" fill="grey"> m_Subgroups</text>
</g>
<!-- Node12&#45;&gt;Node12 -->
<g id="edge21_Node000012_Node000012" class="edge">
<title>Node12&#45;&gt;Node12</title>
<g id="a_edge21_Node000012_Node000012"><a xlink:title=" ">
<path fill="none" stroke="#9a32cd" stroke-dasharray="5,2" d="M551.75,-82.76C555.86,-81.7 558.38,-80.11 558.38,-78 558.38,-74.35 550.84,-72.26 540.62,-71.75"/>
<polygon fill="#9a32cd" stroke="#9a32cd" points="551.57,-79.26 542.12,-84.05 552.49,-86.19 551.57,-79.26"/>
</a>
</g>
<text text-anchor="middle" x="589.88" y="-74.5" font-family="Helvetica,sans-Serif" font-size="10.00" fill="grey"> m_Subgroups</text>
</g>
<!-- Node13 -->
<g id="Node000013" class="node">
<title>Node13</title>
<g id="a_Node000013"><a xlink:href="../../d4/d03/classfloat.html" target="_top" xlink:title=" ">
<polygon fill="white" stroke="#666666" points="873.12,-206 839.12,-206 839.12,-186 873.12,-186 873.12,-206"/>
<text text-anchor="middle" x="856.12" y="-192.5" font-family="Helvetica,sans-Serif" font-size="10.00">float</text>
</a>
</g>
</g>
<!-- Node13&#45;&gt;Node6 -->
<g id="edge22_Node000006_Node000013" class="edge">
<title>Node13&#45;&gt;Node6</title>
<g id="a_edge22_Node000006_Node000013"><a xlink:title=" ">
<path fill="none" stroke="#9a32cd" stroke-dasharray="5,2" d="M848.15,-174.92C841.75,-155.18 836.15,-125.29 851.62,-106 863.42,-91.29 915.59,-84.09 947.61,-81"/>
<polygon fill="#9a32cd" stroke="#9a32cd" points="844.84,-176.08 851.53,-184.29 851.42,-173.7 844.84,-176.08"/>
</a>
</g>
<text text-anchor="middle" x="908.88" y="-126.5" font-family="Helvetica,sans-Serif" font-size="10.00" fill="grey"> SOUND_CONTACT_SKIP</text>
<text text-anchor="middle" x="908.88" y="-114.5" font-family="Helvetica,sans-Serif" font-size="10.00" fill="grey">m_SoundContactTickTime</text>
</g>
<!-- Node13&#45;&gt;Node13 -->
<g id="edge23_Node000013_Node000013" class="edge">
<title>Node13&#45;&gt;Node13</title>
<g id="a_edge23_Node000013_Node000013"><a xlink:title=" ">
<path fill="none" stroke="#9a32cd" stroke-dasharray="5,2" d="M877.8,-209.5C885.19,-209.58 891.12,-205.08 891.12,-196 891.12,-182.64 878.27,-179.2 866.88,-185.67"/>
<polygon fill="#9a32cd" stroke="#9a32cd" points="878.91,-206.17 868.33,-206.75 876.96,-212.9 878.91,-206.17"/>
</a>
</g>
<text text-anchor="middle" x="913.25" y="-204.5" font-family="Helvetica,sans-Serif" font-size="10.00" fill="grey"> LOWEST</text>
<text text-anchor="middle" x="913.25" y="-192.5" font-family="Helvetica,sans-Serif" font-size="10.00" fill="grey">MAX</text>
<text text-anchor="middle" x="913.25" y="-180.5" font-family="Helvetica,sans-Serif" font-size="10.00" fill="grey">MIN</text>
</g>
<!-- Node14&#45;&gt;Node6 -->
<g id="edge24_Node000006_Node000014" class="edge">
<title>Node14&#45;&gt;Node6</title>
<g id="a_edge24_Node000006_Node000014"><a xlink:title=" ">
<path fill="none" stroke="#9a32cd" stroke-dasharray="5,2" d="M1117.95,-174.73C1122.31,-154.84 1125.12,-124.83 1109.12,-106 1095.18,-89.58 1034.24,-82.92 998.85,-80.4"/>
<polygon fill="#9a32cd" stroke="#9a32cd" points="1114.62,-173.59 1115.55,-184.15 1121.41,-175.32 1114.62,-173.59"/>
</a>
</g>
<text text-anchor="middle" x="1169.5" y="-120.5" font-family="Helvetica,sans-Serif" font-size="10.00" fill="grey"> m_SoundImpactTable</text>
</g>
<!-- Node15 -->
<g id="Node000015" class="node">
<title>Node15</title>
<g id="a_Node000015"><a xlink:href="../../d9/d09/classbool.html" target="_top" xlink:title=" ">
<polygon fill="white" stroke="#666666" points="1318.12,-206 1284.12,-206 1284.12,-186 1318.12,-186 1318.12,-206"/>
<text text-anchor="middle" x="1301.12" y="-192.5" font-family="Helvetica,sans-Serif" font-size="10.00">bool</text>
</a>
</g>
</g>
<!-- Node15&#45;&gt;Node1 -->
<g id="edge28_Node000001_Node000015" class="edge">
<title>Node15&#45;&gt;Node1</title>
<g id="a_edge28_Node000001_Node000015"><a xlink:title=" ">
<path fill="none" stroke="#9a32cd" stroke-dasharray="5,2" d="M1318.16,-177.21C1334.33,-158.13 1353.85,-127.65 1337.12,-106 1298.55,-56.06 1110.79,-27.38 1021.06,-16.32"/>
<polygon fill="#9a32cd" stroke="#9a32cd" points="1315.75,-174.66 1311.68,-184.45 1320.96,-179.33 1315.75,-174.66"/>
</a>
</g>
<text text-anchor="middle" x="1344.5" y="-74.5" font-family="Helvetica,sans-Serif" font-size="10.00" fill="grey"> m_IsFinished</text>
</g>
<!-- Node15&#45;&gt;Node6 -->
<g id="edge26_Node000006_Node000015" class="edge">
<title>Node15&#45;&gt;Node6</title>
<g id="a_edge26_Node000006_Node000015"><a xlink:title=" ">
<path fill="none" stroke="#9a32cd" stroke-dasharray="5,2" d="M1284.76,-177.61C1275.2,-167.35 1262.97,-154.05 1252.38,-142 1238.58,-126.31 1240.56,-115.84 1222.12,-106 1183.85,-85.59 1054.01,-80.59 998.57,-79.38"/>
<polygon fill="#9a32cd" stroke="#9a32cd" points="1281.94,-179.72 1291.33,-184.63 1287.06,-174.93 1281.94,-179.72"/>
</a>
</g>
<text text-anchor="middle" x="1294.5" y="-126.5" font-family="Helvetica,sans-Serif" font-size="10.00" fill="grey"> m_ActionsInitialize</text>
<text text-anchor="middle" x="1294.5" y="-114.5" font-family="Helvetica,sans-Serif" font-size="10.00" fill="grey">m_IsMeleeWeapon</text>
</g>
<!-- Node16 -->
<g id="Node000016" class="node">
<title>Node16</title>
<g id="a_Node000016"><a xlink:href="../../d4/d0d/class_script_invoker.html" target="_top" xlink:title="ScriptInvoker Class provide list of callbacks &#160;&#160;usage:">
<polygon fill="white" stroke="#666666" points="1024.88,-206 953.38,-206 953.38,-186 1024.88,-186 1024.88,-206"/>
<text text-anchor="middle" x="989.12" y="-192.5" font-family="Helvetica,sans-Serif" font-size="10.00">ScriptInvoker</text>
</a>
</g>
</g>
<!-- Node16&#45;&gt;Node6 -->
<g id="edge27_Node000006_Node000016" class="edge">
<title>Node16&#45;&gt;Node6</title>
<g id="a_edge27_Node000006_Node000016"><a xlink:title=" ">
<path fill="none" stroke="#9a32cd" stroke-dasharray="5,2" d="M982.18,-175.14C979.08,-165.3 975.77,-153.17 974.12,-142 971.36,-123.17 971.89,-100.83 972.52,-88.45"/>
<polygon fill="#9a32cd" stroke="#9a32cd" points="978.76,-175.96 985.24,-184.34 985.4,-173.75 978.76,-175.96"/>
</a>
</g>
<text text-anchor="middle" x="1041.62" y="-126.5" font-family="Helvetica,sans-Serif" font-size="10.00" fill="grey"> m_OnItemAddedToHands</text>
<text text-anchor="middle" x="1041.62" y="-114.5" font-family="Helvetica,sans-Serif" font-size="10.00" fill="grey">m_OnItemRemovedFromHands</text>
</g>
</g>
</svg>
