<?xml version="1.0" encoding="UTF-8" standalone="no"?>
<!DOCTYPE svg PUBLIC "-//W3C//DTD SVG 1.1//EN"
 "http://www.w3.org/Graphics/SVG/1.1/DTD/svg11.dtd">
<!-- Generated by graphviz version 11.0.0 (20240428.1522)
 -->
<!-- Title: MyBotTrigger Pages: 1 -->
<svg width="297pt" height="212pt"
 viewBox="0.00 0.00 296.88 212.00" xmlns="http://www.w3.org/2000/svg" xmlns:xlink="http://www.w3.org/1999/xlink">

<svg id="main" version="1.1" xmlns="http://www.w3.org/2000/svg" xmlns:xlink="http://www.w3.org/1999/xlink" xml:space="preserve" onload="init(evt)">
<style type="text/css"><![CDATA[
.node, .edge {opacity: 0.7;}
.node.selected, .edge.selected {opacity: 1;}
.edge:hover path { stroke: red; }
.edge:hover polygon { stroke: red; fill: red; }
]]></style>
<script type="application/ecmascript" xlink:href="../../svg.min.js"/>
<svg id="graph" class="graph">
<g id="graph0" class="graph" transform="scale(1 1) rotate(0) translate(4 208)">
<title>MyBotTrigger</title>
<!-- Node1 -->
<g id="Node000001" class="node">
<title>Node1</title>
<g id="a_Node000001"><a xlink:title=" ">
<polygon fill="#999999" stroke="#666666" points="78,-20 4.25,-20 4.25,0 78,0 78,-20"/>
<text text-anchor="middle" x="41.12" y="-6.5" font-family="Helvetica,sans-Serif" font-size="10.00">MyBotTrigger</text>
</a>
</g>
</g>
<!-- Node2 -->
<g id="Node000002" class="node">
<title>Node2</title>
<g id="a_Node000002"><a xlink:href="../../db/d0c/class_bot_trigger.html" target="_top" xlink:title=" ">
<polygon fill="white" stroke="#666666" points="60.25,-88 0,-88 0,-68 60.25,-68 60.25,-88"/>
<text text-anchor="middle" x="30.12" y="-74.5" font-family="Helvetica,sans-Serif" font-size="10.00">BotTrigger</text>
</a>
</g>
</g>
<!-- Node2&#45;&gt;Node1 -->
<g id="edge1_Node000001_Node000002" class="edge">
<title>Node2&#45;&gt;Node1</title>
<g id="a_edge1_Node000001_Node000002"><a xlink:title=" ">
<path fill="none" stroke="#8b1a1a" d="M33.58,-56.28C35.58,-44.27 38,-29.74 39.55,-20.44"/>
<polygon fill="#8b1a1a" stroke="#8b1a1a" points="30.14,-55.61 31.95,-66.05 37.05,-56.76 30.14,-55.61"/>
</a>
</g>
</g>
<!-- Node3 -->
<g id="Node000003" class="node">
<title>Node3</title>
<g id="a_Node000003"><a xlink:href="../../d5/d08/class_player_base.html" target="_top" xlink:title=" ">
<polygon fill="white" stroke="#666666" points="144.25,-88 78,-88 78,-68 144.25,-68 144.25,-88"/>
<text text-anchor="middle" x="111.12" y="-74.5" font-family="Helvetica,sans-Serif" font-size="10.00">PlayerBase</text>
</a>
</g>
</g>
<!-- Node3&#45;&gt;Node1 -->
<g id="edge2_Node000001_Node000003" class="edge">
<title>Node3&#45;&gt;Node1</title>
<g id="a_edge2_Node000001_Node000003"><a xlink:title=" ">
<path fill="none" stroke="#9a32cd" stroke-dasharray="5,2" d="M93.07,-59.97C79.72,-47.39 62.04,-30.72 51.14,-20.44"/>
<polygon fill="#9a32cd" stroke="#9a32cd" points="90.32,-62.19 99.99,-66.51 95.12,-57.1 90.32,-62.19"/>
</a>
</g>
<text text-anchor="middle" x="105.25" y="-40.5" font-family="Helvetica,sans-Serif" font-size="10.00" fill="grey"> m_Owner</text>
</g>
<!-- Node4 -->
<g id="Node000004" class="node">
<title>Node4</title>
<g id="a_Node000004"><a xlink:href="../../dd/d03/class_scripted_light_base.html" target="_top" xlink:title=" ">
<polygon fill="white" stroke="#666666" points="108.88,-204 13.38,-204 13.38,-184 108.88,-184 108.88,-204"/>
<text text-anchor="middle" x="61.12" y="-190.5" font-family="Helvetica,sans-Serif" font-size="10.00">ScriptedLightBase</text>
</a>
</g>
</g>
<!-- Node4&#45;&gt;Node3 -->
<g id="edge3_Node000003_Node000004" class="edge">
<title>Node4&#45;&gt;Node3</title>
<g id="a_edge3_Node000003_Node000004"><a xlink:title=" ">
<path fill="none" stroke="#9a32cd" stroke-dasharray="5,2" d="M54.55,-172.7C49.78,-153.97 46.09,-126.09 58.38,-106 63.21,-98.1 71.16,-92.42 79.44,-88.37"/>
<polygon fill="#9a32cd" stroke="#9a32cd" points="51.12,-173.43 57.26,-182.06 57.84,-171.49 51.12,-173.43"/>
</a>
</g>
<text text-anchor="middle" x="97" y="-132.5" font-family="Helvetica,sans-Serif" font-size="10.00" fill="grey"> m_PersonalLight</text>
</g>
<!-- Node5 -->
<g id="Node000005" class="node">
<title>Node5</title>
<g id="a_Node000005"><a xlink:href="../../d9/d09/classbool.html" target="_top" xlink:title=" ">
<polygon fill="white" stroke="#666666" points="177.12,-204 143.12,-204 143.12,-184 177.12,-184 177.12,-204"/>
<text text-anchor="middle" x="160.12" y="-190.5" font-family="Helvetica,sans-Serif" font-size="10.00">bool</text>
</a>
</g>
</g>
<!-- Node5&#45;&gt;Node3 -->
<g id="edge4_Node000003_Node000005" class="edge">
<title>Node5&#45;&gt;Node3</title>
<g id="a_edge4_Node000003_Node000005"><a xlink:title=" ">
<path fill="none" stroke="#9a32cd" stroke-dasharray="5,2" d="M158.01,-172.08C155.44,-153.69 149.88,-126.7 138.12,-106 134.33,-99.31 128.43,-93.14 123.11,-88.39"/>
<polygon fill="#9a32cd" stroke="#9a32cd" points="154.54,-172.49 159.2,-182 161.49,-171.66 154.54,-172.49"/>
</a>
</g>
<text text-anchor="start" x="156.12" y="-156.5" font-family="Helvetica,sans-Serif" font-size="10.00" fill="grey"> m_PersonalLightDisabledBy</text>
<text text-anchor="middle" x="222.5" y="-144.5" font-family="Helvetica,sans-Serif" font-size="10.00" fill="grey">Debug</text>
<text text-anchor="start" x="156.12" y="-132.5" font-family="Helvetica,sans-Serif" font-size="10.00" fill="grey">m_PersonalLightEnabledOn</text>
<text text-anchor="middle" x="222.5" y="-120.5" font-family="Helvetica,sans-Serif" font-size="10.00" fill="grey">CurrentServer</text>
<text text-anchor="middle" x="222.5" y="-108.5" font-family="Helvetica,sans-Serif" font-size="10.00" fill="grey">m_PersonalLightIsSwitchedOn</text>
</g>
</g>
</svg>
</svg>

<style type='text/css'>
<![CDATA[
[data-mouse-over-selected='false'] { opacity: 0.7; }
[data-mouse-over-selected='true']  { opacity: 1.0; }
]]>
</style>
<script type="application/ecmascript"><![CDATA[
document.addEventListener('DOMContentLoaded', (event) => {
  highlightEdges();
  highlightAdjacentNodes();
});
]]></script>
</svg>
