<?xml version="1.0" encoding="UTF-8" standalone="no"?>
<!DOCTYPE svg PUBLIC "-//W3C//DTD SVG 1.1//EN"
 "http://www.w3.org/Graphics/SVG/1.1/DTD/svg11.dtd">
<!-- Generated by graphviz version 11.0.0 (20240428.1522)
 -->
<!-- Title: ActionDetachFromTarget_SpecificSlotsCategory_Barrel Pages: 1 -->
<svg width="265pt" height="393pt"
 viewBox="0.00 0.00 264.88 393.00" xmlns="http://www.w3.org/2000/svg" xmlns:xlink="http://www.w3.org/1999/xlink">
<g id="graph0" class="graph" transform="scale(1 1) rotate(0) translate(4 389)">
<title>ActionDetachFromTarget_SpecificSlotsCategory_Barrel</title>
<!-- Node1 -->
<g id="Node000001" class="node">
<title>Node1</title>
<g id="a_Node000001"><a xlink:title=" ">
<polygon fill="#999999" stroke="#666666" points="208.12,-44 84.12,-44 84.12,0 208.12,0 208.12,-44"/>
<text text-anchor="start" x="92.12" y="-30.5" font-family="Helvetica,sans-Serif" font-size="10.00">ActionDetachFromTarget</text>
<text text-anchor="start" x="92.12" y="-18.5" font-family="Helvetica,sans-Serif" font-size="10.00">_SpecificSlotsCategory</text>
<text text-anchor="middle" x="146.12" y="-6.5" font-family="Helvetica,sans-Serif" font-size="10.00">_Barrel</text>
</a>
</g>
</g>
<!-- Node2 -->
<g id="Node000002" class="node">
<title>Node2</title>
<g id="a_Node000002"><a xlink:href="../../d3/d09/class_action_detach_from_target___specific_slots_category.html" target="_top" xlink:title=" ">
<polygon fill="white" stroke="#666666" points="208.12,-112 84.12,-112 84.12,-80 208.12,-80 208.12,-112"/>
<text text-anchor="start" x="92.12" y="-98.5" font-family="Helvetica,sans-Serif" font-size="10.00">ActionDetachFromTarget</text>
<text text-anchor="middle" x="146.12" y="-86.5" font-family="Helvetica,sans-Serif" font-size="10.00">_SpecificSlotsCategory</text>
</a>
</g>
</g>
<!-- Node2&#45;&gt;Node1 -->
<g id="edge1_Node000001_Node000002" class="edge">
<title>Node2&#45;&gt;Node1</title>
<g id="a_edge1_Node000001_Node000002"><a xlink:title=" ">
<path fill="none" stroke="#8b1a1a" d="M146.12,-68.38C146.12,-60.43 146.12,-51.82 146.12,-44.26"/>
<polygon fill="#8b1a1a" stroke="#8b1a1a" points="142.63,-68.22 146.13,-78.22 149.63,-68.22 142.63,-68.22"/>
</a>
</g>
</g>
<!-- Node3 -->
<g id="Node000003" class="node">
<title>Node3</title>
<g id="a_Node000003"><a xlink:href="../../d3/d07/class_action_detach_from_target.html" target="_top" xlink:title=" ">
<polygon fill="white" stroke="#666666" points="162.12,-169 38.12,-169 38.12,-149 162.12,-149 162.12,-169"/>
<text text-anchor="middle" x="100.12" y="-155.5" font-family="Helvetica,sans-Serif" font-size="10.00">ActionDetachFromTarget</text>
</a>
</g>
</g>
<!-- Node3&#45;&gt;Node2 -->
<g id="edge2_Node000002_Node000003" class="edge">
<title>Node3&#45;&gt;Node2</title>
<g id="a_edge2_Node000002_Node000003"><a xlink:title=" ">
<path fill="none" stroke="#8b1a1a" d="M113.95,-139.67C120.6,-130.85 128.48,-120.4 134.77,-112.06"/>
<polygon fill="#8b1a1a" stroke="#8b1a1a" points="111.25,-137.44 108.02,-147.53 116.84,-141.65 111.25,-137.44"/>
</a>
</g>
</g>
<!-- Node4 -->
<g id="Node000004" class="node">
<title>Node4</title>
<g id="a_Node000004"><a xlink:href="../../d0/d0b/class_action_interact_base.html" target="_top" xlink:title=" ">
<polygon fill="white" stroke="#666666" points="143.38,-237 44.87,-237 44.87,-217 143.38,-217 143.38,-237"/>
<text text-anchor="middle" x="94.12" y="-223.5" font-family="Helvetica,sans-Serif" font-size="10.00">ActionInteractBase</text>
</a>
</g>
</g>
<!-- Node4&#45;&gt;Node3 -->
<g id="edge3_Node000003_Node000004" class="edge">
<title>Node4&#45;&gt;Node3</title>
<g id="a_edge3_Node000003_Node000004"><a xlink:title=" ">
<path fill="none" stroke="#8b1a1a" d="M96.01,-205.28C97.1,-193.27 98.42,-178.74 99.27,-169.44"/>
<polygon fill="#8b1a1a" stroke="#8b1a1a" points="92.54,-204.76 95.12,-215.04 99.51,-205.39 92.54,-204.76"/>
</a>
</g>
</g>
<!-- Node5 -->
<g id="Node000005" class="node">
<title>Node5</title>
<g id="a_Node000005"><a xlink:href="../../d7/d04/class_animated_action_base.html" target="_top" xlink:title=" ">
<polygon fill="white" stroke="#666666" points="124.88,-305 17.38,-305 17.38,-285 124.88,-285 124.88,-305"/>
<text text-anchor="middle" x="71.12" y="-291.5" font-family="Helvetica,sans-Serif" font-size="10.00">AnimatedActionBase</text>
</a>
</g>
</g>
<!-- Node5&#45;&gt;Node4 -->
<g id="edge4_Node000004_Node000005" class="edge">
<title>Node5&#45;&gt;Node4</title>
<g id="a_edge4_Node000004_Node000005"><a xlink:title=" ">
<path fill="none" stroke="#8b1a1a" d="M75.61,-273.34C77.13,-267.35 78.99,-260.85 81.12,-255 83.34,-248.94 86.46,-242.42 89.08,-237.3"/>
<polygon fill="#8b1a1a" stroke="#8b1a1a" points="72.21,-272.54 73.34,-283.07 79.02,-274.13 72.21,-272.54"/>
</a>
</g>
</g>
<!-- Node6 -->
<g id="Node000006" class="node">
<title>Node6</title>
<g id="a_Node000006"><a xlink:title=" ">
<polygon fill="white" stroke="#666666" points="66.25,-385 0,-385 0,-365 66.25,-365 66.25,-385"/>
<text text-anchor="middle" x="33.12" y="-371.5" font-family="Helvetica,sans-Serif" font-size="10.00">ActionBase</text>
</a>
</g>
</g>
<!-- Node6&#45;&gt;Node5 -->
<g id="edge5_Node000005_Node000006" class="edge">
<title>Node6&#45;&gt;Node5</title>
<g id="a_edge5_Node000005_Node000006"><a xlink:title=" ">
<path fill="none" stroke="#8b1a1a" d="M42.62,-354.51C50.29,-338.77 60.74,-317.32 66.62,-305.24"/>
<polygon fill="#8b1a1a" stroke="#8b1a1a" points="39.53,-352.86 38.3,-363.39 45.82,-355.93 39.53,-352.86"/>
</a>
</g>
</g>
<!-- Node7 -->
<g id="Node000007" class="node">
<title>Node7</title>
<g id="a_Node000007"><a xlink:href="../../db/d06/class_param3.html" target="_top" xlink:title=" ">
<polygon fill="white" stroke="#666666" points="134,-385 84.25,-385 84.25,-365 134,-365 134,-385"/>
<text text-anchor="middle" x="109.12" y="-371.5" font-family="Helvetica,sans-Serif" font-size="10.00">Param3</text>
</a>
</g>
</g>
<!-- Node7&#45;&gt;Node5 -->
<g id="edge6_Node000005_Node000007" class="edge">
<title>Node7&#45;&gt;Node5</title>
<g id="a_edge6_Node000005_Node000007"><a xlink:title=" ">
<path fill="none" stroke="#9a32cd" stroke-dasharray="5,2" d="M99.63,-354.51C91.96,-338.77 81.51,-317.32 75.63,-305.24"/>
<polygon fill="#9a32cd" stroke="#9a32cd" points="96.43,-355.93 103.95,-363.39 102.72,-352.86 96.43,-355.93"/>
</a>
</g>
<text text-anchor="middle" x="145.62" y="-337.5" font-family="Helvetica,sans-Serif" font-size="10.00" fill="grey"> m_CommandUID</text>
<text text-anchor="middle" x="145.62" y="-325.5" font-family="Helvetica,sans-Serif" font-size="10.00" fill="grey">m_CommandUIDProne</text>
</g>
<!-- Node8 -->
<g id="Node000008" class="node">
<title>Node8</title>
<g id="a_Node000008"><a xlink:href="../../d5/d02/classstring.html" target="_top" xlink:title=" ">
<polygon fill="white" stroke="#666666" points="197.12,-305 157.12,-305 157.12,-285 197.12,-285 197.12,-305"/>
<text text-anchor="middle" x="177.12" y="-291.5" font-family="Helvetica,sans-Serif" font-size="10.00">string</text>
</a>
</g>
</g>
<!-- Node8&#45;&gt;Node2 -->
<g id="edge9_Node000002_Node000008" class="edge">
<title>Node8&#45;&gt;Node2</title>
<g id="a_edge9_Node000002_Node000008"><a xlink:title=" ">
<path fill="none" stroke="#9a32cd" stroke-dasharray="5,2" d="M179.01,-273.37C180.99,-244.88 182.46,-192.11 171.12,-149 167.71,-136.02 161.02,-122.38 155.42,-112.33"/>
<polygon fill="#9a32cd" stroke="#9a32cd" points="175.53,-272.88 178.22,-283.13 182.51,-273.44 175.53,-272.88"/>
</a>
</g>
<text text-anchor="middle" x="217.5" y="-189.5" font-family="Helvetica,sans-Serif" font-size="10.00" fill="grey"> m_slotsToDetach</text>
</g>
<!-- Node8&#45;&gt;Node4 -->
<g id="edge7_Node000004_Node000008" class="edge">
<title>Node8&#45;&gt;Node4</title>
<g id="a_edge7_Node000004_Node000008"><a xlink:title=" ">
<path fill="none" stroke="#9a32cd" stroke-dasharray="5,2" d="M145.73,-287.63C125.23,-282.77 101.14,-275.48 94.88,-267 88.6,-258.5 89.69,-245.88 91.5,-237.31"/>
<polygon fill="#9a32cd" stroke="#9a32cd" points="144.92,-291.04 155.44,-289.81 146.45,-284.21 144.92,-291.04"/>
</a>
</g>
<text text-anchor="middle" x="136.75" y="-257.5" font-family="Helvetica,sans-Serif" font-size="10.00" fill="grey"> m_HUDCursorIcon</text>
</g>
<!-- Node8&#45;&gt;Node8 -->
<g id="edge8_Node000008_Node000008" class="edge">
<title>Node8&#45;&gt;Node8</title>
<g id="a_edge8_Node000008_Node000008"><a xlink:title=" ">
<path fill="none" stroke="#9a32cd" stroke-dasharray="5,2" d="M208.88,-300.47C212.66,-299.48 215.12,-297.65 215.12,-295 215.12,-290.15 206.89,-288.07 197.45,-288.75"/>
<polygon fill="#9a32cd" stroke="#9a32cd" points="208.7,-296.98 198.96,-301.15 209.18,-303.96 208.7,-296.98"/>
</a>
</g>
<text text-anchor="middle" x="230.88" y="-291.5" font-family="Helvetica,sans-Serif" font-size="10.00" fill="grey"> Empty</text>
</g>
</g>
</svg>
