<?xml version="1.0" encoding="UTF-8" standalone="no"?>
<!DOCTYPE svg PUBLIC "-//W3C//DTD SVG 1.1//EN"
 "http://www.w3.org/Graphics/SVG/1.1/DTD/svg11.dtd">
<!-- Generated by graphviz version 11.0.0 (20240428.1522)
 -->
<!-- Title: ActionGiveBloodSelf Pages: 1 -->
<svg width="314pt" height="260pt"
 viewBox="0.00 0.00 314.12 260.00" xmlns="http://www.w3.org/2000/svg" xmlns:xlink="http://www.w3.org/1999/xlink">
<g id="graph0" class="graph" transform="scale(1 1) rotate(0) translate(4 256)">
<title>ActionGiveBloodSelf</title>
<!-- Node1 -->
<g id="Node000001" class="node">
<title>Node1</title>
<g id="a_Node000001"><a xlink:title=" ">
<polygon fill="#999999" stroke="#666666" points="169,-20 65.25,-20 65.25,0 169,0 169,-20"/>
<text text-anchor="middle" x="117.12" y="-6.5" font-family="Helvetica,sans-Serif" font-size="10.00">ActionGiveBloodSelf</text>
</a>
</g>
</g>
<!-- Node2 -->
<g id="Node000002" class="node">
<title>Node2</title>
<g id="a_Node000002"><a xlink:href="../../d6/d0f/class_action_continuous_base.html" target="_top" xlink:title=" ">
<polygon fill="white" stroke="#666666" points="128.62,-108 13.62,-108 13.62,-88 128.62,-88 128.62,-108"/>
<text text-anchor="middle" x="71.12" y="-94.5" font-family="Helvetica,sans-Serif" font-size="10.00">ActionContinuousBase</text>
</a>
</g>
</g>
<!-- Node2&#45;&gt;Node1 -->
<g id="edge1_Node000001_Node000002" class="edge">
<title>Node2&#45;&gt;Node1</title>
<g id="a_edge1_Node000001_Node000002"><a xlink:title=" ">
<path fill="none" stroke="#8b1a1a" d="M81.47,-77.65C91.02,-59.81 104.78,-34.08 112.1,-20.4"/>
<polygon fill="#8b1a1a" stroke="#8b1a1a" points="78.39,-75.99 76.76,-86.46 84.56,-79.29 78.39,-75.99"/>
</a>
</g>
</g>
<!-- Node3 -->
<g id="Node000003" class="node">
<title>Node3</title>
<g id="a_Node000003"><a xlink:href="../../d7/d04/class_animated_action_base.html" target="_top" xlink:title=" ">
<polygon fill="white" stroke="#666666" points="124.88,-172 17.38,-172 17.38,-152 124.88,-152 124.88,-172"/>
<text text-anchor="middle" x="71.12" y="-158.5" font-family="Helvetica,sans-Serif" font-size="10.00">AnimatedActionBase</text>
</a>
</g>
</g>
<!-- Node3&#45;&gt;Node2 -->
<g id="edge2_Node000002_Node000003" class="edge">
<title>Node3&#45;&gt;Node2</title>
<g id="a_edge2_Node000002_Node000003"><a xlink:title=" ">
<path fill="none" stroke="#8b1a1a" d="M71.12,-140.4C71.12,-129.46 71.12,-116.56 71.12,-108.1"/>
<polygon fill="#8b1a1a" stroke="#8b1a1a" points="67.63,-140.07 71.13,-150.07 74.63,-140.07 67.63,-140.07"/>
</a>
</g>
</g>
<!-- Node4 -->
<g id="Node000004" class="node">
<title>Node4</title>
<g id="a_Node000004"><a xlink:title=" ">
<polygon fill="white" stroke="#666666" points="66.25,-252 0,-252 0,-232 66.25,-232 66.25,-252"/>
<text text-anchor="middle" x="33.12" y="-238.5" font-family="Helvetica,sans-Serif" font-size="10.00">ActionBase</text>
</a>
</g>
</g>
<!-- Node4&#45;&gt;Node3 -->
<g id="edge3_Node000003_Node000004" class="edge">
<title>Node4&#45;&gt;Node3</title>
<g id="a_edge3_Node000003_Node000004"><a xlink:title=" ">
<path fill="none" stroke="#8b1a1a" d="M42.62,-221.51C50.29,-205.77 60.74,-184.32 66.62,-172.24"/>
<polygon fill="#8b1a1a" stroke="#8b1a1a" points="39.53,-219.86 38.3,-230.39 45.82,-222.93 39.53,-219.86"/>
</a>
</g>
</g>
<!-- Node5 -->
<g id="Node000005" class="node">
<title>Node5</title>
<g id="a_Node000005"><a xlink:href="../../db/d06/class_param3.html" target="_top" xlink:title=" ">
<polygon fill="white" stroke="#666666" points="134,-252 84.25,-252 84.25,-232 134,-232 134,-252"/>
<text text-anchor="middle" x="109.12" y="-238.5" font-family="Helvetica,sans-Serif" font-size="10.00">Param3</text>
</a>
</g>
</g>
<!-- Node5&#45;&gt;Node3 -->
<g id="edge4_Node000003_Node000005" class="edge">
<title>Node5&#45;&gt;Node3</title>
<g id="a_edge4_Node000003_Node000005"><a xlink:title=" ">
<path fill="none" stroke="#9a32cd" stroke-dasharray="5,2" d="M99.63,-221.51C91.96,-205.77 81.51,-184.32 75.63,-172.24"/>
<polygon fill="#9a32cd" stroke="#9a32cd" points="96.43,-222.93 103.95,-230.39 102.72,-219.86 96.43,-222.93"/>
</a>
</g>
<text text-anchor="middle" x="145.62" y="-204.5" font-family="Helvetica,sans-Serif" font-size="10.00" fill="grey"> m_CommandUID</text>
<text text-anchor="middle" x="145.62" y="-192.5" font-family="Helvetica,sans-Serif" font-size="10.00" fill="grey">m_CommandUIDProne</text>
</g>
<!-- Node6 -->
<g id="Node000006" class="node">
<title>Node6</title>
<g id="a_Node000006"><a xlink:href="../../d4/d03/classfloat.html" target="_top" xlink:title=" ">
<polygon fill="white" stroke="#666666" points="181.12,-108 147.12,-108 147.12,-88 181.12,-88 181.12,-108"/>
<text text-anchor="middle" x="164.12" y="-94.5" font-family="Helvetica,sans-Serif" font-size="10.00">float</text>
</a>
</g>
</g>
<!-- Node6&#45;&gt;Node1 -->
<g id="edge5_Node000001_Node000006" class="edge">
<title>Node6&#45;&gt;Node1</title>
<g id="a_edge5_Node000001_Node000006"><a xlink:title=" ">
<path fill="none" stroke="#9a32cd" stroke-dasharray="5,2" d="M153.69,-77.9C143.93,-60.05 129.78,-34.15 122.26,-20.4"/>
<polygon fill="#9a32cd" stroke="#9a32cd" points="150.5,-79.37 158.37,-86.47 156.64,-76.01 150.5,-79.37"/>
</a>
</g>
<text text-anchor="start" x="144.12" y="-52.5" font-family="Helvetica,sans-Serif" font-size="10.00" fill="grey"> CHEM_AGENT_BLOOD_REMOVAL</text>
<text text-anchor="middle" x="225.12" y="-40.5" font-family="Helvetica,sans-Serif" font-size="10.00" fill="grey">_MODIFIER</text>
</g>
<!-- Node6&#45;&gt;Node6 -->
<g id="edge6_Node000006_Node000006" class="edge">
<title>Node6&#45;&gt;Node6</title>
<g id="a_edge6_Node000006_Node000006"><a xlink:title=" ">
<path fill="none" stroke="#9a32cd" stroke-dasharray="5,2" d="M192.8,-103.96C196.6,-102.95 199.12,-100.96 199.12,-98 199.12,-92.59 190.68,-90.43 181.41,-91.53"/>
<polygon fill="#9a32cd" stroke="#9a32cd" points="192.76,-100.46 182.92,-104.4 193.07,-107.45 192.76,-100.46"/>
</a>
</g>
<text text-anchor="middle" x="221.25" y="-106.5" font-family="Helvetica,sans-Serif" font-size="10.00" fill="grey"> LOWEST</text>
<text text-anchor="middle" x="221.25" y="-94.5" font-family="Helvetica,sans-Serif" font-size="10.00" fill="grey">MAX</text>
<text text-anchor="middle" x="221.25" y="-82.5" font-family="Helvetica,sans-Serif" font-size="10.00" fill="grey">MIN</text>
</g>
</g>
</svg>
