<?xml version="1.0" encoding="UTF-8" standalone="no"?>
<!DOCTYPE svg PUBLIC "-//W3C//DTD SVG 1.1//EN"
 "http://www.w3.org/Graphics/SVG/1.1/DTD/svg11.dtd">
<!-- Generated by graphviz version 11.0.0 (20240428.1522)
 -->
<!-- Title: ActionViewBinoculars Pages: 1 -->
<svg width="245pt" height="288pt"
 viewBox="0.00 0.00 244.62 288.00" xmlns="http://www.w3.org/2000/svg" xmlns:xlink="http://www.w3.org/1999/xlink">
<g id="graph0" class="graph" transform="scale(1 1) rotate(0) translate(4 284)">
<title>ActionViewBinoculars</title>
<!-- Node1 -->
<g id="Node000001" class="node">
<title>Node1</title>
<g id="a_Node000001"><a xlink:title=" ">
<polygon fill="#999999" stroke="#666666" points="167.38,-20 56.88,-20 56.88,0 167.38,0 167.38,-20"/>
<text text-anchor="middle" x="112.12" y="-6.5" font-family="Helvetica,sans-Serif" font-size="10.00">ActionViewBinoculars</text>
</a>
</g>
</g>
<!-- Node2 -->
<g id="Node000002" class="node">
<title>Node2</title>
<g id="a_Node000002"><a xlink:href="../../d1/d02/class_action_view_optics.html" target="_top" xlink:title=" ">
<polygon fill="white" stroke="#666666" points="117.75,-88 24.5,-88 24.5,-68 117.75,-68 117.75,-88"/>
<text text-anchor="middle" x="71.12" y="-74.5" font-family="Helvetica,sans-Serif" font-size="10.00">ActionViewOptics</text>
</a>
</g>
</g>
<!-- Node2&#45;&gt;Node1 -->
<g id="edge1_Node000001_Node000002" class="edge">
<title>Node2&#45;&gt;Node1</title>
<g id="a_edge1_Node000001_Node000002"><a xlink:title=" ">
<path fill="none" stroke="#8b1a1a" d="M83.07,-57.78C90.69,-45.51 100.24,-30.14 106.26,-20.44"/>
<polygon fill="#8b1a1a" stroke="#8b1a1a" points="80.1,-55.92 77.8,-66.26 86.05,-59.61 80.1,-55.92"/>
</a>
</g>
</g>
<!-- Node3 -->
<g id="Node000003" class="node">
<title>Node3</title>
<g id="a_Node000003"><a xlink:href="../../d6/d0f/class_action_continuous_base.html" target="_top" xlink:title=" ">
<polygon fill="white" stroke="#666666" points="128.62,-144 13.62,-144 13.62,-124 128.62,-124 128.62,-144"/>
<text text-anchor="middle" x="71.12" y="-130.5" font-family="Helvetica,sans-Serif" font-size="10.00">ActionContinuousBase</text>
</a>
</g>
</g>
<!-- Node3&#45;&gt;Node2 -->
<g id="edge2_Node000002_Node000003" class="edge">
<title>Node3&#45;&gt;Node2</title>
<g id="a_edge2_Node000002_Node000003"><a xlink:title=" ">
<path fill="none" stroke="#8b1a1a" d="M71.12,-112.13C71.12,-103.9 71.12,-94.85 71.12,-88.3"/>
<polygon fill="#8b1a1a" stroke="#8b1a1a" points="67.63,-112.08 71.13,-122.08 74.63,-112.08 67.63,-112.08"/>
</a>
</g>
</g>
<!-- Node4 -->
<g id="Node000004" class="node">
<title>Node4</title>
<g id="a_Node000004"><a xlink:href="../../d7/d04/class_animated_action_base.html" target="_top" xlink:title=" ">
<polygon fill="white" stroke="#666666" points="124.88,-200 17.38,-200 17.38,-180 124.88,-180 124.88,-200"/>
<text text-anchor="middle" x="71.12" y="-186.5" font-family="Helvetica,sans-Serif" font-size="10.00">AnimatedActionBase</text>
</a>
</g>
</g>
<!-- Node4&#45;&gt;Node3 -->
<g id="edge3_Node000003_Node000004" class="edge">
<title>Node4&#45;&gt;Node3</title>
<g id="a_edge3_Node000003_Node000004"><a xlink:title=" ">
<path fill="none" stroke="#8b1a1a" d="M71.12,-168.13C71.12,-159.9 71.12,-150.85 71.12,-144.3"/>
<polygon fill="#8b1a1a" stroke="#8b1a1a" points="67.63,-168.08 71.13,-178.08 74.63,-168.08 67.63,-168.08"/>
</a>
</g>
</g>
<!-- Node5 -->
<g id="Node000005" class="node">
<title>Node5</title>
<g id="a_Node000005"><a xlink:title=" ">
<polygon fill="white" stroke="#666666" points="66.25,-280 0,-280 0,-260 66.25,-260 66.25,-280"/>
<text text-anchor="middle" x="33.12" y="-266.5" font-family="Helvetica,sans-Serif" font-size="10.00">ActionBase</text>
</a>
</g>
</g>
<!-- Node5&#45;&gt;Node4 -->
<g id="edge4_Node000004_Node000005" class="edge">
<title>Node5&#45;&gt;Node4</title>
<g id="a_edge4_Node000004_Node000005"><a xlink:title=" ">
<path fill="none" stroke="#8b1a1a" d="M42.62,-249.51C50.29,-233.77 60.74,-212.32 66.62,-200.24"/>
<polygon fill="#8b1a1a" stroke="#8b1a1a" points="39.53,-247.86 38.3,-258.39 45.82,-250.93 39.53,-247.86"/>
</a>
</g>
</g>
<!-- Node6 -->
<g id="Node000006" class="node">
<title>Node6</title>
<g id="a_Node000006"><a xlink:href="../../db/d06/class_param3.html" target="_top" xlink:title=" ">
<polygon fill="white" stroke="#666666" points="134,-280 84.25,-280 84.25,-260 134,-260 134,-280"/>
<text text-anchor="middle" x="109.12" y="-266.5" font-family="Helvetica,sans-Serif" font-size="10.00">Param3</text>
</a>
</g>
</g>
<!-- Node6&#45;&gt;Node4 -->
<g id="edge5_Node000004_Node000006" class="edge">
<title>Node6&#45;&gt;Node4</title>
<g id="a_edge5_Node000004_Node000006"><a xlink:title=" ">
<path fill="none" stroke="#9a32cd" stroke-dasharray="5,2" d="M99.63,-249.51C91.96,-233.77 81.51,-212.32 75.63,-200.24"/>
<polygon fill="#9a32cd" stroke="#9a32cd" points="96.43,-250.93 103.95,-258.39 102.72,-247.86 96.43,-250.93"/>
</a>
</g>
<text text-anchor="middle" x="145.62" y="-232.5" font-family="Helvetica,sans-Serif" font-size="10.00" fill="grey"> m_CommandUID</text>
<text text-anchor="middle" x="145.62" y="-220.5" font-family="Helvetica,sans-Serif" font-size="10.00" fill="grey">m_CommandUIDProne</text>
</g>
<!-- Node7 -->
<g id="Node000007" class="node">
<title>Node7</title>
<g id="a_Node000007"><a xlink:href="../../d9/d09/classbool.html" target="_top" xlink:title=" ">
<polygon fill="white" stroke="#666666" points="170.12,-88 136.12,-88 136.12,-68 170.12,-68 170.12,-88"/>
<text text-anchor="middle" x="153.12" y="-74.5" font-family="Helvetica,sans-Serif" font-size="10.00">bool</text>
</a>
</g>
</g>
<!-- Node7&#45;&gt;Node1 -->
<g id="edge6_Node000001_Node000007" class="edge">
<title>Node7&#45;&gt;Node1</title>
<g id="a_edge6_Node000001_Node000007"><a xlink:title=" ">
<path fill="none" stroke="#9a32cd" stroke-dasharray="5,2" d="M141.18,-57.78C133.56,-45.51 124.01,-30.14 117.99,-20.44"/>
<polygon fill="#9a32cd" stroke="#9a32cd" points="138.2,-59.61 146.45,-66.26 144.15,-55.92 138.2,-59.61"/>
</a>
</g>
<text text-anchor="middle" x="186.38" y="-40.5" font-family="Helvetica,sans-Serif" font-size="10.00" fill="grey"> m_workingRangefinder</text>
</g>
</g>
</svg>
