<?xml version="1.0" encoding="UTF-8" standalone="no"?>
<!DOCTYPE svg PUBLIC "-//W3C//DTD SVG 1.1//EN"
 "http://www.w3.org/Graphics/SVG/1.1/DTD/svg11.dtd">
<!-- Generated by graphviz version 11.0.0 (20240428.1522)
 -->
<!-- Title: NoiseAIEvaluate Pages: 1 -->
<svg width="180pt" height="112pt"
 viewBox="0.00 0.00 179.50 112.00" xmlns="http://www.w3.org/2000/svg" xmlns:xlink="http://www.w3.org/1999/xlink">
<g id="graph0" class="graph" transform="scale(1 1) rotate(0) translate(4 108)">
<title>NoiseAIEvaluate</title>
<!-- Node1 -->
<g id="Node000001" class="node">
<title>Node1</title>
<g id="a_Node000001"><a xlink:title=" ">
<polygon fill="#999999" stroke="#666666" points="86.5,-20 0,-20 0,0 86.5,0 86.5,-20"/>
<text text-anchor="middle" x="43.25" y="-6.5" font-family="Helvetica,sans-Serif" font-size="10.00">NoiseAIEvaluate</text>
</a>
</g>
</g>
<!-- Node2 -->
<g id="Node000002" class="node">
<title>Node2</title>
<g id="a_Node000002"><a xlink:href="../../d4/d03/classfloat.html" target="_top" xlink:title=" ">
<polygon fill="white" stroke="#666666" points="60.25,-96 26.25,-96 26.25,-76 60.25,-76 60.25,-96"/>
<text text-anchor="middle" x="43.25" y="-82.5" font-family="Helvetica,sans-Serif" font-size="10.00">float</text>
</a>
</g>
</g>
<!-- Node2&#45;&gt;Node1 -->
<g id="edge1_Node000001_Node000002" class="edge">
<title>Node2&#45;&gt;Node1</title>
<g id="a_edge1_Node000001_Node000002"><a xlink:title=" ">
<path fill="none" stroke="#9a32cd" stroke-dasharray="5,2" d="M43.25,-64.23C43.25,-49.69 43.25,-30.99 43.25,-20.06"/>
<polygon fill="#9a32cd" stroke="#9a32cd" points="39.75,-64.11 43.25,-74.11 46.75,-64.11 39.75,-64.11"/>
</a>
</g>
<text text-anchor="middle" x="107.38" y="-40.5" font-family="Helvetica,sans-Serif" font-size="10.00" fill="grey"> SURFACE_NOISE_WEIGHT</text>
</g>
<!-- Node2&#45;&gt;Node2 -->
<g id="edge2_Node000002_Node000002" class="edge">
<title>Node2&#45;&gt;Node2</title>
<g id="a_edge2_Node000002_Node000002"><a xlink:title=" ">
<path fill="none" stroke="#9a32cd" stroke-dasharray="5,2" d="M71.92,-92.95C75.72,-91.77 78.25,-89.45 78.25,-86 78.25,-79.68 69.81,-77.17 60.54,-78.45"/>
<polygon fill="#9a32cd" stroke="#9a32cd" points="71.85,-89.45 62.05,-93.47 72.22,-96.44 71.85,-89.45"/>
</a>
</g>
<text text-anchor="middle" x="100.38" y="-94.5" font-family="Helvetica,sans-Serif" font-size="10.00" fill="grey"> LOWEST</text>
<text text-anchor="middle" x="100.38" y="-82.5" font-family="Helvetica,sans-Serif" font-size="10.00" fill="grey">MAX</text>
<text text-anchor="middle" x="100.38" y="-70.5" font-family="Helvetica,sans-Serif" font-size="10.00" fill="grey">MIN</text>
</g>
</g>
</svg>
