<?xml version="1.0" encoding="UTF-8" standalone="no"?>
<!DOCTYPE svg PUBLIC "-//W3C//DTD SVG 1.1//EN"
 "http://www.w3.org/Graphics/SVG/1.1/DTD/svg11.dtd">
<!-- Generated by graphviz version 11.0.0 (20240428.1522)
 -->
<!-- Title: EntityAI Pages: 1 -->
<svg width="1103pt" height="302pt"
 viewBox="0.00 0.00 1103.12 301.91" xmlns="http://www.w3.org/2000/svg" xmlns:xlink="http://www.w3.org/1999/xlink">
<g id="graph0" class="graph" transform="scale(1 1) rotate(0) translate(4 297.91)">
<title>EntityAI</title>
<!-- Node1 -->
<g id="Node000001" class="node">
<title>Node1</title>
<g id="a_Node000001"><a xlink:title=" ">
<polygon fill="#999999" stroke="#666666" points="771.62,-20 721.12,-20 721.12,0 771.62,0 771.62,-20"/>
<text text-anchor="middle" x="746.38" y="-6.5" font-family="Helvetica,sans-Serif" font-size="10.00">EntityAI</text>
</a>
</g>
</g>
<!-- Node2 -->
<g id="Node000002" class="node">
<title>Node2</title>
<g id="a_Node000002"><a xlink:href="../../d2/d01/classarray.html" target="_top" xlink:title="Result for an object found in CGame.IsBoxCollidingGeometryProxy.">
<polygon fill="white" stroke="#666666" points="339.25,-138 301.5,-138 301.5,-118 339.25,-118 339.25,-138"/>
<text text-anchor="middle" x="320.38" y="-124.5" font-family="Helvetica,sans-Serif" font-size="10.00">array</text>
</a>
</g>
</g>
<!-- Node2&#45;&gt;Node1 -->
<g id="edge1_Node000001_Node000002" class="edge">
<title>Node2&#45;&gt;Node1</title>
<g id="a_edge1_Node000001_Node000002"><a xlink:title=" ">
<path fill="none" stroke="#9a32cd" stroke-dasharray="5,2" d="M346.02,-112.02C382.19,-91.65 450.86,-55.72 514.12,-38 587.22,-17.52 677.45,-12.55 720.78,-11.36"/>
<polygon fill="#9a32cd" stroke="#9a32cd" points="344.56,-108.82 337.61,-116.82 348.03,-114.9 344.56,-108.82"/>
</a>
</g>
<text text-anchor="middle" x="562.5" y="-64.5" font-family="Helvetica,sans-Serif" font-size="10.00" fill="grey"> m_ContinuousActions</text>
<text text-anchor="middle" x="562.5" y="-52.5" font-family="Helvetica,sans-Serif" font-size="10.00" fill="grey">m_InteractActions</text>
<text text-anchor="middle" x="562.5" y="-40.5" font-family="Helvetica,sans-Serif" font-size="10.00" fill="grey">m_SingleUseActions</text>
</g>
<!-- Node2&#45;&gt;Node2 -->
<g id="edge4_Node000002_Node000002" class="edge">
<title>Node2&#45;&gt;Node2</title>
<g id="a_edge4_Node000002_Node000002"><a xlink:title=" ">
<path fill="none" stroke="#9a32cd" stroke-dasharray="5,2" d="M342.68,-141.49C350.7,-141.78 357.25,-137.29 357.25,-128 357.25,-114.64 343.71,-111.2 331.7,-117.67"/>
<polygon fill="#9a32cd" stroke="#9a32cd" points="343.73,-138.15 333.16,-138.75 341.8,-144.88 343.73,-138.15"/>
</a>
</g>
<text text-anchor="middle" x="378.25" y="-124.5" font-family="Helvetica,sans-Serif" font-size="10.00" fill="grey"> proxyInfo</text>
</g>
<!-- Node8 -->
<g id="Node000008" class="node">
<title>Node8</title>
<g id="a_Node000008"><a xlink:href="../../d2/d01/classarray.html" target="_top" xlink:title=" ">
<polygon fill="white" stroke="#666666" points="298.62,-20 212.12,-20 212.12,0 298.62,0 298.62,-20"/>
<text text-anchor="middle" x="255.38" y="-6.5" font-family="Helvetica,sans-Serif" font-size="10.00">array&lt; Widget &gt;</text>
</a>
</g>
</g>
<!-- Node2&#45;&gt;Node8 -->
<g id="edge12_Node000008_Node000002" class="edge">
<title>Node2&#45;&gt;Node8</title>
<g id="a_edge12_Node000008_Node000002"><a xlink:title=" ">
<path fill="none" stroke="#9a32cd" stroke-dasharray="5,2" d="M305.51,-108.92C300.17,-103.09 293.86,-96.88 287.38,-92 273.4,-81.49 261.49,-88.93 252.38,-74 242.22,-57.36 247.64,-33.4 251.88,-20.35"/>
<polygon fill="#9a32cd" stroke="#9a32cd" points="302.79,-111.13 311.99,-116.39 308.08,-106.55 302.79,-111.13"/>
</a>
</g>
<text text-anchor="middle" x="273.38" y="-52.5" font-family="Helvetica,sans-Serif" font-size="10.00" fill="grey"> proxyInfo</text>
</g>
<!-- Node3 -->
<g id="Node000003" class="node">
<title>Node3</title>
<g id="a_Node000003"><a xlink:href="../../d8/d03/class_object.html" target="_top" xlink:title=" ">
<polygon fill="white" stroke="#666666" points="148.62,-292 104.12,-292 104.12,-272 148.62,-272 148.62,-292"/>
<text text-anchor="middle" x="126.38" y="-278.5" font-family="Helvetica,sans-Serif" font-size="10.00">Object</text>
</a>
</g>
</g>
<!-- Node3&#45;&gt;Node2 -->
<g id="edge2_Node000002_Node000003" class="edge">
<title>Node3&#45;&gt;Node2</title>
<g id="a_edge2_Node000002_Node000003"><a xlink:title=" ">
<path fill="none" stroke="#9a32cd" stroke-dasharray="5,2" d="M130.67,-260.34C136.59,-237.37 149.59,-201.01 175.38,-182 215.96,-152.08 242.82,-187.6 287.38,-164 298.74,-157.98 308.37,-146.54 314.25,-138.37"/>
<polygon fill="#9a32cd" stroke="#9a32cd" points="127.27,-259.52 128.42,-270.05 134.09,-261.1 127.27,-259.52"/>
</a>
</g>
<text text-anchor="middle" x="188.88" y="-220.5" font-family="Helvetica,sans-Serif" font-size="10.00" fill="grey"> obj</text>
<text text-anchor="middle" x="188.88" y="-208.5" font-family="Helvetica,sans-Serif" font-size="10.00" fill="grey">parent</text>
</g>
<!-- Node3&#45;&gt;Node8 -->
<g id="edge10_Node000008_Node000003" class="edge">
<title>Node3&#45;&gt;Node8</title>
<g id="a_edge10_Node000008_Node000003"><a xlink:title=" ">
<path fill="none" stroke="#9a32cd" stroke-dasharray="5,2" d="M93.47,-270.68C85.91,-266.7 78.8,-261.29 74.38,-254 57.76,-226.65 64.53,-212.45 74.38,-182 99.07,-105.63 118.18,-84.83 183.38,-38 194,-30.37 207.04,-24.62 219.09,-20.44"/>
<polygon fill="#9a32cd" stroke="#9a32cd" points="91.9,-273.82 102.46,-274.66 94.73,-267.41 91.9,-273.82"/>
</a>
</g>
<text text-anchor="middle" x="132.88" y="-130.5" font-family="Helvetica,sans-Serif" font-size="10.00" fill="grey"> obj</text>
<text text-anchor="middle" x="132.88" y="-118.5" font-family="Helvetica,sans-Serif" font-size="10.00" fill="grey">parent</text>
</g>
<!-- Node4 -->
<g id="Node000004" class="node">
<title>Node4</title>
<g id="a_Node000004"><a xlink:href="../../db/d06/class_param3.html" target="_top" xlink:title=" ">
<polygon fill="white" stroke="#666666" points="236.25,-292 186.5,-292 186.5,-272 236.25,-272 236.25,-292"/>
<text text-anchor="middle" x="211.38" y="-278.5" font-family="Helvetica,sans-Serif" font-size="10.00">Param3</text>
</a>
</g>
</g>
<!-- Node4&#45;&gt;Node2 -->
<g id="edge3_Node000002_Node000004" class="edge">
<title>Node4&#45;&gt;Node2</title>
<g id="a_edge3_Node000002_Node000004"><a xlink:title=" ">
<path fill="none" stroke="#9a32cd" stroke-dasharray="5,2" d="M208.23,-260.44C206.09,-238.38 206.42,-203.6 225.12,-182 243.98,-160.23 262.79,-179.01 287.38,-164 298.21,-157.39 307.81,-146.29 313.83,-138.36"/>
<polygon fill="#9a32cd" stroke="#9a32cd" points="204.75,-260.78 209.47,-270.26 211.69,-259.91 204.75,-260.78"/>
</a>
</g>
<text text-anchor="middle" x="282.5" y="-244.5" font-family="Helvetica,sans-Serif" font-size="10.00" fill="grey"> NO_SORTING</text>
<text text-anchor="middle" x="282.5" y="-232.5" font-family="Helvetica,sans-Serif" font-size="10.00" fill="grey">geomLevel</text>
<text text-anchor="middle" x="282.5" y="-220.5" font-family="Helvetica,sans-Serif" font-size="10.00" fill="grey">hierLevel</text>
<text text-anchor="start" x="224.38" y="-208.5" font-family="Helvetica,sans-Serif" font-size="10.00" fill="grey">m_CurrentSettingAlternate</text>
<text text-anchor="middle" x="282.5" y="-196.5" font-family="Helvetica,sans-Serif" font-size="10.00" fill="grey">KeyIndex</text>
<text text-anchor="middle" x="282.5" y="-184.5" font-family="Helvetica,sans-Serif" font-size="10.00" fill="grey">m_CurrentSettingKeyIndex</text>
</g>
<!-- Node4&#45;&gt;Node8 -->
<g id="edge11_Node000008_Node000004" class="edge">
<title>Node4&#45;&gt;Node8</title>
<g id="a_edge11_Node000008_Node000004"><a xlink:title=" ">
<path fill="none" stroke="#9a32cd" stroke-dasharray="5,2" d="M205.26,-260.84C195.22,-227.7 176.31,-165.23 176.12,-164 171.46,-132.34 164.04,-121.63 176.12,-92 189.2,-59.94 221.76,-33.68 240.83,-20.39"/>
<polygon fill="#9a32cd" stroke="#9a32cd" points="201.82,-261.55 208.07,-270.11 208.52,-259.52 201.82,-261.55"/>
</a>
</g>
<text text-anchor="middle" x="234.5" y="-154.5" font-family="Helvetica,sans-Serif" font-size="10.00" fill="grey"> NO_SORTING</text>
<text text-anchor="middle" x="234.5" y="-142.5" font-family="Helvetica,sans-Serif" font-size="10.00" fill="grey">geomLevel</text>
<text text-anchor="middle" x="234.5" y="-130.5" font-family="Helvetica,sans-Serif" font-size="10.00" fill="grey">hierLevel</text>
<text text-anchor="start" x="176.38" y="-118.5" font-family="Helvetica,sans-Serif" font-size="10.00" fill="grey">m_CurrentSettingAlternate</text>
<text text-anchor="middle" x="234.5" y="-106.5" font-family="Helvetica,sans-Serif" font-size="10.00" fill="grey">KeyIndex</text>
<text text-anchor="middle" x="234.5" y="-94.5" font-family="Helvetica,sans-Serif" font-size="10.00" fill="grey">m_CurrentSettingKeyIndex</text>
</g>
<!-- Node5 -->
<g id="Node000005" class="node">
<title>Node5</title>
<g id="a_Node000005"><a xlink:href="../../d4/d04/class_class.html" target="_top" xlink:title="Super root of all classes in Enforce script.">
<polygon fill="white" stroke="#666666" points="421.75,-292 381,-292 381,-272 421.75,-272 421.75,-292"/>
<text text-anchor="middle" x="401.38" y="-278.5" font-family="Helvetica,sans-Serif" font-size="10.00">Class</text>
</a>
</g>
</g>
<!-- Node5&#45;&gt;Node2 -->
<g id="edge5_Node000002_Node000005" class="edge">
<title>Node5&#45;&gt;Node2</title>
<g id="a_edge5_Node000002_Node000005"><a xlink:title=" ">
<path fill="none" stroke="#9a32cd" stroke-dasharray="5,2" d="M377.37,-264.44C373.93,-261.28 370.69,-257.77 368.12,-254 349.25,-226.25 357.62,-213.25 345.38,-182 339.21,-166.28 330.53,-148.66 325.19,-138.22"/>
<polygon fill="#9a32cd" stroke="#9a32cd" points="374.95,-266.98 384.92,-270.56 379.36,-261.54 374.95,-266.98"/>
</a>
</g>
<text text-anchor="middle" x="394" y="-214.5" font-family="Helvetica,sans-Serif" font-size="10.00" fill="grey"> m_Instance</text>
</g>
<!-- Node5&#45;&gt;Node8 -->
<g id="edge13_Node000008_Node000005" class="edge">
<title>Node5&#45;&gt;Node8</title>
<g id="a_edge13_Node000008_Node000005"><a xlink:title=" ">
<path fill="none" stroke="#9a32cd" stroke-dasharray="5,2" d="M417.2,-262.74C418.91,-259.96 420.38,-257.01 421.38,-254 431.4,-223.61 423.67,-213.92 421.38,-182 416.61,-115.63 433.24,-78.41 380.38,-38 357.18,-20.27 324.83,-13.63 298.85,-11.37"/>
<polygon fill="#9a32cd" stroke="#9a32cd" points="414.49,-260.53 411.35,-270.65 420.11,-264.69 414.49,-260.53"/>
</a>
</g>
<text text-anchor="middle" x="447" y="-124.5" font-family="Helvetica,sans-Serif" font-size="10.00" fill="grey"> m_Instance</text>
</g>
<!-- Node6 -->
<g id="Node000006" class="node">
<title>Node6</title>
<g id="a_Node000006"><a xlink:href="../../d5/d02/classstring.html" target="_top" xlink:title=" ">
<polygon fill="white" stroke="#666666" points="582.38,-292 542.38,-292 542.38,-272 582.38,-272 582.38,-292"/>
<text text-anchor="middle" x="562.38" y="-278.5" font-family="Helvetica,sans-Serif" font-size="10.00">string</text>
</a>
</g>
</g>
<!-- Node6&#45;&gt;Node2 -->
<g id="edge6_Node000002_Node000006" class="edge">
<title>Node6&#45;&gt;Node2</title>
<g id="a_edge6_Node000002_Node000006"><a xlink:title=" ">
<path fill="none" stroke="#9a32cd" stroke-dasharray="5,2" d="M533.07,-266.06C526.38,-262.34 519.39,-258.21 513.12,-254 470.96,-225.68 466.96,-209.68 424.38,-182 396.17,-163.66 360.82,-146.82 339.44,-137.25"/>
<polygon fill="#9a32cd" stroke="#9a32cd" points="531.4,-269.14 541.86,-270.8 534.72,-262.98 531.4,-269.14"/>
</a>
</g>
<text text-anchor="middle" x="530" y="-214.5" font-family="Helvetica,sans-Serif" font-size="10.00" fill="grey"> m_Test</text>
</g>
<!-- Node6&#45;&gt;Node6 -->
<g id="edge7_Node000006_Node000006" class="edge">
<title>Node6&#45;&gt;Node6</title>
<g id="a_edge7_Node000006_Node000006"><a xlink:title=" ">
<path fill="none" stroke="#9a32cd" stroke-dasharray="5,2" d="M588.14,-293.91C595.09,-293.28 600.38,-289.31 600.38,-282 600.38,-271.12 588.67,-267.64 577.2,-271.55"/>
<polygon fill="#9a32cd" stroke="#9a32cd" points="589.07,-290.5 578.7,-292.65 588.15,-297.44 589.07,-290.5"/>
</a>
</g>
<text text-anchor="middle" x="616.12" y="-278.5" font-family="Helvetica,sans-Serif" font-size="10.00" fill="grey"> Empty</text>
</g>
<!-- Node6&#45;&gt;Node8 -->
<g id="edge14_Node000008_Node000006" class="edge">
<title>Node6&#45;&gt;Node8</title>
<g id="a_edge14_Node000008_Node000006"><a xlink:title=" ">
<path fill="none" stroke="#9a32cd" stroke-dasharray="5,2" d="M564.44,-260.4C569.25,-207.59 578.62,-69.3 548.38,-38 531.4,-20.44 376.26,-14.05 298.87,-11.94"/>
<polygon fill="#9a32cd" stroke="#9a32cd" points="560.98,-259.82 563.51,-270.11 567.95,-260.49 560.98,-259.82"/>
</a>
</g>
<text text-anchor="middle" x="587" y="-124.5" font-family="Helvetica,sans-Serif" font-size="10.00" fill="grey"> m_Test</text>
</g>
<!-- Node10 -->
<g id="Node000010" class="node">
<title>Node10</title>
<g id="a_Node000010"><a xlink:href="../../d4/d0d/class_sound_lookup_table.html" target="_top" xlink:title=" ">
<polygon fill="white" stroke="#666666" points="1034.62,-138 936.12,-138 936.12,-118 1034.62,-118 1034.62,-138"/>
<text text-anchor="middle" x="985.38" y="-124.5" font-family="Helvetica,sans-Serif" font-size="10.00">SoundLookupTable</text>
</a>
</g>
</g>
<!-- Node6&#45;&gt;Node10 -->
<g id="edge20_Node000010_Node000006" class="edge">
<title>Node6&#45;&gt;Node10</title>
<g id="a_edge20_Node000010_Node000006"><a xlink:title=" ">
<path fill="none" stroke="#9a32cd" stroke-dasharray="5,2" d="M593.55,-270.78C653.26,-251.08 787.72,-206.07 899.38,-164 921.25,-155.76 945.93,-145.62 963.23,-138.39"/>
<polygon fill="#9a32cd" stroke="#9a32cd" points="592.48,-267.45 584.08,-273.9 594.67,-274.1 592.48,-267.45"/>
</a>
</g>
<text text-anchor="middle" x="893.88" y="-220.5" font-family="Helvetica,sans-Serif" font-size="10.00" fill="grey"> m_parameterName</text>
<text text-anchor="middle" x="893.88" y="-208.5" font-family="Helvetica,sans-Serif" font-size="10.00" fill="grey">m_tableCategoryName</text>
</g>
<!-- Node7 -->
<g id="Node000007" class="node">
<title>Node7</title>
<g id="a_Node000007"><a xlink:href="../../dd/d0a/class_widget.html" target="_top" xlink:title=" ">
<polygon fill="white" stroke="#666666" points="46.75,-292 0,-292 0,-272 46.75,-272 46.75,-292"/>
<text text-anchor="middle" x="23.38" y="-278.5" font-family="Helvetica,sans-Serif" font-size="10.00">Widget</text>
</a>
</g>
</g>
<!-- Node7&#45;&gt;Node2 -->
<g id="edge8_Node000002_Node000007" class="edge">
<title>Node7&#45;&gt;Node2</title>
<g id="a_edge8_Node000002_Node000007"><a xlink:title=" ">
<path fill="none" stroke="#9a32cd" stroke-dasharray="5,2" d="M31.09,-261.15C41.31,-237.8 61.75,-199.94 92.62,-182 167.79,-138.34 209.24,-202.08 287.38,-164 299.09,-158.29 308.78,-146.54 314.56,-138.24"/>
<polygon fill="#9a32cd" stroke="#9a32cd" points="27.94,-259.6 27.36,-270.18 34.41,-262.28 27.94,-259.6"/>
</a>
</g>
<text text-anchor="middle" x="111.75" y="-214.5" font-family="Helvetica,sans-Serif" font-size="10.00" fill="grey"> m_Root</text>
</g>
<!-- Node7&#45;&gt;Node8 -->
<g id="edge15_Node000008_Node000007" class="edge">
<title>Node7&#45;&gt;Node8</title>
<g id="a_edge15_Node000008_Node000007"><a xlink:title=" ">
<path fill="none" stroke="#9a32cd" stroke-dasharray="5,2" d="M19.52,-260.6C13.69,-223.7 6.65,-144.79 40.62,-92 77.4,-34.87 160.44,-17.91 211.82,-12.95"/>
<polygon fill="#9a32cd" stroke="#9a32cd" points="16.04,-261.04 21.2,-270.3 22.94,-259.85 16.04,-261.04"/>
</a>
</g>
<text text-anchor="middle" x="59.75" y="-124.5" font-family="Helvetica,sans-Serif" font-size="10.00" fill="grey"> m_Root</text>
</g>
<!-- Node8&#45;&gt;Node2 -->
<g id="edge9_Node000002_Node000008" class="edge">
<title>Node8&#45;&gt;Node2</title>
<g id="a_edge9_Node000002_Node000008"><a xlink:title=" ">
<path fill="none" stroke="#9a32cd" stroke-dasharray="5,2" d="M286.57,-26.43C291.03,-29.74 295.18,-33.59 298.38,-38 316.29,-62.76 319.71,-100.44 320.3,-117.74"/>
<polygon fill="#9a32cd" stroke="#9a32cd" points="288.75,-23.67 278.44,-21.21 284.97,-29.56 288.75,-23.67"/>
</a>
</g>
<text text-anchor="middle" x="344.88" y="-52.5" font-family="Helvetica,sans-Serif" font-size="10.00" fill="grey"> m_Subgroups</text>
</g>
<!-- Node8&#45;&gt;Node8 -->
<g id="edge16_Node000008_Node000008" class="edge">
<title>Node8&#45;&gt;Node8</title>
<g id="a_edge16_Node000008_Node000008"><a xlink:title=" ">
<path fill="none" stroke="#9a32cd" stroke-dasharray="5,2" d="M310,-16.44C314.11,-15 316.62,-12.86 316.62,-10 316.62,-5.06 309.09,-2.24 298.87,-1.55"/>
<polygon fill="#9a32cd" stroke="#9a32cd" points="309.57,-12.96 300.36,-18.19 310.82,-19.85 309.57,-12.96"/>
</a>
</g>
<text text-anchor="middle" x="348.12" y="-6.5" font-family="Helvetica,sans-Serif" font-size="10.00" fill="grey"> m_Subgroups</text>
</g>
<!-- Node9 -->
<g id="Node000009" class="node">
<title>Node9</title>
<g id="a_Node000009"><a xlink:href="../../d4/d03/classfloat.html" target="_top" xlink:title=" ">
<polygon fill="white" stroke="#666666" points="649.38,-138 615.38,-138 615.38,-118 649.38,-118 649.38,-138"/>
<text text-anchor="middle" x="632.38" y="-124.5" font-family="Helvetica,sans-Serif" font-size="10.00">float</text>
</a>
</g>
</g>
<!-- Node9&#45;&gt;Node1 -->
<g id="edge17_Node000001_Node000009" class="edge">
<title>Node9&#45;&gt;Node1</title>
<g id="a_edge17_Node000001_Node000009"><a xlink:title=" ">
<path fill="none" stroke="#9a32cd" stroke-dasharray="5,2" d="M624.18,-107.22C617.47,-87.49 611.35,-57.42 626.88,-38 638.39,-23.59 689.19,-16.31 720.73,-13.11"/>
<polygon fill="#9a32cd" stroke="#9a32cd" points="620.81,-108.19 627.62,-116.31 627.36,-105.72 620.81,-108.19"/>
</a>
</g>
<text text-anchor="middle" x="684.12" y="-58.5" font-family="Helvetica,sans-Serif" font-size="10.00" fill="grey"> SOUND_CONTACT_SKIP</text>
<text text-anchor="middle" x="684.12" y="-46.5" font-family="Helvetica,sans-Serif" font-size="10.00" fill="grey">m_SoundContactTickTime</text>
</g>
<!-- Node9&#45;&gt;Node9 -->
<g id="edge18_Node000009_Node000009" class="edge">
<title>Node9&#45;&gt;Node9</title>
<g id="a_edge18_Node000009_Node000009"><a xlink:title=" ">
<path fill="none" stroke="#9a32cd" stroke-dasharray="5,2" d="M654.05,-141.5C661.44,-141.58 667.38,-137.08 667.38,-128 667.38,-114.64 654.52,-111.2 643.13,-117.67"/>
<polygon fill="#9a32cd" stroke="#9a32cd" points="655.16,-138.17 644.58,-138.75 653.21,-144.9 655.16,-138.17"/>
</a>
</g>
<text text-anchor="middle" x="689.5" y="-136.5" font-family="Helvetica,sans-Serif" font-size="10.00" fill="grey"> LOWEST</text>
<text text-anchor="middle" x="689.5" y="-124.5" font-family="Helvetica,sans-Serif" font-size="10.00" fill="grey">MAX</text>
<text text-anchor="middle" x="689.5" y="-112.5" font-family="Helvetica,sans-Serif" font-size="10.00" fill="grey">MIN</text>
</g>
<!-- Node10&#45;&gt;Node1 -->
<g id="edge19_Node000001_Node000010" class="edge">
<title>Node10&#45;&gt;Node1</title>
<g id="a_edge19_Node000001_Node000010"><a xlink:title=" ">
<path fill="none" stroke="#9a32cd" stroke-dasharray="5,2" d="M993.21,-106.84C999.53,-86.81 1004.93,-56.5 988.38,-38 974.11,-22.05 830.99,-14.44 771.8,-11.95"/>
<polygon fill="#9a32cd" stroke="#9a32cd" points="989.97,-105.5 989.95,-116.1 996.57,-107.83 989.97,-105.5"/>
</a>
</g>
<text text-anchor="middle" x="1046.75" y="-52.5" font-family="Helvetica,sans-Serif" font-size="10.00" fill="grey"> m_SoundImpactTable</text>
</g>
<!-- Node11 -->
<g id="Node000011" class="node">
<title>Node11</title>
<g id="a_Node000011"><a xlink:href="../../d9/d09/classbool.html" target="_top" xlink:title=" ">
<polygon fill="white" stroke="#666666" points="763.38,-138 729.38,-138 729.38,-118 763.38,-118 763.38,-138"/>
<text text-anchor="middle" x="746.38" y="-124.5" font-family="Helvetica,sans-Serif" font-size="10.00">bool</text>
</a>
</g>
</g>
<!-- Node11&#45;&gt;Node1 -->
<g id="edge21_Node000001_Node000011" class="edge">
<title>Node11&#45;&gt;Node1</title>
<g id="a_edge21_Node000001_Node000011"><a xlink:title=" ">
<path fill="none" stroke="#9a32cd" stroke-dasharray="5,2" d="M746.38,-106.23C746.38,-80.8 746.38,-38.84 746.38,-20.3"/>
<polygon fill="#9a32cd" stroke="#9a32cd" points="742.88,-105.99 746.38,-115.99 749.88,-105.99 742.88,-105.99"/>
</a>
</g>
<text text-anchor="middle" x="788.75" y="-58.5" font-family="Helvetica,sans-Serif" font-size="10.00" fill="grey"> m_ActionsInitialize</text>
<text text-anchor="middle" x="788.75" y="-46.5" font-family="Helvetica,sans-Serif" font-size="10.00" fill="grey">m_IsMeleeWeapon</text>
</g>
<!-- Node12 -->
<g id="Node000012" class="node">
<title>Node12</title>
<g id="a_Node000012"><a xlink:href="../../d4/d0d/class_script_invoker.html" target="_top" xlink:title="ScriptInvoker Class provide list of callbacks &#160;&#160;usage:">
<polygon fill="white" stroke="#666666" points="890.12,-138 818.62,-138 818.62,-118 890.12,-118 890.12,-138"/>
<text text-anchor="middle" x="854.38" y="-124.5" font-family="Helvetica,sans-Serif" font-size="10.00">ScriptInvoker</text>
</a>
</g>
</g>
<!-- Node12&#45;&gt;Node1 -->
<g id="edge22_Node000001_Node000012" class="edge">
<title>Node12&#45;&gt;Node1</title>
<g id="a_edge22_Node000001_Node000012"><a xlink:title=" ">
<path fill="none" stroke="#9a32cd" stroke-dasharray="5,2" d="M854.76,-106.32C854,-86.33 849.72,-56.45 832.38,-38 816.83,-21.47 791.31,-15 772.09,-12.5"/>
<polygon fill="#9a32cd" stroke="#9a32cd" points="851.26,-106.07 854.84,-116.04 858.26,-106.01 851.26,-106.07"/>
</a>
</g>
<text text-anchor="middle" x="916.88" y="-58.5" font-family="Helvetica,sans-Serif" font-size="10.00" fill="grey"> m_OnItemAddedToHands</text>
<text text-anchor="middle" x="916.88" y="-46.5" font-family="Helvetica,sans-Serif" font-size="10.00" fill="grey">m_OnItemRemovedFromHands</text>
</g>
</g>
</svg>
