<?xml version="1.0" encoding="UTF-8" standalone="no"?>
<!DOCTYPE svg PUBLIC "-//W3C//DTD SVG 1.1//EN"
 "http://www.w3.org/Graphics/SVG/1.1/DTD/svg11.dtd">
<!-- Generated by graphviz version 11.0.0 (20240428.1522)
 -->
<!-- Title: PluginLocalProfile Pages: 1 -->
<svg width="153pt" height="198pt"
 viewBox="0.00 0.00 152.88 197.95" xmlns="http://www.w3.org/2000/svg" xmlns:xlink="http://www.w3.org/1999/xlink">
<g id="graph0" class="graph" transform="scale(1 1) rotate(0) translate(4 193.95)">
<title>PluginLocalProfile</title>
<!-- Node1 -->
<g id="Node000001" class="node">
<title>Node1</title>
<g id="a_Node000001"><a xlink:title=" ">
<polygon fill="#999999" stroke="#666666" points="93.25,-20 0,-20 0,0 93.25,0 93.25,-20"/>
<text text-anchor="middle" x="46.62" y="-6.5" font-family="Helvetica,sans-Serif" font-size="10.00">PluginLocalProfile</text>
</a>
</g>
</g>
<!-- Node2 -->
<g id="Node000002" class="node">
<title>Node2</title>
<g id="a_Node000002"><a xlink:href="../../d5/d02/classstring.html" target="_top" xlink:title=" ">
<polygon fill="white" stroke="#666666" points="66.62,-184 26.62,-184 26.62,-164 66.62,-164 66.62,-184"/>
<text text-anchor="middle" x="46.62" y="-170.5" font-family="Helvetica,sans-Serif" font-size="10.00">string</text>
</a>
</g>
</g>
<!-- Node2&#45;&gt;Node1 -->
<g id="edge1_Node000001_Node000002" class="edge">
<title>Node2&#45;&gt;Node1</title>
<g id="a_edge1_Node000001_Node000002"><a xlink:title=" ">
<path fill="none" stroke="#9a32cd" stroke-dasharray="5,2" d="M46.62,-152.59C46.62,-117.28 46.62,-46.12 46.62,-20.48"/>
<polygon fill="#9a32cd" stroke="#9a32cd" points="43.13,-152.31 46.63,-162.31 50.13,-152.31 43.13,-152.31"/>
</a>
</g>
<text text-anchor="middle" x="95.75" y="-136.5" font-family="Helvetica,sans-Serif" font-size="10.00" fill="grey"> FILE_ROOT</text>
<text text-anchor="middle" x="95.75" y="-124.5" font-family="Helvetica,sans-Serif" font-size="10.00" fill="grey">FILE_ROOT_SCENES</text>
<text text-anchor="middle" x="95.75" y="-112.5" font-family="Helvetica,sans-Serif" font-size="10.00" fill="grey">PARAM_FOG</text>
<text text-anchor="middle" x="95.75" y="-100.5" font-family="Helvetica,sans-Serif" font-size="10.00" fill="grey">PARAM_MISSION</text>
<text text-anchor="middle" x="95.75" y="-88.5" font-family="Helvetica,sans-Serif" font-size="10.00" fill="grey">PARAM_OBJ_COUNT</text>
<text text-anchor="middle" x="95.75" y="-76.5" font-family="Helvetica,sans-Serif" font-size="10.00" fill="grey">PARAM_OBJ_NAME</text>
<text text-anchor="middle" x="95.75" y="-64.5" font-family="Helvetica,sans-Serif" font-size="10.00" fill="grey">PARAM_RAIN</text>
<text text-anchor="middle" x="95.75" y="-52.5" font-family="Helvetica,sans-Serif" font-size="10.00" fill="grey">PARAM_TIME</text>
<text text-anchor="middle" x="95.75" y="-40.5" font-family="Helvetica,sans-Serif" font-size="10.00" fill="grey">m_FileSceneName</text>
</g>
<!-- Node2&#45;&gt;Node2 -->
<g id="edge2_Node000002_Node000002" class="edge">
<title>Node2&#45;&gt;Node2</title>
<g id="a_edge2_Node000002_Node000002"><a xlink:title=" ">
<path fill="none" stroke="#9a32cd" stroke-dasharray="5,2" d="M66.19,-188.92C75.94,-190.98 84.62,-186.01 84.62,-174 84.62,-157.82 68.85,-154.41 55.97,-163.76"/>
<polygon fill="#9a32cd" stroke="#9a32cd" points="67.9,-185.86 57.35,-184.87 64.98,-192.22 67.9,-185.86"/>
</a>
</g>
<text text-anchor="middle" x="100.38" y="-170.5" font-family="Helvetica,sans-Serif" font-size="10.00" fill="grey"> Empty</text>
</g>
</g>
</svg>
