<?xml version="1.0" encoding="UTF-8" standalone="no"?>
<!DOCTYPE svg PUBLIC "-//W3C//DTD SVG 1.1//EN"
 "http://www.w3.org/Graphics/SVG/1.1/DTD/svg11.dtd">
<!-- Generated by graphviz version 11.0.0 (20240428.1522)
 -->
<!-- Title: OnlineServices Pages: 1 -->
<svg width="808pt" height="920pt"
 viewBox="0.00 0.00 807.50 919.62" xmlns="http://www.w3.org/2000/svg" xmlns:xlink="http://www.w3.org/1999/xlink">
<g id="graph0" class="graph" transform="scale(1 1) rotate(0) translate(4 915.62)">
<title>OnlineServices</title>
<!-- Node1 -->
<g id="Node000001" class="node">
<title>Node1</title>
<g id="a_Node000001"><a xlink:title=" ">
<polygon fill="#999999" stroke="#666666" points="799.5,-704.62 719,-704.62 719,-684.62 799.5,-684.62 799.5,-704.62"/>
<text text-anchor="middle" x="759.25" y="-691.12" font-family="Helvetica,sans-Serif" font-size="10.00">OnlineServices</text>
</a>
</g>
</g>
<!-- Node2 -->
<g id="Node000002" class="node">
<title>Node2</title>
<g id="a_Node000002"><a xlink:href="../../d4/d0d/class_script_invoker.html" target="_top" xlink:title="ScriptInvoker Class provide list of callbacks &#160;&#160;usage:">
<polygon fill="white" stroke="#666666" points="532.25,-842.62 460.75,-842.62 460.75,-822.62 532.25,-822.62 532.25,-842.62"/>
<text text-anchor="middle" x="496.5" y="-829.12" font-family="Helvetica,sans-Serif" font-size="10.00">ScriptInvoker</text>
</a>
</g>
</g>
<!-- Node2&#45;&gt;Node1 -->
<g id="edge1_Node000001_Node000002" class="edge">
<title>Node2&#45;&gt;Node1</title>
<g id="a_edge1_Node000001_Node000002"><a xlink:title=" ">
<path fill="none" stroke="#9a32cd" stroke-dasharray="5,2" d="M543.99,-838.65C588.33,-841.88 655,-839.91 701,-807.62 737,-782.35 751.69,-727.6 756.4,-704.85"/>
<polygon fill="#9a32cd" stroke="#9a32cd" points="544.44,-835.18 534.17,-837.81 543.84,-842.15 544.44,-835.18"/>
</a>
</g>
<text text-anchor="middle" x="632" y="-902.12" font-family="Helvetica,sans-Serif" font-size="10.00" fill="grey"> m_FriendsAsyncInvoker</text>
<text text-anchor="middle" x="632" y="-890.12" font-family="Helvetica,sans-Serif" font-size="10.00" fill="grey">m_MuteUpdateAsyncInvoker</text>
<text text-anchor="middle" x="632" y="-878.12" font-family="Helvetica,sans-Serif" font-size="10.00" fill="grey">m_PermissionsAsyncInvoker</text>
<text text-anchor="middle" x="632" y="-866.12" font-family="Helvetica,sans-Serif" font-size="10.00" fill="grey">m_ServerAsyncInvoker</text>
<text text-anchor="middle" x="632" y="-854.12" font-family="Helvetica,sans-Serif" font-size="10.00" fill="grey">m_ServerModLoadAsyncInvoker</text>
<text text-anchor="middle" x="632" y="-842.12" font-family="Helvetica,sans-Serif" font-size="10.00" fill="grey">m_ServersAsyncInvoker</text>
</g>
<!-- Node3 -->
<g id="Node000003" class="node">
<title>Node3</title>
<g id="a_Node000003"><a xlink:href="../../d5/d06/class_bios_client_services.html" target="_top" xlink:title="BiosClientServices class provides individual online services.">
<polygon fill="white" stroke="#666666" points="545,-804.62 448,-804.62 448,-784.62 545,-784.62 545,-804.62"/>
<text text-anchor="middle" x="496.5" y="-791.12" font-family="Helvetica,sans-Serif" font-size="10.00">BiosClientServices</text>
</a>
</g>
</g>
<!-- Node3&#45;&gt;Node1 -->
<g id="edge2_Node000001_Node000003" class="edge">
<title>Node3&#45;&gt;Node1</title>
<g id="a_edge2_Node000001_Node000003"><a xlink:title=" ">
<path fill="none" stroke="#9a32cd" stroke-dasharray="5,2" d="M556.58,-793.12C607.74,-790.88 677.15,-785.35 701,-771.62 728,-756.09 746.1,-722.17 753.9,-705.01"/>
<polygon fill="#9a32cd" stroke="#9a32cd" points="556.68,-789.61 546.83,-793.51 556.96,-796.6 556.68,-789.61"/>
</a>
</g>
<text text-anchor="middle" x="632" y="-794.12" font-family="Helvetica,sans-Serif" font-size="10.00" fill="grey"> m_ClientServices</text>
</g>
<!-- Node4 -->
<g id="Node000004" class="node">
<title>Node4</title>
<g id="a_Node000004"><a xlink:href="../../d0/d05/class_trial_service.html" target="_top" xlink:title="TrialService is used to query if the game is trial version or not.">
<polygon fill="white" stroke="#666666" points="529.25,-766.62 463.75,-766.62 463.75,-746.62 529.25,-746.62 529.25,-766.62"/>
<text text-anchor="middle" x="496.5" y="-753.12" font-family="Helvetica,sans-Serif" font-size="10.00">TrialService</text>
</a>
</g>
</g>
<!-- Node4&#45;&gt;Node1 -->
<g id="edge3_Node000001_Node000004" class="edge">
<title>Node4&#45;&gt;Node1</title>
<g id="a_edge3_Node000001_Node000004"><a xlink:title=" ">
<path fill="none" stroke="#9a32cd" stroke-dasharray="5,2" d="M540.83,-757.28C582.97,-756.6 648.19,-752 701,-732.62 718.25,-726.3 735.46,-713.83 746.44,-704.9"/>
<polygon fill="#9a32cd" stroke="#9a32cd" points="541.07,-753.78 531.1,-757.36 541.13,-760.78 541.07,-753.78"/>
</a>
</g>
<text text-anchor="middle" x="632" y="-758.12" font-family="Helvetica,sans-Serif" font-size="10.00" fill="grey"> m_TrialService</text>
</g>
<!-- Node5 -->
<g id="Node000005" class="node">
<title>Node5</title>
<g id="a_Node000005"><a xlink:href="../../d5/d02/classstring.html" target="_top" xlink:title=" ">
<polygon fill="white" stroke="#666666" points="44.88,-631.62 4.88,-631.62 4.88,-611.62 44.88,-611.62 44.88,-631.62"/>
<text text-anchor="middle" x="24.88" y="-618.12" font-family="Helvetica,sans-Serif" font-size="10.00">string</text>
</a>
</g>
</g>
<!-- Node5&#45;&gt;Node1 -->
<g id="edge4_Node000001_Node000005" class="edge">
<title>Node5&#45;&gt;Node1</title>
<g id="a_edge4_Node000001_Node000005"><a xlink:title=" ">
<path fill="none" stroke="#9a32cd" stroke-dasharray="5,2" d="M51.07,-637.96C56.45,-641.08 62.19,-644.14 67.75,-646.62 124.82,-672.16 141.01,-674.86 202,-688.62 391.6,-731.4 626.86,-710.63 718.82,-699.79"/>
<polygon fill="#9a32cd" stroke="#9a32cd" points="52.97,-635.01 42.6,-632.81 49.33,-641 52.97,-635.01"/>
</a>
</g>
<text text-anchor="middle" x="383.12" y="-728.12" font-family="Helvetica,sans-Serif" font-size="10.00" fill="grey"> m_CurrentServerIP</text>
<text text-anchor="middle" x="383.12" y="-716.12" font-family="Helvetica,sans-Serif" font-size="10.00" fill="grey">m_InviteServerIP</text>
</g>
<!-- Node5&#45;&gt;Node5 -->
<g id="edge5_Node000005_Node000005" class="edge">
<title>Node5&#45;&gt;Node5</title>
<g id="a_edge5_Node000005_Node000005"><a xlink:title=" ">
<path fill="none" stroke="#9a32cd" stroke-dasharray="5,2" d="M7.02,-643.07C9.32,-646.93 15.27,-649.62 24.88,-649.62 42.43,-649.62 47.78,-640.6 40.92,-631.96"/>
<polygon fill="#9a32cd" stroke="#9a32cd" points="10.44,-643.89 8.58,-633.46 3.53,-642.77 10.44,-643.89"/>
</a>
</g>
<text text-anchor="middle" x="24.88" y="-652.12" font-family="Helvetica,sans-Serif" font-size="10.00" fill="grey"> Empty</text>
</g>
<!-- Node8 -->
<g id="Node000008" class="node">
<title>Node8</title>
<g id="a_Node000008"><a xlink:href="../../d2/d01/classarray.html" target="_top" xlink:title=" ">
<polygon fill="white" stroke="#666666" points="536.38,-319.62 456.62,-319.62 456.62,-299.62 536.38,-299.62 536.38,-319.62"/>
<text text-anchor="middle" x="496.5" y="-306.12" font-family="Helvetica,sans-Serif" font-size="10.00">array&lt; string &gt;</text>
</a>
</g>
</g>
<!-- Node5&#45;&gt;Node8 -->
<g id="edge27_Node000008_Node000005" class="edge">
<title>Node5&#45;&gt;Node8</title>
<g id="a_edge27_Node000008_Node000005"><a xlink:title=" ">
<path fill="none" stroke="#9a32cd" stroke-dasharray="5,2" d="M56.32,-616.07C123.32,-603.28 280.55,-569.95 318.25,-532.62 333.85,-517.18 325.83,-505.95 336.25,-486.62 377.05,-410.91 380.47,-381.89 448,-328.62 452.32,-325.21 457.34,-322.34 462.46,-319.95"/>
<polygon fill="#9a32cd" stroke="#9a32cd" points="55.94,-612.58 46.76,-617.87 57.24,-619.46 55.94,-612.58"/>
</a>
</g>
<text text-anchor="middle" x="260.12" y="-584.12" font-family="Helvetica,sans-Serif" font-size="10.00" fill="grey"> m_Test</text>
</g>
<!-- Node10 -->
<g id="Node000010" class="node">
<title>Node10</title>
<g id="a_Node000010"><a xlink:href="../../d2/d01/classarray.html" target="_top" xlink:title="Result for an object found in CGame.IsBoxCollidingGeometryProxy.">
<polygon fill="white" stroke="#666666" points="279,-244.62 241.25,-244.62 241.25,-224.62 279,-224.62 279,-244.62"/>
<text text-anchor="middle" x="260.12" y="-231.12" font-family="Helvetica,sans-Serif" font-size="10.00">array</text>
</a>
</g>
</g>
<!-- Node5&#45;&gt;Node10 -->
<g id="edge16_Node000010_Node000005" class="edge">
<title>Node5&#45;&gt;Node10</title>
<g id="a_edge16_Node000010_Node000005"><a xlink:title=" ">
<path fill="none" stroke="#9a32cd" stroke-dasharray="5,2" d="M41.86,-602.45C81.82,-554.53 182.9,-433.16 184,-430.62 209.29,-372.25 173.2,-345.35 202,-288.62 211.39,-270.13 229.77,-254.56 243.15,-244.96"/>
<polygon fill="#9a32cd" stroke="#9a32cd" points="39.22,-600.16 35.5,-610.09 44.59,-604.65 39.22,-600.16"/>
</a>
</g>
<text text-anchor="middle" x="125.88" y="-573.12" font-family="Helvetica,sans-Serif" font-size="10.00" fill="grey"> m_Test</text>
</g>
<!-- Node13 -->
<g id="Node000013" class="node">
<title>Node13</title>
<g id="a_Node000013"><a xlink:href="../../d2/d01/classarray.html" target="_top" xlink:title=" ">
<polygon fill="white" stroke="#666666" points="539.75,-357.62 453.25,-357.62 453.25,-337.62 539.75,-337.62 539.75,-357.62"/>
<text text-anchor="middle" x="496.5" y="-344.12" font-family="Helvetica,sans-Serif" font-size="10.00">array&lt; Widget &gt;</text>
</a>
</g>
</g>
<!-- Node5&#45;&gt;Node13 -->
<g id="edge23_Node000013_Node000005" class="edge">
<title>Node5&#45;&gt;Node13</title>
<g id="a_edge23_Node000013_Node000005"><a xlink:title=" ">
<path fill="none" stroke="#9a32cd" stroke-dasharray="5,2" d="M56.51,-627.83C112.58,-637.51 233.71,-650.49 318.25,-602.62 421.47,-544.19 478.18,-397.86 492.09,-357.87"/>
<polygon fill="#9a32cd" stroke="#9a32cd" points="57.21,-624.4 46.75,-626.05 55.96,-631.29 57.21,-624.4"/>
</a>
</g>
<text text-anchor="middle" x="260.12" y="-637.12" font-family="Helvetica,sans-Serif" font-size="10.00" fill="grey"> m_Test</text>
</g>
<!-- Node6 -->
<g id="Node000006" class="node">
<title>Node6</title>
<g id="a_Node000006"><a xlink:href="../../db/d06/class_param3.html" target="_top" xlink:title=" ">
<polygon fill="white" stroke="#666666" points="49.75,-461.62 0,-461.62 0,-441.62 49.75,-441.62 49.75,-461.62"/>
<text text-anchor="middle" x="24.88" y="-448.12" font-family="Helvetica,sans-Serif" font-size="10.00">Param3</text>
</a>
</g>
</g>
<!-- Node6&#45;&gt;Node1 -->
<g id="edge6_Node000001_Node000006" class="edge">
<title>Node6&#45;&gt;Node1</title>
<g id="a_edge6_Node000001_Node000006"><a xlink:title=" ">
<path fill="none" stroke="#9a32cd" stroke-dasharray="5,2" d="M30.28,-473.04C35.87,-496.1 47.34,-532.94 67.75,-558.62 79,-572.78 184.95,-644.6 202,-650.62 297.84,-684.5 328.67,-660.61 430,-668.62 534.15,-676.86 656.88,-686.59 718.59,-691.48"/>
<polygon fill="#9a32cd" stroke="#9a32cd" points="33.76,-472.55 28.15,-463.56 26.93,-474.08 33.76,-472.55"/>
</a>
</g>
<text text-anchor="middle" x="383.12" y="-695.12" font-family="Helvetica,sans-Serif" font-size="10.00" fill="grey"> m_AutoConnectTries</text>
<text text-anchor="middle" x="383.12" y="-683.12" font-family="Helvetica,sans-Serif" font-size="10.00" fill="grey">m_CurrentServerPort</text>
<text text-anchor="middle" x="383.12" y="-671.12" font-family="Helvetica,sans-Serif" font-size="10.00" fill="grey">m_InviteServerPort</text>
</g>
<!-- Node6&#45;&gt;Node8 -->
<g id="edge10_Node000008_Node000006" class="edge">
<title>Node6&#45;&gt;Node8</title>
<g id="a_edge10_Node000008_Node000006"><a xlink:title=" ">
<path fill="none" stroke="#9a32cd" stroke-dasharray="5,2" d="M61.6,-450.7C102.86,-448.85 167.22,-443.29 184,-426.62 218.84,-392.02 165,-349.9 202,-317.62 238.83,-285.5 385.15,-297.01 456.28,-304.81"/>
<polygon fill="#9a32cd" stroke="#9a32cd" points="61.49,-447.2 51.64,-451.09 61.77,-454.19 61.49,-447.2"/>
</a>
</g>
<text text-anchor="middle" x="260.12" y="-380.12" font-family="Helvetica,sans-Serif" font-size="10.00" fill="grey"> NO_SORTING</text>
<text text-anchor="middle" x="260.12" y="-368.12" font-family="Helvetica,sans-Serif" font-size="10.00" fill="grey">geomLevel</text>
<text text-anchor="middle" x="260.12" y="-356.12" font-family="Helvetica,sans-Serif" font-size="10.00" fill="grey">hierLevel</text>
<text text-anchor="start" x="202" y="-344.12" font-family="Helvetica,sans-Serif" font-size="10.00" fill="grey">m_CurrentSettingAlternate</text>
<text text-anchor="middle" x="260.12" y="-332.12" font-family="Helvetica,sans-Serif" font-size="10.00" fill="grey">KeyIndex</text>
<text text-anchor="middle" x="260.12" y="-320.12" font-family="Helvetica,sans-Serif" font-size="10.00" fill="grey">m_CurrentSettingKeyIndex</text>
</g>
<!-- Node6&#45;&gt;Node10 -->
<g id="edge13_Node000010_Node000006" class="edge">
<title>Node6&#45;&gt;Node10</title>
<g id="a_edge13_Node000010_Node000006"><a xlink:title=" ">
<path fill="none" stroke="#9a32cd" stroke-dasharray="5,2" d="M30.53,-430.1C36.14,-408.65 47.44,-375.94 67.75,-354.62 107.44,-312.96 135.77,-329.01 184,-297.62 208.82,-281.47 234.61,-258.17 248.58,-244.9"/>
<polygon fill="#9a32cd" stroke="#9a32cd" points="27.14,-429.24 28.22,-439.78 33.95,-430.87 27.14,-429.24"/>
</a>
</g>
<text text-anchor="middle" x="125.88" y="-417.12" font-family="Helvetica,sans-Serif" font-size="10.00" fill="grey"> NO_SORTING</text>
<text text-anchor="middle" x="125.88" y="-405.12" font-family="Helvetica,sans-Serif" font-size="10.00" fill="grey">geomLevel</text>
<text text-anchor="middle" x="125.88" y="-393.12" font-family="Helvetica,sans-Serif" font-size="10.00" fill="grey">hierLevel</text>
<text text-anchor="start" x="67.75" y="-381.12" font-family="Helvetica,sans-Serif" font-size="10.00" fill="grey">m_CurrentSettingAlternate</text>
<text text-anchor="middle" x="125.88" y="-369.12" font-family="Helvetica,sans-Serif" font-size="10.00" fill="grey">KeyIndex</text>
<text text-anchor="middle" x="125.88" y="-357.12" font-family="Helvetica,sans-Serif" font-size="10.00" fill="grey">m_CurrentSettingKeyIndex</text>
</g>
<!-- Node6&#45;&gt;Node13 -->
<g id="edge20_Node000013_Node000006" class="edge">
<title>Node6&#45;&gt;Node13</title>
<g id="a_edge20_Node000013_Node000006"><a xlink:title=" ">
<path fill="none" stroke="#9a32cd" stroke-dasharray="5,2" d="M61.21,-455.13C116.9,-459.58 228.03,-464.12 318.25,-440.62 370.56,-427 382.66,-418.72 430,-392.62 448.85,-382.23 469.05,-367.8 481.95,-358.1"/>
<polygon fill="#9a32cd" stroke="#9a32cd" points="61.65,-451.65 51.38,-454.29 61.05,-458.63 61.65,-451.65"/>
</a>
</g>
<text text-anchor="middle" x="260.12" y="-519.12" font-family="Helvetica,sans-Serif" font-size="10.00" fill="grey"> NO_SORTING</text>
<text text-anchor="middle" x="260.12" y="-507.12" font-family="Helvetica,sans-Serif" font-size="10.00" fill="grey">geomLevel</text>
<text text-anchor="middle" x="260.12" y="-495.12" font-family="Helvetica,sans-Serif" font-size="10.00" fill="grey">hierLevel</text>
<text text-anchor="start" x="202" y="-483.12" font-family="Helvetica,sans-Serif" font-size="10.00" fill="grey">m_CurrentSettingAlternate</text>
<text text-anchor="middle" x="260.12" y="-471.12" font-family="Helvetica,sans-Serif" font-size="10.00" fill="grey">KeyIndex</text>
<text text-anchor="middle" x="260.12" y="-459.12" font-family="Helvetica,sans-Serif" font-size="10.00" fill="grey">m_CurrentSettingKeyIndex</text>
</g>
<!-- Node7 -->
<g id="Node000007" class="node">
<title>Node7</title>
<g id="a_Node000007"><a xlink:href="../../d9/d09/classbool.html" target="_top" xlink:title=" ">
<polygon fill="white" stroke="#666666" points="513.5,-281.62 479.5,-281.62 479.5,-261.62 513.5,-261.62 513.5,-281.62"/>
<text text-anchor="middle" x="496.5" y="-268.12" font-family="Helvetica,sans-Serif" font-size="10.00">bool</text>
</a>
</g>
</g>
<!-- Node7&#45;&gt;Node1 -->
<g id="edge7_Node000001_Node000007" class="edge">
<title>Node7&#45;&gt;Node1</title>
<g id="a_edge7_Node000001_Node000007"><a xlink:title=" ">
<path fill="none" stroke="#9a32cd" stroke-dasharray="5,2" d="M525.25,-269.88C569.49,-268.75 655.64,-273.64 701,-323.62 750.92,-378.65 757.33,-629.94 758.14,-684.25"/>
<polygon fill="#9a32cd" stroke="#9a32cd" points="525.31,-266.37 515.46,-270.26 525.59,-273.37 525.31,-266.37"/>
</a>
</g>
<text text-anchor="middle" x="632" y="-338.12" font-family="Helvetica,sans-Serif" font-size="10.00" fill="grey"> m_FirstFriendsLoad</text>
<text text-anchor="middle" x="632" y="-326.12" font-family="Helvetica,sans-Serif" font-size="10.00" fill="grey">m_MultiplayState</text>
</g>
<!-- Node8&#45;&gt;Node1 -->
<g id="edge8_Node000001_Node000008" class="edge">
<title>Node8&#45;&gt;Node1</title>
<g id="a_edge8_Node000001_Node000008"><a xlink:title=" ">
<path fill="none" stroke="#9a32cd" stroke-dasharray="5,2" d="M541.56,-325.91C542.75,-326.77 543.9,-327.68 545,-328.62 670,-436.47 739.76,-636.64 755.04,-684.26"/>
<polygon fill="#9a32cd" stroke="#9a32cd" points="543.47,-322.98 533.09,-320.87 539.9,-329 543.47,-322.98"/>
</a>
</g>
<text text-anchor="middle" x="632" y="-550.12" font-family="Helvetica,sans-Serif" font-size="10.00" fill="grey"> m_PendingInvites</text>
</g>
<!-- Node9 -->
<g id="Node000009" class="node">
<title>Node9</title>
<g id="a_Node000009"><a xlink:href="../../d8/d03/class_object.html" target="_top" xlink:title=" ">
<polygon fill="white" stroke="#666666" points="47.12,-284.62 2.62,-284.62 2.62,-264.62 47.12,-264.62 47.12,-284.62"/>
<text text-anchor="middle" x="24.88" y="-271.12" font-family="Helvetica,sans-Serif" font-size="10.00">Object</text>
</a>
</g>
</g>
<!-- Node9&#45;&gt;Node8 -->
<g id="edge9_Node000008_Node000009" class="edge">
<title>Node9&#45;&gt;Node8</title>
<g id="a_edge9_Node000008_Node000009"><a xlink:title=" ">
<path fill="none" stroke="#9a32cd" stroke-dasharray="5,2" d="M57.17,-259.65C60.7,-258.2 64.28,-256.82 67.75,-255.62 118.01,-238.35 146.65,-265.43 184,-227.62 209.31,-202 173.85,-171.08 202,-148.62 242.39,-116.4 268.28,-135.51 318.25,-148.62 373.4,-163.1 395.92,-165.92 430,-211.62 451.53,-240.49 424.6,-263.25 448,-290.62 451,-294.14 454.74,-297 458.8,-299.35"/>
<polygon fill="#9a32cd" stroke="#9a32cd" points="56.01,-256.34 48.25,-263.56 58.81,-262.76 56.01,-256.34"/>
</a>
</g>
<text text-anchor="middle" x="260.12" y="-163.12" font-family="Helvetica,sans-Serif" font-size="10.00" fill="grey"> obj</text>
<text text-anchor="middle" x="260.12" y="-151.12" font-family="Helvetica,sans-Serif" font-size="10.00" fill="grey">parent</text>
</g>
<!-- Node9&#45;&gt;Node10 -->
<g id="edge12_Node000010_Node000009" class="edge">
<title>Node9&#45;&gt;Node10</title>
<g id="a_edge12_Node000010_Node000009"><a xlink:title=" ">
<path fill="none" stroke="#9a32cd" stroke-dasharray="5,2" d="M58.83,-270.98C90.93,-267.21 141.01,-260.74 184,-252.62 203.64,-248.91 225.86,-243.43 241.01,-239.49"/>
<polygon fill="#9a32cd" stroke="#9a32cd" points="58.5,-267.5 48.97,-272.12 59.31,-274.45 58.5,-267.5"/>
</a>
</g>
<text text-anchor="middle" x="125.88" y="-284.12" font-family="Helvetica,sans-Serif" font-size="10.00" fill="grey"> obj</text>
<text text-anchor="middle" x="125.88" y="-272.12" font-family="Helvetica,sans-Serif" font-size="10.00" fill="grey">parent</text>
</g>
<!-- Node9&#45;&gt;Node13 -->
<g id="edge19_Node000013_Node000009" class="edge">
<title>Node9&#45;&gt;Node13</title>
<g id="a_edge19_Node000013_Node000009"><a xlink:title=" ">
<path fill="none" stroke="#9a32cd" stroke-dasharray="5,2" d="M25.85,-296.21C27.12,-325.64 34.32,-377.45 67.75,-401.62 130.3,-446.86 369.71,-384.15 460.4,-358.07"/>
<polygon fill="#9a32cd" stroke="#9a32cd" points="29.35,-296.22 25.64,-286.29 22.35,-296.37 29.35,-296.22"/>
</a>
</g>
<text text-anchor="middle" x="260.12" y="-427.12" font-family="Helvetica,sans-Serif" font-size="10.00" fill="grey"> obj</text>
<text text-anchor="middle" x="260.12" y="-415.12" font-family="Helvetica,sans-Serif" font-size="10.00" fill="grey">parent</text>
</g>
<!-- Node10&#45;&gt;Node8 -->
<g id="edge11_Node000008_Node000010" class="edge">
<title>Node10&#45;&gt;Node8</title>
<g id="a_edge11_Node000008_Node000010"><a xlink:title=" ">
<path fill="none" stroke="#9a32cd" stroke-dasharray="5,2" d="M290.07,-225.17C326.45,-215.23 389.06,-204.78 430,-234.62 451.13,-250.02 430.17,-271.51 448,-290.62 451.27,-294.13 455.28,-297 459.56,-299.35"/>
<polygon fill="#9a32cd" stroke="#9a32cd" points="289.32,-221.74 280.7,-227.9 291.28,-228.46 289.32,-221.74"/>
</a>
</g>
<text text-anchor="middle" x="383.12" y="-237.12" font-family="Helvetica,sans-Serif" font-size="10.00" fill="grey"> proxyInfo</text>
</g>
<!-- Node10&#45;&gt;Node10 -->
<g id="edge14_Node000010_Node000010" class="edge">
<title>Node10&#45;&gt;Node10</title>
<g id="a_edge14_Node000010_Node000010"><a xlink:title=" ">
<path fill="none" stroke="#9a32cd" stroke-dasharray="5,2" d="M238.07,-255.6C240.61,-259.7 247.96,-262.62 260.12,-262.62 281.75,-262.62 288.16,-253.4 279.38,-244.67"/>
<polygon fill="#9a32cd" stroke="#9a32cd" points="241.4,-256.69 240.49,-246.14 234.62,-254.96 241.4,-256.69"/>
</a>
</g>
<text text-anchor="middle" x="260.12" y="-265.12" font-family="Helvetica,sans-Serif" font-size="10.00" fill="grey"> proxyInfo</text>
</g>
<!-- Node10&#45;&gt;Node13 -->
<g id="edge21_Node000013_Node000010" class="edge">
<title>Node10&#45;&gt;Node13</title>
<g id="a_edge21_Node000013_Node000010"><a xlink:title=" ">
<path fill="none" stroke="#9a32cd" stroke-dasharray="5,2" d="M290.6,-236.94C333.43,-240.89 409.94,-250.34 430,-268.62 450.58,-287.38 429.21,-308.08 448,-328.62 451.12,-332.03 454.93,-334.84 459.02,-337.15"/>
<polygon fill="#9a32cd" stroke="#9a32cd" points="291.02,-233.46 280.75,-236.08 290.41,-240.44 291.02,-233.46"/>
</a>
</g>
<text text-anchor="middle" x="383.12" y="-271.12" font-family="Helvetica,sans-Serif" font-size="10.00" fill="grey"> proxyInfo</text>
</g>
<!-- Node11 -->
<g id="Node000011" class="node">
<title>Node11</title>
<g id="a_Node000011"><a xlink:href="../../d4/d04/class_class.html" target="_top" xlink:title="Super root of all classes in Enforce script.">
<polygon fill="white" stroke="#666666" points="45.25,-96.62 4.5,-96.62 4.5,-76.62 45.25,-76.62 45.25,-96.62"/>
<text text-anchor="middle" x="24.88" y="-83.12" font-family="Helvetica,sans-Serif" font-size="10.00">Class</text>
</a>
</g>
</g>
<!-- Node11&#45;&gt;Node8 -->
<g id="edge26_Node000008_Node000011" class="edge">
<title>Node11&#45;&gt;Node8</title>
<g id="a_edge26_Node000008_Node000011"><a xlink:title=" ">
<path fill="none" stroke="#9a32cd" stroke-dasharray="5,2" d="M54.58,-71.2C131.26,-32.28 341.08,58.93 430,-56.62 461.81,-97.96 417.13,-248.59 448,-290.62 450.52,-294.06 453.77,-296.88 457.38,-299.18"/>
<polygon fill="#9a32cd" stroke="#9a32cd" points="53.3,-67.93 46.02,-75.63 56.51,-74.15 53.3,-67.93"/>
</a>
</g>
<text text-anchor="middle" x="260.12" y="-16.12" font-family="Helvetica,sans-Serif" font-size="10.00" fill="grey"> m_Instance</text>
</g>
<!-- Node11&#45;&gt;Node10 -->
<g id="edge15_Node000010_Node000011" class="edge">
<title>Node11&#45;&gt;Node10</title>
<g id="a_edge15_Node000010_Node000011"><a xlink:title=" ">
<path fill="none" stroke="#9a32cd" stroke-dasharray="5,2" d="M56.09,-97.75C90.61,-111.73 147.09,-138.57 184,-176.62 195.9,-188.9 189.38,-199.08 202,-210.62 212.95,-220.64 228.7,-226.83 240.89,-230.41"/>
<polygon fill="#9a32cd" stroke="#9a32cd" points="57.7,-94.63 47.11,-94.23 55.14,-101.14 57.7,-94.63"/>
</a>
</g>
<text text-anchor="middle" x="125.88" y="-179.12" font-family="Helvetica,sans-Serif" font-size="10.00" fill="grey"> m_Instance</text>
</g>
<!-- Node11&#45;&gt;Node13 -->
<g id="edge22_Node000013_Node000011" class="edge">
<title>Node11&#45;&gt;Node13</title>
<g id="a_edge22_Node000013_Node000011"><a xlink:title=" ">
<path fill="none" stroke="#9a32cd" stroke-dasharray="5,2" d="M56.5,-79.46C114.95,-67.74 243.26,-51.69 318.25,-115.62 341.06,-135.07 315.27,-159.22 336.25,-180.62 366.69,-211.68 401.5,-175.78 430,-208.62 465.35,-249.36 414.53,-286.34 448,-328.62 450.76,-332.11 454.25,-334.95 458.08,-337.28"/>
<polygon fill="#9a32cd" stroke="#9a32cd" points="55.99,-75.99 46.93,-81.48 57.44,-82.84 55.99,-75.99"/>
</a>
</g>
<text text-anchor="middle" x="260.12" y="-118.12" font-family="Helvetica,sans-Serif" font-size="10.00" fill="grey"> m_Instance</text>
</g>
<!-- Node12 -->
<g id="Node000012" class="node">
<title>Node12</title>
<g id="a_Node000012"><a xlink:href="../../dd/d0a/class_widget.html" target="_top" xlink:title=" ">
<polygon fill="white" stroke="#666666" points="48.25,-191.62 1.5,-191.62 1.5,-171.62 48.25,-171.62 48.25,-191.62"/>
<text text-anchor="middle" x="24.88" y="-178.12" font-family="Helvetica,sans-Serif" font-size="10.00">Widget</text>
</a>
</g>
</g>
<!-- Node12&#45;&gt;Node8 -->
<g id="edge28_Node000008_Node000012" class="edge">
<title>Node12&#45;&gt;Node8</title>
<g id="a_edge28_Node000008_Node000012"><a xlink:title=" ">
<path fill="none" stroke="#9a32cd" stroke-dasharray="5,2" d="M59.3,-170.35C62.16,-169.42 65,-168.5 67.75,-167.62 119.18,-151.29 147.23,-172.11 184,-132.62 208.84,-105.95 173.54,-75.39 202,-52.62 242.34,-20.35 269.85,-34.55 318.25,-52.62 379.86,-75.63 398.96,-91.64 430,-149.62 459.81,-205.32 409.33,-240.66 448,-290.62 450.72,-294.14 454.19,-297 458.01,-299.34"/>
<polygon fill="#9a32cd" stroke="#9a32cd" points="58.27,-167 49.87,-173.47 60.47,-173.65 58.27,-167"/>
</a>
</g>
<text text-anchor="middle" x="260.12" y="-55.12" font-family="Helvetica,sans-Serif" font-size="10.00" fill="grey"> m_Root</text>
</g>
<!-- Node12&#45;&gt;Node10 -->
<g id="edge17_Node000010_Node000012" class="edge">
<title>Node12&#45;&gt;Node10</title>
<g id="a_edge17_Node000010_Node000012"><a xlink:title=" ">
<path fill="none" stroke="#9a32cd" stroke-dasharray="5,2" d="M59.3,-190.53C62.15,-191.26 65,-191.96 67.75,-192.62 131.08,-207.88 206.75,-223.82 240.86,-230.88"/>
<polygon fill="#9a32cd" stroke="#9a32cd" points="60.46,-187.22 49.9,-188.11 58.71,-194 60.46,-187.22"/>
</a>
</g>
<text text-anchor="middle" x="125.88" y="-221.12" font-family="Helvetica,sans-Serif" font-size="10.00" fill="grey"> m_Root</text>
</g>
<!-- Node12&#45;&gt;Node13 -->
<g id="edge24_Node000013_Node000012" class="edge">
<title>Node12&#45;&gt;Node13</title>
<g id="a_edge24_Node000013_Node000012"><a xlink:title=" ">
<path fill="none" stroke="#9a32cd" stroke-dasharray="5,2" d="M59.92,-181.77C114.77,-182.53 225.92,-186.32 318.25,-203.62 369.28,-213.19 395.17,-199.12 430,-237.62 457.66,-268.2 421.67,-296.9 448,-328.62 450.84,-332.04 454.38,-334.85 458.24,-337.15"/>
<polygon fill="#9a32cd" stroke="#9a32cd" points="60.02,-178.27 49.98,-181.66 59.94,-185.27 60.02,-178.27"/>
</a>
</g>
<text text-anchor="middle" x="260.12" y="-206.12" font-family="Helvetica,sans-Serif" font-size="10.00" fill="grey"> m_Root</text>
</g>
<!-- Node13&#45;&gt;Node10 -->
<g id="edge18_Node000010_Node000013" class="edge">
<title>Node13&#45;&gt;Node10</title>
<g id="a_edge18_Node000010_Node000013"><a xlink:title=" ">
<path fill="none" stroke="#9a32cd" stroke-dasharray="5,2" d="M452.95,-333.55C420.24,-322.08 374.36,-304.56 336.25,-284.62 313.62,-272.79 289.35,-255.75 274.71,-244.94"/>
<polygon fill="#9a32cd" stroke="#9a32cd" points="451.48,-336.75 462.08,-336.71 453.77,-330.13 451.48,-336.75"/>
</a>
</g>
<text text-anchor="middle" x="383.12" y="-327.12" font-family="Helvetica,sans-Serif" font-size="10.00" fill="grey"> m_Subgroups</text>
</g>
<!-- Node13&#45;&gt;Node13 -->
<g id="edge25_Node000013_Node000013" class="edge">
<title>Node13&#45;&gt;Node13</title>
<g id="a_edge25_Node000013_Node000013"><a xlink:title=" ">
<path fill="none" stroke="#9a32cd" stroke-dasharray="5,2" d="M476.46,-369.07C479.04,-372.93 485.72,-375.62 496.5,-375.62 516.21,-375.62 522.21,-366.6 514.51,-357.96"/>
<polygon fill="#9a32cd" stroke="#9a32cd" points="479.86,-369.92 478.21,-359.45 472.98,-368.66 479.86,-369.92"/>
</a>
</g>
<text text-anchor="middle" x="496.5" y="-378.12" font-family="Helvetica,sans-Serif" font-size="10.00" fill="grey"> m_Subgroups</text>
</g>
<!-- Node14 -->
<g id="Node000014" class="node">
<title>Node14</title>
<g id="a_Node000014"><a xlink:href="../../d2/d0f/class_bios_user.html" target="_top" xlink:title=" ">
<polygon fill="white" stroke="#666666" points="524.38,-243.62 468.62,-243.62 468.62,-223.62 524.38,-223.62 524.38,-243.62"/>
<text text-anchor="middle" x="496.5" y="-230.12" font-family="Helvetica,sans-Serif" font-size="10.00">BiosUser</text>
</a>
</g>
</g>
<!-- Node14&#45;&gt;Node1 -->
<g id="edge29_Node000001_Node000014" class="edge">
<title>Node14&#45;&gt;Node1</title>
<g id="a_edge29_Node000001_Node000014"><a xlink:title=" ">
<path fill="none" stroke="#9a32cd" stroke-dasharray="5,2" d="M535.8,-224.97C581.62,-217.1 657.58,-212.34 701,-254.62 732.94,-285.73 753.93,-620.39 757.65,-684.16"/>
<polygon fill="#9a32cd" stroke="#9a32cd" points="535.24,-221.51 526.05,-226.79 536.52,-228.4 535.24,-221.51"/>
</a>
</g>
<text text-anchor="middle" x="632" y="-257.12" font-family="Helvetica,sans-Serif" font-size="10.00" fill="grey"> m_BiosUser</text>
</g>
</g>
</svg>
