<?xml version="1.0" encoding="UTF-8" standalone="no"?>
<!DOCTYPE svg PUBLIC "-//W3C//DTD SVG 1.1//EN"
 "http://www.w3.org/Graphics/SVG/1.1/DTD/svg11.dtd">
<!-- Generated by graphviz version 11.0.0 (20240428.1522)
 -->
<!-- Title: DuffelBagSmall_Camo Pages: 1 -->
<svg width="140pt" height="196pt"
 viewBox="0.00 0.00 140.25 196.00" xmlns="http://www.w3.org/2000/svg" xmlns:xlink="http://www.w3.org/1999/xlink">
<g id="graph0" class="graph" transform="scale(1 1) rotate(0) translate(4 192)">
<title>DuffelBagSmall_Camo</title>
<!-- Node1 -->
<g id="Node000001" class="node">
<title>Node1</title>
<g id="a_Node000001"><a xlink:title=" ">
<polygon fill="#999999" stroke="#666666" points="122.5,-20 9.75,-20 9.75,0 122.5,0 122.5,-20"/>
<text text-anchor="middle" x="66.12" y="-6.5" font-family="Helvetica,sans-Serif" font-size="10.00">DuffelBagSmall_Camo</text>
</a>
</g>
</g>
<!-- Node2 -->
<g id="Node000002" class="node">
<title>Node2</title>
<g id="a_Node000002"><a xlink:href="../../d5/d07/class_duffel_bag_small___color_base.html" target="_top" xlink:title=" ">
<polygon fill="white" stroke="#666666" points="132.25,-76 0,-76 0,-56 132.25,-56 132.25,-76"/>
<text text-anchor="middle" x="66.12" y="-62.5" font-family="Helvetica,sans-Serif" font-size="10.00">DuffelBagSmall_ColorBase</text>
</a>
</g>
</g>
<!-- Node2&#45;&gt;Node1 -->
<g id="edge1_Node000001_Node000002" class="edge">
<title>Node2&#45;&gt;Node1</title>
<g id="a_edge1_Node000001_Node000002"><a xlink:title=" ">
<path fill="none" stroke="#8b1a1a" d="M66.12,-44.13C66.12,-35.9 66.12,-26.85 66.12,-20.3"/>
<polygon fill="#8b1a1a" stroke="#8b1a1a" points="62.63,-44.08 66.13,-54.08 69.63,-44.08 62.63,-44.08"/>
</a>
</g>
</g>
<!-- Node3 -->
<g id="Node000003" class="node">
<title>Node3</title>
<g id="a_Node000003"><a xlink:href="../../db/d01/class_backpack___base.html" target="_top" xlink:title=" ">
<polygon fill="white" stroke="#666666" points="109.75,-132 22.5,-132 22.5,-112 109.75,-112 109.75,-132"/>
<text text-anchor="middle" x="66.12" y="-118.5" font-family="Helvetica,sans-Serif" font-size="10.00">Backpack_Base</text>
</a>
</g>
</g>
<!-- Node3&#45;&gt;Node2 -->
<g id="edge2_Node000002_Node000003" class="edge">
<title>Node3&#45;&gt;Node2</title>
<g id="a_edge2_Node000002_Node000003"><a xlink:title=" ">
<path fill="none" stroke="#8b1a1a" d="M66.12,-100.13C66.12,-91.9 66.12,-82.85 66.12,-76.3"/>
<polygon fill="#8b1a1a" stroke="#8b1a1a" points="62.63,-100.08 66.13,-110.08 69.63,-100.08 62.63,-100.08"/>
</a>
</g>
</g>
<!-- Node4 -->
<g id="Node000004" class="node">
<title>Node4</title>
<g id="a_Node000004"><a xlink:href="../../d8/d04/class_clothing.html" target="_top" xlink:title=" ">
<polygon fill="white" stroke="#666666" points="91.75,-188 40.5,-188 40.5,-168 91.75,-168 91.75,-188"/>
<text text-anchor="middle" x="66.12" y="-174.5" font-family="Helvetica,sans-Serif" font-size="10.00">Clothing</text>
</a>
</g>
</g>
<!-- Node4&#45;&gt;Node3 -->
<g id="edge3_Node000003_Node000004" class="edge">
<title>Node4&#45;&gt;Node3</title>
<g id="a_edge3_Node000003_Node000004"><a xlink:title=" ">
<path fill="none" stroke="#8b1a1a" d="M66.12,-156.13C66.12,-147.9 66.12,-138.85 66.12,-132.3"/>
<polygon fill="#8b1a1a" stroke="#8b1a1a" points="62.63,-156.08 66.13,-166.08 69.63,-156.08 62.63,-156.08"/>
</a>
</g>
</g>
</g>
</svg>
