<?xml version="1.0" encoding="UTF-8" standalone="no"?>
<!DOCTYPE svg PUBLIC "-//W3C//DTD SVG 1.1//EN"
 "http://www.w3.org/Graphics/SVG/1.1/DTD/svg11.dtd">
<!-- Generated by graphviz version 11.0.0 (20240428.1522)
 -->
<!-- Title: LoginScreenBase Pages: 1 -->
<svg width="273pt" height="108pt"
 viewBox="0.00 0.00 273.00 108.00" xmlns="http://www.w3.org/2000/svg" xmlns:xlink="http://www.w3.org/1999/xlink">
<g id="graph0" class="graph" transform="scale(1 1) rotate(0) translate(4 104)">
<title>LoginScreenBase</title>
<!-- Node1 -->
<g id="Node000001" class="node">
<title>Node1</title>
<g id="a_Node000001"><a xlink:title=" ">
<polygon fill="#999999" stroke="#666666" points="179,-20 86.5,-20 86.5,0 179,0 179,-20"/>
<text text-anchor="middle" x="132.75" y="-6.5" font-family="Helvetica,sans-Serif" font-size="10.00">LoginScreenBase</text>
</a>
</g>
</g>
<!-- Node2 -->
<g id="Node000002" class="node">
<title>Node2</title>
<g id="a_Node000002"><a xlink:href="../../da/d0c/class_text_widget.html" target="_top" xlink:title=" ">
<polygon fill="white" stroke="#666666" points="65.5,-100 0,-100 0,-80 65.5,-80 65.5,-100"/>
<text text-anchor="middle" x="32.75" y="-86.5" font-family="Helvetica,sans-Serif" font-size="10.00">TextWidget</text>
</a>
</g>
</g>
<!-- Node2&#45;&gt;Node1 -->
<g id="edge1_Node000001_Node000002" class="edge">
<title>Node2&#45;&gt;Node1</title>
<g id="a_edge1_Node000001_Node000002"><a xlink:title=" ">
<path fill="none" stroke="#9a32cd" stroke-dasharray="5,2" d="M36.22,-68.7C38.96,-58.28 43.79,-46.11 52.25,-38 61.61,-29.02 74.05,-23.02 86.34,-19.02"/>
<polygon fill="#9a32cd" stroke="#9a32cd" points="32.83,-67.79 34.18,-78.3 39.68,-69.24 32.83,-67.79"/>
</a>
</g>
<text text-anchor="middle" x="91" y="-52.5" font-family="Helvetica,sans-Serif" font-size="10.00" fill="grey"> m_txtDescription</text>
<text text-anchor="middle" x="91" y="-40.5" font-family="Helvetica,sans-Serif" font-size="10.00" fill="grey">m_txtLabel</text>
</g>
<!-- Node3 -->
<g id="Node000003" class="node">
<title>Node3</title>
<g id="a_Node000003"><a xlink:href="../../d9/d09/classbool.html" target="_top" xlink:title=" ">
<polygon fill="white" stroke="#666666" points="149.75,-100 115.75,-100 115.75,-80 149.75,-80 149.75,-100"/>
<text text-anchor="middle" x="132.75" y="-86.5" font-family="Helvetica,sans-Serif" font-size="10.00">bool</text>
</a>
</g>
</g>
<!-- Node3&#45;&gt;Node1 -->
<g id="edge2_Node000001_Node000003" class="edge">
<title>Node3&#45;&gt;Node1</title>
<g id="a_edge2_Node000001_Node000003"><a xlink:title=" ">
<path fill="none" stroke="#9a32cd" stroke-dasharray="5,2" d="M132.75,-68.59C132.75,-52.94 132.75,-32.08 132.75,-20.24"/>
<polygon fill="#9a32cd" stroke="#9a32cd" points="129.25,-68.23 132.75,-78.23 136.25,-68.23 129.25,-68.23"/>
</a>
</g>
<text text-anchor="middle" x="164.62" y="-46.5" font-family="Helvetica,sans-Serif" font-size="10.00" fill="grey"> m_IsRespawn</text>
</g>
<!-- Node4 -->
<g id="Node000004" class="node">
<title>Node4</title>
<g id="a_Node000004"><a xlink:href="../../dd/d06/class_full_time_data.html" target="_top" xlink:title="struct that keeps Time relevant information for future formatting">
<polygon fill="white" stroke="#666666" points="256.25,-100 183.25,-100 183.25,-80 256.25,-80 256.25,-100"/>
<text text-anchor="middle" x="219.75" y="-86.5" font-family="Helvetica,sans-Serif" font-size="10.00">FullTimeData</text>
</a>
</g>
</g>
<!-- Node4&#45;&gt;Node1 -->
<g id="edge3_Node000001_Node000004" class="edge">
<title>Node4&#45;&gt;Node1</title>
<g id="a_edge3_Node000001_Node000004"><a xlink:title=" ">
<path fill="none" stroke="#9a32cd" stroke-dasharray="5,2" d="M214.99,-68.91C211.66,-58.55 206.24,-46.37 197.75,-38 189.83,-30.19 179.33,-24.52 169.08,-20.46"/>
<polygon fill="#9a32cd" stroke="#9a32cd" points="211.59,-69.72 217.61,-78.43 218.34,-67.86 211.59,-69.72"/>
</a>
</g>
<text text-anchor="middle" x="238.38" y="-46.5" font-family="Helvetica,sans-Serif" font-size="10.00" fill="grey"> m_FullTime</text>
</g>
</g>
</svg>
