<?xml version="1.0" encoding="UTF-8" standalone="no"?>
<!DOCTYPE svg PUBLIC "-//W3C//DTD SVG 1.1//EN"
 "http://www.w3.org/Graphics/SVG/1.1/DTD/svg11.dtd">
<!-- Generated by graphviz version 11.0.0 (20240428.1522)
 -->
<!-- Title: SimpleMovingAverage&lt; Class T &gt; Pages: 1 -->
<!--zoomable 490 -->

<svg id="main" version="1.1" xmlns="http://www.w3.org/2000/svg" xmlns:xlink="http://www.w3.org/1999/xlink" xml:space="preserve" onload="init(evt)">
<style type="text/css"><![CDATA[
.node, .edge {opacity: 0.7;}
.node.selected, .edge.selected {opacity: 1;}
.edge:hover path { stroke: red; }
.edge:hover polygon { stroke: red; fill: red; }
]]></style>

<defs>
  <circle id="rim" cx="0" cy="0" r="7"/>
  <circle id="rim2" cx="0" cy="0" r="3.5"/>
  <g id="zoomPlus">
    <use xlink:href="#rim" fill="#404040"><set attributeName="fill" to="#808080" begin="zoomplus.mouseover" end="zoomplus.mouseout"/></use>
    <path d="M-4,0h8M0,-4v8" fill="none" stroke="white" stroke-width="1.5" pointer-events="none"/>
  </g>
  <g id="zoomMin">
    <use xlink:href="#rim" fill="#404040"><set attributeName="fill" to="#808080" begin="zoomminus.mouseover" end="zoomminus.mouseout"/></use>
    <path d="M-4,0h8" fill="none" stroke="white" stroke-width="1.5" pointer-events="none"/>
  </g>
  <g id="arrowUp" transform="translate(30 24)">
    <use xlink:href="#rim"/>
    <path pointer-events="none" fill="none" stroke="white" stroke-width="1.5" d="M0,-3.0v7 M-2.5,-0.5L0,-3.0L2.5,-0.5"/>
  </g>
  <g id="arrowRight" transform="rotate(90) translate(36 -43)">
    <use xlink:href="#rim"/>
    <path pointer-events="none" fill="none" stroke="white" stroke-width="1.5" d="M0,-3.0v7 M-2.5,-0.5L0,-3.0L2.5,-0.5"/>
  </g>
  <g id="arrowDown" transform="rotate(180) translate(-30 -48)">
    <use xlink:href="#rim"/>
    <path pointer-events="none" fill="none" stroke="white" stroke-width="1.5" d="M0,-3.0v7 M-2.5,-0.5L0,-3.0L2.5,-0.5"/>
  </g>
  <g id="arrowLeft" transform="rotate(270) translate(-36 17)">
    <use xlink:href="#rim"/>
    <path pointer-events="none" fill="none" stroke="white" stroke-width="1.5" d="M0,-3.0v7 M-2.5,-0.5L0,-3.0L2.5,-0.5"/>
  </g>
  <g id="resetDef">
    <use xlink:href="#rim2" fill="#404040"><set attributeName="fill" to="#808080" begin="reset.mouseover" end="reset.mouseout"/></use>
  </g>
</defs>
<script type="application/ecmascript">
var viewWidth = 1039;
var viewHeight = 490;
var sectionId = 'dynsection-0';
</script>
<script type="application/ecmascript" xlink:href="../../svg.min.js"/>
<svg id="graph" class="graph">
<g id="viewport">
<title>SimpleMovingAverage&lt; Class T &gt;</title>
<!-- Node1 -->
<g id="Node000001" class="node">
<title>Node1</title>
<g id="a_Node000001"><a xlink:title=" ">
<polygon fill="#999999" stroke="#666666" points="808.27,-32 697.77,-32 697.77,0 808.27,0 808.27,-32"/>
<text text-anchor="start" x="705.77" y="-18.5" font-family="Helvetica,sans-Serif" font-size="10.00">SimpleMovingAverage</text>
<text text-anchor="middle" x="753.02" y="-6.5" font-family="Helvetica,sans-Serif" font-size="10.00">&lt; Class T &gt;</text>
</a>
</g>
</g>
<!-- Node2 -->
<g id="Node000002" class="node">
<title>Node2</title>
<g id="a_Node000002"><a xlink:href="../../db/d06/class_param3.html" target="_top" xlink:title=" ">
<polygon fill="white" stroke="#666666" points="805.89,-480 756.14,-480 756.14,-460 805.89,-460 805.89,-480"/>
<text text-anchor="middle" x="781.02" y="-466.5" font-family="Helvetica,sans-Serif" font-size="10.00">Param3</text>
</a>
</g>
</g>
<!-- Node2&#45;&gt;Node1 -->
<g id="edge1_Node000001_Node000002" class="edge">
<title>Node2&#45;&gt;Node1</title>
<g id="a_edge1_Node000001_Node000002"><a xlink:title=" ">
<path fill="none" stroke="#9a32cd" stroke-dasharray="5,2" d="M817.28,-459.78C875.66,-442.5 984.02,-399.35 984.02,-317 984.02,-317 984.02,-317 984.02,-89 984.02,-52.4 876.99,-32.27 808.64,-23.14"/>
<polygon fill="#9a32cd" stroke="#9a32cd" points="816.44,-456.38 807.77,-462.48 818.35,-463.11 816.44,-456.38"/>
</a>
</g>
<text text-anchor="middle" x="1007.64" y="-162.5" font-family="Helvetica,sans-Serif" font-size="10.00" fill="grey"> m_Pointer</text>
<text text-anchor="middle" x="1007.64" y="-150.5" font-family="Helvetica,sans-Serif" font-size="10.00" fill="grey">m_Size</text>
</g>
<!-- Node3 -->
<g id="Node000003" class="node">
<title>Node3</title>
<g id="a_Node000003"><a xlink:href="../../d2/d01/classarray.html" target="_top" xlink:title=" ">
<polygon fill="white" stroke="#666666" points="576.52,-100 515.52,-100 515.52,-80 576.52,-80 576.52,-100"/>
<text text-anchor="middle" x="546.02" y="-86.5" font-family="Helvetica,sans-Serif" font-size="10.00">array&lt; T &gt;</text>
</a>
</g>
</g>
<!-- Node2&#45;&gt;Node3 -->
<g id="edge4_Node000003_Node000002" class="edge">
<title>Node2&#45;&gt;Node3</title>
<g id="a_edge4_Node000003_Node000002"><a xlink:title=" ">
<path fill="none" stroke="#9a32cd" stroke-dasharray="5,2" d="M795.52,-450.58C820.93,-415.91 868.14,-339.13 839.02,-280 786.21,-172.75 640.49,-118.49 576.65,-99.3"/>
<polygon fill="#9a32cd" stroke="#9a32cd" points="792.88,-448.26 789.64,-458.35 798.47,-452.49 792.88,-448.26"/>
</a>
</g>
<text text-anchor="middle" x="886.14" y="-252.5" font-family="Helvetica,sans-Serif" font-size="10.00" fill="grey"> NO_SORTING</text>
<text text-anchor="middle" x="886.14" y="-240.5" font-family="Helvetica,sans-Serif" font-size="10.00" fill="grey">geomLevel</text>
<text text-anchor="middle" x="886.14" y="-228.5" font-family="Helvetica,sans-Serif" font-size="10.00" fill="grey">hierLevel</text>
<text text-anchor="start" x="828.02" y="-216.5" font-family="Helvetica,sans-Serif" font-size="10.00" fill="grey">m_CurrentSettingAlternate</text>
<text text-anchor="middle" x="886.14" y="-204.5" font-family="Helvetica,sans-Serif" font-size="10.00" fill="grey">KeyIndex</text>
<text text-anchor="middle" x="886.14" y="-192.5" font-family="Helvetica,sans-Serif" font-size="10.00" fill="grey">m_CurrentSettingKeyIndex</text>
</g>
<!-- Node5 -->
<g id="Node000005" class="node">
<title>Node5</title>
<g id="a_Node000005"><a xlink:href="../../d2/d01/classarray.html" target="_top" xlink:title="Result for an object found in CGame.IsBoxCollidingGeometryProxy.">
<polygon fill="white" stroke="#666666" points="369.89,-326 332.14,-326 332.14,-306 369.89,-306 369.89,-326"/>
<text text-anchor="middle" x="351.02" y="-312.5" font-family="Helvetica,sans-Serif" font-size="10.00">array</text>
</a>
</g>
</g>
<!-- Node2&#45;&gt;Node5 -->
<g id="edge7_Node000005_Node000002" class="edge">
<title>Node2&#45;&gt;Node5</title>
<g id="a_edge7_Node000005_Node000002"><a xlink:title=" ">
<path fill="none" stroke="#9a32cd" stroke-dasharray="5,2" d="M744.39,-468.14C703.18,-466.26 634.67,-460.36 578.77,-442 556.11,-434.56 415.44,-354.09 367.22,-326.34"/>
<polygon fill="#9a32cd" stroke="#9a32cd" points="744.12,-471.63 754.25,-468.53 744.4,-464.64 744.12,-471.63"/>
</a>
</g>
<text text-anchor="middle" x="636.14" y="-432.5" font-family="Helvetica,sans-Serif" font-size="10.00" fill="grey"> NO_SORTING</text>
<text text-anchor="middle" x="636.14" y="-420.5" font-family="Helvetica,sans-Serif" font-size="10.00" fill="grey">geomLevel</text>
<text text-anchor="middle" x="636.14" y="-408.5" font-family="Helvetica,sans-Serif" font-size="10.00" fill="grey">hierLevel</text>
<text text-anchor="start" x="578.02" y="-396.5" font-family="Helvetica,sans-Serif" font-size="10.00" fill="grey">m_CurrentSettingAlternate</text>
<text text-anchor="middle" x="636.14" y="-384.5" font-family="Helvetica,sans-Serif" font-size="10.00" fill="grey">KeyIndex</text>
<text text-anchor="middle" x="636.14" y="-372.5" font-family="Helvetica,sans-Serif" font-size="10.00" fill="grey">m_CurrentSettingKeyIndex</text>
</g>
<!-- Node9 -->
<g id="Node000009" class="node">
<title>Node9</title>
<g id="a_Node000009"><a xlink:href="../../d2/d01/classarray.html" target="_top" xlink:title=" ">
<polygon fill="white" stroke="#666666" points="375.27,-170 288.77,-170 288.77,-150 375.27,-150 375.27,-170"/>
<text text-anchor="middle" x="332.02" y="-156.5" font-family="Helvetica,sans-Serif" font-size="10.00">array&lt; Widget &gt;</text>
</a>
</g>
</g>
<!-- Node2&#45;&gt;Node9 -->
<g id="edge15_Node000009_Node000002" class="edge">
<title>Node2&#45;&gt;Node9</title>
<g id="a_edge15_Node000009_Node000002"><a xlink:title=" ">
<path fill="none" stroke="#9a32cd" stroke-dasharray="5,2" d="M769.4,-450.05C756.1,-427.5 734.64,-388.33 722.77,-352 700.08,-282.56 748.94,-239.28 695.02,-190 689.18,-184.67 470.91,-169.97 375.69,-163.79"/>
<polygon fill="#9a32cd" stroke="#9a32cd" points="766.27,-451.63 774.42,-458.4 772.27,-448.03 766.27,-451.63"/>
</a>
</g>
<text text-anchor="middle" x="780.14" y="-342.5" font-family="Helvetica,sans-Serif" font-size="10.00" fill="grey"> NO_SORTING</text>
<text text-anchor="middle" x="780.14" y="-330.5" font-family="Helvetica,sans-Serif" font-size="10.00" fill="grey">geomLevel</text>
<text text-anchor="middle" x="780.14" y="-318.5" font-family="Helvetica,sans-Serif" font-size="10.00" fill="grey">hierLevel</text>
<text text-anchor="start" x="722.02" y="-306.5" font-family="Helvetica,sans-Serif" font-size="10.00" fill="grey">m_CurrentSettingAlternate</text>
<text text-anchor="middle" x="780.14" y="-294.5" font-family="Helvetica,sans-Serif" font-size="10.00" fill="grey">KeyIndex</text>
<text text-anchor="middle" x="780.14" y="-282.5" font-family="Helvetica,sans-Serif" font-size="10.00" fill="grey">m_CurrentSettingKeyIndex</text>
</g>
<!-- Node3&#45;&gt;Node1 -->
<g id="edge2_Node000001_Node000003" class="edge">
<title>Node3&#45;&gt;Node1</title>
<g id="a_edge2_Node000001_Node000003"><a xlink:title=" ">
<path fill="none" stroke="#9a32cd" stroke-dasharray="5,2" d="M583.85,-75.84C619.01,-63.61 671.39,-45.39 708.54,-32.47"/>
<polygon fill="#9a32cd" stroke="#9a32cd" points="582.8,-72.5 574.51,-79.09 585.1,-79.11 582.8,-72.5"/>
</a>
</g>
<text text-anchor="middle" x="682.39" y="-52.5" font-family="Helvetica,sans-Serif" font-size="10.00" fill="grey"> m_Samples</text>
</g>
<!-- Node4 -->
<g id="Node000004" class="node">
<title>Node4</title>
<g id="a_Node000004"><a xlink:href="../../d8/d03/class_object.html" target="_top" xlink:title=" ">
<polygon fill="white" stroke="#666666" points="356.27,-480 311.77,-480 311.77,-460 356.27,-460 356.27,-480"/>
<text text-anchor="middle" x="334.02" y="-466.5" font-family="Helvetica,sans-Serif" font-size="10.00">Object</text>
</a>
</g>
</g>
<!-- Node4&#45;&gt;Node3 -->
<g id="edge3_Node000003_Node000004" class="edge">
<title>Node4&#45;&gt;Node3</title>
<g id="a_edge3_Node000003_Node000004"><a xlink:title=" ">
<path fill="none" stroke="#9a32cd" stroke-dasharray="5,2" d="M368.04,-465.55C384.63,-463.88 404.86,-461.83 423.02,-460 442.91,-457.99 588.61,-456.82 602.02,-442 649.31,-389.71 567.56,-151.13 549.45,-100.47"/>
<polygon fill="#9a32cd" stroke="#9a32cd" points="367.8,-462.06 358.2,-466.55 368.5,-469.03 367.8,-462.06"/>
</a>
</g>
<text text-anchor="middle" x="610.52" y="-228.5" font-family="Helvetica,sans-Serif" font-size="10.00" fill="grey"> obj</text>
<text text-anchor="middle" x="610.52" y="-216.5" font-family="Helvetica,sans-Serif" font-size="10.00" fill="grey">parent</text>
</g>
<!-- Node4&#45;&gt;Node5 -->
<g id="edge6_Node000005_Node000004" class="edge">
<title>Node4&#45;&gt;Node5</title>
<g id="a_edge6_Node000005_Node000004"><a xlink:title=" ">
<path fill="none" stroke="#9a32cd" stroke-dasharray="5,2" d="M332.53,-448.19C331.49,-428.07 330.93,-396.76 335.02,-370 337.43,-354.23 343.44,-336.63 347.37,-326.2"/>
<polygon fill="#9a32cd" stroke="#9a32cd" points="329.04,-448.37 333.15,-458.14 336.02,-447.94 329.04,-448.37"/>
</a>
</g>
<text text-anchor="middle" x="348.52" y="-408.5" font-family="Helvetica,sans-Serif" font-size="10.00" fill="grey"> obj</text>
<text text-anchor="middle" x="348.52" y="-396.5" font-family="Helvetica,sans-Serif" font-size="10.00" fill="grey">parent</text>
</g>
<!-- Node4&#45;&gt;Node9 -->
<g id="edge14_Node000009_Node000004" class="edge">
<title>Node4&#45;&gt;Node9</title>
<g id="a_edge14_Node000009_Node000004"><a xlink:title=" ">
<path fill="none" stroke="#9a32cd" stroke-dasharray="5,2" d="M325.44,-449.14C316.05,-426.24 301.59,-387.21 296.02,-352 284.72,-280.66 280.43,-256.33 309.02,-190 312.17,-182.68 317.67,-175.65 322.49,-170.34"/>
<polygon fill="#9a32cd" stroke="#9a32cd" points="322.12,-450.29 329.23,-458.15 328.58,-447.57 322.12,-450.29"/>
</a>
</g>
<text text-anchor="middle" x="309.52" y="-318.5" font-family="Helvetica,sans-Serif" font-size="10.00" fill="grey"> obj</text>
<text text-anchor="middle" x="309.52" y="-306.5" font-family="Helvetica,sans-Serif" font-size="10.00" fill="grey">parent</text>
</g>
<!-- Node5&#45;&gt;Node3 -->
<g id="edge5_Node000003_Node000005" class="edge">
<title>Node5&#45;&gt;Node3</title>
<g id="a_edge5_Node000003_Node000005"><a xlink:title=" ">
<path fill="none" stroke="#9a32cd" stroke-dasharray="5,2" d="M380.42,-301.73C398.75,-292.44 422.01,-278.72 439.02,-262 491.71,-210.2 530.23,-127.62 542.15,-100.19"/>
<polygon fill="#9a32cd" stroke="#9a32cd" points="379.09,-298.48 371.64,-306.01 382.16,-304.77 379.09,-298.48"/>
</a>
</g>
<text text-anchor="middle" x="539.02" y="-156.5" font-family="Helvetica,sans-Serif" font-size="10.00" fill="grey"> proxyInfo</text>
</g>
<!-- Node5&#45;&gt;Node5 -->
<g id="edge8_Node000005_Node000005" class="edge">
<title>Node5&#45;&gt;Node5</title>
<g id="a_edge8_Node000005_Node000005"><a xlink:title=" ">
<path fill="none" stroke="#9a32cd" stroke-dasharray="5,2" d="M368.85,-332.07C378.76,-335.07 387.89,-329.71 387.89,-316 387.89,-297.72 371.66,-294.29 358.99,-305.72"/>
<polygon fill="#9a32cd" stroke="#9a32cd" points="370.69,-329.09 360.29,-327.05 367.15,-335.13 370.69,-329.09"/>
</a>
</g>
<text text-anchor="middle" x="408.89" y="-312.5" font-family="Helvetica,sans-Serif" font-size="10.00" fill="grey"> proxyInfo</text>
</g>
<!-- Node5&#45;&gt;Node9 -->
<g id="edge16_Node000009_Node000005" class="edge">
<title>Node5&#45;&gt;Node9</title>
<g id="a_edge16_Node000009_Node000005"><a xlink:title=" ">
<path fill="none" stroke="#9a32cd" stroke-dasharray="5,2" d="M336.49,-296.6C329.75,-286.9 322.48,-274.45 319.02,-262 310.43,-231.17 312.32,-221.29 319.02,-190 320.49,-183.09 323.74,-175.84 326.63,-170.32"/>
<polygon fill="#9a32cd" stroke="#9a32cd" points="333.48,-298.41 342.23,-304.38 339.11,-294.25 333.48,-298.41"/>
</a>
</g>
<text text-anchor="middle" x="340.02" y="-222.5" font-family="Helvetica,sans-Serif" font-size="10.00" fill="grey"> proxyInfo</text>
</g>
<!-- Node6 -->
<g id="Node000006" class="node">
<title>Node6</title>
<g id="a_Node000006"><a xlink:href="../../d4/d04/class_class.html" target="_top" xlink:title="Super root of all classes in Enforce script.">
<polygon fill="white" stroke="#666666" points="472.39,-480 431.64,-480 431.64,-460 472.39,-460 472.39,-480"/>
<text text-anchor="middle" x="452.02" y="-466.5" font-family="Helvetica,sans-Serif" font-size="10.00">Class</text>
</a>
</g>
</g>
<!-- Node6&#45;&gt;Node3 -->
<g id="edge21_Node000003_Node000006" class="edge">
<title>Node6&#45;&gt;Node3</title>
<g id="a_edge21_Node000003_Node000006"><a xlink:title=" ">
<path fill="none" stroke="#9a32cd" stroke-dasharray="5,2" d="M484.08,-468.83C529.47,-467.84 608.97,-463.05 627.02,-442 720.97,-332.44 694.29,-231.41 605.02,-118 597.98,-109.06 587.31,-102.97 576.97,-98.88"/>
<polygon fill="#9a32cd" stroke="#9a32cd" points="484.25,-465.33 474.31,-468.99 484.37,-472.33 484.25,-465.33"/>
</a>
</g>
<text text-anchor="middle" x="707.64" y="-222.5" font-family="Helvetica,sans-Serif" font-size="10.00" fill="grey"> m_Instance</text>
</g>
<!-- Node6&#45;&gt;Node5 -->
<g id="edge9_Node000005_Node000006" class="edge">
<title>Node6&#45;&gt;Node5</title>
<g id="a_edge9_Node000005_Node000006"><a xlink:title=" ">
<path fill="none" stroke="#9a32cd" stroke-dasharray="5,2" d="M420.52,-462.83C407.82,-458.86 394.01,-452.4 384.77,-442 376.89,-433.14 359.07,-353.97 353.05,-326.41"/>
<polygon fill="#9a32cd" stroke="#9a32cd" points="419.23,-466.11 429.8,-465.33 421.05,-459.35 419.23,-466.11"/>
</a>
</g>
<text text-anchor="middle" x="410.64" y="-402.5" font-family="Helvetica,sans-Serif" font-size="10.00" fill="grey"> m_Instance</text>
</g>
<!-- Node6&#45;&gt;Node9 -->
<g id="edge17_Node000009_Node000006" class="edge">
<title>Node6&#45;&gt;Node9</title>
<g id="a_edge17_Node000009_Node000006"><a xlink:title=" ">
<path fill="none" stroke="#9a32cd" stroke-dasharray="5,2" d="M454.06,-448.39C459.31,-390.75 470.76,-229.55 439.02,-190 430.89,-179.87 401.57,-172.36 375.68,-167.52"/>
<polygon fill="#9a32cd" stroke="#9a32cd" points="450.6,-447.8 453.14,-458.08 457.57,-448.46 450.6,-447.8"/>
</a>
</g>
<text text-anchor="middle" x="486.64" y="-312.5" font-family="Helvetica,sans-Serif" font-size="10.00" fill="grey"> m_Instance</text>
</g>
<!-- Node7 -->
<g id="Node000007" class="node">
<title>Node7</title>
<g id="a_Node000007"><a xlink:href="../../d5/d02/classstring.html" target="_top" xlink:title=" ">
<polygon fill="white" stroke="#666666" points="79.02,-480 39.02,-480 39.02,-460 79.02,-460 79.02,-480"/>
<text text-anchor="middle" x="59.02" y="-466.5" font-family="Helvetica,sans-Serif" font-size="10.00">string</text>
</a>
</g>
</g>
<!-- Node7&#45;&gt;Node3 -->
<g id="edge22_Node000003_Node000007" class="edge">
<title>Node7&#45;&gt;Node3</title>
<g id="a_edge22_Node000003_Node000007"><a xlink:title=" ">
<path fill="none" stroke="#9a32cd" stroke-dasharray="5,2" d="M48.51,-449.61C23.41,-400.39 -33.51,-268.94 27.77,-190 88.15,-112.21 412.65,-95.26 515.04,-91.82"/>
<polygon fill="#9a32cd" stroke="#9a32cd" points="45.27,-450.98 53.02,-458.21 51.47,-447.73 45.27,-450.98"/>
</a>
</g>
<text text-anchor="middle" x="45.64" y="-222.5" font-family="Helvetica,sans-Serif" font-size="10.00" fill="grey"> m_Test</text>
</g>
<!-- Node7&#45;&gt;Node5 -->
<g id="edge10_Node000005_Node000007" class="edge">
<title>Node7&#45;&gt;Node5</title>
<g id="a_edge10_Node000005_Node000007"><a xlink:title=" ">
<path fill="none" stroke="#9a32cd" stroke-dasharray="5,2" d="M75.59,-451.53C98.46,-428.62 142.07,-389.13 187.77,-370 241.67,-347.44 266.08,-378.78 318.02,-352 329.45,-346.11 339.07,-334.64 344.92,-326.43"/>
<polygon fill="#9a32cd" stroke="#9a32cd" points="73.17,-449 68.68,-458.6 78.17,-453.89 73.17,-449"/>
</a>
</g>
<text text-anchor="middle" x="204.64" y="-402.5" font-family="Helvetica,sans-Serif" font-size="10.00" fill="grey"> m_Test</text>
</g>
<!-- Node7&#45;&gt;Node7 -->
<g id="edge11_Node000007_Node000007" class="edge">
<title>Node7&#45;&gt;Node7</title>
<g id="a_edge11_Node000007_Node000007"><a xlink:title=" ">
<path fill="none" stroke="#9a32cd" stroke-dasharray="5,2" d="M84.79,-481.91C91.73,-481.28 97.02,-477.31 97.02,-470 97.02,-459.12 85.31,-455.64 73.84,-459.55"/>
<polygon fill="#9a32cd" stroke="#9a32cd" points="85.71,-478.5 75.34,-480.65 84.79,-485.44 85.71,-478.5"/>
</a>
</g>
<text text-anchor="middle" x="112.77" y="-466.5" font-family="Helvetica,sans-Serif" font-size="10.00" fill="grey"> Empty</text>
</g>
<!-- Node7&#45;&gt;Node9 -->
<g id="edge18_Node000009_Node000007" class="edge">
<title>Node7&#45;&gt;Node9</title>
<g id="a_edge18_Node000009_Node000007"><a xlink:title=" ">
<path fill="none" stroke="#9a32cd" stroke-dasharray="5,2" d="M55.62,-448.2C48.42,-396.13 37.82,-259.36 111.02,-190 135.81,-166.51 231.46,-161.63 288.49,-160.86"/>
<polygon fill="#9a32cd" stroke="#9a32cd" points="52.15,-448.66 57.1,-458.03 59.07,-447.62 52.15,-448.66"/>
</a>
</g>
<text text-anchor="middle" x="78.64" y="-312.5" font-family="Helvetica,sans-Serif" font-size="10.00" fill="grey"> m_Test</text>
</g>
<!-- Node8 -->
<g id="Node000008" class="node">
<title>Node8</title>
<g id="a_Node000008"><a xlink:href="../../dd/d0a/class_widget.html" target="_top" xlink:title=" ">
<polygon fill="white" stroke="#666666" points="193.39,-480 146.64,-480 146.64,-460 193.39,-460 193.39,-480"/>
<text text-anchor="middle" x="170.02" y="-466.5" font-family="Helvetica,sans-Serif" font-size="10.00">Widget</text>
</a>
</g>
</g>
<!-- Node8&#45;&gt;Node3 -->
<g id="edge23_Node000003_Node000008" class="edge">
<title>Node8&#45;&gt;Node3</title>
<g id="a_edge23_Node000003_Node000008"><a xlink:title=" ">
<path fill="none" stroke="#9a32cd" stroke-dasharray="5,2" d="M162.54,-448.91C161.92,-446.6 161.39,-444.27 161.02,-442 155.89,-410.41 159.49,-401.96 161.02,-370 164.86,-289.73 130.44,-254.58 178.27,-190 218.99,-135.01 434.3,-104.22 515.23,-94.45"/>
<polygon fill="#9a32cd" stroke="#9a32cd" points="159.17,-449.85 165.62,-458.25 165.81,-447.66 159.17,-449.85"/>
</a>
</g>
<text text-anchor="middle" x="196.39" y="-222.5" font-family="Helvetica,sans-Serif" font-size="10.00" fill="grey"> m_Root</text>
</g>
<!-- Node8&#45;&gt;Node5 -->
<g id="edge12_Node000005_Node000008" class="edge">
<title>Node8&#45;&gt;Node5</title>
<g id="a_edge12_Node000005_Node000008"><a xlink:title=" ">
<path fill="none" stroke="#9a32cd" stroke-dasharray="5,2" d="M204.16,-455.61C212.03,-451.78 220.11,-447.21 227.02,-442 261.02,-416.35 258.04,-397.85 290.27,-370 301.39,-360.39 306.73,-361.42 318.02,-352 327.51,-344.08 337.06,-333.62 343.42,-326.21"/>
<polygon fill="#9a32cd" stroke="#9a32cd" points="202.74,-452.41 195.07,-459.73 205.63,-458.78 202.74,-452.41"/>
</a>
</g>
<text text-anchor="middle" x="308.39" y="-402.5" font-family="Helvetica,sans-Serif" font-size="10.00" fill="grey"> m_Root</text>
</g>
<!-- Node8&#45;&gt;Node9 -->
<g id="edge19_Node000009_Node000008" class="edge">
<title>Node8&#45;&gt;Node9</title>
<g id="a_edge19_Node000009_Node000008"><a xlink:title=" ">
<path fill="none" stroke="#9a32cd" stroke-dasharray="5,2" d="M167.32,-448.45C165.36,-428.08 164.24,-396.22 172.02,-370 198.82,-279.67 216.96,-256.19 284.02,-190 292.06,-182.07 302.66,-175.37 311.86,-170.42"/>
<polygon fill="#9a32cd" stroke="#9a32cd" points="163.82,-448.7 168.44,-458.24 170.78,-447.91 163.82,-448.7"/>
</a>
</g>
<text text-anchor="middle" x="224.39" y="-312.5" font-family="Helvetica,sans-Serif" font-size="10.00" fill="grey"> m_Root</text>
</g>
<!-- Node9&#45;&gt;Node3 -->
<g id="edge24_Node000003_Node000009" class="edge">
<title>Node9&#45;&gt;Node3</title>
<g id="a_edge24_Node000003_Node000009"><a xlink:title=" ">
<path fill="none" stroke="#9a32cd" stroke-dasharray="5,2" d="M363.15,-145.11C383.13,-136.54 409.78,-125.75 434.02,-118 461.07,-109.35 492.57,-101.99 515.26,-97.15"/>
<polygon fill="#9a32cd" stroke="#9a32cd" points="361.95,-141.81 354.18,-149.01 364.74,-148.24 361.95,-141.81"/>
</a>
</g>
<text text-anchor="middle" x="465.52" y="-120.5" font-family="Helvetica,sans-Serif" font-size="10.00" fill="grey"> m_Subgroups</text>
</g>
<!-- Node9&#45;&gt;Node5 -->
<g id="edge13_Node000005_Node000009" class="edge">
<title>Node9&#45;&gt;Node5</title>
<g id="a_edge13_Node000005_Node000009"><a xlink:title=" ">
<path fill="none" stroke="#9a32cd" stroke-dasharray="5,2" d="M356.26,-177.76C359.82,-181.36 362.97,-185.47 365.02,-190 383.11,-229.99 364.16,-284.24 355.18,-305.71"/>
<polygon fill="#9a32cd" stroke="#9a32cd" points="358.58,-175.13 348.71,-171.29 354.03,-180.45 358.58,-175.13"/>
</a>
</g>
<text text-anchor="middle" x="403.52" y="-222.5" font-family="Helvetica,sans-Serif" font-size="10.00" fill="grey"> m_Subgroups</text>
</g>
<!-- Node9&#45;&gt;Node9 -->
<g id="edge20_Node000009_Node000009" class="edge">
<title>Node9&#45;&gt;Node9</title>
<g id="a_edge20_Node000009_Node000009"><a xlink:title=" ">
<path fill="none" stroke="#9a32cd" stroke-dasharray="5,2" d="M386.65,-165.04C390.75,-163.92 393.27,-162.24 393.27,-160 393.27,-156.13 385.73,-153.93 375.51,-153.38"/>
<polygon fill="#9a32cd" stroke="#9a32cd" points="386.42,-161.54 377.01,-166.4 387.4,-168.47 386.42,-161.54"/>
</a>
</g>
<text text-anchor="middle" x="424.77" y="-156.5" font-family="Helvetica,sans-Serif" font-size="10.00" fill="grey"> m_Subgroups</text>
</g>
</g>
</svg>

<g id="navigator" transform="translate(0 0)" fill="#404254">
  <rect fill="#f2f5e9" fill-opacity="0.5" stroke="#606060" stroke-width=".5" x="0" y="0" width="60" height="60"/>
  <use id="zoomplus" xlink:href="#zoomPlus" x="17" y="9" onmousedown="handleZoom(evt,'in')"/>
  <use id="zoomminus" xlink:href="#zoomMin" x="42" y="9" onmousedown="handleZoom(evt,'out')"/>
  <use id="reset" xlink:href="#resetDef" x="30" y="36" onmousedown="handleReset()"/>
   <use id="arrowup" xlink:href="#arrowUp" x="0" y="0" onmousedown="handlePan(0,-1)"/>
  <use id="arrowright" xlink:href="#arrowRight" x="0" y="0" onmousedown="handlePan(1,0)"/>
  <use id="arrowdown" xlink:href="#arrowDown" x="0" y="0" onmousedown="handlePan(0,1)"/>
  <use id="arrowleft" xlink:href="#arrowLeft" x="0" y="0" onmousedown="handlePan(-1,0)"/>
</g>
<svg viewBox="0 0 15 15" width="100%" height="30px" preserveAspectRatio="xMaxYMin meet">
 <g id="arrow_out" transform="scale(0.3 0.3)">
  <a xlink:href="class_simple_moving_average_3_01_class_01_t_01_4__coll__graph_org.svg" target="_base">
   <rect id="button" ry="5" rx="5" y="6" x="6" height="38" width="38"
        fill="#f2f5e9" fill-opacity="0.5" stroke="#606060" stroke-width="1.0"/>
   <path id="arrow"
     d="M 11.500037,31.436501 C 11.940474,20.09759 22.043105,11.32322 32.158766,21.979434 L 37.068811,17.246167 C 37.068811,17.246167 37.088388,32 37.088388,32 L 22.160133,31.978069 C 22.160133,31.978069 26.997745,27.140456 26.997745,27.140456 C 18.528582,18.264221 13.291696,25.230495 11.500037,31.436501 z"
     style="fill:#404040;"/>
  </a>
 </g>
</svg>

<style type='text/css'>
<![CDATA[
[data-mouse-over-selected='false'] { opacity: 0.7; }
[data-mouse-over-selected='true']  { opacity: 1.0; }
]]>
</style>
<script type="application/ecmascript"><![CDATA[
document.addEventListener('DOMContentLoaded', (event) => {
  highlightEdges();
  highlightAdjacentNodes();
});
]]></script>
</svg>
