<?xml version="1.0" encoding="UTF-8" standalone="no"?>
<!DOCTYPE svg PUBLIC "-//W3C//DTD SVG 1.1//EN"
 "http://www.w3.org/Graphics/SVG/1.1/DTD/svg11.dtd">
<!-- Generated by graphviz version 11.0.0 (20240428.1522)
 -->
<!-- Title: CorpseData Pages: 1 -->
<svg width="416pt" height="284pt"
 viewBox="0.00 0.00 415.62 284.00" xmlns="http://www.w3.org/2000/svg" xmlns:xlink="http://www.w3.org/1999/xlink">
<g id="graph0" class="graph" transform="scale(1 1) rotate(0) translate(4 280)">
<title>CorpseData</title>
<!-- Node1 -->
<g id="Node000001" class="node">
<title>Node1</title>
<g id="a_Node000001"><a xlink:title=" ">
<polygon fill="#999999" stroke="#666666" points="177.38,-20 110.38,-20 110.38,0 177.38,0 177.38,-20"/>
<text text-anchor="middle" x="143.88" y="-6.5" font-family="Helvetica,sans-Serif" font-size="10.00">CorpseData</text>
</a>
</g>
</g>
<!-- Node2 -->
<g id="Node000002" class="node">
<title>Node2</title>
<g id="a_Node000002"><a xlink:href="../../db/d06/class_param3.html" target="_top" xlink:title=" ">
<polygon fill="white" stroke="#666666" points="49.75,-160 0,-160 0,-140 49.75,-140 49.75,-160"/>
<text text-anchor="middle" x="24.88" y="-146.5" font-family="Helvetica,sans-Serif" font-size="10.00">Param3</text>
</a>
</g>
</g>
<!-- Node2&#45;&gt;Node1 -->
<g id="edge1_Node000001_Node000002" class="edge">
<title>Node2&#45;&gt;Node1</title>
<g id="a_edge1_Node000001_Node000002"><a xlink:title=" ">
<path fill="none" stroke="#9a32cd" stroke-dasharray="5,2" d="M18.42,-128.94C11.96,-104.6 5.66,-63.66 26.38,-38 36.76,-25.13 79.09,-17.86 109.97,-14.18"/>
<polygon fill="#9a32cd" stroke="#9a32cd" points="14.98,-129.63 21.16,-138.24 21.7,-127.66 14.98,-129.63"/>
</a>
</g>
<text text-anchor="start" x="26.88" y="-112.5" font-family="Helvetica,sans-Serif" font-size="10.00" fill="grey"> GET_LIFETIME_TRIES</text>
<text text-anchor="middle" x="78.62" y="-100.5" font-family="Helvetica,sans-Serif" font-size="10.00" fill="grey">_MAX</text>
<text text-anchor="middle" x="78.62" y="-88.5" font-family="Helvetica,sans-Serif" font-size="10.00" fill="grey">m_iCorpseState</text>
<text text-anchor="middle" x="78.62" y="-76.5" font-family="Helvetica,sans-Serif" font-size="10.00" fill="grey">m_iLastUpdateTime</text>
<text text-anchor="middle" x="78.62" y="-64.5" font-family="Helvetica,sans-Serif" font-size="10.00" fill="grey">m_iMaxLifetime</text>
<text text-anchor="middle" x="78.62" y="-52.5" font-family="Helvetica,sans-Serif" font-size="10.00" fill="grey">m_iTimeOfDeath</text>
<text text-anchor="middle" x="78.62" y="-40.5" font-family="Helvetica,sans-Serif" font-size="10.00" fill="grey">m_iTriesToGetLifetime</text>
</g>
<!-- Node3 -->
<g id="Node000003" class="node">
<title>Node3</title>
<g id="a_Node000003"><a xlink:href="../../d9/d09/classbool.html" target="_top" xlink:title=" ">
<polygon fill="white" stroke="#666666" points="177.88,-276 143.88,-276 143.88,-256 177.88,-256 177.88,-276"/>
<text text-anchor="middle" x="160.88" y="-262.5" font-family="Helvetica,sans-Serif" font-size="10.00">bool</text>
</a>
</g>
</g>
<!-- Node3&#45;&gt;Node1 -->
<g id="edge2_Node000001_Node000003" class="edge">
<title>Node3&#45;&gt;Node1</title>
<g id="a_edge2_Node000001_Node000003"><a xlink:title=" ">
<path fill="none" stroke="#9a32cd" stroke-dasharray="5,2" d="M158.46,-244.17C158.25,-242.09 158.05,-240 157.88,-238 150.57,-153.42 145.66,-50.8 144.28,-20.09"/>
<polygon fill="#9a32cd" stroke="#9a32cd" points="154.97,-244.45 159.54,-254.01 161.93,-243.69 154.97,-244.45"/>
</a>
</g>
<text text-anchor="middle" x="179.12" y="-146.5" font-family="Helvetica,sans-Serif" font-size="10.00" fill="grey"> m_bUpdate</text>
</g>
<!-- Node4 -->
<g id="Node000004" class="node">
<title>Node4</title>
<g id="a_Node000004"><a xlink:href="../../d5/d08/class_player_base.html" target="_top" xlink:title=" ">
<polygon fill="white" stroke="#666666" points="281,-160 214.75,-160 214.75,-140 281,-140 281,-160"/>
<text text-anchor="middle" x="247.88" y="-146.5" font-family="Helvetica,sans-Serif" font-size="10.00">PlayerBase</text>
</a>
</g>
</g>
<!-- Node3&#45;&gt;Node4 -->
<g id="edge5_Node000004_Node000003" class="edge">
<title>Node3&#45;&gt;Node4</title>
<g id="a_edge5_Node000004_Node000003"><a xlink:title=" ">
<path fill="none" stroke="#9a32cd" stroke-dasharray="5,2" d="M158.47,-244.27C157.4,-224.99 158.96,-196.54 174.12,-178 184.05,-165.86 199.94,-159.18 214.44,-155.5"/>
<polygon fill="#9a32cd" stroke="#9a32cd" points="154.98,-244.5 159.33,-254.16 161.95,-243.89 154.98,-244.5"/>
</a>
</g>
<text text-anchor="start" x="174.88" y="-228.5" font-family="Helvetica,sans-Serif" font-size="10.00" fill="grey"> m_PersonalLightDisabledBy</text>
<text text-anchor="middle" x="241.25" y="-216.5" font-family="Helvetica,sans-Serif" font-size="10.00" fill="grey">Debug</text>
<text text-anchor="start" x="174.88" y="-204.5" font-family="Helvetica,sans-Serif" font-size="10.00" fill="grey">m_PersonalLightEnabledOn</text>
<text text-anchor="middle" x="241.25" y="-192.5" font-family="Helvetica,sans-Serif" font-size="10.00" fill="grey">CurrentServer</text>
<text text-anchor="middle" x="241.25" y="-180.5" font-family="Helvetica,sans-Serif" font-size="10.00" fill="grey">m_PersonalLightIsSwitchedOn</text>
</g>
<!-- Node4&#45;&gt;Node1 -->
<g id="edge3_Node000001_Node000004" class="edge">
<title>Node4&#45;&gt;Node1</title>
<g id="a_edge3_Node000001_Node000004"><a xlink:title=" ">
<path fill="none" stroke="#9a32cd" stroke-dasharray="5,2" d="M233.96,-130.54C211.41,-100.62 167.72,-42.64 150.8,-20.19"/>
<polygon fill="#9a32cd" stroke="#9a32cd" points="231,-132.43 239.82,-138.31 236.59,-128.21 231,-132.43"/>
</a>
</g>
<text text-anchor="middle" x="248" y="-76.5" font-family="Helvetica,sans-Serif" font-size="10.00" fill="grey"> m_Player</text>
</g>
<!-- Node5 -->
<g id="Node000005" class="node">
<title>Node5</title>
<g id="a_Node000005"><a xlink:href="../../dd/d03/class_scripted_light_base.html" target="_top" xlink:title=" ">
<polygon fill="white" stroke="#666666" points="380.62,-276 285.12,-276 285.12,-256 380.62,-256 380.62,-276"/>
<text text-anchor="middle" x="332.88" y="-262.5" font-family="Helvetica,sans-Serif" font-size="10.00">ScriptedLightBase</text>
</a>
</g>
</g>
<!-- Node5&#45;&gt;Node4 -->
<g id="edge4_Node000004_Node000005" class="edge">
<title>Node5&#45;&gt;Node4</title>
<g id="a_edge4_Node000004_Node000005"><a xlink:title=" ">
<path fill="none" stroke="#9a32cd" stroke-dasharray="5,2" d="M332.67,-244.28C331.42,-225.02 326.73,-196.57 310.88,-178 303.22,-169.04 292.07,-162.97 281.26,-158.9"/>
<polygon fill="#9a32cd" stroke="#9a32cd" points="329.17,-244.29 333.03,-254.16 336.16,-244.04 329.17,-244.29"/>
</a>
</g>
<text text-anchor="middle" x="369.75" y="-204.5" font-family="Helvetica,sans-Serif" font-size="10.00" fill="grey"> m_PersonalLight</text>
</g>
</g>
</svg>
