<?xml version="1.0" encoding="UTF-8" standalone="no"?>
<!DOCTYPE svg PUBLIC "-//W3C//DTD SVG 1.1//EN"
 "http://www.w3.org/Graphics/SVG/1.1/DTD/svg11.dtd">
<!-- Generated by graphviz version 11.0.0 (20240428.1522)
 -->
<!-- Title: GameplayEffectsData Pages: 1 -->
<!--zoomable 382 -->

<svg id="main" version="1.1" xmlns="http://www.w3.org/2000/svg" xmlns:xlink="http://www.w3.org/1999/xlink" xml:space="preserve" onload="init(evt)">
<style type="text/css"><![CDATA[
.node, .edge {opacity: 0.7;}
.node.selected, .edge.selected {opacity: 1;}
.edge:hover path { stroke: red; }
.edge:hover polygon { stroke: red; fill: red; }
]]></style>

<defs>
  <circle id="rim" cx="0" cy="0" r="7"/>
  <circle id="rim2" cx="0" cy="0" r="3.5"/>
  <g id="zoomPlus">
    <use xlink:href="#rim" fill="#404040"><set attributeName="fill" to="#808080" begin="zoomplus.mouseover" end="zoomplus.mouseout"/></use>
    <path d="M-4,0h8M0,-4v8" fill="none" stroke="white" stroke-width="1.5" pointer-events="none"/>
  </g>
  <g id="zoomMin">
    <use xlink:href="#rim" fill="#404040"><set attributeName="fill" to="#808080" begin="zoomminus.mouseover" end="zoomminus.mouseout"/></use>
    <path d="M-4,0h8" fill="none" stroke="white" stroke-width="1.5" pointer-events="none"/>
  </g>
  <g id="arrowUp" transform="translate(30 24)">
    <use xlink:href="#rim"/>
    <path pointer-events="none" fill="none" stroke="white" stroke-width="1.5" d="M0,-3.0v7 M-2.5,-0.5L0,-3.0L2.5,-0.5"/>
  </g>
  <g id="arrowRight" transform="rotate(90) translate(36 -43)">
    <use xlink:href="#rim"/>
    <path pointer-events="none" fill="none" stroke="white" stroke-width="1.5" d="M0,-3.0v7 M-2.5,-0.5L0,-3.0L2.5,-0.5"/>
  </g>
  <g id="arrowDown" transform="rotate(180) translate(-30 -48)">
    <use xlink:href="#rim"/>
    <path pointer-events="none" fill="none" stroke="white" stroke-width="1.5" d="M0,-3.0v7 M-2.5,-0.5L0,-3.0L2.5,-0.5"/>
  </g>
  <g id="arrowLeft" transform="rotate(270) translate(-36 17)">
    <use xlink:href="#rim"/>
    <path pointer-events="none" fill="none" stroke="white" stroke-width="1.5" d="M0,-3.0v7 M-2.5,-0.5L0,-3.0L2.5,-0.5"/>
  </g>
  <g id="resetDef">
    <use xlink:href="#rim2" fill="#404040"><set attributeName="fill" to="#808080" begin="reset.mouseover" end="reset.mouseout"/></use>
  </g>
</defs>
<script type="application/ecmascript">
var viewWidth = 1242;
var viewHeight = 382;
var sectionId = 'dynsection-0';
</script>
<script type="application/ecmascript" xlink:href="../../svg.min.js"/>
<svg id="graph" class="graph">
<g id="viewport">
<title>GameplayEffectsData</title>
<!-- Node1 -->
<g id="Node000001" class="node">
<title>Node1</title>
<g id="a_Node000001"><a xlink:title="Manages all bleeding indicators and their updates.">
<polygon fill="#999999" stroke="#666666" points="616.25,-20 505.75,-20 505.75,0 616.25,0 616.25,-20"/>
<text text-anchor="middle" x="561" y="-6.5" font-family="Helvetica,sans-Serif" font-size="10.00">GameplayEffectsData</text>
</a>
</g>
</g>
<!-- Node2 -->
<g id="Node000002" class="node">
<title>Node2</title>
<g id="a_Node000002"><a xlink:href="../../d9/d09/classbool.html" target="_top" xlink:title=" ">
<polygon fill="white" stroke="#666666" points="34,-100 0,-100 0,-80 34,-80 34,-100"/>
<text text-anchor="middle" x="17" y="-86.5" font-family="Helvetica,sans-Serif" font-size="10.00">bool</text>
</a>
</g>
</g>
<!-- Node2&#45;&gt;Node1 -->
<g id="edge1_Node000001_Node000002" class="edge">
<title>Node2&#45;&gt;Node1</title>
<g id="a_edge1_Node000001_Node000002"><a xlink:title=" ">
<path fill="none" stroke="#9a32cd" stroke-dasharray="5,2" d="M11.41,-68.5C9.88,-58.02 10.38,-45.86 18,-38 34.78,-20.71 370.44,-13.82 505.46,-11.74"/>
<polygon fill="#9a32cd" stroke="#9a32cd" points="7.97,-69.15 13.51,-78.18 14.81,-67.67 7.97,-69.15"/>
</a>
</g>
<text text-anchor="middle" x="46.5" y="-52.5" font-family="Helvetica,sans-Serif" font-size="10.00" fill="grey"> m_Initialized</text>
<text text-anchor="middle" x="46.5" y="-40.5" font-family="Helvetica,sans-Serif" font-size="10.00" fill="grey">m_Visible</text>
</g>
<!-- Node3 -->
<g id="Node000003" class="node">
<title>Node3</title>
<g id="a_Node000003"><a xlink:href="../../d2/d01/classarray.html" target="_top" xlink:title=" ">
<polygon fill="white" stroke="#666666" points="605.75,-100 516.25,-100 516.25,-80 605.75,-80 605.75,-100"/>
<text text-anchor="middle" x="561" y="-86.5" font-family="Helvetica,sans-Serif" font-size="10.00">array&lt; Param3 &gt;</text>
</a>
</g>
</g>
<!-- Node3&#45;&gt;Node1 -->
<g id="edge2_Node000001_Node000003" class="edge">
<title>Node3&#45;&gt;Node1</title>
<g id="a_edge2_Node000001_Node000003"><a xlink:title=" ">
<path fill="none" stroke="#9a32cd" stroke-dasharray="5,2" d="M561,-68.59C561,-52.94 561,-32.08 561,-20.24"/>
<polygon fill="#9a32cd" stroke="#9a32cd" points="557.5,-68.23 561,-78.23 564.5,-68.23 557.5,-68.23"/>
</a>
</g>
<text text-anchor="middle" x="606.38" y="-52.5" font-family="Helvetica,sans-Serif" font-size="10.00" fill="grey"> m_CleanupQueue</text>
<text text-anchor="middle" x="606.38" y="-40.5" font-family="Helvetica,sans-Serif" font-size="10.00" fill="grey">m_RunningIndicators</text>
</g>
<!-- Node4 -->
<g id="Node000004" class="node">
<title>Node4</title>
<g id="a_Node000004"><a xlink:href="../../d8/d03/class_object.html" target="_top" xlink:title=" ">
<polygon fill="white" stroke="#666666" points="965.25,-372 920.75,-372 920.75,-352 965.25,-352 965.25,-372"/>
<text text-anchor="middle" x="943" y="-358.5" font-family="Helvetica,sans-Serif" font-size="10.00">Object</text>
</a>
</g>
</g>
<!-- Node4&#45;&gt;Node3 -->
<g id="edge3_Node000003_Node000004" class="edge">
<title>Node4&#45;&gt;Node3</title>
<g id="a_edge3_Node000003_Node000004"><a xlink:title=" ">
<path fill="none" stroke="#9a32cd" stroke-dasharray="5,2" d="M908.96,-356.51C867.13,-350.76 800.51,-340.72 791,-334 753.46,-307.45 760.45,-285.18 740,-244 724.5,-212.8 732.3,-197.9 709,-172 690.44,-151.37 618.26,-116.9 582.01,-100.38"/>
<polygon fill="#9a32cd" stroke="#9a32cd" points="908.41,-359.97 918.79,-357.85 909.35,-353.03 908.41,-359.97"/>
</a>
</g>
<text text-anchor="middle" x="753.5" y="-210.5" font-family="Helvetica,sans-Serif" font-size="10.00" fill="grey"> obj</text>
<text text-anchor="middle" x="753.5" y="-198.5" font-family="Helvetica,sans-Serif" font-size="10.00" fill="grey">parent</text>
</g>
<!-- Node6 -->
<g id="Node000006" class="node">
<title>Node6</title>
<g id="a_Node000006"><a xlink:href="../../d2/d01/classarray.html" target="_top" xlink:title="Result for an object found in CGame.IsBoxCollidingGeometryProxy.">
<polygon fill="white" stroke="#666666" points="813.88,-218 776.12,-218 776.12,-198 813.88,-198 813.88,-218"/>
<text text-anchor="middle" x="795" y="-204.5" font-family="Helvetica,sans-Serif" font-size="10.00">array</text>
</a>
</g>
</g>
<!-- Node4&#45;&gt;Node6 -->
<g id="edge6_Node000006_Node000004" class="edge">
<title>Node4&#45;&gt;Node6</title>
<g id="a_edge6_Node000006_Node000004"><a xlink:title=" ">
<path fill="none" stroke="#9a32cd" stroke-dasharray="5,2" d="M926.34,-343.89C894.98,-311.68 828.13,-243.02 803.96,-218.2"/>
<polygon fill="#9a32cd" stroke="#9a32cd" points="923.65,-346.14 933.13,-350.86 928.66,-341.26 923.65,-346.14"/>
</a>
</g>
<text text-anchor="middle" x="927.5" y="-300.5" font-family="Helvetica,sans-Serif" font-size="10.00" fill="grey"> obj</text>
<text text-anchor="middle" x="927.5" y="-288.5" font-family="Helvetica,sans-Serif" font-size="10.00" fill="grey">parent</text>
</g>
<!-- Node10 -->
<g id="Node000010" class="node">
<title>Node10</title>
<g id="a_Node000010"><a xlink:href="../../d2/d01/classarray.html" target="_top" xlink:title=" ">
<polygon fill="white" stroke="#666666" points="871.25,-100 784.75,-100 784.75,-80 871.25,-80 871.25,-100"/>
<text text-anchor="middle" x="828" y="-86.5" font-family="Helvetica,sans-Serif" font-size="10.00">array&lt; Widget &gt;</text>
</a>
</g>
</g>
<!-- Node4&#45;&gt;Node10 -->
<g id="edge14_Node000010_Node000004" class="edge">
<title>Node4&#45;&gt;Node10</title>
<g id="a_edge14_Node000010_Node000004"><a xlink:title=" ">
<path fill="none" stroke="#9a32cd" stroke-dasharray="5,2" d="M976.81,-360.89C997.74,-358.84 1023.19,-352.34 1037,-334 1080.5,-276.24 1063.91,-230.92 1022,-172 987.3,-123.22 917.44,-103.7 871.71,-95.97"/>
<polygon fill="#9a32cd" stroke="#9a32cd" points="976.69,-357.39 966.94,-361.53 977.15,-364.37 976.69,-357.39"/>
</a>
</g>
<text text-anchor="middle" x="1072.5" y="-210.5" font-family="Helvetica,sans-Serif" font-size="10.00" fill="grey"> obj</text>
<text text-anchor="middle" x="1072.5" y="-198.5" font-family="Helvetica,sans-Serif" font-size="10.00" fill="grey">parent</text>
</g>
<!-- Node5 -->
<g id="Node000005" class="node">
<title>Node5</title>
<g id="a_Node000005"><a xlink:href="../../db/d06/class_param3.html" target="_top" xlink:title=" ">
<polygon fill="white" stroke="#666666" points="315.88,-372 266.12,-372 266.12,-352 315.88,-352 315.88,-372"/>
<text text-anchor="middle" x="291" y="-358.5" font-family="Helvetica,sans-Serif" font-size="10.00">Param3</text>
</a>
</g>
</g>
<!-- Node5&#45;&gt;Node1 -->
<g id="edge24_Node000001_Node000005" class="edge">
<title>Node5&#45;&gt;Node1</title>
<g id="a_edge24_Node000001_Node000005"><a xlink:title=" ">
<path fill="none" stroke="#9a32cd" stroke-dasharray="5,2" d="M254.85,-355.06C239.69,-351.11 222.67,-344.62 210,-334 129.24,-266.32 46.95,-200.7 112.25,-118 160.7,-56.63 396.29,-26.63 505.37,-15.85"/>
<polygon fill="#9a32cd" stroke="#9a32cd" points="253.97,-358.45 264.5,-357.27 255.53,-351.62 253.97,-358.45"/>
</a>
</g>
<text text-anchor="middle" x="171.88" y="-144.5" font-family="Helvetica,sans-Serif" font-size="10.00" fill="grey"> m_ImageWidgetCount</text>
<text text-anchor="middle" x="171.88" y="-132.5" font-family="Helvetica,sans-Serif" font-size="10.00" fill="grey">m_LastDropIdx</text>
<text text-anchor="middle" x="171.88" y="-120.5" font-family="Helvetica,sans-Serif" font-size="10.00" fill="grey">m_LastPositionFrameUsed</text>
</g>
<!-- Node5&#45;&gt;Node3 -->
<g id="edge4_Node000003_Node000005" class="edge">
<title>Node5&#45;&gt;Node3</title>
<g id="a_edge4_Node000003_Node000005"><a xlink:title=" ">
<path fill="none" stroke="#9a32cd" stroke-dasharray="5,2" d="M273.3,-343.86C239.67,-309.16 173.27,-229.08 212.75,-172 247.05,-122.42 429.8,-101.44 515.98,-94.21"/>
<polygon fill="#9a32cd" stroke="#9a32cd" points="270.46,-345.96 280,-350.58 275.43,-341.03 270.46,-345.96"/>
</a>
</g>
<text text-anchor="middle" x="271.12" y="-234.5" font-family="Helvetica,sans-Serif" font-size="10.00" fill="grey"> NO_SORTING</text>
<text text-anchor="middle" x="271.12" y="-222.5" font-family="Helvetica,sans-Serif" font-size="10.00" fill="grey">geomLevel</text>
<text text-anchor="middle" x="271.12" y="-210.5" font-family="Helvetica,sans-Serif" font-size="10.00" fill="grey">hierLevel</text>
<text text-anchor="start" x="213" y="-198.5" font-family="Helvetica,sans-Serif" font-size="10.00" fill="grey">m_CurrentSettingAlternate</text>
<text text-anchor="middle" x="271.12" y="-186.5" font-family="Helvetica,sans-Serif" font-size="10.00" fill="grey">KeyIndex</text>
<text text-anchor="middle" x="271.12" y="-174.5" font-family="Helvetica,sans-Serif" font-size="10.00" fill="grey">m_CurrentSettingKeyIndex</text>
</g>
<!-- Node5&#45;&gt;Node6 -->
<g id="edge7_Node000006_Node000005" class="edge">
<title>Node5&#45;&gt;Node6</title>
<g id="a_edge7_Node000006_Node000005"><a xlink:title=" ">
<path fill="none" stroke="#9a32cd" stroke-dasharray="5,2" d="M327.57,-360.55C357.67,-358.72 400.53,-352.63 433,-334 469.82,-312.87 457.73,-280.87 495.75,-262 601.99,-209.27 654.75,-294.64 762,-244 773.78,-238.44 783.46,-226.66 789.22,-218.3"/>
<polygon fill="#9a32cd" stroke="#9a32cd" points="327.65,-357.04 317.82,-361.01 327.97,-364.04 327.65,-357.04"/>
</a>
</g>
<text text-anchor="middle" x="554.12" y="-324.5" font-family="Helvetica,sans-Serif" font-size="10.00" fill="grey"> NO_SORTING</text>
<text text-anchor="middle" x="554.12" y="-312.5" font-family="Helvetica,sans-Serif" font-size="10.00" fill="grey">geomLevel</text>
<text text-anchor="middle" x="554.12" y="-300.5" font-family="Helvetica,sans-Serif" font-size="10.00" fill="grey">hierLevel</text>
<text text-anchor="start" x="496" y="-288.5" font-family="Helvetica,sans-Serif" font-size="10.00" fill="grey">m_CurrentSettingAlternate</text>
<text text-anchor="middle" x="554.12" y="-276.5" font-family="Helvetica,sans-Serif" font-size="10.00" fill="grey">KeyIndex</text>
<text text-anchor="middle" x="554.12" y="-264.5" font-family="Helvetica,sans-Serif" font-size="10.00" fill="grey">m_CurrentSettingKeyIndex</text>
</g>
<!-- Node5&#45;&gt;Node10 -->
<g id="edge15_Node000010_Node000005" class="edge">
<title>Node5&#45;&gt;Node10</title>
<g id="a_edge15_Node000010_Node000005"><a xlink:title=" ">
<path fill="none" stroke="#9a32cd" stroke-dasharray="5,2" d="M310.92,-344.13C334.67,-323.02 374.01,-284.65 397,-244 413.46,-214.9 395.3,-195.82 418.75,-172 469.44,-120.52 689.66,-100.08 784.4,-93.57"/>
<polygon fill="#9a32cd" stroke="#9a32cd" points="308.74,-341.39 303.51,-350.6 313.35,-346.67 308.74,-341.39"/>
</a>
</g>
<text text-anchor="middle" x="477.12" y="-234.5" font-family="Helvetica,sans-Serif" font-size="10.00" fill="grey"> NO_SORTING</text>
<text text-anchor="middle" x="477.12" y="-222.5" font-family="Helvetica,sans-Serif" font-size="10.00" fill="grey">geomLevel</text>
<text text-anchor="middle" x="477.12" y="-210.5" font-family="Helvetica,sans-Serif" font-size="10.00" fill="grey">hierLevel</text>
<text text-anchor="start" x="419" y="-198.5" font-family="Helvetica,sans-Serif" font-size="10.00" fill="grey">m_CurrentSettingAlternate</text>
<text text-anchor="middle" x="477.12" y="-186.5" font-family="Helvetica,sans-Serif" font-size="10.00" fill="grey">KeyIndex</text>
<text text-anchor="middle" x="477.12" y="-174.5" font-family="Helvetica,sans-Serif" font-size="10.00" fill="grey">m_CurrentSettingKeyIndex</text>
</g>
<!-- Node6&#45;&gt;Node3 -->
<g id="edge5_Node000003_Node000006" class="edge">
<title>Node6&#45;&gt;Node3</title>
<g id="a_edge5_Node000003_Node000006"><a xlink:title=" ">
<path fill="none" stroke="#9a32cd" stroke-dasharray="5,2" d="M781.38,-189.2C775.92,-183.04 769.21,-176.55 762,-172 739.89,-158.05 726.71,-169.96 706,-154 690.96,-142.41 698.56,-128.88 683,-118 660.6,-102.34 630.69,-95.56 606.1,-92.7"/>
<polygon fill="#9a32cd" stroke="#9a32cd" points="778.38,-191.06 787.44,-196.55 783.78,-186.61 778.38,-191.06"/>
</a>
</g>
<text text-anchor="middle" x="727" y="-132.5" font-family="Helvetica,sans-Serif" font-size="10.00" fill="grey"> proxyInfo</text>
</g>
<!-- Node6&#45;&gt;Node6 -->
<g id="edge8_Node000006_Node000006" class="edge">
<title>Node6&#45;&gt;Node6</title>
<g id="a_edge8_Node000006_Node000006"><a xlink:title=" ">
<path fill="none" stroke="#9a32cd" stroke-dasharray="5,2" d="M817.3,-221.49C825.33,-221.78 831.88,-217.29 831.88,-208 831.88,-194.64 818.33,-191.2 806.33,-197.67"/>
<polygon fill="#9a32cd" stroke="#9a32cd" points="818.36,-218.15 807.78,-218.75 816.43,-224.88 818.36,-218.15"/>
</a>
</g>
<text text-anchor="middle" x="852.88" y="-204.5" font-family="Helvetica,sans-Serif" font-size="10.00" fill="grey"> proxyInfo</text>
</g>
<!-- Node6&#45;&gt;Node10 -->
<g id="edge16_Node000010_Node000006" class="edge">
<title>Node6&#45;&gt;Node10</title>
<g id="a_edge16_Node000010_Node000006"><a xlink:title=" ">
<path fill="none" stroke="#9a32cd" stroke-dasharray="5,2" d="M788.97,-186.42C784.65,-167.58 781.28,-139.45 792,-118 795.7,-110.59 802.51,-104.69 809.22,-100.32"/>
<polygon fill="#9a32cd" stroke="#9a32cd" points="785.58,-187.29 791.5,-196.08 792.35,-185.52 785.58,-187.29"/>
</a>
</g>
<text text-anchor="middle" x="813" y="-132.5" font-family="Helvetica,sans-Serif" font-size="10.00" fill="grey"> proxyInfo</text>
</g>
<!-- Node7 -->
<g id="Node000007" class="node">
<title>Node7</title>
<g id="a_Node000007"><a xlink:href="../../d4/d04/class_class.html" target="_top" xlink:title="Super root of all classes in Enforce script.">
<polygon fill="white" stroke="#666666" points="486.38,-372 445.62,-372 445.62,-352 486.38,-352 486.38,-372"/>
<text text-anchor="middle" x="466" y="-358.5" font-family="Helvetica,sans-Serif" font-size="10.00">Class</text>
</a>
</g>
</g>
<!-- Node7&#45;&gt;Node3 -->
<g id="edge21_Node000003_Node000007" class="edge">
<title>Node7&#45;&gt;Node3</title>
<g id="a_edge21_Node000003_Node000007"><a xlink:title=" ">
<path fill="none" stroke="#9a32cd" stroke-dasharray="5,2" d="M441.88,-345.14C395.04,-312.37 300.04,-234.95 343.75,-172 382.44,-116.29 464.32,-98.82 515.77,-93.39"/>
<polygon fill="#9a32cd" stroke="#9a32cd" points="439.86,-348 450.09,-350.76 443.81,-342.22 439.86,-348"/>
</a>
</g>
<text text-anchor="middle" x="370.62" y="-204.5" font-family="Helvetica,sans-Serif" font-size="10.00" fill="grey"> m_Instance</text>
</g>
<!-- Node7&#45;&gt;Node6 -->
<g id="edge9_Node000006_Node000007" class="edge">
<title>Node7&#45;&gt;Node6</title>
<g id="a_edge9_Node000006_Node000007"><a xlink:title=" ">
<path fill="none" stroke="#9a32cd" stroke-dasharray="5,2" d="M497.93,-358.73C528.95,-355.72 576.95,-348.94 616,-334 633.8,-327.19 747.23,-256.04 762,-244 771.58,-236.19 781.11,-225.72 787.45,-218.26"/>
<polygon fill="#9a32cd" stroke="#9a32cd" points="497.7,-355.23 488.05,-359.6 498.32,-362.21 497.7,-355.23"/>
</a>
</g>
<text text-anchor="middle" x="759.62" y="-294.5" font-family="Helvetica,sans-Serif" font-size="10.00" fill="grey"> m_Instance</text>
</g>
<!-- Node7&#45;&gt;Node10 -->
<g id="edge17_Node000010_Node000007" class="edge">
<title>Node7&#45;&gt;Node10</title>
<g id="a_edge17_Node000010_Node000007"><a xlink:title=" ">
<path fill="none" stroke="#9a32cd" stroke-dasharray="5,2" d="M462.98,-340.49C460.95,-318.47 461.42,-283.72 480,-262 497.82,-241.17 518.49,-262.2 539,-244 565.16,-220.79 546.61,-197.31 570.75,-172 627.46,-112.53 727.32,-96.53 784.51,-92.35"/>
<polygon fill="#9a32cd" stroke="#9a32cd" points="459.49,-340.78 464.16,-350.29 466.44,-339.94 459.49,-340.78"/>
</a>
</g>
<text text-anchor="middle" x="597.62" y="-204.5" font-family="Helvetica,sans-Serif" font-size="10.00" fill="grey"> m_Instance</text>
</g>
<!-- Node8 -->
<g id="Node000008" class="node">
<title>Node8</title>
<g id="a_Node000008"><a xlink:href="../../d5/d02/classstring.html" target="_top" xlink:title=" ">
<polygon fill="white" stroke="#666666" points="815,-372 775,-372 775,-352 815,-352 815,-372"/>
<text text-anchor="middle" x="795" y="-358.5" font-family="Helvetica,sans-Serif" font-size="10.00">string</text>
</a>
</g>
</g>
<!-- Node8&#45;&gt;Node3 -->
<g id="edge22_Node000003_Node000008" class="edge">
<title>Node8&#45;&gt;Node3</title>
<g id="a_edge22_Node000003_Node000008"><a xlink:title=" ">
<path fill="none" stroke="#9a32cd" stroke-dasharray="5,2" d="M763.88,-356.01C748.98,-352.2 731.84,-345.55 720,-334 695.42,-310.03 710.86,-290.69 692,-262 685.74,-252.48 680.91,-252.86 673.75,-244 649.93,-214.5 650.29,-202.67 628,-172 608.26,-144.84 582.28,-114.88 569.23,-100.17"/>
<polygon fill="#9a32cd" stroke="#9a32cd" points="762.72,-359.33 773.24,-358.07 764.23,-352.5 762.72,-359.33"/>
</a>
</g>
<text text-anchor="middle" x="690.62" y="-204.5" font-family="Helvetica,sans-Serif" font-size="10.00" fill="grey"> m_Test</text>
</g>
<!-- Node8&#45;&gt;Node6 -->
<g id="edge10_Node000006_Node000008" class="edge">
<title>Node8&#45;&gt;Node6</title>
<g id="a_edge10_Node000006_Node000008"><a xlink:title=" ">
<path fill="none" stroke="#9a32cd" stroke-dasharray="5,2" d="M795,-340.47C795,-307.04 795,-242.17 795,-218.2"/>
<polygon fill="#9a32cd" stroke="#9a32cd" points="791.5,-340.43 795,-350.43 798.5,-340.43 791.5,-340.43"/>
</a>
</g>
<text text-anchor="middle" x="812.62" y="-294.5" font-family="Helvetica,sans-Serif" font-size="10.00" fill="grey"> m_Test</text>
</g>
<!-- Node8&#45;&gt;Node8 -->
<g id="edge11_Node000008_Node000008" class="edge">
<title>Node8&#45;&gt;Node8</title>
<g id="a_edge11_Node000008_Node000008"><a xlink:title=" ">
<path fill="none" stroke="#9a32cd" stroke-dasharray="5,2" d="M820.77,-373.91C827.72,-373.28 833,-369.31 833,-362 833,-351.12 821.3,-347.64 809.82,-351.55"/>
<polygon fill="#9a32cd" stroke="#9a32cd" points="821.7,-370.5 811.32,-372.65 820.77,-377.44 821.7,-370.5"/>
</a>
</g>
<text text-anchor="middle" x="848.75" y="-358.5" font-family="Helvetica,sans-Serif" font-size="10.00" fill="grey"> Empty</text>
</g>
<!-- Node8&#45;&gt;Node10 -->
<g id="edge18_Node000010_Node000008" class="edge">
<title>Node8&#45;&gt;Node10</title>
<g id="a_edge18_Node000010_Node000008"><a xlink:title=" ">
<path fill="none" stroke="#9a32cd" stroke-dasharray="5,2" d="M821.22,-345.4C825.79,-341.99 830.27,-338.15 834,-334 891.69,-269.78 895.78,-239.6 907,-154 909.08,-138.14 916.31,-131.02 907,-118 898.74,-106.45 885.22,-99.78 871.69,-95.96"/>
<polygon fill="#9a32cd" stroke="#9a32cd" points="819.44,-342.37 813.15,-350.89 823.38,-348.15 819.44,-342.37"/>
</a>
</g>
<text text-anchor="middle" x="921.62" y="-204.5" font-family="Helvetica,sans-Serif" font-size="10.00" fill="grey"> m_Test</text>
</g>
<!-- Node9 -->
<g id="Node000009" class="node">
<title>Node9</title>
<g id="a_Node000009"><a xlink:href="../../dd/d0a/class_widget.html" target="_top" xlink:title=" ">
<polygon fill="white" stroke="#666666" points="1119.38,-372 1072.62,-372 1072.62,-352 1119.38,-352 1119.38,-372"/>
<text text-anchor="middle" x="1096" y="-358.5" font-family="Helvetica,sans-Serif" font-size="10.00">Widget</text>
</a>
</g>
</g>
<!-- Node9&#45;&gt;Node1 -->
<g id="edge26_Node000001_Node000009" class="edge">
<title>Node9&#45;&gt;Node1</title>
<g id="a_edge26_Node000001_Node000009"><a xlink:title=" ">
<path fill="none" stroke="#9a32cd" stroke-dasharray="5,2" d="M1114.22,-343.4C1116.72,-340.43 1119.08,-337.24 1121,-334 1158.29,-270.98 1188.9,-234.66 1151,-172 1077.52,-50.51 998.79,-72.26 861,-38 777.52,-17.24 677.45,-12.01 616.58,-10.93"/>
<polygon fill="#9a32cd" stroke="#9a32cd" points="1111.89,-340.76 1107.65,-350.47 1117.02,-345.53 1111.89,-340.76"/>
</a>
</g>
<text text-anchor="middle" x="1186.25" y="-132.5" font-family="Helvetica,sans-Serif" font-size="10.00" fill="grey"> m_BloodDropsFrame</text>
</g>
<!-- Node9&#45;&gt;Node3 -->
<g id="edge23_Node000003_Node000009" class="edge">
<title>Node9&#45;&gt;Node3</title>
<g id="a_edge23_Node000003_Node000009"><a xlink:title=" ">
<path fill="none" stroke="#9a32cd" stroke-dasharray="5,2" d="M1094.7,-340.47C1092.13,-317.89 1084.53,-282.14 1062,-262 1034.59,-237.49 1010.5,-266.28 981.25,-244 952.42,-222.05 972.98,-192.35 943,-172 882.69,-131.07 844.75,-187.47 780,-154 760.98,-144.17 766.85,-128.15 748,-118 724.17,-105.17 653.38,-97.67 606.06,-93.95"/>
<polygon fill="#9a32cd" stroke="#9a32cd" points="1091.2,-340.59 1095.55,-350.24 1098.17,-339.98 1091.2,-340.59"/>
</a>
</g>
<text text-anchor="middle" x="999.38" y="-204.5" font-family="Helvetica,sans-Serif" font-size="10.00" fill="grey"> m_Root</text>
</g>
<!-- Node9&#45;&gt;Node6 -->
<g id="edge12_Node000006_Node000009" class="edge">
<title>Node9&#45;&gt;Node6</title>
<g id="a_edge12_Node000006_Node000009"><a xlink:title=" ">
<path fill="none" stroke="#9a32cd" stroke-dasharray="5,2" d="M1061.81,-350.81C1049.8,-346.5 1036.51,-340.87 1025.25,-334 984.35,-309.04 986.62,-285.75 945,-262 921.93,-248.83 913.11,-252.68 888,-244 862.24,-235.09 832.85,-223.85 814.13,-216.54"/>
<polygon fill="#9a32cd" stroke="#9a32cd" points="1060.36,-354.01 1070.95,-353.91 1062.6,-347.38 1060.36,-354.01"/>
</a>
</g>
<text text-anchor="middle" x="1043.38" y="-294.5" font-family="Helvetica,sans-Serif" font-size="10.00" fill="grey"> m_Root</text>
</g>
<!-- Node9&#45;&gt;Node10 -->
<g id="edge19_Node000010_Node000009" class="edge">
<title>Node9&#45;&gt;Node10</title>
<g id="a_edge19_Node000010_Node000009"><a xlink:title=" ">
<path fill="none" stroke="#9a32cd" stroke-dasharray="5,2" d="M1101.43,-340.71C1110.03,-303.98 1122.67,-225.34 1090,-172 1064.03,-129.59 1038.99,-134.27 992,-118 952.46,-104.31 905.1,-97.46 871.46,-94.1"/>
<polygon fill="#9a32cd" stroke="#9a32cd" points="1098.05,-339.82 1099.01,-350.37 1104.84,-341.53 1098.05,-339.82"/>
</a>
</g>
<text text-anchor="middle" x="1128.38" y="-204.5" font-family="Helvetica,sans-Serif" font-size="10.00" fill="grey"> m_Root</text>
</g>
<!-- Node10&#45;&gt;Node1 -->
<g id="edge25_Node000001_Node000010" class="edge">
<title>Node10&#45;&gt;Node1</title>
<g id="a_edge25_Node000001_Node000010"><a xlink:title=" ">
<path fill="none" stroke="#9a32cd" stroke-dasharray="5,2" d="M785.94,-76.38C751.14,-65.98 700.4,-50.89 656,-38 635.58,-32.07 612.66,-25.55 594.44,-20.4"/>
<polygon fill="#9a32cd" stroke="#9a32cd" points="784.61,-79.64 795.2,-79.15 786.62,-72.93 784.61,-79.64"/>
</a>
</g>
<text text-anchor="middle" x="796.38" y="-46.5" font-family="Helvetica,sans-Serif" font-size="10.00" fill="grey"> m_PositioningFramesArray</text>
</g>
<!-- Node10&#45;&gt;Node6 -->
<g id="edge13_Node000006_Node000010" class="edge">
<title>Node10&#45;&gt;Node6</title>
<g id="a_edge13_Node000006_Node000010"><a xlink:title=" ">
<path fill="none" stroke="#9a32cd" stroke-dasharray="5,2" d="M836.08,-110.93C840.02,-123.56 842.94,-140.08 838,-154 831.66,-171.87 816.45,-188.1 805.93,-197.77"/>
<polygon fill="#9a32cd" stroke="#9a32cd" points="839.42,-109.88 832.74,-101.65 832.84,-112.25 839.42,-109.88"/>
</a>
</g>
<text text-anchor="middle" x="871.5" y="-132.5" font-family="Helvetica,sans-Serif" font-size="10.00" fill="grey"> m_Subgroups</text>
</g>
<!-- Node10&#45;&gt;Node10 -->
<g id="edge20_Node000010_Node000010" class="edge">
<title>Node10&#45;&gt;Node10</title>
<g id="a_edge20_Node000010_Node000010"><a xlink:title=" ">
<path fill="none" stroke="#9a32cd" stroke-dasharray="5,2" d="M882.63,-95.6C886.73,-94.35 889.25,-92.48 889.25,-90 889.25,-85.7 881.71,-83.25 871.49,-82.65"/>
<polygon fill="#9a32cd" stroke="#9a32cd" points="882.32,-92.11 872.99,-97.12 883.41,-99.02 882.32,-92.11"/>
</a>
</g>
<text text-anchor="middle" x="920.75" y="-86.5" font-family="Helvetica,sans-Serif" font-size="10.00" fill="grey"> m_Subgroups</text>
</g>
</g>
</svg>

<g id="navigator" transform="translate(0 0)" fill="#404254">
  <rect fill="#f2f5e9" fill-opacity="0.5" stroke="#606060" stroke-width=".5" x="0" y="0" width="60" height="60"/>
  <use id="zoomplus" xlink:href="#zoomPlus" x="17" y="9" onmousedown="handleZoom(evt,'in')"/>
  <use id="zoomminus" xlink:href="#zoomMin" x="42" y="9" onmousedown="handleZoom(evt,'out')"/>
  <use id="reset" xlink:href="#resetDef" x="30" y="36" onmousedown="handleReset()"/>
   <use id="arrowup" xlink:href="#arrowUp" x="0" y="0" onmousedown="handlePan(0,-1)"/>
  <use id="arrowright" xlink:href="#arrowRight" x="0" y="0" onmousedown="handlePan(1,0)"/>
  <use id="arrowdown" xlink:href="#arrowDown" x="0" y="0" onmousedown="handlePan(0,1)"/>
  <use id="arrowleft" xlink:href="#arrowLeft" x="0" y="0" onmousedown="handlePan(-1,0)"/>
</g>
<svg viewBox="0 0 15 15" width="100%" height="30px" preserveAspectRatio="xMaxYMin meet">
 <g id="arrow_out" transform="scale(0.3 0.3)">
  <a xlink:href="class_gameplay_effects_data__coll__graph_org.svg" target="_base">
   <rect id="button" ry="5" rx="5" y="6" x="6" height="38" width="38"
        fill="#f2f5e9" fill-opacity="0.5" stroke="#606060" stroke-width="1.0"/>
   <path id="arrow"
     d="M 11.500037,31.436501 C 11.940474,20.09759 22.043105,11.32322 32.158766,21.979434 L 37.068811,17.246167 C 37.068811,17.246167 37.088388,32 37.088388,32 L 22.160133,31.978069 C 22.160133,31.978069 26.997745,27.140456 26.997745,27.140456 C 18.528582,18.264221 13.291696,25.230495 11.500037,31.436501 z"
     style="fill:#404040;"/>
  </a>
 </g>
</svg>

<style type='text/css'>
<![CDATA[
[data-mouse-over-selected='false'] { opacity: 0.7; }
[data-mouse-over-selected='true']  { opacity: 1.0; }
]]>
</style>
<script type="application/ecmascript"><![CDATA[
document.addEventListener('DOMContentLoaded', (event) => {
  highlightEdges();
  highlightAdjacentNodes();
});
]]></script>
</svg>
