<?xml version="1.0" encoding="UTF-8" standalone="no"?>
<!DOCTYPE svg PUBLIC "-//W3C//DTD SVG 1.1//EN"
 "http://www.w3.org/Graphics/SVG/1.1/DTD/svg11.dtd">
<!-- Generated by graphviz version 11.0.0 (20240428.1522)
 -->
<!-- Title: SpotLightBase Pages: 1 -->
<svg width="271pt" height="220pt"
 viewBox="0.00 0.00 270.50 220.00" xmlns="http://www.w3.org/2000/svg" xmlns:xlink="http://www.w3.org/1999/xlink">

<svg id="main" version="1.1" xmlns="http://www.w3.org/2000/svg" xmlns:xlink="http://www.w3.org/1999/xlink" xml:space="preserve" onload="init(evt)">
<style type="text/css"><![CDATA[
.node, .edge {opacity: 0.7;}
.node.selected, .edge.selected {opacity: 1;}
.edge:hover path { stroke: red; }
.edge:hover polygon { stroke: red; fill: red; }
]]></style>
<script type="application/ecmascript" xlink:href="../../svg.min.js"/>
<svg id="graph" class="graph">
<g id="graph0" class="graph" transform="scale(1 1) rotate(0) translate(4 216)">
<title>SpotLightBase</title>
<!-- Node1 -->
<g id="Node000001" class="node">
<title>Node1</title>
<g id="a_Node000001"><a xlink:title=" ">
<polygon fill="#999999" stroke="#666666" points="122.88,-20 43.12,-20 43.12,0 122.88,0 122.88,-20"/>
<text text-anchor="middle" x="83" y="-6.5" font-family="Helvetica,sans-Serif" font-size="10.00">SpotLightBase</text>
</a>
</g>
</g>
<!-- Node2 -->
<g id="Node000002" class="node">
<title>Node2</title>
<g id="a_Node000002"><a xlink:href="../../d4/d03/classfloat.html" target="_top" xlink:title=" ">
<polygon fill="white" stroke="#666666" points="34,-198 0,-198 0,-178 34,-178 34,-198"/>
<text text-anchor="middle" x="17" y="-184.5" font-family="Helvetica,sans-Serif" font-size="10.00">float</text>
</a>
</g>
</g>
<!-- Node2&#45;&gt;Node1 -->
<g id="edge1_Node000001_Node000002" class="edge">
<title>Node2&#45;&gt;Node1</title>
<g id="a_edge1_Node000001_Node000002"><a xlink:title=" ">
<path fill="none" stroke="#9a32cd" stroke-dasharray="5,2" d="M10.71,-166.61C2.54,-135.85 -7.77,-77.05 18.5,-38 24.26,-29.44 33.31,-23.59 42.82,-19.59"/>
<polygon fill="#9a32cd" stroke="#9a32cd" points="7.32,-167.49 13.44,-176.14 14.05,-165.56 7.32,-167.49"/>
</a>
</g>
<text text-anchor="middle" x="73.75" y="-136.5" font-family="Helvetica,sans-Serif" font-size="10.00" fill="grey"> m_AggregatedAngle</text>
<text text-anchor="middle" x="73.75" y="-124.5" font-family="Helvetica,sans-Serif" font-size="10.00" fill="grey">m_AggregatedBrightness</text>
<text text-anchor="middle" x="73.75" y="-112.5" font-family="Helvetica,sans-Serif" font-size="10.00" fill="grey">m_AggregatedRadius</text>
<text text-anchor="middle" x="73.75" y="-100.5" font-family="Helvetica,sans-Serif" font-size="10.00" fill="grey">m_DefaultAngle</text>
<text text-anchor="middle" x="73.75" y="-88.5" font-family="Helvetica,sans-Serif" font-size="10.00" fill="grey">m_DefaultBrightness</text>
<text text-anchor="middle" x="73.75" y="-76.5" font-family="Helvetica,sans-Serif" font-size="10.00" fill="grey">m_DefaultRadius</text>
<text text-anchor="middle" x="73.75" y="-64.5" font-family="Helvetica,sans-Serif" font-size="10.00" fill="grey">m_SegregatedAngle</text>
<text text-anchor="middle" x="73.75" y="-52.5" font-family="Helvetica,sans-Serif" font-size="10.00" fill="grey">m_SegregatedBrightness</text>
<text text-anchor="middle" x="73.75" y="-40.5" font-family="Helvetica,sans-Serif" font-size="10.00" fill="grey">m_SegregatedRadius</text>
</g>
<!-- Node2&#45;&gt;Node2 -->
<g id="edge2_Node000002_Node000002" class="edge">
<title>Node2&#45;&gt;Node2</title>
<g id="a_edge2_Node000002_Node000002"><a xlink:title=" ">
<path fill="none" stroke="#9a32cd" stroke-dasharray="5,2" d="M33.08,-204.83C42.81,-208.67 52,-203.06 52,-188 52,-168.12 36,-164.71 23.87,-177.75"/>
<polygon fill="#9a32cd" stroke="#9a32cd" points="35.27,-202.09 25.1,-199.13 31.21,-207.79 35.27,-202.09"/>
</a>
</g>
<text text-anchor="middle" x="74.12" y="-196.5" font-family="Helvetica,sans-Serif" font-size="10.00" fill="grey"> LOWEST</text>
<text text-anchor="middle" x="74.12" y="-184.5" font-family="Helvetica,sans-Serif" font-size="10.00" fill="grey">MAX</text>
<text text-anchor="middle" x="74.12" y="-172.5" font-family="Helvetica,sans-Serif" font-size="10.00" fill="grey">MIN</text>
</g>
<!-- Node3 -->
<g id="Node000003" class="node">
<title>Node3</title>
<g id="a_Node000003"><a xlink:href="../../d7/d0c/classvector.html" target="_top" xlink:title=" ">
<polygon fill="white" stroke="#666666" points="170.75,-198 129.25,-198 129.25,-178 170.75,-178 170.75,-198"/>
<text text-anchor="middle" x="150" y="-184.5" font-family="Helvetica,sans-Serif" font-size="10.00">vector</text>
</a>
</g>
</g>
<!-- Node3&#45;&gt;Node1 -->
<g id="edge3_Node000001_Node000003" class="edge">
<title>Node3&#45;&gt;Node1</title>
<g id="a_edge3_Node000001_Node000003"><a xlink:title=" ">
<path fill="none" stroke="#9a32cd" stroke-dasharray="5,2" d="M152.2,-166.33C154.39,-135.63 154.29,-77.39 128,-38 122.94,-30.42 114.97,-24.64 107.13,-20.42"/>
<polygon fill="#9a32cd" stroke="#9a32cd" points="148.73,-165.88 151.33,-176.15 155.7,-166.5 148.73,-165.88"/>
</a>
</g>
<text text-anchor="middle" x="207.75" y="-94.5" font-family="Helvetica,sans-Serif" font-size="10.00" fill="grey"> m_AggregatedColorRGB</text>
<text text-anchor="middle" x="207.75" y="-82.5" font-family="Helvetica,sans-Serif" font-size="10.00" fill="grey">m_SegregatedColorRGB</text>
</g>
<!-- Node3&#45;&gt;Node3 -->
<g id="edge4_Node000003_Node000003" class="edge">
<title>Node3&#45;&gt;Node3</title>
<g id="a_edge4_Node000003_Node000003"><a xlink:title=" ">
<path fill="none" stroke="#9a32cd" stroke-dasharray="5,2" d="M167.14,-204.58C178.15,-208.9 188.75,-203.37 188.75,-188 188.75,-168.12 171.03,-164.71 157.61,-177.75"/>
<polygon fill="#9a32cd" stroke="#9a32cd" points="169.14,-201.7 158.87,-199.09 165.26,-207.53 169.14,-201.7"/>
</a>
</g>
<text text-anchor="middle" x="206" y="-202.5" font-family="Helvetica,sans-Serif" font-size="10.00" fill="grey"> Aside</text>
<text text-anchor="middle" x="206" y="-190.5" font-family="Helvetica,sans-Serif" font-size="10.00" fill="grey">Forward</text>
<text text-anchor="middle" x="206" y="-178.5" font-family="Helvetica,sans-Serif" font-size="10.00" fill="grey">Up</text>
<text text-anchor="middle" x="206" y="-166.5" font-family="Helvetica,sans-Serif" font-size="10.00" fill="grey">Zero</text>
</g>
</g>
</svg>
</svg>

<style type='text/css'>
<![CDATA[
[data-mouse-over-selected='false'] { opacity: 0.7; }
[data-mouse-over-selected='true']  { opacity: 1.0; }
]]>
</style>
<script type="application/ecmascript"><![CDATA[
document.addEventListener('DOMContentLoaded', (event) => {
  highlightEdges();
  highlightAdjacentNodes();
});
]]></script>
</svg>
