<?xml version="1.0" encoding="UTF-8" standalone="no"?>
<!DOCTYPE svg PUBLIC "-//W3C//DTD SVG 1.1//EN"
 "http://www.w3.org/Graphics/SVG/1.1/DTD/svg11.dtd">
<!-- Generated by graphviz version 11.0.0 (20240428.1522)
 -->
<!-- Title: SpookyPlayerStalker Pages: 1 -->
<svg width="1344pt" height="502pt"
 viewBox="0.00 0.00 1344.00 501.91" xmlns="http://www.w3.org/2000/svg" xmlns:xlink="http://www.w3.org/1999/xlink">
<g id="graph0" class="graph" transform="scale(1 1) rotate(0) translate(4 497.91)">
<title>SpookyPlayerStalker</title>
<!-- Node1 -->
<g id="Node000001" class="node">
<title>Node1</title>
<g id="a_Node000001"><a xlink:title="this entity gets attached to each player while present in the spooky area">
<polygon fill="#999999" stroke="#666666" points="600.75,-20 493.25,-20 493.25,0 600.75,0 600.75,-20"/>
<text text-anchor="middle" x="547" y="-6.5" font-family="Helvetica,sans-Serif" font-size="10.00">SpookyPlayerStalker</text>
</a>
</g>
</g>
<!-- Node2 -->
<g id="Node000002" class="node">
<title>Node2</title>
<g id="a_Node000002"><a xlink:href="../../df/d09/class_scripted_entity.html" target="_top" xlink:title=" ">
<polygon fill="white" stroke="#666666" points="1295.75,-266 1218.25,-266 1218.25,-246 1295.75,-246 1295.75,-266"/>
<text text-anchor="middle" x="1257" y="-252.5" font-family="Helvetica,sans-Serif" font-size="10.00">ScriptedEntity</text>
</a>
</g>
</g>
<!-- Node2&#45;&gt;Node1 -->
<g id="edge1_Node000001_Node000002" class="edge">
<title>Node2&#45;&gt;Node1</title>
<g id="a_edge1_Node000001_Node000002"><a xlink:title=" ">
<path fill="none" stroke="#8b1a1a" d="M1229.19,-240.23C1186.71,-218.08 1102.69,-175.88 1028,-148 869.17,-88.71 672.82,-40.17 588.57,-20.47"/>
<polygon fill="#8b1a1a" stroke="#8b1a1a" points="1227.49,-243.29 1237.97,-244.84 1230.74,-237.09 1227.49,-243.29"/>
</a>
</g>
</g>
<!-- Node3 -->
<g id="Node000003" class="node">
<title>Node3</title>
<g id="a_Node000003"><a xlink:href="../../db/d06/class_param3.html" target="_top" xlink:title=" ">
<polygon fill="white" stroke="#666666" points="1182.88,-492 1133.12,-492 1133.12,-472 1182.88,-472 1182.88,-492"/>
<text text-anchor="middle" x="1158" y="-478.5" font-family="Helvetica,sans-Serif" font-size="10.00">Param3</text>
</a>
</g>
</g>
<!-- Node3&#45;&gt;Node2 -->
<g id="edge2_Node000002_Node000003" class="edge">
<title>Node3&#45;&gt;Node2</title>
<g id="a_edge2_Node000002_Node000003"><a xlink:title=" ">
<path fill="none" stroke="#9a32cd" stroke-dasharray="5,2" d="M1183.5,-465.37C1212.68,-445.81 1258.89,-409.33 1278,-364 1290.43,-334.51 1286.54,-322.84 1278,-292 1275.39,-282.58 1269.49,-273.14 1264.61,-266.45"/>
<polygon fill="#9a32cd" stroke="#9a32cd" points="1181.71,-462.36 1175.24,-470.74 1185.53,-468.23 1181.71,-462.36"/>
</a>
</g>
<text text-anchor="middle" x="1301.5" y="-414.5" font-family="Helvetica,sans-Serif" font-size="10.00" fill="grey"> m_TriggerIndex</text>
</g>
<!-- Node11 -->
<g id="Node000011" class="node">
<title>Node11</title>
<g id="a_Node000011"><a xlink:href="../../d2/d01/classarray.html" target="_top" xlink:title="Result for an object found in CGame.IsBoxCollidingGeometryProxy.">
<polygon fill="white" stroke="#666666" points="848.88,-338 811.12,-338 811.12,-318 848.88,-318 848.88,-338"/>
<text text-anchor="middle" x="830" y="-324.5" font-family="Helvetica,sans-Serif" font-size="10.00">array</text>
</a>
</g>
</g>
<!-- Node3&#45;&gt;Node11 -->
<g id="edge14_Node000011_Node000003" class="edge">
<title>Node3&#45;&gt;Node11</title>
<g id="a_edge14_Node000011_Node000003"><a xlink:title=" ">
<path fill="none" stroke="#9a32cd" stroke-dasharray="5,2" d="M1121.39,-479.58C1094,-477.11 1056.47,-470.64 1027.75,-454 990.77,-432.57 999,-406.53 964,-382 954.19,-375.13 884.07,-348.88 849.36,-336.09"/>
<polygon fill="#9a32cd" stroke="#9a32cd" points="1121.08,-483.07 1131.31,-480.32 1121.6,-476.09 1121.08,-483.07"/>
</a>
</g>
<text text-anchor="middle" x="1085.12" y="-444.5" font-family="Helvetica,sans-Serif" font-size="10.00" fill="grey"> NO_SORTING</text>
<text text-anchor="middle" x="1085.12" y="-432.5" font-family="Helvetica,sans-Serif" font-size="10.00" fill="grey">geomLevel</text>
<text text-anchor="middle" x="1085.12" y="-420.5" font-family="Helvetica,sans-Serif" font-size="10.00" fill="grey">hierLevel</text>
<text text-anchor="start" x="1027" y="-408.5" font-family="Helvetica,sans-Serif" font-size="10.00" fill="grey">m_CurrentSettingAlternate</text>
<text text-anchor="middle" x="1085.12" y="-396.5" font-family="Helvetica,sans-Serif" font-size="10.00" fill="grey">KeyIndex</text>
<text text-anchor="middle" x="1085.12" y="-384.5" font-family="Helvetica,sans-Serif" font-size="10.00" fill="grey">m_CurrentSettingKeyIndex</text>
</g>
<!-- Node16 -->
<g id="Node000016" class="node">
<title>Node16</title>
<g id="a_Node000016"><a xlink:href="../../d2/d01/classarray.html" target="_top" xlink:title=" ">
<polygon fill="white" stroke="#666666" points="938.25,-194 851.75,-194 851.75,-174 938.25,-174 938.25,-194"/>
<text text-anchor="middle" x="895" y="-180.5" font-family="Helvetica,sans-Serif" font-size="10.00">array&lt; Widget &gt;</text>
</a>
</g>
</g>
<!-- Node3&#45;&gt;Node16 -->
<g id="edge22_Node000016_Node000003" class="edge">
<title>Node3&#45;&gt;Node16</title>
<g id="a_edge22_Node000016_Node000003"><a xlink:title=" ">
<path fill="none" stroke="#9a32cd" stroke-dasharray="5,2" d="M1158.94,-460.34C1159.04,-439.45 1156.79,-406.78 1144,-382 1092.93,-283.05 967.42,-217.6 916.75,-194.39"/>
<polygon fill="#9a32cd" stroke="#9a32cd" points="1155.45,-460.06 1158.69,-470.14 1162.45,-460.24 1155.45,-460.06"/>
</a>
</g>
<text text-anchor="middle" x="1190.12" y="-354.5" font-family="Helvetica,sans-Serif" font-size="10.00" fill="grey"> NO_SORTING</text>
<text text-anchor="middle" x="1190.12" y="-342.5" font-family="Helvetica,sans-Serif" font-size="10.00" fill="grey">geomLevel</text>
<text text-anchor="middle" x="1190.12" y="-330.5" font-family="Helvetica,sans-Serif" font-size="10.00" fill="grey">hierLevel</text>
<text text-anchor="start" x="1132" y="-318.5" font-family="Helvetica,sans-Serif" font-size="10.00" fill="grey">m_CurrentSettingAlternate</text>
<text text-anchor="middle" x="1190.12" y="-306.5" font-family="Helvetica,sans-Serif" font-size="10.00" fill="grey">KeyIndex</text>
<text text-anchor="middle" x="1190.12" y="-294.5" font-family="Helvetica,sans-Serif" font-size="10.00" fill="grey">m_CurrentSettingKeyIndex</text>
</g>
<!-- Node4 -->
<g id="Node000004" class="node">
<title>Node4</title>
<g id="a_Node000004"><a xlink:href="../../db/d09/class_universal_temperature_source.html" target="_top" xlink:title="original Timer deletes m_params which is unwanted">
<polygon fill="white" stroke="#666666" points="234.88,-94 95.12,-94 95.12,-74 234.88,-74 234.88,-94"/>
<text text-anchor="middle" x="165" y="-80.5" font-family="Helvetica,sans-Serif" font-size="10.00">UniversalTemperatureSource</text>
</a>
</g>
</g>
<!-- Node4&#45;&gt;Node1 -->
<g id="edge3_Node000001_Node000004" class="edge">
<title>Node4&#45;&gt;Node1</title>
<g id="a_edge3_Node000001_Node000004"><a xlink:title=" ">
<path fill="none" stroke="#9a32cd" stroke-dasharray="5,2" d="M226.49,-71.41C301.62,-57.25 427.3,-33.56 496.86,-20.45"/>
<polygon fill="#9a32cd" stroke="#9a32cd" points="226,-67.94 216.82,-73.23 227.3,-74.82 226,-67.94"/>
</a>
</g>
<text text-anchor="middle" x="430.62" y="-40.5" font-family="Helvetica,sans-Serif" font-size="10.00" fill="grey"> m_UTSource</text>
</g>
<!-- Node5 -->
<g id="Node000005" class="node">
<title>Node5</title>
<g id="a_Node000005"><a xlink:href="../../d8/d08/class_timer.html" target="_top" xlink:title=" ">
<polygon fill="white" stroke="#666666" points="40,-194 0,-194 0,-174 40,-174 40,-194"/>
<text text-anchor="middle" x="20" y="-180.5" font-family="Helvetica,sans-Serif" font-size="10.00">Timer</text>
</a>
</g>
</g>
<!-- Node5&#45;&gt;Node4 -->
<g id="edge4_Node000004_Node000005" class="edge">
<title>Node5&#45;&gt;Node4</title>
<g id="a_edge4_Node000004_Node000005"><a xlink:title=" ">
<path fill="none" stroke="#8b1a1a" d="M28.32,-163.2C35.33,-148.76 46.68,-129.73 62,-118 76.53,-106.87 94.94,-99.43 112.16,-94.48"/>
<polygon fill="#8b1a1a" stroke="#8b1a1a" points="25.18,-161.64 24.26,-172.19 31.56,-164.52 25.18,-161.64"/>
</a>
</g>
</g>
<!-- Node6 -->
<g id="Node000006" class="node">
<title>Node6</title>
<g id="a_Node000006"><a xlink:href="../../db/d09/class_universal_temperature_source_settings.html" target="_top" xlink:title=" ">
<polygon fill="white" stroke="#666666" points="616.88,-100 477.12,-100 477.12,-68 616.88,-68 616.88,-100"/>
<text text-anchor="start" x="485.12" y="-86.5" font-family="Helvetica,sans-Serif" font-size="10.00">UniversalTemperatureSource</text>
<text text-anchor="middle" x="547" y="-74.5" font-family="Helvetica,sans-Serif" font-size="10.00">Settings</text>
</a>
</g>
</g>
<!-- Node6&#45;&gt;Node1 -->
<g id="edge5_Node000001_Node000006" class="edge">
<title>Node6&#45;&gt;Node1</title>
<g id="a_edge5_Node000001_Node000006"><a xlink:title=" ">
<path fill="none" stroke="#9a32cd" stroke-dasharray="5,2" d="M547,-56.34C547,-43.7 547,-29.41 547,-20.31"/>
<polygon fill="#9a32cd" stroke="#9a32cd" points="543.5,-56.22 547,-66.22 550.5,-56.22 543.5,-56.22"/>
</a>
</g>
<text text-anchor="middle" x="582.62" y="-40.5" font-family="Helvetica,sans-Serif" font-size="10.00" fill="grey"> m_UTSSettings</text>
</g>
<!-- Node7 -->
<g id="Node000007" class="node">
<title>Node7</title>
<g id="a_Node000007"><a xlink:href="../../d4/d03/classfloat.html" target="_top" xlink:title=" ">
<polygon fill="white" stroke="#666666" points="114,-338 80,-338 80,-318 114,-318 114,-338"/>
<text text-anchor="middle" x="97" y="-324.5" font-family="Helvetica,sans-Serif" font-size="10.00">float</text>
</a>
</g>
</g>
<!-- Node7&#45;&gt;Node6 -->
<g id="edge6_Node000006_Node000007" class="edge">
<title>Node7&#45;&gt;Node6</title>
<g id="a_edge6_Node000006_Node000007"><a xlink:title=" ">
<path fill="none" stroke="#9a32cd" stroke-dasharray="5,2" d="M92.57,-306.56C89.56,-287.2 88.3,-258.16 102,-238 185.24,-115.54 373.68,-89.79 476.63,-85.19"/>
<polygon fill="#9a32cd" stroke="#9a32cd" points="89.09,-307.03 94.37,-316.21 95.97,-305.74 89.09,-307.03"/>
</a>
</g>
<text text-anchor="middle" x="248.12" y="-210.5" font-family="Helvetica,sans-Serif" font-size="10.00" fill="grey"> m_RangeFull</text>
<text text-anchor="middle" x="248.12" y="-198.5" font-family="Helvetica,sans-Serif" font-size="10.00" fill="grey">m_RangeMax</text>
<text text-anchor="middle" x="248.12" y="-186.5" font-family="Helvetica,sans-Serif" font-size="10.00" fill="grey">m_TemperatureCap</text>
<text text-anchor="middle" x="248.12" y="-174.5" font-family="Helvetica,sans-Serif" font-size="10.00" fill="grey">m_TemperatureMax</text>
<text text-anchor="middle" x="248.12" y="-162.5" font-family="Helvetica,sans-Serif" font-size="10.00" fill="grey">m_TemperatureMin</text>
<text text-anchor="middle" x="248.12" y="-150.5" font-family="Helvetica,sans-Serif" font-size="10.00" fill="grey">m_UpdateInterval</text>
</g>
<!-- Node7&#45;&gt;Node7 -->
<g id="edge7_Node000007_Node000007" class="edge">
<title>Node7&#45;&gt;Node7</title>
<g id="a_edge7_Node000007_Node000007"><a xlink:title=" ">
<path fill="none" stroke="#9a32cd" stroke-dasharray="5,2" d="M118.68,-341.5C126.06,-341.58 132,-337.08 132,-328 132,-314.64 119.15,-311.2 107.75,-317.67"/>
<polygon fill="#9a32cd" stroke="#9a32cd" points="119.78,-338.17 109.2,-338.75 117.83,-344.9 119.78,-338.17"/>
</a>
</g>
<text text-anchor="middle" x="154.12" y="-336.5" font-family="Helvetica,sans-Serif" font-size="10.00" fill="grey"> LOWEST</text>
<text text-anchor="middle" x="154.12" y="-324.5" font-family="Helvetica,sans-Serif" font-size="10.00" fill="grey">MAX</text>
<text text-anchor="middle" x="154.12" y="-312.5" font-family="Helvetica,sans-Serif" font-size="10.00" fill="grey">MIN</text>
</g>
<!-- Node10 -->
<g id="Node000010" class="node">
<title>Node10</title>
<g id="a_Node000010"><a xlink:href="../../df/d09/class_entity_a_i.html" target="_top" xlink:title=" ">
<polygon fill="white" stroke="#666666" points="442.25,-194 391.75,-194 391.75,-174 442.25,-174 442.25,-194"/>
<text text-anchor="middle" x="417" y="-180.5" font-family="Helvetica,sans-Serif" font-size="10.00">EntityAI</text>
</a>
</g>
</g>
<!-- Node7&#45;&gt;Node10 -->
<g id="edge28_Node000010_Node000007" class="edge">
<title>Node7&#45;&gt;Node10</title>
<g id="a_edge28_Node000010_Node000007"><a xlink:title=" ">
<path fill="none" stroke="#9a32cd" stroke-dasharray="5,2" d="M98.72,-306.57C101.58,-286.07 109.21,-255.14 129.5,-238 169.14,-204.51 328.91,-190.7 391.59,-186.51"/>
<polygon fill="#9a32cd" stroke="#9a32cd" points="95.27,-305.95 97.65,-316.27 102.23,-306.72 95.27,-305.95"/>
</a>
</g>
<text text-anchor="middle" x="186.75" y="-258.5" font-family="Helvetica,sans-Serif" font-size="10.00" fill="grey"> SOUND_CONTACT_SKIP</text>
<text text-anchor="middle" x="186.75" y="-246.5" font-family="Helvetica,sans-Serif" font-size="10.00" fill="grey">m_SoundContactTickTime</text>
</g>
<!-- Node8 -->
<g id="Node000008" class="node">
<title>Node8</title>
<g id="a_Node000008"><a xlink:href="../../d9/d09/classbool.html" target="_top" xlink:title=" ">
<polygon fill="white" stroke="#666666" points="579,-338 545,-338 545,-318 579,-318 579,-338"/>
<text text-anchor="middle" x="562" y="-324.5" font-family="Helvetica,sans-Serif" font-size="10.00">bool</text>
</a>
</g>
</g>
<!-- Node8&#45;&gt;Node6 -->
<g id="edge8_Node000006_Node000008" class="edge">
<title>Node8&#45;&gt;Node6</title>
<g id="a_edge8_Node000006_Node000008"><a xlink:title=" ">
<path fill="none" stroke="#9a32cd" stroke-dasharray="5,2" d="M583.7,-310.76C594.4,-301.35 606.24,-288.51 612,-274 617.91,-259.13 615.19,-253.68 612,-238 601.17,-184.83 571.19,-127.24 556.03,-100.4"/>
<polygon fill="#9a32cd" stroke="#9a32cd" points="581.79,-307.79 576.3,-316.85 586.24,-313.2 581.79,-307.79"/>
</a>
</g>
<text text-anchor="middle" x="644.88" y="-192.5" font-family="Helvetica,sans-Serif" font-size="10.00" fill="grey"> m_AffectStat</text>
<text text-anchor="middle" x="644.88" y="-180.5" font-family="Helvetica,sans-Serif" font-size="10.00" fill="grey">m_ManualUpdate</text>
<text text-anchor="middle" x="644.88" y="-168.5" font-family="Helvetica,sans-Serif" font-size="10.00" fill="grey">m_Updateable</text>
</g>
<!-- Node8&#45;&gt;Node10 -->
<g id="edge31_Node000010_Node000008" class="edge">
<title>Node8&#45;&gt;Node10</title>
<g id="a_edge31_Node000010_Node000008"><a xlink:title=" ">
<path fill="none" stroke="#9a32cd" stroke-dasharray="5,2" d="M549.62,-308.18C542.97,-298.06 534.64,-285.36 527.25,-274 516.86,-258.04 517.64,-251.29 504,-238 484.49,-219 456.97,-203.68 438.14,-194.49"/>
<polygon fill="#9a32cd" stroke="#9a32cd" points="546.58,-309.93 555,-316.37 552.43,-306.09 546.58,-309.93"/>
</a>
</g>
<text text-anchor="middle" x="569.38" y="-258.5" font-family="Helvetica,sans-Serif" font-size="10.00" fill="grey"> m_ActionsInitialize</text>
<text text-anchor="middle" x="569.38" y="-246.5" font-family="Helvetica,sans-Serif" font-size="10.00" fill="grey">m_IsMeleeWeapon</text>
</g>
<!-- Node9 -->
<g id="Node000009" class="node">
<title>Node9</title>
<g id="a_Node000009"><a xlink:href="../../d7/d0c/classvector.html" target="_top" xlink:title=" ">
<polygon fill="white" stroke="#666666" points="761.75,-194 720.25,-194 720.25,-174 761.75,-174 761.75,-194"/>
<text text-anchor="middle" x="741" y="-180.5" font-family="Helvetica,sans-Serif" font-size="10.00">vector</text>
</a>
</g>
</g>
<!-- Node9&#45;&gt;Node6 -->
<g id="edge9_Node000006_Node000009" class="edge">
<title>Node9&#45;&gt;Node6</title>
<g id="a_edge9_Node000006_Node000009"><a xlink:title=" ">
<path fill="none" stroke="#9a32cd" stroke-dasharray="5,2" d="M725.85,-165.44C720.06,-159.41 713.12,-152.93 706,-148 674.88,-126.44 635.32,-110.73 603.45,-100.39"/>
<polygon fill="#9a32cd" stroke="#9a32cd" points="723.07,-167.59 732.4,-172.62 728.25,-162.88 723.07,-167.59"/>
</a>
</g>
<text text-anchor="middle" x="698.88" y="-120.5" font-family="Helvetica,sans-Serif" font-size="10.00" fill="grey"> m_Position</text>
</g>
<!-- Node9&#45;&gt;Node9 -->
<g id="edge10_Node000009_Node000009" class="edge">
<title>Node9&#45;&gt;Node9</title>
<g id="a_edge10_Node000009_Node000009"><a xlink:title=" ">
<path fill="none" stroke="#9a32cd" stroke-dasharray="5,2" d="M770.02,-194.76C775.71,-193.52 779.75,-189.93 779.75,-184 779.75,-174.51 769.4,-171.02 758.53,-173.54"/>
<polygon fill="#9a32cd" stroke="#9a32cd" points="770.14,-191.26 760.05,-194.5 769.95,-198.26 770.14,-191.26"/>
</a>
</g>
<text text-anchor="middle" x="797" y="-198.5" font-family="Helvetica,sans-Serif" font-size="10.00" fill="grey"> Aside</text>
<text text-anchor="middle" x="797" y="-186.5" font-family="Helvetica,sans-Serif" font-size="10.00" fill="grey">Forward</text>
<text text-anchor="middle" x="797" y="-174.5" font-family="Helvetica,sans-Serif" font-size="10.00" fill="grey">Up</text>
<text text-anchor="middle" x="797" y="-162.5" font-family="Helvetica,sans-Serif" font-size="10.00" fill="grey">Zero</text>
</g>
<!-- Node10&#45;&gt;Node6 -->
<g id="edge11_Node000006_Node000010" class="edge">
<title>Node10&#45;&gt;Node6</title>
<g id="a_edge11_Node000006_Node000010"><a xlink:title=" ">
<path fill="none" stroke="#9a32cd" stroke-dasharray="5,2" d="M438.33,-166.92C462.83,-148.45 502.73,-118.38 526.76,-100.26"/>
<polygon fill="#9a32cd" stroke="#9a32cd" points="436.55,-163.88 430.67,-172.69 440.77,-169.47 436.55,-163.88"/>
</a>
</g>
<text text-anchor="middle" x="523.5" y="-120.5" font-family="Helvetica,sans-Serif" font-size="10.00" fill="grey"> m_Parent</text>
</g>
<!-- Node11&#45;&gt;Node10 -->
<g id="edge12_Node000010_Node000011" class="edge">
<title>Node11&#45;&gt;Node10</title>
<g id="a_edge12_Node000010_Node000011"><a xlink:title=" ">
<path fill="none" stroke="#9a32cd" stroke-dasharray="5,2" d="M811.89,-310.2C804.1,-303.72 794.59,-296.74 785,-292 756.88,-278.09 746.71,-283.29 716.75,-274 671.33,-259.92 661.4,-252.13 616,-238 554.38,-218.82 480.72,-200.34 442.64,-191.11"/>
<polygon fill="#9a32cd" stroke="#9a32cd" points="809.46,-312.72 819.29,-316.67 814.07,-307.45 809.46,-312.72"/>
</a>
</g>
<text text-anchor="middle" x="765.12" y="-264.5" font-family="Helvetica,sans-Serif" font-size="10.00" fill="grey"> m_ContinuousActions</text>
<text text-anchor="middle" x="765.12" y="-252.5" font-family="Helvetica,sans-Serif" font-size="10.00" fill="grey">m_InteractActions</text>
<text text-anchor="middle" x="765.12" y="-240.5" font-family="Helvetica,sans-Serif" font-size="10.00" fill="grey">m_SingleUseActions</text>
</g>
<!-- Node11&#45;&gt;Node11 -->
<g id="edge15_Node000011_Node000011" class="edge">
<title>Node11&#45;&gt;Node11</title>
<g id="a_edge15_Node000011_Node000011"><a xlink:title=" ">
<path fill="none" stroke="#9a32cd" stroke-dasharray="5,2" d="M852.3,-341.49C860.33,-341.78 866.88,-337.29 866.88,-328 866.88,-314.64 853.33,-311.2 841.33,-317.67"/>
<polygon fill="#9a32cd" stroke="#9a32cd" points="853.36,-338.15 842.78,-338.75 851.43,-344.88 853.36,-338.15"/>
</a>
</g>
<text text-anchor="middle" x="887.88" y="-324.5" font-family="Helvetica,sans-Serif" font-size="10.00" fill="grey"> proxyInfo</text>
</g>
<!-- Node11&#45;&gt;Node16 -->
<g id="edge23_Node000016_Node000011" class="edge">
<title>Node11&#45;&gt;Node16</title>
<g id="a_edge23_Node000016_Node000011"><a xlink:title=" ">
<path fill="none" stroke="#9a32cd" stroke-dasharray="5,2" d="M824.07,-306.47C819.81,-287.66 816.47,-259.55 827,-238 836.85,-217.83 858.51,-203.1 874.75,-194.36"/>
<polygon fill="#9a32cd" stroke="#9a32cd" points="820.66,-307.29 826.56,-316.1 827.44,-305.54 820.66,-307.29"/>
</a>
</g>
<text text-anchor="middle" x="848" y="-252.5" font-family="Helvetica,sans-Serif" font-size="10.00" fill="grey"> proxyInfo</text>
</g>
<!-- Node12 -->
<g id="Node000012" class="node">
<title>Node12</title>
<g id="a_Node000012"><a xlink:href="../../d8/d03/class_object.html" target="_top" xlink:title=" ">
<polygon fill="white" stroke="#666666" points="973.25,-492 928.75,-492 928.75,-472 973.25,-472 973.25,-492"/>
<text text-anchor="middle" x="951" y="-478.5" font-family="Helvetica,sans-Serif" font-size="10.00">Object</text>
</a>
</g>
</g>
<!-- Node12&#45;&gt;Node11 -->
<g id="edge13_Node000011_Node000012" class="edge">
<title>Node12&#45;&gt;Node11</title>
<g id="a_edge13_Node000011_Node000012"><a xlink:title=" ">
<path fill="none" stroke="#9a32cd" stroke-dasharray="5,2" d="M938.98,-462.27C925.63,-441.9 903.04,-408.66 881,-382 867.66,-365.86 850.48,-348.65 839.86,-338.36"/>
<polygon fill="#9a32cd" stroke="#9a32cd" points="935.87,-463.9 944.25,-470.38 941.74,-460.09 935.87,-463.9"/>
</a>
</g>
<text text-anchor="middle" x="946.5" y="-420.5" font-family="Helvetica,sans-Serif" font-size="10.00" fill="grey"> obj</text>
<text text-anchor="middle" x="946.5" y="-408.5" font-family="Helvetica,sans-Serif" font-size="10.00" fill="grey">parent</text>
</g>
<!-- Node12&#45;&gt;Node16 -->
<g id="edge21_Node000016_Node000012" class="edge">
<title>Node12&#45;&gt;Node16</title>
<g id="a_edge21_Node000016_Node000012"><a xlink:title=" ">
<path fill="none" stroke="#9a32cd" stroke-dasharray="5,2" d="M961.92,-461.46C979.72,-427.12 1011.52,-353.72 996,-292 989.35,-265.58 984.85,-258.58 967,-238 951.03,-219.59 927.57,-203.83 911.81,-194.39"/>
<polygon fill="#9a32cd" stroke="#9a32cd" points="958.87,-459.74 957.23,-470.21 965.04,-463.05 958.87,-459.74"/>
</a>
</g>
<text text-anchor="middle" x="1013.5" y="-330.5" font-family="Helvetica,sans-Serif" font-size="10.00" fill="grey"> obj</text>
<text text-anchor="middle" x="1013.5" y="-318.5" font-family="Helvetica,sans-Serif" font-size="10.00" fill="grey">parent</text>
</g>
<!-- Node13 -->
<g id="Node000013" class="node">
<title>Node13</title>
<g id="a_Node000013"><a xlink:href="../../d4/d04/class_class.html" target="_top" xlink:title="Super root of all classes in Enforce script.">
<polygon fill="white" stroke="#666666" points="783.38,-492 742.62,-492 742.62,-472 783.38,-472 783.38,-492"/>
<text text-anchor="middle" x="763" y="-478.5" font-family="Helvetica,sans-Serif" font-size="10.00">Class</text>
</a>
</g>
</g>
<!-- Node13&#45;&gt;Node11 -->
<g id="edge16_Node000011_Node000013" class="edge">
<title>Node13&#45;&gt;Node11</title>
<g id="a_edge16_Node000011_Node000013"><a xlink:title=" ">
<path fill="none" stroke="#9a32cd" stroke-dasharray="5,2" d="M760.61,-460.37C759.13,-439.49 759.43,-406.83 771.75,-382 777.06,-371.28 802.33,-350.45 817.79,-338.34"/>
<polygon fill="#9a32cd" stroke="#9a32cd" points="757.11,-460.53 761.53,-470.16 764.08,-459.88 757.11,-460.53"/>
</a>
</g>
<text text-anchor="middle" x="797.62" y="-414.5" font-family="Helvetica,sans-Serif" font-size="10.00" fill="grey"> m_Instance</text>
</g>
<!-- Node13&#45;&gt;Node16 -->
<g id="edge24_Node000016_Node000013" class="edge">
<title>Node13&#45;&gt;Node16</title>
<g id="a_edge24_Node000016_Node000013"><a xlink:title=" ">
<path fill="none" stroke="#9a32cd" stroke-dasharray="5,2" d="M753.72,-461.78C736.98,-425.91 702.3,-345.85 690,-274 687.3,-258.23 679.47,-250.05 690,-238 709.62,-215.54 794.45,-228.63 823,-220 843.36,-213.85 865.1,-202.55 879.3,-194.45"/>
<polygon fill="#9a32cd" stroke="#9a32cd" points="750.38,-462.91 757.83,-470.45 756.71,-459.91 750.38,-462.91"/>
</a>
</g>
<text text-anchor="middle" x="739.62" y="-324.5" font-family="Helvetica,sans-Serif" font-size="10.00" fill="grey"> m_Instance</text>
</g>
<!-- Node14 -->
<g id="Node000014" class="node">
<title>Node14</title>
<g id="a_Node000014"><a xlink:href="../../d5/d02/classstring.html" target="_top" xlink:title=" ">
<polygon fill="white" stroke="#666666" points="671,-492 631,-492 631,-472 671,-472 671,-492"/>
<text text-anchor="middle" x="651" y="-478.5" font-family="Helvetica,sans-Serif" font-size="10.00">string</text>
</a>
</g>
</g>
<!-- Node14&#45;&gt;Node11 -->
<g id="edge17_Node000011_Node000014" class="edge">
<title>Node14&#45;&gt;Node11</title>
<g id="a_edge17_Node000011_Node000014"><a xlink:title=" ">
<path fill="none" stroke="#9a32cd" stroke-dasharray="5,2" d="M659.5,-461.4C670.27,-438.87 690.96,-402.4 719.75,-382 744.3,-364.61 758.11,-377.49 785,-364 798.45,-357.25 811.79,-346.18 820.41,-338.3"/>
<polygon fill="#9a32cd" stroke="#9a32cd" points="656.37,-459.82 655.41,-470.37 662.74,-462.72 656.37,-459.82"/>
</a>
</g>
<text text-anchor="middle" x="736.62" y="-414.5" font-family="Helvetica,sans-Serif" font-size="10.00" fill="grey"> m_Test</text>
</g>
<!-- Node14&#45;&gt;Node14 -->
<g id="edge18_Node000014_Node000014" class="edge">
<title>Node14&#45;&gt;Node14</title>
<g id="a_edge18_Node000014_Node000014"><a xlink:title=" ">
<path fill="none" stroke="#9a32cd" stroke-dasharray="5,2" d="M676.77,-493.91C683.72,-493.28 689,-489.31 689,-482 689,-471.12 677.3,-467.64 665.82,-471.55"/>
<polygon fill="#9a32cd" stroke="#9a32cd" points="677.7,-490.5 667.32,-492.65 676.77,-497.44 677.7,-490.5"/>
</a>
</g>
<text text-anchor="middle" x="704.75" y="-478.5" font-family="Helvetica,sans-Serif" font-size="10.00" fill="grey"> Empty</text>
</g>
<!-- Node14&#45;&gt;Node16 -->
<g id="edge25_Node000016_Node000014" class="edge">
<title>Node14&#45;&gt;Node16</title>
<g id="a_edge25_Node000016_Node000014"><a xlink:title=" ">
<path fill="none" stroke="#9a32cd" stroke-dasharray="5,2" d="M648.45,-460.74C644.68,-425.75 639.48,-351.99 653.75,-292 659.92,-266.04 658.31,-253.54 680,-238 732.07,-200.69 761.6,-238.25 823,-220 843.38,-213.94 865.12,-202.62 879.31,-194.5"/>
<polygon fill="#9a32cd" stroke="#9a32cd" points="644.93,-460.75 649.56,-470.27 651.88,-459.94 644.93,-460.75"/>
</a>
</g>
<text text-anchor="middle" x="670.62" y="-324.5" font-family="Helvetica,sans-Serif" font-size="10.00" fill="grey"> m_Test</text>
</g>
<!-- Node17 -->
<g id="Node000017" class="node">
<title>Node17</title>
<g id="a_Node000017"><a xlink:href="../../d4/d0d/class_sound_lookup_table.html" target="_top" xlink:title=" ">
<polygon fill="white" stroke="#666666" points="305.25,-338 206.75,-338 206.75,-318 305.25,-318 305.25,-338"/>
<text text-anchor="middle" x="256" y="-324.5" font-family="Helvetica,sans-Serif" font-size="10.00">SoundLookupTable</text>
</a>
</g>
</g>
<!-- Node14&#45;&gt;Node17 -->
<g id="edge30_Node000017_Node000014" class="edge">
<title>Node14&#45;&gt;Node17</title>
<g id="a_edge30_Node000017_Node000014"><a xlink:title=" ">
<path fill="none" stroke="#9a32cd" stroke-dasharray="5,2" d="M619.62,-474.93C596.73,-470.16 565.11,-462.85 538,-454 439.52,-421.86 416.77,-408.02 323,-364 305.77,-355.91 286.57,-345.76 273.15,-338.47"/>
<polygon fill="#9a32cd" stroke="#9a32cd" points="618.74,-478.32 629.24,-476.89 620.14,-471.46 618.74,-478.32"/>
</a>
</g>
<text text-anchor="middle" x="587.5" y="-420.5" font-family="Helvetica,sans-Serif" font-size="10.00" fill="grey"> m_parameterName</text>
<text text-anchor="middle" x="587.5" y="-408.5" font-family="Helvetica,sans-Serif" font-size="10.00" fill="grey">m_tableCategoryName</text>
</g>
<!-- Node15 -->
<g id="Node000015" class="node">
<title>Node15</title>
<g id="a_Node000015"><a xlink:href="../../dd/d0a/class_widget.html" target="_top" xlink:title=" ">
<polygon fill="white" stroke="#666666" points="888.38,-492 841.62,-492 841.62,-472 888.38,-472 888.38,-492"/>
<text text-anchor="middle" x="865" y="-478.5" font-family="Helvetica,sans-Serif" font-size="10.00">Widget</text>
</a>
</g>
</g>
<!-- Node15&#45;&gt;Node11 -->
<g id="edge19_Node000011_Node000015" class="edge">
<title>Node15&#45;&gt;Node11</title>
<g id="a_edge19_Node000011_Node000015"><a xlink:title=" ">
<path fill="none" stroke="#9a32cd" stroke-dasharray="5,2" d="M848.9,-462.68C847.08,-459.91 845.46,-456.98 844.25,-454 827.79,-413.3 828.39,-359.45 829.41,-338.19"/>
<polygon fill="#9a32cd" stroke="#9a32cd" points="846.12,-464.8 854.98,-470.6 851.67,-460.54 846.12,-464.8"/>
</a>
</g>
<text text-anchor="middle" x="862.38" y="-414.5" font-family="Helvetica,sans-Serif" font-size="10.00" fill="grey"> m_Root</text>
</g>
<!-- Node15&#45;&gt;Node16 -->
<g id="edge26_Node000016_Node000015" class="edge">
<title>Node15&#45;&gt;Node16</title>
<g id="a_edge26_Node000016_Node000015"><a xlink:title=" ">
<path fill="none" stroke="#9a32cd" stroke-dasharray="5,2" d="M899.78,-474.31C911.44,-470.33 923.4,-464.01 931,-454 979.7,-389.85 947.33,-354.41 952,-274 952.93,-258.03 958.39,-252.67 952,-238 943.69,-218.92 924.75,-203.62 910.98,-194.45"/>
<polygon fill="#9a32cd" stroke="#9a32cd" points="898.95,-470.91 890.3,-477.03 900.88,-477.64 898.95,-470.91"/>
</a>
</g>
<text text-anchor="middle" x="975.38" y="-324.5" font-family="Helvetica,sans-Serif" font-size="10.00" fill="grey"> m_Root</text>
</g>
<!-- Node16&#45;&gt;Node11 -->
<g id="edge20_Node000011_Node000016" class="edge">
<title>Node16&#45;&gt;Node11</title>
<g id="a_edge20_Node000011_Node000016"><a xlink:title=" ">
<path fill="none" stroke="#9a32cd" stroke-dasharray="5,2" d="M892.53,-205.54C889.7,-224.17 883.95,-252 873,-274 864.44,-291.18 849.5,-307.84 839.67,-317.76"/>
<polygon fill="#9a32cd" stroke="#9a32cd" points="895.97,-206.18 893.85,-195.8 889.04,-205.24 895.97,-206.18"/>
</a>
</g>
<text text-anchor="middle" x="916.5" y="-252.5" font-family="Helvetica,sans-Serif" font-size="10.00" fill="grey"> m_Subgroups</text>
</g>
<!-- Node16&#45;&gt;Node16 -->
<g id="edge27_Node000016_Node000016" class="edge">
<title>Node16&#45;&gt;Node16</title>
<g id="a_edge27_Node000016_Node000016"><a xlink:title=" ">
<path fill="none" stroke="#9a32cd" stroke-dasharray="5,2" d="M934.09,-195.24C946.47,-195.09 956.25,-191.34 956.25,-184 956.25,-174.51 939.9,-171.02 922.72,-173.54"/>
<polygon fill="#9a32cd" stroke="#9a32cd" points="934.44,-191.76 924.23,-194.56 933.96,-198.74 934.44,-191.76"/>
</a>
</g>
<text text-anchor="middle" x="987.75" y="-180.5" font-family="Helvetica,sans-Serif" font-size="10.00" fill="grey"> m_Subgroups</text>
</g>
<!-- Node17&#45;&gt;Node10 -->
<g id="edge29_Node000010_Node000017" class="edge">
<title>Node17&#45;&gt;Node10</title>
<g id="a_edge29_Node000010_Node000017"><a xlink:title=" ">
<path fill="none" stroke="#9a32cd" stroke-dasharray="5,2" d="M251.22,-306.5C247.91,-286.89 246.41,-257.49 261.25,-238 292.14,-197.44 355.68,-187.67 391.31,-185.48"/>
<polygon fill="#9a32cd" stroke="#9a32cd" points="247.74,-306.93 253.14,-316.04 254.6,-305.55 247.74,-306.93"/>
</a>
</g>
<text text-anchor="middle" x="309.38" y="-252.5" font-family="Helvetica,sans-Serif" font-size="10.00" fill="grey"> m_SoundImpactTable</text>
</g>
<!-- Node18 -->
<g id="Node000018" class="node">
<title>Node18</title>
<g id="a_Node000018"><a xlink:href="../../d4/d0d/class_script_invoker.html" target="_top" xlink:title="ScriptInvoker Class provide list of callbacks &#160;&#160;usage:">
<polygon fill="white" stroke="#666666" points="403.75,-338 332.25,-338 332.25,-318 403.75,-318 403.75,-338"/>
<text text-anchor="middle" x="368" y="-324.5" font-family="Helvetica,sans-Serif" font-size="10.00">ScriptInvoker</text>
</a>
</g>
</g>
<!-- Node18&#45;&gt;Node10 -->
<g id="edge32_Node000010_Node000018" class="edge">
<title>Node18&#45;&gt;Node10</title>
<g id="a_edge32_Node000010_Node000018"><a xlink:title=" ">
<path fill="none" stroke="#9a32cd" stroke-dasharray="5,2" d="M364.23,-306.56C361.72,-288 360.29,-260.21 369,-238 376.16,-219.74 392.76,-203.83 404.43,-194.33"/>
<polygon fill="#9a32cd" stroke="#9a32cd" points="360.75,-306.94 365.79,-316.26 367.66,-305.83 360.75,-306.94"/>
</a>
</g>
<text text-anchor="middle" x="436.5" y="-258.5" font-family="Helvetica,sans-Serif" font-size="10.00" fill="grey"> m_OnItemAddedToHands</text>
<text text-anchor="middle" x="436.5" y="-246.5" font-family="Helvetica,sans-Serif" font-size="10.00" fill="grey">m_OnItemRemovedFromHands</text>
</g>
</g>
</svg>
