<?xml version="1.0" encoding="UTF-8" standalone="no"?>
<!DOCTYPE svg PUBLIC "-//W3C//DTD SVG 1.1//EN"
 "http://www.w3.org/Graphics/SVG/1.1/DTD/svg11.dtd">
<!-- Generated by graphviz version 11.0.0 (20240428.1522)
 -->
<!-- Title: NBCHoodGray Pages: 1 -->
<svg width="95pt" height="196pt"
 viewBox="0.00 0.00 95.25 196.00" xmlns="http://www.w3.org/2000/svg" xmlns:xlink="http://www.w3.org/1999/xlink">
<g id="graph0" class="graph" transform="scale(1 1) rotate(0) translate(4 192)">
<title>NBCHoodGray</title>
<!-- Node1 -->
<g id="Node000001" class="node">
<title>Node1</title>
<g id="a_Node000001"><a xlink:title=" ">
<polygon fill="#999999" stroke="#666666" points="83.5,-20 3.75,-20 3.75,0 83.5,0 83.5,-20"/>
<text text-anchor="middle" x="43.62" y="-6.5" font-family="Helvetica,sans-Serif" font-size="10.00">NBCHoodGray</text>
</a>
</g>
</g>
<!-- Node2 -->
<g id="Node000002" class="node">
<title>Node2</title>
<g id="a_Node000002"><a xlink:href="../../d9/d0c/class_n_b_c_hood_base.html" target="_top" xlink:title=" ">
<polygon fill="white" stroke="#666666" points="84.25,-76 3,-76 3,-56 84.25,-56 84.25,-76"/>
<text text-anchor="middle" x="43.62" y="-62.5" font-family="Helvetica,sans-Serif" font-size="10.00">NBCHoodBase</text>
</a>
</g>
</g>
<!-- Node2&#45;&gt;Node1 -->
<g id="edge1_Node000001_Node000002" class="edge">
<title>Node2&#45;&gt;Node1</title>
<g id="a_edge1_Node000001_Node000002"><a xlink:title=" ">
<path fill="none" stroke="#8b1a1a" d="M43.62,-44.13C43.62,-35.9 43.62,-26.85 43.62,-20.3"/>
<polygon fill="#8b1a1a" stroke="#8b1a1a" points="40.13,-44.08 43.63,-54.08 47.13,-44.08 40.13,-44.08"/>
</a>
</g>
</g>
<!-- Node3 -->
<g id="Node000003" class="node">
<title>Node3</title>
<g id="a_Node000003"><a xlink:href="../../dc/d0d/class_head_gear___base.html" target="_top" xlink:title="hard helmet base">
<polygon fill="white" stroke="#666666" points="87.25,-132 0,-132 0,-112 87.25,-112 87.25,-132"/>
<text text-anchor="middle" x="43.62" y="-118.5" font-family="Helvetica,sans-Serif" font-size="10.00">HeadGear_Base</text>
</a>
</g>
</g>
<!-- Node3&#45;&gt;Node2 -->
<g id="edge2_Node000002_Node000003" class="edge">
<title>Node3&#45;&gt;Node2</title>
<g id="a_edge2_Node000002_Node000003"><a xlink:title=" ">
<path fill="none" stroke="#8b1a1a" d="M43.62,-100.13C43.62,-91.9 43.62,-82.85 43.62,-76.3"/>
<polygon fill="#8b1a1a" stroke="#8b1a1a" points="40.13,-100.08 43.63,-110.08 47.13,-100.08 40.13,-100.08"/>
</a>
</g>
</g>
<!-- Node4 -->
<g id="Node000004" class="node">
<title>Node4</title>
<g id="a_Node000004"><a xlink:href="../../d8/d04/class_clothing.html" target="_top" xlink:title=" ">
<polygon fill="white" stroke="#666666" points="69.25,-188 18,-188 18,-168 69.25,-168 69.25,-188"/>
<text text-anchor="middle" x="43.62" y="-174.5" font-family="Helvetica,sans-Serif" font-size="10.00">Clothing</text>
</a>
</g>
</g>
<!-- Node4&#45;&gt;Node3 -->
<g id="edge3_Node000003_Node000004" class="edge">
<title>Node4&#45;&gt;Node3</title>
<g id="a_edge3_Node000003_Node000004"><a xlink:title=" ">
<path fill="none" stroke="#8b1a1a" d="M43.62,-156.13C43.62,-147.9 43.62,-138.85 43.62,-132.3"/>
<polygon fill="#8b1a1a" stroke="#8b1a1a" points="40.13,-156.08 43.63,-166.08 47.13,-156.08 40.13,-156.08"/>
</a>
</g>
</g>
</g>
</svg>
