<?xml version="1.0" encoding="UTF-8" standalone="no"?>
<!DOCTYPE svg PUBLIC "-//W3C//DTD SVG 1.1//EN"
 "http://www.w3.org/Graphics/SVG/1.1/DTD/svg11.dtd">
<!-- Generated by graphviz version 11.0.0 (20240428.1522)
 -->
<!-- Title: ActionInput_Basic Pages: 1 -->
<!--zoomable 216 -->

<svg id="main" version="1.1" xmlns="http://www.w3.org/2000/svg" xmlns:xlink="http://www.w3.org/1999/xlink" xml:space="preserve" onload="init(evt)">
<style type="text/css"><![CDATA[
.node, .edge {opacity: 0.7;}
.node.selected, .edge.selected {opacity: 1;}
.edge:hover path { stroke: red; }
.edge:hover polygon { stroke: red; fill: red; }
]]></style>

<defs>
  <circle id="rim" cx="0" cy="0" r="7"/>
  <circle id="rim2" cx="0" cy="0" r="3.5"/>
  <g id="zoomPlus">
    <use xlink:href="#rim" fill="#404040"><set attributeName="fill" to="#808080" begin="zoomplus.mouseover" end="zoomplus.mouseout"/></use>
    <path d="M-4,0h8M0,-4v8" fill="none" stroke="white" stroke-width="1.5" pointer-events="none"/>
  </g>
  <g id="zoomMin">
    <use xlink:href="#rim" fill="#404040"><set attributeName="fill" to="#808080" begin="zoomminus.mouseover" end="zoomminus.mouseout"/></use>
    <path d="M-4,0h8" fill="none" stroke="white" stroke-width="1.5" pointer-events="none"/>
  </g>
  <g id="arrowUp" transform="translate(30 24)">
    <use xlink:href="#rim"/>
    <path pointer-events="none" fill="none" stroke="white" stroke-width="1.5" d="M0,-3.0v7 M-2.5,-0.5L0,-3.0L2.5,-0.5"/>
  </g>
  <g id="arrowRight" transform="rotate(90) translate(36 -43)">
    <use xlink:href="#rim"/>
    <path pointer-events="none" fill="none" stroke="white" stroke-width="1.5" d="M0,-3.0v7 M-2.5,-0.5L0,-3.0L2.5,-0.5"/>
  </g>
  <g id="arrowDown" transform="rotate(180) translate(-30 -48)">
    <use xlink:href="#rim"/>
    <path pointer-events="none" fill="none" stroke="white" stroke-width="1.5" d="M0,-3.0v7 M-2.5,-0.5L0,-3.0L2.5,-0.5"/>
  </g>
  <g id="arrowLeft" transform="rotate(270) translate(-36 17)">
    <use xlink:href="#rim"/>
    <path pointer-events="none" fill="none" stroke="white" stroke-width="1.5" d="M0,-3.0v7 M-2.5,-0.5L0,-3.0L2.5,-0.5"/>
  </g>
  <g id="resetDef">
    <use xlink:href="#rim2" fill="#404040"><set attributeName="fill" to="#808080" begin="reset.mouseover" end="reset.mouseout"/></use>
  </g>
</defs>
<script type="application/ecmascript">
var viewWidth = 718;
var viewHeight = 216;
var sectionId = 'dynsection-0';
</script>
<script type="application/ecmascript" xlink:href="../../svg.min.js"/>
<svg id="graph" class="graph">
<g id="viewport">
<title>ActionInput_Basic</title>
<!-- Node1 -->
<g id="Node000001" class="node">
<title>Node1</title>
<g id="a_Node000001"><a xlink:title=" ">
<polygon fill="#999999" stroke="#666666" points="94.75,-114 0,-114 0,-94 94.75,-94 94.75,-114"/>
<text text-anchor="middle" x="47.38" y="-100.5" font-family="Helvetica,sans-Serif" font-size="10.00">ActionInput_Basic</text>
</a>
</g>
</g>
<!-- Node2 -->
<g id="Node000002" class="node">
<title>Node2</title>
<g id="a_Node000002"><a xlink:href="../../dc/d07/class_action_input.html" target="_top" xlink:title=" ">
<polygon fill="white" stroke="#666666" points="195.5,-114 130.75,-114 130.75,-94 195.5,-94 195.5,-114"/>
<text text-anchor="middle" x="163.12" y="-100.5" font-family="Helvetica,sans-Serif" font-size="10.00">ActionInput</text>
</a>
</g>
</g>
<!-- Node1&#45;&gt;Node2 -->
<g id="edge1_Node000001_Node000002" class="edge">
<title>Node1&#45;&gt;Node2</title>
<g id="a_edge1_Node000001_Node000002"><a xlink:title=" ">
<path fill="none" stroke="#8b1a1a" d="M106.24,-104C114.55,-104 122.82,-104 130.36,-104"/>
<polygon fill="#8b1a1a" stroke="#8b1a1a" points="106.48,-100.5 96.48,-104 106.48,-107.5 106.48,-100.5"/>
</a>
</g>
</g>
<!-- Node3 -->
<g id="Node000003" class="node">
<title>Node3</title>
<g id="a_Node000003"><a xlink:href="../../d7/d06/class_no_indication_action_input_base.html" target="_top" xlink:title=" ">
<polygon fill="white" stroke="#666666" points="372,-114 231.5,-114 231.5,-94 372,-94 372,-114"/>
<text text-anchor="middle" x="301.75" y="-100.5" font-family="Helvetica,sans-Serif" font-size="10.00">NoIndicationActionInputBase</text>
</a>
</g>
</g>
<!-- Node2&#45;&gt;Node3 -->
<g id="edge2_Node000002_Node000003" class="edge">
<title>Node2&#45;&gt;Node3</title>
<g id="a_edge2_Node000002_Node000003"><a xlink:title=" ">
<path fill="none" stroke="#8b1a1a" d="M207.32,-104C214.94,-104 223.04,-104 231.16,-104"/>
<polygon fill="#8b1a1a" stroke="#8b1a1a" points="207.33,-100.5 197.33,-104 207.33,-107.5 207.33,-100.5"/>
</a>
</g>
</g>
<!-- Node4 -->
<g id="Node000004" class="node">
<title>Node4</title>
<g id="a_Node000004"><a xlink:href="../../de/d0a/class_continuous_weapon_manipulation_action_input.html" target="_top" xlink:title=" ">
<polygon fill="white" stroke="#666666" points="563.5,-208 408,-208 408,-176 563.5,-176 563.5,-208"/>
<text text-anchor="start" x="416" y="-194.5" font-family="Helvetica,sans-Serif" font-size="10.00">ContinuousWeaponManipulation</text>
<text text-anchor="middle" x="485.75" y="-182.5" font-family="Helvetica,sans-Serif" font-size="10.00">ActionInput</text>
</a>
</g>
</g>
<!-- Node3&#45;&gt;Node4 -->
<g id="edge3_Node000003_Node000004" class="edge">
<title>Node3&#45;&gt;Node4</title>
<g id="a_edge3_Node000003_Node000004"><a xlink:title=" ">
<path fill="none" stroke="#8b1a1a" d="M326.82,-120.55C347.63,-134.31 378.85,-153.73 408,-167 414.76,-170.08 422.01,-172.95 429.26,-175.58"/>
<polygon fill="#8b1a1a" stroke="#8b1a1a" points="329.02,-117.8 318.76,-115.14 325.12,-123.61 329.02,-117.8"/>
</a>
</g>
</g>
<!-- Node5 -->
<g id="Node000005" class="node">
<title>Node5</title>
<g id="a_Node000005"><a xlink:href="../../d4/d0f/class_drop_action_input.html" target="_top" xlink:title=" ">
<polygon fill="white" stroke="#666666" points="528.25,-158 443.25,-158 443.25,-138 528.25,-138 528.25,-158"/>
<text text-anchor="middle" x="485.75" y="-144.5" font-family="Helvetica,sans-Serif" font-size="10.00">DropActionInput</text>
</a>
</g>
</g>
<!-- Node3&#45;&gt;Node5 -->
<g id="edge4_Node000003_Node000005" class="edge">
<title>Node3&#45;&gt;Node5</title>
<g id="a_edge4_Node000003_Node000005"><a xlink:title=" ">
<path fill="none" stroke="#8b1a1a" d="M356.91,-117.09C384.42,-123.74 417.33,-131.7 442.87,-137.87"/>
<polygon fill="#8b1a1a" stroke="#8b1a1a" points="357.9,-113.73 347.35,-114.78 356.25,-120.54 357.9,-113.73"/>
</a>
</g>
</g>
<!-- Node6 -->
<g id="Node000006" class="node">
<title>Node6</title>
<g id="a_Node000006"><a xlink:href="../../d1/d03/class_external_controlled_action_input.html" target="_top" xlink:title=" ">
<polygon fill="white" stroke="#666666" points="547.38,-120 424.12,-120 424.12,-88 547.38,-88 547.38,-120"/>
<text text-anchor="start" x="432.12" y="-106.5" font-family="Helvetica,sans-Serif" font-size="10.00">ExternalControlledAction</text>
<text text-anchor="middle" x="485.75" y="-94.5" font-family="Helvetica,sans-Serif" font-size="10.00">Input</text>
</a>
</g>
</g>
<!-- Node3&#45;&gt;Node6 -->
<g id="edge5_Node000003_Node000006" class="edge">
<title>Node3&#45;&gt;Node6</title>
<g id="a_edge5_Node000003_Node000006"><a xlink:title=" ">
<path fill="none" stroke="#8b1a1a" d="M383.59,-104C397.1,-104 410.92,-104 423.83,-104"/>
<polygon fill="#8b1a1a" stroke="#8b1a1a" points="383.85,-100.5 373.85,-104 383.85,-107.5 383.85,-100.5"/>
</a>
</g>
</g>
<!-- Node8 -->
<g id="Node000008" class="node">
<title>Node8</title>
<g id="a_Node000008"><a xlink:href="../../db/d00/class_inventory_only_action_input.html" target="_top" xlink:title=" ">
<polygon fill="white" stroke="#666666" points="547.38,-70 424.12,-70 424.12,-50 547.38,-50 547.38,-70"/>
<text text-anchor="middle" x="485.75" y="-56.5" font-family="Helvetica,sans-Serif" font-size="10.00">InventoryOnlyActionInput</text>
</a>
</g>
</g>
<!-- Node3&#45;&gt;Node8 -->
<g id="edge7_Node000003_Node000008" class="edge">
<title>Node3&#45;&gt;Node8</title>
<g id="a_edge7_Node000003_Node000008"><a xlink:title=" ">
<path fill="none" stroke="#8b1a1a" d="M356.75,-90.95C383.84,-84.4 416.21,-76.57 441.61,-70.43"/>
<polygon fill="#8b1a1a" stroke="#8b1a1a" points="356.25,-87.46 347.35,-93.22 357.9,-94.27 356.25,-87.46"/>
</a>
</g>
</g>
<!-- Node9 -->
<g id="Node000009" class="node">
<title>Node9</title>
<g id="a_Node000009"><a xlink:href="../../d4/d0a/class_weapon_manipulation_action_input.html" target="_top" xlink:title=" ">
<polygon fill="white" stroke="#666666" points="553,-32 418.5,-32 418.5,0 553,0 553,-32"/>
<text text-anchor="start" x="426.5" y="-18.5" font-family="Helvetica,sans-Serif" font-size="10.00">WeaponManipulationAction</text>
<text text-anchor="middle" x="485.75" y="-6.5" font-family="Helvetica,sans-Serif" font-size="10.00">Input</text>
</a>
</g>
</g>
<!-- Node3&#45;&gt;Node9 -->
<g id="edge8_Node000003_Node000009" class="edge">
<title>Node3&#45;&gt;Node9</title>
<g id="a_edge8_Node000003_Node000009"><a xlink:title=" ">
<path fill="none" stroke="#8b1a1a" d="M326.82,-87.45C347.63,-73.69 378.85,-54.27 408,-41 414.76,-37.92 422.01,-35.05 429.26,-32.42"/>
<polygon fill="#8b1a1a" stroke="#8b1a1a" points="325.12,-84.39 318.76,-92.86 329.02,-90.2 325.12,-84.39"/>
</a>
</g>
</g>
<!-- Node7 -->
<g id="Node000007" class="node">
<title>Node7</title>
<g id="a_Node000007"><a xlink:href="../../d8/d02/class_quicka_bar_action_input.html" target="_top" xlink:title=" ">
<polygon fill="white" stroke="#666666" points="710,-114 599.5,-114 599.5,-94 710,-94 710,-114"/>
<text text-anchor="middle" x="654.75" y="-100.5" font-family="Helvetica,sans-Serif" font-size="10.00">QuickaBarActionInput</text>
</a>
</g>
</g>
<!-- Node6&#45;&gt;Node7 -->
<g id="edge6_Node000006_Node000007" class="edge">
<title>Node6&#45;&gt;Node7</title>
<g id="a_edge6_Node000006_Node000007"><a xlink:title=" ">
<path fill="none" stroke="#8b1a1a" d="M558.75,-104C572.28,-104 586.23,-104 599.12,-104"/>
<polygon fill="#8b1a1a" stroke="#8b1a1a" points="559.03,-100.5 549.03,-104 559.03,-107.5 559.03,-100.5"/>
</a>
</g>
</g>
</g>
</svg>

<g id="navigator" transform="translate(0 0)" fill="#404254">
  <rect fill="#f2f5e9" fill-opacity="0.5" stroke="#606060" stroke-width=".5" x="0" y="0" width="60" height="60"/>
  <use id="zoomplus" xlink:href="#zoomPlus" x="17" y="9" onmousedown="handleZoom(evt,'in')"/>
  <use id="zoomminus" xlink:href="#zoomMin" x="42" y="9" onmousedown="handleZoom(evt,'out')"/>
  <use id="reset" xlink:href="#resetDef" x="30" y="36" onmousedown="handleReset()"/>
   <use id="arrowup" xlink:href="#arrowUp" x="0" y="0" onmousedown="handlePan(0,-1)"/>
  <use id="arrowright" xlink:href="#arrowRight" x="0" y="0" onmousedown="handlePan(1,0)"/>
  <use id="arrowdown" xlink:href="#arrowDown" x="0" y="0" onmousedown="handlePan(0,1)"/>
  <use id="arrowleft" xlink:href="#arrowLeft" x="0" y="0" onmousedown="handlePan(-1,0)"/>
</g>
<svg viewBox="0 0 15 15" width="100%" height="30px" preserveAspectRatio="xMaxYMin meet">
 <g id="arrow_out" transform="scale(0.3 0.3)">
  <a xlink:href="class_action_input___basic__inherit__graph_org.svg" target="_base">
   <rect id="button" ry="5" rx="5" y="6" x="6" height="38" width="38"
        fill="#f2f5e9" fill-opacity="0.5" stroke="#606060" stroke-width="1.0"/>
   <path id="arrow"
     d="M 11.500037,31.436501 C 11.940474,20.09759 22.043105,11.32322 32.158766,21.979434 L 37.068811,17.246167 C 37.068811,17.246167 37.088388,32 37.088388,32 L 22.160133,31.978069 C 22.160133,31.978069 26.997745,27.140456 26.997745,27.140456 C 18.528582,18.264221 13.291696,25.230495 11.500037,31.436501 z"
     style="fill:#404040;"/>
  </a>
 </g>
</svg>

<style type='text/css'>
<![CDATA[
[data-mouse-over-selected='false'] { opacity: 0.7; }
[data-mouse-over-selected='true']  { opacity: 1.0; }
]]>
</style>
<script type="application/ecmascript"><![CDATA[
document.addEventListener('DOMContentLoaded', (event) => {
  highlightEdges();
  highlightAdjacentNodes();
});
]]></script>
</svg>
