<?xml version="1.0" encoding="UTF-8" standalone="no"?>
<!DOCTYPE svg PUBLIC "-//W3C//DTD SVG 1.1//EN"
 "http://www.w3.org/Graphics/SVG/1.1/DTD/svg11.dtd">
<!-- Generated by graphviz version 11.0.0 (20240428.1522)
 -->
<!-- Title: UndergroundTriggerCarrierBase Pages: 1 -->
<!--zoomable 570 -->

<svg id="main" version="1.1" xmlns="http://www.w3.org/2000/svg" xmlns:xlink="http://www.w3.org/1999/xlink" xml:space="preserve" onload="init(evt)">
<style type="text/css"><![CDATA[
.node, .edge {opacity: 0.7;}
.node.selected, .edge.selected {opacity: 1;}
.edge:hover path { stroke: red; }
.edge:hover polygon { stroke: red; fill: red; }
]]></style>

<defs>
  <circle id="rim" cx="0" cy="0" r="7"/>
  <circle id="rim2" cx="0" cy="0" r="3.5"/>
  <g id="zoomPlus">
    <use xlink:href="#rim" fill="#404040"><set attributeName="fill" to="#808080" begin="zoomplus.mouseover" end="zoomplus.mouseout"/></use>
    <path d="M-4,0h8M0,-4v8" fill="none" stroke="white" stroke-width="1.5" pointer-events="none"/>
  </g>
  <g id="zoomMin">
    <use xlink:href="#rim" fill="#404040"><set attributeName="fill" to="#808080" begin="zoomminus.mouseover" end="zoomminus.mouseout"/></use>
    <path d="M-4,0h8" fill="none" stroke="white" stroke-width="1.5" pointer-events="none"/>
  </g>
  <g id="arrowUp" transform="translate(30 24)">
    <use xlink:href="#rim"/>
    <path pointer-events="none" fill="none" stroke="white" stroke-width="1.5" d="M0,-3.0v7 M-2.5,-0.5L0,-3.0L2.5,-0.5"/>
  </g>
  <g id="arrowRight" transform="rotate(90) translate(36 -43)">
    <use xlink:href="#rim"/>
    <path pointer-events="none" fill="none" stroke="white" stroke-width="1.5" d="M0,-3.0v7 M-2.5,-0.5L0,-3.0L2.5,-0.5"/>
  </g>
  <g id="arrowDown" transform="rotate(180) translate(-30 -48)">
    <use xlink:href="#rim"/>
    <path pointer-events="none" fill="none" stroke="white" stroke-width="1.5" d="M0,-3.0v7 M-2.5,-0.5L0,-3.0L2.5,-0.5"/>
  </g>
  <g id="arrowLeft" transform="rotate(270) translate(-36 17)">
    <use xlink:href="#rim"/>
    <path pointer-events="none" fill="none" stroke="white" stroke-width="1.5" d="M0,-3.0v7 M-2.5,-0.5L0,-3.0L2.5,-0.5"/>
  </g>
  <g id="resetDef">
    <use xlink:href="#rim2" fill="#404040"><set attributeName="fill" to="#808080" begin="reset.mouseover" end="reset.mouseout"/></use>
  </g>
</defs>
<script type="application/ecmascript">
var viewWidth = 1265;
var viewHeight = 570;
var sectionId = 'dynsection-0';
</script>
<script type="application/ecmascript" xlink:href="../../svg.min.js"/>
<svg id="graph" class="graph">
<g id="viewport">
<title>UndergroundTriggerCarrierBase</title>
<!-- Node1 -->
<g id="Node000001" class="node">
<title>Node1</title>
<g id="a_Node000001"><a xlink:title=" ">
<polygon fill="#999999" stroke="#666666" points="498.66,-20 347.66,-20 347.66,0 498.66,0 498.66,-20"/>
<text text-anchor="middle" x="423.16" y="-6.5" font-family="Helvetica,sans-Serif" font-size="10.00">UndergroundTriggerCarrierBase</text>
</a>
</g>
</g>
<!-- Node2 -->
<g id="Node000002" class="node">
<title>Node2</title>
<g id="a_Node000002"><a xlink:href="../../d1/d03/class_json_underground_area_trigger_data.html" target="_top" xlink:title=" ">
<polygon fill="white" stroke="#666666" points="503.53,-88 342.78,-88 342.78,-68 503.53,-68 503.53,-88"/>
<text text-anchor="middle" x="423.16" y="-74.5" font-family="Helvetica,sans-Serif" font-size="10.00">JsonUndergroundAreaTriggerData</text>
</a>
</g>
</g>
<!-- Node2&#45;&gt;Node1 -->
<g id="edge1_Node000001_Node000002" class="edge">
<title>Node2&#45;&gt;Node1</title>
<g id="a_edge1_Node000001_Node000002"><a xlink:title=" ">
<path fill="none" stroke="#9a32cd" stroke-dasharray="5,2" d="M423.16,-56.28C423.16,-44.27 423.16,-29.74 423.16,-20.44"/>
<polygon fill="#9a32cd" stroke="#9a32cd" points="419.66,-56.03 423.16,-66.03 426.66,-56.03 419.66,-56.03"/>
</a>
</g>
<text text-anchor="middle" x="441.53" y="-40.5" font-family="Helvetica,sans-Serif" font-size="10.00" fill="grey"> m_Data</text>
</g>
<!-- Node3 -->
<g id="Node000003" class="node">
<title>Node3</title>
<g id="a_Node000003"><a xlink:href="../../d2/d01/classarray.html" target="_top" xlink:title=" ">
<polygon fill="white" stroke="#666666" points="451.03,-252 377.28,-252 377.28,-232 451.03,-232 451.03,-252"/>
<text text-anchor="middle" x="414.16" y="-238.5" font-family="Helvetica,sans-Serif" font-size="10.00">array&lt; float &gt;</text>
</a>
</g>
</g>
<!-- Node3&#45;&gt;Node2 -->
<g id="edge2_Node000002_Node000003" class="edge">
<title>Node3&#45;&gt;Node2</title>
<g id="a_edge2_Node000002_Node000003"><a xlink:title=" ">
<path fill="none" stroke="#9a32cd" stroke-dasharray="5,2" d="M386.27,-225.54C371.63,-215.75 355.06,-201.6 346.91,-184 340.18,-169.48 340.42,-162.62 346.91,-148 359,-120.75 387.76,-99.69 406.3,-88.34"/>
<polygon fill="#9a32cd" stroke="#9a32cd" points="384.37,-228.48 394.7,-230.82 388.08,-222.54 384.37,-228.48"/>
</a>
</g>
<text text-anchor="middle" x="372.28" y="-174.5" font-family="Helvetica,sans-Serif" font-size="10.00" fill="grey"> Orientation</text>
<text text-anchor="middle" x="372.28" y="-162.5" font-family="Helvetica,sans-Serif" font-size="10.00" fill="grey">Position</text>
<text text-anchor="middle" x="372.28" y="-150.5" font-family="Helvetica,sans-Serif" font-size="10.00" fill="grey">Size</text>
</g>
<!-- Node4 -->
<g id="Node000004" class="node">
<title>Node4</title>
<g id="a_Node000004"><a xlink:href="../../d8/d03/class_object.html" target="_top" xlink:title=" ">
<polygon fill="white" stroke="#666666" points="758.41,-560 713.91,-560 713.91,-540 758.41,-540 758.41,-560"/>
<text text-anchor="middle" x="736.16" y="-546.5" font-family="Helvetica,sans-Serif" font-size="10.00">Object</text>
</a>
</g>
</g>
<!-- Node4&#45;&gt;Node3 -->
<g id="edge3_Node000003_Node000004" class="edge">
<title>Node4&#45;&gt;Node3</title>
<g id="a_edge3_Node000003_Node000004"><a xlink:title=" ">
<path fill="none" stroke="#9a32cd" stroke-dasharray="5,2" d="M721.99,-530.71C719.95,-527.84 717.95,-524.88 716.16,-522 697.16,-491.44 709.17,-469.83 679.16,-450 632.5,-419.17 467.74,-471.5 428.16,-432 378.08,-382.04 402.24,-282.69 411.26,-252.15"/>
<polygon fill="#9a32cd" stroke="#9a32cd" points="719.05,-532.62 727.83,-538.55 724.67,-528.44 719.05,-532.62"/>
</a>
</g>
<text text-anchor="middle" x="441.66" y="-398.5" font-family="Helvetica,sans-Serif" font-size="10.00" fill="grey"> obj</text>
<text text-anchor="middle" x="441.66" y="-386.5" font-family="Helvetica,sans-Serif" font-size="10.00" fill="grey">parent</text>
</g>
<!-- Node6 -->
<g id="Node000006" class="node">
<title>Node6</title>
<g id="a_Node000006"><a xlink:href="../../d2/d01/classarray.html" target="_top" xlink:title="Result for an object found in CGame.IsBoxCollidingGeometryProxy.">
<polygon fill="white" stroke="#666666" points="801.03,-406 763.28,-406 763.28,-386 801.03,-386 801.03,-406"/>
<text text-anchor="middle" x="782.16" y="-392.5" font-family="Helvetica,sans-Serif" font-size="10.00">array</text>
</a>
</g>
</g>
<!-- Node4&#45;&gt;Node6 -->
<g id="edge6_Node000006_Node000004" class="edge">
<title>Node4&#45;&gt;Node6</title>
<g id="a_edge6_Node000006_Node000004"><a xlink:title=" ">
<path fill="none" stroke="#9a32cd" stroke-dasharray="5,2" d="M739.12,-528.25C742.35,-507.95 748.28,-476.35 757.16,-450 762.48,-434.19 771.24,-416.88 776.85,-406.49"/>
<polygon fill="#9a32cd" stroke="#9a32cd" points="735.68,-527.62 737.64,-538.03 742.6,-528.66 735.68,-527.62"/>
</a>
</g>
<text text-anchor="middle" x="770.66" y="-488.5" font-family="Helvetica,sans-Serif" font-size="10.00" fill="grey"> obj</text>
<text text-anchor="middle" x="770.66" y="-476.5" font-family="Helvetica,sans-Serif" font-size="10.00" fill="grey">parent</text>
</g>
<!-- Node10 -->
<g id="Node000010" class="node">
<title>Node10</title>
<g id="a_Node000010"><a xlink:href="../../d2/d01/classarray.html" target="_top" xlink:title=" ">
<polygon fill="white" stroke="#666666" points="836.41,-252 749.91,-252 749.91,-232 836.41,-232 836.41,-252"/>
<text text-anchor="middle" x="793.16" y="-238.5" font-family="Helvetica,sans-Serif" font-size="10.00">array&lt; Widget &gt;</text>
</a>
</g>
</g>
<!-- Node4&#45;&gt;Node10 -->
<g id="edge14_Node000010_Node000004" class="edge">
<title>Node4&#45;&gt;Node10</title>
<g id="a_edge14_Node000010_Node000004"><a xlink:title=" ">
<path fill="none" stroke="#9a32cd" stroke-dasharray="5,2" d="M731.52,-528.74C724.32,-493.76 712.71,-420.02 727.16,-360 737.8,-315.79 770.52,-271.04 785.51,-252.23"/>
<polygon fill="#9a32cd" stroke="#9a32cd" points="728.05,-529.27 733.59,-538.3 734.89,-527.79 728.05,-529.27"/>
</a>
</g>
<text text-anchor="middle" x="740.66" y="-398.5" font-family="Helvetica,sans-Serif" font-size="10.00" fill="grey"> obj</text>
<text text-anchor="middle" x="740.66" y="-386.5" font-family="Helvetica,sans-Serif" font-size="10.00" fill="grey">parent</text>
</g>
<!-- Node12 -->
<g id="Node000012" class="node">
<title>Node12</title>
<g id="a_Node000012"><a xlink:href="../../d2/d01/classarray.html" target="_top" xlink:title=" ">
<polygon fill="white" stroke="#666666" points="968.78,-182 833.53,-182 833.53,-150 968.78,-150 968.78,-182"/>
<text text-anchor="start" x="841.53" y="-168.5" font-family="Helvetica,sans-Serif" font-size="10.00">array&lt; ref JsonUnderground</text>
<text text-anchor="middle" x="901.16" y="-156.5" font-family="Helvetica,sans-Serif" font-size="10.00">AreaBreadcrumb &gt;</text>
</a>
</g>
</g>
<!-- Node4&#45;&gt;Node12 -->
<g id="edge27_Node000012_Node000004" class="edge">
<title>Node4&#45;&gt;Node12</title>
<g id="a_edge27_Node000012_Node000004"><a xlink:title=" ">
<path fill="none" stroke="#9a32cd" stroke-dasharray="5,2" d="M769.94,-548.31C793.08,-546.14 823.1,-539.71 843.16,-522 868.89,-499.27 844.13,-471.18 871.16,-450 919.84,-411.84 968.35,-478.48 1009.16,-432 1042.67,-393.83 983.25,-245.06 975.16,-232 962.54,-211.65 941.59,-194.12 925.2,-182.41"/>
<polygon fill="#9a32cd" stroke="#9a32cd" points="769.8,-544.82 760.07,-549 770.28,-551.8 769.8,-544.82"/>
</a>
</g>
<text text-anchor="middle" x="1025.66" y="-308.5" font-family="Helvetica,sans-Serif" font-size="10.00" fill="grey"> obj</text>
<text text-anchor="middle" x="1025.66" y="-296.5" font-family="Helvetica,sans-Serif" font-size="10.00" fill="grey">parent</text>
</g>
<!-- Node5 -->
<g id="Node000005" class="node">
<title>Node5</title>
<g id="a_Node000005"><a xlink:href="../../db/d06/class_param3.html" target="_top" xlink:title=" ">
<polygon fill="white" stroke="#666666" points="326.03,-560 276.28,-560 276.28,-540 326.03,-540 326.03,-560"/>
<text text-anchor="middle" x="301.16" y="-546.5" font-family="Helvetica,sans-Serif" font-size="10.00">Param3</text>
</a>
</g>
</g>
<!-- Node5&#45;&gt;Node3 -->
<g id="edge4_Node000003_Node000005" class="edge">
<title>Node5&#45;&gt;Node3</title>
<g id="a_edge4_Node000003_Node000005"><a xlink:title=" ">
<path fill="none" stroke="#9a32cd" stroke-dasharray="5,2" d="M282.53,-532.36C247.74,-499.17 179.23,-422.57 211.91,-360 244.95,-296.72 328.16,-265.15 376.93,-251.6"/>
<polygon fill="#9a32cd" stroke="#9a32cd" points="279.75,-534.55 289.46,-538.79 284.51,-529.42 279.75,-534.55"/>
</a>
</g>
<text text-anchor="middle" x="270.28" y="-422.5" font-family="Helvetica,sans-Serif" font-size="10.00" fill="grey"> NO_SORTING</text>
<text text-anchor="middle" x="270.28" y="-410.5" font-family="Helvetica,sans-Serif" font-size="10.00" fill="grey">geomLevel</text>
<text text-anchor="middle" x="270.28" y="-398.5" font-family="Helvetica,sans-Serif" font-size="10.00" fill="grey">hierLevel</text>
<text text-anchor="start" x="212.16" y="-386.5" font-family="Helvetica,sans-Serif" font-size="10.00" fill="grey">m_CurrentSettingAlternate</text>
<text text-anchor="middle" x="270.28" y="-374.5" font-family="Helvetica,sans-Serif" font-size="10.00" fill="grey">KeyIndex</text>
<text text-anchor="middle" x="270.28" y="-362.5" font-family="Helvetica,sans-Serif" font-size="10.00" fill="grey">m_CurrentSettingKeyIndex</text>
</g>
<!-- Node5&#45;&gt;Node6 -->
<g id="edge7_Node000006_Node000005" class="edge">
<title>Node5&#45;&gt;Node6</title>
<g id="a_edge7_Node000006_Node000005"><a xlink:title=" ">
<path fill="none" stroke="#9a32cd" stroke-dasharray="5,2" d="M337.57,-549.7C367.36,-548.56 409.28,-542.84 439.16,-522 469.87,-500.58 450.91,-469.45 482.91,-450 533.58,-419.2 695.53,-457.32 749.16,-432 760.94,-426.44 770.61,-414.66 776.38,-406.3"/>
<polygon fill="#9a32cd" stroke="#9a32cd" points="337.85,-546.2 327.93,-549.91 338,-553.19 337.85,-546.2"/>
</a>
</g>
<text text-anchor="middle" x="540.28" y="-512.5" font-family="Helvetica,sans-Serif" font-size="10.00" fill="grey"> NO_SORTING</text>
<text text-anchor="middle" x="540.28" y="-500.5" font-family="Helvetica,sans-Serif" font-size="10.00" fill="grey">geomLevel</text>
<text text-anchor="middle" x="540.28" y="-488.5" font-family="Helvetica,sans-Serif" font-size="10.00" fill="grey">hierLevel</text>
<text text-anchor="start" x="482.16" y="-476.5" font-family="Helvetica,sans-Serif" font-size="10.00" fill="grey">m_CurrentSettingAlternate</text>
<text text-anchor="middle" x="540.28" y="-464.5" font-family="Helvetica,sans-Serif" font-size="10.00" fill="grey">KeyIndex</text>
<text text-anchor="middle" x="540.28" y="-452.5" font-family="Helvetica,sans-Serif" font-size="10.00" fill="grey">m_CurrentSettingKeyIndex</text>
</g>
<!-- Node5&#45;&gt;Node10 -->
<g id="edge15_Node000010_Node000005" class="edge">
<title>Node5&#45;&gt;Node10</title>
<g id="a_edge15_Node000010_Node000005"><a xlink:title=" ">
<path fill="none" stroke="#9a32cd" stroke-dasharray="5,2" d="M328.52,-534.32C362.38,-514.92 419.87,-477.8 455.16,-432 476.29,-404.57 463.31,-387.06 484.91,-360 528.11,-305.86 547.87,-295.81 612.16,-270 656.82,-252.06 712.01,-245.9 749.63,-243.86"/>
<polygon fill="#9a32cd" stroke="#9a32cd" points="327.15,-531.07 320.14,-539.02 330.58,-537.18 327.15,-531.07"/>
</a>
</g>
<text text-anchor="middle" x="542.28" y="-422.5" font-family="Helvetica,sans-Serif" font-size="10.00" fill="grey"> NO_SORTING</text>
<text text-anchor="middle" x="542.28" y="-410.5" font-family="Helvetica,sans-Serif" font-size="10.00" fill="grey">geomLevel</text>
<text text-anchor="middle" x="542.28" y="-398.5" font-family="Helvetica,sans-Serif" font-size="10.00" fill="grey">hierLevel</text>
<text text-anchor="start" x="484.16" y="-386.5" font-family="Helvetica,sans-Serif" font-size="10.00" fill="grey">m_CurrentSettingAlternate</text>
<text text-anchor="middle" x="542.28" y="-374.5" font-family="Helvetica,sans-Serif" font-size="10.00" fill="grey">KeyIndex</text>
<text text-anchor="middle" x="542.28" y="-362.5" font-family="Helvetica,sans-Serif" font-size="10.00" fill="grey">m_CurrentSettingKeyIndex</text>
</g>
<!-- Node5&#45;&gt;Node12 -->
<g id="edge28_Node000012_Node000005" class="edge">
<title>Node5&#45;&gt;Node12</title>
<g id="a_edge28_Node000012_Node000005"><a xlink:title=" ">
<path fill="none" stroke="#9a32cd" stroke-dasharray="5,2" d="M264.98,-542.14C248.15,-537.95 228.33,-531.51 212.16,-522 92.09,-451.42 -61.32,-378.57 25.91,-270 76.37,-207.19 636.27,-178.01 833.17,-169.64"/>
<polygon fill="#9a32cd" stroke="#9a32cd" points="264.07,-545.53 274.6,-544.36 265.64,-538.7 264.07,-545.53"/>
</a>
</g>
<text text-anchor="middle" x="84.28" y="-332.5" font-family="Helvetica,sans-Serif" font-size="10.00" fill="grey"> NO_SORTING</text>
<text text-anchor="middle" x="84.28" y="-320.5" font-family="Helvetica,sans-Serif" font-size="10.00" fill="grey">geomLevel</text>
<text text-anchor="middle" x="84.28" y="-308.5" font-family="Helvetica,sans-Serif" font-size="10.00" fill="grey">hierLevel</text>
<text text-anchor="start" x="26.16" y="-296.5" font-family="Helvetica,sans-Serif" font-size="10.00" fill="grey">m_CurrentSettingAlternate</text>
<text text-anchor="middle" x="84.28" y="-284.5" font-family="Helvetica,sans-Serif" font-size="10.00" fill="grey">KeyIndex</text>
<text text-anchor="middle" x="84.28" y="-272.5" font-family="Helvetica,sans-Serif" font-size="10.00" fill="grey">m_CurrentSettingKeyIndex</text>
</g>
<!-- Node6&#45;&gt;Node3 -->
<g id="edge5_Node000003_Node000006" class="edge">
<title>Node6&#45;&gt;Node3</title>
<g id="a_edge5_Node000003_Node000006"><a xlink:title=" ">
<path fill="none" stroke="#9a32cd" stroke-dasharray="5,2" d="M768.98,-377.07C763.51,-370.79 756.67,-364.26 749.16,-360 716.69,-341.61 702.86,-352.83 667.16,-342 578.92,-315.23 477.9,-271.61 435.08,-252.49"/>
<polygon fill="#9a32cd" stroke="#9a32cd" points="766.02,-378.97 775,-384.6 771.49,-374.6 766.02,-378.97"/>
</a>
</g>
<text text-anchor="middle" x="688.16" y="-302.5" font-family="Helvetica,sans-Serif" font-size="10.00" fill="grey"> proxyInfo</text>
</g>
<!-- Node6&#45;&gt;Node6 -->
<g id="edge8_Node000006_Node000006" class="edge">
<title>Node6&#45;&gt;Node6</title>
<g id="a_edge8_Node000006_Node000006"><a xlink:title=" ">
<path fill="none" stroke="#9a32cd" stroke-dasharray="5,2" d="M799.99,-412.07C809.9,-415.07 819.03,-409.71 819.03,-396 819.03,-377.72 802.8,-374.29 790.12,-385.72"/>
<polygon fill="#9a32cd" stroke="#9a32cd" points="801.83,-409.09 791.43,-407.05 798.28,-415.13 801.83,-409.09"/>
</a>
</g>
<text text-anchor="middle" x="840.03" y="-392.5" font-family="Helvetica,sans-Serif" font-size="10.00" fill="grey"> proxyInfo</text>
</g>
<!-- Node6&#45;&gt;Node10 -->
<g id="edge16_Node000010_Node000006" class="edge">
<title>Node6&#45;&gt;Node10</title>
<g id="a_edge16_Node000010_Node000006"><a xlink:title=" ">
<path fill="none" stroke="#9a32cd" stroke-dasharray="5,2" d="M779.77,-374.55C777.4,-349.61 775.05,-306.27 782.16,-270 783.36,-263.84 785.98,-257.31 788.36,-252.22"/>
<polygon fill="#9a32cd" stroke="#9a32cd" points="776.26,-374.71 780.8,-384.28 783.22,-373.97 776.26,-374.71"/>
</a>
</g>
<text text-anchor="middle" x="803.16" y="-302.5" font-family="Helvetica,sans-Serif" font-size="10.00" fill="grey"> proxyInfo</text>
</g>
<!-- Node6&#45;&gt;Node12 -->
<g id="edge29_Node000012_Node000006" class="edge">
<title>Node6&#45;&gt;Node12</title>
<g id="a_edge29_Node000012_Node000006"><a xlink:title=" ">
<path fill="none" stroke="#9a32cd" stroke-dasharray="5,2" d="M811.74,-383.74C845.78,-370.55 897.81,-349.53 904.16,-342 936.29,-303.88 935.26,-281.02 926.16,-232 922.87,-214.29 914.94,-195.17 908.88,-182.29"/>
<polygon fill="#9a32cd" stroke="#9a32cd" points="810.89,-380.32 802.82,-387.18 813.41,-386.85 810.89,-380.32"/>
</a>
</g>
<text text-anchor="middle" x="950.16" y="-238.5" font-family="Helvetica,sans-Serif" font-size="10.00" fill="grey"> proxyInfo</text>
</g>
<!-- Node7 -->
<g id="Node000007" class="node">
<title>Node7</title>
<g id="a_Node000007"><a xlink:href="../../d4/d04/class_class.html" target="_top" xlink:title="Super root of all classes in Enforce script.">
<polygon fill="white" stroke="#666666" points="498.53,-560 457.78,-560 457.78,-540 498.53,-540 498.53,-560"/>
<text text-anchor="middle" x="478.16" y="-546.5" font-family="Helvetica,sans-Serif" font-size="10.00">Class</text>
</a>
</g>
</g>
<!-- Node7&#45;&gt;Node3 -->
<g id="edge21_Node000003_Node000007" class="edge">
<title>Node7&#45;&gt;Node3</title>
<g id="a_edge21_Node000003_Node000007"><a xlink:title=" ">
<path fill="none" stroke="#9a32cd" stroke-dasharray="5,2" d="M447.93,-534.46C413.75,-516.08 360.1,-480.83 338.91,-432 309.24,-363.64 379.6,-279.57 405.25,-252.13"/>
<polygon fill="#9a32cd" stroke="#9a32cd" points="446.03,-537.42 456.52,-538.93 449.26,-531.21 446.03,-537.42"/>
</a>
</g>
<text text-anchor="middle" x="365.78" y="-392.5" font-family="Helvetica,sans-Serif" font-size="10.00" fill="grey"> m_Instance</text>
</g>
<!-- Node7&#45;&gt;Node6 -->
<g id="edge9_Node000006_Node000007" class="edge">
<title>Node7&#45;&gt;Node6</title>
<g id="a_edge9_Node000006_Node000007"><a xlink:title=" ">
<path fill="none" stroke="#9a32cd" stroke-dasharray="5,2" d="M509.9,-546.71C536.12,-543.77 573.68,-537.1 603.16,-522 645.65,-500.22 640.99,-472.89 682.91,-450 709.68,-435.38 722.99,-447.69 749.16,-432 760.04,-425.47 769.64,-414.36 775.63,-406.4"/>
<polygon fill="#9a32cd" stroke="#9a32cd" points="509.84,-543.2 500.23,-547.66 510.52,-550.16 509.84,-543.2"/>
</a>
</g>
<text text-anchor="middle" x="708.78" y="-482.5" font-family="Helvetica,sans-Serif" font-size="10.00" fill="grey"> m_Instance</text>
</g>
<!-- Node7&#45;&gt;Node10 -->
<g id="edge17_Node000010_Node000007" class="edge">
<title>Node7&#45;&gt;Node10</title>
<g id="a_edge17_Node000010_Node000007"><a xlink:title=" ">
<path fill="none" stroke="#9a32cd" stroke-dasharray="5,2" d="M510.21,-548.42C532.18,-546.3 560.45,-539.91 578.16,-522 618.82,-480.88 600.77,-309.35 643.16,-270 658.33,-255.91 711.01,-248.96 749.67,-245.68"/>
<polygon fill="#9a32cd" stroke="#9a32cd" points="510.01,-544.93 500.27,-549.1 510.49,-551.91 510.01,-544.93"/>
</a>
</g>
<text text-anchor="middle" x="639.78" y="-392.5" font-family="Helvetica,sans-Serif" font-size="10.00" fill="grey"> m_Instance</text>
</g>
<!-- Node7&#45;&gt;Node12 -->
<g id="edge30_Node000012_Node000007" class="edge">
<title>Node7&#45;&gt;Node12</title>
<g id="a_edge30_Node000012_Node000007"><a xlink:title=" ">
<path fill="none" stroke="#9a32cd" stroke-dasharray="5,2" d="M446.39,-545.76C418.86,-542.21 378.35,-535.18 345.16,-522 274.66,-494.01 247.83,-490.99 200.16,-432 154.01,-374.9 121.08,-326.54 167.91,-270 210.16,-218.98 659.74,-183.34 833.32,-171.4"/>
<polygon fill="#9a32cd" stroke="#9a32cd" points="445.84,-549.22 456.19,-546.94 446.67,-542.27 445.84,-549.22"/>
</a>
</g>
<text text-anchor="middle" x="194.78" y="-302.5" font-family="Helvetica,sans-Serif" font-size="10.00" fill="grey"> m_Instance</text>
</g>
<!-- Node8 -->
<g id="Node000008" class="node">
<title>Node8</title>
<g id="a_Node000008"><a xlink:href="../../d5/d02/classstring.html" target="_top" xlink:title=" ">
<polygon fill="white" stroke="#666666" points="985.16,-560 945.16,-560 945.16,-540 985.16,-540 985.16,-560"/>
<text text-anchor="middle" x="965.16" y="-546.5" font-family="Helvetica,sans-Serif" font-size="10.00">string</text>
</a>
</g>
</g>
<!-- Node8&#45;&gt;Node3 -->
<g id="edge22_Node000003_Node000008" class="edge">
<title>Node8&#45;&gt;Node3</title>
<g id="a_edge22_Node000003_Node000008"><a xlink:title=" ">
<path fill="none" stroke="#9a32cd" stroke-dasharray="5,2" d="M958.24,-529.21C948.79,-502.37 932.51,-456.94 928.16,-450 922.26,-440.62 917.52,-440.89 910.91,-432 888.96,-402.5 900.09,-381.35 870.16,-360 834.46,-334.54 811.34,-363.55 773.16,-342 735.87,-320.96 747.37,-289.3 709.16,-270 664.97,-247.68 520.43,-243.66 451.45,-243.04"/>
<polygon fill="#9a32cd" stroke="#9a32cd" points="954.82,-530.02 961.43,-538.3 961.42,-527.7 954.82,-530.02"/>
</a>
</g>
<text text-anchor="middle" x="927.78" y="-392.5" font-family="Helvetica,sans-Serif" font-size="10.00" fill="grey"> m_Test</text>
</g>
<!-- Node8&#45;&gt;Node6 -->
<g id="edge10_Node000006_Node000008" class="edge">
<title>Node8&#45;&gt;Node6</title>
<g id="a_edge10_Node000006_Node000008"><a xlink:title=" ">
<path fill="none" stroke="#9a32cd" stroke-dasharray="5,2" d="M933.39,-545.97C899.27,-542.13 847.9,-534.46 832.91,-522 795.97,-491.32 785.65,-429.62 783,-406.25"/>
<polygon fill="#9a32cd" stroke="#9a32cd" points="932.84,-549.43 943.15,-547.01 933.58,-542.47 932.84,-549.43"/>
</a>
</g>
<text text-anchor="middle" x="849.78" y="-482.5" font-family="Helvetica,sans-Serif" font-size="10.00" fill="grey"> m_Test</text>
</g>
<!-- Node8&#45;&gt;Node8 -->
<g id="edge11_Node000008_Node000008" class="edge">
<title>Node8&#45;&gt;Node8</title>
<g id="a_edge11_Node000008_Node000008"><a xlink:title=" ">
<path fill="none" stroke="#9a32cd" stroke-dasharray="5,2" d="M990.93,-561.91C997.87,-561.28 1003.16,-557.31 1003.16,-550 1003.16,-539.12 991.45,-535.64 979.98,-539.55"/>
<polygon fill="#9a32cd" stroke="#9a32cd" points="991.85,-558.5 981.48,-560.65 990.93,-565.44 991.85,-558.5"/>
</a>
</g>
<text text-anchor="middle" x="1018.91" y="-546.5" font-family="Helvetica,sans-Serif" font-size="10.00" fill="grey"> Empty</text>
</g>
<!-- Node8&#45;&gt;Node10 -->
<g id="edge18_Node000010_Node000008" class="edge">
<title>Node8&#45;&gt;Node10</title>
<g id="a_edge18_Node000010_Node000008"><a xlink:title=" ">
<path fill="none" stroke="#9a32cd" stroke-dasharray="5,2" d="M977.35,-530.06C998.23,-495.07 1036.07,-418.53 1009.16,-360 983.47,-304.16 958.85,-298.03 904.16,-270 883.24,-259.28 857.9,-252.7 836.72,-248.72"/>
<polygon fill="#9a32cd" stroke="#9a32cd" points="974.58,-527.89 972.31,-538.23 980.54,-531.56 974.58,-527.89"/>
</a>
</g>
<text text-anchor="middle" x="1035.78" y="-392.5" font-family="Helvetica,sans-Serif" font-size="10.00" fill="grey"> m_Test</text>
</g>
<!-- Node8&#45;&gt;Node12 -->
<g id="edge31_Node000012_Node000008" class="edge">
<title>Node8&#45;&gt;Node12</title>
<g id="a_edge31_Node000012_Node000008"><a xlink:title=" ">
<path fill="none" stroke="#9a32cd" stroke-dasharray="5,2" d="M996.32,-541.83C1043.93,-529.02 1133.21,-497.19 1171.16,-432 1187.25,-404.34 1181.61,-390.25 1171.16,-360 1142,-275.63 1122.29,-250.2 1047.16,-202 1024.01,-187.15 995.14,-178.6 969.21,-173.67"/>
<polygon fill="#9a32cd" stroke="#9a32cd" points="995.73,-538.37 986.91,-544.25 997.47,-545.15 995.73,-538.37"/>
</a>
</g>
<text text-anchor="middle" x="1181.78" y="-302.5" font-family="Helvetica,sans-Serif" font-size="10.00" fill="grey"> m_Test</text>
</g>
<!-- Node9 -->
<g id="Node000009" class="node">
<title>Node9</title>
<g id="a_Node000009"><a xlink:href="../../dd/d0a/class_widget.html" target="_top" xlink:title=" ">
<polygon fill="white" stroke="#666666" points="1150.53,-560 1103.78,-560 1103.78,-540 1150.53,-540 1150.53,-560"/>
<text text-anchor="middle" x="1127.16" y="-546.5" font-family="Helvetica,sans-Serif" font-size="10.00">Widget</text>
</a>
</g>
</g>
<!-- Node9&#45;&gt;Node3 -->
<g id="edge23_Node000003_Node000009" class="edge">
<title>Node9&#45;&gt;Node3</title>
<g id="a_edge23_Node000003_Node000009"><a xlink:title=" ">
<path fill="none" stroke="#9a32cd" stroke-dasharray="5,2" d="M1097.27,-534.54C1061.51,-515.75 1002.24,-479.63 968.41,-432 949.01,-404.7 971.09,-382.36 946.16,-360 914.82,-331.89 885.48,-368.98 853.16,-342 826.8,-320 852.84,-290.3 825.16,-270 795.42,-248.2 546.82,-244 451.32,-243.19"/>
<polygon fill="#9a32cd" stroke="#9a32cd" points="1095.28,-537.45 1105.78,-538.9 1098.48,-531.23 1095.28,-537.45"/>
</a>
</g>
<text text-anchor="middle" x="986.53" y="-392.5" font-family="Helvetica,sans-Serif" font-size="10.00" fill="grey"> m_Root</text>
</g>
<!-- Node9&#45;&gt;Node6 -->
<g id="edge12_Node000006_Node000009" class="edge">
<title>Node9&#45;&gt;Node6</title>
<g id="a_edge12_Node000006_Node000009"><a xlink:title=" ">
<path fill="none" stroke="#9a32cd" stroke-dasharray="5,2" d="M1092.22,-545.26C1034.49,-538.96 924.77,-526.51 917.41,-522 884.34,-501.75 896.21,-476.75 868.16,-450 848.1,-430.88 820.04,-415.17 801.5,-405.95"/>
<polygon fill="#9a32cd" stroke="#9a32cd" points="1091.54,-548.7 1101.86,-546.3 1092.29,-541.74 1091.54,-548.7"/>
</a>
</g>
<text text-anchor="middle" x="935.53" y="-482.5" font-family="Helvetica,sans-Serif" font-size="10.00" fill="grey"> m_Root</text>
</g>
<!-- Node9&#45;&gt;Node10 -->
<g id="edge19_Node000010_Node000009" class="edge">
<title>Node9&#45;&gt;Node10</title>
<g id="a_edge19_Node000010_Node000009"><a xlink:title=" ">
<path fill="none" stroke="#9a32cd" stroke-dasharray="5,2" d="M1129.72,-528.31C1134.93,-475.93 1140.46,-337.47 1064.16,-270 1055.76,-262.58 911.3,-251.35 836.82,-246.02"/>
<polygon fill="#9a32cd" stroke="#9a32cd" points="1126.25,-527.85 1128.62,-538.17 1133.21,-528.62 1126.25,-527.85"/>
</a>
</g>
<text text-anchor="middle" x="1148.53" y="-392.5" font-family="Helvetica,sans-Serif" font-size="10.00" fill="grey"> m_Root</text>
</g>
<!-- Node9&#45;&gt;Node12 -->
<g id="edge32_Node000012_Node000009" class="edge">
<title>Node9&#45;&gt;Node12</title>
<g id="a_edge32_Node000012_Node000009"><a xlink:title=" ">
<path fill="none" stroke="#9a32cd" stroke-dasharray="5,2" d="M1141.43,-530.61C1175.91,-483.81 1256.99,-357.69 1203.16,-270 1155.04,-191.63 1042.34,-171.59 969.05,-167.18"/>
<polygon fill="#9a32cd" stroke="#9a32cd" points="1138.8,-528.28 1135.58,-538.37 1144.39,-532.5 1138.8,-528.28"/>
</a>
</g>
<text text-anchor="middle" x="1238.53" y="-302.5" font-family="Helvetica,sans-Serif" font-size="10.00" fill="grey"> m_Root</text>
</g>
<!-- Node10&#45;&gt;Node6 -->
<g id="edge13_Node000006_Node000010" class="edge">
<title>Node10&#45;&gt;Node6</title>
<g id="a_edge13_Node000006_Node000010"><a xlink:title=" ">
<path fill="none" stroke="#9a32cd" stroke-dasharray="5,2" d="M820.34,-259.58C823.49,-262.64 826.25,-266.12 828.16,-270 842.27,-298.72 839.35,-312.02 828.16,-342 821.42,-360.03 805.48,-376 794.26,-385.57"/>
<polygon fill="#9a32cd" stroke="#9a32cd" points="822.6,-256.9 812.61,-253.37 818.22,-262.36 822.6,-256.9"/>
</a>
</g>
<text text-anchor="middle" x="868.66" y="-302.5" font-family="Helvetica,sans-Serif" font-size="10.00" fill="grey"> m_Subgroups</text>
</g>
<!-- Node10&#45;&gt;Node10 -->
<g id="edge20_Node000010_Node000010" class="edge">
<title>Node10&#45;&gt;Node10</title>
<g id="a_edge20_Node000010_Node000010"><a xlink:title=" ">
<path fill="none" stroke="#9a32cd" stroke-dasharray="5,2" d="M847.78,-246.76C851.89,-245.7 854.41,-244.11 854.41,-242 854.41,-238.35 846.87,-236.26 836.65,-235.75"/>
<polygon fill="#9a32cd" stroke="#9a32cd" points="847.6,-243.26 838.15,-248.05 848.52,-250.19 847.6,-243.26"/>
</a>
</g>
<text text-anchor="middle" x="885.91" y="-238.5" font-family="Helvetica,sans-Serif" font-size="10.00" fill="grey"> m_Subgroups</text>
</g>
<!-- Node10&#45;&gt;Node12 -->
<g id="edge33_Node000012_Node000010" class="edge">
<title>Node10&#45;&gt;Node12</title>
<g id="a_edge33_Node000012_Node000010"><a xlink:title=" ">
<path fill="none" stroke="#9a32cd" stroke-dasharray="5,2" d="M816.22,-225.19C834.64,-212.58 860.28,-195.01 878.57,-182.48"/>
<polygon fill="#9a32cd" stroke="#9a32cd" points="814.35,-222.23 808.08,-230.77 818.31,-228.01 814.35,-222.23"/>
</a>
</g>
<text text-anchor="middle" x="878.66" y="-204.5" font-family="Helvetica,sans-Serif" font-size="10.00" fill="grey"> m_Subgroups</text>
</g>
<!-- Node11 -->
<g id="Node000011" class="node">
<title>Node11</title>
<g id="a_Node000011"><a xlink:href="../../d4/d03/classfloat.html" target="_top" xlink:title=" ">
<polygon fill="white" stroke="#666666" points="440.16,-176 406.16,-176 406.16,-156 440.16,-156 440.16,-176"/>
<text text-anchor="middle" x="423.16" y="-162.5" font-family="Helvetica,sans-Serif" font-size="10.00">float</text>
</a>
</g>
</g>
<!-- Node11&#45;&gt;Node2 -->
<g id="edge24_Node000002_Node000011" class="edge">
<title>Node11&#45;&gt;Node2</title>
<g id="a_edge24_Node000002_Node000011"><a xlink:title=" ">
<path fill="none" stroke="#9a32cd" stroke-dasharray="5,2" d="M423.16,-144.37C423.16,-126.6 423.16,-101.76 423.16,-88.4"/>
<polygon fill="#9a32cd" stroke="#9a32cd" points="419.66,-144.28 423.16,-154.28 426.66,-144.28 419.66,-144.28"/>
</a>
</g>
<text text-anchor="middle" x="468.53" y="-120.5" font-family="Helvetica,sans-Serif" font-size="10.00" fill="grey"> EyeAccommodation</text>
<text text-anchor="middle" x="468.53" y="-108.5" font-family="Helvetica,sans-Serif" font-size="10.00" fill="grey">InterpolationSpeed</text>
</g>
<!-- Node11&#45;&gt;Node11 -->
<g id="edge25_Node000011_Node000011" class="edge">
<title>Node11&#45;&gt;Node11</title>
<g id="a_edge25_Node000011_Node000011"><a xlink:title=" ">
<path fill="none" stroke="#9a32cd" stroke-dasharray="5,2" d="M451.83,-172.95C455.63,-171.77 458.16,-169.45 458.16,-166 458.16,-159.68 449.71,-157.17 440.44,-158.45"/>
<polygon fill="#9a32cd" stroke="#9a32cd" points="451.76,-169.45 441.95,-173.47 452.12,-176.44 451.76,-169.45"/>
</a>
</g>
<text text-anchor="middle" x="480.28" y="-174.5" font-family="Helvetica,sans-Serif" font-size="10.00" fill="grey"> LOWEST</text>
<text text-anchor="middle" x="480.28" y="-162.5" font-family="Helvetica,sans-Serif" font-size="10.00" fill="grey">MAX</text>
<text text-anchor="middle" x="480.28" y="-150.5" font-family="Helvetica,sans-Serif" font-size="10.00" fill="grey">MIN</text>
</g>
<!-- Node12&#45;&gt;Node2 -->
<g id="edge26_Node000002_Node000012" class="edge">
<title>Node12&#45;&gt;Node2</title>
<g id="a_edge26_Node000002_Node000012"><a xlink:title=" ">
<path fill="none" stroke="#9a32cd" stroke-dasharray="5,2" d="M821.85,-150.73C723.78,-133.09 559.58,-103.55 475.8,-88.47"/>
<polygon fill="#9a32cd" stroke="#9a32cd" points="821.23,-154.18 831.69,-152.5 822.47,-147.29 821.23,-154.18"/>
</a>
</g>
<text text-anchor="middle" x="734.53" y="-114.5" font-family="Helvetica,sans-Serif" font-size="10.00" fill="grey"> Breadcrumbs</text>
</g>
</g>
</svg>

<g id="navigator" transform="translate(0 0)" fill="#404254">
  <rect fill="#f2f5e9" fill-opacity="0.5" stroke="#606060" stroke-width=".5" x="0" y="0" width="60" height="60"/>
  <use id="zoomplus" xlink:href="#zoomPlus" x="17" y="9" onmousedown="handleZoom(evt,'in')"/>
  <use id="zoomminus" xlink:href="#zoomMin" x="42" y="9" onmousedown="handleZoom(evt,'out')"/>
  <use id="reset" xlink:href="#resetDef" x="30" y="36" onmousedown="handleReset()"/>
   <use id="arrowup" xlink:href="#arrowUp" x="0" y="0" onmousedown="handlePan(0,-1)"/>
  <use id="arrowright" xlink:href="#arrowRight" x="0" y="0" onmousedown="handlePan(1,0)"/>
  <use id="arrowdown" xlink:href="#arrowDown" x="0" y="0" onmousedown="handlePan(0,1)"/>
  <use id="arrowleft" xlink:href="#arrowLeft" x="0" y="0" onmousedown="handlePan(-1,0)"/>
</g>
<svg viewBox="0 0 15 15" width="100%" height="30px" preserveAspectRatio="xMaxYMin meet">
 <g id="arrow_out" transform="scale(0.3 0.3)">
  <a xlink:href="class_underground_trigger_carrier_base__coll__graph_org.svg" target="_base">
   <rect id="button" ry="5" rx="5" y="6" x="6" height="38" width="38"
        fill="#f2f5e9" fill-opacity="0.5" stroke="#606060" stroke-width="1.0"/>
   <path id="arrow"
     d="M 11.500037,31.436501 C 11.940474,20.09759 22.043105,11.32322 32.158766,21.979434 L 37.068811,17.246167 C 37.068811,17.246167 37.088388,32 37.088388,32 L 22.160133,31.978069 C 22.160133,31.978069 26.997745,27.140456 26.997745,27.140456 C 18.528582,18.264221 13.291696,25.230495 11.500037,31.436501 z"
     style="fill:#404040;"/>
  </a>
 </g>
</svg>

<style type='text/css'>
<![CDATA[
[data-mouse-over-selected='false'] { opacity: 0.7; }
[data-mouse-over-selected='true']  { opacity: 1.0; }
]]>
</style>
<script type="application/ecmascript"><![CDATA[
document.addEventListener('DOMContentLoaded', (event) => {
  highlightEdges();
  highlightAdjacentNodes();
});
]]></script>
</svg>
