<?xml version="1.0" encoding="UTF-8" standalone="no"?>
<!DOCTYPE svg PUBLIC "-//W3C//DTD SVG 1.1//EN"
 "http://www.w3.org/Graphics/SVG/1.1/DTD/svg11.dtd">
<!-- Generated by graphviz version 11.0.0 (20240428.1522)
 -->
<!-- Title: PlayerSpawnPreset Pages: 1 -->
<svg width="144pt" height="140pt"
 viewBox="0.00 0.00 144.00 140.00" xmlns="http://www.w3.org/2000/svg" xmlns:xlink="http://www.w3.org/1999/xlink">
<g id="graph0" class="graph" transform="scale(1 1) rotate(0) translate(4 136)">
<title>PlayerSpawnPreset</title>
<!-- Node1 -->
<g id="Node000001" class="node">
<title>Node1</title>
<g id="a_Node000001"><a xlink:title=" ">
<polygon fill="#999999" stroke="#666666" points="118.75,-20 17.25,-20 17.25,0 118.75,0 118.75,-20"/>
<text text-anchor="middle" x="68" y="-6.5" font-family="Helvetica,sans-Serif" font-size="10.00">PlayerSpawnPreset</text>
</a>
</g>
</g>
<!-- Node2 -->
<g id="Node000002" class="node">
<title>Node2</title>
<g id="a_Node000002"><a xlink:href="../../df/d00/class_player_spawn_json_data_base.html" target="_top" xlink:title=" ">
<polygon fill="white" stroke="#666666" points="136,-76 0,-76 0,-56 136,-56 136,-76"/>
<text text-anchor="middle" x="68" y="-62.5" font-family="Helvetica,sans-Serif" font-size="10.00">PlayerSpawnJsonDataBase</text>
</a>
</g>
</g>
<!-- Node2&#45;&gt;Node1 -->
<g id="edge1_Node000001_Node000002" class="edge">
<title>Node2&#45;&gt;Node1</title>
<g id="a_edge1_Node000001_Node000002"><a xlink:title=" ">
<path fill="none" stroke="#8b1a1a" d="M68,-44.13C68,-35.9 68,-26.85 68,-20.3"/>
<polygon fill="#8b1a1a" stroke="#8b1a1a" points="64.5,-44.08 68,-54.08 71.5,-44.08 64.5,-44.08"/>
</a>
</g>
</g>
<!-- Node3 -->
<g id="Node000003" class="node">
<title>Node3</title>
<g id="a_Node000003"><a xlink:href="../../dd/d07/class_managed.html" target="_top" xlink:title="TODO doc.">
<polygon fill="white" stroke="#666666" points="95.88,-132 40.12,-132 40.12,-112 95.88,-112 95.88,-132"/>
<text text-anchor="middle" x="68" y="-118.5" font-family="Helvetica,sans-Serif" font-size="10.00">Managed</text>
</a>
</g>
</g>
<!-- Node3&#45;&gt;Node2 -->
<g id="edge2_Node000002_Node000003" class="edge">
<title>Node3&#45;&gt;Node2</title>
<g id="a_edge2_Node000002_Node000003"><a xlink:title=" ">
<path fill="none" stroke="#8b1a1a" d="M68,-100.13C68,-91.9 68,-82.85 68,-76.3"/>
<polygon fill="#8b1a1a" stroke="#8b1a1a" points="64.5,-100.08 68,-110.08 71.5,-100.08 64.5,-100.08"/>
</a>
</g>
</g>
</g>
</svg>
