<?xml version="1.0" encoding="UTF-8" standalone="no"?>
<!DOCTYPE svg PUBLIC "-//W3C//DTD SVG 1.1//EN"
 "http://www.w3.org/Graphics/SVG/1.1/DTD/svg11.dtd">
<!-- Generated by graphviz version 11.0.0 (20240428.1522)
 -->
<!-- Title: PPESMAA Pages: 1 -->
<!--zoomable 415 -->

<svg id="main" version="1.1" xmlns="http://www.w3.org/2000/svg" xmlns:xlink="http://www.w3.org/1999/xlink" xml:space="preserve" onload="init(evt)">
<style type="text/css"><![CDATA[
.node, .edge {opacity: 0.7;}
.node.selected, .edge.selected {opacity: 1;}
.edge:hover path { stroke: red; }
.edge:hover polygon { stroke: red; fill: red; }
]]></style>

<defs>
  <circle id="rim" cx="0" cy="0" r="7"/>
  <circle id="rim2" cx="0" cy="0" r="3.5"/>
  <g id="zoomPlus">
    <use xlink:href="#rim" fill="#404040"><set attributeName="fill" to="#808080" begin="zoomplus.mouseover" end="zoomplus.mouseout"/></use>
    <path d="M-4,0h8M0,-4v8" fill="none" stroke="white" stroke-width="1.5" pointer-events="none"/>
  </g>
  <g id="zoomMin">
    <use xlink:href="#rim" fill="#404040"><set attributeName="fill" to="#808080" begin="zoomminus.mouseover" end="zoomminus.mouseout"/></use>
    <path d="M-4,0h8" fill="none" stroke="white" stroke-width="1.5" pointer-events="none"/>
  </g>
  <g id="arrowUp" transform="translate(30 24)">
    <use xlink:href="#rim"/>
    <path pointer-events="none" fill="none" stroke="white" stroke-width="1.5" d="M0,-3.0v7 M-2.5,-0.5L0,-3.0L2.5,-0.5"/>
  </g>
  <g id="arrowRight" transform="rotate(90) translate(36 -43)">
    <use xlink:href="#rim"/>
    <path pointer-events="none" fill="none" stroke="white" stroke-width="1.5" d="M0,-3.0v7 M-2.5,-0.5L0,-3.0L2.5,-0.5"/>
  </g>
  <g id="arrowDown" transform="rotate(180) translate(-30 -48)">
    <use xlink:href="#rim"/>
    <path pointer-events="none" fill="none" stroke="white" stroke-width="1.5" d="M0,-3.0v7 M-2.5,-0.5L0,-3.0L2.5,-0.5"/>
  </g>
  <g id="arrowLeft" transform="rotate(270) translate(-36 17)">
    <use xlink:href="#rim"/>
    <path pointer-events="none" fill="none" stroke="white" stroke-width="1.5" d="M0,-3.0v7 M-2.5,-0.5L0,-3.0L2.5,-0.5"/>
  </g>
  <g id="resetDef">
    <use xlink:href="#rim2" fill="#404040"><set attributeName="fill" to="#808080" begin="reset.mouseover" end="reset.mouseout"/></use>
  </g>
</defs>
<script type="application/ecmascript">
var viewWidth = 1180;
var viewHeight = 415;
var sectionId = 'dynsection-1';
</script>
<script type="application/ecmascript" xlink:href="../../svg.min.js"/>
<svg id="graph" class="graph">
<g id="viewport">
<title>PPESMAA</title>
<!-- Node1 -->
<g id="Node000001" class="node">
<title>Node1</title>
<g id="a_Node000001"><a xlink:title="SMAA &#45; PostProcessEffectType.SMAA.">
<polygon fill="#999999" stroke="#666666" points="118.38,-20 53.62,-20 53.62,0 118.38,0 118.38,-20"/>
<text text-anchor="middle" x="86" y="-6.5" font-family="Helvetica,sans-Serif" font-size="10.00">PPESMAA</text>
</a>
</g>
</g>
<!-- Node2 -->
<g id="Node000002" class="node">
<title>Node2</title>
<g id="a_Node000002"><a xlink:href="../../d3/d0f/class_p_p_e_class_base.html" target="_top" xlink:title="Created once, on manager init. Script&#45;side representation of C++ material class, separate handling.">
<polygon fill="white" stroke="#666666" points="285.75,-77 202.25,-77 202.25,-57 285.75,-57 285.75,-77"/>
<text text-anchor="middle" x="244" y="-63.5" font-family="Helvetica,sans-Serif" font-size="10.00">PPEClassBase</text>
</a>
</g>
</g>
<!-- Node2&#45;&gt;Node1 -->
<g id="edge1_Node000001_Node000002" class="edge">
<title>Node2&#45;&gt;Node1</title>
<g id="a_edge1_Node000001_Node000002"><a xlink:title=" ">
<path fill="none" stroke="#8b1a1a" d="M206,-52.77C177.32,-42.79 138.67,-29.33 113.07,-20.42"/>
<polygon fill="#8b1a1a" stroke="#8b1a1a" points="204.81,-56.07 215.41,-56.05 207.12,-49.45 204.81,-56.07"/>
</a>
</g>
</g>
<!-- Node3 -->
<g id="Node000003" class="node">
<title>Node3</title>
<g id="a_Node000003"><a xlink:href="../../d5/d02/classstring.html" target="_top" xlink:title=" ">
<polygon fill="white" stroke="#666666" points="1086,-405 1046,-405 1046,-385 1086,-385 1086,-405"/>
<text text-anchor="middle" x="1066" y="-391.5" font-family="Helvetica,sans-Serif" font-size="10.00">string</text>
</a>
</g>
</g>
<!-- Node3&#45;&gt;Node2 -->
<g id="edge2_Node000002_Node000003" class="edge">
<title>Node3&#45;&gt;Node2</title>
<g id="a_edge2_Node000002_Node000003"><a xlink:title=" ">
<path fill="none" stroke="#9a32cd" stroke-dasharray="5,2" d="M1082.94,-376.19C1085.19,-373.26 1087.3,-370.15 1089,-367 1123.54,-302.78 1153.78,-266.76 1115,-205 1078,-146.08 1041.02,-155.68 974,-137 842.79,-100.43 420.83,-76.78 285.9,-70.01"/>
<polygon fill="#9a32cd" stroke="#9a32cd" points="1080.45,-373.73 1076.6,-383.6 1085.76,-378.28 1080.45,-373.73"/>
</a>
</g>
<text text-anchor="middle" x="1136.62" y="-177.5" font-family="Helvetica,sans-Serif" font-size="10.00" fill="grey"> m_MaterialPath</text>
</g>
<!-- Node3&#45;&gt;Node3 -->
<g id="edge3_Node000003_Node000003" class="edge">
<title>Node3&#45;&gt;Node3</title>
<g id="a_edge3_Node000003_Node000003"><a xlink:title=" ">
<path fill="none" stroke="#9a32cd" stroke-dasharray="5,2" d="M1091.77,-406.91C1098.72,-406.28 1104,-402.31 1104,-395 1104,-384.12 1092.3,-380.64 1080.82,-384.55"/>
<polygon fill="#9a32cd" stroke="#9a32cd" points="1092.7,-403.5 1082.32,-405.65 1091.77,-410.44 1092.7,-403.5"/>
</a>
</g>
<text text-anchor="middle" x="1119.75" y="-391.5" font-family="Helvetica,sans-Serif" font-size="10.00" fill="grey"> Empty</text>
</g>
<!-- Node5 -->
<g id="Node000005" class="node">
<title>Node5</title>
<g id="a_Node000005"><a xlink:href="../../d2/d01/classarray.html" target="_top" xlink:title=" ">
<polygon fill="white" stroke="#666666" points="528.75,-157 439.25,-157 439.25,-137 528.75,-137 528.75,-157"/>
<text text-anchor="middle" x="484" y="-143.5" font-family="Helvetica,sans-Serif" font-size="10.00">array&lt; Param3 &gt;</text>
</a>
</g>
</g>
<!-- Node3&#45;&gt;Node5 -->
<g id="edge24_Node000005_Node000003" class="edge">
<title>Node3&#45;&gt;Node5</title>
<g id="a_edge24_Node000005_Node000003"><a xlink:title=" ">
<path fill="none" stroke="#9a32cd" stroke-dasharray="5,2" d="M1062.15,-373.63C1056.76,-350.92 1044.71,-314.8 1020,-295 990.8,-271.6 965.22,-302.41 937.75,-277 913.21,-254.3 941.63,-226.46 916,-205 889.58,-182.89 795.53,-194.94 762,-187 746.81,-183.4 744.2,-178.55 729,-175 660.24,-158.95 578.34,-152.38 528.8,-149.73"/>
<polygon fill="#9a32cd" stroke="#9a32cd" points="1058.68,-374.14 1064.18,-383.19 1065.52,-372.68 1058.68,-374.14"/>
</a>
</g>
<text text-anchor="middle" x="954.62" y="-237.5" font-family="Helvetica,sans-Serif" font-size="10.00" fill="grey"> m_Test</text>
</g>
<!-- Node7 -->
<g id="Node000007" class="node">
<title>Node7</title>
<g id="a_Node000007"><a xlink:href="../../d2/d01/classarray.html" target="_top" xlink:title="Result for an object found in CGame.IsBoxCollidingGeometryProxy.">
<polygon fill="white" stroke="#666666" points="778.88,-251 741.12,-251 741.12,-231 778.88,-231 778.88,-251"/>
<text text-anchor="middle" x="760" y="-237.5" font-family="Helvetica,sans-Serif" font-size="10.00">array</text>
</a>
</g>
</g>
<!-- Node3&#45;&gt;Node7 -->
<g id="edge13_Node000007_Node000003" class="edge">
<title>Node3&#45;&gt;Node7</title>
<g id="a_edge13_Node000007_Node000003"><a xlink:title=" ">
<path fill="none" stroke="#9a32cd" stroke-dasharray="5,2" d="M1034.92,-387.48C1019.09,-383.24 1000.01,-376.67 984.75,-367 947.37,-343.32 953.87,-317.88 916,-295 891.07,-279.94 880.65,-286.14 853,-277 827.12,-268.45 797.76,-257.12 779.07,-249.7"/>
<polygon fill="#9a32cd" stroke="#9a32cd" points="1033.76,-390.79 1044.31,-389.8 1035.44,-384 1033.76,-390.79"/>
</a>
</g>
<text text-anchor="middle" x="1001.62" y="-327.5" font-family="Helvetica,sans-Serif" font-size="10.00" fill="grey"> m_Test</text>
</g>
<!-- Node10 -->
<g id="Node000010" class="node">
<title>Node10</title>
<g id="a_Node000010"><a xlink:href="../../d2/d01/classarray.html" target="_top" xlink:title=" ">
<polygon fill="white" stroke="#666666" points="884.25,-157 797.75,-157 797.75,-137 884.25,-137 884.25,-157"/>
<text text-anchor="middle" x="841" y="-143.5" font-family="Helvetica,sans-Serif" font-size="10.00">array&lt; Widget &gt;</text>
</a>
</g>
</g>
<!-- Node3&#45;&gt;Node10 -->
<g id="edge20_Node000010_Node000003" class="edge">
<title>Node3&#45;&gt;Node10</title>
<g id="a_edge20_Node000010_Node000003"><a xlink:title=" ">
<path fill="none" stroke="#9a32cd" stroke-dasharray="5,2" d="M1070.7,-374.02C1078.26,-336.59 1088.62,-255.17 1050,-205 1029.92,-178.92 939.63,-161.86 884.5,-153.68"/>
<polygon fill="#9a32cd" stroke="#9a32cd" points="1067.36,-372.92 1068.64,-383.44 1074.2,-374.41 1067.36,-372.92"/>
</a>
</g>
<text text-anchor="middle" x="1093.62" y="-237.5" font-family="Helvetica,sans-Serif" font-size="10.00" fill="grey"> m_Test</text>
</g>
<!-- Node4 -->
<g id="Node000004" class="node">
<title>Node4</title>
<g id="a_Node000004"><a xlink:href="../../db/d06/class_param3.html" target="_top" xlink:title=" ">
<polygon fill="white" stroke="#666666" points="181.88,-405 132.12,-405 132.12,-385 181.88,-385 181.88,-405"/>
<text text-anchor="middle" x="157" y="-391.5" font-family="Helvetica,sans-Serif" font-size="10.00">Param3</text>
</a>
</g>
</g>
<!-- Node4&#45;&gt;Node1 -->
<g id="edge26_Node000001_Node000004" class="edge">
<title>Node4&#45;&gt;Node1</title>
<g id="a_edge26_Node000001_Node000004"><a xlink:title=" ">
<path fill="none" stroke="#9a32cd" stroke-dasharray="5,2" d="M123.4,-379.67C77.28,-357.48 0,-310.14 0,-242 0,-242 0,-242 0,-66 0,-39.59 29.13,-25.29 53.49,-17.95"/>
<polygon fill="#9a32cd" stroke="#9a32cd" points="121.92,-382.84 132.46,-383.89 124.87,-376.5 121.92,-382.84"/>
</a>
</g>
<text text-anchor="middle" x="41.25" y="-143.5" font-family="Helvetica,sans-Serif" font-size="10.00" fill="grey"> PARAM_PRESET</text>
</g>
<!-- Node4&#45;&gt;Node2 -->
<g id="edge4_Node000002_Node000004" class="edge">
<title>Node4&#45;&gt;Node2</title>
<g id="a_edge4_Node000002_Node000004"><a xlink:title=" ">
<path fill="none" stroke="#9a32cd" stroke-dasharray="5,2" d="M149.52,-373.91C148.9,-371.6 148.37,-369.27 148,-367 136.46,-295.9 135.45,-274.86 153,-205 166.77,-150.17 213.68,-98.2 234.22,-77.47"/>
<polygon fill="#9a32cd" stroke="#9a32cd" points="146.15,-374.85 152.6,-383.25 152.8,-372.66 146.15,-374.85"/>
</a>
</g>
<text text-anchor="middle" x="189.5" y="-177.5" font-family="Helvetica,sans-Serif" font-size="10.00" fill="grey"> m_Material</text>
</g>
<!-- Node4&#45;&gt;Node5 -->
<g id="edge7_Node000005_Node000004" class="edge">
<title>Node4&#45;&gt;Node5</title>
<g id="a_edge7_Node000005_Node000004"><a xlink:title=" ">
<path fill="none" stroke="#9a32cd" stroke-dasharray="5,2" d="M153.92,-373.23C149.46,-334.47 146.05,-250.92 190.75,-205 224.57,-170.25 365.46,-155.85 438.94,-150.62"/>
<polygon fill="#9a32cd" stroke="#9a32cd" points="150.44,-373.58 155.21,-383.03 157.38,-372.66 150.44,-373.58"/>
</a>
</g>
<text text-anchor="middle" x="249.12" y="-267.5" font-family="Helvetica,sans-Serif" font-size="10.00" fill="grey"> NO_SORTING</text>
<text text-anchor="middle" x="249.12" y="-255.5" font-family="Helvetica,sans-Serif" font-size="10.00" fill="grey">geomLevel</text>
<text text-anchor="middle" x="249.12" y="-243.5" font-family="Helvetica,sans-Serif" font-size="10.00" fill="grey">hierLevel</text>
<text text-anchor="start" x="191" y="-231.5" font-family="Helvetica,sans-Serif" font-size="10.00" fill="grey">m_CurrentSettingAlternate</text>
<text text-anchor="middle" x="249.12" y="-219.5" font-family="Helvetica,sans-Serif" font-size="10.00" fill="grey">KeyIndex</text>
<text text-anchor="middle" x="249.12" y="-207.5" font-family="Helvetica,sans-Serif" font-size="10.00" fill="grey">m_CurrentSettingKeyIndex</text>
</g>
<!-- Node4&#45;&gt;Node7 -->
<g id="edge10_Node000007_Node000004" class="edge">
<title>Node4&#45;&gt;Node7</title>
<g id="a_edge10_Node000007_Node000004"><a xlink:title=" ">
<path fill="none" stroke="#9a32cd" stroke-dasharray="5,2" d="M193.54,-393.34C251.72,-391.72 362.29,-386.15 396,-367 430.96,-347.14 415.33,-314.02 450.75,-295 504.95,-265.89 671.34,-303.2 727,-277 738.79,-271.45 748.46,-259.67 754.22,-251.31"/>
<polygon fill="#9a32cd" stroke="#9a32cd" points="193.72,-389.84 183.81,-393.59 193.9,-396.83 193.72,-389.84"/>
</a>
</g>
<text text-anchor="middle" x="508.12" y="-357.5" font-family="Helvetica,sans-Serif" font-size="10.00" fill="grey"> NO_SORTING</text>
<text text-anchor="middle" x="508.12" y="-345.5" font-family="Helvetica,sans-Serif" font-size="10.00" fill="grey">geomLevel</text>
<text text-anchor="middle" x="508.12" y="-333.5" font-family="Helvetica,sans-Serif" font-size="10.00" fill="grey">hierLevel</text>
<text text-anchor="start" x="450" y="-321.5" font-family="Helvetica,sans-Serif" font-size="10.00" fill="grey">m_CurrentSettingAlternate</text>
<text text-anchor="middle" x="508.12" y="-309.5" font-family="Helvetica,sans-Serif" font-size="10.00" fill="grey">KeyIndex</text>
<text text-anchor="middle" x="508.12" y="-297.5" font-family="Helvetica,sans-Serif" font-size="10.00" fill="grey">m_CurrentSettingKeyIndex</text>
</g>
<!-- Node4&#45;&gt;Node10 -->
<g id="edge17_Node000010_Node000004" class="edge">
<title>Node4&#45;&gt;Node10</title>
<g id="a_edge17_Node000010_Node000004"><a xlink:title=" ">
<path fill="none" stroke="#9a32cd" stroke-dasharray="5,2" d="M193.14,-382.55C238.65,-366.3 316.18,-332.23 360,-277 380.78,-250.81 356.6,-227.02 381.75,-205 443.04,-151.36 695.31,-146.93 797.61,-147.41"/>
<polygon fill="#9a32cd" stroke="#9a32cd" points="192.04,-379.23 183.73,-385.81 194.32,-385.85 192.04,-379.23"/>
</a>
</g>
<text text-anchor="middle" x="439.12" y="-267.5" font-family="Helvetica,sans-Serif" font-size="10.00" fill="grey"> NO_SORTING</text>
<text text-anchor="middle" x="439.12" y="-255.5" font-family="Helvetica,sans-Serif" font-size="10.00" fill="grey">geomLevel</text>
<text text-anchor="middle" x="439.12" y="-243.5" font-family="Helvetica,sans-Serif" font-size="10.00" fill="grey">hierLevel</text>
<text text-anchor="start" x="381" y="-231.5" font-family="Helvetica,sans-Serif" font-size="10.00" fill="grey">m_CurrentSettingAlternate</text>
<text text-anchor="middle" x="439.12" y="-219.5" font-family="Helvetica,sans-Serif" font-size="10.00" fill="grey">KeyIndex</text>
<text text-anchor="middle" x="439.12" y="-207.5" font-family="Helvetica,sans-Serif" font-size="10.00" fill="grey">m_CurrentSettingKeyIndex</text>
</g>
<!-- Node5&#45;&gt;Node2 -->
<g id="edge5_Node000002_Node000005" class="edge">
<title>Node5&#45;&gt;Node2</title>
<g id="a_edge5_Node000002_Node000005"><a xlink:title=" ">
<path fill="none" stroke="#9a32cd" stroke-dasharray="5,2" d="M444.4,-133.13C396.19,-117.46 315.91,-91.37 273.05,-77.44"/>
<polygon fill="#9a32cd" stroke="#9a32cd" points="443.02,-136.36 453.61,-136.12 445.18,-129.7 443.02,-136.36"/>
</a>
</g>
<text text-anchor="middle" x="462.38" y="-109.5" font-family="Helvetica,sans-Serif" font-size="10.00" fill="grey"> m_ParameterRemovalQueue</text>
<text text-anchor="middle" x="462.38" y="-97.5" font-family="Helvetica,sans-Serif" font-size="10.00" fill="grey">m_UpdatedParameters</text>
</g>
<!-- Node6 -->
<g id="Node000006" class="node">
<title>Node6</title>
<g id="a_Node000006"><a xlink:href="../../d8/d03/class_object.html" target="_top" xlink:title=" ">
<polygon fill="white" stroke="#666666" points="782.25,-405 737.75,-405 737.75,-385 782.25,-385 782.25,-405"/>
<text text-anchor="middle" x="760" y="-391.5" font-family="Helvetica,sans-Serif" font-size="10.00">Object</text>
</a>
</g>
</g>
<!-- Node6&#45;&gt;Node5 -->
<g id="edge6_Node000005_Node000006" class="edge">
<title>Node6&#45;&gt;Node5</title>
<g id="a_edge6_Node000005_Node000006"><a xlink:title=" ">
<path fill="none" stroke="#9a32cd" stroke-dasharray="5,2" d="M726.27,-392.61C704.68,-390.05 677.36,-383.45 659,-367 633.43,-344.09 646.36,-325.71 631,-295 625.73,-284.47 583.32,-213.34 575,-205 554.2,-184.14 524.41,-167.32 504.65,-157.49"/>
<polygon fill="#9a32cd" stroke="#9a32cd" points="725.8,-396.08 736.08,-393.52 726.45,-389.11 725.8,-396.08"/>
</a>
</g>
<text text-anchor="middle" x="633.5" y="-243.5" font-family="Helvetica,sans-Serif" font-size="10.00" fill="grey"> obj</text>
<text text-anchor="middle" x="633.5" y="-231.5" font-family="Helvetica,sans-Serif" font-size="10.00" fill="grey">parent</text>
</g>
<!-- Node6&#45;&gt;Node7 -->
<g id="edge9_Node000007_Node000006" class="edge">
<title>Node6&#45;&gt;Node7</title>
<g id="a_edge9_Node000007_Node000006"><a xlink:title=" ">
<path fill="none" stroke="#9a32cd" stroke-dasharray="5,2" d="M760,-373.47C760,-340.04 760,-275.17 760,-251.2"/>
<polygon fill="#9a32cd" stroke="#9a32cd" points="756.5,-373.43 760,-383.43 763.5,-373.43 756.5,-373.43"/>
</a>
</g>
<text text-anchor="middle" x="773.5" y="-333.5" font-family="Helvetica,sans-Serif" font-size="10.00" fill="grey"> obj</text>
<text text-anchor="middle" x="773.5" y="-321.5" font-family="Helvetica,sans-Serif" font-size="10.00" fill="grey">parent</text>
</g>
<!-- Node6&#45;&gt;Node10 -->
<g id="edge16_Node000010_Node000006" class="edge">
<title>Node6&#45;&gt;Node10</title>
<g id="a_edge16_Node000010_Node000006"><a xlink:title=" ">
<path fill="none" stroke="#9a32cd" stroke-dasharray="5,2" d="M780.87,-377.31C784.43,-374.06 787.95,-370.55 791,-367 850.9,-297.23 871.87,-276.49 893,-187 894.23,-181.81 895.77,-179.56 893,-175 888.25,-167.18 880.41,-161.52 872.24,-157.47"/>
<polygon fill="#9a32cd" stroke="#9a32cd" points="778.68,-374.58 773.38,-383.75 783.24,-379.89 778.68,-374.58"/>
</a>
</g>
<text text-anchor="middle" x="901.5" y="-243.5" font-family="Helvetica,sans-Serif" font-size="10.00" fill="grey"> obj</text>
<text text-anchor="middle" x="901.5" y="-231.5" font-family="Helvetica,sans-Serif" font-size="10.00" fill="grey">parent</text>
</g>
<!-- Node7&#45;&gt;Node5 -->
<g id="edge8_Node000005_Node000007" class="edge">
<title>Node7&#45;&gt;Node5</title>
<g id="a_edge8_Node000005_Node000007"><a xlink:title=" ">
<path fill="none" stroke="#9a32cd" stroke-dasharray="5,2" d="M745.5,-221.96C740.12,-216.05 733.7,-209.77 727,-205 711.12,-193.69 704.54,-195.51 687,-187 676.63,-181.97 674.96,-178.57 664,-175 619.38,-160.47 565.96,-153.71 528.96,-150.6"/>
<polygon fill="#9a32cd" stroke="#9a32cd" points="742.82,-224.22 751.98,-229.55 748.14,-219.68 742.82,-224.22"/>
</a>
</g>
<text text-anchor="middle" x="708" y="-177.5" font-family="Helvetica,sans-Serif" font-size="10.00" fill="grey"> proxyInfo</text>
</g>
<!-- Node7&#45;&gt;Node7 -->
<g id="edge11_Node000007_Node000007" class="edge">
<title>Node7&#45;&gt;Node7</title>
<g id="a_edge11_Node000007_Node000007"><a xlink:title=" ">
<path fill="none" stroke="#9a32cd" stroke-dasharray="5,2" d="M788.02,-251.66C793.22,-250.34 796.88,-246.78 796.88,-241 796.88,-231.51 787.03,-228.02 776.69,-230.54"/>
<polygon fill="#9a32cd" stroke="#9a32cd" points="788.26,-248.17 778.2,-251.48 788.13,-255.16 788.26,-248.17"/>
</a>
</g>
<text text-anchor="middle" x="817.88" y="-237.5" font-family="Helvetica,sans-Serif" font-size="10.00" fill="grey"> proxyInfo</text>
</g>
<!-- Node7&#45;&gt;Node10 -->
<g id="edge18_Node000010_Node000007" class="edge">
<title>Node7&#45;&gt;Node10</title>
<g id="a_edge18_Node000010_Node000007"><a xlink:title=" ">
<path fill="none" stroke="#9a32cd" stroke-dasharray="5,2" d="M759.24,-219.48C759.79,-205.48 762.73,-187.32 773,-175 779.67,-167 789.05,-161.36 798.71,-157.38"/>
<polygon fill="#9a32cd" stroke="#9a32cd" points="755.74,-219.37 759.26,-229.36 762.74,-219.36 755.74,-219.37"/>
</a>
</g>
<text text-anchor="middle" x="794" y="-177.5" font-family="Helvetica,sans-Serif" font-size="10.00" fill="grey"> proxyInfo</text>
</g>
<!-- Node8 -->
<g id="Node000008" class="node">
<title>Node8</title>
<g id="a_Node000008"><a xlink:href="../../d4/d04/class_class.html" target="_top" xlink:title="Super root of all classes in Enforce script.">
<polygon fill="white" stroke="#666666" points="903.38,-405 862.62,-405 862.62,-385 903.38,-385 903.38,-405"/>
<text text-anchor="middle" x="883" y="-391.5" font-family="Helvetica,sans-Serif" font-size="10.00">Class</text>
</a>
</g>
</g>
<!-- Node8&#45;&gt;Node5 -->
<g id="edge23_Node000005_Node000008" class="edge">
<title>Node8&#45;&gt;Node5</title>
<g id="a_edge23_Node000005_Node000008"><a xlink:title=" ">
<path fill="none" stroke="#9a32cd" stroke-dasharray="5,2" d="M851.04,-392.85C824.04,-390.62 785.21,-384.33 756,-367 710.66,-340.1 706.59,-321.76 678.75,-277 660.37,-247.45 673.44,-228.74 648,-205 615.27,-174.46 565.33,-160.17 529.16,-153.56"/>
<polygon fill="#9a32cd" stroke="#9a32cd" points="850.46,-396.32 860.67,-393.5 850.93,-389.34 850.46,-396.32"/>
</a>
</g>
<text text-anchor="middle" x="704.62" y="-237.5" font-family="Helvetica,sans-Serif" font-size="10.00" fill="grey"> m_Instance</text>
</g>
<!-- Node8&#45;&gt;Node7 -->
<g id="edge12_Node000007_Node000008" class="edge">
<title>Node8&#45;&gt;Node7</title>
<g id="a_edge12_Node000007_Node000008"><a xlink:title=" ">
<path fill="none" stroke="#9a32cd" stroke-dasharray="5,2" d="M868.48,-376.06C842.14,-343.51 787.36,-275.81 767.44,-251.2"/>
<polygon fill="#9a32cd" stroke="#9a32cd" points="865.71,-378.2 874.72,-383.77 871.15,-373.79 865.71,-378.2"/>
</a>
</g>
<text text-anchor="middle" x="885.62" y="-327.5" font-family="Helvetica,sans-Serif" font-size="10.00" fill="grey"> m_Instance</text>
</g>
<!-- Node8&#45;&gt;Node10 -->
<g id="edge19_Node000010_Node000008" class="edge">
<title>Node8&#45;&gt;Node10</title>
<g id="a_edge19_Node000010_Node000008"><a xlink:title=" ">
<path fill="none" stroke="#9a32cd" stroke-dasharray="5,2" d="M914.87,-390.68C944.39,-386.87 985.17,-379.48 995,-367 1014.8,-341.86 998.15,-326.84 995,-295 990.98,-254.41 999.52,-239.01 977,-205 956.65,-174.26 916.16,-160.07 884.63,-153.53"/>
<polygon fill="#9a32cd" stroke="#9a32cd" points="914.82,-387.16 905.31,-391.83 915.66,-394.11 914.82,-387.16"/>
</a>
</g>
<text text-anchor="middle" x="1019.62" y="-237.5" font-family="Helvetica,sans-Serif" font-size="10.00" fill="grey"> m_Instance</text>
</g>
<!-- Node9 -->
<g id="Node000009" class="node">
<title>Node9</title>
<g id="a_Node000009"><a xlink:href="../../dd/d0a/class_widget.html" target="_top" xlink:title=" ">
<polygon fill="white" stroke="#666666" points="444.38,-405 397.62,-405 397.62,-385 444.38,-385 444.38,-405"/>
<text text-anchor="middle" x="421" y="-391.5" font-family="Helvetica,sans-Serif" font-size="10.00">Widget</text>
</a>
</g>
</g>
<!-- Node9&#45;&gt;Node5 -->
<g id="edge25_Node000005_Node000009" class="edge">
<title>Node9&#45;&gt;Node5</title>
<g id="a_edge25_Node000005_Node000009"><a xlink:title=" ">
<path fill="none" stroke="#9a32cd" stroke-dasharray="5,2" d="M400.4,-377.36C360.81,-343.35 281.52,-264.08 323.25,-205 349.22,-168.24 401.02,-155.04 438.82,-150.38"/>
<polygon fill="#9a32cd" stroke="#9a32cd" points="398.01,-379.92 407.92,-383.67 402.51,-374.56 398.01,-379.92"/>
</a>
</g>
<text text-anchor="middle" x="341.38" y="-237.5" font-family="Helvetica,sans-Serif" font-size="10.00" fill="grey"> m_Root</text>
</g>
<!-- Node9&#45;&gt;Node7 -->
<g id="edge14_Node000007_Node000009" class="edge">
<title>Node9&#45;&gt;Node7</title>
<g id="a_edge14_Node000007_Node000009"><a xlink:title=" ">
<path fill="none" stroke="#9a32cd" stroke-dasharray="5,2" d="M455.87,-391.16C486.85,-387.83 532.99,-380.9 571,-367 646.17,-339.5 664.21,-326.65 727,-277 736.7,-269.33 746.21,-258.83 752.51,-251.34"/>
<polygon fill="#9a32cd" stroke="#9a32cd" points="455.89,-387.64 446.29,-392.11 456.59,-394.6 455.89,-387.64"/>
</a>
</g>
<text text-anchor="middle" x="720.38" y="-327.5" font-family="Helvetica,sans-Serif" font-size="10.00" fill="grey"> m_Root</text>
</g>
<!-- Node9&#45;&gt;Node10 -->
<g id="edge21_Node000010_Node000009" class="edge">
<title>Node9&#45;&gt;Node10</title>
<g id="a_edge21_Node000010_Node000009"><a xlink:title=" ">
<path fill="none" stroke="#9a32cd" stroke-dasharray="5,2" d="M417.84,-373.37C415.69,-351.24 416.06,-316.41 435,-295 455.43,-271.91 478.54,-297.01 502,-277 528.68,-254.25 507.25,-227.37 534.25,-205 573.72,-172.3 722.47,-156.8 797.36,-150.93"/>
<polygon fill="#9a32cd" stroke="#9a32cd" points="414.36,-373.75 419.09,-383.23 421.31,-372.87 414.36,-373.75"/>
</a>
</g>
<text text-anchor="middle" x="552.38" y="-237.5" font-family="Helvetica,sans-Serif" font-size="10.00" fill="grey"> m_Root</text>
</g>
<!-- Node10&#45;&gt;Node7 -->
<g id="edge15_Node000007_Node000010" class="edge">
<title>Node10&#45;&gt;Node7</title>
<g id="a_edge15_Node000007_Node000010"><a xlink:title=" ">
<path fill="none" stroke="#9a32cd" stroke-dasharray="5,2" d="M831.72,-167.31C828.17,-173.86 823.8,-181.02 819,-187 805.04,-204.4 785.12,-221 772.38,-230.85"/>
<polygon fill="#9a32cd" stroke="#9a32cd" points="834.77,-169.04 836.19,-158.54 828.53,-165.87 834.77,-169.04"/>
</a>
</g>
<text text-anchor="middle" x="857.5" y="-177.5" font-family="Helvetica,sans-Serif" font-size="10.00" fill="grey"> m_Subgroups</text>
</g>
<!-- Node10&#45;&gt;Node10 -->
<g id="edge22_Node000010_Node000010" class="edge">
<title>Node10&#45;&gt;Node10</title>
<g id="a_edge22_Node000010_Node000010"><a xlink:title=" ">
<path fill="none" stroke="#9a32cd" stroke-dasharray="5,2" d="M895.63,-151.76C899.73,-150.7 902.25,-149.11 902.25,-147 902.25,-143.35 894.71,-141.26 884.49,-140.75"/>
<polygon fill="#9a32cd" stroke="#9a32cd" points="895.44,-148.26 885.99,-153.05 896.37,-155.19 895.44,-148.26"/>
</a>
</g>
<text text-anchor="middle" x="933.75" y="-143.5" font-family="Helvetica,sans-Serif" font-size="10.00" fill="grey"> m_Subgroups</text>
</g>
</g>
</svg>

<g id="navigator" transform="translate(0 0)" fill="#404254">
  <rect fill="#f2f5e9" fill-opacity="0.5" stroke="#606060" stroke-width=".5" x="0" y="0" width="60" height="60"/>
  <use id="zoomplus" xlink:href="#zoomPlus" x="17" y="9" onmousedown="handleZoom(evt,'in')"/>
  <use id="zoomminus" xlink:href="#zoomMin" x="42" y="9" onmousedown="handleZoom(evt,'out')"/>
  <use id="reset" xlink:href="#resetDef" x="30" y="36" onmousedown="handleReset()"/>
   <use id="arrowup" xlink:href="#arrowUp" x="0" y="0" onmousedown="handlePan(0,-1)"/>
  <use id="arrowright" xlink:href="#arrowRight" x="0" y="0" onmousedown="handlePan(1,0)"/>
  <use id="arrowdown" xlink:href="#arrowDown" x="0" y="0" onmousedown="handlePan(0,1)"/>
  <use id="arrowleft" xlink:href="#arrowLeft" x="0" y="0" onmousedown="handlePan(-1,0)"/>
</g>
<svg viewBox="0 0 15 15" width="100%" height="30px" preserveAspectRatio="xMaxYMin meet">
 <g id="arrow_out" transform="scale(0.3 0.3)">
  <a xlink:href="class_p_p_e_s_m_a_a__coll__graph_org.svg" target="_base">
   <rect id="button" ry="5" rx="5" y="6" x="6" height="38" width="38"
        fill="#f2f5e9" fill-opacity="0.5" stroke="#606060" stroke-width="1.0"/>
   <path id="arrow"
     d="M 11.500037,31.436501 C 11.940474,20.09759 22.043105,11.32322 32.158766,21.979434 L 37.068811,17.246167 C 37.068811,17.246167 37.088388,32 37.088388,32 L 22.160133,31.978069 C 22.160133,31.978069 26.997745,27.140456 26.997745,27.140456 C 18.528582,18.264221 13.291696,25.230495 11.500037,31.436501 z"
     style="fill:#404040;"/>
  </a>
 </g>
</svg>

<style type='text/css'>
<![CDATA[
[data-mouse-over-selected='false'] { opacity: 0.7; }
[data-mouse-over-selected='true']  { opacity: 1.0; }
]]>
</style>
<script type="application/ecmascript"><![CDATA[
document.addEventListener('DOMContentLoaded', (event) => {
  highlightEdges();
  highlightAdjacentNodes();
});
]]></script>
</svg>
