<?xml version="1.0" encoding="UTF-8" standalone="no"?>
<!DOCTYPE svg PUBLIC "-//W3C//DTD SVG 1.1//EN"
 "http://www.w3.org/Graphics/SVG/1.1/DTD/svg11.dtd">
<!-- Generated by graphviz version 11.0.0 (20240428.1522)
 -->
<!-- Title: AreaDamageComponentRaycasted Pages: 1 -->
<!--zoomable 374 -->

<svg id="main" version="1.1" xmlns="http://www.w3.org/2000/svg" xmlns:xlink="http://www.w3.org/1999/xlink" xml:space="preserve" onload="init(evt)">
<style type="text/css"><![CDATA[
.node, .edge {opacity: 0.7;}
.node.selected, .edge.selected {opacity: 1;}
.edge:hover path { stroke: red; }
.edge:hover polygon { stroke: red; fill: red; }
]]></style>

<defs>
  <circle id="rim" cx="0" cy="0" r="7"/>
  <circle id="rim2" cx="0" cy="0" r="3.5"/>
  <g id="zoomPlus">
    <use xlink:href="#rim" fill="#404040"><set attributeName="fill" to="#808080" begin="zoomplus.mouseover" end="zoomplus.mouseout"/></use>
    <path d="M-4,0h8M0,-4v8" fill="none" stroke="white" stroke-width="1.5" pointer-events="none"/>
  </g>
  <g id="zoomMin">
    <use xlink:href="#rim" fill="#404040"><set attributeName="fill" to="#808080" begin="zoomminus.mouseover" end="zoomminus.mouseout"/></use>
    <path d="M-4,0h8" fill="none" stroke="white" stroke-width="1.5" pointer-events="none"/>
  </g>
  <g id="arrowUp" transform="translate(30 24)">
    <use xlink:href="#rim"/>
    <path pointer-events="none" fill="none" stroke="white" stroke-width="1.5" d="M0,-3.0v7 M-2.5,-0.5L0,-3.0L2.5,-0.5"/>
  </g>
  <g id="arrowRight" transform="rotate(90) translate(36 -43)">
    <use xlink:href="#rim"/>
    <path pointer-events="none" fill="none" stroke="white" stroke-width="1.5" d="M0,-3.0v7 M-2.5,-0.5L0,-3.0L2.5,-0.5"/>
  </g>
  <g id="arrowDown" transform="rotate(180) translate(-30 -48)">
    <use xlink:href="#rim"/>
    <path pointer-events="none" fill="none" stroke="white" stroke-width="1.5" d="M0,-3.0v7 M-2.5,-0.5L0,-3.0L2.5,-0.5"/>
  </g>
  <g id="arrowLeft" transform="rotate(270) translate(-36 17)">
    <use xlink:href="#rim"/>
    <path pointer-events="none" fill="none" stroke="white" stroke-width="1.5" d="M0,-3.0v7 M-2.5,-0.5L0,-3.0L2.5,-0.5"/>
  </g>
  <g id="resetDef">
    <use xlink:href="#rim2" fill="#404040"><set attributeName="fill" to="#808080" begin="reset.mouseover" end="reset.mouseout"/></use>
  </g>
</defs>
<script type="application/ecmascript">
var viewWidth = 1626;
var viewHeight = 374;
var sectionId = 'dynsection-1';
</script>
<script type="application/ecmascript" xlink:href="../../svg.min.js"/>
<svg id="graph" class="graph">
<g id="viewport">
<title>AreaDamageComponentRaycasted</title>
<!-- Node1 -->
<g id="Node000001" class="node">
<title>Node1</title>
<g id="a_Node000001"><a xlink:title="Newer implementation equivalent of &quot;AreaDamageRegularRaycasted&quot;, hitzone selection only.">
<polygon fill="#999999" stroke="#666666" points="662,-20 493.75,-20 493.75,0 662,0 662,-20"/>
<text text-anchor="middle" x="577.88" y="-6.5" font-family="Helvetica,sans-Serif" font-size="10.00">AreaDamageComponentRaycasted</text>
</a>
</g>
</g>
<!-- Node2 -->
<g id="Node000002" class="node">
<title>Node2</title>
<g id="a_Node000002"><a xlink:title=" ">
<polygon fill="white" stroke="#666666" points="121.75,-102 0,-102 0,-82 121.75,-82 121.75,-102"/>
<text text-anchor="middle" x="60.88" y="-88.5" font-family="Helvetica,sans-Serif" font-size="10.00">AreaDamageComponent</text>
</a>
</g>
</g>
<!-- Node2&#45;&gt;Node1 -->
<g id="edge1_Node000001_Node000002" class="edge">
<title>Node2&#45;&gt;Node1</title>
<g id="a_edge1_Node000001_Node000002"><a xlink:title=" ">
<path fill="none" stroke="#8b1a1a" d="M78.35,-74.33C92.6,-61.88 113.91,-45.72 135.88,-38 199.61,-15.59 384.15,-11.23 493.59,-10.69"/>
<polygon fill="#8b1a1a" stroke="#8b1a1a" points="76.23,-71.53 71.18,-80.84 80.94,-76.71 76.23,-71.53"/>
</a>
</g>
</g>
<!-- Node3 -->
<g id="Node000003" class="node">
<title>Node3</title>
<g id="a_Node000003"><a xlink:href="../../d2/d01/classarray.html" target="_top" xlink:title=" ">
<polygon fill="white" stroke="#666666" points="1234.5,-102 1153.25,-102 1153.25,-82 1234.5,-82 1234.5,-102"/>
<text text-anchor="middle" x="1193.88" y="-88.5" font-family="Helvetica,sans-Serif" font-size="10.00">array&lt; vector &gt;</text>
</a>
</g>
</g>
<!-- Node3&#45;&gt;Node1 -->
<g id="edge2_Node000001_Node000003" class="edge">
<title>Node3&#45;&gt;Node1</title>
<g id="a_edge2_Node000001_Node000003"><a xlink:title=" ">
<path fill="none" stroke="#9a32cd" stroke-dasharray="5,2" d="M1141.81,-82.62C1112.98,-78.08 1076.48,-72.49 1043.88,-68 910.45,-49.61 755.1,-31.21 661.73,-20.48"/>
<polygon fill="#9a32cd" stroke="#9a32cd" points="1140.94,-86.02 1151.36,-84.13 1142.03,-79.11 1140.94,-86.02"/>
</a>
</g>
<text text-anchor="middle" x="947.12" y="-40.5" font-family="Helvetica,sans-Serif" font-size="10.00" fill="grey"> m_RaycastSources</text>
</g>
<!-- Node4 -->
<g id="Node000004" class="node">
<title>Node4</title>
<g id="a_Node000004"><a xlink:href="../../d8/d03/class_object.html" target="_top" xlink:title=" ">
<polygon fill="white" stroke="#666666" points="1188.12,-364 1143.62,-364 1143.62,-344 1188.12,-344 1188.12,-364"/>
<text text-anchor="middle" x="1165.88" y="-350.5" font-family="Helvetica,sans-Serif" font-size="10.00">Object</text>
</a>
</g>
</g>
<!-- Node4&#45;&gt;Node3 -->
<g id="edge3_Node000003_Node000004" class="edge">
<title>Node4&#45;&gt;Node3</title>
<g id="a_edge3_Node000003_Node000004"><a xlink:title=" ">
<path fill="none" stroke="#9a32cd" stroke-dasharray="5,2" d="M1199.83,-352.44C1241.06,-350.88 1312.22,-345.32 1369.88,-326 1446.87,-300.2 1487.97,-306.15 1528.88,-236 1544.99,-208.36 1549.02,-188.86 1528.88,-164 1492.24,-118.79 1315.76,-101.21 1234.72,-95.43"/>
<polygon fill="#9a32cd" stroke="#9a32cd" points="1199.94,-348.94 1190.05,-352.75 1200.16,-355.94 1199.94,-348.94"/>
</a>
</g>
<text text-anchor="middle" x="1555.38" y="-202.5" font-family="Helvetica,sans-Serif" font-size="10.00" fill="grey"> obj</text>
<text text-anchor="middle" x="1555.38" y="-190.5" font-family="Helvetica,sans-Serif" font-size="10.00" fill="grey">parent</text>
</g>
<!-- Node6 -->
<g id="Node000006" class="node">
<title>Node6</title>
<g id="a_Node000006"><a xlink:href="../../d2/d01/classarray.html" target="_top" xlink:title="Result for an object found in CGame.IsBoxCollidingGeometryProxy.">
<polygon fill="white" stroke="#666666" points="945.75,-210 908,-210 908,-190 945.75,-190 945.75,-210"/>
<text text-anchor="middle" x="926.88" y="-196.5" font-family="Helvetica,sans-Serif" font-size="10.00">array</text>
</a>
</g>
</g>
<!-- Node4&#45;&gt;Node6 -->
<g id="edge6_Node000006_Node000004" class="edge">
<title>Node4&#45;&gt;Node6</title>
<g id="a_edge6_Node000006_Node000004"><a xlink:title=" ">
<path fill="none" stroke="#9a32cd" stroke-dasharray="5,2" d="M1132.17,-352.52C1083.16,-351.14 995.48,-345.88 971.88,-326 946.18,-304.36 960.44,-285.54 948.88,-254 943.18,-238.47 935.62,-220.8 931.01,-210.29"/>
<polygon fill="#9a32cd" stroke="#9a32cd" points="1131.85,-356.02 1141.94,-352.75 1132.02,-349.02 1131.85,-356.02"/>
</a>
</g>
<text text-anchor="middle" x="985.38" y="-292.5" font-family="Helvetica,sans-Serif" font-size="10.00" fill="grey"> obj</text>
<text text-anchor="middle" x="985.38" y="-280.5" font-family="Helvetica,sans-Serif" font-size="10.00" fill="grey">parent</text>
</g>
<!-- Node10 -->
<g id="Node000010" class="node">
<title>Node10</title>
<g id="a_Node000010"><a xlink:href="../../d2/d01/classarray.html" target="_top" xlink:title=" ">
<polygon fill="white" stroke="#666666" points="954.12,-102 867.62,-102 867.62,-82 954.12,-82 954.12,-102"/>
<text text-anchor="middle" x="910.88" y="-88.5" font-family="Helvetica,sans-Serif" font-size="10.00">array&lt; Widget &gt;</text>
</a>
</g>
</g>
<!-- Node4&#45;&gt;Node10 -->
<g id="edge14_Node000010_Node000004" class="edge">
<title>Node4&#45;&gt;Node10</title>
<g id="a_edge14_Node000010_Node000004"><a xlink:title=" ">
<path fill="none" stroke="#9a32cd" stroke-dasharray="5,2" d="M1199.77,-349.95C1233.74,-346.21 1282.93,-338.76 1296.88,-326 1350.71,-276.71 1370.91,-219.82 1323.88,-164 1300.14,-135.84 1055.54,-107.8 954.34,-97.32"/>
<polygon fill="#9a32cd" stroke="#9a32cd" points="1199.57,-346.45 1189.98,-350.96 1200.29,-353.41 1199.57,-346.45"/>
</a>
</g>
<text text-anchor="middle" x="1363.38" y="-202.5" font-family="Helvetica,sans-Serif" font-size="10.00" fill="grey"> obj</text>
<text text-anchor="middle" x="1363.38" y="-190.5" font-family="Helvetica,sans-Serif" font-size="10.00" fill="grey">parent</text>
</g>
<!-- Node12 -->
<g id="Node000012" class="node">
<title>Node12</title>
<g id="a_Node000012"><a xlink:href="../../d2/d01/classarray.html" target="_top" xlink:title=" ">
<polygon fill="white" stroke="#666666" points="651.12,-102 504.62,-102 504.62,-82 651.12,-82 651.12,-102"/>
<text text-anchor="middle" x="577.88" y="-88.5" font-family="Helvetica,sans-Serif" font-size="10.00">array&lt; ref RaycastRVResult &gt;</text>
</a>
</g>
</g>
<!-- Node4&#45;&gt;Node12 -->
<g id="edge27_Node000012_Node000004" class="edge">
<title>Node4&#45;&gt;Node12</title>
<g id="a_edge27_Node000012_Node000004"><a xlink:title=" ">
<path fill="none" stroke="#9a32cd" stroke-dasharray="5,2" d="M1132.01,-351.63C1062.93,-348.56 910.64,-340.24 891.88,-326 864.52,-305.25 887.63,-278.79 863.88,-254 850.11,-239.63 839.38,-247.12 822.88,-236 784.81,-210.37 786.28,-190.58 748.88,-164 724.57,-146.73 716.23,-145.85 688.88,-134 661.16,-122 628.68,-110.26 606.04,-102.44"/>
<polygon fill="#9a32cd" stroke="#9a32cd" points="1131.47,-355.11 1141.61,-352.05 1131.77,-348.12 1131.47,-355.11"/>
</a>
</g>
<text text-anchor="middle" x="836.38" y="-202.5" font-family="Helvetica,sans-Serif" font-size="10.00" fill="grey"> obj</text>
<text text-anchor="middle" x="836.38" y="-190.5" font-family="Helvetica,sans-Serif" font-size="10.00" fill="grey">parent</text>
</g>
<!-- Node5 -->
<g id="Node000005" class="node">
<title>Node5</title>
<g id="a_Node000005"><a xlink:href="../../db/d06/class_param3.html" target="_top" xlink:title=" ">
<polygon fill="white" stroke="#666666" points="500.75,-364 451,-364 451,-344 500.75,-344 500.75,-364"/>
<text text-anchor="middle" x="475.88" y="-350.5" font-family="Helvetica,sans-Serif" font-size="10.00">Param3</text>
</a>
</g>
</g>
<!-- Node5&#45;&gt;Node1 -->
<g id="edge33_Node000001_Node000005" class="edge">
<title>Node5&#45;&gt;Node1</title>
<g id="a_edge33_Node000001_Node000005"><a xlink:title=" ">
<path fill="none" stroke="#9a32cd" stroke-dasharray="5,2" d="M439.17,-352.65C383.97,-351.45 282.95,-346.43 253.88,-326 176.64,-271.74 106.66,-209.64 163.12,-134 205.36,-77.43 409.24,-37.61 514.57,-20.45"/>
<polygon fill="#9a32cd" stroke="#9a32cd" points="438.96,-356.15 449.02,-352.83 439.08,-349.15 438.96,-356.15"/>
</a>
</g>
<text text-anchor="middle" x="218.25" y="-136.5" font-family="Helvetica,sans-Serif" font-size="10.00" fill="grey"> m_RaycastCachedIndex</text>
</g>
<!-- Node5&#45;&gt;Node3 -->
<g id="edge4_Node000003_Node000005" class="edge">
<title>Node5&#45;&gt;Node3</title>
<g id="a_edge4_Node000003_Node000005"><a xlink:title=" ">
<path fill="none" stroke="#9a32cd" stroke-dasharray="5,2" d="M512.33,-351.15C549.07,-349.3 607.4,-346.39 657.88,-344 680.04,-342.95 1041.54,-342.04 1056.88,-326 1078.99,-302.87 1067.89,-284.04 1056.88,-254 1053.27,-244.16 1045.23,-245.84 1041.62,-236 1030.61,-205.96 1022.34,-189.54 1041.62,-164 1059.24,-140.68 1078.04,-157.57 1104.88,-146 1133.28,-133.75 1163.69,-114.04 1180.59,-102.42"/>
<polygon fill="#9a32cd" stroke="#9a32cd" points="512.52,-347.64 502.71,-351.64 512.87,-354.63 512.52,-347.64"/>
</a>
</g>
<text text-anchor="middle" x="1099" y="-226.5" font-family="Helvetica,sans-Serif" font-size="10.00" fill="grey"> NO_SORTING</text>
<text text-anchor="middle" x="1099" y="-214.5" font-family="Helvetica,sans-Serif" font-size="10.00" fill="grey">geomLevel</text>
<text text-anchor="middle" x="1099" y="-202.5" font-family="Helvetica,sans-Serif" font-size="10.00" fill="grey">hierLevel</text>
<text text-anchor="start" x="1040.88" y="-190.5" font-family="Helvetica,sans-Serif" font-size="10.00" fill="grey">m_CurrentSettingAlternate</text>
<text text-anchor="middle" x="1099" y="-178.5" font-family="Helvetica,sans-Serif" font-size="10.00" fill="grey">KeyIndex</text>
<text text-anchor="middle" x="1099" y="-166.5" font-family="Helvetica,sans-Serif" font-size="10.00" fill="grey">m_CurrentSettingKeyIndex</text>
</g>
<!-- Node5&#45;&gt;Node6 -->
<g id="edge7_Node000006_Node000005" class="edge">
<title>Node5&#45;&gt;Node6</title>
<g id="a_edge7_Node000006_Node000005"><a xlink:title=" ">
<path fill="none" stroke="#9a32cd" stroke-dasharray="5,2" d="M496.1,-336.68C526.06,-313.56 584.9,-272.09 642.62,-254 696.04,-237.26 843.31,-260 893.88,-236 905.64,-230.41 915.32,-218.64 921.09,-210.29"/>
<polygon fill="#9a32cd" stroke="#9a32cd" points="493.99,-333.89 488.29,-342.82 498.31,-339.39 493.99,-333.89"/>
</a>
</g>
<text text-anchor="middle" x="700" y="-316.5" font-family="Helvetica,sans-Serif" font-size="10.00" fill="grey"> NO_SORTING</text>
<text text-anchor="middle" x="700" y="-304.5" font-family="Helvetica,sans-Serif" font-size="10.00" fill="grey">geomLevel</text>
<text text-anchor="middle" x="700" y="-292.5" font-family="Helvetica,sans-Serif" font-size="10.00" fill="grey">hierLevel</text>
<text text-anchor="start" x="641.88" y="-280.5" font-family="Helvetica,sans-Serif" font-size="10.00" fill="grey">m_CurrentSettingAlternate</text>
<text text-anchor="middle" x="700" y="-268.5" font-family="Helvetica,sans-Serif" font-size="10.00" fill="grey">KeyIndex</text>
<text text-anchor="middle" x="700" y="-256.5" font-family="Helvetica,sans-Serif" font-size="10.00" fill="grey">m_CurrentSettingKeyIndex</text>
</g>
<!-- Node5&#45;&gt;Node10 -->
<g id="edge15_Node000010_Node000005" class="edge">
<title>Node5&#45;&gt;Node10</title>
<g id="a_edge15_Node000010_Node000005"><a xlink:title=" ">
<path fill="none" stroke="#9a32cd" stroke-dasharray="5,2" d="M469.57,-332.97C458.95,-294.84 442.52,-211.43 484.62,-164 485.02,-163.55 758.78,-118.18 867.31,-100.21"/>
<polygon fill="#9a32cd" stroke="#9a32cd" points="466.11,-333.61 472.31,-342.2 472.82,-331.62 466.11,-333.61"/>
</a>
</g>
<text text-anchor="middle" x="543" y="-226.5" font-family="Helvetica,sans-Serif" font-size="10.00" fill="grey"> NO_SORTING</text>
<text text-anchor="middle" x="543" y="-214.5" font-family="Helvetica,sans-Serif" font-size="10.00" fill="grey">geomLevel</text>
<text text-anchor="middle" x="543" y="-202.5" font-family="Helvetica,sans-Serif" font-size="10.00" fill="grey">hierLevel</text>
<text text-anchor="start" x="484.88" y="-190.5" font-family="Helvetica,sans-Serif" font-size="10.00" fill="grey">m_CurrentSettingAlternate</text>
<text text-anchor="middle" x="543" y="-178.5" font-family="Helvetica,sans-Serif" font-size="10.00" fill="grey">KeyIndex</text>
<text text-anchor="middle" x="543" y="-166.5" font-family="Helvetica,sans-Serif" font-size="10.00" fill="grey">m_CurrentSettingKeyIndex</text>
</g>
<!-- Node5&#45;&gt;Node12 -->
<g id="edge28_Node000012_Node000005" class="edge">
<title>Node5&#45;&gt;Node12</title>
<g id="a_edge28_Node000012_Node000005"><a xlink:title=" ">
<path fill="none" stroke="#9a32cd" stroke-dasharray="5,2" d="M439.57,-346.91C419.3,-342.68 393.97,-335.97 372.88,-326 290.84,-287.22 192.5,-235.29 248.62,-164 279.69,-124.54 417.27,-106.07 504.46,-98.19"/>
<polygon fill="#9a32cd" stroke="#9a32cd" points="438.87,-350.34 449.36,-348.83 440.22,-343.47 438.87,-350.34"/>
</a>
</g>
<text text-anchor="middle" x="307" y="-226.5" font-family="Helvetica,sans-Serif" font-size="10.00" fill="grey"> NO_SORTING</text>
<text text-anchor="middle" x="307" y="-214.5" font-family="Helvetica,sans-Serif" font-size="10.00" fill="grey">geomLevel</text>
<text text-anchor="middle" x="307" y="-202.5" font-family="Helvetica,sans-Serif" font-size="10.00" fill="grey">hierLevel</text>
<text text-anchor="start" x="248.88" y="-190.5" font-family="Helvetica,sans-Serif" font-size="10.00" fill="grey">m_CurrentSettingAlternate</text>
<text text-anchor="middle" x="307" y="-178.5" font-family="Helvetica,sans-Serif" font-size="10.00" fill="grey">KeyIndex</text>
<text text-anchor="middle" x="307" y="-166.5" font-family="Helvetica,sans-Serif" font-size="10.00" fill="grey">m_CurrentSettingKeyIndex</text>
</g>
<!-- Node6&#45;&gt;Node3 -->
<g id="edge5_Node000003_Node000006" class="edge">
<title>Node6&#45;&gt;Node3</title>
<g id="a_edge5_Node000003_Node000006"><a xlink:title=" ">
<path fill="none" stroke="#9a32cd" stroke-dasharray="5,2" d="M954.48,-184.37C981.6,-170.35 1024.39,-149.13 1062.88,-134 1094.81,-121.44 1132.27,-110.04 1158.93,-102.47"/>
<polygon fill="#9a32cd" stroke="#9a32cd" points="953.14,-181.12 945.9,-188.85 956.38,-187.33 953.14,-181.12"/>
</a>
</g>
<text text-anchor="middle" x="1083.88" y="-136.5" font-family="Helvetica,sans-Serif" font-size="10.00" fill="grey"> proxyInfo</text>
</g>
<!-- Node6&#45;&gt;Node6 -->
<g id="edge8_Node000006_Node000006" class="edge">
<title>Node6&#45;&gt;Node6</title>
<g id="a_edge8_Node000006_Node000006"><a xlink:title=" ">
<path fill="none" stroke="#9a32cd" stroke-dasharray="5,2" d="M954.9,-210.66C960.09,-209.34 963.75,-205.78 963.75,-200 963.75,-190.51 953.91,-187.02 943.56,-189.54"/>
<polygon fill="#9a32cd" stroke="#9a32cd" points="955.14,-207.17 945.07,-210.48 955.01,-214.16 955.14,-207.17"/>
</a>
</g>
<text text-anchor="middle" x="984.75" y="-196.5" font-family="Helvetica,sans-Serif" font-size="10.00" fill="grey"> proxyInfo</text>
</g>
<!-- Node6&#45;&gt;Node10 -->
<g id="edge16_Node000010_Node000006" class="edge">
<title>Node6&#45;&gt;Node10</title>
<g id="a_edge16_Node000010_Node000006"><a xlink:title=" ">
<path fill="none" stroke="#9a32cd" stroke-dasharray="5,2" d="M917.84,-178.96C913.94,-169.22 909.83,-157.23 907.88,-146 906.96,-140.75 907.68,-139.33 907.88,-134 908.27,-123.16 909.25,-110.74 909.99,-102.43"/>
<polygon fill="#9a32cd" stroke="#9a32cd" points="914.61,-180.29 921.75,-188.11 921.05,-177.54 914.61,-180.29"/>
</a>
</g>
<text text-anchor="middle" x="928.88" y="-136.5" font-family="Helvetica,sans-Serif" font-size="10.00" fill="grey"> proxyInfo</text>
</g>
<!-- Node6&#45;&gt;Node12 -->
<g id="edge29_Node000012_Node000006" class="edge">
<title>Node6&#45;&gt;Node12</title>
<g id="a_edge29_Node000012_Node000006"><a xlink:title=" ">
<path fill="none" stroke="#9a32cd" stroke-dasharray="5,2" d="M913.42,-180.94C907.97,-174.75 901.23,-168.31 893.88,-164 893.88,-164 773.88,-134 773.88,-134 723.61,-123.77 709.99,-126.95 659.88,-116 642.69,-112.25 623.76,-107.01 608.42,-102.49"/>
<polygon fill="#9a32cd" stroke="#9a32cd" points="910.42,-182.8 919.43,-188.36 915.86,-178.39 910.42,-182.8"/>
</a>
</g>
<text text-anchor="middle" x="839.88" y="-136.5" font-family="Helvetica,sans-Serif" font-size="10.00" fill="grey"> proxyInfo</text>
</g>
<!-- Node7 -->
<g id="Node000007" class="node">
<title>Node7</title>
<g id="a_Node000007"><a xlink:href="../../d4/d04/class_class.html" target="_top" xlink:title="Super root of all classes in Enforce script.">
<polygon fill="white" stroke="#666666" points="707.25,-364 666.5,-364 666.5,-344 707.25,-344 707.25,-364"/>
<text text-anchor="middle" x="686.88" y="-350.5" font-family="Helvetica,sans-Serif" font-size="10.00">Class</text>
</a>
</g>
</g>
<!-- Node7&#45;&gt;Node3 -->
<g id="edge21_Node000003_Node000007" class="edge">
<title>Node7&#45;&gt;Node3</title>
<g id="a_edge21_Node000003_Node000007"><a xlink:title=" ">
<path fill="none" stroke="#9a32cd" stroke-dasharray="5,2" d="M718.97,-351.15C812.17,-345.75 1076.72,-330.09 1084.88,-326 1131.92,-302.37 1138.32,-283.08 1161.88,-236 1185.21,-189.36 1191.69,-125.72 1193.35,-102.21"/>
<polygon fill="#9a32cd" stroke="#9a32cd" points="718.79,-347.66 709,-351.73 719.19,-354.65 718.79,-347.66"/>
</a>
</g>
<text text-anchor="middle" x="1211.5" y="-196.5" font-family="Helvetica,sans-Serif" font-size="10.00" fill="grey"> m_Instance</text>
</g>
<!-- Node7&#45;&gt;Node6 -->
<g id="edge9_Node000006_Node000007" class="edge">
<title>Node7&#45;&gt;Node6</title>
<g id="a_edge9_Node000006_Node000007"><a xlink:title=" ">
<path fill="none" stroke="#9a32cd" stroke-dasharray="5,2" d="M718.54,-345.31C732.79,-340.98 749.4,-334.66 762.88,-326 800.35,-301.91 794.49,-277.04 832.62,-254 856.91,-239.33 869.69,-250.84 893.88,-236 904.69,-229.36 914.3,-218.27 920.32,-210.35"/>
<polygon fill="#9a32cd" stroke="#9a32cd" points="717.84,-341.87 709.17,-347.95 719.75,-348.6 717.84,-341.87"/>
</a>
</g>
<text text-anchor="middle" x="858.5" y="-286.5" font-family="Helvetica,sans-Serif" font-size="10.00" fill="grey"> m_Instance</text>
</g>
<!-- Node7&#45;&gt;Node10 -->
<g id="edge17_Node000010_Node000007" class="edge">
<title>Node7&#45;&gt;Node10</title>
<g id="a_edge17_Node000010_Node000007"><a xlink:title=" ">
<path fill="none" stroke="#9a32cd" stroke-dasharray="5,2" d="M654.81,-351.74C636.12,-349.15 613.93,-342.48 601.88,-326 579.99,-296.08 613.43,-188.06 641.62,-164 675.5,-135.09 800.09,-111.02 867.26,-99.79"/>
<polygon fill="#9a32cd" stroke="#9a32cd" points="654.34,-355.21 664.65,-352.74 655.05,-348.24 654.34,-355.21"/>
</a>
</g>
<text text-anchor="middle" x="667.5" y="-196.5" font-family="Helvetica,sans-Serif" font-size="10.00" fill="grey"> m_Instance</text>
</g>
<!-- Node7&#45;&gt;Node12 -->
<g id="edge30_Node000012_Node000007" class="edge">
<title>Node7&#45;&gt;Node12</title>
<g id="a_edge30_Node000012_Node000007"><a xlink:title=" ">
<path fill="none" stroke="#9a32cd" stroke-dasharray="5,2" d="M655.06,-351.47C592.52,-346.51 454.96,-325.45 400.62,-236 384.01,-208.65 382.69,-190.5 400.62,-164 424.13,-129.27 467.68,-111.53 505.73,-102.46"/>
<polygon fill="#9a32cd" stroke="#9a32cd" points="654.44,-354.94 664.66,-352.14 654.93,-347.96 654.44,-354.94"/>
</a>
</g>
<text text-anchor="middle" x="427.5" y="-196.5" font-family="Helvetica,sans-Serif" font-size="10.00" fill="grey"> m_Instance</text>
</g>
<!-- Node8 -->
<g id="Node000008" class="node">
<title>Node8</title>
<g id="a_Node000008"><a xlink:href="../../d5/d02/classstring.html" target="_top" xlink:title=" ">
<polygon fill="white" stroke="#666666" points="1485.88,-364 1445.88,-364 1445.88,-344 1485.88,-344 1485.88,-364"/>
<text text-anchor="middle" x="1465.88" y="-350.5" font-family="Helvetica,sans-Serif" font-size="10.00">string</text>
</a>
</g>
</g>
<!-- Node8&#45;&gt;Node3 -->
<g id="edge22_Node000003_Node000008" class="edge">
<title>Node8&#45;&gt;Node3</title>
<g id="a_edge22_Node000003_Node000008"><a xlink:title=" ">
<path fill="none" stroke="#9a32cd" stroke-dasharray="5,2" d="M1490.43,-337.19C1495.1,-333.74 1499.79,-329.94 1503.88,-326 1540.16,-291.01 1556.68,-283.73 1572.88,-236 1583.15,-205.7 1590.28,-190.86 1572.88,-164 1536.43,-107.75 1325.1,-96.06 1234.78,-93.63"/>
<polygon fill="#9a32cd" stroke="#9a32cd" points="1488.54,-334.24 1482.35,-342.83 1492.55,-339.98 1488.54,-334.24"/>
</a>
</g>
<text text-anchor="middle" x="1600.5" y="-196.5" font-family="Helvetica,sans-Serif" font-size="10.00" fill="grey"> m_Test</text>
</g>
<!-- Node8&#45;&gt;Node6 -->
<g id="edge10_Node000006_Node000008" class="edge">
<title>Node8&#45;&gt;Node6</title>
<g id="a_edge10_Node000006_Node000008"><a xlink:title=" ">
<path fill="none" stroke="#9a32cd" stroke-dasharray="5,2" d="M1434.51,-345.95C1361.25,-329.23 1173.42,-284.89 1019.88,-236 993.9,-227.73 964.56,-216.34 945.91,-208.82"/>
<polygon fill="#9a32cd" stroke="#9a32cd" points="1433.66,-349.35 1444.18,-348.15 1435.21,-342.52 1433.66,-349.35"/>
</a>
</g>
<text text-anchor="middle" x="1363.5" y="-286.5" font-family="Helvetica,sans-Serif" font-size="10.00" fill="grey"> m_Test</text>
</g>
<!-- Node8&#45;&gt;Node8 -->
<g id="edge11_Node000008_Node000008" class="edge">
<title>Node8&#45;&gt;Node8</title>
<g id="a_edge11_Node000008_Node000008"><a xlink:title=" ">
<path fill="none" stroke="#9a32cd" stroke-dasharray="5,2" d="M1491.64,-365.91C1498.59,-365.28 1503.88,-361.31 1503.88,-354 1503.88,-343.12 1492.17,-339.64 1480.7,-343.55"/>
<polygon fill="#9a32cd" stroke="#9a32cd" points="1492.57,-362.5 1482.2,-364.65 1491.65,-369.44 1492.57,-362.5"/>
</a>
</g>
<text text-anchor="middle" x="1519.62" y="-350.5" font-family="Helvetica,sans-Serif" font-size="10.00" fill="grey"> Empty</text>
</g>
<!-- Node8&#45;&gt;Node10 -->
<g id="edge18_Node000010_Node000008" class="edge">
<title>Node8&#45;&gt;Node10</title>
<g id="a_edge18_Node000010_Node000008"><a xlink:title=" ">
<path fill="none" stroke="#9a32cd" stroke-dasharray="5,2" d="M1472.31,-332.95C1483.18,-294.79 1500.1,-211.31 1457.88,-164 1441.08,-145.18 1081.22,-109.23 954.53,-97.11"/>
<polygon fill="#9a32cd" stroke="#9a32cd" points="1469.06,-331.61 1469.52,-342.19 1475.76,-333.63 1469.06,-331.61"/>
</a>
</g>
<text text-anchor="middle" x="1501.5" y="-196.5" font-family="Helvetica,sans-Serif" font-size="10.00" fill="grey"> m_Test</text>
</g>
<!-- Node8&#45;&gt;Node12 -->
<g id="edge31_Node000012_Node000008" class="edge">
<title>Node8&#45;&gt;Node12</title>
<g id="a_edge31_Node000012_Node000008"><a xlink:title=" ">
<path fill="none" stroke="#9a32cd" stroke-dasharray="5,2" d="M1457.64,-333.22C1437.81,-285.8 1388.47,-169.12 1380.88,-164 1336.8,-134.3 955.27,-154.89 902.88,-146 885,-142.97 881.67,-137.48 863.88,-134 774.55,-116.52 749.41,-132.36 659.88,-116 641.84,-112.7 622.04,-107.21 606.41,-102.41"/>
<polygon fill="#9a32cd" stroke="#9a32cd" points="1454.34,-334.4 1461.42,-342.28 1460.8,-331.71 1454.34,-334.4"/>
</a>
</g>
<text text-anchor="middle" x="1432.5" y="-196.5" font-family="Helvetica,sans-Serif" font-size="10.00" fill="grey"> m_Test</text>
</g>
<!-- Node9 -->
<g id="Node000009" class="node">
<title>Node9</title>
<g id="a_Node000009"><a xlink:href="../../dd/d0a/class_widget.html" target="_top" xlink:title=" ">
<polygon fill="white" stroke="#666666" points="905.25,-364 858.5,-364 858.5,-344 905.25,-344 905.25,-364"/>
<text text-anchor="middle" x="881.88" y="-350.5" font-family="Helvetica,sans-Serif" font-size="10.00">Widget</text>
</a>
</g>
</g>
<!-- Node9&#45;&gt;Node3 -->
<g id="edge23_Node000003_Node000009" class="edge">
<title>Node9&#45;&gt;Node3</title>
<g id="a_edge23_Node000003_Node000009"><a xlink:title=" ">
<path fill="none" stroke="#9a32cd" stroke-dasharray="5,2" d="M916.81,-352.06C996.04,-349.64 1184.34,-342.24 1207.88,-326 1269.19,-283.7 1275.59,-234.27 1250.88,-164 1241.75,-138.05 1218.7,-114.58 1204.86,-102.2"/>
<polygon fill="#9a32cd" stroke="#9a32cd" points="916.92,-348.55 907.02,-352.34 917.12,-355.55 916.92,-348.55"/>
</a>
</g>
<text text-anchor="middle" x="1282.25" y="-196.5" font-family="Helvetica,sans-Serif" font-size="10.00" fill="grey"> m_Root</text>
</g>
<!-- Node9&#45;&gt;Node6 -->
<g id="edge12_Node000006_Node000009" class="edge">
<title>Node9&#45;&gt;Node6</title>
<g id="a_edge12_Node000006_Node000009"><a xlink:title=" ">
<path fill="none" stroke="#9a32cd" stroke-dasharray="5,2" d="M887.69,-333.35C897.51,-300.19 916.99,-234.39 924.15,-210.2"/>
<polygon fill="#9a32cd" stroke="#9a32cd" points="884.47,-331.91 884.98,-342.5 891.18,-333.9 884.47,-331.91"/>
</a>
</g>
<text text-anchor="middle" x="929.25" y="-286.5" font-family="Helvetica,sans-Serif" font-size="10.00" fill="grey"> m_Root</text>
</g>
<!-- Node9&#45;&gt;Node10 -->
<g id="edge19_Node000010_Node000009" class="edge">
<title>Node9&#45;&gt;Node10</title>
<g id="a_edge19_Node000010_Node000009"><a xlink:title=" ">
<path fill="none" stroke="#9a32cd" stroke-dasharray="5,2" d="M874.68,-333.04C863.17,-297.99 843.67,-223.47 862.12,-164 869.92,-138.87 890.04,-114.73 901.85,-102.1"/>
<polygon fill="#9a32cd" stroke="#9a32cd" points="871.29,-333.95 877.85,-342.26 877.91,-331.67 871.29,-333.95"/>
</a>
</g>
<text text-anchor="middle" x="880.25" y="-196.5" font-family="Helvetica,sans-Serif" font-size="10.00" fill="grey"> m_Root</text>
</g>
<!-- Node9&#45;&gt;Node12 -->
<g id="edge32_Node000012_Node000009" class="edge">
<title>Node9&#45;&gt;Node12</title>
<g id="a_edge32_Node000012_Node000009"><a xlink:title=" ">
<path fill="none" stroke="#9a32cd" stroke-dasharray="5,2" d="M847.13,-351.85C780.79,-349.31 641.34,-342.08 626.88,-326 605.47,-302.21 607.36,-279.36 626.88,-254 645.94,-229.23 675.81,-260.77 694.88,-236 714.39,-210.64 710.57,-191.89 694.88,-164 676.81,-131.91 637.73,-112.65 609.7,-102.45"/>
<polygon fill="#9a32cd" stroke="#9a32cd" points="846.61,-355.34 856.73,-352.21 846.87,-348.34 846.61,-355.34"/>
</a>
</g>
<text text-anchor="middle" x="726.25" y="-196.5" font-family="Helvetica,sans-Serif" font-size="10.00" fill="grey"> m_Root</text>
</g>
<!-- Node10&#45;&gt;Node6 -->
<g id="edge13_Node000006_Node000010" class="edge">
<title>Node10&#45;&gt;Node6</title>
<g id="a_edge13_Node000006_Node000010"><a xlink:title=" ">
<path fill="none" stroke="#9a32cd" stroke-dasharray="5,2" d="M934.65,-109.43C942.27,-116.08 949.79,-124.46 953.88,-134 962.34,-153.77 946.4,-177.08 935.62,-189.72"/>
<polygon fill="#9a32cd" stroke="#9a32cd" points="937.05,-106.87 927.04,-103.39 932.7,-112.35 937.05,-106.87"/>
</a>
</g>
<text text-anchor="middle" x="987.38" y="-136.5" font-family="Helvetica,sans-Serif" font-size="10.00" fill="grey"> m_Subgroups</text>
</g>
<!-- Node10&#45;&gt;Node10 -->
<g id="edge20_Node000010_Node000010" class="edge">
<title>Node10&#45;&gt;Node10</title>
<g id="a_edge20_Node000010_Node000010"><a xlink:title=" ">
<path fill="none" stroke="#9a32cd" stroke-dasharray="5,2" d="M965.5,-98.72C969.61,-97.22 972.12,-94.98 972.12,-92 972.12,-86.84 964.59,-83.9 954.37,-83.18"/>
<polygon fill="#9a32cd" stroke="#9a32cd" points="965.03,-95.25 955.85,-100.54 966.33,-102.13 965.03,-95.25"/>
</a>
</g>
<text text-anchor="middle" x="1003.62" y="-88.5" font-family="Helvetica,sans-Serif" font-size="10.00" fill="grey"> m_Subgroups</text>
</g>
<!-- Node11 -->
<g id="Node000011" class="node">
<title>Node11</title>
<g id="a_Node000011"><a xlink:href="../../d7/d0c/classvector.html" target="_top" xlink:title=" ">
<polygon fill="white" stroke="#666666" points="710.62,-102 669.12,-102 669.12,-82 710.62,-82 710.62,-102"/>
<text text-anchor="middle" x="689.88" y="-88.5" font-family="Helvetica,sans-Serif" font-size="10.00">vector</text>
</a>
</g>
</g>
<!-- Node11&#45;&gt;Node1 -->
<g id="edge24_Node000001_Node000011" class="edge">
<title>Node11&#45;&gt;Node1</title>
<g id="a_edge24_Node000001_Node000011"><a xlink:title=" ">
<path fill="none" stroke="#9a32cd" stroke-dasharray="5,2" d="M683.65,-71.22C679.21,-60.05 672.17,-46.64 661.88,-38 652.37,-30.03 640.47,-24.4 628.64,-20.42"/>
<polygon fill="#9a32cd" stroke="#9a32cd" points="680.23,-72.06 686.86,-80.32 686.83,-69.73 680.23,-72.06"/>
</a>
</g>
<text text-anchor="middle" x="718.5" y="-40.5" font-family="Helvetica,sans-Serif" font-size="10.00" fill="grey"> m_RaycastEndOffset</text>
</g>
<!-- Node11&#45;&gt;Node11 -->
<g id="edge25_Node000011_Node000011" class="edge">
<title>Node11&#45;&gt;Node11</title>
<g id="a_edge25_Node000011_Node000011"><a xlink:title=" ">
<path fill="none" stroke="#9a32cd" stroke-dasharray="5,2" d="M722.42,-99.67C726.18,-98.25 728.62,-95.69 728.62,-92 728.62,-85.25 720.45,-82.3 711,-83.14"/>
<polygon fill="#9a32cd" stroke="#9a32cd" points="722.09,-96.18 712.51,-100.7 722.81,-103.15 722.09,-96.18"/>
</a>
</g>
<text text-anchor="middle" x="745.88" y="-106.5" font-family="Helvetica,sans-Serif" font-size="10.00" fill="grey"> Aside</text>
<text text-anchor="middle" x="745.88" y="-94.5" font-family="Helvetica,sans-Serif" font-size="10.00" fill="grey">Forward</text>
<text text-anchor="middle" x="745.88" y="-82.5" font-family="Helvetica,sans-Serif" font-size="10.00" fill="grey">Up</text>
<text text-anchor="middle" x="745.88" y="-70.5" font-family="Helvetica,sans-Serif" font-size="10.00" fill="grey">Zero</text>
</g>
<!-- Node12&#45;&gt;Node1 -->
<g id="edge26_Node000001_Node000012" class="edge">
<title>Node12&#45;&gt;Node1</title>
<g id="a_edge26_Node000001_Node000012"><a xlink:title=" ">
<path fill="none" stroke="#9a32cd" stroke-dasharray="5,2" d="M577.88,-70.06C577.88,-54.01 577.88,-32.62 577.88,-20.48"/>
<polygon fill="#9a32cd" stroke="#9a32cd" points="574.38,-70 577.88,-80 581.38,-70 574.38,-70"/>
</a>
</g>
<text text-anchor="middle" x="618" y="-40.5" font-family="Helvetica,sans-Serif" font-size="10.00" fill="grey"> m_RaycastCache</text>
</g>
</g>
</svg>

<g id="navigator" transform="translate(0 0)" fill="#404254">
  <rect fill="#f2f5e9" fill-opacity="0.5" stroke="#606060" stroke-width=".5" x="0" y="0" width="60" height="60"/>
  <use id="zoomplus" xlink:href="#zoomPlus" x="17" y="9" onmousedown="handleZoom(evt,'in')"/>
  <use id="zoomminus" xlink:href="#zoomMin" x="42" y="9" onmousedown="handleZoom(evt,'out')"/>
  <use id="reset" xlink:href="#resetDef" x="30" y="36" onmousedown="handleReset()"/>
   <use id="arrowup" xlink:href="#arrowUp" x="0" y="0" onmousedown="handlePan(0,-1)"/>
  <use id="arrowright" xlink:href="#arrowRight" x="0" y="0" onmousedown="handlePan(1,0)"/>
  <use id="arrowdown" xlink:href="#arrowDown" x="0" y="0" onmousedown="handlePan(0,1)"/>
  <use id="arrowleft" xlink:href="#arrowLeft" x="0" y="0" onmousedown="handlePan(-1,0)"/>
</g>
<svg viewBox="0 0 15 15" width="100%" height="30px" preserveAspectRatio="xMaxYMin meet">
 <g id="arrow_out" transform="scale(0.3 0.3)">
  <a xlink:href="class_area_damage_component_raycasted__coll__graph_org.svg" target="_base">
   <rect id="button" ry="5" rx="5" y="6" x="6" height="38" width="38"
        fill="#f2f5e9" fill-opacity="0.5" stroke="#606060" stroke-width="1.0"/>
   <path id="arrow"
     d="M 11.500037,31.436501 C 11.940474,20.09759 22.043105,11.32322 32.158766,21.979434 L 37.068811,17.246167 C 37.068811,17.246167 37.088388,32 37.088388,32 L 22.160133,31.978069 C 22.160133,31.978069 26.997745,27.140456 26.997745,27.140456 C 18.528582,18.264221 13.291696,25.230495 11.500037,31.436501 z"
     style="fill:#404040;"/>
  </a>
 </g>
</svg>

<style type='text/css'>
<![CDATA[
[data-mouse-over-selected='false'] { opacity: 0.7; }
[data-mouse-over-selected='true']  { opacity: 1.0; }
]]>
</style>
<script type="application/ecmascript"><![CDATA[
document.addEventListener('DOMContentLoaded', (event) => {
  highlightEdges();
  highlightAdjacentNodes();
});
]]></script>
</svg>
