<?xml version="1.0" encoding="UTF-8" standalone="no"?>
<!DOCTYPE svg PUBLIC "-//W3C//DTD SVG 1.1//EN"
 "http://www.w3.org/Graphics/SVG/1.1/DTD/svg11.dtd">
<!-- Generated by graphviz version 11.0.0 (20240428.1522)
 -->
<!-- Title: ScriptConsoleTabBase Pages: 1 -->
<svg width="291pt" height="294pt"
 viewBox="0.00 0.00 291.25 294.00" xmlns="http://www.w3.org/2000/svg" xmlns:xlink="http://www.w3.org/1999/xlink">

<svg id="main" version="1.1" xmlns="http://www.w3.org/2000/svg" xmlns:xlink="http://www.w3.org/1999/xlink" xml:space="preserve" onload="init(evt)">
<style type="text/css"><![CDATA[
.node, .edge {opacity: 0.7;}
.node.selected, .edge.selected {opacity: 1;}
.edge:hover path { stroke: red; }
.edge:hover polygon { stroke: red; fill: red; }
]]></style>
<script type="application/ecmascript" xlink:href="../../svg.min.js"/>
<svg id="graph" class="graph">
<g id="graph0" class="graph" transform="scale(1 1) rotate(0) translate(4 290)">
<title>ScriptConsoleTabBase</title>
<!-- Node1 -->
<g id="Node000001" class="node">
<title>Node1</title>
<g id="a_Node000001"><a xlink:title=" ">
<polygon fill="#999999" stroke="#666666" points="115,-153 0,-153 0,-133 115,-133 115,-153"/>
<text text-anchor="middle" x="57.5" y="-139.5" font-family="Helvetica,sans-Serif" font-size="10.00">ScriptConsoleTabBase</text>
</a>
</g>
</g>
<!-- Node2 -->
<g id="Node000002" class="node">
<title>Node2</title>
<g id="a_Node000002"><a xlink:href="../../df/d0f/class_script_console_config_tab.html" target="_top" xlink:title=" ">
<polygon fill="white" stroke="#666666" points="276.88,-286 157.38,-286 157.38,-266 276.88,-266 276.88,-286"/>
<text text-anchor="middle" x="217.12" y="-272.5" font-family="Helvetica,sans-Serif" font-size="10.00">ScriptConsoleConfigTab</text>
</a>
</g>
</g>
<!-- Node1&#45;&gt;Node2 -->
<g id="edge1_Node000001_Node000002" class="edge">
<title>Node1&#45;&gt;Node2</title>
<g id="a_edge1_Node000001_Node000002"><a xlink:title=" ">
<path fill="none" stroke="#8b1a1a" d="M69.49,-162.99C84.56,-188.55 114.04,-232.44 151,-257 156.2,-260.45 162.04,-263.29 168.03,-265.62"/>
<polygon fill="#8b1a1a" stroke="#8b1a1a" points="72.68,-161.52 64.68,-154.58 66.61,-165 72.68,-161.52"/>
</a>
</g>
</g>
<!-- Node3 -->
<g id="Node000003" class="node">
<title>Node3</title>
<g id="a_Node000003"><a xlink:href="../../d4/d01/class_script_console_enf_script_tab.html" target="_top" xlink:title=" ">
<polygon fill="white" stroke="#666666" points="283.25,-248 151,-248 151,-228 283.25,-228 283.25,-248"/>
<text text-anchor="middle" x="217.12" y="-234.5" font-family="Helvetica,sans-Serif" font-size="10.00">ScriptConsoleEnfScriptTab</text>
</a>
</g>
</g>
<!-- Node1&#45;&gt;Node3 -->
<g id="edge2_Node000001_Node000003" class="edge">
<title>Node1&#45;&gt;Node3</title>
<g id="a_edge2_Node000001_Node000003"><a xlink:title=" ">
<path fill="none" stroke="#8b1a1a" d="M75.98,-161.1C93.49,-178.27 121.94,-203.65 151,-219 157.35,-222.35 164.38,-225.19 171.39,-227.56"/>
<polygon fill="#8b1a1a" stroke="#8b1a1a" points="78.92,-159.09 69.38,-154.49 73.96,-164.04 78.92,-159.09"/>
</a>
</g>
</g>
<!-- Node4 -->
<g id="Node000004" class="node">
<title>Node4</title>
<g id="a_Node000004"><a xlink:href="../../d8/d04/class_script_console_general_tab.html" target="_top" xlink:title=" ">
<polygon fill="white" stroke="#666666" points="280.25,-210 154,-210 154,-190 280.25,-190 280.25,-210"/>
<text text-anchor="middle" x="217.12" y="-196.5" font-family="Helvetica,sans-Serif" font-size="10.00">ScriptConsoleGeneralTab</text>
</a>
</g>
</g>
<!-- Node1&#45;&gt;Node4 -->
<g id="edge3_Node000001_Node000004" class="edge">
<title>Node1&#45;&gt;Node4</title>
<g id="a_edge3_Node000001_Node000004"><a xlink:title=" ">
<path fill="none" stroke="#8b1a1a" d="M92.04,-157.78C109.46,-165.2 131.19,-174.06 151,-181 159.56,-184 168.86,-186.91 177.69,-189.52"/>
<polygon fill="#8b1a1a" stroke="#8b1a1a" points="93.77,-154.72 83.2,-153.98 91,-161.14 93.77,-154.72"/>
</a>
</g>
</g>
<!-- Node5 -->
<g id="Node000005" class="node">
<title>Node5</title>
<g id="a_Node000005"><a xlink:href="../../d0/d07/class_script_console_items_tab.html" target="_top" xlink:title=" ">
<polygon fill="white" stroke="#666666" points="275.38,-172 158.88,-172 158.88,-152 275.38,-152 275.38,-172"/>
<text text-anchor="middle" x="217.12" y="-158.5" font-family="Helvetica,sans-Serif" font-size="10.00">ScriptConsoleItemsTab</text>
</a>
</g>
</g>
<!-- Node1&#45;&gt;Node5 -->
<g id="edge4_Node000001_Node000005" class="edge">
<title>Node1&#45;&gt;Node5</title>
<g id="a_edge4_Node000001_Node000005"><a xlink:title=" ">
<path fill="none" stroke="#8b1a1a" d="M126.75,-151.23C137.34,-152.5 148.19,-153.81 158.51,-155.05"/>
<polygon fill="#8b1a1a" stroke="#8b1a1a" points="127.26,-147.76 116.91,-150.04 126.42,-154.71 127.26,-147.76"/>
</a>
</g>
</g>
<!-- Node6 -->
<g id="Node000006" class="node">
<title>Node6</title>
<g id="a_Node000006"><a xlink:href="../../d0/d0f/class_script_console_output_tab.html" target="_top" xlink:title=" ">
<polygon fill="white" stroke="#666666" points="278,-134 156.25,-134 156.25,-114 278,-114 278,-134"/>
<text text-anchor="middle" x="217.12" y="-120.5" font-family="Helvetica,sans-Serif" font-size="10.00">ScriptConsoleOutputTab</text>
</a>
</g>
</g>
<!-- Node1&#45;&gt;Node6 -->
<g id="edge5_Node000001_Node000006" class="edge">
<title>Node1&#45;&gt;Node6</title>
<g id="a_edge5_Node000001_Node000006"><a xlink:title=" ">
<path fill="none" stroke="#8b1a1a" d="M126.67,-134.78C136.37,-133.61 146.3,-132.42 155.84,-131.27"/>
<polygon fill="#8b1a1a" stroke="#8b1a1a" points="126.42,-131.29 116.91,-135.96 127.26,-138.24 126.42,-131.29"/>
</a>
</g>
</g>
<!-- Node7 -->
<g id="Node000007" class="node">
<title>Node7</title>
<g id="a_Node000007"><a xlink:href="../../da/d0e/class_script_console_sounds_tab.html" target="_top" xlink:title=" ">
<polygon fill="white" stroke="#666666" points="279.88,-96 154.38,-96 154.38,-76 279.88,-76 279.88,-96"/>
<text text-anchor="middle" x="217.12" y="-82.5" font-family="Helvetica,sans-Serif" font-size="10.00">ScriptConsoleSoundsTab</text>
</a>
</g>
</g>
<!-- Node1&#45;&gt;Node7 -->
<g id="edge6_Node000001_Node000007" class="edge">
<title>Node1&#45;&gt;Node7</title>
<g id="a_edge6_Node000001_Node000007"><a xlink:title=" ">
<path fill="none" stroke="#8b1a1a" d="M92.04,-128.22C109.46,-120.8 131.19,-111.94 151,-105 159.56,-102 168.86,-99.09 177.69,-96.48"/>
<polygon fill="#8b1a1a" stroke="#8b1a1a" points="91,-124.86 83.2,-132.02 93.77,-131.28 91,-124.86"/>
</a>
</g>
</g>
<!-- Node8 -->
<g id="Node000008" class="node">
<title>Node8</title>
<g id="a_Node000008"><a xlink:href="../../d0/d0f/class_script_console_vicinity_tab.html" target="_top" xlink:title=" ">
<polygon fill="white" stroke="#666666" points="279.5,-58 154.75,-58 154.75,-38 279.5,-38 279.5,-58"/>
<text text-anchor="middle" x="217.12" y="-44.5" font-family="Helvetica,sans-Serif" font-size="10.00">ScriptConsoleVicinityTab</text>
</a>
</g>
</g>
<!-- Node1&#45;&gt;Node8 -->
<g id="edge7_Node000001_Node000008" class="edge">
<title>Node1&#45;&gt;Node8</title>
<g id="a_edge7_Node000001_Node000008"><a xlink:title=" ">
<path fill="none" stroke="#8b1a1a" d="M75.98,-124.9C93.49,-107.73 121.94,-82.35 151,-67 157.35,-63.65 164.38,-60.81 171.39,-58.44"/>
<polygon fill="#8b1a1a" stroke="#8b1a1a" points="73.96,-121.96 69.38,-131.51 78.92,-126.91 73.96,-121.96"/>
</a>
</g>
</g>
<!-- Node9 -->
<g id="Node000009" class="node">
<title>Node9</title>
<g id="a_Node000009"><a xlink:href="../../d1/d03/class_script_console_weather_tab.html" target="_top" xlink:title=" ">
<polygon fill="white" stroke="#666666" points="281.75,-20 152.5,-20 152.5,0 281.75,0 281.75,-20"/>
<text text-anchor="middle" x="217.12" y="-6.5" font-family="Helvetica,sans-Serif" font-size="10.00">ScriptConsoleWeatherTab</text>
</a>
</g>
</g>
<!-- Node1&#45;&gt;Node9 -->
<g id="edge8_Node000001_Node000009" class="edge">
<title>Node1&#45;&gt;Node9</title>
<g id="a_edge8_Node000001_Node000009"><a xlink:title=" ">
<path fill="none" stroke="#8b1a1a" d="M69.49,-123.01C84.56,-97.45 114.04,-53.56 151,-29 156.2,-25.55 162.04,-22.71 168.03,-20.38"/>
<polygon fill="#8b1a1a" stroke="#8b1a1a" points="66.61,-121 64.68,-131.42 72.68,-124.48 66.61,-121"/>
</a>
</g>
</g>
</g>
</svg>
</svg>

<style type='text/css'>
<![CDATA[
[data-mouse-over-selected='false'] { opacity: 0.7; }
[data-mouse-over-selected='true']  { opacity: 1.0; }
]]>
</style>
<script type="application/ecmascript"><![CDATA[
document.addEventListener('DOMContentLoaded', (event) => {
  highlightEdges();
  highlightAdjacentNodes();
});
]]></script>
</svg>
