<?xml version="1.0" encoding="UTF-8" standalone="no"?>
<!DOCTYPE svg PUBLIC "-//W3C//DTD SVG 1.1//EN"
 "http://www.w3.org/Graphics/SVG/1.1/DTD/svg11.dtd">
<!-- Generated by graphviz version 11.0.0 (20240428.1522)
 -->
<!-- Title: GetServersInput Pages: 1 -->
<svg width="376pt" height="224pt"
 viewBox="0.00 0.00 375.50 223.78" xmlns="http://www.w3.org/2000/svg" xmlns:xlink="http://www.w3.org/1999/xlink">
<g id="graph0" class="graph" transform="scale(1 1) rotate(0) translate(4 219.78)">
<title>GetServersInput</title>
<!-- Node1 -->
<g id="Node000001" class="node">
<title>Node1</title>
<g id="a_Node000001"><a xlink:title="GetServersInput the input structure of the GetServers operation.">
<polygon fill="#999999" stroke="#666666" points="219.5,-20 134.5,-20 134.5,0 219.5,0 219.5,-20"/>
<text text-anchor="middle" x="177" y="-6.5" font-family="Helvetica,sans-Serif" font-size="10.00">GetServersInput</text>
</a>
</g>
</g>
<!-- Node2 -->
<g id="Node000002" class="node">
<title>Node2</title>
<g id="a_Node000002"><a xlink:href="../../d9/d09/classbool.html" target="_top" xlink:title=" ">
<polygon fill="white" stroke="#666666" points="34,-208 0,-208 0,-188 34,-188 34,-208"/>
<text text-anchor="middle" x="17" y="-194.5" font-family="Helvetica,sans-Serif" font-size="10.00">bool</text>
</a>
</g>
</g>
<!-- Node2&#45;&gt;Node1 -->
<g id="edge1_Node000001_Node000002" class="edge">
<title>Node2&#45;&gt;Node1</title>
<g id="a_edge1_Node000001_Node000002"><a xlink:title=" ">
<path fill="none" stroke="#9a32cd" stroke-dasharray="5,2" d="M12.67,-176.43C6.91,-142.76 1.14,-75.84 36.5,-38 49.56,-24.03 97.75,-17.09 134.08,-13.79"/>
<polygon fill="#9a32cd" stroke="#9a32cd" points="9.21,-176.92 14.52,-186.09 16.08,-175.61 9.21,-176.92"/>
</a>
</g>
<text text-anchor="middle" x="105.25" y="-160.5" font-family="Helvetica,sans-Serif" font-size="10.00" fill="grey"> m_AntiCheat</text>
<text text-anchor="middle" x="105.25" y="-148.5" font-family="Helvetica,sans-Serif" font-size="10.00" fill="grey">m_IsDLC</text>
<text text-anchor="middle" x="105.25" y="-136.5" font-family="Helvetica,sans-Serif" font-size="10.00" fill="grey">m_IsModded</text>
<text text-anchor="middle" x="105.25" y="-124.5" font-family="Helvetica,sans-Serif" font-size="10.00" fill="grey">m_IsPasswordProtected</text>
<text text-anchor="middle" x="105.25" y="-112.5" font-family="Helvetica,sans-Serif" font-size="10.00" fill="grey">m_Joinable</text>
<text text-anchor="middle" x="105.25" y="-100.5" font-family="Helvetica,sans-Serif" font-size="10.00" fill="grey">m_MouseAndKeyboardEnabled</text>
<text text-anchor="middle" x="105.25" y="-88.5" font-family="Helvetica,sans-Serif" font-size="10.00" fill="grey">m_Official</text>
<text text-anchor="middle" x="105.25" y="-76.5" font-family="Helvetica,sans-Serif" font-size="10.00" fill="grey">m_UseAntiCheat</text>
<text text-anchor="middle" x="105.25" y="-64.5" font-family="Helvetica,sans-Serif" font-size="10.00" fill="grey">m_UseFreeSlotsMax</text>
<text text-anchor="middle" x="105.25" y="-52.5" font-family="Helvetica,sans-Serif" font-size="10.00" fill="grey">m_UseFreeSlotsMin</text>
<text text-anchor="middle" x="105.25" y="-40.5" font-family="Helvetica,sans-Serif" font-size="10.00" fill="grey">...</text>
</g>
<!-- Node3 -->
<g id="Node000003" class="node">
<title>Node3</title>
<g id="a_Node000003"><a xlink:href="../../db/d06/class_param3.html" target="_top" xlink:title=" ">
<polygon fill="white" stroke="#666666" points="201.88,-208 152.12,-208 152.12,-188 201.88,-188 201.88,-208"/>
<text text-anchor="middle" x="177" y="-194.5" font-family="Helvetica,sans-Serif" font-size="10.00">Param3</text>
</a>
</g>
</g>
<!-- Node3&#45;&gt;Node1 -->
<g id="edge2_Node000001_Node000003" class="edge">
<title>Node3&#45;&gt;Node1</title>
<g id="a_edge2_Node000001_Node000003"><a xlink:title=" ">
<path fill="none" stroke="#9a32cd" stroke-dasharray="5,2" d="M177,-176.23C177,-135.98 177,-48.77 177,-20.24"/>
<polygon fill="#9a32cd" stroke="#9a32cd" points="173.5,-176.01 177,-186.01 180.5,-176.01 173.5,-176.01"/>
</a>
</g>
<text text-anchor="middle" x="215.62" y="-160.5" font-family="Helvetica,sans-Serif" font-size="10.00" fill="grey"> m_FreeSlotsMax</text>
<text text-anchor="middle" x="215.62" y="-148.5" font-family="Helvetica,sans-Serif" font-size="10.00" fill="grey">m_FreeSlotsMin</text>
<text text-anchor="middle" x="215.62" y="-136.5" font-family="Helvetica,sans-Serif" font-size="10.00" fill="grey">m_HostPort</text>
<text text-anchor="middle" x="215.62" y="-124.5" font-family="Helvetica,sans-Serif" font-size="10.00" fill="grey">m_MaxPlayers</text>
<text text-anchor="middle" x="215.62" y="-112.5" font-family="Helvetica,sans-Serif" font-size="10.00" fill="grey">m_MinPlayers</text>
<text text-anchor="middle" x="215.62" y="-100.5" font-family="Helvetica,sans-Serif" font-size="10.00" fill="grey">m_ModeId</text>
<text text-anchor="middle" x="215.62" y="-88.5" font-family="Helvetica,sans-Serif" font-size="10.00" fill="grey">m_Page</text>
<text text-anchor="middle" x="215.62" y="-76.5" font-family="Helvetica,sans-Serif" font-size="10.00" fill="grey">m_Platform</text>
<text text-anchor="middle" x="215.62" y="-64.5" font-family="Helvetica,sans-Serif" font-size="10.00" fill="grey">m_Priority</text>
<text text-anchor="middle" x="215.62" y="-52.5" font-family="Helvetica,sans-Serif" font-size="10.00" fill="grey">m_RegionId</text>
<text text-anchor="middle" x="215.62" y="-40.5" font-family="Helvetica,sans-Serif" font-size="10.00" fill="grey">...</text>
</g>
<!-- Node4 -->
<g id="Node000004" class="node">
<title>Node4</title>
<g id="a_Node000004"><a xlink:href="../../d5/d02/classstring.html" target="_top" xlink:title=" ">
<polygon fill="white" stroke="#666666" points="297,-208 257,-208 257,-188 297,-188 297,-208"/>
<text text-anchor="middle" x="277" y="-194.5" font-family="Helvetica,sans-Serif" font-size="10.00">string</text>
</a>
</g>
</g>
<!-- Node4&#45;&gt;Node1 -->
<g id="edge3_Node000001_Node000004" class="edge">
<title>Node4&#45;&gt;Node1</title>
<g id="a_edge3_Node000001_Node000004"><a xlink:title=" ">
<path fill="none" stroke="#9a32cd" stroke-dasharray="5,2" d="M280.39,-176.5C284.62,-143.41 287.79,-77.93 255,-38 246.18,-27.26 232.84,-20.78 219.68,-16.88"/>
<polygon fill="#9a32cd" stroke="#9a32cd" points="276.93,-175.92 278.94,-186.33 283.86,-176.94 276.93,-175.92"/>
</a>
</g>
<text text-anchor="middle" x="324.75" y="-136.5" font-family="Helvetica,sans-Serif" font-size="10.00" fill="grey"> m_FavoriteServers</text>
<text text-anchor="middle" x="324.75" y="-124.5" font-family="Helvetica,sans-Serif" font-size="10.00" fill="grey">m_GameType</text>
<text text-anchor="middle" x="324.75" y="-112.5" font-family="Helvetica,sans-Serif" font-size="10.00" fill="grey">m_GameVersion</text>
<text text-anchor="middle" x="324.75" y="-100.5" font-family="Helvetica,sans-Serif" font-size="10.00" fill="grey">m_HostIp</text>
<text text-anchor="middle" x="324.75" y="-88.5" font-family="Helvetica,sans-Serif" font-size="10.00" fill="grey">m_MapNameToRun</text>
<text text-anchor="middle" x="324.75" y="-76.5" font-family="Helvetica,sans-Serif" font-size="10.00" fill="grey">m_Name</text>
<text text-anchor="middle" x="324.75" y="-64.5" font-family="Helvetica,sans-Serif" font-size="10.00" fill="grey">m_SortBy</text>
</g>
<!-- Node4&#45;&gt;Node4 -->
<g id="edge4_Node000004_Node000004" class="edge">
<title>Node4&#45;&gt;Node4</title>
<g id="a_edge4_Node000004_Node000004"><a xlink:title=" ">
<path fill="none" stroke="#9a32cd" stroke-dasharray="5,2" d="M294.44,-214.47C305.01,-218.25 315,-212.76 315,-198 315,-178.72 297.95,-175.26 284.83,-187.61"/>
<polygon fill="#9a32cd" stroke="#9a32cd" points="296.43,-211.59 286.11,-209.2 292.69,-217.51 296.43,-211.59"/>
</a>
</g>
<text text-anchor="middle" x="330.75" y="-194.5" font-family="Helvetica,sans-Serif" font-size="10.00" fill="grey"> Empty</text>
</g>
</g>
</svg>
