<?xml version="1.0" encoding="UTF-8" standalone="no"?>
<!DOCTYPE svg PUBLIC "-//W3C//DTD SVG 1.1//EN"
 "http://www.w3.org/Graphics/SVG/1.1/DTD/svg11.dtd">
<!-- Generated by graphviz version 11.0.0 (20240428.1522)
 -->
<!-- Title: TraceContact Pages: 1 -->
<svg width="418pt" height="172pt"
 viewBox="0.00 0.00 418.25 172.00" xmlns="http://www.w3.org/2000/svg" xmlns:xlink="http://www.w3.org/1999/xlink">
<g id="graph0" class="graph" transform="scale(1 1) rotate(0) translate(4 168)">
<title>TraceContact</title>
<!-- Node1 -->
<g id="Node000001" class="node">
<title>Node1</title>
<g id="a_Node000001"><a xlink:title="collision and tracing WARNING: Non&#45;managed, needs manual delete call, should not be ref&#39;d">
<polygon fill="#999999" stroke="#666666" points="216.88,-20 143.12,-20 143.12,0 216.88,0 216.88,-20"/>
<text text-anchor="middle" x="180" y="-6.5" font-family="Helvetica,sans-Serif" font-size="10.00">TraceContact</text>
</a>
</g>
</g>
<!-- Node2 -->
<g id="Node000002" class="node">
<title>Node2</title>
<g id="a_Node000002"><a xlink:href="../../d4/d03/classfloat.html" target="_top" xlink:title=" ">
<polygon fill="white" stroke="#666666" points="34,-150 0,-150 0,-130 34,-130 34,-150"/>
<text text-anchor="middle" x="17" y="-136.5" font-family="Helvetica,sans-Serif" font-size="10.00">float</text>
</a>
</g>
</g>
<!-- Node2&#45;&gt;Node1 -->
<g id="edge1_Node000001_Node000002" class="edge">
<title>Node2&#45;&gt;Node1</title>
<g id="a_edge1_Node000001_Node000002"><a xlink:title=" ">
<path fill="none" stroke="#9a32cd" stroke-dasharray="5,2" d="M25.7,-119.4C36.84,-96.52 58.28,-59.14 87.75,-38 103.89,-26.43 124.95,-19.78 142.88,-15.98"/>
<polygon fill="#9a32cd" stroke="#9a32cd" points="22.63,-117.69 21.58,-128.23 28.98,-120.64 22.63,-117.69"/>
</a>
</g>
<text text-anchor="middle" x="106.12" y="-70.5" font-family="Helvetica,sans-Serif" font-size="10.00" fill="grey"> Fraction</text>
<text text-anchor="middle" x="106.12" y="-58.5" font-family="Helvetica,sans-Serif" font-size="10.00" fill="grey">Plane</text>
</g>
<!-- Node2&#45;&gt;Node2 -->
<g id="edge2_Node000002_Node000002" class="edge">
<title>Node2&#45;&gt;Node2</title>
<g id="a_edge2_Node000002_Node000002"><a xlink:title=" ">
<path fill="none" stroke="#9a32cd" stroke-dasharray="5,2" d="M38.68,-153.5C46.06,-153.58 52,-149.08 52,-140 52,-126.64 39.15,-123.2 27.75,-129.67"/>
<polygon fill="#9a32cd" stroke="#9a32cd" points="39.78,-150.17 29.2,-150.75 37.83,-156.9 39.78,-150.17"/>
</a>
</g>
<text text-anchor="middle" x="74.12" y="-148.5" font-family="Helvetica,sans-Serif" font-size="10.00" fill="grey"> LOWEST</text>
<text text-anchor="middle" x="74.12" y="-136.5" font-family="Helvetica,sans-Serif" font-size="10.00" fill="grey">MAX</text>
<text text-anchor="middle" x="74.12" y="-124.5" font-family="Helvetica,sans-Serif" font-size="10.00" fill="grey">MIN</text>
</g>
<!-- Node3 -->
<g id="Node000003" class="node">
<title>Node3</title>
<g id="a_Node000003"><a xlink:href="../../db/d06/class_param3.html" target="_top" xlink:title=" ">
<polygon fill="white" stroke="#666666" points="163.88,-150 114.12,-150 114.12,-130 163.88,-130 163.88,-150"/>
<text text-anchor="middle" x="139" y="-136.5" font-family="Helvetica,sans-Serif" font-size="10.00">Param3</text>
</a>
</g>
</g>
<!-- Node3&#45;&gt;Node1 -->
<g id="edge3_Node000001_Node000003" class="edge">
<title>Node3&#45;&gt;Node1</title>
<g id="a_edge3_Node000001_Node000003"><a xlink:title=" ">
<path fill="none" stroke="#9a32cd" stroke-dasharray="5,2" d="M134.09,-118.67C130.06,-97.24 126.97,-63.18 140.5,-38 144.51,-30.54 151.6,-24.73 158.67,-20.45"/>
<polygon fill="#9a32cd" stroke="#9a32cd" points="130.62,-119.14 136.14,-128.18 137.46,-117.67 130.62,-119.14"/>
</a>
</g>
<text text-anchor="middle" x="169.25" y="-88.5" font-family="Helvetica,sans-Serif" font-size="10.00" fill="grey"> Content</text>
<text text-anchor="middle" x="169.25" y="-76.5" font-family="Helvetica,sans-Serif" font-size="10.00" fill="grey">MaterialFlags</text>
<text text-anchor="middle" x="169.25" y="-64.5" font-family="Helvetica,sans-Serif" font-size="10.00" fill="grey">SurfaceID</text>
<text text-anchor="middle" x="169.25" y="-52.5" font-family="Helvetica,sans-Serif" font-size="10.00" fill="grey">Surfparm</text>
<text text-anchor="middle" x="169.25" y="-40.5" font-family="Helvetica,sans-Serif" font-size="10.00" fill="grey">Triangle</text>
</g>
<!-- Node4 -->
<g id="Node000004" class="node">
<title>Node4</title>
<g id="a_Node000004"><a xlink:href="../../d5/d02/classstring.html" target="_top" xlink:title=" ">
<polygon fill="white" stroke="#666666" points="241,-150 201,-150 201,-130 241,-130 241,-150"/>
<text text-anchor="middle" x="221" y="-136.5" font-family="Helvetica,sans-Serif" font-size="10.00">string</text>
</a>
</g>
</g>
<!-- Node4&#45;&gt;Node1 -->
<g id="edge4_Node000001_Node000004" class="edge">
<title>Node4&#45;&gt;Node1</title>
<g id="a_edge4_Node000001_Node000004"><a xlink:title=" ">
<path fill="none" stroke="#9a32cd" stroke-dasharray="5,2" d="M218.94,-118.39C216.3,-97.44 210.59,-64.4 199,-38 196.23,-31.7 191.89,-25.38 188.05,-20.43"/>
<polygon fill="#9a32cd" stroke="#9a32cd" points="215.45,-118.66 220.05,-128.2 222.41,-117.87 215.45,-118.66"/>
</a>
</g>
<text text-anchor="middle" x="261.5" y="-70.5" font-family="Helvetica,sans-Serif" font-size="10.00" fill="grey"> MaterialName</text>
<text text-anchor="middle" x="261.5" y="-58.5" font-family="Helvetica,sans-Serif" font-size="10.00" fill="grey">OriginalMaterialName</text>
</g>
<!-- Node4&#45;&gt;Node4 -->
<g id="edge5_Node000004_Node000004" class="edge">
<title>Node4&#45;&gt;Node4</title>
<g id="a_edge5_Node000004_Node000004"><a xlink:title=" ">
<path fill="none" stroke="#9a32cd" stroke-dasharray="5,2" d="M243.7,-153.47C252.1,-153.88 259,-149.39 259,-140 259,-126.64 245.05,-123.2 232.67,-129.67"/>
<polygon fill="#9a32cd" stroke="#9a32cd" points="244.7,-150.12 234.13,-150.75 242.79,-156.85 244.7,-150.12"/>
</a>
</g>
<text text-anchor="middle" x="274.75" y="-136.5" font-family="Helvetica,sans-Serif" font-size="10.00" fill="grey"> Empty</text>
</g>
<!-- Node5 -->
<g id="Node000005" class="node">
<title>Node5</title>
<g id="a_Node000005"><a xlink:href="../../d7/d0c/classvector.html" target="_top" xlink:title=" ">
<polygon fill="white" stroke="#666666" points="357.75,-150 316.25,-150 316.25,-130 357.75,-130 357.75,-150"/>
<text text-anchor="middle" x="337" y="-136.5" font-family="Helvetica,sans-Serif" font-size="10.00">vector</text>
</a>
</g>
</g>
<!-- Node5&#45;&gt;Node1 -->
<g id="edge6_Node000001_Node000005" class="edge">
<title>Node5&#45;&gt;Node1</title>
<g id="a_edge6_Node000001_Node000005"><a xlink:title=" ">
<path fill="none" stroke="#9a32cd" stroke-dasharray="5,2" d="M337.92,-118.15C337.74,-95.19 333.67,-58.8 312,-38 298.67,-25.2 251.51,-17.92 217.36,-14.21"/>
<polygon fill="#9a32cd" stroke="#9a32cd" points="334.43,-118.03 337.73,-128.1 341.43,-118.17 334.43,-118.03"/>
</a>
</g>
<text text-anchor="middle" x="348.75" y="-64.5" font-family="Helvetica,sans-Serif" font-size="10.00" fill="grey"> Point</text>
</g>
<!-- Node5&#45;&gt;Node5 -->
<g id="edge7_Node000005_Node000005" class="edge">
<title>Node5&#45;&gt;Node5</title>
<g id="a_edge7_Node000005_Node000005"><a xlink:title=" ">
<path fill="none" stroke="#9a32cd" stroke-dasharray="5,2" d="M359.87,-153.46C368.56,-153.98 375.75,-149.5 375.75,-140 375.75,-126.64 361.52,-123.2 348.9,-129.67"/>
<polygon fill="#9a32cd" stroke="#9a32cd" points="360.93,-150.12 350.36,-150.75 359.01,-156.86 360.93,-150.12"/>
</a>
</g>
<text text-anchor="middle" x="393" y="-154.5" font-family="Helvetica,sans-Serif" font-size="10.00" fill="grey"> Aside</text>
<text text-anchor="middle" x="393" y="-142.5" font-family="Helvetica,sans-Serif" font-size="10.00" fill="grey">Forward</text>
<text text-anchor="middle" x="393" y="-130.5" font-family="Helvetica,sans-Serif" font-size="10.00" fill="grey">Up</text>
<text text-anchor="middle" x="393" y="-118.5" font-family="Helvetica,sans-Serif" font-size="10.00" fill="grey">Zero</text>
</g>
</g>
</svg>
