<?xml version="1.0" encoding="UTF-8" standalone="no"?>
<!DOCTYPE svg PUBLIC "-//W3C//DTD SVG 1.1//EN"
 "http://www.w3.org/Graphics/SVG/1.1/DTD/svg11.dtd">
<!-- Generated by graphviz version 11.0.0 (20240428.1522)
 -->
<!-- Title: ActionCheckPulse Pages: 1 -->
<svg width="382pt" height="233pt"
 viewBox="0.00 0.00 381.88 233.00" xmlns="http://www.w3.org/2000/svg" xmlns:xlink="http://www.w3.org/1999/xlink">

<svg id="main" version="1.1" xmlns="http://www.w3.org/2000/svg" xmlns:xlink="http://www.w3.org/1999/xlink" xml:space="preserve" onload="init(evt)">
<style type="text/css"><![CDATA[
.node, .edge {opacity: 0.7;}
.node.selected, .edge.selected {opacity: 1;}
.edge:hover path { stroke: red; }
.edge:hover polygon { stroke: red; fill: red; }
]]></style>
<script type="application/ecmascript" xlink:href="../../svg.min.js"/>
<svg id="graph" class="graph">
<g id="graph0" class="graph" transform="scale(1 1) rotate(0) translate(4 229)">
<title>ActionCheckPulse</title>
<!-- Node1 -->
<g id="Node000001" class="node">
<title>Node1</title>
<g id="a_Node000001"><a xlink:title=" ">
<polygon fill="#999999" stroke="#666666" points="96.25,-20 0,-20 0,0 96.25,0 96.25,-20"/>
<text text-anchor="middle" x="48.12" y="-6.5" font-family="Helvetica,sans-Serif" font-size="10.00">ActionCheckPulse</text>
</a>
</g>
</g>
<!-- Node2 -->
<g id="Node000002" class="node">
<title>Node2</title>
<g id="a_Node000002"><a xlink:href="../../d0/d0b/class_action_interact_base.html" target="_top" xlink:title=" ">
<polygon fill="white" stroke="#666666" points="263.38,-77 164.88,-77 164.88,-57 263.38,-57 263.38,-77"/>
<text text-anchor="middle" x="214.12" y="-63.5" font-family="Helvetica,sans-Serif" font-size="10.00">ActionInteractBase</text>
</a>
</g>
</g>
<!-- Node2&#45;&gt;Node1 -->
<g id="edge1_Node000001_Node000002" class="edge">
<title>Node2&#45;&gt;Node1</title>
<g id="a_edge1_Node000001_Node000002"><a xlink:title=" ">
<path fill="none" stroke="#8b1a1a" d="M175,-53.04C144.79,-43.03 103.7,-29.41 76.57,-20.42"/>
<polygon fill="#8b1a1a" stroke="#8b1a1a" points="173.56,-56.25 184.15,-56.07 175.76,-49.6 173.56,-56.25"/>
</a>
</g>
</g>
<!-- Node3 -->
<g id="Node000003" class="node">
<title>Node3</title>
<g id="a_Node000003"><a xlink:href="../../d7/d04/class_animated_action_base.html" target="_top" xlink:title=" ">
<polygon fill="white" stroke="#666666" points="373.88,-145 266.38,-145 266.38,-125 373.88,-125 373.88,-145"/>
<text text-anchor="middle" x="320.12" y="-131.5" font-family="Helvetica,sans-Serif" font-size="10.00">AnimatedActionBase</text>
</a>
</g>
</g>
<!-- Node3&#45;&gt;Node2 -->
<g id="edge2_Node000002_Node000003" class="edge">
<title>Node3&#45;&gt;Node2</title>
<g id="a_edge2_Node000002_Node000003"><a xlink:title=" ">
<path fill="none" stroke="#8b1a1a" d="M307.27,-115.63C301.48,-108.42 294.14,-100.56 286.12,-95 275.15,-87.39 261.77,-81.61 249.53,-77.38"/>
<polygon fill="#8b1a1a" stroke="#8b1a1a" points="304.42,-117.67 313.21,-123.57 310.02,-113.47 304.42,-117.67"/>
</a>
</g>
</g>
<!-- Node4 -->
<g id="Node000004" class="node">
<title>Node4</title>
<g id="a_Node000004"><a xlink:title=" ">
<polygon fill="white" stroke="#666666" points="353.25,-225 287,-225 287,-205 353.25,-205 353.25,-225"/>
<text text-anchor="middle" x="320.12" y="-211.5" font-family="Helvetica,sans-Serif" font-size="10.00">ActionBase</text>
</a>
</g>
</g>
<!-- Node4&#45;&gt;Node3 -->
<g id="edge3_Node000003_Node000004" class="edge">
<title>Node4&#45;&gt;Node3</title>
<g id="a_edge3_Node000003_Node000004"><a xlink:title=" ">
<path fill="none" stroke="#8b1a1a" d="M320.12,-193.59C320.12,-177.94 320.12,-157.08 320.12,-145.24"/>
<polygon fill="#8b1a1a" stroke="#8b1a1a" points="316.63,-193.23 320.13,-203.23 323.63,-193.23 316.63,-193.23"/>
</a>
</g>
</g>
<!-- Node5 -->
<g id="Node000005" class="node">
<title>Node5</title>
<g id="a_Node000005"><a xlink:href="../../db/d06/class_param3.html" target="_top" xlink:title=" ">
<polygon fill="white" stroke="#666666" points="99,-225 49.25,-225 49.25,-205 99,-205 99,-225"/>
<text text-anchor="middle" x="74.12" y="-211.5" font-family="Helvetica,sans-Serif" font-size="10.00">Param3</text>
</a>
</g>
</g>
<!-- Node5&#45;&gt;Node1 -->
<g id="edge7_Node000001_Node000005" class="edge">
<title>Node5&#45;&gt;Node1</title>
<g id="a_edge7_Node000001_Node000005"><a xlink:title=" ">
<path fill="none" stroke="#9a32cd" stroke-dasharray="5,2" d="M63.4,-194.55C52.54,-173.65 36.46,-139.09 30.12,-107 23.85,-75.23 36.96,-37.43 44.02,-20.28"/>
<polygon fill="#9a32cd" stroke="#9a32cd" points="60.29,-196.16 68.09,-203.32 66.47,-192.85 60.29,-196.16"/>
</a>
</g>
<text text-anchor="middle" x="109.62" y="-97.5" font-family="Helvetica,sans-Serif" font-size="10.00" fill="grey"> TARGET_IRREGULAR_PULSE_BIT</text>
</g>
<!-- Node5&#45;&gt;Node3 -->
<g id="edge4_Node000003_Node000005" class="edge">
<title>Node5&#45;&gt;Node3</title>
<g id="a_edge4_Node000003_Node000005"><a xlink:title=" ">
<path fill="none" stroke="#9a32cd" stroke-dasharray="5,2" d="M109.44,-200.45C138.2,-189.64 180,-174.46 217.12,-163 237.97,-156.56 261.48,-150.33 280.77,-145.47"/>
<polygon fill="#9a32cd" stroke="#9a32cd" points="108.24,-197.16 100.12,-203.97 110.72,-203.71 108.24,-197.16"/>
</a>
</g>
<text text-anchor="middle" x="266.62" y="-177.5" font-family="Helvetica,sans-Serif" font-size="10.00" fill="grey"> m_CommandUID</text>
<text text-anchor="middle" x="266.62" y="-165.5" font-family="Helvetica,sans-Serif" font-size="10.00" fill="grey">m_CommandUIDProne</text>
</g>
<!-- Node6 -->
<g id="Node000006" class="node">
<title>Node6</title>
<g id="a_Node000006"><a xlink:href="../../d5/d02/classstring.html" target="_top" xlink:title=" ">
<polygon fill="white" stroke="#666666" points="199.12,-145 159.12,-145 159.12,-125 199.12,-125 199.12,-145"/>
<text text-anchor="middle" x="179.12" y="-131.5" font-family="Helvetica,sans-Serif" font-size="10.00">string</text>
</a>
</g>
</g>
<!-- Node6&#45;&gt;Node2 -->
<g id="edge5_Node000002_Node000006" class="edge">
<title>Node6&#45;&gt;Node2</title>
<g id="a_edge5_Node000002_Node000006"><a xlink:title=" ">
<path fill="none" stroke="#9a32cd" stroke-dasharray="5,2" d="M189.52,-114.4C195.99,-102.2 204.03,-87.04 209.12,-77.44"/>
<polygon fill="#9a32cd" stroke="#9a32cd" points="186.44,-112.73 184.85,-123.21 192.63,-116.01 186.44,-112.73"/>
</a>
</g>
<text text-anchor="middle" x="240.75" y="-97.5" font-family="Helvetica,sans-Serif" font-size="10.00" fill="grey"> m_HUDCursorIcon</text>
</g>
<!-- Node6&#45;&gt;Node6 -->
<g id="edge6_Node000006_Node000006" class="edge">
<title>Node6&#45;&gt;Node6</title>
<g id="a_edge6_Node000006_Node000006"><a xlink:title=" ">
<path fill="none" stroke="#9a32cd" stroke-dasharray="5,2" d="M210.88,-140.47C214.66,-139.48 217.12,-137.65 217.12,-135 217.12,-130.15 208.89,-128.07 199.45,-128.75"/>
<polygon fill="#9a32cd" stroke="#9a32cd" points="210.7,-136.98 200.96,-141.15 211.18,-143.96 210.7,-136.98"/>
</a>
</g>
<text text-anchor="middle" x="232.88" y="-131.5" font-family="Helvetica,sans-Serif" font-size="10.00" fill="grey"> Empty</text>
</g>
</g>
</svg>
</svg>

<style type='text/css'>
<![CDATA[
[data-mouse-over-selected='false'] { opacity: 0.7; }
[data-mouse-over-selected='true']  { opacity: 1.0; }
]]>
</style>
<script type="application/ecmascript"><![CDATA[
document.addEventListener('DOMContentLoaded', (event) => {
  highlightEdges();
  highlightAdjacentNodes();
});
]]></script>
</svg>
