<?xml version="1.0" encoding="UTF-8" standalone="no"?>
<!DOCTYPE svg PUBLIC "-//W3C//DTD SVG 1.1//EN"
 "http://www.w3.org/Graphics/SVG/1.1/DTD/svg11.dtd">
<!-- Generated by graphviz version 11.0.0 (20240428.1522)
 -->
<!-- Title: DetachMagActionReciveData Pages: 1 -->
<svg width="210pt" height="96pt"
 viewBox="0.00 0.00 209.75 96.00" xmlns="http://www.w3.org/2000/svg" xmlns:xlink="http://www.w3.org/1999/xlink">
<g id="graph0" class="graph" transform="scale(1 1) rotate(0) translate(4 92)">
<title>DetachMagActionReciveData</title>
<!-- Node1 -->
<g id="Node000001" class="node">
<title>Node1</title>
<g id="a_Node000001"><a xlink:title=" ">
<polygon fill="#999999" stroke="#666666" points="172.25,-20 30.25,-20 30.25,0 172.25,0 172.25,-20"/>
<text text-anchor="middle" x="101.25" y="-6.5" font-family="Helvetica,sans-Serif" font-size="10.00">DetachMagActionReciveData</text>
</a>
</g>
</g>
<!-- Node2 -->
<g id="Node000002" class="node">
<title>Node2</title>
<g id="a_Node000002"><a xlink:title=" ">
<polygon fill="white" stroke="#666666" points="92.5,-88 0,-88 0,-68 92.5,-68 92.5,-88"/>
<text text-anchor="middle" x="46.25" y="-74.5" font-family="Helvetica,sans-Serif" font-size="10.00">ActionReciveData</text>
</a>
</g>
</g>
<!-- Node2&#45;&gt;Node1 -->
<g id="edge1_Node000001_Node000002" class="edge">
<title>Node2&#45;&gt;Node1</title>
<g id="a_edge1_Node000001_Node000002"><a xlink:title=" ">
<path fill="none" stroke="#8b1a1a" d="M61.35,-58.88C71.71,-46.44 85.06,-30.43 93.38,-20.44"/>
<polygon fill="#8b1a1a" stroke="#8b1a1a" points="58.81,-56.46 55.1,-66.38 64.19,-60.94 58.81,-56.46"/>
</a>
</g>
</g>
<!-- Node3 -->
<g id="Node000003" class="node">
<title>Node3</title>
<g id="a_Node000003"><a xlink:href="../../d6/d05/class_inventory_location.html" target="_top" xlink:title="InventoryLocation.">
<polygon fill="white" stroke="#666666" points="201.75,-88 110.75,-88 110.75,-68 201.75,-68 201.75,-88"/>
<text text-anchor="middle" x="156.25" y="-74.5" font-family="Helvetica,sans-Serif" font-size="10.00">InventoryLocation</text>
</a>
</g>
</g>
<!-- Node3&#45;&gt;Node1 -->
<g id="edge2_Node000001_Node000003" class="edge">
<title>Node3&#45;&gt;Node1</title>
<g id="a_edge2_Node000001_Node000003"><a xlink:title=" ">
<path fill="none" stroke="#9a32cd" stroke-dasharray="5,2" d="M141.15,-58.88C130.79,-46.44 117.44,-30.43 109.12,-20.44"/>
<polygon fill="#9a32cd" stroke="#9a32cd" points="138.31,-60.94 147.4,-66.38 143.69,-56.46 138.31,-60.94"/>
</a>
</g>
<text text-anchor="middle" x="164.75" y="-40.5" font-family="Helvetica,sans-Serif" font-size="10.00" fill="grey"> m_ilMagazine</text>
</g>
</g>
</svg>
