<?xml version="1.0" encoding="UTF-8" standalone="no"?>
<!DOCTYPE svg PUBLIC "-//W3C//DTD SVG 1.1//EN"
 "http://www.w3.org/Graphics/SVG/1.1/DTD/svg11.dtd">
<!-- Generated by graphviz version 11.0.0 (20240428.1522)
 -->
<!-- Title: ActionCraftImprovisedLegsCover Pages: 1 -->
<svg width="202pt" height="232pt"
 viewBox="0.00 0.00 202.12 232.00" xmlns="http://www.w3.org/2000/svg" xmlns:xlink="http://www.w3.org/1999/xlink">
<g id="graph0" class="graph" transform="scale(1 1) rotate(0) translate(4 228)">
<title>ActionCraftImprovisedLegsCover</title>
<!-- Node1 -->
<g id="Node000001" class="node">
<title>Node1</title>
<g id="a_Node000001"><a xlink:title=" ">
<polygon fill="#999999" stroke="#666666" points="136.5,-32 5.75,-32 5.75,0 136.5,0 136.5,-32"/>
<text text-anchor="start" x="13.75" y="-18.5" font-family="Helvetica,sans-Serif" font-size="10.00">ActionCraftImprovisedLegs</text>
<text text-anchor="middle" x="71.12" y="-6.5" font-family="Helvetica,sans-Serif" font-size="10.00">Cover</text>
</a>
</g>
</g>
<!-- Node2 -->
<g id="Node000002" class="node">
<title>Node2</title>
<g id="a_Node000002"><a xlink:href="../../d6/d0f/class_action_continuous_base.html" target="_top" xlink:title=" ">
<polygon fill="white" stroke="#666666" points="128.62,-88 13.62,-88 13.62,-68 128.62,-68 128.62,-88"/>
<text text-anchor="middle" x="71.12" y="-74.5" font-family="Helvetica,sans-Serif" font-size="10.00">ActionContinuousBase</text>
</a>
</g>
</g>
<!-- Node2&#45;&gt;Node1 -->
<g id="edge1_Node000001_Node000002" class="edge">
<title>Node2&#45;&gt;Node1</title>
<g id="a_edge1_Node000001_Node000002"><a xlink:title=" ">
<path fill="none" stroke="#8b1a1a" d="M71.12,-56.31C71.12,-48.37 71.12,-39.46 71.12,-32.14"/>
<polygon fill="#8b1a1a" stroke="#8b1a1a" points="67.63,-56.11 71.13,-66.11 74.63,-56.11 67.63,-56.11"/>
</a>
</g>
</g>
<!-- Node3 -->
<g id="Node000003" class="node">
<title>Node3</title>
<g id="a_Node000003"><a xlink:href="../../d7/d04/class_animated_action_base.html" target="_top" xlink:title=" ">
<polygon fill="white" stroke="#666666" points="124.88,-144 17.38,-144 17.38,-124 124.88,-124 124.88,-144"/>
<text text-anchor="middle" x="71.12" y="-130.5" font-family="Helvetica,sans-Serif" font-size="10.00">AnimatedActionBase</text>
</a>
</g>
</g>
<!-- Node3&#45;&gt;Node2 -->
<g id="edge2_Node000002_Node000003" class="edge">
<title>Node3&#45;&gt;Node2</title>
<g id="a_edge2_Node000002_Node000003"><a xlink:title=" ">
<path fill="none" stroke="#8b1a1a" d="M71.12,-112.13C71.12,-103.9 71.12,-94.85 71.12,-88.3"/>
<polygon fill="#8b1a1a" stroke="#8b1a1a" points="67.63,-112.08 71.13,-122.08 74.63,-112.08 67.63,-112.08"/>
</a>
</g>
</g>
<!-- Node4 -->
<g id="Node000004" class="node">
<title>Node4</title>
<g id="a_Node000004"><a xlink:title=" ">
<polygon fill="white" stroke="#666666" points="66.25,-224 0,-224 0,-204 66.25,-204 66.25,-224"/>
<text text-anchor="middle" x="33.12" y="-210.5" font-family="Helvetica,sans-Serif" font-size="10.00">ActionBase</text>
</a>
</g>
</g>
<!-- Node4&#45;&gt;Node3 -->
<g id="edge3_Node000003_Node000004" class="edge">
<title>Node4&#45;&gt;Node3</title>
<g id="a_edge3_Node000003_Node000004"><a xlink:title=" ">
<path fill="none" stroke="#8b1a1a" d="M42.62,-193.51C50.29,-177.77 60.74,-156.32 66.62,-144.24"/>
<polygon fill="#8b1a1a" stroke="#8b1a1a" points="39.53,-191.86 38.3,-202.39 45.82,-194.93 39.53,-191.86"/>
</a>
</g>
</g>
<!-- Node5 -->
<g id="Node000005" class="node">
<title>Node5</title>
<g id="a_Node000005"><a xlink:href="../../db/d06/class_param3.html" target="_top" xlink:title=" ">
<polygon fill="white" stroke="#666666" points="134,-224 84.25,-224 84.25,-204 134,-204 134,-224"/>
<text text-anchor="middle" x="109.12" y="-210.5" font-family="Helvetica,sans-Serif" font-size="10.00">Param3</text>
</a>
</g>
</g>
<!-- Node5&#45;&gt;Node3 -->
<g id="edge4_Node000003_Node000005" class="edge">
<title>Node5&#45;&gt;Node3</title>
<g id="a_edge4_Node000003_Node000005"><a xlink:title=" ">
<path fill="none" stroke="#9a32cd" stroke-dasharray="5,2" d="M99.63,-193.51C91.96,-177.77 81.51,-156.32 75.63,-144.24"/>
<polygon fill="#9a32cd" stroke="#9a32cd" points="96.43,-194.93 103.95,-202.39 102.72,-191.86 96.43,-194.93"/>
</a>
</g>
<text text-anchor="middle" x="144.62" y="-176.5" font-family="Helvetica,sans-Serif" font-size="10.00" fill="grey"> m_CommandUID</text>
<text text-anchor="middle" x="144.62" y="-164.5" font-family="Helvetica,sans-Serif" font-size="10.00" fill="grey">m_CommandUIDProne</text>
</g>
</g>
</svg>
