<?xml version="1.0" encoding="UTF-8" standalone="no"?>
<!DOCTYPE svg PUBLIC "-//W3C//DTD SVG 1.1//EN"
 "http://www.w3.org/Graphics/SVG/1.1/DTD/svg11.dtd">
<!-- Generated by graphviz version 11.0.0 (20240428.1522)
 -->
<!-- Title: ResavePlugin Pages: 1 -->
<svg width="275pt" height="96pt"
 viewBox="0.00 0.00 275.12 96.00" xmlns="http://www.w3.org/2000/svg" xmlns:xlink="http://www.w3.org/1999/xlink">

<svg id="main" version="1.1" xmlns="http://www.w3.org/2000/svg" xmlns:xlink="http://www.w3.org/1999/xlink" xml:space="preserve" onload="init(evt)">
<style type="text/css"><![CDATA[
.node, .edge {opacity: 0.7;}
.node.selected, .edge.selected {opacity: 1;}
.edge:hover path { stroke: red; }
.edge:hover polygon { stroke: red; fill: red; }
]]></style>
<script type="application/ecmascript" xlink:href="../../svg.min.js"/>
<svg id="graph" class="graph">
<g id="graph0" class="graph" transform="scale(1 1) rotate(0) translate(4 92)">
<title>ResavePlugin</title>
<!-- Node1 -->
<g id="Node000001" class="node">
<title>Node1</title>
<g id="a_Node000001"><a xlink:title=" ">
<polygon fill="#999999" stroke="#666666" points="167.5,-20 93,-20 93,0 167.5,0 167.5,-20"/>
<text text-anchor="middle" x="130.25" y="-6.5" font-family="Helvetica,sans-Serif" font-size="10.00">ResavePlugin</text>
</a>
</g>
</g>
<!-- Node2 -->
<g id="Node000002" class="node">
<title>Node2</title>
<g id="a_Node000002"><a xlink:href="../../d3/d01/class_workbench_plugin.html" target="_top" xlink:title=" ">
<polygon fill="white" stroke="#666666" points="92.5,-88 0,-88 0,-68 92.5,-68 92.5,-88"/>
<text text-anchor="middle" x="46.25" y="-74.5" font-family="Helvetica,sans-Serif" font-size="10.00">WorkbenchPlugin</text>
</a>
</g>
</g>
<!-- Node2&#45;&gt;Node1 -->
<g id="edge1_Node000001_Node000002" class="edge">
<title>Node2&#45;&gt;Node1</title>
<g id="a_edge1_Node000001_Node000002"><a xlink:title=" ">
<path fill="none" stroke="#8b1a1a" d="M67.01,-60.69C83.12,-48.03 104.9,-30.92 118.24,-20.44"/>
<polygon fill="#8b1a1a" stroke="#8b1a1a" points="65.18,-57.68 59.48,-66.61 69.5,-63.18 65.18,-57.68"/>
</a>
</g>
</g>
<!-- Node3 -->
<g id="Node000003" class="node">
<title>Node3</title>
<g id="a_Node000003"><a xlink:href="../../d5/d02/classstring.html" target="_top" xlink:title=" ">
<polygon fill="white" stroke="#666666" points="150.25,-88 110.25,-88 110.25,-68 150.25,-68 150.25,-88"/>
<text text-anchor="middle" x="130.25" y="-74.5" font-family="Helvetica,sans-Serif" font-size="10.00">string</text>
</a>
</g>
</g>
<!-- Node3&#45;&gt;Node1 -->
<g id="edge2_Node000001_Node000003" class="edge">
<title>Node3&#45;&gt;Node1</title>
<g id="a_edge2_Node000001_Node000003"><a xlink:title=" ">
<path fill="none" stroke="#9a32cd" stroke-dasharray="5,2" d="M130.25,-56.28C130.25,-44.27 130.25,-29.74 130.25,-20.44"/>
<polygon fill="#9a32cd" stroke="#9a32cd" points="126.75,-56.03 130.25,-66.03 133.75,-56.03 126.75,-56.03"/>
</a>
</g>
<text text-anchor="middle" x="153.5" y="-40.5" font-family="Helvetica,sans-Serif" font-size="10.00" fill="grey"> Extension</text>
</g>
<!-- Node3&#45;&gt;Node3 -->
<g id="edge3_Node000003_Node000003" class="edge">
<title>Node3&#45;&gt;Node3</title>
<g id="a_edge3_Node000003_Node000003"><a xlink:title=" ">
<path fill="none" stroke="#9a32cd" stroke-dasharray="5,2" d="M162.01,-83.47C165.79,-82.48 168.25,-80.65 168.25,-78 168.25,-73.15 160.01,-71.07 150.58,-71.75"/>
<polygon fill="#9a32cd" stroke="#9a32cd" points="161.83,-79.98 152.09,-84.15 162.3,-86.96 161.83,-79.98"/>
</a>
</g>
<text text-anchor="middle" x="184" y="-74.5" font-family="Helvetica,sans-Serif" font-size="10.00" fill="grey"> Empty</text>
</g>
<!-- Node4 -->
<g id="Node000004" class="node">
<title>Node4</title>
<g id="a_Node000004"><a xlink:href="../../db/d06/class_param3.html" target="_top" xlink:title=" ">
<polygon fill="white" stroke="#666666" points="267.12,-88 217.38,-88 217.38,-68 267.12,-68 267.12,-88"/>
<text text-anchor="middle" x="242.25" y="-74.5" font-family="Helvetica,sans-Serif" font-size="10.00">Param3</text>
</a>
</g>
</g>
<!-- Node4&#45;&gt;Node1 -->
<g id="edge4_Node000001_Node000004" class="edge">
<title>Node4&#45;&gt;Node1</title>
<g id="a_edge4_Node000001_Node000004"><a xlink:title=" ">
<path fill="none" stroke="#9a32cd" stroke-dasharray="5,2" d="M218.88,-61.43C207.64,-54.1 193.89,-45.37 181.25,-38 170.69,-31.84 158.61,-25.42 148.86,-20.39"/>
<polygon fill="#9a32cd" stroke="#9a32cd" points="216.86,-64.28 227.14,-66.85 220.7,-58.43 216.86,-64.28"/>
</a>
</g>
<text text-anchor="middle" x="223.25" y="-40.5" font-family="Helvetica,sans-Serif" font-size="10.00" fill="grey"> m_module</text>
</g>
</g>
</svg>
</svg>

<style type='text/css'>
<![CDATA[
[data-mouse-over-selected='false'] { opacity: 0.7; }
[data-mouse-over-selected='true']  { opacity: 1.0; }
]]>
</style>
<script type="application/ecmascript"><![CDATA[
document.addEventListener('DOMContentLoaded', (event) => {
  highlightEdges();
  highlightAdjacentNodes();
});
]]></script>
</svg>
