<?xml version="1.0" encoding="UTF-8" standalone="no"?>
<!DOCTYPE svg PUBLIC "-//W3C//DTD SVG 1.1//EN"
 "http://www.w3.org/Graphics/SVG/1.1/DTD/svg11.dtd">
<!-- Generated by graphviz version 11.0.0 (20240428.1522)
 -->
<!-- Title: TraceSphere Pages: 1 -->
<svg width="79pt" height="140pt"
 viewBox="0.00 0.00 78.75 140.00" xmlns="http://www.w3.org/2000/svg" xmlns:xlink="http://www.w3.org/1999/xlink">
<g id="graph0" class="graph" transform="scale(1 1) rotate(0) translate(4 136)">
<title>TraceSphere</title>
<!-- Node1 -->
<g id="Node000001" class="node">
<title>Node1</title>
<g id="a_Node000001"><a xlink:title=" ">
<polygon fill="#999999" stroke="#666666" points="70.75,-20 0,-20 0,0 70.75,0 70.75,-20"/>
<text text-anchor="middle" x="35.38" y="-6.5" font-family="Helvetica,sans-Serif" font-size="10.00">TraceSphere</text>
</a>
</g>
</g>
<!-- Node2 -->
<g id="Node000002" class="node">
<title>Node2</title>
<g id="a_Node000002"><a xlink:href="../../d7/d0f/class_trace_param.html" target="_top" xlink:title=" ">
<polygon fill="white" stroke="#666666" points="69.62,-76 1.12,-76 1.12,-56 69.62,-56 69.62,-76"/>
<text text-anchor="middle" x="35.38" y="-62.5" font-family="Helvetica,sans-Serif" font-size="10.00">TraceParam</text>
</a>
</g>
</g>
<!-- Node2&#45;&gt;Node1 -->
<g id="edge1_Node000001_Node000002" class="edge">
<title>Node2&#45;&gt;Node1</title>
<g id="a_edge1_Node000001_Node000002"><a xlink:title=" ">
<path fill="none" stroke="#8b1a1a" d="M35.38,-44.13C35.38,-35.9 35.38,-26.85 35.38,-20.3"/>
<polygon fill="#8b1a1a" stroke="#8b1a1a" points="31.88,-44.08 35.38,-54.08 38.88,-44.08 31.88,-44.08"/>
</a>
</g>
</g>
<!-- Node3 -->
<g id="Node000003" class="node">
<title>Node3</title>
<g id="a_Node000003"><a xlink:href="../../dd/d07/class_managed.html" target="_top" xlink:title="TODO doc.">
<polygon fill="white" stroke="#666666" points="63.25,-132 7.5,-132 7.5,-112 63.25,-112 63.25,-132"/>
<text text-anchor="middle" x="35.38" y="-118.5" font-family="Helvetica,sans-Serif" font-size="10.00">Managed</text>
</a>
</g>
</g>
<!-- Node3&#45;&gt;Node2 -->
<g id="edge2_Node000002_Node000003" class="edge">
<title>Node3&#45;&gt;Node2</title>
<g id="a_edge2_Node000002_Node000003"><a xlink:title=" ">
<path fill="none" stroke="#8b1a1a" d="M35.38,-100.13C35.38,-91.9 35.38,-82.85 35.38,-76.3"/>
<polygon fill="#8b1a1a" stroke="#8b1a1a" points="31.88,-100.08 35.38,-110.08 38.88,-100.08 31.88,-100.08"/>
</a>
</g>
</g>
</g>
</svg>
