<?xml version="1.0" encoding="UTF-8" standalone="no"?>
<!DOCTYPE svg PUBLIC "-//W3C//DTD SVG 1.1//EN"
 "http://www.w3.org/Graphics/SVG/1.1/DTD/svg11.dtd">
<!-- Generated by graphviz version 11.0.0 (20240428.1522)
 -->
<!-- Title: NutritionalProfile Pages: 1 -->
<svg width="321pt" height="172pt"
 viewBox="0.00 0.00 320.75 172.00" xmlns="http://www.w3.org/2000/svg" xmlns:xlink="http://www.w3.org/1999/xlink">
<g id="graph0" class="graph" transform="scale(1 1) rotate(0) translate(4 168)">
<title>NutritionalProfile</title>
<!-- Node1 -->
<g id="Node000001" class="node">
<title>Node1</title>
<g id="a_Node000001"><a xlink:title=" ">
<polygon fill="#999999" stroke="#666666" points="182.25,-20 95.75,-20 95.75,0 182.25,0 182.25,-20"/>
<text text-anchor="middle" x="139" y="-6.5" font-family="Helvetica,sans-Serif" font-size="10.00">NutritionalProfile</text>
</a>
</g>
</g>
<!-- Node2 -->
<g id="Node000002" class="node">
<title>Node2</title>
<g id="a_Node000002"><a xlink:href="../../d4/d03/classfloat.html" target="_top" xlink:title=" ">
<polygon fill="white" stroke="#666666" points="34,-156 0,-156 0,-136 34,-136 34,-156"/>
<text text-anchor="middle" x="17" y="-142.5" font-family="Helvetica,sans-Serif" font-size="10.00">float</text>
</a>
</g>
</g>
<!-- Node2&#45;&gt;Node1 -->
<g id="edge1_Node000001_Node000002" class="edge">
<title>Node2&#45;&gt;Node1</title>
<g id="a_edge1_Node000001_Node000002"><a xlink:title=" ">
<path fill="none" stroke="#9a32cd" stroke-dasharray="5,2" d="M18.86,-124.23C22.1,-100.25 30.92,-61.15 54.75,-38 65.77,-27.3 81.03,-20.84 95.55,-16.94"/>
<polygon fill="#9a32cd" stroke="#9a32cd" points="15.4,-123.68 17.77,-134.01 22.36,-124.46 15.4,-123.68"/>
</a>
</g>
<text text-anchor="middle" x="94.12" y="-100.5" font-family="Helvetica,sans-Serif" font-size="10.00" fill="grey"> m_Digestibility</text>
<text text-anchor="middle" x="94.12" y="-88.5" font-family="Helvetica,sans-Serif" font-size="10.00" fill="grey">m_Energy</text>
<text text-anchor="middle" x="94.12" y="-76.5" font-family="Helvetica,sans-Serif" font-size="10.00" fill="grey">m_FullnessIndex</text>
<text text-anchor="middle" x="94.12" y="-64.5" font-family="Helvetica,sans-Serif" font-size="10.00" fill="grey">m_NutritionalIndex</text>
<text text-anchor="middle" x="94.12" y="-52.5" font-family="Helvetica,sans-Serif" font-size="10.00" fill="grey">m_Toxicity</text>
<text text-anchor="middle" x="94.12" y="-40.5" font-family="Helvetica,sans-Serif" font-size="10.00" fill="grey">m_WaterContent</text>
</g>
<!-- Node2&#45;&gt;Node2 -->
<g id="edge2_Node000002_Node000002" class="edge">
<title>Node2&#45;&gt;Node2</title>
<g id="a_edge2_Node000002_Node000002"><a xlink:title=" ">
<path fill="none" stroke="#9a32cd" stroke-dasharray="5,2" d="M38.68,-159.5C46.06,-159.58 52,-155.08 52,-146 52,-132.64 39.15,-129.2 27.75,-135.67"/>
<polygon fill="#9a32cd" stroke="#9a32cd" points="39.78,-156.17 29.2,-156.75 37.83,-162.9 39.78,-156.17"/>
</a>
</g>
<text text-anchor="middle" x="74.12" y="-154.5" font-family="Helvetica,sans-Serif" font-size="10.00" fill="grey"> LOWEST</text>
<text text-anchor="middle" x="74.12" y="-142.5" font-family="Helvetica,sans-Serif" font-size="10.00" fill="grey">MAX</text>
<text text-anchor="middle" x="74.12" y="-130.5" font-family="Helvetica,sans-Serif" font-size="10.00" fill="grey">MIN</text>
</g>
<!-- Node3 -->
<g id="Node000003" class="node">
<title>Node3</title>
<g id="a_Node000003"><a xlink:href="../../db/d06/class_param3.html" target="_top" xlink:title=" ">
<polygon fill="white" stroke="#666666" points="163.88,-156 114.12,-156 114.12,-136 163.88,-136 163.88,-156"/>
<text text-anchor="middle" x="139" y="-142.5" font-family="Helvetica,sans-Serif" font-size="10.00">Param3</text>
</a>
</g>
</g>
<!-- Node3&#45;&gt;Node1 -->
<g id="edge3_Node000001_Node000003" class="edge">
<title>Node3&#45;&gt;Node1</title>
<g id="a_edge3_Node000001_Node000003"><a xlink:title=" ">
<path fill="none" stroke="#9a32cd" stroke-dasharray="5,2" d="M139,-124.41C139,-94.87 139,-41.66 139,-20.27"/>
<polygon fill="#9a32cd" stroke="#9a32cd" points="135.5,-124.28 139,-134.28 142.5,-124.28 135.5,-124.28"/>
</a>
</g>
<text text-anchor="middle" x="169" y="-76.5" font-family="Helvetica,sans-Serif" font-size="10.00" fill="grey"> m_Agents</text>
<text text-anchor="middle" x="169" y="-64.5" font-family="Helvetica,sans-Serif" font-size="10.00" fill="grey">m_LiquidType</text>
</g>
<!-- Node4 -->
<g id="Node000004" class="node">
<title>Node4</title>
<g id="a_Node000004"><a xlink:href="../../d5/d02/classstring.html" target="_top" xlink:title=" ">
<polygon fill="white" stroke="#666666" points="242,-156 202,-156 202,-136 242,-136 242,-156"/>
<text text-anchor="middle" x="222" y="-142.5" font-family="Helvetica,sans-Serif" font-size="10.00">string</text>
</a>
</g>
</g>
<!-- Node4&#45;&gt;Node1 -->
<g id="edge4_Node000001_Node000004" class="edge">
<title>Node4&#45;&gt;Node1</title>
<g id="a_edge4_Node000001_Node000004"><a xlink:title=" ">
<path fill="none" stroke="#9a32cd" stroke-dasharray="5,2" d="M223.08,-124.16C223.18,-100.71 219.88,-62.67 200,-38 193.6,-30.07 184.4,-24.4 175.07,-20.37"/>
<polygon fill="#9a32cd" stroke="#9a32cd" points="219.58,-123.9 222.8,-134 226.58,-124.11 219.58,-123.9"/>
</a>
</g>
<text text-anchor="middle" x="267.38" y="-70.5" font-family="Helvetica,sans-Serif" font-size="10.00" fill="grey"> m_LiquidClassname</text>
</g>
<!-- Node4&#45;&gt;Node4 -->
<g id="edge5_Node000004_Node000004" class="edge">
<title>Node4&#45;&gt;Node4</title>
<g id="a_edge5_Node000004_Node000004"><a xlink:title=" ">
<path fill="none" stroke="#9a32cd" stroke-dasharray="5,2" d="M244.7,-159.47C253.1,-159.88 260,-155.39 260,-146 260,-132.64 246.05,-129.2 233.67,-135.67"/>
<polygon fill="#9a32cd" stroke="#9a32cd" points="245.7,-156.12 235.13,-156.75 243.79,-162.85 245.7,-156.12"/>
</a>
</g>
<text text-anchor="middle" x="275.75" y="-142.5" font-family="Helvetica,sans-Serif" font-size="10.00" fill="grey"> Empty</text>
</g>
</g>
</svg>
