<?xml version="1.0" encoding="UTF-8" standalone="no"?>
<!DOCTYPE svg PUBLIC "-//W3C//DTD SVG 1.1//EN"
 "http://www.w3.org/Graphics/SVG/1.1/DTD/svg11.dtd">
<!-- Generated by graphviz version 11.0.0 (20240428.1522)
 -->
<!-- Title: ScriptConsoleTabBase Pages: 1 -->
<svg width="403pt" height="224pt"
 viewBox="0.00 0.00 402.62 224.00" xmlns="http://www.w3.org/2000/svg" xmlns:xlink="http://www.w3.org/1999/xlink">
<g id="graph0" class="graph" transform="scale(1 1) rotate(0) translate(4 220)">
<title>ScriptConsoleTabBase</title>
<!-- Node1 -->
<g id="Node000001" class="node">
<title>Node1</title>
<g id="a_Node000001"><a xlink:title=" ">
<polygon fill="#999999" stroke="#666666" points="184.38,-20 69.38,-20 69.38,0 184.38,0 184.38,-20"/>
<text text-anchor="middle" x="126.88" y="-6.5" font-family="Helvetica,sans-Serif" font-size="10.00">ScriptConsoleTabBase</text>
</a>
</g>
</g>
<!-- Node1&#45;&gt;Node1 -->
<g id="edge4_Node000001_Node000001" class="edge">
<title>Node1&#45;&gt;Node1</title>
<g id="a_edge4_Node000001_Node000001"><a xlink:title=" ">
<path fill="none" stroke="#9a32cd" stroke-dasharray="5,2" d="M195.92,-15.9C199.96,-14.49 202.38,-12.52 202.38,-10 202.38,-5.64 195.15,-2.94 184.8,-1.88"/>
<polygon fill="#9a32cd" stroke="#9a32cd" points="195.41,-12.44 186.29,-17.82 196.78,-19.3 195.41,-12.44"/>
</a>
</g>
<text text-anchor="middle" x="224.88" y="-6.5" font-family="Helvetica,sans-Serif" font-size="10.00" fill="grey"> m_Parent</text>
</g>
<!-- Node2 -->
<g id="Node000002" class="node">
<title>Node2</title>
<g id="a_Node000002"><a xlink:href="../../db/d06/class_param3.html" target="_top" xlink:title=" ">
<polygon fill="white" stroke="#666666" points="49.75,-112 0,-112 0,-92 49.75,-92 49.75,-112"/>
<text text-anchor="middle" x="24.88" y="-98.5" font-family="Helvetica,sans-Serif" font-size="10.00">Param3</text>
</a>
</g>
</g>
<!-- Node2&#45;&gt;Node1 -->
<g id="edge1_Node000001_Node000002" class="edge">
<title>Node2&#45;&gt;Node1</title>
<g id="a_edge1_Node000001_Node000002"><a xlink:title=" ">
<path fill="none" stroke="#9a32cd" stroke-dasharray="5,2" d="M28.83,-80.3C32.43,-66.63 39.06,-49.24 50.88,-38 59.19,-30.09 69.98,-24.47 80.8,-20.5"/>
<polygon fill="#9a32cd" stroke="#9a32cd" points="25.42,-79.52 26.64,-90.04 32.25,-81.05 25.42,-79.52"/>
</a>
</g>
<text text-anchor="middle" x="62.88" y="-52.5" font-family="Helvetica,sans-Serif" font-size="10.00" fill="grey"> m_Id</text>
</g>
<!-- Node3 -->
<g id="Node000003" class="node">
<title>Node3</title>
<g id="a_Node000003"><a xlink:href="../../d9/d09/classbool.html" target="_top" xlink:title=" ">
<polygon fill="white" stroke="#666666" points="101.88,-112 67.88,-112 67.88,-92 101.88,-92 101.88,-112"/>
<text text-anchor="middle" x="84.88" y="-98.5" font-family="Helvetica,sans-Serif" font-size="10.00">bool</text>
</a>
</g>
</g>
<!-- Node3&#45;&gt;Node1 -->
<g id="edge2_Node000001_Node000003" class="edge">
<title>Node3&#45;&gt;Node1</title>
<g id="a_edge2_Node000001_Node000003"><a xlink:title=" ">
<path fill="none" stroke="#9a32cd" stroke-dasharray="5,2" d="M80.46,-80.73C78.7,-67.73 78.53,-50.94 85.62,-38 89.74,-30.5 96.93,-24.73 104.17,-20.5"/>
<polygon fill="#9a32cd" stroke="#9a32cd" points="76.96,-81.06 82.17,-90.28 83.85,-79.82 76.96,-81.06"/>
</a>
</g>
<text text-anchor="middle" x="116" y="-52.5" font-family="Helvetica,sans-Serif" font-size="10.00" fill="grey"> m_IsSelected</text>
</g>
<!-- Node4 -->
<g id="Node000004" class="node">
<title>Node4</title>
<g id="a_Node000004"><a xlink:href="../../dd/d0a/class_widget.html" target="_top" xlink:title=" ">
<polygon fill="white" stroke="#666666" points="193.25,-112 146.5,-112 146.5,-92 193.25,-92 193.25,-112"/>
<text text-anchor="middle" x="169.88" y="-98.5" font-family="Helvetica,sans-Serif" font-size="10.00">Widget</text>
</a>
</g>
</g>
<!-- Node4&#45;&gt;Node1 -->
<g id="edge3_Node000001_Node000004" class="edge">
<title>Node4&#45;&gt;Node1</title>
<g id="a_edge3_Node000001_Node000004"><a xlink:title=" ">
<path fill="none" stroke="#9a32cd" stroke-dasharray="5,2" d="M164.65,-80.82C160.92,-68.1 155.26,-51.57 147.88,-38 144.47,-31.74 139.64,-25.42 135.47,-20.46"/>
<polygon fill="#9a32cd" stroke="#9a32cd" points="161.2,-81.46 167.23,-90.18 167.95,-79.61 161.2,-81.46"/>
</a>
</g>
<text text-anchor="middle" x="193" y="-64.5" font-family="Helvetica,sans-Serif" font-size="10.00" fill="grey"> m_Button</text>
<text text-anchor="middle" x="193" y="-52.5" font-family="Helvetica,sans-Serif" font-size="10.00" fill="grey">m_ParentRoot</text>
<text text-anchor="middle" x="193" y="-40.5" font-family="Helvetica,sans-Serif" font-size="10.00" fill="grey">m_Root</text>
</g>
<!-- Node5 -->
<g id="Node000005" class="node">
<title>Node5</title>
<g id="a_Node000005"><a xlink:href="../../d2/d02/class_plugin_config_debug_profile.html" target="_top" xlink:title=" ">
<polygon fill="white" stroke="#666666" points="336.25,-112 211.5,-112 211.5,-92 336.25,-92 336.25,-112"/>
<text text-anchor="middle" x="273.88" y="-98.5" font-family="Helvetica,sans-Serif" font-size="10.00">PluginConfigDebugProfile</text>
</a>
</g>
</g>
<!-- Node5&#45;&gt;Node1 -->
<g id="edge5_Node000001_Node000005" class="edge">
<title>Node5&#45;&gt;Node1</title>
<g id="a_edge5_Node000001_Node000005"><a xlink:title=" ">
<path fill="none" stroke="#9a32cd" stroke-dasharray="5,2" d="M264.34,-81.59C256.44,-67.48 243.92,-48.99 227.88,-38 215.15,-29.28 199.74,-23.37 184.83,-19.38"/>
<polygon fill="#9a32cd" stroke="#9a32cd" points="261.22,-83.17 268.96,-90.4 267.42,-79.92 261.22,-83.17"/>
</a>
</g>
<text text-anchor="middle" x="308" y="-52.5" font-family="Helvetica,sans-Serif" font-size="10.00" fill="grey"> m_ConfigDebugProfile</text>
</g>
<!-- Node6 -->
<g id="Node000006" class="node">
<title>Node6</title>
<g id="a_Node000006"><a xlink:href="../../d5/d02/classstring.html" target="_top" xlink:title=" ">
<polygon fill="white" stroke="#666666" points="293.88,-216 253.88,-216 253.88,-196 293.88,-196 293.88,-216"/>
<text text-anchor="middle" x="273.88" y="-202.5" font-family="Helvetica,sans-Serif" font-size="10.00">string</text>
</a>
</g>
</g>
<!-- Node6&#45;&gt;Node5 -->
<g id="edge6_Node000005_Node000006" class="edge">
<title>Node6&#45;&gt;Node5</title>
<g id="a_edge6_Node000005_Node000006"><a xlink:title=" ">
<path fill="none" stroke="#9a32cd" stroke-dasharray="5,2" d="M273.88,-184.23C273.88,-162.27 273.88,-128.62 273.88,-112.39"/>
<polygon fill="#9a32cd" stroke="#9a32cd" points="270.38,-184.07 273.88,-194.07 277.38,-184.07 270.38,-184.07"/>
</a>
</g>
<text text-anchor="middle" x="334.25" y="-168.5" font-family="Helvetica,sans-Serif" font-size="10.00" fill="grey"> POSITIONS_LIST</text>
<text text-anchor="middle" x="334.25" y="-156.5" font-family="Helvetica,sans-Serif" font-size="10.00" fill="grey">POSITIONS_LIST_ENOCH</text>
<text text-anchor="middle" x="334.25" y="-144.5" font-family="Helvetica,sans-Serif" font-size="10.00" fill="grey">SUB_PARAM_POS_NAME</text>
<text text-anchor="middle" x="334.25" y="-132.5" font-family="Helvetica,sans-Serif" font-size="10.00" fill="grey">SUB_PARAM_POS_VEC</text>
</g>
<!-- Node6&#45;&gt;Node6 -->
<g id="edge7_Node000006_Node000006" class="edge">
<title>Node6&#45;&gt;Node6</title>
<g id="a_edge7_Node000006_Node000006"><a xlink:title=" ">
<path fill="none" stroke="#9a32cd" stroke-dasharray="5,2" d="M305.63,-214.37C309.41,-212.84 311.88,-210.05 311.88,-206 311.88,-198.59 303.64,-195.4 294.2,-196.44"/>
<polygon fill="#9a32cd" stroke="#9a32cd" points="305.29,-210.89 295.71,-215.4 306.02,-217.85 305.29,-210.89"/>
</a>
</g>
<text text-anchor="middle" x="327.62" y="-202.5" font-family="Helvetica,sans-Serif" font-size="10.00" fill="grey"> Empty</text>
</g>
</g>
</svg>
