<?xml version="1.0" encoding="UTF-8" standalone="no"?>
<!DOCTYPE svg PUBLIC "-//W3C//DTD SVG 1.1//EN"
 "http://www.w3.org/Graphics/SVG/1.1/DTD/svg11.dtd">
<!-- Generated by graphviz version 11.0.0 (20240428.1522)
 -->
<!-- Title: MessageReceiverBase Pages: 1 -->
<svg width="608pt" height="324pt"
 viewBox="0.00 0.00 607.75 324.00" xmlns="http://www.w3.org/2000/svg" xmlns:xlink="http://www.w3.org/1999/xlink">
<g id="graph0" class="graph" transform="scale(1 1) rotate(0) translate(4 320)">
<title>MessageReceiverBase</title>
<!-- Node1 -->
<g id="Node000001" class="node">
<title>Node1</title>
<g id="a_Node000001"><a xlink:title=" ">
<polygon fill="#999999" stroke="#666666" points="310.5,-20 195.5,-20 195.5,0 310.5,0 310.5,-20"/>
<text text-anchor="middle" x="253" y="-6.5" font-family="Helvetica,sans-Serif" font-size="10.00">MessageReceiverBase</text>
</a>
</g>
</g>
<!-- Node2 -->
<g id="Node000002" class="node">
<title>Node2</title>
<g id="a_Node000002"><a xlink:href="../../d5/d02/classstring.html" target="_top" xlink:title=" ">
<polygon fill="white" stroke="#666666" points="40,-192 0,-192 0,-172 40,-172 40,-192"/>
<text text-anchor="middle" x="20" y="-178.5" font-family="Helvetica,sans-Serif" font-size="10.00">string</text>
</a>
</g>
</g>
<!-- Node2&#45;&gt;Node1 -->
<g id="edge1_Node000001_Node000002" class="edge">
<title>Node2&#45;&gt;Node1</title>
<g id="a_edge1_Node000001_Node000002"><a xlink:title=" ">
<path fill="none" stroke="#9a32cd" stroke-dasharray="5,2" d="M20,-160.18C21.22,-128.54 28.53,-68.82 64.75,-38 83.99,-21.63 147.47,-15.18 195.44,-12.65"/>
<polygon fill="#9a32cd" stroke="#9a32cd" points="16.5,-159.92 19.81,-169.99 23.5,-160.06 16.5,-159.92"/>
</a>
</g>
<text text-anchor="middle" x="88.62" y="-94.5" font-family="Helvetica,sans-Serif" font-size="10.00" fill="grey"> m_Labels</text>
<text text-anchor="middle" x="88.62" y="-82.5" font-family="Helvetica,sans-Serif" font-size="10.00" fill="grey">m_System</text>
</g>
<!-- Node2&#45;&gt;Node2 -->
<g id="edge2_Node000002_Node000002" class="edge">
<title>Node2&#45;&gt;Node2</title>
<g id="a_edge2_Node000002_Node000002"><a xlink:title=" ">
<path fill="none" stroke="#9a32cd" stroke-dasharray="5,2" d="M45.29,-194.32C52.47,-193.82 58,-189.71 58,-182 58,-170.53 45.75,-167.03 34.03,-171.51"/>
<polygon fill="#9a32cd" stroke="#9a32cd" points="45.96,-190.88 35.52,-192.73 44.83,-197.79 45.96,-190.88"/>
</a>
</g>
<text text-anchor="middle" x="73.75" y="-178.5" font-family="Helvetica,sans-Serif" font-size="10.00" fill="grey"> Empty</text>
</g>
<!-- Node3 -->
<g id="Node000003" class="node">
<title>Node3</title>
<g id="a_Node000003"><a xlink:href="../../d4/d03/classfloat.html" target="_top" xlink:title=" ">
<polygon fill="white" stroke="#666666" points="142,-192 108,-192 108,-172 142,-172 142,-192"/>
<text text-anchor="middle" x="125" y="-178.5" font-family="Helvetica,sans-Serif" font-size="10.00">float</text>
</a>
</g>
</g>
<!-- Node3&#45;&gt;Node1 -->
<g id="edge3_Node000001_Node000003" class="edge">
<title>Node3&#45;&gt;Node1</title>
<g id="a_edge3_Node000001_Node000003"><a xlink:title=" ">
<path fill="none" stroke="#9a32cd" stroke-dasharray="5,2" d="M120.16,-160.61C114.22,-130.03 108.25,-72.23 138,-38 145.87,-28.94 170.57,-22.53 195.07,-18.23"/>
<polygon fill="#9a32cd" stroke="#9a32cd" points="116.68,-161.05 122.21,-170.09 123.52,-159.58 116.68,-161.05"/>
</a>
</g>
<text text-anchor="middle" x="193.5" y="-136.5" font-family="Helvetica,sans-Serif" font-size="10.00" fill="grey"> m_AntibioticsResistance</text>
<text text-anchor="middle" x="193.5" y="-124.5" font-family="Helvetica,sans-Serif" font-size="10.00" fill="grey">m_AutoinfectProbability</text>
<text text-anchor="middle" x="193.5" y="-112.5" font-family="Helvetica,sans-Serif" font-size="10.00" fill="grey">m_DieOffSpeed</text>
<text text-anchor="middle" x="193.5" y="-100.5" font-family="Helvetica,sans-Serif" font-size="10.00" fill="grey">m_Digestibility</text>
<text text-anchor="middle" x="193.5" y="-88.5" font-family="Helvetica,sans-Serif" font-size="10.00" fill="grey">m_Invasibility</text>
<text text-anchor="middle" x="193.5" y="-76.5" font-family="Helvetica,sans-Serif" font-size="10.00" fill="grey">m_TransferabilityAirOut</text>
<text text-anchor="middle" x="193.5" y="-64.5" font-family="Helvetica,sans-Serif" font-size="10.00" fill="grey">m_TransferabilityIn</text>
<text text-anchor="middle" x="193.5" y="-52.5" font-family="Helvetica,sans-Serif" font-size="10.00" fill="grey">m_TransferabilityOut</text>
<text text-anchor="middle" x="193.5" y="-40.5" font-family="Helvetica,sans-Serif" font-size="10.00" fill="grey">m_Type</text>
</g>
<!-- Node3&#45;&gt;Node3 -->
<g id="edge4_Node000003_Node000003" class="edge">
<title>Node3&#45;&gt;Node3</title>
<g id="a_edge4_Node000003_Node000003"><a xlink:title=" ">
<path fill="none" stroke="#9a32cd" stroke-dasharray="5,2" d="M149.2,-194.23C155.37,-193.43 160,-189.35 160,-182 160,-170.53 148.72,-167.03 137.92,-171.51"/>
<polygon fill="#9a32cd" stroke="#9a32cd" points="149.84,-190.78 139.42,-192.72 148.77,-197.7 149.84,-190.78"/>
</a>
</g>
<text text-anchor="middle" x="182.12" y="-190.5" font-family="Helvetica,sans-Serif" font-size="10.00" fill="grey"> LOWEST</text>
<text text-anchor="middle" x="182.12" y="-178.5" font-family="Helvetica,sans-Serif" font-size="10.00" fill="grey">MAX</text>
<text text-anchor="middle" x="182.12" y="-166.5" font-family="Helvetica,sans-Serif" font-size="10.00" fill="grey">MIN</text>
</g>
<!-- Node4 -->
<g id="Node000004" class="node">
<title>Node4</title>
<g id="a_Node000004"><a xlink:href="../../db/d06/class_param3.html" target="_top" xlink:title=" ">
<polygon fill="white" stroke="#666666" points="277.88,-192 228.12,-192 228.12,-172 277.88,-172 277.88,-192"/>
<text text-anchor="middle" x="253" y="-178.5" font-family="Helvetica,sans-Serif" font-size="10.00">Param3</text>
</a>
</g>
</g>
<!-- Node4&#45;&gt;Node1 -->
<g id="edge5_Node000001_Node000004" class="edge">
<title>Node4&#45;&gt;Node1</title>
<g id="a_edge5_Node000001_Node000004"><a xlink:title=" ">
<path fill="none" stroke="#9a32cd" stroke-dasharray="5,2" d="M253,-160.56C253,-123.52 253,-46.65 253,-20.19"/>
<polygon fill="#9a32cd" stroke="#9a32cd" points="249.5,-160.35 253,-170.35 256.5,-160.35 249.5,-160.35"/>
</a>
</g>
<text text-anchor="middle" x="287.88" y="-136.5" font-family="Helvetica,sans-Serif" font-size="10.00" fill="grey"> NUM_OF_BITS</text>
<text text-anchor="middle" x="287.88" y="-124.5" font-family="Helvetica,sans-Serif" font-size="10.00" fill="grey">m_Colors</text>
<text text-anchor="middle" x="287.88" y="-112.5" font-family="Helvetica,sans-Serif" font-size="10.00" fill="grey">m_Key</text>
<text text-anchor="middle" x="287.88" y="-100.5" font-family="Helvetica,sans-Serif" font-size="10.00" fill="grey">m_MaxCount</text>
<text text-anchor="middle" x="287.88" y="-88.5" font-family="Helvetica,sans-Serif" font-size="10.00" fill="grey">m_Pos</text>
<text text-anchor="middle" x="287.88" y="-76.5" font-family="Helvetica,sans-Serif" font-size="10.00" fill="grey">m_Range</text>
<text text-anchor="middle" x="287.88" y="-64.5" font-family="Helvetica,sans-Serif" font-size="10.00" fill="grey">m_Type</text>
<text text-anchor="middle" x="287.88" y="-52.5" font-family="Helvetica,sans-Serif" font-size="10.00" fill="grey">m_Value</text>
<text text-anchor="middle" x="287.88" y="-40.5" font-family="Helvetica,sans-Serif" font-size="10.00" fill="grey">m_ValueLast</text>
</g>
<!-- Node5 -->
<g id="Node000005" class="node">
<title>Node5</title>
<g id="a_Node000005"><a xlink:href="../../d9/d09/classbool.html" target="_top" xlink:title=" ">
<polygon fill="white" stroke="#666666" points="372,-316 338,-316 338,-296 372,-296 372,-316"/>
<text text-anchor="middle" x="355" y="-302.5" font-family="Helvetica,sans-Serif" font-size="10.00">bool</text>
</a>
</g>
</g>
<!-- Node5&#45;&gt;Node1 -->
<g id="edge6_Node000001_Node000005" class="edge">
<title>Node5&#45;&gt;Node1</title>
<g id="a_edge6_Node000001_Node000005"><a xlink:title=" ">
<path fill="none" stroke="#9a32cd" stroke-dasharray="5,2" d="M352.69,-284.48C345.66,-222.16 324.95,-39.22 324,-38 317.76,-29.99 308.85,-24.35 299.44,-20.39"/>
<polygon fill="#9a32cd" stroke="#9a32cd" points="349.17,-284.5 353.77,-294.04 356.12,-283.71 349.17,-284.5"/>
</a>
</g>
<text text-anchor="middle" x="376.5" y="-178.5" font-family="Helvetica,sans-Serif" font-size="10.00" fill="grey"> m_IsClientOnly</text>
</g>
<!-- Node6 -->
<g id="Node000006" class="node">
<title>Node6</title>
<g id="a_Node000006"><a xlink:href="../../d5/d08/class_player_base.html" target="_top" xlink:title=" ">
<polygon fill="white" stroke="#666666" points="491.12,-192 424.88,-192 424.88,-172 491.12,-172 491.12,-192"/>
<text text-anchor="middle" x="458" y="-178.5" font-family="Helvetica,sans-Serif" font-size="10.00">PlayerBase</text>
</a>
</g>
</g>
<!-- Node5&#45;&gt;Node6 -->
<g id="edge9_Node000006_Node000005" class="edge">
<title>Node5&#45;&gt;Node6</title>
<g id="a_edge9_Node000006_Node000005"><a xlink:title=" ">
<path fill="none" stroke="#9a32cd" stroke-dasharray="5,2" d="M352.68,-284.34C351.68,-265.11 353.28,-236.7 368.25,-218 370.38,-215.34 406.18,-201.88 431.92,-192.45"/>
<polygon fill="#9a32cd" stroke="#9a32cd" points="349.18,-284.52 353.51,-294.19 356.16,-283.93 349.18,-284.52"/>
</a>
</g>
<text text-anchor="start" x="368" y="-268.5" font-family="Helvetica,sans-Serif" font-size="10.00" fill="grey"> m_PersonalLightDisabledBy</text>
<text text-anchor="middle" x="434.38" y="-256.5" font-family="Helvetica,sans-Serif" font-size="10.00" fill="grey">Debug</text>
<text text-anchor="start" x="368" y="-244.5" font-family="Helvetica,sans-Serif" font-size="10.00" fill="grey">m_PersonalLightEnabledOn</text>
<text text-anchor="middle" x="434.38" y="-232.5" font-family="Helvetica,sans-Serif" font-size="10.00" fill="grey">CurrentServer</text>
<text text-anchor="middle" x="434.38" y="-220.5" font-family="Helvetica,sans-Serif" font-size="10.00" fill="grey">m_PersonalLightIsSwitchedOn</text>
</g>
<!-- Node6&#45;&gt;Node1 -->
<g id="edge7_Node000001_Node000006" class="edge">
<title>Node6&#45;&gt;Node1</title>
<g id="a_edge7_Node000001_Node000006"><a xlink:title=" ">
<path fill="none" stroke="#9a32cd" stroke-dasharray="5,2" d="M448.81,-161.26C433.33,-130.21 399.06,-70.16 352,-38 339.79,-29.66 325.09,-23.88 310.8,-19.89"/>
<polygon fill="#9a32cd" stroke="#9a32cd" points="445.66,-162.78 453.16,-170.27 451.96,-159.74 445.66,-162.78"/>
</a>
</g>
<text text-anchor="middle" x="461.12" y="-88.5" font-family="Helvetica,sans-Serif" font-size="10.00" fill="grey"> m_Player</text>
</g>
<!-- Node7 -->
<g id="Node000007" class="node">
<title>Node7</title>
<g id="a_Node000007"><a xlink:href="../../dd/d03/class_scripted_light_base.html" target="_top" xlink:title=" ">
<polygon fill="white" stroke="#666666" points="574.75,-316 479.25,-316 479.25,-296 574.75,-296 574.75,-316"/>
<text text-anchor="middle" x="527" y="-302.5" font-family="Helvetica,sans-Serif" font-size="10.00">ScriptedLightBase</text>
</a>
</g>
</g>
<!-- Node7&#45;&gt;Node6 -->
<g id="edge8_Node000006_Node000007" class="edge">
<title>Node7&#45;&gt;Node6</title>
<g id="a_edge8_Node000006_Node000007"><a xlink:title=" ">
<path fill="none" stroke="#9a32cd" stroke-dasharray="5,2" d="M525.67,-284.21C523.61,-265.51 518.36,-238 505,-218 497.76,-207.17 486.01,-198.42 476.07,-192.38"/>
<polygon fill="#9a32cd" stroke="#9a32cd" points="522.17,-284.37 526.52,-294.03 529.15,-283.77 522.17,-284.37"/>
</a>
</g>
<text text-anchor="middle" x="561.88" y="-244.5" font-family="Helvetica,sans-Serif" font-size="10.00" fill="grey"> m_PersonalLight</text>
</g>
</g>
</svg>
