<?xml version="1.0" encoding="UTF-8" standalone="no"?>
<!DOCTYPE svg PUBLIC "-//W3C//DTD SVG 1.1//EN"
 "http://www.w3.org/Graphics/SVG/1.1/DTD/svg11.dtd">
<!-- Generated by graphviz version 11.0.0 (20240428.1522)
 -->
<!-- Title: FliesMdfr Pages: 1 -->
<svg width="479pt" height="148pt"
 viewBox="0.00 0.00 479.38 148.00" xmlns="http://www.w3.org/2000/svg" xmlns:xlink="http://www.w3.org/1999/xlink">

<svg id="main" version="1.1" xmlns="http://www.w3.org/2000/svg" xmlns:xlink="http://www.w3.org/1999/xlink" xml:space="preserve" onload="init(evt)">
<style type="text/css"><![CDATA[
.node, .edge {opacity: 0.7;}
.node.selected, .edge.selected {opacity: 1;}
.edge:hover path { stroke: red; }
.edge:hover polygon { stroke: red; fill: red; }
]]></style>
<script type="application/ecmascript" xlink:href="../../svg.min.js"/>
<svg id="graph" class="graph">
<g id="graph0" class="graph" transform="scale(1 1) rotate(0) translate(4 144)">
<title>FliesMdfr</title>
<!-- Node1 -->
<g id="Node000001" class="node">
<title>Node1</title>
<g id="a_Node000001"><a xlink:title=" ">
<polygon fill="#999999" stroke="#666666" points="195,-20 139.25,-20 139.25,0 195,0 195,-20"/>
<text text-anchor="middle" x="167.12" y="-6.5" font-family="Helvetica,sans-Serif" font-size="10.00">FliesMdfr</text>
</a>
</g>
</g>
<!-- Node2 -->
<g id="Node000002" class="node">
<title>Node2</title>
<g id="a_Node000002"><a xlink:href="../../d8/d0a/class_modifier_base.html" target="_top" xlink:title=" ">
<polygon fill="white" stroke="#666666" points="72.25,-126 0,-126 0,-106 72.25,-106 72.25,-126"/>
<text text-anchor="middle" x="36.12" y="-112.5" font-family="Helvetica,sans-Serif" font-size="10.00">ModifierBase</text>
</a>
</g>
</g>
<!-- Node2&#45;&gt;Node1 -->
<g id="edge1_Node000001_Node000002" class="edge">
<title>Node2&#45;&gt;Node1</title>
<g id="a_edge1_Node000001_Node000002"><a xlink:title=" ">
<path fill="none" stroke="#8b1a1a" d="M42.01,-94.71C48.08,-77.27 59.22,-52.67 77.12,-38 94.66,-23.63 119.69,-16.9 138.9,-13.76"/>
<polygon fill="#8b1a1a" stroke="#8b1a1a" points="38.68,-93.63 38.99,-104.22 45.35,-95.75 38.68,-93.63"/>
</a>
</g>
</g>
<!-- Node3 -->
<g id="Node000003" class="node">
<title>Node3</title>
<g id="a_Node000003"><a xlink:href="../../d4/d03/classfloat.html" target="_top" xlink:title=" ">
<polygon fill="white" stroke="#666666" points="124.12,-126 90.12,-126 90.12,-106 124.12,-106 124.12,-126"/>
<text text-anchor="middle" x="107.12" y="-112.5" font-family="Helvetica,sans-Serif" font-size="10.00">float</text>
</a>
</g>
</g>
<!-- Node3&#45;&gt;Node1 -->
<g id="edge2_Node000001_Node000003" class="edge">
<title>Node3&#45;&gt;Node1</title>
<g id="a_edge2_Node000001_Node000003"><a xlink:title=" ">
<path fill="none" stroke="#9a32cd" stroke-dasharray="5,2" d="M94.13,-96.31C84.31,-79.65 74.45,-55.29 86.88,-38 98.63,-21.65 120.78,-15.06 138.84,-12.48"/>
<polygon fill="#9a32cd" stroke="#9a32cd" points="90.89,-97.75 99.23,-104.28 96.79,-93.97 90.89,-97.75"/>
</a>
</g>
<text text-anchor="middle" x="157.25" y="-52.5" font-family="Helvetica,sans-Serif" font-size="10.00" fill="grey"> DISTANCE_SENSITIVITY_SQR</text>
</g>
<!-- Node3&#45;&gt;Node3 -->
<g id="edge3_Node000003_Node000003" class="edge">
<title>Node3&#45;&gt;Node3</title>
<g id="a_edge3_Node000003_Node000003"><a xlink:title=" ">
<path fill="none" stroke="#9a32cd" stroke-dasharray="5,2" d="M134.47,-126.44C139,-124.97 142.12,-121.49 142.12,-116 142.12,-106.51 132.78,-103.02 122.96,-105.54"/>
<polygon fill="#9a32cd" stroke="#9a32cd" points="134.47,-122.94 124.48,-126.45 134.48,-129.94 134.47,-122.94"/>
</a>
</g>
<text text-anchor="middle" x="164.25" y="-124.5" font-family="Helvetica,sans-Serif" font-size="10.00" fill="grey"> LOWEST</text>
<text text-anchor="middle" x="164.25" y="-112.5" font-family="Helvetica,sans-Serif" font-size="10.00" fill="grey">MAX</text>
<text text-anchor="middle" x="164.25" y="-100.5" font-family="Helvetica,sans-Serif" font-size="10.00" fill="grey">MIN</text>
</g>
<!-- Node4 -->
<g id="Node000004" class="node">
<title>Node4</title>
<g id="a_Node000004"><a xlink:href="../../db/d06/class_param3.html" target="_top" xlink:title=" ">
<polygon fill="white" stroke="#666666" points="274,-126 224.25,-126 224.25,-106 274,-106 274,-126"/>
<text text-anchor="middle" x="249.12" y="-112.5" font-family="Helvetica,sans-Serif" font-size="10.00">Param3</text>
</a>
</g>
</g>
<!-- Node4&#45;&gt;Node1 -->
<g id="edge4_Node000001_Node000004" class="edge">
<title>Node4&#45;&gt;Node1</title>
<g id="a_edge4_Node000001_Node000004"><a xlink:title=" ">
<path fill="none" stroke="#9a32cd" stroke-dasharray="5,2" d="M247.91,-94.11C245.91,-77.19 240.68,-53.67 227.12,-38 218.9,-28.5 206.67,-22.18 195.39,-18.06"/>
<polygon fill="#9a32cd" stroke="#9a32cd" points="244.42,-94.35 248.77,-104.01 251.39,-93.75 244.42,-94.35"/>
</a>
</g>
<text text-anchor="middle" x="306.12" y="-64.5" font-family="Helvetica,sans-Serif" font-size="10.00" fill="grey"> IDLE_COUNT_THRESHOLD</text>
<text text-anchor="middle" x="306.12" y="-52.5" font-family="Helvetica,sans-Serif" font-size="10.00" fill="grey">TICK_FREQUENCY</text>
<text text-anchor="middle" x="306.12" y="-40.5" font-family="Helvetica,sans-Serif" font-size="10.00" fill="grey">m_IdleCount</text>
</g>
<!-- Node5 -->
<g id="Node000005" class="node">
<title>Node5</title>
<g id="a_Node000005"><a xlink:href="../../d7/d0c/classvector.html" target="_top" xlink:title=" ">
<polygon fill="white" stroke="#666666" points="418.88,-126 377.38,-126 377.38,-106 418.88,-106 418.88,-126"/>
<text text-anchor="middle" x="398.12" y="-112.5" font-family="Helvetica,sans-Serif" font-size="10.00">vector</text>
</a>
</g>
</g>
<!-- Node5&#45;&gt;Node1 -->
<g id="edge5_Node000001_Node000005" class="edge">
<title>Node5&#45;&gt;Node1</title>
<g id="a_edge5_Node000001_Node000005"><a xlink:title=" ">
<path fill="none" stroke="#9a32cd" stroke-dasharray="5,2" d="M397.27,-94.27C395.35,-76.53 389.65,-51.74 373.12,-38 346.71,-16.04 245.53,-11.81 195.49,-11.08"/>
<polygon fill="#9a32cd" stroke="#9a32cd" points="393.77,-94.46 397.98,-104.18 400.75,-93.95 393.77,-94.46"/>
</a>
</g>
<text text-anchor="middle" x="428.38" y="-52.5" font-family="Helvetica,sans-Serif" font-size="10.00" fill="grey"> m_PrevPosition</text>
</g>
<!-- Node5&#45;&gt;Node5 -->
<g id="edge6_Node000005_Node000005" class="edge">
<title>Node5&#45;&gt;Node5</title>
<g id="a_edge6_Node000005_Node000005"><a xlink:title=" ">
<path fill="none" stroke="#9a32cd" stroke-dasharray="5,2" d="M427.15,-126.76C432.83,-125.52 436.88,-121.93 436.88,-116 436.88,-106.51 426.53,-103.02 415.66,-105.54"/>
<polygon fill="#9a32cd" stroke="#9a32cd" points="427.26,-123.26 417.17,-126.5 427.08,-130.26 427.26,-123.26"/>
</a>
</g>
<text text-anchor="middle" x="454.12" y="-130.5" font-family="Helvetica,sans-Serif" font-size="10.00" fill="grey"> Aside</text>
<text text-anchor="middle" x="454.12" y="-118.5" font-family="Helvetica,sans-Serif" font-size="10.00" fill="grey">Forward</text>
<text text-anchor="middle" x="454.12" y="-106.5" font-family="Helvetica,sans-Serif" font-size="10.00" fill="grey">Up</text>
<text text-anchor="middle" x="454.12" y="-94.5" font-family="Helvetica,sans-Serif" font-size="10.00" fill="grey">Zero</text>
</g>
</g>
</svg>
</svg>

<style type='text/css'>
<![CDATA[
[data-mouse-over-selected='false'] { opacity: 0.7; }
[data-mouse-over-selected='true']  { opacity: 1.0; }
]]>
</style>
<script type="application/ecmascript"><![CDATA[
document.addEventListener('DOMContentLoaded', (event) => {
  highlightEdges();
  highlightAdjacentNodes();
});
]]></script>
</svg>
