<?xml version="1.0" encoding="UTF-8" standalone="no"?>
<!DOCTYPE svg PUBLIC "-//W3C//DTD SVG 1.1//EN"
 "http://www.w3.org/Graphics/SVG/1.1/DTD/svg11.dtd">
<!-- Generated by graphviz version 11.0.0 (20240428.1522)
 -->
<!-- Title: InventoryItemType Pages: 1 -->
<!--zoomable 346 -->

<svg id="main" version="1.1" xmlns="http://www.w3.org/2000/svg" xmlns:xlink="http://www.w3.org/1999/xlink" xml:space="preserve" onload="init(evt)">
<style type="text/css"><![CDATA[
.node, .edge {opacity: 0.7;}
.node.selected, .edge.selected {opacity: 1;}
.edge:hover path { stroke: red; }
.edge:hover polygon { stroke: red; fill: red; }
]]></style>

<defs>
  <circle id="rim" cx="0" cy="0" r="7"/>
  <circle id="rim2" cx="0" cy="0" r="3.5"/>
  <g id="zoomPlus">
    <use xlink:href="#rim" fill="#404040"><set attributeName="fill" to="#808080" begin="zoomplus.mouseover" end="zoomplus.mouseout"/></use>
    <path d="M-4,0h8M0,-4v8" fill="none" stroke="white" stroke-width="1.5" pointer-events="none"/>
  </g>
  <g id="zoomMin">
    <use xlink:href="#rim" fill="#404040"><set attributeName="fill" to="#808080" begin="zoomminus.mouseover" end="zoomminus.mouseout"/></use>
    <path d="M-4,0h8" fill="none" stroke="white" stroke-width="1.5" pointer-events="none"/>
  </g>
  <g id="arrowUp" transform="translate(30 24)">
    <use xlink:href="#rim"/>
    <path pointer-events="none" fill="none" stroke="white" stroke-width="1.5" d="M0,-3.0v7 M-2.5,-0.5L0,-3.0L2.5,-0.5"/>
  </g>
  <g id="arrowRight" transform="rotate(90) translate(36 -43)">
    <use xlink:href="#rim"/>
    <path pointer-events="none" fill="none" stroke="white" stroke-width="1.5" d="M0,-3.0v7 M-2.5,-0.5L0,-3.0L2.5,-0.5"/>
  </g>
  <g id="arrowDown" transform="rotate(180) translate(-30 -48)">
    <use xlink:href="#rim"/>
    <path pointer-events="none" fill="none" stroke="white" stroke-width="1.5" d="M0,-3.0v7 M-2.5,-0.5L0,-3.0L2.5,-0.5"/>
  </g>
  <g id="arrowLeft" transform="rotate(270) translate(-36 17)">
    <use xlink:href="#rim"/>
    <path pointer-events="none" fill="none" stroke="white" stroke-width="1.5" d="M0,-3.0v7 M-2.5,-0.5L0,-3.0L2.5,-0.5"/>
  </g>
  <g id="resetDef">
    <use xlink:href="#rim2" fill="#404040"><set attributeName="fill" to="#808080" begin="reset.mouseover" end="reset.mouseout"/></use>
  </g>
</defs>
<script type="application/ecmascript">
var viewWidth = 924;
var viewHeight = 346;
var sectionId = 'dynsection-0';
</script>
<script type="application/ecmascript" xlink:href="../../svg.min.js"/>
<svg id="graph" class="graph">
<g id="viewport">
<title>InventoryItemType</title>
<!-- Node1 -->
<g id="Node000001" class="node">
<title>Node1</title>
<g id="a_Node000001"><a xlink:title=" ">
<polygon fill="#999999" stroke="#666666" points="722.78,-20 628.78,-20 628.78,0 722.78,0 722.78,-20"/>
<text text-anchor="middle" x="675.78" y="-6.5" font-family="Helvetica,sans-Serif" font-size="10.00">InventoryItemType</text>
</a>
</g>
</g>
<!-- Node2 -->
<g id="Node000002" class="node">
<title>Node2</title>
<g id="a_Node000002"><a xlink:href="../../d2/d01/classarray.html" target="_top" xlink:title=" ">
<polygon fill="white" stroke="#666666" points="747.53,-88 604.03,-88 604.03,-68 747.53,-68 747.53,-88"/>
<text text-anchor="middle" x="675.78" y="-74.5" font-family="Helvetica,sans-Serif" font-size="10.00">array&lt; ref AnimSoundEvent &gt;</text>
</a>
</g>
</g>
<!-- Node2&#45;&gt;Node1 -->
<g id="edge1_Node000001_Node000002" class="edge">
<title>Node2&#45;&gt;Node1</title>
<g id="a_edge1_Node000001_Node000002"><a xlink:title=" ">
<path fill="none" stroke="#9a32cd" stroke-dasharray="5,2" d="M675.78,-56.28C675.78,-44.27 675.78,-29.74 675.78,-20.44"/>
<polygon fill="#9a32cd" stroke="#9a32cd" points="672.28,-56.03 675.78,-66.03 679.28,-56.03 672.28,-56.03"/>
</a>
</g>
<text text-anchor="middle" x="723.03" y="-40.5" font-family="Helvetica,sans-Serif" font-size="10.00" fill="grey"> m_animSoundEvents</text>
</g>
<!-- Node3 -->
<g id="Node000003" class="node">
<title>Node3</title>
<g id="a_Node000003"><a xlink:href="../../d8/d03/class_object.html" target="_top" xlink:title=" ">
<polygon fill="white" stroke="#666666" points="401.03,-336 356.53,-336 356.53,-316 401.03,-316 401.03,-336"/>
<text text-anchor="middle" x="378.78" y="-322.5" font-family="Helvetica,sans-Serif" font-size="10.00">Object</text>
</a>
</g>
</g>
<!-- Node3&#45;&gt;Node2 -->
<g id="edge2_Node000002_Node000003" class="edge">
<title>Node3&#45;&gt;Node2</title>
<g id="a_edge2_Node000002_Node000003"><a xlink:title=" ">
<path fill="none" stroke="#9a32cd" stroke-dasharray="5,2" d="M380.72,-304.32C382.95,-284.08 387.29,-252.52 394.78,-226 397.72,-215.59 423.55,-143.01 431.78,-136 446.4,-123.56 556.84,-101.18 624.03,-88.48"/>
<polygon fill="#9a32cd" stroke="#9a32cd" points="377.26,-303.75 379.73,-314.06 384.23,-304.46 377.26,-303.75"/>
</a>
</g>
<text text-anchor="middle" x="445.28" y="-174.5" font-family="Helvetica,sans-Serif" font-size="10.00" fill="grey"> obj</text>
<text text-anchor="middle" x="445.28" y="-162.5" font-family="Helvetica,sans-Serif" font-size="10.00" fill="grey">parent</text>
</g>
<!-- Node5 -->
<g id="Node000005" class="node">
<title>Node5</title>
<g id="a_Node000005"><a xlink:href="../../d2/d01/classarray.html" target="_top" xlink:title="Result for an object found in CGame.IsBoxCollidingGeometryProxy.">
<polygon fill="white" stroke="#666666" points="505.65,-182 467.9,-182 467.9,-162 505.65,-162 505.65,-182"/>
<text text-anchor="middle" x="486.78" y="-168.5" font-family="Helvetica,sans-Serif" font-size="10.00">array</text>
</a>
</g>
</g>
<!-- Node3&#45;&gt;Node5 -->
<g id="edge5_Node000005_Node000003" class="edge">
<title>Node3&#45;&gt;Node5</title>
<g id="a_edge5_Node000005_Node000003"><a xlink:title=" ">
<path fill="none" stroke="#9a32cd" stroke-dasharray="5,2" d="M391.83,-306.64C415.07,-273.93 462.83,-206.7 480.24,-182.2"/>
<polygon fill="#9a32cd" stroke="#9a32cd" points="389.03,-304.53 386.09,-314.71 394.73,-308.59 389.03,-304.53"/>
</a>
</g>
<text text-anchor="middle" x="461.28" y="-264.5" font-family="Helvetica,sans-Serif" font-size="10.00" fill="grey"> obj</text>
<text text-anchor="middle" x="461.28" y="-252.5" font-family="Helvetica,sans-Serif" font-size="10.00" fill="grey">parent</text>
</g>
<!-- Node9 -->
<g id="Node000009" class="node">
<title>Node9</title>
<g id="a_Node000009"><a xlink:href="../../d2/d01/classarray.html" target="_top" xlink:title=" ">
<polygon fill="white" stroke="#666666" points="362.03,-88 275.53,-88 275.53,-68 362.03,-68 362.03,-88"/>
<text text-anchor="middle" x="318.78" y="-74.5" font-family="Helvetica,sans-Serif" font-size="10.00">array&lt; Widget &gt;</text>
</a>
</g>
</g>
<!-- Node3&#45;&gt;Node9 -->
<g id="edge13_Node000009_Node000003" class="edge">
<title>Node3&#45;&gt;Node9</title>
<g id="a_edge13_Node000009_Node000003"><a xlink:title=" ">
<path fill="none" stroke="#9a32cd" stroke-dasharray="5,2" d="M370.6,-305.03C369.64,-302.66 368.69,-300.28 367.78,-298 355.08,-266.1 367.18,-246.69 339.78,-226 305.76,-200.3 177.48,-239.53 148.78,-208 127.24,-184.33 130.09,-161.98 148.78,-136 177.41,-96.2 235.16,-83.8 275.36,-80.15"/>
<polygon fill="#9a32cd" stroke="#9a32cd" points="367.29,-306.18 374.3,-314.12 373.77,-303.54 367.29,-306.18"/>
</a>
</g>
<text text-anchor="middle" x="162.28" y="-174.5" font-family="Helvetica,sans-Serif" font-size="10.00" fill="grey"> obj</text>
<text text-anchor="middle" x="162.28" y="-162.5" font-family="Helvetica,sans-Serif" font-size="10.00" fill="grey">parent</text>
</g>
<!-- Node4 -->
<g id="Node000004" class="node">
<title>Node4</title>
<g id="a_Node000004"><a xlink:href="../../db/d06/class_param3.html" target="_top" xlink:title=" ">
<polygon fill="white" stroke="#666666" points="214.65,-336 164.9,-336 164.9,-316 214.65,-316 214.65,-336"/>
<text text-anchor="middle" x="189.78" y="-322.5" font-family="Helvetica,sans-Serif" font-size="10.00">Param3</text>
</a>
</g>
</g>
<!-- Node4&#45;&gt;Node2 -->
<g id="edge3_Node000002_Node000004" class="edge">
<title>Node4&#45;&gt;Node2</title>
<g id="a_edge3_Node000002_Node000004"><a xlink:title=" ">
<path fill="none" stroke="#9a32cd" stroke-dasharray="5,2" d="M188.31,-304.42C185.65,-260.37 182.27,-159.05 205.53,-136 224.7,-117 421.34,-123.42 447.78,-118 463.89,-114.7 466.79,-109.82 482.78,-106 522.27,-96.56 567.14,-90.04 603.68,-85.77"/>
<polygon fill="#9a32cd" stroke="#9a32cd" points="184.82,-304.63 188.97,-314.38 191.8,-304.17 184.82,-304.63"/>
</a>
</g>
<text text-anchor="middle" x="263.9" y="-198.5" font-family="Helvetica,sans-Serif" font-size="10.00" fill="grey"> NO_SORTING</text>
<text text-anchor="middle" x="263.9" y="-186.5" font-family="Helvetica,sans-Serif" font-size="10.00" fill="grey">geomLevel</text>
<text text-anchor="middle" x="263.9" y="-174.5" font-family="Helvetica,sans-Serif" font-size="10.00" fill="grey">hierLevel</text>
<text text-anchor="start" x="205.78" y="-162.5" font-family="Helvetica,sans-Serif" font-size="10.00" fill="grey">m_CurrentSettingAlternate</text>
<text text-anchor="middle" x="263.9" y="-150.5" font-family="Helvetica,sans-Serif" font-size="10.00" fill="grey">KeyIndex</text>
<text text-anchor="middle" x="263.9" y="-138.5" font-family="Helvetica,sans-Serif" font-size="10.00" fill="grey">m_CurrentSettingKeyIndex</text>
</g>
<!-- Node4&#45;&gt;Node5 -->
<g id="edge6_Node000005_Node000004" class="edge">
<title>Node4&#45;&gt;Node5</title>
<g id="a_edge6_Node000005_Node000004"><a xlink:title=" ">
<path fill="none" stroke="#9a32cd" stroke-dasharray="5,2" d="M200.8,-305.75C215.32,-282.42 243.2,-244 278.53,-226 348.3,-190.46 383.57,-242.66 453.78,-208 465.46,-202.23 475.16,-190.5 480.96,-182.21"/>
<polygon fill="#9a32cd" stroke="#9a32cd" points="197.84,-303.89 195.71,-314.26 203.85,-307.48 197.84,-303.89"/>
</a>
</g>
<text text-anchor="middle" x="336.9" y="-288.5" font-family="Helvetica,sans-Serif" font-size="10.00" fill="grey"> NO_SORTING</text>
<text text-anchor="middle" x="336.9" y="-276.5" font-family="Helvetica,sans-Serif" font-size="10.00" fill="grey">geomLevel</text>
<text text-anchor="middle" x="336.9" y="-264.5" font-family="Helvetica,sans-Serif" font-size="10.00" fill="grey">hierLevel</text>
<text text-anchor="start" x="278.78" y="-252.5" font-family="Helvetica,sans-Serif" font-size="10.00" fill="grey">m_CurrentSettingAlternate</text>
<text text-anchor="middle" x="336.9" y="-240.5" font-family="Helvetica,sans-Serif" font-size="10.00" fill="grey">KeyIndex</text>
<text text-anchor="middle" x="336.9" y="-228.5" font-family="Helvetica,sans-Serif" font-size="10.00" fill="grey">m_CurrentSettingKeyIndex</text>
</g>
<!-- Node4&#45;&gt;Node9 -->
<g id="edge14_Node000009_Node000004" class="edge">
<title>Node4&#45;&gt;Node9</title>
<g id="a_edge14_Node000009_Node000004"><a xlink:title=" ">
<path fill="none" stroke="#9a32cd" stroke-dasharray="5,2" d="M158.04,-310.86C93.41,-280.17 -42.8,-204.68 13.53,-136 46.05,-96.35 198.82,-84.15 275.15,-80.5"/>
<polygon fill="#9a32cd" stroke="#9a32cd" points="156.21,-313.87 166.75,-314.92 159.17,-307.52 156.21,-313.87"/>
</a>
</g>
<text text-anchor="middle" x="71.9" y="-198.5" font-family="Helvetica,sans-Serif" font-size="10.00" fill="grey"> NO_SORTING</text>
<text text-anchor="middle" x="71.9" y="-186.5" font-family="Helvetica,sans-Serif" font-size="10.00" fill="grey">geomLevel</text>
<text text-anchor="middle" x="71.9" y="-174.5" font-family="Helvetica,sans-Serif" font-size="10.00" fill="grey">hierLevel</text>
<text text-anchor="start" x="13.78" y="-162.5" font-family="Helvetica,sans-Serif" font-size="10.00" fill="grey">m_CurrentSettingAlternate</text>
<text text-anchor="middle" x="71.9" y="-150.5" font-family="Helvetica,sans-Serif" font-size="10.00" fill="grey">KeyIndex</text>
<text text-anchor="middle" x="71.9" y="-138.5" font-family="Helvetica,sans-Serif" font-size="10.00" fill="grey">m_CurrentSettingKeyIndex</text>
</g>
<!-- Node5&#45;&gt;Node2 -->
<g id="edge4_Node000002_Node000005" class="edge">
<title>Node5&#45;&gt;Node2</title>
<g id="a_edge4_Node000002_Node000005"><a xlink:title=" ">
<path fill="none" stroke="#9a32cd" stroke-dasharray="5,2" d="M516.13,-156.71C555.14,-137.72 623.03,-104.68 656.28,-88.49"/>
<polygon fill="#9a32cd" stroke="#9a32cd" points="514.76,-153.49 507.3,-161.01 517.83,-159.78 514.76,-153.49"/>
</a>
</g>
<text text-anchor="middle" x="640.78" y="-108.5" font-family="Helvetica,sans-Serif" font-size="10.00" fill="grey"> proxyInfo</text>
</g>
<!-- Node5&#45;&gt;Node5 -->
<g id="edge7_Node000005_Node000005" class="edge">
<title>Node5&#45;&gt;Node5</title>
<g id="a_edge7_Node000005_Node000005"><a xlink:title=" ">
<path fill="none" stroke="#9a32cd" stroke-dasharray="5,2" d="M514.8,-182.66C520,-181.34 523.65,-177.78 523.65,-172 523.65,-162.51 513.81,-159.02 503.47,-161.54"/>
<polygon fill="#9a32cd" stroke="#9a32cd" points="515.04,-179.17 504.98,-182.48 514.91,-186.16 515.04,-179.17"/>
</a>
</g>
<text text-anchor="middle" x="544.65" y="-168.5" font-family="Helvetica,sans-Serif" font-size="10.00" fill="grey"> proxyInfo</text>
</g>
<!-- Node5&#45;&gt;Node9 -->
<g id="edge15_Node000009_Node000005" class="edge">
<title>Node5&#45;&gt;Node9</title>
<g id="a_edge15_Node000009_Node000005"><a xlink:title=" ">
<path fill="none" stroke="#9a32cd" stroke-dasharray="5,2" d="M473.68,-152.92C468.22,-146.63 461.37,-140.12 453.78,-136 414.48,-114.66 393.97,-139.54 354.78,-118 341.86,-110.9 331.03,-97.44 324.72,-88.34"/>
<polygon fill="#9a32cd" stroke="#9a32cd" points="470.73,-154.83 479.68,-160.49 476.22,-150.48 470.73,-154.83"/>
</a>
</g>
<text text-anchor="middle" x="375.78" y="-108.5" font-family="Helvetica,sans-Serif" font-size="10.00" fill="grey"> proxyInfo</text>
</g>
<!-- Node6 -->
<g id="Node000006" class="node">
<title>Node6</title>
<g id="a_Node000006"><a xlink:href="../../d4/d04/class_class.html" target="_top" xlink:title="Super root of all classes in Enforce script.">
<polygon fill="white" stroke="#666666" points="811.15,-336 770.4,-336 770.4,-316 811.15,-316 811.15,-336"/>
<text text-anchor="middle" x="790.78" y="-322.5" font-family="Helvetica,sans-Serif" font-size="10.00">Class</text>
</a>
</g>
</g>
<!-- Node6&#45;&gt;Node2 -->
<g id="edge20_Node000002_Node000006" class="edge">
<title>Node6&#45;&gt;Node2</title>
<g id="a_edge20_Node000002_Node000006"><a xlink:title=" ">
<path fill="none" stroke="#9a32cd" stroke-dasharray="5,2" d="M806.03,-307.03C833.81,-271.98 886.71,-192.95 851.78,-136 830.28,-100.96 786.28,-86.71 747.66,-81.22"/>
<polygon fill="#9a32cd" stroke="#9a32cd" points="803.52,-304.56 799.91,-314.52 808.95,-308.99 803.52,-304.56"/>
</a>
</g>
<text text-anchor="middle" x="889.4" y="-168.5" font-family="Helvetica,sans-Serif" font-size="10.00" fill="grey"> m_Instance</text>
</g>
<!-- Node6&#45;&gt;Node5 -->
<g id="edge8_Node000005_Node000006" class="edge">
<title>Node6&#45;&gt;Node5</title>
<g id="a_edge8_Node000005_Node000006"><a xlink:title=" ">
<path fill="none" stroke="#9a32cd" stroke-dasharray="5,2" d="M759.4,-315.06C738.57,-308.38 714.22,-300.37 709.53,-298 660.1,-272.99 656.01,-253.25 607.78,-226 573.24,-206.48 530.12,-189.14 505.8,-179.95"/>
<polygon fill="#9a32cd" stroke="#9a32cd" points="758.12,-318.33 768.71,-318.03 760.25,-311.66 758.12,-318.33"/>
</a>
</g>
<text text-anchor="middle" x="735.4" y="-258.5" font-family="Helvetica,sans-Serif" font-size="10.00" fill="grey"> m_Instance</text>
</g>
<!-- Node6&#45;&gt;Node9 -->
<g id="edge16_Node000009_Node000006" class="edge">
<title>Node6&#45;&gt;Node9</title>
<g id="a_edge16_Node000009_Node000006"><a xlink:title=" ">
<path fill="none" stroke="#9a32cd" stroke-dasharray="5,2" d="M782.89,-305.18C765.76,-262.69 724.92,-164.37 702.78,-136 689.76,-119.31 685.44,-113.84 665.78,-106 611.76,-84.46 442.77,-80.05 362.27,-79.18"/>
<polygon fill="#9a32cd" stroke="#9a32cd" points="779.61,-306.41 786.58,-314.39 786.11,-303.81 779.61,-306.41"/>
</a>
</g>
<text text-anchor="middle" x="767.4" y="-168.5" font-family="Helvetica,sans-Serif" font-size="10.00" fill="grey"> m_Instance</text>
</g>
<!-- Node7 -->
<g id="Node000007" class="node">
<title>Node7</title>
<g id="a_Node000007"><a xlink:href="../../d5/d02/classstring.html" target="_top" xlink:title=" ">
<polygon fill="white" stroke="#666666" points="702.78,-336 662.78,-336 662.78,-316 702.78,-316 702.78,-336"/>
<text text-anchor="middle" x="682.78" y="-322.5" font-family="Helvetica,sans-Serif" font-size="10.00">string</text>
</a>
</g>
</g>
<!-- Node7&#45;&gt;Node2 -->
<g id="edge21_Node000002_Node000007" class="edge">
<title>Node7&#45;&gt;Node2</title>
<g id="a_edge21_Node000002_Node000007"><a xlink:title=" ">
<path fill="none" stroke="#9a32cd" stroke-dasharray="5,2" d="M706.54,-309.08C752.18,-276.49 844.1,-199.84 802.78,-136 786.3,-110.54 755.45,-96.34 728.29,-88.49"/>
<polygon fill="#9a32cd" stroke="#9a32cd" points="704.75,-306.06 698.55,-314.66 708.75,-311.8 704.75,-306.06"/>
</a>
</g>
<text text-anchor="middle" x="830.4" y="-168.5" font-family="Helvetica,sans-Serif" font-size="10.00" fill="grey"> m_Test</text>
</g>
<!-- Node7&#45;&gt;Node5 -->
<g id="edge9_Node000005_Node000007" class="edge">
<title>Node7&#45;&gt;Node5</title>
<g id="a_edge9_Node000005_Node000007"><a xlink:title=" ">
<path fill="none" stroke="#9a32cd" stroke-dasharray="5,2" d="M651.23,-323.38C627.69,-320.81 595.73,-314.31 572.53,-298 541.12,-275.92 546.58,-257.61 524.78,-226 514.11,-210.53 501.3,-192.84 493.61,-182.31"/>
<polygon fill="#9a32cd" stroke="#9a32cd" points="650.9,-326.87 661.17,-324.27 651.52,-319.9 650.9,-326.87"/>
</a>
</g>
<text text-anchor="middle" x="589.4" y="-258.5" font-family="Helvetica,sans-Serif" font-size="10.00" fill="grey"> m_Test</text>
</g>
<!-- Node7&#45;&gt;Node7 -->
<g id="edge10_Node000007_Node000007" class="edge">
<title>Node7&#45;&gt;Node7</title>
<g id="a_edge10_Node000007_Node000007"><a xlink:title=" ">
<path fill="none" stroke="#9a32cd" stroke-dasharray="5,2" d="M708.55,-337.91C715.5,-337.28 720.78,-333.31 720.78,-326 720.78,-315.12 709.08,-311.64 697.6,-315.55"/>
<polygon fill="#9a32cd" stroke="#9a32cd" points="709.48,-334.5 699.1,-336.65 708.55,-341.44 709.48,-334.5"/>
</a>
</g>
<text text-anchor="middle" x="736.53" y="-322.5" font-family="Helvetica,sans-Serif" font-size="10.00" fill="grey"> Empty</text>
</g>
<!-- Node7&#45;&gt;Node9 -->
<g id="edge17_Node000009_Node000007" class="edge">
<title>Node7&#45;&gt;Node9</title>
<g id="a_edge17_Node000009_Node000007"><a xlink:title=" ">
<path fill="none" stroke="#9a32cd" stroke-dasharray="5,2" d="M689.85,-304.58C696.03,-282.67 701.52,-248.04 683.78,-226 660.32,-196.85 629.78,-232.54 601.53,-208 575.76,-185.61 599.12,-159.94 574.78,-136 545.12,-106.82 427.35,-90.26 362.38,-83.16"/>
<polygon fill="#9a32cd" stroke="#9a32cd" points="686.52,-303.53 686.85,-314.12 693.19,-305.63 686.52,-303.53"/>
</a>
</g>
<text text-anchor="middle" x="618.4" y="-168.5" font-family="Helvetica,sans-Serif" font-size="10.00" fill="grey"> m_Test</text>
</g>
<!-- Node8 -->
<g id="Node000008" class="node">
<title>Node8</title>
<g id="a_Node000008"><a xlink:href="../../dd/d0a/class_widget.html" target="_top" xlink:title=" ">
<polygon fill="white" stroke="#666666" points="510.15,-336 463.4,-336 463.4,-316 510.15,-316 510.15,-336"/>
<text text-anchor="middle" x="486.78" y="-322.5" font-family="Helvetica,sans-Serif" font-size="10.00">Widget</text>
</a>
</g>
</g>
<!-- Node8&#45;&gt;Node2 -->
<g id="edge22_Node000002_Node000008" class="edge">
<title>Node8&#45;&gt;Node2</title>
<g id="a_edge22_Node000002_Node000008"><a xlink:title=" ">
<path fill="none" stroke="#9a32cd" stroke-dasharray="5,2" d="M521.74,-322.78C541.78,-319.81 566.17,-313.08 582.78,-298 608.2,-274.92 588.64,-252.25 610.78,-226 620.8,-214.11 631.36,-220.37 640.78,-208 665.93,-174.97 655.07,-158.11 665.78,-118 668.49,-107.87 671.45,-96.22 673.45,-88.31"/>
<polygon fill="#9a32cd" stroke="#9a32cd" points="521.55,-319.28 512.04,-323.95 522.39,-326.23 521.55,-319.28"/>
</a>
</g>
<text text-anchor="middle" x="680.15" y="-168.5" font-family="Helvetica,sans-Serif" font-size="10.00" fill="grey"> m_Root</text>
</g>
<!-- Node8&#45;&gt;Node5 -->
<g id="edge11_Node000005_Node000008" class="edge">
<title>Node8&#45;&gt;Node5</title>
<g id="a_edge11_Node000005_Node000008"><a xlink:title=" ">
<path fill="none" stroke="#9a32cd" stroke-dasharray="5,2" d="M486.78,-304.47C486.78,-271.04 486.78,-206.17 486.78,-182.2"/>
<polygon fill="#9a32cd" stroke="#9a32cd" points="483.28,-304.43 486.78,-314.43 490.28,-304.43 483.28,-304.43"/>
</a>
</g>
<text text-anchor="middle" x="505.15" y="-258.5" font-family="Helvetica,sans-Serif" font-size="10.00" fill="grey"> m_Root</text>
</g>
<!-- Node8&#45;&gt;Node9 -->
<g id="edge18_Node000009_Node000008" class="edge">
<title>Node8&#45;&gt;Node9</title>
<g id="a_edge18_Node000009_Node000008"><a xlink:title=" ">
<path fill="none" stroke="#9a32cd" stroke-dasharray="5,2" d="M482.65,-304.7C476.96,-282.06 464.49,-246 439.78,-226 412.88,-204.23 389.74,-231.16 364.03,-208 327.88,-175.43 320.61,-112.3 319.15,-88.44"/>
<polygon fill="#9a32cd" stroke="#9a32cd" points="479.19,-305.25 484.81,-314.23 486.01,-303.7 479.19,-305.25"/>
</a>
</g>
<text text-anchor="middle" x="382.15" y="-168.5" font-family="Helvetica,sans-Serif" font-size="10.00" fill="grey"> m_Root</text>
</g>
<!-- Node9&#45;&gt;Node5 -->
<g id="edge12_Node000005_Node000009" class="edge">
<title>Node9&#45;&gt;Node5</title>
<g id="a_edge12_Node000005_Node000009"><a xlink:title=" ">
<path fill="none" stroke="#9a32cd" stroke-dasharray="5,2" d="M361.8,-92.02C389.54,-101.61 425.56,-116.39 453.78,-136 464.07,-143.15 473.63,-153.94 479.78,-161.64"/>
<polygon fill="#9a32cd" stroke="#9a32cd" points="363.26,-88.81 352.67,-88.95 361.03,-95.45 363.26,-88.81"/>
</a>
</g>
<text text-anchor="middle" x="454.28" y="-108.5" font-family="Helvetica,sans-Serif" font-size="10.00" fill="grey"> m_Subgroups</text>
</g>
<!-- Node9&#45;&gt;Node9 -->
<g id="edge19_Node000009_Node000009" class="edge">
<title>Node9&#45;&gt;Node9</title>
<g id="a_edge19_Node000009_Node000009"><a xlink:title=" ">
<path fill="none" stroke="#9a32cd" stroke-dasharray="5,2" d="M373.41,-82.76C377.51,-81.7 380.03,-80.11 380.03,-78 380.03,-74.35 372.49,-72.26 362.27,-71.75"/>
<polygon fill="#9a32cd" stroke="#9a32cd" points="373.22,-79.26 363.77,-84.05 374.15,-86.19 373.22,-79.26"/>
</a>
</g>
<text text-anchor="middle" x="411.53" y="-74.5" font-family="Helvetica,sans-Serif" font-size="10.00" fill="grey"> m_Subgroups</text>
</g>
</g>
</svg>

<g id="navigator" transform="translate(0 0)" fill="#404254">
  <rect fill="#f2f5e9" fill-opacity="0.5" stroke="#606060" stroke-width=".5" x="0" y="0" width="60" height="60"/>
  <use id="zoomplus" xlink:href="#zoomPlus" x="17" y="9" onmousedown="handleZoom(evt,'in')"/>
  <use id="zoomminus" xlink:href="#zoomMin" x="42" y="9" onmousedown="handleZoom(evt,'out')"/>
  <use id="reset" xlink:href="#resetDef" x="30" y="36" onmousedown="handleReset()"/>
   <use id="arrowup" xlink:href="#arrowUp" x="0" y="0" onmousedown="handlePan(0,-1)"/>
  <use id="arrowright" xlink:href="#arrowRight" x="0" y="0" onmousedown="handlePan(1,0)"/>
  <use id="arrowdown" xlink:href="#arrowDown" x="0" y="0" onmousedown="handlePan(0,1)"/>
  <use id="arrowleft" xlink:href="#arrowLeft" x="0" y="0" onmousedown="handlePan(-1,0)"/>
</g>
<svg viewBox="0 0 15 15" width="100%" height="30px" preserveAspectRatio="xMaxYMin meet">
 <g id="arrow_out" transform="scale(0.3 0.3)">
  <a xlink:href="class_inventory_item_type__coll__graph_org.svg" target="_base">
   <rect id="button" ry="5" rx="5" y="6" x="6" height="38" width="38"
        fill="#f2f5e9" fill-opacity="0.5" stroke="#606060" stroke-width="1.0"/>
   <path id="arrow"
     d="M 11.500037,31.436501 C 11.940474,20.09759 22.043105,11.32322 32.158766,21.979434 L 37.068811,17.246167 C 37.068811,17.246167 37.088388,32 37.088388,32 L 22.160133,31.978069 C 22.160133,31.978069 26.997745,27.140456 26.997745,27.140456 C 18.528582,18.264221 13.291696,25.230495 11.500037,31.436501 z"
     style="fill:#404040;"/>
  </a>
 </g>
</svg>

<style type='text/css'>
<![CDATA[
[data-mouse-over-selected='false'] { opacity: 0.7; }
[data-mouse-over-selected='true']  { opacity: 1.0; }
]]>
</style>
<script type="application/ecmascript"><![CDATA[
document.addEventListener('DOMContentLoaded', (event) => {
  highlightEdges();
  highlightAdjacentNodes();
});
]]></script>
</svg>
