<?xml version="1.0" encoding="UTF-8" standalone="no"?>
<!DOCTYPE svg PUBLIC "-//W3C//DTD SVG 1.1//EN"
 "http://www.w3.org/Graphics/SVG/1.1/DTD/svg11.dtd">
<!-- Generated by graphviz version 11.0.0 (20240428.1522)
 -->
<!-- Title: DeferredEvent Pages: 1 -->
<svg width="357pt" height="84pt"
 viewBox="0.00 0.00 356.75 84.00" xmlns="http://www.w3.org/2000/svg" xmlns:xlink="http://www.w3.org/1999/xlink">

<svg id="main" version="1.1" xmlns="http://www.w3.org/2000/svg" xmlns:xlink="http://www.w3.org/1999/xlink" xml:space="preserve" onload="init(evt)">
<style type="text/css"><![CDATA[
.node, .edge {opacity: 0.7;}
.node.selected, .edge.selected {opacity: 1;}
.edge:hover path { stroke: red; }
.edge:hover polygon { stroke: red; fill: red; }
]]></style>
<script type="application/ecmascript" xlink:href="../../svg.min.js"/>
<svg id="graph" class="graph">
<g id="graph0" class="graph" transform="scale(1 1) rotate(0) translate(4 80)">
<title>DeferredEvent</title>
<!-- Node1 -->
<g id="Node000001" class="node">
<title>Node1</title>
<g id="a_Node000001"><a xlink:title=" ">
<polygon fill="#999999" stroke="#666666" points="210.25,-76 134.25,-76 134.25,-56 210.25,-56 210.25,-76"/>
<text text-anchor="middle" x="172.25" y="-62.5" font-family="Helvetica,sans-Serif" font-size="10.00">DeferredEvent</text>
</a>
</g>
</g>
<!-- Node2 -->
<g id="Node000002" class="node">
<title>Node2</title>
<g id="a_Node000002"><a xlink:href="../../d3/d0a/class_day_z_player_inventory.html" target="_top" xlink:title=" ">
<polygon fill="white" stroke="#666666" points="104.5,-20 0,-20 0,0 104.5,0 104.5,-20"/>
<text text-anchor="middle" x="52.25" y="-6.5" font-family="Helvetica,sans-Serif" font-size="10.00">DayZPlayerInventory</text>
</a>
</g>
</g>
<!-- Node1&#45;&gt;Node2 -->
<g id="edge1_Node000001_Node000002" class="edge">
<title>Node1&#45;&gt;Node2</title>
<g id="a_edge1_Node000001_Node000002"><a xlink:title=" ">
<path fill="none" stroke="#8b1a1a" d="M140.87,-50.88C119.58,-41.3 92.01,-28.89 73.32,-20.48"/>
<polygon fill="#8b1a1a" stroke="#8b1a1a" points="139.41,-54.06 149.97,-54.97 142.28,-47.68 139.41,-54.06"/>
</a>
</g>
</g>
<!-- Node3 -->
<g id="Node000003" class="node">
<title>Node3</title>
<g id="a_Node000003"><a xlink:href="../../d0/d0c/class_deferred_hand_event.html" target="_top" xlink:title=" ">
<polygon fill="white" stroke="#666666" points="221.5,-20 123,-20 123,0 221.5,0 221.5,-20"/>
<text text-anchor="middle" x="172.25" y="-6.5" font-family="Helvetica,sans-Serif" font-size="10.00">DeferredHandEvent</text>
</a>
</g>
</g>
<!-- Node1&#45;&gt;Node3 -->
<g id="edge2_Node000001_Node000003" class="edge">
<title>Node1&#45;&gt;Node3</title>
<g id="a_edge2_Node000001_Node000003"><a xlink:title=" ">
<path fill="none" stroke="#8b1a1a" d="M172.25,-44.13C172.25,-35.9 172.25,-26.85 172.25,-20.3"/>
<polygon fill="#8b1a1a" stroke="#8b1a1a" points="168.75,-44.08 172.25,-54.08 175.75,-44.08 168.75,-44.08"/>
</a>
</g>
</g>
<!-- Node4 -->
<g id="Node000004" class="node">
<title>Node4</title>
<g id="a_Node000004"><a xlink:href="../../de/d06/class_deferred_swap_entities.html" target="_top" xlink:title=" ">
<polygon fill="white" stroke="#666666" points="348.75,-20 239.75,-20 239.75,0 348.75,0 348.75,-20"/>
<text text-anchor="middle" x="294.25" y="-6.5" font-family="Helvetica,sans-Serif" font-size="10.00">DeferredSwapEntities</text>
</a>
</g>
</g>
<!-- Node1&#45;&gt;Node4 -->
<g id="edge3_Node000001_Node000004" class="edge">
<title>Node1&#45;&gt;Node4</title>
<g id="a_edge3_Node000001_Node000004"><a xlink:title=" ">
<path fill="none" stroke="#8b1a1a" d="M203.86,-51.01C225.54,-41.41 253.74,-28.93 272.83,-20.48"/>
<polygon fill="#8b1a1a" stroke="#8b1a1a" points="202.61,-47.73 194.88,-54.98 205.45,-54.13 202.61,-47.73"/>
</a>
</g>
</g>
</g>
</svg>
</svg>

<style type='text/css'>
<![CDATA[
[data-mouse-over-selected='false'] { opacity: 0.7; }
[data-mouse-over-selected='true']  { opacity: 1.0; }
]]>
</style>
<script type="application/ecmascript"><![CDATA[
document.addEventListener('DOMContentLoaded', (event) => {
  highlightEdges();
  highlightAdjacentNodes();
});
]]></script>
</svg>
