<?xml version="1.0" encoding="UTF-8" standalone="no"?>
<!DOCTYPE svg PUBLIC "-//W3C//DTD SVG 1.1//EN"
 "http://www.w3.org/Graphics/SVG/1.1/DTD/svg11.dtd">
<!-- Generated by graphviz version 11.0.0 (20240428.1522)
 -->
<!-- Title: NotificationSystem Pages: 1 -->
<!--zoomable 518 -->

<svg id="main" version="1.1" xmlns="http://www.w3.org/2000/svg" xmlns:xlink="http://www.w3.org/1999/xlink" xml:space="preserve" onload="init(evt)">
<style type="text/css"><![CDATA[
.node, .edge {opacity: 0.7;}
.node.selected, .edge.selected {opacity: 1;}
.edge:hover path { stroke: red; }
.edge:hover polygon { stroke: red; fill: red; }
]]></style>

<defs>
  <circle id="rim" cx="0" cy="0" r="7"/>
  <circle id="rim2" cx="0" cy="0" r="3.5"/>
  <g id="zoomPlus">
    <use xlink:href="#rim" fill="#404040"><set attributeName="fill" to="#808080" begin="zoomplus.mouseover" end="zoomplus.mouseout"/></use>
    <path d="M-4,0h8M0,-4v8" fill="none" stroke="white" stroke-width="1.5" pointer-events="none"/>
  </g>
  <g id="zoomMin">
    <use xlink:href="#rim" fill="#404040"><set attributeName="fill" to="#808080" begin="zoomminus.mouseover" end="zoomminus.mouseout"/></use>
    <path d="M-4,0h8" fill="none" stroke="white" stroke-width="1.5" pointer-events="none"/>
  </g>
  <g id="arrowUp" transform="translate(30 24)">
    <use xlink:href="#rim"/>
    <path pointer-events="none" fill="none" stroke="white" stroke-width="1.5" d="M0,-3.0v7 M-2.5,-0.5L0,-3.0L2.5,-0.5"/>
  </g>
  <g id="arrowRight" transform="rotate(90) translate(36 -43)">
    <use xlink:href="#rim"/>
    <path pointer-events="none" fill="none" stroke="white" stroke-width="1.5" d="M0,-3.0v7 M-2.5,-0.5L0,-3.0L2.5,-0.5"/>
  </g>
  <g id="arrowDown" transform="rotate(180) translate(-30 -48)">
    <use xlink:href="#rim"/>
    <path pointer-events="none" fill="none" stroke="white" stroke-width="1.5" d="M0,-3.0v7 M-2.5,-0.5L0,-3.0L2.5,-0.5"/>
  </g>
  <g id="arrowLeft" transform="rotate(270) translate(-36 17)">
    <use xlink:href="#rim"/>
    <path pointer-events="none" fill="none" stroke="white" stroke-width="1.5" d="M0,-3.0v7 M-2.5,-0.5L0,-3.0L2.5,-0.5"/>
  </g>
  <g id="resetDef">
    <use xlink:href="#rim2" fill="#404040"><set attributeName="fill" to="#808080" begin="reset.mouseover" end="reset.mouseout"/></use>
  </g>
</defs>
<script type="application/ecmascript">
var viewWidth = 1331;
var viewHeight = 518;
var sectionId = 'dynsection-0';
</script>
<script type="application/ecmascript" xlink:href="../../svg.min.js"/>
<svg id="graph" class="graph">
<g id="viewport">
<title>NotificationSystem</title>
<!-- Node1 -->
<g id="Node000001" class="node">
<title>Node1</title>
<g id="a_Node000001"><a xlink:title=" ">
<polygon fill="#999999" stroke="#666666" points="1052.88,-20 955.12,-20 955.12,0 1052.88,0 1052.88,-20"/>
<text text-anchor="middle" x="1004" y="-6.5" font-family="Helvetica,sans-Serif" font-size="10.00">NotificationSystem</text>
</a>
</g>
</g>
<!-- Node1&#45;&gt;Node1 -->
<g id="edge6_Node000001_Node000001" class="edge">
<title>Node1&#45;&gt;Node1</title>
<g id="a_edge6_Node000001_Node000001"><a xlink:title=" ">
<path fill="none" stroke="#9a32cd" stroke-dasharray="5,2" d="M1064.36,-16.2C1068.42,-14.77 1070.88,-12.7 1070.88,-10 1070.88,-5.33 1063.52,-2.55 1053.28,-1.68"/>
<polygon fill="#9a32cd" stroke="#9a32cd" points="1063.93,-12.72 1054.77,-18.04 1065.25,-19.59 1063.93,-12.72"/>
</a>
</g>
<text text-anchor="middle" x="1097.5" y="-6.5" font-family="Helvetica,sans-Serif" font-size="10.00" fill="grey"> m_Instance</text>
</g>
<!-- Node2 -->
<g id="Node000002" class="node">
<title>Node2</title>
<g id="a_Node000002"><a xlink:href="../../db/d06/class_param3.html" target="_top" xlink:title=" ">
<polygon fill="white" stroke="#666666" points="872.88,-508 823.12,-508 823.12,-488 872.88,-488 872.88,-508"/>
<text text-anchor="middle" x="848" y="-494.5" font-family="Helvetica,sans-Serif" font-size="10.00">Param3</text>
</a>
</g>
</g>
<!-- Node2&#45;&gt;Node1 -->
<g id="edge1_Node000001_Node000002" class="edge">
<title>Node2&#45;&gt;Node1</title>
<g id="a_edge1_Node000001_Node000002"><a xlink:title=" ">
<path fill="none" stroke="#9a32cd" stroke-dasharray="5,2" d="M881.03,-482.79C926.82,-460.59 1004,-413.09 1004,-345 1004,-345 1004,-345 1004,-109 1004,-76.5 1004,-37.95 1004,-20.46"/>
<polygon fill="#9a32cd" stroke="#9a32cd" points="879.63,-479.58 872.05,-486.99 882.6,-485.92 879.63,-479.58"/>
</a>
</g>
<text text-anchor="middle" x="1071.12" y="-190.5" font-family="Helvetica,sans-Serif" font-size="10.00" fill="grey"> DEFAULT_TIME_DISPLAYED</text>
<text text-anchor="middle" x="1071.12" y="-178.5" font-family="Helvetica,sans-Serif" font-size="10.00" fill="grey">MAX_NOTIFICATIONS</text>
</g>
<!-- Node5 -->
<g id="Node000005" class="node">
<title>Node5</title>
<g id="a_Node000005"><a xlink:href="../../d2/d01/classarray.html" target="_top" xlink:title=" ">
<polygon fill="white" stroke="#666666" points="681.12,-126 536.88,-126 536.88,-94 681.12,-94 681.12,-126"/>
<text text-anchor="start" x="544.88" y="-112.5" font-family="Helvetica,sans-Serif" font-size="10.00">array&lt; ref NotificationRuntime</text>
<text text-anchor="middle" x="609" y="-100.5" font-family="Helvetica,sans-Serif" font-size="10.00">Data &gt;</text>
</a>
</g>
</g>
<!-- Node2&#45;&gt;Node5 -->
<g id="edge9_Node000005_Node000002" class="edge">
<title>Node2&#45;&gt;Node5</title>
<g id="a_edge9_Node000005_Node000002"><a xlink:title=" ">
<path fill="none" stroke="#9a32cd" stroke-dasharray="5,2" d="M862.58,-479.1C889.13,-444.17 939.67,-365.36 906,-308 897.69,-293.84 887.24,-299.36 873.75,-290 792.19,-233.4 788.82,-195.91 703,-146 689.75,-138.3 674.51,-131.75 660.2,-126.48"/>
<polygon fill="#9a32cd" stroke="#9a32cd" points="860.16,-476.51 856.75,-486.54 865.67,-480.83 860.16,-476.51"/>
</a>
</g>
<text text-anchor="middle" x="932.12" y="-280.5" font-family="Helvetica,sans-Serif" font-size="10.00" fill="grey"> NO_SORTING</text>
<text text-anchor="middle" x="932.12" y="-268.5" font-family="Helvetica,sans-Serif" font-size="10.00" fill="grey">geomLevel</text>
<text text-anchor="middle" x="932.12" y="-256.5" font-family="Helvetica,sans-Serif" font-size="10.00" fill="grey">hierLevel</text>
<text text-anchor="start" x="874" y="-244.5" font-family="Helvetica,sans-Serif" font-size="10.00" fill="grey">m_CurrentSettingAlternate</text>
<text text-anchor="middle" x="932.12" y="-232.5" font-family="Helvetica,sans-Serif" font-size="10.00" fill="grey">KeyIndex</text>
<text text-anchor="middle" x="932.12" y="-220.5" font-family="Helvetica,sans-Serif" font-size="10.00" fill="grey">m_CurrentSettingKeyIndex</text>
</g>
<!-- Node7 -->
<g id="Node000007" class="node">
<title>Node7</title>
<g id="a_Node000007"><a xlink:href="../../d2/d01/classarray.html" target="_top" xlink:title="Result for an object found in CGame.IsBoxCollidingGeometryProxy.">
<polygon fill="white" stroke="#666666" points="470.88,-354 433.12,-354 433.12,-334 470.88,-334 470.88,-354"/>
<text text-anchor="middle" x="452" y="-340.5" font-family="Helvetica,sans-Serif" font-size="10.00">array</text>
</a>
</g>
</g>
<!-- Node2&#45;&gt;Node7 -->
<g id="edge12_Node000007_Node000002" class="edge">
<title>Node2&#45;&gt;Node7</title>
<g id="a_edge12_Node000007_Node000002"><a xlink:title=" ">
<path fill="none" stroke="#9a32cd" stroke-dasharray="5,2" d="M811.46,-496.88C770.05,-495.68 701.12,-490.39 645.75,-470 635.8,-466.33 509.46,-383.02 466.32,-354.48"/>
<polygon fill="#9a32cd" stroke="#9a32cd" points="811.29,-500.38 821.37,-497.1 811.45,-493.38 811.29,-500.38"/>
</a>
</g>
<text text-anchor="middle" x="704.12" y="-460.5" font-family="Helvetica,sans-Serif" font-size="10.00" fill="grey"> NO_SORTING</text>
<text text-anchor="middle" x="704.12" y="-448.5" font-family="Helvetica,sans-Serif" font-size="10.00" fill="grey">geomLevel</text>
<text text-anchor="middle" x="704.12" y="-436.5" font-family="Helvetica,sans-Serif" font-size="10.00" fill="grey">hierLevel</text>
<text text-anchor="start" x="646" y="-424.5" font-family="Helvetica,sans-Serif" font-size="10.00" fill="grey">m_CurrentSettingAlternate</text>
<text text-anchor="middle" x="704.12" y="-412.5" font-family="Helvetica,sans-Serif" font-size="10.00" fill="grey">KeyIndex</text>
<text text-anchor="middle" x="704.12" y="-400.5" font-family="Helvetica,sans-Serif" font-size="10.00" fill="grey">m_CurrentSettingKeyIndex</text>
</g>
<!-- Node10 -->
<g id="Node000010" class="node">
<title>Node10</title>
<g id="a_Node000010"><a xlink:href="../../d2/d01/classarray.html" target="_top" xlink:title=" ">
<polygon fill="white" stroke="#666666" points="549.25,-198 462.75,-198 462.75,-178 549.25,-178 549.25,-198"/>
<text text-anchor="middle" x="506" y="-184.5" font-family="Helvetica,sans-Serif" font-size="10.00">array&lt; Widget &gt;</text>
</a>
</g>
</g>
<!-- Node2&#45;&gt;Node10 -->
<g id="edge19_Node000010_Node000002" class="edge">
<title>Node2&#45;&gt;Node10</title>
<g id="a_edge19_Node000010_Node000002"><a xlink:title=" ">
<path fill="none" stroke="#9a32cd" stroke-dasharray="5,2" d="M836.42,-478.04C823.16,-455.48 801.73,-416.29 789.75,-380 766.83,-310.56 814.3,-268.07 761,-218 745.92,-203.83 618.47,-194.96 549.66,-191.15"/>
<polygon fill="#9a32cd" stroke="#9a32cd" points="833.28,-479.61 841.42,-486.39 839.29,-476.01 833.28,-479.61"/>
</a>
</g>
<text text-anchor="middle" x="848.12" y="-370.5" font-family="Helvetica,sans-Serif" font-size="10.00" fill="grey"> NO_SORTING</text>
<text text-anchor="middle" x="848.12" y="-358.5" font-family="Helvetica,sans-Serif" font-size="10.00" fill="grey">geomLevel</text>
<text text-anchor="middle" x="848.12" y="-346.5" font-family="Helvetica,sans-Serif" font-size="10.00" fill="grey">hierLevel</text>
<text text-anchor="start" x="790" y="-334.5" font-family="Helvetica,sans-Serif" font-size="10.00" fill="grey">m_CurrentSettingAlternate</text>
<text text-anchor="middle" x="848.12" y="-322.5" font-family="Helvetica,sans-Serif" font-size="10.00" fill="grey">KeyIndex</text>
<text text-anchor="middle" x="848.12" y="-310.5" font-family="Helvetica,sans-Serif" font-size="10.00" fill="grey">m_CurrentSettingKeyIndex</text>
</g>
<!-- Node3 -->
<g id="Node000003" class="node">
<title>Node3</title>
<g id="a_Node000003"><a xlink:href="../../d4/d03/classfloat.html" target="_top" xlink:title=" ">
<polygon fill="white" stroke="#666666" points="1066,-120 1032,-120 1032,-100 1066,-100 1066,-120"/>
<text text-anchor="middle" x="1049" y="-106.5" font-family="Helvetica,sans-Serif" font-size="10.00">float</text>
</a>
</g>
</g>
<!-- Node3&#45;&gt;Node1 -->
<g id="edge2_Node000001_Node000003" class="edge">
<title>Node3&#45;&gt;Node1</title>
<g id="a_edge2_Node000001_Node000003"><a xlink:title=" ">
<path fill="none" stroke="#9a32cd" stroke-dasharray="5,2" d="M1039.94,-89.28C1030.3,-68.28 1015.46,-35.95 1008.24,-20.23"/>
<polygon fill="#9a32cd" stroke="#9a32cd" points="1036.7,-90.6 1044.05,-98.23 1043.06,-87.68 1036.7,-90.6"/>
</a>
</g>
<text text-anchor="middle" x="1108.25" y="-64.5" font-family="Helvetica,sans-Serif" font-size="10.00" fill="grey"> NOTIFICATION_FADE_TIME</text>
<text text-anchor="middle" x="1108.25" y="-52.5" font-family="Helvetica,sans-Serif" font-size="10.00" fill="grey">UPDATE_INTERVAL_THRESHOLD</text>
<text text-anchor="middle" x="1108.25" y="-40.5" font-family="Helvetica,sans-Serif" font-size="10.00" fill="grey">m_TimeElapsed</text>
</g>
<!-- Node3&#45;&gt;Node3 -->
<g id="edge3_Node000003_Node000003" class="edge">
<title>Node3&#45;&gt;Node3</title>
<g id="a_edge3_Node000003_Node000003"><a xlink:title=" ">
<path fill="none" stroke="#9a32cd" stroke-dasharray="5,2" d="M1077.67,-116.95C1081.47,-115.77 1084,-113.45 1084,-110 1084,-103.68 1075.56,-101.17 1066.29,-102.45"/>
<polygon fill="#9a32cd" stroke="#9a32cd" points="1077.6,-113.45 1067.8,-117.47 1077.97,-120.44 1077.6,-113.45"/>
</a>
</g>
<text text-anchor="middle" x="1106.12" y="-118.5" font-family="Helvetica,sans-Serif" font-size="10.00" fill="grey"> LOWEST</text>
<text text-anchor="middle" x="1106.12" y="-106.5" font-family="Helvetica,sans-Serif" font-size="10.00" fill="grey">MAX</text>
<text text-anchor="middle" x="1106.12" y="-94.5" font-family="Helvetica,sans-Serif" font-size="10.00" fill="grey">MIN</text>
</g>
<!-- Node4 -->
<g id="Node000004" class="node">
<title>Node4</title>
<g id="a_Node000004"><a xlink:href="../../d5/d02/classstring.html" target="_top" xlink:title=" ">
<polygon fill="white" stroke="#666666" points="146,-508 106,-508 106,-488 146,-488 146,-508"/>
<text text-anchor="middle" x="126" y="-494.5" font-family="Helvetica,sans-Serif" font-size="10.00">string</text>
</a>
</g>
</g>
<!-- Node4&#45;&gt;Node1 -->
<g id="edge4_Node000001_Node000004" class="edge">
<title>Node4&#45;&gt;Node1</title>
<g id="a_edge4_Node000001_Node000004"><a xlink:title=" ">
<path fill="none" stroke="#9a32cd" stroke-dasharray="5,2" d="M99.88,-481.47C62.98,-457.33 0,-407.04 0,-345 0,-345 0,-345 0,-109 0,-11.91 753.32,-9.49 954.9,-10.58"/>
<polygon fill="#9a32cd" stroke="#9a32cd" points="97.93,-484.38 108.25,-486.77 101.67,-478.46 97.93,-484.38"/>
</a>
</g>
<text text-anchor="middle" x="42.38" y="-184.5" font-family="Helvetica,sans-Serif" font-size="10.00" fill="grey"> JSON_FILE_PATH</text>
</g>
<!-- Node4&#45;&gt;Node4 -->
<g id="edge5_Node000004_Node000004" class="edge">
<title>Node4&#45;&gt;Node4</title>
<g id="a_edge5_Node000004_Node000004"><a xlink:title=" ">
<path fill="none" stroke="#9a32cd" stroke-dasharray="5,2" d="M151.77,-509.91C158.72,-509.28 164,-505.31 164,-498 164,-487.12 152.3,-483.64 140.82,-487.55"/>
<polygon fill="#9a32cd" stroke="#9a32cd" points="152.7,-506.5 142.32,-508.65 151.77,-513.44 152.7,-506.5"/>
</a>
</g>
<text text-anchor="middle" x="179.75" y="-494.5" font-family="Helvetica,sans-Serif" font-size="10.00" fill="grey"> Empty</text>
</g>
<!-- Node4&#45;&gt;Node5 -->
<g id="edge26_Node000005_Node000004" class="edge">
<title>Node4&#45;&gt;Node5</title>
<g id="a_edge26_Node000005_Node000004"><a xlink:title=" ">
<path fill="none" stroke="#9a32cd" stroke-dasharray="5,2" d="M124.37,-476.24C121.56,-425.84 121.36,-295.44 185.75,-218 230.15,-164.6 427.86,-132.82 536.64,-119.08"/>
<polygon fill="#9a32cd" stroke="#9a32cd" points="120.86,-476.25 125.02,-485.99 127.84,-475.78 120.86,-476.25"/>
</a>
</g>
<text text-anchor="middle" x="203.62" y="-250.5" font-family="Helvetica,sans-Serif" font-size="10.00" fill="grey"> m_Test</text>
</g>
<!-- Node4&#45;&gt;Node7 -->
<g id="edge15_Node000007_Node000004" class="edge">
<title>Node4&#45;&gt;Node7</title>
<g id="a_edge15_Node000007_Node000004"><a xlink:title=" ">
<path fill="none" stroke="#9a32cd" stroke-dasharray="5,2" d="M153.06,-481.98C159.65,-478.18 166.63,-474.03 173,-470 220.43,-439.99 224.35,-418.1 276.75,-398 336.25,-375.18 362.19,-408.88 419,-380 430.46,-374.17 440.08,-362.69 445.92,-354.47"/>
<polygon fill="#9a32cd" stroke="#9a32cd" points="151.46,-478.86 144.49,-486.85 154.92,-484.95 151.46,-478.86"/>
</a>
</g>
<text text-anchor="middle" x="294.62" y="-430.5" font-family="Helvetica,sans-Serif" font-size="10.00" fill="grey"> m_Test</text>
</g>
<!-- Node4&#45;&gt;Node10 -->
<g id="edge22_Node000010_Node000004" class="edge">
<title>Node4&#45;&gt;Node10</title>
<g id="a_edge22_Node000010_Node000004"><a xlink:title=" ">
<path fill="none" stroke="#9a32cd" stroke-dasharray="5,2" d="M135.47,-477.56C164.41,-419.03 253.03,-246.79 307,-218 366.63,-186.19 391.41,-211.57 458,-200 460.7,-199.53 463.47,-199.01 466.25,-198.45"/>
<polygon fill="#9a32cd" stroke="#9a32cd" points="132.44,-475.79 131.17,-486.31 138.72,-478.88 132.44,-475.79"/>
</a>
</g>
<text text-anchor="middle" x="246.62" y="-340.5" font-family="Helvetica,sans-Serif" font-size="10.00" fill="grey"> m_Test</text>
</g>
<!-- Node5&#45;&gt;Node1 -->
<g id="edge7_Node000001_Node000005" class="edge">
<title>Node5&#45;&gt;Node1</title>
<g id="a_edge7_Node000001_Node000005"><a xlink:title=" ">
<path fill="none" stroke="#9a32cd" stroke-dasharray="5,2" d="M682.14,-90.85C766.02,-70.04 900.38,-36.71 965.77,-20.49"/>
<polygon fill="#9a32cd" stroke="#9a32cd" points="681.49,-87.41 672.62,-93.22 683.17,-94.2 681.49,-87.41"/>
</a>
</g>
<text text-anchor="middle" x="924.88" y="-58.5" font-family="Helvetica,sans-Serif" font-size="10.00" fill="grey"> m_DeferredArray</text>
<text text-anchor="middle" x="924.88" y="-46.5" font-family="Helvetica,sans-Serif" font-size="10.00" fill="grey">m_TimeArray</text>
</g>
<!-- Node6 -->
<g id="Node000006" class="node">
<title>Node6</title>
<g id="a_Node000006"><a xlink:href="../../d8/d03/class_object.html" target="_top" xlink:title=" ">
<polygon fill="white" stroke="#666666" points="563.25,-508 518.75,-508 518.75,-488 563.25,-488 563.25,-508"/>
<text text-anchor="middle" x="541" y="-494.5" font-family="Helvetica,sans-Serif" font-size="10.00">Object</text>
</a>
</g>
</g>
<!-- Node6&#45;&gt;Node5 -->
<g id="edge8_Node000005_Node000006" class="edge">
<title>Node6&#45;&gt;Node5</title>
<g id="a_edge8_Node000005_Node000006"><a xlink:title=" ">
<path fill="none" stroke="#9a32cd" stroke-dasharray="5,2" d="M575.17,-496.79C620.87,-495.69 698.23,-490.73 716,-470 810.2,-360.16 780.28,-254.02 684,-146 676.73,-137.85 667.17,-131.45 657.32,-126.49"/>
<polygon fill="#9a32cd" stroke="#9a32cd" points="575.18,-493.28 565.25,-496.97 575.31,-500.28 575.18,-493.28"/>
</a>
</g>
<text text-anchor="middle" x="782.5" y="-256.5" font-family="Helvetica,sans-Serif" font-size="10.00" fill="grey"> obj</text>
<text text-anchor="middle" x="782.5" y="-244.5" font-family="Helvetica,sans-Serif" font-size="10.00" fill="grey">parent</text>
</g>
<!-- Node6&#45;&gt;Node7 -->
<g id="edge11_Node000007_Node000006" class="edge">
<title>Node6&#45;&gt;Node7</title>
<g id="a_edge11_Node000007_Node000006"><a xlink:title=" ">
<path fill="none" stroke="#9a32cd" stroke-dasharray="5,2" d="M511.99,-481.57C507.52,-478.22 503.3,-474.35 500,-470 479.7,-443.23 489.3,-429.26 477,-398 470.81,-382.29 462.14,-364.67 456.8,-354.22"/>
<polygon fill="#9a32cd" stroke="#9a32cd" points="509.77,-484.3 520.05,-486.88 513.63,-478.46 509.77,-484.3"/>
</a>
</g>
<text text-anchor="middle" x="513.5" y="-436.5" font-family="Helvetica,sans-Serif" font-size="10.00" fill="grey"> obj</text>
<text text-anchor="middle" x="513.5" y="-424.5" font-family="Helvetica,sans-Serif" font-size="10.00" fill="grey">parent</text>
</g>
<!-- Node6&#45;&gt;Node10 -->
<g id="edge18_Node000010_Node000006" class="edge">
<title>Node6&#45;&gt;Node10</title>
<g id="a_edge18_Node000010_Node000006"><a xlink:title=" ">
<path fill="none" stroke="#9a32cd" stroke-dasharray="5,2" d="M544.2,-476.29C549.78,-439.1 561.04,-358.49 565,-290 566.85,-258.05 581.92,-245.16 565,-218 559.45,-209.09 550.27,-202.83 540.78,-198.48"/>
<polygon fill="#9a32cd" stroke="#9a32cd" points="540.76,-475.63 542.72,-486.05 547.68,-476.69 540.76,-475.63"/>
</a>
</g>
<text text-anchor="middle" x="577.5" y="-346.5" font-family="Helvetica,sans-Serif" font-size="10.00" fill="grey"> obj</text>
<text text-anchor="middle" x="577.5" y="-334.5" font-family="Helvetica,sans-Serif" font-size="10.00" fill="grey">parent</text>
</g>
<!-- Node7&#45;&gt;Node5 -->
<g id="edge10_Node000005_Node000007" class="edge">
<title>Node7&#45;&gt;Node5</title>
<g id="a_edge10_Node000005_Node000007"><a xlink:title=" ">
<path fill="none" stroke="#9a32cd" stroke-dasharray="5,2" d="M439.75,-324.31C430.88,-310.61 420.24,-293.77 419,-290 403.16,-241.77 382.26,-217.14 412,-176 440.28,-136.89 492.93,-120.92 536.69,-114.57"/>
<polygon fill="#9a32cd" stroke="#9a32cd" points="436.79,-326.17 445.18,-332.64 442.65,-322.35 436.79,-326.17"/>
</a>
</g>
<text text-anchor="middle" x="433" y="-184.5" font-family="Helvetica,sans-Serif" font-size="10.00" fill="grey"> proxyInfo</text>
</g>
<!-- Node7&#45;&gt;Node7 -->
<g id="edge13_Node000007_Node000007" class="edge">
<title>Node7&#45;&gt;Node7</title>
<g id="a_edge13_Node000007_Node000007"><a xlink:title=" ">
<path fill="none" stroke="#9a32cd" stroke-dasharray="5,2" d="M469.83,-360.07C479.75,-363.07 488.88,-357.71 488.88,-344 488.88,-325.72 472.65,-322.29 459.97,-333.72"/>
<polygon fill="#9a32cd" stroke="#9a32cd" points="471.67,-357.09 461.27,-355.05 468.13,-363.13 471.67,-357.09"/>
</a>
</g>
<text text-anchor="middle" x="509.88" y="-340.5" font-family="Helvetica,sans-Serif" font-size="10.00" fill="grey"> proxyInfo</text>
</g>
<!-- Node7&#45;&gt;Node10 -->
<g id="edge20_Node000010_Node000007" class="edge">
<title>Node7&#45;&gt;Node10</title>
<g id="a_edge20_Node000010_Node000007"><a xlink:title=" ">
<path fill="none" stroke="#9a32cd" stroke-dasharray="5,2" d="M441.23,-323.36C428.41,-297.04 411.31,-249.96 433,-218 439.89,-207.84 450.96,-201.25 462.42,-196.96"/>
<polygon fill="#9a32cd" stroke="#9a32cd" points="438.1,-324.93 445.8,-332.21 444.32,-321.72 438.1,-324.93"/>
</a>
</g>
<text text-anchor="middle" x="454" y="-250.5" font-family="Helvetica,sans-Serif" font-size="10.00" fill="grey"> proxyInfo</text>
</g>
<!-- Node8 -->
<g id="Node000008" class="node">
<title>Node8</title>
<g id="a_Node000008"><a xlink:href="../../d4/d04/class_class.html" target="_top" xlink:title="Super root of all classes in Enforce script.">
<polygon fill="white" stroke="#666666" points="267.38,-508 226.62,-508 226.62,-488 267.38,-488 267.38,-508"/>
<text text-anchor="middle" x="247" y="-494.5" font-family="Helvetica,sans-Serif" font-size="10.00">Class</text>
</a>
</g>
</g>
<!-- Node8&#45;&gt;Node5 -->
<g id="edge25_Node000005_Node000008" class="edge">
<title>Node8&#45;&gt;Node5</title>
<g id="a_edge25_Node000005_Node000008"><a xlink:title=" ">
<path fill="none" stroke="#9a32cd" stroke-dasharray="5,2" d="M240.6,-476.94C226.2,-427.62 196.75,-298.6 253.75,-218 286.52,-171.65 442.56,-138.41 536.59,-122.19"/>
<polygon fill="#9a32cd" stroke="#9a32cd" points="237.17,-477.69 243.44,-486.24 243.87,-475.65 237.17,-477.69"/>
</a>
</g>
<text text-anchor="middle" x="280.62" y="-250.5" font-family="Helvetica,sans-Serif" font-size="10.00" fill="grey"> m_Instance</text>
</g>
<!-- Node8&#45;&gt;Node7 -->
<g id="edge14_Node000007_Node000008" class="edge">
<title>Node8&#45;&gt;Node7</title>
<g id="a_edge14_Node000007_Node000008"><a xlink:title=" ">
<path fill="none" stroke="#9a32cd" stroke-dasharray="5,2" d="M278.61,-488.1C290.92,-483.77 304.75,-477.79 316,-470 351.38,-445.5 346.21,-423.67 380.75,-398 395.83,-386.79 403.79,-391.03 419,-380 429.14,-372.65 438.73,-361.89 444.93,-354.25"/>
<polygon fill="#9a32cd" stroke="#9a32cd" points="277.71,-484.71 269.29,-491.15 279.88,-491.37 277.71,-484.71"/>
</a>
</g>
<text text-anchor="middle" x="407.62" y="-430.5" font-family="Helvetica,sans-Serif" font-size="10.00" fill="grey"> m_Instance</text>
</g>
<!-- Node8&#45;&gt;Node10 -->
<g id="edge21_Node000010_Node000008" class="edge">
<title>Node8&#45;&gt;Node10</title>
<g id="a_edge21_Node000010_Node000008"><a xlink:title=" ">
<path fill="none" stroke="#9a32cd" stroke-dasharray="5,2" d="M247.17,-476.23C247.96,-455.69 250.92,-423.71 261,-398 296.56,-307.33 305.64,-273.03 386,-218 387.71,-216.83 431.34,-206.44 465.5,-198.43"/>
<polygon fill="#9a32cd" stroke="#9a32cd" points="243.67,-476.04 246.94,-486.12 250.67,-476.2 243.67,-476.04"/>
</a>
</g>
<text text-anchor="middle" x="325.62" y="-340.5" font-family="Helvetica,sans-Serif" font-size="10.00" fill="grey"> m_Instance</text>
</g>
<!-- Node9 -->
<g id="Node000009" class="node">
<title>Node9</title>
<g id="a_Node000009"><a xlink:href="../../dd/d0a/class_widget.html" target="_top" xlink:title=" ">
<polygon fill="white" stroke="#666666" points="462.38,-508 415.62,-508 415.62,-488 462.38,-488 462.38,-508"/>
<text text-anchor="middle" x="439" y="-494.5" font-family="Helvetica,sans-Serif" font-size="10.00">Widget</text>
</a>
</g>
</g>
<!-- Node9&#45;&gt;Node5 -->
<g id="edge27_Node000005_Node000009" class="edge">
<title>Node9&#45;&gt;Node5</title>
<g id="a_edge27_Node000005_Node000009"><a xlink:title=" ">
<path fill="none" stroke="#9a32cd" stroke-dasharray="5,2" d="M474.01,-492.37C485.47,-490.91 498.27,-489.33 510,-488 530.08,-485.73 677.43,-484.98 691,-470 730.34,-426.56 686.94,-336.2 639,-176 634.93,-162.39 633.85,-158.94 628,-146 625.04,-139.45 621.35,-132.44 618.01,-126.43"/>
<polygon fill="#9a32cd" stroke="#9a32cd" points="473.62,-488.89 464.15,-493.65 474.51,-495.84 473.62,-488.89"/>
</a>
</g>
<text text-anchor="middle" x="693.38" y="-250.5" font-family="Helvetica,sans-Serif" font-size="10.00" fill="grey"> m_Root</text>
</g>
<!-- Node9&#45;&gt;Node7 -->
<g id="edge16_Node000007_Node000009" class="edge">
<title>Node9&#45;&gt;Node7</title>
<g id="a_edge16_Node000007_Node000009"><a xlink:title=" ">
<path fill="none" stroke="#9a32cd" stroke-dasharray="5,2" d="M438.03,-476.25C437.38,-456.17 437.13,-424.89 440.25,-398 442.05,-382.46 446.46,-364.79 449.33,-354.28"/>
<polygon fill="#9a32cd" stroke="#9a32cd" points="434.53,-476.31 438.42,-486.17 441.52,-476.03 434.53,-476.31"/>
</a>
</g>
<text text-anchor="middle" x="459.38" y="-430.5" font-family="Helvetica,sans-Serif" font-size="10.00" fill="grey"> m_Root</text>
</g>
<!-- Node9&#45;&gt;Node10 -->
<g id="edge23_Node000010_Node000009" class="edge">
<title>Node9&#45;&gt;Node10</title>
<g id="a_edge23_Node000010_Node000009"><a xlink:title=" ">
<path fill="none" stroke="#9a32cd" stroke-dasharray="5,2" d="M429.16,-477.44C415.33,-449.55 391.39,-399.58 387.25,-380 380.64,-348.69 381.85,-339.54 387.25,-308 394.41,-266.19 388.75,-247.73 419,-218 426.15,-210.97 447.34,-203.83 467.01,-198.4"/>
<polygon fill="#9a32cd" stroke="#9a32cd" points="425.94,-478.83 433.54,-486.22 432.2,-475.71 425.94,-478.83"/>
</a>
</g>
<text text-anchor="middle" x="406.38" y="-340.5" font-family="Helvetica,sans-Serif" font-size="10.00" fill="grey"> m_Root</text>
</g>
<!-- Node10&#45;&gt;Node5 -->
<g id="edge28_Node000005_Node000010" class="edge">
<title>Node10&#45;&gt;Node5</title>
<g id="a_edge28_Node000005_Node000010"><a xlink:title=" ">
<path fill="none" stroke="#9a32cd" stroke-dasharray="5,2" d="M527.67,-171.01C545.45,-157.89 570.47,-139.43 588.05,-126.46"/>
<polygon fill="#9a32cd" stroke="#9a32cd" points="525.82,-168.03 519.85,-176.78 529.97,-173.66 525.82,-168.03"/>
</a>
</g>
<text text-anchor="middle" x="592.5" y="-148.5" font-family="Helvetica,sans-Serif" font-size="10.00" fill="grey"> m_Subgroups</text>
</g>
<!-- Node10&#45;&gt;Node7 -->
<g id="edge17_Node000007_Node000010" class="edge">
<title>Node10&#45;&gt;Node7</title>
<g id="a_edge17_Node000007_Node000010"><a xlink:title=" ">
<path fill="none" stroke="#9a32cd" stroke-dasharray="5,2" d="M501.83,-209.58C497.33,-230.28 489.39,-262.91 479,-290 472.94,-305.81 463.56,-323.12 457.61,-333.51"/>
<polygon fill="#9a32cd" stroke="#9a32cd" points="505.24,-210.38 503.87,-199.88 498.39,-208.95 505.24,-210.38"/>
</a>
</g>
<text text-anchor="middle" x="531.5" y="-250.5" font-family="Helvetica,sans-Serif" font-size="10.00" fill="grey"> m_Subgroups</text>
</g>
<!-- Node10&#45;&gt;Node10 -->
<g id="edge24_Node000010_Node000010" class="edge">
<title>Node10&#45;&gt;Node10</title>
<g id="a_edge24_Node000010_Node000010"><a xlink:title=" ">
<path fill="none" stroke="#9a32cd" stroke-dasharray="5,2" d="M560.63,-193.04C564.73,-191.92 567.25,-190.24 567.25,-188 567.25,-184.13 559.71,-181.93 549.49,-181.38"/>
<polygon fill="#9a32cd" stroke="#9a32cd" points="560.4,-189.54 550.99,-194.4 561.38,-196.47 560.4,-189.54"/>
</a>
</g>
<text text-anchor="middle" x="598.75" y="-184.5" font-family="Helvetica,sans-Serif" font-size="10.00" fill="grey"> m_Subgroups</text>
</g>
<!-- Node11 -->
<g id="Node000011" class="node">
<title>Node11</title>
<g id="a_Node000011"><a xlink:href="../../d4/d0d/class_script_invoker.html" target="_top" xlink:title="ScriptInvoker Class provide list of callbacks &#160;&#160;usage:">
<polygon fill="white" stroke="#666666" points="1250.75,-120 1179.25,-120 1179.25,-100 1250.75,-100 1250.75,-120"/>
<text text-anchor="middle" x="1215" y="-106.5" font-family="Helvetica,sans-Serif" font-size="10.00">ScriptInvoker</text>
</a>
</g>
</g>
<!-- Node11&#45;&gt;Node1 -->
<g id="edge29_Node000001_Node000011" class="edge">
<title>Node11&#45;&gt;Node1</title>
<g id="a_edge29_Node000001_Node000011"><a xlink:title=" ">
<path fill="none" stroke="#9a32cd" stroke-dasharray="5,2" d="M1213.47,-88.9C1211.11,-72.63 1205.12,-50.43 1190,-38 1169.65,-21.26 1100.95,-14.9 1053,-12.48"/>
<polygon fill="#9a32cd" stroke="#9a32cd" points="1209.94,-88.87 1214.5,-98.43 1216.9,-88.11 1209.94,-88.87"/>
</a>
</g>
<text text-anchor="middle" x="1266" y="-58.5" font-family="Helvetica,sans-Serif" font-size="10.00" fill="grey"> m_OnNotificationAdded</text>
<text text-anchor="middle" x="1266" y="-46.5" font-family="Helvetica,sans-Serif" font-size="10.00" fill="grey">m_OnNotificationRemoved</text>
</g>
</g>
</svg>

<g id="navigator" transform="translate(0 0)" fill="#404254">
  <rect fill="#f2f5e9" fill-opacity="0.5" stroke="#606060" stroke-width=".5" x="0" y="0" width="60" height="60"/>
  <use id="zoomplus" xlink:href="#zoomPlus" x="17" y="9" onmousedown="handleZoom(evt,'in')"/>
  <use id="zoomminus" xlink:href="#zoomMin" x="42" y="9" onmousedown="handleZoom(evt,'out')"/>
  <use id="reset" xlink:href="#resetDef" x="30" y="36" onmousedown="handleReset()"/>
   <use id="arrowup" xlink:href="#arrowUp" x="0" y="0" onmousedown="handlePan(0,-1)"/>
  <use id="arrowright" xlink:href="#arrowRight" x="0" y="0" onmousedown="handlePan(1,0)"/>
  <use id="arrowdown" xlink:href="#arrowDown" x="0" y="0" onmousedown="handlePan(0,1)"/>
  <use id="arrowleft" xlink:href="#arrowLeft" x="0" y="0" onmousedown="handlePan(-1,0)"/>
</g>
<svg viewBox="0 0 15 15" width="100%" height="30px" preserveAspectRatio="xMaxYMin meet">
 <g id="arrow_out" transform="scale(0.3 0.3)">
  <a xlink:href="class_notification_system__coll__graph_org.svg" target="_base">
   <rect id="button" ry="5" rx="5" y="6" x="6" height="38" width="38"
        fill="#f2f5e9" fill-opacity="0.5" stroke="#606060" stroke-width="1.0"/>
   <path id="arrow"
     d="M 11.500037,31.436501 C 11.940474,20.09759 22.043105,11.32322 32.158766,21.979434 L 37.068811,17.246167 C 37.068811,17.246167 37.088388,32 37.088388,32 L 22.160133,31.978069 C 22.160133,31.978069 26.997745,27.140456 26.997745,27.140456 C 18.528582,18.264221 13.291696,25.230495 11.500037,31.436501 z"
     style="fill:#404040;"/>
  </a>
 </g>
</svg>

<style type='text/css'>
<![CDATA[
[data-mouse-over-selected='false'] { opacity: 0.7; }
[data-mouse-over-selected='true']  { opacity: 1.0; }
]]>
</style>
<script type="application/ecmascript"><![CDATA[
document.addEventListener('DOMContentLoaded', (event) => {
  highlightEdges();
  highlightAdjacentNodes();
});
]]></script>
</svg>
