<?xml version="1.0" encoding="UTF-8" standalone="no"?>
<!DOCTYPE svg PUBLIC "-//W3C//DTD SVG 1.1//EN"
 "http://www.w3.org/Graphics/SVG/1.1/DTD/svg11.dtd">
<!-- Generated by graphviz version 11.0.0 (20240428.1522)
 -->
<!-- Title: ExternalControlledActionInput Pages: 1 -->
<svg width="149pt" height="264pt"
 viewBox="0.00 0.00 148.50 264.00" xmlns="http://www.w3.org/2000/svg" xmlns:xlink="http://www.w3.org/1999/xlink">

<svg id="main" version="1.1" xmlns="http://www.w3.org/2000/svg" xmlns:xlink="http://www.w3.org/1999/xlink" xml:space="preserve" onload="init(evt)">
<style type="text/css"><![CDATA[
.node, .edge {opacity: 0.7;}
.node.selected, .edge.selected {opacity: 1;}
.edge:hover path { stroke: red; }
.edge:hover polygon { stroke: red; fill: red; }
]]></style>
<script type="application/ecmascript" xlink:href="../../svg.min.js"/>
<svg id="graph" class="graph">
<g id="graph0" class="graph" transform="scale(1 1) rotate(0) translate(4 260)">
<title>ExternalControlledActionInput</title>
<!-- Node1 -->
<g id="Node000001" class="node">
<title>Node1</title>
<g id="a_Node000001"><a xlink:title=" ">
<polygon fill="#999999" stroke="#666666" points="131.88,-88 8.62,-88 8.62,-56 131.88,-56 131.88,-88"/>
<text text-anchor="start" x="16.62" y="-74.5" font-family="Helvetica,sans-Serif" font-size="10.00">ExternalControlledAction</text>
<text text-anchor="middle" x="70.25" y="-62.5" font-family="Helvetica,sans-Serif" font-size="10.00">Input</text>
</a>
</g>
</g>
<!-- Node5 -->
<g id="Node000005" class="node">
<title>Node5</title>
<g id="a_Node000005"><a xlink:href="../../d8/d02/class_quicka_bar_action_input.html" target="_top" xlink:title=" ">
<polygon fill="white" stroke="#666666" points="125.5,-20 15,-20 15,0 125.5,0 125.5,-20"/>
<text text-anchor="middle" x="70.25" y="-6.5" font-family="Helvetica,sans-Serif" font-size="10.00">QuickaBarActionInput</text>
</a>
</g>
</g>
<!-- Node1&#45;&gt;Node5 -->
<g id="edge4_Node000001_Node000005" class="edge">
<title>Node1&#45;&gt;Node5</title>
<g id="a_edge4_Node000001_Node000005"><a xlink:title=" ">
<path fill="none" stroke="#8b1a1a" d="M70.25,-44.08C70.25,-35.6 70.25,-26.8 70.25,-20.41"/>
<polygon fill="#8b1a1a" stroke="#8b1a1a" points="66.75,-44.03 70.25,-54.03 73.75,-44.03 66.75,-44.03"/>
</a>
</g>
</g>
<!-- Node2 -->
<g id="Node000002" class="node">
<title>Node2</title>
<g id="a_Node000002"><a xlink:href="../../d7/d06/class_no_indication_action_input_base.html" target="_top" xlink:title=" ">
<polygon fill="white" stroke="#666666" points="140.5,-144 0,-144 0,-124 140.5,-124 140.5,-144"/>
<text text-anchor="middle" x="70.25" y="-130.5" font-family="Helvetica,sans-Serif" font-size="10.00">NoIndicationActionInputBase</text>
</a>
</g>
</g>
<!-- Node2&#45;&gt;Node1 -->
<g id="edge1_Node000001_Node000002" class="edge">
<title>Node2&#45;&gt;Node1</title>
<g id="a_edge1_Node000001_Node000002"><a xlink:title=" ">
<path fill="none" stroke="#8b1a1a" d="M70.25,-112.31C70.25,-104.37 70.25,-95.46 70.25,-88.14"/>
<polygon fill="#8b1a1a" stroke="#8b1a1a" points="66.75,-112.11 70.25,-122.11 73.75,-112.11 66.75,-112.11"/>
</a>
</g>
</g>
<!-- Node3 -->
<g id="Node000003" class="node">
<title>Node3</title>
<g id="a_Node000003"><a xlink:href="../../dc/d07/class_action_input.html" target="_top" xlink:title=" ">
<polygon fill="white" stroke="#666666" points="102.62,-200 37.88,-200 37.88,-180 102.62,-180 102.62,-200"/>
<text text-anchor="middle" x="70.25" y="-186.5" font-family="Helvetica,sans-Serif" font-size="10.00">ActionInput</text>
</a>
</g>
</g>
<!-- Node3&#45;&gt;Node2 -->
<g id="edge2_Node000002_Node000003" class="edge">
<title>Node3&#45;&gt;Node2</title>
<g id="a_edge2_Node000002_Node000003"><a xlink:title=" ">
<path fill="none" stroke="#8b1a1a" d="M70.25,-168.13C70.25,-159.9 70.25,-150.85 70.25,-144.3"/>
<polygon fill="#8b1a1a" stroke="#8b1a1a" points="66.75,-168.08 70.25,-178.08 73.75,-168.08 66.75,-168.08"/>
</a>
</g>
</g>
<!-- Node4 -->
<g id="Node000004" class="node">
<title>Node4</title>
<g id="a_Node000004"><a xlink:href="../../d1/d06/class_action_input___basic.html" target="_top" xlink:title=" ">
<polygon fill="white" stroke="#666666" points="117.62,-256 22.88,-256 22.88,-236 117.62,-236 117.62,-256"/>
<text text-anchor="middle" x="70.25" y="-242.5" font-family="Helvetica,sans-Serif" font-size="10.00">ActionInput_Basic</text>
</a>
</g>
</g>
<!-- Node4&#45;&gt;Node3 -->
<g id="edge3_Node000003_Node000004" class="edge">
<title>Node4&#45;&gt;Node3</title>
<g id="a_edge3_Node000003_Node000004"><a xlink:title=" ">
<path fill="none" stroke="#8b1a1a" d="M70.25,-224.13C70.25,-215.9 70.25,-206.85 70.25,-200.3"/>
<polygon fill="#8b1a1a" stroke="#8b1a1a" points="66.75,-224.08 70.25,-234.08 73.75,-224.08 66.75,-224.08"/>
</a>
</g>
</g>
</g>
</svg>
</svg>

<style type='text/css'>
<![CDATA[
[data-mouse-over-selected='false'] { opacity: 0.7; }
[data-mouse-over-selected='true']  { opacity: 1.0; }
]]>
</style>
<script type="application/ecmascript"><![CDATA[
document.addEventListener('DOMContentLoaded', (event) => {
  highlightEdges();
  highlightAdjacentNodes();
});
]]></script>
</svg>
